<svg width="1408" height="161" viewBox="0 0 1408 161" fill="none" xmlns="http://www.w3.org/2000/svg">
<rect width="1408" height="161" fill="white"/>
<path d="M198 100H64V108H198V100Z" fill="#6FE9FF" mask="url(#path-1-inside-1_6312_18931)"/>
<g clip-path="url(#clip0_6312_18931)">
<path fill-rule="evenodd" clip-rule="evenodd" d="M80.625 87.2917V89.375H82.7083V88.125H81.875V87.2917H80.625ZM88.9583 89.375H84.7917V88.125H88.9583V89.375ZM91.0417 89.375V88.125H95.2083V89.375H91.0417ZM97.2917 89.375V88.125H98.125V87.2917H99.375V89.375H97.2917ZM99.375 85.2083H98.125V81.0417H99.375V85.2083ZM99.375 78.9583H98.125V74.7917H99.375V78.9583ZM99.375 72.7083H98.125V71.875H97.2917V70.625H99.375V72.7083ZM95.2083 70.625V71.875H91.0417V70.625H95.2083ZM88.9583 70.625V71.875H84.7917V70.625H88.9583ZM82.7083 70.625V71.875H81.875V72.7083H80.625V70.625H82.7083ZM80.625 74.7917H81.875V78.9583H80.625V74.7917ZM80.625 81.0417H81.875V85.2083H80.625V81.0417Z" fill="#2A2859"/>
</g>
<path d="M109.104 77.456C109.104 75.36 111.04 74 113.344 74C115.232 74 116.736 74.656 117.648 76.224L116.096 77.184C115.584 76.224 114.496 75.664 113.328 75.664C111.936 75.664 110.992 76.288 110.992 77.312C110.992 78.16 111.52 78.72 112.672 78.912L114.496 79.184C116.56 79.504 118 80.624 118 82.528C118 84.528 116.304 86.16 113.472 86.16C111.456 86.16 109.792 85.456 108.784 83.744L110.352 82.736C111.104 84.096 112.384 84.48 113.488 84.48C115.072 84.48 116.048 83.68 116.048 82.592C116.048 81.6 115.424 81.152 114.272 80.96L112.256 80.64C110.352 80.352 109.104 79.248 109.104 77.456ZM120.945 76.112C120.241 76.112 119.681 75.568 119.681 74.848C119.681 74.128 120.241 73.584 120.945 73.584C121.649 73.584 122.193 74.128 122.193 74.848C122.193 75.568 121.649 76.112 120.945 76.112ZM120.049 86V77.52H121.841V86H120.049ZM130.028 74.16H131.82V86H130.028V84.464C129.372 85.648 128.348 86.128 127.372 86.128C125.324 86.128 123.852 84.368 123.852 81.792C123.852 79.12 125.34 77.344 127.58 77.344C128.54 77.344 129.5 77.776 130.028 78.816V74.16ZM127.852 84.56C129.148 84.56 130.028 83.68 130.028 81.696C130.028 79.728 129.164 78.784 127.852 78.784C126.62 78.784 125.708 79.776 125.708 81.696C125.708 83.6 126.62 84.56 127.852 84.56ZM139.973 83.328L141.189 84.032C140.709 85.088 139.589 86.144 137.653 86.144C135.141 86.144 133.621 84.288 133.621 81.68C133.621 79.104 135.269 77.328 137.525 77.328C139.525 77.328 141.173 78.672 141.173 81.072L141.141 82.128H135.381C135.477 83.92 136.357 84.688 137.765 84.688C138.805 84.688 139.525 84.128 139.973 83.328ZM137.525 78.736C136.437 78.736 135.525 79.312 135.381 80.848H139.429C139.445 79.344 138.517 78.736 137.525 78.736ZM145.427 83.376C145.427 84.32 146.003 84.608 146.595 84.608C147.059 84.608 147.427 84.416 147.795 84.048L148.563 85.2C147.923 85.84 147.219 86.144 146.307 86.144C144.835 86.144 143.635 85.248 143.635 83.488V78.912H142.147V77.52H143.635V75.632L145.427 74.816V77.52H148.419V78.912H145.427V83.376ZM149.885 73.84H152.077V76H149.885V73.84ZM150.093 86V77.52H151.885V86H150.093ZM156.824 83.376C156.824 84.32 157.4 84.608 157.992 84.608C158.456 84.608 158.824 84.416 159.192 84.048L159.96 85.2C159.32 85.84 158.616 86.144 157.704 86.144C156.232 86.144 155.032 85.248 155.032 83.488V78.912H153.544V77.52H155.032V75.632L156.824 74.816V77.52H159.816V78.912H156.824V83.376ZM163.749 83.376C163.749 84.32 164.325 84.608 164.917 84.608C165.381 84.608 165.749 84.416 166.117 84.048L166.885 85.2C166.245 85.84 165.541 86.144 164.629 86.144C163.157 86.144 161.957 85.248 161.957 83.488V78.912H160.469V77.52H161.957V75.632L163.749 74.816V77.52H166.741V78.912H163.749V83.376ZM173.833 83.328L175.049 84.032C174.569 85.088 173.449 86.144 171.513 86.144C169.001 86.144 167.481 84.288 167.481 81.68C167.481 79.104 169.129 77.328 171.385 77.328C173.385 77.328 175.033 78.672 175.033 81.072L175.001 82.128H169.241C169.337 83.92 170.217 84.688 171.625 84.688C172.665 84.688 173.385 84.128 173.833 83.328ZM171.385 78.736C170.297 78.736 169.385 79.312 169.241 80.848H173.289C173.305 79.344 172.377 78.736 171.385 78.736ZM180.451 85.952C180.115 86.048 179.779 86.096 179.427 86.096C177.811 86.096 177.043 85.136 177.043 83.584V74.16H178.835V83.456C178.835 84.192 179.267 84.528 179.923 84.528C180.083 84.528 180.259 84.512 180.451 84.464V85.952Z" fill="#2A2859"/>
<g clip-path="url(#clip1_6312_18931)">
<path fill-rule="evenodd" clip-rule="evenodd" d="M214.625 87.2917V89.375H216.708V88.125H215.875V87.2917H214.625ZM222.958 89.375H218.792V88.125H222.958V89.375ZM225.042 89.375V88.125H229.208V89.375H225.042ZM231.292 89.375V88.125H232.125V87.2917H233.375V89.375H231.292ZM233.375 85.2083H232.125V81.0417H233.375V85.2083ZM233.375 78.9583H232.125V74.7917H233.375V78.9583ZM233.375 72.7083H232.125V71.875H231.292V70.625H233.375V72.7083ZM229.208 70.625V71.875H225.042V70.625H229.208ZM222.958 70.625V71.875H218.792V70.625H222.958ZM216.708 70.625V71.875H215.875V72.7083H214.625V70.625H216.708ZM214.625 74.7917H215.875V78.9583H214.625V74.7917ZM214.625 81.0417H215.875V85.2083H214.625V81.0417Z" fill="#666666"/>
</g>
<path d="M243.152 77.36C243.152 75.328 245.008 74.016 247.2 74.016C249.104 74.016 250.496 74.784 251.216 76.304L249.968 76.944C249.472 75.888 248.4 75.28 247.184 75.28C245.648 75.28 244.592 76.032 244.592 77.232C244.592 78.224 245.184 78.848 246.48 79.088L248.32 79.408C250.256 79.744 251.632 80.784 251.632 82.608C251.632 84.512 250.032 86.144 247.344 86.144C245.312 86.144 243.712 85.44 242.816 83.696L244.064 83.04C244.832 84.528 246.144 84.864 247.36 84.864C249.152 84.864 250.176 83.872 250.176 82.672C250.176 81.424 249.344 81.008 248.032 80.768L246.192 80.448C244.448 80.144 243.152 79.152 243.152 77.36ZM254.441 76.032C253.833 76.032 253.353 75.568 253.353 74.944C253.353 74.336 253.833 73.872 254.441 73.872C255.033 73.872 255.513 74.336 255.513 74.944C255.513 75.568 255.033 76.032 254.441 76.032ZM253.753 86V77.52H255.129V86H253.753ZM263.454 74.16H264.83V86H263.454V84.416C262.862 85.552 261.758 86.112 260.718 86.112C258.606 86.112 257.134 84.336 257.134 81.824C257.134 79.184 258.622 77.376 260.878 77.376C261.966 77.376 262.942 77.888 263.454 78.976V74.16ZM260.974 84.912C262.51 84.912 263.454 83.808 263.454 81.76C263.454 79.648 262.526 78.528 260.99 78.528C259.55 78.528 258.558 79.648 258.558 81.76C258.558 83.792 259.55 84.912 260.974 84.912ZM273.068 83.488L274.044 84.032C273.596 85.088 272.524 86.144 270.62 86.144C268.172 86.144 266.716 84.32 266.716 81.664C266.716 79.136 268.268 77.36 270.492 77.36C272.38 77.36 273.996 78.688 273.996 81.04L273.964 82.016H268.092C268.188 84.096 269.196 84.976 270.732 84.976C271.9 84.976 272.652 84.304 273.068 83.488ZM270.492 78.512C269.292 78.512 268.252 79.136 268.092 80.944H272.652C272.668 79.232 271.628 78.512 270.492 78.512ZM277.872 83.68C277.872 84.656 278.464 84.944 279.008 84.944C279.504 84.944 279.856 84.752 280.24 84.352L280.896 85.2C280.304 85.856 279.648 86.128 278.832 86.128C277.552 86.128 276.496 85.312 276.496 83.712V78.624H274.944V77.52H276.496V75.664L277.872 74.96V77.52H280.72V78.624H277.872V83.68ZM282.244 74.064H284.132V75.92H282.244V74.064ZM282.5 86V77.52H283.876V86H282.5ZM288.409 83.68C288.409 84.656 289.001 84.944 289.545 84.944C290.041 84.944 290.393 84.752 290.777 84.352L291.433 85.2C290.841 85.856 290.185 86.128 289.369 86.128C288.089 86.128 287.033 85.312 287.033 83.712V78.624H285.481V77.52H287.033V75.664L288.409 74.96V77.52H291.257V78.624H288.409V83.68ZM294.772 83.68C294.772 84.656 295.364 84.944 295.908 84.944C296.404 84.944 296.756 84.752 297.14 84.352L297.796 85.2C297.204 85.856 296.548 86.128 295.732 86.128C294.452 86.128 293.396 85.312 293.396 83.712V78.624H291.844V77.52H293.396V75.664L294.772 74.96V77.52H297.62V78.624H294.772V83.68ZM304.755 83.488L305.731 84.032C305.283 85.088 304.211 86.144 302.307 86.144C299.859 86.144 298.403 84.32 298.403 81.664C298.403 79.136 299.955 77.36 302.179 77.36C304.067 77.36 305.683 78.688 305.683 81.04L305.651 82.016H299.779C299.875 84.096 300.883 84.976 302.419 84.976C303.587 84.976 304.339 84.304 304.755 83.488ZM302.179 78.512C300.979 78.512 299.939 79.136 299.779 80.944H304.339C304.355 79.232 303.315 78.512 302.179 78.512ZM310.691 85.968C310.403 86.032 310.147 86.08 309.859 86.08C308.419 86.08 307.731 85.2 307.731 83.824V74.16H309.107V83.76C309.107 84.496 309.507 84.848 310.179 84.848C310.339 84.848 310.515 84.832 310.691 84.784V85.968Z" fill="#666666"/>
<g clip-path="url(#clip2_6312_18931)">
<path fill-rule="evenodd" clip-rule="evenodd" d="M344.625 87.2917V89.375H346.708V88.125H345.875V87.2917H344.625ZM352.958 89.375H348.792V88.125H352.958V89.375ZM355.042 89.375V88.125H359.208V89.375H355.042ZM361.292 89.375V88.125H362.125V87.2917H363.375V89.375H361.292ZM363.375 85.2083H362.125V81.0417H363.375V85.2083ZM363.375 78.9583H362.125V74.7917H363.375V78.9583ZM363.375 72.7083H362.125V71.875H361.292V70.625H363.375V72.7083ZM359.208 70.625V71.875H355.042V70.625H359.208ZM352.958 70.625V71.875H348.792V70.625H352.958ZM346.708 70.625V71.875H345.875V72.7083H344.625V70.625H346.708ZM344.625 74.7917H345.875V78.9583H344.625V74.7917ZM344.625 81.0417H345.875V85.2083H344.625V81.0417Z" fill="#666666"/>
</g>
<path d="M373.152 77.36C373.152 75.328 375.008 74.016 377.2 74.016C379.104 74.016 380.496 74.784 381.216 76.304L379.968 76.944C379.472 75.888 378.4 75.28 377.184 75.28C375.648 75.28 374.592 76.032 374.592 77.232C374.592 78.224 375.184 78.848 376.48 79.088L378.32 79.408C380.256 79.744 381.632 80.784 381.632 82.608C381.632 84.512 380.032 86.144 377.344 86.144C375.312 86.144 373.712 85.44 372.816 83.696L374.064 83.04C374.832 84.528 376.144 84.864 377.36 84.864C379.152 84.864 380.176 83.872 380.176 82.672C380.176 81.424 379.344 81.008 378.032 80.768L376.192 80.448C374.448 80.144 373.152 79.152 373.152 77.36ZM384.441 76.032C383.833 76.032 383.353 75.568 383.353 74.944C383.353 74.336 383.833 73.872 384.441 73.872C385.033 73.872 385.513 74.336 385.513 74.944C385.513 75.568 385.033 76.032 384.441 76.032ZM383.753 86V77.52H385.129V86H383.753ZM393.454 74.16H394.83V86H393.454V84.416C392.862 85.552 391.758 86.112 390.718 86.112C388.606 86.112 387.134 84.336 387.134 81.824C387.134 79.184 388.622 77.376 390.878 77.376C391.966 77.376 392.942 77.888 393.454 78.976V74.16ZM390.974 84.912C392.51 84.912 393.454 83.808 393.454 81.76C393.454 79.648 392.526 78.528 390.99 78.528C389.55 78.528 388.558 79.648 388.558 81.76C388.558 83.792 389.55 84.912 390.974 84.912ZM403.068 83.488L404.044 84.032C403.596 85.088 402.524 86.144 400.62 86.144C398.172 86.144 396.716 84.32 396.716 81.664C396.716 79.136 398.268 77.36 400.492 77.36C402.38 77.36 403.996 78.688 403.996 81.04L403.964 82.016H398.092C398.188 84.096 399.196 84.976 400.732 84.976C401.9 84.976 402.652 84.304 403.068 83.488ZM400.492 78.512C399.292 78.512 398.252 79.136 398.092 80.944H402.652C402.668 79.232 401.628 78.512 400.492 78.512ZM407.872 83.68C407.872 84.656 408.464 84.944 409.008 84.944C409.504 84.944 409.856 84.752 410.24 84.352L410.896 85.2C410.304 85.856 409.648 86.128 408.832 86.128C407.552 86.128 406.496 85.312 406.496 83.712V78.624H404.944V77.52H406.496V75.664L407.872 74.96V77.52H410.72V78.624H407.872V83.68ZM412.244 74.064H414.132V75.92H412.244V74.064ZM412.5 86V77.52H413.876V86H412.5ZM418.409 83.68C418.409 84.656 419.001 84.944 419.545 84.944C420.041 84.944 420.393 84.752 420.777 84.352L421.433 85.2C420.841 85.856 420.185 86.128 419.369 86.128C418.089 86.128 417.033 85.312 417.033 83.712V78.624H415.481V77.52H417.033V75.664L418.409 74.96V77.52H421.257V78.624H418.409V83.68ZM424.772 83.68C424.772 84.656 425.364 84.944 425.908 84.944C426.404 84.944 426.756 84.752 427.14 84.352L427.796 85.2C427.204 85.856 426.548 86.128 425.732 86.128C424.452 86.128 423.396 85.312 423.396 83.712V78.624H421.844V77.52H423.396V75.664L424.772 74.96V77.52H427.62V78.624H424.772V83.68ZM434.755 83.488L435.731 84.032C435.283 85.088 434.211 86.144 432.307 86.144C429.859 86.144 428.403 84.32 428.403 81.664C428.403 79.136 429.955 77.36 432.179 77.36C434.067 77.36 435.683 78.688 435.683 81.04L435.651 82.016H429.779C429.875 84.096 430.883 84.976 432.419 84.976C433.587 84.976 434.339 84.304 434.755 83.488ZM432.179 78.512C430.979 78.512 429.939 79.136 429.779 80.944H434.339C434.355 79.232 433.315 78.512 432.179 78.512ZM440.691 85.968C440.403 86.032 440.147 86.08 439.859 86.08C438.419 86.08 437.731 85.2 437.731 83.824V74.16H439.107V83.76C439.107 84.496 439.507 84.848 440.179 84.848C440.339 84.848 440.515 84.832 440.691 84.784V85.968Z" fill="#666666"/>
<g clip-path="url(#clip3_6312_18931)">
<path fill-rule="evenodd" clip-rule="evenodd" d="M474.625 87.2917V89.375H476.708V88.125H475.875V87.2917H474.625ZM482.958 89.375H478.792V88.125H482.958V89.375ZM485.042 89.375V88.125H489.208V89.375H485.042ZM491.292 89.375V88.125H492.125V87.2917H493.375V89.375H491.292ZM493.375 85.2083H492.125V81.0417H493.375V85.2083ZM493.375 78.9583H492.125V74.7917H493.375V78.9583ZM493.375 72.7083H492.125V71.875H491.292V70.625H493.375V72.7083ZM489.208 70.625V71.875H485.042V70.625H489.208ZM482.958 70.625V71.875H478.792V70.625H482.958ZM476.708 70.625V71.875H475.875V72.7083H474.625V70.625H476.708ZM474.625 74.7917H475.875V78.9583H474.625V74.7917ZM474.625 81.0417H475.875V85.2083H474.625V81.0417Z" fill="#666666"/>
</g>
<path d="M503.152 77.36C503.152 75.328 505.008 74.016 507.2 74.016C509.104 74.016 510.496 74.784 511.216 76.304L509.968 76.944C509.472 75.888 508.4 75.28 507.184 75.28C505.648 75.28 504.592 76.032 504.592 77.232C504.592 78.224 505.184 78.848 506.48 79.088L508.32 79.408C510.256 79.744 511.632 80.784 511.632 82.608C511.632 84.512 510.032 86.144 507.344 86.144C505.312 86.144 503.712 85.44 502.816 83.696L504.064 83.04C504.832 84.528 506.144 84.864 507.36 84.864C509.152 84.864 510.176 83.872 510.176 82.672C510.176 81.424 509.344 81.008 508.032 80.768L506.192 80.448C504.448 80.144 503.152 79.152 503.152 77.36ZM514.441 76.032C513.833 76.032 513.353 75.568 513.353 74.944C513.353 74.336 513.833 73.872 514.441 73.872C515.033 73.872 515.513 74.336 515.513 74.944C515.513 75.568 515.033 76.032 514.441 76.032ZM513.753 86V77.52H515.129V86H513.753ZM523.454 74.16H524.83V86H523.454V84.416C522.862 85.552 521.758 86.112 520.718 86.112C518.606 86.112 517.134 84.336 517.134 81.824C517.134 79.184 518.622 77.376 520.878 77.376C521.966 77.376 522.942 77.888 523.454 78.976V74.16ZM520.974 84.912C522.51 84.912 523.454 83.808 523.454 81.76C523.454 79.648 522.526 78.528 520.99 78.528C519.55 78.528 518.558 79.648 518.558 81.76C518.558 83.792 519.55 84.912 520.974 84.912ZM533.068 83.488L534.044 84.032C533.596 85.088 532.524 86.144 530.62 86.144C528.172 86.144 526.716 84.32 526.716 81.664C526.716 79.136 528.268 77.36 530.492 77.36C532.38 77.36 533.996 78.688 533.996 81.04L533.964 82.016H528.092C528.188 84.096 529.196 84.976 530.732 84.976C531.9 84.976 532.652 84.304 533.068 83.488ZM530.492 78.512C529.292 78.512 528.252 79.136 528.092 80.944H532.652C532.668 79.232 531.628 78.512 530.492 78.512ZM537.872 83.68C537.872 84.656 538.464 84.944 539.008 84.944C539.504 84.944 539.856 84.752 540.24 84.352L540.896 85.2C540.304 85.856 539.648 86.128 538.832 86.128C537.552 86.128 536.496 85.312 536.496 83.712V78.624H534.944V77.52H536.496V75.664L537.872 74.96V77.52H540.72V78.624H537.872V83.68ZM542.244 74.064H544.132V75.92H542.244V74.064ZM542.5 86V77.52H543.876V86H542.5ZM548.409 83.68C548.409 84.656 549.001 84.944 549.545 84.944C550.041 84.944 550.393 84.752 550.777 84.352L551.433 85.2C550.841 85.856 550.185 86.128 549.369 86.128C548.089 86.128 547.033 85.312 547.033 83.712V78.624H545.481V77.52H547.033V75.664L548.409 74.96V77.52H551.257V78.624H548.409V83.68ZM554.772 83.68C554.772 84.656 555.364 84.944 555.908 84.944C556.404 84.944 556.756 84.752 557.14 84.352L557.796 85.2C557.204 85.856 556.548 86.128 555.732 86.128C554.452 86.128 553.396 85.312 553.396 83.712V78.624H551.844V77.52H553.396V75.664L554.772 74.96V77.52H557.62V78.624H554.772V83.68ZM564.755 83.488L565.731 84.032C565.283 85.088 564.211 86.144 562.307 86.144C559.859 86.144 558.403 84.32 558.403 81.664C558.403 79.136 559.955 77.36 562.179 77.36C564.067 77.36 565.683 78.688 565.683 81.04L565.651 82.016H559.779C559.875 84.096 560.883 84.976 562.419 84.976C563.587 84.976 564.339 84.304 564.755 83.488ZM562.179 78.512C560.979 78.512 559.939 79.136 559.779 80.944H564.339C564.355 79.232 563.315 78.512 562.179 78.512ZM570.691 85.968C570.403 86.032 570.147 86.08 569.859 86.08C568.419 86.08 567.731 85.2 567.731 83.824V74.16H569.107V83.76C569.107 84.496 569.507 84.848 570.179 84.848C570.339 84.848 570.515 84.832 570.691 84.784V85.968Z" fill="#666666"/>
<g clip-path="url(#clip4_6312_18931)">
<path fill-rule="evenodd" clip-rule="evenodd" d="M604.625 87.2917V89.375H606.708V88.125H605.875V87.2917H604.625ZM612.958 89.375H608.792V88.125H612.958V89.375ZM615.042 89.375V88.125H619.208V89.375H615.042ZM621.292 89.375V88.125H622.125V87.2917H623.375V89.375H621.292ZM623.375 85.2083H622.125V81.0417H623.375V85.2083ZM623.375 78.9583H622.125V74.7917H623.375V78.9583ZM623.375 72.7083H622.125V71.875H621.292V70.625H623.375V72.7083ZM619.208 70.625V71.875H615.042V70.625H619.208ZM612.958 70.625V71.875H608.792V70.625H612.958ZM606.708 70.625V71.875H605.875V72.7083H604.625V70.625H606.708ZM604.625 74.7917H605.875V78.9583H604.625V74.7917ZM604.625 81.0417H605.875V85.2083H604.625V81.0417Z" fill="#666666"/>
</g>
<path d="M633.152 77.36C633.152 75.328 635.008 74.016 637.2 74.016C639.104 74.016 640.496 74.784 641.216 76.304L639.968 76.944C639.472 75.888 638.4 75.28 637.184 75.28C635.648 75.28 634.592 76.032 634.592 77.232C634.592 78.224 635.184 78.848 636.48 79.088L638.32 79.408C640.256 79.744 641.632 80.784 641.632 82.608C641.632 84.512 640.032 86.144 637.344 86.144C635.312 86.144 633.712 85.44 632.816 83.696L634.064 83.04C634.832 84.528 636.144 84.864 637.36 84.864C639.152 84.864 640.176 83.872 640.176 82.672C640.176 81.424 639.344 81.008 638.032 80.768L636.192 80.448C634.448 80.144 633.152 79.152 633.152 77.36ZM644.441 76.032C643.833 76.032 643.353 75.568 643.353 74.944C643.353 74.336 643.833 73.872 644.441 73.872C645.033 73.872 645.513 74.336 645.513 74.944C645.513 75.568 645.033 76.032 644.441 76.032ZM643.753 86V77.52H645.129V86H643.753ZM653.454 74.16H654.83V86H653.454V84.416C652.862 85.552 651.758 86.112 650.718 86.112C648.606 86.112 647.134 84.336 647.134 81.824C647.134 79.184 648.622 77.376 650.878 77.376C651.966 77.376 652.942 77.888 653.454 78.976V74.16ZM650.974 84.912C652.51 84.912 653.454 83.808 653.454 81.76C653.454 79.648 652.526 78.528 650.99 78.528C649.55 78.528 648.558 79.648 648.558 81.76C648.558 83.792 649.55 84.912 650.974 84.912ZM663.068 83.488L664.044 84.032C663.596 85.088 662.524 86.144 660.62 86.144C658.172 86.144 656.716 84.32 656.716 81.664C656.716 79.136 658.268 77.36 660.492 77.36C662.38 77.36 663.996 78.688 663.996 81.04L663.964 82.016H658.092C658.188 84.096 659.196 84.976 660.732 84.976C661.9 84.976 662.652 84.304 663.068 83.488ZM660.492 78.512C659.292 78.512 658.252 79.136 658.092 80.944H662.652C662.668 79.232 661.628 78.512 660.492 78.512ZM667.872 83.68C667.872 84.656 668.464 84.944 669.008 84.944C669.504 84.944 669.856 84.752 670.24 84.352L670.896 85.2C670.304 85.856 669.648 86.128 668.832 86.128C667.552 86.128 666.496 85.312 666.496 83.712V78.624H664.944V77.52H666.496V75.664L667.872 74.96V77.52H670.72V78.624H667.872V83.68ZM672.244 74.064H674.132V75.92H672.244V74.064ZM672.5 86V77.52H673.876V86H672.5ZM678.409 83.68C678.409 84.656 679.001 84.944 679.545 84.944C680.041 84.944 680.393 84.752 680.777 84.352L681.433 85.2C680.841 85.856 680.185 86.128 679.369 86.128C678.089 86.128 677.033 85.312 677.033 83.712V78.624H675.481V77.52H677.033V75.664L678.409 74.96V77.52H681.257V78.624H678.409V83.68ZM684.772 83.68C684.772 84.656 685.364 84.944 685.908 84.944C686.404 84.944 686.756 84.752 687.14 84.352L687.796 85.2C687.204 85.856 686.548 86.128 685.732 86.128C684.452 86.128 683.396 85.312 683.396 83.712V78.624H681.844V77.52H683.396V75.664L684.772 74.96V77.52H687.62V78.624H684.772V83.68ZM694.755 83.488L695.731 84.032C695.283 85.088 694.211 86.144 692.307 86.144C689.859 86.144 688.403 84.32 688.403 81.664C688.403 79.136 689.955 77.36 692.179 77.36C694.067 77.36 695.683 78.688 695.683 81.04L695.651 82.016H689.779C689.875 84.096 690.883 84.976 692.419 84.976C693.587 84.976 694.339 84.304 694.755 83.488ZM692.179 78.512C690.979 78.512 689.939 79.136 689.779 80.944H694.339C694.355 79.232 693.315 78.512 692.179 78.512ZM700.691 85.968C700.403 86.032 700.147 86.08 699.859 86.08C698.419 86.08 697.731 85.2 697.731 83.824V74.16H699.107V83.76C699.107 84.496 699.507 84.848 700.179 84.848C700.339 84.848 700.515 84.832 700.691 84.784V85.968Z" fill="#666666"/>
<rect width="1280" height="1" transform="matrix(1 0 0 -1 64 105)" fill="#CCCCCC"/>
<defs>
<clipPath id="clip0_6312_18931">
<rect width="20" height="20" fill="white" transform="translate(80 70)"/>
</clipPath>
<clipPath id="clip1_6312_18931">
<rect width="20" height="20" fill="white" transform="translate(214 70)"/>
</clipPath>
<clipPath id="clip2_6312_18931">
<rect width="20" height="20" fill="white" transform="translate(344 70)"/>
</clipPath>
<clipPath id="clip3_6312_18931">
<rect width="20" height="20" fill="white" transform="translate(474 70)"/>
</clipPath>
<clipPath id="clip4_6312_18931">
<rect width="20" height="20" fill="white" transform="translate(604 70)"/>
</clipPath>
</defs>
</svg>
