<svg width="740" height="256" viewBox="0 0 740 256" fill="none" xmlns="http://www.w3.org/2000/svg">
<rect width="740" height="256" fill="white"/>
<g clip-path="url(#clip0_6347_28030)">
<path d="M249 100H103V108H249V100Z" fill="#6FE9FF" mask="url(#path-1-inside-1_6347_28030)"/>
<path d="M120.104 77.456C120.104 75.36 122.04 74 124.344 74C126.232 74 127.736 74.656 128.648 76.224L127.096 77.184C126.584 76.224 125.496 75.664 124.328 75.664C122.936 75.664 121.992 76.288 121.992 77.312C121.992 78.16 122.52 78.72 123.672 78.912L125.496 79.184C127.56 79.504 129 80.624 129 82.528C129 84.528 127.304 86.16 124.472 86.16C122.456 86.16 120.792 85.456 119.784 83.744L121.352 82.736C122.104 84.096 123.384 84.48 124.488 84.48C126.072 84.48 127.048 83.68 127.048 82.592C127.048 81.6 126.424 81.152 125.272 80.96L123.256 80.64C121.352 80.352 120.104 79.248 120.104 77.456ZM131.945 76.112C131.241 76.112 130.681 75.568 130.681 74.848C130.681 74.128 131.241 73.584 131.945 73.584C132.649 73.584 133.193 74.128 133.193 74.848C133.193 75.568 132.649 76.112 131.945 76.112ZM131.049 86V77.52H132.841V86H131.049ZM141.028 74.16H142.82V86H141.028V84.464C140.372 85.648 139.348 86.128 138.372 86.128C136.324 86.128 134.852 84.368 134.852 81.792C134.852 79.12 136.34 77.344 138.58 77.344C139.54 77.344 140.5 77.776 141.028 78.816V74.16ZM138.852 84.56C140.148 84.56 141.028 83.68 141.028 81.696C141.028 79.728 140.164 78.784 138.852 78.784C137.62 78.784 136.708 79.776 136.708 81.696C136.708 83.6 137.62 84.56 138.852 84.56ZM150.973 83.328L152.189 84.032C151.709 85.088 150.589 86.144 148.653 86.144C146.141 86.144 144.621 84.288 144.621 81.68C144.621 79.104 146.269 77.328 148.525 77.328C150.525 77.328 152.173 78.672 152.173 81.072L152.141 82.128H146.381C146.477 83.92 147.357 84.688 148.765 84.688C149.805 84.688 150.525 84.128 150.973 83.328ZM148.525 78.736C147.437 78.736 146.525 79.312 146.381 80.848H150.429C150.445 79.344 149.517 78.736 148.525 78.736ZM156.427 83.376C156.427 84.32 157.003 84.608 157.595 84.608C158.059 84.608 158.427 84.416 158.795 84.048L159.563 85.2C158.923 85.84 158.219 86.144 157.307 86.144C155.835 86.144 154.635 85.248 154.635 83.488V78.912H153.147V77.52H154.635V75.632L156.427 74.816V77.52H159.419V78.912H156.427V83.376ZM160.885 73.84H163.077V76H160.885V73.84ZM161.093 86V77.52H162.885V86H161.093ZM167.824 83.376C167.824 84.32 168.4 84.608 168.992 84.608C169.456 84.608 169.824 84.416 170.192 84.048L170.96 85.2C170.32 85.84 169.616 86.144 168.704 86.144C167.232 86.144 166.032 85.248 166.032 83.488V78.912H164.544V77.52H166.032V75.632L167.824 74.816V77.52H170.816V78.912H167.824V83.376ZM174.749 83.376C174.749 84.32 175.325 84.608 175.917 84.608C176.381 84.608 176.749 84.416 177.117 84.048L177.885 85.2C177.245 85.84 176.541 86.144 175.629 86.144C174.157 86.144 172.957 85.248 172.957 83.488V78.912H171.469V77.52H172.957V75.632L174.749 74.816V77.52H177.741V78.912H174.749V83.376ZM184.833 83.328L186.049 84.032C185.569 85.088 184.449 86.144 182.513 86.144C180.001 86.144 178.481 84.288 178.481 81.68C178.481 79.104 180.129 77.328 182.385 77.328C184.385 77.328 186.033 78.672 186.033 81.072L186.001 82.128H180.241C180.337 83.92 181.217 84.688 182.625 84.688C183.665 84.688 184.385 84.128 184.833 83.328ZM182.385 78.736C181.297 78.736 180.385 79.312 180.241 80.848H184.289C184.305 79.344 183.377 78.736 182.385 78.736ZM191.451 85.952C191.115 86.048 190.779 86.096 190.427 86.096C188.811 86.096 188.043 85.136 188.043 83.584V74.16H189.835V83.456C189.835 84.192 190.267 84.528 190.923 84.528C191.083 84.528 191.259 84.512 191.451 84.464V85.952Z" fill="#2A2859"/>
<rect width="32" height="22" transform="translate(201 69)" fill="#FFE7BC"/>
<path d="M213.26 74.64V76.152H210.166V85H208.528V76.152H205.434V74.64H213.26ZM219.432 85H217.99C217.878 84.622 217.808 84.174 217.78 83.6C217.43 84.37 216.646 85.126 215.358 85.126C214.014 85.126 213.062 84.216 213.062 82.928C213.062 81.318 214.49 80.52 216.086 80.52C216.59 80.52 217.066 80.562 217.584 80.702V80.002C217.584 79.204 217.08 78.686 216.17 78.686C215.316 78.686 214.714 79.148 214.434 80.016L213.104 79.61C213.636 78.042 214.91 77.412 216.24 77.412C218.214 77.412 219.11 78.574 219.11 79.988V82.858C219.11 83.74 219.25 84.524 219.432 85ZM217.584 81.934V81.766C217.136 81.612 216.702 81.556 216.24 81.556C215.316 81.556 214.602 81.976 214.602 82.788C214.602 83.474 215.092 83.908 215.834 83.908C216.59 83.908 217.584 83.46 217.584 81.934ZM228.255 78.798H226.701V78.966C226.953 79.316 227.079 79.722 227.079 80.142C227.079 81.486 226.043 82.83 223.887 82.83H223.523C222.767 82.83 222.277 83.082 222.277 83.53C222.277 83.838 222.515 84.062 222.991 84.062H226.085C227.359 84.062 228.087 84.72 228.087 85.728C228.087 87.254 226.533 88.136 224.055 88.136C221.885 88.136 220.429 87.59 220.051 86.148L221.577 85.854C221.927 86.75 222.739 86.988 224.097 86.988C225.553 86.988 226.589 86.596 226.589 85.91C226.589 85.588 226.407 85.35 225.903 85.35H222.529C221.367 85.35 220.765 84.72 220.765 83.936C220.765 83.18 221.437 82.578 222.361 82.396C221.339 81.948 220.835 80.996 220.835 80.1C220.835 78.77 221.913 77.412 223.971 77.412C224.881 77.412 225.595 77.734 226.015 78.196V77.58H228.255V78.798ZM223.971 81.696C225.049 81.696 225.553 80.94 225.553 80.128C225.553 79.316 225.049 78.574 223.971 78.574C222.907 78.574 222.389 79.316 222.389 80.128C222.389 80.94 222.907 81.696 223.971 81.696Z" fill="#2A2859"/>
</g>
<g clip-path="url(#clip1_6347_28030)">
<path d="M443 100H297V108H443V100Z" fill="#6FE9FF" mask="url(#path-5-inside-2_6347_28030)"/>
<path d="M314.104 77.456C314.104 75.36 316.04 74 318.344 74C320.232 74 321.736 74.656 322.648 76.224L321.096 77.184C320.584 76.224 319.496 75.664 318.328 75.664C316.936 75.664 315.992 76.288 315.992 77.312C315.992 78.16 316.52 78.72 317.672 78.912L319.496 79.184C321.56 79.504 323 80.624 323 82.528C323 84.528 321.304 86.16 318.472 86.16C316.456 86.16 314.792 85.456 313.784 83.744L315.352 82.736C316.104 84.096 317.384 84.48 318.488 84.48C320.072 84.48 321.048 83.68 321.048 82.592C321.048 81.6 320.424 81.152 319.272 80.96L317.256 80.64C315.352 80.352 314.104 79.248 314.104 77.456ZM325.945 76.112C325.241 76.112 324.681 75.568 324.681 74.848C324.681 74.128 325.241 73.584 325.945 73.584C326.649 73.584 327.193 74.128 327.193 74.848C327.193 75.568 326.649 76.112 325.945 76.112ZM325.049 86V77.52H326.841V86H325.049ZM335.028 74.16H336.82V86H335.028V84.464C334.372 85.648 333.348 86.128 332.372 86.128C330.324 86.128 328.852 84.368 328.852 81.792C328.852 79.12 330.34 77.344 332.58 77.344C333.54 77.344 334.5 77.776 335.028 78.816V74.16ZM332.852 84.56C334.148 84.56 335.028 83.68 335.028 81.696C335.028 79.728 334.164 78.784 332.852 78.784C331.62 78.784 330.708 79.776 330.708 81.696C330.708 83.6 331.62 84.56 332.852 84.56ZM344.973 83.328L346.189 84.032C345.709 85.088 344.589 86.144 342.653 86.144C340.141 86.144 338.621 84.288 338.621 81.68C338.621 79.104 340.269 77.328 342.525 77.328C344.525 77.328 346.173 78.672 346.173 81.072L346.141 82.128H340.381C340.477 83.92 341.357 84.688 342.765 84.688C343.805 84.688 344.525 84.128 344.973 83.328ZM342.525 78.736C341.437 78.736 340.525 79.312 340.381 80.848H344.429C344.445 79.344 343.517 78.736 342.525 78.736ZM350.427 83.376C350.427 84.32 351.003 84.608 351.595 84.608C352.059 84.608 352.427 84.416 352.795 84.048L353.563 85.2C352.923 85.84 352.219 86.144 351.307 86.144C349.835 86.144 348.635 85.248 348.635 83.488V78.912H347.147V77.52H348.635V75.632L350.427 74.816V77.52H353.419V78.912H350.427V83.376ZM354.885 73.84H357.077V76H354.885V73.84ZM355.093 86V77.52H356.885V86H355.093ZM361.824 83.376C361.824 84.32 362.4 84.608 362.992 84.608C363.456 84.608 363.824 84.416 364.192 84.048L364.96 85.2C364.32 85.84 363.616 86.144 362.704 86.144C361.232 86.144 360.032 85.248 360.032 83.488V78.912H358.544V77.52H360.032V75.632L361.824 74.816V77.52H364.816V78.912H361.824V83.376ZM368.749 83.376C368.749 84.32 369.325 84.608 369.917 84.608C370.381 84.608 370.749 84.416 371.117 84.048L371.885 85.2C371.245 85.84 370.541 86.144 369.629 86.144C368.157 86.144 366.957 85.248 366.957 83.488V78.912H365.469V77.52H366.957V75.632L368.749 74.816V77.52H371.741V78.912H368.749V83.376ZM378.833 83.328L380.049 84.032C379.569 85.088 378.449 86.144 376.513 86.144C374.001 86.144 372.481 84.288 372.481 81.68C372.481 79.104 374.129 77.328 376.385 77.328C378.385 77.328 380.033 78.672 380.033 81.072L380.001 82.128H374.241C374.337 83.92 375.217 84.688 376.625 84.688C377.665 84.688 378.385 84.128 378.833 83.328ZM376.385 78.736C375.297 78.736 374.385 79.312 374.241 80.848H378.289C378.305 79.344 377.377 78.736 376.385 78.736ZM385.451 85.952C385.115 86.048 384.779 86.096 384.427 86.096C382.811 86.096 382.043 85.136 382.043 83.584V74.16H383.835V83.456C383.835 84.192 384.267 84.528 384.923 84.528C385.083 84.528 385.259 84.512 385.451 84.464V85.952Z" fill="#2A2859"/>
<rect width="32" height="22" transform="translate(395 69)" fill="#D1F9FF"/>
<path d="M407.26 74.64V76.152H404.166V85H402.528V76.152H399.434V74.64H407.26ZM413.432 85H411.99C411.878 84.622 411.808 84.174 411.78 83.6C411.43 84.37 410.646 85.126 409.358 85.126C408.014 85.126 407.062 84.216 407.062 82.928C407.062 81.318 408.49 80.52 410.086 80.52C410.59 80.52 411.066 80.562 411.584 80.702V80.002C411.584 79.204 411.08 78.686 410.17 78.686C409.316 78.686 408.714 79.148 408.434 80.016L407.104 79.61C407.636 78.042 408.91 77.412 410.24 77.412C412.214 77.412 413.11 78.574 413.11 79.988V82.858C413.11 83.74 413.25 84.524 413.432 85ZM411.584 81.934V81.766C411.136 81.612 410.702 81.556 410.24 81.556C409.316 81.556 408.602 81.976 408.602 82.788C408.602 83.474 409.092 83.908 409.834 83.908C410.59 83.908 411.584 83.46 411.584 81.934ZM422.255 78.798H420.701V78.966C420.953 79.316 421.079 79.722 421.079 80.142C421.079 81.486 420.043 82.83 417.887 82.83H417.523C416.767 82.83 416.277 83.082 416.277 83.53C416.277 83.838 416.515 84.062 416.991 84.062H420.085C421.359 84.062 422.087 84.72 422.087 85.728C422.087 87.254 420.533 88.136 418.055 88.136C415.885 88.136 414.429 87.59 414.051 86.148L415.577 85.854C415.927 86.75 416.739 86.988 418.097 86.988C419.553 86.988 420.589 86.596 420.589 85.91C420.589 85.588 420.407 85.35 419.903 85.35H416.529C415.367 85.35 414.765 84.72 414.765 83.936C414.765 83.18 415.437 82.578 416.361 82.396C415.339 81.948 414.835 80.996 414.835 80.1C414.835 78.77 415.913 77.412 417.971 77.412C418.881 77.412 419.595 77.734 420.015 78.196V77.58H422.255V78.798ZM417.971 81.696C419.049 81.696 419.553 80.94 419.553 80.128C419.553 79.316 419.049 78.574 417.971 78.574C416.907 78.574 416.389 79.316 416.389 80.128C416.389 80.94 416.907 81.696 417.971 81.696Z" fill="#2A2859"/>
</g>
<g clip-path="url(#clip2_6347_28030)">
<path d="M637 100H491V108H637V100Z" fill="#6FE9FF" mask="url(#path-9-inside-3_6347_28030)"/>
<path d="M508.104 77.456C508.104 75.36 510.04 74 512.344 74C514.232 74 515.736 74.656 516.648 76.224L515.096 77.184C514.584 76.224 513.496 75.664 512.328 75.664C510.936 75.664 509.992 76.288 509.992 77.312C509.992 78.16 510.52 78.72 511.672 78.912L513.496 79.184C515.56 79.504 517 80.624 517 82.528C517 84.528 515.304 86.16 512.472 86.16C510.456 86.16 508.792 85.456 507.784 83.744L509.352 82.736C510.104 84.096 511.384 84.48 512.488 84.48C514.072 84.48 515.048 83.68 515.048 82.592C515.048 81.6 514.424 81.152 513.272 80.96L511.256 80.64C509.352 80.352 508.104 79.248 508.104 77.456ZM519.945 76.112C519.241 76.112 518.681 75.568 518.681 74.848C518.681 74.128 519.241 73.584 519.945 73.584C520.649 73.584 521.193 74.128 521.193 74.848C521.193 75.568 520.649 76.112 519.945 76.112ZM519.049 86V77.52H520.841V86H519.049ZM529.028 74.16H530.82V86H529.028V84.464C528.372 85.648 527.348 86.128 526.372 86.128C524.324 86.128 522.852 84.368 522.852 81.792C522.852 79.12 524.34 77.344 526.58 77.344C527.54 77.344 528.5 77.776 529.028 78.816V74.16ZM526.852 84.56C528.148 84.56 529.028 83.68 529.028 81.696C529.028 79.728 528.164 78.784 526.852 78.784C525.62 78.784 524.708 79.776 524.708 81.696C524.708 83.6 525.62 84.56 526.852 84.56ZM538.973 83.328L540.189 84.032C539.709 85.088 538.589 86.144 536.653 86.144C534.141 86.144 532.621 84.288 532.621 81.68C532.621 79.104 534.269 77.328 536.525 77.328C538.525 77.328 540.173 78.672 540.173 81.072L540.141 82.128H534.381C534.477 83.92 535.357 84.688 536.765 84.688C537.805 84.688 538.525 84.128 538.973 83.328ZM536.525 78.736C535.437 78.736 534.525 79.312 534.381 80.848H538.429C538.445 79.344 537.517 78.736 536.525 78.736ZM544.427 83.376C544.427 84.32 545.003 84.608 545.595 84.608C546.059 84.608 546.427 84.416 546.795 84.048L547.563 85.2C546.923 85.84 546.219 86.144 545.307 86.144C543.835 86.144 542.635 85.248 542.635 83.488V78.912H541.147V77.52H542.635V75.632L544.427 74.816V77.52H547.419V78.912H544.427V83.376ZM548.885 73.84H551.077V76H548.885V73.84ZM549.093 86V77.52H550.885V86H549.093ZM555.824 83.376C555.824 84.32 556.4 84.608 556.992 84.608C557.456 84.608 557.824 84.416 558.192 84.048L558.96 85.2C558.32 85.84 557.616 86.144 556.704 86.144C555.232 86.144 554.032 85.248 554.032 83.488V78.912H552.544V77.52H554.032V75.632L555.824 74.816V77.52H558.816V78.912H555.824V83.376ZM562.749 83.376C562.749 84.32 563.325 84.608 563.917 84.608C564.381 84.608 564.749 84.416 565.117 84.048L565.885 85.2C565.245 85.84 564.541 86.144 563.629 86.144C562.157 86.144 560.957 85.248 560.957 83.488V78.912H559.469V77.52H560.957V75.632L562.749 74.816V77.52H565.741V78.912H562.749V83.376ZM572.833 83.328L574.049 84.032C573.569 85.088 572.449 86.144 570.513 86.144C568.001 86.144 566.481 84.288 566.481 81.68C566.481 79.104 568.129 77.328 570.385 77.328C572.385 77.328 574.033 78.672 574.033 81.072L574.001 82.128H568.241C568.337 83.92 569.217 84.688 570.625 84.688C571.665 84.688 572.385 84.128 572.833 83.328ZM570.385 78.736C569.297 78.736 568.385 79.312 568.241 80.848H572.289C572.305 79.344 571.377 78.736 570.385 78.736ZM579.451 85.952C579.115 86.048 578.779 86.096 578.427 86.096C576.811 86.096 576.043 85.136 576.043 83.584V74.16H577.835V83.456C577.835 84.192 578.267 84.528 578.923 84.528C579.083 84.528 579.259 84.512 579.451 84.464V85.952Z" fill="#2A2859"/>
<rect width="32" height="22" transform="translate(589 69)" fill="#C7F6C9"/>
<path d="M601.26 74.64V76.152H598.166V85H596.528V76.152H593.434V74.64H601.26ZM607.432 85H605.99C605.878 84.622 605.808 84.174 605.78 83.6C605.43 84.37 604.646 85.126 603.358 85.126C602.014 85.126 601.062 84.216 601.062 82.928C601.062 81.318 602.49 80.52 604.086 80.52C604.59 80.52 605.066 80.562 605.584 80.702V80.002C605.584 79.204 605.08 78.686 604.17 78.686C603.316 78.686 602.714 79.148 602.434 80.016L601.104 79.61C601.636 78.042 602.91 77.412 604.24 77.412C606.214 77.412 607.11 78.574 607.11 79.988V82.858C607.11 83.74 607.25 84.524 607.432 85ZM605.584 81.934V81.766C605.136 81.612 604.702 81.556 604.24 81.556C603.316 81.556 602.602 81.976 602.602 82.788C602.602 83.474 603.092 83.908 603.834 83.908C604.59 83.908 605.584 83.46 605.584 81.934ZM616.255 78.798H614.701V78.966C614.953 79.316 615.079 79.722 615.079 80.142C615.079 81.486 614.043 82.83 611.887 82.83H611.523C610.767 82.83 610.277 83.082 610.277 83.53C610.277 83.838 610.515 84.062 610.991 84.062H614.085C615.359 84.062 616.087 84.72 616.087 85.728C616.087 87.254 614.533 88.136 612.055 88.136C609.885 88.136 608.429 87.59 608.051 86.148L609.577 85.854C609.927 86.75 610.739 86.988 612.097 86.988C613.553 86.988 614.589 86.596 614.589 85.91C614.589 85.588 614.407 85.35 613.903 85.35H610.529C609.367 85.35 608.765 84.72 608.765 83.936C608.765 83.18 609.437 82.578 610.361 82.396C609.339 81.948 608.835 80.996 608.835 80.1C608.835 78.77 609.913 77.412 611.971 77.412C612.881 77.412 613.595 77.734 614.015 78.196V77.58H616.255V78.798ZM611.971 81.696C613.049 81.696 613.553 80.94 613.553 80.128C613.553 79.316 613.049 78.574 611.971 78.574C610.907 78.574 610.389 79.316 610.389 80.128C610.389 80.94 610.907 81.696 611.971 81.696Z" fill="#2A2859"/>
</g>
<g clip-path="url(#clip3_6347_28030)">
<path d="M249 196H103V204H249V196Z" fill="#6FE9FF" mask="url(#path-13-inside-4_6347_28030)"/>
<path d="M120.104 173.456C120.104 171.36 122.04 170 124.344 170C126.232 170 127.736 170.656 128.648 172.224L127.096 173.184C126.584 172.224 125.496 171.664 124.328 171.664C122.936 171.664 121.992 172.288 121.992 173.312C121.992 174.16 122.52 174.72 123.672 174.912L125.496 175.184C127.56 175.504 129 176.624 129 178.528C129 180.528 127.304 182.16 124.472 182.16C122.456 182.16 120.792 181.456 119.784 179.744L121.352 178.736C122.104 180.096 123.384 180.48 124.488 180.48C126.072 180.48 127.048 179.68 127.048 178.592C127.048 177.6 126.424 177.152 125.272 176.96L123.256 176.64C121.352 176.352 120.104 175.248 120.104 173.456ZM131.945 172.112C131.241 172.112 130.681 171.568 130.681 170.848C130.681 170.128 131.241 169.584 131.945 169.584C132.649 169.584 133.193 170.128 133.193 170.848C133.193 171.568 132.649 172.112 131.945 172.112ZM131.049 182V173.52H132.841V182H131.049ZM141.028 170.16H142.82V182H141.028V180.464C140.372 181.648 139.348 182.128 138.372 182.128C136.324 182.128 134.852 180.368 134.852 177.792C134.852 175.12 136.34 173.344 138.58 173.344C139.54 173.344 140.5 173.776 141.028 174.816V170.16ZM138.852 180.56C140.148 180.56 141.028 179.68 141.028 177.696C141.028 175.728 140.164 174.784 138.852 174.784C137.62 174.784 136.708 175.776 136.708 177.696C136.708 179.6 137.62 180.56 138.852 180.56ZM150.973 179.328L152.189 180.032C151.709 181.088 150.589 182.144 148.653 182.144C146.141 182.144 144.621 180.288 144.621 177.68C144.621 175.104 146.269 173.328 148.525 173.328C150.525 173.328 152.173 174.672 152.173 177.072L152.141 178.128H146.381C146.477 179.92 147.357 180.688 148.765 180.688C149.805 180.688 150.525 180.128 150.973 179.328ZM148.525 174.736C147.437 174.736 146.525 175.312 146.381 176.848H150.429C150.445 175.344 149.517 174.736 148.525 174.736ZM156.427 179.376C156.427 180.32 157.003 180.608 157.595 180.608C158.059 180.608 158.427 180.416 158.795 180.048L159.563 181.2C158.923 181.84 158.219 182.144 157.307 182.144C155.835 182.144 154.635 181.248 154.635 179.488V174.912H153.147V173.52H154.635V171.632L156.427 170.816V173.52H159.419V174.912H156.427V179.376ZM160.885 169.84H163.077V172H160.885V169.84ZM161.093 182V173.52H162.885V182H161.093ZM167.824 179.376C167.824 180.32 168.4 180.608 168.992 180.608C169.456 180.608 169.824 180.416 170.192 180.048L170.96 181.2C170.32 181.84 169.616 182.144 168.704 182.144C167.232 182.144 166.032 181.248 166.032 179.488V174.912H164.544V173.52H166.032V171.632L167.824 170.816V173.52H170.816V174.912H167.824V179.376ZM174.749 179.376C174.749 180.32 175.325 180.608 175.917 180.608C176.381 180.608 176.749 180.416 177.117 180.048L177.885 181.2C177.245 181.84 176.541 182.144 175.629 182.144C174.157 182.144 172.957 181.248 172.957 179.488V174.912H171.469V173.52H172.957V171.632L174.749 170.816V173.52H177.741V174.912H174.749V179.376ZM184.833 179.328L186.049 180.032C185.569 181.088 184.449 182.144 182.513 182.144C180.001 182.144 178.481 180.288 178.481 177.68C178.481 175.104 180.129 173.328 182.385 173.328C184.385 173.328 186.033 174.672 186.033 177.072L186.001 178.128H180.241C180.337 179.92 181.217 180.688 182.625 180.688C183.665 180.688 184.385 180.128 184.833 179.328ZM182.385 174.736C181.297 174.736 180.385 175.312 180.241 176.848H184.289C184.305 175.344 183.377 174.736 182.385 174.736ZM191.451 181.952C191.115 182.048 190.779 182.096 190.427 182.096C188.811 182.096 188.043 181.136 188.043 179.584V170.16H189.835V179.456C189.835 180.192 190.267 180.528 190.923 180.528C191.083 180.528 191.259 180.512 191.451 180.464V181.952Z" fill="#2A2859"/>
<rect width="32" height="22" transform="translate(201 165)" fill="#FFB4AC"/>
<path d="M213.26 170.64V172.152H210.166V181H208.528V172.152H205.434V170.64H213.26ZM219.432 181H217.99C217.878 180.622 217.808 180.174 217.78 179.6C217.43 180.37 216.646 181.126 215.358 181.126C214.014 181.126 213.062 180.216 213.062 178.928C213.062 177.318 214.49 176.52 216.086 176.52C216.59 176.52 217.066 176.562 217.584 176.702V176.002C217.584 175.204 217.08 174.686 216.17 174.686C215.316 174.686 214.714 175.148 214.434 176.016L213.104 175.61C213.636 174.042 214.91 173.412 216.24 173.412C218.214 173.412 219.11 174.574 219.11 175.988V178.858C219.11 179.74 219.25 180.524 219.432 181ZM217.584 177.934V177.766C217.136 177.612 216.702 177.556 216.24 177.556C215.316 177.556 214.602 177.976 214.602 178.788C214.602 179.474 215.092 179.908 215.834 179.908C216.59 179.908 217.584 179.46 217.584 177.934ZM228.255 174.798H226.701V174.966C226.953 175.316 227.079 175.722 227.079 176.142C227.079 177.486 226.043 178.83 223.887 178.83H223.523C222.767 178.83 222.277 179.082 222.277 179.53C222.277 179.838 222.515 180.062 222.991 180.062H226.085C227.359 180.062 228.087 180.72 228.087 181.728C228.087 183.254 226.533 184.136 224.055 184.136C221.885 184.136 220.429 183.59 220.051 182.148L221.577 181.854C221.927 182.75 222.739 182.988 224.097 182.988C225.553 182.988 226.589 182.596 226.589 181.91C226.589 181.588 226.407 181.35 225.903 181.35H222.529C221.367 181.35 220.765 180.72 220.765 179.936C220.765 179.18 221.437 178.578 222.361 178.396C221.339 177.948 220.835 176.996 220.835 176.1C220.835 174.77 221.913 173.412 223.971 173.412C224.881 173.412 225.595 173.734 226.015 174.196V173.58H228.255V174.798ZM223.971 177.696C225.049 177.696 225.553 176.94 225.553 176.128C225.553 175.316 225.049 174.574 223.971 174.574C222.907 174.574 222.389 175.316 222.389 176.128C222.389 176.94 222.907 177.696 223.971 177.696Z" fill="#2A2859"/>
</g>
<g clip-path="url(#clip4_6347_28030)">
<path d="M443 196H297V204H443V196Z" fill="#6FE9FF" mask="url(#path-17-inside-5_6347_28030)"/>
<path d="M314.104 173.456C314.104 171.36 316.04 170 318.344 170C320.232 170 321.736 170.656 322.648 172.224L321.096 173.184C320.584 172.224 319.496 171.664 318.328 171.664C316.936 171.664 315.992 172.288 315.992 173.312C315.992 174.16 316.52 174.72 317.672 174.912L319.496 175.184C321.56 175.504 323 176.624 323 178.528C323 180.528 321.304 182.16 318.472 182.16C316.456 182.16 314.792 181.456 313.784 179.744L315.352 178.736C316.104 180.096 317.384 180.48 318.488 180.48C320.072 180.48 321.048 179.68 321.048 178.592C321.048 177.6 320.424 177.152 319.272 176.96L317.256 176.64C315.352 176.352 314.104 175.248 314.104 173.456ZM325.945 172.112C325.241 172.112 324.681 171.568 324.681 170.848C324.681 170.128 325.241 169.584 325.945 169.584C326.649 169.584 327.193 170.128 327.193 170.848C327.193 171.568 326.649 172.112 325.945 172.112ZM325.049 182V173.52H326.841V182H325.049ZM335.028 170.16H336.82V182H335.028V180.464C334.372 181.648 333.348 182.128 332.372 182.128C330.324 182.128 328.852 180.368 328.852 177.792C328.852 175.12 330.34 173.344 332.58 173.344C333.54 173.344 334.5 173.776 335.028 174.816V170.16ZM332.852 180.56C334.148 180.56 335.028 179.68 335.028 177.696C335.028 175.728 334.164 174.784 332.852 174.784C331.62 174.784 330.708 175.776 330.708 177.696C330.708 179.6 331.62 180.56 332.852 180.56ZM344.973 179.328L346.189 180.032C345.709 181.088 344.589 182.144 342.653 182.144C340.141 182.144 338.621 180.288 338.621 177.68C338.621 175.104 340.269 173.328 342.525 173.328C344.525 173.328 346.173 174.672 346.173 177.072L346.141 178.128H340.381C340.477 179.92 341.357 180.688 342.765 180.688C343.805 180.688 344.525 180.128 344.973 179.328ZM342.525 174.736C341.437 174.736 340.525 175.312 340.381 176.848H344.429C344.445 175.344 343.517 174.736 342.525 174.736ZM350.427 179.376C350.427 180.32 351.003 180.608 351.595 180.608C352.059 180.608 352.427 180.416 352.795 180.048L353.563 181.2C352.923 181.84 352.219 182.144 351.307 182.144C349.835 182.144 348.635 181.248 348.635 179.488V174.912H347.147V173.52H348.635V171.632L350.427 170.816V173.52H353.419V174.912H350.427V179.376ZM354.885 169.84H357.077V172H354.885V169.84ZM355.093 182V173.52H356.885V182H355.093ZM361.824 179.376C361.824 180.32 362.4 180.608 362.992 180.608C363.456 180.608 363.824 180.416 364.192 180.048L364.96 181.2C364.32 181.84 363.616 182.144 362.704 182.144C361.232 182.144 360.032 181.248 360.032 179.488V174.912H358.544V173.52H360.032V171.632L361.824 170.816V173.52H364.816V174.912H361.824V179.376ZM368.749 179.376C368.749 180.32 369.325 180.608 369.917 180.608C370.381 180.608 370.749 180.416 371.117 180.048L371.885 181.2C371.245 181.84 370.541 182.144 369.629 182.144C368.157 182.144 366.957 181.248 366.957 179.488V174.912H365.469V173.52H366.957V171.632L368.749 170.816V173.52H371.741V174.912H368.749V179.376ZM378.833 179.328L380.049 180.032C379.569 181.088 378.449 182.144 376.513 182.144C374.001 182.144 372.481 180.288 372.481 177.68C372.481 175.104 374.129 173.328 376.385 173.328C378.385 173.328 380.033 174.672 380.033 177.072L380.001 178.128H374.241C374.337 179.92 375.217 180.688 376.625 180.688C377.665 180.688 378.385 180.128 378.833 179.328ZM376.385 174.736C375.297 174.736 374.385 175.312 374.241 176.848H378.289C378.305 175.344 377.377 174.736 376.385 174.736ZM385.451 181.952C385.115 182.048 384.779 182.096 384.427 182.096C382.811 182.096 382.043 181.136 382.043 179.584V170.16H383.835V179.456C383.835 180.192 384.267 180.528 384.923 180.528C385.083 180.528 385.259 180.512 385.451 180.464V181.952Z" fill="#2A2859"/>
<rect width="32" height="22" transform="translate(395 165)" fill="#F8F0DD"/>
<path d="M407.26 170.64V172.152H404.166V181H402.528V172.152H399.434V170.64H407.26ZM413.432 181H411.99C411.878 180.622 411.808 180.174 411.78 179.6C411.43 180.37 410.646 181.126 409.358 181.126C408.014 181.126 407.062 180.216 407.062 178.928C407.062 177.318 408.49 176.52 410.086 176.52C410.59 176.52 411.066 176.562 411.584 176.702V176.002C411.584 175.204 411.08 174.686 410.17 174.686C409.316 174.686 408.714 175.148 408.434 176.016L407.104 175.61C407.636 174.042 408.91 173.412 410.24 173.412C412.214 173.412 413.11 174.574 413.11 175.988V178.858C413.11 179.74 413.25 180.524 413.432 181ZM411.584 177.934V177.766C411.136 177.612 410.702 177.556 410.24 177.556C409.316 177.556 408.602 177.976 408.602 178.788C408.602 179.474 409.092 179.908 409.834 179.908C410.59 179.908 411.584 179.46 411.584 177.934ZM422.255 174.798H420.701V174.966C420.953 175.316 421.079 175.722 421.079 176.142C421.079 177.486 420.043 178.83 417.887 178.83H417.523C416.767 178.83 416.277 179.082 416.277 179.53C416.277 179.838 416.515 180.062 416.991 180.062H420.085C421.359 180.062 422.087 180.72 422.087 181.728C422.087 183.254 420.533 184.136 418.055 184.136C415.885 184.136 414.429 183.59 414.051 182.148L415.577 181.854C415.927 182.75 416.739 182.988 418.097 182.988C419.553 182.988 420.589 182.596 420.589 181.91C420.589 181.588 420.407 181.35 419.903 181.35H416.529C415.367 181.35 414.765 180.72 414.765 179.936C414.765 179.18 415.437 178.578 416.361 178.396C415.339 177.948 414.835 176.996 414.835 176.1C414.835 174.77 415.913 173.412 417.971 173.412C418.881 173.412 419.595 173.734 420.015 174.196V173.58H422.255V174.798ZM417.971 177.696C419.049 177.696 419.553 176.94 419.553 176.128C419.553 175.316 419.049 174.574 417.971 174.574C416.907 174.574 416.389 175.316 416.389 176.128C416.389 176.94 416.907 177.696 417.971 177.696Z" fill="#2A2859"/>
</g>
<g clip-path="url(#clip5_6347_28030)">
<path d="M637 196H491V204H637V196Z" fill="#6FE9FF" mask="url(#path-21-inside-6_6347_28030)"/>
<path d="M508.104 173.456C508.104 171.36 510.04 170 512.344 170C514.232 170 515.736 170.656 516.648 172.224L515.096 173.184C514.584 172.224 513.496 171.664 512.328 171.664C510.936 171.664 509.992 172.288 509.992 173.312C509.992 174.16 510.52 174.72 511.672 174.912L513.496 175.184C515.56 175.504 517 176.624 517 178.528C517 180.528 515.304 182.16 512.472 182.16C510.456 182.16 508.792 181.456 507.784 179.744L509.352 178.736C510.104 180.096 511.384 180.48 512.488 180.48C514.072 180.48 515.048 179.68 515.048 178.592C515.048 177.6 514.424 177.152 513.272 176.96L511.256 176.64C509.352 176.352 508.104 175.248 508.104 173.456ZM519.945 172.112C519.241 172.112 518.681 171.568 518.681 170.848C518.681 170.128 519.241 169.584 519.945 169.584C520.649 169.584 521.193 170.128 521.193 170.848C521.193 171.568 520.649 172.112 519.945 172.112ZM519.049 182V173.52H520.841V182H519.049ZM529.028 170.16H530.82V182H529.028V180.464C528.372 181.648 527.348 182.128 526.372 182.128C524.324 182.128 522.852 180.368 522.852 177.792C522.852 175.12 524.34 173.344 526.58 173.344C527.54 173.344 528.5 173.776 529.028 174.816V170.16ZM526.852 180.56C528.148 180.56 529.028 179.68 529.028 177.696C529.028 175.728 528.164 174.784 526.852 174.784C525.62 174.784 524.708 175.776 524.708 177.696C524.708 179.6 525.62 180.56 526.852 180.56ZM538.973 179.328L540.189 180.032C539.709 181.088 538.589 182.144 536.653 182.144C534.141 182.144 532.621 180.288 532.621 177.68C532.621 175.104 534.269 173.328 536.525 173.328C538.525 173.328 540.173 174.672 540.173 177.072L540.141 178.128H534.381C534.477 179.92 535.357 180.688 536.765 180.688C537.805 180.688 538.525 180.128 538.973 179.328ZM536.525 174.736C535.437 174.736 534.525 175.312 534.381 176.848H538.429C538.445 175.344 537.517 174.736 536.525 174.736ZM544.427 179.376C544.427 180.32 545.003 180.608 545.595 180.608C546.059 180.608 546.427 180.416 546.795 180.048L547.563 181.2C546.923 181.84 546.219 182.144 545.307 182.144C543.835 182.144 542.635 181.248 542.635 179.488V174.912H541.147V173.52H542.635V171.632L544.427 170.816V173.52H547.419V174.912H544.427V179.376ZM548.885 169.84H551.077V172H548.885V169.84ZM549.093 182V173.52H550.885V182H549.093ZM555.824 179.376C555.824 180.32 556.4 180.608 556.992 180.608C557.456 180.608 557.824 180.416 558.192 180.048L558.96 181.2C558.32 181.84 557.616 182.144 556.704 182.144C555.232 182.144 554.032 181.248 554.032 179.488V174.912H552.544V173.52H554.032V171.632L555.824 170.816V173.52H558.816V174.912H555.824V179.376ZM562.749 179.376C562.749 180.32 563.325 180.608 563.917 180.608C564.381 180.608 564.749 180.416 565.117 180.048L565.885 181.2C565.245 181.84 564.541 182.144 563.629 182.144C562.157 182.144 560.957 181.248 560.957 179.488V174.912H559.469V173.52H560.957V171.632L562.749 170.816V173.52H565.741V174.912H562.749V179.376ZM572.833 179.328L574.049 180.032C573.569 181.088 572.449 182.144 570.513 182.144C568.001 182.144 566.481 180.288 566.481 177.68C566.481 175.104 568.129 173.328 570.385 173.328C572.385 173.328 574.033 174.672 574.033 177.072L574.001 178.128H568.241C568.337 179.92 569.217 180.688 570.625 180.688C571.665 180.688 572.385 180.128 572.833 179.328ZM570.385 174.736C569.297 174.736 568.385 175.312 568.241 176.848H572.289C572.305 175.344 571.377 174.736 570.385 174.736ZM579.451 181.952C579.115 182.048 578.779 182.096 578.427 182.096C576.811 182.096 576.043 181.136 576.043 179.584V170.16H577.835V179.456C577.835 180.192 578.267 180.528 578.923 180.528C579.083 180.528 579.259 180.512 579.451 180.464V181.952Z" fill="#2A2859"/>
<rect width="32" height="22" transform="translate(589 165)" fill="#F9F9F9"/>
<path d="M601.26 170.64V172.152H598.166V181H596.528V172.152H593.434V170.64H601.26ZM607.432 181H605.99C605.878 180.622 605.808 180.174 605.78 179.6C605.43 180.37 604.646 181.126 603.358 181.126C602.014 181.126 601.062 180.216 601.062 178.928C601.062 177.318 602.49 176.52 604.086 176.52C604.59 176.52 605.066 176.562 605.584 176.702V176.002C605.584 175.204 605.08 174.686 604.17 174.686C603.316 174.686 602.714 175.148 602.434 176.016L601.104 175.61C601.636 174.042 602.91 173.412 604.24 173.412C606.214 173.412 607.11 174.574 607.11 175.988V178.858C607.11 179.74 607.25 180.524 607.432 181ZM605.584 177.934V177.766C605.136 177.612 604.702 177.556 604.24 177.556C603.316 177.556 602.602 177.976 602.602 178.788C602.602 179.474 603.092 179.908 603.834 179.908C604.59 179.908 605.584 179.46 605.584 177.934ZM616.255 174.798H614.701V174.966C614.953 175.316 615.079 175.722 615.079 176.142C615.079 177.486 614.043 178.83 611.887 178.83H611.523C610.767 178.83 610.277 179.082 610.277 179.53C610.277 179.838 610.515 180.062 610.991 180.062H614.085C615.359 180.062 616.087 180.72 616.087 181.728C616.087 183.254 614.533 184.136 612.055 184.136C609.885 184.136 608.429 183.59 608.051 182.148L609.577 181.854C609.927 182.75 610.739 182.988 612.097 182.988C613.553 182.988 614.589 182.596 614.589 181.91C614.589 181.588 614.407 181.35 613.903 181.35H610.529C609.367 181.35 608.765 180.72 608.765 179.936C608.765 179.18 609.437 178.578 610.361 178.396C609.339 177.948 608.835 176.996 608.835 176.1C608.835 174.77 609.913 173.412 611.971 173.412C612.881 173.412 613.595 173.734 614.015 174.196V173.58H616.255V174.798ZM611.971 177.696C613.049 177.696 613.553 176.94 613.553 176.128C613.553 175.316 613.049 174.574 611.971 174.574C610.907 174.574 610.389 175.316 610.389 176.128C610.389 176.94 610.907 177.696 611.971 177.696Z" fill="#2A2859"/>
</g>
<defs>
<clipPath id="clip0_6347_28030">
<rect width="146" height="48" fill="white" transform="translate(103 56)"/>
</clipPath>
<clipPath id="clip1_6347_28030">
<rect width="146" height="48" fill="white" transform="translate(297 56)"/>
</clipPath>
<clipPath id="clip2_6347_28030">
<rect width="146" height="48" fill="white" transform="translate(491 56)"/>
</clipPath>
<clipPath id="clip3_6347_28030">
<rect width="146" height="48" fill="white" transform="translate(103 152)"/>
</clipPath>
<clipPath id="clip4_6347_28030">
<rect width="146" height="48" fill="white" transform="translate(297 152)"/>
</clipPath>
<clipPath id="clip5_6347_28030">
<rect width="146" height="48" fill="white" transform="translate(491 152)"/>
</clipPath>
</defs>
</svg>
