<svg width="1116" height="416" viewBox="0 0 1116 416" fill="none" xmlns="http://www.w3.org/2000/svg">
<g clip-path="url(#clip0_6312_5429)">
<rect width="1116" height="416" fill="white"/>
<mask id="path-1-inside-1_6312_5429" fill="white">
<path d="M0 55H552V416H0V55Z"/>
</mask>
<path d="M0 55H552V416H0V55Z" fill="white"/>
<path d="M552 416V417H553V416H552ZM0 416H-1V417H0V416ZM551 55V416H553V55H551ZM552 415H0V417H552V415ZM1 416V55H-1V416H1Z" fill="#E6E6E6" mask="url(#path-1-inside-1_6312_5429)"/>
<mask id="path-3-inside-2_6312_5429" fill="white">
<path d="M563 55H1116V416H563V55Z"/>
</mask>
<path d="M563 55H1116V416H563V55Z" fill="white"/>
<path d="M1116 416V417H1117V416H1116ZM563 416H562V417H563V416ZM1115 55V416H1117V55H1115ZM1116 415H563V417H1116V415ZM564 416V55H562V416H564Z" fill="#E6E6E6" mask="url(#path-3-inside-2_6312_5429)"/>
<g clip-path="url(#clip1_6312_5429)">
<path d="M792 231H620V239H792V231Z" fill="#6FE9FF" mask="url(#path-5-inside-3_6312_5429)"/>
<path d="M642.213 218.261H636.09V213.797H639.91L649.968 203.739H655.804L655.809 208.178H652.296L642.213 218.261ZM637.34 217.011H641.695L651.778 206.928H654.558L654.555 204.989H650.485L640.427 215.047H637.34V217.011Z" fill="#2A2859"/>
<path d="M674.544 205.16H676.384V217H674.496V208.312L671.264 213.448H670.512L667.264 208.296V217H665.392V205.16H667.216L670.88 210.984L674.544 205.16ZM679.773 207.112C679.069 207.112 678.509 206.568 678.509 205.848C678.509 205.128 679.069 204.584 679.773 204.584C680.477 204.584 681.021 205.128 681.021 205.848C681.021 206.568 680.477 207.112 679.773 207.112ZM678.877 217V208.52H680.669V217H678.877ZM687.481 208.328C689.209 208.328 690.233 209.448 690.233 211.288V217H688.441V211.576C688.441 210.408 687.881 209.88 686.905 209.88C685.641 209.88 685.001 210.76 685.001 212.408V217H683.209V208.52H685.001V209.736C685.577 208.84 686.425 208.328 687.481 208.328ZM698.457 214.328L699.674 215.032C699.194 216.088 698.074 217.144 696.137 217.144C693.625 217.144 692.105 215.288 692.105 212.68C692.105 210.104 693.753 208.328 696.01 208.328C698.01 208.328 699.658 209.672 699.658 212.072L699.625 213.128H693.865C693.961 214.92 694.841 215.688 696.249 215.688C697.289 215.688 698.01 215.128 698.457 214.328ZM696.01 209.736C694.921 209.736 694.009 210.312 693.865 211.848H697.913C697.93 210.344 697.001 209.736 696.01 209.736ZM705.114 210.856C705.114 209.416 706.442 208.328 708.442 208.328C710.09 208.328 711.194 208.92 711.786 210.056L710.538 210.824C710.154 210.168 709.386 209.768 708.426 209.768C707.466 209.768 706.81 210.136 706.81 210.744C706.81 211.24 707.146 211.544 707.898 211.688L709.322 211.976C711.114 212.328 712.01 213.176 712.01 214.472C712.01 216.072 710.618 217.144 708.522 217.144C706.746 217.144 705.482 216.472 704.826 215.24L706.074 214.456C706.538 215.24 707.354 215.688 708.474 215.688C709.562 215.688 710.298 215.256 710.298 214.552C710.298 213.976 709.946 213.656 709.162 213.496L707.594 213.192C705.994 212.888 705.114 212.072 705.114 210.856ZM719.402 209.032C720.474 209.768 721.162 211.064 721.162 212.712C721.162 215.432 719.354 217.16 717.146 217.16C716.586 217.16 716.058 217.048 715.562 216.84L715.066 217.864H714.154L714.858 216.44C713.818 215.688 713.13 214.392 713.13 212.712C713.13 210.056 714.922 208.328 717.146 208.328C717.706 208.328 718.218 208.44 718.698 208.632L719.194 207.64H720.09L719.402 209.032ZM714.97 212.712C714.97 213.704 715.21 214.44 715.61 214.92L718.01 210.024C717.754 209.912 717.45 209.848 717.146 209.848C715.962 209.848 714.97 210.696 714.97 212.712ZM717.146 215.64C718.346 215.64 719.322 214.712 719.322 212.712C719.322 211.704 719.066 210.984 718.682 210.52L716.25 215.448C716.522 215.576 716.826 215.64 717.146 215.64ZM728.365 217L725.789 213.112L724.813 214.072V217H723.021V205.16H724.813V212.04L728.237 208.52H730.445L726.973 211.944L730.509 217H728.365ZM736.171 208.328C737.899 208.328 738.923 209.448 738.923 211.288V217H737.131V211.576C737.131 210.408 736.571 209.88 735.595 209.88C734.331 209.88 733.691 210.76 733.691 212.408V217H731.899V208.52H733.691V209.736C734.267 208.84 735.115 208.328 736.171 208.328ZM748.156 217H746.508C746.38 216.568 746.3 216.056 746.268 215.4C745.868 216.28 744.972 217.144 743.5 217.144C741.964 217.144 740.876 216.104 740.876 214.632C740.876 212.792 742.508 211.88 744.332 211.88C744.908 211.88 745.452 211.928 746.044 212.088V211.288C746.044 210.376 745.468 209.784 744.428 209.784C743.452 209.784 742.764 210.312 742.444 211.304L740.924 210.84C741.532 209.048 742.988 208.328 744.508 208.328C746.764 208.328 747.788 209.656 747.788 211.272V214.552C747.788 215.56 747.948 216.456 748.156 217ZM746.044 213.496V213.304C745.532 213.128 745.036 213.064 744.508 213.064C743.452 213.064 742.636 213.544 742.636 214.472C742.636 215.256 743.196 215.752 744.044 215.752C744.908 215.752 746.044 215.24 746.044 213.496ZM755.678 205.16H757.47V217H755.678V215.464C755.022 216.648 753.998 217.128 753.022 217.128C750.974 217.128 749.502 215.368 749.502 212.792C749.502 210.12 750.99 208.344 753.23 208.344C754.19 208.344 755.15 208.776 755.678 209.816V205.16ZM753.502 215.56C754.798 215.56 755.678 214.68 755.678 212.696C755.678 210.728 754.814 209.784 753.502 209.784C752.27 209.784 751.358 210.776 751.358 212.696C751.358 214.6 752.27 215.56 753.502 215.56ZM765.623 214.328L766.839 215.032C766.359 216.088 765.239 217.144 763.303 217.144C760.791 217.144 759.271 215.288 759.271 212.68C759.271 210.104 760.919 208.328 763.175 208.328C765.175 208.328 766.823 209.672 766.823 212.072L766.791 213.128H761.031C761.127 214.92 762.007 215.688 763.415 215.688C764.455 215.688 765.175 215.128 765.623 214.328ZM763.175 209.736C762.087 209.736 761.175 210.312 761.031 211.848H765.079C765.095 210.344 764.167 209.736 763.175 209.736ZM772.721 208.328C773.953 208.328 774.753 209.144 774.753 210.6V211.72L773.313 211.976V211.112C773.313 210.344 773.041 209.816 772.209 209.816C771.297 209.816 770.625 210.424 770.625 212.04V217H768.833V208.52H770.625V209.656C771.105 208.712 771.985 208.328 772.721 208.328Z" fill="#2A2859"/>
<path d="M814.716 202.562C814.716 203.425 814.017 204.125 813.154 204.125C812.291 204.125 811.591 203.425 811.591 202.562C811.591 201.7 812.291 201 813.154 201C814.017 201 814.716 201.7 814.716 202.562Z" fill="#666666"/>
<path fill-rule="evenodd" clip-rule="evenodd" d="M810.031 213.292L810.704 205.219L817.531 205.219V202.875H816.906V203.5H815.656V201H816.906V201.625H819.406V201H820.656V203.5H819.406V202.875H818.781V205.741L819.464 206.424L821.067 205.219H823.153H825.239L825.969 214.125H825.344L825.365 221H824.115L824.094 214.125H822.844L822.865 221H821.615L821.594 214.125H820.969L821.027 209.003L818.531 210.875L817.781 209.875L821.045 207.427L821.052 206.794L819.348 208.076L817.741 206.469H815.656V212.719L815.031 212.719L815.053 221H813.803L813.781 212.719H812.531L812.553 221H811.303L811.281 212.719H811.28V213.357L811.277 213.396L810.031 213.292ZM822.218 212.875L822.219 208.11L824.115 206.687L824.718 212.875H822.218ZM811.437 211.469L811.854 206.469H814.406V211.469H811.437Z" fill="#666666"/>
<path d="M824.719 202.562C824.719 203.425 824.019 204.125 823.156 204.125C822.293 204.125 821.594 203.425 821.594 202.562C821.594 201.7 822.293 201 823.156 201C824.019 201 824.719 201.7 824.719 202.562Z" fill="#666666"/>
<path d="M846.608 205.16H848V217H846.576V207.592L842.992 213.208H842.416L838.832 207.608V217H837.408V205.16H838.784L842.704 211.288L846.608 205.16ZM851.238 207.032C850.63 207.032 850.15 206.568 850.15 205.944C850.15 205.336 850.63 204.872 851.238 204.872C851.83 204.872 852.31 205.336 852.31 205.944C852.31 206.568 851.83 207.032 851.238 207.032ZM850.55 217V208.52H851.926V217H850.55ZM858.315 208.36C860.027 208.36 861.035 209.432 861.035 211.32V217H859.659V211.528C859.659 210.136 859.019 209.592 857.915 209.592C856.523 209.592 855.851 210.632 855.851 212.296V217H854.475V208.52H855.851V209.784C856.395 208.872 857.275 208.36 858.315 208.36ZM869.271 214.488L870.247 215.032C869.799 216.088 868.727 217.144 866.823 217.144C864.375 217.144 862.919 215.32 862.919 212.664C862.919 210.136 864.471 208.36 866.695 208.36C868.583 208.36 870.199 209.688 870.199 212.04L870.167 213.016H864.295C864.391 215.096 865.399 215.976 866.935 215.976C868.103 215.976 868.855 215.304 869.271 214.488ZM866.695 209.512C865.495 209.512 864.455 210.136 864.295 211.944H868.855C868.871 210.232 867.831 209.512 866.695 209.512ZM880.269 208.376C882.381 208.376 883.853 210.168 883.853 212.68C883.853 215.304 882.365 217.128 880.109 217.128C879.021 217.128 878.045 216.616 877.533 215.528V217H876.157V205.16H877.533V210.072C878.125 208.936 879.229 208.376 880.269 208.376ZM879.997 215.96C881.437 215.96 882.429 214.84 882.429 212.744C882.429 210.696 881.437 209.576 880.013 209.576C878.477 209.576 877.533 210.696 877.533 212.728C877.533 214.84 878.461 215.96 879.997 215.96ZM892.328 217H891.064C890.936 216.552 890.84 216.024 890.84 215.368C890.408 216.312 889.4 217.144 887.992 217.144C886.472 217.144 885.352 216.136 885.352 214.664C885.352 212.856 886.936 211.944 888.728 211.944C889.368 211.944 889.992 212.008 890.632 212.216V211.256C890.632 210.232 890.008 209.544 888.792 209.544C887.784 209.544 886.968 210.04 886.568 211.208L885.384 210.84C886.008 209.048 887.368 208.36 888.872 208.36C891.032 208.36 891.976 209.656 891.976 211.176V214.584C891.976 215.56 892.136 216.44 892.328 217ZM890.632 213.496V213.288C890.04 213.048 889.432 212.984 888.84 212.984C887.64 212.984 886.712 213.528 886.712 214.568C886.712 215.496 887.368 216.024 888.328 216.024C889.336 216.024 890.632 215.416 890.632 213.496ZM897.883 208.36C899.035 208.36 899.835 209.128 899.835 210.584V211.528L898.651 211.752V210.904C898.651 210.088 898.379 209.544 897.531 209.544C896.571 209.544 895.867 210.216 895.867 211.896V217H894.491V208.52H895.867V209.608C896.331 208.744 897.131 208.36 897.883 208.36ZM905.584 208.36C907.296 208.36 908.304 209.432 908.304 211.32V217H906.928V211.528C906.928 210.136 906.288 209.592 905.184 209.592C903.792 209.592 903.12 210.632 903.12 212.296V217H901.744V208.52H903.12V209.784C903.664 208.872 904.544 208.36 905.584 208.36ZM916.539 214.488L917.515 215.032C917.067 216.088 915.995 217.144 914.091 217.144C911.643 217.144 910.187 215.32 910.187 212.664C910.187 210.136 911.739 208.36 913.963 208.36C915.851 208.36 917.467 209.688 917.467 212.04L917.435 213.016H911.563C911.659 215.096 912.667 215.976 914.203 215.976C915.371 215.976 916.123 215.304 916.539 214.488ZM913.963 209.512C912.763 209.512 911.723 210.136 911.563 211.944H916.123C916.139 210.232 915.099 209.512 913.963 209.512ZM923.388 208.36C925.1 208.36 926.108 209.432 926.108 211.32V217H924.732V211.528C924.732 210.136 924.076 209.592 922.988 209.592C921.58 209.592 920.908 210.632 920.908 212.296V217H919.532V205.16H920.908V209.8C921.452 208.872 922.348 208.36 923.388 208.36ZM935.047 217H933.783C933.655 216.552 933.559 216.024 933.559 215.368C933.127 216.312 932.119 217.144 930.711 217.144C929.191 217.144 928.071 216.136 928.071 214.664C928.071 212.856 929.655 211.944 931.447 211.944C932.087 211.944 932.711 212.008 933.351 212.216V211.256C933.351 210.232 932.727 209.544 931.511 209.544C930.503 209.544 929.687 210.04 929.287 211.208L928.103 210.84C928.727 209.048 930.087 208.36 931.591 208.36C933.751 208.36 934.695 209.656 934.695 211.176V214.584C934.695 215.56 934.855 216.44 935.047 217ZM933.351 213.496V213.288C932.759 213.048 932.151 212.984 931.559 212.984C930.359 212.984 929.431 213.528 929.431 214.568C929.431 215.496 930.087 216.024 931.047 216.024C932.055 216.024 933.351 215.416 933.351 213.496ZM944.877 209.624H943.085V209.88C943.437 210.344 943.629 210.904 943.629 211.48C943.629 213.016 942.493 214.584 940.077 214.584H939.677C938.765 214.584 938.125 214.92 938.125 215.464C938.125 215.864 938.445 216.152 939.069 216.152H942.557C943.965 216.152 944.717 216.856 944.717 217.944C944.717 219.656 942.845 220.584 940.285 220.584C937.997 220.584 936.445 219.928 935.965 218.376L937.197 217.992C937.709 219.24 938.829 219.512 940.301 219.512C942.029 219.512 943.373 219.016 943.373 218.088C943.373 217.656 943.149 217.336 942.445 217.336H938.717C937.469 217.336 936.781 216.712 936.781 215.816C936.781 215.016 937.469 214.344 938.509 214.104C937.373 213.624 936.765 212.488 936.765 211.464C936.765 209.944 937.933 208.36 940.221 208.36C941.165 208.36 941.901 208.696 942.397 209.16V208.52H944.877V209.624ZM940.221 213.528C941.613 213.528 942.285 212.552 942.285 211.464C942.285 210.392 941.613 209.464 940.221 209.464C938.813 209.464 938.125 210.392 938.125 211.464C938.125 212.552 938.813 213.528 940.221 213.528ZM951.521 214.488L952.497 215.032C952.049 216.088 950.977 217.144 949.073 217.144C946.625 217.144 945.169 215.32 945.169 212.664C945.169 210.136 946.721 208.36 948.945 208.36C950.833 208.36 952.449 209.688 952.449 212.04L952.417 213.016H946.545C946.641 215.096 947.649 215.976 949.185 215.976C950.353 215.976 951.105 215.304 951.521 214.488ZM948.945 209.512C947.745 209.512 946.705 210.136 946.545 211.944H951.105C951.121 210.232 950.081 209.512 948.945 209.512ZM957.889 208.36C959.041 208.36 959.841 209.128 959.841 210.584V211.528L958.657 211.752V210.904C958.657 210.088 958.385 209.544 957.537 209.544C956.577 209.544 955.873 210.216 955.873 211.896V217H954.497V208.52H955.873V209.608C956.337 208.744 957.137 208.36 957.889 208.36Z" fill="#666666"/>
<rect width="439" height="1" transform="matrix(1 0 0 -1 620 236)" fill="#CCCCCC"/>
</g>
<rect x="0.5" y="0.5" width="550.12" height="53.97" stroke="#E6E6E6"/>
<rect x="563.575" y="0.5" width="551.316" height="53.97" stroke="#E6E6E6"/>
<path d="M0 43.9761H551.12V54.9701H0V43.9761Z" fill="#C7F6C9"/>
<path opacity="0.6" d="M563 43.9761H1115.32V54.9701H563V43.9761Z" fill="#FF8274"/>
<path d="M23.1212 28.144C19.8732 28.144 17.5212 25.776 17.5212 22.016C17.5212 18.368 20.0012 16.016 22.9932 16.016C25.0572 16.016 26.5612 16.96 27.3132 18.64L26.0492 19.296C25.4732 18.048 24.3212 17.376 22.9772 17.376C20.8332 17.376 19.0092 18.896 19.0092 22.016C19.0092 25.136 20.7372 26.848 23.2012 26.848C24.4012 26.848 25.2652 26.608 26.0652 26.144V22.896H21.8892V21.6H27.3452V26.8C26.2892 27.68 24.7052 28.144 23.1212 28.144ZM30.4282 18.032C29.8202 18.032 29.3402 17.568 29.3402 16.944C29.3402 16.336 29.8202 15.872 30.4282 15.872C31.0202 15.872 31.5002 16.336 31.5002 16.944C31.5002 17.568 31.0202 18.032 30.4282 18.032ZM29.1002 31.488C28.7802 31.488 28.4442 31.44 28.1402 31.344L28.2522 30.208C28.4762 30.288 28.6682 30.304 28.8282 30.304C29.5322 30.304 29.7402 29.84 29.7402 29.12V19.52H31.1162V29.104C31.1162 30.64 30.4602 31.488 29.1002 31.488ZM39.2179 20.096C40.2259 20.832 40.8659 22.112 40.8659 23.728C40.8659 26.416 39.1219 28.144 36.9939 28.144C36.4179 28.144 35.8579 28.016 35.3619 27.776L34.8499 28.8H34.0179L34.7219 27.392C33.7459 26.64 33.1059 25.36 33.1059 23.728C33.1059 21.088 34.8339 19.36 36.9939 19.36C37.5699 19.36 38.1139 19.488 38.5939 19.712L39.1059 18.704H39.9219L39.2179 20.096ZM34.5299 23.728C34.5299 24.864 34.8339 25.696 35.3139 26.224L38.0499 20.8C37.7299 20.64 37.3619 20.56 36.9939 20.56C35.6499 20.56 34.5299 21.568 34.5299 23.728ZM36.9939 26.944C38.3379 26.944 39.4419 25.888 39.4419 23.728C39.4419 22.592 39.1379 21.776 38.6419 21.248L35.9059 26.688C36.2419 26.864 36.6099 26.944 36.9939 26.944ZM46.2013 19.36C47.3533 19.36 48.1533 20.128 48.1533 21.584V22.528L46.9693 22.752V21.904C46.9693 21.088 46.6973 20.544 45.8493 20.544C44.8893 20.544 44.1853 21.216 44.1853 22.896V28H42.8093V19.52H44.1853V20.608C44.6493 19.744 45.4493 19.36 46.2013 19.36ZM53.5242 21.776C53.5242 20.4 54.8202 19.36 56.6922 19.36C58.2602 19.36 59.4122 20.048 59.8602 21.168L58.8202 21.696C58.4682 20.944 57.7002 20.528 56.6602 20.528C55.5722 20.528 54.8522 20.96 54.8522 21.68C54.8522 22.304 55.2522 22.672 56.1642 22.864L57.3962 23.104C59.2362 23.472 60.1162 24.288 60.1162 25.568C60.1162 27.088 58.7722 28.128 56.7882 28.128C55.0602 28.128 53.8282 27.456 53.2202 26.208L54.2762 25.648C54.7082 26.512 55.5562 26.976 56.7562 26.976C57.9722 26.976 58.7882 26.448 58.7882 25.648C58.7882 24.944 58.3722 24.56 57.3962 24.352L55.9402 24.064C54.3722 23.744 53.5242 22.944 53.5242 21.776ZM64.9506 27.968C64.6626 28.032 64.4066 28.08 64.1186 28.08C62.6786 28.08 61.9906 27.2 61.9906 25.824V16.16H63.3666V25.76C63.3666 26.496 63.7666 26.848 64.4386 26.848C64.5986 26.848 64.7746 26.832 64.9506 26.784V27.968ZM66.4721 16.064H68.3601V17.92H66.4721V16.064ZM66.7281 28V19.52H68.1041V28H66.7281ZM75.9651 28L73.0531 23.92L72.0451 24.912V28H70.6691V16.16H72.0451V23.328L75.8371 19.52H77.5811L73.9811 23.024L77.6451 28H75.9651Z" fill="#2A2859"/>
<path d="M586.002 28V16.16H587.426V28H586.002ZM595.269 28L592.357 23.92L591.349 24.912V28H589.973V16.16H591.349V23.328L595.141 19.52H596.885L593.285 23.024L596.949 28H595.269ZM603.85 28L600.938 23.92L599.93 24.912V28H598.554V16.16H599.93V23.328L603.722 19.52H605.466L601.866 23.024L605.53 28H603.85ZM612.287 25.488L613.263 26.032C612.815 27.088 611.743 28.144 609.839 28.144C607.391 28.144 605.935 26.32 605.935 23.664C605.935 21.136 607.487 19.36 609.711 19.36C611.599 19.36 613.215 20.688 613.215 23.04L613.183 24.016H607.311C607.407 26.096 608.415 26.976 609.951 26.976C611.119 26.976 611.871 26.304 612.287 25.488ZM609.711 20.512C608.511 20.512 607.471 21.136 607.311 22.944H611.871C611.887 21.232 610.847 20.512 609.711 20.512ZM618.725 21.776C618.725 20.4 620.021 19.36 621.893 19.36C623.461 19.36 624.613 20.048 625.061 21.168L624.021 21.696C623.669 20.944 622.901 20.528 621.861 20.528C620.773 20.528 620.053 20.96 620.053 21.68C620.053 22.304 620.453 22.672 621.365 22.864L622.597 23.104C624.437 23.472 625.317 24.288 625.317 25.568C625.317 27.088 623.973 28.128 621.989 28.128C620.261 28.128 619.029 27.456 618.421 26.208L619.477 25.648C619.909 26.512 620.757 26.976 621.957 26.976C623.173 26.976 623.989 26.448 623.989 25.648C623.989 24.944 623.573 24.56 622.597 24.352L621.141 24.064C619.573 23.744 618.725 22.944 618.725 21.776ZM630.151 27.968C629.863 28.032 629.607 28.08 629.319 28.08C627.879 28.08 627.191 27.2 627.191 25.824V16.16H628.567V25.76C628.567 26.496 628.967 26.848 629.639 26.848C629.799 26.848 629.975 26.832 630.151 26.784V27.968ZM632.617 18.032C632.009 18.032 631.529 17.568 631.529 16.944C631.529 16.336 632.009 15.872 632.617 15.872C633.209 15.872 633.689 16.336 633.689 16.944C633.689 17.568 633.209 18.032 632.617 18.032ZM631.929 28V19.52H633.305V28H631.929ZM641.166 28L638.254 23.92L637.246 24.912V28H635.87V16.16H637.246V23.328L641.038 19.52H642.782L639.182 23.024L642.846 28H641.166Z" fill="#2A2859"/>
<g clip-path="url(#clip2_6312_5429)">
<path d="M229 231H57V239H229V231Z" fill="#6FE9FF" mask="url(#path-18-inside-4_6312_5429)"/>
<path d="M88.1875 207.172L89.0625 208.066L83 214.006L76.9375 208.066L77.8125 207.172L83 212.256L88.1875 207.172Z" fill="#2A2859"/>
<path fill-rule="evenodd" clip-rule="evenodd" d="M74.25 217.875V204.125H91.75V217.875H74.25ZM75.5 205.375V216.625H90.5V205.375H75.5Z" fill="#2A2859"/>
<path d="M111.544 205.16H113.384V217H111.496V208.312L108.264 213.448H107.512L104.264 208.296V217H102.392V205.16H104.216L107.88 210.984L111.544 205.16ZM116.773 207.112C116.069 207.112 115.509 206.568 115.509 205.848C115.509 205.128 116.069 204.584 116.773 204.584C117.477 204.584 118.021 205.128 118.021 205.848C118.021 206.568 117.477 207.112 116.773 207.112ZM115.877 217V208.52H117.669V217H115.877ZM124.481 208.328C126.209 208.328 127.233 209.448 127.233 211.288V217H125.441V211.576C125.441 210.408 124.881 209.88 123.905 209.88C122.641 209.88 122.001 210.76 122.001 212.408V217H120.209V208.52H122.001V209.736C122.577 208.84 123.425 208.328 124.481 208.328ZM135.457 214.328L136.674 215.032C136.194 216.088 135.074 217.144 133.137 217.144C130.625 217.144 129.105 215.288 129.105 212.68C129.105 210.104 130.753 208.328 133.01 208.328C135.01 208.328 136.658 209.672 136.658 212.072L136.625 213.128H130.865C130.961 214.92 131.841 215.688 133.249 215.688C134.289 215.688 135.01 215.128 135.457 214.328ZM133.01 209.736C131.921 209.736 131.009 210.312 130.865 211.848H134.913C134.93 210.344 134.001 209.736 133.01 209.736ZM142.114 210.856C142.114 209.416 143.442 208.328 145.442 208.328C147.09 208.328 148.194 208.92 148.786 210.056L147.538 210.824C147.154 210.168 146.386 209.768 145.426 209.768C144.466 209.768 143.81 210.136 143.81 210.744C143.81 211.24 144.146 211.544 144.898 211.688L146.322 211.976C148.114 212.328 149.01 213.176 149.01 214.472C149.01 216.072 147.618 217.144 145.522 217.144C143.746 217.144 142.482 216.472 141.826 215.24L143.074 214.456C143.538 215.24 144.354 215.688 145.474 215.688C146.562 215.688 147.298 215.256 147.298 214.552C147.298 213.976 146.946 213.656 146.162 213.496L144.594 213.192C142.994 212.888 142.114 212.072 142.114 210.856ZM156.402 209.032C157.474 209.768 158.162 211.064 158.162 212.712C158.162 215.432 156.354 217.16 154.146 217.16C153.586 217.16 153.058 217.048 152.562 216.84L152.066 217.864H151.154L151.858 216.44C150.818 215.688 150.13 214.392 150.13 212.712C150.13 210.056 151.922 208.328 154.146 208.328C154.706 208.328 155.218 208.44 155.698 208.632L156.194 207.64H157.09L156.402 209.032ZM151.97 212.712C151.97 213.704 152.21 214.44 152.61 214.92L155.01 210.024C154.754 209.912 154.45 209.848 154.146 209.848C152.962 209.848 151.97 210.696 151.97 212.712ZM154.146 215.64C155.346 215.64 156.322 214.712 156.322 212.712C156.322 211.704 156.066 210.984 155.682 210.52L153.25 215.448C153.522 215.576 153.826 215.64 154.146 215.64ZM165.365 217L162.789 213.112L161.813 214.072V217H160.021V205.16H161.813V212.04L165.237 208.52H167.445L163.973 211.944L167.509 217H165.365ZM173.171 208.328C174.899 208.328 175.923 209.448 175.923 211.288V217H174.131V211.576C174.131 210.408 173.571 209.88 172.595 209.88C171.331 209.88 170.691 210.76 170.691 212.408V217H168.899V208.52H170.691V209.736C171.267 208.84 172.115 208.328 173.171 208.328ZM185.156 217H183.508C183.38 216.568 183.3 216.056 183.268 215.4C182.868 216.28 181.972 217.144 180.5 217.144C178.964 217.144 177.876 216.104 177.876 214.632C177.876 212.792 179.508 211.88 181.332 211.88C181.908 211.88 182.452 211.928 183.044 212.088V211.288C183.044 210.376 182.468 209.784 181.428 209.784C180.452 209.784 179.764 210.312 179.444 211.304L177.924 210.84C178.532 209.048 179.988 208.328 181.508 208.328C183.764 208.328 184.788 209.656 184.788 211.272V214.552C184.788 215.56 184.948 216.456 185.156 217ZM183.044 213.496V213.304C182.532 213.128 182.036 213.064 181.508 213.064C180.452 213.064 179.636 213.544 179.636 214.472C179.636 215.256 180.196 215.752 181.044 215.752C181.908 215.752 183.044 215.24 183.044 213.496ZM192.678 205.16H194.47V217H192.678V215.464C192.022 216.648 190.998 217.128 190.022 217.128C187.974 217.128 186.502 215.368 186.502 212.792C186.502 210.12 187.99 208.344 190.23 208.344C191.19 208.344 192.15 208.776 192.678 209.816V205.16ZM190.502 215.56C191.798 215.56 192.678 214.68 192.678 212.696C192.678 210.728 191.814 209.784 190.502 209.784C189.27 209.784 188.358 210.776 188.358 212.696C188.358 214.6 189.27 215.56 190.502 215.56ZM202.623 214.328L203.839 215.032C203.359 216.088 202.239 217.144 200.303 217.144C197.791 217.144 196.271 215.288 196.271 212.68C196.271 210.104 197.919 208.328 200.175 208.328C202.175 208.328 203.823 209.672 203.823 212.072L203.791 213.128H198.031C198.127 214.92 199.007 215.688 200.415 215.688C201.455 215.688 202.175 215.128 202.623 214.328ZM200.175 209.736C199.087 209.736 198.175 210.312 198.031 211.848H202.079C202.095 210.344 201.167 209.736 200.175 209.736ZM209.721 208.328C210.953 208.328 211.753 209.144 211.753 210.6V211.72L210.313 211.976V211.112C210.313 210.344 210.041 209.816 209.209 209.816C208.297 209.816 207.625 210.424 207.625 212.04V217H205.833V208.52H207.625V209.656C208.105 208.712 208.985 208.328 209.721 208.328Z" fill="#2A2859"/>
<path fill-rule="evenodd" clip-rule="evenodd" d="M251.365 209.865C252.349 208.879 253.952 208.88 254.937 209.865L254.999 209.928L255.062 209.866C256.047 208.881 257.65 208.881 258.635 209.866C259.619 210.85 259.619 212.453 258.635 213.438L255 217.073L251.365 213.437C250.38 212.452 250.38 210.85 251.365 209.865ZM257.752 210.749C257.254 210.251 256.444 210.251 255.946 210.749L255 211.695L254.054 210.749C253.805 210.501 253.478 210.376 253.151 210.376C252.824 210.376 252.497 210.501 252.249 210.749C251.751 211.247 251.751 212.056 252.249 212.554L255 215.306L257.752 212.554C258.249 212.056 258.249 211.246 257.752 210.749Z" fill="#666666"/>
<path fill-rule="evenodd" clip-rule="evenodd" d="M251.654 204.413L255 201.625L262.5 207.875V221H247.5V202.25H251.113L251.654 204.413ZM250.137 203.5H248.75V206.833L250.588 205.302L250.137 203.5ZM248.75 208.461V219.75H261.25V208.461L255 203.253L248.75 208.461Z" fill="#666666"/>
<path d="M283.608 205.16H285V217H283.576V207.592L279.992 213.208H279.416L275.832 207.608V217H274.408V205.16H275.784L279.704 211.288L283.608 205.16ZM288.238 207.032C287.63 207.032 287.15 206.568 287.15 205.944C287.15 205.336 287.63 204.872 288.238 204.872C288.83 204.872 289.31 205.336 289.31 205.944C289.31 206.568 288.83 207.032 288.238 207.032ZM287.55 217V208.52H288.926V217H287.55ZM295.315 208.36C297.027 208.36 298.035 209.432 298.035 211.32V217H296.659V211.528C296.659 210.136 296.019 209.592 294.915 209.592C293.523 209.592 292.851 210.632 292.851 212.296V217H291.475V208.52H292.851V209.784C293.395 208.872 294.275 208.36 295.315 208.36ZM306.271 214.488L307.247 215.032C306.799 216.088 305.727 217.144 303.823 217.144C301.375 217.144 299.919 215.32 299.919 212.664C299.919 210.136 301.471 208.36 303.695 208.36C305.583 208.36 307.199 209.688 307.199 212.04L307.167 213.016H301.295C301.391 215.096 302.399 215.976 303.935 215.976C305.103 215.976 305.855 215.304 306.271 214.488ZM303.695 209.512C302.495 209.512 301.455 210.136 301.295 211.944H305.855C305.871 210.232 304.831 209.512 303.695 209.512ZM317.269 208.376C319.381 208.376 320.853 210.168 320.853 212.68C320.853 215.304 319.365 217.128 317.109 217.128C316.021 217.128 315.045 216.616 314.533 215.528V217H313.157V205.16H314.533V210.072C315.125 208.936 316.229 208.376 317.269 208.376ZM316.997 215.96C318.437 215.96 319.429 214.84 319.429 212.744C319.429 210.696 318.437 209.576 317.013 209.576C315.477 209.576 314.533 210.696 314.533 212.728C314.533 214.84 315.461 215.96 316.997 215.96ZM329.328 217H328.064C327.936 216.552 327.84 216.024 327.84 215.368C327.408 216.312 326.4 217.144 324.992 217.144C323.472 217.144 322.352 216.136 322.352 214.664C322.352 212.856 323.936 211.944 325.728 211.944C326.368 211.944 326.992 212.008 327.632 212.216V211.256C327.632 210.232 327.008 209.544 325.792 209.544C324.784 209.544 323.968 210.04 323.568 211.208L322.384 210.84C323.008 209.048 324.368 208.36 325.872 208.36C328.032 208.36 328.976 209.656 328.976 211.176V214.584C328.976 215.56 329.136 216.44 329.328 217ZM327.632 213.496V213.288C327.04 213.048 326.432 212.984 325.84 212.984C324.64 212.984 323.712 213.528 323.712 214.568C323.712 215.496 324.368 216.024 325.328 216.024C326.336 216.024 327.632 215.416 327.632 213.496ZM334.883 208.36C336.035 208.36 336.835 209.128 336.835 210.584V211.528L335.651 211.752V210.904C335.651 210.088 335.379 209.544 334.531 209.544C333.571 209.544 332.867 210.216 332.867 211.896V217H331.491V208.52H332.867V209.608C333.331 208.744 334.131 208.36 334.883 208.36ZM342.584 208.36C344.296 208.36 345.304 209.432 345.304 211.32V217H343.928V211.528C343.928 210.136 343.288 209.592 342.184 209.592C340.792 209.592 340.12 210.632 340.12 212.296V217H338.744V208.52H340.12V209.784C340.664 208.872 341.544 208.36 342.584 208.36ZM353.539 214.488L354.515 215.032C354.067 216.088 352.995 217.144 351.091 217.144C348.643 217.144 347.187 215.32 347.187 212.664C347.187 210.136 348.739 208.36 350.963 208.36C352.851 208.36 354.467 209.688 354.467 212.04L354.435 213.016H348.563C348.659 215.096 349.667 215.976 351.203 215.976C352.371 215.976 353.123 215.304 353.539 214.488ZM350.963 209.512C349.763 209.512 348.723 210.136 348.563 211.944H353.123C353.139 210.232 352.099 209.512 350.963 209.512ZM360.388 208.36C362.1 208.36 363.108 209.432 363.108 211.32V217H361.732V211.528C361.732 210.136 361.076 209.592 359.988 209.592C358.58 209.592 357.908 210.632 357.908 212.296V217H356.532V205.16H357.908V209.8C358.452 208.872 359.348 208.36 360.388 208.36ZM372.047 217H370.783C370.655 216.552 370.559 216.024 370.559 215.368C370.127 216.312 369.119 217.144 367.711 217.144C366.191 217.144 365.071 216.136 365.071 214.664C365.071 212.856 366.655 211.944 368.447 211.944C369.087 211.944 369.711 212.008 370.351 212.216V211.256C370.351 210.232 369.727 209.544 368.511 209.544C367.503 209.544 366.687 210.04 366.287 211.208L365.103 210.84C365.727 209.048 367.087 208.36 368.591 208.36C370.751 208.36 371.695 209.656 371.695 211.176V214.584C371.695 215.56 371.855 216.44 372.047 217ZM370.351 213.496V213.288C369.759 213.048 369.151 212.984 368.559 212.984C367.359 212.984 366.431 213.528 366.431 214.568C366.431 215.496 367.087 216.024 368.047 216.024C369.055 216.024 370.351 215.416 370.351 213.496ZM381.877 209.624H380.085V209.88C380.437 210.344 380.629 210.904 380.629 211.48C380.629 213.016 379.493 214.584 377.077 214.584H376.677C375.765 214.584 375.125 214.92 375.125 215.464C375.125 215.864 375.445 216.152 376.069 216.152H379.557C380.965 216.152 381.717 216.856 381.717 217.944C381.717 219.656 379.845 220.584 377.285 220.584C374.997 220.584 373.445 219.928 372.965 218.376L374.197 217.992C374.709 219.24 375.829 219.512 377.301 219.512C379.029 219.512 380.373 219.016 380.373 218.088C380.373 217.656 380.149 217.336 379.445 217.336H375.717C374.469 217.336 373.781 216.712 373.781 215.816C373.781 215.016 374.469 214.344 375.509 214.104C374.373 213.624 373.765 212.488 373.765 211.464C373.765 209.944 374.933 208.36 377.221 208.36C378.165 208.36 378.901 208.696 379.397 209.16V208.52H381.877V209.624ZM377.221 213.528C378.613 213.528 379.285 212.552 379.285 211.464C379.285 210.392 378.613 209.464 377.221 209.464C375.813 209.464 375.125 210.392 375.125 211.464C375.125 212.552 375.813 213.528 377.221 213.528ZM388.521 214.488L389.497 215.032C389.049 216.088 387.977 217.144 386.073 217.144C383.625 217.144 382.169 215.32 382.169 212.664C382.169 210.136 383.721 208.36 385.945 208.36C387.833 208.36 389.449 209.688 389.449 212.04L389.417 213.016H383.545C383.641 215.096 384.649 215.976 386.185 215.976C387.353 215.976 388.105 215.304 388.521 214.488ZM385.945 209.512C384.745 209.512 383.705 210.136 383.545 211.944H388.105C388.121 210.232 387.081 209.512 385.945 209.512ZM394.889 208.36C396.041 208.36 396.841 209.128 396.841 210.584V211.528L395.657 211.752V210.904C395.657 210.088 395.385 209.544 394.537 209.544C393.577 209.544 392.873 210.216 392.873 211.896V217H391.497V208.52H392.873V209.608C393.337 208.744 394.137 208.36 394.889 208.36Z" fill="#666666"/>
<rect width="439" height="1" transform="matrix(1 0 0 -1 57 236)" fill="#CCCCCC"/>
</g>
</g>
<defs>
<clipPath id="clip0_6312_5429">
<rect width="1116" height="416" fill="white"/>
</clipPath>
<clipPath id="clip1_6312_5429">
<rect width="439" height="49" fill="white" transform="translate(620 187)"/>
</clipPath>
<clipPath id="clip2_6312_5429">
<rect width="439" height="49" fill="white" transform="translate(57 187)"/>
</clipPath>
</defs>
</svg>
