<svg width="1408" height="355" viewBox="0 0 1408 355" fill="none" xmlns="http://www.w3.org/2000/svg">
<rect width="1408" height="355" fill="white"/>
<g clip-path="url(#clip0_6312_5453)">
<path d="M236 100H64V108H236V100Z" fill="#6FE9FF" mask="url(#path-1-inside-1_6312_5453)"/>
<path d="M95.1875 76.1725L96.0625 77.0656L90 83.0062L83.9375 77.0656L84.8125 76.1725L90 81.2556L95.1875 76.1725Z" fill="#2A2859"/>
<path fill-rule="evenodd" clip-rule="evenodd" d="M81.25 86.875V73.125H98.75V86.875H81.25ZM82.5 74.375V85.625H97.5V74.375H82.5Z" fill="#2A2859"/>
<path d="M118.544 74.16H120.384V86H118.496V77.312L115.264 82.448H114.512L111.264 77.296V86H109.392V74.16H111.216L114.88 79.984L118.544 74.16ZM123.773 76.112C123.069 76.112 122.509 75.568 122.509 74.848C122.509 74.128 123.069 73.584 123.773 73.584C124.477 73.584 125.021 74.128 125.021 74.848C125.021 75.568 124.477 76.112 123.773 76.112ZM122.877 86V77.52H124.669V86H122.877ZM131.481 77.328C133.209 77.328 134.233 78.448 134.233 80.288V86H132.441V80.576C132.441 79.408 131.881 78.88 130.905 78.88C129.641 78.88 129.001 79.76 129.001 81.408V86H127.209V77.52H129.001V78.736C129.577 77.84 130.425 77.328 131.481 77.328ZM142.457 83.328L143.674 84.032C143.194 85.088 142.074 86.144 140.137 86.144C137.625 86.144 136.105 84.288 136.105 81.68C136.105 79.104 137.753 77.328 140.01 77.328C142.01 77.328 143.658 78.672 143.658 81.072L143.625 82.128H137.865C137.961 83.92 138.841 84.688 140.249 84.688C141.289 84.688 142.01 84.128 142.457 83.328ZM140.01 78.736C138.921 78.736 138.009 79.312 137.865 80.848H141.913C141.93 79.344 141.001 78.736 140.01 78.736ZM149.114 79.856C149.114 78.416 150.442 77.328 152.442 77.328C154.09 77.328 155.194 77.92 155.786 79.056L154.538 79.824C154.154 79.168 153.386 78.768 152.426 78.768C151.466 78.768 150.81 79.136 150.81 79.744C150.81 80.24 151.146 80.544 151.898 80.688L153.322 80.976C155.114 81.328 156.01 82.176 156.01 83.472C156.01 85.072 154.618 86.144 152.522 86.144C150.746 86.144 149.482 85.472 148.826 84.24L150.074 83.456C150.538 84.24 151.354 84.688 152.474 84.688C153.562 84.688 154.298 84.256 154.298 83.552C154.298 82.976 153.946 82.656 153.162 82.496L151.594 82.192C149.994 81.888 149.114 81.072 149.114 79.856ZM163.402 78.032C164.474 78.768 165.162 80.064 165.162 81.712C165.162 84.432 163.354 86.16 161.146 86.16C160.586 86.16 160.058 86.048 159.562 85.84L159.066 86.864H158.154L158.858 85.44C157.818 84.688 157.13 83.392 157.13 81.712C157.13 79.056 158.922 77.328 161.146 77.328C161.706 77.328 162.218 77.44 162.698 77.632L163.194 76.64H164.09L163.402 78.032ZM158.97 81.712C158.97 82.704 159.21 83.44 159.61 83.92L162.01 79.024C161.754 78.912 161.45 78.848 161.146 78.848C159.962 78.848 158.97 79.696 158.97 81.712ZM161.146 84.64C162.346 84.64 163.322 83.712 163.322 81.712C163.322 80.704 163.066 79.984 162.682 79.52L160.25 84.448C160.522 84.576 160.826 84.64 161.146 84.64ZM172.365 86L169.789 82.112L168.813 83.072V86H167.021V74.16H168.813V81.04L172.237 77.52H174.445L170.973 80.944L174.509 86H172.365ZM180.171 77.328C181.899 77.328 182.923 78.448 182.923 80.288V86H181.131V80.576C181.131 79.408 180.571 78.88 179.595 78.88C178.331 78.88 177.691 79.76 177.691 81.408V86H175.899V77.52H177.691V78.736C178.267 77.84 179.115 77.328 180.171 77.328ZM192.156 86H190.508C190.38 85.568 190.3 85.056 190.268 84.4C189.868 85.28 188.972 86.144 187.5 86.144C185.964 86.144 184.876 85.104 184.876 83.632C184.876 81.792 186.508 80.88 188.332 80.88C188.908 80.88 189.452 80.928 190.044 81.088V80.288C190.044 79.376 189.468 78.784 188.428 78.784C187.452 78.784 186.764 79.312 186.444 80.304L184.924 79.84C185.532 78.048 186.988 77.328 188.508 77.328C190.764 77.328 191.788 78.656 191.788 80.272V83.552C191.788 84.56 191.948 85.456 192.156 86ZM190.044 82.496V82.304C189.532 82.128 189.036 82.064 188.508 82.064C187.452 82.064 186.636 82.544 186.636 83.472C186.636 84.256 187.196 84.752 188.044 84.752C188.908 84.752 190.044 84.24 190.044 82.496ZM199.678 74.16H201.47V86H199.678V84.464C199.022 85.648 197.998 86.128 197.022 86.128C194.974 86.128 193.502 84.368 193.502 81.792C193.502 79.12 194.99 77.344 197.23 77.344C198.19 77.344 199.15 77.776 199.678 78.816V74.16ZM197.502 84.56C198.798 84.56 199.678 83.68 199.678 81.696C199.678 79.728 198.814 78.784 197.502 78.784C196.27 78.784 195.358 79.776 195.358 81.696C195.358 83.6 196.27 84.56 197.502 84.56ZM209.623 83.328L210.839 84.032C210.359 85.088 209.239 86.144 207.303 86.144C204.791 86.144 203.271 84.288 203.271 81.68C203.271 79.104 204.919 77.328 207.175 77.328C209.175 77.328 210.823 78.672 210.823 81.072L210.791 82.128H205.031C205.127 83.92 206.007 84.688 207.415 84.688C208.455 84.688 209.175 84.128 209.623 83.328ZM207.175 78.736C206.087 78.736 205.175 79.312 205.031 80.848H209.079C209.095 79.344 208.167 78.736 207.175 78.736ZM216.721 77.328C217.953 77.328 218.753 78.144 218.753 79.6V80.72L217.313 80.976V80.112C217.313 79.344 217.041 78.816 216.209 78.816C215.297 78.816 214.625 79.424 214.625 81.04V86H212.833V77.52H214.625V78.656C215.105 77.712 215.985 77.328 216.721 77.328Z" fill="#2A2859"/>
<path d="M405 100H236V108H405V100Z" fill="#1F42AA" mask="url(#path-5-inside-2_6312_5453)"/>
<path fill-rule="evenodd" clip-rule="evenodd" d="M258.365 78.865C259.349 77.8794 260.952 77.88 261.937 78.865L261.999 78.9281L262.062 78.8656C263.047 77.8806 264.65 77.8806 265.635 78.8656C266.619 79.85 266.619 81.4531 265.635 82.4381L262 86.0731L258.365 82.4375C257.38 81.4525 257.38 79.85 258.365 78.865ZM264.752 79.7487C264.254 79.2513 263.444 79.2513 262.946 79.7487L262 80.695L261.054 79.7494C260.805 79.5006 260.478 79.3762 260.151 79.3762C259.824 79.3762 259.497 79.5006 259.249 79.7494C258.751 80.2469 258.751 81.0563 259.249 81.5544L262 84.3056L264.752 81.5538C265.249 81.0563 265.249 80.2463 264.752 79.7487Z" fill="#1F42AA"/>
<path fill-rule="evenodd" clip-rule="evenodd" d="M258.654 73.4131L262 70.625L269.5 76.875V90H254.5V71.25H258.113L258.654 73.4131ZM257.137 72.5H255.75V75.8331L257.588 74.3019L257.137 72.5ZM255.75 77.4606V88.75H268.25V77.4606L262 72.2525L255.75 77.4606Z" fill="#1F42AA"/>
<path d="M290.608 74.16H292V86H290.576V76.592L286.992 82.208H286.416L282.832 76.608V86H281.408V74.16H282.784L286.704 80.288L290.608 74.16ZM295.238 76.032C294.63 76.032 294.15 75.568 294.15 74.944C294.15 74.336 294.63 73.872 295.238 73.872C295.83 73.872 296.31 74.336 296.31 74.944C296.31 75.568 295.83 76.032 295.238 76.032ZM294.55 86V77.52H295.926V86H294.55ZM302.315 77.36C304.027 77.36 305.035 78.432 305.035 80.32V86H303.659V80.528C303.659 79.136 303.019 78.592 301.915 78.592C300.523 78.592 299.851 79.632 299.851 81.296V86H298.475V77.52H299.851V78.784C300.395 77.872 301.275 77.36 302.315 77.36ZM315.485 77.376C317.597 77.376 319.069 79.168 319.069 81.68C319.069 84.304 317.581 86.128 315.325 86.128C314.237 86.128 313.261 85.616 312.749 84.528V86H311.373V74.16H312.749V79.072C313.341 77.936 314.445 77.376 315.485 77.376ZM315.213 84.96C316.653 84.96 317.645 83.84 317.645 81.744C317.645 79.696 316.653 78.576 315.229 78.576C313.693 78.576 312.749 79.696 312.749 81.728C312.749 83.84 313.677 84.96 315.213 84.96ZM327.544 86H326.28C326.152 85.552 326.056 85.024 326.056 84.368C325.624 85.312 324.616 86.144 323.208 86.144C321.688 86.144 320.568 85.136 320.568 83.664C320.568 81.856 322.152 80.944 323.944 80.944C324.584 80.944 325.208 81.008 325.848 81.216V80.256C325.848 79.232 325.224 78.544 324.008 78.544C323 78.544 322.184 79.04 321.784 80.208L320.6 79.84C321.224 78.048 322.584 77.36 324.088 77.36C326.248 77.36 327.192 78.656 327.192 80.176V83.584C327.192 84.56 327.352 85.44 327.544 86ZM325.848 82.496V82.288C325.256 82.048 324.648 81.984 324.056 81.984C322.856 81.984 321.928 82.528 321.928 83.568C321.928 84.496 322.584 85.024 323.544 85.024C324.552 85.024 325.848 84.416 325.848 82.496ZM333.098 77.36C334.25 77.36 335.05 78.128 335.05 79.584V80.528L333.866 80.752V79.904C333.866 79.088 333.594 78.544 332.746 78.544C331.786 78.544 331.082 79.216 331.082 80.896V86H329.706V77.52H331.082V78.608C331.546 77.744 332.346 77.36 333.098 77.36ZM340.8 77.36C342.512 77.36 343.52 78.432 343.52 80.32V86H342.144V80.528C342.144 79.136 341.504 78.592 340.4 78.592C339.008 78.592 338.336 79.632 338.336 81.296V86H336.96V77.52H338.336V78.784C338.88 77.872 339.76 77.36 340.8 77.36ZM351.755 83.488L352.731 84.032C352.283 85.088 351.211 86.144 349.307 86.144C346.859 86.144 345.403 84.32 345.403 81.664C345.403 79.136 346.955 77.36 349.179 77.36C351.067 77.36 352.683 78.688 352.683 81.04L352.651 82.016H346.779C346.875 84.096 347.883 84.976 349.419 84.976C350.587 84.976 351.339 84.304 351.755 83.488ZM349.179 78.512C347.979 78.512 346.939 79.136 346.779 80.944H351.339C351.355 79.232 350.315 78.512 349.179 78.512ZM358.603 77.36C360.315 77.36 361.323 78.432 361.323 80.32V86H359.947V80.528C359.947 79.136 359.291 78.592 358.203 78.592C356.795 78.592 356.123 79.632 356.123 81.296V86H354.747V74.16H356.123V78.8C356.667 77.872 357.563 77.36 358.603 77.36ZM370.263 86H368.999C368.871 85.552 368.775 85.024 368.775 84.368C368.343 85.312 367.335 86.144 365.927 86.144C364.407 86.144 363.287 85.136 363.287 83.664C363.287 81.856 364.871 80.944 366.663 80.944C367.303 80.944 367.927 81.008 368.567 81.216V80.256C368.567 79.232 367.943 78.544 366.727 78.544C365.719 78.544 364.903 79.04 364.503 80.208L363.319 79.84C363.943 78.048 365.303 77.36 366.807 77.36C368.967 77.36 369.911 78.656 369.911 80.176V83.584C369.911 84.56 370.071 85.44 370.263 86ZM368.567 82.496V82.288C367.975 82.048 367.367 81.984 366.775 81.984C365.575 81.984 364.647 82.528 364.647 83.568C364.647 84.496 365.303 85.024 366.263 85.024C367.271 85.024 368.567 84.416 368.567 82.496ZM380.093 78.624H378.301V78.88C378.653 79.344 378.845 79.904 378.845 80.48C378.845 82.016 377.709 83.584 375.293 83.584H374.893C373.981 83.584 373.341 83.92 373.341 84.464C373.341 84.864 373.661 85.152 374.285 85.152H377.773C379.181 85.152 379.933 85.856 379.933 86.944C379.933 88.656 378.061 89.584 375.501 89.584C373.213 89.584 371.661 88.928 371.181 87.376L372.413 86.992C372.925 88.24 374.045 88.512 375.517 88.512C377.245 88.512 378.589 88.016 378.589 87.088C378.589 86.656 378.365 86.336 377.661 86.336H373.933C372.685 86.336 371.997 85.712 371.997 84.816C371.997 84.016 372.685 83.344 373.725 83.104C372.589 82.624 371.981 81.488 371.981 80.464C371.981 78.944 373.149 77.36 375.437 77.36C376.381 77.36 377.117 77.696 377.613 78.16V77.52H380.093V78.624ZM375.437 82.528C376.829 82.528 377.501 81.552 377.501 80.464C377.501 79.392 376.829 78.464 375.437 78.464C374.029 78.464 373.341 79.392 373.341 80.464C373.341 81.552 374.029 82.528 375.437 82.528ZM386.736 83.488L387.712 84.032C387.264 85.088 386.192 86.144 384.288 86.144C381.84 86.144 380.384 84.32 380.384 81.664C380.384 79.136 381.936 77.36 384.16 77.36C386.048 77.36 387.664 78.688 387.664 81.04L387.632 82.016H381.76C381.856 84.096 382.864 84.976 384.4 84.976C385.568 84.976 386.32 84.304 386.736 83.488ZM384.16 78.512C382.96 78.512 381.92 79.136 381.76 80.944H386.32C386.336 79.232 385.296 78.512 384.16 78.512Z" fill="#1F42AA"/>
<path d="M431 80C432.277 80 433.313 78.9647 433.313 77.6875C433.313 76.4103 432.277 75.375 431 75.375C429.723 75.375 428.688 76.4103 428.688 77.6875C428.688 78.9647 429.723 80 431 80Z" fill="#666666"/>
<path fill-rule="evenodd" clip-rule="evenodd" d="M421.625 80C421.625 74.8225 425.822 70.625 431 70.625C436.178 70.625 440.375 74.8225 440.375 80C440.375 85.1775 436.178 89.375 431 89.375C425.822 89.375 421.625 85.1775 421.625 80ZM428.308 82.5L426.672 86.8644C427.927 87.6581 429.408 88.125 431 88.125C432.592 88.125 434.073 87.6581 435.328 86.8644L433.692 82.5H428.308ZM434.558 81.25L436.37 86.0812C438.055 84.5912 439.125 82.4206 439.125 80C439.125 75.52 435.48 71.875 431 71.875C426.52 71.875 422.875 75.52 422.875 80C422.875 82.4206 423.945 84.5912 425.63 86.0812L427.442 81.25H434.558Z" fill="#666666"/>
<path d="M459.608 74.16H461V86H459.576V76.592L455.992 82.208H455.416L451.832 76.608V86H450.408V74.16H451.784L455.704 80.288L459.608 74.16ZM464.238 76.032C463.63 76.032 463.15 75.568 463.15 74.944C463.15 74.336 463.63 73.872 464.238 73.872C464.83 73.872 465.31 74.336 465.31 74.944C465.31 75.568 464.83 76.032 464.238 76.032ZM463.55 86V77.52H464.926V86H463.55ZM471.315 77.36C473.027 77.36 474.035 78.432 474.035 80.32V86H472.659V80.528C472.659 79.136 472.019 78.592 470.915 78.592C469.523 78.592 468.851 79.632 468.851 81.296V86H467.475V77.52H468.851V78.784C469.395 77.872 470.275 77.36 471.315 77.36ZM482.271 83.488L483.247 84.032C482.799 85.088 481.727 86.144 479.823 86.144C477.375 86.144 475.919 84.32 475.919 81.664C475.919 79.136 477.471 77.36 479.695 77.36C481.583 77.36 483.199 78.688 483.199 81.04L483.167 82.016H477.295C477.391 84.096 478.399 84.976 479.935 84.976C481.103 84.976 481.855 84.304 482.271 83.488ZM479.695 78.512C478.495 78.512 477.455 79.136 477.295 80.944H481.855C481.871 79.232 480.831 78.512 479.695 78.512ZM493.269 77.376C495.381 77.376 496.853 79.168 496.853 81.68C496.853 84.304 495.365 86.128 493.109 86.128C492.021 86.128 491.045 85.616 490.533 84.528V86H489.157V74.16H490.533V79.072C491.125 77.936 492.229 77.376 493.269 77.376ZM492.997 84.96C494.437 84.96 495.429 83.84 495.429 81.744C495.429 79.696 494.437 78.576 493.013 78.576C491.477 78.576 490.533 79.696 490.533 81.728C490.533 83.84 491.461 84.96 492.997 84.96ZM505.328 86H504.064C503.936 85.552 503.84 85.024 503.84 84.368C503.408 85.312 502.4 86.144 500.992 86.144C499.472 86.144 498.352 85.136 498.352 83.664C498.352 81.856 499.936 80.944 501.728 80.944C502.368 80.944 502.992 81.008 503.632 81.216V80.256C503.632 79.232 503.008 78.544 501.792 78.544C500.784 78.544 499.968 79.04 499.568 80.208L498.384 79.84C499.008 78.048 500.368 77.36 501.872 77.36C504.032 77.36 504.976 78.656 504.976 80.176V83.584C504.976 84.56 505.136 85.44 505.328 86ZM503.632 82.496V82.288C503.04 82.048 502.432 81.984 501.84 81.984C500.64 81.984 499.712 82.528 499.712 83.568C499.712 84.496 500.368 85.024 501.328 85.024C502.336 85.024 503.632 84.416 503.632 82.496ZM510.883 77.36C512.035 77.36 512.835 78.128 512.835 79.584V80.528L511.651 80.752V79.904C511.651 79.088 511.379 78.544 510.531 78.544C509.571 78.544 508.867 79.216 508.867 80.896V86H507.491V77.52H508.867V78.608C509.331 77.744 510.131 77.36 510.883 77.36ZM518.584 77.36C520.296 77.36 521.304 78.432 521.304 80.32V86H519.928V80.528C519.928 79.136 519.288 78.592 518.184 78.592C516.792 78.592 516.12 79.632 516.12 81.296V86H514.744V77.52H516.12V78.784C516.664 77.872 517.544 77.36 518.584 77.36Z" fill="#666666"/>
<g clip-path="url(#clip1_6312_5453)">
<path fill-rule="evenodd" clip-rule="evenodd" d="M565 75.625C562.584 75.625 560.625 77.5838 560.625 80C560.625 82.4162 562.584 84.375 565 84.375C567.416 84.375 569.375 82.4162 569.375 80C569.375 77.5838 567.416 75.625 565 75.625ZM561.875 80C561.875 78.2741 563.274 76.875 565 76.875C566.726 76.875 568.125 78.2741 568.125 80C568.125 81.7259 566.726 83.125 565 83.125C563.274 83.125 561.875 81.7259 561.875 80Z" fill="#666666"/>
<path fill-rule="evenodd" clip-rule="evenodd" d="M563.333 70.625H566.667L567.153 72.8136C567.645 72.9607 568.115 73.1568 568.559 73.3963L570.451 72.1924L572.808 74.5494L571.604 76.4413C571.843 76.8849 572.039 77.3553 572.186 77.847L574.375 78.3333V81.6667L572.186 82.153C572.039 82.6447 571.843 83.1151 571.604 83.5587L572.808 85.4506L570.451 87.8076L568.559 86.6037C568.115 86.8432 567.645 87.0393 567.153 87.1864L566.667 89.375H563.333L562.847 87.1864C562.355 87.0393 561.885 86.8432 561.441 86.6036L559.549 87.8076L557.192 85.4506L558.396 83.5586C558.157 83.1151 557.961 82.6446 557.814 82.153L555.625 81.6667V78.3333L557.814 77.847C557.961 77.3553 558.157 76.8849 558.396 76.4413L557.192 74.5494L559.549 72.1924L561.441 73.3963C561.885 73.1568 562.355 72.9607 562.847 72.8136L563.333 70.625ZM563.205 74.0112L563.908 73.8009L564.336 71.875H565.664L566.092 73.8009L566.795 74.0112C567.204 74.1335 567.595 74.2967 567.965 74.4962L568.61 74.845L570.276 73.7853L571.215 74.7242L570.155 76.3895L570.504 77.0353C570.703 77.4047 570.866 77.7963 570.989 78.2052L571.199 78.9081L573.125 79.336V80.664L571.199 81.0919L570.989 81.7948C570.866 82.2037 570.703 82.5953 570.504 82.9647L570.155 83.6105L571.215 85.2758L570.276 86.2147L568.61 85.155L567.965 85.5038C567.595 85.7033 567.204 85.8665 566.795 85.9888L566.092 86.1991L565.664 88.125H564.336L563.908 86.1991L563.205 85.9888C562.796 85.8665 562.405 85.7033 562.035 85.5038L561.39 85.155L559.724 86.2147L558.785 85.2758L559.845 83.6105L559.496 82.9646C559.297 82.5952 559.134 82.2037 559.011 81.7948L558.801 81.0919L556.875 80.664V79.336L558.801 78.9081L559.011 78.2052C559.134 77.7963 559.297 77.4047 559.496 77.0353L559.845 76.3895L558.785 74.7242L559.724 73.7853L561.39 74.845L562.035 74.4962C562.405 74.2967 562.796 74.1335 563.205 74.0112Z" fill="#666666"/>
</g>
<path d="M584.408 86V74.16H585.832V86H584.408ZM592.203 77.36C593.915 77.36 594.923 78.432 594.923 80.32V86H593.547V80.528C593.547 79.136 592.907 78.592 591.803 78.592C590.411 78.592 589.739 79.632 589.739 81.296V86H588.363V77.52H589.739V78.784C590.283 77.872 591.163 77.36 592.203 77.36ZM601.19 77.36C602.902 77.36 603.91 78.432 603.91 80.32V86H602.534V80.528C602.534 79.136 601.894 78.592 600.79 78.592C599.398 78.592 598.726 79.632 598.726 81.296V86H597.35V77.52H598.726V78.784C599.27 77.872 600.15 77.36 601.19 77.36ZM605.906 79.776C605.906 78.4 607.202 77.36 609.074 77.36C610.642 77.36 611.794 78.048 612.242 79.168L611.202 79.696C610.85 78.944 610.082 78.528 609.042 78.528C607.954 78.528 607.234 78.96 607.234 79.68C607.234 80.304 607.634 80.672 608.546 80.864L609.778 81.104C611.618 81.472 612.498 82.288 612.498 83.568C612.498 85.088 611.154 86.128 609.17 86.128C607.442 86.128 606.21 85.456 605.602 84.208L606.658 83.648C607.09 84.512 607.938 84.976 609.138 84.976C610.354 84.976 611.17 84.448 611.17 83.648C611.17 82.944 610.754 82.56 609.778 82.352L608.322 82.064C606.754 81.744 605.906 80.944 605.906 79.776ZM616.2 83.68C616.2 84.656 616.792 84.944 617.336 84.944C617.832 84.944 618.184 84.752 618.568 84.352L619.224 85.2C618.632 85.856 617.976 86.128 617.16 86.128C615.88 86.128 614.824 85.312 614.824 83.712V78.624H613.272V77.52H614.824V75.664L616.2 74.96V77.52H619.048V78.624H616.2V83.68ZM621.516 76.032C620.908 76.032 620.428 75.568 620.428 74.944C620.428 74.336 620.908 73.872 621.516 73.872C622.108 73.872 622.588 74.336 622.588 74.944C622.588 75.568 622.108 76.032 621.516 76.032ZM620.828 86V77.52H622.204V86H620.828ZM627.713 85.968C627.425 86.032 627.169 86.08 626.881 86.08C625.441 86.08 624.753 85.2 624.753 83.824V74.16H626.129V83.76C626.129 84.496 626.529 84.848 627.201 84.848C627.361 84.848 627.537 84.832 627.713 84.784V85.968ZM632.42 85.968C632.132 86.032 631.876 86.08 631.588 86.08C630.148 86.08 629.46 85.2 629.46 83.824V74.16H630.836V83.76C630.836 84.496 631.236 84.848 631.908 84.848C632.068 84.848 632.244 84.832 632.42 84.784V85.968ZM633.941 74.064H635.829V75.92H633.941V74.064ZM634.197 86V77.52H635.573V86H634.197ZM641.962 77.36C643.674 77.36 644.682 78.432 644.682 80.32V86H643.306V80.528C643.306 79.136 642.666 78.592 641.562 78.592C640.17 78.592 639.498 79.632 639.498 81.296V86H638.122V77.52H639.498V78.784C640.042 77.872 640.922 77.36 641.962 77.36ZM654.934 78.624H653.142V78.88C653.494 79.344 653.686 79.904 653.686 80.48C653.686 82.016 652.55 83.584 650.134 83.584H649.734C648.822 83.584 648.182 83.92 648.182 84.464C648.182 84.864 648.502 85.152 649.126 85.152H652.614C654.022 85.152 654.774 85.856 654.774 86.944C654.774 88.656 652.902 89.584 650.342 89.584C648.054 89.584 646.502 88.928 646.022 87.376L647.254 86.992C647.766 88.24 648.886 88.512 650.358 88.512C652.086 88.512 653.43 88.016 653.43 87.088C653.43 86.656 653.206 86.336 652.502 86.336H648.774C647.526 86.336 646.838 85.712 646.838 84.816C646.838 84.016 647.526 83.344 648.566 83.104C647.43 82.624 646.822 81.488 646.822 80.464C646.822 78.944 647.99 77.36 650.278 77.36C651.222 77.36 651.958 77.696 652.454 78.16V77.52H654.934V78.624ZM650.278 82.528C651.67 82.528 652.342 81.552 652.342 80.464C652.342 79.392 651.67 78.464 650.278 78.464C648.87 78.464 648.182 79.392 648.182 80.464C648.182 81.552 648.87 82.528 650.278 82.528ZM661.577 83.488L662.553 84.032C662.105 85.088 661.033 86.144 659.129 86.144C656.681 86.144 655.225 84.32 655.225 81.664C655.225 79.136 656.777 77.36 659.001 77.36C660.889 77.36 662.505 78.688 662.505 81.04L662.473 82.016H656.601C656.697 84.096 657.705 84.976 659.241 84.976C660.409 84.976 661.161 84.304 661.577 83.488ZM659.001 78.512C657.801 78.512 656.761 79.136 656.601 80.944H661.161C661.177 79.232 660.137 78.512 659.001 78.512ZM667.945 77.36C669.097 77.36 669.897 78.128 669.897 79.584V80.528L668.713 80.752V79.904C668.713 79.088 668.441 78.544 667.593 78.544C666.633 78.544 665.929 79.216 665.929 80.896V86H664.553V77.52H665.929V78.608C666.393 77.744 667.193 77.36 667.945 77.36Z" fill="#666666"/>
<rect width="1280" height="1" transform="matrix(1 0 0 -1 64 105)" fill="#CCCCCC"/>
</g>
<g clip-path="url(#clip2_6312_5453)">
<path d="M382 197H64V205H382V197Z" fill="#6FE9FF" mask="url(#path-14-inside-3_6312_5453)"/>
<path d="M83.264 181.272H89.024V183H81.392V171.16H88.928V172.888H83.264V176.2H87.632V177.928H83.264V181.272ZM97.8856 183L94.1256 177.576L92.8296 178.952V183H90.9576V171.16H92.8296V176.616L97.8216 171.16H100.126L95.3256 176.296L100.19 183H97.8856ZM106.144 183.16C102.8 183.16 100.368 180.808 100.368 177.032C100.368 173.352 102.944 171 105.968 171C108 171 109.568 171.912 110.416 173.672L108.784 174.584C108.256 173.448 107.216 172.792 105.968 172.792C104.08 172.792 102.32 174.12 102.32 177.016C102.32 179.912 103.968 181.448 106.288 181.448C107.312 181.448 108.096 181.24 108.8 180.856V178.04H104.88V176.376H110.448V181.816C109.28 182.712 107.76 183.16 106.144 183.16ZM121.756 181.416H124.348V183H117.164V181.416H119.9V173.288L117.292 174.952V173.048L120.156 171.16H121.756V181.416ZM129.118 181.304H134.75V183H126.59V181.528L130.734 177.192C131.87 175.992 132.334 175.368 132.334 174.392C132.334 173.416 131.63 172.664 130.462 172.664C129.23 172.664 128.462 173.336 128.11 174.648L126.382 174.28C126.942 171.976 128.606 171 130.494 171C132.974 171 134.302 172.584 134.302 174.264C134.302 175.704 133.678 176.616 132.254 178.088L129.118 181.304ZM137.952 183.112C137.184 183.112 136.608 182.52 136.608 181.768C136.608 181.016 137.184 180.424 137.952 180.424C138.72 180.424 139.296 181.016 139.296 181.768C139.296 182.52 138.72 183.112 137.952 183.112ZM145.361 183.128C142.945 183.128 140.897 180.984 140.897 177.064C140.897 173.144 142.929 171 145.361 171C147.809 171 149.825 173.144 149.825 177.064C149.825 180.984 147.793 183.128 145.361 183.128ZM145.361 181.352C146.833 181.352 147.873 180.056 147.873 177.064C147.873 174.104 146.833 172.776 145.361 172.776C143.889 172.776 142.849 174.104 142.849 177.064C142.849 180.056 143.889 181.352 145.361 181.352ZM157.379 176.728C158.547 177.128 159.571 178.04 159.571 179.592C159.571 181.544 157.907 183.16 155.171 183.16C153.491 183.16 151.987 182.552 150.787 180.936L152.163 179.896C153.027 181.048 153.923 181.48 155.187 181.48C156.723 181.48 157.683 180.568 157.683 179.496C157.683 178.776 157.411 178.264 156.899 178.008C156.579 177.832 156.243 177.752 155.731 177.752H153.907V176.184H155.107C155.907 176.184 156.259 176.072 156.595 175.8C156.995 175.48 157.187 175 157.187 174.504C157.187 173.352 156.387 172.664 155.107 172.664C153.843 172.664 153.043 173.4 152.643 174.568L150.963 174.088C151.651 172.04 153.235 171 155.139 171C157.875 171 159.075 172.6 159.075 174.168C159.075 175.4 158.339 176.264 157.379 176.728ZM161.637 180.632H163.973V183H161.637V180.632ZM168.79 181.304H174.422V183H166.262V181.528L170.406 177.192C171.542 175.992 172.006 175.368 172.006 174.392C172.006 173.416 171.302 172.664 170.134 172.664C168.902 172.664 168.134 173.336 167.782 174.648L166.054 174.28C166.614 171.976 168.278 171 170.166 171C172.646 171 173.974 172.584 173.974 174.264C173.974 175.704 173.35 176.616 171.926 178.088L168.79 181.304ZM180.248 183.128C177.832 183.128 175.784 180.984 175.784 177.064C175.784 173.144 177.816 171 180.248 171C182.696 171 184.712 173.144 184.712 177.064C184.712 180.984 182.68 183.128 180.248 183.128ZM180.248 181.352C181.72 181.352 182.76 180.056 182.76 177.064C182.76 174.104 181.72 172.776 180.248 172.776C178.776 172.776 177.736 174.104 177.736 177.064C177.736 180.056 178.776 181.352 180.248 181.352ZM188.858 181.304H194.49V183H186.33V181.528L190.474 177.192C191.61 175.992 192.074 175.368 192.074 174.392C192.074 173.416 191.37 172.664 190.202 172.664C188.97 172.664 188.202 173.336 187.85 174.648L186.122 174.28C186.682 171.976 188.346 171 190.234 171C192.714 171 194.042 172.584 194.042 174.264C194.042 175.704 193.418 176.616 191.994 178.088L188.858 181.304ZM198.893 181.304H204.525V183H196.365V181.528L200.509 177.192C201.645 175.992 202.109 175.368 202.109 174.392C202.109 173.416 201.405 172.664 200.237 172.664C199.005 172.664 198.237 173.336 197.885 174.648L196.157 174.28C196.717 171.976 198.381 171 200.269 171C202.749 171 204.077 172.584 204.077 174.264C204.077 175.704 203.453 176.616 202.029 178.088L198.893 181.304ZM215.765 183L213.189 179.112L212.213 180.072V183H210.421V171.16H212.213V178.04L215.637 174.52H217.845L214.373 177.944L217.909 183H215.765ZM222.551 182.952C222.215 183.048 221.879 183.096 221.527 183.096C219.911 183.096 219.143 182.136 219.143 180.584V171.16H220.935V180.456C220.935 181.192 221.367 181.528 222.023 181.528C222.183 181.528 222.359 181.512 222.551 181.464V182.952ZM225.534 183.112C224.766 183.112 224.19 182.52 224.19 181.768C224.19 181.016 224.766 180.424 225.534 180.424C226.302 180.424 226.878 181.016 226.878 181.768C226.878 182.52 226.302 183.112 225.534 183.112ZM236.836 183.128C234.42 183.128 232.372 180.984 232.372 177.064C232.372 173.144 234.404 171 236.836 171C239.284 171 241.3 173.144 241.3 177.064C241.3 180.984 239.268 183.128 236.836 183.128ZM236.836 181.352C238.308 181.352 239.348 180.056 239.348 177.064C239.348 174.104 238.308 172.776 236.836 172.776C235.364 172.776 234.324 174.104 234.324 177.064C234.324 180.056 235.364 181.352 236.836 181.352ZM246.438 183.16C244.534 183.16 243.19 182.312 242.454 181.016L243.878 180.056C244.358 180.968 245.318 181.48 246.39 181.48C248.566 181.48 249.446 179.608 249.27 176.776C248.55 178.136 247.318 178.76 246.086 178.76C244.086 178.76 242.422 177.368 242.422 175.016C242.422 172.872 244.038 171 246.614 171C249.462 171 251.142 173.336 251.142 177.032C251.142 180.584 249.622 183.16 246.438 183.16ZM246.55 177.256C247.734 177.256 248.838 176.488 248.838 174.936C248.838 173.416 247.75 172.616 246.582 172.616C245.43 172.616 244.358 173.4 244.358 174.92C244.358 176.488 245.414 177.256 246.55 177.256ZM253.624 175H255.96V177.368H253.624V175ZM254.792 183.112C254.024 183.112 253.448 182.52 253.448 181.768C253.448 181.016 254.024 180.424 254.792 180.424C255.56 180.424 256.136 181.016 256.136 181.768C256.136 182.52 255.56 183.112 254.792 183.112ZM261.296 181.304H266.928V183H258.768V181.528L262.912 177.192C264.048 175.992 264.512 175.368 264.512 174.392C264.512 173.416 263.808 172.664 262.64 172.664C261.408 172.664 260.64 173.336 260.288 174.648L258.56 174.28C259.12 171.976 260.784 171 262.672 171C265.152 171 266.48 172.584 266.48 174.264C266.48 175.704 265.856 176.616 264.432 178.088L261.296 181.304ZM272.754 183.128C270.338 183.128 268.29 180.984 268.29 177.064C268.29 173.144 270.322 171 272.754 171C275.202 171 277.218 173.144 277.218 177.064C277.218 180.984 275.186 183.128 272.754 183.128ZM272.754 181.352C274.226 181.352 275.266 180.056 275.266 177.064C275.266 174.104 274.226 172.776 272.754 172.776C271.282 172.776 270.242 174.104 270.242 177.064C270.242 180.056 271.282 181.352 272.754 181.352Z" fill="#2A2859"/>
<rect width="80" height="22" transform="translate(286 166)" fill="#FFE7BC"/>
<path d="M291.218 182V171.64H292.856V182H291.218ZM299.684 182L297.43 178.598L296.576 179.438V182H295.008V171.64H296.576V177.66L299.572 174.58H301.504L298.466 177.576L301.56 182H299.684ZM307.564 182L305.31 178.598L304.456 179.438V182H302.888V171.64H304.456V177.66L307.452 174.58H309.384L306.346 177.576L309.44 182H307.564ZM315.304 179.662L316.368 180.278C315.948 181.202 314.968 182.126 313.274 182.126C311.076 182.126 309.746 180.502 309.746 178.22C309.746 175.966 311.188 174.412 313.162 174.412C314.912 174.412 316.354 175.588 316.354 177.688L316.326 178.612H311.286C311.37 180.18 312.14 180.852 313.372 180.852C314.282 180.852 314.912 180.362 315.304 179.662ZM313.162 175.644C312.21 175.644 311.412 176.148 311.286 177.492H314.828C314.842 176.176 314.03 175.644 313.162 175.644ZM324.452 181.958C324.158 182.042 323.864 182.084 323.556 182.084C322.142 182.084 321.47 181.244 321.47 179.886V171.64H323.038V179.774C323.038 180.418 323.416 180.712 323.99 180.712C324.13 180.712 324.284 180.698 324.452 180.656V181.958ZM331.883 182H330.441C330.329 181.622 330.259 181.174 330.231 180.6C329.881 181.37 329.097 182.126 327.809 182.126C326.465 182.126 325.513 181.216 325.513 179.928C325.513 178.318 326.941 177.52 328.537 177.52C329.041 177.52 329.517 177.562 330.035 177.702V177.002C330.035 176.204 329.531 175.686 328.621 175.686C327.767 175.686 327.165 176.148 326.885 177.016L325.555 176.61C326.087 175.042 327.361 174.412 328.691 174.412C330.665 174.412 331.561 175.574 331.561 176.988V179.858C331.561 180.74 331.701 181.524 331.883 182ZM330.035 178.934V178.766C329.587 178.612 329.153 178.556 328.691 178.556C327.767 178.556 327.053 178.976 327.053 179.788C327.053 180.474 327.543 180.908 328.285 180.908C329.041 180.908 330.035 180.46 330.035 178.934ZM340.706 175.798H339.152V175.966C339.404 176.316 339.53 176.722 339.53 177.142C339.53 178.486 338.494 179.83 336.338 179.83H335.974C335.218 179.83 334.728 180.082 334.728 180.53C334.728 180.838 334.966 181.062 335.442 181.062H338.536C339.81 181.062 340.538 181.72 340.538 182.728C340.538 184.254 338.984 185.136 336.506 185.136C334.336 185.136 332.88 184.59 332.502 183.148L334.028 182.854C334.378 183.75 335.19 183.988 336.548 183.988C338.004 183.988 339.04 183.596 339.04 182.91C339.04 182.588 338.858 182.35 338.354 182.35H334.98C333.818 182.35 333.216 181.72 333.216 180.936C333.216 180.18 333.888 179.578 334.812 179.396C333.79 178.948 333.286 177.996 333.286 177.1C333.286 175.77 334.364 174.412 336.422 174.412C337.332 174.412 338.046 174.734 338.466 175.196V174.58H340.706V175.798ZM336.422 178.696C337.5 178.696 338.004 177.94 338.004 177.128C338.004 176.316 337.5 175.574 336.422 175.574C335.358 175.574 334.84 176.316 334.84 177.128C334.84 177.94 335.358 178.696 336.422 178.696ZM345.286 174.412C346.364 174.412 347.064 175.126 347.064 176.4V177.38L345.804 177.604V176.848C345.804 176.176 345.566 175.714 344.838 175.714C344.04 175.714 343.452 176.246 343.452 177.66V182H341.884V174.58H343.452V175.574C343.872 174.748 344.642 174.412 345.286 174.412ZM353.342 179.662L354.406 180.278C353.986 181.202 353.006 182.126 351.312 182.126C349.114 182.126 347.784 180.502 347.784 178.22C347.784 175.966 349.226 174.412 351.2 174.412C352.95 174.412 354.392 175.588 354.392 177.688L354.364 178.612H349.324C349.408 180.18 350.178 180.852 351.41 180.852C352.32 180.852 352.95 180.362 353.342 179.662ZM351.2 175.644C350.248 175.644 349.45 176.148 349.324 177.492H352.866C352.88 176.176 352.068 175.644 351.2 175.644ZM358.089 179.704C358.089 180.53 358.593 180.782 359.111 180.782C359.517 180.782 359.839 180.614 360.161 180.292L360.833 181.3C360.273 181.86 359.657 182.126 358.859 182.126C357.571 182.126 356.521 181.342 356.521 179.802V175.798H355.219V174.58H356.521V172.928L358.089 172.214V174.58H360.707V175.798H358.089V179.704Z" fill="#2A2859"/>
<path d="M400.832 181.672H406.8V183H399.408V171.16H406.72V172.488H400.832V176.392H405.392V177.736H400.832V181.672ZM415.621 183L411.445 177.416L410.101 178.856V183H408.677V171.16H410.101V177.048L415.557 171.16H417.349L412.373 176.44L417.413 183H415.621ZM423.312 183.144C420.064 183.144 417.712 180.776 417.712 177.016C417.712 173.368 420.192 171.016 423.184 171.016C425.248 171.016 426.752 171.96 427.504 173.64L426.24 174.296C425.664 173.048 424.512 172.376 423.168 172.376C421.024 172.376 419.2 173.896 419.2 177.016C419.2 180.136 420.928 181.848 423.392 181.848C424.592 181.848 425.456 181.608 426.256 181.144V177.896H422.08V176.6H427.536V181.8C426.48 182.68 424.896 183.144 423.312 183.144ZM438.561 181.8H441.169V183H434.401V181.8H437.153V172.76L434.545 174.504V173.032L437.297 171.16H438.561V181.8ZM445.747 181.704H451.763V183H443.843V181.912L448.051 177.336C449.267 176.024 449.763 175.304 449.763 174.28C449.763 173.176 449.011 172.28 447.603 172.28C446.371 172.28 445.443 172.888 444.995 174.296L443.699 173.944C444.387 171.848 445.875 171.016 447.635 171.016C450.003 171.016 451.235 172.6 451.235 174.168C451.235 175.528 450.691 176.424 449.123 178.12L445.747 181.704ZM454.87 183.096C454.214 183.096 453.718 182.6 453.718 181.944C453.718 181.288 454.214 180.792 454.87 180.792C455.526 180.792 456.022 181.288 456.022 181.944C456.022 182.6 455.526 183.096 454.87 183.096ZM462.095 183.128C459.727 183.128 457.711 180.952 457.711 177.08C457.711 173.208 459.711 171.016 462.095 171.016C464.479 171.016 466.479 173.208 466.479 177.08C466.479 180.952 464.463 183.128 462.095 183.128ZM462.095 181.784C463.743 181.784 465.007 180.392 465.007 177.08C465.007 173.816 463.743 172.376 462.095 172.376C460.447 172.376 459.183 173.816 459.183 177.08C459.183 180.392 460.447 181.784 462.095 181.784ZM474.001 176.744C475.185 177.144 476.161 178.088 476.161 179.64C476.161 181.56 474.545 183.144 471.937 183.144C470.353 183.144 468.865 182.552 467.713 180.952L468.769 180.12C469.633 181.352 470.593 181.864 472.001 181.864C473.697 181.864 474.753 180.84 474.753 179.592C474.753 178.728 474.401 178.184 473.857 177.864C473.441 177.64 473.057 177.528 472.401 177.528H470.721V176.312H471.921C472.817 176.312 473.185 176.184 473.569 175.88C474.017 175.512 474.273 174.968 474.273 174.328C474.273 173.08 473.361 172.28 471.889 172.28C470.641 172.28 469.681 172.92 469.185 174.296L467.921 173.912C468.689 171.912 470.161 171.016 471.937 171.016C474.481 171.016 475.665 172.616 475.665 174.168C475.665 175.352 474.961 176.28 474.001 176.744ZM478.356 180.968H480.34V183H478.356V180.968ZM484.669 181.704H490.685V183H482.765V181.912L486.973 177.336C488.189 176.024 488.685 175.304 488.685 174.28C488.685 173.176 487.933 172.28 486.525 172.28C485.293 172.28 484.365 172.888 483.917 174.296L482.621 173.944C483.309 171.848 484.797 171.016 486.557 171.016C488.925 171.016 490.157 172.6 490.157 174.168C490.157 175.528 489.613 176.424 488.045 178.12L484.669 181.704ZM496.608 183.128C494.24 183.128 492.224 180.952 492.224 177.08C492.224 173.208 494.224 171.016 496.608 171.016C498.992 171.016 500.992 173.208 500.992 177.08C500.992 180.952 498.976 183.128 496.608 183.128ZM496.608 181.784C498.256 181.784 499.52 180.392 499.52 177.08C499.52 173.816 498.256 172.376 496.608 172.376C494.96 172.376 493.696 173.816 493.696 177.08C493.696 180.392 494.96 181.784 496.608 181.784ZM504.738 181.704H510.754V183H502.834V181.912L507.042 177.336C508.258 176.024 508.754 175.304 508.754 174.28C508.754 173.176 508.002 172.28 506.594 172.28C505.362 172.28 504.434 172.888 503.986 174.296L502.69 173.944C503.378 171.848 504.866 171.016 506.626 171.016C508.994 171.016 510.226 172.6 510.226 174.168C510.226 175.528 509.682 176.424 508.114 178.12L504.738 181.704ZM514.772 181.704H520.788V183H512.868V181.912L517.076 177.336C518.292 176.024 518.788 175.304 518.788 174.28C518.788 173.176 518.036 172.28 516.628 172.28C515.396 172.28 514.468 172.888 514.02 174.296L512.724 173.944C513.412 171.848 514.9 171.016 516.66 171.016C519.028 171.016 520.26 172.6 520.26 174.168C520.26 175.528 519.716 176.424 518.148 178.12L514.772 181.704ZM532.14 183L529.228 178.92L528.22 179.912V183H526.844V171.16H528.22V178.328L532.012 174.52H533.756L530.156 178.024L533.82 183H532.14ZM538.057 182.968C537.769 183.032 537.513 183.08 537.225 183.08C535.785 183.08 535.097 182.2 535.097 180.824V171.16H536.473V180.76C536.473 181.496 536.873 181.848 537.545 181.848C537.705 181.848 537.881 181.832 538.057 181.784V182.968ZM540.795 183.096C540.139 183.096 539.643 182.6 539.643 181.944C539.643 181.288 540.139 180.792 540.795 180.792C541.451 180.792 541.947 181.288 541.947 181.944C541.947 182.6 541.451 183.096 540.795 183.096ZM551.914 183.128C549.546 183.128 547.53 180.952 547.53 177.08C547.53 173.208 549.53 171.016 551.914 171.016C554.298 171.016 556.298 173.208 556.298 177.08C556.298 180.952 554.282 183.128 551.914 183.128ZM551.914 181.784C553.562 181.784 554.826 180.392 554.826 177.08C554.826 173.816 553.562 172.376 551.914 172.376C550.266 172.376 549.002 173.816 549.002 177.08C549.002 180.392 550.266 181.784 551.914 181.784ZM558.092 171.16H566.46V172.344L560.988 183H559.436L564.972 172.408H559.388V174.808H558.092V171.16ZM568.687 175.336H570.671V177.368H568.687V175.336ZM569.679 183.096C569.023 183.096 568.527 182.6 568.527 181.944C568.527 181.288 569.023 180.792 569.679 180.792C570.335 180.792 570.831 181.288 570.831 181.944C570.831 182.6 570.335 183.096 569.679 183.096ZM578.352 181.8H580.96V183H574.192V181.8H576.944V172.76L574.336 174.504V173.032L577.088 171.16H578.352V181.8ZM588.386 181.8H590.994V183H584.226V181.8H586.978V172.76L584.37 174.504V173.032L587.122 171.16H588.386V181.8Z" fill="#666666"/>
<path d="M627.832 181.672H633.8V183H626.408V171.16H633.72V172.488H627.832V176.392H632.392V177.736H627.832V181.672ZM642.621 183L638.445 177.416L637.101 178.856V183H635.677V171.16H637.101V177.048L642.557 171.16H644.349L639.373 176.44L644.413 183H642.621ZM650.312 183.144C647.064 183.144 644.712 180.776 644.712 177.016C644.712 173.368 647.192 171.016 650.184 171.016C652.248 171.016 653.752 171.96 654.504 173.64L653.24 174.296C652.664 173.048 651.512 172.376 650.168 172.376C648.024 172.376 646.2 173.896 646.2 177.016C646.2 180.136 647.928 181.848 650.392 181.848C651.592 181.848 652.456 181.608 653.256 181.144V177.896H649.08V176.6H654.536V181.8C653.48 182.68 651.896 183.144 650.312 183.144ZM665.561 181.8H668.169V183H661.401V181.8H664.153V172.76L661.545 174.504V173.032L664.297 171.16H665.561V181.8ZM674.651 183.128C672.283 183.128 670.267 180.952 670.267 177.08C670.267 173.208 672.267 171.016 674.651 171.016C677.035 171.016 679.035 173.208 679.035 177.08C679.035 180.952 677.019 183.128 674.651 183.128ZM674.651 181.784C676.299 181.784 677.563 180.392 677.563 177.08C677.563 173.816 676.299 172.376 674.651 172.376C673.003 172.376 671.739 173.816 671.739 177.08C671.739 180.392 673.003 181.784 674.651 181.784ZM681.87 183.096C681.214 183.096 680.718 182.6 680.718 181.944C680.718 181.288 681.214 180.792 681.87 180.792C682.526 180.792 683.022 181.288 683.022 181.944C683.022 182.6 682.526 183.096 681.87 183.096ZM689.095 183.128C686.727 183.128 684.711 180.952 684.711 177.08C684.711 173.208 686.711 171.016 689.095 171.016C691.479 171.016 693.479 173.208 693.479 177.08C693.479 180.952 691.463 183.128 689.095 183.128ZM689.095 181.784C690.743 181.784 692.007 180.392 692.007 177.08C692.007 173.816 690.743 172.376 689.095 172.376C687.447 172.376 686.183 173.816 686.183 177.08C686.183 180.392 687.447 181.784 689.095 181.784ZM700.073 181.8H702.681V183H695.913V181.8H698.665V172.76L696.057 174.504V173.032L698.809 171.16H700.073V181.8ZM705.356 180.968H707.34V183H705.356V180.968ZM711.669 181.704H717.685V183H709.765V181.912L713.973 177.336C715.189 176.024 715.685 175.304 715.685 174.28C715.685 173.176 714.933 172.28 713.525 172.28C712.293 172.28 711.365 172.888 710.917 174.296L709.621 173.944C710.309 171.848 711.797 171.016 713.557 171.016C715.925 171.016 717.157 172.6 717.157 174.168C717.157 175.528 716.613 176.424 715.045 178.12L711.669 181.704ZM723.608 183.128C721.24 183.128 719.224 180.952 719.224 177.08C719.224 173.208 721.224 171.016 723.608 171.016C725.992 171.016 727.992 173.208 727.992 177.08C727.992 180.952 725.976 183.128 723.608 183.128ZM723.608 181.784C725.256 181.784 726.52 180.392 726.52 177.08C726.52 173.816 725.256 172.376 723.608 172.376C721.96 172.376 720.696 173.816 720.696 177.08C720.696 180.392 721.96 181.784 723.608 181.784ZM731.738 181.704H737.754V183H729.834V181.912L734.042 177.336C735.258 176.024 735.754 175.304 735.754 174.28C735.754 173.176 735.002 172.28 733.594 172.28C732.362 172.28 731.434 172.888 730.986 174.296L729.69 173.944C730.378 171.848 731.866 171.016 733.626 171.016C735.994 171.016 737.226 172.6 737.226 174.168C737.226 175.528 736.682 176.424 735.114 178.12L731.738 181.704ZM741.772 181.704H747.788V183H739.868V181.912L744.076 177.336C745.292 176.024 745.788 175.304 745.788 174.28C745.788 173.176 745.036 172.28 743.628 172.28C742.396 172.28 741.468 172.888 741.02 174.296L739.724 173.944C740.412 171.848 741.9 171.016 743.66 171.016C746.028 171.016 747.26 172.6 747.26 174.168C747.26 175.528 746.716 176.424 745.148 178.12L741.772 181.704ZM759.14 183L756.228 178.92L755.22 179.912V183H753.844V171.16H755.22V178.328L759.012 174.52H760.756L757.156 178.024L760.82 183H759.14ZM765.057 182.968C764.769 183.032 764.513 183.08 764.225 183.08C762.785 183.08 762.097 182.2 762.097 180.824V171.16H763.473V180.76C763.473 181.496 763.873 181.848 764.545 181.848C764.705 181.848 764.881 181.832 765.057 181.784V182.968ZM767.795 183.096C767.139 183.096 766.643 182.6 766.643 181.944C766.643 181.288 767.139 180.792 767.795 180.792C768.451 180.792 768.947 181.288 768.947 181.944C768.947 182.6 768.451 183.096 767.795 183.096ZM779.858 181.8H782.466V183H775.698V181.8H778.45V172.76L775.842 174.504V173.032L778.594 171.16H779.858V181.8ZM785.092 171.16H793.46V172.344L787.988 183H786.436L791.972 172.408H786.388V174.808H785.092V171.16ZM795.687 175.336H797.671V177.368H795.687V175.336ZM796.679 183.096C796.023 183.096 795.527 182.6 795.527 181.944C795.527 181.288 796.023 180.792 796.679 180.792C797.335 180.792 797.831 181.288 797.831 181.944C797.831 182.6 797.335 183.096 796.679 183.096ZM804.84 175.352C807.032 175.352 808.584 176.888 808.584 179.032C808.584 181.352 806.872 183.128 804.168 183.128C802.648 183.128 801.176 182.552 800.04 180.952L801.08 180.136C801.944 181.352 802.936 181.88 804.264 181.88C805.976 181.88 807.144 180.664 807.144 179.128C807.144 177.528 806.072 176.552 804.584 176.552C803.496 176.552 802.792 176.888 801.864 177.784L800.776 177.368L801.16 171.16H807.672V172.456H802.344L802.056 176.44C802.776 175.736 803.768 175.352 804.84 175.352ZM818.874 178.728V179.992H816.954V183H815.594V179.992H810.282V178.904L813.098 171.16H814.458L811.77 178.728H815.594V175.352L816.954 174.952V178.728H818.874Z" fill="#666666"/>
<rect width="1280" height="1" transform="matrix(1 0 0 -1 64 202)" fill="#CCCCCC"/>
</g>
<g clip-path="url(#clip3_6312_5453)">
<path d="M185 294H64V302H185V294Z" fill="#6FE9FF" mask="url(#path-21-inside-4_6312_5453)"/>
<path d="M87.856 273.648C89.216 274.096 90.096 275.2 90.096 276.624C90.096 278.336 88.88 280 86.144 280H81.392V268.16H85.904C88.4 268.16 89.536 269.552 89.536 271.152C89.536 272.16 88.96 273.232 87.856 273.648ZM85.744 269.744H83.264V273.2H85.856C87.04 273.2 87.648 272.544 87.648 271.456C87.648 270.496 87.04 269.744 85.744 269.744ZM85.968 278.416C87.456 278.416 88.096 277.648 88.096 276.576C88.096 275.424 87.344 274.752 86.064 274.752H83.264V278.416H85.968ZM97.7638 277.328L98.9798 278.032C98.4998 279.088 97.3798 280.144 95.4438 280.144C92.9318 280.144 91.4118 278.288 91.4118 275.68C91.4118 273.104 93.0598 271.328 95.3158 271.328C97.3158 271.328 98.9638 272.672 98.9638 275.072L98.9318 276.128H93.1718C93.2678 277.92 94.1478 278.688 95.5558 278.688C96.5958 278.688 97.3158 278.128 97.7638 277.328ZM95.3158 272.736C94.2278 272.736 93.3158 273.312 93.1718 274.848H97.2198C97.2358 273.344 96.3078 272.736 95.3158 272.736ZM100.526 273.856C100.526 272.416 101.854 271.328 103.854 271.328C105.502 271.328 106.606 271.92 107.198 273.056L105.95 273.824C105.566 273.168 104.798 272.768 103.838 272.768C102.878 272.768 102.222 273.136 102.222 273.744C102.222 274.24 102.558 274.544 103.31 274.688L104.734 274.976C106.526 275.328 107.422 276.176 107.422 277.472C107.422 279.072 106.03 280.144 103.934 280.144C102.158 280.144 100.894 279.472 100.238 278.24L101.486 277.456C101.95 278.24 102.766 278.688 103.886 278.688C104.974 278.688 105.71 278.256 105.71 277.552C105.71 276.976 105.358 276.656 104.574 276.496L103.006 276.192C101.406 275.888 100.526 275.072 100.526 273.856ZM114.587 280L112.011 276.112L111.035 277.072V280H109.243V268.16H111.035V275.04L114.459 271.52H116.667L113.195 274.944L116.731 280H114.587ZM122.009 271.328C123.241 271.328 124.041 272.144 124.041 273.6V274.72L122.601 274.976V274.112C122.601 273.344 122.329 272.816 121.497 272.816C120.585 272.816 119.913 273.424 119.913 275.04V280H118.121V271.52H119.913V272.656C120.393 271.712 121.273 271.328 122.009 271.328ZM126.708 270.112C126.004 270.112 125.444 269.568 125.444 268.848C125.444 268.128 126.004 267.584 126.708 267.584C127.412 267.584 127.956 268.128 127.956 268.848C127.956 269.568 127.412 270.112 126.708 270.112ZM125.812 280V271.52H127.604V280H125.812ZM135.551 271.52H137.407L134.159 280H132.319L129.087 271.52H131.071L133.311 278.128L135.551 271.52ZM144.314 277.328L145.53 278.032C145.05 279.088 143.93 280.144 141.994 280.144C139.482 280.144 137.962 278.288 137.962 275.68C137.962 273.104 139.61 271.328 141.866 271.328C143.866 271.328 145.514 272.672 145.514 275.072L145.482 276.128H139.722C139.818 277.92 140.698 278.688 142.106 278.688C143.146 278.688 143.866 278.128 144.314 277.328ZM141.866 272.736C140.778 272.736 139.866 273.312 139.722 274.848H143.77C143.786 273.344 142.858 272.736 141.866 272.736ZM150.932 279.952C150.596 280.048 150.26 280.096 149.908 280.096C148.292 280.096 147.524 279.136 147.524 277.584V268.16H149.316V277.456C149.316 278.192 149.748 278.528 150.404 278.528C150.564 278.528 150.74 278.512 150.932 278.464V279.952ZM152.173 273.856C152.173 272.416 153.501 271.328 155.501 271.328C157.149 271.328 158.253 271.92 158.845 273.056L157.597 273.824C157.213 273.168 156.445 272.768 155.485 272.768C154.525 272.768 153.869 273.136 153.869 273.744C153.869 274.24 154.205 274.544 154.957 274.688L156.381 274.976C158.173 275.328 159.069 276.176 159.069 277.472C159.069 279.072 157.677 280.144 155.581 280.144C153.805 280.144 152.541 279.472 151.885 278.24L153.133 277.456C153.597 278.24 154.413 278.688 155.533 278.688C156.621 278.688 157.357 278.256 157.357 277.552C157.357 276.976 157.005 276.656 156.221 276.496L154.653 276.192C153.053 275.888 152.173 275.072 152.173 273.856ZM166.542 277.328L167.758 278.032C167.278 279.088 166.158 280.144 164.222 280.144C161.71 280.144 160.19 278.288 160.19 275.68C160.19 273.104 161.838 271.328 164.094 271.328C166.094 271.328 167.742 272.672 167.742 275.072L167.71 276.128H161.95C162.046 277.92 162.926 278.688 164.334 278.688C165.374 278.688 166.094 278.128 166.542 277.328ZM164.094 272.736C163.006 272.736 162.094 273.312 161.95 274.848H165.998C166.014 273.344 165.086 272.736 164.094 272.736Z" fill="#2A2859"/>
<path d="M209.352 280L205.176 274.416L203.832 275.856V280H202.408V268.16H203.832V274.048L209.288 268.16H211.08L206.104 273.44L211.144 280H209.352ZM215.097 280.144C212.953 280.144 211.209 278.416 211.209 275.728C211.209 273.088 212.937 271.36 215.097 271.36C217.241 271.36 218.969 273.088 218.969 275.728C218.969 278.416 217.225 280.144 215.097 280.144ZM215.097 278.944C216.441 278.944 217.545 277.888 217.545 275.728C217.545 273.568 216.425 272.56 215.097 272.56C213.753 272.56 212.633 273.568 212.633 275.728C212.633 277.888 213.737 278.944 215.097 278.944ZM226.689 268.16H228.065V280H226.689V278.416C226.097 279.552 224.993 280.112 223.953 280.112C221.841 280.112 220.369 278.336 220.369 275.824C220.369 273.184 221.857 271.376 224.113 271.376C225.201 271.376 226.177 271.888 226.689 272.976V268.16ZM224.209 278.912C225.745 278.912 226.689 277.808 226.689 275.76C226.689 273.648 225.761 272.528 224.225 272.528C222.785 272.528 221.793 273.648 221.793 275.76C221.793 277.792 222.785 278.912 224.209 278.912ZM236.302 277.488L237.278 278.032C236.83 279.088 235.758 280.144 233.854 280.144C231.406 280.144 229.95 278.32 229.95 275.664C229.95 273.136 231.502 271.36 233.726 271.36C235.614 271.36 237.23 272.688 237.23 275.04L237.198 276.016H231.326C231.422 278.096 232.43 278.976 233.966 278.976C235.134 278.976 235.886 278.304 236.302 277.488ZM233.726 272.512C232.526 272.512 231.486 273.136 231.326 274.944H235.886C235.902 273.232 234.862 272.512 233.726 272.512Z" fill="#666666"/>
<path d="M276.648 280.144C273.64 280.144 272.296 278.288 272.296 275.808V268.16H273.704V275.76C273.704 277.856 274.824 278.816 276.648 278.816C278.472 278.816 279.592 277.856 279.592 275.76V268.16H281V275.808C281 278.288 279.624 280.144 276.648 280.144ZM287.281 271.36C288.993 271.36 290.001 272.432 290.001 274.32V280H288.625V274.528C288.625 273.136 287.985 272.592 286.881 272.592C285.489 272.592 284.817 273.632 284.817 275.296V280H283.441V271.52H284.817V272.784C285.361 271.872 286.241 271.36 287.281 271.36ZM293.116 270.032C292.508 270.032 292.028 269.568 292.028 268.944C292.028 268.336 292.508 267.872 293.116 267.872C293.708 267.872 294.188 268.336 294.188 268.944C294.188 269.568 293.708 270.032 293.116 270.032ZM292.428 280V271.52H293.804V280H292.428ZM301.761 271.52H303.185L299.889 280H298.561L295.281 271.52H296.785L299.281 278.528L301.761 271.52ZM310.118 277.488L311.094 278.032C310.646 279.088 309.574 280.144 307.67 280.144C305.222 280.144 303.766 278.32 303.766 275.664C303.766 273.136 305.318 271.36 307.542 271.36C309.43 271.36 311.046 272.688 311.046 275.04L311.014 276.016H305.142C305.238 278.096 306.246 278.976 307.782 278.976C308.95 278.976 309.702 278.304 310.118 277.488ZM307.542 272.512C306.342 272.512 305.302 273.136 305.142 274.944H309.702C309.718 273.232 308.678 272.512 307.542 272.512ZM316.486 271.36C317.638 271.36 318.438 272.128 318.438 273.584V274.528L317.254 274.752V273.904C317.254 273.088 316.982 272.544 316.134 272.544C315.174 272.544 314.47 273.216 314.47 274.896V280H313.094V271.52H314.47V272.608C314.934 271.744 315.734 271.36 316.486 271.36ZM319.603 273.776C319.603 272.4 320.899 271.36 322.771 271.36C324.339 271.36 325.491 272.048 325.939 273.168L324.899 273.696C324.547 272.944 323.779 272.528 322.739 272.528C321.651 272.528 320.931 272.96 320.931 273.68C320.931 274.304 321.331 274.672 322.243 274.864L323.475 275.104C325.315 275.472 326.195 276.288 326.195 277.568C326.195 279.088 324.851 280.128 322.867 280.128C321.139 280.128 319.907 279.456 319.299 278.208L320.355 277.648C320.787 278.512 321.635 278.976 322.835 278.976C324.051 278.976 324.867 278.448 324.867 277.648C324.867 276.944 324.451 276.56 323.475 276.352L322.019 276.064C320.451 275.744 319.603 274.944 319.603 273.776ZM333.799 277.488L334.775 278.032C334.327 279.088 333.255 280.144 331.351 280.144C328.903 280.144 327.447 278.32 327.447 275.664C327.447 273.136 328.999 271.36 331.223 271.36C333.111 271.36 334.727 272.688 334.727 275.04L334.695 276.016H328.823C328.919 278.096 329.927 278.976 331.463 278.976C332.631 278.976 333.383 278.304 333.799 277.488ZM331.223 272.512C330.023 272.512 328.983 273.136 328.823 274.944H333.383C333.399 273.232 332.359 272.512 331.223 272.512ZM339.735 279.968C339.447 280.032 339.191 280.08 338.903 280.08C337.463 280.08 336.775 279.2 336.775 277.824V268.16H338.151V277.76C338.151 278.496 338.551 278.848 339.223 278.848C339.383 278.848 339.559 278.832 339.735 278.784V279.968ZM344.441 279.968C344.153 280.032 343.897 280.08 343.609 280.08C342.169 280.08 341.481 279.2 341.481 277.824V268.16H342.857V277.76C342.857 278.496 343.257 278.848 343.929 278.848C344.089 278.848 344.265 278.832 344.441 278.784V279.968ZM355.073 271.52H356.449V280H355.073V278.72C354.561 279.632 353.665 280.128 352.625 280.128C350.929 280.128 349.921 279.04 349.921 277.2V271.52H351.297V277.04C351.297 278.304 351.937 278.928 353.041 278.928C354.433 278.928 355.073 277.856 355.073 276.192V271.52ZM360.85 277.68C360.85 278.656 361.442 278.944 361.986 278.944C362.482 278.944 362.834 278.752 363.218 278.352L363.874 279.2C363.282 279.856 362.626 280.128 361.81 280.128C360.53 280.128 359.474 279.312 359.474 277.712V272.624H357.922V271.52H359.474V269.664L360.85 268.96V271.52H363.698V272.624H360.85V277.68ZM367.15 270.512V271.52H369.518V272.624H367.15V280H365.774V272.624H364.222V271.52H365.774V270.544C365.774 268.912 366.83 267.984 368.286 267.984C368.974 267.984 369.71 268.256 370.126 268.88L369.39 269.744C369.134 269.392 368.75 269.168 368.318 269.168C367.726 269.168 367.15 269.536 367.15 270.512ZM373.81 280.144C371.666 280.144 369.922 278.416 369.922 275.728C369.922 273.088 371.65 271.36 373.81 271.36C375.954 271.36 377.682 273.088 377.682 275.728C377.682 278.416 375.938 280.144 373.81 280.144ZM373.81 278.944C375.154 278.944 376.258 277.888 376.258 275.728C376.258 273.568 375.138 272.56 373.81 272.56C372.466 272.56 371.346 273.568 371.346 275.728C371.346 277.888 372.45 278.944 373.81 278.944ZM383.017 271.36C384.169 271.36 384.969 272.128 384.969 273.584V274.528L383.785 274.752V273.904C383.785 273.088 383.513 272.544 382.665 272.544C381.705 272.544 381.001 273.216 381.001 274.896V280H379.625V271.52H381.001V272.608C381.465 271.744 382.265 271.36 383.017 271.36ZM395.694 271.36C397.342 271.36 398.302 272.416 398.302 274.192V280H396.926V274.4C396.926 273.136 396.318 272.592 395.294 272.592C393.902 272.592 393.278 273.616 393.278 275.296V280H391.902V274.4C391.902 273.136 391.294 272.592 390.254 272.592C388.878 272.592 388.254 273.616 388.254 275.296V280H386.878V271.52H388.254V272.784C388.798 271.856 389.646 271.36 390.67 271.36C391.934 271.36 392.798 271.984 393.118 273.072C393.646 271.952 394.59 271.36 395.694 271.36ZM400.469 268.064H402.357V269.92H400.469V268.064ZM400.725 280V271.52H402.101V280H400.725ZM408.49 271.36C410.202 271.36 411.21 272.432 411.21 274.32V280H409.834V274.528C409.834 273.136 409.194 272.592 408.09 272.592C406.698 272.592 406.026 273.632 406.026 275.296V280H404.65V271.52H406.026V272.784C406.57 271.872 407.45 271.36 408.49 271.36ZM421.462 272.624H419.67V272.88C420.022 273.344 420.214 273.904 420.214 274.48C420.214 276.016 419.078 277.584 416.662 277.584H416.262C415.35 277.584 414.71 277.92 414.71 278.464C414.71 278.864 415.03 279.152 415.654 279.152H419.142C420.55 279.152 421.302 279.856 421.302 280.944C421.302 282.656 419.43 283.584 416.87 283.584C414.582 283.584 413.03 282.928 412.55 281.376L413.782 280.992C414.294 282.24 415.414 282.512 416.886 282.512C418.614 282.512 419.958 282.016 419.958 281.088C419.958 280.656 419.734 280.336 419.03 280.336H415.302C414.054 280.336 413.366 279.712 413.366 278.816C413.366 278.016 414.054 277.344 415.094 277.104C413.958 276.624 413.35 275.488 413.35 274.464C413.35 272.944 414.518 271.36 416.806 271.36C417.75 271.36 418.486 271.696 418.982 272.16V271.52H421.462V272.624ZM416.806 276.528C418.198 276.528 418.87 275.552 418.87 274.464C418.87 273.392 418.198 272.464 416.806 272.464C415.398 272.464 414.71 273.392 414.71 274.464C414.71 275.552 415.398 276.528 416.806 276.528Z" fill="#666666"/>
<rect width="1280" height="1" transform="matrix(1 0 0 -1 64 299)" fill="#CCCCCC"/>
</g>
<defs>
<clipPath id="clip0_6312_5453">
<rect width="1280" height="49" fill="white" transform="translate(64 56)"/>
</clipPath>
<clipPath id="clip1_6312_5453">
<rect width="20" height="20" fill="white" transform="translate(555 70)"/>
</clipPath>
<clipPath id="clip2_6312_5453">
<rect width="1280" height="49" fill="white" transform="translate(64 153)"/>
</clipPath>
<clipPath id="clip3_6312_5453">
<rect width="1280" height="49" fill="white" transform="translate(64 250)"/>
</clipPath>
</defs>
</svg>
