<svg width="1116" height="416" viewBox="0 0 1116 416" fill="none" xmlns="http://www.w3.org/2000/svg">
<g clip-path="url(#clip0_6382_9114)">
<rect width="1116" height="416" fill="white"/>
<mask id="path-1-inside-1_6382_9114" fill="white">
<path d="M0 55H552V416H0V55Z"/>
</mask>
<path d="M0 55H552V416H0V55Z" fill="white"/>
<path d="M552 416V417H553V416H552ZM0 416H-1V417H0V416ZM551 55V416H553V55H551ZM552 415H0V417H552V415ZM1 416V55H-1V416H1Z" fill="#E6E6E6" mask="url(#path-1-inside-1_6382_9114)"/>
<mask id="path-3-inside-2_6382_9114" fill="white">
<path d="M563 55H1116V416H563V55Z"/>
</mask>
<path d="M563 55H1116V416H563V55Z" fill="white"/>
<path d="M1116 416V417H1117V416H1116ZM563 416H562V417H563V416ZM1115 55V416H1117V55H1115ZM1116 415H563V417H1116V415ZM564 416V55H562V416H564Z" fill="#E6E6E6" mask="url(#path-3-inside-2_6382_9114)"/>
<g clip-path="url(#clip1_6382_9114)">
<path d="M828 231H581V239H828V231Z" fill="#6FE9FF" mask="url(#path-5-inside-3_6382_9114)"/>
<path d="M603.096 217.16C600.152 217.16 597.768 214.888 597.768 210.968C597.768 207.272 600.152 205 603.096 205C606.04 205 608.424 207.272 608.424 210.968C608.424 214.888 606.04 217.16 603.096 217.16ZM603.096 215.4C604.92 215.4 606.472 213.976 606.472 210.984C606.472 208.072 604.968 206.76 603.096 206.76C601.224 206.76 599.72 208.072 599.72 210.984C599.72 213.976 601.272 215.4 603.096 215.4ZM615.535 208.52H617.391L614.143 217H612.303L609.071 208.52H611.055L613.295 215.128L615.535 208.52ZM624.298 214.328L625.514 215.032C625.034 216.088 623.914 217.144 621.978 217.144C619.466 217.144 617.946 215.288 617.946 212.68C617.946 210.104 619.594 208.328 621.85 208.328C623.85 208.328 625.498 209.672 625.498 212.072L625.466 213.128H619.706C619.802 214.92 620.682 215.688 622.09 215.688C623.13 215.688 623.85 215.128 624.298 214.328ZM621.85 209.736C620.762 209.736 619.85 210.312 619.706 211.848H623.754C623.77 210.344 622.842 209.736 621.85 209.736ZM631.396 208.328C632.628 208.328 633.429 209.144 633.429 210.6V211.72L631.989 211.976V211.112C631.989 210.344 631.716 209.816 630.885 209.816C629.972 209.816 629.3 210.424 629.3 212.04V217H627.508V208.52H629.3V209.656C629.78 208.712 630.661 208.328 631.396 208.328ZM634.532 210.856C634.532 209.416 635.86 208.328 637.86 208.328C639.508 208.328 640.612 208.92 641.204 210.056L639.956 210.824C639.572 210.168 638.804 209.768 637.844 209.768C636.884 209.768 636.228 210.136 636.228 210.744C636.228 211.24 636.564 211.544 637.316 211.688L638.74 211.976C640.532 212.328 641.428 213.176 641.428 214.472C641.428 216.072 640.036 217.144 637.94 217.144C636.164 217.144 634.9 216.472 634.244 215.24L635.492 214.456C635.956 215.24 636.772 215.688 637.892 215.688C638.98 215.688 639.716 215.256 639.716 214.552C639.716 213.976 639.364 213.656 638.58 213.496L637.012 213.192C635.412 212.888 634.532 212.072 634.532 210.856ZM644.145 207.112C643.441 207.112 642.881 206.568 642.881 205.848C642.881 205.128 643.441 204.584 644.145 204.584C644.849 204.584 645.393 205.128 645.393 205.848C645.393 206.568 644.849 207.112 644.145 207.112ZM643.249 217V208.52H645.041V217H643.249ZM652.924 217L650.348 213.112L649.372 214.072V217H647.58V205.16H649.372V212.04L652.796 208.52H655.004L651.532 211.944L655.068 217H652.924ZM658.593 214.376C658.593 215.32 659.169 215.608 659.761 215.608C660.225 215.608 660.593 215.416 660.961 215.048L661.729 216.2C661.089 216.84 660.385 217.144 659.473 217.144C658.001 217.144 656.801 216.248 656.801 214.488V209.912H655.313V208.52H656.801V206.632L658.593 205.816V208.52H661.585V209.912H658.593V214.376ZM670.64 217.16C668.432 217.16 666.624 215.432 666.624 212.712C666.624 210.056 668.416 208.328 670.64 208.328C672.864 208.328 674.656 210.056 674.656 212.712C674.656 215.432 672.848 217.16 670.64 217.16ZM670.64 215.64C671.84 215.64 672.816 214.712 672.816 212.712C672.816 210.696 671.824 209.848 670.64 209.848C669.456 209.848 668.464 210.696 668.464 212.712C668.464 214.712 669.456 215.64 670.64 215.64ZM681.688 208.52H683.544L680.296 217H678.456L675.224 208.52H677.208L679.448 215.128L681.688 208.52ZM690.451 214.328L691.667 215.032C691.187 216.088 690.067 217.144 688.131 217.144C685.619 217.144 684.099 215.288 684.099 212.68C684.099 210.104 685.747 208.328 688.003 208.328C690.003 208.328 691.651 209.672 691.651 212.072L691.619 213.128H685.859C685.955 214.92 686.835 215.688 688.243 215.688C689.283 215.688 690.003 215.128 690.451 214.328ZM688.003 209.736C686.915 209.736 686.003 210.312 685.859 211.848H689.907C689.923 210.344 688.995 209.736 688.003 209.736ZM697.55 208.328C698.782 208.328 699.582 209.144 699.582 210.6V211.72L698.142 211.976V211.112C698.142 210.344 697.87 209.816 697.038 209.816C696.126 209.816 695.454 210.424 695.454 212.04V217H693.662V208.52H695.454V209.656C695.934 208.712 696.814 208.328 697.55 208.328ZM710.988 205.16H712.78V217H710.988V215.464C710.332 216.648 709.308 217.128 708.332 217.128C706.284 217.128 704.812 215.368 704.812 212.792C704.812 210.12 706.3 208.344 708.54 208.344C709.5 208.344 710.46 208.776 710.988 209.816V205.16ZM708.812 215.56C710.108 215.56 710.988 214.68 710.988 212.696C710.988 210.728 710.124 209.784 708.812 209.784C707.58 209.784 706.668 210.776 706.668 212.696C706.668 214.6 707.58 215.56 708.812 215.56ZM714.901 204.84H717.093V207H714.901V204.84ZM715.109 217V208.52H716.901V217H715.109ZM723.712 208.328C725.44 208.328 726.464 209.448 726.464 211.288V217H724.672V211.576C724.672 210.408 724.112 209.88 723.136 209.88C721.872 209.88 721.232 210.76 721.232 212.408V217H719.44V208.52H721.232V209.736C721.808 208.84 722.656 208.328 723.712 208.328ZM734.689 214.328L735.905 215.032C735.425 216.088 734.305 217.144 732.369 217.144C729.857 217.144 728.337 215.288 728.337 212.68C728.337 210.104 729.985 208.328 732.241 208.328C734.241 208.328 735.889 209.672 735.889 212.072L735.857 213.128H730.097C730.193 214.92 731.073 215.688 732.481 215.688C733.521 215.688 734.241 215.128 734.689 214.328ZM732.241 209.736C731.153 209.736 730.241 210.312 730.097 211.848H734.145C734.161 210.344 733.233 209.736 732.241 209.736ZM741.345 210.856C741.345 209.416 742.673 208.328 744.673 208.328C746.321 208.328 747.425 208.92 748.017 210.056L746.769 210.824C746.385 210.168 745.617 209.768 744.657 209.768C743.697 209.768 743.041 210.136 743.041 210.744C743.041 211.24 743.377 211.544 744.129 211.688L745.553 211.976C747.345 212.328 748.241 213.176 748.241 214.472C748.241 216.072 746.849 217.144 744.753 217.144C742.977 217.144 741.713 216.472 741.057 215.24L742.305 214.456C742.769 215.24 743.585 215.688 744.705 215.688C745.793 215.688 746.529 215.256 746.529 214.552C746.529 213.976 746.177 213.656 745.393 213.496L743.825 213.192C742.225 212.888 741.345 212.072 741.345 210.856ZM755.634 209.032C756.706 209.768 757.394 211.064 757.394 212.712C757.394 215.432 755.586 217.16 753.378 217.16C752.818 217.16 752.29 217.048 751.794 216.84L751.298 217.864H750.386L751.09 216.44C750.05 215.688 749.362 214.392 749.362 212.712C749.362 210.056 751.154 208.328 753.378 208.328C753.938 208.328 754.45 208.44 754.93 208.632L755.426 207.64H756.322L755.634 209.032ZM751.202 212.712C751.202 213.704 751.442 214.44 751.842 214.92L754.242 210.024C753.986 209.912 753.682 209.848 753.378 209.848C752.194 209.848 751.202 210.696 751.202 212.712ZM753.378 215.64C754.578 215.64 755.554 214.712 755.554 212.712C755.554 211.704 755.298 210.984 754.914 210.52L752.482 215.448C752.754 215.576 753.058 215.64 753.378 215.64ZM764.596 217L762.02 213.112L761.044 214.072V217H759.252V205.16H761.044V212.04L764.468 208.52H766.676L763.204 211.944L766.74 217H764.596ZM772.402 208.328C774.13 208.328 775.154 209.448 775.154 211.288V217H773.362V211.576C773.362 210.408 772.802 209.88 771.826 209.88C770.562 209.88 769.922 210.76 769.922 212.408V217H768.13V208.52H769.922V209.736C770.498 208.84 771.346 208.328 772.402 208.328ZM784.387 217H782.739C782.611 216.568 782.531 216.056 782.499 215.4C782.099 216.28 781.203 217.144 779.731 217.144C778.195 217.144 777.107 216.104 777.107 214.632C777.107 212.792 778.739 211.88 780.563 211.88C781.139 211.88 781.683 211.928 782.275 212.088V211.288C782.275 210.376 781.699 209.784 780.659 209.784C779.683 209.784 778.995 210.312 778.675 211.304L777.155 210.84C777.763 209.048 779.219 208.328 780.739 208.328C782.995 208.328 784.019 209.656 784.019 211.272V214.552C784.019 215.56 784.179 216.456 784.387 217ZM782.275 213.496V213.304C781.763 213.128 781.267 213.064 780.739 213.064C779.683 213.064 778.867 213.544 778.867 214.472C778.867 215.256 779.427 215.752 780.275 215.752C781.139 215.752 782.275 215.24 782.275 213.496ZM791.91 205.16H793.702V217H791.91V215.464C791.254 216.648 790.23 217.128 789.254 217.128C787.206 217.128 785.734 215.368 785.734 212.792C785.734 210.12 787.222 208.344 789.462 208.344C790.422 208.344 791.382 208.776 791.91 209.816V205.16ZM789.734 215.56C791.03 215.56 791.91 214.68 791.91 212.696C791.91 210.728 791.046 209.784 789.734 209.784C788.502 209.784 787.59 210.776 787.59 212.696C787.59 214.6 788.502 215.56 789.734 215.56ZM801.854 214.328L803.07 215.032C802.59 216.088 801.47 217.144 799.534 217.144C797.022 217.144 795.502 215.288 795.502 212.68C795.502 210.104 797.15 208.328 799.406 208.328C801.406 208.328 803.054 209.672 803.054 212.072L803.022 213.128H797.262C797.358 214.92 798.238 215.688 799.646 215.688C800.686 215.688 801.406 215.128 801.854 214.328ZM799.406 209.736C798.318 209.736 797.406 210.312 797.262 211.848H801.31C801.326 210.344 800.398 209.736 799.406 209.736ZM808.953 208.328C810.185 208.328 810.985 209.144 810.985 210.6V211.72L809.545 211.976V211.112C809.545 210.344 809.273 209.816 808.441 209.816C807.529 209.816 806.857 210.424 806.857 212.04V217H805.065V208.52H806.857V209.656C807.337 208.712 808.217 208.328 808.953 208.328Z" fill="#2A2859"/>
<path d="M845.152 208.36C845.152 206.328 847.008 205.016 849.2 205.016C851.104 205.016 852.496 205.784 853.216 207.304L851.968 207.944C851.472 206.888 850.4 206.28 849.184 206.28C847.648 206.28 846.592 207.032 846.592 208.232C846.592 209.224 847.184 209.848 848.48 210.088L850.32 210.408C852.256 210.744 853.632 211.784 853.632 213.608C853.632 215.512 852.032 217.144 849.344 217.144C847.312 217.144 845.712 216.44 844.816 214.696L846.064 214.04C846.832 215.528 848.144 215.864 849.36 215.864C851.152 215.864 852.176 214.872 852.176 213.672C852.176 212.424 851.344 212.008 850.032 211.768L848.192 211.448C846.448 211.144 845.152 210.152 845.152 208.36ZM861.483 214.488L862.459 215.032C862.011 216.088 860.939 217.144 859.035 217.144C856.587 217.144 855.131 215.32 855.131 212.664C855.131 210.136 856.683 208.36 858.907 208.36C860.795 208.36 862.411 209.688 862.411 212.04L862.379 213.016H856.507C856.603 215.096 857.611 215.976 859.147 215.976C860.315 215.976 861.067 215.304 861.483 214.488ZM858.907 209.512C857.707 209.512 856.667 210.136 856.507 211.944H861.067C861.083 210.232 860.043 209.512 858.907 209.512ZM874.129 205.16H875.505V217H874.129V215.416C873.537 216.552 872.433 217.112 871.393 217.112C869.281 217.112 867.809 215.336 867.809 212.824C867.809 210.184 869.297 208.376 871.553 208.376C872.641 208.376 873.617 208.888 874.129 209.976V205.16ZM871.649 215.912C873.185 215.912 874.129 214.808 874.129 212.76C874.129 210.648 873.201 209.528 871.665 209.528C870.225 209.528 869.233 210.648 869.233 212.76C869.233 214.792 870.225 215.912 871.649 215.912ZM878.623 207.032C878.015 207.032 877.535 206.568 877.535 205.944C877.535 205.336 878.015 204.872 878.623 204.872C879.215 204.872 879.695 205.336 879.695 205.944C879.695 206.568 879.215 207.032 878.623 207.032ZM877.935 217V208.52H879.311V217H877.935ZM885.7 208.36C887.412 208.36 888.42 209.432 888.42 211.32V217H887.044V211.528C887.044 210.136 886.404 209.592 885.3 209.592C883.908 209.592 883.236 210.632 883.236 212.296V217H881.86V208.52H883.236V209.784C883.78 208.872 884.66 208.36 885.7 208.36ZM896.655 214.488L897.631 215.032C897.183 216.088 896.111 217.144 894.207 217.144C891.759 217.144 890.303 215.32 890.303 212.664C890.303 210.136 891.855 208.36 894.079 208.36C895.967 208.36 897.583 209.688 897.583 212.04L897.551 213.016H891.679C891.775 215.096 892.783 215.976 894.319 215.976C895.487 215.976 896.239 215.304 896.655 214.488ZM894.079 209.512C892.879 209.512 891.839 210.136 891.679 211.944H896.239C896.255 210.232 895.215 209.512 894.079 209.512ZM907.653 208.376C909.765 208.376 911.237 210.168 911.237 212.68C911.237 215.304 909.749 217.128 907.493 217.128C906.405 217.128 905.429 216.616 904.917 215.528V217H903.541V205.16H904.917V210.072C905.509 208.936 906.613 208.376 907.653 208.376ZM907.381 215.96C908.821 215.96 909.813 214.84 909.813 212.744C909.813 210.696 908.821 209.576 907.397 209.576C905.861 209.576 904.917 210.696 904.917 212.728C904.917 214.84 905.845 215.96 907.381 215.96ZM919.713 217H918.449C918.321 216.552 918.225 216.024 918.225 215.368C917.793 216.312 916.785 217.144 915.377 217.144C913.857 217.144 912.737 216.136 912.737 214.664C912.737 212.856 914.321 211.944 916.113 211.944C916.753 211.944 917.377 212.008 918.017 212.216V211.256C918.017 210.232 917.393 209.544 916.177 209.544C915.169 209.544 914.353 210.04 913.953 211.208L912.769 210.84C913.393 209.048 914.753 208.36 916.257 208.36C918.417 208.36 919.361 209.656 919.361 211.176V214.584C919.361 215.56 919.521 216.44 919.713 217ZM918.017 213.496V213.288C917.425 213.048 916.817 212.984 916.225 212.984C915.025 212.984 914.097 213.528 914.097 214.568C914.097 215.496 914.753 216.024 915.713 216.024C916.721 216.024 918.017 215.416 918.017 213.496ZM925.267 208.36C926.419 208.36 927.219 209.128 927.219 210.584V211.528L926.035 211.752V210.904C926.035 210.088 925.763 209.544 924.915 209.544C923.955 209.544 923.251 210.216 923.251 211.896V217H921.875V208.52H923.251V209.608C923.715 208.744 924.515 208.36 925.267 208.36ZM932.968 208.36C934.68 208.36 935.688 209.432 935.688 211.32V217H934.312V211.528C934.312 210.136 933.672 209.592 932.568 209.592C931.176 209.592 930.504 210.632 930.504 212.296V217H929.128V208.52H930.504V209.784C931.048 208.872 931.928 208.36 932.968 208.36ZM943.924 214.488L944.9 215.032C944.452 216.088 943.38 217.144 941.476 217.144C939.028 217.144 937.572 215.32 937.572 212.664C937.572 210.136 939.124 208.36 941.348 208.36C943.236 208.36 944.852 209.688 944.852 212.04L944.82 213.016H938.948C939.044 215.096 940.052 215.976 941.588 215.976C942.756 215.976 943.508 215.304 943.924 214.488ZM941.348 209.512C940.148 209.512 939.108 210.136 938.948 211.944H943.508C943.524 210.232 942.484 209.512 941.348 209.512ZM950.772 208.36C952.484 208.36 953.492 209.432 953.492 211.32V217H952.116V211.528C952.116 210.136 951.46 209.592 950.372 209.592C948.964 209.592 948.292 210.632 948.292 212.296V217H946.916V205.16H948.292V209.8C948.836 208.872 949.732 208.36 950.772 208.36ZM962.431 217H961.167C961.039 216.552 960.943 216.024 960.943 215.368C960.511 216.312 959.503 217.144 958.095 217.144C956.575 217.144 955.455 216.136 955.455 214.664C955.455 212.856 957.039 211.944 958.831 211.944C959.471 211.944 960.095 212.008 960.735 212.216V211.256C960.735 210.232 960.111 209.544 958.895 209.544C957.887 209.544 957.071 210.04 956.671 211.208L955.487 210.84C956.111 209.048 957.471 208.36 958.975 208.36C961.135 208.36 962.079 209.656 962.079 211.176V214.584C962.079 215.56 962.239 216.44 962.431 217ZM960.735 213.496V213.288C960.143 213.048 959.535 212.984 958.943 212.984C957.743 212.984 956.815 213.528 956.815 214.568C956.815 215.496 957.471 216.024 958.431 216.024C959.439 216.024 960.735 215.416 960.735 213.496ZM972.262 209.624H970.47V209.88C970.822 210.344 971.014 210.904 971.014 211.48C971.014 213.016 969.878 214.584 967.462 214.584H967.062C966.15 214.584 965.51 214.92 965.51 215.464C965.51 215.864 965.83 216.152 966.454 216.152H969.942C971.35 216.152 972.102 216.856 972.102 217.944C972.102 219.656 970.23 220.584 967.67 220.584C965.382 220.584 963.83 219.928 963.35 218.376L964.582 217.992C965.094 219.24 966.214 219.512 967.686 219.512C969.414 219.512 970.758 219.016 970.758 218.088C970.758 217.656 970.534 217.336 969.83 217.336H966.102C964.854 217.336 964.166 216.712 964.166 215.816C964.166 215.016 964.854 214.344 965.894 214.104C964.758 213.624 964.15 212.488 964.15 211.464C964.15 209.944 965.318 208.36 967.606 208.36C968.55 208.36 969.286 208.696 969.782 209.16V208.52H972.262V209.624ZM967.606 213.528C968.998 213.528 969.67 212.552 969.67 211.464C969.67 210.392 968.998 209.464 967.606 209.464C966.198 209.464 965.51 210.392 965.51 211.464C965.51 212.552 966.198 213.528 967.606 213.528ZM978.905 214.488L979.881 215.032C979.433 216.088 978.361 217.144 976.457 217.144C974.009 217.144 972.553 215.32 972.553 212.664C972.553 210.136 974.105 208.36 976.329 208.36C978.217 208.36 979.833 209.688 979.833 212.04L979.801 213.016H973.929C974.025 215.096 975.033 215.976 976.569 215.976C977.737 215.976 978.489 215.304 978.905 214.488ZM976.329 209.512C975.129 209.512 974.089 210.136 973.929 211.944H978.489C978.505 210.232 977.465 209.512 976.329 209.512ZM985.274 208.36C986.426 208.36 987.226 209.128 987.226 210.584V211.528L986.042 211.752V210.904C986.042 210.088 985.77 209.544 984.922 209.544C983.962 209.544 983.258 210.216 983.258 211.896V217H981.882V208.52H983.258V209.608C983.722 208.744 984.522 208.36 985.274 208.36ZM996.372 217.144C994.228 217.144 992.484 215.416 992.484 212.728C992.484 210.088 994.212 208.36 996.372 208.36C998.516 208.36 1000.24 210.088 1000.24 212.728C1000.24 215.416 998.5 217.144 996.372 217.144ZM996.372 215.944C997.716 215.944 998.82 214.888 998.82 212.728C998.82 210.568 997.7 209.56 996.372 209.56C995.028 209.56 993.908 210.568 993.908 212.728C993.908 214.888 995.012 215.944 996.372 215.944ZM1009.59 209.624H1007.8V209.88C1008.15 210.344 1008.34 210.904 1008.34 211.48C1008.34 213.016 1007.21 214.584 1004.79 214.584H1004.39C1003.48 214.584 1002.84 214.92 1002.84 215.464C1002.84 215.864 1003.16 216.152 1003.78 216.152H1007.27C1008.68 216.152 1009.43 216.856 1009.43 217.944C1009.43 219.656 1007.56 220.584 1005 220.584C1002.71 220.584 1001.16 219.928 1000.68 218.376L1001.91 217.992C1002.42 219.24 1003.54 219.512 1005.01 219.512C1006.74 219.512 1008.09 219.016 1008.09 218.088C1008.09 217.656 1007.86 217.336 1007.16 217.336H1003.43C1002.18 217.336 1001.49 216.712 1001.49 215.816C1001.49 215.016 1002.18 214.344 1003.22 214.104C1002.09 213.624 1001.48 212.488 1001.48 211.464C1001.48 209.944 1002.65 208.36 1004.93 208.36C1005.88 208.36 1006.61 208.696 1007.11 209.16V208.52H1009.59V209.624ZM1004.93 213.528C1006.33 213.528 1007 212.552 1007 211.464C1007 210.392 1006.33 209.464 1004.93 209.464C1003.53 209.464 1002.84 210.392 1002.84 211.464C1002.84 212.552 1003.53 213.528 1004.93 213.528ZM1014.5 210.776C1014.5 209.4 1015.79 208.36 1017.66 208.36C1019.23 208.36 1020.38 209.048 1020.83 210.168L1019.79 210.696C1019.44 209.944 1018.67 209.528 1017.63 209.528C1016.54 209.528 1015.82 209.96 1015.82 210.68C1015.82 211.304 1016.22 211.672 1017.14 211.864L1018.37 212.104C1020.21 212.472 1021.09 213.288 1021.09 214.568C1021.09 216.088 1019.74 217.128 1017.76 217.128C1016.03 217.128 1014.8 216.456 1014.19 215.208L1015.25 214.648C1015.68 215.512 1016.53 215.976 1017.73 215.976C1018.94 215.976 1019.76 215.448 1019.76 214.648C1019.76 213.944 1019.34 213.56 1018.37 213.352L1016.91 213.064C1015.34 212.744 1014.5 211.944 1014.5 210.776ZM1024.79 214.68C1024.79 215.656 1025.38 215.944 1025.93 215.944C1026.42 215.944 1026.77 215.752 1027.16 215.352L1027.81 216.2C1027.22 216.856 1026.57 217.128 1025.75 217.128C1024.47 217.128 1023.41 216.312 1023.41 214.712V209.624H1021.86V208.52H1023.41V206.664L1024.79 205.96V208.52H1027.64V209.624H1024.79V214.68ZM1035.67 217H1034.4C1034.27 216.552 1034.18 216.024 1034.18 215.368C1033.75 216.312 1032.74 217.144 1031.33 217.144C1029.81 217.144 1028.69 216.136 1028.69 214.664C1028.69 212.856 1030.27 211.944 1032.07 211.944C1032.71 211.944 1033.33 212.008 1033.97 212.216V211.256C1033.97 210.232 1033.35 209.544 1032.13 209.544C1031.12 209.544 1030.31 210.04 1029.91 211.208L1028.72 210.84C1029.35 209.048 1030.71 208.36 1032.21 208.36C1034.37 208.36 1035.31 209.656 1035.31 211.176V214.584C1035.31 215.56 1035.47 216.44 1035.67 217ZM1033.97 213.496V213.288C1033.38 213.048 1032.77 212.984 1032.18 212.984C1030.98 212.984 1030.05 213.528 1030.05 214.568C1030.05 215.496 1030.71 216.024 1031.67 216.024C1032.67 216.024 1033.97 215.416 1033.97 213.496ZM1039.62 214.68C1039.62 215.656 1040.22 215.944 1040.76 215.944C1041.26 215.944 1041.61 215.752 1041.99 215.352L1042.65 216.2C1042.06 216.856 1041.4 217.128 1040.58 217.128C1039.3 217.128 1038.25 216.312 1038.25 214.712V209.624H1036.7V208.52H1038.25V206.664L1039.62 205.96V208.52H1042.47V209.624H1039.62V214.68ZM1049.06 208.52H1050.43V217H1049.06V215.72C1048.55 216.632 1047.65 217.128 1046.61 217.128C1044.91 217.128 1043.91 216.04 1043.91 214.2V208.52H1045.28V214.04C1045.28 215.304 1045.92 215.928 1047.03 215.928C1048.42 215.928 1049.06 214.856 1049.06 213.192V208.52ZM1052.42 210.776C1052.42 209.4 1053.71 208.36 1055.59 208.36C1057.15 208.36 1058.31 209.048 1058.75 210.168L1057.71 210.696C1057.36 209.944 1056.59 209.528 1055.55 209.528C1054.47 209.528 1053.75 209.96 1053.75 210.68C1053.75 211.304 1054.15 211.672 1055.06 211.864L1056.29 212.104C1058.13 212.472 1059.01 213.288 1059.01 214.568C1059.01 216.088 1057.67 217.128 1055.68 217.128C1053.95 217.128 1052.72 216.456 1052.11 215.208L1053.17 214.648C1053.6 215.512 1054.45 215.976 1055.65 215.976C1056.87 215.976 1057.68 215.448 1057.68 214.648C1057.68 213.944 1057.27 213.56 1056.29 213.352L1054.83 213.064C1053.27 212.744 1052.42 211.944 1052.42 210.776Z" fill="#666666"/>
<rect width="516" height="1" transform="matrix(1 0 0 -1 581 236)" fill="#CCCCCC"/>
</g>
<rect x="0.5" y="0.5" width="550.12" height="53.97" stroke="#E6E6E6"/>
<rect x="563.575" y="0.5" width="551.316" height="53.97" stroke="#E6E6E6"/>
<path d="M0 43.9761H551.12V54.9701H0V43.9761Z" fill="#C7F6C9"/>
<path opacity="0.6" d="M563 43.9761H1115.32V54.9701H563V43.9761Z" fill="#FF8274"/>
<path d="M23.1212 28.144C19.8732 28.144 17.5212 25.776 17.5212 22.016C17.5212 18.368 20.0012 16.016 22.9932 16.016C25.0572 16.016 26.5612 16.96 27.3132 18.64L26.0492 19.296C25.4732 18.048 24.3212 17.376 22.9772 17.376C20.8332 17.376 19.0092 18.896 19.0092 22.016C19.0092 25.136 20.7372 26.848 23.2012 26.848C24.4012 26.848 25.2652 26.608 26.0652 26.144V22.896H21.8892V21.6H27.3452V26.8C26.2892 27.68 24.7052 28.144 23.1212 28.144ZM30.4282 18.032C29.8202 18.032 29.3402 17.568 29.3402 16.944C29.3402 16.336 29.8202 15.872 30.4282 15.872C31.0202 15.872 31.5002 16.336 31.5002 16.944C31.5002 17.568 31.0202 18.032 30.4282 18.032ZM29.1002 31.488C28.7802 31.488 28.4442 31.44 28.1402 31.344L28.2522 30.208C28.4762 30.288 28.6682 30.304 28.8282 30.304C29.5322 30.304 29.7402 29.84 29.7402 29.12V19.52H31.1162V29.104C31.1162 30.64 30.4602 31.488 29.1002 31.488ZM39.2179 20.096C40.2259 20.832 40.8659 22.112 40.8659 23.728C40.8659 26.416 39.1219 28.144 36.9939 28.144C36.4179 28.144 35.8579 28.016 35.3619 27.776L34.8499 28.8H34.0179L34.7219 27.392C33.7459 26.64 33.1059 25.36 33.1059 23.728C33.1059 21.088 34.8339 19.36 36.9939 19.36C37.5699 19.36 38.1139 19.488 38.5939 19.712L39.1059 18.704H39.9219L39.2179 20.096ZM34.5299 23.728C34.5299 24.864 34.8339 25.696 35.3139 26.224L38.0499 20.8C37.7299 20.64 37.3619 20.56 36.9939 20.56C35.6499 20.56 34.5299 21.568 34.5299 23.728ZM36.9939 26.944C38.3379 26.944 39.4419 25.888 39.4419 23.728C39.4419 22.592 39.1379 21.776 38.6419 21.248L35.9059 26.688C36.2419 26.864 36.6099 26.944 36.9939 26.944ZM46.2013 19.36C47.3533 19.36 48.1533 20.128 48.1533 21.584V22.528L46.9693 22.752V21.904C46.9693 21.088 46.6973 20.544 45.8493 20.544C44.8893 20.544 44.1853 21.216 44.1853 22.896V28H42.8093V19.52H44.1853V20.608C44.6493 19.744 45.4493 19.36 46.2013 19.36ZM53.5242 21.776C53.5242 20.4 54.8202 19.36 56.6922 19.36C58.2602 19.36 59.4122 20.048 59.8602 21.168L58.8202 21.696C58.4682 20.944 57.7002 20.528 56.6602 20.528C55.5722 20.528 54.8522 20.96 54.8522 21.68C54.8522 22.304 55.2522 22.672 56.1642 22.864L57.3962 23.104C59.2362 23.472 60.1162 24.288 60.1162 25.568C60.1162 27.088 58.7722 28.128 56.7882 28.128C55.0602 28.128 53.8282 27.456 53.2202 26.208L54.2762 25.648C54.7082 26.512 55.5562 26.976 56.7562 26.976C57.9722 26.976 58.7882 26.448 58.7882 25.648C58.7882 24.944 58.3722 24.56 57.3962 24.352L55.9402 24.064C54.3722 23.744 53.5242 22.944 53.5242 21.776ZM64.9506 27.968C64.6626 28.032 64.4066 28.08 64.1186 28.08C62.6786 28.08 61.9906 27.2 61.9906 25.824V16.16H63.3666V25.76C63.3666 26.496 63.7666 26.848 64.4386 26.848C64.5986 26.848 64.7746 26.832 64.9506 26.784V27.968ZM66.4721 16.064H68.3601V17.92H66.4721V16.064ZM66.7281 28V19.52H68.1041V28H66.7281ZM75.9651 28L73.0531 23.92L72.0451 24.912V28H70.6691V16.16H72.0451V23.328L75.8371 19.52H77.5811L73.9811 23.024L77.6451 28H75.9651Z" fill="#2A2859"/>
<path d="M586.002 28V16.16H587.426V28H586.002ZM595.269 28L592.357 23.92L591.349 24.912V28H589.973V16.16H591.349V23.328L595.141 19.52H596.885L593.285 23.024L596.949 28H595.269ZM603.85 28L600.938 23.92L599.93 24.912V28H598.554V16.16H599.93V23.328L603.722 19.52H605.466L601.866 23.024L605.53 28H603.85ZM612.287 25.488L613.263 26.032C612.815 27.088 611.743 28.144 609.839 28.144C607.391 28.144 605.935 26.32 605.935 23.664C605.935 21.136 607.487 19.36 609.711 19.36C611.599 19.36 613.215 20.688 613.215 23.04L613.183 24.016H607.311C607.407 26.096 608.415 26.976 609.951 26.976C611.119 26.976 611.871 26.304 612.287 25.488ZM609.711 20.512C608.511 20.512 607.471 21.136 607.311 22.944H611.871C611.887 21.232 610.847 20.512 609.711 20.512ZM618.725 21.776C618.725 20.4 620.021 19.36 621.893 19.36C623.461 19.36 624.613 20.048 625.061 21.168L624.021 21.696C623.669 20.944 622.901 20.528 621.861 20.528C620.773 20.528 620.053 20.96 620.053 21.68C620.053 22.304 620.453 22.672 621.365 22.864L622.597 23.104C624.437 23.472 625.317 24.288 625.317 25.568C625.317 27.088 623.973 28.128 621.989 28.128C620.261 28.128 619.029 27.456 618.421 26.208L619.477 25.648C619.909 26.512 620.757 26.976 621.957 26.976C623.173 26.976 623.989 26.448 623.989 25.648C623.989 24.944 623.573 24.56 622.597 24.352L621.141 24.064C619.573 23.744 618.725 22.944 618.725 21.776ZM630.151 27.968C629.863 28.032 629.607 28.08 629.319 28.08C627.879 28.08 627.191 27.2 627.191 25.824V16.16H628.567V25.76C628.567 26.496 628.967 26.848 629.639 26.848C629.799 26.848 629.975 26.832 630.151 26.784V27.968ZM632.617 18.032C632.009 18.032 631.529 17.568 631.529 16.944C631.529 16.336 632.009 15.872 632.617 15.872C633.209 15.872 633.689 16.336 633.689 16.944C633.689 17.568 633.209 18.032 632.617 18.032ZM631.929 28V19.52H633.305V28H631.929ZM641.166 28L638.254 23.92L637.246 24.912V28H635.87V16.16H637.246V23.328L641.038 19.52H642.782L639.182 23.024L642.846 28H641.166Z" fill="#2A2859"/>
<g clip-path="url(#clip2_6382_9114)">
<path d="M201 231H57V239H201V231Z" fill="#6FE9FF" mask="url(#path-16-inside-4_6382_9114)"/>
<path d="M83.544 205.16H85.384V217H83.496V208.312L80.264 213.448H79.512L76.264 208.296V217H74.392V205.16H76.216L79.88 210.984L83.544 205.16ZM88.7733 207.112C88.0693 207.112 87.5093 206.568 87.5093 205.848C87.5093 205.128 88.0693 204.584 88.7733 204.584C89.4773 204.584 90.0213 205.128 90.0213 205.848C90.0213 206.568 89.4773 207.112 88.7733 207.112ZM87.8773 217V208.52H89.6693V217H87.8773ZM96.4805 208.328C98.2085 208.328 99.2325 209.448 99.2325 211.288V217H97.4405V211.576C97.4405 210.408 96.8805 209.88 95.9045 209.88C94.6405 209.88 94.0005 210.76 94.0005 212.408V217H92.2085V208.52H94.0005V209.736C94.5765 208.84 95.4245 208.328 96.4805 208.328ZM107.457 214.328L108.674 215.032C108.194 216.088 107.074 217.144 105.137 217.144C102.625 217.144 101.105 215.288 101.105 212.68C101.105 210.104 102.753 208.328 105.01 208.328C107.01 208.328 108.658 209.672 108.658 212.072L108.625 213.128H102.865C102.961 214.92 103.841 215.688 105.249 215.688C106.289 215.688 107.01 215.128 107.457 214.328ZM105.01 209.736C103.921 209.736 103.009 210.312 102.865 211.848H106.913C106.93 210.344 106.001 209.736 105.01 209.736ZM114.114 210.856C114.114 209.416 115.442 208.328 117.442 208.328C119.09 208.328 120.194 208.92 120.786 210.056L119.538 210.824C119.154 210.168 118.386 209.768 117.426 209.768C116.466 209.768 115.81 210.136 115.81 210.744C115.81 211.24 116.146 211.544 116.898 211.688L118.322 211.976C120.114 212.328 121.01 213.176 121.01 214.472C121.01 216.072 119.618 217.144 117.522 217.144C115.746 217.144 114.482 216.472 113.826 215.24L115.074 214.456C115.538 215.24 116.354 215.688 117.474 215.688C118.562 215.688 119.298 215.256 119.298 214.552C119.298 213.976 118.946 213.656 118.162 213.496L116.594 213.192C114.994 212.888 114.114 212.072 114.114 210.856ZM128.402 209.032C129.474 209.768 130.162 211.064 130.162 212.712C130.162 215.432 128.354 217.16 126.146 217.16C125.586 217.16 125.058 217.048 124.562 216.84L124.066 217.864H123.154L123.858 216.44C122.818 215.688 122.13 214.392 122.13 212.712C122.13 210.056 123.922 208.328 126.146 208.328C126.706 208.328 127.218 208.44 127.698 208.632L128.194 207.64H129.09L128.402 209.032ZM123.97 212.712C123.97 213.704 124.21 214.44 124.61 214.92L127.01 210.024C126.754 209.912 126.45 209.848 126.146 209.848C124.962 209.848 123.97 210.696 123.97 212.712ZM126.146 215.64C127.346 215.64 128.322 214.712 128.322 212.712C128.322 211.704 128.066 210.984 127.682 210.52L125.25 215.448C125.522 215.576 125.826 215.64 126.146 215.64ZM137.365 217L134.789 213.112L133.813 214.072V217H132.021V205.16H133.813V212.04L137.237 208.52H139.445L135.973 211.944L139.509 217H137.365ZM145.171 208.328C146.899 208.328 147.923 209.448 147.923 211.288V217H146.131V211.576C146.131 210.408 145.571 209.88 144.595 209.88C143.331 209.88 142.691 210.76 142.691 212.408V217H140.899V208.52H142.691V209.736C143.267 208.84 144.115 208.328 145.171 208.328ZM157.156 217H155.508C155.38 216.568 155.3 216.056 155.268 215.4C154.868 216.28 153.972 217.144 152.5 217.144C150.964 217.144 149.876 216.104 149.876 214.632C149.876 212.792 151.508 211.88 153.332 211.88C153.908 211.88 154.452 211.928 155.044 212.088V211.288C155.044 210.376 154.468 209.784 153.428 209.784C152.452 209.784 151.764 210.312 151.444 211.304L149.924 210.84C150.532 209.048 151.988 208.328 153.508 208.328C155.764 208.328 156.788 209.656 156.788 211.272V214.552C156.788 215.56 156.948 216.456 157.156 217ZM155.044 213.496V213.304C154.532 213.128 154.036 213.064 153.508 213.064C152.452 213.064 151.636 213.544 151.636 214.472C151.636 215.256 152.196 215.752 153.044 215.752C153.908 215.752 155.044 215.24 155.044 213.496ZM164.678 205.16H166.47V217H164.678V215.464C164.022 216.648 162.998 217.128 162.022 217.128C159.974 217.128 158.502 215.368 158.502 212.792C158.502 210.12 159.99 208.344 162.23 208.344C163.19 208.344 164.15 208.776 164.678 209.816V205.16ZM162.502 215.56C163.798 215.56 164.678 214.68 164.678 212.696C164.678 210.728 163.814 209.784 162.502 209.784C161.27 209.784 160.358 210.776 160.358 212.696C160.358 214.6 161.27 215.56 162.502 215.56ZM174.623 214.328L175.839 215.032C175.359 216.088 174.239 217.144 172.303 217.144C169.791 217.144 168.271 215.288 168.271 212.68C168.271 210.104 169.919 208.328 172.175 208.328C174.175 208.328 175.823 209.672 175.823 212.072L175.791 213.128H170.031C170.127 214.92 171.007 215.688 172.415 215.688C173.455 215.688 174.175 215.128 174.623 214.328ZM172.175 209.736C171.087 209.736 170.175 210.312 170.031 211.848H174.079C174.095 210.344 173.167 209.736 172.175 209.736ZM181.721 208.328C182.953 208.328 183.753 209.144 183.753 210.6V211.72L182.313 211.976V211.112C182.313 210.344 182.041 209.816 181.209 209.816C180.297 209.816 179.625 210.424 179.625 212.04V217H177.833V208.52H179.625V209.656C180.105 208.712 180.985 208.328 181.721 208.328Z" fill="#2A2859"/>
<path d="M227.608 205.16H229V217H227.576V207.592L223.992 213.208H223.416L219.832 207.608V217H218.408V205.16H219.784L223.704 211.288L227.608 205.16ZM232.238 207.032C231.63 207.032 231.15 206.568 231.15 205.944C231.15 205.336 231.63 204.872 232.238 204.872C232.83 204.872 233.31 205.336 233.31 205.944C233.31 206.568 232.83 207.032 232.238 207.032ZM231.55 217V208.52H232.926V217H231.55ZM239.315 208.36C241.027 208.36 242.035 209.432 242.035 211.32V217H240.659V211.528C240.659 210.136 240.019 209.592 238.915 209.592C237.523 209.592 236.851 210.632 236.851 212.296V217H235.475V208.52H236.851V209.784C237.395 208.872 238.275 208.36 239.315 208.36ZM250.271 214.488L251.247 215.032C250.799 216.088 249.727 217.144 247.823 217.144C245.375 217.144 243.919 215.32 243.919 212.664C243.919 210.136 245.471 208.36 247.695 208.36C249.583 208.36 251.199 209.688 251.199 212.04L251.167 213.016H245.295C245.391 215.096 246.399 215.976 247.935 215.976C249.103 215.976 249.855 215.304 250.271 214.488ZM247.695 209.512C246.495 209.512 245.455 210.136 245.295 211.944H249.855C249.871 210.232 248.831 209.512 247.695 209.512ZM261.269 208.376C263.381 208.376 264.853 210.168 264.853 212.68C264.853 215.304 263.365 217.128 261.109 217.128C260.021 217.128 259.045 216.616 258.533 215.528V217H257.157V205.16H258.533V210.072C259.125 208.936 260.229 208.376 261.269 208.376ZM260.997 215.96C262.437 215.96 263.429 214.84 263.429 212.744C263.429 210.696 262.437 209.576 261.013 209.576C259.477 209.576 258.533 210.696 258.533 212.728C258.533 214.84 259.461 215.96 260.997 215.96ZM273.328 217H272.064C271.936 216.552 271.84 216.024 271.84 215.368C271.408 216.312 270.4 217.144 268.992 217.144C267.472 217.144 266.352 216.136 266.352 214.664C266.352 212.856 267.936 211.944 269.728 211.944C270.368 211.944 270.992 212.008 271.632 212.216V211.256C271.632 210.232 271.008 209.544 269.792 209.544C268.784 209.544 267.968 210.04 267.568 211.208L266.384 210.84C267.008 209.048 268.368 208.36 269.872 208.36C272.032 208.36 272.976 209.656 272.976 211.176V214.584C272.976 215.56 273.136 216.44 273.328 217ZM271.632 213.496V213.288C271.04 213.048 270.432 212.984 269.84 212.984C268.64 212.984 267.712 213.528 267.712 214.568C267.712 215.496 268.368 216.024 269.328 216.024C270.336 216.024 271.632 215.416 271.632 213.496ZM278.883 208.36C280.035 208.36 280.835 209.128 280.835 210.584V211.528L279.651 211.752V210.904C279.651 210.088 279.379 209.544 278.531 209.544C277.571 209.544 276.867 210.216 276.867 211.896V217H275.491V208.52H276.867V209.608C277.331 208.744 278.131 208.36 278.883 208.36ZM286.584 208.36C288.296 208.36 289.304 209.432 289.304 211.32V217H287.928V211.528C287.928 210.136 287.288 209.592 286.184 209.592C284.792 209.592 284.12 210.632 284.12 212.296V217H282.744V208.52H284.12V209.784C284.664 208.872 285.544 208.36 286.584 208.36ZM297.539 214.488L298.515 215.032C298.067 216.088 296.995 217.144 295.091 217.144C292.643 217.144 291.187 215.32 291.187 212.664C291.187 210.136 292.739 208.36 294.963 208.36C296.851 208.36 298.467 209.688 298.467 212.04L298.435 213.016H292.563C292.659 215.096 293.667 215.976 295.203 215.976C296.371 215.976 297.123 215.304 297.539 214.488ZM294.963 209.512C293.763 209.512 292.723 210.136 292.563 211.944H297.123C297.139 210.232 296.099 209.512 294.963 209.512ZM304.388 208.36C306.1 208.36 307.108 209.432 307.108 211.32V217H305.732V211.528C305.732 210.136 305.076 209.592 303.988 209.592C302.58 209.592 301.908 210.632 301.908 212.296V217H300.532V205.16H301.908V209.8C302.452 208.872 303.348 208.36 304.388 208.36ZM316.047 217H314.783C314.655 216.552 314.559 216.024 314.559 215.368C314.127 216.312 313.119 217.144 311.711 217.144C310.191 217.144 309.071 216.136 309.071 214.664C309.071 212.856 310.655 211.944 312.447 211.944C313.087 211.944 313.711 212.008 314.351 212.216V211.256C314.351 210.232 313.727 209.544 312.511 209.544C311.503 209.544 310.687 210.04 310.287 211.208L309.103 210.84C309.727 209.048 311.087 208.36 312.591 208.36C314.751 208.36 315.695 209.656 315.695 211.176V214.584C315.695 215.56 315.855 216.44 316.047 217ZM314.351 213.496V213.288C313.759 213.048 313.151 212.984 312.559 212.984C311.359 212.984 310.431 213.528 310.431 214.568C310.431 215.496 311.087 216.024 312.047 216.024C313.055 216.024 314.351 215.416 314.351 213.496ZM325.877 209.624H324.085V209.88C324.437 210.344 324.629 210.904 324.629 211.48C324.629 213.016 323.493 214.584 321.077 214.584H320.677C319.765 214.584 319.125 214.92 319.125 215.464C319.125 215.864 319.445 216.152 320.069 216.152H323.557C324.965 216.152 325.717 216.856 325.717 217.944C325.717 219.656 323.845 220.584 321.285 220.584C318.997 220.584 317.445 219.928 316.965 218.376L318.197 217.992C318.709 219.24 319.829 219.512 321.301 219.512C323.029 219.512 324.373 219.016 324.373 218.088C324.373 217.656 324.149 217.336 323.445 217.336H319.717C318.469 217.336 317.781 216.712 317.781 215.816C317.781 215.016 318.469 214.344 319.509 214.104C318.373 213.624 317.765 212.488 317.765 211.464C317.765 209.944 318.933 208.36 321.221 208.36C322.165 208.36 322.901 208.696 323.397 209.16V208.52H325.877V209.624ZM321.221 213.528C322.613 213.528 323.285 212.552 323.285 211.464C323.285 210.392 322.613 209.464 321.221 209.464C319.813 209.464 319.125 210.392 319.125 211.464C319.125 212.552 319.813 213.528 321.221 213.528ZM332.521 214.488L333.497 215.032C333.049 216.088 331.977 217.144 330.073 217.144C327.625 217.144 326.169 215.32 326.169 212.664C326.169 210.136 327.721 208.36 329.945 208.36C331.833 208.36 333.449 209.688 333.449 212.04L333.417 213.016H327.545C327.641 215.096 328.649 215.976 330.185 215.976C331.353 215.976 332.105 215.304 332.521 214.488ZM329.945 209.512C328.745 209.512 327.705 210.136 327.545 211.944H332.105C332.121 210.232 331.081 209.512 329.945 209.512ZM338.889 208.36C340.041 208.36 340.841 209.128 340.841 210.584V211.528L339.657 211.752V210.904C339.657 210.088 339.385 209.544 338.537 209.544C337.577 209.544 336.873 210.216 336.873 211.896V217H335.497V208.52H336.873V209.608C337.337 208.744 338.137 208.36 338.889 208.36Z" fill="#666666"/>
<rect width="439" height="1" transform="matrix(1 0 0 -1 57 236)" fill="#CCCCCC"/>
</g>
</g>
<defs>
<clipPath id="clip0_6382_9114">
<rect width="1116" height="416" fill="white"/>
</clipPath>
<clipPath id="clip1_6382_9114">
<rect width="516" height="49" fill="white" transform="translate(581 187)"/>
</clipPath>
<clipPath id="clip2_6382_9114">
<rect width="439" height="49" fill="white" transform="translate(57 187)"/>
</clipPath>
</defs>
</svg>
