<svg width="1046" height="256" viewBox="0 0 1046 256" fill="none" xmlns="http://www.w3.org/2000/svg">
<rect width="1046" height="256" fill="white"/>
<g clip-path="url(#clip0_6312_5479)">
<g clip-path="url(#clip1_6312_5479)">
<path d="M374 136H200V144H374V136Z" fill="#6FE9FF" mask="url(#path-1-inside-1_6312_5479)"/>
<g clip-path="url(#clip2_6312_5479)">
<path fill-rule="evenodd" clip-rule="evenodd" d="M216.625 123.292V125.375H218.708V124.125H217.875V123.292H216.625ZM224.958 125.375H220.792V124.125H224.958V125.375ZM227.042 125.375V124.125H231.208V125.375H227.042ZM233.292 125.375V124.125H234.125V123.292H235.375V125.375H233.292ZM235.375 121.208H234.125V117.042H235.375V121.208ZM235.375 114.958H234.125V110.792H235.375V114.958ZM235.375 108.708H234.125V107.875H233.292V106.625H235.375V108.708ZM231.208 106.625V107.875H227.042V106.625H231.208ZM224.958 106.625V107.875H220.792V106.625H224.958ZM218.708 106.625V107.875H217.875V108.708H216.625V106.625H218.708ZM216.625 110.792H217.875V114.958H216.625V110.792ZM216.625 117.042H217.875V121.208H216.625V117.042Z" fill="#2A2859"/>
</g>
<path d="M245.104 113.456C245.104 111.36 247.04 110 249.344 110C251.232 110 252.736 110.656 253.648 112.224L252.096 113.184C251.584 112.224 250.496 111.664 249.328 111.664C247.936 111.664 246.992 112.288 246.992 113.312C246.992 114.16 247.52 114.72 248.672 114.912L250.496 115.184C252.56 115.504 254 116.624 254 118.528C254 120.528 252.304 122.16 249.472 122.16C247.456 122.16 245.792 121.456 244.784 119.744L246.352 118.736C247.104 120.096 248.384 120.48 249.488 120.48C251.072 120.48 252.048 119.68 252.048 118.592C252.048 117.6 251.424 117.152 250.272 116.96L248.256 116.64C246.352 116.352 245.104 115.248 245.104 113.456ZM256.945 112.112C256.241 112.112 255.681 111.568 255.681 110.848C255.681 110.128 256.241 109.584 256.945 109.584C257.649 109.584 258.193 110.128 258.193 110.848C258.193 111.568 257.649 112.112 256.945 112.112ZM256.049 122V113.52H257.841V122H256.049ZM266.028 110.16H267.82V122H266.028V120.464C265.372 121.648 264.348 122.128 263.372 122.128C261.324 122.128 259.852 120.368 259.852 117.792C259.852 115.12 261.34 113.344 263.58 113.344C264.54 113.344 265.5 113.776 266.028 114.816V110.16ZM263.852 120.56C265.148 120.56 266.028 119.68 266.028 117.696C266.028 115.728 265.164 114.784 263.852 114.784C262.62 114.784 261.708 115.776 261.708 117.696C261.708 119.6 262.62 120.56 263.852 120.56ZM275.973 119.328L277.189 120.032C276.709 121.088 275.589 122.144 273.653 122.144C271.141 122.144 269.621 120.288 269.621 117.68C269.621 115.104 271.269 113.328 273.525 113.328C275.525 113.328 277.173 114.672 277.173 117.072L277.141 118.128H271.381C271.477 119.92 272.357 120.688 273.765 120.688C274.805 120.688 275.525 120.128 275.973 119.328ZM273.525 114.736C272.437 114.736 271.525 115.312 271.381 116.848H275.429C275.445 115.344 274.517 114.736 273.525 114.736ZM281.427 119.376C281.427 120.32 282.003 120.608 282.595 120.608C283.059 120.608 283.427 120.416 283.795 120.048L284.563 121.2C283.923 121.84 283.219 122.144 282.307 122.144C280.835 122.144 279.635 121.248 279.635 119.488V114.912H278.147V113.52H279.635V111.632L281.427 110.816V113.52H284.419V114.912H281.427V119.376ZM285.885 109.84H288.077V112H285.885V109.84ZM286.093 122V113.52H287.885V122H286.093ZM292.824 119.376C292.824 120.32 293.4 120.608 293.992 120.608C294.456 120.608 294.824 120.416 295.192 120.048L295.96 121.2C295.32 121.84 294.616 122.144 293.704 122.144C292.232 122.144 291.032 121.248 291.032 119.488V114.912H289.544V113.52H291.032V111.632L292.824 110.816V113.52H295.816V114.912H292.824V119.376ZM299.749 119.376C299.749 120.32 300.325 120.608 300.917 120.608C301.381 120.608 301.749 120.416 302.117 120.048L302.885 121.2C302.245 121.84 301.541 122.144 300.629 122.144C299.157 122.144 297.957 121.248 297.957 119.488V114.912H296.469V113.52H297.957V111.632L299.749 110.816V113.52H302.741V114.912H299.749V119.376ZM309.833 119.328L311.049 120.032C310.569 121.088 309.449 122.144 307.513 122.144C305.001 122.144 303.481 120.288 303.481 117.68C303.481 115.104 305.129 113.328 307.385 113.328C309.385 113.328 311.033 114.672 311.033 117.072L311.001 118.128H305.241C305.337 119.92 306.217 120.688 307.625 120.688C308.665 120.688 309.385 120.128 309.833 119.328ZM307.385 114.736C306.297 114.736 305.385 115.312 305.241 116.848H309.289C309.305 115.344 308.377 114.736 307.385 114.736ZM316.451 121.952C316.115 122.048 315.779 122.096 315.427 122.096C313.811 122.096 313.043 121.136 313.043 119.584V110.16H314.835V119.456C314.835 120.192 315.267 120.528 315.923 120.528C316.083 120.528 316.259 120.512 316.451 120.464V121.952Z" fill="#2A2859"/>
<rect width="32" height="22" transform="translate(326 105)" fill="#FFE7BC"/>
<path d="M338.26 110.64V112.152H335.166V121H333.528V112.152H330.434V110.64H338.26ZM344.432 121H342.99C342.878 120.622 342.808 120.174 342.78 119.6C342.43 120.37 341.646 121.126 340.358 121.126C339.014 121.126 338.062 120.216 338.062 118.928C338.062 117.318 339.49 116.52 341.086 116.52C341.59 116.52 342.066 116.562 342.584 116.702V116.002C342.584 115.204 342.08 114.686 341.17 114.686C340.316 114.686 339.714 115.148 339.434 116.016L338.104 115.61C338.636 114.042 339.91 113.412 341.24 113.412C343.214 113.412 344.11 114.574 344.11 115.988V118.858C344.11 119.74 344.25 120.524 344.432 121ZM342.584 117.934V117.766C342.136 117.612 341.702 117.556 341.24 117.556C340.316 117.556 339.602 117.976 339.602 118.788C339.602 119.474 340.092 119.908 340.834 119.908C341.59 119.908 342.584 119.46 342.584 117.934ZM353.255 114.798H351.701V114.966C351.953 115.316 352.079 115.722 352.079 116.142C352.079 117.486 351.043 118.83 348.887 118.83H348.523C347.767 118.83 347.277 119.082 347.277 119.53C347.277 119.838 347.515 120.062 347.991 120.062H351.085C352.359 120.062 353.087 120.72 353.087 121.728C353.087 123.254 351.533 124.136 349.055 124.136C346.885 124.136 345.429 123.59 345.051 122.148L346.577 121.854C346.927 122.75 347.739 122.988 349.097 122.988C350.553 122.988 351.589 122.596 351.589 121.91C351.589 121.588 351.407 121.35 350.903 121.35H347.529C346.367 121.35 345.765 120.72 345.765 119.936C345.765 119.18 346.437 118.578 347.361 118.396C346.339 117.948 345.835 116.996 345.835 116.1C345.835 114.77 346.913 113.412 348.971 113.412C349.881 113.412 350.595 113.734 351.015 114.196V113.58H353.255V114.798ZM348.971 117.696C350.049 117.696 350.553 116.94 350.553 116.128C350.553 115.316 350.049 114.574 348.971 114.574C347.907 114.574 347.389 115.316 347.389 116.128C347.389 116.94 347.907 117.696 348.971 117.696Z" fill="#2A2859"/>
<g clip-path="url(#clip3_6312_5479)">
<path fill-rule="evenodd" clip-rule="evenodd" d="M390.625 123.292V125.375H392.708V124.125H391.875V123.292H390.625ZM398.958 125.375H394.792V124.125H398.958V125.375ZM401.042 125.375V124.125H405.208V125.375H401.042ZM407.292 125.375V124.125H408.125V123.292H409.375V125.375H407.292ZM409.375 121.208H408.125V117.042H409.375V121.208ZM409.375 114.958H408.125V110.792H409.375V114.958ZM409.375 108.708H408.125V107.875H407.292V106.625H409.375V108.708ZM405.208 106.625V107.875H401.042V106.625H405.208ZM398.958 106.625V107.875H394.792V106.625H398.958ZM392.708 106.625V107.875H391.875V108.708H390.625V106.625H392.708ZM390.625 110.792H391.875V114.958H390.625V110.792ZM390.625 117.042H391.875V121.208H390.625V117.042Z" fill="#666666"/>
</g>
<path d="M419.152 113.36C419.152 111.328 421.008 110.016 423.2 110.016C425.104 110.016 426.496 110.784 427.216 112.304L425.968 112.944C425.472 111.888 424.4 111.28 423.184 111.28C421.648 111.28 420.592 112.032 420.592 113.232C420.592 114.224 421.184 114.848 422.48 115.088L424.32 115.408C426.256 115.744 427.632 116.784 427.632 118.608C427.632 120.512 426.032 122.144 423.344 122.144C421.312 122.144 419.712 121.44 418.816 119.696L420.064 119.04C420.832 120.528 422.144 120.864 423.36 120.864C425.152 120.864 426.176 119.872 426.176 118.672C426.176 117.424 425.344 117.008 424.032 116.768L422.192 116.448C420.448 116.144 419.152 115.152 419.152 113.36ZM430.441 112.032C429.833 112.032 429.353 111.568 429.353 110.944C429.353 110.336 429.833 109.872 430.441 109.872C431.033 109.872 431.513 110.336 431.513 110.944C431.513 111.568 431.033 112.032 430.441 112.032ZM429.753 122V113.52H431.129V122H429.753ZM439.454 110.16H440.83V122H439.454V120.416C438.862 121.552 437.758 122.112 436.718 122.112C434.606 122.112 433.134 120.336 433.134 117.824C433.134 115.184 434.622 113.376 436.878 113.376C437.966 113.376 438.942 113.888 439.454 114.976V110.16ZM436.974 120.912C438.51 120.912 439.454 119.808 439.454 117.76C439.454 115.648 438.526 114.528 436.99 114.528C435.55 114.528 434.558 115.648 434.558 117.76C434.558 119.792 435.55 120.912 436.974 120.912ZM449.068 119.488L450.044 120.032C449.596 121.088 448.524 122.144 446.62 122.144C444.172 122.144 442.716 120.32 442.716 117.664C442.716 115.136 444.268 113.36 446.492 113.36C448.38 113.36 449.996 114.688 449.996 117.04L449.964 118.016H444.092C444.188 120.096 445.196 120.976 446.732 120.976C447.9 120.976 448.652 120.304 449.068 119.488ZM446.492 114.512C445.292 114.512 444.252 115.136 444.092 116.944H448.652C448.668 115.232 447.628 114.512 446.492 114.512ZM453.872 119.68C453.872 120.656 454.464 120.944 455.008 120.944C455.504 120.944 455.856 120.752 456.24 120.352L456.896 121.2C456.304 121.856 455.648 122.128 454.832 122.128C453.552 122.128 452.496 121.312 452.496 119.712V114.624H450.944V113.52H452.496V111.664L453.872 110.96V113.52H456.72V114.624H453.872V119.68ZM458.244 110.064H460.132V111.92H458.244V110.064ZM458.5 122V113.52H459.876V122H458.5ZM464.409 119.68C464.409 120.656 465.001 120.944 465.545 120.944C466.041 120.944 466.393 120.752 466.777 120.352L467.433 121.2C466.841 121.856 466.185 122.128 465.369 122.128C464.089 122.128 463.033 121.312 463.033 119.712V114.624H461.481V113.52H463.033V111.664L464.409 110.96V113.52H467.257V114.624H464.409V119.68ZM470.772 119.68C470.772 120.656 471.364 120.944 471.908 120.944C472.404 120.944 472.756 120.752 473.14 120.352L473.796 121.2C473.204 121.856 472.548 122.128 471.732 122.128C470.452 122.128 469.396 121.312 469.396 119.712V114.624H467.844V113.52H469.396V111.664L470.772 110.96V113.52H473.62V114.624H470.772V119.68ZM480.755 119.488L481.731 120.032C481.283 121.088 480.211 122.144 478.307 122.144C475.859 122.144 474.403 120.32 474.403 117.664C474.403 115.136 475.955 113.36 478.179 113.36C480.067 113.36 481.683 114.688 481.683 117.04L481.651 118.016H475.779C475.875 120.096 476.883 120.976 478.419 120.976C479.587 120.976 480.339 120.304 480.755 119.488ZM478.179 114.512C476.979 114.512 475.939 115.136 475.779 116.944H480.339C480.355 115.232 479.315 114.512 478.179 114.512ZM486.691 121.968C486.403 122.032 486.147 122.08 485.859 122.08C484.419 122.08 483.731 121.2 483.731 119.824V110.16H485.107V119.76C485.107 120.496 485.507 120.848 486.179 120.848C486.339 120.848 486.515 120.832 486.691 120.784V121.968Z" fill="#666666"/>
<g clip-path="url(#clip4_6312_5479)">
<path fill-rule="evenodd" clip-rule="evenodd" d="M520.625 123.292V125.375H522.708V124.125H521.875V123.292H520.625ZM528.958 125.375H524.792V124.125H528.958V125.375ZM531.042 125.375V124.125H535.208V125.375H531.042ZM537.292 125.375V124.125H538.125V123.292H539.375V125.375H537.292ZM539.375 121.208H538.125V117.042H539.375V121.208ZM539.375 114.958H538.125V110.792H539.375V114.958ZM539.375 108.708H538.125V107.875H537.292V106.625H539.375V108.708ZM535.208 106.625V107.875H531.042V106.625H535.208ZM528.958 106.625V107.875H524.792V106.625H528.958ZM522.708 106.625V107.875H521.875V108.708H520.625V106.625H522.708ZM520.625 110.792H521.875V114.958H520.625V110.792ZM520.625 117.042H521.875V121.208H520.625V117.042Z" fill="#666666"/>
</g>
<path d="M549.152 113.36C549.152 111.328 551.008 110.016 553.2 110.016C555.104 110.016 556.496 110.784 557.216 112.304L555.968 112.944C555.472 111.888 554.4 111.28 553.184 111.28C551.648 111.28 550.592 112.032 550.592 113.232C550.592 114.224 551.184 114.848 552.48 115.088L554.32 115.408C556.256 115.744 557.632 116.784 557.632 118.608C557.632 120.512 556.032 122.144 553.344 122.144C551.312 122.144 549.712 121.44 548.816 119.696L550.064 119.04C550.832 120.528 552.144 120.864 553.36 120.864C555.152 120.864 556.176 119.872 556.176 118.672C556.176 117.424 555.344 117.008 554.032 116.768L552.192 116.448C550.448 116.144 549.152 115.152 549.152 113.36ZM560.441 112.032C559.833 112.032 559.353 111.568 559.353 110.944C559.353 110.336 559.833 109.872 560.441 109.872C561.033 109.872 561.513 110.336 561.513 110.944C561.513 111.568 561.033 112.032 560.441 112.032ZM559.753 122V113.52H561.129V122H559.753ZM569.454 110.16H570.83V122H569.454V120.416C568.862 121.552 567.758 122.112 566.718 122.112C564.606 122.112 563.134 120.336 563.134 117.824C563.134 115.184 564.622 113.376 566.878 113.376C567.966 113.376 568.942 113.888 569.454 114.976V110.16ZM566.974 120.912C568.51 120.912 569.454 119.808 569.454 117.76C569.454 115.648 568.526 114.528 566.99 114.528C565.55 114.528 564.558 115.648 564.558 117.76C564.558 119.792 565.55 120.912 566.974 120.912ZM579.068 119.488L580.044 120.032C579.596 121.088 578.524 122.144 576.62 122.144C574.172 122.144 572.716 120.32 572.716 117.664C572.716 115.136 574.268 113.36 576.492 113.36C578.38 113.36 579.996 114.688 579.996 117.04L579.964 118.016H574.092C574.188 120.096 575.196 120.976 576.732 120.976C577.9 120.976 578.652 120.304 579.068 119.488ZM576.492 114.512C575.292 114.512 574.252 115.136 574.092 116.944H578.652C578.668 115.232 577.628 114.512 576.492 114.512ZM583.872 119.68C583.872 120.656 584.464 120.944 585.008 120.944C585.504 120.944 585.856 120.752 586.24 120.352L586.896 121.2C586.304 121.856 585.648 122.128 584.832 122.128C583.552 122.128 582.496 121.312 582.496 119.712V114.624H580.944V113.52H582.496V111.664L583.872 110.96V113.52H586.72V114.624H583.872V119.68ZM588.244 110.064H590.132V111.92H588.244V110.064ZM588.5 122V113.52H589.876V122H588.5ZM594.409 119.68C594.409 120.656 595.001 120.944 595.545 120.944C596.041 120.944 596.393 120.752 596.777 120.352L597.433 121.2C596.841 121.856 596.185 122.128 595.369 122.128C594.089 122.128 593.033 121.312 593.033 119.712V114.624H591.481V113.52H593.033V111.664L594.409 110.96V113.52H597.257V114.624H594.409V119.68ZM600.772 119.68C600.772 120.656 601.364 120.944 601.908 120.944C602.404 120.944 602.756 120.752 603.14 120.352L603.796 121.2C603.204 121.856 602.548 122.128 601.732 122.128C600.452 122.128 599.396 121.312 599.396 119.712V114.624H597.844V113.52H599.396V111.664L600.772 110.96V113.52H603.62V114.624H600.772V119.68ZM610.755 119.488L611.731 120.032C611.283 121.088 610.211 122.144 608.307 122.144C605.859 122.144 604.403 120.32 604.403 117.664C604.403 115.136 605.955 113.36 608.179 113.36C610.067 113.36 611.683 114.688 611.683 117.04L611.651 118.016H605.779C605.875 120.096 606.883 120.976 608.419 120.976C609.587 120.976 610.339 120.304 610.755 119.488ZM608.179 114.512C606.979 114.512 605.939 115.136 605.779 116.944H610.339C610.355 115.232 609.315 114.512 608.179 114.512ZM616.691 121.968C616.403 122.032 616.147 122.08 615.859 122.08C614.419 122.08 613.731 121.2 613.731 119.824V110.16H615.107V119.76C615.107 120.496 615.507 120.848 616.179 120.848C616.339 120.848 616.515 120.832 616.691 120.784V121.968Z" fill="#666666"/>
<rect width="694" height="1" transform="matrix(1 0 0 -1 200 141)" fill="#CCCCCC"/>
</g>
<g clip-path="url(#clip5_6312_5479)">
<rect x="400" y="44" width="1" height="62" fill="#6FE9FF"/>
<g clip-path="url(#clip6_6312_5479)">
<rect x="388" y="44" width="24" height="24" rx="12" fill="#6FE9FF"/>
<path d="M400.032 60.1193C399.469 60.1193 398.968 60.0227 398.528 59.8295C398.09 59.6364 397.742 59.3679 397.484 59.0241C397.228 58.6776 397.089 58.2756 397.066 57.8182H398.14C398.163 58.0994 398.259 58.3423 398.43 58.5469C398.6 58.7486 398.823 58.9048 399.099 59.0156C399.374 59.1264 399.68 59.1818 400.015 59.1818C400.39 59.1818 400.722 59.1165 401.012 58.9858C401.302 58.8551 401.529 58.6733 401.694 58.4403C401.859 58.2074 401.941 57.9375 401.941 57.6307C401.941 57.3097 401.862 57.027 401.702 56.7827C401.543 56.5355 401.31 56.3423 401.004 56.2031C400.697 56.0639 400.322 55.9943 399.879 55.9943H399.18V55.0568H399.879C400.225 55.0568 400.529 54.9943 400.79 54.8693C401.055 54.7443 401.261 54.5682 401.408 54.3409C401.559 54.1136 401.634 53.8466 401.634 53.5398C401.634 53.2443 401.569 52.9872 401.438 52.7685C401.308 52.5497 401.123 52.3793 400.884 52.2571C400.648 52.1349 400.37 52.0739 400.049 52.0739C399.748 52.0739 399.464 52.1293 399.197 52.2401C398.933 52.348 398.717 52.5057 398.549 52.7131C398.381 52.9176 398.29 53.1648 398.276 53.4545H397.254C397.271 52.9972 397.408 52.5966 397.667 52.2528C397.925 51.9062 398.263 51.6364 398.681 51.4432C399.102 51.25 399.563 51.1534 400.066 51.1534C400.606 51.1534 401.069 51.2628 401.455 51.4815C401.842 51.6974 402.138 51.983 402.346 52.3381C402.553 52.6932 402.657 53.0767 402.657 53.4886C402.657 53.9801 402.528 54.3991 402.269 54.7457C402.013 55.0923 401.665 55.3324 401.225 55.4659V55.5341C401.776 55.625 402.207 55.8594 402.516 56.2372C402.826 56.6122 402.981 57.0767 402.981 57.6307C402.981 58.1051 402.852 58.5312 402.593 58.9091C402.337 59.2841 401.988 59.5795 401.545 59.7955C401.102 60.0114 400.597 60.1193 400.032 60.1193Z" fill="#2A2859"/>
</g>
</g>
<g clip-path="url(#clip7_6312_5479)">
<rect x="451" y="44" width="1" height="61" fill="#6FE9FF"/>
<g clip-path="url(#clip8_6312_5479)">
<rect x="439" y="44" width="24" height="24" rx="12" fill="#6FE9FF"/>
<path d="M447.849 58.2102V57.3409L451.684 51.2727H452.315V52.6193H451.889L448.991 57.2045V57.2727H454.156V58.2102H447.849ZM451.957 60V57.946V57.5412V51.2727H452.963V60H451.957Z" fill="#2A2859"/>
</g>
</g>
<g clip-path="url(#clip9_6312_5479)">
<rect x="287" y="44" width="1" height="48" fill="#6FE9FF"/>
<g clip-path="url(#clip10_6312_5479)">
<rect x="275" y="44" width="24" height="24" rx="12" fill="#6FE9FF"/>
<path d="M288.183 51.2727V60H287.126V52.3807H287.075L284.944 53.7955V52.7216L287.126 51.2727H288.183Z" fill="#2A2859"/>
</g>
</g>
<g clip-path="url(#clip11_6312_5479)">
<rect x="342" y="44" width="1" height="60" fill="#6FE9FF"/>
<g clip-path="url(#clip12_6312_5479)">
<rect x="330" y="44" width="24" height="24" rx="12" fill="#6FE9FF"/>
<path d="M339.271 60V59.233L342.151 56.0795C342.489 55.7102 342.768 55.3892 342.987 55.1165C343.205 54.8409 343.367 54.5824 343.472 54.3409C343.58 54.0966 343.634 53.8409 343.634 53.5739C343.634 53.267 343.56 53.0014 343.413 52.777C343.268 52.5526 343.069 52.3793 342.816 52.2571C342.563 52.1349 342.279 52.0739 341.964 52.0739C341.629 52.0739 341.336 52.1435 341.086 52.2827C340.839 52.419 340.647 52.6108 340.511 52.858C340.377 53.1051 340.31 53.3949 340.31 53.7273H339.305C339.305 53.2159 339.423 52.767 339.658 52.3807C339.894 51.9943 340.215 51.6932 340.621 51.4773C341.031 51.2614 341.489 51.1534 341.998 51.1534C342.509 51.1534 342.962 51.2614 343.357 51.4773C343.752 51.6932 344.062 51.9844 344.286 52.3509C344.511 52.7173 344.623 53.125 344.623 53.5739C344.623 53.8949 344.565 54.2088 344.448 54.5156C344.335 54.8196 344.136 55.1591 343.852 55.5341C343.57 55.9062 343.18 56.3608 342.68 56.8977L340.719 58.9943V59.0625H344.776V60H339.271Z" fill="#2A2859"/>
</g>
</g>
<g clip-path="url(#clip13_6312_5479)">
<rect x="571" y="44" width="1" height="48" fill="#6FE9FF"/>
<g clip-path="url(#clip14_6312_5479)">
<rect x="559" y="44" width="24" height="24" rx="12" fill="#6FE9FF"/>
<path d="M570.98 60.1193C570.48 60.1193 570.03 60.0199 569.629 59.821C569.229 59.6222 568.908 59.3494 568.666 59.0028C568.425 58.6562 568.293 58.2614 568.27 57.8182H569.293C569.333 58.2131 569.512 58.5398 569.83 58.7983C570.151 59.054 570.534 59.1818 570.98 59.1818C571.338 59.1818 571.656 59.098 571.935 58.9304C572.216 58.7628 572.436 58.5327 572.595 58.2401C572.757 57.9446 572.838 57.6108 572.838 57.2386C572.838 56.858 572.754 56.5185 572.587 56.2202C572.422 55.919 572.195 55.6818 571.905 55.5085C571.615 55.3352 571.284 55.2472 570.912 55.2443C570.645 55.2415 570.371 55.2827 570.09 55.3679C569.808 55.4503 569.577 55.5568 569.395 55.6875L568.406 55.5682L568.935 51.2727H573.469V52.2102H569.821L569.514 54.7841H569.566C569.744 54.642 569.969 54.5241 570.239 54.4304C570.509 54.3366 570.79 54.2898 571.083 54.2898C571.617 54.2898 572.093 54.4176 572.51 54.6733C572.931 54.9261 573.26 55.2727 573.499 55.7131C573.74 56.1534 573.861 56.6562 573.861 57.2216C573.861 57.7784 573.736 58.2756 573.486 58.7131C573.239 59.1477 572.898 59.4915 572.463 59.7443C572.029 59.9943 571.534 60.1193 570.98 60.1193Z" fill="#2A2859"/>
</g>
</g>
<g clip-path="url(#clip15_6312_5479)">
<g clip-path="url(#clip16_6312_5479)">
<rect x="674" y="188" width="24" height="24" rx="12" fill="#6FE9FF"/>
<path d="M683.748 204L687.652 196.278V196.21H683.152V195.273H688.743V196.261L684.856 204H683.748Z" fill="#2A2859"/>
</g>
<rect x="686" y="140" width="1" height="48" fill="#6FE9FF"/>
</g>
<g clip-path="url(#clip17_6312_5479)">
<rect x="152" y="138" width="48" height="1" fill="#6FE9FF"/>
<g clip-path="url(#clip18_6312_5479)">
<rect x="152" y="126" width="24" height="24" rx="12" fill="#6FE9FF"/>
<path d="M164.057 142.119C163.699 142.114 163.341 142.045 162.983 141.915C162.625 141.784 162.298 141.564 162.003 141.254C161.708 140.942 161.47 140.52 161.291 139.989C161.112 139.455 161.023 138.784 161.023 137.977C161.023 137.205 161.095 136.52 161.24 135.923C161.385 135.324 161.595 134.82 161.871 134.411C162.146 133.999 162.479 133.686 162.868 133.473C163.26 133.26 163.702 133.153 164.193 133.153C164.682 133.153 165.117 133.251 165.497 133.447C165.881 133.641 166.193 133.911 166.435 134.257C166.676 134.604 166.833 135.003 166.904 135.455H165.864C165.767 135.062 165.58 134.737 165.301 134.479C165.023 134.22 164.654 134.091 164.193 134.091C163.517 134.091 162.985 134.385 162.595 134.973C162.209 135.561 162.014 136.386 162.012 137.449H162.08C162.239 137.207 162.428 137.001 162.646 136.831C162.868 136.658 163.112 136.524 163.379 136.43C163.646 136.337 163.929 136.29 164.227 136.29C164.727 136.29 165.185 136.415 165.6 136.665C166.014 136.912 166.347 137.254 166.597 137.692C166.847 138.126 166.972 138.625 166.972 139.188C166.972 139.727 166.851 140.222 166.61 140.67C166.368 141.116 166.029 141.472 165.591 141.736C165.156 141.997 164.645 142.125 164.057 142.119ZM164.057 141.182C164.415 141.182 164.736 141.092 165.02 140.913C165.307 140.734 165.533 140.494 165.698 140.193C165.865 139.892 165.949 139.557 165.949 139.188C165.949 138.827 165.868 138.499 165.706 138.203C165.547 137.905 165.327 137.668 165.046 137.491C164.767 137.315 164.449 137.227 164.091 137.227C163.821 137.227 163.57 137.281 163.337 137.389C163.104 137.494 162.899 137.639 162.723 137.824C162.55 138.009 162.414 138.22 162.314 138.459C162.215 138.695 162.165 138.943 162.165 139.205C162.165 139.551 162.246 139.875 162.408 140.176C162.573 140.477 162.797 140.72 163.081 140.905C163.368 141.089 163.693 141.182 164.057 141.182Z" fill="#2A2859"/>
</g>
</g>
</g>
<defs>
<clipPath id="clip0_6312_5479">
<rect width="742" height="168" fill="white" transform="translate(152 44)"/>
</clipPath>
<clipPath id="clip1_6312_5479">
<rect width="694" height="49" fill="white" transform="translate(200 92)"/>
</clipPath>
<clipPath id="clip2_6312_5479">
<rect width="20" height="20" fill="white" transform="translate(216 106)"/>
</clipPath>
<clipPath id="clip3_6312_5479">
<rect width="20" height="20" fill="white" transform="translate(390 106)"/>
</clipPath>
<clipPath id="clip4_6312_5479">
<rect width="20" height="20" fill="white" transform="translate(520 106)"/>
</clipPath>
<clipPath id="clip5_6312_5479">
<rect width="24" height="62" fill="white" transform="translate(388 44)"/>
</clipPath>
<clipPath id="clip6_6312_5479">
<rect x="388" y="44" width="24" height="24" rx="12" fill="white"/>
</clipPath>
<clipPath id="clip7_6312_5479">
<rect width="24" height="61" fill="white" transform="translate(439 44)"/>
</clipPath>
<clipPath id="clip8_6312_5479">
<rect x="439" y="44" width="24" height="24" rx="12" fill="white"/>
</clipPath>
<clipPath id="clip9_6312_5479">
<rect width="24" height="48" fill="white" transform="translate(275 44)"/>
</clipPath>
<clipPath id="clip10_6312_5479">
<rect x="275" y="44" width="24" height="24" rx="12" fill="white"/>
</clipPath>
<clipPath id="clip11_6312_5479">
<rect width="24" height="60" fill="white" transform="translate(330 44)"/>
</clipPath>
<clipPath id="clip12_6312_5479">
<rect x="330" y="44" width="24" height="24" rx="12" fill="white"/>
</clipPath>
<clipPath id="clip13_6312_5479">
<rect width="24" height="48" fill="white" transform="translate(559 44)"/>
</clipPath>
<clipPath id="clip14_6312_5479">
<rect x="559" y="44" width="24" height="24" rx="12" fill="white"/>
</clipPath>
<clipPath id="clip15_6312_5479">
<rect width="24" height="72" fill="white" transform="translate(674 140)"/>
</clipPath>
<clipPath id="clip16_6312_5479">
<rect x="674" y="188" width="24" height="24" rx="12" fill="white"/>
</clipPath>
<clipPath id="clip17_6312_5479">
<rect width="48" height="24" fill="white" transform="translate(152 126)"/>
</clipPath>
<clipPath id="clip18_6312_5479">
<rect x="152" y="126" width="24" height="24" rx="12" fill="white"/>
</clipPath>
</defs>
</svg>
