<svg width="898" height="368" viewBox="0 0 898 368" fill="none" xmlns="http://www.w3.org/2000/svg">
<rect width="898" height="368" fill="white"/>
<path d="M243.842 91.68H245.948V105H243.842V99.312H238.172V105H236.066V91.68H238.172V97.278H243.842V91.68ZM256.452 105H254.598C254.454 104.514 254.364 103.938 254.328 103.2C253.878 104.19 252.87 105.162 251.214 105.162C249.486 105.162 248.262 103.992 248.262 102.336C248.262 100.266 250.098 99.24 252.15 99.24C252.798 99.24 253.41 99.294 254.076 99.474V98.574C254.076 97.548 253.428 96.882 252.258 96.882C251.16 96.882 250.386 97.476 250.026 98.592L248.316 98.07C249 96.054 250.638 95.244 252.348 95.244C254.886 95.244 256.038 96.738 256.038 98.556V102.246C256.038 103.38 256.218 104.388 256.452 105ZM254.076 101.058V100.842C253.5 100.644 252.942 100.572 252.348 100.572C251.16 100.572 250.242 101.112 250.242 102.156C250.242 103.038 250.872 103.596 251.826 103.596C252.798 103.596 254.076 103.02 254.076 101.058ZM263.241 95.244C264.627 95.244 265.527 96.162 265.527 97.8V99.06L263.907 99.348V98.376C263.907 97.512 263.601 96.918 262.665 96.918C261.639 96.918 260.883 97.602 260.883 99.42V105H258.867V95.46H260.883V96.738C261.423 95.676 262.413 95.244 263.241 95.244ZM277.076 95.262C279.38 95.262 281.036 97.224 281.036 100.14C281.036 103.128 279.362 105.144 276.842 105.144C275.744 105.144 274.682 104.658 274.07 103.47V105H272.054V91.68H274.07V97.17C274.808 95.82 275.978 95.262 277.076 95.262ZM276.536 103.488C277.922 103.488 278.948 102.372 278.948 100.23C278.948 98.088 277.922 96.99 276.536 96.99C275.06 96.99 274.07 97.998 274.07 100.212C274.07 102.426 275.06 103.488 276.536 103.488ZM290.843 105H288.989C288.845 104.514 288.755 103.938 288.719 103.2C288.269 104.19 287.261 105.162 285.605 105.162C283.877 105.162 282.653 103.992 282.653 102.336C282.653 100.266 284.489 99.24 286.541 99.24C287.189 99.24 287.801 99.294 288.467 99.474V98.574C288.467 97.548 287.819 96.882 286.649 96.882C285.551 96.882 284.777 97.476 284.417 98.592L282.707 98.07C283.391 96.054 285.029 95.244 286.739 95.244C289.277 95.244 290.429 96.738 290.429 98.556V102.246C290.429 103.38 290.609 104.388 290.843 105ZM288.467 101.058V100.842C287.891 100.644 287.333 100.572 286.739 100.572C285.551 100.572 284.633 101.112 284.633 102.156C284.633 103.038 285.263 103.596 286.217 103.596C287.189 103.596 288.467 103.02 288.467 101.058ZM297.632 95.244C299.018 95.244 299.918 96.162 299.918 97.8V99.06L298.298 99.348V98.376C298.298 97.512 297.992 96.918 297.056 96.918C296.03 96.918 295.274 97.602 295.274 99.42V105H293.258V95.46H295.274V96.738C295.814 95.676 296.804 95.244 297.632 95.244ZM306.846 95.244C308.79 95.244 309.942 96.504 309.942 98.574V105H307.926V98.898C307.926 97.584 307.296 96.99 306.198 96.99C304.776 96.99 304.056 97.98 304.056 99.834V105H302.04V95.46H304.056V96.828C304.704 95.82 305.658 95.244 306.846 95.244ZM319.221 101.994L320.589 102.786C320.049 103.974 318.789 105.162 316.611 105.162C313.785 105.162 312.075 103.074 312.075 100.14C312.075 97.242 313.929 95.244 316.467 95.244C318.717 95.244 320.571 96.756 320.571 99.456L320.535 100.644H314.055C314.163 102.66 315.153 103.524 316.737 103.524C317.907 103.524 318.717 102.894 319.221 101.994ZM316.467 96.828C315.243 96.828 314.217 97.476 314.055 99.204H318.609C318.627 97.512 317.583 96.828 316.467 96.828ZM325.381 102.048C325.381 103.11 326.029 103.434 326.695 103.434C327.217 103.434 327.631 103.218 328.045 102.804L328.909 104.1C328.189 104.82 327.397 105.162 326.371 105.162C324.715 105.162 323.365 104.154 323.365 102.174V97.026H321.691V95.46H323.365V93.336L325.381 92.418V95.46H328.747V97.026H325.381V102.048ZM341.145 95.46H343.233L339.579 105H337.509L333.873 95.46H336.105L338.625 102.894L341.145 95.46ZM351.028 101.994L352.396 102.786C351.856 103.974 350.596 105.162 348.418 105.162C345.592 105.162 343.882 103.074 343.882 100.14C343.882 97.242 345.736 95.244 348.274 95.244C350.524 95.244 352.378 96.756 352.378 99.456L352.342 100.644H345.862C345.97 102.66 346.96 103.524 348.544 103.524C349.714 103.524 350.524 102.894 351.028 101.994ZM348.274 96.828C347.05 96.828 346.024 97.476 345.862 99.204H350.416C350.434 97.512 349.39 96.828 348.274 96.828ZM361.019 91.68H363.035V105H361.019V103.272C360.281 104.604 359.129 105.144 358.031 105.144C355.727 105.144 354.071 103.164 354.071 100.266C354.071 97.26 355.745 95.262 358.265 95.262C359.345 95.262 360.425 95.748 361.019 96.918V91.68ZM358.571 103.38C360.029 103.38 361.019 102.39 361.019 100.158C361.019 97.944 360.047 96.882 358.571 96.882C357.185 96.882 356.159 97.998 356.159 100.158C356.159 102.3 357.185 103.38 358.571 103.38ZM368.379 102.048C368.379 103.11 369.027 103.434 369.693 103.434C370.215 103.434 370.629 103.218 371.043 102.804L371.907 104.1C371.187 104.82 370.395 105.162 369.369 105.162C367.713 105.162 366.363 104.154 366.363 102.174V97.026H364.689V95.46H366.363V93.336L368.379 92.418V95.46H371.745V97.026H368.379V102.048ZM381.076 105H379.222C379.078 104.514 378.988 103.938 378.952 103.2C378.502 104.19 377.494 105.162 375.838 105.162C374.11 105.162 372.886 103.992 372.886 102.336C372.886 100.266 374.722 99.24 376.774 99.24C377.422 99.24 378.034 99.294 378.7 99.474V98.574C378.7 97.548 378.052 96.882 376.882 96.882C375.784 96.882 375.01 97.476 374.65 98.592L372.94 98.07C373.624 96.054 375.262 95.244 376.972 95.244C379.51 95.244 380.662 96.738 380.662 98.556V102.246C380.662 103.38 380.842 104.388 381.076 105ZM378.7 101.058V100.842C378.124 100.644 377.566 100.572 376.972 100.572C375.784 100.572 374.866 101.112 374.866 102.156C374.866 103.038 375.496 103.596 376.45 103.596C377.422 103.596 378.7 103.02 378.7 101.058ZM389.502 105L386.604 100.626L385.506 101.706V105H383.49V91.68H385.506V99.42L389.358 95.46H391.842L387.936 99.312L391.914 105H389.502ZM400.785 94.596V95.46H403.467V97.026H400.785V105H398.769V97.026H397.095V95.46H398.769V94.686C398.769 92.616 400.119 91.41 401.991 91.41C402.873 91.41 403.755 91.77 404.277 92.418L403.323 93.75C403.035 93.39 402.603 93.174 402.135 93.174C401.397 93.174 400.785 93.606 400.785 94.596ZM409.448 95.244C410.834 95.244 411.734 96.162 411.734 97.8V99.06L410.114 99.348V98.376C410.114 97.512 409.808 96.918 408.872 96.918C407.846 96.918 407.09 97.602 407.09 99.42V105H405.074V95.46H407.09V96.738C407.63 95.676 408.62 95.244 409.448 95.244ZM420.892 105H419.038C418.894 104.514 418.804 103.938 418.768 103.2C418.318 104.19 417.31 105.162 415.654 105.162C413.926 105.162 412.702 103.992 412.702 102.336C412.702 100.266 414.538 99.24 416.59 99.24C417.238 99.24 417.85 99.294 418.516 99.474V98.574C418.516 97.548 417.868 96.882 416.698 96.882C415.6 96.882 414.826 97.476 414.466 98.592L412.756 98.07C413.44 96.054 415.078 95.244 416.788 95.244C419.326 95.244 420.478 96.738 420.478 98.556V102.246C420.478 103.38 420.658 104.388 420.892 105ZM418.516 101.058V100.842C417.94 100.644 417.382 100.572 416.788 100.572C415.6 100.572 414.682 101.112 414.682 102.156C414.682 103.038 415.312 103.596 416.266 103.596C417.238 103.596 418.516 103.02 418.516 101.058ZM432.734 95.262C435.038 95.262 436.694 97.224 436.694 100.14C436.694 103.128 435.02 105.144 432.5 105.144C431.402 105.144 430.34 104.658 429.728 103.47V105H427.712V91.68H429.728V97.17C430.466 95.82 431.636 95.262 432.734 95.262ZM432.194 103.488C433.58 103.488 434.606 102.372 434.606 100.23C434.606 98.088 433.58 96.99 432.194 96.99C430.718 96.99 429.728 97.998 429.728 100.212C429.728 102.426 430.718 103.488 432.194 103.488ZM446.501 105H444.647C444.503 104.514 444.413 103.938 444.377 103.2C443.927 104.19 442.919 105.162 441.263 105.162C439.535 105.162 438.311 103.992 438.311 102.336C438.311 100.266 440.147 99.24 442.199 99.24C442.847 99.24 443.459 99.294 444.125 99.474V98.574C444.125 97.548 443.477 96.882 442.307 96.882C441.209 96.882 440.435 97.476 440.075 98.592L438.365 98.07C439.049 96.054 440.687 95.244 442.397 95.244C444.935 95.244 446.087 96.738 446.087 98.556V102.246C446.087 103.38 446.267 104.388 446.501 105ZM444.125 101.058V100.842C443.549 100.644 442.991 100.572 442.397 100.572C441.209 100.572 440.291 101.112 440.291 102.156C440.291 103.038 440.921 103.596 441.875 103.596C442.847 103.596 444.125 103.02 444.125 101.058ZM453.29 95.244C454.676 95.244 455.576 96.162 455.576 97.8V99.06L453.956 99.348V98.376C453.956 97.512 453.65 96.918 452.714 96.918C451.688 96.918 450.932 97.602 450.932 99.42V105H448.916V95.46H450.932V96.738C451.472 95.676 452.462 95.244 453.29 95.244ZM462.504 95.244C464.448 95.244 465.6 96.504 465.6 98.574V105H463.584V98.898C463.584 97.584 462.954 96.99 461.856 96.99C460.434 96.99 459.714 97.98 459.714 99.834V105H457.698V95.46H459.714V96.828C460.362 95.82 461.316 95.244 462.504 95.244ZM474.878 101.994L476.246 102.786C475.706 103.974 474.446 105.162 472.268 105.162C469.442 105.162 467.732 103.074 467.732 100.14C467.732 97.242 469.586 95.244 472.124 95.244C474.374 95.244 476.228 96.756 476.228 99.456L476.192 100.644H469.712C469.82 102.66 470.81 103.524 472.394 103.524C473.564 103.524 474.374 102.894 474.878 101.994ZM472.124 96.828C470.9 96.828 469.874 97.476 469.712 99.204H474.266C474.284 97.512 473.24 96.828 472.124 96.828ZM484.212 95.46H486.3L482.646 105H480.576L476.94 95.46H479.172L481.692 102.894L484.212 95.46ZM494.096 101.994L495.464 102.786C494.924 103.974 493.664 105.162 491.486 105.162C488.66 105.162 486.95 103.074 486.95 100.14C486.95 97.242 488.804 95.244 491.342 95.244C493.592 95.244 495.446 96.756 495.446 99.456L495.41 100.644H488.93C489.038 102.66 490.028 103.524 491.612 103.524C492.782 103.524 493.592 102.894 494.096 101.994ZM491.342 96.828C490.118 96.828 489.092 97.476 488.93 99.204H493.484C493.502 97.512 492.458 96.828 491.342 96.828ZM502.106 95.244C503.492 95.244 504.392 96.162 504.392 97.8V99.06L502.772 99.348V98.376C502.772 97.512 502.466 96.918 501.53 96.918C500.504 96.918 499.748 97.602 499.748 99.42V105H497.732V95.46H499.748V96.738C500.288 95.676 501.278 95.244 502.106 95.244ZM511.321 95.244C513.265 95.244 514.417 96.504 514.417 98.574V105H512.401V98.898C512.401 97.584 511.771 96.99 510.673 96.99C509.251 96.99 508.531 97.98 508.531 99.834V105H506.515V95.46H508.531V96.828C509.179 95.82 510.133 95.244 511.321 95.244ZM523.695 101.994L525.063 102.786C524.523 103.974 523.263 105.162 521.085 105.162C518.259 105.162 516.549 103.074 516.549 100.14C516.549 97.242 518.403 95.244 520.941 95.244C523.191 95.244 525.045 96.756 525.045 99.456L525.009 100.644H518.529C518.637 102.66 519.627 103.524 521.211 103.524C522.381 103.524 523.191 102.894 523.695 101.994ZM520.941 96.828C519.717 96.828 518.691 97.476 518.529 99.204H523.083C523.101 97.512 522.057 96.828 520.941 96.828ZM529.856 102.048C529.856 103.11 530.504 103.434 531.17 103.434C531.692 103.434 532.106 103.218 532.52 102.804L533.384 104.1C532.664 104.82 531.872 105.162 530.846 105.162C529.19 105.162 527.84 104.154 527.84 102.174V97.026H526.166V95.46H527.84V93.336L529.856 92.418V95.46H533.222V97.026H529.856V102.048ZM538.549 91.5C541.033 91.5 542.779 92.922 542.779 95.19C542.779 97.44 541.033 98.664 539.053 99.222L539.017 100.77H537.379L537.271 98.07C539.215 97.782 540.619 97.044 540.619 95.298C540.619 94.128 539.809 93.372 538.477 93.372C537.271 93.372 536.353 94.038 535.759 95.226L534.031 94.488C534.967 92.49 536.677 91.5 538.549 91.5ZM538.189 102.102C539.053 102.102 539.701 102.768 539.701 103.614C539.701 104.46 539.053 105.126 538.189 105.126C537.343 105.126 536.695 104.46 536.695 103.614C536.695 102.768 537.343 102.102 538.189 102.102Z" fill="#2A2859"/>
<path d="M241.976 126.64H242.956V137H241.976V132.24H236.712V137H235.732V126.64H236.712V131.316H241.976V126.64ZM250.129 129.58H251.109L248.197 137H247.357L244.445 129.58H245.481L247.805 135.95L250.129 129.58ZM257.818 137H256.95C256.838 136.594 256.754 136.104 256.754 135.544C256.376 136.412 255.41 137.112 254.206 137.112C252.89 137.112 251.896 136.258 251.896 134.984C251.896 133.458 253.268 132.66 254.794 132.66C255.396 132.66 255.984 132.73 256.586 132.94V131.96C256.586 130.994 255.998 130.336 254.85 130.336C253.926 130.336 253.142 130.742 252.75 131.876L251.91 131.624C252.47 130.056 253.604 129.468 254.906 129.468C256.74 129.468 257.51 130.574 257.51 131.848V134.9C257.51 135.74 257.65 136.496 257.818 137ZM256.586 133.92V133.752C256.012 133.514 255.424 133.444 254.85 133.444C253.73 133.444 252.848 133.948 252.848 134.928C252.848 135.824 253.478 136.3 254.374 136.3C255.34 136.3 256.586 135.726 256.586 133.92ZM270.891 129.468C272.305 129.468 273.131 130.364 273.131 131.904V137H272.179V132.044C272.179 130.84 271.605 130.336 270.639 130.336C269.337 130.336 268.791 131.344 268.791 132.828V137H267.839V132.044C267.839 130.84 267.265 130.336 266.299 130.336C264.997 130.336 264.451 131.344 264.451 132.828V137H263.499V129.58H264.451V130.742C264.899 129.916 265.683 129.468 266.551 129.468C267.657 129.468 268.399 130.014 268.665 130.98C269.085 130 269.939 129.468 270.891 129.468ZM280.489 134.9L281.189 135.292C280.839 136.188 279.915 137.112 278.263 137.112C276.177 137.112 274.945 135.558 274.945 133.192C274.945 131.022 276.233 129.468 278.165 129.468C279.761 129.468 281.133 130.616 281.133 132.632L281.105 133.458H275.911C275.995 135.432 276.933 136.272 278.361 136.272C279.481 136.272 280.139 135.628 280.489 134.9ZM278.165 130.308C277.045 130.308 276.037 130.91 275.911 132.674H280.195C280.237 131.008 279.257 130.308 278.165 130.308ZM286.253 129.468C287.737 129.468 288.605 130.378 288.605 132.044V137H287.653V132.184C287.653 130.84 287.037 130.336 286.001 130.336C284.699 130.336 284.097 131.344 284.097 132.828V137H283.145V129.58H284.097V130.728C284.545 129.916 285.357 129.468 286.253 129.468ZM295.965 134.9L296.665 135.292C296.315 136.188 295.391 137.112 293.739 137.112C291.653 137.112 290.421 135.558 290.421 133.192C290.421 131.022 291.709 129.468 293.641 129.468C295.237 129.468 296.609 130.616 296.609 132.632L296.581 133.458H291.387C291.471 135.432 292.409 136.272 293.837 136.272C294.957 136.272 295.615 135.628 295.965 134.9ZM293.641 130.308C292.521 130.308 291.513 130.91 291.387 132.674H295.671C295.713 131.008 294.733 130.308 293.641 130.308ZM301.282 129.468C302.248 129.468 302.948 130.112 302.948 131.372V132.1L302.08 132.268V131.54C302.08 130.798 301.828 130.308 301.072 130.308C300.218 130.308 299.574 130.938 299.574 132.436V137H298.622V129.58H299.574V130.504C299.966 129.804 300.624 129.468 301.282 129.468ZM313.143 129.58H314.123L311.211 137H310.371L307.459 129.58H308.495L310.819 135.95L313.143 129.58ZM316.051 128.236C315.589 128.236 315.211 127.872 315.211 127.396C315.211 126.92 315.589 126.556 316.051 126.556C316.513 126.556 316.891 126.92 316.891 127.396C316.891 127.872 316.513 128.236 316.051 128.236ZM315.575 137V129.58H316.527V137H315.575ZM329.912 129.468C331.326 129.468 332.152 130.364 332.152 131.904V137H331.2V132.044C331.2 130.84 330.626 130.336 329.66 130.336C328.358 130.336 327.812 131.344 327.812 132.828V137H326.86V132.044C326.86 130.84 326.286 130.336 325.32 130.336C324.018 130.336 323.472 131.344 323.472 132.828V137H322.52V129.58H323.472V130.742C323.92 129.916 324.704 129.468 325.572 129.468C326.678 129.468 327.42 130.014 327.686 130.98C328.106 130 328.96 129.468 329.912 129.468ZM339.51 134.9L340.21 135.292C339.86 136.188 338.936 137.112 337.284 137.112C335.198 137.112 333.966 135.558 333.966 133.192C333.966 131.022 335.254 129.468 337.186 129.468C338.782 129.468 340.154 130.616 340.154 132.632L340.126 133.458H334.932C335.016 135.432 335.954 136.272 337.382 136.272C338.502 136.272 339.16 135.628 339.51 134.9ZM337.186 130.308C336.066 130.308 335.058 130.91 334.932 132.674H339.216C339.258 131.008 338.278 130.308 337.186 130.308ZM347.291 126.64H348.243V137H347.291V135.614C346.801 136.566 345.821 137.098 344.855 137.098C342.965 137.098 341.691 135.516 341.691 133.36C341.691 131.078 342.979 129.468 344.967 129.468C346.003 129.468 346.843 129.986 347.291 130.924V126.64ZM344.953 136.258C346.437 136.258 347.291 135.152 347.291 133.332C347.291 131.4 346.451 130.308 344.967 130.308C343.581 130.308 342.671 131.372 342.671 133.318C342.671 135.194 343.581 136.258 344.953 136.258ZM358.903 129.58H359.883L356.971 137H356.131L353.219 129.58H354.255L356.579 135.95L358.903 129.58ZM366.129 134.9L366.829 135.292C366.479 136.188 365.555 137.112 363.903 137.112C361.817 137.112 360.585 135.558 360.585 133.192C360.585 131.022 361.873 129.468 363.805 129.468C365.401 129.468 366.773 130.616 366.773 132.632L366.745 133.458H361.551C361.635 135.432 362.573 136.272 364.001 136.272C365.121 136.272 365.779 135.628 366.129 134.9ZM363.805 130.308C362.685 130.308 361.677 130.91 361.551 132.674H365.835C365.877 131.008 364.897 130.308 363.805 130.308ZM373.91 126.64H374.862V137H373.91V135.614C373.42 136.566 372.44 137.098 371.474 137.098C369.584 137.098 368.31 135.516 368.31 133.36C368.31 131.078 369.598 129.468 371.586 129.468C372.622 129.468 373.462 129.986 373.91 130.924V126.64ZM371.572 136.258C373.056 136.258 373.91 135.152 373.91 133.332C373.91 131.4 373.07 130.308 371.586 130.308C370.2 130.308 369.29 131.372 369.29 133.318C369.29 135.194 370.2 136.258 371.572 136.258ZM378.692 135.152C378.692 136.02 379.21 136.272 379.672 136.272C380.12 136.272 380.414 136.104 380.764 135.74L381.268 136.3C380.778 136.874 380.246 137.112 379.588 137.112C378.58 137.112 377.74 136.44 377.74 135.124V130.364H376.34V129.58H377.74V127.984L378.692 127.424V129.58H381.1V130.364H378.692V135.152ZM388.152 137H387.284C387.172 136.594 387.088 136.104 387.088 135.544C386.71 136.412 385.744 137.112 384.54 137.112C383.224 137.112 382.23 136.258 382.23 134.984C382.23 133.458 383.602 132.66 385.128 132.66C385.73 132.66 386.318 132.73 386.92 132.94V131.96C386.92 130.994 386.332 130.336 385.184 130.336C384.26 130.336 383.476 130.742 383.084 131.876L382.244 131.624C382.804 130.056 383.938 129.468 385.24 129.468C387.074 129.468 387.844 130.574 387.844 131.848V134.9C387.844 135.74 387.984 136.496 388.152 137ZM386.92 133.92V133.752C386.346 133.514 385.758 133.444 385.184 133.444C384.064 133.444 383.182 133.948 383.182 134.928C383.182 135.824 383.812 136.3 384.708 136.3C385.674 136.3 386.92 135.726 386.92 133.92ZM394.871 137L392.141 133.318L391.231 134.186V137H390.279V126.64H391.231V133.066L394.759 129.58H396.019L392.785 132.688L396.075 137H394.871ZM402.741 128.544V129.58H404.813V130.364H402.741V137H401.789V130.364H400.389V129.58H401.789V128.544C401.789 127.256 402.629 126.528 403.777 126.528C404.309 126.528 404.925 126.738 405.275 127.298L404.701 127.872C404.477 127.536 404.141 127.34 403.749 127.34C403.259 127.34 402.741 127.634 402.741 128.544ZM408.921 129.468C409.887 129.468 410.587 130.112 410.587 131.372V132.1L409.719 132.268V131.54C409.719 130.798 409.467 130.308 408.711 130.308C407.857 130.308 407.213 130.938 407.213 132.436V137H406.261V129.58H407.213V130.504C407.605 129.804 408.263 129.468 408.921 129.468ZM417.574 137H416.706C416.594 136.594 416.51 136.104 416.51 135.544C416.132 136.412 415.166 137.112 413.962 137.112C412.646 137.112 411.652 136.258 411.652 134.984C411.652 133.458 413.024 132.66 414.55 132.66C415.152 132.66 415.74 132.73 416.342 132.94V131.96C416.342 130.994 415.754 130.336 414.606 130.336C413.682 130.336 412.898 130.742 412.506 131.876L411.666 131.624C412.226 130.056 413.36 129.468 414.662 129.468C416.496 129.468 417.266 130.574 417.266 131.848V134.9C417.266 135.74 417.406 136.496 417.574 137ZM416.342 133.92V133.752C415.768 133.514 415.18 133.444 414.606 133.444C413.486 133.444 412.604 133.948 412.604 134.928C412.604 135.824 413.234 136.3 414.13 136.3C415.096 136.3 416.342 135.726 416.342 133.92ZM426.671 129.482C428.561 129.482 429.835 131.064 429.835 133.22C429.835 135.502 428.547 137.112 426.559 137.112C425.523 137.112 424.683 136.594 424.235 135.656V137H423.283V126.64H424.235V130.966C424.725 130.014 425.705 129.482 426.671 129.482ZM426.559 136.272C427.945 136.272 428.855 135.208 428.855 133.262C428.855 131.386 427.945 130.322 426.573 130.322C425.089 130.322 424.235 131.428 424.235 133.248C424.235 135.18 425.075 136.272 426.559 136.272ZM437.302 137H436.434C436.322 136.594 436.238 136.104 436.238 135.544C435.86 136.412 434.894 137.112 433.69 137.112C432.374 137.112 431.38 136.258 431.38 134.984C431.38 133.458 432.752 132.66 434.278 132.66C434.88 132.66 435.468 132.73 436.07 132.94V131.96C436.07 130.994 435.482 130.336 434.334 130.336C433.41 130.336 432.626 130.742 432.234 131.876L431.394 131.624C431.954 130.056 433.088 129.468 434.39 129.468C436.224 129.468 436.994 130.574 436.994 131.848V134.9C436.994 135.74 437.134 136.496 437.302 137ZM436.07 133.92V133.752C435.496 133.514 434.908 133.444 434.334 133.444C433.214 133.444 432.332 133.948 432.332 134.928C432.332 135.824 432.962 136.3 433.858 136.3C434.824 136.3 436.07 135.726 436.07 133.92ZM442.061 129.468C443.027 129.468 443.727 130.112 443.727 131.372V132.1L442.859 132.268V131.54C442.859 130.798 442.607 130.308 441.851 130.308C440.997 130.308 440.353 130.938 440.353 132.436V137H439.401V129.58H440.353V130.504C440.745 129.804 441.403 129.468 442.061 129.468ZM448.716 129.468C450.2 129.468 451.068 130.378 451.068 132.044V137H450.116V132.184C450.116 130.84 449.5 130.336 448.464 130.336C447.162 130.336 446.56 131.344 446.56 132.828V137H445.608V129.58H446.56V130.728C447.008 129.916 447.82 129.468 448.716 129.468ZM458.428 134.9L459.128 135.292C458.778 136.188 457.854 137.112 456.202 137.112C454.116 137.112 452.884 135.558 452.884 133.192C452.884 131.022 454.172 129.468 456.104 129.468C457.7 129.468 459.072 130.616 459.072 132.632L459.044 133.458H453.85C453.934 135.432 454.872 136.272 456.3 136.272C457.42 136.272 458.078 135.628 458.428 134.9ZM456.104 130.308C454.984 130.308 453.976 130.91 453.85 132.674H458.134C458.176 131.008 457.196 130.308 456.104 130.308ZM465.68 129.58H466.66L463.748 137H462.908L459.996 129.58H461.032L463.356 135.95L465.68 129.58ZM472.907 134.9L473.607 135.292C473.257 136.188 472.333 137.112 470.681 137.112C468.595 137.112 467.363 135.558 467.363 133.192C467.363 131.022 468.651 129.468 470.583 129.468C472.179 129.468 473.551 130.616 473.551 132.632L473.523 133.458H468.329C468.413 135.432 469.351 136.272 470.779 136.272C471.899 136.272 472.557 135.628 472.907 134.9ZM470.583 130.308C469.463 130.308 468.455 130.91 468.329 132.674H472.613C472.655 131.008 471.675 130.308 470.583 130.308ZM478.223 129.468C479.189 129.468 479.889 130.112 479.889 131.372V132.1L479.021 132.268V131.54C479.021 130.798 478.769 130.308 478.013 130.308C477.159 130.308 476.515 130.938 476.515 132.436V137H475.563V129.58H476.515V130.504C476.907 129.804 477.565 129.468 478.223 129.468ZM484.878 129.468C486.362 129.468 487.23 130.378 487.23 132.044V137H486.278V132.184C486.278 130.84 485.662 130.336 484.626 130.336C483.324 130.336 482.722 131.344 482.722 132.828V137H481.77V129.58H482.722V130.728C483.17 129.916 483.982 129.468 484.878 129.468ZM494.59 134.9L495.29 135.292C494.94 136.188 494.016 137.112 492.364 137.112C490.278 137.112 489.046 135.558 489.046 133.192C489.046 131.022 490.334 129.468 492.266 129.468C493.862 129.468 495.234 130.616 495.234 132.632L495.206 133.458H490.012C490.096 135.432 491.034 136.272 492.462 136.272C493.582 136.272 494.24 135.628 494.59 134.9ZM492.266 130.308C491.146 130.308 490.138 130.91 490.012 132.674H494.296C494.338 131.008 493.358 130.308 492.266 130.308ZM498.594 135.152C498.594 136.02 499.112 136.272 499.574 136.272C500.022 136.272 500.316 136.104 500.666 135.74L501.17 136.3C500.68 136.874 500.148 137.112 499.49 137.112C498.482 137.112 497.642 136.44 497.642 135.124V130.364H496.242V129.58H497.642V127.984L498.594 127.424V129.58H501.002V130.364H498.594V135.152ZM505.094 126.528C506.928 126.528 508.16 127.676 508.16 129.314C508.16 131.022 506.858 132.03 505.164 132.45L505.136 133.92H504.352L504.296 131.82C506.06 131.526 507.222 130.854 507.222 129.3C507.222 128.096 506.382 127.396 505.052 127.396C504.114 127.396 503.246 127.9 502.644 128.908L501.874 128.46C502.686 127.172 503.848 126.528 505.094 126.528ZM504.758 135.292C505.262 135.292 505.654 135.67 505.654 136.188C505.654 136.706 505.262 137.084 504.758 137.084C504.254 137.084 503.862 136.706 503.862 136.188C503.862 135.67 504.254 135.292 504.758 135.292Z" fill="#2A2859"/>
<path fill-rule="evenodd" clip-rule="evenodd" d="M526.5 131.08L521.06 136.375L520.312 135.647L526.5 129.625L532.688 135.647L531.94 136.375L526.5 131.08Z" fill="#2A2859"/>
<path d="M255.988 171.112C253.216 171.112 251.2 169.04 251.2 165.764C251.2 162.586 253.314 160.528 255.904 160.528C257.724 160.528 259.012 161.368 259.614 162.796L258.718 163.216C258.2 162.054 257.108 161.452 255.876 161.452C253.846 161.452 252.208 162.908 252.208 165.764C252.208 168.62 253.776 170.244 256.03 170.244C257.178 170.244 257.976 170.006 258.732 169.544V166.436H254.924V165.54H259.628V169.936C258.774 170.692 257.36 171.112 255.988 171.112ZM262.378 162.236C261.916 162.236 261.538 161.872 261.538 161.396C261.538 160.92 261.916 160.556 262.378 160.556C262.84 160.556 263.218 160.92 263.218 161.396C263.218 161.872 262.84 162.236 262.378 162.236ZM261.258 174.038C261.006 174.038 260.768 173.996 260.53 173.926L260.614 173.086C260.81 173.156 260.992 173.17 261.118 173.17C261.776 173.17 261.902 172.722 261.902 172.078V163.58H262.854V172.134C262.854 173.394 262.308 174.038 261.258 174.038ZM270.335 168.9L271.035 169.292C270.685 170.188 269.761 171.112 268.109 171.112C266.023 171.112 264.791 169.558 264.791 167.192C264.791 165.022 266.079 163.468 268.011 163.468C269.607 163.468 270.979 164.616 270.979 166.632L270.951 167.458H265.757C265.841 169.432 266.779 170.272 268.207 170.272C269.327 170.272 269.985 169.628 270.335 168.9ZM268.011 164.308C266.891 164.308 265.883 164.91 265.757 166.674H270.041C270.083 165.008 269.103 164.308 268.011 164.308ZM275.315 170.972C275.091 171.028 274.909 171.056 274.699 171.056C273.537 171.056 272.991 170.328 272.991 169.236V160.64H273.943V169.236C273.943 169.866 274.279 170.188 274.867 170.188C275.021 170.188 275.175 170.174 275.315 170.132V170.972ZM281.957 160.64H282.909V171H281.957V169.614C281.467 170.566 280.487 171.098 279.521 171.098C277.631 171.098 276.357 169.516 276.357 167.36C276.357 165.078 277.645 163.468 279.633 163.468C280.669 163.468 281.509 163.986 281.957 164.924V160.64ZM279.619 170.258C281.103 170.258 281.957 169.152 281.957 167.332C281.957 165.4 281.117 164.308 279.633 164.308C278.247 164.308 277.337 165.372 277.337 167.318C277.337 169.194 278.247 170.258 279.619 170.258ZM290.323 168.9L291.023 169.292C290.673 170.188 289.749 171.112 288.097 171.112C286.011 171.112 284.779 169.558 284.779 167.192C284.779 165.022 286.067 163.468 287.999 163.468C289.595 163.468 290.967 164.616 290.967 166.632L290.939 167.458H285.745C285.829 169.432 286.767 170.272 288.195 170.272C289.315 170.272 289.973 169.628 290.323 168.9ZM287.999 164.308C286.879 164.308 285.871 164.91 285.745 166.674H290.029C290.071 165.008 289.091 164.308 287.999 164.308ZM295.639 163.468C296.605 163.468 297.305 164.112 297.305 165.372V166.1L296.437 166.268V165.54C296.437 164.798 296.185 164.308 295.429 164.308C294.575 164.308 293.931 164.938 293.931 166.436V171H292.979V163.58H293.931V164.504C294.323 163.804 294.981 163.468 295.639 163.468ZM307.5 163.58H308.48L305.568 171H304.728L301.816 163.58H302.852L305.176 169.95L307.5 163.58ZM314.727 168.9L315.427 169.292C315.077 170.188 314.153 171.112 312.501 171.112C310.415 171.112 309.183 169.558 309.183 167.192C309.183 165.022 310.471 163.468 312.403 163.468C313.999 163.468 315.371 164.616 315.371 166.632L315.343 167.458H310.149C310.233 169.432 311.171 170.272 312.599 170.272C313.719 170.272 314.377 169.628 314.727 168.9ZM312.403 164.308C311.283 164.308 310.275 164.91 310.149 166.674H314.433C314.475 165.008 313.495 164.308 312.403 164.308ZM322.508 160.64H323.46V171H322.508V169.614C322.018 170.566 321.038 171.098 320.072 171.098C318.182 171.098 316.908 169.516 316.908 167.36C316.908 165.078 318.196 163.468 320.184 163.468C321.22 163.468 322.06 163.986 322.508 164.924V160.64ZM320.17 170.258C321.654 170.258 322.508 169.152 322.508 167.332C322.508 165.4 321.668 164.308 320.184 164.308C318.798 164.308 317.888 165.372 317.888 167.318C317.888 169.194 318.798 170.258 320.17 170.258ZM327.29 169.152C327.29 170.02 327.808 170.272 328.27 170.272C328.718 170.272 329.012 170.104 329.362 169.74L329.866 170.3C329.376 170.874 328.844 171.112 328.186 171.112C327.178 171.112 326.338 170.44 326.338 169.124V164.364H324.938V163.58H326.338V161.984L327.29 161.424V163.58H329.698V164.364H327.29V169.152ZM336.75 171H335.882C335.77 170.594 335.686 170.104 335.686 169.544C335.308 170.412 334.342 171.112 333.138 171.112C331.822 171.112 330.828 170.258 330.828 168.984C330.828 167.458 332.2 166.66 333.726 166.66C334.328 166.66 334.916 166.73 335.518 166.94V165.96C335.518 164.994 334.93 164.336 333.782 164.336C332.858 164.336 332.074 164.742 331.682 165.876L330.842 165.624C331.402 164.056 332.536 163.468 333.838 163.468C335.672 163.468 336.442 164.574 336.442 165.848V168.9C336.442 169.74 336.582 170.496 336.75 171ZM335.518 167.92V167.752C334.944 167.514 334.356 167.444 333.782 167.444C332.662 167.444 331.78 167.948 331.78 168.928C331.78 169.824 332.41 170.3 333.306 170.3C334.272 170.3 335.518 169.726 335.518 167.92ZM343.469 171L340.739 167.318L339.829 168.186V171H338.877V160.64H339.829V167.066L343.357 163.58H344.617L341.383 166.688L344.673 171H343.469ZM352.682 171.112C350.848 171.112 349.378 169.6 349.378 167.276C349.378 164.98 350.834 163.468 352.682 163.468C354.53 163.468 355.986 164.98 355.986 167.276C355.986 169.6 354.516 171.112 352.682 171.112ZM352.682 170.272C353.956 170.272 355.006 169.264 355.006 167.276C355.006 165.302 353.942 164.308 352.682 164.308C351.422 164.308 350.358 165.302 350.358 167.276C350.358 169.264 351.408 170.272 352.682 170.272ZM365.313 163.468C366.727 163.468 367.553 164.364 367.553 165.904V171H366.601V166.044C366.601 164.84 366.027 164.336 365.061 164.336C363.759 164.336 363.213 165.344 363.213 166.828V171H362.261V166.044C362.261 164.84 361.687 164.336 360.721 164.336C359.419 164.336 358.873 165.344 358.873 166.828V171H357.921V163.58H358.873V164.742C359.321 163.916 360.105 163.468 360.973 163.468C362.079 163.468 362.821 164.014 363.087 164.98C363.507 164 364.361 163.468 365.313 163.468ZM376.253 171.112C374.419 171.112 372.949 169.6 372.949 167.276C372.949 164.98 374.405 163.468 376.253 163.468C378.101 163.468 379.557 164.98 379.557 167.276C379.557 169.6 378.087 171.112 376.253 171.112ZM376.253 170.272C377.527 170.272 378.577 169.264 378.577 167.276C378.577 165.302 377.513 164.308 376.253 164.308C374.993 164.308 373.929 165.302 373.929 167.276C373.929 169.264 374.979 170.272 376.253 170.272ZM388.883 163.468C390.297 163.468 391.123 164.364 391.123 165.904V171H390.171V166.044C390.171 164.84 389.597 164.336 388.631 164.336C387.329 164.336 386.783 165.344 386.783 166.828V171H385.831V166.044C385.831 164.84 385.257 164.336 384.291 164.336C382.989 164.336 382.443 165.344 382.443 166.828V171H381.491V163.58H382.443V164.742C382.891 163.916 383.675 163.468 384.543 163.468C385.649 163.468 386.391 164.014 386.657 164.98C387.077 164 387.931 163.468 388.883 163.468ZM393.049 165.512C393.049 164.336 394.155 163.468 395.709 163.468C397.053 163.468 398.089 164.112 398.397 165.092L397.613 165.4C397.319 164.686 396.633 164.308 395.681 164.308C394.645 164.308 393.973 164.742 393.973 165.428C393.973 166.044 394.379 166.422 395.261 166.604L396.241 166.8C397.865 167.122 398.621 167.822 398.621 168.928C398.621 170.216 397.473 171.112 395.821 171.112C394.323 171.112 393.273 170.524 392.769 169.404L393.581 169.068C393.931 169.852 394.701 170.272 395.793 170.272C396.941 170.272 397.697 169.768 397.697 169.012C397.697 168.312 397.305 167.934 396.325 167.724L395.121 167.472C393.763 167.192 393.049 166.506 393.049 165.512ZM403.323 171.112C401.489 171.112 400.019 169.6 400.019 167.276C400.019 164.98 401.475 163.468 403.323 163.468C405.171 163.468 406.627 164.98 406.627 167.276C406.627 169.6 405.157 171.112 403.323 171.112ZM403.323 170.272C404.597 170.272 405.647 169.264 405.647 167.276C405.647 165.302 404.583 164.308 403.323 164.308C402.063 164.308 400.999 165.302 400.999 167.276C400.999 169.264 402.049 170.272 403.323 170.272ZM411.221 163.468C412.187 163.468 412.887 164.112 412.887 165.372V166.1L412.019 166.268V165.54C412.019 164.798 411.767 164.308 411.011 164.308C410.157 164.308 409.513 164.938 409.513 166.436V171H408.561V163.58H409.513V164.504C409.905 163.804 410.563 163.468 411.221 163.468ZM421.009 164.364H419.413V164.63C419.777 165.078 419.973 165.638 419.973 166.184C419.973 167.542 418.993 168.928 416.907 168.928H416.585C415.745 168.928 415.143 169.25 415.143 169.74C415.143 170.118 415.437 170.384 416.053 170.384H419.063C420.267 170.384 420.883 170.972 420.883 171.896C420.883 173.366 419.189 174.136 417.103 174.136C415.227 174.136 413.925 173.534 413.477 172.232L414.247 171.882C414.765 173.1 415.857 173.338 417.103 173.338C418.643 173.338 419.931 172.876 419.931 171.98C419.931 171.56 419.707 171.252 419.035 171.252H415.843C414.807 171.252 414.191 170.762 414.191 169.992C414.191 169.334 414.737 168.76 415.647 168.522C414.667 168.13 414.121 167.094 414.121 166.184C414.121 164.854 415.115 163.468 417.075 163.468C417.845 163.468 418.433 163.72 418.881 164.098V163.58H421.009V164.364ZM417.061 168.144C418.377 168.144 419.035 167.234 419.035 166.184C419.035 165.148 418.377 164.28 417.061 164.28C415.731 164.28 415.059 165.162 415.059 166.184C415.059 167.22 415.731 168.144 417.061 168.144ZM421.856 165.512C421.856 164.336 422.962 163.468 424.516 163.468C425.86 163.468 426.896 164.112 427.204 165.092L426.42 165.4C426.126 164.686 425.44 164.308 424.488 164.308C423.452 164.308 422.78 164.742 422.78 165.428C422.78 166.044 423.186 166.422 424.068 166.604L425.048 166.8C426.672 167.122 427.428 167.822 427.428 168.928C427.428 170.216 426.28 171.112 424.628 171.112C423.13 171.112 422.08 170.524 421.576 169.404L422.388 169.068C422.738 169.852 423.508 170.272 424.6 170.272C425.748 170.272 426.504 169.768 426.504 169.012C426.504 168.312 426.112 167.934 425.132 167.724L423.928 167.472C422.57 167.192 421.856 166.506 421.856 165.512ZM432.13 171.112C430.296 171.112 428.826 169.6 428.826 167.276C428.826 164.98 430.282 163.468 432.13 163.468C433.978 163.468 435.434 164.98 435.434 167.276C435.434 169.6 433.964 171.112 432.13 171.112ZM432.13 170.272C433.404 170.272 434.454 169.264 434.454 167.276C434.454 165.302 433.39 164.308 432.13 164.308C430.87 164.308 429.806 165.302 429.806 167.276C429.806 169.264 430.856 170.272 432.13 170.272ZM441.827 163.58H442.807L439.895 171H439.055L436.143 163.58H437.179L439.503 169.95L441.827 163.58ZM449.053 168.9L449.753 169.292C449.403 170.188 448.479 171.112 446.827 171.112C444.741 171.112 443.509 169.558 443.509 167.192C443.509 165.022 444.797 163.468 446.729 163.468C448.325 163.468 449.697 164.616 449.697 166.632L449.669 167.458H444.475C444.559 169.432 445.497 170.272 446.925 170.272C448.045 170.272 448.703 169.628 449.053 168.9ZM446.729 164.308C445.609 164.308 444.601 164.91 444.475 166.674H448.759C448.801 165.008 447.821 164.308 446.729 164.308ZM454.37 163.468C455.336 163.468 456.036 164.112 456.036 165.372V166.1L455.168 166.268V165.54C455.168 164.798 454.916 164.308 454.16 164.308C453.306 164.308 452.662 164.938 452.662 166.436V171H451.71V163.58H452.662V164.504C453.054 163.804 453.712 163.468 454.37 163.468ZM459.264 169.152C459.264 170.02 459.782 170.272 460.244 170.272C460.692 170.272 460.986 170.104 461.336 169.74L461.84 170.3C461.35 170.874 460.818 171.112 460.16 171.112C459.152 171.112 458.312 170.44 458.312 169.124V164.364H456.912V163.58H458.312V161.984L459.264 161.424V163.58H461.672V164.364H459.264V169.152ZM468.724 171H467.856C467.744 170.594 467.66 170.104 467.66 169.544C467.282 170.412 466.316 171.112 465.112 171.112C463.796 171.112 462.802 170.258 462.802 168.984C462.802 167.458 464.174 166.66 465.7 166.66C466.302 166.66 466.89 166.73 467.492 166.94V165.96C467.492 164.994 466.904 164.336 465.756 164.336C464.832 164.336 464.048 164.742 463.656 165.876L462.816 165.624C463.376 164.056 464.51 163.468 465.812 163.468C467.646 163.468 468.416 164.574 468.416 165.848V168.9C468.416 169.74 468.556 170.496 468.724 171ZM467.492 167.92V167.752C466.918 167.514 466.33 167.444 465.756 167.444C464.636 167.444 463.754 167.948 463.754 168.928C463.754 169.824 464.384 170.3 465.28 170.3C466.246 170.3 467.492 169.726 467.492 167.92ZM475.443 171L472.713 167.318L471.803 168.186V171H470.851V160.64H471.803V167.066L475.331 163.58H476.591L473.357 166.688L476.647 171H475.443ZM482.754 168.9L483.454 169.292C483.104 170.188 482.18 171.112 480.528 171.112C478.442 171.112 477.21 169.558 477.21 167.192C477.21 165.022 478.498 163.468 480.43 163.468C482.026 163.468 483.398 164.616 483.398 166.632L483.37 167.458H478.176C478.26 169.432 479.198 170.272 480.626 170.272C481.746 170.272 482.404 169.628 482.754 168.9ZM480.43 164.308C479.31 164.308 478.302 164.91 478.176 166.674H482.46C482.502 165.008 481.522 164.308 480.43 164.308ZM487.735 170.972C487.511 171.028 487.329 171.056 487.119 171.056C485.957 171.056 485.411 170.328 485.411 169.236V160.64H486.363V169.236C486.363 169.866 486.699 170.188 487.287 170.188C487.441 170.188 487.595 170.174 487.735 170.132V170.972ZM489.108 165.512C489.108 164.336 490.214 163.468 491.768 163.468C493.112 163.468 494.148 164.112 494.456 165.092L493.672 165.4C493.378 164.686 492.692 164.308 491.74 164.308C490.704 164.308 490.032 164.742 490.032 165.428C490.032 166.044 490.438 166.422 491.32 166.604L492.3 166.8C493.924 167.122 494.68 167.822 494.68 168.928C494.68 170.216 493.532 171.112 491.88 171.112C490.382 171.112 489.332 170.524 488.828 169.404L489.64 169.068C489.99 169.852 490.76 170.272 491.852 170.272C493 170.272 493.756 169.768 493.756 169.012C493.756 168.312 493.364 167.934 492.384 167.724L491.18 167.472C489.822 167.192 489.108 166.506 489.108 165.512ZM501.622 168.9L502.322 169.292C501.972 170.188 501.048 171.112 499.396 171.112C497.31 171.112 496.078 169.558 496.078 167.192C496.078 165.022 497.366 163.468 499.298 163.468C500.894 163.468 502.266 164.616 502.266 166.632L502.238 167.458H497.044C497.128 169.432 498.066 170.272 499.494 170.272C500.614 170.272 501.272 169.628 501.622 168.9ZM499.298 164.308C498.178 164.308 497.17 164.91 497.044 166.674H501.328C501.37 165.008 500.39 164.308 499.298 164.308ZM504.785 169.32C505.374 169.32 505.822 169.824 505.822 170.776C505.822 171.7 505.444 172.624 504.226 173.576L503.89 173.184C504.548 172.596 505.178 172.008 505.066 171.028C504.995 171.042 504.898 171.056 504.785 171.056C504.282 171.056 503.89 170.734 503.89 170.188C503.89 169.698 504.268 169.32 504.785 169.32ZM513.022 162.544V163.58H515.094V164.364H513.022V171H512.07V164.364H510.67V163.58H512.07V162.544C512.07 161.256 512.91 160.528 514.058 160.528C514.59 160.528 515.206 160.738 515.556 161.298L514.982 161.872C514.758 161.536 514.422 161.34 514.03 161.34C513.54 161.34 513.022 161.634 513.022 162.544ZM519.202 163.468C520.168 163.468 520.868 164.112 520.868 165.372V166.1L520 166.268V165.54C520 164.798 519.748 164.308 518.992 164.308C518.138 164.308 517.494 164.938 517.494 166.436V171H516.542V163.58H517.494V164.504C517.886 163.804 518.544 163.468 519.202 163.468ZM523.225 162.236C522.763 162.236 522.385 161.872 522.385 161.396C522.385 160.92 522.763 160.556 523.225 160.556C523.687 160.556 524.065 160.92 524.065 161.396C524.065 161.872 523.687 162.236 523.225 162.236ZM522.749 171V163.58H523.701V171H522.749ZM530.844 163.58H531.824L528.912 171H528.072L525.16 163.58H526.196L528.52 169.95L530.844 163.58ZM533.024 160.696H534.48V162.124H533.024V160.696ZM533.276 171V163.58H534.228V171H533.276ZM538.964 170.972C538.74 171.028 538.558 171.056 538.348 171.056C537.186 171.056 536.64 170.328 536.64 169.236V160.64H537.592V169.236C537.592 169.866 537.928 170.188 538.516 170.188C538.67 170.188 538.824 170.174 538.964 170.132V170.972ZM543.024 170.972C542.8 171.028 542.618 171.056 542.408 171.056C541.246 171.056 540.7 170.328 540.7 169.236V160.64H541.652V169.236C541.652 169.866 541.988 170.188 542.576 170.188C542.73 170.188 542.884 170.174 543.024 170.132V170.972ZM545.237 162.236C544.775 162.236 544.397 161.872 544.397 161.396C544.397 160.92 544.775 160.556 545.237 160.556C545.699 160.556 546.077 160.92 546.077 161.396C546.077 161.872 545.699 162.236 545.237 162.236ZM544.761 171V163.58H545.713V171H544.761ZM554.788 164.364H553.192V164.63C553.556 165.078 553.752 165.638 553.752 166.184C553.752 167.542 552.772 168.928 550.686 168.928H550.364C549.524 168.928 548.922 169.25 548.922 169.74C548.922 170.118 549.216 170.384 549.832 170.384H552.842C554.046 170.384 554.662 170.972 554.662 171.896C554.662 173.366 552.968 174.136 550.882 174.136C549.006 174.136 547.704 173.534 547.256 172.232L548.026 171.882C548.544 173.1 549.636 173.338 550.882 173.338C552.422 173.338 553.71 172.876 553.71 171.98C553.71 171.56 553.486 171.252 552.814 171.252H549.622C548.586 171.252 547.97 170.762 547.97 169.992C547.97 169.334 548.516 168.76 549.426 168.522C548.446 168.13 547.9 167.094 547.9 166.184C547.9 164.854 548.894 163.468 550.854 163.468C551.624 163.468 552.212 163.72 552.66 164.098V163.58H554.788V164.364ZM550.84 168.144C552.156 168.144 552.814 167.234 552.814 166.184C552.814 165.148 552.156 164.28 550.84 164.28C549.51 164.28 548.838 165.162 548.838 166.184C548.838 167.22 549.51 168.144 550.84 168.144ZM560.78 168.9L561.48 169.292C561.13 170.188 560.206 171.112 558.554 171.112C556.468 171.112 555.236 169.558 555.236 167.192C555.236 165.022 556.524 163.468 558.456 163.468C560.052 163.468 561.424 164.616 561.424 166.632L561.396 167.458H556.202C556.286 169.432 557.224 170.272 558.652 170.272C559.772 170.272 560.43 169.628 560.78 168.9ZM558.456 164.308C557.336 164.308 556.328 164.91 556.202 166.674H560.486C560.528 165.008 559.548 164.308 558.456 164.308ZM570.154 163.468C571.638 163.468 572.506 164.378 572.506 166.044V171H571.554V166.184C571.554 164.84 570.938 164.336 569.902 164.336C568.6 164.336 567.998 165.344 567.998 166.828V171H567.046V160.64H567.998V164.728C568.446 163.916 569.258 163.468 570.154 163.468ZM574.49 160.696H575.946V162.124H574.49V160.696ZM574.098 174.038C573.846 174.038 573.608 173.996 573.37 173.926L573.454 173.086C573.65 173.156 573.832 173.17 573.958 173.17C574.616 173.17 574.742 172.722 574.742 172.078V163.58H575.694V172.134C575.694 173.394 575.148 174.038 574.098 174.038ZM583.174 168.9L583.874 169.292C583.524 170.188 582.6 171.112 580.948 171.112C578.862 171.112 577.63 169.558 577.63 167.192C577.63 165.022 578.918 163.468 580.85 163.468C582.446 163.468 583.818 164.616 583.818 166.632L583.79 167.458H578.596C578.68 169.432 579.618 170.272 581.046 170.272C582.166 170.272 582.824 169.628 583.174 168.9ZM580.85 164.308C579.73 164.308 578.722 164.91 578.596 166.674H582.88C582.922 165.008 581.942 164.308 580.85 164.308ZM588.155 170.972C587.931 171.028 587.749 171.056 587.539 171.056C586.377 171.056 585.831 170.328 585.831 169.236V160.64H586.783V169.236C586.783 169.866 587.119 170.188 587.707 170.188C587.861 170.188 588.015 170.174 588.155 170.132V170.972ZM593.28 163.482C595.17 163.482 596.444 165.064 596.444 167.22C596.444 169.502 595.156 171.112 593.168 171.112C592.132 171.112 591.292 170.594 590.844 169.656V173.94H589.892V163.58H590.844V164.966C591.334 164.014 592.314 163.482 593.28 163.482ZM593.168 170.272C594.554 170.272 595.464 169.208 595.464 167.262C595.464 165.386 594.554 164.322 593.182 164.322C591.698 164.322 590.844 165.428 590.844 167.248C590.844 169.18 591.684 170.272 593.168 170.272ZM603.45 168.9L604.15 169.292C603.8 170.188 602.876 171.112 601.224 171.112C599.138 171.112 597.906 169.558 597.906 167.192C597.906 165.022 599.194 163.468 601.126 163.468C602.722 163.468 604.094 164.616 604.094 166.632L604.066 167.458H598.872C598.956 169.432 599.894 170.272 601.322 170.272C602.442 170.272 603.1 169.628 603.45 168.9ZM601.126 164.308C600.006 164.308 598.998 164.91 598.872 166.674H603.156C603.198 165.008 602.218 164.308 601.126 164.308ZM607.454 169.152C607.454 170.02 607.972 170.272 608.434 170.272C608.882 170.272 609.176 170.104 609.526 169.74L610.03 170.3C609.54 170.874 609.008 171.112 608.35 171.112C607.342 171.112 606.502 170.44 606.502 169.124V164.364H605.102V163.58H606.502V161.984L607.454 161.424V163.58H609.862V164.364H607.454V169.152ZM612.133 162.236C611.671 162.236 611.293 161.872 611.293 161.396C611.293 160.92 611.671 160.556 612.133 160.556C612.595 160.556 612.973 160.92 612.973 161.396C612.973 161.872 612.595 162.236 612.133 162.236ZM611.657 171V163.58H612.609V171H611.657ZM617.344 170.972C617.12 171.028 616.938 171.056 616.728 171.056C615.566 171.056 615.02 170.328 615.02 169.236V160.64H615.972V169.236C615.972 169.866 616.308 170.188 616.896 170.188C617.05 170.188 617.204 170.174 617.344 170.132V170.972ZM620.428 169.152C620.428 170.02 620.946 170.272 621.408 170.272C621.856 170.272 622.15 170.104 622.5 169.74L623.004 170.3C622.514 170.874 621.982 171.112 621.324 171.112C620.316 171.112 619.476 170.44 619.476 169.124V164.364H618.076V163.58H619.476V161.984L620.428 161.424V163.58H622.836V164.364H620.428V169.152ZM629.888 171H629.02C628.908 170.594 628.824 170.104 628.824 169.544C628.446 170.412 627.48 171.112 626.276 171.112C624.96 171.112 623.966 170.258 623.966 168.984C623.966 167.458 625.338 166.66 626.864 166.66C627.466 166.66 628.054 166.73 628.656 166.94V165.96C628.656 164.994 628.068 164.336 626.92 164.336C625.996 164.336 625.212 164.742 624.82 165.876L623.98 165.624C624.54 164.056 625.674 163.468 626.976 163.468C628.81 163.468 629.58 164.574 629.58 165.848V168.9C629.58 169.74 629.72 170.496 629.888 171ZM628.656 167.92V167.752C628.082 167.514 627.494 167.444 626.92 167.444C625.8 167.444 624.918 167.948 624.918 168.928C624.918 169.824 625.548 170.3 626.444 170.3C627.41 170.3 628.656 169.726 628.656 167.92ZM636.607 171L633.877 167.318L632.967 168.186V171H632.015V160.64H632.967V167.066L636.495 163.58H637.755L634.521 166.688L637.811 171H636.607ZM256.772 190.9L257.472 191.292C257.122 192.188 256.198 193.112 254.546 193.112C252.46 193.112 251.228 191.558 251.228 189.192C251.228 187.022 252.516 185.468 254.448 185.468C256.044 185.468 257.416 186.616 257.416 188.632L257.388 189.458H252.194C252.278 191.432 253.216 192.272 254.644 192.272C255.764 192.272 256.422 191.628 256.772 190.9ZM254.448 186.308C253.328 186.308 252.32 186.91 252.194 188.674H256.478C256.52 187.008 255.54 186.308 254.448 186.308ZM261.753 192.972C261.529 193.028 261.347 193.056 261.137 193.056C259.975 193.056 259.429 192.328 259.429 191.236V182.64H260.381V191.236C260.381 191.866 260.717 192.188 261.305 192.188C261.459 192.188 261.613 192.174 261.753 192.132V192.972ZM265.813 192.972C265.589 193.028 265.407 193.056 265.197 193.056C264.035 193.056 263.489 192.328 263.489 191.236V182.64H264.441V191.236C264.441 191.866 264.777 192.188 265.365 192.188C265.519 192.188 265.673 192.174 265.813 192.132V192.972ZM272.399 190.9L273.099 191.292C272.749 192.188 271.825 193.112 270.173 193.112C268.087 193.112 266.855 191.558 266.855 189.192C266.855 187.022 268.143 185.468 270.075 185.468C271.671 185.468 273.043 186.616 273.043 188.632L273.015 189.458H267.821C267.905 191.432 268.843 192.272 270.271 192.272C271.391 192.272 272.049 191.628 272.399 190.9ZM270.075 186.308C268.955 186.308 267.947 186.91 267.821 188.674H272.105C272.147 187.008 271.167 186.308 270.075 186.308ZM277.716 185.468C278.682 185.468 279.382 186.112 279.382 187.372V188.1L278.514 188.268V187.54C278.514 186.798 278.262 186.308 277.506 186.308C276.652 186.308 276.008 186.938 276.008 188.436V193H275.056V185.58H276.008V186.504C276.4 185.804 277.058 185.468 277.716 185.468ZM288.233 185.482C290.123 185.482 291.397 187.064 291.397 189.22C291.397 191.502 290.109 193.112 288.121 193.112C287.085 193.112 286.245 192.594 285.797 191.656V195.94H284.845V185.58H285.797V186.966C286.287 186.014 287.267 185.482 288.233 185.482ZM288.121 192.272C289.507 192.272 290.417 191.208 290.417 189.262C290.417 187.386 289.507 186.322 288.135 186.322C286.651 186.322 285.797 187.428 285.797 189.248C285.797 191.18 286.637 192.272 288.121 192.272ZM295.981 184.796C295.071 184.796 294.329 184.124 294.329 183.2C294.329 182.276 295.071 181.604 295.981 181.604C296.891 181.604 297.633 182.276 297.633 183.2C297.633 184.124 296.891 184.796 295.981 184.796ZM295.981 182.248C295.449 182.248 295.029 182.584 295.029 183.2C295.029 183.83 295.449 184.152 295.981 184.152C296.513 184.152 296.933 183.83 296.933 183.2C296.933 182.584 296.513 182.248 295.981 182.248ZM298.865 193H297.997C297.885 192.594 297.801 192.104 297.801 191.544C297.423 192.412 296.457 193.112 295.253 193.112C293.937 193.112 292.943 192.258 292.943 190.984C292.943 189.458 294.315 188.66 295.841 188.66C296.443 188.66 297.031 188.73 297.633 188.94V187.96C297.633 186.994 297.045 186.336 295.897 186.336C294.973 186.336 294.189 186.742 293.797 187.876L292.957 187.624C293.517 186.056 294.651 185.468 295.953 185.468C297.787 185.468 298.557 186.574 298.557 187.848V190.9C298.557 191.74 298.697 192.496 298.865 193ZM297.633 189.92V189.752C297.059 189.514 296.471 189.444 295.897 189.444C294.777 189.444 293.895 189.948 293.895 190.928C293.895 191.824 294.525 192.3 295.421 192.3C296.387 192.3 297.633 191.726 297.633 189.92ZM303.288 192.972C303.064 193.028 302.882 193.056 302.672 193.056C301.51 193.056 300.964 192.328 300.964 191.236V182.64H301.916V191.236C301.916 191.866 302.252 192.188 302.84 192.188C302.994 192.188 303.148 192.174 303.288 192.132V192.972ZM309.874 190.9L310.574 191.292C310.224 192.188 309.3 193.112 307.648 193.112C305.562 193.112 304.33 191.558 304.33 189.192C304.33 187.022 305.618 185.468 307.55 185.468C309.146 185.468 310.518 186.616 310.518 188.632L310.49 189.458H305.296C305.38 191.432 306.318 192.272 307.746 192.272C308.866 192.272 309.524 191.628 309.874 190.9ZM307.55 186.308C306.43 186.308 305.422 186.91 305.296 188.674H309.58C309.622 187.008 308.642 186.308 307.55 186.308ZM319.057 186.364H317.461V186.63C317.825 187.078 318.021 187.638 318.021 188.184C318.021 189.542 317.041 190.928 314.955 190.928H314.633C313.793 190.928 313.191 191.25 313.191 191.74C313.191 192.118 313.485 192.384 314.101 192.384H317.111C318.315 192.384 318.931 192.972 318.931 193.896C318.931 195.366 317.237 196.136 315.151 196.136C313.275 196.136 311.973 195.534 311.525 194.232L312.295 193.882C312.813 195.1 313.905 195.338 315.151 195.338C316.691 195.338 317.979 194.876 317.979 193.98C317.979 193.56 317.755 193.252 317.083 193.252H313.891C312.855 193.252 312.239 192.762 312.239 191.992C312.239 191.334 312.785 190.76 313.695 190.522C312.715 190.13 312.169 189.094 312.169 188.184C312.169 186.854 313.163 185.468 315.123 185.468C315.893 185.468 316.481 185.72 316.929 186.098V185.58H319.057V186.364ZM315.109 190.144C316.425 190.144 317.083 189.234 317.083 188.184C317.083 187.148 316.425 186.28 315.109 186.28C313.779 186.28 313.107 187.162 313.107 188.184C313.107 189.22 313.779 190.144 315.109 190.144ZM327.206 186.364H325.61V186.63C325.974 187.078 326.17 187.638 326.17 188.184C326.17 189.542 325.19 190.928 323.104 190.928H322.782C321.942 190.928 321.34 191.25 321.34 191.74C321.34 192.118 321.634 192.384 322.25 192.384H325.26C326.464 192.384 327.08 192.972 327.08 193.896C327.08 195.366 325.386 196.136 323.3 196.136C321.424 196.136 320.122 195.534 319.674 194.232L320.444 193.882C320.962 195.1 322.054 195.338 323.3 195.338C324.84 195.338 326.128 194.876 326.128 193.98C326.128 193.56 325.904 193.252 325.232 193.252H322.04C321.004 193.252 320.388 192.762 320.388 191.992C320.388 191.334 320.934 190.76 321.844 190.522C320.864 190.13 320.318 189.094 320.318 188.184C320.318 186.854 321.312 185.468 323.272 185.468C324.042 185.468 324.63 185.72 325.078 186.098V185.58H327.206V186.364ZM323.258 190.144C324.574 190.144 325.232 189.234 325.232 188.184C325.232 187.148 324.574 186.28 323.258 186.28C321.928 186.28 321.256 187.162 321.256 188.184C321.256 189.22 321.928 190.144 323.258 190.144ZM335.1 193.112C333.266 193.112 331.796 191.6 331.796 189.276C331.796 186.98 333.252 185.468 335.1 185.468C336.948 185.468 338.404 186.98 338.404 189.276C338.404 191.6 336.934 193.112 335.1 193.112ZM335.1 192.272C336.374 192.272 337.424 191.264 337.424 189.276C337.424 187.302 336.36 186.308 335.1 186.308C333.84 186.308 332.776 187.302 332.776 189.276C332.776 191.264 333.826 192.272 335.1 192.272ZM347.731 185.468C349.145 185.468 349.971 186.364 349.971 187.904V193H349.019V188.044C349.019 186.84 348.445 186.336 347.479 186.336C346.177 186.336 345.631 187.344 345.631 188.828V193H344.679V188.044C344.679 186.84 344.105 186.336 343.139 186.336C341.837 186.336 341.291 187.344 341.291 188.828V193H340.339V185.58H341.291V186.742C341.739 185.916 342.523 185.468 343.391 185.468C344.497 185.468 345.239 186.014 345.505 186.98C345.925 186 346.779 185.468 347.731 185.468ZM358.979 185.468C360.463 185.468 361.331 186.378 361.331 188.044V193H360.379V188.184C360.379 186.84 359.763 186.336 358.727 186.336C357.425 186.336 356.823 187.344 356.823 188.828V193H355.871V182.64H356.823V186.728C357.271 185.916 358.083 185.468 358.979 185.468ZM364.042 184.236C363.58 184.236 363.202 183.872 363.202 183.396C363.202 182.92 363.58 182.556 364.042 182.556C364.504 182.556 364.882 182.92 364.882 183.396C364.882 183.872 364.504 184.236 364.042 184.236ZM362.922 196.038C362.67 196.038 362.432 195.996 362.194 195.926L362.278 195.086C362.474 195.156 362.656 195.17 362.782 195.17C363.44 195.17 363.566 194.722 363.566 194.078V185.58H364.518V194.134C364.518 195.394 363.972 196.038 362.922 196.038ZM371.999 190.9L372.699 191.292C372.349 192.188 371.425 193.112 369.773 193.112C367.687 193.112 366.455 191.558 366.455 189.192C366.455 187.022 367.743 185.468 369.675 185.468C371.271 185.468 372.643 186.616 372.643 188.632L372.615 189.458H367.421C367.505 191.432 368.443 192.272 369.871 192.272C370.991 192.272 371.649 191.628 371.999 190.9ZM369.675 186.308C368.555 186.308 367.547 186.91 367.421 188.674H371.705C371.747 187.008 370.767 186.308 369.675 186.308ZM376.979 192.972C376.755 193.028 376.573 193.056 376.363 193.056C375.201 193.056 374.655 192.328 374.655 191.236V182.64H375.607V191.236C375.607 191.866 375.943 192.188 376.531 192.188C376.685 192.188 376.839 192.174 376.979 192.132V192.972ZM382.104 185.482C383.994 185.482 385.268 187.064 385.268 189.22C385.268 191.502 383.98 193.112 381.992 193.112C380.956 193.112 380.116 192.594 379.668 191.656V195.94H378.716V185.58H379.668V186.966C380.158 186.014 381.138 185.482 382.104 185.482ZM381.992 192.272C383.378 192.272 384.288 191.208 384.288 189.262C384.288 187.386 383.378 186.322 382.006 186.322C380.522 186.322 379.668 187.428 379.668 189.248C379.668 191.18 380.508 192.272 381.992 192.272ZM392.274 190.9L392.974 191.292C392.624 192.188 391.7 193.112 390.048 193.112C387.962 193.112 386.73 191.558 386.73 189.192C386.73 187.022 388.018 185.468 389.95 185.468C391.546 185.468 392.918 186.616 392.918 188.632L392.89 189.458H387.696C387.78 191.432 388.718 192.272 390.146 192.272C391.266 192.272 391.924 191.628 392.274 190.9ZM389.95 186.308C388.83 186.308 387.822 186.91 387.696 188.674H391.98C392.022 187.008 391.042 186.308 389.95 186.308ZM396.278 191.152C396.278 192.02 396.796 192.272 397.258 192.272C397.706 192.272 398 192.104 398.35 191.74L398.854 192.3C398.364 192.874 397.832 193.112 397.174 193.112C396.166 193.112 395.326 192.44 395.326 191.124V186.364H393.926V185.58H395.326V183.984L396.278 183.424V185.58H398.686V186.364H396.278V191.152ZM400.229 182.696H401.685V184.124H400.229V182.696ZM400.481 193V185.58H401.433V193H400.481ZM406.169 192.972C405.945 193.028 405.763 193.056 405.553 193.056C404.391 193.056 403.845 192.328 403.845 191.236V182.64H404.797V191.236C404.797 191.866 405.133 192.188 405.721 192.188C405.875 192.188 406.029 192.174 406.169 192.132V192.972ZM409.252 191.152C409.252 192.02 409.77 192.272 410.232 192.272C410.68 192.272 410.974 192.104 411.324 191.74L411.828 192.3C411.338 192.874 410.806 193.112 410.148 193.112C409.14 193.112 408.3 192.44 408.3 191.124V186.364H406.9V185.58H408.3V183.984L409.252 183.424V185.58H411.66V186.364H409.252V191.152ZM418.713 193H417.845C417.733 192.594 417.649 192.104 417.649 191.544C417.271 192.412 416.305 193.112 415.101 193.112C413.785 193.112 412.791 192.258 412.791 190.984C412.791 189.458 414.163 188.66 415.689 188.66C416.291 188.66 416.879 188.73 417.481 188.94V187.96C417.481 186.994 416.893 186.336 415.745 186.336C414.821 186.336 414.037 186.742 413.645 187.876L412.805 187.624C413.365 186.056 414.499 185.468 415.801 185.468C417.635 185.468 418.405 186.574 418.405 187.848V190.9C418.405 191.74 418.545 192.496 418.713 193ZM417.481 189.92V189.752C416.907 189.514 416.319 189.444 415.745 189.444C414.625 189.444 413.743 189.948 413.743 190.928C413.743 191.824 414.373 192.3 415.269 192.3C416.235 192.3 417.481 191.726 417.481 189.92ZM425.431 193L422.701 189.318L421.791 190.186V193H420.839V182.64H421.791V189.066L425.319 185.58H426.579L423.345 188.688L426.635 193H425.431ZM428.935 193.084C428.431 193.084 428.039 192.706 428.039 192.188C428.039 191.67 428.431 191.292 428.935 191.292C429.439 191.292 429.831 191.67 429.831 192.188C429.831 192.706 429.439 193.084 428.935 193.084Z" fill="#2A2859"/>
<path d="M236.5 203V151H232.5V203H236.5Z" fill="#2A2859" mask="url(#path-4-inside-1_5863_8348)"/>
<circle cx="246.5" cy="231" r="11" stroke="#2A2859" stroke-width="2"/>
<circle cx="246.5" cy="231" r="7" fill="#2A2859"/>
<path d="M271.252 234.024V225.16H272.372V234.024C272.372 235.976 271.332 237.128 269.508 237.128C268.276 237.128 267.316 236.552 266.82 235.432L267.732 234.92C268.1 235.624 268.548 236.104 269.524 236.104C270.66 236.104 271.252 235.304 271.252 234.024ZM281.152 237H280.16C280.032 236.536 279.936 235.976 279.936 235.336C279.504 236.328 278.4 237.128 277.024 237.128C275.52 237.128 274.384 236.152 274.384 234.696C274.384 232.952 275.952 232.04 277.696 232.04C278.384 232.04 279.056 232.12 279.744 232.36V231.24C279.744 230.136 279.072 229.384 277.76 229.384C276.704 229.384 275.808 229.848 275.36 231.144L274.4 230.856C275.04 229.064 276.336 228.392 277.824 228.392C279.92 228.392 280.8 229.656 280.8 231.112V234.6C280.8 235.56 280.96 236.424 281.152 237ZM279.744 233.48V233.288C279.088 233.016 278.416 232.936 277.76 232.936C276.48 232.936 275.472 233.512 275.472 234.632C275.472 235.656 276.192 236.2 277.216 236.2C278.32 236.2 279.744 235.544 279.744 233.48Z" fill="#2A2859"/>
<rect x="235.5" y="260" width="22" height="22" rx="11" stroke="#2A2859" stroke-width="2"/>
<path d="M275.332 265.16H276.42V277H275.428L268.996 267.208V277H267.908V265.16H268.996L275.332 274.872V265.16ZM284.796 274.6L285.596 275.048C285.196 276.072 284.14 277.128 282.252 277.128C279.868 277.128 278.46 275.352 278.46 272.648C278.46 270.168 279.932 268.392 282.14 268.392C283.964 268.392 285.532 269.704 285.532 272.008L285.5 272.952H279.564C279.66 275.208 280.732 276.168 282.364 276.168C283.644 276.168 284.396 275.432 284.796 274.6ZM282.14 269.352C280.86 269.352 279.708 270.04 279.564 272.056H284.46C284.508 270.152 283.388 269.352 282.14 269.352ZM288.176 266.984C287.648 266.984 287.216 266.568 287.216 266.024C287.216 265.48 287.648 265.064 288.176 265.064C288.704 265.064 289.136 265.48 289.136 266.024C289.136 266.568 288.704 266.984 288.176 266.984ZM287.632 277V268.52H288.72V277H287.632Z" fill="#2A2859"/>
</svg>
