<svg width="1061" height="278" viewBox="0 0 1061 278" fill="none" xmlns="http://www.w3.org/2000/svg">
<rect width="1061" height="278" fill="white"/>
<rect x="132.5" y="102" width="22" height="22" rx="11" stroke="#2A2859" stroke-width="2"/>
<path d="M168.252 116.024V107.16H169.372V116.024C169.372 117.976 168.332 119.128 166.508 119.128C165.276 119.128 164.316 118.552 163.82 117.432L164.732 116.92C165.1 117.624 165.548 118.104 166.524 118.104C167.66 118.104 168.252 117.304 168.252 116.024ZM178.152 119H177.16C177.032 118.536 176.936 117.976 176.936 117.336C176.504 118.328 175.4 119.128 174.024 119.128C172.52 119.128 171.384 118.152 171.384 116.696C171.384 114.952 172.952 114.04 174.696 114.04C175.384 114.04 176.056 114.12 176.744 114.36V113.24C176.744 112.136 176.072 111.384 174.76 111.384C173.704 111.384 172.808 111.848 172.36 113.144L171.4 112.856C172.04 111.064 173.336 110.392 174.824 110.392C176.92 110.392 177.8 111.656 177.8 113.112V116.6C177.8 117.56 177.96 118.424 178.152 119ZM176.744 115.48V115.288C176.088 115.016 175.416 114.936 174.76 114.936C173.48 114.936 172.472 115.512 172.472 116.632C172.472 117.656 173.192 118.2 174.216 118.2C175.32 118.2 176.744 117.544 176.744 115.48ZM181.087 117.08C181.759 117.08 182.271 117.656 182.271 118.744C182.271 119.8 181.839 120.856 180.447 121.944L180.063 121.496C180.815 120.824 181.535 120.152 181.407 119.032C181.327 119.048 181.215 119.064 181.087 119.064C180.511 119.064 180.063 118.696 180.063 118.072C180.063 117.512 180.495 117.08 181.087 117.08ZM188.884 108.984C188.356 108.984 187.924 108.568 187.924 108.024C187.924 107.48 188.356 107.064 188.884 107.064C189.412 107.064 189.844 107.48 189.844 108.024C189.844 108.568 189.412 108.984 188.884 108.984ZM187.604 122.472C187.316 122.472 187.044 122.424 186.772 122.344L186.868 121.384C187.092 121.464 187.3 121.48 187.444 121.48C188.196 121.48 188.34 120.968 188.34 120.232V110.52H189.428V120.296C189.428 121.736 188.804 122.472 187.604 122.472ZM197.777 116.6L198.577 117.048C198.177 118.072 197.121 119.128 195.233 119.128C192.849 119.128 191.441 117.352 191.441 114.648C191.441 112.168 192.913 110.392 195.121 110.392C196.945 110.392 198.513 111.704 198.513 114.008L198.481 114.952H192.545C192.641 117.208 193.713 118.168 195.345 118.168C196.625 118.168 197.377 117.432 197.777 116.6ZM195.121 111.352C193.841 111.352 192.689 112.04 192.545 114.056H197.441C197.489 112.152 196.369 111.352 195.121 111.352ZM208.073 111.416H206.249V111.72C206.665 112.232 206.889 112.872 206.889 113.496C206.889 115.048 205.769 116.632 203.385 116.632H203.017C202.057 116.632 201.369 117 201.369 117.56C201.369 117.992 201.705 118.296 202.409 118.296H205.849C207.225 118.296 207.929 118.968 207.929 120.024C207.929 121.704 205.993 122.584 203.609 122.584C201.465 122.584 199.977 121.896 199.465 120.408L200.345 120.008C200.937 121.4 202.185 121.672 203.609 121.672C205.369 121.672 206.841 121.144 206.841 120.12C206.841 119.64 206.585 119.288 205.817 119.288H202.169C200.985 119.288 200.281 118.728 200.281 117.848C200.281 117.096 200.905 116.44 201.945 116.168C200.825 115.72 200.201 114.536 200.201 113.496C200.201 111.976 201.337 110.392 203.577 110.392C204.457 110.392 205.129 110.68 205.641 111.112V110.52H208.073V111.416ZM203.561 115.736C205.065 115.736 205.817 114.696 205.817 113.496C205.817 112.312 205.065 111.32 203.561 111.32C202.041 111.32 201.273 112.328 201.273 113.496C201.273 114.68 202.041 115.736 203.561 115.736ZM217.048 110.392C218.744 110.392 219.736 111.432 219.736 113.336V119H218.648V113.496C218.648 111.96 217.944 111.384 216.76 111.384C215.272 111.384 214.584 112.536 214.584 114.232V119H213.496V107.16H214.584V111.832C215.096 110.904 216.024 110.392 217.048 110.392ZM228.474 119H227.482C227.354 118.536 227.258 117.976 227.258 117.336C226.826 118.328 225.722 119.128 224.346 119.128C222.842 119.128 221.706 118.152 221.706 116.696C221.706 114.952 223.274 114.04 225.018 114.04C225.706 114.04 226.378 114.12 227.066 114.36V113.24C227.066 112.136 226.394 111.384 225.082 111.384C224.026 111.384 223.13 111.848 222.682 113.144L221.722 112.856C222.362 111.064 223.658 110.392 225.146 110.392C227.242 110.392 228.122 111.656 228.122 113.112V116.6C228.122 117.56 228.282 118.424 228.474 119ZM227.066 115.48V115.288C226.41 115.016 225.738 114.936 225.082 114.936C223.802 114.936 222.794 115.512 222.794 116.632C222.794 117.656 223.514 118.2 224.538 118.2C225.642 118.2 227.066 117.544 227.066 115.48ZM233.713 110.392C234.817 110.392 235.617 111.128 235.617 112.568V113.4L234.625 113.592V112.76C234.625 111.912 234.337 111.352 233.473 111.352C232.497 111.352 231.761 112.072 231.761 113.784V119H230.673V110.52H231.761V111.576C232.209 110.776 232.961 110.392 233.713 110.392ZM245.332 110.408C247.492 110.408 248.948 112.216 248.948 114.68C248.948 117.288 247.476 119.128 245.204 119.128C244.02 119.128 243.06 118.536 242.548 117.464V122.36H241.46V110.52H242.548V112.104C243.108 111.016 244.228 110.408 245.332 110.408ZM245.204 118.168C246.788 118.168 247.828 116.952 247.828 114.728C247.828 112.584 246.788 111.368 245.22 111.368C243.524 111.368 242.548 112.632 242.548 114.712C242.548 116.92 243.508 118.168 245.204 118.168ZM254.004 110.392C255.108 110.392 255.908 111.128 255.908 112.568V113.4L254.916 113.592V112.76C254.916 111.912 254.628 111.352 253.764 111.352C252.788 111.352 252.052 112.072 252.052 113.784V119H250.964V110.52H252.052V111.576C252.5 110.776 253.252 110.392 254.004 110.392ZM257.569 107.224H259.233V108.856H257.569V107.224ZM257.857 119V110.52H258.945V119H257.857ZM264.733 119.128C262.637 119.128 260.957 117.4 260.957 114.744C260.957 112.12 262.621 110.392 264.733 110.392C266.845 110.392 268.509 112.12 268.509 114.744C268.509 117.4 266.829 119.128 264.733 119.128ZM264.733 118.168C266.189 118.168 267.389 117.016 267.389 114.744C267.389 112.488 266.173 111.352 264.733 111.352C263.293 111.352 262.077 112.488 262.077 114.744C262.077 117.016 263.277 118.168 264.733 118.168ZM273.56 110.392C274.664 110.392 275.464 111.128 275.464 112.568V113.4L274.472 113.592V112.76C274.472 111.912 274.184 111.352 273.32 111.352C272.344 111.352 271.608 112.072 271.608 113.784V119H270.52V110.52H271.608V111.576C272.056 110.776 272.808 110.392 273.56 110.392ZM277.957 108.984C277.429 108.984 276.997 108.568 276.997 108.024C276.997 107.48 277.429 107.064 277.957 107.064C278.485 107.064 278.917 107.48 278.917 108.024C278.917 108.568 278.485 108.984 277.957 108.984ZM277.413 119V110.52H278.501V119H277.413ZM282.753 116.888C282.753 117.88 283.345 118.168 283.873 118.168C284.385 118.168 284.721 117.976 285.121 117.56L285.697 118.2C285.137 118.856 284.529 119.128 283.777 119.128C282.625 119.128 281.665 118.36 281.665 116.856V111.416H280.065V110.52H281.665V108.696L282.753 108.056V110.52H285.505V111.416H282.753V116.888ZM292.665 116.6L293.465 117.048C293.065 118.072 292.009 119.128 290.121 119.128C287.737 119.128 286.329 117.352 286.329 114.648C286.329 112.168 287.801 110.392 290.009 110.392C291.833 110.392 293.401 111.704 293.401 114.008L293.369 114.952H287.433C287.529 117.208 288.601 118.168 290.233 118.168C291.513 118.168 292.265 117.432 292.665 116.6ZM290.009 111.352C288.729 111.352 287.577 112.04 287.433 114.056H292.329C292.377 112.152 291.257 111.352 290.009 111.352ZM297.041 116.888C297.041 117.88 297.633 118.168 298.161 118.168C298.673 118.168 299.009 117.976 299.409 117.56L299.985 118.2C299.425 118.856 298.817 119.128 298.065 119.128C296.913 119.128 295.953 118.36 295.953 116.856V111.416H294.353V110.52H295.953V108.696L297.041 108.056V110.52H299.793V111.416H297.041V116.888ZM305.251 107.224H306.915V108.856H305.251V107.224ZM305.539 119V110.52H306.627V119H305.539ZM318.868 116.6L319.668 117.048C319.268 118.072 318.212 119.128 316.324 119.128C313.94 119.128 312.532 117.352 312.532 114.648C312.532 112.168 314.004 110.392 316.212 110.392C318.036 110.392 319.604 111.704 319.604 114.008L319.572 114.952H313.636C313.732 117.208 314.804 118.168 316.436 118.168C317.716 118.168 318.468 117.432 318.868 116.6ZM316.212 111.352C314.932 111.352 313.78 112.04 313.636 114.056H318.532C318.58 112.152 317.46 111.352 316.212 111.352ZM325.256 110.392C326.952 110.392 327.944 111.432 327.944 113.336V119H326.856V113.496C326.856 111.96 326.152 111.384 324.968 111.384C323.48 111.384 322.792 112.536 322.792 114.232V119H321.704V110.52H322.792V111.832C323.304 110.904 324.232 110.392 325.256 110.392ZM340.577 119H339.585C339.457 118.536 339.361 117.976 339.361 117.336C338.929 118.328 337.825 119.128 336.449 119.128C334.945 119.128 333.809 118.152 333.809 116.696C333.809 114.952 335.377 114.04 337.121 114.04C337.809 114.04 338.481 114.12 339.169 114.36V113.24C339.169 112.136 338.497 111.384 337.185 111.384C336.129 111.384 335.233 111.848 334.785 113.144L333.825 112.856C334.465 111.064 335.761 110.392 337.249 110.392C339.345 110.392 340.225 111.656 340.225 113.112V116.6C340.225 117.56 340.385 118.424 340.577 119ZM339.169 115.48V115.288C338.513 115.016 337.841 114.936 337.185 114.936C335.905 114.936 334.897 115.512 334.897 116.632C334.897 117.656 335.617 118.2 336.641 118.2C337.745 118.2 339.169 117.544 339.169 115.48ZM346.328 110.392C348.024 110.392 349.016 111.432 349.016 113.336V119H347.928V113.496C347.928 111.96 347.224 111.384 346.04 111.384C344.552 111.384 343.864 112.536 343.864 114.232V119H342.776V110.52H343.864V111.832C344.376 110.904 345.304 110.392 346.328 110.392ZM354.987 110.392C356.683 110.392 357.675 111.432 357.675 113.336V119H356.587V113.496C356.587 111.96 355.883 111.384 354.699 111.384C353.211 111.384 352.523 112.536 352.523 114.232V119H351.435V110.52H352.523V111.832C353.035 110.904 353.963 110.392 354.987 110.392ZM365.887 116.6L366.687 117.048C366.287 118.072 365.231 119.128 363.343 119.128C360.959 119.128 359.551 117.352 359.551 114.648C359.551 112.168 361.023 110.392 363.231 110.392C365.055 110.392 366.623 111.704 366.623 114.008L366.591 114.952H360.655C360.751 117.208 361.823 118.168 363.455 118.168C364.735 118.168 365.487 117.432 365.887 116.6ZM363.231 111.352C361.951 111.352 360.799 112.04 360.655 114.056H365.551C365.599 112.152 364.479 111.352 363.231 111.352ZM372.275 110.392C373.971 110.392 374.963 111.432 374.963 113.336V119H373.875V113.496C373.875 111.96 373.171 111.384 371.987 111.384C370.499 111.384 369.811 112.536 369.811 114.232V119H368.723V110.52H369.811V111.832C370.323 110.904 371.251 110.392 372.275 110.392ZM385.18 110.408C387.34 110.408 388.796 112.216 388.796 114.68C388.796 117.288 387.324 119.128 385.052 119.128C383.868 119.128 382.908 118.536 382.396 117.464V119H381.308V107.16H382.396V112.104C382.956 111.016 384.076 110.408 385.18 110.408ZM385.052 118.168C386.636 118.168 387.676 116.952 387.676 114.728C387.676 112.584 386.636 111.368 385.068 111.368C383.372 111.368 382.396 112.632 382.396 114.712C382.396 116.92 383.356 118.168 385.052 118.168ZM397.13 119H396.138C396.01 118.536 395.914 117.976 395.914 117.336C395.482 118.328 394.378 119.128 393.002 119.128C391.498 119.128 390.362 118.152 390.362 116.696C390.362 114.952 391.93 114.04 393.674 114.04C394.362 114.04 395.034 114.12 395.722 114.36V113.24C395.722 112.136 395.05 111.384 393.738 111.384C392.682 111.384 391.786 111.848 391.338 113.144L390.378 112.856C391.018 111.064 392.314 110.392 393.802 110.392C395.898 110.392 396.778 111.656 396.778 113.112V116.6C396.778 117.56 396.938 118.424 397.13 119ZM395.722 115.48V115.288C395.066 115.016 394.394 114.936 393.738 114.936C392.458 114.936 391.45 115.512 391.45 116.632C391.45 117.656 392.17 118.2 393.194 118.2C394.298 118.2 395.722 117.544 395.722 115.48ZM402.369 110.392C403.473 110.392 404.273 111.128 404.273 112.568V113.4L403.281 113.592V112.76C403.281 111.912 402.993 111.352 402.129 111.352C401.153 111.352 400.417 112.072 400.417 113.784V119H399.329V110.52H400.417V111.576C400.865 110.776 401.617 110.392 402.369 110.392ZM409.775 110.392C411.471 110.392 412.463 111.432 412.463 113.336V119H411.375V113.496C411.375 111.96 410.671 111.384 409.487 111.384C407.999 111.384 407.311 112.536 407.311 114.232V119H406.223V110.52H407.311V111.832C407.823 110.904 408.751 110.392 409.775 110.392ZM420.674 116.6L421.474 117.048C421.074 118.072 420.018 119.128 418.13 119.128C415.746 119.128 414.338 117.352 414.338 114.648C414.338 112.168 415.81 110.392 418.018 110.392C419.842 110.392 421.41 111.704 421.41 114.008L421.378 114.952H415.442C415.538 117.208 416.61 118.168 418.242 118.168C419.522 118.168 420.274 117.432 420.674 116.6ZM418.018 111.352C416.738 111.352 415.586 112.04 415.442 114.056H420.338C420.386 112.152 419.266 111.352 418.018 111.352ZM427.094 110.392C428.79 110.392 429.782 111.432 429.782 113.336V119H428.694V113.496C428.694 111.96 427.99 111.384 426.806 111.384C425.318 111.384 424.63 112.536 424.63 114.232V119H423.542V107.16H424.63V111.832C425.142 110.904 426.07 110.392 427.094 110.392ZM438.521 119H437.529C437.401 118.536 437.305 117.976 437.305 117.336C436.873 118.328 435.769 119.128 434.393 119.128C432.889 119.128 431.753 118.152 431.753 116.696C431.753 114.952 433.321 114.04 435.065 114.04C435.753 114.04 436.425 114.12 437.113 114.36V113.24C437.113 112.136 436.441 111.384 435.129 111.384C434.073 111.384 433.177 111.848 432.729 113.144L431.769 112.856C432.409 111.064 433.705 110.392 435.193 110.392C437.289 110.392 438.169 111.656 438.169 113.112V116.6C438.169 117.56 438.329 118.424 438.521 119ZM437.113 115.48V115.288C436.457 115.016 435.785 114.936 435.129 114.936C433.849 114.936 432.841 115.512 432.841 116.632C432.841 117.656 433.561 118.2 434.585 118.2C435.689 118.2 437.113 117.544 437.113 115.48ZM448.18 111.416H446.356V111.72C446.772 112.232 446.996 112.872 446.996 113.496C446.996 115.048 445.876 116.632 443.492 116.632H443.124C442.164 116.632 441.476 117 441.476 117.56C441.476 117.992 441.812 118.296 442.516 118.296H445.956C447.332 118.296 448.036 118.968 448.036 120.024C448.036 121.704 446.1 122.584 443.716 122.584C441.572 122.584 440.084 121.896 439.572 120.408L440.452 120.008C441.044 121.4 442.292 121.672 443.716 121.672C445.476 121.672 446.948 121.144 446.948 120.12C446.948 119.64 446.692 119.288 445.924 119.288H442.276C441.092 119.288 440.388 118.728 440.388 117.848C440.388 117.096 441.012 116.44 442.052 116.168C440.932 115.72 440.308 114.536 440.308 113.496C440.308 111.976 441.444 110.392 443.684 110.392C444.564 110.392 445.236 110.68 445.748 111.112V110.52H448.18V111.416ZM443.668 115.736C445.172 115.736 445.924 114.696 445.924 113.496C445.924 112.312 445.172 111.32 443.668 111.32C442.148 111.32 441.38 112.328 441.38 113.496C441.38 114.68 442.148 115.736 443.668 115.736ZM454.827 116.6L455.627 117.048C455.227 118.072 454.171 119.128 452.283 119.128C449.899 119.128 448.491 117.352 448.491 114.648C448.491 112.168 449.963 110.392 452.171 110.392C453.995 110.392 455.563 111.704 455.563 114.008L455.531 114.952H449.595C449.691 117.208 450.763 118.168 452.395 118.168C453.675 118.168 454.427 117.432 454.827 116.6ZM452.171 111.352C450.891 111.352 449.739 112.04 449.595 114.056H454.491C454.539 112.152 453.419 111.352 452.171 111.352Z" fill="#2A2859"/>
<path d="M168.008 138.64C170.178 138.64 171.48 139.97 171.48 141.832C171.48 143.694 170.108 144.968 167.938 144.968H165.712V149H164.732V138.64H168.008ZM168.05 144.1C169.646 144.1 170.472 143.288 170.472 141.832C170.472 140.376 169.646 139.536 168.05 139.536H165.712V144.1H168.05ZM175.759 141.468C176.725 141.468 177.425 142.112 177.425 143.372V144.1L176.557 144.268V143.54C176.557 142.798 176.305 142.308 175.549 142.308C174.695 142.308 174.051 142.938 174.051 144.436V149H173.099V141.58H174.051V142.504C174.443 141.804 175.101 141.468 175.759 141.468ZM179.782 140.236C179.32 140.236 178.942 139.872 178.942 139.396C178.942 138.92 179.32 138.556 179.782 138.556C180.244 138.556 180.622 138.92 180.622 139.396C180.622 139.872 180.244 140.236 179.782 140.236ZM179.306 149V141.58H180.258V149H179.306ZM187.401 141.58H188.381L185.469 149H184.629L181.717 141.58H182.753L185.077 147.95L187.401 141.58ZM195.089 149H194.221C194.109 148.594 194.025 148.104 194.025 147.544C193.647 148.412 192.681 149.112 191.477 149.112C190.161 149.112 189.167 148.258 189.167 146.984C189.167 145.458 190.539 144.66 192.065 144.66C192.667 144.66 193.255 144.73 193.857 144.94V143.96C193.857 142.994 193.269 142.336 192.121 142.336C191.197 142.336 190.413 142.742 190.021 143.876L189.181 143.624C189.741 142.056 190.875 141.468 192.177 141.468C194.011 141.468 194.781 142.574 194.781 143.848V146.9C194.781 147.74 194.921 148.496 195.089 149ZM193.857 145.92V145.752C193.283 145.514 192.695 145.444 192.121 145.444C191.001 145.444 190.119 145.948 190.119 146.928C190.119 147.824 190.749 148.3 191.645 148.3C192.611 148.3 193.857 147.726 193.857 145.92ZM198.536 147.152C198.536 148.02 199.054 148.272 199.516 148.272C199.964 148.272 200.258 148.104 200.608 147.74L201.112 148.3C200.622 148.874 200.09 149.112 199.432 149.112C198.424 149.112 197.584 148.44 197.584 147.124V142.364H196.184V141.58H197.584V139.984L198.536 139.424V141.58H200.944V142.364H198.536V147.152ZM207.383 146.9L208.083 147.292C207.733 148.188 206.809 149.112 205.157 149.112C203.071 149.112 201.839 147.558 201.839 145.192C201.839 143.022 203.127 141.468 205.059 141.468C206.655 141.468 208.027 142.616 208.027 144.632L207.999 145.458H202.805C202.889 147.432 203.827 148.272 205.255 148.272C206.375 148.272 207.033 147.628 207.383 146.9ZM205.059 142.308C203.939 142.308 202.931 142.91 202.805 144.674H207.089C207.131 143.008 206.151 142.308 205.059 142.308ZM217.038 141.482C218.928 141.482 220.202 143.064 220.202 145.22C220.202 147.502 218.914 149.112 216.926 149.112C215.89 149.112 215.05 148.594 214.602 147.656V149H213.65V138.64H214.602V142.966C215.092 142.014 216.072 141.482 217.038 141.482ZM216.926 148.272C218.312 148.272 219.222 147.208 219.222 145.262C219.222 143.386 218.312 142.322 216.94 142.322C215.456 142.322 214.602 143.428 214.602 145.248C214.602 147.18 215.442 148.272 216.926 148.272ZM227.67 149H226.802C226.69 148.594 226.606 148.104 226.606 147.544C226.228 148.412 225.262 149.112 224.058 149.112C222.742 149.112 221.748 148.258 221.748 146.984C221.748 145.458 223.12 144.66 224.646 144.66C225.248 144.66 225.836 144.73 226.438 144.94V143.96C226.438 142.994 225.85 142.336 224.702 142.336C223.778 142.336 222.994 142.742 222.602 143.876L221.762 143.624C222.322 142.056 223.456 141.468 224.758 141.468C226.592 141.468 227.362 142.574 227.362 143.848V146.9C227.362 147.74 227.502 148.496 227.67 149ZM226.438 145.92V145.752C225.864 145.514 225.276 145.444 224.702 145.444C223.582 145.444 222.7 145.948 222.7 146.928C222.7 147.824 223.33 148.3 224.226 148.3C225.192 148.3 226.438 147.726 226.438 145.92ZM232.428 141.468C233.394 141.468 234.094 142.112 234.094 143.372V144.1L233.226 144.268V143.54C233.226 142.798 232.974 142.308 232.218 142.308C231.364 142.308 230.72 142.938 230.72 144.436V149H229.768V141.58H230.72V142.504C231.112 141.804 231.77 141.468 232.428 141.468ZM239.083 141.468C240.567 141.468 241.435 142.378 241.435 144.044V149H240.483V144.184C240.483 142.84 239.867 142.336 238.831 142.336C237.529 142.336 236.927 143.344 236.927 144.828V149H235.975V141.58H236.927V142.728C237.375 141.916 238.187 141.468 239.083 141.468ZM248.795 146.9L249.495 147.292C249.145 148.188 248.221 149.112 246.569 149.112C244.483 149.112 243.251 147.558 243.251 145.192C243.251 143.022 244.539 141.468 246.471 141.468C248.067 141.468 249.439 142.616 249.439 144.632L249.411 145.458H244.217C244.301 147.432 245.239 148.272 246.667 148.272C247.787 148.272 248.445 147.628 248.795 146.9ZM246.471 142.308C245.351 142.308 244.343 142.91 244.217 144.674H248.501C248.543 143.008 247.563 142.308 246.471 142.308ZM254.588 141.468C256.072 141.468 256.94 142.378 256.94 144.044V149H255.988V144.184C255.988 142.84 255.372 142.336 254.336 142.336C253.034 142.336 252.432 143.344 252.432 144.828V149H251.48V138.64H252.432V142.728C252.88 141.916 253.692 141.468 254.588 141.468ZM264.761 149H263.893C263.781 148.594 263.697 148.104 263.697 147.544C263.319 148.412 262.353 149.112 261.149 149.112C259.833 149.112 258.839 148.258 258.839 146.984C258.839 145.458 260.211 144.66 261.737 144.66C262.339 144.66 262.927 144.73 263.529 144.94V143.96C263.529 142.994 262.941 142.336 261.793 142.336C260.869 142.336 260.085 142.742 259.693 143.876L258.853 143.624C259.413 142.056 260.547 141.468 261.849 141.468C263.683 141.468 264.453 142.574 264.453 143.848V146.9C264.453 147.74 264.593 148.496 264.761 149ZM263.529 145.92V145.752C262.955 145.514 262.367 145.444 261.793 145.444C260.673 145.444 259.791 145.948 259.791 146.928C259.791 147.824 260.421 148.3 261.317 148.3C262.283 148.3 263.529 147.726 263.529 145.92ZM273.388 142.364H271.792V142.63C272.156 143.078 272.352 143.638 272.352 144.184C272.352 145.542 271.372 146.928 269.286 146.928H268.964C268.124 146.928 267.522 147.25 267.522 147.74C267.522 148.118 267.816 148.384 268.432 148.384H271.442C272.646 148.384 273.262 148.972 273.262 149.896C273.262 151.366 271.568 152.136 269.482 152.136C267.606 152.136 266.304 151.534 265.856 150.232L266.626 149.882C267.144 151.1 268.236 151.338 269.482 151.338C271.022 151.338 272.31 150.876 272.31 149.98C272.31 149.56 272.086 149.252 271.414 149.252H268.222C267.186 149.252 266.57 148.762 266.57 147.992C266.57 147.334 267.116 146.76 268.026 146.522C267.046 146.13 266.5 145.094 266.5 144.184C266.5 142.854 267.494 141.468 269.454 141.468C270.224 141.468 270.812 141.72 271.26 142.098V141.58H273.388V142.364ZM269.44 146.144C270.756 146.144 271.414 145.234 271.414 144.184C271.414 143.148 270.756 142.28 269.44 142.28C268.11 142.28 267.438 143.162 267.438 144.184C267.438 145.22 268.11 146.144 269.44 146.144ZM279.379 146.9L280.079 147.292C279.729 148.188 278.805 149.112 277.153 149.112C275.067 149.112 273.835 147.558 273.835 145.192C273.835 143.022 275.123 141.468 277.055 141.468C278.651 141.468 280.023 142.616 280.023 144.632L279.995 145.458H274.801C274.885 147.432 275.823 148.272 277.251 148.272C278.371 148.272 279.029 147.628 279.379 146.9ZM277.055 142.308C275.935 142.308 274.927 142.91 274.801 144.674H279.085C279.127 143.008 278.147 142.308 277.055 142.308ZM284.696 141.468C285.662 141.468 286.362 142.112 286.362 143.372V144.1L285.494 144.268V143.54C285.494 142.798 285.242 142.308 284.486 142.308C283.632 142.308 282.988 142.938 282.988 144.436V149H282.036V141.58H282.988V142.504C283.38 141.804 284.038 141.468 284.696 141.468ZM294.961 141.468C296.445 141.468 297.313 142.378 297.313 144.044V149H296.361V144.184C296.361 142.84 295.745 142.336 294.709 142.336C293.407 142.336 292.805 143.344 292.805 144.828V149H291.853V138.64H292.805V142.728C293.253 141.916 294.065 141.468 294.961 141.468ZM305.134 149H304.266C304.154 148.594 304.07 148.104 304.07 147.544C303.692 148.412 302.726 149.112 301.522 149.112C300.206 149.112 299.212 148.258 299.212 146.984C299.212 145.458 300.584 144.66 302.11 144.66C302.712 144.66 303.3 144.73 303.902 144.94V143.96C303.902 142.994 303.314 142.336 302.166 142.336C301.242 142.336 300.458 142.742 300.066 143.876L299.226 143.624C299.786 142.056 300.92 141.468 302.222 141.468C304.056 141.468 304.826 142.574 304.826 143.848V146.9C304.826 147.74 304.966 148.496 305.134 149ZM303.902 145.92V145.752C303.328 145.514 302.74 145.444 302.166 145.444C301.046 145.444 300.164 145.948 300.164 146.928C300.164 147.824 300.794 148.3 301.69 148.3C302.656 148.3 303.902 147.726 303.902 145.92ZM309.893 141.468C310.859 141.468 311.559 142.112 311.559 143.372V144.1L310.691 144.268V143.54C310.691 142.798 310.439 142.308 309.683 142.308C308.829 142.308 308.185 142.938 308.185 144.436V149H307.233V141.58H308.185V142.504C308.577 141.804 309.235 141.468 309.893 141.468ZM322.09 146.9L322.79 147.292C322.44 148.188 321.516 149.112 319.864 149.112C317.778 149.112 316.546 147.558 316.546 145.192C316.546 143.022 317.834 141.468 319.766 141.468C321.362 141.468 322.734 142.616 322.734 144.632L322.706 145.458H317.512C317.596 147.432 318.534 148.272 319.962 148.272C321.082 148.272 321.74 147.628 322.09 146.9ZM319.766 142.308C318.646 142.308 317.638 142.91 317.512 144.674H321.796C321.838 143.008 320.858 142.308 319.766 142.308ZM331.274 142.364H329.678V142.63C330.042 143.078 330.238 143.638 330.238 144.184C330.238 145.542 329.258 146.928 327.172 146.928H326.85C326.01 146.928 325.408 147.25 325.408 147.74C325.408 148.118 325.702 148.384 326.318 148.384H329.328C330.532 148.384 331.148 148.972 331.148 149.896C331.148 151.366 329.454 152.136 327.368 152.136C325.492 152.136 324.19 151.534 323.742 150.232L324.512 149.882C325.03 151.1 326.122 151.338 327.368 151.338C328.908 151.338 330.196 150.876 330.196 149.98C330.196 149.56 329.972 149.252 329.3 149.252H326.108C325.072 149.252 324.456 148.762 324.456 147.992C324.456 147.334 325.002 146.76 325.912 146.522C324.932 146.13 324.386 145.094 324.386 144.184C324.386 142.854 325.38 141.468 327.34 141.468C328.11 141.468 328.698 141.72 329.146 142.098V141.58H331.274V142.364ZM327.326 146.144C328.642 146.144 329.3 145.234 329.3 144.184C329.3 143.148 328.642 142.28 327.326 142.28C325.996 142.28 325.324 143.162 325.324 144.184C325.324 145.22 325.996 146.144 327.326 146.144ZM335.867 141.468C337.351 141.468 338.219 142.378 338.219 144.044V149H337.267V144.184C337.267 142.84 336.651 142.336 335.615 142.336C334.313 142.336 333.711 143.344 333.711 144.828V149H332.759V141.58H333.711V142.728C334.159 141.916 334.971 141.468 335.867 141.468ZM345.579 146.9L346.279 147.292C345.929 148.188 345.005 149.112 343.353 149.112C341.267 149.112 340.035 147.558 340.035 145.192C340.035 143.022 341.323 141.468 343.255 141.468C344.851 141.468 346.223 142.616 346.223 144.632L346.195 145.458H341.001C341.085 147.432 342.023 148.272 343.451 148.272C344.571 148.272 345.229 147.628 345.579 146.9ZM343.255 142.308C342.135 142.308 341.127 142.91 341.001 144.674H345.285C345.327 143.008 344.347 142.308 343.255 142.308ZM356.549 141.58H357.529L354.617 149H353.777L350.865 141.58H351.901L354.225 147.95L356.549 141.58ZM363.776 146.9L364.476 147.292C364.126 148.188 363.202 149.112 361.55 149.112C359.464 149.112 358.232 147.558 358.232 145.192C358.232 143.022 359.52 141.468 361.452 141.468C363.048 141.468 364.42 142.616 364.42 144.632L364.392 145.458H359.198C359.282 147.432 360.22 148.272 361.648 148.272C362.768 148.272 363.426 147.628 363.776 146.9ZM361.452 142.308C360.332 142.308 359.324 142.91 359.198 144.674H363.482C363.524 143.008 362.544 142.308 361.452 142.308ZM371.557 138.64H372.509V149H371.557V147.614C371.067 148.566 370.087 149.098 369.121 149.098C367.231 149.098 365.957 147.516 365.957 145.36C365.957 143.078 367.245 141.468 369.233 141.468C370.269 141.468 371.109 141.986 371.557 142.924V138.64ZM369.219 148.258C370.703 148.258 371.557 147.152 371.557 145.332C371.557 143.4 370.717 142.308 369.233 142.308C367.847 142.308 366.937 143.372 366.937 145.318C366.937 147.194 367.847 148.258 369.219 148.258ZM376.338 147.152C376.338 148.02 376.856 148.272 377.318 148.272C377.766 148.272 378.06 148.104 378.41 147.74L378.914 148.3C378.424 148.874 377.892 149.112 377.234 149.112C376.226 149.112 375.386 148.44 375.386 147.124V142.364H373.986V141.58H375.386V139.984L376.338 139.424V141.58H378.746V142.364H376.338V147.152ZM385.186 146.9L385.886 147.292C385.536 148.188 384.612 149.112 382.96 149.112C380.874 149.112 379.642 147.558 379.642 145.192C379.642 143.022 380.93 141.468 382.862 141.468C384.458 141.468 385.83 142.616 385.83 144.632L385.802 145.458H380.608C380.692 147.432 381.63 148.272 383.058 148.272C384.178 148.272 384.836 147.628 385.186 146.9ZM382.862 142.308C381.742 142.308 380.734 142.91 380.608 144.674H384.892C384.934 143.008 383.954 142.308 382.862 142.308ZM392.463 149L389.733 145.318L388.823 146.186V149H387.871V138.64H388.823V145.066L392.351 141.58H393.611L390.377 144.688L393.667 149H392.463ZM396.477 147.152C396.477 148.02 396.995 148.272 397.457 148.272C397.905 148.272 398.199 148.104 398.549 147.74L399.053 148.3C398.563 148.874 398.031 149.112 397.373 149.112C396.365 149.112 395.525 148.44 395.525 147.124V142.364H394.125V141.58H395.525V139.984L396.477 139.424V141.58H398.885V142.364H396.477V147.152ZM405.325 146.9L406.025 147.292C405.675 148.188 404.751 149.112 403.099 149.112C401.013 149.112 399.781 147.558 399.781 145.192C399.781 143.022 401.069 141.468 403.001 141.468C404.597 141.468 405.969 142.616 405.969 144.632L405.941 145.458H400.747C400.831 147.432 401.769 148.272 403.197 148.272C404.317 148.272 404.975 147.628 405.325 146.9ZM403.001 142.308C401.881 142.308 400.873 142.91 400.747 144.674H405.031C405.073 143.008 404.093 142.308 403.001 142.308ZM410.641 141.468C411.607 141.468 412.307 142.112 412.307 143.372V144.1L411.439 144.268V143.54C411.439 142.798 411.187 142.308 410.431 142.308C409.577 142.308 408.933 142.938 408.933 144.436V149H407.981V141.58H408.933V142.504C409.325 141.804 409.983 141.468 410.641 141.468ZM417.406 143.512C417.406 142.336 418.512 141.468 420.066 141.468C421.41 141.468 422.446 142.112 422.754 143.092L421.97 143.4C421.676 142.686 420.99 142.308 420.038 142.308C419.002 142.308 418.33 142.742 418.33 143.428C418.33 144.044 418.736 144.422 419.618 144.604L420.598 144.8C422.222 145.122 422.978 145.822 422.978 146.928C422.978 148.216 421.83 149.112 420.178 149.112C418.68 149.112 417.63 148.524 417.126 147.404L417.938 147.068C418.288 147.852 419.058 148.272 420.15 148.272C421.298 148.272 422.054 147.768 422.054 147.012C422.054 146.312 421.662 145.934 420.682 145.724L419.478 145.472C418.12 145.192 417.406 144.506 417.406 143.512ZM427.68 149.112C425.846 149.112 424.376 147.6 424.376 145.276C424.376 142.98 425.832 141.468 427.68 141.468C429.528 141.468 430.984 142.98 430.984 145.276C430.984 147.6 429.514 149.112 427.68 149.112ZM427.68 148.272C428.954 148.272 430.004 147.264 430.004 145.276C430.004 143.302 428.94 142.308 427.68 142.308C426.42 142.308 425.356 143.302 425.356 145.276C425.356 147.264 426.406 148.272 427.68 148.272ZM440.311 141.468C441.725 141.468 442.551 142.364 442.551 143.904V149H441.599V144.044C441.599 142.84 441.025 142.336 440.059 142.336C438.757 142.336 438.211 143.344 438.211 144.828V149H437.259V144.044C437.259 142.84 436.685 142.336 435.719 142.336C434.417 142.336 433.871 143.344 433.871 144.828V149H432.919V141.58H433.871V142.742C434.319 141.916 435.103 141.468 435.971 141.468C437.077 141.468 437.819 142.014 438.085 142.98C438.505 142 439.359 141.468 440.311 141.468ZM168.12 163.482C170.01 163.482 171.284 165.064 171.284 167.22C171.284 169.502 169.996 171.112 168.008 171.112C166.972 171.112 166.132 170.594 165.684 169.656V171H164.732V160.64H165.684V164.966C166.174 164.014 167.154 163.482 168.12 163.482ZM168.008 170.272C169.394 170.272 170.304 169.208 170.304 167.262C170.304 165.386 169.394 164.322 168.022 164.322C166.538 164.322 165.684 165.428 165.684 167.248C165.684 169.18 166.524 170.272 168.008 170.272ZM178.29 168.9L178.99 169.292C178.64 170.188 177.716 171.112 176.064 171.112C173.978 171.112 172.746 169.558 172.746 167.192C172.746 165.022 174.034 163.468 175.966 163.468C177.562 163.468 178.934 164.616 178.934 166.632L178.906 167.458H173.712C173.796 169.432 174.734 170.272 176.162 170.272C177.282 170.272 177.94 169.628 178.29 168.9ZM175.966 164.308C174.846 164.308 173.838 164.91 173.712 166.674H177.996C178.038 165.008 177.058 164.308 175.966 164.308ZM180.582 165.512C180.582 164.336 181.688 163.468 183.242 163.468C184.586 163.468 185.622 164.112 185.93 165.092L185.146 165.4C184.852 164.686 184.166 164.308 183.214 164.308C182.178 164.308 181.506 164.742 181.506 165.428C181.506 166.044 181.912 166.422 182.794 166.604L183.774 166.8C185.398 167.122 186.154 167.822 186.154 168.928C186.154 170.216 185.006 171.112 183.354 171.112C181.856 171.112 180.806 170.524 180.302 169.404L181.114 169.068C181.464 169.852 182.234 170.272 183.326 170.272C184.474 170.272 185.23 169.768 185.23 169.012C185.23 168.312 184.838 167.934 183.858 167.724L182.654 167.472C181.296 167.192 180.582 166.506 180.582 165.512ZM189.376 169.152C189.376 170.02 189.894 170.272 190.356 170.272C190.803 170.272 191.098 170.104 191.448 169.74L191.952 170.3C191.462 170.874 190.93 171.112 190.272 171.112C189.264 171.112 188.424 170.44 188.424 169.124V164.364H187.024V163.58H188.424V161.984L189.376 161.424V163.58H191.784V164.364H189.376V169.152ZM198.223 168.9L198.923 169.292C198.573 170.188 197.649 171.112 195.997 171.112C193.911 171.112 192.679 169.558 192.679 167.192C192.679 165.022 193.967 163.468 195.899 163.468C197.495 163.468 198.867 164.616 198.867 166.632L198.839 167.458H193.645C193.729 169.432 194.667 170.272 196.095 170.272C197.215 170.272 197.873 169.628 198.223 168.9ZM195.899 164.308C194.779 164.308 193.771 164.91 193.645 166.674H197.929C197.971 165.008 196.991 164.308 195.899 164.308ZM208.272 163.468C209.686 163.468 210.512 164.364 210.512 165.904V171H209.56V166.044C209.56 164.84 208.986 164.336 208.02 164.336C206.718 164.336 206.172 165.344 206.172 166.828V171H205.22V166.044C205.22 164.84 204.646 164.336 203.68 164.336C202.378 164.336 201.832 165.344 201.832 166.828V171H200.88V163.58H201.832V164.742C202.28 163.916 203.064 163.468 203.932 163.468C205.038 163.468 205.78 164.014 206.046 164.98C206.466 164 207.32 163.468 208.272 163.468ZM220.194 163.468C221.608 163.468 222.434 164.364 222.434 165.904V171H221.482V166.044C221.482 164.84 220.908 164.336 219.942 164.336C218.64 164.336 218.094 165.344 218.094 166.828V171H217.142V166.044C217.142 164.84 216.568 164.336 215.602 164.336C214.3 164.336 213.754 165.344 213.754 166.828V171H212.802V163.58H213.754V164.742C214.202 163.916 214.986 163.468 215.854 163.468C216.96 163.468 217.702 164.014 217.968 164.98C218.388 164 219.242 163.468 220.194 163.468ZM229.792 168.9L230.492 169.292C230.142 170.188 229.218 171.112 227.566 171.112C225.48 171.112 224.248 169.558 224.248 167.192C224.248 165.022 225.536 163.468 227.468 163.468C229.064 163.468 230.436 164.616 230.436 166.632L230.408 167.458H225.214C225.298 169.432 226.236 170.272 227.664 170.272C228.784 170.272 229.442 169.628 229.792 168.9ZM227.468 164.308C226.348 164.308 225.34 164.91 225.214 166.674H229.498C229.54 165.008 228.56 164.308 227.468 164.308ZM235.108 163.468C236.074 163.468 236.774 164.112 236.774 165.372V166.1L235.906 166.268V165.54C235.906 164.798 235.654 164.308 234.898 164.308C234.044 164.308 233.4 164.938 233.4 166.436V171H232.448V163.58H233.4V164.504C233.792 163.804 234.45 163.468 235.108 163.468ZM245.373 163.468C246.857 163.468 247.725 164.378 247.725 166.044V171H246.773V166.184C246.773 164.84 246.157 164.336 245.121 164.336C243.819 164.336 243.217 165.344 243.217 166.828V171H242.265V160.64H243.217V164.728C243.665 163.916 244.477 163.468 245.373 163.468ZM254.612 163.58H255.592L252.68 171H251.84L248.928 163.58H249.964L252.288 169.95L254.612 163.58ZM261.838 168.9L262.538 169.292C262.188 170.188 261.264 171.112 259.612 171.112C257.526 171.112 256.294 169.558 256.294 167.192C256.294 165.022 257.582 163.468 259.514 163.468C261.11 163.468 262.482 164.616 262.482 166.632L262.454 167.458H257.26C257.344 169.432 258.282 170.272 259.71 170.272C260.83 170.272 261.488 169.628 261.838 168.9ZM259.514 164.308C258.394 164.308 257.386 164.91 257.26 166.674H261.544C261.586 165.008 260.606 164.308 259.514 164.308ZM271.887 163.468C273.301 163.468 274.127 164.364 274.127 165.904V171H273.175V166.044C273.175 164.84 272.601 164.336 271.635 164.336C270.333 164.336 269.787 165.344 269.787 166.828V171H268.835V166.044C268.835 164.84 268.261 164.336 267.295 164.336C265.993 164.336 265.447 165.344 265.447 166.828V171H264.495V163.58H265.447V164.742C265.895 163.916 266.679 163.468 267.547 163.468C268.653 163.468 269.395 164.014 269.661 164.98C270.081 164 270.935 163.468 271.887 163.468ZM285.123 160.64H286.075V171H285.123V169.614C284.633 170.566 283.653 171.098 282.687 171.098C280.797 171.098 279.523 169.516 279.523 167.36C279.523 165.078 280.811 163.468 282.799 163.468C283.835 163.468 284.675 163.986 285.123 164.924V160.64ZM282.785 170.258C284.269 170.258 285.123 169.152 285.123 167.332C285.123 165.4 284.283 164.308 282.799 164.308C281.413 164.308 280.503 165.372 280.503 167.318C280.503 169.194 281.413 170.258 282.785 170.258ZM293.489 168.9L294.189 169.292C293.839 170.188 292.915 171.112 291.263 171.112C289.177 171.112 287.945 169.558 287.945 167.192C287.945 165.022 289.233 163.468 291.165 163.468C292.761 163.468 294.133 164.616 294.133 166.632L294.105 167.458H288.911C288.995 169.432 289.933 170.272 291.361 170.272C292.481 170.272 293.139 169.628 293.489 168.9ZM291.165 164.308C290.045 164.308 289.037 164.91 288.911 166.674H293.195C293.237 165.008 292.257 164.308 291.165 164.308ZM303.115 163.482C305.005 163.482 306.279 165.064 306.279 167.22C306.279 169.502 304.991 171.112 303.003 171.112C301.967 171.112 301.127 170.594 300.679 169.656V173.94H299.727V163.58H300.679V164.966C301.169 164.014 302.149 163.482 303.115 163.482ZM303.003 170.272C304.389 170.272 305.299 169.208 305.299 167.262C305.299 165.386 304.389 164.322 303.017 164.322C301.533 164.322 300.679 165.428 300.679 167.248C300.679 169.18 301.519 170.272 303.003 170.272ZM310.878 163.468C311.844 163.468 312.544 164.112 312.544 165.372V166.1L311.676 166.268V165.54C311.676 164.798 311.424 164.308 310.668 164.308C309.814 164.308 309.17 164.938 309.17 166.436V171H308.218V163.58H309.17V164.504C309.562 163.804 310.22 163.468 310.878 163.468ZM314.901 162.236C314.439 162.236 314.061 161.872 314.061 161.396C314.061 160.92 314.439 160.556 314.901 160.556C315.363 160.556 315.741 160.92 315.741 161.396C315.741 161.872 315.363 162.236 314.901 162.236ZM314.425 171V163.58H315.377V171H314.425ZM320.616 171.112C318.782 171.112 317.312 169.6 317.312 167.276C317.312 164.98 318.768 163.468 320.616 163.468C322.464 163.468 323.92 164.98 323.92 167.276C323.92 169.6 322.45 171.112 320.616 171.112ZM320.616 170.272C321.89 170.272 322.94 169.264 322.94 167.276C322.94 165.302 321.876 164.308 320.616 164.308C319.356 164.308 318.292 165.302 318.292 167.276C318.292 169.264 319.342 170.272 320.616 170.272ZM328.514 163.468C329.48 163.468 330.18 164.112 330.18 165.372V166.1L329.312 166.268V165.54C329.312 164.798 329.06 164.308 328.304 164.308C327.45 164.308 326.806 164.938 326.806 166.436V171H325.854V163.58H326.806V164.504C327.198 163.804 327.856 163.468 328.514 163.468ZM331.809 160.696H333.265V162.124H331.809V160.696ZM332.061 171V163.58H333.013V171H332.061ZM336.909 169.152C336.909 170.02 337.427 170.272 337.889 170.272C338.337 170.272 338.631 170.104 338.981 169.74L339.485 170.3C338.995 170.874 338.463 171.112 337.805 171.112C336.797 171.112 335.957 170.44 335.957 169.124V164.364H334.557V163.58H335.957V161.984L336.909 161.424V163.58H339.317V164.364H336.909V169.152ZM345.756 168.9L346.456 169.292C346.106 170.188 345.182 171.112 343.53 171.112C341.444 171.112 340.212 169.558 340.212 167.192C340.212 165.022 341.5 163.468 343.432 163.468C345.028 163.468 346.4 164.616 346.4 166.632L346.372 167.458H341.178C341.262 169.432 342.2 170.272 343.628 170.272C344.748 170.272 345.406 169.628 345.756 168.9ZM343.432 164.308C342.312 164.308 341.304 164.91 341.178 166.674H345.462C345.504 165.008 344.524 164.308 343.432 164.308ZM351.073 163.468C352.039 163.468 352.739 164.112 352.739 165.372V166.1L351.871 166.268V165.54C351.871 164.798 351.619 164.308 350.863 164.308C350.009 164.308 349.365 164.938 349.365 166.436V171H348.413V163.58H349.365V164.504C349.757 163.804 350.415 163.468 351.073 163.468ZM359.264 168.9L359.964 169.292C359.614 170.188 358.69 171.112 357.038 171.112C354.952 171.112 353.72 169.558 353.72 167.192C353.72 165.022 355.008 163.468 356.94 163.468C358.536 163.468 359.908 164.616 359.908 166.632L359.88 167.458H354.686C354.77 169.432 355.708 170.272 357.136 170.272C358.256 170.272 358.914 169.628 359.264 168.9ZM356.94 164.308C355.82 164.308 354.812 164.91 354.686 166.674H358.97C359.012 165.008 358.032 164.308 356.94 164.308ZM364.581 163.468C365.547 163.468 366.247 164.112 366.247 165.372V166.1L365.379 166.268V165.54C365.379 164.798 365.127 164.308 364.371 164.308C363.517 164.308 362.873 164.938 362.873 166.436V171H361.921V163.58H362.873V164.504C363.265 163.804 363.923 163.468 364.581 163.468ZM372.186 162.236C371.724 162.236 371.346 161.872 371.346 161.396C371.346 160.92 371.724 160.556 372.186 160.556C372.648 160.556 373.026 160.92 373.026 161.396C373.026 161.872 372.648 162.236 372.186 162.236ZM371.71 171V163.58H372.662V171H371.71ZM381.483 171.112C379.649 171.112 378.179 169.6 378.179 167.276C378.179 164.98 379.635 163.468 381.483 163.468C383.331 163.468 384.787 164.98 384.787 167.276C384.787 169.6 383.317 171.112 381.483 171.112ZM381.483 170.272C382.757 170.272 383.807 169.264 383.807 167.276C383.807 165.302 382.743 164.308 381.483 164.308C380.223 164.308 379.159 165.302 379.159 167.276C379.159 169.264 380.209 170.272 381.483 170.272ZM390.11 163.482C392 163.482 393.274 165.064 393.274 167.22C393.274 169.502 391.986 171.112 389.998 171.112C388.962 171.112 388.122 170.594 387.674 169.656V173.94H386.722V163.58H387.674V164.966C388.164 164.014 389.144 163.482 390.11 163.482ZM389.998 170.272C391.384 170.272 392.294 169.208 392.294 167.262C392.294 165.386 391.384 164.322 390.012 164.322C388.528 164.322 387.674 165.428 387.674 167.248C387.674 169.18 388.514 170.272 389.998 170.272ZM398.6 163.482C400.49 163.482 401.764 165.064 401.764 167.22C401.764 169.502 400.476 171.112 398.488 171.112C397.452 171.112 396.612 170.594 396.164 169.656V173.94H395.212V163.58H396.164V164.966C396.654 164.014 397.634 163.482 398.6 163.482ZM398.488 170.272C399.874 170.272 400.784 169.208 400.784 167.262C400.784 165.386 399.874 164.322 398.502 164.322C397.018 164.322 396.164 165.428 396.164 167.248C396.164 169.18 397.004 170.272 398.488 170.272ZM405.049 169.152C405.049 170.02 405.567 170.272 406.029 170.272C406.477 170.272 406.771 170.104 407.121 169.74L407.625 170.3C407.135 170.874 406.603 171.112 405.945 171.112C404.937 171.112 404.097 170.44 404.097 169.124V164.364H402.697V163.58H404.097V161.984L405.049 161.424V163.58H407.457V164.364H405.049V169.152ZM414.509 171H413.641C413.529 170.594 413.445 170.104 413.445 169.544C413.067 170.412 412.101 171.112 410.897 171.112C409.581 171.112 408.587 170.258 408.587 168.984C408.587 167.458 409.959 166.66 411.485 166.66C412.087 166.66 412.675 166.73 413.277 166.94V165.96C413.277 164.994 412.689 164.336 411.541 164.336C410.617 164.336 409.833 164.742 409.441 165.876L408.601 165.624C409.161 164.056 410.295 163.468 411.597 163.468C413.431 163.468 414.201 164.574 414.201 165.848V168.9C414.201 169.74 414.341 170.496 414.509 171ZM413.277 167.92V167.752C412.703 167.514 412.115 167.444 411.541 167.444C410.421 167.444 409.539 167.948 409.539 168.928C409.539 169.824 410.169 170.3 411.065 170.3C412.031 170.3 413.277 169.726 413.277 167.92ZM421.228 171L418.498 167.318L417.588 168.186V171H416.636V160.64H417.588V167.066L421.116 163.58H422.376L419.142 166.688L422.432 171H421.228ZM428.54 168.9L429.24 169.292C428.89 170.188 427.966 171.112 426.314 171.112C424.228 171.112 422.996 169.558 422.996 167.192C422.996 165.022 424.284 163.468 426.216 163.468C427.812 163.468 429.184 164.616 429.184 166.632L429.156 167.458H423.962C424.046 169.432 424.984 170.272 426.412 170.272C427.532 170.272 428.19 169.628 428.54 168.9ZM426.216 164.308C425.096 164.308 424.088 164.91 423.962 166.674H428.246C428.288 165.008 427.308 164.308 426.216 164.308ZM432.543 169.152C432.543 170.02 433.061 170.272 433.523 170.272C433.971 170.272 434.265 170.104 434.615 169.74L435.119 170.3C434.629 170.874 434.097 171.112 433.439 171.112C432.431 171.112 431.591 170.44 431.591 169.124V164.364H430.191V163.58H431.591V161.984L432.543 161.424V163.58H434.951V164.364H432.543V169.152ZM436.691 169.432H438.203V171H436.691V169.432Z" fill="#2A2859"/>
<rect x="546.5" y="102" width="22" height="22" rx="11" stroke="#2A2859" stroke-width="2"/>
<path d="M590.268 115.704V107.16H592.14V115.656C592.14 117.944 590.796 119.144 588.828 119.144C587.372 119.144 586.38 118.488 585.756 117.432L587.02 116.408C587.436 117.048 587.916 117.448 588.732 117.448C589.66 117.448 590.268 116.856 590.268 115.704ZM601.319 119H599.671C599.543 118.568 599.463 118.056 599.431 117.4C599.031 118.28 598.135 119.144 596.663 119.144C595.127 119.144 594.039 118.104 594.039 116.632C594.039 114.792 595.671 113.88 597.495 113.88C598.071 113.88 598.615 113.928 599.207 114.088V113.288C599.207 112.376 598.631 111.784 597.591 111.784C596.615 111.784 595.927 112.312 595.607 113.304L594.087 112.84C594.695 111.048 596.151 110.328 597.671 110.328C599.927 110.328 600.951 111.656 600.951 113.272V116.552C600.951 117.56 601.111 118.456 601.319 119ZM599.207 115.496V115.304C598.695 115.128 598.199 115.064 597.671 115.064C596.615 115.064 595.799 115.544 595.799 116.472C595.799 117.256 596.359 117.752 597.207 117.752C598.071 117.752 599.207 117.24 599.207 115.496ZM604.547 116.488C605.395 116.488 606.019 117.16 606.019 118.456C606.019 119.816 605.379 121.064 603.843 122.168L603.363 121.56C604.291 120.872 604.899 120.12 604.835 119.016C604.739 119.032 604.627 119.048 604.499 119.048C603.811 119.048 603.203 118.568 603.203 117.768C603.203 117.016 603.779 116.488 604.547 116.488ZM613.065 109.112C612.361 109.112 611.801 108.568 611.801 107.848C611.801 107.128 612.361 106.584 613.065 106.584C613.769 106.584 614.313 107.128 614.313 107.848C614.313 108.568 613.769 109.112 613.065 109.112ZM611.689 122.504C611.289 122.504 610.889 122.456 610.521 122.344L610.665 120.952C610.873 121.016 611.065 121.048 611.241 121.048C611.865 121.048 612.169 120.648 612.169 119.976V110.52H613.961V119.832C613.961 121.512 613.273 122.504 611.689 122.504ZM622.323 116.328L623.539 117.032C623.059 118.088 621.939 119.144 620.003 119.144C617.491 119.144 615.971 117.288 615.971 114.68C615.971 112.104 617.619 110.328 619.875 110.328C621.875 110.328 623.523 111.672 623.523 114.072L623.491 115.128H617.731C617.827 116.92 618.707 117.688 620.115 117.688C621.155 117.688 621.875 117.128 622.323 116.328ZM619.875 111.736C618.787 111.736 617.875 112.312 617.731 113.848H621.779C621.795 112.344 620.867 111.736 619.875 111.736ZM633.599 111.912H631.823V112.104C632.111 112.504 632.255 112.968 632.255 113.448C632.255 114.984 631.071 116.52 628.607 116.52H628.191C627.327 116.52 626.767 116.808 626.767 117.32C626.767 117.672 627.039 117.928 627.583 117.928H631.119C632.575 117.928 633.407 118.68 633.407 119.832C633.407 121.576 631.631 122.584 628.799 122.584C626.319 122.584 624.655 121.96 624.223 120.312L625.967 119.976C626.367 121 627.295 121.272 628.847 121.272C630.511 121.272 631.695 120.824 631.695 120.04C631.695 119.672 631.487 119.4 630.911 119.4H627.055C625.727 119.4 625.039 118.68 625.039 117.784C625.039 116.92 625.807 116.232 626.863 116.024C625.695 115.512 625.119 114.424 625.119 113.4C625.119 111.88 626.351 110.328 628.703 110.328C629.743 110.328 630.559 110.696 631.039 111.224V110.52H633.599V111.912ZM628.703 115.224C629.935 115.224 630.511 114.36 630.511 113.432C630.511 112.504 629.935 111.656 628.703 111.656C627.487 111.656 626.895 112.504 626.895 113.432C626.895 114.36 627.487 115.224 628.703 115.224ZM643.156 110.328C644.884 110.328 645.908 111.448 645.908 113.288V119H644.116V113.576C644.116 112.408 643.556 111.88 642.58 111.88C641.316 111.88 640.66 112.76 640.66 114.408V119H638.868V107.16H640.66V111.752C641.236 110.84 642.1 110.328 643.156 110.328ZM655.141 119H653.493C653.365 118.568 653.285 118.056 653.253 117.4C652.853 118.28 651.957 119.144 650.485 119.144C648.949 119.144 647.861 118.104 647.861 116.632C647.861 114.792 649.493 113.88 651.317 113.88C651.893 113.88 652.437 113.928 653.029 114.088V113.288C653.029 112.376 652.453 111.784 651.413 111.784C650.437 111.784 649.749 112.312 649.429 113.304L647.909 112.84C648.517 111.048 649.973 110.328 651.493 110.328C653.749 110.328 654.773 111.656 654.773 113.272V116.552C654.773 117.56 654.933 118.456 655.141 119ZM653.029 115.496V115.304C652.517 115.128 652.021 115.064 651.493 115.064C650.437 115.064 649.621 115.544 649.621 116.472C649.621 117.256 650.181 117.752 651.029 117.752C651.893 117.752 653.029 117.24 653.029 115.496ZM661.153 110.328C662.385 110.328 663.185 111.144 663.185 112.6V113.72L661.745 113.976V113.112C661.745 112.344 661.473 111.816 660.641 111.816C659.729 111.816 659.057 112.424 659.057 114.04V119H657.265V110.52H659.057V111.656C659.537 110.712 660.417 110.328 661.153 110.328ZM673.391 110.344C675.439 110.344 676.911 112.088 676.911 114.68C676.911 117.336 675.423 119.128 673.183 119.128C672.223 119.128 671.279 118.712 670.735 117.672V122.36H668.943V110.52H670.735V112.008C671.391 110.824 672.415 110.344 673.391 110.344ZM672.911 117.656C674.143 117.656 675.055 116.664 675.055 114.76C675.055 112.856 674.143 111.88 672.911 111.88C671.599 111.88 670.735 112.776 670.735 114.744C670.735 116.712 671.599 117.656 672.911 117.656ZM682.662 110.328C683.894 110.328 684.694 111.144 684.694 112.6V113.72L683.254 113.976V113.112C683.254 112.344 682.982 111.816 682.15 111.816C681.238 111.816 680.566 112.424 680.566 114.04V119H678.774V110.52H680.566V111.656C681.046 110.712 681.926 110.328 682.662 110.328ZM686.257 106.84H688.449V109H686.257V106.84ZM686.465 119V110.52H688.257V119H686.465ZM694.284 119.16C692.076 119.16 690.268 117.432 690.268 114.712C690.268 112.056 692.06 110.328 694.284 110.328C696.508 110.328 698.3 112.056 698.3 114.712C698.3 117.432 696.492 119.16 694.284 119.16ZM694.284 117.64C695.484 117.64 696.46 116.712 696.46 114.712C696.46 112.696 695.468 111.848 694.284 111.848C693.1 111.848 692.108 112.696 692.108 114.712C692.108 116.712 693.1 117.64 694.284 117.64ZM704.047 110.328C705.279 110.328 706.079 111.144 706.079 112.6V113.72L704.639 113.976V113.112C704.639 112.344 704.367 111.816 703.535 111.816C702.623 111.816 701.951 112.424 701.951 114.04V119H700.159V110.52H701.951V111.656C702.431 110.712 703.311 110.328 704.047 110.328ZM708.745 109.112C708.041 109.112 707.481 108.568 707.481 107.848C707.481 107.128 708.041 106.584 708.745 106.584C709.449 106.584 709.993 107.128 709.993 107.848C709.993 108.568 709.449 109.112 708.745 109.112ZM707.849 119V110.52H709.641V119H707.849ZM714.58 116.376C714.58 117.32 715.156 117.608 715.748 117.608C716.212 117.608 716.58 117.416 716.948 117.048L717.716 118.2C717.076 118.84 716.372 119.144 715.46 119.144C713.988 119.144 712.788 118.248 712.788 116.488V111.912H711.3V110.52H712.788V108.632L714.58 107.816V110.52H717.572V111.912H714.58V116.376ZM724.664 116.328L725.88 117.032C725.4 118.088 724.28 119.144 722.344 119.144C719.832 119.144 718.312 117.288 718.312 114.68C718.312 112.104 719.96 110.328 722.216 110.328C724.216 110.328 725.864 111.672 725.864 114.072L725.832 115.128H720.072C720.168 116.92 721.048 117.688 722.456 117.688C723.496 117.688 724.216 117.128 724.664 116.328ZM722.216 111.736C721.128 111.736 720.216 112.312 720.072 113.848H724.12C724.136 112.344 723.208 111.736 722.216 111.736ZM730.118 116.376C730.118 117.32 730.694 117.608 731.286 117.608C731.75 117.608 732.118 117.416 732.486 117.048L733.254 118.2C732.614 118.84 731.91 119.144 730.998 119.144C729.526 119.144 728.326 118.248 728.326 116.488V111.912H726.838V110.52H728.326V108.632L730.118 107.816V110.52H733.11V111.912H730.118V116.376ZM738.469 106.84H740.661V109H738.469V106.84ZM738.677 119V110.52H740.469V119H738.677ZM752.726 116.328L753.942 117.032C753.462 118.088 752.342 119.144 750.406 119.144C747.894 119.144 746.374 117.288 746.374 114.68C746.374 112.104 748.022 110.328 750.278 110.328C752.278 110.328 753.926 111.672 753.926 114.072L753.894 115.128H748.134C748.23 116.92 749.11 117.688 750.518 117.688C751.558 117.688 752.278 117.128 752.726 116.328ZM750.278 111.736C749.19 111.736 748.278 112.312 748.134 113.848H752.182C752.198 112.344 751.27 111.736 750.278 111.736ZM760.209 110.328C761.937 110.328 762.961 111.448 762.961 113.288V119H761.169V113.576C761.169 112.408 760.609 111.88 759.633 111.88C758.369 111.88 757.729 112.76 757.729 114.408V119H755.937V110.52H757.729V111.736C758.305 110.84 759.153 110.328 760.209 110.328ZM776.087 119H774.439C774.311 118.568 774.231 118.056 774.199 117.4C773.799 118.28 772.903 119.144 771.431 119.144C769.895 119.144 768.807 118.104 768.807 116.632C768.807 114.792 770.439 113.88 772.263 113.88C772.839 113.88 773.383 113.928 773.975 114.088V113.288C773.975 112.376 773.399 111.784 772.359 111.784C771.383 111.784 770.695 112.312 770.375 113.304L768.855 112.84C769.463 111.048 770.919 110.328 772.439 110.328C774.695 110.328 775.719 111.656 775.719 113.272V116.552C775.719 117.56 775.879 118.456 776.087 119ZM773.975 115.496V115.304C773.463 115.128 772.967 115.064 772.439 115.064C771.383 115.064 770.567 115.544 770.567 116.472C770.567 117.256 771.127 117.752 771.975 117.752C772.839 117.752 773.975 117.24 773.975 115.496ZM782.484 110.328C784.212 110.328 785.236 111.448 785.236 113.288V119H783.444V113.576C783.444 112.408 782.884 111.88 781.908 111.88C780.644 111.88 780.004 112.76 780.004 114.408V119H778.212V110.52H780.004V111.736C780.58 110.84 781.428 110.328 782.484 110.328ZM791.909 110.328C793.637 110.328 794.661 111.448 794.661 113.288V119H792.869V113.576C792.869 112.408 792.309 111.88 791.333 111.88C790.069 111.88 789.429 112.76 789.429 114.408V119H787.637V110.52H789.429V111.736C790.005 110.84 790.853 110.328 791.909 110.328ZM802.886 116.328L804.102 117.032C803.622 118.088 802.502 119.144 800.566 119.144C798.054 119.144 796.534 117.288 796.534 114.68C796.534 112.104 798.182 110.328 800.438 110.328C802.438 110.328 804.086 111.672 804.086 114.072L804.054 115.128H798.294C798.39 116.92 799.27 117.688 800.678 117.688C801.718 117.688 802.438 117.128 802.886 116.328ZM800.438 111.736C799.35 111.736 798.438 112.312 798.294 113.848H802.342C802.358 112.344 801.43 111.736 800.438 111.736ZM810.368 110.328C812.096 110.328 813.12 111.448 813.12 113.288V119H811.328V113.576C811.328 112.408 810.768 111.88 809.792 111.88C808.528 111.88 807.888 112.76 807.888 114.408V119H806.096V110.52H807.888V111.736C808.464 110.84 809.312 110.328 810.368 110.328ZM823.879 110.344C825.927 110.344 827.399 112.088 827.399 114.68C827.399 117.336 825.911 119.128 823.671 119.128C822.695 119.128 821.751 118.696 821.207 117.64V119H819.415V107.16H821.207V112.04C821.863 110.84 822.903 110.344 823.879 110.344ZM823.399 117.656C824.631 117.656 825.543 116.664 825.543 114.76C825.543 112.856 824.631 111.88 823.399 111.88C822.087 111.88 821.207 112.776 821.207 114.744C821.207 116.712 822.087 117.656 823.399 117.656ZM836.094 119H834.446C834.318 118.568 834.238 118.056 834.206 117.4C833.806 118.28 832.91 119.144 831.438 119.144C829.902 119.144 828.814 118.104 828.814 116.632C828.814 114.792 830.446 113.88 832.27 113.88C832.846 113.88 833.39 113.928 833.982 114.088V113.288C833.982 112.376 833.406 111.784 832.366 111.784C831.39 111.784 830.702 112.312 830.382 113.304L828.862 112.84C829.47 111.048 830.926 110.328 832.446 110.328C834.702 110.328 835.726 111.656 835.726 113.272V116.552C835.726 117.56 835.886 118.456 836.094 119ZM833.982 115.496V115.304C833.47 115.128 832.974 115.064 832.446 115.064C831.39 115.064 830.574 115.544 830.574 116.472C830.574 117.256 831.134 117.752 831.982 117.752C832.846 117.752 833.982 117.24 833.982 115.496ZM842.106 110.328C843.338 110.328 844.138 111.144 844.138 112.6V113.72L842.698 113.976V113.112C842.698 112.344 842.426 111.816 841.594 111.816C840.682 111.816 840.01 112.424 840.01 114.04V119H838.218V110.52H840.01V111.656C840.49 110.712 841.37 110.328 842.106 110.328ZM850.274 110.328C852.002 110.328 853.026 111.448 853.026 113.288V119H851.234V113.576C851.234 112.408 850.674 111.88 849.698 111.88C848.434 111.88 847.794 112.76 847.794 114.408V119H846.002V110.52H847.794V111.736C848.37 110.84 849.218 110.328 850.274 110.328ZM861.251 116.328L862.467 117.032C861.987 118.088 860.867 119.144 858.931 119.144C856.419 119.144 854.899 117.288 854.899 114.68C854.899 112.104 856.547 110.328 858.803 110.328C860.803 110.328 862.451 111.672 862.451 114.072L862.419 115.128H856.659C856.755 116.92 857.635 117.688 859.043 117.688C860.083 117.688 860.803 117.128 861.251 116.328ZM858.803 111.736C857.715 111.736 856.803 112.312 856.659 113.848H860.707C860.723 112.344 859.795 111.736 858.803 111.736ZM868.75 110.328C870.478 110.328 871.502 111.448 871.502 113.288V119H869.71V113.576C869.71 112.408 869.15 111.88 868.174 111.88C866.91 111.88 866.254 112.76 866.254 114.408V119H864.462V107.16H866.254V111.752C866.83 110.84 867.694 110.328 868.75 110.328ZM880.734 119H879.086C878.958 118.568 878.878 118.056 878.846 117.4C878.446 118.28 877.55 119.144 876.078 119.144C874.542 119.144 873.454 118.104 873.454 116.632C873.454 114.792 875.086 113.88 876.91 113.88C877.486 113.88 878.03 113.928 878.622 114.088V113.288C878.622 112.376 878.046 111.784 877.006 111.784C876.03 111.784 875.342 112.312 875.022 113.304L873.502 112.84C874.11 111.048 875.566 110.328 877.086 110.328C879.342 110.328 880.366 111.656 880.366 113.272V116.552C880.366 117.56 880.526 118.456 880.734 119ZM878.622 115.496V115.304C878.11 115.128 877.614 115.064 877.086 115.064C876.03 115.064 875.214 115.544 875.214 116.472C875.214 117.256 875.774 117.752 876.622 117.752C877.486 117.752 878.622 117.24 878.622 115.496ZM890.846 111.912H889.07V112.104C889.358 112.504 889.502 112.968 889.502 113.448C889.502 114.984 888.318 116.52 885.854 116.52H885.438C884.574 116.52 884.014 116.808 884.014 117.32C884.014 117.672 884.286 117.928 884.83 117.928H888.366C889.822 117.928 890.654 118.68 890.654 119.832C890.654 121.576 888.878 122.584 886.046 122.584C883.566 122.584 881.902 121.96 881.47 120.312L883.214 119.976C883.614 121 884.542 121.272 886.094 121.272C887.758 121.272 888.942 120.824 888.942 120.04C888.942 119.672 888.734 119.4 888.158 119.4H884.302C882.974 119.4 882.286 118.68 882.286 117.784C882.286 116.92 883.054 116.232 884.11 116.024C882.942 115.512 882.366 114.424 882.366 113.4C882.366 111.88 883.598 110.328 885.95 110.328C886.99 110.328 887.806 110.696 888.286 111.224V110.52H890.846V111.912ZM885.95 115.224C887.182 115.224 887.758 114.36 887.758 113.432C887.758 112.504 887.182 111.656 885.95 111.656C884.734 111.656 884.142 112.504 884.142 113.432C884.142 114.36 884.734 115.224 885.95 115.224ZM897.482 116.328L898.698 117.032C898.218 118.088 897.098 119.144 895.162 119.144C892.65 119.144 891.13 117.288 891.13 114.68C891.13 112.104 892.778 110.328 895.034 110.328C897.034 110.328 898.682 111.672 898.682 114.072L898.65 115.128H892.89C892.986 116.92 893.866 117.688 895.274 117.688C896.314 117.688 897.034 117.128 897.482 116.328ZM895.034 111.736C893.946 111.736 893.034 112.312 892.89 113.848H896.938C896.954 112.344 896.026 111.736 895.034 111.736Z" fill="#2A2859"/>
<path d="M590.008 138.64C592.178 138.64 593.48 139.97 593.48 141.832C593.48 143.694 592.108 144.968 589.938 144.968H587.712V149H586.732V138.64H590.008ZM590.05 144.1C591.646 144.1 592.472 143.288 592.472 141.832C592.472 140.376 591.646 139.536 590.05 139.536H587.712V144.1H590.05ZM597.759 141.468C598.725 141.468 599.425 142.112 599.425 143.372V144.1L598.557 144.268V143.54C598.557 142.798 598.305 142.308 597.549 142.308C596.695 142.308 596.051 142.938 596.051 144.436V149H595.099V141.58H596.051V142.504C596.443 141.804 597.101 141.468 597.759 141.468ZM601.782 140.236C601.32 140.236 600.942 139.872 600.942 139.396C600.942 138.92 601.32 138.556 601.782 138.556C602.244 138.556 602.622 138.92 602.622 139.396C602.622 139.872 602.244 140.236 601.782 140.236ZM601.306 149V141.58H602.258V149H601.306ZM609.401 141.58H610.381L607.469 149H606.629L603.717 141.58H604.753L607.077 147.95L609.401 141.58ZM617.089 149H616.221C616.109 148.594 616.025 148.104 616.025 147.544C615.647 148.412 614.681 149.112 613.477 149.112C612.161 149.112 611.167 148.258 611.167 146.984C611.167 145.458 612.539 144.66 614.065 144.66C614.667 144.66 615.255 144.73 615.857 144.94V143.96C615.857 142.994 615.269 142.336 614.121 142.336C613.197 142.336 612.413 142.742 612.021 143.876L611.181 143.624C611.741 142.056 612.875 141.468 614.177 141.468C616.011 141.468 616.781 142.574 616.781 143.848V146.9C616.781 147.74 616.921 148.496 617.089 149ZM615.857 145.92V145.752C615.283 145.514 614.695 145.444 614.121 145.444C613.001 145.444 612.119 145.948 612.119 146.928C612.119 147.824 612.749 148.3 613.645 148.3C614.611 148.3 615.857 147.726 615.857 145.92ZM620.536 147.152C620.536 148.02 621.054 148.272 621.516 148.272C621.964 148.272 622.258 148.104 622.608 147.74L623.112 148.3C622.622 148.874 622.09 149.112 621.432 149.112C620.424 149.112 619.584 148.44 619.584 147.124V142.364H618.184V141.58H619.584V139.984L620.536 139.424V141.58H622.944V142.364H620.536V147.152ZM629.383 146.9L630.083 147.292C629.733 148.188 628.809 149.112 627.157 149.112C625.071 149.112 623.839 147.558 623.839 145.192C623.839 143.022 625.127 141.468 627.059 141.468C628.655 141.468 630.027 142.616 630.027 144.632L629.999 145.458H624.805C624.889 147.432 625.827 148.272 627.255 148.272C628.375 148.272 629.033 147.628 629.383 146.9ZM627.059 142.308C625.939 142.308 624.931 142.91 624.805 144.674H629.089C629.131 143.008 628.151 142.308 627.059 142.308ZM639.038 141.482C640.928 141.482 642.202 143.064 642.202 145.22C642.202 147.502 640.914 149.112 638.926 149.112C637.89 149.112 637.05 148.594 636.602 147.656V149H635.65V138.64H636.602V142.966C637.092 142.014 638.072 141.482 639.038 141.482ZM638.926 148.272C640.312 148.272 641.222 147.208 641.222 145.262C641.222 143.386 640.312 142.322 638.94 142.322C637.456 142.322 636.602 143.428 636.602 145.248C636.602 147.18 637.442 148.272 638.926 148.272ZM649.67 149H648.802C648.69 148.594 648.606 148.104 648.606 147.544C648.228 148.412 647.262 149.112 646.058 149.112C644.742 149.112 643.748 148.258 643.748 146.984C643.748 145.458 645.12 144.66 646.646 144.66C647.248 144.66 647.836 144.73 648.438 144.94V143.96C648.438 142.994 647.85 142.336 646.702 142.336C645.778 142.336 644.994 142.742 644.602 143.876L643.762 143.624C644.322 142.056 645.456 141.468 646.758 141.468C648.592 141.468 649.362 142.574 649.362 143.848V146.9C649.362 147.74 649.502 148.496 649.67 149ZM648.438 145.92V145.752C647.864 145.514 647.276 145.444 646.702 145.444C645.582 145.444 644.7 145.948 644.7 146.928C644.7 147.824 645.33 148.3 646.226 148.3C647.192 148.3 648.438 147.726 648.438 145.92ZM654.428 141.468C655.394 141.468 656.094 142.112 656.094 143.372V144.1L655.226 144.268V143.54C655.226 142.798 654.974 142.308 654.218 142.308C653.364 142.308 652.72 142.938 652.72 144.436V149H651.768V141.58H652.72V142.504C653.112 141.804 653.77 141.468 654.428 141.468ZM661.083 141.468C662.567 141.468 663.435 142.378 663.435 144.044V149H662.483V144.184C662.483 142.84 661.867 142.336 660.831 142.336C659.529 142.336 658.927 143.344 658.927 144.828V149H657.975V141.58H658.927V142.728C659.375 141.916 660.187 141.468 661.083 141.468ZM670.795 146.9L671.495 147.292C671.145 148.188 670.221 149.112 668.569 149.112C666.483 149.112 665.251 147.558 665.251 145.192C665.251 143.022 666.539 141.468 668.471 141.468C670.067 141.468 671.439 142.616 671.439 144.632L671.411 145.458H666.217C666.301 147.432 667.239 148.272 668.667 148.272C669.787 148.272 670.445 147.628 670.795 146.9ZM668.471 142.308C667.351 142.308 666.343 142.91 666.217 144.674H670.501C670.543 143.008 669.563 142.308 668.471 142.308ZM676.588 141.468C678.072 141.468 678.94 142.378 678.94 144.044V149H677.988V144.184C677.988 142.84 677.372 142.336 676.336 142.336C675.034 142.336 674.432 143.344 674.432 144.828V149H673.48V138.64H674.432V142.728C674.88 141.916 675.692 141.468 676.588 141.468ZM686.761 149H685.893C685.781 148.594 685.697 148.104 685.697 147.544C685.319 148.412 684.353 149.112 683.149 149.112C681.833 149.112 680.839 148.258 680.839 146.984C680.839 145.458 682.211 144.66 683.737 144.66C684.339 144.66 684.927 144.73 685.529 144.94V143.96C685.529 142.994 684.941 142.336 683.793 142.336C682.869 142.336 682.085 142.742 681.693 143.876L680.853 143.624C681.413 142.056 682.547 141.468 683.849 141.468C685.683 141.468 686.453 142.574 686.453 143.848V146.9C686.453 147.74 686.593 148.496 686.761 149ZM685.529 145.92V145.752C684.955 145.514 684.367 145.444 683.793 145.444C682.673 145.444 681.791 145.948 681.791 146.928C681.791 147.824 682.421 148.3 683.317 148.3C684.283 148.3 685.529 147.726 685.529 145.92ZM695.388 142.364H693.792V142.63C694.156 143.078 694.352 143.638 694.352 144.184C694.352 145.542 693.372 146.928 691.286 146.928H690.964C690.124 146.928 689.522 147.25 689.522 147.74C689.522 148.118 689.816 148.384 690.432 148.384H693.442C694.646 148.384 695.262 148.972 695.262 149.896C695.262 151.366 693.568 152.136 691.482 152.136C689.606 152.136 688.304 151.534 687.856 150.232L688.626 149.882C689.144 151.1 690.236 151.338 691.482 151.338C693.022 151.338 694.31 150.876 694.31 149.98C694.31 149.56 694.086 149.252 693.414 149.252H690.222C689.186 149.252 688.57 148.762 688.57 147.992C688.57 147.334 689.116 146.76 690.026 146.522C689.046 146.13 688.5 145.094 688.5 144.184C688.5 142.854 689.494 141.468 691.454 141.468C692.224 141.468 692.812 141.72 693.26 142.098V141.58H695.388V142.364ZM691.44 146.144C692.756 146.144 693.414 145.234 693.414 144.184C693.414 143.148 692.756 142.28 691.44 142.28C690.11 142.28 689.438 143.162 689.438 144.184C689.438 145.22 690.11 146.144 691.44 146.144ZM701.379 146.9L702.079 147.292C701.729 148.188 700.805 149.112 699.153 149.112C697.067 149.112 695.835 147.558 695.835 145.192C695.835 143.022 697.123 141.468 699.055 141.468C700.651 141.468 702.023 142.616 702.023 144.632L701.995 145.458H696.801C696.885 147.432 697.823 148.272 699.251 148.272C700.371 148.272 701.029 147.628 701.379 146.9ZM699.055 142.308C697.935 142.308 696.927 142.91 696.801 144.674H701.085C701.127 143.008 700.147 142.308 699.055 142.308ZM706.696 141.468C707.662 141.468 708.362 142.112 708.362 143.372V144.1L707.494 144.268V143.54C707.494 142.798 707.242 142.308 706.486 142.308C705.632 142.308 704.988 142.938 704.988 144.436V149H704.036V141.58H704.988V142.504C705.38 141.804 706.038 141.468 706.696 141.468ZM716.961 141.468C718.445 141.468 719.313 142.378 719.313 144.044V149H718.361V144.184C718.361 142.84 717.745 142.336 716.709 142.336C715.407 142.336 714.805 143.344 714.805 144.828V149H713.853V138.64H714.805V142.728C715.253 141.916 716.065 141.468 716.961 141.468ZM727.134 149H726.266C726.154 148.594 726.07 148.104 726.07 147.544C725.692 148.412 724.726 149.112 723.522 149.112C722.206 149.112 721.212 148.258 721.212 146.984C721.212 145.458 722.584 144.66 724.11 144.66C724.712 144.66 725.3 144.73 725.902 144.94V143.96C725.902 142.994 725.314 142.336 724.166 142.336C723.242 142.336 722.458 142.742 722.066 143.876L721.226 143.624C721.786 142.056 722.92 141.468 724.222 141.468C726.056 141.468 726.826 142.574 726.826 143.848V146.9C726.826 147.74 726.966 148.496 727.134 149ZM725.902 145.92V145.752C725.328 145.514 724.74 145.444 724.166 145.444C723.046 145.444 722.164 145.948 722.164 146.928C722.164 147.824 722.794 148.3 723.69 148.3C724.656 148.3 725.902 147.726 725.902 145.92ZM731.893 141.468C732.859 141.468 733.559 142.112 733.559 143.372V144.1L732.691 144.268V143.54C732.691 142.798 732.439 142.308 731.683 142.308C730.829 142.308 730.185 142.938 730.185 144.436V149H729.233V141.58H730.185V142.504C730.577 141.804 731.235 141.468 731.893 141.468ZM744.09 146.9L744.79 147.292C744.44 148.188 743.516 149.112 741.864 149.112C739.778 149.112 738.546 147.558 738.546 145.192C738.546 143.022 739.834 141.468 741.766 141.468C743.362 141.468 744.734 142.616 744.734 144.632L744.706 145.458H739.512C739.596 147.432 740.534 148.272 741.962 148.272C743.082 148.272 743.74 147.628 744.09 146.9ZM741.766 142.308C740.646 142.308 739.638 142.91 739.512 144.674H743.796C743.838 143.008 742.858 142.308 741.766 142.308ZM753.274 142.364H751.678V142.63C752.042 143.078 752.238 143.638 752.238 144.184C752.238 145.542 751.258 146.928 749.172 146.928H748.85C748.01 146.928 747.408 147.25 747.408 147.74C747.408 148.118 747.702 148.384 748.318 148.384H751.328C752.532 148.384 753.148 148.972 753.148 149.896C753.148 151.366 751.454 152.136 749.368 152.136C747.492 152.136 746.19 151.534 745.742 150.232L746.512 149.882C747.03 151.1 748.122 151.338 749.368 151.338C750.908 151.338 752.196 150.876 752.196 149.98C752.196 149.56 751.972 149.252 751.3 149.252H748.108C747.072 149.252 746.456 148.762 746.456 147.992C746.456 147.334 747.002 146.76 747.912 146.522C746.932 146.13 746.386 145.094 746.386 144.184C746.386 142.854 747.38 141.468 749.34 141.468C750.11 141.468 750.698 141.72 751.146 142.098V141.58H753.274V142.364ZM749.326 146.144C750.642 146.144 751.3 145.234 751.3 144.184C751.3 143.148 750.642 142.28 749.326 142.28C747.996 142.28 747.324 143.162 747.324 144.184C747.324 145.22 747.996 146.144 749.326 146.144ZM757.867 141.468C759.351 141.468 760.219 142.378 760.219 144.044V149H759.267V144.184C759.267 142.84 758.651 142.336 757.615 142.336C756.313 142.336 755.711 143.344 755.711 144.828V149H754.759V141.58H755.711V142.728C756.159 141.916 756.971 141.468 757.867 141.468ZM767.579 146.9L768.279 147.292C767.929 148.188 767.005 149.112 765.353 149.112C763.267 149.112 762.035 147.558 762.035 145.192C762.035 143.022 763.323 141.468 765.255 141.468C766.851 141.468 768.223 142.616 768.223 144.632L768.195 145.458H763.001C763.085 147.432 764.023 148.272 765.451 148.272C766.571 148.272 767.229 147.628 767.579 146.9ZM765.255 142.308C764.135 142.308 763.127 142.91 763.001 144.674H767.285C767.327 143.008 766.347 142.308 765.255 142.308ZM778.549 141.58H779.529L776.617 149H775.777L772.865 141.58H773.901L776.225 147.95L778.549 141.58ZM785.776 146.9L786.476 147.292C786.126 148.188 785.202 149.112 783.55 149.112C781.464 149.112 780.232 147.558 780.232 145.192C780.232 143.022 781.52 141.468 783.452 141.468C785.048 141.468 786.42 142.616 786.42 144.632L786.392 145.458H781.198C781.282 147.432 782.22 148.272 783.648 148.272C784.768 148.272 785.426 147.628 785.776 146.9ZM783.452 142.308C782.332 142.308 781.324 142.91 781.198 144.674H785.482C785.524 143.008 784.544 142.308 783.452 142.308ZM793.557 138.64H794.509V149H793.557V147.614C793.067 148.566 792.087 149.098 791.121 149.098C789.231 149.098 787.957 147.516 787.957 145.36C787.957 143.078 789.245 141.468 791.233 141.468C792.269 141.468 793.109 141.986 793.557 142.924V138.64ZM791.219 148.258C792.703 148.258 793.557 147.152 793.557 145.332C793.557 143.4 792.717 142.308 791.233 142.308C789.847 142.308 788.937 143.372 788.937 145.318C788.937 147.194 789.847 148.258 791.219 148.258ZM798.338 147.152C798.338 148.02 798.856 148.272 799.318 148.272C799.766 148.272 800.06 148.104 800.41 147.74L800.914 148.3C800.424 148.874 799.892 149.112 799.234 149.112C798.226 149.112 797.386 148.44 797.386 147.124V142.364H795.986V141.58H797.386V139.984L798.338 139.424V141.58H800.746V142.364H798.338V147.152ZM807.186 146.9L807.886 147.292C807.536 148.188 806.612 149.112 804.96 149.112C802.874 149.112 801.642 147.558 801.642 145.192C801.642 143.022 802.93 141.468 804.862 141.468C806.458 141.468 807.83 142.616 807.83 144.632L807.802 145.458H802.608C802.692 147.432 803.63 148.272 805.058 148.272C806.178 148.272 806.836 147.628 807.186 146.9ZM804.862 142.308C803.742 142.308 802.734 142.91 802.608 144.674H806.892C806.934 143.008 805.954 142.308 804.862 142.308ZM814.463 149L811.733 145.318L810.823 146.186V149H809.871V138.64H810.823V145.066L814.351 141.58H815.611L812.377 144.688L815.667 149H814.463ZM818.477 147.152C818.477 148.02 818.995 148.272 819.457 148.272C819.905 148.272 820.199 148.104 820.549 147.74L821.053 148.3C820.563 148.874 820.031 149.112 819.373 149.112C818.365 149.112 817.525 148.44 817.525 147.124V142.364H816.125V141.58H817.525V139.984L818.477 139.424V141.58H820.885V142.364H818.477V147.152ZM827.325 146.9L828.025 147.292C827.675 148.188 826.751 149.112 825.099 149.112C823.013 149.112 821.781 147.558 821.781 145.192C821.781 143.022 823.069 141.468 825.001 141.468C826.597 141.468 827.969 142.616 827.969 144.632L827.941 145.458H822.747C822.831 147.432 823.769 148.272 825.197 148.272C826.317 148.272 826.975 147.628 827.325 146.9ZM825.001 142.308C823.881 142.308 822.873 142.91 822.747 144.674H827.031C827.073 143.008 826.093 142.308 825.001 142.308ZM832.641 141.468C833.607 141.468 834.307 142.112 834.307 143.372V144.1L833.439 144.268V143.54C833.439 142.798 833.187 142.308 832.431 142.308C831.577 142.308 830.933 142.938 830.933 144.436V149H829.981V141.58H830.933V142.504C831.325 141.804 831.983 141.468 832.641 141.468ZM839.406 143.512C839.406 142.336 840.512 141.468 842.066 141.468C843.41 141.468 844.446 142.112 844.754 143.092L843.97 143.4C843.676 142.686 842.99 142.308 842.038 142.308C841.002 142.308 840.33 142.742 840.33 143.428C840.33 144.044 840.736 144.422 841.618 144.604L842.598 144.8C844.222 145.122 844.978 145.822 844.978 146.928C844.978 148.216 843.83 149.112 842.178 149.112C840.68 149.112 839.63 148.524 839.126 147.404L839.938 147.068C840.288 147.852 841.058 148.272 842.15 148.272C843.298 148.272 844.054 147.768 844.054 147.012C844.054 146.312 843.662 145.934 842.682 145.724L841.478 145.472C840.12 145.192 839.406 144.506 839.406 143.512ZM849.68 149.112C847.846 149.112 846.376 147.6 846.376 145.276C846.376 142.98 847.832 141.468 849.68 141.468C851.528 141.468 852.984 142.98 852.984 145.276C852.984 147.6 851.514 149.112 849.68 149.112ZM849.68 148.272C850.954 148.272 852.004 147.264 852.004 145.276C852.004 143.302 850.94 142.308 849.68 142.308C848.42 142.308 847.356 143.302 847.356 145.276C847.356 147.264 848.406 148.272 849.68 148.272ZM862.311 141.468C863.725 141.468 864.551 142.364 864.551 143.904V149H863.599V144.044C863.599 142.84 863.025 142.336 862.059 142.336C860.757 142.336 860.211 143.344 860.211 144.828V149H859.259V144.044C859.259 142.84 858.685 142.336 857.719 142.336C856.417 142.336 855.871 143.344 855.871 144.828V149H854.919V141.58H855.871V142.742C856.319 141.916 857.103 141.468 857.971 141.468C859.077 141.468 859.819 142.014 860.085 142.98C860.505 142 861.359 141.468 862.311 141.468ZM590.12 163.482C592.01 163.482 593.284 165.064 593.284 167.22C593.284 169.502 591.996 171.112 590.008 171.112C588.972 171.112 588.132 170.594 587.684 169.656V171H586.732V160.64H587.684V164.966C588.174 164.014 589.154 163.482 590.12 163.482ZM590.008 170.272C591.394 170.272 592.304 169.208 592.304 167.262C592.304 165.386 591.394 164.322 590.022 164.322C588.538 164.322 587.684 165.428 587.684 167.248C587.684 169.18 588.524 170.272 590.008 170.272ZM600.29 168.9L600.99 169.292C600.64 170.188 599.716 171.112 598.064 171.112C595.978 171.112 594.746 169.558 594.746 167.192C594.746 165.022 596.034 163.468 597.966 163.468C599.562 163.468 600.934 164.616 600.934 166.632L600.906 167.458H595.712C595.796 169.432 596.734 170.272 598.162 170.272C599.282 170.272 599.94 169.628 600.29 168.9ZM597.966 164.308C596.846 164.308 595.838 164.91 595.712 166.674H599.996C600.038 165.008 599.058 164.308 597.966 164.308ZM602.582 165.512C602.582 164.336 603.688 163.468 605.242 163.468C606.586 163.468 607.622 164.112 607.93 165.092L607.146 165.4C606.852 164.686 606.166 164.308 605.214 164.308C604.178 164.308 603.506 164.742 603.506 165.428C603.506 166.044 603.912 166.422 604.794 166.604L605.774 166.8C607.398 167.122 608.154 167.822 608.154 168.928C608.154 170.216 607.006 171.112 605.354 171.112C603.856 171.112 602.806 170.524 602.302 169.404L603.114 169.068C603.464 169.852 604.234 170.272 605.326 170.272C606.474 170.272 607.23 169.768 607.23 169.012C607.23 168.312 606.838 167.934 605.858 167.724L604.654 167.472C603.296 167.192 602.582 166.506 602.582 165.512ZM611.376 169.152C611.376 170.02 611.894 170.272 612.356 170.272C612.803 170.272 613.098 170.104 613.448 169.74L613.952 170.3C613.462 170.874 612.93 171.112 612.272 171.112C611.264 171.112 610.424 170.44 610.424 169.124V164.364H609.024V163.58H610.424V161.984L611.376 161.424V163.58H613.784V164.364H611.376V169.152ZM620.223 168.9L620.923 169.292C620.573 170.188 619.649 171.112 617.997 171.112C615.911 171.112 614.679 169.558 614.679 167.192C614.679 165.022 615.967 163.468 617.899 163.468C619.495 163.468 620.867 164.616 620.867 166.632L620.839 167.458H615.645C615.729 169.432 616.667 170.272 618.095 170.272C619.215 170.272 619.873 169.628 620.223 168.9ZM617.899 164.308C616.779 164.308 615.771 164.91 615.645 166.674H619.929C619.971 165.008 618.991 164.308 617.899 164.308ZM630.272 163.468C631.686 163.468 632.512 164.364 632.512 165.904V171H631.56V166.044C631.56 164.84 630.986 164.336 630.02 164.336C628.718 164.336 628.172 165.344 628.172 166.828V171H627.22V166.044C627.22 164.84 626.646 164.336 625.68 164.336C624.378 164.336 623.832 165.344 623.832 166.828V171H622.88V163.58H623.832V164.742C624.28 163.916 625.064 163.468 625.932 163.468C627.038 163.468 627.78 164.014 628.046 164.98C628.466 164 629.32 163.468 630.272 163.468ZM642.194 163.468C643.608 163.468 644.434 164.364 644.434 165.904V171H643.482V166.044C643.482 164.84 642.908 164.336 641.942 164.336C640.64 164.336 640.094 165.344 640.094 166.828V171H639.142V166.044C639.142 164.84 638.568 164.336 637.602 164.336C636.3 164.336 635.754 165.344 635.754 166.828V171H634.802V163.58H635.754V164.742C636.202 163.916 636.986 163.468 637.854 163.468C638.96 163.468 639.702 164.014 639.968 164.98C640.388 164 641.242 163.468 642.194 163.468ZM651.792 168.9L652.492 169.292C652.142 170.188 651.218 171.112 649.566 171.112C647.48 171.112 646.248 169.558 646.248 167.192C646.248 165.022 647.536 163.468 649.468 163.468C651.064 163.468 652.436 164.616 652.436 166.632L652.408 167.458H647.214C647.298 169.432 648.236 170.272 649.664 170.272C650.784 170.272 651.442 169.628 651.792 168.9ZM649.468 164.308C648.348 164.308 647.34 164.91 647.214 166.674H651.498C651.54 165.008 650.56 164.308 649.468 164.308ZM657.108 163.468C658.074 163.468 658.774 164.112 658.774 165.372V166.1L657.906 166.268V165.54C657.906 164.798 657.654 164.308 656.898 164.308C656.044 164.308 655.4 164.938 655.4 166.436V171H654.448V163.58H655.4V164.504C655.792 163.804 656.45 163.468 657.108 163.468ZM667.373 163.468C668.857 163.468 669.725 164.378 669.725 166.044V171H668.773V166.184C668.773 164.84 668.157 164.336 667.121 164.336C665.819 164.336 665.217 165.344 665.217 166.828V171H664.265V160.64H665.217V164.728C665.665 163.916 666.477 163.468 667.373 163.468ZM676.612 163.58H677.592L674.68 171H673.84L670.928 163.58H671.964L674.288 169.95L676.612 163.58ZM683.838 168.9L684.538 169.292C684.188 170.188 683.264 171.112 681.612 171.112C679.526 171.112 678.294 169.558 678.294 167.192C678.294 165.022 679.582 163.468 681.514 163.468C683.11 163.468 684.482 164.616 684.482 166.632L684.454 167.458H679.26C679.344 169.432 680.282 170.272 681.71 170.272C682.83 170.272 683.488 169.628 683.838 168.9ZM681.514 164.308C680.394 164.308 679.386 164.91 679.26 166.674H683.544C683.586 165.008 682.606 164.308 681.514 164.308ZM693.887 163.468C695.301 163.468 696.127 164.364 696.127 165.904V171H695.175V166.044C695.175 164.84 694.601 164.336 693.635 164.336C692.333 164.336 691.787 165.344 691.787 166.828V171H690.835V166.044C690.835 164.84 690.261 164.336 689.295 164.336C687.993 164.336 687.447 165.344 687.447 166.828V171H686.495V163.58H687.447V164.742C687.895 163.916 688.679 163.468 689.547 163.468C690.653 163.468 691.395 164.014 691.661 164.98C692.081 164 692.935 163.468 693.887 163.468ZM707.123 160.64H708.075V171H707.123V169.614C706.633 170.566 705.653 171.098 704.687 171.098C702.797 171.098 701.523 169.516 701.523 167.36C701.523 165.078 702.811 163.468 704.799 163.468C705.835 163.468 706.675 163.986 707.123 164.924V160.64ZM704.785 170.258C706.269 170.258 707.123 169.152 707.123 167.332C707.123 165.4 706.283 164.308 704.799 164.308C703.413 164.308 702.503 165.372 702.503 167.318C702.503 169.194 703.413 170.258 704.785 170.258ZM715.489 168.9L716.189 169.292C715.839 170.188 714.915 171.112 713.263 171.112C711.177 171.112 709.945 169.558 709.945 167.192C709.945 165.022 711.233 163.468 713.165 163.468C714.761 163.468 716.133 164.616 716.133 166.632L716.105 167.458H710.911C710.995 169.432 711.933 170.272 713.361 170.272C714.481 170.272 715.139 169.628 715.489 168.9ZM713.165 164.308C712.045 164.308 711.037 164.91 710.911 166.674H715.195C715.237 165.008 714.257 164.308 713.165 164.308ZM725.115 163.482C727.005 163.482 728.279 165.064 728.279 167.22C728.279 169.502 726.991 171.112 725.003 171.112C723.967 171.112 723.127 170.594 722.679 169.656V173.94H721.727V163.58H722.679V164.966C723.169 164.014 724.149 163.482 725.115 163.482ZM725.003 170.272C726.389 170.272 727.299 169.208 727.299 167.262C727.299 165.386 726.389 164.322 725.017 164.322C723.533 164.322 722.679 165.428 722.679 167.248C722.679 169.18 723.519 170.272 725.003 170.272ZM732.878 163.468C733.844 163.468 734.544 164.112 734.544 165.372V166.1L733.676 166.268V165.54C733.676 164.798 733.424 164.308 732.668 164.308C731.814 164.308 731.17 164.938 731.17 166.436V171H730.218V163.58H731.17V164.504C731.562 163.804 732.22 163.468 732.878 163.468ZM736.901 162.236C736.439 162.236 736.061 161.872 736.061 161.396C736.061 160.92 736.439 160.556 736.901 160.556C737.363 160.556 737.741 160.92 737.741 161.396C737.741 161.872 737.363 162.236 736.901 162.236ZM736.425 171V163.58H737.377V171H736.425ZM742.616 171.112C740.782 171.112 739.312 169.6 739.312 167.276C739.312 164.98 740.768 163.468 742.616 163.468C744.464 163.468 745.92 164.98 745.92 167.276C745.92 169.6 744.45 171.112 742.616 171.112ZM742.616 170.272C743.89 170.272 744.94 169.264 744.94 167.276C744.94 165.302 743.876 164.308 742.616 164.308C741.356 164.308 740.292 165.302 740.292 167.276C740.292 169.264 741.342 170.272 742.616 170.272ZM750.514 163.468C751.48 163.468 752.18 164.112 752.18 165.372V166.1L751.312 166.268V165.54C751.312 164.798 751.06 164.308 750.304 164.308C749.45 164.308 748.806 164.938 748.806 166.436V171H747.854V163.58H748.806V164.504C749.198 163.804 749.856 163.468 750.514 163.468ZM753.809 160.696H755.265V162.124H753.809V160.696ZM754.061 171V163.58H755.013V171H754.061ZM758.909 169.152C758.909 170.02 759.427 170.272 759.889 170.272C760.337 170.272 760.631 170.104 760.981 169.74L761.485 170.3C760.995 170.874 760.463 171.112 759.805 171.112C758.797 171.112 757.957 170.44 757.957 169.124V164.364H756.557V163.58H757.957V161.984L758.909 161.424V163.58H761.317V164.364H758.909V169.152ZM767.756 168.9L768.456 169.292C768.106 170.188 767.182 171.112 765.53 171.112C763.444 171.112 762.212 169.558 762.212 167.192C762.212 165.022 763.5 163.468 765.432 163.468C767.028 163.468 768.4 164.616 768.4 166.632L768.372 167.458H763.178C763.262 169.432 764.2 170.272 765.628 170.272C766.748 170.272 767.406 169.628 767.756 168.9ZM765.432 164.308C764.312 164.308 763.304 164.91 763.178 166.674H767.462C767.504 165.008 766.524 164.308 765.432 164.308ZM773.073 163.468C774.039 163.468 774.739 164.112 774.739 165.372V166.1L773.871 166.268V165.54C773.871 164.798 773.619 164.308 772.863 164.308C772.009 164.308 771.365 164.938 771.365 166.436V171H770.413V163.58H771.365V164.504C771.757 163.804 772.415 163.468 773.073 163.468ZM781.264 168.9L781.964 169.292C781.614 170.188 780.69 171.112 779.038 171.112C776.952 171.112 775.72 169.558 775.72 167.192C775.72 165.022 777.008 163.468 778.94 163.468C780.536 163.468 781.908 164.616 781.908 166.632L781.88 167.458H776.686C776.77 169.432 777.708 170.272 779.136 170.272C780.256 170.272 780.914 169.628 781.264 168.9ZM778.94 164.308C777.82 164.308 776.812 164.91 776.686 166.674H780.97C781.012 165.008 780.032 164.308 778.94 164.308ZM786.581 163.468C787.547 163.468 788.247 164.112 788.247 165.372V166.1L787.379 166.268V165.54C787.379 164.798 787.127 164.308 786.371 164.308C785.517 164.308 784.873 164.938 784.873 166.436V171H783.921V163.58H784.873V164.504C785.265 163.804 785.923 163.468 786.581 163.468ZM794.186 162.236C793.724 162.236 793.346 161.872 793.346 161.396C793.346 160.92 793.724 160.556 794.186 160.556C794.648 160.556 795.026 160.92 795.026 161.396C795.026 161.872 794.648 162.236 794.186 162.236ZM793.71 171V163.58H794.662V171H793.71ZM803.483 171.112C801.649 171.112 800.179 169.6 800.179 167.276C800.179 164.98 801.635 163.468 803.483 163.468C805.331 163.468 806.787 164.98 806.787 167.276C806.787 169.6 805.317 171.112 803.483 171.112ZM803.483 170.272C804.757 170.272 805.807 169.264 805.807 167.276C805.807 165.302 804.743 164.308 803.483 164.308C802.223 164.308 801.159 165.302 801.159 167.276C801.159 169.264 802.209 170.272 803.483 170.272ZM812.11 163.482C814 163.482 815.274 165.064 815.274 167.22C815.274 169.502 813.986 171.112 811.998 171.112C810.962 171.112 810.122 170.594 809.674 169.656V173.94H808.722V163.58H809.674V164.966C810.164 164.014 811.144 163.482 812.11 163.482ZM811.998 170.272C813.384 170.272 814.294 169.208 814.294 167.262C814.294 165.386 813.384 164.322 812.012 164.322C810.528 164.322 809.674 165.428 809.674 167.248C809.674 169.18 810.514 170.272 811.998 170.272ZM820.6 163.482C822.49 163.482 823.764 165.064 823.764 167.22C823.764 169.502 822.476 171.112 820.488 171.112C819.452 171.112 818.612 170.594 818.164 169.656V173.94H817.212V163.58H818.164V164.966C818.654 164.014 819.634 163.482 820.6 163.482ZM820.488 170.272C821.874 170.272 822.784 169.208 822.784 167.262C822.784 165.386 821.874 164.322 820.502 164.322C819.018 164.322 818.164 165.428 818.164 167.248C818.164 169.18 819.004 170.272 820.488 170.272ZM827.049 169.152C827.049 170.02 827.567 170.272 828.029 170.272C828.477 170.272 828.771 170.104 829.121 169.74L829.625 170.3C829.135 170.874 828.603 171.112 827.945 171.112C826.937 171.112 826.097 170.44 826.097 169.124V164.364H824.697V163.58H826.097V161.984L827.049 161.424V163.58H829.457V164.364H827.049V169.152ZM836.509 171H835.641C835.529 170.594 835.445 170.104 835.445 169.544C835.067 170.412 834.101 171.112 832.897 171.112C831.581 171.112 830.587 170.258 830.587 168.984C830.587 167.458 831.959 166.66 833.485 166.66C834.087 166.66 834.675 166.73 835.277 166.94V165.96C835.277 164.994 834.689 164.336 833.541 164.336C832.617 164.336 831.833 164.742 831.441 165.876L830.601 165.624C831.161 164.056 832.295 163.468 833.597 163.468C835.431 163.468 836.201 164.574 836.201 165.848V168.9C836.201 169.74 836.341 170.496 836.509 171ZM835.277 167.92V167.752C834.703 167.514 834.115 167.444 833.541 167.444C832.421 167.444 831.539 167.948 831.539 168.928C831.539 169.824 832.169 170.3 833.065 170.3C834.031 170.3 835.277 169.726 835.277 167.92ZM843.228 171L840.498 167.318L839.588 168.186V171H838.636V160.64H839.588V167.066L843.116 163.58H844.376L841.142 166.688L844.432 171H843.228ZM850.54 168.9L851.24 169.292C850.89 170.188 849.966 171.112 848.314 171.112C846.228 171.112 844.996 169.558 844.996 167.192C844.996 165.022 846.284 163.468 848.216 163.468C849.812 163.468 851.184 164.616 851.184 166.632L851.156 167.458H845.962C846.046 169.432 846.984 170.272 848.412 170.272C849.532 170.272 850.19 169.628 850.54 168.9ZM848.216 164.308C847.096 164.308 846.088 164.91 845.962 166.674H850.246C850.288 165.008 849.308 164.308 848.216 164.308ZM854.543 169.152C854.543 170.02 855.061 170.272 855.523 170.272C855.971 170.272 856.265 170.104 856.615 169.74L857.119 170.3C856.629 170.874 856.097 171.112 855.439 171.112C854.431 171.112 853.591 170.44 853.591 169.124V164.364H852.191V163.58H853.591V161.984L854.543 161.424V163.58H856.951V164.364H854.543V169.152ZM858.691 169.432H860.203V171H858.691V169.432Z" fill="#2A2859"/>
<rect x="530.5" y="86" width="398" height="106" stroke="#F2F2F2" stroke-width="2"/>
</svg>
