<svg width="898" height="194" viewBox="0 0 898 194" fill="none" xmlns="http://www.w3.org/2000/svg">
<rect width="898" height="194" fill="white"/>
<rect x="216" y="86" width="22" height="22" rx="11" stroke="#2A2859" stroke-width="2"/>
<path d="M252.968 97.816L256.6 103H255.224L251.768 97.944H249.528V103H248.408V91.16H252.6C254.792 91.16 256.376 92.52 256.376 94.552C256.376 96.36 254.952 97.672 252.968 97.816ZM249.528 96.92H252.36C254.088 96.92 255.224 96.152 255.224 94.552C255.224 92.952 254.072 92.184 252.568 92.184H249.528V96.92ZM264.184 103H263.192C263.064 102.536 262.968 101.976 262.968 101.336C262.536 102.328 261.432 103.128 260.056 103.128C258.552 103.128 257.416 102.152 257.416 100.696C257.416 98.952 258.984 98.04 260.728 98.04C261.416 98.04 262.088 98.12 262.776 98.36V97.24C262.776 96.136 262.104 95.384 260.792 95.384C259.736 95.384 258.84 95.848 258.392 97.144L257.432 96.856C258.072 95.064 259.368 94.392 260.856 94.392C262.952 94.392 263.832 95.656 263.832 97.112V100.6C263.832 101.56 263.992 102.424 264.184 103ZM262.776 99.48V99.288C262.12 99.016 261.448 98.936 260.792 98.936C259.512 98.936 258.504 99.512 258.504 100.632C258.504 101.656 259.224 102.2 260.248 102.2C261.352 102.2 262.776 101.544 262.776 99.48ZM272.082 91.16H273.17V103H272.082V101.416C271.522 102.504 270.402 103.112 269.298 103.112C267.138 103.112 265.682 101.304 265.682 98.84C265.682 96.232 267.154 94.392 269.426 94.392C270.61 94.392 271.57 94.984 272.082 96.056V91.16ZM269.41 102.152C271.106 102.152 272.082 100.888 272.082 98.808C272.082 96.6 271.122 95.352 269.426 95.352C267.842 95.352 266.802 96.568 266.802 98.792C266.802 100.936 267.842 102.152 269.41 102.152ZM276.195 92.984C275.667 92.984 275.235 92.568 275.235 92.024C275.235 91.48 275.667 91.064 276.195 91.064C276.723 91.064 277.155 91.48 277.155 92.024C277.155 92.568 276.723 92.984 276.195 92.984ZM275.651 103V94.52H276.739V103H275.651ZM282.527 103.128C280.431 103.128 278.751 101.4 278.751 98.744C278.751 96.12 280.415 94.392 282.527 94.392C284.639 94.392 286.303 96.12 286.303 98.744C286.303 101.4 284.623 103.128 282.527 103.128ZM282.527 102.168C283.983 102.168 285.183 101.016 285.183 98.744C285.183 96.488 283.967 95.352 282.527 95.352C281.087 95.352 279.871 96.488 279.871 98.744C279.871 101.016 281.071 102.168 282.527 102.168ZM296.111 94.408C298.271 94.408 299.727 96.216 299.727 98.68C299.727 101.288 298.255 103.128 295.983 103.128C294.799 103.128 293.839 102.536 293.327 101.464V103H292.239V91.16H293.327V96.104C293.887 95.016 295.007 94.408 296.111 94.408ZM295.983 102.168C297.567 102.168 298.607 100.952 298.607 98.728C298.607 96.584 297.567 95.368 295.999 95.368C294.303 95.368 293.327 96.632 293.327 98.712C293.327 100.92 294.287 102.168 295.983 102.168ZM306.67 94.52H307.758V103H306.67V101.704C306.158 102.616 305.262 103.128 304.222 103.128C302.558 103.128 301.55 102.056 301.55 100.216V94.52H302.638V100.12C302.638 101.512 303.342 102.152 304.526 102.152C306.03 102.152 306.67 100.952 306.67 99.288V94.52ZM311.941 100.888C311.941 101.88 312.533 102.168 313.061 102.168C313.573 102.168 313.909 101.976 314.309 101.56L314.885 102.2C314.325 102.856 313.717 103.128 312.965 103.128C311.813 103.128 310.853 102.36 310.853 100.856V95.416H309.253V94.52H310.853V92.696L311.941 92.056V94.52H314.693V95.416H311.941V100.888ZM317.928 100.888C317.928 101.88 318.52 102.168 319.048 102.168C319.56 102.168 319.896 101.976 320.296 101.56L320.872 102.2C320.312 102.856 319.704 103.128 318.952 103.128C317.8 103.128 316.84 102.36 316.84 100.856V95.416H315.24V94.52H316.84V92.696L317.928 92.056V94.52H320.68V95.416H317.928V100.888ZM325.28 103.128C323.184 103.128 321.504 101.4 321.504 98.744C321.504 96.12 323.168 94.392 325.28 94.392C327.392 94.392 329.056 96.12 329.056 98.744C329.056 101.4 327.376 103.128 325.28 103.128ZM325.28 102.168C326.736 102.168 327.936 101.016 327.936 98.744C327.936 96.488 326.72 95.352 325.28 95.352C323.84 95.352 322.624 96.488 322.624 98.744C322.624 101.016 323.824 102.168 325.28 102.168ZM334.619 94.392C336.315 94.392 337.307 95.432 337.307 97.336V103H336.219V97.496C336.219 95.96 335.515 95.384 334.331 95.384C332.843 95.384 332.155 96.536 332.155 98.232V103H331.067V94.52H332.155V95.832C332.667 94.904 333.595 94.392 334.619 94.392Z" fill="#2A2859"/>
<rect x="388" y="86" width="22" height="22" rx="11" stroke="#1F42AA" stroke-width="2"/>
<path d="M424.968 97.816L428.6 103H427.224L423.768 97.944H421.528V103H420.408V91.16H424.6C426.792 91.16 428.376 92.52 428.376 94.552C428.376 96.36 426.952 97.672 424.968 97.816ZM421.528 96.92H424.36C426.088 96.92 427.224 96.152 427.224 94.552C427.224 92.952 426.072 92.184 424.568 92.184H421.528V96.92ZM436.184 103H435.192C435.064 102.536 434.968 101.976 434.968 101.336C434.536 102.328 433.432 103.128 432.056 103.128C430.552 103.128 429.416 102.152 429.416 100.696C429.416 98.952 430.984 98.04 432.728 98.04C433.416 98.04 434.088 98.12 434.776 98.36V97.24C434.776 96.136 434.104 95.384 432.792 95.384C431.736 95.384 430.84 95.848 430.392 97.144L429.432 96.856C430.072 95.064 431.368 94.392 432.856 94.392C434.952 94.392 435.832 95.656 435.832 97.112V100.6C435.832 101.56 435.992 102.424 436.184 103ZM434.776 99.48V99.288C434.12 99.016 433.448 98.936 432.792 98.936C431.512 98.936 430.504 99.512 430.504 100.632C430.504 101.656 431.224 102.2 432.248 102.2C433.352 102.2 434.776 101.544 434.776 99.48ZM444.082 91.16H445.17V103H444.082V101.416C443.522 102.504 442.402 103.112 441.298 103.112C439.138 103.112 437.682 101.304 437.682 98.84C437.682 96.232 439.154 94.392 441.426 94.392C442.61 94.392 443.57 94.984 444.082 96.056V91.16ZM441.41 102.152C443.106 102.152 444.082 100.888 444.082 98.808C444.082 96.6 443.122 95.352 441.426 95.352C439.842 95.352 438.802 96.568 438.802 98.792C438.802 100.936 439.842 102.152 441.41 102.152ZM448.195 92.984C447.667 92.984 447.235 92.568 447.235 92.024C447.235 91.48 447.667 91.064 448.195 91.064C448.723 91.064 449.155 91.48 449.155 92.024C449.155 92.568 448.723 92.984 448.195 92.984ZM447.651 103V94.52H448.739V103H447.651ZM454.527 103.128C452.431 103.128 450.751 101.4 450.751 98.744C450.751 96.12 452.415 94.392 454.527 94.392C456.639 94.392 458.303 96.12 458.303 98.744C458.303 101.4 456.623 103.128 454.527 103.128ZM454.527 102.168C455.983 102.168 457.183 101.016 457.183 98.744C457.183 96.488 455.967 95.352 454.527 95.352C453.087 95.352 451.871 96.488 451.871 98.744C451.871 101.016 453.071 102.168 454.527 102.168ZM468.111 94.408C470.271 94.408 471.727 96.216 471.727 98.68C471.727 101.288 470.255 103.128 467.983 103.128C466.799 103.128 465.839 102.536 465.327 101.464V103H464.239V91.16H465.327V96.104C465.887 95.016 467.007 94.408 468.111 94.408ZM467.983 102.168C469.567 102.168 470.607 100.952 470.607 98.728C470.607 96.584 469.567 95.368 467.999 95.368C466.303 95.368 465.327 96.632 465.327 98.712C465.327 100.92 466.287 102.168 467.983 102.168ZM478.67 94.52H479.758V103H478.67V101.704C478.158 102.616 477.262 103.128 476.222 103.128C474.558 103.128 473.55 102.056 473.55 100.216V94.52H474.638V100.12C474.638 101.512 475.342 102.152 476.526 102.152C478.03 102.152 478.67 100.952 478.67 99.288V94.52ZM483.941 100.888C483.941 101.88 484.533 102.168 485.061 102.168C485.573 102.168 485.909 101.976 486.309 101.56L486.885 102.2C486.325 102.856 485.717 103.128 484.965 103.128C483.813 103.128 482.853 102.36 482.853 100.856V95.416H481.253V94.52H482.853V92.696L483.941 92.056V94.52H486.693V95.416H483.941V100.888ZM489.928 100.888C489.928 101.88 490.52 102.168 491.048 102.168C491.56 102.168 491.896 101.976 492.296 101.56L492.872 102.2C492.312 102.856 491.704 103.128 490.952 103.128C489.8 103.128 488.84 102.36 488.84 100.856V95.416H487.24V94.52H488.84V92.696L489.928 92.056V94.52H492.68V95.416H489.928V100.888ZM497.28 103.128C495.184 103.128 493.504 101.4 493.504 98.744C493.504 96.12 495.168 94.392 497.28 94.392C499.392 94.392 501.056 96.12 501.056 98.744C501.056 101.4 499.376 103.128 497.28 103.128ZM497.28 102.168C498.736 102.168 499.936 101.016 499.936 98.744C499.936 96.488 498.72 95.352 497.28 95.352C495.84 95.352 494.624 96.488 494.624 98.744C494.624 101.016 495.824 102.168 497.28 102.168ZM506.619 94.392C508.315 94.392 509.307 95.432 509.307 97.336V103H508.219V97.496C508.219 95.96 507.515 95.384 506.331 95.384C504.843 95.384 504.155 96.536 504.155 98.232V103H503.067V94.52H504.155V95.832C504.667 94.904 505.595 94.392 506.619 94.392Z" fill="#1F42AA"/>
<circle cx="571" cy="97" r="11" stroke="#2A2859" stroke-width="2"/>
<circle cx="571" cy="97" r="7" fill="#2A2859"/>
<path d="M596.968 97.816L600.6 103H599.224L595.768 97.944H593.528V103H592.408V91.16H596.6C598.792 91.16 600.376 92.52 600.376 94.552C600.376 96.36 598.952 97.672 596.968 97.816ZM593.528 96.92H596.36C598.088 96.92 599.224 96.152 599.224 94.552C599.224 92.952 598.072 92.184 596.568 92.184H593.528V96.92ZM608.184 103H607.192C607.064 102.536 606.968 101.976 606.968 101.336C606.536 102.328 605.432 103.128 604.056 103.128C602.552 103.128 601.416 102.152 601.416 100.696C601.416 98.952 602.984 98.04 604.728 98.04C605.416 98.04 606.088 98.12 606.776 98.36V97.24C606.776 96.136 606.104 95.384 604.792 95.384C603.736 95.384 602.84 95.848 602.392 97.144L601.432 96.856C602.072 95.064 603.368 94.392 604.856 94.392C606.952 94.392 607.832 95.656 607.832 97.112V100.6C607.832 101.56 607.992 102.424 608.184 103ZM606.776 99.48V99.288C606.12 99.016 605.448 98.936 604.792 98.936C603.512 98.936 602.504 99.512 602.504 100.632C602.504 101.656 603.224 102.2 604.248 102.2C605.352 102.2 606.776 101.544 606.776 99.48ZM616.082 91.16H617.17V103H616.082V101.416C615.522 102.504 614.402 103.112 613.298 103.112C611.138 103.112 609.682 101.304 609.682 98.84C609.682 96.232 611.154 94.392 613.426 94.392C614.61 94.392 615.57 94.984 616.082 96.056V91.16ZM613.41 102.152C615.106 102.152 616.082 100.888 616.082 98.808C616.082 96.6 615.122 95.352 613.426 95.352C611.842 95.352 610.802 96.568 610.802 98.792C610.802 100.936 611.842 102.152 613.41 102.152ZM620.195 92.984C619.667 92.984 619.235 92.568 619.235 92.024C619.235 91.48 619.667 91.064 620.195 91.064C620.723 91.064 621.155 91.48 621.155 92.024C621.155 92.568 620.723 92.984 620.195 92.984ZM619.651 103V94.52H620.739V103H619.651ZM626.527 103.128C624.431 103.128 622.751 101.4 622.751 98.744C622.751 96.12 624.415 94.392 626.527 94.392C628.639 94.392 630.303 96.12 630.303 98.744C630.303 101.4 628.623 103.128 626.527 103.128ZM626.527 102.168C627.983 102.168 629.183 101.016 629.183 98.744C629.183 96.488 627.967 95.352 626.527 95.352C625.087 95.352 623.871 96.488 623.871 98.744C623.871 101.016 625.071 102.168 626.527 102.168ZM640.111 94.408C642.271 94.408 643.727 96.216 643.727 98.68C643.727 101.288 642.255 103.128 639.983 103.128C638.799 103.128 637.839 102.536 637.327 101.464V103H636.239V91.16H637.327V96.104C637.887 95.016 639.007 94.408 640.111 94.408ZM639.983 102.168C641.567 102.168 642.607 100.952 642.607 98.728C642.607 96.584 641.567 95.368 639.999 95.368C638.303 95.368 637.327 96.632 637.327 98.712C637.327 100.92 638.287 102.168 639.983 102.168ZM650.67 94.52H651.758V103H650.67V101.704C650.158 102.616 649.262 103.128 648.222 103.128C646.558 103.128 645.55 102.056 645.55 100.216V94.52H646.638V100.12C646.638 101.512 647.342 102.152 648.526 102.152C650.03 102.152 650.67 100.952 650.67 99.288V94.52ZM655.941 100.888C655.941 101.88 656.533 102.168 657.061 102.168C657.573 102.168 657.909 101.976 658.309 101.56L658.885 102.2C658.325 102.856 657.717 103.128 656.965 103.128C655.813 103.128 654.853 102.36 654.853 100.856V95.416H653.253V94.52H654.853V92.696L655.941 92.056V94.52H658.693V95.416H655.941V100.888ZM661.928 100.888C661.928 101.88 662.52 102.168 663.048 102.168C663.56 102.168 663.896 101.976 664.296 101.56L664.872 102.2C664.312 102.856 663.704 103.128 662.952 103.128C661.8 103.128 660.84 102.36 660.84 100.856V95.416H659.24V94.52H660.84V92.696L661.928 92.056V94.52H664.68V95.416H661.928V100.888ZM669.28 103.128C667.184 103.128 665.504 101.4 665.504 98.744C665.504 96.12 667.168 94.392 669.28 94.392C671.392 94.392 673.056 96.12 673.056 98.744C673.056 101.4 671.376 103.128 669.28 103.128ZM669.28 102.168C670.736 102.168 671.936 101.016 671.936 98.744C671.936 96.488 670.72 95.352 669.28 95.352C667.84 95.352 666.624 96.488 666.624 98.744C666.624 101.016 667.824 102.168 669.28 102.168ZM678.619 94.392C680.315 94.392 681.307 95.432 681.307 97.336V103H680.219V97.496C680.219 95.96 679.515 95.384 678.331 95.384C676.843 95.384 676.155 96.536 676.155 98.232V103H675.067V94.52H676.155V95.832C676.667 94.904 677.595 94.392 678.619 94.392Z" fill="#2A2859"/>
</svg>
