<svg width="1002" height="298" viewBox="0 0 1002 298" fill="none" xmlns="http://www.w3.org/2000/svg">
<rect width="1002" height="298" fill="white"/>
<rect x="194" y="86" width="22" height="22" rx="11" stroke="#2A2859" stroke-width="2"/>
<path d="M230.968 97.816L234.6 103H233.224L229.768 97.944H227.528V103H226.408V91.16H230.6C232.792 91.16 234.376 92.52 234.376 94.552C234.376 96.36 232.952 97.672 230.968 97.816ZM227.528 96.92H230.36C232.088 96.92 233.224 96.152 233.224 94.552C233.224 92.952 232.072 92.184 230.568 92.184H227.528V96.92ZM242.184 103H241.192C241.064 102.536 240.968 101.976 240.968 101.336C240.536 102.328 239.432 103.128 238.056 103.128C236.552 103.128 235.416 102.152 235.416 100.696C235.416 98.952 236.984 98.04 238.728 98.04C239.416 98.04 240.088 98.12 240.776 98.36V97.24C240.776 96.136 240.104 95.384 238.792 95.384C237.736 95.384 236.84 95.848 236.392 97.144L235.432 96.856C236.072 95.064 237.368 94.392 238.856 94.392C240.952 94.392 241.832 95.656 241.832 97.112V100.6C241.832 101.56 241.992 102.424 242.184 103ZM240.776 99.48V99.288C240.12 99.016 239.448 98.936 238.792 98.936C237.512 98.936 236.504 99.512 236.504 100.632C236.504 101.656 237.224 102.2 238.248 102.2C239.352 102.2 240.776 101.544 240.776 99.48ZM250.082 91.16H251.17V103H250.082V101.416C249.522 102.504 248.402 103.112 247.298 103.112C245.138 103.112 243.682 101.304 243.682 98.84C243.682 96.232 245.154 94.392 247.426 94.392C248.61 94.392 249.57 94.984 250.082 96.056V91.16ZM247.41 102.152C249.106 102.152 250.082 100.888 250.082 98.808C250.082 96.6 249.122 95.352 247.426 95.352C245.842 95.352 244.802 96.568 244.802 98.792C244.802 100.936 245.842 102.152 247.41 102.152ZM254.195 92.984C253.667 92.984 253.235 92.568 253.235 92.024C253.235 91.48 253.667 91.064 254.195 91.064C254.723 91.064 255.155 91.48 255.155 92.024C255.155 92.568 254.723 92.984 254.195 92.984ZM253.651 103V94.52H254.739V103H253.651ZM260.527 103.128C258.431 103.128 256.751 101.4 256.751 98.744C256.751 96.12 258.415 94.392 260.527 94.392C262.639 94.392 264.303 96.12 264.303 98.744C264.303 101.4 262.623 103.128 260.527 103.128ZM260.527 102.168C261.983 102.168 263.183 101.016 263.183 98.744C263.183 96.488 261.967 95.352 260.527 95.352C259.087 95.352 257.871 96.488 257.871 98.744C257.871 101.016 259.071 102.168 260.527 102.168ZM274.111 94.408C276.271 94.408 277.727 96.216 277.727 98.68C277.727 101.288 276.255 103.128 273.983 103.128C272.799 103.128 271.839 102.536 271.327 101.464V103H270.239V91.16H271.327V96.104C271.887 95.016 273.007 94.408 274.111 94.408ZM273.983 102.168C275.567 102.168 276.607 100.952 276.607 98.728C276.607 96.584 275.567 95.368 273.999 95.368C272.303 95.368 271.327 96.632 271.327 98.712C271.327 100.92 272.287 102.168 273.983 102.168ZM284.67 94.52H285.758V103H284.67V101.704C284.158 102.616 283.262 103.128 282.222 103.128C280.558 103.128 279.55 102.056 279.55 100.216V94.52H280.638V100.12C280.638 101.512 281.342 102.152 282.526 102.152C284.03 102.152 284.67 100.952 284.67 99.288V94.52ZM289.941 100.888C289.941 101.88 290.533 102.168 291.061 102.168C291.573 102.168 291.909 101.976 292.309 101.56L292.885 102.2C292.325 102.856 291.717 103.128 290.965 103.128C289.813 103.128 288.853 102.36 288.853 100.856V95.416H287.253V94.52H288.853V92.696L289.941 92.056V94.52H292.693V95.416H289.941V100.888ZM295.928 100.888C295.928 101.88 296.52 102.168 297.048 102.168C297.56 102.168 297.896 101.976 298.296 101.56L298.872 102.2C298.312 102.856 297.704 103.128 296.952 103.128C295.8 103.128 294.84 102.36 294.84 100.856V95.416H293.24V94.52H294.84V92.696L295.928 92.056V94.52H298.68V95.416H295.928V100.888ZM303.28 103.128C301.184 103.128 299.504 101.4 299.504 98.744C299.504 96.12 301.168 94.392 303.28 94.392C305.392 94.392 307.056 96.12 307.056 98.744C307.056 101.4 305.376 103.128 303.28 103.128ZM303.28 102.168C304.736 102.168 305.936 101.016 305.936 98.744C305.936 96.488 304.72 95.352 303.28 95.352C301.84 95.352 300.624 96.488 300.624 98.744C300.624 101.016 301.824 102.168 303.28 102.168ZM312.619 94.392C314.315 94.392 315.307 95.432 315.307 97.336V103H314.219V97.496C314.219 95.96 313.515 95.384 312.331 95.384C310.843 95.384 310.155 96.536 310.155 98.232V103H309.067V94.52H310.155V95.832C310.667 94.904 311.595 94.392 312.619 94.392Z" fill="#2A2859"/>
<circle cx="550" cy="97" r="11" stroke="#2A2859" stroke-width="2"/>
<circle cx="550" cy="97" r="7" fill="#2A2859"/>
<path d="M575.968 97.816L579.6 103H578.224L574.768 97.944H572.528V103H571.408V91.16H575.6C577.792 91.16 579.376 92.52 579.376 94.552C579.376 96.36 577.952 97.672 575.968 97.816ZM572.528 96.92H575.36C577.088 96.92 578.224 96.152 578.224 94.552C578.224 92.952 577.072 92.184 575.568 92.184H572.528V96.92ZM587.184 103H586.192C586.064 102.536 585.968 101.976 585.968 101.336C585.536 102.328 584.432 103.128 583.056 103.128C581.552 103.128 580.416 102.152 580.416 100.696C580.416 98.952 581.984 98.04 583.728 98.04C584.416 98.04 585.088 98.12 585.776 98.36V97.24C585.776 96.136 585.104 95.384 583.792 95.384C582.736 95.384 581.84 95.848 581.392 97.144L580.432 96.856C581.072 95.064 582.368 94.392 583.856 94.392C585.952 94.392 586.832 95.656 586.832 97.112V100.6C586.832 101.56 586.992 102.424 587.184 103ZM585.776 99.48V99.288C585.12 99.016 584.448 98.936 583.792 98.936C582.512 98.936 581.504 99.512 581.504 100.632C581.504 101.656 582.224 102.2 583.248 102.2C584.352 102.2 585.776 101.544 585.776 99.48ZM595.082 91.16H596.17V103H595.082V101.416C594.522 102.504 593.402 103.112 592.298 103.112C590.138 103.112 588.682 101.304 588.682 98.84C588.682 96.232 590.154 94.392 592.426 94.392C593.61 94.392 594.57 94.984 595.082 96.056V91.16ZM592.41 102.152C594.106 102.152 595.082 100.888 595.082 98.808C595.082 96.6 594.122 95.352 592.426 95.352C590.842 95.352 589.802 96.568 589.802 98.792C589.802 100.936 590.842 102.152 592.41 102.152ZM599.195 92.984C598.667 92.984 598.235 92.568 598.235 92.024C598.235 91.48 598.667 91.064 599.195 91.064C599.723 91.064 600.155 91.48 600.155 92.024C600.155 92.568 599.723 92.984 599.195 92.984ZM598.651 103V94.52H599.739V103H598.651ZM605.527 103.128C603.431 103.128 601.751 101.4 601.751 98.744C601.751 96.12 603.415 94.392 605.527 94.392C607.639 94.392 609.303 96.12 609.303 98.744C609.303 101.4 607.623 103.128 605.527 103.128ZM605.527 102.168C606.983 102.168 608.183 101.016 608.183 98.744C608.183 96.488 606.967 95.352 605.527 95.352C604.087 95.352 602.871 96.488 602.871 98.744C602.871 101.016 604.071 102.168 605.527 102.168ZM619.111 94.408C621.271 94.408 622.727 96.216 622.727 98.68C622.727 101.288 621.255 103.128 618.983 103.128C617.799 103.128 616.839 102.536 616.327 101.464V103H615.239V91.16H616.327V96.104C616.887 95.016 618.007 94.408 619.111 94.408ZM618.983 102.168C620.567 102.168 621.607 100.952 621.607 98.728C621.607 96.584 620.567 95.368 618.999 95.368C617.303 95.368 616.327 96.632 616.327 98.712C616.327 100.92 617.287 102.168 618.983 102.168ZM629.67 94.52H630.758V103H629.67V101.704C629.158 102.616 628.262 103.128 627.222 103.128C625.558 103.128 624.55 102.056 624.55 100.216V94.52H625.638V100.12C625.638 101.512 626.342 102.152 627.526 102.152C629.03 102.152 629.67 100.952 629.67 99.288V94.52ZM634.941 100.888C634.941 101.88 635.533 102.168 636.061 102.168C636.573 102.168 636.909 101.976 637.309 101.56L637.885 102.2C637.325 102.856 636.717 103.128 635.965 103.128C634.813 103.128 633.853 102.36 633.853 100.856V95.416H632.253V94.52H633.853V92.696L634.941 92.056V94.52H637.693V95.416H634.941V100.888ZM640.928 100.888C640.928 101.88 641.52 102.168 642.048 102.168C642.56 102.168 642.896 101.976 643.296 101.56L643.872 102.2C643.312 102.856 642.704 103.128 641.952 103.128C640.8 103.128 639.84 102.36 639.84 100.856V95.416H638.24V94.52H639.84V92.696L640.928 92.056V94.52H643.68V95.416H640.928V100.888ZM648.28 103.128C646.184 103.128 644.504 101.4 644.504 98.744C644.504 96.12 646.168 94.392 648.28 94.392C650.392 94.392 652.056 96.12 652.056 98.744C652.056 101.4 650.376 103.128 648.28 103.128ZM648.28 102.168C649.736 102.168 650.936 101.016 650.936 98.744C650.936 96.488 649.72 95.352 648.28 95.352C646.84 95.352 645.624 96.488 645.624 98.744C645.624 101.016 646.824 102.168 648.28 102.168ZM657.619 94.392C659.315 94.392 660.307 95.432 660.307 97.336V103H659.219V97.496C659.219 95.96 658.515 95.384 657.331 95.384C655.843 95.384 655.155 96.536 655.155 98.232V103H654.067V94.52H655.155V95.832C655.667 94.904 656.595 94.392 657.619 94.392Z" fill="#2A2859"/>
<rect x="194" y="174" width="22" height="22" rx="11" stroke="#2A2859" stroke-width="2"/>
<path d="M239.864 186.056L243.176 191H240.904L238.088 186.44H236.264V191H234.392V179.16H239.016C241.304 179.16 242.904 180.584 242.904 182.712C242.904 184.488 241.64 185.768 239.864 186.056ZM236.264 184.776H238.664C240.072 184.776 240.968 184.104 240.968 182.808C240.968 181.48 240.056 180.84 238.856 180.84H236.264V184.776ZM251.194 191H249.546C249.418 190.568 249.338 190.056 249.306 189.4C248.906 190.28 248.01 191.144 246.538 191.144C245.002 191.144 243.914 190.104 243.914 188.632C243.914 186.792 245.546 185.88 247.37 185.88C247.946 185.88 248.49 185.928 249.082 186.088V185.288C249.082 184.376 248.506 183.784 247.466 183.784C246.49 183.784 245.802 184.312 245.482 185.304L243.962 184.84C244.57 183.048 246.026 182.328 247.546 182.328C249.802 182.328 250.826 183.656 250.826 185.272V188.552C250.826 189.56 250.986 190.456 251.194 191ZM249.082 187.496V187.304C248.57 187.128 248.074 187.064 247.546 187.064C246.49 187.064 245.674 187.544 245.674 188.472C245.674 189.256 246.234 189.752 247.082 189.752C247.946 189.752 249.082 189.24 249.082 187.496ZM258.716 179.16H260.508V191H258.716V189.464C258.06 190.648 257.036 191.128 256.06 191.128C254.012 191.128 252.54 189.368 252.54 186.792C252.54 184.12 254.028 182.344 256.268 182.344C257.228 182.344 258.188 182.776 258.716 183.816V179.16ZM256.54 189.56C257.836 189.56 258.716 188.68 258.716 186.696C258.716 184.728 257.852 183.784 256.54 183.784C255.308 183.784 254.396 184.776 254.396 186.696C254.396 188.6 255.308 189.56 256.54 189.56ZM263.733 181.112C263.029 181.112 262.469 180.568 262.469 179.848C262.469 179.128 263.029 178.584 263.733 178.584C264.437 178.584 264.981 179.128 264.981 179.848C264.981 180.568 264.437 181.112 263.733 181.112ZM262.837 191V182.52H264.629V191H262.837ZM270.656 191.16C268.448 191.16 266.64 189.432 266.64 186.712C266.64 184.056 268.432 182.328 270.656 182.328C272.88 182.328 274.672 184.056 274.672 186.712C274.672 189.432 272.864 191.16 270.656 191.16ZM270.656 189.64C271.856 189.64 272.832 188.712 272.832 186.712C272.832 184.696 271.84 183.848 270.656 183.848C269.472 183.848 268.48 184.696 268.48 186.712C268.48 188.712 269.472 189.64 270.656 189.64ZM284.888 182.344C286.936 182.344 288.408 184.088 288.408 186.68C288.408 189.336 286.92 191.128 284.68 191.128C283.704 191.128 282.76 190.696 282.216 189.64V191H280.424V179.16H282.216V184.04C282.872 182.84 283.912 182.344 284.888 182.344ZM284.408 189.656C285.64 189.656 286.552 188.664 286.552 186.76C286.552 184.856 285.64 183.88 284.408 183.88C283.096 183.88 282.216 184.776 282.216 186.744C282.216 188.712 283.096 189.656 284.408 189.656ZM295.279 182.52H297.071V191H295.279V189.752C294.735 190.68 293.887 191.144 292.847 191.144C291.103 191.144 290.095 190.024 290.095 188.184V182.52H291.887V187.912C291.887 189.016 292.431 189.608 293.407 189.608C294.655 189.608 295.279 188.712 295.279 187.064V182.52ZM301.815 188.376C301.815 189.32 302.391 189.608 302.983 189.608C303.447 189.608 303.815 189.416 304.183 189.048L304.951 190.2C304.311 190.84 303.607 191.144 302.695 191.144C301.223 191.144 300.023 190.248 300.023 188.488V183.912H298.535V182.52H300.023V180.632L301.815 179.816V182.52H304.807V183.912H301.815V188.376ZM308.74 188.376C308.74 189.32 309.316 189.608 309.908 189.608C310.372 189.608 310.74 189.416 311.108 189.048L311.876 190.2C311.236 190.84 310.532 191.144 309.62 191.144C308.148 191.144 306.948 190.248 306.948 188.488V183.912H305.46V182.52H306.948V180.632L308.74 179.816V182.52H311.732V183.912H308.74V188.376ZM316.487 191.16C314.279 191.16 312.471 189.432 312.471 186.712C312.471 184.056 314.263 182.328 316.487 182.328C318.711 182.328 320.503 184.056 320.503 186.712C320.503 189.432 318.695 191.16 316.487 191.16ZM316.487 189.64C317.687 189.64 318.663 188.712 318.663 186.712C318.663 184.696 317.671 183.848 316.487 183.848C315.303 183.848 314.311 184.696 314.311 186.712C314.311 188.712 315.303 189.64 316.487 189.64ZM326.634 182.328C328.362 182.328 329.386 183.448 329.386 185.288V191H327.594V185.576C327.594 184.408 327.034 183.88 326.058 183.88C324.794 183.88 324.154 184.76 324.154 186.408V191H322.362V182.52H324.154V183.736C324.73 182.84 325.578 182.328 326.634 182.328Z" fill="#2A2859"/>
<rect x="178" y="158" width="298" height="54" stroke="#F2F2F2" stroke-width="2"/>
<circle cx="553" cy="185" r="11" stroke="#2A2859" stroke-width="2"/>
<circle cx="553" cy="185" r="7" fill="#2A2859"/>
<path d="M587.864 186.056L591.176 191H588.904L586.088 186.44H584.264V191H582.392V179.16H587.016C589.304 179.16 590.904 180.584 590.904 182.712C590.904 184.488 589.64 185.768 587.864 186.056ZM584.264 184.776H586.664C588.072 184.776 588.968 184.104 588.968 182.808C588.968 181.48 588.056 180.84 586.856 180.84H584.264V184.776ZM599.194 191H597.546C597.418 190.568 597.338 190.056 597.306 189.4C596.906 190.28 596.01 191.144 594.538 191.144C593.002 191.144 591.914 190.104 591.914 188.632C591.914 186.792 593.546 185.88 595.37 185.88C595.946 185.88 596.49 185.928 597.082 186.088V185.288C597.082 184.376 596.506 183.784 595.466 183.784C594.49 183.784 593.802 184.312 593.482 185.304L591.962 184.84C592.57 183.048 594.026 182.328 595.546 182.328C597.802 182.328 598.826 183.656 598.826 185.272V188.552C598.826 189.56 598.986 190.456 599.194 191ZM597.082 187.496V187.304C596.57 187.128 596.074 187.064 595.546 187.064C594.49 187.064 593.674 187.544 593.674 188.472C593.674 189.256 594.234 189.752 595.082 189.752C595.946 189.752 597.082 189.24 597.082 187.496ZM606.716 179.16H608.508V191H606.716V189.464C606.06 190.648 605.036 191.128 604.06 191.128C602.012 191.128 600.54 189.368 600.54 186.792C600.54 184.12 602.028 182.344 604.268 182.344C605.228 182.344 606.188 182.776 606.716 183.816V179.16ZM604.54 189.56C605.836 189.56 606.716 188.68 606.716 186.696C606.716 184.728 605.852 183.784 604.54 183.784C603.308 183.784 602.396 184.776 602.396 186.696C602.396 188.6 603.308 189.56 604.54 189.56ZM611.733 181.112C611.029 181.112 610.469 180.568 610.469 179.848C610.469 179.128 611.029 178.584 611.733 178.584C612.437 178.584 612.981 179.128 612.981 179.848C612.981 180.568 612.437 181.112 611.733 181.112ZM610.837 191V182.52H612.629V191H610.837ZM618.656 191.16C616.448 191.16 614.64 189.432 614.64 186.712C614.64 184.056 616.432 182.328 618.656 182.328C620.88 182.328 622.672 184.056 622.672 186.712C622.672 189.432 620.864 191.16 618.656 191.16ZM618.656 189.64C619.856 189.64 620.832 188.712 620.832 186.712C620.832 184.696 619.84 183.848 618.656 183.848C617.472 183.848 616.48 184.696 616.48 186.712C616.48 188.712 617.472 189.64 618.656 189.64ZM632.888 182.344C634.936 182.344 636.408 184.088 636.408 186.68C636.408 189.336 634.92 191.128 632.68 191.128C631.704 191.128 630.76 190.696 630.216 189.64V191H628.424V179.16H630.216V184.04C630.872 182.84 631.912 182.344 632.888 182.344ZM632.408 189.656C633.64 189.656 634.552 188.664 634.552 186.76C634.552 184.856 633.64 183.88 632.408 183.88C631.096 183.88 630.216 184.776 630.216 186.744C630.216 188.712 631.096 189.656 632.408 189.656ZM643.279 182.52H645.071V191H643.279V189.752C642.735 190.68 641.887 191.144 640.847 191.144C639.103 191.144 638.095 190.024 638.095 188.184V182.52H639.887V187.912C639.887 189.016 640.431 189.608 641.407 189.608C642.655 189.608 643.279 188.712 643.279 187.064V182.52ZM649.815 188.376C649.815 189.32 650.391 189.608 650.983 189.608C651.447 189.608 651.815 189.416 652.183 189.048L652.951 190.2C652.311 190.84 651.607 191.144 650.695 191.144C649.223 191.144 648.023 190.248 648.023 188.488V183.912H646.535V182.52H648.023V180.632L649.815 179.816V182.52H652.807V183.912H649.815V188.376ZM656.74 188.376C656.74 189.32 657.316 189.608 657.908 189.608C658.372 189.608 658.74 189.416 659.108 189.048L659.876 190.2C659.236 190.84 658.532 191.144 657.62 191.144C656.148 191.144 654.948 190.248 654.948 188.488V183.912H653.46V182.52H654.948V180.632L656.74 179.816V182.52H659.732V183.912H656.74V188.376ZM664.487 191.16C662.279 191.16 660.471 189.432 660.471 186.712C660.471 184.056 662.263 182.328 664.487 182.328C666.711 182.328 668.503 184.056 668.503 186.712C668.503 189.432 666.695 191.16 664.487 191.16ZM664.487 189.64C665.687 189.64 666.663 188.712 666.663 186.712C666.663 184.696 665.671 183.848 664.487 183.848C663.303 183.848 662.311 184.696 662.311 186.712C662.311 188.712 663.303 189.64 664.487 189.64ZM674.634 182.328C676.362 182.328 677.386 183.448 677.386 185.288V191H675.594V185.576C675.594 184.408 675.034 183.88 674.058 183.88C672.794 183.88 672.154 184.76 672.154 186.408V191H670.362V182.52H672.154V183.736C672.73 182.84 673.578 182.328 674.634 182.328Z" fill="#2A2859"/>
<rect x="526" y="158" width="298" height="54" stroke="#2A2859" stroke-width="2"/>
</svg>
