<svg width="1116" height="387" viewBox="0 0 1116 387" fill="none" xmlns="http://www.w3.org/2000/svg">
<g clip-path="url(#clip0_5863_7145)">
<rect width="1116" height="387" fill="white"/>
<mask id="path-1-inside-1_5863_7145" fill="white">
<path d="M0 55H552V387H0V55Z"/>
</mask>
<path d="M0 55H552V387H0V55Z" fill="white"/>
<path d="M552 387V388H553V387H552ZM0 387H-1V388H0V387ZM551 55V387H553V55H551ZM552 386H0V388H552V386ZM1 387V55H-1V387H1Z" fill="#E6E6E6" mask="url(#path-1-inside-1_5863_7145)"/>
<mask id="path-3-inside-2_5863_7145" fill="white">
<path d="M563 55H1116V387H563V55Z"/>
</mask>
<path d="M563 55H1116V387H563V55Z" fill="white"/>
<path d="M1116 387V388H1117V387H1116ZM563 387H562V388H563V387ZM1115 55V387H1117V55H1115ZM1116 386H563V388H1116V386ZM564 387V55H562V387H564Z" fill="#E6E6E6" mask="url(#path-3-inside-2_5863_7145)"/>
<rect x="0.5" y="0.5" width="550.12" height="53.97" stroke="#E6E6E6"/>
<rect x="563.575" y="0.5" width="551.316" height="53.97" stroke="#E6E6E6"/>
<path d="M0 43.9761H551.12V54.9701H0V43.9761Z" fill="#C7F6C9"/>
<path opacity="0.6" d="M563 43.9761H1115.32V54.9701H563V43.9761Z" fill="#FF8274"/>
<path d="M23.1211 28.144C19.8731 28.144 17.5211 25.776 17.5211 22.016C17.5211 18.368 20.0011 16.016 22.9931 16.016C25.0571 16.016 26.5611 16.96 27.3131 18.64L26.0491 19.296C25.4731 18.048 24.3211 17.376 22.9771 17.376C20.8331 17.376 19.0091 18.896 19.0091 22.016C19.0091 25.136 20.7371 26.848 23.2011 26.848C24.4011 26.848 25.2651 26.608 26.0651 26.144V22.896H21.8891V21.6H27.3451V26.8C26.2891 27.68 24.7051 28.144 23.1211 28.144ZM30.4281 18.032C29.8201 18.032 29.3401 17.568 29.3401 16.944C29.3401 16.336 29.8201 15.872 30.4281 15.872C31.0201 15.872 31.5001 16.336 31.5001 16.944C31.5001 17.568 31.0201 18.032 30.4281 18.032ZM29.1001 31.488C28.7801 31.488 28.4441 31.44 28.1401 31.344L28.2521 30.208C28.4761 30.288 28.6681 30.304 28.8281 30.304C29.5321 30.304 29.7401 29.84 29.7401 29.12V19.52H31.1161V29.104C31.1161 30.64 30.4601 31.488 29.1001 31.488ZM39.2179 20.096C40.2259 20.832 40.8659 22.112 40.8659 23.728C40.8659 26.416 39.1219 28.144 36.9939 28.144C36.4179 28.144 35.8579 28.016 35.3619 27.776L34.8499 28.8H34.0179L34.7219 27.392C33.7459 26.64 33.1059 25.36 33.1059 23.728C33.1059 21.088 34.8339 19.36 36.9939 19.36C37.5699 19.36 38.1139 19.488 38.5939 19.712L39.1059 18.704H39.9219L39.2179 20.096ZM34.5299 23.728C34.5299 24.864 34.8339 25.696 35.3139 26.224L38.0499 20.8C37.7299 20.64 37.3619 20.56 36.9939 20.56C35.6499 20.56 34.5299 21.568 34.5299 23.728ZM36.9939 26.944C38.3379 26.944 39.4419 25.888 39.4419 23.728C39.4419 22.592 39.1379 21.776 38.6419 21.248L35.9059 26.688C36.2419 26.864 36.6099 26.944 36.9939 26.944ZM46.2012 19.36C47.3532 19.36 48.1532 20.128 48.1532 21.584V22.528L46.9692 22.752V21.904C46.9692 21.088 46.6972 20.544 45.8492 20.544C44.8892 20.544 44.1852 21.216 44.1852 22.896V28H42.8092V19.52H44.1852V20.608C44.6492 19.744 45.4492 19.36 46.2012 19.36ZM53.5241 21.776C53.5241 20.4 54.8201 19.36 56.6921 19.36C58.2601 19.36 59.4121 20.048 59.8601 21.168L58.8201 21.696C58.4681 20.944 57.7001 20.528 56.6601 20.528C55.5721 20.528 54.8521 20.96 54.8521 21.68C54.8521 22.304 55.2521 22.672 56.1641 22.864L57.3961 23.104C59.2361 23.472 60.1161 24.288 60.1161 25.568C60.1161 27.088 58.7721 28.128 56.7881 28.128C55.0601 28.128 53.8281 27.456 53.2201 26.208L54.2761 25.648C54.7081 26.512 55.5561 26.976 56.7561 26.976C57.9721 26.976 58.7881 26.448 58.7881 25.648C58.7881 24.944 58.3721 24.56 57.3961 24.352L55.9401 24.064C54.3721 23.744 53.5241 22.944 53.5241 21.776ZM64.9505 27.968C64.6625 28.032 64.4065 28.08 64.1185 28.08C62.6785 28.08 61.9905 27.2 61.9905 25.824V16.16H63.3665V25.76C63.3665 26.496 63.7665 26.848 64.4385 26.848C64.5985 26.848 64.7745 26.832 64.9505 26.784V27.968ZM66.472 16.064H68.36V17.92H66.472V16.064ZM66.728 28V19.52H68.104V28H66.728ZM75.965 28L73.053 23.92L72.045 24.912V28H70.669V16.16H72.045V23.328L75.837 19.52H77.581L73.981 23.024L77.645 28H75.965Z" fill="#2A2859"/>
<path d="M586.002 28V16.16H587.426V28H586.002ZM595.269 28L592.357 23.92L591.349 24.912V28H589.973V16.16H591.349V23.328L595.141 19.52H596.885L593.285 23.024L596.949 28H595.269ZM603.85 28L600.938 23.92L599.93 24.912V28H598.554V16.16H599.93V23.328L603.722 19.52H605.466L601.866 23.024L605.53 28H603.85ZM612.287 25.488L613.263 26.032C612.815 27.088 611.743 28.144 609.839 28.144C607.391 28.144 605.935 26.32 605.935 23.664C605.935 21.136 607.487 19.36 609.711 19.36C611.599 19.36 613.215 20.688 613.215 23.04L613.183 24.016H607.311C607.407 26.096 608.415 26.976 609.951 26.976C611.119 26.976 611.871 26.304 612.287 25.488ZM609.711 20.512C608.511 20.512 607.471 21.136 607.311 22.944H611.871C611.887 21.232 610.847 20.512 609.711 20.512ZM618.725 21.776C618.725 20.4 620.021 19.36 621.893 19.36C623.461 19.36 624.613 20.048 625.061 21.168L624.021 21.696C623.669 20.944 622.901 20.528 621.861 20.528C620.773 20.528 620.053 20.96 620.053 21.68C620.053 22.304 620.453 22.672 621.365 22.864L622.597 23.104C624.437 23.472 625.317 24.288 625.317 25.568C625.317 27.088 623.973 28.128 621.989 28.128C620.261 28.128 619.029 27.456 618.421 26.208L619.477 25.648C619.909 26.512 620.757 26.976 621.957 26.976C623.173 26.976 623.989 26.448 623.989 25.648C623.989 24.944 623.573 24.56 622.597 24.352L621.141 24.064C619.573 23.744 618.725 22.944 618.725 21.776ZM630.151 27.968C629.863 28.032 629.607 28.08 629.319 28.08C627.879 28.08 627.191 27.2 627.191 25.824V16.16H628.567V25.76C628.567 26.496 628.967 26.848 629.639 26.848C629.799 26.848 629.975 26.832 630.151 26.784V27.968ZM632.617 18.032C632.009 18.032 631.529 17.568 631.529 16.944C631.529 16.336 632.009 15.872 632.617 15.872C633.209 15.872 633.689 16.336 633.689 16.944C633.689 17.568 633.209 18.032 632.617 18.032ZM631.929 28V19.52H633.305V28H631.929ZM641.166 28L638.254 23.92L637.246 24.912V28H635.87V16.16H637.246V23.328L641.038 19.52H642.782L639.182 23.024L642.846 28H641.166Z" fill="#2A2859"/>
<path d="M85.342 133.68H87.448V147H85.342V141.312H79.672V147H77.566V133.68H79.672V139.278H85.342V133.68ZM96.3498 137.46H98.4378L94.7838 147H92.7138L89.0778 137.46H91.3098L93.8298 144.894L96.3498 137.46ZM100.953 135.876C100.161 135.876 99.5307 135.264 99.5307 134.454C99.5307 133.644 100.161 133.032 100.953 133.032C101.745 133.032 102.357 133.644 102.357 134.454C102.357 135.264 101.745 135.876 100.953 135.876ZM99.9447 147V137.46H101.961V147H99.9447ZM108.676 146.946C108.298 147.054 107.92 147.108 107.524 147.108C105.706 147.108 104.842 146.028 104.842 144.282V133.68H106.858V144.138C106.858 144.966 107.344 145.344 108.082 145.344C108.262 145.344 108.46 145.326 108.676 145.272V146.946ZM116.719 147L113.821 142.626L112.723 143.706V147H110.707V133.68H112.723V141.42L116.575 137.46H119.059L115.153 141.312L119.131 147H116.719ZM126.727 143.994L128.095 144.786C127.555 145.974 126.295 147.162 124.117 147.162C121.291 147.162 119.581 145.074 119.581 142.14C119.581 139.242 121.435 137.244 123.973 137.244C126.223 137.244 128.077 138.756 128.077 141.456L128.041 142.644H121.561C121.669 144.66 122.659 145.524 124.243 145.524C125.413 145.524 126.223 144.894 126.727 143.994ZM123.973 138.828C122.749 138.828 121.723 139.476 121.561 141.204H126.115C126.133 139.512 125.089 138.828 123.973 138.828ZM134.265 140.088C134.265 138.468 135.759 137.244 138.009 137.244C139.863 137.244 141.105 137.91 141.771 139.188L140.367 140.052C139.935 139.314 139.071 138.864 137.991 138.864C136.911 138.864 136.173 139.278 136.173 139.962C136.173 140.52 136.551 140.862 137.397 141.024L138.999 141.348C141.015 141.744 142.023 142.698 142.023 144.156C142.023 145.956 140.457 147.162 138.099 147.162C136.101 147.162 134.679 146.406 133.941 145.02L135.345 144.138C135.867 145.02 136.785 145.524 138.045 145.524C139.269 145.524 140.097 145.038 140.097 144.246C140.097 143.598 139.701 143.238 138.819 143.058L137.055 142.716C135.255 142.374 134.265 141.456 134.265 140.088ZM147.827 147.18C145.343 147.18 143.309 145.236 143.309 142.176C143.309 139.188 145.325 137.244 147.827 137.244C150.329 137.244 152.345 139.188 152.345 142.176C152.345 145.236 150.311 147.18 147.827 147.18ZM147.827 145.47C149.177 145.47 150.275 144.426 150.275 142.176C150.275 139.908 149.159 138.954 147.827 138.954C146.495 138.954 145.379 139.908 145.379 142.176C145.379 144.426 146.495 145.47 147.827 145.47ZM153.957 140.088C153.957 138.468 155.451 137.244 157.701 137.244C159.555 137.244 160.797 137.91 161.463 139.188L160.059 140.052C159.627 139.314 158.763 138.864 157.683 138.864C156.603 138.864 155.865 139.278 155.865 139.962C155.865 140.52 156.243 140.862 157.089 141.024L158.691 141.348C160.707 141.744 161.715 142.698 161.715 144.156C161.715 145.956 160.149 147.162 157.791 147.162C155.793 147.162 154.371 146.406 153.633 145.02L155.037 144.138C155.559 145.02 156.477 145.524 157.737 145.524C158.961 145.524 159.789 145.038 159.789 144.246C159.789 143.598 159.393 143.238 158.511 143.058L156.747 142.716C154.947 142.374 153.957 141.456 153.957 140.088ZM163.554 133.32H166.02V135.75H163.554V133.32ZM163.788 147V137.46H165.804V147H163.788ZM176.372 147H174.518C174.374 146.514 174.284 145.938 174.248 145.2C173.798 146.19 172.79 147.162 171.134 147.162C169.406 147.162 168.182 145.992 168.182 144.336C168.182 142.266 170.018 141.24 172.07 141.24C172.718 141.24 173.33 141.294 173.996 141.474V140.574C173.996 139.548 173.348 138.882 172.178 138.882C171.08 138.882 170.306 139.476 169.946 140.592L168.236 140.07C168.92 138.054 170.558 137.244 172.268 137.244C174.806 137.244 175.958 138.738 175.958 140.556V144.246C175.958 145.38 176.138 146.388 176.372 147ZM173.996 143.058V142.842C173.42 142.644 172.862 142.572 172.268 142.572C171.08 142.572 170.162 143.112 170.162 144.156C170.162 145.038 170.792 145.596 171.746 145.596C172.718 145.596 173.996 145.02 173.996 143.058ZM182.515 146.946C182.137 147.054 181.759 147.108 181.363 147.108C179.545 147.108 178.681 146.028 178.681 144.282V133.68H180.697V144.138C180.697 144.966 181.183 145.344 181.921 145.344C182.101 145.344 182.299 145.326 182.515 145.272V146.946ZM190.781 143.994L192.149 144.786C191.609 145.974 190.349 147.162 188.171 147.162C185.345 147.162 183.635 145.074 183.635 142.14C183.635 139.242 185.489 137.244 188.027 137.244C190.277 137.244 192.131 138.756 192.131 141.456L192.095 142.644H185.615C185.723 144.66 186.713 145.524 188.297 145.524C189.467 145.524 190.277 144.894 190.781 143.994ZM188.027 138.828C186.803 138.828 185.777 139.476 185.615 141.204H190.169C190.187 139.512 189.143 138.828 188.027 138.828ZM209.335 137.244C211.243 137.244 212.341 138.486 212.341 140.484V147H210.325V140.826C210.325 139.566 209.731 138.99 208.687 138.99C207.283 138.99 206.581 139.962 206.581 141.834V147H204.565V140.826C204.565 139.566 203.971 138.99 202.927 138.99C201.541 138.99 200.839 139.962 200.839 141.834V147H198.823V137.46H200.839V138.81C201.487 137.784 202.423 137.244 203.575 137.244C205.033 137.244 205.987 137.946 206.401 139.134C207.049 137.874 208.057 137.244 209.335 137.244ZM221.646 143.994L223.014 144.786C222.474 145.974 221.214 147.162 219.036 147.162C216.21 147.162 214.5 145.074 214.5 142.14C214.5 139.242 216.354 137.244 218.892 137.244C221.142 137.244 222.996 138.756 222.996 141.456L222.96 142.644H216.48C216.588 144.66 217.578 145.524 219.162 145.524C220.332 145.524 221.142 144.894 221.646 143.994ZM218.892 138.828C217.668 138.828 216.642 139.476 216.48 141.204H221.034C221.052 139.512 220.008 138.828 218.892 138.828ZM231.637 133.68H233.653V147H231.637V145.272C230.899 146.604 229.747 147.144 228.649 147.144C226.345 147.144 224.689 145.164 224.689 142.266C224.689 139.26 226.363 137.262 228.883 137.262C229.963 137.262 231.043 137.748 231.637 138.918V133.68ZM229.189 145.38C230.647 145.38 231.637 144.39 231.637 142.158C231.637 139.944 230.665 138.882 229.189 138.882C227.803 138.882 226.777 139.998 226.777 142.158C226.777 144.3 227.803 145.38 229.189 145.38ZM237.305 135.876C236.513 135.876 235.883 135.264 235.883 134.454C235.883 133.644 236.513 133.032 237.305 133.032C238.097 133.032 238.709 133.644 238.709 134.454C238.709 135.264 238.097 135.876 237.305 135.876ZM236.297 147V137.46H238.313V147H236.297ZM247.747 143.994L249.115 144.786C248.575 145.974 247.315 147.162 245.137 147.162C242.311 147.162 240.601 145.074 240.601 142.14C240.601 139.242 242.455 137.244 244.993 137.244C247.243 137.244 249.097 138.756 249.097 141.456L249.061 142.644H242.581C242.689 144.66 243.679 145.524 245.263 145.524C246.433 145.524 247.243 144.894 247.747 143.994ZM244.993 138.828C243.769 138.828 242.743 139.476 242.581 141.204H247.135C247.153 139.512 246.109 138.828 244.993 138.828ZM255.758 137.244C257.144 137.244 258.044 138.162 258.044 139.8V141.06L256.424 141.348V140.376C256.424 139.512 256.118 138.918 255.182 138.918C254.156 138.918 253.4 139.602 253.4 141.42V147H251.384V137.46H253.4V138.738C253.94 137.676 254.93 137.244 255.758 137.244ZM269.594 137.262C271.898 137.262 273.554 139.224 273.554 142.14C273.554 145.128 271.88 147.144 269.36 147.144C268.262 147.144 267.2 146.658 266.588 145.47V147H264.572V133.68H266.588V139.17C267.326 137.82 268.496 137.262 269.594 137.262ZM269.054 145.488C270.44 145.488 271.466 144.372 271.466 142.23C271.466 140.088 270.44 138.99 269.054 138.99C267.578 138.99 266.588 139.998 266.588 142.212C266.588 144.426 267.578 145.488 269.054 145.488ZM280.048 137.244C281.434 137.244 282.334 138.162 282.334 139.8V141.06L280.714 141.348V140.376C280.714 139.512 280.408 138.918 279.472 138.918C278.446 138.918 277.69 139.602 277.69 141.42V147H275.674V137.46H277.69V138.738C278.23 137.676 279.22 137.244 280.048 137.244ZM289.81 137.46H291.826V147H289.81V145.596C289.198 146.64 288.244 147.162 287.074 147.162C285.112 147.162 283.978 145.902 283.978 143.832V137.46H285.994V143.526C285.994 144.768 286.606 145.434 287.704 145.434C289.108 145.434 289.81 144.426 289.81 142.572V137.46ZM300.499 147L297.601 142.626L296.503 143.706V147H294.487V133.68H296.503V141.42L300.355 137.46H302.839L298.933 141.312L302.911 147H300.499ZM310.507 143.994L311.875 144.786C311.335 145.974 310.075 147.162 307.897 147.162C305.071 147.162 303.361 145.074 303.361 142.14C303.361 139.242 305.215 137.244 307.753 137.244C310.003 137.244 311.857 138.756 311.857 141.456L311.821 142.644H305.341C305.449 144.66 306.439 145.524 308.023 145.524C309.193 145.524 310.003 144.894 310.507 143.994ZM307.753 138.828C306.529 138.828 305.503 139.476 305.341 141.204H309.895C309.913 139.512 308.869 138.828 307.753 138.828ZM318.518 137.244C319.904 137.244 320.804 138.162 320.804 139.8V141.06L319.184 141.348V140.376C319.184 139.512 318.878 138.918 317.942 138.918C316.916 138.918 316.16 139.602 316.16 141.42V147H314.144V137.46H316.16V138.738C316.7 137.676 317.69 137.244 318.518 137.244ZM333.686 133.68H335.702V147H333.686V145.272C332.948 146.604 331.796 147.144 330.698 147.144C328.394 147.144 326.738 145.164 326.738 142.266C326.738 139.26 328.412 137.262 330.932 137.262C332.012 137.262 333.092 137.748 333.686 138.918V133.68ZM331.238 145.38C332.696 145.38 333.686 144.39 333.686 142.158C333.686 139.944 332.714 138.882 331.238 138.882C329.852 138.882 328.826 139.998 328.826 142.158C328.826 144.3 329.852 145.38 331.238 145.38ZM343.981 137.46H345.997V147H343.981V145.596C343.369 146.64 342.415 147.162 341.245 147.162C339.283 147.162 338.149 145.902 338.149 143.832V137.46H340.165V143.526C340.165 144.768 340.777 145.434 341.875 145.434C343.279 145.434 343.981 144.426 343.981 142.572V137.46ZM352.83 133.32H355.296V135.75H352.83V133.32ZM353.064 147V137.46H355.08V147H353.064ZM367.191 137.244C369.135 137.244 370.287 138.504 370.287 140.574V147H368.271V140.898C368.271 139.584 367.641 138.99 366.543 138.99C365.121 138.99 364.383 139.98 364.383 141.834V147H362.367V133.68H364.383V138.846C365.031 137.82 366.003 137.244 367.191 137.244ZM378.921 137.46H381.009L377.355 147H375.285L371.649 137.46H373.881L376.401 144.894L378.921 137.46ZM388.804 143.994L390.172 144.786C389.632 145.974 388.372 147.162 386.194 147.162C383.368 147.162 381.658 145.074 381.658 142.14C381.658 139.242 383.512 137.244 386.05 137.244C388.3 137.244 390.154 138.756 390.154 141.456L390.118 142.644H383.638C383.746 144.66 384.736 145.524 386.32 145.524C387.49 145.524 388.3 144.894 388.804 143.994ZM386.05 138.828C384.826 138.828 383.8 139.476 383.638 141.204H388.192C388.21 139.512 387.166 138.828 386.05 138.828ZM396.815 137.244C398.201 137.244 399.101 138.162 399.101 139.8V141.06L397.481 141.348V140.376C397.481 139.512 397.175 138.918 396.239 138.918C395.213 138.918 394.457 139.602 394.457 141.42V147H392.441V137.46H394.457V138.738C394.997 137.676 395.987 137.244 396.815 137.244ZM407.032 133.68H409.048V147H407.032V145.272C406.294 146.604 405.142 147.144 404.044 147.144C401.74 147.144 400.084 145.164 400.084 142.266C400.084 139.26 401.758 137.262 404.278 137.262C405.358 137.262 406.438 137.748 407.032 138.918V133.68ZM404.584 145.38C406.042 145.38 407.032 144.39 407.032 142.158C407.032 139.944 406.06 138.882 404.584 138.882C403.198 138.882 402.172 139.998 402.172 142.158C402.172 144.3 403.198 145.38 404.584 145.38ZM419.379 147H417.525C417.381 146.514 417.291 145.938 417.255 145.2C416.805 146.19 415.797 147.162 414.141 147.162C412.413 147.162 411.189 145.992 411.189 144.336C411.189 142.266 413.025 141.24 415.077 141.24C415.725 141.24 416.337 141.294 417.003 141.474V140.574C417.003 139.548 416.355 138.882 415.185 138.882C414.087 138.882 413.313 139.476 412.953 140.592L411.243 140.07C411.927 138.054 413.565 137.244 415.275 137.244C417.813 137.244 418.965 138.738 418.965 140.556V144.246C418.965 145.38 419.145 146.388 419.379 147ZM417.003 143.058V142.842C416.427 142.644 415.869 142.572 415.275 142.572C414.087 142.572 413.169 143.112 413.169 144.156C413.169 145.038 413.799 145.596 414.753 145.596C415.725 145.596 417.003 145.02 417.003 143.058ZM430.78 139.026H428.782V139.242C429.106 139.692 429.268 140.214 429.268 140.754C429.268 142.482 427.936 144.21 425.164 144.21H424.696C423.724 144.21 423.094 144.534 423.094 145.11C423.094 145.506 423.4 145.794 424.012 145.794H427.99C429.628 145.794 430.564 146.64 430.564 147.936C430.564 149.898 428.566 151.032 425.38 151.032C422.59 151.032 420.718 150.33 420.232 148.476L422.194 148.098C422.644 149.25 423.688 149.556 425.434 149.556C427.306 149.556 428.638 149.052 428.638 148.17C428.638 147.756 428.404 147.45 427.756 147.45H423.418C421.924 147.45 421.15 146.64 421.15 145.632C421.15 144.66 422.014 143.886 423.202 143.652C421.888 143.076 421.24 141.852 421.24 140.7C421.24 138.99 422.626 137.244 425.272 137.244C426.442 137.244 427.36 137.658 427.9 138.252V137.46H430.78V139.026ZM425.272 142.752C426.658 142.752 427.306 141.78 427.306 140.736C427.306 139.692 426.658 138.738 425.272 138.738C423.904 138.738 423.238 139.692 423.238 140.736C423.238 141.78 423.904 142.752 425.272 142.752ZM438.271 143.994L439.639 144.786C439.099 145.974 437.839 147.162 435.661 147.162C432.835 147.162 431.125 145.074 431.125 142.14C431.125 139.242 432.979 137.244 435.517 137.244C437.767 137.244 439.621 138.756 439.621 141.456L439.585 142.644H433.105C433.213 144.66 434.203 145.524 435.787 145.524C436.957 145.524 437.767 144.894 438.271 143.994ZM435.517 138.828C434.293 138.828 433.267 139.476 433.105 141.204H437.659C437.677 139.512 436.633 138.828 435.517 138.828ZM446.714 137.244C448.658 137.244 449.81 138.504 449.81 140.574V147H447.794V140.898C447.794 139.584 447.164 138.99 446.066 138.99C444.644 138.99 443.924 139.98 443.924 141.834V147H441.908V137.46H443.924V138.828C444.572 137.82 445.526 137.244 446.714 137.244ZM455.446 133.5C457.93 133.5 459.676 134.922 459.676 137.19C459.676 139.44 457.93 140.664 455.95 141.222L455.914 142.77H454.276L454.168 140.07C456.112 139.782 457.516 139.044 457.516 137.298C457.516 136.128 456.706 135.372 455.374 135.372C454.168 135.372 453.25 136.038 452.656 137.226L450.928 136.488C451.864 134.49 453.574 133.5 455.446 133.5ZM455.086 144.102C455.95 144.102 456.598 144.768 456.598 145.614C456.598 146.46 455.95 147.126 455.086 147.126C454.24 147.126 453.592 146.46 453.592 145.614C453.592 144.768 454.24 144.102 455.086 144.102Z" fill="#2A2859"/>
<rect x="77" y="164" width="22" height="22" fill="white"/>
<rect x="77" y="164" width="22" height="22" stroke="#2A2859" stroke-width="2"/>
<path d="M110.528 181H109.408V169.16H116.384V170.216H110.528V174.728H115.296V175.784H110.528V181ZM123.402 181H122.41C122.282 180.536 122.186 179.976 122.186 179.336C121.754 180.328 120.65 181.128 119.274 181.128C117.77 181.128 116.634 180.152 116.634 178.696C116.634 176.952 118.202 176.04 119.946 176.04C120.634 176.04 121.306 176.12 121.994 176.36V175.24C121.994 174.136 121.322 173.384 120.01 173.384C118.954 173.384 118.058 173.848 117.61 175.144L116.65 174.856C117.29 173.064 118.586 172.392 120.074 172.392C122.17 172.392 123.05 173.656 123.05 175.112V178.6C123.05 179.56 123.21 180.424 123.402 181ZM121.994 177.48V177.288C121.338 177.016 120.666 176.936 120.01 176.936C118.73 176.936 117.722 177.512 117.722 178.632C117.722 179.656 118.442 180.2 119.466 180.2C120.57 180.2 121.994 179.544 121.994 177.48ZM131.109 175.048C130.757 173.992 129.909 173.352 128.805 173.352C127.125 173.352 126.021 174.648 126.021 176.648C126.021 178.84 127.125 180.168 128.933 180.168C130.053 180.168 130.949 179.512 131.397 178.408L132.197 178.856C131.685 180.264 130.373 181.128 128.901 181.128C126.453 181.128 124.901 179.352 124.901 176.648C124.901 174.184 126.565 172.392 128.837 172.392C130.501 172.392 131.701 173.384 132.037 174.728L131.109 175.048ZM139.615 178.6L140.415 179.048C140.015 180.072 138.959 181.128 137.071 181.128C134.687 181.128 133.279 179.352 133.279 176.648C133.279 174.168 134.751 172.392 136.959 172.392C138.783 172.392 140.351 173.704 140.351 176.008L140.319 176.952H134.383C134.479 179.208 135.551 180.168 137.183 180.168C138.463 180.168 139.215 179.432 139.615 178.6ZM136.959 173.352C135.679 173.352 134.527 174.04 134.383 176.056H139.279C139.327 174.152 138.207 173.352 136.959 173.352ZM146.355 172.408C148.515 172.408 149.971 174.216 149.971 176.68C149.971 179.288 148.499 181.128 146.227 181.128C145.043 181.128 144.083 180.536 143.571 179.464V181H142.483V169.16H143.571V174.104C144.131 173.016 145.251 172.408 146.355 172.408ZM146.227 180.168C147.811 180.168 148.851 178.952 148.851 176.728C148.851 174.584 147.811 173.368 146.243 173.368C144.547 173.368 143.571 174.632 143.571 176.712C143.571 178.92 144.531 180.168 146.227 180.168ZM155.217 181.128C153.121 181.128 151.441 179.4 151.441 176.744C151.441 174.12 153.105 172.392 155.217 172.392C157.329 172.392 158.993 174.12 158.993 176.744C158.993 179.4 157.313 181.128 155.217 181.128ZM155.217 180.168C156.673 180.168 157.873 179.016 157.873 176.744C157.873 174.488 156.657 173.352 155.217 173.352C153.777 173.352 152.561 174.488 152.561 176.744C152.561 179.016 153.761 180.168 155.217 180.168ZM164.236 181.128C162.14 181.128 160.46 179.4 160.46 176.744C160.46 174.12 162.124 172.392 164.236 172.392C166.348 172.392 168.012 174.12 168.012 176.744C168.012 179.4 166.332 181.128 164.236 181.128ZM164.236 180.168C165.692 180.168 166.892 179.016 166.892 176.744C166.892 174.488 165.676 173.352 164.236 173.352C162.796 173.352 161.58 174.488 161.58 176.744C161.58 179.016 162.78 180.168 164.236 180.168ZM175.303 181L172.183 176.792L171.143 177.784V181H170.055V169.16H171.143V176.504L175.175 172.52H176.615L172.919 176.072L176.679 181H175.303Z" fill="#2A2859"/>
<rect x="77" y="204" width="22" height="22" fill="#2A2859"/>
<path fill-rule="evenodd" clip-rule="evenodd" d="M93.7782 212.161L86.4979 219.441L82.2175 215.161L83.2782 214.1L86.4979 217.32L92.7175 211.1L93.7782 212.161Z" fill="white"/>
<rect x="77" y="204" width="22" height="22" stroke="#2A2859" stroke-width="2"/>
<path d="M109.408 221V209.16H110.528V221H109.408ZM116.666 212.392C118.362 212.392 119.354 213.432 119.354 215.336V221H118.266V215.496C118.266 213.96 117.562 213.384 116.378 213.384C114.89 213.384 114.202 214.536 114.202 216.232V221H113.113V212.52H114.202V213.832C114.714 212.904 115.642 212.392 116.666 212.392ZM121.357 214.728C121.357 213.384 122.621 212.392 124.397 212.392C125.933 212.392 127.117 213.128 127.469 214.248L126.573 214.6C126.237 213.784 125.453 213.352 124.365 213.352C123.181 213.352 122.413 213.848 122.413 214.632C122.413 215.336 122.877 215.768 123.885 215.976L125.005 216.2C126.861 216.568 127.725 217.368 127.725 218.632C127.725 220.104 126.413 221.128 124.525 221.128C122.813 221.128 121.613 220.456 121.037 219.176L121.965 218.792C122.365 219.688 123.245 220.168 124.493 220.168C125.805 220.168 126.669 219.592 126.669 218.728C126.669 217.928 126.221 217.496 125.101 217.256L123.725 216.968C122.173 216.648 121.357 215.864 121.357 214.728ZM131.206 218.888C131.206 219.88 131.798 220.168 132.326 220.168C132.838 220.168 133.174 219.976 133.574 219.56L134.15 220.2C133.59 220.856 132.982 221.128 132.23 221.128C131.078 221.128 130.118 220.36 130.118 218.856V213.416H128.518V212.52H130.118V210.696L131.206 210.056V212.52H133.958V213.416H131.206V218.888ZM141.818 221H140.826C140.698 220.536 140.602 219.976 140.602 219.336C140.17 220.328 139.066 221.128 137.69 221.128C136.186 221.128 135.05 220.152 135.05 218.696C135.05 216.952 136.618 216.04 138.362 216.04C139.05 216.04 139.722 216.12 140.41 216.36V215.24C140.41 214.136 139.738 213.384 138.426 213.384C137.37 213.384 136.474 213.848 136.026 215.144L135.066 214.856C135.706 213.064 137.002 212.392 138.49 212.392C140.586 212.392 141.466 213.656 141.466 215.112V218.6C141.466 219.56 141.626 220.424 141.818 221ZM140.41 217.48V217.288C139.754 217.016 139.082 216.936 138.426 216.936C137.146 216.936 136.138 217.512 136.138 218.632C136.138 219.656 136.858 220.2 137.882 220.2C138.986 220.2 140.41 219.544 140.41 217.48ZM151.476 213.416H149.652V213.72C150.068 214.232 150.292 214.872 150.292 215.496C150.292 217.048 149.172 218.632 146.788 218.632H146.42C145.46 218.632 144.772 219 144.772 219.56C144.772 219.992 145.108 220.296 145.812 220.296H149.252C150.628 220.296 151.332 220.968 151.332 222.024C151.332 223.704 149.396 224.584 147.012 224.584C144.868 224.584 143.38 223.896 142.868 222.408L143.748 222.008C144.34 223.4 145.588 223.672 147.012 223.672C148.772 223.672 150.244 223.144 150.244 222.12C150.244 221.64 149.988 221.288 149.22 221.288H145.572C144.388 221.288 143.684 220.728 143.684 219.848C143.684 219.096 144.308 218.44 145.348 218.168C144.228 217.72 143.604 216.536 143.604 215.496C143.604 213.976 144.74 212.392 146.98 212.392C147.86 212.392 148.532 212.68 149.044 213.112V212.52H151.476V213.416ZM146.964 217.736C148.468 217.736 149.22 216.696 149.22 215.496C149.22 214.312 148.468 213.32 146.964 213.32C145.444 213.32 144.676 214.328 144.676 215.496C144.676 216.68 145.444 217.736 146.964 217.736ZM156.013 212.392C157.117 212.392 157.917 213.128 157.917 214.568V215.4L156.925 215.592V214.76C156.925 213.912 156.637 213.352 155.773 213.352C154.797 213.352 154.061 214.072 154.061 215.784V221H152.973V212.52H154.061V213.576C154.509 212.776 155.261 212.392 156.013 212.392ZM165.702 221H164.71C164.582 220.536 164.486 219.976 164.486 219.336C164.054 220.328 162.95 221.128 161.574 221.128C160.07 221.128 158.934 220.152 158.934 218.696C158.934 216.952 160.502 216.04 162.246 216.04C162.934 216.04 163.606 216.12 164.294 216.36V215.24C164.294 214.136 163.622 213.384 162.31 213.384C161.254 213.384 160.358 213.848 159.91 215.144L158.95 214.856C159.59 213.064 160.886 212.392 162.374 212.392C164.47 212.392 165.35 213.656 165.35 215.112V218.6C165.35 219.56 165.51 220.424 165.702 221ZM164.294 217.48V217.288C163.638 217.016 162.966 216.936 162.31 216.936C161.03 216.936 160.022 217.512 160.022 218.632C160.022 219.656 160.742 220.2 161.766 220.2C162.87 220.2 164.294 219.544 164.294 217.48ZM176.349 212.392C177.965 212.392 178.909 213.416 178.909 215.176V221H177.821V215.336C177.821 213.96 177.165 213.384 176.061 213.384C174.573 213.384 173.949 214.536 173.949 216.232V221H172.861V215.336C172.861 213.96 172.205 213.384 171.101 213.384C169.613 213.384 168.989 214.536 168.989 216.232V221H167.901V212.52H168.989V213.848C169.501 212.904 170.397 212.392 171.389 212.392C172.653 212.392 173.501 213.016 173.805 214.12C174.285 213 175.261 212.392 176.349 212.392Z" fill="#2A2859"/>
<rect x="77" y="244" width="22" height="22" fill="white"/>
<rect x="77" y="244" width="22" height="22" stroke="#2A2859" stroke-width="2"/>
<path d="M110.528 259.944H116.032V261H109.408V249.16H110.528V259.944ZM118.423 250.984C117.895 250.984 117.463 250.568 117.463 250.024C117.463 249.48 117.895 249.064 118.423 249.064C118.951 249.064 119.383 249.48 119.383 250.024C119.383 250.568 118.951 250.984 118.423 250.984ZM117.879 261V252.52H118.967V261H117.879ZM125.075 252.392C126.771 252.392 127.763 253.432 127.763 255.336V261H126.675V255.496C126.675 253.96 125.971 253.384 124.787 253.384C123.299 253.384 122.611 254.536 122.611 256.232V261H121.523V252.52H122.611V253.832C123.123 252.904 124.051 252.392 125.075 252.392ZM135.462 261L132.342 256.792L131.302 257.784V261H130.214V249.16H131.302V256.504L135.334 252.52H136.774L133.078 256.072L136.838 261H135.462ZM143.618 258.6L144.418 259.048C144.018 260.072 142.962 261.128 141.074 261.128C138.69 261.128 137.282 259.352 137.282 256.648C137.282 254.168 138.754 252.392 140.962 252.392C142.786 252.392 144.354 253.704 144.354 256.008L144.322 256.952H138.386C138.482 259.208 139.554 260.168 141.186 260.168C142.466 260.168 143.218 259.432 143.618 258.6ZM140.962 253.352C139.682 253.352 138.53 254.04 138.386 256.056H143.282C143.33 254.152 142.21 253.352 140.962 253.352ZM152.31 249.16H153.398V261H152.31V259.416C151.75 260.504 150.63 261.112 149.526 261.112C147.366 261.112 145.91 259.304 145.91 256.84C145.91 254.232 147.382 252.392 149.654 252.392C150.838 252.392 151.798 252.984 152.31 254.056V249.16ZM149.638 260.152C151.334 260.152 152.31 258.888 152.31 256.808C152.31 254.6 151.35 253.352 149.654 253.352C148.07 253.352 147.03 254.568 147.03 256.792C147.03 258.936 148.07 260.152 149.638 260.152ZM155.911 261V249.16H157.031V261H155.911ZM163.169 252.392C164.865 252.392 165.857 253.432 165.857 255.336V261H164.769V255.496C164.769 253.96 164.065 253.384 162.881 253.384C161.393 253.384 160.705 254.536 160.705 256.232V261H159.617V252.52H160.705V253.832C161.217 252.904 162.145 252.392 163.169 252.392Z" fill="#2A2859"/>
<rect x="77" y="284" width="22" height="22" fill="#2A2859"/>
<path fill-rule="evenodd" clip-rule="evenodd" d="M93.7782 292.161L86.4979 299.441L82.2175 295.161L83.2782 294.1L86.4979 297.32L92.7175 291.1L93.7782 292.161Z" fill="white"/>
<rect x="77" y="284" width="22" height="22" stroke="#2A2859" stroke-width="2"/>
<path d="M109.184 292.296C109.184 290.312 110.992 289.032 113.088 289.032C115.024 289.032 116.336 289.864 116.928 291.352L115.872 291.784C115.392 290.648 114.32 290.024 113.088 290.024C111.456 290.024 110.304 290.856 110.304 292.168C110.304 293.272 110.96 293.944 112.352 294.216L114.208 294.568C116.032 294.92 117.376 295.896 117.376 297.672C117.376 299.496 115.84 301.128 113.248 301.128C111.2 301.128 109.664 300.424 108.832 298.664L109.856 298.248C110.656 299.816 111.984 300.136 113.28 300.136C115.216 300.136 116.256 299.016 116.256 297.736C116.256 296.312 115.296 295.896 113.856 295.624L112.16 295.304C110.512 295 109.184 294.088 109.184 292.296ZM123.103 292.392C124.799 292.392 125.791 293.432 125.791 295.336V301H124.703V295.496C124.703 293.96 123.999 293.384 122.815 293.384C121.327 293.384 120.639 294.536 120.639 296.232V301H119.551V292.52H120.639V293.832C121.151 292.904 122.079 292.392 123.103 292.392ZM134.53 301H133.538C133.41 300.536 133.314 299.976 133.314 299.336C132.882 300.328 131.778 301.128 130.402 301.128C128.898 301.128 127.762 300.152 127.762 298.696C127.762 296.952 129.33 296.04 131.074 296.04C131.762 296.04 132.434 296.12 133.122 296.36V295.24C133.122 294.136 132.45 293.384 131.138 293.384C130.082 293.384 129.186 293.848 128.738 295.144L127.778 294.856C128.418 293.064 129.714 292.392 131.202 292.392C133.298 292.392 134.178 293.656 134.178 295.112V298.6C134.178 299.56 134.338 300.424 134.53 301ZM133.122 297.48V297.288C132.466 297.016 131.794 296.936 131.138 296.936C129.858 296.936 128.85 297.512 128.85 298.632C128.85 299.656 129.57 300.2 130.594 300.2C131.698 300.2 133.122 299.544 133.122 297.48ZM140.601 292.408C142.761 292.408 144.217 294.216 144.217 296.68C144.217 299.288 142.745 301.128 140.473 301.128C139.289 301.128 138.329 300.536 137.817 299.464V304.36H136.729V292.52H137.817V294.104C138.377 293.016 139.497 292.408 140.601 292.408ZM140.473 300.168C142.057 300.168 143.097 298.952 143.097 296.728C143.097 294.584 142.057 293.368 140.489 293.368C138.793 293.368 137.817 294.632 137.817 296.712C137.817 298.92 138.777 300.168 140.473 300.168ZM151.896 295.048C151.544 293.992 150.696 293.352 149.592 293.352C147.912 293.352 146.808 294.648 146.808 296.648C146.808 298.84 147.912 300.168 149.72 300.168C150.84 300.168 151.736 299.512 152.184 298.408L152.984 298.856C152.472 300.264 151.16 301.128 149.688 301.128C147.24 301.128 145.688 299.352 145.688 296.648C145.688 294.184 147.352 292.392 149.624 292.392C151.288 292.392 152.488 293.384 152.824 294.728L151.896 295.048ZM158.507 292.392C160.203 292.392 161.195 293.432 161.195 295.336V301H160.107V295.496C160.107 293.96 159.403 293.384 158.219 293.384C156.731 293.384 156.043 294.536 156.043 296.232V301H154.955V289.16H156.043V293.832C156.555 292.904 157.483 292.392 158.507 292.392ZM169.933 301H168.941C168.813 300.536 168.717 299.976 168.717 299.336C168.285 300.328 167.181 301.128 165.805 301.128C164.301 301.128 163.165 300.152 163.165 298.696C163.165 296.952 164.733 296.04 166.477 296.04C167.165 296.04 167.837 296.12 168.525 296.36V295.24C168.525 294.136 167.853 293.384 166.541 293.384C165.485 293.384 164.589 293.848 164.141 295.144L163.181 294.856C163.821 293.064 165.117 292.392 166.605 292.392C168.701 292.392 169.581 293.656 169.581 295.112V298.6C169.581 299.56 169.741 300.424 169.933 301ZM168.525 297.48V297.288C167.869 297.016 167.197 296.936 166.541 296.936C165.261 296.936 164.253 297.512 164.253 298.632C164.253 299.656 164.973 300.2 165.997 300.2C167.101 300.2 168.525 299.544 168.525 297.48ZM173.672 298.888C173.672 299.88 174.264 300.168 174.792 300.168C175.304 300.168 175.64 299.976 176.04 299.56L176.616 300.2C176.056 300.856 175.448 301.128 174.696 301.128C173.544 301.128 172.584 300.36 172.584 298.856V293.416H170.984V292.52H172.584V290.696L173.672 290.056V292.52H176.424V293.416H173.672V298.888Z" fill="#2A2859"/>
<path d="M648.342 133.68H650.448V147H648.342V141.312H642.672V147H640.566V133.68H642.672V139.278H648.342V133.68ZM659.35 137.46H661.438L657.784 147H655.714L652.078 137.46H654.31L656.83 144.894L659.35 137.46ZM663.953 135.876C663.161 135.876 662.531 135.264 662.531 134.454C662.531 133.644 663.161 133.032 663.953 133.032C664.745 133.032 665.357 133.644 665.357 134.454C665.357 135.264 664.745 135.876 663.953 135.876ZM662.945 147V137.46H664.961V147H662.945ZM671.676 146.946C671.298 147.054 670.92 147.108 670.524 147.108C668.706 147.108 667.842 146.028 667.842 144.282V133.68H669.858V144.138C669.858 144.966 670.344 145.344 671.082 145.344C671.262 145.344 671.46 145.326 671.676 145.272V146.946ZM679.719 147L676.821 142.626L675.723 143.706V147H673.707V133.68H675.723V141.42L679.575 137.46H682.059L678.153 141.312L682.131 147H679.719ZM689.727 143.994L691.095 144.786C690.555 145.974 689.295 147.162 687.117 147.162C684.291 147.162 682.581 145.074 682.581 142.14C682.581 139.242 684.435 137.244 686.973 137.244C689.223 137.244 691.077 138.756 691.077 141.456L691.041 142.644H684.561C684.669 144.66 685.659 145.524 687.243 145.524C688.413 145.524 689.223 144.894 689.727 143.994ZM686.973 138.828C685.749 138.828 684.723 139.476 684.561 141.204H689.115C689.133 139.512 688.089 138.828 686.973 138.828ZM697.265 140.088C697.265 138.468 698.759 137.244 701.009 137.244C702.863 137.244 704.105 137.91 704.771 139.188L703.367 140.052C702.935 139.314 702.071 138.864 700.991 138.864C699.911 138.864 699.173 139.278 699.173 139.962C699.173 140.52 699.551 140.862 700.397 141.024L701.999 141.348C704.015 141.744 705.023 142.698 705.023 144.156C705.023 145.956 703.457 147.162 701.099 147.162C699.101 147.162 697.679 146.406 696.941 145.02L698.345 144.138C698.867 145.02 699.785 145.524 701.045 145.524C702.269 145.524 703.097 145.038 703.097 144.246C703.097 143.598 702.701 143.238 701.819 143.058L700.055 142.716C698.255 142.374 697.265 141.456 697.265 140.088ZM710.827 147.18C708.343 147.18 706.309 145.236 706.309 142.176C706.309 139.188 708.325 137.244 710.827 137.244C713.329 137.244 715.345 139.188 715.345 142.176C715.345 145.236 713.311 147.18 710.827 147.18ZM710.827 145.47C712.177 145.47 713.275 144.426 713.275 142.176C713.275 139.908 712.159 138.954 710.827 138.954C709.495 138.954 708.379 139.908 708.379 142.176C708.379 144.426 709.495 145.47 710.827 145.47ZM716.957 140.088C716.957 138.468 718.451 137.244 720.701 137.244C722.555 137.244 723.797 137.91 724.463 139.188L723.059 140.052C722.627 139.314 721.763 138.864 720.683 138.864C719.603 138.864 718.865 139.278 718.865 139.962C718.865 140.52 719.243 140.862 720.089 141.024L721.691 141.348C723.707 141.744 724.715 142.698 724.715 144.156C724.715 145.956 723.149 147.162 720.791 147.162C718.793 147.162 717.371 146.406 716.633 145.02L718.037 144.138C718.559 145.02 719.477 145.524 720.737 145.524C721.961 145.524 722.789 145.038 722.789 144.246C722.789 143.598 722.393 143.238 721.511 143.058L719.747 142.716C717.947 142.374 716.957 141.456 716.957 140.088ZM726.554 133.32H729.02V135.75H726.554V133.32ZM726.788 147V137.46H728.804V147H726.788ZM739.372 147H737.518C737.374 146.514 737.284 145.938 737.248 145.2C736.798 146.19 735.79 147.162 734.134 147.162C732.406 147.162 731.182 145.992 731.182 144.336C731.182 142.266 733.018 141.24 735.07 141.24C735.718 141.24 736.33 141.294 736.996 141.474V140.574C736.996 139.548 736.348 138.882 735.178 138.882C734.08 138.882 733.306 139.476 732.946 140.592L731.236 140.07C731.92 138.054 733.558 137.244 735.268 137.244C737.806 137.244 738.958 138.738 738.958 140.556V144.246C738.958 145.38 739.138 146.388 739.372 147ZM736.996 143.058V142.842C736.42 142.644 735.862 142.572 735.268 142.572C734.08 142.572 733.162 143.112 733.162 144.156C733.162 145.038 733.792 145.596 734.746 145.596C735.718 145.596 736.996 145.02 736.996 143.058ZM745.515 146.946C745.137 147.054 744.759 147.108 744.363 147.108C742.545 147.108 741.681 146.028 741.681 144.282V133.68H743.697V144.138C743.697 144.966 744.183 145.344 744.921 145.344C745.101 145.344 745.299 145.326 745.515 145.272V146.946ZM753.781 143.994L755.149 144.786C754.609 145.974 753.349 147.162 751.171 147.162C748.345 147.162 746.635 145.074 746.635 142.14C746.635 139.242 748.489 137.244 751.027 137.244C753.277 137.244 755.131 138.756 755.131 141.456L755.095 142.644H748.615C748.723 144.66 749.713 145.524 751.297 145.524C752.467 145.524 753.277 144.894 753.781 143.994ZM751.027 138.828C749.803 138.828 748.777 139.476 748.615 141.204H753.169C753.187 139.512 752.143 138.828 751.027 138.828ZM772.335 137.244C774.243 137.244 775.341 138.486 775.341 140.484V147H773.325V140.826C773.325 139.566 772.731 138.99 771.687 138.99C770.283 138.99 769.581 139.962 769.581 141.834V147H767.565V140.826C767.565 139.566 766.971 138.99 765.927 138.99C764.541 138.99 763.839 139.962 763.839 141.834V147H761.823V137.46H763.839V138.81C764.487 137.784 765.423 137.244 766.575 137.244C768.033 137.244 768.987 137.946 769.401 139.134C770.049 137.874 771.057 137.244 772.335 137.244ZM784.646 143.994L786.014 144.786C785.474 145.974 784.214 147.162 782.036 147.162C779.21 147.162 777.5 145.074 777.5 142.14C777.5 139.242 779.354 137.244 781.892 137.244C784.142 137.244 785.996 138.756 785.996 141.456L785.96 142.644H779.48C779.588 144.66 780.578 145.524 782.162 145.524C783.332 145.524 784.142 144.894 784.646 143.994ZM781.892 138.828C780.668 138.828 779.642 139.476 779.48 141.204H784.034C784.052 139.512 783.008 138.828 781.892 138.828ZM794.637 133.68H796.653V147H794.637V145.272C793.899 146.604 792.747 147.144 791.649 147.144C789.345 147.144 787.689 145.164 787.689 142.266C787.689 139.26 789.363 137.262 791.883 137.262C792.963 137.262 794.043 137.748 794.637 138.918V133.68ZM792.189 145.38C793.647 145.38 794.637 144.39 794.637 142.158C794.637 139.944 793.665 138.882 792.189 138.882C790.803 138.882 789.777 139.998 789.777 142.158C789.777 144.3 790.803 145.38 792.189 145.38ZM800.305 135.876C799.513 135.876 798.883 135.264 798.883 134.454C798.883 133.644 799.513 133.032 800.305 133.032C801.097 133.032 801.709 133.644 801.709 134.454C801.709 135.264 801.097 135.876 800.305 135.876ZM799.297 147V137.46H801.313V147H799.297ZM810.747 143.994L812.115 144.786C811.575 145.974 810.315 147.162 808.137 147.162C805.311 147.162 803.601 145.074 803.601 142.14C803.601 139.242 805.455 137.244 807.993 137.244C810.243 137.244 812.097 138.756 812.097 141.456L812.061 142.644H805.581C805.689 144.66 806.679 145.524 808.263 145.524C809.433 145.524 810.243 144.894 810.747 143.994ZM807.993 138.828C806.769 138.828 805.743 139.476 805.581 141.204H810.135C810.153 139.512 809.109 138.828 807.993 138.828ZM818.758 137.244C820.144 137.244 821.044 138.162 821.044 139.8V141.06L819.424 141.348V140.376C819.424 139.512 819.118 138.918 818.182 138.918C817.156 138.918 816.4 139.602 816.4 141.42V147H814.384V137.46H816.4V138.738C816.94 137.676 817.93 137.244 818.758 137.244ZM832.594 137.262C834.898 137.262 836.554 139.224 836.554 142.14C836.554 145.128 834.88 147.144 832.36 147.144C831.262 147.144 830.2 146.658 829.588 145.47V147H827.572V133.68H829.588V139.17C830.326 137.82 831.496 137.262 832.594 137.262ZM832.054 145.488C833.44 145.488 834.466 144.372 834.466 142.23C834.466 140.088 833.44 138.99 832.054 138.99C830.578 138.99 829.588 139.998 829.588 142.212C829.588 144.426 830.578 145.488 832.054 145.488ZM843.048 137.244C844.434 137.244 845.334 138.162 845.334 139.8V141.06L843.714 141.348V140.376C843.714 139.512 843.408 138.918 842.472 138.918C841.446 138.918 840.69 139.602 840.69 141.42V147H838.674V137.46H840.69V138.738C841.23 137.676 842.22 137.244 843.048 137.244ZM852.81 137.46H854.826V147H852.81V145.596C852.198 146.64 851.244 147.162 850.074 147.162C848.112 147.162 846.978 145.902 846.978 143.832V137.46H848.994V143.526C848.994 144.768 849.606 145.434 850.704 145.434C852.108 145.434 852.81 144.426 852.81 142.572V137.46ZM863.499 147L860.601 142.626L859.503 143.706V147H857.487V133.68H859.503V141.42L863.355 137.46H865.839L861.933 141.312L865.911 147H863.499ZM873.507 143.994L874.875 144.786C874.335 145.974 873.075 147.162 870.897 147.162C868.071 147.162 866.361 145.074 866.361 142.14C866.361 139.242 868.215 137.244 870.753 137.244C873.003 137.244 874.857 138.756 874.857 141.456L874.821 142.644H868.341C868.449 144.66 869.439 145.524 871.023 145.524C872.193 145.524 873.003 144.894 873.507 143.994ZM870.753 138.828C869.529 138.828 868.503 139.476 868.341 141.204H872.895C872.913 139.512 871.869 138.828 870.753 138.828ZM881.518 137.244C882.904 137.244 883.804 138.162 883.804 139.8V141.06L882.184 141.348V140.376C882.184 139.512 881.878 138.918 880.942 138.918C879.916 138.918 879.16 139.602 879.16 141.42V147H877.144V137.46H879.16V138.738C879.7 137.676 880.69 137.244 881.518 137.244ZM896.686 133.68H898.702V147H896.686V145.272C895.948 146.604 894.796 147.144 893.698 147.144C891.394 147.144 889.738 145.164 889.738 142.266C889.738 139.26 891.412 137.262 893.932 137.262C895.012 137.262 896.092 137.748 896.686 138.918V133.68ZM894.238 145.38C895.696 145.38 896.686 144.39 896.686 142.158C896.686 139.944 895.714 138.882 894.238 138.882C892.852 138.882 891.826 139.998 891.826 142.158C891.826 144.3 892.852 145.38 894.238 145.38ZM906.981 137.46H908.997V147H906.981V145.596C906.369 146.64 905.415 147.162 904.245 147.162C902.283 147.162 901.149 145.902 901.149 143.832V137.46H903.165V143.526C903.165 144.768 903.777 145.434 904.875 145.434C906.279 145.434 906.981 144.426 906.981 142.572V137.46ZM915.83 133.32H918.296V135.75H915.83V133.32ZM916.064 147V137.46H918.08V147H916.064ZM930.191 137.244C932.135 137.244 933.287 138.504 933.287 140.574V147H931.271V140.898C931.271 139.584 930.641 138.99 929.543 138.99C928.121 138.99 927.383 139.98 927.383 141.834V147H925.367V133.68H927.383V138.846C928.031 137.82 929.003 137.244 930.191 137.244ZM941.921 137.46H944.009L940.355 147H938.285L934.649 137.46H936.881L939.401 144.894L941.921 137.46ZM951.804 143.994L953.172 144.786C952.632 145.974 951.372 147.162 949.194 147.162C946.368 147.162 944.658 145.074 944.658 142.14C944.658 139.242 946.512 137.244 949.05 137.244C951.3 137.244 953.154 138.756 953.154 141.456L953.118 142.644H946.638C946.746 144.66 947.736 145.524 949.32 145.524C950.49 145.524 951.3 144.894 951.804 143.994ZM949.05 138.828C947.826 138.828 946.8 139.476 946.638 141.204H951.192C951.21 139.512 950.166 138.828 949.05 138.828ZM959.815 137.244C961.201 137.244 962.101 138.162 962.101 139.8V141.06L960.481 141.348V140.376C960.481 139.512 960.175 138.918 959.239 138.918C958.213 138.918 957.457 139.602 957.457 141.42V147H955.441V137.46H957.457V138.738C957.997 137.676 958.987 137.244 959.815 137.244ZM970.032 133.68H972.048V147H970.032V145.272C969.294 146.604 968.142 147.144 967.044 147.144C964.74 147.144 963.084 145.164 963.084 142.266C963.084 139.26 964.758 137.262 967.278 137.262C968.358 137.262 969.438 137.748 970.032 138.918V133.68ZM967.584 145.38C969.042 145.38 970.032 144.39 970.032 142.158C970.032 139.944 969.06 138.882 967.584 138.882C966.198 138.882 965.172 139.998 965.172 142.158C965.172 144.3 966.198 145.38 967.584 145.38ZM982.379 147H980.525C980.381 146.514 980.291 145.938 980.255 145.2C979.805 146.19 978.797 147.162 977.141 147.162C975.413 147.162 974.189 145.992 974.189 144.336C974.189 142.266 976.025 141.24 978.077 141.24C978.725 141.24 979.337 141.294 980.003 141.474V140.574C980.003 139.548 979.355 138.882 978.185 138.882C977.087 138.882 976.313 139.476 975.953 140.592L974.243 140.07C974.927 138.054 976.565 137.244 978.275 137.244C980.813 137.244 981.965 138.738 981.965 140.556V144.246C981.965 145.38 982.145 146.388 982.379 147ZM980.003 143.058V142.842C979.427 142.644 978.869 142.572 978.275 142.572C977.087 142.572 976.169 143.112 976.169 144.156C976.169 145.038 976.799 145.596 977.753 145.596C978.725 145.596 980.003 145.02 980.003 143.058ZM993.78 139.026H991.782V139.242C992.106 139.692 992.268 140.214 992.268 140.754C992.268 142.482 990.936 144.21 988.164 144.21H987.696C986.724 144.21 986.094 144.534 986.094 145.11C986.094 145.506 986.4 145.794 987.012 145.794H990.99C992.628 145.794 993.564 146.64 993.564 147.936C993.564 149.898 991.566 151.032 988.38 151.032C985.59 151.032 983.718 150.33 983.232 148.476L985.194 148.098C985.644 149.25 986.688 149.556 988.434 149.556C990.306 149.556 991.638 149.052 991.638 148.17C991.638 147.756 991.404 147.45 990.756 147.45H986.418C984.924 147.45 984.15 146.64 984.15 145.632C984.15 144.66 985.014 143.886 986.202 143.652C984.888 143.076 984.24 141.852 984.24 140.7C984.24 138.99 985.626 137.244 988.272 137.244C989.442 137.244 990.36 137.658 990.9 138.252V137.46H993.78V139.026ZM988.272 142.752C989.658 142.752 990.306 141.78 990.306 140.736C990.306 139.692 989.658 138.738 988.272 138.738C986.904 138.738 986.238 139.692 986.238 140.736C986.238 141.78 986.904 142.752 988.272 142.752ZM1001.27 143.994L1002.64 144.786C1002.1 145.974 1000.84 147.162 998.661 147.162C995.835 147.162 994.125 145.074 994.125 142.14C994.125 139.242 995.979 137.244 998.517 137.244C1000.77 137.244 1002.62 138.756 1002.62 141.456L1002.58 142.644H996.105C996.213 144.66 997.203 145.524 998.787 145.524C999.957 145.524 1000.77 144.894 1001.27 143.994ZM998.517 138.828C997.293 138.828 996.267 139.476 996.105 141.204H1000.66C1000.68 139.512 999.633 138.828 998.517 138.828ZM1009.71 137.244C1011.66 137.244 1012.81 138.504 1012.81 140.574V147H1010.79V140.898C1010.79 139.584 1010.16 138.99 1009.07 138.99C1007.64 138.99 1006.92 139.98 1006.92 141.834V147H1004.91V137.46H1006.92V138.828C1007.57 137.82 1008.53 137.244 1009.71 137.244ZM1018.45 133.5C1020.93 133.5 1022.68 134.922 1022.68 137.19C1022.68 139.44 1020.93 140.664 1018.95 141.222L1018.91 142.77H1017.28L1017.17 140.07C1019.11 139.782 1020.52 139.044 1020.52 137.298C1020.52 136.128 1019.71 135.372 1018.37 135.372C1017.17 135.372 1016.25 136.038 1015.66 137.226L1013.93 136.488C1014.86 134.49 1016.57 133.5 1018.45 133.5ZM1018.09 144.102C1018.95 144.102 1019.6 144.768 1019.6 145.614C1019.6 146.46 1018.95 147.126 1018.09 147.126C1017.24 147.126 1016.59 146.46 1016.59 145.614C1016.59 144.768 1017.24 144.102 1018.09 144.102Z" fill="#2A2859"/>
<circle cx="651" cy="175" r="11" stroke="#2A2859" stroke-width="2"/>
<circle cx="651" cy="175" r="7" fill="#2A2859"/>
<path d="M673.528 181H672.408V169.16H679.384V170.216H673.528V174.728H678.296V175.784H673.528V181ZM686.402 181H685.41C685.282 180.536 685.186 179.976 685.186 179.336C684.754 180.328 683.65 181.128 682.274 181.128C680.77 181.128 679.634 180.152 679.634 178.696C679.634 176.952 681.202 176.04 682.946 176.04C683.634 176.04 684.306 176.12 684.994 176.36V175.24C684.994 174.136 684.322 173.384 683.01 173.384C681.954 173.384 681.058 173.848 680.61 175.144L679.65 174.856C680.29 173.064 681.586 172.392 683.074 172.392C685.17 172.392 686.05 173.656 686.05 175.112V178.6C686.05 179.56 686.21 180.424 686.402 181ZM684.994 177.48V177.288C684.338 177.016 683.666 176.936 683.01 176.936C681.73 176.936 680.722 177.512 680.722 178.632C680.722 179.656 681.442 180.2 682.466 180.2C683.57 180.2 684.994 179.544 684.994 177.48ZM694.109 175.048C693.757 173.992 692.909 173.352 691.805 173.352C690.125 173.352 689.021 174.648 689.021 176.648C689.021 178.84 690.125 180.168 691.933 180.168C693.053 180.168 693.949 179.512 694.397 178.408L695.197 178.856C694.685 180.264 693.373 181.128 691.901 181.128C689.453 181.128 687.901 179.352 687.901 176.648C687.901 174.184 689.565 172.392 691.837 172.392C693.501 172.392 694.701 173.384 695.037 174.728L694.109 175.048ZM702.615 178.6L703.415 179.048C703.015 180.072 701.959 181.128 700.071 181.128C697.687 181.128 696.279 179.352 696.279 176.648C696.279 174.168 697.751 172.392 699.959 172.392C701.783 172.392 703.351 173.704 703.351 176.008L703.319 176.952H697.383C697.479 179.208 698.551 180.168 700.183 180.168C701.463 180.168 702.215 179.432 702.615 178.6ZM699.959 173.352C698.679 173.352 697.527 174.04 697.383 176.056H702.279C702.327 174.152 701.207 173.352 699.959 173.352ZM709.355 172.408C711.515 172.408 712.971 174.216 712.971 176.68C712.971 179.288 711.499 181.128 709.227 181.128C708.043 181.128 707.083 180.536 706.571 179.464V181H705.483V169.16H706.571V174.104C707.131 173.016 708.251 172.408 709.355 172.408ZM709.227 180.168C710.811 180.168 711.851 178.952 711.851 176.728C711.851 174.584 710.811 173.368 709.243 173.368C707.547 173.368 706.571 174.632 706.571 176.712C706.571 178.92 707.531 180.168 709.227 180.168ZM718.217 181.128C716.121 181.128 714.441 179.4 714.441 176.744C714.441 174.12 716.105 172.392 718.217 172.392C720.329 172.392 721.993 174.12 721.993 176.744C721.993 179.4 720.313 181.128 718.217 181.128ZM718.217 180.168C719.673 180.168 720.873 179.016 720.873 176.744C720.873 174.488 719.657 173.352 718.217 173.352C716.777 173.352 715.561 174.488 715.561 176.744C715.561 179.016 716.761 180.168 718.217 180.168ZM727.236 181.128C725.14 181.128 723.46 179.4 723.46 176.744C723.46 174.12 725.124 172.392 727.236 172.392C729.348 172.392 731.012 174.12 731.012 176.744C731.012 179.4 729.332 181.128 727.236 181.128ZM727.236 180.168C728.692 180.168 729.892 179.016 729.892 176.744C729.892 174.488 728.676 173.352 727.236 173.352C725.796 173.352 724.58 174.488 724.58 176.744C724.58 179.016 725.78 180.168 727.236 180.168ZM738.303 181L735.183 176.792L734.143 177.784V181H733.055V169.16H734.143V176.504L738.175 172.52H739.615L735.919 176.072L739.679 181H738.303Z" fill="#2A2859"/>
<rect x="640" y="204" width="22" height="22" rx="11" stroke="#2A2859" stroke-width="2"/>
<path d="M672.408 221V209.16H673.528V221H672.408ZM679.666 212.392C681.362 212.392 682.354 213.432 682.354 215.336V221H681.266V215.496C681.266 213.96 680.562 213.384 679.378 213.384C677.89 213.384 677.202 214.536 677.202 216.232V221H676.113V212.52H677.202V213.832C677.714 212.904 678.642 212.392 679.666 212.392ZM684.357 214.728C684.357 213.384 685.621 212.392 687.397 212.392C688.933 212.392 690.117 213.128 690.469 214.248L689.573 214.6C689.237 213.784 688.453 213.352 687.365 213.352C686.181 213.352 685.413 213.848 685.413 214.632C685.413 215.336 685.877 215.768 686.885 215.976L688.005 216.2C689.861 216.568 690.725 217.368 690.725 218.632C690.725 220.104 689.413 221.128 687.525 221.128C685.813 221.128 684.613 220.456 684.037 219.176L684.965 218.792C685.365 219.688 686.245 220.168 687.493 220.168C688.805 220.168 689.669 219.592 689.669 218.728C689.669 217.928 689.221 217.496 688.101 217.256L686.725 216.968C685.173 216.648 684.357 215.864 684.357 214.728ZM694.206 218.888C694.206 219.88 694.798 220.168 695.326 220.168C695.838 220.168 696.174 219.976 696.574 219.56L697.15 220.2C696.59 220.856 695.982 221.128 695.23 221.128C694.078 221.128 693.118 220.36 693.118 218.856V213.416H691.518V212.52H693.118V210.696L694.206 210.056V212.52H696.958V213.416H694.206V218.888ZM704.818 221H703.826C703.698 220.536 703.602 219.976 703.602 219.336C703.17 220.328 702.066 221.128 700.69 221.128C699.186 221.128 698.05 220.152 698.05 218.696C698.05 216.952 699.618 216.04 701.362 216.04C702.05 216.04 702.722 216.12 703.41 216.36V215.24C703.41 214.136 702.738 213.384 701.426 213.384C700.37 213.384 699.474 213.848 699.026 215.144L698.066 214.856C698.706 213.064 700.002 212.392 701.49 212.392C703.586 212.392 704.466 213.656 704.466 215.112V218.6C704.466 219.56 704.626 220.424 704.818 221ZM703.41 217.48V217.288C702.754 217.016 702.082 216.936 701.426 216.936C700.146 216.936 699.138 217.512 699.138 218.632C699.138 219.656 699.858 220.2 700.882 220.2C701.986 220.2 703.41 219.544 703.41 217.48ZM714.476 213.416H712.652V213.72C713.068 214.232 713.292 214.872 713.292 215.496C713.292 217.048 712.172 218.632 709.788 218.632H709.42C708.46 218.632 707.772 219 707.772 219.56C707.772 219.992 708.108 220.296 708.812 220.296H712.252C713.628 220.296 714.332 220.968 714.332 222.024C714.332 223.704 712.396 224.584 710.012 224.584C707.868 224.584 706.38 223.896 705.868 222.408L706.748 222.008C707.34 223.4 708.588 223.672 710.012 223.672C711.772 223.672 713.244 223.144 713.244 222.12C713.244 221.64 712.988 221.288 712.22 221.288H708.572C707.388 221.288 706.684 220.728 706.684 219.848C706.684 219.096 707.308 218.44 708.348 218.168C707.228 217.72 706.604 216.536 706.604 215.496C706.604 213.976 707.74 212.392 709.98 212.392C710.86 212.392 711.532 212.68 712.044 213.112V212.52H714.476V213.416ZM709.964 217.736C711.468 217.736 712.22 216.696 712.22 215.496C712.22 214.312 711.468 213.32 709.964 213.32C708.444 213.32 707.676 214.328 707.676 215.496C707.676 216.68 708.444 217.736 709.964 217.736ZM719.013 212.392C720.117 212.392 720.917 213.128 720.917 214.568V215.4L719.925 215.592V214.76C719.925 213.912 719.637 213.352 718.773 213.352C717.797 213.352 717.061 214.072 717.061 215.784V221H715.973V212.52H717.061V213.576C717.509 212.776 718.261 212.392 719.013 212.392ZM728.702 221H727.71C727.582 220.536 727.486 219.976 727.486 219.336C727.054 220.328 725.95 221.128 724.574 221.128C723.07 221.128 721.934 220.152 721.934 218.696C721.934 216.952 723.502 216.04 725.246 216.04C725.934 216.04 726.606 216.12 727.294 216.36V215.24C727.294 214.136 726.622 213.384 725.31 213.384C724.254 213.384 723.358 213.848 722.91 215.144L721.95 214.856C722.59 213.064 723.886 212.392 725.374 212.392C727.47 212.392 728.35 213.656 728.35 215.112V218.6C728.35 219.56 728.51 220.424 728.702 221ZM727.294 217.48V217.288C726.638 217.016 725.966 216.936 725.31 216.936C724.03 216.936 723.022 217.512 723.022 218.632C723.022 219.656 723.742 220.2 724.766 220.2C725.87 220.2 727.294 219.544 727.294 217.48ZM739.349 212.392C740.965 212.392 741.909 213.416 741.909 215.176V221H740.821V215.336C740.821 213.96 740.165 213.384 739.061 213.384C737.573 213.384 736.949 214.536 736.949 216.232V221H735.861V215.336C735.861 213.96 735.205 213.384 734.101 213.384C732.613 213.384 731.989 214.536 731.989 216.232V221H730.901V212.52H731.989V213.848C732.501 212.904 733.397 212.392 734.389 212.392C735.653 212.392 736.501 213.016 736.805 214.12C737.285 213 738.261 212.392 739.349 212.392Z" fill="#2A2859"/>
<rect x="640" y="244" width="22" height="22" rx="11" stroke="#2A2859" stroke-width="2"/>
<path d="M673.528 259.944H679.032V261H672.408V249.16H673.528V259.944ZM681.423 250.984C680.895 250.984 680.463 250.568 680.463 250.024C680.463 249.48 680.895 249.064 681.423 249.064C681.951 249.064 682.383 249.48 682.383 250.024C682.383 250.568 681.951 250.984 681.423 250.984ZM680.879 261V252.52H681.967V261H680.879ZM688.075 252.392C689.771 252.392 690.763 253.432 690.763 255.336V261H689.675V255.496C689.675 253.96 688.971 253.384 687.787 253.384C686.299 253.384 685.611 254.536 685.611 256.232V261H684.523V252.52H685.611V253.832C686.123 252.904 687.051 252.392 688.075 252.392ZM698.462 261L695.342 256.792L694.302 257.784V261H693.214V249.16H694.302V256.504L698.334 252.52H699.774L696.078 256.072L699.838 261H698.462ZM706.618 258.6L707.418 259.048C707.018 260.072 705.962 261.128 704.074 261.128C701.69 261.128 700.282 259.352 700.282 256.648C700.282 254.168 701.754 252.392 703.962 252.392C705.786 252.392 707.354 253.704 707.354 256.008L707.322 256.952H701.386C701.482 259.208 702.554 260.168 704.186 260.168C705.466 260.168 706.218 259.432 706.618 258.6ZM703.962 253.352C702.682 253.352 701.53 254.04 701.386 256.056H706.282C706.33 254.152 705.21 253.352 703.962 253.352ZM715.31 249.16H716.398V261H715.31V259.416C714.75 260.504 713.63 261.112 712.526 261.112C710.366 261.112 708.91 259.304 708.91 256.84C708.91 254.232 710.382 252.392 712.654 252.392C713.838 252.392 714.798 252.984 715.31 254.056V249.16ZM712.638 260.152C714.334 260.152 715.31 258.888 715.31 256.808C715.31 254.6 714.35 253.352 712.654 253.352C711.07 253.352 710.03 254.568 710.03 256.792C710.03 258.936 711.07 260.152 712.638 260.152ZM718.911 261V249.16H720.031V261H718.911ZM726.169 252.392C727.865 252.392 728.857 253.432 728.857 255.336V261H727.769V255.496C727.769 253.96 727.065 253.384 725.881 253.384C724.393 253.384 723.705 254.536 723.705 256.232V261H722.617V252.52H723.705V253.832C724.217 252.904 725.145 252.392 726.169 252.392Z" fill="#2A2859"/>
<rect x="640" y="284" width="22" height="22" rx="11" stroke="#2A2859" stroke-width="2"/>
<path d="M672.184 292.296C672.184 290.312 673.992 289.032 676.088 289.032C678.024 289.032 679.336 289.864 679.928 291.352L678.872 291.784C678.392 290.648 677.32 290.024 676.088 290.024C674.456 290.024 673.304 290.856 673.304 292.168C673.304 293.272 673.96 293.944 675.352 294.216L677.208 294.568C679.032 294.92 680.376 295.896 680.376 297.672C680.376 299.496 678.84 301.128 676.248 301.128C674.2 301.128 672.664 300.424 671.832 298.664L672.856 298.248C673.656 299.816 674.984 300.136 676.28 300.136C678.216 300.136 679.256 299.016 679.256 297.736C679.256 296.312 678.296 295.896 676.856 295.624L675.16 295.304C673.512 295 672.184 294.088 672.184 292.296ZM686.103 292.392C687.799 292.392 688.791 293.432 688.791 295.336V301H687.703V295.496C687.703 293.96 686.999 293.384 685.815 293.384C684.327 293.384 683.639 294.536 683.639 296.232V301H682.551V292.52H683.639V293.832C684.151 292.904 685.079 292.392 686.103 292.392ZM697.53 301H696.538C696.41 300.536 696.314 299.976 696.314 299.336C695.882 300.328 694.778 301.128 693.402 301.128C691.898 301.128 690.762 300.152 690.762 298.696C690.762 296.952 692.33 296.04 694.074 296.04C694.762 296.04 695.434 296.12 696.122 296.36V295.24C696.122 294.136 695.45 293.384 694.138 293.384C693.082 293.384 692.186 293.848 691.738 295.144L690.778 294.856C691.418 293.064 692.714 292.392 694.202 292.392C696.298 292.392 697.178 293.656 697.178 295.112V298.6C697.178 299.56 697.338 300.424 697.53 301ZM696.122 297.48V297.288C695.466 297.016 694.794 296.936 694.138 296.936C692.858 296.936 691.85 297.512 691.85 298.632C691.85 299.656 692.57 300.2 693.594 300.2C694.698 300.2 696.122 299.544 696.122 297.48ZM703.601 292.408C705.761 292.408 707.217 294.216 707.217 296.68C707.217 299.288 705.745 301.128 703.473 301.128C702.289 301.128 701.329 300.536 700.817 299.464V304.36H699.729V292.52H700.817V294.104C701.377 293.016 702.497 292.408 703.601 292.408ZM703.473 300.168C705.057 300.168 706.097 298.952 706.097 296.728C706.097 294.584 705.057 293.368 703.489 293.368C701.793 293.368 700.817 294.632 700.817 296.712C700.817 298.92 701.777 300.168 703.473 300.168ZM714.896 295.048C714.544 293.992 713.696 293.352 712.592 293.352C710.912 293.352 709.808 294.648 709.808 296.648C709.808 298.84 710.912 300.168 712.72 300.168C713.84 300.168 714.736 299.512 715.184 298.408L715.984 298.856C715.472 300.264 714.16 301.128 712.688 301.128C710.24 301.128 708.688 299.352 708.688 296.648C708.688 294.184 710.352 292.392 712.624 292.392C714.288 292.392 715.488 293.384 715.824 294.728L714.896 295.048ZM721.507 292.392C723.203 292.392 724.195 293.432 724.195 295.336V301H723.107V295.496C723.107 293.96 722.403 293.384 721.219 293.384C719.731 293.384 719.043 294.536 719.043 296.232V301H717.955V289.16H719.043V293.832C719.555 292.904 720.483 292.392 721.507 292.392ZM732.933 301H731.941C731.813 300.536 731.717 299.976 731.717 299.336C731.285 300.328 730.181 301.128 728.805 301.128C727.301 301.128 726.165 300.152 726.165 298.696C726.165 296.952 727.733 296.04 729.477 296.04C730.165 296.04 730.837 296.12 731.525 296.36V295.24C731.525 294.136 730.853 293.384 729.541 293.384C728.485 293.384 727.589 293.848 727.141 295.144L726.181 294.856C726.821 293.064 728.117 292.392 729.605 292.392C731.701 292.392 732.581 293.656 732.581 295.112V298.6C732.581 299.56 732.741 300.424 732.933 301ZM731.525 297.48V297.288C730.869 297.016 730.197 296.936 729.541 296.936C728.261 296.936 727.253 297.512 727.253 298.632C727.253 299.656 727.973 300.2 728.997 300.2C730.101 300.2 731.525 299.544 731.525 297.48ZM736.672 298.888C736.672 299.88 737.264 300.168 737.792 300.168C738.304 300.168 738.64 299.976 739.04 299.56L739.616 300.2C739.056 300.856 738.448 301.128 737.696 301.128C736.544 301.128 735.584 300.36 735.584 298.856V293.416H733.984V292.52H735.584V290.696L736.672 290.056V292.52H739.424V293.416H736.672V298.888Z" fill="#2A2859"/>
</g>
<defs>
<clipPath id="clip0_5863_7145">
<rect width="1116" height="387" fill="white"/>
</clipPath>
</defs>
</svg>
