<svg width="898" height="344" viewBox="0 0 898 344" fill="none" xmlns="http://www.w3.org/2000/svg">
<rect width="898" height="344" fill="white"/>
<path d="M121.672 104.056H128.152V106H119.566V92.68H128.044V94.624H121.672V98.35H126.586V100.294H121.672V104.056ZM132.487 103.048C132.487 104.11 133.135 104.434 133.801 104.434C134.323 104.434 134.737 104.218 135.151 103.804L136.015 105.1C135.295 105.82 134.503 106.162 133.477 106.162C131.821 106.162 130.471 105.154 130.471 103.174V98.026H128.797V96.46H130.471V94.336L132.487 93.418V96.46H135.853V98.026H132.487V103.048ZM138.769 94.876C137.977 94.876 137.347 94.264 137.347 93.454C137.347 92.644 137.977 92.032 138.769 92.032C139.561 92.032 140.173 92.644 140.173 93.454C140.173 94.264 139.561 94.876 138.769 94.876ZM137.761 106V96.46H139.777V106H137.761ZM148.671 106L145.773 101.626L144.675 102.706V106H142.659V92.68H144.675V100.42L148.527 96.46H151.011L147.105 100.312L151.083 106H148.671ZM158.679 102.994L160.047 103.786C159.507 104.974 158.247 106.162 156.069 106.162C153.243 106.162 151.533 104.074 151.533 101.14C151.533 98.242 153.387 96.244 155.925 96.244C158.175 96.244 160.029 97.756 160.029 100.456L159.993 101.644H153.513C153.621 103.66 154.611 104.524 156.195 104.524C157.365 104.524 158.175 103.894 158.679 102.994ZM155.925 97.828C154.701 97.828 153.675 98.476 153.513 100.204H158.067C158.085 98.512 157.041 97.828 155.925 97.828ZM164.84 103.048C164.84 104.11 165.488 104.434 166.154 104.434C166.676 104.434 167.09 104.218 167.504 103.804L168.368 105.1C167.648 105.82 166.856 106.162 165.83 106.162C164.174 106.162 162.824 105.154 162.824 103.174V98.026H161.15V96.46H162.824V94.336L164.84 93.418V96.46H168.206V98.026H164.84V103.048ZM172.655 103.048C172.655 104.11 173.303 104.434 173.969 104.434C174.491 104.434 174.905 104.218 175.319 103.804L176.183 105.1C175.463 105.82 174.671 106.162 173.645 106.162C171.989 106.162 170.639 105.154 170.639 103.174V98.026H168.965V96.46H170.639V94.336L172.655 93.418V96.46H176.021V98.026H172.655V103.048Z" fill="#2A2859"/>
<rect x="119" y="131" width="22" height="22" rx="11" stroke="#2A2859" stroke-width="2"/>
<path d="M152.528 146.944H158.032V148H151.408V136.16H152.528V146.944ZM165.715 148H164.723C164.595 147.536 164.499 146.976 164.499 146.336C164.067 147.328 162.963 148.128 161.587 148.128C160.083 148.128 158.947 147.152 158.947 145.696C158.947 143.952 160.515 143.04 162.259 143.04C162.947 143.04 163.619 143.12 164.307 143.36V142.24C164.307 141.136 163.635 140.384 162.323 140.384C161.267 140.384 160.371 140.848 159.923 142.144L158.963 141.856C159.603 140.064 160.899 139.392 162.387 139.392C164.483 139.392 165.363 140.656 165.363 142.112V145.6C165.363 146.56 165.523 147.424 165.715 148ZM164.307 144.48V144.288C163.651 144.016 162.979 143.936 162.323 143.936C161.043 143.936 160.035 144.512 160.035 145.632C160.035 146.656 160.755 147.2 161.779 147.2C162.883 147.2 164.307 146.544 164.307 144.48ZM171.818 139.408C173.978 139.408 175.434 141.216 175.434 143.68C175.434 146.288 173.962 148.128 171.69 148.128C170.506 148.128 169.546 147.536 169.034 146.464V148H167.946V136.16H169.034V141.104C169.594 140.016 170.714 139.408 171.818 139.408ZM171.69 147.168C173.274 147.168 174.314 145.952 174.314 143.728C174.314 141.584 173.274 140.368 171.706 140.368C170.01 140.368 169.034 141.632 169.034 143.712C169.034 145.92 169.994 147.168 171.69 147.168ZM183.24 145.6L184.04 146.048C183.64 147.072 182.584 148.128 180.696 148.128C178.312 148.128 176.904 146.352 176.904 143.648C176.904 141.168 178.376 139.392 180.584 139.392C182.408 139.392 183.976 140.704 183.976 143.008L183.944 143.952H178.008C178.104 146.208 179.176 147.168 180.808 147.168C182.088 147.168 182.84 146.432 183.24 145.6ZM180.584 140.352C179.304 140.352 178.152 141.04 178.008 143.056H182.904C182.952 141.152 181.832 140.352 180.584 140.352ZM188.732 147.968C188.476 148.032 188.268 148.064 188.028 148.064C186.7 148.064 186.076 147.232 186.076 145.984V136.16H187.164V145.984C187.164 146.704 187.548 147.072 188.22 147.072C188.396 147.072 188.572 147.056 188.732 147.008V147.968ZM198.874 147.072H201.498V148H195.034V147.072H197.786V137.408L195.194 139.2V138.016L197.85 136.16H198.874V147.072Z" fill="#2A2859"/>
<rect x="119" y="171" width="22" height="22" rx="11" stroke="#2A2859" stroke-width="2"/>
<path d="M152.528 186.944H158.032V188H151.408V176.16H152.528V186.944ZM165.715 188H164.723C164.595 187.536 164.499 186.976 164.499 186.336C164.067 187.328 162.963 188.128 161.587 188.128C160.083 188.128 158.947 187.152 158.947 185.696C158.947 183.952 160.515 183.04 162.259 183.04C162.947 183.04 163.619 183.12 164.307 183.36V182.24C164.307 181.136 163.635 180.384 162.323 180.384C161.267 180.384 160.371 180.848 159.923 182.144L158.963 181.856C159.603 180.064 160.899 179.392 162.387 179.392C164.483 179.392 165.363 180.656 165.363 182.112V185.6C165.363 186.56 165.523 187.424 165.715 188ZM164.307 184.48V184.288C163.651 184.016 162.979 183.936 162.323 183.936C161.043 183.936 160.035 184.512 160.035 185.632C160.035 186.656 160.755 187.2 161.779 187.2C162.883 187.2 164.307 186.544 164.307 184.48ZM171.818 179.408C173.978 179.408 175.434 181.216 175.434 183.68C175.434 186.288 173.962 188.128 171.69 188.128C170.506 188.128 169.546 187.536 169.034 186.464V188H167.946V176.16H169.034V181.104C169.594 180.016 170.714 179.408 171.818 179.408ZM171.69 187.168C173.274 187.168 174.314 185.952 174.314 183.728C174.314 181.584 173.274 180.368 171.706 180.368C170.01 180.368 169.034 181.632 169.034 183.712C169.034 185.92 169.994 187.168 171.69 187.168ZM183.24 185.6L184.04 186.048C183.64 187.072 182.584 188.128 180.696 188.128C178.312 188.128 176.904 186.352 176.904 183.648C176.904 181.168 178.376 179.392 180.584 179.392C182.408 179.392 183.976 180.704 183.976 183.008L183.944 183.952H178.008C178.104 186.208 179.176 187.168 180.808 187.168C182.088 187.168 182.84 186.432 183.24 185.6ZM180.584 180.352C179.304 180.352 178.152 181.04 178.008 183.056H182.904C182.952 181.152 181.832 180.352 180.584 180.352ZM188.732 187.968C188.476 188.032 188.268 188.064 188.028 188.064C186.7 188.064 186.076 187.232 186.076 185.984V176.16H187.164V185.984C187.164 186.704 187.548 187.072 188.22 187.072C188.396 187.072 188.572 187.056 188.732 187.008V187.968ZM195.946 186.976H202.186V188H194.442V187.168L198.698 182.432C199.962 181.04 200.49 180.272 200.49 179.2C200.49 178 199.69 177.024 198.122 177.024C196.906 177.024 195.866 177.568 195.338 179.056L194.346 178.72C195.114 176.768 196.49 176.032 198.17 176.032C200.458 176.032 201.61 177.6 201.61 179.104C201.61 180.416 201.114 181.296 199.45 183.136L195.946 186.976ZM209.491 186.944H214.995V188H208.371V176.16H209.491V186.944ZM219.589 188.128C217.493 188.128 215.813 186.4 215.813 183.744C215.813 181.12 217.477 179.392 219.589 179.392C221.701 179.392 223.365 181.12 223.365 183.744C223.365 186.4 221.685 188.128 219.589 188.128ZM219.589 187.168C221.045 187.168 222.245 186.016 222.245 183.744C222.245 181.488 221.029 180.352 219.589 180.352C218.149 180.352 216.933 181.488 216.933 183.744C216.933 186.016 218.133 187.168 219.589 187.168ZM228.416 179.392C229.52 179.392 230.32 180.128 230.32 181.568V182.4L229.328 182.592V181.76C229.328 180.912 229.04 180.352 228.176 180.352C227.2 180.352 226.464 181.072 226.464 182.784V188H225.376V179.52H226.464V180.576C226.912 179.776 227.664 179.392 228.416 179.392ZM237.577 185.6L238.377 186.048C237.977 187.072 236.921 188.128 235.033 188.128C232.649 188.128 231.241 186.352 231.241 183.648C231.241 181.168 232.713 179.392 234.921 179.392C236.745 179.392 238.313 180.704 238.313 183.008L238.281 183.952H232.345C232.441 186.208 233.513 187.168 235.145 187.168C236.425 187.168 237.177 186.432 237.577 185.6ZM234.921 180.352C233.641 180.352 232.489 181.04 232.345 183.056H237.241C237.289 181.152 236.169 180.352 234.921 180.352ZM248.861 179.392C250.477 179.392 251.421 180.416 251.421 182.176V188H250.333V182.336C250.333 180.96 249.677 180.384 248.573 180.384C247.085 180.384 246.461 181.536 246.461 183.232V188H245.373V182.336C245.373 180.96 244.717 180.384 243.613 180.384C242.125 180.384 241.501 181.536 241.501 183.232V188H240.413V179.52H241.501V180.848C242.013 179.904 242.909 179.392 243.901 179.392C245.165 179.392 246.013 180.016 246.317 181.12C246.797 180 247.773 179.392 248.861 179.392ZM258.276 177.984C257.748 177.984 257.316 177.568 257.316 177.024C257.316 176.48 257.748 176.064 258.276 176.064C258.804 176.064 259.236 176.48 259.236 177.024C259.236 177.568 258.804 177.984 258.276 177.984ZM257.732 188V179.52H258.82V188H257.732ZM265.248 179.408C267.408 179.408 268.864 181.216 268.864 183.68C268.864 186.288 267.392 188.128 265.12 188.128C263.936 188.128 262.976 187.536 262.464 186.464V191.36H261.376V179.52H262.464V181.104C263.024 180.016 264.144 179.408 265.248 179.408ZM265.12 187.168C266.704 187.168 267.744 185.952 267.744 183.728C267.744 181.584 266.704 180.368 265.136 180.368C263.44 180.368 262.464 181.632 262.464 183.712C262.464 185.92 263.424 187.168 265.12 187.168ZM270.463 181.728C270.463 180.384 271.727 179.392 273.503 179.392C275.039 179.392 276.223 180.128 276.575 181.248L275.679 181.6C275.343 180.784 274.559 180.352 273.471 180.352C272.287 180.352 271.519 180.848 271.519 181.632C271.519 182.336 271.983 182.768 272.991 182.976L274.111 183.2C275.967 183.568 276.831 184.368 276.831 185.632C276.831 187.104 275.519 188.128 273.631 188.128C271.919 188.128 270.719 187.456 270.143 186.176L271.071 185.792C271.471 186.688 272.351 187.168 273.599 187.168C274.911 187.168 275.775 186.592 275.775 185.728C275.775 184.928 275.327 184.496 274.207 184.256L272.831 183.968C271.279 183.648 270.463 182.864 270.463 181.728ZM283.545 179.52H284.633V188H283.545V186.704C283.033 187.616 282.137 188.128 281.097 188.128C279.433 188.128 278.425 187.056 278.425 185.216V179.52H279.513V185.12C279.513 186.512 280.217 187.152 281.401 187.152C282.905 187.152 283.545 185.952 283.545 184.288V179.52ZM295.568 179.392C297.184 179.392 298.128 180.416 298.128 182.176V188H297.04V182.336C297.04 180.96 296.384 180.384 295.28 180.384C293.792 180.384 293.168 181.536 293.168 183.232V188H292.08V182.336C292.08 180.96 291.424 180.384 290.32 180.384C288.832 180.384 288.208 181.536 288.208 183.232V188H287.12V179.52H288.208V180.848C288.72 179.904 289.616 179.392 290.608 179.392C291.872 179.392 292.72 180.016 293.024 181.12C293.504 180 294.48 179.392 295.568 179.392ZM310.295 176.16H311.383V188H310.295V186.416C309.735 187.504 308.615 188.112 307.511 188.112C305.351 188.112 303.895 186.304 303.895 183.84C303.895 181.232 305.367 179.392 307.639 179.392C308.823 179.392 309.783 179.984 310.295 181.056V176.16ZM307.623 187.152C309.319 187.152 310.295 185.888 310.295 183.808C310.295 181.6 309.335 180.352 307.639 180.352C306.055 180.352 305.015 181.568 305.015 183.792C305.015 185.936 306.055 187.152 307.623 187.152ZM317.096 188.128C315 188.128 313.32 186.4 313.32 183.744C313.32 181.12 314.984 179.392 317.096 179.392C319.208 179.392 320.872 181.12 320.872 183.744C320.872 186.4 319.192 188.128 317.096 188.128ZM317.096 187.168C318.552 187.168 319.752 186.016 319.752 183.744C319.752 181.488 318.536 180.352 317.096 180.352C315.656 180.352 314.44 181.488 314.44 183.744C314.44 186.016 315.64 187.168 317.096 187.168ZM325.538 187.968C325.282 188.032 325.074 188.064 324.834 188.064C323.506 188.064 322.882 187.232 322.882 185.984V176.16H323.97V185.984C323.97 186.704 324.354 187.072 325.026 187.072C325.202 187.072 325.378 187.056 325.538 187.008V187.968ZM330.305 188.128C328.209 188.128 326.529 186.4 326.529 183.744C326.529 181.12 328.193 179.392 330.305 179.392C332.417 179.392 334.081 181.12 334.081 183.744C334.081 186.4 332.401 188.128 330.305 188.128ZM330.305 187.168C331.761 187.168 332.961 186.016 332.961 183.744C332.961 181.488 331.745 180.352 330.305 180.352C328.865 180.352 327.649 181.488 327.649 183.744C327.649 186.016 328.849 187.168 330.305 187.168ZM339.132 179.392C340.236 179.392 341.036 180.128 341.036 181.568V182.4L340.044 182.592V181.76C340.044 180.912 339.756 180.352 338.892 180.352C337.916 180.352 337.18 181.072 337.18 182.784V188H336.092V179.52H337.18V180.576C337.628 179.776 338.38 179.392 339.132 179.392ZM346.463 181.728C346.463 180.384 347.727 179.392 349.503 179.392C351.039 179.392 352.223 180.128 352.575 181.248L351.679 181.6C351.343 180.784 350.559 180.352 349.471 180.352C348.287 180.352 347.519 180.848 347.519 181.632C347.519 182.336 347.983 182.768 348.991 182.976L350.111 183.2C351.967 183.568 352.831 184.368 352.831 185.632C352.831 187.104 351.519 188.128 349.631 188.128C347.919 188.128 346.719 187.456 346.143 186.176L347.071 185.792C347.471 186.688 348.351 187.168 349.599 187.168C350.911 187.168 351.775 186.592 351.775 185.728C351.775 184.928 351.327 184.496 350.207 184.256L348.831 183.968C347.279 183.648 346.463 182.864 346.463 181.728ZM354.485 176.224H356.149V177.856H354.485V176.224ZM354.773 188V179.52H355.861V188H354.773ZM360.113 185.888C360.113 186.88 360.705 187.168 361.233 187.168C361.745 187.168 362.081 186.976 362.481 186.56L363.057 187.2C362.497 187.856 361.889 188.128 361.137 188.128C359.985 188.128 359.025 187.36 359.025 185.856V180.416H357.425V179.52H359.025V177.696L360.113 177.056V179.52H362.865V180.416H360.113V185.888ZM374.93 188H373.938C373.81 187.536 373.714 186.976 373.714 186.336C373.282 187.328 372.178 188.128 370.802 188.128C369.298 188.128 368.162 187.152 368.162 185.696C368.162 183.952 369.73 183.04 371.474 183.04C372.162 183.04 372.834 183.12 373.522 183.36V182.24C373.522 181.136 372.85 180.384 371.538 180.384C370.482 180.384 369.586 180.848 369.138 182.144L368.178 181.856C368.818 180.064 370.114 179.392 371.602 179.392C373.698 179.392 374.578 180.656 374.578 182.112V185.6C374.578 186.56 374.738 187.424 374.93 188ZM373.522 184.48V184.288C372.866 184.016 372.194 183.936 371.538 183.936C370.258 183.936 369.25 184.512 369.25 185.632C369.25 186.656 369.97 187.2 370.994 187.2C372.098 187.2 373.522 186.544 373.522 184.48ZM385.577 179.392C387.193 179.392 388.137 180.416 388.137 182.176V188H387.049V182.336C387.049 180.96 386.393 180.384 385.289 180.384C383.801 180.384 383.177 181.536 383.177 183.232V188H382.089V182.336C382.089 180.96 381.433 180.384 380.329 180.384C378.841 180.384 378.217 181.536 378.217 183.232V188H377.129V179.52H378.217V180.848C378.729 179.904 379.625 179.392 380.617 179.392C381.881 179.392 382.729 180.016 383.033 181.12C383.513 180 384.489 179.392 385.577 179.392ZM396.346 185.6L397.146 186.048C396.746 187.072 395.69 188.128 393.802 188.128C391.418 188.128 390.01 186.352 390.01 183.648C390.01 181.168 391.482 179.392 393.69 179.392C395.514 179.392 397.082 180.704 397.082 183.008L397.05 183.952H391.114C391.21 186.208 392.282 187.168 393.914 187.168C395.194 187.168 395.946 186.432 396.346 185.6ZM393.69 180.352C392.41 180.352 391.258 181.04 391.114 183.056H396.01C396.058 181.152 394.938 180.352 393.69 180.352ZM400.722 185.888C400.722 186.88 401.314 187.168 401.842 187.168C402.354 187.168 402.69 186.976 403.09 186.56L403.666 187.2C403.106 187.856 402.498 188.128 401.746 188.128C400.594 188.128 399.634 187.36 399.634 185.856V180.416H398.034V179.52H399.634V177.696L400.722 177.056V179.52H403.474V180.416H400.722V185.888ZM406.062 186.08C406.734 186.08 407.246 186.656 407.246 187.744C407.246 188.8 406.814 189.856 405.422 190.944L405.038 190.496C405.79 189.824 406.51 189.152 406.382 188.032C406.302 188.048 406.19 188.064 406.062 188.064C405.486 188.064 405.038 187.696 405.038 187.072C405.038 186.512 405.47 186.08 406.062 186.08ZM157.04 206.048C156.688 204.992 155.84 204.352 154.736 204.352C153.056 204.352 151.952 205.648 151.952 207.648C151.952 209.84 153.056 211.168 154.864 211.168C155.984 211.168 156.88 210.512 157.328 209.408L158.128 209.856C157.616 211.264 156.304 212.128 154.832 212.128C152.384 212.128 150.832 210.352 150.832 207.648C150.832 205.184 152.496 203.392 154.768 203.392C156.432 203.392 157.632 204.384 157.968 205.728L157.04 206.048ZM162.986 212.128C160.89 212.128 159.21 210.4 159.21 207.744C159.21 205.12 160.874 203.392 162.986 203.392C165.098 203.392 166.762 205.12 166.762 207.744C166.762 210.4 165.082 212.128 162.986 212.128ZM162.986 211.168C164.442 211.168 165.642 210.016 165.642 207.744C165.642 205.488 164.426 204.352 162.986 204.352C161.546 204.352 160.33 205.488 160.33 207.744C160.33 210.016 161.53 211.168 162.986 211.168ZM172.325 203.392C174.021 203.392 175.013 204.432 175.013 206.336V212H173.925V206.496C173.925 204.96 173.221 204.384 172.037 204.384C170.549 204.384 169.861 205.536 169.861 207.232V212H168.773V203.52H169.861V204.832C170.373 203.904 171.301 203.392 172.325 203.392ZM177.016 205.728C177.016 204.384 178.28 203.392 180.056 203.392C181.592 203.392 182.776 204.128 183.128 205.248L182.232 205.6C181.896 204.784 181.112 204.352 180.024 204.352C178.84 204.352 178.072 204.848 178.072 205.632C178.072 206.336 178.536 206.768 179.544 206.976L180.664 207.2C182.52 207.568 183.384 208.368 183.384 209.632C183.384 211.104 182.072 212.128 180.184 212.128C178.472 212.128 177.272 211.456 176.696 210.176L177.624 209.792C178.024 210.688 178.904 211.168 180.152 211.168C181.464 211.168 182.328 210.592 182.328 209.728C182.328 208.928 181.88 208.496 180.76 208.256L179.384 207.968C177.832 207.648 177.016 206.864 177.016 205.728ZM191.118 209.6L191.918 210.048C191.518 211.072 190.462 212.128 188.574 212.128C186.19 212.128 184.782 210.352 184.782 207.648C184.782 205.168 186.254 203.392 188.462 203.392C190.286 203.392 191.854 204.704 191.854 207.008L191.822 207.952H185.886C185.982 210.208 187.054 211.168 188.686 211.168C189.966 211.168 190.718 210.432 191.118 209.6ZM188.462 204.352C187.182 204.352 186.03 205.04 185.886 207.056H190.782C190.83 205.152 189.71 204.352 188.462 204.352ZM199.618 206.048C199.266 204.992 198.418 204.352 197.314 204.352C195.634 204.352 194.53 205.648 194.53 207.648C194.53 209.84 195.634 211.168 197.442 211.168C198.562 211.168 199.458 210.512 199.906 209.408L200.706 209.856C200.194 211.264 198.882 212.128 197.41 212.128C194.962 212.128 193.41 210.352 193.41 207.648C193.41 205.184 195.074 203.392 197.346 203.392C199.01 203.392 200.21 204.384 200.546 205.728L199.618 206.048ZM204.341 209.888C204.341 210.88 204.933 211.168 205.461 211.168C205.973 211.168 206.309 210.976 206.709 210.56L207.285 211.2C206.725 211.856 206.117 212.128 205.365 212.128C204.213 212.128 203.253 211.36 203.253 209.856V204.416H201.653V203.52H203.253V201.696L204.341 201.056V203.52H207.093V204.416H204.341V209.888ZM214.252 209.6L215.052 210.048C214.652 211.072 213.596 212.128 211.708 212.128C209.324 212.128 207.916 210.352 207.916 207.648C207.916 205.168 209.388 203.392 211.596 203.392C213.42 203.392 214.988 204.704 214.988 207.008L214.956 207.952H209.02C209.116 210.208 210.188 211.168 211.82 211.168C213.1 211.168 213.852 210.432 214.252 209.6ZM211.596 204.352C210.316 204.352 209.164 205.04 209.02 207.056H213.916C213.964 205.152 212.844 204.352 211.596 204.352ZM218.628 209.888C218.628 210.88 219.22 211.168 219.748 211.168C220.26 211.168 220.596 210.976 220.996 210.56L221.572 211.2C221.012 211.856 220.404 212.128 219.652 212.128C218.5 212.128 217.54 211.36 217.54 209.856V204.416H215.94V203.52H217.54V201.696L218.628 201.056V203.52H221.38V204.416H218.628V209.888ZM228.004 203.52H229.092V212H228.004V210.704C227.492 211.616 226.596 212.128 225.556 212.128C223.892 212.128 222.884 211.056 222.884 209.216V203.52H223.972V209.12C223.972 210.512 224.676 211.152 225.86 211.152C227.364 211.152 228.004 209.952 228.004 208.288V203.52ZM234.619 203.392C235.723 203.392 236.523 204.128 236.523 205.568V206.4L235.531 206.592V205.76C235.531 204.912 235.243 204.352 234.379 204.352C233.403 204.352 232.667 205.072 232.667 206.784V212H231.579V203.52H232.667V204.576C233.115 203.776 233.867 203.392 234.619 203.392ZM248.159 209.6L248.959 210.048C248.559 211.072 247.503 212.128 245.615 212.128C243.231 212.128 241.823 210.352 241.823 207.648C241.823 205.168 243.295 203.392 245.503 203.392C247.327 203.392 248.895 204.704 248.895 207.008L248.863 207.952H242.927C243.023 210.208 244.095 211.168 245.727 211.168C247.007 211.168 247.759 210.432 248.159 209.6ZM245.503 204.352C244.223 204.352 243.071 205.04 242.927 207.056H247.823C247.871 205.152 246.751 204.352 245.503 204.352ZM253.651 211.968C253.395 212.032 253.187 212.064 252.947 212.064C251.619 212.064 250.995 211.232 250.995 209.984V200.16H252.083V209.984C252.083 210.704 252.467 211.072 253.139 211.072C253.315 211.072 253.491 211.056 253.651 211.008V211.968ZM256.975 209.888C256.975 210.88 257.567 211.168 258.095 211.168C258.607 211.168 258.943 210.976 259.343 210.56L259.919 211.2C259.359 211.856 258.751 212.128 257.999 212.128C256.847 212.128 255.887 211.36 255.887 209.856V204.416H254.287V203.52H255.887V201.696L256.975 201.056V203.52H259.727V204.416H256.975V209.888ZM265.057 205.728C265.057 204.384 266.321 203.392 268.097 203.392C269.633 203.392 270.817 204.128 271.169 205.248L270.273 205.6C269.937 204.784 269.153 204.352 268.065 204.352C266.881 204.352 266.113 204.848 266.113 205.632C266.113 206.336 266.577 206.768 267.585 206.976L268.705 207.2C270.561 207.568 271.425 208.368 271.425 209.632C271.425 211.104 270.113 212.128 268.225 212.128C266.513 212.128 265.313 211.456 264.737 210.176L265.665 209.792C266.065 210.688 266.945 211.168 268.193 211.168C269.505 211.168 270.369 210.592 270.369 209.728C270.369 208.928 269.921 208.496 268.801 208.256L267.425 207.968C265.873 207.648 265.057 206.864 265.057 205.728ZM278.138 203.52H279.226V212H278.138V210.704C277.626 211.616 276.73 212.128 275.69 212.128C274.026 212.128 273.018 211.056 273.018 209.216V203.52H274.106V209.12C274.106 210.512 274.81 211.152 275.994 211.152C277.498 211.152 278.138 209.952 278.138 208.288V203.52ZM281.297 205.728C281.297 204.384 282.561 203.392 284.337 203.392C285.873 203.392 287.057 204.128 287.409 205.248L286.513 205.6C286.177 204.784 285.393 204.352 284.305 204.352C283.121 204.352 282.353 204.848 282.353 205.632C282.353 206.336 282.817 206.768 283.825 206.976L284.945 207.2C286.801 207.568 287.665 208.368 287.665 209.632C287.665 211.104 286.353 212.128 284.465 212.128C282.753 212.128 281.553 211.456 280.977 210.176L281.905 209.792C282.305 210.688 283.185 211.168 284.433 211.168C285.745 211.168 286.609 210.592 286.609 209.728C286.609 208.928 286.161 208.496 285.041 208.256L283.665 207.968C282.113 207.648 281.297 206.864 281.297 205.728ZM293.479 203.408C295.639 203.408 297.095 205.216 297.095 207.68C297.095 210.288 295.623 212.128 293.351 212.128C292.167 212.128 291.207 211.536 290.695 210.464V215.36H289.607V203.52H290.695V205.104C291.255 204.016 292.375 203.408 293.479 203.408ZM293.351 211.168C294.935 211.168 295.975 209.952 295.975 207.728C295.975 205.584 294.935 204.368 293.367 204.368C291.671 204.368 290.695 205.632 290.695 207.712C290.695 209.92 291.655 211.168 293.351 211.168ZM304.902 209.6L305.702 210.048C305.302 211.072 304.246 212.128 302.358 212.128C299.974 212.128 298.566 210.352 298.566 207.648C298.566 205.168 300.038 203.392 302.246 203.392C304.07 203.392 305.638 204.704 305.638 207.008L305.606 207.952H299.67C299.766 210.208 300.838 211.168 302.47 211.168C303.75 211.168 304.502 210.432 304.902 209.6ZM302.246 204.352C300.966 204.352 299.814 205.04 299.67 207.056H304.566C304.614 205.152 303.494 204.352 302.246 204.352ZM311.291 203.392C312.987 203.392 313.979 204.432 313.979 206.336V212H312.891V206.496C312.891 204.96 312.187 204.384 311.003 204.384C309.515 204.384 308.827 205.536 308.827 207.232V212H307.739V203.52H308.827V204.832C309.339 203.904 310.267 203.392 311.291 203.392ZM322.254 200.16H323.342V212H322.254V210.416C321.694 211.504 320.574 212.112 319.47 212.112C317.31 212.112 315.854 210.304 315.854 207.84C315.854 205.232 317.326 203.392 319.598 203.392C320.782 203.392 321.742 203.984 322.254 205.056V200.16ZM319.582 211.152C321.278 211.152 322.254 209.888 322.254 207.808C322.254 205.6 321.294 204.352 319.598 204.352C318.014 204.352 316.974 205.568 316.974 207.792C316.974 209.936 318.014 211.152 319.582 211.152ZM326.367 201.984C325.839 201.984 325.407 201.568 325.407 201.024C325.407 200.48 325.839 200.064 326.367 200.064C326.895 200.064 327.327 200.48 327.327 201.024C327.327 201.568 326.895 201.984 326.367 201.984ZM325.823 212V203.52H326.911V212H325.823ZM329.051 205.728C329.051 204.384 330.315 203.392 332.091 203.392C333.627 203.392 334.811 204.128 335.163 205.248L334.267 205.6C333.931 204.784 333.147 204.352 332.059 204.352C330.875 204.352 330.107 204.848 330.107 205.632C330.107 206.336 330.571 206.768 331.579 206.976L332.699 207.2C334.555 207.568 335.419 208.368 335.419 209.632C335.419 211.104 334.107 212.128 332.219 212.128C330.507 212.128 329.307 211.456 328.731 210.176L329.659 209.792C330.059 210.688 330.939 211.168 332.187 211.168C333.499 211.168 334.363 210.592 334.363 209.728C334.363 208.928 333.915 208.496 332.795 208.256L331.419 207.968C329.867 207.648 329.051 206.864 329.051 205.728ZM336.944 205.728C336.944 204.384 338.208 203.392 339.984 203.392C341.52 203.392 342.704 204.128 343.056 205.248L342.16 205.6C341.824 204.784 341.04 204.352 339.952 204.352C338.768 204.352 338 204.848 338 205.632C338 206.336 338.464 206.768 339.472 206.976L340.592 207.2C342.448 207.568 343.312 208.368 343.312 209.632C343.312 211.104 342 212.128 340.112 212.128C338.4 212.128 337.2 211.456 336.624 210.176L337.552 209.792C337.952 210.688 338.832 211.168 340.08 211.168C341.392 211.168 342.256 210.592 342.256 209.728C342.256 208.928 341.808 208.496 340.688 208.256L339.312 207.968C337.76 207.648 336.944 206.864 336.944 205.728ZM351.046 209.6L351.846 210.048C351.446 211.072 350.39 212.128 348.502 212.128C346.118 212.128 344.71 210.352 344.71 207.648C344.71 205.168 346.182 203.392 348.39 203.392C350.214 203.392 351.782 204.704 351.782 207.008L351.75 207.952H345.814C345.91 210.208 346.982 211.168 348.614 211.168C349.894 211.168 350.646 210.432 351.046 209.6ZM348.39 204.352C347.11 204.352 345.958 205.04 345.814 207.056H350.71C350.758 205.152 349.638 204.352 348.39 204.352Z" fill="#2A2859"/>
<rect x="119" y="235" width="22" height="22" rx="11" stroke="#2A2859" stroke-width="2"/>
<path d="M155.968 246.816L159.6 252H158.224L154.768 246.944H152.528V252H151.408V240.16H155.6C157.792 240.16 159.376 241.52 159.376 243.552C159.376 245.36 157.952 246.672 155.968 246.816ZM152.528 245.92H155.36C157.088 245.92 158.224 245.152 158.224 243.552C158.224 241.952 157.072 241.184 155.568 241.184H152.528V245.92ZM167.184 252H166.192C166.064 251.536 165.968 250.976 165.968 250.336C165.536 251.328 164.432 252.128 163.056 252.128C161.552 252.128 160.416 251.152 160.416 249.696C160.416 247.952 161.984 247.04 163.728 247.04C164.416 247.04 165.088 247.12 165.776 247.36V246.24C165.776 245.136 165.104 244.384 163.792 244.384C162.736 244.384 161.84 244.848 161.392 246.144L160.432 245.856C161.072 244.064 162.368 243.392 163.856 243.392C165.952 243.392 166.832 244.656 166.832 246.112V249.6C166.832 250.56 166.992 251.424 167.184 252ZM165.776 248.48V248.288C165.12 248.016 164.448 247.936 163.792 247.936C162.512 247.936 161.504 248.512 161.504 249.632C161.504 250.656 162.224 251.2 163.248 251.2C164.352 251.2 165.776 250.544 165.776 248.48ZM175.082 240.16H176.17V252H175.082V250.416C174.522 251.504 173.402 252.112 172.298 252.112C170.138 252.112 168.682 250.304 168.682 247.84C168.682 245.232 170.154 243.392 172.426 243.392C173.61 243.392 174.57 243.984 175.082 245.056V240.16ZM172.41 251.152C174.106 251.152 175.082 249.888 175.082 247.808C175.082 245.6 174.122 244.352 172.426 244.352C170.842 244.352 169.802 245.568 169.802 247.792C169.802 249.936 170.842 251.152 172.41 251.152ZM179.195 241.984C178.667 241.984 178.235 241.568 178.235 241.024C178.235 240.48 178.667 240.064 179.195 240.064C179.723 240.064 180.155 240.48 180.155 241.024C180.155 241.568 179.723 241.984 179.195 241.984ZM178.651 252V243.52H179.739V252H178.651ZM185.527 252.128C183.431 252.128 181.751 250.4 181.751 247.744C181.751 245.12 183.415 243.392 185.527 243.392C187.639 243.392 189.303 245.12 189.303 247.744C189.303 250.4 187.623 252.128 185.527 252.128ZM185.527 251.168C186.983 251.168 188.183 250.016 188.183 247.744C188.183 245.488 186.967 244.352 185.527 244.352C184.087 244.352 182.871 245.488 182.871 247.744C182.871 250.016 184.071 251.168 185.527 251.168ZM199.111 243.408C201.271 243.408 202.727 245.216 202.727 247.68C202.727 250.288 201.255 252.128 198.983 252.128C197.799 252.128 196.839 251.536 196.327 250.464V252H195.239V240.16H196.327V245.104C196.887 244.016 198.007 243.408 199.111 243.408ZM198.983 251.168C200.567 251.168 201.607 249.952 201.607 247.728C201.607 245.584 200.567 244.368 198.999 244.368C197.303 244.368 196.327 245.632 196.327 247.712C196.327 249.92 197.287 251.168 198.983 251.168ZM209.67 243.52H210.758V252H209.67V250.704C209.158 251.616 208.262 252.128 207.222 252.128C205.558 252.128 204.55 251.056 204.55 249.216V243.52H205.638V249.12C205.638 250.512 206.342 251.152 207.526 251.152C209.03 251.152 209.67 249.952 209.67 248.288V243.52ZM214.941 249.888C214.941 250.88 215.533 251.168 216.061 251.168C216.573 251.168 216.909 250.976 217.309 250.56L217.885 251.2C217.325 251.856 216.717 252.128 215.965 252.128C214.813 252.128 213.853 251.36 213.853 249.856V244.416H212.253V243.52H213.853V241.696L214.941 241.056V243.52H217.693V244.416H214.941V249.888ZM220.928 249.888C220.928 250.88 221.52 251.168 222.048 251.168C222.56 251.168 222.896 250.976 223.296 250.56L223.872 251.2C223.312 251.856 222.704 252.128 221.952 252.128C220.8 252.128 219.84 251.36 219.84 249.856V244.416H218.24V243.52H219.84V241.696L220.928 241.056V243.52H223.68V244.416H220.928V249.888ZM228.28 252.128C226.184 252.128 224.504 250.4 224.504 247.744C224.504 245.12 226.168 243.392 228.28 243.392C230.392 243.392 232.056 245.12 232.056 247.744C232.056 250.4 230.376 252.128 228.28 252.128ZM228.28 251.168C229.736 251.168 230.936 250.016 230.936 247.744C230.936 245.488 229.72 244.352 228.28 244.352C226.84 244.352 225.624 245.488 225.624 247.744C225.624 250.016 226.824 251.168 228.28 251.168ZM237.619 243.392C239.315 243.392 240.307 244.432 240.307 246.336V252H239.219V246.496C239.219 244.96 238.515 244.384 237.331 244.384C235.843 244.384 235.155 245.536 235.155 247.232V252H234.067V243.52H235.155V244.832C235.667 243.904 236.595 243.392 237.619 243.392Z" fill="#2A2859"/>
<line x1="460.5" y1="85" x2="460.5" y2="259" stroke="#E6E6E6"/>
<rect x="509" y="182.5" width="22" height="22" rx="11" stroke="#2A2859" stroke-width="2"/>
<path d="M545.968 194.316L549.6 199.5H548.224L544.768 194.444H542.528V199.5H541.408V187.66H545.6C547.792 187.66 549.376 189.02 549.376 191.052C549.376 192.86 547.952 194.172 545.968 194.316ZM542.528 193.42H545.36C547.088 193.42 548.224 192.652 548.224 191.052C548.224 189.452 547.072 188.684 545.568 188.684H542.528V193.42ZM557.184 199.5H556.192C556.064 199.036 555.968 198.476 555.968 197.836C555.536 198.828 554.432 199.628 553.056 199.628C551.552 199.628 550.416 198.652 550.416 197.196C550.416 195.452 551.984 194.54 553.728 194.54C554.416 194.54 555.088 194.62 555.776 194.86V193.74C555.776 192.636 555.104 191.884 553.792 191.884C552.736 191.884 551.84 192.348 551.392 193.644L550.432 193.356C551.072 191.564 552.368 190.892 553.856 190.892C555.952 190.892 556.832 192.156 556.832 193.612V197.1C556.832 198.06 556.992 198.924 557.184 199.5ZM555.776 195.98V195.788C555.12 195.516 554.448 195.436 553.792 195.436C552.512 195.436 551.504 196.012 551.504 197.132C551.504 198.156 552.224 198.7 553.248 198.7C554.352 198.7 555.776 198.044 555.776 195.98ZM565.082 187.66H566.17V199.5H565.082V197.916C564.522 199.004 563.402 199.612 562.298 199.612C560.138 199.612 558.682 197.804 558.682 195.34C558.682 192.732 560.154 190.892 562.426 190.892C563.61 190.892 564.57 191.484 565.082 192.556V187.66ZM562.41 198.652C564.106 198.652 565.082 197.388 565.082 195.308C565.082 193.1 564.122 191.852 562.426 191.852C560.842 191.852 559.802 193.068 559.802 195.292C559.802 197.436 560.842 198.652 562.41 198.652ZM569.195 189.484C568.667 189.484 568.235 189.068 568.235 188.524C568.235 187.98 568.667 187.564 569.195 187.564C569.723 187.564 570.155 187.98 570.155 188.524C570.155 189.068 569.723 189.484 569.195 189.484ZM568.651 199.5V191.02H569.739V199.5H568.651ZM575.527 199.628C573.431 199.628 571.751 197.9 571.751 195.244C571.751 192.62 573.415 190.892 575.527 190.892C577.639 190.892 579.303 192.62 579.303 195.244C579.303 197.9 577.623 199.628 575.527 199.628ZM575.527 198.668C576.983 198.668 578.183 197.516 578.183 195.244C578.183 192.988 576.967 191.852 575.527 191.852C574.087 191.852 572.871 192.988 572.871 195.244C572.871 197.516 574.071 198.668 575.527 198.668ZM589.111 190.908C591.271 190.908 592.727 192.716 592.727 195.18C592.727 197.788 591.255 199.628 588.983 199.628C587.799 199.628 586.839 199.036 586.327 197.964V199.5H585.239V187.66H586.327V192.604C586.887 191.516 588.007 190.908 589.111 190.908ZM588.983 198.668C590.567 198.668 591.607 197.452 591.607 195.228C591.607 193.084 590.567 191.868 588.999 191.868C587.303 191.868 586.327 193.132 586.327 195.212C586.327 197.42 587.287 198.668 588.983 198.668ZM599.67 191.02H600.758V199.5H599.67V198.204C599.158 199.116 598.262 199.628 597.222 199.628C595.558 199.628 594.55 198.556 594.55 196.716V191.02H595.638V196.62C595.638 198.012 596.342 198.652 597.526 198.652C599.03 198.652 599.67 197.452 599.67 195.788V191.02ZM604.941 197.388C604.941 198.38 605.533 198.668 606.061 198.668C606.573 198.668 606.909 198.476 607.309 198.06L607.885 198.7C607.325 199.356 606.717 199.628 605.965 199.628C604.813 199.628 603.853 198.86 603.853 197.356V191.916H602.253V191.02H603.853V189.196L604.941 188.556V191.02H607.693V191.916H604.941V197.388ZM610.928 197.388C610.928 198.38 611.52 198.668 612.048 198.668C612.56 198.668 612.896 198.476 613.296 198.06L613.872 198.7C613.312 199.356 612.704 199.628 611.952 199.628C610.8 199.628 609.84 198.86 609.84 197.356V191.916H608.24V191.02H609.84V189.196L610.928 188.556V191.02H613.68V191.916H610.928V197.388ZM618.28 199.628C616.184 199.628 614.504 197.9 614.504 195.244C614.504 192.62 616.168 190.892 618.28 190.892C620.392 190.892 622.056 192.62 622.056 195.244C622.056 197.9 620.376 199.628 618.28 199.628ZM618.28 198.668C619.736 198.668 620.936 197.516 620.936 195.244C620.936 192.988 619.72 191.852 618.28 191.852C616.84 191.852 615.624 192.988 615.624 195.244C615.624 197.516 616.824 198.668 618.28 198.668ZM627.619 190.892C629.315 190.892 630.307 191.932 630.307 193.836V199.5H629.219V193.996C629.219 192.46 628.515 191.884 627.331 191.884C625.843 191.884 625.155 193.036 625.155 194.732V199.5H624.067V191.02H625.155V192.332C625.667 191.404 626.595 190.892 627.619 190.892Z" fill="#2A2859"/>
<rect x="657" y="182.5" width="22" height="22" rx="11" stroke="#2A2859" stroke-width="2"/>
<path d="M693.968 194.316L697.6 199.5H696.224L692.768 194.444H690.528V199.5H689.408V187.66H693.6C695.792 187.66 697.376 189.02 697.376 191.052C697.376 192.86 695.952 194.172 693.968 194.316ZM690.528 193.42H693.36C695.088 193.42 696.224 192.652 696.224 191.052C696.224 189.452 695.072 188.684 693.568 188.684H690.528V193.42ZM705.184 199.5H704.192C704.064 199.036 703.968 198.476 703.968 197.836C703.536 198.828 702.432 199.628 701.056 199.628C699.552 199.628 698.416 198.652 698.416 197.196C698.416 195.452 699.984 194.54 701.728 194.54C702.416 194.54 703.088 194.62 703.776 194.86V193.74C703.776 192.636 703.104 191.884 701.792 191.884C700.736 191.884 699.84 192.348 699.392 193.644L698.432 193.356C699.072 191.564 700.368 190.892 701.856 190.892C703.952 190.892 704.832 192.156 704.832 193.612V197.1C704.832 198.06 704.992 198.924 705.184 199.5ZM703.776 195.98V195.788C703.12 195.516 702.448 195.436 701.792 195.436C700.512 195.436 699.504 196.012 699.504 197.132C699.504 198.156 700.224 198.7 701.248 198.7C702.352 198.7 703.776 198.044 703.776 195.98ZM713.082 187.66H714.17V199.5H713.082V197.916C712.522 199.004 711.402 199.612 710.298 199.612C708.138 199.612 706.682 197.804 706.682 195.34C706.682 192.732 708.154 190.892 710.426 190.892C711.61 190.892 712.57 191.484 713.082 192.556V187.66ZM710.41 198.652C712.106 198.652 713.082 197.388 713.082 195.308C713.082 193.1 712.122 191.852 710.426 191.852C708.842 191.852 707.802 193.068 707.802 195.292C707.802 197.436 708.842 198.652 710.41 198.652ZM717.195 189.484C716.667 189.484 716.235 189.068 716.235 188.524C716.235 187.98 716.667 187.564 717.195 187.564C717.723 187.564 718.155 187.98 718.155 188.524C718.155 189.068 717.723 189.484 717.195 189.484ZM716.651 199.5V191.02H717.739V199.5H716.651ZM723.527 199.628C721.431 199.628 719.751 197.9 719.751 195.244C719.751 192.62 721.415 190.892 723.527 190.892C725.639 190.892 727.303 192.62 727.303 195.244C727.303 197.9 725.623 199.628 723.527 199.628ZM723.527 198.668C724.983 198.668 726.183 197.516 726.183 195.244C726.183 192.988 724.967 191.852 723.527 191.852C722.087 191.852 720.871 192.988 720.871 195.244C720.871 197.516 722.071 198.668 723.527 198.668ZM737.111 190.908C739.271 190.908 740.727 192.716 740.727 195.18C740.727 197.788 739.255 199.628 736.983 199.628C735.799 199.628 734.839 199.036 734.327 197.964V199.5H733.239V187.66H734.327V192.604C734.887 191.516 736.007 190.908 737.111 190.908ZM736.983 198.668C738.567 198.668 739.607 197.452 739.607 195.228C739.607 193.084 738.567 191.868 736.999 191.868C735.303 191.868 734.327 193.132 734.327 195.212C734.327 197.42 735.287 198.668 736.983 198.668ZM747.67 191.02H748.758V199.5H747.67V198.204C747.158 199.116 746.262 199.628 745.222 199.628C743.558 199.628 742.55 198.556 742.55 196.716V191.02H743.638V196.62C743.638 198.012 744.342 198.652 745.526 198.652C747.03 198.652 747.67 197.452 747.67 195.788V191.02ZM752.941 197.388C752.941 198.38 753.533 198.668 754.061 198.668C754.573 198.668 754.909 198.476 755.309 198.06L755.885 198.7C755.325 199.356 754.717 199.628 753.965 199.628C752.813 199.628 751.853 198.86 751.853 197.356V191.916H750.253V191.02H751.853V189.196L752.941 188.556V191.02H755.693V191.916H752.941V197.388ZM758.928 197.388C758.928 198.38 759.52 198.668 760.048 198.668C760.56 198.668 760.896 198.476 761.296 198.06L761.872 198.7C761.312 199.356 760.704 199.628 759.952 199.628C758.8 199.628 757.84 198.86 757.84 197.356V191.916H756.24V191.02H757.84V189.196L758.928 188.556V191.02H761.68V191.916H758.928V197.388ZM766.28 199.628C764.184 199.628 762.504 197.9 762.504 195.244C762.504 192.62 764.168 190.892 766.28 190.892C768.392 190.892 770.056 192.62 770.056 195.244C770.056 197.9 768.376 199.628 766.28 199.628ZM766.28 198.668C767.736 198.668 768.936 197.516 768.936 195.244C768.936 192.988 767.72 191.852 766.28 191.852C764.84 191.852 763.624 192.988 763.624 195.244C763.624 197.516 764.824 198.668 766.28 198.668ZM775.619 190.892C777.315 190.892 778.307 191.932 778.307 193.836V199.5H777.219V193.996C777.219 192.46 776.515 191.884 775.331 191.884C773.843 191.884 773.155 193.036 773.155 194.732V199.5H772.067V191.02H773.155V192.332C773.667 191.404 774.595 190.892 775.619 190.892Z" fill="#2A2859"/>
<path d="M511.672 156.556H518.152V158.5H509.566V145.18H518.044V147.124H511.672V150.85H516.586V152.794H511.672V156.556ZM522.487 155.548C522.487 156.61 523.135 156.934 523.801 156.934C524.323 156.934 524.737 156.718 525.151 156.304L526.015 157.6C525.295 158.32 524.503 158.662 523.477 158.662C521.821 158.662 520.471 157.654 520.471 155.674V150.526H518.797V148.96H520.471V146.836L522.487 145.918V148.96H525.853V150.526H522.487V155.548ZM528.769 147.376C527.977 147.376 527.347 146.764 527.347 145.954C527.347 145.144 527.977 144.532 528.769 144.532C529.561 144.532 530.173 145.144 530.173 145.954C530.173 146.764 529.561 147.376 528.769 147.376ZM527.761 158.5V148.96H529.777V158.5H527.761ZM538.671 158.5L535.773 154.126L534.675 155.206V158.5H532.659V145.18H534.675V152.92L538.527 148.96H541.011L537.105 152.812L541.083 158.5H538.671ZM548.679 155.494L550.047 156.286C549.507 157.474 548.247 158.662 546.069 158.662C543.243 158.662 541.533 156.574 541.533 153.64C541.533 150.742 543.387 148.744 545.925 148.744C548.175 148.744 550.029 150.256 550.029 152.956L549.993 154.144H543.513C543.621 156.16 544.611 157.024 546.195 157.024C547.365 157.024 548.175 156.394 548.679 155.494ZM545.925 150.328C544.701 150.328 543.675 150.976 543.513 152.704H548.067C548.085 151.012 547.041 150.328 545.925 150.328ZM554.84 155.548C554.84 156.61 555.488 156.934 556.154 156.934C556.676 156.934 557.09 156.718 557.504 156.304L558.368 157.6C557.648 158.32 556.856 158.662 555.83 158.662C554.174 158.662 552.824 157.654 552.824 155.674V150.526H551.15V148.96H552.824V146.836L554.84 145.918V148.96H558.206V150.526H554.84V155.548ZM562.655 155.548C562.655 156.61 563.303 156.934 563.969 156.934C564.491 156.934 564.905 156.718 565.319 156.304L566.183 157.6C565.463 158.32 564.671 158.662 563.645 158.662C561.989 158.662 560.639 157.654 560.639 155.674V150.526H558.965V148.96H560.639V146.836L562.655 145.918V148.96H566.021V150.526H562.655V155.548Z" fill="#2A2859"/>
</svg>
