<svg width="997" height="430" viewBox="0 0 997 430" fill="none" xmlns="http://www.w3.org/2000/svg">
<rect width="997" height="430" fill="white"/>
<path d="M378.672 109.056H385.152V111H376.566V97.68H385.044V99.624H378.672V103.35H383.586V105.294H378.672V109.056ZM389.487 108.048C389.487 109.11 390.135 109.434 390.801 109.434C391.323 109.434 391.737 109.218 392.151 108.804L393.015 110.1C392.295 110.82 391.503 111.162 390.477 111.162C388.821 111.162 387.471 110.154 387.471 108.174V103.026H385.797V101.46H387.471V99.336L389.487 98.418V101.46H392.853V103.026H389.487V108.048ZM395.769 99.876C394.977 99.876 394.347 99.264 394.347 98.454C394.347 97.644 394.977 97.032 395.769 97.032C396.561 97.032 397.173 97.644 397.173 98.454C397.173 99.264 396.561 99.876 395.769 99.876ZM394.761 111V101.46H396.777V111H394.761ZM405.671 111L402.773 106.626L401.675 107.706V111H399.659V97.68H401.675V105.42L405.527 101.46H408.011L404.105 105.312L408.083 111H405.671ZM415.679 107.994L417.047 108.786C416.507 109.974 415.247 111.162 413.069 111.162C410.243 111.162 408.533 109.074 408.533 106.14C408.533 103.242 410.387 101.244 412.925 101.244C415.175 101.244 417.029 102.756 417.029 105.456L416.993 106.644H410.513C410.621 108.66 411.611 109.524 413.195 109.524C414.365 109.524 415.175 108.894 415.679 107.994ZM412.925 102.828C411.701 102.828 410.675 103.476 410.513 105.204H415.067C415.085 103.512 414.041 102.828 412.925 102.828ZM421.84 108.048C421.84 109.11 422.488 109.434 423.154 109.434C423.676 109.434 424.09 109.218 424.504 108.804L425.368 110.1C424.648 110.82 423.856 111.162 422.83 111.162C421.174 111.162 419.824 110.154 419.824 108.174V103.026H418.15V101.46H419.824V99.336L421.84 98.418V101.46H425.206V103.026H421.84V108.048ZM429.655 108.048C429.655 109.11 430.303 109.434 430.969 109.434C431.491 109.434 431.905 109.218 432.319 108.804L433.183 110.1C432.463 110.82 431.671 111.162 430.645 111.162C428.989 111.162 427.639 110.154 427.639 108.174V103.026H425.965V101.46H427.639V99.336L429.655 98.418V101.46H433.021V103.026H429.655V108.048Z" fill="#2A2859"/>
<rect width="62" height="22" transform="translate(442 94)" fill="#E5FCFF"/>
<path d="M453.924 99.64H454.96L451.166 110H450.186L446.42 99.64H447.484L450.69 108.866L453.924 99.64ZM460.992 110H460.124C460.012 109.594 459.928 109.104 459.928 108.544C459.55 109.412 458.584 110.112 457.38 110.112C456.064 110.112 455.07 109.258 455.07 107.984C455.07 106.458 456.442 105.66 457.968 105.66C458.57 105.66 459.158 105.73 459.76 105.94V104.96C459.76 103.994 459.172 103.336 458.024 103.336C457.1 103.336 456.316 103.742 455.924 104.876L455.084 104.624C455.644 103.056 456.778 102.468 458.08 102.468C459.914 102.468 460.684 103.574 460.684 104.848V107.9C460.684 108.74 460.824 109.496 460.992 110ZM459.76 106.92V106.752C459.186 106.514 458.598 106.444 458.024 106.444C456.904 106.444 456.022 106.948 456.022 107.928C456.022 108.824 456.652 109.3 457.548 109.3C458.514 109.3 459.76 108.726 459.76 106.92ZM465.415 109.972C465.191 110.028 465.009 110.056 464.799 110.056C463.637 110.056 463.091 109.328 463.091 108.236V99.64H464.043V108.236C464.043 108.866 464.379 109.188 464.967 109.188C465.121 109.188 465.275 109.174 465.415 109.132V109.972ZM473.542 103.364H471.946V103.63C472.31 104.078 472.506 104.638 472.506 105.184C472.506 106.542 471.526 107.928 469.44 107.928H469.118C468.278 107.928 467.676 108.25 467.676 108.74C467.676 109.118 467.97 109.384 468.586 109.384H471.596C472.8 109.384 473.416 109.972 473.416 110.896C473.416 112.366 471.722 113.136 469.636 113.136C467.76 113.136 466.458 112.534 466.01 111.232L466.78 110.882C467.298 112.1 468.39 112.338 469.636 112.338C471.176 112.338 472.464 111.876 472.464 110.98C472.464 110.56 472.24 110.252 471.568 110.252H468.376C467.34 110.252 466.724 109.762 466.724 108.992C466.724 108.334 467.27 107.76 468.18 107.522C467.2 107.13 466.654 106.094 466.654 105.184C466.654 103.854 467.648 102.468 469.608 102.468C470.378 102.468 470.966 102.72 471.414 103.098V102.58H473.542V103.364ZM469.594 107.144C470.91 107.144 471.568 106.234 471.568 105.184C471.568 104.148 470.91 103.28 469.594 103.28C468.264 103.28 467.592 104.162 467.592 105.184C467.592 106.22 468.264 107.144 469.594 107.144ZM476.237 101.544V102.58H478.309V103.364H476.237V110H475.285V103.364H473.885V102.58H475.285V101.544C475.285 100.256 476.125 99.528 477.273 99.528C477.805 99.528 478.421 99.738 478.771 100.298L478.197 100.872C477.973 100.536 477.637 100.34 477.245 100.34C476.755 100.34 476.237 100.634 476.237 101.544ZM482.417 102.468C483.383 102.468 484.083 103.112 484.083 104.372V105.1L483.215 105.268V104.54C483.215 103.798 482.963 103.308 482.207 103.308C481.353 103.308 480.709 103.938 480.709 105.436V110H479.757V102.58H480.709V103.504C481.101 102.804 481.759 102.468 482.417 102.468ZM486.44 101.236C485.978 101.236 485.6 100.872 485.6 100.396C485.6 99.92 485.978 99.556 486.44 99.556C486.902 99.556 487.28 99.92 487.28 100.396C487.28 100.872 486.902 101.236 486.44 101.236ZM485.964 110V102.58H486.916V110H485.964ZM490.811 108.152C490.811 109.02 491.329 109.272 491.791 109.272C492.239 109.272 492.533 109.104 492.883 108.74L493.387 109.3C492.897 109.874 492.365 110.112 491.707 110.112C490.699 110.112 489.859 109.44 489.859 108.124V103.364H488.459V102.58H489.859V100.984L490.811 100.424V102.58H493.219V103.364H490.811V108.152ZM496.225 108.152C496.225 109.02 496.743 109.272 497.205 109.272C497.653 109.272 497.947 109.104 498.297 108.74L498.801 109.3C498.311 109.874 497.779 110.112 497.121 110.112C496.113 110.112 495.273 109.44 495.273 108.124V103.364H493.873V102.58H495.273V100.984L496.225 100.424V102.58H498.633V103.364H496.225V108.152Z" fill="#2A2859"/>
<path d="M376.232 143V132.64H379.62C382.182 132.64 384.156 134.642 384.156 137.764C384.156 140.886 382.182 143 379.62 143H376.232ZM377.212 142.104H379.424C381.58 142.104 383.148 140.648 383.148 137.764C383.148 134.908 381.566 133.536 379.396 133.536H377.212V142.104ZM391.129 140.9L391.829 141.292C391.479 142.188 390.555 143.112 388.903 143.112C386.817 143.112 385.585 141.558 385.585 139.192C385.585 137.022 386.873 135.468 388.805 135.468C390.401 135.468 391.773 136.616 391.773 138.632L391.745 139.458H386.551C386.635 141.432 387.573 142.272 389.001 142.272C390.121 142.272 390.779 141.628 391.129 140.9ZM388.805 136.308C387.685 136.308 386.677 136.91 386.551 138.674H390.835C390.877 137.008 389.897 136.308 388.805 136.308ZM395.133 141.152C395.133 142.02 395.651 142.272 396.113 142.272C396.561 142.272 396.855 142.104 397.205 141.74L397.709 142.3C397.219 142.874 396.687 143.112 396.029 143.112C395.021 143.112 394.181 142.44 394.181 141.124V136.364H392.781V135.58H394.181V133.984L395.133 133.424V135.58H397.541V136.364H395.133V141.152ZM400.547 141.152C400.547 142.02 401.065 142.272 401.527 142.272C401.975 142.272 402.269 142.104 402.619 141.74L403.123 142.3C402.633 142.874 402.101 143.112 401.443 143.112C400.435 143.112 399.595 142.44 399.595 141.124V136.364H398.195V135.58H399.595V133.984L400.547 133.424V135.58H402.955V136.364H400.547V141.152ZM409.395 140.9L410.095 141.292C409.745 142.188 408.821 143.112 407.169 143.112C405.083 143.112 403.851 141.558 403.851 139.192C403.851 137.022 405.139 135.468 407.071 135.468C408.667 135.468 410.039 136.616 410.039 138.632L410.011 139.458H404.817C404.901 141.432 405.839 142.272 407.267 142.272C408.387 142.272 409.045 141.628 409.395 140.9ZM407.071 136.308C405.951 136.308 404.943 136.91 404.817 138.674H409.101C409.143 137.008 408.163 136.308 407.071 136.308ZM420.702 140.9L421.402 141.292C421.052 142.188 420.128 143.112 418.476 143.112C416.39 143.112 415.158 141.558 415.158 139.192C415.158 137.022 416.446 135.468 418.378 135.468C419.974 135.468 421.346 136.616 421.346 138.632L421.318 139.458H416.124C416.208 141.432 417.146 142.272 418.574 142.272C419.694 142.272 420.352 141.628 420.702 140.9ZM418.378 136.308C417.258 136.308 416.25 136.91 416.124 138.674H420.408C420.45 137.008 419.47 136.308 418.378 136.308ZM426.018 135.468C426.984 135.468 427.684 136.112 427.684 137.372V138.1L426.816 138.268V137.54C426.816 136.798 426.564 136.308 425.808 136.308C424.954 136.308 424.31 136.938 424.31 138.436V143H423.358V135.58H424.31V136.504C424.702 135.804 425.36 135.468 426.018 135.468ZM434.631 141.152C434.631 142.02 435.149 142.272 435.611 142.272C436.059 142.272 436.353 142.104 436.703 141.74L437.207 142.3C436.717 142.874 436.185 143.112 435.527 143.112C434.519 143.112 433.679 142.44 433.679 141.124V136.364H432.279V135.58H433.679V133.984L434.631 133.424V135.58H437.039V136.364H434.631V141.152ZM443.479 140.9L444.179 141.292C443.829 142.188 442.905 143.112 441.253 143.112C439.167 143.112 437.935 141.558 437.935 139.192C437.935 137.022 439.223 135.468 441.155 135.468C442.751 135.468 444.123 136.616 444.123 138.632L444.095 139.458H438.901C438.985 141.432 439.923 142.272 441.351 142.272C442.471 142.272 443.129 141.628 443.479 140.9ZM441.155 136.308C440.035 136.308 439.027 136.91 438.901 138.674H443.185C443.227 137.008 442.247 136.308 441.155 136.308ZM450.756 143L448.026 139.318L447.116 140.186V143H446.164V132.64H447.116V139.066L450.644 135.58H451.904L448.67 138.688L451.96 143H450.756ZM452.772 137.512C452.772 136.336 453.878 135.468 455.432 135.468C456.776 135.468 457.812 136.112 458.12 137.092L457.336 137.4C457.042 136.686 456.356 136.308 455.404 136.308C454.368 136.308 453.696 136.742 453.696 137.428C453.696 138.044 454.102 138.422 454.984 138.604L455.964 138.8C457.588 139.122 458.344 139.822 458.344 140.928C458.344 142.216 457.196 143.112 455.544 143.112C454.046 143.112 452.996 142.524 452.492 141.404L453.304 141.068C453.654 141.852 454.424 142.272 455.516 142.272C456.664 142.272 457.42 141.768 457.42 141.012C457.42 140.312 457.028 139.934 456.048 139.724L454.844 139.472C453.486 139.192 452.772 138.506 452.772 137.512ZM461.565 141.152C461.565 142.02 462.083 142.272 462.545 142.272C462.993 142.272 463.287 142.104 463.637 141.74L464.141 142.3C463.651 142.874 463.119 143.112 462.461 143.112C461.453 143.112 460.613 142.44 460.613 141.124V136.364H459.213V135.58H460.613V133.984L461.565 133.424V135.58H463.973V136.364H461.565V141.152ZM472.178 143.112C470.344 143.112 468.874 141.6 468.874 139.276C468.874 136.98 470.33 135.468 472.178 135.468C474.026 135.468 475.482 136.98 475.482 139.276C475.482 141.6 474.012 143.112 472.178 143.112ZM472.178 142.272C473.452 142.272 474.502 141.264 474.502 139.276C474.502 137.302 473.438 136.308 472.178 136.308C470.918 136.308 469.854 137.302 469.854 139.276C469.854 141.264 470.904 142.272 472.178 142.272ZM481.875 135.58H482.855L479.943 143H479.103L476.191 135.58H477.227L479.551 141.95L481.875 135.58ZM489.102 140.9L489.802 141.292C489.452 142.188 488.528 143.112 486.876 143.112C484.79 143.112 483.558 141.558 483.558 139.192C483.558 137.022 484.846 135.468 486.778 135.468C488.374 135.468 489.746 136.616 489.746 138.632L489.718 139.458H484.524C484.608 141.432 485.546 142.272 486.974 142.272C488.094 142.272 488.752 141.628 489.102 140.9ZM486.778 136.308C485.658 136.308 484.65 136.91 484.524 138.674H488.808C488.85 137.008 487.87 136.308 486.778 136.308ZM494.419 135.468C495.385 135.468 496.085 136.112 496.085 137.372V138.1L495.217 138.268V137.54C495.217 136.798 494.965 136.308 494.209 136.308C493.355 136.308 492.711 136.938 492.711 138.436V143H491.759V135.58H492.711V136.504C493.103 135.804 493.761 135.468 494.419 135.468ZM504.208 135.468C505.174 135.468 505.874 136.112 505.874 137.372V138.1L505.006 138.268V137.54C505.006 136.798 504.754 136.308 503.998 136.308C503.144 136.308 502.5 136.938 502.5 138.436V143H501.548V135.58H502.5V136.504C502.892 135.804 503.55 135.468 504.208 135.468ZM512.861 143H511.993C511.881 142.594 511.797 142.104 511.797 141.544C511.419 142.412 510.453 143.112 509.249 143.112C507.933 143.112 506.939 142.258 506.939 140.984C506.939 139.458 508.311 138.66 509.837 138.66C510.439 138.66 511.027 138.73 511.629 138.94V137.96C511.629 136.994 511.041 136.336 509.893 136.336C508.969 136.336 508.185 136.742 507.793 137.876L506.953 137.624C507.513 136.056 508.647 135.468 509.949 135.468C511.783 135.468 512.553 136.574 512.553 137.848V140.9C512.553 141.74 512.693 142.496 512.861 143ZM511.629 139.92V139.752C511.055 139.514 510.467 139.444 509.893 139.444C508.773 139.444 507.891 139.948 507.891 140.928C507.891 141.824 508.521 142.3 509.417 142.3C510.383 142.3 511.629 141.726 511.629 139.92ZM519.947 132.64H520.899V143H519.947V141.614C519.457 142.566 518.477 143.098 517.511 143.098C515.621 143.098 514.347 141.516 514.347 139.36C514.347 137.078 515.635 135.468 517.623 135.468C518.659 135.468 519.499 135.986 519.947 136.924V132.64ZM517.609 142.258C519.093 142.258 519.947 141.152 519.947 139.332C519.947 137.4 519.107 136.308 517.623 136.308C516.237 136.308 515.327 137.372 515.327 139.318C515.327 141.194 516.237 142.258 517.609 142.258ZM523.721 134.236C523.259 134.236 522.881 133.872 522.881 133.396C522.881 132.92 523.259 132.556 523.721 132.556C524.183 132.556 524.561 132.92 524.561 133.396C524.561 133.872 524.183 134.236 523.721 134.236ZM523.245 143V135.58H524.197V143H523.245ZM529.436 143.112C527.602 143.112 526.132 141.6 526.132 139.276C526.132 136.98 527.588 135.468 529.436 135.468C531.284 135.468 532.74 136.98 532.74 139.276C532.74 141.6 531.27 143.112 529.436 143.112ZM529.436 142.272C530.71 142.272 531.76 141.264 531.76 139.276C531.76 137.302 530.696 136.308 529.436 136.308C528.176 136.308 527.112 137.302 527.112 139.276C527.112 141.264 528.162 142.272 529.436 142.272ZM539.295 143L536.565 139.318L535.655 140.186V143H534.703V132.64H535.655V139.066L539.183 135.58H540.443L537.209 138.688L540.499 143H539.295ZM545.07 135.468C546.554 135.468 547.422 136.378 547.422 138.044V143H546.47V138.184C546.47 136.84 545.854 136.336 544.818 136.336C543.516 136.336 542.914 137.344 542.914 138.828V143H541.962V135.58H542.914V136.728C543.362 135.916 544.174 135.468 545.07 135.468ZM555.244 143H554.376C554.264 142.594 554.18 142.104 554.18 141.544C553.802 142.412 552.836 143.112 551.632 143.112C550.316 143.112 549.322 142.258 549.322 140.984C549.322 139.458 550.694 138.66 552.22 138.66C552.822 138.66 553.41 138.73 554.012 138.94V137.96C554.012 136.994 553.424 136.336 552.276 136.336C551.352 136.336 550.568 136.742 550.176 137.876L549.336 137.624C549.896 136.056 551.03 135.468 552.332 135.468C554.166 135.468 554.936 136.574 554.936 137.848V140.9C554.936 141.74 555.076 142.496 555.244 143ZM554.012 139.92V139.752C553.438 139.514 552.85 139.444 552.276 139.444C551.156 139.444 550.274 139.948 550.274 140.928C550.274 141.824 550.904 142.3 551.8 142.3C552.766 142.3 554.012 141.726 554.012 139.92ZM560.731 135.482C562.621 135.482 563.895 137.064 563.895 139.22C563.895 141.502 562.607 143.112 560.619 143.112C559.583 143.112 558.743 142.594 558.295 141.656V145.94H557.343V135.58H558.295V136.966C558.785 136.014 559.765 135.482 560.731 135.482ZM560.619 142.272C562.005 142.272 562.915 141.208 562.915 139.262C562.915 137.386 562.005 136.322 560.633 136.322C559.149 136.322 558.295 137.428 558.295 139.248C558.295 141.18 559.135 142.272 560.619 142.272ZM569.221 135.482C571.111 135.482 572.385 137.064 572.385 139.22C572.385 141.502 571.097 143.112 569.109 143.112C568.073 143.112 567.233 142.594 566.785 141.656V145.94H565.833V135.58H566.785V136.966C567.275 136.014 568.255 135.482 569.221 135.482ZM569.109 142.272C570.495 142.272 571.405 141.208 571.405 139.262C571.405 137.386 570.495 136.322 569.123 136.322C567.639 136.322 566.785 137.428 566.785 139.248C566.785 141.18 567.625 142.272 569.109 142.272ZM579.391 140.9L580.091 141.292C579.741 142.188 578.817 143.112 577.165 143.112C575.079 143.112 573.847 141.558 573.847 139.192C573.847 137.022 575.135 135.468 577.067 135.468C578.663 135.468 580.035 136.616 580.035 138.632L580.007 139.458H574.813C574.897 141.432 575.835 142.272 577.263 142.272C578.383 142.272 579.041 141.628 579.391 140.9ZM577.067 136.308C575.947 136.308 574.939 136.91 574.813 138.674H579.097C579.139 137.008 578.159 136.308 577.067 136.308ZM585.156 135.468C586.64 135.468 587.508 136.378 587.508 138.044V143H586.556V138.184C586.556 136.84 585.94 136.336 584.904 136.336C583.602 136.336 583 137.344 583 138.828V143H582.048V135.58H583V136.728C583.448 135.916 584.26 135.468 585.156 135.468ZM594.868 140.9L595.568 141.292C595.218 142.188 594.294 143.112 592.642 143.112C590.556 143.112 589.324 141.558 589.324 139.192C589.324 137.022 590.612 135.468 592.544 135.468C594.14 135.468 595.512 136.616 595.512 138.632L595.484 139.458H590.29C590.374 141.432 591.312 142.272 592.74 142.272C593.86 142.272 594.518 141.628 594.868 140.9ZM592.544 136.308C591.424 136.308 590.416 136.91 590.29 138.674H594.574C594.616 137.008 593.636 136.308 592.544 136.308ZM597.332 141.432H598.844V143H597.332V141.432Z" fill="#2A2859"/>
<path d="M377.212 172.076H382.028V173H376.232V162.64H377.212V172.076ZM388.463 170.9L389.163 171.292C388.813 172.188 387.889 173.112 386.237 173.112C384.151 173.112 382.919 171.558 382.919 169.192C382.919 167.022 384.207 165.468 386.139 165.468C387.735 165.468 389.107 166.616 389.107 168.632L389.079 169.458H383.885C383.969 171.432 384.907 172.272 386.335 172.272C387.455 172.272 388.113 171.628 388.463 170.9ZM386.139 166.308C385.019 166.308 384.011 166.91 383.885 168.674H388.169C388.211 167.008 387.231 166.308 386.139 166.308ZM390.756 167.512C390.756 166.336 391.862 165.468 393.416 165.468C394.76 165.468 395.796 166.112 396.104 167.092L395.32 167.4C395.026 166.686 394.34 166.308 393.388 166.308C392.352 166.308 391.68 166.742 391.68 167.428C391.68 168.044 392.086 168.422 392.968 168.604L393.948 168.8C395.572 169.122 396.328 169.822 396.328 170.928C396.328 172.216 395.18 173.112 393.528 173.112C392.03 173.112 390.98 172.524 390.476 171.404L391.288 171.068C391.638 171.852 392.408 172.272 393.5 172.272C394.648 172.272 395.404 171.768 395.404 171.012C395.404 170.312 395.012 169.934 394.032 169.724L392.828 169.472C391.47 169.192 390.756 168.506 390.756 167.512ZM409.176 165.468C410.59 165.468 411.416 166.364 411.416 167.904V173H410.464V168.044C410.464 166.84 409.89 166.336 408.924 166.336C407.622 166.336 407.076 167.344 407.076 168.828V173H406.124V168.044C406.124 166.84 405.55 166.336 404.584 166.336C403.282 166.336 402.736 167.344 402.736 168.828V173H401.784V165.58H402.736V166.742C403.184 165.916 403.968 165.468 404.836 165.468C405.942 165.468 406.684 166.014 406.95 166.98C407.37 166 408.224 165.468 409.176 165.468ZM418.774 170.9L419.474 171.292C419.124 172.188 418.2 173.112 416.548 173.112C414.462 173.112 413.23 171.558 413.23 169.192C413.23 167.022 414.518 165.468 416.45 165.468C418.046 165.468 419.418 166.616 419.418 168.632L419.39 169.458H414.196C414.28 171.432 415.218 172.272 416.646 172.272C417.766 172.272 418.424 171.628 418.774 170.9ZM416.45 166.308C415.33 166.308 414.322 166.91 414.196 168.674H418.48C418.522 167.008 417.542 166.308 416.45 166.308ZM424.091 165.468C425.057 165.468 425.757 166.112 425.757 167.372V168.1L424.889 168.268V167.54C424.889 166.798 424.637 166.308 423.881 166.308C423.027 166.308 422.383 166.938 422.383 168.436V173H421.431V165.58H422.383V166.504C422.775 165.804 423.433 165.468 424.091 165.468Z" fill="#2A2859"/>
<path fill-rule="evenodd" clip-rule="evenodd" d="M444 170.92L438.56 165.625L437.812 166.353L444 172.375L450.188 166.353L449.44 165.625L444 170.92Z" fill="#2A2859"/>
<rect x="376" y="196" width="22" height="22" rx="11" stroke="#2A2859" stroke-width="2"/>
<path d="M412.968 207.816L416.6 213H415.224L411.768 207.944H409.528V213H408.408V201.16H412.6C414.792 201.16 416.376 202.52 416.376 204.552C416.376 206.36 414.952 207.672 412.968 207.816ZM409.528 206.92H412.36C414.088 206.92 415.224 206.152 415.224 204.552C415.224 202.952 414.072 202.184 412.568 202.184H409.528V206.92ZM424.184 213H423.192C423.064 212.536 422.968 211.976 422.968 211.336C422.536 212.328 421.432 213.128 420.056 213.128C418.552 213.128 417.416 212.152 417.416 210.696C417.416 208.952 418.984 208.04 420.728 208.04C421.416 208.04 422.088 208.12 422.776 208.36V207.24C422.776 206.136 422.104 205.384 420.792 205.384C419.736 205.384 418.84 205.848 418.392 207.144L417.432 206.856C418.072 205.064 419.368 204.392 420.856 204.392C422.952 204.392 423.832 205.656 423.832 207.112V210.6C423.832 211.56 423.992 212.424 424.184 213ZM422.776 209.48V209.288C422.12 209.016 421.448 208.936 420.792 208.936C419.512 208.936 418.504 209.512 418.504 210.632C418.504 211.656 419.224 212.2 420.248 212.2C421.352 212.2 422.776 211.544 422.776 209.48ZM432.082 201.16H433.17V213H432.082V211.416C431.522 212.504 430.402 213.112 429.298 213.112C427.138 213.112 425.682 211.304 425.682 208.84C425.682 206.232 427.154 204.392 429.426 204.392C430.61 204.392 431.57 204.984 432.082 206.056V201.16ZM429.41 212.152C431.106 212.152 432.082 210.888 432.082 208.808C432.082 206.6 431.122 205.352 429.426 205.352C427.842 205.352 426.802 206.568 426.802 208.792C426.802 210.936 427.842 212.152 429.41 212.152ZM436.195 202.984C435.667 202.984 435.235 202.568 435.235 202.024C435.235 201.48 435.667 201.064 436.195 201.064C436.723 201.064 437.155 201.48 437.155 202.024C437.155 202.568 436.723 202.984 436.195 202.984ZM435.651 213V204.52H436.739V213H435.651ZM442.527 213.128C440.431 213.128 438.751 211.4 438.751 208.744C438.751 206.12 440.415 204.392 442.527 204.392C444.639 204.392 446.303 206.12 446.303 208.744C446.303 211.4 444.623 213.128 442.527 213.128ZM442.527 212.168C443.983 212.168 445.183 211.016 445.183 208.744C445.183 206.488 443.967 205.352 442.527 205.352C441.087 205.352 439.871 206.488 439.871 208.744C439.871 211.016 441.071 212.168 442.527 212.168ZM456.111 204.408C458.271 204.408 459.727 206.216 459.727 208.68C459.727 211.288 458.255 213.128 455.983 213.128C454.799 213.128 453.839 212.536 453.327 211.464V213H452.239V201.16H453.327V206.104C453.887 205.016 455.007 204.408 456.111 204.408ZM455.983 212.168C457.567 212.168 458.607 210.952 458.607 208.728C458.607 206.584 457.567 205.368 455.999 205.368C454.303 205.368 453.327 206.632 453.327 208.712C453.327 210.92 454.287 212.168 455.983 212.168ZM466.67 204.52H467.758V213H466.67V211.704C466.158 212.616 465.262 213.128 464.222 213.128C462.558 213.128 461.55 212.056 461.55 210.216V204.52H462.638V210.12C462.638 211.512 463.342 212.152 464.526 212.152C466.03 212.152 466.67 210.952 466.67 209.288V204.52ZM471.941 210.888C471.941 211.88 472.533 212.168 473.061 212.168C473.573 212.168 473.909 211.976 474.309 211.56L474.885 212.2C474.325 212.856 473.717 213.128 472.965 213.128C471.813 213.128 470.853 212.36 470.853 210.856V205.416H469.253V204.52H470.853V202.696L471.941 202.056V204.52H474.693V205.416H471.941V210.888ZM477.928 210.888C477.928 211.88 478.52 212.168 479.048 212.168C479.56 212.168 479.896 211.976 480.296 211.56L480.872 212.2C480.312 212.856 479.704 213.128 478.952 213.128C477.8 213.128 476.84 212.36 476.84 210.856V205.416H475.24V204.52H476.84V202.696L477.928 202.056V204.52H480.68V205.416H477.928V210.888ZM485.28 213.128C483.184 213.128 481.504 211.4 481.504 208.744C481.504 206.12 483.168 204.392 485.28 204.392C487.392 204.392 489.056 206.12 489.056 208.744C489.056 211.4 487.376 213.128 485.28 213.128ZM485.28 212.168C486.736 212.168 487.936 211.016 487.936 208.744C487.936 206.488 486.72 205.352 485.28 205.352C483.84 205.352 482.624 206.488 482.624 208.744C482.624 211.016 483.824 212.168 485.28 212.168ZM494.619 204.392C496.315 204.392 497.307 205.432 497.307 207.336V213H496.219V207.496C496.219 205.96 495.515 205.384 494.331 205.384C492.843 205.384 492.155 206.536 492.155 208.232V213H491.067V204.52H492.155V205.832C492.667 204.904 493.595 204.392 494.619 204.392Z" fill="#2A2859"/>
<rect x="376" y="236" width="22" height="22" rx="11" stroke="#2A2859" stroke-width="2"/>
<path d="M412.968 247.816L416.6 253H415.224L411.768 247.944H409.528V253H408.408V241.16H412.6C414.792 241.16 416.376 242.52 416.376 244.552C416.376 246.36 414.952 247.672 412.968 247.816ZM409.528 246.92H412.36C414.088 246.92 415.224 246.152 415.224 244.552C415.224 242.952 414.072 242.184 412.568 242.184H409.528V246.92ZM424.184 253H423.192C423.064 252.536 422.968 251.976 422.968 251.336C422.536 252.328 421.432 253.128 420.056 253.128C418.552 253.128 417.416 252.152 417.416 250.696C417.416 248.952 418.984 248.04 420.728 248.04C421.416 248.04 422.088 248.12 422.776 248.36V247.24C422.776 246.136 422.104 245.384 420.792 245.384C419.736 245.384 418.84 245.848 418.392 247.144L417.432 246.856C418.072 245.064 419.368 244.392 420.856 244.392C422.952 244.392 423.832 245.656 423.832 247.112V250.6C423.832 251.56 423.992 252.424 424.184 253ZM422.776 249.48V249.288C422.12 249.016 421.448 248.936 420.792 248.936C419.512 248.936 418.504 249.512 418.504 250.632C418.504 251.656 419.224 252.2 420.248 252.2C421.352 252.2 422.776 251.544 422.776 249.48ZM432.082 241.16H433.17V253H432.082V251.416C431.522 252.504 430.402 253.112 429.298 253.112C427.138 253.112 425.682 251.304 425.682 248.84C425.682 246.232 427.154 244.392 429.426 244.392C430.61 244.392 431.57 244.984 432.082 246.056V241.16ZM429.41 252.152C431.106 252.152 432.082 250.888 432.082 248.808C432.082 246.6 431.122 245.352 429.426 245.352C427.842 245.352 426.802 246.568 426.802 248.792C426.802 250.936 427.842 252.152 429.41 252.152ZM436.195 242.984C435.667 242.984 435.235 242.568 435.235 242.024C435.235 241.48 435.667 241.064 436.195 241.064C436.723 241.064 437.155 241.48 437.155 242.024C437.155 242.568 436.723 242.984 436.195 242.984ZM435.651 253V244.52H436.739V253H435.651ZM442.527 253.128C440.431 253.128 438.751 251.4 438.751 248.744C438.751 246.12 440.415 244.392 442.527 244.392C444.639 244.392 446.303 246.12 446.303 248.744C446.303 251.4 444.623 253.128 442.527 253.128ZM442.527 252.168C443.983 252.168 445.183 251.016 445.183 248.744C445.183 246.488 443.967 245.352 442.527 245.352C441.087 245.352 439.871 246.488 439.871 248.744C439.871 251.016 441.071 252.168 442.527 252.168ZM456.111 244.408C458.271 244.408 459.727 246.216 459.727 248.68C459.727 251.288 458.255 253.128 455.983 253.128C454.799 253.128 453.839 252.536 453.327 251.464V253H452.239V241.16H453.327V246.104C453.887 245.016 455.007 244.408 456.111 244.408ZM455.983 252.168C457.567 252.168 458.607 250.952 458.607 248.728C458.607 246.584 457.567 245.368 455.999 245.368C454.303 245.368 453.327 246.632 453.327 248.712C453.327 250.92 454.287 252.168 455.983 252.168ZM466.67 244.52H467.758V253H466.67V251.704C466.158 252.616 465.262 253.128 464.222 253.128C462.558 253.128 461.55 252.056 461.55 250.216V244.52H462.638V250.12C462.638 251.512 463.342 252.152 464.526 252.152C466.03 252.152 466.67 250.952 466.67 249.288V244.52ZM471.941 250.888C471.941 251.88 472.533 252.168 473.061 252.168C473.573 252.168 473.909 251.976 474.309 251.56L474.885 252.2C474.325 252.856 473.717 253.128 472.965 253.128C471.813 253.128 470.853 252.36 470.853 250.856V245.416H469.253V244.52H470.853V242.696L471.941 242.056V244.52H474.693V245.416H471.941V250.888ZM477.928 250.888C477.928 251.88 478.52 252.168 479.048 252.168C479.56 252.168 479.896 251.976 480.296 251.56L480.872 252.2C480.312 252.856 479.704 253.128 478.952 253.128C477.8 253.128 476.84 252.36 476.84 250.856V245.416H475.24V244.52H476.84V242.696L477.928 242.056V244.52H480.68V245.416H477.928V250.888ZM485.28 253.128C483.184 253.128 481.504 251.4 481.504 248.744C481.504 246.12 483.168 244.392 485.28 244.392C487.392 244.392 489.056 246.12 489.056 248.744C489.056 251.4 487.376 253.128 485.28 253.128ZM485.28 252.168C486.736 252.168 487.936 251.016 487.936 248.744C487.936 246.488 486.72 245.352 485.28 245.352C483.84 245.352 482.624 246.488 482.624 248.744C482.624 251.016 483.824 252.168 485.28 252.168ZM494.619 244.392C496.315 244.392 497.307 245.432 497.307 247.336V253H496.219V247.496C496.219 245.96 495.515 245.384 494.331 245.384C492.843 245.384 492.155 246.536 492.155 248.232V253H491.067V244.52H492.155V245.832C492.667 244.904 493.595 244.392 494.619 244.392Z" fill="#2A2859"/>
<rect x="376" y="276" width="22" height="22" rx="11" stroke="#2A2859" stroke-width="2"/>
<path d="M412.968 287.816L416.6 293H415.224L411.768 287.944H409.528V293H408.408V281.16H412.6C414.792 281.16 416.376 282.52 416.376 284.552C416.376 286.36 414.952 287.672 412.968 287.816ZM409.528 286.92H412.36C414.088 286.92 415.224 286.152 415.224 284.552C415.224 282.952 414.072 282.184 412.568 282.184H409.528V286.92ZM424.184 293H423.192C423.064 292.536 422.968 291.976 422.968 291.336C422.536 292.328 421.432 293.128 420.056 293.128C418.552 293.128 417.416 292.152 417.416 290.696C417.416 288.952 418.984 288.04 420.728 288.04C421.416 288.04 422.088 288.12 422.776 288.36V287.24C422.776 286.136 422.104 285.384 420.792 285.384C419.736 285.384 418.84 285.848 418.392 287.144L417.432 286.856C418.072 285.064 419.368 284.392 420.856 284.392C422.952 284.392 423.832 285.656 423.832 287.112V290.6C423.832 291.56 423.992 292.424 424.184 293ZM422.776 289.48V289.288C422.12 289.016 421.448 288.936 420.792 288.936C419.512 288.936 418.504 289.512 418.504 290.632C418.504 291.656 419.224 292.2 420.248 292.2C421.352 292.2 422.776 291.544 422.776 289.48ZM432.082 281.16H433.17V293H432.082V291.416C431.522 292.504 430.402 293.112 429.298 293.112C427.138 293.112 425.682 291.304 425.682 288.84C425.682 286.232 427.154 284.392 429.426 284.392C430.61 284.392 431.57 284.984 432.082 286.056V281.16ZM429.41 292.152C431.106 292.152 432.082 290.888 432.082 288.808C432.082 286.6 431.122 285.352 429.426 285.352C427.842 285.352 426.802 286.568 426.802 288.792C426.802 290.936 427.842 292.152 429.41 292.152ZM436.195 282.984C435.667 282.984 435.235 282.568 435.235 282.024C435.235 281.48 435.667 281.064 436.195 281.064C436.723 281.064 437.155 281.48 437.155 282.024C437.155 282.568 436.723 282.984 436.195 282.984ZM435.651 293V284.52H436.739V293H435.651ZM442.527 293.128C440.431 293.128 438.751 291.4 438.751 288.744C438.751 286.12 440.415 284.392 442.527 284.392C444.639 284.392 446.303 286.12 446.303 288.744C446.303 291.4 444.623 293.128 442.527 293.128ZM442.527 292.168C443.983 292.168 445.183 291.016 445.183 288.744C445.183 286.488 443.967 285.352 442.527 285.352C441.087 285.352 439.871 286.488 439.871 288.744C439.871 291.016 441.071 292.168 442.527 292.168ZM456.111 284.408C458.271 284.408 459.727 286.216 459.727 288.68C459.727 291.288 458.255 293.128 455.983 293.128C454.799 293.128 453.839 292.536 453.327 291.464V293H452.239V281.16H453.327V286.104C453.887 285.016 455.007 284.408 456.111 284.408ZM455.983 292.168C457.567 292.168 458.607 290.952 458.607 288.728C458.607 286.584 457.567 285.368 455.999 285.368C454.303 285.368 453.327 286.632 453.327 288.712C453.327 290.92 454.287 292.168 455.983 292.168ZM466.67 284.52H467.758V293H466.67V291.704C466.158 292.616 465.262 293.128 464.222 293.128C462.558 293.128 461.55 292.056 461.55 290.216V284.52H462.638V290.12C462.638 291.512 463.342 292.152 464.526 292.152C466.03 292.152 466.67 290.952 466.67 289.288V284.52ZM471.941 290.888C471.941 291.88 472.533 292.168 473.061 292.168C473.573 292.168 473.909 291.976 474.309 291.56L474.885 292.2C474.325 292.856 473.717 293.128 472.965 293.128C471.813 293.128 470.853 292.36 470.853 290.856V285.416H469.253V284.52H470.853V282.696L471.941 282.056V284.52H474.693V285.416H471.941V290.888ZM477.928 290.888C477.928 291.88 478.52 292.168 479.048 292.168C479.56 292.168 479.896 291.976 480.296 291.56L480.872 292.2C480.312 292.856 479.704 293.128 478.952 293.128C477.8 293.128 476.84 292.36 476.84 290.856V285.416H475.24V284.52H476.84V282.696L477.928 282.056V284.52H480.68V285.416H477.928V290.888ZM485.28 293.128C483.184 293.128 481.504 291.4 481.504 288.744C481.504 286.12 483.168 284.392 485.28 284.392C487.392 284.392 489.056 286.12 489.056 288.744C489.056 291.4 487.376 293.128 485.28 293.128ZM485.28 292.168C486.736 292.168 487.936 291.016 487.936 288.744C487.936 286.488 486.72 285.352 485.28 285.352C483.84 285.352 482.624 286.488 482.624 288.744C482.624 291.016 483.824 292.168 485.28 292.168ZM494.619 284.392C496.315 284.392 497.307 285.432 497.307 287.336V293H496.219V287.496C496.219 285.96 495.515 285.384 494.331 285.384C492.843 285.384 492.155 286.536 492.155 288.232V293H491.067V284.52H492.155V285.832C492.667 284.904 493.595 284.392 494.619 284.392Z" fill="#2A2859"/>
<rect x="376" y="316" width="22" height="22" rx="11" stroke="#2A2859" stroke-width="2"/>
<path d="M412.968 327.816L416.6 333H415.224L411.768 327.944H409.528V333H408.408V321.16H412.6C414.792 321.16 416.376 322.52 416.376 324.552C416.376 326.36 414.952 327.672 412.968 327.816ZM409.528 326.92H412.36C414.088 326.92 415.224 326.152 415.224 324.552C415.224 322.952 414.072 322.184 412.568 322.184H409.528V326.92ZM424.184 333H423.192C423.064 332.536 422.968 331.976 422.968 331.336C422.536 332.328 421.432 333.128 420.056 333.128C418.552 333.128 417.416 332.152 417.416 330.696C417.416 328.952 418.984 328.04 420.728 328.04C421.416 328.04 422.088 328.12 422.776 328.36V327.24C422.776 326.136 422.104 325.384 420.792 325.384C419.736 325.384 418.84 325.848 418.392 327.144L417.432 326.856C418.072 325.064 419.368 324.392 420.856 324.392C422.952 324.392 423.832 325.656 423.832 327.112V330.6C423.832 331.56 423.992 332.424 424.184 333ZM422.776 329.48V329.288C422.12 329.016 421.448 328.936 420.792 328.936C419.512 328.936 418.504 329.512 418.504 330.632C418.504 331.656 419.224 332.2 420.248 332.2C421.352 332.2 422.776 331.544 422.776 329.48ZM432.082 321.16H433.17V333H432.082V331.416C431.522 332.504 430.402 333.112 429.298 333.112C427.138 333.112 425.682 331.304 425.682 328.84C425.682 326.232 427.154 324.392 429.426 324.392C430.61 324.392 431.57 324.984 432.082 326.056V321.16ZM429.41 332.152C431.106 332.152 432.082 330.888 432.082 328.808C432.082 326.6 431.122 325.352 429.426 325.352C427.842 325.352 426.802 326.568 426.802 328.792C426.802 330.936 427.842 332.152 429.41 332.152ZM436.195 322.984C435.667 322.984 435.235 322.568 435.235 322.024C435.235 321.48 435.667 321.064 436.195 321.064C436.723 321.064 437.155 321.48 437.155 322.024C437.155 322.568 436.723 322.984 436.195 322.984ZM435.651 333V324.52H436.739V333H435.651ZM442.527 333.128C440.431 333.128 438.751 331.4 438.751 328.744C438.751 326.12 440.415 324.392 442.527 324.392C444.639 324.392 446.303 326.12 446.303 328.744C446.303 331.4 444.623 333.128 442.527 333.128ZM442.527 332.168C443.983 332.168 445.183 331.016 445.183 328.744C445.183 326.488 443.967 325.352 442.527 325.352C441.087 325.352 439.871 326.488 439.871 328.744C439.871 331.016 441.071 332.168 442.527 332.168ZM456.111 324.408C458.271 324.408 459.727 326.216 459.727 328.68C459.727 331.288 458.255 333.128 455.983 333.128C454.799 333.128 453.839 332.536 453.327 331.464V333H452.239V321.16H453.327V326.104C453.887 325.016 455.007 324.408 456.111 324.408ZM455.983 332.168C457.567 332.168 458.607 330.952 458.607 328.728C458.607 326.584 457.567 325.368 455.999 325.368C454.303 325.368 453.327 326.632 453.327 328.712C453.327 330.92 454.287 332.168 455.983 332.168ZM466.67 324.52H467.758V333H466.67V331.704C466.158 332.616 465.262 333.128 464.222 333.128C462.558 333.128 461.55 332.056 461.55 330.216V324.52H462.638V330.12C462.638 331.512 463.342 332.152 464.526 332.152C466.03 332.152 466.67 330.952 466.67 329.288V324.52ZM471.941 330.888C471.941 331.88 472.533 332.168 473.061 332.168C473.573 332.168 473.909 331.976 474.309 331.56L474.885 332.2C474.325 332.856 473.717 333.128 472.965 333.128C471.813 333.128 470.853 332.36 470.853 330.856V325.416H469.253V324.52H470.853V322.696L471.941 322.056V324.52H474.693V325.416H471.941V330.888ZM477.928 330.888C477.928 331.88 478.52 332.168 479.048 332.168C479.56 332.168 479.896 331.976 480.296 331.56L480.872 332.2C480.312 332.856 479.704 333.128 478.952 333.128C477.8 333.128 476.84 332.36 476.84 330.856V325.416H475.24V324.52H476.84V322.696L477.928 322.056V324.52H480.68V325.416H477.928V330.888ZM485.28 333.128C483.184 333.128 481.504 331.4 481.504 328.744C481.504 326.12 483.168 324.392 485.28 324.392C487.392 324.392 489.056 326.12 489.056 328.744C489.056 331.4 487.376 333.128 485.28 333.128ZM485.28 332.168C486.736 332.168 487.936 331.016 487.936 328.744C487.936 326.488 486.72 325.352 485.28 325.352C483.84 325.352 482.624 326.488 482.624 328.744C482.624 331.016 483.824 332.168 485.28 332.168ZM494.619 324.392C496.315 324.392 497.307 325.432 497.307 327.336V333H496.219V327.496C496.219 325.96 495.515 325.384 494.331 325.384C492.843 325.384 492.155 326.536 492.155 328.232V333H491.067V324.52H492.155V325.832C492.667 324.904 493.595 324.392 494.619 324.392Z" fill="#2A2859"/>
<rect x="325" y="104" width="48" height="1" fill="#6FE9FF"/>
<g clip-path="url(#clip0_5867_24096)">
<rect x="325" y="92" width="24" height="24" rx="12" fill="#6FE9FF"/>
<path d="M337.71 107.1H339.666V108H334.59V107.1H336.654V100.32L334.698 101.628V100.524L336.762 99.12H337.71V107.1Z" fill="#2A2859"/>
</g>
<g clip-path="url(#clip1_5867_24096)">
<rect x="476" y="43" width="1" height="51" fill="#6FE9FF"/>
<g clip-path="url(#clip2_5867_24096)">
<rect x="464" y="43" width="24" height="24" rx="12" fill="#6FE9FF"/>
<path d="M474.574 58.028H479.086V59H473.146V58.184L476.302 54.752C477.214 53.768 477.586 53.228 477.586 52.46C477.586 51.632 477.022 50.96 475.966 50.96C475.042 50.96 474.346 51.416 474.01 52.472L473.038 52.208C473.554 50.636 474.67 50.012 475.99 50.012C477.766 50.012 478.69 51.2 478.69 52.376C478.69 53.396 478.282 54.068 477.106 55.34L474.574 58.028Z" fill="#2A2859"/>
</g>
</g>
<g clip-path="url(#clip3_5867_24096)">
<rect x="325" y="137" width="48" height="1" fill="#6FE9FF"/>
<g clip-path="url(#clip4_5867_24096)">
<rect x="325" y="125" width="24" height="24" rx="12" fill="#6FE9FF"/>
<path d="M338.406 136.308C339.294 136.608 340.026 137.316 340.026 138.48C340.026 139.92 338.814 141.108 336.858 141.108C335.67 141.108 334.554 140.664 333.69 139.464L334.482 138.84C335.13 139.764 335.85 140.148 336.906 140.148C338.178 140.148 338.97 139.38 338.97 138.444C338.97 137.796 338.706 137.388 338.298 137.148C337.986 136.98 337.698 136.896 337.206 136.896H335.946V135.984H336.846C337.518 135.984 337.794 135.888 338.082 135.66C338.418 135.384 338.61 134.976 338.61 134.496C338.61 133.56 337.926 132.96 336.822 132.96C335.886 132.96 335.166 133.44 334.794 134.472L333.846 134.184C334.422 132.684 335.526 132.012 336.858 132.012C338.766 132.012 339.654 133.212 339.654 134.376C339.654 135.264 339.126 135.96 338.406 136.308Z" fill="#2A2859"/>
</g>
</g>
<g clip-path="url(#clip5_5867_24096)">
<rect x="325" y="170" width="48" height="1" fill="#6FE9FF"/>
<g clip-path="url(#clip6_5867_24096)">
<rect x="325" y="158" width="24" height="24" rx="12" fill="#6FE9FF"/>
<path d="M340.326 170.796V171.744H338.886V174H337.866V171.744H333.882V170.928L335.994 165.12H337.014L334.998 170.796H337.866V168.264L338.886 167.964V170.796H340.326Z" fill="#2A2859"/>
</g>
</g>
<g clip-path="url(#clip7_5867_24096)">
<rect x="530" y="263" width="91.877" height="1" fill="#6FE9FF"/>
<g clip-path="url(#clip8_5867_24096)">
<rect x="597.877" y="251" width="24" height="24" rx="12" fill="#6FE9FF"/>
<path d="M610.203 261.264C611.847 261.264 613.011 262.416 613.011 264.024C613.011 265.764 611.727 267.096 609.699 267.096C608.559 267.096 607.455 266.664 606.603 265.464L607.383 264.852C608.031 265.764 608.775 266.16 609.771 266.16C611.055 266.16 611.931 265.248 611.931 264.096C611.931 262.896 611.127 262.164 610.011 262.164C609.195 262.164 608.667 262.416 607.971 263.088L607.155 262.776L607.443 258.12H612.327V259.092H608.331L608.115 262.08C608.655 261.552 609.399 261.264 610.203 261.264Z" fill="#2A2859"/>
</g>
</g>
<defs>
<clipPath id="clip0_5867_24096">
<rect x="325" y="92" width="24" height="24" rx="12" fill="white"/>
</clipPath>
<clipPath id="clip1_5867_24096">
<rect width="24" height="51" fill="white" transform="translate(464 43)"/>
</clipPath>
<clipPath id="clip2_5867_24096">
<rect x="464" y="43" width="24" height="24" rx="12" fill="white"/>
</clipPath>
<clipPath id="clip3_5867_24096">
<rect width="48" height="24" fill="white" transform="translate(325 125)"/>
</clipPath>
<clipPath id="clip4_5867_24096">
<rect x="325" y="125" width="24" height="24" rx="12" fill="white"/>
</clipPath>
<clipPath id="clip5_5867_24096">
<rect width="48" height="24" fill="white" transform="translate(325 158)"/>
</clipPath>
<clipPath id="clip6_5867_24096">
<rect x="325" y="158" width="24" height="24" rx="12" fill="white"/>
</clipPath>
<clipPath id="clip7_5867_24096">
<rect width="91.877" height="24" fill="white" transform="translate(530 251)"/>
</clipPath>
<clipPath id="clip8_5867_24096">
<rect x="597.877" y="251" width="24" height="24" rx="12" fill="white"/>
</clipPath>
</defs>
</svg>
