<svg width="898" height="394" viewBox="0 0 898 394" fill="none" xmlns="http://www.w3.org/2000/svg">
<rect width="898" height="394" fill="white"/>
<path d="M244.94 92.706C246.416 93.84 247.352 95.748 247.352 98.214C247.352 102.624 244.67 105.18 241.358 105.18C240.386 105.18 239.468 104.964 238.658 104.532L238.028 105.72H236.822L237.758 103.956C236.3 102.786 235.364 100.824 235.364 98.214C235.364 94.056 238.046 91.5 241.358 91.5C242.33 91.5 243.23 91.716 244.04 92.13L244.67 90.96H245.876L244.94 92.706ZM237.56 98.232C237.56 99.978 238.028 101.238 238.766 102.066L243.104 93.894C242.582 93.606 241.988 93.48 241.358 93.48C239.252 93.48 237.56 94.956 237.56 98.232ZM241.358 103.2C243.41 103.2 245.156 101.598 245.156 98.232C245.156 96.54 244.706 95.316 243.968 94.542L239.612 102.75C240.134 103.056 240.728 103.2 241.358 103.2ZM254.275 95.244C256.219 95.244 257.371 96.504 257.371 98.574V105H255.355V98.898C255.355 97.584 254.725 96.99 253.627 96.99C252.205 96.99 251.485 97.98 251.485 99.834V105H249.469V95.46H251.485V96.828C252.133 95.82 253.087 95.244 254.275 95.244ZM259.593 98.088C259.593 96.468 261.087 95.244 263.337 95.244C265.191 95.244 266.433 95.91 267.099 97.188L265.695 98.052C265.263 97.314 264.399 96.864 263.319 96.864C262.239 96.864 261.501 97.278 261.501 97.962C261.501 98.52 261.879 98.862 262.725 99.024L264.327 99.348C266.343 99.744 267.351 100.698 267.351 102.156C267.351 103.956 265.785 105.162 263.427 105.162C261.429 105.162 260.007 104.406 259.269 103.02L260.673 102.138C261.195 103.02 262.113 103.524 263.373 103.524C264.597 103.524 265.425 103.038 265.425 102.246C265.425 101.598 265.029 101.238 264.147 101.058L262.383 100.716C260.583 100.374 259.593 99.456 259.593 98.088ZM275.436 105L272.538 100.626L271.44 101.706V105H269.424V91.68H271.44V99.42L275.292 95.46H277.776L273.87 99.312L277.848 105H275.436ZM285.444 101.994L286.812 102.786C286.272 103.974 285.012 105.162 282.834 105.162C280.008 105.162 278.298 103.074 278.298 100.14C278.298 97.242 280.152 95.244 282.69 95.244C284.94 95.244 286.794 96.756 286.794 99.456L286.758 100.644H280.278C280.386 102.66 281.376 103.524 282.96 103.524C284.13 103.524 284.94 102.894 285.444 101.994ZM282.69 96.828C281.466 96.828 280.44 97.476 280.278 99.204H284.832C284.85 97.512 283.806 96.828 282.69 96.828ZM293.455 95.244C294.841 95.244 295.741 96.162 295.741 97.8V99.06L294.121 99.348V98.376C294.121 97.512 293.815 96.918 292.879 96.918C291.853 96.918 291.097 97.602 291.097 99.42V105H289.081V95.46H291.097V96.738C291.637 95.676 292.627 95.244 293.455 95.244ZM308.623 91.68H310.639V105H308.623V103.272C307.885 104.604 306.733 105.144 305.635 105.144C303.331 105.144 301.675 103.164 301.675 100.266C301.675 97.26 303.349 95.262 305.869 95.262C306.949 95.262 308.029 95.748 308.623 96.918V91.68ZM306.175 103.38C307.633 103.38 308.623 102.39 308.623 100.158C308.623 97.944 307.651 96.882 306.175 96.882C304.789 96.882 303.763 97.998 303.763 100.158C303.763 102.3 304.789 103.38 306.175 103.38ZM319.836 101.994L321.204 102.786C320.664 103.974 319.404 105.162 317.226 105.162C314.4 105.162 312.69 103.074 312.69 100.14C312.69 97.242 314.544 95.244 317.082 95.244C319.332 95.244 321.186 96.756 321.186 99.456L321.15 100.644H314.67C314.778 102.66 315.768 103.524 317.352 103.524C318.522 103.524 319.332 102.894 319.836 101.994ZM317.082 96.828C315.858 96.828 314.832 97.476 314.67 99.204H319.224C319.242 97.512 318.198 96.828 317.082 96.828ZM327.846 95.244C329.232 95.244 330.132 96.162 330.132 97.8V99.06L328.512 99.348V98.376C328.512 97.512 328.206 96.918 327.27 96.918C326.244 96.918 325.488 97.602 325.488 99.42V105H323.472V95.46H325.488V96.738C326.028 95.676 327.018 95.244 327.846 95.244ZM338.262 101.994L339.63 102.786C339.09 103.974 337.83 105.162 335.652 105.162C332.826 105.162 331.116 103.074 331.116 100.14C331.116 97.242 332.97 95.244 335.508 95.244C337.758 95.244 339.612 96.756 339.612 99.456L339.576 100.644H333.096C333.204 102.66 334.194 103.524 335.778 103.524C336.948 103.524 337.758 102.894 338.262 101.994ZM335.508 96.828C334.284 96.828 333.258 97.476 333.096 99.204H337.65C337.668 97.512 336.624 96.828 335.508 96.828ZM349.994 94.596C348.734 94.596 347.672 93.678 347.672 92.418C347.672 91.176 348.734 90.276 349.994 90.276C351.272 90.276 352.316 91.176 352.316 92.418C352.316 93.678 351.272 94.596 349.994 94.596ZM349.994 91.32C349.364 91.32 348.896 91.68 348.896 92.418C348.896 93.156 349.364 93.552 349.994 93.552C350.624 93.552 351.092 93.156 351.092 92.418C351.092 91.68 350.624 91.32 349.994 91.32ZM353.99 105H352.136C351.992 104.514 351.902 103.938 351.866 103.2C351.416 104.19 350.408 105.162 348.752 105.162C347.024 105.162 345.8 103.992 345.8 102.336C345.8 100.266 347.636 99.24 349.688 99.24C350.336 99.24 350.948 99.294 351.614 99.474V98.574C351.614 97.548 350.966 96.882 349.796 96.882C348.698 96.882 347.924 97.476 347.564 98.592L345.854 98.07C346.538 96.054 348.176 95.244 349.886 95.244C352.424 95.244 353.576 96.738 353.576 98.556V102.246C353.576 103.38 353.756 104.388 353.99 105ZM351.614 101.058V100.842C351.038 100.644 350.48 100.572 349.886 100.572C348.698 100.572 347.78 101.112 347.78 102.156C347.78 103.038 348.41 103.596 349.364 103.596C350.336 103.596 351.614 103.02 351.614 101.058ZM365.832 95.262C368.136 95.262 369.792 97.224 369.792 100.14C369.792 103.128 368.118 105.144 365.598 105.144C364.5 105.144 363.438 104.658 362.826 103.47V105H360.81V91.68H362.826V97.17C363.564 95.82 364.734 95.262 365.832 95.262ZM365.292 103.488C366.678 103.488 367.704 102.372 367.704 100.23C367.704 98.088 366.678 96.99 365.292 96.99C363.816 96.99 362.826 97.998 362.826 100.212C362.826 102.426 363.816 103.488 365.292 103.488ZM376.287 95.244C377.673 95.244 378.573 96.162 378.573 97.8V99.06L376.953 99.348V98.376C376.953 97.512 376.647 96.918 375.711 96.918C374.685 96.918 373.929 97.602 373.929 99.42V105H371.913V95.46H373.929V96.738C374.469 95.676 375.459 95.244 376.287 95.244ZM386.048 95.46H388.064V105H386.048V103.596C385.436 104.64 384.482 105.162 383.312 105.162C381.35 105.162 380.216 103.902 380.216 101.832V95.46H382.232V101.526C382.232 102.768 382.844 103.434 383.942 103.434C385.346 103.434 386.048 102.426 386.048 100.572V95.46ZM396.738 105L393.84 100.626L392.742 101.706V105H390.726V91.68H392.742V99.42L396.594 95.46H399.078L395.172 99.312L399.15 105H396.738ZM406.746 101.994L408.114 102.786C407.574 103.974 406.314 105.162 404.136 105.162C401.31 105.162 399.6 103.074 399.6 100.14C399.6 97.242 401.454 95.244 403.992 95.244C406.242 95.244 408.096 96.756 408.096 99.456L408.06 100.644H401.58C401.688 102.66 402.678 103.524 404.262 103.524C405.432 103.524 406.242 102.894 406.746 101.994ZM403.992 96.828C402.768 96.828 401.742 97.476 401.58 99.204H406.134C406.152 97.512 405.108 96.828 403.992 96.828ZM421.142 91.68H423.158V105H421.142V103.272C420.404 104.604 419.252 105.144 418.154 105.144C415.85 105.144 414.194 103.164 414.194 100.266C414.194 97.26 415.868 95.262 418.388 95.262C419.468 95.262 420.548 95.748 421.142 96.918V91.68ZM418.694 103.38C420.152 103.38 421.142 102.39 421.142 100.158C421.142 97.944 420.17 96.882 418.694 96.882C417.308 96.882 416.282 97.998 416.282 100.158C416.282 102.3 417.308 103.38 418.694 103.38ZM426.811 93.876C426.019 93.876 425.389 93.264 425.389 92.454C425.389 91.644 426.019 91.032 426.811 91.032C427.603 91.032 428.215 91.644 428.215 92.454C428.215 93.264 427.603 93.876 426.811 93.876ZM425.803 105V95.46H427.819V105H425.803ZM439.863 97.026H437.865V97.242C438.189 97.692 438.351 98.214 438.351 98.754C438.351 100.482 437.019 102.21 434.247 102.21H433.779C432.807 102.21 432.177 102.534 432.177 103.11C432.177 103.506 432.483 103.794 433.095 103.794H437.073C438.711 103.794 439.647 104.64 439.647 105.936C439.647 107.898 437.649 109.032 434.463 109.032C431.673 109.032 429.801 108.33 429.315 106.476L431.277 106.098C431.727 107.25 432.771 107.556 434.517 107.556C436.389 107.556 437.721 107.052 437.721 106.17C437.721 105.756 437.487 105.45 436.839 105.45H432.501C431.007 105.45 430.233 104.64 430.233 103.632C430.233 102.66 431.097 101.886 432.285 101.652C430.971 101.076 430.323 99.852 430.323 98.7C430.323 96.99 431.709 95.244 434.355 95.244C435.525 95.244 436.443 95.658 436.983 96.252V95.46H439.863V97.026ZM434.355 100.752C435.741 100.752 436.389 99.78 436.389 98.736C436.389 97.692 435.741 96.738 434.355 96.738C432.987 96.738 432.321 97.692 432.321 98.736C432.321 99.78 432.987 100.752 434.355 100.752ZM441.2 91.32H443.666V93.75H441.2V91.32ZM441.434 105V95.46H443.45V105H441.434ZM449.032 102.048C449.032 103.11 449.68 103.434 450.346 103.434C450.868 103.434 451.282 103.218 451.696 102.804L452.56 104.1C451.84 104.82 451.048 105.162 450.022 105.162C448.366 105.162 447.016 104.154 447.016 102.174V97.026H445.342V95.46H447.016V93.336L449.032 92.418V95.46H452.398V97.026H449.032V102.048ZM461.728 105H459.874C459.73 104.514 459.64 103.938 459.604 103.2C459.154 104.19 458.146 105.162 456.49 105.162C454.762 105.162 453.538 103.992 453.538 102.336C453.538 100.266 455.374 99.24 457.426 99.24C458.074 99.24 458.686 99.294 459.352 99.474V98.574C459.352 97.548 458.704 96.882 457.534 96.882C456.436 96.882 455.662 97.476 455.302 98.592L453.592 98.07C454.276 96.054 455.914 95.244 457.624 95.244C460.162 95.244 461.314 96.738 461.314 98.556V102.246C461.314 103.38 461.494 104.388 461.728 105ZM459.352 101.058V100.842C458.776 100.644 458.218 100.572 457.624 100.572C456.436 100.572 455.518 101.112 455.518 102.156C455.518 103.038 456.148 103.596 457.102 103.596C458.074 103.596 459.352 103.02 459.352 101.058ZM467.871 104.946C467.493 105.054 467.115 105.108 466.719 105.108C464.901 105.108 464.037 104.028 464.037 102.282V91.68H466.053V102.138C466.053 102.966 466.539 103.344 467.277 103.344C467.457 103.344 467.655 103.326 467.871 103.272V104.946ZM480.319 105L477.421 100.626L476.323 101.706V105H474.307V91.68H476.323V99.42L480.175 95.46H482.659L478.753 99.312L482.731 105H480.319ZM487.699 105.18C485.215 105.18 483.181 103.236 483.181 100.176C483.181 97.188 485.197 95.244 487.699 95.244C490.201 95.244 492.217 97.188 492.217 100.176C492.217 103.236 490.183 105.18 487.699 105.18ZM487.699 103.47C489.049 103.47 490.147 102.426 490.147 100.176C490.147 97.908 489.031 96.954 487.699 96.954C486.367 96.954 485.251 97.908 485.251 100.176C485.251 102.426 486.367 103.47 487.699 103.47ZM499.139 95.244C501.083 95.244 502.235 96.504 502.235 98.574V105H500.219V98.898C500.219 97.584 499.589 96.99 498.491 96.99C497.069 96.99 496.349 97.98 496.349 99.834V105H494.333V95.46H496.349V96.828C496.997 95.82 497.951 95.244 499.139 95.244ZM507.556 102.048C507.556 103.11 508.204 103.434 508.87 103.434C509.392 103.434 509.806 103.218 510.22 102.804L511.084 104.1C510.364 104.82 509.572 105.162 508.546 105.162C506.89 105.162 505.54 104.154 505.54 102.174V97.026H503.866V95.46H505.54V93.336L507.556 92.418V95.46H510.922V97.026H507.556V102.048ZM517.203 95.244C518.589 95.244 519.489 96.162 519.489 97.8V99.06L517.869 99.348V98.376C517.869 97.512 517.563 96.918 516.627 96.918C515.601 96.918 514.845 97.602 514.845 99.42V105H512.829V95.46H514.845V96.738C515.385 95.676 516.375 95.244 517.203 95.244ZM528.648 105H526.794C526.65 104.514 526.56 103.938 526.524 103.2C526.074 104.19 525.066 105.162 523.41 105.162C521.682 105.162 520.458 103.992 520.458 102.336C520.458 100.266 522.294 99.24 524.346 99.24C524.994 99.24 525.606 99.294 526.272 99.474V98.574C526.272 97.548 525.624 96.882 524.454 96.882C523.356 96.882 522.582 97.476 522.222 98.592L520.512 98.07C521.196 96.054 522.834 95.244 524.544 95.244C527.082 95.244 528.234 96.738 528.234 98.556V102.246C528.234 103.38 528.414 104.388 528.648 105ZM526.272 101.058V100.842C525.696 100.644 525.138 100.572 524.544 100.572C523.356 100.572 522.438 101.112 522.438 102.156C522.438 103.038 523.068 103.596 524.022 103.596C524.994 103.596 526.272 103.02 526.272 101.058ZM537.074 105L534.176 100.626L533.078 101.706V105H531.062V91.68H533.078V99.42L536.93 95.46H539.414L535.508 99.312L539.486 105H537.074ZM543.476 102.048C543.476 103.11 544.124 103.434 544.79 103.434C545.312 103.434 545.726 103.218 546.14 102.804L547.004 104.1C546.284 104.82 545.492 105.162 544.466 105.162C542.81 105.162 541.46 104.154 541.46 102.174V97.026H539.786V95.46H541.46V93.336L543.476 92.418V95.46H546.842V97.026H543.476V102.048ZM552.17 91.5C554.654 91.5 556.4 92.922 556.4 95.19C556.4 97.44 554.654 98.664 552.674 99.222L552.638 100.77H551L550.892 98.07C552.836 97.782 554.24 97.044 554.24 95.298C554.24 94.128 553.43 93.372 552.098 93.372C550.892 93.372 549.974 94.038 549.38 95.226L547.652 94.488C548.588 92.49 550.298 91.5 552.17 91.5ZM551.81 102.102C552.674 102.102 553.322 102.768 553.322 103.614C553.322 104.46 552.674 105.126 551.81 105.126C550.964 105.126 550.316 104.46 550.316 103.614C550.316 102.768 550.964 102.102 551.81 102.102Z" fill="#2A2859"/>
<rect width="83" height="22" transform="translate(565.5 88)" fill="#F8F0DD"/>
<path d="M578.824 93.64H579.776V104H578.796V95.362L575.464 100.542H575.044L571.712 95.362V104H570.732V93.64H571.684L575.254 99.184L578.824 93.64ZM584.862 95.796C583.952 95.796 583.21 95.124 583.21 94.2C583.21 93.276 583.952 92.604 584.862 92.604C585.772 92.604 586.514 93.276 586.514 94.2C586.514 95.124 585.772 95.796 584.862 95.796ZM584.862 93.248C584.33 93.248 583.91 93.584 583.91 94.2C583.91 94.83 584.33 95.152 584.862 95.152C585.394 95.152 585.814 94.83 585.814 94.2C585.814 93.584 585.394 93.248 584.862 93.248ZM587.746 104H586.878C586.766 103.594 586.682 103.104 586.682 102.544C586.304 103.412 585.338 104.112 584.134 104.112C582.818 104.112 581.824 103.258 581.824 101.984C581.824 100.458 583.196 99.66 584.722 99.66C585.324 99.66 585.912 99.73 586.514 99.94V98.96C586.514 97.994 585.926 97.336 584.778 97.336C583.854 97.336 583.07 97.742 582.678 98.876L581.838 98.624C582.398 97.056 583.532 96.468 584.834 96.468C586.668 96.468 587.438 97.574 587.438 98.848V101.9C587.438 102.74 587.578 103.496 587.746 104ZM586.514 100.92V100.752C585.94 100.514 585.352 100.444 584.778 100.444C583.658 100.444 582.776 100.948 582.776 101.928C582.776 102.824 583.406 103.3 584.302 103.3C585.268 103.3 586.514 102.726 586.514 100.92ZM594.911 95.544V96.58H596.983V97.364H594.911V104H593.959V97.364H592.559V96.58H593.959V95.544C593.959 94.256 594.799 93.528 595.947 93.528C596.479 93.528 597.095 93.738 597.445 94.298L596.871 94.872C596.647 94.536 596.311 94.34 595.919 94.34C595.429 94.34 594.911 94.634 594.911 95.544ZM602.921 96.58H603.901L600.639 105.022C600.149 106.282 599.603 107.08 598.455 107.08C597.951 107.08 597.489 106.898 597.139 106.576L597.559 105.89C597.839 106.142 598.105 106.254 598.427 106.254C598.945 106.254 599.309 106.03 599.673 105.176L600.107 104.126L597.321 96.58H598.357L600.597 103.006L602.921 96.58ZM607.632 103.972C607.408 104.028 607.226 104.056 607.016 104.056C605.854 104.056 605.308 103.328 605.308 102.236V93.64H606.26V102.236C606.26 102.866 606.596 103.188 607.184 103.188C607.338 103.188 607.492 103.174 607.632 103.132V103.972ZM611.692 103.972C611.468 104.028 611.286 104.056 611.076 104.056C609.914 104.056 609.368 103.328 609.368 102.236V93.64H610.32V102.236C610.32 102.866 610.656 103.188 611.244 103.188C611.398 103.188 611.552 103.174 611.692 103.132V103.972ZM618.278 101.9L618.978 102.292C618.628 103.188 617.704 104.112 616.052 104.112C613.966 104.112 612.734 102.558 612.734 100.192C612.734 98.022 614.022 96.468 615.954 96.468C617.55 96.468 618.922 97.616 618.922 99.632L618.894 100.458H613.7C613.784 102.432 614.722 103.272 616.15 103.272C617.27 103.272 617.928 102.628 618.278 101.9ZM615.954 97.308C614.834 97.308 613.826 97.91 613.7 99.674H617.984C618.026 98.008 617.046 97.308 615.954 97.308ZM620.57 98.512C620.57 97.336 621.676 96.468 623.23 96.468C624.574 96.468 625.61 97.112 625.918 98.092L625.134 98.4C624.84 97.686 624.154 97.308 623.202 97.308C622.166 97.308 621.494 97.742 621.494 98.428C621.494 99.044 621.9 99.422 622.782 99.604L623.762 99.8C625.386 100.122 626.142 100.822 626.142 101.928C626.142 103.216 624.994 104.112 623.342 104.112C621.844 104.112 620.794 103.524 620.29 102.404L621.102 102.068C621.452 102.852 622.222 103.272 623.314 103.272C624.462 103.272 625.218 102.768 625.218 102.012C625.218 101.312 624.826 100.934 623.846 100.724L622.642 100.472C621.284 100.192 620.57 99.506 620.57 98.512ZM635.911 96.58H636.863V104H635.911V102.866C635.463 103.664 634.679 104.112 633.769 104.112C632.313 104.112 631.431 103.174 631.431 101.564V96.58H632.383V101.48C632.383 102.698 632.999 103.258 634.035 103.258C635.351 103.258 635.911 102.208 635.911 100.752V96.58ZM640.698 102.152C640.698 103.02 641.216 103.272 641.678 103.272C642.126 103.272 642.42 103.104 642.77 102.74L643.274 103.3C642.784 103.874 642.252 104.112 641.594 104.112C640.586 104.112 639.746 103.44 639.746 102.124V97.364H638.346V96.58H639.746V94.984L640.698 94.424V96.58H643.106V97.364H640.698V102.152Z" fill="#2A2859"/>
<path d="M242.424 126.64H243.46L239.666 137H238.686L234.92 126.64H235.984L239.19 135.866L242.424 126.64ZM249.167 134.9L249.867 135.292C249.517 136.188 248.593 137.112 246.941 137.112C244.855 137.112 243.623 135.558 243.623 133.192C243.623 131.022 244.911 129.468 246.843 129.468C248.439 129.468 249.811 130.616 249.811 132.632L249.783 133.458H244.589C244.673 135.432 245.611 136.272 247.039 136.272C248.159 136.272 248.817 135.628 249.167 134.9ZM246.843 130.308C245.723 130.308 244.715 130.91 244.589 132.674H248.873C248.915 131.008 247.935 130.308 246.843 130.308ZM256.947 126.64H257.899V137H256.947V135.614C256.457 136.566 255.477 137.098 254.511 137.098C252.621 137.098 251.347 135.516 251.347 133.36C251.347 131.078 252.635 129.468 254.623 129.468C255.659 129.468 256.499 129.986 256.947 130.924V126.64ZM254.609 136.258C256.093 136.258 256.947 135.152 256.947 133.332C256.947 131.4 256.107 130.308 254.623 130.308C253.237 130.308 252.327 131.372 252.327 133.318C252.327 135.194 253.237 136.258 254.609 136.258ZM266.473 128.796C265.563 128.796 264.821 128.124 264.821 127.2C264.821 126.276 265.563 125.604 266.473 125.604C267.383 125.604 268.125 126.276 268.125 127.2C268.125 128.124 267.383 128.796 266.473 128.796ZM266.473 126.248C265.941 126.248 265.521 126.584 265.521 127.2C265.521 127.83 265.941 128.152 266.473 128.152C267.005 128.152 267.425 127.83 267.425 127.2C267.425 126.584 267.005 126.248 266.473 126.248ZM269.357 137H268.489C268.377 136.594 268.293 136.104 268.293 135.544C267.915 136.412 266.949 137.112 265.745 137.112C264.429 137.112 263.435 136.258 263.435 134.984C263.435 133.458 264.807 132.66 266.333 132.66C266.935 132.66 267.523 132.73 268.125 132.94V131.96C268.125 130.994 267.537 130.336 266.389 130.336C265.465 130.336 264.681 130.742 264.289 131.876L263.449 131.624C264.009 130.056 265.143 129.468 266.445 129.468C268.279 129.468 269.049 130.574 269.049 131.848V134.9C269.049 135.74 269.189 136.496 269.357 137ZM268.125 133.92V133.752C267.551 133.514 266.963 133.444 266.389 133.444C265.269 133.444 264.387 133.948 264.387 134.928C264.387 135.824 265.017 136.3 265.913 136.3C266.879 136.3 268.125 135.726 268.125 133.92ZM278.454 129.482C280.344 129.482 281.618 131.064 281.618 133.22C281.618 135.502 280.33 137.112 278.342 137.112C277.306 137.112 276.466 136.594 276.018 135.656V137H275.066V126.64H276.018V130.966C276.508 130.014 277.488 129.482 278.454 129.482ZM278.342 136.272C279.728 136.272 280.638 135.208 280.638 133.262C280.638 131.386 279.728 130.322 278.356 130.322C276.872 130.322 276.018 131.428 276.018 133.248C276.018 135.18 276.858 136.272 278.342 136.272ZM286.216 129.468C287.182 129.468 287.882 130.112 287.882 131.372V132.1L287.014 132.268V131.54C287.014 130.798 286.762 130.308 286.006 130.308C285.152 130.308 284.508 130.938 284.508 132.436V137H283.556V129.58H284.508V130.504C284.9 129.804 285.558 129.468 286.216 129.468ZM293.938 129.58H294.89V137H293.938V135.866C293.49 136.664 292.706 137.112 291.796 137.112C290.34 137.112 289.458 136.174 289.458 134.564V129.58H290.41V134.48C290.41 135.698 291.026 136.258 292.062 136.258C293.378 136.258 293.938 135.208 293.938 133.752V129.58ZM301.861 137L299.131 133.318L298.221 134.186V137H297.269V126.64H298.221V133.066L301.749 129.58H303.009L299.775 132.688L303.065 137H301.861ZM309.172 134.9L309.872 135.292C309.522 136.188 308.598 137.112 306.946 137.112C304.86 137.112 303.628 135.558 303.628 133.192C303.628 131.022 304.916 129.468 306.848 129.468C308.444 129.468 309.816 130.616 309.816 132.632L309.788 133.458H304.594C304.678 135.432 305.616 136.272 307.044 136.272C308.164 136.272 308.822 135.628 309.172 134.9ZM306.848 130.308C305.728 130.308 304.72 130.91 304.594 132.674H308.878C308.92 131.008 307.94 130.308 306.848 130.308ZM320.535 126.64H321.487V137H320.535V135.614C320.045 136.566 319.065 137.098 318.099 137.098C316.209 137.098 314.935 135.516 314.935 133.36C314.935 131.078 316.223 129.468 318.211 129.468C319.247 129.468 320.087 129.986 320.535 130.924V126.64ZM318.197 136.258C319.681 136.258 320.535 135.152 320.535 133.332C320.535 131.4 319.695 130.308 318.211 130.308C316.825 130.308 315.915 131.372 315.915 133.318C315.915 135.194 316.825 136.258 318.197 136.258ZM324.309 128.236C323.847 128.236 323.469 127.872 323.469 127.396C323.469 126.92 323.847 126.556 324.309 126.556C324.771 126.556 325.149 126.92 325.149 127.396C325.149 127.872 324.771 128.236 324.309 128.236ZM323.833 137V129.58H324.785V137H323.833ZM333.86 130.364H332.264V130.63C332.628 131.078 332.824 131.638 332.824 132.184C332.824 133.542 331.844 134.928 329.758 134.928H329.436C328.596 134.928 327.994 135.25 327.994 135.74C327.994 136.118 328.288 136.384 328.904 136.384H331.914C333.118 136.384 333.734 136.972 333.734 137.896C333.734 139.366 332.04 140.136 329.954 140.136C328.078 140.136 326.776 139.534 326.328 138.232L327.098 137.882C327.616 139.1 328.708 139.338 329.954 139.338C331.494 139.338 332.782 138.876 332.782 137.98C332.782 137.56 332.558 137.252 331.886 137.252H328.694C327.658 137.252 327.042 136.762 327.042 135.992C327.042 135.334 327.588 134.76 328.498 134.522C327.518 134.13 326.972 133.094 326.972 132.184C326.972 130.854 327.966 129.468 329.926 129.468C330.696 129.468 331.284 129.72 331.732 130.098V129.58H333.86V130.364ZM329.912 134.144C331.228 134.144 331.886 133.234 331.886 132.184C331.886 131.148 331.228 130.28 329.912 130.28C328.582 130.28 327.91 131.162 327.91 132.184C327.91 133.22 328.582 134.144 329.912 134.144ZM335.093 126.696H336.549V128.124H335.093V126.696ZM335.345 137V129.58H336.297V137H335.345ZM340.192 135.152C340.192 136.02 340.71 136.272 341.172 136.272C341.62 136.272 341.914 136.104 342.264 135.74L342.768 136.3C342.278 136.874 341.746 137.112 341.088 137.112C340.08 137.112 339.24 136.44 339.24 135.124V130.364H337.84V129.58H339.24V127.984L340.192 127.424V129.58H342.6V130.364H340.192V135.152ZM349.652 137H348.784C348.672 136.594 348.588 136.104 348.588 135.544C348.21 136.412 347.244 137.112 346.04 137.112C344.724 137.112 343.73 136.258 343.73 134.984C343.73 133.458 345.102 132.66 346.628 132.66C347.23 132.66 347.818 132.73 348.42 132.94V131.96C348.42 130.994 347.832 130.336 346.684 130.336C345.76 130.336 344.976 130.742 344.584 131.876L343.744 131.624C344.304 130.056 345.438 129.468 346.74 129.468C348.574 129.468 349.344 130.574 349.344 131.848V134.9C349.344 135.74 349.484 136.496 349.652 137ZM348.42 133.92V133.752C347.846 133.514 347.258 133.444 346.684 133.444C345.564 133.444 344.682 133.948 344.682 134.928C344.682 135.824 345.312 136.3 346.208 136.3C347.174 136.3 348.42 135.726 348.42 133.92ZM354.075 136.972C353.851 137.028 353.669 137.056 353.459 137.056C352.297 137.056 351.751 136.328 351.751 135.236V126.64H352.703V135.236C352.703 135.866 353.039 136.188 353.627 136.188C353.781 136.188 353.935 136.174 354.075 136.132V136.972ZM364.013 137L361.283 133.318L360.373 134.186V137H359.421V126.64H360.373V133.066L363.901 129.58H365.161L361.927 132.688L365.217 137H364.013ZM369.085 137.112C367.251 137.112 365.781 135.6 365.781 133.276C365.781 130.98 367.237 129.468 369.085 129.468C370.933 129.468 372.389 130.98 372.389 133.276C372.389 135.6 370.919 137.112 369.085 137.112ZM369.085 136.272C370.359 136.272 371.409 135.264 371.409 133.276C371.409 131.302 370.345 130.308 369.085 130.308C367.825 130.308 366.761 131.302 366.761 133.276C366.761 135.264 367.811 136.272 369.085 136.272ZM377.431 129.468C378.915 129.468 379.783 130.378 379.783 132.044V137H378.831V132.184C378.831 130.84 378.215 130.336 377.179 130.336C375.877 130.336 375.275 131.344 375.275 132.828V137H374.323V129.58H375.275V130.728C375.723 129.916 376.535 129.468 377.431 129.468ZM383.559 135.152C383.559 136.02 384.077 136.272 384.539 136.272C384.987 136.272 385.281 136.104 385.631 135.74L386.135 136.3C385.645 136.874 385.113 137.112 384.455 137.112C383.447 137.112 382.607 136.44 382.607 135.124V130.364H381.207V129.58H382.607V127.984L383.559 127.424V129.58H385.967V130.364H383.559V135.152ZM390.423 129.468C391.389 129.468 392.089 130.112 392.089 131.372V132.1L391.221 132.268V131.54C391.221 130.798 390.969 130.308 390.213 130.308C389.359 130.308 388.715 130.938 388.715 132.436V137H387.763V129.58H388.715V130.504C389.107 129.804 389.765 129.468 390.423 129.468ZM399.076 137H398.208C398.096 136.594 398.012 136.104 398.012 135.544C397.634 136.412 396.668 137.112 395.464 137.112C394.148 137.112 393.154 136.258 393.154 134.984C393.154 133.458 394.526 132.66 396.052 132.66C396.654 132.66 397.242 132.73 397.844 132.94V131.96C397.844 130.994 397.256 130.336 396.108 130.336C395.184 130.336 394.4 130.742 394.008 131.876L393.168 131.624C393.728 130.056 394.862 129.468 396.164 129.468C397.998 129.468 398.768 130.574 398.768 131.848V134.9C398.768 135.74 398.908 136.496 399.076 137ZM397.844 133.92V133.752C397.27 133.514 396.682 133.444 396.108 133.444C394.988 133.444 394.106 133.948 394.106 134.928C394.106 135.824 394.736 136.3 395.632 136.3C396.598 136.3 397.844 135.726 397.844 133.92ZM405.795 137L403.065 133.318L402.155 134.186V137H401.203V126.64H402.155V133.066L405.683 129.58H406.943L403.709 132.688L406.999 137H405.795ZM409.809 135.152C409.809 136.02 410.327 136.272 410.789 136.272C411.237 136.272 411.531 136.104 411.881 135.74L412.385 136.3C411.895 136.874 411.363 137.112 410.705 137.112C409.697 137.112 408.857 136.44 408.857 135.124V130.364H407.457V129.58H408.857V127.984L409.809 127.424V129.58H412.217V130.364H409.809V135.152ZM417.231 131.512C417.231 130.336 418.337 129.468 419.891 129.468C421.235 129.468 422.271 130.112 422.579 131.092L421.795 131.4C421.501 130.686 420.815 130.308 419.863 130.308C418.827 130.308 418.155 130.742 418.155 131.428C418.155 132.044 418.561 132.422 419.443 132.604L420.423 132.8C422.047 133.122 422.803 133.822 422.803 134.928C422.803 136.216 421.655 137.112 420.003 137.112C418.505 137.112 417.455 136.524 416.951 135.404L417.763 135.068C418.113 135.852 418.883 136.272 419.975 136.272C421.123 136.272 421.879 135.768 421.879 135.012C421.879 134.312 421.487 133.934 420.507 133.724L419.303 133.472C417.945 133.192 417.231 132.506 417.231 131.512ZM427.001 136.972C426.777 137.028 426.595 137.056 426.385 137.056C425.223 137.056 424.677 136.328 424.677 135.236V126.64H425.629V135.236C425.629 135.866 425.965 136.188 426.553 136.188C426.707 136.188 426.861 136.174 427.001 136.132V136.972ZM429.213 128.236C428.751 128.236 428.373 127.872 428.373 127.396C428.373 126.92 428.751 126.556 429.213 126.556C429.675 126.556 430.053 126.92 430.053 127.396C430.053 127.872 429.675 128.236 429.213 128.236ZM428.737 137V129.58H429.689V137H428.737ZM435.488 129.482C437.378 129.482 438.652 131.064 438.652 133.22C438.652 135.502 437.364 137.112 435.376 137.112C434.34 137.112 433.5 136.594 433.052 135.656V139.94H432.1V129.58H433.052V130.966C433.542 130.014 434.522 129.482 435.488 129.482ZM435.376 136.272C436.762 136.272 437.672 135.208 437.672 133.262C437.672 131.386 436.762 130.322 435.39 130.322C433.906 130.322 433.052 131.428 433.052 133.248C433.052 135.18 433.892 136.272 435.376 136.272ZM443.979 129.482C445.869 129.482 447.143 131.064 447.143 133.22C447.143 135.502 445.855 137.112 443.867 137.112C442.831 137.112 441.991 136.594 441.543 135.656V139.94H440.591V129.58H441.543V130.966C442.033 130.014 443.013 129.482 443.979 129.482ZM443.867 136.272C445.253 136.272 446.163 135.208 446.163 133.262C446.163 131.386 445.253 130.322 443.881 130.322C442.397 130.322 441.543 131.428 441.543 133.248C441.543 135.18 442.383 136.272 443.867 136.272ZM454.149 134.9L454.849 135.292C454.499 136.188 453.575 137.112 451.923 137.112C449.837 137.112 448.605 135.558 448.605 133.192C448.605 131.022 449.893 129.468 451.825 129.468C453.421 129.468 454.793 130.616 454.793 132.632L454.765 133.458H449.571C449.655 135.432 450.593 136.272 452.021 136.272C453.141 136.272 453.799 135.628 454.149 134.9ZM451.825 130.308C450.705 130.308 449.697 130.91 449.571 132.674H453.855C453.897 131.008 452.917 130.308 451.825 130.308ZM459.466 129.468C460.432 129.468 461.132 130.112 461.132 131.372V132.1L460.264 132.268V131.54C460.264 130.798 460.012 130.308 459.256 130.308C458.402 130.308 457.758 130.938 457.758 132.436V137H456.806V129.58H457.758V130.504C458.15 129.804 458.808 129.468 459.466 129.468ZM470.011 129.482C471.901 129.482 473.175 131.064 473.175 133.22C473.175 135.502 471.887 137.112 469.899 137.112C468.863 137.112 468.023 136.594 467.575 135.656V137H466.623V126.64H467.575V130.966C468.065 130.014 469.045 129.482 470.011 129.482ZM469.899 136.272C471.285 136.272 472.195 135.208 472.195 133.262C472.195 131.386 471.285 130.322 469.913 130.322C468.429 130.322 467.575 131.428 467.575 133.248C467.575 135.18 468.415 136.272 469.899 136.272ZM477.758 128.796C476.848 128.796 476.106 128.124 476.106 127.2C476.106 126.276 476.848 125.604 477.758 125.604C478.668 125.604 479.41 126.276 479.41 127.2C479.41 128.124 478.668 128.796 477.758 128.796ZM477.758 126.248C477.226 126.248 476.806 126.584 476.806 127.2C476.806 127.83 477.226 128.152 477.758 128.152C478.29 128.152 478.71 127.83 478.71 127.2C478.71 126.584 478.29 126.248 477.758 126.248ZM480.642 137H479.774C479.662 136.594 479.578 136.104 479.578 135.544C479.2 136.412 478.234 137.112 477.03 137.112C475.714 137.112 474.72 136.258 474.72 134.984C474.72 133.458 476.092 132.66 477.618 132.66C478.22 132.66 478.808 132.73 479.41 132.94V131.96C479.41 130.994 478.822 130.336 477.674 130.336C476.75 130.336 475.966 130.742 475.574 131.876L474.734 131.624C475.294 130.056 476.428 129.468 477.73 129.468C479.564 129.468 480.334 130.574 480.334 131.848V134.9C480.334 135.74 480.474 136.496 480.642 137ZM479.41 133.92V133.752C478.836 133.514 478.248 133.444 477.674 133.444C476.554 133.444 475.672 133.948 475.672 134.928C475.672 135.824 476.302 136.3 477.198 136.3C478.164 136.3 479.41 135.726 479.41 133.92ZM487.728 126.64H488.68V137H487.728V135.614C487.238 136.566 486.258 137.098 485.292 137.098C483.402 137.098 482.128 135.516 482.128 133.36C482.128 131.078 483.416 129.468 485.404 129.468C486.44 129.468 487.28 129.986 487.728 130.924V126.64ZM485.39 136.258C486.874 136.258 487.728 135.152 487.728 133.332C487.728 131.4 486.888 130.308 485.404 130.308C484.018 130.308 483.108 131.372 483.108 133.318C483.108 135.194 484.018 136.258 485.39 136.258ZM496.094 134.9L496.794 135.292C496.444 136.188 495.52 137.112 493.868 137.112C491.782 137.112 490.55 135.558 490.55 133.192C490.55 131.022 491.838 129.468 493.77 129.468C495.366 129.468 496.738 130.616 496.738 132.632L496.71 133.458H491.516C491.6 135.432 492.538 136.272 493.966 136.272C495.086 136.272 495.744 135.628 496.094 134.9ZM493.77 130.308C492.65 130.308 491.642 130.91 491.516 132.674H495.8C495.842 131.008 494.862 130.308 493.77 130.308ZM507.457 126.64H508.409V137H507.457V135.614C506.967 136.566 505.987 137.098 505.021 137.098C503.131 137.098 501.857 135.516 501.857 133.36C501.857 131.078 503.145 129.468 505.133 129.468C506.169 129.468 507.009 129.986 507.457 130.924V126.64ZM505.119 136.258C506.603 136.258 507.457 135.152 507.457 133.332C507.457 131.4 506.617 130.308 505.133 130.308C503.747 130.308 502.837 131.372 502.837 133.318C502.837 135.194 503.747 136.258 505.119 136.258ZM515.067 129.58H516.019V137H515.067V135.866C514.619 136.664 513.835 137.112 512.925 137.112C511.469 137.112 510.587 136.174 510.587 134.564V129.58H511.539V134.48C511.539 135.698 512.155 136.258 513.191 136.258C514.507 136.258 515.067 135.208 515.067 133.752V129.58ZM524.78 137.112C522.946 137.112 521.476 135.6 521.476 133.276C521.476 130.98 522.932 129.468 524.78 129.468C526.628 129.468 528.084 130.98 528.084 133.276C528.084 135.6 526.614 137.112 524.78 137.112ZM524.78 136.272C526.054 136.272 527.104 135.264 527.104 133.276C527.104 131.302 526.04 130.308 524.78 130.308C523.52 130.308 522.456 131.302 522.456 133.276C522.456 135.264 523.506 136.272 524.78 136.272ZM536.259 130.364H534.663V130.63C535.027 131.078 535.223 131.638 535.223 132.184C535.223 133.542 534.243 134.928 532.157 134.928H531.835C530.995 134.928 530.393 135.25 530.393 135.74C530.393 136.118 530.687 136.384 531.303 136.384H534.313C535.517 136.384 536.133 136.972 536.133 137.896C536.133 139.366 534.439 140.136 532.353 140.136C530.477 140.136 529.175 139.534 528.727 138.232L529.497 137.882C530.015 139.1 531.107 139.338 532.353 139.338C533.893 139.338 535.181 138.876 535.181 137.98C535.181 137.56 534.957 137.252 534.285 137.252H531.093C530.057 137.252 529.441 136.762 529.441 135.992C529.441 135.334 529.987 134.76 530.897 134.522C529.917 134.13 529.371 133.094 529.371 132.184C529.371 130.854 530.365 129.468 532.325 129.468C533.095 129.468 533.683 129.72 534.131 130.098V129.58H536.259V130.364ZM532.311 134.144C533.627 134.144 534.285 133.234 534.285 132.184C534.285 131.148 533.627 130.28 532.311 130.28C530.981 130.28 530.309 131.162 530.309 132.184C530.309 133.22 530.981 134.144 532.311 134.144ZM541.073 126.696H542.529V128.124H541.073V126.696ZM541.325 137V129.58H542.277V137H541.325ZM547.796 129.468C549.28 129.468 550.148 130.378 550.148 132.044V137H549.196V132.184C549.196 130.84 548.58 130.336 547.544 130.336C546.242 130.336 545.64 131.344 545.64 132.828V137H544.688V129.58H545.64V130.728C546.088 129.916 546.9 129.468 547.796 129.468ZM555.548 129.468C557.032 129.468 557.9 130.378 557.9 132.044V137H556.948V132.184C556.948 130.84 556.332 130.336 555.296 130.336C553.994 130.336 553.392 131.344 553.392 132.828V137H552.44V129.58H553.392V130.728C553.84 129.916 554.652 129.468 555.548 129.468ZM563.608 129.482C565.498 129.482 566.772 131.064 566.772 133.22C566.772 135.502 565.484 137.112 563.496 137.112C562.46 137.112 561.62 136.594 561.172 135.656V137H560.22V126.64H561.172V130.966C561.662 130.014 562.642 129.482 563.608 129.482ZM563.496 136.272C564.882 136.272 565.792 135.208 565.792 133.262C565.792 131.386 564.882 130.322 563.51 130.322C562.026 130.322 561.172 131.428 561.172 133.248C561.172 135.18 562.012 136.272 563.496 136.272ZM573.2 129.58H574.18L570.918 138.022C570.428 139.282 569.882 140.08 568.734 140.08C568.23 140.08 567.768 139.898 567.418 139.576L567.838 138.89C568.118 139.142 568.384 139.254 568.706 139.254C569.224 139.254 569.588 139.03 569.952 138.176L570.386 137.126L567.6 129.58H568.636L570.876 136.006L573.2 129.58ZM581.827 130.364H580.231V130.63C580.595 131.078 580.791 131.638 580.791 132.184C580.791 133.542 579.811 134.928 577.725 134.928H577.403C576.563 134.928 575.961 135.25 575.961 135.74C575.961 136.118 576.255 136.384 576.871 136.384H579.881C581.085 136.384 581.701 136.972 581.701 137.896C581.701 139.366 580.007 140.136 577.921 140.136C576.045 140.136 574.743 139.534 574.295 138.232L575.065 137.882C575.583 139.1 576.675 139.338 577.921 139.338C579.461 139.338 580.749 138.876 580.749 137.98C580.749 137.56 580.525 137.252 579.853 137.252H576.661C575.625 137.252 575.009 136.762 575.009 135.992C575.009 135.334 575.555 134.76 576.465 134.522C575.485 134.13 574.939 133.094 574.939 132.184C574.939 130.854 575.933 129.468 577.893 129.468C578.663 129.468 579.251 129.72 579.699 130.098V129.58H581.827V130.364ZM577.879 134.144C579.195 134.144 579.853 133.234 579.853 132.184C579.853 131.148 579.195 130.28 577.879 130.28C576.549 130.28 575.877 131.162 575.877 132.184C575.877 133.22 576.549 134.144 577.879 134.144ZM589.975 130.364H588.379V130.63C588.743 131.078 588.939 131.638 588.939 132.184C588.939 133.542 587.959 134.928 585.873 134.928H585.551C584.711 134.928 584.109 135.25 584.109 135.74C584.109 136.118 584.403 136.384 585.019 136.384H588.029C589.233 136.384 589.849 136.972 589.849 137.896C589.849 139.366 588.155 140.136 586.069 140.136C584.193 140.136 582.891 139.534 582.443 138.232L583.213 137.882C583.731 139.1 584.823 139.338 586.069 139.338C587.609 139.338 588.897 138.876 588.897 137.98C588.897 137.56 588.673 137.252 588.001 137.252H584.809C583.773 137.252 583.157 136.762 583.157 135.992C583.157 135.334 583.703 134.76 584.613 134.522C583.633 134.13 583.087 133.094 583.087 132.184C583.087 130.854 584.081 129.468 586.041 129.468C586.811 129.468 587.399 129.72 587.847 130.098V129.58H589.975V130.364ZM586.027 134.144C587.343 134.144 588.001 133.234 588.001 132.184C588.001 131.148 587.343 130.28 586.027 130.28C584.697 130.28 584.025 131.162 584.025 132.184C584.025 133.22 584.697 134.144 586.027 134.144ZM595.967 134.9L596.667 135.292C596.317 136.188 595.393 137.112 593.741 137.112C591.655 137.112 590.423 135.558 590.423 133.192C590.423 131.022 591.711 129.468 593.643 129.468C595.239 129.468 596.611 130.616 596.611 132.632L596.583 133.458H591.389C591.473 135.432 592.411 136.272 593.839 136.272C594.959 136.272 595.617 135.628 595.967 134.9ZM593.643 130.308C592.523 130.308 591.515 130.91 591.389 132.674H595.673C595.715 131.008 594.735 130.308 593.643 130.308ZM601.284 129.468C602.25 129.468 602.95 130.112 602.95 131.372V132.1L602.082 132.268V131.54C602.082 130.798 601.83 130.308 601.074 130.308C600.22 130.308 599.576 130.938 599.576 132.436V137H598.624V129.58H599.576V130.504C599.968 129.804 600.626 129.468 601.284 129.468ZM611.059 128.796C610.149 128.796 609.407 128.124 609.407 127.2C609.407 126.276 610.149 125.604 611.059 125.604C611.969 125.604 612.711 126.276 612.711 127.2C612.711 128.124 611.969 128.796 611.059 128.796ZM611.059 126.248C610.527 126.248 610.107 126.584 610.107 127.2C610.107 127.83 610.527 128.152 611.059 128.152C611.591 128.152 612.011 127.83 612.011 127.2C612.011 126.584 611.591 126.248 611.059 126.248ZM613.943 137H613.075C612.963 136.594 612.879 136.104 612.879 135.544C612.501 136.412 611.535 137.112 610.331 137.112C609.015 137.112 608.021 136.258 608.021 134.984C608.021 133.458 609.393 132.66 610.919 132.66C611.521 132.66 612.109 132.73 612.711 132.94V131.96C612.711 130.994 612.123 130.336 610.975 130.336C610.051 130.336 609.267 130.742 608.875 131.876L608.035 131.624C608.595 130.056 609.729 129.468 611.031 129.468C612.865 129.468 613.635 130.574 613.635 131.848V134.9C613.635 135.74 613.775 136.496 613.943 137ZM612.711 133.92V133.752C612.137 133.514 611.549 133.444 610.975 133.444C609.855 133.444 608.973 133.948 608.973 134.928C608.973 135.824 609.603 136.3 610.499 136.3C611.465 136.3 612.711 135.726 612.711 133.92ZM622.452 137.112C620.618 137.112 619.148 135.6 619.148 133.276C619.148 130.98 620.604 129.468 622.452 129.468C624.3 129.468 625.756 130.98 625.756 133.276C625.756 135.6 624.286 137.112 622.452 137.112ZM622.452 136.272C623.726 136.272 624.776 135.264 624.776 133.276C624.776 131.302 623.712 130.308 622.452 130.308C621.192 130.308 620.128 131.302 620.128 133.276C620.128 135.264 621.178 136.272 622.452 136.272ZM630.35 129.468C631.316 129.468 632.016 130.112 632.016 131.372V132.1L631.148 132.268V131.54C631.148 130.798 630.896 130.308 630.14 130.308C629.286 130.308 628.642 130.938 628.642 132.436V137H627.69V129.58H628.642V130.504C629.034 129.804 629.692 129.468 630.35 129.468ZM638.598 126.64H639.55V137H638.598V135.614C638.108 136.566 637.128 137.098 636.162 137.098C634.272 137.098 632.998 135.516 632.998 133.36C632.998 131.078 634.286 129.468 636.274 129.468C637.31 129.468 638.15 129.986 638.598 130.924V126.64ZM636.26 136.258C637.744 136.258 638.598 135.152 638.598 133.332C638.598 131.4 637.758 130.308 636.274 130.308C634.888 130.308 633.978 131.372 633.978 133.318C633.978 135.194 634.888 136.258 636.26 136.258ZM645.003 129.468C646.487 129.468 647.355 130.378 647.355 132.044V137H646.403V132.184C646.403 130.84 645.787 130.336 644.751 130.336C643.449 130.336 642.847 131.344 642.847 132.828V137H641.895V129.58H642.847V130.728C643.295 129.916 644.107 129.468 645.003 129.468ZM654.715 134.9L655.415 135.292C655.065 136.188 654.141 137.112 652.489 137.112C650.403 137.112 649.171 135.558 649.171 133.192C649.171 131.022 650.459 129.468 652.391 129.468C653.987 129.468 655.359 130.616 655.359 132.632L655.331 133.458H650.137C650.221 135.432 651.159 136.272 652.587 136.272C653.707 136.272 654.365 135.628 654.715 134.9ZM652.391 130.308C651.271 130.308 650.263 130.91 650.137 132.674H654.421C654.463 131.008 653.483 130.308 652.391 130.308ZM240.828 148.64H241.78V159H240.828V157.614C240.338 158.566 239.358 159.098 238.392 159.098C236.502 159.098 235.228 157.516 235.228 155.36C235.228 153.078 236.516 151.468 238.504 151.468C239.54 151.468 240.38 151.986 240.828 152.924V148.64ZM238.49 158.258C239.974 158.258 240.828 157.152 240.828 155.332C240.828 153.4 239.988 152.308 238.504 152.308C237.118 152.308 236.208 153.372 236.208 155.318C236.208 157.194 237.118 158.258 238.49 158.258ZM249.194 156.9L249.894 157.292C249.544 158.188 248.62 159.112 246.968 159.112C244.882 159.112 243.65 157.558 243.65 155.192C243.65 153.022 244.938 151.468 246.87 151.468C248.466 151.468 249.838 152.616 249.838 154.632L249.81 155.458H244.616C244.7 157.432 245.638 158.272 247.066 158.272C248.186 158.272 248.844 157.628 249.194 156.9ZM246.87 152.308C245.75 152.308 244.742 152.91 244.616 154.674H248.9C248.942 153.008 247.962 152.308 246.87 152.308ZM253.198 157.152C253.198 158.02 253.716 158.272 254.178 158.272C254.626 158.272 254.92 158.104 255.27 157.74L255.774 158.3C255.284 158.874 254.752 159.112 254.094 159.112C253.086 159.112 252.246 158.44 252.246 157.124V152.364H250.846V151.58H252.246V149.984L253.198 149.424V151.58H255.606V152.364H253.198V157.152ZM258.612 157.152C258.612 158.02 259.13 158.272 259.592 158.272C260.04 158.272 260.334 158.104 260.684 157.74L261.188 158.3C260.698 158.874 260.166 159.112 259.508 159.112C258.5 159.112 257.66 158.44 257.66 157.124V152.364H256.26V151.58H257.66V149.984L258.612 149.424V151.58H261.02V152.364H258.612V157.152ZM267.46 156.9L268.16 157.292C267.81 158.188 266.886 159.112 265.234 159.112C263.148 159.112 261.916 157.558 261.916 155.192C261.916 153.022 263.204 151.468 265.136 151.468C266.732 151.468 268.104 152.616 268.104 154.632L268.076 155.458H262.882C262.966 157.432 263.904 158.272 265.332 158.272C266.452 158.272 267.11 157.628 267.46 156.9ZM265.136 152.308C264.016 152.308 263.008 152.91 262.882 154.674H267.166C267.208 153.008 266.228 152.308 265.136 152.308ZM281.09 151.468C282.504 151.468 283.33 152.364 283.33 153.904V159H282.378V154.044C282.378 152.84 281.804 152.336 280.838 152.336C279.536 152.336 278.99 153.344 278.99 154.828V159H278.038V154.044C278.038 152.84 277.464 152.336 276.498 152.336C275.196 152.336 274.65 153.344 274.65 154.828V159H273.698V151.58H274.65V152.742C275.098 151.916 275.882 151.468 276.75 151.468C277.856 151.468 278.598 152.014 278.864 152.98C279.284 152 280.138 151.468 281.09 151.468ZM291.15 159H290.282C290.17 158.594 290.086 158.104 290.086 157.544C289.708 158.412 288.742 159.112 287.538 159.112C286.222 159.112 285.228 158.258 285.228 156.984C285.228 155.458 286.6 154.66 288.126 154.66C288.728 154.66 289.316 154.73 289.918 154.94V153.96C289.918 152.994 289.33 152.336 288.182 152.336C287.258 152.336 286.474 152.742 286.082 153.876L285.242 153.624C285.802 152.056 286.936 151.468 288.238 151.468C290.072 151.468 290.842 152.574 290.842 153.848V156.9C290.842 157.74 290.982 158.496 291.15 159ZM289.918 155.92V155.752C289.344 155.514 288.756 155.444 288.182 155.444C287.062 155.444 286.18 155.948 286.18 156.928C286.18 157.824 286.81 158.3 287.706 158.3C288.672 158.3 289.918 157.726 289.918 155.92ZM296.357 151.468C297.841 151.468 298.709 152.378 298.709 154.044V159H297.757V154.184C297.757 152.84 297.141 152.336 296.105 152.336C294.803 152.336 294.201 153.344 294.201 154.828V159H293.249V151.58H294.201V152.728C294.649 151.916 295.461 151.468 296.357 151.468ZM305.313 151.58H306.265V159H305.313V157.866C304.865 158.664 304.081 159.112 303.171 159.112C301.715 159.112 300.833 158.174 300.833 156.564V151.58H301.785V156.48C301.785 157.698 302.401 158.258 303.437 158.258C304.753 158.258 305.313 157.208 305.313 155.752V151.58ZM313.684 156.9L314.384 157.292C314.034 158.188 313.11 159.112 311.458 159.112C309.372 159.112 308.14 157.558 308.14 155.192C308.14 153.022 309.428 151.468 311.36 151.468C312.956 151.468 314.328 152.616 314.328 154.632L314.3 155.458H309.106C309.19 157.432 310.128 158.272 311.556 158.272C312.676 158.272 313.334 157.628 313.684 156.9ZM311.36 152.308C310.24 152.308 309.232 152.91 309.106 154.674H313.39C313.432 153.008 312.452 152.308 311.36 152.308ZM318.665 158.972C318.441 159.028 318.259 159.056 318.049 159.056C316.887 159.056 316.341 158.328 316.341 157.236V148.64H317.293V157.236C317.293 157.866 317.629 158.188 318.217 158.188C318.371 158.188 318.525 158.174 318.665 158.132V158.972ZM321.749 157.152C321.749 158.02 322.267 158.272 322.729 158.272C323.177 158.272 323.471 158.104 323.821 157.74L324.325 158.3C323.835 158.874 323.303 159.112 322.645 159.112C321.637 159.112 320.797 158.44 320.797 157.124V152.364H319.397V151.58H320.797V149.984L321.749 149.424V151.58H324.157V152.364H321.749V157.152ZM326.652 159.084C326.148 159.084 325.756 158.706 325.756 158.188C325.756 157.67 326.148 157.292 326.652 157.292C327.156 157.292 327.548 157.67 327.548 158.188C327.548 158.706 327.156 159.084 326.652 159.084ZM333.377 159V148.64H334.357V159H333.377ZM339.902 151.468C341.386 151.468 342.254 152.378 342.254 154.044V159H341.302V154.184C341.302 152.84 340.686 152.336 339.65 152.336C338.348 152.336 337.746 153.344 337.746 154.828V159H336.794V151.58H337.746V152.728C338.194 151.916 339.006 151.468 339.902 151.468ZM347.654 151.468C349.138 151.468 350.006 152.378 350.006 154.044V159H349.054V154.184C349.054 152.84 348.438 152.336 347.402 152.336C346.1 152.336 345.498 153.344 345.498 154.828V159H344.546V151.58H345.498V152.728C345.946 151.916 346.758 151.468 347.654 151.468ZM355.714 151.482C357.604 151.482 358.878 153.064 358.878 155.22C358.878 157.502 357.59 159.112 355.602 159.112C354.566 159.112 353.726 158.594 353.278 157.656V159H352.326V148.64H353.278V152.966C353.768 152.014 354.748 151.482 355.714 151.482ZM355.602 158.272C356.988 158.272 357.898 157.208 357.898 155.262C357.898 153.386 356.988 152.322 355.616 152.322C354.132 152.322 353.278 153.428 353.278 155.248C353.278 157.18 354.118 158.272 355.602 158.272ZM365.306 151.58H366.286L363.024 160.022C362.534 161.282 361.988 162.08 360.84 162.08C360.336 162.08 359.874 161.898 359.524 161.576L359.944 160.89C360.224 161.142 360.49 161.254 360.812 161.254C361.33 161.254 361.694 161.03 362.058 160.176L362.492 159.126L359.706 151.58H360.742L362.982 158.006L365.306 151.58ZM373.932 152.364H372.336V152.63C372.7 153.078 372.896 153.638 372.896 154.184C372.896 155.542 371.916 156.928 369.83 156.928H369.508C368.668 156.928 368.066 157.25 368.066 157.74C368.066 158.118 368.36 158.384 368.976 158.384H371.986C373.19 158.384 373.806 158.972 373.806 159.896C373.806 161.366 372.112 162.136 370.026 162.136C368.15 162.136 366.848 161.534 366.4 160.232L367.17 159.882C367.688 161.1 368.78 161.338 370.026 161.338C371.566 161.338 372.854 160.876 372.854 159.98C372.854 159.56 372.63 159.252 371.958 159.252H368.766C367.73 159.252 367.114 158.762 367.114 157.992C367.114 157.334 367.66 156.76 368.57 156.522C367.59 156.13 367.044 155.094 367.044 154.184C367.044 152.854 368.038 151.468 369.998 151.468C370.768 151.468 371.356 151.72 371.804 152.098V151.58H373.932V152.364ZM369.984 156.144C371.3 156.144 371.958 155.234 371.958 154.184C371.958 153.148 371.3 152.28 369.984 152.28C368.654 152.28 367.982 153.162 367.982 154.184C367.982 155.22 368.654 156.144 369.984 156.144ZM382.081 152.364H380.485V152.63C380.849 153.078 381.045 153.638 381.045 154.184C381.045 155.542 380.065 156.928 377.979 156.928H377.657C376.817 156.928 376.215 157.25 376.215 157.74C376.215 158.118 376.509 158.384 377.125 158.384H380.135C381.339 158.384 381.955 158.972 381.955 159.896C381.955 161.366 380.261 162.136 378.175 162.136C376.299 162.136 374.997 161.534 374.549 160.232L375.319 159.882C375.837 161.1 376.929 161.338 378.175 161.338C379.715 161.338 381.003 160.876 381.003 159.98C381.003 159.56 380.779 159.252 380.107 159.252H376.915C375.879 159.252 375.263 158.762 375.263 157.992C375.263 157.334 375.809 156.76 376.719 156.522C375.739 156.13 375.193 155.094 375.193 154.184C375.193 152.854 376.187 151.468 378.147 151.468C378.917 151.468 379.505 151.72 379.953 152.098V151.58H382.081V152.364ZM378.133 156.144C379.449 156.144 380.107 155.234 380.107 154.184C380.107 153.148 379.449 152.28 378.133 152.28C376.803 152.28 376.131 153.162 376.131 154.184C376.131 155.22 376.803 156.144 378.133 156.144ZM388.073 156.9L388.773 157.292C388.423 158.188 387.499 159.112 385.847 159.112C383.761 159.112 382.529 157.558 382.529 155.192C382.529 153.022 383.817 151.468 385.749 151.468C387.345 151.468 388.717 152.616 388.717 154.632L388.689 155.458H383.495C383.579 157.432 384.517 158.272 385.945 158.272C387.065 158.272 387.723 157.628 388.073 156.9ZM385.749 152.308C384.629 152.308 383.621 152.91 383.495 154.674H387.779C387.821 153.008 386.841 152.308 385.749 152.308ZM393.389 151.468C394.355 151.468 395.055 152.112 395.055 153.372V154.1L394.187 154.268V153.54C394.187 152.798 393.935 152.308 393.179 152.308C392.325 152.308 391.681 152.938 391.681 154.436V159H390.729V151.58H391.681V152.504C392.073 151.804 392.731 151.468 393.389 151.468ZM405.25 151.58H406.23L403.318 159H402.478L399.566 151.58H400.602L402.926 157.95L405.25 151.58ZM407.431 148.696H408.887V150.124H407.431V148.696ZM407.683 159V151.58H408.635V159H407.683ZM413.37 158.972C413.146 159.028 412.964 159.056 412.754 159.056C411.592 159.056 411.046 158.328 411.046 157.236V148.64H411.998V157.236C411.998 157.866 412.334 158.188 412.922 158.188C413.076 158.188 413.23 158.174 413.37 158.132V158.972ZM420.172 150.544V151.58H422.244V152.364H420.172V159H419.22V152.364H417.82V151.58H419.22V150.544C419.22 149.256 420.06 148.528 421.208 148.528C421.74 148.528 422.356 148.738 422.706 149.298L422.132 149.872C421.908 149.536 421.572 149.34 421.18 149.34C420.69 149.34 420.172 149.634 420.172 150.544ZM425.914 150.796C425.004 150.796 424.262 150.124 424.262 149.2C424.262 148.276 425.004 147.604 425.914 147.604C426.824 147.604 427.566 148.276 427.566 149.2C427.566 150.124 426.824 150.796 425.914 150.796ZM425.914 148.248C425.382 148.248 424.962 148.584 424.962 149.2C424.962 149.83 425.382 150.152 425.914 150.152C426.446 150.152 426.866 149.83 426.866 149.2C426.866 148.584 426.446 148.248 425.914 148.248ZM428.798 159H427.93C427.818 158.594 427.734 158.104 427.734 157.544C427.356 158.412 426.39 159.112 425.186 159.112C423.87 159.112 422.876 158.258 422.876 156.984C422.876 155.458 424.248 154.66 425.774 154.66C426.376 154.66 426.964 154.73 427.566 154.94V153.96C427.566 152.994 426.978 152.336 425.83 152.336C424.906 152.336 424.122 152.742 423.73 153.876L422.89 153.624C423.45 152.056 424.584 151.468 425.886 151.468C427.72 151.468 428.49 152.574 428.49 153.848V156.9C428.49 157.74 428.63 158.496 428.798 159ZM427.566 155.92V155.752C426.992 155.514 426.404 155.444 425.83 155.444C424.71 155.444 423.828 155.948 423.828 156.928C423.828 157.824 424.458 158.3 425.354 158.3C426.32 158.3 427.566 157.726 427.566 155.92ZM437.307 159.112C435.473 159.112 434.003 157.6 434.003 155.276C434.003 152.98 435.459 151.468 437.307 151.468C439.155 151.468 440.611 152.98 440.611 155.276C440.611 157.6 439.141 159.112 437.307 159.112ZM437.307 158.272C438.581 158.272 439.631 157.264 439.631 155.276C439.631 153.302 438.567 152.308 437.307 152.308C436.047 152.308 434.983 153.302 434.983 155.276C434.983 157.264 436.033 158.272 437.307 158.272ZM448.786 152.364H447.19V152.63C447.554 153.078 447.75 153.638 447.75 154.184C447.75 155.542 446.77 156.928 444.684 156.928H444.362C443.522 156.928 442.92 157.25 442.92 157.74C442.92 158.118 443.214 158.384 443.83 158.384H446.84C448.044 158.384 448.66 158.972 448.66 159.896C448.66 161.366 446.966 162.136 444.88 162.136C443.004 162.136 441.702 161.534 441.254 160.232L442.024 159.882C442.542 161.1 443.634 161.338 444.88 161.338C446.42 161.338 447.708 160.876 447.708 159.98C447.708 159.56 447.484 159.252 446.812 159.252H443.62C442.584 159.252 441.968 158.762 441.968 157.992C441.968 157.334 442.514 156.76 443.424 156.522C442.444 156.13 441.898 155.094 441.898 154.184C441.898 152.854 442.892 151.468 444.852 151.468C445.622 151.468 446.21 151.72 446.658 152.098V151.58H448.786V152.364ZM444.838 156.144C446.154 156.144 446.812 155.234 446.812 154.184C446.812 153.148 446.154 152.28 444.838 152.28C443.508 152.28 442.836 153.162 442.836 154.184C442.836 155.22 443.508 156.144 444.838 156.144ZM453.488 153.512C453.488 152.336 454.594 151.468 456.148 151.468C457.492 151.468 458.528 152.112 458.836 153.092L458.052 153.4C457.758 152.686 457.072 152.308 456.12 152.308C455.084 152.308 454.412 152.742 454.412 153.428C454.412 154.044 454.818 154.422 455.7 154.604L456.68 154.8C458.304 155.122 459.06 155.822 459.06 156.928C459.06 158.216 457.912 159.112 456.26 159.112C454.762 159.112 453.712 158.524 453.208 157.404L454.02 157.068C454.37 157.852 455.14 158.272 456.232 158.272C457.38 158.272 458.136 157.768 458.136 157.012C458.136 156.312 457.744 155.934 456.764 155.724L455.56 155.472C454.202 155.192 453.488 154.506 453.488 153.512ZM461.41 150.236C460.948 150.236 460.57 149.872 460.57 149.396C460.57 148.92 460.948 148.556 461.41 148.556C461.872 148.556 462.25 148.92 462.25 149.396C462.25 149.872 461.872 150.236 461.41 150.236ZM460.934 159V151.58H461.886V159H460.934ZM470.962 152.364H469.366V152.63C469.73 153.078 469.926 153.638 469.926 154.184C469.926 155.542 468.946 156.928 466.86 156.928H466.538C465.698 156.928 465.096 157.25 465.096 157.74C465.096 158.118 465.39 158.384 466.006 158.384H469.016C470.22 158.384 470.836 158.972 470.836 159.896C470.836 161.366 469.142 162.136 467.056 162.136C465.18 162.136 463.878 161.534 463.43 160.232L464.2 159.882C464.718 161.1 465.81 161.338 467.056 161.338C468.596 161.338 469.884 160.876 469.884 159.98C469.884 159.56 469.66 159.252 468.988 159.252H465.796C464.76 159.252 464.144 158.762 464.144 157.992C464.144 157.334 464.69 156.76 465.6 156.522C464.62 156.13 464.074 155.094 464.074 154.184C464.074 152.854 465.068 151.468 467.028 151.468C467.798 151.468 468.386 151.72 468.834 152.098V151.58H470.962V152.364ZM467.014 156.144C468.33 156.144 468.988 155.234 468.988 154.184C468.988 153.148 468.33 152.28 467.014 152.28C465.684 152.28 465.012 153.162 465.012 154.184C465.012 155.22 465.684 156.144 467.014 156.144ZM475.554 151.468C477.038 151.468 477.906 152.378 477.906 154.044V159H476.954V154.184C476.954 152.84 476.338 152.336 475.302 152.336C474 152.336 473.398 153.344 473.398 154.828V159H472.446V151.58H473.398V152.728C473.846 151.916 474.658 151.468 475.554 151.468ZM485.266 156.9L485.966 157.292C485.616 158.188 484.692 159.112 483.04 159.112C480.954 159.112 479.722 157.558 479.722 155.192C479.722 153.022 481.01 151.468 482.942 151.468C484.538 151.468 485.91 152.616 485.91 154.632L485.882 155.458H480.688C480.772 157.432 481.71 158.272 483.138 158.272C484.258 158.272 484.916 157.628 485.266 156.9ZM482.942 152.308C481.822 152.308 480.814 152.91 480.688 154.674H484.972C485.014 153.008 484.034 152.308 482.942 152.308ZM490.583 151.468C491.549 151.468 492.249 152.112 492.249 153.372V154.1L491.381 154.268V153.54C491.381 152.798 491.129 152.308 490.373 152.308C489.519 152.308 488.875 152.938 488.875 154.436V159H487.923V151.58H488.875V152.504C489.267 151.804 489.925 151.468 490.583 151.468ZM498.774 156.9L499.474 157.292C499.124 158.188 498.2 159.112 496.548 159.112C494.462 159.112 493.23 157.558 493.23 155.192C493.23 153.022 494.518 151.468 496.45 151.468C498.046 151.468 499.418 152.616 499.418 154.632L499.39 155.458H494.196C494.28 157.432 495.218 158.272 496.646 158.272C497.766 158.272 498.424 157.628 498.774 156.9ZM496.45 152.308C495.33 152.308 494.322 152.91 494.196 154.674H498.48C498.522 153.008 497.542 152.308 496.45 152.308ZM509.633 159L506.903 155.318L505.993 156.186V159H505.041V148.64H505.993V155.066L509.521 151.58H510.781L507.547 154.688L510.837 159H509.633ZM514.704 159.112C512.87 159.112 511.4 157.6 511.4 155.276C511.4 152.98 512.856 151.468 514.704 151.468C516.552 151.468 518.008 152.98 518.008 155.276C518.008 157.6 516.538 159.112 514.704 159.112ZM514.704 158.272C515.978 158.272 517.028 157.264 517.028 155.276C517.028 153.302 515.964 152.308 514.704 152.308C513.444 152.308 512.38 153.302 512.38 155.276C512.38 157.264 513.43 158.272 514.704 158.272ZM523.05 151.468C524.534 151.468 525.402 152.378 525.402 154.044V159H524.45V154.184C524.45 152.84 523.834 152.336 522.798 152.336C521.496 152.336 520.894 153.344 520.894 154.828V159H519.942V151.58H520.894V152.728C521.342 151.916 522.154 151.468 523.05 151.468ZM529.178 157.152C529.178 158.02 529.696 158.272 530.158 158.272C530.606 158.272 530.9 158.104 531.25 157.74L531.754 158.3C531.264 158.874 530.732 159.112 530.074 159.112C529.066 159.112 528.226 158.44 528.226 157.124V152.364H526.826V151.58H528.226V149.984L529.178 149.424V151.58H531.586V152.364H529.178V157.152ZM538.638 159H537.77C537.658 158.594 537.574 158.104 537.574 157.544C537.196 158.412 536.23 159.112 535.026 159.112C533.71 159.112 532.716 158.258 532.716 156.984C532.716 155.458 534.088 154.66 535.614 154.66C536.216 154.66 536.804 154.73 537.406 154.94V153.96C537.406 152.994 536.818 152.336 535.67 152.336C534.746 152.336 533.962 152.742 533.57 153.876L532.73 153.624C533.29 152.056 534.424 151.468 535.726 151.468C537.56 151.468 538.33 152.574 538.33 153.848V156.9C538.33 157.74 538.47 158.496 538.638 159ZM537.406 155.92V155.752C536.832 155.514 536.244 155.444 535.67 155.444C534.55 155.444 533.668 155.948 533.668 156.928C533.668 157.824 534.298 158.3 535.194 158.3C536.16 158.3 537.406 157.726 537.406 155.92ZM545.357 159L542.627 155.318L541.717 156.186V159H540.765V148.64H541.717V155.066L545.245 151.58H546.505L543.271 154.688L546.561 159H545.357ZM549.372 157.152C549.372 158.02 549.89 158.272 550.352 158.272C550.8 158.272 551.094 158.104 551.444 157.74L551.948 158.3C551.458 158.874 550.926 159.112 550.268 159.112C549.26 159.112 548.42 158.44 548.42 157.124V152.364H547.02V151.58H548.42V149.984L549.372 149.424V151.58H551.78V152.364H549.372V157.152ZM558.219 156.9L558.919 157.292C558.569 158.188 557.645 159.112 555.993 159.112C553.907 159.112 552.675 157.558 552.675 155.192C552.675 153.022 553.963 151.468 555.895 151.468C557.491 151.468 558.863 152.616 558.863 154.632L558.835 155.458H553.641C553.725 157.432 554.663 158.272 556.091 158.272C557.211 158.272 557.869 157.628 558.219 156.9ZM555.895 152.308C554.775 152.308 553.767 152.91 553.641 154.674H557.925C557.967 153.008 556.987 152.308 555.895 152.308ZM563.984 151.468C565.468 151.468 566.336 152.378 566.336 154.044V159H565.384V154.184C565.384 152.84 564.768 152.336 563.732 152.336C562.43 152.336 561.828 153.344 561.828 154.828V159H560.876V151.58H561.828V152.728C562.276 151.916 563.088 151.468 563.984 151.468ZM577.334 148.64H578.286V159H577.334V157.614C576.844 158.566 575.864 159.098 574.898 159.098C573.008 159.098 571.734 157.516 571.734 155.36C571.734 153.078 573.022 151.468 575.01 151.468C576.046 151.468 576.886 151.986 577.334 152.924V148.64ZM574.996 158.258C576.48 158.258 577.334 157.152 577.334 155.332C577.334 153.4 576.494 152.308 575.01 152.308C573.624 152.308 572.714 153.372 572.714 155.318C572.714 157.194 573.624 158.258 574.996 158.258ZM580.38 148.696H581.836V150.124H580.38V148.696ZM580.632 159V151.58H581.584V159H580.632ZM590.659 152.364H589.063V152.63C589.427 153.078 589.623 153.638 589.623 154.184C589.623 155.542 588.643 156.928 586.557 156.928H586.235C585.395 156.928 584.793 157.25 584.793 157.74C584.793 158.118 585.087 158.384 585.703 158.384H588.713C589.917 158.384 590.533 158.972 590.533 159.896C590.533 161.366 588.839 162.136 586.753 162.136C584.877 162.136 583.575 161.534 583.127 160.232L583.897 159.882C584.415 161.1 585.507 161.338 586.753 161.338C588.293 161.338 589.581 160.876 589.581 159.98C589.581 159.56 589.357 159.252 588.685 159.252H585.493C584.457 159.252 583.841 158.762 583.841 157.992C583.841 157.334 584.387 156.76 585.297 156.522C584.317 156.13 583.771 155.094 583.771 154.184C583.771 152.854 584.765 151.468 586.725 151.468C587.495 151.468 588.083 151.72 588.531 152.098V151.58H590.659V152.364ZM586.711 156.144C588.027 156.144 588.685 155.234 588.685 154.184C588.685 153.148 588.027 152.28 586.711 152.28C585.381 152.28 584.709 153.162 584.709 154.184C584.709 155.22 585.381 156.144 586.711 156.144ZM592.619 150.236C592.157 150.236 591.779 149.872 591.779 149.396C591.779 148.92 592.157 148.556 592.619 148.556C593.081 148.556 593.459 148.92 593.459 149.396C593.459 149.872 593.081 150.236 592.619 150.236ZM592.143 159V151.58H593.095V159H592.143ZM596.991 157.152C596.991 158.02 597.509 158.272 597.971 158.272C598.419 158.272 598.713 158.104 599.063 157.74L599.567 158.3C599.077 158.874 598.545 159.112 597.887 159.112C596.879 159.112 596.039 158.44 596.039 157.124V152.364H594.639V151.58H596.039V149.984L596.991 149.424V151.58H599.399V152.364H596.991V157.152ZM606.451 159H605.583C605.471 158.594 605.387 158.104 605.387 157.544C605.009 158.412 604.043 159.112 602.839 159.112C601.523 159.112 600.529 158.258 600.529 156.984C600.529 155.458 601.901 154.66 603.427 154.66C604.029 154.66 604.617 154.73 605.219 154.94V153.96C605.219 152.994 604.631 152.336 603.483 152.336C602.559 152.336 601.775 152.742 601.383 153.876L600.543 153.624C601.103 152.056 602.237 151.468 603.539 151.468C605.373 151.468 606.143 152.574 606.143 153.848V156.9C606.143 157.74 606.283 158.496 606.451 159ZM605.219 155.92V155.752C604.645 155.514 604.057 155.444 603.483 155.444C602.363 155.444 601.481 155.948 601.481 156.928C601.481 157.824 602.111 158.3 603.007 158.3C603.973 158.3 605.219 157.726 605.219 155.92ZM610.874 158.972C610.65 159.028 610.468 159.056 610.258 159.056C609.096 159.056 608.55 158.328 608.55 157.236V148.64H609.502V157.236C609.502 157.866 609.838 158.188 610.426 158.188C610.58 158.188 610.734 158.174 610.874 158.132V158.972ZM613.958 157.152C613.958 158.02 614.476 158.272 614.938 158.272C615.386 158.272 615.68 158.104 616.03 157.74L616.534 158.3C616.044 158.874 615.512 159.112 614.854 159.112C613.846 159.112 613.006 158.44 613.006 157.124V152.364H611.606V151.58H613.006V149.984L613.958 149.424V151.58H616.366V152.364H613.958V157.152ZM618.105 157.432H619.617V159H618.105V157.432Z" fill="#2A2859"/>
<rect x="235.5" y="182" width="22" height="22" rx="11" fill="#FFDFDC" stroke="#FF8274" stroke-width="2"/>
<path d="M271.252 196.024V187.16H272.372V196.024C272.372 197.976 271.332 199.128 269.508 199.128C268.276 199.128 267.316 198.552 266.82 197.432L267.732 196.92C268.1 197.624 268.548 198.104 269.524 198.104C270.66 198.104 271.252 197.304 271.252 196.024ZM281.152 199H280.16C280.032 198.536 279.936 197.976 279.936 197.336C279.504 198.328 278.4 199.128 277.024 199.128C275.52 199.128 274.384 198.152 274.384 196.696C274.384 194.952 275.952 194.04 277.696 194.04C278.384 194.04 279.056 194.12 279.744 194.36V193.24C279.744 192.136 279.072 191.384 277.76 191.384C276.704 191.384 275.808 191.848 275.36 193.144L274.4 192.856C275.04 191.064 276.336 190.392 277.824 190.392C279.92 190.392 280.8 191.656 280.8 193.112V196.6C280.8 197.56 280.96 198.424 281.152 199ZM279.744 195.48V195.288C279.088 195.016 278.416 194.936 277.76 194.936C276.48 194.936 275.472 195.512 275.472 196.632C275.472 197.656 276.192 198.2 277.216 198.2C278.32 198.2 279.744 197.544 279.744 195.48Z" fill="#2A2859"/>
<rect x="235.5" y="222" width="22" height="22" rx="11" fill="#FFDFDC" stroke="#FF8274" stroke-width="2"/>
<path d="M275.332 227.16H276.42V239H275.428L268.996 229.208V239H267.908V227.16H268.996L275.332 236.872V227.16ZM284.796 236.6L285.596 237.048C285.196 238.072 284.14 239.128 282.252 239.128C279.868 239.128 278.46 237.352 278.46 234.648C278.46 232.168 279.932 230.392 282.14 230.392C283.964 230.392 285.532 231.704 285.532 234.008L285.5 234.952H279.564C279.66 237.208 280.732 238.168 282.364 238.168C283.644 238.168 284.396 237.432 284.796 236.6ZM282.14 231.352C280.86 231.352 279.708 232.04 279.564 234.056H284.46C284.508 232.152 283.388 231.352 282.14 231.352ZM288.176 228.984C287.648 228.984 287.216 228.568 287.216 228.024C287.216 227.48 287.648 227.064 288.176 227.064C288.704 227.064 289.136 227.48 289.136 228.024C289.136 228.568 288.704 228.984 288.176 228.984ZM287.632 239V230.52H288.72V239H287.632Z" fill="#2A2859"/>
<mask id="path-8-inside-1_5863_8275" fill="white">
<path d="M234.5 261H663.5V309H234.5V261Z"/>
</mask>
<path d="M234.5 261H663.5V309H234.5V261Z" fill="#FFDFDC"/>
<path d="M265.687 277.747L269.874 285L265.687 292.253H257.313L253.126 285L257.313 277.747H265.687ZM266.594 276.179H256.406L251.311 285L256.406 293.821H266.594L271.689 285L266.594 276.179ZM265.027 282.36L264.154 281.487L261.507 284.134L258.853 281.48L257.98 282.353L260.634 285.007L257.987 287.654L258.86 288.527L261.507 285.88L264.147 288.52L265.02 287.647L262.38 285.007L265.027 282.36Z" fill="#2A2859"/>
<path d="M281.908 291V279.16H285.78C288.708 279.16 290.964 281.448 290.964 285.016C290.964 288.584 288.708 291 285.78 291H281.908ZM283.028 289.976H285.556C288.02 289.976 289.812 288.312 289.812 285.016C289.812 281.752 288.004 280.184 285.524 280.184H283.028V289.976ZM298.734 288.6L299.534 289.048C299.134 290.072 298.078 291.128 296.19 291.128C293.806 291.128 292.398 289.352 292.398 286.648C292.398 284.168 293.87 282.392 296.078 282.392C297.902 282.392 299.47 283.704 299.47 286.008L299.438 286.952H293.502C293.598 289.208 294.67 290.168 296.302 290.168C297.582 290.168 298.334 289.432 298.734 288.6ZM296.078 283.352C294.798 283.352 293.646 284.04 293.502 286.056H298.398C298.446 284.152 297.326 283.352 296.078 283.352ZM303.11 288.888C303.11 289.88 303.702 290.168 304.23 290.168C304.742 290.168 305.078 289.976 305.478 289.56L306.054 290.2C305.494 290.856 304.886 291.128 304.134 291.128C302.982 291.128 302.022 290.36 302.022 288.856V283.416H300.422V282.52H302.022V280.696L303.11 280.056V282.52H305.862V283.416H303.11V288.888ZM309.097 288.888C309.097 289.88 309.689 290.168 310.217 290.168C310.729 290.168 311.065 289.976 311.465 289.56L312.041 290.2C311.481 290.856 310.873 291.128 310.121 291.128C308.969 291.128 308.009 290.36 308.009 288.856V283.416H306.409V282.52H308.009V280.696L309.097 280.056V282.52H311.849V283.416H309.097V288.888ZM319.009 288.6L319.809 289.048C319.409 290.072 318.353 291.128 316.465 291.128C314.081 291.128 312.673 289.352 312.673 286.648C312.673 284.168 314.145 282.392 316.353 282.392C318.177 282.392 319.745 283.704 319.745 286.008L319.713 286.952H313.777C313.873 289.208 314.945 290.168 316.577 290.168C317.857 290.168 318.609 289.432 319.009 288.6ZM316.353 283.352C315.073 283.352 313.921 284.04 313.777 286.056H318.673C318.721 284.152 317.601 283.352 316.353 283.352ZM327.434 281.336V282.52H329.802V283.416H327.434V291H326.346V283.416H324.746V282.52H326.346V281.336C326.346 279.864 327.306 279.032 328.618 279.032C329.226 279.032 329.93 279.272 330.33 279.912L329.674 280.568C329.418 280.184 329.034 279.96 328.586 279.96C328.026 279.96 327.434 280.296 327.434 281.336ZM336.565 288.6L337.365 289.048C336.965 290.072 335.909 291.128 334.021 291.128C331.637 291.128 330.229 289.352 330.229 286.648C330.229 284.168 331.701 282.392 333.909 282.392C335.733 282.392 337.301 283.704 337.301 286.008L337.269 286.952H331.333C331.429 289.208 332.501 290.168 334.133 290.168C335.413 290.168 336.165 289.432 336.565 288.6ZM333.909 283.352C332.629 283.352 331.477 284.04 331.333 286.056H336.229C336.277 284.152 335.157 283.352 333.909 283.352ZM342.057 290.968C341.801 291.032 341.593 291.064 341.353 291.064C340.025 291.064 339.401 290.232 339.401 288.984V279.16H340.489V288.984C340.489 289.704 340.873 290.072 341.545 290.072C341.721 290.072 341.897 290.056 342.057 290.008V290.968ZM345.381 288.888C345.381 289.88 345.973 290.168 346.501 290.168C347.013 290.168 347.349 289.976 347.749 289.56L348.325 290.2C347.765 290.856 347.157 291.128 346.405 291.128C345.253 291.128 344.293 290.36 344.293 288.856V283.416H342.693V282.52H344.293V280.696L345.381 280.056V282.52H348.133V283.416H345.381V288.888ZM355.293 288.6L356.093 289.048C355.693 290.072 354.637 291.128 352.749 291.128C350.365 291.128 348.957 289.352 348.957 286.648C348.957 284.168 350.429 282.392 352.637 282.392C354.461 282.392 356.029 283.704 356.029 286.008L355.997 286.952H350.061C350.157 289.208 351.229 290.168 352.861 290.168C354.141 290.168 354.893 289.432 355.293 288.6ZM352.637 283.352C351.357 283.352 350.205 284.04 350.061 286.056H354.957C355.005 284.152 353.885 283.352 352.637 283.352ZM359.669 288.888C359.669 289.88 360.261 290.168 360.789 290.168C361.301 290.168 361.637 289.976 362.037 289.56L362.613 290.2C362.053 290.856 361.445 291.128 360.693 291.128C359.541 291.128 358.581 290.36 358.581 288.856V283.416H356.981V282.52H358.581V280.696L359.669 280.056V282.52H362.421V283.416H359.669V288.888ZM376.615 282.392C378.231 282.392 379.175 283.416 379.175 285.176V291H378.087V285.336C378.087 283.96 377.431 283.384 376.327 283.384C374.839 283.384 374.215 284.536 374.215 286.232V291H373.127V285.336C373.127 283.96 372.471 283.384 371.367 283.384C369.879 283.384 369.255 284.536 369.255 286.232V291H368.167V282.52H369.255V283.848C369.767 282.904 370.663 282.392 371.655 282.392C372.919 282.392 373.767 283.016 374.071 284.12C374.551 283 375.527 282.392 376.615 282.392ZM384.616 281.624C383.576 281.624 382.728 280.856 382.728 279.8C382.728 278.744 383.576 277.976 384.616 277.976C385.656 277.976 386.504 278.744 386.504 279.8C386.504 280.856 385.656 281.624 384.616 281.624ZM384.616 278.712C384.008 278.712 383.528 279.096 383.528 279.8C383.528 280.52 384.008 280.888 384.616 280.888C385.224 280.888 385.704 280.52 385.704 279.8C385.704 279.096 385.224 278.712 384.616 278.712ZM387.912 291H386.92C386.792 290.536 386.696 289.976 386.696 289.336C386.264 290.328 385.16 291.128 383.784 291.128C382.28 291.128 381.144 290.152 381.144 288.696C381.144 286.952 382.712 286.04 384.456 286.04C385.144 286.04 385.816 286.12 386.504 286.36V285.24C386.504 284.136 385.832 283.384 384.52 283.384C383.464 283.384 382.568 283.848 382.12 285.144L381.16 284.856C381.8 283.064 383.096 282.392 384.584 282.392C386.68 282.392 387.56 283.656 387.56 285.112V288.6C387.56 289.56 387.72 290.424 387.912 291ZM386.504 287.48V287.288C385.848 287.016 385.176 286.936 384.52 286.936C383.24 286.936 382.232 287.512 382.232 288.632C382.232 289.656 382.952 290.2 383.976 290.2C385.08 290.2 386.504 289.544 386.504 287.48ZM395.7 281.336V282.52H398.068V283.416H395.7V291H394.612V283.416H393.012V282.52H394.612V281.336C394.612 279.864 395.572 279.032 396.884 279.032C397.492 279.032 398.196 279.272 398.596 279.912L397.94 280.568C397.684 280.184 397.3 279.96 396.852 279.96C396.292 279.96 395.7 280.296 395.7 281.336ZM404.654 282.52H405.774L402.046 292.168C401.486 293.608 400.862 294.52 399.55 294.52C398.974 294.52 398.446 294.312 398.046 293.944L398.526 293.16C398.846 293.448 399.15 293.576 399.518 293.576C400.11 293.576 400.526 293.32 400.942 292.344L401.438 291.144L398.254 282.52H399.438L401.998 289.864L404.654 282.52ZM409.838 290.968C409.582 291.032 409.374 291.064 409.134 291.064C407.806 291.064 407.182 290.232 407.182 288.984V279.16H408.27V288.984C408.27 289.704 408.654 290.072 409.326 290.072C409.502 290.072 409.678 290.056 409.838 290.008V290.968ZM414.279 290.968C414.023 291.032 413.815 291.064 413.575 291.064C412.247 291.064 411.623 290.232 411.623 288.984V279.16H412.711V288.984C412.711 289.704 413.095 290.072 413.767 290.072C413.943 290.072 414.119 290.056 414.279 290.008V290.968ZM421.606 288.6L422.406 289.048C422.006 290.072 420.95 291.128 419.062 291.128C416.678 291.128 415.27 289.352 415.27 286.648C415.27 284.168 416.742 282.392 418.95 282.392C420.774 282.392 422.342 283.704 422.342 286.008L422.31 286.952H416.374C416.47 289.208 417.542 290.168 419.174 290.168C420.454 290.168 421.206 289.432 421.606 288.6ZM418.95 283.352C417.67 283.352 416.518 284.04 416.374 286.056H421.27C421.318 284.152 420.198 283.352 418.95 283.352ZM424.026 284.728C424.026 283.384 425.29 282.392 427.066 282.392C428.602 282.392 429.786 283.128 430.138 284.248L429.242 284.6C428.906 283.784 428.122 283.352 427.034 283.352C425.85 283.352 425.082 283.848 425.082 284.632C425.082 285.336 425.546 285.768 426.554 285.976L427.674 286.2C429.53 286.568 430.394 287.368 430.394 288.632C430.394 290.104 429.082 291.128 427.194 291.128C425.482 291.128 424.282 290.456 423.706 289.176L424.634 288.792C425.034 289.688 425.914 290.168 427.162 290.168C428.474 290.168 429.338 289.592 429.338 288.728C429.338 287.928 428.89 287.496 427.77 287.256L426.394 286.968C424.842 286.648 424.026 285.864 424.026 284.728ZM441.157 282.52H442.245V291H441.157V289.704C440.645 290.616 439.749 291.128 438.709 291.128C437.045 291.128 436.037 290.056 436.037 288.216V282.52H437.125V288.12C437.125 289.512 437.829 290.152 439.013 290.152C440.517 290.152 441.157 288.952 441.157 287.288V282.52ZM446.428 288.888C446.428 289.88 447.02 290.168 447.548 290.168C448.06 290.168 448.396 289.976 448.796 289.56L449.372 290.2C448.812 290.856 448.204 291.128 447.452 291.128C446.3 291.128 445.34 290.36 445.34 288.856V283.416H443.74V282.52H445.34V280.696L446.428 280.056V282.52H449.18V283.416H446.428V288.888ZM451.832 291.096C451.256 291.096 450.808 290.664 450.808 290.072C450.808 289.48 451.256 289.048 451.832 289.048C452.408 289.048 452.856 289.48 452.856 290.072C452.856 290.664 452.408 291.096 451.832 291.096Z" fill="#2A2859"/>
<path d="M238.5 309V261H230.5V309H238.5Z" fill="#FF8274" mask="url(#path-8-inside-1_5863_8275)"/>
</svg>
