<svg width="754" height="357" viewBox="0 0 754 357" fill="none" xmlns="http://www.w3.org/2000/svg">
<rect width="754" height="357" fill="white"/>
<path d="M189.862 62.68H191.932V76H189.808V66.226L186.172 72.004H185.326L181.672 66.208V76H179.566V62.68H181.618L185.74 69.232L189.862 62.68ZM202.448 76H200.594C200.45 75.514 200.36 74.938 200.324 74.2C199.874 75.19 198.866 76.162 197.21 76.162C195.482 76.162 194.258 74.992 194.258 73.336C194.258 71.266 196.094 70.24 198.146 70.24C198.794 70.24 199.406 70.294 200.072 70.474V69.574C200.072 68.548 199.424 67.882 198.254 67.882C197.156 67.882 196.382 68.476 196.022 69.592L194.312 69.07C194.996 67.054 196.634 66.244 198.344 66.244C200.882 66.244 202.034 67.738 202.034 69.556V73.246C202.034 74.38 202.214 75.388 202.448 76ZM200.072 72.058V71.842C199.496 71.644 198.938 71.572 198.344 71.572C197.156 71.572 196.238 72.112 196.238 73.156C196.238 74.038 196.868 74.596 197.822 74.596C198.794 74.596 200.072 74.02 200.072 72.058ZM209.669 66.244C211.613 66.244 212.765 67.504 212.765 69.574V76H210.749V69.898C210.749 68.584 210.119 67.99 209.021 67.99C207.599 67.99 206.879 68.98 206.879 70.834V76H204.863V66.46H206.879V67.828C207.527 66.82 208.481 66.244 209.669 66.244ZM221.845 62.68H223.861V76H221.845V74.272C221.107 75.604 219.955 76.144 218.857 76.144C216.553 76.144 214.897 74.164 214.897 71.266C214.897 68.26 216.571 66.262 219.091 66.262C220.171 66.262 221.251 66.748 221.845 67.918V62.68ZM219.397 74.38C220.855 74.38 221.845 73.39 221.845 71.158C221.845 68.944 220.873 67.882 219.397 67.882C218.011 67.882 216.985 68.998 216.985 71.158C216.985 73.3 218.011 74.38 219.397 74.38ZM234.192 76H232.338C232.194 75.514 232.104 74.938 232.068 74.2C231.618 75.19 230.61 76.162 228.954 76.162C227.226 76.162 226.002 74.992 226.002 73.336C226.002 71.266 227.838 70.24 229.89 70.24C230.538 70.24 231.15 70.294 231.816 70.474V69.574C231.816 68.548 231.168 67.882 229.998 67.882C228.9 67.882 228.126 68.476 227.766 69.592L226.056 69.07C226.74 67.054 228.378 66.244 230.088 66.244C232.626 66.244 233.778 67.738 233.778 69.556V73.246C233.778 74.38 233.958 75.388 234.192 76ZM231.816 72.058V71.842C231.24 71.644 230.682 71.572 230.088 71.572C228.9 71.572 227.982 72.112 227.982 73.156C227.982 74.038 228.612 74.596 229.566 74.596C230.538 74.596 231.816 74.02 231.816 72.058ZM245.593 68.026H243.595V68.242C243.919 68.692 244.081 69.214 244.081 69.754C244.081 71.482 242.749 73.21 239.977 73.21H239.509C238.537 73.21 237.907 73.534 237.907 74.11C237.907 74.506 238.213 74.794 238.825 74.794H242.803C244.441 74.794 245.377 75.64 245.377 76.936C245.377 78.898 243.379 80.032 240.193 80.032C237.403 80.032 235.531 79.33 235.045 77.476L237.007 77.098C237.457 78.25 238.501 78.556 240.247 78.556C242.119 78.556 243.451 78.052 243.451 77.17C243.451 76.756 243.217 76.45 242.569 76.45H238.231C236.737 76.45 235.963 75.64 235.963 74.632C235.963 73.66 236.827 72.886 238.015 72.652C236.701 72.076 236.053 70.852 236.053 69.7C236.053 67.99 237.439 66.244 240.085 66.244C241.255 66.244 242.173 66.658 242.713 67.252V66.46H245.593V68.026ZM240.085 71.752C241.471 71.752 242.119 70.78 242.119 69.736C242.119 68.692 241.471 67.738 240.085 67.738C238.717 67.738 238.051 68.692 238.051 69.736C238.051 70.78 238.717 71.752 240.085 71.752Z" fill="#2A2859"/>
<rect x="179" y="93" width="114" height="46" fill="white"/>
<path d="M200.57 120.956H203.522V122H196.25V120.956H199.346V110.084L196.43 112.1V110.768L199.418 108.68H200.57V120.956ZM211.326 122.144C208.266 122.144 206.502 119.606 206.502 115.268C206.502 111.434 208.392 108.536 211.794 108.536C213.648 108.536 214.926 109.472 215.52 110.93L214.422 111.47C213.954 110.354 212.91 109.652 211.722 109.652C209.076 109.652 207.384 112.082 207.726 116.348C208.338 114.494 209.922 113.558 211.524 113.558C213.576 113.558 215.682 115.142 215.682 117.788C215.682 119.93 214.242 122.144 211.326 122.144ZM208.266 117.824C208.266 119.894 209.706 121.028 211.398 121.028C213.09 121.028 214.458 119.912 214.458 117.824C214.458 116.06 213.126 114.71 211.362 114.71C209.76 114.71 208.266 115.754 208.266 117.824ZM219.651 115.772C219.003 115.772 218.499 115.286 218.499 114.62C218.499 113.954 219.003 113.468 219.651 113.468C220.299 113.468 220.803 113.954 220.803 114.62C220.803 115.286 220.299 115.772 219.651 115.772ZM219.651 122.108C219.003 122.108 218.499 121.622 218.499 120.956C218.499 120.29 219.003 119.804 219.651 119.804C220.299 119.804 220.803 120.29 220.803 120.956C220.803 121.622 220.299 122.108 219.651 122.108ZM228.234 122.144C225.606 122.144 223.374 119.66 223.374 115.34C223.374 111.02 225.588 108.536 228.234 108.536C230.88 108.536 233.094 111.02 233.094 115.34C233.094 119.66 230.862 122.144 228.234 122.144ZM228.234 120.956C230.214 120.956 231.834 119.318 231.834 115.34C231.834 111.452 230.232 109.724 228.234 109.724C226.236 109.724 224.634 111.452 224.634 115.34C224.634 119.318 226.254 120.956 228.234 120.956ZM239.548 122.144C236.92 122.144 234.688 119.66 234.688 115.34C234.688 111.02 236.902 108.536 239.548 108.536C242.194 108.536 244.408 111.02 244.408 115.34C244.408 119.66 242.176 122.144 239.548 122.144ZM239.548 120.956C241.528 120.956 243.148 119.318 243.148 115.34C243.148 111.452 241.546 109.724 239.548 109.724C237.55 109.724 235.948 111.452 235.948 115.34C235.948 119.318 237.568 120.956 239.548 120.956Z" fill="#2A2859"/>
<path d="M266 109.25V116L271.25 115.554V117.5H264.5V109.25H266Z" fill="#2A2859"/>
<path fill-rule="evenodd" clip-rule="evenodd" d="M254.75 116C254.75 109.787 259.787 104.75 266 104.75C272.213 104.75 277.25 109.787 277.25 116C277.25 122.214 272.213 127.25 266 127.25C259.787 127.25 254.75 122.214 254.75 116ZM256.362 116C256.362 121.322 260.677 125.638 266 125.638C271.323 125.638 275.638 121.322 275.638 116C275.638 110.677 271.323 106.362 266 106.362C260.677 106.362 256.362 110.677 256.362 116Z" fill="#2A2859"/>
<rect x="179" y="93" width="114" height="46" stroke="#2A2859" stroke-width="2"/>
<path d="M307.744 119.39C307.744 120.488 308.41 120.812 309.022 120.812C309.58 120.812 309.976 120.596 310.408 120.146L311.146 121.1C310.48 121.838 309.742 122.144 308.824 122.144C307.384 122.144 306.196 121.226 306.196 119.426V113.702H304.45V112.46H306.196V110.372L307.744 109.58V112.46H310.948V113.702H307.744V119.39ZM313.75 110.786C313.066 110.786 312.526 110.264 312.526 109.562C312.526 108.878 313.066 108.356 313.75 108.356C314.416 108.356 314.956 108.878 314.956 109.562C314.956 110.264 314.416 110.786 313.75 110.786ZM312.976 122V112.46H314.524V122H312.976ZM320.747 121.964C320.423 122.036 320.135 122.09 319.811 122.09C318.191 122.09 317.417 121.1 317.417 119.552V108.68H318.965V119.48C318.965 120.308 319.415 120.704 320.171 120.704C320.351 120.704 320.549 120.686 320.747 120.632V121.964Z" fill="#2A2859"/>
<rect x="333" y="93" width="114" height="46" fill="white"/>
<path d="M351.276 120.848H358.296V122H349.584V121.064L354.372 115.736C355.794 114.17 356.388 113.306 356.388 112.1C356.388 110.75 355.488 109.652 353.724 109.652C352.356 109.652 351.186 110.264 350.592 111.938L349.476 111.56C350.34 109.364 351.888 108.536 353.778 108.536C356.352 108.536 357.648 110.3 357.648 111.992C357.648 113.468 357.09 114.458 355.218 116.528L351.276 120.848ZM365.074 122.144C362.446 122.144 360.214 119.66 360.214 115.34C360.214 111.02 362.428 108.536 365.074 108.536C367.72 108.536 369.934 111.02 369.934 115.34C369.934 119.66 367.702 122.144 365.074 122.144ZM365.074 120.956C367.054 120.956 368.674 119.318 368.674 115.34C368.674 111.452 367.072 109.724 365.074 109.724C363.076 109.724 361.474 111.452 361.474 115.34C361.474 119.318 363.094 120.956 365.074 120.956ZM373.651 115.772C373.003 115.772 372.499 115.286 372.499 114.62C372.499 113.954 373.003 113.468 373.651 113.468C374.299 113.468 374.803 113.954 374.803 114.62C374.803 115.286 374.299 115.772 373.651 115.772ZM373.651 122.108C373.003 122.108 372.499 121.622 372.499 120.956C372.499 120.29 373.003 119.804 373.651 119.804C374.299 119.804 374.803 120.29 374.803 120.956C374.803 121.622 374.299 122.108 373.651 122.108ZM382.234 122.144C379.606 122.144 377.374 119.66 377.374 115.34C377.374 111.02 379.588 108.536 382.234 108.536C384.88 108.536 387.094 111.02 387.094 115.34C387.094 119.66 384.862 122.144 382.234 122.144ZM382.234 120.956C384.214 120.956 385.834 119.318 385.834 115.34C385.834 111.452 384.232 109.724 382.234 109.724C380.236 109.724 378.634 111.452 378.634 115.34C378.634 119.318 380.254 120.956 382.234 120.956ZM393.548 122.144C390.92 122.144 388.688 119.66 388.688 115.34C388.688 111.02 390.902 108.536 393.548 108.536C396.194 108.536 398.408 111.02 398.408 115.34C398.408 119.66 396.176 122.144 393.548 122.144ZM393.548 120.956C395.528 120.956 397.148 119.318 397.148 115.34C397.148 111.452 395.546 109.724 393.548 109.724C391.55 109.724 389.948 111.452 389.948 115.34C389.948 119.318 391.568 120.956 393.548 120.956Z" fill="#2A2859"/>
<path d="M420 109.25V116L425.25 115.554V117.5H418.5V109.25H420Z" fill="#2A2859"/>
<path fill-rule="evenodd" clip-rule="evenodd" d="M408.75 116C408.75 109.787 413.787 104.75 420 104.75C426.213 104.75 431.25 109.787 431.25 116C431.25 122.214 426.213 127.25 420 127.25C413.787 127.25 408.75 122.214 408.75 116ZM410.362 116C410.362 121.322 414.677 125.638 420 125.638C425.323 125.638 429.638 121.322 429.638 116C429.638 110.677 425.323 106.362 420 106.362C414.677 106.362 410.362 110.677 410.362 116Z" fill="#2A2859"/>
<rect x="333" y="93" width="114" height="46" stroke="#2A2859" stroke-width="2"/>
<rect x="479" y="103.5" width="39" height="25" rx="12.5" fill="#2A2859" stroke="#2A2859" stroke-width="2"/>
<g clip-path="url(#clip0_5931_11314)">
<circle cx="505.5" cy="116" r="11.7188" fill="white"/>
<path fill-rule="evenodd" clip-rule="evenodd" d="M511.519 113.042L503.935 120.626L499.477 116.167L500.581 115.063L503.935 118.416L510.414 111.938L511.519 113.042Z" fill="#2A2859"/>
</g>
<path d="M532.376 109.632C531.256 109.632 530.344 108.8 530.344 107.664C530.344 106.528 531.256 105.696 532.376 105.696C533.496 105.696 534.408 106.528 534.408 107.664C534.408 108.8 533.496 109.632 532.376 109.632ZM532.376 106.496C531.72 106.496 531.208 106.896 531.208 107.664C531.208 108.448 531.72 108.832 532.376 108.832C533.032 108.832 533.544 108.448 533.544 107.664C533.544 106.896 533.032 106.496 532.376 106.496ZM536.072 122L534.84 118.384H529.88L528.632 122H527.48L531.704 110.16H533.064L537.256 122H536.072ZM530.216 117.392H534.504L532.376 111.104L530.216 117.392ZM542.782 113.408C544.942 113.408 546.398 115.216 546.398 117.68C546.398 120.288 544.926 122.128 542.654 122.128C541.47 122.128 540.51 121.536 539.998 120.464V125.36H538.91V113.52H539.998V115.104C540.558 114.016 541.678 113.408 542.782 113.408ZM542.654 121.168C544.238 121.168 545.278 119.952 545.278 117.728C545.278 115.584 544.238 114.368 542.67 114.368C540.974 114.368 539.998 115.632 539.998 117.712C539.998 119.92 540.958 121.168 542.654 121.168ZM554.206 119.6L555.006 120.048C554.606 121.072 553.55 122.128 551.662 122.128C549.278 122.128 547.87 120.352 547.87 117.648C547.87 115.168 549.342 113.392 551.55 113.392C553.374 113.392 554.942 114.704 554.942 117.008L554.91 117.952H548.974C549.07 120.208 550.142 121.168 551.774 121.168C553.054 121.168 553.806 120.432 554.206 119.6ZM551.55 114.352C550.27 114.352 549.118 115.04 548.974 117.056H553.87C553.918 115.152 552.798 114.352 551.55 114.352ZM560.594 113.392C562.29 113.392 563.282 114.432 563.282 116.336V122H562.194V116.496C562.194 114.96 561.49 114.384 560.306 114.384C558.818 114.384 558.13 115.536 558.13 117.232V122H557.042V113.52H558.13V114.832C558.642 113.904 559.57 113.392 560.594 113.392ZM567.397 119.888C567.397 120.88 567.989 121.168 568.517 121.168C569.029 121.168 569.365 120.976 569.765 120.56L570.341 121.2C569.781 121.856 569.173 122.128 568.421 122.128C567.269 122.128 566.309 121.36 566.309 119.856V114.416H564.709V113.52H566.309V111.696L567.397 111.056V113.52H570.149V114.416H567.397V119.888Z" fill="#2A2859"/>
<path d="M188.62 223.68V225.624H184.642V237H182.536V225.624H178.558V223.68H188.62ZM191.112 225.876C190.32 225.876 189.69 225.264 189.69 224.454C189.69 223.644 190.32 223.032 191.112 223.032C191.904 223.032 192.516 223.644 192.516 224.454C192.516 225.264 191.904 225.876 191.112 225.876ZM190.104 237V227.46H192.12V237H190.104ZM199.375 227.244C200.761 227.244 201.661 228.162 201.661 229.8V231.06L200.041 231.348V230.376C200.041 229.512 199.735 228.918 198.799 228.918C197.773 228.918 197.017 229.602 197.017 231.42V237H195.001V227.46H197.017V228.738C197.557 227.676 198.547 227.244 199.375 227.244ZM202.928 230.088C202.928 228.468 204.422 227.244 206.672 227.244C208.526 227.244 209.768 227.91 210.434 229.188L209.03 230.052C208.598 229.314 207.734 228.864 206.654 228.864C205.574 228.864 204.836 229.278 204.836 229.962C204.836 230.52 205.214 230.862 206.06 231.024L207.662 231.348C209.678 231.744 210.686 232.698 210.686 234.156C210.686 235.956 209.12 237.162 206.762 237.162C204.764 237.162 203.342 236.406 202.604 235.02L204.008 234.138C204.53 235.02 205.448 235.524 206.708 235.524C207.932 235.524 208.76 235.038 208.76 234.246C208.76 233.598 208.364 233.238 207.482 233.058L205.718 232.716C203.918 232.374 202.928 231.456 202.928 230.088ZM218.92 223.68H220.936V237H218.92V235.272C218.182 236.604 217.03 237.144 215.932 237.144C213.628 237.144 211.972 235.164 211.972 232.266C211.972 229.26 213.646 227.262 216.166 227.262C217.246 227.262 218.326 227.748 218.92 228.918V223.68ZM216.472 235.38C217.93 235.38 218.92 234.39 218.92 232.158C218.92 229.944 217.948 228.882 216.472 228.882C215.086 228.882 214.06 229.998 214.06 232.158C214.06 234.3 215.086 235.38 216.472 235.38ZM231.267 237H229.413C229.269 236.514 229.179 235.938 229.143 235.2C228.693 236.19 227.685 237.162 226.029 237.162C224.301 237.162 223.077 235.992 223.077 234.336C223.077 232.266 224.913 231.24 226.965 231.24C227.613 231.24 228.225 231.294 228.891 231.474V230.574C228.891 229.548 228.243 228.882 227.073 228.882C225.975 228.882 225.201 229.476 224.841 230.592L223.131 230.07C223.815 228.054 225.453 227.244 227.163 227.244C229.701 227.244 230.853 228.738 230.853 230.556V234.246C230.853 235.38 231.033 236.388 231.267 237ZM228.891 233.058V232.842C228.315 232.644 227.757 232.572 227.163 232.572C225.975 232.572 225.057 233.112 225.057 234.156C225.057 235.038 225.687 235.596 226.641 235.596C227.613 235.596 228.891 235.02 228.891 233.058ZM242.668 229.026H240.67V229.242C240.994 229.692 241.156 230.214 241.156 230.754C241.156 232.482 239.824 234.21 237.052 234.21H236.584C235.612 234.21 234.982 234.534 234.982 235.11C234.982 235.506 235.288 235.794 235.9 235.794H239.878C241.516 235.794 242.452 236.64 242.452 237.936C242.452 239.898 240.454 241.032 237.268 241.032C234.478 241.032 232.606 240.33 232.12 238.476L234.082 238.098C234.532 239.25 235.576 239.556 237.322 239.556C239.194 239.556 240.526 239.052 240.526 238.17C240.526 237.756 240.292 237.45 239.644 237.45H235.306C233.812 237.45 233.038 236.64 233.038 235.632C233.038 234.66 233.902 233.886 235.09 233.652C233.776 233.076 233.128 231.852 233.128 230.7C233.128 228.99 234.514 227.244 237.16 227.244C238.33 227.244 239.248 227.658 239.788 228.252V227.46H242.668V229.026ZM237.16 232.752C238.546 232.752 239.194 231.78 239.194 230.736C239.194 229.692 238.546 228.738 237.16 228.738C235.792 228.738 235.126 229.692 235.126 230.736C235.126 231.78 235.792 232.752 237.16 232.752Z" fill="#666666"/>
<rect x="179" y="254" width="114" height="46" fill="#F9F9F9"/>
<path d="M199.76 283.144C197.132 283.144 194.9 280.66 194.9 276.34C194.9 272.02 197.114 269.536 199.76 269.536C202.406 269.536 204.62 272.02 204.62 276.34C204.62 280.66 202.388 283.144 199.76 283.144ZM199.76 281.956C201.74 281.956 203.36 280.318 203.36 276.34C203.36 272.452 201.758 270.724 199.76 270.724C197.762 270.724 196.16 272.452 196.16 276.34C196.16 280.318 197.78 281.956 199.76 281.956ZM211.074 283.144C208.446 283.144 206.214 280.66 206.214 276.34C206.214 272.02 208.428 269.536 211.074 269.536C213.72 269.536 215.934 272.02 215.934 276.34C215.934 280.66 213.702 283.144 211.074 283.144ZM211.074 281.956C213.054 281.956 214.674 280.318 214.674 276.34C214.674 272.452 213.072 270.724 211.074 270.724C209.076 270.724 207.474 272.452 207.474 276.34C207.474 280.318 209.094 281.956 211.074 281.956ZM219.651 276.772C219.003 276.772 218.499 276.286 218.499 275.62C218.499 274.954 219.003 274.468 219.651 274.468C220.299 274.468 220.803 274.954 220.803 275.62C220.803 276.286 220.299 276.772 219.651 276.772ZM219.651 283.108C219.003 283.108 218.499 282.622 218.499 281.956C218.499 281.29 219.003 280.804 219.651 280.804C220.299 280.804 220.803 281.29 220.803 281.956C220.803 282.622 220.299 283.108 219.651 283.108ZM228.234 283.144C225.606 283.144 223.374 280.66 223.374 276.34C223.374 272.02 225.588 269.536 228.234 269.536C230.88 269.536 233.094 272.02 233.094 276.34C233.094 280.66 230.862 283.144 228.234 283.144ZM228.234 281.956C230.214 281.956 231.834 280.318 231.834 276.34C231.834 272.452 230.232 270.724 228.234 270.724C226.236 270.724 224.634 272.452 224.634 276.34C224.634 280.318 226.254 281.956 228.234 281.956ZM239.548 283.144C236.92 283.144 234.688 280.66 234.688 276.34C234.688 272.02 236.902 269.536 239.548 269.536C242.194 269.536 244.408 272.02 244.408 276.34C244.408 280.66 242.176 283.144 239.548 283.144ZM239.548 281.956C241.528 281.956 243.148 280.318 243.148 276.34C243.148 272.452 241.546 270.724 239.548 270.724C237.55 270.724 235.948 272.452 235.948 276.34C235.948 280.318 237.568 281.956 239.548 281.956Z" fill="#666666"/>
<path d="M266 270.25V277L271.25 276.554V278.5H264.5V270.25H266Z" fill="#666666"/>
<path fill-rule="evenodd" clip-rule="evenodd" d="M254.75 277C254.75 270.787 259.787 265.75 266 265.75C272.213 265.75 277.25 270.787 277.25 277C277.25 283.214 272.213 288.25 266 288.25C259.787 288.25 254.75 283.214 254.75 277ZM256.362 277C256.362 282.322 260.677 286.638 266 286.638C271.323 286.638 275.638 282.322 275.638 277C275.638 271.677 271.323 267.362 266 267.362C260.677 267.362 256.362 271.677 256.362 277Z" fill="#666666"/>
<rect x="179" y="254" width="114" height="46" stroke="#B3B3B3" stroke-width="2"/>
<path d="M307.744 280.39C307.744 281.488 308.41 281.812 309.022 281.812C309.58 281.812 309.976 281.596 310.408 281.146L311.146 282.1C310.48 282.838 309.742 283.144 308.824 283.144C307.384 283.144 306.196 282.226 306.196 280.426V274.702H304.45V273.46H306.196V271.372L307.744 270.58V273.46H310.948V274.702H307.744V280.39ZM313.75 271.786C313.066 271.786 312.526 271.264 312.526 270.562C312.526 269.878 313.066 269.356 313.75 269.356C314.416 269.356 314.956 269.878 314.956 270.562C314.956 271.264 314.416 271.786 313.75 271.786ZM312.976 283V273.46H314.524V283H312.976ZM320.747 282.964C320.423 283.036 320.135 283.09 319.811 283.09C318.191 283.09 317.417 282.1 317.417 280.552V269.68H318.965V280.48C318.965 281.308 319.415 281.704 320.171 281.704C320.351 281.704 320.549 281.686 320.747 281.632V282.964Z" fill="#4D4D4D"/>
<rect x="333" y="254" width="114" height="46" fill="#F9F9F9"/>
<path d="M353.76 283.144C351.132 283.144 348.9 280.66 348.9 276.34C348.9 272.02 351.114 269.536 353.76 269.536C356.406 269.536 358.62 272.02 358.62 276.34C358.62 280.66 356.388 283.144 353.76 283.144ZM353.76 281.956C355.74 281.956 357.36 280.318 357.36 276.34C357.36 272.452 355.758 270.724 353.76 270.724C351.762 270.724 350.16 272.452 350.16 276.34C350.16 280.318 351.78 281.956 353.76 281.956ZM365.074 283.144C362.446 283.144 360.214 280.66 360.214 276.34C360.214 272.02 362.428 269.536 365.074 269.536C367.72 269.536 369.934 272.02 369.934 276.34C369.934 280.66 367.702 283.144 365.074 283.144ZM365.074 281.956C367.054 281.956 368.674 280.318 368.674 276.34C368.674 272.452 367.072 270.724 365.074 270.724C363.076 270.724 361.474 272.452 361.474 276.34C361.474 280.318 363.094 281.956 365.074 281.956ZM373.651 276.772C373.003 276.772 372.499 276.286 372.499 275.62C372.499 274.954 373.003 274.468 373.651 274.468C374.299 274.468 374.803 274.954 374.803 275.62C374.803 276.286 374.299 276.772 373.651 276.772ZM373.651 283.108C373.003 283.108 372.499 282.622 372.499 281.956C372.499 281.29 373.003 280.804 373.651 280.804C374.299 280.804 374.803 281.29 374.803 281.956C374.803 282.622 374.299 283.108 373.651 283.108ZM382.234 283.144C379.606 283.144 377.374 280.66 377.374 276.34C377.374 272.02 379.588 269.536 382.234 269.536C384.88 269.536 387.094 272.02 387.094 276.34C387.094 280.66 384.862 283.144 382.234 283.144ZM382.234 281.956C384.214 281.956 385.834 280.318 385.834 276.34C385.834 272.452 384.232 270.724 382.234 270.724C380.236 270.724 378.634 272.452 378.634 276.34C378.634 280.318 380.254 281.956 382.234 281.956ZM393.548 283.144C390.92 283.144 388.688 280.66 388.688 276.34C388.688 272.02 390.902 269.536 393.548 269.536C396.194 269.536 398.408 272.02 398.408 276.34C398.408 280.66 396.176 283.144 393.548 283.144ZM393.548 281.956C395.528 281.956 397.148 280.318 397.148 276.34C397.148 272.452 395.546 270.724 393.548 270.724C391.55 270.724 389.948 272.452 389.948 276.34C389.948 280.318 391.568 281.956 393.548 281.956Z" fill="#666666"/>
<path d="M420 270.25V277L425.25 276.554V278.5H418.5V270.25H420Z" fill="#666666"/>
<path fill-rule="evenodd" clip-rule="evenodd" d="M408.75 277C408.75 270.787 413.787 265.75 420 265.75C426.213 265.75 431.25 270.787 431.25 277C431.25 283.214 426.213 288.25 420 288.25C413.787 288.25 408.75 283.214 408.75 277ZM410.362 277C410.362 282.322 414.677 286.638 420 286.638C425.323 286.638 429.638 282.322 429.638 277C429.638 271.677 425.323 267.362 420 267.362C414.677 267.362 410.362 271.677 410.362 277Z" fill="#666666"/>
<rect x="333" y="254" width="114" height="46" stroke="#B3B3B3" stroke-width="2"/>
<rect x="479" y="264.5" width="39" height="25" rx="12.5" stroke="#2A2859" stroke-width="2"/>
<g clip-path="url(#clip1_5931_11314)">
<circle cx="490.5" cy="277" r="10.7188" stroke="#2A2859" stroke-width="2"/>
</g>
<path d="M528.184 274.296C528.184 272.312 529.992 271.032 532.088 271.032C534.024 271.032 535.336 271.864 535.928 273.352L534.872 273.784C534.392 272.648 533.32 272.024 532.088 272.024C530.456 272.024 529.304 272.856 529.304 274.168C529.304 275.272 529.96 275.944 531.352 276.216L533.208 276.568C535.032 276.92 536.376 277.896 536.376 279.672C536.376 281.496 534.84 283.128 532.248 283.128C530.2 283.128 528.664 282.424 527.832 280.664L528.856 280.248C529.656 281.816 530.984 282.136 532.28 282.136C534.216 282.136 535.256 281.016 535.256 279.736C535.256 278.312 534.296 277.896 532.856 277.624L531.16 277.304C529.512 277 528.184 276.088 528.184 274.296ZM539.935 280.888C539.935 281.88 540.527 282.168 541.055 282.168C541.567 282.168 541.903 281.976 542.303 281.56L542.879 282.2C542.319 282.856 541.711 283.128 540.959 283.128C539.807 283.128 538.847 282.36 538.847 280.856V275.416H537.247V274.52H538.847V272.696L539.935 272.056V274.52H542.687V275.416H539.935V280.888ZM549.846 280.6L550.646 281.048C550.246 282.072 549.19 283.128 547.302 283.128C544.918 283.128 543.51 281.352 543.51 278.648C543.51 276.168 544.982 274.392 547.19 274.392C549.014 274.392 550.582 275.704 550.582 278.008L550.55 278.952H544.614C544.71 281.208 545.782 282.168 547.414 282.168C548.694 282.168 549.446 281.432 549.846 280.6ZM547.19 275.352C545.91 275.352 544.758 276.04 544.614 278.056H549.51C549.558 276.152 548.438 275.352 547.19 275.352ZM556.234 274.392C557.93 274.392 558.922 275.432 558.922 277.336V283H557.834V277.496C557.834 275.96 557.13 275.384 555.946 275.384C554.458 275.384 553.77 276.536 553.77 278.232V283H552.682V274.52H553.77V275.832C554.282 274.904 555.21 274.392 556.234 274.392ZM568.958 275.416H567.134V275.72C567.55 276.232 567.774 276.872 567.774 277.496C567.774 279.048 566.654 280.632 564.27 280.632H563.902C562.942 280.632 562.254 281 562.254 281.56C562.254 281.992 562.59 282.296 563.294 282.296H566.734C568.11 282.296 568.814 282.968 568.814 284.024C568.814 285.704 566.878 286.584 564.494 286.584C562.35 286.584 560.862 285.896 560.35 284.408L561.23 284.008C561.822 285.4 563.07 285.672 564.494 285.672C566.254 285.672 567.726 285.144 567.726 284.12C567.726 283.64 567.47 283.288 566.702 283.288H563.054C561.87 283.288 561.166 282.728 561.166 281.848C561.166 281.096 561.79 280.44 562.83 280.168C561.71 279.72 561.086 278.536 561.086 277.496C561.086 275.976 562.222 274.392 564.462 274.392C565.342 274.392 566.014 274.68 566.526 275.112V274.52H568.958V275.416ZM564.446 279.736C565.95 279.736 566.702 278.696 566.702 277.496C566.702 276.312 565.95 275.32 564.446 275.32C562.926 275.32 562.158 276.328 562.158 277.496C562.158 278.68 562.926 279.736 564.446 279.736ZM571.994 280.888C571.994 281.88 572.586 282.168 573.114 282.168C573.626 282.168 573.962 281.976 574.362 281.56L574.938 282.2C574.378 282.856 573.77 283.128 573.018 283.128C571.866 283.128 570.906 282.36 570.906 280.856V275.416H569.306V274.52H570.906V272.696L571.994 272.056V274.52H574.746V275.416H571.994V280.888Z" fill="#2A2859"/>
<defs>
<clipPath id="clip0_5931_11314">
<rect width="25" height="25" fill="white" transform="translate(493 103.5)"/>
</clipPath>
<clipPath id="clip1_5931_11314">
<rect width="25" height="25" fill="white" transform="translate(478 264.5)"/>
</clipPath>
</defs>
</svg>
