<svg width="1116" height="387" viewBox="0 0 1116 387" fill="none" xmlns="http://www.w3.org/2000/svg">
<g clip-path="url(#clip0_5931_11154)">
<rect width="1116" height="387" fill="white"/>
<mask id="path-1-inside-1_5931_11154" fill="white">
<path d="M0 55H552V387H0V55Z"/>
</mask>
<path d="M0 55H552V387H0V55Z" fill="white"/>
<path d="M552 387V388H553V387H552ZM0 387H-1V388H0V387ZM551 55V387H553V55H551ZM552 386H0V388H552V386ZM1 387V55H-1V387H1Z" fill="#E6E6E6" mask="url(#path-1-inside-1_5931_11154)"/>
<mask id="path-3-inside-2_5931_11154" fill="white">
<path d="M563 55H1116V387H563V55Z"/>
</mask>
<path d="M563 55H1116V387H563V55Z" fill="white"/>
<path d="M1116 387V388H1117V387H1116ZM563 387H562V388H563V387ZM1115 55V387H1117V55H1115ZM1116 386H563V388H1116V386ZM564 387V55H562V387H564Z" fill="#E6E6E6" mask="url(#path-3-inside-2_5931_11154)"/>
<rect x="0.5" y="0.5" width="550.12" height="53.97" stroke="#E6E6E6"/>
<rect x="563.575" y="0.5" width="551.316" height="53.97" stroke="#E6E6E6"/>
<path d="M0 43.9761H551.12V54.9701H0V43.9761Z" fill="#C7F6C9"/>
<path opacity="0.6" d="M563 43.9761H1115.32V54.9701H563V43.9761Z" fill="#FF8274"/>
<path d="M17.8891 19.36C17.8891 17.328 19.7451 16.016 21.9371 16.016C23.8411 16.016 25.2331 16.784 25.9531 18.304L24.7051 18.944C24.2091 17.888 23.1371 17.28 21.9211 17.28C20.3851 17.28 19.3291 18.032 19.3291 19.232C19.3291 20.224 19.9211 20.848 21.2171 21.088L23.0571 21.408C24.9931 21.744 26.3691 22.784 26.3691 24.608C26.3691 26.512 24.7691 28.144 22.0811 28.144C20.0491 28.144 18.4491 27.44 17.5531 25.696L18.8011 25.04C19.5691 26.528 20.8811 26.864 22.0971 26.864C23.8891 26.864 24.9131 25.872 24.9131 24.672C24.9131 23.424 24.0811 23.008 22.7691 22.768L20.9291 22.448C19.1851 22.144 17.8891 21.152 17.8891 19.36ZM31.4505 27.968C31.1625 28.032 30.9065 28.08 30.6185 28.08C29.1785 28.08 28.4905 27.2 28.4905 25.824V16.16H29.8665V25.76C29.8665 26.496 30.2665 26.848 30.9385 26.848C31.0985 26.848 31.2745 26.832 31.4505 26.784V27.968ZM33.916 18.032C33.308 18.032 32.828 17.568 32.828 16.944C32.828 16.336 33.308 15.872 33.916 15.872C34.508 15.872 34.988 16.336 34.988 16.944C34.988 17.568 34.508 18.032 33.916 18.032ZM33.228 28V19.52H34.604V28H33.228ZM42.465 28L39.553 23.92L38.545 24.912V28H37.169V16.16H38.545V23.328L42.337 19.52H44.081L40.481 23.024L44.145 28H42.465Z" fill="#2A2859"/>
<path d="M593.042 16.16H594.466V28H593.042V22.72H587.426V28H586.002V16.16H587.426V21.36H593.042V16.16ZM602.827 25.488L603.803 26.032C603.355 27.088 602.283 28.144 600.379 28.144C597.931 28.144 596.475 26.32 596.475 23.664C596.475 21.136 598.027 19.36 600.251 19.36C602.139 19.36 603.755 20.688 603.755 23.04L603.723 24.016H597.851C597.947 26.096 598.955 26.976 600.491 26.976C601.659 26.976 602.411 26.304 602.827 25.488ZM600.251 20.512C599.051 20.512 598.011 21.136 597.851 22.944H602.411C602.427 21.232 601.387 20.512 600.251 20.512ZM608.764 27.968C608.476 28.032 608.22 28.08 607.932 28.08C606.492 28.08 605.804 27.2 605.804 25.824V16.16H607.18V25.76C607.18 26.496 607.58 26.848 608.252 26.848C608.412 26.848 608.588 26.832 608.764 26.784V27.968ZM610.078 21.776C610.078 20.4 611.374 19.36 613.246 19.36C614.814 19.36 615.966 20.048 616.414 21.168L615.374 21.696C615.022 20.944 614.254 20.528 613.214 20.528C612.126 20.528 611.406 20.96 611.406 21.68C611.406 22.304 611.806 22.672 612.718 22.864L613.95 23.104C615.79 23.472 616.67 24.288 616.67 25.568C616.67 27.088 615.326 28.128 613.342 28.128C611.614 28.128 610.382 27.456 609.774 26.208L610.83 25.648C611.262 26.512 612.11 26.976 613.31 26.976C614.526 26.976 615.342 26.448 615.342 25.648C615.342 24.944 614.926 24.56 613.95 24.352L612.494 24.064C610.926 23.744 610.078 22.944 610.078 21.776ZM620.372 25.68C620.372 26.656 620.964 26.944 621.508 26.944C622.004 26.944 622.356 26.752 622.74 26.352L623.396 27.2C622.804 27.856 622.148 28.128 621.332 28.128C620.052 28.128 618.996 27.312 618.996 25.712V20.624H617.444V19.52H618.996V17.664L620.372 16.96V19.52H623.22V20.624H620.372V25.68ZM629.582 18.032C628.974 18.032 628.494 17.568 628.494 16.944C628.494 16.336 628.974 15.872 629.582 15.872C630.174 15.872 630.654 16.336 630.654 16.944C630.654 17.568 630.174 18.032 629.582 18.032ZM628.894 28V19.52H630.27V28H628.894ZM638.131 28L635.219 23.92L634.211 24.912V28H632.835V16.16H634.211V23.328L638.003 19.52H639.747L636.147 23.024L639.811 28H638.131ZM646.713 28L643.801 23.92L642.793 24.912V28H641.417V16.16H642.793V23.328L646.585 19.52H648.329L644.729 23.024L648.393 28H646.713ZM655.149 25.488L656.125 26.032C655.677 27.088 654.605 28.144 652.701 28.144C650.253 28.144 648.797 26.32 648.797 23.664C648.797 21.136 650.349 19.36 652.573 19.36C654.461 19.36 656.077 20.688 656.077 23.04L656.045 24.016H650.173C650.269 26.096 651.277 26.976 652.813 26.976C653.981 26.976 654.733 26.304 655.149 25.488ZM652.573 20.512C651.373 20.512 650.333 21.136 650.173 22.944H654.733C654.749 21.232 653.709 20.512 652.573 20.512ZM661.587 21.776C661.587 20.4 662.883 19.36 664.755 19.36C666.323 19.36 667.475 20.048 667.923 21.168L666.883 21.696C666.531 20.944 665.763 20.528 664.723 20.528C663.635 20.528 662.915 20.96 662.915 21.68C662.915 22.304 663.315 22.672 664.227 22.864L665.459 23.104C667.299 23.472 668.179 24.288 668.179 25.568C668.179 27.088 666.835 28.128 664.851 28.128C663.123 28.128 661.891 27.456 661.283 26.208L662.339 25.648C662.771 26.512 663.619 26.976 664.819 26.976C666.035 26.976 666.851 26.448 666.851 25.648C666.851 24.944 666.435 24.56 665.459 24.352L664.003 24.064C662.435 23.744 661.587 22.944 661.587 21.776ZM673.014 27.968C672.726 28.032 672.47 28.08 672.182 28.08C670.742 28.08 670.054 27.2 670.054 25.824V16.16H671.43V25.76C671.43 26.496 671.83 26.848 672.502 26.848C672.662 26.848 672.838 26.832 673.014 26.784V27.968ZM674.535 16.064H676.423V17.92H674.535V16.064ZM674.791 28V19.52H676.167V28H674.791ZM684.028 28L681.116 23.92L680.108 24.912V28H678.732V16.16H680.108V23.328L683.9 19.52H685.644L682.044 23.024L685.708 28H684.028Z" fill="#2A2859"/>
<path d="M183.672 192.056H190.152V194H181.566V180.68H190.044V182.624H183.672V186.35H188.586V188.294H183.672V192.056ZM191.13 186.746H195.45V188.654H191.13V186.746ZM202.867 184.262C205.171 184.262 206.827 186.224 206.827 189.14C206.827 192.128 205.153 194.144 202.633 194.144C201.553 194.144 200.491 193.676 199.879 192.506V197.78H197.863V184.46H199.879V186.134C200.617 184.802 201.769 184.262 202.867 184.262ZM202.327 192.488C203.713 192.488 204.739 191.372 204.739 189.23C204.739 187.088 203.713 185.99 202.327 185.99C200.851 185.99 199.879 186.998 199.879 189.212C199.879 191.426 200.851 192.488 202.327 192.488ZM212.872 194.18C210.388 194.18 208.354 192.236 208.354 189.176C208.354 186.188 210.37 184.244 212.872 184.244C215.374 184.244 217.39 186.188 217.39 189.176C217.39 192.236 215.356 194.18 212.872 194.18ZM212.872 192.47C214.222 192.47 215.32 191.426 215.32 189.176C215.32 186.908 214.204 185.954 212.872 185.954C211.54 185.954 210.424 186.908 210.424 189.176C210.424 191.426 211.54 192.47 212.872 192.47ZM219.002 187.088C219.002 185.468 220.496 184.244 222.746 184.244C224.6 184.244 225.842 184.91 226.508 186.188L225.104 187.052C224.672 186.314 223.808 185.864 222.728 185.864C221.648 185.864 220.91 186.278 220.91 186.962C220.91 187.52 221.288 187.862 222.134 188.024L223.736 188.348C225.752 188.744 226.76 189.698 226.76 191.156C226.76 192.956 225.194 194.162 222.836 194.162C220.838 194.162 219.416 193.406 218.678 192.02L220.082 191.138C220.604 192.02 221.522 192.524 222.782 192.524C224.006 192.524 224.834 192.038 224.834 191.246C224.834 190.598 224.438 190.238 223.556 190.058L221.792 189.716C219.992 189.374 219.002 188.456 219.002 187.088ZM231.357 191.048C231.357 192.11 232.005 192.434 232.671 192.434C233.193 192.434 233.607 192.218 234.021 191.804L234.885 193.1C234.165 193.82 233.373 194.162 232.347 194.162C230.691 194.162 229.341 193.154 229.341 191.174V186.026H227.667V184.46H229.341V182.336L231.357 181.418V184.46H234.723V186.026H231.357V191.048Z" fill="#2A2859"/>
<path d="M186.328 215.64H187.28V226H186.328V224.614C185.838 225.566 184.858 226.098 183.892 226.098C182.002 226.098 180.728 224.516 180.728 222.36C180.728 220.078 182.016 218.468 184.004 218.468C185.04 218.468 185.88 218.986 186.328 219.924V215.64ZM183.99 225.258C185.474 225.258 186.328 224.152 186.328 222.332C186.328 220.4 185.488 219.308 184.004 219.308C182.618 219.308 181.708 220.372 181.708 222.318C181.708 224.194 182.618 225.258 183.99 225.258ZM190.102 217.236C189.64 217.236 189.262 216.872 189.262 216.396C189.262 215.92 189.64 215.556 190.102 215.556C190.564 215.556 190.942 215.92 190.942 216.396C190.942 216.872 190.564 217.236 190.102 217.236ZM189.626 226V218.58H190.578V226H189.626ZM194.473 224.152C194.473 225.02 194.991 225.272 195.453 225.272C195.901 225.272 196.195 225.104 196.545 224.74L197.049 225.3C196.559 225.874 196.027 226.112 195.369 226.112C194.361 226.112 193.521 225.44 193.521 224.124V219.364H192.121V218.58H193.521V216.984L194.473 216.424V218.58H196.881V219.364H194.473V224.152ZM199.887 224.152C199.887 225.02 200.405 225.272 200.867 225.272C201.315 225.272 201.609 225.104 201.959 224.74L202.463 225.3C201.973 225.874 201.441 226.112 200.783 226.112C199.775 226.112 198.935 225.44 198.935 224.124V219.364H197.535V218.58H198.935V216.984L199.887 216.424V218.58H202.295V219.364H199.887V224.152ZM207.199 218.468C208.683 218.468 209.551 219.378 209.551 221.044V226H208.599V221.184C208.599 219.84 207.983 219.336 206.947 219.336C205.645 219.336 205.043 220.344 205.043 221.828V226H204.091V218.58H205.043V219.728C205.491 218.916 206.303 218.468 207.199 218.468ZM217.373 226H216.505C216.393 225.594 216.309 225.104 216.309 224.544C215.931 225.412 214.965 226.112 213.761 226.112C212.445 226.112 211.451 225.258 211.451 223.984C211.451 222.458 212.823 221.66 214.349 221.66C214.951 221.66 215.539 221.73 216.141 221.94V220.96C216.141 219.994 215.553 219.336 214.405 219.336C213.481 219.336 212.697 219.742 212.305 220.876L211.465 220.624C212.025 219.056 213.159 218.468 214.461 218.468C216.295 218.468 217.065 219.574 217.065 220.848V223.9C217.065 224.74 217.205 225.496 217.373 226ZM216.141 222.92V222.752C215.567 222.514 214.979 222.444 214.405 222.444C213.285 222.444 212.403 222.948 212.403 223.928C212.403 224.824 213.033 225.3 213.929 225.3C214.895 225.3 216.141 224.726 216.141 222.92ZM223.93 218.58H224.91L221.998 226H221.158L218.246 218.58H219.282L221.606 224.95L223.93 218.58ZM229.47 218.468C230.954 218.468 231.822 219.378 231.822 221.044V226H230.87V221.184C230.87 219.84 230.254 219.336 229.218 219.336C227.916 219.336 227.314 220.344 227.314 221.828V226H226.362V218.58H227.314V219.728C227.762 218.916 228.574 218.468 229.47 218.468ZM240.456 216.144C243.522 216.144 245.93 218.384 245.93 221.618C245.93 223.718 244.992 225.762 243.032 225.762C241.954 225.762 241.394 225.02 241.45 224.096C240.988 224.866 240.204 225.3 239.42 225.3C238.034 225.3 237.138 224.222 237.138 222.682C237.138 220.68 238.454 219.182 240.05 219.182C240.834 219.182 241.548 219.588 241.828 220.33L241.912 219.35H242.682L242.15 223.718C242.052 224.6 242.402 225.062 243.032 225.062C244.46 225.062 245.062 223.452 245.062 221.674C245.062 218.804 243.032 216.928 240.386 216.928C237.264 216.928 234.926 219.308 234.926 222.71C234.926 225.916 236.942 227.736 239.602 227.736C240.596 227.736 241.548 227.484 242.36 226.966L242.71 227.624C241.744 228.226 240.694 228.52 239.532 228.52C236.396 228.52 234.03 226.266 234.03 222.738C234.03 218.832 236.83 216.144 240.456 216.144ZM239.518 224.558C240.946 224.558 241.646 222.99 241.646 221.884C241.646 220.652 241.058 219.924 239.938 219.924C238.692 219.924 237.95 221.212 237.95 222.64C237.95 223.914 238.552 224.558 239.518 224.558ZM253.319 223.9L254.019 224.292C253.669 225.188 252.745 226.112 251.093 226.112C249.007 226.112 247.775 224.558 247.775 222.192C247.775 220.022 249.063 218.468 250.995 218.468C252.591 218.468 253.963 219.616 253.963 221.632L253.935 222.458H248.741C248.825 224.432 249.763 225.272 251.191 225.272C252.311 225.272 252.969 224.628 253.319 223.9ZM250.995 219.308C249.875 219.308 248.867 219.91 248.741 221.674H253.025C253.067 220.008 252.087 219.308 250.995 219.308ZM259.363 218.482C261.253 218.482 262.527 220.064 262.527 222.22C262.527 224.502 261.239 226.112 259.251 226.112C258.215 226.112 257.375 225.594 256.927 224.656V228.94H255.975V218.58H256.927V219.966C257.417 219.014 258.397 218.482 259.363 218.482ZM259.251 225.272C260.637 225.272 261.547 224.208 261.547 222.262C261.547 220.386 260.637 219.322 259.265 219.322C257.781 219.322 256.927 220.428 256.927 222.248C256.927 224.18 257.767 225.272 259.251 225.272ZM267.294 226.112C265.46 226.112 263.99 224.6 263.99 222.276C263.99 219.98 265.446 218.468 267.294 218.468C269.142 218.468 270.598 219.98 270.598 222.276C270.598 224.6 269.128 226.112 267.294 226.112ZM267.294 225.272C268.568 225.272 269.618 224.264 269.618 222.276C269.618 220.302 268.554 219.308 267.294 219.308C266.034 219.308 264.97 220.302 264.97 222.276C264.97 224.264 266.02 225.272 267.294 225.272ZM272.168 220.512C272.168 219.336 273.274 218.468 274.828 218.468C276.172 218.468 277.208 219.112 277.516 220.092L276.732 220.4C276.438 219.686 275.752 219.308 274.8 219.308C273.764 219.308 273.092 219.742 273.092 220.428C273.092 221.044 273.498 221.422 274.38 221.604L275.36 221.8C276.984 222.122 277.74 222.822 277.74 223.928C277.74 225.216 276.592 226.112 274.94 226.112C273.442 226.112 272.392 225.524 271.888 224.404L272.7 224.068C273.05 224.852 273.82 225.272 274.912 225.272C276.06 225.272 276.816 224.768 276.816 224.012C276.816 223.312 276.424 222.934 275.444 222.724L274.24 222.472C272.882 222.192 272.168 221.506 272.168 220.512ZM280.961 224.152C280.961 225.02 281.479 225.272 281.941 225.272C282.389 225.272 282.683 225.104 283.033 224.74L283.537 225.3C283.047 225.874 282.515 226.112 281.857 226.112C280.849 226.112 280.009 225.44 280.009 224.124V219.364H278.609V218.58H280.009V216.984L280.961 216.424V218.58H283.369V219.364H280.961V224.152ZM285.109 224.432H286.621V226H285.109V224.432ZM292.087 218.468C293.571 218.468 294.439 219.378 294.439 221.044V226H293.487V221.184C293.487 219.84 292.871 219.336 291.835 219.336C290.533 219.336 289.931 220.344 289.931 221.828V226H288.979V218.58H289.931V219.728C290.379 218.916 291.191 218.468 292.087 218.468ZM299.559 226.112C297.725 226.112 296.255 224.6 296.255 222.276C296.255 219.98 297.711 218.468 299.559 218.468C301.407 218.468 302.863 219.98 302.863 222.276C302.863 224.6 301.393 226.112 299.559 226.112ZM299.559 225.272C300.833 225.272 301.883 224.264 301.883 222.276C301.883 220.302 300.819 219.308 299.559 219.308C298.299 219.308 297.235 220.302 297.235 222.276C297.235 224.264 298.285 225.272 299.559 225.272Z" fill="#2A2859"/>
<path d="M690.672 186.056H697.152V188H688.566V174.68H697.044V176.624H690.672V180.35H695.586V182.294H690.672V186.056ZM698.13 180.746H702.45V182.654H698.13V180.746ZM709.867 178.262C712.171 178.262 713.827 180.224 713.827 183.14C713.827 186.128 712.153 188.144 709.633 188.144C708.553 188.144 707.491 187.676 706.879 186.506V191.78H704.863V178.46H706.879V180.134C707.617 178.802 708.769 178.262 709.867 178.262ZM709.327 186.488C710.713 186.488 711.739 185.372 711.739 183.23C711.739 181.088 710.713 179.99 709.327 179.99C707.851 179.99 706.879 180.998 706.879 183.212C706.879 185.426 707.851 186.488 709.327 186.488ZM719.872 188.18C717.388 188.18 715.354 186.236 715.354 183.176C715.354 180.188 717.37 178.244 719.872 178.244C722.374 178.244 724.39 180.188 724.39 183.176C724.39 186.236 722.356 188.18 719.872 188.18ZM719.872 186.47C721.222 186.47 722.32 185.426 722.32 183.176C722.32 180.908 721.204 179.954 719.872 179.954C718.54 179.954 717.424 180.908 717.424 183.176C717.424 185.426 718.54 186.47 719.872 186.47ZM726.002 181.088C726.002 179.468 727.496 178.244 729.746 178.244C731.6 178.244 732.842 178.91 733.508 180.188L732.104 181.052C731.672 180.314 730.808 179.864 729.728 179.864C728.648 179.864 727.91 180.278 727.91 180.962C727.91 181.52 728.288 181.862 729.134 182.024L730.736 182.348C732.752 182.744 733.76 183.698 733.76 185.156C733.76 186.956 732.194 188.162 729.836 188.162C727.838 188.162 726.416 187.406 725.678 186.02L727.082 185.138C727.604 186.02 728.522 186.524 729.782 186.524C731.006 186.524 731.834 186.038 731.834 185.246C731.834 184.598 731.438 184.238 730.556 184.058L728.792 183.716C726.992 183.374 726.002 182.456 726.002 181.088ZM738.357 185.048C738.357 186.11 739.005 186.434 739.671 186.434C740.193 186.434 740.607 186.218 741.021 185.804L741.885 187.1C741.165 187.82 740.373 188.162 739.347 188.162C737.691 188.162 736.341 187.154 736.341 185.174V180.026H734.667V178.46H736.341V176.336L738.357 175.418V178.46H741.723V180.026H738.357V185.048Z" fill="#666666"/>
<rect x="688" y="205" width="290" height="46" fill="#F9F9F9"/>
<path d="M711.136 220.68H712.36V234H711.136V232.218C710.506 233.442 709.246 234.126 708.004 234.126C705.574 234.126 703.936 232.092 703.936 229.32C703.936 226.386 705.592 224.316 708.148 224.316C709.48 224.316 710.56 224.982 711.136 226.188V220.68ZM708.13 233.046C710.038 233.046 711.136 231.624 711.136 229.284C711.136 226.8 710.056 225.396 708.148 225.396C706.366 225.396 705.196 226.764 705.196 229.266C705.196 231.678 706.366 233.046 708.13 233.046ZM715.788 222.732C715.194 222.732 714.708 222.264 714.708 221.652C714.708 221.04 715.194 220.572 715.788 220.572C716.382 220.572 716.868 221.04 716.868 221.652C716.868 222.264 716.382 222.732 715.788 222.732ZM715.176 234V224.46H716.4V234H715.176ZM721.208 231.624C721.208 232.74 721.874 233.064 722.468 233.064C723.044 233.064 723.422 232.848 723.872 232.38L724.52 233.1C723.89 233.838 723.206 234.144 722.36 234.144C721.064 234.144 719.984 233.28 719.984 231.588V225.468H718.184V224.46H719.984V222.408L721.208 221.688V224.46H724.304V225.468H721.208V231.624ZM727.969 231.624C727.969 232.74 728.635 233.064 729.229 233.064C729.805 233.064 730.183 232.848 730.633 232.38L731.281 233.1C730.651 233.838 729.967 234.144 729.121 234.144C727.825 234.144 726.745 233.28 726.745 231.588V225.468H724.945V224.46H726.745V222.408L727.969 221.688V224.46H731.065V225.468H727.969V231.624ZM737.17 224.316C739.078 224.316 740.194 225.486 740.194 227.628V234H738.97V227.808C738.97 226.08 738.178 225.432 736.846 225.432C735.172 225.432 734.398 226.728 734.398 228.636V234H733.174V224.46H734.398V225.936C734.974 224.892 736.018 224.316 737.17 224.316ZM750.051 234H748.935C748.791 233.478 748.683 232.848 748.683 232.128C748.197 233.244 746.955 234.144 745.407 234.144C743.715 234.144 742.437 233.046 742.437 231.408C742.437 229.446 744.201 228.42 746.163 228.42C746.937 228.42 747.693 228.51 748.467 228.78V227.52C748.467 226.278 747.711 225.432 746.235 225.432C745.047 225.432 744.039 225.954 743.535 227.412L742.455 227.088C743.175 225.072 744.633 224.316 746.307 224.316C748.665 224.316 749.655 225.738 749.655 227.376V231.3C749.655 232.38 749.835 233.352 750.051 234ZM748.467 230.04V229.824C747.729 229.518 746.973 229.428 746.235 229.428C744.795 229.428 743.661 230.076 743.661 231.336C743.661 232.488 744.471 233.1 745.623 233.1C746.865 233.1 748.467 232.362 748.467 230.04ZM758.282 224.46H759.542L755.798 234H754.718L750.974 224.46H752.306L755.294 232.65L758.282 224.46ZM765.205 224.316C767.113 224.316 768.229 225.486 768.229 227.628V234H767.005V227.808C767.005 226.08 766.213 225.432 764.881 225.432C763.207 225.432 762.433 226.728 762.433 228.636V234H761.209V224.46H762.433V225.936C763.009 224.892 764.053 224.316 765.205 224.316ZM779.129 221.328C783.071 221.328 786.167 224.208 786.167 228.366C786.167 231.066 784.961 233.694 782.441 233.694C781.055 233.694 780.335 232.74 780.407 231.552C779.813 232.542 778.805 233.1 777.797 233.1C776.015 233.1 774.863 231.714 774.863 229.734C774.863 227.16 776.555 225.234 778.607 225.234C779.615 225.234 780.533 225.756 780.893 226.71L781.001 225.45H781.991L781.307 231.066C781.181 232.2 781.631 232.794 782.441 232.794C784.277 232.794 785.051 230.724 785.051 228.438C785.051 224.748 782.441 222.336 779.039 222.336C775.025 222.336 772.019 225.396 772.019 229.77C772.019 233.892 774.611 236.232 778.031 236.232C779.309 236.232 780.533 235.908 781.577 235.242L782.027 236.088C780.785 236.862 779.435 237.24 777.941 237.24C773.909 237.24 770.867 234.342 770.867 229.806C770.867 224.784 774.467 221.328 779.129 221.328ZM777.923 232.146C779.759 232.146 780.659 230.13 780.659 228.708C780.659 227.124 779.903 226.188 778.463 226.188C776.861 226.188 775.907 227.844 775.907 229.68C775.907 231.318 776.681 232.146 777.923 232.146ZM795.467 231.3L796.367 231.804C795.917 232.956 794.729 234.144 792.605 234.144C789.923 234.144 788.339 232.146 788.339 229.104C788.339 226.314 789.995 224.316 792.479 224.316C794.531 224.316 796.295 225.792 796.295 228.384L796.259 229.446H789.581C789.689 231.984 790.895 233.064 792.731 233.064C794.171 233.064 795.017 232.236 795.467 231.3ZM792.479 225.396C791.039 225.396 789.743 226.17 789.581 228.438H795.089C795.143 226.296 793.883 225.396 792.479 225.396ZM803.039 224.334C805.469 224.334 807.107 226.368 807.107 229.14C807.107 232.074 805.451 234.144 802.895 234.144C801.563 234.144 800.483 233.478 799.907 232.272V237.78H798.683V224.46H799.907V226.242C800.537 225.018 801.797 224.334 803.039 224.334ZM802.895 233.064C804.677 233.064 805.847 231.696 805.847 229.194C805.847 226.782 804.677 225.414 802.913 225.414C801.005 225.414 799.907 226.836 799.907 229.176C799.907 231.66 800.987 233.064 802.895 233.064ZM813.035 234.144C810.677 234.144 808.787 232.2 808.787 229.212C808.787 226.26 810.659 224.316 813.035 224.316C815.411 224.316 817.283 226.26 817.283 229.212C817.283 232.2 815.393 234.144 813.035 234.144ZM813.035 233.064C814.673 233.064 816.023 231.768 816.023 229.212C816.023 226.674 814.655 225.396 813.035 225.396C811.415 225.396 810.047 226.674 810.047 229.212C810.047 231.768 811.397 233.064 813.035 233.064ZM819.102 226.944C819.102 225.432 820.524 224.316 822.522 224.316C824.25 224.316 825.582 225.144 825.978 226.404L824.97 226.8C824.592 225.882 823.71 225.396 822.486 225.396C821.154 225.396 820.29 225.954 820.29 226.836C820.29 227.628 820.812 228.114 821.946 228.348L823.206 228.6C825.294 229.014 826.266 229.914 826.266 231.336C826.266 232.992 824.79 234.144 822.666 234.144C820.74 234.144 819.39 233.388 818.742 231.948L819.786 231.516C820.236 232.524 821.226 233.064 822.63 233.064C824.106 233.064 825.078 232.416 825.078 231.444C825.078 230.544 824.574 230.058 823.314 229.788L821.766 229.464C820.02 229.104 819.102 228.222 819.102 226.944ZM830.208 231.624C830.208 232.74 830.874 233.064 831.468 233.064C832.044 233.064 832.422 232.848 832.872 232.38L833.52 233.1C832.89 233.838 832.206 234.144 831.36 234.144C830.064 234.144 828.984 233.28 828.984 231.588V225.468H827.184V224.46H828.984V222.408L830.208 221.688V224.46H833.304V225.468H830.208V231.624ZM835.34 231.984H837.284V234H835.34V231.984ZM844.112 224.316C846.02 224.316 847.136 225.486 847.136 227.628V234H845.912V227.808C845.912 226.08 845.12 225.432 843.788 225.432C842.114 225.432 841.34 226.728 841.34 228.636V234H840.116V224.46H841.34V225.936C841.916 224.892 842.96 224.316 844.112 224.316ZM853.519 234.144C851.161 234.144 849.271 232.2 849.271 229.212C849.271 226.26 851.143 224.316 853.519 224.316C855.895 224.316 857.767 226.26 857.767 229.212C857.767 232.2 855.877 234.144 853.519 234.144ZM853.519 233.064C855.157 233.064 856.507 231.768 856.507 229.212C856.507 226.674 855.139 225.396 853.519 225.396C851.899 225.396 850.531 226.674 850.531 229.212C850.531 231.768 851.881 233.064 853.519 233.064Z" fill="#666666"/>
<rect x="688" y="205" width="290" height="46" stroke="#B3B3B3" stroke-width="2"/>
</g>
<defs>
<clipPath id="clip0_5931_11154">
<rect width="1116" height="387" fill="white"/>
</clipPath>
</defs>
</svg>
