<svg width="1088" height="254" viewBox="0 0 1088 254" fill="none" xmlns="http://www.w3.org/2000/svg">
<rect width="1088" height="254" fill="white"/>
<path d="M134.672 103.056H141.152V105H132.566V91.68H141.044V93.624H134.672V97.35H139.586V99.294H134.672V103.056ZM145.487 102.048C145.487 103.11 146.135 103.434 146.801 103.434C147.323 103.434 147.737 103.218 148.151 102.804L149.015 104.1C148.295 104.82 147.503 105.162 146.477 105.162C144.821 105.162 143.471 104.154 143.471 102.174V97.026H141.797V95.46H143.471V93.336L145.487 92.418V95.46H148.853V97.026H145.487V102.048ZM151.769 93.876C150.977 93.876 150.347 93.264 150.347 92.454C150.347 91.644 150.977 91.032 151.769 91.032C152.561 91.032 153.173 91.644 153.173 92.454C153.173 93.264 152.561 93.876 151.769 93.876ZM150.761 105V95.46H152.777V105H150.761ZM161.671 105L158.773 100.626L157.675 101.706V105H155.659V91.68H157.675V99.42L161.527 95.46H164.011L160.105 99.312L164.083 105H161.671ZM171.679 101.994L173.047 102.786C172.507 103.974 171.247 105.162 169.069 105.162C166.243 105.162 164.533 103.074 164.533 100.14C164.533 97.242 166.387 95.244 168.925 95.244C171.175 95.244 173.029 96.756 173.029 99.456L172.993 100.644H166.513C166.621 102.66 167.611 103.524 169.195 103.524C170.365 103.524 171.175 102.894 171.679 101.994ZM168.925 96.828C167.701 96.828 166.675 97.476 166.513 99.204H171.067C171.085 97.512 170.041 96.828 168.925 96.828ZM177.84 102.048C177.84 103.11 178.488 103.434 179.154 103.434C179.676 103.434 180.09 103.218 180.504 102.804L181.368 104.1C180.648 104.82 179.856 105.162 178.83 105.162C177.174 105.162 175.824 104.154 175.824 102.174V97.026H174.15V95.46H175.824V93.336L177.84 92.418V95.46H181.206V97.026H177.84V102.048ZM185.655 102.048C185.655 103.11 186.303 103.434 186.969 103.434C187.491 103.434 187.905 103.218 188.319 102.804L189.183 104.1C188.463 104.82 187.671 105.162 186.645 105.162C184.989 105.162 183.639 104.154 183.639 102.174V97.026H181.965V95.46H183.639V93.336L185.655 92.418V95.46H189.021V97.026H185.655V102.048Z" fill="#666666"/>
<rect x="132" y="122" width="290" height="46" fill="#F9F9F9"/>
<rect x="132" y="122" width="290" height="46" stroke="#B3B3B3" stroke-width="2"/>
<path d="M480.81 91.68H482.826V105H480.99L474.582 95.442V105H472.566V91.68H474.564L480.81 101.058V91.68ZM492.205 101.994L493.573 102.786C493.033 103.974 491.773 105.162 489.595 105.162C486.769 105.162 485.059 103.074 485.059 100.14C485.059 97.242 486.913 95.244 489.451 95.244C491.701 95.244 493.555 96.756 493.555 99.456L493.519 100.644H487.039C487.147 102.66 488.137 103.524 489.721 103.524C490.891 103.524 491.701 102.894 492.205 101.994ZM489.451 96.828C488.227 96.828 487.201 97.476 487.039 99.204H491.593C491.611 97.512 490.567 96.828 489.451 96.828ZM502.195 91.68H504.211V105H502.195V103.272C501.457 104.604 500.305 105.144 499.207 105.144C496.903 105.144 495.247 103.164 495.247 100.266C495.247 97.26 496.921 95.262 499.441 95.262C500.521 95.262 501.601 95.748 502.195 96.918V91.68ZM499.747 103.38C501.205 103.38 502.195 102.39 502.195 100.158C502.195 97.944 501.223 96.882 499.747 96.882C498.361 96.882 497.335 97.998 497.335 100.158C497.335 102.3 498.361 103.38 499.747 103.38ZM509.556 102.048C509.556 103.11 510.204 103.434 510.87 103.434C511.392 103.434 511.806 103.218 512.22 102.804L513.084 104.1C512.364 104.82 511.572 105.162 510.546 105.162C508.89 105.162 507.54 104.154 507.54 102.174V97.026H505.866V95.46H507.54V93.336L509.556 92.418V95.46H512.922V97.026H509.556V102.048ZM519.204 95.244C520.59 95.244 521.49 96.162 521.49 97.8V99.06L519.87 99.348V98.376C519.87 97.512 519.564 96.918 518.628 96.918C517.602 96.918 516.846 97.602 516.846 99.42V105H514.83V95.46H516.846V96.738C517.386 95.676 518.376 95.244 519.204 95.244ZM529.619 101.994L530.987 102.786C530.447 103.974 529.187 105.162 527.009 105.162C524.183 105.162 522.473 103.074 522.473 100.14C522.473 97.242 524.327 95.244 526.865 95.244C529.115 95.244 530.969 96.756 530.969 99.456L530.933 100.644H524.453C524.561 102.66 525.551 103.524 527.135 103.524C528.305 103.524 529.115 102.894 529.619 101.994ZM526.865 96.828C525.641 96.828 524.615 97.476 524.453 99.204H529.007C529.025 97.512 527.981 96.828 526.865 96.828ZM539.268 105L536.37 100.626L535.272 101.706V105H533.256V91.68H535.272V99.42L539.124 95.46H541.608L537.702 99.312L541.68 105H539.268ZM549.457 105L546.559 100.626L545.461 101.706V105H543.445V91.68H545.461V99.42L549.313 95.46H551.797L547.891 99.312L551.869 105H549.457Z" fill="#666666"/>
<rect x="472" y="122" width="290" height="46" fill="#F9F9F9"/>
<path d="M497.188 137.68H498.52L493.642 151H492.382L487.54 137.68H488.908L493.03 149.542L497.188 137.68ZM505.657 148.3L506.557 148.804C506.107 149.956 504.919 151.144 502.795 151.144C500.113 151.144 498.529 149.146 498.529 146.104C498.529 143.314 500.185 141.316 502.669 141.316C504.721 141.316 506.485 142.792 506.485 145.384L506.449 146.446H499.771C499.879 148.984 501.085 150.064 502.921 150.064C504.361 150.064 505.207 149.236 505.657 148.3ZM502.669 142.396C501.229 142.396 499.933 143.17 499.771 145.438H505.279C505.333 143.296 504.073 142.396 502.669 142.396ZM511.861 150.964C511.573 151.036 511.339 151.072 511.069 151.072C509.575 151.072 508.873 150.136 508.873 148.732V137.68H510.097V148.732C510.097 149.542 510.529 149.956 511.285 149.956C511.483 149.956 511.681 149.938 511.861 149.884V150.964ZM522.11 142.468H520.058V142.81C520.526 143.386 520.778 144.106 520.778 144.808C520.778 146.554 519.518 148.336 516.836 148.336H516.422C515.342 148.336 514.568 148.75 514.568 149.38C514.568 149.866 514.946 150.208 515.738 150.208H519.608C521.156 150.208 521.948 150.964 521.948 152.152C521.948 154.042 519.77 155.032 517.088 155.032C514.676 155.032 513.002 154.258 512.426 152.584L513.416 152.134C514.082 153.7 515.486 154.006 517.088 154.006C519.068 154.006 520.724 153.412 520.724 152.26C520.724 151.72 520.436 151.324 519.572 151.324H515.468C514.136 151.324 513.344 150.694 513.344 149.704C513.344 148.858 514.046 148.12 515.216 147.814C513.956 147.31 513.254 145.978 513.254 144.808C513.254 143.098 514.532 141.316 517.052 141.316C518.042 141.316 518.798 141.64 519.374 142.126V141.46H522.11V142.468ZM517.034 147.328C518.726 147.328 519.572 146.158 519.572 144.808C519.572 143.476 518.726 142.36 517.034 142.36C515.324 142.36 514.46 143.494 514.46 144.808C514.46 146.14 515.324 147.328 517.034 147.328Z" fill="#666666"/>
<path fill-rule="evenodd" clip-rule="evenodd" d="M735 147.56L727.747 140.5L726.75 141.47L735 149.5L743.25 141.47L742.253 140.5L735 147.56Z" fill="#666666"/>
<rect x="472" y="122" width="290" height="46" stroke="#B3B3B3" stroke-width="2"/>
<rect x="812" y="122" width="144" height="46" fill="#F2F2F2"/>
<path d="M838.36 151L834.13 144.898L832.672 146.446V151H830.566V137.68H832.672V143.818L838.288 137.68H840.88L835.48 143.458L840.952 151H838.36ZM847.123 141.244C849.067 141.244 850.219 142.504 850.219 144.574V151H848.203V144.898C848.203 143.584 847.573 142.99 846.475 142.99C845.053 142.99 844.333 143.98 844.333 145.834V151H842.317V141.46H844.333V142.828C844.981 141.82 845.935 141.244 847.123 141.244ZM860.631 151H858.777C858.633 150.514 858.543 149.938 858.507 149.2C858.057 150.19 857.049 151.162 855.393 151.162C853.665 151.162 852.441 149.992 852.441 148.336C852.441 146.266 854.277 145.24 856.329 145.24C856.977 145.24 857.589 145.294 858.255 145.474V144.574C858.255 143.548 857.607 142.882 856.437 142.882C855.339 142.882 854.565 143.476 854.205 144.592L852.495 144.07C853.179 142.054 854.817 141.244 856.527 141.244C859.065 141.244 860.217 142.738 860.217 144.556V148.246C860.217 149.38 860.397 150.388 860.631 151ZM858.255 147.058V146.842C857.679 146.644 857.121 146.572 856.527 146.572C855.339 146.572 854.421 147.112 854.421 148.156C854.421 149.038 855.051 149.596 856.005 149.596C856.977 149.596 858.255 149.02 858.255 147.058ZM868.05 141.262C870.354 141.262 872.01 143.224 872.01 146.14C872.01 149.128 870.336 151.144 867.816 151.144C866.736 151.144 865.674 150.676 865.062 149.506V154.78H863.046V141.46H865.062V143.134C865.8 141.802 866.952 141.262 868.05 141.262ZM867.51 149.488C868.896 149.488 869.922 148.372 869.922 146.23C869.922 144.088 868.896 142.99 867.51 142.99C866.034 142.99 865.062 143.998 865.062 146.212C865.062 148.426 866.034 149.488 867.51 149.488ZM879.135 141.262C881.439 141.262 883.095 143.224 883.095 146.14C883.095 149.128 881.421 151.144 878.901 151.144C877.821 151.144 876.759 150.676 876.147 149.506V154.78H874.131V141.46H876.147V143.134C876.885 141.802 878.037 141.262 879.135 141.262ZM878.595 149.488C879.981 149.488 881.007 148.372 881.007 146.23C881.007 144.088 879.981 142.99 878.595 142.99C877.119 142.99 876.147 143.998 876.147 146.212C876.147 148.426 877.119 149.488 878.595 149.488ZM891.768 147.994L893.136 148.786C892.596 149.974 891.336 151.162 889.158 151.162C886.332 151.162 884.622 149.074 884.622 146.14C884.622 143.242 886.476 141.244 889.014 141.244C891.264 141.244 893.118 142.756 893.118 145.456L893.082 146.644H886.602C886.71 148.66 887.7 149.524 889.284 149.524C890.454 149.524 891.264 148.894 891.768 147.994ZM889.014 142.828C887.79 142.828 886.764 143.476 886.602 145.204H891.156C891.174 143.512 890.13 142.828 889.014 142.828ZM897.929 148.048C897.929 149.11 898.577 149.434 899.243 149.434C899.765 149.434 900.179 149.218 900.593 148.804L901.457 150.1C900.737 150.82 899.945 151.162 898.919 151.162C897.263 151.162 895.913 150.154 895.913 148.174V143.026H894.239V141.46H895.913V139.336L897.929 138.418V141.46H901.295V143.026H897.929V148.048ZM909.297 147.994L910.665 148.786C910.125 149.974 908.865 151.162 906.687 151.162C903.861 151.162 902.151 149.074 902.151 146.14C902.151 143.242 904.005 141.244 906.543 141.244C908.793 141.244 910.647 142.756 910.647 145.456L910.611 146.644H904.131C904.239 148.66 905.229 149.524 906.813 149.524C907.983 149.524 908.793 148.894 909.297 147.994ZM906.543 142.828C905.319 142.828 904.293 143.476 904.131 145.204H908.685C908.703 143.512 907.659 142.828 906.543 142.828ZM918.946 151L916.048 146.626L914.95 147.706V151H912.934V137.68H914.95V145.42L918.802 141.46H921.286L917.38 145.312L921.358 151H918.946ZM921.968 144.088C921.968 142.468 923.462 141.244 925.712 141.244C927.566 141.244 928.808 141.91 929.474 143.188L928.07 144.052C927.638 143.314 926.774 142.864 925.694 142.864C924.614 142.864 923.876 143.278 923.876 143.962C923.876 144.52 924.254 144.862 925.1 145.024L926.702 145.348C928.718 145.744 929.726 146.698 929.726 148.156C929.726 149.956 928.16 151.162 925.802 151.162C923.804 151.162 922.382 150.406 921.644 149.02L923.048 148.138C923.57 149.02 924.488 149.524 925.748 149.524C926.972 149.524 927.8 149.038 927.8 148.246C927.8 147.598 927.404 147.238 926.522 147.058L924.758 146.716C922.958 146.374 921.968 145.456 921.968 144.088ZM934.324 148.048C934.324 149.11 934.972 149.434 935.638 149.434C936.16 149.434 936.574 149.218 936.988 148.804L937.852 150.1C937.132 150.82 936.34 151.162 935.314 151.162C933.658 151.162 932.308 150.154 932.308 148.174V143.026H930.634V141.46H932.308V139.336L934.324 138.418V141.46H937.69V143.026H934.324V148.048Z" fill="#4D4D4D"/>
<rect x="812" y="122" width="144" height="46" stroke="#F2F2F2" stroke-width="2"/>
</svg>
