<svg width="800" height="414" viewBox="0 0 800 414" fill="none" xmlns="http://www.w3.org/2000/svg">
<rect width="800" height="414" fill="white"/>
<path d="M203.672 112.056H210.152V114H201.566V100.68H210.044V102.624H203.672V106.35H208.586V108.294H203.672V112.056ZM214.487 111.048C214.487 112.11 215.135 112.434 215.801 112.434C216.323 112.434 216.737 112.218 217.151 111.804L218.015 113.1C217.295 113.82 216.503 114.162 215.477 114.162C213.821 114.162 212.471 113.154 212.471 111.174V106.026H210.797V104.46H212.471V102.336L214.487 101.418V104.46H217.853V106.026H214.487V111.048ZM220.769 102.876C219.977 102.876 219.347 102.264 219.347 101.454C219.347 100.644 219.977 100.032 220.769 100.032C221.561 100.032 222.173 100.644 222.173 101.454C222.173 102.264 221.561 102.876 220.769 102.876ZM219.761 114V104.46H221.777V114H219.761ZM230.671 114L227.773 109.626L226.675 110.706V114H224.659V100.68H226.675V108.42L230.527 104.46H233.011L229.105 108.312L233.083 114H230.671ZM240.679 110.994L242.047 111.786C241.507 112.974 240.247 114.162 238.069 114.162C235.243 114.162 233.533 112.074 233.533 109.14C233.533 106.242 235.387 104.244 237.925 104.244C240.175 104.244 242.029 105.756 242.029 108.456L241.993 109.644H235.513C235.621 111.66 236.611 112.524 238.195 112.524C239.365 112.524 240.175 111.894 240.679 110.994ZM237.925 105.828C236.701 105.828 235.675 106.476 235.513 108.204H240.067C240.085 106.512 239.041 105.828 237.925 105.828ZM246.84 111.048C246.84 112.11 247.488 112.434 248.154 112.434C248.676 112.434 249.09 112.218 249.504 111.804L250.368 113.1C249.648 113.82 248.856 114.162 247.83 114.162C246.174 114.162 244.824 113.154 244.824 111.174V106.026H243.15V104.46H244.824V102.336L246.84 101.418V104.46H250.206V106.026H246.84V111.048ZM254.655 111.048C254.655 112.11 255.303 112.434 255.969 112.434C256.491 112.434 256.905 112.218 257.319 111.804L258.183 113.1C257.463 113.82 256.671 114.162 255.645 114.162C253.989 114.162 252.639 113.154 252.639 111.174V106.026H250.965V104.46H252.639V102.336L254.655 101.418V104.46H258.021V106.026H254.655V111.048Z" fill="#2A2859"/>
<rect width="62" height="22" transform="translate(267 97)" fill="#E5FCFF"/>
<path d="M278.924 102.64H279.96L276.166 113H275.186L271.42 102.64H272.484L275.69 111.866L278.924 102.64ZM285.992 113H285.124C285.012 112.594 284.928 112.104 284.928 111.544C284.55 112.412 283.584 113.112 282.38 113.112C281.064 113.112 280.07 112.258 280.07 110.984C280.07 109.458 281.442 108.66 282.968 108.66C283.57 108.66 284.158 108.73 284.76 108.94V107.96C284.76 106.994 284.172 106.336 283.024 106.336C282.1 106.336 281.316 106.742 280.924 107.876L280.084 107.624C280.644 106.056 281.778 105.468 283.08 105.468C284.914 105.468 285.684 106.574 285.684 107.848V110.9C285.684 111.74 285.824 112.496 285.992 113ZM284.76 109.92V109.752C284.186 109.514 283.598 109.444 283.024 109.444C281.904 109.444 281.022 109.948 281.022 110.928C281.022 111.824 281.652 112.3 282.548 112.3C283.514 112.3 284.76 111.726 284.76 109.92ZM290.415 112.972C290.191 113.028 290.009 113.056 289.799 113.056C288.637 113.056 288.091 112.328 288.091 111.236V102.64H289.043V111.236C289.043 111.866 289.379 112.188 289.967 112.188C290.121 112.188 290.275 112.174 290.415 112.132V112.972ZM298.542 106.364H296.946V106.63C297.31 107.078 297.506 107.638 297.506 108.184C297.506 109.542 296.526 110.928 294.44 110.928H294.118C293.278 110.928 292.676 111.25 292.676 111.74C292.676 112.118 292.97 112.384 293.586 112.384H296.596C297.8 112.384 298.416 112.972 298.416 113.896C298.416 115.366 296.722 116.136 294.636 116.136C292.76 116.136 291.458 115.534 291.01 114.232L291.78 113.882C292.298 115.1 293.39 115.338 294.636 115.338C296.176 115.338 297.464 114.876 297.464 113.98C297.464 113.56 297.24 113.252 296.568 113.252H293.376C292.34 113.252 291.724 112.762 291.724 111.992C291.724 111.334 292.27 110.76 293.18 110.522C292.2 110.13 291.654 109.094 291.654 108.184C291.654 106.854 292.648 105.468 294.608 105.468C295.378 105.468 295.966 105.72 296.414 106.098V105.58H298.542V106.364ZM294.594 110.144C295.91 110.144 296.568 109.234 296.568 108.184C296.568 107.148 295.91 106.28 294.594 106.28C293.264 106.28 292.592 107.162 292.592 108.184C292.592 109.22 293.264 110.144 294.594 110.144ZM301.237 104.544V105.58H303.309V106.364H301.237V113H300.285V106.364H298.885V105.58H300.285V104.544C300.285 103.256 301.125 102.528 302.273 102.528C302.805 102.528 303.421 102.738 303.771 103.298L303.197 103.872C302.973 103.536 302.637 103.34 302.245 103.34C301.755 103.34 301.237 103.634 301.237 104.544ZM307.417 105.468C308.383 105.468 309.083 106.112 309.083 107.372V108.1L308.215 108.268V107.54C308.215 106.798 307.963 106.308 307.207 106.308C306.353 106.308 305.709 106.938 305.709 108.436V113H304.757V105.58H305.709V106.504C306.101 105.804 306.759 105.468 307.417 105.468ZM311.44 104.236C310.978 104.236 310.6 103.872 310.6 103.396C310.6 102.92 310.978 102.556 311.44 102.556C311.902 102.556 312.28 102.92 312.28 103.396C312.28 103.872 311.902 104.236 311.44 104.236ZM310.964 113V105.58H311.916V113H310.964ZM315.811 111.152C315.811 112.02 316.329 112.272 316.791 112.272C317.239 112.272 317.533 112.104 317.883 111.74L318.387 112.3C317.897 112.874 317.365 113.112 316.707 113.112C315.699 113.112 314.859 112.44 314.859 111.124V106.364H313.459V105.58H314.859V103.984L315.811 103.424V105.58H318.219V106.364H315.811V111.152ZM321.225 111.152C321.225 112.02 321.743 112.272 322.205 112.272C322.653 112.272 322.947 112.104 323.297 111.74L323.801 112.3C323.311 112.874 322.779 113.112 322.121 113.112C321.113 113.112 320.273 112.44 320.273 111.124V106.364H318.873V105.58H320.273V103.984L321.225 103.424V105.58H323.633V106.364H321.225V111.152Z" fill="#2A2859"/>
<rect width="83" height="22" transform="translate(337 97)" fill="#F8F0DD"/>
<path d="M350.324 102.64H351.276V113H350.296V104.362L346.964 109.542H346.544L343.212 104.362V113H342.232V102.64H343.184L346.754 108.184L350.324 102.64ZM356.362 104.796C355.452 104.796 354.71 104.124 354.71 103.2C354.71 102.276 355.452 101.604 356.362 101.604C357.272 101.604 358.014 102.276 358.014 103.2C358.014 104.124 357.272 104.796 356.362 104.796ZM356.362 102.248C355.83 102.248 355.41 102.584 355.41 103.2C355.41 103.83 355.83 104.152 356.362 104.152C356.894 104.152 357.314 103.83 357.314 103.2C357.314 102.584 356.894 102.248 356.362 102.248ZM359.246 113H358.378C358.266 112.594 358.182 112.104 358.182 111.544C357.804 112.412 356.838 113.112 355.634 113.112C354.318 113.112 353.324 112.258 353.324 110.984C353.324 109.458 354.696 108.66 356.222 108.66C356.824 108.66 357.412 108.73 358.014 108.94V107.96C358.014 106.994 357.426 106.336 356.278 106.336C355.354 106.336 354.57 106.742 354.178 107.876L353.338 107.624C353.898 106.056 355.032 105.468 356.334 105.468C358.168 105.468 358.938 106.574 358.938 107.848V110.9C358.938 111.74 359.078 112.496 359.246 113ZM358.014 109.92V109.752C357.44 109.514 356.852 109.444 356.278 109.444C355.158 109.444 354.276 109.948 354.276 110.928C354.276 111.824 354.906 112.3 355.802 112.3C356.768 112.3 358.014 111.726 358.014 109.92ZM366.411 104.544V105.58H368.483V106.364H366.411V113H365.459V106.364H364.059V105.58H365.459V104.544C365.459 103.256 366.299 102.528 367.447 102.528C367.979 102.528 368.595 102.738 368.945 103.298L368.371 103.872C368.147 103.536 367.811 103.34 367.419 103.34C366.929 103.34 366.411 103.634 366.411 104.544ZM374.421 105.58H375.401L372.139 114.022C371.649 115.282 371.103 116.08 369.955 116.08C369.451 116.08 368.989 115.898 368.639 115.576L369.059 114.89C369.339 115.142 369.605 115.254 369.927 115.254C370.445 115.254 370.809 115.03 371.173 114.176L371.607 113.126L368.821 105.58H369.857L372.097 112.006L374.421 105.58ZM379.132 112.972C378.908 113.028 378.726 113.056 378.516 113.056C377.354 113.056 376.808 112.328 376.808 111.236V102.64H377.76V111.236C377.76 111.866 378.096 112.188 378.684 112.188C378.838 112.188 378.992 112.174 379.132 112.132V112.972ZM383.192 112.972C382.968 113.028 382.786 113.056 382.576 113.056C381.414 113.056 380.868 112.328 380.868 111.236V102.64H381.82V111.236C381.82 111.866 382.156 112.188 382.744 112.188C382.898 112.188 383.052 112.174 383.192 112.132V112.972ZM389.778 110.9L390.478 111.292C390.128 112.188 389.204 113.112 387.552 113.112C385.466 113.112 384.234 111.558 384.234 109.192C384.234 107.022 385.522 105.468 387.454 105.468C389.05 105.468 390.422 106.616 390.422 108.632L390.394 109.458H385.2C385.284 111.432 386.222 112.272 387.65 112.272C388.77 112.272 389.428 111.628 389.778 110.9ZM387.454 106.308C386.334 106.308 385.326 106.91 385.2 108.674H389.484C389.526 107.008 388.546 106.308 387.454 106.308ZM392.07 107.512C392.07 106.336 393.176 105.468 394.73 105.468C396.074 105.468 397.11 106.112 397.418 107.092L396.634 107.4C396.34 106.686 395.654 106.308 394.702 106.308C393.666 106.308 392.994 106.742 392.994 107.428C392.994 108.044 393.4 108.422 394.282 108.604L395.262 108.8C396.886 109.122 397.642 109.822 397.642 110.928C397.642 112.216 396.494 113.112 394.842 113.112C393.344 113.112 392.294 112.524 391.79 111.404L392.602 111.068C392.952 111.852 393.722 112.272 394.814 112.272C395.962 112.272 396.718 111.768 396.718 111.012C396.718 110.312 396.326 109.934 395.346 109.724L394.142 109.472C392.784 109.192 392.07 108.506 392.07 107.512ZM407.411 105.58H408.363V113H407.411V111.866C406.963 112.664 406.179 113.112 405.269 113.112C403.813 113.112 402.931 112.174 402.931 110.564V105.58H403.883V110.48C403.883 111.698 404.499 112.258 405.535 112.258C406.851 112.258 407.411 111.208 407.411 109.752V105.58ZM412.198 111.152C412.198 112.02 412.716 112.272 413.178 112.272C413.626 112.272 413.92 112.104 414.27 111.74L414.774 112.3C414.284 112.874 413.752 113.112 413.094 113.112C412.086 113.112 411.246 112.44 411.246 111.124V106.364H409.846V105.58H411.246V103.984L412.198 103.424V105.58H414.606V106.364H412.198V111.152Z" fill="#2A2859"/>
<path d="M201.232 146V135.64H204.62C207.182 135.64 209.156 137.642 209.156 140.764C209.156 143.886 207.182 146 204.62 146H201.232ZM202.212 145.104H204.424C206.58 145.104 208.148 143.648 208.148 140.764C208.148 137.908 206.566 136.536 204.396 136.536H202.212V145.104ZM216.129 143.9L216.829 144.292C216.479 145.188 215.555 146.112 213.903 146.112C211.817 146.112 210.585 144.558 210.585 142.192C210.585 140.022 211.873 138.468 213.805 138.468C215.401 138.468 216.773 139.616 216.773 141.632L216.745 142.458H211.551C211.635 144.432 212.573 145.272 214.001 145.272C215.121 145.272 215.779 144.628 216.129 143.9ZM213.805 139.308C212.685 139.308 211.677 139.91 211.551 141.674H215.835C215.877 140.008 214.897 139.308 213.805 139.308ZM220.133 144.152C220.133 145.02 220.651 145.272 221.113 145.272C221.561 145.272 221.855 145.104 222.205 144.74L222.709 145.3C222.219 145.874 221.687 146.112 221.029 146.112C220.021 146.112 219.181 145.44 219.181 144.124V139.364H217.781V138.58H219.181V136.984L220.133 136.424V138.58H222.541V139.364H220.133V144.152ZM225.547 144.152C225.547 145.02 226.065 145.272 226.527 145.272C226.975 145.272 227.269 145.104 227.619 144.74L228.123 145.3C227.633 145.874 227.101 146.112 226.443 146.112C225.435 146.112 224.595 145.44 224.595 144.124V139.364H223.195V138.58H224.595V136.984L225.547 136.424V138.58H227.955V139.364H225.547V144.152ZM234.395 143.9L235.095 144.292C234.745 145.188 233.821 146.112 232.169 146.112C230.083 146.112 228.851 144.558 228.851 142.192C228.851 140.022 230.139 138.468 232.071 138.468C233.667 138.468 235.039 139.616 235.039 141.632L235.011 142.458H229.817C229.901 144.432 230.839 145.272 232.267 145.272C233.387 145.272 234.045 144.628 234.395 143.9ZM232.071 139.308C230.951 139.308 229.943 139.91 229.817 141.674H234.101C234.143 140.008 233.163 139.308 232.071 139.308ZM245.702 143.9L246.402 144.292C246.052 145.188 245.128 146.112 243.476 146.112C241.39 146.112 240.158 144.558 240.158 142.192C240.158 140.022 241.446 138.468 243.378 138.468C244.974 138.468 246.346 139.616 246.346 141.632L246.318 142.458H241.124C241.208 144.432 242.146 145.272 243.574 145.272C244.694 145.272 245.352 144.628 245.702 143.9ZM243.378 139.308C242.258 139.308 241.25 139.91 241.124 141.674H245.408C245.45 140.008 244.47 139.308 243.378 139.308ZM251.018 138.468C251.984 138.468 252.684 139.112 252.684 140.372V141.1L251.816 141.268V140.54C251.816 139.798 251.564 139.308 250.808 139.308C249.954 139.308 249.31 139.938 249.31 141.436V146H248.358V138.58H249.31V139.504C249.702 138.804 250.36 138.468 251.018 138.468ZM259.631 144.152C259.631 145.02 260.149 145.272 260.611 145.272C261.059 145.272 261.353 145.104 261.703 144.74L262.207 145.3C261.717 145.874 261.185 146.112 260.527 146.112C259.519 146.112 258.679 145.44 258.679 144.124V139.364H257.279V138.58H258.679V136.984L259.631 136.424V138.58H262.039V139.364H259.631V144.152ZM268.479 143.9L269.179 144.292C268.829 145.188 267.905 146.112 266.253 146.112C264.167 146.112 262.935 144.558 262.935 142.192C262.935 140.022 264.223 138.468 266.155 138.468C267.751 138.468 269.123 139.616 269.123 141.632L269.095 142.458H263.901C263.985 144.432 264.923 145.272 266.351 145.272C267.471 145.272 268.129 144.628 268.479 143.9ZM266.155 139.308C265.035 139.308 264.027 139.91 263.901 141.674H268.185C268.227 140.008 267.247 139.308 266.155 139.308ZM275.756 146L273.026 142.318L272.116 143.186V146H271.164V135.64H272.116V142.066L275.644 138.58H276.904L273.67 141.688L276.96 146H275.756ZM277.772 140.512C277.772 139.336 278.878 138.468 280.432 138.468C281.776 138.468 282.812 139.112 283.12 140.092L282.336 140.4C282.042 139.686 281.356 139.308 280.404 139.308C279.368 139.308 278.696 139.742 278.696 140.428C278.696 141.044 279.102 141.422 279.984 141.604L280.964 141.8C282.588 142.122 283.344 142.822 283.344 143.928C283.344 145.216 282.196 146.112 280.544 146.112C279.046 146.112 277.996 145.524 277.492 144.404L278.304 144.068C278.654 144.852 279.424 145.272 280.516 145.272C281.664 145.272 282.42 144.768 282.42 144.012C282.42 143.312 282.028 142.934 281.048 142.724L279.844 142.472C278.486 142.192 277.772 141.506 277.772 140.512ZM286.565 144.152C286.565 145.02 287.083 145.272 287.545 145.272C287.993 145.272 288.287 145.104 288.637 144.74L289.141 145.3C288.651 145.874 288.119 146.112 287.461 146.112C286.453 146.112 285.613 145.44 285.613 144.124V139.364H284.213V138.58H285.613V136.984L286.565 136.424V138.58H288.973V139.364H286.565V144.152ZM297.178 146.112C295.344 146.112 293.874 144.6 293.874 142.276C293.874 139.98 295.33 138.468 297.178 138.468C299.026 138.468 300.482 139.98 300.482 142.276C300.482 144.6 299.012 146.112 297.178 146.112ZM297.178 145.272C298.452 145.272 299.502 144.264 299.502 142.276C299.502 140.302 298.438 139.308 297.178 139.308C295.918 139.308 294.854 140.302 294.854 142.276C294.854 144.264 295.904 145.272 297.178 145.272ZM306.875 138.58H307.855L304.943 146H304.103L301.191 138.58H302.227L304.551 144.95L306.875 138.58ZM314.102 143.9L314.802 144.292C314.452 145.188 313.528 146.112 311.876 146.112C309.79 146.112 308.558 144.558 308.558 142.192C308.558 140.022 309.846 138.468 311.778 138.468C313.374 138.468 314.746 139.616 314.746 141.632L314.718 142.458H309.524C309.608 144.432 310.546 145.272 311.974 145.272C313.094 145.272 313.752 144.628 314.102 143.9ZM311.778 139.308C310.658 139.308 309.65 139.91 309.524 141.674H313.808C313.85 140.008 312.87 139.308 311.778 139.308ZM319.419 138.468C320.385 138.468 321.085 139.112 321.085 140.372V141.1L320.217 141.268V140.54C320.217 139.798 319.965 139.308 319.209 139.308C318.355 139.308 317.711 139.938 317.711 141.436V146H316.759V138.58H317.711V139.504C318.103 138.804 318.761 138.468 319.419 138.468ZM327.024 137.236C326.562 137.236 326.184 136.872 326.184 136.396C326.184 135.92 326.562 135.556 327.024 135.556C327.486 135.556 327.864 135.92 327.864 136.396C327.864 136.872 327.486 137.236 327.024 137.236ZM326.548 146V138.58H327.5V146H326.548ZM333.019 138.468C334.503 138.468 335.371 139.378 335.371 141.044V146H334.419V141.184C334.419 139.84 333.803 139.336 332.767 139.336C331.465 139.336 330.863 140.344 330.863 141.828V146H329.911V138.58H330.863V139.728C331.311 138.916 332.123 138.468 333.019 138.468ZM341.051 138.482C342.941 138.482 344.215 140.064 344.215 142.22C344.215 144.502 342.927 146.112 340.939 146.112C339.903 146.112 339.063 145.594 338.615 144.656V148.94H337.663V138.58H338.615V139.966C339.105 139.014 340.085 138.482 341.051 138.482ZM340.939 145.272C342.325 145.272 343.235 144.208 343.235 142.262C343.235 140.386 342.325 139.322 340.953 139.322C339.469 139.322 338.615 140.428 338.615 142.248C338.615 144.18 339.455 145.272 340.939 145.272ZM350.465 138.58H351.417V146H350.465V144.866C350.017 145.664 349.233 146.112 348.323 146.112C346.867 146.112 345.985 145.174 345.985 143.564V138.58H346.937V143.48C346.937 144.698 347.553 145.258 348.589 145.258C349.905 145.258 350.465 144.208 350.465 142.752V138.58ZM355.252 144.152C355.252 145.02 355.77 145.272 356.232 145.272C356.68 145.272 356.974 145.104 357.324 144.74L357.828 145.3C357.338 145.874 356.806 146.112 356.148 146.112C355.14 146.112 354.3 145.44 354.3 144.124V139.364H352.9V138.58H354.3V136.984L355.252 136.424V138.58H357.66V139.364H355.252V144.152ZM360.667 137.544V138.58H362.739V139.364H360.667V146H359.715V139.364H358.315V138.58H359.715V137.544C359.715 136.256 360.555 135.528 361.703 135.528C362.235 135.528 362.851 135.738 363.201 136.298L362.627 136.872C362.403 136.536 362.067 136.34 361.675 136.34C361.185 136.34 360.667 136.634 360.667 137.544ZM368.831 143.9L369.531 144.292C369.181 145.188 368.257 146.112 366.605 146.112C364.519 146.112 363.287 144.558 363.287 142.192C363.287 140.022 364.575 138.468 366.507 138.468C368.103 138.468 369.475 139.616 369.475 141.632L369.447 142.458H364.253C364.337 144.432 365.275 145.272 366.703 145.272C367.823 145.272 368.481 144.628 368.831 143.9ZM366.507 139.308C365.387 139.308 364.379 139.91 364.253 141.674H368.537C368.579 140.008 367.599 139.308 366.507 139.308ZM373.811 145.972C373.587 146.028 373.405 146.056 373.195 146.056C372.033 146.056 371.487 145.328 371.487 144.236V135.64H372.439V144.236C372.439 144.866 372.775 145.188 373.363 145.188C373.517 145.188 373.671 145.174 373.811 145.132V145.972ZM376.895 144.152C376.895 145.02 377.413 145.272 377.875 145.272C378.323 145.272 378.617 145.104 378.967 144.74L379.471 145.3C378.981 145.874 378.449 146.112 377.791 146.112C376.783 146.112 375.943 145.44 375.943 144.124V139.364H374.543V138.58H375.943V136.984L376.895 136.424V138.58H379.303V139.364H376.895V144.152ZM385.743 143.9L386.443 144.292C386.093 145.188 385.169 146.112 383.517 146.112C381.431 146.112 380.199 144.558 380.199 142.192C380.199 140.022 381.487 138.468 383.419 138.468C385.015 138.468 386.387 139.616 386.387 141.632L386.359 142.458H381.165C381.249 144.432 382.187 145.272 383.615 145.272C384.735 145.272 385.393 144.628 385.743 143.9ZM383.419 139.308C382.299 139.308 381.291 139.91 381.165 141.674H385.449C385.491 140.008 384.511 139.308 383.419 139.308ZM389.747 144.152C389.747 145.02 390.265 145.272 390.727 145.272C391.175 145.272 391.469 145.104 391.819 144.74L392.323 145.3C391.833 145.874 391.301 146.112 390.643 146.112C389.635 146.112 388.795 145.44 388.795 144.124V139.364H387.395V138.58H388.795V136.984L389.747 136.424V138.58H392.155V139.364H389.747V144.152ZM393.894 144.432H395.406V146H393.894V144.432Z" fill="#2A2859"/>
<path d="M202.212 175.076H207.028V176H201.232V165.64H202.212V175.076ZM213.463 173.9L214.163 174.292C213.813 175.188 212.889 176.112 211.237 176.112C209.151 176.112 207.919 174.558 207.919 172.192C207.919 170.022 209.207 168.468 211.139 168.468C212.735 168.468 214.107 169.616 214.107 171.632L214.079 172.458H208.885C208.969 174.432 209.907 175.272 211.335 175.272C212.455 175.272 213.113 174.628 213.463 173.9ZM211.139 169.308C210.019 169.308 209.011 169.91 208.885 171.674H213.169C213.211 170.008 212.231 169.308 211.139 169.308ZM215.756 170.512C215.756 169.336 216.862 168.468 218.416 168.468C219.76 168.468 220.796 169.112 221.104 170.092L220.32 170.4C220.026 169.686 219.34 169.308 218.388 169.308C217.352 169.308 216.68 169.742 216.68 170.428C216.68 171.044 217.086 171.422 217.968 171.604L218.948 171.8C220.572 172.122 221.328 172.822 221.328 173.928C221.328 175.216 220.18 176.112 218.528 176.112C217.03 176.112 215.98 175.524 215.476 174.404L216.288 174.068C216.638 174.852 217.408 175.272 218.5 175.272C219.648 175.272 220.404 174.768 220.404 174.012C220.404 173.312 220.012 172.934 219.032 172.724L217.828 172.472C216.47 172.192 215.756 171.506 215.756 170.512ZM234.176 168.468C235.59 168.468 236.416 169.364 236.416 170.904V176H235.464V171.044C235.464 169.84 234.89 169.336 233.924 169.336C232.622 169.336 232.076 170.344 232.076 171.828V176H231.124V171.044C231.124 169.84 230.55 169.336 229.584 169.336C228.282 169.336 227.736 170.344 227.736 171.828V176H226.784V168.58H227.736V169.742C228.184 168.916 228.968 168.468 229.836 168.468C230.942 168.468 231.684 169.014 231.95 169.98C232.37 169 233.224 168.468 234.176 168.468ZM243.774 173.9L244.474 174.292C244.124 175.188 243.2 176.112 241.548 176.112C239.462 176.112 238.23 174.558 238.23 172.192C238.23 170.022 239.518 168.468 241.45 168.468C243.046 168.468 244.418 169.616 244.418 171.632L244.39 172.458H239.196C239.28 174.432 240.218 175.272 241.646 175.272C242.766 175.272 243.424 174.628 243.774 173.9ZM241.45 169.308C240.33 169.308 239.322 169.91 239.196 171.674H243.48C243.522 170.008 242.542 169.308 241.45 169.308ZM249.091 168.468C250.057 168.468 250.757 169.112 250.757 170.372V171.1L249.889 171.268V170.54C249.889 169.798 249.637 169.308 248.881 169.308C248.027 169.308 247.383 169.938 247.383 171.436V176H246.431V168.58H247.383V169.504C247.775 168.804 248.433 168.468 249.091 168.468Z" fill="#2A2859"/>
<path fill-rule="evenodd" clip-rule="evenodd" d="M269 173.92L263.56 168.625L262.812 169.353L269 175.375L275.188 169.353L274.44 168.625L269 173.92Z" fill="#2A2859"/>
<rect x="201" y="191" width="398" height="146" fill="white"/>
<path d="M221.796 204.68C224.586 204.68 226.26 206.39 226.26 208.784C226.26 211.178 224.496 212.816 221.706 212.816H218.844V218H217.584V204.68H221.796ZM221.85 211.7C223.902 211.7 224.964 210.656 224.964 208.784C224.964 206.912 223.902 205.832 221.85 205.832H218.844V211.7H221.85ZM231.129 217.964C230.841 218.036 230.607 218.072 230.337 218.072C228.843 218.072 228.141 217.136 228.141 215.732V204.68H229.365V215.732C229.365 216.542 229.797 216.956 230.553 216.956C230.751 216.956 230.949 216.938 231.129 216.884V217.964ZM240.272 218H239.156C239.012 217.478 238.904 216.848 238.904 216.128C238.418 217.244 237.176 218.144 235.628 218.144C233.936 218.144 232.658 217.046 232.658 215.408C232.658 213.446 234.422 212.42 236.384 212.42C237.158 212.42 237.914 212.51 238.688 212.78V211.52C238.688 210.278 237.932 209.432 236.456 209.432C235.268 209.432 234.26 209.954 233.756 211.412L232.676 211.088C233.396 209.072 234.854 208.316 236.528 208.316C238.886 208.316 239.876 209.738 239.876 211.376V215.3C239.876 216.38 240.056 217.352 240.272 218ZM238.688 214.04V213.824C237.95 213.518 237.194 213.428 236.456 213.428C235.016 213.428 233.882 214.076 233.882 215.336C233.882 216.488 234.692 217.1 235.844 217.1C237.086 217.1 238.688 216.362 238.688 214.04ZM242.302 210.944C242.302 209.432 243.724 208.316 245.722 208.316C247.45 208.316 248.782 209.144 249.178 210.404L248.17 210.8C247.792 209.882 246.91 209.396 245.686 209.396C244.354 209.396 243.49 209.954 243.49 210.836C243.49 211.628 244.012 212.114 245.146 212.348L246.406 212.6C248.494 213.014 249.466 213.914 249.466 215.336C249.466 216.992 247.99 218.144 245.866 218.144C243.94 218.144 242.59 217.388 241.942 215.948L242.986 215.516C243.436 216.524 244.426 217.064 245.83 217.064C247.306 217.064 248.278 216.416 248.278 215.444C248.278 214.544 247.774 214.058 246.514 213.788L244.966 213.464C243.22 213.104 242.302 212.222 242.302 210.944ZM251.208 210.944C251.208 209.432 252.63 208.316 254.628 208.316C256.356 208.316 257.688 209.144 258.084 210.404L257.076 210.8C256.698 209.882 255.816 209.396 254.592 209.396C253.26 209.396 252.396 209.954 252.396 210.836C252.396 211.628 252.918 212.114 254.052 212.348L255.312 212.6C257.4 213.014 258.372 213.914 258.372 215.336C258.372 216.992 256.896 218.144 254.772 218.144C252.846 218.144 251.496 217.388 250.848 215.948L251.892 215.516C252.342 216.524 253.332 217.064 254.736 217.064C256.212 217.064 257.184 216.416 257.184 215.444C257.184 214.544 256.68 214.058 255.42 213.788L253.872 213.464C252.126 213.104 251.208 212.222 251.208 210.944ZM264.613 208.316C266.521 208.316 267.637 209.486 267.637 211.628V218H266.413V211.808C266.413 210.08 265.621 209.432 264.289 209.432C262.615 209.432 261.841 210.728 261.841 212.636V218H260.617V204.68H261.841V209.936C262.417 208.892 263.461 208.316 264.613 208.316ZM274.019 218.144C271.661 218.144 269.771 216.2 269.771 213.212C269.771 210.26 271.643 208.316 274.019 208.316C276.395 208.316 278.267 210.26 278.267 213.212C278.267 216.2 276.377 218.144 274.019 218.144ZM274.019 217.064C275.657 217.064 277.007 215.768 277.007 213.212C277.007 210.674 275.639 209.396 274.019 209.396C272.399 209.396 271.031 210.674 271.031 213.212C271.031 215.768 272.381 217.064 274.019 217.064ZM283.542 217.964C283.254 218.036 283.02 218.072 282.75 218.072C281.256 218.072 280.554 217.136 280.554 215.732V204.68H281.778V215.732C281.778 216.542 282.21 216.956 282.966 216.956C283.164 216.956 283.362 216.938 283.542 216.884V217.964ZM291.882 204.68H293.106V218H291.882V216.218C291.252 217.442 289.992 218.126 288.75 218.126C286.32 218.126 284.682 216.092 284.682 213.32C284.682 210.386 286.338 208.316 288.894 208.316C290.226 208.316 291.306 208.982 291.882 210.188V204.68ZM288.876 217.046C290.784 217.046 291.882 215.624 291.882 213.284C291.882 210.8 290.802 209.396 288.894 209.396C287.112 209.396 285.942 210.764 285.942 213.266C285.942 215.678 287.112 217.046 288.876 217.046ZM302.438 215.3L303.338 215.804C302.888 216.956 301.7 218.144 299.576 218.144C296.894 218.144 295.31 216.146 295.31 213.104C295.31 210.314 296.966 208.316 299.45 208.316C301.502 208.316 303.266 209.792 303.266 212.384L303.23 213.446H296.552C296.66 215.984 297.866 217.064 299.702 217.064C301.142 217.064 301.988 216.236 302.438 215.3ZM299.45 209.396C298.01 209.396 296.714 210.17 296.552 212.438H302.06C302.114 210.296 300.854 209.396 299.45 209.396ZM309.073 208.316C310.315 208.316 311.215 209.144 311.215 210.764V211.7L310.099 211.916V210.98C310.099 210.026 309.775 209.396 308.803 209.396C307.705 209.396 306.877 210.206 306.877 212.132V218H305.653V208.46H306.877V209.648C307.381 208.748 308.227 208.316 309.073 208.316Z" fill="#808080"/>
<rect x="201" y="191" width="398" height="146" stroke="#2A2859" stroke-width="2"/>
<path d="M562.699 362.112C560.655 362.112 558.919 360.18 558.919 356.82C558.919 353.46 560.641 351.528 562.699 351.528C564.757 351.528 566.479 353.46 566.479 356.82C566.479 360.18 564.743 362.112 562.699 362.112ZM562.699 361.188C564.239 361.188 565.499 359.914 565.499 356.82C565.499 353.796 564.253 352.452 562.699 352.452C561.145 352.452 559.899 353.796 559.899 356.82C559.899 359.914 561.159 361.188 562.699 361.188ZM571.094 350.94H572.018L569.218 364.1H568.294L571.094 350.94ZM578.245 361.188H580.541V362H574.885V361.188H577.293V352.732L575.025 354.3V353.264L577.349 351.64H578.245V361.188ZM586.57 362.112C584.526 362.112 582.79 360.18 582.79 356.82C582.79 353.46 584.512 351.528 586.57 351.528C588.628 351.528 590.35 353.46 590.35 356.82C590.35 360.18 588.614 362.112 586.57 362.112ZM586.57 361.188C588.11 361.188 589.37 359.914 589.37 356.82C589.37 353.796 588.124 352.452 586.57 352.452C585.016 352.452 583.77 353.796 583.77 356.82C583.77 359.914 585.03 361.188 586.57 361.188ZM595.525 362.112C593.481 362.112 591.745 360.18 591.745 356.82C591.745 353.46 593.467 351.528 595.525 351.528C597.583 351.528 599.305 353.46 599.305 356.82C599.305 360.18 597.569 362.112 595.525 362.112ZM595.525 361.188C597.065 361.188 598.325 359.914 598.325 356.82C598.325 353.796 597.079 352.452 595.525 352.452C593.971 352.452 592.725 353.796 592.725 356.82C592.725 359.914 593.985 361.188 595.525 361.188Z" fill="#2A2859"/>
<g clip-path="url(#clip0_5614_37530)">
<rect x="152" y="104" width="50" height="1" fill="#6FE9FF"/>
<g clip-path="url(#clip1_5614_37530)">
<rect x="152" y="92" width="24" height="24" rx="12" fill="#6FE9FF"/>
<path d="M165.183 99.2727V108H164.126V100.381H164.075L161.944 101.795V100.722L164.126 99.2727H165.183Z" fill="#2A2859"/>
</g>
</g>
<g clip-path="url(#clip2_5614_37530)">
<rect x="298" y="44" width="1" height="51" fill="#6FE9FF"/>
<g clip-path="url(#clip3_5614_37530)">
<rect x="286" y="44" width="24" height="24" rx="12" fill="#6FE9FF"/>
<path d="M295.271 60V59.233L298.151 56.0795C298.489 55.7102 298.768 55.3892 298.987 55.1165C299.205 54.8409 299.367 54.5824 299.472 54.3409C299.58 54.0966 299.634 53.8409 299.634 53.5739C299.634 53.267 299.56 53.0014 299.413 52.777C299.268 52.5526 299.069 52.3793 298.816 52.2571C298.563 52.1349 298.279 52.0739 297.964 52.0739C297.629 52.0739 297.336 52.1435 297.086 52.2827C296.839 52.419 296.647 52.6108 296.511 52.858C296.377 53.1051 296.31 53.3949 296.31 53.7273H295.305C295.305 53.2159 295.423 52.767 295.658 52.3807C295.894 51.9943 296.215 51.6932 296.621 51.4773C297.031 51.2614 297.489 51.1534 297.998 51.1534C298.509 51.1534 298.962 51.2614 299.357 51.4773C299.752 51.6932 300.062 51.9844 300.286 52.3509C300.511 52.7173 300.623 53.125 300.623 53.5739C300.623 53.8949 300.565 54.2088 300.448 54.5156C300.335 54.8196 300.136 55.1591 299.852 55.5341C299.57 55.9062 299.18 56.3608 298.68 56.8977L296.719 58.9943V59.0625H300.776V60H295.271Z" fill="#2A2859"/>
</g>
</g>
<g clip-path="url(#clip4_5614_37530)">
<rect x="378.5" y="44" width="1" height="51" fill="#6FE9FF"/>
<g clip-path="url(#clip5_5614_37530)">
<rect x="366.5" y="44" width="24" height="24" rx="12" fill="#6FE9FF"/>
<path d="M378.532 60.1193C377.969 60.1193 377.468 60.0227 377.028 59.8295C376.59 59.6364 376.242 59.3679 375.984 59.0241C375.728 58.6776 375.589 58.2756 375.566 57.8182H376.64C376.663 58.0994 376.759 58.3423 376.93 58.5469C377.1 58.7486 377.323 58.9048 377.599 59.0156C377.874 59.1264 378.18 59.1818 378.515 59.1818C378.89 59.1818 379.222 59.1165 379.512 58.9858C379.802 58.8551 380.029 58.6733 380.194 58.4403C380.359 58.2074 380.441 57.9375 380.441 57.6307C380.441 57.3097 380.362 57.027 380.202 56.7827C380.043 56.5355 379.81 56.3423 379.504 56.2031C379.197 56.0639 378.822 55.9943 378.379 55.9943H377.68V55.0568H378.379C378.725 55.0568 379.029 54.9943 379.29 54.8693C379.555 54.7443 379.761 54.5682 379.908 54.3409C380.059 54.1136 380.134 53.8466 380.134 53.5398C380.134 53.2443 380.069 52.9872 379.938 52.7685C379.808 52.5497 379.623 52.3793 379.384 52.2571C379.148 52.1349 378.87 52.0739 378.549 52.0739C378.248 52.0739 377.964 52.1293 377.697 52.2401C377.433 52.348 377.217 52.5057 377.049 52.7131C376.881 52.9176 376.79 53.1648 376.776 53.4545H375.754C375.771 52.9972 375.908 52.5966 376.167 52.2528C376.425 51.9062 376.763 51.6364 377.181 51.4432C377.602 51.25 378.063 51.1534 378.566 51.1534C379.106 51.1534 379.569 51.2628 379.955 51.4815C380.342 51.6974 380.638 51.983 380.846 52.3381C381.053 52.6932 381.157 53.0767 381.157 53.4886C381.157 53.9801 381.028 54.3991 380.769 54.7457C380.513 55.0923 380.165 55.3324 379.725 55.4659V55.5341C380.276 55.625 380.707 55.8594 381.016 56.2372C381.326 56.6122 381.481 57.0767 381.481 57.6307C381.481 58.1051 381.352 58.5312 381.093 58.9091C380.837 59.2841 380.488 59.5795 380.045 59.7955C379.602 60.0114 379.097 60.1193 378.532 60.1193Z" fill="#2A2859"/>
</g>
</g>
<g clip-path="url(#clip6_5614_37530)">
<rect x="152" y="137.903" width="48" height="1" fill="#6FE9FF"/>
<g clip-path="url(#clip7_5614_37530)">
<rect x="152" y="125.903" width="24" height="24" rx="12" fill="#6FE9FF"/>
<path d="M160.849 140.113V139.244L164.684 133.176H165.315V134.522H164.889L161.991 139.108V139.176H167.156V140.113H160.849ZM164.957 141.903V139.849V139.444V133.176H165.963V141.903H164.957Z" fill="#2A2859"/>
</g>
</g>
<g clip-path="url(#clip8_5614_37530)">
<rect x="152" y="172" width="48" height="1" fill="#6FE9FF"/>
<g clip-path="url(#clip9_5614_37530)">
<rect x="152" y="160" width="24" height="24" rx="12" fill="#6FE9FF"/>
<path d="M163.98 176.119C163.48 176.119 163.03 176.02 162.629 175.821C162.229 175.622 161.908 175.349 161.666 175.003C161.425 174.656 161.293 174.261 161.27 173.818H162.293C162.333 174.213 162.512 174.54 162.83 174.798C163.151 175.054 163.534 175.182 163.98 175.182C164.338 175.182 164.656 175.098 164.935 174.93C165.216 174.763 165.436 174.533 165.595 174.24C165.757 173.945 165.838 173.611 165.838 173.239C165.838 172.858 165.754 172.518 165.587 172.22C165.422 171.919 165.195 171.682 164.905 171.509C164.615 171.335 164.284 171.247 163.912 171.244C163.645 171.241 163.371 171.283 163.09 171.368C162.808 171.45 162.577 171.557 162.395 171.688L161.406 171.568L161.935 167.273H166.469V168.21H162.821L162.514 170.784H162.566C162.744 170.642 162.969 170.524 163.239 170.43C163.509 170.337 163.79 170.29 164.083 170.29C164.617 170.29 165.093 170.418 165.51 170.673C165.931 170.926 166.26 171.273 166.499 171.713C166.74 172.153 166.861 172.656 166.861 173.222C166.861 173.778 166.736 174.276 166.486 174.713C166.239 175.148 165.898 175.491 165.463 175.744C165.029 175.994 164.534 176.119 163.98 176.119Z" fill="#2A2859"/>
</g>
</g>
<g clip-path="url(#clip10_5614_37530)">
<rect x="152" y="266" width="48" height="1" fill="#6FE9FF"/>
<g clip-path="url(#clip11_5614_37530)">
<rect x="152" y="254" width="24" height="24" rx="12" fill="#6FE9FF"/>
<path d="M164.057 270.119C163.699 270.114 163.341 270.045 162.983 269.915C162.625 269.784 162.298 269.564 162.003 269.254C161.708 268.942 161.47 268.52 161.291 267.989C161.112 267.455 161.023 266.784 161.023 265.977C161.023 265.205 161.095 264.52 161.24 263.923C161.385 263.324 161.595 262.82 161.871 262.411C162.146 261.999 162.479 261.686 162.868 261.473C163.26 261.26 163.702 261.153 164.193 261.153C164.682 261.153 165.117 261.251 165.497 261.447C165.881 261.641 166.193 261.911 166.435 262.257C166.676 262.604 166.833 263.003 166.904 263.455H165.864C165.767 263.062 165.58 262.737 165.301 262.479C165.023 262.22 164.654 262.091 164.193 262.091C163.517 262.091 162.985 262.385 162.595 262.973C162.209 263.561 162.014 264.386 162.012 265.449H162.08C162.239 265.207 162.428 265.001 162.646 264.831C162.868 264.658 163.112 264.524 163.379 264.43C163.646 264.337 163.929 264.29 164.227 264.29C164.727 264.29 165.185 264.415 165.6 264.665C166.014 264.912 166.347 265.254 166.597 265.692C166.847 266.126 166.972 266.625 166.972 267.188C166.972 267.727 166.851 268.222 166.61 268.67C166.368 269.116 166.029 269.472 165.591 269.736C165.156 269.997 164.645 270.125 164.057 270.119ZM164.057 269.182C164.415 269.182 164.736 269.092 165.02 268.913C165.307 268.734 165.533 268.494 165.698 268.193C165.865 267.892 165.949 267.557 165.949 267.188C165.949 266.827 165.868 266.499 165.706 266.203C165.547 265.905 165.327 265.668 165.046 265.491C164.767 265.315 164.449 265.227 164.091 265.227C163.821 265.227 163.57 265.281 163.337 265.389C163.104 265.494 162.899 265.639 162.723 265.824C162.55 266.009 162.414 266.22 162.314 266.459C162.215 266.695 162.165 266.943 162.165 267.205C162.165 267.551 162.246 267.875 162.408 268.176C162.573 268.477 162.797 268.72 163.081 268.905C163.368 269.089 163.693 269.182 164.057 269.182Z" fill="#2A2859"/>
</g>
</g>
<g clip-path="url(#clip12_5614_37530)">
<rect x="152" y="212" width="66" height="1" fill="#6FE9FF"/>
<g clip-path="url(#clip13_5614_37530)">
<rect x="152" y="200" width="24" height="24" rx="12" fill="#6FE9FF"/>
<path d="M161.748 216L165.652 208.278V208.21H161.152V207.273H166.743V208.261L162.856 216H161.748Z" fill="#2A2859"/>
</g>
</g>
<g clip-path="url(#clip14_5614_37530)">
<rect x="599.305" y="358" width="48.6951" height="1" fill="#6FE9FF"/>
<g clip-path="url(#clip15_5614_37530)">
<rect x="624" y="346" width="24" height="24" rx="12" fill="#6FE9FF"/>
<path d="M636.001 362.119C635.416 362.119 634.899 362.016 634.45 361.808C634.004 361.598 633.656 361.31 633.406 360.943C633.156 360.574 633.033 360.153 633.035 359.682C633.033 359.312 633.105 358.972 633.253 358.659C633.401 358.344 633.602 358.081 633.858 357.871C634.116 357.658 634.405 357.523 634.723 357.466V357.415C634.305 357.307 633.973 357.072 633.726 356.712C633.479 356.348 633.356 355.935 633.359 355.472C633.356 355.028 633.469 354.632 633.696 354.283C633.923 353.933 634.236 353.658 634.633 353.456C635.034 353.254 635.49 353.153 636.001 353.153C636.507 353.153 636.959 353.254 637.356 353.456C637.754 353.658 638.067 353.933 638.294 354.283C638.524 354.632 638.641 355.028 638.643 355.472C638.641 355.935 638.514 356.348 638.264 356.712C638.017 357.072 637.689 357.307 637.28 357.415V357.466C637.595 357.523 637.879 357.658 638.132 357.871C638.385 358.081 638.587 358.344 638.737 358.659C638.888 358.972 638.964 359.312 638.967 359.682C638.964 360.153 638.837 360.574 638.584 360.943C638.334 361.31 637.986 361.598 637.54 361.808C637.097 362.016 636.584 362.119 636.001 362.119ZM636.001 361.182C636.396 361.182 636.737 361.118 637.024 360.99C637.311 360.862 637.533 360.682 637.689 360.449C637.845 360.216 637.925 359.943 637.927 359.631C637.925 359.301 637.839 359.01 637.672 358.757C637.504 358.504 637.276 358.305 636.986 358.161C636.699 358.016 636.371 357.943 636.001 357.943C635.629 357.943 635.297 358.016 635.004 358.161C634.714 358.305 634.486 358.504 634.318 358.757C634.153 359.01 634.072 359.301 634.075 359.631C634.072 359.943 634.148 360.216 634.301 360.449C634.457 360.682 634.68 360.862 634.97 360.99C635.26 361.118 635.604 361.182 636.001 361.182ZM636.001 357.04C636.314 357.04 636.591 356.977 636.832 356.852C637.077 356.727 637.268 356.553 637.408 356.328C637.547 356.104 637.618 355.841 637.621 355.54C637.618 355.244 637.548 354.987 637.412 354.768C637.276 354.547 637.087 354.376 636.845 354.257C636.604 354.135 636.322 354.074 636.001 354.074C635.675 354.074 635.389 354.135 635.145 354.257C634.901 354.376 634.712 354.547 634.578 354.768C634.445 354.987 634.379 355.244 634.382 355.54C634.379 355.841 634.446 356.104 634.582 356.328C634.722 356.553 634.913 356.727 635.158 356.852C635.402 356.977 635.683 357.04 636.001 357.04Z" fill="#2A2859"/>
</g>
</g>
<defs>
<clipPath id="clip0_5614_37530">
<rect width="49.566" height="24" fill="white" transform="translate(152 92)"/>
</clipPath>
<clipPath id="clip1_5614_37530">
<rect x="152" y="92" width="24" height="24" rx="12" fill="white"/>
</clipPath>
<clipPath id="clip2_5614_37530">
<rect width="24" height="51" fill="white" transform="translate(286 44)"/>
</clipPath>
<clipPath id="clip3_5614_37530">
<rect x="286" y="44" width="24" height="24" rx="12" fill="white"/>
</clipPath>
<clipPath id="clip4_5614_37530">
<rect width="24" height="51" fill="white" transform="translate(366.5 44)"/>
</clipPath>
<clipPath id="clip5_5614_37530">
<rect x="366.5" y="44" width="24" height="24" rx="12" fill="white"/>
</clipPath>
<clipPath id="clip6_5614_37530">
<rect width="48" height="24" fill="white" transform="translate(152 125.903)"/>
</clipPath>
<clipPath id="clip7_5614_37530">
<rect x="152" y="125.903" width="24" height="24" rx="12" fill="white"/>
</clipPath>
<clipPath id="clip8_5614_37530">
<rect width="48" height="24" fill="white" transform="translate(152 160)"/>
</clipPath>
<clipPath id="clip9_5614_37530">
<rect x="152" y="160" width="24" height="24" rx="12" fill="white"/>
</clipPath>
<clipPath id="clip10_5614_37530">
<rect width="48" height="24" fill="white" transform="translate(152 254)"/>
</clipPath>
<clipPath id="clip11_5614_37530">
<rect x="152" y="254" width="24" height="24" rx="12" fill="white"/>
</clipPath>
<clipPath id="clip12_5614_37530">
<rect width="65.584" height="24" fill="white" transform="translate(152 200)"/>
</clipPath>
<clipPath id="clip13_5614_37530">
<rect x="152" y="200" width="24" height="24" rx="12" fill="white"/>
</clipPath>
<clipPath id="clip14_5614_37530">
<rect width="48.6951" height="24" fill="white" transform="translate(599.305 346)"/>
</clipPath>
<clipPath id="clip15_5614_37530">
<rect x="624" y="346" width="24" height="24" rx="12" fill="white"/>
</clipPath>
</defs>
</svg>
