<svg width="1872" height="382" viewBox="0 0 1872 382" fill="none" xmlns="http://www.w3.org/2000/svg">
<rect width="1872" height="382" fill="white"/>
<path d="M67.672 74.056H74.152V76H65.566V62.68H74.044V64.624H67.672V68.35H72.586V70.294H67.672V74.056ZM78.4873 73.048C78.4873 74.11 79.1353 74.434 79.8013 74.434C80.3233 74.434 80.7373 74.218 81.1513 73.804L82.0153 75.1C81.2953 75.82 80.5033 76.162 79.4773 76.162C77.8213 76.162 76.4713 75.154 76.4713 73.174V68.026H74.7973V66.46H76.4713V64.336L78.4873 63.418V66.46H81.8533V68.026H78.4873V73.048ZM84.7691 64.876C83.9771 64.876 83.3471 64.264 83.3471 63.454C83.3471 62.644 83.9771 62.032 84.7691 62.032C85.5611 62.032 86.1731 62.644 86.1731 63.454C86.1731 64.264 85.5611 64.876 84.7691 64.876ZM83.7611 76V66.46H85.7771V76H83.7611ZM94.6708 76L91.7728 71.626L90.6748 72.706V76H88.6588V62.68H90.6748V70.42L94.5268 66.46H97.0108L93.1048 70.312L97.0828 76H94.6708ZM104.679 72.994L106.047 73.786C105.507 74.974 104.247 76.162 102.069 76.162C99.2428 76.162 97.5328 74.074 97.5328 71.14C97.5328 68.242 99.3868 66.244 101.925 66.244C104.175 66.244 106.029 67.756 106.029 70.456L105.993 71.644H99.5128C99.6208 73.66 100.611 74.524 102.195 74.524C103.365 74.524 104.175 73.894 104.679 72.994ZM101.925 67.828C100.701 67.828 99.6748 68.476 99.5128 70.204H104.067C104.085 68.512 103.041 67.828 101.925 67.828ZM110.84 73.048C110.84 74.11 111.488 74.434 112.154 74.434C112.676 74.434 113.09 74.218 113.504 73.804L114.368 75.1C113.648 75.82 112.856 76.162 111.83 76.162C110.174 76.162 108.824 75.154 108.824 73.174V68.026H107.15V66.46H108.824V64.336L110.84 63.418V66.46H114.206V68.026H110.84V73.048ZM118.655 73.048C118.655 74.11 119.303 74.434 119.969 74.434C120.491 74.434 120.905 74.218 121.319 73.804L122.183 75.1C121.463 75.82 120.671 76.162 119.645 76.162C117.989 76.162 116.639 75.154 116.639 73.174V68.026H114.965V66.46H116.639V64.336L118.655 63.418V66.46H122.021V68.026H118.655V73.048Z" fill="#2A2859"/>
<path d="M65.232 108V97.64H68.62C71.182 97.64 73.156 99.642 73.156 102.764C73.156 105.886 71.182 108 68.62 108H65.232ZM66.212 107.104H68.424C70.58 107.104 72.148 105.648 72.148 102.764C72.148 99.908 70.566 98.536 68.396 98.536H66.212V107.104ZM80.1294 105.9L80.8294 106.292C80.4794 107.188 79.5554 108.112 77.9034 108.112C75.8174 108.112 74.5854 106.558 74.5854 104.192C74.5854 102.022 75.8734 100.468 77.8054 100.468C79.4014 100.468 80.7734 101.616 80.7734 103.632L80.7454 104.458H75.5514C75.6354 106.432 76.5734 107.272 78.0014 107.272C79.1214 107.272 79.7794 106.628 80.1294 105.9ZM77.8054 101.308C76.6854 101.308 75.6774 101.91 75.5514 103.674H79.8354C79.8774 102.008 78.8974 101.308 77.8054 101.308ZM84.1333 106.152C84.1333 107.02 84.6513 107.272 85.1133 107.272C85.5613 107.272 85.8553 107.104 86.2053 106.74L86.7093 107.3C86.2193 107.874 85.6873 108.112 85.0293 108.112C84.0213 108.112 83.1813 107.44 83.1813 106.124V101.364H81.7813V100.58H83.1813V98.984L84.1333 98.424V100.58H86.5413V101.364H84.1333V106.152ZM89.5474 106.152C89.5474 107.02 90.0654 107.272 90.5274 107.272C90.9754 107.272 91.2694 107.104 91.6194 106.74L92.1234 107.3C91.6334 107.874 91.1014 108.112 90.4434 108.112C89.4354 108.112 88.5954 107.44 88.5954 106.124V101.364H87.1954V100.58H88.5954V98.984L89.5474 98.424V100.58H91.9554V101.364H89.5474V106.152ZM98.395 105.9L99.095 106.292C98.745 107.188 97.821 108.112 96.169 108.112C94.083 108.112 92.851 106.558 92.851 104.192C92.851 102.022 94.139 100.468 96.071 100.468C97.667 100.468 99.039 101.616 99.039 103.632L99.011 104.458H93.817C93.901 106.432 94.839 107.272 96.267 107.272C97.387 107.272 98.045 106.628 98.395 105.9ZM96.071 101.308C94.951 101.308 93.943 101.91 93.817 103.674H98.101C98.143 102.008 97.163 101.308 96.071 101.308ZM109.702 105.9L110.402 106.292C110.052 107.188 109.128 108.112 107.476 108.112C105.39 108.112 104.158 106.558 104.158 104.192C104.158 102.022 105.446 100.468 107.378 100.468C108.974 100.468 110.346 101.616 110.346 103.632L110.318 104.458H105.124C105.208 106.432 106.146 107.272 107.574 107.272C108.694 107.272 109.352 106.628 109.702 105.9ZM107.378 101.308C106.258 101.308 105.25 101.91 105.124 103.674H109.408C109.45 102.008 108.47 101.308 107.378 101.308ZM115.018 100.468C115.984 100.468 116.684 101.112 116.684 102.372V103.1L115.816 103.268V102.54C115.816 101.798 115.564 101.308 114.808 101.308C113.954 101.308 113.31 101.938 113.31 103.436V108H112.358V100.58H113.31V101.504C113.702 100.804 114.36 100.468 115.018 100.468ZM123.631 106.152C123.631 107.02 124.149 107.272 124.611 107.272C125.059 107.272 125.353 107.104 125.703 106.74L126.207 107.3C125.717 107.874 125.185 108.112 124.527 108.112C123.519 108.112 122.679 107.44 122.679 106.124V101.364H121.279V100.58H122.679V98.984L123.631 98.424V100.58H126.039V101.364H123.631V106.152ZM132.479 105.9L133.179 106.292C132.829 107.188 131.905 108.112 130.253 108.112C128.167 108.112 126.935 106.558 126.935 104.192C126.935 102.022 128.223 100.468 130.155 100.468C131.751 100.468 133.123 101.616 133.123 103.632L133.095 104.458H127.901C127.985 106.432 128.923 107.272 130.351 107.272C131.471 107.272 132.129 106.628 132.479 105.9ZM130.155 101.308C129.035 101.308 128.027 101.91 127.901 103.674H132.185C132.227 102.008 131.247 101.308 130.155 101.308ZM139.756 108L137.026 104.318L136.116 105.186V108H135.164V97.64H136.116V104.066L139.644 100.58H140.904L137.67 103.688L140.96 108H139.756ZM141.772 102.512C141.772 101.336 142.878 100.468 144.432 100.468C145.776 100.468 146.812 101.112 147.12 102.092L146.336 102.4C146.042 101.686 145.356 101.308 144.404 101.308C143.368 101.308 142.696 101.742 142.696 102.428C142.696 103.044 143.102 103.422 143.984 103.604L144.964 103.8C146.588 104.122 147.344 104.822 147.344 105.928C147.344 107.216 146.196 108.112 144.544 108.112C143.046 108.112 141.996 107.524 141.492 106.404L142.304 106.068C142.654 106.852 143.424 107.272 144.516 107.272C145.664 107.272 146.42 106.768 146.42 106.012C146.42 105.312 146.028 104.934 145.048 104.724L143.844 104.472C142.486 104.192 141.772 103.506 141.772 102.512ZM150.565 106.152C150.565 107.02 151.083 107.272 151.545 107.272C151.993 107.272 152.287 107.104 152.637 106.74L153.141 107.3C152.651 107.874 152.119 108.112 151.461 108.112C150.453 108.112 149.613 107.44 149.613 106.124V101.364H148.213V100.58H149.613V98.984L150.565 98.424V100.58H152.973V101.364H150.565V106.152ZM161.178 108.112C159.344 108.112 157.874 106.6 157.874 104.276C157.874 101.98 159.33 100.468 161.178 100.468C163.026 100.468 164.482 101.98 164.482 104.276C164.482 106.6 163.012 108.112 161.178 108.112ZM161.178 107.272C162.452 107.272 163.502 106.264 163.502 104.276C163.502 102.302 162.438 101.308 161.178 101.308C159.918 101.308 158.854 102.302 158.854 104.276C158.854 106.264 159.904 107.272 161.178 107.272ZM170.875 100.58H171.855L168.943 108H168.103L165.191 100.58H166.227L168.551 106.95L170.875 100.58ZM178.102 105.9L178.802 106.292C178.452 107.188 177.528 108.112 175.876 108.112C173.79 108.112 172.558 106.558 172.558 104.192C172.558 102.022 173.846 100.468 175.778 100.468C177.374 100.468 178.746 101.616 178.746 103.632L178.718 104.458H173.524C173.608 106.432 174.546 107.272 175.974 107.272C177.094 107.272 177.752 106.628 178.102 105.9ZM175.778 101.308C174.658 101.308 173.65 101.91 173.524 103.674H177.808C177.85 102.008 176.87 101.308 175.778 101.308ZM183.419 100.468C184.385 100.468 185.085 101.112 185.085 102.372V103.1L184.217 103.268V102.54C184.217 101.798 183.965 101.308 183.209 101.308C182.355 101.308 181.711 101.938 181.711 103.436V108H180.759V100.58H181.711V101.504C182.103 100.804 182.761 100.468 183.419 100.468ZM191.024 99.236C190.562 99.236 190.184 98.872 190.184 98.396C190.184 97.92 190.562 97.556 191.024 97.556C191.486 97.556 191.864 97.92 191.864 98.396C191.864 98.872 191.486 99.236 191.024 99.236ZM190.548 108V100.58H191.5V108H190.548ZM197.019 100.468C198.503 100.468 199.371 101.378 199.371 103.044V108H198.419V103.184C198.419 101.84 197.803 101.336 196.767 101.336C195.465 101.336 194.863 102.344 194.863 103.828V108H193.911V100.58H194.863V101.728C195.311 100.916 196.123 100.468 197.019 100.468ZM205.051 100.482C206.941 100.482 208.215 102.064 208.215 104.22C208.215 106.502 206.927 108.112 204.939 108.112C203.903 108.112 203.063 107.594 202.615 106.656V110.94H201.663V100.58H202.615V101.966C203.105 101.014 204.085 100.482 205.051 100.482ZM204.939 107.272C206.325 107.272 207.235 106.208 207.235 104.262C207.235 102.386 206.325 101.322 204.953 101.322C203.469 101.322 202.615 102.428 202.615 104.248C202.615 106.18 203.455 107.272 204.939 107.272ZM214.465 100.58H215.417V108H214.465V106.866C214.017 107.664 213.233 108.112 212.323 108.112C210.867 108.112 209.985 107.174 209.985 105.564V100.58H210.937V105.48C210.937 106.698 211.553 107.258 212.589 107.258C213.905 107.258 214.465 106.208 214.465 104.752V100.58ZM219.252 106.152C219.252 107.02 219.77 107.272 220.232 107.272C220.68 107.272 220.974 107.104 221.324 106.74L221.828 107.3C221.338 107.874 220.806 108.112 220.148 108.112C219.14 108.112 218.3 107.44 218.3 106.124V101.364H216.9V100.58H218.3V98.984L219.252 98.424V100.58H221.66V101.364H219.252V106.152ZM224.667 99.544V100.58H226.739V101.364H224.667V108H223.715V101.364H222.315V100.58H223.715V99.544C223.715 98.256 224.555 97.528 225.703 97.528C226.235 97.528 226.851 97.738 227.201 98.298L226.627 98.872C226.403 98.536 226.067 98.34 225.675 98.34C225.185 98.34 224.667 98.634 224.667 99.544ZM232.831 105.9L233.531 106.292C233.181 107.188 232.257 108.112 230.605 108.112C228.519 108.112 227.287 106.558 227.287 104.192C227.287 102.022 228.575 100.468 230.507 100.468C232.103 100.468 233.475 101.616 233.475 103.632L233.447 104.458H228.253C228.337 106.432 229.275 107.272 230.703 107.272C231.823 107.272 232.481 106.628 232.831 105.9ZM230.507 101.308C229.387 101.308 228.379 101.91 228.253 103.674H232.537C232.579 102.008 231.599 101.308 230.507 101.308ZM237.811 107.972C237.587 108.028 237.405 108.056 237.195 108.056C236.033 108.056 235.487 107.328 235.487 106.236V97.64H236.439V106.236C236.439 106.866 236.775 107.188 237.363 107.188C237.517 107.188 237.671 107.174 237.811 107.132V107.972ZM240.895 106.152C240.895 107.02 241.413 107.272 241.875 107.272C242.323 107.272 242.617 107.104 242.967 106.74L243.471 107.3C242.981 107.874 242.449 108.112 241.791 108.112C240.783 108.112 239.943 107.44 239.943 106.124V101.364H238.543V100.58H239.943V98.984L240.895 98.424V100.58H243.303V101.364H240.895V106.152ZM249.743 105.9L250.443 106.292C250.093 107.188 249.169 108.112 247.517 108.112C245.431 108.112 244.199 106.558 244.199 104.192C244.199 102.022 245.487 100.468 247.419 100.468C249.015 100.468 250.387 101.616 250.387 103.632L250.359 104.458H245.165C245.249 106.432 246.187 107.272 247.615 107.272C248.735 107.272 249.393 106.628 249.743 105.9ZM247.419 101.308C246.299 101.308 245.291 101.91 245.165 103.674H249.449C249.491 102.008 248.511 101.308 247.419 101.308ZM253.747 106.152C253.747 107.02 254.265 107.272 254.727 107.272C255.175 107.272 255.469 107.104 255.819 106.74L256.323 107.3C255.833 107.874 255.301 108.112 254.643 108.112C253.635 108.112 252.795 107.44 252.795 106.124V101.364H251.395V100.58H252.795V98.984L253.747 98.424V100.58H256.155V101.364H253.747V106.152ZM257.894 106.432H259.406V108H257.894V106.432Z" fill="#2A2859"/>
<rect x="65" y="123" width="398" height="146" fill="white"/>
<path d="M85.796 136.68C88.586 136.68 90.26 138.39 90.26 140.784C90.26 143.178 88.496 144.816 85.706 144.816H82.844V150H81.584V136.68H85.796ZM85.85 143.7C87.902 143.7 88.964 142.656 88.964 140.784C88.964 138.912 87.902 137.832 85.85 137.832H82.844V143.7H85.85ZM95.129 149.964C94.841 150.036 94.607 150.072 94.337 150.072C92.843 150.072 92.141 149.136 92.141 147.732V136.68H93.365V147.732C93.365 148.542 93.797 148.956 94.553 148.956C94.751 148.956 94.949 148.938 95.129 148.884V149.964ZM104.272 150H103.156C103.012 149.478 102.904 148.848 102.904 148.128C102.418 149.244 101.176 150.144 99.6277 150.144C97.9357 150.144 96.6577 149.046 96.6577 147.408C96.6577 145.446 98.4217 144.42 100.384 144.42C101.158 144.42 101.914 144.51 102.688 144.78V143.52C102.688 142.278 101.932 141.432 100.456 141.432C99.2677 141.432 98.2597 141.954 97.7557 143.412L96.6757 143.088C97.3957 141.072 98.8537 140.316 100.528 140.316C102.886 140.316 103.876 141.738 103.876 143.376V147.3C103.876 148.38 104.056 149.352 104.272 150ZM102.688 146.04V145.824C101.95 145.518 101.194 145.428 100.456 145.428C99.0157 145.428 97.8817 146.076 97.8817 147.336C97.8817 148.488 98.6917 149.1 99.8437 149.1C101.086 149.1 102.688 148.362 102.688 146.04ZM106.302 142.944C106.302 141.432 107.724 140.316 109.722 140.316C111.45 140.316 112.782 141.144 113.178 142.404L112.17 142.8C111.792 141.882 110.91 141.396 109.686 141.396C108.354 141.396 107.49 141.954 107.49 142.836C107.49 143.628 108.012 144.114 109.146 144.348L110.406 144.6C112.494 145.014 113.466 145.914 113.466 147.336C113.466 148.992 111.99 150.144 109.866 150.144C107.94 150.144 106.59 149.388 105.942 147.948L106.986 147.516C107.436 148.524 108.426 149.064 109.83 149.064C111.306 149.064 112.278 148.416 112.278 147.444C112.278 146.544 111.774 146.058 110.514 145.788L108.966 145.464C107.22 145.104 106.302 144.222 106.302 142.944ZM115.208 142.944C115.208 141.432 116.63 140.316 118.628 140.316C120.356 140.316 121.688 141.144 122.084 142.404L121.076 142.8C120.698 141.882 119.816 141.396 118.592 141.396C117.26 141.396 116.396 141.954 116.396 142.836C116.396 143.628 116.918 144.114 118.052 144.348L119.312 144.6C121.4 145.014 122.372 145.914 122.372 147.336C122.372 148.992 120.896 150.144 118.772 150.144C116.846 150.144 115.496 149.388 114.848 147.948L115.892 147.516C116.342 148.524 117.332 149.064 118.736 149.064C120.212 149.064 121.184 148.416 121.184 147.444C121.184 146.544 120.68 146.058 119.42 145.788L117.872 145.464C116.126 145.104 115.208 144.222 115.208 142.944ZM128.613 140.316C130.521 140.316 131.637 141.486 131.637 143.628V150H130.413V143.808C130.413 142.08 129.621 141.432 128.289 141.432C126.615 141.432 125.841 142.728 125.841 144.636V150H124.617V136.68H125.841V141.936C126.417 140.892 127.461 140.316 128.613 140.316ZM138.019 150.144C135.661 150.144 133.771 148.2 133.771 145.212C133.771 142.26 135.643 140.316 138.019 140.316C140.395 140.316 142.267 142.26 142.267 145.212C142.267 148.2 140.377 150.144 138.019 150.144ZM138.019 149.064C139.657 149.064 141.007 147.768 141.007 145.212C141.007 142.674 139.639 141.396 138.019 141.396C136.399 141.396 135.031 142.674 135.031 145.212C135.031 147.768 136.381 149.064 138.019 149.064ZM147.542 149.964C147.254 150.036 147.02 150.072 146.75 150.072C145.256 150.072 144.554 149.136 144.554 147.732V136.68H145.778V147.732C145.778 148.542 146.21 148.956 146.966 148.956C147.164 148.956 147.362 148.938 147.542 148.884V149.964ZM155.882 136.68H157.106V150H155.882V148.218C155.252 149.442 153.992 150.126 152.75 150.126C150.32 150.126 148.682 148.092 148.682 145.32C148.682 142.386 150.338 140.316 152.894 140.316C154.226 140.316 155.306 140.982 155.882 142.188V136.68ZM152.876 149.046C154.784 149.046 155.882 147.624 155.882 145.284C155.882 142.8 154.802 141.396 152.894 141.396C151.112 141.396 149.942 142.764 149.942 145.266C149.942 147.678 151.112 149.046 152.876 149.046ZM166.438 147.3L167.338 147.804C166.888 148.956 165.7 150.144 163.576 150.144C160.894 150.144 159.31 148.146 159.31 145.104C159.31 142.314 160.966 140.316 163.45 140.316C165.502 140.316 167.266 141.792 167.266 144.384L167.23 145.446H160.552C160.66 147.984 161.866 149.064 163.702 149.064C165.142 149.064 165.988 148.236 166.438 147.3ZM163.45 141.396C162.01 141.396 160.714 142.17 160.552 144.438H166.06C166.114 142.296 164.854 141.396 163.45 141.396ZM173.073 140.316C174.315 140.316 175.215 141.144 175.215 142.764V143.7L174.099 143.916V142.98C174.099 142.026 173.775 141.396 172.803 141.396C171.705 141.396 170.877 142.206 170.877 144.132V150H169.653V140.46H170.877V141.648C171.381 140.748 172.227 140.316 173.073 140.316Z" fill="#808080"/>
<rect x="65" y="123" width="398" height="146" stroke="#2A2859" stroke-width="2"/>
<path d="M426.699 294.112C424.655 294.112 422.919 292.18 422.919 288.82C422.919 285.46 424.641 283.528 426.699 283.528C428.757 283.528 430.479 285.46 430.479 288.82C430.479 292.18 428.743 294.112 426.699 294.112ZM426.699 293.188C428.239 293.188 429.499 291.914 429.499 288.82C429.499 285.796 428.253 284.452 426.699 284.452C425.145 284.452 423.899 285.796 423.899 288.82C423.899 291.914 425.159 293.188 426.699 293.188ZM435.094 282.94H436.018L433.218 296.1H432.294L435.094 282.94ZM442.245 293.188H444.541V294H438.885V293.188H441.293V284.732L439.025 286.3V285.264L441.349 283.64H442.245V293.188ZM450.57 294.112C448.526 294.112 446.79 292.18 446.79 288.82C446.79 285.46 448.512 283.528 450.57 283.528C452.628 283.528 454.35 285.46 454.35 288.82C454.35 292.18 452.614 294.112 450.57 294.112ZM450.57 293.188C452.11 293.188 453.37 291.914 453.37 288.82C453.37 285.796 452.124 284.452 450.57 284.452C449.016 284.452 447.77 285.796 447.77 288.82C447.77 291.914 449.03 293.188 450.57 293.188ZM459.525 294.112C457.481 294.112 455.745 292.18 455.745 288.82C455.745 285.46 457.467 283.528 459.525 283.528C461.583 283.528 463.305 285.46 463.305 288.82C463.305 292.18 461.569 294.112 459.525 294.112ZM459.525 293.188C461.065 293.188 462.325 291.914 462.325 288.82C462.325 285.796 461.079 284.452 459.525 284.452C457.971 284.452 456.725 285.796 456.725 288.82C456.725 291.914 457.985 293.188 459.525 293.188Z" fill="#2A2859"/>
<path d="M515.672 74.056H522.152V76H513.566V62.68H522.044V64.624H515.672V68.35H520.586V70.294H515.672V74.056ZM526.487 73.048C526.487 74.11 527.135 74.434 527.801 74.434C528.323 74.434 528.737 74.218 529.151 73.804L530.015 75.1C529.295 75.82 528.503 76.162 527.477 76.162C525.821 76.162 524.471 75.154 524.471 73.174V68.026H522.797V66.46H524.471V64.336L526.487 63.418V66.46H529.853V68.026H526.487V73.048ZM532.769 64.876C531.977 64.876 531.347 64.264 531.347 63.454C531.347 62.644 531.977 62.032 532.769 62.032C533.561 62.032 534.173 62.644 534.173 63.454C534.173 64.264 533.561 64.876 532.769 64.876ZM531.761 76V66.46H533.777V76H531.761ZM542.671 76L539.773 71.626L538.675 72.706V76H536.659V62.68H538.675V70.42L542.527 66.46H545.011L541.105 70.312L545.083 76H542.671ZM552.679 72.994L554.047 73.786C553.507 74.974 552.247 76.162 550.069 76.162C547.243 76.162 545.533 74.074 545.533 71.14C545.533 68.242 547.387 66.244 549.925 66.244C552.175 66.244 554.029 67.756 554.029 70.456L553.993 71.644H547.513C547.621 73.66 548.611 74.524 550.195 74.524C551.365 74.524 552.175 73.894 552.679 72.994ZM549.925 67.828C548.701 67.828 547.675 68.476 547.513 70.204H552.067C552.085 68.512 551.041 67.828 549.925 67.828ZM558.84 73.048C558.84 74.11 559.488 74.434 560.154 74.434C560.676 74.434 561.09 74.218 561.504 73.804L562.368 75.1C561.648 75.82 560.856 76.162 559.83 76.162C558.174 76.162 556.824 75.154 556.824 73.174V68.026H555.15V66.46H556.824V64.336L558.84 63.418V66.46H562.206V68.026H558.84V73.048ZM566.655 73.048C566.655 74.11 567.303 74.434 567.969 74.434C568.491 74.434 568.905 74.218 569.319 73.804L570.183 75.1C569.463 75.82 568.671 76.162 567.645 76.162C565.989 76.162 564.639 75.154 564.639 73.174V68.026H562.965V66.46H564.639V64.336L566.655 63.418V66.46H570.021V68.026H566.655V73.048Z" fill="#2A2859"/>
<rect width="62" height="22" transform="translate(579 59)" fill="#E5FCFF"/>
<path d="M590.924 64.64H591.96L588.166 75H587.186L583.42 64.64H584.484L587.69 73.866L590.924 64.64ZM597.992 75H597.124C597.012 74.594 596.928 74.104 596.928 73.544C596.55 74.412 595.584 75.112 594.38 75.112C593.064 75.112 592.07 74.258 592.07 72.984C592.07 71.458 593.442 70.66 594.968 70.66C595.57 70.66 596.158 70.73 596.76 70.94V69.96C596.76 68.994 596.172 68.336 595.024 68.336C594.1 68.336 593.316 68.742 592.924 69.876L592.084 69.624C592.644 68.056 593.778 67.468 595.08 67.468C596.914 67.468 597.684 68.574 597.684 69.848V72.9C597.684 73.74 597.824 74.496 597.992 75ZM596.76 71.92V71.752C596.186 71.514 595.598 71.444 595.024 71.444C593.904 71.444 593.022 71.948 593.022 72.928C593.022 73.824 593.652 74.3 594.548 74.3C595.514 74.3 596.76 73.726 596.76 71.92ZM602.415 74.972C602.191 75.028 602.009 75.056 601.799 75.056C600.637 75.056 600.091 74.328 600.091 73.236V64.64H601.043V73.236C601.043 73.866 601.379 74.188 601.967 74.188C602.121 74.188 602.275 74.174 602.415 74.132V74.972ZM610.542 68.364H608.946V68.63C609.31 69.078 609.506 69.638 609.506 70.184C609.506 71.542 608.526 72.928 606.44 72.928H606.118C605.278 72.928 604.676 73.25 604.676 73.74C604.676 74.118 604.97 74.384 605.586 74.384H608.596C609.8 74.384 610.416 74.972 610.416 75.896C610.416 77.366 608.722 78.136 606.636 78.136C604.76 78.136 603.458 77.534 603.01 76.232L603.78 75.882C604.298 77.1 605.39 77.338 606.636 77.338C608.176 77.338 609.464 76.876 609.464 75.98C609.464 75.56 609.24 75.252 608.568 75.252H605.376C604.34 75.252 603.724 74.762 603.724 73.992C603.724 73.334 604.27 72.76 605.18 72.522C604.2 72.13 603.654 71.094 603.654 70.184C603.654 68.854 604.648 67.468 606.608 67.468C607.378 67.468 607.966 67.72 608.414 68.098V67.58H610.542V68.364ZM606.594 72.144C607.91 72.144 608.568 71.234 608.568 70.184C608.568 69.148 607.91 68.28 606.594 68.28C605.264 68.28 604.592 69.162 604.592 70.184C604.592 71.22 605.264 72.144 606.594 72.144ZM613.237 66.544V67.58H615.309V68.364H613.237V75H612.285V68.364H610.885V67.58H612.285V66.544C612.285 65.256 613.125 64.528 614.273 64.528C614.805 64.528 615.421 64.738 615.771 65.298L615.197 65.872C614.973 65.536 614.637 65.34 614.245 65.34C613.755 65.34 613.237 65.634 613.237 66.544ZM619.417 67.468C620.383 67.468 621.083 68.112 621.083 69.372V70.1L620.215 70.268V69.54C620.215 68.798 619.963 68.308 619.207 68.308C618.353 68.308 617.709 68.938 617.709 70.436V75H616.757V67.58H617.709V68.504C618.101 67.804 618.759 67.468 619.417 67.468ZM623.44 66.236C622.978 66.236 622.6 65.872 622.6 65.396C622.6 64.92 622.978 64.556 623.44 64.556C623.902 64.556 624.28 64.92 624.28 65.396C624.28 65.872 623.902 66.236 623.44 66.236ZM622.964 75V67.58H623.916V75H622.964ZM627.811 73.152C627.811 74.02 628.329 74.272 628.791 74.272C629.239 74.272 629.533 74.104 629.883 73.74L630.387 74.3C629.897 74.874 629.365 75.112 628.707 75.112C627.699 75.112 626.859 74.44 626.859 73.124V68.364H625.459V67.58H626.859V65.984L627.811 65.424V67.58H630.219V68.364H627.811V73.152ZM633.225 73.152C633.225 74.02 633.743 74.272 634.205 74.272C634.653 74.272 634.947 74.104 635.297 73.74L635.801 74.3C635.311 74.874 634.779 75.112 634.121 75.112C633.113 75.112 632.273 74.44 632.273 73.124V68.364H630.873V67.58H632.273V65.984L633.225 65.424V67.58H635.633V68.364H633.225V73.152Z" fill="#2A2859"/>
<path d="M513.232 108V97.64H516.62C519.182 97.64 521.156 99.642 521.156 102.764C521.156 105.886 519.182 108 516.62 108H513.232ZM514.212 107.104H516.424C518.58 107.104 520.148 105.648 520.148 102.764C520.148 99.908 518.566 98.536 516.396 98.536H514.212V107.104ZM528.129 105.9L528.829 106.292C528.479 107.188 527.555 108.112 525.903 108.112C523.817 108.112 522.585 106.558 522.585 104.192C522.585 102.022 523.873 100.468 525.805 100.468C527.401 100.468 528.773 101.616 528.773 103.632L528.745 104.458H523.551C523.635 106.432 524.573 107.272 526.001 107.272C527.121 107.272 527.779 106.628 528.129 105.9ZM525.805 101.308C524.685 101.308 523.677 101.91 523.551 103.674H527.835C527.877 102.008 526.897 101.308 525.805 101.308ZM532.133 106.152C532.133 107.02 532.651 107.272 533.113 107.272C533.561 107.272 533.855 107.104 534.205 106.74L534.709 107.3C534.219 107.874 533.687 108.112 533.029 108.112C532.021 108.112 531.181 107.44 531.181 106.124V101.364H529.781V100.58H531.181V98.984L532.133 98.424V100.58H534.541V101.364H532.133V106.152ZM537.547 106.152C537.547 107.02 538.065 107.272 538.527 107.272C538.975 107.272 539.269 107.104 539.619 106.74L540.123 107.3C539.633 107.874 539.101 108.112 538.443 108.112C537.435 108.112 536.595 107.44 536.595 106.124V101.364H535.195V100.58H536.595V98.984L537.547 98.424V100.58H539.955V101.364H537.547V106.152ZM546.395 105.9L547.095 106.292C546.745 107.188 545.821 108.112 544.169 108.112C542.083 108.112 540.851 106.558 540.851 104.192C540.851 102.022 542.139 100.468 544.071 100.468C545.667 100.468 547.039 101.616 547.039 103.632L547.011 104.458H541.817C541.901 106.432 542.839 107.272 544.267 107.272C545.387 107.272 546.045 106.628 546.395 105.9ZM544.071 101.308C542.951 101.308 541.943 101.91 541.817 103.674H546.101C546.143 102.008 545.163 101.308 544.071 101.308ZM557.702 105.9L558.402 106.292C558.052 107.188 557.128 108.112 555.476 108.112C553.39 108.112 552.158 106.558 552.158 104.192C552.158 102.022 553.446 100.468 555.378 100.468C556.974 100.468 558.346 101.616 558.346 103.632L558.318 104.458H553.124C553.208 106.432 554.146 107.272 555.574 107.272C556.694 107.272 557.352 106.628 557.702 105.9ZM555.378 101.308C554.258 101.308 553.25 101.91 553.124 103.674H557.408C557.45 102.008 556.47 101.308 555.378 101.308ZM563.018 100.468C563.984 100.468 564.684 101.112 564.684 102.372V103.1L563.816 103.268V102.54C563.816 101.798 563.564 101.308 562.808 101.308C561.954 101.308 561.31 101.938 561.31 103.436V108H560.358V100.58H561.31V101.504C561.702 100.804 562.36 100.468 563.018 100.468ZM571.631 106.152C571.631 107.02 572.149 107.272 572.611 107.272C573.059 107.272 573.353 107.104 573.703 106.74L574.207 107.3C573.717 107.874 573.185 108.112 572.527 108.112C571.519 108.112 570.679 107.44 570.679 106.124V101.364H569.279V100.58H570.679V98.984L571.631 98.424V100.58H574.039V101.364H571.631V106.152ZM580.479 105.9L581.179 106.292C580.829 107.188 579.905 108.112 578.253 108.112C576.167 108.112 574.935 106.558 574.935 104.192C574.935 102.022 576.223 100.468 578.155 100.468C579.751 100.468 581.123 101.616 581.123 103.632L581.095 104.458H575.901C575.985 106.432 576.923 107.272 578.351 107.272C579.471 107.272 580.129 106.628 580.479 105.9ZM578.155 101.308C577.035 101.308 576.027 101.91 575.901 103.674H580.185C580.227 102.008 579.247 101.308 578.155 101.308ZM587.756 108L585.026 104.318L584.116 105.186V108H583.164V97.64H584.116V104.066L587.644 100.58H588.904L585.67 103.688L588.96 108H587.756ZM589.772 102.512C589.772 101.336 590.878 100.468 592.432 100.468C593.776 100.468 594.812 101.112 595.12 102.092L594.336 102.4C594.042 101.686 593.356 101.308 592.404 101.308C591.368 101.308 590.696 101.742 590.696 102.428C590.696 103.044 591.102 103.422 591.984 103.604L592.964 103.8C594.588 104.122 595.344 104.822 595.344 105.928C595.344 107.216 594.196 108.112 592.544 108.112C591.046 108.112 589.996 107.524 589.492 106.404L590.304 106.068C590.654 106.852 591.424 107.272 592.516 107.272C593.664 107.272 594.42 106.768 594.42 106.012C594.42 105.312 594.028 104.934 593.048 104.724L591.844 104.472C590.486 104.192 589.772 103.506 589.772 102.512ZM598.565 106.152C598.565 107.02 599.083 107.272 599.545 107.272C599.993 107.272 600.287 107.104 600.637 106.74L601.141 107.3C600.651 107.874 600.119 108.112 599.461 108.112C598.453 108.112 597.613 107.44 597.613 106.124V101.364H596.213V100.58H597.613V98.984L598.565 98.424V100.58H600.973V101.364H598.565V106.152ZM609.178 108.112C607.344 108.112 605.874 106.6 605.874 104.276C605.874 101.98 607.33 100.468 609.178 100.468C611.026 100.468 612.482 101.98 612.482 104.276C612.482 106.6 611.012 108.112 609.178 108.112ZM609.178 107.272C610.452 107.272 611.502 106.264 611.502 104.276C611.502 102.302 610.438 101.308 609.178 101.308C607.918 101.308 606.854 102.302 606.854 104.276C606.854 106.264 607.904 107.272 609.178 107.272ZM618.875 100.58H619.855L616.943 108H616.103L613.191 100.58H614.227L616.551 106.95L618.875 100.58ZM626.102 105.9L626.802 106.292C626.452 107.188 625.528 108.112 623.876 108.112C621.79 108.112 620.558 106.558 620.558 104.192C620.558 102.022 621.846 100.468 623.778 100.468C625.374 100.468 626.746 101.616 626.746 103.632L626.718 104.458H621.524C621.608 106.432 622.546 107.272 623.974 107.272C625.094 107.272 625.752 106.628 626.102 105.9ZM623.778 101.308C622.658 101.308 621.65 101.91 621.524 103.674H625.808C625.85 102.008 624.87 101.308 623.778 101.308ZM631.419 100.468C632.385 100.468 633.085 101.112 633.085 102.372V103.1L632.217 103.268V102.54C632.217 101.798 631.965 101.308 631.209 101.308C630.355 101.308 629.711 101.938 629.711 103.436V108H628.759V100.58H629.711V101.504C630.103 100.804 630.761 100.468 631.419 100.468ZM639.024 99.236C638.562 99.236 638.184 98.872 638.184 98.396C638.184 97.92 638.562 97.556 639.024 97.556C639.486 97.556 639.864 97.92 639.864 98.396C639.864 98.872 639.486 99.236 639.024 99.236ZM638.548 108V100.58H639.5V108H638.548ZM645.019 100.468C646.503 100.468 647.371 101.378 647.371 103.044V108H646.419V103.184C646.419 101.84 645.803 101.336 644.767 101.336C643.465 101.336 642.863 102.344 642.863 103.828V108H641.911V100.58H642.863V101.728C643.311 100.916 644.123 100.468 645.019 100.468ZM653.051 100.482C654.941 100.482 656.215 102.064 656.215 104.22C656.215 106.502 654.927 108.112 652.939 108.112C651.903 108.112 651.063 107.594 650.615 106.656V110.94H649.663V100.58H650.615V101.966C651.105 101.014 652.085 100.482 653.051 100.482ZM652.939 107.272C654.325 107.272 655.235 106.208 655.235 104.262C655.235 102.386 654.325 101.322 652.953 101.322C651.469 101.322 650.615 102.428 650.615 104.248C650.615 106.18 651.455 107.272 652.939 107.272ZM662.465 100.58H663.417V108H662.465V106.866C662.017 107.664 661.233 108.112 660.323 108.112C658.867 108.112 657.985 107.174 657.985 105.564V100.58H658.937V105.48C658.937 106.698 659.553 107.258 660.589 107.258C661.905 107.258 662.465 106.208 662.465 104.752V100.58ZM667.252 106.152C667.252 107.02 667.77 107.272 668.232 107.272C668.68 107.272 668.974 107.104 669.324 106.74L669.828 107.3C669.338 107.874 668.806 108.112 668.148 108.112C667.14 108.112 666.3 107.44 666.3 106.124V101.364H664.9V100.58H666.3V98.984L667.252 98.424V100.58H669.66V101.364H667.252V106.152ZM672.667 99.544V100.58H674.739V101.364H672.667V108H671.715V101.364H670.315V100.58H671.715V99.544C671.715 98.256 672.555 97.528 673.703 97.528C674.235 97.528 674.851 97.738 675.201 98.298L674.627 98.872C674.403 98.536 674.067 98.34 673.675 98.34C673.185 98.34 672.667 98.634 672.667 99.544ZM680.831 105.9L681.531 106.292C681.181 107.188 680.257 108.112 678.605 108.112C676.519 108.112 675.287 106.558 675.287 104.192C675.287 102.022 676.575 100.468 678.507 100.468C680.103 100.468 681.475 101.616 681.475 103.632L681.447 104.458H676.253C676.337 106.432 677.275 107.272 678.703 107.272C679.823 107.272 680.481 106.628 680.831 105.9ZM678.507 101.308C677.387 101.308 676.379 101.91 676.253 103.674H680.537C680.579 102.008 679.599 101.308 678.507 101.308ZM685.811 107.972C685.587 108.028 685.405 108.056 685.195 108.056C684.033 108.056 683.487 107.328 683.487 106.236V97.64H684.439V106.236C684.439 106.866 684.775 107.188 685.363 107.188C685.517 107.188 685.671 107.174 685.811 107.132V107.972ZM688.895 106.152C688.895 107.02 689.413 107.272 689.875 107.272C690.323 107.272 690.617 107.104 690.967 106.74L691.471 107.3C690.981 107.874 690.449 108.112 689.791 108.112C688.783 108.112 687.943 107.44 687.943 106.124V101.364H686.543V100.58H687.943V98.984L688.895 98.424V100.58H691.303V101.364H688.895V106.152ZM697.743 105.9L698.443 106.292C698.093 107.188 697.169 108.112 695.517 108.112C693.431 108.112 692.199 106.558 692.199 104.192C692.199 102.022 693.487 100.468 695.419 100.468C697.015 100.468 698.387 101.616 698.387 103.632L698.359 104.458H693.165C693.249 106.432 694.187 107.272 695.615 107.272C696.735 107.272 697.393 106.628 697.743 105.9ZM695.419 101.308C694.299 101.308 693.291 101.91 693.165 103.674H697.449C697.491 102.008 696.511 101.308 695.419 101.308ZM701.747 106.152C701.747 107.02 702.265 107.272 702.727 107.272C703.175 107.272 703.469 107.104 703.819 106.74L704.323 107.3C703.833 107.874 703.301 108.112 702.643 108.112C701.635 108.112 700.795 107.44 700.795 106.124V101.364H699.395V100.58H700.795V98.984L701.747 98.424V100.58H704.155V101.364H701.747V106.152ZM705.894 106.432H707.406V108H705.894V106.432Z" fill="#2A2859"/>
<rect x="513" y="123" width="398" height="146" fill="white"/>
<path d="M533.796 136.68C536.586 136.68 538.26 138.39 538.26 140.784C538.26 143.178 536.496 144.816 533.706 144.816H530.844V150H529.584V136.68H533.796ZM533.85 143.7C535.902 143.7 536.964 142.656 536.964 140.784C536.964 138.912 535.902 137.832 533.85 137.832H530.844V143.7H533.85ZM543.129 149.964C542.841 150.036 542.607 150.072 542.337 150.072C540.843 150.072 540.141 149.136 540.141 147.732V136.68H541.365V147.732C541.365 148.542 541.797 148.956 542.553 148.956C542.751 148.956 542.949 148.938 543.129 148.884V149.964ZM552.272 150H551.156C551.012 149.478 550.904 148.848 550.904 148.128C550.418 149.244 549.176 150.144 547.628 150.144C545.936 150.144 544.658 149.046 544.658 147.408C544.658 145.446 546.422 144.42 548.384 144.42C549.158 144.42 549.914 144.51 550.688 144.78V143.52C550.688 142.278 549.932 141.432 548.456 141.432C547.268 141.432 546.26 141.954 545.756 143.412L544.676 143.088C545.396 141.072 546.854 140.316 548.528 140.316C550.886 140.316 551.876 141.738 551.876 143.376V147.3C551.876 148.38 552.056 149.352 552.272 150ZM550.688 146.04V145.824C549.95 145.518 549.194 145.428 548.456 145.428C547.016 145.428 545.882 146.076 545.882 147.336C545.882 148.488 546.692 149.1 547.844 149.1C549.086 149.1 550.688 148.362 550.688 146.04ZM554.302 142.944C554.302 141.432 555.724 140.316 557.722 140.316C559.45 140.316 560.782 141.144 561.178 142.404L560.17 142.8C559.792 141.882 558.91 141.396 557.686 141.396C556.354 141.396 555.49 141.954 555.49 142.836C555.49 143.628 556.012 144.114 557.146 144.348L558.406 144.6C560.494 145.014 561.466 145.914 561.466 147.336C561.466 148.992 559.99 150.144 557.866 150.144C555.94 150.144 554.59 149.388 553.942 147.948L554.986 147.516C555.436 148.524 556.426 149.064 557.83 149.064C559.306 149.064 560.278 148.416 560.278 147.444C560.278 146.544 559.774 146.058 558.514 145.788L556.966 145.464C555.22 145.104 554.302 144.222 554.302 142.944ZM563.208 142.944C563.208 141.432 564.63 140.316 566.628 140.316C568.356 140.316 569.688 141.144 570.084 142.404L569.076 142.8C568.698 141.882 567.816 141.396 566.592 141.396C565.26 141.396 564.396 141.954 564.396 142.836C564.396 143.628 564.918 144.114 566.052 144.348L567.312 144.6C569.4 145.014 570.372 145.914 570.372 147.336C570.372 148.992 568.896 150.144 566.772 150.144C564.846 150.144 563.496 149.388 562.848 147.948L563.892 147.516C564.342 148.524 565.332 149.064 566.736 149.064C568.212 149.064 569.184 148.416 569.184 147.444C569.184 146.544 568.68 146.058 567.42 145.788L565.872 145.464C564.126 145.104 563.208 144.222 563.208 142.944ZM576.613 140.316C578.521 140.316 579.637 141.486 579.637 143.628V150H578.413V143.808C578.413 142.08 577.621 141.432 576.289 141.432C574.615 141.432 573.841 142.728 573.841 144.636V150H572.617V136.68H573.841V141.936C574.417 140.892 575.461 140.316 576.613 140.316ZM586.019 150.144C583.661 150.144 581.771 148.2 581.771 145.212C581.771 142.26 583.643 140.316 586.019 140.316C588.395 140.316 590.267 142.26 590.267 145.212C590.267 148.2 588.377 150.144 586.019 150.144ZM586.019 149.064C587.657 149.064 589.007 147.768 589.007 145.212C589.007 142.674 587.639 141.396 586.019 141.396C584.399 141.396 583.031 142.674 583.031 145.212C583.031 147.768 584.381 149.064 586.019 149.064ZM595.542 149.964C595.254 150.036 595.02 150.072 594.75 150.072C593.256 150.072 592.554 149.136 592.554 147.732V136.68H593.778V147.732C593.778 148.542 594.21 148.956 594.966 148.956C595.164 148.956 595.362 148.938 595.542 148.884V149.964ZM603.882 136.68H605.106V150H603.882V148.218C603.252 149.442 601.992 150.126 600.75 150.126C598.32 150.126 596.682 148.092 596.682 145.32C596.682 142.386 598.338 140.316 600.894 140.316C602.226 140.316 603.306 140.982 603.882 142.188V136.68ZM600.876 149.046C602.784 149.046 603.882 147.624 603.882 145.284C603.882 142.8 602.802 141.396 600.894 141.396C599.112 141.396 597.942 142.764 597.942 145.266C597.942 147.678 599.112 149.046 600.876 149.046ZM614.438 147.3L615.338 147.804C614.888 148.956 613.7 150.144 611.576 150.144C608.894 150.144 607.31 148.146 607.31 145.104C607.31 142.314 608.966 140.316 611.45 140.316C613.502 140.316 615.266 141.792 615.266 144.384L615.23 145.446H608.552C608.66 147.984 609.866 149.064 611.702 149.064C613.142 149.064 613.988 148.236 614.438 147.3ZM611.45 141.396C610.01 141.396 608.714 142.17 608.552 144.438H614.06C614.114 142.296 612.854 141.396 611.45 141.396ZM621.073 140.316C622.315 140.316 623.215 141.144 623.215 142.764V143.7L622.099 143.916V142.98C622.099 142.026 621.775 141.396 620.803 141.396C619.705 141.396 618.877 142.206 618.877 144.132V150H617.653V140.46H618.877V141.648C619.381 140.748 620.227 140.316 621.073 140.316Z" fill="#808080"/>
<rect x="513" y="123" width="398" height="146" stroke="#2A2859" stroke-width="2"/>
<path d="M963.672 74.056H970.152V76H961.566V62.68H970.044V64.624H963.672V68.35H968.586V70.294H963.672V74.056ZM974.487 73.048C974.487 74.11 975.135 74.434 975.801 74.434C976.323 74.434 976.737 74.218 977.151 73.804L978.015 75.1C977.295 75.82 976.503 76.162 975.477 76.162C973.821 76.162 972.471 75.154 972.471 73.174V68.026H970.797V66.46H972.471V64.336L974.487 63.418V66.46H977.853V68.026H974.487V73.048ZM980.769 64.876C979.977 64.876 979.347 64.264 979.347 63.454C979.347 62.644 979.977 62.032 980.769 62.032C981.561 62.032 982.173 62.644 982.173 63.454C982.173 64.264 981.561 64.876 980.769 64.876ZM979.761 76V66.46H981.777V76H979.761ZM990.671 76L987.773 71.626L986.675 72.706V76H984.659V62.68H986.675V70.42L990.527 66.46H993.011L989.105 70.312L993.083 76H990.671ZM1000.68 72.994L1002.05 73.786C1001.51 74.974 1000.25 76.162 998.069 76.162C995.243 76.162 993.533 74.074 993.533 71.14C993.533 68.242 995.387 66.244 997.925 66.244C1000.17 66.244 1002.03 67.756 1002.03 70.456L1001.99 71.644H995.513C995.621 73.66 996.611 74.524 998.195 74.524C999.365 74.524 1000.17 73.894 1000.68 72.994ZM997.925 67.828C996.701 67.828 995.675 68.476 995.513 70.204H1000.07C1000.08 68.512 999.041 67.828 997.925 67.828ZM1006.84 73.048C1006.84 74.11 1007.49 74.434 1008.15 74.434C1008.68 74.434 1009.09 74.218 1009.5 73.804L1010.37 75.1C1009.65 75.82 1008.86 76.162 1007.83 76.162C1006.17 76.162 1004.82 75.154 1004.82 73.174V68.026H1003.15V66.46H1004.82V64.336L1006.84 63.418V66.46H1010.21V68.026H1006.84V73.048ZM1014.66 73.048C1014.66 74.11 1015.3 74.434 1015.97 74.434C1016.49 74.434 1016.91 74.218 1017.32 73.804L1018.18 75.1C1017.46 75.82 1016.67 76.162 1015.65 76.162C1013.99 76.162 1012.64 75.154 1012.64 73.174V68.026H1010.97V66.46H1012.64V64.336L1014.66 63.418V66.46H1018.02V68.026H1014.66V73.048Z" fill="#2A2859"/>
<rect width="62" height="22" transform="translate(1027 59)" fill="#E5FCFF"/>
<path d="M1038.92 64.64H1039.96L1036.17 75H1035.19L1031.42 64.64H1032.48L1035.69 73.866L1038.92 64.64ZM1045.99 75H1045.12C1045.01 74.594 1044.93 74.104 1044.93 73.544C1044.55 74.412 1043.58 75.112 1042.38 75.112C1041.06 75.112 1040.07 74.258 1040.07 72.984C1040.07 71.458 1041.44 70.66 1042.97 70.66C1043.57 70.66 1044.16 70.73 1044.76 70.94V69.96C1044.76 68.994 1044.17 68.336 1043.02 68.336C1042.1 68.336 1041.32 68.742 1040.92 69.876L1040.08 69.624C1040.64 68.056 1041.78 67.468 1043.08 67.468C1044.91 67.468 1045.68 68.574 1045.68 69.848V72.9C1045.68 73.74 1045.82 74.496 1045.99 75ZM1044.76 71.92V71.752C1044.19 71.514 1043.6 71.444 1043.02 71.444C1041.9 71.444 1041.02 71.948 1041.02 72.928C1041.02 73.824 1041.65 74.3 1042.55 74.3C1043.51 74.3 1044.76 73.726 1044.76 71.92ZM1050.41 74.972C1050.19 75.028 1050.01 75.056 1049.8 75.056C1048.64 75.056 1048.09 74.328 1048.09 73.236V64.64H1049.04V73.236C1049.04 73.866 1049.38 74.188 1049.97 74.188C1050.12 74.188 1050.27 74.174 1050.41 74.132V74.972ZM1058.54 68.364H1056.95V68.63C1057.31 69.078 1057.51 69.638 1057.51 70.184C1057.51 71.542 1056.53 72.928 1054.44 72.928H1054.12C1053.28 72.928 1052.68 73.25 1052.68 73.74C1052.68 74.118 1052.97 74.384 1053.59 74.384H1056.6C1057.8 74.384 1058.42 74.972 1058.42 75.896C1058.42 77.366 1056.72 78.136 1054.64 78.136C1052.76 78.136 1051.46 77.534 1051.01 76.232L1051.78 75.882C1052.3 77.1 1053.39 77.338 1054.64 77.338C1056.18 77.338 1057.46 76.876 1057.46 75.98C1057.46 75.56 1057.24 75.252 1056.57 75.252H1053.38C1052.34 75.252 1051.72 74.762 1051.72 73.992C1051.72 73.334 1052.27 72.76 1053.18 72.522C1052.2 72.13 1051.65 71.094 1051.65 70.184C1051.65 68.854 1052.65 67.468 1054.61 67.468C1055.38 67.468 1055.97 67.72 1056.41 68.098V67.58H1058.54V68.364ZM1054.59 72.144C1055.91 72.144 1056.57 71.234 1056.57 70.184C1056.57 69.148 1055.91 68.28 1054.59 68.28C1053.26 68.28 1052.59 69.162 1052.59 70.184C1052.59 71.22 1053.26 72.144 1054.59 72.144ZM1061.24 66.544V67.58H1063.31V68.364H1061.24V75H1060.28V68.364H1058.88V67.58H1060.28V66.544C1060.28 65.256 1061.12 64.528 1062.27 64.528C1062.8 64.528 1063.42 64.738 1063.77 65.298L1063.2 65.872C1062.97 65.536 1062.64 65.34 1062.24 65.34C1061.75 65.34 1061.24 65.634 1061.24 66.544ZM1067.42 67.468C1068.38 67.468 1069.08 68.112 1069.08 69.372V70.1L1068.21 70.268V69.54C1068.21 68.798 1067.96 68.308 1067.21 68.308C1066.35 68.308 1065.71 68.938 1065.71 70.436V75H1064.76V67.58H1065.71V68.504C1066.1 67.804 1066.76 67.468 1067.42 67.468ZM1071.44 66.236C1070.98 66.236 1070.6 65.872 1070.6 65.396C1070.6 64.92 1070.98 64.556 1071.44 64.556C1071.9 64.556 1072.28 64.92 1072.28 65.396C1072.28 65.872 1071.9 66.236 1071.44 66.236ZM1070.96 75V67.58H1071.92V75H1070.96ZM1075.81 73.152C1075.81 74.02 1076.33 74.272 1076.79 74.272C1077.24 74.272 1077.53 74.104 1077.88 73.74L1078.39 74.3C1077.9 74.874 1077.37 75.112 1076.71 75.112C1075.7 75.112 1074.86 74.44 1074.86 73.124V68.364H1073.46V67.58H1074.86V65.984L1075.81 65.424V67.58H1078.22V68.364H1075.81V73.152ZM1081.23 73.152C1081.23 74.02 1081.74 74.272 1082.21 74.272C1082.65 74.272 1082.95 74.104 1083.3 73.74L1083.8 74.3C1083.31 74.874 1082.78 75.112 1082.12 75.112C1081.11 75.112 1080.27 74.44 1080.27 73.124V68.364H1078.87V67.58H1080.27V65.984L1081.23 65.424V67.58H1083.63V68.364H1081.23V73.152Z" fill="#2A2859"/>
<path d="M962.212 107.076H967.028V108H961.232V97.64H962.212V107.076ZM973.463 105.9L974.163 106.292C973.813 107.188 972.889 108.112 971.237 108.112C969.151 108.112 967.919 106.558 967.919 104.192C967.919 102.022 969.207 100.468 971.139 100.468C972.735 100.468 974.107 101.616 974.107 103.632L974.079 104.458H968.885C968.969 106.432 969.907 107.272 971.335 107.272C972.455 107.272 973.113 106.628 973.463 105.9ZM971.139 101.308C970.019 101.308 969.011 101.91 968.885 103.674H973.169C973.211 102.008 972.231 101.308 971.139 101.308ZM975.756 102.512C975.756 101.336 976.862 100.468 978.416 100.468C979.76 100.468 980.796 101.112 981.104 102.092L980.32 102.4C980.026 101.686 979.34 101.308 978.388 101.308C977.352 101.308 976.68 101.742 976.68 102.428C976.68 103.044 977.086 103.422 977.968 103.604L978.948 103.8C980.572 104.122 981.328 104.822 981.328 105.928C981.328 107.216 980.18 108.112 978.528 108.112C977.03 108.112 975.98 107.524 975.476 106.404L976.288 106.068C976.638 106.852 977.408 107.272 978.5 107.272C979.648 107.272 980.404 106.768 980.404 106.012C980.404 105.312 980.012 104.934 979.032 104.724L977.828 104.472C976.47 104.192 975.756 103.506 975.756 102.512ZM994.176 100.468C995.59 100.468 996.416 101.364 996.416 102.904V108H995.464V103.044C995.464 101.84 994.89 101.336 993.924 101.336C992.622 101.336 992.076 102.344 992.076 103.828V108H991.124V103.044C991.124 101.84 990.55 101.336 989.584 101.336C988.282 101.336 987.736 102.344 987.736 103.828V108H986.784V100.58H987.736V101.742C988.184 100.916 988.968 100.468 989.836 100.468C990.942 100.468 991.684 101.014 991.95 101.98C992.37 101 993.224 100.468 994.176 100.468ZM1003.77 105.9L1004.47 106.292C1004.12 107.188 1003.2 108.112 1001.55 108.112C999.462 108.112 998.23 106.558 998.23 104.192C998.23 102.022 999.518 100.468 1001.45 100.468C1003.05 100.468 1004.42 101.616 1004.42 103.632L1004.39 104.458H999.196C999.28 106.432 1000.22 107.272 1001.65 107.272C1002.77 107.272 1003.42 106.628 1003.77 105.9ZM1001.45 101.308C1000.33 101.308 999.322 101.91 999.196 103.674H1003.48C1003.52 102.008 1002.54 101.308 1001.45 101.308ZM1009.09 100.468C1010.06 100.468 1010.76 101.112 1010.76 102.372V103.1L1009.89 103.268V102.54C1009.89 101.798 1009.64 101.308 1008.88 101.308C1008.03 101.308 1007.38 101.938 1007.38 103.436V108H1006.43V100.58H1007.38V101.504C1007.77 100.804 1008.43 100.468 1009.09 100.468Z" fill="#2A2859"/>
<path fill-rule="evenodd" clip-rule="evenodd" d="M1029 105.92L1023.56 100.625L1022.81 101.353L1029 107.375L1035.19 101.353L1034.44 100.625L1029 105.92Z" fill="#2A2859"/>
<rect x="961" y="123" width="398" height="146" fill="white"/>
<path d="M981.796 136.68C984.586 136.68 986.26 138.39 986.26 140.784C986.26 143.178 984.496 144.816 981.706 144.816H978.844V150H977.584V136.68H981.796ZM981.85 143.7C983.902 143.7 984.964 142.656 984.964 140.784C984.964 138.912 983.902 137.832 981.85 137.832H978.844V143.7H981.85ZM991.129 149.964C990.841 150.036 990.607 150.072 990.337 150.072C988.843 150.072 988.141 149.136 988.141 147.732V136.68H989.365V147.732C989.365 148.542 989.797 148.956 990.553 148.956C990.751 148.956 990.949 148.938 991.129 148.884V149.964ZM1000.27 150H999.156C999.012 149.478 998.904 148.848 998.904 148.128C998.418 149.244 997.176 150.144 995.628 150.144C993.936 150.144 992.658 149.046 992.658 147.408C992.658 145.446 994.422 144.42 996.384 144.42C997.158 144.42 997.914 144.51 998.688 144.78V143.52C998.688 142.278 997.932 141.432 996.456 141.432C995.268 141.432 994.26 141.954 993.756 143.412L992.676 143.088C993.396 141.072 994.854 140.316 996.528 140.316C998.886 140.316 999.876 141.738 999.876 143.376V147.3C999.876 148.38 1000.06 149.352 1000.27 150ZM998.688 146.04V145.824C997.95 145.518 997.194 145.428 996.456 145.428C995.016 145.428 993.882 146.076 993.882 147.336C993.882 148.488 994.692 149.1 995.844 149.1C997.086 149.1 998.688 148.362 998.688 146.04ZM1002.3 142.944C1002.3 141.432 1003.72 140.316 1005.72 140.316C1007.45 140.316 1008.78 141.144 1009.18 142.404L1008.17 142.8C1007.79 141.882 1006.91 141.396 1005.69 141.396C1004.35 141.396 1003.49 141.954 1003.49 142.836C1003.49 143.628 1004.01 144.114 1005.15 144.348L1006.41 144.6C1008.49 145.014 1009.47 145.914 1009.47 147.336C1009.47 148.992 1007.99 150.144 1005.87 150.144C1003.94 150.144 1002.59 149.388 1001.94 147.948L1002.99 147.516C1003.44 148.524 1004.43 149.064 1005.83 149.064C1007.31 149.064 1008.28 148.416 1008.28 147.444C1008.28 146.544 1007.77 146.058 1006.51 145.788L1004.97 145.464C1003.22 145.104 1002.3 144.222 1002.3 142.944ZM1011.21 142.944C1011.21 141.432 1012.63 140.316 1014.63 140.316C1016.36 140.316 1017.69 141.144 1018.08 142.404L1017.08 142.8C1016.7 141.882 1015.82 141.396 1014.59 141.396C1013.26 141.396 1012.4 141.954 1012.4 142.836C1012.4 143.628 1012.92 144.114 1014.05 144.348L1015.31 144.6C1017.4 145.014 1018.37 145.914 1018.37 147.336C1018.37 148.992 1016.9 150.144 1014.77 150.144C1012.85 150.144 1011.5 149.388 1010.85 147.948L1011.89 147.516C1012.34 148.524 1013.33 149.064 1014.74 149.064C1016.21 149.064 1017.18 148.416 1017.18 147.444C1017.18 146.544 1016.68 146.058 1015.42 145.788L1013.87 145.464C1012.13 145.104 1011.21 144.222 1011.21 142.944ZM1024.61 140.316C1026.52 140.316 1027.64 141.486 1027.64 143.628V150H1026.41V143.808C1026.41 142.08 1025.62 141.432 1024.29 141.432C1022.62 141.432 1021.84 142.728 1021.84 144.636V150H1020.62V136.68H1021.84V141.936C1022.42 140.892 1023.46 140.316 1024.61 140.316ZM1034.02 150.144C1031.66 150.144 1029.77 148.2 1029.77 145.212C1029.77 142.26 1031.64 140.316 1034.02 140.316C1036.4 140.316 1038.27 142.26 1038.27 145.212C1038.27 148.2 1036.38 150.144 1034.02 150.144ZM1034.02 149.064C1035.66 149.064 1037.01 147.768 1037.01 145.212C1037.01 142.674 1035.64 141.396 1034.02 141.396C1032.4 141.396 1031.03 142.674 1031.03 145.212C1031.03 147.768 1032.38 149.064 1034.02 149.064ZM1043.54 149.964C1043.25 150.036 1043.02 150.072 1042.75 150.072C1041.26 150.072 1040.55 149.136 1040.55 147.732V136.68H1041.78V147.732C1041.78 148.542 1042.21 148.956 1042.97 148.956C1043.16 148.956 1043.36 148.938 1043.54 148.884V149.964ZM1051.88 136.68H1053.11V150H1051.88V148.218C1051.25 149.442 1049.99 150.126 1048.75 150.126C1046.32 150.126 1044.68 148.092 1044.68 145.32C1044.68 142.386 1046.34 140.316 1048.89 140.316C1050.23 140.316 1051.31 140.982 1051.88 142.188V136.68ZM1048.88 149.046C1050.78 149.046 1051.88 147.624 1051.88 145.284C1051.88 142.8 1050.8 141.396 1048.89 141.396C1047.11 141.396 1045.94 142.764 1045.94 145.266C1045.94 147.678 1047.11 149.046 1048.88 149.046ZM1062.44 147.3L1063.34 147.804C1062.89 148.956 1061.7 150.144 1059.58 150.144C1056.89 150.144 1055.31 148.146 1055.31 145.104C1055.31 142.314 1056.97 140.316 1059.45 140.316C1061.5 140.316 1063.27 141.792 1063.27 144.384L1063.23 145.446H1056.55C1056.66 147.984 1057.87 149.064 1059.7 149.064C1061.14 149.064 1061.99 148.236 1062.44 147.3ZM1059.45 141.396C1058.01 141.396 1056.71 142.17 1056.55 144.438H1062.06C1062.11 142.296 1060.85 141.396 1059.45 141.396ZM1069.07 140.316C1070.32 140.316 1071.22 141.144 1071.22 142.764V143.7L1070.1 143.916V142.98C1070.1 142.026 1069.78 141.396 1068.8 141.396C1067.71 141.396 1066.88 142.206 1066.88 144.132V150H1065.65V140.46H1066.88V141.648C1067.38 140.748 1068.23 140.316 1069.07 140.316Z" fill="#808080"/>
<rect x="961" y="123" width="398" height="146" stroke="#2A2859" stroke-width="2"/>
<path d="M1411.67 74.056H1418.15V76H1409.57V62.68H1418.04V64.624H1411.67V68.35H1416.59V70.294H1411.67V74.056ZM1422.49 73.048C1422.49 74.11 1423.14 74.434 1423.8 74.434C1424.32 74.434 1424.74 74.218 1425.15 73.804L1426.02 75.1C1425.3 75.82 1424.5 76.162 1423.48 76.162C1421.82 76.162 1420.47 75.154 1420.47 73.174V68.026H1418.8V66.46H1420.47V64.336L1422.49 63.418V66.46H1425.85V68.026H1422.49V73.048ZM1428.77 64.876C1427.98 64.876 1427.35 64.264 1427.35 63.454C1427.35 62.644 1427.98 62.032 1428.77 62.032C1429.56 62.032 1430.17 62.644 1430.17 63.454C1430.17 64.264 1429.56 64.876 1428.77 64.876ZM1427.76 76V66.46H1429.78V76H1427.76ZM1438.67 76L1435.77 71.626L1434.67 72.706V76H1432.66V62.68H1434.67V70.42L1438.53 66.46H1441.01L1437.1 70.312L1441.08 76H1438.67ZM1448.68 72.994L1450.05 73.786C1449.51 74.974 1448.25 76.162 1446.07 76.162C1443.24 76.162 1441.53 74.074 1441.53 71.14C1441.53 68.242 1443.39 66.244 1445.92 66.244C1448.17 66.244 1450.03 67.756 1450.03 70.456L1449.99 71.644H1443.51C1443.62 73.66 1444.61 74.524 1446.19 74.524C1447.36 74.524 1448.17 73.894 1448.68 72.994ZM1445.92 67.828C1444.7 67.828 1443.67 68.476 1443.51 70.204H1448.07C1448.08 68.512 1447.04 67.828 1445.92 67.828ZM1454.84 73.048C1454.84 74.11 1455.49 74.434 1456.15 74.434C1456.68 74.434 1457.09 74.218 1457.5 73.804L1458.37 75.1C1457.65 75.82 1456.86 76.162 1455.83 76.162C1454.17 76.162 1452.82 75.154 1452.82 73.174V68.026H1451.15V66.46H1452.82V64.336L1454.84 63.418V66.46H1458.21V68.026H1454.84V73.048ZM1462.66 73.048C1462.66 74.11 1463.3 74.434 1463.97 74.434C1464.49 74.434 1464.91 74.218 1465.32 73.804L1466.18 75.1C1465.46 75.82 1464.67 76.162 1463.65 76.162C1461.99 76.162 1460.64 75.154 1460.64 73.174V68.026H1458.97V66.46H1460.64V64.336L1462.66 63.418V66.46H1466.02V68.026H1462.66V73.048Z" fill="#2A2859"/>
<rect width="83" height="22" transform="translate(1477 59)" fill="#F8F0DD"/>
<path d="M1490.32 64.64H1491.28V75H1490.3V66.362L1486.96 71.542H1486.54L1483.21 66.362V75H1482.23V64.64H1483.18L1486.75 70.184L1490.32 64.64ZM1496.36 66.796C1495.45 66.796 1494.71 66.124 1494.71 65.2C1494.71 64.276 1495.45 63.604 1496.36 63.604C1497.27 63.604 1498.01 64.276 1498.01 65.2C1498.01 66.124 1497.27 66.796 1496.36 66.796ZM1496.36 64.248C1495.83 64.248 1495.41 64.584 1495.41 65.2C1495.41 65.83 1495.83 66.152 1496.36 66.152C1496.89 66.152 1497.31 65.83 1497.31 65.2C1497.31 64.584 1496.89 64.248 1496.36 64.248ZM1499.25 75H1498.38C1498.27 74.594 1498.18 74.104 1498.18 73.544C1497.8 74.412 1496.84 75.112 1495.63 75.112C1494.32 75.112 1493.32 74.258 1493.32 72.984C1493.32 71.458 1494.7 70.66 1496.22 70.66C1496.82 70.66 1497.41 70.73 1498.01 70.94V69.96C1498.01 68.994 1497.43 68.336 1496.28 68.336C1495.35 68.336 1494.57 68.742 1494.18 69.876L1493.34 69.624C1493.9 68.056 1495.03 67.468 1496.33 67.468C1498.17 67.468 1498.94 68.574 1498.94 69.848V72.9C1498.94 73.74 1499.08 74.496 1499.25 75ZM1498.01 71.92V71.752C1497.44 71.514 1496.85 71.444 1496.28 71.444C1495.16 71.444 1494.28 71.948 1494.28 72.928C1494.28 73.824 1494.91 74.3 1495.8 74.3C1496.77 74.3 1498.01 73.726 1498.01 71.92ZM1506.41 66.544V67.58H1508.48V68.364H1506.41V75H1505.46V68.364H1504.06V67.58H1505.46V66.544C1505.46 65.256 1506.3 64.528 1507.45 64.528C1507.98 64.528 1508.59 64.738 1508.94 65.298L1508.37 65.872C1508.15 65.536 1507.81 65.34 1507.42 65.34C1506.93 65.34 1506.41 65.634 1506.41 66.544ZM1514.42 67.58H1515.4L1512.14 76.022C1511.65 77.282 1511.1 78.08 1509.95 78.08C1509.45 78.08 1508.99 77.898 1508.64 77.576L1509.06 76.89C1509.34 77.142 1509.6 77.254 1509.93 77.254C1510.44 77.254 1510.81 77.03 1511.17 76.176L1511.61 75.126L1508.82 67.58H1509.86L1512.1 74.006L1514.42 67.58ZM1519.13 74.972C1518.91 75.028 1518.73 75.056 1518.52 75.056C1517.35 75.056 1516.81 74.328 1516.81 73.236V64.64H1517.76V73.236C1517.76 73.866 1518.1 74.188 1518.68 74.188C1518.84 74.188 1518.99 74.174 1519.13 74.132V74.972ZM1523.19 74.972C1522.97 75.028 1522.79 75.056 1522.58 75.056C1521.41 75.056 1520.87 74.328 1520.87 73.236V64.64H1521.82V73.236C1521.82 73.866 1522.16 74.188 1522.74 74.188C1522.9 74.188 1523.05 74.174 1523.19 74.132V74.972ZM1529.78 72.9L1530.48 73.292C1530.13 74.188 1529.2 75.112 1527.55 75.112C1525.47 75.112 1524.23 73.558 1524.23 71.192C1524.23 69.022 1525.52 67.468 1527.45 67.468C1529.05 67.468 1530.42 68.616 1530.42 70.632L1530.39 71.458H1525.2C1525.28 73.432 1526.22 74.272 1527.65 74.272C1528.77 74.272 1529.43 73.628 1529.78 72.9ZM1527.45 68.308C1526.33 68.308 1525.33 68.91 1525.2 70.674H1529.48C1529.53 69.008 1528.55 68.308 1527.45 68.308ZM1532.07 69.512C1532.07 68.336 1533.18 67.468 1534.73 67.468C1536.07 67.468 1537.11 68.112 1537.42 69.092L1536.63 69.4C1536.34 68.686 1535.65 68.308 1534.7 68.308C1533.67 68.308 1532.99 68.742 1532.99 69.428C1532.99 70.044 1533.4 70.422 1534.28 70.604L1535.26 70.8C1536.89 71.122 1537.64 71.822 1537.64 72.928C1537.64 74.216 1536.49 75.112 1534.84 75.112C1533.34 75.112 1532.29 74.524 1531.79 73.404L1532.6 73.068C1532.95 73.852 1533.72 74.272 1534.81 74.272C1535.96 74.272 1536.72 73.768 1536.72 73.012C1536.72 72.312 1536.33 71.934 1535.35 71.724L1534.14 71.472C1532.78 71.192 1532.07 70.506 1532.07 69.512ZM1547.41 67.58H1548.36V75H1547.41V73.866C1546.96 74.664 1546.18 75.112 1545.27 75.112C1543.81 75.112 1542.93 74.174 1542.93 72.564V67.58H1543.88V72.48C1543.88 73.698 1544.5 74.258 1545.53 74.258C1546.85 74.258 1547.41 73.208 1547.41 71.752V67.58ZM1552.2 73.152C1552.2 74.02 1552.72 74.272 1553.18 74.272C1553.63 74.272 1553.92 74.104 1554.27 73.74L1554.77 74.3C1554.28 74.874 1553.75 75.112 1553.09 75.112C1552.09 75.112 1551.25 74.44 1551.25 73.124V68.364H1549.85V67.58H1551.25V65.984L1552.2 65.424V67.58H1554.61V68.364H1552.2V73.152Z" fill="#2A2859"/>
<path d="M1409.23 108V97.64H1412.62C1415.18 97.64 1417.16 99.642 1417.16 102.764C1417.16 105.886 1415.18 108 1412.62 108H1409.23ZM1410.21 107.104H1412.42C1414.58 107.104 1416.15 105.648 1416.15 102.764C1416.15 99.908 1414.57 98.536 1412.4 98.536H1410.21V107.104ZM1424.13 105.9L1424.83 106.292C1424.48 107.188 1423.56 108.112 1421.9 108.112C1419.82 108.112 1418.59 106.558 1418.59 104.192C1418.59 102.022 1419.87 100.468 1421.81 100.468C1423.4 100.468 1424.77 101.616 1424.77 103.632L1424.75 104.458H1419.55C1419.64 106.432 1420.57 107.272 1422 107.272C1423.12 107.272 1423.78 106.628 1424.13 105.9ZM1421.81 101.308C1420.69 101.308 1419.68 101.91 1419.55 103.674H1423.84C1423.88 102.008 1422.9 101.308 1421.81 101.308ZM1428.13 106.152C1428.13 107.02 1428.65 107.272 1429.11 107.272C1429.56 107.272 1429.86 107.104 1430.21 106.74L1430.71 107.3C1430.22 107.874 1429.69 108.112 1429.03 108.112C1428.02 108.112 1427.18 107.44 1427.18 106.124V101.364H1425.78V100.58H1427.18V98.984L1428.13 98.424V100.58H1430.54V101.364H1428.13V106.152ZM1433.55 106.152C1433.55 107.02 1434.07 107.272 1434.53 107.272C1434.98 107.272 1435.27 107.104 1435.62 106.74L1436.12 107.3C1435.63 107.874 1435.1 108.112 1434.44 108.112C1433.44 108.112 1432.6 107.44 1432.6 106.124V101.364H1431.2V100.58H1432.6V98.984L1433.55 98.424V100.58H1435.96V101.364H1433.55V106.152ZM1442.4 105.9L1443.1 106.292C1442.75 107.188 1441.82 108.112 1440.17 108.112C1438.08 108.112 1436.85 106.558 1436.85 104.192C1436.85 102.022 1438.14 100.468 1440.07 100.468C1441.67 100.468 1443.04 101.616 1443.04 103.632L1443.01 104.458H1437.82C1437.9 106.432 1438.84 107.272 1440.27 107.272C1441.39 107.272 1442.05 106.628 1442.4 105.9ZM1440.07 101.308C1438.95 101.308 1437.94 101.91 1437.82 103.674H1442.1C1442.14 102.008 1441.16 101.308 1440.07 101.308ZM1453.7 105.9L1454.4 106.292C1454.05 107.188 1453.13 108.112 1451.48 108.112C1449.39 108.112 1448.16 106.558 1448.16 104.192C1448.16 102.022 1449.45 100.468 1451.38 100.468C1452.97 100.468 1454.35 101.616 1454.35 103.632L1454.32 104.458H1449.12C1449.21 106.432 1450.15 107.272 1451.57 107.272C1452.69 107.272 1453.35 106.628 1453.7 105.9ZM1451.38 101.308C1450.26 101.308 1449.25 101.91 1449.12 103.674H1453.41C1453.45 102.008 1452.47 101.308 1451.38 101.308ZM1459.02 100.468C1459.98 100.468 1460.68 101.112 1460.68 102.372V103.1L1459.82 103.268V102.54C1459.82 101.798 1459.56 101.308 1458.81 101.308C1457.95 101.308 1457.31 101.938 1457.31 103.436V108H1456.36V100.58H1457.31V101.504C1457.7 100.804 1458.36 100.468 1459.02 100.468ZM1467.63 106.152C1467.63 107.02 1468.15 107.272 1468.61 107.272C1469.06 107.272 1469.35 107.104 1469.7 106.74L1470.21 107.3C1469.72 107.874 1469.19 108.112 1468.53 108.112C1467.52 108.112 1466.68 107.44 1466.68 106.124V101.364H1465.28V100.58H1466.68V98.984L1467.63 98.424V100.58H1470.04V101.364H1467.63V106.152ZM1476.48 105.9L1477.18 106.292C1476.83 107.188 1475.91 108.112 1474.25 108.112C1472.17 108.112 1470.94 106.558 1470.94 104.192C1470.94 102.022 1472.22 100.468 1474.16 100.468C1475.75 100.468 1477.12 101.616 1477.12 103.632L1477.1 104.458H1471.9C1471.99 106.432 1472.92 107.272 1474.35 107.272C1475.47 107.272 1476.13 106.628 1476.48 105.9ZM1474.16 101.308C1473.04 101.308 1472.03 101.91 1471.9 103.674H1476.19C1476.23 102.008 1475.25 101.308 1474.16 101.308ZM1483.76 108L1481.03 104.318L1480.12 105.186V108H1479.16V97.64H1480.12V104.066L1483.64 100.58H1484.9L1481.67 103.688L1484.96 108H1483.76ZM1485.77 102.512C1485.77 101.336 1486.88 100.468 1488.43 100.468C1489.78 100.468 1490.81 101.112 1491.12 102.092L1490.34 102.4C1490.04 101.686 1489.36 101.308 1488.4 101.308C1487.37 101.308 1486.7 101.742 1486.7 102.428C1486.7 103.044 1487.1 103.422 1487.98 103.604L1488.96 103.8C1490.59 104.122 1491.34 104.822 1491.34 105.928C1491.34 107.216 1490.2 108.112 1488.54 108.112C1487.05 108.112 1486 107.524 1485.49 106.404L1486.3 106.068C1486.65 106.852 1487.42 107.272 1488.52 107.272C1489.66 107.272 1490.42 106.768 1490.42 106.012C1490.42 105.312 1490.03 104.934 1489.05 104.724L1487.84 104.472C1486.49 104.192 1485.77 103.506 1485.77 102.512ZM1494.56 106.152C1494.56 107.02 1495.08 107.272 1495.54 107.272C1495.99 107.272 1496.29 107.104 1496.64 106.74L1497.14 107.3C1496.65 107.874 1496.12 108.112 1495.46 108.112C1494.45 108.112 1493.61 107.44 1493.61 106.124V101.364H1492.21V100.58H1493.61V98.984L1494.56 98.424V100.58H1496.97V101.364H1494.56V106.152ZM1505.18 108.112C1503.34 108.112 1501.87 106.6 1501.87 104.276C1501.87 101.98 1503.33 100.468 1505.18 100.468C1507.03 100.468 1508.48 101.98 1508.48 104.276C1508.48 106.6 1507.01 108.112 1505.18 108.112ZM1505.18 107.272C1506.45 107.272 1507.5 106.264 1507.5 104.276C1507.5 102.302 1506.44 101.308 1505.18 101.308C1503.92 101.308 1502.85 102.302 1502.85 104.276C1502.85 106.264 1503.9 107.272 1505.18 107.272ZM1514.88 100.58H1515.86L1512.94 108H1512.1L1509.19 100.58H1510.23L1512.55 106.95L1514.88 100.58ZM1522.1 105.9L1522.8 106.292C1522.45 107.188 1521.53 108.112 1519.88 108.112C1517.79 108.112 1516.56 106.558 1516.56 104.192C1516.56 102.022 1517.85 100.468 1519.78 100.468C1521.37 100.468 1522.75 101.616 1522.75 103.632L1522.72 104.458H1517.52C1517.61 106.432 1518.55 107.272 1519.97 107.272C1521.09 107.272 1521.75 106.628 1522.1 105.9ZM1519.78 101.308C1518.66 101.308 1517.65 101.91 1517.52 103.674H1521.81C1521.85 102.008 1520.87 101.308 1519.78 101.308ZM1527.42 100.468C1528.38 100.468 1529.08 101.112 1529.08 102.372V103.1L1528.22 103.268V102.54C1528.22 101.798 1527.96 101.308 1527.21 101.308C1526.35 101.308 1525.71 101.938 1525.71 103.436V108H1524.76V100.58H1525.71V101.504C1526.1 100.804 1526.76 100.468 1527.42 100.468ZM1535.02 99.236C1534.56 99.236 1534.18 98.872 1534.18 98.396C1534.18 97.92 1534.56 97.556 1535.02 97.556C1535.49 97.556 1535.86 97.92 1535.86 98.396C1535.86 98.872 1535.49 99.236 1535.02 99.236ZM1534.55 108V100.58H1535.5V108H1534.55ZM1541.02 100.468C1542.5 100.468 1543.37 101.378 1543.37 103.044V108H1542.42V103.184C1542.42 101.84 1541.8 101.336 1540.77 101.336C1539.47 101.336 1538.86 102.344 1538.86 103.828V108H1537.91V100.58H1538.86V101.728C1539.31 100.916 1540.12 100.468 1541.02 100.468ZM1549.05 100.482C1550.94 100.482 1552.21 102.064 1552.21 104.22C1552.21 106.502 1550.93 108.112 1548.94 108.112C1547.9 108.112 1547.06 107.594 1546.61 106.656V110.94H1545.66V100.58H1546.61V101.966C1547.1 101.014 1548.08 100.482 1549.05 100.482ZM1548.94 107.272C1550.32 107.272 1551.23 106.208 1551.23 104.262C1551.23 102.386 1550.32 101.322 1548.95 101.322C1547.47 101.322 1546.61 102.428 1546.61 104.248C1546.61 106.18 1547.45 107.272 1548.94 107.272ZM1558.47 100.58H1559.42V108H1558.47V106.866C1558.02 107.664 1557.23 108.112 1556.32 108.112C1554.87 108.112 1553.99 107.174 1553.99 105.564V100.58H1554.94V105.48C1554.94 106.698 1555.55 107.258 1556.59 107.258C1557.91 107.258 1558.47 106.208 1558.47 104.752V100.58ZM1563.25 106.152C1563.25 107.02 1563.77 107.272 1564.23 107.272C1564.68 107.272 1564.97 107.104 1565.32 106.74L1565.83 107.3C1565.34 107.874 1564.81 108.112 1564.15 108.112C1563.14 108.112 1562.3 107.44 1562.3 106.124V101.364H1560.9V100.58H1562.3V98.984L1563.25 98.424V100.58H1565.66V101.364H1563.25V106.152ZM1568.67 99.544V100.58H1570.74V101.364H1568.67V108H1567.71V101.364H1566.31V100.58H1567.71V99.544C1567.71 98.256 1568.55 97.528 1569.7 97.528C1570.23 97.528 1570.85 97.738 1571.2 98.298L1570.63 98.872C1570.4 98.536 1570.07 98.34 1569.67 98.34C1569.18 98.34 1568.67 98.634 1568.67 99.544ZM1576.83 105.9L1577.53 106.292C1577.18 107.188 1576.26 108.112 1574.6 108.112C1572.52 108.112 1571.29 106.558 1571.29 104.192C1571.29 102.022 1572.57 100.468 1574.51 100.468C1576.1 100.468 1577.47 101.616 1577.47 103.632L1577.45 104.458H1572.25C1572.34 106.432 1573.27 107.272 1574.7 107.272C1575.82 107.272 1576.48 106.628 1576.83 105.9ZM1574.51 101.308C1573.39 101.308 1572.38 101.91 1572.25 103.674H1576.54C1576.58 102.008 1575.6 101.308 1574.51 101.308ZM1581.81 107.972C1581.59 108.028 1581.41 108.056 1581.2 108.056C1580.03 108.056 1579.49 107.328 1579.49 106.236V97.64H1580.44V106.236C1580.44 106.866 1580.78 107.188 1581.36 107.188C1581.52 107.188 1581.67 107.174 1581.81 107.132V107.972ZM1584.9 106.152C1584.9 107.02 1585.41 107.272 1585.88 107.272C1586.32 107.272 1586.62 107.104 1586.97 106.74L1587.47 107.3C1586.98 107.874 1586.45 108.112 1585.79 108.112C1584.78 108.112 1583.94 107.44 1583.94 106.124V101.364H1582.54V100.58H1583.94V98.984L1584.9 98.424V100.58H1587.3V101.364H1584.9V106.152ZM1593.74 105.9L1594.44 106.292C1594.09 107.188 1593.17 108.112 1591.52 108.112C1589.43 108.112 1588.2 106.558 1588.2 104.192C1588.2 102.022 1589.49 100.468 1591.42 100.468C1593.01 100.468 1594.39 101.616 1594.39 103.632L1594.36 104.458H1589.16C1589.25 106.432 1590.19 107.272 1591.61 107.272C1592.73 107.272 1593.39 106.628 1593.74 105.9ZM1591.42 101.308C1590.3 101.308 1589.29 101.91 1589.16 103.674H1593.45C1593.49 102.008 1592.51 101.308 1591.42 101.308ZM1597.75 106.152C1597.75 107.02 1598.26 107.272 1598.73 107.272C1599.17 107.272 1599.47 107.104 1599.82 106.74L1600.32 107.3C1599.83 107.874 1599.3 108.112 1598.64 108.112C1597.63 108.112 1596.79 107.44 1596.79 106.124V101.364H1595.39V100.58H1596.79V98.984L1597.75 98.424V100.58H1600.15V101.364H1597.75V106.152ZM1601.89 106.432H1603.41V108H1601.89V106.432Z" fill="#2A2859"/>
<rect x="1409" y="123" width="398" height="146" fill="white"/>
<path d="M1429.8 136.68C1432.59 136.68 1434.26 138.39 1434.26 140.784C1434.26 143.178 1432.5 144.816 1429.71 144.816H1426.84V150H1425.58V136.68H1429.8ZM1429.85 143.7C1431.9 143.7 1432.96 142.656 1432.96 140.784C1432.96 138.912 1431.9 137.832 1429.85 137.832H1426.84V143.7H1429.85ZM1439.13 149.964C1438.84 150.036 1438.61 150.072 1438.34 150.072C1436.84 150.072 1436.14 149.136 1436.14 147.732V136.68H1437.36V147.732C1437.36 148.542 1437.8 148.956 1438.55 148.956C1438.75 148.956 1438.95 148.938 1439.13 148.884V149.964ZM1448.27 150H1447.16C1447.01 149.478 1446.9 148.848 1446.9 148.128C1446.42 149.244 1445.18 150.144 1443.63 150.144C1441.94 150.144 1440.66 149.046 1440.66 147.408C1440.66 145.446 1442.42 144.42 1444.38 144.42C1445.16 144.42 1445.91 144.51 1446.69 144.78V143.52C1446.69 142.278 1445.93 141.432 1444.46 141.432C1443.27 141.432 1442.26 141.954 1441.76 143.412L1440.68 143.088C1441.4 141.072 1442.85 140.316 1444.53 140.316C1446.89 140.316 1447.88 141.738 1447.88 143.376V147.3C1447.88 148.38 1448.06 149.352 1448.27 150ZM1446.69 146.04V145.824C1445.95 145.518 1445.19 145.428 1444.46 145.428C1443.02 145.428 1441.88 146.076 1441.88 147.336C1441.88 148.488 1442.69 149.1 1443.84 149.1C1445.09 149.1 1446.69 148.362 1446.69 146.04ZM1450.3 142.944C1450.3 141.432 1451.72 140.316 1453.72 140.316C1455.45 140.316 1456.78 141.144 1457.18 142.404L1456.17 142.8C1455.79 141.882 1454.91 141.396 1453.69 141.396C1452.35 141.396 1451.49 141.954 1451.49 142.836C1451.49 143.628 1452.01 144.114 1453.15 144.348L1454.41 144.6C1456.49 145.014 1457.47 145.914 1457.47 147.336C1457.47 148.992 1455.99 150.144 1453.87 150.144C1451.94 150.144 1450.59 149.388 1449.94 147.948L1450.99 147.516C1451.44 148.524 1452.43 149.064 1453.83 149.064C1455.31 149.064 1456.28 148.416 1456.28 147.444C1456.28 146.544 1455.77 146.058 1454.51 145.788L1452.97 145.464C1451.22 145.104 1450.3 144.222 1450.3 142.944ZM1459.21 142.944C1459.21 141.432 1460.63 140.316 1462.63 140.316C1464.36 140.316 1465.69 141.144 1466.08 142.404L1465.08 142.8C1464.7 141.882 1463.82 141.396 1462.59 141.396C1461.26 141.396 1460.4 141.954 1460.4 142.836C1460.4 143.628 1460.92 144.114 1462.05 144.348L1463.31 144.6C1465.4 145.014 1466.37 145.914 1466.37 147.336C1466.37 148.992 1464.9 150.144 1462.77 150.144C1460.85 150.144 1459.5 149.388 1458.85 147.948L1459.89 147.516C1460.34 148.524 1461.33 149.064 1462.74 149.064C1464.21 149.064 1465.18 148.416 1465.18 147.444C1465.18 146.544 1464.68 146.058 1463.42 145.788L1461.87 145.464C1460.13 145.104 1459.21 144.222 1459.21 142.944ZM1472.61 140.316C1474.52 140.316 1475.64 141.486 1475.64 143.628V150H1474.41V143.808C1474.41 142.08 1473.62 141.432 1472.29 141.432C1470.62 141.432 1469.84 142.728 1469.84 144.636V150H1468.62V136.68H1469.84V141.936C1470.42 140.892 1471.46 140.316 1472.61 140.316ZM1482.02 150.144C1479.66 150.144 1477.77 148.2 1477.77 145.212C1477.77 142.26 1479.64 140.316 1482.02 140.316C1484.4 140.316 1486.27 142.26 1486.27 145.212C1486.27 148.2 1484.38 150.144 1482.02 150.144ZM1482.02 149.064C1483.66 149.064 1485.01 147.768 1485.01 145.212C1485.01 142.674 1483.64 141.396 1482.02 141.396C1480.4 141.396 1479.03 142.674 1479.03 145.212C1479.03 147.768 1480.38 149.064 1482.02 149.064ZM1491.54 149.964C1491.25 150.036 1491.02 150.072 1490.75 150.072C1489.26 150.072 1488.55 149.136 1488.55 147.732V136.68H1489.78V147.732C1489.78 148.542 1490.21 148.956 1490.97 148.956C1491.16 148.956 1491.36 148.938 1491.54 148.884V149.964ZM1499.88 136.68H1501.11V150H1499.88V148.218C1499.25 149.442 1497.99 150.126 1496.75 150.126C1494.32 150.126 1492.68 148.092 1492.68 145.32C1492.68 142.386 1494.34 140.316 1496.89 140.316C1498.23 140.316 1499.31 140.982 1499.88 142.188V136.68ZM1496.88 149.046C1498.78 149.046 1499.88 147.624 1499.88 145.284C1499.88 142.8 1498.8 141.396 1496.89 141.396C1495.11 141.396 1493.94 142.764 1493.94 145.266C1493.94 147.678 1495.11 149.046 1496.88 149.046ZM1510.44 147.3L1511.34 147.804C1510.89 148.956 1509.7 150.144 1507.58 150.144C1504.89 150.144 1503.31 148.146 1503.31 145.104C1503.31 142.314 1504.97 140.316 1507.45 140.316C1509.5 140.316 1511.27 141.792 1511.27 144.384L1511.23 145.446H1504.55C1504.66 147.984 1505.87 149.064 1507.7 149.064C1509.14 149.064 1509.99 148.236 1510.44 147.3ZM1507.45 141.396C1506.01 141.396 1504.71 142.17 1504.55 144.438H1510.06C1510.11 142.296 1508.85 141.396 1507.45 141.396ZM1517.07 140.316C1518.32 140.316 1519.22 141.144 1519.22 142.764V143.7L1518.1 143.916V142.98C1518.1 142.026 1517.78 141.396 1516.8 141.396C1515.71 141.396 1514.88 142.206 1514.88 144.132V150H1513.65V140.46H1514.88V141.648C1515.38 140.748 1516.23 140.316 1517.07 140.316Z" fill="#808080"/>
<rect x="1409" y="123" width="398" height="146" stroke="#FF8274" stroke-width="2"/>
<mask id="path-22-inside-1_5612_34664" fill="white">
<path d="M1408 278H1808V326H1408V278Z"/>
</mask>
<path d="M1408 278H1808V326H1408V278Z" fill="#FFDFDC"/>
<path d="M1439.19 294.747L1443.37 302L1439.19 309.253H1430.81L1426.63 302L1430.81 294.747H1439.19M1440.09 293.179H1429.91L1424.81 302L1429.91 310.821H1440.09L1445.19 302L1440.09 293.179V293.179ZM1438.53 299.36L1437.65 298.487L1435.01 301.134L1432.35 298.48L1431.48 299.353L1434.13 302.007L1431.49 304.654L1432.36 305.527L1435.01 302.88L1437.65 305.52L1438.52 304.647L1435.88 302.007L1438.53 299.36V299.36Z" fill="#2A2859"/>
<path d="M1455.41 308V296.16H1459.28C1462.21 296.16 1464.46 298.448 1464.46 302.016C1464.46 305.584 1462.21 308 1459.28 308H1455.41ZM1456.53 306.976H1459.06C1461.52 306.976 1463.31 305.312 1463.31 302.016C1463.31 298.752 1461.5 297.184 1459.02 297.184H1456.53V306.976ZM1472.23 305.6L1473.03 306.048C1472.63 307.072 1471.58 308.128 1469.69 308.128C1467.31 308.128 1465.9 306.352 1465.9 303.648C1465.9 301.168 1467.37 299.392 1469.58 299.392C1471.4 299.392 1472.97 300.704 1472.97 303.008L1472.94 303.952H1467C1467.1 306.208 1468.17 307.168 1469.8 307.168C1471.08 307.168 1471.83 306.432 1472.23 305.6ZM1469.58 300.352C1468.3 300.352 1467.15 301.04 1467 303.056H1471.9C1471.95 301.152 1470.83 300.352 1469.58 300.352ZM1476.61 305.888C1476.61 306.88 1477.2 307.168 1477.73 307.168C1478.24 307.168 1478.58 306.976 1478.98 306.56L1479.55 307.2C1478.99 307.856 1478.39 308.128 1477.63 308.128C1476.48 308.128 1475.52 307.36 1475.52 305.856V300.416H1473.92V299.52H1475.52V297.696L1476.61 297.056V299.52H1479.36V300.416H1476.61V305.888ZM1482.6 305.888C1482.6 306.88 1483.19 307.168 1483.72 307.168C1484.23 307.168 1484.57 306.976 1484.96 306.56L1485.54 307.2C1484.98 307.856 1484.37 308.128 1483.62 308.128C1482.47 308.128 1481.51 307.36 1481.51 305.856V300.416H1479.91V299.52H1481.51V297.696L1482.6 297.056V299.52H1485.35V300.416H1482.6V305.888ZM1492.51 305.6L1493.31 306.048C1492.91 307.072 1491.85 308.128 1489.96 308.128C1487.58 308.128 1486.17 306.352 1486.17 303.648C1486.17 301.168 1487.64 299.392 1489.85 299.392C1491.68 299.392 1493.24 300.704 1493.24 303.008L1493.21 303.952H1487.28C1487.37 306.208 1488.44 307.168 1490.08 307.168C1491.36 307.168 1492.11 306.432 1492.51 305.6ZM1489.85 300.352C1488.57 300.352 1487.42 301.04 1487.28 303.056H1492.17C1492.22 301.152 1491.1 300.352 1489.85 300.352ZM1505.03 305.6L1505.83 306.048C1505.43 307.072 1504.37 308.128 1502.49 308.128C1500.1 308.128 1498.69 306.352 1498.69 303.648C1498.69 301.168 1500.17 299.392 1502.37 299.392C1504.2 299.392 1505.77 300.704 1505.77 303.008L1505.73 303.952H1499.8C1499.89 306.208 1500.97 307.168 1502.6 307.168C1503.88 307.168 1504.63 306.432 1505.03 305.6ZM1502.37 300.352C1501.09 300.352 1499.94 301.04 1499.8 303.056H1504.69C1504.74 301.152 1503.62 300.352 1502.37 300.352ZM1510.91 299.392C1512.01 299.392 1512.81 300.128 1512.81 301.568V302.4L1511.82 302.592V301.76C1511.82 300.912 1511.53 300.352 1510.67 300.352C1509.69 300.352 1508.95 301.072 1508.95 302.784V308H1507.87V299.52H1508.95V300.576C1509.4 299.776 1510.15 299.392 1510.91 299.392ZM1524.45 305.6L1525.25 306.048C1524.85 307.072 1523.79 308.128 1521.9 308.128C1519.52 308.128 1518.11 306.352 1518.11 303.648C1518.11 301.168 1519.58 299.392 1521.79 299.392C1523.61 299.392 1525.18 300.704 1525.18 303.008L1525.15 303.952H1519.21C1519.31 306.208 1520.38 307.168 1522.01 307.168C1523.29 307.168 1524.05 306.432 1524.45 305.6ZM1521.79 300.352C1520.51 300.352 1519.36 301.04 1519.21 303.056H1524.11C1524.16 301.152 1523.04 300.352 1521.79 300.352ZM1530.83 299.392C1532.53 299.392 1533.52 300.432 1533.52 302.336V308H1532.43V302.496C1532.43 300.96 1531.73 300.384 1530.55 300.384C1529.06 300.384 1528.37 301.536 1528.37 303.232V308H1527.28V299.52H1528.37V300.832C1528.88 299.904 1529.81 299.392 1530.83 299.392ZM1541.53 298.336V299.52H1543.9V300.416H1541.53V308H1540.44V300.416H1538.84V299.52H1540.44V298.336C1540.44 296.864 1541.4 296.032 1542.72 296.032C1543.32 296.032 1544.03 296.272 1544.43 296.912L1543.77 297.568C1543.52 297.184 1543.13 296.96 1542.68 296.96C1542.12 296.96 1541.53 297.296 1541.53 298.336ZM1550.66 305.6L1551.46 306.048C1551.06 307.072 1550.01 308.128 1548.12 308.128C1545.73 308.128 1544.33 306.352 1544.33 303.648C1544.33 301.168 1545.8 299.392 1548.01 299.392C1549.83 299.392 1551.4 300.704 1551.4 303.008L1551.37 303.952H1545.43C1545.53 306.208 1546.6 307.168 1548.23 307.168C1549.51 307.168 1550.26 306.432 1550.66 305.6ZM1548.01 300.352C1546.73 300.352 1545.57 301.04 1545.43 303.056H1550.33C1550.37 301.152 1549.25 300.352 1548.01 300.352ZM1554.04 297.984C1553.51 297.984 1553.08 297.568 1553.08 297.024C1553.08 296.48 1553.51 296.064 1554.04 296.064C1554.57 296.064 1555 296.48 1555 297.024C1555 297.568 1554.57 297.984 1554.04 297.984ZM1553.5 308V299.52H1554.59V308H1553.5ZM1559.8 307.968C1559.54 308.032 1559.33 308.064 1559.09 308.064C1557.77 308.064 1557.14 307.232 1557.14 305.984V296.16H1558.23V305.984C1558.23 306.704 1558.61 307.072 1559.29 307.072C1559.46 307.072 1559.64 307.056 1559.8 307.008V307.968ZM1570.03 299.392C1571.65 299.392 1572.59 300.416 1572.59 302.176V308H1571.5V302.336C1571.5 300.96 1570.85 300.384 1569.74 300.384C1568.25 300.384 1567.63 301.536 1567.63 303.232V308H1566.54V302.336C1566.54 300.96 1565.89 300.384 1564.78 300.384C1563.29 300.384 1562.67 301.536 1562.67 303.232V308H1561.58V299.52H1562.67V300.848C1563.18 299.904 1564.08 299.392 1565.07 299.392C1566.33 299.392 1567.18 300.016 1567.49 301.12C1567.97 300 1568.94 299.392 1570.03 299.392ZM1580.8 305.6L1581.6 306.048C1581.2 307.072 1580.14 308.128 1578.26 308.128C1575.87 308.128 1574.46 306.352 1574.46 303.648C1574.46 301.168 1575.94 299.392 1578.14 299.392C1579.97 299.392 1581.54 300.704 1581.54 303.008L1581.5 303.952H1575.57C1575.66 306.208 1576.74 307.168 1578.37 307.168C1579.65 307.168 1580.4 306.432 1580.8 305.6ZM1578.14 300.352C1576.86 300.352 1575.71 301.04 1575.57 303.056H1580.46C1580.51 301.152 1579.39 300.352 1578.14 300.352ZM1586.29 307.968C1586.04 308.032 1585.83 308.064 1585.59 308.064C1584.26 308.064 1583.64 307.232 1583.64 305.984V296.16H1584.72V305.984C1584.72 306.704 1585.11 307.072 1585.78 307.072C1585.96 307.072 1586.13 307.056 1586.29 307.008V307.968ZM1593.68 296.16H1594.77V308H1593.68V306.416C1593.12 307.504 1592 308.112 1590.9 308.112C1588.74 308.112 1587.28 306.304 1587.28 303.84C1587.28 301.232 1588.75 299.392 1591.03 299.392C1592.21 299.392 1593.17 299.984 1593.68 301.056V296.16ZM1591.01 307.152C1592.71 307.152 1593.68 305.888 1593.68 303.808C1593.68 301.6 1592.72 300.352 1591.03 300.352C1589.44 300.352 1588.4 301.568 1588.4 303.792C1588.4 305.936 1589.44 307.152 1591.01 307.152ZM1596.96 296.224H1598.63V297.856H1596.96V296.224ZM1597.25 308V299.52H1598.34V308H1597.25ZM1604.45 299.392C1606.14 299.392 1607.13 300.432 1607.13 302.336V308H1606.05V302.496C1606.05 300.96 1605.34 300.384 1604.16 300.384C1602.67 300.384 1601.98 301.536 1601.98 303.232V308H1600.89V299.52H1601.98V300.832C1602.49 299.904 1603.42 299.392 1604.45 299.392ZM1617.17 300.416H1615.35V300.72C1615.76 301.232 1615.99 301.872 1615.99 302.496C1615.99 304.048 1614.87 305.632 1612.48 305.632H1612.11C1611.15 305.632 1610.47 306 1610.47 306.56C1610.47 306.992 1610.8 307.296 1611.51 307.296H1614.95C1616.32 307.296 1617.03 307.968 1617.03 309.024C1617.03 310.704 1615.09 311.584 1612.71 311.584C1610.56 311.584 1609.07 310.896 1608.56 309.408L1609.44 309.008C1610.03 310.4 1611.28 310.672 1612.71 310.672C1614.47 310.672 1615.94 310.144 1615.94 309.12C1615.94 308.64 1615.68 308.288 1614.91 308.288H1611.27C1610.08 308.288 1609.38 307.728 1609.38 306.848C1609.38 306.096 1610 305.44 1611.04 305.168C1609.92 304.72 1609.3 303.536 1609.3 302.496C1609.3 300.976 1610.43 299.392 1612.67 299.392C1613.55 299.392 1614.23 299.68 1614.74 300.112V299.52H1617.17V300.416ZM1612.66 304.736C1614.16 304.736 1614.91 303.696 1614.91 302.496C1614.91 301.312 1614.16 300.32 1612.66 300.32C1611.14 300.32 1610.37 301.328 1610.37 302.496C1610.37 303.68 1611.14 304.736 1612.66 304.736Z" fill="#2A2859"/>
<path d="M1412 326V278H1404V326H1412Z" fill="#FF8274" mask="url(#path-22-inside-1_5612_34664)"/>
</svg>
