<svg width="1101" height="378" viewBox="0 0 1101 378" fill="none" xmlns="http://www.w3.org/2000/svg">
<rect width="1101" height="378" fill="white"/>
<path d="M95.362 76.18C91.6 76.18 88.864 73.534 88.864 69.286C88.864 65.146 91.762 62.5 95.164 62.5C97.45 62.5 99.214 63.526 100.168 65.506L98.332 66.532C97.738 65.254 96.568 64.516 95.164 64.516C93.04 64.516 91.06 66.01 91.06 69.268C91.06 72.526 92.914 74.254 95.524 74.254C96.676 74.254 97.558 74.02 98.35 73.588V70.42H93.94V68.548H100.204V74.668C98.89 75.676 97.18 76.18 95.362 76.18ZM103.871 64.876C103.079 64.876 102.449 64.264 102.449 63.454C102.449 62.644 103.079 62.032 103.871 62.032C104.663 62.032 105.275 62.644 105.275 63.454C105.275 64.264 104.663 64.876 103.871 64.876ZM102.863 76V66.46H104.879V76H102.863ZM118.521 62.68H120.537V76H118.521V74.272C117.783 75.604 116.631 76.144 115.533 76.144C113.229 76.144 111.573 74.164 111.573 71.266C111.573 68.26 113.247 66.262 115.767 66.262C116.847 66.262 117.927 66.748 118.521 67.918V62.68ZM116.073 74.38C117.531 74.38 118.521 73.39 118.521 71.158C118.521 68.944 117.549 67.882 116.073 67.882C114.687 67.882 113.661 68.998 113.661 71.158C113.661 73.3 114.687 74.38 116.073 74.38ZM122.947 62.32H125.413V64.75H122.947V62.32ZM123.181 76V66.46H125.197V76H123.181ZM132.885 66.244C134.829 66.244 135.981 67.504 135.981 69.574V76H133.965V69.898C133.965 68.584 133.335 67.99 132.237 67.99C130.815 67.99 130.095 68.98 130.095 70.834V76H128.079V66.46H130.095V67.828C130.743 66.82 131.697 66.244 132.885 66.244ZM145.813 73.048C145.813 74.11 146.461 74.434 147.127 74.434C147.649 74.434 148.063 74.218 148.477 73.804L149.341 75.1C148.621 75.82 147.829 76.162 146.803 76.162C145.147 76.162 143.797 75.154 143.797 73.174V68.026H142.123V66.46H143.797V64.336L145.813 63.418V66.46H149.179V68.026H145.813V73.048ZM152.095 64.876C151.303 64.876 150.673 64.264 150.673 63.454C150.673 62.644 151.303 62.032 152.095 62.032C152.887 62.032 153.499 62.644 153.499 63.454C153.499 64.264 152.887 64.876 152.095 64.876ZM151.087 76V66.46H153.103V76H151.087ZM159.818 75.946C159.44 76.054 159.062 76.108 158.666 76.108C156.848 76.108 155.984 75.028 155.984 73.282V62.68H158V73.138C158 73.966 158.486 74.344 159.224 74.344C159.404 74.344 159.602 74.326 159.818 74.272V75.946ZM166.871 66.262C169.175 66.262 170.831 68.224 170.831 71.14C170.831 74.128 169.157 76.144 166.637 76.144C165.539 76.144 164.477 75.658 163.865 74.47V76H161.849V62.68H163.865V68.17C164.603 66.82 165.773 66.262 166.871 66.262ZM166.331 74.488C167.717 74.488 168.743 73.372 168.743 71.23C168.743 69.088 167.717 67.99 166.331 67.99C164.855 67.99 163.865 68.998 163.865 71.212C163.865 73.426 164.855 74.488 166.331 74.488ZM180.637 76H178.783C178.639 75.514 178.549 74.938 178.513 74.2C178.063 75.19 177.055 76.162 175.399 76.162C173.671 76.162 172.447 74.992 172.447 73.336C172.447 71.266 174.283 70.24 176.335 70.24C176.983 70.24 177.595 70.294 178.261 70.474V69.574C178.261 68.548 177.613 67.882 176.443 67.882C175.345 67.882 174.571 68.476 174.211 69.592L172.501 69.07C173.185 67.054 174.823 66.244 176.533 66.244C179.071 66.244 180.223 67.738 180.223 69.556V73.246C180.223 74.38 180.403 75.388 180.637 76ZM178.261 72.058V71.842C177.685 71.644 177.127 71.572 176.533 71.572C175.345 71.572 174.427 72.112 174.427 73.156C174.427 74.038 175.057 74.596 176.011 74.596C176.983 74.596 178.261 74.02 178.261 72.058ZM189.064 76L186.166 71.626L185.068 72.706V76H183.052V62.68H185.068V70.42L188.92 66.46H191.404L187.498 70.312L191.476 76H189.064ZM199.072 72.994L200.44 73.786C199.9 74.974 198.64 76.162 196.462 76.162C193.636 76.162 191.926 74.074 191.926 71.14C191.926 68.242 193.78 66.244 196.318 66.244C198.568 66.244 200.422 67.756 200.422 70.456L200.386 71.644H193.906C194.014 73.66 195.004 74.524 196.588 74.524C197.758 74.524 198.568 73.894 199.072 72.994ZM196.318 67.828C195.094 67.828 194.068 68.476 193.906 70.204H198.46C198.478 68.512 197.434 67.828 196.318 67.828ZM213.221 66.244C215.129 66.244 216.227 67.486 216.227 69.484V76H214.211V69.826C214.211 68.566 213.617 67.99 212.573 67.99C211.169 67.99 210.467 68.962 210.467 70.834V76H208.451V69.826C208.451 68.566 207.857 67.99 206.813 67.99C205.427 67.99 204.725 68.962 204.725 70.834V76H202.709V66.46H204.725V67.81C205.373 66.784 206.309 66.244 207.461 66.244C208.919 66.244 209.873 66.946 210.287 68.134C210.935 66.874 211.943 66.244 213.221 66.244ZM225.531 72.994L226.899 73.786C226.359 74.974 225.099 76.162 222.921 76.162C220.095 76.162 218.385 74.074 218.385 71.14C218.385 68.242 220.239 66.244 222.777 66.244C225.027 66.244 226.881 67.756 226.881 70.456L226.845 71.644H220.365C220.473 73.66 221.463 74.524 223.047 74.524C224.217 74.524 225.027 73.894 225.531 72.994ZM222.777 67.828C221.553 67.828 220.527 68.476 220.365 70.204H224.919C224.937 68.512 223.893 67.828 222.777 67.828ZM233.002 75.946C232.624 76.054 232.246 76.108 231.85 76.108C230.032 76.108 229.168 75.028 229.168 73.282V62.68H231.184V73.138C231.184 73.966 231.67 74.344 232.408 74.344C232.588 74.344 232.786 74.326 233.002 74.272V75.946ZM241.07 62.68H243.086V76H241.07V74.272C240.332 75.604 239.18 76.144 238.082 76.144C235.778 76.144 234.122 74.164 234.122 71.266C234.122 68.26 235.796 66.262 238.316 66.262C239.396 66.262 240.476 66.748 241.07 67.918V62.68ZM238.622 74.38C240.08 74.38 241.07 73.39 241.07 71.158C241.07 68.944 240.098 67.882 238.622 67.882C237.236 67.882 236.21 68.998 236.21 71.158C236.21 73.3 237.236 74.38 238.622 74.38ZM245.497 62.32H247.963V64.75H245.497V62.32ZM245.731 76V66.46H247.747V76H245.731ZM255.435 66.244C257.379 66.244 258.531 67.504 258.531 69.574V76H256.515V69.898C256.515 68.584 255.885 67.99 254.787 67.99C253.365 67.99 252.645 68.98 252.645 70.834V76H250.629V66.46H252.645V67.828C253.293 66.82 254.247 66.244 255.435 66.244ZM270.419 68.026H268.421V68.242C268.745 68.692 268.907 69.214 268.907 69.754C268.907 71.482 267.575 73.21 264.803 73.21H264.335C263.363 73.21 262.733 73.534 262.733 74.11C262.733 74.506 263.039 74.794 263.651 74.794H267.629C269.267 74.794 270.203 75.64 270.203 76.936C270.203 78.898 268.205 80.032 265.019 80.032C262.229 80.032 260.357 79.33 259.871 77.476L261.833 77.098C262.283 78.25 263.327 78.556 265.073 78.556C266.945 78.556 268.277 78.052 268.277 77.17C268.277 76.756 268.043 76.45 267.395 76.45H263.057C261.563 76.45 260.789 75.64 260.789 74.632C260.789 73.66 261.653 72.886 262.841 72.652C261.527 72.076 260.879 70.852 260.879 69.7C260.879 67.99 262.265 66.244 264.911 66.244C266.081 66.244 266.999 66.658 267.539 67.252V66.46H270.419V68.026ZM264.911 71.752C266.297 71.752 266.945 70.78 266.945 69.736C266.945 68.692 266.297 67.738 264.911 67.738C263.543 67.738 262.877 68.692 262.877 69.736C262.877 70.78 263.543 71.752 264.911 71.752Z" fill="#2A2859"/>
<rect width="83" height="22" transform="translate(279 59)" fill="#F8F0DD"/>
<path d="M292.324 64.64H293.276V75H292.296V66.362L288.964 71.542H288.544L285.212 66.362V75H284.232V64.64H285.184L288.754 70.184L292.324 64.64ZM298.362 66.796C297.452 66.796 296.71 66.124 296.71 65.2C296.71 64.276 297.452 63.604 298.362 63.604C299.272 63.604 300.014 64.276 300.014 65.2C300.014 66.124 299.272 66.796 298.362 66.796ZM298.362 64.248C297.83 64.248 297.41 64.584 297.41 65.2C297.41 65.83 297.83 66.152 298.362 66.152C298.894 66.152 299.314 65.83 299.314 65.2C299.314 64.584 298.894 64.248 298.362 64.248ZM301.246 75H300.378C300.266 74.594 300.182 74.104 300.182 73.544C299.804 74.412 298.838 75.112 297.634 75.112C296.318 75.112 295.324 74.258 295.324 72.984C295.324 71.458 296.696 70.66 298.222 70.66C298.824 70.66 299.412 70.73 300.014 70.94V69.96C300.014 68.994 299.426 68.336 298.278 68.336C297.354 68.336 296.57 68.742 296.178 69.876L295.338 69.624C295.898 68.056 297.032 67.468 298.334 67.468C300.168 67.468 300.938 68.574 300.938 69.848V72.9C300.938 73.74 301.078 74.496 301.246 75ZM300.014 71.92V71.752C299.44 71.514 298.852 71.444 298.278 71.444C297.158 71.444 296.276 71.948 296.276 72.928C296.276 73.824 296.906 74.3 297.802 74.3C298.768 74.3 300.014 73.726 300.014 71.92ZM308.411 66.544V67.58H310.483V68.364H308.411V75H307.459V68.364H306.059V67.58H307.459V66.544C307.459 65.256 308.299 64.528 309.447 64.528C309.979 64.528 310.595 64.738 310.945 65.298L310.371 65.872C310.147 65.536 309.811 65.34 309.419 65.34C308.929 65.34 308.411 65.634 308.411 66.544ZM316.421 67.58H317.401L314.139 76.022C313.649 77.282 313.103 78.08 311.955 78.08C311.451 78.08 310.989 77.898 310.639 77.576L311.059 76.89C311.339 77.142 311.605 77.254 311.927 77.254C312.445 77.254 312.809 77.03 313.173 76.176L313.607 75.126L310.821 67.58H311.857L314.097 74.006L316.421 67.58ZM321.132 74.972C320.908 75.028 320.726 75.056 320.516 75.056C319.354 75.056 318.808 74.328 318.808 73.236V64.64H319.76V73.236C319.76 73.866 320.096 74.188 320.684 74.188C320.838 74.188 320.992 74.174 321.132 74.132V74.972ZM325.192 74.972C324.968 75.028 324.786 75.056 324.576 75.056C323.414 75.056 322.868 74.328 322.868 73.236V64.64H323.82V73.236C323.82 73.866 324.156 74.188 324.744 74.188C324.898 74.188 325.052 74.174 325.192 74.132V74.972ZM331.778 72.9L332.478 73.292C332.128 74.188 331.204 75.112 329.552 75.112C327.466 75.112 326.234 73.558 326.234 71.192C326.234 69.022 327.522 67.468 329.454 67.468C331.05 67.468 332.422 68.616 332.422 70.632L332.394 71.458H327.2C327.284 73.432 328.222 74.272 329.65 74.272C330.77 74.272 331.428 73.628 331.778 72.9ZM329.454 68.308C328.334 68.308 327.326 68.91 327.2 70.674H331.484C331.526 69.008 330.546 68.308 329.454 68.308ZM334.07 69.512C334.07 68.336 335.176 67.468 336.73 67.468C338.074 67.468 339.11 68.112 339.418 69.092L338.634 69.4C338.34 68.686 337.654 68.308 336.702 68.308C335.666 68.308 334.994 68.742 334.994 69.428C334.994 70.044 335.4 70.422 336.282 70.604L337.262 70.8C338.886 71.122 339.642 71.822 339.642 72.928C339.642 74.216 338.494 75.112 336.842 75.112C335.344 75.112 334.294 74.524 333.79 73.404L334.602 73.068C334.952 73.852 335.722 74.272 336.814 74.272C337.962 74.272 338.718 73.768 338.718 73.012C338.718 72.312 338.326 71.934 337.346 71.724L336.142 71.472C334.784 71.192 334.07 70.506 334.07 69.512ZM349.411 67.58H350.363V75H349.411V73.866C348.963 74.664 348.179 75.112 347.269 75.112C345.813 75.112 344.931 74.174 344.931 72.564V67.58H345.883V72.48C345.883 73.698 346.499 74.258 347.535 74.258C348.851 74.258 349.411 73.208 349.411 71.752V67.58ZM354.198 73.152C354.198 74.02 354.716 74.272 355.178 74.272C355.626 74.272 355.92 74.104 356.27 73.74L356.774 74.3C356.284 74.874 355.752 75.112 355.094 75.112C354.086 75.112 353.246 74.44 353.246 73.124V68.364H351.846V67.58H353.246V65.984L354.198 65.424V67.58H356.606V68.364H354.198V73.152Z" fill="#2A2859"/>
<path d="M89.232 108V97.64H90.212V108H89.232ZM97.2693 108L94.5393 104.318L93.6293 105.186V108H92.6773V97.64H93.6293V104.066L97.1573 100.58H98.4173L95.1833 103.688L98.4733 108H97.2693ZM104.693 108L101.963 104.318L101.053 105.186V108H100.101V97.64H101.053V104.066L104.581 100.58H105.841L102.607 103.688L105.897 108H104.693ZM112.004 105.9L112.704 106.292C112.354 107.188 111.43 108.112 109.778 108.112C107.692 108.112 106.46 106.558 106.46 104.192C106.46 102.022 107.748 100.468 109.68 100.468C111.276 100.468 112.648 101.616 112.648 103.632L112.62 104.458H107.426C107.51 106.432 108.448 107.272 109.876 107.272C110.996 107.272 111.654 106.628 112.004 105.9ZM109.68 101.308C108.56 101.308 107.552 101.91 107.426 103.674H111.71C111.752 102.008 110.772 101.308 109.68 101.308ZM117.879 102.512C117.879 101.336 118.985 100.468 120.539 100.468C121.883 100.468 122.919 101.112 123.227 102.092L122.443 102.4C122.149 101.686 121.463 101.308 120.511 101.308C119.475 101.308 118.803 101.742 118.803 102.428C118.803 103.044 119.209 103.422 120.091 103.604L121.071 103.8C122.695 104.122 123.451 104.822 123.451 105.928C123.451 107.216 122.303 108.112 120.651 108.112C119.153 108.112 118.103 107.524 117.599 106.404L118.411 106.068C118.761 106.852 119.531 107.272 120.623 107.272C121.771 107.272 122.527 106.768 122.527 106.012C122.527 105.312 122.135 104.934 121.155 104.724L119.951 104.472C118.593 104.192 117.879 103.506 117.879 102.512ZM129.945 108L127.215 104.318L126.305 105.186V108H125.353V97.64H126.305V104.066L129.833 100.58H131.093L127.859 103.688L131.149 108H129.945ZM135.272 100.468C136.238 100.468 136.938 101.112 136.938 102.372V103.1L136.07 103.268V102.54C136.07 101.798 135.818 101.308 135.062 101.308C134.208 101.308 133.564 101.938 133.564 103.436V108H132.612V100.58H133.564V101.504C133.956 100.804 134.614 100.468 135.272 100.468ZM139.295 99.236C138.833 99.236 138.455 98.872 138.455 98.396C138.455 97.92 138.833 97.556 139.295 97.556C139.757 97.556 140.135 97.92 140.135 98.396C140.135 98.872 139.757 99.236 139.295 99.236ZM138.819 108V100.58H139.771V108H138.819ZM146.915 100.58H147.895L144.983 108H144.143L141.231 100.58H142.267L144.591 106.95L146.915 100.58ZM156.317 100.482C158.207 100.482 159.481 102.064 159.481 104.22C159.481 106.502 158.193 108.112 156.205 108.112C155.169 108.112 154.329 107.594 153.881 106.656V110.94H152.929V100.58H153.881V101.966C154.371 101.014 155.351 100.482 156.317 100.482ZM156.205 107.272C157.591 107.272 158.501 106.208 158.501 104.262C158.501 102.386 157.591 101.322 156.219 101.322C154.735 101.322 153.881 102.428 153.881 104.248C153.881 106.18 154.721 107.272 156.205 107.272ZM166.487 105.9L167.187 106.292C166.837 107.188 165.913 108.112 164.261 108.112C162.175 108.112 160.943 106.558 160.943 104.192C160.943 102.022 162.231 100.468 164.163 100.468C165.759 100.468 167.131 101.616 167.131 103.632L167.103 104.458H161.909C161.993 106.432 162.931 107.272 164.359 107.272C165.479 107.272 166.137 106.628 166.487 105.9ZM164.163 101.308C163.043 101.308 162.035 101.91 161.909 103.674H166.193C166.235 102.008 165.255 101.308 164.163 101.308ZM171.803 100.468C172.769 100.468 173.469 101.112 173.469 102.372V103.1L172.601 103.268V102.54C172.601 101.798 172.349 101.308 171.593 101.308C170.739 101.308 170.095 101.938 170.095 103.436V108H169.143V100.58H170.095V101.504C170.487 100.804 171.145 100.468 171.803 100.468ZM174.713 102.512C174.713 101.336 175.819 100.468 177.373 100.468C178.717 100.468 179.753 101.112 180.061 102.092L179.277 102.4C178.983 101.686 178.297 101.308 177.345 101.308C176.309 101.308 175.637 101.742 175.637 102.428C175.637 103.044 176.043 103.422 176.925 103.604L177.905 103.8C179.529 104.122 180.285 104.822 180.285 105.928C180.285 107.216 179.137 108.112 177.485 108.112C175.987 108.112 174.937 107.524 174.433 106.404L175.245 106.068C175.595 106.852 176.365 107.272 177.457 107.272C178.605 107.272 179.361 106.768 179.361 106.012C179.361 105.312 178.969 104.934 177.989 104.724L176.785 104.472C175.427 104.192 174.713 103.506 174.713 102.512ZM184.987 108.112C183.153 108.112 181.683 106.6 181.683 104.276C181.683 101.98 183.139 100.468 184.987 100.468C186.835 100.468 188.291 101.98 188.291 104.276C188.291 106.6 186.821 108.112 184.987 108.112ZM184.987 107.272C186.261 107.272 187.311 106.264 187.311 104.276C187.311 102.302 186.247 101.308 184.987 101.308C183.727 101.308 182.663 102.302 182.663 104.276C182.663 106.264 183.713 107.272 184.987 107.272ZM193.333 100.468C194.817 100.468 195.685 101.378 195.685 103.044V108H194.733V103.184C194.733 101.84 194.117 101.336 193.081 101.336C191.779 101.336 191.177 102.344 191.177 103.828V108H190.225V100.58H191.177V101.728C191.625 100.916 192.437 100.468 193.333 100.468ZM200.301 107.972C200.077 108.028 199.895 108.056 199.685 108.056C198.523 108.056 197.977 107.328 197.977 106.236V97.64H198.929V106.236C198.929 106.866 199.265 107.188 199.853 107.188C200.007 107.188 200.161 107.174 200.301 107.132V107.972ZM201.786 97.696H203.242V99.124H201.786V97.696ZM202.038 108V100.58H202.99V108H202.038ZM212.065 101.364H210.469V101.63C210.833 102.078 211.029 102.638 211.029 103.184C211.029 104.542 210.049 105.928 207.963 105.928H207.641C206.801 105.928 206.199 106.25 206.199 106.74C206.199 107.118 206.493 107.384 207.109 107.384H210.119C211.323 107.384 211.939 107.972 211.939 108.896C211.939 110.366 210.245 111.136 208.159 111.136C206.283 111.136 204.981 110.534 204.533 109.232L205.303 108.882C205.821 110.1 206.913 110.338 208.159 110.338C209.699 110.338 210.987 109.876 210.987 108.98C210.987 108.56 210.763 108.252 210.091 108.252H206.899C205.863 108.252 205.247 107.762 205.247 106.992C205.247 106.334 205.793 105.76 206.703 105.522C205.723 105.13 205.177 104.094 205.177 103.184C205.177 101.854 206.171 100.468 208.131 100.468C208.901 100.468 209.489 100.72 209.937 101.098V100.58H212.065V101.364ZM208.117 105.144C209.433 105.144 210.091 104.234 210.091 103.184C210.091 102.148 209.433 101.28 208.117 101.28C206.787 101.28 206.115 102.162 206.115 103.184C206.115 104.22 206.787 105.144 208.117 105.144ZM218.057 105.9L218.757 106.292C218.407 107.188 217.483 108.112 215.831 108.112C213.745 108.112 212.513 106.558 212.513 104.192C212.513 102.022 213.801 100.468 215.733 100.468C217.329 100.468 218.701 101.616 218.701 103.632L218.673 104.458H213.479C213.563 106.432 214.501 107.272 215.929 107.272C217.049 107.272 217.707 106.628 218.057 105.9ZM215.733 101.308C214.613 101.308 213.605 101.91 213.479 103.674H217.763C217.805 102.008 216.825 101.308 215.733 101.308ZM227.124 108.112C225.29 108.112 223.82 106.6 223.82 104.276C223.82 101.98 225.276 100.468 227.124 100.468C228.972 100.468 230.428 101.98 230.428 104.276C230.428 106.6 228.958 108.112 227.124 108.112ZM227.124 107.272C228.398 107.272 229.448 106.264 229.448 104.276C229.448 102.302 228.384 101.308 227.124 101.308C225.864 101.308 224.8 102.302 224.8 104.276C224.8 106.264 225.85 107.272 227.124 107.272ZM235.75 100.482C237.64 100.482 238.914 102.064 238.914 104.22C238.914 106.502 237.626 108.112 235.638 108.112C234.602 108.112 233.762 107.594 233.314 106.656V110.94H232.362V100.58H233.314V101.966C233.804 101.014 234.784 100.482 235.75 100.482ZM235.638 107.272C237.024 107.272 237.934 106.208 237.934 104.262C237.934 102.386 237.024 101.322 235.652 101.322C234.168 101.322 233.314 102.428 233.314 104.248C233.314 106.18 234.154 107.272 235.638 107.272ZM244.24 100.482C246.13 100.482 247.404 102.064 247.404 104.22C247.404 106.502 246.116 108.112 244.128 108.112C243.092 108.112 242.252 107.594 241.804 106.656V110.94H240.852V100.58H241.804V101.966C242.294 101.014 243.274 100.482 244.24 100.482ZM244.128 107.272C245.514 107.272 246.424 106.208 246.424 104.262C246.424 102.386 245.514 101.322 244.142 101.322C242.658 101.322 241.804 102.428 241.804 104.248C241.804 106.18 242.644 107.272 244.128 107.272ZM251.667 107.972C251.443 108.028 251.261 108.056 251.051 108.056C249.889 108.056 249.343 107.328 249.343 106.236V97.64H250.295V106.236C250.295 106.866 250.631 107.188 251.219 107.188C251.373 107.188 251.527 107.174 251.667 107.132V107.972ZM258.044 100.58H259.024L255.762 109.022C255.272 110.282 254.726 111.08 253.578 111.08C253.074 111.08 252.612 110.898 252.262 110.576L252.682 109.89C252.962 110.142 253.228 110.254 253.55 110.254C254.068 110.254 254.432 110.03 254.796 109.176L255.23 108.126L252.444 100.58H253.48L255.72 107.006L258.044 100.58ZM259.779 102.512C259.779 101.336 260.885 100.468 262.439 100.468C263.783 100.468 264.819 101.112 265.127 102.092L264.343 102.4C264.049 101.686 263.363 101.308 262.411 101.308C261.375 101.308 260.703 101.742 260.703 102.428C260.703 103.044 261.109 103.422 261.991 103.604L262.971 103.8C264.595 104.122 265.351 104.822 265.351 105.928C265.351 107.216 264.203 108.112 262.551 108.112C261.053 108.112 260.003 107.524 259.499 106.404L260.311 106.068C260.661 106.852 261.431 107.272 262.523 107.272C263.671 107.272 264.427 106.768 264.427 106.012C264.427 105.312 264.035 104.934 263.055 104.724L261.851 104.472C260.493 104.192 259.779 103.506 259.779 102.512ZM270.333 100.468C271.817 100.468 272.685 101.378 272.685 103.044V108H271.733V103.184C271.733 101.84 271.117 101.336 270.081 101.336C268.779 101.336 268.177 102.344 268.177 103.828V108H267.225V100.58H268.177V101.728C268.625 100.916 269.437 100.468 270.333 100.468ZM275.453 99.236C274.991 99.236 274.613 98.872 274.613 98.396C274.613 97.92 274.991 97.556 275.453 97.556C275.915 97.556 276.293 97.92 276.293 98.396C276.293 98.872 275.915 99.236 275.453 99.236ZM274.977 108V100.58H275.929V108H274.977ZM281.449 100.468C282.933 100.468 283.801 101.378 283.801 103.044V108H282.849V103.184C282.849 101.84 282.233 101.336 281.197 101.336C279.895 101.336 279.293 102.344 279.293 103.828V108H278.341V100.58H279.293V101.728C279.741 100.916 280.553 100.468 281.449 100.468ZM292.757 101.364H291.161V101.63C291.525 102.078 291.721 102.638 291.721 103.184C291.721 104.542 290.741 105.928 288.655 105.928H288.333C287.493 105.928 286.891 106.25 286.891 106.74C286.891 107.118 287.185 107.384 287.801 107.384H290.811C292.015 107.384 292.631 107.972 292.631 108.896C292.631 110.366 290.937 111.136 288.851 111.136C286.975 111.136 285.673 110.534 285.225 109.232L285.995 108.882C286.513 110.1 287.605 110.338 288.851 110.338C290.391 110.338 291.679 109.876 291.679 108.98C291.679 108.56 291.455 108.252 290.783 108.252H287.591C286.555 108.252 285.939 107.762 285.939 106.992C285.939 106.334 286.485 105.76 287.395 105.522C286.415 105.13 285.869 104.094 285.869 103.184C285.869 101.854 286.863 100.468 288.823 100.468C289.593 100.468 290.181 100.72 290.629 101.098V100.58H292.757V101.364ZM288.809 105.144C290.125 105.144 290.783 104.234 290.783 103.184C290.783 102.148 290.125 101.28 288.809 101.28C287.479 101.28 286.807 102.162 286.807 103.184C286.807 104.22 287.479 105.144 288.809 105.144ZM298.749 105.9L299.449 106.292C299.099 107.188 298.175 108.112 296.523 108.112C294.437 108.112 293.205 106.558 293.205 104.192C293.205 102.022 294.493 100.468 296.425 100.468C298.021 100.468 299.393 101.616 299.393 103.632L299.365 104.458H294.171C294.255 106.432 295.193 107.272 296.621 107.272C297.741 107.272 298.399 106.628 298.749 105.9ZM296.425 101.308C295.305 101.308 294.297 101.91 294.171 103.674H298.455C298.497 102.008 297.517 101.308 296.425 101.308ZM304.065 100.468C305.031 100.468 305.731 101.112 305.731 102.372V103.1L304.863 103.268V102.54C304.863 101.798 304.611 101.308 303.855 101.308C303.001 101.308 302.357 101.938 302.357 103.436V108H301.405V100.58H302.357V101.504C302.749 100.804 303.407 100.468 304.065 100.468ZM305.601 106.432H307.113V108H305.601V106.432ZM314.874 96.8H315.798C314.79 99.04 314.286 101.238 314.286 103.478C314.286 105.718 314.79 107.874 315.798 110.1H314.874C313.824 107.874 313.306 105.732 313.306 103.478C313.306 101.224 313.838 99.026 314.874 96.8ZM324.083 97.64H325.063V108H324.083V103.24H318.819V108H317.839V97.64H318.819V102.316H324.083V97.64ZM332.573 105.9L333.273 106.292C332.923 107.188 331.999 108.112 330.347 108.112C328.261 108.112 327.029 106.558 327.029 104.192C327.029 102.022 328.317 100.468 330.249 100.468C331.845 100.468 333.217 101.616 333.217 103.632L333.189 104.458H327.995C328.079 106.432 329.017 107.272 330.445 107.272C331.565 107.272 332.223 106.628 332.573 105.9ZM330.249 101.308C329.129 101.308 328.121 101.91 327.995 103.674H332.279C332.321 102.008 331.341 101.308 330.249 101.308ZM338.337 100.468C339.821 100.468 340.689 101.378 340.689 103.044V108H339.737V103.184C339.737 101.84 339.121 101.336 338.085 101.336C336.783 101.336 336.181 102.344 336.181 103.828V108H335.229V100.58H336.181V101.728C336.629 100.916 337.441 100.468 338.337 100.468ZM348.105 97.64H349.057V108H348.105V106.614C347.615 107.566 346.635 108.098 345.669 108.098C343.779 108.098 342.505 106.516 342.505 104.36C342.505 102.078 343.793 100.468 345.781 100.468C346.817 100.468 347.657 100.986 348.105 101.924V97.64ZM345.767 107.258C347.251 107.258 348.105 106.152 348.105 104.332C348.105 102.4 347.265 101.308 345.781 101.308C344.395 101.308 343.485 102.372 343.485 104.318C343.485 106.194 344.395 107.258 345.767 107.258ZM356.135 100.58H357.115L354.203 108H353.363L350.451 100.58H351.487L353.811 106.95L356.135 100.58ZM363.362 105.9L364.062 106.292C363.712 107.188 362.788 108.112 361.136 108.112C359.05 108.112 357.818 106.558 357.818 104.192C357.818 102.022 359.106 100.468 361.038 100.468C362.634 100.468 364.006 101.616 364.006 103.632L363.978 104.458H358.784C358.868 106.432 359.806 107.272 361.234 107.272C362.354 107.272 363.012 106.628 363.362 105.9ZM361.038 101.308C359.918 101.308 358.91 101.91 358.784 103.674H363.068C363.11 102.008 362.13 101.308 361.038 101.308ZM369.126 100.468C370.61 100.468 371.478 101.378 371.478 103.044V108H370.526V103.184C370.526 101.84 369.91 101.336 368.874 101.336C367.572 101.336 366.97 102.344 366.97 103.828V108H366.018V100.58H366.97V101.728C367.418 100.916 368.23 100.468 369.126 100.468ZM378.894 97.64H379.846V108H378.894V106.614C378.404 107.566 377.424 108.098 376.458 108.098C374.568 108.098 373.294 106.516 373.294 104.36C373.294 102.078 374.582 100.468 376.57 100.468C377.606 100.468 378.446 100.986 378.894 101.924V97.64ZM376.556 107.258C378.04 107.258 378.894 106.152 378.894 104.332C378.894 102.4 378.054 101.308 376.57 101.308C375.184 101.308 374.274 102.372 374.274 104.318C374.274 106.194 375.184 107.258 376.556 107.258ZM387.26 105.9L387.96 106.292C387.61 107.188 386.686 108.112 385.034 108.112C382.948 108.112 381.716 106.558 381.716 104.192C381.716 102.022 383.004 100.468 384.936 100.468C386.532 100.468 387.904 101.616 387.904 103.632L387.876 104.458H382.682C382.766 106.432 383.704 107.272 385.132 107.272C386.252 107.272 386.91 106.628 387.26 105.9ZM384.936 101.308C383.816 101.308 382.808 101.91 382.682 103.674H386.966C387.008 102.008 386.028 101.308 384.936 101.308ZM392.241 107.972C392.017 108.028 391.835 108.056 391.625 108.056C390.463 108.056 389.917 107.328 389.917 106.236V97.64H390.869V106.236C390.869 106.866 391.205 107.188 391.793 107.188C391.947 107.188 392.101 107.174 392.241 107.132V107.972ZM393.613 102.512C393.613 101.336 394.719 100.468 396.273 100.468C397.617 100.468 398.653 101.112 398.961 102.092L398.177 102.4C397.883 101.686 397.197 101.308 396.245 101.308C395.209 101.308 394.537 101.742 394.537 102.428C394.537 103.044 394.943 103.422 395.825 103.604L396.805 103.8C398.429 104.122 399.185 104.822 399.185 105.928C399.185 107.216 398.037 108.112 396.385 108.112C394.887 108.112 393.837 107.524 393.333 106.404L394.145 106.068C394.495 106.852 395.265 107.272 396.357 107.272C397.505 107.272 398.261 106.768 398.261 106.012C398.261 105.312 397.869 104.934 396.889 104.724L395.685 104.472C394.327 104.192 393.613 103.506 393.613 102.512ZM406.127 105.9L406.827 106.292C406.477 107.188 405.553 108.112 403.901 108.112C401.815 108.112 400.583 106.558 400.583 104.192C400.583 102.022 401.871 100.468 403.803 100.468C405.399 100.468 406.771 101.616 406.771 103.632L406.743 104.458H401.549C401.633 106.432 402.571 107.272 403.999 107.272C405.119 107.272 405.777 106.628 406.127 105.9ZM403.803 101.308C402.683 101.308 401.675 101.91 401.549 103.674H405.833C405.875 102.008 404.895 101.308 403.803 101.308ZM411.444 100.468C412.41 100.468 413.11 101.112 413.11 102.372V103.1L412.242 103.268V102.54C412.242 101.798 411.99 101.308 411.234 101.308C410.38 101.308 409.736 101.938 409.736 103.436V108H408.784V100.58H409.736V101.504C410.128 100.804 410.786 100.468 411.444 100.468ZM421.989 100.482C423.879 100.482 425.153 102.064 425.153 104.22C425.153 106.502 423.865 108.112 421.877 108.112C420.841 108.112 420.001 107.594 419.553 106.656V108H418.601V97.64H419.553V101.966C420.043 101.014 421.023 100.482 421.989 100.482ZM421.877 107.272C423.263 107.272 424.173 106.208 424.173 104.262C424.173 102.386 423.263 101.322 421.891 101.322C420.407 101.322 419.553 102.428 419.553 104.248C419.553 106.18 420.393 107.272 421.877 107.272ZM429.415 107.972C429.191 108.028 429.009 108.056 428.799 108.056C427.637 108.056 427.091 107.328 427.091 106.236V97.64H428.043V106.236C428.043 106.866 428.379 107.188 428.967 107.188C429.121 107.188 429.275 107.174 429.415 107.132V107.972ZM431.627 99.236C431.165 99.236 430.787 98.872 430.787 98.396C430.787 97.92 431.165 97.556 431.627 97.556C432.089 97.556 432.467 97.92 432.467 98.396C432.467 98.872 432.089 99.236 431.627 99.236ZM431.151 108V100.58H432.103V108H431.151ZM437.175 100.468C438.141 100.468 438.841 101.112 438.841 102.372V103.1L437.973 103.268V102.54C437.973 101.798 437.721 101.308 436.965 101.308C436.111 101.308 435.467 101.938 435.467 103.436V108H434.515V100.58H435.467V101.504C435.859 100.804 436.517 100.468 437.175 100.468ZM444.052 97.696H445.508V99.124H444.052V97.696ZM444.304 108V100.58H445.256V108H444.304ZM452.287 108L449.557 104.318L448.647 105.186V108H447.695V97.64H448.647V104.066L452.175 100.58H453.435L450.201 103.688L453.491 108H452.287ZM459.711 108L456.981 104.318L456.071 105.186V108H455.119V97.64H456.071V104.066L459.599 100.58H460.859L457.625 103.688L460.915 108H459.711ZM467.022 105.9L467.722 106.292C467.372 107.188 466.448 108.112 464.796 108.112C462.71 108.112 461.478 106.558 461.478 104.192C461.478 102.022 462.766 100.468 464.698 100.468C466.294 100.468 467.666 101.616 467.666 103.632L467.638 104.458H462.444C462.528 106.432 463.466 107.272 464.894 107.272C466.014 107.272 466.672 106.628 467.022 105.9ZM464.698 101.308C463.578 101.308 462.57 101.91 462.444 103.674H466.728C466.77 102.008 465.79 101.308 464.698 101.308ZM92.62 122.482C94.51 122.482 95.784 124.064 95.784 126.22C95.784 128.502 94.496 130.112 92.508 130.112C91.472 130.112 90.632 129.594 90.184 128.656V130H89.232V119.64H90.184V123.966C90.674 123.014 91.654 122.482 92.62 122.482ZM92.508 129.272C93.894 129.272 94.804 128.208 94.804 126.262C94.804 124.386 93.894 123.322 92.522 123.322C91.038 123.322 90.184 124.428 90.184 126.248C90.184 128.18 91.024 129.272 92.508 129.272ZM102.79 127.9L103.49 128.292C103.14 129.188 102.216 130.112 100.564 130.112C98.4776 130.112 97.2456 128.558 97.2456 126.192C97.2456 124.022 98.5336 122.468 100.466 122.468C102.062 122.468 103.434 123.616 103.434 125.632L103.406 126.458H98.2116C98.2956 128.432 99.2336 129.272 100.662 129.272C101.782 129.272 102.44 128.628 102.79 127.9ZM100.466 123.308C99.3456 123.308 98.3376 123.91 98.2116 125.674H102.496C102.538 124.008 101.558 123.308 100.466 123.308ZM105.082 124.512C105.082 123.336 106.188 122.468 107.742 122.468C109.086 122.468 110.122 123.112 110.43 124.092L109.646 124.4C109.352 123.686 108.666 123.308 107.714 123.308C106.678 123.308 106.006 123.742 106.006 124.428C106.006 125.044 106.412 125.422 107.294 125.604L108.274 125.8C109.898 126.122 110.654 126.822 110.654 127.928C110.654 129.216 109.506 130.112 107.854 130.112C106.356 130.112 105.306 129.524 104.802 128.404L105.614 128.068C105.964 128.852 106.734 129.272 107.826 129.272C108.974 129.272 109.73 128.768 109.73 128.012C109.73 127.312 109.338 126.934 108.358 126.724L107.154 126.472C105.796 126.192 105.082 125.506 105.082 124.512ZM117.124 122.58H118.104L115.192 130H114.352L111.44 122.58H112.476L114.8 128.95L117.124 122.58ZM124.812 130H123.944C123.832 129.594 123.748 129.104 123.748 128.544C123.37 129.412 122.404 130.112 121.2 130.112C119.884 130.112 118.89 129.258 118.89 127.984C118.89 126.458 120.262 125.66 121.788 125.66C122.39 125.66 122.978 125.73 123.58 125.94V124.96C123.58 123.994 122.992 123.336 121.844 123.336C120.92 123.336 120.136 123.742 119.744 124.876L118.904 124.624C119.464 123.056 120.598 122.468 121.9 122.468C123.734 122.468 124.504 123.574 124.504 124.848V127.9C124.504 128.74 124.644 129.496 124.812 130ZM123.58 126.92V126.752C123.006 126.514 122.418 126.444 121.844 126.444C120.724 126.444 119.842 126.948 119.842 127.928C119.842 128.824 120.472 129.3 121.368 129.3C122.334 129.3 123.58 128.726 123.58 126.92ZM129.571 122.468C130.537 122.468 131.237 123.112 131.237 124.372V125.1L130.369 125.268V124.54C130.369 123.798 130.117 123.308 129.361 123.308C128.507 123.308 127.863 123.938 127.863 125.436V130H126.911V122.58H127.863V123.504C128.255 122.804 128.913 122.468 129.571 122.468ZM134.465 128.152C134.465 129.02 134.983 129.272 135.445 129.272C135.893 129.272 136.187 129.104 136.537 128.74L137.041 129.3C136.551 129.874 136.019 130.112 135.361 130.112C134.353 130.112 133.513 129.44 133.513 128.124V123.364H132.113V122.58H133.513V120.984L134.465 120.424V122.58H136.873V123.364H134.465V128.152ZM139.313 128.32C139.901 128.32 140.349 128.824 140.349 129.776C140.349 130.7 139.971 131.624 138.753 132.576L138.417 132.184C139.075 131.596 139.705 131.008 139.593 130.028C139.523 130.042 139.425 130.056 139.313 130.056C138.809 130.056 138.417 129.734 138.417 129.188C138.417 128.698 138.795 128.32 139.313 128.32ZM147.549 128.152C147.549 129.02 148.067 129.272 148.529 129.272C148.977 129.272 149.271 129.104 149.621 128.74L150.125 129.3C149.635 129.874 149.103 130.112 148.445 130.112C147.437 130.112 146.597 129.44 146.597 128.124V123.364H145.197V122.58H146.597V120.984L147.549 120.424V122.58H149.957V123.364H147.549V128.152ZM154.413 122.468C155.379 122.468 156.079 123.112 156.079 124.372V125.1L155.211 125.268V124.54C155.211 123.798 154.959 123.308 154.203 123.308C153.349 123.308 152.705 123.938 152.705 125.436V130H151.753V122.58H152.705V123.504C153.097 122.804 153.755 122.468 154.413 122.468ZM162.604 127.9L163.304 128.292C162.954 129.188 162.03 130.112 160.378 130.112C158.292 130.112 157.06 128.558 157.06 126.192C157.06 124.022 158.348 122.468 160.28 122.468C161.876 122.468 163.248 123.616 163.248 125.632L163.22 126.458H158.026C158.11 128.432 159.048 129.272 160.476 129.272C161.596 129.272 162.254 128.628 162.604 127.9ZM160.28 123.308C159.16 123.308 158.152 123.91 158.026 125.674H162.31C162.352 124.008 161.372 123.308 160.28 123.308ZM168.369 122.468C169.853 122.468 170.721 123.378 170.721 125.044V130H169.769V125.184C169.769 123.84 169.153 123.336 168.117 123.336C166.815 123.336 166.213 124.344 166.213 125.828V130H165.261V122.58H166.213V123.728C166.661 122.916 167.473 122.468 168.369 122.468ZM179.677 123.364H178.081V123.63C178.445 124.078 178.641 124.638 178.641 125.184C178.641 126.542 177.661 127.928 175.575 127.928H175.253C174.413 127.928 173.811 128.25 173.811 128.74C173.811 129.118 174.105 129.384 174.721 129.384H177.731C178.935 129.384 179.551 129.972 179.551 130.896C179.551 132.366 177.857 133.136 175.771 133.136C173.895 133.136 172.593 132.534 172.145 131.232L172.915 130.882C173.433 132.1 174.525 132.338 175.771 132.338C177.311 132.338 178.599 131.876 178.599 130.98C178.599 130.56 178.375 130.252 177.703 130.252H174.511C173.475 130.252 172.859 129.762 172.859 128.992C172.859 128.334 173.405 127.76 174.315 127.522C173.335 127.13 172.789 126.094 172.789 125.184C172.789 123.854 173.783 122.468 175.743 122.468C176.513 122.468 177.101 122.72 177.549 123.098V122.58H179.677V123.364ZM175.729 127.144C177.045 127.144 177.703 126.234 177.703 125.184C177.703 124.148 177.045 123.28 175.729 123.28C174.399 123.28 173.727 124.162 173.727 125.184C173.727 126.22 174.399 127.144 175.729 127.144ZM185.668 127.9L186.368 128.292C186.018 129.188 185.094 130.112 183.442 130.112C181.356 130.112 180.124 128.558 180.124 126.192C180.124 124.022 181.412 122.468 183.344 122.468C184.94 122.468 186.312 123.616 186.312 125.632L186.284 126.458H181.09C181.174 128.432 182.112 129.272 183.54 129.272C184.66 129.272 185.318 128.628 185.668 127.9ZM183.344 123.308C182.224 123.308 181.216 123.91 181.09 125.674H185.374C185.416 124.008 184.436 123.308 183.344 123.308ZM190.985 122.468C191.951 122.468 192.651 123.112 192.651 124.372V125.1L191.783 125.268V124.54C191.783 123.798 191.531 123.308 190.775 123.308C189.921 123.308 189.277 123.938 189.277 125.436V130H188.325V122.58H189.277V123.504C189.669 122.804 190.327 122.468 190.985 122.468ZM203.238 119.64H204.19V130H203.238V128.614C202.748 129.566 201.768 130.098 200.802 130.098C198.912 130.098 197.638 128.516 197.638 126.36C197.638 124.078 198.926 122.468 200.914 122.468C201.95 122.468 202.79 122.986 203.238 123.924V119.64ZM200.9 129.258C202.384 129.258 203.238 128.152 203.238 126.332C203.238 124.4 202.398 123.308 200.914 123.308C199.528 123.308 198.618 124.372 198.618 126.318C198.618 128.194 199.528 129.258 200.9 129.258ZM210.848 122.58H211.8V130H210.848V128.866C210.4 129.664 209.616 130.112 208.706 130.112C207.25 130.112 206.368 129.174 206.368 127.564V122.58H207.32V127.48C207.32 128.698 207.936 129.258 208.972 129.258C210.288 129.258 210.848 128.208 210.848 126.752V122.58ZM220.869 122.468C222.353 122.468 223.221 123.378 223.221 125.044V130H222.269V125.184C222.269 123.84 221.653 123.336 220.617 123.336C219.315 123.336 218.713 124.344 218.713 125.828V130H217.761V119.64H218.713V123.728C219.161 122.916 219.973 122.468 220.869 122.468ZM225.933 121.236C225.471 121.236 225.093 120.872 225.093 120.396C225.093 119.92 225.471 119.556 225.933 119.556C226.395 119.556 226.773 119.92 226.773 120.396C226.773 120.872 226.395 121.236 225.933 121.236ZM224.813 133.038C224.561 133.038 224.323 132.996 224.085 132.926L224.169 132.086C224.365 132.156 224.547 132.17 224.673 132.17C225.331 132.17 225.457 131.722 225.457 131.078V122.58H226.409V131.134C226.409 132.394 225.863 133.038 224.813 133.038ZM233.889 127.9L234.589 128.292C234.239 129.188 233.315 130.112 231.663 130.112C229.577 130.112 228.345 128.558 228.345 126.192C228.345 124.022 229.633 122.468 231.565 122.468C233.161 122.468 234.533 123.616 234.533 125.632L234.505 126.458H229.311C229.395 128.432 230.333 129.272 231.761 129.272C232.881 129.272 233.539 128.628 233.889 127.9ZM231.565 123.308C230.445 123.308 229.437 123.91 229.311 125.674H233.595C233.637 124.008 232.657 123.308 231.565 123.308ZM238.87 129.972C238.646 130.028 238.464 130.056 238.254 130.056C237.092 130.056 236.546 129.328 236.546 128.236V119.64H237.498V128.236C237.498 128.866 237.834 129.188 238.422 129.188C238.576 129.188 238.73 129.174 238.87 129.132V129.972ZM243.994 122.482C245.884 122.482 247.158 124.064 247.158 126.22C247.158 128.502 245.87 130.112 243.882 130.112C242.846 130.112 242.006 129.594 241.558 128.656V132.94H240.606V122.58H241.558V123.966C242.048 123.014 243.028 122.482 243.994 122.482ZM243.882 129.272C245.268 129.272 246.178 128.208 246.178 126.262C246.178 124.386 245.268 123.322 243.896 123.322C242.412 123.322 241.558 124.428 241.558 126.248C241.558 128.18 242.398 129.272 243.882 129.272ZM252.315 124.512C252.315 123.336 253.421 122.468 254.975 122.468C256.319 122.468 257.355 123.112 257.663 124.092L256.879 124.4C256.585 123.686 255.899 123.308 254.947 123.308C253.911 123.308 253.239 123.742 253.239 124.428C253.239 125.044 253.645 125.422 254.527 125.604L255.507 125.8C257.131 126.122 257.887 126.822 257.887 127.928C257.887 129.216 256.739 130.112 255.087 130.112C253.589 130.112 252.539 129.524 252.035 128.404L252.847 128.068C253.197 128.852 253.967 129.272 255.059 129.272C256.207 129.272 256.963 128.768 256.963 128.012C256.963 127.312 256.571 126.934 255.591 126.724L254.387 126.472C253.029 126.192 252.315 125.506 252.315 124.512ZM262.133 121.796C261.223 121.796 260.481 121.124 260.481 120.2C260.481 119.276 261.223 118.604 262.133 118.604C263.043 118.604 263.785 119.276 263.785 120.2C263.785 121.124 263.043 121.796 262.133 121.796ZM262.133 119.248C261.601 119.248 261.181 119.584 261.181 120.2C261.181 120.83 261.601 121.152 262.133 121.152C262.665 121.152 263.085 120.83 263.085 120.2C263.085 119.584 262.665 119.248 262.133 119.248ZM265.017 130H264.149C264.037 129.594 263.953 129.104 263.953 128.544C263.575 129.412 262.609 130.112 261.405 130.112C260.089 130.112 259.095 129.258 259.095 127.984C259.095 126.458 260.467 125.66 261.993 125.66C262.595 125.66 263.183 125.73 263.785 125.94V124.96C263.785 123.994 263.197 123.336 262.049 123.336C261.125 123.336 260.341 123.742 259.949 124.876L259.109 124.624C259.669 123.056 260.803 122.468 262.105 122.468C263.939 122.468 264.709 123.574 264.709 124.848V127.9C264.709 128.74 264.849 129.496 265.017 130ZM263.785 126.92V126.752C263.211 126.514 262.623 126.444 262.049 126.444C260.929 126.444 260.047 126.948 260.047 127.928C260.047 128.824 260.677 129.3 261.573 129.3C262.539 129.3 263.785 128.726 263.785 126.92ZM275.318 130L272.588 126.318L271.678 127.186V130H270.726V119.64H271.678V126.066L275.206 122.58H276.466L273.232 125.688L276.522 130H275.318ZM283.091 130H282.223C282.111 129.594 282.027 129.104 282.027 128.544C281.649 129.412 280.683 130.112 279.479 130.112C278.163 130.112 277.169 129.258 277.169 127.984C277.169 126.458 278.541 125.66 280.067 125.66C280.669 125.66 281.257 125.73 281.859 125.94V124.96C281.859 123.994 281.271 123.336 280.123 123.336C279.199 123.336 278.415 123.742 278.023 124.876L277.183 124.624C277.743 123.056 278.877 122.468 280.179 122.468C282.013 122.468 282.783 123.574 282.783 124.848V127.9C282.783 128.74 282.923 129.496 283.091 130ZM281.859 126.92V126.752C281.285 126.514 280.697 126.444 280.123 126.444C279.003 126.444 278.121 126.948 278.121 127.928C278.121 128.824 278.751 129.3 279.647 129.3C280.613 129.3 281.859 128.726 281.859 126.92ZM288.298 122.468C289.782 122.468 290.65 123.378 290.65 125.044V130H289.698V125.184C289.698 123.84 289.082 123.336 288.046 123.336C286.744 123.336 286.142 124.344 286.142 125.828V130H285.19V122.58H286.142V123.728C286.59 122.916 287.402 122.468 288.298 122.468ZM301.648 119.64H302.6V130H301.648V128.614C301.158 129.566 300.178 130.098 299.212 130.098C297.322 130.098 296.048 128.516 296.048 126.36C296.048 124.078 297.336 122.468 299.324 122.468C300.36 122.468 301.2 122.986 301.648 123.924V119.64ZM299.31 129.258C300.794 129.258 301.648 128.152 301.648 126.332C301.648 124.4 300.808 123.308 299.324 123.308C297.938 123.308 297.028 124.372 297.028 126.318C297.028 128.194 297.938 129.258 299.31 129.258ZM309.258 122.58H310.21V130H309.258V128.866C308.81 129.664 308.026 130.112 307.116 130.112C305.66 130.112 304.778 129.174 304.778 127.564V122.58H305.73V127.48C305.73 128.698 306.346 129.258 307.382 129.258C308.698 129.258 309.258 128.208 309.258 126.752V122.58ZM320.763 130L318.033 126.318L317.123 127.186V130H316.171V119.64H317.123V126.066L320.651 122.58H321.911L318.677 125.688L321.967 130H320.763ZM325.835 130.112C324.001 130.112 322.531 128.6 322.531 126.276C322.531 123.98 323.987 122.468 325.835 122.468C327.683 122.468 329.139 123.98 329.139 126.276C329.139 128.6 327.669 130.112 325.835 130.112ZM325.835 129.272C327.109 129.272 328.159 128.264 328.159 126.276C328.159 124.302 327.095 123.308 325.835 123.308C324.575 123.308 323.511 124.302 323.511 126.276C323.511 128.264 324.561 129.272 325.835 129.272ZM334.181 122.468C335.665 122.468 336.533 123.378 336.533 125.044V130H335.581V125.184C335.581 123.84 334.965 123.336 333.929 123.336C332.627 123.336 332.025 124.344 332.025 125.828V130H331.073V122.58H332.025V123.728C332.473 122.916 333.285 122.468 334.181 122.468ZM340.309 128.152C340.309 129.02 340.827 129.272 341.289 129.272C341.737 129.272 342.031 129.104 342.381 128.74L342.885 129.3C342.395 129.874 341.863 130.112 341.205 130.112C340.197 130.112 339.357 129.44 339.357 128.124V123.364H337.957V122.58H339.357V120.984L340.309 120.424V122.58H342.717V123.364H340.309V128.152ZM349.769 130H348.901C348.789 129.594 348.705 129.104 348.705 128.544C348.327 129.412 347.361 130.112 346.157 130.112C344.841 130.112 343.847 129.258 343.847 127.984C343.847 126.458 345.219 125.66 346.745 125.66C347.347 125.66 347.935 125.73 348.537 125.94V124.96C348.537 123.994 347.949 123.336 346.801 123.336C345.877 123.336 345.093 123.742 344.701 124.876L343.861 124.624C344.421 123.056 345.555 122.468 346.857 122.468C348.691 122.468 349.461 123.574 349.461 124.848V127.9C349.461 128.74 349.601 129.496 349.769 130ZM348.537 126.92V126.752C347.963 126.514 347.375 126.444 346.801 126.444C345.681 126.444 344.799 126.948 344.799 127.928C344.799 128.824 345.429 129.3 346.325 129.3C347.291 129.3 348.537 128.726 348.537 126.92ZM356.488 130L353.758 126.318L352.848 127.186V130H351.896V119.64H352.848V126.066L356.376 122.58H357.636L354.402 125.688L357.692 130H356.488ZM360.502 128.152C360.502 129.02 361.02 129.272 361.482 129.272C361.93 129.272 362.224 129.104 362.574 128.74L363.078 129.3C362.588 129.874 362.056 130.112 361.398 130.112C360.39 130.112 359.55 129.44 359.55 128.124V123.364H358.15V122.58H359.55V120.984L360.502 120.424V122.58H362.91V123.364H360.502V128.152ZM369.35 127.9L370.05 128.292C369.7 129.188 368.776 130.112 367.124 130.112C365.038 130.112 363.806 128.558 363.806 126.192C363.806 124.022 365.094 122.468 367.026 122.468C368.622 122.468 369.994 123.616 369.994 125.632L369.966 126.458H364.772C364.856 128.432 365.794 129.272 367.222 129.272C368.342 129.272 369 128.628 369.35 127.9ZM367.026 123.308C365.906 123.308 364.898 123.91 364.772 125.674H369.056C369.098 124.008 368.118 123.308 367.026 123.308ZM378.417 130.112C376.583 130.112 375.113 128.6 375.113 126.276C375.113 123.98 376.569 122.468 378.417 122.468C380.265 122.468 381.721 123.98 381.721 126.276C381.721 128.6 380.251 130.112 378.417 130.112ZM378.417 129.272C379.691 129.272 380.741 128.264 380.741 126.276C380.741 124.302 379.677 123.308 378.417 123.308C377.157 123.308 376.093 124.302 376.093 126.276C376.093 128.264 377.143 129.272 378.417 129.272ZM383.291 124.512C383.291 123.336 384.397 122.468 385.951 122.468C387.295 122.468 388.331 123.112 388.639 124.092L387.855 124.4C387.561 123.686 386.875 123.308 385.923 123.308C384.887 123.308 384.215 123.742 384.215 124.428C384.215 125.044 384.621 125.422 385.503 125.604L386.483 125.8C388.107 126.122 388.863 126.822 388.863 127.928C388.863 129.216 387.715 130.112 386.063 130.112C384.565 130.112 383.515 129.524 383.011 128.404L383.823 128.068C384.173 128.852 384.943 129.272 386.035 129.272C387.183 129.272 387.939 128.768 387.939 128.012C387.939 127.312 387.547 126.934 386.567 126.724L385.363 126.472C384.005 126.192 383.291 125.506 383.291 124.512ZM390.373 124.512C390.373 123.336 391.479 122.468 393.033 122.468C394.377 122.468 395.413 123.112 395.721 124.092L394.937 124.4C394.643 123.686 393.957 123.308 393.005 123.308C391.969 123.308 391.297 123.742 391.297 124.428C391.297 125.044 391.703 125.422 392.585 125.604L393.565 125.8C395.189 126.122 395.945 126.822 395.945 127.928C395.945 129.216 394.797 130.112 393.145 130.112C391.647 130.112 390.597 129.524 390.093 128.404L390.905 128.068C391.255 128.852 392.025 129.272 393.117 129.272C394.265 129.272 395.021 128.768 395.021 128.012C395.021 127.312 394.629 126.934 393.649 126.724L392.445 126.472C391.087 126.192 390.373 125.506 390.373 124.512ZM398.383 130.084C397.879 130.084 397.487 129.706 397.487 129.188C397.487 128.67 397.879 128.292 398.383 128.292C398.887 128.292 399.279 128.67 399.279 129.188C399.279 129.706 398.887 130.084 398.383 130.084ZM405.611 132.1H404.687C405.695 129.86 406.199 127.662 406.199 125.422C406.199 123.182 405.695 121.026 404.687 118.8H405.611C406.661 121.026 407.179 123.168 407.179 125.422C407.179 127.676 406.647 129.874 405.611 132.1Z" fill="#2A2859"/>
<rect x="89" y="145" width="398" height="146" fill="white"/>
<path d="M105.332 162.208C105.332 159.976 107.366 158.536 109.724 158.536C111.902 158.536 113.378 159.472 114.044 161.146L112.856 161.632C112.316 160.354 111.11 159.652 109.724 159.652C107.888 159.652 106.592 160.588 106.592 162.064C106.592 163.306 107.33 164.062 108.896 164.368L110.984 164.764C113.036 165.16 114.548 166.258 114.548 168.256C114.548 170.308 112.82 172.144 109.904 172.144C107.6 172.144 105.872 171.352 104.936 169.372L106.088 168.904C106.988 170.668 108.482 171.028 109.94 171.028C112.118 171.028 113.288 169.768 113.288 168.328C113.288 166.726 112.208 166.258 110.588 165.952L108.68 165.592C106.826 165.25 105.332 164.224 105.332 162.208ZM122.96 172L119.45 167.266L118.28 168.382V172H117.056V158.68H118.28V166.942L122.816 162.46H124.436L120.278 166.456L124.508 172H122.96ZM129.609 162.316C130.851 162.316 131.751 163.144 131.751 164.764V165.7L130.635 165.916V164.98C130.635 164.026 130.311 163.396 129.339 163.396C128.241 163.396 127.413 164.206 127.413 166.132V172H126.189V162.46H127.413V163.648C127.917 162.748 128.763 162.316 129.609 162.316ZM134.581 160.732C133.987 160.732 133.501 160.264 133.501 159.652C133.501 159.04 133.987 158.572 134.581 158.572C135.175 158.572 135.661 159.04 135.661 159.652C135.661 160.264 135.175 160.732 134.581 160.732ZM133.969 172V162.46H135.193V172H133.969ZM144.178 162.46H145.438L141.694 172H140.614L136.87 162.46H138.202L141.19 170.65L144.178 162.46ZM155.542 162.316C157.45 162.316 158.566 163.486 158.566 165.628V172H157.342V165.808C157.342 164.08 156.55 163.432 155.218 163.432C153.544 163.432 152.77 164.728 152.77 166.636V172H151.546V158.68H152.77V163.936C153.346 162.892 154.39 162.316 155.542 162.316ZM167.828 169.3L168.728 169.804C168.278 170.956 167.09 172.144 164.966 172.144C162.284 172.144 160.7 170.146 160.7 167.104C160.7 164.314 162.356 162.316 164.84 162.316C166.892 162.316 168.656 163.792 168.656 166.384L168.62 167.446H161.942C162.05 169.984 163.256 171.064 165.092 171.064C166.532 171.064 167.378 170.236 167.828 169.3ZM164.84 163.396C163.4 163.396 162.104 164.17 161.942 166.438H167.45C167.504 164.296 166.244 163.396 164.84 163.396ZM174.464 162.316C175.706 162.316 176.606 163.144 176.606 164.764V165.7L175.49 165.916V164.98C175.49 164.026 175.166 163.396 174.194 163.396C173.096 163.396 172.268 164.206 172.268 166.132V172H171.044V162.46H172.268V163.648C172.772 162.748 173.618 162.316 174.464 162.316Z" fill="#808080"/>
<rect x="89" y="145" width="398" height="146" stroke="#2A2859" stroke-width="2"/>
<path d="M450.699 316.112C448.655 316.112 446.919 314.18 446.919 310.82C446.919 307.46 448.641 305.528 450.699 305.528C452.757 305.528 454.479 307.46 454.479 310.82C454.479 314.18 452.743 316.112 450.699 316.112ZM450.699 315.188C452.239 315.188 453.499 313.914 453.499 310.82C453.499 307.796 452.253 306.452 450.699 306.452C449.145 306.452 447.899 307.796 447.899 310.82C447.899 313.914 449.159 315.188 450.699 315.188ZM459.094 304.94H460.018L457.218 318.1H456.294L459.094 304.94ZM466.245 315.188H468.541V316H462.885V315.188H465.293V306.732L463.025 308.3V307.264L465.349 305.64H466.245V315.188ZM474.57 316.112C472.526 316.112 470.79 314.18 470.79 310.82C470.79 307.46 472.512 305.528 474.57 305.528C476.628 305.528 478.35 307.46 478.35 310.82C478.35 314.18 476.614 316.112 474.57 316.112ZM474.57 315.188C476.11 315.188 477.37 313.914 477.37 310.82C477.37 307.796 476.124 306.452 474.57 306.452C473.016 306.452 471.77 307.796 471.77 310.82C471.77 313.914 473.03 315.188 474.57 315.188ZM483.525 316.112C481.481 316.112 479.745 314.18 479.745 310.82C479.745 307.46 481.467 305.528 483.525 305.528C485.583 305.528 487.305 307.46 487.305 310.82C487.305 314.18 485.569 316.112 483.525 316.112ZM483.525 315.188C485.065 315.188 486.325 313.914 486.325 310.82C486.325 307.796 485.079 306.452 483.525 306.452C481.971 306.452 480.725 307.796 480.725 310.82C480.725 313.914 481.985 315.188 483.525 315.188Z" fill="#2A2859"/>
<path d="M620.362 76.18C616.6 76.18 613.864 73.534 613.864 69.286C613.864 65.146 616.762 62.5 620.164 62.5C622.45 62.5 624.214 63.526 625.168 65.506L623.332 66.532C622.738 65.254 621.568 64.516 620.164 64.516C618.04 64.516 616.06 66.01 616.06 69.268C616.06 72.526 617.914 74.254 620.524 74.254C621.676 74.254 622.558 74.02 623.35 73.588V70.42H618.94V68.548H625.204V74.668C623.89 75.676 622.18 76.18 620.362 76.18ZM628.871 64.876C628.079 64.876 627.449 64.264 627.449 63.454C627.449 62.644 628.079 62.032 628.871 62.032C629.663 62.032 630.275 62.644 630.275 63.454C630.275 64.264 629.663 64.876 628.871 64.876ZM627.863 76V66.46H629.879V76H627.863ZM643.521 62.68H645.537V76H643.521V74.272C642.783 75.604 641.631 76.144 640.533 76.144C638.229 76.144 636.573 74.164 636.573 71.266C636.573 68.26 638.247 66.262 640.767 66.262C641.847 66.262 642.927 66.748 643.521 67.918V62.68ZM641.073 74.38C642.531 74.38 643.521 73.39 643.521 71.158C643.521 68.944 642.549 67.882 641.073 67.882C639.687 67.882 638.661 68.998 638.661 71.158C638.661 73.3 639.687 74.38 641.073 74.38ZM647.947 62.32H650.413V64.75H647.947V62.32ZM648.181 76V66.46H650.197V76H648.181ZM657.885 66.244C659.829 66.244 660.981 67.504 660.981 69.574V76H658.965V69.898C658.965 68.584 658.335 67.99 657.237 67.99C655.815 67.99 655.095 68.98 655.095 70.834V76H653.079V66.46H655.095V67.828C655.743 66.82 656.697 66.244 657.885 66.244ZM670.813 73.048C670.813 74.11 671.461 74.434 672.127 74.434C672.649 74.434 673.063 74.218 673.477 73.804L674.341 75.1C673.621 75.82 672.829 76.162 671.803 76.162C670.147 76.162 668.797 75.154 668.797 73.174V68.026H667.123V66.46H668.797V64.336L670.813 63.418V66.46H674.179V68.026H670.813V73.048ZM677.095 64.876C676.303 64.876 675.673 64.264 675.673 63.454C675.673 62.644 676.303 62.032 677.095 62.032C677.887 62.032 678.499 62.644 678.499 63.454C678.499 64.264 677.887 64.876 677.095 64.876ZM676.087 76V66.46H678.103V76H676.087ZM684.818 75.946C684.44 76.054 684.062 76.108 683.666 76.108C681.848 76.108 680.984 75.028 680.984 73.282V62.68H683V73.138C683 73.966 683.486 74.344 684.224 74.344C684.404 74.344 684.602 74.326 684.818 74.272V75.946ZM691.871 66.262C694.175 66.262 695.831 68.224 695.831 71.14C695.831 74.128 694.157 76.144 691.637 76.144C690.539 76.144 689.477 75.658 688.865 74.47V76H686.849V62.68H688.865V68.17C689.603 66.82 690.773 66.262 691.871 66.262ZM691.331 74.488C692.717 74.488 693.743 73.372 693.743 71.23C693.743 69.088 692.717 67.99 691.331 67.99C689.855 67.99 688.865 68.998 688.865 71.212C688.865 73.426 689.855 74.488 691.331 74.488ZM705.637 76H703.783C703.639 75.514 703.549 74.938 703.513 74.2C703.063 75.19 702.055 76.162 700.399 76.162C698.671 76.162 697.447 74.992 697.447 73.336C697.447 71.266 699.283 70.24 701.335 70.24C701.983 70.24 702.595 70.294 703.261 70.474V69.574C703.261 68.548 702.613 67.882 701.443 67.882C700.345 67.882 699.571 68.476 699.211 69.592L697.501 69.07C698.185 67.054 699.823 66.244 701.533 66.244C704.071 66.244 705.223 67.738 705.223 69.556V73.246C705.223 74.38 705.403 75.388 705.637 76ZM703.261 72.058V71.842C702.685 71.644 702.127 71.572 701.533 71.572C700.345 71.572 699.427 72.112 699.427 73.156C699.427 74.038 700.057 74.596 701.011 74.596C701.983 74.596 703.261 74.02 703.261 72.058ZM714.064 76L711.166 71.626L710.068 72.706V76H708.052V62.68H710.068V70.42L713.92 66.46H716.404L712.498 70.312L716.476 76H714.064ZM724.072 72.994L725.44 73.786C724.9 74.974 723.64 76.162 721.462 76.162C718.636 76.162 716.926 74.074 716.926 71.14C716.926 68.242 718.78 66.244 721.318 66.244C723.568 66.244 725.422 67.756 725.422 70.456L725.386 71.644H718.906C719.014 73.66 720.004 74.524 721.588 74.524C722.758 74.524 723.568 73.894 724.072 72.994ZM721.318 67.828C720.094 67.828 719.068 68.476 718.906 70.204H723.46C723.478 68.512 722.434 67.828 721.318 67.828ZM738.221 66.244C740.129 66.244 741.227 67.486 741.227 69.484V76H739.211V69.826C739.211 68.566 738.617 67.99 737.573 67.99C736.169 67.99 735.467 68.962 735.467 70.834V76H733.451V69.826C733.451 68.566 732.857 67.99 731.813 67.99C730.427 67.99 729.725 68.962 729.725 70.834V76H727.709V66.46H729.725V67.81C730.373 66.784 731.309 66.244 732.461 66.244C733.919 66.244 734.873 66.946 735.287 68.134C735.935 66.874 736.943 66.244 738.221 66.244ZM750.531 72.994L751.899 73.786C751.359 74.974 750.099 76.162 747.921 76.162C745.095 76.162 743.385 74.074 743.385 71.14C743.385 68.242 745.239 66.244 747.777 66.244C750.027 66.244 751.881 67.756 751.881 70.456L751.845 71.644H745.365C745.473 73.66 746.463 74.524 748.047 74.524C749.217 74.524 750.027 73.894 750.531 72.994ZM747.777 67.828C746.553 67.828 745.527 68.476 745.365 70.204H749.919C749.937 68.512 748.893 67.828 747.777 67.828ZM758.002 75.946C757.624 76.054 757.246 76.108 756.85 76.108C755.032 76.108 754.168 75.028 754.168 73.282V62.68H756.184V73.138C756.184 73.966 756.67 74.344 757.408 74.344C757.588 74.344 757.786 74.326 758.002 74.272V75.946ZM766.07 62.68H768.086V76H766.07V74.272C765.332 75.604 764.18 76.144 763.082 76.144C760.778 76.144 759.122 74.164 759.122 71.266C759.122 68.26 760.796 66.262 763.316 66.262C764.396 66.262 765.476 66.748 766.07 67.918V62.68ZM763.622 74.38C765.08 74.38 766.07 73.39 766.07 71.158C766.07 68.944 765.098 67.882 763.622 67.882C762.236 67.882 761.21 68.998 761.21 71.158C761.21 73.3 762.236 74.38 763.622 74.38ZM770.497 62.32H772.963V64.75H770.497V62.32ZM770.731 76V66.46H772.747V76H770.731ZM780.435 66.244C782.379 66.244 783.531 67.504 783.531 69.574V76H781.515V69.898C781.515 68.584 780.885 67.99 779.787 67.99C778.365 67.99 777.645 68.98 777.645 70.834V76H775.629V66.46H777.645V67.828C778.293 66.82 779.247 66.244 780.435 66.244ZM795.419 68.026H793.421V68.242C793.745 68.692 793.907 69.214 793.907 69.754C793.907 71.482 792.575 73.21 789.803 73.21H789.335C788.363 73.21 787.733 73.534 787.733 74.11C787.733 74.506 788.039 74.794 788.651 74.794H792.629C794.267 74.794 795.203 75.64 795.203 76.936C795.203 78.898 793.205 80.032 790.019 80.032C787.229 80.032 785.357 79.33 784.871 77.476L786.833 77.098C787.283 78.25 788.327 78.556 790.073 78.556C791.945 78.556 793.277 78.052 793.277 77.17C793.277 76.756 793.043 76.45 792.395 76.45H788.057C786.563 76.45 785.789 75.64 785.789 74.632C785.789 73.66 786.653 72.886 787.841 72.652C786.527 72.076 785.879 70.852 785.879 69.7C785.879 67.99 787.265 66.244 789.911 66.244C791.081 66.244 791.999 66.658 792.539 67.252V66.46H795.419V68.026ZM789.911 71.752C791.297 71.752 791.945 70.78 791.945 69.736C791.945 68.692 791.297 67.738 789.911 67.738C788.543 67.738 787.877 68.692 787.877 69.736C787.877 70.78 788.543 71.752 789.911 71.752Z" fill="#2A2859"/>
<rect width="62" height="22" transform="translate(804 59)" fill="#E5FCFF"/>
<path d="M815.924 64.64H816.96L813.166 75H812.186L808.42 64.64H809.484L812.69 73.866L815.924 64.64ZM822.992 75H822.124C822.012 74.594 821.928 74.104 821.928 73.544C821.55 74.412 820.584 75.112 819.38 75.112C818.064 75.112 817.07 74.258 817.07 72.984C817.07 71.458 818.442 70.66 819.968 70.66C820.57 70.66 821.158 70.73 821.76 70.94V69.96C821.76 68.994 821.172 68.336 820.024 68.336C819.1 68.336 818.316 68.742 817.924 69.876L817.084 69.624C817.644 68.056 818.778 67.468 820.08 67.468C821.914 67.468 822.684 68.574 822.684 69.848V72.9C822.684 73.74 822.824 74.496 822.992 75ZM821.76 71.92V71.752C821.186 71.514 820.598 71.444 820.024 71.444C818.904 71.444 818.022 71.948 818.022 72.928C818.022 73.824 818.652 74.3 819.548 74.3C820.514 74.3 821.76 73.726 821.76 71.92ZM827.415 74.972C827.191 75.028 827.009 75.056 826.799 75.056C825.637 75.056 825.091 74.328 825.091 73.236V64.64H826.043V73.236C826.043 73.866 826.379 74.188 826.967 74.188C827.121 74.188 827.275 74.174 827.415 74.132V74.972ZM835.542 68.364H833.946V68.63C834.31 69.078 834.506 69.638 834.506 70.184C834.506 71.542 833.526 72.928 831.44 72.928H831.118C830.278 72.928 829.676 73.25 829.676 73.74C829.676 74.118 829.97 74.384 830.586 74.384H833.596C834.8 74.384 835.416 74.972 835.416 75.896C835.416 77.366 833.722 78.136 831.636 78.136C829.76 78.136 828.458 77.534 828.01 76.232L828.78 75.882C829.298 77.1 830.39 77.338 831.636 77.338C833.176 77.338 834.464 76.876 834.464 75.98C834.464 75.56 834.24 75.252 833.568 75.252H830.376C829.34 75.252 828.724 74.762 828.724 73.992C828.724 73.334 829.27 72.76 830.18 72.522C829.2 72.13 828.654 71.094 828.654 70.184C828.654 68.854 829.648 67.468 831.608 67.468C832.378 67.468 832.966 67.72 833.414 68.098V67.58H835.542V68.364ZM831.594 72.144C832.91 72.144 833.568 71.234 833.568 70.184C833.568 69.148 832.91 68.28 831.594 68.28C830.264 68.28 829.592 69.162 829.592 70.184C829.592 71.22 830.264 72.144 831.594 72.144ZM838.237 66.544V67.58H840.309V68.364H838.237V75H837.285V68.364H835.885V67.58H837.285V66.544C837.285 65.256 838.125 64.528 839.273 64.528C839.805 64.528 840.421 64.738 840.771 65.298L840.197 65.872C839.973 65.536 839.637 65.34 839.245 65.34C838.755 65.34 838.237 65.634 838.237 66.544ZM844.417 67.468C845.383 67.468 846.083 68.112 846.083 69.372V70.1L845.215 70.268V69.54C845.215 68.798 844.963 68.308 844.207 68.308C843.353 68.308 842.709 68.938 842.709 70.436V75H841.757V67.58H842.709V68.504C843.101 67.804 843.759 67.468 844.417 67.468ZM848.44 66.236C847.978 66.236 847.6 65.872 847.6 65.396C847.6 64.92 847.978 64.556 848.44 64.556C848.902 64.556 849.28 64.92 849.28 65.396C849.28 65.872 848.902 66.236 848.44 66.236ZM847.964 75V67.58H848.916V75H847.964ZM852.811 73.152C852.811 74.02 853.329 74.272 853.791 74.272C854.239 74.272 854.533 74.104 854.883 73.74L855.387 74.3C854.897 74.874 854.365 75.112 853.707 75.112C852.699 75.112 851.859 74.44 851.859 73.124V68.364H850.459V67.58H851.859V65.984L852.811 65.424V67.58H855.219V68.364H852.811V73.152ZM858.225 73.152C858.225 74.02 858.743 74.272 859.205 74.272C859.653 74.272 859.947 74.104 860.297 73.74L860.801 74.3C860.311 74.874 859.779 75.112 859.121 75.112C858.113 75.112 857.273 74.44 857.273 73.124V68.364H855.873V67.58H857.273V65.984L858.225 65.424V67.58H860.633V68.364H858.225V73.152Z" fill="#2A2859"/>
<path d="M614.232 108V97.64H615.212V108H614.232ZM622.269 108L619.539 104.318L618.629 105.186V108H617.677V97.64H618.629V104.066L622.157 100.58H623.417L620.183 103.688L623.473 108H622.269ZM629.693 108L626.963 104.318L626.053 105.186V108H625.101V97.64H626.053V104.066L629.581 100.58H630.841L627.607 103.688L630.897 108H629.693ZM637.004 105.9L637.704 106.292C637.354 107.188 636.43 108.112 634.778 108.112C632.692 108.112 631.46 106.558 631.46 104.192C631.46 102.022 632.748 100.468 634.68 100.468C636.276 100.468 637.648 101.616 637.648 103.632L637.62 104.458H632.426C632.51 106.432 633.448 107.272 634.876 107.272C635.996 107.272 636.654 106.628 637.004 105.9ZM634.68 101.308C633.56 101.308 632.552 101.91 632.426 103.674H636.71C636.752 102.008 635.772 101.308 634.68 101.308ZM642.879 102.512C642.879 101.336 643.985 100.468 645.539 100.468C646.883 100.468 647.919 101.112 648.227 102.092L647.443 102.4C647.149 101.686 646.463 101.308 645.511 101.308C644.475 101.308 643.803 101.742 643.803 102.428C643.803 103.044 644.209 103.422 645.091 103.604L646.071 103.8C647.695 104.122 648.451 104.822 648.451 105.928C648.451 107.216 647.303 108.112 645.651 108.112C644.153 108.112 643.103 107.524 642.599 106.404L643.411 106.068C643.761 106.852 644.531 107.272 645.623 107.272C646.771 107.272 647.527 106.768 647.527 106.012C647.527 105.312 647.135 104.934 646.155 104.724L644.951 104.472C643.593 104.192 642.879 103.506 642.879 102.512ZM654.945 108L652.215 104.318L651.305 105.186V108H650.353V97.64H651.305V104.066L654.833 100.58H656.093L652.859 103.688L656.149 108H654.945ZM660.272 100.468C661.238 100.468 661.938 101.112 661.938 102.372V103.1L661.07 103.268V102.54C661.07 101.798 660.818 101.308 660.062 101.308C659.208 101.308 658.564 101.938 658.564 103.436V108H657.612V100.58H658.564V101.504C658.956 100.804 659.614 100.468 660.272 100.468ZM664.295 99.236C663.833 99.236 663.455 98.872 663.455 98.396C663.455 97.92 663.833 97.556 664.295 97.556C664.757 97.556 665.135 97.92 665.135 98.396C665.135 98.872 664.757 99.236 664.295 99.236ZM663.819 108V100.58H664.771V108H663.819ZM671.915 100.58H672.895L669.983 108H669.143L666.231 100.58H667.267L669.591 106.95L671.915 100.58ZM681.317 100.482C683.207 100.482 684.481 102.064 684.481 104.22C684.481 106.502 683.193 108.112 681.205 108.112C680.169 108.112 679.329 107.594 678.881 106.656V110.94H677.929V100.58H678.881V101.966C679.371 101.014 680.351 100.482 681.317 100.482ZM681.205 107.272C682.591 107.272 683.501 106.208 683.501 104.262C683.501 102.386 682.591 101.322 681.219 101.322C679.735 101.322 678.881 102.428 678.881 104.248C678.881 106.18 679.721 107.272 681.205 107.272ZM691.487 105.9L692.187 106.292C691.837 107.188 690.913 108.112 689.261 108.112C687.175 108.112 685.943 106.558 685.943 104.192C685.943 102.022 687.231 100.468 689.163 100.468C690.759 100.468 692.131 101.616 692.131 103.632L692.103 104.458H686.909C686.993 106.432 687.931 107.272 689.359 107.272C690.479 107.272 691.137 106.628 691.487 105.9ZM689.163 101.308C688.043 101.308 687.035 101.91 686.909 103.674H691.193C691.235 102.008 690.255 101.308 689.163 101.308ZM696.803 100.468C697.769 100.468 698.469 101.112 698.469 102.372V103.1L697.601 103.268V102.54C697.601 101.798 697.349 101.308 696.593 101.308C695.739 101.308 695.095 101.938 695.095 103.436V108H694.143V100.58H695.095V101.504C695.487 100.804 696.145 100.468 696.803 100.468ZM699.713 102.512C699.713 101.336 700.819 100.468 702.373 100.468C703.717 100.468 704.753 101.112 705.061 102.092L704.277 102.4C703.983 101.686 703.297 101.308 702.345 101.308C701.309 101.308 700.637 101.742 700.637 102.428C700.637 103.044 701.043 103.422 701.925 103.604L702.905 103.8C704.529 104.122 705.285 104.822 705.285 105.928C705.285 107.216 704.137 108.112 702.485 108.112C700.987 108.112 699.937 107.524 699.433 106.404L700.245 106.068C700.595 106.852 701.365 107.272 702.457 107.272C703.605 107.272 704.361 106.768 704.361 106.012C704.361 105.312 703.969 104.934 702.989 104.724L701.785 104.472C700.427 104.192 699.713 103.506 699.713 102.512ZM709.987 108.112C708.153 108.112 706.683 106.6 706.683 104.276C706.683 101.98 708.139 100.468 709.987 100.468C711.835 100.468 713.291 101.98 713.291 104.276C713.291 106.6 711.821 108.112 709.987 108.112ZM709.987 107.272C711.261 107.272 712.311 106.264 712.311 104.276C712.311 102.302 711.247 101.308 709.987 101.308C708.727 101.308 707.663 102.302 707.663 104.276C707.663 106.264 708.713 107.272 709.987 107.272ZM718.333 100.468C719.817 100.468 720.685 101.378 720.685 103.044V108H719.733V103.184C719.733 101.84 719.117 101.336 718.081 101.336C716.779 101.336 716.177 102.344 716.177 103.828V108H715.225V100.58H716.177V101.728C716.625 100.916 717.437 100.468 718.333 100.468ZM725.301 107.972C725.077 108.028 724.895 108.056 724.685 108.056C723.523 108.056 722.977 107.328 722.977 106.236V97.64H723.929V106.236C723.929 106.866 724.265 107.188 724.853 107.188C725.007 107.188 725.161 107.174 725.301 107.132V107.972ZM726.786 97.696H728.242V99.124H726.786V97.696ZM727.038 108V100.58H727.99V108H727.038ZM737.065 101.364H735.469V101.63C735.833 102.078 736.029 102.638 736.029 103.184C736.029 104.542 735.049 105.928 732.963 105.928H732.641C731.801 105.928 731.199 106.25 731.199 106.74C731.199 107.118 731.493 107.384 732.109 107.384H735.119C736.323 107.384 736.939 107.972 736.939 108.896C736.939 110.366 735.245 111.136 733.159 111.136C731.283 111.136 729.981 110.534 729.533 109.232L730.303 108.882C730.821 110.1 731.913 110.338 733.159 110.338C734.699 110.338 735.987 109.876 735.987 108.98C735.987 108.56 735.763 108.252 735.091 108.252H731.899C730.863 108.252 730.247 107.762 730.247 106.992C730.247 106.334 730.793 105.76 731.703 105.522C730.723 105.13 730.177 104.094 730.177 103.184C730.177 101.854 731.171 100.468 733.131 100.468C733.901 100.468 734.489 100.72 734.937 101.098V100.58H737.065V101.364ZM733.117 105.144C734.433 105.144 735.091 104.234 735.091 103.184C735.091 102.148 734.433 101.28 733.117 101.28C731.787 101.28 731.115 102.162 731.115 103.184C731.115 104.22 731.787 105.144 733.117 105.144ZM743.057 105.9L743.757 106.292C743.407 107.188 742.483 108.112 740.831 108.112C738.745 108.112 737.513 106.558 737.513 104.192C737.513 102.022 738.801 100.468 740.733 100.468C742.329 100.468 743.701 101.616 743.701 103.632L743.673 104.458H738.479C738.563 106.432 739.501 107.272 740.929 107.272C742.049 107.272 742.707 106.628 743.057 105.9ZM740.733 101.308C739.613 101.308 738.605 101.91 738.479 103.674H742.763C742.805 102.008 741.825 101.308 740.733 101.308ZM752.124 108.112C750.29 108.112 748.82 106.6 748.82 104.276C748.82 101.98 750.276 100.468 752.124 100.468C753.972 100.468 755.428 101.98 755.428 104.276C755.428 106.6 753.958 108.112 752.124 108.112ZM752.124 107.272C753.398 107.272 754.448 106.264 754.448 104.276C754.448 102.302 753.384 101.308 752.124 101.308C750.864 101.308 749.8 102.302 749.8 104.276C749.8 106.264 750.85 107.272 752.124 107.272ZM760.75 100.482C762.64 100.482 763.914 102.064 763.914 104.22C763.914 106.502 762.626 108.112 760.638 108.112C759.602 108.112 758.762 107.594 758.314 106.656V110.94H757.362V100.58H758.314V101.966C758.804 101.014 759.784 100.482 760.75 100.482ZM760.638 107.272C762.024 107.272 762.934 106.208 762.934 104.262C762.934 102.386 762.024 101.322 760.652 101.322C759.168 101.322 758.314 102.428 758.314 104.248C758.314 106.18 759.154 107.272 760.638 107.272ZM769.24 100.482C771.13 100.482 772.404 102.064 772.404 104.22C772.404 106.502 771.116 108.112 769.128 108.112C768.092 108.112 767.252 107.594 766.804 106.656V110.94H765.852V100.58H766.804V101.966C767.294 101.014 768.274 100.482 769.24 100.482ZM769.128 107.272C770.514 107.272 771.424 106.208 771.424 104.262C771.424 102.386 770.514 101.322 769.142 101.322C767.658 101.322 766.804 102.428 766.804 104.248C766.804 106.18 767.644 107.272 769.128 107.272ZM776.667 107.972C776.443 108.028 776.261 108.056 776.051 108.056C774.889 108.056 774.343 107.328 774.343 106.236V97.64H775.295V106.236C775.295 106.866 775.631 107.188 776.219 107.188C776.373 107.188 776.527 107.174 776.667 107.132V107.972ZM783.044 100.58H784.024L780.762 109.022C780.272 110.282 779.726 111.08 778.578 111.08C778.074 111.08 777.612 110.898 777.262 110.576L777.682 109.89C777.962 110.142 778.228 110.254 778.55 110.254C779.068 110.254 779.432 110.03 779.796 109.176L780.23 108.126L777.444 100.58H778.48L780.72 107.006L783.044 100.58ZM784.779 102.512C784.779 101.336 785.885 100.468 787.439 100.468C788.783 100.468 789.819 101.112 790.127 102.092L789.343 102.4C789.049 101.686 788.363 101.308 787.411 101.308C786.375 101.308 785.703 101.742 785.703 102.428C785.703 103.044 786.109 103.422 786.991 103.604L787.971 103.8C789.595 104.122 790.351 104.822 790.351 105.928C790.351 107.216 789.203 108.112 787.551 108.112C786.053 108.112 785.003 107.524 784.499 106.404L785.311 106.068C785.661 106.852 786.431 107.272 787.523 107.272C788.671 107.272 789.427 106.768 789.427 106.012C789.427 105.312 789.035 104.934 788.055 104.724L786.851 104.472C785.493 104.192 784.779 103.506 784.779 102.512ZM795.333 100.468C796.817 100.468 797.685 101.378 797.685 103.044V108H796.733V103.184C796.733 101.84 796.117 101.336 795.081 101.336C793.779 101.336 793.177 102.344 793.177 103.828V108H792.225V100.58H793.177V101.728C793.625 100.916 794.437 100.468 795.333 100.468ZM800.453 99.236C799.991 99.236 799.613 98.872 799.613 98.396C799.613 97.92 799.991 97.556 800.453 97.556C800.915 97.556 801.293 97.92 801.293 98.396C801.293 98.872 800.915 99.236 800.453 99.236ZM799.977 108V100.58H800.929V108H799.977ZM806.449 100.468C807.933 100.468 808.801 101.378 808.801 103.044V108H807.849V103.184C807.849 101.84 807.233 101.336 806.197 101.336C804.895 101.336 804.293 102.344 804.293 103.828V108H803.341V100.58H804.293V101.728C804.741 100.916 805.553 100.468 806.449 100.468ZM817.757 101.364H816.161V101.63C816.525 102.078 816.721 102.638 816.721 103.184C816.721 104.542 815.741 105.928 813.655 105.928H813.333C812.493 105.928 811.891 106.25 811.891 106.74C811.891 107.118 812.185 107.384 812.801 107.384H815.811C817.015 107.384 817.631 107.972 817.631 108.896C817.631 110.366 815.937 111.136 813.851 111.136C811.975 111.136 810.673 110.534 810.225 109.232L810.995 108.882C811.513 110.1 812.605 110.338 813.851 110.338C815.391 110.338 816.679 109.876 816.679 108.98C816.679 108.56 816.455 108.252 815.783 108.252H812.591C811.555 108.252 810.939 107.762 810.939 106.992C810.939 106.334 811.485 105.76 812.395 105.522C811.415 105.13 810.869 104.094 810.869 103.184C810.869 101.854 811.863 100.468 813.823 100.468C814.593 100.468 815.181 100.72 815.629 101.098V100.58H817.757V101.364ZM813.809 105.144C815.125 105.144 815.783 104.234 815.783 103.184C815.783 102.148 815.125 101.28 813.809 101.28C812.479 101.28 811.807 102.162 811.807 103.184C811.807 104.22 812.479 105.144 813.809 105.144ZM823.749 105.9L824.449 106.292C824.099 107.188 823.175 108.112 821.523 108.112C819.437 108.112 818.205 106.558 818.205 104.192C818.205 102.022 819.493 100.468 821.425 100.468C823.021 100.468 824.393 101.616 824.393 103.632L824.365 104.458H819.171C819.255 106.432 820.193 107.272 821.621 107.272C822.741 107.272 823.399 106.628 823.749 105.9ZM821.425 101.308C820.305 101.308 819.297 101.91 819.171 103.674H823.455C823.497 102.008 822.517 101.308 821.425 101.308ZM829.065 100.468C830.031 100.468 830.731 101.112 830.731 102.372V103.1L829.863 103.268V102.54C829.863 101.798 829.611 101.308 828.855 101.308C828.001 101.308 827.357 101.938 827.357 103.436V108H826.405V100.58H827.357V101.504C827.749 100.804 828.407 100.468 829.065 100.468ZM830.601 106.432H832.113V108H830.601V106.432ZM839.874 96.8H840.798C839.79 99.04 839.286 101.238 839.286 103.478C839.286 105.718 839.79 107.874 840.798 110.1H839.874C838.824 107.874 838.306 105.732 838.306 103.478C838.306 101.224 838.838 99.026 839.874 96.8ZM849.083 97.64H850.063V108H849.083V103.24H843.819V108H842.839V97.64H843.819V102.316H849.083V97.64ZM857.573 105.9L858.273 106.292C857.923 107.188 856.999 108.112 855.347 108.112C853.261 108.112 852.029 106.558 852.029 104.192C852.029 102.022 853.317 100.468 855.249 100.468C856.845 100.468 858.217 101.616 858.217 103.632L858.189 104.458H852.995C853.079 106.432 854.017 107.272 855.445 107.272C856.565 107.272 857.223 106.628 857.573 105.9ZM855.249 101.308C854.129 101.308 853.121 101.91 852.995 103.674H857.279C857.321 102.008 856.341 101.308 855.249 101.308ZM863.337 100.468C864.821 100.468 865.689 101.378 865.689 103.044V108H864.737V103.184C864.737 101.84 864.121 101.336 863.085 101.336C861.783 101.336 861.181 102.344 861.181 103.828V108H860.229V100.58H861.181V101.728C861.629 100.916 862.441 100.468 863.337 100.468ZM873.105 97.64H874.057V108H873.105V106.614C872.615 107.566 871.635 108.098 870.669 108.098C868.779 108.098 867.505 106.516 867.505 104.36C867.505 102.078 868.793 100.468 870.781 100.468C871.817 100.468 872.657 100.986 873.105 101.924V97.64ZM870.767 107.258C872.251 107.258 873.105 106.152 873.105 104.332C873.105 102.4 872.265 101.308 870.781 101.308C869.395 101.308 868.485 102.372 868.485 104.318C868.485 106.194 869.395 107.258 870.767 107.258ZM881.135 100.58H882.115L879.203 108H878.363L875.451 100.58H876.487L878.811 106.95L881.135 100.58ZM888.362 105.9L889.062 106.292C888.712 107.188 887.788 108.112 886.136 108.112C884.05 108.112 882.818 106.558 882.818 104.192C882.818 102.022 884.106 100.468 886.038 100.468C887.634 100.468 889.006 101.616 889.006 103.632L888.978 104.458H883.784C883.868 106.432 884.806 107.272 886.234 107.272C887.354 107.272 888.012 106.628 888.362 105.9ZM886.038 101.308C884.918 101.308 883.91 101.91 883.784 103.674H888.068C888.11 102.008 887.13 101.308 886.038 101.308ZM894.126 100.468C895.61 100.468 896.478 101.378 896.478 103.044V108H895.526V103.184C895.526 101.84 894.91 101.336 893.874 101.336C892.572 101.336 891.97 102.344 891.97 103.828V108H891.018V100.58H891.97V101.728C892.418 100.916 893.23 100.468 894.126 100.468ZM903.894 97.64H904.846V108H903.894V106.614C903.404 107.566 902.424 108.098 901.458 108.098C899.568 108.098 898.294 106.516 898.294 104.36C898.294 102.078 899.582 100.468 901.57 100.468C902.606 100.468 903.446 100.986 903.894 101.924V97.64ZM901.556 107.258C903.04 107.258 903.894 106.152 903.894 104.332C903.894 102.4 903.054 101.308 901.57 101.308C900.184 101.308 899.274 102.372 899.274 104.318C899.274 106.194 900.184 107.258 901.556 107.258ZM912.26 105.9L912.96 106.292C912.61 107.188 911.686 108.112 910.034 108.112C907.948 108.112 906.716 106.558 906.716 104.192C906.716 102.022 908.004 100.468 909.936 100.468C911.532 100.468 912.904 101.616 912.904 103.632L912.876 104.458H907.682C907.766 106.432 908.704 107.272 910.132 107.272C911.252 107.272 911.91 106.628 912.26 105.9ZM909.936 101.308C908.816 101.308 907.808 101.91 907.682 103.674H911.966C912.008 102.008 911.028 101.308 909.936 101.308ZM917.241 107.972C917.017 108.028 916.835 108.056 916.625 108.056C915.463 108.056 914.917 107.328 914.917 106.236V97.64H915.869V106.236C915.869 106.866 916.205 107.188 916.793 107.188C916.947 107.188 917.101 107.174 917.241 107.132V107.972ZM918.613 102.512C918.613 101.336 919.719 100.468 921.273 100.468C922.617 100.468 923.653 101.112 923.961 102.092L923.177 102.4C922.883 101.686 922.197 101.308 921.245 101.308C920.209 101.308 919.537 101.742 919.537 102.428C919.537 103.044 919.943 103.422 920.825 103.604L921.805 103.8C923.429 104.122 924.185 104.822 924.185 105.928C924.185 107.216 923.037 108.112 921.385 108.112C919.887 108.112 918.837 107.524 918.333 106.404L919.145 106.068C919.495 106.852 920.265 107.272 921.357 107.272C922.505 107.272 923.261 106.768 923.261 106.012C923.261 105.312 922.869 104.934 921.889 104.724L920.685 104.472C919.327 104.192 918.613 103.506 918.613 102.512ZM931.127 105.9L931.827 106.292C931.477 107.188 930.553 108.112 928.901 108.112C926.815 108.112 925.583 106.558 925.583 104.192C925.583 102.022 926.871 100.468 928.803 100.468C930.399 100.468 931.771 101.616 931.771 103.632L931.743 104.458H926.549C926.633 106.432 927.571 107.272 928.999 107.272C930.119 107.272 930.777 106.628 931.127 105.9ZM928.803 101.308C927.683 101.308 926.675 101.91 926.549 103.674H930.833C930.875 102.008 929.895 101.308 928.803 101.308ZM936.444 100.468C937.41 100.468 938.11 101.112 938.11 102.372V103.1L937.242 103.268V102.54C937.242 101.798 936.99 101.308 936.234 101.308C935.38 101.308 934.736 101.938 934.736 103.436V108H933.784V100.58H934.736V101.504C935.128 100.804 935.786 100.468 936.444 100.468ZM946.989 100.482C948.879 100.482 950.153 102.064 950.153 104.22C950.153 106.502 948.865 108.112 946.877 108.112C945.841 108.112 945.001 107.594 944.553 106.656V108H943.601V97.64H944.553V101.966C945.043 101.014 946.023 100.482 946.989 100.482ZM946.877 107.272C948.263 107.272 949.173 106.208 949.173 104.262C949.173 102.386 948.263 101.322 946.891 101.322C945.407 101.322 944.553 102.428 944.553 104.248C944.553 106.18 945.393 107.272 946.877 107.272ZM954.415 107.972C954.191 108.028 954.009 108.056 953.799 108.056C952.637 108.056 952.091 107.328 952.091 106.236V97.64H953.043V106.236C953.043 106.866 953.379 107.188 953.967 107.188C954.121 107.188 954.275 107.174 954.415 107.132V107.972ZM956.627 99.236C956.165 99.236 955.787 98.872 955.787 98.396C955.787 97.92 956.165 97.556 956.627 97.556C957.089 97.556 957.467 97.92 957.467 98.396C957.467 98.872 957.089 99.236 956.627 99.236ZM956.151 108V100.58H957.103V108H956.151ZM962.175 100.468C963.141 100.468 963.841 101.112 963.841 102.372V103.1L962.973 103.268V102.54C962.973 101.798 962.721 101.308 961.965 101.308C961.111 101.308 960.467 101.938 960.467 103.436V108H959.515V100.58H960.467V101.504C960.859 100.804 961.517 100.468 962.175 100.468ZM969.052 97.696H970.508V99.124H969.052V97.696ZM969.304 108V100.58H970.256V108H969.304ZM977.287 108L974.557 104.318L973.647 105.186V108H972.695V97.64H973.647V104.066L977.175 100.58H978.435L975.201 103.688L978.491 108H977.287ZM984.711 108L981.981 104.318L981.071 105.186V108H980.119V97.64H981.071V104.066L984.599 100.58H985.859L982.625 103.688L985.915 108H984.711ZM992.022 105.9L992.722 106.292C992.372 107.188 991.448 108.112 989.796 108.112C987.71 108.112 986.478 106.558 986.478 104.192C986.478 102.022 987.766 100.468 989.698 100.468C991.294 100.468 992.666 101.616 992.666 103.632L992.638 104.458H987.444C987.528 106.432 988.466 107.272 989.894 107.272C991.014 107.272 991.672 106.628 992.022 105.9ZM989.698 101.308C988.578 101.308 987.57 101.91 987.444 103.674H991.728C991.77 102.008 990.79 101.308 989.698 101.308ZM617.62 122.482C619.51 122.482 620.784 124.064 620.784 126.22C620.784 128.502 619.496 130.112 617.508 130.112C616.472 130.112 615.632 129.594 615.184 128.656V130H614.232V119.64H615.184V123.966C615.674 123.014 616.654 122.482 617.62 122.482ZM617.508 129.272C618.894 129.272 619.804 128.208 619.804 126.262C619.804 124.386 618.894 123.322 617.522 123.322C616.038 123.322 615.184 124.428 615.184 126.248C615.184 128.18 616.024 129.272 617.508 129.272ZM627.79 127.9L628.49 128.292C628.14 129.188 627.216 130.112 625.564 130.112C623.478 130.112 622.246 128.558 622.246 126.192C622.246 124.022 623.534 122.468 625.466 122.468C627.062 122.468 628.434 123.616 628.434 125.632L628.406 126.458H623.212C623.296 128.432 624.234 129.272 625.662 129.272C626.782 129.272 627.44 128.628 627.79 127.9ZM625.466 123.308C624.346 123.308 623.338 123.91 623.212 125.674H627.496C627.538 124.008 626.558 123.308 625.466 123.308ZM630.082 124.512C630.082 123.336 631.188 122.468 632.742 122.468C634.086 122.468 635.122 123.112 635.43 124.092L634.646 124.4C634.352 123.686 633.666 123.308 632.714 123.308C631.678 123.308 631.006 123.742 631.006 124.428C631.006 125.044 631.412 125.422 632.294 125.604L633.274 125.8C634.898 126.122 635.654 126.822 635.654 127.928C635.654 129.216 634.506 130.112 632.854 130.112C631.356 130.112 630.306 129.524 629.802 128.404L630.614 128.068C630.964 128.852 631.734 129.272 632.826 129.272C633.974 129.272 634.73 128.768 634.73 128.012C634.73 127.312 634.338 126.934 633.358 126.724L632.154 126.472C630.796 126.192 630.082 125.506 630.082 124.512ZM642.124 122.58H643.104L640.192 130H639.352L636.44 122.58H637.476L639.8 128.95L642.124 122.58ZM649.812 130H648.944C648.832 129.594 648.748 129.104 648.748 128.544C648.37 129.412 647.404 130.112 646.2 130.112C644.884 130.112 643.89 129.258 643.89 127.984C643.89 126.458 645.262 125.66 646.788 125.66C647.39 125.66 647.978 125.73 648.58 125.94V124.96C648.58 123.994 647.992 123.336 646.844 123.336C645.92 123.336 645.136 123.742 644.744 124.876L643.904 124.624C644.464 123.056 645.598 122.468 646.9 122.468C648.734 122.468 649.504 123.574 649.504 124.848V127.9C649.504 128.74 649.644 129.496 649.812 130ZM648.58 126.92V126.752C648.006 126.514 647.418 126.444 646.844 126.444C645.724 126.444 644.842 126.948 644.842 127.928C644.842 128.824 645.472 129.3 646.368 129.3C647.334 129.3 648.58 128.726 648.58 126.92ZM654.571 122.468C655.537 122.468 656.237 123.112 656.237 124.372V125.1L655.369 125.268V124.54C655.369 123.798 655.117 123.308 654.361 123.308C653.507 123.308 652.863 123.938 652.863 125.436V130H651.911V122.58H652.863V123.504C653.255 122.804 653.913 122.468 654.571 122.468ZM659.465 128.152C659.465 129.02 659.983 129.272 660.445 129.272C660.893 129.272 661.187 129.104 661.537 128.74L662.041 129.3C661.551 129.874 661.019 130.112 660.361 130.112C659.353 130.112 658.513 129.44 658.513 128.124V123.364H657.113V122.58H658.513V120.984L659.465 120.424V122.58H661.873V123.364H659.465V128.152ZM664.313 128.32C664.901 128.32 665.349 128.824 665.349 129.776C665.349 130.7 664.971 131.624 663.753 132.576L663.417 132.184C664.075 131.596 664.705 131.008 664.593 130.028C664.523 130.042 664.425 130.056 664.313 130.056C663.809 130.056 663.417 129.734 663.417 129.188C663.417 128.698 663.795 128.32 664.313 128.32ZM672.549 128.152C672.549 129.02 673.067 129.272 673.529 129.272C673.977 129.272 674.271 129.104 674.621 128.74L675.125 129.3C674.635 129.874 674.103 130.112 673.445 130.112C672.437 130.112 671.597 129.44 671.597 128.124V123.364H670.197V122.58H671.597V120.984L672.549 120.424V122.58H674.957V123.364H672.549V128.152ZM679.413 122.468C680.379 122.468 681.079 123.112 681.079 124.372V125.1L680.211 125.268V124.54C680.211 123.798 679.959 123.308 679.203 123.308C678.349 123.308 677.705 123.938 677.705 125.436V130H676.753V122.58H677.705V123.504C678.097 122.804 678.755 122.468 679.413 122.468ZM687.604 127.9L688.304 128.292C687.954 129.188 687.03 130.112 685.378 130.112C683.292 130.112 682.06 128.558 682.06 126.192C682.06 124.022 683.348 122.468 685.28 122.468C686.876 122.468 688.248 123.616 688.248 125.632L688.22 126.458H683.026C683.11 128.432 684.048 129.272 685.476 129.272C686.596 129.272 687.254 128.628 687.604 127.9ZM685.28 123.308C684.16 123.308 683.152 123.91 683.026 125.674H687.31C687.352 124.008 686.372 123.308 685.28 123.308ZM693.369 122.468C694.853 122.468 695.721 123.378 695.721 125.044V130H694.769V125.184C694.769 123.84 694.153 123.336 693.117 123.336C691.815 123.336 691.213 124.344 691.213 125.828V130H690.261V122.58H691.213V123.728C691.661 122.916 692.473 122.468 693.369 122.468ZM704.677 123.364H703.081V123.63C703.445 124.078 703.641 124.638 703.641 125.184C703.641 126.542 702.661 127.928 700.575 127.928H700.253C699.413 127.928 698.811 128.25 698.811 128.74C698.811 129.118 699.105 129.384 699.721 129.384H702.731C703.935 129.384 704.551 129.972 704.551 130.896C704.551 132.366 702.857 133.136 700.771 133.136C698.895 133.136 697.593 132.534 697.145 131.232L697.915 130.882C698.433 132.1 699.525 132.338 700.771 132.338C702.311 132.338 703.599 131.876 703.599 130.98C703.599 130.56 703.375 130.252 702.703 130.252H699.511C698.475 130.252 697.859 129.762 697.859 128.992C697.859 128.334 698.405 127.76 699.315 127.522C698.335 127.13 697.789 126.094 697.789 125.184C697.789 123.854 698.783 122.468 700.743 122.468C701.513 122.468 702.101 122.72 702.549 123.098V122.58H704.677V123.364ZM700.729 127.144C702.045 127.144 702.703 126.234 702.703 125.184C702.703 124.148 702.045 123.28 700.729 123.28C699.399 123.28 698.727 124.162 698.727 125.184C698.727 126.22 699.399 127.144 700.729 127.144ZM710.668 127.9L711.368 128.292C711.018 129.188 710.094 130.112 708.442 130.112C706.356 130.112 705.124 128.558 705.124 126.192C705.124 124.022 706.412 122.468 708.344 122.468C709.94 122.468 711.312 123.616 711.312 125.632L711.284 126.458H706.09C706.174 128.432 707.112 129.272 708.54 129.272C709.66 129.272 710.318 128.628 710.668 127.9ZM708.344 123.308C707.224 123.308 706.216 123.91 706.09 125.674H710.374C710.416 124.008 709.436 123.308 708.344 123.308ZM715.985 122.468C716.951 122.468 717.651 123.112 717.651 124.372V125.1L716.783 125.268V124.54C716.783 123.798 716.531 123.308 715.775 123.308C714.921 123.308 714.277 123.938 714.277 125.436V130H713.325V122.58H714.277V123.504C714.669 122.804 715.327 122.468 715.985 122.468ZM728.238 119.64H729.19V130H728.238V128.614C727.748 129.566 726.768 130.098 725.802 130.098C723.912 130.098 722.638 128.516 722.638 126.36C722.638 124.078 723.926 122.468 725.914 122.468C726.95 122.468 727.79 122.986 728.238 123.924V119.64ZM725.9 129.258C727.384 129.258 728.238 128.152 728.238 126.332C728.238 124.4 727.398 123.308 725.914 123.308C724.528 123.308 723.618 124.372 723.618 126.318C723.618 128.194 724.528 129.258 725.9 129.258ZM735.848 122.58H736.8V130H735.848V128.866C735.4 129.664 734.616 130.112 733.706 130.112C732.25 130.112 731.368 129.174 731.368 127.564V122.58H732.32V127.48C732.32 128.698 732.936 129.258 733.972 129.258C735.288 129.258 735.848 128.208 735.848 126.752V122.58ZM745.869 122.468C747.353 122.468 748.221 123.378 748.221 125.044V130H747.269V125.184C747.269 123.84 746.653 123.336 745.617 123.336C744.315 123.336 743.713 124.344 743.713 125.828V130H742.761V119.64H743.713V123.728C744.161 122.916 744.973 122.468 745.869 122.468ZM750.933 121.236C750.471 121.236 750.093 120.872 750.093 120.396C750.093 119.92 750.471 119.556 750.933 119.556C751.395 119.556 751.773 119.92 751.773 120.396C751.773 120.872 751.395 121.236 750.933 121.236ZM749.813 133.038C749.561 133.038 749.323 132.996 749.085 132.926L749.169 132.086C749.365 132.156 749.547 132.17 749.673 132.17C750.331 132.17 750.457 131.722 750.457 131.078V122.58H751.409V131.134C751.409 132.394 750.863 133.038 749.813 133.038ZM758.889 127.9L759.589 128.292C759.239 129.188 758.315 130.112 756.663 130.112C754.577 130.112 753.345 128.558 753.345 126.192C753.345 124.022 754.633 122.468 756.565 122.468C758.161 122.468 759.533 123.616 759.533 125.632L759.505 126.458H754.311C754.395 128.432 755.333 129.272 756.761 129.272C757.881 129.272 758.539 128.628 758.889 127.9ZM756.565 123.308C755.445 123.308 754.437 123.91 754.311 125.674H758.595C758.637 124.008 757.657 123.308 756.565 123.308ZM763.87 129.972C763.646 130.028 763.464 130.056 763.254 130.056C762.092 130.056 761.546 129.328 761.546 128.236V119.64H762.498V128.236C762.498 128.866 762.834 129.188 763.422 129.188C763.576 129.188 763.73 129.174 763.87 129.132V129.972ZM768.994 122.482C770.884 122.482 772.158 124.064 772.158 126.22C772.158 128.502 770.87 130.112 768.882 130.112C767.846 130.112 767.006 129.594 766.558 128.656V132.94H765.606V122.58H766.558V123.966C767.048 123.014 768.028 122.482 768.994 122.482ZM768.882 129.272C770.268 129.272 771.178 128.208 771.178 126.262C771.178 124.386 770.268 123.322 768.896 123.322C767.412 123.322 766.558 124.428 766.558 126.248C766.558 128.18 767.398 129.272 768.882 129.272ZM777.315 124.512C777.315 123.336 778.421 122.468 779.975 122.468C781.319 122.468 782.355 123.112 782.663 124.092L781.879 124.4C781.585 123.686 780.899 123.308 779.947 123.308C778.911 123.308 778.239 123.742 778.239 124.428C778.239 125.044 778.645 125.422 779.527 125.604L780.507 125.8C782.131 126.122 782.887 126.822 782.887 127.928C782.887 129.216 781.739 130.112 780.087 130.112C778.589 130.112 777.539 129.524 777.035 128.404L777.847 128.068C778.197 128.852 778.967 129.272 780.059 129.272C781.207 129.272 781.963 128.768 781.963 128.012C781.963 127.312 781.571 126.934 780.591 126.724L779.387 126.472C778.029 126.192 777.315 125.506 777.315 124.512ZM787.133 121.796C786.223 121.796 785.481 121.124 785.481 120.2C785.481 119.276 786.223 118.604 787.133 118.604C788.043 118.604 788.785 119.276 788.785 120.2C788.785 121.124 788.043 121.796 787.133 121.796ZM787.133 119.248C786.601 119.248 786.181 119.584 786.181 120.2C786.181 120.83 786.601 121.152 787.133 121.152C787.665 121.152 788.085 120.83 788.085 120.2C788.085 119.584 787.665 119.248 787.133 119.248ZM790.017 130H789.149C789.037 129.594 788.953 129.104 788.953 128.544C788.575 129.412 787.609 130.112 786.405 130.112C785.089 130.112 784.095 129.258 784.095 127.984C784.095 126.458 785.467 125.66 786.993 125.66C787.595 125.66 788.183 125.73 788.785 125.94V124.96C788.785 123.994 788.197 123.336 787.049 123.336C786.125 123.336 785.341 123.742 784.949 124.876L784.109 124.624C784.669 123.056 785.803 122.468 787.105 122.468C788.939 122.468 789.709 123.574 789.709 124.848V127.9C789.709 128.74 789.849 129.496 790.017 130ZM788.785 126.92V126.752C788.211 126.514 787.623 126.444 787.049 126.444C785.929 126.444 785.047 126.948 785.047 127.928C785.047 128.824 785.677 129.3 786.573 129.3C787.539 129.3 788.785 128.726 788.785 126.92ZM800.318 130L797.588 126.318L796.678 127.186V130H795.726V119.64H796.678V126.066L800.206 122.58H801.466L798.232 125.688L801.522 130H800.318ZM808.091 130H807.223C807.111 129.594 807.027 129.104 807.027 128.544C806.649 129.412 805.683 130.112 804.479 130.112C803.163 130.112 802.169 129.258 802.169 127.984C802.169 126.458 803.541 125.66 805.067 125.66C805.669 125.66 806.257 125.73 806.859 125.94V124.96C806.859 123.994 806.271 123.336 805.123 123.336C804.199 123.336 803.415 123.742 803.023 124.876L802.183 124.624C802.743 123.056 803.877 122.468 805.179 122.468C807.013 122.468 807.783 123.574 807.783 124.848V127.9C807.783 128.74 807.923 129.496 808.091 130ZM806.859 126.92V126.752C806.285 126.514 805.697 126.444 805.123 126.444C804.003 126.444 803.121 126.948 803.121 127.928C803.121 128.824 803.751 129.3 804.647 129.3C805.613 129.3 806.859 128.726 806.859 126.92ZM813.298 122.468C814.782 122.468 815.65 123.378 815.65 125.044V130H814.698V125.184C814.698 123.84 814.082 123.336 813.046 123.336C811.744 123.336 811.142 124.344 811.142 125.828V130H810.19V122.58H811.142V123.728C811.59 122.916 812.402 122.468 813.298 122.468ZM826.648 119.64H827.6V130H826.648V128.614C826.158 129.566 825.178 130.098 824.212 130.098C822.322 130.098 821.048 128.516 821.048 126.36C821.048 124.078 822.336 122.468 824.324 122.468C825.36 122.468 826.2 122.986 826.648 123.924V119.64ZM824.31 129.258C825.794 129.258 826.648 128.152 826.648 126.332C826.648 124.4 825.808 123.308 824.324 123.308C822.938 123.308 822.028 124.372 822.028 126.318C822.028 128.194 822.938 129.258 824.31 129.258ZM834.258 122.58H835.21V130H834.258V128.866C833.81 129.664 833.026 130.112 832.116 130.112C830.66 130.112 829.778 129.174 829.778 127.564V122.58H830.73V127.48C830.73 128.698 831.346 129.258 832.382 129.258C833.698 129.258 834.258 128.208 834.258 126.752V122.58ZM845.763 130L843.033 126.318L842.123 127.186V130H841.171V119.64H842.123V126.066L845.651 122.58H846.911L843.677 125.688L846.967 130H845.763ZM850.835 130.112C849.001 130.112 847.531 128.6 847.531 126.276C847.531 123.98 848.987 122.468 850.835 122.468C852.683 122.468 854.139 123.98 854.139 126.276C854.139 128.6 852.669 130.112 850.835 130.112ZM850.835 129.272C852.109 129.272 853.159 128.264 853.159 126.276C853.159 124.302 852.095 123.308 850.835 123.308C849.575 123.308 848.511 124.302 848.511 126.276C848.511 128.264 849.561 129.272 850.835 129.272ZM859.181 122.468C860.665 122.468 861.533 123.378 861.533 125.044V130H860.581V125.184C860.581 123.84 859.965 123.336 858.929 123.336C857.627 123.336 857.025 124.344 857.025 125.828V130H856.073V122.58H857.025V123.728C857.473 122.916 858.285 122.468 859.181 122.468ZM865.309 128.152C865.309 129.02 865.827 129.272 866.289 129.272C866.737 129.272 867.031 129.104 867.381 128.74L867.885 129.3C867.395 129.874 866.863 130.112 866.205 130.112C865.197 130.112 864.357 129.44 864.357 128.124V123.364H862.957V122.58H864.357V120.984L865.309 120.424V122.58H867.717V123.364H865.309V128.152ZM874.769 130H873.901C873.789 129.594 873.705 129.104 873.705 128.544C873.327 129.412 872.361 130.112 871.157 130.112C869.841 130.112 868.847 129.258 868.847 127.984C868.847 126.458 870.219 125.66 871.745 125.66C872.347 125.66 872.935 125.73 873.537 125.94V124.96C873.537 123.994 872.949 123.336 871.801 123.336C870.877 123.336 870.093 123.742 869.701 124.876L868.861 124.624C869.421 123.056 870.555 122.468 871.857 122.468C873.691 122.468 874.461 123.574 874.461 124.848V127.9C874.461 128.74 874.601 129.496 874.769 130ZM873.537 126.92V126.752C872.963 126.514 872.375 126.444 871.801 126.444C870.681 126.444 869.799 126.948 869.799 127.928C869.799 128.824 870.429 129.3 871.325 129.3C872.291 129.3 873.537 128.726 873.537 126.92ZM881.488 130L878.758 126.318L877.848 127.186V130H876.896V119.64H877.848V126.066L881.376 122.58H882.636L879.402 125.688L882.692 130H881.488ZM885.502 128.152C885.502 129.02 886.02 129.272 886.482 129.272C886.93 129.272 887.224 129.104 887.574 128.74L888.078 129.3C887.588 129.874 887.056 130.112 886.398 130.112C885.39 130.112 884.55 129.44 884.55 128.124V123.364H883.15V122.58H884.55V120.984L885.502 120.424V122.58H887.91V123.364H885.502V128.152ZM894.35 127.9L895.05 128.292C894.7 129.188 893.776 130.112 892.124 130.112C890.038 130.112 888.806 128.558 888.806 126.192C888.806 124.022 890.094 122.468 892.026 122.468C893.622 122.468 894.994 123.616 894.994 125.632L894.966 126.458H889.772C889.856 128.432 890.794 129.272 892.222 129.272C893.342 129.272 894 128.628 894.35 127.9ZM892.026 123.308C890.906 123.308 889.898 123.91 889.772 125.674H894.056C894.098 124.008 893.118 123.308 892.026 123.308ZM903.417 130.112C901.583 130.112 900.113 128.6 900.113 126.276C900.113 123.98 901.569 122.468 903.417 122.468C905.265 122.468 906.721 123.98 906.721 126.276C906.721 128.6 905.251 130.112 903.417 130.112ZM903.417 129.272C904.691 129.272 905.741 128.264 905.741 126.276C905.741 124.302 904.677 123.308 903.417 123.308C902.157 123.308 901.093 124.302 901.093 126.276C901.093 128.264 902.143 129.272 903.417 129.272ZM908.291 124.512C908.291 123.336 909.397 122.468 910.951 122.468C912.295 122.468 913.331 123.112 913.639 124.092L912.855 124.4C912.561 123.686 911.875 123.308 910.923 123.308C909.887 123.308 909.215 123.742 909.215 124.428C909.215 125.044 909.621 125.422 910.503 125.604L911.483 125.8C913.107 126.122 913.863 126.822 913.863 127.928C913.863 129.216 912.715 130.112 911.063 130.112C909.565 130.112 908.515 129.524 908.011 128.404L908.823 128.068C909.173 128.852 909.943 129.272 911.035 129.272C912.183 129.272 912.939 128.768 912.939 128.012C912.939 127.312 912.547 126.934 911.567 126.724L910.363 126.472C909.005 126.192 908.291 125.506 908.291 124.512ZM915.373 124.512C915.373 123.336 916.479 122.468 918.033 122.468C919.377 122.468 920.413 123.112 920.721 124.092L919.937 124.4C919.643 123.686 918.957 123.308 918.005 123.308C916.969 123.308 916.297 123.742 916.297 124.428C916.297 125.044 916.703 125.422 917.585 125.604L918.565 125.8C920.189 126.122 920.945 126.822 920.945 127.928C920.945 129.216 919.797 130.112 918.145 130.112C916.647 130.112 915.597 129.524 915.093 128.404L915.905 128.068C916.255 128.852 917.025 129.272 918.117 129.272C919.265 129.272 920.021 128.768 920.021 128.012C920.021 127.312 919.629 126.934 918.649 126.724L917.445 126.472C916.087 126.192 915.373 125.506 915.373 124.512ZM923.383 130.084C922.879 130.084 922.487 129.706 922.487 129.188C922.487 128.67 922.879 128.292 923.383 128.292C923.887 128.292 924.279 128.67 924.279 129.188C924.279 129.706 923.887 130.084 923.383 130.084ZM930.611 132.1H929.687C930.695 129.86 931.199 127.662 931.199 125.422C931.199 123.182 930.695 121.026 929.687 118.8H930.611C931.661 121.026 932.179 123.168 932.179 125.422C932.179 127.676 931.647 129.874 930.611 132.1Z" fill="#2A2859"/>
<rect x="614" y="145" width="398" height="146" fill="white"/>
<path d="M630.332 162.208C630.332 159.976 632.366 158.536 634.724 158.536C636.902 158.536 638.378 159.472 639.044 161.146L637.856 161.632C637.316 160.354 636.11 159.652 634.724 159.652C632.888 159.652 631.592 160.588 631.592 162.064C631.592 163.306 632.33 164.062 633.896 164.368L635.984 164.764C638.036 165.16 639.548 166.258 639.548 168.256C639.548 170.308 637.82 172.144 634.904 172.144C632.6 172.144 630.872 171.352 629.936 169.372L631.088 168.904C631.988 170.668 633.482 171.028 634.94 171.028C637.118 171.028 638.288 169.768 638.288 168.328C638.288 166.726 637.208 166.258 635.588 165.952L633.68 165.592C631.826 165.25 630.332 164.224 630.332 162.208ZM647.96 172L644.45 167.266L643.28 168.382V172H642.056V158.68H643.28V166.942L647.816 162.46H649.436L645.278 166.456L649.508 172H647.96ZM654.609 162.316C655.851 162.316 656.751 163.144 656.751 164.764V165.7L655.635 165.916V164.98C655.635 164.026 655.311 163.396 654.339 163.396C653.241 163.396 652.413 164.206 652.413 166.132V172H651.189V162.46H652.413V163.648C652.917 162.748 653.763 162.316 654.609 162.316ZM659.581 160.732C658.987 160.732 658.501 160.264 658.501 159.652C658.501 159.04 658.987 158.572 659.581 158.572C660.175 158.572 660.661 159.04 660.661 159.652C660.661 160.264 660.175 160.732 659.581 160.732ZM658.969 172V162.46H660.193V172H658.969ZM669.178 162.46H670.438L666.694 172H665.614L661.87 162.46H663.202L666.19 170.65L669.178 162.46ZM680.542 162.316C682.45 162.316 683.566 163.486 683.566 165.628V172H682.342V165.808C682.342 164.08 681.55 163.432 680.218 163.432C678.544 163.432 677.77 164.728 677.77 166.636V172H676.546V158.68H677.77V163.936C678.346 162.892 679.39 162.316 680.542 162.316ZM692.828 169.3L693.728 169.804C693.278 170.956 692.09 172.144 689.966 172.144C687.284 172.144 685.7 170.146 685.7 167.104C685.7 164.314 687.356 162.316 689.84 162.316C691.892 162.316 693.656 163.792 693.656 166.384L693.62 167.446H686.942C687.05 169.984 688.256 171.064 690.092 171.064C691.532 171.064 692.378 170.236 692.828 169.3ZM689.84 163.396C688.4 163.396 687.104 164.17 686.942 166.438H692.45C692.504 164.296 691.244 163.396 689.84 163.396ZM699.464 162.316C700.706 162.316 701.606 163.144 701.606 164.764V165.7L700.49 165.916V164.98C700.49 164.026 700.166 163.396 699.194 163.396C698.096 163.396 697.268 164.206 697.268 166.132V172H696.044V162.46H697.268V163.648C697.772 162.748 698.618 162.316 699.464 162.316Z" fill="#808080"/>
<rect x="614" y="145" width="398" height="146" stroke="#2A2859" stroke-width="2"/>
<path d="M975.699 316.112C973.655 316.112 971.919 314.18 971.919 310.82C971.919 307.46 973.641 305.528 975.699 305.528C977.757 305.528 979.479 307.46 979.479 310.82C979.479 314.18 977.743 316.112 975.699 316.112ZM975.699 315.188C977.239 315.188 978.499 313.914 978.499 310.82C978.499 307.796 977.253 306.452 975.699 306.452C974.145 306.452 972.899 307.796 972.899 310.82C972.899 313.914 974.159 315.188 975.699 315.188ZM984.094 304.94H985.018L982.218 318.1H981.294L984.094 304.94ZM991.245 315.188H993.541V316H987.885V315.188H990.293V306.732L988.025 308.3V307.264L990.349 305.64H991.245V315.188ZM999.57 316.112C997.526 316.112 995.79 314.18 995.79 310.82C995.79 307.46 997.512 305.528 999.57 305.528C1001.63 305.528 1003.35 307.46 1003.35 310.82C1003.35 314.18 1001.61 316.112 999.57 316.112ZM999.57 315.188C1001.11 315.188 1002.37 313.914 1002.37 310.82C1002.37 307.796 1001.12 306.452 999.57 306.452C998.016 306.452 996.77 307.796 996.77 310.82C996.77 313.914 998.03 315.188 999.57 315.188ZM1008.52 316.112C1006.48 316.112 1004.74 314.18 1004.74 310.82C1004.74 307.46 1006.47 305.528 1008.52 305.528C1010.58 305.528 1012.3 307.46 1012.3 310.82C1012.3 314.18 1010.57 316.112 1008.52 316.112ZM1008.52 315.188C1010.06 315.188 1011.32 313.914 1011.32 310.82C1011.32 307.796 1010.08 306.452 1008.52 306.452C1006.97 306.452 1005.72 307.796 1005.72 310.82C1005.72 313.914 1006.98 315.188 1008.52 315.188Z" fill="#2A2859"/>
</svg>
