<svg width="1116" height="416" viewBox="0 0 1116 416" fill="none" xmlns="http://www.w3.org/2000/svg">
<g clip-path="url(#clip0_5614_38826)">
<rect width="1116" height="416" fill="white"/>
<mask id="path-1-inside-1_5614_38826" fill="white">
<path d="M0 55H552V416H0V55Z"/>
</mask>
<path d="M0 55H552V416H0V55Z" fill="white"/>
<path d="M552 416V417H553V416H552ZM0 416H-1V417H0V416ZM551 55V416H553V55H551ZM552 415H0V417H552V415ZM1 416V55H-1V416H1Z" fill="#E6E6E6" mask="url(#path-1-inside-1_5614_38826)"/>
<mask id="path-3-inside-2_5614_38826" fill="white">
<path d="M563 55H1116V416H563V55Z"/>
</mask>
<path d="M563 55H1116V416H563V55Z" fill="white"/>
<path d="M1116 416V417H1117V416H1116ZM563 416H562V417H563V416ZM1115 55V416H1117V55H1115ZM1116 415H563V417H1116V415ZM564 416V55H562V416H564Z" fill="#E6E6E6" mask="url(#path-3-inside-2_5614_38826)"/>
<rect x="0.5" y="0.5" width="550.12" height="53.97" stroke="#E6E6E6"/>
<rect x="563.575" y="0.5" width="551.316" height="53.97" stroke="#E6E6E6"/>
<path d="M0 43.9761H551.12V54.9701H0V43.9761Z" fill="#C7F6C9"/>
<path opacity="0.6" d="M563 43.9761H1115.32V54.9701H563V43.9761Z" fill="#FF8274"/>
<path d="M23.1212 28.144C19.8732 28.144 17.5212 25.776 17.5212 22.016C17.5212 18.368 20.0012 16.016 22.9932 16.016C25.0572 16.016 26.5612 16.96 27.3132 18.64L26.0492 19.296C25.4732 18.048 24.3212 17.376 22.9772 17.376C20.8332 17.376 19.0092 18.896 19.0092 22.016C19.0092 25.136 20.7372 26.848 23.2012 26.848C24.4012 26.848 25.2652 26.608 26.0652 26.144V22.896H21.8892V21.6H27.3452V26.8C26.2892 27.68 24.7052 28.144 23.1212 28.144ZM30.4282 18.032C29.8202 18.032 29.3402 17.568 29.3402 16.944C29.3402 16.336 29.8202 15.872 30.4282 15.872C31.0202 15.872 31.5002 16.336 31.5002 16.944C31.5002 17.568 31.0202 18.032 30.4282 18.032ZM29.1002 31.488C28.7802 31.488 28.4442 31.44 28.1402 31.344L28.2522 30.208C28.4762 30.288 28.6682 30.304 28.8282 30.304C29.5322 30.304 29.7402 29.84 29.7402 29.12V19.52H31.1162V29.104C31.1162 30.64 30.4602 31.488 29.1002 31.488ZM39.2179 20.096C40.2259 20.832 40.8659 22.112 40.8659 23.728C40.8659 26.416 39.1219 28.144 36.9939 28.144C36.4179 28.144 35.8579 28.016 35.3619 27.776L34.8499 28.8H34.0179L34.7219 27.392C33.7459 26.64 33.1059 25.36 33.1059 23.728C33.1059 21.088 34.8339 19.36 36.9939 19.36C37.5699 19.36 38.1139 19.488 38.5939 19.712L39.1059 18.704H39.9219L39.2179 20.096ZM34.5299 23.728C34.5299 24.864 34.8339 25.696 35.3139 26.224L38.0499 20.8C37.7299 20.64 37.3619 20.56 36.9939 20.56C35.6499 20.56 34.5299 21.568 34.5299 23.728ZM36.9939 26.944C38.3379 26.944 39.4419 25.888 39.4419 23.728C39.4419 22.592 39.1379 21.776 38.6419 21.248L35.9059 26.688C36.2419 26.864 36.6099 26.944 36.9939 26.944ZM46.2013 19.36C47.3533 19.36 48.1533 20.128 48.1533 21.584V22.528L46.9693 22.752V21.904C46.9693 21.088 46.6973 20.544 45.8493 20.544C44.8893 20.544 44.1853 21.216 44.1853 22.896V28H42.8093V19.52H44.1853V20.608C44.6493 19.744 45.4493 19.36 46.2013 19.36ZM53.5242 21.776C53.5242 20.4 54.8202 19.36 56.6922 19.36C58.2602 19.36 59.4122 20.048 59.8602 21.168L58.8202 21.696C58.4682 20.944 57.7002 20.528 56.6602 20.528C55.5722 20.528 54.8522 20.96 54.8522 21.68C54.8522 22.304 55.2522 22.672 56.1642 22.864L57.3962 23.104C59.2362 23.472 60.1162 24.288 60.1162 25.568C60.1162 27.088 58.7722 28.128 56.7882 28.128C55.0602 28.128 53.8282 27.456 53.2202 26.208L54.2762 25.648C54.7082 26.512 55.5562 26.976 56.7562 26.976C57.9722 26.976 58.7882 26.448 58.7882 25.648C58.7882 24.944 58.3722 24.56 57.3962 24.352L55.9402 24.064C54.3722 23.744 53.5242 22.944 53.5242 21.776ZM64.9506 27.968C64.6626 28.032 64.4066 28.08 64.1186 28.08C62.6786 28.08 61.9906 27.2 61.9906 25.824V16.16H63.3666V25.76C63.3666 26.496 63.7666 26.848 64.4386 26.848C64.5986 26.848 64.7746 26.832 64.9506 26.784V27.968ZM66.4721 16.064H68.3601V17.92H66.4721V16.064ZM66.7281 28V19.52H68.1041V28H66.7281ZM75.9651 28L73.0531 23.92L72.0451 24.912V28H70.6691V16.16H72.0451V23.328L75.8371 19.52H77.5811L73.9811 23.024L77.6451 28H75.9651Z" fill="#2A2859"/>
<path d="M586.002 28V16.16H587.426V28H586.002ZM595.269 28L592.357 23.92L591.349 24.912V28H589.973V16.16H591.349V23.328L595.141 19.52H596.885L593.285 23.024L596.949 28H595.269ZM603.85 28L600.938 23.92L599.93 24.912V28H598.554V16.16H599.93V23.328L603.722 19.52H605.466L601.866 23.024L605.53 28H603.85ZM612.287 25.488L613.263 26.032C612.815 27.088 611.743 28.144 609.839 28.144C607.391 28.144 605.935 26.32 605.935 23.664C605.935 21.136 607.487 19.36 609.711 19.36C611.599 19.36 613.215 20.688 613.215 23.04L613.183 24.016H607.311C607.407 26.096 608.415 26.976 609.951 26.976C611.119 26.976 611.871 26.304 612.287 25.488ZM609.711 20.512C608.511 20.512 607.471 21.136 607.311 22.944H611.871C611.887 21.232 610.847 20.512 609.711 20.512ZM618.725 21.776C618.725 20.4 620.021 19.36 621.893 19.36C623.461 19.36 624.613 20.048 625.061 21.168L624.021 21.696C623.669 20.944 622.901 20.528 621.861 20.528C620.773 20.528 620.053 20.96 620.053 21.68C620.053 22.304 620.453 22.672 621.365 22.864L622.597 23.104C624.437 23.472 625.317 24.288 625.317 25.568C625.317 27.088 623.973 28.128 621.989 28.128C620.261 28.128 619.029 27.456 618.421 26.208L619.477 25.648C619.909 26.512 620.757 26.976 621.957 26.976C623.173 26.976 623.989 26.448 623.989 25.648C623.989 24.944 623.573 24.56 622.597 24.352L621.141 24.064C619.573 23.744 618.725 22.944 618.725 21.776ZM630.151 27.968C629.863 28.032 629.607 28.08 629.319 28.08C627.879 28.08 627.191 27.2 627.191 25.824V16.16H628.567V25.76C628.567 26.496 628.967 26.848 629.639 26.848C629.799 26.848 629.975 26.832 630.151 26.784V27.968ZM632.617 18.032C632.009 18.032 631.529 17.568 631.529 16.944C631.529 16.336 632.009 15.872 632.617 15.872C633.209 15.872 633.689 16.336 633.689 16.944C633.689 17.568 633.209 18.032 632.617 18.032ZM631.929 28V19.52H633.305V28H631.929ZM641.166 28L638.254 23.92L637.246 24.912V28H635.87V16.16H637.246V23.328L641.038 19.52H642.782L639.182 23.024L642.846 28H641.166Z" fill="#2A2859"/>
<path d="M83.362 123.18C79.6 123.18 76.864 120.534 76.864 116.286C76.864 112.146 79.762 109.5 83.164 109.5C85.45 109.5 87.214 110.526 88.168 112.506L86.332 113.532C85.738 112.254 84.568 111.516 83.164 111.516C81.04 111.516 79.06 113.01 79.06 116.268C79.06 119.526 80.914 121.254 83.524 121.254C84.676 121.254 85.558 121.02 86.35 120.588V117.42H81.94V115.548H88.204V121.668C86.89 122.676 85.18 123.18 83.362 123.18ZM91.8715 111.876C91.0795 111.876 90.4495 111.264 90.4495 110.454C90.4495 109.644 91.0795 109.032 91.8715 109.032C92.6635 109.032 93.2755 109.644 93.2755 110.454C93.2755 111.264 92.6635 111.876 91.8715 111.876ZM90.8635 123V113.46H92.8795V123H90.8635ZM106.521 109.68H108.537V123H106.521V121.272C105.783 122.604 104.631 123.144 103.533 123.144C101.229 123.144 99.5726 121.164 99.5726 118.266C99.5726 115.26 101.247 113.262 103.767 113.262C104.847 113.262 105.927 113.748 106.521 114.918V109.68ZM104.073 121.38C105.531 121.38 106.521 120.39 106.521 118.158C106.521 115.944 105.549 114.882 104.073 114.882C102.687 114.882 101.661 115.998 101.661 118.158C101.661 120.3 102.687 121.38 104.073 121.38ZM110.947 109.32H113.413V111.75H110.947V109.32ZM111.181 123V113.46H113.197V123H111.181ZM120.885 113.244C122.829 113.244 123.981 114.504 123.981 116.574V123H121.965V116.898C121.965 115.584 121.335 114.99 120.237 114.99C118.815 114.99 118.095 115.98 118.095 117.834V123H116.079V113.46H118.095V114.828C118.743 113.82 119.697 113.244 120.885 113.244ZM133.813 120.048C133.813 121.11 134.461 121.434 135.127 121.434C135.649 121.434 136.063 121.218 136.477 120.804L137.341 122.1C136.621 122.82 135.829 123.162 134.803 123.162C133.147 123.162 131.797 122.154 131.797 120.174V115.026H130.123V113.46H131.797V111.336L133.813 110.418V113.46H137.179V115.026H133.813V120.048ZM140.095 111.876C139.303 111.876 138.673 111.264 138.673 110.454C138.673 109.644 139.303 109.032 140.095 109.032C140.887 109.032 141.499 109.644 141.499 110.454C141.499 111.264 140.887 111.876 140.095 111.876ZM139.087 123V113.46H141.103V123H139.087ZM147.818 122.946C147.44 123.054 147.062 123.108 146.666 123.108C144.848 123.108 143.984 122.028 143.984 120.282V109.68H146V120.138C146 120.966 146.486 121.344 147.224 121.344C147.404 121.344 147.602 121.326 147.818 121.272V122.946ZM154.871 113.262C157.175 113.262 158.831 115.224 158.831 118.14C158.831 121.128 157.157 123.144 154.637 123.144C153.539 123.144 152.477 122.658 151.865 121.47V123H149.849V109.68H151.865V115.17C152.603 113.82 153.773 113.262 154.871 113.262ZM154.331 121.488C155.717 121.488 156.743 120.372 156.743 118.23C156.743 116.088 155.717 114.99 154.331 114.99C152.855 114.99 151.865 115.998 151.865 118.212C151.865 120.426 152.855 121.488 154.331 121.488ZM168.637 123H166.783C166.639 122.514 166.549 121.938 166.513 121.2C166.063 122.19 165.055 123.162 163.399 123.162C161.671 123.162 160.447 121.992 160.447 120.336C160.447 118.266 162.283 117.24 164.335 117.24C164.983 117.24 165.595 117.294 166.261 117.474V116.574C166.261 115.548 165.613 114.882 164.443 114.882C163.345 114.882 162.571 115.476 162.211 116.592L160.501 116.07C161.185 114.054 162.823 113.244 164.533 113.244C167.071 113.244 168.223 114.738 168.223 116.556V120.246C168.223 121.38 168.403 122.388 168.637 123ZM166.261 119.058V118.842C165.685 118.644 165.127 118.572 164.533 118.572C163.345 118.572 162.427 119.112 162.427 120.156C162.427 121.038 163.057 121.596 164.011 121.596C164.983 121.596 166.261 121.02 166.261 119.058ZM177.064 123L174.166 118.626L173.068 119.706V123H171.052V109.68H173.068V117.42L176.92 113.46H179.404L175.498 117.312L179.476 123H177.064ZM187.072 119.994L188.44 120.786C187.9 121.974 186.64 123.162 184.462 123.162C181.636 123.162 179.926 121.074 179.926 118.14C179.926 115.242 181.78 113.244 184.318 113.244C186.568 113.244 188.422 114.756 188.422 117.456L188.386 118.644H181.906C182.014 120.66 183.004 121.524 184.588 121.524C185.758 121.524 186.568 120.894 187.072 119.994ZM184.318 114.828C183.094 114.828 182.068 115.476 181.906 117.204H186.46C186.478 115.512 185.434 114.828 184.318 114.828ZM201.221 113.244C203.129 113.244 204.227 114.486 204.227 116.484V123H202.211V116.826C202.211 115.566 201.617 114.99 200.573 114.99C199.169 114.99 198.467 115.962 198.467 117.834V123H196.451V116.826C196.451 115.566 195.857 114.99 194.813 114.99C193.427 114.99 192.725 115.962 192.725 117.834V123H190.709V113.46H192.725V114.81C193.373 113.784 194.309 113.244 195.461 113.244C196.919 113.244 197.873 113.946 198.287 115.134C198.935 113.874 199.943 113.244 201.221 113.244ZM213.531 119.994L214.899 120.786C214.359 121.974 213.099 123.162 210.921 123.162C208.095 123.162 206.385 121.074 206.385 118.14C206.385 115.242 208.239 113.244 210.777 113.244C213.027 113.244 214.881 114.756 214.881 117.456L214.845 118.644H208.365C208.473 120.66 209.463 121.524 211.047 121.524C212.217 121.524 213.027 120.894 213.531 119.994ZM210.777 114.828C209.553 114.828 208.527 115.476 208.365 117.204H212.919C212.937 115.512 211.893 114.828 210.777 114.828ZM221.002 122.946C220.624 123.054 220.246 123.108 219.85 123.108C218.032 123.108 217.168 122.028 217.168 120.282V109.68H219.184V120.138C219.184 120.966 219.67 121.344 220.408 121.344C220.588 121.344 220.786 121.326 221.002 121.272V122.946ZM229.07 109.68H231.086V123H229.07V121.272C228.332 122.604 227.18 123.144 226.082 123.144C223.778 123.144 222.122 121.164 222.122 118.266C222.122 115.26 223.796 113.262 226.316 113.262C227.396 113.262 228.476 113.748 229.07 114.918V109.68ZM226.622 121.38C228.08 121.38 229.07 120.39 229.07 118.158C229.07 115.944 228.098 114.882 226.622 114.882C225.236 114.882 224.21 115.998 224.21 118.158C224.21 120.3 225.236 121.38 226.622 121.38ZM233.497 109.32H235.963V111.75H233.497V109.32ZM233.731 123V113.46H235.747V123H233.731ZM243.435 113.244C245.379 113.244 246.531 114.504 246.531 116.574V123H244.515V116.898C244.515 115.584 243.885 114.99 242.787 114.99C241.365 114.99 240.645 115.98 240.645 117.834V123H238.629V113.46H240.645V114.828C241.293 113.82 242.247 113.244 243.435 113.244ZM258.419 115.026H256.421V115.242C256.745 115.692 256.907 116.214 256.907 116.754C256.907 118.482 255.575 120.21 252.803 120.21H252.335C251.363 120.21 250.733 120.534 250.733 121.11C250.733 121.506 251.039 121.794 251.651 121.794H255.629C257.267 121.794 258.203 122.64 258.203 123.936C258.203 125.898 256.205 127.032 253.019 127.032C250.229 127.032 248.357 126.33 247.871 124.476L249.833 124.098C250.283 125.25 251.327 125.556 253.073 125.556C254.945 125.556 256.277 125.052 256.277 124.17C256.277 123.756 256.043 123.45 255.395 123.45H251.057C249.563 123.45 248.789 122.64 248.789 121.632C248.789 120.66 249.653 119.886 250.841 119.652C249.527 119.076 248.879 117.852 248.879 116.7C248.879 114.99 250.265 113.244 252.911 113.244C254.081 113.244 254.999 113.658 255.539 114.252V113.46H258.419V115.026ZM252.911 118.752C254.297 118.752 254.945 117.78 254.945 116.736C254.945 115.692 254.297 114.738 252.911 114.738C251.543 114.738 250.877 115.692 250.877 116.736C250.877 117.78 251.543 118.752 252.911 118.752Z" fill="#2A2859"/>
<rect width="62" height="22" transform="translate(267 106)" fill="#E5FCFF"/>
<path d="M278.924 111.64H279.96L276.166 122H275.186L271.42 111.64H272.484L275.69 120.866L278.924 111.64ZM285.992 122H285.124C285.012 121.594 284.928 121.104 284.928 120.544C284.55 121.412 283.584 122.112 282.38 122.112C281.064 122.112 280.07 121.258 280.07 119.984C280.07 118.458 281.442 117.66 282.968 117.66C283.57 117.66 284.158 117.73 284.76 117.94V116.96C284.76 115.994 284.172 115.336 283.024 115.336C282.1 115.336 281.316 115.742 280.924 116.876L280.084 116.624C280.644 115.056 281.778 114.468 283.08 114.468C284.914 114.468 285.684 115.574 285.684 116.848V119.9C285.684 120.74 285.824 121.496 285.992 122ZM284.76 118.92V118.752C284.186 118.514 283.598 118.444 283.024 118.444C281.904 118.444 281.022 118.948 281.022 119.928C281.022 120.824 281.652 121.3 282.548 121.3C283.514 121.3 284.76 120.726 284.76 118.92ZM290.415 121.972C290.191 122.028 290.009 122.056 289.799 122.056C288.637 122.056 288.091 121.328 288.091 120.236V111.64H289.043V120.236C289.043 120.866 289.379 121.188 289.967 121.188C290.121 121.188 290.275 121.174 290.415 121.132V121.972ZM298.542 115.364H296.946V115.63C297.31 116.078 297.506 116.638 297.506 117.184C297.506 118.542 296.526 119.928 294.44 119.928H294.118C293.278 119.928 292.676 120.25 292.676 120.74C292.676 121.118 292.97 121.384 293.586 121.384H296.596C297.8 121.384 298.416 121.972 298.416 122.896C298.416 124.366 296.722 125.136 294.636 125.136C292.76 125.136 291.458 124.534 291.01 123.232L291.78 122.882C292.298 124.1 293.39 124.338 294.636 124.338C296.176 124.338 297.464 123.876 297.464 122.98C297.464 122.56 297.24 122.252 296.568 122.252H293.376C292.34 122.252 291.724 121.762 291.724 120.992C291.724 120.334 292.27 119.76 293.18 119.522C292.2 119.13 291.654 118.094 291.654 117.184C291.654 115.854 292.648 114.468 294.608 114.468C295.378 114.468 295.966 114.72 296.414 115.098V114.58H298.542V115.364ZM294.594 119.144C295.91 119.144 296.568 118.234 296.568 117.184C296.568 116.148 295.91 115.28 294.594 115.28C293.264 115.28 292.592 116.162 292.592 117.184C292.592 118.22 293.264 119.144 294.594 119.144ZM301.237 113.544V114.58H303.309V115.364H301.237V122H300.285V115.364H298.885V114.58H300.285V113.544C300.285 112.256 301.125 111.528 302.273 111.528C302.805 111.528 303.421 111.738 303.771 112.298L303.197 112.872C302.973 112.536 302.637 112.34 302.245 112.34C301.755 112.34 301.237 112.634 301.237 113.544ZM307.417 114.468C308.383 114.468 309.083 115.112 309.083 116.372V117.1L308.215 117.268V116.54C308.215 115.798 307.963 115.308 307.207 115.308C306.353 115.308 305.709 115.938 305.709 117.436V122H304.757V114.58H305.709V115.504C306.101 114.804 306.759 114.468 307.417 114.468ZM311.44 113.236C310.978 113.236 310.6 112.872 310.6 112.396C310.6 111.92 310.978 111.556 311.44 111.556C311.902 111.556 312.28 111.92 312.28 112.396C312.28 112.872 311.902 113.236 311.44 113.236ZM310.964 122V114.58H311.916V122H310.964ZM315.811 120.152C315.811 121.02 316.329 121.272 316.791 121.272C317.239 121.272 317.533 121.104 317.883 120.74L318.387 121.3C317.897 121.874 317.365 122.112 316.707 122.112C315.699 122.112 314.859 121.44 314.859 120.124V115.364H313.459V114.58H314.859V112.984L315.811 112.424V114.58H318.219V115.364H315.811V120.152ZM321.225 120.152C321.225 121.02 321.743 121.272 322.205 121.272C322.653 121.272 322.947 121.104 323.297 120.74L323.801 121.3C323.311 121.874 322.779 122.112 322.121 122.112C321.113 122.112 320.273 121.44 320.273 120.124V115.364H318.873V114.58H320.273V112.984L321.225 112.424V114.58H323.633V115.364H321.225V120.152Z" fill="#2A2859"/>
<path d="M77.232 155V144.64H78.212V155H77.232ZM85.2693 155L82.5393 151.318L81.6293 152.186V155H80.6773V144.64H81.6293V151.066L85.1573 147.58H86.4173L83.1833 150.688L86.4733 155H85.2693ZM92.6931 155L89.9631 151.318L89.0531 152.186V155H88.1011V144.64H89.0531V151.066L92.5811 147.58H93.8411L90.6071 150.688L93.8971 155H92.6931ZM100.004 152.9L100.704 153.292C100.354 154.188 99.4304 155.112 97.7784 155.112C95.6924 155.112 94.4604 153.558 94.4604 151.192C94.4604 149.022 95.7484 147.468 97.6804 147.468C99.2764 147.468 100.648 148.616 100.648 150.632L100.62 151.458H95.4264C95.5104 153.432 96.4484 154.272 97.8764 154.272C98.9964 154.272 99.6544 153.628 100.004 152.9ZM97.6804 148.308C96.5604 148.308 95.5524 148.91 95.4264 150.674H99.7104C99.7524 149.008 98.7724 148.308 97.6804 148.308ZM105.879 149.512C105.879 148.336 106.985 147.468 108.539 147.468C109.883 147.468 110.919 148.112 111.227 149.092L110.443 149.4C110.149 148.686 109.463 148.308 108.511 148.308C107.475 148.308 106.803 148.742 106.803 149.428C106.803 150.044 107.209 150.422 108.091 150.604L109.071 150.8C110.695 151.122 111.451 151.822 111.451 152.928C111.451 154.216 110.303 155.112 108.651 155.112C107.153 155.112 106.103 154.524 105.599 153.404L106.411 153.068C106.761 153.852 107.531 154.272 108.623 154.272C109.771 154.272 110.527 153.768 110.527 153.012C110.527 152.312 110.135 151.934 109.155 151.724L107.951 151.472C106.593 151.192 105.879 150.506 105.879 149.512ZM117.945 155L115.215 151.318L114.305 152.186V155H113.353V144.64H114.305V151.066L117.833 147.58H119.093L115.859 150.688L119.149 155H117.945ZM123.272 147.468C124.238 147.468 124.938 148.112 124.938 149.372V150.1L124.07 150.268V149.54C124.07 148.798 123.818 148.308 123.062 148.308C122.208 148.308 121.564 148.938 121.564 150.436V155H120.612V147.58H121.564V148.504C121.956 147.804 122.614 147.468 123.272 147.468ZM127.295 146.236C126.833 146.236 126.455 145.872 126.455 145.396C126.455 144.92 126.833 144.556 127.295 144.556C127.757 144.556 128.135 144.92 128.135 145.396C128.135 145.872 127.757 146.236 127.295 146.236ZM126.819 155V147.58H127.771V155H126.819ZM134.915 147.58H135.895L132.983 155H132.143L129.231 147.58H130.267L132.591 153.95L134.915 147.58ZM144.317 147.482C146.207 147.482 147.481 149.064 147.481 151.22C147.481 153.502 146.193 155.112 144.205 155.112C143.169 155.112 142.329 154.594 141.881 153.656V157.94H140.929V147.58H141.881V148.966C142.371 148.014 143.351 147.482 144.317 147.482ZM144.205 154.272C145.591 154.272 146.501 153.208 146.501 151.262C146.501 149.386 145.591 148.322 144.219 148.322C142.735 148.322 141.881 149.428 141.881 151.248C141.881 153.18 142.721 154.272 144.205 154.272ZM154.487 152.9L155.187 153.292C154.837 154.188 153.913 155.112 152.261 155.112C150.175 155.112 148.943 153.558 148.943 151.192C148.943 149.022 150.231 147.468 152.163 147.468C153.759 147.468 155.131 148.616 155.131 150.632L155.103 151.458H149.909C149.993 153.432 150.931 154.272 152.359 154.272C153.479 154.272 154.137 153.628 154.487 152.9ZM152.163 148.308C151.043 148.308 150.035 148.91 149.909 150.674H154.193C154.235 149.008 153.255 148.308 152.163 148.308ZM159.803 147.468C160.769 147.468 161.469 148.112 161.469 149.372V150.1L160.601 150.268V149.54C160.601 148.798 160.349 148.308 159.593 148.308C158.739 148.308 158.095 148.938 158.095 150.436V155H157.143V147.58H158.095V148.504C158.487 147.804 159.145 147.468 159.803 147.468ZM162.713 149.512C162.713 148.336 163.819 147.468 165.373 147.468C166.717 147.468 167.753 148.112 168.061 149.092L167.277 149.4C166.983 148.686 166.297 148.308 165.345 148.308C164.309 148.308 163.637 148.742 163.637 149.428C163.637 150.044 164.043 150.422 164.925 150.604L165.905 150.8C167.529 151.122 168.285 151.822 168.285 152.928C168.285 154.216 167.137 155.112 165.485 155.112C163.987 155.112 162.937 154.524 162.433 153.404L163.245 153.068C163.595 153.852 164.365 154.272 165.457 154.272C166.605 154.272 167.361 153.768 167.361 153.012C167.361 152.312 166.969 151.934 165.989 151.724L164.785 151.472C163.427 151.192 162.713 150.506 162.713 149.512ZM172.987 155.112C171.153 155.112 169.683 153.6 169.683 151.276C169.683 148.98 171.139 147.468 172.987 147.468C174.835 147.468 176.291 148.98 176.291 151.276C176.291 153.6 174.821 155.112 172.987 155.112ZM172.987 154.272C174.261 154.272 175.311 153.264 175.311 151.276C175.311 149.302 174.247 148.308 172.987 148.308C171.727 148.308 170.663 149.302 170.663 151.276C170.663 153.264 171.713 154.272 172.987 154.272ZM181.333 147.468C182.817 147.468 183.685 148.378 183.685 150.044V155H182.733V150.184C182.733 148.84 182.117 148.336 181.081 148.336C179.779 148.336 179.177 149.344 179.177 150.828V155H178.225V147.58H179.177V148.728C179.625 147.916 180.437 147.468 181.333 147.468ZM188.301 154.972C188.077 155.028 187.895 155.056 187.685 155.056C186.523 155.056 185.977 154.328 185.977 153.236V144.64H186.929V153.236C186.929 153.866 187.265 154.188 187.853 154.188C188.007 154.188 188.161 154.174 188.301 154.132V154.972ZM189.786 144.696H191.242V146.124H189.786V144.696ZM190.038 155V147.58H190.99V155H190.038ZM200.065 148.364H198.469V148.63C198.833 149.078 199.029 149.638 199.029 150.184C199.029 151.542 198.049 152.928 195.963 152.928H195.641C194.801 152.928 194.199 153.25 194.199 153.74C194.199 154.118 194.493 154.384 195.109 154.384H198.119C199.323 154.384 199.939 154.972 199.939 155.896C199.939 157.366 198.245 158.136 196.159 158.136C194.283 158.136 192.981 157.534 192.533 156.232L193.303 155.882C193.821 157.1 194.913 157.338 196.159 157.338C197.699 157.338 198.987 156.876 198.987 155.98C198.987 155.56 198.763 155.252 198.091 155.252H194.899C193.863 155.252 193.247 154.762 193.247 153.992C193.247 153.334 193.793 152.76 194.703 152.522C193.723 152.13 193.177 151.094 193.177 150.184C193.177 148.854 194.171 147.468 196.131 147.468C196.901 147.468 197.489 147.72 197.937 148.098V147.58H200.065V148.364ZM196.117 152.144C197.433 152.144 198.091 151.234 198.091 150.184C198.091 149.148 197.433 148.28 196.117 148.28C194.787 148.28 194.115 149.162 194.115 150.184C194.115 151.22 194.787 152.144 196.117 152.144ZM206.057 152.9L206.757 153.292C206.407 154.188 205.483 155.112 203.831 155.112C201.745 155.112 200.513 153.558 200.513 151.192C200.513 149.022 201.801 147.468 203.733 147.468C205.329 147.468 206.701 148.616 206.701 150.632L206.673 151.458H201.479C201.563 153.432 202.501 154.272 203.929 154.272C205.049 154.272 205.707 153.628 206.057 152.9ZM203.733 148.308C202.613 148.308 201.605 148.91 201.479 150.674H205.763C205.805 149.008 204.825 148.308 203.733 148.308ZM215.124 155.112C213.29 155.112 211.82 153.6 211.82 151.276C211.82 148.98 213.276 147.468 215.124 147.468C216.972 147.468 218.428 148.98 218.428 151.276C218.428 153.6 216.958 155.112 215.124 155.112ZM215.124 154.272C216.398 154.272 217.448 153.264 217.448 151.276C217.448 149.302 216.384 148.308 215.124 148.308C213.864 148.308 212.8 149.302 212.8 151.276C212.8 153.264 213.85 154.272 215.124 154.272ZM223.75 147.482C225.64 147.482 226.914 149.064 226.914 151.22C226.914 153.502 225.626 155.112 223.638 155.112C222.602 155.112 221.762 154.594 221.314 153.656V157.94H220.362V147.58H221.314V148.966C221.804 148.014 222.784 147.482 223.75 147.482ZM223.638 154.272C225.024 154.272 225.934 153.208 225.934 151.262C225.934 149.386 225.024 148.322 223.652 148.322C222.168 148.322 221.314 149.428 221.314 151.248C221.314 153.18 222.154 154.272 223.638 154.272ZM232.24 147.482C234.13 147.482 235.404 149.064 235.404 151.22C235.404 153.502 234.116 155.112 232.128 155.112C231.092 155.112 230.252 154.594 229.804 153.656V157.94H228.852V147.58H229.804V148.966C230.294 148.014 231.274 147.482 232.24 147.482ZM232.128 154.272C233.514 154.272 234.424 153.208 234.424 151.262C234.424 149.386 233.514 148.322 232.142 148.322C230.658 148.322 229.804 149.428 229.804 151.248C229.804 153.18 230.644 154.272 232.128 154.272ZM239.667 154.972C239.443 155.028 239.261 155.056 239.051 155.056C237.889 155.056 237.343 154.328 237.343 153.236V144.64H238.295V153.236C238.295 153.866 238.631 154.188 239.219 154.188C239.373 154.188 239.527 154.174 239.667 154.132V154.972ZM246.044 147.58H247.024L243.762 156.022C243.272 157.282 242.726 158.08 241.578 158.08C241.074 158.08 240.612 157.898 240.262 157.576L240.682 156.89C240.962 157.142 241.228 157.254 241.55 157.254C242.068 157.254 242.432 157.03 242.796 156.176L243.23 155.126L240.444 147.58H241.48L243.72 154.006L246.044 147.58ZM247.779 149.512C247.779 148.336 248.885 147.468 250.439 147.468C251.783 147.468 252.819 148.112 253.127 149.092L252.343 149.4C252.049 148.686 251.363 148.308 250.411 148.308C249.375 148.308 248.703 148.742 248.703 149.428C248.703 150.044 249.109 150.422 249.991 150.604L250.971 150.8C252.595 151.122 253.351 151.822 253.351 152.928C253.351 154.216 252.203 155.112 250.551 155.112C249.053 155.112 248.003 154.524 247.499 153.404L248.311 153.068C248.661 153.852 249.431 154.272 250.523 154.272C251.671 154.272 252.427 153.768 252.427 153.012C252.427 152.312 252.035 151.934 251.055 151.724L249.851 151.472C248.493 151.192 247.779 150.506 247.779 149.512ZM258.333 147.468C259.817 147.468 260.685 148.378 260.685 150.044V155H259.733V150.184C259.733 148.84 259.117 148.336 258.081 148.336C256.779 148.336 256.177 149.344 256.177 150.828V155H255.225V147.58H256.177V148.728C256.625 147.916 257.437 147.468 258.333 147.468ZM263.453 146.236C262.991 146.236 262.613 145.872 262.613 145.396C262.613 144.92 262.991 144.556 263.453 144.556C263.915 144.556 264.293 144.92 264.293 145.396C264.293 145.872 263.915 146.236 263.453 146.236ZM262.977 155V147.58H263.929V155H262.977ZM269.449 147.468C270.933 147.468 271.801 148.378 271.801 150.044V155H270.849V150.184C270.849 148.84 270.233 148.336 269.197 148.336C267.895 148.336 267.293 149.344 267.293 150.828V155H266.341V147.58H267.293V148.728C267.741 147.916 268.553 147.468 269.449 147.468ZM280.757 148.364H279.161V148.63C279.525 149.078 279.721 149.638 279.721 150.184C279.721 151.542 278.741 152.928 276.655 152.928H276.333C275.493 152.928 274.891 153.25 274.891 153.74C274.891 154.118 275.185 154.384 275.801 154.384H278.811C280.015 154.384 280.631 154.972 280.631 155.896C280.631 157.366 278.937 158.136 276.851 158.136C274.975 158.136 273.673 157.534 273.225 156.232L273.995 155.882C274.513 157.1 275.605 157.338 276.851 157.338C278.391 157.338 279.679 156.876 279.679 155.98C279.679 155.56 279.455 155.252 278.783 155.252H275.591C274.555 155.252 273.939 154.762 273.939 153.992C273.939 153.334 274.485 152.76 275.395 152.522C274.415 152.13 273.869 151.094 273.869 150.184C273.869 148.854 274.863 147.468 276.823 147.468C277.593 147.468 278.181 147.72 278.629 148.098V147.58H280.757V148.364ZM276.809 152.144C278.125 152.144 278.783 151.234 278.783 150.184C278.783 149.148 278.125 148.28 276.809 148.28C275.479 148.28 274.807 149.162 274.807 150.184C274.807 151.22 275.479 152.144 276.809 152.144ZM286.749 152.9L287.449 153.292C287.099 154.188 286.175 155.112 284.523 155.112C282.437 155.112 281.205 153.558 281.205 151.192C281.205 149.022 282.493 147.468 284.425 147.468C286.021 147.468 287.393 148.616 287.393 150.632L287.365 151.458H282.171C282.255 153.432 283.193 154.272 284.621 154.272C285.741 154.272 286.399 153.628 286.749 152.9ZM284.425 148.308C283.305 148.308 282.297 148.91 282.171 150.674H286.455C286.497 149.008 285.517 148.308 284.425 148.308ZM292.065 147.468C293.031 147.468 293.731 148.112 293.731 149.372V150.1L292.863 150.268V149.54C292.863 148.798 292.611 148.308 291.855 148.308C291.001 148.308 290.357 148.938 290.357 150.436V155H289.405V147.58H290.357V148.504C290.749 147.804 291.407 147.468 292.065 147.468ZM293.601 153.432H295.113V155H293.601V153.432ZM302.874 143.8H303.798C302.79 146.04 302.286 148.238 302.286 150.478C302.286 152.718 302.79 154.874 303.798 157.1H302.874C301.824 154.874 301.306 152.732 301.306 150.478C301.306 148.224 301.838 146.026 302.874 143.8ZM312.083 144.64H313.063V155H312.083V150.24H306.819V155H305.839V144.64H306.819V149.316H312.083V144.64ZM320.573 152.9L321.273 153.292C320.923 154.188 319.999 155.112 318.347 155.112C316.261 155.112 315.029 153.558 315.029 151.192C315.029 149.022 316.317 147.468 318.249 147.468C319.845 147.468 321.217 148.616 321.217 150.632L321.189 151.458H315.995C316.079 153.432 317.017 154.272 318.445 154.272C319.565 154.272 320.223 153.628 320.573 152.9ZM318.249 148.308C317.129 148.308 316.121 148.91 315.995 150.674H320.279C320.321 149.008 319.341 148.308 318.249 148.308ZM326.337 147.468C327.821 147.468 328.689 148.378 328.689 150.044V155H327.737V150.184C327.737 148.84 327.121 148.336 326.085 148.336C324.783 148.336 324.181 149.344 324.181 150.828V155H323.229V147.58H324.181V148.728C324.629 147.916 325.441 147.468 326.337 147.468ZM336.105 144.64H337.057V155H336.105V153.614C335.615 154.566 334.635 155.098 333.669 155.098C331.779 155.098 330.505 153.516 330.505 151.36C330.505 149.078 331.793 147.468 333.781 147.468C334.817 147.468 335.657 147.986 336.105 148.924V144.64ZM333.767 154.258C335.251 154.258 336.105 153.152 336.105 151.332C336.105 149.4 335.265 148.308 333.781 148.308C332.395 148.308 331.485 149.372 331.485 151.318C331.485 153.194 332.395 154.258 333.767 154.258ZM344.135 147.58H345.115L342.203 155H341.363L338.451 147.58H339.487L341.811 153.95L344.135 147.58ZM351.362 152.9L352.062 153.292C351.712 154.188 350.788 155.112 349.136 155.112C347.05 155.112 345.818 153.558 345.818 151.192C345.818 149.022 347.106 147.468 349.038 147.468C350.634 147.468 352.006 148.616 352.006 150.632L351.978 151.458H346.784C346.868 153.432 347.806 154.272 349.234 154.272C350.354 154.272 351.012 153.628 351.362 152.9ZM349.038 148.308C347.918 148.308 346.91 148.91 346.784 150.674H351.068C351.11 149.008 350.13 148.308 349.038 148.308ZM357.126 147.468C358.61 147.468 359.478 148.378 359.478 150.044V155H358.526V150.184C358.526 148.84 357.91 148.336 356.874 148.336C355.572 148.336 354.97 149.344 354.97 150.828V155H354.018V147.58H354.97V148.728C355.418 147.916 356.23 147.468 357.126 147.468ZM366.894 144.64H367.846V155H366.894V153.614C366.404 154.566 365.424 155.098 364.458 155.098C362.568 155.098 361.294 153.516 361.294 151.36C361.294 149.078 362.582 147.468 364.57 147.468C365.606 147.468 366.446 147.986 366.894 148.924V144.64ZM364.556 154.258C366.04 154.258 366.894 153.152 366.894 151.332C366.894 149.4 366.054 148.308 364.57 148.308C363.184 148.308 362.274 149.372 362.274 151.318C362.274 153.194 363.184 154.258 364.556 154.258ZM375.26 152.9L375.96 153.292C375.61 154.188 374.686 155.112 373.034 155.112C370.948 155.112 369.716 153.558 369.716 151.192C369.716 149.022 371.004 147.468 372.936 147.468C374.532 147.468 375.904 148.616 375.904 150.632L375.876 151.458H370.682C370.766 153.432 371.704 154.272 373.132 154.272C374.252 154.272 374.91 153.628 375.26 152.9ZM372.936 148.308C371.816 148.308 370.808 148.91 370.682 150.674H374.966C375.008 149.008 374.028 148.308 372.936 148.308ZM380.241 154.972C380.017 155.028 379.835 155.056 379.625 155.056C378.463 155.056 377.917 154.328 377.917 153.236V144.64H378.869V153.236C378.869 153.866 379.205 154.188 379.793 154.188C379.947 154.188 380.101 154.174 380.241 154.132V154.972ZM381.613 149.512C381.613 148.336 382.719 147.468 384.273 147.468C385.617 147.468 386.653 148.112 386.961 149.092L386.177 149.4C385.883 148.686 385.197 148.308 384.245 148.308C383.209 148.308 382.537 148.742 382.537 149.428C382.537 150.044 382.943 150.422 383.825 150.604L384.805 150.8C386.429 151.122 387.185 151.822 387.185 152.928C387.185 154.216 386.037 155.112 384.385 155.112C382.887 155.112 381.837 154.524 381.333 153.404L382.145 153.068C382.495 153.852 383.265 154.272 384.357 154.272C385.505 154.272 386.261 153.768 386.261 153.012C386.261 152.312 385.869 151.934 384.889 151.724L383.685 151.472C382.327 151.192 381.613 150.506 381.613 149.512ZM394.127 152.9L394.827 153.292C394.477 154.188 393.553 155.112 391.901 155.112C389.815 155.112 388.583 153.558 388.583 151.192C388.583 149.022 389.871 147.468 391.803 147.468C393.399 147.468 394.771 148.616 394.771 150.632L394.743 151.458H389.549C389.633 153.432 390.571 154.272 391.999 154.272C393.119 154.272 393.777 153.628 394.127 152.9ZM391.803 148.308C390.683 148.308 389.675 148.91 389.549 150.674H393.833C393.875 149.008 392.895 148.308 391.803 148.308ZM399.444 147.468C400.41 147.468 401.11 148.112 401.11 149.372V150.1L400.242 150.268V149.54C400.242 148.798 399.99 148.308 399.234 148.308C398.38 148.308 397.736 148.938 397.736 150.436V155H396.784V147.58H397.736V148.504C398.128 147.804 398.786 147.468 399.444 147.468ZM409.989 147.482C411.879 147.482 413.153 149.064 413.153 151.22C413.153 153.502 411.865 155.112 409.877 155.112C408.841 155.112 408.001 154.594 407.553 153.656V155H406.601V144.64H407.553V148.966C408.043 148.014 409.023 147.482 409.989 147.482ZM409.877 154.272C411.263 154.272 412.173 153.208 412.173 151.262C412.173 149.386 411.263 148.322 409.891 148.322C408.407 148.322 407.553 149.428 407.553 151.248C407.553 153.18 408.393 154.272 409.877 154.272ZM417.415 154.972C417.191 155.028 417.009 155.056 416.799 155.056C415.637 155.056 415.091 154.328 415.091 153.236V144.64H416.043V153.236C416.043 153.866 416.379 154.188 416.967 154.188C417.121 154.188 417.275 154.174 417.415 154.132V154.972ZM419.627 146.236C419.165 146.236 418.787 145.872 418.787 145.396C418.787 144.92 419.165 144.556 419.627 144.556C420.089 144.556 420.467 144.92 420.467 145.396C420.467 145.872 420.089 146.236 419.627 146.236ZM419.151 155V147.58H420.103V155H419.151ZM425.175 147.468C426.141 147.468 426.841 148.112 426.841 149.372V150.1L425.973 150.268V149.54C425.973 148.798 425.721 148.308 424.965 148.308C424.111 148.308 423.467 148.938 423.467 150.436V155H422.515V147.58H423.467V148.504C423.859 147.804 424.517 147.468 425.175 147.468ZM432.052 144.696H433.508V146.124H432.052V144.696ZM432.304 155V147.58H433.256V155H432.304ZM440.287 155L437.557 151.318L436.647 152.186V155H435.695V144.64H436.647V151.066L440.175 147.58H441.435L438.201 150.688L441.491 155H440.287ZM447.711 155L444.981 151.318L444.071 152.186V155H443.119V144.64H444.071V151.066L447.599 147.58H448.859L445.625 150.688L448.915 155H447.711ZM455.022 152.9L455.722 153.292C455.372 154.188 454.448 155.112 452.796 155.112C450.71 155.112 449.478 153.558 449.478 151.192C449.478 149.022 450.766 147.468 452.698 147.468C454.294 147.468 455.666 148.616 455.666 150.632L455.638 151.458H450.444C450.528 153.432 451.466 154.272 452.894 154.272C454.014 154.272 454.672 153.628 455.022 152.9ZM452.698 148.308C451.578 148.308 450.57 148.91 450.444 150.674H454.728C454.77 149.008 453.79 148.308 452.698 148.308ZM80.62 169.482C82.51 169.482 83.784 171.064 83.784 173.22C83.784 175.502 82.496 177.112 80.508 177.112C79.472 177.112 78.632 176.594 78.184 175.656V177H77.232V166.64H78.184V170.966C78.674 170.014 79.654 169.482 80.62 169.482ZM80.508 176.272C81.894 176.272 82.804 175.208 82.804 173.262C82.804 171.386 81.894 170.322 80.522 170.322C79.038 170.322 78.184 171.428 78.184 173.248C78.184 175.18 79.024 176.272 80.508 176.272ZM90.7896 174.9L91.4896 175.292C91.1396 176.188 90.2156 177.112 88.5636 177.112C86.4776 177.112 85.2456 175.558 85.2456 173.192C85.2456 171.022 86.5336 169.468 88.4656 169.468C90.0616 169.468 91.4336 170.616 91.4336 172.632L91.4056 173.458H86.2116C86.2956 175.432 87.2336 176.272 88.6616 176.272C89.7816 176.272 90.4396 175.628 90.7896 174.9ZM88.4656 170.308C87.3456 170.308 86.3376 170.91 86.2116 172.674H90.4956C90.5376 171.008 89.5576 170.308 88.4656 170.308ZM93.0822 171.512C93.0822 170.336 94.1882 169.468 95.7422 169.468C97.0862 169.468 98.1222 170.112 98.4302 171.092L97.6462 171.4C97.3522 170.686 96.6662 170.308 95.7142 170.308C94.6782 170.308 94.0062 170.742 94.0062 171.428C94.0062 172.044 94.4122 172.422 95.2942 172.604L96.2742 172.8C97.8982 173.122 98.6542 173.822 98.6542 174.928C98.6542 176.216 97.5062 177.112 95.8542 177.112C94.3562 177.112 93.3062 176.524 92.8022 175.404L93.6142 175.068C93.9642 175.852 94.7342 176.272 95.8262 176.272C96.9742 176.272 97.7302 175.768 97.7302 175.012C97.7302 174.312 97.3382 173.934 96.3582 173.724L95.1542 173.472C93.7962 173.192 93.0822 172.506 93.0822 171.512ZM105.124 169.58H106.104L103.192 177H102.352L99.4395 169.58H100.476L102.8 175.95L105.124 169.58ZM112.812 177H111.944C111.832 176.594 111.748 176.104 111.748 175.544C111.37 176.412 110.404 177.112 109.2 177.112C107.884 177.112 106.89 176.258 106.89 174.984C106.89 173.458 108.262 172.66 109.788 172.66C110.39 172.66 110.978 172.73 111.58 172.94V171.96C111.58 170.994 110.992 170.336 109.844 170.336C108.92 170.336 108.136 170.742 107.744 171.876L106.904 171.624C107.464 170.056 108.598 169.468 109.9 169.468C111.734 169.468 112.504 170.574 112.504 171.848V174.9C112.504 175.74 112.644 176.496 112.812 177ZM111.58 173.92V173.752C111.006 173.514 110.418 173.444 109.844 173.444C108.724 173.444 107.842 173.948 107.842 174.928C107.842 175.824 108.472 176.3 109.368 176.3C110.334 176.3 111.58 175.726 111.58 173.92ZM117.571 169.468C118.537 169.468 119.237 170.112 119.237 171.372V172.1L118.369 172.268V171.54C118.369 170.798 118.117 170.308 117.361 170.308C116.507 170.308 115.863 170.938 115.863 172.436V177H114.911V169.58H115.863V170.504C116.255 169.804 116.913 169.468 117.571 169.468ZM122.465 175.152C122.465 176.02 122.983 176.272 123.445 176.272C123.893 176.272 124.187 176.104 124.537 175.74L125.041 176.3C124.551 176.874 124.019 177.112 123.361 177.112C122.353 177.112 121.513 176.44 121.513 175.124V170.364H120.113V169.58H121.513V167.984L122.465 167.424V169.58H124.873V170.364H122.465V175.152ZM127.313 175.32C127.901 175.32 128.349 175.824 128.349 176.776C128.349 177.7 127.971 178.624 126.753 179.576L126.417 179.184C127.075 178.596 127.705 178.008 127.593 177.028C127.523 177.042 127.425 177.056 127.313 177.056C126.809 177.056 126.417 176.734 126.417 176.188C126.417 175.698 126.795 175.32 127.313 175.32ZM135.549 175.152C135.549 176.02 136.067 176.272 136.529 176.272C136.977 176.272 137.271 176.104 137.621 175.74L138.125 176.3C137.635 176.874 137.103 177.112 136.445 177.112C135.437 177.112 134.597 176.44 134.597 175.124V170.364H133.197V169.58H134.597V167.984L135.549 167.424V169.58H137.957V170.364H135.549V175.152ZM142.413 169.468C143.379 169.468 144.079 170.112 144.079 171.372V172.1L143.211 172.268V171.54C143.211 170.798 142.959 170.308 142.203 170.308C141.349 170.308 140.705 170.938 140.705 172.436V177H139.753V169.58H140.705V170.504C141.097 169.804 141.755 169.468 142.413 169.468ZM150.604 174.9L151.304 175.292C150.954 176.188 150.03 177.112 148.378 177.112C146.292 177.112 145.06 175.558 145.06 173.192C145.06 171.022 146.348 169.468 148.28 169.468C149.876 169.468 151.248 170.616 151.248 172.632L151.22 173.458H146.026C146.11 175.432 147.048 176.272 148.476 176.272C149.596 176.272 150.254 175.628 150.604 174.9ZM148.28 170.308C147.16 170.308 146.152 170.91 146.026 172.674H150.31C150.352 171.008 149.372 170.308 148.28 170.308ZM156.369 169.468C157.853 169.468 158.721 170.378 158.721 172.044V177H157.769V172.184C157.769 170.84 157.153 170.336 156.117 170.336C154.815 170.336 154.213 171.344 154.213 172.828V177H153.261V169.58H154.213V170.728C154.661 169.916 155.473 169.468 156.369 169.468ZM167.677 170.364H166.081V170.63C166.445 171.078 166.641 171.638 166.641 172.184C166.641 173.542 165.661 174.928 163.575 174.928H163.253C162.413 174.928 161.811 175.25 161.811 175.74C161.811 176.118 162.105 176.384 162.721 176.384H165.731C166.935 176.384 167.551 176.972 167.551 177.896C167.551 179.366 165.857 180.136 163.771 180.136C161.895 180.136 160.593 179.534 160.145 178.232L160.915 177.882C161.433 179.1 162.525 179.338 163.771 179.338C165.311 179.338 166.599 178.876 166.599 177.98C166.599 177.56 166.375 177.252 165.703 177.252H162.511C161.475 177.252 160.859 176.762 160.859 175.992C160.859 175.334 161.405 174.76 162.315 174.522C161.335 174.13 160.789 173.094 160.789 172.184C160.789 170.854 161.783 169.468 163.743 169.468C164.513 169.468 165.101 169.72 165.549 170.098V169.58H167.677V170.364ZM163.729 174.144C165.045 174.144 165.703 173.234 165.703 172.184C165.703 171.148 165.045 170.28 163.729 170.28C162.399 170.28 161.727 171.162 161.727 172.184C161.727 173.22 162.399 174.144 163.729 174.144ZM173.668 174.9L174.368 175.292C174.018 176.188 173.094 177.112 171.442 177.112C169.356 177.112 168.124 175.558 168.124 173.192C168.124 171.022 169.412 169.468 171.344 169.468C172.94 169.468 174.312 170.616 174.312 172.632L174.284 173.458H169.09C169.174 175.432 170.112 176.272 171.54 176.272C172.66 176.272 173.318 175.628 173.668 174.9ZM171.344 170.308C170.224 170.308 169.216 170.91 169.09 172.674H173.374C173.416 171.008 172.436 170.308 171.344 170.308ZM178.985 169.468C179.951 169.468 180.651 170.112 180.651 171.372V172.1L179.783 172.268V171.54C179.783 170.798 179.531 170.308 178.775 170.308C177.921 170.308 177.277 170.938 177.277 172.436V177H176.325V169.58H177.277V170.504C177.669 169.804 178.327 169.468 178.985 169.468ZM191.238 166.64H192.19V177H191.238V175.614C190.748 176.566 189.768 177.098 188.802 177.098C186.912 177.098 185.638 175.516 185.638 173.36C185.638 171.078 186.926 169.468 188.914 169.468C189.95 169.468 190.79 169.986 191.238 170.924V166.64ZM188.9 176.258C190.384 176.258 191.238 175.152 191.238 173.332C191.238 171.4 190.398 170.308 188.914 170.308C187.528 170.308 186.618 171.372 186.618 173.318C186.618 175.194 187.528 176.258 188.9 176.258ZM198.848 169.58H199.8V177H198.848V175.866C198.4 176.664 197.616 177.112 196.706 177.112C195.25 177.112 194.368 176.174 194.368 174.564V169.58H195.32V174.48C195.32 175.698 195.936 176.258 196.972 176.258C198.288 176.258 198.848 175.208 198.848 173.752V169.58ZM208.869 169.468C210.353 169.468 211.221 170.378 211.221 172.044V177H210.269V172.184C210.269 170.84 209.653 170.336 208.617 170.336C207.315 170.336 206.713 171.344 206.713 172.828V177H205.761V166.64H206.713V170.728C207.161 169.916 207.973 169.468 208.869 169.468ZM213.933 168.236C213.471 168.236 213.093 167.872 213.093 167.396C213.093 166.92 213.471 166.556 213.933 166.556C214.395 166.556 214.773 166.92 214.773 167.396C214.773 167.872 214.395 168.236 213.933 168.236ZM212.813 180.038C212.561 180.038 212.323 179.996 212.085 179.926L212.169 179.086C212.365 179.156 212.547 179.17 212.673 179.17C213.331 179.17 213.457 178.722 213.457 178.078V169.58H214.409V178.134C214.409 179.394 213.863 180.038 212.813 180.038ZM221.889 174.9L222.589 175.292C222.239 176.188 221.315 177.112 219.663 177.112C217.577 177.112 216.345 175.558 216.345 173.192C216.345 171.022 217.633 169.468 219.565 169.468C221.161 169.468 222.533 170.616 222.533 172.632L222.505 173.458H217.311C217.395 175.432 218.333 176.272 219.761 176.272C220.881 176.272 221.539 175.628 221.889 174.9ZM219.565 170.308C218.445 170.308 217.437 170.91 217.311 172.674H221.595C221.637 171.008 220.657 170.308 219.565 170.308ZM226.87 176.972C226.646 177.028 226.464 177.056 226.254 177.056C225.092 177.056 224.546 176.328 224.546 175.236V166.64H225.498V175.236C225.498 175.866 225.834 176.188 226.422 176.188C226.576 176.188 226.73 176.174 226.87 176.132V176.972ZM231.994 169.482C233.884 169.482 235.158 171.064 235.158 173.22C235.158 175.502 233.87 177.112 231.882 177.112C230.846 177.112 230.006 176.594 229.558 175.656V179.94H228.606V169.58H229.558V170.966C230.048 170.014 231.028 169.482 231.994 169.482ZM231.882 176.272C233.268 176.272 234.178 175.208 234.178 173.262C234.178 171.386 233.268 170.322 231.896 170.322C230.412 170.322 229.558 171.428 229.558 173.248C229.558 175.18 230.398 176.272 231.882 176.272ZM240.315 171.512C240.315 170.336 241.421 169.468 242.975 169.468C244.319 169.468 245.355 170.112 245.663 171.092L244.879 171.4C244.585 170.686 243.899 170.308 242.947 170.308C241.911 170.308 241.239 170.742 241.239 171.428C241.239 172.044 241.645 172.422 242.527 172.604L243.507 172.8C245.131 173.122 245.887 173.822 245.887 174.928C245.887 176.216 244.739 177.112 243.087 177.112C241.589 177.112 240.539 176.524 240.035 175.404L240.847 175.068C241.197 175.852 241.967 176.272 243.059 176.272C244.207 176.272 244.963 175.768 244.963 175.012C244.963 174.312 244.571 173.934 243.591 173.724L242.387 173.472C241.029 173.192 240.315 172.506 240.315 171.512ZM250.133 168.796C249.223 168.796 248.481 168.124 248.481 167.2C248.481 166.276 249.223 165.604 250.133 165.604C251.043 165.604 251.785 166.276 251.785 167.2C251.785 168.124 251.043 168.796 250.133 168.796ZM250.133 166.248C249.601 166.248 249.181 166.584 249.181 167.2C249.181 167.83 249.601 168.152 250.133 168.152C250.665 168.152 251.085 167.83 251.085 167.2C251.085 166.584 250.665 166.248 250.133 166.248ZM253.017 177H252.149C252.037 176.594 251.953 176.104 251.953 175.544C251.575 176.412 250.609 177.112 249.405 177.112C248.089 177.112 247.095 176.258 247.095 174.984C247.095 173.458 248.467 172.66 249.993 172.66C250.595 172.66 251.183 172.73 251.785 172.94V171.96C251.785 170.994 251.197 170.336 250.049 170.336C249.125 170.336 248.341 170.742 247.949 171.876L247.109 171.624C247.669 170.056 248.803 169.468 250.105 169.468C251.939 169.468 252.709 170.574 252.709 171.848V174.9C252.709 175.74 252.849 176.496 253.017 177ZM251.785 173.92V173.752C251.211 173.514 250.623 173.444 250.049 173.444C248.929 173.444 248.047 173.948 248.047 174.928C248.047 175.824 248.677 176.3 249.573 176.3C250.539 176.3 251.785 175.726 251.785 173.92ZM263.318 177L260.588 173.318L259.678 174.186V177H258.726V166.64H259.678V173.066L263.206 169.58H264.466L261.232 172.688L264.522 177H263.318ZM271.091 177H270.223C270.111 176.594 270.027 176.104 270.027 175.544C269.649 176.412 268.683 177.112 267.479 177.112C266.163 177.112 265.169 176.258 265.169 174.984C265.169 173.458 266.541 172.66 268.067 172.66C268.669 172.66 269.257 172.73 269.859 172.94V171.96C269.859 170.994 269.271 170.336 268.123 170.336C267.199 170.336 266.415 170.742 266.023 171.876L265.183 171.624C265.743 170.056 266.877 169.468 268.179 169.468C270.013 169.468 270.783 170.574 270.783 171.848V174.9C270.783 175.74 270.923 176.496 271.091 177ZM269.859 173.92V173.752C269.285 173.514 268.697 173.444 268.123 173.444C267.003 173.444 266.121 173.948 266.121 174.928C266.121 175.824 266.751 176.3 267.647 176.3C268.613 176.3 269.859 175.726 269.859 173.92ZM276.298 169.468C277.782 169.468 278.65 170.378 278.65 172.044V177H277.698V172.184C277.698 170.84 277.082 170.336 276.046 170.336C274.744 170.336 274.142 171.344 274.142 172.828V177H273.19V169.58H274.142V170.728C274.59 169.916 275.402 169.468 276.298 169.468ZM289.648 166.64H290.6V177H289.648V175.614C289.158 176.566 288.178 177.098 287.212 177.098C285.322 177.098 284.048 175.516 284.048 173.36C284.048 171.078 285.336 169.468 287.324 169.468C288.36 169.468 289.2 169.986 289.648 170.924V166.64ZM287.31 176.258C288.794 176.258 289.648 175.152 289.648 173.332C289.648 171.4 288.808 170.308 287.324 170.308C285.938 170.308 285.028 171.372 285.028 173.318C285.028 175.194 285.938 176.258 287.31 176.258ZM297.258 169.58H298.21V177H297.258V175.866C296.81 176.664 296.026 177.112 295.116 177.112C293.66 177.112 292.778 176.174 292.778 174.564V169.58H293.73V174.48C293.73 175.698 294.346 176.258 295.382 176.258C296.698 176.258 297.258 175.208 297.258 173.752V169.58ZM308.763 177L306.033 173.318L305.123 174.186V177H304.171V166.64H305.123V173.066L308.651 169.58H309.911L306.677 172.688L309.967 177H308.763ZM313.835 177.112C312.001 177.112 310.531 175.6 310.531 173.276C310.531 170.98 311.987 169.468 313.835 169.468C315.683 169.468 317.139 170.98 317.139 173.276C317.139 175.6 315.669 177.112 313.835 177.112ZM313.835 176.272C315.109 176.272 316.159 175.264 316.159 173.276C316.159 171.302 315.095 170.308 313.835 170.308C312.575 170.308 311.511 171.302 311.511 173.276C311.511 175.264 312.561 176.272 313.835 176.272ZM322.181 169.468C323.665 169.468 324.533 170.378 324.533 172.044V177H323.581V172.184C323.581 170.84 322.965 170.336 321.929 170.336C320.627 170.336 320.025 171.344 320.025 172.828V177H319.073V169.58H320.025V170.728C320.473 169.916 321.285 169.468 322.181 169.468ZM328.309 175.152C328.309 176.02 328.827 176.272 329.289 176.272C329.737 176.272 330.031 176.104 330.381 175.74L330.885 176.3C330.395 176.874 329.863 177.112 329.205 177.112C328.197 177.112 327.357 176.44 327.357 175.124V170.364H325.957V169.58H327.357V167.984L328.309 167.424V169.58H330.717V170.364H328.309V175.152ZM337.769 177H336.901C336.789 176.594 336.705 176.104 336.705 175.544C336.327 176.412 335.361 177.112 334.157 177.112C332.841 177.112 331.847 176.258 331.847 174.984C331.847 173.458 333.219 172.66 334.745 172.66C335.347 172.66 335.935 172.73 336.537 172.94V171.96C336.537 170.994 335.949 170.336 334.801 170.336C333.877 170.336 333.093 170.742 332.701 171.876L331.861 171.624C332.421 170.056 333.555 169.468 334.857 169.468C336.691 169.468 337.461 170.574 337.461 171.848V174.9C337.461 175.74 337.601 176.496 337.769 177ZM336.537 173.92V173.752C335.963 173.514 335.375 173.444 334.801 173.444C333.681 173.444 332.799 173.948 332.799 174.928C332.799 175.824 333.429 176.3 334.325 176.3C335.291 176.3 336.537 175.726 336.537 173.92ZM344.488 177L341.758 173.318L340.848 174.186V177H339.896V166.64H340.848V173.066L344.376 169.58H345.636L342.402 172.688L345.692 177H344.488ZM348.502 175.152C348.502 176.02 349.02 176.272 349.482 176.272C349.93 176.272 350.224 176.104 350.574 175.74L351.078 176.3C350.588 176.874 350.056 177.112 349.398 177.112C348.39 177.112 347.55 176.44 347.55 175.124V170.364H346.15V169.58H347.55V167.984L348.502 167.424V169.58H350.91V170.364H348.502V175.152ZM357.35 174.9L358.05 175.292C357.7 176.188 356.776 177.112 355.124 177.112C353.038 177.112 351.806 175.558 351.806 173.192C351.806 171.022 353.094 169.468 355.026 169.468C356.622 169.468 357.994 170.616 357.994 172.632L357.966 173.458H352.772C352.856 175.432 353.794 176.272 355.222 176.272C356.342 176.272 357 175.628 357.35 174.9ZM355.026 170.308C353.906 170.308 352.898 170.91 352.772 172.674H357.056C357.098 171.008 356.118 170.308 355.026 170.308ZM366.417 177.112C364.583 177.112 363.113 175.6 363.113 173.276C363.113 170.98 364.569 169.468 366.417 169.468C368.265 169.468 369.721 170.98 369.721 173.276C369.721 175.6 368.251 177.112 366.417 177.112ZM366.417 176.272C367.691 176.272 368.741 175.264 368.741 173.276C368.741 171.302 367.677 170.308 366.417 170.308C365.157 170.308 364.093 171.302 364.093 173.276C364.093 175.264 365.143 176.272 366.417 176.272ZM371.291 171.512C371.291 170.336 372.397 169.468 373.951 169.468C375.295 169.468 376.331 170.112 376.639 171.092L375.855 171.4C375.561 170.686 374.875 170.308 373.923 170.308C372.887 170.308 372.215 170.742 372.215 171.428C372.215 172.044 372.621 172.422 373.503 172.604L374.483 172.8C376.107 173.122 376.863 173.822 376.863 174.928C376.863 176.216 375.715 177.112 374.063 177.112C372.565 177.112 371.515 176.524 371.011 175.404L371.823 175.068C372.173 175.852 372.943 176.272 374.035 176.272C375.183 176.272 375.939 175.768 375.939 175.012C375.939 174.312 375.547 173.934 374.567 173.724L373.363 173.472C372.005 173.192 371.291 172.506 371.291 171.512ZM378.373 171.512C378.373 170.336 379.479 169.468 381.033 169.468C382.377 169.468 383.413 170.112 383.721 171.092L382.937 171.4C382.643 170.686 381.957 170.308 381.005 170.308C379.969 170.308 379.297 170.742 379.297 171.428C379.297 172.044 379.703 172.422 380.585 172.604L381.565 172.8C383.189 173.122 383.945 173.822 383.945 174.928C383.945 176.216 382.797 177.112 381.145 177.112C379.647 177.112 378.597 176.524 378.093 175.404L378.905 175.068C379.255 175.852 380.025 176.272 381.117 176.272C382.265 176.272 383.021 175.768 383.021 175.012C383.021 174.312 382.629 173.934 381.649 173.724L380.445 173.472C379.087 173.192 378.373 172.506 378.373 171.512ZM386.383 177.084C385.879 177.084 385.487 176.706 385.487 176.188C385.487 175.67 385.879 175.292 386.383 175.292C386.887 175.292 387.279 175.67 387.279 176.188C387.279 176.706 386.887 177.084 386.383 177.084ZM393.611 179.1H392.687C393.695 176.86 394.199 174.662 394.199 172.422C394.199 170.182 393.695 168.026 392.687 165.8H393.611C394.661 168.026 395.179 170.168 395.179 172.422C395.179 174.676 394.647 176.874 393.611 179.1Z" fill="#2A2859"/>
<rect x="77" y="192" width="398" height="146" fill="white"/>
<path d="M93.332 209.208C93.332 206.976 95.366 205.536 97.724 205.536C99.902 205.536 101.378 206.472 102.044 208.146L100.856 208.632C100.316 207.354 99.11 206.652 97.724 206.652C95.888 206.652 94.592 207.588 94.592 209.064C94.592 210.306 95.33 211.062 96.896 211.368L98.984 211.764C101.036 212.16 102.548 213.258 102.548 215.256C102.548 217.308 100.82 219.144 97.904 219.144C95.6 219.144 93.872 218.352 92.936 216.372L94.088 215.904C94.988 217.668 96.482 218.028 97.94 218.028C100.118 218.028 101.288 216.768 101.288 215.328C101.288 213.726 100.208 213.258 98.588 212.952L96.68 212.592C94.826 212.25 93.332 211.224 93.332 209.208ZM110.96 219L107.45 214.266L106.28 215.382V219H105.056V205.68H106.28V213.942L110.816 209.46H112.436L108.278 213.456L112.508 219H110.96ZM117.609 209.316C118.851 209.316 119.751 210.144 119.751 211.764V212.7L118.635 212.916V211.98C118.635 211.026 118.311 210.396 117.339 210.396C116.241 210.396 115.413 211.206 115.413 213.132V219H114.189V209.46H115.413V210.648C115.917 209.748 116.763 209.316 117.609 209.316ZM122.581 207.732C121.987 207.732 121.501 207.264 121.501 206.652C121.501 206.04 121.987 205.572 122.581 205.572C123.175 205.572 123.661 206.04 123.661 206.652C123.661 207.264 123.175 207.732 122.581 207.732ZM121.969 219V209.46H123.193V219H121.969ZM132.178 209.46H133.438L129.694 219H128.614L124.87 209.46H126.202L129.19 217.65L132.178 209.46ZM143.542 209.316C145.45 209.316 146.566 210.486 146.566 212.628V219H145.342V212.808C145.342 211.08 144.55 210.432 143.218 210.432C141.544 210.432 140.77 211.728 140.77 213.636V219H139.546V205.68H140.77V210.936C141.346 209.892 142.39 209.316 143.542 209.316ZM155.828 216.3L156.728 216.804C156.278 217.956 155.09 219.144 152.966 219.144C150.284 219.144 148.7 217.146 148.7 214.104C148.7 211.314 150.356 209.316 152.84 209.316C154.892 209.316 156.656 210.792 156.656 213.384L156.62 214.446H149.942C150.05 216.984 151.256 218.064 153.092 218.064C154.532 218.064 155.378 217.236 155.828 216.3ZM152.84 210.396C151.4 210.396 150.104 211.17 149.942 213.438H155.45C155.504 211.296 154.244 210.396 152.84 210.396ZM162.464 209.316C163.706 209.316 164.606 210.144 164.606 211.764V212.7L163.49 212.916V211.98C163.49 211.026 163.166 210.396 162.194 210.396C161.096 210.396 160.268 211.206 160.268 213.132V219H159.044V209.46H160.268V210.648C160.772 209.748 161.618 209.316 162.464 209.316Z" fill="#808080"/>
<rect x="77" y="192" width="398" height="146" stroke="#2A2859" stroke-width="2"/>
<path d="M447.654 363.112C445.61 363.112 443.874 361.18 443.874 357.82C443.874 354.46 445.596 352.528 447.654 352.528C449.712 352.528 451.434 354.46 451.434 357.82C451.434 361.18 449.698 363.112 447.654 363.112ZM447.654 362.188C449.194 362.188 450.454 360.914 450.454 357.82C450.454 354.796 449.208 353.452 447.654 353.452C446.1 353.452 444.854 354.796 444.854 357.82C444.854 360.914 446.114 362.188 447.654 362.188ZM456.049 351.94H456.973L454.173 365.1H453.249L456.049 351.94ZM462.878 356.336C464.796 356.336 466.154 357.694 466.154 359.556C466.154 361.558 464.684 363.112 462.374 363.112C461.086 363.112 459.798 362.608 458.818 361.208L459.546 360.62C460.316 361.74 461.24 362.244 462.486 362.244C464.096 362.244 465.202 361.068 465.202 359.612C465.202 358.156 464.236 357.204 462.794 357.204C461.786 357.204 461.142 357.512 460.232 358.366L459.462 358.072L459.812 352.64H465.37V353.536H460.638L460.358 357.316C461.03 356.686 461.926 356.336 462.878 356.336ZM471.525 363.112C469.481 363.112 467.745 361.18 467.745 357.82C467.745 354.46 469.467 352.528 471.525 352.528C473.583 352.528 475.305 354.46 475.305 357.82C475.305 361.18 473.569 363.112 471.525 363.112ZM471.525 362.188C473.065 362.188 474.325 360.914 474.325 357.82C474.325 354.796 473.079 353.452 471.525 353.452C469.971 353.452 468.725 354.796 468.725 357.82C468.725 360.914 469.985 362.188 471.525 362.188Z" fill="#2A2859"/>
<path d="M649.62 135.68V137.624H645.642V149H643.536V137.624H639.558V135.68H649.62ZM656.654 145.994L658.022 146.786C657.482 147.974 656.222 149.162 654.044 149.162C651.218 149.162 649.508 147.074 649.508 144.14C649.508 141.242 651.362 139.244 653.9 139.244C656.15 139.244 658.004 140.756 658.004 143.456L657.968 144.644H651.488C651.596 146.66 652.586 147.524 654.17 147.524C655.34 147.524 656.15 146.894 656.654 145.994ZM653.9 140.828C652.676 140.828 651.65 141.476 651.488 143.204H656.042C656.06 141.512 655.016 140.828 653.9 140.828ZM664.124 148.946C663.746 149.054 663.368 149.108 662.972 149.108C661.154 149.108 660.29 148.028 660.29 146.282V135.68H662.306V146.138C662.306 146.966 662.792 147.344 663.53 147.344C663.71 147.344 663.908 147.326 664.124 147.272V148.946ZM672.39 145.994L673.758 146.786C673.218 147.974 671.958 149.162 669.78 149.162C666.954 149.162 665.244 147.074 665.244 144.14C665.244 141.242 667.098 139.244 669.636 139.244C671.886 139.244 673.74 140.756 673.74 143.456L673.704 144.644H667.224C667.332 146.66 668.322 147.524 669.906 147.524C671.076 147.524 671.886 146.894 672.39 145.994ZM669.636 140.828C668.412 140.828 667.386 141.476 667.224 143.204H671.778C671.796 141.512 670.752 140.828 669.636 140.828ZM678.463 138.596V139.46H681.145V141.026H678.463V149H676.447V141.026H674.773V139.46H676.447V138.686C676.447 136.616 677.797 135.41 679.669 135.41C680.551 135.41 681.433 135.77 681.955 136.418L681.001 137.75C680.713 137.39 680.281 137.174 679.813 137.174C679.075 137.174 678.463 137.606 678.463 138.596ZM686.132 149.18C683.648 149.18 681.614 147.236 681.614 144.176C681.614 141.188 683.63 139.244 686.132 139.244C688.634 139.244 690.65 141.188 690.65 144.176C690.65 147.236 688.616 149.18 686.132 149.18ZM686.132 147.47C687.482 147.47 688.58 146.426 688.58 144.176C688.58 141.908 687.464 140.954 686.132 140.954C684.8 140.954 683.684 141.908 683.684 144.176C683.684 146.426 684.8 147.47 686.132 147.47ZM697.572 139.244C699.516 139.244 700.668 140.504 700.668 142.574V149H698.652V142.898C698.652 141.584 698.022 140.99 696.924 140.99C695.502 140.99 694.782 141.98 694.782 143.834V149H692.766V139.46H694.782V140.828C695.43 139.82 696.384 139.244 697.572 139.244ZM708.2 139.244C710.144 139.244 711.296 140.504 711.296 142.574V149H709.28V142.898C709.28 141.584 708.65 140.99 707.552 140.99C706.13 140.99 705.41 141.98 705.41 143.834V149H703.394V139.46H705.41V140.828C706.058 139.82 707.012 139.244 708.2 139.244ZM719.551 139.46H721.567V149H719.551V147.596C718.939 148.64 717.985 149.162 716.815 149.162C714.853 149.162 713.719 147.902 713.719 145.832V139.46H715.735V145.526C715.735 146.768 716.347 147.434 717.445 147.434C718.849 147.434 719.551 146.426 719.551 144.572V139.46ZM734.74 139.244C736.648 139.244 737.746 140.486 737.746 142.484V149H735.73V142.826C735.73 141.566 735.136 140.99 734.092 140.99C732.688 140.99 731.986 141.962 731.986 143.834V149H729.97V142.826C729.97 141.566 729.376 140.99 728.332 140.99C726.946 140.99 726.244 141.962 726.244 143.834V149H724.228V139.46H726.244V140.81C726.892 139.784 727.828 139.244 728.98 139.244C730.438 139.244 731.392 139.946 731.806 141.134C732.454 139.874 733.462 139.244 734.74 139.244ZM751.011 139.244C752.919 139.244 754.017 140.486 754.017 142.484V149H752.001V142.826C752.001 141.566 751.407 140.99 750.363 140.99C748.959 140.99 748.257 141.962 748.257 143.834V149H746.241V142.826C746.241 141.566 745.647 140.99 744.603 140.99C743.217 140.99 742.515 141.962 742.515 143.834V149H740.499V139.46H742.515V140.81C743.163 139.784 744.099 139.244 745.251 139.244C746.709 139.244 747.663 139.946 748.077 141.134C748.725 139.874 749.733 139.244 751.011 139.244ZM763.322 145.994L764.69 146.786C764.15 147.974 762.89 149.162 760.712 149.162C757.886 149.162 756.176 147.074 756.176 144.14C756.176 141.242 758.03 139.244 760.568 139.244C762.818 139.244 764.672 140.756 764.672 143.456L764.636 144.644H758.156C758.264 146.66 759.254 147.524 760.838 147.524C762.008 147.524 762.818 146.894 763.322 145.994ZM760.568 140.828C759.344 140.828 758.318 141.476 758.156 143.204H762.71C762.728 141.512 761.684 140.828 760.568 140.828ZM771.332 139.244C772.718 139.244 773.618 140.162 773.618 141.8V143.06L771.998 143.348V142.376C771.998 141.512 771.692 140.918 770.756 140.918C769.73 140.918 768.974 141.602 768.974 143.42V149H766.958V139.46H768.974V140.738C769.514 139.676 770.504 139.244 771.332 139.244Z" fill="#2A2859"/>
<rect width="62" height="22" transform="translate(783 132)" fill="#E5FCFF"/>
<path d="M794.924 137.64H795.96L792.166 148H791.186L787.42 137.64H788.484L791.69 146.866L794.924 137.64ZM801.992 148H801.124C801.012 147.594 800.928 147.104 800.928 146.544C800.55 147.412 799.584 148.112 798.38 148.112C797.064 148.112 796.07 147.258 796.07 145.984C796.07 144.458 797.442 143.66 798.968 143.66C799.57 143.66 800.158 143.73 800.76 143.94V142.96C800.76 141.994 800.172 141.336 799.024 141.336C798.1 141.336 797.316 141.742 796.924 142.876L796.084 142.624C796.644 141.056 797.778 140.468 799.08 140.468C800.914 140.468 801.684 141.574 801.684 142.848V145.9C801.684 146.74 801.824 147.496 801.992 148ZM800.76 144.92V144.752C800.186 144.514 799.598 144.444 799.024 144.444C797.904 144.444 797.022 144.948 797.022 145.928C797.022 146.824 797.652 147.3 798.548 147.3C799.514 147.3 800.76 146.726 800.76 144.92ZM806.415 147.972C806.191 148.028 806.009 148.056 805.799 148.056C804.637 148.056 804.091 147.328 804.091 146.236V137.64H805.043V146.236C805.043 146.866 805.379 147.188 805.967 147.188C806.121 147.188 806.275 147.174 806.415 147.132V147.972ZM814.542 141.364H812.946V141.63C813.31 142.078 813.506 142.638 813.506 143.184C813.506 144.542 812.526 145.928 810.44 145.928H810.118C809.278 145.928 808.676 146.25 808.676 146.74C808.676 147.118 808.97 147.384 809.586 147.384H812.596C813.8 147.384 814.416 147.972 814.416 148.896C814.416 150.366 812.722 151.136 810.636 151.136C808.76 151.136 807.458 150.534 807.01 149.232L807.78 148.882C808.298 150.1 809.39 150.338 810.636 150.338C812.176 150.338 813.464 149.876 813.464 148.98C813.464 148.56 813.24 148.252 812.568 148.252H809.376C808.34 148.252 807.724 147.762 807.724 146.992C807.724 146.334 808.27 145.76 809.18 145.522C808.2 145.13 807.654 144.094 807.654 143.184C807.654 141.854 808.648 140.468 810.608 140.468C811.378 140.468 811.966 140.72 812.414 141.098V140.58H814.542V141.364ZM810.594 145.144C811.91 145.144 812.568 144.234 812.568 143.184C812.568 142.148 811.91 141.28 810.594 141.28C809.264 141.28 808.592 142.162 808.592 143.184C808.592 144.22 809.264 145.144 810.594 145.144ZM817.237 139.544V140.58H819.309V141.364H817.237V148H816.285V141.364H814.885V140.58H816.285V139.544C816.285 138.256 817.125 137.528 818.273 137.528C818.805 137.528 819.421 137.738 819.771 138.298L819.197 138.872C818.973 138.536 818.637 138.34 818.245 138.34C817.755 138.34 817.237 138.634 817.237 139.544ZM823.417 140.468C824.383 140.468 825.083 141.112 825.083 142.372V143.1L824.215 143.268V142.54C824.215 141.798 823.963 141.308 823.207 141.308C822.353 141.308 821.709 141.938 821.709 143.436V148H820.757V140.58H821.709V141.504C822.101 140.804 822.759 140.468 823.417 140.468ZM827.44 139.236C826.978 139.236 826.6 138.872 826.6 138.396C826.6 137.92 826.978 137.556 827.44 137.556C827.902 137.556 828.28 137.92 828.28 138.396C828.28 138.872 827.902 139.236 827.44 139.236ZM826.964 148V140.58H827.916V148H826.964ZM831.811 146.152C831.811 147.02 832.329 147.272 832.791 147.272C833.239 147.272 833.533 147.104 833.883 146.74L834.387 147.3C833.897 147.874 833.365 148.112 832.707 148.112C831.699 148.112 830.859 147.44 830.859 146.124V141.364H829.459V140.58H830.859V138.984L831.811 138.424V140.58H834.219V141.364H831.811V146.152ZM837.225 146.152C837.225 147.02 837.743 147.272 838.205 147.272C838.653 147.272 838.947 147.104 839.297 146.74L839.801 147.3C839.311 147.874 838.779 148.112 838.121 148.112C837.113 148.112 836.273 147.44 836.273 146.124V141.364H834.873V140.58H836.273V138.984L837.225 138.424V140.58H839.633V141.364H837.225V146.152Z" fill="#2A2859"/>
<rect x="640" y="166" width="398" height="146" fill="white"/>
<path d="M656.332 183.208C656.332 180.976 658.366 179.536 660.724 179.536C662.902 179.536 664.378 180.472 665.044 182.146L663.856 182.632C663.316 181.354 662.11 180.652 660.724 180.652C658.888 180.652 657.592 181.588 657.592 183.064C657.592 184.306 658.33 185.062 659.896 185.368L661.984 185.764C664.036 186.16 665.548 187.258 665.548 189.256C665.548 191.308 663.82 193.144 660.904 193.144C658.6 193.144 656.872 192.352 655.936 190.372L657.088 189.904C657.988 191.668 659.482 192.028 660.94 192.028C663.118 192.028 664.288 190.768 664.288 189.328C664.288 187.726 663.208 187.258 661.588 186.952L659.68 186.592C657.826 186.25 656.332 185.224 656.332 183.208ZM673.96 193L670.45 188.266L669.28 189.382V193H668.056V179.68H669.28V187.942L673.816 183.46H675.436L671.278 187.456L675.508 193H673.96ZM680.609 183.316C681.851 183.316 682.751 184.144 682.751 185.764V186.7L681.635 186.916V185.98C681.635 185.026 681.311 184.396 680.339 184.396C679.241 184.396 678.413 185.206 678.413 187.132V193H677.189V183.46H678.413V184.648C678.917 183.748 679.763 183.316 680.609 183.316ZM685.581 181.732C684.987 181.732 684.501 181.264 684.501 180.652C684.501 180.04 684.987 179.572 685.581 179.572C686.175 179.572 686.661 180.04 686.661 180.652C686.661 181.264 686.175 181.732 685.581 181.732ZM684.969 193V183.46H686.193V193H684.969ZM695.178 183.46H696.438L692.694 193H691.614L687.87 183.46H689.202L692.19 191.65L695.178 183.46ZM706.542 183.316C708.45 183.316 709.566 184.486 709.566 186.628V193H708.342V186.808C708.342 185.08 707.55 184.432 706.218 184.432C704.544 184.432 703.77 185.728 703.77 187.636V193H702.546V179.68H703.77V184.936C704.346 183.892 705.39 183.316 706.542 183.316ZM718.828 190.3L719.728 190.804C719.278 191.956 718.09 193.144 715.966 193.144C713.284 193.144 711.7 191.146 711.7 188.104C711.7 185.314 713.356 183.316 715.84 183.316C717.892 183.316 719.656 184.792 719.656 187.384L719.62 188.446H712.942C713.05 190.984 714.256 192.064 716.092 192.064C717.532 192.064 718.378 191.236 718.828 190.3ZM715.84 184.396C714.4 184.396 713.104 185.17 712.942 187.438H718.45C718.504 185.296 717.244 184.396 715.84 184.396ZM725.464 183.316C726.706 183.316 727.606 184.144 727.606 185.764V186.7L726.49 186.916V185.98C726.49 185.026 726.166 184.396 725.194 184.396C724.096 184.396 723.268 185.206 723.268 187.132V193H722.044V183.46H723.268V184.648C723.772 183.748 724.618 183.316 725.464 183.316Z" fill="#808080"/>
<rect x="640" y="166" width="398" height="146" stroke="#2A2859" stroke-width="2"/>
<path d="M1019.61 337.112C1017.56 337.112 1015.83 335.18 1015.83 331.82C1015.83 328.46 1017.55 326.528 1019.61 326.528C1021.67 326.528 1023.39 328.46 1023.39 331.82C1023.39 335.18 1021.65 337.112 1019.61 337.112ZM1019.61 336.188C1021.15 336.188 1022.41 334.914 1022.41 331.82C1022.41 328.796 1021.16 327.452 1019.61 327.452C1018.05 327.452 1016.81 328.796 1016.81 331.82C1016.81 334.914 1018.07 336.188 1019.61 336.188ZM1028 325.94H1028.93L1026.13 339.1H1025.2L1028 325.94ZM1034.52 337.112C1032.37 337.112 1030.88 335.852 1030.88 334.2C1030.88 332.968 1031.75 331.988 1032.98 331.652C1031.86 331.232 1031.3 330.224 1031.3 329.3C1031.3 327.69 1032.68 326.528 1034.52 326.528C1036.37 326.528 1037.74 327.69 1037.74 329.3C1037.74 330.224 1037.18 331.232 1036.06 331.652C1037.3 331.988 1038.16 332.968 1038.16 334.2C1038.16 335.852 1036.68 337.112 1034.52 337.112ZM1034.52 331.232C1035.81 331.232 1036.82 330.588 1036.82 329.356C1036.82 327.942 1035.69 327.34 1034.52 327.34C1033.36 327.34 1032.23 327.928 1032.23 329.356C1032.23 330.588 1033.24 331.232 1034.52 331.232ZM1034.52 336.244C1036.09 336.244 1037.24 335.544 1037.24 334.088C1037.24 332.73 1036.06 332.072 1034.52 332.072C1032.98 332.072 1031.81 332.73 1031.81 334.088C1031.81 335.558 1032.96 336.244 1034.52 336.244Z" fill="#2A2859"/>
</g>
<defs>
<clipPath id="clip0_5614_38826">
<rect width="1116" height="416" fill="white"/>
</clipPath>
</defs>
</svg>
