<svg width="827" height="512" viewBox="0 0 827 512" fill="none" xmlns="http://www.w3.org/2000/svg">
<g clip-path="url(#clip0_5110_156353)">
<rect width="827" height="512" fill="white"/>
<path d="M414 53L631.372 429.5H196.628L414 53Z" fill="#D1F9FF"/>
<path d="M246.456 272.326L251.304 275.125L248.469 280.035L243.621 277.236L242.568 279.06L254.104 285.72L255.157 283.896L250.231 281.052L253.066 276.142L257.992 278.986L259.045 277.162L247.509 270.502L246.456 272.326ZM251.324 268.287C251.72 267.601 251.496 266.765 250.794 266.36C250.093 265.955 249.257 266.179 248.861 266.865C248.465 267.551 248.68 268.402 249.381 268.807C250.083 269.212 250.928 268.973 251.324 268.287ZM260.453 274.722L261.461 272.976L253.2 268.206L252.192 269.952L260.453 274.722ZM263.575 263.303C264.102 264.189 264.243 265.206 263.658 266.219C262.866 267.591 261.623 268.016 259.823 267.102L263.063 261.49L262.052 260.865C259.714 259.515 257.477 260.364 256.352 262.313C255.083 264.511 255.887 267.116 258.396 268.565C260.937 270.032 263.601 269.595 265.014 267.147C266.103 265.261 265.704 263.576 264.945 262.514L263.575 263.303ZM257.724 263.105C258.282 262.138 259.396 261.576 260.853 262.438L258.576 266.382C257.16 265.378 257.112 264.165 257.724 263.105ZM261.735 252.99C261.321 253.708 261.2 254.781 261.849 255.78L260.743 255.141L259.735 256.886L267.997 261.656L269.005 259.911L264.172 257.121C262.598 256.212 262.383 255.215 262.896 254.326C263.364 253.516 264.032 253.548 264.78 253.98L265.622 254.466L266.182 252.919L265.091 252.289C263.673 251.47 262.428 251.79 261.735 252.99ZM275.906 247.958C275.259 247.854 274.296 247.506 273.314 246.939L270.118 245.094C268.543 244.185 266.674 244.436 265.405 246.634C264.55 248.115 264.432 249.938 265.836 251.539L267.143 250.319C266.357 249.449 266.229 248.482 266.778 247.531C267.363 246.518 268.264 246.289 269.153 246.802L269.932 247.252C269.443 247.739 269.09 248.242 268.766 248.803C267.74 250.58 267.711 252.683 269.504 253.718C270.938 254.546 272.563 254.071 273.427 252.575C274.255 251.141 273.917 249.782 273.285 248.897C273.942 249.235 274.486 249.445 274.979 249.563L275.906 247.958ZM271.304 248.044C273.003 249.025 272.863 250.42 272.377 251.262C271.9 252.088 271.101 252.355 270.338 251.914C269.433 251.392 269.425 250.327 270.019 249.298C270.316 248.783 270.657 248.336 271.117 247.936L271.304 248.044ZM270.851 237.2C270.437 237.917 270.316 238.991 270.966 239.989L269.859 239.35L268.851 241.096L277.113 245.866L278.121 244.12L273.289 241.33C271.714 240.421 271.5 239.425 272.013 238.536C272.481 237.726 273.148 237.758 273.896 238.19L274.738 238.676L275.299 237.129L274.208 236.499C272.789 235.68 271.544 236 270.851 237.2ZM284.51 233.054L285.716 230.965L278.801 231.566L277.418 226.258L276.176 228.409L277.68 233.725L270.977 229.855L269.969 231.601L281.504 238.261L282.512 236.515L279.66 234.868L279.273 233.377L284.51 233.054ZM274.546 222.952L276.651 224.167L277.884 222.031L275.779 220.816L274.546 222.952ZM286.511 229.589L287.519 227.843L279.257 223.073L278.249 224.819L286.511 229.589ZM289.632 218.17C290.16 219.057 290.3 220.073 289.715 221.087C288.923 222.458 287.68 222.884 285.88 221.969L289.12 216.358L288.109 215.732C285.771 214.382 283.535 215.232 282.41 217.181C281.141 219.378 281.944 221.983 284.454 223.432C286.995 224.899 289.658 224.462 291.071 222.015C292.16 220.129 291.761 218.443 291.002 217.382L289.632 218.17ZM283.781 217.973C284.339 217.006 285.454 216.444 286.91 217.305L284.633 221.249C283.217 220.245 283.169 219.033 283.781 217.973ZM292.759 212.862L288.41 210.351L290.093 207.436L288.737 206.653L287.054 209.568L284.42 208.047L284.207 210.252L286.046 211.314L285.209 212.764L286.565 213.547L287.402 212.097L291.861 214.671C293.575 215.661 295.123 214.996 295.951 213.562C296.464 212.673 296.564 211.816 296.3 210.833L294.746 210.933C294.898 211.498 294.878 211.965 294.617 212.417C294.284 212.994 293.679 213.393 292.759 212.862Z" fill="#2A2859"/>
<path d="M520.508 145.64C522.678 145.64 523.98 146.97 523.98 148.832C523.98 150.694 522.608 151.968 520.438 151.968H518.212V156H517.232V145.64H520.508ZM520.55 151.1C522.146 151.1 522.972 150.288 522.972 148.832C522.972 147.376 522.146 146.536 520.55 146.536H518.212V151.1H520.55ZM528.259 148.468C529.225 148.468 529.925 149.112 529.925 150.372V151.1L529.057 151.268V150.54C529.057 149.798 528.805 149.308 528.049 149.308C527.195 149.308 526.551 149.938 526.551 151.436V156H525.599V148.58H526.551V149.504C526.943 148.804 527.601 148.468 528.259 148.468ZM532.282 147.236C531.82 147.236 531.442 146.872 531.442 146.396C531.442 145.92 531.82 145.556 532.282 145.556C532.744 145.556 533.122 145.92 533.122 146.396C533.122 146.872 532.744 147.236 532.282 147.236ZM531.806 156V148.58H532.758V156H531.806ZM542.561 148.468C543.975 148.468 544.801 149.364 544.801 150.904V156H543.849V151.044C543.849 149.84 543.275 149.336 542.309 149.336C541.007 149.336 540.461 150.344 540.461 151.828V156H539.509V151.044C539.509 149.84 538.935 149.336 537.969 149.336C536.667 149.336 536.121 150.344 536.121 151.828V156H535.169V148.58H536.121V149.742C536.569 148.916 537.353 148.468 538.221 148.468C539.327 148.468 540.069 149.014 540.335 149.98C540.755 149 541.609 148.468 542.561 148.468ZM556.709 153.9L557.409 154.292C557.059 155.132 556.149 156.112 554.595 156.112C553.167 156.112 552.145 155.356 551.739 154.124C551.459 155.216 550.381 156.112 549.009 156.112C547.665 156.112 546.643 155.258 546.643 153.984C546.643 152.472 548.015 151.702 549.569 151.702H551.347V150.96C551.347 149.994 550.759 149.336 549.653 149.336C548.715 149.336 547.889 149.812 547.497 150.876L546.699 150.582C547.245 149.126 548.435 148.468 549.653 148.468C550.941 148.468 551.683 149.042 551.991 149.826C552.495 148.986 553.391 148.468 554.497 148.468C556.051 148.468 557.297 149.616 557.297 151.632L557.269 152.43H552.243C552.299 154.432 553.209 155.272 554.637 155.272C555.729 155.272 556.373 154.628 556.709 153.9ZM554.497 149.308C553.363 149.308 552.327 149.91 552.243 151.702H556.415C556.457 150.022 555.533 149.308 554.497 149.308ZM551.347 152.92V152.43H549.597C548.477 152.43 547.595 152.948 547.595 153.928C547.595 154.824 548.225 155.3 549.121 155.3C550.087 155.3 551.347 154.726 551.347 152.92ZM562.028 148.468C562.994 148.468 563.694 149.112 563.694 150.372V151.1L562.826 151.268V150.54C562.826 149.798 562.574 149.308 561.818 149.308C560.964 149.308 560.32 149.938 560.32 151.436V156H559.368V148.58H560.32V149.504C560.712 148.804 561.37 148.468 562.028 148.468ZM570.195 156L567.465 152.318L566.555 153.186V156H565.603V145.64H566.555V152.066L570.083 148.58H571.343L568.109 151.688L571.399 156H570.195ZM575.97 148.468C577.454 148.468 578.322 149.378 578.322 151.044V156H577.37V151.184C577.37 149.84 576.754 149.336 575.718 149.336C574.416 149.336 573.814 150.344 573.814 151.828V156H572.862V148.58H573.814V149.728C574.262 148.916 575.074 148.468 575.97 148.468ZM586.144 156H585.276C585.164 155.594 585.08 155.104 585.08 154.544C584.702 155.412 583.736 156.112 582.532 156.112C581.216 156.112 580.222 155.258 580.222 153.984C580.222 152.458 581.594 151.66 583.12 151.66C583.722 151.66 584.31 151.73 584.912 151.94V150.96C584.912 149.994 584.324 149.336 583.176 149.336C582.252 149.336 581.468 149.742 581.076 150.876L580.236 150.624C580.796 149.056 581.93 148.468 583.232 148.468C585.066 148.468 585.836 149.574 585.836 150.848V153.9C585.836 154.74 585.976 155.496 586.144 156ZM584.912 152.92V152.752C584.338 152.514 583.75 152.444 583.176 152.444C582.056 152.444 581.174 152.948 581.174 153.928C581.174 154.824 581.804 155.3 582.7 155.3C583.666 155.3 584.912 154.726 584.912 152.92ZM591.631 148.482C593.521 148.482 594.795 150.064 594.795 152.22C594.795 154.502 593.507 156.112 591.519 156.112C590.483 156.112 589.643 155.594 589.195 154.656V158.94H588.243V148.58H589.195V149.966C589.685 149.014 590.665 148.482 591.631 148.482ZM591.519 155.272C592.905 155.272 593.815 154.208 593.815 152.262C593.815 150.386 592.905 149.322 591.533 149.322C590.049 149.322 589.195 150.428 589.195 152.248C589.195 154.18 590.035 155.272 591.519 155.272ZM600.121 148.482C602.011 148.482 603.285 150.064 603.285 152.22C603.285 154.502 601.997 156.112 600.009 156.112C598.973 156.112 598.133 155.594 597.685 154.656V158.94H596.733V148.58H597.685V149.966C598.175 149.014 599.155 148.482 600.121 148.482ZM600.009 155.272C601.395 155.272 602.305 154.208 602.305 152.262C602.305 150.386 601.395 149.322 600.023 149.322C598.539 149.322 597.685 150.428 597.685 152.248C597.685 154.18 598.525 155.272 600.009 155.272Z" fill="#2A2859"/>
<path d="M576.036 262.384C576.036 260.648 577.618 259.528 579.452 259.528C581.146 259.528 582.294 260.256 582.812 261.558L581.888 261.936C581.468 260.942 580.53 260.396 579.452 260.396C578.024 260.396 577.016 261.124 577.016 262.272C577.016 263.238 577.59 263.826 578.808 264.064L580.432 264.372C582.028 264.68 583.204 265.534 583.204 267.088C583.204 268.684 581.86 270.112 579.592 270.112C577.8 270.112 576.456 269.496 575.728 267.956L576.624 267.592C577.324 268.964 578.486 269.244 579.62 269.244C581.314 269.244 582.224 268.264 582.224 267.144C582.224 265.898 581.384 265.534 580.124 265.296L578.64 265.016C577.198 264.75 576.036 263.952 576.036 262.384ZM590.35 267.9L591.05 268.292C590.7 269.188 589.776 270.112 588.124 270.112C586.038 270.112 584.806 268.558 584.806 266.192C584.806 264.022 586.094 262.468 588.026 262.468C589.622 262.468 590.994 263.616 590.994 265.632L590.966 266.458H585.772C585.856 268.432 586.794 269.272 588.222 269.272C589.342 269.272 590 268.628 590.35 267.9ZM588.026 263.308C586.906 263.308 585.898 263.91 585.772 265.674H590.056C590.098 264.008 589.118 263.308 588.026 263.308ZM597.627 270L594.897 266.318L593.987 267.186V270H593.035V259.64H593.987V266.066L597.515 262.58H598.775L595.541 265.688L598.831 270H597.627ZM604.319 262.58H605.271V270H604.319V268.866C603.871 269.664 603.087 270.112 602.177 270.112C600.721 270.112 599.839 269.174 599.839 267.564V262.58H600.791V267.48C600.791 268.698 601.407 269.258 602.443 269.258C603.759 269.258 604.319 268.208 604.319 266.752V262.58ZM610.73 262.468C612.214 262.468 613.082 263.378 613.082 265.044V270H612.13V265.184C612.13 263.84 611.514 263.336 610.478 263.336C609.176 263.336 608.574 264.344 608.574 265.828V270H607.622V262.58H608.574V263.728C609.022 262.916 609.834 262.468 610.73 262.468ZM620.498 259.64H621.45V270H620.498V268.614C620.008 269.566 619.028 270.098 618.062 270.098C616.172 270.098 614.898 268.516 614.898 266.36C614.898 264.078 616.186 262.468 618.174 262.468C619.21 262.468 620.05 262.986 620.498 263.924V259.64ZM618.16 269.258C619.644 269.258 620.498 268.152 620.498 266.332C620.498 264.4 619.658 263.308 618.174 263.308C616.788 263.308 615.878 264.372 615.878 266.318C615.878 268.194 616.788 269.258 618.16 269.258ZM633.414 267.9L634.114 268.292C633.764 269.132 632.854 270.112 631.3 270.112C629.872 270.112 628.85 269.356 628.444 268.124C628.164 269.216 627.086 270.112 625.714 270.112C624.37 270.112 623.348 269.258 623.348 267.984C623.348 266.472 624.72 265.702 626.274 265.702H628.052V264.96C628.052 263.994 627.464 263.336 626.358 263.336C625.42 263.336 624.594 263.812 624.202 264.876L623.404 264.582C623.95 263.126 625.14 262.468 626.358 262.468C627.646 262.468 628.388 263.042 628.696 263.826C629.2 262.986 630.096 262.468 631.202 262.468C632.756 262.468 634.002 263.616 634.002 265.632L633.974 266.43H628.948C629.004 268.432 629.914 269.272 631.342 269.272C632.434 269.272 633.078 268.628 633.414 267.9ZM631.202 263.308C630.068 263.308 629.032 263.91 628.948 265.702H633.12C633.162 264.022 632.238 263.308 631.202 263.308ZM628.052 266.92V266.43H626.302C625.182 266.43 624.3 266.948 624.3 267.928C624.3 268.824 624.93 269.3 625.826 269.3C626.792 269.3 628.052 268.726 628.052 266.92ZM638.733 262.468C639.699 262.468 640.399 263.112 640.399 264.372V265.1L639.531 265.268V264.54C639.531 263.798 639.279 263.308 638.523 263.308C637.669 263.308 637.025 263.938 637.025 265.436V270H636.073V262.58H637.025V263.504C637.417 262.804 638.075 262.468 638.733 262.468ZM646.9 270L644.17 266.318L643.26 267.186V270H642.308V259.64H643.26V266.066L646.788 262.58H648.048L644.814 265.688L648.104 270H646.9ZM652.675 262.468C654.159 262.468 655.027 263.378 655.027 265.044V270H654.075V265.184C654.075 263.84 653.459 263.336 652.423 263.336C651.121 263.336 650.519 264.344 650.519 265.828V270H649.567V262.58H650.519V263.728C650.967 262.916 651.779 262.468 652.675 262.468ZM662.849 270H661.981C661.869 269.594 661.785 269.104 661.785 268.544C661.407 269.412 660.441 270.112 659.237 270.112C657.921 270.112 656.927 269.258 656.927 267.984C656.927 266.458 658.299 265.66 659.825 265.66C660.427 265.66 661.015 265.73 661.617 265.94V264.96C661.617 263.994 661.029 263.336 659.881 263.336C658.957 263.336 658.173 263.742 657.781 264.876L656.941 264.624C657.501 263.056 658.635 262.468 659.937 262.468C661.771 262.468 662.541 263.574 662.541 264.848V267.9C662.541 268.74 662.681 269.496 662.849 270ZM661.617 266.92V266.752C661.043 266.514 660.455 266.444 659.881 266.444C658.761 266.444 657.879 266.948 657.879 267.928C657.879 268.824 658.509 269.3 659.405 269.3C660.371 269.3 661.617 268.726 661.617 266.92ZM668.336 262.482C670.226 262.482 671.5 264.064 671.5 266.22C671.5 268.502 670.212 270.112 668.224 270.112C667.188 270.112 666.348 269.594 665.9 268.656V272.94H664.948V262.58H665.9V263.966C666.39 263.014 667.37 262.482 668.336 262.482ZM668.224 269.272C669.61 269.272 670.52 268.208 670.52 266.262C670.52 264.386 669.61 263.322 668.238 263.322C666.754 263.322 665.9 264.428 665.9 266.248C665.9 268.18 666.74 269.272 668.224 269.272ZM676.826 262.482C678.716 262.482 679.99 264.064 679.99 266.22C679.99 268.502 678.702 270.112 676.714 270.112C675.678 270.112 674.838 269.594 674.39 268.656V272.94H673.438V262.58H674.39V263.966C674.88 263.014 675.86 262.482 676.826 262.482ZM676.714 269.272C678.1 269.272 679.01 268.208 679.01 266.262C679.01 264.386 678.1 263.322 676.728 263.322C675.244 263.322 674.39 264.428 674.39 266.248C674.39 268.18 675.23 269.272 676.714 269.272Z" fill="#2A2859"/>
<path d="M643.896 373.64V374.564H640.648V384H639.668V374.564H636.42V373.64H643.896ZM649.463 381.9L650.163 382.292C649.813 383.188 648.889 384.112 647.237 384.112C645.151 384.112 643.919 382.558 643.919 380.192C643.919 378.022 645.207 376.468 647.139 376.468C648.735 376.468 650.107 377.616 650.107 379.632L650.079 380.458H644.885C644.969 382.432 645.907 383.272 647.335 383.272C648.455 383.272 649.113 382.628 649.463 381.9ZM647.139 377.308C646.019 377.308 645.011 377.91 644.885 379.674H649.169C649.211 378.008 648.231 377.308 647.139 377.308ZM654.78 376.468C655.746 376.468 656.446 377.112 656.446 378.372V379.1L655.578 379.268V378.54C655.578 377.798 655.326 377.308 654.57 377.308C653.716 377.308 653.072 377.938 653.072 379.436V384H652.12V376.58H653.072V377.504C653.464 376.804 654.122 376.468 654.78 376.468ZM659.674 382.152C659.674 383.02 660.192 383.272 660.654 383.272C661.102 383.272 661.396 383.104 661.746 382.74L662.25 383.3C661.76 383.874 661.228 384.112 660.57 384.112C659.562 384.112 658.722 383.44 658.722 382.124V377.364H657.322V376.58H658.722V374.984L659.674 374.424V376.58H662.082V377.364H659.674V382.152ZM664.354 375.236C663.892 375.236 663.514 374.872 663.514 374.396C663.514 373.92 663.892 373.556 664.354 373.556C664.816 373.556 665.194 373.92 665.194 374.396C665.194 374.872 664.816 375.236 664.354 375.236ZM663.878 384V376.58H664.83V384H663.878ZM676.859 381.9L677.559 382.292C677.209 383.132 676.299 384.112 674.745 384.112C673.317 384.112 672.295 383.356 671.889 382.124C671.609 383.216 670.531 384.112 669.159 384.112C667.815 384.112 666.793 383.258 666.793 381.984C666.793 380.472 668.165 379.702 669.719 379.702H671.497V378.96C671.497 377.994 670.909 377.336 669.803 377.336C668.865 377.336 668.039 377.812 667.647 378.876L666.849 378.582C667.395 377.126 668.585 376.468 669.803 376.468C671.091 376.468 671.833 377.042 672.141 377.826C672.645 376.986 673.541 376.468 674.647 376.468C676.201 376.468 677.447 377.616 677.447 379.632L677.419 380.43H672.393C672.449 382.432 673.359 383.272 674.787 383.272C675.879 383.272 676.523 382.628 676.859 381.9ZM674.647 377.308C673.513 377.308 672.477 377.91 672.393 379.702H676.565C676.607 378.022 675.683 377.308 674.647 377.308ZM671.497 380.92V380.43H669.747C668.627 380.43 667.745 380.948 667.745 381.928C667.745 382.824 668.375 383.3 669.271 383.3C670.237 383.3 671.497 382.726 671.497 380.92ZM682.178 376.468C683.144 376.468 683.844 377.112 683.844 378.372V379.1L682.976 379.268V378.54C682.976 377.798 682.724 377.308 681.968 377.308C681.114 377.308 680.47 377.938 680.47 379.436V384H679.518V376.58H680.47V377.504C680.862 376.804 681.52 376.468 682.178 376.468ZM690.345 384L687.615 380.318L686.705 381.186V384H685.753V373.64H686.705V380.066L690.233 376.58H691.493L688.259 379.688L691.549 384H690.345ZM696.121 376.468C697.605 376.468 698.473 377.378 698.473 379.044V384H697.521V379.184C697.521 377.84 696.905 377.336 695.869 377.336C694.567 377.336 693.965 378.344 693.965 379.828V384H693.013V376.58H693.965V377.728C694.413 376.916 695.225 376.468 696.121 376.468ZM706.295 384H705.427C705.315 383.594 705.231 383.104 705.231 382.544C704.853 383.412 703.887 384.112 702.683 384.112C701.367 384.112 700.373 383.258 700.373 381.984C700.373 380.458 701.745 379.66 703.271 379.66C703.873 379.66 704.461 379.73 705.063 379.94V378.96C705.063 377.994 704.475 377.336 703.327 377.336C702.403 377.336 701.619 377.742 701.227 378.876L700.387 378.624C700.947 377.056 702.081 376.468 703.383 376.468C705.217 376.468 705.987 377.574 705.987 378.848V381.9C705.987 382.74 706.127 383.496 706.295 384ZM705.063 380.92V380.752C704.489 380.514 703.901 380.444 703.327 380.444C702.207 380.444 701.325 380.948 701.325 381.928C701.325 382.824 701.955 383.3 702.851 383.3C703.817 383.3 705.063 382.726 705.063 380.92ZM711.781 376.482C713.671 376.482 714.945 378.064 714.945 380.22C714.945 382.502 713.657 384.112 711.669 384.112C710.633 384.112 709.793 383.594 709.345 382.656V386.94H708.393V376.58H709.345V377.966C709.835 377.014 710.815 376.482 711.781 376.482ZM711.669 383.272C713.055 383.272 713.965 382.208 713.965 380.262C713.965 378.386 713.055 377.322 711.683 377.322C710.199 377.322 709.345 378.428 709.345 380.248C709.345 382.18 710.185 383.272 711.669 383.272ZM720.272 376.482C722.162 376.482 723.436 378.064 723.436 380.22C723.436 382.502 722.148 384.112 720.16 384.112C719.124 384.112 718.284 383.594 717.836 382.656V386.94H716.884V376.58H717.836V377.966C718.326 377.014 719.306 376.482 720.272 376.482ZM720.16 383.272C721.546 383.272 722.456 382.208 722.456 380.262C722.456 378.386 721.546 377.322 720.174 377.322C718.69 377.322 717.836 378.428 717.836 380.248C717.836 382.18 718.676 383.272 720.16 383.272Z" fill="#2A2859"/>
<rect x="341" y="131" width="147" height="40" fill="#2A2859"/>
<path d="M362.774 145.64C365.112 145.64 366.554 147.012 366.554 149.056C366.554 151.1 365.042 152.472 362.69 152.472H360.856V156H359.218V145.64H362.774ZM362.83 151.044C364.118 151.044 364.86 150.358 364.86 149.112C364.86 147.81 364.118 147.124 362.816 147.124H360.856V151.044H362.83ZM371.291 148.412C372.369 148.412 373.069 149.126 373.069 150.4V151.38L371.809 151.604V150.848C371.809 150.176 371.571 149.714 370.843 149.714C370.045 149.714 369.457 150.246 369.457 151.66V156H367.889V148.58H369.457V149.574C369.877 148.748 370.647 148.412 371.291 148.412ZM375.377 147.348C374.761 147.348 374.271 146.872 374.271 146.242C374.271 145.612 374.761 145.136 375.377 145.136C375.993 145.136 376.469 145.612 376.469 146.242C376.469 146.872 375.993 147.348 375.377 147.348ZM374.593 156V148.58H376.161V156H374.593ZM386.534 148.412C388.018 148.412 388.872 149.378 388.872 150.932V156H387.304V151.198C387.304 150.218 386.842 149.77 386.03 149.77C384.938 149.77 384.392 150.526 384.392 151.982V156H382.824V151.198C382.824 150.218 382.362 149.77 381.55 149.77C380.472 149.77 379.926 150.526 379.926 151.982V156H378.358V148.58H379.926V149.63C380.43 148.832 381.158 148.412 382.054 148.412C383.188 148.412 383.93 148.958 384.252 149.882C384.756 148.902 385.54 148.412 386.534 148.412ZM400.461 153.662L401.497 154.278C401.091 155.202 400.153 156.126 398.501 156.126C397.115 156.126 396.093 155.412 395.631 154.292C395.323 155.202 394.357 156.126 392.929 156.126C391.515 156.126 390.521 155.216 390.521 153.928C390.521 152.276 391.949 151.492 393.545 151.492H395.071V151.002C395.071 150.204 394.581 149.686 393.657 149.686C392.775 149.686 392.145 150.176 391.865 151.016L390.591 150.582C391.109 149.07 392.425 148.412 393.699 148.412C394.861 148.412 395.631 148.874 396.051 149.574C396.597 148.846 397.451 148.412 398.445 148.412C400.111 148.412 401.455 149.588 401.455 151.688L401.427 152.584H396.583C396.639 154.18 397.395 154.852 398.585 154.852C399.481 154.852 400.097 154.362 400.461 153.662ZM398.403 149.644C397.479 149.644 396.695 150.162 396.597 151.52H399.999C400.013 150.176 399.243 149.644 398.403 149.644ZM395.071 152.934V152.584H393.699C392.747 152.584 392.047 152.99 392.047 153.788C392.047 154.474 392.537 154.908 393.279 154.908C394.049 154.908 395.071 154.46 395.071 152.934ZM406.599 148.412C407.677 148.412 408.377 149.126 408.377 150.4V151.38L407.117 151.604V150.848C407.117 150.176 406.879 149.714 406.151 149.714C405.353 149.714 404.765 150.246 404.765 151.66V156H403.197V148.58H404.765V149.574C405.185 148.748 405.955 148.412 406.599 148.412ZM417.117 148.412C418.629 148.412 419.525 149.392 419.525 151.002V156H417.957V151.254C417.957 150.232 417.467 149.77 416.613 149.77C415.507 149.77 414.933 150.54 414.933 151.982V156H413.365V145.64H414.933V149.658C415.437 148.86 416.193 148.412 417.117 148.412ZM427.578 156H426.136C426.024 155.622 425.954 155.174 425.926 154.6C425.576 155.37 424.792 156.126 423.504 156.126C422.16 156.126 421.208 155.216 421.208 153.928C421.208 152.318 422.636 151.52 424.232 151.52C424.736 151.52 425.212 151.562 425.73 151.702V151.002C425.73 150.204 425.226 149.686 424.316 149.686C423.462 149.686 422.86 150.148 422.58 151.016L421.25 150.61C421.782 149.042 423.056 148.412 424.386 148.412C426.36 148.412 427.256 149.574 427.256 150.988V153.858C427.256 154.74 427.396 155.524 427.578 156ZM425.73 152.934V152.766C425.282 152.612 424.848 152.556 424.386 152.556C423.462 152.556 422.748 152.976 422.748 153.788C422.748 154.474 423.238 154.908 423.98 154.908C424.736 154.908 425.73 154.46 425.73 152.934ZM433.15 148.412C434.662 148.412 435.558 149.392 435.558 151.002V156H433.99V151.254C433.99 150.232 433.5 149.77 432.646 149.77C431.54 149.77 430.98 150.54 430.98 151.982V156H429.412V148.58H430.98V149.644C431.484 148.86 432.226 148.412 433.15 148.412ZM442.576 145.64H444.144V156H442.576V154.656C442.002 155.692 441.106 156.112 440.252 156.112C438.46 156.112 437.172 154.572 437.172 152.318C437.172 149.98 438.474 148.426 440.434 148.426C441.274 148.426 442.114 148.804 442.576 149.714V145.64ZM440.672 154.74C441.806 154.74 442.576 153.97 442.576 152.234C442.576 150.512 441.82 149.686 440.672 149.686C439.594 149.686 438.796 150.554 438.796 152.234C438.796 153.9 439.594 154.74 440.672 154.74ZM449.139 155.958C448.845 156.042 448.551 156.084 448.243 156.084C446.829 156.084 446.157 155.244 446.157 153.886V145.64H447.725V153.774C447.725 154.418 448.103 154.712 448.677 154.712C448.817 154.712 448.971 154.698 449.139 154.656V155.958ZM450.491 145.36H452.409V147.25H450.491V145.36ZM450.673 156V148.58H452.241V156H450.673ZM458.176 148.412C459.688 148.412 460.584 149.392 460.584 151.002V156H459.016V151.254C459.016 150.232 458.526 149.77 457.672 149.77C456.566 149.77 456.006 150.54 456.006 151.982V156H454.438V148.58H456.006V149.644C456.51 148.86 457.252 148.412 458.176 148.412ZM469.786 149.798H468.232V149.966C468.484 150.316 468.61 150.722 468.61 151.142C468.61 152.486 467.574 153.83 465.418 153.83H465.054C464.298 153.83 463.808 154.082 463.808 154.53C463.808 154.838 464.046 155.062 464.522 155.062H467.616C468.89 155.062 469.618 155.72 469.618 156.728C469.618 158.254 468.064 159.136 465.586 159.136C463.416 159.136 461.96 158.59 461.582 157.148L463.108 156.854C463.458 157.75 464.27 157.988 465.628 157.988C467.084 157.988 468.12 157.596 468.12 156.91C468.12 156.588 467.938 156.35 467.434 156.35H464.06C462.898 156.35 462.296 155.72 462.296 154.936C462.296 154.18 462.968 153.578 463.892 153.396C462.87 152.948 462.366 151.996 462.366 151.1C462.366 149.77 463.444 148.412 465.502 148.412C466.412 148.412 467.126 148.734 467.546 149.196V148.58H469.786V149.798ZM465.502 152.696C466.58 152.696 467.084 151.94 467.084 151.128C467.084 150.316 466.58 149.574 465.502 149.574C464.438 149.574 463.92 150.316 463.92 151.128C463.92 151.94 464.438 152.696 465.502 152.696Z" fill="white"/>
<rect x="341" y="131" width="147" height="40" stroke="#2A2859" stroke-width="2"/>
<path d="M349.966 262.524C349.966 260.69 351.66 259.5 353.676 259.5C355.328 259.5 356.644 260.074 357.442 261.446L356.084 262.286C355.636 261.446 354.684 260.956 353.662 260.956C352.444 260.956 351.618 261.502 351.618 262.398C351.618 263.14 352.08 263.63 353.088 263.798L354.684 264.036C356.49 264.316 357.75 265.296 357.75 266.962C357.75 268.712 356.266 270.14 353.788 270.14C352.024 270.14 350.568 269.524 349.686 268.026L351.058 267.144C351.716 268.334 352.836 268.67 353.802 268.67C355.188 268.67 356.042 267.97 356.042 267.018C356.042 266.15 355.496 265.758 354.488 265.59L352.724 265.31C351.058 265.058 349.966 264.092 349.966 262.524ZM364.464 267.662L365.528 268.278C365.108 269.202 364.128 270.126 362.434 270.126C360.236 270.126 358.906 268.502 358.906 266.22C358.906 263.966 360.348 262.412 362.322 262.412C364.072 262.412 365.514 263.588 365.514 265.688L365.486 266.612H360.446C360.53 268.18 361.3 268.852 362.532 268.852C363.442 268.852 364.072 268.362 364.464 267.662ZM362.322 263.644C361.37 263.644 360.572 264.148 360.446 265.492H363.988C364.002 264.176 363.19 263.644 362.322 263.644ZM371.924 270L369.67 266.598L368.816 267.438V270H367.248V259.64H368.816V265.66L371.812 262.58H373.744L370.706 265.576L373.8 270H371.924ZM379.086 262.58H380.654V270H379.086V268.908C378.61 269.72 377.868 270.126 376.958 270.126C375.432 270.126 374.55 269.146 374.55 267.536V262.58H376.118V267.298C376.118 268.264 376.594 268.782 377.448 268.782C378.54 268.782 379.086 267.998 379.086 266.556V262.58ZM386.418 262.412C387.93 262.412 388.826 263.392 388.826 265.002V270H387.258V265.254C387.258 264.232 386.768 263.77 385.914 263.77C384.808 263.77 384.248 264.54 384.248 265.982V270H382.68V262.58H384.248V263.644C384.752 262.86 385.494 262.412 386.418 262.412ZM395.844 259.64H397.412V270H395.844V268.656C395.27 269.692 394.374 270.112 393.52 270.112C391.728 270.112 390.44 268.572 390.44 266.318C390.44 263.98 391.742 262.426 393.702 262.426C394.542 262.426 395.382 262.804 395.844 263.714V259.64ZM393.94 268.74C395.074 268.74 395.844 267.97 395.844 266.234C395.844 264.512 395.088 263.686 393.94 263.686C392.862 263.686 392.064 264.554 392.064 266.234C392.064 267.9 392.862 268.74 393.94 268.74ZM408.916 267.662L409.952 268.278C409.546 269.202 408.608 270.126 406.956 270.126C405.57 270.126 404.548 269.412 404.086 268.292C403.778 269.202 402.812 270.126 401.384 270.126C399.97 270.126 398.976 269.216 398.976 267.928C398.976 266.276 400.404 265.492 402 265.492H403.526V265.002C403.526 264.204 403.036 263.686 402.112 263.686C401.23 263.686 400.6 264.176 400.32 265.016L399.046 264.582C399.564 263.07 400.88 262.412 402.154 262.412C403.316 262.412 404.086 262.874 404.506 263.574C405.052 262.846 405.906 262.412 406.9 262.412C408.566 262.412 409.91 263.588 409.91 265.688L409.882 266.584H405.038C405.094 268.18 405.85 268.852 407.04 268.852C407.936 268.852 408.552 268.362 408.916 267.662ZM406.858 263.644C405.934 263.644 405.15 264.162 405.052 265.52H408.454C408.468 264.176 407.698 263.644 406.858 263.644ZM403.526 266.934V266.584H402.154C401.202 266.584 400.502 266.99 400.502 267.788C400.502 268.474 400.992 268.908 401.734 268.908C402.504 268.908 403.526 268.46 403.526 266.934ZM415.054 262.412C416.132 262.412 416.832 263.126 416.832 264.4V265.38L415.572 265.604V264.848C415.572 264.176 415.334 263.714 414.606 263.714C413.808 263.714 413.22 264.246 413.22 265.66V270H411.652V262.58H413.22V263.574C413.64 262.748 414.41 262.412 415.054 262.412ZM425.572 262.412C427.084 262.412 427.98 263.392 427.98 265.002V270H426.412V265.254C426.412 264.232 425.922 263.77 425.068 263.77C423.962 263.77 423.388 264.54 423.388 265.982V270H421.82V259.64H423.388V263.658C423.892 262.86 424.648 262.412 425.572 262.412ZM436.034 270H434.592C434.48 269.622 434.41 269.174 434.382 268.6C434.032 269.37 433.248 270.126 431.96 270.126C430.616 270.126 429.664 269.216 429.664 267.928C429.664 266.318 431.092 265.52 432.688 265.52C433.192 265.52 433.668 265.562 434.186 265.702V265.002C434.186 264.204 433.682 263.686 432.772 263.686C431.918 263.686 431.316 264.148 431.036 265.016L429.706 264.61C430.238 263.042 431.512 262.412 432.842 262.412C434.816 262.412 435.712 263.574 435.712 264.988V267.858C435.712 268.74 435.852 269.524 436.034 270ZM434.186 266.934V266.766C433.738 266.612 433.304 266.556 432.842 266.556C431.918 266.556 431.204 266.976 431.204 267.788C431.204 268.474 431.694 268.908 432.436 268.908C433.192 268.908 434.186 268.46 434.186 266.934ZM441.606 262.412C443.118 262.412 444.014 263.392 444.014 265.002V270H442.446V265.254C442.446 264.232 441.956 263.77 441.102 263.77C439.996 263.77 439.436 264.54 439.436 265.982V270H437.868V262.58H439.436V263.644C439.94 262.86 440.682 262.412 441.606 262.412ZM451.031 259.64H452.599V270H451.031V268.656C450.457 269.692 449.561 270.112 448.707 270.112C446.915 270.112 445.627 268.572 445.627 266.318C445.627 263.98 446.929 262.426 448.889 262.426C449.729 262.426 450.569 262.804 451.031 263.714V259.64ZM449.127 268.74C450.261 268.74 451.031 267.97 451.031 266.234C451.031 264.512 450.275 263.686 449.127 263.686C448.049 263.686 447.251 264.554 447.251 266.234C447.251 267.9 448.049 268.74 449.127 268.74ZM457.594 269.958C457.3 270.042 457.006 270.084 456.698 270.084C455.284 270.084 454.612 269.244 454.612 267.886V259.64H456.18V267.774C456.18 268.418 456.558 268.712 457.132 268.712C457.272 268.712 457.426 268.698 457.594 268.656V269.958ZM459.913 261.348C459.297 261.348 458.807 260.872 458.807 260.242C458.807 259.612 459.297 259.136 459.913 259.136C460.529 259.136 461.005 259.612 461.005 260.242C461.005 260.872 460.529 261.348 459.913 261.348ZM459.129 270V262.58H460.697V270H459.129ZM466.632 262.412C468.144 262.412 469.04 263.392 469.04 265.002V270H467.472V265.254C467.472 264.232 466.982 263.77 466.128 263.77C465.022 263.77 464.462 264.54 464.462 265.982V270H462.894V262.58H464.462V263.644C464.966 262.86 465.708 262.412 466.632 262.412ZM478.242 263.798H476.688V263.966C476.94 264.316 477.066 264.722 477.066 265.142C477.066 266.486 476.03 267.83 473.874 267.83H473.51C472.754 267.83 472.264 268.082 472.264 268.53C472.264 268.838 472.502 269.062 472.978 269.062H476.072C477.346 269.062 478.074 269.72 478.074 270.728C478.074 272.254 476.52 273.136 474.042 273.136C471.872 273.136 470.416 272.59 470.038 271.148L471.564 270.854C471.914 271.75 472.726 271.988 474.084 271.988C475.54 271.988 476.576 271.596 476.576 270.91C476.576 270.588 476.394 270.35 475.89 270.35H472.516C471.354 270.35 470.752 269.72 470.752 268.936C470.752 268.18 471.424 267.578 472.348 267.396C471.326 266.948 470.822 265.996 470.822 265.1C470.822 263.77 471.9 262.412 473.958 262.412C474.868 262.412 475.582 262.734 476.002 263.196V262.58H478.242V263.798ZM473.958 266.696C475.036 266.696 475.54 265.94 475.54 265.128C475.54 264.316 475.036 263.574 473.958 263.574C472.894 263.574 472.376 264.316 472.376 265.128C472.376 265.94 472.894 266.696 473.958 266.696Z" fill="#2A2859"/>
<rect x="332" y="245" width="164" height="40" stroke="#2A2859" stroke-width="2"/>
<path d="M366.26 373.64V375.152H363.166V384H361.528V375.152H358.434V373.64H366.26ZM371.686 381.662L372.75 382.278C372.33 383.202 371.35 384.126 369.656 384.126C367.458 384.126 366.128 382.502 366.128 380.22C366.128 377.966 367.57 376.412 369.544 376.412C371.294 376.412 372.736 377.588 372.736 379.688L372.708 380.612H367.668C367.752 382.18 368.522 382.852 369.754 382.852C370.664 382.852 371.294 382.362 371.686 381.662ZM369.544 377.644C368.592 377.644 367.794 378.148 367.668 379.492H371.21C371.224 378.176 370.412 377.644 369.544 377.644ZM377.872 376.412C378.95 376.412 379.65 377.126 379.65 378.4V379.38L378.39 379.604V378.848C378.39 378.176 378.152 377.714 377.424 377.714C376.626 377.714 376.038 378.246 376.038 379.66V384H374.47V376.58H376.038V377.574C376.458 376.748 377.228 376.412 377.872 376.412ZM383.22 381.704C383.22 382.53 383.724 382.782 384.242 382.782C384.648 382.782 384.97 382.614 385.292 382.292L385.964 383.3C385.404 383.86 384.788 384.126 383.99 384.126C382.702 384.126 381.652 383.342 381.652 381.802V377.798H380.35V376.58H381.652V374.928L383.22 374.214V376.58H385.838V377.798H383.22V381.704ZM388.061 375.348C387.445 375.348 386.955 374.872 386.955 374.242C386.955 373.612 387.445 373.136 388.061 373.136C388.677 373.136 389.153 373.612 389.153 374.242C389.153 374.872 388.677 375.348 388.061 375.348ZM387.277 384V376.58H388.845V384H387.277ZM400.534 381.662L401.57 382.278C401.164 383.202 400.226 384.126 398.574 384.126C397.188 384.126 396.166 383.412 395.704 382.292C395.396 383.202 394.43 384.126 393.002 384.126C391.588 384.126 390.594 383.216 390.594 381.928C390.594 380.276 392.022 379.492 393.618 379.492H395.144V379.002C395.144 378.204 394.654 377.686 393.73 377.686C392.848 377.686 392.218 378.176 391.938 379.016L390.664 378.582C391.182 377.07 392.498 376.412 393.772 376.412C394.934 376.412 395.704 376.874 396.124 377.574C396.67 376.846 397.524 376.412 398.518 376.412C400.184 376.412 401.528 377.588 401.528 379.688L401.5 380.584H396.656C396.712 382.18 397.468 382.852 398.658 382.852C399.554 382.852 400.17 382.362 400.534 381.662ZM398.476 377.644C397.552 377.644 396.768 378.162 396.67 379.52H400.072C400.086 378.176 399.316 377.644 398.476 377.644ZM395.144 380.934V380.584H393.772C392.82 380.584 392.12 380.99 392.12 381.788C392.12 382.474 392.61 382.908 393.352 382.908C394.122 382.908 395.144 382.46 395.144 380.934ZM406.672 376.412C407.75 376.412 408.45 377.126 408.45 378.4V379.38L407.19 379.604V378.848C407.19 378.176 406.952 377.714 406.224 377.714C405.426 377.714 404.838 378.246 404.838 379.66V384H403.27V376.58H404.838V377.574C405.258 376.748 406.028 376.412 406.672 376.412ZM417.19 376.412C418.702 376.412 419.598 377.392 419.598 379.002V384H418.03V379.254C418.03 378.232 417.54 377.77 416.686 377.77C415.58 377.77 415.006 378.54 415.006 379.982V384H413.438V373.64H415.006V377.658C415.51 376.86 416.266 376.412 417.19 376.412ZM427.652 384H426.21C426.098 383.622 426.028 383.174 426 382.6C425.65 383.37 424.866 384.126 423.578 384.126C422.234 384.126 421.282 383.216 421.282 381.928C421.282 380.318 422.71 379.52 424.306 379.52C424.81 379.52 425.286 379.562 425.804 379.702V379.002C425.804 378.204 425.3 377.686 424.39 377.686C423.536 377.686 422.934 378.148 422.654 379.016L421.324 378.61C421.856 377.042 423.13 376.412 424.46 376.412C426.434 376.412 427.33 377.574 427.33 378.988V381.858C427.33 382.74 427.47 383.524 427.652 384ZM425.804 380.934V380.766C425.356 380.612 424.922 380.556 424.46 380.556C423.536 380.556 422.822 380.976 422.822 381.788C422.822 382.474 423.312 382.908 424.054 382.908C424.81 382.908 425.804 382.46 425.804 380.934ZM433.224 376.412C434.736 376.412 435.632 377.392 435.632 379.002V384H434.064V379.254C434.064 378.232 433.574 377.77 432.72 377.77C431.614 377.77 431.054 378.54 431.054 379.982V384H429.486V376.58H431.054V377.644C431.558 376.86 432.3 376.412 433.224 376.412ZM442.649 373.64H444.217V384H442.649V382.656C442.075 383.692 441.179 384.112 440.325 384.112C438.533 384.112 437.245 382.572 437.245 380.318C437.245 377.98 438.547 376.426 440.507 376.426C441.347 376.426 442.187 376.804 442.649 377.714V373.64ZM440.745 382.74C441.879 382.74 442.649 381.97 442.649 380.234C442.649 378.512 441.893 377.686 440.745 377.686C439.667 377.686 438.869 378.554 438.869 380.234C438.869 381.9 439.667 382.74 440.745 382.74ZM449.212 383.958C448.918 384.042 448.624 384.084 448.316 384.084C446.902 384.084 446.23 383.244 446.23 381.886V373.64H447.798V381.774C447.798 382.418 448.176 382.712 448.75 382.712C448.89 382.712 449.044 382.698 449.212 382.656V383.958ZM450.565 373.36H452.483V375.25H450.565V373.36ZM450.747 384V376.58H452.315V384H450.747ZM458.25 376.412C459.762 376.412 460.658 377.392 460.658 379.002V384H459.09V379.254C459.09 378.232 458.6 377.77 457.746 377.77C456.64 377.77 456.08 378.54 456.08 379.982V384H454.512V376.58H456.08V377.644C456.584 376.86 457.326 376.412 458.25 376.412ZM469.86 377.798H468.306V377.966C468.558 378.316 468.684 378.722 468.684 379.142C468.684 380.486 467.648 381.83 465.492 381.83H465.128C464.372 381.83 463.882 382.082 463.882 382.53C463.882 382.838 464.12 383.062 464.596 383.062H467.69C468.964 383.062 469.692 383.72 469.692 384.728C469.692 386.254 468.138 387.136 465.66 387.136C463.49 387.136 462.034 386.59 461.656 385.148L463.182 384.854C463.532 385.75 464.344 385.988 465.702 385.988C467.158 385.988 468.194 385.596 468.194 384.91C468.194 384.588 468.012 384.35 467.508 384.35H464.134C462.972 384.35 462.37 383.72 462.37 382.936C462.37 382.18 463.042 381.578 463.966 381.396C462.944 380.948 462.44 379.996 462.44 379.1C462.44 377.77 463.518 376.412 465.576 376.412C466.486 376.412 467.2 376.734 467.62 377.196V376.58H469.86V377.798ZM465.576 380.696C466.654 380.696 467.158 379.94 467.158 379.128C467.158 378.316 466.654 377.574 465.576 377.574C464.512 377.574 463.994 378.316 463.994 379.128C463.994 379.94 464.512 380.696 465.576 380.696Z" fill="#2A2859"/>
<line x1="345" y1="207.5" x2="483" y2="207.5" stroke="#2A2859"/>
<line x1="301" y1="321.5" x2="528" y2="321.5" stroke="#2A2859"/>
</g>
<defs>
<clipPath id="clip0_5110_156353">
<rect width="827" height="512" fill="white"/>
</clipPath>
</defs>
</svg>
