<svg width="1010" height="316" viewBox="0 0 1010 316" fill="none" xmlns="http://www.w3.org/2000/svg">
<rect width="1010" height="316" fill="white"/>
<path d="M90.81 107.68H92.826V121H90.99L84.582 111.442V121H82.566V107.68H84.564L90.81 117.058V107.68ZM102.205 117.994L103.573 118.786C103.033 119.974 101.773 121.162 99.5945 121.162C96.7685 121.162 95.0585 119.074 95.0585 116.14C95.0585 113.242 96.9125 111.244 99.4505 111.244C101.701 111.244 103.555 112.756 103.555 115.456L103.519 116.644H97.0385C97.1465 118.66 98.1365 119.524 99.7205 119.524C100.891 119.524 101.701 118.894 102.205 117.994ZM99.4505 112.828C98.2265 112.828 97.2005 113.476 97.0385 115.204H101.593C101.611 113.512 100.567 112.828 99.4505 112.828ZM112.195 107.68H114.211V121H112.195V119.272C111.457 120.604 110.305 121.144 109.207 121.144C106.903 121.144 105.247 119.164 105.247 116.266C105.247 113.26 106.921 111.262 109.441 111.262C110.521 111.262 111.601 111.748 112.195 112.918V107.68ZM109.747 119.38C111.205 119.38 112.195 118.39 112.195 116.158C112.195 113.944 111.223 112.882 109.747 112.882C108.361 112.882 107.335 113.998 107.335 116.158C107.335 118.3 108.361 119.38 109.747 119.38ZM119.556 118.048C119.556 119.11 120.204 119.434 120.87 119.434C121.392 119.434 121.806 119.218 122.22 118.804L123.084 120.1C122.364 120.82 121.572 121.162 120.546 121.162C118.89 121.162 117.54 120.154 117.54 118.174V113.026H115.866V111.46H117.54V109.336L119.556 108.418V111.46H122.922V113.026H119.556V118.048ZM129.204 111.244C130.59 111.244 131.49 112.162 131.49 113.8V115.06L129.87 115.348V114.376C129.87 113.512 129.564 112.918 128.628 112.918C127.602 112.918 126.846 113.602 126.846 115.42V121H124.83V111.46H126.846V112.738C127.386 111.676 128.376 111.244 129.204 111.244ZM139.619 117.994L140.987 118.786C140.447 119.974 139.187 121.162 137.009 121.162C134.183 121.162 132.473 119.074 132.473 116.14C132.473 113.242 134.327 111.244 136.865 111.244C139.115 111.244 140.969 112.756 140.969 115.456L140.933 116.644H134.453C134.561 118.66 135.551 119.524 137.135 119.524C138.305 119.524 139.115 118.894 139.619 117.994ZM136.865 112.828C135.641 112.828 134.615 113.476 134.453 115.204H139.007C139.025 113.512 137.981 112.828 136.865 112.828ZM149.268 121L146.37 116.626L145.272 117.706V121H143.256V107.68H145.272V115.42L149.124 111.46H151.608L147.702 115.312L151.68 121H149.268ZM159.457 121L156.559 116.626L155.461 117.706V121H153.445V107.68H155.461V115.42L159.313 111.46H161.797L157.891 115.312L161.869 121H159.457Z" fill="#2A2859"/>
<rect width="83" height="22" transform="translate(171 104)" fill="#F8F0DD"/>
<path d="M184.324 109.64H185.276V120H184.296V111.362L180.964 116.542H180.544L177.212 111.362V120H176.232V109.64H177.184L180.754 115.184L184.324 109.64ZM190.362 111.796C189.452 111.796 188.71 111.124 188.71 110.2C188.71 109.276 189.452 108.604 190.362 108.604C191.272 108.604 192.014 109.276 192.014 110.2C192.014 111.124 191.272 111.796 190.362 111.796ZM190.362 109.248C189.83 109.248 189.41 109.584 189.41 110.2C189.41 110.83 189.83 111.152 190.362 111.152C190.894 111.152 191.314 110.83 191.314 110.2C191.314 109.584 190.894 109.248 190.362 109.248ZM193.246 120H192.378C192.266 119.594 192.182 119.104 192.182 118.544C191.804 119.412 190.838 120.112 189.634 120.112C188.318 120.112 187.324 119.258 187.324 117.984C187.324 116.458 188.696 115.66 190.222 115.66C190.824 115.66 191.412 115.73 192.014 115.94V114.96C192.014 113.994 191.426 113.336 190.278 113.336C189.354 113.336 188.57 113.742 188.178 114.876L187.338 114.624C187.898 113.056 189.032 112.468 190.334 112.468C192.168 112.468 192.938 113.574 192.938 114.848V117.9C192.938 118.74 193.078 119.496 193.246 120ZM192.014 116.92V116.752C191.44 116.514 190.852 116.444 190.278 116.444C189.158 116.444 188.276 116.948 188.276 117.928C188.276 118.824 188.906 119.3 189.802 119.3C190.768 119.3 192.014 118.726 192.014 116.92ZM200.411 111.544V112.58H202.483V113.364H200.411V120H199.459V113.364H198.059V112.58H199.459V111.544C199.459 110.256 200.299 109.528 201.447 109.528C201.979 109.528 202.595 109.738 202.945 110.298L202.371 110.872C202.147 110.536 201.811 110.34 201.419 110.34C200.929 110.34 200.411 110.634 200.411 111.544ZM208.421 112.58H209.401L206.139 121.022C205.649 122.282 205.103 123.08 203.955 123.08C203.451 123.08 202.989 122.898 202.639 122.576L203.059 121.89C203.339 122.142 203.605 122.254 203.927 122.254C204.445 122.254 204.809 122.03 205.173 121.176L205.607 120.126L202.821 112.58H203.857L206.097 119.006L208.421 112.58ZM213.132 119.972C212.908 120.028 212.726 120.056 212.516 120.056C211.354 120.056 210.808 119.328 210.808 118.236V109.64H211.76V118.236C211.76 118.866 212.096 119.188 212.684 119.188C212.838 119.188 212.992 119.174 213.132 119.132V119.972ZM217.192 119.972C216.968 120.028 216.786 120.056 216.576 120.056C215.414 120.056 214.868 119.328 214.868 118.236V109.64H215.82V118.236C215.82 118.866 216.156 119.188 216.744 119.188C216.898 119.188 217.052 119.174 217.192 119.132V119.972ZM223.778 117.9L224.478 118.292C224.128 119.188 223.204 120.112 221.552 120.112C219.466 120.112 218.234 118.558 218.234 116.192C218.234 114.022 219.522 112.468 221.454 112.468C223.05 112.468 224.422 113.616 224.422 115.632L224.394 116.458H219.2C219.284 118.432 220.222 119.272 221.65 119.272C222.77 119.272 223.428 118.628 223.778 117.9ZM221.454 113.308C220.334 113.308 219.326 113.91 219.2 115.674H223.484C223.526 114.008 222.546 113.308 221.454 113.308ZM226.07 114.512C226.07 113.336 227.176 112.468 228.73 112.468C230.074 112.468 231.11 113.112 231.418 114.092L230.634 114.4C230.34 113.686 229.654 113.308 228.702 113.308C227.666 113.308 226.994 113.742 226.994 114.428C226.994 115.044 227.4 115.422 228.282 115.604L229.262 115.8C230.886 116.122 231.642 116.822 231.642 117.928C231.642 119.216 230.494 120.112 228.842 120.112C227.344 120.112 226.294 119.524 225.79 118.404L226.602 118.068C226.952 118.852 227.722 119.272 228.814 119.272C229.962 119.272 230.718 118.768 230.718 118.012C230.718 117.312 230.326 116.934 229.346 116.724L228.142 116.472C226.784 116.192 226.07 115.506 226.07 114.512ZM241.411 112.58H242.363V120H241.411V118.866C240.963 119.664 240.179 120.112 239.269 120.112C237.813 120.112 236.931 119.174 236.931 117.564V112.58H237.883V117.48C237.883 118.698 238.499 119.258 239.535 119.258C240.851 119.258 241.411 118.208 241.411 116.752V112.58ZM246.198 118.152C246.198 119.02 246.716 119.272 247.178 119.272C247.626 119.272 247.92 119.104 248.27 118.74L248.774 119.3C248.284 119.874 247.752 120.112 247.094 120.112C246.086 120.112 245.246 119.44 245.246 118.124V113.364H243.846V112.58H245.246V110.984L246.198 110.424V112.58H248.606V113.364H246.198V118.152Z" fill="#2A2859"/>
<path d="M82.232 153V142.64H85.62C88.182 142.64 90.156 144.642 90.156 147.764C90.156 150.886 88.182 153 85.62 153H82.232ZM83.212 152.104H85.424C87.58 152.104 89.148 150.648 89.148 147.764C89.148 144.908 87.566 143.536 85.396 143.536H83.212V152.104ZM97.1294 150.9L97.8294 151.292C97.4794 152.188 96.5554 153.112 94.9034 153.112C92.8174 153.112 91.5854 151.558 91.5854 149.192C91.5854 147.022 92.8734 145.468 94.8054 145.468C96.4014 145.468 97.7734 146.616 97.7734 148.632L97.7454 149.458H92.5514C92.6354 151.432 93.5734 152.272 95.0014 152.272C96.1214 152.272 96.7794 151.628 97.1294 150.9ZM94.8054 146.308C93.6854 146.308 92.6774 146.91 92.5514 148.674H96.8354C96.8774 147.008 95.8974 146.308 94.8054 146.308ZM101.133 151.152C101.133 152.02 101.651 152.272 102.113 152.272C102.561 152.272 102.855 152.104 103.205 151.74L103.709 152.3C103.219 152.874 102.687 153.112 102.029 153.112C101.021 153.112 100.181 152.44 100.181 151.124V146.364H98.7813V145.58H100.181V143.984L101.133 143.424V145.58H103.541V146.364H101.133V151.152ZM106.547 151.152C106.547 152.02 107.065 152.272 107.527 152.272C107.975 152.272 108.269 152.104 108.619 151.74L109.123 152.3C108.633 152.874 108.101 153.112 107.443 153.112C106.435 153.112 105.595 152.44 105.595 151.124V146.364H104.195V145.58H105.595V143.984L106.547 143.424V145.58H108.955V146.364H106.547V151.152ZM115.395 150.9L116.095 151.292C115.745 152.188 114.821 153.112 113.169 153.112C111.083 153.112 109.851 151.558 109.851 149.192C109.851 147.022 111.139 145.468 113.071 145.468C114.667 145.468 116.039 146.616 116.039 148.632L116.011 149.458H110.817C110.901 151.432 111.839 152.272 113.267 152.272C114.387 152.272 115.045 151.628 115.395 150.9ZM113.071 146.308C111.951 146.308 110.943 146.91 110.817 148.674H115.101C115.143 147.008 114.163 146.308 113.071 146.308ZM126.702 150.9L127.402 151.292C127.052 152.188 126.128 153.112 124.476 153.112C122.39 153.112 121.158 151.558 121.158 149.192C121.158 147.022 122.446 145.468 124.378 145.468C125.974 145.468 127.346 146.616 127.346 148.632L127.318 149.458H122.124C122.208 151.432 123.146 152.272 124.574 152.272C125.694 152.272 126.352 151.628 126.702 150.9ZM124.378 146.308C123.258 146.308 122.25 146.91 122.124 148.674H126.408C126.45 147.008 125.47 146.308 124.378 146.308ZM132.018 145.468C132.984 145.468 133.684 146.112 133.684 147.372V148.1L132.816 148.268V147.54C132.816 146.798 132.564 146.308 131.808 146.308C130.954 146.308 130.31 146.938 130.31 148.436V153H129.358V145.58H130.31V146.504C130.702 145.804 131.36 145.468 132.018 145.468ZM140.631 151.152C140.631 152.02 141.149 152.272 141.611 152.272C142.059 152.272 142.353 152.104 142.703 151.74L143.207 152.3C142.717 152.874 142.185 153.112 141.527 153.112C140.519 153.112 139.679 152.44 139.679 151.124V146.364H138.279V145.58H139.679V143.984L140.631 143.424V145.58H143.039V146.364H140.631V151.152ZM149.479 150.9L150.179 151.292C149.829 152.188 148.905 153.112 147.253 153.112C145.167 153.112 143.935 151.558 143.935 149.192C143.935 147.022 145.223 145.468 147.155 145.468C148.751 145.468 150.123 146.616 150.123 148.632L150.095 149.458H144.901C144.985 151.432 145.923 152.272 147.351 152.272C148.471 152.272 149.129 151.628 149.479 150.9ZM147.155 146.308C146.035 146.308 145.027 146.91 144.901 148.674H149.185C149.227 147.008 148.247 146.308 147.155 146.308ZM156.756 153L154.026 149.318L153.116 150.186V153H152.164V142.64H153.116V149.066L156.644 145.58H157.904L154.67 148.688L157.96 153H156.756ZM158.772 147.512C158.772 146.336 159.878 145.468 161.432 145.468C162.776 145.468 163.812 146.112 164.12 147.092L163.336 147.4C163.042 146.686 162.356 146.308 161.404 146.308C160.368 146.308 159.696 146.742 159.696 147.428C159.696 148.044 160.102 148.422 160.984 148.604L161.964 148.8C163.588 149.122 164.344 149.822 164.344 150.928C164.344 152.216 163.196 153.112 161.544 153.112C160.046 153.112 158.996 152.524 158.492 151.404L159.304 151.068C159.654 151.852 160.424 152.272 161.516 152.272C162.664 152.272 163.42 151.768 163.42 151.012C163.42 150.312 163.028 149.934 162.048 149.724L160.844 149.472C159.486 149.192 158.772 148.506 158.772 147.512ZM167.565 151.152C167.565 152.02 168.083 152.272 168.545 152.272C168.993 152.272 169.287 152.104 169.637 151.74L170.141 152.3C169.651 152.874 169.119 153.112 168.461 153.112C167.453 153.112 166.613 152.44 166.613 151.124V146.364H165.213V145.58H166.613V143.984L167.565 143.424V145.58H169.973V146.364H167.565V151.152ZM178.178 153.112C176.344 153.112 174.874 151.6 174.874 149.276C174.874 146.98 176.33 145.468 178.178 145.468C180.026 145.468 181.482 146.98 181.482 149.276C181.482 151.6 180.012 153.112 178.178 153.112ZM178.178 152.272C179.452 152.272 180.502 151.264 180.502 149.276C180.502 147.302 179.438 146.308 178.178 146.308C176.918 146.308 175.854 147.302 175.854 149.276C175.854 151.264 176.904 152.272 178.178 152.272ZM187.875 145.58H188.855L185.943 153H185.103L182.191 145.58H183.227L185.551 151.95L187.875 145.58ZM195.102 150.9L195.802 151.292C195.452 152.188 194.528 153.112 192.876 153.112C190.79 153.112 189.558 151.558 189.558 149.192C189.558 147.022 190.846 145.468 192.778 145.468C194.374 145.468 195.746 146.616 195.746 148.632L195.718 149.458H190.524C190.608 151.432 191.546 152.272 192.974 152.272C194.094 152.272 194.752 151.628 195.102 150.9ZM192.778 146.308C191.658 146.308 190.65 146.91 190.524 148.674H194.808C194.85 147.008 193.87 146.308 192.778 146.308ZM200.419 145.468C201.385 145.468 202.085 146.112 202.085 147.372V148.1L201.217 148.268V147.54C201.217 146.798 200.965 146.308 200.209 146.308C199.355 146.308 198.711 146.938 198.711 148.436V153H197.759V145.58H198.711V146.504C199.103 145.804 199.761 145.468 200.419 145.468ZM210.656 145.468C212.14 145.468 213.008 146.378 213.008 148.044V153H212.056V148.184C212.056 146.84 211.44 146.336 210.404 146.336C209.102 146.336 208.5 147.344 208.5 148.828V153H207.548V145.58H208.5V146.728C208.948 145.916 209.76 145.468 210.656 145.468ZM220.368 150.9L221.068 151.292C220.718 152.188 219.794 153.112 218.142 153.112C216.056 153.112 214.824 151.558 214.824 149.192C214.824 147.022 216.112 145.468 218.044 145.468C219.64 145.468 221.012 146.616 221.012 148.632L220.984 149.458H215.79C215.874 151.432 216.812 152.272 218.24 152.272C219.36 152.272 220.018 151.628 220.368 150.9ZM218.044 146.308C216.924 146.308 215.916 146.91 215.79 148.674H220.074C220.116 147.008 219.136 146.308 218.044 146.308ZM228.148 142.64H229.1V153H228.148V151.614C227.658 152.566 226.678 153.098 225.712 153.098C223.822 153.098 222.548 151.516 222.548 149.36C222.548 147.078 223.836 145.468 225.824 145.468C226.86 145.468 227.7 145.986 228.148 146.924V142.64ZM225.81 152.258C227.294 152.258 228.148 151.152 228.148 149.332C228.148 147.4 227.308 146.308 225.824 146.308C224.438 146.308 223.528 147.372 223.528 149.318C223.528 151.194 224.438 152.258 225.81 152.258ZM232.93 151.152C232.93 152.02 233.448 152.272 233.91 152.272C234.358 152.272 234.652 152.104 235.002 151.74L235.506 152.3C235.016 152.874 234.484 153.112 233.826 153.112C232.818 153.112 231.978 152.44 231.978 151.124V146.364H230.578V145.58H231.978V143.984L232.93 143.424V145.58H235.338V146.364H232.93V151.152ZM239.794 145.468C240.76 145.468 241.46 146.112 241.46 147.372V148.1L240.592 148.268V147.54C240.592 146.798 240.34 146.308 239.584 146.308C238.73 146.308 238.086 146.938 238.086 148.436V153H237.134V145.58H238.086V146.504C238.478 145.804 239.136 145.468 239.794 145.468ZM247.985 150.9L248.685 151.292C248.335 152.188 247.411 153.112 245.759 153.112C243.673 153.112 242.441 151.558 242.441 149.192C242.441 147.022 243.729 145.468 245.661 145.468C247.257 145.468 248.629 146.616 248.629 148.632L248.601 149.458H243.407C243.491 151.432 244.429 152.272 245.857 152.272C246.977 152.272 247.635 151.628 247.985 150.9ZM245.661 146.308C244.541 146.308 243.533 146.91 243.407 148.674H247.691C247.733 147.008 246.753 146.308 245.661 146.308ZM255.262 153L252.532 149.318L251.622 150.186V153H250.67V142.64H251.622V149.066L255.15 145.58H256.41L253.176 148.688L256.466 153H255.262ZM262.685 153L259.955 149.318L259.045 150.186V153H258.093V142.64H259.045V149.066L262.573 145.58H263.833L260.599 148.688L263.889 153H262.685ZM264.701 147.512C264.701 146.336 265.807 145.468 267.361 145.468C268.705 145.468 269.741 146.112 270.049 147.092L269.265 147.4C268.971 146.686 268.285 146.308 267.333 146.308C266.297 146.308 265.625 146.742 265.625 147.428C265.625 148.044 266.031 148.422 266.913 148.604L267.893 148.8C269.517 149.122 270.273 149.822 270.273 150.928C270.273 152.216 269.125 153.112 267.473 153.112C265.975 153.112 264.925 152.524 264.421 151.404L265.233 151.068C265.583 151.852 266.353 152.272 267.445 152.272C268.593 152.272 269.349 151.768 269.349 151.012C269.349 150.312 268.957 149.934 267.977 149.724L266.773 149.472C265.415 149.192 264.701 148.506 264.701 147.512ZM273.495 144.544V145.58H275.567V146.364H273.495V153H272.543V146.364H271.143V145.58H272.543V144.544C272.543 143.256 273.383 142.528 274.531 142.528C275.063 142.528 275.679 142.738 276.029 143.298L275.455 143.872C275.231 143.536 274.895 143.34 274.503 143.34C274.013 143.34 273.495 143.634 273.495 144.544ZM281.659 150.9L282.359 151.292C282.009 152.188 281.085 153.112 279.433 153.112C277.347 153.112 276.115 151.558 276.115 149.192C276.115 147.022 277.403 145.468 279.335 145.468C280.931 145.468 282.303 146.616 282.303 148.632L282.275 149.458H277.081C277.165 151.432 278.103 152.272 279.531 152.272C280.651 152.272 281.309 151.628 281.659 150.9ZM279.335 146.308C278.215 146.308 277.207 146.91 277.081 148.674H281.365C281.407 147.008 280.427 146.308 279.335 146.308ZM286.639 152.972C286.415 153.028 286.233 153.056 286.023 153.056C284.861 153.056 284.315 152.328 284.315 151.236V142.64H285.267V151.236C285.267 151.866 285.603 152.188 286.191 152.188C286.345 152.188 286.499 152.174 286.639 152.132V152.972ZM289.723 151.152C289.723 152.02 290.241 152.272 290.703 152.272C291.151 152.272 291.445 152.104 291.795 151.74L292.299 152.3C291.809 152.874 291.277 153.112 290.619 153.112C289.611 153.112 288.771 152.44 288.771 151.124V146.364H287.371V145.58H288.771V143.984L289.723 143.424V145.58H292.131V146.364H289.723V151.152ZM298.571 150.9L299.271 151.292C298.921 152.188 297.997 153.112 296.345 153.112C294.259 153.112 293.027 151.558 293.027 149.192C293.027 147.022 294.315 145.468 296.247 145.468C297.843 145.468 299.215 146.616 299.215 148.632L299.187 149.458H293.993C294.077 151.432 295.015 152.272 296.443 152.272C297.563 152.272 298.221 151.628 298.571 150.9ZM296.247 146.308C295.127 146.308 294.119 146.91 293.993 148.674H298.277C298.319 147.008 297.339 146.308 296.247 146.308ZM302.575 151.152C302.575 152.02 303.093 152.272 303.555 152.272C304.003 152.272 304.297 152.104 304.647 151.74L305.151 152.3C304.661 152.874 304.129 153.112 303.471 153.112C302.463 153.112 301.623 152.44 301.623 151.124V146.364H300.223V145.58H301.623V143.984L302.575 143.424V145.58H304.983V146.364H302.575V151.152ZM307.478 153.084C306.974 153.084 306.582 152.706 306.582 152.188C306.582 151.67 306.974 151.292 307.478 151.292C307.982 151.292 308.374 151.67 308.374 152.188C308.374 152.706 307.982 153.084 307.478 153.084Z" fill="#2A2859"/>
<rect x="82" y="168" width="398" height="46" fill="white"/>
<path d="M107.188 183.68H108.52L103.642 197H102.382L97.54 183.68H98.908L103.03 195.542L107.188 183.68ZM115.657 194.3L116.557 194.804C116.107 195.956 114.919 197.144 112.795 197.144C110.113 197.144 108.529 195.146 108.529 192.104C108.529 189.314 110.185 187.316 112.669 187.316C114.721 187.316 116.485 188.792 116.485 191.384L116.449 192.446H109.771C109.879 194.984 111.085 196.064 112.921 196.064C114.361 196.064 115.207 195.236 115.657 194.3ZM112.669 188.396C111.229 188.396 109.933 189.17 109.771 191.438H115.279C115.333 189.296 114.073 188.396 112.669 188.396ZM121.861 196.964C121.573 197.036 121.339 197.072 121.069 197.072C119.575 197.072 118.873 196.136 118.873 194.732V183.68H120.097V194.732C120.097 195.542 120.529 195.956 121.285 195.956C121.483 195.956 121.681 195.938 121.861 195.884V196.964ZM132.11 188.468H130.058V188.81C130.526 189.386 130.778 190.106 130.778 190.808C130.778 192.554 129.518 194.336 126.836 194.336H126.422C125.342 194.336 124.568 194.75 124.568 195.38C124.568 195.866 124.946 196.208 125.738 196.208H129.608C131.156 196.208 131.948 196.964 131.948 198.152C131.948 200.042 129.77 201.032 127.088 201.032C124.676 201.032 123.002 200.258 122.426 198.584L123.416 198.134C124.082 199.7 125.486 200.006 127.088 200.006C129.068 200.006 130.724 199.412 130.724 198.26C130.724 197.72 130.436 197.324 129.572 197.324H125.468C124.136 197.324 123.344 196.694 123.344 195.704C123.344 194.858 124.046 194.12 125.216 193.814C123.956 193.31 123.254 191.978 123.254 190.808C123.254 189.098 124.532 187.316 127.052 187.316C128.042 187.316 128.798 187.64 129.374 188.126V187.46H132.11V188.468ZM127.034 193.328C128.726 193.328 129.572 192.158 129.572 190.808C129.572 189.476 128.726 188.36 127.034 188.36C125.324 188.36 124.46 189.494 124.46 190.808C124.46 192.14 125.324 193.328 127.034 193.328Z" fill="#2A2859"/>
<path fill-rule="evenodd" clip-rule="evenodd" d="M453 193.56L445.747 186.5L444.75 187.47L453 195.5L461.25 187.47L460.253 186.5L453 193.56Z" fill="#2A2859"/>
<rect x="82" y="168" width="398" height="46" stroke="#2A2859" stroke-width="2"/>
<path d="M538.81 107.68H540.826V121H538.99L532.582 111.442V121H530.566V107.68H532.564L538.81 117.058V107.68ZM550.205 117.994L551.573 118.786C551.033 119.974 549.773 121.162 547.595 121.162C544.769 121.162 543.059 119.074 543.059 116.14C543.059 113.242 544.913 111.244 547.451 111.244C549.701 111.244 551.555 112.756 551.555 115.456L551.519 116.644H545.039C545.147 118.66 546.137 119.524 547.721 119.524C548.891 119.524 549.701 118.894 550.205 117.994ZM547.451 112.828C546.227 112.828 545.201 113.476 545.039 115.204H549.593C549.611 113.512 548.567 112.828 547.451 112.828ZM560.195 107.68H562.211V121H560.195V119.272C559.457 120.604 558.305 121.144 557.207 121.144C554.903 121.144 553.247 119.164 553.247 116.266C553.247 113.26 554.921 111.262 557.441 111.262C558.521 111.262 559.601 111.748 560.195 112.918V107.68ZM557.747 119.38C559.205 119.38 560.195 118.39 560.195 116.158C560.195 113.944 559.223 112.882 557.747 112.882C556.361 112.882 555.335 113.998 555.335 116.158C555.335 118.3 556.361 119.38 557.747 119.38ZM567.556 118.048C567.556 119.11 568.204 119.434 568.87 119.434C569.392 119.434 569.806 119.218 570.22 118.804L571.084 120.1C570.364 120.82 569.572 121.162 568.546 121.162C566.89 121.162 565.54 120.154 565.54 118.174V113.026H563.866V111.46H565.54V109.336L567.556 108.418V111.46H570.922V113.026H567.556V118.048ZM577.204 111.244C578.59 111.244 579.49 112.162 579.49 113.8V115.06L577.87 115.348V114.376C577.87 113.512 577.564 112.918 576.628 112.918C575.602 112.918 574.846 113.602 574.846 115.42V121H572.83V111.46H574.846V112.738C575.386 111.676 576.376 111.244 577.204 111.244ZM587.619 117.994L588.987 118.786C588.447 119.974 587.187 121.162 585.009 121.162C582.183 121.162 580.473 119.074 580.473 116.14C580.473 113.242 582.327 111.244 584.865 111.244C587.115 111.244 588.969 112.756 588.969 115.456L588.933 116.644H582.453C582.561 118.66 583.551 119.524 585.135 119.524C586.305 119.524 587.115 118.894 587.619 117.994ZM584.865 112.828C583.641 112.828 582.615 113.476 582.453 115.204H587.007C587.025 113.512 585.981 112.828 584.865 112.828ZM597.268 121L594.37 116.626L593.272 117.706V121H591.256V107.68H593.272V115.42L597.124 111.46H599.608L595.702 115.312L599.68 121H597.268ZM607.457 121L604.559 116.626L603.461 117.706V121H601.445V107.68H603.461V115.42L607.313 111.46H609.797L605.891 115.312L609.869 121H607.457Z" fill="#2A2859"/>
<rect width="62" height="22" transform="translate(619 104)" fill="#E5FCFF"/>
<path d="M630.924 109.64H631.96L628.166 120H627.186L623.42 109.64H624.484L627.69 118.866L630.924 109.64ZM637.992 120H637.124C637.012 119.594 636.928 119.104 636.928 118.544C636.55 119.412 635.584 120.112 634.38 120.112C633.064 120.112 632.07 119.258 632.07 117.984C632.07 116.458 633.442 115.66 634.968 115.66C635.57 115.66 636.158 115.73 636.76 115.94V114.96C636.76 113.994 636.172 113.336 635.024 113.336C634.1 113.336 633.316 113.742 632.924 114.876L632.084 114.624C632.644 113.056 633.778 112.468 635.08 112.468C636.914 112.468 637.684 113.574 637.684 114.848V117.9C637.684 118.74 637.824 119.496 637.992 120ZM636.76 116.92V116.752C636.186 116.514 635.598 116.444 635.024 116.444C633.904 116.444 633.022 116.948 633.022 117.928C633.022 118.824 633.652 119.3 634.548 119.3C635.514 119.3 636.76 118.726 636.76 116.92ZM642.415 119.972C642.191 120.028 642.009 120.056 641.799 120.056C640.637 120.056 640.091 119.328 640.091 118.236V109.64H641.043V118.236C641.043 118.866 641.379 119.188 641.967 119.188C642.121 119.188 642.275 119.174 642.415 119.132V119.972ZM650.542 113.364H648.946V113.63C649.31 114.078 649.506 114.638 649.506 115.184C649.506 116.542 648.526 117.928 646.44 117.928H646.118C645.278 117.928 644.676 118.25 644.676 118.74C644.676 119.118 644.97 119.384 645.586 119.384H648.596C649.8 119.384 650.416 119.972 650.416 120.896C650.416 122.366 648.722 123.136 646.636 123.136C644.76 123.136 643.458 122.534 643.01 121.232L643.78 120.882C644.298 122.1 645.39 122.338 646.636 122.338C648.176 122.338 649.464 121.876 649.464 120.98C649.464 120.56 649.24 120.252 648.568 120.252H645.376C644.34 120.252 643.724 119.762 643.724 118.992C643.724 118.334 644.27 117.76 645.18 117.522C644.2 117.13 643.654 116.094 643.654 115.184C643.654 113.854 644.648 112.468 646.608 112.468C647.378 112.468 647.966 112.72 648.414 113.098V112.58H650.542V113.364ZM646.594 117.144C647.91 117.144 648.568 116.234 648.568 115.184C648.568 114.148 647.91 113.28 646.594 113.28C645.264 113.28 644.592 114.162 644.592 115.184C644.592 116.22 645.264 117.144 646.594 117.144ZM653.237 111.544V112.58H655.309V113.364H653.237V120H652.285V113.364H650.885V112.58H652.285V111.544C652.285 110.256 653.125 109.528 654.273 109.528C654.805 109.528 655.421 109.738 655.771 110.298L655.197 110.872C654.973 110.536 654.637 110.34 654.245 110.34C653.755 110.34 653.237 110.634 653.237 111.544ZM659.417 112.468C660.383 112.468 661.083 113.112 661.083 114.372V115.1L660.215 115.268V114.54C660.215 113.798 659.963 113.308 659.207 113.308C658.353 113.308 657.709 113.938 657.709 115.436V120H656.757V112.58H657.709V113.504C658.101 112.804 658.759 112.468 659.417 112.468ZM663.44 111.236C662.978 111.236 662.6 110.872 662.6 110.396C662.6 109.92 662.978 109.556 663.44 109.556C663.902 109.556 664.28 109.92 664.28 110.396C664.28 110.872 663.902 111.236 663.44 111.236ZM662.964 120V112.58H663.916V120H662.964ZM667.811 118.152C667.811 119.02 668.329 119.272 668.791 119.272C669.239 119.272 669.533 119.104 669.883 118.74L670.387 119.3C669.897 119.874 669.365 120.112 668.707 120.112C667.699 120.112 666.859 119.44 666.859 118.124V113.364H665.459V112.58H666.859V110.984L667.811 110.424V112.58H670.219V113.364H667.811V118.152ZM673.225 118.152C673.225 119.02 673.743 119.272 674.205 119.272C674.653 119.272 674.947 119.104 675.297 118.74L675.801 119.3C675.311 119.874 674.779 120.112 674.121 120.112C673.113 120.112 672.273 119.44 672.273 118.124V113.364H670.873V112.58H672.273V110.984L673.225 110.424V112.58H675.633V113.364H673.225V118.152Z" fill="#2A2859"/>
<path d="M530.232 153V142.64H533.62C536.182 142.64 538.156 144.642 538.156 147.764C538.156 150.886 536.182 153 533.62 153H530.232ZM531.212 152.104H533.424C535.58 152.104 537.148 150.648 537.148 147.764C537.148 144.908 535.566 143.536 533.396 143.536H531.212V152.104ZM545.129 150.9L545.829 151.292C545.479 152.188 544.555 153.112 542.903 153.112C540.817 153.112 539.585 151.558 539.585 149.192C539.585 147.022 540.873 145.468 542.805 145.468C544.401 145.468 545.773 146.616 545.773 148.632L545.745 149.458H540.551C540.635 151.432 541.573 152.272 543.001 152.272C544.121 152.272 544.779 151.628 545.129 150.9ZM542.805 146.308C541.685 146.308 540.677 146.91 540.551 148.674H544.835C544.877 147.008 543.897 146.308 542.805 146.308ZM549.133 151.152C549.133 152.02 549.651 152.272 550.113 152.272C550.561 152.272 550.855 152.104 551.205 151.74L551.709 152.3C551.219 152.874 550.687 153.112 550.029 153.112C549.021 153.112 548.181 152.44 548.181 151.124V146.364H546.781V145.58H548.181V143.984L549.133 143.424V145.58H551.541V146.364H549.133V151.152ZM554.547 151.152C554.547 152.02 555.065 152.272 555.527 152.272C555.975 152.272 556.269 152.104 556.619 151.74L557.123 152.3C556.633 152.874 556.101 153.112 555.443 153.112C554.435 153.112 553.595 152.44 553.595 151.124V146.364H552.195V145.58H553.595V143.984L554.547 143.424V145.58H556.955V146.364H554.547V151.152ZM563.395 150.9L564.095 151.292C563.745 152.188 562.821 153.112 561.169 153.112C559.083 153.112 557.851 151.558 557.851 149.192C557.851 147.022 559.139 145.468 561.071 145.468C562.667 145.468 564.039 146.616 564.039 148.632L564.011 149.458H558.817C558.901 151.432 559.839 152.272 561.267 152.272C562.387 152.272 563.045 151.628 563.395 150.9ZM561.071 146.308C559.951 146.308 558.943 146.91 558.817 148.674H563.101C563.143 147.008 562.163 146.308 561.071 146.308ZM574.702 150.9L575.402 151.292C575.052 152.188 574.128 153.112 572.476 153.112C570.39 153.112 569.158 151.558 569.158 149.192C569.158 147.022 570.446 145.468 572.378 145.468C573.974 145.468 575.346 146.616 575.346 148.632L575.318 149.458H570.124C570.208 151.432 571.146 152.272 572.574 152.272C573.694 152.272 574.352 151.628 574.702 150.9ZM572.378 146.308C571.258 146.308 570.25 146.91 570.124 148.674H574.408C574.45 147.008 573.47 146.308 572.378 146.308ZM580.018 145.468C580.984 145.468 581.684 146.112 581.684 147.372V148.1L580.816 148.268V147.54C580.816 146.798 580.564 146.308 579.808 146.308C578.954 146.308 578.31 146.938 578.31 148.436V153H577.358V145.58H578.31V146.504C578.702 145.804 579.36 145.468 580.018 145.468ZM588.631 151.152C588.631 152.02 589.149 152.272 589.611 152.272C590.059 152.272 590.353 152.104 590.703 151.74L591.207 152.3C590.717 152.874 590.185 153.112 589.527 153.112C588.519 153.112 587.679 152.44 587.679 151.124V146.364H586.279V145.58H587.679V143.984L588.631 143.424V145.58H591.039V146.364H588.631V151.152ZM597.479 150.9L598.179 151.292C597.829 152.188 596.905 153.112 595.253 153.112C593.167 153.112 591.935 151.558 591.935 149.192C591.935 147.022 593.223 145.468 595.155 145.468C596.751 145.468 598.123 146.616 598.123 148.632L598.095 149.458H592.901C592.985 151.432 593.923 152.272 595.351 152.272C596.471 152.272 597.129 151.628 597.479 150.9ZM595.155 146.308C594.035 146.308 593.027 146.91 592.901 148.674H597.185C597.227 147.008 596.247 146.308 595.155 146.308ZM604.756 153L602.026 149.318L601.116 150.186V153H600.164V142.64H601.116V149.066L604.644 145.58H605.904L602.67 148.688L605.96 153H604.756ZM606.772 147.512C606.772 146.336 607.878 145.468 609.432 145.468C610.776 145.468 611.812 146.112 612.12 147.092L611.336 147.4C611.042 146.686 610.356 146.308 609.404 146.308C608.368 146.308 607.696 146.742 607.696 147.428C607.696 148.044 608.102 148.422 608.984 148.604L609.964 148.8C611.588 149.122 612.344 149.822 612.344 150.928C612.344 152.216 611.196 153.112 609.544 153.112C608.046 153.112 606.996 152.524 606.492 151.404L607.304 151.068C607.654 151.852 608.424 152.272 609.516 152.272C610.664 152.272 611.42 151.768 611.42 151.012C611.42 150.312 611.028 149.934 610.048 149.724L608.844 149.472C607.486 149.192 606.772 148.506 606.772 147.512ZM615.565 151.152C615.565 152.02 616.083 152.272 616.545 152.272C616.993 152.272 617.287 152.104 617.637 151.74L618.141 152.3C617.651 152.874 617.119 153.112 616.461 153.112C615.453 153.112 614.613 152.44 614.613 151.124V146.364H613.213V145.58H614.613V143.984L615.565 143.424V145.58H617.973V146.364H615.565V151.152ZM626.178 153.112C624.344 153.112 622.874 151.6 622.874 149.276C622.874 146.98 624.33 145.468 626.178 145.468C628.026 145.468 629.482 146.98 629.482 149.276C629.482 151.6 628.012 153.112 626.178 153.112ZM626.178 152.272C627.452 152.272 628.502 151.264 628.502 149.276C628.502 147.302 627.438 146.308 626.178 146.308C624.918 146.308 623.854 147.302 623.854 149.276C623.854 151.264 624.904 152.272 626.178 152.272ZM635.875 145.58H636.855L633.943 153H633.103L630.191 145.58H631.227L633.551 151.95L635.875 145.58ZM643.102 150.9L643.802 151.292C643.452 152.188 642.528 153.112 640.876 153.112C638.79 153.112 637.558 151.558 637.558 149.192C637.558 147.022 638.846 145.468 640.778 145.468C642.374 145.468 643.746 146.616 643.746 148.632L643.718 149.458H638.524C638.608 151.432 639.546 152.272 640.974 152.272C642.094 152.272 642.752 151.628 643.102 150.9ZM640.778 146.308C639.658 146.308 638.65 146.91 638.524 148.674H642.808C642.85 147.008 641.87 146.308 640.778 146.308ZM648.419 145.468C649.385 145.468 650.085 146.112 650.085 147.372V148.1L649.217 148.268V147.54C649.217 146.798 648.965 146.308 648.209 146.308C647.355 146.308 646.711 146.938 646.711 148.436V153H645.759V145.58H646.711V146.504C647.103 145.804 647.761 145.468 648.419 145.468ZM658.656 145.468C660.14 145.468 661.008 146.378 661.008 148.044V153H660.056V148.184C660.056 146.84 659.44 146.336 658.404 146.336C657.102 146.336 656.5 147.344 656.5 148.828V153H655.548V145.58H656.5V146.728C656.948 145.916 657.76 145.468 658.656 145.468ZM668.368 150.9L669.068 151.292C668.718 152.188 667.794 153.112 666.142 153.112C664.056 153.112 662.824 151.558 662.824 149.192C662.824 147.022 664.112 145.468 666.044 145.468C667.64 145.468 669.012 146.616 669.012 148.632L668.984 149.458H663.79C663.874 151.432 664.812 152.272 666.24 152.272C667.36 152.272 668.018 151.628 668.368 150.9ZM666.044 146.308C664.924 146.308 663.916 146.91 663.79 148.674H668.074C668.116 147.008 667.136 146.308 666.044 146.308ZM676.148 142.64H677.1V153H676.148V151.614C675.658 152.566 674.678 153.098 673.712 153.098C671.822 153.098 670.548 151.516 670.548 149.36C670.548 147.078 671.836 145.468 673.824 145.468C674.86 145.468 675.7 145.986 676.148 146.924V142.64ZM673.81 152.258C675.294 152.258 676.148 151.152 676.148 149.332C676.148 147.4 675.308 146.308 673.824 146.308C672.438 146.308 671.528 147.372 671.528 149.318C671.528 151.194 672.438 152.258 673.81 152.258ZM680.93 151.152C680.93 152.02 681.448 152.272 681.91 152.272C682.358 152.272 682.652 152.104 683.002 151.74L683.506 152.3C683.016 152.874 682.484 153.112 681.826 153.112C680.818 153.112 679.978 152.44 679.978 151.124V146.364H678.578V145.58H679.978V143.984L680.93 143.424V145.58H683.338V146.364H680.93V151.152ZM687.794 145.468C688.76 145.468 689.46 146.112 689.46 147.372V148.1L688.592 148.268V147.54C688.592 146.798 688.34 146.308 687.584 146.308C686.73 146.308 686.086 146.938 686.086 148.436V153H685.134V145.58H686.086V146.504C686.478 145.804 687.136 145.468 687.794 145.468ZM695.985 150.9L696.685 151.292C696.335 152.188 695.411 153.112 693.759 153.112C691.673 153.112 690.441 151.558 690.441 149.192C690.441 147.022 691.729 145.468 693.661 145.468C695.257 145.468 696.629 146.616 696.629 148.632L696.601 149.458H691.407C691.491 151.432 692.429 152.272 693.857 152.272C694.977 152.272 695.635 151.628 695.985 150.9ZM693.661 146.308C692.541 146.308 691.533 146.91 691.407 148.674H695.691C695.733 147.008 694.753 146.308 693.661 146.308ZM703.262 153L700.532 149.318L699.622 150.186V153H698.67V142.64H699.622V149.066L703.15 145.58H704.41L701.176 148.688L704.466 153H703.262ZM710.685 153L707.955 149.318L707.045 150.186V153H706.093V142.64H707.045V149.066L710.573 145.58H711.833L708.599 148.688L711.889 153H710.685ZM712.701 147.512C712.701 146.336 713.807 145.468 715.361 145.468C716.705 145.468 717.741 146.112 718.049 147.092L717.265 147.4C716.971 146.686 716.285 146.308 715.333 146.308C714.297 146.308 713.625 146.742 713.625 147.428C713.625 148.044 714.031 148.422 714.913 148.604L715.893 148.8C717.517 149.122 718.273 149.822 718.273 150.928C718.273 152.216 717.125 153.112 715.473 153.112C713.975 153.112 712.925 152.524 712.421 151.404L713.233 151.068C713.583 151.852 714.353 152.272 715.445 152.272C716.593 152.272 717.349 151.768 717.349 151.012C717.349 150.312 716.957 149.934 715.977 149.724L714.773 149.472C713.415 149.192 712.701 148.506 712.701 147.512ZM721.495 144.544V145.58H723.567V146.364H721.495V153H720.543V146.364H719.143V145.58H720.543V144.544C720.543 143.256 721.383 142.528 722.531 142.528C723.063 142.528 723.679 142.738 724.029 143.298L723.455 143.872C723.231 143.536 722.895 143.34 722.503 143.34C722.013 143.34 721.495 143.634 721.495 144.544ZM729.659 150.9L730.359 151.292C730.009 152.188 729.085 153.112 727.433 153.112C725.347 153.112 724.115 151.558 724.115 149.192C724.115 147.022 725.403 145.468 727.335 145.468C728.931 145.468 730.303 146.616 730.303 148.632L730.275 149.458H725.081C725.165 151.432 726.103 152.272 727.531 152.272C728.651 152.272 729.309 151.628 729.659 150.9ZM727.335 146.308C726.215 146.308 725.207 146.91 725.081 148.674H729.365C729.407 147.008 728.427 146.308 727.335 146.308ZM734.639 152.972C734.415 153.028 734.233 153.056 734.023 153.056C732.861 153.056 732.315 152.328 732.315 151.236V142.64H733.267V151.236C733.267 151.866 733.603 152.188 734.191 152.188C734.345 152.188 734.499 152.174 734.639 152.132V152.972ZM737.723 151.152C737.723 152.02 738.241 152.272 738.703 152.272C739.151 152.272 739.445 152.104 739.795 151.74L740.299 152.3C739.809 152.874 739.277 153.112 738.619 153.112C737.611 153.112 736.771 152.44 736.771 151.124V146.364H735.371V145.58H736.771V143.984L737.723 143.424V145.58H740.131V146.364H737.723V151.152ZM746.571 150.9L747.271 151.292C746.921 152.188 745.997 153.112 744.345 153.112C742.259 153.112 741.027 151.558 741.027 149.192C741.027 147.022 742.315 145.468 744.247 145.468C745.843 145.468 747.215 146.616 747.215 148.632L747.187 149.458H741.993C742.077 151.432 743.015 152.272 744.443 152.272C745.563 152.272 746.221 151.628 746.571 150.9ZM744.247 146.308C743.127 146.308 742.119 146.91 741.993 148.674H746.277C746.319 147.008 745.339 146.308 744.247 146.308ZM750.575 151.152C750.575 152.02 751.093 152.272 751.555 152.272C752.003 152.272 752.297 152.104 752.647 151.74L753.151 152.3C752.661 152.874 752.129 153.112 751.471 153.112C750.463 153.112 749.623 152.44 749.623 151.124V146.364H748.223V145.58H749.623V143.984L750.575 143.424V145.58H752.983V146.364H750.575V151.152ZM755.478 153.084C754.974 153.084 754.582 152.706 754.582 152.188C754.582 151.67 754.974 151.292 755.478 151.292C755.982 151.292 756.374 151.67 756.374 152.188C756.374 152.706 755.982 153.084 755.478 153.084Z" fill="#2A2859"/>
<rect x="530" y="168" width="398" height="46" fill="white"/>
<path d="M555.188 183.68H556.52L551.642 197H550.382L545.54 183.68H546.908L551.03 195.542L555.188 183.68ZM563.657 194.3L564.557 194.804C564.107 195.956 562.919 197.144 560.795 197.144C558.113 197.144 556.529 195.146 556.529 192.104C556.529 189.314 558.185 187.316 560.669 187.316C562.721 187.316 564.485 188.792 564.485 191.384L564.449 192.446H557.771C557.879 194.984 559.085 196.064 560.921 196.064C562.361 196.064 563.207 195.236 563.657 194.3ZM560.669 188.396C559.229 188.396 557.933 189.17 557.771 191.438H563.279C563.333 189.296 562.073 188.396 560.669 188.396ZM569.861 196.964C569.573 197.036 569.339 197.072 569.069 197.072C567.575 197.072 566.873 196.136 566.873 194.732V183.68H568.097V194.732C568.097 195.542 568.529 195.956 569.285 195.956C569.483 195.956 569.681 195.938 569.861 195.884V196.964ZM580.11 188.468H578.058V188.81C578.526 189.386 578.778 190.106 578.778 190.808C578.778 192.554 577.518 194.336 574.836 194.336H574.422C573.342 194.336 572.568 194.75 572.568 195.38C572.568 195.866 572.946 196.208 573.738 196.208H577.608C579.156 196.208 579.948 196.964 579.948 198.152C579.948 200.042 577.77 201.032 575.088 201.032C572.676 201.032 571.002 200.258 570.426 198.584L571.416 198.134C572.082 199.7 573.486 200.006 575.088 200.006C577.068 200.006 578.724 199.412 578.724 198.26C578.724 197.72 578.436 197.324 577.572 197.324H573.468C572.136 197.324 571.344 196.694 571.344 195.704C571.344 194.858 572.046 194.12 573.216 193.814C571.956 193.31 571.254 191.978 571.254 190.808C571.254 189.098 572.532 187.316 575.052 187.316C576.042 187.316 576.798 187.64 577.374 188.126V187.46H580.11V188.468ZM575.034 193.328C576.726 193.328 577.572 192.158 577.572 190.808C577.572 189.476 576.726 188.36 575.034 188.36C573.324 188.36 572.46 189.494 572.46 190.808C572.46 192.14 573.324 193.328 575.034 193.328Z" fill="#2A2859"/>
<path fill-rule="evenodd" clip-rule="evenodd" d="M901 193.56L893.747 186.5L892.75 187.47L901 195.5L909.25 187.47L908.253 186.5L901 193.56Z" fill="#2A2859"/>
<rect x="530" y="168" width="398" height="46" stroke="#2A2859" stroke-width="2"/>
</svg>
