<svg width="1116" height="416" viewBox="0 0 1116 416" fill="none" xmlns="http://www.w3.org/2000/svg">
<g clip-path="url(#clip0_5730_132431)">
<rect width="1116" height="416" fill="white"/>
<mask id="path-1-inside-1_5730_132431" fill="white">
<path d="M0 55H552V416H0V55Z"/>
</mask>
<path d="M0 55H552V416H0V55Z" fill="white"/>
<path d="M552 416V417H553V416H552ZM0 416H-1V417H0V416ZM551 55V416H553V55H551ZM552 415H0V417H552V415ZM1 416V55H-1V416H1Z" fill="#E6E6E6" mask="url(#path-1-inside-1_5730_132431)"/>
<mask id="path-3-inside-2_5730_132431" fill="white">
<path d="M563 55H1116V416H563V55Z"/>
</mask>
<path d="M563 55H1116V416H563V55Z" fill="white"/>
<path d="M1116 416V417H1117V416H1116ZM563 416H562V417H563V416ZM1115 55V416H1117V55H1115ZM1116 415H563V417H1116V415ZM564 416V55H562V416H564Z" fill="#E6E6E6" mask="url(#path-3-inside-2_5730_132431)"/>
<rect x="0.5" y="0.5" width="550.12" height="53.97" stroke="#E6E6E6"/>
<rect x="563.575" y="0.5" width="551.316" height="53.97" stroke="#E6E6E6"/>
<path d="M0 43.9761H551.12V54.9701H0V43.9761Z" fill="#C7F6C9"/>
<path opacity="0.6" d="M563 43.9761H1115.32V54.9701H563V43.9761Z" fill="#FF8274"/>
<path d="M23.1211 28.144C19.8731 28.144 17.5211 25.776 17.5211 22.016C17.5211 18.368 20.0011 16.016 22.9931 16.016C25.0571 16.016 26.5611 16.96 27.3131 18.64L26.0491 19.296C25.4731 18.048 24.3211 17.376 22.9771 17.376C20.8331 17.376 19.0091 18.896 19.0091 22.016C19.0091 25.136 20.7371 26.848 23.2011 26.848C24.4011 26.848 25.2651 26.608 26.0651 26.144V22.896H21.8891V21.6H27.3451V26.8C26.2891 27.68 24.7051 28.144 23.1211 28.144ZM30.4281 18.032C29.8201 18.032 29.3401 17.568 29.3401 16.944C29.3401 16.336 29.8201 15.872 30.4281 15.872C31.0201 15.872 31.5001 16.336 31.5001 16.944C31.5001 17.568 31.0201 18.032 30.4281 18.032ZM29.1001 31.488C28.7801 31.488 28.4441 31.44 28.1401 31.344L28.2521 30.208C28.4761 30.288 28.6681 30.304 28.8281 30.304C29.5321 30.304 29.7401 29.84 29.7401 29.12V19.52H31.1161V29.104C31.1161 30.64 30.4601 31.488 29.1001 31.488ZM39.2179 20.096C40.2259 20.832 40.8659 22.112 40.8659 23.728C40.8659 26.416 39.1219 28.144 36.9939 28.144C36.4179 28.144 35.8579 28.016 35.3619 27.776L34.8499 28.8H34.0179L34.7219 27.392C33.7459 26.64 33.1059 25.36 33.1059 23.728C33.1059 21.088 34.8339 19.36 36.9939 19.36C37.5699 19.36 38.1139 19.488 38.5939 19.712L39.1059 18.704H39.9219L39.2179 20.096ZM34.5299 23.728C34.5299 24.864 34.8339 25.696 35.3139 26.224L38.0499 20.8C37.7299 20.64 37.3619 20.56 36.9939 20.56C35.6499 20.56 34.5299 21.568 34.5299 23.728ZM36.9939 26.944C38.3379 26.944 39.4419 25.888 39.4419 23.728C39.4419 22.592 39.1379 21.776 38.6419 21.248L35.9059 26.688C36.2419 26.864 36.6099 26.944 36.9939 26.944ZM46.2012 19.36C47.3532 19.36 48.1532 20.128 48.1532 21.584V22.528L46.9692 22.752V21.904C46.9692 21.088 46.6972 20.544 45.8492 20.544C44.8892 20.544 44.1852 21.216 44.1852 22.896V28H42.8092V19.52H44.1852V20.608C44.6492 19.744 45.4492 19.36 46.2012 19.36ZM53.5241 21.776C53.5241 20.4 54.8201 19.36 56.6921 19.36C58.2601 19.36 59.4121 20.048 59.8601 21.168L58.8201 21.696C58.4681 20.944 57.7001 20.528 56.6601 20.528C55.5721 20.528 54.8521 20.96 54.8521 21.68C54.8521 22.304 55.2521 22.672 56.1641 22.864L57.3961 23.104C59.2361 23.472 60.1161 24.288 60.1161 25.568C60.1161 27.088 58.7721 28.128 56.7881 28.128C55.0601 28.128 53.8281 27.456 53.2201 26.208L54.2761 25.648C54.7081 26.512 55.5561 26.976 56.7561 26.976C57.9721 26.976 58.7881 26.448 58.7881 25.648C58.7881 24.944 58.3721 24.56 57.3961 24.352L55.9401 24.064C54.3721 23.744 53.5241 22.944 53.5241 21.776ZM64.9505 27.968C64.6625 28.032 64.4065 28.08 64.1185 28.08C62.6785 28.08 61.9905 27.2 61.9905 25.824V16.16H63.3665V25.76C63.3665 26.496 63.7665 26.848 64.4385 26.848C64.5985 26.848 64.7745 26.832 64.9505 26.784V27.968ZM66.472 16.064H68.36V17.92H66.472V16.064ZM66.728 28V19.52H68.104V28H66.728ZM75.965 28L73.053 23.92L72.045 24.912V28H70.669V16.16H72.045V23.328L75.837 19.52H77.581L73.981 23.024L77.645 28H75.965Z" fill="#2A2859"/>
<path d="M586.002 28V16.16H587.426V28H586.002ZM595.269 28L592.357 23.92L591.349 24.912V28H589.973V16.16H591.349V23.328L595.141 19.52H596.885L593.285 23.024L596.949 28H595.269ZM603.85 28L600.938 23.92L599.93 24.912V28H598.554V16.16H599.93V23.328L603.722 19.52H605.466L601.866 23.024L605.53 28H603.85ZM612.287 25.488L613.263 26.032C612.815 27.088 611.743 28.144 609.839 28.144C607.391 28.144 605.935 26.32 605.935 23.664C605.935 21.136 607.487 19.36 609.711 19.36C611.599 19.36 613.215 20.688 613.215 23.04L613.183 24.016H607.311C607.407 26.096 608.415 26.976 609.951 26.976C611.119 26.976 611.871 26.304 612.287 25.488ZM609.711 20.512C608.511 20.512 607.471 21.136 607.311 22.944H611.871C611.887 21.232 610.847 20.512 609.711 20.512ZM618.725 21.776C618.725 20.4 620.021 19.36 621.893 19.36C623.461 19.36 624.613 20.048 625.061 21.168L624.021 21.696C623.669 20.944 622.901 20.528 621.861 20.528C620.773 20.528 620.053 20.96 620.053 21.68C620.053 22.304 620.453 22.672 621.365 22.864L622.597 23.104C624.437 23.472 625.317 24.288 625.317 25.568C625.317 27.088 623.973 28.128 621.989 28.128C620.261 28.128 619.029 27.456 618.421 26.208L619.477 25.648C619.909 26.512 620.757 26.976 621.957 26.976C623.173 26.976 623.989 26.448 623.989 25.648C623.989 24.944 623.573 24.56 622.597 24.352L621.141 24.064C619.573 23.744 618.725 22.944 618.725 21.776ZM630.151 27.968C629.863 28.032 629.607 28.08 629.319 28.08C627.879 28.08 627.191 27.2 627.191 25.824V16.16H628.567V25.76C628.567 26.496 628.967 26.848 629.639 26.848C629.799 26.848 629.975 26.832 630.151 26.784V27.968ZM632.617 18.032C632.009 18.032 631.529 17.568 631.529 16.944C631.529 16.336 632.009 15.872 632.617 15.872C633.209 15.872 633.689 16.336 633.689 16.944C633.689 17.568 633.209 18.032 632.617 18.032ZM631.929 28V19.52H633.305V28H631.929ZM641.166 28L638.254 23.92L637.246 24.912V28H635.87V16.16H637.246V23.328L641.038 19.52H642.782L639.182 23.024L642.846 28H641.166Z" fill="#2A2859"/>
<path d="M85.342 157.68H87.448V171H85.342V165.312H79.672V171H77.566V157.68H79.672V163.278H85.342V157.68ZM96.3498 161.46H98.4378L94.7838 171H92.7138L89.0778 161.46H91.3098L93.8298 168.894L96.3498 161.46ZM100.953 159.876C100.161 159.876 99.5307 159.264 99.5307 158.454C99.5307 157.644 100.161 157.032 100.953 157.032C101.745 157.032 102.357 157.644 102.357 158.454C102.357 159.264 101.745 159.876 100.953 159.876ZM99.9447 171V161.46H101.961V171H99.9447ZM108.676 170.946C108.298 171.054 107.92 171.108 107.524 171.108C105.706 171.108 104.842 170.028 104.842 168.282V157.68H106.858V168.138C106.858 168.966 107.344 169.344 108.082 169.344C108.262 169.344 108.46 169.326 108.676 169.272V170.946ZM116.719 171L113.821 166.626L112.723 167.706V171H110.707V157.68H112.723V165.42L116.575 161.46H119.059L115.153 165.312L119.131 171H116.719ZM126.727 167.994L128.095 168.786C127.555 169.974 126.295 171.162 124.117 171.162C121.291 171.162 119.581 169.074 119.581 166.14C119.581 163.242 121.435 161.244 123.973 161.244C126.223 161.244 128.077 162.756 128.077 165.456L128.041 166.644H121.561C121.669 168.66 122.659 169.524 124.243 169.524C125.413 169.524 126.223 168.894 126.727 167.994ZM123.973 162.828C122.749 162.828 121.723 163.476 121.561 165.204H126.115C126.133 163.512 125.089 162.828 123.973 162.828ZM135.169 161.244C137.113 161.244 138.265 162.504 138.265 164.574V171H136.249V164.898C136.249 163.584 135.619 162.99 134.521 162.99C133.099 162.99 132.379 163.98 132.379 165.834V171H130.363V161.46H132.379V162.828C133.027 161.82 133.981 161.244 135.169 161.244ZM150.419 161.262C152.723 161.262 154.379 163.224 154.379 166.14C154.379 169.128 152.705 171.144 150.185 171.144C149.087 171.144 148.025 170.658 147.413 169.47V171H145.397V157.68H147.413V163.17C148.151 161.82 149.321 161.262 150.419 161.262ZM149.879 169.488C151.265 169.488 152.291 168.372 152.291 166.23C152.291 164.088 151.265 162.99 149.879 162.99C148.403 162.99 147.413 163.998 147.413 166.212C147.413 168.426 148.403 169.488 149.879 169.488ZM162.345 161.46H164.451L160.581 171.738C159.825 173.736 158.907 174.996 156.945 174.996C156.153 174.996 155.397 174.744 154.839 174.276L155.595 172.872C155.955 173.196 156.315 173.358 156.783 173.358C157.521 173.358 158.061 172.998 158.457 172.026L158.781 171.27L155.127 161.46H157.377L159.861 169.056L162.345 161.46ZM171.953 157.68H173.969V171H171.953V169.272C171.215 170.604 170.063 171.144 168.965 171.144C166.661 171.144 165.005 169.164 165.005 166.266C165.005 163.26 166.679 161.262 169.199 161.262C170.279 161.262 171.359 161.748 171.953 162.918V157.68ZM169.505 169.38C170.963 169.38 171.953 168.39 171.953 166.158C171.953 163.944 170.981 162.882 169.505 162.882C168.119 162.882 167.093 163.998 167.093 166.158C167.093 168.3 168.119 169.38 169.505 169.38ZM183.165 167.994L184.533 168.786C183.993 169.974 182.733 171.162 180.555 171.162C177.729 171.162 176.019 169.074 176.019 166.14C176.019 163.242 177.873 161.244 180.411 161.244C182.661 161.244 184.515 162.756 184.515 165.456L184.479 166.644H177.999C178.107 168.66 179.097 169.524 180.681 169.524C181.851 169.524 182.661 168.894 183.165 167.994ZM180.411 162.828C179.187 162.828 178.161 163.476 177.999 165.204H182.553C182.571 163.512 181.527 162.828 180.411 162.828ZM190.636 170.946C190.258 171.054 189.88 171.108 189.484 171.108C187.666 171.108 186.802 170.028 186.802 168.282V157.68H188.818V168.138C188.818 168.966 189.304 169.344 190.042 169.344C190.222 169.344 190.42 169.326 190.636 169.272V170.946ZM199.772 168.048C199.772 169.11 200.42 169.434 201.086 169.434C201.608 169.434 202.022 169.218 202.436 168.804L203.3 170.1C202.58 170.82 201.788 171.162 200.762 171.162C199.106 171.162 197.756 170.154 197.756 168.174V163.026H196.082V161.46H197.756V159.336L199.772 158.418V161.46H203.138V163.026H199.772V168.048ZM204.812 157.32H207.278V159.75H204.812V157.32ZM205.046 171V161.46H207.062V171H205.046ZM213.778 170.946C213.4 171.054 213.022 171.108 212.626 171.108C210.808 171.108 209.944 170.028 209.944 168.282V157.68H211.96V168.138C211.96 168.966 212.446 169.344 213.184 169.344C213.364 169.344 213.562 169.326 213.778 169.272V170.946ZM220.632 161.244C222.576 161.244 223.728 162.504 223.728 164.574V171H221.712V164.898C221.712 163.584 221.082 162.99 219.984 162.99C218.562 162.99 217.824 163.98 217.824 165.834V171H215.808V157.68H217.824V162.846C218.472 161.82 219.444 161.244 220.632 161.244ZM232.916 162.036C234.122 162.864 234.896 164.322 234.896 166.176C234.896 169.236 232.862 171.18 230.378 171.18C229.748 171.18 229.154 171.054 228.596 170.82L228.038 171.972H227.012L227.804 170.37C226.634 169.524 225.86 168.066 225.86 166.176C225.86 163.188 227.876 161.244 230.378 161.244C231.008 161.244 231.584 161.37 232.124 161.586L232.682 160.47H233.69L232.916 162.036ZM227.93 166.176C227.93 167.292 228.2 168.12 228.65 168.66L231.35 163.152C231.062 163.026 230.72 162.954 230.378 162.954C229.046 162.954 227.93 163.908 227.93 166.176ZM230.378 169.47C231.728 169.47 232.826 168.426 232.826 166.176C232.826 165.042 232.538 164.232 232.106 163.71L229.37 169.254C229.676 169.398 230.018 169.47 230.378 169.47ZM241.386 161.244C242.772 161.244 243.672 162.162 243.672 163.8V165.06L242.052 165.348V164.376C242.052 163.512 241.746 162.918 240.81 162.918C239.784 162.918 239.028 163.602 239.028 165.42V171H237.012V161.46H239.028V162.738C239.568 161.676 240.558 161.244 241.386 161.244ZM251.801 167.994L253.169 168.786C252.629 169.974 251.369 171.162 249.191 171.162C246.365 171.162 244.655 169.074 244.655 166.14C244.655 163.242 246.509 161.244 249.047 161.244C251.297 161.244 253.151 162.756 253.151 165.456L253.115 166.644H246.635C246.743 168.66 247.733 169.524 249.317 169.524C250.487 169.524 251.297 168.894 251.801 167.994ZM249.047 162.828C247.823 162.828 246.797 163.476 246.635 165.204H251.189C251.207 163.512 250.163 162.828 249.047 162.828ZM259.812 161.244C261.198 161.244 262.098 162.162 262.098 163.8V165.06L260.478 165.348V164.376C260.478 163.512 260.172 162.918 259.236 162.918C258.21 162.918 257.454 163.602 257.454 165.42V171H255.438V161.46H257.454V162.738C257.994 161.676 258.984 161.244 259.812 161.244ZM274.98 157.68H276.996V171H274.98V169.272C274.242 170.604 273.09 171.144 271.992 171.144C269.688 171.144 268.032 169.164 268.032 166.266C268.032 163.26 269.706 161.262 272.226 161.262C273.306 161.262 274.386 161.748 274.98 162.918V157.68ZM272.532 169.38C273.99 169.38 274.98 168.39 274.98 166.158C274.98 163.944 274.008 162.882 272.532 162.882C271.146 162.882 270.12 163.998 270.12 166.158C270.12 168.3 271.146 169.38 272.532 169.38ZM285.274 161.46H287.29V171H285.274V169.596C284.662 170.64 283.708 171.162 282.538 171.162C280.576 171.162 279.442 169.902 279.442 167.832V161.46H281.458V167.526C281.458 168.768 282.07 169.434 283.168 169.434C284.572 169.434 285.274 168.426 285.274 166.572V161.46ZM293.073 157.5C295.557 157.5 297.303 158.922 297.303 161.19C297.303 163.44 295.557 164.664 293.577 165.222L293.541 166.77H291.903L291.795 164.07C293.739 163.782 295.143 163.044 295.143 161.298C295.143 160.128 294.333 159.372 293.001 159.372C291.795 159.372 290.877 160.038 290.283 161.226L288.555 160.488C289.491 158.49 291.201 157.5 293.073 157.5ZM292.713 168.102C293.577 168.102 294.225 168.768 294.225 169.614C294.225 170.46 293.577 171.126 292.713 171.126C291.867 171.126 291.219 170.46 291.219 169.614C291.219 168.768 291.867 168.102 292.713 168.102Z" fill="#2A2859"/>
<path d="M78.212 203H77.232V192.64H83.336V193.564H78.212V197.512H82.384V198.436H78.212V203ZM86.95 203.112C85.116 203.112 83.646 201.6 83.646 199.276C83.646 196.98 85.102 195.468 86.95 195.468C88.798 195.468 90.254 196.98 90.254 199.276C90.254 201.6 88.784 203.112 86.95 203.112ZM86.95 202.272C88.224 202.272 89.274 201.264 89.274 199.276C89.274 197.302 88.21 196.308 86.95 196.308C85.69 196.308 84.626 197.302 84.626 199.276C84.626 201.264 85.676 202.272 86.95 202.272ZM94.8484 195.468C95.8144 195.468 96.5144 196.112 96.5144 197.372V198.1L95.6464 198.268V197.54C95.6464 196.798 95.3944 196.308 94.6384 196.308C93.7844 196.308 93.1404 196.938 93.1404 198.436V203H92.1884V195.58H93.1404V196.504C93.5324 195.804 94.1904 195.468 94.8484 195.468ZM104.623 194.796C103.713 194.796 102.971 194.124 102.971 193.2C102.971 192.276 103.713 191.604 104.623 191.604C105.533 191.604 106.275 192.276 106.275 193.2C106.275 194.124 105.533 194.796 104.623 194.796ZM104.623 192.248C104.091 192.248 103.671 192.584 103.671 193.2C103.671 193.83 104.091 194.152 104.623 194.152C105.155 194.152 105.575 193.83 105.575 193.2C105.575 192.584 105.155 192.248 104.623 192.248ZM107.507 203H106.639C106.527 202.594 106.443 202.104 106.443 201.544C106.065 202.412 105.099 203.112 103.895 203.112C102.579 203.112 101.585 202.258 101.585 200.984C101.585 199.458 102.957 198.66 104.483 198.66C105.085 198.66 105.673 198.73 106.275 198.94V197.96C106.275 196.994 105.687 196.336 104.539 196.336C103.615 196.336 102.831 196.742 102.439 197.876L101.599 197.624C102.159 196.056 103.293 195.468 104.595 195.468C106.429 195.468 107.199 196.574 107.199 197.848V200.9C107.199 201.74 107.339 202.496 107.507 203ZM106.275 199.92V199.752C105.701 199.514 105.113 199.444 104.539 199.444C103.419 199.444 102.537 199.948 102.537 200.928C102.537 201.824 103.167 202.3 104.063 202.3C105.029 202.3 106.275 201.726 106.275 199.92ZM117.808 203L115.078 199.318L114.168 200.186V203H113.216V192.64H114.168V199.066L117.696 195.58H118.956L115.722 198.688L119.012 203H117.808ZM124.5 195.58H125.452V203H124.5V201.866C124.052 202.664 123.268 203.112 122.358 203.112C120.902 203.112 120.02 202.174 120.02 200.564V195.58H120.972V200.48C120.972 201.698 121.588 202.258 122.624 202.258C123.94 202.258 124.5 201.208 124.5 199.752V195.58ZM130.912 195.468C132.396 195.468 133.264 196.378 133.264 198.044V203H132.312V198.184C132.312 196.84 131.696 196.336 130.66 196.336C129.358 196.336 128.756 197.344 128.756 198.828V203H127.804V195.58H128.756V196.728C129.204 195.916 130.016 195.468 130.912 195.468ZM138.664 195.468C140.148 195.468 141.016 196.378 141.016 198.044V203H140.064V198.184C140.064 196.84 139.448 196.336 138.412 196.336C137.11 196.336 136.508 197.344 136.508 198.828V203H135.556V195.58H136.508V196.728C136.956 195.916 137.768 195.468 138.664 195.468ZM148.376 200.9L149.076 201.292C148.726 202.188 147.802 203.112 146.15 203.112C144.064 203.112 142.832 201.558 142.832 199.192C142.832 197.022 144.12 195.468 146.052 195.468C147.648 195.468 149.02 196.616 149.02 198.632L148.992 199.458H143.798C143.882 201.432 144.82 202.272 146.248 202.272C147.368 202.272 148.026 201.628 148.376 200.9ZM146.052 196.308C144.932 196.308 143.924 196.91 143.798 198.674H148.082C148.124 197.008 147.144 196.308 146.052 196.308ZM154.25 197.512C154.25 196.336 155.356 195.468 156.91 195.468C158.254 195.468 159.29 196.112 159.598 197.092L158.814 197.4C158.52 196.686 157.834 196.308 156.882 196.308C155.846 196.308 155.174 196.742 155.174 197.428C155.174 198.044 155.58 198.422 156.462 198.604L157.442 198.8C159.066 199.122 159.822 199.822 159.822 200.928C159.822 202.216 158.674 203.112 157.022 203.112C155.524 203.112 154.474 202.524 153.97 201.404L154.782 201.068C155.132 201.852 155.902 202.272 156.994 202.272C158.142 202.272 158.898 201.768 158.898 201.012C158.898 200.312 158.506 199.934 157.526 199.724L156.322 199.472C154.964 199.192 154.25 198.506 154.25 197.512ZM166.764 200.9L167.464 201.292C167.114 202.188 166.19 203.112 164.538 203.112C162.452 203.112 161.22 201.558 161.22 199.192C161.22 197.022 162.508 195.468 164.44 195.468C166.036 195.468 167.408 196.616 167.408 198.632L167.38 199.458H162.186C162.27 201.432 163.208 202.272 164.636 202.272C165.756 202.272 166.414 201.628 166.764 200.9ZM164.44 196.308C163.32 196.308 162.312 196.91 162.186 198.674H166.47C166.512 197.008 165.532 196.308 164.44 196.308ZM172.529 195.468C174.013 195.468 174.881 196.378 174.881 198.044V203H173.929V198.184C173.929 196.84 173.313 196.336 172.277 196.336C170.975 196.336 170.373 197.344 170.373 198.828V203H169.421V195.58H170.373V196.728C170.821 195.916 171.633 195.468 172.529 195.468ZM182.297 192.64H183.249V203H182.297V201.614C181.807 202.566 180.827 203.098 179.861 203.098C177.971 203.098 176.697 201.516 176.697 199.36C176.697 197.078 177.985 195.468 179.973 195.468C181.009 195.468 181.849 195.986 182.297 196.924V192.64ZM179.959 202.258C181.443 202.258 182.297 201.152 182.297 199.332C182.297 197.4 181.457 196.308 179.973 196.308C178.587 196.308 177.677 197.372 177.677 199.318C177.677 201.194 178.587 202.258 179.959 202.258ZM190.663 200.9L191.363 201.292C191.013 202.188 190.089 203.112 188.437 203.112C186.351 203.112 185.119 201.558 185.119 199.192C185.119 197.022 186.407 195.468 188.339 195.468C189.935 195.468 191.307 196.616 191.307 198.632L191.279 199.458H186.085C186.169 201.432 187.107 202.272 188.535 202.272C189.655 202.272 190.313 201.628 190.663 200.9ZM188.339 196.308C187.219 196.308 186.211 196.91 186.085 198.674H190.369C190.411 197.008 189.431 196.308 188.339 196.308ZM200.037 195.468C201.521 195.468 202.389 196.378 202.389 198.044V203H201.437V198.184C201.437 196.84 200.821 196.336 199.785 196.336C198.483 196.336 197.881 197.344 197.881 198.828V203H196.929V192.64H197.881V196.728C198.329 195.916 199.141 195.468 200.037 195.468ZM209.749 200.9L210.449 201.292C210.099 202.188 209.175 203.112 207.523 203.112C205.437 203.112 204.205 201.558 204.205 199.192C204.205 197.022 205.493 195.468 207.425 195.468C209.021 195.468 210.393 196.616 210.393 198.632L210.365 199.458H205.171C205.255 201.432 206.193 202.272 207.621 202.272C208.741 202.272 209.399 201.628 209.749 200.9ZM207.425 196.308C206.305 196.308 205.297 196.91 205.171 198.674H209.455C209.497 197.008 208.517 196.308 207.425 196.308ZM215.513 195.468C216.997 195.468 217.865 196.378 217.865 198.044V203H216.913V198.184C216.913 196.84 216.297 196.336 215.261 196.336C213.959 196.336 213.357 197.344 213.357 198.828V203H212.405V195.58H213.357V196.728C213.805 195.916 214.617 195.468 215.513 195.468ZM224.752 195.58H225.732L222.82 203H221.98L219.068 195.58H220.104L222.428 201.95L224.752 195.58ZM231.979 200.9L232.679 201.292C232.329 202.188 231.405 203.112 229.753 203.112C227.667 203.112 226.435 201.558 226.435 199.192C226.435 197.022 227.723 195.468 229.655 195.468C231.251 195.468 232.623 196.616 232.623 198.632L232.595 199.458H227.401C227.485 201.432 228.423 202.272 229.851 202.272C230.971 202.272 231.629 201.628 231.979 200.9ZM229.655 196.308C228.535 196.308 227.527 196.91 227.401 198.674H231.685C231.727 197.008 230.747 196.308 229.655 196.308ZM237.744 195.468C239.228 195.468 240.096 196.378 240.096 198.044V203H239.144V198.184C239.144 196.84 238.528 196.336 237.492 196.336C236.19 196.336 235.588 197.344 235.588 198.828V203H234.636V195.58H235.588V196.728C236.036 195.916 236.848 195.468 237.744 195.468ZM247.512 192.64H248.464V203H247.512V201.614C247.022 202.566 246.042 203.098 245.076 203.098C243.186 203.098 241.912 201.516 241.912 199.36C241.912 197.078 243.2 195.468 245.188 195.468C246.224 195.468 247.064 195.986 247.512 196.924V192.64ZM245.174 202.258C246.658 202.258 247.512 201.152 247.512 199.332C247.512 197.4 246.672 196.308 245.188 196.308C243.802 196.308 242.892 197.372 242.892 199.318C242.892 201.194 243.802 202.258 245.174 202.258ZM255.877 200.9L256.577 201.292C256.227 202.188 255.303 203.112 253.651 203.112C251.565 203.112 250.333 201.558 250.333 199.192C250.333 197.022 251.621 195.468 253.553 195.468C255.149 195.468 256.521 196.616 256.521 198.632L256.493 199.458H251.299C251.383 201.432 252.321 202.272 253.749 202.272C254.869 202.272 255.527 201.628 255.877 200.9ZM253.553 196.308C252.433 196.308 251.425 196.91 251.299 198.674H255.583C255.625 197.008 254.645 196.308 253.553 196.308ZM260.858 202.972C260.634 203.028 260.452 203.056 260.242 203.056C259.08 203.056 258.534 202.328 258.534 201.236V192.64H259.486V201.236C259.486 201.866 259.822 202.188 260.41 202.188C260.564 202.188 260.718 202.174 260.858 202.132V202.972ZM262.231 197.512C262.231 196.336 263.337 195.468 264.891 195.468C266.235 195.468 267.271 196.112 267.579 197.092L266.795 197.4C266.501 196.686 265.815 196.308 264.863 196.308C263.827 196.308 263.155 196.742 263.155 197.428C263.155 198.044 263.561 198.422 264.443 198.604L265.423 198.8C267.047 199.122 267.803 199.822 267.803 200.928C267.803 202.216 266.655 203.112 265.003 203.112C263.505 203.112 262.455 202.524 261.951 201.404L262.763 201.068C263.113 201.852 263.883 202.272 264.975 202.272C266.123 202.272 266.879 201.768 266.879 201.012C266.879 200.312 266.487 199.934 265.507 199.724L264.303 199.472C262.945 199.192 262.231 198.506 262.231 197.512ZM274.745 200.9L275.445 201.292C275.095 202.188 274.171 203.112 272.519 203.112C270.433 203.112 269.201 201.558 269.201 199.192C269.201 197.022 270.489 195.468 272.421 195.468C274.017 195.468 275.389 196.616 275.389 198.632L275.361 199.458H270.167C270.251 201.432 271.189 202.272 272.617 202.272C273.737 202.272 274.395 201.628 274.745 200.9ZM272.421 196.308C271.301 196.308 270.293 196.91 270.167 198.674H274.451C274.493 197.008 273.513 196.308 272.421 196.308ZM280.509 195.468C281.993 195.468 282.861 196.378 282.861 198.044V203H281.909V198.184C281.909 196.84 281.293 196.336 280.257 196.336C278.955 196.336 278.353 197.344 278.353 198.828V203H277.401V195.58H278.353V196.728C278.801 195.916 279.613 195.468 280.509 195.468ZM293.859 192.64H294.811V203H293.859V201.614C293.369 202.566 292.389 203.098 291.423 203.098C289.533 203.098 288.259 201.516 288.259 199.36C288.259 197.078 289.547 195.468 291.535 195.468C292.571 195.468 293.411 195.986 293.859 196.924V192.64ZM291.521 202.258C293.005 202.258 293.859 201.152 293.859 199.332C293.859 197.4 293.019 196.308 291.535 196.308C290.149 196.308 289.239 197.372 289.239 199.318C289.239 201.194 290.149 202.258 291.521 202.258ZM297.633 194.236C297.171 194.236 296.793 193.872 296.793 193.396C296.793 192.92 297.171 192.556 297.633 192.556C298.095 192.556 298.473 192.92 298.473 193.396C298.473 193.872 298.095 194.236 297.633 194.236ZM297.157 203V195.58H298.109V203H297.157ZM303.628 195.468C305.112 195.468 305.98 196.378 305.98 198.044V203H305.028V198.184C305.028 196.84 304.412 196.336 303.376 196.336C302.074 196.336 301.472 197.344 301.472 198.828V203H300.52V195.58H301.472V196.728C301.92 195.916 302.732 195.468 303.628 195.468ZM313.338 201.152C313.338 202.02 313.856 202.272 314.318 202.272C314.766 202.272 315.06 202.104 315.41 201.74L315.914 202.3C315.424 202.874 314.892 203.112 314.234 203.112C313.226 203.112 312.386 202.44 312.386 201.124V196.364H310.986V195.58H312.386V193.984L313.338 193.424V195.58H315.746V196.364H313.338V201.152ZM317.29 192.696H318.746V194.124H317.29V192.696ZM317.542 203V195.58H318.494V203H317.542ZM323.229 202.972C323.005 203.028 322.823 203.056 322.613 203.056C321.451 203.056 320.905 202.328 320.905 201.236V192.64H321.857V201.236C321.857 201.866 322.193 202.188 322.781 202.188C322.935 202.188 323.089 202.174 323.229 202.132V202.972ZM331.208 195.468C332.174 195.468 332.874 196.112 332.874 197.372V198.1L332.006 198.268V197.54C332.006 196.798 331.754 196.308 330.998 196.308C330.144 196.308 329.5 196.938 329.5 198.436V203H328.548V195.58H329.5V196.504C329.892 195.804 330.55 195.468 331.208 195.468ZM335.231 194.236C334.769 194.236 334.391 193.872 334.391 193.396C334.391 192.92 334.769 192.556 335.231 192.556C335.693 192.556 336.071 192.92 336.071 193.396C336.071 193.872 335.693 194.236 335.231 194.236ZM334.755 203V195.58H335.707V203H334.755ZM342.738 203L340.008 199.318L339.098 200.186V203H338.146V192.64H339.098V199.066L342.626 195.58H343.886L340.652 198.688L343.942 203H342.738ZM346.752 201.152C346.752 202.02 347.27 202.272 347.732 202.272C348.18 202.272 348.474 202.104 348.824 201.74L349.328 202.3C348.838 202.874 348.306 203.112 347.648 203.112C346.64 203.112 345.8 202.44 345.8 201.124V196.364H344.4V195.58H345.8V193.984L346.752 193.424V195.58H349.16V196.364H346.752V201.152ZM350.704 192.696H352.16V194.124H350.704V192.696ZM350.956 203V195.58H351.908V203H350.956ZM360.983 196.364H359.387V196.63C359.751 197.078 359.947 197.638 359.947 198.184C359.947 199.542 358.967 200.928 356.881 200.928H356.559C355.719 200.928 355.117 201.25 355.117 201.74C355.117 202.118 355.411 202.384 356.027 202.384H359.037C360.241 202.384 360.857 202.972 360.857 203.896C360.857 205.366 359.163 206.136 357.077 206.136C355.201 206.136 353.899 205.534 353.451 204.232L354.221 203.882C354.739 205.1 355.831 205.338 357.077 205.338C358.617 205.338 359.905 204.876 359.905 203.98C359.905 203.56 359.681 203.252 359.009 203.252H355.817C354.781 203.252 354.165 202.762 354.165 201.992C354.165 201.334 354.711 200.76 355.621 200.522C354.641 200.13 354.095 199.094 354.095 198.184C354.095 196.854 355.089 195.468 357.049 195.468C357.819 195.468 358.407 195.72 358.855 196.098V195.58H360.983V196.364ZM357.035 200.144C358.351 200.144 359.009 199.234 359.009 198.184C359.009 197.148 358.351 196.28 357.035 196.28C355.705 196.28 355.033 197.162 355.033 198.184C355.033 199.22 355.705 200.144 357.035 200.144ZM371.118 200.9L371.818 201.292C371.468 202.188 370.544 203.112 368.892 203.112C366.806 203.112 365.574 201.558 365.574 199.192C365.574 197.022 366.862 195.468 368.794 195.468C370.39 195.468 371.762 196.616 371.762 198.632L371.734 199.458H366.54C366.624 201.432 367.562 202.272 368.99 202.272C370.11 202.272 370.768 201.628 371.118 200.9ZM368.794 196.308C367.674 196.308 366.666 196.91 366.54 198.674H370.824C370.866 197.008 369.886 196.308 368.794 196.308ZM375.122 201.152C375.122 202.02 375.64 202.272 376.102 202.272C376.55 202.272 376.844 202.104 377.194 201.74L377.698 202.3C377.208 202.874 376.676 203.112 376.018 203.112C375.01 203.112 374.17 202.44 374.17 201.124V196.364H372.77V195.58H374.17V193.984L375.122 193.424V195.58H377.53V196.364H375.122V201.152ZM384.582 203H383.714C383.602 202.594 383.518 202.104 383.518 201.544C383.14 202.412 382.174 203.112 380.97 203.112C379.654 203.112 378.66 202.258 378.66 200.984C378.66 199.458 380.032 198.66 381.558 198.66C382.16 198.66 382.748 198.73 383.35 198.94V197.96C383.35 196.994 382.762 196.336 381.614 196.336C380.69 196.336 379.906 196.742 379.514 197.876L378.674 197.624C379.234 196.056 380.368 195.468 381.67 195.468C383.504 195.468 384.274 196.574 384.274 197.848V200.9C384.274 201.74 384.414 202.496 384.582 203ZM383.35 199.92V199.752C382.776 199.514 382.188 199.444 381.614 199.444C380.494 199.444 379.612 199.948 379.612 200.928C379.612 201.824 380.242 202.3 381.138 202.3C382.104 202.3 383.35 201.726 383.35 199.92ZM388.028 201.152C388.028 202.02 388.546 202.272 389.008 202.272C389.456 202.272 389.75 202.104 390.1 201.74L390.604 202.3C390.114 202.874 389.582 203.112 388.924 203.112C387.916 203.112 387.076 202.44 387.076 201.124V196.364H385.676V195.58H387.076V193.984L388.028 193.424V195.58H390.436V196.364H388.028V201.152ZM394.947 191.94H395.871L393.071 205.1H392.147L394.947 191.94ZM401.608 195.482C403.498 195.482 404.772 197.064 404.772 199.22C404.772 201.502 403.484 203.112 401.496 203.112C400.46 203.112 399.62 202.594 399.172 201.656V203H398.22V192.64H399.172V196.966C399.662 196.014 400.642 195.482 401.608 195.482ZM401.496 202.272C402.882 202.272 403.792 201.208 403.792 199.262C403.792 197.386 402.882 196.322 401.51 196.322C400.026 196.322 399.172 197.428 399.172 199.248C399.172 201.18 400.012 202.272 401.496 202.272ZM411.2 195.58H412.18L408.918 204.022C408.428 205.282 407.882 206.08 406.734 206.08C406.23 206.08 405.768 205.898 405.418 205.576L405.838 204.89C406.118 205.142 406.384 205.254 406.706 205.254C407.224 205.254 407.588 205.03 407.952 204.176L408.386 203.126L405.6 195.58H406.636L408.876 202.006L411.2 195.58ZM418.424 192.64H419.376V203H418.424V201.614C417.934 202.566 416.954 203.098 415.988 203.098C414.098 203.098 412.824 201.516 412.824 199.36C412.824 197.078 414.112 195.468 416.1 195.468C417.136 195.468 417.976 195.986 418.424 196.924V192.64ZM416.086 202.258C417.57 202.258 418.424 201.152 418.424 199.332C418.424 197.4 417.584 196.308 416.1 196.308C414.714 196.308 413.804 197.372 413.804 199.318C413.804 201.194 414.714 202.258 416.086 202.258ZM426.79 200.9L427.49 201.292C427.14 202.188 426.216 203.112 424.564 203.112C422.478 203.112 421.246 201.558 421.246 199.192C421.246 197.022 422.534 195.468 424.466 195.468C426.062 195.468 427.434 196.616 427.434 198.632L427.406 199.458H422.212C422.296 201.432 423.234 202.272 424.662 202.272C425.782 202.272 426.44 201.628 426.79 200.9ZM424.466 196.308C423.346 196.308 422.338 196.91 422.212 198.674H426.496C426.538 197.008 425.558 196.308 424.466 196.308ZM431.77 202.972C431.546 203.028 431.364 203.056 431.154 203.056C429.992 203.056 429.446 202.328 429.446 201.236V192.64H430.398V201.236C430.398 201.866 430.734 202.188 431.322 202.188C431.476 202.188 431.63 202.174 431.77 202.132V202.972ZM78.688 223.152C78.688 224.02 79.206 224.272 79.668 224.272C80.116 224.272 80.41 224.104 80.76 223.74L81.264 224.3C80.774 224.874 80.242 225.112 79.584 225.112C78.576 225.112 77.736 224.44 77.736 223.124V218.364H76.336V217.58H77.736V215.984L78.688 215.424V217.58H81.096V218.364H78.688V223.152ZM85.5515 217.468C86.5175 217.468 87.2175 218.112 87.2175 219.372V220.1L86.3495 220.268V219.54C86.3495 218.798 86.0975 218.308 85.3415 218.308C84.4875 218.308 83.8435 218.938 83.8435 220.436V225H82.8915V217.58H83.8435V218.504C84.2355 217.804 84.8935 217.468 85.5515 217.468ZM93.7427 222.9L94.4427 223.292C94.0927 224.188 93.1687 225.112 91.5167 225.112C89.4307 225.112 88.1987 223.558 88.1987 221.192C88.1987 219.022 89.4867 217.468 91.4187 217.468C93.0147 217.468 94.3867 218.616 94.3867 220.632L94.3587 221.458H89.1647C89.2487 223.432 90.1867 224.272 91.6147 224.272C92.7347 224.272 93.3927 223.628 93.7427 222.9ZM91.4187 218.308C90.2987 218.308 89.2907 218.91 89.1647 220.674H93.4487C93.4907 219.008 92.5107 218.308 91.4187 218.308ZM99.5073 217.468C100.991 217.468 101.859 218.378 101.859 220.044V225H100.907V220.184C100.907 218.84 100.291 218.336 99.2553 218.336C97.9533 218.336 97.3513 219.344 97.3513 220.828V225H96.3993V217.58H97.3513V218.728C97.7993 217.916 98.6113 217.468 99.5073 217.468ZM110.815 218.364H109.219V218.63C109.583 219.078 109.779 219.638 109.779 220.184C109.779 221.542 108.799 222.928 106.713 222.928H106.391C105.551 222.928 104.949 223.25 104.949 223.74C104.949 224.118 105.243 224.384 105.859 224.384H108.869C110.073 224.384 110.689 224.972 110.689 225.896C110.689 227.366 108.995 228.136 106.909 228.136C105.033 228.136 103.731 227.534 103.283 226.232L104.053 225.882C104.571 227.1 105.663 227.338 106.909 227.338C108.449 227.338 109.737 226.876 109.737 225.98C109.737 225.56 109.513 225.252 108.841 225.252H105.649C104.613 225.252 103.997 224.762 103.997 223.992C103.997 223.334 104.543 222.76 105.453 222.522C104.473 222.13 103.927 221.094 103.927 220.184C103.927 218.854 104.921 217.468 106.881 217.468C107.651 217.468 108.239 217.72 108.687 218.098V217.58H110.815V218.364ZM106.867 222.144C108.183 222.144 108.841 221.234 108.841 220.184C108.841 219.148 108.183 218.28 106.867 218.28C105.537 218.28 104.865 219.162 104.865 220.184C104.865 221.22 105.537 222.144 106.867 222.144ZM116.807 222.9L117.507 223.292C117.157 224.188 116.233 225.112 114.581 225.112C112.495 225.112 111.263 223.558 111.263 221.192C111.263 219.022 112.551 217.468 114.483 217.468C116.079 217.468 117.451 218.616 117.451 220.632L117.423 221.458H112.229C112.313 223.432 113.251 224.272 114.679 224.272C115.799 224.272 116.457 223.628 116.807 222.9ZM114.483 218.308C113.363 218.308 112.355 218.91 112.229 220.674H116.513C116.555 219.008 115.575 218.308 114.483 218.308ZM122.124 217.468C123.09 217.468 123.79 218.112 123.79 219.372V220.1L122.922 220.268V219.54C122.922 218.798 122.67 218.308 121.914 218.308C121.06 218.308 120.416 218.938 120.416 220.436V225H119.464V217.58H120.416V218.504C120.808 217.804 121.466 217.468 122.124 217.468ZM133.985 217.58H134.965L132.053 225H131.213L128.301 217.58H129.337L131.661 223.95L133.985 217.58ZM136.893 216.236C136.431 216.236 136.053 215.872 136.053 215.396C136.053 214.92 136.431 214.556 136.893 214.556C137.355 214.556 137.733 214.92 137.733 215.396C137.733 215.872 137.355 216.236 136.893 216.236ZM136.417 225V217.58H137.369V225H136.417ZM146.008 216.796C145.098 216.796 144.356 216.124 144.356 215.2C144.356 214.276 145.098 213.604 146.008 213.604C146.918 213.604 147.66 214.276 147.66 215.2C147.66 216.124 146.918 216.796 146.008 216.796ZM146.008 214.248C145.476 214.248 145.056 214.584 145.056 215.2C145.056 215.83 145.476 216.152 146.008 216.152C146.54 216.152 146.96 215.83 146.96 215.2C146.96 214.584 146.54 214.248 146.008 214.248ZM148.892 225H148.024C147.912 224.594 147.828 224.104 147.828 223.544C147.45 224.412 146.484 225.112 145.28 225.112C143.964 225.112 142.97 224.258 142.97 222.984C142.97 221.458 144.342 220.66 145.868 220.66C146.47 220.66 147.058 220.73 147.66 220.94V219.96C147.66 218.994 147.072 218.336 145.924 218.336C145 218.336 144.216 218.742 143.824 219.876L142.984 219.624C143.544 218.056 144.678 217.468 145.98 217.468C147.814 217.468 148.584 218.574 148.584 219.848V222.9C148.584 223.74 148.724 224.496 148.892 225ZM147.66 221.92V221.752C147.086 221.514 146.498 221.444 145.924 221.444C144.804 221.444 143.922 221.948 143.922 222.928C143.922 223.824 144.552 224.3 145.448 224.3C146.414 224.3 147.66 223.726 147.66 221.92ZM159.305 217.58H160.285L157.373 225H156.533L153.621 217.58H154.657L156.981 223.95L159.305 217.58ZM161.485 214.696H162.941V216.124H161.485V214.696ZM161.737 225V217.58H162.689V225H161.737ZM166.584 223.152C166.584 224.02 167.102 224.272 167.564 224.272C168.012 224.272 168.306 224.104 168.656 223.74L169.16 224.3C168.67 224.874 168.138 225.112 167.48 225.112C166.472 225.112 165.632 224.44 165.632 223.124V218.364H164.232V217.58H165.632V215.984L166.584 215.424V217.58H168.992V218.364H166.584V223.152ZM175.432 222.9L176.132 223.292C175.782 224.188 174.858 225.112 173.206 225.112C171.12 225.112 169.888 223.558 169.888 221.192C169.888 219.022 171.176 217.468 173.108 217.468C174.704 217.468 176.076 218.616 176.076 220.632L176.048 221.458H170.854C170.938 223.432 171.876 224.272 173.304 224.272C174.424 224.272 175.082 223.628 175.432 222.9ZM173.108 218.308C171.988 218.308 170.98 218.91 170.854 220.674H175.138C175.18 219.008 174.2 218.308 173.108 218.308ZM184.807 217.468C186.291 217.468 187.159 218.378 187.159 220.044V225H186.207V220.184C186.207 218.84 185.591 218.336 184.555 218.336C183.253 218.336 182.651 219.344 182.651 220.828V225H181.699V214.64H182.651V218.728C183.099 217.916 183.911 217.468 184.807 217.468ZM194.045 217.58H195.025L192.113 225H191.273L188.361 217.58H189.397L191.721 223.95L194.045 217.58ZM196.953 216.236C196.491 216.236 196.113 215.872 196.113 215.396C196.113 214.92 196.491 214.556 196.953 214.556C197.415 214.556 197.793 214.92 197.793 215.396C197.793 215.872 197.415 216.236 196.953 216.236ZM196.477 225V217.58H197.429V225H196.477ZM202.165 224.972C201.941 225.028 201.759 225.056 201.549 225.056C200.387 225.056 199.841 224.328 199.841 223.236V214.64H200.793V223.236C200.793 223.866 201.129 224.188 201.717 224.188C201.871 224.188 202.025 224.174 202.165 224.132V224.972ZM208.521 225L205.791 221.318L204.881 222.186V225H203.929V214.64H204.881V221.066L208.409 217.58H209.669L206.435 220.688L209.725 225H208.521ZM215.833 222.9L216.533 223.292C216.183 224.188 215.259 225.112 213.607 225.112C211.521 225.112 210.289 223.558 210.289 221.192C210.289 219.022 211.577 217.468 213.509 217.468C215.105 217.468 216.477 218.616 216.477 220.632L216.449 221.458H211.255C211.339 223.432 212.277 224.272 213.705 224.272C214.825 224.272 215.483 223.628 215.833 222.9ZM213.509 218.308C212.389 218.308 211.381 218.91 211.255 220.674H215.539C215.581 219.008 214.601 218.308 213.509 218.308ZM221.597 217.468C223.081 217.468 223.949 218.378 223.949 220.044V225H222.997V220.184C222.997 218.84 222.381 218.336 221.345 218.336C220.043 218.336 219.441 219.344 219.441 220.828V225H218.489V217.58H219.441V218.728C219.889 217.916 220.701 217.468 221.597 217.468ZM233.239 217.482C235.129 217.482 236.403 219.064 236.403 221.22C236.403 223.502 235.115 225.112 233.127 225.112C232.091 225.112 231.251 224.594 230.803 223.656V225H229.851V214.64H230.803V218.966C231.293 218.014 232.273 217.482 233.239 217.482ZM233.127 224.272C234.513 224.272 235.423 223.208 235.423 221.262C235.423 219.386 234.513 218.322 233.141 218.322C231.657 218.322 230.803 219.428 230.803 221.248C230.803 223.18 231.643 224.272 233.127 224.272ZM242.831 217.58H243.811L240.549 226.022C240.059 227.282 239.513 228.08 238.365 228.08C237.861 228.08 237.399 227.898 237.049 227.576L237.469 226.89C237.749 227.142 238.015 227.254 238.337 227.254C238.855 227.254 239.219 227.03 239.583 226.176L240.017 225.126L237.231 217.58H238.267L240.507 224.006L242.831 217.58ZM250.055 214.64H251.007V225H250.055V223.614C249.565 224.566 248.585 225.098 247.619 225.098C245.729 225.098 244.455 223.516 244.455 221.36C244.455 219.078 245.743 217.468 247.731 217.468C248.767 217.468 249.607 217.986 250.055 218.924V214.64ZM247.717 224.258C249.201 224.258 250.055 223.152 250.055 221.332C250.055 219.4 249.215 218.308 247.731 218.308C246.345 218.308 245.435 219.372 245.435 221.318C245.435 223.194 246.345 224.258 247.717 224.258ZM258.42 222.9L259.12 223.292C258.77 224.188 257.846 225.112 256.194 225.112C254.108 225.112 252.876 223.558 252.876 221.192C252.876 219.022 254.164 217.468 256.096 217.468C257.692 217.468 259.064 218.616 259.064 220.632L259.036 221.458H253.842C253.926 223.432 254.864 224.272 256.292 224.272C257.412 224.272 258.07 223.628 258.42 222.9ZM256.096 218.308C254.976 218.308 253.968 218.91 253.842 220.674H258.126C258.168 219.008 257.188 218.308 256.096 218.308ZM263.401 224.972C263.177 225.028 262.995 225.056 262.785 225.056C261.623 225.056 261.077 224.328 261.077 223.236V214.64H262.029V223.236C262.029 223.866 262.365 224.188 262.953 224.188C263.107 224.188 263.261 224.174 263.401 224.132V224.972ZM273.844 214.64H274.796V225H273.844V223.614C273.354 224.566 272.374 225.098 271.408 225.098C269.518 225.098 268.244 223.516 268.244 221.36C268.244 219.078 269.532 217.468 271.52 217.468C272.556 217.468 273.396 217.986 273.844 218.924V214.64ZM271.506 224.258C272.99 224.258 273.844 223.152 273.844 221.332C273.844 219.4 273.004 218.308 271.52 218.308C270.134 218.308 269.224 219.372 269.224 221.318C269.224 223.194 270.134 224.258 271.506 224.258ZM281.454 217.58H282.406V225H281.454V223.866C281.006 224.664 280.222 225.112 279.312 225.112C277.856 225.112 276.974 224.174 276.974 222.564V217.58H277.926V222.48C277.926 223.698 278.542 224.258 279.578 224.258C280.894 224.258 281.454 223.208 281.454 221.752V217.58ZM291.755 217.482C293.645 217.482 294.919 219.064 294.919 221.22C294.919 223.502 293.631 225.112 291.643 225.112C290.607 225.112 289.767 224.594 289.319 223.656V225H288.367V214.64H289.319V218.966C289.809 218.014 290.789 217.482 291.755 217.482ZM291.643 224.272C293.029 224.272 293.939 223.208 293.939 221.262C293.939 219.386 293.029 218.322 291.657 218.322C290.173 218.322 289.319 219.428 289.319 221.248C289.319 223.18 290.159 224.272 291.643 224.272ZM299.684 225.112C297.85 225.112 296.38 223.6 296.38 221.276C296.38 218.98 297.836 217.468 299.684 217.468C301.532 217.468 302.988 218.98 302.988 221.276C302.988 223.6 301.518 225.112 299.684 225.112ZM299.684 224.272C300.958 224.272 302.008 223.264 302.008 221.276C302.008 219.302 300.944 218.308 299.684 218.308C298.424 218.308 297.36 219.302 297.36 221.276C297.36 223.264 298.41 224.272 299.684 224.272ZM307.583 217.468C308.549 217.468 309.249 218.112 309.249 219.372V220.1L308.381 220.268V219.54C308.381 218.798 308.129 218.308 307.373 218.308C306.519 218.308 305.875 218.938 305.875 220.436V225H304.923V217.58H305.875V218.504C306.267 217.804 306.925 217.468 307.583 217.468ZM314.46 214.696H315.916V216.124H314.46V214.696ZM314.712 225V217.58H315.664V225H314.712ZM318.775 225.084C318.271 225.084 317.879 224.706 317.879 224.188C317.879 223.67 318.271 223.292 318.775 223.292C319.279 223.292 319.671 223.67 319.671 224.188C319.671 224.706 319.279 225.084 318.775 225.084Z" fill="#2A2859"/>
<rect x="77" y="240" width="398" height="46" fill="white"/>
<path d="M102.188 255.68H103.52L98.642 269H97.382L92.54 255.68H93.908L98.03 267.542L102.188 255.68ZM110.657 266.3L111.557 266.804C111.107 267.956 109.919 269.144 107.795 269.144C105.113 269.144 103.529 267.146 103.529 264.104C103.529 261.314 105.185 259.316 107.669 259.316C109.721 259.316 111.485 260.792 111.485 263.384L111.449 264.446H104.771C104.879 266.984 106.085 268.064 107.921 268.064C109.361 268.064 110.207 267.236 110.657 266.3ZM107.669 260.396C106.229 260.396 104.933 261.17 104.771 263.438H110.279C110.333 261.296 109.073 260.396 107.669 260.396ZM116.861 268.964C116.573 269.036 116.339 269.072 116.069 269.072C114.575 269.072 113.873 268.136 113.873 266.732V255.68H115.097V266.732C115.097 267.542 115.529 267.956 116.285 267.956C116.483 267.956 116.681 267.938 116.861 267.884V268.964ZM127.11 260.468H125.058V260.81C125.526 261.386 125.778 262.106 125.778 262.808C125.778 264.554 124.518 266.336 121.836 266.336H121.422C120.342 266.336 119.568 266.75 119.568 267.38C119.568 267.866 119.946 268.208 120.738 268.208H124.608C126.156 268.208 126.948 268.964 126.948 270.152C126.948 272.042 124.77 273.032 122.088 273.032C119.676 273.032 118.002 272.258 117.426 270.584L118.416 270.134C119.082 271.7 120.486 272.006 122.088 272.006C124.068 272.006 125.724 271.412 125.724 270.26C125.724 269.72 125.436 269.324 124.572 269.324H120.468C119.136 269.324 118.344 268.694 118.344 267.704C118.344 266.858 119.046 266.12 120.216 265.814C118.956 265.31 118.254 263.978 118.254 262.808C118.254 261.098 119.532 259.316 122.052 259.316C123.042 259.316 123.798 259.64 124.374 260.126V259.46H127.11V260.468ZM122.034 265.328C123.726 265.328 124.572 264.158 124.572 262.808C124.572 261.476 123.726 260.36 122.034 260.36C120.324 260.36 119.46 261.494 119.46 262.808C119.46 264.14 120.324 265.328 122.034 265.328ZM139.812 255.68H141.036V269H139.812V267.218C139.182 268.442 137.922 269.126 136.68 269.126C134.25 269.126 132.612 267.092 132.612 264.32C132.612 261.386 134.268 259.316 136.824 259.316C138.156 259.316 139.236 259.982 139.812 261.188V255.68ZM136.806 268.046C138.714 268.046 139.812 266.624 139.812 264.284C139.812 261.8 138.732 260.396 136.824 260.396C135.042 260.396 133.872 261.764 133.872 264.266C133.872 266.678 135.042 268.046 136.806 268.046ZM144.464 257.732C143.87 257.732 143.384 257.264 143.384 256.652C143.384 256.04 143.87 255.572 144.464 255.572C145.058 255.572 145.544 256.04 145.544 256.652C145.544 257.264 145.058 257.732 144.464 257.732ZM143.852 269V259.46H145.076V269H143.852ZM151.972 259.316C153.88 259.316 154.996 260.486 154.996 262.628V269H153.772V262.808C153.772 261.08 152.98 260.432 151.648 260.432C149.974 260.432 149.2 261.728 149.2 263.636V269H147.976V259.46H149.2V260.936C149.776 259.892 150.82 259.316 151.972 259.316ZM166.54 259.334C168.97 259.334 170.608 261.368 170.608 264.14C170.608 267.074 168.952 269.144 166.396 269.144C165.064 269.144 163.984 268.478 163.408 267.272V269H162.184V255.68H163.408V261.242C164.038 260.018 165.298 259.334 166.54 259.334ZM166.396 268.064C168.178 268.064 169.348 266.696 169.348 264.194C169.348 261.782 168.178 260.414 166.414 260.414C164.506 260.414 163.408 261.836 163.408 264.176C163.408 266.66 164.488 268.064 166.396 268.064ZM178.673 259.46H179.933L175.739 270.314C175.109 271.934 174.407 272.96 172.931 272.96C172.283 272.96 171.689 272.726 171.239 272.312L171.779 271.43C172.139 271.754 172.481 271.898 172.895 271.898C173.561 271.898 174.029 271.61 174.497 270.512L175.055 269.162L171.473 259.46H172.805L175.685 267.722L178.673 259.46ZM187.76 255.68H188.984V269H187.76V267.218C187.13 268.442 185.87 269.126 184.628 269.126C182.198 269.126 180.56 267.092 180.56 264.32C180.56 261.386 182.216 259.316 184.772 259.316C186.104 259.316 187.184 259.982 187.76 261.188V255.68ZM184.754 268.046C186.662 268.046 187.76 266.624 187.76 264.284C187.76 261.8 186.68 260.396 184.772 260.396C182.99 260.396 181.82 261.764 181.82 264.266C181.82 266.678 182.99 268.046 184.754 268.046ZM198.316 266.3L199.216 266.804C198.766 267.956 197.578 269.144 195.454 269.144C192.772 269.144 191.188 267.146 191.188 264.104C191.188 261.314 192.844 259.316 195.328 259.316C197.38 259.316 199.144 260.792 199.144 263.384L199.108 264.446H192.43C192.538 266.984 193.744 268.064 195.58 268.064C197.02 268.064 197.866 267.236 198.316 266.3ZM195.328 260.396C193.888 260.396 192.592 261.17 192.43 263.438H197.938C197.992 261.296 196.732 260.396 195.328 260.396ZM204.52 268.964C204.232 269.036 203.998 269.072 203.728 269.072C202.234 269.072 201.532 268.136 201.532 266.732V255.68H202.756V266.732C202.756 267.542 203.188 267.956 203.944 267.956C204.142 267.956 204.34 267.938 204.52 267.884V268.964Z" fill="#2A2859"/>
<path fill-rule="evenodd" clip-rule="evenodd" d="M448 265.56L440.747 258.5L439.75 259.47L448 267.5L456.25 259.47L455.253 258.5L448 265.56Z" fill="#2A2859"/>
<rect x="77" y="240" width="398" height="46" stroke="#2A2859" stroke-width="2"/>
<rect x="640" y="196" width="398" height="46" fill="white"/>
<path d="M664.612 211.68H665.872V225H664.612V218.88H657.844V225H656.584V211.68H657.844V217.692H664.612V211.68ZM674.895 215.46H676.155L672.411 225H671.331L667.587 215.46H668.919L671.907 223.65L674.895 215.46ZM678.434 213.732C677.84 213.732 677.354 213.264 677.354 212.652C677.354 212.04 677.84 211.572 678.434 211.572C679.028 211.572 679.514 212.04 679.514 212.652C679.514 213.264 679.028 213.732 678.434 213.732ZM677.822 225V215.46H679.046V225H677.822ZM684.934 224.964C684.646 225.036 684.412 225.072 684.142 225.072C682.648 225.072 681.946 224.136 681.946 222.732V211.68H683.17V222.732C683.17 223.542 683.602 223.956 684.358 223.956C684.556 223.956 684.754 223.938 684.934 223.884V224.964ZM692.907 225L689.397 220.266L688.227 221.382V225H687.003V211.68H688.227V219.942L692.763 215.46H694.383L690.225 219.456L694.455 225H692.907ZM702.107 222.3L703.007 222.804C702.557 223.956 701.369 225.144 699.245 225.144C696.563 225.144 694.979 223.146 694.979 220.104C694.979 217.314 696.635 215.316 699.119 215.316C701.171 215.316 702.935 216.792 702.935 219.384L702.899 220.446H696.221C696.329 222.984 697.535 224.064 699.371 224.064C700.811 224.064 701.657 223.236 702.107 222.3ZM699.119 216.396C697.679 216.396 696.383 217.17 696.221 219.438H701.729C701.783 217.296 700.523 216.396 699.119 216.396ZM709.319 215.316C711.227 215.316 712.343 216.486 712.343 218.628V225H711.119V218.808C711.119 217.08 710.327 216.432 708.995 216.432C707.321 216.432 706.547 217.728 706.547 219.636V225H705.323V215.46H706.547V216.936C707.123 215.892 708.167 215.316 709.319 215.316ZM723.887 215.334C726.317 215.334 727.955 217.368 727.955 220.14C727.955 223.074 726.299 225.144 723.743 225.144C722.411 225.144 721.331 224.478 720.755 223.272V225H719.531V211.68H720.755V217.242C721.385 216.018 722.645 215.334 723.887 215.334ZM723.743 224.064C725.525 224.064 726.695 222.696 726.695 220.194C726.695 217.782 725.525 216.414 723.761 216.414C721.853 216.414 720.755 217.836 720.755 220.176C720.755 222.66 721.835 224.064 723.743 224.064ZM736.019 215.46H737.279L733.085 226.314C732.455 227.934 731.753 228.96 730.277 228.96C729.629 228.96 729.035 228.726 728.585 228.312L729.125 227.43C729.485 227.754 729.827 227.898 730.241 227.898C730.907 227.898 731.375 227.61 731.843 226.512L732.401 225.162L728.819 215.46H730.151L733.031 223.722L736.019 215.46ZM745.107 211.68H746.331V225H745.107V223.218C744.477 224.442 743.217 225.126 741.975 225.126C739.545 225.126 737.907 223.092 737.907 220.32C737.907 217.386 739.563 215.316 742.119 215.316C743.451 215.316 744.531 215.982 745.107 217.188V211.68ZM742.101 224.046C744.009 224.046 745.107 222.624 745.107 220.284C745.107 217.8 744.027 216.396 742.119 216.396C740.337 216.396 739.167 217.764 739.167 220.266C739.167 222.678 740.337 224.046 742.101 224.046ZM755.663 222.3L756.563 222.804C756.113 223.956 754.925 225.144 752.801 225.144C750.119 225.144 748.535 223.146 748.535 220.104C748.535 217.314 750.191 215.316 752.675 215.316C754.727 215.316 756.491 216.792 756.491 219.384L756.455 220.446H749.777C749.885 222.984 751.091 224.064 752.927 224.064C754.367 224.064 755.213 223.236 755.663 222.3ZM752.675 216.396C751.235 216.396 749.939 217.17 749.777 219.438H755.285C755.339 217.296 754.079 216.396 752.675 216.396ZM761.866 224.964C761.578 225.036 761.344 225.072 761.074 225.072C759.58 225.072 758.878 224.136 758.878 222.732V211.68H760.102V222.732C760.102 223.542 760.534 223.956 761.29 223.956C761.488 223.956 761.686 223.938 761.866 223.884V224.964ZM770.213 222.624C770.213 223.74 770.879 224.064 771.473 224.064C772.049 224.064 772.427 223.848 772.877 223.38L773.525 224.1C772.895 224.838 772.211 225.144 771.365 225.144C770.069 225.144 768.989 224.28 768.989 222.588V216.468H767.189V215.46H768.989V213.408L770.213 212.688V215.46H773.309V216.468H770.213V222.624ZM775.093 211.752H776.965V213.588H775.093V211.752ZM775.417 225V215.46H776.641V225H775.417ZM782.529 224.964C782.241 225.036 782.007 225.072 781.737 225.072C780.243 225.072 779.541 224.136 779.541 222.732V211.68H780.765V222.732C780.765 223.542 781.197 223.956 781.953 223.956C782.151 223.956 782.349 223.938 782.529 223.884V224.964ZM788.594 215.316C790.502 215.316 791.618 216.486 791.618 218.628V225H790.394V218.808C790.394 217.08 789.602 216.432 788.27 216.432C786.596 216.432 785.822 217.728 785.822 219.636V225H784.598V211.68H785.822V216.936C786.398 215.892 787.442 215.316 788.594 215.316ZM800.502 216.18C801.564 217.026 802.248 218.43 802.248 220.212C802.248 223.2 800.358 225.144 798 225.144C797.334 225.144 796.704 224.982 796.146 224.694L795.552 225.864H794.688L795.498 224.28C794.436 223.434 793.752 222.012 793.752 220.212C793.752 217.26 795.624 215.316 798 215.316C798.666 215.316 799.296 215.478 799.854 215.748L800.448 214.596H801.312L800.502 216.18ZM795.012 220.212C795.012 221.598 795.408 222.606 796.02 223.254L799.35 216.738C798.936 216.504 798.486 216.396 798 216.396C796.38 216.396 795.012 217.674 795.012 220.212ZM798 224.064C799.638 224.064 800.988 222.768 800.988 220.212C800.988 218.844 800.592 217.854 799.98 217.206L796.65 223.722C797.046 223.956 797.514 224.064 798 224.064ZM807.955 215.316C809.197 215.316 810.097 216.144 810.097 217.764V218.7L808.981 218.916V217.98C808.981 217.026 808.657 216.396 807.685 216.396C806.587 216.396 805.759 217.206 805.759 219.132V225H804.535V215.46H805.759V216.648C806.263 215.748 807.109 215.316 807.955 215.316ZM818.287 222.3L819.187 222.804C818.737 223.956 817.549 225.144 815.425 225.144C812.743 225.144 811.159 223.146 811.159 220.104C811.159 217.314 812.815 215.316 815.299 215.316C817.351 215.316 819.115 216.792 819.115 219.384L819.079 220.446H812.401C812.509 222.984 813.715 224.064 815.551 224.064C816.991 224.064 817.837 223.236 818.287 222.3ZM815.299 216.396C813.859 216.396 812.563 217.17 812.401 219.438H817.909C817.963 217.296 816.703 216.396 815.299 216.396ZM824.922 215.316C826.164 215.316 827.064 216.144 827.064 217.764V218.7L825.948 218.916V217.98C825.948 217.026 825.624 216.396 824.652 216.396C823.554 216.396 822.726 217.206 822.726 219.132V225H821.502V215.46H822.726V216.648C823.23 215.748 824.076 215.316 824.922 215.316ZM840.276 211.68H841.5V225H840.276V223.218C839.646 224.442 838.386 225.126 837.144 225.126C834.714 225.126 833.076 223.092 833.076 220.32C833.076 217.386 834.732 215.316 837.288 215.316C838.62 215.316 839.7 215.982 840.276 217.188V211.68ZM837.27 224.046C839.178 224.046 840.276 222.624 840.276 220.284C840.276 217.8 839.196 216.396 837.288 216.396C835.506 216.396 834.336 217.764 834.336 220.266C834.336 222.678 835.506 224.046 837.27 224.046ZM849.86 215.46H851.084V225H849.86V223.542C849.284 224.568 848.276 225.144 847.106 225.144C845.234 225.144 844.1 223.938 844.1 221.868V215.46H845.324V221.76C845.324 223.326 846.116 224.046 847.448 224.046C849.14 224.046 849.86 222.696 849.86 220.824V215.46ZM856.859 211.536C859.217 211.536 860.801 213.012 860.801 215.118C860.801 217.314 859.127 218.61 856.949 219.15L856.913 221.04H855.905L855.833 218.34C858.101 217.962 859.595 217.098 859.595 215.1C859.595 213.552 858.515 212.652 856.805 212.652C855.599 212.652 854.483 213.3 853.709 214.596L852.719 214.02C853.763 212.364 855.257 211.536 856.859 211.536ZM856.427 222.804C857.075 222.804 857.579 223.29 857.579 223.956C857.579 224.622 857.075 225.108 856.427 225.108C855.779 225.108 855.275 224.622 855.275 223.956C855.275 223.29 855.779 222.804 856.427 222.804Z" fill="#2A2859"/>
<path fill-rule="evenodd" clip-rule="evenodd" d="M1011 221.56L1003.75 214.5L1002.75 215.47L1011 223.5L1019.25 215.47L1018.25 214.5L1011 221.56Z" fill="#2A2859"/>
<rect x="640" y="196" width="398" height="46" stroke="#2A2859" stroke-width="2"/>
</g>
<defs>
<clipPath id="clip0_5730_132431">
<rect width="1116" height="416" fill="white"/>
</clipPath>
</defs>
</svg>
