<svg width="1405" height="467" viewBox="0 0 1405 467" fill="none" xmlns="http://www.w3.org/2000/svg">
<rect width="1405" height="467" fill="white"/>
<path d="M63.7553 91.68H65.7713V105H63.9353L57.5273 95.442V105H55.5113V91.68H57.5093L63.7553 101.058V91.68ZM75.1498 101.994L76.5178 102.786C75.9778 103.974 74.7178 105.162 72.5398 105.162C69.7138 105.162 68.0038 103.074 68.0038 100.14C68.0038 97.242 69.8578 95.244 72.3958 95.244C74.6458 95.244 76.4998 96.756 76.4998 99.456L76.4638 100.644H69.9838C70.0918 102.66 71.0818 103.524 72.6658 103.524C73.8358 103.524 74.6458 102.894 75.1498 101.994ZM72.3958 96.828C71.1718 96.828 70.1458 97.476 69.9838 99.204H74.5378C74.5558 97.512 73.5118 96.828 72.3958 96.828ZM85.1405 91.68H87.1565V105H85.1405V103.272C84.4025 104.604 83.2505 105.144 82.1525 105.144C79.8485 105.144 78.1925 103.164 78.1925 100.266C78.1925 97.26 79.8665 95.262 82.3865 95.262C83.4665 95.262 84.5465 95.748 85.1405 96.918V91.68ZM82.6925 103.38C84.1505 103.38 85.1405 102.39 85.1405 100.158C85.1405 97.944 84.1685 96.882 82.6925 96.882C81.3065 96.882 80.2805 97.998 80.2805 100.158C80.2805 102.3 81.3065 103.38 82.6925 103.38ZM92.5014 102.048C92.5014 103.11 93.1494 103.434 93.8154 103.434C94.3374 103.434 94.7514 103.218 95.1654 102.804L96.0294 104.1C95.3094 104.82 94.5174 105.162 93.4914 105.162C91.8354 105.162 90.4854 104.154 90.4854 102.174V97.026H88.8114V95.46H90.4854V93.336L92.5014 92.418V95.46H95.8674V97.026H92.5014V102.048ZM102.149 95.244C103.535 95.244 104.435 96.162 104.435 97.8V99.06L102.815 99.348V98.376C102.815 97.512 102.509 96.918 101.573 96.918C100.547 96.918 99.7912 97.602 99.7912 99.42V105H97.7752V95.46H99.7912V96.738C100.331 95.676 101.321 95.244 102.149 95.244ZM112.565 101.994L113.933 102.786C113.393 103.974 112.133 105.162 109.955 105.162C107.129 105.162 105.419 103.074 105.419 100.14C105.419 97.242 107.273 95.244 109.811 95.244C112.061 95.244 113.915 96.756 113.915 99.456L113.879 100.644H107.399C107.507 102.66 108.497 103.524 110.081 103.524C111.251 103.524 112.061 102.894 112.565 101.994ZM109.811 96.828C108.587 96.828 107.561 97.476 107.399 99.204H111.953C111.971 97.512 110.927 96.828 109.811 96.828ZM122.213 105L119.315 100.626L118.217 101.706V105H116.201V91.68H118.217V99.42L122.069 95.46H124.553L120.647 99.312L124.625 105H122.213ZM132.402 105L129.504 100.626L128.406 101.706V105H126.39V91.68H128.406V99.42L132.258 95.46H134.742L130.836 99.312L134.814 105H132.402Z" fill="#2A2859"/>
<path d="M56.1573 136.076H60.9733V137H55.1773V126.64H56.1573V136.076ZM67.4087 134.9L68.1087 135.292C67.7587 136.188 66.8347 137.112 65.1827 137.112C63.0967 137.112 61.8647 135.558 61.8647 133.192C61.8647 131.022 63.1527 129.468 65.0847 129.468C66.6807 129.468 68.0527 130.616 68.0527 132.632L68.0247 133.458H62.8307C62.9147 135.432 63.8527 136.272 65.2807 136.272C66.4007 136.272 67.0587 135.628 67.4087 134.9ZM65.0847 130.308C63.9647 130.308 62.9567 130.91 62.8307 132.674H67.1147C67.1567 131.008 66.1767 130.308 65.0847 130.308ZM69.7013 131.512C69.7013 130.336 70.8073 129.468 72.3613 129.468C73.7053 129.468 74.7413 130.112 75.0493 131.092L74.2653 131.4C73.9713 130.686 73.2853 130.308 72.3333 130.308C71.2973 130.308 70.6253 130.742 70.6253 131.428C70.6253 132.044 71.0313 132.422 71.9133 132.604L72.8933 132.8C74.5173 133.122 75.2733 133.822 75.2733 134.928C75.2733 136.216 74.1253 137.112 72.4733 137.112C70.9753 137.112 69.9253 136.524 69.4213 135.404L70.2333 135.068C70.5833 135.852 71.3533 136.272 72.4453 136.272C73.5933 136.272 74.3493 135.768 74.3493 135.012C74.3493 134.312 73.9573 133.934 72.9773 133.724L71.7733 133.472C70.4153 133.192 69.7013 132.506 69.7013 131.512ZM88.1214 129.468C89.5354 129.468 90.3614 130.364 90.3614 131.904V137H89.4094V132.044C89.4094 130.84 88.8354 130.336 87.8694 130.336C86.5674 130.336 86.0214 131.344 86.0214 132.828V137H85.0694V132.044C85.0694 130.84 84.4954 130.336 83.5294 130.336C82.2274 130.336 81.6814 131.344 81.6814 132.828V137H80.7294V129.58H81.6814V130.742C82.1294 129.916 82.9134 129.468 83.7814 129.468C84.8874 129.468 85.6294 130.014 85.8954 130.98C86.3154 130 87.1694 129.468 88.1214 129.468ZM97.7193 134.9L98.4193 135.292C98.0693 136.188 97.1453 137.112 95.4933 137.112C93.4073 137.112 92.1753 135.558 92.1753 133.192C92.1753 131.022 93.4633 129.468 95.3953 129.468C96.9913 129.468 98.3633 130.616 98.3633 132.632L98.3353 133.458H93.1413C93.2253 135.432 94.1633 136.272 95.5913 136.272C96.7113 136.272 97.3693 135.628 97.7193 134.9ZM95.3953 130.308C94.2753 130.308 93.2673 130.91 93.1413 132.674H97.4253C97.4673 131.008 96.4873 130.308 95.3953 130.308ZM103.036 129.468C104.002 129.468 104.702 130.112 104.702 131.372V132.1L103.834 132.268V131.54C103.834 130.798 103.582 130.308 102.826 130.308C101.972 130.308 101.328 130.938 101.328 132.436V137H100.376V129.58H101.328V130.504C101.72 129.804 102.378 129.468 103.036 129.468Z" fill="#2A2859"/>
<path fill-rule="evenodd" clip-rule="evenodd" d="M122.945 134.92L117.505 129.625L116.758 130.353L122.945 136.375L129.133 130.353L128.385 129.625L122.945 134.92Z" fill="#2A2859"/>
<rect x="54.9453" y="152" width="398" height="46" fill="white"/>
<path d="M80.1333 167.68H81.4653L76.5873 181H75.3273L70.4853 167.68H71.8533L75.9753 179.542L80.1333 167.68ZM88.6023 178.3L89.5023 178.804C89.0523 179.956 87.8643 181.144 85.7403 181.144C83.0583 181.144 81.4743 179.146 81.4743 176.104C81.4743 173.314 83.1303 171.316 85.6143 171.316C87.6663 171.316 89.4303 172.792 89.4303 175.384L89.3943 176.446H82.7163C82.8243 178.984 84.0303 180.064 85.8663 180.064C87.3063 180.064 88.1523 179.236 88.6023 178.3ZM85.6143 172.396C84.1743 172.396 82.8783 173.17 82.7163 175.438H88.2243C88.2783 173.296 87.0183 172.396 85.6143 172.396ZM94.8059 180.964C94.5179 181.036 94.2839 181.072 94.0139 181.072C92.5199 181.072 91.8179 180.136 91.8179 178.732V167.68H93.0419V178.732C93.0419 179.542 93.4739 179.956 94.2299 179.956C94.4279 179.956 94.6259 179.938 94.8059 179.884V180.964ZM105.055 172.468H103.003V172.81C103.471 173.386 103.723 174.106 103.723 174.808C103.723 176.554 102.463 178.336 99.7811 178.336H99.3671C98.2871 178.336 97.5131 178.75 97.5131 179.38C97.5131 179.866 97.8911 180.208 98.6831 180.208H102.553C104.101 180.208 104.893 180.964 104.893 182.152C104.893 184.042 102.715 185.032 100.033 185.032C97.6211 185.032 95.9471 184.258 95.3711 182.584L96.3611 182.134C97.0271 183.7 98.4311 184.006 100.033 184.006C102.013 184.006 103.669 183.412 103.669 182.26C103.669 181.72 103.381 181.324 102.517 181.324H98.4131C97.0811 181.324 96.2891 180.694 96.2891 179.704C96.2891 178.858 96.9911 178.12 98.1611 177.814C96.9011 177.31 96.1991 175.978 96.1991 174.808C96.1991 173.098 97.4771 171.316 99.9971 171.316C100.987 171.316 101.743 171.64 102.319 172.126V171.46H105.055V172.468ZM99.9791 177.328C101.671 177.328 102.517 176.158 102.517 174.808C102.517 173.476 101.671 172.36 99.9791 172.36C98.2691 172.36 97.4051 173.494 97.4051 174.808C97.4051 176.14 98.2691 177.328 99.9791 177.328Z" fill="#2A2859"/>
<path fill-rule="evenodd" clip-rule="evenodd" d="M425.945 177.56L418.692 170.5L417.695 171.47L425.945 179.5L434.195 171.47L433.199 170.5L425.945 177.56Z" fill="#2A2859"/>
<rect x="54.9453" y="152" width="398" height="46" stroke="#2A2859" stroke-width="2"/>
<path d="M511.755 91.68H513.771V105H511.935L505.527 95.442V105H503.511V91.68H505.509L511.755 101.058V91.68ZM523.15 101.994L524.518 102.786C523.978 103.974 522.718 105.162 520.54 105.162C517.714 105.162 516.004 103.074 516.004 100.14C516.004 97.242 517.858 95.244 520.396 95.244C522.646 95.244 524.5 96.756 524.5 99.456L524.464 100.644H517.984C518.092 102.66 519.082 103.524 520.666 103.524C521.836 103.524 522.646 102.894 523.15 101.994ZM520.396 96.828C519.172 96.828 518.146 97.476 517.984 99.204H522.538C522.556 97.512 521.512 96.828 520.396 96.828ZM533.141 91.68H535.157V105H533.141V103.272C532.403 104.604 531.251 105.144 530.153 105.144C527.849 105.144 526.193 103.164 526.193 100.266C526.193 97.26 527.867 95.262 530.387 95.262C531.467 95.262 532.547 95.748 533.141 96.918V91.68ZM530.693 103.38C532.151 103.38 533.141 102.39 533.141 100.158C533.141 97.944 532.169 96.882 530.693 96.882C529.307 96.882 528.281 97.998 528.281 100.158C528.281 102.3 529.307 103.38 530.693 103.38ZM540.501 102.048C540.501 103.11 541.149 103.434 541.815 103.434C542.337 103.434 542.751 103.218 543.165 102.804L544.029 104.1C543.309 104.82 542.517 105.162 541.491 105.162C539.835 105.162 538.485 104.154 538.485 102.174V97.026H536.811V95.46H538.485V93.336L540.501 92.418V95.46H543.867V97.026H540.501V102.048ZM550.149 95.244C551.535 95.244 552.435 96.162 552.435 97.8V99.06L550.815 99.348V98.376C550.815 97.512 550.509 96.918 549.573 96.918C548.547 96.918 547.791 97.602 547.791 99.42V105H545.775V95.46H547.791V96.738C548.331 95.676 549.321 95.244 550.149 95.244ZM560.565 101.994L561.933 102.786C561.393 103.974 560.133 105.162 557.955 105.162C555.129 105.162 553.419 103.074 553.419 100.14C553.419 97.242 555.273 95.244 557.811 95.244C560.061 95.244 561.915 96.756 561.915 99.456L561.879 100.644H555.399C555.507 102.66 556.497 103.524 558.081 103.524C559.251 103.524 560.061 102.894 560.565 101.994ZM557.811 96.828C556.587 96.828 555.561 97.476 555.399 99.204H559.953C559.971 97.512 558.927 96.828 557.811 96.828ZM570.213 105L567.315 100.626L566.217 101.706V105H564.201V91.68H566.217V99.42L570.069 95.46H572.553L568.647 99.312L572.625 105H570.213ZM580.402 105L577.504 100.626L576.406 101.706V105H574.39V91.68H576.406V99.42L580.258 95.46H582.742L578.836 99.312L582.814 105H580.402Z" fill="#2A2859"/>
<rect width="83" height="22" transform="translate(591.945 88)" fill="#F8F0DD"/>
<path d="M605.269 93.64H606.221V104H605.241V95.362L601.909 100.542H601.489L598.157 95.362V104H597.177V93.64H598.129L601.699 99.184L605.269 93.64ZM611.307 95.796C610.397 95.796 609.655 95.124 609.655 94.2C609.655 93.276 610.397 92.604 611.307 92.604C612.217 92.604 612.959 93.276 612.959 94.2C612.959 95.124 612.217 95.796 611.307 95.796ZM611.307 93.248C610.775 93.248 610.355 93.584 610.355 94.2C610.355 94.83 610.775 95.152 611.307 95.152C611.839 95.152 612.259 94.83 612.259 94.2C612.259 93.584 611.839 93.248 611.307 93.248ZM614.191 104H613.323C613.211 103.594 613.127 103.104 613.127 102.544C612.749 103.412 611.783 104.112 610.579 104.112C609.263 104.112 608.269 103.258 608.269 101.984C608.269 100.458 609.641 99.66 611.167 99.66C611.769 99.66 612.357 99.73 612.959 99.94V98.96C612.959 97.994 612.371 97.336 611.223 97.336C610.299 97.336 609.515 97.742 609.123 98.876L608.283 98.624C608.843 97.056 609.977 96.468 611.279 96.468C613.113 96.468 613.883 97.574 613.883 98.848V101.9C613.883 102.74 614.023 103.496 614.191 104ZM612.959 100.92V100.752C612.385 100.514 611.797 100.444 611.223 100.444C610.103 100.444 609.221 100.948 609.221 101.928C609.221 102.824 609.851 103.3 610.747 103.3C611.713 103.3 612.959 102.726 612.959 100.92ZM621.356 95.544V96.58H623.428V97.364H621.356V104H620.404V97.364H619.004V96.58H620.404V95.544C620.404 94.256 621.244 93.528 622.392 93.528C622.924 93.528 623.54 93.738 623.89 94.298L623.316 94.872C623.092 94.536 622.756 94.34 622.364 94.34C621.874 94.34 621.356 94.634 621.356 95.544ZM629.366 96.58H630.346L627.084 105.022C626.594 106.282 626.048 107.08 624.9 107.08C624.396 107.08 623.934 106.898 623.584 106.576L624.004 105.89C624.284 106.142 624.55 106.254 624.872 106.254C625.39 106.254 625.754 106.03 626.118 105.176L626.552 104.126L623.766 96.58H624.802L627.042 103.006L629.366 96.58ZM634.077 103.972C633.853 104.028 633.671 104.056 633.461 104.056C632.299 104.056 631.753 103.328 631.753 102.236V93.64H632.705V102.236C632.705 102.866 633.041 103.188 633.629 103.188C633.783 103.188 633.937 103.174 634.077 103.132V103.972ZM638.137 103.972C637.913 104.028 637.731 104.056 637.521 104.056C636.359 104.056 635.813 103.328 635.813 102.236V93.64H636.765V102.236C636.765 102.866 637.101 103.188 637.689 103.188C637.843 103.188 637.997 103.174 638.137 103.132V103.972ZM644.723 101.9L645.423 102.292C645.073 103.188 644.149 104.112 642.497 104.112C640.411 104.112 639.179 102.558 639.179 100.192C639.179 98.022 640.467 96.468 642.399 96.468C643.995 96.468 645.367 97.616 645.367 99.632L645.339 100.458H640.145C640.229 102.432 641.167 103.272 642.595 103.272C643.715 103.272 644.373 102.628 644.723 101.9ZM642.399 97.308C641.279 97.308 640.271 97.91 640.145 99.674H644.429C644.471 98.008 643.491 97.308 642.399 97.308ZM647.016 98.512C647.016 97.336 648.122 96.468 649.676 96.468C651.02 96.468 652.056 97.112 652.364 98.092L651.58 98.4C651.286 97.686 650.6 97.308 649.648 97.308C648.612 97.308 647.94 97.742 647.94 98.428C647.94 99.044 648.346 99.422 649.228 99.604L650.208 99.8C651.832 100.122 652.588 100.822 652.588 101.928C652.588 103.216 651.44 104.112 649.788 104.112C648.29 104.112 647.24 103.524 646.736 102.404L647.548 102.068C647.898 102.852 648.668 103.272 649.76 103.272C650.908 103.272 651.664 102.768 651.664 102.012C651.664 101.312 651.272 100.934 650.292 100.724L649.088 100.472C647.73 100.192 647.016 99.506 647.016 98.512ZM662.356 96.58H663.308V104H662.356V102.866C661.908 103.664 661.124 104.112 660.214 104.112C658.758 104.112 657.876 103.174 657.876 101.564V96.58H658.828V101.48C658.828 102.698 659.444 103.258 660.48 103.258C661.796 103.258 662.356 102.208 662.356 100.752V96.58ZM667.143 102.152C667.143 103.02 667.661 103.272 668.123 103.272C668.571 103.272 668.865 103.104 669.215 102.74L669.719 103.3C669.229 103.874 668.697 104.112 668.039 104.112C667.031 104.112 666.191 103.44 666.191 102.124V97.364H664.791V96.58H666.191V94.984L667.143 94.424V96.58H669.551V97.364H667.143V102.152Z" fill="#2A2859"/>
<path d="M503.177 137V126.64H506.565C509.127 126.64 511.101 128.642 511.101 131.764C511.101 134.886 509.127 137 506.565 137H503.177ZM504.157 136.104H506.369C508.525 136.104 510.093 134.648 510.093 131.764C510.093 128.908 508.511 127.536 506.341 127.536H504.157V136.104ZM518.075 134.9L518.775 135.292C518.425 136.188 517.501 137.112 515.849 137.112C513.763 137.112 512.531 135.558 512.531 133.192C512.531 131.022 513.819 129.468 515.751 129.468C517.347 129.468 518.719 130.616 518.719 132.632L518.691 133.458H513.497C513.581 135.432 514.519 136.272 515.947 136.272C517.067 136.272 517.725 135.628 518.075 134.9ZM515.751 130.308C514.631 130.308 513.623 130.91 513.497 132.674H517.781C517.823 131.008 516.843 130.308 515.751 130.308ZM522.079 135.152C522.079 136.02 522.597 136.272 523.059 136.272C523.507 136.272 523.801 136.104 524.151 135.74L524.655 136.3C524.165 136.874 523.633 137.112 522.975 137.112C521.967 137.112 521.127 136.44 521.127 135.124V130.364H519.727V129.58H521.127V127.984L522.079 127.424V129.58H524.487V130.364H522.079V135.152ZM527.493 135.152C527.493 136.02 528.011 136.272 528.473 136.272C528.921 136.272 529.215 136.104 529.565 135.74L530.069 136.3C529.579 136.874 529.047 137.112 528.389 137.112C527.381 137.112 526.541 136.44 526.541 135.124V130.364H525.141V129.58H526.541V127.984L527.493 127.424V129.58H529.901V130.364H527.493V135.152ZM536.34 134.9L537.04 135.292C536.69 136.188 535.766 137.112 534.114 137.112C532.028 137.112 530.796 135.558 530.796 133.192C530.796 131.022 532.084 129.468 534.016 129.468C535.612 129.468 536.984 130.616 536.984 132.632L536.956 133.458H531.762C531.846 135.432 532.784 136.272 534.212 136.272C535.332 136.272 535.99 135.628 536.34 134.9ZM534.016 130.308C532.896 130.308 531.888 130.91 531.762 132.674H536.046C536.088 131.008 535.108 130.308 534.016 130.308ZM547.647 134.9L548.347 135.292C547.997 136.188 547.073 137.112 545.421 137.112C543.335 137.112 542.103 135.558 542.103 133.192C542.103 131.022 543.391 129.468 545.323 129.468C546.919 129.468 548.291 130.616 548.291 132.632L548.263 133.458H543.069C543.153 135.432 544.091 136.272 545.519 136.272C546.639 136.272 547.297 135.628 547.647 134.9ZM545.323 130.308C544.203 130.308 543.195 130.91 543.069 132.674H547.353C547.395 131.008 546.415 130.308 545.323 130.308ZM552.964 129.468C553.93 129.468 554.63 130.112 554.63 131.372V132.1L553.762 132.268V131.54C553.762 130.798 553.51 130.308 552.754 130.308C551.9 130.308 551.256 130.938 551.256 132.436V137H550.304V129.58H551.256V130.504C551.648 129.804 552.306 129.468 552.964 129.468ZM561.577 135.152C561.577 136.02 562.095 136.272 562.557 136.272C563.005 136.272 563.299 136.104 563.649 135.74L564.153 136.3C563.663 136.874 563.131 137.112 562.473 137.112C561.465 137.112 560.625 136.44 560.625 135.124V130.364H559.225V129.58H560.625V127.984L561.577 127.424V129.58H563.985V130.364H561.577V135.152ZM570.424 134.9L571.124 135.292C570.774 136.188 569.85 137.112 568.198 137.112C566.112 137.112 564.88 135.558 564.88 133.192C564.88 131.022 566.168 129.468 568.1 129.468C569.696 129.468 571.068 130.616 571.068 132.632L571.04 133.458H565.846C565.93 135.432 566.868 136.272 568.296 136.272C569.416 136.272 570.074 135.628 570.424 134.9ZM568.1 130.308C566.98 130.308 565.972 130.91 565.846 132.674H570.13C570.172 131.008 569.192 130.308 568.1 130.308ZM577.701 137L574.971 133.318L574.061 134.186V137H573.109V126.64H574.061V133.066L577.589 129.58H578.849L575.615 132.688L578.905 137H577.701ZM579.717 131.512C579.717 130.336 580.823 129.468 582.377 129.468C583.721 129.468 584.757 130.112 585.065 131.092L584.281 131.4C583.987 130.686 583.301 130.308 582.349 130.308C581.313 130.308 580.641 130.742 580.641 131.428C580.641 132.044 581.047 132.422 581.929 132.604L582.909 132.8C584.533 133.122 585.289 133.822 585.289 134.928C585.289 136.216 584.141 137.112 582.489 137.112C580.991 137.112 579.941 136.524 579.437 135.404L580.249 135.068C580.599 135.852 581.369 136.272 582.461 136.272C583.609 136.272 584.365 135.768 584.365 135.012C584.365 134.312 583.973 133.934 582.993 133.724L581.789 133.472C580.431 133.192 579.717 132.506 579.717 131.512ZM588.51 135.152C588.51 136.02 589.028 136.272 589.49 136.272C589.938 136.272 590.232 136.104 590.582 135.74L591.086 136.3C590.596 136.874 590.064 137.112 589.406 137.112C588.398 137.112 587.558 136.44 587.558 135.124V130.364H586.158V129.58H587.558V127.984L588.51 127.424V129.58H590.918V130.364H588.51V135.152ZM599.124 137.112C597.29 137.112 595.82 135.6 595.82 133.276C595.82 130.98 597.276 129.468 599.124 129.468C600.972 129.468 602.428 130.98 602.428 133.276C602.428 135.6 600.958 137.112 599.124 137.112ZM599.124 136.272C600.398 136.272 601.448 135.264 601.448 133.276C601.448 131.302 600.384 130.308 599.124 130.308C597.864 130.308 596.8 131.302 596.8 133.276C596.8 135.264 597.85 136.272 599.124 136.272ZM608.821 129.58H609.801L606.889 137H606.049L603.137 129.58H604.173L606.497 135.95L608.821 129.58ZM616.047 134.9L616.747 135.292C616.397 136.188 615.473 137.112 613.821 137.112C611.735 137.112 610.503 135.558 610.503 133.192C610.503 131.022 611.791 129.468 613.723 129.468C615.319 129.468 616.691 130.616 616.691 132.632L616.663 133.458H611.469C611.553 135.432 612.491 136.272 613.919 136.272C615.039 136.272 615.697 135.628 616.047 134.9ZM613.723 130.308C612.603 130.308 611.595 130.91 611.469 132.674H615.753C615.795 131.008 614.815 130.308 613.723 130.308ZM621.364 129.468C622.33 129.468 623.03 130.112 623.03 131.372V132.1L622.162 132.268V131.54C622.162 130.798 621.91 130.308 621.154 130.308C620.3 130.308 619.656 130.938 619.656 132.436V137H618.704V129.58H619.656V130.504C620.048 129.804 620.706 129.468 621.364 129.468ZM631.601 129.468C633.085 129.468 633.953 130.378 633.953 132.044V137H633.001V132.184C633.001 130.84 632.385 130.336 631.349 130.336C630.047 130.336 629.445 131.344 629.445 132.828V137H628.493V129.58H629.445V130.728C629.893 129.916 630.705 129.468 631.601 129.468ZM641.313 134.9L642.013 135.292C641.663 136.188 640.739 137.112 639.087 137.112C637.001 137.112 635.769 135.558 635.769 133.192C635.769 131.022 637.057 129.468 638.989 129.468C640.585 129.468 641.957 130.616 641.957 132.632L641.929 133.458H636.735C636.819 135.432 637.757 136.272 639.185 136.272C640.305 136.272 640.963 135.628 641.313 134.9ZM638.989 130.308C637.869 130.308 636.861 130.91 636.735 132.674H641.019C641.061 131.008 640.081 130.308 638.989 130.308ZM649.094 126.64H650.046V137H649.094V135.614C648.604 136.566 647.624 137.098 646.658 137.098C644.768 137.098 643.494 135.516 643.494 133.36C643.494 131.078 644.782 129.468 646.77 129.468C647.806 129.468 648.646 129.986 649.094 130.924V126.64ZM646.756 136.258C648.24 136.258 649.094 135.152 649.094 133.332C649.094 131.4 648.254 130.308 646.77 130.308C645.384 130.308 644.474 131.372 644.474 133.318C644.474 135.194 645.384 136.258 646.756 136.258ZM653.876 135.152C653.876 136.02 654.394 136.272 654.856 136.272C655.303 136.272 655.598 136.104 655.948 135.74L656.452 136.3C655.962 136.874 655.43 137.112 654.772 137.112C653.764 137.112 652.924 136.44 652.924 135.124V130.364H651.524V129.58H652.924V127.984L653.876 127.424V129.58H656.284V130.364H653.876V135.152ZM660.739 129.468C661.705 129.468 662.405 130.112 662.405 131.372V132.1L661.537 132.268V131.54C661.537 130.798 661.285 130.308 660.529 130.308C659.675 130.308 659.031 130.938 659.031 132.436V137H658.079V129.58H659.031V130.504C659.423 129.804 660.081 129.468 660.739 129.468ZM668.93 134.9L669.63 135.292C669.28 136.188 668.356 137.112 666.704 137.112C664.618 137.112 663.386 135.558 663.386 133.192C663.386 131.022 664.674 129.468 666.606 129.468C668.202 129.468 669.574 130.616 669.574 132.632L669.546 133.458H664.352C664.436 135.432 665.374 136.272 666.802 136.272C667.922 136.272 668.58 135.628 668.93 134.9ZM666.606 130.308C665.486 130.308 664.478 130.91 664.352 132.674H668.636C668.678 131.008 667.698 130.308 666.606 130.308ZM676.207 137L673.477 133.318L672.567 134.186V137H671.615V126.64H672.567V133.066L676.095 129.58H677.355L674.121 132.688L677.411 137H676.207ZM683.631 137L680.901 133.318L679.991 134.186V137H679.039V126.64H679.991V133.066L683.519 129.58H684.779L681.545 132.688L684.835 137H683.631ZM685.647 131.512C685.647 130.336 686.753 129.468 688.307 129.468C689.651 129.468 690.687 130.112 690.995 131.092L690.211 131.4C689.917 130.686 689.231 130.308 688.279 130.308C687.243 130.308 686.571 130.742 686.571 131.428C686.571 132.044 686.977 132.422 687.859 132.604L688.839 132.8C690.463 133.122 691.219 133.822 691.219 134.928C691.219 136.216 690.071 137.112 688.419 137.112C686.921 137.112 685.871 136.524 685.367 135.404L686.179 135.068C686.529 135.852 687.299 136.272 688.391 136.272C689.539 136.272 690.295 135.768 690.295 135.012C690.295 134.312 689.903 133.934 688.923 133.724L687.719 133.472C686.361 133.192 685.647 132.506 685.647 131.512ZM694.44 128.544V129.58H696.512V130.364H694.44V137H693.488V130.364H692.088V129.58H693.488V128.544C693.488 127.256 694.328 126.528 695.476 126.528C696.008 126.528 696.624 126.738 696.974 127.298L696.4 127.872C696.176 127.536 695.84 127.34 695.448 127.34C694.958 127.34 694.44 127.634 694.44 128.544ZM702.604 134.9L703.304 135.292C702.954 136.188 702.03 137.112 700.378 137.112C698.292 137.112 697.06 135.558 697.06 133.192C697.06 131.022 698.348 129.468 700.28 129.468C701.876 129.468 703.248 130.616 703.248 132.632L703.22 133.458H698.026C698.11 135.432 699.048 136.272 700.476 136.272C701.596 136.272 702.254 135.628 702.604 134.9ZM700.28 130.308C699.16 130.308 698.152 130.91 698.026 132.674H702.31C702.352 131.008 701.372 130.308 700.28 130.308ZM707.585 136.972C707.361 137.028 707.179 137.056 706.969 137.056C705.807 137.056 705.261 136.328 705.261 135.236V126.64H706.213V135.236C706.213 135.866 706.549 136.188 707.137 136.188C707.291 136.188 707.445 136.174 707.585 136.132V136.972ZM710.668 135.152C710.668 136.02 711.186 136.272 711.648 136.272C712.096 136.272 712.39 136.104 712.74 135.74L713.244 136.3C712.754 136.874 712.222 137.112 711.564 137.112C710.556 137.112 709.716 136.44 709.716 135.124V130.364H708.316V129.58H709.716V127.984L710.668 127.424V129.58H713.076V130.364H710.668V135.152ZM719.516 134.9L720.216 135.292C719.866 136.188 718.942 137.112 717.29 137.112C715.204 137.112 713.972 135.558 713.972 133.192C713.972 131.022 715.26 129.468 717.192 129.468C718.788 129.468 720.16 130.616 720.16 132.632L720.132 133.458H714.938C715.022 135.432 715.96 136.272 717.388 136.272C718.508 136.272 719.166 135.628 719.516 134.9ZM717.192 130.308C716.072 130.308 715.064 130.91 714.938 132.674H719.222C719.264 131.008 718.284 130.308 717.192 130.308ZM723.52 135.152C723.52 136.02 724.038 136.272 724.5 136.272C724.948 136.272 725.242 136.104 725.592 135.74L726.096 136.3C725.606 136.874 725.074 137.112 724.416 137.112C723.408 137.112 722.568 136.44 722.568 135.124V130.364H721.168V129.58H722.568V127.984L723.52 127.424V129.58H725.928V130.364H723.52V135.152ZM728.424 137.084C727.92 137.084 727.528 136.706 727.528 136.188C727.528 135.67 727.92 135.292 728.424 135.292C728.928 135.292 729.32 135.67 729.32 136.188C729.32 136.706 728.928 137.084 728.424 137.084Z" fill="#2A2859"/>
<rect x="502.945" y="152" width="398" height="46" fill="white"/>
<path d="M528.133 167.68H529.465L524.587 181H523.327L518.485 167.68H519.853L523.975 179.542L528.133 167.68ZM536.602 178.3L537.502 178.804C537.052 179.956 535.864 181.144 533.74 181.144C531.058 181.144 529.474 179.146 529.474 176.104C529.474 173.314 531.13 171.316 533.614 171.316C535.666 171.316 537.43 172.792 537.43 175.384L537.394 176.446H530.716C530.824 178.984 532.03 180.064 533.866 180.064C535.306 180.064 536.152 179.236 536.602 178.3ZM533.614 172.396C532.174 172.396 530.878 173.17 530.716 175.438H536.224C536.278 173.296 535.018 172.396 533.614 172.396ZM542.806 180.964C542.518 181.036 542.284 181.072 542.014 181.072C540.52 181.072 539.818 180.136 539.818 178.732V167.68H541.042V178.732C541.042 179.542 541.474 179.956 542.23 179.956C542.428 179.956 542.626 179.938 542.806 179.884V180.964ZM553.055 172.468H551.003V172.81C551.471 173.386 551.723 174.106 551.723 174.808C551.723 176.554 550.463 178.336 547.781 178.336H547.367C546.287 178.336 545.513 178.75 545.513 179.38C545.513 179.866 545.891 180.208 546.683 180.208H550.553C552.101 180.208 552.893 180.964 552.893 182.152C552.893 184.042 550.715 185.032 548.033 185.032C545.621 185.032 543.947 184.258 543.371 182.584L544.361 182.134C545.027 183.7 546.431 184.006 548.033 184.006C550.013 184.006 551.669 183.412 551.669 182.26C551.669 181.72 551.381 181.324 550.517 181.324H546.413C545.081 181.324 544.289 180.694 544.289 179.704C544.289 178.858 544.991 178.12 546.161 177.814C544.901 177.31 544.199 175.978 544.199 174.808C544.199 173.098 545.477 171.316 547.997 171.316C548.987 171.316 549.743 171.64 550.319 172.126V171.46H553.055V172.468ZM547.979 177.328C549.671 177.328 550.517 176.158 550.517 174.808C550.517 173.476 549.671 172.36 547.979 172.36C546.269 172.36 545.405 173.494 545.405 174.808C545.405 176.14 546.269 177.328 547.979 177.328Z" fill="#2A2859"/>
<path fill-rule="evenodd" clip-rule="evenodd" d="M873.945 177.56L866.692 170.5L865.695 171.47L873.945 179.5L882.195 171.47L881.199 170.5L873.945 177.56Z" fill="#2A2859"/>
<rect x="502.945" y="152" width="398" height="46" stroke="#2A2859" stroke-width="2"/>
<rect x="949.945" y="125" width="401" height="257" fill="url(#paint0_radial_5559_1056)"/>
<path d="M959.865 91.68H961.881V105H960.045L953.637 95.442V105H951.621V91.68H953.619L959.865 101.058V91.68ZM971.259 101.994L972.627 102.786C972.087 103.974 970.827 105.162 968.649 105.162C965.823 105.162 964.113 103.074 964.113 100.14C964.113 97.242 965.967 95.244 968.505 95.244C970.755 95.244 972.609 96.756 972.609 99.456L972.573 100.644H966.093C966.201 102.66 967.191 103.524 968.775 103.524C969.945 103.524 970.755 102.894 971.259 101.994ZM968.505 96.828C967.281 96.828 966.255 97.476 966.093 99.204H970.647C970.665 97.512 969.621 96.828 968.505 96.828ZM981.25 91.68H983.266V105H981.25V103.272C980.512 104.604 979.36 105.144 978.262 105.144C975.958 105.144 974.302 103.164 974.302 100.266C974.302 97.26 975.976 95.262 978.496 95.262C979.576 95.262 980.656 95.748 981.25 96.918V91.68ZM978.802 103.38C980.26 103.38 981.25 102.39 981.25 100.158C981.25 97.944 980.278 96.882 978.802 96.882C977.416 96.882 976.39 97.998 976.39 100.158C976.39 102.3 977.416 103.38 978.802 103.38ZM988.611 102.048C988.611 103.11 989.259 103.434 989.925 103.434C990.447 103.434 990.861 103.218 991.275 102.804L992.139 104.1C991.419 104.82 990.627 105.162 989.601 105.162C987.945 105.162 986.595 104.154 986.595 102.174V97.026H984.921V95.46H986.595V93.336L988.611 92.418V95.46H991.977V97.026H988.611V102.048ZM998.259 95.244C999.645 95.244 1000.54 96.162 1000.54 97.8V99.06L998.925 99.348V98.376C998.925 97.512 998.619 96.918 997.683 96.918C996.657 96.918 995.901 97.602 995.901 99.42V105H993.885V95.46H995.901V96.738C996.441 95.676 997.431 95.244 998.259 95.244ZM1008.67 101.994L1010.04 102.786C1009.5 103.974 1008.24 105.162 1006.06 105.162C1003.24 105.162 1001.53 103.074 1001.53 100.14C1001.53 97.242 1003.38 95.244 1005.92 95.244C1008.17 95.244 1010.02 96.756 1010.02 99.456L1009.99 100.644H1003.51C1003.62 102.66 1004.61 103.524 1006.19 103.524C1007.36 103.524 1008.17 102.894 1008.67 101.994ZM1005.92 96.828C1004.7 96.828 1003.67 97.476 1003.51 99.204H1008.06C1008.08 97.512 1007.04 96.828 1005.92 96.828ZM1018.32 105L1015.42 100.626L1014.33 101.706V105H1012.31V91.68H1014.33V99.42L1018.18 95.46H1020.66L1016.76 99.312L1020.73 105H1018.32ZM1028.51 105L1025.61 100.626L1024.52 101.706V105H1022.5V91.68H1024.52V99.42L1028.37 95.46H1030.85L1026.95 99.312L1030.92 105H1028.51Z" fill="#2A2859"/>
<rect width="62" height="22" transform="translate(1040.05 88)" fill="#E5FCFF"/>
<path d="M1051.98 93.64H1053.01L1049.22 104H1048.24L1044.47 93.64H1045.54L1048.74 102.866L1051.98 93.64ZM1059.05 104H1058.18C1058.07 103.594 1057.98 103.104 1057.98 102.544C1057.6 103.412 1056.64 104.112 1055.43 104.112C1054.12 104.112 1053.12 103.258 1053.12 101.984C1053.12 100.458 1054.5 99.66 1056.02 99.66C1056.62 99.66 1057.21 99.73 1057.81 99.94V98.96C1057.81 97.994 1057.23 97.336 1056.08 97.336C1055.15 97.336 1054.37 97.742 1053.98 98.876L1053.14 98.624C1053.7 97.056 1054.83 96.468 1056.13 96.468C1057.97 96.468 1058.74 97.574 1058.74 98.848V101.9C1058.74 102.74 1058.88 103.496 1059.05 104ZM1057.81 100.92V100.752C1057.24 100.514 1056.65 100.444 1056.08 100.444C1054.96 100.444 1054.08 100.948 1054.08 101.928C1054.08 102.824 1054.71 103.3 1055.6 103.3C1056.57 103.3 1057.81 102.726 1057.81 100.92ZM1063.47 103.972C1063.25 104.028 1063.06 104.056 1062.85 104.056C1061.69 104.056 1061.15 103.328 1061.15 102.236V93.64H1062.1V102.236C1062.1 102.866 1062.43 103.188 1063.02 103.188C1063.18 103.188 1063.33 103.174 1063.47 103.132V103.972ZM1071.6 97.364H1070V97.63C1070.36 98.078 1070.56 98.638 1070.56 99.184C1070.56 100.542 1069.58 101.928 1067.49 101.928H1067.17C1066.33 101.928 1065.73 102.25 1065.73 102.74C1065.73 103.118 1066.02 103.384 1066.64 103.384H1069.65C1070.85 103.384 1071.47 103.972 1071.47 104.896C1071.47 106.366 1069.78 107.136 1067.69 107.136C1065.81 107.136 1064.51 106.534 1064.06 105.232L1064.83 104.882C1065.35 106.1 1066.44 106.338 1067.69 106.338C1069.23 106.338 1070.52 105.876 1070.52 104.98C1070.52 104.56 1070.29 104.252 1069.62 104.252H1066.43C1065.39 104.252 1064.78 103.762 1064.78 102.992C1064.78 102.334 1065.32 101.76 1066.23 101.522C1065.25 101.13 1064.71 100.094 1064.71 99.184C1064.71 97.854 1065.7 96.468 1067.66 96.468C1068.43 96.468 1069.02 96.72 1069.47 97.098V96.58H1071.6V97.364ZM1067.65 101.144C1068.96 101.144 1069.62 100.234 1069.62 99.184C1069.62 98.148 1068.96 97.28 1067.65 97.28C1066.32 97.28 1065.65 98.162 1065.65 99.184C1065.65 100.22 1066.32 101.144 1067.65 101.144ZM1074.29 95.544V96.58H1076.36V97.364H1074.29V104H1073.34V97.364H1071.94V96.58H1073.34V95.544C1073.34 94.256 1074.18 93.528 1075.33 93.528C1075.86 93.528 1076.48 93.738 1076.83 94.298L1076.25 94.872C1076.03 94.536 1075.69 94.34 1075.3 94.34C1074.81 94.34 1074.29 94.634 1074.29 95.544ZM1080.47 96.468C1081.44 96.468 1082.14 97.112 1082.14 98.372V99.1L1081.27 99.268V98.54C1081.27 97.798 1081.02 97.308 1080.26 97.308C1079.41 97.308 1078.76 97.938 1078.76 99.436V104H1077.81V96.58H1078.76V97.504C1079.16 96.804 1079.81 96.468 1080.47 96.468ZM1084.49 95.236C1084.03 95.236 1083.65 94.872 1083.65 94.396C1083.65 93.92 1084.03 93.556 1084.49 93.556C1084.96 93.556 1085.33 93.92 1085.33 94.396C1085.33 94.872 1084.96 95.236 1084.49 95.236ZM1084.02 104V96.58H1084.97V104H1084.02ZM1088.87 102.152C1088.87 103.02 1089.38 103.272 1089.85 103.272C1090.29 103.272 1090.59 103.104 1090.94 102.74L1091.44 103.3C1090.95 103.874 1090.42 104.112 1089.76 104.112C1088.75 104.112 1087.91 103.44 1087.91 102.124V97.364H1086.51V96.58H1087.91V94.984L1088.87 94.424V96.58H1091.27V97.364H1088.87V102.152ZM1094.28 102.152C1094.28 103.02 1094.8 103.272 1095.26 103.272C1095.71 103.272 1096 103.104 1096.35 102.74L1096.86 103.3C1096.37 103.874 1095.83 104.112 1095.18 104.112C1094.17 104.112 1093.33 103.44 1093.33 102.124V97.364H1091.93V96.58H1093.33V94.984L1094.28 94.424V96.58H1096.69V97.364H1094.28V102.152Z" fill="#2A2859"/>
<path d="M951.287 137V126.64H954.675C957.237 126.64 959.211 128.642 959.211 131.764C959.211 134.886 957.237 137 954.675 137H951.287ZM952.267 136.104H954.479C956.635 136.104 958.203 134.648 958.203 131.764C958.203 128.908 956.621 127.536 954.451 127.536H952.267V136.104ZM966.184 134.9L966.884 135.292C966.534 136.188 965.61 137.112 963.958 137.112C961.872 137.112 960.64 135.558 960.64 133.192C960.64 131.022 961.928 129.468 963.86 129.468C965.456 129.468 966.828 130.616 966.828 132.632L966.8 133.458H961.606C961.69 135.432 962.628 136.272 964.056 136.272C965.176 136.272 965.834 135.628 966.184 134.9ZM963.86 130.308C962.74 130.308 961.732 130.91 961.606 132.674H965.89C965.932 131.008 964.952 130.308 963.86 130.308ZM970.188 135.152C970.188 136.02 970.706 136.272 971.168 136.272C971.616 136.272 971.91 136.104 972.26 135.74L972.764 136.3C972.274 136.874 971.742 137.112 971.084 137.112C970.076 137.112 969.236 136.44 969.236 135.124V130.364H967.836V129.58H969.236V127.984L970.188 127.424V129.58H972.596V130.364H970.188V135.152ZM975.602 135.152C975.602 136.02 976.12 136.272 976.582 136.272C977.03 136.272 977.324 136.104 977.674 135.74L978.178 136.3C977.688 136.874 977.156 137.112 976.498 137.112C975.49 137.112 974.65 136.44 974.65 135.124V130.364H973.25V129.58H974.65V127.984L975.602 127.424V129.58H978.01V130.364H975.602V135.152ZM984.45 134.9L985.15 135.292C984.8 136.188 983.876 137.112 982.224 137.112C980.138 137.112 978.906 135.558 978.906 133.192C978.906 131.022 980.194 129.468 982.126 129.468C983.722 129.468 985.094 130.616 985.094 132.632L985.066 133.458H979.872C979.956 135.432 980.894 136.272 982.322 136.272C983.442 136.272 984.1 135.628 984.45 134.9ZM982.126 130.308C981.006 130.308 979.998 130.91 979.872 132.674H984.156C984.198 131.008 983.218 130.308 982.126 130.308ZM995.756 134.9L996.456 135.292C996.106 136.188 995.182 137.112 993.53 137.112C991.444 137.112 990.212 135.558 990.212 133.192C990.212 131.022 991.5 129.468 993.432 129.468C995.028 129.468 996.4 130.616 996.4 132.632L996.372 133.458H991.178C991.262 135.432 992.2 136.272 993.628 136.272C994.748 136.272 995.406 135.628 995.756 134.9ZM993.432 130.308C992.312 130.308 991.304 130.91 991.178 132.674H995.462C995.504 131.008 994.524 130.308 993.432 130.308ZM1001.07 129.468C1002.04 129.468 1002.74 130.112 1002.74 131.372V132.1L1001.87 132.268V131.54C1001.87 130.798 1001.62 130.308 1000.86 130.308C1000.01 130.308 999.365 130.938 999.365 132.436V137H998.413V129.58H999.365V130.504C999.757 129.804 1000.41 129.468 1001.07 129.468ZM1009.69 135.152C1009.69 136.02 1010.2 136.272 1010.67 136.272C1011.11 136.272 1011.41 136.104 1011.76 135.74L1012.26 136.3C1011.77 136.874 1011.24 137.112 1010.58 137.112C1009.57 137.112 1008.73 136.44 1008.73 135.124V130.364H1007.33V129.58H1008.73V127.984L1009.69 127.424V129.58H1012.09V130.364H1009.69V135.152ZM1018.53 134.9L1019.23 135.292C1018.88 136.188 1017.96 137.112 1016.31 137.112C1014.22 137.112 1012.99 135.558 1012.99 133.192C1012.99 131.022 1014.28 129.468 1016.21 129.468C1017.81 129.468 1019.18 130.616 1019.18 132.632L1019.15 133.458H1013.96C1014.04 135.432 1014.98 136.272 1016.41 136.272C1017.53 136.272 1018.18 135.628 1018.53 134.9ZM1016.21 130.308C1015.09 130.308 1014.08 130.91 1013.96 132.674H1018.24C1018.28 131.008 1017.3 130.308 1016.21 130.308ZM1025.81 137L1023.08 133.318L1022.17 134.186V137H1021.22V126.64H1022.17V133.066L1025.7 129.58H1026.96L1023.72 132.688L1027.01 137H1025.81ZM1027.83 131.512C1027.83 130.336 1028.93 129.468 1030.49 129.468C1031.83 129.468 1032.87 130.112 1033.17 131.092L1032.39 131.4C1032.1 130.686 1031.41 130.308 1030.46 130.308C1029.42 130.308 1028.75 130.742 1028.75 131.428C1028.75 132.044 1029.16 132.422 1030.04 132.604L1031.02 132.8C1032.64 133.122 1033.4 133.822 1033.4 134.928C1033.4 136.216 1032.25 137.112 1030.6 137.112C1029.1 137.112 1028.05 136.524 1027.55 135.404L1028.36 135.068C1028.71 135.852 1029.48 136.272 1030.57 136.272C1031.72 136.272 1032.47 135.768 1032.47 135.012C1032.47 134.312 1032.08 133.934 1031.1 133.724L1029.9 133.472C1028.54 133.192 1027.83 132.506 1027.83 131.512ZM1036.62 135.152C1036.62 136.02 1037.14 136.272 1037.6 136.272C1038.05 136.272 1038.34 136.104 1038.69 135.74L1039.2 136.3C1038.71 136.874 1038.17 137.112 1037.52 137.112C1036.51 137.112 1035.67 136.44 1035.67 135.124V130.364H1034.27V129.58H1035.67V127.984L1036.62 127.424V129.58H1039.03V130.364H1036.62V135.152ZM1047.23 137.112C1045.4 137.112 1043.93 135.6 1043.93 133.276C1043.93 130.98 1045.39 129.468 1047.23 129.468C1049.08 129.468 1050.54 130.98 1050.54 133.276C1050.54 135.6 1049.07 137.112 1047.23 137.112ZM1047.23 136.272C1048.51 136.272 1049.56 135.264 1049.56 133.276C1049.56 131.302 1048.49 130.308 1047.23 130.308C1045.97 130.308 1044.91 131.302 1044.91 133.276C1044.91 135.264 1045.96 136.272 1047.23 136.272ZM1056.93 129.58H1057.91L1055 137H1054.16L1051.25 129.58H1052.28L1054.61 135.95L1056.93 129.58ZM1064.16 134.9L1064.86 135.292C1064.51 136.188 1063.58 137.112 1061.93 137.112C1059.84 137.112 1058.61 135.558 1058.61 133.192C1058.61 131.022 1059.9 129.468 1061.83 129.468C1063.43 129.468 1064.8 130.616 1064.8 132.632L1064.77 133.458H1059.58C1059.66 135.432 1060.6 136.272 1062.03 136.272C1063.15 136.272 1063.81 135.628 1064.16 134.9ZM1061.83 130.308C1060.71 130.308 1059.7 130.91 1059.58 132.674H1063.86C1063.9 131.008 1062.92 130.308 1061.83 130.308ZM1069.47 129.468C1070.44 129.468 1071.14 130.112 1071.14 131.372V132.1L1070.27 132.268V131.54C1070.27 130.798 1070.02 130.308 1069.26 130.308C1068.41 130.308 1067.77 130.938 1067.77 132.436V137H1066.81V129.58H1067.77V130.504C1068.16 129.804 1068.82 129.468 1069.47 129.468ZM1079.71 129.468C1081.19 129.468 1082.06 130.378 1082.06 132.044V137H1081.11V132.184C1081.11 130.84 1080.49 130.336 1079.46 130.336C1078.16 130.336 1077.55 131.344 1077.55 132.828V137H1076.6V129.58H1077.55V130.728C1078 129.916 1078.81 129.468 1079.71 129.468ZM1089.42 134.9L1090.12 135.292C1089.77 136.188 1088.85 137.112 1087.2 137.112C1085.11 137.112 1083.88 135.558 1083.88 133.192C1083.88 131.022 1085.17 129.468 1087.1 129.468C1088.69 129.468 1090.07 130.616 1090.07 132.632L1090.04 133.458H1084.84C1084.93 135.432 1085.87 136.272 1087.29 136.272C1088.41 136.272 1089.07 135.628 1089.42 134.9ZM1087.1 130.308C1085.98 130.308 1084.97 130.91 1084.84 132.674H1089.13C1089.17 131.008 1088.19 130.308 1087.1 130.308ZM1097.2 126.64H1098.16V137H1097.2V135.614C1096.71 136.566 1095.73 137.098 1094.77 137.098C1092.88 137.098 1091.6 135.516 1091.6 133.36C1091.6 131.078 1092.89 129.468 1094.88 129.468C1095.92 129.468 1096.76 129.986 1097.2 130.924V126.64ZM1094.87 136.258C1096.35 136.258 1097.2 135.152 1097.2 133.332C1097.2 131.4 1096.36 130.308 1094.88 130.308C1093.49 130.308 1092.58 131.372 1092.58 133.318C1092.58 135.194 1093.49 136.258 1094.87 136.258ZM1101.98 135.152C1101.98 136.02 1102.5 136.272 1102.96 136.272C1103.41 136.272 1103.71 136.104 1104.06 135.74L1104.56 136.3C1104.07 136.874 1103.54 137.112 1102.88 137.112C1101.87 137.112 1101.03 136.44 1101.03 135.124V130.364H1099.63V129.58H1101.03V127.984L1101.98 127.424V129.58H1104.39V130.364H1101.98V135.152ZM1108.85 129.468C1109.81 129.468 1110.51 130.112 1110.51 131.372V132.1L1109.65 132.268V131.54C1109.65 130.798 1109.39 130.308 1108.64 130.308C1107.78 130.308 1107.14 130.938 1107.14 132.436V137H1106.19V129.58H1107.14V130.504C1107.53 129.804 1108.19 129.468 1108.85 129.468ZM1117.04 134.9L1117.74 135.292C1117.39 136.188 1116.47 137.112 1114.81 137.112C1112.73 137.112 1111.5 135.558 1111.5 133.192C1111.5 131.022 1112.78 129.468 1114.72 129.468C1116.31 129.468 1117.68 130.616 1117.68 132.632L1117.66 133.458H1112.46C1112.55 135.432 1113.48 136.272 1114.91 136.272C1116.03 136.272 1116.69 135.628 1117.04 134.9ZM1114.72 130.308C1113.6 130.308 1112.59 130.91 1112.46 132.674H1116.75C1116.79 131.008 1115.81 130.308 1114.72 130.308ZM1124.32 137L1121.59 133.318L1120.68 134.186V137H1119.72V126.64H1120.68V133.066L1124.2 129.58H1125.46L1122.23 132.688L1125.52 137H1124.32ZM1131.74 137L1129.01 133.318L1128.1 134.186V137H1127.15V126.64H1128.1V133.066L1131.63 129.58H1132.89L1129.65 132.688L1132.94 137H1131.74ZM1133.76 131.512C1133.76 130.336 1134.86 129.468 1136.42 129.468C1137.76 129.468 1138.8 130.112 1139.1 131.092L1138.32 131.4C1138.03 130.686 1137.34 130.308 1136.39 130.308C1135.35 130.308 1134.68 130.742 1134.68 131.428C1134.68 132.044 1135.09 132.422 1135.97 132.604L1136.95 132.8C1138.57 133.122 1139.33 133.822 1139.33 134.928C1139.33 136.216 1138.18 137.112 1136.53 137.112C1135.03 137.112 1133.98 136.524 1133.48 135.404L1134.29 135.068C1134.64 135.852 1135.41 136.272 1136.5 136.272C1137.65 136.272 1138.4 135.768 1138.4 135.012C1138.4 134.312 1138.01 133.934 1137.03 133.724L1135.83 133.472C1134.47 133.192 1133.76 132.506 1133.76 131.512ZM1142.55 128.544V129.58H1144.62V130.364H1142.55V137H1141.6V130.364H1140.2V129.58H1141.6V128.544C1141.6 127.256 1142.44 126.528 1143.59 126.528C1144.12 126.528 1144.73 126.738 1145.08 127.298L1144.51 127.872C1144.29 127.536 1143.95 127.34 1143.56 127.34C1143.07 127.34 1142.55 127.634 1142.55 128.544ZM1150.71 134.9L1151.41 135.292C1151.06 136.188 1150.14 137.112 1148.49 137.112C1146.4 137.112 1145.17 135.558 1145.17 133.192C1145.17 131.022 1146.46 129.468 1148.39 129.468C1149.99 129.468 1151.36 130.616 1151.36 132.632L1151.33 133.458H1146.14C1146.22 135.432 1147.16 136.272 1148.59 136.272C1149.71 136.272 1150.36 135.628 1150.71 134.9ZM1148.39 130.308C1147.27 130.308 1146.26 130.91 1146.14 132.674H1150.42C1150.46 131.008 1149.48 130.308 1148.39 130.308ZM1155.69 136.972C1155.47 137.028 1155.29 137.056 1155.08 137.056C1153.92 137.056 1153.37 136.328 1153.37 135.236V126.64H1154.32V135.236C1154.32 135.866 1154.66 136.188 1155.25 136.188C1155.4 136.188 1155.55 136.174 1155.69 136.132V136.972ZM1158.78 135.152C1158.78 136.02 1159.3 136.272 1159.76 136.272C1160.21 136.272 1160.5 136.104 1160.85 135.74L1161.35 136.3C1160.86 136.874 1160.33 137.112 1159.67 137.112C1158.67 137.112 1157.83 136.44 1157.83 135.124V130.364H1156.43V129.58H1157.83V127.984L1158.78 127.424V129.58H1161.19V130.364H1158.78V135.152ZM1167.63 134.9L1168.33 135.292C1167.98 136.188 1167.05 137.112 1165.4 137.112C1163.31 137.112 1162.08 135.558 1162.08 133.192C1162.08 131.022 1163.37 129.468 1165.3 129.468C1166.9 129.468 1168.27 130.616 1168.27 132.632L1168.24 133.458H1163.05C1163.13 135.432 1164.07 136.272 1165.5 136.272C1166.62 136.272 1167.28 135.628 1167.63 134.9ZM1165.3 130.308C1164.18 130.308 1163.17 130.91 1163.05 132.674H1167.33C1167.37 131.008 1166.39 130.308 1165.3 130.308ZM1171.63 135.152C1171.63 136.02 1172.15 136.272 1172.61 136.272C1173.06 136.272 1173.35 136.104 1173.7 135.74L1174.21 136.3C1173.72 136.874 1173.18 137.112 1172.53 137.112C1171.52 137.112 1170.68 136.44 1170.68 135.124V130.364H1169.28V129.58H1170.68V127.984L1171.63 127.424V129.58H1174.04V130.364H1171.63V135.152ZM1176.53 137.084C1176.03 137.084 1175.64 136.706 1175.64 136.188C1175.64 135.67 1176.03 135.292 1176.53 135.292C1177.04 135.292 1177.43 135.67 1177.43 136.188C1177.43 136.706 1177.04 137.084 1176.53 137.084Z" fill="#2A2859"/>
<rect x="952.055" y="153" width="397" height="44" fill="white"/>
<path d="M976.243 167.68H977.575L972.697 181H971.437L966.595 167.68H967.963L972.085 179.542L976.243 167.68ZM984.712 178.3L985.612 178.804C985.162 179.956 983.974 181.144 981.85 181.144C979.168 181.144 977.584 179.146 977.584 176.104C977.584 173.314 979.24 171.316 981.724 171.316C983.776 171.316 985.54 172.792 985.54 175.384L985.504 176.446H978.826C978.934 178.984 980.14 180.064 981.976 180.064C983.416 180.064 984.262 179.236 984.712 178.3ZM981.724 172.396C980.284 172.396 978.988 173.17 978.826 175.438H984.334C984.388 173.296 983.128 172.396 981.724 172.396ZM990.915 180.964C990.627 181.036 990.393 181.072 990.123 181.072C988.629 181.072 987.927 180.136 987.927 178.732V167.68H989.151V178.732C989.151 179.542 989.583 179.956 990.339 179.956C990.537 179.956 990.735 179.938 990.915 179.884V180.964ZM1001.16 172.468H999.112V172.81C999.58 173.386 999.832 174.106 999.832 174.808C999.832 176.554 998.572 178.336 995.89 178.336H995.476C994.396 178.336 993.622 178.75 993.622 179.38C993.622 179.866 994 180.208 994.792 180.208H998.662C1000.21 180.208 1001 180.964 1001 182.152C1001 184.042 998.824 185.032 996.142 185.032C993.73 185.032 992.056 184.258 991.48 182.584L992.47 182.134C993.136 183.7 994.54 184.006 996.142 184.006C998.122 184.006 999.778 183.412 999.778 182.26C999.778 181.72 999.49 181.324 998.626 181.324H994.522C993.19 181.324 992.398 180.694 992.398 179.704C992.398 178.858 993.1 178.12 994.27 177.814C993.01 177.31 992.308 175.978 992.308 174.808C992.308 173.098 993.586 171.316 996.106 171.316C997.096 171.316 997.852 171.64 998.428 172.126V171.46H1001.16V172.468ZM996.088 177.328C997.78 177.328 998.626 176.158 998.626 174.808C998.626 173.476 997.78 172.36 996.088 172.36C994.378 172.36 993.514 173.494 993.514 174.808C993.514 176.14 994.378 177.328 996.088 177.328Z" fill="#1F42AA"/>
<path fill-rule="evenodd" clip-rule="evenodd" d="M1323.05 177.56L1315.8 170.5L1314.8 171.47L1323.05 179.5L1331.3 171.47L1330.31 170.5L1323.05 177.56Z" fill="#1F42AA"/>
<rect x="952.055" y="153" width="397" height="44" stroke="#1F42AA" stroke-width="4"/>
<rect x="950.555" y="166.5" width="389" height="199" rx="3.5" fill="#EBEAEA"/>
<rect x="954.055" y="170" width="382" height="24" rx="4" fill="#429EFE"/>
<path d="M962.8 185.656L961.764 184.576L959.68 182.414L960.452 181.59L962.8 184.027L968.248 178.344L969.023 179.16L963.836 184.576L962.8 185.656Z" fill="white"/>
<path d="M976.705 176.818L979.728 185.389H979.847L982.87 176.818H984.163L980.424 187H979.151L975.413 176.818H976.705ZM987.88 187.159C987.144 187.159 986.51 186.997 985.976 186.672C985.446 186.344 985.037 185.886 984.748 185.3C984.463 184.71 984.321 184.024 984.321 183.241C984.321 182.459 984.463 181.77 984.748 181.173C985.037 180.573 985.438 180.106 985.951 179.771C986.468 179.433 987.072 179.264 987.761 179.264C988.159 179.264 988.551 179.33 988.939 179.463C989.327 179.596 989.68 179.811 989.998 180.109C990.316 180.404 990.57 180.795 990.759 181.283C990.948 181.77 991.042 182.37 991.042 183.082V183.58H985.156V182.565H989.849C989.849 182.134 989.763 181.75 989.59 181.412C989.421 181.074 989.179 180.807 988.865 180.612C988.553 180.416 988.185 180.318 987.761 180.318C987.294 180.318 986.889 180.434 986.548 180.666C986.21 180.895 985.95 181.193 985.767 181.561C985.585 181.929 985.494 182.323 985.494 182.744V183.42C985.494 183.997 985.593 184.486 985.792 184.887C985.994 185.285 986.274 185.588 986.632 185.797C986.99 186.002 987.406 186.105 987.88 186.105C988.188 186.105 988.467 186.062 988.715 185.976C988.967 185.886 989.184 185.754 989.367 185.578C989.549 185.399 989.69 185.177 989.789 184.912L990.923 185.23C990.804 185.615 990.603 185.953 990.321 186.244C990.04 186.533 989.692 186.758 989.277 186.92C988.863 187.08 988.397 187.159 987.88 187.159ZM993.8 176.818V187H992.627V176.818H993.8ZM998.832 190.023C998.265 190.023 997.778 189.95 997.37 189.804C996.962 189.661 996.623 189.473 996.351 189.237C996.082 189.005 995.869 188.757 995.709 188.491L996.644 187.835C996.75 187.974 996.884 188.134 997.047 188.312C997.209 188.495 997.431 188.652 997.713 188.785C997.998 188.921 998.371 188.989 998.832 188.989C999.448 188.989 999.957 188.839 1000.36 188.541C1000.76 188.243 1000.96 187.776 1000.96 187.139V185.588H1000.86C1000.77 185.727 1000.65 185.9 1000.49 186.105C1000.34 186.307 1000.11 186.488 999.816 186.647C999.524 186.803 999.13 186.881 998.633 186.881C998.016 186.881 997.463 186.735 996.972 186.443C996.485 186.152 996.099 185.727 995.814 185.17C995.532 184.614 995.391 183.937 995.391 183.142C995.391 182.36 995.529 181.679 995.804 181.099C996.079 180.515 996.462 180.065 996.952 179.746C997.443 179.425 998.01 179.264 998.653 179.264C999.15 179.264 999.544 179.347 999.836 179.513C1000.13 179.675 1000.36 179.861 1000.51 180.07C1000.67 180.275 1000.79 180.444 1000.88 180.577H1001V179.364H1002.13V187.219C1002.13 187.875 1001.98 188.409 1001.69 188.82C1001.39 189.234 1000.99 189.537 1000.49 189.729C999.995 189.925 999.441 190.023 998.832 190.023ZM998.792 185.827C999.263 185.827 999.66 185.719 999.985 185.504C1000.31 185.288 1000.56 184.978 1000.73 184.574C1000.89 184.17 1000.98 183.686 1000.98 183.122C1000.98 182.572 1000.9 182.086 1000.73 181.665C1000.57 181.245 1000.32 180.915 999.995 180.676C999.67 180.437 999.269 180.318 998.792 180.318C998.295 180.318 997.88 180.444 997.549 180.696C997.221 180.948 996.974 181.286 996.808 181.71C996.646 182.134 996.565 182.605 996.565 183.122C996.565 183.652 996.647 184.121 996.813 184.529C996.982 184.933 997.231 185.252 997.559 185.484C997.89 185.712 998.301 185.827 998.792 185.827ZM1010.7 187.159C1010.07 187.159 1009.5 186.998 1009.02 186.677C1008.53 186.352 1008.15 185.895 1007.87 185.305C1007.6 184.711 1007.46 184.01 1007.46 183.202C1007.46 182.4 1007.6 181.704 1007.87 181.114C1008.15 180.524 1008.53 180.068 1009.02 179.746C1009.51 179.425 1010.08 179.264 1010.72 179.264C1011.22 179.264 1011.61 179.347 1011.9 179.513C1012.19 179.675 1012.41 179.861 1012.57 180.07C1012.72 180.275 1012.84 180.444 1012.93 180.577H1013.03V176.818H1014.2V187H1013.07V185.827H1012.93C1012.84 185.966 1012.72 186.142 1012.56 186.354C1012.4 186.562 1012.17 186.75 1011.88 186.915C1011.58 187.078 1011.19 187.159 1010.7 187.159ZM1010.86 186.105C1011.33 186.105 1011.73 185.982 1012.05 185.737C1012.38 185.489 1012.63 185.146 1012.79 184.708C1012.96 184.267 1013.05 183.759 1013.05 183.182C1013.05 182.612 1012.97 182.113 1012.8 181.685C1012.63 181.254 1012.39 180.92 1012.06 180.681C1011.74 180.439 1011.34 180.318 1010.86 180.318C1010.36 180.318 1009.95 180.446 1009.62 180.701C1009.29 180.953 1009.04 181.296 1008.88 181.73C1008.71 182.161 1008.63 182.645 1008.63 183.182C1008.63 183.725 1008.72 184.219 1008.88 184.663C1009.05 185.104 1009.3 185.455 1009.63 185.717C1009.96 185.976 1010.37 186.105 1010.86 186.105ZM1016.31 187V179.364H1017.49V187H1016.31ZM1016.91 178.091C1016.68 178.091 1016.48 178.013 1016.32 177.857C1016.16 177.701 1016.07 177.514 1016.07 177.295C1016.07 177.077 1016.16 176.889 1016.32 176.734C1016.48 176.578 1016.68 176.5 1016.91 176.5C1017.14 176.5 1017.33 176.578 1017.5 176.734C1017.66 176.889 1017.75 177.077 1017.75 177.295C1017.75 177.514 1017.66 177.701 1017.5 177.857C1017.33 178.013 1017.14 178.091 1016.91 178.091ZM1020.61 182.406V187H1019.44V179.364H1020.57V180.557H1020.67C1020.85 180.169 1021.12 179.857 1021.48 179.622C1021.85 179.384 1022.32 179.264 1022.9 179.264C1023.41 179.264 1023.87 179.37 1024.25 179.582C1024.64 179.791 1024.94 180.109 1025.16 180.537C1025.37 180.961 1025.48 181.498 1025.48 182.148V187H1024.31V182.227C1024.31 181.627 1024.15 181.16 1023.84 180.825C1023.53 180.487 1023.1 180.318 1022.56 180.318C1022.18 180.318 1021.85 180.399 1021.55 180.562C1021.26 180.724 1021.03 180.961 1020.86 181.273C1020.69 181.584 1020.61 181.962 1020.61 182.406ZM1031.32 187V176.818H1032.49V180.577H1032.59C1032.68 180.444 1032.8 180.275 1032.95 180.07C1033.11 179.861 1033.33 179.675 1033.62 179.513C1033.91 179.347 1034.3 179.264 1034.8 179.264C1035.44 179.264 1036.01 179.425 1036.5 179.746C1036.99 180.068 1037.38 180.524 1037.65 181.114C1037.93 181.704 1038.06 182.4 1038.06 183.202C1038.06 184.01 1037.93 184.711 1037.65 185.305C1037.38 185.895 1036.99 186.352 1036.51 186.677C1036.02 186.998 1035.46 187.159 1034.82 187.159C1034.33 187.159 1033.94 187.078 1033.64 186.915C1033.35 186.75 1033.12 186.562 1032.96 186.354C1032.8 186.142 1032.68 185.966 1032.59 185.827H1032.46V187H1031.32ZM1032.48 183.182C1032.48 183.759 1032.56 184.267 1032.73 184.708C1032.9 185.146 1033.14 185.489 1033.47 185.737C1033.79 185.982 1034.19 186.105 1034.66 186.105C1035.15 186.105 1035.56 185.976 1035.89 185.717C1036.22 185.455 1036.47 185.104 1036.64 184.663C1036.81 184.219 1036.89 183.725 1036.89 183.182C1036.89 182.645 1036.81 182.161 1036.64 181.73C1036.48 181.296 1036.23 180.953 1035.9 180.701C1035.57 180.446 1035.16 180.318 1034.66 180.318C1034.19 180.318 1033.78 180.439 1033.46 180.681C1033.13 180.92 1032.89 181.254 1032.72 181.685C1032.56 182.113 1032.48 182.612 1032.48 183.182ZM1040.14 189.864C1039.94 189.864 1039.76 189.847 1039.61 189.814C1039.45 189.784 1039.34 189.754 1039.28 189.724L1039.58 188.69C1039.87 188.763 1040.12 188.79 1040.34 188.77C1040.56 188.75 1040.75 188.652 1040.92 188.477C1041.09 188.304 1041.25 188.024 1041.39 187.636L1041.61 187.04L1038.79 179.364H1040.06L1042.17 185.449H1042.25L1044.36 179.364H1045.63L1042.39 188.114C1042.24 188.508 1042.06 188.835 1041.85 189.093C1041.63 189.355 1041.38 189.549 1041.09 189.675C1040.81 189.801 1040.49 189.864 1040.14 189.864ZM1049.59 187.159C1048.95 187.159 1048.39 186.998 1047.9 186.677C1047.41 186.352 1047.03 185.895 1046.76 185.305C1046.48 184.711 1046.35 184.01 1046.35 183.202C1046.35 182.4 1046.48 181.704 1046.76 181.114C1047.03 180.524 1047.42 180.068 1047.91 179.746C1048.4 179.425 1048.96 179.264 1049.61 179.264C1050.1 179.264 1050.5 179.347 1050.79 179.513C1051.08 179.675 1051.3 179.861 1051.45 180.07C1051.61 180.275 1051.73 180.444 1051.81 180.577H1051.91V176.818H1053.09V187H1051.95V185.827H1051.81C1051.73 185.966 1051.61 186.142 1051.45 186.354C1051.29 186.562 1051.06 186.75 1050.77 186.915C1050.47 187.078 1050.08 187.159 1049.59 187.159ZM1049.75 186.105C1050.22 186.105 1050.61 185.982 1050.94 185.737C1051.26 185.489 1051.51 185.146 1051.68 184.708C1051.85 184.267 1051.93 183.759 1051.93 183.182C1051.93 182.612 1051.85 182.113 1051.69 181.685C1051.52 181.254 1051.27 180.92 1050.95 180.681C1050.62 180.439 1050.22 180.318 1049.75 180.318C1049.25 180.318 1048.84 180.446 1048.5 180.701C1048.18 180.953 1047.93 181.296 1047.76 181.73C1047.6 182.161 1047.52 182.645 1047.52 183.182C1047.52 183.725 1047.6 184.219 1047.77 184.663C1047.94 185.104 1048.19 185.455 1048.51 185.717C1048.85 185.976 1049.26 186.105 1049.75 186.105ZM1058.4 187.159C1057.67 187.159 1057.03 186.997 1056.5 186.672C1055.97 186.344 1055.56 185.886 1055.27 185.3C1054.98 184.71 1054.84 184.024 1054.84 183.241C1054.84 182.459 1054.98 181.77 1055.27 181.173C1055.56 180.573 1055.96 180.106 1056.47 179.771C1056.99 179.433 1057.59 179.264 1058.28 179.264C1058.68 179.264 1059.07 179.33 1059.46 179.463C1059.85 179.596 1060.2 179.811 1060.52 180.109C1060.84 180.404 1061.09 180.795 1061.28 181.283C1061.47 181.77 1061.56 182.37 1061.56 183.082V183.58H1055.68V182.565H1060.37C1060.37 182.134 1060.28 181.75 1060.11 181.412C1059.94 181.074 1059.7 180.807 1059.39 180.612C1059.07 180.416 1058.71 180.318 1058.28 180.318C1057.81 180.318 1057.41 180.434 1057.07 180.666C1056.73 180.895 1056.47 181.193 1056.29 181.561C1056.11 181.929 1056.01 182.323 1056.01 182.744V183.42C1056.01 183.997 1056.11 184.486 1056.31 184.887C1056.52 185.285 1056.8 185.588 1057.15 185.797C1057.51 186.002 1057.93 186.105 1058.4 186.105C1058.71 186.105 1058.99 186.062 1059.24 185.976C1059.49 185.886 1059.71 185.754 1059.89 185.578C1060.07 185.399 1060.21 185.177 1060.31 184.912L1061.44 185.23C1061.32 185.615 1061.12 185.953 1060.84 186.244C1060.56 186.533 1060.21 186.758 1059.8 186.92C1059.38 187.08 1058.92 187.159 1058.4 187.159ZM1064.32 176.818V187H1063.15V176.818H1064.32Z" fill="white"/>
<path d="M959.705 215H958.413L962.151 204.818H963.424L967.163 215H965.87L962.827 206.429H962.748L959.705 215ZM960.183 211.023H965.393V212.116H960.183V211.023ZM969.563 204.818V215H968.389V204.818H969.563ZM972.685 210.406V215H971.512V207.364H972.645V208.557H972.745C972.924 208.169 973.195 207.857 973.56 207.622C973.925 207.384 974.395 207.264 974.972 207.264C975.489 207.264 975.941 207.37 976.329 207.582C976.717 207.791 977.019 208.109 977.234 208.537C977.449 208.961 977.557 209.498 977.557 210.148V215H976.384V210.227C976.384 209.627 976.228 209.16 975.917 208.825C975.605 208.487 975.177 208.318 974.634 208.318C974.259 208.318 973.925 208.399 973.63 208.562C973.338 208.724 973.108 208.961 972.939 209.273C972.77 209.584 972.685 209.962 972.685 210.406ZM981.748 215.179C981.264 215.179 980.825 215.088 980.431 214.906C980.036 214.72 979.723 214.453 979.491 214.105C979.259 213.754 979.143 213.33 979.143 212.832C979.143 212.395 979.229 212.04 979.402 211.768C979.574 211.493 979.804 211.278 980.093 211.122C980.381 210.966 980.699 210.85 981.047 210.774C981.399 210.695 981.752 210.632 982.106 210.585C982.57 210.526 982.947 210.481 983.235 210.451C983.527 210.418 983.739 210.363 983.871 210.287C984.007 210.211 984.075 210.078 984.075 209.889V209.849C984.075 209.359 983.941 208.978 983.672 208.706C983.407 208.434 983.005 208.298 982.464 208.298C981.904 208.298 981.465 208.421 981.147 208.666C980.829 208.911 980.605 209.173 980.476 209.452L979.362 209.054C979.561 208.59 979.826 208.229 980.157 207.97C980.492 207.708 980.857 207.526 981.251 207.423C981.649 207.317 982.04 207.264 982.425 207.264C982.67 207.264 982.951 207.294 983.27 207.354C983.591 207.41 983.901 207.528 984.199 207.707C984.501 207.886 984.751 208.156 984.95 208.517C985.149 208.878 985.248 209.362 985.248 209.969V215H984.075V213.966H984.015C983.936 214.132 983.803 214.309 983.618 214.498C983.432 214.687 983.185 214.848 982.877 214.98C982.569 215.113 982.192 215.179 981.748 215.179ZM981.927 214.125C982.391 214.125 982.782 214.034 983.101 213.852C983.422 213.669 983.664 213.434 983.826 213.146C983.992 212.857 984.075 212.554 984.075 212.236V211.162C984.025 211.222 983.916 211.276 983.747 211.326C983.581 211.372 983.389 211.414 983.17 211.45C982.955 211.483 982.744 211.513 982.539 211.54C982.337 211.563 982.173 211.583 982.047 211.599C981.742 211.639 981.457 211.704 981.192 211.793C980.93 211.879 980.718 212.01 980.555 212.186C980.396 212.358 980.317 212.594 980.317 212.892C980.317 213.3 980.467 213.608 980.769 213.817C981.074 214.022 981.46 214.125 981.927 214.125Z" fill="black"/>
<path d="M959.288 243V232.818H962.847C963.557 232.818 964.142 232.941 964.602 233.186C965.063 233.428 965.406 233.754 965.631 234.165C965.857 234.573 965.969 235.026 965.969 235.523C965.969 235.96 965.892 236.321 965.736 236.607C965.583 236.892 965.381 237.117 965.129 237.283C964.881 237.448 964.611 237.571 964.319 237.651V237.75C964.63 237.77 964.944 237.879 965.259 238.078C965.573 238.277 965.837 238.562 966.049 238.933C966.261 239.304 966.367 239.759 966.367 240.295C966.367 240.806 966.251 241.265 966.019 241.673C965.787 242.08 965.421 242.403 964.92 242.642C964.42 242.881 963.769 243 962.967 243H959.288ZM960.521 241.906H962.967C963.772 241.906 964.344 241.75 964.682 241.439C965.023 241.124 965.194 240.743 965.194 240.295C965.194 239.951 965.106 239.633 964.93 239.341C964.755 239.046 964.504 238.811 964.18 238.635C963.855 238.456 963.47 238.366 963.026 238.366H960.521V241.906ZM960.521 237.293H962.808C963.179 237.293 963.513 237.22 963.812 237.074C964.113 236.928 964.352 236.723 964.528 236.457C964.707 236.192 964.796 235.881 964.796 235.523C964.796 235.075 964.64 234.696 964.329 234.384C964.017 234.069 963.523 233.912 962.847 233.912H960.521V237.293ZM968.034 235.364H969.207V243.557C969.207 244.027 969.126 244.435 968.964 244.78C968.805 245.125 968.563 245.391 968.238 245.58C967.916 245.769 967.51 245.864 967.02 245.864C966.98 245.864 966.94 245.864 966.9 245.864C966.861 245.864 966.821 245.864 966.781 245.864V244.77C966.821 244.77 966.857 244.77 966.891 244.77C966.924 244.77 966.96 244.77 967 244.77C967.358 244.77 967.62 244.664 967.785 244.452C967.951 244.243 968.034 243.945 968.034 243.557V235.364ZM968.611 234.091C968.382 234.091 968.185 234.013 968.019 233.857C967.857 233.701 967.775 233.514 967.775 233.295C967.775 233.077 967.857 232.889 968.019 232.734C968.185 232.578 968.382 232.5 968.611 232.5C968.839 232.5 969.035 232.578 969.197 232.734C969.363 232.889 969.446 233.077 969.446 233.295C969.446 233.514 969.363 233.701 969.197 233.857C969.035 234.013 968.839 234.091 968.611 234.091ZM974.358 243.159C973.622 243.159 972.987 242.997 972.454 242.672C971.924 242.344 971.514 241.886 971.226 241.3C970.941 240.71 970.798 240.024 970.798 239.241C970.798 238.459 970.941 237.77 971.226 237.173C971.514 236.573 971.915 236.106 972.429 235.771C972.946 235.433 973.549 235.264 974.239 235.264C974.636 235.264 975.029 235.33 975.417 235.463C975.805 235.596 976.158 235.811 976.476 236.109C976.794 236.404 977.048 236.795 977.237 237.283C977.425 237.77 977.52 238.37 977.52 239.082V239.58H971.634V238.565H976.327C976.327 238.134 976.241 237.75 976.068 237.412C975.899 237.074 975.657 236.807 975.342 236.612C975.031 236.416 974.663 236.318 974.239 236.318C973.771 236.318 973.367 236.434 973.026 236.666C972.688 236.895 972.427 237.193 972.245 237.561C972.063 237.929 971.972 238.323 971.972 238.744V239.42C971.972 239.997 972.071 240.486 972.27 240.887C972.472 241.285 972.752 241.588 973.11 241.797C973.468 242.002 973.884 242.105 974.358 242.105C974.666 242.105 974.945 242.062 975.193 241.976C975.445 241.886 975.662 241.754 975.844 241.578C976.027 241.399 976.168 241.177 976.267 240.912L977.401 241.23C977.281 241.615 977.081 241.953 976.799 242.244C976.517 242.533 976.169 242.758 975.755 242.92C975.341 243.08 974.875 243.159 974.358 243.159ZM979.105 243V235.364H980.238V236.517H980.318C980.457 236.139 980.709 235.833 981.073 235.597C981.438 235.362 981.849 235.244 982.306 235.244C982.393 235.244 982.5 235.246 982.63 235.249C982.759 235.253 982.857 235.258 982.923 235.264V236.457C982.883 236.447 982.792 236.433 982.649 236.413C982.51 236.389 982.363 236.378 982.207 236.378C981.836 236.378 981.504 236.456 981.213 236.612C980.924 236.764 980.696 236.976 980.527 237.248C980.361 237.516 980.278 237.823 980.278 238.168V243H979.105ZM985.207 240.216L985.188 238.764H985.426L988.767 235.364H990.219L986.659 238.963H986.56L985.207 240.216ZM984.114 243V232.818H985.287V243H984.114ZM988.966 243L985.983 239.222L986.818 238.406L990.457 243H988.966ZM994.416 243.159C993.68 243.159 993.046 242.997 992.512 242.672C991.982 242.344 991.572 241.886 991.284 241.3C990.999 240.71 990.857 240.024 990.857 239.241C990.857 238.459 990.999 237.77 991.284 237.173C991.572 236.573 991.973 236.106 992.487 235.771C993.004 235.433 993.607 235.264 994.297 235.264C994.695 235.264 995.087 235.33 995.475 235.463C995.863 235.596 996.216 235.811 996.534 236.109C996.852 236.404 997.106 236.795 997.295 237.283C997.484 237.77 997.578 238.37 997.578 239.082V239.58H991.692V238.565H996.385C996.385 238.134 996.299 237.75 996.126 237.412C995.957 237.074 995.715 236.807 995.401 236.612C995.089 236.416 994.721 236.318 994.297 236.318C993.83 236.318 993.425 236.434 993.084 236.666C992.746 236.895 992.486 237.193 992.303 237.561C992.121 237.929 992.03 238.323 992.03 238.744V239.42C992.03 239.997 992.129 240.486 992.328 240.887C992.53 241.285 992.81 241.588 993.168 241.797C993.526 242.002 993.942 242.105 994.416 242.105C994.724 242.105 995.003 242.062 995.251 241.976C995.503 241.886 995.72 241.754 995.903 241.578C996.085 241.399 996.226 241.177 996.325 240.912L997.459 241.23C997.339 241.615 997.139 241.953 996.857 242.244C996.576 242.533 996.228 242.758 995.813 242.92C995.399 243.08 994.933 243.159 994.416 243.159Z" fill="black"/>
<path d="M959.288 271V260.818H965.393V261.912H960.521V265.352H964.935V266.446H960.521V271H959.288ZM967.063 271V263.364H968.197V264.517H968.276C968.416 264.139 968.667 263.833 969.032 263.597C969.397 263.362 969.808 263.244 970.265 263.244C970.351 263.244 970.459 263.246 970.588 263.249C970.717 263.253 970.815 263.258 970.881 263.264V264.457C970.842 264.447 970.751 264.433 970.608 264.413C970.469 264.389 970.321 264.378 970.166 264.378C969.794 264.378 969.463 264.456 969.171 264.612C968.883 264.764 968.654 264.976 968.485 265.248C968.319 265.516 968.237 265.823 968.237 266.168V271H967.063ZM974.942 271.159C974.253 271.159 973.648 270.995 973.128 270.667C972.61 270.339 972.206 269.88 971.914 269.29C971.626 268.7 971.482 268.01 971.482 267.222C971.482 266.426 971.626 265.732 971.914 265.138C972.206 264.545 972.61 264.085 973.128 263.756C973.648 263.428 974.253 263.264 974.942 263.264C975.632 263.264 976.235 263.428 976.752 263.756C977.272 264.085 977.677 264.545 977.965 265.138C978.257 265.732 978.402 266.426 978.402 267.222C978.402 268.01 978.257 268.7 977.965 269.29C977.677 269.88 977.272 270.339 976.752 270.667C976.235 270.995 975.632 271.159 974.942 271.159ZM974.942 270.105C975.466 270.105 975.897 269.971 976.235 269.702C976.573 269.434 976.823 269.081 976.985 268.643C977.148 268.206 977.229 267.732 977.229 267.222C977.229 266.711 977.148 266.236 976.985 265.795C976.823 265.354 976.573 264.998 976.235 264.726C975.897 264.454 975.466 264.318 974.942 264.318C974.418 264.318 973.988 264.454 973.65 264.726C973.311 264.998 973.061 265.354 972.899 265.795C972.736 266.236 972.655 266.711 972.655 267.222C972.655 267.732 972.736 268.206 972.899 268.643C973.061 269.081 973.311 269.434 973.65 269.702C973.988 269.971 974.418 270.105 974.942 270.105ZM983.076 274.023C982.509 274.023 982.022 273.95 981.614 273.804C981.206 273.661 980.867 273.473 980.595 273.237C980.326 273.005 980.113 272.757 979.954 272.491L980.888 271.835C980.994 271.974 981.129 272.134 981.291 272.312C981.453 272.495 981.675 272.652 981.957 272.785C982.242 272.921 982.615 272.989 983.076 272.989C983.692 272.989 984.201 272.839 984.602 272.541C985.003 272.243 985.204 271.776 985.204 271.139V269.588H985.104C985.018 269.727 984.895 269.9 984.736 270.105C984.581 270.307 984.355 270.488 984.06 270.647C983.768 270.803 983.374 270.881 982.877 270.881C982.26 270.881 981.707 270.735 981.216 270.443C980.729 270.152 980.343 269.727 980.058 269.17C979.776 268.614 979.635 267.937 979.635 267.142C979.635 266.36 979.773 265.679 980.048 265.099C980.323 264.515 980.706 264.065 981.197 263.746C981.687 263.425 982.254 263.264 982.897 263.264C983.394 263.264 983.788 263.347 984.08 263.513C984.375 263.675 984.6 263.861 984.756 264.07C984.915 264.275 985.038 264.444 985.124 264.577H985.243V263.364H986.377V271.219C986.377 271.875 986.228 272.409 985.929 272.82C985.634 273.234 985.237 273.537 984.736 273.729C984.239 273.925 983.686 274.023 983.076 274.023ZM983.036 269.827C983.507 269.827 983.904 269.719 984.229 269.504C984.554 269.288 984.801 268.978 984.97 268.574C985.139 268.17 985.224 267.686 985.224 267.122C985.224 266.572 985.141 266.086 984.975 265.665C984.809 265.245 984.564 264.915 984.239 264.676C983.914 264.437 983.513 264.318 983.036 264.318C982.539 264.318 982.125 264.444 981.793 264.696C981.465 264.948 981.218 265.286 981.052 265.71C980.89 266.134 980.809 266.605 980.809 267.122C980.809 267.652 980.892 268.121 981.057 268.529C981.226 268.933 981.475 269.252 981.803 269.484C982.134 269.712 982.545 269.827 983.036 269.827ZM989.498 266.406V271H988.325V263.364H989.458V264.557H989.558C989.737 264.169 990.008 263.857 990.373 263.622C990.738 263.384 991.208 263.264 991.785 263.264C992.302 263.264 992.754 263.37 993.142 263.582C993.53 263.791 993.832 264.109 994.047 264.537C994.262 264.961 994.37 265.498 994.37 266.148V271H993.197V266.227C993.197 265.627 993.041 265.16 992.729 264.825C992.418 264.487 991.99 264.318 991.447 264.318C991.072 264.318 990.738 264.399 990.443 264.562C990.151 264.724 989.921 264.961 989.751 265.273C989.582 265.584 989.498 265.962 989.498 266.406ZM999.516 271.159C998.78 271.159 998.145 270.997 997.612 270.672C997.081 270.344 996.672 269.886 996.384 269.3C996.099 268.71 995.956 268.024 995.956 267.241C995.956 266.459 996.099 265.77 996.384 265.173C996.672 264.573 997.073 264.106 997.587 263.771C998.104 263.433 998.707 263.264 999.396 263.264C999.794 263.264 1000.19 263.33 1000.57 263.463C1000.96 263.596 1001.32 263.811 1001.63 264.109C1001.95 264.404 1002.21 264.795 1002.39 265.283C1002.58 265.77 1002.68 266.37 1002.68 267.082V267.58H996.791V266.565H1001.48C1001.48 266.134 1001.4 265.75 1001.23 265.412C1001.06 265.074 1000.82 264.807 1000.5 264.612C1000.19 264.416 999.821 264.318 999.396 264.318C998.929 264.318 998.525 264.434 998.183 264.666C997.845 264.895 997.585 265.193 997.403 265.561C997.221 265.929 997.129 266.323 997.129 266.744V267.42C997.129 267.997 997.229 268.486 997.428 268.887C997.63 269.285 997.91 269.588 998.268 269.797C998.626 270.002 999.042 270.105 999.516 270.105C999.824 270.105 1000.1 270.062 1000.35 269.976C1000.6 269.886 1000.82 269.754 1001 269.578C1001.18 269.399 1001.33 269.177 1001.42 268.912L1002.56 269.23C1002.44 269.615 1002.24 269.953 1001.96 270.244C1001.68 270.533 1001.33 270.758 1000.91 270.92C1000.5 271.08 1000.03 271.159 999.516 271.159ZM1004.26 271V263.364H1005.4V264.517H1005.48C1005.61 264.139 1005.87 263.833 1006.23 263.597C1006.6 263.362 1007.01 263.244 1007.46 263.244C1007.55 263.244 1007.66 263.246 1007.79 263.249C1007.92 263.253 1008.01 263.258 1008.08 263.264V264.457C1008.04 264.447 1007.95 264.433 1007.81 264.413C1007.67 264.389 1007.52 264.378 1007.36 264.378C1006.99 264.378 1006.66 264.456 1006.37 264.612C1006.08 264.764 1005.85 264.976 1005.68 265.248C1005.52 265.516 1005.44 265.823 1005.44 266.168V271H1004.26Z" fill="black"/>
<path d="M966.248 292C966.138 291.665 965.994 291.365 965.815 291.1C965.64 290.832 965.429 290.603 965.184 290.414C964.942 290.225 964.667 290.081 964.359 289.982C964.05 289.882 963.712 289.832 963.344 289.832C962.741 289.832 962.193 289.988 961.699 290.3C961.205 290.611 960.812 291.07 960.521 291.677C960.229 292.283 960.083 293.027 960.083 293.909C960.083 294.791 960.231 295.535 960.526 296.141C960.821 296.748 961.22 297.207 961.724 297.518C962.228 297.83 962.794 297.986 963.424 297.986C964.007 297.986 964.521 297.862 964.965 297.613C965.413 297.361 965.761 297.006 966.009 296.549C966.261 296.088 966.387 295.546 966.387 294.923L966.765 295.003H963.702V293.909H967.58V295.003C967.58 295.841 967.401 296.571 967.043 297.19C966.689 297.81 966.198 298.291 965.572 298.632C964.949 298.97 964.233 299.139 963.424 299.139C962.522 299.139 961.73 298.927 961.048 298.503C960.368 298.079 959.838 297.475 959.457 296.693C959.079 295.911 958.89 294.983 958.89 293.909C958.89 293.104 958.998 292.379 959.213 291.737C959.432 291.09 959.74 290.54 960.138 290.086C960.536 289.632 961.006 289.284 961.55 289.042C962.093 288.8 962.692 288.679 963.344 288.679C963.881 288.679 964.382 288.76 964.846 288.923C965.313 289.082 965.729 289.309 966.094 289.604C966.462 289.895 966.768 290.245 967.013 290.653C967.259 291.057 967.428 291.506 967.521 292H966.248ZM971.58 299.179C971.096 299.179 970.657 299.088 970.263 298.906C969.868 298.72 969.555 298.453 969.323 298.105C969.091 297.754 968.975 297.33 968.975 296.832C968.975 296.395 969.061 296.04 969.233 295.768C969.406 295.493 969.636 295.278 969.924 295.122C970.213 294.966 970.531 294.85 970.879 294.774C971.23 294.695 971.583 294.632 971.938 294.585C972.402 294.526 972.778 294.481 973.067 294.451C973.358 294.418 973.57 294.363 973.703 294.287C973.839 294.211 973.907 294.078 973.907 293.889V293.849C973.907 293.359 973.772 292.978 973.504 292.706C973.239 292.434 972.836 292.298 972.296 292.298C971.736 292.298 971.297 292.421 970.978 292.666C970.66 292.911 970.437 293.173 970.307 293.452L969.194 293.054C969.393 292.59 969.658 292.229 969.989 291.97C970.324 291.708 970.688 291.526 971.083 291.423C971.481 291.317 971.872 291.264 972.256 291.264C972.501 291.264 972.783 291.294 973.101 291.354C973.423 291.41 973.733 291.528 974.031 291.707C974.333 291.886 974.583 292.156 974.782 292.517C974.981 292.878 975.08 293.362 975.08 293.969V299H973.907V297.966H973.847C973.768 298.132 973.635 298.309 973.449 298.498C973.264 298.687 973.017 298.848 972.709 298.98C972.4 299.113 972.024 299.179 971.58 299.179ZM971.759 298.125C972.223 298.125 972.614 298.034 972.932 297.852C973.254 297.669 973.496 297.434 973.658 297.146C973.824 296.857 973.907 296.554 973.907 296.236V295.162C973.857 295.222 973.748 295.276 973.579 295.326C973.413 295.372 973.221 295.414 973.002 295.45C972.786 295.483 972.576 295.513 972.37 295.54C972.168 295.563 972.004 295.583 971.878 295.599C971.573 295.639 971.288 295.704 971.023 295.793C970.761 295.879 970.549 296.01 970.387 296.186C970.228 296.358 970.148 296.594 970.148 296.892C970.148 297.3 970.299 297.608 970.601 297.817C970.906 298.022 971.292 298.125 971.759 298.125ZM977.022 299V291.364H978.155V292.557H978.254C978.414 292.149 978.67 291.833 979.025 291.607C979.38 291.379 979.806 291.264 980.303 291.264C980.807 291.264 981.226 291.379 981.561 291.607C981.899 291.833 982.162 292.149 982.351 292.557H982.431C982.626 292.162 982.919 291.849 983.311 291.617C983.702 291.382 984.171 291.264 984.718 291.264C985.4 291.264 985.959 291.478 986.393 291.906C986.827 292.33 987.044 292.991 987.044 293.889V299H985.871V293.889C985.871 293.326 985.717 292.923 985.409 292.681C985.1 292.439 984.737 292.318 984.32 292.318C983.783 292.318 983.367 292.481 983.072 292.805C982.777 293.127 982.629 293.535 982.629 294.028V299H981.436V293.77C981.436 293.336 981.295 292.986 981.014 292.721C980.732 292.452 980.369 292.318 979.925 292.318C979.62 292.318 979.335 292.399 979.07 292.562C978.808 292.724 978.596 292.95 978.433 293.238C978.274 293.523 978.195 293.853 978.195 294.227V299H977.022ZM990.163 288.818V299H988.989V288.818H990.163ZM995.313 299.159C994.578 299.159 993.943 298.997 993.409 298.672C992.879 298.344 992.47 297.886 992.181 297.3C991.896 296.71 991.754 296.024 991.754 295.241C991.754 294.459 991.896 293.77 992.181 293.173C992.47 292.573 992.871 292.106 993.384 291.771C993.902 291.433 994.505 291.264 995.194 291.264C995.592 291.264 995.985 291.33 996.372 291.463C996.76 291.596 997.113 291.811 997.431 292.109C997.75 292.404 998.003 292.795 998.192 293.283C998.381 293.77 998.475 294.37 998.475 295.082V295.58H992.589V294.565H997.282C997.282 294.134 997.196 293.75 997.024 293.412C996.855 293.074 996.613 292.807 996.298 292.612C995.986 292.416 995.618 292.318 995.194 292.318C994.727 292.318 994.322 292.434 993.981 292.666C993.643 292.895 993.383 293.193 993.201 293.561C993.018 293.929 992.927 294.323 992.927 294.744V295.42C992.927 295.997 993.027 296.486 993.225 296.887C993.428 297.285 993.708 297.588 994.066 297.797C994.424 298.002 994.84 298.105 995.313 298.105C995.622 298.105 995.9 298.062 996.149 297.976C996.401 297.886 996.618 297.754 996.8 297.578C996.982 297.399 997.123 297.177 997.223 296.912L998.356 297.23C998.237 297.615 998.036 297.953 997.755 298.244C997.473 298.533 997.125 298.758 996.71 298.92C996.296 299.08 995.831 299.159 995.313 299.159ZM1012.55 293.909C1012.55 294.983 1012.35 295.911 1011.97 296.693C1011.58 297.475 1011.05 298.079 1010.37 298.503C1009.69 298.927 1008.92 299.139 1008.05 299.139C1007.19 299.139 1006.41 298.927 1005.74 298.503C1005.06 298.079 1004.53 297.475 1004.14 296.693C1003.75 295.911 1003.56 294.983 1003.56 293.909C1003.56 292.835 1003.75 291.907 1004.14 291.125C1004.53 290.343 1005.06 289.74 1005.74 289.315C1006.41 288.891 1007.19 288.679 1008.05 288.679C1008.92 288.679 1009.69 288.891 1010.37 289.315C1011.05 289.74 1011.58 290.343 1011.97 291.125C1012.35 291.907 1012.55 292.835 1012.55 293.909ZM1011.35 293.909C1011.35 293.027 1011.21 292.283 1010.91 291.677C1010.62 291.07 1010.22 290.611 1009.72 290.3C1009.23 289.988 1008.67 289.832 1008.05 289.832C1007.44 289.832 1006.88 289.988 1006.38 290.3C1005.88 290.611 1005.48 291.07 1005.19 291.677C1004.9 292.283 1004.75 293.027 1004.75 293.909C1004.75 294.791 1004.9 295.535 1005.19 296.141C1005.48 296.748 1005.88 297.207 1006.38 297.518C1006.88 297.83 1007.44 297.986 1008.05 297.986C1008.67 297.986 1009.23 297.83 1009.72 297.518C1010.22 297.207 1010.62 296.748 1010.91 296.141C1011.21 295.535 1011.35 294.791 1011.35 293.909ZM1019.67 293.074L1018.62 293.372C1018.55 293.196 1018.45 293.026 1018.32 292.86C1018.2 292.691 1018.03 292.552 1017.81 292.442C1017.59 292.333 1017.31 292.278 1016.97 292.278C1016.5 292.278 1016.11 292.386 1015.8 292.602C1015.49 292.814 1015.34 293.084 1015.34 293.412C1015.34 293.704 1015.44 293.934 1015.65 294.103C1015.87 294.272 1016.2 294.413 1016.65 294.526L1017.78 294.804C1018.46 294.97 1018.97 295.223 1019.31 295.565C1019.64 295.903 1019.81 296.339 1019.81 296.872C1019.81 297.31 1019.68 297.701 1019.43 298.045C1019.18 298.39 1018.84 298.662 1018.39 298.861C1017.94 299.06 1017.42 299.159 1016.83 299.159C1016.05 299.159 1015.4 298.99 1014.89 298.652C1014.38 298.314 1014.06 297.82 1013.92 297.17L1015.04 296.892C1015.14 297.303 1015.34 297.611 1015.64 297.817C1015.94 298.022 1016.33 298.125 1016.81 298.125C1017.35 298.125 1017.79 298.009 1018.11 297.777C1018.43 297.542 1018.6 297.26 1018.6 296.932C1018.6 296.667 1018.5 296.445 1018.32 296.266C1018.13 296.083 1017.85 295.947 1017.46 295.858L1016.19 295.56C1015.49 295.394 1014.98 295.137 1014.65 294.789C1014.32 294.438 1014.16 293.999 1014.16 293.472C1014.16 293.041 1014.28 292.66 1014.53 292.328C1014.77 291.997 1015.1 291.737 1015.52 291.548C1015.95 291.359 1016.43 291.264 1016.97 291.264C1017.72 291.264 1018.32 291.43 1018.75 291.761C1019.18 292.093 1019.49 292.53 1019.67 293.074ZM1022.55 288.818V299H1021.38V288.818H1022.55ZM1027.6 299.159C1026.91 299.159 1026.31 298.995 1025.79 298.667C1025.27 298.339 1024.86 297.88 1024.57 297.29C1024.28 296.7 1024.14 296.01 1024.14 295.222C1024.14 294.426 1024.28 293.732 1024.57 293.138C1024.86 292.545 1025.27 292.085 1025.79 291.756C1026.31 291.428 1026.91 291.264 1027.6 291.264C1028.29 291.264 1028.89 291.428 1029.41 291.756C1029.93 292.085 1030.34 292.545 1030.62 293.138C1030.92 293.732 1031.06 294.426 1031.06 295.222C1031.06 296.01 1030.92 296.7 1030.62 297.29C1030.34 297.88 1029.93 298.339 1029.41 298.667C1028.89 298.995 1028.29 299.159 1027.6 299.159ZM1027.6 298.105C1028.12 298.105 1028.56 297.971 1028.89 297.702C1029.23 297.434 1029.48 297.081 1029.64 296.643C1029.81 296.206 1029.89 295.732 1029.89 295.222C1029.89 294.711 1029.81 294.236 1029.64 293.795C1029.48 293.354 1029.23 292.998 1028.89 292.726C1028.56 292.454 1028.12 292.318 1027.6 292.318C1027.08 292.318 1026.65 292.454 1026.31 292.726C1025.97 292.998 1025.72 293.354 1025.56 293.795C1025.4 294.236 1025.31 294.711 1025.31 295.222C1025.31 295.732 1025.4 296.206 1025.56 296.643C1025.72 297.081 1025.97 297.434 1026.31 297.702C1026.65 297.971 1027.08 298.105 1027.6 298.105Z" fill="black"/>
<path d="M966.248 320C966.138 319.665 965.994 319.365 965.815 319.1C965.64 318.832 965.429 318.603 965.184 318.414C964.942 318.225 964.667 318.081 964.359 317.982C964.05 317.882 963.712 317.832 963.344 317.832C962.741 317.832 962.193 317.988 961.699 318.3C961.205 318.611 960.812 319.07 960.521 319.677C960.229 320.283 960.083 321.027 960.083 321.909C960.083 322.791 960.231 323.535 960.526 324.141C960.821 324.748 961.22 325.207 961.724 325.518C962.228 325.83 962.794 325.986 963.424 325.986C964.007 325.986 964.521 325.862 964.965 325.613C965.413 325.361 965.761 325.006 966.009 324.549C966.261 324.088 966.387 323.546 966.387 322.923L966.765 323.003H963.702V321.909H967.58V323.003C967.58 323.841 967.401 324.571 967.043 325.19C966.689 325.81 966.198 326.291 965.572 326.632C964.949 326.97 964.233 327.139 963.424 327.139C962.522 327.139 961.73 326.927 961.048 326.503C960.368 326.079 959.838 325.475 959.457 324.693C959.079 323.911 958.89 322.983 958.89 321.909C958.89 321.104 958.998 320.379 959.213 319.737C959.432 319.09 959.74 318.54 960.138 318.086C960.536 317.632 961.006 317.284 961.55 317.042C962.093 316.8 962.692 316.679 963.344 316.679C963.881 316.679 964.382 316.76 964.846 316.923C965.313 317.082 965.729 317.309 966.094 317.604C966.462 317.895 966.768 318.245 967.013 318.653C967.259 319.057 967.428 319.506 967.521 320H966.248ZM969.333 327V319.364H970.466V320.517H970.546C970.685 320.139 970.937 319.833 971.302 319.597C971.666 319.362 972.077 319.244 972.535 319.244C972.621 319.244 972.728 319.246 972.858 319.249C972.987 319.253 973.085 319.258 973.151 319.264V320.457C973.111 320.447 973.02 320.433 972.878 320.413C972.738 320.389 972.591 320.378 972.435 320.378C972.064 320.378 971.732 320.456 971.441 320.612C971.152 320.764 970.924 320.976 970.755 321.248C970.589 321.516 970.506 321.823 970.506 322.168V327H969.333ZM977.212 327.159C976.522 327.159 975.917 326.995 975.397 326.667C974.88 326.339 974.476 325.88 974.184 325.29C973.896 324.7 973.751 324.01 973.751 323.222C973.751 322.426 973.896 321.732 974.184 321.138C974.476 320.545 974.88 320.085 975.397 319.756C975.917 319.428 976.522 319.264 977.212 319.264C977.901 319.264 978.504 319.428 979.021 319.756C979.542 320.085 979.946 320.545 980.234 321.138C980.526 321.732 980.672 322.426 980.672 323.222C980.672 324.01 980.526 324.7 980.234 325.29C979.946 325.88 979.542 326.339 979.021 326.667C978.504 326.995 977.901 327.159 977.212 327.159ZM977.212 326.105C977.735 326.105 978.166 325.971 978.504 325.702C978.842 325.434 979.093 325.081 979.255 324.643C979.417 324.206 979.499 323.732 979.499 323.222C979.499 322.711 979.417 322.236 979.255 321.795C979.093 321.354 978.842 320.998 978.504 320.726C978.166 320.454 977.735 320.318 977.212 320.318C976.688 320.318 976.257 320.454 975.919 320.726C975.581 320.998 975.331 321.354 975.168 321.795C975.006 322.236 974.925 322.711 974.925 323.222C974.925 323.732 975.006 324.206 975.168 324.643C975.331 325.081 975.581 325.434 975.919 325.702C976.257 325.971 976.688 326.105 977.212 326.105ZM982.263 327V319.364H983.396V320.517H983.476C983.615 320.139 983.867 319.833 984.232 319.597C984.596 319.362 985.007 319.244 985.465 319.244C985.551 319.244 985.659 319.246 985.788 319.249C985.917 319.253 986.015 319.258 986.081 319.264V320.457C986.041 320.447 985.95 320.433 985.808 320.413C985.668 320.389 985.521 320.378 985.365 320.378C984.994 320.378 984.663 320.456 984.371 320.612C984.083 320.764 983.854 320.976 983.685 321.248C983.519 321.516 983.436 321.823 983.436 322.168V327H982.263ZM992.084 323.878V319.364H993.258V327H992.084V325.707H992.005C991.826 326.095 991.547 326.425 991.17 326.697C990.792 326.965 990.315 327.099 989.738 327.099C989.261 327.099 988.836 326.995 988.465 326.786C988.094 326.574 987.802 326.256 987.59 325.832C987.378 325.404 987.272 324.866 987.272 324.216V319.364H988.445V324.136C988.445 324.693 988.601 325.137 988.913 325.469C989.227 325.8 989.628 325.966 990.116 325.966C990.407 325.966 990.704 325.891 991.006 325.742C991.311 325.593 991.566 325.364 991.771 325.056C991.98 324.748 992.084 324.355 992.084 323.878ZM998.09 327.159C997.454 327.159 996.892 326.998 996.405 326.677C995.918 326.352 995.536 325.895 995.261 325.305C994.986 324.711 994.849 324.01 994.849 323.202C994.849 322.4 994.986 321.704 995.261 321.114C995.536 320.524 995.919 320.068 996.41 319.746C996.9 319.425 997.467 319.264 998.11 319.264C998.607 319.264 999 319.347 999.288 319.513C999.58 319.675 999.802 319.861 999.955 320.07C1000.11 320.275 1000.23 320.444 1000.32 320.577H1000.42V316.818H1001.59V327H1000.46V325.827H1000.32C1000.23 325.966 1000.11 326.142 999.95 326.354C999.79 326.562 999.563 326.75 999.268 326.915C998.973 327.078 998.581 327.159 998.09 327.159ZM998.249 326.105C998.72 326.105 999.118 325.982 999.442 325.737C999.767 325.489 1000.01 325.146 1000.18 324.708C1000.35 324.267 1000.44 323.759 1000.44 323.182C1000.44 322.612 1000.35 322.113 1000.19 321.685C1000.02 321.254 999.777 320.92 999.452 320.681C999.128 320.439 998.727 320.318 998.249 320.318C997.752 320.318 997.338 320.446 997.006 320.701C996.678 320.953 996.431 321.296 996.266 321.73C996.103 322.161 996.022 322.645 996.022 323.182C996.022 323.725 996.105 324.219 996.271 324.663C996.44 325.104 996.688 325.455 997.016 325.717C997.348 325.976 997.759 326.105 998.249 326.105Z" fill="black"/>
<path d="M966.248 348C966.138 347.665 965.994 347.365 965.815 347.1C965.64 346.832 965.429 346.603 965.184 346.414C964.942 346.225 964.667 346.081 964.359 345.982C964.05 345.882 963.712 345.832 963.344 345.832C962.741 345.832 962.193 345.988 961.699 346.3C961.205 346.611 960.812 347.07 960.521 347.677C960.229 348.283 960.083 349.027 960.083 349.909C960.083 350.791 960.231 351.535 960.526 352.141C960.821 352.748 961.22 353.207 961.724 353.518C962.228 353.83 962.794 353.986 963.424 353.986C964.007 353.986 964.521 353.862 964.965 353.613C965.413 353.361 965.761 353.006 966.009 352.549C966.261 352.088 966.387 351.546 966.387 350.923L966.765 351.003H963.702V349.909H967.58V351.003C967.58 351.841 967.401 352.571 967.043 353.19C966.689 353.81 966.198 354.291 965.572 354.632C964.949 354.97 964.233 355.139 963.424 355.139C962.522 355.139 961.73 354.927 961.048 354.503C960.368 354.079 959.838 353.475 959.457 352.693C959.079 351.911 958.89 350.983 958.89 349.909C958.89 349.104 958.998 348.379 959.213 347.737C959.432 347.09 959.74 346.54 960.138 346.086C960.536 345.632 961.006 345.284 961.55 345.042C962.093 344.8 962.692 344.679 963.344 344.679C963.881 344.679 964.382 344.76 964.846 344.923C965.313 345.082 965.729 345.309 966.094 345.604C966.462 345.895 966.768 346.245 967.013 346.653C967.259 347.057 967.428 347.506 967.521 348H966.248ZM969.333 355V347.364H970.466V348.517H970.546C970.685 348.139 970.937 347.833 971.302 347.597C971.666 347.362 972.077 347.244 972.535 347.244C972.621 347.244 972.728 347.246 972.858 347.249C972.987 347.253 973.085 347.258 973.151 347.264V348.457C973.111 348.447 973.02 348.433 972.878 348.413C972.738 348.389 972.591 348.378 972.435 348.378C972.064 348.378 971.732 348.456 971.441 348.612C971.152 348.764 970.924 348.976 970.755 349.248C970.589 349.516 970.506 349.823 970.506 350.168V355H969.333ZM979.154 351.878V347.364H980.328V355H979.154V353.707H979.075C978.896 354.095 978.617 354.425 978.24 354.697C977.862 354.965 977.384 355.099 976.808 355.099C976.33 355.099 975.906 354.995 975.535 354.786C975.164 354.574 974.872 354.256 974.66 353.832C974.448 353.404 974.342 352.866 974.342 352.216V347.364H975.515V352.136C975.515 352.693 975.671 353.137 975.982 353.469C976.297 353.8 976.698 353.966 977.186 353.966C977.477 353.966 977.774 353.891 978.075 353.742C978.38 353.593 978.636 353.364 978.841 353.056C979.05 352.748 979.154 352.355 979.154 351.878ZM975.913 346.091C975.704 346.091 975.518 346.011 975.356 345.852C975.197 345.69 975.117 345.504 975.117 345.295C975.117 345.067 975.197 344.878 975.356 344.729C975.518 344.576 975.704 344.5 975.913 344.5C976.142 344.5 976.33 344.576 976.48 344.729C976.632 344.878 976.708 345.067 976.708 345.295C976.708 345.504 976.632 345.69 976.48 345.852C976.33 346.011 976.142 346.091 975.913 346.091ZM978.776 346.091C978.568 346.091 978.382 346.011 978.22 345.852C978.061 345.69 977.981 345.504 977.981 345.295C977.981 345.067 978.061 344.878 978.22 344.729C978.382 344.576 978.568 344.5 978.776 344.5C979.005 344.5 979.194 344.576 979.343 344.729C979.496 344.878 979.572 345.067 979.572 345.295C979.572 345.504 979.496 345.69 979.343 345.852C979.194 346.011 979.005 346.091 978.776 346.091ZM983.45 350.406V355H982.277V347.364H983.41V348.557H983.51C983.689 348.169 983.96 347.857 984.325 347.622C984.689 347.384 985.16 347.264 985.737 347.264C986.254 347.264 986.706 347.37 987.094 347.582C987.482 347.791 987.783 348.109 987.999 348.537C988.214 348.961 988.322 349.498 988.322 350.148V355H987.149V350.227C987.149 349.627 986.993 349.16 986.681 348.825C986.37 348.487 985.942 348.318 985.399 348.318C985.024 348.318 984.689 348.399 984.394 348.562C984.103 348.724 983.872 348.961 983.703 349.273C983.534 349.584 983.45 349.962 983.45 350.406ZM993.468 355.159C992.732 355.159 992.097 354.997 991.564 354.672C991.033 354.344 990.624 353.886 990.336 353.3C990.051 352.71 989.908 352.024 989.908 351.241C989.908 350.459 990.051 349.77 990.336 349.173C990.624 348.573 991.025 348.106 991.539 347.771C992.056 347.433 992.659 347.264 993.348 347.264C993.746 347.264 994.139 347.33 994.527 347.463C994.914 347.596 995.267 347.811 995.586 348.109C995.904 348.404 996.157 348.795 996.346 349.283C996.535 349.77 996.63 350.37 996.63 351.082V351.58H990.743V350.565H995.437C995.437 350.134 995.35 349.75 995.178 349.412C995.009 349.074 994.767 348.807 994.452 348.612C994.141 348.416 993.773 348.318 993.348 348.318C992.881 348.318 992.477 348.434 992.135 348.666C991.797 348.895 991.537 349.193 991.355 349.561C991.173 349.929 991.081 350.323 991.081 350.744V351.42C991.081 351.997 991.181 352.486 991.38 352.887C991.582 353.285 991.862 353.588 992.22 353.797C992.578 354.002 992.994 354.105 993.468 354.105C993.776 354.105 994.054 354.062 994.303 353.976C994.555 353.886 994.772 353.754 994.954 353.578C995.137 353.399 995.277 353.177 995.377 352.912L996.51 353.23C996.391 353.615 996.191 353.953 995.909 354.244C995.627 354.533 995.279 354.758 994.865 354.92C994.45 355.08 993.985 355.159 993.468 355.159ZM998.214 355V347.364H999.348V348.517H999.428C999.567 348.139 999.819 347.833 1000.18 347.597C1000.55 347.362 1000.96 347.244 1001.42 347.244C1001.5 347.244 1001.61 347.246 1001.74 347.249C1001.87 347.253 1001.97 347.258 1002.03 347.264V348.457C1001.99 348.447 1001.9 348.433 1001.76 348.413C1001.62 348.389 1001.47 348.378 1001.32 348.378C1000.95 348.378 1000.61 348.456 1000.32 348.612C1000.03 348.764 999.805 348.976 999.636 349.248C999.471 349.516 999.388 349.823 999.388 350.168V355H998.214ZM1004.4 344.818V355H1003.22V344.818H1004.4ZM1007.16 355.418L1006.41 354.901L1011.73 347.006L1012.49 347.523L1007.16 355.418ZM1009.45 355.159C1008.76 355.159 1008.15 354.995 1007.63 354.667C1007.12 354.339 1006.71 353.88 1006.42 353.29C1006.13 352.7 1005.99 352.01 1005.99 351.222C1005.99 350.426 1006.13 349.732 1006.42 349.138C1006.71 348.545 1007.12 348.085 1007.63 347.756C1008.15 347.428 1008.76 347.264 1009.45 347.264C1010.14 347.264 1010.74 347.428 1011.26 347.756C1011.78 348.085 1012.18 348.545 1012.47 349.138C1012.76 349.732 1012.91 350.426 1012.91 351.222C1012.91 352.01 1012.76 352.7 1012.47 353.29C1012.18 353.88 1011.78 354.339 1011.26 354.667C1010.74 354.995 1010.14 355.159 1009.45 355.159ZM1009.45 354.105C1009.97 354.105 1010.4 353.971 1010.74 353.702C1011.08 353.434 1011.33 353.081 1011.49 352.643C1011.65 352.206 1011.73 351.732 1011.73 351.222C1011.73 350.711 1011.65 350.236 1011.49 349.795C1011.33 349.354 1011.08 348.998 1010.74 348.726C1010.4 348.454 1009.97 348.318 1009.45 348.318C1008.92 348.318 1008.49 348.454 1008.16 348.726C1007.82 348.998 1007.57 349.354 1007.4 349.795C1007.24 350.236 1007.16 350.711 1007.16 351.222C1007.16 351.732 1007.24 352.206 1007.4 352.643C1007.57 353.081 1007.82 353.434 1008.16 353.702C1008.49 353.971 1008.92 354.105 1009.45 354.105ZM1015.59 352.216L1015.57 350.764H1015.81L1019.15 347.364H1020.6L1017.04 350.963H1016.95L1015.59 352.216ZM1014.5 355V344.818H1015.67V355H1014.5ZM1019.35 355L1016.37 351.222L1017.2 350.406L1020.84 355H1019.35ZM1023.01 352.216L1022.99 350.764H1023.23L1026.57 347.364H1028.02L1024.46 350.963H1024.36L1023.01 352.216ZM1021.91 355V344.818H1023.09V355H1021.91ZM1026.77 355L1023.78 351.222L1024.62 350.406L1028.26 355H1026.77ZM1031.58 355.179C1031.09 355.179 1030.65 355.088 1030.26 354.906C1029.86 354.72 1029.55 354.453 1029.32 354.105C1029.09 353.754 1028.97 353.33 1028.97 352.832C1028.97 352.395 1029.06 352.04 1029.23 351.768C1029.4 351.493 1029.63 351.278 1029.92 351.122C1030.21 350.966 1030.53 350.85 1030.88 350.774C1031.23 350.695 1031.58 350.632 1031.93 350.585C1032.4 350.526 1032.78 350.481 1033.06 350.451C1033.36 350.418 1033.57 350.363 1033.7 350.287C1033.84 350.211 1033.9 350.078 1033.9 349.889V349.849C1033.9 349.359 1033.77 348.978 1033.5 348.706C1033.24 348.434 1032.83 348.298 1032.29 348.298C1031.73 348.298 1031.29 348.421 1030.98 348.666C1030.66 348.911 1030.43 349.173 1030.3 349.452L1029.19 349.054C1029.39 348.59 1029.65 348.229 1029.99 347.97C1030.32 347.708 1030.69 347.526 1031.08 347.423C1031.48 347.317 1031.87 347.264 1032.25 347.264C1032.5 347.264 1032.78 347.294 1033.1 347.354C1033.42 347.41 1033.73 347.528 1034.03 347.707C1034.33 347.886 1034.58 348.156 1034.78 348.517C1034.98 348.878 1035.08 349.362 1035.08 349.969V355H1033.9V353.966H1033.84C1033.76 354.132 1033.63 354.309 1033.45 354.498C1033.26 354.687 1033.01 354.848 1032.71 354.98C1032.4 355.113 1032.02 355.179 1031.58 355.179ZM1031.76 354.125C1032.22 354.125 1032.61 354.034 1032.93 353.852C1033.25 353.669 1033.49 353.434 1033.66 353.146C1033.82 352.857 1033.9 352.554 1033.9 352.236V351.162C1033.85 351.222 1033.74 351.276 1033.58 351.326C1033.41 351.372 1033.22 351.414 1033 351.45C1032.78 351.483 1032.57 351.513 1032.37 351.54C1032.17 351.563 1032 351.583 1031.88 351.599C1031.57 351.639 1031.29 351.704 1031.02 351.793C1030.76 351.879 1030.55 352.01 1030.38 352.186C1030.22 352.358 1030.15 352.594 1030.15 352.892C1030.15 353.3 1030.3 353.608 1030.6 353.817C1030.9 354.022 1031.29 354.125 1031.76 354.125Z" fill="black"/>
<rect x="950.555" y="166.5" width="389" height="199" rx="3.5" stroke="#C9C9C9"/>
<defs>
<radialGradient id="paint0_radial_5559_1056" cx="0" cy="0" r="1" gradientUnits="userSpaceOnUse" gradientTransform="translate(1150.45 253.5) rotate(90) scale(128.5 200.5)">
<stop stop-color="#D9D9D9"/>
<stop offset="1" stop-color="#D9D9D9" stop-opacity="0"/>
</radialGradient>
</defs>
</svg>
