<svg width="889" height="451" viewBox="0 0 889 451" fill="none" xmlns="http://www.w3.org/2000/svg">
<rect width="889" height="451" fill="white"/>
<rect x="224.5" y="149" width="440" height="241" fill="url(#paint0_radial_5727_125236)"/>
<path d="M253.092 67.68H255.198V81H253.092V75.312H247.422V81H245.316V67.68H247.422V73.278H253.092V67.68ZM264.1 71.46H266.188L262.534 81H260.464L256.828 71.46H259.06L261.58 78.894L264.1 71.46ZM268.703 69.876C267.911 69.876 267.281 69.264 267.281 68.454C267.281 67.644 267.911 67.032 268.703 67.032C269.495 67.032 270.107 67.644 270.107 68.454C270.107 69.264 269.495 69.876 268.703 69.876ZM267.695 81V71.46H269.711V81H267.695ZM276.426 80.946C276.048 81.054 275.67 81.108 275.274 81.108C273.456 81.108 272.592 80.028 272.592 78.282V67.68H274.608V78.138C274.608 78.966 275.094 79.344 275.832 79.344C276.012 79.344 276.21 79.326 276.426 79.272V80.946ZM284.469 81L281.571 76.626L280.473 77.706V81H278.457V67.68H280.473V75.42L284.325 71.46H286.809L282.903 75.312L286.881 81H284.469ZM294.477 77.994L295.845 78.786C295.305 79.974 294.045 81.162 291.867 81.162C289.041 81.162 287.331 79.074 287.331 76.14C287.331 73.242 289.185 71.244 291.723 71.244C293.973 71.244 295.827 72.756 295.827 75.456L295.791 76.644H289.311C289.419 78.66 290.409 79.524 291.993 79.524C293.163 79.524 293.973 78.894 294.477 77.994ZM291.723 72.828C290.499 72.828 289.473 73.476 289.311 75.204H293.865C293.883 73.512 292.839 72.828 291.723 72.828ZM302.919 71.244C304.863 71.244 306.015 72.504 306.015 74.574V81H303.999V74.898C303.999 73.584 303.369 72.99 302.271 72.99C300.849 72.99 300.129 73.98 300.129 75.834V81H298.113V71.46H300.129V72.828C300.777 71.82 301.731 71.244 302.919 71.244ZM318.169 71.262C320.473 71.262 322.129 73.224 322.129 76.14C322.129 79.128 320.455 81.144 317.935 81.144C316.837 81.144 315.775 80.658 315.163 79.47V81H313.147V67.68H315.163V73.17C315.901 71.82 317.071 71.262 318.169 71.262ZM317.629 79.488C319.015 79.488 320.041 78.372 320.041 76.23C320.041 74.088 319.015 72.99 317.629 72.99C316.153 72.99 315.163 73.998 315.163 76.212C315.163 78.426 316.153 79.488 317.629 79.488ZM330.095 71.46H332.201L328.331 81.738C327.575 83.736 326.657 84.996 324.695 84.996C323.903 84.996 323.147 84.744 322.589 84.276L323.345 82.872C323.705 83.196 324.065 83.358 324.533 83.358C325.271 83.358 325.811 82.998 326.207 82.026L326.531 81.27L322.877 71.46H325.127L327.611 79.056L330.095 71.46ZM339.703 67.68H341.719V81H339.703V79.272C338.965 80.604 337.813 81.144 336.715 81.144C334.411 81.144 332.755 79.164 332.755 76.266C332.755 73.26 334.429 71.262 336.949 71.262C338.029 71.262 339.109 71.748 339.703 72.918V67.68ZM337.255 79.38C338.713 79.38 339.703 78.39 339.703 76.158C339.703 73.944 338.731 72.882 337.255 72.882C335.869 72.882 334.843 73.998 334.843 76.158C334.843 78.3 335.869 79.38 337.255 79.38ZM350.915 77.994L352.283 78.786C351.743 79.974 350.483 81.162 348.305 81.162C345.479 81.162 343.769 79.074 343.769 76.14C343.769 73.242 345.623 71.244 348.161 71.244C350.411 71.244 352.265 72.756 352.265 75.456L352.229 76.644H345.749C345.857 78.66 346.847 79.524 348.431 79.524C349.601 79.524 350.411 78.894 350.915 77.994ZM348.161 72.828C346.937 72.828 345.911 73.476 345.749 75.204H350.303C350.321 73.512 349.277 72.828 348.161 72.828ZM358.386 80.946C358.008 81.054 357.63 81.108 357.234 81.108C355.416 81.108 354.552 80.028 354.552 78.282V67.68H356.568V78.138C356.568 78.966 357.054 79.344 357.792 79.344C357.972 79.344 358.17 79.326 358.386 79.272V80.946ZM367.522 78.048C367.522 79.11 368.17 79.434 368.836 79.434C369.358 79.434 369.772 79.218 370.186 78.804L371.05 80.1C370.33 80.82 369.538 81.162 368.512 81.162C366.856 81.162 365.506 80.154 365.506 78.174V73.026H363.832V71.46H365.506V69.336L367.522 68.418V71.46H370.888V73.026H367.522V78.048ZM372.562 67.32H375.028V69.75H372.562V67.32ZM372.796 81V71.46H374.812V81H372.796ZM381.528 80.946C381.15 81.054 380.772 81.108 380.376 81.108C378.558 81.108 377.694 80.028 377.694 78.282V67.68H379.71V78.138C379.71 78.966 380.196 79.344 380.934 79.344C381.114 79.344 381.312 79.326 381.528 79.272V80.946ZM388.382 71.244C390.326 71.244 391.478 72.504 391.478 74.574V81H389.462V74.898C389.462 73.584 388.832 72.99 387.734 72.99C386.312 72.99 385.574 73.98 385.574 75.834V81H383.558V67.68H385.574V72.846C386.222 71.82 387.194 71.244 388.382 71.244ZM400.666 72.036C401.872 72.864 402.646 74.322 402.646 76.176C402.646 79.236 400.612 81.18 398.128 81.18C397.498 81.18 396.904 81.054 396.346 80.82L395.788 81.972H394.762L395.554 80.37C394.384 79.524 393.61 78.066 393.61 76.176C393.61 73.188 395.626 71.244 398.128 71.244C398.758 71.244 399.334 71.37 399.874 71.586L400.432 70.47H401.44L400.666 72.036ZM395.68 76.176C395.68 77.292 395.95 78.12 396.4 78.66L399.1 73.152C398.812 73.026 398.47 72.954 398.128 72.954C396.796 72.954 395.68 73.908 395.68 76.176ZM398.128 79.47C399.478 79.47 400.576 78.426 400.576 76.176C400.576 75.042 400.288 74.232 399.856 73.71L397.12 79.254C397.426 79.398 397.768 79.47 398.128 79.47ZM409.136 71.244C410.522 71.244 411.422 72.162 411.422 73.8V75.06L409.802 75.348V74.376C409.802 73.512 409.496 72.918 408.56 72.918C407.534 72.918 406.778 73.602 406.778 75.42V81H404.762V71.46H406.778V72.738C407.318 71.676 408.308 71.244 409.136 71.244ZM419.551 77.994L420.919 78.786C420.379 79.974 419.119 81.162 416.941 81.162C414.115 81.162 412.405 79.074 412.405 76.14C412.405 73.242 414.259 71.244 416.797 71.244C419.047 71.244 420.901 72.756 420.901 75.456L420.865 76.644H414.385C414.493 78.66 415.483 79.524 417.067 79.524C418.237 79.524 419.047 78.894 419.551 77.994ZM416.797 72.828C415.573 72.828 414.547 73.476 414.385 75.204H418.939C418.957 73.512 417.913 72.828 416.797 72.828ZM427.562 71.244C428.948 71.244 429.848 72.162 429.848 73.8V75.06L428.228 75.348V74.376C428.228 73.512 427.922 72.918 426.986 72.918C425.96 72.918 425.204 73.602 425.204 75.42V81H423.188V71.46H425.204V72.738C425.744 71.676 426.734 71.244 427.562 71.244ZM442.73 67.68H444.746V81H442.73V79.272C441.992 80.604 440.84 81.144 439.742 81.144C437.438 81.144 435.782 79.164 435.782 76.266C435.782 73.26 437.456 71.262 439.976 71.262C441.056 71.262 442.136 71.748 442.73 72.918V67.68ZM440.282 79.38C441.74 79.38 442.73 78.39 442.73 76.158C442.73 73.944 441.758 72.882 440.282 72.882C438.896 72.882 437.87 73.998 437.87 76.158C437.87 78.3 438.896 79.38 440.282 79.38ZM453.024 71.46H455.04V81H453.024V79.596C452.412 80.64 451.458 81.162 450.288 81.162C448.326 81.162 447.192 79.902 447.192 77.832V71.46H449.208V77.526C449.208 78.768 449.82 79.434 450.918 79.434C452.322 79.434 453.024 78.426 453.024 76.572V71.46ZM460.823 67.5C463.307 67.5 465.053 68.922 465.053 71.19C465.053 73.44 463.307 74.664 461.327 75.222L461.291 76.77H459.653L459.545 74.07C461.489 73.782 462.893 73.044 462.893 71.298C462.893 70.128 462.083 69.372 460.751 69.372C459.545 69.372 458.627 70.038 458.033 71.226L456.305 70.488C457.241 68.49 458.951 67.5 460.823 67.5ZM460.463 78.102C461.327 78.102 461.975 78.768 461.975 79.614C461.975 80.46 461.327 81.126 460.463 81.126C459.617 81.126 458.969 80.46 458.969 79.614C458.969 78.768 459.617 78.102 460.463 78.102Z" fill="#2A2859"/>
<path d="M245.962 113H244.982V102.64H251.086V103.564H245.962V107.512H250.134V108.436H245.962V113ZM254.7 113.112C252.866 113.112 251.396 111.6 251.396 109.276C251.396 106.98 252.852 105.468 254.7 105.468C256.548 105.468 258.004 106.98 258.004 109.276C258.004 111.6 256.534 113.112 254.7 113.112ZM254.7 112.272C255.974 112.272 257.024 111.264 257.024 109.276C257.024 107.302 255.96 106.308 254.7 106.308C253.44 106.308 252.376 107.302 252.376 109.276C252.376 111.264 253.426 112.272 254.7 112.272ZM262.598 105.468C263.564 105.468 264.264 106.112 264.264 107.372V108.1L263.396 108.268V107.54C263.396 106.798 263.144 106.308 262.388 106.308C261.534 106.308 260.89 106.938 260.89 108.436V113H259.938V105.58H260.89V106.504C261.282 105.804 261.94 105.468 262.598 105.468ZM272.373 104.796C271.463 104.796 270.721 104.124 270.721 103.2C270.721 102.276 271.463 101.604 272.373 101.604C273.283 101.604 274.025 102.276 274.025 103.2C274.025 104.124 273.283 104.796 272.373 104.796ZM272.373 102.248C271.841 102.248 271.421 102.584 271.421 103.2C271.421 103.83 271.841 104.152 272.373 104.152C272.905 104.152 273.325 103.83 273.325 103.2C273.325 102.584 272.905 102.248 272.373 102.248ZM275.257 113H274.389C274.277 112.594 274.193 112.104 274.193 111.544C273.815 112.412 272.849 113.112 271.645 113.112C270.329 113.112 269.335 112.258 269.335 110.984C269.335 109.458 270.707 108.66 272.233 108.66C272.835 108.66 273.423 108.73 274.025 108.94V107.96C274.025 106.994 273.437 106.336 272.289 106.336C271.365 106.336 270.581 106.742 270.189 107.876L269.349 107.624C269.909 106.056 271.043 105.468 272.345 105.468C274.179 105.468 274.949 106.574 274.949 107.848V110.9C274.949 111.74 275.089 112.496 275.257 113ZM274.025 109.92V109.752C273.451 109.514 272.863 109.444 272.289 109.444C271.169 109.444 270.287 109.948 270.287 110.928C270.287 111.824 270.917 112.3 271.813 112.3C272.779 112.3 274.025 111.726 274.025 109.92ZM285.558 113L282.828 109.318L281.918 110.186V113H280.966V102.64H281.918V109.066L285.446 105.58H286.706L283.472 108.688L286.762 113H285.558ZM292.25 105.58H293.202V113H292.25V111.866C291.802 112.664 291.018 113.112 290.108 113.112C288.652 113.112 287.77 112.174 287.77 110.564V105.58H288.722V110.48C288.722 111.698 289.338 112.258 290.374 112.258C291.69 112.258 292.25 111.208 292.25 109.752V105.58ZM298.662 105.468C300.146 105.468 301.014 106.378 301.014 108.044V113H300.062V108.184C300.062 106.84 299.446 106.336 298.41 106.336C297.108 106.336 296.506 107.344 296.506 108.828V113H295.554V105.58H296.506V106.728C296.954 105.916 297.766 105.468 298.662 105.468ZM306.414 105.468C307.898 105.468 308.766 106.378 308.766 108.044V113H307.814V108.184C307.814 106.84 307.198 106.336 306.162 106.336C304.86 106.336 304.258 107.344 304.258 108.828V113H303.306V105.58H304.258V106.728C304.706 105.916 305.518 105.468 306.414 105.468ZM316.126 110.9L316.826 111.292C316.476 112.188 315.552 113.112 313.9 113.112C311.814 113.112 310.582 111.558 310.582 109.192C310.582 107.022 311.87 105.468 313.802 105.468C315.398 105.468 316.77 106.616 316.77 108.632L316.742 109.458H311.548C311.632 111.432 312.57 112.272 313.998 112.272C315.118 112.272 315.776 111.628 316.126 110.9ZM313.802 106.308C312.682 106.308 311.674 106.91 311.548 108.674H315.832C315.874 107.008 314.894 106.308 313.802 106.308ZM322 107.512C322 106.336 323.106 105.468 324.66 105.468C326.004 105.468 327.04 106.112 327.348 107.092L326.564 107.4C326.27 106.686 325.584 106.308 324.632 106.308C323.596 106.308 322.924 106.742 322.924 107.428C322.924 108.044 323.33 108.422 324.212 108.604L325.192 108.8C326.816 109.122 327.572 109.822 327.572 110.928C327.572 112.216 326.424 113.112 324.772 113.112C323.274 113.112 322.224 112.524 321.72 111.404L322.532 111.068C322.882 111.852 323.652 112.272 324.744 112.272C325.892 112.272 326.648 111.768 326.648 111.012C326.648 110.312 326.256 109.934 325.276 109.724L324.072 109.472C322.714 109.192 322 108.506 322 107.512ZM334.514 110.9L335.214 111.292C334.864 112.188 333.94 113.112 332.288 113.112C330.202 113.112 328.97 111.558 328.97 109.192C328.97 107.022 330.258 105.468 332.19 105.468C333.786 105.468 335.158 106.616 335.158 108.632L335.13 109.458H329.936C330.02 111.432 330.958 112.272 332.386 112.272C333.506 112.272 334.164 111.628 334.514 110.9ZM332.19 106.308C331.07 106.308 330.062 106.91 329.936 108.674H334.22C334.262 107.008 333.282 106.308 332.19 106.308ZM340.279 105.468C341.763 105.468 342.631 106.378 342.631 108.044V113H341.679V108.184C341.679 106.84 341.063 106.336 340.027 106.336C338.725 106.336 338.123 107.344 338.123 108.828V113H337.171V105.58H338.123V106.728C338.571 105.916 339.383 105.468 340.279 105.468ZM350.047 102.64H350.999V113H350.047V111.614C349.557 112.566 348.577 113.098 347.611 113.098C345.721 113.098 344.447 111.516 344.447 109.36C344.447 107.078 345.735 105.468 347.723 105.468C348.759 105.468 349.599 105.986 350.047 106.924V102.64ZM347.709 112.258C349.193 112.258 350.047 111.152 350.047 109.332C350.047 107.4 349.207 106.308 347.723 106.308C346.337 106.308 345.427 107.372 345.427 109.318C345.427 111.194 346.337 112.258 347.709 112.258ZM358.413 110.9L359.113 111.292C358.763 112.188 357.839 113.112 356.187 113.112C354.101 113.112 352.869 111.558 352.869 109.192C352.869 107.022 354.157 105.468 356.089 105.468C357.685 105.468 359.057 106.616 359.057 108.632L359.029 109.458H353.835C353.919 111.432 354.857 112.272 356.285 112.272C357.405 112.272 358.063 111.628 358.413 110.9ZM356.089 106.308C354.969 106.308 353.961 106.91 353.835 108.674H358.119C358.161 107.008 357.181 106.308 356.089 106.308ZM367.787 105.468C369.271 105.468 370.139 106.378 370.139 108.044V113H369.187V108.184C369.187 106.84 368.571 106.336 367.535 106.336C366.233 106.336 365.631 107.344 365.631 108.828V113H364.679V102.64H365.631V106.728C366.079 105.916 366.891 105.468 367.787 105.468ZM377.499 110.9L378.199 111.292C377.849 112.188 376.925 113.112 375.273 113.112C373.187 113.112 371.955 111.558 371.955 109.192C371.955 107.022 373.243 105.468 375.175 105.468C376.771 105.468 378.143 106.616 378.143 108.632L378.115 109.458H372.921C373.005 111.432 373.943 112.272 375.371 112.272C376.491 112.272 377.149 111.628 377.499 110.9ZM375.175 106.308C374.055 106.308 373.047 106.91 372.921 108.674H377.205C377.247 107.008 376.267 106.308 375.175 106.308ZM383.263 105.468C384.747 105.468 385.615 106.378 385.615 108.044V113H384.663V108.184C384.663 106.84 384.047 106.336 383.011 106.336C381.709 106.336 381.107 107.344 381.107 108.828V113H380.155V105.58H381.107V106.728C381.555 105.916 382.367 105.468 383.263 105.468ZM392.502 105.58H393.482L390.57 113H389.73L386.818 105.58H387.854L390.178 111.95L392.502 105.58ZM399.729 110.9L400.429 111.292C400.079 112.188 399.155 113.112 397.503 113.112C395.417 113.112 394.185 111.558 394.185 109.192C394.185 107.022 395.473 105.468 397.405 105.468C399.001 105.468 400.373 106.616 400.373 108.632L400.345 109.458H395.151C395.235 111.432 396.173 112.272 397.601 112.272C398.721 112.272 399.379 111.628 399.729 110.9ZM397.405 106.308C396.285 106.308 395.277 106.91 395.151 108.674H399.435C399.477 107.008 398.497 106.308 397.405 106.308ZM405.494 105.468C406.978 105.468 407.846 106.378 407.846 108.044V113H406.894V108.184C406.894 106.84 406.278 106.336 405.242 106.336C403.94 106.336 403.338 107.344 403.338 108.828V113H402.386V105.58H403.338V106.728C403.786 105.916 404.598 105.468 405.494 105.468ZM415.262 102.64H416.214V113H415.262V111.614C414.772 112.566 413.792 113.098 412.826 113.098C410.936 113.098 409.662 111.516 409.662 109.36C409.662 107.078 410.95 105.468 412.938 105.468C413.974 105.468 414.814 105.986 415.262 106.924V102.64ZM412.924 112.258C414.408 112.258 415.262 111.152 415.262 109.332C415.262 107.4 414.422 106.308 412.938 106.308C411.552 106.308 410.642 107.372 410.642 109.318C410.642 111.194 411.552 112.258 412.924 112.258ZM423.627 110.9L424.327 111.292C423.977 112.188 423.053 113.112 421.401 113.112C419.315 113.112 418.083 111.558 418.083 109.192C418.083 107.022 419.371 105.468 421.303 105.468C422.899 105.468 424.271 106.616 424.271 108.632L424.243 109.458H419.049C419.133 111.432 420.071 112.272 421.499 112.272C422.619 112.272 423.277 111.628 423.627 110.9ZM421.303 106.308C420.183 106.308 419.175 106.91 419.049 108.674H423.333C423.375 107.008 422.395 106.308 421.303 106.308ZM428.608 112.972C428.384 113.028 428.202 113.056 427.992 113.056C426.83 113.056 426.284 112.328 426.284 111.236V102.64H427.236V111.236C427.236 111.866 427.572 112.188 428.16 112.188C428.314 112.188 428.468 112.174 428.608 112.132V112.972ZM429.981 107.512C429.981 106.336 431.087 105.468 432.641 105.468C433.985 105.468 435.021 106.112 435.329 107.092L434.545 107.4C434.251 106.686 433.565 106.308 432.613 106.308C431.577 106.308 430.905 106.742 430.905 107.428C430.905 108.044 431.311 108.422 432.193 108.604L433.173 108.8C434.797 109.122 435.553 109.822 435.553 110.928C435.553 112.216 434.405 113.112 432.753 113.112C431.255 113.112 430.205 112.524 429.701 111.404L430.513 111.068C430.863 111.852 431.633 112.272 432.725 112.272C433.873 112.272 434.629 111.768 434.629 111.012C434.629 110.312 434.237 109.934 433.257 109.724L432.053 109.472C430.695 109.192 429.981 108.506 429.981 107.512ZM442.495 110.9L443.195 111.292C442.845 112.188 441.921 113.112 440.269 113.112C438.183 113.112 436.951 111.558 436.951 109.192C436.951 107.022 438.239 105.468 440.171 105.468C441.767 105.468 443.139 106.616 443.139 108.632L443.111 109.458H437.917C438.001 111.432 438.939 112.272 440.367 112.272C441.487 112.272 442.145 111.628 442.495 110.9ZM440.171 106.308C439.051 106.308 438.043 106.91 437.917 108.674H442.201C442.243 107.008 441.263 106.308 440.171 106.308ZM448.259 105.468C449.743 105.468 450.611 106.378 450.611 108.044V113H449.659V108.184C449.659 106.84 449.043 106.336 448.007 106.336C446.705 106.336 446.103 107.344 446.103 108.828V113H445.151V105.58H446.103V106.728C446.551 105.916 447.363 105.468 448.259 105.468ZM461.609 102.64H462.561V113H461.609V111.614C461.119 112.566 460.139 113.098 459.173 113.098C457.283 113.098 456.009 111.516 456.009 109.36C456.009 107.078 457.297 105.468 459.285 105.468C460.321 105.468 461.161 105.986 461.609 106.924V102.64ZM459.271 112.258C460.755 112.258 461.609 111.152 461.609 109.332C461.609 107.4 460.769 106.308 459.285 106.308C457.899 106.308 456.989 107.372 456.989 109.318C456.989 111.194 457.899 112.258 459.271 112.258ZM465.383 104.236C464.921 104.236 464.543 103.872 464.543 103.396C464.543 102.92 464.921 102.556 465.383 102.556C465.845 102.556 466.223 102.92 466.223 103.396C466.223 103.872 465.845 104.236 465.383 104.236ZM464.907 113V105.58H465.859V113H464.907ZM471.378 105.468C472.862 105.468 473.73 106.378 473.73 108.044V113H472.778V108.184C472.778 106.84 472.162 106.336 471.126 106.336C469.824 106.336 469.222 107.344 469.222 108.828V113H468.27V105.58H469.222V106.728C469.67 105.916 470.482 105.468 471.378 105.468ZM481.088 111.152C481.088 112.02 481.606 112.272 482.068 112.272C482.516 112.272 482.81 112.104 483.16 111.74L483.664 112.3C483.174 112.874 482.642 113.112 481.984 113.112C480.976 113.112 480.136 112.44 480.136 111.124V106.364H478.736V105.58H480.136V103.984L481.088 103.424V105.58H483.496V106.364H481.088V111.152ZM485.04 102.696H486.496V104.124H485.04V102.696ZM485.292 113V105.58H486.244V113H485.292ZM490.979 112.972C490.755 113.028 490.573 113.056 490.363 113.056C489.201 113.056 488.655 112.328 488.655 111.236V102.64H489.607V111.236C489.607 111.866 489.943 112.188 490.531 112.188C490.685 112.188 490.839 112.174 490.979 112.132V112.972ZM498.958 105.468C499.924 105.468 500.624 106.112 500.624 107.372V108.1L499.756 108.268V107.54C499.756 106.798 499.504 106.308 498.748 106.308C497.894 106.308 497.25 106.938 497.25 108.436V113H496.298V105.58H497.25V106.504C497.642 105.804 498.3 105.468 498.958 105.468ZM502.981 104.236C502.519 104.236 502.141 103.872 502.141 103.396C502.141 102.92 502.519 102.556 502.981 102.556C503.443 102.556 503.821 102.92 503.821 103.396C503.821 103.872 503.443 104.236 502.981 104.236ZM502.505 113V105.58H503.457V113H502.505ZM510.488 113L507.758 109.318L506.848 110.186V113H505.896V102.64H506.848V109.066L510.376 105.58H511.636L508.402 108.688L511.692 113H510.488ZM514.502 111.152C514.502 112.02 515.02 112.272 515.482 112.272C515.93 112.272 516.224 112.104 516.574 111.74L517.078 112.3C516.588 112.874 516.056 113.112 515.398 113.112C514.39 113.112 513.55 112.44 513.55 111.124V106.364H512.15V105.58H513.55V103.984L514.502 103.424V105.58H516.91V106.364H514.502V111.152ZM518.454 102.696H519.91V104.124H518.454V102.696ZM518.706 113V105.58H519.658V113H518.706ZM528.733 106.364H527.137V106.63C527.501 107.078 527.697 107.638 527.697 108.184C527.697 109.542 526.717 110.928 524.631 110.928H524.309C523.469 110.928 522.867 111.25 522.867 111.74C522.867 112.118 523.161 112.384 523.777 112.384H526.787C527.991 112.384 528.607 112.972 528.607 113.896C528.607 115.366 526.913 116.136 524.827 116.136C522.951 116.136 521.649 115.534 521.201 114.232L521.971 113.882C522.489 115.1 523.581 115.338 524.827 115.338C526.367 115.338 527.655 114.876 527.655 113.98C527.655 113.56 527.431 113.252 526.759 113.252H523.567C522.531 113.252 521.915 112.762 521.915 111.992C521.915 111.334 522.461 110.76 523.371 110.522C522.391 110.13 521.845 109.094 521.845 108.184C521.845 106.854 522.839 105.468 524.799 105.468C525.569 105.468 526.157 105.72 526.605 106.098V105.58H528.733V106.364ZM524.785 110.144C526.101 110.144 526.759 109.234 526.759 108.184C526.759 107.148 526.101 106.28 524.785 106.28C523.455 106.28 522.783 107.162 522.783 108.184C522.783 109.22 523.455 110.144 524.785 110.144ZM538.868 110.9L539.568 111.292C539.218 112.188 538.294 113.112 536.642 113.112C534.556 113.112 533.324 111.558 533.324 109.192C533.324 107.022 534.612 105.468 536.544 105.468C538.14 105.468 539.512 106.616 539.512 108.632L539.484 109.458H534.29C534.374 111.432 535.312 112.272 536.74 112.272C537.86 112.272 538.518 111.628 538.868 110.9ZM536.544 106.308C535.424 106.308 534.416 106.91 534.29 108.674H538.574C538.616 107.008 537.636 106.308 536.544 106.308ZM542.872 111.152C542.872 112.02 543.39 112.272 543.852 112.272C544.3 112.272 544.594 112.104 544.944 111.74L545.448 112.3C544.958 112.874 544.426 113.112 543.768 113.112C542.76 113.112 541.92 112.44 541.92 111.124V106.364H540.52V105.58H541.92V103.984L542.872 103.424V105.58H545.28V106.364H542.872V111.152ZM552.332 113H551.464C551.352 112.594 551.268 112.104 551.268 111.544C550.89 112.412 549.924 113.112 548.72 113.112C547.404 113.112 546.41 112.258 546.41 110.984C546.41 109.458 547.782 108.66 549.308 108.66C549.91 108.66 550.498 108.73 551.1 108.94V107.96C551.1 106.994 550.512 106.336 549.364 106.336C548.44 106.336 547.656 106.742 547.264 107.876L546.424 107.624C546.984 106.056 548.118 105.468 549.42 105.468C551.254 105.468 552.024 106.574 552.024 107.848V110.9C552.024 111.74 552.164 112.496 552.332 113ZM551.1 109.92V109.752C550.526 109.514 549.938 109.444 549.364 109.444C548.244 109.444 547.362 109.948 547.362 110.928C547.362 111.824 547.992 112.3 548.888 112.3C549.854 112.3 551.1 111.726 551.1 109.92ZM555.778 111.152C555.778 112.02 556.296 112.272 556.758 112.272C557.206 112.272 557.5 112.104 557.85 111.74L558.354 112.3C557.864 112.874 557.332 113.112 556.674 113.112C555.666 113.112 554.826 112.44 554.826 111.124V106.364H553.426V105.58H554.826V103.984L555.778 103.424V105.58H558.186V106.364H555.778V111.152ZM562.697 101.94H563.621L560.821 115.1H559.897L562.697 101.94ZM569.358 105.482C571.248 105.482 572.522 107.064 572.522 109.22C572.522 111.502 571.234 113.112 569.246 113.112C568.21 113.112 567.37 112.594 566.922 111.656V113H565.97V102.64H566.922V106.966C567.412 106.014 568.392 105.482 569.358 105.482ZM569.246 112.272C570.632 112.272 571.542 111.208 571.542 109.262C571.542 107.386 570.632 106.322 569.26 106.322C567.776 106.322 566.922 107.428 566.922 109.248C566.922 111.18 567.762 112.272 569.246 112.272ZM578.95 105.58H579.93L576.668 114.022C576.178 115.282 575.632 116.08 574.484 116.08C573.98 116.08 573.518 115.898 573.168 115.576L573.588 114.89C573.868 115.142 574.134 115.254 574.456 115.254C574.974 115.254 575.338 115.03 575.702 114.176L576.136 113.126L573.35 105.58H574.386L576.626 112.006L578.95 105.58ZM586.174 102.64H587.126V113H586.174V111.614C585.684 112.566 584.704 113.098 583.738 113.098C581.848 113.098 580.574 111.516 580.574 109.36C580.574 107.078 581.862 105.468 583.85 105.468C584.886 105.468 585.726 105.986 586.174 106.924V102.64ZM583.836 112.258C585.32 112.258 586.174 111.152 586.174 109.332C586.174 107.4 585.334 106.308 583.85 106.308C582.464 106.308 581.554 107.372 581.554 109.318C581.554 111.194 582.464 112.258 583.836 112.258ZM594.54 110.9L595.24 111.292C594.89 112.188 593.966 113.112 592.314 113.112C590.228 113.112 588.996 111.558 588.996 109.192C588.996 107.022 590.284 105.468 592.216 105.468C593.812 105.468 595.184 106.616 595.184 108.632L595.156 109.458H589.962C590.046 111.432 590.984 112.272 592.412 112.272C593.532 112.272 594.19 111.628 594.54 110.9ZM592.216 106.308C591.096 106.308 590.088 106.91 589.962 108.674H594.246C594.288 107.008 593.308 106.308 592.216 106.308ZM599.52 112.972C599.296 113.028 599.114 113.056 598.904 113.056C597.742 113.056 597.196 112.328 597.196 111.236V102.64H598.148V111.236C598.148 111.866 598.484 112.188 599.072 112.188C599.226 112.188 599.38 112.174 599.52 112.132V112.972ZM246.438 133.152C246.438 134.02 246.956 134.272 247.418 134.272C247.866 134.272 248.16 134.104 248.51 133.74L249.014 134.3C248.524 134.874 247.992 135.112 247.334 135.112C246.326 135.112 245.486 134.44 245.486 133.124V128.364H244.086V127.58H245.486V125.984L246.438 125.424V127.58H248.846V128.364H246.438V133.152ZM253.302 127.468C254.268 127.468 254.968 128.112 254.968 129.372V130.1L254.1 130.268V129.54C254.1 128.798 253.848 128.308 253.092 128.308C252.238 128.308 251.594 128.938 251.594 130.436V135H250.642V127.58H251.594V128.504C251.986 127.804 252.644 127.468 253.302 127.468ZM261.493 132.9L262.193 133.292C261.843 134.188 260.919 135.112 259.267 135.112C257.181 135.112 255.949 133.558 255.949 131.192C255.949 129.022 257.237 127.468 259.169 127.468C260.765 127.468 262.137 128.616 262.137 130.632L262.109 131.458H256.915C256.999 133.432 257.937 134.272 259.365 134.272C260.485 134.272 261.143 133.628 261.493 132.9ZM259.169 128.308C258.049 128.308 257.041 128.91 256.915 130.674H261.199C261.241 129.008 260.261 128.308 259.169 128.308ZM267.257 127.468C268.741 127.468 269.609 128.378 269.609 130.044V135H268.657V130.184C268.657 128.84 268.041 128.336 267.005 128.336C265.703 128.336 265.101 129.344 265.101 130.828V135H264.149V127.58H265.101V128.728C265.549 127.916 266.361 127.468 267.257 127.468ZM278.565 128.364H276.969V128.63C277.333 129.078 277.529 129.638 277.529 130.184C277.529 131.542 276.549 132.928 274.463 132.928H274.141C273.301 132.928 272.699 133.25 272.699 133.74C272.699 134.118 272.993 134.384 273.609 134.384H276.619C277.823 134.384 278.439 134.972 278.439 135.896C278.439 137.366 276.745 138.136 274.659 138.136C272.783 138.136 271.481 137.534 271.033 136.232L271.803 135.882C272.321 137.1 273.413 137.338 274.659 137.338C276.199 137.338 277.487 136.876 277.487 135.98C277.487 135.56 277.263 135.252 276.591 135.252H273.399C272.363 135.252 271.747 134.762 271.747 133.992C271.747 133.334 272.293 132.76 273.203 132.522C272.223 132.13 271.677 131.094 271.677 130.184C271.677 128.854 272.671 127.468 274.631 127.468C275.401 127.468 275.989 127.72 276.437 128.098V127.58H278.565V128.364ZM274.617 132.144C275.933 132.144 276.591 131.234 276.591 130.184C276.591 129.148 275.933 128.28 274.617 128.28C273.287 128.28 272.615 129.162 272.615 130.184C272.615 131.22 273.287 132.144 274.617 132.144ZM284.557 132.9L285.257 133.292C284.907 134.188 283.983 135.112 282.331 135.112C280.245 135.112 279.013 133.558 279.013 131.192C279.013 129.022 280.301 127.468 282.233 127.468C283.829 127.468 285.201 128.616 285.201 130.632L285.173 131.458H279.979C280.063 133.432 281.001 134.272 282.429 134.272C283.549 134.272 284.207 133.628 284.557 132.9ZM282.233 128.308C281.113 128.308 280.105 128.91 279.979 130.674H284.263C284.305 129.008 283.325 128.308 282.233 128.308ZM289.874 127.468C290.84 127.468 291.54 128.112 291.54 129.372V130.1L290.672 130.268V129.54C290.672 128.798 290.42 128.308 289.664 128.308C288.81 128.308 288.166 128.938 288.166 130.436V135H287.214V127.58H288.166V128.504C288.558 127.804 289.216 127.468 289.874 127.468ZM301.735 127.58H302.715L299.803 135H298.963L296.051 127.58H297.087L299.411 133.95L301.735 127.58ZM304.643 126.236C304.181 126.236 303.803 125.872 303.803 125.396C303.803 124.92 304.181 124.556 304.643 124.556C305.105 124.556 305.483 124.92 305.483 125.396C305.483 125.872 305.105 126.236 304.643 126.236ZM304.167 135V127.58H305.119V135H304.167ZM313.758 126.796C312.848 126.796 312.106 126.124 312.106 125.2C312.106 124.276 312.848 123.604 313.758 123.604C314.668 123.604 315.41 124.276 315.41 125.2C315.41 126.124 314.668 126.796 313.758 126.796ZM313.758 124.248C313.226 124.248 312.806 124.584 312.806 125.2C312.806 125.83 313.226 126.152 313.758 126.152C314.29 126.152 314.71 125.83 314.71 125.2C314.71 124.584 314.29 124.248 313.758 124.248ZM316.642 135H315.774C315.662 134.594 315.578 134.104 315.578 133.544C315.2 134.412 314.234 135.112 313.03 135.112C311.714 135.112 310.72 134.258 310.72 132.984C310.72 131.458 312.092 130.66 313.618 130.66C314.22 130.66 314.808 130.73 315.41 130.94V129.96C315.41 128.994 314.822 128.336 313.674 128.336C312.75 128.336 311.966 128.742 311.574 129.876L310.734 129.624C311.294 128.056 312.428 127.468 313.73 127.468C315.564 127.468 316.334 128.574 316.334 129.848V132.9C316.334 133.74 316.474 134.496 316.642 135ZM315.41 131.92V131.752C314.836 131.514 314.248 131.444 313.674 131.444C312.554 131.444 311.672 131.948 311.672 132.928C311.672 133.824 312.302 134.3 313.198 134.3C314.164 134.3 315.41 133.726 315.41 131.92ZM327.055 127.58H328.035L325.123 135H324.283L321.371 127.58H322.407L324.731 133.95L327.055 127.58ZM329.235 124.696H330.691V126.124H329.235V124.696ZM329.487 135V127.58H330.439V135H329.487ZM334.334 133.152C334.334 134.02 334.852 134.272 335.314 134.272C335.762 134.272 336.056 134.104 336.406 133.74L336.91 134.3C336.42 134.874 335.888 135.112 335.23 135.112C334.222 135.112 333.382 134.44 333.382 133.124V128.364H331.982V127.58H333.382V125.984L334.334 125.424V127.58H336.742V128.364H334.334V133.152ZM343.182 132.9L343.882 133.292C343.532 134.188 342.608 135.112 340.956 135.112C338.87 135.112 337.638 133.558 337.638 131.192C337.638 129.022 338.926 127.468 340.858 127.468C342.454 127.468 343.826 128.616 343.826 130.632L343.798 131.458H338.604C338.688 133.432 339.626 134.272 341.054 134.272C342.174 134.272 342.832 133.628 343.182 132.9ZM340.858 128.308C339.738 128.308 338.73 128.91 338.604 130.674H342.888C342.93 129.008 341.95 128.308 340.858 128.308ZM352.557 127.468C354.041 127.468 354.909 128.378 354.909 130.044V135H353.957V130.184C353.957 128.84 353.341 128.336 352.305 128.336C351.003 128.336 350.401 129.344 350.401 130.828V135H349.449V124.64H350.401V128.728C350.849 127.916 351.661 127.468 352.557 127.468ZM361.795 127.58H362.775L359.863 135H359.023L356.111 127.58H357.147L359.471 133.95L361.795 127.58ZM364.703 126.236C364.241 126.236 363.863 125.872 363.863 125.396C363.863 124.92 364.241 124.556 364.703 124.556C365.165 124.556 365.543 124.92 365.543 125.396C365.543 125.872 365.165 126.236 364.703 126.236ZM364.227 135V127.58H365.179V135H364.227ZM369.915 134.972C369.691 135.028 369.509 135.056 369.299 135.056C368.137 135.056 367.591 134.328 367.591 133.236V124.64H368.543V133.236C368.543 133.866 368.879 134.188 369.467 134.188C369.621 134.188 369.775 134.174 369.915 134.132V134.972ZM376.271 135L373.541 131.318L372.631 132.186V135H371.679V124.64H372.631V131.066L376.159 127.58H377.419L374.185 130.688L377.475 135H376.271ZM383.583 132.9L384.283 133.292C383.933 134.188 383.009 135.112 381.357 135.112C379.271 135.112 378.039 133.558 378.039 131.192C378.039 129.022 379.327 127.468 381.259 127.468C382.855 127.468 384.227 128.616 384.227 130.632L384.199 131.458H379.005C379.089 133.432 380.027 134.272 381.455 134.272C382.575 134.272 383.233 133.628 383.583 132.9ZM381.259 128.308C380.139 128.308 379.131 128.91 379.005 130.674H383.289C383.331 129.008 382.351 128.308 381.259 128.308ZM389.347 127.468C390.831 127.468 391.699 128.378 391.699 130.044V135H390.747V130.184C390.747 128.84 390.131 128.336 389.095 128.336C387.793 128.336 387.191 129.344 387.191 130.828V135H386.239V127.58H387.191V128.728C387.639 127.916 388.451 127.468 389.347 127.468ZM400.989 127.482C402.879 127.482 404.153 129.064 404.153 131.22C404.153 133.502 402.865 135.112 400.877 135.112C399.841 135.112 399.001 134.594 398.553 133.656V135H397.601V124.64H398.553V128.966C399.043 128.014 400.023 127.482 400.989 127.482ZM400.877 134.272C402.263 134.272 403.173 133.208 403.173 131.262C403.173 129.386 402.263 128.322 400.891 128.322C399.407 128.322 398.553 129.428 398.553 131.248C398.553 133.18 399.393 134.272 400.877 134.272ZM410.581 127.58H411.561L408.299 136.022C407.809 137.282 407.263 138.08 406.115 138.08C405.611 138.08 405.149 137.898 404.799 137.576L405.219 136.89C405.499 137.142 405.765 137.254 406.087 137.254C406.605 137.254 406.969 137.03 407.333 136.176L407.767 135.126L404.981 127.58H406.017L408.257 134.006L410.581 127.58ZM417.805 124.64H418.757V135H417.805V133.614C417.315 134.566 416.335 135.098 415.369 135.098C413.479 135.098 412.205 133.516 412.205 131.36C412.205 129.078 413.493 127.468 415.481 127.468C416.517 127.468 417.357 127.986 417.805 128.924V124.64ZM415.467 134.258C416.951 134.258 417.805 133.152 417.805 131.332C417.805 129.4 416.965 128.308 415.481 128.308C414.095 128.308 413.185 129.372 413.185 131.318C413.185 133.194 414.095 134.258 415.467 134.258ZM426.17 132.9L426.87 133.292C426.52 134.188 425.596 135.112 423.944 135.112C421.858 135.112 420.626 133.558 420.626 131.192C420.626 129.022 421.914 127.468 423.846 127.468C425.442 127.468 426.814 128.616 426.814 130.632L426.786 131.458H421.592C421.676 133.432 422.614 134.272 424.042 134.272C425.162 134.272 425.82 133.628 426.17 132.9ZM423.846 128.308C422.726 128.308 421.718 128.91 421.592 130.674H425.876C425.918 129.008 424.938 128.308 423.846 128.308ZM431.151 134.972C430.927 135.028 430.745 135.056 430.535 135.056C429.373 135.056 428.827 134.328 428.827 133.236V124.64H429.779V133.236C429.779 133.866 430.115 134.188 430.703 134.188C430.857 134.188 431.011 134.174 431.151 134.132V134.972ZM441.594 124.64H442.546V135H441.594V133.614C441.104 134.566 440.124 135.098 439.158 135.098C437.268 135.098 435.994 133.516 435.994 131.36C435.994 129.078 437.282 127.468 439.27 127.468C440.306 127.468 441.146 127.986 441.594 128.924V124.64ZM439.256 134.258C440.74 134.258 441.594 133.152 441.594 131.332C441.594 129.4 440.754 128.308 439.27 128.308C437.884 128.308 436.974 129.372 436.974 131.318C436.974 133.194 437.884 134.258 439.256 134.258ZM449.204 127.58H450.156V135H449.204V133.866C448.756 134.664 447.972 135.112 447.062 135.112C445.606 135.112 444.724 134.174 444.724 132.564V127.58H445.676V132.48C445.676 133.698 446.292 134.258 447.328 134.258C448.644 134.258 449.204 133.208 449.204 131.752V127.58ZM459.505 127.482C461.395 127.482 462.669 129.064 462.669 131.22C462.669 133.502 461.381 135.112 459.393 135.112C458.357 135.112 457.517 134.594 457.069 133.656V135H456.117V124.64H457.069V128.966C457.559 128.014 458.539 127.482 459.505 127.482ZM459.393 134.272C460.779 134.272 461.689 133.208 461.689 131.262C461.689 129.386 460.779 128.322 459.407 128.322C457.923 128.322 457.069 129.428 457.069 131.248C457.069 133.18 457.909 134.272 459.393 134.272ZM467.434 135.112C465.6 135.112 464.13 133.6 464.13 131.276C464.13 128.98 465.586 127.468 467.434 127.468C469.282 127.468 470.738 128.98 470.738 131.276C470.738 133.6 469.268 135.112 467.434 135.112ZM467.434 134.272C468.708 134.272 469.758 133.264 469.758 131.276C469.758 129.302 468.694 128.308 467.434 128.308C466.174 128.308 465.11 129.302 465.11 131.276C465.11 133.264 466.16 134.272 467.434 134.272ZM475.333 127.468C476.299 127.468 476.999 128.112 476.999 129.372V130.1L476.131 130.268V129.54C476.131 128.798 475.879 128.308 475.123 128.308C474.269 128.308 473.625 128.938 473.625 130.436V135H472.673V127.58H473.625V128.504C474.017 127.804 474.675 127.468 475.333 127.468ZM482.21 124.696H483.666V126.124H482.21V124.696ZM482.462 135V127.58H483.414V135H482.462ZM486.525 135.084C486.021 135.084 485.629 134.706 485.629 134.188C485.629 133.67 486.021 133.292 486.525 133.292C487.029 133.292 487.421 133.67 487.421 134.188C487.421 134.706 487.029 135.084 486.525 135.084Z" fill="#2A2859"/>
<rect x="245.75" y="151" width="397" height="44" fill="white"/>
<path d="M269.938 165.68H271.27L266.392 179H265.132L260.29 165.68H261.658L265.78 177.542L269.938 165.68ZM278.407 176.3L279.307 176.804C278.857 177.956 277.669 179.144 275.545 179.144C272.863 179.144 271.279 177.146 271.279 174.104C271.279 171.314 272.935 169.316 275.419 169.316C277.471 169.316 279.235 170.792 279.235 173.384L279.199 174.446H272.521C272.629 176.984 273.835 178.064 275.671 178.064C277.111 178.064 277.957 177.236 278.407 176.3ZM275.419 170.396C273.979 170.396 272.683 171.17 272.521 173.438H278.029C278.083 171.296 276.823 170.396 275.419 170.396ZM284.611 178.964C284.323 179.036 284.089 179.072 283.819 179.072C282.325 179.072 281.623 178.136 281.623 176.732V165.68H282.847V176.732C282.847 177.542 283.279 177.956 284.035 177.956C284.233 177.956 284.431 177.938 284.611 177.884V178.964ZM294.86 170.468H292.808V170.81C293.276 171.386 293.528 172.106 293.528 172.808C293.528 174.554 292.268 176.336 289.586 176.336H289.172C288.092 176.336 287.318 176.75 287.318 177.38C287.318 177.866 287.696 178.208 288.488 178.208H292.358C293.906 178.208 294.698 178.964 294.698 180.152C294.698 182.042 292.52 183.032 289.838 183.032C287.426 183.032 285.752 182.258 285.176 180.584L286.166 180.134C286.832 181.7 288.236 182.006 289.838 182.006C291.818 182.006 293.474 181.412 293.474 180.26C293.474 179.72 293.186 179.324 292.322 179.324H288.218C286.886 179.324 286.094 178.694 286.094 177.704C286.094 176.858 286.796 176.12 287.966 175.814C286.706 175.31 286.004 173.978 286.004 172.808C286.004 171.098 287.282 169.316 289.802 169.316C290.792 169.316 291.548 169.64 292.124 170.126V169.46H294.86V170.468ZM289.784 175.328C291.476 175.328 292.322 174.158 292.322 172.808C292.322 171.476 291.476 170.36 289.784 170.36C288.074 170.36 287.21 171.494 287.21 172.808C287.21 174.14 288.074 175.328 289.784 175.328Z" fill="#1F42AA"/>
<path fill-rule="evenodd" clip-rule="evenodd" d="M616.75 175.56L609.497 168.5L608.5 169.47L616.75 177.5L625 169.47L624.003 168.5L616.75 175.56Z" fill="#1F42AA"/>
<rect x="245.75" y="151" width="397" height="44" stroke="#1F42AA" stroke-width="4"/>
<rect x="244.25" y="164.5" width="389" height="199" rx="3.5" fill="#EBEAEA"/>
<rect x="247.75" y="168" width="382" height="24" rx="4" fill="#429EFE"/>
<path d="M256.495 183.656L255.459 182.576L253.375 180.414L254.147 179.59L256.495 182.027L261.943 176.344L262.719 177.16L257.531 182.576L256.495 183.656Z" fill="white"/>
<path d="M270.401 174.818L273.423 183.389H273.543L276.565 174.818H277.858L274.119 185H272.847L269.108 174.818H270.401ZM281.576 185.159C280.84 185.159 280.205 184.997 279.671 184.672C279.141 184.344 278.732 183.886 278.443 183.3C278.158 182.71 278.016 182.024 278.016 181.241C278.016 180.459 278.158 179.77 278.443 179.173C278.732 178.573 279.133 178.106 279.647 177.771C280.164 177.433 280.767 177.264 281.456 177.264C281.854 177.264 282.247 177.33 282.635 177.463C283.022 177.596 283.375 177.811 283.693 178.109C284.012 178.404 284.265 178.795 284.454 179.283C284.643 179.77 284.738 180.37 284.738 181.082V181.58H278.851V180.565H283.544C283.544 180.134 283.458 179.75 283.286 179.412C283.117 179.074 282.875 178.807 282.56 178.612C282.248 178.416 281.88 178.318 281.456 178.318C280.989 178.318 280.585 178.434 280.243 178.666C279.905 178.895 279.645 179.193 279.463 179.561C279.28 179.929 279.189 180.323 279.189 180.744V181.42C279.189 181.997 279.289 182.486 279.488 182.887C279.69 183.285 279.97 183.588 280.328 183.797C280.686 184.002 281.102 184.105 281.576 184.105C281.884 184.105 282.162 184.062 282.411 183.976C282.663 183.886 282.88 183.754 283.062 183.578C283.244 183.399 283.385 183.177 283.485 182.912L284.618 183.23C284.499 183.615 284.298 183.953 284.017 184.244C283.735 184.533 283.387 184.758 282.973 184.92C282.558 185.08 282.093 185.159 281.576 185.159ZM287.496 174.818V185H286.322V174.818H287.496ZM292.527 188.023C291.96 188.023 291.473 187.95 291.065 187.804C290.658 187.661 290.318 187.473 290.046 187.237C289.778 187.005 289.564 186.757 289.405 186.491L290.339 185.835C290.446 185.974 290.58 186.134 290.742 186.312C290.905 186.495 291.127 186.652 291.408 186.785C291.693 186.921 292.066 186.989 292.527 186.989C293.143 186.989 293.652 186.839 294.053 186.541C294.454 186.243 294.655 185.776 294.655 185.139V183.588H294.555C294.469 183.727 294.347 183.9 294.187 184.105C294.032 184.307 293.806 184.488 293.511 184.647C293.22 184.803 292.825 184.881 292.328 184.881C291.712 184.881 291.158 184.735 290.668 184.443C290.18 184.152 289.794 183.727 289.509 183.17C289.227 182.614 289.087 181.937 289.087 181.142C289.087 180.36 289.224 179.679 289.499 179.099C289.774 178.515 290.157 178.065 290.648 177.746C291.138 177.425 291.705 177.264 292.348 177.264C292.845 177.264 293.24 177.347 293.531 177.513C293.826 177.675 294.052 177.861 294.207 178.07C294.366 178.275 294.489 178.444 294.575 178.577H294.695V177.364H295.828V185.219C295.828 185.875 295.679 186.409 295.381 186.82C295.086 187.234 294.688 187.537 294.187 187.729C293.69 187.925 293.137 188.023 292.527 188.023ZM292.487 183.827C292.958 183.827 293.356 183.719 293.68 183.504C294.005 183.288 294.252 182.978 294.421 182.574C294.59 182.17 294.675 181.686 294.675 181.122C294.675 180.572 294.592 180.086 294.426 179.665C294.26 179.245 294.015 178.915 293.69 178.676C293.365 178.437 292.964 178.318 292.487 178.318C291.99 178.318 291.576 178.444 291.244 178.696C290.916 178.948 290.669 179.286 290.504 179.71C290.341 180.134 290.26 180.605 290.26 181.122C290.26 181.652 290.343 182.121 290.508 182.529C290.678 182.933 290.926 183.252 291.254 183.484C291.586 183.712 291.997 183.827 292.487 183.827ZM304.397 185.159C303.76 185.159 303.199 184.998 302.711 184.677C302.224 184.352 301.843 183.895 301.568 183.305C301.293 182.711 301.155 182.01 301.155 181.202C301.155 180.4 301.293 179.704 301.568 179.114C301.843 178.524 302.226 178.068 302.716 177.746C303.207 177.425 303.774 177.264 304.417 177.264C304.914 177.264 305.307 177.347 305.595 177.513C305.887 177.675 306.109 177.861 306.261 178.07C306.417 178.275 306.538 178.444 306.624 178.577H306.724V174.818H307.897V185H306.763V183.827H306.624C306.538 183.966 306.415 184.142 306.256 184.354C306.097 184.562 305.87 184.75 305.575 184.915C305.28 185.078 304.887 185.159 304.397 185.159ZM304.556 184.105C305.027 184.105 305.424 183.982 305.749 183.737C306.074 183.489 306.321 183.146 306.49 182.708C306.659 182.267 306.743 181.759 306.743 181.182C306.743 180.612 306.661 180.113 306.495 179.685C306.329 179.254 306.084 178.92 305.759 178.681C305.434 178.439 305.033 178.318 304.556 178.318C304.059 178.318 303.644 178.446 303.313 178.701C302.985 178.953 302.738 179.296 302.572 179.73C302.41 180.161 302.329 180.645 302.329 181.182C302.329 181.725 302.412 182.219 302.577 182.663C302.746 183.104 302.995 183.455 303.323 183.717C303.654 183.976 304.065 184.105 304.556 184.105ZM310.009 185V177.364H311.182V185H310.009ZM310.605 176.091C310.377 176.091 310.179 176.013 310.014 175.857C309.851 175.701 309.77 175.514 309.77 175.295C309.77 175.077 309.851 174.889 310.014 174.734C310.179 174.578 310.377 174.5 310.605 174.5C310.834 174.5 311.029 174.578 311.192 174.734C311.358 174.889 311.44 175.077 311.44 175.295C311.44 175.514 311.358 175.701 311.192 175.857C311.029 176.013 310.834 176.091 310.605 176.091ZM314.304 180.406V185H313.131V177.364H314.264V178.557H314.364C314.543 178.169 314.815 177.857 315.179 177.622C315.544 177.384 316.014 177.264 316.591 177.264C317.108 177.264 317.561 177.37 317.948 177.582C318.336 177.791 318.638 178.109 318.853 178.537C319.069 178.961 319.176 179.498 319.176 180.148V185H318.003V180.227C318.003 179.627 317.847 179.16 317.536 178.825C317.224 178.487 316.797 178.318 316.253 178.318C315.879 178.318 315.544 178.399 315.249 178.562C314.957 178.724 314.727 178.961 314.558 179.273C314.389 179.584 314.304 179.962 314.304 180.406ZM325.017 185V174.818H326.19V178.577H326.29C326.376 178.444 326.495 178.275 326.648 178.07C326.803 177.861 327.025 177.675 327.314 177.513C327.605 177.347 328 177.264 328.497 177.264C329.14 177.264 329.707 177.425 330.197 177.746C330.688 178.068 331.071 178.524 331.346 179.114C331.621 179.704 331.758 180.4 331.758 181.202C331.758 182.01 331.621 182.711 331.346 183.305C331.071 183.895 330.69 184.352 330.202 184.677C329.715 184.998 329.153 185.159 328.517 185.159C328.026 185.159 327.634 185.078 327.339 184.915C327.044 184.75 326.817 184.562 326.658 184.354C326.498 184.142 326.376 183.966 326.29 183.827H326.15V185H325.017ZM326.17 181.182C326.17 181.759 326.255 182.267 326.424 182.708C326.593 183.146 326.84 183.489 327.165 183.737C327.489 183.982 327.887 184.105 328.358 184.105C328.848 184.105 329.258 183.976 329.586 183.717C329.917 183.455 330.166 183.104 330.332 182.663C330.501 182.219 330.585 181.725 330.585 181.182C330.585 180.645 330.502 180.161 330.337 179.73C330.174 179.296 329.927 178.953 329.596 178.701C329.268 178.446 328.855 178.318 328.358 178.318C327.881 178.318 327.48 178.439 327.155 178.681C326.83 178.92 326.585 179.254 326.419 179.685C326.253 180.113 326.17 180.612 326.17 181.182ZM333.835 187.864C333.637 187.864 333.459 187.847 333.303 187.814C333.148 187.784 333.04 187.754 332.98 187.724L333.279 186.69C333.564 186.763 333.816 186.79 334.034 186.77C334.253 186.75 334.447 186.652 334.616 186.477C334.788 186.304 334.946 186.024 335.088 185.636L335.307 185.04L332.483 177.364H333.756L335.864 183.449H335.943L338.051 177.364H339.324L336.083 186.114C335.937 186.508 335.756 186.835 335.541 187.093C335.325 187.355 335.075 187.549 334.79 187.675C334.508 187.801 334.19 187.864 333.835 187.864ZM343.283 185.159C342.646 185.159 342.085 184.998 341.597 184.677C341.11 184.352 340.729 183.895 340.454 183.305C340.179 182.711 340.041 182.01 340.041 181.202C340.041 180.4 340.179 179.704 340.454 179.114C340.729 178.524 341.112 178.068 341.602 177.746C342.093 177.425 342.66 177.264 343.303 177.264C343.8 177.264 344.193 177.347 344.481 177.513C344.773 177.675 344.995 177.861 345.147 178.07C345.303 178.275 345.424 178.444 345.51 178.577H345.609V174.818H346.783V185H345.649V183.827H345.51C345.424 183.966 345.301 184.142 345.142 184.354C344.983 184.562 344.756 184.75 344.461 184.915C344.166 185.078 343.773 185.159 343.283 185.159ZM343.442 184.105C343.913 184.105 344.31 183.982 344.635 183.737C344.96 183.489 345.207 183.146 345.376 182.708C345.545 182.267 345.629 181.759 345.629 181.182C345.629 180.612 345.547 180.113 345.381 179.685C345.215 179.254 344.97 178.92 344.645 178.681C344.32 178.439 343.919 178.318 343.442 178.318C342.945 178.318 342.53 178.446 342.199 178.701C341.871 178.953 341.624 179.296 341.458 179.73C341.296 180.161 341.215 180.645 341.215 181.182C341.215 181.725 341.297 182.219 341.463 182.663C341.632 183.104 341.881 183.455 342.209 183.717C342.54 183.976 342.951 184.105 343.442 184.105ZM352.096 185.159C351.36 185.159 350.726 184.997 350.192 184.672C349.662 184.344 349.253 183.886 348.964 183.3C348.679 182.71 348.537 182.024 348.537 181.241C348.537 180.459 348.679 179.77 348.964 179.173C349.253 178.573 349.654 178.106 350.167 177.771C350.684 177.433 351.288 177.264 351.977 177.264C352.375 177.264 352.767 177.33 353.155 177.463C353.543 177.596 353.896 177.811 354.214 178.109C354.532 178.404 354.786 178.795 354.975 179.283C355.164 179.77 355.258 180.37 355.258 181.082V181.58H349.372V180.565H354.065C354.065 180.134 353.979 179.75 353.806 179.412C353.637 179.074 353.396 178.807 353.081 178.612C352.769 178.416 352.401 178.318 351.977 178.318C351.51 178.318 351.105 178.434 350.764 178.666C350.426 178.895 350.166 179.193 349.983 179.561C349.801 179.929 349.71 180.323 349.71 180.744V181.42C349.71 181.997 349.809 182.486 350.008 182.887C350.21 183.285 350.49 183.588 350.848 183.797C351.206 184.002 351.622 184.105 352.096 184.105C352.405 184.105 352.683 184.062 352.931 183.976C353.183 183.886 353.4 183.754 353.583 183.578C353.765 183.399 353.906 183.177 354.005 182.912L355.139 183.23C355.02 183.615 354.819 183.953 354.537 184.244C354.256 184.533 353.908 184.758 353.493 184.92C353.079 185.08 352.613 185.159 352.096 185.159ZM358.016 174.818V185H356.843V174.818H358.016Z" fill="white"/>
<path d="M253.401 213H252.108L255.847 202.818H257.119L260.858 213H259.565L256.523 204.429H256.443L253.401 213ZM253.878 209.023H259.088V210.116H253.878V209.023ZM263.258 202.818V213H262.085V202.818H263.258ZM266.38 208.406V213H265.207V205.364H266.341V206.557H266.44C266.619 206.169 266.891 205.857 267.255 205.622C267.62 205.384 268.091 205.264 268.667 205.264C269.184 205.264 269.637 205.37 270.025 205.582C270.412 205.791 270.714 206.109 270.929 206.537C271.145 206.961 271.253 207.498 271.253 208.148V213H270.079V208.227C270.079 207.627 269.923 207.16 269.612 206.825C269.3 206.487 268.873 206.318 268.329 206.318C267.955 206.318 267.62 206.399 267.325 206.562C267.033 206.724 266.803 206.961 266.634 207.273C266.465 207.584 266.38 207.962 266.38 208.406ZM275.444 213.179C274.96 213.179 274.521 213.088 274.126 212.906C273.732 212.72 273.419 212.453 273.187 212.105C272.955 211.754 272.839 211.33 272.839 210.832C272.839 210.395 272.925 210.04 273.097 209.768C273.269 209.493 273.5 209.278 273.788 209.122C274.076 208.966 274.395 208.85 274.743 208.774C275.094 208.695 275.447 208.632 275.802 208.585C276.266 208.526 276.642 208.481 276.93 208.451C277.222 208.418 277.434 208.363 277.567 208.287C277.702 208.211 277.77 208.078 277.77 207.889V207.849C277.77 207.359 277.636 206.978 277.368 206.706C277.103 206.434 276.7 206.298 276.16 206.298C275.599 206.298 275.16 206.421 274.842 206.666C274.524 206.911 274.3 207.173 274.171 207.452L273.057 207.054C273.256 206.59 273.521 206.229 273.853 205.97C274.188 205.708 274.552 205.526 274.947 205.423C275.344 205.317 275.735 205.264 276.12 205.264C276.365 205.264 276.647 205.294 276.965 205.354C277.286 205.41 277.596 205.528 277.895 205.707C278.196 205.886 278.447 206.156 278.645 206.517C278.844 206.878 278.944 207.362 278.944 207.969V213H277.77V211.966H277.711C277.631 212.132 277.499 212.309 277.313 212.498C277.127 212.687 276.88 212.848 276.572 212.98C276.264 213.113 275.888 213.179 275.444 213.179ZM275.623 212.125C276.087 212.125 276.478 212.034 276.796 211.852C277.117 211.669 277.359 211.434 277.522 211.146C277.688 210.857 277.77 210.554 277.77 210.236V209.162C277.721 209.222 277.611 209.276 277.442 209.326C277.277 209.372 277.084 209.414 276.866 209.45C276.65 209.483 276.44 209.513 276.234 209.54C276.032 209.563 275.868 209.583 275.742 209.599C275.437 209.639 275.152 209.704 274.887 209.793C274.625 209.879 274.413 210.01 274.25 210.186C274.091 210.358 274.012 210.594 274.012 210.892C274.012 211.3 274.163 211.608 274.464 211.817C274.769 212.022 275.155 212.125 275.623 212.125Z" fill="black"/>
<path d="M252.983 241V230.818H256.543C257.252 230.818 257.837 230.941 258.298 231.186C258.758 231.428 259.101 231.754 259.327 232.165C259.552 232.573 259.665 233.026 259.665 233.523C259.665 233.96 259.587 234.321 259.431 234.607C259.279 234.892 259.076 235.117 258.825 235.283C258.576 235.448 258.306 235.571 258.014 235.651V235.75C258.326 235.77 258.639 235.879 258.954 236.078C259.269 236.277 259.532 236.562 259.744 236.933C259.956 237.304 260.062 237.759 260.062 238.295C260.062 238.806 259.946 239.265 259.714 239.673C259.482 240.08 259.116 240.403 258.616 240.642C258.115 240.881 257.464 241 256.662 241H252.983ZM254.216 239.906H256.662C257.467 239.906 258.039 239.75 258.377 239.439C258.719 239.124 258.889 238.743 258.889 238.295C258.889 237.951 258.801 237.633 258.626 237.341C258.45 237.046 258.2 236.811 257.875 236.635C257.55 236.456 257.166 236.366 256.722 236.366H254.216V239.906ZM254.216 235.293H256.503C256.874 235.293 257.209 235.22 257.507 235.074C257.809 234.928 258.047 234.723 258.223 234.457C258.402 234.192 258.491 233.881 258.491 233.523C258.491 233.075 258.336 232.696 258.024 232.384C257.713 232.069 257.219 231.912 256.543 231.912H254.216V235.293ZM261.729 233.364H262.903V241.557C262.903 242.027 262.821 242.435 262.659 242.78C262.5 243.125 262.258 243.391 261.933 243.58C261.612 243.769 261.206 243.864 260.715 243.864C260.675 243.864 260.636 243.864 260.596 243.864C260.556 243.864 260.516 243.864 260.476 243.864V242.77C260.516 242.77 260.553 242.77 260.586 242.77C260.619 242.77 260.655 242.77 260.695 242.77C261.053 242.77 261.315 242.664 261.481 242.452C261.646 242.243 261.729 241.945 261.729 241.557V233.364ZM262.306 232.091C262.077 232.091 261.88 232.013 261.714 231.857C261.552 231.701 261.471 231.514 261.471 231.295C261.471 231.077 261.552 230.889 261.714 230.734C261.88 230.578 262.077 230.5 262.306 230.5C262.535 230.5 262.73 230.578 262.893 230.734C263.058 230.889 263.141 231.077 263.141 231.295C263.141 231.514 263.058 231.701 262.893 231.857C262.73 232.013 262.535 232.091 262.306 232.091ZM268.053 241.159C267.318 241.159 266.683 240.997 266.149 240.672C265.619 240.344 265.21 239.886 264.921 239.3C264.636 238.71 264.494 238.024 264.494 237.241C264.494 236.459 264.636 235.77 264.921 235.173C265.21 234.573 265.611 234.106 266.124 233.771C266.641 233.433 267.245 233.264 267.934 233.264C268.332 233.264 268.724 233.33 269.112 233.463C269.5 233.596 269.853 233.811 270.171 234.109C270.489 234.404 270.743 234.795 270.932 235.283C271.121 235.77 271.215 236.37 271.215 237.082V237.58H265.329V236.565H270.022C270.022 236.134 269.936 235.75 269.764 235.412C269.594 235.074 269.353 234.807 269.038 234.612C268.726 234.416 268.358 234.318 267.934 234.318C267.467 234.318 267.062 234.434 266.721 234.666C266.383 234.895 266.123 235.193 265.94 235.561C265.758 235.929 265.667 236.323 265.667 236.744V237.42C265.667 237.997 265.766 238.486 265.965 238.887C266.167 239.285 266.447 239.588 266.805 239.797C267.163 240.002 267.579 240.105 268.053 240.105C268.362 240.105 268.64 240.062 268.889 239.976C269.14 239.886 269.358 239.754 269.54 239.578C269.722 239.399 269.863 239.177 269.962 238.912L271.096 239.23C270.977 239.615 270.776 239.953 270.494 240.244C270.213 240.533 269.865 240.758 269.45 240.92C269.036 241.08 268.57 241.159 268.053 241.159ZM272.8 241V233.364H273.934V234.517H274.013C274.152 234.139 274.404 233.833 274.769 233.597C275.133 233.362 275.544 233.244 276.002 233.244C276.088 233.244 276.196 233.246 276.325 233.249C276.454 233.253 276.552 233.258 276.618 233.264V234.457C276.578 234.447 276.487 234.433 276.345 234.413C276.206 234.389 276.058 234.378 275.902 234.378C275.531 234.378 275.2 234.456 274.908 234.612C274.62 234.764 274.391 234.976 274.222 235.248C274.056 235.516 273.973 235.823 273.973 236.168V241H272.8ZM278.903 238.216L278.883 236.764H279.122L282.462 233.364H283.914L280.354 236.963H280.255L278.903 238.216ZM277.809 241V230.818H278.982V241H277.809ZM282.661 241L279.678 237.222L280.514 236.406L284.153 241H282.661ZM288.112 241.159C287.376 241.159 286.741 240.997 286.207 240.672C285.677 240.344 285.268 239.886 284.979 239.3C284.694 238.71 284.552 238.024 284.552 237.241C284.552 236.459 284.694 235.77 284.979 235.173C285.268 234.573 285.669 234.106 286.183 233.771C286.7 233.433 287.303 233.264 287.992 233.264C288.39 233.264 288.783 233.33 289.17 233.463C289.558 233.596 289.911 233.811 290.229 234.109C290.548 234.404 290.801 234.795 290.99 235.283C291.179 235.77 291.273 236.37 291.273 237.082V237.58H285.387V236.565H290.08C290.08 236.134 289.994 235.75 289.822 235.412C289.653 235.074 289.411 234.807 289.096 234.612C288.784 234.416 288.416 234.318 287.992 234.318C287.525 234.318 287.121 234.434 286.779 234.666C286.441 234.895 286.181 235.193 285.999 235.561C285.816 235.929 285.725 236.323 285.725 236.744V237.42C285.725 237.997 285.825 238.486 286.023 238.887C286.226 239.285 286.506 239.588 286.864 239.797C287.222 240.002 287.638 240.105 288.112 240.105C288.42 240.105 288.698 240.062 288.947 239.976C289.199 239.886 289.416 239.754 289.598 239.578C289.78 239.399 289.921 239.177 290.021 238.912L291.154 239.23C291.035 239.615 290.834 239.953 290.553 240.244C290.271 240.533 289.923 240.758 289.509 240.92C289.094 241.08 288.629 241.159 288.112 241.159Z" fill="black"/>
<path d="M252.983 269V258.818H259.088V259.912H254.216V263.352H258.631V264.446H254.216V269H252.983ZM260.759 269V261.364H261.892V262.517H261.972C262.111 262.139 262.363 261.833 262.727 261.597C263.092 261.362 263.503 261.244 263.96 261.244C264.047 261.244 264.154 261.246 264.283 261.249C264.413 261.253 264.511 261.258 264.577 261.264V262.457C264.537 262.447 264.446 262.433 264.303 262.413C264.164 262.389 264.017 262.378 263.861 262.378C263.49 262.378 263.158 262.456 262.867 262.612C262.578 262.764 262.35 262.976 262.181 263.248C262.015 263.516 261.932 263.823 261.932 264.168V269H260.759ZM268.637 269.159C267.948 269.159 267.343 268.995 266.823 268.667C266.306 268.339 265.901 267.88 265.61 267.29C265.321 266.7 265.177 266.01 265.177 265.222C265.177 264.426 265.321 263.732 265.61 263.138C265.901 262.545 266.306 262.085 266.823 261.756C267.343 261.428 267.948 261.264 268.637 261.264C269.327 261.264 269.93 261.428 270.447 261.756C270.967 262.085 271.372 262.545 271.66 263.138C271.952 263.732 272.098 264.426 272.098 265.222C272.098 266.01 271.952 266.7 271.66 267.29C271.372 267.88 270.967 268.339 270.447 268.667C269.93 268.995 269.327 269.159 268.637 269.159ZM268.637 268.105C269.161 268.105 269.592 267.971 269.93 267.702C270.268 267.434 270.518 267.081 270.681 266.643C270.843 266.206 270.924 265.732 270.924 265.222C270.924 264.711 270.843 264.236 270.681 263.795C270.518 263.354 270.268 262.998 269.93 262.726C269.592 262.454 269.161 262.318 268.637 262.318C268.114 262.318 267.683 262.454 267.345 262.726C267.007 262.998 266.757 263.354 266.594 263.795C266.432 264.236 266.351 264.711 266.351 265.222C266.351 265.732 266.432 266.206 266.594 266.643C266.757 267.081 267.007 267.434 267.345 267.702C267.683 267.971 268.114 268.105 268.637 268.105ZM276.771 272.023C276.204 272.023 275.717 271.95 275.309 271.804C274.902 271.661 274.562 271.473 274.29 271.237C274.022 271.005 273.808 270.757 273.649 270.491L274.584 269.835C274.69 269.974 274.824 270.134 274.986 270.312C275.149 270.495 275.371 270.652 275.652 270.785C275.938 270.921 276.31 270.989 276.771 270.989C277.388 270.989 277.896 270.839 278.297 270.541C278.698 270.243 278.899 269.776 278.899 269.139V267.588H278.8C278.713 267.727 278.591 267.9 278.432 268.105C278.276 268.307 278.05 268.488 277.755 268.647C277.464 268.803 277.069 268.881 276.572 268.881C275.956 268.881 275.402 268.735 274.912 268.443C274.425 268.152 274.038 267.727 273.753 267.17C273.472 266.614 273.331 265.937 273.331 265.142C273.331 264.36 273.468 263.679 273.743 263.099C274.018 262.515 274.401 262.065 274.892 261.746C275.382 261.425 275.949 261.264 276.592 261.264C277.089 261.264 277.484 261.347 277.775 261.513C278.07 261.675 278.296 261.861 278.451 262.07C278.611 262.275 278.733 262.444 278.819 262.577H278.939V261.364H280.072V269.219C280.072 269.875 279.923 270.409 279.625 270.82C279.33 271.234 278.932 271.537 278.432 271.729C277.934 271.925 277.381 272.023 276.771 272.023ZM276.731 267.827C277.202 267.827 277.6 267.719 277.925 267.504C278.249 267.288 278.496 266.978 278.665 266.574C278.834 266.17 278.919 265.686 278.919 265.122C278.919 264.572 278.836 264.086 278.67 263.665C278.505 263.245 278.259 262.915 277.934 262.676C277.61 262.437 277.209 262.318 276.731 262.318C276.234 262.318 275.82 262.444 275.488 262.696C275.16 262.948 274.913 263.286 274.748 263.71C274.585 264.134 274.504 264.605 274.504 265.122C274.504 265.652 274.587 266.121 274.753 266.529C274.922 266.933 275.17 267.252 275.498 267.484C275.83 267.712 276.241 267.827 276.731 267.827ZM283.193 264.406V269H282.02V261.364H283.153V262.557H283.253C283.432 262.169 283.704 261.857 284.068 261.622C284.433 261.384 284.903 261.264 285.48 261.264C285.997 261.264 286.45 261.37 286.837 261.582C287.225 261.791 287.527 262.109 287.742 262.537C287.958 262.961 288.065 263.498 288.065 264.148V269H286.892V264.227C286.892 263.627 286.736 263.16 286.425 262.825C286.113 262.487 285.686 262.318 285.142 262.318C284.768 262.318 284.433 262.399 284.138 262.562C283.846 262.724 283.616 262.961 283.447 263.273C283.278 263.584 283.193 263.962 283.193 264.406ZM293.211 269.159C292.475 269.159 291.841 268.997 291.307 268.672C290.777 268.344 290.367 267.886 290.079 267.3C289.794 266.71 289.651 266.024 289.651 265.241C289.651 264.459 289.794 263.77 290.079 263.173C290.367 262.573 290.768 262.106 291.282 261.771C291.799 261.433 292.402 261.264 293.092 261.264C293.49 261.264 293.882 261.33 294.27 261.463C294.658 261.596 295.011 261.811 295.329 262.109C295.647 262.404 295.901 262.795 296.09 263.283C296.279 263.77 296.373 264.37 296.373 265.082V265.58H290.487V264.565H295.18C295.18 264.134 295.094 263.75 294.921 263.412C294.752 263.074 294.51 262.807 294.195 262.612C293.884 262.416 293.516 262.318 293.092 262.318C292.624 262.318 292.22 262.434 291.879 262.666C291.541 262.895 291.28 263.193 291.098 263.561C290.916 263.929 290.825 264.323 290.825 264.744V265.42C290.825 265.997 290.924 266.486 291.123 266.887C291.325 267.285 291.605 267.588 291.963 267.797C292.321 268.002 292.737 268.105 293.211 268.105C293.519 268.105 293.798 268.062 294.046 267.976C294.298 267.886 294.515 267.754 294.698 267.578C294.88 267.399 295.021 267.177 295.12 266.912L296.254 267.23C296.134 267.615 295.934 267.953 295.652 268.244C295.37 268.533 295.022 268.758 294.608 268.92C294.194 269.08 293.728 269.159 293.211 269.159ZM297.958 269V261.364H299.091V262.517H299.171C299.31 262.139 299.562 261.833 299.927 261.597C300.291 261.362 300.702 261.244 301.16 261.244C301.246 261.244 301.353 261.246 301.483 261.249C301.612 261.253 301.71 261.258 301.776 261.264V262.457C301.736 262.447 301.645 262.433 301.503 262.413C301.363 262.389 301.216 262.378 301.06 262.378C300.689 262.378 300.357 262.456 300.066 262.612C299.777 262.764 299.549 262.976 299.38 263.248C299.214 263.516 299.131 263.823 299.131 264.168V269H297.958Z" fill="black"/>
<path d="M259.943 290C259.834 289.665 259.69 289.365 259.511 289.1C259.335 288.832 259.125 288.603 258.879 288.414C258.637 288.225 258.362 288.081 258.054 287.982C257.746 287.882 257.408 287.832 257.04 287.832C256.437 287.832 255.888 287.988 255.394 288.3C254.9 288.611 254.508 289.07 254.216 289.677C253.924 290.283 253.778 291.027 253.778 291.909C253.778 292.791 253.926 293.535 254.221 294.141C254.516 294.748 254.915 295.207 255.419 295.518C255.923 295.83 256.49 295.986 257.119 295.986C257.703 295.986 258.216 295.862 258.661 295.613C259.108 295.361 259.456 295.006 259.705 294.549C259.956 294.088 260.082 293.546 260.082 292.923L260.46 293.003H257.398V291.909H261.276V293.003C261.276 293.841 261.097 294.571 260.739 295.19C260.384 295.81 259.893 296.291 259.267 296.632C258.644 296.97 257.928 297.139 257.119 297.139C256.218 297.139 255.426 296.927 254.743 296.503C254.063 296.079 253.533 295.475 253.152 294.693C252.774 293.911 252.585 292.983 252.585 291.909C252.585 291.104 252.693 290.379 252.908 289.737C253.127 289.09 253.435 288.54 253.833 288.086C254.231 287.632 254.701 287.284 255.245 287.042C255.789 286.8 256.387 286.679 257.04 286.679C257.577 286.679 258.077 286.76 258.541 286.923C259.009 287.082 259.424 287.309 259.789 287.604C260.157 287.895 260.464 288.245 260.709 288.653C260.954 289.057 261.123 289.506 261.216 290H259.943ZM265.275 297.179C264.791 297.179 264.352 297.088 263.958 296.906C263.563 296.72 263.25 296.453 263.018 296.105C262.786 295.754 262.67 295.33 262.67 294.832C262.67 294.395 262.756 294.04 262.929 293.768C263.101 293.493 263.331 293.278 263.62 293.122C263.908 292.966 264.226 292.85 264.574 292.774C264.926 292.695 265.279 292.632 265.633 292.585C266.097 292.526 266.473 292.481 266.762 292.451C267.053 292.418 267.266 292.363 267.398 292.287C267.534 292.211 267.602 292.078 267.602 291.889V291.849C267.602 291.359 267.468 290.978 267.199 290.706C266.934 290.434 266.531 290.298 265.991 290.298C265.431 290.298 264.992 290.421 264.674 290.666C264.356 290.911 264.132 291.173 264.003 291.452L262.889 291.054C263.088 290.59 263.353 290.229 263.684 289.97C264.019 289.708 264.384 289.526 264.778 289.423C265.176 289.317 265.567 289.264 265.951 289.264C266.197 289.264 266.478 289.294 266.797 289.354C267.118 289.41 267.428 289.528 267.726 289.707C268.028 289.886 268.278 290.156 268.477 290.517C268.676 290.878 268.775 291.362 268.775 291.969V297H267.602V295.966H267.542C267.463 296.132 267.33 296.309 267.145 296.498C266.959 296.687 266.712 296.848 266.404 296.98C266.096 297.113 265.719 297.179 265.275 297.179ZM265.454 296.125C265.918 296.125 266.309 296.034 266.628 295.852C266.949 295.669 267.191 295.434 267.353 295.146C267.519 294.857 267.602 294.554 267.602 294.236V293.162C267.552 293.222 267.443 293.276 267.274 293.326C267.108 293.372 266.916 293.414 266.697 293.45C266.482 293.483 266.271 293.513 266.066 293.54C265.864 293.563 265.7 293.583 265.574 293.599C265.269 293.639 264.984 293.704 264.719 293.793C264.457 293.879 264.245 294.01 264.082 294.186C263.923 294.358 263.844 294.594 263.844 294.892C263.844 295.3 263.994 295.608 264.296 295.817C264.601 296.022 264.987 296.125 265.454 296.125ZM270.717 297V289.364H271.85V290.557H271.95C272.109 290.149 272.366 289.833 272.72 289.607C273.075 289.379 273.501 289.264 273.998 289.264C274.502 289.264 274.921 289.379 275.256 289.607C275.594 289.833 275.857 290.149 276.046 290.557H276.126C276.321 290.162 276.615 289.849 277.006 289.617C277.397 289.382 277.866 289.264 278.413 289.264C279.096 289.264 279.654 289.478 280.088 289.906C280.522 290.33 280.74 290.991 280.74 291.889V297H279.566V291.889C279.566 291.326 279.412 290.923 279.104 290.681C278.796 290.439 278.433 290.318 278.015 290.318C277.478 290.318 277.062 290.481 276.767 290.805C276.472 291.127 276.325 291.535 276.325 292.028V297H275.132V291.77C275.132 291.336 274.991 290.986 274.709 290.721C274.427 290.452 274.064 290.318 273.62 290.318C273.315 290.318 273.03 290.399 272.765 290.562C272.503 290.724 272.291 290.95 272.129 291.238C271.97 291.523 271.89 291.853 271.89 292.227V297H270.717ZM283.858 286.818V297H282.685V286.818H283.858ZM289.009 297.159C288.273 297.159 287.638 296.997 287.105 296.672C286.574 296.344 286.165 295.886 285.877 295.3C285.592 294.71 285.449 294.024 285.449 293.241C285.449 292.459 285.592 291.77 285.877 291.173C286.165 290.573 286.566 290.106 287.08 289.771C287.597 289.433 288.2 289.264 288.889 289.264C289.287 289.264 289.68 289.33 290.068 289.463C290.456 289.596 290.808 289.811 291.127 290.109C291.445 290.404 291.698 290.795 291.887 291.283C292.076 291.77 292.171 292.37 292.171 293.082V293.58H286.284V292.565H290.978C290.978 292.134 290.891 291.75 290.719 291.412C290.55 291.074 290.308 290.807 289.993 290.612C289.682 290.416 289.314 290.318 288.889 290.318C288.422 290.318 288.018 290.434 287.676 290.666C287.338 290.895 287.078 291.193 286.896 291.561C286.714 291.929 286.622 292.323 286.622 292.744V293.42C286.622 293.997 286.722 294.486 286.921 294.887C287.123 295.285 287.403 295.588 287.761 295.797C288.119 296.002 288.535 296.105 289.009 296.105C289.317 296.105 289.595 296.062 289.844 295.976C290.096 295.886 290.313 295.754 290.495 295.578C290.678 295.399 290.818 295.177 290.918 294.912L292.051 295.23C291.932 295.615 291.732 295.953 291.45 296.244C291.168 296.533 290.82 296.758 290.406 296.92C289.991 297.08 289.526 297.159 289.009 297.159ZM306.243 291.909C306.243 292.983 306.049 293.911 305.661 294.693C305.274 295.475 304.742 296.079 304.065 296.503C303.389 296.927 302.617 297.139 301.749 297.139C300.88 297.139 300.108 296.927 299.432 296.503C298.756 296.079 298.224 295.475 297.836 294.693C297.448 293.911 297.254 292.983 297.254 291.909C297.254 290.835 297.448 289.907 297.836 289.125C298.224 288.343 298.756 287.74 299.432 287.315C300.108 286.891 300.88 286.679 301.749 286.679C302.617 286.679 303.389 286.891 304.065 287.315C304.742 287.74 305.274 288.343 305.661 289.125C306.049 289.907 306.243 290.835 306.243 291.909ZM305.05 291.909C305.05 291.027 304.902 290.283 304.607 289.677C304.316 289.07 303.92 288.611 303.419 288.3C302.922 287.988 302.365 287.832 301.749 287.832C301.132 287.832 300.574 287.988 300.073 288.3C299.576 288.611 299.18 289.07 298.885 289.677C298.593 290.283 298.448 291.027 298.448 291.909C298.448 292.791 298.593 293.535 298.885 294.141C299.18 294.748 299.576 295.207 300.073 295.518C300.574 295.83 301.132 295.986 301.749 295.986C302.365 295.986 302.922 295.83 303.419 295.518C303.92 295.207 304.316 294.748 304.607 294.141C304.902 293.535 305.05 292.791 305.05 291.909ZM313.366 291.074L312.312 291.372C312.246 291.196 312.148 291.026 312.019 290.86C311.893 290.691 311.721 290.552 311.502 290.442C311.283 290.333 311.003 290.278 310.662 290.278C310.194 290.278 309.805 290.386 309.493 290.602C309.185 290.814 309.031 291.084 309.031 291.412C309.031 291.704 309.137 291.934 309.349 292.103C309.561 292.272 309.893 292.413 310.343 292.526L311.477 292.804C312.16 292.97 312.668 293.223 313.003 293.565C313.338 293.903 313.505 294.339 313.505 294.872C313.505 295.31 313.379 295.701 313.128 296.045C312.879 296.39 312.531 296.662 312.083 296.861C311.636 297.06 311.116 297.159 310.522 297.159C309.744 297.159 309.099 296.99 308.588 296.652C308.078 296.314 307.755 295.82 307.619 295.17L308.733 294.892C308.839 295.303 309.039 295.611 309.334 295.817C309.632 296.022 310.022 296.125 310.503 296.125C311.049 296.125 311.484 296.009 311.805 295.777C312.13 295.542 312.292 295.26 312.292 294.932C312.292 294.667 312.199 294.445 312.014 294.266C311.828 294.083 311.543 293.947 311.159 293.858L309.886 293.56C309.187 293.394 308.673 293.137 308.345 292.789C308.02 292.438 307.858 291.999 307.858 291.472C307.858 291.041 307.979 290.66 308.221 290.328C308.466 289.997 308.799 289.737 309.22 289.548C309.644 289.359 310.125 289.264 310.662 289.264C311.417 289.264 312.011 289.43 312.441 289.761C312.876 290.093 313.184 290.53 313.366 291.074ZM316.245 286.818V297H315.072V286.818H316.245ZM321.296 297.159C320.607 297.159 320.002 296.995 319.481 296.667C318.964 296.339 318.56 295.88 318.268 295.29C317.98 294.7 317.836 294.01 317.836 293.222C317.836 292.426 317.98 291.732 318.268 291.138C318.56 290.545 318.964 290.085 319.481 289.756C320.002 289.428 320.607 289.264 321.296 289.264C321.985 289.264 322.589 289.428 323.106 289.756C323.626 290.085 324.03 290.545 324.319 291.138C324.61 291.732 324.756 292.426 324.756 293.222C324.756 294.01 324.61 294.7 324.319 295.29C324.03 295.88 323.626 296.339 323.106 296.667C322.589 296.995 321.985 297.159 321.296 297.159ZM321.296 296.105C321.82 296.105 322.251 295.971 322.589 295.702C322.927 295.434 323.177 295.081 323.339 294.643C323.502 294.206 323.583 293.732 323.583 293.222C323.583 292.711 323.502 292.236 323.339 291.795C323.177 291.354 322.927 290.998 322.589 290.726C322.251 290.454 321.82 290.318 321.296 290.318C320.772 290.318 320.342 290.454 320.003 290.726C319.665 290.998 319.415 291.354 319.253 291.795C319.09 292.236 319.009 292.711 319.009 293.222C319.009 293.732 319.09 294.206 319.253 294.643C319.415 295.081 319.665 295.434 320.003 295.702C320.342 295.971 320.772 296.105 321.296 296.105Z" fill="black"/>
<path d="M259.943 318C259.834 317.665 259.69 317.365 259.511 317.1C259.335 316.832 259.125 316.603 258.879 316.414C258.637 316.225 258.362 316.081 258.054 315.982C257.746 315.882 257.408 315.832 257.04 315.832C256.437 315.832 255.888 315.988 255.394 316.3C254.9 316.611 254.508 317.07 254.216 317.677C253.924 318.283 253.778 319.027 253.778 319.909C253.778 320.791 253.926 321.535 254.221 322.141C254.516 322.748 254.915 323.207 255.419 323.518C255.923 323.83 256.49 323.986 257.119 323.986C257.703 323.986 258.216 323.862 258.661 323.613C259.108 323.361 259.456 323.006 259.705 322.549C259.956 322.088 260.082 321.546 260.082 320.923L260.46 321.003H257.398V319.909H261.276V321.003C261.276 321.841 261.097 322.571 260.739 323.19C260.384 323.81 259.893 324.291 259.267 324.632C258.644 324.97 257.928 325.139 257.119 325.139C256.218 325.139 255.426 324.927 254.743 324.503C254.063 324.079 253.533 323.475 253.152 322.693C252.774 321.911 252.585 320.983 252.585 319.909C252.585 319.104 252.693 318.379 252.908 317.737C253.127 317.09 253.435 316.54 253.833 316.086C254.231 315.632 254.701 315.284 255.245 315.042C255.789 314.8 256.387 314.679 257.04 314.679C257.577 314.679 258.077 314.76 258.541 314.923C259.009 315.082 259.424 315.309 259.789 315.604C260.157 315.895 260.464 316.245 260.709 316.653C260.954 317.057 261.123 317.506 261.216 318H259.943ZM263.028 325V317.364H264.162V318.517H264.241C264.38 318.139 264.632 317.833 264.997 317.597C265.361 317.362 265.772 317.244 266.23 317.244C266.316 317.244 266.424 317.246 266.553 317.249C266.682 317.253 266.78 317.258 266.846 317.264V318.457C266.807 318.447 266.715 318.433 266.573 318.413C266.434 318.389 266.286 318.378 266.13 318.378C265.759 318.378 265.428 318.456 265.136 318.612C264.848 318.764 264.619 318.976 264.45 319.248C264.284 319.516 264.201 319.823 264.201 320.168V325H263.028ZM270.907 325.159C270.218 325.159 269.613 324.995 269.092 324.667C268.575 324.339 268.171 323.88 267.879 323.29C267.591 322.7 267.447 322.01 267.447 321.222C267.447 320.426 267.591 319.732 267.879 319.138C268.171 318.545 268.575 318.085 269.092 317.756C269.613 317.428 270.218 317.264 270.907 317.264C271.596 317.264 272.2 317.428 272.717 317.756C273.237 318.085 273.641 318.545 273.93 319.138C274.221 319.732 274.367 320.426 274.367 321.222C274.367 322.01 274.221 322.7 273.93 323.29C273.641 323.88 273.237 324.339 272.717 324.667C272.2 324.995 271.596 325.159 270.907 325.159ZM270.907 324.105C271.431 324.105 271.862 323.971 272.2 323.702C272.538 323.434 272.788 323.081 272.95 322.643C273.113 322.206 273.194 321.732 273.194 321.222C273.194 320.711 273.113 320.236 272.95 319.795C272.788 319.354 272.538 318.998 272.2 318.726C271.862 318.454 271.431 318.318 270.907 318.318C270.383 318.318 269.952 318.454 269.614 318.726C269.276 318.998 269.026 319.354 268.864 319.795C268.701 320.236 268.62 320.711 268.62 321.222C268.62 321.732 268.701 322.206 268.864 322.643C269.026 323.081 269.276 323.434 269.614 323.702C269.952 323.971 270.383 324.105 270.907 324.105ZM275.958 325V317.364H277.092V318.517H277.171C277.311 318.139 277.562 317.833 277.927 317.597C278.292 317.362 278.703 317.244 279.16 317.244C279.246 317.244 279.354 317.246 279.483 317.249C279.612 317.253 279.71 317.258 279.776 317.264V318.457C279.737 318.447 279.646 318.433 279.503 318.413C279.364 318.389 279.216 318.378 279.061 318.378C278.689 318.378 278.358 318.456 278.066 318.612C277.778 318.764 277.549 318.976 277.38 319.248C277.214 319.516 277.132 319.823 277.132 320.168V325H275.958ZM285.78 321.878V317.364H286.953V325H285.78V323.707H285.7C285.521 324.095 285.243 324.425 284.865 324.697C284.487 324.965 284.01 325.099 283.433 325.099C282.956 325.099 282.532 324.995 282.16 324.786C281.789 324.574 281.498 324.256 281.285 323.832C281.073 323.404 280.967 322.866 280.967 322.216V317.364H282.141V322.136C282.141 322.693 282.296 323.137 282.608 323.469C282.923 323.8 283.324 323.966 283.811 323.966C284.103 323.966 284.399 323.891 284.701 323.742C285.006 323.593 285.261 323.364 285.467 323.056C285.675 322.748 285.78 322.355 285.78 321.878ZM291.786 325.159C291.149 325.159 290.587 324.998 290.1 324.677C289.613 324.352 289.232 323.895 288.957 323.305C288.682 322.711 288.544 322.01 288.544 321.202C288.544 320.4 288.682 319.704 288.957 319.114C289.232 318.524 289.615 318.068 290.105 317.746C290.596 317.425 291.162 317.264 291.805 317.264C292.303 317.264 292.695 317.347 292.984 317.513C293.275 317.675 293.497 317.861 293.65 318.07C293.806 318.275 293.927 318.444 294.013 318.577H294.112V314.818H295.286V325H294.152V323.827H294.013C293.927 323.966 293.804 324.142 293.645 324.354C293.486 324.562 293.259 324.75 292.964 324.915C292.669 325.078 292.276 325.159 291.786 325.159ZM291.945 324.105C292.415 324.105 292.813 323.982 293.138 323.737C293.463 323.489 293.71 323.146 293.879 322.708C294.048 322.267 294.132 321.759 294.132 321.182C294.132 320.612 294.049 320.113 293.884 319.685C293.718 319.254 293.473 318.92 293.148 318.681C292.823 318.439 292.422 318.318 291.945 318.318C291.447 318.318 291.033 318.446 290.702 318.701C290.374 318.953 290.127 319.296 289.961 319.73C289.799 320.161 289.717 320.645 289.717 321.182C289.717 321.725 289.8 322.219 289.966 322.663C290.135 323.104 290.384 323.455 290.712 323.717C291.043 323.976 291.454 324.105 291.945 324.105Z" fill="black"/>
<path d="M259.943 346C259.834 345.665 259.69 345.365 259.511 345.1C259.335 344.832 259.125 344.603 258.879 344.414C258.637 344.225 258.362 344.081 258.054 343.982C257.746 343.882 257.408 343.832 257.04 343.832C256.437 343.832 255.888 343.988 255.394 344.3C254.9 344.611 254.508 345.07 254.216 345.677C253.924 346.283 253.778 347.027 253.778 347.909C253.778 348.791 253.926 349.535 254.221 350.141C254.516 350.748 254.915 351.207 255.419 351.518C255.923 351.83 256.49 351.986 257.119 351.986C257.703 351.986 258.216 351.862 258.661 351.613C259.108 351.361 259.456 351.006 259.705 350.549C259.956 350.088 260.082 349.546 260.082 348.923L260.46 349.003H257.398V347.909H261.276V349.003C261.276 349.841 261.097 350.571 260.739 351.19C260.384 351.81 259.893 352.291 259.267 352.632C258.644 352.97 257.928 353.139 257.119 353.139C256.218 353.139 255.426 352.927 254.743 352.503C254.063 352.079 253.533 351.475 253.152 350.693C252.774 349.911 252.585 348.983 252.585 347.909C252.585 347.104 252.693 346.379 252.908 345.737C253.127 345.09 253.435 344.54 253.833 344.086C254.231 343.632 254.701 343.284 255.245 343.042C255.789 342.8 256.387 342.679 257.04 342.679C257.577 342.679 258.077 342.76 258.541 342.923C259.009 343.082 259.424 343.309 259.789 343.604C260.157 343.895 260.464 344.245 260.709 344.653C260.954 345.057 261.123 345.506 261.216 346H259.943ZM263.028 353V345.364H264.162V346.517H264.241C264.38 346.139 264.632 345.833 264.997 345.597C265.361 345.362 265.772 345.244 266.23 345.244C266.316 345.244 266.424 345.246 266.553 345.249C266.682 345.253 266.78 345.258 266.846 345.264V346.457C266.807 346.447 266.715 346.433 266.573 346.413C266.434 346.389 266.286 346.378 266.13 346.378C265.759 346.378 265.428 346.456 265.136 346.612C264.848 346.764 264.619 346.976 264.45 347.248C264.284 347.516 264.201 347.823 264.201 348.168V353H263.028ZM272.85 349.878V345.364H274.023V353H272.85V351.707H272.77C272.591 352.095 272.313 352.425 271.935 352.697C271.557 352.965 271.08 353.099 270.503 353.099C270.026 353.099 269.602 352.995 269.23 352.786C268.859 352.574 268.567 352.256 268.355 351.832C268.143 351.404 268.037 350.866 268.037 350.216V345.364H269.21V350.136C269.21 350.693 269.366 351.137 269.678 351.469C269.993 351.8 270.394 351.966 270.881 351.966C271.173 351.966 271.469 351.891 271.771 351.742C272.076 351.593 272.331 351.364 272.536 351.056C272.745 350.748 272.85 350.355 272.85 349.878ZM269.608 344.091C269.399 344.091 269.214 344.011 269.051 343.852C268.892 343.69 268.813 343.504 268.813 343.295C268.813 343.067 268.892 342.878 269.051 342.729C269.214 342.576 269.399 342.5 269.608 342.5C269.837 342.5 270.026 342.576 270.175 342.729C270.327 342.878 270.404 343.067 270.404 343.295C270.404 343.504 270.327 343.69 270.175 343.852C270.026 344.011 269.837 344.091 269.608 344.091ZM272.472 344.091C272.263 344.091 272.077 344.011 271.915 343.852C271.756 343.69 271.676 343.504 271.676 343.295C271.676 343.067 271.756 342.878 271.915 342.729C272.077 342.576 272.263 342.5 272.472 342.5C272.7 342.5 272.889 342.576 273.039 342.729C273.191 342.878 273.267 343.067 273.267 343.295C273.267 343.504 273.191 343.69 273.039 343.852C272.889 344.011 272.7 344.091 272.472 344.091ZM277.145 348.406V353H275.972V345.364H277.105V346.557H277.205C277.384 346.169 277.656 345.857 278.02 345.622C278.385 345.384 278.855 345.264 279.432 345.264C279.949 345.264 280.402 345.37 280.789 345.582C281.177 345.791 281.479 346.109 281.694 346.537C281.91 346.961 282.017 347.498 282.017 348.148V353H280.844V348.227C280.844 347.627 280.688 347.16 280.377 346.825C280.065 346.487 279.638 346.318 279.094 346.318C278.72 346.318 278.385 346.399 278.09 346.562C277.798 346.724 277.568 346.961 277.399 347.273C277.23 347.584 277.145 347.962 277.145 348.406ZM287.163 353.159C286.427 353.159 285.793 352.997 285.259 352.672C284.729 352.344 284.319 351.886 284.031 351.3C283.746 350.71 283.603 350.024 283.603 349.241C283.603 348.459 283.746 347.77 284.031 347.173C284.319 346.573 284.72 346.106 285.234 345.771C285.751 345.433 286.354 345.264 287.044 345.264C287.441 345.264 287.834 345.33 288.222 345.463C288.61 345.596 288.963 345.811 289.281 346.109C289.599 346.404 289.853 346.795 290.042 347.283C290.231 347.77 290.325 348.37 290.325 349.082V349.58H284.439V348.565H289.132C289.132 348.134 289.046 347.75 288.873 347.412C288.704 347.074 288.462 346.807 288.147 346.612C287.836 346.416 287.468 346.318 287.044 346.318C286.576 346.318 286.172 346.434 285.831 346.666C285.493 346.895 285.232 347.193 285.05 347.561C284.868 347.929 284.777 348.323 284.777 348.744V349.42C284.777 349.997 284.876 350.486 285.075 350.887C285.277 351.285 285.557 351.588 285.915 351.797C286.273 352.002 286.689 352.105 287.163 352.105C287.471 352.105 287.75 352.062 287.998 351.976C288.25 351.886 288.467 351.754 288.65 351.578C288.832 351.399 288.973 351.177 289.072 350.912L290.206 351.23C290.086 351.615 289.886 351.953 289.604 352.244C289.322 352.533 288.974 352.758 288.56 352.92C288.146 353.08 287.68 353.159 287.163 353.159ZM291.91 353V345.364H293.043V346.517H293.123C293.262 346.139 293.514 345.833 293.879 345.597C294.243 345.362 294.654 345.244 295.112 345.244C295.198 345.244 295.305 345.246 295.435 345.249C295.564 345.253 295.662 345.258 295.728 345.264V346.457C295.688 346.447 295.597 346.433 295.455 346.413C295.315 346.389 295.168 346.378 295.012 346.378C294.641 346.378 294.309 346.456 294.018 346.612C293.729 346.764 293.501 346.976 293.332 347.248C293.166 347.516 293.083 347.823 293.083 348.168V353H291.91ZM298.092 342.818V353H296.919V342.818H298.092ZM300.856 353.418L300.101 352.901L305.43 345.006L306.186 345.523L300.856 353.418ZM303.143 353.159C302.454 353.159 301.849 352.995 301.329 352.667C300.812 352.339 300.407 351.88 300.116 351.29C299.827 350.7 299.683 350.01 299.683 349.222C299.683 348.426 299.827 347.732 300.116 347.138C300.407 346.545 300.812 346.085 301.329 345.756C301.849 345.428 302.454 345.264 303.143 345.264C303.833 345.264 304.436 345.428 304.953 345.756C305.473 346.085 305.878 346.545 306.166 347.138C306.458 347.732 306.604 348.426 306.604 349.222C306.604 350.01 306.458 350.7 306.166 351.29C305.878 351.88 305.473 352.339 304.953 352.667C304.436 352.995 303.833 353.159 303.143 353.159ZM303.143 352.105C303.667 352.105 304.098 351.971 304.436 351.702C304.774 351.434 305.024 351.081 305.187 350.643C305.349 350.206 305.43 349.732 305.43 349.222C305.43 348.711 305.349 348.236 305.187 347.795C305.024 347.354 304.774 346.998 304.436 346.726C304.098 346.454 303.667 346.318 303.143 346.318C302.62 346.318 302.189 346.454 301.851 346.726C301.513 346.998 301.262 347.354 301.1 347.795C300.938 348.236 300.856 348.711 300.856 349.222C300.856 349.732 300.938 350.206 301.1 350.643C301.262 351.081 301.513 351.434 301.851 351.702C302.189 351.971 302.62 352.105 303.143 352.105ZM309.288 350.216L309.268 348.764H309.507L312.848 345.364H314.3L310.74 348.963H310.641L309.288 350.216ZM308.195 353V342.818H309.368V353H308.195ZM313.047 353L310.064 349.222L310.899 348.406L314.538 353H313.047ZM316.704 350.216L316.684 348.764H316.922L320.263 345.364H321.715L318.155 348.963H318.056L316.704 350.216ZM315.61 353V342.818H316.783V353H315.61ZM320.462 353L317.479 349.222L318.314 348.406L321.954 353H320.462ZM325.272 353.179C324.788 353.179 324.349 353.088 323.955 352.906C323.56 352.72 323.247 352.453 323.015 352.105C322.783 351.754 322.667 351.33 322.667 350.832C322.667 350.395 322.753 350.04 322.926 349.768C323.098 349.493 323.328 349.278 323.617 349.122C323.905 348.966 324.223 348.85 324.571 348.774C324.923 348.695 325.276 348.632 325.63 348.585C326.094 348.526 326.47 348.481 326.759 348.451C327.05 348.418 327.262 348.363 327.395 348.287C327.531 348.211 327.599 348.078 327.599 347.889V347.849C327.599 347.359 327.465 346.978 327.196 346.706C326.931 346.434 326.528 346.298 325.988 346.298C325.428 346.298 324.989 346.421 324.671 346.666C324.352 346.911 324.129 347.173 323.999 347.452L322.886 347.054C323.085 346.59 323.35 346.229 323.681 345.97C324.016 345.708 324.381 345.526 324.775 345.423C325.173 345.317 325.564 345.264 325.948 345.264C326.194 345.264 326.475 345.294 326.794 345.354C327.115 345.41 327.425 345.528 327.723 345.707C328.025 345.886 328.275 346.156 328.474 346.517C328.673 346.878 328.772 347.362 328.772 347.969V353H327.599V351.966H327.539C327.46 352.132 327.327 352.309 327.142 352.498C326.956 352.687 326.709 352.848 326.401 352.98C326.093 353.113 325.716 353.179 325.272 353.179ZM325.451 352.125C325.915 352.125 326.306 352.034 326.624 351.852C326.946 351.669 327.188 351.434 327.35 351.146C327.516 350.857 327.599 350.554 327.599 350.236V349.162C327.549 349.222 327.44 349.276 327.271 349.326C327.105 349.372 326.913 349.414 326.694 349.45C326.479 349.483 326.268 349.513 326.063 349.54C325.86 349.563 325.696 349.583 325.57 349.599C325.266 349.639 324.981 349.704 324.715 349.793C324.454 349.879 324.241 350.01 324.079 350.186C323.92 350.358 323.84 350.594 323.84 350.892C323.84 351.3 323.991 351.608 324.293 351.817C324.598 352.022 324.984 352.125 325.451 352.125Z" fill="black"/>
<rect x="244.25" y="164.5" width="389" height="199" rx="3.5" stroke="#C9C9C9"/>
<defs>
<radialGradient id="paint0_radial_5727_125236" cx="0" cy="0" r="1" gradientUnits="userSpaceOnUse" gradientTransform="translate(444.5 269.5) rotate(90) scale(120.5 220)">
<stop stop-color="#D9D9D9"/>
<stop offset="1" stop-color="#D9D9D9" stop-opacity="0"/>
</radialGradient>
</defs>
</svg>
