<svg width="799" height="316" viewBox="0 0 799 316" fill="none" xmlns="http://www.w3.org/2000/svg">
<rect width="799" height="316" fill="white"/>
<path d="M209.81 92.68H211.826V106H209.99L203.582 96.442V106H201.566V92.68H203.564L209.81 102.058V92.68ZM221.205 102.994L222.573 103.786C222.033 104.974 220.773 106.162 218.595 106.162C215.769 106.162 214.059 104.074 214.059 101.14C214.059 98.242 215.913 96.244 218.451 96.244C220.701 96.244 222.555 97.756 222.555 100.456L222.519 101.644H216.039C216.147 103.66 217.137 104.524 218.721 104.524C219.891 104.524 220.701 103.894 221.205 102.994ZM218.451 97.828C217.227 97.828 216.201 98.476 216.039 100.204H220.593C220.611 98.512 219.567 97.828 218.451 97.828ZM231.195 92.68H233.211V106H231.195V104.272C230.457 105.604 229.305 106.144 228.207 106.144C225.903 106.144 224.247 104.164 224.247 101.266C224.247 98.26 225.921 96.262 228.441 96.262C229.521 96.262 230.601 96.748 231.195 97.918V92.68ZM228.747 104.38C230.205 104.38 231.195 103.39 231.195 101.158C231.195 98.944 230.223 97.882 228.747 97.882C227.361 97.882 226.335 98.998 226.335 101.158C226.335 103.3 227.361 104.38 228.747 104.38ZM238.556 103.048C238.556 104.11 239.204 104.434 239.87 104.434C240.392 104.434 240.806 104.218 241.22 103.804L242.084 105.1C241.364 105.82 240.572 106.162 239.546 106.162C237.89 106.162 236.54 105.154 236.54 103.174V98.026H234.866V96.46H236.54V94.336L238.556 93.418V96.46H241.922V98.026H238.556V103.048ZM248.204 96.244C249.59 96.244 250.49 97.162 250.49 98.8V100.06L248.87 100.348V99.376C248.87 98.512 248.564 97.918 247.628 97.918C246.602 97.918 245.846 98.602 245.846 100.42V106H243.83V96.46H245.846V97.738C246.386 96.676 247.376 96.244 248.204 96.244ZM258.619 102.994L259.987 103.786C259.447 104.974 258.187 106.162 256.009 106.162C253.183 106.162 251.473 104.074 251.473 101.14C251.473 98.242 253.327 96.244 255.865 96.244C258.115 96.244 259.969 97.756 259.969 100.456L259.933 101.644H253.453C253.561 103.66 254.551 104.524 256.135 104.524C257.305 104.524 258.115 103.894 258.619 102.994ZM255.865 97.828C254.641 97.828 253.615 98.476 253.453 100.204H258.007C258.025 98.512 256.981 97.828 255.865 97.828ZM268.268 106L265.37 101.626L264.272 102.706V106H262.256V92.68H264.272V100.42L268.124 96.46H270.608L266.702 100.312L270.68 106H268.268ZM278.457 106L275.559 101.626L274.461 102.706V106H272.445V92.68H274.461V100.42L278.313 96.46H280.797L276.891 100.312L280.869 106H278.457Z" fill="#2A2859"/>
<rect width="62" height="22" transform="translate(290 89)" fill="#E5FCFF"/>
<path d="M301.924 94.64H302.96L299.166 105H298.186L294.42 94.64H295.484L298.69 103.866L301.924 94.64ZM308.992 105H308.124C308.012 104.594 307.928 104.104 307.928 103.544C307.55 104.412 306.584 105.112 305.38 105.112C304.064 105.112 303.07 104.258 303.07 102.984C303.07 101.458 304.442 100.66 305.968 100.66C306.57 100.66 307.158 100.73 307.76 100.94V99.96C307.76 98.994 307.172 98.336 306.024 98.336C305.1 98.336 304.316 98.742 303.924 99.876L303.084 99.624C303.644 98.056 304.778 97.468 306.08 97.468C307.914 97.468 308.684 98.574 308.684 99.848V102.9C308.684 103.74 308.824 104.496 308.992 105ZM307.76 101.92V101.752C307.186 101.514 306.598 101.444 306.024 101.444C304.904 101.444 304.022 101.948 304.022 102.928C304.022 103.824 304.652 104.3 305.548 104.3C306.514 104.3 307.76 103.726 307.76 101.92ZM313.415 104.972C313.191 105.028 313.009 105.056 312.799 105.056C311.637 105.056 311.091 104.328 311.091 103.236V94.64H312.043V103.236C312.043 103.866 312.379 104.188 312.967 104.188C313.121 104.188 313.275 104.174 313.415 104.132V104.972ZM321.542 98.364H319.946V98.63C320.31 99.078 320.506 99.638 320.506 100.184C320.506 101.542 319.526 102.928 317.44 102.928H317.118C316.278 102.928 315.676 103.25 315.676 103.74C315.676 104.118 315.97 104.384 316.586 104.384H319.596C320.8 104.384 321.416 104.972 321.416 105.896C321.416 107.366 319.722 108.136 317.636 108.136C315.76 108.136 314.458 107.534 314.01 106.232L314.78 105.882C315.298 107.1 316.39 107.338 317.636 107.338C319.176 107.338 320.464 106.876 320.464 105.98C320.464 105.56 320.24 105.252 319.568 105.252H316.376C315.34 105.252 314.724 104.762 314.724 103.992C314.724 103.334 315.27 102.76 316.18 102.522C315.2 102.13 314.654 101.094 314.654 100.184C314.654 98.854 315.648 97.468 317.608 97.468C318.378 97.468 318.966 97.72 319.414 98.098V97.58H321.542V98.364ZM317.594 102.144C318.91 102.144 319.568 101.234 319.568 100.184C319.568 99.148 318.91 98.28 317.594 98.28C316.264 98.28 315.592 99.162 315.592 100.184C315.592 101.22 316.264 102.144 317.594 102.144ZM324.237 96.544V97.58H326.309V98.364H324.237V105H323.285V98.364H321.885V97.58H323.285V96.544C323.285 95.256 324.125 94.528 325.273 94.528C325.805 94.528 326.421 94.738 326.771 95.298L326.197 95.872C325.973 95.536 325.637 95.34 325.245 95.34C324.755 95.34 324.237 95.634 324.237 96.544ZM330.417 97.468C331.383 97.468 332.083 98.112 332.083 99.372V100.1L331.215 100.268V99.54C331.215 98.798 330.963 98.308 330.207 98.308C329.353 98.308 328.709 98.938 328.709 100.436V105H327.757V97.58H328.709V98.504C329.101 97.804 329.759 97.468 330.417 97.468ZM334.44 96.236C333.978 96.236 333.6 95.872 333.6 95.396C333.6 94.92 333.978 94.556 334.44 94.556C334.902 94.556 335.28 94.92 335.28 95.396C335.28 95.872 334.902 96.236 334.44 96.236ZM333.964 105V97.58H334.916V105H333.964ZM338.811 103.152C338.811 104.02 339.329 104.272 339.791 104.272C340.239 104.272 340.533 104.104 340.883 103.74L341.387 104.3C340.897 104.874 340.365 105.112 339.707 105.112C338.699 105.112 337.859 104.44 337.859 103.124V98.364H336.459V97.58H337.859V95.984L338.811 95.424V97.58H341.219V98.364H338.811V103.152ZM344.225 103.152C344.225 104.02 344.743 104.272 345.205 104.272C345.653 104.272 345.947 104.104 346.297 103.74L346.801 104.3C346.311 104.874 345.779 105.112 345.121 105.112C344.113 105.112 343.273 104.44 343.273 103.124V98.364H341.873V97.58H343.273V95.984L344.225 95.424V97.58H346.633V98.364H344.225V103.152Z" fill="#2A2859"/>
<rect width="83" height="22" transform="translate(360 89)" fill="#F8F0DD"/>
<path d="M373.324 94.64H374.276V105H373.296V96.362L369.964 101.542H369.544L366.212 96.362V105H365.232V94.64H366.184L369.754 100.184L373.324 94.64ZM379.362 96.796C378.452 96.796 377.71 96.124 377.71 95.2C377.71 94.276 378.452 93.604 379.362 93.604C380.272 93.604 381.014 94.276 381.014 95.2C381.014 96.124 380.272 96.796 379.362 96.796ZM379.362 94.248C378.83 94.248 378.41 94.584 378.41 95.2C378.41 95.83 378.83 96.152 379.362 96.152C379.894 96.152 380.314 95.83 380.314 95.2C380.314 94.584 379.894 94.248 379.362 94.248ZM382.246 105H381.378C381.266 104.594 381.182 104.104 381.182 103.544C380.804 104.412 379.838 105.112 378.634 105.112C377.318 105.112 376.324 104.258 376.324 102.984C376.324 101.458 377.696 100.66 379.222 100.66C379.824 100.66 380.412 100.73 381.014 100.94V99.96C381.014 98.994 380.426 98.336 379.278 98.336C378.354 98.336 377.57 98.742 377.178 99.876L376.338 99.624C376.898 98.056 378.032 97.468 379.334 97.468C381.168 97.468 381.938 98.574 381.938 99.848V102.9C381.938 103.74 382.078 104.496 382.246 105ZM381.014 101.92V101.752C380.44 101.514 379.852 101.444 379.278 101.444C378.158 101.444 377.276 101.948 377.276 102.928C377.276 103.824 377.906 104.3 378.802 104.3C379.768 104.3 381.014 103.726 381.014 101.92ZM389.411 96.544V97.58H391.483V98.364H389.411V105H388.459V98.364H387.059V97.58H388.459V96.544C388.459 95.256 389.299 94.528 390.447 94.528C390.979 94.528 391.595 94.738 391.945 95.298L391.371 95.872C391.147 95.536 390.811 95.34 390.419 95.34C389.929 95.34 389.411 95.634 389.411 96.544ZM397.421 97.58H398.401L395.139 106.022C394.649 107.282 394.103 108.08 392.955 108.08C392.451 108.08 391.989 107.898 391.639 107.576L392.059 106.89C392.339 107.142 392.605 107.254 392.927 107.254C393.445 107.254 393.809 107.03 394.173 106.176L394.607 105.126L391.821 97.58H392.857L395.097 104.006L397.421 97.58ZM402.132 104.972C401.908 105.028 401.726 105.056 401.516 105.056C400.354 105.056 399.808 104.328 399.808 103.236V94.64H400.76V103.236C400.76 103.866 401.096 104.188 401.684 104.188C401.838 104.188 401.992 104.174 402.132 104.132V104.972ZM406.192 104.972C405.968 105.028 405.786 105.056 405.576 105.056C404.414 105.056 403.868 104.328 403.868 103.236V94.64H404.82V103.236C404.82 103.866 405.156 104.188 405.744 104.188C405.898 104.188 406.052 104.174 406.192 104.132V104.972ZM412.778 102.9L413.478 103.292C413.128 104.188 412.204 105.112 410.552 105.112C408.466 105.112 407.234 103.558 407.234 101.192C407.234 99.022 408.522 97.468 410.454 97.468C412.05 97.468 413.422 98.616 413.422 100.632L413.394 101.458H408.2C408.284 103.432 409.222 104.272 410.65 104.272C411.77 104.272 412.428 103.628 412.778 102.9ZM410.454 98.308C409.334 98.308 408.326 98.91 408.2 100.674H412.484C412.526 99.008 411.546 98.308 410.454 98.308ZM415.07 99.512C415.07 98.336 416.176 97.468 417.73 97.468C419.074 97.468 420.11 98.112 420.418 99.092L419.634 99.4C419.34 98.686 418.654 98.308 417.702 98.308C416.666 98.308 415.994 98.742 415.994 99.428C415.994 100.044 416.4 100.422 417.282 100.604L418.262 100.8C419.886 101.122 420.642 101.822 420.642 102.928C420.642 104.216 419.494 105.112 417.842 105.112C416.344 105.112 415.294 104.524 414.79 103.404L415.602 103.068C415.952 103.852 416.722 104.272 417.814 104.272C418.962 104.272 419.718 103.768 419.718 103.012C419.718 102.312 419.326 101.934 418.346 101.724L417.142 101.472C415.784 101.192 415.07 100.506 415.07 99.512ZM430.411 97.58H431.363V105H430.411V103.866C429.963 104.664 429.179 105.112 428.269 105.112C426.813 105.112 425.931 104.174 425.931 102.564V97.58H426.883V102.48C426.883 103.698 427.499 104.258 428.535 104.258C429.851 104.258 430.411 103.208 430.411 101.752V97.58ZM435.198 103.152C435.198 104.02 435.716 104.272 436.178 104.272C436.626 104.272 436.92 104.104 437.27 103.74L437.774 104.3C437.284 104.874 436.752 105.112 436.094 105.112C435.086 105.112 434.246 104.44 434.246 103.124V98.364H432.846V97.58H434.246V95.984L435.198 95.424V97.58H437.606V98.364H435.198V103.152Z" fill="#2A2859"/>
<path d="M201.232 138V127.64H204.62C207.182 127.64 209.156 129.642 209.156 132.764C209.156 135.886 207.182 138 204.62 138H201.232ZM202.212 137.104H204.424C206.58 137.104 208.148 135.648 208.148 132.764C208.148 129.908 206.566 128.536 204.396 128.536H202.212V137.104ZM216.129 135.9L216.829 136.292C216.479 137.188 215.555 138.112 213.903 138.112C211.817 138.112 210.585 136.558 210.585 134.192C210.585 132.022 211.873 130.468 213.805 130.468C215.401 130.468 216.773 131.616 216.773 133.632L216.745 134.458H211.551C211.635 136.432 212.573 137.272 214.001 137.272C215.121 137.272 215.779 136.628 216.129 135.9ZM213.805 131.308C212.685 131.308 211.677 131.91 211.551 133.674H215.835C215.877 132.008 214.897 131.308 213.805 131.308ZM220.133 136.152C220.133 137.02 220.651 137.272 221.113 137.272C221.561 137.272 221.855 137.104 222.205 136.74L222.709 137.3C222.219 137.874 221.687 138.112 221.029 138.112C220.021 138.112 219.181 137.44 219.181 136.124V131.364H217.781V130.58H219.181V128.984L220.133 128.424V130.58H222.541V131.364H220.133V136.152ZM225.547 136.152C225.547 137.02 226.065 137.272 226.527 137.272C226.975 137.272 227.269 137.104 227.619 136.74L228.123 137.3C227.633 137.874 227.101 138.112 226.443 138.112C225.435 138.112 224.595 137.44 224.595 136.124V131.364H223.195V130.58H224.595V128.984L225.547 128.424V130.58H227.955V131.364H225.547V136.152ZM234.395 135.9L235.095 136.292C234.745 137.188 233.821 138.112 232.169 138.112C230.083 138.112 228.851 136.558 228.851 134.192C228.851 132.022 230.139 130.468 232.071 130.468C233.667 130.468 235.039 131.616 235.039 133.632L235.011 134.458H229.817C229.901 136.432 230.839 137.272 232.267 137.272C233.387 137.272 234.045 136.628 234.395 135.9ZM232.071 131.308C230.951 131.308 229.943 131.91 229.817 133.674H234.101C234.143 132.008 233.163 131.308 232.071 131.308ZM245.702 135.9L246.402 136.292C246.052 137.188 245.128 138.112 243.476 138.112C241.39 138.112 240.158 136.558 240.158 134.192C240.158 132.022 241.446 130.468 243.378 130.468C244.974 130.468 246.346 131.616 246.346 133.632L246.318 134.458H241.124C241.208 136.432 242.146 137.272 243.574 137.272C244.694 137.272 245.352 136.628 245.702 135.9ZM243.378 131.308C242.258 131.308 241.25 131.91 241.124 133.674H245.408C245.45 132.008 244.47 131.308 243.378 131.308ZM251.018 130.468C251.984 130.468 252.684 131.112 252.684 132.372V133.1L251.816 133.268V132.54C251.816 131.798 251.564 131.308 250.808 131.308C249.954 131.308 249.31 131.938 249.31 133.436V138H248.358V130.58H249.31V131.504C249.702 130.804 250.36 130.468 251.018 130.468ZM259.631 136.152C259.631 137.02 260.149 137.272 260.611 137.272C261.059 137.272 261.353 137.104 261.703 136.74L262.207 137.3C261.717 137.874 261.185 138.112 260.527 138.112C259.519 138.112 258.679 137.44 258.679 136.124V131.364H257.279V130.58H258.679V128.984L259.631 128.424V130.58H262.039V131.364H259.631V136.152ZM268.479 135.9L269.179 136.292C268.829 137.188 267.905 138.112 266.253 138.112C264.167 138.112 262.935 136.558 262.935 134.192C262.935 132.022 264.223 130.468 266.155 130.468C267.751 130.468 269.123 131.616 269.123 133.632L269.095 134.458H263.901C263.985 136.432 264.923 137.272 266.351 137.272C267.471 137.272 268.129 136.628 268.479 135.9ZM266.155 131.308C265.035 131.308 264.027 131.91 263.901 133.674H268.185C268.227 132.008 267.247 131.308 266.155 131.308ZM275.756 138L273.026 134.318L272.116 135.186V138H271.164V127.64H272.116V134.066L275.644 130.58H276.904L273.67 133.688L276.96 138H275.756ZM277.772 132.512C277.772 131.336 278.878 130.468 280.432 130.468C281.776 130.468 282.812 131.112 283.12 132.092L282.336 132.4C282.042 131.686 281.356 131.308 280.404 131.308C279.368 131.308 278.696 131.742 278.696 132.428C278.696 133.044 279.102 133.422 279.984 133.604L280.964 133.8C282.588 134.122 283.344 134.822 283.344 135.928C283.344 137.216 282.196 138.112 280.544 138.112C279.046 138.112 277.996 137.524 277.492 136.404L278.304 136.068C278.654 136.852 279.424 137.272 280.516 137.272C281.664 137.272 282.42 136.768 282.42 136.012C282.42 135.312 282.028 134.934 281.048 134.724L279.844 134.472C278.486 134.192 277.772 133.506 277.772 132.512ZM286.565 136.152C286.565 137.02 287.083 137.272 287.545 137.272C287.993 137.272 288.287 137.104 288.637 136.74L289.141 137.3C288.651 137.874 288.119 138.112 287.461 138.112C286.453 138.112 285.613 137.44 285.613 136.124V131.364H284.213V130.58H285.613V128.984L286.565 128.424V130.58H288.973V131.364H286.565V136.152ZM297.178 138.112C295.344 138.112 293.874 136.6 293.874 134.276C293.874 131.98 295.33 130.468 297.178 130.468C299.026 130.468 300.482 131.98 300.482 134.276C300.482 136.6 299.012 138.112 297.178 138.112ZM297.178 137.272C298.452 137.272 299.502 136.264 299.502 134.276C299.502 132.302 298.438 131.308 297.178 131.308C295.918 131.308 294.854 132.302 294.854 134.276C294.854 136.264 295.904 137.272 297.178 137.272ZM306.875 130.58H307.855L304.943 138H304.103L301.191 130.58H302.227L304.551 136.95L306.875 130.58ZM314.102 135.9L314.802 136.292C314.452 137.188 313.528 138.112 311.876 138.112C309.79 138.112 308.558 136.558 308.558 134.192C308.558 132.022 309.846 130.468 311.778 130.468C313.374 130.468 314.746 131.616 314.746 133.632L314.718 134.458H309.524C309.608 136.432 310.546 137.272 311.974 137.272C313.094 137.272 313.752 136.628 314.102 135.9ZM311.778 131.308C310.658 131.308 309.65 131.91 309.524 133.674H313.808C313.85 132.008 312.87 131.308 311.778 131.308ZM319.419 130.468C320.385 130.468 321.085 131.112 321.085 132.372V133.1L320.217 133.268V132.54C320.217 131.798 319.965 131.308 319.209 131.308C318.355 131.308 317.711 131.938 317.711 133.436V138H316.759V130.58H317.711V131.504C318.103 130.804 318.761 130.468 319.419 130.468ZM329.656 130.468C331.14 130.468 332.008 131.378 332.008 133.044V138H331.056V133.184C331.056 131.84 330.44 131.336 329.404 131.336C328.102 131.336 327.5 132.344 327.5 133.828V138H326.548V130.58H327.5V131.728C327.948 130.916 328.76 130.468 329.656 130.468ZM339.368 135.9L340.068 136.292C339.718 137.188 338.794 138.112 337.142 138.112C335.056 138.112 333.824 136.558 333.824 134.192C333.824 132.022 335.112 130.468 337.044 130.468C338.64 130.468 340.012 131.616 340.012 133.632L339.984 134.458H334.79C334.874 136.432 335.812 137.272 337.24 137.272C338.36 137.272 339.018 136.628 339.368 135.9ZM337.044 131.308C335.924 131.308 334.916 131.91 334.79 133.674H339.074C339.116 132.008 338.136 131.308 337.044 131.308ZM347.148 127.64H348.1V138H347.148V136.614C346.658 137.566 345.678 138.098 344.712 138.098C342.822 138.098 341.548 136.516 341.548 134.36C341.548 132.078 342.836 130.468 344.824 130.468C345.86 130.468 346.7 130.986 347.148 131.924V127.64ZM344.81 137.258C346.294 137.258 347.148 136.152 347.148 134.332C347.148 132.4 346.308 131.308 344.824 131.308C343.438 131.308 342.528 132.372 342.528 134.318C342.528 136.194 343.438 137.258 344.81 137.258ZM351.93 136.152C351.93 137.02 352.448 137.272 352.91 137.272C353.358 137.272 353.652 137.104 354.002 136.74L354.506 137.3C354.016 137.874 353.484 138.112 352.826 138.112C351.818 138.112 350.978 137.44 350.978 136.124V131.364H349.578V130.58H350.978V128.984L351.93 128.424V130.58H354.338V131.364H351.93V136.152ZM358.794 130.468C359.76 130.468 360.46 131.112 360.46 132.372V133.1L359.592 133.268V132.54C359.592 131.798 359.34 131.308 358.584 131.308C357.73 131.308 357.086 131.938 357.086 133.436V138H356.134V130.58H357.086V131.504C357.478 130.804 358.136 130.468 358.794 130.468ZM366.985 135.9L367.685 136.292C367.335 137.188 366.411 138.112 364.759 138.112C362.673 138.112 361.441 136.558 361.441 134.192C361.441 132.022 362.729 130.468 364.661 130.468C366.257 130.468 367.629 131.616 367.629 133.632L367.601 134.458H362.407C362.491 136.432 363.429 137.272 364.857 137.272C365.977 137.272 366.635 136.628 366.985 135.9ZM364.661 131.308C363.541 131.308 362.533 131.91 362.407 133.674H366.691C366.733 132.008 365.753 131.308 364.661 131.308ZM374.262 138L371.532 134.318L370.622 135.186V138H369.67V127.64H370.622V134.066L374.15 130.58H375.41L372.176 133.688L375.466 138H374.262ZM381.685 138L378.955 134.318L378.045 135.186V138H377.093V127.64H378.045V134.066L381.573 130.58H382.833L379.599 133.688L382.889 138H381.685ZM383.701 132.512C383.701 131.336 384.807 130.468 386.361 130.468C387.705 130.468 388.741 131.112 389.049 132.092L388.265 132.4C387.971 131.686 387.285 131.308 386.333 131.308C385.297 131.308 384.625 131.742 384.625 132.428C384.625 133.044 385.031 133.422 385.913 133.604L386.893 133.8C388.517 134.122 389.273 134.822 389.273 135.928C389.273 137.216 388.125 138.112 386.473 138.112C384.975 138.112 383.925 137.524 383.421 136.404L384.233 136.068C384.583 136.852 385.353 137.272 386.445 137.272C387.593 137.272 388.349 136.768 388.349 136.012C388.349 135.312 387.957 134.934 386.977 134.724L385.773 134.472C384.415 134.192 383.701 133.506 383.701 132.512ZM392.495 129.544V130.58H394.567V131.364H392.495V138H391.543V131.364H390.143V130.58H391.543V129.544C391.543 128.256 392.383 127.528 393.531 127.528C394.063 127.528 394.679 127.738 395.029 128.298L394.455 128.872C394.231 128.536 393.895 128.34 393.503 128.34C393.013 128.34 392.495 128.634 392.495 129.544ZM400.659 135.9L401.359 136.292C401.009 137.188 400.085 138.112 398.433 138.112C396.347 138.112 395.115 136.558 395.115 134.192C395.115 132.022 396.403 130.468 398.335 130.468C399.931 130.468 401.303 131.616 401.303 133.632L401.275 134.458H396.081C396.165 136.432 397.103 137.272 398.531 137.272C399.651 137.272 400.309 136.628 400.659 135.9ZM398.335 131.308C397.215 131.308 396.207 131.91 396.081 133.674H400.365C400.407 132.008 399.427 131.308 398.335 131.308ZM405.639 137.972C405.415 138.028 405.233 138.056 405.023 138.056C403.861 138.056 403.315 137.328 403.315 136.236V127.64H404.267V136.236C404.267 136.866 404.603 137.188 405.191 137.188C405.345 137.188 405.499 137.174 405.639 137.132V137.972ZM408.723 136.152C408.723 137.02 409.241 137.272 409.703 137.272C410.151 137.272 410.445 137.104 410.795 136.74L411.299 137.3C410.809 137.874 410.277 138.112 409.619 138.112C408.611 138.112 407.771 137.44 407.771 136.124V131.364H406.371V130.58H407.771V128.984L408.723 128.424V130.58H411.131V131.364H408.723V136.152ZM417.571 135.9L418.271 136.292C417.921 137.188 416.997 138.112 415.345 138.112C413.259 138.112 412.027 136.558 412.027 134.192C412.027 132.022 413.315 130.468 415.247 130.468C416.843 130.468 418.215 131.616 418.215 133.632L418.187 134.458H412.993C413.077 136.432 414.015 137.272 415.443 137.272C416.563 137.272 417.221 136.628 417.571 135.9ZM415.247 131.308C414.127 131.308 413.119 131.91 412.993 133.674H417.277C417.319 132.008 416.339 131.308 415.247 131.308ZM421.575 136.152C421.575 137.02 422.093 137.272 422.555 137.272C423.003 137.272 423.297 137.104 423.647 136.74L424.151 137.3C423.661 137.874 423.129 138.112 422.471 138.112C421.463 138.112 420.623 137.44 420.623 136.124V131.364H419.223V130.58H420.623V128.984L421.575 128.424V130.58H423.983V131.364H421.575V136.152ZM426.478 138.084C425.974 138.084 425.582 137.706 425.582 137.188C425.582 136.67 425.974 136.292 426.478 136.292C426.982 136.292 427.374 136.67 427.374 137.188C427.374 137.706 426.982 138.084 426.478 138.084Z" fill="#2A2859"/>
<path d="M202.212 167.076H207.028V168H201.232V157.64H202.212V167.076ZM213.463 165.9L214.163 166.292C213.813 167.188 212.889 168.112 211.237 168.112C209.151 168.112 207.919 166.558 207.919 164.192C207.919 162.022 209.207 160.468 211.139 160.468C212.735 160.468 214.107 161.616 214.107 163.632L214.079 164.458H208.885C208.969 166.432 209.907 167.272 211.335 167.272C212.455 167.272 213.113 166.628 213.463 165.9ZM211.139 161.308C210.019 161.308 209.011 161.91 208.885 163.674H213.169C213.211 162.008 212.231 161.308 211.139 161.308ZM215.756 162.512C215.756 161.336 216.862 160.468 218.416 160.468C219.76 160.468 220.796 161.112 221.104 162.092L220.32 162.4C220.026 161.686 219.34 161.308 218.388 161.308C217.352 161.308 216.68 161.742 216.68 162.428C216.68 163.044 217.086 163.422 217.968 163.604L218.948 163.8C220.572 164.122 221.328 164.822 221.328 165.928C221.328 167.216 220.18 168.112 218.528 168.112C217.03 168.112 215.98 167.524 215.476 166.404L216.288 166.068C216.638 166.852 217.408 167.272 218.5 167.272C219.648 167.272 220.404 166.768 220.404 166.012C220.404 165.312 220.012 164.934 219.032 164.724L217.828 164.472C216.47 164.192 215.756 163.506 215.756 162.512ZM234.176 160.468C235.59 160.468 236.416 161.364 236.416 162.904V168H235.464V163.044C235.464 161.84 234.89 161.336 233.924 161.336C232.622 161.336 232.076 162.344 232.076 163.828V168H231.124V163.044C231.124 161.84 230.55 161.336 229.584 161.336C228.282 161.336 227.736 162.344 227.736 163.828V168H226.784V160.58H227.736V161.742C228.184 160.916 228.968 160.468 229.836 160.468C230.942 160.468 231.684 161.014 231.95 161.98C232.37 161 233.224 160.468 234.176 160.468ZM243.774 165.9L244.474 166.292C244.124 167.188 243.2 168.112 241.548 168.112C239.462 168.112 238.23 166.558 238.23 164.192C238.23 162.022 239.518 160.468 241.45 160.468C243.046 160.468 244.418 161.616 244.418 163.632L244.39 164.458H239.196C239.28 166.432 240.218 167.272 241.646 167.272C242.766 167.272 243.424 166.628 243.774 165.9ZM241.45 161.308C240.33 161.308 239.322 161.91 239.196 163.674H243.48C243.522 162.008 242.542 161.308 241.45 161.308ZM249.091 160.468C250.057 160.468 250.757 161.112 250.757 162.372V163.1L249.889 163.268V162.54C249.889 161.798 249.637 161.308 248.881 161.308C248.027 161.308 247.383 161.938 247.383 163.436V168H246.431V160.58H247.383V161.504C247.775 160.804 248.433 160.468 249.091 160.468Z" fill="#2A2859"/>
<path fill-rule="evenodd" clip-rule="evenodd" d="M269 165.92L263.56 160.625L262.812 161.353L269 167.375L275.188 161.353L274.44 160.625L269 165.92Z" fill="#2A2859"/>
<rect x="201" y="183" width="398" height="46" fill="white"/>
<path d="M226.188 198.68H227.52L222.642 212H221.382L216.54 198.68H217.908L222.03 210.542L226.188 198.68ZM234.657 209.3L235.557 209.804C235.107 210.956 233.919 212.144 231.795 212.144C229.113 212.144 227.529 210.146 227.529 207.104C227.529 204.314 229.185 202.316 231.669 202.316C233.721 202.316 235.485 203.792 235.485 206.384L235.449 207.446H228.771C228.879 209.984 230.085 211.064 231.921 211.064C233.361 211.064 234.207 210.236 234.657 209.3ZM231.669 203.396C230.229 203.396 228.933 204.17 228.771 206.438H234.279C234.333 204.296 233.073 203.396 231.669 203.396ZM240.861 211.964C240.573 212.036 240.339 212.072 240.069 212.072C238.575 212.072 237.873 211.136 237.873 209.732V198.68H239.097V209.732C239.097 210.542 239.529 210.956 240.285 210.956C240.483 210.956 240.681 210.938 240.861 210.884V211.964ZM251.11 203.468H249.058V203.81C249.526 204.386 249.778 205.106 249.778 205.808C249.778 207.554 248.518 209.336 245.836 209.336H245.422C244.342 209.336 243.568 209.75 243.568 210.38C243.568 210.866 243.946 211.208 244.738 211.208H248.608C250.156 211.208 250.948 211.964 250.948 213.152C250.948 215.042 248.77 216.032 246.088 216.032C243.676 216.032 242.002 215.258 241.426 213.584L242.416 213.134C243.082 214.7 244.486 215.006 246.088 215.006C248.068 215.006 249.724 214.412 249.724 213.26C249.724 212.72 249.436 212.324 248.572 212.324H244.468C243.136 212.324 242.344 211.694 242.344 210.704C242.344 209.858 243.046 209.12 244.216 208.814C242.956 208.31 242.254 206.978 242.254 205.808C242.254 204.098 243.532 202.316 246.052 202.316C247.042 202.316 247.798 202.64 248.374 203.126V202.46H251.11V203.468ZM246.034 208.328C247.726 208.328 248.572 207.158 248.572 205.808C248.572 204.476 247.726 203.36 246.034 203.36C244.324 203.36 243.46 204.494 243.46 205.808C243.46 207.14 244.324 208.328 246.034 208.328Z" fill="#2A2859"/>
<path fill-rule="evenodd" clip-rule="evenodd" d="M572 208.56L564.747 201.5L563.75 202.47L572 210.5L580.25 202.47L579.253 201.5L572 208.56Z" fill="#2A2859"/>
<rect x="201" y="183" width="398" height="46" stroke="#2A2859" stroke-width="2"/>
<g clip-path="url(#clip0_5730_199254)">
<rect x="152" y="97" width="50" height="1" fill="#6FE9FF"/>
<g clip-path="url(#clip1_5730_199254)">
<rect x="152" y="85" width="24" height="24" rx="12" fill="#6FE9FF"/>
<path d="M164.71 100.1H166.666V101H161.59V100.1H163.654V93.32L161.698 94.628V93.524L163.762 92.12H164.71V100.1Z" fill="#2A2859"/>
</g>
</g>
<g clip-path="url(#clip2_5730_199254)">
<rect x="321" y="36" width="1" height="51" fill="#6FE9FF"/>
<g clip-path="url(#clip3_5730_199254)">
<rect x="309" y="36" width="24" height="24" rx="12" fill="#6FE9FF"/>
<path d="M319.574 51.028H324.086V52H318.146V51.184L321.302 47.752C322.214 46.768 322.586 46.228 322.586 45.46C322.586 44.632 322.022 43.96 320.966 43.96C320.042 43.96 319.346 44.416 319.01 45.472L318.038 45.208C318.554 43.636 319.67 43.012 320.99 43.012C322.766 43.012 323.69 44.2 323.69 45.376C323.69 46.396 323.282 47.068 322.106 48.34L319.574 51.028Z" fill="#2A2859"/>
</g>
</g>
<g clip-path="url(#clip4_5730_199254)">
<rect x="401.5" y="36" width="1" height="51" fill="#6FE9FF"/>
<g clip-path="url(#clip5_5730_199254)">
<rect x="389.5" y="36" width="24" height="24" rx="12" fill="#6FE9FF"/>
<path d="M402.906 47.308C403.794 47.608 404.526 48.316 404.526 49.48C404.526 50.92 403.314 52.108 401.358 52.108C400.17 52.108 399.054 51.664 398.19 50.464L398.982 49.84C399.63 50.764 400.35 51.148 401.406 51.148C402.678 51.148 403.47 50.38 403.47 49.444C403.47 48.796 403.206 48.388 402.798 48.148C402.486 47.98 402.198 47.896 401.706 47.896H400.446V46.984H401.346C402.018 46.984 402.294 46.888 402.582 46.66C402.918 46.384 403.11 45.976 403.11 45.496C403.11 44.56 402.426 43.96 401.322 43.96C400.386 43.96 399.666 44.44 399.294 45.472L398.346 45.184C398.922 43.684 400.026 43.012 401.358 43.012C403.266 43.012 404.154 44.212 404.154 45.376C404.154 46.264 403.626 46.96 402.906 47.308Z" fill="#2A2859"/>
</g>
</g>
<g clip-path="url(#clip6_5730_199254)">
<rect x="152" y="131" width="48" height="1" fill="#6FE9FF"/>
<g clip-path="url(#clip7_5730_199254)">
<rect x="152" y="119" width="24" height="24" rx="12" fill="#6FE9FF"/>
<path d="M167.326 131.796V132.744H165.886V135H164.866V132.744H160.882V131.928L162.994 126.12H164.014L161.998 131.796H164.866V129.264L165.886 128.964V131.796H167.326Z" fill="#2A2859"/>
</g>
</g>
<g clip-path="url(#clip8_5730_199254)">
<rect x="152" y="164" width="48" height="1" fill="#6FE9FF"/>
<g clip-path="url(#clip9_5730_199254)">
<rect x="152" y="152" width="24" height="24" rx="12" fill="#6FE9FF"/>
<path d="M164.326 162.264C165.97 162.264 167.134 163.416 167.134 165.024C167.134 166.764 165.85 168.096 163.822 168.096C162.682 168.096 161.578 167.664 160.726 166.464L161.506 165.852C162.154 166.764 162.898 167.16 163.894 167.16C165.178 167.16 166.054 166.248 166.054 165.096C166.054 163.896 165.25 163.164 164.134 163.164C163.318 163.164 162.79 163.416 162.094 164.088L161.278 163.776L161.566 159.12H166.45V160.092H162.454L162.238 163.08C162.778 162.552 163.522 162.264 164.326 162.264Z" fill="#2A2859"/>
</g>
</g>
<g clip-path="url(#clip10_5730_199254)">
<rect x="152" y="210" width="48" height="1" fill="#6FE9FF"/>
<g clip-path="url(#clip11_5730_199254)">
<rect x="152" y="198" width="24" height="24" rx="12" fill="#6FE9FF"/>
<path d="M164.17 214.108C162.082 214.108 160.87 212.392 160.87 209.512C160.87 206.944 162.19 205.012 164.47 205.012C165.754 205.012 166.606 205.636 167.05 206.608L166.162 207.124C165.838 206.428 165.19 205.972 164.41 205.972C162.742 205.972 161.734 207.496 161.938 210.028C162.37 208.924 163.378 208.348 164.386 208.348C165.814 208.348 167.17 209.416 167.17 211.156C167.17 212.656 166.102 214.108 164.17 214.108ZM162.274 211.192C162.274 212.476 163.174 213.172 164.206 213.172C165.238 213.172 166.09 212.488 166.09 211.192C166.09 210.064 165.25 209.26 164.182 209.26C163.198 209.26 162.274 209.908 162.274 211.192Z" fill="#2A2859"/>
</g>
</g>
<g clip-path="url(#clip12_5730_199254)">
<rect x="234" y="220" width="1" height="56" fill="#6FE9FF"/>
<g clip-path="url(#clip13_5730_199254)">
<rect x="222" y="252" width="24" height="24" rx="12" fill="#6FE9FF"/>
<path d="M231.11 259.12H237.386V260.008L233.282 268H232.118L236.27 260.056H232.082V261.856H231.11V259.12Z" fill="#2A2859"/>
</g>
</g>
<defs>
<clipPath id="clip0_5730_199254">
<rect width="49.566" height="24" fill="white" transform="translate(152 85)"/>
</clipPath>
<clipPath id="clip1_5730_199254">
<rect x="152" y="85" width="24" height="24" rx="12" fill="white"/>
</clipPath>
<clipPath id="clip2_5730_199254">
<rect width="24" height="51" fill="white" transform="translate(309 36)"/>
</clipPath>
<clipPath id="clip3_5730_199254">
<rect x="309" y="36" width="24" height="24" rx="12" fill="white"/>
</clipPath>
<clipPath id="clip4_5730_199254">
<rect width="24" height="51" fill="white" transform="translate(389.5 36)"/>
</clipPath>
<clipPath id="clip5_5730_199254">
<rect x="389.5" y="36" width="24" height="24" rx="12" fill="white"/>
</clipPath>
<clipPath id="clip6_5730_199254">
<rect width="48" height="24" fill="white" transform="translate(152 119)"/>
</clipPath>
<clipPath id="clip7_5730_199254">
<rect x="152" y="119" width="24" height="24" rx="12" fill="white"/>
</clipPath>
<clipPath id="clip8_5730_199254">
<rect width="48" height="24" fill="white" transform="translate(152 152)"/>
</clipPath>
<clipPath id="clip9_5730_199254">
<rect x="152" y="152" width="24" height="24" rx="12" fill="white"/>
</clipPath>
<clipPath id="clip10_5730_199254">
<rect width="48" height="24" fill="white" transform="translate(152 198)"/>
</clipPath>
<clipPath id="clip11_5730_199254">
<rect x="152" y="198" width="24" height="24" rx="12" fill="white"/>
</clipPath>
<clipPath id="clip12_5730_199254">
<rect width="24" height="56" fill="white" transform="translate(222 220)"/>
</clipPath>
<clipPath id="clip13_5730_199254">
<rect x="222" y="252" width="24" height="24" rx="12" fill="white"/>
</clipPath>
</defs>
</svg>
