<svg width="889" height="394" viewBox="0 0 889 394" fill="none" xmlns="http://www.w3.org/2000/svg">
<rect width="889" height="394" fill="white"/>
<path d="M253.842 107.68H255.948V121H253.842V115.312H248.172V121H246.066V107.68H248.172V113.278H253.842V107.68ZM264.85 111.46H266.938L263.284 121H261.214L257.578 111.46H259.81L262.33 118.894L264.85 111.46ZM269.453 109.876C268.661 109.876 268.031 109.264 268.031 108.454C268.031 107.644 268.661 107.032 269.453 107.032C270.245 107.032 270.857 107.644 270.857 108.454C270.857 109.264 270.245 109.876 269.453 109.876ZM268.445 121V111.46H270.461V121H268.445ZM277.176 120.946C276.798 121.054 276.42 121.108 276.024 121.108C274.206 121.108 273.342 120.028 273.342 118.282V107.68H275.358V118.138C275.358 118.966 275.844 119.344 276.582 119.344C276.762 119.344 276.96 119.326 277.176 119.272V120.946ZM285.219 121L282.321 116.626L281.223 117.706V121H279.207V107.68H281.223V115.42L285.075 111.46H287.559L283.653 115.312L287.631 121H285.219ZM295.227 117.994L296.595 118.786C296.055 119.974 294.795 121.162 292.617 121.162C289.791 121.162 288.081 119.074 288.081 116.14C288.081 113.242 289.935 111.244 292.473 111.244C294.723 111.244 296.577 112.756 296.577 115.456L296.541 116.644H290.061C290.169 118.66 291.159 119.524 292.743 119.524C293.913 119.524 294.723 118.894 295.227 117.994ZM292.473 112.828C291.249 112.828 290.223 113.476 290.061 115.204H294.615C294.633 113.512 293.589 112.828 292.473 112.828ZM303.669 111.244C305.613 111.244 306.765 112.504 306.765 114.574V121H304.749V114.898C304.749 113.584 304.119 112.99 303.021 112.99C301.599 112.99 300.879 113.98 300.879 115.834V121H298.863V111.46H300.879V112.828C301.527 111.82 302.481 111.244 303.669 111.244ZM318.919 111.262C321.223 111.262 322.879 113.224 322.879 116.14C322.879 119.128 321.205 121.144 318.685 121.144C317.587 121.144 316.525 120.658 315.913 119.47V121H313.897V107.68H315.913V113.17C316.651 111.82 317.821 111.262 318.919 111.262ZM318.379 119.488C319.765 119.488 320.791 118.372 320.791 116.23C320.791 114.088 319.765 112.99 318.379 112.99C316.903 112.99 315.913 113.998 315.913 116.212C315.913 118.426 316.903 119.488 318.379 119.488ZM330.845 111.46H332.951L329.081 121.738C328.325 123.736 327.407 124.996 325.445 124.996C324.653 124.996 323.897 124.744 323.339 124.276L324.095 122.872C324.455 123.196 324.815 123.358 325.283 123.358C326.021 123.358 326.561 122.998 326.957 122.026L327.281 121.27L323.627 111.46H325.877L328.361 119.056L330.845 111.46ZM340.453 107.68H342.469V121H340.453V119.272C339.715 120.604 338.563 121.144 337.465 121.144C335.161 121.144 333.505 119.164 333.505 116.266C333.505 113.26 335.179 111.262 337.699 111.262C338.779 111.262 339.859 111.748 340.453 112.918V107.68ZM338.005 119.38C339.463 119.38 340.453 118.39 340.453 116.158C340.453 113.944 339.481 112.882 338.005 112.882C336.619 112.882 335.593 113.998 335.593 116.158C335.593 118.3 336.619 119.38 338.005 119.38ZM351.665 117.994L353.033 118.786C352.493 119.974 351.233 121.162 349.055 121.162C346.229 121.162 344.519 119.074 344.519 116.14C344.519 113.242 346.373 111.244 348.911 111.244C351.161 111.244 353.015 112.756 353.015 115.456L352.979 116.644H346.499C346.607 118.66 347.597 119.524 349.181 119.524C350.351 119.524 351.161 118.894 351.665 117.994ZM348.911 112.828C347.687 112.828 346.661 113.476 346.499 115.204H351.053C351.071 113.512 350.027 112.828 348.911 112.828ZM359.136 120.946C358.758 121.054 358.38 121.108 357.984 121.108C356.166 121.108 355.302 120.028 355.302 118.282V107.68H357.318V118.138C357.318 118.966 357.804 119.344 358.542 119.344C358.722 119.344 358.92 119.326 359.136 119.272V120.946ZM368.272 118.048C368.272 119.11 368.92 119.434 369.586 119.434C370.108 119.434 370.522 119.218 370.936 118.804L371.8 120.1C371.08 120.82 370.288 121.162 369.262 121.162C367.606 121.162 366.256 120.154 366.256 118.174V113.026H364.582V111.46H366.256V109.336L368.272 108.418V111.46H371.638V113.026H368.272V118.048ZM373.312 107.32H375.778V109.75H373.312V107.32ZM373.546 121V111.46H375.562V121H373.546ZM382.278 120.946C381.9 121.054 381.522 121.108 381.126 121.108C379.308 121.108 378.444 120.028 378.444 118.282V107.68H380.46V118.138C380.46 118.966 380.946 119.344 381.684 119.344C381.864 119.344 382.062 119.326 382.278 119.272V120.946ZM389.132 111.244C391.076 111.244 392.228 112.504 392.228 114.574V121H390.212V114.898C390.212 113.584 389.582 112.99 388.484 112.99C387.062 112.99 386.324 113.98 386.324 115.834V121H384.308V107.68H386.324V112.846C386.972 111.82 387.944 111.244 389.132 111.244ZM401.416 112.036C402.622 112.864 403.396 114.322 403.396 116.176C403.396 119.236 401.362 121.18 398.878 121.18C398.248 121.18 397.654 121.054 397.096 120.82L396.538 121.972H395.512L396.304 120.37C395.134 119.524 394.36 118.066 394.36 116.176C394.36 113.188 396.376 111.244 398.878 111.244C399.508 111.244 400.084 111.37 400.624 111.586L401.182 110.47H402.19L401.416 112.036ZM396.43 116.176C396.43 117.292 396.7 118.12 397.15 118.66L399.85 113.152C399.562 113.026 399.22 112.954 398.878 112.954C397.546 112.954 396.43 113.908 396.43 116.176ZM398.878 119.47C400.228 119.47 401.326 118.426 401.326 116.176C401.326 115.042 401.038 114.232 400.606 113.71L397.87 119.254C398.176 119.398 398.518 119.47 398.878 119.47ZM409.886 111.244C411.272 111.244 412.172 112.162 412.172 113.8V115.06L410.552 115.348V114.376C410.552 113.512 410.246 112.918 409.31 112.918C408.284 112.918 407.528 113.602 407.528 115.42V121H405.512V111.46H407.528V112.738C408.068 111.676 409.058 111.244 409.886 111.244ZM420.301 117.994L421.669 118.786C421.129 119.974 419.869 121.162 417.691 121.162C414.865 121.162 413.155 119.074 413.155 116.14C413.155 113.242 415.009 111.244 417.547 111.244C419.797 111.244 421.651 112.756 421.651 115.456L421.615 116.644H415.135C415.243 118.66 416.233 119.524 417.817 119.524C418.987 119.524 419.797 118.894 420.301 117.994ZM417.547 112.828C416.323 112.828 415.297 113.476 415.135 115.204H419.689C419.707 113.512 418.663 112.828 417.547 112.828ZM428.312 111.244C429.698 111.244 430.598 112.162 430.598 113.8V115.06L428.978 115.348V114.376C428.978 113.512 428.672 112.918 427.736 112.918C426.71 112.918 425.954 113.602 425.954 115.42V121H423.938V111.46H425.954V112.738C426.494 111.676 427.484 111.244 428.312 111.244ZM443.48 107.68H445.496V121H443.48V119.272C442.742 120.604 441.59 121.144 440.492 121.144C438.188 121.144 436.532 119.164 436.532 116.266C436.532 113.26 438.206 111.262 440.726 111.262C441.806 111.262 442.886 111.748 443.48 112.918V107.68ZM441.032 119.38C442.49 119.38 443.48 118.39 443.48 116.158C443.48 113.944 442.508 112.882 441.032 112.882C439.646 112.882 438.62 113.998 438.62 116.158C438.62 118.3 439.646 119.38 441.032 119.38ZM453.774 111.46H455.79V121H453.774V119.596C453.162 120.64 452.208 121.162 451.038 121.162C449.076 121.162 447.942 119.902 447.942 117.832V111.46H449.958V117.526C449.958 118.768 450.57 119.434 451.668 119.434C453.072 119.434 453.774 118.426 453.774 116.572V111.46ZM461.573 107.5C464.057 107.5 465.803 108.922 465.803 111.19C465.803 113.44 464.057 114.664 462.077 115.222L462.041 116.77H460.403L460.295 114.07C462.239 113.782 463.643 113.044 463.643 111.298C463.643 110.128 462.833 109.372 461.501 109.372C460.295 109.372 459.377 110.038 458.783 111.226L457.055 110.488C457.991 108.49 459.701 107.5 461.573 107.5ZM461.213 118.102C462.077 118.102 462.725 118.768 462.725 119.614C462.725 120.46 462.077 121.126 461.213 121.126C460.367 121.126 459.719 120.46 459.719 119.614C459.719 118.768 460.367 118.102 461.213 118.102Z" fill="#2A2859"/>
<path d="M246.712 153H245.732V142.64H251.836V143.564H246.712V147.512H250.884V148.436H246.712V153ZM255.45 153.112C253.616 153.112 252.146 151.6 252.146 149.276C252.146 146.98 253.602 145.468 255.45 145.468C257.298 145.468 258.754 146.98 258.754 149.276C258.754 151.6 257.284 153.112 255.45 153.112ZM255.45 152.272C256.724 152.272 257.774 151.264 257.774 149.276C257.774 147.302 256.71 146.308 255.45 146.308C254.19 146.308 253.126 147.302 253.126 149.276C253.126 151.264 254.176 152.272 255.45 152.272ZM263.348 145.468C264.314 145.468 265.014 146.112 265.014 147.372V148.1L264.146 148.268V147.54C264.146 146.798 263.894 146.308 263.138 146.308C262.284 146.308 261.64 146.938 261.64 148.436V153H260.688V145.58H261.64V146.504C262.032 145.804 262.69 145.468 263.348 145.468ZM273.123 144.796C272.213 144.796 271.471 144.124 271.471 143.2C271.471 142.276 272.213 141.604 273.123 141.604C274.033 141.604 274.775 142.276 274.775 143.2C274.775 144.124 274.033 144.796 273.123 144.796ZM273.123 142.248C272.591 142.248 272.171 142.584 272.171 143.2C272.171 143.83 272.591 144.152 273.123 144.152C273.655 144.152 274.075 143.83 274.075 143.2C274.075 142.584 273.655 142.248 273.123 142.248ZM276.007 153H275.139C275.027 152.594 274.943 152.104 274.943 151.544C274.565 152.412 273.599 153.112 272.395 153.112C271.079 153.112 270.085 152.258 270.085 150.984C270.085 149.458 271.457 148.66 272.983 148.66C273.585 148.66 274.173 148.73 274.775 148.94V147.96C274.775 146.994 274.187 146.336 273.039 146.336C272.115 146.336 271.331 146.742 270.939 147.876L270.099 147.624C270.659 146.056 271.793 145.468 273.095 145.468C274.929 145.468 275.699 146.574 275.699 147.848V150.9C275.699 151.74 275.839 152.496 276.007 153ZM274.775 149.92V149.752C274.201 149.514 273.613 149.444 273.039 149.444C271.919 149.444 271.037 149.948 271.037 150.928C271.037 151.824 271.667 152.3 272.563 152.3C273.529 152.3 274.775 151.726 274.775 149.92ZM286.308 153L283.578 149.318L282.668 150.186V153H281.716V142.64H282.668V149.066L286.196 145.58H287.456L284.222 148.688L287.512 153H286.308ZM293 145.58H293.952V153H293V151.866C292.552 152.664 291.768 153.112 290.858 153.112C289.402 153.112 288.52 152.174 288.52 150.564V145.58H289.472V150.48C289.472 151.698 290.088 152.258 291.124 152.258C292.44 152.258 293 151.208 293 149.752V145.58ZM299.412 145.468C300.896 145.468 301.764 146.378 301.764 148.044V153H300.812V148.184C300.812 146.84 300.196 146.336 299.16 146.336C297.858 146.336 297.256 147.344 297.256 148.828V153H296.304V145.58H297.256V146.728C297.704 145.916 298.516 145.468 299.412 145.468ZM307.164 145.468C308.648 145.468 309.516 146.378 309.516 148.044V153H308.564V148.184C308.564 146.84 307.948 146.336 306.912 146.336C305.61 146.336 305.008 147.344 305.008 148.828V153H304.056V145.58H305.008V146.728C305.456 145.916 306.268 145.468 307.164 145.468ZM316.876 150.9L317.576 151.292C317.226 152.188 316.302 153.112 314.65 153.112C312.564 153.112 311.332 151.558 311.332 149.192C311.332 147.022 312.62 145.468 314.552 145.468C316.148 145.468 317.52 146.616 317.52 148.632L317.492 149.458H312.298C312.382 151.432 313.32 152.272 314.748 152.272C315.868 152.272 316.526 151.628 316.876 150.9ZM314.552 146.308C313.432 146.308 312.424 146.91 312.298 148.674H316.582C316.624 147.008 315.644 146.308 314.552 146.308ZM322.75 147.512C322.75 146.336 323.856 145.468 325.41 145.468C326.754 145.468 327.79 146.112 328.098 147.092L327.314 147.4C327.02 146.686 326.334 146.308 325.382 146.308C324.346 146.308 323.674 146.742 323.674 147.428C323.674 148.044 324.08 148.422 324.962 148.604L325.942 148.8C327.566 149.122 328.322 149.822 328.322 150.928C328.322 152.216 327.174 153.112 325.522 153.112C324.024 153.112 322.974 152.524 322.47 151.404L323.282 151.068C323.632 151.852 324.402 152.272 325.494 152.272C326.642 152.272 327.398 151.768 327.398 151.012C327.398 150.312 327.006 149.934 326.026 149.724L324.822 149.472C323.464 149.192 322.75 148.506 322.75 147.512ZM335.264 150.9L335.964 151.292C335.614 152.188 334.69 153.112 333.038 153.112C330.952 153.112 329.72 151.558 329.72 149.192C329.72 147.022 331.008 145.468 332.94 145.468C334.536 145.468 335.908 146.616 335.908 148.632L335.88 149.458H330.686C330.77 151.432 331.708 152.272 333.136 152.272C334.256 152.272 334.914 151.628 335.264 150.9ZM332.94 146.308C331.82 146.308 330.812 146.91 330.686 148.674H334.97C335.012 147.008 334.032 146.308 332.94 146.308ZM341.029 145.468C342.513 145.468 343.381 146.378 343.381 148.044V153H342.429V148.184C342.429 146.84 341.813 146.336 340.777 146.336C339.475 146.336 338.873 147.344 338.873 148.828V153H337.921V145.58H338.873V146.728C339.321 145.916 340.133 145.468 341.029 145.468ZM350.797 142.64H351.749V153H350.797V151.614C350.307 152.566 349.327 153.098 348.361 153.098C346.471 153.098 345.197 151.516 345.197 149.36C345.197 147.078 346.485 145.468 348.473 145.468C349.509 145.468 350.349 145.986 350.797 146.924V142.64ZM348.459 152.258C349.943 152.258 350.797 151.152 350.797 149.332C350.797 147.4 349.957 146.308 348.473 146.308C347.087 146.308 346.177 147.372 346.177 149.318C346.177 151.194 347.087 152.258 348.459 152.258ZM359.163 150.9L359.863 151.292C359.513 152.188 358.589 153.112 356.937 153.112C354.851 153.112 353.619 151.558 353.619 149.192C353.619 147.022 354.907 145.468 356.839 145.468C358.435 145.468 359.807 146.616 359.807 148.632L359.779 149.458H354.585C354.669 151.432 355.607 152.272 357.035 152.272C358.155 152.272 358.813 151.628 359.163 150.9ZM356.839 146.308C355.719 146.308 354.711 146.91 354.585 148.674H358.869C358.911 147.008 357.931 146.308 356.839 146.308ZM368.537 145.468C370.021 145.468 370.889 146.378 370.889 148.044V153H369.937V148.184C369.937 146.84 369.321 146.336 368.285 146.336C366.983 146.336 366.381 147.344 366.381 148.828V153H365.429V142.64H366.381V146.728C366.829 145.916 367.641 145.468 368.537 145.468ZM378.249 150.9L378.949 151.292C378.599 152.188 377.675 153.112 376.023 153.112C373.937 153.112 372.705 151.558 372.705 149.192C372.705 147.022 373.993 145.468 375.925 145.468C377.521 145.468 378.893 146.616 378.893 148.632L378.865 149.458H373.671C373.755 151.432 374.693 152.272 376.121 152.272C377.241 152.272 377.899 151.628 378.249 150.9ZM375.925 146.308C374.805 146.308 373.797 146.91 373.671 148.674H377.955C377.997 147.008 377.017 146.308 375.925 146.308ZM384.013 145.468C385.497 145.468 386.365 146.378 386.365 148.044V153H385.413V148.184C385.413 146.84 384.797 146.336 383.761 146.336C382.459 146.336 381.857 147.344 381.857 148.828V153H380.905V145.58H381.857V146.728C382.305 145.916 383.117 145.468 384.013 145.468ZM393.252 145.58H394.232L391.32 153H390.48L387.568 145.58H388.604L390.928 151.95L393.252 145.58ZM400.479 150.9L401.179 151.292C400.829 152.188 399.905 153.112 398.253 153.112C396.167 153.112 394.935 151.558 394.935 149.192C394.935 147.022 396.223 145.468 398.155 145.468C399.751 145.468 401.123 146.616 401.123 148.632L401.095 149.458H395.901C395.985 151.432 396.923 152.272 398.351 152.272C399.471 152.272 400.129 151.628 400.479 150.9ZM398.155 146.308C397.035 146.308 396.027 146.91 395.901 148.674H400.185C400.227 147.008 399.247 146.308 398.155 146.308ZM406.244 145.468C407.728 145.468 408.596 146.378 408.596 148.044V153H407.644V148.184C407.644 146.84 407.028 146.336 405.992 146.336C404.69 146.336 404.088 147.344 404.088 148.828V153H403.136V145.58H404.088V146.728C404.536 145.916 405.348 145.468 406.244 145.468ZM416.012 142.64H416.964V153H416.012V151.614C415.522 152.566 414.542 153.098 413.576 153.098C411.686 153.098 410.412 151.516 410.412 149.36C410.412 147.078 411.7 145.468 413.688 145.468C414.724 145.468 415.564 145.986 416.012 146.924V142.64ZM413.674 152.258C415.158 152.258 416.012 151.152 416.012 149.332C416.012 147.4 415.172 146.308 413.688 146.308C412.302 146.308 411.392 147.372 411.392 149.318C411.392 151.194 412.302 152.258 413.674 152.258ZM424.377 150.9L425.077 151.292C424.727 152.188 423.803 153.112 422.151 153.112C420.065 153.112 418.833 151.558 418.833 149.192C418.833 147.022 420.121 145.468 422.053 145.468C423.649 145.468 425.021 146.616 425.021 148.632L424.993 149.458H419.799C419.883 151.432 420.821 152.272 422.249 152.272C423.369 152.272 424.027 151.628 424.377 150.9ZM422.053 146.308C420.933 146.308 419.925 146.91 419.799 148.674H424.083C424.125 147.008 423.145 146.308 422.053 146.308ZM429.358 152.972C429.134 153.028 428.952 153.056 428.742 153.056C427.58 153.056 427.034 152.328 427.034 151.236V142.64H427.986V151.236C427.986 151.866 428.322 152.188 428.91 152.188C429.064 152.188 429.218 152.174 429.358 152.132V152.972ZM430.731 147.512C430.731 146.336 431.837 145.468 433.391 145.468C434.735 145.468 435.771 146.112 436.079 147.092L435.295 147.4C435.001 146.686 434.315 146.308 433.363 146.308C432.327 146.308 431.655 146.742 431.655 147.428C431.655 148.044 432.061 148.422 432.943 148.604L433.923 148.8C435.547 149.122 436.303 149.822 436.303 150.928C436.303 152.216 435.155 153.112 433.503 153.112C432.005 153.112 430.955 152.524 430.451 151.404L431.263 151.068C431.613 151.852 432.383 152.272 433.475 152.272C434.623 152.272 435.379 151.768 435.379 151.012C435.379 150.312 434.987 149.934 434.007 149.724L432.803 149.472C431.445 149.192 430.731 148.506 430.731 147.512ZM443.245 150.9L443.945 151.292C443.595 152.188 442.671 153.112 441.019 153.112C438.933 153.112 437.701 151.558 437.701 149.192C437.701 147.022 438.989 145.468 440.921 145.468C442.517 145.468 443.889 146.616 443.889 148.632L443.861 149.458H438.667C438.751 151.432 439.689 152.272 441.117 152.272C442.237 152.272 442.895 151.628 443.245 150.9ZM440.921 146.308C439.801 146.308 438.793 146.91 438.667 148.674H442.951C442.993 147.008 442.013 146.308 440.921 146.308ZM449.009 145.468C450.493 145.468 451.361 146.378 451.361 148.044V153H450.409V148.184C450.409 146.84 449.793 146.336 448.757 146.336C447.455 146.336 446.853 147.344 446.853 148.828V153H445.901V145.58H446.853V146.728C447.301 145.916 448.113 145.468 449.009 145.468ZM462.359 142.64H463.311V153H462.359V151.614C461.869 152.566 460.889 153.098 459.923 153.098C458.033 153.098 456.759 151.516 456.759 149.36C456.759 147.078 458.047 145.468 460.035 145.468C461.071 145.468 461.911 145.986 462.359 146.924V142.64ZM460.021 152.258C461.505 152.258 462.359 151.152 462.359 149.332C462.359 147.4 461.519 146.308 460.035 146.308C458.649 146.308 457.739 147.372 457.739 149.318C457.739 151.194 458.649 152.258 460.021 152.258ZM466.133 144.236C465.671 144.236 465.293 143.872 465.293 143.396C465.293 142.92 465.671 142.556 466.133 142.556C466.595 142.556 466.973 142.92 466.973 143.396C466.973 143.872 466.595 144.236 466.133 144.236ZM465.657 153V145.58H466.609V153H465.657ZM472.128 145.468C473.612 145.468 474.48 146.378 474.48 148.044V153H473.528V148.184C473.528 146.84 472.912 146.336 471.876 146.336C470.574 146.336 469.972 147.344 469.972 148.828V153H469.02V145.58H469.972V146.728C470.42 145.916 471.232 145.468 472.128 145.468ZM481.838 151.152C481.838 152.02 482.356 152.272 482.818 152.272C483.266 152.272 483.56 152.104 483.91 151.74L484.414 152.3C483.924 152.874 483.392 153.112 482.734 153.112C481.726 153.112 480.886 152.44 480.886 151.124V146.364H479.486V145.58H480.886V143.984L481.838 143.424V145.58H484.246V146.364H481.838V151.152ZM485.79 142.696H487.246V144.124H485.79V142.696ZM486.042 153V145.58H486.994V153H486.042ZM491.729 152.972C491.505 153.028 491.323 153.056 491.113 153.056C489.951 153.056 489.405 152.328 489.405 151.236V142.64H490.357V151.236C490.357 151.866 490.693 152.188 491.281 152.188C491.435 152.188 491.589 152.174 491.729 152.132V152.972ZM499.708 145.468C500.674 145.468 501.374 146.112 501.374 147.372V148.1L500.506 148.268V147.54C500.506 146.798 500.254 146.308 499.498 146.308C498.644 146.308 498 146.938 498 148.436V153H497.048V145.58H498V146.504C498.392 145.804 499.05 145.468 499.708 145.468ZM503.731 144.236C503.269 144.236 502.891 143.872 502.891 143.396C502.891 142.92 503.269 142.556 503.731 142.556C504.193 142.556 504.571 142.92 504.571 143.396C504.571 143.872 504.193 144.236 503.731 144.236ZM503.255 153V145.58H504.207V153H503.255ZM511.238 153L508.508 149.318L507.598 150.186V153H506.646V142.64H507.598V149.066L511.126 145.58H512.386L509.152 148.688L512.442 153H511.238ZM515.252 151.152C515.252 152.02 515.77 152.272 516.232 152.272C516.68 152.272 516.974 152.104 517.324 151.74L517.828 152.3C517.338 152.874 516.806 153.112 516.148 153.112C515.14 153.112 514.3 152.44 514.3 151.124V146.364H512.9V145.58H514.3V143.984L515.252 143.424V145.58H517.66V146.364H515.252V151.152ZM519.204 142.696H520.66V144.124H519.204V142.696ZM519.456 153V145.58H520.408V153H519.456ZM529.483 146.364H527.887V146.63C528.251 147.078 528.447 147.638 528.447 148.184C528.447 149.542 527.467 150.928 525.381 150.928H525.059C524.219 150.928 523.617 151.25 523.617 151.74C523.617 152.118 523.911 152.384 524.527 152.384H527.537C528.741 152.384 529.357 152.972 529.357 153.896C529.357 155.366 527.663 156.136 525.577 156.136C523.701 156.136 522.399 155.534 521.951 154.232L522.721 153.882C523.239 155.1 524.331 155.338 525.577 155.338C527.117 155.338 528.405 154.876 528.405 153.98C528.405 153.56 528.181 153.252 527.509 153.252H524.317C523.281 153.252 522.665 152.762 522.665 151.992C522.665 151.334 523.211 150.76 524.121 150.522C523.141 150.13 522.595 149.094 522.595 148.184C522.595 146.854 523.589 145.468 525.549 145.468C526.319 145.468 526.907 145.72 527.355 146.098V145.58H529.483V146.364ZM525.535 150.144C526.851 150.144 527.509 149.234 527.509 148.184C527.509 147.148 526.851 146.28 525.535 146.28C524.205 146.28 523.533 147.162 523.533 148.184C523.533 149.22 524.205 150.144 525.535 150.144ZM539.618 150.9L540.318 151.292C539.968 152.188 539.044 153.112 537.392 153.112C535.306 153.112 534.074 151.558 534.074 149.192C534.074 147.022 535.362 145.468 537.294 145.468C538.89 145.468 540.262 146.616 540.262 148.632L540.234 149.458H535.04C535.124 151.432 536.062 152.272 537.49 152.272C538.61 152.272 539.268 151.628 539.618 150.9ZM537.294 146.308C536.174 146.308 535.166 146.91 535.04 148.674H539.324C539.366 147.008 538.386 146.308 537.294 146.308ZM543.622 151.152C543.622 152.02 544.14 152.272 544.602 152.272C545.05 152.272 545.344 152.104 545.694 151.74L546.198 152.3C545.708 152.874 545.176 153.112 544.518 153.112C543.51 153.112 542.67 152.44 542.67 151.124V146.364H541.27V145.58H542.67V143.984L543.622 143.424V145.58H546.03V146.364H543.622V151.152ZM553.082 153H552.214C552.102 152.594 552.018 152.104 552.018 151.544C551.64 152.412 550.674 153.112 549.47 153.112C548.154 153.112 547.16 152.258 547.16 150.984C547.16 149.458 548.532 148.66 550.058 148.66C550.66 148.66 551.248 148.73 551.85 148.94V147.96C551.85 146.994 551.262 146.336 550.114 146.336C549.19 146.336 548.406 146.742 548.014 147.876L547.174 147.624C547.734 146.056 548.868 145.468 550.17 145.468C552.004 145.468 552.774 146.574 552.774 147.848V150.9C552.774 151.74 552.914 152.496 553.082 153ZM551.85 149.92V149.752C551.276 149.514 550.688 149.444 550.114 149.444C548.994 149.444 548.112 149.948 548.112 150.928C548.112 151.824 548.742 152.3 549.638 152.3C550.604 152.3 551.85 151.726 551.85 149.92ZM556.528 151.152C556.528 152.02 557.046 152.272 557.508 152.272C557.956 152.272 558.25 152.104 558.6 151.74L559.104 152.3C558.614 152.874 558.082 153.112 557.424 153.112C556.416 153.112 555.576 152.44 555.576 151.124V146.364H554.176V145.58H555.576V143.984L556.528 143.424V145.58H558.936V146.364H556.528V151.152ZM563.447 141.94H564.371L561.571 155.1H560.647L563.447 141.94ZM570.108 145.482C571.998 145.482 573.272 147.064 573.272 149.22C573.272 151.502 571.984 153.112 569.996 153.112C568.96 153.112 568.12 152.594 567.672 151.656V153H566.72V142.64H567.672V146.966C568.162 146.014 569.142 145.482 570.108 145.482ZM569.996 152.272C571.382 152.272 572.292 151.208 572.292 149.262C572.292 147.386 571.382 146.322 570.01 146.322C568.526 146.322 567.672 147.428 567.672 149.248C567.672 151.18 568.512 152.272 569.996 152.272ZM579.7 145.58H580.68L577.418 154.022C576.928 155.282 576.382 156.08 575.234 156.08C574.73 156.08 574.268 155.898 573.918 155.576L574.338 154.89C574.618 155.142 574.884 155.254 575.206 155.254C575.724 155.254 576.088 155.03 576.452 154.176L576.886 153.126L574.1 145.58H575.136L577.376 152.006L579.7 145.58ZM586.924 142.64H587.876V153H586.924V151.614C586.434 152.566 585.454 153.098 584.488 153.098C582.598 153.098 581.324 151.516 581.324 149.36C581.324 147.078 582.612 145.468 584.6 145.468C585.636 145.468 586.476 145.986 586.924 146.924V142.64ZM584.586 152.258C586.07 152.258 586.924 151.152 586.924 149.332C586.924 147.4 586.084 146.308 584.6 146.308C583.214 146.308 582.304 147.372 582.304 149.318C582.304 151.194 583.214 152.258 584.586 152.258ZM595.29 150.9L595.99 151.292C595.64 152.188 594.716 153.112 593.064 153.112C590.978 153.112 589.746 151.558 589.746 149.192C589.746 147.022 591.034 145.468 592.966 145.468C594.562 145.468 595.934 146.616 595.934 148.632L595.906 149.458H590.712C590.796 151.432 591.734 152.272 593.162 152.272C594.282 152.272 594.94 151.628 595.29 150.9ZM592.966 146.308C591.846 146.308 590.838 146.91 590.712 148.674H594.996C595.038 147.008 594.058 146.308 592.966 146.308ZM600.27 152.972C600.046 153.028 599.864 153.056 599.654 153.056C598.492 153.056 597.946 152.328 597.946 151.236V142.64H598.898V151.236C598.898 151.866 599.234 152.188 599.822 152.188C599.976 152.188 600.13 152.174 600.27 152.132V152.972ZM247.188 173.152C247.188 174.02 247.706 174.272 248.168 174.272C248.616 174.272 248.91 174.104 249.26 173.74L249.764 174.3C249.274 174.874 248.742 175.112 248.084 175.112C247.076 175.112 246.236 174.44 246.236 173.124V168.364H244.836V167.58H246.236V165.984L247.188 165.424V167.58H249.596V168.364H247.188V173.152ZM254.052 167.468C255.018 167.468 255.718 168.112 255.718 169.372V170.1L254.85 170.268V169.54C254.85 168.798 254.598 168.308 253.842 168.308C252.988 168.308 252.344 168.938 252.344 170.436V175H251.392V167.58H252.344V168.504C252.736 167.804 253.394 167.468 254.052 167.468ZM262.243 172.9L262.943 173.292C262.593 174.188 261.669 175.112 260.017 175.112C257.931 175.112 256.699 173.558 256.699 171.192C256.699 169.022 257.987 167.468 259.919 167.468C261.515 167.468 262.887 168.616 262.887 170.632L262.859 171.458H257.665C257.749 173.432 258.687 174.272 260.115 174.272C261.235 174.272 261.893 173.628 262.243 172.9ZM259.919 168.308C258.799 168.308 257.791 168.91 257.665 170.674H261.949C261.991 169.008 261.011 168.308 259.919 168.308ZM268.007 167.468C269.491 167.468 270.359 168.378 270.359 170.044V175H269.407V170.184C269.407 168.84 268.791 168.336 267.755 168.336C266.453 168.336 265.851 169.344 265.851 170.828V175H264.899V167.58H265.851V168.728C266.299 167.916 267.111 167.468 268.007 167.468ZM279.315 168.364H277.719V168.63C278.083 169.078 278.279 169.638 278.279 170.184C278.279 171.542 277.299 172.928 275.213 172.928H274.891C274.051 172.928 273.449 173.25 273.449 173.74C273.449 174.118 273.743 174.384 274.359 174.384H277.369C278.573 174.384 279.189 174.972 279.189 175.896C279.189 177.366 277.495 178.136 275.409 178.136C273.533 178.136 272.231 177.534 271.783 176.232L272.553 175.882C273.071 177.1 274.163 177.338 275.409 177.338C276.949 177.338 278.237 176.876 278.237 175.98C278.237 175.56 278.013 175.252 277.341 175.252H274.149C273.113 175.252 272.497 174.762 272.497 173.992C272.497 173.334 273.043 172.76 273.953 172.522C272.973 172.13 272.427 171.094 272.427 170.184C272.427 168.854 273.421 167.468 275.381 167.468C276.151 167.468 276.739 167.72 277.187 168.098V167.58H279.315V168.364ZM275.367 172.144C276.683 172.144 277.341 171.234 277.341 170.184C277.341 169.148 276.683 168.28 275.367 168.28C274.037 168.28 273.365 169.162 273.365 170.184C273.365 171.22 274.037 172.144 275.367 172.144ZM285.307 172.9L286.007 173.292C285.657 174.188 284.733 175.112 283.081 175.112C280.995 175.112 279.763 173.558 279.763 171.192C279.763 169.022 281.051 167.468 282.983 167.468C284.579 167.468 285.951 168.616 285.951 170.632L285.923 171.458H280.729C280.813 173.432 281.751 174.272 283.179 174.272C284.299 174.272 284.957 173.628 285.307 172.9ZM282.983 168.308C281.863 168.308 280.855 168.91 280.729 170.674H285.013C285.055 169.008 284.075 168.308 282.983 168.308ZM290.624 167.468C291.59 167.468 292.29 168.112 292.29 169.372V170.1L291.422 170.268V169.54C291.422 168.798 291.17 168.308 290.414 168.308C289.56 168.308 288.916 168.938 288.916 170.436V175H287.964V167.58H288.916V168.504C289.308 167.804 289.966 167.468 290.624 167.468ZM302.485 167.58H303.465L300.553 175H299.713L296.801 167.58H297.837L300.161 173.95L302.485 167.58ZM305.393 166.236C304.931 166.236 304.553 165.872 304.553 165.396C304.553 164.92 304.931 164.556 305.393 164.556C305.855 164.556 306.233 164.92 306.233 165.396C306.233 165.872 305.855 166.236 305.393 166.236ZM304.917 175V167.58H305.869V175H304.917ZM314.508 166.796C313.598 166.796 312.856 166.124 312.856 165.2C312.856 164.276 313.598 163.604 314.508 163.604C315.418 163.604 316.16 164.276 316.16 165.2C316.16 166.124 315.418 166.796 314.508 166.796ZM314.508 164.248C313.976 164.248 313.556 164.584 313.556 165.2C313.556 165.83 313.976 166.152 314.508 166.152C315.04 166.152 315.46 165.83 315.46 165.2C315.46 164.584 315.04 164.248 314.508 164.248ZM317.392 175H316.524C316.412 174.594 316.328 174.104 316.328 173.544C315.95 174.412 314.984 175.112 313.78 175.112C312.464 175.112 311.47 174.258 311.47 172.984C311.47 171.458 312.842 170.66 314.368 170.66C314.97 170.66 315.558 170.73 316.16 170.94V169.96C316.16 168.994 315.572 168.336 314.424 168.336C313.5 168.336 312.716 168.742 312.324 169.876L311.484 169.624C312.044 168.056 313.178 167.468 314.48 167.468C316.314 167.468 317.084 168.574 317.084 169.848V172.9C317.084 173.74 317.224 174.496 317.392 175ZM316.16 171.92V171.752C315.586 171.514 314.998 171.444 314.424 171.444C313.304 171.444 312.422 171.948 312.422 172.928C312.422 173.824 313.052 174.3 313.948 174.3C314.914 174.3 316.16 173.726 316.16 171.92ZM327.805 167.58H328.785L325.873 175H325.033L322.121 167.58H323.157L325.481 173.95L327.805 167.58ZM329.985 164.696H331.441V166.124H329.985V164.696ZM330.237 175V167.58H331.189V175H330.237ZM335.084 173.152C335.084 174.02 335.602 174.272 336.064 174.272C336.512 174.272 336.806 174.104 337.156 173.74L337.66 174.3C337.17 174.874 336.638 175.112 335.98 175.112C334.972 175.112 334.132 174.44 334.132 173.124V168.364H332.732V167.58H334.132V165.984L335.084 165.424V167.58H337.492V168.364H335.084V173.152ZM343.932 172.9L344.632 173.292C344.282 174.188 343.358 175.112 341.706 175.112C339.62 175.112 338.388 173.558 338.388 171.192C338.388 169.022 339.676 167.468 341.608 167.468C343.204 167.468 344.576 168.616 344.576 170.632L344.548 171.458H339.354C339.438 173.432 340.376 174.272 341.804 174.272C342.924 174.272 343.582 173.628 343.932 172.9ZM341.608 168.308C340.488 168.308 339.48 168.91 339.354 170.674H343.638C343.68 169.008 342.7 168.308 341.608 168.308ZM353.307 167.468C354.791 167.468 355.659 168.378 355.659 170.044V175H354.707V170.184C354.707 168.84 354.091 168.336 353.055 168.336C351.753 168.336 351.151 169.344 351.151 170.828V175H350.199V164.64H351.151V168.728C351.599 167.916 352.411 167.468 353.307 167.468ZM362.545 167.58H363.525L360.613 175H359.773L356.861 167.58H357.897L360.221 173.95L362.545 167.58ZM365.453 166.236C364.991 166.236 364.613 165.872 364.613 165.396C364.613 164.92 364.991 164.556 365.453 164.556C365.915 164.556 366.293 164.92 366.293 165.396C366.293 165.872 365.915 166.236 365.453 166.236ZM364.977 175V167.58H365.929V175H364.977ZM370.665 174.972C370.441 175.028 370.259 175.056 370.049 175.056C368.887 175.056 368.341 174.328 368.341 173.236V164.64H369.293V173.236C369.293 173.866 369.629 174.188 370.217 174.188C370.371 174.188 370.525 174.174 370.665 174.132V174.972ZM377.021 175L374.291 171.318L373.381 172.186V175H372.429V164.64H373.381V171.066L376.909 167.58H378.169L374.935 170.688L378.225 175H377.021ZM384.333 172.9L385.033 173.292C384.683 174.188 383.759 175.112 382.107 175.112C380.021 175.112 378.789 173.558 378.789 171.192C378.789 169.022 380.077 167.468 382.009 167.468C383.605 167.468 384.977 168.616 384.977 170.632L384.949 171.458H379.755C379.839 173.432 380.777 174.272 382.205 174.272C383.325 174.272 383.983 173.628 384.333 172.9ZM382.009 168.308C380.889 168.308 379.881 168.91 379.755 170.674H384.039C384.081 169.008 383.101 168.308 382.009 168.308ZM390.097 167.468C391.581 167.468 392.449 168.378 392.449 170.044V175H391.497V170.184C391.497 168.84 390.881 168.336 389.845 168.336C388.543 168.336 387.941 169.344 387.941 170.828V175H386.989V167.58H387.941V168.728C388.389 167.916 389.201 167.468 390.097 167.468ZM401.739 167.482C403.629 167.482 404.903 169.064 404.903 171.22C404.903 173.502 403.615 175.112 401.627 175.112C400.591 175.112 399.751 174.594 399.303 173.656V175H398.351V164.64H399.303V168.966C399.793 168.014 400.773 167.482 401.739 167.482ZM401.627 174.272C403.013 174.272 403.923 173.208 403.923 171.262C403.923 169.386 403.013 168.322 401.641 168.322C400.157 168.322 399.303 169.428 399.303 171.248C399.303 173.18 400.143 174.272 401.627 174.272ZM411.331 167.58H412.311L409.049 176.022C408.559 177.282 408.013 178.08 406.865 178.08C406.361 178.08 405.899 177.898 405.549 177.576L405.969 176.89C406.249 177.142 406.515 177.254 406.837 177.254C407.355 177.254 407.719 177.03 408.083 176.176L408.517 175.126L405.731 167.58H406.767L409.007 174.006L411.331 167.58ZM418.555 164.64H419.507V175H418.555V173.614C418.065 174.566 417.085 175.098 416.119 175.098C414.229 175.098 412.955 173.516 412.955 171.36C412.955 169.078 414.243 167.468 416.231 167.468C417.267 167.468 418.107 167.986 418.555 168.924V164.64ZM416.217 174.258C417.701 174.258 418.555 173.152 418.555 171.332C418.555 169.4 417.715 168.308 416.231 168.308C414.845 168.308 413.935 169.372 413.935 171.318C413.935 173.194 414.845 174.258 416.217 174.258ZM426.92 172.9L427.62 173.292C427.27 174.188 426.346 175.112 424.694 175.112C422.608 175.112 421.376 173.558 421.376 171.192C421.376 169.022 422.664 167.468 424.596 167.468C426.192 167.468 427.564 168.616 427.564 170.632L427.536 171.458H422.342C422.426 173.432 423.364 174.272 424.792 174.272C425.912 174.272 426.57 173.628 426.92 172.9ZM424.596 168.308C423.476 168.308 422.468 168.91 422.342 170.674H426.626C426.668 169.008 425.688 168.308 424.596 168.308ZM431.901 174.972C431.677 175.028 431.495 175.056 431.285 175.056C430.123 175.056 429.577 174.328 429.577 173.236V164.64H430.529V173.236C430.529 173.866 430.865 174.188 431.453 174.188C431.607 174.188 431.761 174.174 431.901 174.132V174.972ZM442.344 164.64H443.296V175H442.344V173.614C441.854 174.566 440.874 175.098 439.908 175.098C438.018 175.098 436.744 173.516 436.744 171.36C436.744 169.078 438.032 167.468 440.02 167.468C441.056 167.468 441.896 167.986 442.344 168.924V164.64ZM440.006 174.258C441.49 174.258 442.344 173.152 442.344 171.332C442.344 169.4 441.504 168.308 440.02 168.308C438.634 168.308 437.724 169.372 437.724 171.318C437.724 173.194 438.634 174.258 440.006 174.258ZM449.954 167.58H450.906V175H449.954V173.866C449.506 174.664 448.722 175.112 447.812 175.112C446.356 175.112 445.474 174.174 445.474 172.564V167.58H446.426V172.48C446.426 173.698 447.042 174.258 448.078 174.258C449.394 174.258 449.954 173.208 449.954 171.752V167.58ZM460.255 167.482C462.145 167.482 463.419 169.064 463.419 171.22C463.419 173.502 462.131 175.112 460.143 175.112C459.107 175.112 458.267 174.594 457.819 173.656V175H456.867V164.64H457.819V168.966C458.309 168.014 459.289 167.482 460.255 167.482ZM460.143 174.272C461.529 174.272 462.439 173.208 462.439 171.262C462.439 169.386 461.529 168.322 460.157 168.322C458.673 168.322 457.819 169.428 457.819 171.248C457.819 173.18 458.659 174.272 460.143 174.272ZM468.184 175.112C466.35 175.112 464.88 173.6 464.88 171.276C464.88 168.98 466.336 167.468 468.184 167.468C470.032 167.468 471.488 168.98 471.488 171.276C471.488 173.6 470.018 175.112 468.184 175.112ZM468.184 174.272C469.458 174.272 470.508 173.264 470.508 171.276C470.508 169.302 469.444 168.308 468.184 168.308C466.924 168.308 465.86 169.302 465.86 171.276C465.86 173.264 466.91 174.272 468.184 174.272ZM476.083 167.468C477.049 167.468 477.749 168.112 477.749 169.372V170.1L476.881 170.268V169.54C476.881 168.798 476.629 168.308 475.873 168.308C475.019 168.308 474.375 168.938 474.375 170.436V175H473.423V167.58H474.375V168.504C474.767 167.804 475.425 167.468 476.083 167.468ZM482.96 164.696H484.416V166.124H482.96V164.696ZM483.212 175V167.58H484.164V175H483.212ZM487.275 175.084C486.771 175.084 486.379 174.706 486.379 174.188C486.379 173.67 486.771 173.292 487.275 173.292C487.779 173.292 488.171 173.67 488.171 174.188C488.171 174.706 487.779 175.084 487.275 175.084Z" fill="#2A2859"/>
<rect x="245.5" y="190" width="398" height="46" fill="white"/>
<path d="M270.688 205.68H272.02L267.142 219H265.882L261.04 205.68H262.408L266.53 217.542L270.688 205.68ZM279.157 216.3L280.057 216.804C279.607 217.956 278.419 219.144 276.295 219.144C273.613 219.144 272.029 217.146 272.029 214.104C272.029 211.314 273.685 209.316 276.169 209.316C278.221 209.316 279.985 210.792 279.985 213.384L279.949 214.446H273.271C273.379 216.984 274.585 218.064 276.421 218.064C277.861 218.064 278.707 217.236 279.157 216.3ZM276.169 210.396C274.729 210.396 273.433 211.17 273.271 213.438H278.779C278.833 211.296 277.573 210.396 276.169 210.396ZM285.361 218.964C285.073 219.036 284.839 219.072 284.569 219.072C283.075 219.072 282.373 218.136 282.373 216.732V205.68H283.597V216.732C283.597 217.542 284.029 217.956 284.785 217.956C284.983 217.956 285.181 217.938 285.361 217.884V218.964ZM295.61 210.468H293.558V210.81C294.026 211.386 294.278 212.106 294.278 212.808C294.278 214.554 293.018 216.336 290.336 216.336H289.922C288.842 216.336 288.068 216.75 288.068 217.38C288.068 217.866 288.446 218.208 289.238 218.208H293.108C294.656 218.208 295.448 218.964 295.448 220.152C295.448 222.042 293.27 223.032 290.588 223.032C288.176 223.032 286.502 222.258 285.926 220.584L286.916 220.134C287.582 221.7 288.986 222.006 290.588 222.006C292.568 222.006 294.224 221.412 294.224 220.26C294.224 219.72 293.936 219.324 293.072 219.324H288.968C287.636 219.324 286.844 218.694 286.844 217.704C286.844 216.858 287.546 216.12 288.716 215.814C287.456 215.31 286.754 213.978 286.754 212.808C286.754 211.098 288.032 209.316 290.552 209.316C291.542 209.316 292.298 209.64 292.874 210.126V209.46H295.61V210.468ZM290.534 215.328C292.226 215.328 293.072 214.158 293.072 212.808C293.072 211.476 292.226 210.36 290.534 210.36C288.824 210.36 287.96 211.494 287.96 212.808C287.96 214.14 288.824 215.328 290.534 215.328Z" fill="#2A2859"/>
<path fill-rule="evenodd" clip-rule="evenodd" d="M616.5 215.56L609.247 208.5L608.25 209.47L616.5 217.5L624.75 209.47L623.753 208.5L616.5 215.56Z" fill="#2A2859"/>
<rect x="245.5" y="190" width="398" height="46" stroke="#FF8274" stroke-width="2"/>
<mask id="path-6-inside-1_5727_122753" fill="white">
<path d="M244.5 245H644.5V293H244.5V245Z"/>
</mask>
<path d="M244.5 245H644.5V293H244.5V245Z" fill="#FFDFDC"/>
<path d="M275.687 261.747L279.874 269L275.687 276.253H267.313L263.126 269L267.313 261.747H275.687ZM276.594 260.179H266.406L261.311 269L266.406 277.821H276.594L281.689 269L276.594 260.179ZM275.027 266.36L274.154 265.487L271.507 268.134L268.853 265.48L267.98 266.353L270.634 269.007L267.987 271.654L268.86 272.527L271.507 269.88L274.147 272.52L275.02 271.647L272.38 269.007L275.027 266.36Z" fill="#2A2859"/>
<path d="M291.908 275V263.16H295.78C298.708 263.16 300.964 265.448 300.964 269.016C300.964 272.584 298.708 275 295.78 275H291.908ZM293.028 273.976H295.556C298.02 273.976 299.812 272.312 299.812 269.016C299.812 265.752 298.004 264.184 295.524 264.184H293.028V273.976ZM308.734 272.6L309.534 273.048C309.134 274.072 308.078 275.128 306.19 275.128C303.806 275.128 302.398 273.352 302.398 270.648C302.398 268.168 303.87 266.392 306.078 266.392C307.902 266.392 309.47 267.704 309.47 270.008L309.438 270.952H303.502C303.598 273.208 304.67 274.168 306.302 274.168C307.582 274.168 308.334 273.432 308.734 272.6ZM306.078 267.352C304.798 267.352 303.646 268.04 303.502 270.056H308.398C308.446 268.152 307.326 267.352 306.078 267.352ZM313.11 272.888C313.11 273.88 313.702 274.168 314.23 274.168C314.742 274.168 315.078 273.976 315.478 273.56L316.054 274.2C315.494 274.856 314.886 275.128 314.134 275.128C312.982 275.128 312.022 274.36 312.022 272.856V267.416H310.422V266.52H312.022V264.696L313.11 264.056V266.52H315.862V267.416H313.11V272.888ZM319.097 272.888C319.097 273.88 319.689 274.168 320.217 274.168C320.729 274.168 321.065 273.976 321.465 273.56L322.041 274.2C321.481 274.856 320.873 275.128 320.121 275.128C318.969 275.128 318.009 274.36 318.009 272.856V267.416H316.409V266.52H318.009V264.696L319.097 264.056V266.52H321.849V267.416H319.097V272.888ZM329.009 272.6L329.809 273.048C329.409 274.072 328.353 275.128 326.465 275.128C324.081 275.128 322.673 273.352 322.673 270.648C322.673 268.168 324.145 266.392 326.353 266.392C328.177 266.392 329.745 267.704 329.745 270.008L329.713 270.952H323.777C323.873 273.208 324.945 274.168 326.577 274.168C327.857 274.168 328.609 273.432 329.009 272.6ZM326.353 267.352C325.073 267.352 323.921 268.04 323.777 270.056H328.673C328.721 268.152 327.601 267.352 326.353 267.352ZM337.434 265.336V266.52H339.802V267.416H337.434V275H336.346V267.416H334.746V266.52H336.346V265.336C336.346 263.864 337.306 263.032 338.618 263.032C339.226 263.032 339.93 263.272 340.33 263.912L339.674 264.568C339.418 264.184 339.034 263.96 338.586 263.96C338.026 263.96 337.434 264.296 337.434 265.336ZM346.565 272.6L347.365 273.048C346.965 274.072 345.909 275.128 344.021 275.128C341.637 275.128 340.229 273.352 340.229 270.648C340.229 268.168 341.701 266.392 343.909 266.392C345.733 266.392 347.301 267.704 347.301 270.008L347.269 270.952H341.333C341.429 273.208 342.501 274.168 344.133 274.168C345.413 274.168 346.165 273.432 346.565 272.6ZM343.909 267.352C342.629 267.352 341.477 268.04 341.333 270.056H346.229C346.277 268.152 345.157 267.352 343.909 267.352ZM352.057 274.968C351.801 275.032 351.593 275.064 351.353 275.064C350.025 275.064 349.401 274.232 349.401 272.984V263.16H350.489V272.984C350.489 273.704 350.873 274.072 351.545 274.072C351.721 274.072 351.897 274.056 352.057 274.008V274.968ZM355.381 272.888C355.381 273.88 355.973 274.168 356.501 274.168C357.013 274.168 357.349 273.976 357.749 273.56L358.325 274.2C357.765 274.856 357.157 275.128 356.405 275.128C355.253 275.128 354.293 274.36 354.293 272.856V267.416H352.693V266.52H354.293V264.696L355.381 264.056V266.52H358.133V267.416H355.381V272.888ZM365.293 272.6L366.093 273.048C365.693 274.072 364.637 275.128 362.749 275.128C360.365 275.128 358.957 273.352 358.957 270.648C358.957 268.168 360.429 266.392 362.637 266.392C364.461 266.392 366.029 267.704 366.029 270.008L365.997 270.952H360.061C360.157 273.208 361.229 274.168 362.861 274.168C364.141 274.168 364.893 273.432 365.293 272.6ZM362.637 267.352C361.357 267.352 360.205 268.04 360.061 270.056H364.957C365.005 268.152 363.885 267.352 362.637 267.352ZM369.669 272.888C369.669 273.88 370.261 274.168 370.789 274.168C371.301 274.168 371.637 273.976 372.037 273.56L372.613 274.2C372.053 274.856 371.445 275.128 370.693 275.128C369.541 275.128 368.581 274.36 368.581 272.856V267.416H366.981V266.52H368.581V264.696L369.669 264.056V266.52H372.421V267.416H369.669V272.888ZM386.615 266.392C388.231 266.392 389.175 267.416 389.175 269.176V275H388.087V269.336C388.087 267.96 387.431 267.384 386.327 267.384C384.839 267.384 384.215 268.536 384.215 270.232V275H383.127V269.336C383.127 267.96 382.471 267.384 381.367 267.384C379.879 267.384 379.255 268.536 379.255 270.232V275H378.167V266.52H379.255V267.848C379.767 266.904 380.663 266.392 381.655 266.392C382.919 266.392 383.767 267.016 384.071 268.12C384.551 267 385.527 266.392 386.615 266.392ZM394.616 265.624C393.576 265.624 392.728 264.856 392.728 263.8C392.728 262.744 393.576 261.976 394.616 261.976C395.656 261.976 396.504 262.744 396.504 263.8C396.504 264.856 395.656 265.624 394.616 265.624ZM394.616 262.712C394.008 262.712 393.528 263.096 393.528 263.8C393.528 264.52 394.008 264.888 394.616 264.888C395.224 264.888 395.704 264.52 395.704 263.8C395.704 263.096 395.224 262.712 394.616 262.712ZM397.912 275H396.92C396.792 274.536 396.696 273.976 396.696 273.336C396.264 274.328 395.16 275.128 393.784 275.128C392.28 275.128 391.144 274.152 391.144 272.696C391.144 270.952 392.712 270.04 394.456 270.04C395.144 270.04 395.816 270.12 396.504 270.36V269.24C396.504 268.136 395.832 267.384 394.52 267.384C393.464 267.384 392.568 267.848 392.12 269.144L391.16 268.856C391.8 267.064 393.096 266.392 394.584 266.392C396.68 266.392 397.56 267.656 397.56 269.112V272.6C397.56 273.56 397.72 274.424 397.912 275ZM396.504 271.48V271.288C395.848 271.016 395.176 270.936 394.52 270.936C393.24 270.936 392.232 271.512 392.232 272.632C392.232 273.656 392.952 274.2 393.976 274.2C395.08 274.2 396.504 273.544 396.504 271.48ZM405.7 265.336V266.52H408.068V267.416H405.7V275H404.612V267.416H403.012V266.52H404.612V265.336C404.612 263.864 405.572 263.032 406.884 263.032C407.492 263.032 408.196 263.272 408.596 263.912L407.94 264.568C407.684 264.184 407.3 263.96 406.852 263.96C406.292 263.96 405.7 264.296 405.7 265.336ZM414.654 266.52H415.774L412.046 276.168C411.486 277.608 410.862 278.52 409.55 278.52C408.974 278.52 408.446 278.312 408.046 277.944L408.526 277.16C408.846 277.448 409.15 277.576 409.518 277.576C410.11 277.576 410.526 277.32 410.942 276.344L411.438 275.144L408.254 266.52H409.438L411.998 273.864L414.654 266.52ZM419.838 274.968C419.582 275.032 419.374 275.064 419.134 275.064C417.806 275.064 417.182 274.232 417.182 272.984V263.16H418.27V272.984C418.27 273.704 418.654 274.072 419.326 274.072C419.502 274.072 419.678 274.056 419.838 274.008V274.968ZM424.279 274.968C424.023 275.032 423.815 275.064 423.575 275.064C422.247 275.064 421.623 274.232 421.623 272.984V263.16H422.711V272.984C422.711 273.704 423.095 274.072 423.767 274.072C423.943 274.072 424.119 274.056 424.279 274.008V274.968ZM431.606 272.6L432.406 273.048C432.006 274.072 430.95 275.128 429.062 275.128C426.678 275.128 425.27 273.352 425.27 270.648C425.27 268.168 426.742 266.392 428.95 266.392C430.774 266.392 432.342 267.704 432.342 270.008L432.31 270.952H426.374C426.47 273.208 427.542 274.168 429.174 274.168C430.454 274.168 431.206 273.432 431.606 272.6ZM428.95 267.352C427.67 267.352 426.518 268.04 426.374 270.056H431.27C431.318 268.152 430.198 267.352 428.95 267.352ZM434.026 268.728C434.026 267.384 435.29 266.392 437.066 266.392C438.602 266.392 439.786 267.128 440.138 268.248L439.242 268.6C438.906 267.784 438.122 267.352 437.034 267.352C435.85 267.352 435.082 267.848 435.082 268.632C435.082 269.336 435.546 269.768 436.554 269.976L437.674 270.2C439.53 270.568 440.394 271.368 440.394 272.632C440.394 274.104 439.082 275.128 437.194 275.128C435.482 275.128 434.282 274.456 433.706 273.176L434.634 272.792C435.034 273.688 435.914 274.168 437.162 274.168C438.474 274.168 439.338 273.592 439.338 272.728C439.338 271.928 438.89 271.496 437.77 271.256L436.394 270.968C434.842 270.648 434.026 269.864 434.026 268.728ZM451.157 266.52H452.245V275H451.157V273.704C450.645 274.616 449.749 275.128 448.709 275.128C447.045 275.128 446.037 274.056 446.037 272.216V266.52H447.125V272.12C447.125 273.512 447.829 274.152 449.013 274.152C450.517 274.152 451.157 272.952 451.157 271.288V266.52ZM456.428 272.888C456.428 273.88 457.02 274.168 457.548 274.168C458.06 274.168 458.396 273.976 458.796 273.56L459.372 274.2C458.812 274.856 458.204 275.128 457.452 275.128C456.3 275.128 455.34 274.36 455.34 272.856V267.416H453.74V266.52H455.34V264.696L456.428 264.056V266.52H459.18V267.416H456.428V272.888ZM461.832 275.096C461.256 275.096 460.808 274.664 460.808 274.072C460.808 273.48 461.256 273.048 461.832 273.048C462.408 273.048 462.856 273.48 462.856 274.072C462.856 274.664 462.408 275.096 461.832 275.096Z" fill="#2A2859"/>
<path d="M248.5 293V245H240.5V293H248.5Z" fill="#FF8274" mask="url(#path-6-inside-1_5727_122753)"/>
</svg>
