<svg width="1116" height="437" viewBox="0 0 1116 437" fill="none" xmlns="http://www.w3.org/2000/svg">
<g clip-path="url(#clip0_5730_132470)">
<rect width="1116" height="437" fill="white"/>
<mask id="path-1-inside-1_5730_132470" fill="white">
<path d="M0 55H552V437H0V55Z"/>
</mask>
<path d="M0 55H552V437H0V55Z" fill="white"/>
<path d="M552 437V438H553V437H552ZM0 437H-1V438H0V437ZM551 55V437H553V55H551ZM552 436H0V438H552V436ZM1 437V55H-1V437H1Z" fill="#E6E6E6" mask="url(#path-1-inside-1_5730_132470)"/>
<mask id="path-3-inside-2_5730_132470" fill="white">
<path d="M563 55H1116V437H563V55Z"/>
</mask>
<path d="M563 55H1116V437H563V55Z" fill="white"/>
<path d="M1116 437V438H1117V437H1116ZM563 437H562V438H563V437ZM1115 55V437H1117V55H1115ZM1116 436H563V438H1116V436ZM564 437V55H562V437H564Z" fill="#E6E6E6" mask="url(#path-3-inside-2_5730_132470)"/>
<rect x="0.5" y="0.5" width="550.12" height="53.97" stroke="#E6E6E6"/>
<rect x="563.575" y="0.5" width="551.316" height="53.97" stroke="#E6E6E6"/>
<path d="M0 43.9761H551.12V54.9701H0V43.9761Z" fill="#C7F6C9"/>
<path opacity="0.6" d="M563 43.9761H1115.32V54.9701H563V43.9761Z" fill="#FF8274"/>
<path d="M23.1211 28.144C19.8731 28.144 17.5211 25.776 17.5211 22.016C17.5211 18.368 20.0011 16.016 22.9931 16.016C25.0571 16.016 26.5611 16.96 27.3131 18.64L26.0491 19.296C25.4731 18.048 24.3211 17.376 22.9771 17.376C20.8331 17.376 19.0091 18.896 19.0091 22.016C19.0091 25.136 20.7371 26.848 23.2011 26.848C24.4011 26.848 25.2651 26.608 26.0651 26.144V22.896H21.8891V21.6H27.3451V26.8C26.2891 27.68 24.7051 28.144 23.1211 28.144ZM30.4281 18.032C29.8201 18.032 29.3401 17.568 29.3401 16.944C29.3401 16.336 29.8201 15.872 30.4281 15.872C31.0201 15.872 31.5001 16.336 31.5001 16.944C31.5001 17.568 31.0201 18.032 30.4281 18.032ZM29.1001 31.488C28.7801 31.488 28.4441 31.44 28.1401 31.344L28.2521 30.208C28.4761 30.288 28.6681 30.304 28.8281 30.304C29.5321 30.304 29.7401 29.84 29.7401 29.12V19.52H31.1161V29.104C31.1161 30.64 30.4601 31.488 29.1001 31.488ZM39.2179 20.096C40.2259 20.832 40.8659 22.112 40.8659 23.728C40.8659 26.416 39.1219 28.144 36.9939 28.144C36.4179 28.144 35.8579 28.016 35.3619 27.776L34.8499 28.8H34.0179L34.7219 27.392C33.7459 26.64 33.1059 25.36 33.1059 23.728C33.1059 21.088 34.8339 19.36 36.9939 19.36C37.5699 19.36 38.1139 19.488 38.5939 19.712L39.1059 18.704H39.9219L39.2179 20.096ZM34.5299 23.728C34.5299 24.864 34.8339 25.696 35.3139 26.224L38.0499 20.8C37.7299 20.64 37.3619 20.56 36.9939 20.56C35.6499 20.56 34.5299 21.568 34.5299 23.728ZM36.9939 26.944C38.3379 26.944 39.4419 25.888 39.4419 23.728C39.4419 22.592 39.1379 21.776 38.6419 21.248L35.9059 26.688C36.2419 26.864 36.6099 26.944 36.9939 26.944ZM46.2012 19.36C47.3532 19.36 48.1532 20.128 48.1532 21.584V22.528L46.9692 22.752V21.904C46.9692 21.088 46.6972 20.544 45.8492 20.544C44.8892 20.544 44.1852 21.216 44.1852 22.896V28H42.8092V19.52H44.1852V20.608C44.6492 19.744 45.4492 19.36 46.2012 19.36ZM53.5241 21.776C53.5241 20.4 54.8201 19.36 56.6921 19.36C58.2601 19.36 59.4121 20.048 59.8601 21.168L58.8201 21.696C58.4681 20.944 57.7001 20.528 56.6601 20.528C55.5721 20.528 54.8521 20.96 54.8521 21.68C54.8521 22.304 55.2521 22.672 56.1641 22.864L57.3961 23.104C59.2361 23.472 60.1161 24.288 60.1161 25.568C60.1161 27.088 58.7721 28.128 56.7881 28.128C55.0601 28.128 53.8281 27.456 53.2201 26.208L54.2761 25.648C54.7081 26.512 55.5561 26.976 56.7561 26.976C57.9721 26.976 58.7881 26.448 58.7881 25.648C58.7881 24.944 58.3721 24.56 57.3961 24.352L55.9401 24.064C54.3721 23.744 53.5241 22.944 53.5241 21.776ZM64.9505 27.968C64.6625 28.032 64.4065 28.08 64.1185 28.08C62.6785 28.08 61.9905 27.2 61.9905 25.824V16.16H63.3665V25.76C63.3665 26.496 63.7665 26.848 64.4385 26.848C64.5985 26.848 64.7745 26.832 64.9505 26.784V27.968ZM66.472 16.064H68.36V17.92H66.472V16.064ZM66.728 28V19.52H68.104V28H66.728ZM75.965 28L73.053 23.92L72.045 24.912V28H70.669V16.16H72.045V23.328L75.837 19.52H77.581L73.981 23.024L77.645 28H75.965Z" fill="#2A2859"/>
<path d="M586.002 28V16.16H587.426V28H586.002ZM595.269 28L592.357 23.92L591.349 24.912V28H589.973V16.16H591.349V23.328L595.141 19.52H596.885L593.285 23.024L596.949 28H595.269ZM603.85 28L600.938 23.92L599.93 24.912V28H598.554V16.16H599.93V23.328L603.722 19.52H605.466L601.866 23.024L605.53 28H603.85ZM612.287 25.488L613.263 26.032C612.815 27.088 611.743 28.144 609.839 28.144C607.391 28.144 605.935 26.32 605.935 23.664C605.935 21.136 607.487 19.36 609.711 19.36C611.599 19.36 613.215 20.688 613.215 23.04L613.183 24.016H607.311C607.407 26.096 608.415 26.976 609.951 26.976C611.119 26.976 611.871 26.304 612.287 25.488ZM609.711 20.512C608.511 20.512 607.471 21.136 607.311 22.944H611.871C611.887 21.232 610.847 20.512 609.711 20.512ZM618.725 21.776C618.725 20.4 620.021 19.36 621.893 19.36C623.461 19.36 624.613 20.048 625.061 21.168L624.021 21.696C623.669 20.944 622.901 20.528 621.861 20.528C620.773 20.528 620.053 20.96 620.053 21.68C620.053 22.304 620.453 22.672 621.365 22.864L622.597 23.104C624.437 23.472 625.317 24.288 625.317 25.568C625.317 27.088 623.973 28.128 621.989 28.128C620.261 28.128 619.029 27.456 618.421 26.208L619.477 25.648C619.909 26.512 620.757 26.976 621.957 26.976C623.173 26.976 623.989 26.448 623.989 25.648C623.989 24.944 623.573 24.56 622.597 24.352L621.141 24.064C619.573 23.744 618.725 22.944 618.725 21.776ZM630.151 27.968C629.863 28.032 629.607 28.08 629.319 28.08C627.879 28.08 627.191 27.2 627.191 25.824V16.16H628.567V25.76C628.567 26.496 628.967 26.848 629.639 26.848C629.799 26.848 629.975 26.832 630.151 26.784V27.968ZM632.617 18.032C632.009 18.032 631.529 17.568 631.529 16.944C631.529 16.336 632.009 15.872 632.617 15.872C633.209 15.872 633.689 16.336 633.689 16.944C633.689 17.568 633.209 18.032 632.617 18.032ZM631.929 28V19.52H633.305V28H631.929ZM641.166 28L638.254 23.92L637.246 24.912V28H635.87V16.16H637.246V23.328L641.038 19.52H642.782L639.182 23.024L642.846 28H641.166Z" fill="#2A2859"/>
<path d="M642.672 212.056H649.152V214H640.566V200.68H649.044V202.624H642.672V206.35H647.586V208.294H642.672V212.056ZM653.487 211.048C653.487 212.11 654.135 212.434 654.801 212.434C655.323 212.434 655.737 212.218 656.151 211.804L657.015 213.1C656.295 213.82 655.503 214.162 654.477 214.162C652.821 214.162 651.471 213.154 651.471 211.174V206.026H649.797V204.46H651.471V202.336L653.487 201.418V204.46H656.853V206.026H653.487V211.048ZM666.183 214H664.329C664.185 213.514 664.095 212.938 664.059 212.2C663.609 213.19 662.601 214.162 660.945 214.162C659.217 214.162 657.993 212.992 657.993 211.336C657.993 209.266 659.829 208.24 661.881 208.24C662.529 208.24 663.141 208.294 663.807 208.474V207.574C663.807 206.548 663.159 205.882 661.989 205.882C660.891 205.882 660.117 206.476 659.757 207.592L658.047 207.07C658.731 205.054 660.369 204.244 662.079 204.244C664.617 204.244 665.769 205.738 665.769 207.556V211.246C665.769 212.38 665.949 213.388 666.183 214ZM663.807 210.058V209.842C663.231 209.644 662.673 209.572 662.079 209.572C660.891 209.572 659.973 210.112 659.973 211.156C659.973 212.038 660.603 212.596 661.557 212.596C662.529 212.596 663.807 212.02 663.807 210.058ZM673.62 204.262C675.924 204.262 677.58 206.224 677.58 209.14C677.58 212.128 675.906 214.144 673.386 214.144C672.288 214.144 671.226 213.658 670.614 212.47V214H668.598V200.68H670.614V206.17C671.352 204.82 672.522 204.262 673.62 204.262ZM673.08 212.488C674.466 212.488 675.492 211.372 675.492 209.23C675.492 207.088 674.466 205.99 673.08 205.99C671.604 205.99 670.614 206.998 670.614 209.212C670.614 211.426 671.604 212.488 673.08 212.488ZM683.43 213.946C683.052 214.054 682.674 214.108 682.278 214.108C680.46 214.108 679.596 213.028 679.596 211.282V200.68H681.612V211.138C681.612 211.966 682.098 212.344 682.836 212.344C683.016 212.344 683.214 212.326 683.43 212.272V213.946ZM691.696 210.994L693.064 211.786C692.524 212.974 691.264 214.162 689.086 214.162C686.26 214.162 684.55 212.074 684.55 209.14C684.55 206.242 686.404 204.244 688.942 204.244C691.192 204.244 693.046 205.756 693.046 208.456L693.01 209.644H686.53C686.638 211.66 687.628 212.524 689.212 212.524C690.382 212.524 691.192 211.894 691.696 210.994ZM688.942 205.828C687.718 205.828 686.692 206.476 686.53 208.204H691.084C691.102 206.512 690.058 205.828 688.942 205.828ZM699.706 204.244C701.092 204.244 701.992 205.162 701.992 206.8V208.06L700.372 208.348V207.376C700.372 206.512 700.066 205.918 699.13 205.918C698.104 205.918 697.348 206.602 697.348 208.42V214H695.332V204.46H697.348V205.738C697.888 204.676 698.878 204.244 699.706 204.244ZM705.017 202.876C704.225 202.876 703.595 202.264 703.595 201.454C703.595 200.644 704.225 200.032 705.017 200.032C705.809 200.032 706.421 200.644 706.421 201.454C706.421 202.264 705.809 202.876 705.017 202.876ZM704.009 214V204.46H706.025V214H704.009ZM713.713 204.244C715.657 204.244 716.809 205.504 716.809 207.574V214H714.793V207.898C714.793 206.584 714.163 205.99 713.065 205.99C711.643 205.99 710.923 206.98 710.923 208.834V214H708.907V204.46H710.923V205.828C711.571 204.82 712.525 204.244 713.713 204.244ZM728.697 206.026H726.699V206.242C727.023 206.692 727.185 207.214 727.185 207.754C727.185 209.482 725.853 211.21 723.081 211.21H722.613C721.641 211.21 721.011 211.534 721.011 212.11C721.011 212.506 721.317 212.794 721.929 212.794H725.907C727.545 212.794 728.481 213.64 728.481 214.936C728.481 216.898 726.483 218.032 723.297 218.032C720.507 218.032 718.635 217.33 718.149 215.476L720.111 215.098C720.561 216.25 721.605 216.556 723.351 216.556C725.223 216.556 726.555 216.052 726.555 215.17C726.555 214.756 726.321 214.45 725.673 214.45H721.335C719.841 214.45 719.067 213.64 719.067 212.632C719.067 211.66 719.931 210.886 721.119 210.652C719.805 210.076 719.157 208.852 719.157 207.7C719.157 205.99 720.543 204.244 723.189 204.244C724.359 204.244 725.277 204.658 725.817 205.252V204.46H728.697V206.026ZM723.189 209.752C724.575 209.752 725.223 208.78 725.223 207.736C725.223 206.692 724.575 205.738 723.189 205.738C721.821 205.738 721.155 206.692 721.155 207.736C721.155 208.78 721.821 209.752 723.189 209.752ZM729.29 207.088C729.29 205.468 730.784 204.244 733.034 204.244C734.888 204.244 736.13 204.91 736.796 206.188L735.392 207.052C734.96 206.314 734.096 205.864 733.016 205.864C731.936 205.864 731.198 206.278 731.198 206.962C731.198 207.52 731.576 207.862 732.422 208.024L734.024 208.348C736.04 208.744 737.048 209.698 737.048 211.156C737.048 212.956 735.482 214.162 733.124 214.162C731.126 214.162 729.704 213.406 728.966 212.02L730.37 211.138C730.892 212.02 731.81 212.524 733.07 212.524C734.294 212.524 735.122 212.038 735.122 211.246C735.122 210.598 734.726 210.238 733.844 210.058L732.08 209.716C730.28 209.374 729.29 208.456 729.29 207.088ZM745.133 214L742.235 209.626L741.137 210.706V214H739.121V200.68H741.137V208.42L744.989 204.46H747.473L743.567 208.312L747.545 214H745.133ZM752.513 214.18C750.029 214.18 747.995 212.236 747.995 209.176C747.995 206.188 750.011 204.244 752.513 204.244C755.015 204.244 757.031 206.188 757.031 209.176C757.031 212.236 754.997 214.18 752.513 214.18ZM752.513 212.47C753.863 212.47 754.961 211.426 754.961 209.176C754.961 206.908 753.845 205.954 752.513 205.954C751.181 205.954 750.065 206.908 750.065 209.176C750.065 211.426 751.181 212.47 752.513 212.47ZM758.643 207.088C758.643 205.468 760.137 204.244 762.387 204.244C764.241 204.244 765.483 204.91 766.149 206.188L764.745 207.052C764.313 206.314 763.449 205.864 762.369 205.864C761.289 205.864 760.551 206.278 760.551 206.962C760.551 207.52 760.929 207.862 761.775 208.024L763.377 208.348C765.393 208.744 766.401 209.698 766.401 211.156C766.401 212.956 764.835 214.162 762.477 214.162C760.479 214.162 759.057 213.406 758.319 212.02L759.723 211.138C760.245 212.02 761.163 212.524 762.423 212.524C763.647 212.524 764.475 212.038 764.475 211.246C764.475 210.598 764.079 210.238 763.197 210.058L761.433 209.716C759.633 209.374 758.643 208.456 758.643 207.088ZM770.999 211.048C770.999 212.11 771.647 212.434 772.313 212.434C772.835 212.434 773.249 212.218 773.663 211.804L774.527 213.1C773.807 213.82 773.015 214.162 771.989 214.162C770.333 214.162 768.983 213.154 768.983 211.174V206.026H767.309V204.46H768.983V202.336L770.999 201.418V204.46H774.365V206.026H770.999V211.048ZM781.078 204.244C783.022 204.244 784.174 205.504 784.174 207.574V214H782.158V207.898C782.158 206.584 781.528 205.99 780.43 205.99C779.008 205.99 778.288 206.98 778.288 208.834V214H776.272V204.46H778.288V205.828C778.936 204.82 779.89 204.244 781.078 204.244ZM794.587 214H792.733C792.589 213.514 792.499 212.938 792.463 212.2C792.013 213.19 791.005 214.162 789.349 214.162C787.621 214.162 786.397 212.992 786.397 211.336C786.397 209.266 788.233 208.24 790.285 208.24C790.933 208.24 791.545 208.294 792.211 208.474V207.574C792.211 206.548 791.563 205.882 790.393 205.882C789.295 205.882 788.521 206.476 788.161 207.592L786.451 207.07C787.135 205.054 788.773 204.244 790.483 204.244C793.021 204.244 794.173 205.738 794.173 207.556V211.246C794.173 212.38 794.353 213.388 794.587 214ZM792.211 210.058V209.842C791.635 209.644 791.077 209.572 790.483 209.572C789.295 209.572 788.377 210.112 788.377 211.156C788.377 212.038 789.007 212.596 789.961 212.596C790.933 212.596 792.211 212.02 792.211 210.058ZM803.074 200.68H805.09V214H803.074V212.272C802.336 213.604 801.184 214.144 800.086 214.144C797.782 214.144 796.126 212.164 796.126 209.266C796.126 206.26 797.8 204.262 800.32 204.262C801.4 204.262 802.48 204.748 803.074 205.918V200.68ZM800.626 212.38C802.084 212.38 803.074 211.39 803.074 209.158C803.074 206.944 802.102 205.882 800.626 205.882C799.24 205.882 798.214 206.998 798.214 209.158C798.214 211.3 799.24 212.38 800.626 212.38ZM814.287 210.994L815.655 211.786C815.115 212.974 813.855 214.162 811.677 214.162C808.851 214.162 807.141 212.074 807.141 209.14C807.141 206.242 808.995 204.244 811.533 204.244C813.783 204.244 815.637 205.756 815.637 208.456L815.601 209.644H809.121C809.229 211.66 810.219 212.524 811.803 212.524C812.973 212.524 813.783 211.894 814.287 210.994ZM811.533 205.828C810.309 205.828 809.283 206.476 809.121 208.204H813.675C813.693 206.512 812.649 205.828 811.533 205.828ZM822.298 204.244C823.684 204.244 824.584 205.162 824.584 206.8V208.06L822.964 208.348V207.376C822.964 206.512 822.658 205.918 821.722 205.918C820.696 205.918 819.94 206.602 819.94 208.42V214H817.924V204.46H819.94V205.738C820.48 204.676 821.47 204.244 822.298 204.244Z" fill="#2A2859"/>
<rect x="640" y="231" width="398" height="46" fill="white"/>
<path d="M656.332 250.208C656.332 247.976 658.366 246.536 660.724 246.536C662.902 246.536 664.378 247.472 665.044 249.146L663.856 249.632C663.316 248.354 662.11 247.652 660.724 247.652C658.888 247.652 657.592 248.588 657.592 250.064C657.592 251.306 658.33 252.062 659.896 252.368L661.984 252.764C664.036 253.16 665.548 254.258 665.548 256.256C665.548 258.308 663.82 260.144 660.904 260.144C658.6 260.144 656.872 259.352 655.936 257.372L657.088 256.904C657.988 258.668 659.482 259.028 660.94 259.028C663.118 259.028 664.288 257.768 664.288 256.328C664.288 254.726 663.208 254.258 661.588 253.952L659.68 253.592C657.826 253.25 656.332 252.224 656.332 250.208ZM674.536 257.3L675.436 257.804C674.986 258.956 673.798 260.144 671.674 260.144C668.992 260.144 667.408 258.146 667.408 255.104C667.408 252.314 669.064 250.316 671.548 250.316C673.6 250.316 675.364 251.792 675.364 254.384L675.328 255.446H668.65C668.758 257.984 669.964 259.064 671.8 259.064C673.24 259.064 674.086 258.236 674.536 257.3ZM671.548 251.396C670.108 251.396 668.812 252.17 668.65 254.438H674.158C674.212 252.296 672.952 251.396 671.548 251.396ZM687.256 250.316C689.074 250.316 690.136 251.468 690.136 253.448V260H688.912V253.628C688.912 252.08 688.174 251.432 686.932 251.432C685.258 251.432 684.556 252.728 684.556 254.636V260H683.332V253.628C683.332 252.08 682.594 251.432 681.352 251.432C679.678 251.432 678.976 252.728 678.976 254.636V260H677.752V250.46H678.976V251.954C679.552 250.892 680.56 250.316 681.676 250.316C683.098 250.316 684.052 251.018 684.394 252.26C684.934 251 686.032 250.316 687.256 250.316ZM699.396 257.3L700.296 257.804C699.846 258.956 698.658 260.144 696.534 260.144C693.852 260.144 692.268 258.146 692.268 255.104C692.268 252.314 693.924 250.316 696.408 250.316C698.46 250.316 700.224 251.792 700.224 254.384L700.188 255.446H693.51C693.618 257.984 694.824 259.064 696.66 259.064C698.1 259.064 698.946 258.236 699.396 257.3ZM696.408 251.396C694.968 251.396 693.672 252.17 693.51 254.438H699.018C699.072 252.296 697.812 251.396 696.408 251.396ZM702.143 252.944C702.143 251.432 703.565 250.316 705.563 250.316C707.291 250.316 708.623 251.144 709.019 252.404L708.011 252.8C707.633 251.882 706.751 251.396 705.527 251.396C704.195 251.396 703.331 251.954 703.331 252.836C703.331 253.628 703.853 254.114 704.987 254.348L706.247 254.6C708.335 255.014 709.307 255.914 709.307 257.336C709.307 258.992 707.831 260.144 705.707 260.144C703.781 260.144 702.431 259.388 701.783 257.948L702.827 257.516C703.277 258.524 704.267 259.064 705.671 259.064C707.147 259.064 708.119 258.416 708.119 257.444C708.119 256.544 707.615 256.058 706.355 255.788L704.807 255.464C703.061 255.104 702.143 254.222 702.143 252.944ZM713.249 257.624C713.249 258.74 713.915 259.064 714.509 259.064C715.085 259.064 715.463 258.848 715.913 258.38L716.561 259.1C715.931 259.838 715.247 260.144 714.401 260.144C713.105 260.144 712.025 259.28 712.025 257.588V251.468H710.225V250.46H712.025V248.408L713.249 247.688V250.46H716.345V251.468H713.249V257.624ZM724.425 257.3L725.325 257.804C724.875 258.956 723.687 260.144 721.563 260.144C718.881 260.144 717.297 258.146 717.297 255.104C717.297 252.314 718.953 250.316 721.437 250.316C723.489 250.316 725.253 251.792 725.253 254.384L725.217 255.446H718.539C718.647 257.984 719.853 259.064 721.689 259.064C723.129 259.064 723.975 258.236 724.425 257.3ZM721.437 251.396C719.997 251.396 718.701 252.17 718.539 254.438H724.047C724.101 252.296 722.841 251.396 721.437 251.396ZM731.06 250.316C732.302 250.316 733.202 251.144 733.202 252.764V253.7L732.086 253.916V252.98C732.086 252.026 731.762 251.396 730.79 251.396C729.692 251.396 728.864 252.206 728.864 254.132V260H727.64V250.46H728.864V251.648C729.368 250.748 730.214 250.316 731.06 250.316ZM738.057 259.964C737.769 260.036 737.535 260.072 737.265 260.072C735.771 260.072 735.069 259.136 735.069 257.732V246.68H736.293V257.732C736.293 258.542 736.725 258.956 737.481 258.956C737.679 258.956 737.877 258.938 738.057 258.884V259.964ZM743.492 249.452C742.322 249.452 741.368 248.588 741.368 247.4C741.368 246.212 742.322 245.348 743.492 245.348C744.662 245.348 745.616 246.212 745.616 247.4C745.616 248.588 744.662 249.452 743.492 249.452ZM743.492 246.176C742.808 246.176 742.268 246.608 742.268 247.4C742.268 248.21 742.808 248.624 743.492 248.624C744.176 248.624 744.716 248.21 744.716 247.4C744.716 246.608 744.176 246.176 743.492 246.176ZM747.2 260H746.084C745.94 259.478 745.832 258.848 745.832 258.128C745.346 259.244 744.104 260.144 742.556 260.144C740.864 260.144 739.586 259.046 739.586 257.408C739.586 255.446 741.35 254.42 743.312 254.42C744.086 254.42 744.842 254.51 745.616 254.78V253.52C745.616 252.278 744.86 251.432 743.384 251.432C742.196 251.432 741.188 251.954 740.684 253.412L739.604 253.088C740.324 251.072 741.782 250.316 743.456 250.316C745.814 250.316 746.804 251.738 746.804 253.376V257.3C746.804 258.38 746.984 259.352 747.2 260ZM745.616 256.04V255.824C744.878 255.518 744.122 255.428 743.384 255.428C741.944 255.428 740.81 256.076 740.81 257.336C740.81 258.488 741.62 259.1 742.772 259.1C744.014 259.1 745.616 258.362 745.616 256.04ZM753.694 250.316C755.602 250.316 756.718 251.486 756.718 253.628V260H755.494V253.808C755.494 252.08 754.702 251.432 753.37 251.432C751.696 251.432 750.922 252.728 750.922 254.636V260H749.698V250.46H750.922V251.936C751.498 250.892 752.542 250.316 753.694 250.316ZM766.211 245.6H767.399C766.103 248.48 765.455 251.306 765.455 254.186C765.455 257.066 766.103 259.838 767.399 262.7H766.211C764.861 259.838 764.195 257.084 764.195 254.186C764.195 251.288 764.879 248.462 766.211 245.6ZM774.81 258.956H777.762V260H770.49V258.956H773.586V248.084L770.67 250.1V248.768L773.658 246.68H774.81V258.956ZM785.314 260.144C782.686 260.144 780.454 257.66 780.454 253.34C780.454 249.02 782.668 246.536 785.314 246.536C787.96 246.536 790.174 249.02 790.174 253.34C790.174 257.66 787.942 260.144 785.314 260.144ZM785.314 258.956C787.294 258.956 788.914 257.318 788.914 253.34C788.914 249.452 787.312 247.724 785.314 247.724C783.316 247.724 781.714 249.452 781.714 253.34C781.714 257.318 783.334 258.956 785.314 258.956ZM796.627 260.144C793.999 260.144 791.767 257.66 791.767 253.34C791.767 249.02 793.981 246.536 796.627 246.536C799.273 246.536 801.487 249.02 801.487 253.34C801.487 257.66 799.255 260.144 796.627 260.144ZM796.627 258.956C798.607 258.956 800.227 257.318 800.227 253.34C800.227 249.452 798.625 247.724 796.627 247.724C794.629 247.724 793.027 249.452 793.027 253.34C793.027 257.318 794.647 258.956 796.627 258.956ZM808.337 251.432C810.803 251.432 812.549 253.178 812.549 255.572C812.549 258.146 810.659 260.144 807.689 260.144C806.033 260.144 804.377 259.496 803.117 257.696L804.053 256.94C805.043 258.38 806.231 259.028 807.833 259.028C809.903 259.028 811.325 257.516 811.325 255.644C811.325 253.772 810.083 252.548 808.229 252.548C806.933 252.548 806.105 252.944 804.935 254.042L803.945 253.664L804.395 246.68H811.541V247.832H805.457L805.097 252.692C805.961 251.882 807.113 251.432 808.337 251.432ZM825.388 260L821.878 255.266L820.708 256.382V260H819.484V246.68H820.708V254.942L825.244 250.46H826.864L822.706 254.456L826.936 260H825.388ZM832.037 250.316C833.279 250.316 834.179 251.144 834.179 252.764V253.7L833.063 253.916V252.98C833.063 252.026 832.739 251.396 831.767 251.396C830.669 251.396 829.841 252.206 829.841 254.132V260H828.617V250.46H829.841V251.648C830.345 250.748 831.191 250.316 832.037 250.316ZM837.082 262.7H835.894C837.19 259.82 837.838 256.994 837.838 254.114C837.838 251.234 837.19 248.462 835.894 245.6H837.082C838.432 248.462 839.098 251.216 839.098 254.114C839.098 257.012 838.414 259.838 837.082 262.7Z" fill="#2A2859"/>
<path fill-rule="evenodd" clip-rule="evenodd" d="M1011 256.56L1003.75 249.5L1002.75 250.47L1011 258.5L1019.25 250.47L1018.25 249.5L1011 256.56Z" fill="#2A2859"/>
<rect x="640" y="231" width="398" height="46" stroke="#2A2859" stroke-width="2"/>
<path d="M104.672 116.056H111.152V118H102.566V104.68H111.044V106.624H104.672V110.35H109.586V112.294H104.672V116.056ZM115.487 115.048C115.487 116.11 116.135 116.434 116.801 116.434C117.323 116.434 117.737 116.218 118.151 115.804L119.015 117.1C118.295 117.82 117.503 118.162 116.477 118.162C114.821 118.162 113.471 117.154 113.471 115.174V110.026H111.797V108.46H113.471V106.336L115.487 105.418V108.46H118.853V110.026H115.487V115.048ZM128.183 118H126.329C126.185 117.514 126.095 116.938 126.059 116.2C125.609 117.19 124.601 118.162 122.945 118.162C121.217 118.162 119.993 116.992 119.993 115.336C119.993 113.266 121.829 112.24 123.881 112.24C124.529 112.24 125.141 112.294 125.807 112.474V111.574C125.807 110.548 125.159 109.882 123.989 109.882C122.891 109.882 122.117 110.476 121.757 111.592L120.047 111.07C120.731 109.054 122.369 108.244 124.079 108.244C126.617 108.244 127.769 109.738 127.769 111.556V115.246C127.769 116.38 127.949 117.388 128.183 118ZM125.807 114.058V113.842C125.231 113.644 124.673 113.572 124.079 113.572C122.891 113.572 121.973 114.112 121.973 115.156C121.973 116.038 122.603 116.596 123.557 116.596C124.529 116.596 125.807 116.02 125.807 114.058ZM135.62 108.262C137.924 108.262 139.58 110.224 139.58 113.14C139.58 116.128 137.906 118.144 135.386 118.144C134.288 118.144 133.226 117.658 132.614 116.47V118H130.598V104.68H132.614V110.17C133.352 108.82 134.522 108.262 135.62 108.262ZM135.08 116.488C136.466 116.488 137.492 115.372 137.492 113.23C137.492 111.088 136.466 109.99 135.08 109.99C133.604 109.99 132.614 110.998 132.614 113.212C132.614 115.426 133.604 116.488 135.08 116.488ZM145.43 117.946C145.052 118.054 144.674 118.108 144.278 118.108C142.46 118.108 141.596 117.028 141.596 115.282V104.68H143.612V115.138C143.612 115.966 144.098 116.344 144.836 116.344C145.016 116.344 145.214 116.326 145.43 116.272V117.946ZM153.696 114.994L155.064 115.786C154.524 116.974 153.264 118.162 151.086 118.162C148.26 118.162 146.55 116.074 146.55 113.14C146.55 110.242 148.404 108.244 150.942 108.244C153.192 108.244 155.046 109.756 155.046 112.456L155.01 113.644H148.53C148.638 115.66 149.628 116.524 151.212 116.524C152.382 116.524 153.192 115.894 153.696 114.994ZM150.942 109.828C149.718 109.828 148.692 110.476 148.53 112.204H153.084C153.102 110.512 152.058 109.828 150.942 109.828ZM161.706 108.244C163.092 108.244 163.992 109.162 163.992 110.8V112.06L162.372 112.348V111.376C162.372 110.512 162.066 109.918 161.13 109.918C160.104 109.918 159.348 110.602 159.348 112.42V118H157.332V108.46H159.348V109.738C159.888 108.676 160.878 108.244 161.706 108.244ZM167.017 106.876C166.225 106.876 165.595 106.264 165.595 105.454C165.595 104.644 166.225 104.032 167.017 104.032C167.809 104.032 168.421 104.644 168.421 105.454C168.421 106.264 167.809 106.876 167.017 106.876ZM166.009 118V108.46H168.025V118H166.009ZM175.713 108.244C177.657 108.244 178.809 109.504 178.809 111.574V118H176.793V111.898C176.793 110.584 176.163 109.99 175.065 109.99C173.643 109.99 172.923 110.98 172.923 112.834V118H170.907V108.46H172.923V109.828C173.571 108.82 174.525 108.244 175.713 108.244ZM190.697 110.026H188.699V110.242C189.023 110.692 189.185 111.214 189.185 111.754C189.185 113.482 187.853 115.21 185.081 115.21H184.613C183.641 115.21 183.011 115.534 183.011 116.11C183.011 116.506 183.317 116.794 183.929 116.794H187.907C189.545 116.794 190.481 117.64 190.481 118.936C190.481 120.898 188.483 122.032 185.297 122.032C182.507 122.032 180.635 121.33 180.149 119.476L182.111 119.098C182.561 120.25 183.605 120.556 185.351 120.556C187.223 120.556 188.555 120.052 188.555 119.17C188.555 118.756 188.321 118.45 187.673 118.45H183.335C181.841 118.45 181.067 117.64 181.067 116.632C181.067 115.66 181.931 114.886 183.119 114.652C181.805 114.076 181.157 112.852 181.157 111.7C181.157 109.99 182.543 108.244 185.189 108.244C186.359 108.244 187.277 108.658 187.817 109.252V108.46H190.697V110.026ZM185.189 113.752C186.575 113.752 187.223 112.78 187.223 111.736C187.223 110.692 186.575 109.738 185.189 109.738C183.821 109.738 183.155 110.692 183.155 111.736C183.155 112.78 183.821 113.752 185.189 113.752ZM191.29 111.088C191.29 109.468 192.784 108.244 195.034 108.244C196.888 108.244 198.13 108.91 198.796 110.188L197.392 111.052C196.96 110.314 196.096 109.864 195.016 109.864C193.936 109.864 193.198 110.278 193.198 110.962C193.198 111.52 193.576 111.862 194.422 112.024L196.024 112.348C198.04 112.744 199.048 113.698 199.048 115.156C199.048 116.956 197.482 118.162 195.124 118.162C193.126 118.162 191.704 117.406 190.966 116.02L192.37 115.138C192.892 116.02 193.81 116.524 195.07 116.524C196.294 116.524 197.122 116.038 197.122 115.246C197.122 114.598 196.726 114.238 195.844 114.058L194.08 113.716C192.28 113.374 191.29 112.456 191.29 111.088ZM207.133 118L204.235 113.626L203.137 114.706V118H201.121V104.68H203.137V112.42L206.989 108.46H209.473L205.567 112.312L209.545 118H207.133ZM214.513 118.18C212.029 118.18 209.995 116.236 209.995 113.176C209.995 110.188 212.011 108.244 214.513 108.244C217.015 108.244 219.031 110.188 219.031 113.176C219.031 116.236 216.997 118.18 214.513 118.18ZM214.513 116.47C215.863 116.47 216.961 115.426 216.961 113.176C216.961 110.908 215.845 109.954 214.513 109.954C213.181 109.954 212.065 110.908 212.065 113.176C212.065 115.426 213.181 116.47 214.513 116.47ZM220.643 111.088C220.643 109.468 222.137 108.244 224.387 108.244C226.241 108.244 227.483 108.91 228.149 110.188L226.745 111.052C226.313 110.314 225.449 109.864 224.369 109.864C223.289 109.864 222.551 110.278 222.551 110.962C222.551 111.52 222.929 111.862 223.775 112.024L225.377 112.348C227.393 112.744 228.401 113.698 228.401 115.156C228.401 116.956 226.835 118.162 224.477 118.162C222.479 118.162 221.057 117.406 220.319 116.02L221.723 115.138C222.245 116.02 223.163 116.524 224.423 116.524C225.647 116.524 226.475 116.038 226.475 115.246C226.475 114.598 226.079 114.238 225.197 114.058L223.433 113.716C221.633 113.374 220.643 112.456 220.643 111.088ZM232.999 115.048C232.999 116.11 233.647 116.434 234.313 116.434C234.835 116.434 235.249 116.218 235.663 115.804L236.527 117.1C235.807 117.82 235.015 118.162 233.989 118.162C232.333 118.162 230.983 117.154 230.983 115.174V110.026H229.309V108.46H230.983V106.336L232.999 105.418V108.46H236.365V110.026H232.999V115.048ZM243.078 108.244C245.022 108.244 246.174 109.504 246.174 111.574V118H244.158V111.898C244.158 110.584 243.528 109.99 242.43 109.99C241.008 109.99 240.288 110.98 240.288 112.834V118H238.272V108.46H240.288V109.828C240.936 108.82 241.89 108.244 243.078 108.244ZM256.587 118H254.733C254.589 117.514 254.499 116.938 254.463 116.2C254.013 117.19 253.005 118.162 251.349 118.162C249.621 118.162 248.397 116.992 248.397 115.336C248.397 113.266 250.233 112.24 252.285 112.24C252.933 112.24 253.545 112.294 254.211 112.474V111.574C254.211 110.548 253.563 109.882 252.393 109.882C251.295 109.882 250.521 110.476 250.161 111.592L248.451 111.07C249.135 109.054 250.773 108.244 252.483 108.244C255.021 108.244 256.173 109.738 256.173 111.556V115.246C256.173 116.38 256.353 117.388 256.587 118ZM254.211 114.058V113.842C253.635 113.644 253.077 113.572 252.483 113.572C251.295 113.572 250.377 114.112 250.377 115.156C250.377 116.038 251.007 116.596 251.961 116.596C252.933 116.596 254.211 116.02 254.211 114.058ZM265.074 104.68H267.09V118H265.074V116.272C264.336 117.604 263.184 118.144 262.086 118.144C259.782 118.144 258.126 116.164 258.126 113.266C258.126 110.26 259.8 108.262 262.32 108.262C263.4 108.262 264.48 108.748 265.074 109.918V104.68ZM262.626 116.38C264.084 116.38 265.074 115.39 265.074 113.158C265.074 110.944 264.102 109.882 262.626 109.882C261.24 109.882 260.214 110.998 260.214 113.158C260.214 115.3 261.24 116.38 262.626 116.38ZM276.287 114.994L277.655 115.786C277.115 116.974 275.855 118.162 273.677 118.162C270.851 118.162 269.141 116.074 269.141 113.14C269.141 110.242 270.995 108.244 273.533 108.244C275.783 108.244 277.637 109.756 277.637 112.456L277.601 113.644H271.121C271.229 115.66 272.219 116.524 273.803 116.524C274.973 116.524 275.783 115.894 276.287 114.994ZM273.533 109.828C272.309 109.828 271.283 110.476 271.121 112.204H275.675C275.693 110.512 274.649 109.828 273.533 109.828ZM284.298 108.244C285.684 108.244 286.584 109.162 286.584 110.8V112.06L284.964 112.348V111.376C284.964 110.512 284.658 109.918 283.722 109.918C282.696 109.918 281.94 110.602 281.94 112.42V118H279.924V108.46H281.94V109.738C282.48 108.676 283.47 108.244 284.298 108.244Z" fill="#2A2859"/>
<path d="M120 175C120 170.029 124.029 166 129 166C133.971 166 138 170.029 138 175C138 179.971 133.971 184 129 184C124.029 184 120 179.971 120 175Z" fill="white" stroke="#2A2859" stroke-width="6"/>
<path d="M158.104 172.456C158.104 170.36 160.04 169 162.344 169C164.232 169 165.736 169.656 166.648 171.224L165.096 172.184C164.584 171.224 163.496 170.664 162.328 170.664C160.936 170.664 159.992 171.288 159.992 172.312C159.992 173.16 160.52 173.72 161.672 173.912L163.496 174.184C165.56 174.504 167 175.624 167 177.528C167 179.528 165.304 181.16 162.472 181.16C160.456 181.16 158.792 180.456 157.784 178.744L159.352 177.736C160.104 179.096 161.384 179.48 162.488 179.48C164.072 179.48 165.048 178.68 165.048 177.592C165.048 176.6 164.424 176.152 163.272 175.96L161.256 175.64C159.352 175.352 158.104 174.248 158.104 172.456ZM174.701 178.328L175.917 179.032C175.437 180.088 174.317 181.144 172.381 181.144C169.869 181.144 168.349 179.288 168.349 176.68C168.349 174.104 169.997 172.328 172.253 172.328C174.253 172.328 175.901 173.672 175.901 176.072L175.869 177.128H170.109C170.205 178.92 171.085 179.688 172.493 179.688C173.533 179.688 174.253 179.128 174.701 178.328ZM172.253 173.736C171.165 173.736 170.253 174.312 170.109 175.848H174.157C174.173 174.344 173.245 173.736 172.253 173.736ZM187.256 172.328C188.952 172.328 189.928 173.432 189.928 175.208V181H188.136V175.512C188.136 174.392 187.608 173.88 186.68 173.88C185.432 173.88 184.808 174.744 184.808 176.408V181H183.016V175.512C183.016 174.392 182.488 173.88 181.56 173.88C180.328 173.88 179.704 174.744 179.704 176.408V181H177.912V172.52H179.704V173.72C180.28 172.808 181.112 172.328 182.136 172.328C183.432 172.328 184.28 172.952 184.648 174.008C185.224 172.888 186.12 172.328 187.256 172.328ZM198.176 178.328L199.392 179.032C198.912 180.088 197.792 181.144 195.856 181.144C193.344 181.144 191.824 179.288 191.824 176.68C191.824 174.104 193.472 172.328 195.728 172.328C197.728 172.328 199.376 173.672 199.376 176.072L199.344 177.128H193.584C193.68 178.92 194.56 179.688 195.968 179.688C197.008 179.688 197.728 179.128 198.176 178.328ZM195.728 173.736C194.64 173.736 193.728 174.312 193.584 175.848H197.632C197.648 174.344 196.72 173.736 195.728 173.736ZM200.939 174.856C200.939 173.416 202.267 172.328 204.267 172.328C205.915 172.328 207.019 172.92 207.611 174.056L206.363 174.824C205.979 174.168 205.211 173.768 204.251 173.768C203.291 173.768 202.635 174.136 202.635 174.744C202.635 175.24 202.971 175.544 203.723 175.688L205.147 175.976C206.939 176.328 207.835 177.176 207.835 178.472C207.835 180.072 206.443 181.144 204.347 181.144C202.571 181.144 201.307 180.472 200.651 179.24L201.899 178.456C202.363 179.24 203.179 179.688 204.299 179.688C205.387 179.688 206.123 179.256 206.123 178.552C206.123 177.976 205.771 177.656 204.987 177.496L203.419 177.192C201.819 176.888 200.939 176.072 200.939 174.856ZM211.899 178.376C211.899 179.32 212.475 179.608 213.067 179.608C213.531 179.608 213.899 179.416 214.267 179.048L215.035 180.2C214.395 180.84 213.691 181.144 212.779 181.144C211.307 181.144 210.107 180.248 210.107 178.488V173.912H208.619V172.52H210.107V170.632L211.899 169.816V172.52H214.891V173.912H211.899V178.376ZM221.982 178.328L223.198 179.032C222.718 180.088 221.598 181.144 219.662 181.144C217.15 181.144 215.63 179.288 215.63 176.68C215.63 174.104 217.278 172.328 219.534 172.328C221.534 172.328 223.182 173.672 223.182 176.072L223.15 177.128H217.39C217.486 178.92 218.366 179.688 219.774 179.688C220.814 179.688 221.534 179.128 221.982 178.328ZM219.534 173.736C218.446 173.736 217.534 174.312 217.39 175.848H221.438C221.454 174.344 220.526 173.736 219.534 173.736ZM229.081 172.328C230.313 172.328 231.113 173.144 231.113 174.6V175.72L229.673 175.976V175.112C229.673 174.344 229.401 173.816 228.569 173.816C227.657 173.816 226.985 174.424 226.985 176.04V181H225.193V172.52H226.985V173.656C227.465 172.712 228.345 172.328 229.081 172.328ZM236.073 180.952C235.737 181.048 235.401 181.096 235.049 181.096C233.433 181.096 232.665 180.136 232.665 178.584V169.16H234.457V178.456C234.457 179.192 234.889 179.528 235.545 179.528C235.705 179.528 235.881 179.512 236.073 179.464V180.952ZM241.042 171.752C239.922 171.752 238.978 170.936 238.978 169.816C238.978 168.712 239.922 167.912 241.042 167.912C242.178 167.912 243.106 168.712 243.106 169.816C243.106 170.936 242.178 171.752 241.042 171.752ZM241.042 168.84C240.482 168.84 240.066 169.16 240.066 169.816C240.066 170.472 240.482 170.824 241.042 170.824C241.602 170.824 242.018 170.472 242.018 169.816C242.018 169.16 241.602 168.84 241.042 168.84ZM244.594 181H242.946C242.818 180.568 242.738 180.056 242.706 179.4C242.306 180.28 241.41 181.144 239.938 181.144C238.402 181.144 237.314 180.104 237.314 178.632C237.314 176.792 238.946 175.88 240.77 175.88C241.346 175.88 241.89 175.928 242.482 176.088V175.288C242.482 174.376 241.906 173.784 240.866 173.784C239.89 173.784 239.202 174.312 238.882 175.304L237.362 174.84C237.97 173.048 239.426 172.328 240.946 172.328C243.202 172.328 244.226 173.656 244.226 175.272V178.552C244.226 179.56 244.386 180.456 244.594 181ZM242.482 177.496V177.304C241.97 177.128 241.474 177.064 240.946 177.064C239.89 177.064 239.074 177.544 239.074 178.472C239.074 179.256 239.634 179.752 240.482 179.752C241.346 179.752 242.482 179.24 242.482 177.496ZM250.99 172.328C252.718 172.328 253.742 173.448 253.742 175.288V181H251.95V175.576C251.95 174.408 251.39 173.88 250.414 173.88C249.15 173.88 248.51 174.76 248.51 176.408V181H246.718V172.52H248.51V173.736C249.086 172.84 249.934 172.328 250.99 172.328ZM378.027 179.416H380.619V181H373.435V179.416H376.171V171.288L373.563 172.952V171.048L376.427 169.16H378.027V179.416ZM386.814 181.128C384.398 181.128 382.35 178.984 382.35 175.064C382.35 171.144 384.382 169 386.814 169C389.262 169 391.278 171.144 391.278 175.064C391.278 178.984 389.246 181.128 386.814 181.128ZM386.814 179.352C388.286 179.352 389.326 178.056 389.326 175.064C389.326 172.104 388.286 170.776 386.814 170.776C385.342 170.776 384.302 172.104 384.302 175.064C384.302 178.056 385.342 179.352 386.814 179.352ZM396.848 181.128C394.432 181.128 392.384 178.984 392.384 175.064C392.384 171.144 394.416 169 396.848 169C399.296 169 401.312 171.144 401.312 175.064C401.312 178.984 399.28 181.128 396.848 181.128ZM396.848 179.352C398.32 179.352 399.36 178.056 399.36 175.064C399.36 172.104 398.32 170.776 396.848 170.776C395.376 170.776 394.336 172.104 394.336 175.064C394.336 178.056 395.376 179.352 396.848 179.352ZM407.442 173.288C409.634 173.288 411.154 174.824 411.154 177C411.154 179.352 409.426 181.144 406.626 181.144C405.026 181.144 403.538 180.568 402.386 178.952L403.746 177.912C404.594 179.064 405.474 179.496 406.674 179.496C408.194 179.496 409.218 178.472 409.218 177.112C409.218 175.64 408.21 174.808 406.946 174.808C405.938 174.808 405.282 175.128 404.514 175.896L403.138 175.368L403.506 169.16H410.242V170.84H405.026L404.77 174.312C405.442 173.656 406.386 173.288 407.442 173.288ZM422.331 181L419.755 177.112L418.779 178.072V181H416.987V169.16H418.779V176.04L422.203 172.52H424.411L420.939 175.944L424.475 181H422.331ZM429.753 172.328C430.985 172.328 431.785 173.144 431.785 174.6V175.72L430.345 175.976V175.112C430.345 174.344 430.073 173.816 429.241 173.816C428.329 173.816 427.657 174.424 427.657 176.04V181H425.865V172.52H427.657V173.656C428.137 172.712 429.017 172.328 429.753 172.328Z" fill="#2A2859"/>
<rect x="102" y="140" width="348" height="68" stroke="#2A2859" stroke-width="2"/>
<rect x="118" y="246" width="22" height="22" rx="11" stroke="#2A2859" stroke-width="2"/>
<path d="M160.264 261.272H166.024V263H158.392V251.16H165.928V252.888H160.264V256.2H164.632V257.928H160.264V261.272ZM172.134 254.328C173.862 254.328 174.886 255.448 174.886 257.288V263H173.094V257.576C173.094 256.408 172.534 255.88 171.558 255.88C170.294 255.88 169.654 256.76 169.654 258.408V263H167.862V254.52H169.654V255.736C170.23 254.84 171.078 254.328 172.134 254.328ZM185.431 255.912H183.655V256.104C183.943 256.504 184.087 256.968 184.087 257.448C184.087 258.984 182.903 260.52 180.439 260.52H180.023C179.159 260.52 178.599 260.808 178.599 261.32C178.599 261.672 178.871 261.928 179.415 261.928H182.951C184.407 261.928 185.239 262.68 185.239 263.832C185.239 265.576 183.463 266.584 180.631 266.584C178.151 266.584 176.487 265.96 176.055 264.312L177.799 263.976C178.199 265 179.127 265.272 180.679 265.272C182.343 265.272 183.527 264.824 183.527 264.04C183.527 263.672 183.319 263.4 182.743 263.4H178.887C177.559 263.4 176.871 262.68 176.871 261.784C176.871 260.92 177.639 260.232 178.695 260.024C177.527 259.512 176.951 258.424 176.951 257.4C176.951 255.88 178.183 254.328 180.535 254.328C181.575 254.328 182.391 254.696 182.871 255.224V254.52H185.431V255.912ZM180.535 259.224C181.767 259.224 182.343 258.36 182.343 257.432C182.343 256.504 181.767 255.656 180.535 255.656C179.319 255.656 178.727 256.504 178.727 257.432C178.727 258.36 179.319 259.224 180.535 259.224ZM193.075 263H191.427C191.299 262.568 191.219 262.056 191.187 261.4C190.787 262.28 189.891 263.144 188.419 263.144C186.883 263.144 185.795 262.104 185.795 260.632C185.795 258.792 187.427 257.88 189.251 257.88C189.827 257.88 190.371 257.928 190.963 258.088V257.288C190.963 256.376 190.387 255.784 189.347 255.784C188.371 255.784 187.683 256.312 187.363 257.304L185.843 256.84C186.451 255.048 187.907 254.328 189.427 254.328C191.683 254.328 192.707 255.656 192.707 257.272V260.552C192.707 261.56 192.867 262.456 193.075 263ZM190.963 259.496V259.304C190.451 259.128 189.955 259.064 189.427 259.064C188.371 259.064 187.555 259.544 187.555 260.472C187.555 261.256 188.115 261.752 188.963 261.752C189.827 261.752 190.963 261.24 190.963 259.496ZM199.471 254.328C201.199 254.328 202.223 255.448 202.223 257.288V263H200.431V257.576C200.431 256.408 199.871 255.88 198.895 255.88C197.631 255.88 196.991 256.76 196.991 258.408V263H195.199V254.52H196.991V255.736C197.567 254.84 198.415 254.328 199.471 254.328ZM212.768 255.912H210.992V256.104C211.28 256.504 211.424 256.968 211.424 257.448C211.424 258.984 210.24 260.52 207.776 260.52H207.36C206.496 260.52 205.936 260.808 205.936 261.32C205.936 261.672 206.208 261.928 206.752 261.928H210.288C211.744 261.928 212.576 262.68 212.576 263.832C212.576 265.576 210.8 266.584 207.968 266.584C205.488 266.584 203.824 265.96 203.392 264.312L205.136 263.976C205.536 265 206.464 265.272 208.016 265.272C209.68 265.272 210.864 264.824 210.864 264.04C210.864 263.672 210.656 263.4 210.08 263.4H206.224C204.896 263.4 204.208 262.68 204.208 261.784C204.208 260.92 204.976 260.232 206.032 260.024C204.864 259.512 204.288 258.424 204.288 257.4C204.288 255.88 205.52 254.328 207.872 254.328C208.912 254.328 209.728 254.696 210.208 255.224V254.52H212.768V255.912ZM207.872 259.224C209.104 259.224 209.68 258.36 209.68 257.432C209.68 256.504 209.104 255.656 207.872 255.656C206.656 255.656 206.064 256.504 206.064 257.432C206.064 258.36 206.656 259.224 207.872 259.224ZM213.273 256.856C213.273 255.416 214.601 254.328 216.601 254.328C218.249 254.328 219.353 254.92 219.945 256.056L218.697 256.824C218.313 256.168 217.545 255.768 216.585 255.768C215.625 255.768 214.969 256.136 214.969 256.744C214.969 257.24 215.305 257.544 216.057 257.688L217.481 257.976C219.273 258.328 220.169 259.176 220.169 260.472C220.169 262.072 218.777 263.144 216.681 263.144C214.905 263.144 213.641 262.472 212.985 261.24L214.233 260.456C214.697 261.24 215.513 261.688 216.633 261.688C217.721 261.688 218.457 261.256 218.457 260.552C218.457 259.976 218.105 259.656 217.321 259.496L215.753 259.192C214.153 258.888 213.273 258.072 213.273 256.856ZM225.398 262.952C225.062 263.048 224.726 263.096 224.374 263.096C222.758 263.096 221.99 262.136 221.99 260.584V251.16H223.782V260.456C223.782 261.192 224.214 261.528 224.87 261.528C225.03 261.528 225.206 261.512 225.398 261.464V262.952ZM230.367 253.752C229.247 253.752 228.303 252.936 228.303 251.816C228.303 250.712 229.247 249.912 230.367 249.912C231.503 249.912 232.431 250.712 232.431 251.816C232.431 252.936 231.503 253.752 230.367 253.752ZM230.367 250.84C229.807 250.84 229.391 251.16 229.391 251.816C229.391 252.472 229.807 252.824 230.367 252.824C230.927 252.824 231.343 252.472 231.343 251.816C231.343 251.16 230.927 250.84 230.367 250.84ZM233.919 263H232.271C232.143 262.568 232.063 262.056 232.031 261.4C231.631 262.28 230.735 263.144 229.263 263.144C227.727 263.144 226.639 262.104 226.639 260.632C226.639 258.792 228.271 257.88 230.095 257.88C230.671 257.88 231.215 257.928 231.807 258.088V257.288C231.807 256.376 231.231 255.784 230.191 255.784C229.215 255.784 228.527 256.312 228.207 257.304L226.687 256.84C227.295 255.048 228.751 254.328 230.271 254.328C232.527 254.328 233.551 255.656 233.551 257.272V260.552C233.551 261.56 233.711 262.456 233.919 263ZM231.807 259.496V259.304C231.295 259.128 230.799 259.064 230.271 259.064C229.215 259.064 228.399 259.544 228.399 260.472C228.399 261.256 228.959 261.752 229.807 261.752C230.671 261.752 231.807 261.24 231.807 259.496ZM240.315 254.328C242.043 254.328 243.067 255.448 243.067 257.288V263H241.275V257.576C241.275 256.408 240.715 255.88 239.739 255.88C238.475 255.88 237.835 256.76 237.835 258.408V263H236.043V254.52H237.835V255.736C238.411 254.84 239.259 254.328 240.315 254.328ZM386.133 255.288C388.325 255.288 389.845 256.824 389.845 259C389.845 261.352 388.117 263.144 385.317 263.144C383.717 263.144 382.229 262.568 381.077 260.952L382.437 259.912C383.285 261.064 384.165 261.496 385.365 261.496C386.885 261.496 387.909 260.472 387.909 259.112C387.909 257.64 386.901 256.808 385.637 256.808C384.629 256.808 383.973 257.128 383.205 257.896L381.829 257.368L382.197 251.16H388.933V252.84H383.717L383.461 256.312C384.133 255.656 385.077 255.288 386.133 255.288ZM397.592 256.728C398.76 257.128 399.784 258.04 399.784 259.592C399.784 261.544 398.12 263.16 395.384 263.16C393.704 263.16 392.2 262.552 391 260.936L392.376 259.896C393.24 261.048 394.136 261.48 395.4 261.48C396.936 261.48 397.896 260.568 397.896 259.496C397.896 258.776 397.624 258.264 397.112 258.008C396.792 257.832 396.456 257.752 395.944 257.752H394.12V256.184H395.32C396.12 256.184 396.472 256.072 396.808 255.8C397.208 255.48 397.4 255 397.4 254.504C397.4 253.352 396.6 252.664 395.32 252.664C394.056 252.664 393.256 253.4 392.856 254.568L391.176 254.088C391.864 252.04 393.448 251 395.352 251C398.088 251 399.288 252.6 399.288 254.168C399.288 255.4 398.552 256.264 397.592 256.728ZM405.866 263.16C402.986 263.16 401.29 260.84 401.29 257C401.29 253.56 403.162 251 406.25 251C408.042 251 409.178 251.832 409.882 253.112L408.378 254.12C407.946 253.288 407.146 252.68 406.154 252.68C404.106 252.68 402.986 254.536 403.194 257.32C403.85 256.088 405.082 255.432 406.33 255.432C408.33 255.432 410.042 256.872 410.042 259.128C410.042 261.288 408.426 263.16 405.866 263.16ZM403.626 259.224C403.626 260.744 404.682 261.544 405.882 261.544C407.066 261.544 408.106 260.744 408.106 259.224C408.106 257.816 407.082 256.92 405.866 256.92C404.698 256.92 403.626 257.688 403.626 259.224ZM421.09 263L418.514 259.112L417.538 260.072V263H415.746V251.16H417.538V258.04L420.962 254.52H423.17L419.698 257.944L423.234 263H421.09ZM428.512 254.328C429.744 254.328 430.544 255.144 430.544 256.6V257.72L429.104 257.976V257.112C429.104 256.344 428.832 255.816 428 255.816C427.088 255.816 426.416 256.424 426.416 258.04V263H424.624V254.52H426.416V255.656C426.896 254.712 427.776 254.328 428.512 254.328Z" fill="#2A2859"/>
<rect x="102" y="222" width="348" height="68" stroke="#2A2859" stroke-width="2"/>
<rect x="118" y="328" width="22" height="22" rx="11" stroke="#2A2859" stroke-width="2"/>
<path d="M158.392 345V333.16H160.264V345H158.392ZM167.024 336.328C168.752 336.328 169.776 337.448 169.776 339.288V345H167.984V339.576C167.984 338.408 167.424 337.88 166.448 337.88C165.184 337.88 164.544 338.76 164.544 340.408V345H162.752V336.52H164.544V337.736C165.12 336.84 165.968 336.328 167.024 336.328ZM180.321 337.912H178.545V338.104C178.833 338.504 178.977 338.968 178.977 339.448C178.977 340.984 177.793 342.52 175.329 342.52H174.913C174.049 342.52 173.489 342.808 173.489 343.32C173.489 343.672 173.761 343.928 174.305 343.928H177.841C179.297 343.928 180.129 344.68 180.129 345.832C180.129 347.576 178.353 348.584 175.521 348.584C173.041 348.584 171.377 347.96 170.945 346.312L172.689 345.976C173.089 347 174.017 347.272 175.569 347.272C177.233 347.272 178.417 346.824 178.417 346.04C178.417 345.672 178.209 345.4 177.633 345.4H173.777C172.449 345.4 171.761 344.68 171.761 343.784C171.761 342.92 172.529 342.232 173.585 342.024C172.417 341.512 171.841 340.424 171.841 339.4C171.841 337.88 173.073 336.328 175.425 336.328C176.465 336.328 177.281 336.696 177.761 337.224V336.52H180.321V337.912ZM175.425 341.224C176.657 341.224 177.233 340.36 177.233 339.432C177.233 338.504 176.657 337.656 175.425 337.656C174.209 337.656 173.617 338.504 173.617 339.432C173.617 340.36 174.209 341.224 175.425 341.224ZM186.957 342.328L188.174 343.032C187.694 344.088 186.574 345.144 184.637 345.144C182.125 345.144 180.605 343.288 180.605 340.68C180.605 338.104 182.253 336.328 184.51 336.328C186.51 336.328 188.158 337.672 188.158 340.072L188.125 341.128H182.365C182.461 342.92 183.341 343.688 184.749 343.688C185.789 343.688 186.51 343.128 186.957 342.328ZM184.51 337.736C183.421 337.736 182.509 338.312 182.365 339.848H186.413C186.43 338.344 185.501 337.736 184.51 337.736ZM194.44 336.328C196.168 336.328 197.192 337.448 197.192 339.288V345H195.4V339.576C195.4 338.408 194.84 337.88 193.864 337.88C192.6 337.88 191.96 338.76 191.96 340.408V345H190.168V336.52H191.96V337.736C192.536 336.84 193.384 336.328 194.44 336.328ZM209.311 342.328L210.527 343.032C210.047 344.088 208.927 345.144 206.991 345.144C204.479 345.144 202.959 343.288 202.959 340.68C202.959 338.104 204.607 336.328 206.863 336.328C208.863 336.328 210.511 337.672 210.511 340.072L210.479 341.128H204.719C204.815 342.92 205.695 343.688 207.103 343.688C208.143 343.688 208.863 343.128 209.311 342.328ZM206.863 337.736C205.775 337.736 204.863 338.312 204.719 339.848H208.767C208.783 338.344 207.855 337.736 206.863 337.736ZM214.765 342.376C214.765 343.32 215.341 343.608 215.933 343.608C216.397 343.608 216.765 343.416 217.133 343.048L217.901 344.2C217.261 344.84 216.557 345.144 215.645 345.144C214.173 345.144 212.973 344.248 212.973 342.488V337.912H211.485V336.52H212.973V334.632L214.765 333.816V336.52H217.757V337.912H214.765V342.376ZM226.028 345H224.38C224.252 344.568 224.172 344.056 224.14 343.4C223.74 344.28 222.844 345.144 221.372 345.144C219.836 345.144 218.748 344.104 218.748 342.632C218.748 340.792 220.38 339.88 222.204 339.88C222.78 339.88 223.324 339.928 223.916 340.088V339.288C223.916 338.376 223.34 337.784 222.3 337.784C221.324 337.784 220.636 338.312 220.316 339.304L218.796 338.84C219.404 337.048 220.86 336.328 222.38 336.328C224.636 336.328 225.66 337.656 225.66 339.272V342.552C225.66 343.56 225.82 344.456 226.028 345ZM223.916 341.496V341.304C223.404 341.128 222.908 341.064 222.38 341.064C221.324 341.064 220.508 341.544 220.508 342.472C220.508 343.256 221.068 343.752 221.916 343.752C222.78 343.752 223.916 343.24 223.916 341.496ZM232.616 336.344C234.664 336.344 236.136 338.088 236.136 340.68C236.136 343.336 234.648 345.128 232.408 345.128C231.432 345.128 230.488 344.696 229.944 343.64V345H228.152V333.16H229.944V338.04C230.6 336.84 231.64 336.344 232.616 336.344ZM232.136 343.656C233.368 343.656 234.28 342.664 234.28 340.76C234.28 338.856 233.368 337.88 232.136 337.88C230.824 337.88 229.944 338.776 229.944 340.744C229.944 342.712 230.824 343.656 232.136 343.656ZM241.313 344.952C240.977 345.048 240.641 345.096 240.289 345.096C238.673 345.096 237.905 344.136 237.905 342.584V333.16H239.697V342.456C239.697 343.192 240.129 343.528 240.785 343.528C240.945 343.528 241.121 343.512 241.313 343.464V344.952ZM248.639 342.328L249.855 343.032C249.375 344.088 248.255 345.144 246.319 345.144C243.807 345.144 242.287 343.288 242.287 340.68C242.287 338.104 243.935 336.328 246.191 336.328C248.191 336.328 249.839 337.672 249.839 340.072L249.807 341.128H244.047C244.143 342.92 245.023 343.688 246.431 343.688C247.471 343.688 248.191 343.128 248.639 342.328ZM246.191 337.736C245.103 337.736 244.191 338.312 244.047 339.848H248.095C248.111 338.344 247.183 337.736 246.191 337.736ZM255.737 336.328C256.969 336.328 257.769 337.144 257.769 338.6V339.72L256.329 339.976V339.112C256.329 338.344 256.057 337.816 255.225 337.816C254.313 337.816 253.641 338.424 253.641 340.04V345H251.849V336.52H253.641V337.656C254.121 336.712 255.001 336.328 255.737 336.328ZM260.436 335.112C259.732 335.112 259.172 334.568 259.172 333.848C259.172 333.128 259.732 332.584 260.436 332.584C261.14 332.584 261.684 333.128 261.684 333.848C261.684 334.568 261.14 335.112 260.436 335.112ZM259.54 345V336.52H261.332V345H259.54ZM268.143 336.328C269.871 336.328 270.895 337.448 270.895 339.288V345H269.103V339.576C269.103 338.408 268.543 337.88 267.567 337.88C266.303 337.88 265.663 338.76 265.663 340.408V345H263.871V336.52H265.663V337.736C266.239 336.84 267.087 336.328 268.143 336.328ZM281.44 337.912H279.664V338.104C279.952 338.504 280.096 338.968 280.096 339.448C280.096 340.984 278.912 342.52 276.448 342.52H276.032C275.168 342.52 274.608 342.808 274.608 343.32C274.608 343.672 274.88 343.928 275.424 343.928H278.96C280.416 343.928 281.248 344.68 281.248 345.832C281.248 347.576 279.472 348.584 276.64 348.584C274.16 348.584 272.496 347.96 272.064 346.312L273.808 345.976C274.208 347 275.136 347.272 276.688 347.272C278.352 347.272 279.536 346.824 279.536 346.04C279.536 345.672 279.328 345.4 278.752 345.4H274.896C273.568 345.4 272.88 344.68 272.88 343.784C272.88 342.92 273.648 342.232 274.704 342.024C273.536 341.512 272.96 340.424 272.96 339.4C272.96 337.88 274.192 336.328 276.544 336.328C277.584 336.328 278.4 336.696 278.88 337.224V336.52H281.44V337.912ZM276.544 341.224C277.776 341.224 278.352 340.36 278.352 339.432C278.352 338.504 277.776 337.656 276.544 337.656C275.328 337.656 274.736 338.504 274.736 339.432C274.736 340.36 275.328 341.224 276.544 341.224ZM281.945 338.856C281.945 337.416 283.273 336.328 285.273 336.328C286.921 336.328 288.025 336.92 288.617 338.056L287.369 338.824C286.985 338.168 286.217 337.768 285.257 337.768C284.297 337.768 283.641 338.136 283.641 338.744C283.641 339.24 283.977 339.544 284.729 339.688L286.153 339.976C287.945 340.328 288.841 341.176 288.841 342.472C288.841 344.072 287.449 345.144 285.353 345.144C283.577 345.144 282.313 344.472 281.657 343.24L282.905 342.456C283.369 343.24 284.185 343.688 285.305 343.688C286.393 343.688 287.129 343.256 287.129 342.552C287.129 341.976 286.777 341.656 285.993 341.496L284.425 341.192C282.825 340.888 281.945 340.072 281.945 338.856ZM296.006 345L293.43 341.112L292.454 342.072V345H290.662V333.16H292.454V340.04L295.878 336.52H298.086L294.614 339.944L298.15 345H296.006ZM302.543 345.16C300.335 345.16 298.527 343.432 298.527 340.712C298.527 338.056 300.319 336.328 302.543 336.328C304.767 336.328 306.559 338.056 306.559 340.712C306.559 343.432 304.751 345.16 302.543 345.16ZM302.543 343.64C303.743 343.64 304.719 342.712 304.719 340.712C304.719 338.696 303.727 337.848 302.543 337.848C301.359 337.848 300.367 338.696 300.367 340.712C300.367 342.712 301.359 343.64 302.543 343.64ZM307.97 338.856C307.97 337.416 309.298 336.328 311.298 336.328C312.946 336.328 314.05 336.92 314.642 338.056L313.394 338.824C313.01 338.168 312.242 337.768 311.282 337.768C310.322 337.768 309.666 338.136 309.666 338.744C309.666 339.24 310.002 339.544 310.754 339.688L312.178 339.976C313.97 340.328 314.866 341.176 314.866 342.472C314.866 344.072 313.474 345.144 311.378 345.144C309.602 345.144 308.338 344.472 307.682 343.24L308.93 342.456C309.394 343.24 310.21 343.688 311.33 343.688C312.418 343.688 313.154 343.256 313.154 342.552C313.154 341.976 312.802 341.656 312.018 341.496L310.45 341.192C308.85 340.888 307.97 340.072 307.97 338.856ZM318.93 342.376C318.93 343.32 319.506 343.608 320.098 343.608C320.562 343.608 320.93 343.416 321.298 343.048L322.066 344.2C321.426 344.84 320.722 345.144 319.81 345.144C318.338 345.144 317.138 344.248 317.138 342.488V337.912H315.65V336.52H317.138V334.632L318.93 333.816V336.52H321.922V337.912H318.93V342.376ZM327.868 336.328C329.596 336.328 330.62 337.448 330.62 339.288V345H328.828V339.576C328.828 338.408 328.268 337.88 327.292 337.88C326.028 337.88 325.388 338.76 325.388 340.408V345H323.596V336.52H325.388V337.736C325.964 336.84 326.812 336.328 327.868 336.328ZM339.853 345H338.205C338.077 344.568 337.997 344.056 337.965 343.4C337.565 344.28 336.669 345.144 335.197 345.144C333.661 345.144 332.573 344.104 332.573 342.632C332.573 340.792 334.205 339.88 336.029 339.88C336.605 339.88 337.149 339.928 337.741 340.088V339.288C337.741 338.376 337.165 337.784 336.125 337.784C335.149 337.784 334.461 338.312 334.141 339.304L332.621 338.84C333.229 337.048 334.685 336.328 336.205 336.328C338.461 336.328 339.485 337.656 339.485 339.272V342.552C339.485 343.56 339.645 344.456 339.853 345ZM337.741 341.496V341.304C337.229 341.128 336.733 341.064 336.205 341.064C335.149 341.064 334.333 341.544 334.333 342.472C334.333 343.256 334.893 343.752 335.741 343.752C336.605 343.752 337.741 343.24 337.741 341.496ZM347.375 333.16H349.167V345H347.375V343.464C346.719 344.648 345.695 345.128 344.719 345.128C342.671 345.128 341.199 343.368 341.199 340.792C341.199 338.12 342.687 336.344 344.927 336.344C345.887 336.344 346.847 336.776 347.375 337.816V333.16ZM345.199 343.56C346.495 343.56 347.375 342.68 347.375 340.696C347.375 338.728 346.511 337.784 345.199 337.784C343.967 337.784 343.055 338.776 343.055 340.696C343.055 342.6 343.967 343.56 345.199 343.56ZM357.32 342.328L358.536 343.032C358.056 344.088 356.936 345.144 355 345.144C352.488 345.144 350.968 343.288 350.968 340.68C350.968 338.104 352.616 336.328 354.872 336.328C356.872 336.328 358.52 337.672 358.52 340.072L358.488 341.128H352.728C352.824 342.92 353.704 343.688 355.112 343.688C356.152 343.688 356.872 343.128 357.32 342.328ZM354.872 337.736C353.784 337.736 352.872 338.312 352.728 339.848H356.776C356.792 338.344 355.864 337.736 354.872 337.736ZM364.418 336.328C365.65 336.328 366.45 337.144 366.45 338.6V339.72L365.01 339.976V339.112C365.01 338.344 364.738 337.816 363.906 337.816C362.994 337.816 362.322 338.424 362.322 340.04V345H360.53V336.52H362.322V337.656C362.802 336.712 363.682 336.328 364.418 336.328ZM407.183 345.128C404.767 345.128 402.719 342.984 402.719 339.064C402.719 335.144 404.751 333 407.183 333C409.631 333 411.647 335.144 411.647 339.064C411.647 342.984 409.615 345.128 407.183 345.128ZM407.183 343.352C408.655 343.352 409.695 342.056 409.695 339.064C409.695 336.104 408.655 334.776 407.183 334.776C405.711 334.776 404.671 336.104 404.671 339.064C404.671 342.056 405.711 343.352 407.183 343.352ZM422.631 345L420.055 341.112L419.079 342.072V345H417.287V333.16H419.079V340.04L422.503 336.52H424.711L421.239 339.944L424.775 345H422.631ZM430.053 336.328C431.285 336.328 432.085 337.144 432.085 338.6V339.72L430.645 339.976V339.112C430.645 338.344 430.373 337.816 429.541 337.816C428.629 337.816 427.957 338.424 427.957 340.04V345H426.165V336.52H427.957V337.656C428.437 336.712 429.317 336.328 430.053 336.328Z" fill="#2A2859"/>
<rect x="102" y="304" width="348" height="68" stroke="#2A2859" stroke-width="2"/>
</g>
<defs>
<clipPath id="clip0_5730_132470">
<rect width="1116" height="437" fill="white"/>
</clipPath>
</defs>
</svg>
