<svg width="581" height="185" viewBox="0 0 581 185" fill="none" xmlns="http://www.w3.org/2000/svg">
<rect width="580.383" height="185" fill="white"/>
<g clip-path="url(#clip0_5734_202580)">
<g clip-path="url(#clip1_5734_202580)">
<rect x="154" y="63" width="24" height="24" rx="12" fill="#6FE9FF"/>
<path d="M167.183 70.2727V79H166.126V71.3807H166.075L163.944 72.7955V71.7216L166.126 70.2727H167.183Z" fill="#2A2859"/>
</g>
<rect x="167" y="81" width="22" height="0.999999" transform="rotate(90 167 81)" fill="#6FE9FF"/>
</g>
<path fill-rule="evenodd" clip-rule="evenodd" d="M162.293 111L167 115.836L166.353 116.5L161 111L166.353 105.5L167 106.164L162.293 111Z" fill="#2A2859"/>
<path d="M181.036 108.384C181.036 106.648 182.618 105.528 184.452 105.528C186.146 105.528 187.294 106.256 187.812 107.558L186.888 107.936C186.468 106.942 185.53 106.396 184.452 106.396C183.024 106.396 182.016 107.124 182.016 108.272C182.016 109.238 182.59 109.826 183.808 110.064L185.432 110.372C187.028 110.68 188.204 111.534 188.204 113.088C188.204 114.684 186.86 116.112 184.592 116.112C182.8 116.112 181.456 115.496 180.728 113.956L181.624 113.592C182.324 114.964 183.486 115.244 184.62 115.244C186.314 115.244 187.224 114.264 187.224 113.144C187.224 111.898 186.384 111.534 185.124 111.296L183.64 111.016C182.198 110.75 181.036 109.952 181.036 108.384ZM191.493 114.152C191.493 115.02 192.011 115.272 192.473 115.272C192.921 115.272 193.215 115.104 193.565 114.74L194.069 115.3C193.579 115.874 193.047 116.112 192.389 116.112C191.381 116.112 190.541 115.44 190.541 114.124V109.364H189.141V108.58H190.541V106.984L191.493 106.424V108.58H193.901V109.364H191.493V114.152ZM200.953 116H200.085C199.973 115.594 199.889 115.104 199.889 114.544C199.511 115.412 198.545 116.112 197.341 116.112C196.025 116.112 195.031 115.258 195.031 113.984C195.031 112.458 196.403 111.66 197.929 111.66C198.531 111.66 199.119 111.73 199.721 111.94V110.96C199.721 109.994 199.133 109.336 197.985 109.336C197.061 109.336 196.277 109.742 195.885 110.876L195.045 110.624C195.605 109.056 196.739 108.468 198.041 108.468C199.875 108.468 200.645 109.574 200.645 110.848V113.9C200.645 114.74 200.785 115.496 200.953 116ZM199.721 112.92V112.752C199.147 112.514 198.559 112.444 197.985 112.444C196.865 112.444 195.983 112.948 195.983 113.928C195.983 114.824 196.613 115.3 197.509 115.3C198.475 115.3 199.721 114.726 199.721 112.92ZM205.712 108.468C206.678 108.468 207.378 109.112 207.378 110.372V111.1L206.51 111.268V110.54C206.51 109.798 206.258 109.308 205.502 109.308C204.648 109.308 204.004 109.938 204.004 111.436V116H203.052V108.58H204.004V109.504C204.396 108.804 205.054 108.468 205.712 108.468ZM210.606 114.152C210.606 115.02 211.124 115.272 211.586 115.272C212.034 115.272 212.328 115.104 212.678 114.74L213.182 115.3C212.692 115.874 212.16 116.112 211.502 116.112C210.494 116.112 209.654 115.44 209.654 114.124V109.364H208.254V108.58H209.654V106.984L210.606 106.424V108.58H213.014V109.364H210.606V114.152ZM213.804 110.568H217.164V111.464H213.804V110.568ZM221.559 104.94H222.483L219.683 118.1H218.759L221.559 104.94ZM226.288 114.152C226.288 115.02 226.806 115.272 227.268 115.272C227.716 115.272 228.01 115.104 228.36 114.74L228.864 115.3C228.374 115.874 227.842 116.112 227.184 116.112C226.176 116.112 225.336 115.44 225.336 114.124V109.364H223.936V108.58H225.336V106.984L226.288 106.424V108.58H228.696V109.364H226.288V114.152ZM233.151 108.468C234.117 108.468 234.817 109.112 234.817 110.372V111.1L233.949 111.268V110.54C233.949 109.798 233.697 109.308 232.941 109.308C232.087 109.308 231.443 109.938 231.443 111.436V116H230.491V108.58H231.443V109.504C231.835 108.804 232.493 108.468 233.151 108.468ZM241.804 116H240.936C240.824 115.594 240.74 115.104 240.74 114.544C240.362 115.412 239.396 116.112 238.192 116.112C236.876 116.112 235.882 115.258 235.882 113.984C235.882 112.458 237.254 111.66 238.78 111.66C239.382 111.66 239.97 111.73 240.572 111.94V110.96C240.572 109.994 239.984 109.336 238.836 109.336C237.912 109.336 237.128 109.742 236.736 110.876L235.896 110.624C236.456 109.056 237.59 108.468 238.892 108.468C240.726 108.468 241.496 109.574 241.496 110.848V113.9C241.496 114.74 241.636 115.496 241.804 116ZM240.572 112.92V112.752C239.998 112.514 239.41 112.444 238.836 112.444C237.716 112.444 236.834 112.948 236.834 113.928C236.834 114.824 237.464 115.3 238.36 115.3C239.326 115.3 240.572 114.726 240.572 112.92ZM247.011 108.468C248.495 108.468 249.363 109.378 249.363 111.044V116H248.411V111.184C248.411 109.84 247.795 109.336 246.759 109.336C245.457 109.336 244.855 110.344 244.855 111.828V116H243.903V108.58H244.855V109.728C245.303 108.916 246.115 108.468 247.011 108.468ZM251.291 110.512C251.291 109.336 252.397 108.468 253.951 108.468C255.295 108.468 256.331 109.112 256.639 110.092L255.855 110.4C255.561 109.686 254.875 109.308 253.923 109.308C252.887 109.308 252.215 109.742 252.215 110.428C252.215 111.044 252.621 111.422 253.503 111.604L254.483 111.8C256.107 112.122 256.863 112.822 256.863 113.928C256.863 115.216 255.715 116.112 254.063 116.112C252.565 116.112 251.515 115.524 251.011 114.404L251.823 114.068C252.173 114.852 252.943 115.272 254.035 115.272C255.183 115.272 255.939 114.768 255.939 114.012C255.939 113.312 255.547 112.934 254.567 112.724L253.363 112.472C252.005 112.192 251.291 111.506 251.291 110.512ZM262.125 108.482C264.015 108.482 265.289 110.064 265.289 112.22C265.289 114.502 264.001 116.112 262.013 116.112C260.977 116.112 260.137 115.594 259.689 114.656V118.94H258.737V108.58H259.689V109.966C260.179 109.014 261.159 108.482 262.125 108.482ZM262.013 115.272C263.399 115.272 264.309 114.208 264.309 112.262C264.309 110.386 263.399 109.322 262.027 109.322C260.543 109.322 259.689 110.428 259.689 112.248C259.689 114.18 260.529 115.272 262.013 115.272ZM270.055 116.112C268.221 116.112 266.751 114.6 266.751 112.276C266.751 109.98 268.207 108.468 270.055 108.468C271.903 108.468 273.359 109.98 273.359 112.276C273.359 114.6 271.889 116.112 270.055 116.112ZM270.055 115.272C271.329 115.272 272.379 114.264 272.379 112.276C272.379 110.302 271.315 109.308 270.055 109.308C268.795 109.308 267.731 110.302 267.731 112.276C267.731 114.264 268.781 115.272 270.055 115.272ZM277.954 108.468C278.92 108.468 279.62 109.112 279.62 110.372V111.1L278.752 111.268V110.54C278.752 109.798 278.5 109.308 277.744 109.308C276.89 109.308 276.246 109.938 276.246 111.436V116H275.294V108.58H276.246V109.504C276.638 108.804 277.296 108.468 277.954 108.468ZM282.848 114.152C282.848 115.02 283.366 115.272 283.828 115.272C284.276 115.272 284.57 115.104 284.92 114.74L285.424 115.3C284.934 115.874 284.402 116.112 283.744 116.112C282.736 116.112 281.896 115.44 281.896 114.124V109.364H280.496V108.58H281.896V106.984L282.848 106.424V108.58H285.256V109.364H282.848V114.152ZM286.046 110.568H289.406V111.464H286.046V110.568ZM293.801 104.94H294.725L291.925 118.1H291.001L293.801 104.94ZM299.37 115.972C299.146 116.028 298.964 116.056 298.754 116.056C297.592 116.056 297.046 115.328 297.046 114.236V105.64H297.998V114.236C297.998 114.866 298.334 115.188 298.922 115.188C299.076 115.188 299.23 115.174 299.37 115.132V115.972ZM306.636 116H305.768C305.656 115.594 305.572 115.104 305.572 114.544C305.194 115.412 304.228 116.112 303.024 116.112C301.708 116.112 300.714 115.258 300.714 113.984C300.714 112.458 302.086 111.66 303.612 111.66C304.214 111.66 304.802 111.73 305.404 111.94V110.96C305.404 109.994 304.816 109.336 303.668 109.336C302.744 109.336 301.96 109.742 301.568 110.876L300.728 110.624C301.288 109.056 302.422 108.468 303.724 108.468C305.558 108.468 306.328 109.574 306.328 110.848V113.9C306.328 114.74 306.468 115.496 306.636 116ZM305.404 112.92V112.752C304.83 112.514 304.242 112.444 303.668 112.444C302.548 112.444 301.666 112.948 301.666 113.928C301.666 114.824 302.296 115.3 303.192 115.3C304.158 115.3 305.404 114.726 305.404 112.92ZM311.843 108.468C313.327 108.468 314.195 109.378 314.195 111.044V116H313.243V111.184C313.243 109.84 312.627 109.336 311.591 109.336C310.289 109.336 309.687 110.344 309.687 111.828V116H308.735V108.58H309.687V109.728C310.135 108.916 310.947 108.468 311.843 108.468ZM321.611 105.64H322.563V116H321.611V114.614C321.121 115.566 320.141 116.098 319.175 116.098C317.285 116.098 316.011 114.516 316.011 112.36C316.011 110.078 317.299 108.468 319.287 108.468C320.323 108.468 321.163 108.986 321.611 109.924V105.64ZM319.273 115.258C320.757 115.258 321.611 114.152 321.611 112.332C321.611 110.4 320.771 109.308 319.287 109.308C317.901 109.308 316.991 110.372 316.991 112.318C316.991 114.194 317.901 115.258 319.273 115.258ZM325.385 107.236C324.923 107.236 324.545 106.872 324.545 106.396C324.545 105.92 324.923 105.556 325.385 105.556C325.847 105.556 326.225 105.92 326.225 106.396C326.225 106.872 325.847 107.236 325.385 107.236ZM324.909 116V108.58H325.861V116H324.909ZM331.38 108.468C332.864 108.468 333.732 109.378 333.732 111.044V116H332.78V111.184C332.78 109.84 332.164 109.336 331.128 109.336C329.826 109.336 329.224 110.344 329.224 111.828V116H328.272V108.58H329.224V109.728C329.672 108.916 330.484 108.468 331.38 108.468ZM342.688 109.364H341.092V109.63C341.456 110.078 341.652 110.638 341.652 111.184C341.652 112.542 340.672 113.928 338.586 113.928H338.264C337.424 113.928 336.822 114.25 336.822 114.74C336.822 115.118 337.116 115.384 337.732 115.384H340.742C341.946 115.384 342.562 115.972 342.562 116.896C342.562 118.366 340.868 119.136 338.782 119.136C336.906 119.136 335.604 118.534 335.156 117.232L335.926 116.882C336.444 118.1 337.536 118.338 338.782 118.338C340.322 118.338 341.61 117.876 341.61 116.98C341.61 116.56 341.386 116.252 340.714 116.252H337.522C336.486 116.252 335.87 115.762 335.87 114.992C335.87 114.334 336.416 113.76 337.326 113.522C336.346 113.13 335.8 112.094 335.8 111.184C335.8 109.854 336.794 108.468 338.754 108.468C339.524 108.468 340.112 108.72 340.56 109.098V108.58H342.688V109.364ZM338.74 113.144C340.056 113.144 340.714 112.234 340.714 111.184C340.714 110.148 340.056 109.28 338.74 109.28C337.41 109.28 336.738 110.162 336.738 111.184C336.738 112.22 337.41 113.144 338.74 113.144ZM343.535 110.512C343.535 109.336 344.641 108.468 346.195 108.468C347.539 108.468 348.575 109.112 348.883 110.092L348.099 110.4C347.805 109.686 347.119 109.308 346.167 109.308C345.131 109.308 344.459 109.742 344.459 110.428C344.459 111.044 344.865 111.422 345.747 111.604L346.727 111.8C348.351 112.122 349.107 112.822 349.107 113.928C349.107 115.216 347.959 116.112 346.307 116.112C344.809 116.112 343.759 115.524 343.255 114.404L344.067 114.068C344.417 114.852 345.187 115.272 346.279 115.272C347.427 115.272 348.183 114.768 348.183 114.012C348.183 113.312 347.791 112.934 346.811 112.724L345.607 112.472C344.249 112.192 343.535 111.506 343.535 110.512ZM350.617 110.512C350.617 109.336 351.723 108.468 353.277 108.468C354.621 108.468 355.657 109.112 355.965 110.092L355.181 110.4C354.887 109.686 354.201 109.308 353.249 109.308C352.213 109.308 351.541 109.742 351.541 110.428C351.541 111.044 351.947 111.422 352.829 111.604L353.809 111.8C355.433 112.122 356.189 112.822 356.189 113.928C356.189 115.216 355.041 116.112 353.389 116.112C351.891 116.112 350.841 115.524 350.337 114.404L351.149 114.068C351.499 114.852 352.269 115.272 353.361 115.272C354.509 115.272 355.265 114.768 355.265 114.012C355.265 113.312 354.873 112.934 353.893 112.724L352.689 112.472C351.331 112.192 350.617 111.506 350.617 110.512ZM357.811 105.696H359.267V107.124H357.811V105.696ZM358.063 116V108.58H359.015V116H358.063ZM366.551 105.64H367.503V116H366.551V114.614C366.061 115.566 365.081 116.098 364.115 116.098C362.225 116.098 360.951 114.516 360.951 112.36C360.951 110.078 362.239 108.468 364.227 108.468C365.263 108.468 366.103 108.986 366.551 109.924V105.64ZM364.213 115.258C365.697 115.258 366.551 114.152 366.551 112.332C366.551 110.4 365.711 109.308 364.227 109.308C362.841 109.308 361.931 110.372 361.931 112.318C361.931 114.194 362.841 115.258 364.213 115.258ZM374.917 113.9L375.617 114.292C375.267 115.188 374.343 116.112 372.691 116.112C370.605 116.112 369.373 114.558 369.373 112.192C369.373 110.022 370.661 108.468 372.593 108.468C374.189 108.468 375.561 109.616 375.561 111.632L375.533 112.458H370.339C370.423 114.432 371.361 115.272 372.789 115.272C373.909 115.272 374.567 114.628 374.917 113.9ZM372.593 109.308C371.473 109.308 370.465 109.91 370.339 111.674H374.623C374.665 110.008 373.685 109.308 372.593 109.308Z" fill="#2A2859"/>
<g clip-path="url(#clip2_5734_202580)">
<rect x="377" y="110" width="49.3835" height="1" fill="#6FE9FF"/>
<g clip-path="url(#clip3_5734_202580)">
<rect x="402.383" y="98" width="24" height="24" rx="12" fill="#6FE9FF"/>
<path d="M411.654 114V113.233L414.535 110.08C414.873 109.71 415.151 109.389 415.37 109.116C415.589 108.841 415.751 108.582 415.856 108.341C415.964 108.097 416.018 107.841 416.018 107.574C416.018 107.267 415.944 107.001 415.796 106.777C415.651 106.553 415.452 106.379 415.2 106.257C414.947 106.135 414.663 106.074 414.347 106.074C414.012 106.074 413.719 106.143 413.469 106.283C413.222 106.419 413.031 106.611 412.894 106.858C412.761 107.105 412.694 107.395 412.694 107.727H411.688C411.688 107.216 411.806 106.767 412.042 106.381C412.278 105.994 412.599 105.693 413.005 105.477C413.414 105.261 413.873 105.153 414.381 105.153C414.893 105.153 415.346 105.261 415.741 105.477C416.136 105.693 416.445 105.984 416.67 106.351C416.894 106.717 417.006 107.125 417.006 107.574C417.006 107.895 416.948 108.209 416.832 108.516C416.718 108.82 416.519 109.159 416.235 109.534C415.954 109.906 415.563 110.361 415.063 110.898L413.103 112.994V113.062H417.16V114H411.654Z" fill="#2A2859"/>
</g>
</g>
<defs>
<clipPath id="clip0_5734_202580">
<rect width="24" height="40" fill="white" transform="translate(154 63)"/>
</clipPath>
<clipPath id="clip1_5734_202580">
<rect x="154" y="63" width="24" height="24" rx="12" fill="white"/>
</clipPath>
<clipPath id="clip2_5734_202580">
<rect width="49.3835" height="24" fill="white" transform="translate(377 98)"/>
</clipPath>
<clipPath id="clip3_5734_202580">
<rect x="402.383" y="98" width="24" height="24" rx="12" fill="white"/>
</clipPath>
</defs>
</svg>
