<svg width="922" height="301" viewBox="0 0 922 301" fill="none" xmlns="http://www.w3.org/2000/svg">
<g clip-path="url(#clip0_4799_152452)">
<rect width="922" height="301" fill="white"/>
<mask id="path-1-inside-1_4799_152452" fill="white">
<path d="M0 55H456V301H0V55Z"/>
</mask>
<path d="M0 55H456V301H0V55Z" fill="white"/>
<path d="M456 301V302H457V301H456ZM0 301H-1V302H0V301ZM455 55V301H457V55H455ZM456 300H0V302H456V300ZM1 301V55H-1V301H1Z" fill="#E6E6E6" mask="url(#path-1-inside-1_4799_152452)"/>
<mask id="path-3-inside-2_4799_152452" fill="white">
<path d="M465 55H922V301H465V55Z"/>
</mask>
<path d="M465 55H922V301H465V55Z" fill="white"/>
<path d="M922 301V302H923V301H922ZM465 301H464V302H465V301ZM921 55V301H923V55H921ZM922 300H465V302H922V300ZM466 301V55H464V301H466Z" fill="#E6E6E6" mask="url(#path-3-inside-2_4799_152452)"/>
<rect x="0.5" y="0.5" width="454.316" height="53.97" stroke="#E6E6E6"/>
<rect x="465.693" y="0.5" width="455.304" height="53.97" stroke="#E6E6E6"/>
<path d="M0 43.9761H455.316V54.9701H0V43.9761Z" fill="#C7F6C9"/>
<path opacity="0.6" d="M465.193 43.9761H921.497V54.9701H465.193V43.9761Z" fill="#FF8274"/>
<path d="M20.2116 28.144C21.7956 28.144 23.3796 27.68 24.4356 26.8V21.6H18.9796V22.896H23.1556V26.144C22.3556 26.608 21.4916 26.848 20.2916 26.848C17.8276 26.848 16.0996 25.136 16.0996 22.016C16.0996 18.896 17.9236 17.376 20.0676 17.376C21.4116 17.376 22.5636 18.048 23.1396 19.296L24.4036 18.64C23.6516 16.96 22.1476 16.016 20.0836 16.016C17.0916 16.016 14.6116 18.368 14.6116 22.016C14.6116 25.776 16.9636 28.144 20.2116 28.144ZM27.5186 18.032C28.1106 18.032 28.5906 17.568 28.5906 16.944C28.5906 16.336 28.1106 15.872 27.5186 15.872C26.9106 15.872 26.4306 16.336 26.4306 16.944C26.4306 17.568 26.9106 18.032 27.5186 18.032ZM26.1906 31.488C27.5506 31.488 28.2066 30.64 28.2066 29.104V19.52H26.8306V29.12C26.8306 29.84 26.6226 30.304 25.9186 30.304C25.7586 30.304 25.5666 30.288 25.3426 30.208L25.2306 31.344C25.5346 31.44 25.8706 31.488 26.1906 31.488ZM36.3084 20.096L37.0124 18.704H36.1964L35.6844 19.712C35.2044 19.488 34.6604 19.36 34.0844 19.36C31.9244 19.36 30.1964 21.088 30.1964 23.728C30.1964 25.36 30.8364 26.64 31.8124 27.392L31.1084 28.8H31.9404L32.4524 27.776C32.9484 28.016 33.5084 28.144 34.0844 28.144C36.2124 28.144 37.9564 26.416 37.9564 23.728C37.9564 22.112 37.3164 20.832 36.3084 20.096ZM31.6204 23.728C31.6204 21.568 32.7404 20.56 34.0844 20.56C34.4524 20.56 34.8204 20.64 35.1404 20.8L32.4044 26.224C31.9244 25.696 31.6204 24.864 31.6204 23.728ZM34.0844 26.944C33.7004 26.944 33.3324 26.864 32.9964 26.688L35.7324 21.248C36.2284 21.776 36.5324 22.592 36.5324 23.728C36.5324 25.888 35.4284 26.944 34.0844 26.944ZM43.2918 19.36C42.5398 19.36 41.7398 19.744 41.2758 20.608V19.52H39.8998V28H41.2758V22.896C41.2758 21.216 41.9798 20.544 42.9398 20.544C43.7878 20.544 44.0598 21.088 44.0598 21.904V22.752L45.2438 22.528V21.584C45.2438 20.128 44.4438 19.36 43.2918 19.36ZM50.6146 21.776C50.6146 22.944 51.4626 23.744 53.0306 24.064L54.4866 24.352C55.4626 24.56 55.8786 24.944 55.8786 25.648C55.8786 26.448 55.0626 26.976 53.8466 26.976C52.6466 26.976 51.7986 26.512 51.3666 25.648L50.3106 26.208C50.9186 27.456 52.1506 28.128 53.8786 28.128C55.8626 28.128 57.2066 27.088 57.2066 25.568C57.2066 24.288 56.3266 23.472 54.4866 23.104L53.2546 22.864C52.3426 22.672 51.9426 22.304 51.9426 21.68C51.9426 20.96 52.6626 20.528 53.7506 20.528C54.7906 20.528 55.5586 20.944 55.9106 21.696L56.9506 21.168C56.5026 20.048 55.3506 19.36 53.7826 19.36C51.9106 19.36 50.6146 20.4 50.6146 21.776ZM62.041 27.968V26.784C61.865 26.832 61.689 26.848 61.529 26.848C60.857 26.848 60.457 26.496 60.457 25.76V16.16H59.081V25.824C59.081 27.2 59.769 28.08 61.209 28.08C61.497 28.08 61.753 28.032 62.041 27.968ZM63.5625 16.064V17.92H65.4505V16.064H63.5625ZM63.8185 28H65.1945V19.52H63.8185V28ZM73.0555 28H74.7355L71.0715 23.024L74.6715 19.52H72.9275L69.1355 23.328V16.16H67.7595V28H69.1355V24.912L70.1435 23.92L73.0555 28Z" fill="#2A2859"/>
<path d="M484.379 28H485.803V16.16H484.379V28ZM493.646 28H495.326L491.662 23.024L495.262 19.52H493.518L489.726 23.328V16.16H488.35V28H489.726V24.912L490.734 23.92L493.646 28ZM502.227 28H503.907L500.243 23.024L503.843 19.52H502.099L498.307 23.328V16.16H496.931V28H498.307V24.912L499.315 23.92L502.227 28ZM510.664 25.488C510.248 26.304 509.496 26.976 508.328 26.976C506.792 26.976 505.784 26.096 505.688 24.016H511.56L511.592 23.04C511.592 20.688 509.976 19.36 508.088 19.36C505.864 19.36 504.312 21.136 504.312 23.664C504.312 26.32 505.768 28.144 508.216 28.144C510.12 28.144 511.192 27.088 511.64 26.032L510.664 25.488ZM508.088 20.512C509.224 20.512 510.264 21.232 510.248 22.944H505.688C505.848 21.136 506.888 20.512 508.088 20.512ZM517.102 21.776C517.102 22.944 517.95 23.744 519.518 24.064L520.974 24.352C521.95 24.56 522.366 24.944 522.366 25.648C522.366 26.448 521.55 26.976 520.334 26.976C519.134 26.976 518.286 26.512 517.854 25.648L516.798 26.208C517.406 27.456 518.638 28.128 520.366 28.128C522.35 28.128 523.694 27.088 523.694 25.568C523.694 24.288 522.814 23.472 520.974 23.104L519.742 22.864C518.83 22.672 518.43 22.304 518.43 21.68C518.43 20.96 519.15 20.528 520.238 20.528C521.278 20.528 522.046 20.944 522.398 21.696L523.438 21.168C522.99 20.048 521.838 19.36 520.27 19.36C518.398 19.36 517.102 20.4 517.102 21.776ZM528.528 27.968V26.784C528.352 26.832 528.176 26.848 528.016 26.848C527.344 26.848 526.944 26.496 526.944 25.76V16.16H525.568V25.824C525.568 27.2 526.256 28.08 527.696 28.08C527.984 28.08 528.24 28.032 528.528 27.968ZM530.994 18.032C531.586 18.032 532.066 17.568 532.066 16.944C532.066 16.336 531.586 15.872 530.994 15.872C530.386 15.872 529.906 16.336 529.906 16.944C529.906 17.568 530.386 18.032 530.994 18.032ZM530.306 28H531.682V19.52H530.306V28ZM539.543 28H541.223L537.559 23.024L541.159 19.52H539.415L535.623 23.328V16.16H534.247V28H535.623V24.912L536.631 23.92L539.543 28Z" fill="#2A2859"/>
<path d="M523.998 135.25C525.379 135.25 526.498 134.131 526.498 132.75C526.498 131.369 525.379 130.25 523.998 130.25C522.617 130.25 521.498 131.369 521.498 132.75C521.498 134.131 522.617 135.25 523.998 135.25Z" fill="#2A2859"/>
<path d="M520.078 137L519.002 149.917L520.995 150.083L521 150.021V162H523V149H525V162H527V149L528.919 149.001L528.192 140.281L533.149 145.75L534.631 144.406L527.918 137.002L527 137H520.078ZM521.252 147L521.918 139H526.078L526.745 147H521.252Z" fill="#2A2859"/>
<path d="M541.563 148.994L539.502 149L538.241 160.003H533.793L532.531 148.994L530.471 149.003L532.009 162H538.341V161.991H540.025L541.563 148.994Z" fill="#2A2859"/>
<path d="M535 151C535.552 151 536 150.552 536 150C536 149.448 535.552 149 535 149C534.448 149 534 149.448 534 150C534 150.552 534.448 151 535 151Z" fill="#2A2859"/>
<path d="M538 152H536V154H538V152Z" fill="#2A2859"/>
<path d="M537 157H535V159H537V157Z" fill="#2A2859"/>
<path d="M566.456 137.24V144.704H558.896V137.24H556.088V155H558.896V147.416H566.456V155H569.264V137.24H566.456ZM581.824 150.992C581.152 152.192 580.072 153.032 578.512 153.032C576.4 153.032 575.08 151.88 574.936 149.192H583.576L583.624 147.608C583.624 144.008 581.152 141.992 578.152 141.992C574.768 141.992 572.296 144.656 572.296 148.52C572.296 152.432 574.576 155.216 578.344 155.216C581.248 155.216 582.928 153.632 583.648 152.048L581.824 150.992ZM578.152 144.104C579.64 144.104 581.032 145.016 581.008 147.272H574.936C575.152 144.968 576.52 144.104 578.152 144.104ZM591.851 154.928V152.696C591.563 152.768 591.299 152.792 591.059 152.792C590.075 152.792 589.427 152.288 589.427 151.184V137.24H586.739V151.376C586.739 153.704 587.891 155.144 590.315 155.144C590.843 155.144 591.347 155.072 591.851 154.928ZM593.813 145.784C593.813 147.608 595.133 148.832 597.533 149.288L599.885 149.744C601.061 149.984 601.589 150.464 601.589 151.328C601.589 152.384 600.485 153.032 598.853 153.032C597.173 153.032 595.949 152.36 595.253 151.184L593.381 152.36C594.365 154.208 596.261 155.216 598.925 155.216C602.069 155.216 604.157 153.608 604.157 151.208C604.157 149.264 602.813 147.992 600.125 147.464L597.989 147.032C596.861 146.816 596.357 146.36 596.357 145.616C596.357 144.704 597.341 144.152 598.781 144.152C600.221 144.152 601.373 144.752 601.949 145.736L603.821 144.584C602.933 142.88 601.277 141.992 598.805 141.992C595.805 141.992 593.813 143.624 593.813 145.784ZM615.466 150.992C614.794 152.192 613.714 153.032 612.154 153.032C610.042 153.032 608.722 151.88 608.578 149.192H617.218L617.266 147.608C617.266 144.008 614.794 141.992 611.794 141.992C608.41 141.992 605.938 144.656 605.938 148.52C605.938 152.432 608.218 155.216 611.986 155.216C614.89 155.216 616.57 153.632 617.29 152.048L615.466 150.992ZM611.794 144.104C613.282 144.104 614.674 145.016 614.65 147.272H608.578C608.794 144.968 610.162 144.104 611.794 144.104ZM631.554 155.24C634.866 155.24 637.578 152.648 637.578 148.568C637.578 144.584 634.89 141.992 631.554 141.992C628.218 141.992 625.53 144.584 625.53 148.568C625.53 152.648 628.242 155.24 631.554 155.24ZM631.554 152.96C629.778 152.96 628.29 151.568 628.29 148.568C628.29 145.544 629.778 144.272 631.554 144.272C633.33 144.272 634.818 145.544 634.818 148.568C634.818 151.568 633.354 152.96 631.554 152.96ZM652.237 144.368V142.28H648.397V143.336C647.677 142.544 646.453 141.992 644.893 141.992C641.365 141.992 639.517 144.32 639.517 146.6C639.517 148.136 640.381 149.768 642.133 150.536C640.549 150.848 639.397 151.88 639.397 153.176C639.397 154.52 640.429 155.6 642.421 155.6H648.205C649.069 155.6 649.381 156.008 649.381 156.56C649.381 157.736 647.605 158.408 645.109 158.408C642.781 158.408 641.389 158 640.789 156.464L638.173 156.968C638.821 159.44 641.317 160.376 645.037 160.376C649.285 160.376 651.949 158.864 651.949 156.248C651.949 154.52 650.701 153.392 648.517 153.392H643.213C642.397 153.392 641.989 153.008 641.989 152.48C641.989 151.712 642.829 151.28 644.125 151.28H644.749C648.445 151.28 650.221 148.976 650.221 146.672C650.221 145.952 650.005 145.256 649.573 144.656V144.368H652.237ZM644.893 149.336C643.069 149.336 642.181 148.04 642.181 146.648C642.181 145.256 643.069 143.984 644.893 143.984C646.741 143.984 647.605 145.256 647.605 146.648C647.605 148.04 646.741 149.336 644.893 149.336ZM665.571 155.24C668.883 155.24 671.595 152.648 671.595 148.568C671.595 144.584 668.907 141.992 665.571 141.992C662.235 141.992 659.547 144.584 659.547 148.568C659.547 152.648 662.259 155.24 665.571 155.24ZM665.571 152.96C663.795 152.96 662.307 151.568 662.307 148.568C662.307 145.544 663.795 144.272 665.571 144.272C667.347 144.272 668.835 145.544 668.835 148.568C668.835 151.568 667.371 152.96 665.571 152.96ZM688.499 141.992C686.795 141.992 685.451 142.832 684.587 144.512C684.035 142.928 682.763 141.992 680.819 141.992C679.283 141.992 678.035 142.712 677.171 144.08V142.28H674.483V155H677.171V148.112C677.171 145.616 678.107 144.32 679.955 144.32C681.347 144.32 682.139 145.088 682.139 146.768V155H684.827V148.112C684.827 145.616 685.763 144.32 687.635 144.32C689.027 144.32 689.819 145.088 689.819 146.768V155H692.507V146.312C692.507 143.648 691.043 141.992 688.499 141.992ZM695.572 145.784C695.572 147.608 696.892 148.832 699.292 149.288L701.644 149.744C702.82 149.984 703.348 150.464 703.348 151.328C703.348 152.384 702.244 153.032 700.612 153.032C698.932 153.032 697.708 152.36 697.012 151.184L695.14 152.36C696.124 154.208 698.02 155.216 700.684 155.216C703.828 155.216 705.916 153.608 705.916 151.208C705.916 149.264 704.572 147.992 701.884 147.464L699.748 147.032C698.62 146.816 698.116 146.36 698.116 145.616C698.116 144.704 699.1 144.152 700.54 144.152C701.98 144.152 703.132 144.752 703.708 145.736L705.58 144.584C704.692 142.88 703.036 141.992 700.564 141.992C697.564 141.992 695.572 143.624 695.572 145.784ZM713.721 155.24C717.033 155.24 719.745 152.648 719.745 148.568C719.745 144.584 717.057 141.992 713.721 141.992C710.385 141.992 707.697 144.584 707.697 148.568C707.697 152.648 710.409 155.24 713.721 155.24ZM713.721 152.96C711.945 152.96 710.457 151.568 710.457 148.568C710.457 145.544 711.945 144.272 713.721 144.272C715.497 144.272 716.985 145.544 716.985 148.568C716.985 151.568 715.521 152.96 713.721 152.96ZM728.465 141.992C727.361 141.992 726.041 142.568 725.321 143.984V142.28H722.633V155H725.321V147.56C725.321 145.136 726.329 144.224 727.697 144.224C728.945 144.224 729.353 145.016 729.353 146.168V147.464L731.513 147.08V145.4C731.513 143.216 730.313 141.992 728.465 141.992ZM745.758 144.368V142.28H741.918V143.336C741.198 142.544 739.974 141.992 738.414 141.992C734.886 141.992 733.038 144.32 733.038 146.6C733.038 148.136 733.902 149.768 735.654 150.536C734.07 150.848 732.918 151.88 732.918 153.176C732.918 154.52 733.95 155.6 735.942 155.6H741.726C742.59 155.6 742.902 156.008 742.902 156.56C742.902 157.736 741.126 158.408 738.63 158.408C736.302 158.408 734.91 158 734.31 156.464L731.694 156.968C732.342 159.44 734.838 160.376 738.558 160.376C742.806 160.376 745.47 158.864 745.47 156.248C745.47 154.52 744.222 153.392 742.038 153.392H736.734C735.918 153.392 735.51 153.008 735.51 152.48C735.51 151.712 736.35 151.28 737.646 151.28H738.27C741.966 151.28 743.742 148.976 743.742 146.672C743.742 145.952 743.526 145.256 743.094 144.656V144.368H745.758ZM738.414 149.336C736.59 149.336 735.702 148.04 735.702 146.648C735.702 145.256 736.59 143.984 738.414 143.984C740.262 143.984 741.126 145.256 741.126 146.648C741.126 148.04 740.262 149.336 738.414 149.336Z" fill="#2A2859"/>
<path d="M563.612 178.68V184.692H556.844V178.68H555.584V192H556.844V185.88H563.612V192H564.872V178.68H563.612ZM574.527 189.3C574.077 190.236 573.231 191.064 571.791 191.064C569.955 191.064 568.749 189.984 568.641 187.446H575.319L575.355 186.384C575.355 183.792 573.591 182.316 571.539 182.316C569.055 182.316 567.399 184.314 567.399 187.104C567.399 190.146 568.983 192.144 571.665 192.144C573.789 192.144 574.977 190.956 575.427 189.804L574.527 189.3ZM571.539 183.396C572.943 183.396 574.203 184.296 574.149 186.438H568.641C568.803 184.17 570.099 183.396 571.539 183.396ZM580.931 191.964V190.884C580.751 190.938 580.553 190.956 580.355 190.956C579.599 190.956 579.167 190.542 579.167 189.732V178.68H577.943V189.732C577.943 191.136 578.645 192.072 580.139 192.072C580.409 192.072 580.643 192.036 580.931 191.964ZM582.695 184.944C582.695 186.222 583.613 187.104 585.359 187.464L586.907 187.788C588.167 188.058 588.671 188.544 588.671 189.444C588.671 190.416 587.699 191.064 586.223 191.064C584.819 191.064 583.829 190.524 583.379 189.516L582.335 189.948C582.983 191.388 584.333 192.144 586.259 192.144C588.383 192.144 589.859 190.992 589.859 189.336C589.859 187.914 588.887 187.014 586.799 186.6L585.539 186.348C584.405 186.114 583.883 185.628 583.883 184.836C583.883 183.954 584.747 183.396 586.079 183.396C587.303 183.396 588.185 183.882 588.563 184.8L589.571 184.404C589.175 183.144 587.843 182.316 586.115 182.316C584.117 182.316 582.695 183.432 582.695 184.944ZM598.785 189.3C598.335 190.236 597.489 191.064 596.049 191.064C594.213 191.064 593.007 189.984 592.899 187.446H599.577L599.613 186.384C599.613 183.792 597.849 182.316 595.797 182.316C593.313 182.316 591.657 184.314 591.657 187.104C591.657 190.146 593.241 192.144 595.923 192.144C598.047 192.144 599.235 190.956 599.685 189.804L598.785 189.3ZM595.797 183.396C597.201 183.396 598.461 184.296 598.407 186.438H592.899C593.061 184.17 594.357 183.396 595.797 183.396ZM606.232 182.316C605.08 182.316 604.036 182.892 603.46 183.936V178.68H602.236V192H603.46V186.636C603.46 184.728 604.234 183.432 605.908 183.432C607.24 183.432 608.032 184.08 608.032 185.808V192H609.256V185.628C609.256 183.486 608.14 182.316 606.232 182.316ZM612.742 180.732C613.336 180.732 613.822 180.264 613.822 179.652C613.822 179.04 613.336 178.572 612.742 178.572C612.148 178.572 611.662 179.04 611.662 179.652C611.662 180.264 612.148 180.732 612.742 180.732ZM611.302 195.906C612.652 195.906 613.354 195.078 613.354 193.458V182.46H612.13V193.386C612.13 194.214 611.968 194.79 611.122 194.79C610.96 194.79 610.726 194.772 610.474 194.682L610.366 195.762C610.672 195.852 610.978 195.906 611.302 195.906ZM622.972 189.3C622.522 190.236 621.676 191.064 620.236 191.064C618.4 191.064 617.194 189.984 617.086 187.446H623.764L623.8 186.384C623.8 183.792 622.036 182.316 619.984 182.316C617.5 182.316 615.844 184.314 615.844 187.104C615.844 190.146 617.428 192.144 620.11 192.144C622.234 192.144 623.422 190.956 623.872 189.804L622.972 189.3ZM619.984 183.396C621.388 183.396 622.648 184.296 622.594 186.438H617.086C617.248 184.17 618.544 183.396 619.984 183.396ZM629.376 191.964V190.884C629.196 190.938 628.998 190.956 628.8 190.956C628.044 190.956 627.612 190.542 627.612 189.732V178.68H626.388V189.732C626.388 191.136 627.09 192.072 628.584 192.072C628.854 192.072 629.088 192.036 629.376 191.964ZM635.965 182.334C634.723 182.334 633.463 183.018 632.833 184.242V182.46H631.609V195.78H632.833V190.272C633.409 191.478 634.489 192.144 635.821 192.144C638.377 192.144 640.033 190.074 640.033 187.14C640.033 184.368 638.395 182.334 635.965 182.334ZM635.821 191.064C633.913 191.064 632.833 189.66 632.833 187.176C632.833 184.836 633.931 183.414 635.839 183.414C637.603 183.414 638.773 184.782 638.773 187.194C638.773 189.696 637.603 191.064 635.821 191.064ZM643.001 189.84C642.335 189.84 641.849 190.326 641.849 190.956C641.849 191.658 642.353 192.072 643.001 192.072C643.145 192.072 643.271 192.054 643.361 192.036C643.505 193.296 642.695 194.052 641.849 194.808L642.281 195.312C643.847 194.088 644.333 192.9 644.333 191.712C644.333 190.488 643.757 189.84 643.001 189.84ZM657.623 192H659.171L654.941 186.456L659.099 182.46H657.479L652.943 186.942V178.68H651.719V192H652.943V188.382L654.113 187.266L657.623 192ZM664.143 192.144C666.501 192.144 668.391 190.2 668.391 187.212C668.391 184.26 666.519 182.316 664.143 182.316C661.767 182.316 659.895 184.26 659.895 187.212C659.895 190.2 661.785 192.144 664.143 192.144ZM664.143 191.064C662.505 191.064 661.155 189.768 661.155 187.212C661.155 184.674 662.523 183.396 664.143 183.396C665.763 183.396 667.131 184.674 667.131 187.212C667.131 189.768 665.781 191.064 664.143 191.064ZM674.298 182.316C673.452 182.316 672.606 182.748 672.102 183.648V182.46H670.878V192H672.102V186.132C672.102 184.206 672.93 183.396 674.028 183.396C675 183.396 675.324 184.026 675.324 184.98V185.916L676.44 185.7V184.764C676.44 183.144 675.54 182.316 674.298 182.316ZM681.95 192.144C684.308 192.144 686.198 190.2 686.198 187.212C686.198 184.26 684.326 182.316 681.95 182.316C679.574 182.316 677.702 184.26 677.702 187.212C677.702 190.2 679.592 192.144 681.95 192.144ZM681.95 191.064C680.312 191.064 678.962 189.768 678.962 187.212C678.962 184.674 680.33 183.396 681.95 183.396C683.57 183.396 684.938 184.674 684.938 187.212C684.938 189.768 683.588 191.064 681.95 191.064ZM692.681 182.316C691.529 182.316 690.485 182.892 689.909 183.936V182.46H688.685V192H689.909V186.636C689.909 184.728 690.683 183.432 692.357 183.432C693.689 183.432 694.481 184.08 694.481 185.808V192H695.705V185.628C695.705 183.486 694.589 182.316 692.681 182.316ZM705.762 192C705.546 191.352 705.366 190.38 705.366 189.3V185.376C705.366 183.738 704.376 182.316 702.018 182.316C700.344 182.316 698.886 183.072 698.166 185.088L699.246 185.412C699.75 183.954 700.758 183.432 701.946 183.432C703.422 183.432 704.178 184.278 704.178 185.52V186.78C703.404 186.51 702.648 186.42 701.874 186.42C699.912 186.42 698.148 187.446 698.148 189.408C698.148 191.046 699.426 192.144 701.118 192.144C702.666 192.144 703.908 191.244 704.394 190.128C704.394 190.848 704.502 191.478 704.646 192H705.762ZM704.178 188.04C704.178 190.362 702.576 191.1 701.334 191.1C700.182 191.1 699.372 190.488 699.372 189.336C699.372 188.076 700.506 187.428 701.946 187.428C702.684 187.428 703.44 187.518 704.178 187.824V188.04ZM714.193 182.46L711.205 190.65L708.217 182.46H706.885L710.629 192H711.709L715.453 182.46H714.193ZM716.995 178.752V180.588H718.867V178.752H716.995ZM717.319 192H718.543V182.46H717.319V192ZM725.064 182.316C724.218 182.316 723.372 182.748 722.868 183.648V182.46H721.644V192H722.868V186.132C722.868 184.206 723.696 183.396 724.794 183.396C725.766 183.396 726.09 184.026 726.09 184.98V185.916L727.206 185.7V184.764C727.206 183.144 726.306 182.316 725.064 182.316ZM734.992 182.46V187.824C734.992 189.696 734.272 191.046 732.58 191.046C731.248 191.046 730.456 190.326 730.456 188.76V182.46H729.232V188.868C729.232 190.938 730.366 192.144 732.238 192.144C733.408 192.144 734.416 191.568 734.992 190.542V192H736.216V182.46H734.992ZM738.771 184.944C738.771 186.222 739.689 187.104 741.435 187.464L742.983 187.788C744.243 188.058 744.747 188.544 744.747 189.444C744.747 190.416 743.775 191.064 742.299 191.064C740.895 191.064 739.905 190.524 739.455 189.516L738.411 189.948C739.059 191.388 740.409 192.144 742.335 192.144C744.459 192.144 745.935 190.992 745.935 189.336C745.935 187.914 744.963 187.014 742.875 186.6L741.615 186.348C740.481 186.114 739.959 185.628 739.959 184.836C739.959 183.954 740.823 183.396 742.155 183.396C743.379 183.396 744.261 183.882 744.639 184.8L745.647 184.404C745.251 183.144 743.919 182.316 742.191 182.316C740.193 182.316 738.771 183.432 738.771 184.944ZM748.997 189.84C748.331 189.84 747.845 190.326 747.845 190.956C747.845 191.658 748.349 192.072 748.997 192.072C749.141 192.072 749.267 192.054 749.357 192.036C749.501 193.296 748.691 194.052 747.845 194.808L748.277 195.312C749.843 194.088 750.329 192.9 750.329 191.712C750.329 190.488 749.753 189.84 748.997 189.84ZM762.071 182.334C760.829 182.334 759.569 183.018 758.939 184.242V178.68H757.715V192H758.939V190.272C759.515 191.478 760.595 192.144 761.927 192.144C764.483 192.144 766.139 190.074 766.139 187.14C766.139 184.368 764.501 182.334 762.071 182.334ZM761.927 191.064C760.019 191.064 758.939 189.66 758.939 187.176C758.939 184.836 760.037 183.414 761.945 183.414C763.709 183.414 764.879 184.782 764.879 187.194C764.879 189.696 763.709 191.064 761.927 191.064ZM775.74 192C775.524 191.352 775.344 190.38 775.344 189.3V185.376C775.344 183.738 774.354 182.316 771.996 182.316C770.322 182.316 768.864 183.072 768.144 185.088L769.224 185.412C769.728 183.954 770.736 183.432 771.924 183.432C773.4 183.432 774.156 184.278 774.156 185.52V186.78C773.382 186.51 772.626 186.42 771.852 186.42C769.89 186.42 768.126 187.446 768.126 189.408C768.126 191.046 769.404 192.144 771.096 192.144C772.644 192.144 773.886 191.244 774.372 190.128C774.372 190.848 774.48 191.478 774.624 192H775.74ZM774.156 188.04C774.156 190.362 772.554 191.1 771.312 191.1C770.16 191.1 769.35 190.488 769.35 189.336C769.35 188.076 770.484 187.428 771.924 187.428C772.662 187.428 773.418 187.518 774.156 187.824V188.04ZM781.859 182.316C781.013 182.316 780.167 182.748 779.663 183.648V182.46H778.439V192H779.663V186.132C779.663 184.206 780.491 183.396 781.589 183.396C782.561 183.396 782.885 184.026 782.885 184.98V185.916L784.001 185.7V184.764C784.001 183.144 783.101 182.316 781.859 182.316ZM790.415 182.316C789.263 182.316 788.219 182.892 787.643 183.936V182.46H786.419V192H787.643V186.636C787.643 184.728 788.417 183.432 790.091 183.432C791.423 183.432 792.215 184.08 792.215 185.808V192H793.439V185.628C793.439 183.486 792.323 182.316 790.415 182.316ZM802.902 189.3C802.452 190.236 801.606 191.064 800.166 191.064C798.33 191.064 797.124 189.984 797.016 187.446H803.694L803.73 186.384C803.73 183.792 801.966 182.316 799.914 182.316C797.43 182.316 795.774 184.314 795.774 187.104C795.774 190.146 797.358 192.144 800.04 192.144C802.164 192.144 803.352 190.956 803.802 189.804L802.902 189.3ZM799.914 183.396C801.318 183.396 802.578 184.296 802.524 186.438H797.016C797.178 184.17 798.474 183.396 799.914 183.396ZM812.226 182.46L809.238 190.65L806.25 182.46H804.918L808.662 192H809.742L813.486 182.46H812.226ZM821.517 189.3C821.067 190.236 820.221 191.064 818.781 191.064C816.945 191.064 815.739 189.984 815.631 187.446H822.309L822.345 186.384C822.345 183.792 820.581 182.316 818.529 182.316C816.045 182.316 814.389 184.314 814.389 187.104C814.389 190.146 815.973 192.144 818.655 192.144C820.779 192.144 821.967 190.956 822.417 189.804L821.517 189.3ZM818.529 183.396C819.933 183.396 821.193 184.296 821.139 186.438H815.631C815.793 184.17 817.089 183.396 818.529 183.396ZM828.353 182.316C827.507 182.316 826.661 182.748 826.157 183.648V182.46H824.933V192H826.157V186.132C826.157 184.206 826.985 183.396 828.083 183.396C829.055 183.396 829.379 184.026 829.379 184.98V185.916L830.495 185.7V184.764C830.495 183.144 829.595 182.316 828.353 182.316ZM836.909 182.316C835.757 182.316 834.713 182.892 834.137 183.936V182.46H832.913V192H834.137V186.636C834.137 184.728 834.911 183.432 836.585 183.432C837.917 183.432 838.709 184.08 838.709 185.808V192H839.933V185.628C839.933 183.486 838.817 182.316 836.909 182.316ZM843.708 189.84C843.042 189.84 842.556 190.326 842.556 190.956C842.556 191.658 843.06 192.072 843.708 192.072C843.852 192.072 843.978 192.054 844.068 192.036C844.212 193.296 843.402 194.052 842.556 194.808L842.988 195.312C844.554 194.088 845.04 192.9 845.04 191.712C845.04 190.488 844.464 189.84 843.708 189.84ZM559.904 209.334C558.662 209.334 557.402 210.018 556.772 211.242V209.46H555.548V222.78H556.772V217.272C557.348 218.478 558.428 219.144 559.76 219.144C562.316 219.144 563.972 217.074 563.972 214.14C563.972 211.368 562.334 209.334 559.904 209.334ZM559.76 218.064C557.852 218.064 556.772 216.66 556.772 214.176C556.772 211.836 557.87 210.414 559.778 210.414C561.542 210.414 562.712 211.782 562.712 214.194C562.712 216.696 561.542 218.064 559.76 218.064ZM565.996 211.944C565.996 213.222 566.914 214.104 568.66 214.464L570.208 214.788C571.468 215.058 571.972 215.544 571.972 216.444C571.972 217.416 571 218.064 569.524 218.064C568.12 218.064 567.13 217.524 566.68 216.516L565.636 216.948C566.284 218.388 567.634 219.144 569.56 219.144C571.684 219.144 573.16 217.992 573.16 216.336C573.16 214.914 572.188 214.014 570.1 213.6L568.84 213.348C567.706 213.114 567.184 212.628 567.184 211.836C567.184 210.954 568.048 210.396 569.38 210.396C570.604 210.396 571.486 210.882 571.864 211.8L572.872 211.404C572.476 210.144 571.144 209.316 569.416 209.316C567.418 209.316 565.996 210.432 565.996 211.944ZM581.167 209.46L578.179 217.722L575.299 209.46H573.967L577.549 219.162L576.991 220.512C576.523 221.61 576.055 221.898 575.389 221.898C574.975 221.898 574.633 221.754 574.273 221.43L573.733 222.312C574.183 222.726 574.777 222.96 575.425 222.96C576.901 222.96 577.603 221.934 578.233 220.314L582.427 209.46H581.167ZM590.351 219H591.899L587.669 213.456L591.827 209.46H590.207L585.671 213.942V205.68H584.447V219H585.671V215.382L586.841 214.266L590.351 219ZM594.392 207.732C594.986 207.732 595.472 207.264 595.472 206.652C595.472 206.04 594.986 205.572 594.392 205.572C593.798 205.572 593.312 206.04 593.312 206.652C593.312 207.264 593.798 207.732 594.392 207.732ZM593.78 219H595.004V209.46H593.78V219ZM597.637 211.944C597.637 213.222 598.555 214.104 600.301 214.464L601.849 214.788C603.109 215.058 603.613 215.544 603.613 216.444C603.613 217.416 602.641 218.064 601.165 218.064C599.761 218.064 598.771 217.524 598.321 216.516L597.277 216.948C597.925 218.388 599.275 219.144 601.201 219.144C603.325 219.144 604.801 217.992 604.801 216.336C604.801 214.914 603.829 214.014 601.741 213.6L600.481 213.348C599.347 213.114 598.825 212.628 598.825 211.836C598.825 210.954 599.689 210.396 601.021 210.396C602.245 210.396 603.127 210.882 603.505 211.8L604.513 211.404C604.117 210.144 602.785 209.316 601.057 209.316C599.059 209.316 597.637 210.432 597.637 211.944ZM613.15 219H614.698L610.468 213.456L614.626 209.46H613.006L608.47 213.942V205.68H607.246V219H608.47V215.382L609.64 214.266L613.15 219ZM625.393 209.316C624.241 209.316 623.197 209.892 622.621 210.936V205.68H621.397V219H622.621V213.636C622.621 211.728 623.395 210.432 625.069 210.432C626.401 210.432 627.193 211.08 627.193 212.808V219H628.417V212.628C628.417 210.486 627.301 209.316 625.393 209.316ZM637.878 216.3C637.428 217.236 636.582 218.064 635.142 218.064C633.306 218.064 632.1 216.984 631.992 214.446H638.67L638.706 213.384C638.706 210.792 636.942 209.316 634.89 209.316C632.406 209.316 630.75 211.314 630.75 214.104C630.75 217.146 632.334 219.144 635.016 219.144C637.14 219.144 638.328 217.956 638.778 216.804L637.878 216.3ZM634.89 210.396C636.294 210.396 637.554 211.296 637.5 213.438H631.992C632.154 211.17 633.45 210.396 634.89 210.396ZM644.282 218.964V217.884C644.102 217.938 643.904 217.956 643.706 217.956C642.95 217.956 642.518 217.542 642.518 216.732V205.68H641.294V216.732C641.294 218.136 641.996 219.072 643.49 219.072C643.76 219.072 643.994 219.036 644.282 218.964ZM646.047 211.944C646.047 213.222 646.965 214.104 648.711 214.464L650.259 214.788C651.519 215.058 652.023 215.544 652.023 216.444C652.023 217.416 651.051 218.064 649.575 218.064C648.171 218.064 647.181 217.524 646.731 216.516L645.687 216.948C646.335 218.388 647.685 219.144 649.611 219.144C651.735 219.144 653.211 217.992 653.211 216.336C653.211 214.914 652.239 214.014 650.151 213.6L648.891 213.348C647.757 213.114 647.235 212.628 647.235 211.836C647.235 210.954 648.099 210.396 649.431 210.396C650.655 210.396 651.537 210.882 651.915 211.8L652.923 211.404C652.527 210.144 651.195 209.316 649.467 209.316C647.469 209.316 646.047 210.432 646.047 211.944ZM662.136 216.3C661.686 217.236 660.84 218.064 659.4 218.064C657.564 218.064 656.358 216.984 656.25 214.446H662.928L662.964 213.384C662.964 210.792 661.2 209.316 659.148 209.316C656.664 209.316 655.008 211.314 655.008 214.104C655.008 217.146 656.592 219.144 659.274 219.144C661.398 219.144 662.586 217.956 663.036 216.804L662.136 216.3ZM659.148 210.396C660.552 210.396 661.812 211.296 661.758 213.438H656.25C656.412 211.17 657.708 210.396 659.148 210.396ZM666.204 216.84C665.538 216.84 665.052 217.326 665.052 217.956C665.052 218.658 665.556 219.072 666.204 219.072C666.348 219.072 666.474 219.054 666.564 219.036C666.708 220.296 665.898 221.052 665.052 221.808L665.484 222.312C667.05 221.088 667.536 219.9 667.536 218.712C667.536 217.488 666.96 216.84 666.204 216.84ZM683.454 210.468V209.46H680.718V210.126C680.142 209.64 679.386 209.316 678.396 209.316C675.876 209.316 674.598 211.098 674.598 212.808C674.598 213.978 675.3 215.31 676.56 215.814C675.39 216.12 674.688 216.858 674.688 217.704C674.688 218.694 675.48 219.324 676.812 219.324H680.916C681.78 219.324 682.068 219.72 682.068 220.26C682.068 221.412 680.412 222.006 678.432 222.006C676.83 222.006 675.426 221.7 674.76 220.134L673.77 220.584C674.346 222.258 676.02 223.032 678.432 223.032C681.114 223.032 683.292 222.042 683.292 220.152C683.292 218.964 682.5 218.208 680.952 218.208H677.082C676.29 218.208 675.912 217.866 675.912 217.38C675.912 216.75 676.686 216.336 677.766 216.336H678.18C680.862 216.336 682.122 214.554 682.122 212.808C682.122 212.106 681.87 211.386 681.402 210.81V210.468H683.454ZM678.378 215.328C676.668 215.328 675.804 214.14 675.804 212.808C675.804 211.494 676.668 210.36 678.378 210.36C680.07 210.36 680.916 211.476 680.916 212.808C680.916 214.158 680.07 215.328 678.378 215.328ZM688.782 209.316C687.936 209.316 687.09 209.748 686.586 210.648V209.46H685.362V219H686.586V213.132C686.586 211.206 687.414 210.396 688.512 210.396C689.484 210.396 689.808 211.026 689.808 211.98V212.916L690.924 212.7V211.764C690.924 210.144 690.024 209.316 688.782 209.316ZM699.908 219C699.692 218.352 699.512 217.38 699.512 216.3V212.376C699.512 210.738 698.522 209.316 696.164 209.316C694.49 209.316 693.032 210.072 692.312 212.088L693.392 212.412C693.896 210.954 694.904 210.432 696.092 210.432C697.568 210.432 698.324 211.278 698.324 212.52V213.78C697.55 213.51 696.794 213.42 696.02 213.42C694.058 213.42 692.294 214.446 692.294 216.408C692.294 218.046 693.572 219.144 695.264 219.144C696.812 219.144 698.054 218.244 698.54 217.128C698.54 217.848 698.648 218.478 698.792 219H699.908ZM698.324 215.04C698.324 217.362 696.722 218.1 695.48 218.1C694.328 218.1 693.518 217.488 693.518 216.336C693.518 215.076 694.652 214.428 696.092 214.428C696.83 214.428 697.586 214.518 698.324 214.824V215.04ZM708.339 209.46L705.351 217.65L702.363 209.46H701.031L704.775 219H705.855L709.599 209.46H708.339ZM715.822 209.334C714.58 209.334 713.32 210.018 712.69 211.242V209.46H711.466V222.78H712.69V217.272C713.266 218.478 714.346 219.144 715.678 219.144C718.234 219.144 719.89 217.074 719.89 214.14C719.89 211.368 718.252 209.334 715.822 209.334ZM715.678 218.064C713.77 218.064 712.69 216.66 712.69 214.176C712.69 211.836 713.788 210.414 715.696 210.414C717.46 210.414 718.63 211.782 718.63 214.194C718.63 216.696 717.46 218.064 715.678 218.064ZM725.37 218.964V217.884C725.19 217.938 724.992 217.956 724.794 217.956C724.038 217.956 723.606 217.542 723.606 216.732V205.68H722.382V216.732C722.382 218.136 723.084 219.072 724.578 219.072C724.848 219.072 725.082 219.036 725.37 218.964ZM734.713 219C734.497 218.352 734.317 217.38 734.317 216.3V212.376C734.317 210.738 733.327 209.316 730.969 209.316C729.295 209.316 727.837 210.072 727.117 212.088L728.197 212.412C728.701 210.954 729.709 210.432 730.897 210.432C732.373 210.432 733.129 211.278 733.129 212.52V213.78C732.355 213.51 731.599 213.42 730.825 213.42C728.863 213.42 727.099 214.446 727.099 216.408C727.099 218.046 728.377 219.144 730.069 219.144C731.617 219.144 732.859 218.244 733.345 217.128C733.345 217.848 733.453 218.478 733.597 219H734.713ZM733.129 215.04C733.129 217.362 731.527 218.1 730.285 218.1C729.133 218.1 728.323 217.488 728.323 216.336C728.323 215.076 729.457 214.428 730.897 214.428C731.635 214.428 732.391 214.518 733.129 214.824V215.04ZM736.943 211.944C736.943 213.222 737.861 214.104 739.607 214.464L741.155 214.788C742.415 215.058 742.919 215.544 742.919 216.444C742.919 217.416 741.947 218.064 740.471 218.064C739.067 218.064 738.077 217.524 737.627 216.516L736.583 216.948C737.231 218.388 738.581 219.144 740.507 219.144C742.631 219.144 744.107 217.992 744.107 216.336C744.107 214.914 743.135 214.014 741.047 213.6L739.787 213.348C738.653 213.114 738.131 212.628 738.131 211.836C738.131 210.954 738.995 210.396 740.327 210.396C741.551 210.396 742.433 210.882 742.811 211.8L743.819 211.404C743.423 210.144 742.091 209.316 740.363 209.316C738.365 209.316 736.943 210.432 736.943 211.944ZM746.049 211.944C746.049 213.222 746.967 214.104 748.713 214.464L750.261 214.788C751.521 215.058 752.025 215.544 752.025 216.444C752.025 217.416 751.053 218.064 749.577 218.064C748.173 218.064 747.183 217.524 746.733 216.516L745.689 216.948C746.337 218.388 747.687 219.144 749.613 219.144C751.737 219.144 753.213 217.992 753.213 216.336C753.213 214.914 752.241 214.014 750.153 213.6L748.893 213.348C747.759 213.114 747.237 212.628 747.237 211.836C747.237 210.954 748.101 210.396 749.433 210.396C750.657 210.396 751.539 210.882 751.917 211.8L752.925 211.404C752.529 210.144 751.197 209.316 749.469 209.316C747.471 209.316 746.049 210.432 746.049 211.944ZM755.374 216.984V219H757.318V216.984H755.374Z" fill="#2A2859"/>
<path d="M71 153V150H73V153H76V155H73V158H71V155H68V153H71Z" fill="#2A2859"/>
<path fill-rule="evenodd" clip-rule="evenodd" d="M76.41 145.096L74.941 146.565C77.903 147.738 80 150.621 80 154C80 158.418 76.418 162 72 162C68.621 162 65.738 159.903 64.564 156.941L63.499 158.006L50.59 145.097C48.92 143.427 48 141.207 48 138.844C48 136.481 48.92 134.261 50.59 132.59C52.261 130.92 54.481 130 56.844 130C59.206 130 61.427 130.92 63.097 132.59L63.5 132.993L63.903 132.59C65.573 130.92 67.794 130 70.156 130C72.519 130 74.74 130.92 76.41 132.59C78.08 134.26 79 136.481 79 138.843C79 141.205 78.08 143.426 76.41 145.096ZM63.5 155.182L64.033 154.649C64.016 154.435 64 154.219 64 154C64 149.582 67.582 146 72 146C72.219 146 72.435 146.016 72.649 146.033L74.997 143.685C77.671 141.011 77.671 136.677 74.997 134.003C73.66 132.666 71.908 131.998 70.156 131.998C68.404 131.998 66.652 132.666 65.315 134.003L63.5 135.818L61.685 134.003C60.348 132.666 58.596 131.998 56.844 131.998C55.092 131.998 53.34 132.666 52.003 134.003C49.329 136.677 49.329 141.011 52.003 143.685L63.5 155.182ZM66 154C66 157.308 68.692 160 72 160C75.308 160 78 157.308 78 154C78 150.692 75.308 148 72 148C68.692 148 66 150.692 66 154Z" fill="#2A2859"/>
<path d="M100.456 137.24V144.704H92.896V137.24H90.088V155H92.896V147.416H100.456V155H103.264V137.24H100.456ZM115.824 150.992C115.152 152.192 114.072 153.032 112.512 153.032C110.4 153.032 109.08 151.88 108.936 149.192H117.576L117.624 147.608C117.624 144.008 115.152 141.992 112.152 141.992C108.768 141.992 106.296 144.656 106.296 148.52C106.296 152.432 108.576 155.216 112.344 155.216C115.248 155.216 116.928 153.632 117.648 152.048L115.824 150.992ZM112.152 144.104C113.64 144.104 115.032 145.016 115.008 147.272H108.936C109.152 144.968 110.52 144.104 112.152 144.104ZM125.851 154.928V152.696C125.563 152.768 125.299 152.792 125.059 152.792C124.075 152.792 123.427 152.288 123.427 151.184V137.24H120.739V151.376C120.739 153.704 121.891 155.144 124.315 155.144C124.843 155.144 125.347 155.072 125.851 154.928ZM127.813 145.784C127.813 147.608 129.133 148.832 131.533 149.288L133.885 149.744C135.061 149.984 135.589 150.464 135.589 151.328C135.589 152.384 134.485 153.032 132.853 153.032C131.173 153.032 129.949 152.36 129.253 151.184L127.381 152.36C128.365 154.208 130.261 155.216 132.925 155.216C136.069 155.216 138.157 153.608 138.157 151.208C138.157 149.264 136.813 147.992 134.125 147.464L131.989 147.032C130.861 146.816 130.357 146.36 130.357 145.616C130.357 144.704 131.341 144.152 132.781 144.152C134.221 144.152 135.373 144.752 135.949 145.736L137.821 144.584C136.933 142.88 135.277 141.992 132.805 141.992C129.805 141.992 127.813 143.624 127.813 145.784ZM149.466 150.992C148.794 152.192 147.714 153.032 146.154 153.032C144.042 153.032 142.722 151.88 142.578 149.192H151.218L151.266 147.608C151.266 144.008 148.794 141.992 145.794 141.992C142.41 141.992 139.938 144.656 139.938 148.52C139.938 152.432 142.218 155.216 145.986 155.216C148.89 155.216 150.57 153.632 151.29 152.048L149.466 150.992ZM145.794 144.104C147.282 144.104 148.674 145.016 148.65 147.272H142.578C142.794 144.968 144.162 144.104 145.794 144.104ZM165.554 155.24C168.866 155.24 171.578 152.648 171.578 148.568C171.578 144.584 168.89 141.992 165.554 141.992C162.218 141.992 159.53 144.584 159.53 148.568C159.53 152.648 162.242 155.24 165.554 155.24ZM165.554 152.96C163.778 152.96 162.29 151.568 162.29 148.568C162.29 145.544 163.778 144.272 165.554 144.272C167.33 144.272 168.818 145.544 168.818 148.568C168.818 151.568 167.354 152.96 165.554 152.96ZM186.237 144.368V142.28H182.397V143.336C181.677 142.544 180.453 141.992 178.893 141.992C175.365 141.992 173.517 144.32 173.517 146.6C173.517 148.136 174.381 149.768 176.133 150.536C174.549 150.848 173.397 151.88 173.397 153.176C173.397 154.52 174.429 155.6 176.421 155.6H182.205C183.069 155.6 183.381 156.008 183.381 156.56C183.381 157.736 181.605 158.408 179.109 158.408C176.781 158.408 175.389 158 174.789 156.464L172.173 156.968C172.821 159.44 175.317 160.376 179.037 160.376C183.285 160.376 185.949 158.864 185.949 156.248C185.949 154.52 184.701 153.392 182.517 153.392H177.213C176.397 153.392 175.989 153.008 175.989 152.48C175.989 151.712 176.829 151.28 178.125 151.28H178.749C182.445 151.28 184.221 148.976 184.221 146.672C184.221 145.952 184.005 145.256 183.573 144.656V144.368H186.237ZM178.893 149.336C177.069 149.336 176.181 148.04 176.181 146.648C176.181 145.256 177.069 143.984 178.893 143.984C180.741 143.984 181.605 145.256 181.605 146.648C181.605 148.04 180.741 149.336 178.893 149.336ZM199.571 155.24C202.883 155.24 205.595 152.648 205.595 148.568C205.595 144.584 202.907 141.992 199.571 141.992C196.235 141.992 193.547 144.584 193.547 148.568C193.547 152.648 196.259 155.24 199.571 155.24ZM199.571 152.96C197.795 152.96 196.307 151.568 196.307 148.568C196.307 145.544 197.795 144.272 199.571 144.272C201.347 144.272 202.835 145.544 202.835 148.568C202.835 151.568 201.371 152.96 199.571 152.96ZM222.499 141.992C220.795 141.992 219.451 142.832 218.587 144.512C218.035 142.928 216.763 141.992 214.819 141.992C213.283 141.992 212.035 142.712 211.171 144.08V142.28H208.483V155H211.171V148.112C211.171 145.616 212.107 144.32 213.955 144.32C215.347 144.32 216.139 145.088 216.139 146.768V155H218.827V148.112C218.827 145.616 219.763 144.32 221.635 144.32C223.027 144.32 223.819 145.088 223.819 146.768V155H226.507V146.312C226.507 143.648 225.043 141.992 222.499 141.992ZM229.572 145.784C229.572 147.608 230.892 148.832 233.292 149.288L235.644 149.744C236.82 149.984 237.348 150.464 237.348 151.328C237.348 152.384 236.244 153.032 234.612 153.032C232.932 153.032 231.708 152.36 231.012 151.184L229.14 152.36C230.124 154.208 232.02 155.216 234.684 155.216C237.828 155.216 239.916 153.608 239.916 151.208C239.916 149.264 238.572 147.992 235.884 147.464L233.748 147.032C232.62 146.816 232.116 146.36 232.116 145.616C232.116 144.704 233.1 144.152 234.54 144.152C235.98 144.152 237.132 144.752 237.708 145.736L239.58 144.584C238.692 142.88 237.036 141.992 234.564 141.992C231.564 141.992 229.572 143.624 229.572 145.784ZM247.721 155.24C251.033 155.24 253.745 152.648 253.745 148.568C253.745 144.584 251.057 141.992 247.721 141.992C244.385 141.992 241.697 144.584 241.697 148.568C241.697 152.648 244.409 155.24 247.721 155.24ZM247.721 152.96C245.945 152.96 244.457 151.568 244.457 148.568C244.457 145.544 245.945 144.272 247.721 144.272C249.497 144.272 250.985 145.544 250.985 148.568C250.985 151.568 249.521 152.96 247.721 152.96ZM262.465 141.992C261.361 141.992 260.041 142.568 259.321 143.984V142.28H256.633V155H259.321V147.56C259.321 145.136 260.329 144.224 261.697 144.224C262.945 144.224 263.353 145.016 263.353 146.168V147.464L265.513 147.08V145.4C265.513 143.216 264.313 141.992 262.465 141.992ZM279.758 144.368V142.28H275.918V143.336C275.198 142.544 273.974 141.992 272.414 141.992C268.886 141.992 267.038 144.32 267.038 146.6C267.038 148.136 267.902 149.768 269.654 150.536C268.07 150.848 266.918 151.88 266.918 153.176C266.918 154.52 267.95 155.6 269.942 155.6H275.726C276.59 155.6 276.902 156.008 276.902 156.56C276.902 157.736 275.126 158.408 272.63 158.408C270.302 158.408 268.91 158 268.31 156.464L265.694 156.968C266.342 159.44 268.838 160.376 272.558 160.376C276.806 160.376 279.47 158.864 279.47 156.248C279.47 154.52 278.222 153.392 276.038 153.392H270.734C269.918 153.392 269.51 153.008 269.51 152.48C269.51 151.712 270.35 151.28 271.646 151.28H272.27C275.966 151.28 277.742 148.976 277.742 146.672C277.742 145.952 277.526 145.256 277.094 144.656V144.368H279.758ZM272.414 149.336C270.59 149.336 269.702 148.04 269.702 146.648C269.702 145.256 270.59 143.984 272.414 143.984C274.262 143.984 275.126 145.256 275.126 146.648C275.126 148.04 274.262 149.336 272.414 149.336Z" fill="#2A2859"/>
<path d="M97.612 178.68V184.692H90.844V178.68H89.584V192H90.844V185.88H97.612V192H98.872V178.68H97.612ZM108.527 189.3C108.077 190.236 107.231 191.064 105.791 191.064C103.955 191.064 102.749 189.984 102.641 187.446H109.319L109.355 186.384C109.355 183.792 107.591 182.316 105.539 182.316C103.055 182.316 101.399 184.314 101.399 187.104C101.399 190.146 102.983 192.144 105.665 192.144C107.789 192.144 108.977 190.956 109.427 189.804L108.527 189.3ZM105.539 183.396C106.943 183.396 108.203 184.296 108.149 186.438H102.641C102.803 184.17 104.099 183.396 105.539 183.396ZM114.931 191.964V190.884C114.751 190.938 114.553 190.956 114.355 190.956C113.599 190.956 113.167 190.542 113.167 189.732V178.68H111.943V189.732C111.943 191.136 112.645 192.072 114.139 192.072C114.409 192.072 114.643 192.036 114.931 191.964ZM116.695 184.944C116.695 186.222 117.613 187.104 119.359 187.464L120.907 187.788C122.167 188.058 122.671 188.544 122.671 189.444C122.671 190.416 121.699 191.064 120.223 191.064C118.819 191.064 117.829 190.524 117.379 189.516L116.335 189.948C116.983 191.388 118.333 192.144 120.259 192.144C122.383 192.144 123.859 190.992 123.859 189.336C123.859 187.914 122.887 187.014 120.799 186.6L119.539 186.348C118.405 186.114 117.883 185.628 117.883 184.836C117.883 183.954 118.747 183.396 120.079 183.396C121.303 183.396 122.185 183.882 122.563 184.8L123.571 184.404C123.175 183.144 121.843 182.316 120.115 182.316C118.117 182.316 116.695 183.432 116.695 184.944ZM132.785 189.3C132.335 190.236 131.489 191.064 130.049 191.064C128.213 191.064 127.007 189.984 126.899 187.446H133.577L133.613 186.384C133.613 183.792 131.849 182.316 129.797 182.316C127.313 182.316 125.657 184.314 125.657 187.104C125.657 190.146 127.241 192.144 129.923 192.144C132.047 192.144 133.235 190.956 133.685 189.804L132.785 189.3ZM129.797 183.396C131.201 183.396 132.461 184.296 132.407 186.438H126.899C127.061 184.17 128.357 183.396 129.797 183.396ZM140.232 182.316C139.08 182.316 138.036 182.892 137.46 183.936V178.68H136.236V192H137.46V186.636C137.46 184.728 138.234 183.432 139.908 183.432C141.24 183.432 142.032 184.08 142.032 185.808V192H143.256V185.628C143.256 183.486 142.14 182.316 140.232 182.316ZM146.742 180.732C147.336 180.732 147.822 180.264 147.822 179.652C147.822 179.04 147.336 178.572 146.742 178.572C146.148 178.572 145.662 179.04 145.662 179.652C145.662 180.264 146.148 180.732 146.742 180.732ZM145.302 195.906C146.652 195.906 147.354 195.078 147.354 193.458V182.46H146.13V193.386C146.13 194.214 145.968 194.79 145.122 194.79C144.96 194.79 144.726 194.772 144.474 194.682L144.366 195.762C144.672 195.852 144.978 195.906 145.302 195.906ZM156.972 189.3C156.522 190.236 155.676 191.064 154.236 191.064C152.4 191.064 151.194 189.984 151.086 187.446H157.764L157.8 186.384C157.8 183.792 156.036 182.316 153.984 182.316C151.5 182.316 149.844 184.314 149.844 187.104C149.844 190.146 151.428 192.144 154.11 192.144C156.234 192.144 157.422 190.956 157.872 189.804L156.972 189.3ZM153.984 183.396C155.388 183.396 156.648 184.296 156.594 186.438H151.086C151.248 184.17 152.544 183.396 153.984 183.396ZM163.376 191.964V190.884C163.196 190.938 162.998 190.956 162.8 190.956C162.044 190.956 161.612 190.542 161.612 189.732V178.68H160.388V189.732C160.388 191.136 161.09 192.072 162.584 192.072C162.854 192.072 163.088 192.036 163.376 191.964ZM169.965 182.334C168.723 182.334 167.463 183.018 166.833 184.242V182.46H165.609V195.78H166.833V190.272C167.409 191.478 168.489 192.144 169.821 192.144C172.377 192.144 174.033 190.074 174.033 187.14C174.033 184.368 172.395 182.334 169.965 182.334ZM169.821 191.064C167.913 191.064 166.833 189.66 166.833 187.176C166.833 184.836 167.931 183.414 169.839 183.414C171.603 183.414 172.773 184.782 172.773 187.194C172.773 189.696 171.603 191.064 169.821 191.064ZM177.001 189.84C176.335 189.84 175.849 190.326 175.849 190.956C175.849 191.658 176.353 192.072 177.001 192.072C177.145 192.072 177.271 192.054 177.361 192.036C177.505 193.296 176.695 194.052 175.849 194.808L176.281 195.312C177.847 194.088 178.333 192.9 178.333 191.712C178.333 190.488 177.757 189.84 177.001 189.84ZM191.623 192H193.171L188.941 186.456L193.099 182.46H191.479L186.943 186.942V178.68H185.719V192H186.943V188.382L188.113 187.266L191.623 192ZM198.143 192.144C200.501 192.144 202.391 190.2 202.391 187.212C202.391 184.26 200.519 182.316 198.143 182.316C195.767 182.316 193.895 184.26 193.895 187.212C193.895 190.2 195.785 192.144 198.143 192.144ZM198.143 191.064C196.505 191.064 195.155 189.768 195.155 187.212C195.155 184.674 196.523 183.396 198.143 183.396C199.763 183.396 201.131 184.674 201.131 187.212C201.131 189.768 199.781 191.064 198.143 191.064ZM208.298 182.316C207.452 182.316 206.606 182.748 206.102 183.648V182.46H204.878V192H206.102V186.132C206.102 184.206 206.93 183.396 208.028 183.396C209 183.396 209.324 184.026 209.324 184.98V185.916L210.44 185.7V184.764C210.44 183.144 209.54 182.316 208.298 182.316ZM215.95 192.144C218.308 192.144 220.198 190.2 220.198 187.212C220.198 184.26 218.326 182.316 215.95 182.316C213.574 182.316 211.702 184.26 211.702 187.212C211.702 190.2 213.592 192.144 215.95 192.144ZM215.95 191.064C214.312 191.064 212.962 189.768 212.962 187.212C212.962 184.674 214.33 183.396 215.95 183.396C217.57 183.396 218.938 184.674 218.938 187.212C218.938 189.768 217.588 191.064 215.95 191.064ZM226.681 182.316C225.529 182.316 224.485 182.892 223.909 183.936V182.46H222.685V192H223.909V186.636C223.909 184.728 224.683 183.432 226.357 183.432C227.689 183.432 228.481 184.08 228.481 185.808V192H229.705V185.628C229.705 183.486 228.589 182.316 226.681 182.316ZM239.762 192C239.546 191.352 239.366 190.38 239.366 189.3V185.376C239.366 183.738 238.376 182.316 236.018 182.316C234.344 182.316 232.886 183.072 232.166 185.088L233.246 185.412C233.75 183.954 234.758 183.432 235.946 183.432C237.422 183.432 238.178 184.278 238.178 185.52V186.78C237.404 186.51 236.648 186.42 235.874 186.42C233.912 186.42 232.148 187.446 232.148 189.408C232.148 191.046 233.426 192.144 235.118 192.144C236.666 192.144 237.908 191.244 238.394 190.128C238.394 190.848 238.502 191.478 238.646 192H239.762ZM238.178 188.04C238.178 190.362 236.576 191.1 235.334 191.1C234.182 191.1 233.372 190.488 233.372 189.336C233.372 188.076 234.506 187.428 235.946 187.428C236.684 187.428 237.44 187.518 238.178 187.824V188.04ZM248.193 182.46L245.205 190.65L242.217 182.46H240.885L244.629 192H245.709L249.453 182.46H248.193ZM250.995 178.752V180.588H252.867V178.752H250.995ZM251.319 192H252.543V182.46H251.319V192ZM259.064 182.316C258.218 182.316 257.372 182.748 256.868 183.648V182.46H255.644V192H256.868V186.132C256.868 184.206 257.696 183.396 258.794 183.396C259.766 183.396 260.09 184.026 260.09 184.98V185.916L261.206 185.7V184.764C261.206 183.144 260.306 182.316 259.064 182.316ZM268.992 182.46V187.824C268.992 189.696 268.272 191.046 266.58 191.046C265.248 191.046 264.456 190.326 264.456 188.76V182.46H263.232V188.868C263.232 190.938 264.366 192.144 266.238 192.144C267.408 192.144 268.416 191.568 268.992 190.542V192H270.216V182.46H268.992ZM272.771 184.944C272.771 186.222 273.689 187.104 275.435 187.464L276.983 187.788C278.243 188.058 278.747 188.544 278.747 189.444C278.747 190.416 277.775 191.064 276.299 191.064C274.895 191.064 273.905 190.524 273.455 189.516L272.411 189.948C273.059 191.388 274.409 192.144 276.335 192.144C278.459 192.144 279.935 190.992 279.935 189.336C279.935 187.914 278.963 187.014 276.875 186.6L275.615 186.348C274.481 186.114 273.959 185.628 273.959 184.836C273.959 183.954 274.823 183.396 276.155 183.396C277.379 183.396 278.261 183.882 278.639 184.8L279.647 184.404C279.251 183.144 277.919 182.316 276.191 182.316C274.193 182.316 272.771 183.432 272.771 184.944ZM282.997 189.84C282.331 189.84 281.845 190.326 281.845 190.956C281.845 191.658 282.349 192.072 282.997 192.072C283.141 192.072 283.267 192.054 283.357 192.036C283.501 193.296 282.691 194.052 281.845 194.808L282.277 195.312C283.843 194.088 284.329 192.9 284.329 191.712C284.329 190.488 283.753 189.84 282.997 189.84ZM296.071 182.334C294.829 182.334 293.569 183.018 292.939 184.242V178.68H291.715V192H292.939V190.272C293.515 191.478 294.595 192.144 295.927 192.144C298.483 192.144 300.139 190.074 300.139 187.14C300.139 184.368 298.501 182.334 296.071 182.334ZM295.927 191.064C294.019 191.064 292.939 189.66 292.939 187.176C292.939 184.836 294.037 183.414 295.945 183.414C297.709 183.414 298.879 184.782 298.879 187.194C298.879 189.696 297.709 191.064 295.927 191.064ZM309.74 192C309.524 191.352 309.344 190.38 309.344 189.3V185.376C309.344 183.738 308.354 182.316 305.996 182.316C304.322 182.316 302.864 183.072 302.144 185.088L303.224 185.412C303.728 183.954 304.736 183.432 305.924 183.432C307.4 183.432 308.156 184.278 308.156 185.52V186.78C307.382 186.51 306.626 186.42 305.852 186.42C303.89 186.42 302.126 187.446 302.126 189.408C302.126 191.046 303.404 192.144 305.096 192.144C306.644 192.144 307.886 191.244 308.372 190.128C308.372 190.848 308.48 191.478 308.624 192H309.74ZM308.156 188.04C308.156 190.362 306.554 191.1 305.312 191.1C304.16 191.1 303.35 190.488 303.35 189.336C303.35 188.076 304.484 187.428 305.924 187.428C306.662 187.428 307.418 187.518 308.156 187.824V188.04ZM315.859 182.316C315.013 182.316 314.167 182.748 313.663 183.648V182.46H312.439V192H313.663V186.132C313.663 184.206 314.491 183.396 315.589 183.396C316.561 183.396 316.885 184.026 316.885 184.98V185.916L318.001 185.7V184.764C318.001 183.144 317.101 182.316 315.859 182.316ZM324.415 182.316C323.263 182.316 322.219 182.892 321.643 183.936V182.46H320.419V192H321.643V186.636C321.643 184.728 322.417 183.432 324.091 183.432C325.423 183.432 326.215 184.08 326.215 185.808V192H327.439V185.628C327.439 183.486 326.323 182.316 324.415 182.316ZM336.902 189.3C336.452 190.236 335.606 191.064 334.166 191.064C332.33 191.064 331.124 189.984 331.016 187.446H337.694L337.73 186.384C337.73 183.792 335.966 182.316 333.914 182.316C331.43 182.316 329.774 184.314 329.774 187.104C329.774 190.146 331.358 192.144 334.04 192.144C336.164 192.144 337.352 190.956 337.802 189.804L336.902 189.3ZM333.914 183.396C335.318 183.396 336.578 184.296 336.524 186.438H331.016C331.178 184.17 332.474 183.396 333.914 183.396ZM346.226 182.46L343.238 190.65L340.25 182.46H338.918L342.662 192H343.742L347.486 182.46H346.226ZM355.517 189.3C355.067 190.236 354.221 191.064 352.781 191.064C350.945 191.064 349.739 189.984 349.631 187.446H356.309L356.345 186.384C356.345 183.792 354.581 182.316 352.529 182.316C350.045 182.316 348.389 184.314 348.389 187.104C348.389 190.146 349.973 192.144 352.655 192.144C354.779 192.144 355.967 190.956 356.417 189.804L355.517 189.3ZM352.529 183.396C353.933 183.396 355.193 184.296 355.139 186.438H349.631C349.793 184.17 351.089 183.396 352.529 183.396ZM362.353 182.316C361.507 182.316 360.661 182.748 360.157 183.648V182.46H358.933V192H360.157V186.132C360.157 184.206 360.985 183.396 362.083 183.396C363.055 183.396 363.379 184.026 363.379 184.98V185.916L364.495 185.7V184.764C364.495 183.144 363.595 182.316 362.353 182.316ZM370.909 182.316C369.757 182.316 368.713 182.892 368.137 183.936V182.46H366.913V192H368.137V186.636C368.137 184.728 368.911 183.432 370.585 183.432C371.917 183.432 372.709 184.08 372.709 185.808V192H373.933V185.628C373.933 183.486 372.817 182.316 370.909 182.316ZM377.708 189.84C377.042 189.84 376.556 190.326 376.556 190.956C376.556 191.658 377.06 192.072 377.708 192.072C377.852 192.072 377.978 192.054 378.068 192.036C378.212 193.296 377.402 194.052 376.556 194.808L376.988 195.312C378.554 194.088 379.04 192.9 379.04 191.712C379.04 190.488 378.464 189.84 377.708 189.84ZM93.904 209.334C92.662 209.334 91.402 210.018 90.772 211.242V209.46H89.548V222.78H90.772V217.272C91.348 218.478 92.428 219.144 93.76 219.144C96.316 219.144 97.972 217.074 97.972 214.14C97.972 211.368 96.334 209.334 93.904 209.334ZM93.76 218.064C91.852 218.064 90.772 216.66 90.772 214.176C90.772 211.836 91.87 210.414 93.778 210.414C95.542 210.414 96.712 211.782 96.712 214.194C96.712 216.696 95.542 218.064 93.76 218.064ZM99.996 211.944C99.996 213.222 100.914 214.104 102.66 214.464L104.208 214.788C105.468 215.058 105.972 215.544 105.972 216.444C105.972 217.416 105 218.064 103.524 218.064C102.12 218.064 101.13 217.524 100.68 216.516L99.636 216.948C100.284 218.388 101.634 219.144 103.56 219.144C105.684 219.144 107.16 217.992 107.16 216.336C107.16 214.914 106.188 214.014 104.1 213.6L102.84 213.348C101.706 213.114 101.184 212.628 101.184 211.836C101.184 210.954 102.048 210.396 103.38 210.396C104.604 210.396 105.486 210.882 105.864 211.8L106.872 211.404C106.476 210.144 105.144 209.316 103.416 209.316C101.418 209.316 99.996 210.432 99.996 211.944ZM115.167 209.46L112.179 217.722L109.299 209.46H107.967L111.549 219.162L110.991 220.512C110.523 221.61 110.055 221.898 109.389 221.898C108.975 221.898 108.633 221.754 108.273 221.43L107.733 222.312C108.183 222.726 108.777 222.96 109.425 222.96C110.901 222.96 111.603 221.934 112.233 220.314L116.427 209.46H115.167ZM124.351 219H125.899L121.669 213.456L125.827 209.46H124.207L119.671 213.942V205.68H118.447V219H119.671V215.382L120.841 214.266L124.351 219ZM128.392 207.732C128.986 207.732 129.472 207.264 129.472 206.652C129.472 206.04 128.986 205.572 128.392 205.572C127.798 205.572 127.312 206.04 127.312 206.652C127.312 207.264 127.798 207.732 128.392 207.732ZM127.78 219H129.004V209.46H127.78V219ZM131.637 211.944C131.637 213.222 132.555 214.104 134.301 214.464L135.849 214.788C137.109 215.058 137.613 215.544 137.613 216.444C137.613 217.416 136.641 218.064 135.165 218.064C133.761 218.064 132.771 217.524 132.321 216.516L131.277 216.948C131.925 218.388 133.275 219.144 135.201 219.144C137.325 219.144 138.801 217.992 138.801 216.336C138.801 214.914 137.829 214.014 135.741 213.6L134.481 213.348C133.347 213.114 132.825 212.628 132.825 211.836C132.825 210.954 133.689 210.396 135.021 210.396C136.245 210.396 137.127 210.882 137.505 211.8L138.513 211.404C138.117 210.144 136.785 209.316 135.057 209.316C133.059 209.316 131.637 210.432 131.637 211.944ZM147.15 219H148.698L144.468 213.456L148.626 209.46H147.006L142.47 213.942V205.68H141.246V219H142.47V215.382L143.64 214.266L147.15 219ZM159.393 209.316C158.241 209.316 157.197 209.892 156.621 210.936V205.68H155.397V219H156.621V213.636C156.621 211.728 157.395 210.432 159.069 210.432C160.401 210.432 161.193 211.08 161.193 212.808V219H162.417V212.628C162.417 210.486 161.301 209.316 159.393 209.316ZM171.878 216.3C171.428 217.236 170.582 218.064 169.142 218.064C167.306 218.064 166.1 216.984 165.992 214.446H172.67L172.706 213.384C172.706 210.792 170.942 209.316 168.89 209.316C166.406 209.316 164.75 211.314 164.75 214.104C164.75 217.146 166.334 219.144 169.016 219.144C171.14 219.144 172.328 217.956 172.778 216.804L171.878 216.3ZM168.89 210.396C170.294 210.396 171.554 211.296 171.5 213.438H165.992C166.154 211.17 167.45 210.396 168.89 210.396ZM178.282 218.964V217.884C178.102 217.938 177.904 217.956 177.706 217.956C176.95 217.956 176.518 217.542 176.518 216.732V205.68H175.294V216.732C175.294 218.136 175.996 219.072 177.49 219.072C177.76 219.072 177.994 219.036 178.282 218.964ZM180.047 211.944C180.047 213.222 180.965 214.104 182.711 214.464L184.259 214.788C185.519 215.058 186.023 215.544 186.023 216.444C186.023 217.416 185.051 218.064 183.575 218.064C182.171 218.064 181.181 217.524 180.731 216.516L179.687 216.948C180.335 218.388 181.685 219.144 183.611 219.144C185.735 219.144 187.211 217.992 187.211 216.336C187.211 214.914 186.239 214.014 184.151 213.6L182.891 213.348C181.757 213.114 181.235 212.628 181.235 211.836C181.235 210.954 182.099 210.396 183.431 210.396C184.655 210.396 185.537 210.882 185.915 211.8L186.923 211.404C186.527 210.144 185.195 209.316 183.467 209.316C181.469 209.316 180.047 210.432 180.047 211.944ZM196.136 216.3C195.686 217.236 194.84 218.064 193.4 218.064C191.564 218.064 190.358 216.984 190.25 214.446H196.928L196.964 213.384C196.964 210.792 195.2 209.316 193.148 209.316C190.664 209.316 189.008 211.314 189.008 214.104C189.008 217.146 190.592 219.144 193.274 219.144C195.398 219.144 196.586 217.956 197.036 216.804L196.136 216.3ZM193.148 210.396C194.552 210.396 195.812 211.296 195.758 213.438H190.25C190.412 211.17 191.708 210.396 193.148 210.396ZM200.204 216.84C199.538 216.84 199.052 217.326 199.052 217.956C199.052 218.658 199.556 219.072 200.204 219.072C200.348 219.072 200.474 219.054 200.564 219.036C200.708 220.296 199.898 221.052 199.052 221.808L199.484 222.312C201.05 221.088 201.536 219.9 201.536 218.712C201.536 217.488 200.96 216.84 200.204 216.84ZM217.454 210.468V209.46H214.718V210.126C214.142 209.64 213.386 209.316 212.396 209.316C209.876 209.316 208.598 211.098 208.598 212.808C208.598 213.978 209.3 215.31 210.56 215.814C209.39 216.12 208.688 216.858 208.688 217.704C208.688 218.694 209.48 219.324 210.812 219.324H214.916C215.78 219.324 216.068 219.72 216.068 220.26C216.068 221.412 214.412 222.006 212.432 222.006C210.83 222.006 209.426 221.7 208.76 220.134L207.77 220.584C208.346 222.258 210.02 223.032 212.432 223.032C215.114 223.032 217.292 222.042 217.292 220.152C217.292 218.964 216.5 218.208 214.952 218.208H211.082C210.29 218.208 209.912 217.866 209.912 217.38C209.912 216.75 210.686 216.336 211.766 216.336H212.18C214.862 216.336 216.122 214.554 216.122 212.808C216.122 212.106 215.87 211.386 215.402 210.81V210.468H217.454ZM212.378 215.328C210.668 215.328 209.804 214.14 209.804 212.808C209.804 211.494 210.668 210.36 212.378 210.36C214.07 210.36 214.916 211.476 214.916 212.808C214.916 214.158 214.07 215.328 212.378 215.328ZM222.782 209.316C221.936 209.316 221.09 209.748 220.586 210.648V209.46H219.362V219H220.586V213.132C220.586 211.206 221.414 210.396 222.512 210.396C223.484 210.396 223.808 211.026 223.808 211.98V212.916L224.924 212.7V211.764C224.924 210.144 224.024 209.316 222.782 209.316ZM233.908 219C233.692 218.352 233.512 217.38 233.512 216.3V212.376C233.512 210.738 232.522 209.316 230.164 209.316C228.49 209.316 227.032 210.072 226.312 212.088L227.392 212.412C227.896 210.954 228.904 210.432 230.092 210.432C231.568 210.432 232.324 211.278 232.324 212.52V213.78C231.55 213.51 230.794 213.42 230.02 213.42C228.058 213.42 226.294 214.446 226.294 216.408C226.294 218.046 227.572 219.144 229.264 219.144C230.812 219.144 232.054 218.244 232.54 217.128C232.54 217.848 232.648 218.478 232.792 219H233.908ZM232.324 215.04C232.324 217.362 230.722 218.1 229.48 218.1C228.328 218.1 227.518 217.488 227.518 216.336C227.518 215.076 228.652 214.428 230.092 214.428C230.83 214.428 231.586 214.518 232.324 214.824V215.04ZM242.339 209.46L239.351 217.65L236.363 209.46H235.031L238.775 219H239.855L243.599 209.46H242.339ZM249.822 209.334C248.58 209.334 247.32 210.018 246.69 211.242V209.46H245.466V222.78H246.69V217.272C247.266 218.478 248.346 219.144 249.678 219.144C252.234 219.144 253.89 217.074 253.89 214.14C253.89 211.368 252.252 209.334 249.822 209.334ZM249.678 218.064C247.77 218.064 246.69 216.66 246.69 214.176C246.69 211.836 247.788 210.414 249.696 210.414C251.46 210.414 252.63 211.782 252.63 214.194C252.63 216.696 251.46 218.064 249.678 218.064ZM259.37 218.964V217.884C259.19 217.938 258.992 217.956 258.794 217.956C258.038 217.956 257.606 217.542 257.606 216.732V205.68H256.382V216.732C256.382 218.136 257.084 219.072 258.578 219.072C258.848 219.072 259.082 219.036 259.37 218.964ZM268.713 219C268.497 218.352 268.317 217.38 268.317 216.3V212.376C268.317 210.738 267.327 209.316 264.969 209.316C263.295 209.316 261.837 210.072 261.117 212.088L262.197 212.412C262.701 210.954 263.709 210.432 264.897 210.432C266.373 210.432 267.129 211.278 267.129 212.52V213.78C266.355 213.51 265.599 213.42 264.825 213.42C262.863 213.42 261.099 214.446 261.099 216.408C261.099 218.046 262.377 219.144 264.069 219.144C265.617 219.144 266.859 218.244 267.345 217.128C267.345 217.848 267.453 218.478 267.597 219H268.713ZM267.129 215.04C267.129 217.362 265.527 218.1 264.285 218.1C263.133 218.1 262.323 217.488 262.323 216.336C262.323 215.076 263.457 214.428 264.897 214.428C265.635 214.428 266.391 214.518 267.129 214.824V215.04ZM270.943 211.944C270.943 213.222 271.861 214.104 273.607 214.464L275.155 214.788C276.415 215.058 276.919 215.544 276.919 216.444C276.919 217.416 275.947 218.064 274.471 218.064C273.067 218.064 272.077 217.524 271.627 216.516L270.583 216.948C271.231 218.388 272.581 219.144 274.507 219.144C276.631 219.144 278.107 217.992 278.107 216.336C278.107 214.914 277.135 214.014 275.047 213.6L273.787 213.348C272.653 213.114 272.131 212.628 272.131 211.836C272.131 210.954 272.995 210.396 274.327 210.396C275.551 210.396 276.433 210.882 276.811 211.8L277.819 211.404C277.423 210.144 276.091 209.316 274.363 209.316C272.365 209.316 270.943 210.432 270.943 211.944ZM280.049 211.944C280.049 213.222 280.967 214.104 282.713 214.464L284.261 214.788C285.521 215.058 286.025 215.544 286.025 216.444C286.025 217.416 285.053 218.064 283.577 218.064C282.173 218.064 281.183 217.524 280.733 216.516L279.689 216.948C280.337 218.388 281.687 219.144 283.613 219.144C285.737 219.144 287.213 217.992 287.213 216.336C287.213 214.914 286.241 214.014 284.153 213.6L282.893 213.348C281.759 213.114 281.237 212.628 281.237 211.836C281.237 210.954 282.101 210.396 283.433 210.396C284.657 210.396 285.539 210.882 285.917 211.8L286.925 211.404C286.529 210.144 285.197 209.316 283.469 209.316C281.471 209.316 280.049 210.432 280.049 211.944ZM289.374 216.984V219H291.318V216.984H289.374Z" fill="#2A2859"/>
</g>
<defs>
<clipPath id="clip0_4799_152452">
<rect width="922" height="301" fill="white"/>
</clipPath>
</defs>
</svg>
