<svg width="922" height="301" viewBox="0 0 922 301" fill="none" xmlns="http://www.w3.org/2000/svg">
<g clip-path="url(#clip0_4799_152453)">
<rect width="922" height="301" fill="white"/>
<mask id="path-1-inside-1_4799_152453" fill="white">
<path d="M0 55H456V301H0V55Z"/>
</mask>
<path d="M0 55H456V301H0V55Z" fill="white"/>
<path d="M456 301V302H457V301H456ZM0 301H-1V302H0V301ZM455 55V301H457V55H455ZM456 300H0V302H456V300ZM1 301V55H-1V301H1Z" fill="#E6E6E6" mask="url(#path-1-inside-1_4799_152453)"/>
<mask id="path-3-inside-2_4799_152453" fill="white">
<path d="M465 55H922V301H465V55Z"/>
</mask>
<path d="M465 55H922V301H465V55Z" fill="white"/>
<path d="M922 301V302H923V301H922ZM465 301H464V302H465V301ZM921 55V301H923V55H921ZM922 300H465V302H922V300ZM466 301V55H464V301H466Z" fill="#E6E6E6" mask="url(#path-3-inside-2_4799_152453)"/>
<rect x="0.5" y="0.5" width="454.316" height="53.97" stroke="#E6E6E6"/>
<rect x="465.693" y="0.5" width="455.304" height="53.97" stroke="#E6E6E6"/>
<path d="M0 43.9761H455.316V54.9701H0V43.9761Z" fill="#C7F6C9"/>
<path opacity="0.6" d="M465.193 43.9761H921.497V54.9701H465.193V43.9761Z" fill="#FF8274"/>
<path d="M20.2116 28.144C21.7956 28.144 23.3796 27.68 24.4356 26.8V21.6H18.9796V22.896H23.1556V26.144C22.3556 26.608 21.4916 26.848 20.2916 26.848C17.8276 26.848 16.0996 25.136 16.0996 22.016C16.0996 18.896 17.9236 17.376 20.0676 17.376C21.4116 17.376 22.5636 18.048 23.1396 19.296L24.4036 18.64C23.6516 16.96 22.1476 16.016 20.0836 16.016C17.0916 16.016 14.6116 18.368 14.6116 22.016C14.6116 25.776 16.9636 28.144 20.2116 28.144ZM27.5186 18.032C28.1106 18.032 28.5906 17.568 28.5906 16.944C28.5906 16.336 28.1106 15.872 27.5186 15.872C26.9106 15.872 26.4306 16.336 26.4306 16.944C26.4306 17.568 26.9106 18.032 27.5186 18.032ZM26.1906 31.488C27.5506 31.488 28.2066 30.64 28.2066 29.104V19.52H26.8306V29.12C26.8306 29.84 26.6226 30.304 25.9186 30.304C25.7586 30.304 25.5666 30.288 25.3426 30.208L25.2306 31.344C25.5346 31.44 25.8706 31.488 26.1906 31.488ZM36.3084 20.096L37.0124 18.704H36.1964L35.6844 19.712C35.2044 19.488 34.6604 19.36 34.0844 19.36C31.9244 19.36 30.1964 21.088 30.1964 23.728C30.1964 25.36 30.8364 26.64 31.8124 27.392L31.1084 28.8H31.9404L32.4524 27.776C32.9484 28.016 33.5084 28.144 34.0844 28.144C36.2124 28.144 37.9564 26.416 37.9564 23.728C37.9564 22.112 37.3164 20.832 36.3084 20.096ZM31.6204 23.728C31.6204 21.568 32.7404 20.56 34.0844 20.56C34.4524 20.56 34.8204 20.64 35.1404 20.8L32.4044 26.224C31.9244 25.696 31.6204 24.864 31.6204 23.728ZM34.0844 26.944C33.7004 26.944 33.3324 26.864 32.9964 26.688L35.7324 21.248C36.2284 21.776 36.5324 22.592 36.5324 23.728C36.5324 25.888 35.4284 26.944 34.0844 26.944ZM43.2918 19.36C42.5398 19.36 41.7398 19.744 41.2758 20.608V19.52H39.8998V28H41.2758V22.896C41.2758 21.216 41.9798 20.544 42.9398 20.544C43.7878 20.544 44.0598 21.088 44.0598 21.904V22.752L45.2438 22.528V21.584C45.2438 20.128 44.4438 19.36 43.2918 19.36ZM50.6146 21.776C50.6146 22.944 51.4626 23.744 53.0306 24.064L54.4866 24.352C55.4626 24.56 55.8786 24.944 55.8786 25.648C55.8786 26.448 55.0626 26.976 53.8466 26.976C52.6466 26.976 51.7986 26.512 51.3666 25.648L50.3106 26.208C50.9186 27.456 52.1506 28.128 53.8786 28.128C55.8626 28.128 57.2066 27.088 57.2066 25.568C57.2066 24.288 56.3266 23.472 54.4866 23.104L53.2546 22.864C52.3426 22.672 51.9426 22.304 51.9426 21.68C51.9426 20.96 52.6626 20.528 53.7506 20.528C54.7906 20.528 55.5586 20.944 55.9106 21.696L56.9506 21.168C56.5026 20.048 55.3506 19.36 53.7826 19.36C51.9106 19.36 50.6146 20.4 50.6146 21.776ZM62.041 27.968V26.784C61.865 26.832 61.689 26.848 61.529 26.848C60.857 26.848 60.457 26.496 60.457 25.76V16.16H59.081V25.824C59.081 27.2 59.769 28.08 61.209 28.08C61.497 28.08 61.753 28.032 62.041 27.968ZM63.5625 16.064V17.92H65.4505V16.064H63.5625ZM63.8185 28H65.1945V19.52H63.8185V28ZM73.0555 28H74.7355L71.0715 23.024L74.6715 19.52H72.9275L69.1355 23.328V16.16H67.7595V28H69.1355V24.912L70.1435 23.92L73.0555 28Z" fill="#2A2859"/>
<path d="M484.379 28H485.803V16.16H484.379V28ZM493.646 28H495.326L491.662 23.024L495.262 19.52H493.518L489.726 23.328V16.16H488.35V28H489.726V24.912L490.734 23.92L493.646 28ZM502.227 28H503.907L500.243 23.024L503.843 19.52H502.099L498.307 23.328V16.16H496.931V28H498.307V24.912L499.315 23.92L502.227 28ZM510.664 25.488C510.248 26.304 509.496 26.976 508.328 26.976C506.792 26.976 505.784 26.096 505.688 24.016H511.56L511.592 23.04C511.592 20.688 509.976 19.36 508.088 19.36C505.864 19.36 504.312 21.136 504.312 23.664C504.312 26.32 505.768 28.144 508.216 28.144C510.12 28.144 511.192 27.088 511.64 26.032L510.664 25.488ZM508.088 20.512C509.224 20.512 510.264 21.232 510.248 22.944H505.688C505.848 21.136 506.888 20.512 508.088 20.512ZM517.102 21.776C517.102 22.944 517.95 23.744 519.518 24.064L520.974 24.352C521.95 24.56 522.366 24.944 522.366 25.648C522.366 26.448 521.55 26.976 520.334 26.976C519.134 26.976 518.286 26.512 517.854 25.648L516.798 26.208C517.406 27.456 518.638 28.128 520.366 28.128C522.35 28.128 523.694 27.088 523.694 25.568C523.694 24.288 522.814 23.472 520.974 23.104L519.742 22.864C518.83 22.672 518.43 22.304 518.43 21.68C518.43 20.96 519.15 20.528 520.238 20.528C521.278 20.528 522.046 20.944 522.398 21.696L523.438 21.168C522.99 20.048 521.838 19.36 520.27 19.36C518.398 19.36 517.102 20.4 517.102 21.776ZM528.528 27.968V26.784C528.352 26.832 528.176 26.848 528.016 26.848C527.344 26.848 526.944 26.496 526.944 25.76V16.16H525.568V25.824C525.568 27.2 526.256 28.08 527.696 28.08C527.984 28.08 528.24 28.032 528.528 27.968ZM530.994 18.032C531.586 18.032 532.066 17.568 532.066 16.944C532.066 16.336 531.586 15.872 530.994 15.872C530.386 15.872 529.906 16.336 529.906 16.944C529.906 17.568 530.386 18.032 530.994 18.032ZM530.306 28H531.682V19.52H530.306V28ZM539.543 28H541.223L537.559 23.024L541.159 19.52H539.415L535.623 23.328V16.16H534.247V28H535.623V24.912L536.631 23.92L539.543 28Z" fill="#2A2859"/>
<path d="M537 123V120H539V123H542V125H539V128H537V125H534V123H537Z" fill="#2A2859"/>
<path fill-rule="evenodd" clip-rule="evenodd" d="M542.41 115.096L540.941 116.565C543.903 117.738 546 120.621 546 124C546 128.418 542.418 132 538 132C534.621 132 531.738 129.903 530.564 126.941L529.499 128.006L516.59 115.097C514.92 113.427 514 111.207 514 108.844C514 106.481 514.92 104.261 516.59 102.59C518.261 100.92 520.481 100 522.844 100C525.206 100 527.427 100.92 529.097 102.59L529.5 102.993L529.903 102.59C531.573 100.92 533.794 100 536.156 100C538.519 100 540.74 100.92 542.41 102.59C544.08 104.26 545 106.481 545 108.843C545 111.205 544.08 113.426 542.41 115.096ZM529.5 125.182L530.033 124.649C530.016 124.435 530 124.219 530 124C530 119.582 533.582 116 538 116C538.219 116 538.435 116.016 538.649 116.033L540.997 113.685C543.671 111.011 543.671 106.677 540.997 104.003C539.66 102.666 537.908 101.998 536.156 101.998C534.404 101.998 532.652 102.666 531.315 104.003L529.5 105.818L527.685 104.003C526.348 102.666 524.596 101.998 522.844 101.998C521.092 101.998 519.34 102.666 518.003 104.003C515.329 106.677 515.329 111.011 518.003 113.685L529.5 125.182ZM532 124C532 127.308 534.692 130 538 130C541.308 130 544 127.308 544 124C544 120.692 541.308 118 538 118C534.692 118 532 120.692 532 124Z" fill="#2A2859"/>
<path d="M566.456 107.24V114.704H558.896V107.24H556.088V125H558.896V117.416H566.456V125H569.264V107.24H566.456ZM581.824 120.992C581.152 122.192 580.072 123.032 578.512 123.032C576.4 123.032 575.08 121.88 574.936 119.192H583.576L583.624 117.608C583.624 114.008 581.152 111.992 578.152 111.992C574.768 111.992 572.296 114.656 572.296 118.52C572.296 122.432 574.576 125.216 578.344 125.216C581.248 125.216 582.928 123.632 583.648 122.048L581.824 120.992ZM578.152 114.104C579.64 114.104 581.032 115.016 581.008 117.272H574.936C575.152 114.968 576.52 114.104 578.152 114.104ZM592.571 111.992C591.467 111.992 590.147 112.568 589.427 113.984V112.28H586.739V125H589.427V117.56C589.427 115.136 590.435 114.224 591.803 114.224C593.051 114.224 593.459 115.016 593.459 116.168V117.464L595.619 117.08V115.4C595.619 113.216 594.419 111.992 592.571 111.992ZM612.473 125H615.689L610.385 117.416L615.593 112.28H612.281L607.145 117.56V107.24H604.457V125H607.145V120.608L608.609 119.168L612.473 125ZM627.512 125C627.2 124.184 626.96 122.84 626.96 121.328V116.408C626.96 113.984 625.424 111.992 622.04 111.992C619.76 111.992 617.576 113.072 616.664 115.76L618.944 116.456C619.424 114.968 620.456 114.176 621.92 114.176C623.48 114.176 624.344 115.064 624.344 116.432V117.632C623.456 117.392 622.64 117.32 621.776 117.32C619.04 117.32 616.592 118.688 616.592 121.448C616.592 123.656 618.224 125.216 620.528 125.216C622.736 125.216 624.08 123.92 624.68 122.6C624.728 123.584 624.848 124.352 625.04 125H627.512ZM624.344 119.744C624.344 122.36 622.64 123.128 621.344 123.128C620.072 123.128 619.232 122.384 619.232 121.208C619.232 119.816 620.456 119.096 622.04 119.096C622.832 119.096 623.576 119.192 624.344 119.456V119.744ZM637.207 111.992C635.623 111.992 634.351 112.76 633.487 114.104V112.28H630.799V125H633.487V118.112C633.487 115.64 634.447 114.32 636.343 114.32C637.807 114.32 638.647 115.112 638.647 116.864V125H641.335V116.432C641.335 113.672 639.799 111.992 637.207 111.992ZM659.449 107.24V114.224C658.657 112.664 657.217 112.016 655.777 112.016C652.417 112.016 650.185 114.68 650.185 118.688C650.185 122.552 652.393 125.192 655.465 125.192C656.929 125.192 658.465 124.472 659.449 122.696V125H662.137V107.24H659.449ZM656.185 122.84C654.337 122.84 652.969 121.4 652.969 118.544C652.969 115.664 654.337 114.176 656.185 114.176C658.153 114.176 659.449 115.592 659.449 118.544C659.449 121.52 658.129 122.84 656.185 122.84ZM673.242 112.28V119.096C673.242 121.568 672.306 122.912 670.434 122.912C668.97 122.912 668.154 122.024 668.154 120.368V112.28H665.466V120.776C665.466 123.536 666.978 125.216 669.594 125.216C671.154 125.216 672.426 124.52 673.242 123.128V125H675.93V112.28H673.242ZM690.598 124.928V122.696C690.31 122.768 690.046 122.792 689.806 122.792C688.822 122.792 688.174 122.288 688.174 121.184V107.24H685.486V121.376C685.486 123.704 686.638 125.144 689.062 125.144C689.59 125.144 690.094 125.072 690.598 124.928ZM701.686 120.992C701.014 122.192 699.934 123.032 698.374 123.032C696.262 123.032 694.942 121.88 694.798 119.192H703.438L703.486 117.608C703.486 114.008 701.014 111.992 698.014 111.992C694.63 111.992 692.158 114.656 692.158 118.52C692.158 122.432 694.438 125.216 698.206 125.216C701.11 125.216 702.79 123.632 703.51 122.048L701.686 120.992ZM698.014 114.104C699.502 114.104 700.894 115.016 700.87 117.272H694.798C695.014 114.968 696.382 114.104 698.014 114.104ZM705.93 115.784C705.93 117.608 707.25 118.832 709.65 119.288L712.002 119.744C713.178 119.984 713.706 120.464 713.706 121.328C713.706 122.384 712.602 123.032 710.97 123.032C709.29 123.032 708.066 122.36 707.37 121.184L705.498 122.36C706.482 124.208 708.378 125.216 711.042 125.216C714.186 125.216 716.274 123.608 716.274 121.208C716.274 119.264 714.93 117.992 712.242 117.464L710.106 117.032C708.978 116.816 708.474 116.36 708.474 115.616C708.474 114.704 709.458 114.152 710.898 114.152C712.338 114.152 713.49 114.752 714.066 115.736L715.938 114.584C715.05 112.88 713.394 111.992 710.922 111.992C707.922 111.992 705.93 113.624 705.93 115.784ZM727.583 120.992C726.911 122.192 725.831 123.032 724.271 123.032C722.159 123.032 720.839 121.88 720.695 119.192H729.335L729.383 117.608C729.383 114.008 726.911 111.992 723.911 111.992C720.527 111.992 718.055 114.656 718.055 118.52C718.055 122.432 720.335 125.216 724.103 125.216C727.007 125.216 728.687 123.632 729.407 122.048L727.583 120.992ZM723.911 114.104C725.399 114.104 726.791 115.016 726.767 117.272H720.695C720.911 114.968 722.279 114.104 723.911 114.104ZM752.455 111.992C750.751 111.992 749.407 112.832 748.543 114.512C747.991 112.928 746.719 111.992 744.775 111.992C743.239 111.992 741.991 112.712 741.127 114.08V112.28H738.439V125H741.127V118.112C741.127 115.616 742.063 114.32 743.911 114.32C745.303 114.32 746.095 115.088 746.095 116.768V125H748.783V118.112C748.783 115.616 749.719 114.32 751.591 114.32C752.983 114.32 753.775 115.088 753.775 116.768V125H756.463V116.312C756.463 113.648 754.999 111.992 752.455 111.992ZM768.936 120.992C768.264 122.192 767.184 123.032 765.624 123.032C763.512 123.032 762.192 121.88 762.048 119.192H770.688L770.736 117.608C770.736 114.008 768.264 111.992 765.264 111.992C761.88 111.992 759.408 114.656 759.408 118.52C759.408 122.432 761.688 125.216 765.456 125.216C768.36 125.216 770.04 123.632 770.76 122.048L768.936 120.992ZM765.264 114.104C766.752 114.104 768.144 115.016 768.12 117.272H762.048C762.264 114.968 763.632 114.104 765.264 114.104ZM779.684 111.992C778.58 111.992 777.26 112.568 776.54 113.984V112.28H773.852V125H776.54V117.56C776.54 115.136 777.548 114.224 778.916 114.224C780.164 114.224 780.572 115.016 780.572 116.168V117.464L782.732 117.08V115.4C782.732 113.216 781.532 111.992 779.684 111.992ZM796.801 125.24C800.113 125.24 802.825 122.648 802.825 118.568C802.825 114.584 800.137 111.992 796.801 111.992C793.465 111.992 790.777 114.584 790.777 118.568C790.777 122.648 793.489 125.24 796.801 125.24ZM796.801 122.96C795.025 122.96 793.537 121.568 793.537 118.568C793.537 115.544 795.025 114.272 796.801 114.272C798.577 114.272 800.065 115.544 800.065 118.568C800.065 121.568 798.601 122.96 796.801 122.96ZM819.729 111.992C818.025 111.992 816.681 112.832 815.817 114.512C815.265 112.928 813.993 111.992 812.049 111.992C810.513 111.992 809.265 112.712 808.401 114.08V112.28H805.713V125H808.401V118.112C808.401 115.616 809.337 114.32 811.185 114.32C812.577 114.32 813.369 115.088 813.369 116.768V125H816.057V118.112C816.057 115.616 816.993 114.32 818.865 114.32C820.257 114.32 821.049 115.088 821.049 116.768V125H823.737V116.312C823.737 113.648 822.273 111.992 819.729 111.992ZM562.376 145.992C560.792 145.992 559.496 146.76 558.632 148.128V141.24H555.944V159H558.632V152.112C558.632 149.64 559.616 148.32 561.512 148.32C562.976 148.32 563.816 149.112 563.816 150.864V159H566.504V150.432C566.504 147.672 564.968 145.992 562.376 145.992ZM578.941 154.992C578.269 156.192 577.189 157.032 575.629 157.032C573.517 157.032 572.197 155.88 572.053 153.192H580.693L580.741 151.608C580.741 148.008 578.269 145.992 575.269 145.992C571.885 145.992 569.413 148.656 569.413 152.52C569.413 156.432 571.693 159.216 575.461 159.216C578.365 159.216 580.045 157.632 580.765 156.048L578.941 154.992ZM575.269 148.104C576.757 148.104 578.149 149.016 578.125 151.272H572.053C572.269 148.968 573.637 148.104 575.269 148.104ZM588.969 158.928V156.696C588.681 156.768 588.417 156.792 588.177 156.792C587.193 156.792 586.545 156.288 586.545 155.184V141.24H583.857V155.376C583.857 157.704 585.009 159.144 587.433 159.144C587.961 159.144 588.465 159.072 588.969 158.928ZM590.93 149.784C590.93 151.608 592.25 152.832 594.65 153.288L597.002 153.744C598.178 153.984 598.706 154.464 598.706 155.328C598.706 156.384 597.602 157.032 595.97 157.032C594.29 157.032 593.066 156.36 592.37 155.184L590.498 156.36C591.482 158.208 593.378 159.216 596.042 159.216C599.186 159.216 601.274 157.608 601.274 155.208C601.274 153.264 599.93 151.992 597.242 151.464L595.106 151.032C593.978 150.816 593.474 150.36 593.474 149.616C593.474 148.704 594.458 148.152 595.898 148.152C597.338 148.152 598.49 148.752 599.066 149.736L600.938 148.584C600.05 146.88 598.394 145.992 595.922 145.992C592.922 145.992 590.93 147.624 590.93 149.784ZM612.583 154.992C611.911 156.192 610.831 157.032 609.271 157.032C607.159 157.032 605.839 155.88 605.695 153.192H614.335L614.383 151.608C614.383 148.008 611.911 145.992 608.911 145.992C605.527 145.992 603.055 148.656 603.055 152.52C603.055 156.432 605.335 159.216 609.103 159.216C612.007 159.216 613.687 157.632 614.407 156.048L612.583 154.992ZM608.911 148.104C610.399 148.104 611.791 149.016 611.767 151.272H605.695C605.911 148.968 607.279 148.104 608.911 148.104ZM628.671 159.24C631.983 159.24 634.695 156.648 634.695 152.568C634.695 148.584 632.007 145.992 628.671 145.992C625.335 145.992 622.647 148.584 622.647 152.568C622.647 156.648 625.359 159.24 628.671 159.24ZM628.671 156.96C626.895 156.96 625.407 155.568 625.407 152.568C625.407 149.544 626.895 148.272 628.671 148.272C630.447 148.272 631.935 149.544 631.935 152.568C631.935 155.568 630.471 156.96 628.671 156.96ZM649.354 148.368V146.28H645.514V147.336C644.794 146.544 643.57 145.992 642.01 145.992C638.482 145.992 636.634 148.32 636.634 150.6C636.634 152.136 637.498 153.768 639.25 154.536C637.666 154.848 636.514 155.88 636.514 157.176C636.514 158.52 637.546 159.6 639.538 159.6H645.322C646.186 159.6 646.498 160.008 646.498 160.56C646.498 161.736 644.722 162.408 642.226 162.408C639.898 162.408 638.506 162 637.906 160.464L635.29 160.968C635.938 163.44 638.434 164.376 642.154 164.376C646.402 164.376 649.066 162.864 649.066 160.248C649.066 158.52 647.818 157.392 645.634 157.392H640.33C639.514 157.392 639.106 157.008 639.106 156.48C639.106 155.712 639.946 155.28 641.242 155.28H641.866C645.562 155.28 647.338 152.976 647.338 150.672C647.338 149.952 647.122 149.256 646.69 148.656V148.368H649.354ZM642.01 153.336C640.186 153.336 639.298 152.04 639.298 150.648C639.298 149.256 640.186 147.984 642.01 147.984C643.858 147.984 644.722 149.256 644.722 150.648C644.722 152.04 643.858 153.336 642.01 153.336ZM662.688 159.24C666 159.24 668.712 156.648 668.712 152.568C668.712 148.584 666.024 145.992 662.688 145.992C659.352 145.992 656.664 148.584 656.664 152.568C656.664 156.648 659.376 159.24 662.688 159.24ZM662.688 156.96C660.912 156.96 659.424 155.568 659.424 152.568C659.424 149.544 660.912 148.272 662.688 148.272C664.464 148.272 665.952 149.544 665.952 152.568C665.952 155.568 664.488 156.96 662.688 156.96ZM685.616 145.992C683.912 145.992 682.568 146.832 681.704 148.512C681.152 146.928 679.88 145.992 677.936 145.992C676.4 145.992 675.152 146.712 674.288 148.08V146.28H671.6V159H674.288V152.112C674.288 149.616 675.224 148.32 677.072 148.32C678.464 148.32 679.256 149.088 679.256 150.768V159H681.944V152.112C681.944 149.616 682.88 148.32 684.752 148.32C686.144 148.32 686.936 149.088 686.936 150.768V159H689.624V150.312C689.624 147.648 688.16 145.992 685.616 145.992ZM692.689 149.784C692.689 151.608 694.009 152.832 696.409 153.288L698.761 153.744C699.937 153.984 700.465 154.464 700.465 155.328C700.465 156.384 699.361 157.032 697.729 157.032C696.049 157.032 694.825 156.36 694.129 155.184L692.257 156.36C693.241 158.208 695.137 159.216 697.801 159.216C700.945 159.216 703.033 157.608 703.033 155.208C703.033 153.264 701.689 151.992 699.001 151.464L696.865 151.032C695.737 150.816 695.233 150.36 695.233 149.616C695.233 148.704 696.217 148.152 697.657 148.152C699.097 148.152 700.249 148.752 700.825 149.736L702.697 148.584C701.809 146.88 700.153 145.992 697.681 145.992C694.681 145.992 692.689 147.624 692.689 149.784ZM710.839 159.24C714.151 159.24 716.863 156.648 716.863 152.568C716.863 148.584 714.175 145.992 710.839 145.992C707.503 145.992 704.815 148.584 704.815 152.568C704.815 156.648 707.527 159.24 710.839 159.24ZM710.839 156.96C709.063 156.96 707.575 155.568 707.575 152.568C707.575 149.544 709.063 148.272 710.839 148.272C712.615 148.272 714.103 149.544 714.103 152.568C714.103 155.568 712.639 156.96 710.839 156.96ZM725.582 145.992C724.478 145.992 723.158 146.568 722.438 147.984V146.28H719.75V159H722.438V151.56C722.438 149.136 723.446 148.224 724.814 148.224C726.062 148.224 726.47 149.016 726.47 150.168V151.464L728.63 151.08V149.4C728.63 147.216 727.43 145.992 725.582 145.992ZM742.876 148.368V146.28H739.036V147.336C738.316 146.544 737.092 145.992 735.532 145.992C732.004 145.992 730.156 148.32 730.156 150.6C730.156 152.136 731.02 153.768 732.772 154.536C731.188 154.848 730.036 155.88 730.036 157.176C730.036 158.52 731.068 159.6 733.06 159.6H738.844C739.708 159.6 740.02 160.008 740.02 160.56C740.02 161.736 738.244 162.408 735.748 162.408C733.42 162.408 732.028 162 731.428 160.464L728.812 160.968C729.46 163.44 731.956 164.376 735.676 164.376C739.924 164.376 742.588 162.864 742.588 160.248C742.588 158.52 741.34 157.392 739.156 157.392H733.852C733.036 157.392 732.628 157.008 732.628 156.48C732.628 155.712 733.468 155.28 734.764 155.28H735.388C739.084 155.28 740.86 152.976 740.86 150.672C740.86 149.952 740.644 149.256 740.212 148.656V148.368H742.876ZM735.532 153.336C733.708 153.336 732.82 152.04 732.82 150.648C732.82 149.256 733.708 147.984 735.532 147.984C737.38 147.984 738.244 149.256 738.244 150.648C738.244 152.04 737.38 153.336 735.532 153.336Z" fill="#2A2859"/>
<path d="M556.844 194.812V182.68H555.584V196H563.036V194.812H556.844ZM571.31 193.3C570.86 194.236 570.014 195.064 568.574 195.064C566.738 195.064 565.532 193.984 565.424 191.446H572.102L572.138 190.384C572.138 187.792 570.374 186.316 568.322 186.316C565.838 186.316 564.182 188.314 564.182 191.104C564.182 194.146 565.766 196.144 568.448 196.144C570.572 196.144 571.76 194.956 572.21 193.804L571.31 193.3ZM568.322 187.396C569.726 187.396 570.986 188.296 570.932 190.438H565.424C565.586 188.17 566.882 187.396 568.322 187.396ZM574.258 188.944C574.258 190.222 575.176 191.104 576.922 191.464L578.47 191.788C579.73 192.058 580.234 192.544 580.234 193.444C580.234 194.416 579.262 195.064 577.786 195.064C576.382 195.064 575.392 194.524 574.942 193.516L573.898 193.948C574.546 195.388 575.896 196.144 577.822 196.144C579.946 196.144 581.422 194.992 581.422 193.336C581.422 191.914 580.45 191.014 578.362 190.6L577.102 190.348C575.968 190.114 575.446 189.628 575.446 188.836C575.446 187.954 576.31 187.396 577.642 187.396C578.866 187.396 579.748 187.882 580.126 188.8L581.134 188.404C580.738 187.144 579.406 186.316 577.678 186.316C575.68 186.316 574.258 187.432 574.258 188.944ZM597.941 186.316C596.717 186.316 595.619 187 595.079 188.26C594.737 187.018 593.783 186.316 592.361 186.316C591.245 186.316 590.237 186.892 589.661 187.954V186.46H588.437V196H589.661V190.636C589.661 188.728 590.363 187.432 592.037 187.432C593.279 187.432 594.017 188.08 594.017 189.628V196H595.241V190.636C595.241 188.728 595.943 187.432 597.617 187.432C598.859 187.432 599.597 188.08 599.597 189.628V196H600.821V189.448C600.821 187.468 599.759 186.316 597.941 186.316ZM610.281 193.3C609.831 194.236 608.985 195.064 607.545 195.064C605.709 195.064 604.503 193.984 604.395 191.446H611.073L611.109 190.384C611.109 187.792 609.345 186.316 607.293 186.316C604.809 186.316 603.153 188.314 603.153 191.104C603.153 194.146 604.737 196.144 607.419 196.144C609.543 196.144 610.731 194.956 611.181 193.804L610.281 193.3ZM607.293 187.396C608.697 187.396 609.957 188.296 609.903 190.438H604.395C604.557 188.17 605.853 187.396 607.293 187.396ZM617.116 186.316C616.27 186.316 615.424 186.748 614.92 187.648V186.46H613.696V196H614.92V190.132C614.92 188.206 615.748 187.396 616.846 187.396C617.818 187.396 618.142 188.026 618.142 188.98V189.916L619.258 189.7V188.764C619.258 187.144 618.358 186.316 617.116 186.316ZM629.918 196.144C632.276 196.144 634.166 194.2 634.166 191.212C634.166 188.26 632.294 186.316 629.918 186.316C627.542 186.316 625.67 188.26 625.67 191.212C625.67 194.2 627.56 196.144 629.918 196.144ZM629.918 195.064C628.28 195.064 626.93 193.768 626.93 191.212C626.93 188.674 628.298 187.396 629.918 187.396C631.538 187.396 632.906 188.674 632.906 191.212C632.906 193.768 631.556 195.064 629.918 195.064ZM646.157 186.316C644.933 186.316 643.835 187 643.295 188.26C642.953 187.018 641.999 186.316 640.577 186.316C639.461 186.316 638.453 186.892 637.877 187.954V186.46H636.653V196H637.877V190.636C637.877 188.728 638.579 187.432 640.253 187.432C641.495 187.432 642.233 188.08 642.233 189.628V196H643.457V190.636C643.457 188.728 644.159 187.432 645.833 187.432C647.075 187.432 647.813 188.08 647.813 189.628V196H649.037V189.448C649.037 187.468 647.975 186.316 646.157 186.316ZM660.619 186.316C659.467 186.316 658.423 186.892 657.847 187.936V182.68H656.623V196H657.847V190.636C657.847 188.728 658.621 187.432 660.295 187.432C661.627 187.432 662.419 188.08 662.419 189.808V196H663.643V189.628C663.643 187.486 662.527 186.316 660.619 186.316ZM673.105 193.3C672.655 194.236 671.809 195.064 670.369 195.064C668.533 195.064 667.327 193.984 667.219 191.446H673.897L673.933 190.384C673.933 187.792 672.169 186.316 670.117 186.316C667.633 186.316 665.977 188.314 665.977 191.104C665.977 194.146 667.561 196.144 670.243 196.144C672.367 196.144 673.555 194.956 674.005 193.804L673.105 193.3ZM670.117 187.396C671.521 187.396 672.781 188.296 672.727 190.438H667.219C667.381 188.17 668.677 187.396 670.117 187.396ZM679.509 195.964V194.884C679.329 194.938 679.131 194.956 678.933 194.956C678.177 194.956 677.745 194.542 677.745 193.732V182.68H676.521V193.732C676.521 195.136 677.223 196.072 678.717 196.072C678.987 196.072 679.221 196.036 679.509 195.964ZM681.273 188.944C681.273 190.222 682.191 191.104 683.937 191.464L685.485 191.788C686.745 192.058 687.249 192.544 687.249 193.444C687.249 194.416 686.277 195.064 684.801 195.064C683.397 195.064 682.407 194.524 681.957 193.516L680.913 193.948C681.561 195.388 682.911 196.144 684.837 196.144C686.961 196.144 688.437 194.992 688.437 193.336C688.437 191.914 687.465 191.014 685.377 190.6L684.117 190.348C682.983 190.114 682.461 189.628 682.461 188.836C682.461 187.954 683.325 187.396 684.657 187.396C685.881 187.396 686.763 187.882 687.141 188.8L688.149 188.404C687.753 187.144 686.421 186.316 684.693 186.316C682.695 186.316 681.273 187.432 681.273 188.944ZM697.363 193.3C696.913 194.236 696.067 195.064 694.627 195.064C692.791 195.064 691.585 193.984 691.477 191.446H698.155L698.191 190.384C698.191 187.792 696.427 186.316 694.375 186.316C691.891 186.316 690.235 188.314 690.235 191.104C690.235 194.146 691.819 196.144 694.501 196.144C696.625 196.144 697.813 194.956 698.263 193.804L697.363 193.3ZM694.375 187.396C695.779 187.396 697.039 188.296 696.985 190.438H691.477C691.639 188.17 692.935 187.396 694.375 187.396ZM704.81 186.316C703.658 186.316 702.614 186.892 702.038 187.936V182.68H700.814V196H702.038V190.636C702.038 188.728 702.812 187.432 704.486 187.432C705.818 187.432 706.61 188.08 706.61 189.808V196H707.834V189.628C707.834 187.486 706.718 186.316 704.81 186.316ZM711.32 184.732C711.914 184.732 712.4 184.264 712.4 183.652C712.4 183.04 711.914 182.572 711.32 182.572C710.726 182.572 710.24 183.04 710.24 183.652C710.24 184.264 710.726 184.732 711.32 184.732ZM709.88 199.906C711.23 199.906 711.932 199.078 711.932 197.458V186.46H710.708V197.386C710.708 198.214 710.546 198.79 709.7 198.79C709.538 198.79 709.304 198.772 709.052 198.682L708.944 199.762C709.25 199.852 709.556 199.906 709.88 199.906ZM721.55 193.3C721.1 194.236 720.254 195.064 718.814 195.064C716.978 195.064 715.772 193.984 715.664 191.446H722.342L722.378 190.384C722.378 187.792 720.614 186.316 718.562 186.316C716.078 186.316 714.422 188.314 714.422 191.104C714.422 194.146 716.006 196.144 718.688 196.144C720.812 196.144 722 194.956 722.45 193.804L721.55 193.3ZM718.562 187.396C719.966 187.396 721.226 188.296 721.172 190.438H715.664C715.826 188.17 717.122 187.396 718.562 187.396ZM727.954 195.964V194.884C727.774 194.938 727.576 194.956 727.378 194.956C726.622 194.956 726.19 194.542 726.19 193.732V182.68H724.966V193.732C724.966 195.136 725.668 196.072 727.162 196.072C727.432 196.072 727.666 196.036 727.954 195.964ZM734.543 186.334C733.301 186.334 732.041 187.018 731.411 188.242V186.46H730.187V199.78H731.411V194.272C731.987 195.478 733.067 196.144 734.399 196.144C736.955 196.144 738.611 194.074 738.611 191.14C738.611 188.368 736.973 186.334 734.543 186.334ZM734.399 195.064C732.491 195.064 731.411 193.66 731.411 191.176C731.411 188.836 732.509 187.414 734.417 187.414C736.181 187.414 737.351 188.782 737.351 191.194C737.351 193.696 736.181 195.064 734.399 195.064ZM741.579 193.84C740.913 193.84 740.427 194.326 740.427 194.956C740.427 195.658 740.931 196.072 741.579 196.072C741.723 196.072 741.849 196.054 741.939 196.036C742.083 197.296 741.273 198.052 740.427 198.808L740.859 199.312C742.425 198.088 742.911 196.9 742.911 195.712C742.911 194.488 742.335 193.84 741.579 193.84ZM756.201 196H757.749L753.519 190.456L757.677 186.46H756.057L751.521 190.942V182.68H750.297V196H751.521V192.382L752.691 191.266L756.201 196ZM762.721 196.144C765.079 196.144 766.969 194.2 766.969 191.212C766.969 188.26 765.097 186.316 762.721 186.316C760.345 186.316 758.473 188.26 758.473 191.212C758.473 194.2 760.363 196.144 762.721 196.144ZM762.721 195.064C761.083 195.064 759.733 193.768 759.733 191.212C759.733 188.674 761.101 187.396 762.721 187.396C764.341 187.396 765.709 188.674 765.709 191.212C765.709 193.768 764.359 195.064 762.721 195.064ZM772.876 186.316C772.03 186.316 771.184 186.748 770.68 187.648V186.46H769.456V196H770.68V190.132C770.68 188.206 771.508 187.396 772.606 187.396C773.578 187.396 773.902 188.026 773.902 188.98V189.916L775.018 189.7V188.764C775.018 187.144 774.118 186.316 772.876 186.316ZM780.528 196.144C782.886 196.144 784.776 194.2 784.776 191.212C784.776 188.26 782.904 186.316 780.528 186.316C778.152 186.316 776.28 188.26 776.28 191.212C776.28 194.2 778.17 196.144 780.528 196.144ZM780.528 195.064C778.89 195.064 777.54 193.768 777.54 191.212C777.54 188.674 778.908 187.396 780.528 187.396C782.148 187.396 783.516 188.674 783.516 191.212C783.516 193.768 782.166 195.064 780.528 195.064ZM791.259 186.316C790.107 186.316 789.063 186.892 788.487 187.936V186.46H787.263V196H788.487V190.636C788.487 188.728 789.261 187.432 790.935 187.432C792.267 187.432 793.059 188.08 793.059 189.808V196H794.283V189.628C794.283 187.486 793.167 186.316 791.259 186.316ZM804.34 196C804.124 195.352 803.944 194.38 803.944 193.3V189.376C803.944 187.738 802.954 186.316 800.596 186.316C798.922 186.316 797.464 187.072 796.744 189.088L797.824 189.412C798.328 187.954 799.336 187.432 800.524 187.432C802 187.432 802.756 188.278 802.756 189.52V190.78C801.982 190.51 801.226 190.42 800.452 190.42C798.49 190.42 796.726 191.446 796.726 193.408C796.726 195.046 798.004 196.144 799.696 196.144C801.244 196.144 802.486 195.244 802.972 194.128C802.972 194.848 803.08 195.478 803.224 196H804.34ZM802.756 192.04C802.756 194.362 801.154 195.1 799.912 195.1C798.76 195.1 797.95 194.488 797.95 193.336C797.95 192.076 799.084 191.428 800.524 191.428C801.262 191.428 802.018 191.518 802.756 191.824V192.04ZM812.771 186.46L809.783 194.65L806.795 186.46H805.463L809.207 196H810.287L814.031 186.46H812.771ZM815.574 182.752V184.588H817.446V182.752H815.574ZM815.898 196H817.122V186.46H815.898V196ZM823.642 186.316C822.796 186.316 821.95 186.748 821.446 187.648V186.46H820.222V196H821.446V190.132C821.446 188.206 822.274 187.396 823.372 187.396C824.344 187.396 824.668 188.026 824.668 188.98V189.916L825.784 189.7V188.764C825.784 187.144 824.884 186.316 823.642 186.316ZM833.571 186.46V191.824C833.571 193.696 832.851 195.046 831.159 195.046C829.827 195.046 829.035 194.326 829.035 192.76V186.46H827.811V192.868C827.811 194.938 828.945 196.144 830.817 196.144C831.987 196.144 832.995 195.568 833.571 194.542V196H834.795V186.46H833.571ZM837.35 188.944C837.35 190.222 838.268 191.104 840.014 191.464L841.562 191.788C842.822 192.058 843.326 192.544 843.326 193.444C843.326 194.416 842.354 195.064 840.878 195.064C839.474 195.064 838.484 194.524 838.034 193.516L836.99 193.948C837.638 195.388 838.988 196.144 840.914 196.144C843.038 196.144 844.514 194.992 844.514 193.336C844.514 191.914 843.542 191.014 841.454 190.6L840.194 190.348C839.06 190.114 838.538 189.628 838.538 188.836C838.538 187.954 839.402 187.396 840.734 187.396C841.958 187.396 842.84 187.882 843.218 188.8L844.226 188.404C843.83 187.144 842.498 186.316 840.77 186.316C838.772 186.316 837.35 187.432 837.35 188.944ZM847.575 193.84C846.909 193.84 846.423 194.326 846.423 194.956C846.423 195.658 846.927 196.072 847.575 196.072C847.719 196.072 847.845 196.054 847.935 196.036C848.079 197.296 847.269 198.052 846.423 198.808L846.855 199.312C848.421 198.088 848.907 196.9 848.907 195.712C848.907 194.488 848.331 193.84 847.575 193.84ZM559.94 213.334C558.698 213.334 557.438 214.018 556.808 215.242V209.68H555.584V223H556.808V221.272C557.384 222.478 558.464 223.144 559.796 223.144C562.352 223.144 564.008 221.074 564.008 218.14C564.008 215.368 562.37 213.334 559.94 213.334ZM559.796 222.064C557.888 222.064 556.808 220.66 556.808 218.176C556.808 215.836 557.906 214.414 559.814 214.414C561.578 214.414 562.748 215.782 562.748 218.194C562.748 220.696 561.578 222.064 559.796 222.064ZM573.609 223C573.393 222.352 573.213 221.38 573.213 220.3V216.376C573.213 214.738 572.223 213.316 569.865 213.316C568.191 213.316 566.733 214.072 566.013 216.088L567.093 216.412C567.597 214.954 568.605 214.432 569.793 214.432C571.269 214.432 572.025 215.278 572.025 216.52V217.78C571.251 217.51 570.495 217.42 569.721 217.42C567.759 217.42 565.995 218.446 565.995 220.408C565.995 222.046 567.273 223.144 568.965 223.144C570.513 223.144 571.755 222.244 572.241 221.128C572.241 221.848 572.349 222.478 572.493 223H573.609ZM572.025 219.04C572.025 221.362 570.423 222.1 569.181 222.1C568.029 222.1 567.219 221.488 567.219 220.336C567.219 219.076 568.353 218.428 569.793 218.428C570.531 218.428 571.287 218.518 572.025 218.824V219.04ZM579.728 213.316C578.882 213.316 578.036 213.748 577.532 214.648V213.46H576.308V223H577.532V217.132C577.532 215.206 578.36 214.396 579.458 214.396C580.43 214.396 580.754 215.026 580.754 215.98V216.916L581.87 216.7V215.764C581.87 214.144 580.97 213.316 579.728 213.316ZM588.284 213.316C587.132 213.316 586.088 213.892 585.512 214.936V213.46H584.288V223H585.512V217.636C585.512 215.728 586.286 214.432 587.96 214.432C589.292 214.432 590.084 215.08 590.084 216.808V223H591.308V216.628C591.308 214.486 590.192 213.316 588.284 213.316ZM600.771 220.3C600.321 221.236 599.475 222.064 598.035 222.064C596.199 222.064 594.993 220.984 594.885 218.446H601.563L601.599 217.384C601.599 214.792 599.835 213.316 597.783 213.316C595.299 213.316 593.643 215.314 593.643 218.104C593.643 221.146 595.227 223.144 597.909 223.144C600.033 223.144 601.221 221.956 601.671 220.804L600.771 220.3ZM597.783 214.396C599.187 214.396 600.447 215.296 600.393 217.438H594.885C595.047 215.17 596.343 214.396 597.783 214.396ZM610.095 213.46L607.107 221.65L604.119 213.46H602.787L606.531 223H607.611L611.355 213.46H610.095ZM619.386 220.3C618.936 221.236 618.09 222.064 616.65 222.064C614.814 222.064 613.608 220.984 613.5 218.446H620.178L620.214 217.384C620.214 214.792 618.45 213.316 616.398 213.316C613.914 213.316 612.258 215.314 612.258 218.104C612.258 221.146 613.842 223.144 616.524 223.144C618.648 223.144 619.836 221.956 620.286 220.804L619.386 220.3ZM616.398 214.396C617.802 214.396 619.062 215.296 619.008 217.438H613.5C613.662 215.17 614.958 214.396 616.398 214.396ZM626.222 213.316C625.376 213.316 624.53 213.748 624.026 214.648V213.46H622.802V223H624.026V217.132C624.026 215.206 624.854 214.396 625.952 214.396C626.924 214.396 627.248 215.026 627.248 215.98V216.916L628.364 216.7V215.764C628.364 214.144 627.464 213.316 626.222 213.316ZM634.778 213.316C633.626 213.316 632.582 213.892 632.006 214.936V213.46H630.782V223H632.006V217.636C632.006 215.728 632.78 214.432 634.454 214.432C635.786 214.432 636.578 215.08 636.578 216.808V223H637.802V216.628C637.802 214.486 636.686 213.316 634.778 213.316ZM641.577 220.84C640.911 220.84 640.425 221.326 640.425 221.956C640.425 222.658 640.929 223.072 641.577 223.072C641.721 223.072 641.847 223.054 641.937 223.036C642.081 224.296 641.271 225.052 640.425 225.808L640.857 226.312C642.423 225.088 642.909 223.9 642.909 222.712C642.909 221.488 642.333 220.84 641.577 220.84ZM654.615 213.334C653.373 213.334 652.113 214.018 651.483 215.242V213.46H650.259V226.78H651.483V221.272C652.059 222.478 653.139 223.144 654.471 223.144C657.027 223.144 658.683 221.074 658.683 218.14C658.683 215.368 657.045 213.334 654.615 213.334ZM654.471 222.064C652.563 222.064 651.483 220.66 651.483 218.176C651.483 215.836 652.581 214.414 654.489 214.414C656.253 214.414 657.423 215.782 657.423 218.194C657.423 220.696 656.253 222.064 654.471 222.064ZM660.707 215.944C660.707 217.222 661.625 218.104 663.371 218.464L664.919 218.788C666.179 219.058 666.683 219.544 666.683 220.444C666.683 221.416 665.711 222.064 664.235 222.064C662.831 222.064 661.841 221.524 661.391 220.516L660.347 220.948C660.995 222.388 662.345 223.144 664.271 223.144C666.395 223.144 667.871 221.992 667.871 220.336C667.871 218.914 666.899 218.014 664.811 217.6L663.551 217.348C662.417 217.114 661.895 216.628 661.895 215.836C661.895 214.954 662.759 214.396 664.091 214.396C665.315 214.396 666.197 214.882 666.575 215.8L667.583 215.404C667.187 214.144 665.855 213.316 664.127 213.316C662.129 213.316 660.707 214.432 660.707 215.944ZM675.878 213.46L672.89 221.722L670.01 213.46H668.678L672.26 223.162L671.702 224.512C671.234 225.61 670.766 225.898 670.1 225.898C669.686 225.898 669.344 225.754 668.984 225.43L668.444 226.312C668.894 226.726 669.488 226.96 670.136 226.96C671.612 226.96 672.314 225.934 672.944 224.314L677.138 213.46H675.878ZM685.062 223H686.61L682.38 217.456L686.538 213.46H684.918L680.382 217.942V209.68H679.158V223H680.382V219.382L681.552 218.266L685.062 223ZM689.103 211.732C689.697 211.732 690.183 211.264 690.183 210.652C690.183 210.04 689.697 209.572 689.103 209.572C688.509 209.572 688.023 210.04 688.023 210.652C688.023 211.264 688.509 211.732 689.103 211.732ZM688.491 223H689.715V213.46H688.491V223ZM692.348 215.944C692.348 217.222 693.266 218.104 695.012 218.464L696.56 218.788C697.82 219.058 698.324 219.544 698.324 220.444C698.324 221.416 697.352 222.064 695.876 222.064C694.472 222.064 693.482 221.524 693.032 220.516L691.988 220.948C692.636 222.388 693.986 223.144 695.912 223.144C698.036 223.144 699.512 221.992 699.512 220.336C699.512 218.914 698.54 218.014 696.452 217.6L695.192 217.348C694.058 217.114 693.536 216.628 693.536 215.836C693.536 214.954 694.4 214.396 695.732 214.396C696.956 214.396 697.838 214.882 698.216 215.8L699.224 215.404C698.828 214.144 697.496 213.316 695.768 213.316C693.77 213.316 692.348 214.432 692.348 215.944ZM707.861 223H709.409L705.179 217.456L709.337 213.46H707.717L703.181 217.942V209.68H701.957V223H703.181V219.382L704.351 218.266L707.861 223ZM720.103 213.316C718.951 213.316 717.907 213.892 717.331 214.936V209.68H716.107V223H717.331V217.636C717.331 215.728 718.105 214.432 719.779 214.432C721.111 214.432 721.903 215.08 721.903 216.808V223H723.127V216.628C723.127 214.486 722.011 213.316 720.103 213.316ZM732.589 220.3C732.139 221.236 731.293 222.064 729.853 222.064C728.017 222.064 726.811 220.984 726.703 218.446H733.381L733.417 217.384C733.417 214.792 731.653 213.316 729.601 213.316C727.117 213.316 725.461 215.314 725.461 218.104C725.461 221.146 727.045 223.144 729.727 223.144C731.851 223.144 733.039 221.956 733.489 220.804L732.589 220.3ZM729.601 214.396C731.005 214.396 732.265 215.296 732.211 217.438H726.703C726.865 215.17 728.161 214.396 729.601 214.396ZM738.993 222.964V221.884C738.813 221.938 738.615 221.956 738.417 221.956C737.661 221.956 737.229 221.542 737.229 220.732V209.68H736.005V220.732C736.005 222.136 736.707 223.072 738.201 223.072C738.471 223.072 738.705 223.036 738.993 222.964ZM740.758 215.944C740.758 217.222 741.676 218.104 743.422 218.464L744.97 218.788C746.23 219.058 746.734 219.544 746.734 220.444C746.734 221.416 745.762 222.064 744.286 222.064C742.882 222.064 741.892 221.524 741.442 220.516L740.398 220.948C741.046 222.388 742.396 223.144 744.322 223.144C746.446 223.144 747.922 221.992 747.922 220.336C747.922 218.914 746.95 218.014 744.862 217.6L743.602 217.348C742.468 217.114 741.946 216.628 741.946 215.836C741.946 214.954 742.81 214.396 744.142 214.396C745.366 214.396 746.248 214.882 746.626 215.8L747.634 215.404C747.238 214.144 745.906 213.316 744.178 213.316C742.18 213.316 740.758 214.432 740.758 215.944ZM756.847 220.3C756.397 221.236 755.551 222.064 754.111 222.064C752.275 222.064 751.069 220.984 750.961 218.446H757.639L757.675 217.384C757.675 214.792 755.911 213.316 753.859 213.316C751.375 213.316 749.719 215.314 749.719 218.104C749.719 221.146 751.303 223.144 753.985 223.144C756.109 223.144 757.297 221.956 757.747 220.804L756.847 220.3ZM753.859 214.396C755.263 214.396 756.523 215.296 756.469 217.438H750.961C751.123 215.17 752.419 214.396 753.859 214.396ZM768.504 223.144C770.862 223.144 772.752 221.2 772.752 218.212C772.752 215.26 770.88 213.316 768.504 213.316C766.128 213.316 764.256 215.26 764.256 218.212C764.256 221.2 766.146 223.144 768.504 223.144ZM768.504 222.064C766.866 222.064 765.516 220.768 765.516 218.212C765.516 215.674 766.884 214.396 768.504 214.396C770.124 214.396 771.492 215.674 771.492 218.212C771.492 220.768 770.142 222.064 768.504 222.064ZM783.262 214.468V213.46H780.526V214.126C779.95 213.64 779.194 213.316 778.204 213.316C775.684 213.316 774.406 215.098 774.406 216.808C774.406 217.978 775.108 219.31 776.368 219.814C775.198 220.12 774.496 220.858 774.496 221.704C774.496 222.694 775.288 223.324 776.62 223.324H780.724C781.588 223.324 781.876 223.72 781.876 224.26C781.876 225.412 780.22 226.006 778.24 226.006C776.638 226.006 775.234 225.7 774.568 224.134L773.578 224.584C774.154 226.258 775.828 227.032 778.24 227.032C780.922 227.032 783.1 226.042 783.1 224.152C783.1 222.964 782.308 222.208 780.76 222.208H776.89C776.098 222.208 775.72 221.866 775.72 221.38C775.72 220.75 776.494 220.336 777.574 220.336H777.988C780.67 220.336 781.93 218.554 781.93 216.808C781.93 216.106 781.678 215.386 781.21 214.81V214.468H783.262ZM778.186 219.328C776.476 219.328 775.612 218.14 775.612 216.808C775.612 215.494 776.476 214.36 778.186 214.36C779.878 214.36 780.724 215.476 780.724 216.808C780.724 218.158 779.878 219.328 778.186 219.328ZM798.345 214.468V213.46H795.609V214.126C795.033 213.64 794.277 213.316 793.287 213.316C790.767 213.316 789.489 215.098 789.489 216.808C789.489 217.978 790.191 219.31 791.451 219.814C790.281 220.12 789.579 220.858 789.579 221.704C789.579 222.694 790.371 223.324 791.703 223.324H795.807C796.671 223.324 796.959 223.72 796.959 224.26C796.959 225.412 795.303 226.006 793.323 226.006C791.721 226.006 790.317 225.7 789.651 224.134L788.661 224.584C789.237 226.258 790.911 227.032 793.323 227.032C796.005 227.032 798.183 226.042 798.183 224.152C798.183 222.964 797.391 222.208 795.843 222.208H791.973C791.181 222.208 790.803 221.866 790.803 221.38C790.803 220.75 791.577 220.336 792.657 220.336H793.071C795.753 220.336 797.013 218.554 797.013 216.808C797.013 216.106 796.761 215.386 796.293 214.81V214.468H798.345ZM793.269 219.328C791.559 219.328 790.695 218.14 790.695 216.808C790.695 215.494 791.559 214.36 793.269 214.36C794.961 214.36 795.807 215.476 795.807 216.808C795.807 218.158 794.961 219.328 793.269 219.328ZM803.673 213.316C802.827 213.316 801.981 213.748 801.477 214.648V213.46H800.253V223H801.477V217.132C801.477 215.206 802.305 214.396 803.403 214.396C804.375 214.396 804.699 215.026 804.699 215.98V216.916L805.815 216.7V215.764C805.815 214.144 804.915 213.316 803.673 213.316ZM814.799 223C814.583 222.352 814.403 221.38 814.403 220.3V216.376C814.403 214.738 813.413 213.316 811.055 213.316C809.381 213.316 807.923 214.072 807.203 216.088L808.283 216.412C808.787 214.954 809.795 214.432 810.983 214.432C812.459 214.432 813.215 215.278 813.215 216.52V217.78C812.441 217.51 811.685 217.42 810.911 217.42C808.949 217.42 807.185 218.446 807.185 220.408C807.185 222.046 808.463 223.144 810.155 223.144C811.703 223.144 812.945 222.244 813.431 221.128C813.431 221.848 813.539 222.478 813.683 223H814.799ZM813.215 219.04C813.215 221.362 811.613 222.1 810.371 222.1C809.219 222.1 808.409 221.488 808.409 220.336C808.409 219.076 809.543 218.428 810.983 218.428C811.721 218.428 812.477 218.518 813.215 218.824V219.04ZM823.23 213.46L820.242 221.65L817.254 213.46H815.922L819.666 223H820.746L824.49 213.46H823.23ZM830.713 213.334C829.471 213.334 828.211 214.018 827.581 215.242V213.46H826.357V226.78H827.581V221.272C828.157 222.478 829.237 223.144 830.569 223.144C833.125 223.144 834.781 221.074 834.781 218.14C834.781 215.368 833.143 213.334 830.713 213.334ZM830.569 222.064C828.661 222.064 827.581 220.66 827.581 218.176C827.581 215.836 828.679 214.414 830.587 214.414C832.351 214.414 833.521 215.782 833.521 218.194C833.521 220.696 832.351 222.064 830.569 222.064ZM840.261 222.964V221.884C840.081 221.938 839.883 221.956 839.685 221.956C838.929 221.956 838.497 221.542 838.497 220.732V209.68H837.273V220.732C837.273 222.136 837.975 223.072 839.469 223.072C839.739 223.072 839.973 223.036 840.261 222.964ZM849.603 223C849.387 222.352 849.207 221.38 849.207 220.3V216.376C849.207 214.738 848.217 213.316 845.859 213.316C844.185 213.316 842.727 214.072 842.007 216.088L843.087 216.412C843.591 214.954 844.599 214.432 845.787 214.432C847.263 214.432 848.019 215.278 848.019 216.52V217.78C847.245 217.51 846.489 217.42 845.715 217.42C843.753 217.42 841.989 218.446 841.989 220.408C841.989 222.046 843.267 223.144 844.959 223.144C846.507 223.144 847.749 222.244 848.235 221.128C848.235 221.848 848.343 222.478 848.487 223H849.603ZM848.019 219.04C848.019 221.362 846.417 222.1 845.175 222.1C844.023 222.1 843.213 221.488 843.213 220.336C843.213 219.076 844.347 218.428 845.787 218.428C846.525 218.428 847.281 218.518 848.019 218.824V219.04ZM851.834 215.944C851.834 217.222 852.752 218.104 854.498 218.464L856.046 218.788C857.306 219.058 857.81 219.544 857.81 220.444C857.81 221.416 856.838 222.064 855.362 222.064C853.958 222.064 852.968 221.524 852.518 220.516L851.474 220.948C852.122 222.388 853.472 223.144 855.398 223.144C857.522 223.144 858.998 221.992 858.998 220.336C858.998 218.914 858.026 218.014 855.938 217.6L854.678 217.348C853.544 217.114 853.022 216.628 853.022 215.836C853.022 214.954 853.886 214.396 855.218 214.396C856.442 214.396 857.324 214.882 857.702 215.8L858.71 215.404C858.314 214.144 856.982 213.316 855.254 213.316C853.256 213.316 851.834 214.432 851.834 215.944ZM860.939 215.944C860.939 217.222 861.857 218.104 863.603 218.464L865.151 218.788C866.411 219.058 866.915 219.544 866.915 220.444C866.915 221.416 865.943 222.064 864.467 222.064C863.063 222.064 862.073 221.524 861.623 220.516L860.579 220.948C861.227 222.388 862.577 223.144 864.503 223.144C866.627 223.144 868.103 221.992 868.103 220.336C868.103 218.914 867.131 218.014 865.043 217.6L863.783 217.348C862.649 217.114 862.127 216.628 862.127 215.836C862.127 214.954 862.991 214.396 864.323 214.396C865.547 214.396 866.429 214.882 866.807 215.8L867.815 215.404C867.419 214.144 866.087 213.316 864.359 213.316C862.361 213.316 860.939 214.432 860.939 215.944ZM871.165 220.84C870.499 220.84 870.013 221.326 870.013 221.956C870.013 222.658 870.517 223.072 871.165 223.072C871.309 223.072 871.435 223.054 871.525 223.036C871.669 224.296 870.859 225.052 870.013 225.808L870.445 226.312C872.011 225.088 872.497 223.9 872.497 222.712C872.497 221.488 871.921 220.84 871.165 220.84ZM556.16 238.732C556.754 238.732 557.24 238.264 557.24 237.652C557.24 237.04 556.754 236.572 556.16 236.572C555.566 236.572 555.08 237.04 555.08 237.652C555.08 238.264 555.566 238.732 556.16 238.732ZM555.548 250H556.772V240.46H555.548V250ZM566.386 247.624V241.468H569.482V240.46H566.386V237.688L565.162 238.408V240.46H563.362V241.468H565.162V247.588C565.162 249.28 566.242 250.144 567.538 250.144C568.384 250.144 569.068 249.838 569.698 249.1L569.05 248.38C568.6 248.848 568.222 249.064 567.646 249.064C567.052 249.064 566.386 248.74 566.386 247.624ZM571.466 236.752V238.588H573.338V236.752H571.466ZM571.79 250H573.014V240.46H571.79V250ZM579.102 249.964V248.884C578.922 248.938 578.724 248.956 578.526 248.956C577.77 248.956 577.338 248.542 577.338 247.732V236.68H576.114V247.732C576.114 249.136 576.816 250.072 578.31 250.072C578.58 250.072 578.814 250.036 579.102 249.964ZM584.323 249.964V248.884C584.143 248.938 583.945 248.956 583.747 248.956C582.991 248.956 582.559 248.542 582.559 247.732V236.68H581.335V247.732C581.335 249.136 582.037 250.072 583.531 250.072C583.801 250.072 584.035 250.036 584.323 249.964ZM592.791 247.3C592.341 248.236 591.495 249.064 590.055 249.064C588.219 249.064 587.013 247.984 586.905 245.446H593.583L593.619 244.384C593.619 241.792 591.855 240.316 589.803 240.316C587.319 240.316 585.663 242.314 585.663 245.104C585.663 248.146 587.247 250.144 589.929 250.144C592.053 250.144 593.241 248.956 593.691 247.804L592.791 247.3ZM589.803 241.396C591.207 241.396 592.467 242.296 592.413 244.438H586.905C587.067 242.17 588.363 241.396 589.803 241.396ZM604.598 241.468V240.46H601.862V241.126C601.286 240.64 600.53 240.316 599.54 240.316C597.02 240.316 595.742 242.098 595.742 243.808C595.742 244.978 596.444 246.31 597.704 246.814C596.534 247.12 595.832 247.858 595.832 248.704C595.832 249.694 596.624 250.324 597.956 250.324H602.06C602.924 250.324 603.212 250.72 603.212 251.26C603.212 252.412 601.556 253.006 599.576 253.006C597.974 253.006 596.57 252.7 595.904 251.134L594.914 251.584C595.49 253.258 597.164 254.032 599.576 254.032C602.258 254.032 604.436 253.042 604.436 251.152C604.436 249.964 603.644 249.208 602.096 249.208H598.226C597.434 249.208 597.056 248.866 597.056 248.38C597.056 247.75 597.83 247.336 598.91 247.336H599.324C602.006 247.336 603.266 245.554 603.266 243.808C603.266 243.106 603.014 242.386 602.546 241.81V241.468H604.598ZM599.522 246.328C597.812 246.328 596.948 245.14 596.948 243.808C596.948 242.494 597.812 241.36 599.522 241.36C601.214 241.36 602.06 242.476 602.06 243.808C602.06 245.158 601.214 246.328 599.522 246.328ZM615.075 241.468V240.46H612.339V241.126C611.763 240.64 611.007 240.316 610.017 240.316C607.497 240.316 606.219 242.098 606.219 243.808C606.219 244.978 606.921 246.31 608.181 246.814C607.011 247.12 606.309 247.858 606.309 248.704C606.309 249.694 607.101 250.324 608.433 250.324H612.537C613.401 250.324 613.689 250.72 613.689 251.26C613.689 252.412 612.033 253.006 610.053 253.006C608.451 253.006 607.047 252.7 606.381 251.134L605.391 251.584C605.967 253.258 607.641 254.032 610.053 254.032C612.735 254.032 614.913 253.042 614.913 251.152C614.913 249.964 614.121 249.208 612.573 249.208H608.703C607.911 249.208 607.533 248.866 607.533 248.38C607.533 247.75 608.307 247.336 609.387 247.336H609.801C612.483 247.336 613.743 245.554 613.743 243.808C613.743 243.106 613.491 242.386 613.023 241.81V241.468H615.075ZM609.999 246.328C608.289 246.328 607.425 245.14 607.425 243.808C607.425 242.494 608.289 241.36 609.999 241.36C611.691 241.36 612.537 242.476 612.537 243.808C612.537 245.158 611.691 246.328 609.999 246.328ZM623.497 247.624V241.468H626.593V240.46H623.497V237.688L622.273 238.408V240.46H620.473V241.468H622.273V247.588C622.273 249.28 623.353 250.144 624.649 250.144C625.495 250.144 626.179 249.838 626.809 249.1L626.161 248.38C625.711 248.848 625.333 249.064 624.757 249.064C624.163 249.064 623.497 248.74 623.497 247.624ZM629.514 238.732C630.108 238.732 630.594 238.264 630.594 237.652C630.594 237.04 630.108 236.572 629.514 236.572C628.92 236.572 628.434 237.04 628.434 237.652C628.434 238.264 628.92 238.732 629.514 238.732ZM628.902 250H630.126V240.46H628.902V250ZM636.214 249.964V248.884C636.034 248.938 635.836 248.956 635.638 248.956C634.882 248.956 634.45 248.542 634.45 247.732V236.68H633.226V247.732C633.226 249.136 633.928 250.072 635.422 250.072C635.692 250.072 635.926 250.036 636.214 249.964ZM652.556 240.316C651.332 240.316 650.234 241 649.694 242.26C649.352 241.018 648.398 240.316 646.976 240.316C645.86 240.316 644.852 240.892 644.276 241.954V240.46H643.052V250H644.276V244.636C644.276 242.728 644.978 241.432 646.652 241.432C647.894 241.432 648.632 242.08 648.632 243.628V250H649.856V244.636C649.856 242.728 650.558 241.432 652.232 241.432C653.474 241.432 654.212 242.08 654.212 243.628V250H655.436V243.448C655.436 241.468 654.374 240.316 652.556 240.316ZM665.49 250C665.274 249.352 665.094 248.38 665.094 247.3V243.376C665.094 241.738 664.104 240.316 661.746 240.316C660.072 240.316 658.614 241.072 657.894 243.088L658.974 243.412C659.478 241.954 660.486 241.432 661.674 241.432C663.15 241.432 663.906 242.278 663.906 243.52V244.78C663.132 244.51 662.376 244.42 661.602 244.42C659.64 244.42 657.876 245.446 657.876 247.408C657.876 249.046 659.154 250.144 660.846 250.144C662.394 250.144 663.636 249.244 664.122 248.128C664.122 248.848 664.23 249.478 664.374 250H665.49ZM663.906 246.04C663.906 248.362 662.304 249.1 661.062 249.1C659.91 249.1 659.1 248.488 659.1 247.336C659.1 246.076 660.234 245.428 661.674 245.428C662.412 245.428 663.168 245.518 663.906 245.824V246.04ZM672.185 240.316C671.033 240.316 669.989 240.892 669.413 241.936V240.46H668.189V250H669.413V244.636C669.413 242.728 670.187 241.432 671.861 241.432C673.193 241.432 673.985 242.08 673.985 243.808V250H675.209V243.628C675.209 241.486 674.093 240.316 672.185 240.316ZM686.723 241.468V240.46H683.987V241.126C683.411 240.64 682.655 240.316 681.665 240.316C679.145 240.316 677.867 242.098 677.867 243.808C677.867 244.978 678.569 246.31 679.829 246.814C678.659 247.12 677.957 247.858 677.957 248.704C677.957 249.694 678.749 250.324 680.081 250.324H684.185C685.049 250.324 685.337 250.72 685.337 251.26C685.337 252.412 683.681 253.006 681.701 253.006C680.099 253.006 678.695 252.7 678.029 251.134L677.039 251.584C677.615 253.258 679.289 254.032 681.701 254.032C684.383 254.032 686.561 253.042 686.561 251.152C686.561 249.964 685.769 249.208 684.221 249.208H680.351C679.559 249.208 679.181 248.866 679.181 248.38C679.181 247.75 679.955 247.336 681.035 247.336H681.449C684.131 247.336 685.391 245.554 685.391 243.808C685.391 243.106 685.139 242.386 684.671 241.81V241.468H686.723ZM681.647 246.328C679.937 246.328 679.073 245.14 679.073 243.808C679.073 242.494 679.937 241.36 681.647 241.36C683.339 241.36 684.185 242.476 684.185 243.808C684.185 245.158 683.339 246.328 681.647 246.328ZM694.427 247.3C693.977 248.236 693.131 249.064 691.691 249.064C689.855 249.064 688.649 247.984 688.541 245.446H695.219L695.255 244.384C695.255 241.792 693.491 240.316 691.439 240.316C688.955 240.316 687.299 242.314 687.299 245.104C687.299 248.146 688.883 250.144 691.565 250.144C693.689 250.144 694.877 248.956 695.327 247.804L694.427 247.3ZM691.439 241.396C692.843 241.396 694.103 242.296 694.049 244.438H688.541C688.703 242.17 689.999 241.396 691.439 241.396ZM709.558 250C709.342 249.352 709.162 248.38 709.162 247.3V243.376C709.162 241.738 708.172 240.316 705.814 240.316C704.14 240.316 702.682 241.072 701.962 243.088L703.042 243.412C703.546 241.954 704.554 241.432 705.742 241.432C707.218 241.432 707.974 242.278 707.974 243.52V244.78C707.2 244.51 706.444 244.42 705.67 244.42C703.708 244.42 701.944 245.446 701.944 247.408C701.944 249.046 703.222 250.144 704.914 250.144C706.462 250.144 707.704 249.244 708.19 248.128C708.19 248.848 708.298 249.478 708.442 250H709.558ZM707.974 246.04C707.974 248.362 706.372 249.1 705.13 249.1C703.978 249.1 703.168 248.488 703.168 247.336C703.168 246.076 704.302 245.428 705.742 245.428C706.48 245.428 707.236 245.518 707.974 245.824V246.04ZM716.253 240.316C715.101 240.316 714.057 240.892 713.481 241.936V240.46H712.257V250H713.481V244.636C713.481 242.728 714.255 241.432 715.929 241.432C717.261 241.432 718.053 242.08 718.053 243.808V250H719.277V243.628C719.277 241.486 718.161 240.316 716.253 240.316ZM728.812 236.68V242.188C728.236 240.982 727.156 240.316 725.824 240.316C723.268 240.316 721.612 242.386 721.612 245.32C721.612 248.092 723.25 250.126 725.68 250.126C726.922 250.126 728.182 249.442 728.812 248.218V250H730.036V236.68H728.812ZM725.806 249.046C724.042 249.046 722.872 247.678 722.872 245.266C722.872 242.764 724.042 241.396 725.824 241.396C727.732 241.396 728.812 242.8 728.812 245.284C728.812 247.624 727.714 249.046 725.806 249.046ZM736.472 240.316C735.626 240.316 734.78 240.748 734.276 241.648V240.46H733.052V250H734.276V244.132C734.276 242.206 735.104 241.396 736.202 241.396C737.174 241.396 737.498 242.026 737.498 242.98V243.916L738.614 243.7V242.764C738.614 241.144 737.714 240.316 736.472 240.316ZM747.003 247.3C746.553 248.236 745.707 249.064 744.267 249.064C742.431 249.064 741.225 247.984 741.117 245.446H747.795L747.831 244.384C747.831 241.792 746.067 240.316 744.015 240.316C741.531 240.316 739.875 242.314 739.875 245.104C739.875 248.146 741.459 250.144 744.141 250.144C746.265 250.144 747.453 248.956 747.903 247.804L747.003 247.3ZM744.015 241.396C745.419 241.396 746.679 242.296 746.625 244.438H741.117C741.279 242.17 742.575 241.396 744.015 241.396ZM756.933 247.624V241.468H760.029V240.46H756.933V237.688L755.709 238.408V240.46H753.909V241.468H755.709V247.588C755.709 249.28 756.789 250.144 758.085 250.144C758.931 250.144 759.615 249.838 760.245 249.1L759.597 248.38C759.147 248.848 758.769 249.064 758.193 249.064C757.599 249.064 756.933 248.74 756.933 247.624ZM762.013 236.752V238.588H763.885V236.752H762.013ZM762.337 250H763.561V240.46H762.337V250ZM770.657 240.316C769.505 240.316 768.461 240.892 767.885 241.936V240.46H766.661V250H767.885V244.636C767.885 242.728 768.659 241.432 770.333 241.432C771.665 241.432 772.457 242.08 772.457 243.808V250H773.681V243.628C773.681 241.486 772.565 240.316 770.657 240.316ZM785.196 241.468V240.46H782.46V241.126C781.884 240.64 781.128 240.316 780.138 240.316C777.618 240.316 776.34 242.098 776.34 243.808C776.34 244.978 777.042 246.31 778.302 246.814C777.132 247.12 776.43 247.858 776.43 248.704C776.43 249.694 777.222 250.324 778.554 250.324H782.658C783.522 250.324 783.81 250.72 783.81 251.26C783.81 252.412 782.154 253.006 780.174 253.006C778.572 253.006 777.168 252.7 776.502 251.134L775.512 251.584C776.088 253.258 777.762 254.032 780.174 254.032C782.856 254.032 785.034 253.042 785.034 251.152C785.034 249.964 784.242 249.208 782.694 249.208H778.824C778.032 249.208 777.654 248.866 777.654 248.38C777.654 247.75 778.428 247.336 779.508 247.336H779.922C782.604 247.336 783.864 245.554 783.864 243.808C783.864 243.106 783.612 242.386 783.144 241.81V241.468H785.196ZM780.12 246.328C778.41 246.328 777.546 245.14 777.546 243.808C777.546 242.494 778.41 241.36 780.12 241.36C781.812 241.36 782.658 242.476 782.658 243.808C782.658 245.158 781.812 246.328 780.12 246.328ZM787.829 250.108C788.477 250.108 788.981 249.622 788.981 248.956C788.981 248.29 788.477 247.804 787.829 247.804C787.181 247.804 786.677 248.29 786.677 248.956C786.677 249.622 787.181 250.108 787.829 250.108Z" fill="#2A2859"/>
<path d="M71 153V150H73V153H76V155H73V158H71V155H68V153H71Z" fill="#2A2859"/>
<path fill-rule="evenodd" clip-rule="evenodd" d="M76.41 145.096L74.941 146.565C77.903 147.738 80 150.621 80 154C80 158.418 76.418 162 72 162C68.621 162 65.738 159.903 64.564 156.941L63.499 158.006L50.59 145.097C48.92 143.427 48 141.207 48 138.844C48 136.481 48.92 134.261 50.59 132.59C52.261 130.92 54.481 130 56.844 130C59.206 130 61.427 130.92 63.097 132.59L63.5 132.993L63.903 132.59C65.573 130.92 67.794 130 70.156 130C72.519 130 74.74 130.92 76.41 132.59C78.08 134.26 79 136.481 79 138.843C79 141.205 78.08 143.426 76.41 145.096ZM63.5 155.182L64.033 154.649C64.016 154.435 64 154.219 64 154C64 149.582 67.582 146 72 146C72.219 146 72.435 146.016 72.649 146.033L74.997 143.685C77.671 141.011 77.671 136.677 74.997 134.003C73.66 132.666 71.908 131.998 70.156 131.998C68.404 131.998 66.652 132.666 65.315 134.003L63.5 135.818L61.685 134.003C60.348 132.666 58.596 131.998 56.844 131.998C55.092 131.998 53.34 132.666 52.003 134.003C49.329 136.677 49.329 141.011 52.003 143.685L63.5 155.182ZM66 154C66 157.308 68.692 160 72 160C75.308 160 78 157.308 78 154C78 150.692 75.308 148 72 148C68.692 148 66 150.692 66 154Z" fill="#2A2859"/>
<path d="M100.456 137.24V144.704H92.896V137.24H90.088V155H92.896V147.416H100.456V155H103.264V137.24H100.456ZM115.824 150.992C115.152 152.192 114.072 153.032 112.512 153.032C110.4 153.032 109.08 151.88 108.936 149.192H117.576L117.624 147.608C117.624 144.008 115.152 141.992 112.152 141.992C108.768 141.992 106.296 144.656 106.296 148.52C106.296 152.432 108.576 155.216 112.344 155.216C115.248 155.216 116.928 153.632 117.648 152.048L115.824 150.992ZM112.152 144.104C113.64 144.104 115.032 145.016 115.008 147.272H108.936C109.152 144.968 110.52 144.104 112.152 144.104ZM125.851 154.928V152.696C125.563 152.768 125.299 152.792 125.059 152.792C124.075 152.792 123.427 152.288 123.427 151.184V137.24H120.739V151.376C120.739 153.704 121.891 155.144 124.315 155.144C124.843 155.144 125.347 155.072 125.851 154.928ZM127.813 145.784C127.813 147.608 129.133 148.832 131.533 149.288L133.885 149.744C135.061 149.984 135.589 150.464 135.589 151.328C135.589 152.384 134.485 153.032 132.853 153.032C131.173 153.032 129.949 152.36 129.253 151.184L127.381 152.36C128.365 154.208 130.261 155.216 132.925 155.216C136.069 155.216 138.157 153.608 138.157 151.208C138.157 149.264 136.813 147.992 134.125 147.464L131.989 147.032C130.861 146.816 130.357 146.36 130.357 145.616C130.357 144.704 131.341 144.152 132.781 144.152C134.221 144.152 135.373 144.752 135.949 145.736L137.821 144.584C136.933 142.88 135.277 141.992 132.805 141.992C129.805 141.992 127.813 143.624 127.813 145.784ZM149.466 150.992C148.794 152.192 147.714 153.032 146.154 153.032C144.042 153.032 142.722 151.88 142.578 149.192H151.218L151.266 147.608C151.266 144.008 148.794 141.992 145.794 141.992C142.41 141.992 139.938 144.656 139.938 148.52C139.938 152.432 142.218 155.216 145.986 155.216C148.89 155.216 150.57 153.632 151.29 152.048L149.466 150.992ZM145.794 144.104C147.282 144.104 148.674 145.016 148.65 147.272H142.578C142.794 144.968 144.162 144.104 145.794 144.104ZM165.554 155.24C168.866 155.24 171.578 152.648 171.578 148.568C171.578 144.584 168.89 141.992 165.554 141.992C162.218 141.992 159.53 144.584 159.53 148.568C159.53 152.648 162.242 155.24 165.554 155.24ZM165.554 152.96C163.778 152.96 162.29 151.568 162.29 148.568C162.29 145.544 163.778 144.272 165.554 144.272C167.33 144.272 168.818 145.544 168.818 148.568C168.818 151.568 167.354 152.96 165.554 152.96ZM186.237 144.368V142.28H182.397V143.336C181.677 142.544 180.453 141.992 178.893 141.992C175.365 141.992 173.517 144.32 173.517 146.6C173.517 148.136 174.381 149.768 176.133 150.536C174.549 150.848 173.397 151.88 173.397 153.176C173.397 154.52 174.429 155.6 176.421 155.6H182.205C183.069 155.6 183.381 156.008 183.381 156.56C183.381 157.736 181.605 158.408 179.109 158.408C176.781 158.408 175.389 158 174.789 156.464L172.173 156.968C172.821 159.44 175.317 160.376 179.037 160.376C183.285 160.376 185.949 158.864 185.949 156.248C185.949 154.52 184.701 153.392 182.517 153.392H177.213C176.397 153.392 175.989 153.008 175.989 152.48C175.989 151.712 176.829 151.28 178.125 151.28H178.749C182.445 151.28 184.221 148.976 184.221 146.672C184.221 145.952 184.005 145.256 183.573 144.656V144.368H186.237ZM178.893 149.336C177.069 149.336 176.181 148.04 176.181 146.648C176.181 145.256 177.069 143.984 178.893 143.984C180.741 143.984 181.605 145.256 181.605 146.648C181.605 148.04 180.741 149.336 178.893 149.336ZM199.571 155.24C202.883 155.24 205.595 152.648 205.595 148.568C205.595 144.584 202.907 141.992 199.571 141.992C196.235 141.992 193.547 144.584 193.547 148.568C193.547 152.648 196.259 155.24 199.571 155.24ZM199.571 152.96C197.795 152.96 196.307 151.568 196.307 148.568C196.307 145.544 197.795 144.272 199.571 144.272C201.347 144.272 202.835 145.544 202.835 148.568C202.835 151.568 201.371 152.96 199.571 152.96ZM222.499 141.992C220.795 141.992 219.451 142.832 218.587 144.512C218.035 142.928 216.763 141.992 214.819 141.992C213.283 141.992 212.035 142.712 211.171 144.08V142.28H208.483V155H211.171V148.112C211.171 145.616 212.107 144.32 213.955 144.32C215.347 144.32 216.139 145.088 216.139 146.768V155H218.827V148.112C218.827 145.616 219.763 144.32 221.635 144.32C223.027 144.32 223.819 145.088 223.819 146.768V155H226.507V146.312C226.507 143.648 225.043 141.992 222.499 141.992ZM229.572 145.784C229.572 147.608 230.892 148.832 233.292 149.288L235.644 149.744C236.82 149.984 237.348 150.464 237.348 151.328C237.348 152.384 236.244 153.032 234.612 153.032C232.932 153.032 231.708 152.36 231.012 151.184L229.14 152.36C230.124 154.208 232.02 155.216 234.684 155.216C237.828 155.216 239.916 153.608 239.916 151.208C239.916 149.264 238.572 147.992 235.884 147.464L233.748 147.032C232.62 146.816 232.116 146.36 232.116 145.616C232.116 144.704 233.1 144.152 234.54 144.152C235.98 144.152 237.132 144.752 237.708 145.736L239.58 144.584C238.692 142.88 237.036 141.992 234.564 141.992C231.564 141.992 229.572 143.624 229.572 145.784ZM247.721 155.24C251.033 155.24 253.745 152.648 253.745 148.568C253.745 144.584 251.057 141.992 247.721 141.992C244.385 141.992 241.697 144.584 241.697 148.568C241.697 152.648 244.409 155.24 247.721 155.24ZM247.721 152.96C245.945 152.96 244.457 151.568 244.457 148.568C244.457 145.544 245.945 144.272 247.721 144.272C249.497 144.272 250.985 145.544 250.985 148.568C250.985 151.568 249.521 152.96 247.721 152.96ZM262.465 141.992C261.361 141.992 260.041 142.568 259.321 143.984V142.28H256.633V155H259.321V147.56C259.321 145.136 260.329 144.224 261.697 144.224C262.945 144.224 263.353 145.016 263.353 146.168V147.464L265.513 147.08V145.4C265.513 143.216 264.313 141.992 262.465 141.992ZM279.758 144.368V142.28H275.918V143.336C275.198 142.544 273.974 141.992 272.414 141.992C268.886 141.992 267.038 144.32 267.038 146.6C267.038 148.136 267.902 149.768 269.654 150.536C268.07 150.848 266.918 151.88 266.918 153.176C266.918 154.52 267.95 155.6 269.942 155.6H275.726C276.59 155.6 276.902 156.008 276.902 156.56C276.902 157.736 275.126 158.408 272.63 158.408C270.302 158.408 268.91 158 268.31 156.464L265.694 156.968C266.342 159.44 268.838 160.376 272.558 160.376C276.806 160.376 279.47 158.864 279.47 156.248C279.47 154.52 278.222 153.392 276.038 153.392H270.734C269.918 153.392 269.51 153.008 269.51 152.48C269.51 151.712 270.35 151.28 271.646 151.28H272.27C275.966 151.28 277.742 148.976 277.742 146.672C277.742 145.952 277.526 145.256 277.094 144.656V144.368H279.758ZM272.414 149.336C270.59 149.336 269.702 148.04 269.702 146.648C269.702 145.256 270.59 143.984 272.414 143.984C274.262 143.984 275.126 145.256 275.126 146.648C275.126 148.04 274.262 149.336 272.414 149.336Z" fill="#2A2859"/>
<path d="M97.612 178.68V184.692H90.844V178.68H89.584V192H90.844V185.88H97.612V192H98.872V178.68H97.612ZM108.527 189.3C108.077 190.236 107.231 191.064 105.791 191.064C103.955 191.064 102.749 189.984 102.641 187.446H109.319L109.355 186.384C109.355 183.792 107.591 182.316 105.539 182.316C103.055 182.316 101.399 184.314 101.399 187.104C101.399 190.146 102.983 192.144 105.665 192.144C107.789 192.144 108.977 190.956 109.427 189.804L108.527 189.3ZM105.539 183.396C106.943 183.396 108.203 184.296 108.149 186.438H102.641C102.803 184.17 104.099 183.396 105.539 183.396ZM114.931 191.964V190.884C114.751 190.938 114.553 190.956 114.355 190.956C113.599 190.956 113.167 190.542 113.167 189.732V178.68H111.943V189.732C111.943 191.136 112.645 192.072 114.139 192.072C114.409 192.072 114.643 192.036 114.931 191.964ZM116.695 184.944C116.695 186.222 117.613 187.104 119.359 187.464L120.907 187.788C122.167 188.058 122.671 188.544 122.671 189.444C122.671 190.416 121.699 191.064 120.223 191.064C118.819 191.064 117.829 190.524 117.379 189.516L116.335 189.948C116.983 191.388 118.333 192.144 120.259 192.144C122.383 192.144 123.859 190.992 123.859 189.336C123.859 187.914 122.887 187.014 120.799 186.6L119.539 186.348C118.405 186.114 117.883 185.628 117.883 184.836C117.883 183.954 118.747 183.396 120.079 183.396C121.303 183.396 122.185 183.882 122.563 184.8L123.571 184.404C123.175 183.144 121.843 182.316 120.115 182.316C118.117 182.316 116.695 183.432 116.695 184.944ZM132.785 189.3C132.335 190.236 131.489 191.064 130.049 191.064C128.213 191.064 127.007 189.984 126.899 187.446H133.577L133.613 186.384C133.613 183.792 131.849 182.316 129.797 182.316C127.313 182.316 125.657 184.314 125.657 187.104C125.657 190.146 127.241 192.144 129.923 192.144C132.047 192.144 133.235 190.956 133.685 189.804L132.785 189.3ZM129.797 183.396C131.201 183.396 132.461 184.296 132.407 186.438H126.899C127.061 184.17 128.357 183.396 129.797 183.396ZM140.232 182.316C139.08 182.316 138.036 182.892 137.46 183.936V178.68H136.236V192H137.46V186.636C137.46 184.728 138.234 183.432 139.908 183.432C141.24 183.432 142.032 184.08 142.032 185.808V192H143.256V185.628C143.256 183.486 142.14 182.316 140.232 182.316ZM146.742 180.732C147.336 180.732 147.822 180.264 147.822 179.652C147.822 179.04 147.336 178.572 146.742 178.572C146.148 178.572 145.662 179.04 145.662 179.652C145.662 180.264 146.148 180.732 146.742 180.732ZM145.302 195.906C146.652 195.906 147.354 195.078 147.354 193.458V182.46H146.13V193.386C146.13 194.214 145.968 194.79 145.122 194.79C144.96 194.79 144.726 194.772 144.474 194.682L144.366 195.762C144.672 195.852 144.978 195.906 145.302 195.906ZM156.972 189.3C156.522 190.236 155.676 191.064 154.236 191.064C152.4 191.064 151.194 189.984 151.086 187.446H157.764L157.8 186.384C157.8 183.792 156.036 182.316 153.984 182.316C151.5 182.316 149.844 184.314 149.844 187.104C149.844 190.146 151.428 192.144 154.11 192.144C156.234 192.144 157.422 190.956 157.872 189.804L156.972 189.3ZM153.984 183.396C155.388 183.396 156.648 184.296 156.594 186.438H151.086C151.248 184.17 152.544 183.396 153.984 183.396ZM163.376 191.964V190.884C163.196 190.938 162.998 190.956 162.8 190.956C162.044 190.956 161.612 190.542 161.612 189.732V178.68H160.388V189.732C160.388 191.136 161.09 192.072 162.584 192.072C162.854 192.072 163.088 192.036 163.376 191.964ZM169.965 182.334C168.723 182.334 167.463 183.018 166.833 184.242V182.46H165.609V195.78H166.833V190.272C167.409 191.478 168.489 192.144 169.821 192.144C172.377 192.144 174.033 190.074 174.033 187.14C174.033 184.368 172.395 182.334 169.965 182.334ZM169.821 191.064C167.913 191.064 166.833 189.66 166.833 187.176C166.833 184.836 167.931 183.414 169.839 183.414C171.603 183.414 172.773 184.782 172.773 187.194C172.773 189.696 171.603 191.064 169.821 191.064ZM177.001 189.84C176.335 189.84 175.849 190.326 175.849 190.956C175.849 191.658 176.353 192.072 177.001 192.072C177.145 192.072 177.271 192.054 177.361 192.036C177.505 193.296 176.695 194.052 175.849 194.808L176.281 195.312C177.847 194.088 178.333 192.9 178.333 191.712C178.333 190.488 177.757 189.84 177.001 189.84ZM191.623 192H193.171L188.941 186.456L193.099 182.46H191.479L186.943 186.942V178.68H185.719V192H186.943V188.382L188.113 187.266L191.623 192ZM198.143 192.144C200.501 192.144 202.391 190.2 202.391 187.212C202.391 184.26 200.519 182.316 198.143 182.316C195.767 182.316 193.895 184.26 193.895 187.212C193.895 190.2 195.785 192.144 198.143 192.144ZM198.143 191.064C196.505 191.064 195.155 189.768 195.155 187.212C195.155 184.674 196.523 183.396 198.143 183.396C199.763 183.396 201.131 184.674 201.131 187.212C201.131 189.768 199.781 191.064 198.143 191.064ZM208.298 182.316C207.452 182.316 206.606 182.748 206.102 183.648V182.46H204.878V192H206.102V186.132C206.102 184.206 206.93 183.396 208.028 183.396C209 183.396 209.324 184.026 209.324 184.98V185.916L210.44 185.7V184.764C210.44 183.144 209.54 182.316 208.298 182.316ZM215.95 192.144C218.308 192.144 220.198 190.2 220.198 187.212C220.198 184.26 218.326 182.316 215.95 182.316C213.574 182.316 211.702 184.26 211.702 187.212C211.702 190.2 213.592 192.144 215.95 192.144ZM215.95 191.064C214.312 191.064 212.962 189.768 212.962 187.212C212.962 184.674 214.33 183.396 215.95 183.396C217.57 183.396 218.938 184.674 218.938 187.212C218.938 189.768 217.588 191.064 215.95 191.064ZM226.681 182.316C225.529 182.316 224.485 182.892 223.909 183.936V182.46H222.685V192H223.909V186.636C223.909 184.728 224.683 183.432 226.357 183.432C227.689 183.432 228.481 184.08 228.481 185.808V192H229.705V185.628C229.705 183.486 228.589 182.316 226.681 182.316ZM239.762 192C239.546 191.352 239.366 190.38 239.366 189.3V185.376C239.366 183.738 238.376 182.316 236.018 182.316C234.344 182.316 232.886 183.072 232.166 185.088L233.246 185.412C233.75 183.954 234.758 183.432 235.946 183.432C237.422 183.432 238.178 184.278 238.178 185.52V186.78C237.404 186.51 236.648 186.42 235.874 186.42C233.912 186.42 232.148 187.446 232.148 189.408C232.148 191.046 233.426 192.144 235.118 192.144C236.666 192.144 237.908 191.244 238.394 190.128C238.394 190.848 238.502 191.478 238.646 192H239.762ZM238.178 188.04C238.178 190.362 236.576 191.1 235.334 191.1C234.182 191.1 233.372 190.488 233.372 189.336C233.372 188.076 234.506 187.428 235.946 187.428C236.684 187.428 237.44 187.518 238.178 187.824V188.04ZM248.193 182.46L245.205 190.65L242.217 182.46H240.885L244.629 192H245.709L249.453 182.46H248.193ZM250.995 178.752V180.588H252.867V178.752H250.995ZM251.319 192H252.543V182.46H251.319V192ZM259.064 182.316C258.218 182.316 257.372 182.748 256.868 183.648V182.46H255.644V192H256.868V186.132C256.868 184.206 257.696 183.396 258.794 183.396C259.766 183.396 260.09 184.026 260.09 184.98V185.916L261.206 185.7V184.764C261.206 183.144 260.306 182.316 259.064 182.316ZM268.992 182.46V187.824C268.992 189.696 268.272 191.046 266.58 191.046C265.248 191.046 264.456 190.326 264.456 188.76V182.46H263.232V188.868C263.232 190.938 264.366 192.144 266.238 192.144C267.408 192.144 268.416 191.568 268.992 190.542V192H270.216V182.46H268.992ZM272.771 184.944C272.771 186.222 273.689 187.104 275.435 187.464L276.983 187.788C278.243 188.058 278.747 188.544 278.747 189.444C278.747 190.416 277.775 191.064 276.299 191.064C274.895 191.064 273.905 190.524 273.455 189.516L272.411 189.948C273.059 191.388 274.409 192.144 276.335 192.144C278.459 192.144 279.935 190.992 279.935 189.336C279.935 187.914 278.963 187.014 276.875 186.6L275.615 186.348C274.481 186.114 273.959 185.628 273.959 184.836C273.959 183.954 274.823 183.396 276.155 183.396C277.379 183.396 278.261 183.882 278.639 184.8L279.647 184.404C279.251 183.144 277.919 182.316 276.191 182.316C274.193 182.316 272.771 183.432 272.771 184.944ZM282.997 189.84C282.331 189.84 281.845 190.326 281.845 190.956C281.845 191.658 282.349 192.072 282.997 192.072C283.141 192.072 283.267 192.054 283.357 192.036C283.501 193.296 282.691 194.052 281.845 194.808L282.277 195.312C283.843 194.088 284.329 192.9 284.329 191.712C284.329 190.488 283.753 189.84 282.997 189.84ZM296.071 182.334C294.829 182.334 293.569 183.018 292.939 184.242V178.68H291.715V192H292.939V190.272C293.515 191.478 294.595 192.144 295.927 192.144C298.483 192.144 300.139 190.074 300.139 187.14C300.139 184.368 298.501 182.334 296.071 182.334ZM295.927 191.064C294.019 191.064 292.939 189.66 292.939 187.176C292.939 184.836 294.037 183.414 295.945 183.414C297.709 183.414 298.879 184.782 298.879 187.194C298.879 189.696 297.709 191.064 295.927 191.064ZM309.74 192C309.524 191.352 309.344 190.38 309.344 189.3V185.376C309.344 183.738 308.354 182.316 305.996 182.316C304.322 182.316 302.864 183.072 302.144 185.088L303.224 185.412C303.728 183.954 304.736 183.432 305.924 183.432C307.4 183.432 308.156 184.278 308.156 185.52V186.78C307.382 186.51 306.626 186.42 305.852 186.42C303.89 186.42 302.126 187.446 302.126 189.408C302.126 191.046 303.404 192.144 305.096 192.144C306.644 192.144 307.886 191.244 308.372 190.128C308.372 190.848 308.48 191.478 308.624 192H309.74ZM308.156 188.04C308.156 190.362 306.554 191.1 305.312 191.1C304.16 191.1 303.35 190.488 303.35 189.336C303.35 188.076 304.484 187.428 305.924 187.428C306.662 187.428 307.418 187.518 308.156 187.824V188.04ZM315.859 182.316C315.013 182.316 314.167 182.748 313.663 183.648V182.46H312.439V192H313.663V186.132C313.663 184.206 314.491 183.396 315.589 183.396C316.561 183.396 316.885 184.026 316.885 184.98V185.916L318.001 185.7V184.764C318.001 183.144 317.101 182.316 315.859 182.316ZM324.415 182.316C323.263 182.316 322.219 182.892 321.643 183.936V182.46H320.419V192H321.643V186.636C321.643 184.728 322.417 183.432 324.091 183.432C325.423 183.432 326.215 184.08 326.215 185.808V192H327.439V185.628C327.439 183.486 326.323 182.316 324.415 182.316ZM336.902 189.3C336.452 190.236 335.606 191.064 334.166 191.064C332.33 191.064 331.124 189.984 331.016 187.446H337.694L337.73 186.384C337.73 183.792 335.966 182.316 333.914 182.316C331.43 182.316 329.774 184.314 329.774 187.104C329.774 190.146 331.358 192.144 334.04 192.144C336.164 192.144 337.352 190.956 337.802 189.804L336.902 189.3ZM333.914 183.396C335.318 183.396 336.578 184.296 336.524 186.438H331.016C331.178 184.17 332.474 183.396 333.914 183.396ZM346.226 182.46L343.238 190.65L340.25 182.46H338.918L342.662 192H343.742L347.486 182.46H346.226ZM355.517 189.3C355.067 190.236 354.221 191.064 352.781 191.064C350.945 191.064 349.739 189.984 349.631 187.446H356.309L356.345 186.384C356.345 183.792 354.581 182.316 352.529 182.316C350.045 182.316 348.389 184.314 348.389 187.104C348.389 190.146 349.973 192.144 352.655 192.144C354.779 192.144 355.967 190.956 356.417 189.804L355.517 189.3ZM352.529 183.396C353.933 183.396 355.193 184.296 355.139 186.438H349.631C349.793 184.17 351.089 183.396 352.529 183.396ZM362.353 182.316C361.507 182.316 360.661 182.748 360.157 183.648V182.46H358.933V192H360.157V186.132C360.157 184.206 360.985 183.396 362.083 183.396C363.055 183.396 363.379 184.026 363.379 184.98V185.916L364.495 185.7V184.764C364.495 183.144 363.595 182.316 362.353 182.316ZM370.909 182.316C369.757 182.316 368.713 182.892 368.137 183.936V182.46H366.913V192H368.137V186.636C368.137 184.728 368.911 183.432 370.585 183.432C371.917 183.432 372.709 184.08 372.709 185.808V192H373.933V185.628C373.933 183.486 372.817 182.316 370.909 182.316ZM377.708 189.84C377.042 189.84 376.556 190.326 376.556 190.956C376.556 191.658 377.06 192.072 377.708 192.072C377.852 192.072 377.978 192.054 378.068 192.036C378.212 193.296 377.402 194.052 376.556 194.808L376.988 195.312C378.554 194.088 379.04 192.9 379.04 191.712C379.04 190.488 378.464 189.84 377.708 189.84ZM93.904 209.334C92.662 209.334 91.402 210.018 90.772 211.242V209.46H89.548V222.78H90.772V217.272C91.348 218.478 92.428 219.144 93.76 219.144C96.316 219.144 97.972 217.074 97.972 214.14C97.972 211.368 96.334 209.334 93.904 209.334ZM93.76 218.064C91.852 218.064 90.772 216.66 90.772 214.176C90.772 211.836 91.87 210.414 93.778 210.414C95.542 210.414 96.712 211.782 96.712 214.194C96.712 216.696 95.542 218.064 93.76 218.064ZM99.996 211.944C99.996 213.222 100.914 214.104 102.66 214.464L104.208 214.788C105.468 215.058 105.972 215.544 105.972 216.444C105.972 217.416 105 218.064 103.524 218.064C102.12 218.064 101.13 217.524 100.68 216.516L99.636 216.948C100.284 218.388 101.634 219.144 103.56 219.144C105.684 219.144 107.16 217.992 107.16 216.336C107.16 214.914 106.188 214.014 104.1 213.6L102.84 213.348C101.706 213.114 101.184 212.628 101.184 211.836C101.184 210.954 102.048 210.396 103.38 210.396C104.604 210.396 105.486 210.882 105.864 211.8L106.872 211.404C106.476 210.144 105.144 209.316 103.416 209.316C101.418 209.316 99.996 210.432 99.996 211.944ZM115.167 209.46L112.179 217.722L109.299 209.46H107.967L111.549 219.162L110.991 220.512C110.523 221.61 110.055 221.898 109.389 221.898C108.975 221.898 108.633 221.754 108.273 221.43L107.733 222.312C108.183 222.726 108.777 222.96 109.425 222.96C110.901 222.96 111.603 221.934 112.233 220.314L116.427 209.46H115.167ZM124.351 219H125.899L121.669 213.456L125.827 209.46H124.207L119.671 213.942V205.68H118.447V219H119.671V215.382L120.841 214.266L124.351 219ZM128.392 207.732C128.986 207.732 129.472 207.264 129.472 206.652C129.472 206.04 128.986 205.572 128.392 205.572C127.798 205.572 127.312 206.04 127.312 206.652C127.312 207.264 127.798 207.732 128.392 207.732ZM127.78 219H129.004V209.46H127.78V219ZM131.637 211.944C131.637 213.222 132.555 214.104 134.301 214.464L135.849 214.788C137.109 215.058 137.613 215.544 137.613 216.444C137.613 217.416 136.641 218.064 135.165 218.064C133.761 218.064 132.771 217.524 132.321 216.516L131.277 216.948C131.925 218.388 133.275 219.144 135.201 219.144C137.325 219.144 138.801 217.992 138.801 216.336C138.801 214.914 137.829 214.014 135.741 213.6L134.481 213.348C133.347 213.114 132.825 212.628 132.825 211.836C132.825 210.954 133.689 210.396 135.021 210.396C136.245 210.396 137.127 210.882 137.505 211.8L138.513 211.404C138.117 210.144 136.785 209.316 135.057 209.316C133.059 209.316 131.637 210.432 131.637 211.944ZM147.15 219H148.698L144.468 213.456L148.626 209.46H147.006L142.47 213.942V205.68H141.246V219H142.47V215.382L143.64 214.266L147.15 219ZM159.393 209.316C158.241 209.316 157.197 209.892 156.621 210.936V205.68H155.397V219H156.621V213.636C156.621 211.728 157.395 210.432 159.069 210.432C160.401 210.432 161.193 211.08 161.193 212.808V219H162.417V212.628C162.417 210.486 161.301 209.316 159.393 209.316ZM171.878 216.3C171.428 217.236 170.582 218.064 169.142 218.064C167.306 218.064 166.1 216.984 165.992 214.446H172.67L172.706 213.384C172.706 210.792 170.942 209.316 168.89 209.316C166.406 209.316 164.75 211.314 164.75 214.104C164.75 217.146 166.334 219.144 169.016 219.144C171.14 219.144 172.328 217.956 172.778 216.804L171.878 216.3ZM168.89 210.396C170.294 210.396 171.554 211.296 171.5 213.438H165.992C166.154 211.17 167.45 210.396 168.89 210.396ZM178.282 218.964V217.884C178.102 217.938 177.904 217.956 177.706 217.956C176.95 217.956 176.518 217.542 176.518 216.732V205.68H175.294V216.732C175.294 218.136 175.996 219.072 177.49 219.072C177.76 219.072 177.994 219.036 178.282 218.964ZM180.047 211.944C180.047 213.222 180.965 214.104 182.711 214.464L184.259 214.788C185.519 215.058 186.023 215.544 186.023 216.444C186.023 217.416 185.051 218.064 183.575 218.064C182.171 218.064 181.181 217.524 180.731 216.516L179.687 216.948C180.335 218.388 181.685 219.144 183.611 219.144C185.735 219.144 187.211 217.992 187.211 216.336C187.211 214.914 186.239 214.014 184.151 213.6L182.891 213.348C181.757 213.114 181.235 212.628 181.235 211.836C181.235 210.954 182.099 210.396 183.431 210.396C184.655 210.396 185.537 210.882 185.915 211.8L186.923 211.404C186.527 210.144 185.195 209.316 183.467 209.316C181.469 209.316 180.047 210.432 180.047 211.944ZM196.136 216.3C195.686 217.236 194.84 218.064 193.4 218.064C191.564 218.064 190.358 216.984 190.25 214.446H196.928L196.964 213.384C196.964 210.792 195.2 209.316 193.148 209.316C190.664 209.316 189.008 211.314 189.008 214.104C189.008 217.146 190.592 219.144 193.274 219.144C195.398 219.144 196.586 217.956 197.036 216.804L196.136 216.3ZM193.148 210.396C194.552 210.396 195.812 211.296 195.758 213.438H190.25C190.412 211.17 191.708 210.396 193.148 210.396ZM200.204 216.84C199.538 216.84 199.052 217.326 199.052 217.956C199.052 218.658 199.556 219.072 200.204 219.072C200.348 219.072 200.474 219.054 200.564 219.036C200.708 220.296 199.898 221.052 199.052 221.808L199.484 222.312C201.05 221.088 201.536 219.9 201.536 218.712C201.536 217.488 200.96 216.84 200.204 216.84ZM217.454 210.468V209.46H214.718V210.126C214.142 209.64 213.386 209.316 212.396 209.316C209.876 209.316 208.598 211.098 208.598 212.808C208.598 213.978 209.3 215.31 210.56 215.814C209.39 216.12 208.688 216.858 208.688 217.704C208.688 218.694 209.48 219.324 210.812 219.324H214.916C215.78 219.324 216.068 219.72 216.068 220.26C216.068 221.412 214.412 222.006 212.432 222.006C210.83 222.006 209.426 221.7 208.76 220.134L207.77 220.584C208.346 222.258 210.02 223.032 212.432 223.032C215.114 223.032 217.292 222.042 217.292 220.152C217.292 218.964 216.5 218.208 214.952 218.208H211.082C210.29 218.208 209.912 217.866 209.912 217.38C209.912 216.75 210.686 216.336 211.766 216.336H212.18C214.862 216.336 216.122 214.554 216.122 212.808C216.122 212.106 215.87 211.386 215.402 210.81V210.468H217.454ZM212.378 215.328C210.668 215.328 209.804 214.14 209.804 212.808C209.804 211.494 210.668 210.36 212.378 210.36C214.07 210.36 214.916 211.476 214.916 212.808C214.916 214.158 214.07 215.328 212.378 215.328ZM222.782 209.316C221.936 209.316 221.09 209.748 220.586 210.648V209.46H219.362V219H220.586V213.132C220.586 211.206 221.414 210.396 222.512 210.396C223.484 210.396 223.808 211.026 223.808 211.98V212.916L224.924 212.7V211.764C224.924 210.144 224.024 209.316 222.782 209.316ZM233.908 219C233.692 218.352 233.512 217.38 233.512 216.3V212.376C233.512 210.738 232.522 209.316 230.164 209.316C228.49 209.316 227.032 210.072 226.312 212.088L227.392 212.412C227.896 210.954 228.904 210.432 230.092 210.432C231.568 210.432 232.324 211.278 232.324 212.52V213.78C231.55 213.51 230.794 213.42 230.02 213.42C228.058 213.42 226.294 214.446 226.294 216.408C226.294 218.046 227.572 219.144 229.264 219.144C230.812 219.144 232.054 218.244 232.54 217.128C232.54 217.848 232.648 218.478 232.792 219H233.908ZM232.324 215.04C232.324 217.362 230.722 218.1 229.48 218.1C228.328 218.1 227.518 217.488 227.518 216.336C227.518 215.076 228.652 214.428 230.092 214.428C230.83 214.428 231.586 214.518 232.324 214.824V215.04ZM242.339 209.46L239.351 217.65L236.363 209.46H235.031L238.775 219H239.855L243.599 209.46H242.339ZM249.822 209.334C248.58 209.334 247.32 210.018 246.69 211.242V209.46H245.466V222.78H246.69V217.272C247.266 218.478 248.346 219.144 249.678 219.144C252.234 219.144 253.89 217.074 253.89 214.14C253.89 211.368 252.252 209.334 249.822 209.334ZM249.678 218.064C247.77 218.064 246.69 216.66 246.69 214.176C246.69 211.836 247.788 210.414 249.696 210.414C251.46 210.414 252.63 211.782 252.63 214.194C252.63 216.696 251.46 218.064 249.678 218.064ZM259.37 218.964V217.884C259.19 217.938 258.992 217.956 258.794 217.956C258.038 217.956 257.606 217.542 257.606 216.732V205.68H256.382V216.732C256.382 218.136 257.084 219.072 258.578 219.072C258.848 219.072 259.082 219.036 259.37 218.964ZM268.713 219C268.497 218.352 268.317 217.38 268.317 216.3V212.376C268.317 210.738 267.327 209.316 264.969 209.316C263.295 209.316 261.837 210.072 261.117 212.088L262.197 212.412C262.701 210.954 263.709 210.432 264.897 210.432C266.373 210.432 267.129 211.278 267.129 212.52V213.78C266.355 213.51 265.599 213.42 264.825 213.42C262.863 213.42 261.099 214.446 261.099 216.408C261.099 218.046 262.377 219.144 264.069 219.144C265.617 219.144 266.859 218.244 267.345 217.128C267.345 217.848 267.453 218.478 267.597 219H268.713ZM267.129 215.04C267.129 217.362 265.527 218.1 264.285 218.1C263.133 218.1 262.323 217.488 262.323 216.336C262.323 215.076 263.457 214.428 264.897 214.428C265.635 214.428 266.391 214.518 267.129 214.824V215.04ZM270.943 211.944C270.943 213.222 271.861 214.104 273.607 214.464L275.155 214.788C276.415 215.058 276.919 215.544 276.919 216.444C276.919 217.416 275.947 218.064 274.471 218.064C273.067 218.064 272.077 217.524 271.627 216.516L270.583 216.948C271.231 218.388 272.581 219.144 274.507 219.144C276.631 219.144 278.107 217.992 278.107 216.336C278.107 214.914 277.135 214.014 275.047 213.6L273.787 213.348C272.653 213.114 272.131 212.628 272.131 211.836C272.131 210.954 272.995 210.396 274.327 210.396C275.551 210.396 276.433 210.882 276.811 211.8L277.819 211.404C277.423 210.144 276.091 209.316 274.363 209.316C272.365 209.316 270.943 210.432 270.943 211.944ZM280.049 211.944C280.049 213.222 280.967 214.104 282.713 214.464L284.261 214.788C285.521 215.058 286.025 215.544 286.025 216.444C286.025 217.416 285.053 218.064 283.577 218.064C282.173 218.064 281.183 217.524 280.733 216.516L279.689 216.948C280.337 218.388 281.687 219.144 283.613 219.144C285.737 219.144 287.213 217.992 287.213 216.336C287.213 214.914 286.241 214.014 284.153 213.6L282.893 213.348C281.759 213.114 281.237 212.628 281.237 211.836C281.237 210.954 282.101 210.396 283.433 210.396C284.657 210.396 285.539 210.882 285.917 211.8L286.925 211.404C286.529 210.144 285.197 209.316 283.469 209.316C281.471 209.316 280.049 210.432 280.049 211.944ZM289.374 216.984V219H291.318V216.984H289.374Z" fill="#2A2859"/>
</g>
<defs>
<clipPath id="clip0_4799_152453">
<rect width="922" height="301" fill="white"/>
</clipPath>
</defs>
</svg>
