<svg width="1128" height="96" viewBox="0 0 1128 96" fill="none" xmlns="http://www.w3.org/2000/svg">
<g clip-path="url(#clip0_4799_151658)">
<rect width="1128" height="96" fill="white"/>
<g clip-path="url(#clip1_4799_151658)">
<rect width="1128" height="96" fill="white"/>
<path fill-rule="evenodd" clip-rule="evenodd" d="M25.1429 15.8571L15.1429 5.85714L10.8571 10.1429L16.5714 15.8571L10.8571 21.5714L15.1429 25.8571L25.1429 15.8571ZM8 10.1429L15.1429 3L28 15.8571L15.1429 28.7143L8 21.5714L13.7143 15.8571L8 10.1429Z" fill="#2A2859"/>
<path d="M41.656 12.184C41.656 14.872 43.528 16.528 46.384 16.96L49.408 17.44C51.136 17.728 52.072 18.4 52.072 19.888C52.072 21.52 50.608 22.72 48.232 22.72C46.576 22.72 44.656 22.144 43.528 20.104L41.176 21.616C42.688 24.184 45.184 25.24 48.208 25.24C52.456 25.24 55 22.792 55 19.792C55 16.936 52.84 15.256 49.744 14.776L47.008 14.368C45.28 14.08 44.488 13.24 44.488 11.968C44.488 10.432 45.904 9.496 47.992 9.496C49.744 9.496 51.376 10.336 52.144 11.776L54.472 10.336C53.104 7.984 50.848 7 48.016 7C44.56 7 41.656 9.04 41.656 12.184ZM66.1897 25H69.4057L64.1017 17.416L69.3097 12.28H65.9977L60.8617 17.56V7.24H58.1737V25H60.8617V20.608L62.3257 19.168L66.1897 25ZM76.0963 25.24C79.4083 25.24 82.1203 22.648 82.1203 18.568C82.1203 14.584 79.4323 11.992 76.0963 11.992C72.7603 11.992 70.0723 14.584 70.0723 18.568C70.0723 22.648 72.7843 25.24 76.0963 25.24ZM76.0963 22.96C74.3203 22.96 72.8323 21.568 72.8323 18.568C72.8323 15.544 74.3203 14.272 76.0963 14.272C77.8723 14.272 79.3603 15.544 79.3603 18.568C79.3603 21.568 77.8963 22.96 76.0963 22.96ZM89.9794 24.928V22.696C89.6914 22.768 89.4274 22.792 89.1874 22.792C88.2034 22.792 87.5554 22.288 87.5554 21.184V7.24H84.8674V21.376C84.8674 23.704 86.0194 25.144 88.4434 25.144C88.9714 25.144 89.4754 25.072 89.9794 24.928ZM101.068 20.992C100.396 22.192 99.3155 23.032 97.7555 23.032C95.6435 23.032 94.3235 21.88 94.1795 19.192H102.82L102.868 17.608C102.868 14.008 100.396 11.992 97.3955 11.992C94.0115 11.992 91.5395 14.656 91.5395 18.52C91.5395 22.432 93.8195 25.216 97.5875 25.216C100.492 25.216 102.172 23.632 102.892 22.048L101.068 20.992ZM97.3955 14.104C98.8835 14.104 100.276 15.016 100.252 17.272H94.1795C94.3955 14.968 95.7635 14.104 97.3955 14.104ZM111.215 25.24C114.527 25.24 117.239 22.648 117.239 18.568C117.239 14.584 114.551 11.992 111.215 11.992C107.879 11.992 105.191 14.584 105.191 18.568C105.191 22.648 107.903 25.24 111.215 25.24ZM111.215 22.96C109.439 22.96 107.951 21.568 107.951 18.568C107.951 15.544 109.439 14.272 111.215 14.272C112.991 14.272 114.479 15.544 114.479 18.568C114.479 21.568 113.015 22.96 111.215 22.96ZM127.887 12.28L124.527 22.192L121.167 12.28H118.191L123.039 25H125.799L130.671 12.28H127.887ZM141.132 20.992C140.46 22.192 139.38 23.032 137.82 23.032C135.708 23.032 134.388 21.88 134.244 19.192H142.884L142.932 17.608C142.932 14.008 140.46 11.992 137.46 11.992C134.076 11.992 131.604 14.656 131.604 18.52C131.604 22.432 133.884 25.216 137.652 25.216C140.556 25.216 142.236 23.632 142.956 22.048L141.132 20.992ZM137.46 14.104C138.948 14.104 140.34 15.016 140.316 17.272H134.244C134.46 14.968 135.828 14.104 137.46 14.104ZM151.879 11.992C150.775 11.992 149.455 12.568 148.735 13.984V12.28H146.047V25H148.735V17.56C148.735 15.136 149.743 14.224 151.111 14.224C152.359 14.224 152.767 15.016 152.767 16.168V17.464L154.927 17.08V15.4C154.927 13.216 153.727 11.992 151.879 11.992ZM156.683 15.784C156.683 17.608 158.003 18.832 160.403 19.288L162.755 19.744C163.931 19.984 164.459 20.464 164.459 21.328C164.459 22.384 163.355 23.032 161.723 23.032C160.043 23.032 158.819 22.36 158.123 21.184L156.251 22.36C157.235 24.208 159.131 25.216 161.795 25.216C164.939 25.216 167.027 23.608 167.027 21.208C167.027 19.264 165.683 17.992 162.995 17.464L160.859 17.032C159.731 16.816 159.227 16.36 159.227 15.616C159.227 14.704 160.211 14.152 161.651 14.152C163.091 14.152 164.243 14.752 164.819 15.736L166.691 14.584C165.803 12.88 164.147 11.992 161.675 11.992C158.675 11.992 156.683 13.624 156.683 15.784ZM171.202 10.168C172.258 10.168 173.074 9.352 173.074 8.272C173.074 7.192 172.258 6.376 171.202 6.376C170.146 6.376 169.306 7.192 169.306 8.272C169.306 9.352 170.146 10.168 171.202 10.168ZM169.858 25H172.546V12.28H169.858V25ZM184.471 25H187.687L182.383 17.416L187.591 12.28H184.279L179.143 17.56V7.24H176.455V25H179.143V20.608L180.607 19.168L184.471 25ZM193.074 21.064V14.368H197.562V12.28H193.074V8.224L190.386 9.448V12.28H188.154V14.368H190.386V21.232C190.386 23.872 192.186 25.216 194.394 25.216C195.762 25.216 196.818 24.76 197.778 23.8L196.626 22.072C196.074 22.624 195.522 22.912 194.826 22.912C193.938 22.912 193.074 22.48 193.074 21.064ZM211.345 25.24C214.657 25.24 217.369 22.648 217.369 18.568C217.369 14.584 214.681 11.992 211.345 11.992C208.009 11.992 205.321 14.584 205.321 18.568C205.321 22.648 208.033 25.24 211.345 25.24ZM211.345 22.96C209.569 22.96 208.081 21.568 208.081 18.568C208.081 15.544 209.569 14.272 211.345 14.272C213.121 14.272 214.609 15.544 214.609 18.568C214.609 21.568 213.145 22.96 211.345 22.96ZM232.027 14.368V12.28H228.187V13.336C227.467 12.544 226.243 11.992 224.683 11.992C221.155 11.992 219.307 14.32 219.307 16.6C219.307 18.136 220.171 19.768 221.923 20.536C220.339 20.848 219.187 21.88 219.187 23.176C219.187 24.52 220.219 25.6 222.211 25.6H227.995C228.859 25.6 229.171 26.008 229.171 26.56C229.171 27.736 227.395 28.408 224.899 28.408C222.571 28.408 221.179 28 220.579 26.464L217.963 26.968C218.611 29.44 221.107 30.376 224.827 30.376C229.075 30.376 231.739 28.864 231.739 26.248C231.739 24.52 230.491 23.392 228.307 23.392H223.003C222.187 23.392 221.779 23.008 221.779 22.48C221.779 21.712 222.619 21.28 223.915 21.28H224.539C228.235 21.28 230.011 18.976 230.011 16.672C230.011 15.952 229.795 15.256 229.363 14.656V14.368H232.027ZM224.683 19.336C222.859 19.336 221.971 18.04 221.971 16.648C221.971 15.256 222.859 13.984 224.683 13.984C226.531 13.984 227.395 15.256 227.395 16.648C227.395 18.04 226.531 19.336 224.683 19.336ZM239.458 15.784C239.458 17.608 240.778 18.832 243.178 19.288L245.53 19.744C246.706 19.984 247.234 20.464 247.234 21.328C247.234 22.384 246.13 23.032 244.498 23.032C242.818 23.032 241.594 22.36 240.898 21.184L239.026 22.36C240.01 24.208 241.906 25.216 244.57 25.216C247.714 25.216 249.802 23.608 249.802 21.208C249.802 19.264 248.458 17.992 245.77 17.464L243.634 17.032C242.506 16.816 242.002 16.36 242.002 15.616C242.002 14.704 242.986 14.152 244.426 14.152C245.866 14.152 247.018 14.752 247.594 15.736L249.466 14.584C248.578 12.88 246.922 11.992 244.45 11.992C241.45 11.992 239.458 13.624 239.458 15.784ZM260.649 25H263.865L258.561 17.416L263.769 12.28H260.457L255.321 17.56V7.24H252.633V25H255.321V20.608L256.785 19.168L260.649 25ZM270.556 25.24C273.868 25.24 276.58 22.648 276.58 18.568C276.58 14.584 273.892 11.992 270.556 11.992C267.22 11.992 264.532 14.584 264.532 18.568C264.532 22.648 267.244 25.24 270.556 25.24ZM270.556 22.96C268.78 22.96 267.292 21.568 267.292 18.568C267.292 15.544 268.78 14.272 270.556 14.272C272.332 14.272 273.82 15.544 273.82 18.568C273.82 21.568 272.356 22.96 270.556 22.96ZM284.439 24.928V22.696C284.151 22.768 283.887 22.792 283.647 22.792C282.663 22.792 282.015 22.288 282.015 21.184V7.24H279.327V21.376C279.327 23.704 280.479 25.144 282.903 25.144C283.431 25.144 283.935 25.072 284.439 24.928ZM295.527 20.992C294.855 22.192 293.775 23.032 292.215 23.032C290.103 23.032 288.783 21.88 288.639 19.192H297.279L297.327 17.608C297.327 14.008 294.855 11.992 291.855 11.992C288.471 11.992 285.999 14.656 285.999 18.52C285.999 22.432 288.279 25.216 292.047 25.216C294.951 25.216 296.631 23.632 297.351 22.048L295.527 20.992ZM291.855 14.104C293.343 14.104 294.735 15.016 294.711 17.272H288.639C288.855 14.968 290.223 14.104 291.855 14.104ZM308.458 25H311.674L306.37 17.416L311.578 12.28H308.266L303.13 17.56V7.24H300.442V25H303.13V20.608L304.594 19.168L308.458 25ZM319.692 11.992C318.588 11.992 317.268 12.568 316.548 13.984V12.28H313.86V25H316.548V17.56C316.548 15.136 317.556 14.224 318.924 14.224C320.172 14.224 320.58 15.016 320.58 16.168V17.464L322.74 17.08V15.4C322.74 13.216 321.54 11.992 319.692 11.992ZM333.646 20.992C332.974 22.192 331.894 23.032 330.334 23.032C328.222 23.032 326.902 21.88 326.758 19.192H335.398L335.446 17.608C335.446 14.008 332.974 11.992 329.974 11.992C326.59 11.992 324.118 14.656 324.118 18.52C324.118 22.432 326.398 25.216 330.166 25.216C333.07 25.216 334.75 23.632 335.47 22.048L333.646 20.992ZM329.974 14.104C331.462 14.104 332.854 15.016 332.83 17.272H326.758C326.974 14.968 328.342 14.104 329.974 14.104ZM341.927 21.064V14.368H346.415V12.28H341.927V8.224L339.239 9.448V12.28H337.007V14.368H339.239V21.232C339.239 23.872 341.039 25.216 343.247 25.216C344.615 25.216 345.671 24.76 346.631 23.8L345.479 22.072C344.927 22.624 344.375 22.912 343.679 22.912C342.791 22.912 341.927 22.48 341.927 21.064ZM348.002 15.784C348.002 17.608 349.322 18.832 351.722 19.288L354.074 19.744C355.25 19.984 355.778 20.464 355.778 21.328C355.778 22.384 354.674 23.032 353.042 23.032C351.362 23.032 350.138 22.36 349.442 21.184L347.57 22.36C348.554 24.208 350.45 25.216 353.114 25.216C356.258 25.216 358.346 23.608 358.346 21.208C358.346 19.264 357.002 17.992 354.314 17.464L352.178 17.032C351.05 16.816 350.546 16.36 350.546 15.616C350.546 14.704 351.53 14.152 352.97 14.152C354.41 14.152 355.562 14.752 356.138 15.736L358.01 14.584C357.122 12.88 355.466 11.992 352.994 11.992C349.994 11.992 348.002 13.624 348.002 15.784Z" fill="#2A2859"/>
<path d="M41.332 52.208C41.332 54.224 42.826 55.25 44.68 55.592L46.588 55.952C48.208 56.258 49.288 56.726 49.288 58.328C49.288 59.768 48.118 61.028 45.94 61.028C44.482 61.028 42.988 60.668 42.088 58.904L40.936 59.372C41.872 61.352 43.6 62.144 45.904 62.144C48.82 62.144 50.548 60.308 50.548 58.256C50.548 56.258 49.036 55.16 46.984 54.764L44.896 54.368C43.33 54.062 42.592 53.306 42.592 52.064C42.592 50.588 43.888 49.652 45.724 49.652C47.11 49.652 48.316 50.354 48.856 51.632L50.044 51.146C49.378 49.472 47.902 48.536 45.724 48.536C43.366 48.536 41.332 49.976 41.332 52.208ZM59.1599 62H60.7079L56.4779 56.456L60.6359 52.46H59.0159L54.4799 56.942V48.68H53.2559V62H54.4799V58.382L55.6499 57.266L59.1599 62ZM65.6801 62.144C68.0381 62.144 69.9281 60.2 69.9281 57.212C69.9281 54.26 68.0561 52.316 65.6801 52.316C63.3041 52.316 61.4321 54.26 61.4321 57.212C61.4321 60.2 63.3221 62.144 65.6801 62.144ZM65.6801 61.064C64.0421 61.064 62.6921 59.768 62.6921 57.212C62.6921 54.674 64.0601 53.396 65.6801 53.396C67.3001 53.396 68.6681 54.674 68.6681 57.212C68.6681 59.768 67.3181 61.064 65.6801 61.064ZM75.4032 61.964V60.884C75.2232 60.938 75.0252 60.956 74.8272 60.956C74.0712 60.956 73.6392 60.542 73.6392 59.732V48.68H72.4152V59.732C72.4152 61.136 73.1172 62.072 74.6112 62.072C74.8812 62.072 75.1152 62.036 75.4032 61.964ZM83.8706 59.3C83.4206 60.236 82.5746 61.064 81.1346 61.064C79.2986 61.064 78.0926 59.984 77.9846 57.446H84.6626L84.6986 56.384C84.6986 53.792 82.9346 52.316 80.8826 52.316C78.3986 52.316 76.7426 54.314 76.7426 57.104C76.7426 60.146 78.3266 62.144 81.0086 62.144C83.1326 62.144 84.3206 60.956 84.7706 59.804L83.8706 59.3ZM80.8826 53.396C82.2866 53.396 83.5466 54.296 83.4926 56.438H77.9846C78.1466 54.17 79.4426 53.396 80.8826 53.396ZM90.7063 52.316C89.8603 52.316 89.0143 52.748 88.5103 53.648V52.46H87.2863V62H88.5103V56.132C88.5103 54.206 89.3383 53.396 90.4363 53.396C91.4083 53.396 91.7323 54.026 91.7323 54.98V55.916L92.8483 55.7V54.764C92.8483 53.144 91.9483 52.316 90.7063 52.316ZM100.484 50.732C101.078 50.732 101.564 50.264 101.564 49.652C101.564 49.04 101.078 48.572 100.484 48.572C99.8902 48.572 99.4042 49.04 99.4042 49.652C99.4042 50.264 99.8902 50.732 100.484 50.732ZM99.8722 62H101.096V52.46H99.8722V62ZM113.914 62.144C117.082 62.144 119.674 59.534 119.674 55.268C119.674 51.074 117.082 48.536 113.914 48.536C110.746 48.536 108.154 51.074 108.154 55.268C108.154 59.534 110.746 62.144 113.914 62.144ZM113.914 60.956C111.502 60.956 109.45 59.03 109.45 55.268C109.45 51.434 111.43 49.724 113.914 49.724C116.398 49.724 118.378 51.434 118.378 55.268C118.378 59.03 116.326 60.956 113.914 60.956ZM121.482 54.944C121.482 56.222 122.4 57.104 124.146 57.464L125.694 57.788C126.954 58.058 127.458 58.544 127.458 59.444C127.458 60.416 126.486 61.064 125.01 61.064C123.606 61.064 122.616 60.524 122.166 59.516L121.122 59.948C121.77 61.388 123.12 62.144 125.046 62.144C127.17 62.144 128.646 60.992 128.646 59.336C128.646 57.914 127.674 57.014 125.586 56.6L124.326 56.348C123.192 56.114 122.67 55.628 122.67 54.836C122.67 53.954 123.534 53.396 124.866 53.396C126.09 53.396 126.972 53.882 127.35 54.8L128.358 54.404C127.962 53.144 126.63 52.316 124.902 52.316C122.904 52.316 121.482 53.432 121.482 54.944ZM134.044 61.964V60.884C133.864 60.938 133.666 60.956 133.468 60.956C132.712 60.956 132.28 60.542 132.28 59.732V48.68H131.056V59.732C131.056 61.136 131.758 62.072 133.252 62.072C133.522 62.072 133.756 62.036 134.044 61.964ZM139.631 62.144C141.989 62.144 143.879 60.2 143.879 57.212C143.879 54.26 142.007 52.316 139.631 52.316C137.255 52.316 135.383 54.26 135.383 57.212C135.383 60.2 137.273 62.144 139.631 62.144ZM139.631 61.064C137.993 61.064 136.643 59.768 136.643 57.212C136.643 54.674 138.011 53.396 139.631 53.396C141.251 53.396 142.619 54.674 142.619 57.212C142.619 59.768 141.269 61.064 139.631 61.064ZM146.843 59.84C146.177 59.84 145.691 60.326 145.691 60.956C145.691 61.658 146.195 62.072 146.843 62.072C146.987 62.072 147.113 62.054 147.203 62.036C147.347 63.296 146.537 64.052 145.691 64.808L146.123 65.312C147.689 64.088 148.175 62.9 148.175 61.712C148.175 60.488 147.599 59.84 146.843 59.84ZM155.057 54.944C155.057 56.222 155.975 57.104 157.721 57.464L159.269 57.788C160.529 58.058 161.033 58.544 161.033 59.444C161.033 60.416 160.061 61.064 158.585 61.064C157.181 61.064 156.191 60.524 155.741 59.516L154.697 59.948C155.345 61.388 156.695 62.144 158.621 62.144C160.745 62.144 162.221 60.992 162.221 59.336C162.221 57.914 161.249 57.014 159.161 56.6L157.901 56.348C156.767 56.114 156.245 55.628 156.245 54.836C156.245 53.954 157.109 53.396 158.441 53.396C159.665 53.396 160.547 53.882 160.925 54.8L161.933 54.404C161.537 53.144 160.205 52.316 158.477 52.316C156.479 52.316 155.057 53.432 155.057 54.944ZM170.57 62H172.118L167.888 56.456L172.046 52.46H170.426L165.89 56.942V48.68H164.666V62H165.89V58.382L167.06 57.266L170.57 62ZM177.09 62.144C179.448 62.144 181.338 60.2 181.338 57.212C181.338 54.26 179.466 52.316 177.09 52.316C174.714 52.316 172.842 54.26 172.842 57.212C172.842 60.2 174.732 62.144 177.09 62.144ZM177.09 61.064C175.452 61.064 174.102 59.768 174.102 57.212C174.102 54.674 175.47 53.396 177.09 53.396C178.71 53.396 180.078 54.674 180.078 57.212C180.078 59.768 178.728 61.064 177.09 61.064ZM186.813 61.964V60.884C186.633 60.938 186.435 60.956 186.237 60.956C185.481 60.956 185.049 60.542 185.049 59.732V48.68H183.825V59.732C183.825 61.136 184.527 62.072 186.021 62.072C186.291 62.072 186.525 62.036 186.813 61.964ZM195.281 59.3C194.831 60.236 193.985 61.064 192.545 61.064C190.709 61.064 189.503 59.984 189.395 57.446H196.073L196.109 56.384C196.109 53.792 194.345 52.316 192.293 52.316C189.809 52.316 188.153 54.314 188.153 57.104C188.153 60.146 189.737 62.144 192.419 62.144C194.543 62.144 195.731 60.956 196.181 59.804L195.281 59.3ZM192.293 53.396C193.697 53.396 194.957 54.296 194.903 56.438H189.395C189.557 54.17 190.853 53.396 192.293 53.396ZM200.429 59.624V53.468H203.525V52.46H200.429V49.688L199.205 50.408V52.46H197.405V53.468H199.205V59.588C199.205 61.28 200.285 62.144 201.581 62.144C202.427 62.144 203.111 61.838 203.741 61.1L203.093 60.38C202.643 60.848 202.265 61.064 201.689 61.064C201.095 61.064 200.429 60.74 200.429 59.624ZM205.509 48.752V50.588H207.381V48.752H205.509ZM205.833 62H207.057V52.46H205.833V62ZM213.145 61.964V60.884C212.965 60.938 212.767 60.956 212.569 60.956C211.813 60.956 211.381 60.542 211.381 59.732V48.68H210.157V59.732C210.157 61.136 210.859 62.072 212.353 62.072C212.623 62.072 212.857 62.036 213.145 61.964ZM219.41 52.316C218.258 52.316 217.214 52.892 216.638 53.936V48.68H215.414V62H216.638V56.636C216.638 54.728 217.412 53.432 219.086 53.432C220.418 53.432 221.21 54.08 221.21 55.808V62H222.434V55.628C222.434 53.486 221.318 52.316 219.41 52.316ZM231.518 53.18L232.328 51.596H231.464L230.87 52.748C230.312 52.478 229.682 52.316 229.016 52.316C226.64 52.316 224.768 54.26 224.768 57.212C224.768 59.012 225.452 60.434 226.514 61.28L225.704 62.864H226.568L227.162 61.694C227.72 61.982 228.35 62.144 229.016 62.144C231.374 62.144 233.264 60.2 233.264 57.212C233.264 55.43 232.58 54.026 231.518 53.18ZM226.028 57.212C226.028 54.674 227.396 53.396 229.016 53.396C229.502 53.396 229.952 53.504 230.366 53.738L227.036 60.254C226.424 59.606 226.028 58.598 226.028 57.212ZM229.016 61.064C228.53 61.064 228.062 60.956 227.666 60.722L230.996 54.206C231.608 54.854 232.004 55.844 232.004 57.212C232.004 59.768 230.654 61.064 229.016 61.064ZM239.171 52.316C238.325 52.316 237.479 52.748 236.975 53.648V52.46H235.751V62H236.975V56.132C236.975 54.206 237.803 53.396 238.901 53.396C239.873 53.396 240.197 54.026 240.197 54.98V55.916L241.313 55.7V54.764C241.313 53.144 240.413 52.316 239.171 52.316ZM244.344 50.732C244.938 50.732 245.424 50.264 245.424 49.652C245.424 49.04 244.938 48.572 244.344 48.572C243.75 48.572 243.264 49.04 243.264 49.652C243.264 50.264 243.75 50.732 244.344 50.732ZM243.732 62H244.956V52.46H243.732V62ZM256.624 53.468V52.46H253.888V53.126C253.312 52.64 252.556 52.316 251.566 52.316C249.046 52.316 247.768 54.098 247.768 55.808C247.768 56.978 248.47 58.31 249.73 58.814C248.56 59.12 247.858 59.858 247.858 60.704C247.858 61.694 248.65 62.324 249.982 62.324H254.086C254.95 62.324 255.238 62.72 255.238 63.26C255.238 64.412 253.582 65.006 251.602 65.006C250 65.006 248.596 64.7 247.93 63.134L246.94 63.584C247.516 65.258 249.19 66.032 251.602 66.032C254.284 66.032 256.462 65.042 256.462 63.152C256.462 61.964 255.67 61.208 254.122 61.208H250.252C249.46 61.208 249.082 60.866 249.082 60.38C249.082 59.75 249.856 59.336 250.936 59.336H251.35C254.032 59.336 255.292 57.554 255.292 55.808C255.292 55.106 255.04 54.386 254.572 53.81V53.468H256.624ZM251.548 58.328C249.838 58.328 248.974 57.14 248.974 55.808C248.974 54.494 249.838 53.36 251.548 53.36C253.24 53.36 254.086 54.476 254.086 55.808C254.086 57.158 253.24 58.328 251.548 58.328ZM262.564 52.316C261.412 52.316 260.368 52.892 259.792 53.936V48.68H258.568V62H259.792V56.636C259.792 54.728 260.566 53.432 262.24 53.432C263.572 53.432 264.364 54.08 264.364 55.808V62H265.588V55.628C265.588 53.486 264.472 52.316 262.564 52.316ZM275.05 59.3C274.6 60.236 273.754 61.064 272.314 61.064C270.478 61.064 269.272 59.984 269.164 57.446H275.842L275.878 56.384C275.878 53.792 274.114 52.316 272.062 52.316C269.578 52.316 267.922 54.314 267.922 57.104C267.922 60.146 269.506 62.144 272.188 62.144C274.312 62.144 275.5 60.956 275.95 59.804L275.05 59.3ZM272.062 53.396C273.466 53.396 274.726 54.296 274.672 56.438H269.164C269.326 54.17 270.622 53.396 272.062 53.396ZM280.198 59.624V53.468H283.294V52.46H280.198V49.688L278.974 50.408V52.46H277.174V53.468H278.974V59.588C278.974 61.28 280.054 62.144 281.35 62.144C282.196 62.144 282.88 61.838 283.51 61.1L282.862 60.38C282.412 60.848 282.034 61.064 281.458 61.064C280.864 61.064 280.198 60.74 280.198 59.624ZM286.431 59.84C285.765 59.84 285.279 60.326 285.279 60.956C285.279 61.658 285.783 62.072 286.431 62.072C286.575 62.072 286.701 62.054 286.791 62.036C286.935 63.296 286.125 64.052 285.279 64.808L285.711 65.312C287.277 64.088 287.763 62.9 287.763 61.712C287.763 60.488 287.187 59.84 286.431 59.84ZM294.644 54.944C294.644 56.222 295.562 57.104 297.308 57.464L298.856 57.788C300.116 58.058 300.62 58.544 300.62 59.444C300.62 60.416 299.648 61.064 298.172 61.064C296.768 61.064 295.778 60.524 295.328 59.516L294.284 59.948C294.932 61.388 296.282 62.144 298.208 62.144C300.332 62.144 301.808 60.992 301.808 59.336C301.808 57.914 300.836 57.014 298.748 56.6L297.488 56.348C296.354 56.114 295.832 55.628 295.832 54.836C295.832 53.954 296.696 53.396 298.028 53.396C299.252 53.396 300.134 53.882 300.512 54.8L301.52 54.404C301.124 53.144 299.792 52.316 298.064 52.316C296.066 52.316 294.644 53.432 294.644 54.944ZM305.95 59.624V53.468H309.046V52.46H305.95V49.688L304.726 50.408V52.46H302.926V53.468H304.726V59.588C304.726 61.28 305.806 62.144 307.102 62.144C307.948 62.144 308.632 61.838 309.262 61.1L308.614 60.38C308.164 60.848 307.786 61.064 307.21 61.064C306.616 61.064 305.95 60.74 305.95 59.624ZM318.113 62C317.897 61.352 317.717 60.38 317.717 59.3V55.376C317.717 53.738 316.727 52.316 314.369 52.316C312.695 52.316 311.237 53.072 310.517 55.088L311.597 55.412C312.101 53.954 313.109 53.432 314.297 53.432C315.773 53.432 316.529 54.278 316.529 55.52V56.78C315.755 56.51 314.999 56.42 314.225 56.42C312.263 56.42 310.499 57.446 310.499 59.408C310.499 61.046 311.777 62.144 313.469 62.144C315.017 62.144 316.259 61.244 316.745 60.128C316.745 60.848 316.853 61.478 316.997 62H318.113ZM316.529 58.04C316.529 60.362 314.927 61.1 313.685 61.1C312.533 61.1 311.723 60.488 311.723 59.336C311.723 58.076 312.857 57.428 314.297 57.428C315.035 57.428 315.791 57.518 316.529 57.824V58.04ZM324.232 52.316C323.386 52.316 322.54 52.748 322.036 53.648V52.46H320.812V62H322.036V56.132C322.036 54.206 322.864 53.396 323.962 53.396C324.934 53.396 325.258 54.026 325.258 54.98V55.916L326.374 55.7V54.764C326.374 53.144 325.474 52.316 324.232 52.316ZM330.524 59.624V53.468H333.62V52.46H330.524V49.688L329.3 50.408V52.46H327.5V53.468H329.3V59.588C329.3 61.28 330.38 62.144 331.676 62.144C332.522 62.144 333.206 61.838 333.836 61.1L333.188 60.38C332.738 60.848 332.36 61.064 331.784 61.064C331.19 61.064 330.524 60.74 330.524 59.624ZM341.9 59.3C341.45 60.236 340.604 61.064 339.164 61.064C337.328 61.064 336.122 59.984 336.014 57.446H342.692L342.728 56.384C342.728 53.792 340.964 52.316 338.912 52.316C336.428 52.316 334.772 54.314 334.772 57.104C334.772 60.146 336.356 62.144 339.038 62.144C341.162 62.144 342.35 60.956 342.8 59.804L341.9 59.3ZM338.912 53.396C340.316 53.396 341.576 54.296 341.522 56.438H336.014C336.176 54.17 337.472 53.396 338.912 53.396ZM48.064 86.3C47.614 87.236 46.768 88.064 45.328 88.064C43.492 88.064 42.286 86.984 42.178 84.446H48.856L48.892 83.384C48.892 80.792 47.128 79.316 45.076 79.316C42.592 79.316 40.936 81.314 40.936 84.104C40.936 87.146 42.52 89.144 45.202 89.144C47.326 89.144 48.514 87.956 48.964 86.804L48.064 86.3ZM45.076 80.396C46.48 80.396 47.74 81.296 47.686 83.438H42.178C42.34 81.17 43.636 80.396 45.076 80.396ZM54.4676 88.964V87.884C54.2876 87.938 54.0896 87.956 53.8916 87.956C53.1356 87.956 52.7036 87.542 52.7036 86.732V75.68H51.4796V86.732C51.4796 88.136 52.1816 89.072 53.6756 89.072C53.9456 89.072 54.1796 89.036 54.4676 88.964ZM59.6883 88.964V87.884C59.5083 87.938 59.3103 87.956 59.1123 87.956C58.3563 87.956 57.9243 87.542 57.9243 86.732V75.68H56.7003V86.732C56.7003 88.136 57.4023 89.072 58.8963 89.072C59.1663 89.072 59.4003 89.036 59.6883 88.964ZM68.1558 86.3C67.7058 87.236 66.8598 88.064 65.4198 88.064C63.5838 88.064 62.3778 86.984 62.2698 84.446H68.9478L68.9838 83.384C68.9838 80.792 67.2198 79.316 65.1678 79.316C62.6838 79.316 61.0278 81.314 61.0278 84.104C61.0278 87.146 62.6118 89.144 65.2938 89.144C67.4178 89.144 68.6058 87.956 69.0558 86.804L68.1558 86.3ZM65.1678 80.396C66.5718 80.396 67.8318 81.296 67.7778 83.438H62.2698C62.4318 81.17 63.7278 80.396 65.1678 80.396ZM74.9914 79.316C74.1454 79.316 73.2994 79.748 72.7954 80.648V79.46H71.5714V89H72.7954V83.132C72.7954 81.206 73.6234 80.396 74.7214 80.396C75.6934 80.396 76.0174 81.026 76.0174 81.98V82.916L77.1334 82.7V81.764C77.1334 80.144 76.2334 79.316 74.9914 79.316ZM88.5494 79.334C87.3074 79.334 86.0474 80.018 85.4174 81.242V75.68H84.1934V89H85.4174V87.272C85.9934 88.478 87.0734 89.144 88.4054 89.144C90.9614 89.144 92.6174 87.074 92.6174 84.14C92.6174 81.368 90.9794 79.334 88.5494 79.334ZM88.4054 88.064C86.4974 88.064 85.4174 86.66 85.4174 84.176C85.4174 81.836 86.5154 80.414 88.4234 80.414C90.1874 80.414 91.3574 81.782 91.3574 84.194C91.3574 86.696 90.1874 88.064 88.4054 88.064ZM100.882 79.46L97.8936 87.722L95.0136 79.46H93.6816L97.2636 89.162L96.7056 90.512C96.2376 91.61 95.7696 91.898 95.1036 91.898C94.6896 91.898 94.3476 91.754 93.9876 91.43L93.4476 92.312C93.8976 92.726 94.4916 92.96 95.1396 92.96C96.6156 92.96 97.3176 91.934 97.9476 90.314L102.142 79.46H100.882ZM105.683 86.624V80.468H108.779V79.46H105.683V76.688L104.459 77.408V79.46H102.659V80.468H104.459V86.588C104.459 88.28 105.539 89.144 106.835 89.144C107.681 89.144 108.365 88.838 108.995 88.1L108.347 87.38C107.897 87.848 107.519 88.064 106.943 88.064C106.349 88.064 105.683 87.74 105.683 86.624ZM112.644 86.624V80.468H115.74V79.46H112.644V76.688L111.42 77.408V79.46H109.62V80.468H111.42V86.588C111.42 88.28 112.5 89.144 113.796 89.144C114.642 89.144 115.326 88.838 115.956 88.1L115.308 87.38C114.858 87.848 114.479 88.064 113.904 88.064C113.31 88.064 112.644 87.74 112.644 86.624ZM124.019 86.3C123.569 87.236 122.723 88.064 121.283 88.064C119.447 88.064 118.241 86.984 118.133 84.446H124.811L124.847 83.384C124.847 80.792 123.083 79.316 121.031 79.316C118.547 79.316 116.891 81.314 116.891 84.104C116.891 87.146 118.475 89.144 121.157 89.144C123.281 89.144 124.469 87.956 124.919 86.804L124.019 86.3ZM121.031 80.396C122.435 80.396 123.695 81.296 123.641 83.438H118.133C118.295 81.17 119.591 80.396 121.031 80.396ZM131.572 81.944C131.572 83.222 132.49 84.104 134.236 84.464L135.784 84.788C137.044 85.058 137.548 85.544 137.548 86.444C137.548 87.416 136.576 88.064 135.1 88.064C133.696 88.064 132.706 87.524 132.256 86.516L131.212 86.948C131.86 88.388 133.21 89.144 135.136 89.144C137.26 89.144 138.736 87.992 138.736 86.336C138.736 84.914 137.764 84.014 135.676 83.6L134.416 83.348C133.282 83.114 132.76 82.628 132.76 81.836C132.76 80.954 133.624 80.396 134.956 80.396C136.18 80.396 137.062 80.882 137.44 81.8L138.448 81.404C138.052 80.144 136.72 79.316 134.992 79.316C132.994 79.316 131.572 80.432 131.572 81.944ZM147.086 89H148.634L144.404 83.456L148.562 79.46H146.942L142.406 83.942V75.68H141.182V89H142.406V85.382L143.576 84.266L147.086 89ZM153.606 89.144C155.964 89.144 157.854 87.2 157.854 84.212C157.854 81.26 155.982 79.316 153.606 79.316C151.23 79.316 149.358 81.26 149.358 84.212C149.358 87.2 151.248 89.144 153.606 89.144ZM153.606 88.064C151.968 88.064 150.618 86.768 150.618 84.212C150.618 81.674 151.986 80.396 153.606 80.396C155.226 80.396 156.594 81.674 156.594 84.212C156.594 86.768 155.244 88.064 153.606 88.064ZM163.329 88.964V87.884C163.149 87.938 162.951 87.956 162.753 87.956C161.997 87.956 161.565 87.542 161.565 86.732V75.68H160.341V86.732C160.341 88.136 161.043 89.072 162.537 89.072C162.807 89.072 163.041 89.036 163.329 88.964ZM171.796 86.3C171.346 87.236 170.5 88.064 169.06 88.064C167.224 88.064 166.018 86.984 165.91 84.446H172.588L172.624 83.384C172.624 80.792 170.86 79.316 168.808 79.316C166.324 79.316 164.668 81.314 164.668 84.104C164.668 87.146 166.252 89.144 168.934 89.144C171.058 89.144 172.246 87.956 172.696 86.804L171.796 86.3ZM168.808 80.396C170.212 80.396 171.472 81.296 171.418 83.438H165.91C166.072 81.17 167.368 80.396 168.808 80.396ZM175.936 89.108C176.584 89.108 177.088 88.622 177.088 87.956C177.088 87.29 176.584 86.804 175.936 86.804C175.288 86.804 174.784 87.29 174.784 87.956C174.784 88.622 175.288 89.108 175.936 89.108Z" fill="#2A2859"/>
<path fill-rule="evenodd" clip-rule="evenodd" d="M409.143 15.8571L399.143 5.85714L394.857 10.1429L400.571 15.8571L394.857 21.5714L399.143 25.8571L409.143 15.8571ZM392 10.1429L399.143 3L412 15.8571L399.143 28.7143L392 21.5714L397.714 15.8571L392 10.1429Z" fill="#2A2859"/>
<path d="M437.248 25H440.392L434.248 7.24H430.864L424.696 25H427.648L429.04 20.68H435.904L437.248 25ZM429.832 18.208L432.496 9.832L435.112 18.208H429.832ZM450.846 25H454.062L448.758 17.416L453.966 12.28H450.654L445.518 17.56V7.24H442.83V25H445.518V20.608L446.982 19.168L450.846 25ZM459.449 21.064V14.368H463.937V12.28H459.449V8.224L456.761 9.448V12.28H454.529V14.368H456.761V21.232C456.761 23.872 458.561 25.216 460.769 25.216C462.137 25.216 463.193 24.76 464.153 23.8L463.001 22.072C462.449 22.624 461.897 22.912 461.201 22.912C460.313 22.912 459.449 22.48 459.449 21.064ZM467.891 10.168C468.947 10.168 469.763 9.352 469.763 8.272C469.763 7.192 468.947 6.376 467.891 6.376C466.835 6.376 465.995 7.192 465.995 8.272C465.995 9.352 466.835 10.168 467.891 10.168ZM466.547 25H469.235V12.28H466.547V25ZM481.256 12.28L477.896 22.192L474.536 12.28H471.56L476.408 25H479.168L484.04 12.28H481.256ZM485.804 6.76V10H489.092V6.76H485.804ZM486.116 25H488.804V12.28H486.116V25ZM496.313 21.064V14.368H500.801V12.28H496.313V8.224L493.625 9.448V12.28H491.393V14.368H493.625V21.232C493.625 23.872 495.425 25.216 497.633 25.216C499.001 25.216 500.057 24.76 501.017 23.8L499.865 22.072C499.313 22.624 498.761 22.912 498.065 22.912C497.177 22.912 496.313 22.48 496.313 21.064ZM511.538 20.992C510.866 22.192 509.786 23.032 508.226 23.032C506.114 23.032 504.794 21.88 504.65 19.192H513.29L513.338 17.608C513.338 14.008 510.866 11.992 507.866 11.992C504.482 11.992 502.01 14.656 502.01 18.52C502.01 22.432 504.29 25.216 508.058 25.216C510.962 25.216 512.642 23.632 513.362 22.048L511.538 20.992ZM507.866 14.104C509.354 14.104 510.746 15.016 510.722 17.272H504.65C504.866 14.968 506.234 14.104 507.866 14.104ZM519.819 21.064V14.368H524.307V12.28H519.819V8.224L517.131 9.448V12.28H514.899V14.368H517.131V21.232C517.131 23.872 518.931 25.216 521.139 25.216C522.507 25.216 523.563 24.76 524.523 23.8L523.371 22.072C522.819 22.624 522.267 22.912 521.571 22.912C520.683 22.912 519.819 22.48 519.819 21.064ZM525.894 15.784C525.894 17.608 527.214 18.832 529.614 19.288L531.966 19.744C533.142 19.984 533.67 20.464 533.67 21.328C533.67 22.384 532.566 23.032 530.934 23.032C529.254 23.032 528.03 22.36 527.334 21.184L525.462 22.36C526.446 24.208 528.342 25.216 531.006 25.216C534.15 25.216 536.238 23.608 536.238 21.208C536.238 19.264 534.894 17.992 532.206 17.464L530.07 17.032C528.942 16.816 528.438 16.36 528.438 15.616C528.438 14.704 529.422 14.152 530.862 14.152C532.302 14.152 533.454 14.752 534.03 15.736L535.902 14.584C535.014 12.88 533.358 11.992 530.886 11.992C527.886 11.992 525.894 13.624 525.894 15.784ZM538.397 15.784C538.397 17.608 539.717 18.832 542.117 19.288L544.469 19.744C545.645 19.984 546.173 20.464 546.173 21.328C546.173 22.384 545.069 23.032 543.437 23.032C541.757 23.032 540.533 22.36 539.837 21.184L537.965 22.36C538.949 24.208 540.845 25.216 543.509 25.216C546.653 25.216 548.741 23.608 548.741 21.208C548.741 19.264 547.397 17.992 544.709 17.464L542.573 17.032C541.445 16.816 540.941 16.36 540.941 15.616C540.941 14.704 541.925 14.152 543.365 14.152C544.805 14.152 545.957 14.752 546.533 15.736L548.405 14.584C547.517 12.88 545.861 11.992 543.389 11.992C540.389 11.992 538.397 13.624 538.397 15.784ZM559.588 25H562.804L557.5 17.416L562.708 12.28H559.396L554.26 17.56V7.24H551.572V25H554.26V20.608L555.724 19.168L559.588 25ZM569.495 25.24C572.807 25.24 575.519 22.648 575.519 18.568C575.519 14.584 572.831 11.992 569.495 11.992C566.159 11.992 563.471 14.584 563.471 18.568C563.471 22.648 566.183 25.24 569.495 25.24ZM569.495 22.96C567.719 22.96 566.231 21.568 566.231 18.568C566.231 15.544 567.719 14.272 569.495 14.272C571.271 14.272 572.759 15.544 572.759 18.568C572.759 21.568 571.295 22.96 569.495 22.96ZM583.378 24.928V22.696C583.09 22.768 582.826 22.792 582.586 22.792C581.602 22.792 580.954 22.288 580.954 21.184V7.24H578.266V21.376C578.266 23.704 579.418 25.144 581.842 25.144C582.37 25.144 582.874 25.072 583.378 24.928ZM594.466 20.992C593.794 22.192 592.714 23.032 591.154 23.032C589.042 23.032 587.722 21.88 587.578 19.192H596.218L596.266 17.608C596.266 14.008 593.794 11.992 590.794 11.992C587.41 11.992 584.938 14.656 584.938 18.52C584.938 22.432 587.218 25.216 590.986 25.216C593.89 25.216 595.57 23.632 596.29 22.048L594.466 20.992ZM590.794 14.104C592.282 14.104 593.674 15.016 593.65 17.272H587.578C587.794 14.968 589.162 14.104 590.794 14.104ZM605.79 11.992C604.206 11.992 602.934 12.76 602.07 14.104V12.28H599.382V25H602.07V18.112C602.07 15.64 603.03 14.32 604.926 14.32C606.39 14.32 607.23 15.112 607.23 16.864V25H609.918V16.432C609.918 13.672 608.382 11.992 605.79 11.992ZM622.728 5.8C620.832 9.592 619.848 13.336 619.848 17.224C619.848 21.136 620.808 24.808 622.728 28.6H624.864C623.304 24.784 622.536 21.112 622.536 17.224C622.536 13.36 623.304 9.64 624.864 5.8H622.728ZM639.078 25H642.222L636.078 7.24H632.694L626.526 25H629.478L630.87 20.68H637.734L639.078 25ZM631.662 18.208L634.326 9.832L636.942 18.208H631.662ZM655.196 25H658.652L651.356 14.944L658.556 7.24H655.1L647.612 15.424V7.24H644.804V25H647.612V18.928L649.556 16.864L655.196 25ZM659.312 12.184C659.312 14.872 661.184 16.528 664.04 16.96L667.064 17.44C668.792 17.728 669.728 18.4 669.728 19.888C669.728 21.52 668.264 22.72 665.888 22.72C664.232 22.72 662.312 22.144 661.184 20.104L658.832 21.616C660.344 24.184 662.84 25.24 665.864 25.24C670.112 25.24 672.656 22.792 672.656 19.792C672.656 16.936 670.496 15.256 667.4 14.776L664.664 14.368C662.936 14.08 662.144 13.24 662.144 11.968C662.144 10.432 663.56 9.496 665.648 9.496C667.4 9.496 669.032 10.336 669.8 11.776L672.128 10.336C670.76 7.984 668.504 7 665.672 7C662.216 7 659.312 9.04 659.312 12.184ZM677.198 28.6C679.094 24.808 680.078 21.064 680.078 17.176C680.078 13.264 679.118 9.592 677.198 5.8H675.062C676.622 9.616 677.39 13.288 677.39 17.176C677.39 21.04 676.622 24.76 675.062 28.6H677.198Z" fill="#2A2859"/>
<path d="M425.332 52.208C425.332 54.224 426.826 55.25 428.68 55.592L430.588 55.952C432.208 56.258 433.288 56.726 433.288 58.328C433.288 59.768 432.118 61.028 429.94 61.028C428.482 61.028 426.988 60.668 426.088 58.904L424.936 59.372C425.872 61.352 427.6 62.144 429.904 62.144C432.82 62.144 434.548 60.308 434.548 58.256C434.548 56.258 433.036 55.16 430.984 54.764L428.896 54.368C427.33 54.062 426.592 53.306 426.592 52.064C426.592 50.588 427.888 49.652 429.724 49.652C431.11 49.652 432.316 50.354 432.856 51.632L434.044 51.146C433.378 49.472 431.902 48.536 429.724 48.536C427.366 48.536 425.332 49.976 425.332 52.208ZM443.358 53.18L444.168 51.596H443.304L442.71 52.748C442.152 52.478 441.522 52.316 440.856 52.316C438.48 52.316 436.608 54.26 436.608 57.212C436.608 59.012 437.292 60.434 438.354 61.28L437.544 62.864H438.408L439.002 61.694C439.56 61.982 440.19 62.144 440.856 62.144C443.214 62.144 445.104 60.2 445.104 57.212C445.104 55.43 444.42 54.026 443.358 53.18ZM437.868 57.212C437.868 54.674 439.236 53.396 440.856 53.396C441.342 53.396 441.792 53.504 442.206 53.738L438.876 60.254C438.264 59.606 437.868 58.598 437.868 57.212ZM440.856 61.064C440.37 61.064 439.902 60.956 439.506 60.722L442.836 54.206C443.448 54.854 443.844 55.844 443.844 57.212C443.844 59.768 442.494 61.064 440.856 61.064ZM453.531 62H455.079L450.849 56.456L455.007 52.46H453.387L448.851 56.942V48.68H447.627V62H448.851V58.382L450.021 57.266L453.531 62ZM462.931 59.3C462.481 60.236 461.635 61.064 460.195 61.064C458.359 61.064 457.153 59.984 457.045 57.446H463.723L463.759 56.384C463.759 53.792 461.995 52.316 459.943 52.316C457.459 52.316 455.803 54.314 455.803 57.104C455.803 60.146 457.387 62.144 460.069 62.144C462.193 62.144 463.381 60.956 463.831 59.804L462.931 59.3ZM459.943 53.396C461.347 53.396 462.607 54.296 462.553 56.438H457.045C457.207 54.17 458.503 53.396 459.943 53.396ZM474.588 62.144C476.946 62.144 478.836 60.2 478.836 57.212C478.836 54.26 476.964 52.316 474.588 52.316C472.212 52.316 470.34 54.26 470.34 57.212C470.34 60.2 472.23 62.144 474.588 62.144ZM474.588 61.064C472.95 61.064 471.6 59.768 471.6 57.212C471.6 54.674 472.968 53.396 474.588 53.396C476.208 53.396 477.576 54.674 477.576 57.212C477.576 59.768 476.226 61.064 474.588 61.064ZM490.827 52.316C489.603 52.316 488.505 53 487.965 54.26C487.623 53.018 486.669 52.316 485.247 52.316C484.131 52.316 483.123 52.892 482.547 53.954V52.46H481.323V62H482.547V56.636C482.547 54.728 483.249 53.432 484.923 53.432C486.165 53.432 486.903 54.08 486.903 55.628V62H488.127V56.636C488.127 54.728 488.829 53.432 490.503 53.432C491.745 53.432 492.483 54.08 492.483 55.628V62H493.707V55.448C493.707 53.468 492.645 52.316 490.827 52.316ZM505.613 52.334C504.371 52.334 503.111 53.018 502.481 54.242V52.46H501.257V65.78H502.481V60.272C503.057 61.478 504.137 62.144 505.469 62.144C508.025 62.144 509.681 60.074 509.681 57.14C509.681 54.368 508.043 52.334 505.613 52.334ZM505.469 61.064C503.561 61.064 502.481 59.66 502.481 57.176C502.481 54.836 503.579 53.414 505.487 53.414C507.251 53.414 508.421 54.782 508.421 57.194C508.421 59.696 507.251 61.064 505.469 61.064ZM515.161 61.964V60.884C514.981 60.938 514.783 60.956 514.585 60.956C513.829 60.956 513.397 60.542 513.397 59.732V48.68H512.173V59.732C512.173 61.136 512.875 62.072 514.369 62.072C514.639 62.072 514.873 62.036 515.161 61.964ZM524.504 62C524.288 61.352 524.108 60.38 524.108 59.3V55.376C524.108 53.738 523.118 52.316 520.76 52.316C519.086 52.316 517.628 53.072 516.908 55.088L517.988 55.412C518.492 53.954 519.5 53.432 520.688 53.432C522.164 53.432 522.92 54.278 522.92 55.52V56.78C522.146 56.51 521.39 56.42 520.616 56.42C518.654 56.42 516.89 57.446 516.89 59.408C516.89 61.046 518.168 62.144 519.86 62.144C521.408 62.144 522.65 61.244 523.136 60.128C523.136 60.848 523.244 61.478 523.388 62H524.504ZM522.92 58.04C522.92 60.362 521.318 61.1 520.076 61.1C518.924 61.1 518.114 60.488 518.114 59.336C518.114 58.076 519.248 57.428 520.688 57.428C521.426 57.428 522.182 57.518 522.92 57.824V58.04ZM526.734 54.944C526.734 56.222 527.652 57.104 529.398 57.464L530.946 57.788C532.206 58.058 532.71 58.544 532.71 59.444C532.71 60.416 531.738 61.064 530.262 61.064C528.858 61.064 527.868 60.524 527.418 59.516L526.374 59.948C527.022 61.388 528.372 62.144 530.298 62.144C532.422 62.144 533.898 60.992 533.898 59.336C533.898 57.914 532.926 57.014 530.838 56.6L529.578 56.348C528.444 56.114 527.922 55.628 527.922 54.836C527.922 53.954 528.786 53.396 530.118 53.396C531.342 53.396 532.224 53.882 532.602 54.8L533.61 54.404C533.214 53.144 531.882 52.316 530.154 52.316C528.156 52.316 526.734 53.432 526.734 54.944ZM535.84 54.944C535.84 56.222 536.758 57.104 538.504 57.464L540.052 57.788C541.312 58.058 541.816 58.544 541.816 59.444C541.816 60.416 540.844 61.064 539.368 61.064C537.964 61.064 536.974 60.524 536.524 59.516L535.48 59.948C536.128 61.388 537.478 62.144 539.404 62.144C541.528 62.144 543.004 60.992 543.004 59.336C543.004 57.914 542.032 57.014 539.944 56.6L538.684 56.348C537.55 56.114 537.028 55.628 537.028 54.836C537.028 53.954 537.892 53.396 539.224 53.396C540.448 53.396 541.33 53.882 541.708 54.8L542.716 54.404C542.32 53.144 540.988 52.316 539.26 52.316C537.262 52.316 535.84 53.432 535.84 54.944ZM546.065 59.84C545.399 59.84 544.913 60.326 544.913 60.956C544.913 61.658 545.417 62.072 546.065 62.072C546.209 62.072 546.335 62.054 546.425 62.036C546.569 63.296 545.759 64.052 544.913 64.808L545.345 65.312C546.911 64.088 547.397 62.9 547.397 61.712C547.397 60.488 546.821 59.84 546.065 59.84ZM559.103 52.334C557.861 52.334 556.601 53.018 555.971 54.242V52.46H554.747V65.78H555.971V60.272C556.547 61.478 557.627 62.144 558.959 62.144C561.515 62.144 563.171 60.074 563.171 57.14C563.171 54.368 561.533 52.334 559.103 52.334ZM558.959 61.064C557.051 61.064 555.971 59.66 555.971 57.176C555.971 54.836 557.069 53.414 558.977 53.414C560.741 53.414 561.911 54.782 561.911 57.194C561.911 59.696 560.741 61.064 558.959 61.064ZM569.083 52.316C568.237 52.316 567.391 52.748 566.887 53.648V52.46H565.663V62H566.887V56.132C566.887 54.206 567.715 53.396 568.813 53.396C569.785 53.396 570.109 54.026 570.109 54.98V55.916L571.225 55.7V54.764C571.225 53.144 570.325 52.316 569.083 52.316ZM574.256 50.732C574.85 50.732 575.336 50.264 575.336 49.652C575.336 49.04 574.85 48.572 574.256 48.572C573.662 48.572 573.176 49.04 573.176 49.652C573.176 50.264 573.662 50.732 574.256 50.732ZM573.644 62H574.868V52.46H573.644V62ZM577.5 54.944C577.5 56.222 578.418 57.104 580.164 57.464L581.712 57.788C582.972 58.058 583.476 58.544 583.476 59.444C583.476 60.416 582.504 61.064 581.028 61.064C579.624 61.064 578.634 60.524 578.184 59.516L577.14 59.948C577.788 61.388 579.138 62.144 581.064 62.144C583.188 62.144 584.664 60.992 584.664 59.336C584.664 57.914 583.692 57.014 581.604 56.6L580.344 56.348C579.21 56.114 578.688 55.628 578.688 54.836C578.688 53.954 579.552 53.396 580.884 53.396C582.108 53.396 582.99 53.882 583.368 54.8L584.376 54.404C583.98 53.144 582.648 52.316 580.92 52.316C578.922 52.316 577.5 53.432 577.5 54.944ZM587.726 59.84C587.06 59.84 586.574 60.326 586.574 60.956C586.574 61.658 587.078 62.072 587.726 62.072C587.87 62.072 587.996 62.054 588.086 62.036C588.23 63.296 587.42 64.052 586.574 64.808L587.006 65.312C588.572 64.088 589.058 62.9 589.058 61.712C589.058 60.488 588.482 59.84 587.726 59.84ZM604.975 53.468V52.46H602.239V53.126C601.663 52.64 600.907 52.316 599.917 52.316C597.397 52.316 596.119 54.098 596.119 55.808C596.119 56.978 596.821 58.31 598.081 58.814C596.911 59.12 596.209 59.858 596.209 60.704C596.209 61.694 597.001 62.324 598.333 62.324H602.437C603.301 62.324 603.589 62.72 603.589 63.26C603.589 64.412 601.933 65.006 599.953 65.006C598.351 65.006 596.947 64.7 596.281 63.134L595.291 63.584C595.867 65.258 597.541 66.032 599.953 66.032C602.635 66.032 604.813 65.042 604.813 63.152C604.813 61.964 604.021 61.208 602.473 61.208H598.603C597.811 61.208 597.433 60.866 597.433 60.38C597.433 59.75 598.207 59.336 599.287 59.336H599.701C602.383 59.336 603.643 57.554 603.643 55.808C603.643 55.106 603.391 54.386 602.923 53.81V53.468H604.975ZM599.899 58.328C598.189 58.328 597.325 57.14 597.325 55.808C597.325 54.494 598.189 53.36 599.899 53.36C601.591 53.36 602.437 54.476 602.437 55.808C602.437 57.158 601.591 58.328 599.899 58.328ZM610.304 52.316C609.458 52.316 608.612 52.748 608.108 53.648V52.46H606.884V62H608.108V56.132C608.108 54.206 608.936 53.396 610.034 53.396C611.006 53.396 611.33 54.026 611.33 54.98V55.916L612.446 55.7V54.764C612.446 53.144 611.546 52.316 610.304 52.316ZM621.429 62C621.213 61.352 621.033 60.38 621.033 59.3V55.376C621.033 53.738 620.043 52.316 617.685 52.316C616.011 52.316 614.553 53.072 613.833 55.088L614.913 55.412C615.417 53.954 616.425 53.432 617.613 53.432C619.089 53.432 619.845 54.278 619.845 55.52V56.78C619.071 56.51 618.315 56.42 617.541 56.42C615.579 56.42 613.815 57.446 613.815 59.408C613.815 61.046 615.093 62.144 616.785 62.144C618.333 62.144 619.575 61.244 620.061 60.128C620.061 60.848 620.169 61.478 620.313 62H621.429ZM619.845 58.04C619.845 60.362 618.243 61.1 617.001 61.1C615.849 61.1 615.039 60.488 615.039 59.336C615.039 58.076 616.173 57.428 617.613 57.428C618.351 57.428 619.107 57.518 619.845 57.824V58.04ZM625.86 59.624V53.468H628.956V52.46H625.86V49.688L624.636 50.408V52.46H622.836V53.468H624.636V59.588C624.636 61.28 625.716 62.144 627.012 62.144C627.858 62.144 628.542 61.838 629.172 61.1L628.524 60.38C628.074 60.848 627.696 61.064 627.12 61.064C626.526 61.064 625.86 60.74 625.86 59.624ZM630.941 48.752V50.588H632.813V48.752H630.941ZM631.265 62H632.489V52.46H631.265V62ZM635.121 54.944C635.121 56.222 636.039 57.104 637.785 57.464L639.333 57.788C640.593 58.058 641.097 58.544 641.097 59.444C641.097 60.416 640.125 61.064 638.649 61.064C637.245 61.064 636.255 60.524 635.805 59.516L634.761 59.948C635.409 61.388 636.759 62.144 638.685 62.144C640.809 62.144 642.285 60.992 642.285 59.336C642.285 57.914 641.313 57.014 639.225 56.6L637.965 56.348C636.831 56.114 636.309 55.628 636.309 54.836C636.309 53.954 637.173 53.396 638.505 53.396C639.729 53.396 640.611 53.882 640.989 54.8L641.997 54.404C641.601 53.144 640.269 52.316 638.541 52.316C636.543 52.316 635.121 53.432 635.121 54.944ZM655.888 48.68V54.188C655.312 52.982 654.232 52.316 652.9 52.316C650.344 52.316 648.688 54.386 648.688 57.32C648.688 60.092 650.326 62.126 652.756 62.126C653.998 62.126 655.258 61.442 655.888 60.218V62H657.112V48.68H655.888ZM652.882 61.046C651.118 61.046 649.948 59.678 649.948 57.266C649.948 54.764 651.118 53.396 652.9 53.396C654.808 53.396 655.888 54.8 655.888 57.284C655.888 59.624 654.79 61.046 652.882 61.046ZM666.644 59.3C666.194 60.236 665.348 61.064 663.908 61.064C662.072 61.064 660.866 59.984 660.758 57.446H667.436L667.472 56.384C667.472 53.792 665.708 52.316 663.656 52.316C661.172 52.316 659.516 54.314 659.516 57.104C659.516 60.146 661.1 62.144 663.782 62.144C665.906 62.144 667.094 60.956 667.544 59.804L666.644 59.3ZM663.656 53.396C665.06 53.396 666.32 54.296 666.266 56.438H660.758C660.92 54.17 662.216 53.396 663.656 53.396ZM673.048 61.964V60.884C672.868 60.938 672.67 60.956 672.472 60.956C671.716 60.956 671.284 60.542 671.284 59.732V48.68H670.06V59.732C670.06 61.136 670.762 62.072 672.256 62.072C672.526 62.072 672.76 62.036 673.048 61.964ZM677.013 59.624V53.468H680.109V52.46H677.013V49.688L675.789 50.408V52.46H673.989V53.468H675.789V59.588C675.789 61.28 676.869 62.144 678.165 62.144C679.011 62.144 679.695 61.838 680.325 61.1L679.677 60.38C679.227 60.848 678.849 61.064 678.273 61.064C677.679 61.064 677.013 60.74 677.013 59.624ZM683.029 50.732C683.623 50.732 684.109 50.264 684.109 49.652C684.109 49.04 683.623 48.572 683.029 48.572C682.435 48.572 681.949 49.04 681.949 49.652C681.949 50.264 682.435 50.732 683.029 50.732ZM682.417 62H683.641V52.46H682.417V62ZM693.329 48.68V54.188C692.753 52.982 691.673 52.316 690.341 52.316C687.785 52.316 686.129 54.386 686.129 57.32C686.129 60.092 687.767 62.126 690.197 62.126C691.439 62.126 692.699 61.442 693.329 60.218V62H694.553V48.68H693.329ZM690.323 61.046C688.559 61.046 687.389 59.678 687.389 57.266C687.389 54.764 688.559 53.396 690.341 53.396C692.249 53.396 693.329 54.8 693.329 57.284C693.329 59.624 692.231 61.046 690.323 61.046ZM697.101 54.944C697.101 56.222 698.019 57.104 699.765 57.464L701.313 57.788C702.573 58.058 703.077 58.544 703.077 59.444C703.077 60.416 702.105 61.064 700.629 61.064C699.225 61.064 698.235 60.524 697.785 59.516L696.741 59.948C697.389 61.388 698.739 62.144 700.665 62.144C702.789 62.144 704.265 60.992 704.265 59.336C704.265 57.914 703.293 57.014 701.205 56.6L699.945 56.348C698.811 56.114 698.289 55.628 698.289 54.836C698.289 53.954 699.153 53.396 700.485 53.396C701.709 53.396 702.591 53.882 702.969 54.8L703.977 54.404C703.581 53.144 702.249 52.316 700.521 52.316C698.523 52.316 697.101 53.432 697.101 54.944ZM706.279 55.016V56.168H710.599V55.016H706.279ZM429.904 79.334C428.662 79.334 427.402 80.018 426.772 81.242V79.46H425.548V92.78H426.772V87.272C427.348 88.478 428.428 89.144 429.76 89.144C432.316 89.144 433.972 87.074 433.972 84.14C433.972 81.368 432.334 79.334 429.904 79.334ZM429.76 88.064C427.852 88.064 426.772 86.66 426.772 84.176C426.772 81.836 427.87 80.414 429.778 80.414C431.542 80.414 432.712 81.782 432.712 84.194C432.712 86.696 431.542 88.064 429.76 88.064ZM439.452 88.964V87.884C439.272 87.938 439.074 87.956 438.876 87.956C438.12 87.956 437.688 87.542 437.688 86.732V75.68H436.464V86.732C436.464 88.136 437.166 89.072 438.66 89.072C438.93 89.072 439.164 89.036 439.452 88.964ZM448.795 89C448.579 88.352 448.399 87.38 448.399 86.3V82.376C448.399 80.738 447.409 79.316 445.051 79.316C443.377 79.316 441.919 80.072 441.199 82.088L442.279 82.412C442.783 80.954 443.791 80.432 444.979 80.432C446.455 80.432 447.211 81.278 447.211 82.52V83.78C446.437 83.51 445.681 83.42 444.907 83.42C442.945 83.42 441.181 84.446 441.181 86.408C441.181 88.046 442.459 89.144 444.151 89.144C445.699 89.144 446.941 88.244 447.427 87.128C447.427 87.848 447.535 88.478 447.679 89H448.795ZM447.211 85.04C447.211 87.362 445.609 88.1 444.367 88.1C443.215 88.1 442.405 87.488 442.405 86.336C442.405 85.076 443.539 84.428 444.979 84.428C445.717 84.428 446.473 84.518 447.211 84.824V85.04ZM451.025 81.944C451.025 83.222 451.943 84.104 453.689 84.464L455.237 84.788C456.497 85.058 457.001 85.544 457.001 86.444C457.001 87.416 456.029 88.064 454.553 88.064C453.149 88.064 452.159 87.524 451.709 86.516L450.665 86.948C451.313 88.388 452.663 89.144 454.589 89.144C456.713 89.144 458.189 87.992 458.189 86.336C458.189 84.914 457.217 84.014 455.129 83.6L453.869 83.348C452.735 83.114 452.213 82.628 452.213 81.836C452.213 80.954 453.077 80.396 454.409 80.396C455.633 80.396 456.515 80.882 456.893 81.8L457.901 81.404C457.505 80.144 456.173 79.316 454.445 79.316C452.447 79.316 451.025 80.432 451.025 81.944ZM460.131 81.944C460.131 83.222 461.049 84.104 462.795 84.464L464.343 84.788C465.603 85.058 466.107 85.544 466.107 86.444C466.107 87.416 465.135 88.064 463.659 88.064C462.255 88.064 461.265 87.524 460.815 86.516L459.771 86.948C460.419 88.388 461.769 89.144 463.695 89.144C465.819 89.144 467.295 87.992 467.295 86.336C467.295 84.914 466.323 84.014 464.235 83.6L462.975 83.348C461.841 83.114 461.319 82.628 461.319 81.836C461.319 80.954 462.183 80.396 463.515 80.396C464.739 80.396 465.621 80.882 465.999 81.8L467.007 81.404C466.611 80.144 465.279 79.316 463.551 79.316C461.553 79.316 460.131 80.432 460.131 81.944ZM470.356 86.84C469.69 86.84 469.204 87.326 469.204 87.956C469.204 88.658 469.708 89.072 470.356 89.072C470.5 89.072 470.626 89.054 470.716 89.036C470.86 90.296 470.05 91.052 469.204 91.808L469.636 92.312C471.202 91.088 471.688 89.9 471.688 88.712C471.688 87.488 471.112 86.84 470.356 86.84ZM482.674 89.144C485.032 89.144 486.922 87.2 486.922 84.212C486.922 81.26 485.05 79.316 482.674 79.316C480.298 79.316 478.426 81.26 478.426 84.212C478.426 87.2 480.316 89.144 482.674 89.144ZM482.674 88.064C481.036 88.064 479.686 86.768 479.686 84.212C479.686 81.674 481.054 80.396 482.674 80.396C484.294 80.396 485.662 81.674 485.662 84.212C485.662 86.768 484.312 88.064 482.674 88.064ZM493.765 79.334C492.523 79.334 491.263 80.018 490.633 81.242V79.46H489.409V92.78H490.633V87.272C491.209 88.478 492.289 89.144 493.621 89.144C496.177 89.144 497.833 87.074 497.833 84.14C497.833 81.368 496.195 79.334 493.765 79.334ZM493.621 88.064C491.713 88.064 490.633 86.66 490.633 84.176C490.633 81.836 491.731 80.414 493.639 80.414C495.403 80.414 496.573 81.782 496.573 84.194C496.573 86.696 495.403 88.064 493.621 88.064ZM504.681 79.334C503.439 79.334 502.179 80.018 501.549 81.242V79.46H500.325V92.78H501.549V87.272C502.125 88.478 503.205 89.144 504.537 89.144C507.093 89.144 508.749 87.074 508.749 84.14C508.749 81.368 507.111 79.334 504.681 79.334ZM504.537 88.064C502.629 88.064 501.549 86.66 501.549 84.176C501.549 81.836 502.647 80.414 504.555 80.414C506.319 80.414 507.489 81.782 507.489 84.194C507.489 86.696 506.319 88.064 504.537 88.064ZM510.773 81.944C510.773 83.222 511.691 84.104 513.437 84.464L514.985 84.788C516.245 85.058 516.749 85.544 516.749 86.444C516.749 87.416 515.777 88.064 514.301 88.064C512.897 88.064 511.907 87.524 511.457 86.516L510.413 86.948C511.061 88.388 512.411 89.144 514.337 89.144C516.461 89.144 517.937 87.992 517.937 86.336C517.937 84.914 516.965 84.014 514.877 83.6L513.617 83.348C512.483 83.114 511.961 82.628 511.961 81.836C511.961 80.954 512.825 80.396 514.157 80.396C515.381 80.396 516.263 80.882 516.641 81.8L517.649 81.404C517.253 80.144 515.921 79.316 514.193 79.316C512.195 79.316 510.773 80.432 510.773 81.944ZM520.023 75.752V77.588H521.895V75.752H520.023ZM520.347 89H521.571V79.46H520.347V89ZM533.239 80.468V79.46H530.503V80.126C529.927 79.64 529.171 79.316 528.181 79.316C525.661 79.316 524.383 81.098 524.383 82.808C524.383 83.978 525.085 85.31 526.345 85.814C525.175 86.12 524.473 86.858 524.473 87.704C524.473 88.694 525.265 89.324 526.597 89.324H530.701C531.565 89.324 531.853 89.72 531.853 90.26C531.853 91.412 530.197 92.006 528.217 92.006C526.615 92.006 525.211 91.7 524.545 90.134L523.555 90.584C524.131 92.258 525.805 93.032 528.217 93.032C530.899 93.032 533.077 92.042 533.077 90.152C533.077 88.964 532.285 88.208 530.737 88.208H526.867C526.075 88.208 525.697 87.866 525.697 87.38C525.697 86.75 526.471 86.336 527.551 86.336H527.965C530.647 86.336 531.907 84.554 531.907 82.808C531.907 82.106 531.655 81.386 531.187 80.81V80.468H533.239ZM528.163 85.328C526.453 85.328 525.589 84.14 525.589 82.808C525.589 81.494 526.453 80.36 528.163 80.36C529.855 80.36 530.701 81.476 530.701 82.808C530.701 84.158 529.855 85.328 528.163 85.328ZM540.943 86.3C540.493 87.236 539.647 88.064 538.207 88.064C536.371 88.064 535.165 86.984 535.057 84.446H541.735L541.771 83.384C541.771 80.792 540.007 79.316 537.955 79.316C535.471 79.316 533.815 81.314 533.815 84.104C533.815 87.146 535.399 89.144 538.081 89.144C540.205 89.144 541.393 87.956 541.843 86.804L540.943 86.3ZM537.955 80.396C539.359 80.396 540.619 81.296 540.565 83.438H535.057C535.219 81.17 536.515 80.396 537.955 80.396ZM547.347 88.964V87.884C547.167 87.938 546.969 87.956 546.771 87.956C546.015 87.956 545.583 87.542 545.583 86.732V75.68H544.359V86.732C544.359 88.136 545.061 89.072 546.555 89.072C546.825 89.072 547.059 89.036 547.347 88.964ZM549.111 81.944C549.111 83.222 550.029 84.104 551.775 84.464L553.323 84.788C554.583 85.058 555.087 85.544 555.087 86.444C555.087 87.416 554.115 88.064 552.639 88.064C551.235 88.064 550.245 87.524 549.795 86.516L548.751 86.948C549.399 88.388 550.749 89.144 552.675 89.144C554.799 89.144 556.275 87.992 556.275 86.336C556.275 84.914 555.303 84.014 553.215 83.6L551.955 83.348C550.821 83.114 550.299 82.628 550.299 81.836C550.299 80.954 551.163 80.396 552.495 80.396C553.719 80.396 554.601 80.882 554.979 81.8L555.987 81.404C555.591 80.144 554.259 79.316 552.531 79.316C550.533 79.316 549.111 80.432 549.111 81.944ZM565.201 86.3C564.751 87.236 563.905 88.064 562.465 88.064C560.629 88.064 559.423 86.984 559.315 84.446H565.993L566.029 83.384C566.029 80.792 564.265 79.316 562.213 79.316C559.729 79.316 558.073 81.314 558.073 84.104C558.073 87.146 559.657 89.144 562.339 89.144C564.463 89.144 565.651 87.956 566.101 86.804L565.201 86.3ZM562.213 80.396C563.617 80.396 564.877 81.296 564.823 83.438H559.315C559.477 81.17 560.773 80.396 562.213 80.396ZM569.341 89.108C569.989 89.108 570.493 88.622 570.493 87.956C570.493 87.29 569.989 86.804 569.341 86.804C568.693 86.804 568.189 87.29 568.189 87.956C568.189 88.622 568.693 89.108 569.341 89.108Z" fill="#2A2859"/>
<path fill-rule="evenodd" clip-rule="evenodd" d="M793.143 15.8571L783.143 5.85714L778.857 10.1429L784.571 15.8571L778.857 21.5714L783.143 25.8571L793.143 15.8571ZM776 10.1429L783.143 3L796 15.8571L783.143 28.7143L776 21.5714L781.714 15.8571L776 10.1429Z" fill="#2A2859"/>
<path d="M819.784 15.472C821.44 14.848 822.304 13.24 822.304 11.728C822.304 9.328 820.6 7.24 816.856 7.24H810.088V25H817.216C821.32 25 823.144 22.504 823.144 19.936C823.144 17.8 821.824 16.144 819.784 15.472ZM816.616 9.616C818.56 9.616 819.472 10.744 819.472 12.184C819.472 13.816 818.56 14.8 816.784 14.8H812.896V9.616H816.616ZM816.952 22.624H812.896V17.128H817.096C819.016 17.128 820.144 18.136 820.144 19.864C820.144 21.472 819.184 22.624 816.952 22.624ZM835.906 25C835.594 24.184 835.354 22.84 835.354 21.328V16.408C835.354 13.984 833.818 11.992 830.434 11.992C828.154 11.992 825.97 13.072 825.058 15.76L827.338 16.456C827.818 14.968 828.85 14.176 830.314 14.176C831.874 14.176 832.738 15.064 832.738 16.432V17.632C831.85 17.392 831.034 17.32 830.17 17.32C827.434 17.32 824.986 18.688 824.986 21.448C824.986 23.656 826.618 25.216 828.922 25.216C831.13 25.216 832.474 23.92 833.074 22.6C833.122 23.584 833.242 24.352 833.434 25H835.906ZM832.738 19.744C832.738 22.36 831.034 23.128 829.738 23.128C828.466 23.128 827.626 22.384 827.626 21.208C827.626 19.816 828.85 19.096 830.434 19.096C831.226 19.096 831.97 19.192 832.738 19.456V19.744ZM845.024 11.992C843.92 11.992 842.6 12.568 841.88 13.984V12.28H839.192V25H841.88V17.56C841.88 15.136 842.888 14.224 844.256 14.224C845.504 14.224 845.912 15.016 845.912 16.168V17.464L848.072 17.08V15.4C848.072 13.216 846.872 11.992 845.024 11.992ZM857.377 11.992C855.793 11.992 854.521 12.76 853.657 14.104V12.28H850.969V25H853.657V18.112C853.657 15.64 854.617 14.32 856.513 14.32C857.977 14.32 858.817 15.112 858.817 16.864V25H861.505V16.432C861.505 13.672 859.969 11.992 857.377 11.992ZM873.943 20.992C873.271 22.192 872.191 23.032 870.631 23.032C868.519 23.032 867.199 21.88 867.055 19.192H875.695L875.743 17.608C875.743 14.008 873.271 11.992 870.271 11.992C866.887 11.992 864.415 14.656 864.415 18.52C864.415 22.432 866.695 25.216 870.463 25.216C873.367 25.216 875.047 23.632 875.767 22.048L873.943 20.992ZM870.271 14.104C871.759 14.104 873.151 15.016 873.127 17.272H867.055C867.271 14.968 868.639 14.104 870.271 14.104ZM885.29 11.992C883.706 11.992 882.41 12.76 881.546 14.128V7.24H878.858V25H881.546V18.112C881.546 15.64 882.53 14.32 884.426 14.32C885.89 14.32 886.73 15.112 886.73 16.864V25H889.418V16.432C889.418 13.672 887.882 11.992 885.29 11.992ZM903.367 25C903.055 24.184 902.815 22.84 902.815 21.328V16.408C902.815 13.984 901.279 11.992 897.895 11.992C895.615 11.992 893.431 13.072 892.519 15.76L894.799 16.456C895.279 14.968 896.311 14.176 897.775 14.176C899.335 14.176 900.199 15.064 900.199 16.432V17.632C899.311 17.392 898.495 17.32 897.631 17.32C894.895 17.32 892.447 18.688 892.447 21.448C892.447 23.656 894.079 25.216 896.383 25.216C898.591 25.216 899.935 23.92 900.535 22.6C900.583 23.584 900.703 24.352 900.895 25H903.367ZM900.199 19.744C900.199 22.36 898.495 23.128 897.199 23.128C895.927 23.128 895.087 22.384 895.087 21.208C895.087 19.816 896.311 19.096 897.895 19.096C898.687 19.096 899.431 19.192 900.199 19.456V19.744ZM918.635 14.368V12.28H914.795V13.336C914.075 12.544 912.851 11.992 911.291 11.992C907.763 11.992 905.915 14.32 905.915 16.6C905.915 18.136 906.779 19.768 908.531 20.536C906.947 20.848 905.795 21.88 905.795 23.176C905.795 24.52 906.827 25.6 908.819 25.6H914.603C915.467 25.6 915.779 26.008 915.779 26.56C915.779 27.736 914.003 28.408 911.507 28.408C909.179 28.408 907.787 28 907.187 26.464L904.571 26.968C905.219 29.44 907.715 30.376 911.435 30.376C915.683 30.376 918.347 28.864 918.347 26.248C918.347 24.52 917.099 23.392 914.915 23.392H909.611C908.795 23.392 908.387 23.008 908.387 22.48C908.387 21.712 909.227 21.28 910.523 21.28H911.147C914.843 21.28 916.619 18.976 916.619 16.672C916.619 15.952 916.403 15.256 915.971 14.656V14.368H918.635ZM911.291 19.336C909.467 19.336 908.579 18.04 908.579 16.648C908.579 15.256 909.467 13.984 911.291 13.984C913.139 13.984 914.003 15.256 914.003 16.648C914.003 18.04 913.139 19.336 911.291 19.336ZM928.689 20.992C928.017 22.192 926.937 23.032 925.377 23.032C923.265 23.032 921.945 21.88 921.801 19.192H930.441L930.489 17.608C930.489 14.008 928.017 11.992 925.017 11.992C921.633 11.992 919.161 14.656 919.161 18.52C919.161 22.432 921.441 25.216 925.209 25.216C928.113 25.216 929.793 23.632 930.513 22.048L928.689 20.992ZM925.017 14.104C926.505 14.104 927.897 15.016 927.873 17.272H921.801C922.017 14.968 923.385 14.104 925.017 14.104Z" fill="#2A2859"/>
<path d="M809.332 52.208C809.332 54.224 810.826 55.25 812.68 55.592L814.588 55.952C816.208 56.258 817.288 56.726 817.288 58.328C817.288 59.768 816.118 61.028 813.94 61.028C812.482 61.028 810.988 60.668 810.088 58.904L808.936 59.372C809.872 61.352 811.6 62.144 813.904 62.144C816.82 62.144 818.548 60.308 818.548 58.256C818.548 56.258 817.036 55.16 814.984 54.764L812.896 54.368C811.33 54.062 810.592 53.306 810.592 52.064C810.592 50.588 811.888 49.652 813.724 49.652C815.11 49.652 816.316 50.354 816.856 51.632L818.044 51.146C817.378 49.472 815.902 48.536 813.724 48.536C811.366 48.536 809.332 49.976 809.332 52.208ZM827.358 53.18L828.168 51.596H827.304L826.71 52.748C826.152 52.478 825.522 52.316 824.856 52.316C822.48 52.316 820.608 54.26 820.608 57.212C820.608 59.012 821.292 60.434 822.354 61.28L821.544 62.864H822.408L823.002 61.694C823.56 61.982 824.19 62.144 824.856 62.144C827.214 62.144 829.104 60.2 829.104 57.212C829.104 55.43 828.42 54.026 827.358 53.18ZM821.868 57.212C821.868 54.674 823.236 53.396 824.856 53.396C825.342 53.396 825.792 53.504 826.206 53.738L822.876 60.254C822.264 59.606 821.868 58.598 821.868 57.212ZM824.856 61.064C824.37 61.064 823.902 60.956 823.506 60.722L826.836 54.206C827.448 54.854 827.844 55.844 827.844 57.212C827.844 59.768 826.494 61.064 824.856 61.064ZM837.531 62H839.079L834.849 56.456L839.007 52.46H837.387L832.851 56.942V48.68H831.627V62H832.851V58.382L834.021 57.266L837.531 62ZM846.931 59.3C846.481 60.236 845.635 61.064 844.195 61.064C842.359 61.064 841.153 59.984 841.045 57.446H847.723L847.759 56.384C847.759 53.792 845.995 52.316 843.943 52.316C841.459 52.316 839.803 54.314 839.803 57.104C839.803 60.146 841.387 62.144 844.069 62.144C846.193 62.144 847.381 60.956 847.831 59.804L846.931 59.3ZM843.943 53.396C845.347 53.396 846.607 54.296 846.553 56.438H841.045C841.207 54.17 842.503 53.396 843.943 53.396ZM850.999 59.84C850.333 59.84 849.847 60.326 849.847 60.956C849.847 61.658 850.351 62.072 850.999 62.072C851.143 62.072 851.269 62.054 851.359 62.036C851.503 63.296 850.693 64.052 849.847 64.808L850.279 65.312C851.845 64.088 852.331 62.9 852.331 61.712C852.331 60.488 851.755 59.84 850.999 59.84ZM860.293 50.732C860.887 50.732 861.373 50.264 861.373 49.652C861.373 49.04 860.887 48.572 860.293 48.572C859.699 48.572 859.213 49.04 859.213 49.652C859.213 50.264 859.699 50.732 860.293 50.732ZM859.681 62H860.905V52.46H859.681V62ZM868.001 52.316C866.849 52.316 865.805 52.892 865.229 53.936V52.46H864.005V62H865.229V56.636C865.229 54.728 866.003 53.432 867.677 53.432C869.009 53.432 869.801 54.08 869.801 55.808V62H871.025V55.628C871.025 53.486 869.909 52.316 868.001 52.316ZM877.968 52.316C876.816 52.316 875.772 52.892 875.196 53.936V52.46H873.972V62H875.196V56.636C875.196 54.728 875.97 53.432 877.644 53.432C878.976 53.432 879.768 54.08 879.768 55.808V62H880.992V55.628C880.992 53.486 879.876 52.316 877.968 52.316ZM885.847 59.624V53.468H888.943V52.46H885.847V49.688L884.623 50.408V52.46H882.823V53.468H884.623V59.588C884.623 61.28 885.703 62.144 886.999 62.144C887.845 62.144 888.529 61.838 889.159 61.1L888.511 60.38C888.061 60.848 887.683 61.064 887.107 61.064C886.513 61.064 885.847 60.74 885.847 59.624ZM898.01 62C897.794 61.352 897.614 60.38 897.614 59.3V55.376C897.614 53.738 896.624 52.316 894.266 52.316C892.592 52.316 891.134 53.072 890.414 55.088L891.494 55.412C891.998 53.954 893.006 53.432 894.194 53.432C895.67 53.432 896.426 54.278 896.426 55.52V56.78C895.652 56.51 894.896 56.42 894.122 56.42C892.16 56.42 890.396 57.446 890.396 59.408C890.396 61.046 891.674 62.144 893.366 62.144C894.914 62.144 896.156 61.244 896.642 60.128C896.642 60.848 896.75 61.478 896.894 62H898.01ZM896.426 58.04C896.426 60.362 894.824 61.1 893.582 61.1C892.43 61.1 891.62 60.488 891.62 59.336C891.62 58.076 892.754 57.428 894.194 57.428C894.932 57.428 895.688 57.518 896.426 57.824V58.04ZM906.648 62H908.196L903.966 56.456L908.124 52.46H906.504L901.968 56.942V48.68H900.744V62H901.968V58.382L903.138 57.266L906.648 62ZM909.24 54.944C909.24 56.222 910.158 57.104 911.904 57.464L913.452 57.788C914.712 58.058 915.216 58.544 915.216 59.444C915.216 60.416 914.244 61.064 912.768 61.064C911.364 61.064 910.374 60.524 909.924 59.516L908.88 59.948C909.528 61.388 910.878 62.144 912.804 62.144C914.928 62.144 916.404 60.992 916.404 59.336C916.404 57.914 915.432 57.014 913.344 56.6L912.084 56.348C910.95 56.114 910.428 55.628 910.428 54.836C910.428 53.954 911.292 53.396 912.624 53.396C913.848 53.396 914.73 53.882 915.108 54.8L916.116 54.404C915.72 53.144 914.388 52.316 912.66 52.316C910.662 52.316 909.24 53.432 909.24 54.944ZM924.754 62H926.302L922.072 56.456L926.23 52.46H924.61L920.074 56.942V48.68H918.85V62H920.074V58.382L921.244 57.266L924.754 62ZM931.603 52.316C930.757 52.316 929.911 52.748 929.407 53.648V52.46H928.183V62H929.407V56.132C929.407 54.206 930.235 53.396 931.333 53.396C932.305 53.396 932.629 54.026 932.629 54.98V55.916L933.745 55.7V54.764C933.745 53.144 932.845 52.316 931.603 52.316ZM942.728 62C942.512 61.352 942.332 60.38 942.332 59.3V55.376C942.332 53.738 941.342 52.316 938.984 52.316C937.31 52.316 935.852 53.072 935.132 55.088L936.212 55.412C936.716 53.954 937.724 53.432 938.912 53.432C940.388 53.432 941.144 54.278 941.144 55.52V56.78C940.37 56.51 939.614 56.42 938.84 56.42C936.878 56.42 935.114 57.446 935.114 59.408C935.114 61.046 936.392 62.144 938.084 62.144C939.632 62.144 940.874 61.244 941.36 60.128C941.36 60.848 941.468 61.478 941.612 62H942.728ZM941.144 58.04C941.144 60.362 939.542 61.1 938.3 61.1C937.148 61.1 936.338 60.488 936.338 59.336C936.338 58.076 937.472 57.428 938.912 57.428C939.65 57.428 940.406 57.518 941.144 57.824V58.04ZM951.159 52.46L948.171 60.65L945.183 52.46H943.851L947.595 62H948.675L952.419 52.46H951.159ZM953.673 59.84C953.007 59.84 952.521 60.326 952.521 60.956C952.521 61.658 953.025 62.072 953.673 62.072C953.817 62.072 953.943 62.054 954.033 62.036C954.177 63.296 953.367 64.052 952.521 64.808L952.953 65.312C954.519 64.088 955.005 62.9 955.005 61.712C955.005 60.488 954.429 59.84 953.673 59.84ZM961.887 54.944C961.887 56.222 962.805 57.104 964.551 57.464L966.099 57.788C967.359 58.058 967.863 58.544 967.863 59.444C967.863 60.416 966.891 61.064 965.415 61.064C964.011 61.064 963.021 60.524 962.571 59.516L961.527 59.948C962.175 61.388 963.525 62.144 965.451 62.144C967.575 62.144 969.051 60.992 969.051 59.336C969.051 57.914 968.079 57.014 965.991 56.6L964.731 56.348C963.597 56.114 963.075 55.628 963.075 54.836C963.075 53.954 963.939 53.396 965.271 53.396C966.495 53.396 967.377 53.882 967.755 54.8L968.763 54.404C968.367 53.144 967.035 52.316 965.307 52.316C963.309 52.316 961.887 53.432 961.887 54.944ZM975.456 52.316C974.304 52.316 973.26 52.892 972.684 53.936V52.46H971.46V62H972.684V56.636C972.684 54.728 973.458 53.432 975.132 53.432C976.464 53.432 977.256 54.08 977.256 55.808V62H978.48V55.628C978.48 53.486 977.364 52.316 975.456 52.316ZM981.103 48.752V50.588H982.975V48.752H981.103ZM981.427 62H982.651V52.46H981.427V62ZM987.659 59.624V53.468H990.755V52.46H987.659V49.688L986.435 50.408V52.46H984.635V53.468H986.435V59.588C986.435 61.28 987.515 62.144 988.811 62.144C989.657 62.144 990.341 61.838 990.971 61.1L990.323 60.38C989.873 60.848 989.495 61.064 988.919 61.064C988.325 61.064 987.659 60.74 987.659 59.624ZM994.62 59.624V53.468H997.716V52.46H994.62V49.688L993.396 50.408V52.46H991.596V53.468H993.396V59.588C993.396 61.28 994.476 62.144 995.772 62.144C996.618 62.144 997.302 61.838 997.932 61.1L997.284 60.38C996.834 60.848 996.456 61.064 995.88 61.064C995.286 61.064 994.62 60.74 994.62 59.624ZM1000.85 59.84C1000.19 59.84 999.701 60.326 999.701 60.956C999.701 61.658 1000.2 62.072 1000.85 62.072C1001 62.072 1001.12 62.054 1001.21 62.036C1001.36 63.296 1000.55 64.052 999.701 64.808L1000.13 65.312C1001.7 64.088 1002.18 62.9 1002.18 61.712C1002.18 60.488 1001.61 59.84 1000.85 59.84ZM1013.89 52.334C1012.65 52.334 1011.39 53.018 1010.76 54.242V52.46H1009.53V65.78H1010.76V60.272C1011.33 61.478 1012.41 62.144 1013.75 62.144C1016.3 62.144 1017.96 60.074 1017.96 57.14C1017.96 54.368 1016.32 52.334 1013.89 52.334ZM1013.75 61.064C1011.84 61.064 1010.76 59.66 1010.76 57.176C1010.76 54.836 1011.86 53.414 1013.76 53.414C1015.53 53.414 1016.7 54.782 1016.7 57.194C1016.7 59.696 1015.53 61.064 1013.75 61.064ZM1024.09 62.144C1026.44 62.144 1028.33 60.2 1028.33 57.212C1028.33 54.26 1026.46 52.316 1024.09 52.316C1021.71 52.316 1019.84 54.26 1019.84 57.212C1019.84 60.2 1021.73 62.144 1024.09 62.144ZM1024.09 61.064C1022.45 61.064 1021.1 59.768 1021.1 57.212C1021.1 54.674 1022.47 53.396 1024.09 53.396C1025.71 53.396 1027.07 54.674 1027.07 57.212C1027.07 59.768 1025.72 61.064 1024.09 61.064ZM1037.34 59.3C1036.89 60.236 1036.04 61.064 1034.6 61.064C1032.77 61.064 1031.56 59.984 1031.45 57.446H1038.13L1038.17 56.384C1038.17 53.792 1036.4 52.316 1034.35 52.316C1031.87 52.316 1030.21 54.314 1030.21 57.104C1030.21 60.146 1031.79 62.144 1034.48 62.144C1036.6 62.144 1037.79 60.956 1038.24 59.804L1037.34 59.3ZM1034.35 53.396C1035.75 53.396 1037.01 54.296 1036.96 56.438H1031.45C1031.61 54.17 1032.91 53.396 1034.35 53.396ZM1044.75 52.316C1043.6 52.316 1042.55 52.892 1041.98 53.936V52.46H1040.75V62H1041.98V56.636C1041.98 54.728 1042.75 53.432 1044.43 53.432C1045.76 53.432 1046.55 54.08 1046.55 55.808V62H1047.77V55.628C1047.77 53.486 1046.66 52.316 1044.75 52.316ZM1059.29 53.468V52.46H1056.55V53.126C1055.98 52.64 1055.22 52.316 1054.23 52.316C1051.71 52.316 1050.43 54.098 1050.43 55.808C1050.43 56.978 1051.13 58.31 1052.39 58.814C1051.22 59.12 1050.52 59.858 1050.52 60.704C1050.52 61.694 1051.31 62.324 1052.65 62.324H1056.75C1057.61 62.324 1057.9 62.72 1057.9 63.26C1057.9 64.412 1056.25 65.006 1054.27 65.006C1052.66 65.006 1051.26 64.7 1050.59 63.134L1049.6 63.584C1050.18 65.258 1051.85 66.032 1054.27 66.032C1056.95 66.032 1059.13 65.042 1059.13 63.152C1059.13 61.964 1058.33 61.208 1056.79 61.208H1052.92C1052.12 61.208 1051.75 60.866 1051.75 60.38C1051.75 59.75 1052.52 59.336 1053.6 59.336H1054.01C1056.7 59.336 1057.96 57.554 1057.96 55.808C1057.96 55.106 1057.7 54.386 1057.24 53.81V53.468H1059.29ZM1054.21 58.328C1052.5 58.328 1051.64 57.14 1051.64 55.808C1051.64 54.494 1052.5 53.36 1054.21 53.36C1055.9 53.36 1056.75 54.476 1056.75 55.808C1056.75 57.158 1055.9 58.328 1054.21 58.328ZM1069.76 53.468V52.46H1067.03V53.126C1066.45 52.64 1065.7 52.316 1064.71 52.316C1062.19 52.316 1060.91 54.098 1060.91 55.808C1060.91 56.978 1061.61 58.31 1062.87 58.814C1061.7 59.12 1061 59.858 1061 60.704C1061 61.694 1061.79 62.324 1063.12 62.324H1067.23C1068.09 62.324 1068.38 62.72 1068.38 63.26C1068.38 64.412 1066.72 65.006 1064.74 65.006C1063.14 65.006 1061.74 64.7 1061.07 63.134L1060.08 63.584C1060.66 65.258 1062.33 66.032 1064.74 66.032C1067.42 66.032 1069.6 65.042 1069.6 63.152C1069.6 61.964 1068.81 61.208 1067.26 61.208H1063.39C1062.6 61.208 1062.22 60.866 1062.22 60.38C1062.22 59.75 1063 59.336 1064.08 59.336H1064.49C1067.17 59.336 1068.43 57.554 1068.43 55.808C1068.43 55.106 1068.18 54.386 1067.71 53.81V53.468H1069.76ZM1064.69 58.328C1062.98 58.328 1062.11 57.14 1062.11 55.808C1062.11 54.494 1062.98 53.36 1064.69 53.36C1066.38 53.36 1067.23 54.476 1067.23 55.808C1067.23 57.158 1066.38 58.328 1064.69 58.328ZM1075.09 52.316C1074.25 52.316 1073.4 52.748 1072.9 53.648V52.46H1071.67V62H1072.9V56.132C1072.9 54.206 1073.73 53.396 1074.82 53.396C1075.8 53.396 1076.12 54.026 1076.12 54.98V55.916L1077.24 55.7V54.764C1077.24 53.144 1076.34 52.316 1075.09 52.316ZM1085.62 59.3C1085.17 60.236 1084.33 61.064 1082.89 61.064C1081.05 61.064 1079.85 59.984 1079.74 57.446H1086.42L1086.45 56.384C1086.45 53.792 1084.69 52.316 1082.64 52.316C1080.15 52.316 1078.5 54.314 1078.5 57.104C1078.5 60.146 1080.08 62.144 1082.76 62.144C1084.89 62.144 1086.07 60.956 1086.52 59.804L1085.62 59.3ZM1082.64 53.396C1084.04 53.396 1085.3 54.296 1085.25 56.438H1079.74C1079.9 54.17 1081.2 53.396 1082.64 53.396ZM1093.04 52.316C1091.88 52.316 1090.84 52.892 1090.26 53.936V52.46H1089.04V62H1090.26V56.636C1090.26 54.728 1091.04 53.432 1092.71 53.432C1094.04 53.432 1094.84 54.08 1094.84 55.808V62H1096.06V55.628C1096.06 53.486 1094.94 52.316 1093.04 52.316ZM1098.54 54.944C1098.54 56.222 1099.46 57.104 1101.2 57.464L1102.75 57.788C1104.01 58.058 1104.51 58.544 1104.51 59.444C1104.51 60.416 1103.54 61.064 1102.07 61.064C1100.66 61.064 1099.67 60.524 1099.22 59.516L1098.18 59.948C1098.83 61.388 1100.18 62.144 1102.1 62.144C1104.23 62.144 1105.7 60.992 1105.7 59.336C1105.7 57.914 1104.73 57.014 1102.64 56.6L1101.38 56.348C1100.25 56.114 1099.73 55.628 1099.73 54.836C1099.73 53.954 1100.59 53.396 1101.92 53.396C1103.15 53.396 1104.03 53.882 1104.41 54.8L1105.41 54.404C1105.02 53.144 1103.69 52.316 1101.96 52.316C1099.96 52.316 1098.54 53.432 1098.54 54.944ZM1114.63 59.3C1114.18 60.236 1113.33 61.064 1111.89 61.064C1110.06 61.064 1108.85 59.984 1108.74 57.446H1115.42L1115.46 56.384C1115.46 53.792 1113.69 52.316 1111.64 52.316C1109.16 52.316 1107.5 54.314 1107.5 57.104C1107.5 60.146 1109.08 62.144 1111.77 62.144C1113.89 62.144 1115.08 60.956 1115.53 59.804L1114.63 59.3ZM1111.64 53.396C1113.04 53.396 1114.3 54.296 1114.25 56.438H1108.74C1108.9 54.17 1110.2 53.396 1111.64 53.396ZM1121.46 52.316C1120.62 52.316 1119.77 52.748 1119.27 53.648V52.46H1118.04V62H1119.27V56.132C1119.27 54.206 1120.1 53.396 1121.19 53.396C1122.17 53.396 1122.49 54.026 1122.49 54.98V55.916L1123.61 55.7V54.764C1123.61 53.144 1122.71 52.316 1121.46 52.316ZM1124.34 59.84C1123.67 59.84 1123.19 60.326 1123.19 60.956C1123.19 61.658 1123.69 62.072 1124.34 62.072C1124.48 62.072 1124.61 62.054 1124.7 62.036C1124.84 63.296 1124.03 64.052 1123.19 64.808L1123.62 65.312C1125.18 64.088 1125.67 62.9 1125.67 61.712C1125.67 60.488 1125.09 59.84 1124.34 59.84ZM811.456 78.128C811.456 76.958 812.122 76.58 812.752 76.58C813.256 76.58 813.688 76.832 813.976 77.264L814.714 76.526C814.264 75.806 813.472 75.536 812.788 75.536C811.312 75.536 810.232 76.472 810.232 78.128V79.46H808.432V80.468H810.232V89H811.456V80.468H814.12V79.46H811.456V78.128ZM819.402 79.316C818.556 79.316 817.71 79.748 817.206 80.648V79.46H815.982V89H817.206V83.132C817.206 81.206 818.034 80.396 819.132 80.396C820.104 80.396 820.428 81.026 820.428 81.98V82.916L821.544 82.7V81.764C821.544 80.144 820.644 79.316 819.402 79.316ZM830.527 89C830.311 88.352 830.131 87.38 830.131 86.3V82.376C830.131 80.738 829.141 79.316 826.783 79.316C825.109 79.316 823.651 80.072 822.931 82.088L824.011 82.412C824.515 80.954 825.523 80.432 826.711 80.432C828.187 80.432 828.943 81.278 828.943 82.52V83.78C828.169 83.51 827.413 83.42 826.639 83.42C824.677 83.42 822.913 84.446 822.913 86.408C822.913 88.046 824.191 89.144 825.883 89.144C827.431 89.144 828.673 88.244 829.159 87.128C829.159 87.848 829.267 88.478 829.411 89H830.527ZM828.943 85.04C828.943 87.362 827.341 88.1 826.099 88.1C824.947 88.1 824.137 87.488 824.137 86.336C824.137 85.076 825.271 84.428 826.711 84.428C827.449 84.428 828.205 84.518 828.943 84.824V85.04ZM838.958 79.46L835.97 87.65L832.982 79.46H831.65L835.394 89H836.474L840.218 79.46H838.958ZM854.1 86.3C853.668 87.236 852.84 88.064 851.436 88.064C849.6 88.064 848.43 86.984 848.358 84.41H854.82L854.856 83.384C854.856 80.792 853.254 79.316 851.256 79.316C849.834 79.316 848.682 79.982 848.034 81.062C847.638 80.054 846.684 79.316 845.028 79.316C843.462 79.316 841.932 80.162 841.23 82.034L842.256 82.412C842.76 81.044 843.822 80.432 845.028 80.432C846.45 80.432 847.206 81.278 847.206 82.52V83.474H844.92C842.922 83.474 841.158 84.464 841.158 86.408C841.158 88.046 842.472 89.144 844.2 89.144C845.964 89.144 847.35 87.992 847.71 86.588C848.232 88.172 849.546 89.144 851.382 89.144C853.38 89.144 854.55 87.884 855 86.804L854.1 86.3ZM851.256 80.396C852.588 80.396 853.776 81.314 853.722 83.474H848.358C848.466 81.17 849.798 80.396 851.256 80.396ZM847.206 85.04C847.206 87.362 845.586 88.1 844.344 88.1C843.192 88.1 842.382 87.488 842.382 86.336C842.382 85.076 843.516 84.41 844.956 84.41H847.206V85.04ZM860.939 79.316C860.093 79.316 859.247 79.748 858.743 80.648V79.46H857.519V89H858.743V83.132C858.743 81.206 859.571 80.396 860.669 80.396C861.641 80.396 861.965 81.026 861.965 81.98V82.916L863.081 82.7V81.764C863.081 80.144 862.181 79.316 860.939 79.316ZM863.813 86.84C863.148 86.84 862.662 87.326 862.662 87.956C862.662 88.658 863.166 89.072 863.813 89.072C863.958 89.072 864.083 89.054 864.174 89.036C864.318 90.296 863.508 91.052 862.662 91.808L863.094 92.312C864.66 91.088 865.146 89.9 865.146 88.712C865.146 87.488 864.57 86.84 863.813 86.84ZM878.579 79.46L875.591 87.65L872.603 79.46H871.271L875.015 89H876.095L879.839 79.46H878.579ZM882.318 77.732C882.912 77.732 883.398 77.264 883.398 76.652C883.398 76.04 882.912 75.572 882.318 75.572C881.724 75.572 881.238 76.04 881.238 76.652C881.238 77.264 881.724 77.732 882.318 77.732ZM881.706 89H882.93V79.46H881.706V89ZM887.938 86.624V80.468H891.034V79.46H887.938V76.688L886.714 77.408V79.46H884.914V80.468H886.714V86.588C886.714 88.28 887.794 89.144 889.09 89.144C889.936 89.144 890.62 88.838 891.25 88.1L890.602 87.38C890.152 87.848 889.774 88.064 889.198 88.064C888.604 88.064 887.938 87.74 887.938 86.624ZM897.339 79.316C896.187 79.316 895.143 79.892 894.567 80.936V79.46H893.343V89H894.567V83.636C894.567 81.728 895.341 80.432 897.015 80.432C898.347 80.432 899.139 81.08 899.139 82.808V89H900.363V82.628C900.363 80.486 899.247 79.316 897.339 79.316ZM909.826 86.3C909.376 87.236 908.53 88.064 907.09 88.064C905.254 88.064 904.048 86.984 903.94 84.446H910.618L910.654 83.384C910.654 80.792 908.89 79.316 906.838 79.316C904.354 79.316 902.698 81.314 902.698 84.104C902.698 87.146 904.282 89.144 906.964 89.144C909.088 89.144 910.276 87.956 910.726 86.804L909.826 86.3ZM906.838 80.396C908.242 80.396 909.502 81.296 909.448 83.438H903.94C904.102 81.17 905.398 80.396 906.838 80.396ZM922.745 79.316C921.521 79.316 920.423 80 919.883 81.26C919.541 80.018 918.587 79.316 917.165 79.316C916.049 79.316 915.041 79.892 914.465 80.954V79.46H913.241V89H914.465V83.636C914.465 81.728 915.167 80.432 916.841 80.432C918.083 80.432 918.821 81.08 918.821 82.628V89H920.045V83.636C920.045 81.728 920.747 80.432 922.421 80.432C923.663 80.432 924.401 81.08 924.401 82.628V89H925.625V82.448C925.625 80.468 924.563 79.316 922.745 79.316ZM931.971 78.452C933.141 78.452 934.095 77.588 934.095 76.4C934.095 75.212 933.141 74.348 931.971 74.348C930.801 74.348 929.847 75.212 929.847 76.4C929.847 77.588 930.801 78.452 931.971 78.452ZM931.971 75.176C932.655 75.176 933.195 75.608 933.195 76.4C933.195 77.21 932.655 77.624 931.971 77.624C931.287 77.624 930.747 77.21 930.747 76.4C930.747 75.608 931.287 75.176 931.971 75.176ZM935.679 89C935.463 88.352 935.283 87.38 935.283 86.3V82.376C935.283 80.738 934.293 79.316 931.935 79.316C930.261 79.316 928.803 80.072 928.083 82.088L929.163 82.412C929.667 80.954 930.675 80.432 931.863 80.432C933.339 80.432 934.095 81.278 934.095 82.52V83.78C933.321 83.51 932.565 83.42 931.791 83.42C929.829 83.42 928.065 84.446 928.065 86.408C928.065 88.046 929.343 89.144 931.035 89.144C932.583 89.144 933.825 88.244 934.311 87.128C934.311 87.848 934.419 88.478 934.563 89H935.679ZM934.095 85.04C934.095 87.362 932.493 88.1 931.251 88.1C930.099 88.1 929.289 87.488 929.289 86.336C929.289 85.076 930.423 84.428 931.863 84.428C932.601 84.428 933.357 84.518 934.095 84.824V85.04ZM941.366 88.964V87.884C941.186 87.938 940.988 87.956 940.79 87.956C940.034 87.956 939.602 87.542 939.602 86.732V75.68H938.378V86.732C938.378 88.136 939.08 89.072 940.574 89.072C940.844 89.072 941.078 89.036 941.366 88.964ZM944.427 86.84C943.761 86.84 943.275 87.326 943.275 87.956C943.275 88.658 943.779 89.072 944.427 89.072C944.571 89.072 944.697 89.054 944.787 89.036C944.931 90.296 944.121 91.052 943.275 91.808L943.707 92.312C945.273 91.088 945.759 89.9 945.759 88.712C945.759 87.488 945.183 86.84 944.427 86.84ZM959.625 86.3C959.175 87.236 958.329 88.064 956.889 88.064C955.053 88.064 953.847 86.984 953.739 84.446H960.417L960.453 83.384C960.453 80.792 958.689 79.316 956.637 79.316C954.153 79.316 952.497 81.314 952.497 84.104C952.497 87.146 954.081 89.144 956.763 89.144C958.887 89.144 960.075 87.956 960.525 86.804L959.625 86.3ZM956.637 80.396C958.041 80.396 959.301 81.296 959.247 83.438H953.739C953.901 81.17 955.197 80.396 956.637 80.396ZM968.98 89H970.528L966.298 83.456L970.456 79.46H968.836L964.3 83.942V75.68H963.076V89H964.3V85.382L965.47 84.266L968.98 89ZM971.572 81.944C971.572 83.222 972.49 84.104 974.236 84.464L975.784 84.788C977.044 85.058 977.548 85.544 977.548 86.444C977.548 87.416 976.576 88.064 975.1 88.064C973.696 88.064 972.706 87.524 972.256 86.516L971.212 86.948C971.86 88.388 973.21 89.144 975.136 89.144C977.26 89.144 978.736 87.992 978.736 86.336C978.736 84.914 977.764 84.014 975.676 83.6L974.416 83.348C973.282 83.114 972.76 82.628 972.76 81.836C972.76 80.954 973.624 80.396 974.956 80.396C976.18 80.396 977.062 80.882 977.44 81.8L978.448 81.404C978.052 80.144 976.72 79.316 974.992 79.316C972.994 79.316 971.572 80.432 971.572 81.944ZM987.904 89C987.688 88.352 987.508 87.38 987.508 86.3V82.376C987.508 80.738 986.518 79.316 984.16 79.316C982.486 79.316 981.028 80.072 980.308 82.088L981.388 82.412C981.892 80.954 982.9 80.432 984.088 80.432C985.564 80.432 986.32 81.278 986.32 82.52V83.78C985.546 83.51 984.79 83.42 984.016 83.42C982.054 83.42 980.29 84.446 980.29 86.408C980.29 88.046 981.568 89.144 983.26 89.144C984.808 89.144 986.05 88.244 986.536 87.128C986.536 87.848 986.644 88.478 986.788 89H987.904ZM986.32 85.04C986.32 87.362 984.718 88.1 983.476 88.1C982.324 88.1 981.514 87.488 981.514 86.336C981.514 85.076 982.648 84.428 984.088 84.428C984.826 84.428 985.582 84.518 986.32 84.824V85.04ZM1000.11 79.316C998.883 79.316 997.785 80 997.245 81.26C996.903 80.018 995.949 79.316 994.527 79.316C993.411 79.316 992.403 79.892 991.827 80.954V79.46H990.603V89H991.827V83.636C991.827 81.728 992.529 80.432 994.203 80.432C995.445 80.432 996.183 81.08 996.183 82.628V89H997.407V83.636C997.407 81.728 998.109 80.432 999.783 80.432C1001.02 80.432 1001.76 81.08 1001.76 82.628V89H1002.99V82.448C1002.99 80.468 1001.92 79.316 1000.11 79.316ZM1012.45 86.3C1012 87.236 1011.15 88.064 1009.71 88.064C1007.87 88.064 1006.67 86.984 1006.56 84.446H1013.24L1013.27 83.384C1013.27 80.792 1011.51 79.316 1009.46 79.316C1006.97 79.316 1005.32 81.314 1005.32 84.104C1005.32 87.146 1006.9 89.144 1009.58 89.144C1011.71 89.144 1012.9 87.956 1013.35 86.804L1012.45 86.3ZM1009.46 80.396C1010.86 80.396 1012.12 81.296 1012.07 83.438H1006.56C1006.72 81.17 1008.02 80.396 1009.46 80.396ZM1019.86 79.316C1018.71 79.316 1017.66 79.892 1017.09 80.936V79.46H1015.86V89H1017.09V83.636C1017.09 81.728 1017.86 80.432 1019.53 80.432C1020.87 80.432 1021.66 81.08 1021.66 82.808V89H1022.88V82.628C1022.88 80.486 1021.77 79.316 1019.86 79.316ZM1026.66 86.84C1025.99 86.84 1025.51 87.326 1025.51 87.956C1025.51 88.658 1026.01 89.072 1026.66 89.072C1026.8 89.072 1026.93 89.054 1027.02 89.036C1027.16 90.296 1026.35 91.052 1025.51 91.808L1025.94 92.312C1027.5 91.088 1027.99 89.9 1027.99 88.712C1027.99 87.488 1027.41 86.84 1026.66 86.84ZM1040.88 79.46V84.824C1040.88 86.696 1040.16 88.046 1038.47 88.046C1037.14 88.046 1036.35 87.326 1036.35 85.76V79.46H1035.12V85.868C1035.12 87.938 1036.26 89.144 1038.13 89.144C1039.3 89.144 1040.31 88.568 1040.88 87.542V89H1042.11V79.46H1040.88ZM1047.04 86.624V80.468H1050.13V79.46H1047.04V76.688L1045.81 77.408V79.46H1044.01V80.468H1045.81V86.588C1045.81 88.28 1046.89 89.144 1048.19 89.144C1049.04 89.144 1049.72 88.838 1050.35 88.1L1049.7 87.38C1049.25 87.848 1048.87 88.064 1048.3 88.064C1047.7 88.064 1047.04 87.74 1047.04 86.624ZM1058.17 79.46L1055.19 87.65L1052.2 79.46H1050.87L1054.61 89H1055.69L1059.43 79.46H1058.17ZM1067.47 86.3C1067.02 87.236 1066.17 88.064 1064.73 88.064C1062.89 88.064 1061.69 86.984 1061.58 84.446H1068.26L1068.29 83.384C1068.29 80.792 1066.53 79.316 1064.48 79.316C1061.99 79.316 1060.34 81.314 1060.34 84.104C1060.34 87.146 1061.92 89.144 1064.6 89.144C1066.73 89.144 1067.92 87.956 1068.37 86.804L1067.47 86.3ZM1064.48 80.396C1065.88 80.396 1067.14 81.296 1067.09 83.438H1061.58C1061.74 81.17 1063.04 80.396 1064.48 80.396ZM1076.82 89H1078.37L1074.14 83.456L1078.3 79.46H1076.68L1072.14 83.942V75.68H1070.92V89H1072.14V85.382L1073.31 84.266L1076.82 89ZM1079.41 81.944C1079.41 83.222 1080.33 84.104 1082.08 84.464L1083.63 84.788C1084.89 85.058 1085.39 85.544 1085.39 86.444C1085.39 87.416 1084.42 88.064 1082.94 88.064C1081.54 88.064 1080.55 87.524 1080.1 86.516L1079.05 86.948C1079.7 88.388 1081.05 89.144 1082.98 89.144C1085.1 89.144 1086.58 87.992 1086.58 86.336C1086.58 84.914 1085.61 84.014 1083.52 83.6L1082.26 83.348C1081.12 83.114 1080.6 82.628 1080.6 81.836C1080.6 80.954 1081.47 80.396 1082.8 80.396C1084.02 80.396 1084.9 80.882 1085.28 81.8L1086.29 81.404C1085.89 80.144 1084.56 79.316 1082.83 79.316C1080.84 79.316 1079.41 80.432 1079.41 81.944ZM1091.98 88.964V87.884C1091.8 87.938 1091.6 87.956 1091.4 87.956C1090.64 87.956 1090.21 87.542 1090.21 86.732V75.68H1088.99V86.732C1088.99 88.136 1089.69 89.072 1091.18 89.072C1091.45 89.072 1091.69 89.036 1091.98 88.964ZM1094.82 77.732C1095.41 77.732 1095.9 77.264 1095.9 76.652C1095.9 76.04 1095.41 75.572 1094.82 75.572C1094.23 75.572 1093.74 76.04 1093.74 76.652C1093.74 77.264 1094.23 77.732 1094.82 77.732ZM1094.21 89H1095.43V79.46H1094.21V89ZM1102.53 79.316C1101.38 79.316 1100.33 79.892 1099.76 80.936V79.46H1098.53V89H1099.76V83.636C1099.76 81.728 1100.53 80.432 1102.2 80.432C1103.54 80.432 1104.33 81.08 1104.33 82.808V89H1105.55V82.628C1105.55 80.486 1104.44 79.316 1102.53 79.316ZM1117.07 80.468V79.46H1114.33V80.126C1113.76 79.64 1113 79.316 1112.01 79.316C1109.49 79.316 1108.21 81.098 1108.21 82.808C1108.21 83.978 1108.91 85.31 1110.17 85.814C1109 86.12 1108.3 86.858 1108.3 87.704C1108.3 88.694 1109.09 89.324 1110.43 89.324H1114.53C1115.39 89.324 1115.68 89.72 1115.68 90.26C1115.68 91.412 1114.03 92.006 1112.05 92.006C1110.44 92.006 1109.04 91.7 1108.37 90.134L1107.38 90.584C1107.96 92.258 1109.63 93.032 1112.05 93.032C1114.73 93.032 1116.91 92.042 1116.91 90.152C1116.91 88.964 1116.11 88.208 1114.57 88.208H1110.7C1109.9 88.208 1109.53 87.866 1109.53 87.38C1109.53 86.75 1110.3 86.336 1111.38 86.336H1111.79C1114.48 86.336 1115.74 84.554 1115.74 82.808C1115.74 82.106 1115.48 81.386 1115.02 80.81V80.468H1117.07ZM1111.99 85.328C1110.28 85.328 1109.42 84.14 1109.42 82.808C1109.42 81.494 1110.28 80.36 1111.99 80.36C1113.68 80.36 1114.53 81.476 1114.53 82.808C1114.53 84.158 1113.68 85.328 1111.99 85.328ZM1118.73 86.984V89H1120.67V86.984H1118.73Z" fill="#2A2859"/>
</g>
</g>
<defs>
<clipPath id="clip0_4799_151658">
<rect width="1128" height="96" fill="white"/>
</clipPath>
<clipPath id="clip1_4799_151658">
<rect width="1128" height="96" fill="white"/>
</clipPath>
</defs>
</svg>
