<svg width="922" height="301" viewBox="0 0 922 301" fill="none" xmlns="http://www.w3.org/2000/svg">
<g clip-path="url(#clip0_4799_152454)">
<rect width="922" height="301" fill="white"/>
<mask id="path-1-inside-1_4799_152454" fill="white">
<path d="M0 55H456V301H0V55Z"/>
</mask>
<path d="M0 55H456V301H0V55Z" fill="white"/>
<path d="M456 301V302H457V301H456ZM0 301H-1V302H0V301ZM455 55V301H457V55H455ZM456 300H0V302H456V300ZM1 301V55H-1V301H1Z" fill="#E6E6E6" mask="url(#path-1-inside-1_4799_152454)"/>
<mask id="path-3-inside-2_4799_152454" fill="white">
<path d="M465 55H922V301H465V55Z"/>
</mask>
<path d="M465 55H922V301H465V55Z" fill="white"/>
<path d="M922 301V302H923V301H922ZM465 301H464V302H465V301ZM921 55V301H923V55H921ZM922 300H465V302H922V300ZM466 301V55H464V301H466Z" fill="#E6E6E6" mask="url(#path-3-inside-2_4799_152454)"/>
<rect x="0.5" y="0.5" width="454.316" height="53.97" stroke="#E6E6E6"/>
<rect x="465.693" y="0.5" width="455.304" height="53.97" stroke="#E6E6E6"/>
<path d="M0 43.9761H455.316V54.9701H0V43.9761Z" fill="#C7F6C9"/>
<path opacity="0.6" d="M465.193 43.9761H921.497V54.9701H465.193V43.9761Z" fill="#FF8274"/>
<path d="M20.2116 28.144C21.7956 28.144 23.3796 27.68 24.4356 26.8V21.6H18.9796V22.896H23.1556V26.144C22.3556 26.608 21.4916 26.848 20.2916 26.848C17.8276 26.848 16.0996 25.136 16.0996 22.016C16.0996 18.896 17.9236 17.376 20.0676 17.376C21.4116 17.376 22.5636 18.048 23.1396 19.296L24.4036 18.64C23.6516 16.96 22.1476 16.016 20.0836 16.016C17.0916 16.016 14.6116 18.368 14.6116 22.016C14.6116 25.776 16.9636 28.144 20.2116 28.144ZM27.5186 18.032C28.1106 18.032 28.5906 17.568 28.5906 16.944C28.5906 16.336 28.1106 15.872 27.5186 15.872C26.9106 15.872 26.4306 16.336 26.4306 16.944C26.4306 17.568 26.9106 18.032 27.5186 18.032ZM26.1906 31.488C27.5506 31.488 28.2066 30.64 28.2066 29.104V19.52H26.8306V29.12C26.8306 29.84 26.6226 30.304 25.9186 30.304C25.7586 30.304 25.5666 30.288 25.3426 30.208L25.2306 31.344C25.5346 31.44 25.8706 31.488 26.1906 31.488ZM36.3084 20.096L37.0124 18.704H36.1964L35.6844 19.712C35.2044 19.488 34.6604 19.36 34.0844 19.36C31.9244 19.36 30.1964 21.088 30.1964 23.728C30.1964 25.36 30.8364 26.64 31.8124 27.392L31.1084 28.8H31.9404L32.4524 27.776C32.9484 28.016 33.5084 28.144 34.0844 28.144C36.2124 28.144 37.9564 26.416 37.9564 23.728C37.9564 22.112 37.3164 20.832 36.3084 20.096ZM31.6204 23.728C31.6204 21.568 32.7404 20.56 34.0844 20.56C34.4524 20.56 34.8204 20.64 35.1404 20.8L32.4044 26.224C31.9244 25.696 31.6204 24.864 31.6204 23.728ZM34.0844 26.944C33.7004 26.944 33.3324 26.864 32.9964 26.688L35.7324 21.248C36.2284 21.776 36.5324 22.592 36.5324 23.728C36.5324 25.888 35.4284 26.944 34.0844 26.944ZM43.2918 19.36C42.5398 19.36 41.7398 19.744 41.2758 20.608V19.52H39.8998V28H41.2758V22.896C41.2758 21.216 41.9798 20.544 42.9398 20.544C43.7878 20.544 44.0598 21.088 44.0598 21.904V22.752L45.2438 22.528V21.584C45.2438 20.128 44.4438 19.36 43.2918 19.36ZM50.6146 21.776C50.6146 22.944 51.4626 23.744 53.0306 24.064L54.4866 24.352C55.4626 24.56 55.8786 24.944 55.8786 25.648C55.8786 26.448 55.0626 26.976 53.8466 26.976C52.6466 26.976 51.7986 26.512 51.3666 25.648L50.3106 26.208C50.9186 27.456 52.1506 28.128 53.8786 28.128C55.8626 28.128 57.2066 27.088 57.2066 25.568C57.2066 24.288 56.3266 23.472 54.4866 23.104L53.2546 22.864C52.3426 22.672 51.9426 22.304 51.9426 21.68C51.9426 20.96 52.6626 20.528 53.7506 20.528C54.7906 20.528 55.5586 20.944 55.9106 21.696L56.9506 21.168C56.5026 20.048 55.3506 19.36 53.7826 19.36C51.9106 19.36 50.6146 20.4 50.6146 21.776ZM62.041 27.968V26.784C61.865 26.832 61.689 26.848 61.529 26.848C60.857 26.848 60.457 26.496 60.457 25.76V16.16H59.081V25.824C59.081 27.2 59.769 28.08 61.209 28.08C61.497 28.08 61.753 28.032 62.041 27.968ZM63.5625 16.064V17.92H65.4505V16.064H63.5625ZM63.8185 28H65.1945V19.52H63.8185V28ZM73.0555 28H74.7355L71.0715 23.024L74.6715 19.52H72.9275L69.1355 23.328V16.16H67.7595V28H69.1355V24.912L70.1435 23.92L73.0555 28Z" fill="#2A2859"/>
<path d="M484.379 28H485.803V16.16H484.379V28ZM493.646 28H495.326L491.662 23.024L495.262 19.52H493.518L489.726 23.328V16.16H488.35V28H489.726V24.912L490.734 23.92L493.646 28ZM502.227 28H503.907L500.243 23.024L503.843 19.52H502.099L498.307 23.328V16.16H496.931V28H498.307V24.912L499.315 23.92L502.227 28ZM510.664 25.488C510.248 26.304 509.496 26.976 508.328 26.976C506.792 26.976 505.784 26.096 505.688 24.016H511.56L511.592 23.04C511.592 20.688 509.976 19.36 508.088 19.36C505.864 19.36 504.312 21.136 504.312 23.664C504.312 26.32 505.768 28.144 508.216 28.144C510.12 28.144 511.192 27.088 511.64 26.032L510.664 25.488ZM508.088 20.512C509.224 20.512 510.264 21.232 510.248 22.944H505.688C505.848 21.136 506.888 20.512 508.088 20.512ZM517.102 21.776C517.102 22.944 517.95 23.744 519.518 24.064L520.974 24.352C521.95 24.56 522.366 24.944 522.366 25.648C522.366 26.448 521.55 26.976 520.334 26.976C519.134 26.976 518.286 26.512 517.854 25.648L516.798 26.208C517.406 27.456 518.638 28.128 520.366 28.128C522.35 28.128 523.694 27.088 523.694 25.568C523.694 24.288 522.814 23.472 520.974 23.104L519.742 22.864C518.83 22.672 518.43 22.304 518.43 21.68C518.43 20.96 519.15 20.528 520.238 20.528C521.278 20.528 522.046 20.944 522.398 21.696L523.438 21.168C522.99 20.048 521.838 19.36 520.27 19.36C518.398 19.36 517.102 20.4 517.102 21.776ZM528.528 27.968V26.784C528.352 26.832 528.176 26.848 528.016 26.848C527.344 26.848 526.944 26.496 526.944 25.76V16.16H525.568V25.824C525.568 27.2 526.256 28.08 527.696 28.08C527.984 28.08 528.24 28.032 528.528 27.968ZM530.994 18.032C531.586 18.032 532.066 17.568 532.066 16.944C532.066 16.336 531.586 15.872 530.994 15.872C530.386 15.872 529.906 16.336 529.906 16.944C529.906 17.568 530.386 18.032 530.994 18.032ZM530.306 28H531.682V19.52H530.306V28ZM539.543 28H541.223L537.559 23.024L541.159 19.52H539.415L535.623 23.328V16.16H534.247V28H535.623V24.912L536.631 23.92L539.543 28Z" fill="#2A2859"/>
<rect width="408" height="144" transform="translate(24 106)" fill="#B3F5FF"/>
<path d="M71 153V150H73V153H76V155H73V158H71V155H68V153H71Z" fill="#2A2859"/>
<path fill-rule="evenodd" clip-rule="evenodd" d="M76.41 145.096L74.941 146.565C77.903 147.738 80 150.621 80 154C80 158.418 76.418 162 72 162C68.621 162 65.738 159.903 64.564 156.941L63.499 158.006L50.59 145.097C48.92 143.427 48 141.207 48 138.844C48 136.481 48.92 134.261 50.59 132.59C52.261 130.92 54.481 130 56.844 130C59.206 130 61.427 130.92 63.097 132.59L63.5 132.993L63.903 132.59C65.573 130.92 67.794 130 70.156 130C72.519 130 74.74 130.92 76.41 132.59C78.08 134.26 79 136.481 79 138.843C79 141.205 78.08 143.426 76.41 145.096ZM63.5 155.182L64.033 154.649C64.016 154.435 64 154.219 64 154C64 149.582 67.582 146 72 146C72.219 146 72.435 146.016 72.649 146.033L74.997 143.685C77.671 141.011 77.671 136.677 74.997 134.003C73.66 132.666 71.908 131.998 70.156 131.998C68.404 131.998 66.652 132.666 65.315 134.003L63.5 135.818L61.685 134.003C60.348 132.666 58.596 131.998 56.844 131.998C55.092 131.998 53.34 132.666 52.003 134.003C49.329 136.677 49.329 141.011 52.003 143.685L63.5 155.182ZM66 154C66 157.308 68.692 160 72 160C75.308 160 78 157.308 78 154C78 150.692 75.308 148 72 148C68.692 148 66 150.692 66 154Z" fill="#2A2859"/>
<path d="M100.456 137.24V144.704H92.896V137.24H90.088V155H92.896V147.416H100.456V155H103.264V137.24H100.456ZM115.824 150.992C115.152 152.192 114.072 153.032 112.512 153.032C110.4 153.032 109.08 151.88 108.936 149.192H117.576L117.624 147.608C117.624 144.008 115.152 141.992 112.152 141.992C108.768 141.992 106.296 144.656 106.296 148.52C106.296 152.432 108.576 155.216 112.344 155.216C115.248 155.216 116.928 153.632 117.648 152.048L115.824 150.992ZM112.152 144.104C113.64 144.104 115.032 145.016 115.008 147.272H108.936C109.152 144.968 110.52 144.104 112.152 144.104ZM125.851 154.928V152.696C125.563 152.768 125.299 152.792 125.059 152.792C124.075 152.792 123.427 152.288 123.427 151.184V137.24H120.739V151.376C120.739 153.704 121.891 155.144 124.315 155.144C124.843 155.144 125.347 155.072 125.851 154.928ZM127.813 145.784C127.813 147.608 129.133 148.832 131.533 149.288L133.885 149.744C135.061 149.984 135.589 150.464 135.589 151.328C135.589 152.384 134.485 153.032 132.853 153.032C131.173 153.032 129.949 152.36 129.253 151.184L127.381 152.36C128.365 154.208 130.261 155.216 132.925 155.216C136.069 155.216 138.157 153.608 138.157 151.208C138.157 149.264 136.813 147.992 134.125 147.464L131.989 147.032C130.861 146.816 130.357 146.36 130.357 145.616C130.357 144.704 131.341 144.152 132.781 144.152C134.221 144.152 135.373 144.752 135.949 145.736L137.821 144.584C136.933 142.88 135.277 141.992 132.805 141.992C129.805 141.992 127.813 143.624 127.813 145.784ZM149.466 150.992C148.794 152.192 147.714 153.032 146.154 153.032C144.042 153.032 142.722 151.88 142.578 149.192H151.218L151.266 147.608C151.266 144.008 148.794 141.992 145.794 141.992C142.41 141.992 139.938 144.656 139.938 148.52C139.938 152.432 142.218 155.216 145.986 155.216C148.89 155.216 150.57 153.632 151.29 152.048L149.466 150.992ZM145.794 144.104C147.282 144.104 148.674 145.016 148.65 147.272H142.578C142.794 144.968 144.162 144.104 145.794 144.104ZM165.554 155.24C168.866 155.24 171.578 152.648 171.578 148.568C171.578 144.584 168.89 141.992 165.554 141.992C162.218 141.992 159.53 144.584 159.53 148.568C159.53 152.648 162.242 155.24 165.554 155.24ZM165.554 152.96C163.778 152.96 162.29 151.568 162.29 148.568C162.29 145.544 163.778 144.272 165.554 144.272C167.33 144.272 168.818 145.544 168.818 148.568C168.818 151.568 167.354 152.96 165.554 152.96ZM186.237 144.368V142.28H182.397V143.336C181.677 142.544 180.453 141.992 178.893 141.992C175.365 141.992 173.517 144.32 173.517 146.6C173.517 148.136 174.381 149.768 176.133 150.536C174.549 150.848 173.397 151.88 173.397 153.176C173.397 154.52 174.429 155.6 176.421 155.6H182.205C183.069 155.6 183.381 156.008 183.381 156.56C183.381 157.736 181.605 158.408 179.109 158.408C176.781 158.408 175.389 158 174.789 156.464L172.173 156.968C172.821 159.44 175.317 160.376 179.037 160.376C183.285 160.376 185.949 158.864 185.949 156.248C185.949 154.52 184.701 153.392 182.517 153.392H177.213C176.397 153.392 175.989 153.008 175.989 152.48C175.989 151.712 176.829 151.28 178.125 151.28H178.749C182.445 151.28 184.221 148.976 184.221 146.672C184.221 145.952 184.005 145.256 183.573 144.656V144.368H186.237ZM178.893 149.336C177.069 149.336 176.181 148.04 176.181 146.648C176.181 145.256 177.069 143.984 178.893 143.984C180.741 143.984 181.605 145.256 181.605 146.648C181.605 148.04 180.741 149.336 178.893 149.336ZM199.571 155.24C202.883 155.24 205.595 152.648 205.595 148.568C205.595 144.584 202.907 141.992 199.571 141.992C196.235 141.992 193.547 144.584 193.547 148.568C193.547 152.648 196.259 155.24 199.571 155.24ZM199.571 152.96C197.795 152.96 196.307 151.568 196.307 148.568C196.307 145.544 197.795 144.272 199.571 144.272C201.347 144.272 202.835 145.544 202.835 148.568C202.835 151.568 201.371 152.96 199.571 152.96ZM222.499 141.992C220.795 141.992 219.451 142.832 218.587 144.512C218.035 142.928 216.763 141.992 214.819 141.992C213.283 141.992 212.035 142.712 211.171 144.08V142.28H208.483V155H211.171V148.112C211.171 145.616 212.107 144.32 213.955 144.32C215.347 144.32 216.139 145.088 216.139 146.768V155H218.827V148.112C218.827 145.616 219.763 144.32 221.635 144.32C223.027 144.32 223.819 145.088 223.819 146.768V155H226.507V146.312C226.507 143.648 225.043 141.992 222.499 141.992ZM229.572 145.784C229.572 147.608 230.892 148.832 233.292 149.288L235.644 149.744C236.82 149.984 237.348 150.464 237.348 151.328C237.348 152.384 236.244 153.032 234.612 153.032C232.932 153.032 231.708 152.36 231.012 151.184L229.14 152.36C230.124 154.208 232.02 155.216 234.684 155.216C237.828 155.216 239.916 153.608 239.916 151.208C239.916 149.264 238.572 147.992 235.884 147.464L233.748 147.032C232.62 146.816 232.116 146.36 232.116 145.616C232.116 144.704 233.1 144.152 234.54 144.152C235.98 144.152 237.132 144.752 237.708 145.736L239.58 144.584C238.692 142.88 237.036 141.992 234.564 141.992C231.564 141.992 229.572 143.624 229.572 145.784ZM247.721 155.24C251.033 155.24 253.745 152.648 253.745 148.568C253.745 144.584 251.057 141.992 247.721 141.992C244.385 141.992 241.697 144.584 241.697 148.568C241.697 152.648 244.409 155.24 247.721 155.24ZM247.721 152.96C245.945 152.96 244.457 151.568 244.457 148.568C244.457 145.544 245.945 144.272 247.721 144.272C249.497 144.272 250.985 145.544 250.985 148.568C250.985 151.568 249.521 152.96 247.721 152.96ZM262.465 141.992C261.361 141.992 260.041 142.568 259.321 143.984V142.28H256.633V155H259.321V147.56C259.321 145.136 260.329 144.224 261.697 144.224C262.945 144.224 263.353 145.016 263.353 146.168V147.464L265.513 147.08V145.4C265.513 143.216 264.313 141.992 262.465 141.992ZM279.758 144.368V142.28H275.918V143.336C275.198 142.544 273.974 141.992 272.414 141.992C268.886 141.992 267.038 144.32 267.038 146.6C267.038 148.136 267.902 149.768 269.654 150.536C268.07 150.848 266.918 151.88 266.918 153.176C266.918 154.52 267.95 155.6 269.942 155.6H275.726C276.59 155.6 276.902 156.008 276.902 156.56C276.902 157.736 275.126 158.408 272.63 158.408C270.302 158.408 268.91 158 268.31 156.464L265.694 156.968C266.342 159.44 268.838 160.376 272.558 160.376C276.806 160.376 279.47 158.864 279.47 156.248C279.47 154.52 278.222 153.392 276.038 153.392H270.734C269.918 153.392 269.51 153.008 269.51 152.48C269.51 151.712 270.35 151.28 271.646 151.28H272.27C275.966 151.28 277.742 148.976 277.742 146.672C277.742 145.952 277.526 145.256 277.094 144.656V144.368H279.758ZM272.414 149.336C270.59 149.336 269.702 148.04 269.702 146.648C269.702 145.256 270.59 143.984 272.414 143.984C274.262 143.984 275.126 145.256 275.126 146.648C275.126 148.04 274.262 149.336 272.414 149.336Z" fill="#2A2859"/>
<path d="M97.612 178.68V184.692H90.844V178.68H89.584V192H90.844V185.88H97.612V192H98.872V178.68H97.612ZM108.527 189.3C108.077 190.236 107.231 191.064 105.791 191.064C103.955 191.064 102.749 189.984 102.641 187.446H109.319L109.355 186.384C109.355 183.792 107.591 182.316 105.539 182.316C103.055 182.316 101.399 184.314 101.399 187.104C101.399 190.146 102.983 192.144 105.665 192.144C107.789 192.144 108.977 190.956 109.427 189.804L108.527 189.3ZM105.539 183.396C106.943 183.396 108.203 184.296 108.149 186.438H102.641C102.803 184.17 104.099 183.396 105.539 183.396ZM114.931 191.964V190.884C114.751 190.938 114.553 190.956 114.355 190.956C113.599 190.956 113.167 190.542 113.167 189.732V178.68H111.943V189.732C111.943 191.136 112.645 192.072 114.139 192.072C114.409 192.072 114.643 192.036 114.931 191.964ZM116.695 184.944C116.695 186.222 117.613 187.104 119.359 187.464L120.907 187.788C122.167 188.058 122.671 188.544 122.671 189.444C122.671 190.416 121.699 191.064 120.223 191.064C118.819 191.064 117.829 190.524 117.379 189.516L116.335 189.948C116.983 191.388 118.333 192.144 120.259 192.144C122.383 192.144 123.859 190.992 123.859 189.336C123.859 187.914 122.887 187.014 120.799 186.6L119.539 186.348C118.405 186.114 117.883 185.628 117.883 184.836C117.883 183.954 118.747 183.396 120.079 183.396C121.303 183.396 122.185 183.882 122.563 184.8L123.571 184.404C123.175 183.144 121.843 182.316 120.115 182.316C118.117 182.316 116.695 183.432 116.695 184.944ZM132.785 189.3C132.335 190.236 131.489 191.064 130.049 191.064C128.213 191.064 127.007 189.984 126.899 187.446H133.577L133.613 186.384C133.613 183.792 131.849 182.316 129.797 182.316C127.313 182.316 125.657 184.314 125.657 187.104C125.657 190.146 127.241 192.144 129.923 192.144C132.047 192.144 133.235 190.956 133.685 189.804L132.785 189.3ZM129.797 183.396C131.201 183.396 132.461 184.296 132.407 186.438H126.899C127.061 184.17 128.357 183.396 129.797 183.396ZM140.232 182.316C139.08 182.316 138.036 182.892 137.46 183.936V178.68H136.236V192H137.46V186.636C137.46 184.728 138.234 183.432 139.908 183.432C141.24 183.432 142.032 184.08 142.032 185.808V192H143.256V185.628C143.256 183.486 142.14 182.316 140.232 182.316ZM146.742 180.732C147.336 180.732 147.822 180.264 147.822 179.652C147.822 179.04 147.336 178.572 146.742 178.572C146.148 178.572 145.662 179.04 145.662 179.652C145.662 180.264 146.148 180.732 146.742 180.732ZM145.302 195.906C146.652 195.906 147.354 195.078 147.354 193.458V182.46H146.13V193.386C146.13 194.214 145.968 194.79 145.122 194.79C144.96 194.79 144.726 194.772 144.474 194.682L144.366 195.762C144.672 195.852 144.978 195.906 145.302 195.906ZM156.972 189.3C156.522 190.236 155.676 191.064 154.236 191.064C152.4 191.064 151.194 189.984 151.086 187.446H157.764L157.8 186.384C157.8 183.792 156.036 182.316 153.984 182.316C151.5 182.316 149.844 184.314 149.844 187.104C149.844 190.146 151.428 192.144 154.11 192.144C156.234 192.144 157.422 190.956 157.872 189.804L156.972 189.3ZM153.984 183.396C155.388 183.396 156.648 184.296 156.594 186.438H151.086C151.248 184.17 152.544 183.396 153.984 183.396ZM163.376 191.964V190.884C163.196 190.938 162.998 190.956 162.8 190.956C162.044 190.956 161.612 190.542 161.612 189.732V178.68H160.388V189.732C160.388 191.136 161.09 192.072 162.584 192.072C162.854 192.072 163.088 192.036 163.376 191.964ZM169.965 182.334C168.723 182.334 167.463 183.018 166.833 184.242V182.46H165.609V195.78H166.833V190.272C167.409 191.478 168.489 192.144 169.821 192.144C172.377 192.144 174.033 190.074 174.033 187.14C174.033 184.368 172.395 182.334 169.965 182.334ZM169.821 191.064C167.913 191.064 166.833 189.66 166.833 187.176C166.833 184.836 167.931 183.414 169.839 183.414C171.603 183.414 172.773 184.782 172.773 187.194C172.773 189.696 171.603 191.064 169.821 191.064ZM177.001 189.84C176.335 189.84 175.849 190.326 175.849 190.956C175.849 191.658 176.353 192.072 177.001 192.072C177.145 192.072 177.271 192.054 177.361 192.036C177.505 193.296 176.695 194.052 175.849 194.808L176.281 195.312C177.847 194.088 178.333 192.9 178.333 191.712C178.333 190.488 177.757 189.84 177.001 189.84ZM191.623 192H193.171L188.941 186.456L193.099 182.46H191.479L186.943 186.942V178.68H185.719V192H186.943V188.382L188.113 187.266L191.623 192ZM198.143 192.144C200.501 192.144 202.391 190.2 202.391 187.212C202.391 184.26 200.519 182.316 198.143 182.316C195.767 182.316 193.895 184.26 193.895 187.212C193.895 190.2 195.785 192.144 198.143 192.144ZM198.143 191.064C196.505 191.064 195.155 189.768 195.155 187.212C195.155 184.674 196.523 183.396 198.143 183.396C199.763 183.396 201.131 184.674 201.131 187.212C201.131 189.768 199.781 191.064 198.143 191.064ZM208.298 182.316C207.452 182.316 206.606 182.748 206.102 183.648V182.46H204.878V192H206.102V186.132C206.102 184.206 206.93 183.396 208.028 183.396C209 183.396 209.324 184.026 209.324 184.98V185.916L210.44 185.7V184.764C210.44 183.144 209.54 182.316 208.298 182.316ZM215.95 192.144C218.308 192.144 220.198 190.2 220.198 187.212C220.198 184.26 218.326 182.316 215.95 182.316C213.574 182.316 211.702 184.26 211.702 187.212C211.702 190.2 213.592 192.144 215.95 192.144ZM215.95 191.064C214.312 191.064 212.962 189.768 212.962 187.212C212.962 184.674 214.33 183.396 215.95 183.396C217.57 183.396 218.938 184.674 218.938 187.212C218.938 189.768 217.588 191.064 215.95 191.064ZM226.681 182.316C225.529 182.316 224.485 182.892 223.909 183.936V182.46H222.685V192H223.909V186.636C223.909 184.728 224.683 183.432 226.357 183.432C227.689 183.432 228.481 184.08 228.481 185.808V192H229.705V185.628C229.705 183.486 228.589 182.316 226.681 182.316ZM239.762 192C239.546 191.352 239.366 190.38 239.366 189.3V185.376C239.366 183.738 238.376 182.316 236.018 182.316C234.344 182.316 232.886 183.072 232.166 185.088L233.246 185.412C233.75 183.954 234.758 183.432 235.946 183.432C237.422 183.432 238.178 184.278 238.178 185.52V186.78C237.404 186.51 236.648 186.42 235.874 186.42C233.912 186.42 232.148 187.446 232.148 189.408C232.148 191.046 233.426 192.144 235.118 192.144C236.666 192.144 237.908 191.244 238.394 190.128C238.394 190.848 238.502 191.478 238.646 192H239.762ZM238.178 188.04C238.178 190.362 236.576 191.1 235.334 191.1C234.182 191.1 233.372 190.488 233.372 189.336C233.372 188.076 234.506 187.428 235.946 187.428C236.684 187.428 237.44 187.518 238.178 187.824V188.04ZM248.193 182.46L245.205 190.65L242.217 182.46H240.885L244.629 192H245.709L249.453 182.46H248.193ZM250.995 178.752V180.588H252.867V178.752H250.995ZM251.319 192H252.543V182.46H251.319V192ZM259.064 182.316C258.218 182.316 257.372 182.748 256.868 183.648V182.46H255.644V192H256.868V186.132C256.868 184.206 257.696 183.396 258.794 183.396C259.766 183.396 260.09 184.026 260.09 184.98V185.916L261.206 185.7V184.764C261.206 183.144 260.306 182.316 259.064 182.316ZM268.992 182.46V187.824C268.992 189.696 268.272 191.046 266.58 191.046C265.248 191.046 264.456 190.326 264.456 188.76V182.46H263.232V188.868C263.232 190.938 264.366 192.144 266.238 192.144C267.408 192.144 268.416 191.568 268.992 190.542V192H270.216V182.46H268.992ZM272.771 184.944C272.771 186.222 273.689 187.104 275.435 187.464L276.983 187.788C278.243 188.058 278.747 188.544 278.747 189.444C278.747 190.416 277.775 191.064 276.299 191.064C274.895 191.064 273.905 190.524 273.455 189.516L272.411 189.948C273.059 191.388 274.409 192.144 276.335 192.144C278.459 192.144 279.935 190.992 279.935 189.336C279.935 187.914 278.963 187.014 276.875 186.6L275.615 186.348C274.481 186.114 273.959 185.628 273.959 184.836C273.959 183.954 274.823 183.396 276.155 183.396C277.379 183.396 278.261 183.882 278.639 184.8L279.647 184.404C279.251 183.144 277.919 182.316 276.191 182.316C274.193 182.316 272.771 183.432 272.771 184.944ZM282.997 189.84C282.331 189.84 281.845 190.326 281.845 190.956C281.845 191.658 282.349 192.072 282.997 192.072C283.141 192.072 283.267 192.054 283.357 192.036C283.501 193.296 282.691 194.052 281.845 194.808L282.277 195.312C283.843 194.088 284.329 192.9 284.329 191.712C284.329 190.488 283.753 189.84 282.997 189.84ZM296.071 182.334C294.829 182.334 293.569 183.018 292.939 184.242V178.68H291.715V192H292.939V190.272C293.515 191.478 294.595 192.144 295.927 192.144C298.483 192.144 300.139 190.074 300.139 187.14C300.139 184.368 298.501 182.334 296.071 182.334ZM295.927 191.064C294.019 191.064 292.939 189.66 292.939 187.176C292.939 184.836 294.037 183.414 295.945 183.414C297.709 183.414 298.879 184.782 298.879 187.194C298.879 189.696 297.709 191.064 295.927 191.064ZM309.74 192C309.524 191.352 309.344 190.38 309.344 189.3V185.376C309.344 183.738 308.354 182.316 305.996 182.316C304.322 182.316 302.864 183.072 302.144 185.088L303.224 185.412C303.728 183.954 304.736 183.432 305.924 183.432C307.4 183.432 308.156 184.278 308.156 185.52V186.78C307.382 186.51 306.626 186.42 305.852 186.42C303.89 186.42 302.126 187.446 302.126 189.408C302.126 191.046 303.404 192.144 305.096 192.144C306.644 192.144 307.886 191.244 308.372 190.128C308.372 190.848 308.48 191.478 308.624 192H309.74ZM308.156 188.04C308.156 190.362 306.554 191.1 305.312 191.1C304.16 191.1 303.35 190.488 303.35 189.336C303.35 188.076 304.484 187.428 305.924 187.428C306.662 187.428 307.418 187.518 308.156 187.824V188.04ZM315.859 182.316C315.013 182.316 314.167 182.748 313.663 183.648V182.46H312.439V192H313.663V186.132C313.663 184.206 314.491 183.396 315.589 183.396C316.561 183.396 316.885 184.026 316.885 184.98V185.916L318.001 185.7V184.764C318.001 183.144 317.101 182.316 315.859 182.316ZM324.415 182.316C323.263 182.316 322.219 182.892 321.643 183.936V182.46H320.419V192H321.643V186.636C321.643 184.728 322.417 183.432 324.091 183.432C325.423 183.432 326.215 184.08 326.215 185.808V192H327.439V185.628C327.439 183.486 326.323 182.316 324.415 182.316ZM336.902 189.3C336.452 190.236 335.606 191.064 334.166 191.064C332.33 191.064 331.124 189.984 331.016 187.446H337.694L337.73 186.384C337.73 183.792 335.966 182.316 333.914 182.316C331.43 182.316 329.774 184.314 329.774 187.104C329.774 190.146 331.358 192.144 334.04 192.144C336.164 192.144 337.352 190.956 337.802 189.804L336.902 189.3ZM333.914 183.396C335.318 183.396 336.578 184.296 336.524 186.438H331.016C331.178 184.17 332.474 183.396 333.914 183.396ZM346.226 182.46L343.238 190.65L340.25 182.46H338.918L342.662 192H343.742L347.486 182.46H346.226ZM355.517 189.3C355.067 190.236 354.221 191.064 352.781 191.064C350.945 191.064 349.739 189.984 349.631 187.446H356.309L356.345 186.384C356.345 183.792 354.581 182.316 352.529 182.316C350.045 182.316 348.389 184.314 348.389 187.104C348.389 190.146 349.973 192.144 352.655 192.144C354.779 192.144 355.967 190.956 356.417 189.804L355.517 189.3ZM352.529 183.396C353.933 183.396 355.193 184.296 355.139 186.438H349.631C349.793 184.17 351.089 183.396 352.529 183.396ZM362.353 182.316C361.507 182.316 360.661 182.748 360.157 183.648V182.46H358.933V192H360.157V186.132C360.157 184.206 360.985 183.396 362.083 183.396C363.055 183.396 363.379 184.026 363.379 184.98V185.916L364.495 185.7V184.764C364.495 183.144 363.595 182.316 362.353 182.316ZM370.909 182.316C369.757 182.316 368.713 182.892 368.137 183.936V182.46H366.913V192H368.137V186.636C368.137 184.728 368.911 183.432 370.585 183.432C371.917 183.432 372.709 184.08 372.709 185.808V192H373.933V185.628C373.933 183.486 372.817 182.316 370.909 182.316ZM377.708 189.84C377.042 189.84 376.556 190.326 376.556 190.956C376.556 191.658 377.06 192.072 377.708 192.072C377.852 192.072 377.978 192.054 378.068 192.036C378.212 193.296 377.402 194.052 376.556 194.808L376.988 195.312C378.554 194.088 379.04 192.9 379.04 191.712C379.04 190.488 378.464 189.84 377.708 189.84ZM93.904 209.334C92.662 209.334 91.402 210.018 90.772 211.242V209.46H89.548V222.78H90.772V217.272C91.348 218.478 92.428 219.144 93.76 219.144C96.316 219.144 97.972 217.074 97.972 214.14C97.972 211.368 96.334 209.334 93.904 209.334ZM93.76 218.064C91.852 218.064 90.772 216.66 90.772 214.176C90.772 211.836 91.87 210.414 93.778 210.414C95.542 210.414 96.712 211.782 96.712 214.194C96.712 216.696 95.542 218.064 93.76 218.064ZM99.996 211.944C99.996 213.222 100.914 214.104 102.66 214.464L104.208 214.788C105.468 215.058 105.972 215.544 105.972 216.444C105.972 217.416 105 218.064 103.524 218.064C102.12 218.064 101.13 217.524 100.68 216.516L99.636 216.948C100.284 218.388 101.634 219.144 103.56 219.144C105.684 219.144 107.16 217.992 107.16 216.336C107.16 214.914 106.188 214.014 104.1 213.6L102.84 213.348C101.706 213.114 101.184 212.628 101.184 211.836C101.184 210.954 102.048 210.396 103.38 210.396C104.604 210.396 105.486 210.882 105.864 211.8L106.872 211.404C106.476 210.144 105.144 209.316 103.416 209.316C101.418 209.316 99.996 210.432 99.996 211.944ZM115.167 209.46L112.179 217.722L109.299 209.46H107.967L111.549 219.162L110.991 220.512C110.523 221.61 110.055 221.898 109.389 221.898C108.975 221.898 108.633 221.754 108.273 221.43L107.733 222.312C108.183 222.726 108.777 222.96 109.425 222.96C110.901 222.96 111.603 221.934 112.233 220.314L116.427 209.46H115.167ZM124.351 219H125.899L121.669 213.456L125.827 209.46H124.207L119.671 213.942V205.68H118.447V219H119.671V215.382L120.841 214.266L124.351 219ZM128.392 207.732C128.986 207.732 129.472 207.264 129.472 206.652C129.472 206.04 128.986 205.572 128.392 205.572C127.798 205.572 127.312 206.04 127.312 206.652C127.312 207.264 127.798 207.732 128.392 207.732ZM127.78 219H129.004V209.46H127.78V219ZM131.637 211.944C131.637 213.222 132.555 214.104 134.301 214.464L135.849 214.788C137.109 215.058 137.613 215.544 137.613 216.444C137.613 217.416 136.641 218.064 135.165 218.064C133.761 218.064 132.771 217.524 132.321 216.516L131.277 216.948C131.925 218.388 133.275 219.144 135.201 219.144C137.325 219.144 138.801 217.992 138.801 216.336C138.801 214.914 137.829 214.014 135.741 213.6L134.481 213.348C133.347 213.114 132.825 212.628 132.825 211.836C132.825 210.954 133.689 210.396 135.021 210.396C136.245 210.396 137.127 210.882 137.505 211.8L138.513 211.404C138.117 210.144 136.785 209.316 135.057 209.316C133.059 209.316 131.637 210.432 131.637 211.944ZM147.15 219H148.698L144.468 213.456L148.626 209.46H147.006L142.47 213.942V205.68H141.246V219H142.47V215.382L143.64 214.266L147.15 219ZM159.393 209.316C158.241 209.316 157.197 209.892 156.621 210.936V205.68H155.397V219H156.621V213.636C156.621 211.728 157.395 210.432 159.069 210.432C160.401 210.432 161.193 211.08 161.193 212.808V219H162.417V212.628C162.417 210.486 161.301 209.316 159.393 209.316ZM171.878 216.3C171.428 217.236 170.582 218.064 169.142 218.064C167.306 218.064 166.1 216.984 165.992 214.446H172.67L172.706 213.384C172.706 210.792 170.942 209.316 168.89 209.316C166.406 209.316 164.75 211.314 164.75 214.104C164.75 217.146 166.334 219.144 169.016 219.144C171.14 219.144 172.328 217.956 172.778 216.804L171.878 216.3ZM168.89 210.396C170.294 210.396 171.554 211.296 171.5 213.438H165.992C166.154 211.17 167.45 210.396 168.89 210.396ZM178.282 218.964V217.884C178.102 217.938 177.904 217.956 177.706 217.956C176.95 217.956 176.518 217.542 176.518 216.732V205.68H175.294V216.732C175.294 218.136 175.996 219.072 177.49 219.072C177.76 219.072 177.994 219.036 178.282 218.964ZM180.047 211.944C180.047 213.222 180.965 214.104 182.711 214.464L184.259 214.788C185.519 215.058 186.023 215.544 186.023 216.444C186.023 217.416 185.051 218.064 183.575 218.064C182.171 218.064 181.181 217.524 180.731 216.516L179.687 216.948C180.335 218.388 181.685 219.144 183.611 219.144C185.735 219.144 187.211 217.992 187.211 216.336C187.211 214.914 186.239 214.014 184.151 213.6L182.891 213.348C181.757 213.114 181.235 212.628 181.235 211.836C181.235 210.954 182.099 210.396 183.431 210.396C184.655 210.396 185.537 210.882 185.915 211.8L186.923 211.404C186.527 210.144 185.195 209.316 183.467 209.316C181.469 209.316 180.047 210.432 180.047 211.944ZM196.136 216.3C195.686 217.236 194.84 218.064 193.4 218.064C191.564 218.064 190.358 216.984 190.25 214.446H196.928L196.964 213.384C196.964 210.792 195.2 209.316 193.148 209.316C190.664 209.316 189.008 211.314 189.008 214.104C189.008 217.146 190.592 219.144 193.274 219.144C195.398 219.144 196.586 217.956 197.036 216.804L196.136 216.3ZM193.148 210.396C194.552 210.396 195.812 211.296 195.758 213.438H190.25C190.412 211.17 191.708 210.396 193.148 210.396ZM200.204 216.84C199.538 216.84 199.052 217.326 199.052 217.956C199.052 218.658 199.556 219.072 200.204 219.072C200.348 219.072 200.474 219.054 200.564 219.036C200.708 220.296 199.898 221.052 199.052 221.808L199.484 222.312C201.05 221.088 201.536 219.9 201.536 218.712C201.536 217.488 200.96 216.84 200.204 216.84ZM217.454 210.468V209.46H214.718V210.126C214.142 209.64 213.386 209.316 212.396 209.316C209.876 209.316 208.598 211.098 208.598 212.808C208.598 213.978 209.3 215.31 210.56 215.814C209.39 216.12 208.688 216.858 208.688 217.704C208.688 218.694 209.48 219.324 210.812 219.324H214.916C215.78 219.324 216.068 219.72 216.068 220.26C216.068 221.412 214.412 222.006 212.432 222.006C210.83 222.006 209.426 221.7 208.76 220.134L207.77 220.584C208.346 222.258 210.02 223.032 212.432 223.032C215.114 223.032 217.292 222.042 217.292 220.152C217.292 218.964 216.5 218.208 214.952 218.208H211.082C210.29 218.208 209.912 217.866 209.912 217.38C209.912 216.75 210.686 216.336 211.766 216.336H212.18C214.862 216.336 216.122 214.554 216.122 212.808C216.122 212.106 215.87 211.386 215.402 210.81V210.468H217.454ZM212.378 215.328C210.668 215.328 209.804 214.14 209.804 212.808C209.804 211.494 210.668 210.36 212.378 210.36C214.07 210.36 214.916 211.476 214.916 212.808C214.916 214.158 214.07 215.328 212.378 215.328ZM222.782 209.316C221.936 209.316 221.09 209.748 220.586 210.648V209.46H219.362V219H220.586V213.132C220.586 211.206 221.414 210.396 222.512 210.396C223.484 210.396 223.808 211.026 223.808 211.98V212.916L224.924 212.7V211.764C224.924 210.144 224.024 209.316 222.782 209.316ZM233.908 219C233.692 218.352 233.512 217.38 233.512 216.3V212.376C233.512 210.738 232.522 209.316 230.164 209.316C228.49 209.316 227.032 210.072 226.312 212.088L227.392 212.412C227.896 210.954 228.904 210.432 230.092 210.432C231.568 210.432 232.324 211.278 232.324 212.52V213.78C231.55 213.51 230.794 213.42 230.02 213.42C228.058 213.42 226.294 214.446 226.294 216.408C226.294 218.046 227.572 219.144 229.264 219.144C230.812 219.144 232.054 218.244 232.54 217.128C232.54 217.848 232.648 218.478 232.792 219H233.908ZM232.324 215.04C232.324 217.362 230.722 218.1 229.48 218.1C228.328 218.1 227.518 217.488 227.518 216.336C227.518 215.076 228.652 214.428 230.092 214.428C230.83 214.428 231.586 214.518 232.324 214.824V215.04ZM242.339 209.46L239.351 217.65L236.363 209.46H235.031L238.775 219H239.855L243.599 209.46H242.339ZM249.822 209.334C248.58 209.334 247.32 210.018 246.69 211.242V209.46H245.466V222.78H246.69V217.272C247.266 218.478 248.346 219.144 249.678 219.144C252.234 219.144 253.89 217.074 253.89 214.14C253.89 211.368 252.252 209.334 249.822 209.334ZM249.678 218.064C247.77 218.064 246.69 216.66 246.69 214.176C246.69 211.836 247.788 210.414 249.696 210.414C251.46 210.414 252.63 211.782 252.63 214.194C252.63 216.696 251.46 218.064 249.678 218.064ZM259.37 218.964V217.884C259.19 217.938 258.992 217.956 258.794 217.956C258.038 217.956 257.606 217.542 257.606 216.732V205.68H256.382V216.732C256.382 218.136 257.084 219.072 258.578 219.072C258.848 219.072 259.082 219.036 259.37 218.964ZM268.713 219C268.497 218.352 268.317 217.38 268.317 216.3V212.376C268.317 210.738 267.327 209.316 264.969 209.316C263.295 209.316 261.837 210.072 261.117 212.088L262.197 212.412C262.701 210.954 263.709 210.432 264.897 210.432C266.373 210.432 267.129 211.278 267.129 212.52V213.78C266.355 213.51 265.599 213.42 264.825 213.42C262.863 213.42 261.099 214.446 261.099 216.408C261.099 218.046 262.377 219.144 264.069 219.144C265.617 219.144 266.859 218.244 267.345 217.128C267.345 217.848 267.453 218.478 267.597 219H268.713ZM267.129 215.04C267.129 217.362 265.527 218.1 264.285 218.1C263.133 218.1 262.323 217.488 262.323 216.336C262.323 215.076 263.457 214.428 264.897 214.428C265.635 214.428 266.391 214.518 267.129 214.824V215.04ZM270.943 211.944C270.943 213.222 271.861 214.104 273.607 214.464L275.155 214.788C276.415 215.058 276.919 215.544 276.919 216.444C276.919 217.416 275.947 218.064 274.471 218.064C273.067 218.064 272.077 217.524 271.627 216.516L270.583 216.948C271.231 218.388 272.581 219.144 274.507 219.144C276.631 219.144 278.107 217.992 278.107 216.336C278.107 214.914 277.135 214.014 275.047 213.6L273.787 213.348C272.653 213.114 272.131 212.628 272.131 211.836C272.131 210.954 272.995 210.396 274.327 210.396C275.551 210.396 276.433 210.882 276.811 211.8L277.819 211.404C277.423 210.144 276.091 209.316 274.363 209.316C272.365 209.316 270.943 210.432 270.943 211.944ZM280.049 211.944C280.049 213.222 280.967 214.104 282.713 214.464L284.261 214.788C285.521 215.058 286.025 215.544 286.025 216.444C286.025 217.416 285.053 218.064 283.577 218.064C282.173 218.064 281.183 217.524 280.733 216.516L279.689 216.948C280.337 218.388 281.687 219.144 283.613 219.144C285.737 219.144 287.213 217.992 287.213 216.336C287.213 214.914 286.241 214.014 284.153 213.6L282.893 213.348C281.759 213.114 281.237 212.628 281.237 211.836C281.237 210.954 282.101 210.396 283.433 210.396C284.657 210.396 285.539 210.882 285.917 211.8L286.925 211.404C286.529 210.144 285.197 209.316 283.469 209.316C281.471 209.316 280.049 210.432 280.049 211.944ZM289.374 216.984V219H291.318V216.984H289.374Z" fill="#2A2859"/>
<rect width="408" height="144" transform="translate(489 106)" fill="#D0BFAE"/>
<path d="M536 153V150H538V153H541V155H538V158H536V155H533V153H536Z" fill="#F8F0DD"/>
<path fill-rule="evenodd" clip-rule="evenodd" d="M541.41 145.096L539.941 146.565C542.903 147.738 545 150.621 545 154C545 158.418 541.418 162 537 162C533.621 162 530.738 159.903 529.564 156.941L528.499 158.006L515.59 145.097C513.92 143.427 513 141.207 513 138.844C513 136.481 513.92 134.261 515.59 132.59C517.261 130.92 519.481 130 521.844 130C524.206 130 526.427 130.92 528.097 132.59L528.5 132.993L528.903 132.59C530.573 130.92 532.794 130 535.156 130C537.519 130 539.74 130.92 541.41 132.59C543.08 134.26 544 136.481 544 138.843C544 141.205 543.08 143.426 541.41 145.096ZM528.5 155.182L529.033 154.649C529.016 154.435 529 154.219 529 154C529 149.582 532.582 146 537 146C537.219 146 537.435 146.016 537.649 146.033L539.997 143.685C542.671 141.011 542.671 136.677 539.997 134.003C538.66 132.666 536.908 131.998 535.156 131.998C533.404 131.998 531.652 132.666 530.315 134.003L528.5 135.818L526.685 134.003C525.348 132.666 523.596 131.998 521.844 131.998C520.092 131.998 518.34 132.666 517.003 134.003C514.329 136.677 514.329 141.011 517.003 143.685L528.5 155.182ZM531 154C531 157.308 533.692 160 537 160C540.308 160 543 157.308 543 154C543 150.692 540.308 148 537 148C533.692 148 531 150.692 531 154Z" fill="#F8F0DD"/>
<path d="M565.456 137.24V144.704H557.896V137.24H555.088V155H557.896V147.416H565.456V155H568.264V137.24H565.456ZM580.824 150.992C580.152 152.192 579.072 153.032 577.512 153.032C575.4 153.032 574.08 151.88 573.936 149.192H582.576L582.624 147.608C582.624 144.008 580.152 141.992 577.152 141.992C573.768 141.992 571.296 144.656 571.296 148.52C571.296 152.432 573.576 155.216 577.344 155.216C580.248 155.216 581.928 153.632 582.648 152.048L580.824 150.992ZM577.152 144.104C578.64 144.104 580.032 145.016 580.008 147.272H573.936C574.152 144.968 575.52 144.104 577.152 144.104ZM590.851 154.928V152.696C590.563 152.768 590.299 152.792 590.059 152.792C589.075 152.792 588.427 152.288 588.427 151.184V137.24H585.739V151.376C585.739 153.704 586.891 155.144 589.315 155.144C589.843 155.144 590.347 155.072 590.851 154.928ZM592.813 145.784C592.813 147.608 594.133 148.832 596.533 149.288L598.885 149.744C600.061 149.984 600.589 150.464 600.589 151.328C600.589 152.384 599.485 153.032 597.853 153.032C596.173 153.032 594.949 152.36 594.253 151.184L592.381 152.36C593.365 154.208 595.261 155.216 597.925 155.216C601.069 155.216 603.157 153.608 603.157 151.208C603.157 149.264 601.813 147.992 599.125 147.464L596.989 147.032C595.861 146.816 595.357 146.36 595.357 145.616C595.357 144.704 596.341 144.152 597.781 144.152C599.221 144.152 600.373 144.752 600.949 145.736L602.821 144.584C601.933 142.88 600.277 141.992 597.805 141.992C594.805 141.992 592.813 143.624 592.813 145.784ZM614.466 150.992C613.794 152.192 612.714 153.032 611.154 153.032C609.042 153.032 607.722 151.88 607.578 149.192H616.218L616.266 147.608C616.266 144.008 613.794 141.992 610.794 141.992C607.41 141.992 604.938 144.656 604.938 148.52C604.938 152.432 607.218 155.216 610.986 155.216C613.89 155.216 615.57 153.632 616.29 152.048L614.466 150.992ZM610.794 144.104C612.282 144.104 613.674 145.016 613.65 147.272H607.578C607.794 144.968 609.162 144.104 610.794 144.104ZM630.554 155.24C633.866 155.24 636.578 152.648 636.578 148.568C636.578 144.584 633.89 141.992 630.554 141.992C627.218 141.992 624.53 144.584 624.53 148.568C624.53 152.648 627.242 155.24 630.554 155.24ZM630.554 152.96C628.778 152.96 627.29 151.568 627.29 148.568C627.29 145.544 628.778 144.272 630.554 144.272C632.33 144.272 633.818 145.544 633.818 148.568C633.818 151.568 632.354 152.96 630.554 152.96ZM651.237 144.368V142.28H647.397V143.336C646.677 142.544 645.453 141.992 643.893 141.992C640.365 141.992 638.517 144.32 638.517 146.6C638.517 148.136 639.381 149.768 641.133 150.536C639.549 150.848 638.397 151.88 638.397 153.176C638.397 154.52 639.429 155.6 641.421 155.6H647.205C648.069 155.6 648.381 156.008 648.381 156.56C648.381 157.736 646.605 158.408 644.109 158.408C641.781 158.408 640.389 158 639.789 156.464L637.173 156.968C637.821 159.44 640.317 160.376 644.037 160.376C648.285 160.376 650.949 158.864 650.949 156.248C650.949 154.52 649.701 153.392 647.517 153.392H642.213C641.397 153.392 640.989 153.008 640.989 152.48C640.989 151.712 641.829 151.28 643.125 151.28H643.749C647.445 151.28 649.221 148.976 649.221 146.672C649.221 145.952 649.005 145.256 648.573 144.656V144.368H651.237ZM643.893 149.336C642.069 149.336 641.181 148.04 641.181 146.648C641.181 145.256 642.069 143.984 643.893 143.984C645.741 143.984 646.605 145.256 646.605 146.648C646.605 148.04 645.741 149.336 643.893 149.336ZM664.571 155.24C667.883 155.24 670.595 152.648 670.595 148.568C670.595 144.584 667.907 141.992 664.571 141.992C661.235 141.992 658.547 144.584 658.547 148.568C658.547 152.648 661.259 155.24 664.571 155.24ZM664.571 152.96C662.795 152.96 661.307 151.568 661.307 148.568C661.307 145.544 662.795 144.272 664.571 144.272C666.347 144.272 667.835 145.544 667.835 148.568C667.835 151.568 666.371 152.96 664.571 152.96ZM687.499 141.992C685.795 141.992 684.451 142.832 683.587 144.512C683.035 142.928 681.763 141.992 679.819 141.992C678.283 141.992 677.035 142.712 676.171 144.08V142.28H673.483V155H676.171V148.112C676.171 145.616 677.107 144.32 678.955 144.32C680.347 144.32 681.139 145.088 681.139 146.768V155H683.827V148.112C683.827 145.616 684.763 144.32 686.635 144.32C688.027 144.32 688.819 145.088 688.819 146.768V155H691.507V146.312C691.507 143.648 690.043 141.992 687.499 141.992ZM694.572 145.784C694.572 147.608 695.892 148.832 698.292 149.288L700.644 149.744C701.82 149.984 702.348 150.464 702.348 151.328C702.348 152.384 701.244 153.032 699.612 153.032C697.932 153.032 696.708 152.36 696.012 151.184L694.14 152.36C695.124 154.208 697.02 155.216 699.684 155.216C702.828 155.216 704.916 153.608 704.916 151.208C704.916 149.264 703.572 147.992 700.884 147.464L698.748 147.032C697.62 146.816 697.116 146.36 697.116 145.616C697.116 144.704 698.1 144.152 699.54 144.152C700.98 144.152 702.132 144.752 702.708 145.736L704.58 144.584C703.692 142.88 702.036 141.992 699.564 141.992C696.564 141.992 694.572 143.624 694.572 145.784ZM712.721 155.24C716.033 155.24 718.745 152.648 718.745 148.568C718.745 144.584 716.057 141.992 712.721 141.992C709.385 141.992 706.697 144.584 706.697 148.568C706.697 152.648 709.409 155.24 712.721 155.24ZM712.721 152.96C710.945 152.96 709.457 151.568 709.457 148.568C709.457 145.544 710.945 144.272 712.721 144.272C714.497 144.272 715.985 145.544 715.985 148.568C715.985 151.568 714.521 152.96 712.721 152.96ZM727.465 141.992C726.361 141.992 725.041 142.568 724.321 143.984V142.28H721.633V155H724.321V147.56C724.321 145.136 725.329 144.224 726.697 144.224C727.945 144.224 728.353 145.016 728.353 146.168V147.464L730.513 147.08V145.4C730.513 143.216 729.313 141.992 727.465 141.992ZM744.758 144.368V142.28H740.918V143.336C740.198 142.544 738.974 141.992 737.414 141.992C733.886 141.992 732.038 144.32 732.038 146.6C732.038 148.136 732.902 149.768 734.654 150.536C733.07 150.848 731.918 151.88 731.918 153.176C731.918 154.52 732.95 155.6 734.942 155.6H740.726C741.59 155.6 741.902 156.008 741.902 156.56C741.902 157.736 740.126 158.408 737.63 158.408C735.302 158.408 733.91 158 733.31 156.464L730.694 156.968C731.342 159.44 733.838 160.376 737.558 160.376C741.806 160.376 744.47 158.864 744.47 156.248C744.47 154.52 743.222 153.392 741.038 153.392H735.734C734.918 153.392 734.51 153.008 734.51 152.48C734.51 151.712 735.35 151.28 736.646 151.28H737.27C740.966 151.28 742.742 148.976 742.742 146.672C742.742 145.952 742.526 145.256 742.094 144.656V144.368H744.758ZM737.414 149.336C735.59 149.336 734.702 148.04 734.702 146.648C734.702 145.256 735.59 143.984 737.414 143.984C739.262 143.984 740.126 145.256 740.126 146.648C740.126 148.04 739.262 149.336 737.414 149.336Z" fill="#F8F0DD"/>
<path d="M562.612 178.68V184.692H555.844V178.68H554.584V192H555.844V185.88H562.612V192H563.872V178.68H562.612ZM573.527 189.3C573.077 190.236 572.231 191.064 570.791 191.064C568.955 191.064 567.749 189.984 567.641 187.446H574.319L574.355 186.384C574.355 183.792 572.591 182.316 570.539 182.316C568.055 182.316 566.399 184.314 566.399 187.104C566.399 190.146 567.983 192.144 570.665 192.144C572.789 192.144 573.977 190.956 574.427 189.804L573.527 189.3ZM570.539 183.396C571.943 183.396 573.203 184.296 573.149 186.438H567.641C567.803 184.17 569.099 183.396 570.539 183.396ZM579.931 191.964V190.884C579.751 190.938 579.553 190.956 579.355 190.956C578.599 190.956 578.167 190.542 578.167 189.732V178.68H576.943V189.732C576.943 191.136 577.645 192.072 579.139 192.072C579.409 192.072 579.643 192.036 579.931 191.964ZM581.695 184.944C581.695 186.222 582.613 187.104 584.359 187.464L585.907 187.788C587.167 188.058 587.671 188.544 587.671 189.444C587.671 190.416 586.699 191.064 585.223 191.064C583.819 191.064 582.829 190.524 582.379 189.516L581.335 189.948C581.983 191.388 583.333 192.144 585.259 192.144C587.383 192.144 588.859 190.992 588.859 189.336C588.859 187.914 587.887 187.014 585.799 186.6L584.539 186.348C583.405 186.114 582.883 185.628 582.883 184.836C582.883 183.954 583.747 183.396 585.079 183.396C586.303 183.396 587.185 183.882 587.563 184.8L588.571 184.404C588.175 183.144 586.843 182.316 585.115 182.316C583.117 182.316 581.695 183.432 581.695 184.944ZM597.785 189.3C597.335 190.236 596.489 191.064 595.049 191.064C593.213 191.064 592.007 189.984 591.899 187.446H598.577L598.613 186.384C598.613 183.792 596.849 182.316 594.797 182.316C592.313 182.316 590.657 184.314 590.657 187.104C590.657 190.146 592.241 192.144 594.923 192.144C597.047 192.144 598.235 190.956 598.685 189.804L597.785 189.3ZM594.797 183.396C596.201 183.396 597.461 184.296 597.407 186.438H591.899C592.061 184.17 593.357 183.396 594.797 183.396ZM605.232 182.316C604.08 182.316 603.036 182.892 602.46 183.936V178.68H601.236V192H602.46V186.636C602.46 184.728 603.234 183.432 604.908 183.432C606.24 183.432 607.032 184.08 607.032 185.808V192H608.256V185.628C608.256 183.486 607.14 182.316 605.232 182.316ZM611.742 180.732C612.336 180.732 612.822 180.264 612.822 179.652C612.822 179.04 612.336 178.572 611.742 178.572C611.148 178.572 610.662 179.04 610.662 179.652C610.662 180.264 611.148 180.732 611.742 180.732ZM610.302 195.906C611.652 195.906 612.354 195.078 612.354 193.458V182.46H611.13V193.386C611.13 194.214 610.968 194.79 610.122 194.79C609.96 194.79 609.726 194.772 609.474 194.682L609.366 195.762C609.672 195.852 609.978 195.906 610.302 195.906ZM621.972 189.3C621.522 190.236 620.676 191.064 619.236 191.064C617.4 191.064 616.194 189.984 616.086 187.446H622.764L622.8 186.384C622.8 183.792 621.036 182.316 618.984 182.316C616.5 182.316 614.844 184.314 614.844 187.104C614.844 190.146 616.428 192.144 619.11 192.144C621.234 192.144 622.422 190.956 622.872 189.804L621.972 189.3ZM618.984 183.396C620.388 183.396 621.648 184.296 621.594 186.438H616.086C616.248 184.17 617.544 183.396 618.984 183.396ZM628.376 191.964V190.884C628.196 190.938 627.998 190.956 627.8 190.956C627.044 190.956 626.612 190.542 626.612 189.732V178.68H625.388V189.732C625.388 191.136 626.09 192.072 627.584 192.072C627.854 192.072 628.088 192.036 628.376 191.964ZM634.965 182.334C633.723 182.334 632.463 183.018 631.833 184.242V182.46H630.609V195.78H631.833V190.272C632.409 191.478 633.489 192.144 634.821 192.144C637.377 192.144 639.033 190.074 639.033 187.14C639.033 184.368 637.395 182.334 634.965 182.334ZM634.821 191.064C632.913 191.064 631.833 189.66 631.833 187.176C631.833 184.836 632.931 183.414 634.839 183.414C636.603 183.414 637.773 184.782 637.773 187.194C637.773 189.696 636.603 191.064 634.821 191.064ZM642.001 189.84C641.335 189.84 640.849 190.326 640.849 190.956C640.849 191.658 641.353 192.072 642.001 192.072C642.145 192.072 642.271 192.054 642.361 192.036C642.505 193.296 641.695 194.052 640.849 194.808L641.281 195.312C642.847 194.088 643.333 192.9 643.333 191.712C643.333 190.488 642.757 189.84 642.001 189.84ZM656.623 192H658.171L653.941 186.456L658.099 182.46H656.479L651.943 186.942V178.68H650.719V192H651.943V188.382L653.113 187.266L656.623 192ZM663.143 192.144C665.501 192.144 667.391 190.2 667.391 187.212C667.391 184.26 665.519 182.316 663.143 182.316C660.767 182.316 658.895 184.26 658.895 187.212C658.895 190.2 660.785 192.144 663.143 192.144ZM663.143 191.064C661.505 191.064 660.155 189.768 660.155 187.212C660.155 184.674 661.523 183.396 663.143 183.396C664.763 183.396 666.131 184.674 666.131 187.212C666.131 189.768 664.781 191.064 663.143 191.064ZM673.298 182.316C672.452 182.316 671.606 182.748 671.102 183.648V182.46H669.878V192H671.102V186.132C671.102 184.206 671.93 183.396 673.028 183.396C674 183.396 674.324 184.026 674.324 184.98V185.916L675.44 185.7V184.764C675.44 183.144 674.54 182.316 673.298 182.316ZM680.95 192.144C683.308 192.144 685.198 190.2 685.198 187.212C685.198 184.26 683.326 182.316 680.95 182.316C678.574 182.316 676.702 184.26 676.702 187.212C676.702 190.2 678.592 192.144 680.95 192.144ZM680.95 191.064C679.312 191.064 677.962 189.768 677.962 187.212C677.962 184.674 679.33 183.396 680.95 183.396C682.57 183.396 683.938 184.674 683.938 187.212C683.938 189.768 682.588 191.064 680.95 191.064ZM691.681 182.316C690.529 182.316 689.485 182.892 688.909 183.936V182.46H687.685V192H688.909V186.636C688.909 184.728 689.683 183.432 691.357 183.432C692.689 183.432 693.481 184.08 693.481 185.808V192H694.705V185.628C694.705 183.486 693.589 182.316 691.681 182.316ZM704.762 192C704.546 191.352 704.366 190.38 704.366 189.3V185.376C704.366 183.738 703.376 182.316 701.018 182.316C699.344 182.316 697.886 183.072 697.166 185.088L698.246 185.412C698.75 183.954 699.758 183.432 700.946 183.432C702.422 183.432 703.178 184.278 703.178 185.52V186.78C702.404 186.51 701.648 186.42 700.874 186.42C698.912 186.42 697.148 187.446 697.148 189.408C697.148 191.046 698.426 192.144 700.118 192.144C701.666 192.144 702.908 191.244 703.394 190.128C703.394 190.848 703.502 191.478 703.646 192H704.762ZM703.178 188.04C703.178 190.362 701.576 191.1 700.334 191.1C699.182 191.1 698.372 190.488 698.372 189.336C698.372 188.076 699.506 187.428 700.946 187.428C701.684 187.428 702.44 187.518 703.178 187.824V188.04ZM713.193 182.46L710.205 190.65L707.217 182.46H705.885L709.629 192H710.709L714.453 182.46H713.193ZM715.995 178.752V180.588H717.867V178.752H715.995ZM716.319 192H717.543V182.46H716.319V192ZM724.064 182.316C723.218 182.316 722.372 182.748 721.868 183.648V182.46H720.644V192H721.868V186.132C721.868 184.206 722.696 183.396 723.794 183.396C724.766 183.396 725.09 184.026 725.09 184.98V185.916L726.206 185.7V184.764C726.206 183.144 725.306 182.316 724.064 182.316ZM733.992 182.46V187.824C733.992 189.696 733.272 191.046 731.58 191.046C730.248 191.046 729.456 190.326 729.456 188.76V182.46H728.232V188.868C728.232 190.938 729.366 192.144 731.238 192.144C732.408 192.144 733.416 191.568 733.992 190.542V192H735.216V182.46H733.992ZM737.771 184.944C737.771 186.222 738.689 187.104 740.435 187.464L741.983 187.788C743.243 188.058 743.747 188.544 743.747 189.444C743.747 190.416 742.775 191.064 741.299 191.064C739.895 191.064 738.905 190.524 738.455 189.516L737.411 189.948C738.059 191.388 739.409 192.144 741.335 192.144C743.459 192.144 744.935 190.992 744.935 189.336C744.935 187.914 743.963 187.014 741.875 186.6L740.615 186.348C739.481 186.114 738.959 185.628 738.959 184.836C738.959 183.954 739.823 183.396 741.155 183.396C742.379 183.396 743.261 183.882 743.639 184.8L744.647 184.404C744.251 183.144 742.919 182.316 741.191 182.316C739.193 182.316 737.771 183.432 737.771 184.944ZM747.997 189.84C747.331 189.84 746.845 190.326 746.845 190.956C746.845 191.658 747.349 192.072 747.997 192.072C748.141 192.072 748.267 192.054 748.357 192.036C748.501 193.296 747.691 194.052 746.845 194.808L747.277 195.312C748.843 194.088 749.329 192.9 749.329 191.712C749.329 190.488 748.753 189.84 747.997 189.84ZM761.071 182.334C759.829 182.334 758.569 183.018 757.939 184.242V178.68H756.715V192H757.939V190.272C758.515 191.478 759.595 192.144 760.927 192.144C763.483 192.144 765.139 190.074 765.139 187.14C765.139 184.368 763.501 182.334 761.071 182.334ZM760.927 191.064C759.019 191.064 757.939 189.66 757.939 187.176C757.939 184.836 759.037 183.414 760.945 183.414C762.709 183.414 763.879 184.782 763.879 187.194C763.879 189.696 762.709 191.064 760.927 191.064ZM774.74 192C774.524 191.352 774.344 190.38 774.344 189.3V185.376C774.344 183.738 773.354 182.316 770.996 182.316C769.322 182.316 767.864 183.072 767.144 185.088L768.224 185.412C768.728 183.954 769.736 183.432 770.924 183.432C772.4 183.432 773.156 184.278 773.156 185.52V186.78C772.382 186.51 771.626 186.42 770.852 186.42C768.89 186.42 767.126 187.446 767.126 189.408C767.126 191.046 768.404 192.144 770.096 192.144C771.644 192.144 772.886 191.244 773.372 190.128C773.372 190.848 773.48 191.478 773.624 192H774.74ZM773.156 188.04C773.156 190.362 771.554 191.1 770.312 191.1C769.16 191.1 768.35 190.488 768.35 189.336C768.35 188.076 769.484 187.428 770.924 187.428C771.662 187.428 772.418 187.518 773.156 187.824V188.04ZM780.859 182.316C780.013 182.316 779.167 182.748 778.663 183.648V182.46H777.439V192H778.663V186.132C778.663 184.206 779.491 183.396 780.589 183.396C781.561 183.396 781.885 184.026 781.885 184.98V185.916L783.001 185.7V184.764C783.001 183.144 782.101 182.316 780.859 182.316ZM789.415 182.316C788.263 182.316 787.219 182.892 786.643 183.936V182.46H785.419V192H786.643V186.636C786.643 184.728 787.417 183.432 789.091 183.432C790.423 183.432 791.215 184.08 791.215 185.808V192H792.439V185.628C792.439 183.486 791.323 182.316 789.415 182.316ZM801.902 189.3C801.452 190.236 800.606 191.064 799.166 191.064C797.33 191.064 796.124 189.984 796.016 187.446H802.694L802.73 186.384C802.73 183.792 800.966 182.316 798.914 182.316C796.43 182.316 794.774 184.314 794.774 187.104C794.774 190.146 796.358 192.144 799.04 192.144C801.164 192.144 802.352 190.956 802.802 189.804L801.902 189.3ZM798.914 183.396C800.318 183.396 801.578 184.296 801.524 186.438H796.016C796.178 184.17 797.474 183.396 798.914 183.396ZM811.226 182.46L808.238 190.65L805.25 182.46H803.918L807.662 192H808.742L812.486 182.46H811.226ZM820.517 189.3C820.067 190.236 819.221 191.064 817.781 191.064C815.945 191.064 814.739 189.984 814.631 187.446H821.309L821.345 186.384C821.345 183.792 819.581 182.316 817.529 182.316C815.045 182.316 813.389 184.314 813.389 187.104C813.389 190.146 814.973 192.144 817.655 192.144C819.779 192.144 820.967 190.956 821.417 189.804L820.517 189.3ZM817.529 183.396C818.933 183.396 820.193 184.296 820.139 186.438H814.631C814.793 184.17 816.089 183.396 817.529 183.396ZM827.353 182.316C826.507 182.316 825.661 182.748 825.157 183.648V182.46H823.933V192H825.157V186.132C825.157 184.206 825.985 183.396 827.083 183.396C828.055 183.396 828.379 184.026 828.379 184.98V185.916L829.495 185.7V184.764C829.495 183.144 828.595 182.316 827.353 182.316ZM835.909 182.316C834.757 182.316 833.713 182.892 833.137 183.936V182.46H831.913V192H833.137V186.636C833.137 184.728 833.911 183.432 835.585 183.432C836.917 183.432 837.709 184.08 837.709 185.808V192H838.933V185.628C838.933 183.486 837.817 182.316 835.909 182.316ZM842.708 189.84C842.042 189.84 841.556 190.326 841.556 190.956C841.556 191.658 842.06 192.072 842.708 192.072C842.852 192.072 842.978 192.054 843.068 192.036C843.212 193.296 842.402 194.052 841.556 194.808L841.988 195.312C843.554 194.088 844.04 192.9 844.04 191.712C844.04 190.488 843.464 189.84 842.708 189.84ZM558.904 209.334C557.662 209.334 556.402 210.018 555.772 211.242V209.46H554.548V222.78H555.772V217.272C556.348 218.478 557.428 219.144 558.76 219.144C561.316 219.144 562.972 217.074 562.972 214.14C562.972 211.368 561.334 209.334 558.904 209.334ZM558.76 218.064C556.852 218.064 555.772 216.66 555.772 214.176C555.772 211.836 556.87 210.414 558.778 210.414C560.542 210.414 561.712 211.782 561.712 214.194C561.712 216.696 560.542 218.064 558.76 218.064ZM564.996 211.944C564.996 213.222 565.914 214.104 567.66 214.464L569.208 214.788C570.468 215.058 570.972 215.544 570.972 216.444C570.972 217.416 570 218.064 568.524 218.064C567.12 218.064 566.13 217.524 565.68 216.516L564.636 216.948C565.284 218.388 566.634 219.144 568.56 219.144C570.684 219.144 572.16 217.992 572.16 216.336C572.16 214.914 571.188 214.014 569.1 213.6L567.84 213.348C566.706 213.114 566.184 212.628 566.184 211.836C566.184 210.954 567.048 210.396 568.38 210.396C569.604 210.396 570.486 210.882 570.864 211.8L571.872 211.404C571.476 210.144 570.144 209.316 568.416 209.316C566.418 209.316 564.996 210.432 564.996 211.944ZM580.167 209.46L577.179 217.722L574.299 209.46H572.967L576.549 219.162L575.991 220.512C575.523 221.61 575.055 221.898 574.389 221.898C573.975 221.898 573.633 221.754 573.273 221.43L572.733 222.312C573.183 222.726 573.777 222.96 574.425 222.96C575.901 222.96 576.603 221.934 577.233 220.314L581.427 209.46H580.167ZM589.351 219H590.899L586.669 213.456L590.827 209.46H589.207L584.671 213.942V205.68H583.447V219H584.671V215.382L585.841 214.266L589.351 219ZM593.392 207.732C593.986 207.732 594.472 207.264 594.472 206.652C594.472 206.04 593.986 205.572 593.392 205.572C592.798 205.572 592.312 206.04 592.312 206.652C592.312 207.264 592.798 207.732 593.392 207.732ZM592.78 219H594.004V209.46H592.78V219ZM596.637 211.944C596.637 213.222 597.555 214.104 599.301 214.464L600.849 214.788C602.109 215.058 602.613 215.544 602.613 216.444C602.613 217.416 601.641 218.064 600.165 218.064C598.761 218.064 597.771 217.524 597.321 216.516L596.277 216.948C596.925 218.388 598.275 219.144 600.201 219.144C602.325 219.144 603.801 217.992 603.801 216.336C603.801 214.914 602.829 214.014 600.741 213.6L599.481 213.348C598.347 213.114 597.825 212.628 597.825 211.836C597.825 210.954 598.689 210.396 600.021 210.396C601.245 210.396 602.127 210.882 602.505 211.8L603.513 211.404C603.117 210.144 601.785 209.316 600.057 209.316C598.059 209.316 596.637 210.432 596.637 211.944ZM612.15 219H613.698L609.468 213.456L613.626 209.46H612.006L607.47 213.942V205.68H606.246V219H607.47V215.382L608.64 214.266L612.15 219ZM624.393 209.316C623.241 209.316 622.197 209.892 621.621 210.936V205.68H620.397V219H621.621V213.636C621.621 211.728 622.395 210.432 624.069 210.432C625.401 210.432 626.193 211.08 626.193 212.808V219H627.417V212.628C627.417 210.486 626.301 209.316 624.393 209.316ZM636.878 216.3C636.428 217.236 635.582 218.064 634.142 218.064C632.306 218.064 631.1 216.984 630.992 214.446H637.67L637.706 213.384C637.706 210.792 635.942 209.316 633.89 209.316C631.406 209.316 629.75 211.314 629.75 214.104C629.75 217.146 631.334 219.144 634.016 219.144C636.14 219.144 637.328 217.956 637.778 216.804L636.878 216.3ZM633.89 210.396C635.294 210.396 636.554 211.296 636.5 213.438H630.992C631.154 211.17 632.45 210.396 633.89 210.396ZM643.282 218.964V217.884C643.102 217.938 642.904 217.956 642.706 217.956C641.95 217.956 641.518 217.542 641.518 216.732V205.68H640.294V216.732C640.294 218.136 640.996 219.072 642.49 219.072C642.76 219.072 642.994 219.036 643.282 218.964ZM645.047 211.944C645.047 213.222 645.965 214.104 647.711 214.464L649.259 214.788C650.519 215.058 651.023 215.544 651.023 216.444C651.023 217.416 650.051 218.064 648.575 218.064C647.171 218.064 646.181 217.524 645.731 216.516L644.687 216.948C645.335 218.388 646.685 219.144 648.611 219.144C650.735 219.144 652.211 217.992 652.211 216.336C652.211 214.914 651.239 214.014 649.151 213.6L647.891 213.348C646.757 213.114 646.235 212.628 646.235 211.836C646.235 210.954 647.099 210.396 648.431 210.396C649.655 210.396 650.537 210.882 650.915 211.8L651.923 211.404C651.527 210.144 650.195 209.316 648.467 209.316C646.469 209.316 645.047 210.432 645.047 211.944ZM661.136 216.3C660.686 217.236 659.84 218.064 658.4 218.064C656.564 218.064 655.358 216.984 655.25 214.446H661.928L661.964 213.384C661.964 210.792 660.2 209.316 658.148 209.316C655.664 209.316 654.008 211.314 654.008 214.104C654.008 217.146 655.592 219.144 658.274 219.144C660.398 219.144 661.586 217.956 662.036 216.804L661.136 216.3ZM658.148 210.396C659.552 210.396 660.812 211.296 660.758 213.438H655.25C655.412 211.17 656.708 210.396 658.148 210.396ZM665.204 216.84C664.538 216.84 664.052 217.326 664.052 217.956C664.052 218.658 664.556 219.072 665.204 219.072C665.348 219.072 665.474 219.054 665.564 219.036C665.708 220.296 664.898 221.052 664.052 221.808L664.484 222.312C666.05 221.088 666.536 219.9 666.536 218.712C666.536 217.488 665.96 216.84 665.204 216.84ZM682.454 210.468V209.46H679.718V210.126C679.142 209.64 678.386 209.316 677.396 209.316C674.876 209.316 673.598 211.098 673.598 212.808C673.598 213.978 674.3 215.31 675.56 215.814C674.39 216.12 673.688 216.858 673.688 217.704C673.688 218.694 674.48 219.324 675.812 219.324H679.916C680.78 219.324 681.068 219.72 681.068 220.26C681.068 221.412 679.412 222.006 677.432 222.006C675.83 222.006 674.426 221.7 673.76 220.134L672.77 220.584C673.346 222.258 675.02 223.032 677.432 223.032C680.114 223.032 682.292 222.042 682.292 220.152C682.292 218.964 681.5 218.208 679.952 218.208H676.082C675.29 218.208 674.912 217.866 674.912 217.38C674.912 216.75 675.686 216.336 676.766 216.336H677.18C679.862 216.336 681.122 214.554 681.122 212.808C681.122 212.106 680.87 211.386 680.402 210.81V210.468H682.454ZM677.378 215.328C675.668 215.328 674.804 214.14 674.804 212.808C674.804 211.494 675.668 210.36 677.378 210.36C679.07 210.36 679.916 211.476 679.916 212.808C679.916 214.158 679.07 215.328 677.378 215.328ZM687.782 209.316C686.936 209.316 686.09 209.748 685.586 210.648V209.46H684.362V219H685.586V213.132C685.586 211.206 686.414 210.396 687.512 210.396C688.484 210.396 688.808 211.026 688.808 211.98V212.916L689.924 212.7V211.764C689.924 210.144 689.024 209.316 687.782 209.316ZM698.908 219C698.692 218.352 698.512 217.38 698.512 216.3V212.376C698.512 210.738 697.522 209.316 695.164 209.316C693.49 209.316 692.032 210.072 691.312 212.088L692.392 212.412C692.896 210.954 693.904 210.432 695.092 210.432C696.568 210.432 697.324 211.278 697.324 212.52V213.78C696.55 213.51 695.794 213.42 695.02 213.42C693.058 213.42 691.294 214.446 691.294 216.408C691.294 218.046 692.572 219.144 694.264 219.144C695.812 219.144 697.054 218.244 697.54 217.128C697.54 217.848 697.648 218.478 697.792 219H698.908ZM697.324 215.04C697.324 217.362 695.722 218.1 694.48 218.1C693.328 218.1 692.518 217.488 692.518 216.336C692.518 215.076 693.652 214.428 695.092 214.428C695.83 214.428 696.586 214.518 697.324 214.824V215.04ZM707.339 209.46L704.351 217.65L701.363 209.46H700.031L703.775 219H704.855L708.599 209.46H707.339ZM714.822 209.334C713.58 209.334 712.32 210.018 711.69 211.242V209.46H710.466V222.78H711.69V217.272C712.266 218.478 713.346 219.144 714.678 219.144C717.234 219.144 718.89 217.074 718.89 214.14C718.89 211.368 717.252 209.334 714.822 209.334ZM714.678 218.064C712.77 218.064 711.69 216.66 711.69 214.176C711.69 211.836 712.788 210.414 714.696 210.414C716.46 210.414 717.63 211.782 717.63 214.194C717.63 216.696 716.46 218.064 714.678 218.064ZM724.37 218.964V217.884C724.19 217.938 723.992 217.956 723.794 217.956C723.038 217.956 722.606 217.542 722.606 216.732V205.68H721.382V216.732C721.382 218.136 722.084 219.072 723.578 219.072C723.848 219.072 724.082 219.036 724.37 218.964ZM733.713 219C733.497 218.352 733.317 217.38 733.317 216.3V212.376C733.317 210.738 732.327 209.316 729.969 209.316C728.295 209.316 726.837 210.072 726.117 212.088L727.197 212.412C727.701 210.954 728.709 210.432 729.897 210.432C731.373 210.432 732.129 211.278 732.129 212.52V213.78C731.355 213.51 730.599 213.42 729.825 213.42C727.863 213.42 726.099 214.446 726.099 216.408C726.099 218.046 727.377 219.144 729.069 219.144C730.617 219.144 731.859 218.244 732.345 217.128C732.345 217.848 732.453 218.478 732.597 219H733.713ZM732.129 215.04C732.129 217.362 730.527 218.1 729.285 218.1C728.133 218.1 727.323 217.488 727.323 216.336C727.323 215.076 728.457 214.428 729.897 214.428C730.635 214.428 731.391 214.518 732.129 214.824V215.04ZM735.943 211.944C735.943 213.222 736.861 214.104 738.607 214.464L740.155 214.788C741.415 215.058 741.919 215.544 741.919 216.444C741.919 217.416 740.947 218.064 739.471 218.064C738.067 218.064 737.077 217.524 736.627 216.516L735.583 216.948C736.231 218.388 737.581 219.144 739.507 219.144C741.631 219.144 743.107 217.992 743.107 216.336C743.107 214.914 742.135 214.014 740.047 213.6L738.787 213.348C737.653 213.114 737.131 212.628 737.131 211.836C737.131 210.954 737.995 210.396 739.327 210.396C740.551 210.396 741.433 210.882 741.811 211.8L742.819 211.404C742.423 210.144 741.091 209.316 739.363 209.316C737.365 209.316 735.943 210.432 735.943 211.944ZM745.049 211.944C745.049 213.222 745.967 214.104 747.713 214.464L749.261 214.788C750.521 215.058 751.025 215.544 751.025 216.444C751.025 217.416 750.053 218.064 748.577 218.064C747.173 218.064 746.183 217.524 745.733 216.516L744.689 216.948C745.337 218.388 746.687 219.144 748.613 219.144C750.737 219.144 752.213 217.992 752.213 216.336C752.213 214.914 751.241 214.014 749.153 213.6L747.893 213.348C746.759 213.114 746.237 212.628 746.237 211.836C746.237 210.954 747.101 210.396 748.433 210.396C749.657 210.396 750.539 210.882 750.917 211.8L751.925 211.404C751.529 210.144 750.197 209.316 748.469 209.316C746.471 209.316 745.049 210.432 745.049 211.944ZM754.374 216.984V219H756.318V216.984H754.374Z" fill="#F8F0DD"/>
</g>
<defs>
<clipPath id="clip0_4799_152454">
<rect width="922" height="301" fill="white"/>
</clipPath>
</defs>
</svg>
