<svg width="1006" height="259" viewBox="0 0 1006 259" fill="none" xmlns="http://www.w3.org/2000/svg">
<rect width="1006" height="259" fill="white"/>
<path d="M124.25 103.25V101H125.75V103.25H128V104.75H125.75V107H124.25V104.75H122V103.25H124.25Z" fill="#2A2859"/>
<path fill-rule="evenodd" clip-rule="evenodd" d="M128.307 97.322L127.206 98.4238C129.427 99.3035 131 101.466 131 104C131 107.313 128.313 110 125 110C122.466 110 120.303 108.427 119.423 106.206L118.624 107.005L108.942 97.3228C107.69 96.0703 107 94.4052 107 92.633C107 90.8607 107.69 89.1957 108.942 87.9425C110.196 86.69 111.861 86 113.633 86C115.404 86 117.07 86.69 118.323 87.9425L118.625 88.2448L118.927 87.9425C120.18 86.69 121.846 86 123.617 86C125.389 86 127.055 86.69 128.307 87.9425C129.56 89.195 130.25 90.8608 130.25 92.6323C130.25 94.4037 129.56 96.0695 128.307 97.322ZM118.625 104.886L119.025 104.487C119.012 104.326 119 104.164 119 104C119 100.687 121.687 98 125 98C125.164 98 125.326 98.012 125.487 98.0247L127.248 96.2638C129.253 94.2583 129.253 91.0078 127.248 89.0023C126.245 87.9995 124.931 87.4985 123.617 87.4985C122.303 87.4985 120.989 87.9995 119.986 89.0023L118.625 90.3635L117.264 89.0023C116.261 87.9995 114.947 87.4985 113.633 87.4985C112.319 87.4985 111.005 87.9995 110.002 89.0023C107.997 91.0078 107.997 94.2583 110.002 96.2638L118.625 104.886ZM120.5 104C120.5 106.481 122.519 108.5 125 108.5C127.481 108.5 129.5 106.481 129.5 104C129.5 101.519 127.481 99.5 125 99.5C122.519 99.5 120.5 101.519 120.5 104Z" fill="#2A2859"/>
<path d="M151.456 88.24H154.264V106H151.456V98.416H143.896V106H141.088V88.24H143.896V95.704H151.456V88.24ZM166.824 101.992L168.648 103.048C167.928 104.632 166.248 106.216 163.344 106.216C159.576 106.216 157.296 103.432 157.296 99.52C157.296 95.656 159.768 92.992 163.152 92.992C166.152 92.992 168.624 95.008 168.624 98.608L168.576 100.192H159.936C160.08 102.88 161.4 104.032 163.512 104.032C165.072 104.032 166.152 103.192 166.824 101.992ZM163.152 95.104C161.52 95.104 160.152 95.968 159.936 98.272H166.008C166.032 96.016 164.64 95.104 163.152 95.104ZM176.851 105.928C176.347 106.072 175.843 106.144 175.315 106.144C172.891 106.144 171.739 104.704 171.739 102.376V88.24H174.427V102.184C174.427 103.288 175.075 103.792 176.059 103.792C176.299 103.792 176.563 103.768 176.851 103.696V105.928ZM178.813 96.784C178.813 94.624 180.805 92.992 183.805 92.992C186.277 92.992 187.933 93.88 188.821 95.584L186.949 96.736C186.373 95.752 185.221 95.152 183.781 95.152C182.341 95.152 181.357 95.704 181.357 96.616C181.357 97.36 181.861 97.816 182.989 98.032L185.125 98.464C187.813 98.992 189.157 100.264 189.157 102.208C189.157 104.608 187.069 106.216 183.925 106.216C181.261 106.216 179.365 105.208 178.381 103.36L180.253 102.184C180.949 103.36 182.173 104.032 183.853 104.032C185.485 104.032 186.589 103.384 186.589 102.328C186.589 101.464 186.061 100.984 184.885 100.744L182.533 100.288C180.133 99.832 178.813 98.608 178.813 96.784ZM200.466 101.992L202.29 103.048C201.57 104.632 199.89 106.216 196.986 106.216C193.218 106.216 190.938 103.432 190.938 99.52C190.938 95.656 193.41 92.992 196.794 92.992C199.794 92.992 202.266 95.008 202.266 98.608L202.218 100.192H193.578C193.722 102.88 195.042 104.032 197.154 104.032C198.714 104.032 199.794 103.192 200.466 101.992ZM196.794 95.104C195.162 95.104 193.794 95.968 193.578 98.272H199.65C199.674 96.016 198.282 95.104 196.794 95.104ZM216.554 106.24C213.242 106.24 210.53 103.648 210.53 99.568C210.53 95.584 213.218 92.992 216.554 92.992C219.89 92.992 222.578 95.584 222.578 99.568C222.578 103.648 219.866 106.24 216.554 106.24ZM216.554 103.96C218.354 103.96 219.818 102.568 219.818 99.568C219.818 96.544 218.33 95.272 216.554 95.272C214.778 95.272 213.29 96.544 213.29 99.568C213.29 102.568 214.778 103.96 216.554 103.96ZM237.237 95.368H234.573V95.656C235.005 96.256 235.221 96.952 235.221 97.672C235.221 99.976 233.445 102.28 229.749 102.28H229.125C227.829 102.28 226.989 102.712 226.989 103.48C226.989 104.008 227.397 104.392 228.213 104.392H233.517C235.701 104.392 236.949 105.52 236.949 107.248C236.949 109.864 234.285 111.376 230.037 111.376C226.317 111.376 223.821 110.44 223.173 107.968L225.789 107.464C226.389 109 227.781 109.408 230.109 109.408C232.605 109.408 234.381 108.736 234.381 107.56C234.381 107.008 234.069 106.6 233.205 106.6H227.421C225.429 106.6 224.397 105.52 224.397 104.176C224.397 102.88 225.549 101.848 227.133 101.536C225.381 100.768 224.517 99.136 224.517 97.6C224.517 95.32 226.365 92.992 229.893 92.992C231.453 92.992 232.677 93.544 233.397 94.336V93.28H237.237V95.368ZM229.893 100.336C231.741 100.336 232.605 99.04 232.605 97.648C232.605 96.256 231.741 94.984 229.893 94.984C228.069 94.984 227.181 96.256 227.181 97.648C227.181 99.04 228.069 100.336 229.893 100.336ZM250.571 106.24C247.259 106.24 244.547 103.648 244.547 99.568C244.547 95.584 247.235 92.992 250.571 92.992C253.907 92.992 256.595 95.584 256.595 99.568C256.595 103.648 253.883 106.24 250.571 106.24ZM250.571 103.96C252.371 103.96 253.835 102.568 253.835 99.568C253.835 96.544 252.347 95.272 250.571 95.272C248.795 95.272 247.307 96.544 247.307 99.568C247.307 102.568 248.795 103.96 250.571 103.96ZM273.499 92.992C276.043 92.992 277.507 94.648 277.507 97.312V106H274.819V97.768C274.819 96.088 274.027 95.32 272.635 95.32C270.763 95.32 269.827 96.616 269.827 99.112V106H267.139V97.768C267.139 96.088 266.347 95.32 264.955 95.32C263.107 95.32 262.171 96.616 262.171 99.112V106H259.483V93.28H262.171V95.08C263.035 93.712 264.283 92.992 265.819 92.992C267.763 92.992 269.035 93.928 269.587 95.512C270.451 93.832 271.795 92.992 273.499 92.992ZM280.572 96.784C280.572 94.624 282.564 92.992 285.564 92.992C288.036 92.992 289.692 93.88 290.58 95.584L288.708 96.736C288.132 95.752 286.98 95.152 285.54 95.152C284.1 95.152 283.116 95.704 283.116 96.616C283.116 97.36 283.62 97.816 284.748 98.032L286.884 98.464C289.572 98.992 290.916 100.264 290.916 102.208C290.916 104.608 288.828 106.216 285.684 106.216C283.02 106.216 281.124 105.208 280.14 103.36L282.012 102.184C282.708 103.36 283.932 104.032 285.612 104.032C287.244 104.032 288.348 103.384 288.348 102.328C288.348 101.464 287.82 100.984 286.644 100.744L284.292 100.288C281.892 99.832 280.572 98.608 280.572 96.784ZM298.721 106.24C295.409 106.24 292.697 103.648 292.697 99.568C292.697 95.584 295.385 92.992 298.721 92.992C302.057 92.992 304.745 95.584 304.745 99.568C304.745 103.648 302.033 106.24 298.721 106.24ZM298.721 103.96C300.521 103.96 301.985 102.568 301.985 99.568C301.985 96.544 300.497 95.272 298.721 95.272C296.945 95.272 295.457 96.544 295.457 99.568C295.457 102.568 296.945 103.96 298.721 103.96ZM313.465 92.992C315.313 92.992 316.513 94.216 316.513 96.4V98.08L314.353 98.464V97.168C314.353 96.016 313.945 95.224 312.697 95.224C311.329 95.224 310.321 96.136 310.321 98.56V106H307.633V93.28H310.321V94.984C311.041 93.568 312.361 92.992 313.465 92.992ZM330.758 95.368H328.094V95.656C328.526 96.256 328.742 96.952 328.742 97.672C328.742 99.976 326.966 102.28 323.27 102.28H322.646C321.35 102.28 320.51 102.712 320.51 103.48C320.51 104.008 320.918 104.392 321.734 104.392H327.038C329.222 104.392 330.47 105.52 330.47 107.248C330.47 109.864 327.806 111.376 323.558 111.376C319.838 111.376 317.342 110.44 316.694 107.968L319.31 107.464C319.91 109 321.302 109.408 323.63 109.408C326.126 109.408 327.902 108.736 327.902 107.56C327.902 107.008 327.59 106.6 326.726 106.6H320.942C318.95 106.6 317.918 105.52 317.918 104.176C317.918 102.88 319.07 101.848 320.654 101.536C318.902 100.768 318.038 99.136 318.038 97.6C318.038 95.32 319.886 92.992 323.414 92.992C324.974 92.992 326.198 93.544 326.918 94.336V93.28H330.758V95.368ZM323.414 100.336C325.262 100.336 326.126 99.04 326.126 97.648C326.126 96.256 325.262 94.984 323.414 94.984C321.59 94.984 320.702 96.256 320.702 97.648C320.702 99.04 321.59 100.336 323.414 100.336Z" fill="#2A2859"/>
<path d="M148.612 130.68H149.872V144H148.612V137.88H141.844V144H140.584V130.68H141.844V136.692H148.612V130.68ZM159.327 141.3L160.227 141.804C159.777 142.956 158.589 144.144 156.465 144.144C153.783 144.144 152.199 142.146 152.199 139.104C152.199 136.314 153.855 134.316 156.339 134.316C158.391 134.316 160.155 135.792 160.155 138.384L160.119 139.446H153.441C153.549 141.984 154.755 143.064 156.591 143.064C158.031 143.064 158.877 142.236 159.327 141.3ZM156.339 135.396C154.899 135.396 153.603 136.17 153.441 138.438H158.949C159.003 136.296 157.743 135.396 156.339 135.396ZM165.531 143.964C165.243 144.036 165.009 144.072 164.739 144.072C163.245 144.072 162.543 143.136 162.543 141.732V130.68H163.767V141.732C163.767 142.542 164.199 142.956 164.955 142.956C165.153 142.956 165.351 142.938 165.531 142.884V143.964ZM167.095 136.944C167.095 135.432 168.517 134.316 170.515 134.316C172.243 134.316 173.575 135.144 173.971 136.404L172.963 136.8C172.585 135.882 171.703 135.396 170.479 135.396C169.147 135.396 168.283 135.954 168.283 136.836C168.283 137.628 168.805 138.114 169.939 138.348L171.199 138.6C173.287 139.014 174.259 139.914 174.259 141.336C174.259 142.992 172.783 144.144 170.659 144.144C168.733 144.144 167.383 143.388 166.735 141.948L167.779 141.516C168.229 142.524 169.219 143.064 170.623 143.064C172.099 143.064 173.071 142.416 173.071 141.444C173.071 140.544 172.567 140.058 171.307 139.788L169.759 139.464C168.013 139.104 167.095 138.222 167.095 136.944ZM182.985 141.3L183.885 141.804C183.435 142.956 182.247 144.144 180.123 144.144C177.441 144.144 175.857 142.146 175.857 139.104C175.857 136.314 177.513 134.316 179.997 134.316C182.049 134.316 183.813 135.792 183.813 138.384L183.777 139.446H177.099C177.207 141.984 178.413 143.064 180.249 143.064C181.689 143.064 182.535 142.236 182.985 141.3ZM179.997 135.396C178.557 135.396 177.261 136.17 177.099 138.438H182.607C182.661 136.296 181.401 135.396 179.997 135.396ZM190.232 134.316C192.14 134.316 193.256 135.486 193.256 137.628V144H192.032V137.808C192.032 136.08 191.24 135.432 189.908 135.432C188.234 135.432 187.46 136.728 187.46 138.636V144H186.236V130.68H187.46V135.936C188.036 134.892 189.08 134.316 190.232 134.316ZM196.542 132.732C195.948 132.732 195.462 132.264 195.462 131.652C195.462 131.04 195.948 130.572 196.542 130.572C197.136 130.572 197.622 131.04 197.622 131.652C197.622 132.264 197.136 132.732 196.542 132.732ZM195.102 147.906C194.778 147.906 194.472 147.852 194.166 147.762L194.274 146.682C194.526 146.772 194.76 146.79 194.922 146.79C195.768 146.79 195.93 146.214 195.93 145.386V134.46H197.154V145.458C197.154 147.078 196.452 147.906 195.102 147.906ZM206.572 141.3L207.472 141.804C207.022 142.956 205.834 144.144 203.71 144.144C201.028 144.144 199.444 142.146 199.444 139.104C199.444 136.314 201.1 134.316 203.584 134.316C205.636 134.316 207.4 135.792 207.4 138.384L207.364 139.446H200.686C200.794 141.984 202 143.064 203.836 143.064C205.276 143.064 206.122 142.236 206.572 141.3ZM203.584 135.396C202.144 135.396 200.848 136.17 200.686 138.438H206.194C206.248 136.296 204.988 135.396 203.584 135.396ZM212.776 143.964C212.488 144.036 212.254 144.072 211.984 144.072C210.49 144.072 209.788 143.136 209.788 141.732V130.68H211.012V141.732C211.012 142.542 211.444 142.956 212.2 142.956C212.398 142.956 212.596 142.938 212.776 142.884V143.964ZM219.165 134.334C221.595 134.334 223.233 136.368 223.233 139.14C223.233 142.074 221.577 144.144 219.021 144.144C217.689 144.144 216.609 143.478 216.033 142.272V147.78H214.809V134.46H216.033V136.242C216.663 135.018 217.923 134.334 219.165 134.334ZM219.021 143.064C220.803 143.064 221.973 141.696 221.973 139.194C221.973 136.782 220.803 135.414 219.039 135.414C217.131 135.414 216.033 136.836 216.033 139.176C216.033 141.66 217.113 143.064 219.021 143.064ZM226.001 141.84C226.757 141.84 227.333 142.488 227.333 143.712C227.333 144.9 226.847 146.088 225.281 147.312L224.849 146.808C225.695 146.052 226.505 145.296 226.361 144.036C226.271 144.054 226.145 144.072 226.001 144.072C225.353 144.072 224.849 143.658 224.849 142.956C224.849 142.326 225.335 141.84 226.001 141.84ZM240.223 144L236.713 139.266L235.543 140.382V144H234.319V130.68H235.543V138.942L240.079 134.46H241.699L237.541 138.456L241.771 144H240.223ZM246.543 144.144C244.185 144.144 242.295 142.2 242.295 139.212C242.295 136.26 244.167 134.316 246.543 134.316C248.919 134.316 250.791 136.26 250.791 139.212C250.791 142.2 248.901 144.144 246.543 144.144ZM246.543 143.064C248.181 143.064 249.531 141.768 249.531 139.212C249.531 136.674 248.163 135.396 246.543 135.396C244.923 135.396 243.555 136.674 243.555 139.212C243.555 141.768 244.905 143.064 246.543 143.064ZM256.498 134.316C257.74 134.316 258.64 135.144 258.64 136.764V137.7L257.524 137.916V136.98C257.524 136.026 257.2 135.396 256.228 135.396C255.13 135.396 254.302 136.206 254.302 138.132V144H253.078V134.46H254.302V135.648C254.806 134.748 255.652 134.316 256.498 134.316ZM263.95 144.144C261.592 144.144 259.702 142.2 259.702 139.212C259.702 136.26 261.574 134.316 263.95 134.316C266.326 134.316 268.198 136.26 268.198 139.212C268.198 142.2 266.308 144.144 263.95 144.144ZM263.95 143.064C265.588 143.064 266.938 141.768 266.938 139.212C266.938 136.674 265.57 135.396 263.95 135.396C262.33 135.396 260.962 136.674 260.962 139.212C260.962 141.768 262.312 143.064 263.95 143.064ZM274.481 134.316C276.389 134.316 277.505 135.486 277.505 137.628V144H276.281V137.808C276.281 136.08 275.489 135.432 274.157 135.432C272.483 135.432 271.709 136.728 271.709 138.636V144H270.485V134.46H271.709V135.936C272.285 134.892 273.329 134.316 274.481 134.316ZM287.362 144H286.246C286.102 143.478 285.994 142.848 285.994 142.128C285.508 143.244 284.266 144.144 282.718 144.144C281.026 144.144 279.748 143.046 279.748 141.408C279.748 139.446 281.512 138.42 283.474 138.42C284.248 138.42 285.004 138.51 285.778 138.78V137.52C285.778 136.278 285.022 135.432 283.546 135.432C282.358 135.432 281.35 135.954 280.846 137.412L279.766 137.088C280.486 135.072 281.944 134.316 283.618 134.316C285.976 134.316 286.966 135.738 286.966 137.376V141.3C286.966 142.38 287.146 143.352 287.362 144ZM285.778 140.04V139.824C285.04 139.518 284.284 139.428 283.546 139.428C282.106 139.428 280.972 140.076 280.972 141.336C280.972 142.488 281.782 143.1 282.934 143.1C284.176 143.1 285.778 142.362 285.778 140.04ZM295.593 134.46H296.853L293.109 144H292.029L288.285 134.46H289.617L292.605 142.65L295.593 134.46ZM298.195 130.752H300.067V132.588H298.195V130.752ZM298.519 144V134.46H299.743V144H298.519ZM306.064 134.316C307.306 134.316 308.206 135.144 308.206 136.764V137.7L307.09 137.916V136.98C307.09 136.026 306.766 135.396 305.794 135.396C304.696 135.396 303.868 136.206 303.868 138.132V144H302.644V134.46H303.868V135.648C304.372 134.748 305.218 134.316 306.064 134.316ZM315.792 134.46H317.016V144H315.792V142.542C315.216 143.568 314.208 144.144 313.038 144.144C311.166 144.144 310.032 142.938 310.032 140.868V134.46H311.256V140.76C311.256 142.326 312.048 143.046 313.38 143.046C315.072 143.046 315.792 141.696 315.792 139.824V134.46ZM319.371 136.944C319.371 135.432 320.793 134.316 322.791 134.316C324.519 134.316 325.851 135.144 326.247 136.404L325.239 136.8C324.861 135.882 323.979 135.396 322.755 135.396C321.423 135.396 320.559 135.954 320.559 136.836C320.559 137.628 321.081 138.114 322.215 138.348L323.475 138.6C325.563 139.014 326.535 139.914 326.535 141.336C326.535 142.992 325.059 144.144 322.935 144.144C321.009 144.144 319.659 143.388 319.011 141.948L320.055 141.516C320.505 142.524 321.495 143.064 322.899 143.064C324.375 143.064 325.347 142.416 325.347 141.444C325.347 140.544 324.843 140.058 323.583 139.788L322.035 139.464C320.289 139.104 319.371 138.222 319.371 136.944ZM329.397 141.84C330.153 141.84 330.729 142.488 330.729 143.712C330.729 144.9 330.243 146.088 328.677 147.312L328.245 146.808C329.091 146.052 329.901 145.296 329.757 144.036C329.667 144.054 329.541 144.072 329.397 144.072C328.749 144.072 328.245 143.658 328.245 142.956C328.245 142.326 328.731 141.84 329.397 141.84ZM342.071 134.334C344.501 134.334 346.139 136.368 346.139 139.14C346.139 142.074 344.483 144.144 341.927 144.144C340.595 144.144 339.515 143.478 338.939 142.272V144H337.715V130.68H338.939V136.242C339.569 135.018 340.829 134.334 342.071 134.334ZM341.927 143.064C343.709 143.064 344.879 141.696 344.879 139.194C344.879 136.782 343.709 135.414 341.945 135.414C340.037 135.414 338.939 136.836 338.939 139.176C338.939 141.66 340.019 143.064 341.927 143.064ZM355.54 144H354.424C354.28 143.478 354.172 142.848 354.172 142.128C353.686 143.244 352.444 144.144 350.896 144.144C349.204 144.144 347.926 143.046 347.926 141.408C347.926 139.446 349.69 138.42 351.652 138.42C352.426 138.42 353.182 138.51 353.956 138.78V137.52C353.956 136.278 353.2 135.432 351.724 135.432C350.536 135.432 349.528 135.954 349.024 137.412L347.944 137.088C348.664 135.072 350.122 134.316 351.796 134.316C354.154 134.316 355.144 135.738 355.144 137.376V141.3C355.144 142.38 355.324 143.352 355.54 144ZM353.956 140.04V139.824C353.218 139.518 352.462 139.428 351.724 139.428C350.284 139.428 349.15 140.076 349.15 141.336C349.15 142.488 349.96 143.1 351.112 143.1C352.354 143.1 353.956 142.362 353.956 140.04ZM361.459 134.316C362.701 134.316 363.601 135.144 363.601 136.764V137.7L362.485 137.916V136.98C362.485 136.026 362.161 135.396 361.189 135.396C360.091 135.396 359.263 136.206 359.263 138.132V144H358.039V134.46H359.263V135.648C359.767 134.748 360.613 134.316 361.459 134.316ZM369.815 134.316C371.723 134.316 372.839 135.486 372.839 137.628V144H371.615V137.808C371.615 136.08 370.823 135.432 369.491 135.432C367.817 135.432 367.043 136.728 367.043 138.636V144H365.819V134.46H367.043V135.936C367.619 134.892 368.663 134.316 369.815 134.316ZM382.102 141.3L383.002 141.804C382.552 142.956 381.364 144.144 379.24 144.144C376.558 144.144 374.974 142.146 374.974 139.104C374.974 136.314 376.63 134.316 379.114 134.316C381.166 134.316 382.93 135.792 382.93 138.384L382.894 139.446H376.216C376.324 141.984 377.53 143.064 379.366 143.064C380.806 143.064 381.652 142.236 382.102 141.3ZM379.114 135.396C377.674 135.396 376.378 136.17 376.216 138.438H381.724C381.778 136.296 380.518 135.396 379.114 135.396ZM391.226 134.46H392.486L388.742 144H387.662L383.918 134.46H385.25L388.238 142.65L391.226 134.46ZM400.317 141.3L401.217 141.804C400.767 142.956 399.579 144.144 397.455 144.144C394.773 144.144 393.189 142.146 393.189 139.104C393.189 136.314 394.845 134.316 397.329 134.316C399.381 134.316 401.145 135.792 401.145 138.384L401.109 139.446H394.431C394.539 141.984 395.745 143.064 397.581 143.064C399.021 143.064 399.867 142.236 400.317 141.3ZM397.329 135.396C395.889 135.396 394.593 136.17 394.431 138.438H399.939C399.993 136.296 398.733 135.396 397.329 135.396ZM406.953 134.316C408.195 134.316 409.095 135.144 409.095 136.764V137.7L407.979 137.916V136.98C407.979 136.026 407.655 135.396 406.683 135.396C405.585 135.396 404.757 136.206 404.757 138.132V144H403.533V134.46H404.757V135.648C405.261 134.748 406.107 134.316 406.953 134.316ZM415.309 134.316C417.217 134.316 418.333 135.486 418.333 137.628V144H417.109V137.808C417.109 136.08 416.317 135.432 414.985 135.432C413.311 135.432 412.537 136.728 412.537 138.636V144H411.313V134.46H412.537V135.936C413.113 134.892 414.157 134.316 415.309 134.316ZM421.908 141.84C422.664 141.84 423.24 142.488 423.24 143.712C423.24 144.9 422.754 146.088 421.188 147.312L420.756 146.808C421.602 146.052 422.412 145.296 422.268 144.036C422.178 144.054 422.052 144.072 421.908 144.072C421.26 144.072 420.756 143.658 420.756 142.956C420.756 142.326 421.242 141.84 421.908 141.84ZM144.904 162.334C147.334 162.334 148.972 164.368 148.972 167.14C148.972 170.074 147.316 172.144 144.76 172.144C143.428 172.144 142.348 171.478 141.772 170.272V175.78H140.548V162.46H141.772V164.242C142.402 163.018 143.662 162.334 144.904 162.334ZM144.76 171.064C146.542 171.064 147.712 169.696 147.712 167.194C147.712 164.782 146.542 163.414 144.778 163.414C142.87 163.414 141.772 164.836 141.772 167.176C141.772 169.66 142.852 171.064 144.76 171.064ZM150.796 164.944C150.796 163.432 152.218 162.316 154.216 162.316C155.944 162.316 157.276 163.144 157.672 164.404L156.664 164.8C156.286 163.882 155.404 163.396 154.18 163.396C152.848 163.396 151.984 163.954 151.984 164.836C151.984 165.628 152.506 166.114 153.64 166.348L154.9 166.6C156.988 167.014 157.96 167.914 157.96 169.336C157.96 170.992 156.484 172.144 154.36 172.144C152.434 172.144 151.084 171.388 150.436 169.948L151.48 169.516C151.93 170.524 152.92 171.064 154.324 171.064C155.8 171.064 156.772 170.416 156.772 169.444C156.772 168.544 156.268 168.058 155.008 167.788L153.46 167.464C151.714 167.104 150.796 166.222 150.796 164.944ZM165.767 162.46H167.027L162.833 173.314C162.203 174.934 161.501 175.96 160.025 175.96C159.377 175.96 158.783 175.726 158.333 175.312L158.873 174.43C159.233 174.754 159.575 174.898 159.989 174.898C160.655 174.898 161.123 174.61 161.591 173.512L162.149 172.162L158.567 162.46H159.899L162.779 170.722L165.767 162.46ZM174.751 172L171.241 167.266L170.071 168.382V172H168.847V158.68H170.071V166.942L174.607 162.46H176.227L172.069 166.456L176.299 172H174.751ZM178.592 160.732C177.998 160.732 177.512 160.264 177.512 159.652C177.512 159.04 177.998 158.572 178.592 158.572C179.186 158.572 179.672 159.04 179.672 159.652C179.672 160.264 179.186 160.732 178.592 160.732ZM177.98 172V162.46H179.204V172H177.98ZM181.637 164.944C181.637 163.432 183.059 162.316 185.057 162.316C186.785 162.316 188.117 163.144 188.513 164.404L187.505 164.8C187.127 163.882 186.245 163.396 185.021 163.396C183.689 163.396 182.825 163.954 182.825 164.836C182.825 165.628 183.347 166.114 184.481 166.348L185.741 166.6C187.829 167.014 188.801 167.914 188.801 169.336C188.801 170.992 187.325 172.144 185.201 172.144C183.275 172.144 181.925 171.388 181.277 169.948L182.321 169.516C182.771 170.524 183.761 171.064 185.165 171.064C186.641 171.064 187.613 170.416 187.613 169.444C187.613 168.544 187.109 168.058 185.849 167.788L184.301 167.464C182.555 167.104 181.637 166.222 181.637 164.944ZM196.95 172L193.44 167.266L192.27 168.382V172H191.046V158.68H192.27V166.942L196.806 162.46H198.426L194.268 166.456L198.498 172H196.95ZM208.793 162.316C210.701 162.316 211.817 163.486 211.817 165.628V172H210.593V165.808C210.593 164.08 209.801 163.432 208.469 163.432C206.795 163.432 206.021 164.728 206.021 166.636V172H204.797V158.68H206.021V163.936C206.597 162.892 207.641 162.316 208.793 162.316ZM221.078 169.3L221.978 169.804C221.528 170.956 220.34 172.144 218.216 172.144C215.534 172.144 213.95 170.146 213.95 167.104C213.95 164.314 215.606 162.316 218.09 162.316C220.142 162.316 221.906 163.792 221.906 166.384L221.87 167.446H215.192C215.3 169.984 216.506 171.064 218.342 171.064C219.782 171.064 220.628 170.236 221.078 169.3ZM218.09 163.396C216.65 163.396 215.354 164.17 215.192 166.438H220.7C220.754 164.296 219.494 163.396 218.09 163.396ZM227.282 171.964C226.994 172.036 226.76 172.072 226.49 172.072C224.996 172.072 224.294 171.136 224.294 169.732V158.68H225.518V169.732C225.518 170.542 225.95 170.956 226.706 170.956C226.904 170.956 227.102 170.938 227.282 170.884V171.964ZM228.847 164.944C228.847 163.432 230.269 162.316 232.267 162.316C233.995 162.316 235.327 163.144 235.723 164.404L234.715 164.8C234.337 163.882 233.455 163.396 232.231 163.396C230.899 163.396 230.035 163.954 230.035 164.836C230.035 165.628 230.557 166.114 231.691 166.348L232.951 166.6C235.039 167.014 236.011 167.914 236.011 169.336C236.011 170.992 234.535 172.144 232.411 172.144C230.485 172.144 229.135 171.388 228.487 169.948L229.531 169.516C229.981 170.524 230.971 171.064 232.375 171.064C233.851 171.064 234.823 170.416 234.823 169.444C234.823 168.544 234.319 168.058 233.059 167.788L231.511 167.464C229.765 167.104 228.847 166.222 228.847 164.944ZM244.736 169.3L245.636 169.804C245.186 170.956 243.998 172.144 241.874 172.144C239.192 172.144 237.608 170.146 237.608 167.104C237.608 164.314 239.264 162.316 241.748 162.316C243.8 162.316 245.564 163.792 245.564 166.384L245.528 167.446H238.85C238.958 169.984 240.164 171.064 242 171.064C243.44 171.064 244.286 170.236 244.736 169.3ZM241.748 163.396C240.308 163.396 239.012 164.17 238.85 166.438H244.358C244.412 164.296 243.152 163.396 241.748 163.396ZM248.604 169.84C249.36 169.84 249.936 170.488 249.936 171.712C249.936 172.9 249.45 174.088 247.884 175.312L247.452 174.808C248.298 174.052 249.108 173.296 248.964 172.036C248.874 172.054 248.748 172.072 248.604 172.072C247.956 172.072 247.452 171.658 247.452 170.956C247.452 170.326 247.938 169.84 248.604 169.84ZM265.454 163.468H263.402V163.81C263.87 164.386 264.122 165.106 264.122 165.808C264.122 167.554 262.862 169.336 260.18 169.336H259.766C258.686 169.336 257.912 169.75 257.912 170.38C257.912 170.866 258.29 171.208 259.082 171.208H262.952C264.5 171.208 265.292 171.964 265.292 173.152C265.292 175.042 263.114 176.032 260.432 176.032C258.02 176.032 256.346 175.258 255.77 173.584L256.76 173.134C257.426 174.7 258.83 175.006 260.432 175.006C262.412 175.006 264.068 174.412 264.068 173.26C264.068 172.72 263.78 172.324 262.916 172.324H258.812C257.48 172.324 256.688 171.694 256.688 170.704C256.688 169.858 257.39 169.12 258.56 168.814C257.3 168.31 256.598 166.978 256.598 165.808C256.598 164.098 257.876 162.316 260.396 162.316C261.386 162.316 262.142 162.64 262.718 163.126V162.46H265.454V163.468ZM260.378 168.328C262.07 168.328 262.916 167.158 262.916 165.808C262.916 164.476 262.07 163.36 260.378 163.36C258.668 163.36 257.804 164.494 257.804 165.808C257.804 167.14 258.668 168.328 260.378 168.328ZM270.582 162.316C271.824 162.316 272.724 163.144 272.724 164.764V165.7L271.608 165.916V164.98C271.608 164.026 271.284 163.396 270.312 163.396C269.214 163.396 268.386 164.206 268.386 166.132V172H267.162V162.46H268.386V163.648C268.89 162.748 269.736 162.316 270.582 162.316ZM281.508 172H280.392C280.248 171.478 280.14 170.848 280.14 170.128C279.654 171.244 278.412 172.144 276.864 172.144C275.172 172.144 273.894 171.046 273.894 169.408C273.894 167.446 275.658 166.42 277.62 166.42C278.394 166.42 279.15 166.51 279.924 166.78V165.52C279.924 164.278 279.168 163.432 277.692 163.432C276.504 163.432 275.496 163.954 274.992 165.412L273.912 165.088C274.632 163.072 276.09 162.316 277.764 162.316C280.122 162.316 281.112 163.738 281.112 165.376V169.3C281.112 170.38 281.292 171.352 281.508 172ZM279.924 168.04V167.824C279.186 167.518 278.43 167.428 277.692 167.428C276.252 167.428 275.118 168.076 275.118 169.336C275.118 170.488 275.928 171.1 277.08 171.1C278.322 171.1 279.924 170.362 279.924 168.04ZM289.739 162.46H290.999L287.255 172H286.175L282.431 162.46H283.763L286.751 170.65L289.739 162.46ZM297.022 162.334C299.452 162.334 301.09 164.368 301.09 167.14C301.09 170.074 299.434 172.144 296.878 172.144C295.546 172.144 294.466 171.478 293.89 170.272V175.78H292.666V162.46H293.89V164.242C294.52 163.018 295.78 162.334 297.022 162.334ZM296.878 171.064C298.66 171.064 299.83 169.696 299.83 167.194C299.83 164.782 298.66 163.414 296.896 163.414C294.988 163.414 293.89 164.836 293.89 167.176C293.89 169.66 294.97 171.064 296.878 171.064ZM306.37 171.964C306.082 172.036 305.848 172.072 305.578 172.072C304.084 172.072 303.382 171.136 303.382 169.732V158.68H304.606V169.732C304.606 170.542 305.038 170.956 305.794 170.956C305.992 170.956 306.19 170.938 306.37 170.884V171.964ZM315.513 172H314.397C314.253 171.478 314.145 170.848 314.145 170.128C313.659 171.244 312.417 172.144 310.869 172.144C309.177 172.144 307.899 171.046 307.899 169.408C307.899 167.446 309.663 166.42 311.625 166.42C312.399 166.42 313.155 166.51 313.929 166.78V165.52C313.929 164.278 313.173 163.432 311.697 163.432C310.509 163.432 309.501 163.954 308.997 165.412L307.917 165.088C308.637 163.072 310.095 162.316 311.769 162.316C314.127 162.316 315.117 163.738 315.117 165.376V169.3C315.117 170.38 315.297 171.352 315.513 172ZM313.929 168.04V167.824C313.191 167.518 312.435 167.428 311.697 167.428C310.257 167.428 309.123 168.076 309.123 169.336C309.123 170.488 309.933 171.1 311.085 171.1C312.327 171.1 313.929 170.362 313.929 168.04ZM317.543 164.944C317.543 163.432 318.965 162.316 320.963 162.316C322.691 162.316 324.023 163.144 324.419 164.404L323.411 164.8C323.033 163.882 322.151 163.396 320.927 163.396C319.595 163.396 318.731 163.954 318.731 164.836C318.731 165.628 319.253 166.114 320.387 166.348L321.647 166.6C323.735 167.014 324.707 167.914 324.707 169.336C324.707 170.992 323.231 172.144 321.107 172.144C319.181 172.144 317.831 171.388 317.183 169.948L318.227 169.516C318.677 170.524 319.667 171.064 321.071 171.064C322.547 171.064 323.519 170.416 323.519 169.444C323.519 168.544 323.015 168.058 321.755 167.788L320.207 167.464C318.461 167.104 317.543 166.222 317.543 164.944ZM326.449 164.944C326.449 163.432 327.871 162.316 329.869 162.316C331.597 162.316 332.929 163.144 333.325 164.404L332.317 164.8C331.939 163.882 331.057 163.396 329.833 163.396C328.501 163.396 327.637 163.954 327.637 164.836C327.637 165.628 328.159 166.114 329.293 166.348L330.553 166.6C332.641 167.014 333.613 167.914 333.613 169.336C333.613 170.992 332.137 172.144 330.013 172.144C328.087 172.144 326.737 171.388 326.089 169.948L327.133 169.516C327.583 170.524 328.573 171.064 329.977 171.064C331.453 171.064 332.425 170.416 332.425 169.444C332.425 168.544 331.921 168.058 330.661 167.788L329.113 167.464C327.367 167.104 326.449 166.222 326.449 164.944ZM335.574 169.984H337.518V172H335.574V169.984Z" fill="#2A2859"/>
<path d="M556.25 103.25V101H557.75V103.25H560V104.75H557.75V107H556.25V104.75H554V103.25H556.25Z" fill="#2A2859"/>
<path fill-rule="evenodd" clip-rule="evenodd" d="M560.307 97.322L559.206 98.4238C561.427 99.3035 563 101.466 563 104C563 107.313 560.313 110 557 110C554.466 110 552.303 108.427 551.423 106.206L550.624 107.005L540.942 97.3228C539.69 96.0703 539 94.4052 539 92.633C539 90.8607 539.69 89.1957 540.942 87.9425C542.196 86.69 543.861 86 545.633 86C547.404 86 549.07 86.69 550.323 87.9425L550.625 88.2448L550.927 87.9425C552.18 86.69 553.846 86 555.617 86C557.389 86 559.055 86.69 560.307 87.9425C561.56 89.195 562.25 90.8608 562.25 92.6323C562.25 94.4037 561.56 96.0695 560.307 97.322ZM550.625 104.886L551.025 104.487C551.012 104.326 551 104.164 551 104C551 100.687 553.687 98 557 98C557.164 98 557.326 98.012 557.487 98.0247L559.248 96.2638C561.253 94.2583 561.253 91.0078 559.248 89.0023C558.245 87.9995 556.931 87.4985 555.617 87.4985C554.303 87.4985 552.989 87.9995 551.986 89.0023L550.625 90.3635L549.264 89.0023C548.261 87.9995 546.947 87.4985 545.633 87.4985C544.319 87.4985 543.005 87.9995 542.002 89.0023C539.997 91.0078 539.997 94.2583 542.002 96.2638L550.625 104.886ZM552.5 104C552.5 106.481 554.519 108.5 557 108.5C559.481 108.5 561.5 106.481 561.5 104C561.5 101.519 559.481 99.5 557 99.5C554.519 99.5 552.5 101.519 552.5 104Z" fill="#2A2859"/>
<path d="M581.38 90.2H583.72V105H581.38V98.68H575.08V105H572.74V90.2H575.08V96.42H581.38V90.2ZM594.153 101.66L595.673 102.54C595.073 103.86 593.673 105.18 591.253 105.18C588.113 105.18 586.213 102.86 586.213 99.6C586.213 96.38 588.273 94.16 591.093 94.16C593.593 94.16 595.653 95.84 595.653 98.84L595.613 100.16H588.413C588.533 102.4 589.633 103.36 591.393 103.36C592.693 103.36 593.593 102.66 594.153 101.66ZM591.093 95.92C589.733 95.92 588.593 96.64 588.413 98.56H593.473C593.493 96.68 592.333 95.92 591.093 95.92ZM602.476 104.94C602.056 105.06 601.636 105.12 601.196 105.12C599.176 105.12 598.216 103.92 598.216 101.98V90.2H600.456V101.82C600.456 102.74 600.996 103.16 601.816 103.16C602.016 103.16 602.236 103.14 602.476 103.08V104.94ZM604.077 97.32C604.077 95.52 605.737 94.16 608.237 94.16C610.297 94.16 611.677 94.9 612.417 96.32L610.857 97.28C610.377 96.46 609.417 95.96 608.217 95.96C607.017 95.96 606.197 96.42 606.197 97.18C606.197 97.8 606.617 98.18 607.557 98.36L609.337 98.72C611.577 99.16 612.697 100.22 612.697 101.84C612.697 103.84 610.957 105.18 608.337 105.18C606.117 105.18 604.537 104.34 603.717 102.8L605.277 101.82C605.857 102.8 606.877 103.36 608.277 103.36C609.637 103.36 610.557 102.82 610.557 101.94C610.557 101.22 610.117 100.82 609.137 100.62L607.177 100.24C605.177 99.86 604.077 98.84 604.077 97.32ZM622.088 101.66L623.608 102.54C623.008 103.86 621.608 105.18 619.188 105.18C616.048 105.18 614.148 102.86 614.148 99.6C614.148 96.38 616.208 94.16 619.028 94.16C621.528 94.16 623.588 95.84 623.588 98.84L623.548 100.16H616.348C616.468 102.4 617.568 103.36 619.328 103.36C620.628 103.36 621.528 102.66 622.088 101.66ZM619.028 95.92C617.668 95.92 616.528 96.64 616.348 98.56H621.408C621.428 96.68 620.268 95.92 619.028 95.92ZM635.428 105.2C632.668 105.2 630.408 103.04 630.408 99.64C630.408 96.32 632.648 94.16 635.428 94.16C638.208 94.16 640.448 96.32 640.448 99.64C640.448 103.04 638.188 105.2 635.428 105.2ZM635.428 103.3C636.928 103.3 638.148 102.14 638.148 99.64C638.148 97.12 636.908 96.06 635.428 96.06C633.948 96.06 632.708 97.12 632.708 99.64C632.708 102.14 633.948 103.3 635.428 103.3ZM652.63 96.14H650.41V96.38C650.77 96.88 650.95 97.46 650.95 98.06C650.95 99.98 649.47 101.9 646.39 101.9H645.87C644.79 101.9 644.09 102.26 644.09 102.9C644.09 103.34 644.43 103.66 645.11 103.66H649.53C651.35 103.66 652.39 104.6 652.39 106.04C652.39 108.22 650.17 109.48 646.63 109.48C643.53 109.48 641.45 108.7 640.91 106.64L643.09 106.22C643.59 107.5 644.75 107.84 646.69 107.84C648.77 107.84 650.25 107.28 650.25 106.3C650.25 105.84 649.99 105.5 649.27 105.5H644.45C642.79 105.5 641.93 104.6 641.93 103.48C641.93 102.4 642.89 101.54 644.21 101.28C642.75 100.64 642.03 99.28 642.03 98C642.03 96.1 643.57 94.16 646.51 94.16C647.81 94.16 648.83 94.62 649.43 95.28V94.4H652.63V96.14ZM646.51 100.28C648.05 100.28 648.77 99.2 648.77 98.04C648.77 96.88 648.05 95.82 646.51 95.82C644.99 95.82 644.25 96.88 644.25 98.04C644.25 99.2 644.99 100.28 646.51 100.28ZM663.676 105.2C660.916 105.2 658.656 103.04 658.656 99.64C658.656 96.32 660.896 94.16 663.676 94.16C666.456 94.16 668.696 96.32 668.696 99.64C668.696 103.04 666.436 105.2 663.676 105.2ZM663.676 103.3C665.176 103.3 666.396 102.14 666.396 99.64C666.396 97.12 665.156 96.06 663.676 96.06C662.196 96.06 660.956 97.12 660.956 99.64C660.956 102.14 662.196 103.3 663.676 103.3ZM682.749 94.16C684.869 94.16 686.089 95.54 686.089 97.76V105H683.849V98.14C683.849 96.74 683.189 96.1 682.029 96.1C680.469 96.1 679.689 97.18 679.689 99.26V105H677.449V98.14C677.449 96.74 676.789 96.1 675.629 96.1C674.089 96.1 673.309 97.18 673.309 99.26V105H671.069V94.4H673.309V95.9C674.029 94.76 675.069 94.16 676.349 94.16C677.969 94.16 679.029 94.94 679.489 96.26C680.209 94.86 681.329 94.16 682.749 94.16ZM688.61 97.32C688.61 95.52 690.27 94.16 692.77 94.16C694.83 94.16 696.21 94.9 696.95 96.32L695.39 97.28C694.91 96.46 693.95 95.96 692.75 95.96C691.55 95.96 690.73 96.42 690.73 97.18C690.73 97.8 691.15 98.18 692.09 98.36L693.87 98.72C696.11 99.16 697.23 100.22 697.23 101.84C697.23 103.84 695.49 105.18 692.87 105.18C690.65 105.18 689.07 104.34 688.25 102.8L689.81 101.82C690.39 102.8 691.41 103.36 692.81 103.36C694.17 103.36 695.09 102.82 695.09 101.94C695.09 101.22 694.65 100.82 693.67 100.62L691.71 100.24C689.71 99.86 688.61 98.84 688.61 97.32ZM703.701 105.2C700.941 105.2 698.681 103.04 698.681 99.64C698.681 96.32 700.921 94.16 703.701 94.16C706.481 94.16 708.721 96.32 708.721 99.64C708.721 103.04 706.461 105.2 703.701 105.2ZM703.701 103.3C705.201 103.3 706.421 102.14 706.421 99.64C706.421 97.12 705.181 96.06 703.701 96.06C702.221 96.06 700.981 97.12 700.981 99.64C700.981 102.14 702.221 103.3 703.701 103.3ZM715.954 94.16C717.494 94.16 718.494 95.18 718.494 97V98.4L716.694 98.72V97.64C716.694 96.68 716.354 96.02 715.314 96.02C714.174 96.02 713.334 96.78 713.334 98.8V105H711.094V94.4H713.334V95.82C713.934 94.64 715.034 94.16 715.954 94.16ZM730.332 96.14H728.112V96.38C728.472 96.88 728.652 97.46 728.652 98.06C728.652 99.98 727.172 101.9 724.092 101.9H723.572C722.492 101.9 721.792 102.26 721.792 102.9C721.792 103.34 722.132 103.66 722.812 103.66H727.232C729.052 103.66 730.092 104.6 730.092 106.04C730.092 108.22 727.872 109.48 724.332 109.48C721.232 109.48 719.152 108.7 718.612 106.64L720.792 106.22C721.292 107.5 722.452 107.84 724.392 107.84C726.472 107.84 727.952 107.28 727.952 106.3C727.952 105.84 727.692 105.5 726.972 105.5H722.152C720.492 105.5 719.632 104.6 719.632 103.48C719.632 102.4 720.592 101.54 721.912 101.28C720.452 100.64 719.732 99.28 719.732 98C719.732 96.1 721.272 94.16 724.212 94.16C725.512 94.16 726.532 94.62 727.132 95.28V94.4H730.332V96.14ZM724.212 100.28C725.752 100.28 726.472 99.2 726.472 98.04C726.472 96.88 725.752 95.82 724.212 95.82C722.692 95.82 721.952 96.88 721.952 98.04C721.952 99.2 722.692 100.28 724.212 100.28Z" fill="#2A2859"/>
<path d="M580.612 128.68H581.872V142H580.612V135.88H573.844V142H572.584V128.68H573.844V134.692H580.612V128.68ZM591.327 139.3L592.227 139.804C591.777 140.956 590.589 142.144 588.465 142.144C585.783 142.144 584.199 140.146 584.199 137.104C584.199 134.314 585.855 132.316 588.339 132.316C590.391 132.316 592.155 133.792 592.155 136.384L592.119 137.446H585.441C585.549 139.984 586.755 141.064 588.591 141.064C590.031 141.064 590.877 140.236 591.327 139.3ZM588.339 133.396C586.899 133.396 585.603 134.17 585.441 136.438H590.949C591.003 134.296 589.743 133.396 588.339 133.396ZM597.531 141.964C597.243 142.036 597.009 142.072 596.739 142.072C595.245 142.072 594.543 141.136 594.543 139.732V128.68H595.767V139.732C595.767 140.542 596.199 140.956 596.955 140.956C597.153 140.956 597.351 140.938 597.531 140.884V141.964ZM599.095 134.944C599.095 133.432 600.517 132.316 602.515 132.316C604.243 132.316 605.575 133.144 605.971 134.404L604.963 134.8C604.585 133.882 603.703 133.396 602.479 133.396C601.147 133.396 600.283 133.954 600.283 134.836C600.283 135.628 600.805 136.114 601.939 136.348L603.199 136.6C605.287 137.014 606.259 137.914 606.259 139.336C606.259 140.992 604.783 142.144 602.659 142.144C600.733 142.144 599.383 141.388 598.735 139.948L599.779 139.516C600.229 140.524 601.219 141.064 602.623 141.064C604.099 141.064 605.071 140.416 605.071 139.444C605.071 138.544 604.567 138.058 603.307 137.788L601.759 137.464C600.013 137.104 599.095 136.222 599.095 134.944ZM614.985 139.3L615.885 139.804C615.435 140.956 614.247 142.144 612.123 142.144C609.441 142.144 607.857 140.146 607.857 137.104C607.857 134.314 609.513 132.316 611.997 132.316C614.049 132.316 615.813 133.792 615.813 136.384L615.777 137.446H609.099C609.207 139.984 610.413 141.064 612.249 141.064C613.689 141.064 614.535 140.236 614.985 139.3ZM611.997 133.396C610.557 133.396 609.261 134.17 609.099 136.438H614.607C614.661 134.296 613.401 133.396 611.997 133.396ZM622.232 132.316C624.14 132.316 625.256 133.486 625.256 135.628V142H624.032V135.808C624.032 134.08 623.24 133.432 621.908 133.432C620.234 133.432 619.46 134.728 619.46 136.636V142H618.236V128.68H619.46V133.936C620.036 132.892 621.08 132.316 622.232 132.316ZM628.542 130.732C627.948 130.732 627.462 130.264 627.462 129.652C627.462 129.04 627.948 128.572 628.542 128.572C629.136 128.572 629.622 129.04 629.622 129.652C629.622 130.264 629.136 130.732 628.542 130.732ZM627.102 145.906C626.778 145.906 626.472 145.852 626.166 145.762L626.274 144.682C626.526 144.772 626.76 144.79 626.922 144.79C627.768 144.79 627.93 144.214 627.93 143.386V132.46H629.154V143.458C629.154 145.078 628.452 145.906 627.102 145.906ZM638.572 139.3L639.472 139.804C639.022 140.956 637.834 142.144 635.71 142.144C633.028 142.144 631.444 140.146 631.444 137.104C631.444 134.314 633.1 132.316 635.584 132.316C637.636 132.316 639.4 133.792 639.4 136.384L639.364 137.446H632.686C632.794 139.984 634 141.064 635.836 141.064C637.276 141.064 638.122 140.236 638.572 139.3ZM635.584 133.396C634.144 133.396 632.848 134.17 632.686 136.438H638.194C638.248 134.296 636.988 133.396 635.584 133.396ZM644.776 141.964C644.488 142.036 644.254 142.072 643.984 142.072C642.49 142.072 641.788 141.136 641.788 139.732V128.68H643.012V139.732C643.012 140.542 643.444 140.956 644.2 140.956C644.398 140.956 644.596 140.938 644.776 140.884V141.964ZM651.165 132.334C653.595 132.334 655.233 134.368 655.233 137.14C655.233 140.074 653.577 142.144 651.021 142.144C649.689 142.144 648.609 141.478 648.033 140.272V145.78H646.809V132.46H648.033V134.242C648.663 133.018 649.923 132.334 651.165 132.334ZM651.021 141.064C652.803 141.064 653.973 139.696 653.973 137.194C653.973 134.782 652.803 133.414 651.039 133.414C649.131 133.414 648.033 134.836 648.033 137.176C648.033 139.66 649.113 141.064 651.021 141.064ZM658.001 139.84C658.757 139.84 659.333 140.488 659.333 141.712C659.333 142.9 658.847 144.088 657.281 145.312L656.849 144.808C657.695 144.052 658.505 143.296 658.361 142.036C658.271 142.054 658.145 142.072 658.001 142.072C657.353 142.072 656.849 141.658 656.849 140.956C656.849 140.326 657.335 139.84 658.001 139.84ZM672.223 142L668.713 137.266L667.543 138.382V142H666.319V128.68H667.543V136.942L672.079 132.46H673.699L669.541 136.456L673.771 142H672.223ZM678.543 142.144C676.185 142.144 674.295 140.2 674.295 137.212C674.295 134.26 676.167 132.316 678.543 132.316C680.919 132.316 682.791 134.26 682.791 137.212C682.791 140.2 680.901 142.144 678.543 142.144ZM678.543 141.064C680.181 141.064 681.531 139.768 681.531 137.212C681.531 134.674 680.163 133.396 678.543 133.396C676.923 133.396 675.555 134.674 675.555 137.212C675.555 139.768 676.905 141.064 678.543 141.064ZM688.498 132.316C689.74 132.316 690.64 133.144 690.64 134.764V135.7L689.524 135.916V134.98C689.524 134.026 689.2 133.396 688.228 133.396C687.13 133.396 686.302 134.206 686.302 136.132V142H685.078V132.46H686.302V133.648C686.806 132.748 687.652 132.316 688.498 132.316ZM695.95 142.144C693.592 142.144 691.702 140.2 691.702 137.212C691.702 134.26 693.574 132.316 695.95 132.316C698.326 132.316 700.198 134.26 700.198 137.212C700.198 140.2 698.308 142.144 695.95 142.144ZM695.95 141.064C697.588 141.064 698.938 139.768 698.938 137.212C698.938 134.674 697.57 133.396 695.95 133.396C694.33 133.396 692.962 134.674 692.962 137.212C692.962 139.768 694.312 141.064 695.95 141.064ZM706.481 132.316C708.389 132.316 709.505 133.486 709.505 135.628V142H708.281V135.808C708.281 134.08 707.489 133.432 706.157 133.432C704.483 133.432 703.709 134.728 703.709 136.636V142H702.485V132.46H703.709V133.936C704.285 132.892 705.329 132.316 706.481 132.316ZM719.362 142H718.246C718.102 141.478 717.994 140.848 717.994 140.128C717.508 141.244 716.266 142.144 714.718 142.144C713.026 142.144 711.748 141.046 711.748 139.408C711.748 137.446 713.512 136.42 715.474 136.42C716.248 136.42 717.004 136.51 717.778 136.78V135.52C717.778 134.278 717.022 133.432 715.546 133.432C714.358 133.432 713.35 133.954 712.846 135.412L711.766 135.088C712.486 133.072 713.944 132.316 715.618 132.316C717.976 132.316 718.966 133.738 718.966 135.376V139.3C718.966 140.38 719.146 141.352 719.362 142ZM717.778 138.04V137.824C717.04 137.518 716.284 137.428 715.546 137.428C714.106 137.428 712.972 138.076 712.972 139.336C712.972 140.488 713.782 141.1 714.934 141.1C716.176 141.1 717.778 140.362 717.778 138.04ZM727.593 132.46H728.853L725.109 142H724.029L720.285 132.46H721.617L724.605 140.65L727.593 132.46ZM730.195 128.752H732.067V130.588H730.195V128.752ZM730.519 142V132.46H731.743V142H730.519ZM738.064 132.316C739.306 132.316 740.206 133.144 740.206 134.764V135.7L739.09 135.916V134.98C739.09 134.026 738.766 133.396 737.794 133.396C736.696 133.396 735.868 134.206 735.868 136.132V142H734.644V132.46H735.868V133.648C736.372 132.748 737.218 132.316 738.064 132.316ZM747.792 132.46H749.016V142H747.792V140.542C747.216 141.568 746.208 142.144 745.038 142.144C743.166 142.144 742.032 140.938 742.032 138.868V132.46H743.256V138.76C743.256 140.326 744.048 141.046 745.38 141.046C747.072 141.046 747.792 139.696 747.792 137.824V132.46ZM751.371 134.944C751.371 133.432 752.793 132.316 754.791 132.316C756.519 132.316 757.851 133.144 758.247 134.404L757.239 134.8C756.861 133.882 755.979 133.396 754.755 133.396C753.423 133.396 752.559 133.954 752.559 134.836C752.559 135.628 753.081 136.114 754.215 136.348L755.475 136.6C757.563 137.014 758.535 137.914 758.535 139.336C758.535 140.992 757.059 142.144 754.935 142.144C753.009 142.144 751.659 141.388 751.011 139.948L752.055 139.516C752.505 140.524 753.495 141.064 754.899 141.064C756.375 141.064 757.347 140.416 757.347 139.444C757.347 138.544 756.843 138.058 755.583 137.788L754.035 137.464C752.289 137.104 751.371 136.222 751.371 134.944ZM761.397 139.84C762.153 139.84 762.729 140.488 762.729 141.712C762.729 142.9 762.243 144.088 760.677 145.312L760.245 144.808C761.091 144.052 761.901 143.296 761.757 142.036C761.667 142.054 761.541 142.072 761.397 142.072C760.749 142.072 760.245 141.658 760.245 140.956C760.245 140.326 760.731 139.84 761.397 139.84ZM774.071 132.334C776.501 132.334 778.139 134.368 778.139 137.14C778.139 140.074 776.483 142.144 773.927 142.144C772.595 142.144 771.515 141.478 770.939 140.272V142H769.715V128.68H770.939V134.242C771.569 133.018 772.829 132.334 774.071 132.334ZM773.927 141.064C775.709 141.064 776.879 139.696 776.879 137.194C776.879 134.782 775.709 133.414 773.945 133.414C772.037 133.414 770.939 134.836 770.939 137.176C770.939 139.66 772.019 141.064 773.927 141.064ZM787.54 142H786.424C786.28 141.478 786.172 140.848 786.172 140.128C785.686 141.244 784.444 142.144 782.896 142.144C781.204 142.144 779.926 141.046 779.926 139.408C779.926 137.446 781.69 136.42 783.652 136.42C784.426 136.42 785.182 136.51 785.956 136.78V135.52C785.956 134.278 785.2 133.432 783.724 133.432C782.536 133.432 781.528 133.954 781.024 135.412L779.944 135.088C780.664 133.072 782.122 132.316 783.796 132.316C786.154 132.316 787.144 133.738 787.144 135.376V139.3C787.144 140.38 787.324 141.352 787.54 142ZM785.956 138.04V137.824C785.218 137.518 784.462 137.428 783.724 137.428C782.284 137.428 781.15 138.076 781.15 139.336C781.15 140.488 781.96 141.1 783.112 141.1C784.354 141.1 785.956 140.362 785.956 138.04ZM793.459 132.316C794.701 132.316 795.601 133.144 795.601 134.764V135.7L794.485 135.916V134.98C794.485 134.026 794.161 133.396 793.189 133.396C792.091 133.396 791.263 134.206 791.263 136.132V142H790.039V132.46H791.263V133.648C791.767 132.748 792.613 132.316 793.459 132.316ZM801.815 132.316C803.723 132.316 804.839 133.486 804.839 135.628V142H803.615V135.808C803.615 134.08 802.823 133.432 801.491 133.432C799.817 133.432 799.043 134.728 799.043 136.636V142H797.819V132.46H799.043V133.936C799.619 132.892 800.663 132.316 801.815 132.316ZM814.102 139.3L815.002 139.804C814.552 140.956 813.364 142.144 811.24 142.144C808.558 142.144 806.974 140.146 806.974 137.104C806.974 134.314 808.63 132.316 811.114 132.316C813.166 132.316 814.93 133.792 814.93 136.384L814.894 137.446H808.216C808.324 139.984 809.53 141.064 811.366 141.064C812.806 141.064 813.652 140.236 814.102 139.3ZM811.114 133.396C809.674 133.396 808.378 134.17 808.216 136.438H813.724C813.778 134.296 812.518 133.396 811.114 133.396ZM823.226 132.46H824.486L820.742 142H819.662L815.918 132.46H817.25L820.238 140.65L823.226 132.46ZM832.317 139.3L833.217 139.804C832.767 140.956 831.579 142.144 829.455 142.144C826.773 142.144 825.189 140.146 825.189 137.104C825.189 134.314 826.845 132.316 829.329 132.316C831.381 132.316 833.145 133.792 833.145 136.384L833.109 137.446H826.431C826.539 139.984 827.745 141.064 829.581 141.064C831.021 141.064 831.867 140.236 832.317 139.3ZM829.329 133.396C827.889 133.396 826.593 134.17 826.431 136.438H831.939C831.993 134.296 830.733 133.396 829.329 133.396ZM838.953 132.316C840.195 132.316 841.095 133.144 841.095 134.764V135.7L839.979 135.916V134.98C839.979 134.026 839.655 133.396 838.683 133.396C837.585 133.396 836.757 134.206 836.757 136.132V142H835.533V132.46H836.757V133.648C837.261 132.748 838.107 132.316 838.953 132.316ZM847.309 132.316C849.217 132.316 850.333 133.486 850.333 135.628V142H849.109V135.808C849.109 134.08 848.317 133.432 846.985 133.432C845.311 133.432 844.537 134.728 844.537 136.636V142H843.313V132.46H844.537V133.936C845.113 132.892 846.157 132.316 847.309 132.316ZM853.908 139.84C854.664 139.84 855.24 140.488 855.24 141.712C855.24 142.9 854.754 144.088 853.188 145.312L852.756 144.808C853.602 144.052 854.412 143.296 854.268 142.036C854.178 142.054 854.052 142.072 853.908 142.072C853.26 142.072 852.756 141.658 852.756 140.956C852.756 140.326 853.242 139.84 853.908 139.84ZM576.904 160.334C579.334 160.334 580.972 162.368 580.972 165.14C580.972 168.074 579.316 170.144 576.76 170.144C575.428 170.144 574.348 169.478 573.772 168.272V173.78H572.548V160.46H573.772V162.242C574.402 161.018 575.662 160.334 576.904 160.334ZM576.76 169.064C578.542 169.064 579.712 167.696 579.712 165.194C579.712 162.782 578.542 161.414 576.778 161.414C574.87 161.414 573.772 162.836 573.772 165.176C573.772 167.66 574.852 169.064 576.76 169.064ZM582.796 162.944C582.796 161.432 584.218 160.316 586.216 160.316C587.944 160.316 589.276 161.144 589.672 162.404L588.664 162.8C588.286 161.882 587.404 161.396 586.18 161.396C584.848 161.396 583.984 161.954 583.984 162.836C583.984 163.628 584.506 164.114 585.64 164.348L586.9 164.6C588.988 165.014 589.96 165.914 589.96 167.336C589.96 168.992 588.484 170.144 586.36 170.144C584.434 170.144 583.084 169.388 582.436 167.948L583.48 167.516C583.93 168.524 584.92 169.064 586.324 169.064C587.8 169.064 588.772 168.416 588.772 167.444C588.772 166.544 588.268 166.058 587.008 165.788L585.46 165.464C583.714 165.104 582.796 164.222 582.796 162.944ZM597.767 160.46H599.027L594.833 171.314C594.203 172.934 593.501 173.96 592.025 173.96C591.377 173.96 590.783 173.726 590.333 173.312L590.873 172.43C591.233 172.754 591.575 172.898 591.989 172.898C592.655 172.898 593.123 172.61 593.591 171.512L594.149 170.162L590.567 160.46H591.899L594.779 168.722L597.767 160.46ZM606.751 170L603.241 165.266L602.071 166.382V170H600.847V156.68H602.071V164.942L606.607 160.46H608.227L604.069 164.456L608.299 170H606.751ZM610.592 158.732C609.998 158.732 609.512 158.264 609.512 157.652C609.512 157.04 609.998 156.572 610.592 156.572C611.186 156.572 611.672 157.04 611.672 157.652C611.672 158.264 611.186 158.732 610.592 158.732ZM609.98 170V160.46H611.204V170H609.98ZM613.637 162.944C613.637 161.432 615.059 160.316 617.057 160.316C618.785 160.316 620.117 161.144 620.513 162.404L619.505 162.8C619.127 161.882 618.245 161.396 617.021 161.396C615.689 161.396 614.825 161.954 614.825 162.836C614.825 163.628 615.347 164.114 616.481 164.348L617.741 164.6C619.829 165.014 620.801 165.914 620.801 167.336C620.801 168.992 619.325 170.144 617.201 170.144C615.275 170.144 613.925 169.388 613.277 167.948L614.321 167.516C614.771 168.524 615.761 169.064 617.165 169.064C618.641 169.064 619.613 168.416 619.613 167.444C619.613 166.544 619.109 166.058 617.849 165.788L616.301 165.464C614.555 165.104 613.637 164.222 613.637 162.944ZM628.95 170L625.44 165.266L624.27 166.382V170H623.046V156.68H624.27V164.942L628.806 160.46H630.426L626.268 164.456L630.498 170H628.95ZM640.793 160.316C642.701 160.316 643.817 161.486 643.817 163.628V170H642.593V163.808C642.593 162.08 641.801 161.432 640.469 161.432C638.795 161.432 638.021 162.728 638.021 164.636V170H636.797V156.68H638.021V161.936C638.597 160.892 639.641 160.316 640.793 160.316ZM653.078 167.3L653.978 167.804C653.528 168.956 652.34 170.144 650.216 170.144C647.534 170.144 645.95 168.146 645.95 165.104C645.95 162.314 647.606 160.316 650.09 160.316C652.142 160.316 653.906 161.792 653.906 164.384L653.87 165.446H647.192C647.3 167.984 648.506 169.064 650.342 169.064C651.782 169.064 652.628 168.236 653.078 167.3ZM650.09 161.396C648.65 161.396 647.354 162.17 647.192 164.438H652.7C652.754 162.296 651.494 161.396 650.09 161.396ZM659.282 169.964C658.994 170.036 658.76 170.072 658.49 170.072C656.996 170.072 656.294 169.136 656.294 167.732V156.68H657.518V167.732C657.518 168.542 657.95 168.956 658.706 168.956C658.904 168.956 659.102 168.938 659.282 168.884V169.964ZM660.847 162.944C660.847 161.432 662.269 160.316 664.267 160.316C665.995 160.316 667.327 161.144 667.723 162.404L666.715 162.8C666.337 161.882 665.455 161.396 664.231 161.396C662.899 161.396 662.035 161.954 662.035 162.836C662.035 163.628 662.557 164.114 663.691 164.348L664.951 164.6C667.039 165.014 668.011 165.914 668.011 167.336C668.011 168.992 666.535 170.144 664.411 170.144C662.485 170.144 661.135 169.388 660.487 167.948L661.531 167.516C661.981 168.524 662.971 169.064 664.375 169.064C665.851 169.064 666.823 168.416 666.823 167.444C666.823 166.544 666.319 166.058 665.059 165.788L663.511 165.464C661.765 165.104 660.847 164.222 660.847 162.944ZM676.736 167.3L677.636 167.804C677.186 168.956 675.998 170.144 673.874 170.144C671.192 170.144 669.608 168.146 669.608 165.104C669.608 162.314 671.264 160.316 673.748 160.316C675.8 160.316 677.564 161.792 677.564 164.384L677.528 165.446H670.85C670.958 167.984 672.164 169.064 674 169.064C675.44 169.064 676.286 168.236 676.736 167.3ZM673.748 161.396C672.308 161.396 671.012 162.17 670.85 164.438H676.358C676.412 162.296 675.152 161.396 673.748 161.396ZM680.604 167.84C681.36 167.84 681.936 168.488 681.936 169.712C681.936 170.9 681.45 172.088 679.884 173.312L679.452 172.808C680.298 172.052 681.108 171.296 680.964 170.036C680.874 170.054 680.748 170.072 680.604 170.072C679.956 170.072 679.452 169.658 679.452 168.956C679.452 168.326 679.938 167.84 680.604 167.84ZM697.454 161.468H695.402V161.81C695.87 162.386 696.122 163.106 696.122 163.808C696.122 165.554 694.862 167.336 692.18 167.336H691.766C690.686 167.336 689.912 167.75 689.912 168.38C689.912 168.866 690.29 169.208 691.082 169.208H694.952C696.5 169.208 697.292 169.964 697.292 171.152C697.292 173.042 695.114 174.032 692.432 174.032C690.02 174.032 688.346 173.258 687.77 171.584L688.76 171.134C689.426 172.7 690.83 173.006 692.432 173.006C694.412 173.006 696.068 172.412 696.068 171.26C696.068 170.72 695.78 170.324 694.916 170.324H690.812C689.48 170.324 688.688 169.694 688.688 168.704C688.688 167.858 689.39 167.12 690.56 166.814C689.3 166.31 688.598 164.978 688.598 163.808C688.598 162.098 689.876 160.316 692.396 160.316C693.386 160.316 694.142 160.64 694.718 161.126V160.46H697.454V161.468ZM692.378 166.328C694.07 166.328 694.916 165.158 694.916 163.808C694.916 162.476 694.07 161.36 692.378 161.36C690.668 161.36 689.804 162.494 689.804 163.808C689.804 165.14 690.668 166.328 692.378 166.328ZM702.582 160.316C703.824 160.316 704.724 161.144 704.724 162.764V163.7L703.608 163.916V162.98C703.608 162.026 703.284 161.396 702.312 161.396C701.214 161.396 700.386 162.206 700.386 164.132V170H699.162V160.46H700.386V161.648C700.89 160.748 701.736 160.316 702.582 160.316ZM713.508 170H712.392C712.248 169.478 712.14 168.848 712.14 168.128C711.654 169.244 710.412 170.144 708.864 170.144C707.172 170.144 705.894 169.046 705.894 167.408C705.894 165.446 707.658 164.42 709.62 164.42C710.394 164.42 711.15 164.51 711.924 164.78V163.52C711.924 162.278 711.168 161.432 709.692 161.432C708.504 161.432 707.496 161.954 706.992 163.412L705.912 163.088C706.632 161.072 708.09 160.316 709.764 160.316C712.122 160.316 713.112 161.738 713.112 163.376V167.3C713.112 168.38 713.292 169.352 713.508 170ZM711.924 166.04V165.824C711.186 165.518 710.43 165.428 709.692 165.428C708.252 165.428 707.118 166.076 707.118 167.336C707.118 168.488 707.928 169.1 709.08 169.1C710.322 169.1 711.924 168.362 711.924 166.04ZM721.739 160.46H722.999L719.255 170H718.175L714.431 160.46H715.763L718.751 168.65L721.739 160.46ZM729.022 160.334C731.452 160.334 733.09 162.368 733.09 165.14C733.09 168.074 731.434 170.144 728.878 170.144C727.546 170.144 726.466 169.478 725.89 168.272V173.78H724.666V160.46H725.89V162.242C726.52 161.018 727.78 160.334 729.022 160.334ZM728.878 169.064C730.66 169.064 731.83 167.696 731.83 165.194C731.83 162.782 730.66 161.414 728.896 161.414C726.988 161.414 725.89 162.836 725.89 165.176C725.89 167.66 726.97 169.064 728.878 169.064ZM738.37 169.964C738.082 170.036 737.848 170.072 737.578 170.072C736.084 170.072 735.382 169.136 735.382 167.732V156.68H736.606V167.732C736.606 168.542 737.038 168.956 737.794 168.956C737.992 168.956 738.19 168.938 738.37 168.884V169.964ZM747.513 170H746.397C746.253 169.478 746.145 168.848 746.145 168.128C745.659 169.244 744.417 170.144 742.869 170.144C741.177 170.144 739.899 169.046 739.899 167.408C739.899 165.446 741.663 164.42 743.625 164.42C744.399 164.42 745.155 164.51 745.929 164.78V163.52C745.929 162.278 745.173 161.432 743.697 161.432C742.509 161.432 741.501 161.954 740.997 163.412L739.917 163.088C740.637 161.072 742.095 160.316 743.769 160.316C746.127 160.316 747.117 161.738 747.117 163.376V167.3C747.117 168.38 747.297 169.352 747.513 170ZM745.929 166.04V165.824C745.191 165.518 744.435 165.428 743.697 165.428C742.257 165.428 741.123 166.076 741.123 167.336C741.123 168.488 741.933 169.1 743.085 169.1C744.327 169.1 745.929 168.362 745.929 166.04ZM749.543 162.944C749.543 161.432 750.965 160.316 752.963 160.316C754.691 160.316 756.023 161.144 756.419 162.404L755.411 162.8C755.033 161.882 754.151 161.396 752.927 161.396C751.595 161.396 750.731 161.954 750.731 162.836C750.731 163.628 751.253 164.114 752.387 164.348L753.647 164.6C755.735 165.014 756.707 165.914 756.707 167.336C756.707 168.992 755.231 170.144 753.107 170.144C751.181 170.144 749.831 169.388 749.183 167.948L750.227 167.516C750.677 168.524 751.667 169.064 753.071 169.064C754.547 169.064 755.519 168.416 755.519 167.444C755.519 166.544 755.015 166.058 753.755 165.788L752.207 165.464C750.461 165.104 749.543 164.222 749.543 162.944ZM758.449 162.944C758.449 161.432 759.871 160.316 761.869 160.316C763.597 160.316 764.929 161.144 765.325 162.404L764.317 162.8C763.939 161.882 763.057 161.396 761.833 161.396C760.501 161.396 759.637 161.954 759.637 162.836C759.637 163.628 760.159 164.114 761.293 164.348L762.553 164.6C764.641 165.014 765.613 165.914 765.613 167.336C765.613 168.992 764.137 170.144 762.013 170.144C760.087 170.144 758.737 169.388 758.089 167.948L759.133 167.516C759.583 168.524 760.573 169.064 761.977 169.064C763.453 169.064 764.425 168.416 764.425 167.444C764.425 166.544 763.921 166.058 762.661 165.788L761.113 165.464C759.367 165.104 758.449 164.222 758.449 162.944ZM767.574 167.984H769.518V170H767.574V167.984Z" fill="#2A2859"/>
</svg>
