<svg width="699" height="210" viewBox="0 0 699 210" fill="none" xmlns="http://www.w3.org/2000/svg">
<g clip-path="url(#clip0_4799_152451)">
<rect width="699" height="210" fill="white"/>
<rect width="699" height="210" fill="white"/>
<path fill-rule="evenodd" clip-rule="evenodd" d="M202 50C202 46.134 198.866 43 195 43C191.134 43 188 46.134 188 50C188 53.526 190.609 56.434 194 56.92V75H196V62.914L199.207 59.707L197.793 58.293L196 60.086V56.92C199.391 56.434 202 53.526 202 50ZM190 50C190 47.243 192.243 45 195 45C197.757 45 200 47.243 200 50C200 52.757 197.757 55 195 55C192.243 55 190 52.757 190 50Z" fill="#2A2859"/>
<path fill-rule="evenodd" clip-rule="evenodd" d="M170 64V62H192V64H189V65H192V67H189V68H187V67H175V68H173V67H170V65H173V64H170ZM175 65H187V64H175V65Z" fill="#2A2859"/>
<path d="M192 69H170V71H192V69Z" fill="#2A2859"/>
<path d="M173 75V72H175V75H173Z" fill="#2A2859"/>
<path d="M187 72V75H189V72H187Z" fill="#2A2859"/>
<path d="M177.503 51L177.199 50.602C176.435 49.586 175.269 49.004 174 49.003V47.003C175.503 47.004 176.911 47.549 178 48.528C179.089 47.548 180.496 47.003 181.999 47.003L182 49.003C180.731 49.004 179.565 49.586 178.801 50.601L178.501 51H177.503Z" fill="#2A2859"/>
<path d="M223.08 50.24V62.744L214.752 50.24H212.088V68H214.776V55.256L223.32 68H225.768V50.24H223.08ZM239.851 68C239.539 67.184 239.299 65.84 239.299 64.328V59.408C239.299 56.984 237.763 54.992 234.379 54.992C232.099 54.992 229.915 56.072 229.003 58.76L231.283 59.456C231.763 57.968 232.795 57.176 234.259 57.176C235.819 57.176 236.683 58.064 236.683 59.432V60.632C235.795 60.392 234.979 60.32 234.115 60.32C231.379 60.32 228.931 61.688 228.931 64.448C228.931 66.656 230.563 68.216 232.867 68.216C235.075 68.216 236.419 66.92 237.019 65.6C237.067 66.584 237.187 67.352 237.379 68H239.851ZM236.683 62.744C236.683 65.36 234.979 66.128 233.683 66.128C232.411 66.128 231.571 65.384 231.571 64.208C231.571 62.816 232.795 62.096 234.379 62.096C235.171 62.096 235.915 62.192 236.683 62.456V62.744ZM246.363 64.064V57.368H250.851V55.28H246.363V51.224L243.675 52.448V55.28H241.443V57.368H243.675V64.232C243.675 66.872 245.475 68.216 247.683 68.216C249.051 68.216 250.107 67.76 251.067 66.8L249.915 65.072C249.363 65.624 248.811 65.912 248.115 65.912C247.227 65.912 246.363 65.48 246.363 64.064ZM260.739 55.28V62.096C260.739 64.568 259.803 65.912 257.931 65.912C256.467 65.912 255.651 65.024 255.651 63.368V55.28H252.963V63.776C252.963 66.536 254.475 68.216 257.091 68.216C258.651 68.216 259.923 67.52 260.739 66.128V68H263.427V55.28H260.739ZM272.874 54.992C271.77 54.992 270.45 55.568 269.73 56.984V55.28H267.042V68H269.73V60.56C269.73 58.136 270.738 57.224 272.106 57.224C273.354 57.224 273.762 58.016 273.762 59.168V60.464L275.922 60.08V58.4C275.922 56.216 274.722 54.992 272.874 54.992ZM276.702 64.232C275.55 64.232 274.686 65.024 274.686 66.152C274.686 67.352 275.598 68.072 276.63 68.072C276.822 68.072 276.99 68.048 277.134 68.024C277.23 69.68 276.318 70.808 274.926 71.84L275.646 72.752C277.95 71.096 278.91 69.224 278.91 67.184C278.91 65.24 277.974 64.232 276.702 64.232ZM296.279 68H299.495L294.191 60.416L299.399 55.28H296.087L290.951 60.56V50.24H288.263V68H290.951V63.608L292.415 62.168L296.279 68ZM308.7 55.28V62.096C308.7 64.568 307.764 65.912 305.892 65.912C304.428 65.912 303.612 65.024 303.612 63.368V55.28H300.924V63.776C300.924 66.536 302.436 68.216 305.052 68.216C306.612 68.216 307.884 67.52 308.7 66.128V68H311.388V55.28H308.7ZM320.115 67.928V65.696C319.827 65.768 319.563 65.792 319.323 65.792C318.339 65.792 317.691 65.288 317.691 64.184V50.24H315.003V64.376C315.003 66.704 316.155 68.144 318.579 68.144C319.107 68.144 319.611 68.072 320.115 67.928ZM326.255 64.064V57.368H330.743V55.28H326.255V51.224L323.567 52.448V55.28H321.335V57.368H323.567V64.232C323.567 66.872 325.367 68.216 327.575 68.216C328.943 68.216 329.999 67.76 330.959 66.8L329.807 65.072C329.255 65.624 328.703 65.912 328.007 65.912C327.119 65.912 326.255 65.48 326.255 64.064ZM340.631 55.28V62.096C340.631 64.568 339.695 65.912 337.823 65.912C336.359 65.912 335.543 65.024 335.543 63.368V55.28H332.855V63.776C332.855 66.536 334.367 68.216 336.983 68.216C338.543 68.216 339.815 67.52 340.631 66.128V68H343.319V55.28H340.631ZM352.767 54.992C351.663 54.992 350.343 55.568 349.623 56.984V55.28H346.935V68H349.623V60.56C349.623 58.136 350.631 57.224 351.999 57.224C353.247 57.224 353.655 58.016 353.655 59.168V60.464L355.815 60.08V58.4C355.815 56.216 354.615 54.992 352.767 54.992ZM369.884 68.24C373.196 68.24 375.908 65.648 375.908 61.568C375.908 57.584 373.22 54.992 369.884 54.992C366.548 54.992 363.86 57.584 363.86 61.568C363.86 65.648 366.572 68.24 369.884 68.24ZM369.884 65.96C368.108 65.96 366.62 64.568 366.62 61.568C366.62 58.544 368.108 57.272 369.884 57.272C371.66 57.272 373.148 58.544 373.148 61.568C373.148 64.568 371.684 65.96 369.884 65.96ZM390.566 57.368V55.28H386.726V56.336C386.006 55.544 384.782 54.992 383.222 54.992C379.694 54.992 377.846 57.32 377.846 59.6C377.846 61.136 378.71 62.768 380.462 63.536C378.878 63.848 377.726 64.88 377.726 66.176C377.726 67.52 378.758 68.6 380.75 68.6H386.534C387.398 68.6 387.71 69.008 387.71 69.56C387.71 70.736 385.934 71.408 383.438 71.408C381.11 71.408 379.718 71 379.118 69.464L376.502 69.968C377.15 72.44 379.646 73.376 383.366 73.376C387.614 73.376 390.278 71.864 390.278 69.248C390.278 67.52 389.03 66.392 386.846 66.392H381.542C380.726 66.392 380.318 66.008 380.318 65.48C380.318 64.712 381.158 64.28 382.454 64.28H383.078C386.774 64.28 388.55 61.976 388.55 59.672C388.55 58.952 388.334 58.256 387.902 57.656V57.368H390.566ZM383.222 62.336C381.398 62.336 380.51 61.04 380.51 59.648C380.51 58.256 381.398 56.984 383.222 56.984C385.07 56.984 385.934 58.256 385.934 59.648C385.934 61.04 385.07 62.336 383.222 62.336ZM402.269 54.128C402.269 52.808 403.085 52.232 404.069 52.232C404.693 52.232 405.269 52.52 405.653 53L406.925 51.224C406.229 50.36 405.053 49.88 403.877 49.88C401.381 49.88 399.581 51.488 399.581 54.248V55.28H397.349V57.368H399.581V68H402.269V57.368H405.845V55.28H402.269V54.128ZM413.887 54.992C412.783 54.992 411.463 55.568 410.743 56.984V55.28H408.055V68H410.743V60.56C410.743 58.136 411.751 57.224 413.119 57.224C414.367 57.224 414.775 58.016 414.775 59.168V60.464L416.935 60.08V58.4C416.935 56.216 415.735 54.992 413.887 54.992ZM421.035 53.168C422.091 53.168 422.907 52.352 422.907 51.272C422.907 50.192 422.091 49.376 421.035 49.376C419.979 49.376 419.139 50.192 419.139 51.272C419.139 52.352 419.979 53.168 421.035 53.168ZM419.691 68H422.379V55.28H419.691V68ZM429.888 64.064V57.368H434.376V55.28H429.888V51.224L427.2 52.448V55.28H424.968V57.368H427.2V64.232C427.2 66.872 429 68.216 431.208 68.216C432.576 68.216 433.632 67.76 434.592 66.8L433.44 65.072C432.888 65.624 432.336 65.912 431.64 65.912C430.752 65.912 429.888 65.48 429.888 64.064ZM436.674 49.76V53H439.962V49.76H436.674ZM436.986 68H439.674V55.28H436.986V68ZM452.055 50.24V57.224C451.263 55.664 449.823 55.016 448.383 55.016C445.023 55.016 442.791 57.68 442.791 61.688C442.791 65.552 444.999 68.192 448.071 68.192C449.535 68.192 451.071 67.472 452.055 65.696V68H454.743V50.24H452.055ZM448.791 65.84C446.943 65.84 445.575 64.4 445.575 61.544C445.575 58.664 446.943 57.176 448.791 57.176C450.759 57.176 452.055 58.592 452.055 61.544C452.055 64.52 450.735 65.84 448.791 65.84Z" fill="#2A2859"/>
<path d="M218.226 97.962C219.576 97.476 220.152 96.234 220.152 95.172C220.152 93.354 219.054 91.68 216.012 91.68H211.584V105H216.444C219.612 105 220.764 103.002 220.764 101.31C220.764 99.672 219.594 98.376 218.226 97.962ZM216.012 92.796C218.064 92.796 218.856 93.876 218.856 95.172C218.856 96.756 218.064 97.656 216.282 97.656H212.844V92.796H216.012ZM216.372 103.884H212.844V98.736H216.552C218.334 98.736 219.432 99.69 219.432 101.382C219.432 102.948 218.55 103.884 216.372 103.884ZM229.943 105C229.727 104.352 229.547 103.38 229.547 102.3V98.376C229.547 96.738 228.557 95.316 226.199 95.316C224.525 95.316 223.067 96.072 222.347 98.088L223.427 98.412C223.931 96.954 224.939 96.432 226.127 96.432C227.603 96.432 228.359 97.278 228.359 98.52V99.78C227.585 99.51 226.829 99.42 226.055 99.42C224.093 99.42 222.329 100.446 222.329 102.408C222.329 104.046 223.607 105.144 225.299 105.144C226.847 105.144 228.089 104.244 228.575 103.128C228.575 103.848 228.683 104.478 228.827 105H229.943ZM228.359 101.04C228.359 103.362 226.757 104.1 225.515 104.1C224.363 104.1 223.553 103.488 223.553 102.336C223.553 101.076 224.687 100.428 226.127 100.428C226.865 100.428 227.621 100.518 228.359 100.824V101.04ZM239.054 91.68V97.188C238.478 95.982 237.398 95.316 236.066 95.316C233.51 95.316 231.854 97.386 231.854 100.32C231.854 103.092 233.492 105.126 235.922 105.126C237.164 105.126 238.424 104.442 239.054 103.218V105H240.278V91.68H239.054ZM236.048 104.046C234.284 104.046 233.114 102.678 233.114 100.266C233.114 97.764 234.284 96.396 236.066 96.396C237.974 96.396 239.054 97.8 239.054 100.284C239.054 102.624 237.956 104.046 236.048 104.046ZM243.906 93.732C244.5 93.732 244.986 93.264 244.986 92.652C244.986 92.04 244.5 91.572 243.906 91.572C243.312 91.572 242.826 92.04 242.826 92.652C242.826 93.264 243.312 93.732 243.906 93.732ZM243.294 105H244.518V95.46H243.294V105ZM251.614 95.316C250.462 95.316 249.418 95.892 248.842 96.936V95.46H247.618V105H248.842V99.636C248.842 97.728 249.616 96.432 251.29 96.432C252.622 96.432 253.414 97.08 253.414 98.808V105H254.638V98.628C254.638 96.486 253.522 95.316 251.614 95.316ZM266.153 96.468V95.46H263.417V96.126C262.841 95.64 262.085 95.316 261.095 95.316C258.575 95.316 257.297 97.098 257.297 98.808C257.297 99.978 257.999 101.31 259.259 101.814C258.089 102.12 257.387 102.858 257.387 103.704C257.387 104.694 258.179 105.324 259.511 105.324H263.615C264.479 105.324 264.767 105.72 264.767 106.26C264.767 107.412 263.111 108.006 261.131 108.006C259.529 108.006 258.125 107.7 257.459 106.134L256.469 106.584C257.045 108.258 258.719 109.032 261.131 109.032C263.813 109.032 265.991 108.042 265.991 106.152C265.991 104.964 265.199 104.208 263.651 104.208H259.781C258.989 104.208 258.611 103.866 258.611 103.38C258.611 102.75 259.385 102.336 260.465 102.336H260.879C263.561 102.336 264.821 100.554 264.821 98.808C264.821 98.106 264.569 97.386 264.101 96.81V96.468H266.153ZM261.077 101.328C259.367 101.328 258.503 100.14 258.503 98.808C258.503 97.494 259.367 96.36 261.077 96.36C262.769 96.36 263.615 97.476 263.615 98.808C263.615 100.158 262.769 101.328 261.077 101.328ZM268.714 102.84C268.048 102.84 267.562 103.326 267.562 103.956C267.562 104.658 268.066 105.072 268.714 105.072C268.858 105.072 268.984 105.054 269.074 105.036C269.218 106.296 268.408 107.052 267.562 107.808L267.994 108.312C269.56 107.088 270.046 105.9 270.046 104.712C270.046 103.488 269.47 102.84 268.714 102.84ZM281.788 95.334C280.546 95.334 279.286 96.018 278.656 97.242V91.68H277.432V105H278.656V103.272C279.232 104.478 280.312 105.144 281.644 105.144C284.2 105.144 285.856 103.074 285.856 100.14C285.856 97.368 284.218 95.334 281.788 95.334ZM281.644 104.064C279.736 104.064 278.656 102.66 278.656 100.176C278.656 97.836 279.754 96.414 281.662 96.414C283.426 96.414 284.596 97.782 284.596 100.194C284.596 102.696 283.426 104.064 281.644 104.064ZM288.023 91.752V93.588H289.895V91.752H288.023ZM288.347 105H289.571V95.46H288.347V105ZM297.063 95.334C295.821 95.334 294.561 96.018 293.931 97.242V91.68H292.707V105H293.931V103.272C294.507 104.478 295.587 105.144 296.919 105.144C299.475 105.144 301.131 103.074 301.131 100.14C301.131 97.368 299.493 95.334 297.063 95.334ZM296.919 104.064C295.011 104.064 293.931 102.66 293.931 100.176C293.931 97.836 295.029 96.414 296.937 96.414C298.701 96.414 299.871 97.782 299.871 100.194C299.871 102.696 298.701 104.064 296.919 104.064ZM306.61 104.964V103.884C306.43 103.938 306.232 103.956 306.034 103.956C305.278 103.956 304.846 103.542 304.846 102.732V91.68H303.622V102.732C303.622 104.136 304.324 105.072 305.818 105.072C306.088 105.072 306.322 105.036 306.61 104.964ZM309.455 93.732C310.049 93.732 310.535 93.264 310.535 92.652C310.535 92.04 310.049 91.572 309.455 91.572C308.861 91.572 308.375 92.04 308.375 92.652C308.375 93.264 308.861 93.732 309.455 93.732ZM308.843 105H310.067V95.46H308.843V105ZM316.803 105.144C319.161 105.144 321.051 103.2 321.051 100.212C321.051 97.26 319.179 95.316 316.803 95.316C314.427 95.316 312.555 97.26 312.555 100.212C312.555 103.2 314.445 105.144 316.803 105.144ZM316.803 104.064C315.165 104.064 313.815 102.768 313.815 100.212C313.815 97.674 315.183 96.396 316.803 96.396C318.423 96.396 319.791 97.674 319.791 100.212C319.791 102.768 318.441 104.064 316.803 104.064ZM325.27 102.624V96.468H328.366V95.46H325.27V92.688L324.046 93.408V95.46H322.246V96.468H324.046V102.588C324.046 104.28 325.126 105.144 326.422 105.144C327.268 105.144 327.952 104.838 328.582 104.1L327.934 103.38C327.484 103.848 327.106 104.064 326.53 104.064C325.936 104.064 325.27 103.74 325.27 102.624ZM336.646 102.3C336.196 103.236 335.35 104.064 333.91 104.064C332.074 104.064 330.868 102.984 330.76 100.446H337.438L337.474 99.384C337.474 96.792 335.71 95.316 333.658 95.316C331.174 95.316 329.518 97.314 329.518 100.104C329.518 103.146 331.102 105.144 333.784 105.144C335.908 105.144 337.096 103.956 337.546 102.804L336.646 102.3ZM333.658 96.396C335.062 96.396 336.322 97.296 336.268 99.438H330.76C330.922 97.17 332.218 96.396 333.658 96.396ZM346.002 105H347.55L343.32 99.456L347.478 95.46H345.858L341.322 99.942V91.68H340.098V105H341.322V101.382L342.492 100.266L346.002 105ZM355.402 102.3C354.952 103.236 354.106 104.064 352.666 104.064C350.83 104.064 349.624 102.984 349.516 100.446H356.194L356.23 99.384C356.23 96.792 354.466 95.316 352.414 95.316C349.93 95.316 348.274 97.314 348.274 100.104C348.274 103.146 349.858 105.144 352.54 105.144C354.664 105.144 355.852 103.956 356.302 102.804L355.402 102.3ZM352.414 96.396C353.818 96.396 355.078 97.296 355.024 99.438H349.516C349.678 97.17 350.974 96.396 352.414 96.396ZM360.55 102.624V96.468H363.646V95.46H360.55V92.688L359.326 93.408V95.46H357.526V96.468H359.326V102.588C359.326 104.28 360.406 105.144 361.702 105.144C362.548 105.144 363.232 104.838 363.862 104.1L363.214 103.38C362.764 103.848 362.386 104.064 361.81 104.064C361.216 104.064 360.55 103.74 360.55 102.624ZM366.782 102.84C366.116 102.84 365.63 103.326 365.63 103.956C365.63 104.658 366.134 105.072 366.782 105.072C366.926 105.072 367.052 105.054 367.142 105.036C367.286 106.296 366.476 107.052 365.63 107.808L366.062 108.312C367.628 107.088 368.114 105.9 368.114 104.712C368.114 103.488 367.538 102.84 366.782 102.84ZM381.404 105H382.952L378.722 99.456L382.88 95.46H381.26L376.724 99.942V91.68H375.5V105H376.724V101.382L377.894 100.266L381.404 105ZM390.008 95.46V100.824C390.008 102.696 389.288 104.046 387.596 104.046C386.264 104.046 385.472 103.326 385.472 101.76V95.46H384.248V101.868C384.248 103.938 385.382 105.144 387.254 105.144C388.424 105.144 389.432 104.568 390.008 103.542V105H391.232V95.46H390.008ZM398.251 95.316C397.099 95.316 396.055 95.892 395.479 96.936V95.46H394.255V105H395.479V99.636C395.479 97.728 396.253 96.432 397.927 96.432C399.259 96.432 400.051 97.08 400.051 98.808V105H401.275V98.628C401.275 96.486 400.159 95.316 398.251 95.316ZM403.754 97.944C403.754 99.222 404.672 100.104 406.418 100.464L407.966 100.788C409.226 101.058 409.73 101.544 409.73 102.444C409.73 103.416 408.758 104.064 407.282 104.064C405.878 104.064 404.888 103.524 404.438 102.516L403.394 102.948C404.042 104.388 405.392 105.144 407.318 105.144C409.442 105.144 410.918 103.992 410.918 102.336C410.918 100.914 409.946 100.014 407.858 99.6L406.598 99.348C405.464 99.114 404.942 98.628 404.942 97.836C404.942 96.954 405.806 96.396 407.138 96.396C408.362 96.396 409.244 96.882 409.622 97.8L410.63 97.404C410.234 96.144 408.902 95.316 407.174 95.316C405.176 95.316 403.754 96.432 403.754 97.944ZM415.06 102.624V96.468H418.156V95.46H415.06V92.688L413.836 93.408V95.46H412.036V96.468H413.836V102.588C413.836 104.28 414.916 105.144 416.212 105.144C417.058 105.144 417.742 104.838 418.372 104.1L417.724 103.38C417.274 103.848 416.896 104.064 416.32 104.064C415.726 104.064 415.06 103.74 415.06 102.624ZM421.292 102.84C420.626 102.84 420.14 103.326 420.14 103.956C420.14 104.658 420.644 105.072 421.292 105.072C421.436 105.072 421.562 105.054 421.652 105.036C421.796 106.296 420.986 107.052 420.14 107.808L420.572 108.312C422.138 107.088 422.624 105.9 422.624 104.712C422.624 103.488 422.048 102.84 421.292 102.84ZM213.456 121.128C213.456 119.958 214.122 119.58 214.752 119.58C215.256 119.58 215.688 119.832 215.976 120.264L216.714 119.526C216.264 118.806 215.472 118.536 214.788 118.536C213.312 118.536 212.232 119.472 212.232 121.128V122.46H210.432V123.468H212.232V132H213.456V123.468H216.12V122.46H213.456V121.128ZM221.402 122.316C220.556 122.316 219.71 122.748 219.206 123.648V122.46H217.982V132H219.206V126.132C219.206 124.206 220.034 123.396 221.132 123.396C222.104 123.396 222.428 124.026 222.428 124.98V125.916L223.544 125.7V124.764C223.544 123.144 222.644 122.316 221.402 122.316ZM225.638 118.752V120.588H227.51V118.752H225.638ZM225.962 132H227.186V122.46H225.962V132ZM232.194 129.624V123.468H235.29V122.46H232.194V119.688L230.97 120.408V122.46H229.17V123.468H230.97V129.588C230.97 131.28 232.05 132.144 233.346 132.144C234.192 132.144 234.876 131.838 235.506 131.1L234.858 130.38C234.408 130.848 234.03 131.064 233.454 131.064C232.86 131.064 232.194 130.74 232.194 129.624ZM238.211 120.732C238.805 120.732 239.291 120.264 239.291 119.652C239.291 119.04 238.805 118.572 238.211 118.572C237.617 118.572 237.131 119.04 237.131 119.652C237.131 120.264 237.617 120.732 238.211 120.732ZM237.599 132H238.823V122.46H237.599V132ZM248.511 118.68V124.188C247.935 122.982 246.855 122.316 245.523 122.316C242.967 122.316 241.311 124.386 241.311 127.32C241.311 130.092 242.949 132.126 245.379 132.126C246.621 132.126 247.881 131.442 248.511 130.218V132H249.735V118.68H248.511ZM245.505 131.046C243.741 131.046 242.571 129.678 242.571 127.266C242.571 124.764 243.741 123.396 245.523 123.396C247.431 123.396 248.511 124.8 248.511 127.284C248.511 129.624 247.413 131.046 245.505 131.046ZM252.283 124.944C252.283 126.222 253.201 127.104 254.947 127.464L256.495 127.788C257.755 128.058 258.259 128.544 258.259 129.444C258.259 130.416 257.287 131.064 255.811 131.064C254.407 131.064 253.417 130.524 252.967 129.516L251.923 129.948C252.571 131.388 253.921 132.144 255.847 132.144C257.971 132.144 259.447 130.992 259.447 129.336C259.447 127.914 258.475 127.014 256.387 126.6L255.127 126.348C253.993 126.114 253.471 125.628 253.471 124.836C253.471 123.954 254.335 123.396 255.667 123.396C256.891 123.396 257.773 123.882 258.151 124.8L259.159 124.404C258.763 123.144 257.431 122.316 255.703 122.316C253.705 122.316 252.283 123.432 252.283 124.944ZM267.797 132H269.345L265.115 126.456L269.273 122.46H267.653L263.117 126.942V118.68H261.893V132H263.117V128.382L264.287 127.266L267.797 132ZM274.038 131.964V130.884C273.858 130.938 273.66 130.956 273.462 130.956C272.706 130.956 272.274 130.542 272.274 129.732V118.68H271.05V129.732C271.05 131.136 271.752 132.072 273.246 132.072C273.516 132.072 273.75 132.036 274.038 131.964ZM281.815 122.46V127.824C281.815 129.696 281.095 131.046 279.403 131.046C278.071 131.046 277.279 130.326 277.279 128.76V122.46H276.055V128.868C276.055 130.938 277.189 132.144 279.061 132.144C280.231 132.144 281.239 131.568 281.815 130.542V132H283.039V122.46H281.815ZM290.454 122.334C289.212 122.334 287.952 123.018 287.322 124.242V118.68H286.098V132H287.322V130.272C287.898 131.478 288.978 132.144 290.31 132.144C292.866 132.144 294.522 130.074 294.522 127.14C294.522 124.368 292.884 122.334 290.454 122.334ZM290.31 131.064C288.402 131.064 287.322 129.66 287.322 127.176C287.322 124.836 288.42 123.414 290.328 123.414C292.092 123.414 293.262 124.782 293.262 127.194C293.262 129.696 292.092 131.064 290.31 131.064ZM301.405 122.334C300.163 122.334 298.903 123.018 298.273 124.242V118.68H297.049V132H298.273V130.272C298.849 131.478 299.929 132.144 301.261 132.144C303.817 132.144 305.473 130.074 305.473 127.14C305.473 124.368 303.835 122.334 301.405 122.334ZM301.261 131.064C299.353 131.064 298.273 129.66 298.273 127.176C298.273 124.836 299.371 123.414 301.279 123.414C303.043 123.414 304.213 124.782 304.213 127.194C304.213 129.696 303.043 131.064 301.261 131.064ZM314.48 129.3C314.03 130.236 313.184 131.064 311.744 131.064C309.908 131.064 308.702 129.984 308.594 127.446H315.272L315.308 126.384C315.308 123.792 313.544 122.316 311.492 122.316C309.008 122.316 307.352 124.314 307.352 127.104C307.352 130.146 308.936 132.144 311.618 132.144C313.742 132.144 314.93 130.956 315.38 129.804L314.48 129.3ZM311.492 123.396C312.896 123.396 314.156 124.296 314.102 126.438H308.594C308.756 124.17 310.052 123.396 311.492 123.396ZM321.316 122.316C320.47 122.316 319.624 122.748 319.12 123.648V122.46H317.896V132H319.12V126.132C319.12 124.206 319.948 123.396 321.046 123.396C322.018 123.396 322.342 124.026 322.342 124.98V125.916L323.458 125.7V124.764C323.458 123.144 322.558 122.316 321.316 122.316ZM324.19 129.84C323.524 129.84 323.038 130.326 323.038 130.956C323.038 131.658 323.542 132.072 324.19 132.072C324.334 132.072 324.46 132.054 324.55 132.036C324.694 133.296 323.884 134.052 323.038 134.808L323.47 135.312C325.036 134.088 325.522 132.9 325.522 131.712C325.522 130.488 324.946 129.84 324.19 129.84ZM332.548 118.752V120.588H334.42V118.752H332.548ZM332.872 132H334.096V122.46H332.872V132ZM343.784 118.68V124.188C343.208 122.982 342.128 122.316 340.796 122.316C338.24 122.316 336.584 124.386 336.584 127.32C336.584 130.092 338.222 132.126 340.652 132.126C341.894 132.126 343.154 131.442 343.784 130.218V132H345.008V118.68H343.784ZM340.778 131.046C339.014 131.046 337.844 129.678 337.844 127.266C337.844 124.764 339.014 123.396 340.796 123.396C342.704 123.396 343.784 124.8 343.784 127.284C343.784 129.624 342.686 131.046 340.778 131.046ZM351.445 122.316C350.599 122.316 349.753 122.748 349.249 123.648V122.46H348.025V132H349.249V126.132C349.249 124.206 350.077 123.396 351.175 123.396C352.147 123.396 352.471 124.026 352.471 124.98V125.916L353.587 125.7V124.764C353.587 123.144 352.687 122.316 351.445 122.316ZM361.976 129.3C361.526 130.236 360.68 131.064 359.24 131.064C357.404 131.064 356.198 129.984 356.09 127.446H362.768L362.804 126.384C362.804 123.792 361.04 122.316 358.988 122.316C356.504 122.316 354.848 124.314 354.848 127.104C354.848 130.146 356.432 132.144 359.114 132.144C361.238 132.144 362.426 130.956 362.876 129.804L361.976 129.3ZM358.988 123.396C360.392 123.396 361.652 124.296 361.598 126.438H356.09C356.252 124.17 357.548 123.396 358.988 123.396ZM367.124 129.624V123.468H370.22V122.46H367.124V119.688L365.9 120.408V122.46H364.1V123.468H365.9V129.588C365.9 131.28 366.98 132.144 368.276 132.144C369.122 132.144 369.806 131.838 370.436 131.1L369.788 130.38C369.338 130.848 368.96 131.064 368.384 131.064C367.79 131.064 367.124 130.74 367.124 129.624ZM374.085 129.624V123.468H377.181V122.46H374.085V119.688L372.861 120.408V122.46H371.061V123.468H372.861V129.588C372.861 131.28 373.941 132.144 375.237 132.144C376.083 132.144 376.767 131.838 377.397 131.1L376.749 130.38C376.299 130.848 375.921 131.064 375.345 131.064C374.751 131.064 374.085 130.74 374.085 129.624ZM378.67 124.944C378.67 126.222 379.588 127.104 381.334 127.464L382.882 127.788C384.142 128.058 384.646 128.544 384.646 129.444C384.646 130.416 383.674 131.064 382.198 131.064C380.794 131.064 379.804 130.524 379.354 129.516L378.31 129.948C378.958 131.388 380.308 132.144 382.234 132.144C384.358 132.144 385.834 130.992 385.834 129.336C385.834 127.914 384.862 127.014 382.774 126.6L381.514 126.348C380.38 126.114 379.858 125.628 379.858 124.836C379.858 123.954 380.722 123.396 382.054 123.396C383.278 123.396 384.16 123.882 384.538 124.8L385.546 124.404C385.15 123.144 383.818 122.316 382.09 122.316C380.092 122.316 378.67 123.432 378.67 124.944ZM392.275 122.316C391.123 122.316 390.079 122.892 389.503 123.936V118.68H388.279V132H389.503V126.636C389.503 124.728 390.277 123.432 391.951 123.432C393.283 123.432 394.075 124.08 394.075 125.808V132H395.299V125.628C395.299 123.486 394.183 122.316 392.275 122.316ZM405.355 132C405.139 131.352 404.959 130.38 404.959 129.3V125.376C404.959 123.738 403.969 122.316 401.611 122.316C399.937 122.316 398.479 123.072 397.759 125.088L398.839 125.412C399.343 123.954 400.351 123.432 401.539 123.432C403.015 123.432 403.771 124.278 403.771 125.52V126.78C402.997 126.51 402.241 126.42 401.467 126.42C399.505 126.42 397.741 127.446 397.741 129.408C397.741 131.046 399.019 132.144 400.711 132.144C402.259 132.144 403.501 131.244 403.987 130.128C403.987 130.848 404.095 131.478 404.239 132H405.355ZM403.771 128.04C403.771 130.362 402.169 131.1 400.927 131.1C399.775 131.1 398.965 130.488 398.965 129.336C398.965 128.076 400.099 127.428 401.539 127.428C402.277 127.428 403.033 127.518 403.771 127.824V128.04ZM411.042 131.964V130.884C410.862 130.938 410.664 130.956 410.466 130.956C409.71 130.956 409.278 130.542 409.278 129.732V118.68H408.054V129.732C408.054 131.136 408.756 132.072 410.25 132.072C410.52 132.072 410.754 132.036 411.042 131.964ZM416.263 131.964V130.884C416.083 130.938 415.885 130.956 415.687 130.956C414.931 130.956 414.499 130.542 414.499 129.732V118.68H413.275V129.732C413.275 131.136 413.977 132.072 415.471 132.072C415.741 132.072 415.975 132.036 416.263 131.964ZM424.73 129.3C424.28 130.236 423.434 131.064 421.994 131.064C420.158 131.064 418.952 129.984 418.844 127.446H425.522L425.558 126.384C425.558 123.792 423.794 122.316 421.742 122.316C419.258 122.316 417.602 124.314 417.602 127.104C417.602 130.146 419.186 132.144 421.868 132.144C423.992 132.144 425.18 130.956 425.63 129.804L424.73 129.3ZM421.742 123.396C423.146 123.396 424.406 124.296 424.352 126.438H418.844C419.006 124.17 420.302 123.396 421.742 123.396ZM431.566 122.316C430.72 122.316 429.874 122.748 429.37 123.648V122.46H428.146V132H429.37V126.132C429.37 124.206 430.198 123.396 431.296 123.396C432.268 123.396 432.592 124.026 432.592 124.98V125.916L433.708 125.7V124.764C433.708 123.144 432.808 122.316 431.566 122.316ZM434.44 129.84C433.774 129.84 433.288 130.326 433.288 130.956C433.288 131.658 433.792 132.072 434.44 132.072C434.584 132.072 434.71 132.054 434.8 132.036C434.944 133.296 434.134 134.052 433.288 134.808L433.72 135.312C435.286 134.088 435.772 132.9 435.772 131.712C435.772 130.488 435.196 129.84 434.44 129.84ZM452.626 122.316C451.402 122.316 450.304 123 449.764 124.26C449.422 123.018 448.468 122.316 447.046 122.316C445.93 122.316 444.922 122.892 444.346 123.954V122.46H443.122V132H444.346V126.636C444.346 124.728 445.048 123.432 446.722 123.432C447.964 123.432 448.702 124.08 448.702 125.628V132H449.926V126.636C449.926 124.728 450.628 123.432 452.302 123.432C453.544 123.432 454.282 124.08 454.282 125.628V132H455.506V125.448C455.506 123.468 454.444 122.316 452.626 122.316ZM465.56 132C465.344 131.352 465.164 130.38 465.164 129.3V125.376C465.164 123.738 464.174 122.316 461.816 122.316C460.142 122.316 458.684 123.072 457.964 125.088L459.044 125.412C459.548 123.954 460.556 123.432 461.744 123.432C463.22 123.432 463.976 124.278 463.976 125.52V126.78C463.202 126.51 462.446 126.42 461.672 126.42C459.71 126.42 457.946 127.446 457.946 129.408C457.946 131.046 459.224 132.144 460.916 132.144C462.464 132.144 463.706 131.244 464.192 130.128C464.192 130.848 464.3 131.478 464.444 132H465.56ZM463.976 128.04C463.976 130.362 462.374 131.1 461.132 131.1C459.98 131.1 459.17 130.488 459.17 129.336C459.17 128.076 460.304 127.428 461.744 127.428C462.482 127.428 463.238 127.518 463.976 127.824V128.04ZM471.679 122.316C470.833 122.316 469.987 122.748 469.483 123.648V122.46H468.259V132H469.483V126.132C469.483 124.206 470.311 123.396 471.409 123.396C472.381 123.396 472.705 124.026 472.705 124.98V125.916L473.821 125.7V124.764C473.821 123.144 472.921 122.316 471.679 122.316ZM482.179 132H483.727L479.497 126.456L483.655 122.46H482.035L477.499 126.942V118.68H476.275V132H477.499V128.382L478.669 127.266L482.179 132ZM492.174 132C491.958 131.352 491.778 130.38 491.778 129.3V125.376C491.778 123.738 490.788 122.316 488.43 122.316C486.756 122.316 485.298 123.072 484.578 125.088L485.658 125.412C486.162 123.954 487.17 123.432 488.358 123.432C489.834 123.432 490.59 124.278 490.59 125.52V126.78C489.816 126.51 489.06 126.42 488.286 126.42C486.324 126.42 484.56 127.446 484.56 129.408C484.56 131.046 485.838 132.144 487.53 132.144C489.078 132.144 490.32 131.244 490.806 130.128C490.806 130.848 490.914 131.478 491.058 132H492.174ZM490.59 128.04C490.59 130.362 488.988 131.1 487.746 131.1C486.594 131.1 485.784 130.488 485.784 129.336C485.784 128.076 486.918 127.428 488.358 127.428C489.096 127.428 489.852 127.518 490.59 127.824V128.04ZM495.7 129.84C495.034 129.84 494.548 130.326 494.548 130.956C494.548 131.658 495.052 132.072 495.7 132.072C495.844 132.072 495.97 132.054 496.06 132.036C496.204 133.296 495.394 134.052 494.548 134.808L494.98 135.312C496.546 134.088 497.032 132.9 497.032 131.712C497.032 130.488 496.456 129.84 495.7 129.84ZM214.536 158.964V157.884C214.356 157.938 214.158 157.956 213.96 157.956C213.204 157.956 212.772 157.542 212.772 156.732V145.68H211.548V156.732C211.548 158.136 212.25 159.072 213.744 159.072C214.014 159.072 214.248 159.036 214.536 158.964ZM223.003 156.3C222.553 157.236 221.707 158.064 220.267 158.064C218.431 158.064 217.225 156.984 217.117 154.446H223.795L223.831 153.384C223.831 150.792 222.067 149.316 220.015 149.316C217.531 149.316 215.875 151.314 215.875 154.104C215.875 157.146 217.459 159.144 220.141 159.144C222.265 159.144 223.453 157.956 223.903 156.804L223.003 156.3ZM220.015 150.396C221.419 150.396 222.679 151.296 222.625 153.438H217.117C217.279 151.17 218.575 150.396 220.015 150.396ZM227.031 147.732C227.625 147.732 228.111 147.264 228.111 146.652C228.111 146.04 227.625 145.572 227.031 145.572C226.437 145.572 225.951 146.04 225.951 146.652C225.951 147.264 226.437 147.732 227.031 147.732ZM226.419 159H227.643V149.46H226.419V159ZM237.259 156.3C236.809 157.236 235.963 158.064 234.523 158.064C232.687 158.064 231.481 156.984 231.373 154.446H238.051L238.087 153.384C238.087 150.792 236.323 149.316 234.271 149.316C231.787 149.316 230.131 151.314 230.131 154.104C230.131 157.146 231.715 159.144 234.397 159.144C236.521 159.144 237.709 157.956 238.159 156.804L237.259 156.3ZM234.271 150.396C235.675 150.396 236.935 151.296 236.881 153.438H231.373C231.535 151.17 232.831 150.396 234.271 150.396ZM248.268 158.964V157.884C248.088 157.938 247.89 157.956 247.692 157.956C246.936 157.956 246.504 157.542 246.504 156.732V145.68H245.28V156.732C245.28 158.136 245.982 159.072 247.476 159.072C247.746 159.072 247.98 159.036 248.268 158.964ZM253.856 159.144C256.214 159.144 258.104 157.2 258.104 154.212C258.104 151.26 256.232 149.316 253.856 149.316C251.48 149.316 249.608 151.26 249.608 154.212C249.608 157.2 251.498 159.144 253.856 159.144ZM253.856 158.064C252.218 158.064 250.868 156.768 250.868 154.212C250.868 151.674 252.236 150.396 253.856 150.396C255.476 150.396 256.844 151.674 256.844 154.212C256.844 156.768 255.494 158.064 253.856 158.064ZM266.531 159H268.079L263.849 153.456L268.007 149.46H266.387L261.851 153.942V145.68H260.627V159H261.851V155.382L263.021 154.266L266.531 159ZM276.525 159C276.309 158.352 276.129 157.38 276.129 156.3V152.376C276.129 150.738 275.139 149.316 272.781 149.316C271.107 149.316 269.649 150.072 268.929 152.088L270.009 152.412C270.513 150.954 271.521 150.432 272.709 150.432C274.185 150.432 274.941 151.278 274.941 152.52V153.78C274.167 153.51 273.411 153.42 272.637 153.42C270.675 153.42 268.911 154.446 268.911 156.408C268.911 158.046 270.189 159.144 271.881 159.144C273.429 159.144 274.671 158.244 275.157 157.128C275.157 157.848 275.265 158.478 275.409 159H276.525ZM274.941 155.04C274.941 157.362 273.339 158.1 272.097 158.1C270.945 158.1 270.135 157.488 270.135 156.336C270.135 155.076 271.269 154.428 272.709 154.428C273.447 154.428 274.203 154.518 274.941 154.824V155.04ZM282.212 158.964V157.884C282.032 157.938 281.834 157.956 281.636 157.956C280.88 157.956 280.448 157.542 280.448 156.732V145.68H279.224V156.732C279.224 158.136 279.926 159.072 281.42 159.072C281.69 159.072 281.924 159.036 282.212 158.964ZM290.679 156.3C290.229 157.236 289.383 158.064 287.943 158.064C286.107 158.064 284.901 156.984 284.793 154.446H291.471L291.507 153.384C291.507 150.792 289.743 149.316 287.691 149.316C285.207 149.316 283.551 151.314 283.551 154.104C283.551 157.146 285.135 159.144 287.817 159.144C289.941 159.144 291.129 157.956 291.579 156.804L290.679 156.3ZM287.691 150.396C289.095 150.396 290.355 151.296 290.301 153.438H284.793C284.955 151.17 286.251 150.396 287.691 150.396ZM297.515 149.316C296.669 149.316 295.823 149.748 295.319 150.648V149.46H294.095V159H295.319V153.132C295.319 151.206 296.147 150.396 297.245 150.396C298.217 150.396 298.541 151.026 298.541 151.98V152.916L299.657 152.7V151.764C299.657 150.144 298.757 149.316 297.515 149.316ZM299.49 156.984V159H301.434V156.984H299.49Z" fill="#2A2859"/>
</g>
<defs>
<clipPath id="clip0_4799_152451">
<rect width="699" height="210" fill="white"/>
</clipPath>
</defs>
</svg>
