<svg width="840" height="299" viewBox="0 0 840 299" fill="none" xmlns="http://www.w3.org/2000/svg">
<rect width="840" height="299" fill="white"/>
<rect width="408" height="171" transform="translate(232 88)" fill="#F1FDFF"/>
<path fill-rule="evenodd" clip-rule="evenodd" d="M257 116.333V113H260.333V115H259V116.333H257ZM270.333 113H263.667V115H270.333V113ZM273.667 113V115H280.333V113H273.667ZM283.667 113V115H285V116.333H287V113H283.667ZM287 119.667H285V126.333H287V119.667ZM287 129.667H285V136.333H287V129.667ZM287 139.667H285V141H283.667V143H287V139.667ZM280.333 143V141H273.667V143H280.333ZM270.333 143V141H263.667V143H270.333ZM260.333 143V141H259V139.667H257V143H260.333ZM257 136.333H259V129.667H257V136.333ZM257 126.333H259V119.667H257V126.333Z" fill="#2A2859"/>
<path d="M305.144 137.24C309.56 137.24 313.136 133.832 313.136 127.952C313.136 122.408 309.56 119 305.144 119C300.728 119 297.152 122.408 297.152 127.952C297.152 133.832 300.728 137.24 305.144 137.24ZM305.144 134.6C302.408 134.6 300.08 132.464 300.08 127.976C300.08 123.608 302.336 121.64 305.144 121.64C307.952 121.64 310.208 123.608 310.208 127.976C310.208 132.464 307.88 134.6 305.144 134.6ZM323.903 124.28L320.543 134.192L317.183 124.28H314.207L319.055 137H321.815L326.687 124.28H323.903ZM337.147 132.992C336.475 134.192 335.395 135.032 333.835 135.032C331.723 135.032 330.403 133.88 330.259 131.192H338.899L338.947 129.608C338.947 126.008 336.475 123.992 333.475 123.992C330.091 123.992 327.619 126.656 327.619 130.52C327.619 134.432 329.899 137.216 333.667 137.216C336.571 137.216 338.251 135.632 338.971 134.048L337.147 132.992ZM333.475 126.104C334.963 126.104 336.355 127.016 336.331 129.272H330.259C330.475 126.968 331.843 126.104 333.475 126.104ZM347.895 123.992C346.791 123.992 345.471 124.568 344.751 125.984V124.28H342.063V137H344.751V129.56C344.751 127.136 345.759 126.224 347.127 126.224C348.375 126.224 348.783 127.016 348.783 128.168V129.464L350.943 129.08V127.4C350.943 125.216 349.743 123.992 347.895 123.992ZM352.699 127.784C352.699 129.608 354.019 130.832 356.419 131.288L358.771 131.744C359.947 131.984 360.475 132.464 360.475 133.328C360.475 134.384 359.371 135.032 357.739 135.032C356.059 135.032 354.835 134.36 354.139 133.184L352.267 134.36C353.251 136.208 355.147 137.216 357.811 137.216C360.955 137.216 363.043 135.608 363.043 133.208C363.043 131.264 361.699 129.992 359.011 129.464L356.875 129.032C355.747 128.816 355.243 128.36 355.243 127.616C355.243 126.704 356.227 126.152 357.667 126.152C359.107 126.152 360.259 126.752 360.835 127.736L362.707 126.584C361.819 124.88 360.163 123.992 357.691 123.992C354.691 123.992 352.699 125.624 352.699 127.784ZM373.89 137H377.106L371.802 129.416L377.01 124.28H373.698L368.562 129.56V119.24H365.874V137H368.562V132.608L370.026 131.168L373.89 137ZM385.123 123.992C384.019 123.992 382.699 124.568 381.979 125.984V124.28H379.291V137H381.979V129.56C381.979 127.136 382.987 126.224 384.355 126.224C385.603 126.224 386.011 127.016 386.011 128.168V129.464L388.171 129.08V127.4C388.171 125.216 386.971 123.992 385.123 123.992ZM392.271 122.168C393.327 122.168 394.143 121.352 394.143 120.272C394.143 119.192 393.327 118.376 392.271 118.376C391.215 118.376 390.375 119.192 390.375 120.272C390.375 121.352 391.215 122.168 392.271 122.168ZM390.927 137H393.615V124.28H390.927V137ZM401.124 123.128C401.124 121.808 401.94 121.232 402.924 121.232C403.548 121.232 404.124 121.52 404.508 122L405.78 120.224C405.084 119.36 403.908 118.88 402.732 118.88C400.236 118.88 398.436 120.488 398.436 123.248V124.28H396.204V126.368H398.436V137H401.124V126.368H404.7V124.28H401.124V123.128ZM410.51 133.064V126.368H414.998V124.28H410.51V120.224L407.822 121.448V124.28H405.59V126.368H407.822V133.232C407.822 135.872 409.622 137.216 411.83 137.216C413.198 137.216 414.254 136.76 415.214 135.8L414.062 134.072C413.51 134.624 412.958 134.912 412.262 134.912C411.374 134.912 410.51 134.48 410.51 133.064ZM429.981 123.992C428.397 123.992 427.101 124.76 426.237 126.128V119.24H423.549V137H426.237V130.112C426.237 127.64 427.221 126.32 429.117 126.32C430.581 126.32 431.421 127.112 431.421 128.864V137H434.109V128.432C434.109 125.672 432.573 123.992 429.981 123.992ZM446.546 132.992C445.874 134.192 444.794 135.032 443.234 135.032C441.122 135.032 439.802 133.88 439.658 131.192H448.298L448.346 129.608C448.346 126.008 445.874 123.992 442.874 123.992C439.49 123.992 437.018 126.656 437.018 130.52C437.018 134.432 439.298 137.216 443.066 137.216C445.97 137.216 447.65 135.632 448.37 134.048L446.546 132.992ZM442.874 126.104C444.362 126.104 445.754 127.016 445.73 129.272H439.658C439.874 126.968 441.242 126.104 442.874 126.104ZM457.293 123.992C456.189 123.992 454.869 124.568 454.149 125.984V124.28H451.461V137H454.149V129.56C454.149 127.136 455.157 126.224 456.525 126.224C457.773 126.224 458.181 127.016 458.181 128.168V129.464L460.341 129.08V127.4C460.341 125.216 459.141 123.992 457.293 123.992Z" fill="#2A2859"/>
<path d="M306.152 160.68H296.54V161.868H300.716V174H301.976V161.868H306.152V160.68ZM313.31 171.3C312.86 172.236 312.014 173.064 310.574 173.064C308.738 173.064 307.532 171.984 307.424 169.446H314.102L314.138 168.384C314.138 165.792 312.374 164.316 310.322 164.316C307.838 164.316 306.182 166.314 306.182 169.104C306.182 172.146 307.766 174.144 310.448 174.144C312.572 174.144 313.76 172.956 314.21 171.804L313.31 171.3ZM310.322 165.396C311.726 165.396 312.986 166.296 312.932 168.438H307.424C307.586 166.17 308.882 165.396 310.322 165.396ZM322.666 174H324.214L319.984 168.456L324.142 164.46H322.522L317.986 168.942V160.68H316.762V174H317.986V170.382L319.156 169.266L322.666 174ZM325.258 166.944C325.258 168.222 326.176 169.104 327.922 169.464L329.47 169.788C330.73 170.058 331.234 170.544 331.234 171.444C331.234 172.416 330.262 173.064 328.786 173.064C327.382 173.064 326.392 172.524 325.942 171.516L324.898 171.948C325.546 173.388 326.896 174.144 328.822 174.144C330.946 174.144 332.422 172.992 332.422 171.336C332.422 169.914 331.45 169.014 329.362 168.6L328.102 168.348C326.968 168.114 326.446 167.628 326.446 166.836C326.446 165.954 327.31 165.396 328.642 165.396C329.866 165.396 330.748 165.882 331.126 166.8L332.134 166.404C331.738 165.144 330.406 164.316 328.678 164.316C326.68 164.316 325.258 165.432 325.258 166.944ZM336.563 171.624V165.468H339.659V164.46H336.563V161.688L335.339 162.408V164.46H333.539V165.468H335.339V171.588C335.339 173.28 336.419 174.144 337.715 174.144C338.561 174.144 339.245 173.838 339.875 173.1L339.227 172.38C338.777 172.848 338.399 173.064 337.823 173.064C337.229 173.064 336.563 172.74 336.563 171.624ZM346.105 166.944C346.105 168.222 347.023 169.104 348.769 169.464L350.317 169.788C351.577 170.058 352.081 170.544 352.081 171.444C352.081 172.416 351.109 173.064 349.633 173.064C348.229 173.064 347.239 172.524 346.789 171.516L345.745 171.948C346.393 173.388 347.743 174.144 349.669 174.144C351.793 174.144 353.269 172.992 353.269 171.336C353.269 169.914 352.297 169.014 350.209 168.6L348.949 168.348C347.815 168.114 347.293 167.628 347.293 166.836C347.293 165.954 348.157 165.396 349.489 165.396C350.713 165.396 351.595 165.882 351.973 166.8L352.981 166.404C352.585 165.144 351.253 164.316 349.525 164.316C347.527 164.316 346.105 165.432 346.105 166.944ZM359.315 174.144C361.673 174.144 363.563 172.2 363.563 169.212C363.563 166.26 361.691 164.316 359.315 164.316C356.939 164.316 355.067 166.26 355.067 169.212C355.067 172.2 356.957 174.144 359.315 174.144ZM359.315 173.064C357.677 173.064 356.327 171.768 356.327 169.212C356.327 166.674 357.695 165.396 359.315 165.396C360.935 165.396 362.303 166.674 362.303 169.212C362.303 171.768 360.953 173.064 359.315 173.064ZM375.554 164.316C374.33 164.316 373.232 165 372.692 166.26C372.35 165.018 371.396 164.316 369.974 164.316C368.858 164.316 367.85 164.892 367.274 165.954V164.46H366.05V174H367.274V168.636C367.274 166.728 367.976 165.432 369.65 165.432C370.892 165.432 371.63 166.08 371.63 167.628V174H372.854V168.636C372.854 166.728 373.556 165.432 375.23 165.432C376.472 165.432 377.21 166.08 377.21 167.628V174H378.434V167.448C378.434 165.468 377.372 164.316 375.554 164.316ZM394.552 165.468V164.46H391.816V165.126C391.24 164.64 390.484 164.316 389.494 164.316C386.974 164.316 385.696 166.098 385.696 167.808C385.696 168.978 386.398 170.31 387.658 170.814C386.488 171.12 385.786 171.858 385.786 172.704C385.786 173.694 386.578 174.324 387.91 174.324H392.014C392.878 174.324 393.166 174.72 393.166 175.26C393.166 176.412 391.51 177.006 389.53 177.006C387.928 177.006 386.524 176.7 385.858 175.134L384.868 175.584C385.444 177.258 387.118 178.032 389.53 178.032C392.212 178.032 394.39 177.042 394.39 175.152C394.39 173.964 393.598 173.208 392.05 173.208H388.18C387.388 173.208 387.01 172.866 387.01 172.38C387.01 171.75 387.784 171.336 388.864 171.336H389.278C391.96 171.336 393.22 169.554 393.22 167.808C393.22 167.106 392.968 166.386 392.5 165.81V165.468H394.552ZM389.476 170.328C387.766 170.328 386.902 169.14 386.902 167.808C386.902 166.494 387.766 165.36 389.476 165.36C391.168 165.36 392.014 166.476 392.014 167.808C392.014 169.158 391.168 170.328 389.476 170.328ZM399.141 163.452C400.311 163.452 401.265 162.588 401.265 161.4C401.265 160.212 400.311 159.348 399.141 159.348C397.971 159.348 397.017 160.212 397.017 161.4C397.017 162.588 397.971 163.452 399.141 163.452ZM399.141 160.176C399.825 160.176 400.365 160.608 400.365 161.4C400.365 162.21 399.825 162.624 399.141 162.624C398.457 162.624 397.917 162.21 397.917 161.4C397.917 160.608 398.457 160.176 399.141 160.176ZM402.849 174C402.633 173.352 402.453 172.38 402.453 171.3V167.376C402.453 165.738 401.463 164.316 399.105 164.316C397.431 164.316 395.973 165.072 395.253 167.088L396.333 167.412C396.837 165.954 397.845 165.432 399.033 165.432C400.509 165.432 401.265 166.278 401.265 167.52V168.78C400.491 168.51 399.735 168.42 398.961 168.42C396.999 168.42 395.235 169.446 395.235 171.408C395.235 173.046 396.513 174.144 398.205 174.144C399.753 174.144 400.995 173.244 401.481 172.128C401.481 172.848 401.589 173.478 401.733 174H402.849ZM401.265 170.04C401.265 172.362 399.663 173.1 398.421 173.1C397.269 173.1 396.459 172.488 396.459 171.336C396.459 170.076 397.593 169.428 399.033 169.428C399.771 169.428 400.527 169.518 401.265 169.824V170.04ZM408.968 164.316C408.122 164.316 407.276 164.748 406.772 165.648V164.46H405.548V174H406.772V168.132C406.772 166.206 407.6 165.396 408.698 165.396C409.67 165.396 409.994 166.026 409.994 166.98V167.916L411.11 167.7V166.764C411.11 165.144 410.21 164.316 408.968 164.316ZM421.77 174.144C424.128 174.144 426.018 172.2 426.018 169.212C426.018 166.26 424.146 164.316 421.77 164.316C419.394 164.316 417.522 166.26 417.522 169.212C417.522 172.2 419.412 174.144 421.77 174.144ZM421.77 173.064C420.132 173.064 418.782 171.768 418.782 169.212C418.782 166.674 420.15 165.396 421.77 165.396C423.39 165.396 424.758 166.674 424.758 169.212C424.758 171.768 423.408 173.064 421.77 173.064ZM434.237 164.46L431.249 172.65L428.261 164.46H426.929L430.673 174H431.753L435.497 164.46H434.237ZM443.529 171.3C443.079 172.236 442.233 173.064 440.793 173.064C438.957 173.064 437.751 171.984 437.643 169.446H444.321L444.357 168.384C444.357 165.792 442.593 164.316 440.541 164.316C438.057 164.316 436.401 166.314 436.401 169.104C436.401 172.146 437.985 174.144 440.667 174.144C442.791 174.144 443.979 172.956 444.429 171.804L443.529 171.3ZM440.541 165.396C441.945 165.396 443.205 166.296 443.151 168.438H437.643C437.805 166.17 439.101 165.396 440.541 165.396ZM450.364 164.316C449.518 164.316 448.672 164.748 448.168 165.648V164.46H446.944V174H448.168V168.132C448.168 166.206 448.996 165.396 450.094 165.396C451.066 165.396 451.39 166.026 451.39 166.98V167.916L452.506 167.7V166.764C452.506 165.144 451.606 164.316 450.364 164.316ZM460.214 174H461.438V165.468H464.102V164.46H461.438V163.128C461.438 161.958 462.104 161.58 462.734 161.58C463.184 161.58 463.49 161.724 463.814 161.94L464.264 161.04C463.94 160.752 463.4 160.536 462.77 160.536C461.294 160.536 460.214 161.49 460.214 163.2V164.46H458.414V165.468H460.214V174ZM468.952 173.964V172.884C468.772 172.938 468.574 172.956 468.376 172.956C467.62 172.956 467.188 172.542 467.188 171.732V160.68H465.964V171.732C465.964 173.136 466.666 174.072 468.16 174.072C468.43 174.072 468.664 174.036 468.952 173.964ZM477.419 171.3C476.969 172.236 476.123 173.064 474.683 173.064C472.847 173.064 471.641 171.984 471.533 169.446H478.211L478.247 168.384C478.247 165.792 476.483 164.316 474.431 164.316C471.947 164.316 470.291 166.314 470.291 169.104C470.291 172.146 471.875 174.144 474.557 174.144C476.681 174.144 477.869 172.956 478.319 171.804L477.419 171.3ZM474.431 165.396C475.835 165.396 477.095 166.296 477.041 168.438H471.533C471.695 166.17 472.991 165.396 474.431 165.396ZM484.255 164.316C483.409 164.316 482.563 164.748 482.059 165.648V164.46H480.835V174H482.059V168.132C482.059 166.206 482.887 165.396 483.985 165.396C484.957 165.396 485.281 166.026 485.281 166.98V167.916L486.397 167.7V166.764C486.397 165.144 485.497 164.316 484.255 164.316ZM494.787 171.3C494.337 172.236 493.491 173.064 492.051 173.064C490.215 173.064 489.009 171.984 488.901 169.446H495.579L495.615 168.384C495.615 165.792 493.851 164.316 491.799 164.316C489.315 164.316 487.659 166.314 487.659 169.104C487.659 172.146 489.243 174.144 491.925 174.144C494.049 174.144 495.237 172.956 495.687 171.804L494.787 171.3ZM491.799 165.396C493.203 165.396 494.463 166.296 494.409 168.438H488.901C489.063 166.17 490.359 165.396 491.799 165.396ZM505.796 173.964V172.884C505.616 172.938 505.418 172.956 505.22 172.956C504.464 172.956 504.032 172.542 504.032 171.732V160.68H502.808V171.732C502.808 173.136 503.51 174.072 505.004 174.072C505.274 174.072 505.508 174.036 505.796 173.964ZM508.64 162.732C509.234 162.732 509.72 162.264 509.72 161.652C509.72 161.04 509.234 160.572 508.64 160.572C508.046 160.572 507.56 161.04 507.56 161.652C507.56 162.264 508.046 162.732 508.64 162.732ZM508.028 174H509.252V164.46H508.028V174ZM516.349 164.316C515.197 164.316 514.153 164.892 513.577 165.936V164.46H512.353V174H513.577V168.636C513.577 166.728 514.351 165.432 516.025 165.432C517.357 165.432 518.149 166.08 518.149 167.808V174H519.373V167.628C519.373 165.486 518.257 164.316 516.349 164.316ZM521.923 160.752V162.588H523.795V160.752H521.923ZM521.419 177.906C522.769 177.906 523.471 177.078 523.471 175.458V164.46H522.247V175.386C522.247 176.214 522.085 176.79 521.239 176.79C521.077 176.79 520.843 176.772 520.591 176.682L520.483 177.762C520.789 177.852 521.095 177.906 521.419 177.906ZM533.089 171.3C532.639 172.236 531.793 173.064 530.353 173.064C528.517 173.064 527.311 171.984 527.203 169.446H533.881L533.917 168.384C533.917 165.792 532.153 164.316 530.101 164.316C527.617 164.316 525.961 166.314 525.961 169.104C525.961 172.146 527.545 174.144 530.227 174.144C532.351 174.144 533.539 172.956 533.989 171.804L533.089 171.3ZM530.101 165.396C531.505 165.396 532.765 166.296 532.711 168.438H527.203C527.365 166.17 528.661 165.396 530.101 165.396ZM539.925 164.316C539.079 164.316 538.233 164.748 537.729 165.648V164.46H536.505V174H537.729V168.132C537.729 166.206 538.557 165.396 539.655 165.396C540.627 165.396 540.951 166.026 540.951 166.98V167.916L542.067 167.7V166.764C542.067 165.144 541.167 164.316 539.925 164.316ZM552.727 174.144C555.085 174.144 556.975 172.2 556.975 169.212C556.975 166.26 555.103 164.316 552.727 164.316C550.351 164.316 548.479 166.26 548.479 169.212C548.479 172.2 550.369 174.144 552.727 174.144ZM552.727 173.064C551.089 173.064 549.739 171.768 549.739 169.212C549.739 166.674 551.107 165.396 552.727 165.396C554.347 165.396 555.715 166.674 555.715 169.212C555.715 171.768 554.365 173.064 552.727 173.064ZM567.485 165.468V164.46H564.749V165.126C564.173 164.64 563.417 164.316 562.427 164.316C559.907 164.316 558.629 166.098 558.629 167.808C558.629 168.978 559.331 170.31 560.591 170.814C559.421 171.12 558.719 171.858 558.719 172.704C558.719 173.694 559.511 174.324 560.843 174.324H564.947C565.811 174.324 566.099 174.72 566.099 175.26C566.099 176.412 564.443 177.006 562.463 177.006C560.861 177.006 559.457 176.7 558.791 175.134L557.801 175.584C558.377 177.258 560.051 178.032 562.463 178.032C565.145 178.032 567.323 177.042 567.323 175.152C567.323 173.964 566.531 173.208 564.983 173.208H561.113C560.321 173.208 559.943 172.866 559.943 172.38C559.943 171.75 560.717 171.336 561.797 171.336H562.211C564.893 171.336 566.153 169.554 566.153 167.808C566.153 167.106 565.901 166.386 565.433 165.81V165.468H567.485ZM562.409 170.328C560.699 170.328 559.835 169.14 559.835 167.808C559.835 166.494 560.699 165.36 562.409 165.36C564.101 165.36 564.947 166.476 564.947 167.808C564.947 169.158 564.101 170.328 562.409 170.328ZM573.531 166.944C573.531 168.222 574.449 169.104 576.195 169.464L577.743 169.788C579.003 170.058 579.507 170.544 579.507 171.444C579.507 172.416 578.535 173.064 577.059 173.064C575.655 173.064 574.665 172.524 574.215 171.516L573.171 171.948C573.819 173.388 575.169 174.144 577.095 174.144C579.219 174.144 580.695 172.992 580.695 171.336C580.695 169.914 579.723 169.014 577.635 168.6L576.375 168.348C575.241 168.114 574.719 167.628 574.719 166.836C574.719 165.954 575.583 165.396 576.915 165.396C578.139 165.396 579.021 165.882 579.399 166.8L580.407 166.404C580.011 165.144 578.679 164.316 576.951 164.316C574.953 164.316 573.531 165.432 573.531 166.944ZM586.741 174.144C589.099 174.144 590.989 172.2 590.989 169.212C590.989 166.26 589.117 164.316 586.741 164.316C584.365 164.316 582.493 166.26 582.493 169.212C582.493 172.2 584.383 174.144 586.741 174.144ZM586.741 173.064C585.103 173.064 583.753 171.768 583.753 169.212C583.753 166.674 585.121 165.396 586.741 165.396C588.361 165.396 589.729 166.674 589.729 169.212C589.729 171.768 588.379 173.064 586.741 173.064ZM602.98 164.316C601.756 164.316 600.658 165 600.118 166.26C599.776 165.018 598.822 164.316 597.4 164.316C596.284 164.316 595.276 164.892 594.7 165.954V164.46H593.476V174H594.7V168.636C594.7 166.728 595.402 165.432 597.076 165.432C598.318 165.432 599.056 166.08 599.056 167.628V174H600.28V168.636C600.28 166.728 600.982 165.432 602.656 165.432C603.898 165.432 604.636 166.08 604.636 167.628V174H605.86V167.448C605.86 165.468 604.798 164.316 602.98 164.316ZM299.456 190.128C299.456 188.958 300.122 188.58 300.752 188.58C301.256 188.58 301.688 188.832 301.976 189.264L302.714 188.526C302.264 187.806 301.472 187.536 300.788 187.536C299.312 187.536 298.232 188.472 298.232 190.128V191.46H296.432V192.468H298.232V201H299.456V192.468H302.12V191.46H299.456V190.128ZM307.073 201.144C309.431 201.144 311.321 199.2 311.321 196.212C311.321 193.26 309.449 191.316 307.073 191.316C304.697 191.316 302.825 193.26 302.825 196.212C302.825 199.2 304.715 201.144 307.073 201.144ZM307.073 200.064C305.435 200.064 304.085 198.768 304.085 196.212C304.085 193.674 305.453 192.396 307.073 192.396C308.693 192.396 310.061 193.674 310.061 196.212C310.061 198.768 308.711 200.064 307.073 200.064ZM317.228 191.316C316.382 191.316 315.536 191.748 315.032 192.648V191.46H313.808V201H315.032V195.132C315.032 193.206 315.86 192.396 316.958 192.396C317.93 192.396 318.254 193.026 318.254 193.98V194.916L319.37 194.7V193.764C319.37 192.144 318.47 191.316 317.228 191.316ZM327.728 201H329.276L325.046 195.456L329.204 191.46H327.584L323.048 195.942V187.68H321.824V201H323.048V197.382L324.218 196.266L327.728 201ZM333.97 200.964V199.884C333.79 199.938 333.592 199.956 333.394 199.956C332.638 199.956 332.206 199.542 332.206 198.732V187.68H330.982V198.732C330.982 200.136 331.684 201.072 333.178 201.072C333.448 201.072 333.682 201.036 333.97 200.964ZM343.312 201C343.096 200.352 342.916 199.38 342.916 198.3V194.376C342.916 192.738 341.926 191.316 339.568 191.316C337.894 191.316 336.436 192.072 335.716 194.088L336.796 194.412C337.3 192.954 338.308 192.432 339.496 192.432C340.972 192.432 341.728 193.278 341.728 194.52V195.78C340.954 195.51 340.198 195.42 339.424 195.42C337.462 195.42 335.698 196.446 335.698 198.408C335.698 200.046 336.976 201.144 338.668 201.144C340.216 201.144 341.458 200.244 341.944 199.128C341.944 199.848 342.052 200.478 342.196 201H343.312ZM341.728 197.04C341.728 199.362 340.126 200.1 338.884 200.1C337.732 200.1 336.922 199.488 336.922 198.336C336.922 197.076 338.056 196.428 339.496 196.428C340.234 196.428 340.99 196.518 341.728 196.824V197.04ZM349.431 191.316C348.585 191.316 347.739 191.748 347.235 192.648V191.46H346.011V201H347.235V195.132C347.235 193.206 348.063 192.396 349.161 192.396C350.133 192.396 350.457 193.026 350.457 193.98V194.916L351.573 194.7V193.764C351.573 192.144 350.673 191.316 349.431 191.316ZM359.962 198.3C359.512 199.236 358.666 200.064 357.226 200.064C355.39 200.064 354.184 198.984 354.076 196.446H360.754L360.79 195.384C360.79 192.792 359.026 191.316 356.974 191.316C354.49 191.316 352.834 193.314 352.834 196.104C352.834 199.146 354.418 201.144 357.1 201.144C359.224 201.144 360.412 199.956 360.862 198.804L359.962 198.3ZM356.974 192.396C358.378 192.396 359.638 193.296 359.584 195.438H354.076C354.238 193.17 355.534 192.396 356.974 192.396ZM366.798 191.316C365.952 191.316 365.106 191.748 364.602 192.648V191.46H363.378V201H364.602V195.132C364.602 193.206 365.43 192.396 366.528 192.396C367.5 192.396 367.824 193.026 367.824 193.98V194.916L368.94 194.7V193.764C368.94 192.144 368.04 191.316 366.798 191.316ZM376.576 189.732C377.17 189.732 377.656 189.264 377.656 188.652C377.656 188.04 377.17 187.572 376.576 187.572C375.982 187.572 375.496 188.04 375.496 188.652C375.496 189.264 375.982 189.732 376.576 189.732ZM375.964 201H377.188V191.46H375.964V201ZM384.284 191.316C383.132 191.316 382.088 191.892 381.512 192.936V191.46H380.288V201H381.512V195.636C381.512 193.728 382.286 192.432 383.96 192.432C385.292 192.432 386.084 193.08 386.084 194.808V201H387.308V194.628C387.308 192.486 386.192 191.316 384.284 191.316ZM394.251 191.316C393.099 191.316 392.055 191.892 391.479 192.936V191.46H390.255V201H391.479V195.636C391.479 193.728 392.253 192.432 393.927 192.432C395.259 192.432 396.051 193.08 396.051 194.808V201H397.275V194.628C397.275 192.486 396.159 191.316 394.251 191.316ZM404.254 191.316C403.102 191.316 402.058 191.892 401.482 192.936V187.68H400.258V201H401.482V195.636C401.482 193.728 402.256 192.432 403.93 192.432C405.262 192.432 406.054 193.08 406.054 194.808V201H407.278V194.628C407.278 192.486 406.162 191.316 404.254 191.316ZM413.86 201.144C416.218 201.144 418.108 199.2 418.108 196.212C418.108 193.26 416.236 191.316 413.86 191.316C411.484 191.316 409.612 193.26 409.612 196.212C409.612 199.2 411.502 201.144 413.86 201.144ZM413.86 200.064C412.222 200.064 410.872 198.768 410.872 196.212C410.872 193.674 412.24 192.396 413.86 192.396C415.48 192.396 416.848 193.674 416.848 196.212C416.848 198.768 415.498 200.064 413.86 200.064ZM423.583 200.964V199.884C423.403 199.938 423.205 199.956 423.007 199.956C422.251 199.956 421.819 199.542 421.819 198.732V187.68H420.595V198.732C420.595 200.136 421.297 201.072 422.791 201.072C423.061 201.072 423.295 201.036 423.583 200.964ZM432.122 187.68V193.188C431.546 191.982 430.466 191.316 429.134 191.316C426.578 191.316 424.922 193.386 424.922 196.32C424.922 199.092 426.56 201.126 428.99 201.126C430.232 201.126 431.492 200.442 432.122 199.218V201H433.346V187.68H432.122ZM429.116 200.046C427.352 200.046 426.182 198.678 426.182 196.266C426.182 193.764 427.352 192.396 429.134 192.396C431.042 192.396 432.122 193.8 432.122 196.284C432.122 198.624 431.024 200.046 429.116 200.046ZM442.878 198.3C442.428 199.236 441.582 200.064 440.142 200.064C438.306 200.064 437.1 198.984 436.992 196.446H443.67L443.706 195.384C443.706 192.792 441.942 191.316 439.89 191.316C437.406 191.316 435.75 193.314 435.75 196.104C435.75 199.146 437.334 201.144 440.016 201.144C442.14 201.144 443.328 199.956 443.778 198.804L442.878 198.3ZM439.89 192.396C441.294 192.396 442.554 193.296 442.5 195.438H436.992C437.154 193.17 438.45 192.396 439.89 192.396ZM448.026 198.624V192.468H451.122V191.46H448.026V188.688L446.802 189.408V191.46H445.002V192.468H446.802V198.588C446.802 200.28 447.882 201.144 449.178 201.144C450.024 201.144 450.708 200.838 451.338 200.1L450.69 199.38C450.24 199.848 449.862 200.064 449.286 200.064C448.692 200.064 448.026 199.74 448.026 198.624ZM462.392 191.334C461.15 191.334 459.89 192.018 459.26 193.242V191.46H458.036V204.78H459.26V199.272C459.836 200.478 460.916 201.144 462.248 201.144C464.804 201.144 466.46 199.074 466.46 196.14C466.46 193.368 464.822 191.334 462.392 191.334ZM462.248 200.064C460.34 200.064 459.26 198.66 459.26 196.176C459.26 193.836 460.358 192.414 462.266 192.414C464.03 192.414 465.2 193.782 465.2 196.194C465.2 198.696 464.03 200.064 462.248 200.064ZM472.354 190.452C473.524 190.452 474.478 189.588 474.478 188.4C474.478 187.212 473.524 186.348 472.354 186.348C471.184 186.348 470.23 187.212 470.23 188.4C470.23 189.588 471.184 190.452 472.354 190.452ZM472.354 187.176C473.038 187.176 473.578 187.608 473.578 188.4C473.578 189.21 473.038 189.624 472.354 189.624C471.67 189.624 471.13 189.21 471.13 188.4C471.13 187.608 471.67 187.176 472.354 187.176ZM476.062 201C475.846 200.352 475.666 199.38 475.666 198.3V194.376C475.666 192.738 474.676 191.316 472.318 191.316C470.644 191.316 469.186 192.072 468.466 194.088L469.546 194.412C470.05 192.954 471.058 192.432 472.246 192.432C473.722 192.432 474.478 193.278 474.478 194.52V195.78C473.704 195.51 472.948 195.42 472.174 195.42C470.212 195.42 468.448 196.446 468.448 198.408C468.448 200.046 469.726 201.144 471.418 201.144C472.966 201.144 474.208 200.244 474.694 199.128C474.694 199.848 474.802 200.478 474.946 201H476.062ZM474.478 197.04C474.478 199.362 472.876 200.1 471.634 200.1C470.482 200.1 469.672 199.488 469.672 198.336C469.672 197.076 470.806 196.428 472.246 196.428C472.984 196.428 473.74 196.518 474.478 196.824V197.04ZM489.954 187.68V193.188C489.378 191.982 488.298 191.316 486.966 191.316C484.41 191.316 482.754 193.386 482.754 196.32C482.754 199.092 484.392 201.126 486.822 201.126C488.064 201.126 489.324 200.442 489.954 199.218V201H491.178V187.68H489.954ZM486.948 200.046C485.184 200.046 484.014 198.678 484.014 196.266C484.014 193.764 485.184 192.396 486.966 192.396C488.874 192.396 489.954 193.8 489.954 196.284C489.954 198.624 488.856 200.046 486.948 200.046ZM500.71 198.3C500.26 199.236 499.414 200.064 497.974 200.064C496.138 200.064 494.932 198.984 494.824 196.446H501.502L501.538 195.384C501.538 192.792 499.774 191.316 497.722 191.316C495.238 191.316 493.582 193.314 493.582 196.104C493.582 199.146 495.166 201.144 497.848 201.144C499.972 201.144 501.16 199.956 501.61 198.804L500.71 198.3ZM497.722 192.396C499.126 192.396 500.386 193.296 500.332 195.438H494.824C494.986 193.17 496.282 192.396 497.722 192.396ZM508.122 191.316C506.97 191.316 505.926 191.892 505.35 192.936V191.46H504.126V201H505.35V195.636C505.35 193.728 506.124 192.432 507.798 192.432C509.13 192.432 509.922 193.08 509.922 194.808V201H511.146V194.628C511.146 192.486 510.03 191.316 508.122 191.316ZM518.23 193.944C518.23 195.222 519.148 196.104 520.894 196.464L522.442 196.788C523.702 197.058 524.206 197.544 524.206 198.444C524.206 199.416 523.234 200.064 521.758 200.064C520.354 200.064 519.364 199.524 518.914 198.516L517.87 198.948C518.518 200.388 519.868 201.144 521.794 201.144C523.918 201.144 525.394 199.992 525.394 198.336C525.394 196.914 524.422 196.014 522.334 195.6L521.074 195.348C519.94 195.114 519.418 194.628 519.418 193.836C519.418 192.954 520.282 192.396 521.614 192.396C522.838 192.396 523.72 192.882 524.098 193.8L525.106 193.404C524.71 192.144 523.378 191.316 521.65 191.316C519.652 191.316 518.23 192.432 518.23 193.944ZM527.48 187.752V189.588H529.352V187.752H527.48ZM527.804 201H529.028V191.46H527.804V201ZM538.716 187.68V193.188C538.14 191.982 537.06 191.316 535.728 191.316C533.172 191.316 531.516 193.386 531.516 196.32C531.516 199.092 533.154 201.126 535.584 201.126C536.826 201.126 538.086 200.442 538.716 199.218V201H539.94V187.68H538.716ZM535.71 200.046C533.946 200.046 532.776 198.678 532.776 196.266C532.776 193.764 533.946 192.396 535.728 192.396C537.636 192.396 538.716 193.8 538.716 196.284C538.716 198.624 537.618 200.046 535.71 200.046ZM549.472 198.3C549.022 199.236 548.176 200.064 546.736 200.064C544.9 200.064 543.694 198.984 543.586 196.446H550.264L550.3 195.384C550.3 192.792 548.536 191.316 546.484 191.316C544 191.316 542.344 193.314 542.344 196.104C542.344 199.146 543.928 201.144 546.61 201.144C548.734 201.144 549.922 199.956 550.372 198.804L549.472 198.3ZM546.484 192.396C547.888 192.396 549.148 193.296 549.094 195.438H543.586C543.748 193.17 545.044 192.396 546.484 192.396ZM556.884 191.316C555.732 191.316 554.688 191.892 554.112 192.936V191.46H552.888V201H554.112V195.636C554.112 193.728 554.886 192.432 556.56 192.432C557.892 192.432 558.684 193.08 558.684 194.808V201H559.908V194.628C559.908 192.486 558.792 191.316 556.884 191.316ZM576.964 191.316C575.74 191.316 574.642 192 574.102 193.26C573.76 192.018 572.806 191.316 571.384 191.316C570.268 191.316 569.26 191.892 568.684 192.954V191.46H567.46V201H568.684V195.636C568.684 193.728 569.386 192.432 571.06 192.432C572.302 192.432 573.04 193.08 573.04 194.628V201H574.264V195.636C574.264 193.728 574.966 192.432 576.64 192.432C577.882 192.432 578.62 193.08 578.62 194.628V201H579.844V194.448C579.844 192.468 578.782 191.316 576.964 191.316ZM589.898 201C589.682 200.352 589.502 199.38 589.502 198.3V194.376C589.502 192.738 588.512 191.316 586.154 191.316C584.48 191.316 583.022 192.072 582.302 194.088L583.382 194.412C583.886 192.954 584.894 192.432 586.082 192.432C587.558 192.432 588.314 193.278 588.314 194.52V195.78C587.54 195.51 586.784 195.42 586.01 195.42C584.048 195.42 582.284 196.446 582.284 198.408C582.284 200.046 583.562 201.144 585.254 201.144C586.802 201.144 588.044 200.244 588.53 199.128C588.53 199.848 588.638 200.478 588.782 201H589.898ZM588.314 197.04C588.314 199.362 586.712 200.1 585.47 200.1C584.318 200.1 583.508 199.488 583.508 198.336C583.508 197.076 584.642 196.428 586.082 196.428C586.82 196.428 587.576 196.518 588.314 196.824V197.04ZM596.593 191.316C595.441 191.316 594.397 191.892 593.821 192.936V191.46H592.597V201H593.821V195.636C593.821 193.728 594.595 192.432 596.269 192.432C597.601 192.432 598.393 193.08 598.393 194.808V201H599.617V194.628C599.617 192.486 598.501 191.316 596.593 191.316ZM303.488 228H305.036L300.806 222.456L304.964 218.46H303.344L298.808 222.942V214.68H297.584V228H298.808V224.382L299.978 223.266L303.488 228ZM310.008 228.144C312.366 228.144 314.256 226.2 314.256 223.212C314.256 220.26 312.384 218.316 310.008 218.316C307.632 218.316 305.76 220.26 305.76 223.212C305.76 226.2 307.65 228.144 310.008 228.144ZM310.008 227.064C308.37 227.064 307.02 225.768 307.02 223.212C307.02 220.674 308.388 219.396 310.008 219.396C311.628 219.396 312.996 220.674 312.996 223.212C312.996 225.768 311.646 227.064 310.008 227.064ZM326.247 218.316C325.023 218.316 323.925 219 323.385 220.26C323.043 219.018 322.089 218.316 320.667 218.316C319.551 218.316 318.543 218.892 317.967 219.954V218.46H316.743V228H317.967V222.636C317.967 220.728 318.669 219.432 320.343 219.432C321.585 219.432 322.323 220.08 322.323 221.628V228H323.547V222.636C323.547 220.728 324.249 219.432 325.923 219.432C327.165 219.432 327.903 220.08 327.903 221.628V228H329.127V221.448C329.127 219.468 328.065 218.316 326.247 218.316ZM341.575 218.316C340.351 218.316 339.253 219 338.713 220.26C338.371 219.018 337.417 218.316 335.995 218.316C334.879 218.316 333.871 218.892 333.295 219.954V218.46H332.071V228H333.295V222.636C333.295 220.728 333.997 219.432 335.671 219.432C336.913 219.432 337.651 220.08 337.651 221.628V228H338.875V222.636C338.875 220.728 339.577 219.432 341.251 219.432C342.493 219.432 343.231 220.08 343.231 221.628V228H344.455V221.448C344.455 219.468 343.393 218.316 341.575 218.316ZM353.916 225.3C353.466 226.236 352.62 227.064 351.18 227.064C349.344 227.064 348.138 225.984 348.03 223.446H354.708L354.744 222.384C354.744 219.792 352.98 218.316 350.928 218.316C348.444 218.316 346.788 220.314 346.788 223.104C346.788 226.146 348.372 228.144 351.054 228.144C353.178 228.144 354.366 226.956 354.816 225.804L353.916 225.3ZM350.928 219.396C352.332 219.396 353.592 220.296 353.538 222.438H348.03C348.192 220.17 349.488 219.396 350.928 219.396ZM360.751 218.316C359.905 218.316 359.059 218.748 358.555 219.648V218.46H357.331V228H358.555V222.132C358.555 220.206 359.383 219.396 360.481 219.396C361.453 219.396 361.777 220.026 361.777 220.98V221.916L362.893 221.7V220.764C362.893 219.144 361.993 218.316 360.751 218.316ZM363.698 228.108C364.346 228.108 364.85 227.622 364.85 226.956C364.85 226.29 364.346 225.804 363.698 225.804C363.05 225.804 362.546 226.29 362.546 226.956C362.546 227.622 363.05 228.108 363.698 228.108Z" fill="#2A2859"/>
<g clip-path="url(#clip0_4799_152352)">
<rect x="200" y="129" width="72" height="1" fill="#6FE9FF"/>
<g clip-path="url(#clip1_4799_152352)">
<rect x="200" y="116" width="24" height="24" rx="12" fill="#6FE9FF"/>
<path d="M213.83 122.818V133H211.677V124.862H211.618L209.286 126.323V124.414L211.807 122.818H213.83Z" fill="#2A2859"/>
</g>
</g>
<g clip-path="url(#clip2_4799_152352)">
<rect x="457" y="40" width="1" height="72" fill="#6FE9FF"/>
<g clip-path="url(#clip3_4799_152352)">
<rect x="444" y="40" width="24" height="24" rx="12" fill="#6FE9FF"/>
<path d="M455.33 55.04L457.808 52.674C458.872 51.652 459.502 50.812 459.502 49.468C459.502 47.872 458.214 46.472 455.918 46.472C454.112 46.472 452.446 47.494 452.11 49.776L454.154 50.112C454.322 49.09 454.812 48.418 455.89 48.418C456.632 48.418 457.178 48.908 457.178 49.608C457.178 50.392 456.814 50.84 455.918 51.736L452.376 55.264V57H459.81V55.04H455.33Z" fill="#2A2859"/>
</g>
</g>
<g clip-path="url(#clip4_4799_152352)">
<rect x="200" y="195.5" width="112" height="1" fill="#6FE9FF"/>
<g clip-path="url(#clip5_4799_152352)">
<rect x="200" y="182.5" width="24" height="24" rx="12" fill="#6FE9FF"/>
<path d="M211.975 199.639C211.232 199.639 210.571 199.512 209.991 199.256C209.414 198.998 208.958 198.643 208.624 198.192C208.292 197.738 208.122 197.215 208.112 196.621H210.279C210.292 196.87 210.374 197.089 210.523 197.278C210.675 197.463 210.877 197.607 211.129 197.71C211.381 197.813 211.665 197.864 211.979 197.864C212.308 197.864 212.598 197.806 212.85 197.69C213.101 197.574 213.299 197.414 213.441 197.208C213.584 197.003 213.655 196.766 213.655 196.497C213.655 196.225 213.579 195.985 213.426 195.776C213.277 195.564 213.062 195.398 212.78 195.279C212.502 195.16 212.17 195.1 211.786 195.1H210.836V193.519H211.786C212.11 193.519 212.397 193.463 212.646 193.35C212.898 193.237 213.093 193.082 213.232 192.883C213.372 192.681 213.441 192.445 213.441 192.177C213.441 191.922 213.38 191.698 213.257 191.506C213.138 191.31 212.969 191.158 212.75 191.048C212.535 190.939 212.283 190.884 211.994 190.884C211.703 190.884 211.436 190.937 211.194 191.043C210.952 191.146 210.758 191.294 210.612 191.486C210.466 191.678 210.389 191.903 210.379 192.162H208.315C208.325 191.575 208.493 191.058 208.818 190.611C209.142 190.163 209.58 189.814 210.13 189.562C210.684 189.307 211.308 189.179 212.004 189.179C212.707 189.179 213.322 189.307 213.849 189.562C214.376 189.817 214.785 190.162 215.077 190.596C215.372 191.027 215.518 191.511 215.514 192.048C215.518 192.618 215.34 193.093 214.982 193.474C214.628 193.856 214.165 194.098 213.595 194.2V194.28C214.344 194.376 214.914 194.636 215.305 195.06C215.7 195.481 215.895 196.008 215.892 196.641C215.895 197.221 215.728 197.737 215.39 198.188C215.055 198.638 214.593 198.993 214.003 199.251C213.413 199.51 212.737 199.639 211.975 199.639Z" fill="#2A2859"/>
</g>
</g>
<defs>
<clipPath id="clip0_4799_152352">
<rect width="72" height="24" fill="white" transform="translate(200 116)"/>
</clipPath>
<clipPath id="clip1_4799_152352">
<rect x="200" y="116" width="24" height="24" rx="12" fill="white"/>
</clipPath>
<clipPath id="clip2_4799_152352">
<rect width="24" height="72" fill="white" transform="translate(444 40)"/>
</clipPath>
<clipPath id="clip3_4799_152352">
<rect x="444" y="40" width="24" height="24" rx="12" fill="white"/>
</clipPath>
<clipPath id="clip4_4799_152352">
<rect width="112" height="24" fill="white" transform="translate(200 182.5)"/>
</clipPath>
<clipPath id="clip5_4799_152352">
<rect x="200" y="182.5" width="24" height="24" rx="12" fill="white"/>
</clipPath>
</defs>
</svg>
