<svg width="1062" height="249" viewBox="0 0 1062 249" fill="none" xmlns="http://www.w3.org/2000/svg">
<rect width="1062" height="249" fill="white"/>
<path d="M106.936 90L105.928 86.76H100.78L99.736 90H97.522L102.148 76.68H104.686L109.294 90H106.936ZM101.374 84.906H105.334L103.372 78.624L101.374 84.906ZM116.882 76.68H118.898V90H116.882V88.272C116.144 89.604 114.992 90.144 113.894 90.144C111.59 90.144 109.934 88.164 109.934 85.266C109.934 82.26 111.608 80.262 114.128 80.262C115.208 80.262 116.288 80.748 116.882 81.918V76.68ZM114.434 88.38C115.892 88.38 116.882 87.39 116.882 85.158C116.882 82.944 115.91 81.882 114.434 81.882C113.048 81.882 112.022 82.998 112.022 85.158C112.022 87.3 113.048 88.38 114.434 88.38ZM125.916 80.244C127.302 80.244 128.202 81.162 128.202 82.8V84.06L126.582 84.348V83.376C126.582 82.512 126.276 81.918 125.34 81.918C124.314 81.918 123.558 82.602 123.558 84.42V90H121.542V80.46H123.558V81.738C124.098 80.676 125.088 80.244 125.916 80.244ZM136.332 86.994L137.7 87.786C137.16 88.974 135.9 90.162 133.722 90.162C130.896 90.162 129.186 88.074 129.186 85.14C129.186 82.242 131.04 80.244 133.578 80.244C135.828 80.244 137.682 81.756 137.682 84.456L137.646 85.644H131.166C131.274 87.66 132.264 88.524 133.848 88.524C135.018 88.524 135.828 87.894 136.332 86.994ZM133.578 81.828C132.354 81.828 131.328 82.476 131.166 84.204H135.72C135.738 82.512 134.694 81.828 133.578 81.828ZM139.465 83.088C139.465 81.468 140.959 80.244 143.209 80.244C145.063 80.244 146.305 80.91 146.971 82.188L145.567 83.052C145.135 82.314 144.271 81.864 143.191 81.864C142.111 81.864 141.373 82.278 141.373 82.962C141.373 83.52 141.751 83.862 142.597 84.024L144.199 84.348C146.215 84.744 147.223 85.698 147.223 87.156C147.223 88.956 145.657 90.162 143.299 90.162C141.301 90.162 139.879 89.406 139.141 88.02L140.545 87.138C141.067 88.02 141.985 88.524 143.245 88.524C144.469 88.524 145.297 88.038 145.297 87.246C145.297 86.598 144.901 86.238 144.019 86.058L142.255 85.716C140.455 85.374 139.465 84.456 139.465 83.088ZM148.792 83.088C148.792 81.468 150.286 80.244 152.536 80.244C154.39 80.244 155.632 80.91 156.298 82.188L154.894 83.052C154.462 82.314 153.598 81.864 152.518 81.864C151.438 81.864 150.7 82.278 150.7 82.962C150.7 83.52 151.078 83.862 151.924 84.024L153.526 84.348C155.542 84.744 156.55 85.698 156.55 87.156C156.55 88.956 154.984 90.162 152.626 90.162C150.628 90.162 149.206 89.406 148.468 88.02L149.872 87.138C150.394 88.02 151.312 88.524 152.572 88.524C153.796 88.524 154.624 88.038 154.624 87.246C154.624 86.598 154.228 86.238 153.346 86.058L151.582 85.716C149.782 85.374 148.792 84.456 148.792 83.088ZM164.982 86.994L166.35 87.786C165.81 88.974 164.55 90.162 162.372 90.162C159.546 90.162 157.836 88.074 157.836 85.14C157.836 82.242 159.69 80.244 162.228 80.244C164.478 80.244 166.332 81.756 166.332 84.456L166.296 85.644H159.816C159.924 87.66 160.914 88.524 162.498 88.524C163.668 88.524 164.478 87.894 164.982 86.994ZM162.228 81.828C161.004 81.828 159.978 82.476 159.816 84.204H164.37C164.388 82.512 163.344 81.828 162.228 81.828Z" fill="#2A2859"/>
<rect width="62" height="22" transform="translate(178 73)" fill="#E5FCFF"/>
<path d="M189.924 78.64H190.96L187.166 89H186.186L182.42 78.64H183.484L186.69 87.866L189.924 78.64ZM196.992 89H196.124C196.012 88.594 195.928 88.104 195.928 87.544C195.55 88.412 194.584 89.112 193.38 89.112C192.064 89.112 191.07 88.258 191.07 86.984C191.07 85.458 192.442 84.66 193.968 84.66C194.57 84.66 195.158 84.73 195.76 84.94V83.96C195.76 82.994 195.172 82.336 194.024 82.336C193.1 82.336 192.316 82.742 191.924 83.876L191.084 83.624C191.644 82.056 192.778 81.468 194.08 81.468C195.914 81.468 196.684 82.574 196.684 83.848V86.9C196.684 87.74 196.824 88.496 196.992 89ZM195.76 85.92V85.752C195.186 85.514 194.598 85.444 194.024 85.444C192.904 85.444 192.022 85.948 192.022 86.928C192.022 87.824 192.652 88.3 193.548 88.3C194.514 88.3 195.76 87.726 195.76 85.92ZM201.415 88.972C201.191 89.028 201.009 89.056 200.799 89.056C199.637 89.056 199.091 88.328 199.091 87.236V78.64H200.043V87.236C200.043 87.866 200.379 88.188 200.967 88.188C201.121 88.188 201.275 88.174 201.415 88.132V88.972ZM209.542 82.364H207.946V82.63C208.31 83.078 208.506 83.638 208.506 84.184C208.506 85.542 207.526 86.928 205.44 86.928H205.118C204.278 86.928 203.676 87.25 203.676 87.74C203.676 88.118 203.97 88.384 204.586 88.384H207.596C208.8 88.384 209.416 88.972 209.416 89.896C209.416 91.366 207.722 92.136 205.636 92.136C203.76 92.136 202.458 91.534 202.01 90.232L202.78 89.882C203.298 91.1 204.39 91.338 205.636 91.338C207.176 91.338 208.464 90.876 208.464 89.98C208.464 89.56 208.24 89.252 207.568 89.252H204.376C203.34 89.252 202.724 88.762 202.724 87.992C202.724 87.334 203.27 86.76 204.18 86.522C203.2 86.13 202.654 85.094 202.654 84.184C202.654 82.854 203.648 81.468 205.608 81.468C206.378 81.468 206.966 81.72 207.414 82.098V81.58H209.542V82.364ZM205.594 86.144C206.91 86.144 207.568 85.234 207.568 84.184C207.568 83.148 206.91 82.28 205.594 82.28C204.264 82.28 203.592 83.162 203.592 84.184C203.592 85.22 204.264 86.144 205.594 86.144ZM212.237 80.544V81.58H214.309V82.364H212.237V89H211.285V82.364H209.885V81.58H211.285V80.544C211.285 79.256 212.125 78.528 213.273 78.528C213.805 78.528 214.421 78.738 214.771 79.298L214.197 79.872C213.973 79.536 213.637 79.34 213.245 79.34C212.755 79.34 212.237 79.634 212.237 80.544ZM218.417 81.468C219.383 81.468 220.083 82.112 220.083 83.372V84.1L219.215 84.268V83.54C219.215 82.798 218.963 82.308 218.207 82.308C217.353 82.308 216.709 82.938 216.709 84.436V89H215.757V81.58H216.709V82.504C217.101 81.804 217.759 81.468 218.417 81.468ZM222.44 80.236C221.978 80.236 221.6 79.872 221.6 79.396C221.6 78.92 221.978 78.556 222.44 78.556C222.902 78.556 223.28 78.92 223.28 79.396C223.28 79.872 222.902 80.236 222.44 80.236ZM221.964 89V81.58H222.916V89H221.964ZM226.811 87.152C226.811 88.02 227.329 88.272 227.791 88.272C228.239 88.272 228.533 88.104 228.883 87.74L229.387 88.3C228.897 88.874 228.365 89.112 227.707 89.112C226.699 89.112 225.859 88.44 225.859 87.124V82.364H224.459V81.58H225.859V79.984L226.811 79.424V81.58H229.219V82.364H226.811V87.152ZM232.225 87.152C232.225 88.02 232.743 88.272 233.205 88.272C233.653 88.272 233.947 88.104 234.297 87.74L234.801 88.3C234.311 88.874 233.779 89.112 233.121 89.112C232.113 89.112 231.273 88.44 231.273 87.124V82.364H229.873V81.58H231.273V79.984L232.225 79.424V81.58H234.633V82.364H232.225V87.152Z" fill="#2A2859"/>
<path d="M98.232 122V111.64H101.62C104.182 111.64 106.156 113.642 106.156 116.764C106.156 119.886 104.182 122 101.62 122H98.232ZM99.212 121.104H101.424C103.58 121.104 105.148 119.648 105.148 116.764C105.148 113.908 103.566 112.536 101.396 112.536H99.212V121.104ZM108.537 113.236C108.075 113.236 107.697 112.872 107.697 112.396C107.697 111.92 108.075 111.556 108.537 111.556C108.999 111.556 109.377 111.92 109.377 112.396C109.377 112.872 108.999 113.236 108.537 113.236ZM108.061 122V114.58H109.013V122H108.061ZM114.533 114.468C116.017 114.468 116.885 115.378 116.885 117.044V122H115.933V117.184C115.933 115.84 115.317 115.336 114.281 115.336C112.979 115.336 112.377 116.344 112.377 117.828V122H111.425V114.58H112.377V115.728C112.825 114.916 113.637 114.468 114.533 114.468ZM124.243 113.544V114.58H126.315V115.364H124.243V122H123.291V115.364H121.891V114.58H123.291V113.544C123.291 112.256 124.131 111.528 125.279 111.528C125.811 111.528 126.427 111.738 126.777 112.298L126.203 112.872C125.979 112.536 125.643 112.34 125.251 112.34C124.761 112.34 124.243 112.634 124.243 113.544ZM130.167 122.112C128.333 122.112 126.863 120.6 126.863 118.276C126.863 115.98 128.319 114.468 130.167 114.468C132.015 114.468 133.471 115.98 133.471 118.276C133.471 120.6 132.001 122.112 130.167 122.112ZM130.167 121.272C131.441 121.272 132.491 120.264 132.491 118.276C132.491 116.302 131.427 115.308 130.167 115.308C128.907 115.308 127.843 116.302 127.843 118.276C127.843 120.264 128.893 121.272 130.167 121.272ZM137.729 121.972C137.505 122.028 137.323 122.056 137.113 122.056C135.951 122.056 135.405 121.328 135.405 120.236V111.64H136.357V120.236C136.357 120.866 136.693 121.188 137.281 121.188C137.435 121.188 137.589 121.174 137.729 121.132V121.972ZM144.086 122L141.356 118.318L140.446 119.186V122H139.494V111.64H140.446V118.066L143.974 114.58H145.234L142 117.688L145.29 122H144.086ZM151.397 119.9L152.097 120.292C151.747 121.188 150.823 122.112 149.171 122.112C147.085 122.112 145.853 120.558 145.853 118.192C145.853 116.022 147.141 114.468 149.073 114.468C150.669 114.468 152.041 115.616 152.041 117.632L152.013 118.458H146.819C146.903 120.432 147.841 121.272 149.269 121.272C150.389 121.272 151.047 120.628 151.397 119.9ZM149.073 115.308C147.953 115.308 146.945 115.91 146.819 117.674H151.103C151.145 116.008 150.165 115.308 149.073 115.308ZM156.714 114.468C157.68 114.468 158.38 115.112 158.38 116.372V117.1L157.512 117.268V116.54C157.512 115.798 157.26 115.308 156.504 115.308C155.65 115.308 155.006 115.938 155.006 117.436V122H154.054V114.58H155.006V115.504C155.398 114.804 156.056 114.468 156.714 114.468ZM164.905 119.9L165.605 120.292C165.255 121.188 164.331 122.112 162.679 122.112C160.593 122.112 159.361 120.558 159.361 118.192C159.361 116.022 160.649 114.468 162.581 114.468C164.177 114.468 165.549 115.616 165.549 117.632L165.521 118.458H160.327C160.411 120.432 161.349 121.272 162.777 121.272C163.897 121.272 164.555 120.628 164.905 119.9ZM162.581 115.308C161.461 115.308 160.453 115.91 160.327 117.674H164.611C164.653 116.008 163.673 115.308 162.581 115.308ZM174.089 115.364H172.493V115.63C172.857 116.078 173.053 116.638 173.053 117.184C173.053 118.542 172.073 119.928 169.987 119.928H169.665C168.825 119.928 168.223 120.25 168.223 120.74C168.223 121.118 168.517 121.384 169.133 121.384H172.143C173.347 121.384 173.963 121.972 173.963 122.896C173.963 124.366 172.269 125.136 170.183 125.136C168.307 125.136 167.005 124.534 166.557 123.232L167.327 122.882C167.845 124.1 168.937 124.338 170.183 124.338C171.723 124.338 173.011 123.876 173.011 122.98C173.011 122.56 172.787 122.252 172.115 122.252H168.923C167.887 122.252 167.271 121.762 167.271 120.992C167.271 120.334 167.817 119.76 168.727 119.522C167.747 119.13 167.201 118.094 167.201 117.184C167.201 115.854 168.195 114.468 170.155 114.468C170.925 114.468 171.513 114.72 171.961 115.098V114.58H174.089V115.364ZM170.141 119.144C171.457 119.144 172.115 118.234 172.115 117.184C172.115 116.148 171.457 115.28 170.141 115.28C168.811 115.28 168.139 116.162 168.139 117.184C168.139 118.22 168.811 119.144 170.141 119.144ZM175.321 111.696H176.777V113.124H175.321V111.696ZM175.573 122V114.58H176.525V122H175.573ZM178.572 116.512C178.572 115.336 179.678 114.468 181.232 114.468C182.576 114.468 183.612 115.112 183.92 116.092L183.136 116.4C182.842 115.686 182.156 115.308 181.204 115.308C180.168 115.308 179.496 115.742 179.496 116.428C179.496 117.044 179.902 117.422 180.784 117.604L181.764 117.8C183.388 118.122 184.144 118.822 184.144 119.928C184.144 121.216 182.996 122.112 181.344 122.112C179.846 122.112 178.796 121.524 178.292 120.404L179.104 120.068C179.454 120.852 180.224 121.272 181.316 121.272C182.464 121.272 183.22 120.768 183.22 120.012C183.22 119.312 182.828 118.934 181.848 118.724L180.644 118.472C179.286 118.192 178.572 117.506 178.572 116.512ZM187.366 120.152C187.366 121.02 187.884 121.272 188.346 121.272C188.794 121.272 189.088 121.104 189.438 120.74L189.942 121.3C189.452 121.874 188.92 122.112 188.262 122.112C187.254 122.112 186.414 121.44 186.414 120.124V115.364H185.014V114.58H186.414V112.984L187.366 112.424V114.58H189.774V115.364H187.366V120.152ZM194.229 114.468C195.195 114.468 195.895 115.112 195.895 116.372V117.1L195.027 117.268V116.54C195.027 115.798 194.775 115.308 194.019 115.308C193.165 115.308 192.521 115.938 192.521 117.436V122H191.569V114.58H192.521V115.504C192.913 114.804 193.571 114.468 194.229 114.468ZM202.42 119.9L203.12 120.292C202.77 121.188 201.846 122.112 200.194 122.112C198.108 122.112 196.876 120.558 196.876 118.192C196.876 116.022 198.164 114.468 200.096 114.468C201.692 114.468 203.064 115.616 203.064 117.632L203.036 118.458H197.842C197.926 120.432 198.864 121.272 200.292 121.272C201.412 121.272 202.07 120.628 202.42 119.9ZM200.096 115.308C198.976 115.308 197.968 115.91 197.842 117.674H202.126C202.168 116.008 201.188 115.308 200.096 115.308ZM207.737 114.468C208.703 114.468 209.403 115.112 209.403 116.372V117.1L208.535 117.268V116.54C208.535 115.798 208.283 115.308 207.527 115.308C206.673 115.308 206.029 115.938 206.029 117.436V122H205.077V114.58H206.029V115.504C206.421 114.804 207.079 114.468 207.737 114.468ZM212.631 120.152C212.631 121.02 213.149 121.272 213.611 121.272C214.059 121.272 214.353 121.104 214.703 120.74L215.207 121.3C214.717 121.874 214.185 122.112 213.527 122.112C212.519 122.112 211.679 121.44 211.679 120.124V115.364H210.279V114.58H211.679V112.984L212.631 112.424V114.58H215.039V115.364H212.631V120.152ZM221.479 119.9L222.179 120.292C221.829 121.188 220.905 122.112 219.253 122.112C217.167 122.112 215.935 120.558 215.935 118.192C215.935 116.022 217.223 114.468 219.155 114.468C220.751 114.468 222.123 115.616 222.123 117.632L222.095 118.458H216.901C216.985 120.432 217.923 121.272 219.351 121.272C220.471 121.272 221.129 120.628 221.479 119.9ZM219.155 115.308C218.035 115.308 217.027 115.91 216.901 117.674H221.185C221.227 116.008 220.247 115.308 219.155 115.308ZM233.248 122H232.38C232.268 121.594 232.184 121.104 232.184 120.544C231.806 121.412 230.84 122.112 229.636 122.112C228.32 122.112 227.326 121.258 227.326 119.984C227.326 118.458 228.698 117.66 230.224 117.66C230.826 117.66 231.414 117.73 232.016 117.94V116.96C232.016 115.994 231.428 115.336 230.28 115.336C229.356 115.336 228.572 115.742 228.18 116.876L227.34 116.624C227.9 115.056 229.034 114.468 230.336 114.468C232.17 114.468 232.94 115.574 232.94 116.848V119.9C232.94 120.74 233.08 121.496 233.248 122ZM232.016 118.92V118.752C231.442 118.514 230.854 118.444 230.28 118.444C229.16 118.444 228.278 118.948 228.278 119.928C228.278 120.824 228.908 121.3 229.804 121.3C230.77 121.3 232.016 120.726 232.016 118.92ZM240.334 111.64H241.286V122H240.334V120.614C239.844 121.566 238.864 122.098 237.898 122.098C236.008 122.098 234.734 120.516 234.734 118.36C234.734 116.078 236.022 114.468 238.01 114.468C239.046 114.468 239.886 114.986 240.334 115.924V111.64ZM237.996 121.258C239.48 121.258 240.334 120.152 240.334 118.332C240.334 116.4 239.494 115.308 238.01 115.308C236.624 115.308 235.714 116.372 235.714 118.318C235.714 120.194 236.624 121.258 237.996 121.258ZM246.292 114.468C247.258 114.468 247.958 115.112 247.958 116.372V117.1L247.09 117.268V116.54C247.09 115.798 246.838 115.308 246.082 115.308C245.228 115.308 244.584 115.938 244.584 117.436V122H243.632V114.58H244.584V115.504C244.976 114.804 245.634 114.468 246.292 114.468ZM254.483 119.9L255.183 120.292C254.833 121.188 253.909 122.112 252.257 122.112C250.171 122.112 248.939 120.558 248.939 118.192C248.939 116.022 250.227 114.468 252.159 114.468C253.755 114.468 255.127 115.616 255.127 117.632L255.099 118.458H249.905C249.989 120.432 250.927 121.272 252.355 121.272C253.475 121.272 254.133 120.628 254.483 119.9ZM252.159 115.308C251.039 115.308 250.031 115.91 249.905 117.674H254.189C254.231 116.008 253.251 115.308 252.159 115.308ZM256.776 116.512C256.776 115.336 257.882 114.468 259.436 114.468C260.78 114.468 261.816 115.112 262.124 116.092L261.34 116.4C261.046 115.686 260.36 115.308 259.408 115.308C258.372 115.308 257.7 115.742 257.7 116.428C257.7 117.044 258.106 117.422 258.988 117.604L259.968 117.8C261.592 118.122 262.348 118.822 262.348 119.928C262.348 121.216 261.2 122.112 259.548 122.112C258.05 122.112 257 121.524 256.496 120.404L257.308 120.068C257.658 120.852 258.428 121.272 259.52 121.272C260.668 121.272 261.424 120.768 261.424 120.012C261.424 119.312 261.032 118.934 260.052 118.724L258.848 118.472C257.49 118.192 256.776 117.506 256.776 116.512ZM263.858 116.512C263.858 115.336 264.964 114.468 266.518 114.468C267.862 114.468 268.898 115.112 269.206 116.092L268.422 116.4C268.128 115.686 267.442 115.308 266.49 115.308C265.454 115.308 264.782 115.742 264.782 116.428C264.782 117.044 265.188 117.422 266.07 117.604L267.05 117.8C268.674 118.122 269.43 118.822 269.43 119.928C269.43 121.216 268.282 122.112 266.63 122.112C265.132 122.112 264.082 121.524 263.578 120.404L264.39 120.068C264.74 120.852 265.51 121.272 266.602 121.272C267.75 121.272 268.506 120.768 268.506 120.012C268.506 119.312 268.114 118.934 267.134 118.724L265.93 118.472C264.572 118.192 263.858 117.506 263.858 116.512ZM276.372 119.9L277.072 120.292C276.722 121.188 275.798 122.112 274.146 122.112C272.06 122.112 270.828 120.558 270.828 118.192C270.828 116.022 272.116 114.468 274.048 114.468C275.644 114.468 277.016 115.616 277.016 117.632L276.988 118.458H271.794C271.878 120.432 272.816 121.272 274.244 121.272C275.364 121.272 276.022 120.628 276.372 119.9ZM274.048 115.308C272.928 115.308 271.92 115.91 271.794 117.674H276.078C276.12 116.008 275.14 115.308 274.048 115.308Z" fill="#2A2859"/>
<rect x="98" y="137" width="398" height="46" fill="white"/>
<rect x="98" y="137" width="398" height="46" stroke="#2A2859" stroke-width="2"/>
<path d="M574.936 86L573.928 82.76H568.78L567.736 86H565.522L570.148 72.68H572.686L577.294 86H574.936ZM569.374 80.906H573.334L571.372 74.624L569.374 80.906ZM584.882 72.68H586.898V86H584.882V84.272C584.144 85.604 582.992 86.144 581.894 86.144C579.59 86.144 577.934 84.164 577.934 81.266C577.934 78.26 579.608 76.262 582.128 76.262C583.208 76.262 584.288 76.748 584.882 77.918V72.68ZM582.434 84.38C583.892 84.38 584.882 83.39 584.882 81.158C584.882 78.944 583.91 77.882 582.434 77.882C581.048 77.882 580.022 78.998 580.022 81.158C580.022 83.3 581.048 84.38 582.434 84.38ZM593.916 76.244C595.302 76.244 596.202 77.162 596.202 78.8V80.06L594.582 80.348V79.376C594.582 78.512 594.276 77.918 593.34 77.918C592.314 77.918 591.558 78.602 591.558 80.42V86H589.542V76.46H591.558V77.738C592.098 76.676 593.088 76.244 593.916 76.244ZM604.332 82.994L605.7 83.786C605.16 84.974 603.9 86.162 601.722 86.162C598.896 86.162 597.186 84.074 597.186 81.14C597.186 78.242 599.04 76.244 601.578 76.244C603.828 76.244 605.682 77.756 605.682 80.456L605.646 81.644H599.166C599.274 83.66 600.264 84.524 601.848 84.524C603.018 84.524 603.828 83.894 604.332 82.994ZM601.578 77.828C600.354 77.828 599.328 78.476 599.166 80.204H603.72C603.738 78.512 602.694 77.828 601.578 77.828ZM607.465 79.088C607.465 77.468 608.959 76.244 611.209 76.244C613.063 76.244 614.305 76.91 614.971 78.188L613.567 79.052C613.135 78.314 612.271 77.864 611.191 77.864C610.111 77.864 609.373 78.278 609.373 78.962C609.373 79.52 609.751 79.862 610.597 80.024L612.199 80.348C614.215 80.744 615.223 81.698 615.223 83.156C615.223 84.956 613.657 86.162 611.299 86.162C609.301 86.162 607.879 85.406 607.141 84.02L608.545 83.138C609.067 84.02 609.985 84.524 611.245 84.524C612.469 84.524 613.297 84.038 613.297 83.246C613.297 82.598 612.901 82.238 612.019 82.058L610.255 81.716C608.455 81.374 607.465 80.456 607.465 79.088ZM616.792 79.088C616.792 77.468 618.286 76.244 620.536 76.244C622.39 76.244 623.632 76.91 624.298 78.188L622.894 79.052C622.462 78.314 621.598 77.864 620.518 77.864C619.438 77.864 618.7 78.278 618.7 78.962C618.7 79.52 619.078 79.862 619.924 80.024L621.526 80.348C623.542 80.744 624.55 81.698 624.55 83.156C624.55 84.956 622.984 86.162 620.626 86.162C618.628 86.162 617.206 85.406 616.468 84.02L617.872 83.138C618.394 84.02 619.312 84.524 620.572 84.524C621.796 84.524 622.624 84.038 622.624 83.246C622.624 82.598 622.228 82.238 621.346 82.058L619.582 81.716C617.782 81.374 616.792 80.456 616.792 79.088ZM632.982 82.994L634.35 83.786C633.81 84.974 632.55 86.162 630.372 86.162C627.546 86.162 625.836 84.074 625.836 81.14C625.836 78.242 627.69 76.244 630.228 76.244C632.478 76.244 634.332 77.756 634.332 80.456L634.296 81.644H627.816C627.924 83.66 628.914 84.524 630.498 84.524C631.668 84.524 632.478 83.894 632.982 82.994ZM630.228 77.828C629.004 77.828 627.978 78.476 627.816 80.204H632.37C632.388 78.512 631.344 77.828 630.228 77.828Z" fill="#2A2859"/>
<rect width="62" height="22" transform="translate(646 69)" fill="#E5FCFF"/>
<path d="M657.924 74.64H658.96L655.166 85H654.186L650.42 74.64H651.484L654.69 83.866L657.924 74.64ZM664.992 85H664.124C664.012 84.594 663.928 84.104 663.928 83.544C663.55 84.412 662.584 85.112 661.38 85.112C660.064 85.112 659.07 84.258 659.07 82.984C659.07 81.458 660.442 80.66 661.968 80.66C662.57 80.66 663.158 80.73 663.76 80.94V79.96C663.76 78.994 663.172 78.336 662.024 78.336C661.1 78.336 660.316 78.742 659.924 79.876L659.084 79.624C659.644 78.056 660.778 77.468 662.08 77.468C663.914 77.468 664.684 78.574 664.684 79.848V82.9C664.684 83.74 664.824 84.496 664.992 85ZM663.76 81.92V81.752C663.186 81.514 662.598 81.444 662.024 81.444C660.904 81.444 660.022 81.948 660.022 82.928C660.022 83.824 660.652 84.3 661.548 84.3C662.514 84.3 663.76 83.726 663.76 81.92ZM669.415 84.972C669.191 85.028 669.009 85.056 668.799 85.056C667.637 85.056 667.091 84.328 667.091 83.236V74.64H668.043V83.236C668.043 83.866 668.379 84.188 668.967 84.188C669.121 84.188 669.275 84.174 669.415 84.132V84.972ZM677.542 78.364H675.946V78.63C676.31 79.078 676.506 79.638 676.506 80.184C676.506 81.542 675.526 82.928 673.44 82.928H673.118C672.278 82.928 671.676 83.25 671.676 83.74C671.676 84.118 671.97 84.384 672.586 84.384H675.596C676.8 84.384 677.416 84.972 677.416 85.896C677.416 87.366 675.722 88.136 673.636 88.136C671.76 88.136 670.458 87.534 670.01 86.232L670.78 85.882C671.298 87.1 672.39 87.338 673.636 87.338C675.176 87.338 676.464 86.876 676.464 85.98C676.464 85.56 676.24 85.252 675.568 85.252H672.376C671.34 85.252 670.724 84.762 670.724 83.992C670.724 83.334 671.27 82.76 672.18 82.522C671.2 82.13 670.654 81.094 670.654 80.184C670.654 78.854 671.648 77.468 673.608 77.468C674.378 77.468 674.966 77.72 675.414 78.098V77.58H677.542V78.364ZM673.594 82.144C674.91 82.144 675.568 81.234 675.568 80.184C675.568 79.148 674.91 78.28 673.594 78.28C672.264 78.28 671.592 79.162 671.592 80.184C671.592 81.22 672.264 82.144 673.594 82.144ZM680.237 76.544V77.58H682.309V78.364H680.237V85H679.285V78.364H677.885V77.58H679.285V76.544C679.285 75.256 680.125 74.528 681.273 74.528C681.805 74.528 682.421 74.738 682.771 75.298L682.197 75.872C681.973 75.536 681.637 75.34 681.245 75.34C680.755 75.34 680.237 75.634 680.237 76.544ZM686.417 77.468C687.383 77.468 688.083 78.112 688.083 79.372V80.1L687.215 80.268V79.54C687.215 78.798 686.963 78.308 686.207 78.308C685.353 78.308 684.709 78.938 684.709 80.436V85H683.757V77.58H684.709V78.504C685.101 77.804 685.759 77.468 686.417 77.468ZM690.44 76.236C689.978 76.236 689.6 75.872 689.6 75.396C689.6 74.92 689.978 74.556 690.44 74.556C690.902 74.556 691.28 74.92 691.28 75.396C691.28 75.872 690.902 76.236 690.44 76.236ZM689.964 85V77.58H690.916V85H689.964ZM694.811 83.152C694.811 84.02 695.329 84.272 695.791 84.272C696.239 84.272 696.533 84.104 696.883 83.74L697.387 84.3C696.897 84.874 696.365 85.112 695.707 85.112C694.699 85.112 693.859 84.44 693.859 83.124V78.364H692.459V77.58H693.859V75.984L694.811 75.424V77.58H697.219V78.364H694.811V83.152ZM700.225 83.152C700.225 84.02 700.743 84.272 701.205 84.272C701.653 84.272 701.947 84.104 702.297 83.74L702.801 84.3C702.311 84.874 701.779 85.112 701.121 85.112C700.113 85.112 699.273 84.44 699.273 83.124V78.364H697.873V77.58H699.273V75.984L700.225 75.424V77.58H702.633V78.364H700.225V83.152Z" fill="#2A2859"/>
<path d="M572.476 107.64H573.456V118H572.476V113.24H567.212V118H566.232V107.64H567.212V112.316H572.476V107.64ZM580.629 110.58H581.609L578.697 118H577.857L574.945 110.58H575.981L578.305 116.95L580.629 110.58ZM588.318 118H587.45C587.338 117.594 587.254 117.104 587.254 116.544C586.876 117.412 585.91 118.112 584.706 118.112C583.39 118.112 582.396 117.258 582.396 115.984C582.396 114.458 583.768 113.66 585.294 113.66C585.896 113.66 586.484 113.73 587.086 113.94V112.96C587.086 111.994 586.498 111.336 585.35 111.336C584.426 111.336 583.642 111.742 583.25 112.876L582.41 112.624C582.97 111.056 584.104 110.468 585.406 110.468C587.24 110.468 588.01 111.574 588.01 112.848V115.9C588.01 116.74 588.15 117.496 588.318 118ZM587.086 114.92V114.752C586.512 114.514 585.924 114.444 585.35 114.444C584.23 114.444 583.348 114.948 583.348 115.928C583.348 116.824 583.978 117.3 584.874 117.3C585.84 117.3 587.086 116.726 587.086 114.92ZM601.391 110.468C602.805 110.468 603.631 111.364 603.631 112.904V118H602.679V113.044C602.679 111.84 602.105 111.336 601.139 111.336C599.837 111.336 599.291 112.344 599.291 113.828V118H598.339V113.044C598.339 111.84 597.765 111.336 596.799 111.336C595.497 111.336 594.951 112.344 594.951 113.828V118H593.999V110.58H594.951V111.742C595.399 110.916 596.183 110.468 597.051 110.468C598.157 110.468 598.899 111.014 599.165 111.98C599.585 111 600.439 110.468 601.391 110.468ZM610.989 115.9L611.689 116.292C611.339 117.188 610.415 118.112 608.763 118.112C606.677 118.112 605.445 116.558 605.445 114.192C605.445 112.022 606.733 110.468 608.665 110.468C610.261 110.468 611.633 111.616 611.633 113.632L611.605 114.458H606.411C606.495 116.432 607.433 117.272 608.861 117.272C609.981 117.272 610.639 116.628 610.989 115.9ZM608.665 111.308C607.545 111.308 606.537 111.91 606.411 113.674H610.695C610.737 112.008 609.757 111.308 608.665 111.308ZM616.753 110.468C618.237 110.468 619.105 111.378 619.105 113.044V118H618.153V113.184C618.153 111.84 617.537 111.336 616.501 111.336C615.199 111.336 614.597 112.344 614.597 113.828V118H613.645V110.58H614.597V111.728C615.045 110.916 615.857 110.468 616.753 110.468ZM626.465 115.9L627.165 116.292C626.815 117.188 625.891 118.112 624.239 118.112C622.153 118.112 620.921 116.558 620.921 114.192C620.921 112.022 622.209 110.468 624.141 110.468C625.737 110.468 627.109 111.616 627.109 113.632L627.081 114.458H621.887C621.971 116.432 622.909 117.272 624.337 117.272C625.457 117.272 626.115 116.628 626.465 115.9ZM624.141 111.308C623.021 111.308 622.013 111.91 621.887 113.674H626.171C626.213 112.008 625.233 111.308 624.141 111.308ZM628.758 112.512C628.758 111.336 629.864 110.468 631.418 110.468C632.762 110.468 633.798 111.112 634.106 112.092L633.322 112.4C633.028 111.686 632.342 111.308 631.39 111.308C630.354 111.308 629.682 111.742 629.682 112.428C629.682 113.044 630.088 113.422 630.97 113.604L631.95 113.8C633.574 114.122 634.33 114.822 634.33 115.928C634.33 117.216 633.182 118.112 631.53 118.112C630.032 118.112 628.982 117.524 628.478 116.404L629.29 116.068C629.64 116.852 630.41 117.272 631.502 117.272C632.65 117.272 633.406 116.768 633.406 116.012C633.406 115.312 633.014 114.934 632.034 114.724L630.83 114.472C629.472 114.192 628.758 113.506 628.758 112.512ZM647.178 110.468C648.592 110.468 649.418 111.364 649.418 112.904V118H648.466V113.044C648.466 111.84 647.892 111.336 646.926 111.336C645.624 111.336 645.078 112.344 645.078 113.828V118H644.126V113.044C644.126 111.84 643.552 111.336 642.586 111.336C641.284 111.336 640.738 112.344 640.738 113.828V118H639.786V110.58H640.738V111.742C641.186 110.916 641.97 110.468 642.838 110.468C643.944 110.468 644.686 111.014 644.952 111.98C645.372 111 646.226 110.468 647.178 110.468ZM656.776 115.9L657.476 116.292C657.126 117.188 656.202 118.112 654.55 118.112C652.464 118.112 651.232 116.558 651.232 114.192C651.232 112.022 652.52 110.468 654.452 110.468C656.048 110.468 657.42 111.616 657.42 113.632L657.392 114.458H652.198C652.282 116.432 653.22 117.272 654.648 117.272C655.768 117.272 656.426 116.628 656.776 115.9ZM654.452 111.308C653.332 111.308 652.324 111.91 652.198 113.674H656.482C656.524 112.008 655.544 111.308 654.452 111.308ZM664.557 107.64H665.509V118H664.557V116.614C664.067 117.566 663.087 118.098 662.121 118.098C660.231 118.098 658.957 116.516 658.957 114.36C658.957 112.078 660.245 110.468 662.233 110.468C663.269 110.468 664.109 110.986 664.557 111.924V107.64ZM662.219 117.258C663.703 117.258 664.557 116.152 664.557 114.332C664.557 112.4 663.717 111.308 662.233 111.308C660.847 111.308 659.937 112.372 659.937 114.318C659.937 116.194 660.847 117.258 662.219 117.258ZM676.966 118H676.098C675.986 117.594 675.902 117.104 675.902 116.544C675.524 117.412 674.558 118.112 673.354 118.112C672.038 118.112 671.044 117.258 671.044 115.984C671.044 114.458 672.416 113.66 673.942 113.66C674.544 113.66 675.132 113.73 675.734 113.94V112.96C675.734 111.994 675.146 111.336 673.998 111.336C673.074 111.336 672.29 111.742 671.898 112.876L671.058 112.624C671.618 111.056 672.752 110.468 674.054 110.468C675.888 110.468 676.658 111.574 676.658 112.848V115.9C676.658 116.74 676.798 117.496 676.966 118ZM675.734 114.92V114.752C675.16 114.514 674.572 114.444 673.998 114.444C672.878 114.444 671.996 114.948 671.996 115.928C671.996 116.824 672.626 117.3 673.522 117.3C674.488 117.3 675.734 116.726 675.734 114.92ZM684.053 107.64H685.005V118H684.053V116.614C683.563 117.566 682.583 118.098 681.617 118.098C679.727 118.098 678.453 116.516 678.453 114.36C678.453 112.078 679.741 110.468 681.729 110.468C682.765 110.468 683.605 110.986 684.053 111.924V107.64ZM681.715 117.258C683.199 117.258 684.053 116.152 684.053 114.332C684.053 112.4 683.213 111.308 681.729 111.308C680.343 111.308 679.433 112.372 679.433 114.318C679.433 116.194 680.343 117.258 681.715 117.258ZM690.01 110.468C690.976 110.468 691.676 111.112 691.676 112.372V113.1L690.808 113.268V112.54C690.808 111.798 690.556 111.308 689.8 111.308C688.946 111.308 688.302 111.938 688.302 113.436V118H687.35V110.58H688.302V111.504C688.694 110.804 689.352 110.468 690.01 110.468ZM698.202 115.9L698.902 116.292C698.552 117.188 697.628 118.112 695.976 118.112C693.89 118.112 692.658 116.558 692.658 114.192C692.658 112.022 693.946 110.468 695.878 110.468C697.474 110.468 698.846 111.616 698.846 113.632L698.818 114.458H693.624C693.708 116.432 694.646 117.272 696.074 117.272C697.194 117.272 697.852 116.628 698.202 115.9ZM695.878 111.308C694.758 111.308 693.75 111.91 693.624 113.674H697.908C697.95 112.008 696.97 111.308 695.878 111.308ZM700.494 112.512C700.494 111.336 701.6 110.468 703.154 110.468C704.498 110.468 705.534 111.112 705.842 112.092L705.058 112.4C704.764 111.686 704.078 111.308 703.126 111.308C702.09 111.308 701.418 111.742 701.418 112.428C701.418 113.044 701.824 113.422 702.706 113.604L703.686 113.8C705.31 114.122 706.066 114.822 706.066 115.928C706.066 117.216 704.918 118.112 703.266 118.112C701.768 118.112 700.718 117.524 700.214 116.404L701.026 116.068C701.376 116.852 702.146 117.272 703.238 117.272C704.386 117.272 705.142 116.768 705.142 116.012C705.142 115.312 704.75 114.934 703.77 114.724L702.566 114.472C701.208 114.192 700.494 113.506 700.494 112.512ZM707.576 112.512C707.576 111.336 708.682 110.468 710.236 110.468C711.58 110.468 712.616 111.112 712.924 112.092L712.14 112.4C711.846 111.686 711.16 111.308 710.208 111.308C709.172 111.308 708.5 111.742 708.5 112.428C708.5 113.044 708.906 113.422 709.788 113.604L710.768 113.8C712.392 114.122 713.148 114.822 713.148 115.928C713.148 117.216 712 118.112 710.348 118.112C708.85 118.112 707.8 117.524 707.296 116.404L708.108 116.068C708.458 116.852 709.228 117.272 710.32 117.272C711.468 117.272 712.224 116.768 712.224 116.012C712.224 115.312 711.832 114.934 710.852 114.724L709.648 114.472C708.29 114.192 707.576 113.506 707.576 112.512ZM720.09 115.9L720.79 116.292C720.44 117.188 719.516 118.112 717.864 118.112C715.778 118.112 714.546 116.558 714.546 114.192C714.546 112.022 715.834 110.468 717.766 110.468C719.362 110.468 720.734 111.616 720.734 113.632L720.706 114.458H715.512C715.596 116.432 716.534 117.272 717.962 117.272C719.082 117.272 719.74 116.628 720.09 115.9ZM717.766 111.308C716.646 111.308 715.638 111.91 715.512 113.674H719.796C719.838 112.008 718.858 111.308 717.766 111.308ZM725.043 107.528C726.877 107.528 728.109 108.676 728.109 110.314C728.109 112.022 726.807 113.03 725.113 113.45L725.085 114.92H724.301L724.245 112.82C726.009 112.526 727.171 111.854 727.171 110.3C727.171 109.096 726.331 108.396 725.001 108.396C724.063 108.396 723.195 108.9 722.593 109.908L721.823 109.46C722.635 108.172 723.797 107.528 725.043 107.528ZM724.707 116.292C725.211 116.292 725.603 116.67 725.603 117.188C725.603 117.706 725.211 118.084 724.707 118.084C724.203 118.084 723.811 117.706 723.811 117.188C723.811 116.67 724.203 116.292 724.707 116.292Z" fill="#2A2859"/>
<path fill-rule="evenodd" clip-rule="evenodd" d="M746 115.92L740.56 110.625L739.812 111.353L746 117.375L752.188 111.353L751.44 110.625L746 115.92Z" fill="#2A2859"/>
<rect x="566" y="133" width="398" height="46" fill="white"/>
<rect x="566" y="133" width="398" height="46" stroke="#2A2859" stroke-width="2"/>
</svg>
