<svg width="1140" height="328" viewBox="0 0 1140 328" fill="none" xmlns="http://www.w3.org/2000/svg">
<rect width="1140" height="328" fill="white"/>
<path d="M564.672 134.056H571.152V136H562.566V122.68H571.044V124.624H564.672V128.35H569.586V130.294H564.672V134.056ZM575.487 133.048C575.487 134.11 576.135 134.434 576.801 134.434C577.323 134.434 577.737 134.218 578.151 133.804L579.015 135.1C578.295 135.82 577.503 136.162 576.477 136.162C574.821 136.162 573.471 135.154 573.471 133.174V128.026H571.797V126.46H573.471V124.336L575.487 123.418V126.46H578.853V128.026H575.487V133.048ZM581.769 124.876C580.977 124.876 580.347 124.264 580.347 123.454C580.347 122.644 580.977 122.032 581.769 122.032C582.561 122.032 583.173 122.644 583.173 123.454C583.173 124.264 582.561 124.876 581.769 124.876ZM580.761 136V126.46H582.777V136H580.761ZM591.671 136L588.773 131.626L587.675 132.706V136H585.659V122.68H587.675V130.42L591.527 126.46H594.011L590.105 130.312L594.083 136H591.671ZM601.679 132.994L603.047 133.786C602.507 134.974 601.247 136.162 599.069 136.162C596.243 136.162 594.533 134.074 594.533 131.14C594.533 128.242 596.387 126.244 598.925 126.244C601.175 126.244 603.029 127.756 603.029 130.456L602.993 131.644H596.513C596.621 133.66 597.611 134.524 599.195 134.524C600.365 134.524 601.175 133.894 601.679 132.994ZM598.925 127.828C597.701 127.828 596.675 128.476 596.513 130.204H601.067C601.085 128.512 600.041 127.828 598.925 127.828ZM607.84 133.048C607.84 134.11 608.488 134.434 609.154 134.434C609.676 134.434 610.09 134.218 610.504 133.804L611.368 135.1C610.648 135.82 609.856 136.162 608.83 136.162C607.174 136.162 605.824 135.154 605.824 133.174V128.026H604.15V126.46H605.824V124.336L607.84 123.418V126.46H611.206V128.026H607.84V133.048ZM615.655 133.048C615.655 134.11 616.303 134.434 616.969 134.434C617.491 134.434 617.905 134.218 618.319 133.804L619.183 135.1C618.463 135.82 617.671 136.162 616.645 136.162C614.989 136.162 613.639 135.154 613.639 133.174V128.026H611.965V126.46H613.639V124.336L615.655 123.418V126.46H619.021V128.026H615.655V133.048Z" fill="#2A2859"/>
<rect width="62" height="22" transform="translate(630 119)" fill="#E5FCFF"/>
<path d="M641.924 124.64H642.96L639.166 135H638.186L634.42 124.64H635.484L638.69 133.866L641.924 124.64ZM648.992 135H648.124C648.012 134.594 647.928 134.104 647.928 133.544C647.55 134.412 646.584 135.112 645.38 135.112C644.064 135.112 643.07 134.258 643.07 132.984C643.07 131.458 644.442 130.66 645.968 130.66C646.57 130.66 647.158 130.73 647.76 130.94V129.96C647.76 128.994 647.172 128.336 646.024 128.336C645.1 128.336 644.316 128.742 643.924 129.876L643.084 129.624C643.644 128.056 644.778 127.468 646.08 127.468C647.914 127.468 648.684 128.574 648.684 129.848V132.9C648.684 133.74 648.824 134.496 648.992 135ZM647.76 131.92V131.752C647.186 131.514 646.598 131.444 646.024 131.444C644.904 131.444 644.022 131.948 644.022 132.928C644.022 133.824 644.652 134.3 645.548 134.3C646.514 134.3 647.76 133.726 647.76 131.92ZM653.415 134.972C653.191 135.028 653.009 135.056 652.799 135.056C651.637 135.056 651.091 134.328 651.091 133.236V124.64H652.043V133.236C652.043 133.866 652.379 134.188 652.967 134.188C653.121 134.188 653.275 134.174 653.415 134.132V134.972ZM661.542 128.364H659.946V128.63C660.31 129.078 660.506 129.638 660.506 130.184C660.506 131.542 659.526 132.928 657.44 132.928H657.118C656.278 132.928 655.676 133.25 655.676 133.74C655.676 134.118 655.97 134.384 656.586 134.384H659.596C660.8 134.384 661.416 134.972 661.416 135.896C661.416 137.366 659.722 138.136 657.636 138.136C655.76 138.136 654.458 137.534 654.01 136.232L654.78 135.882C655.298 137.1 656.39 137.338 657.636 137.338C659.176 137.338 660.464 136.876 660.464 135.98C660.464 135.56 660.24 135.252 659.568 135.252H656.376C655.34 135.252 654.724 134.762 654.724 133.992C654.724 133.334 655.27 132.76 656.18 132.522C655.2 132.13 654.654 131.094 654.654 130.184C654.654 128.854 655.648 127.468 657.608 127.468C658.378 127.468 658.966 127.72 659.414 128.098V127.58H661.542V128.364ZM657.594 132.144C658.91 132.144 659.568 131.234 659.568 130.184C659.568 129.148 658.91 128.28 657.594 128.28C656.264 128.28 655.592 129.162 655.592 130.184C655.592 131.22 656.264 132.144 657.594 132.144ZM664.237 126.544V127.58H666.309V128.364H664.237V135H663.285V128.364H661.885V127.58H663.285V126.544C663.285 125.256 664.125 124.528 665.273 124.528C665.805 124.528 666.421 124.738 666.771 125.298L666.197 125.872C665.973 125.536 665.637 125.34 665.245 125.34C664.755 125.34 664.237 125.634 664.237 126.544ZM670.417 127.468C671.383 127.468 672.083 128.112 672.083 129.372V130.1L671.215 130.268V129.54C671.215 128.798 670.963 128.308 670.207 128.308C669.353 128.308 668.709 128.938 668.709 130.436V135H667.757V127.58H668.709V128.504C669.101 127.804 669.759 127.468 670.417 127.468ZM674.44 126.236C673.978 126.236 673.6 125.872 673.6 125.396C673.6 124.92 673.978 124.556 674.44 124.556C674.902 124.556 675.28 124.92 675.28 125.396C675.28 125.872 674.902 126.236 674.44 126.236ZM673.964 135V127.58H674.916V135H673.964ZM678.811 133.152C678.811 134.02 679.329 134.272 679.791 134.272C680.239 134.272 680.533 134.104 680.883 133.74L681.387 134.3C680.897 134.874 680.365 135.112 679.707 135.112C678.699 135.112 677.859 134.44 677.859 133.124V128.364H676.459V127.58H677.859V125.984L678.811 125.424V127.58H681.219V128.364H678.811V133.152ZM684.225 133.152C684.225 134.02 684.743 134.272 685.205 134.272C685.653 134.272 685.947 134.104 686.297 133.74L686.801 134.3C686.311 134.874 685.779 135.112 685.121 135.112C684.113 135.112 683.273 134.44 683.273 133.124V128.364H681.873V127.58H683.273V125.984L684.225 125.424V127.58H686.633V128.364H684.225V133.152Z" fill="#2A2859"/>
<path d="M562.232 168V157.64H565.62C568.182 157.64 570.156 159.642 570.156 162.764C570.156 165.886 568.182 168 565.62 168H562.232ZM563.212 167.104H565.424C567.58 167.104 569.148 165.648 569.148 162.764C569.148 159.908 567.566 158.536 565.396 158.536H563.212V167.104ZM577.129 165.9L577.829 166.292C577.479 167.188 576.555 168.112 574.903 168.112C572.817 168.112 571.585 166.558 571.585 164.192C571.585 162.022 572.873 160.468 574.805 160.468C576.401 160.468 577.773 161.616 577.773 163.632L577.745 164.458H572.551C572.635 166.432 573.573 167.272 575.001 167.272C576.121 167.272 576.779 166.628 577.129 165.9ZM574.805 161.308C573.685 161.308 572.677 161.91 572.551 163.674H576.835C576.877 162.008 575.897 161.308 574.805 161.308ZM581.133 166.152C581.133 167.02 581.651 167.272 582.113 167.272C582.561 167.272 582.855 167.104 583.205 166.74L583.709 167.3C583.219 167.874 582.687 168.112 582.029 168.112C581.021 168.112 580.181 167.44 580.181 166.124V161.364H578.781V160.58H580.181V158.984L581.133 158.424V160.58H583.541V161.364H581.133V166.152ZM586.547 166.152C586.547 167.02 587.065 167.272 587.527 167.272C587.975 167.272 588.269 167.104 588.619 166.74L589.123 167.3C588.633 167.874 588.101 168.112 587.443 168.112C586.435 168.112 585.595 167.44 585.595 166.124V161.364H584.195V160.58H585.595V158.984L586.547 158.424V160.58H588.955V161.364H586.547V166.152ZM595.395 165.9L596.095 166.292C595.745 167.188 594.821 168.112 593.169 168.112C591.083 168.112 589.851 166.558 589.851 164.192C589.851 162.022 591.139 160.468 593.071 160.468C594.667 160.468 596.039 161.616 596.039 163.632L596.011 164.458H590.817C590.901 166.432 591.839 167.272 593.267 167.272C594.387 167.272 595.045 166.628 595.395 165.9ZM593.071 161.308C591.951 161.308 590.943 161.91 590.817 163.674H595.101C595.143 162.008 594.163 161.308 593.071 161.308ZM606.702 165.9L607.402 166.292C607.052 167.188 606.128 168.112 604.476 168.112C602.39 168.112 601.158 166.558 601.158 164.192C601.158 162.022 602.446 160.468 604.378 160.468C605.974 160.468 607.346 161.616 607.346 163.632L607.318 164.458H602.124C602.208 166.432 603.146 167.272 604.574 167.272C605.694 167.272 606.352 166.628 606.702 165.9ZM604.378 161.308C603.258 161.308 602.25 161.91 602.124 163.674H606.408C606.45 162.008 605.47 161.308 604.378 161.308ZM612.018 160.468C612.984 160.468 613.684 161.112 613.684 162.372V163.1L612.816 163.268V162.54C612.816 161.798 612.564 161.308 611.808 161.308C610.954 161.308 610.31 161.938 610.31 163.436V168H609.358V160.58H610.31V161.504C610.702 160.804 611.36 160.468 612.018 160.468ZM620.631 166.152C620.631 167.02 621.149 167.272 621.611 167.272C622.059 167.272 622.353 167.104 622.703 166.74L623.207 167.3C622.717 167.874 622.185 168.112 621.527 168.112C620.519 168.112 619.679 167.44 619.679 166.124V161.364H618.279V160.58H619.679V158.984L620.631 158.424V160.58H623.039V161.364H620.631V166.152ZM629.479 165.9L630.179 166.292C629.829 167.188 628.905 168.112 627.253 168.112C625.167 168.112 623.935 166.558 623.935 164.192C623.935 162.022 625.223 160.468 627.155 160.468C628.751 160.468 630.123 161.616 630.123 163.632L630.095 164.458H624.901C624.985 166.432 625.923 167.272 627.351 167.272C628.471 167.272 629.129 166.628 629.479 165.9ZM627.155 161.308C626.035 161.308 625.027 161.91 624.901 163.674H629.185C629.227 162.008 628.247 161.308 627.155 161.308ZM636.756 168L634.026 164.318L633.116 165.186V168H632.164V157.64H633.116V164.066L636.644 160.58H637.904L634.67 163.688L637.96 168H636.756ZM638.772 162.512C638.772 161.336 639.878 160.468 641.432 160.468C642.776 160.468 643.812 161.112 644.12 162.092L643.336 162.4C643.042 161.686 642.356 161.308 641.404 161.308C640.368 161.308 639.696 161.742 639.696 162.428C639.696 163.044 640.102 163.422 640.984 163.604L641.964 163.8C643.588 164.122 644.344 164.822 644.344 165.928C644.344 167.216 643.196 168.112 641.544 168.112C640.046 168.112 638.996 167.524 638.492 166.404L639.304 166.068C639.654 166.852 640.424 167.272 641.516 167.272C642.664 167.272 643.42 166.768 643.42 166.012C643.42 165.312 643.028 164.934 642.048 164.724L640.844 164.472C639.486 164.192 638.772 163.506 638.772 162.512ZM647.565 166.152C647.565 167.02 648.083 167.272 648.545 167.272C648.993 167.272 649.287 167.104 649.637 166.74L650.141 167.3C649.651 167.874 649.119 168.112 648.461 168.112C647.453 168.112 646.613 167.44 646.613 166.124V161.364H645.213V160.58H646.613V158.984L647.565 158.424V160.58H649.973V161.364H647.565V166.152ZM658.178 168.112C656.344 168.112 654.874 166.6 654.874 164.276C654.874 161.98 656.33 160.468 658.178 160.468C660.026 160.468 661.482 161.98 661.482 164.276C661.482 166.6 660.012 168.112 658.178 168.112ZM658.178 167.272C659.452 167.272 660.502 166.264 660.502 164.276C660.502 162.302 659.438 161.308 658.178 161.308C656.918 161.308 655.854 162.302 655.854 164.276C655.854 166.264 656.904 167.272 658.178 167.272ZM667.875 160.58H668.855L665.943 168H665.103L662.191 160.58H663.227L665.551 166.95L667.875 160.58ZM675.102 165.9L675.802 166.292C675.452 167.188 674.528 168.112 672.876 168.112C670.79 168.112 669.558 166.558 669.558 164.192C669.558 162.022 670.846 160.468 672.778 160.468C674.374 160.468 675.746 161.616 675.746 163.632L675.718 164.458H670.524C670.608 166.432 671.546 167.272 672.974 167.272C674.094 167.272 674.752 166.628 675.102 165.9ZM672.778 161.308C671.658 161.308 670.65 161.91 670.524 163.674H674.808C674.85 162.008 673.87 161.308 672.778 161.308ZM680.419 160.468C681.385 160.468 682.085 161.112 682.085 162.372V163.1L681.217 163.268V162.54C681.217 161.798 680.965 161.308 680.209 161.308C679.355 161.308 678.711 161.938 678.711 163.436V168H677.759V160.58H678.711V161.504C679.103 160.804 679.761 160.468 680.419 160.468ZM688.024 159.236C687.562 159.236 687.184 158.872 687.184 158.396C687.184 157.92 687.562 157.556 688.024 157.556C688.486 157.556 688.864 157.92 688.864 158.396C688.864 158.872 688.486 159.236 688.024 159.236ZM687.548 168V160.58H688.5V168H687.548ZM694.019 160.468C695.503 160.468 696.371 161.378 696.371 163.044V168H695.419V163.184C695.419 161.84 694.803 161.336 693.767 161.336C692.465 161.336 691.863 162.344 691.863 163.828V168H690.911V160.58H691.863V161.728C692.311 160.916 693.123 160.468 694.019 160.468ZM702.051 160.482C703.941 160.482 705.215 162.064 705.215 164.22C705.215 166.502 703.927 168.112 701.939 168.112C700.903 168.112 700.063 167.594 699.615 166.656V170.94H698.663V160.58H699.615V161.966C700.105 161.014 701.085 160.482 702.051 160.482ZM701.939 167.272C703.325 167.272 704.235 166.208 704.235 164.262C704.235 162.386 703.325 161.322 701.953 161.322C700.469 161.322 699.615 162.428 699.615 164.248C699.615 166.18 700.455 167.272 701.939 167.272ZM711.465 160.58H712.417V168H711.465V166.866C711.017 167.664 710.233 168.112 709.323 168.112C707.867 168.112 706.985 167.174 706.985 165.564V160.58H707.937V165.48C707.937 166.698 708.553 167.258 709.589 167.258C710.905 167.258 711.465 166.208 711.465 164.752V160.58ZM716.252 166.152C716.252 167.02 716.77 167.272 717.232 167.272C717.68 167.272 717.974 167.104 718.324 166.74L718.828 167.3C718.338 167.874 717.806 168.112 717.148 168.112C716.14 168.112 715.3 167.44 715.3 166.124V161.364H713.9V160.58H715.3V158.984L716.252 158.424V160.58H718.66V161.364H716.252V166.152ZM721.667 159.544V160.58H723.739V161.364H721.667V168H720.715V161.364H719.315V160.58H720.715V159.544C720.715 158.256 721.555 157.528 722.703 157.528C723.235 157.528 723.851 157.738 724.201 158.298L723.627 158.872C723.403 158.536 723.067 158.34 722.675 158.34C722.185 158.34 721.667 158.634 721.667 159.544ZM729.831 165.9L730.531 166.292C730.181 167.188 729.257 168.112 727.605 168.112C725.519 168.112 724.287 166.558 724.287 164.192C724.287 162.022 725.575 160.468 727.507 160.468C729.103 160.468 730.475 161.616 730.475 163.632L730.447 164.458H725.253C725.337 166.432 726.275 167.272 727.703 167.272C728.823 167.272 729.481 166.628 729.831 165.9ZM727.507 161.308C726.387 161.308 725.379 161.91 725.253 163.674H729.537C729.579 162.008 728.599 161.308 727.507 161.308ZM734.811 167.972C734.587 168.028 734.405 168.056 734.195 168.056C733.033 168.056 732.487 167.328 732.487 166.236V157.64H733.439V166.236C733.439 166.866 733.775 167.188 734.363 167.188C734.517 167.188 734.671 167.174 734.811 167.132V167.972ZM737.895 166.152C737.895 167.02 738.413 167.272 738.875 167.272C739.323 167.272 739.617 167.104 739.967 166.74L740.471 167.3C739.981 167.874 739.449 168.112 738.791 168.112C737.783 168.112 736.943 167.44 736.943 166.124V161.364H735.543V160.58H736.943V158.984L737.895 158.424V160.58H740.303V161.364H737.895V166.152ZM746.743 165.9L747.443 166.292C747.093 167.188 746.169 168.112 744.517 168.112C742.431 168.112 741.199 166.558 741.199 164.192C741.199 162.022 742.487 160.468 744.419 160.468C746.015 160.468 747.387 161.616 747.387 163.632L747.359 164.458H742.165C742.249 166.432 743.187 167.272 744.615 167.272C745.735 167.272 746.393 166.628 746.743 165.9ZM744.419 161.308C743.299 161.308 742.291 161.91 742.165 163.674H746.449C746.491 162.008 745.511 161.308 744.419 161.308ZM750.747 166.152C750.747 167.02 751.265 167.272 751.727 167.272C752.175 167.272 752.469 167.104 752.819 166.74L753.323 167.3C752.833 167.874 752.301 168.112 751.643 168.112C750.635 168.112 749.795 167.44 749.795 166.124V161.364H748.395V160.58H749.795V158.984L750.747 158.424V160.58H753.155V161.364H750.747V166.152ZM754.894 166.432H756.406V168H754.894V166.432Z" fill="#2A2859"/>
<rect x="562" y="183" width="498" height="46" fill="white"/>
<rect x="562" y="183" width="498" height="46" stroke="#2A2859" stroke-width="2"/>
<path d="M82.672 134.056H89.152V136H80.566V122.68H89.044V124.624H82.672V128.35H87.586V130.294H82.672V134.056ZM93.4873 133.048C93.4873 134.11 94.1353 134.434 94.8013 134.434C95.3233 134.434 95.7373 134.218 96.1513 133.804L97.0153 135.1C96.2953 135.82 95.5033 136.162 94.4773 136.162C92.8213 136.162 91.4713 135.154 91.4713 133.174V128.026H89.7973V126.46H91.4713V124.336L93.4873 123.418V126.46H96.8533V128.026H93.4873V133.048ZM99.7691 124.876C98.9771 124.876 98.3471 124.264 98.3471 123.454C98.3471 122.644 98.9771 122.032 99.7691 122.032C100.561 122.032 101.173 122.644 101.173 123.454C101.173 124.264 100.561 124.876 99.7691 124.876ZM98.7611 136V126.46H100.777V136H98.7611ZM109.671 136L106.773 131.626L105.675 132.706V136H103.659V122.68H105.675V130.42L109.527 126.46H112.011L108.105 130.312L112.083 136H109.671ZM119.679 132.994L121.047 133.786C120.507 134.974 119.247 136.162 117.069 136.162C114.243 136.162 112.533 134.074 112.533 131.14C112.533 128.242 114.387 126.244 116.925 126.244C119.175 126.244 121.029 127.756 121.029 130.456L120.993 131.644H114.513C114.621 133.66 115.611 134.524 117.195 134.524C118.365 134.524 119.175 133.894 119.679 132.994ZM116.925 127.828C115.701 127.828 114.675 128.476 114.513 130.204H119.067C119.085 128.512 118.041 127.828 116.925 127.828ZM125.84 133.048C125.84 134.11 126.488 134.434 127.154 134.434C127.676 134.434 128.09 134.218 128.504 133.804L129.368 135.1C128.648 135.82 127.856 136.162 126.83 136.162C125.174 136.162 123.824 135.154 123.824 133.174V128.026H122.15V126.46H123.824V124.336L125.84 123.418V126.46H129.206V128.026H125.84V133.048ZM133.655 133.048C133.655 134.11 134.303 134.434 134.969 134.434C135.491 134.434 135.905 134.218 136.319 133.804L137.183 135.1C136.463 135.82 135.671 136.162 134.645 136.162C132.989 136.162 131.639 135.154 131.639 133.174V128.026H129.965V126.46H131.639V124.336L133.655 123.418V126.46H137.021V128.026H133.655V133.048Z" fill="#2A2859"/>
<rect width="62" height="22" transform="translate(148 119)" fill="#E5FCFF"/>
<path d="M159.924 124.64H160.96L157.166 135H156.186L152.42 124.64H153.484L156.69 133.866L159.924 124.64ZM166.992 135H166.124C166.012 134.594 165.928 134.104 165.928 133.544C165.55 134.412 164.584 135.112 163.38 135.112C162.064 135.112 161.07 134.258 161.07 132.984C161.07 131.458 162.442 130.66 163.968 130.66C164.57 130.66 165.158 130.73 165.76 130.94V129.96C165.76 128.994 165.172 128.336 164.024 128.336C163.1 128.336 162.316 128.742 161.924 129.876L161.084 129.624C161.644 128.056 162.778 127.468 164.08 127.468C165.914 127.468 166.684 128.574 166.684 129.848V132.9C166.684 133.74 166.824 134.496 166.992 135ZM165.76 131.92V131.752C165.186 131.514 164.598 131.444 164.024 131.444C162.904 131.444 162.022 131.948 162.022 132.928C162.022 133.824 162.652 134.3 163.548 134.3C164.514 134.3 165.76 133.726 165.76 131.92ZM171.415 134.972C171.191 135.028 171.009 135.056 170.799 135.056C169.637 135.056 169.091 134.328 169.091 133.236V124.64H170.043V133.236C170.043 133.866 170.379 134.188 170.967 134.188C171.121 134.188 171.275 134.174 171.415 134.132V134.972ZM179.542 128.364H177.946V128.63C178.31 129.078 178.506 129.638 178.506 130.184C178.506 131.542 177.526 132.928 175.44 132.928H175.118C174.278 132.928 173.676 133.25 173.676 133.74C173.676 134.118 173.97 134.384 174.586 134.384H177.596C178.8 134.384 179.416 134.972 179.416 135.896C179.416 137.366 177.722 138.136 175.636 138.136C173.76 138.136 172.458 137.534 172.01 136.232L172.78 135.882C173.298 137.1 174.39 137.338 175.636 137.338C177.176 137.338 178.464 136.876 178.464 135.98C178.464 135.56 178.24 135.252 177.568 135.252H174.376C173.34 135.252 172.724 134.762 172.724 133.992C172.724 133.334 173.27 132.76 174.18 132.522C173.2 132.13 172.654 131.094 172.654 130.184C172.654 128.854 173.648 127.468 175.608 127.468C176.378 127.468 176.966 127.72 177.414 128.098V127.58H179.542V128.364ZM175.594 132.144C176.91 132.144 177.568 131.234 177.568 130.184C177.568 129.148 176.91 128.28 175.594 128.28C174.264 128.28 173.592 129.162 173.592 130.184C173.592 131.22 174.264 132.144 175.594 132.144ZM182.237 126.544V127.58H184.309V128.364H182.237V135H181.285V128.364H179.885V127.58H181.285V126.544C181.285 125.256 182.125 124.528 183.273 124.528C183.805 124.528 184.421 124.738 184.771 125.298L184.197 125.872C183.973 125.536 183.637 125.34 183.245 125.34C182.755 125.34 182.237 125.634 182.237 126.544ZM188.417 127.468C189.383 127.468 190.083 128.112 190.083 129.372V130.1L189.215 130.268V129.54C189.215 128.798 188.963 128.308 188.207 128.308C187.353 128.308 186.709 128.938 186.709 130.436V135H185.757V127.58H186.709V128.504C187.101 127.804 187.759 127.468 188.417 127.468ZM192.44 126.236C191.978 126.236 191.6 125.872 191.6 125.396C191.6 124.92 191.978 124.556 192.44 124.556C192.902 124.556 193.28 124.92 193.28 125.396C193.28 125.872 192.902 126.236 192.44 126.236ZM191.964 135V127.58H192.916V135H191.964ZM196.811 133.152C196.811 134.02 197.329 134.272 197.791 134.272C198.239 134.272 198.533 134.104 198.883 133.74L199.387 134.3C198.897 134.874 198.365 135.112 197.707 135.112C196.699 135.112 195.859 134.44 195.859 133.124V128.364H194.459V127.58H195.859V125.984L196.811 125.424V127.58H199.219V128.364H196.811V133.152ZM202.225 133.152C202.225 134.02 202.743 134.272 203.205 134.272C203.653 134.272 203.947 134.104 204.297 133.74L204.801 134.3C204.311 134.874 203.779 135.112 203.121 135.112C202.113 135.112 201.273 134.44 201.273 133.124V128.364H199.873V127.58H201.273V125.984L202.225 125.424V127.58H204.633V128.364H202.225V133.152Z" fill="#2A2859"/>
<path d="M80.232 168V157.64H83.62C86.182 157.64 88.156 159.642 88.156 162.764C88.156 165.886 86.182 168 83.62 168H80.232ZM81.212 167.104H83.424C85.58 167.104 87.148 165.648 87.148 162.764C87.148 159.908 85.566 158.536 83.396 158.536H81.212V167.104ZM95.1294 165.9L95.8294 166.292C95.4794 167.188 94.5554 168.112 92.9034 168.112C90.8174 168.112 89.5854 166.558 89.5854 164.192C89.5854 162.022 90.8734 160.468 92.8054 160.468C94.4014 160.468 95.7734 161.616 95.7734 163.632L95.7454 164.458H90.5514C90.6354 166.432 91.5734 167.272 93.0014 167.272C94.1214 167.272 94.7794 166.628 95.1294 165.9ZM92.8054 161.308C91.6854 161.308 90.6774 161.91 90.5514 163.674H94.8354C94.8774 162.008 93.8974 161.308 92.8054 161.308ZM99.1333 166.152C99.1333 167.02 99.6513 167.272 100.113 167.272C100.561 167.272 100.855 167.104 101.205 166.74L101.709 167.3C101.219 167.874 100.687 168.112 100.029 168.112C99.0213 168.112 98.1813 167.44 98.1813 166.124V161.364H96.7813V160.58H98.1813V158.984L99.1333 158.424V160.58H101.541V161.364H99.1333V166.152ZM104.547 166.152C104.547 167.02 105.065 167.272 105.527 167.272C105.975 167.272 106.269 167.104 106.619 166.74L107.123 167.3C106.633 167.874 106.101 168.112 105.443 168.112C104.435 168.112 103.595 167.44 103.595 166.124V161.364H102.195V160.58H103.595V158.984L104.547 158.424V160.58H106.955V161.364H104.547V166.152ZM113.395 165.9L114.095 166.292C113.745 167.188 112.821 168.112 111.169 168.112C109.083 168.112 107.851 166.558 107.851 164.192C107.851 162.022 109.139 160.468 111.071 160.468C112.667 160.468 114.039 161.616 114.039 163.632L114.011 164.458H108.817C108.901 166.432 109.839 167.272 111.267 167.272C112.387 167.272 113.045 166.628 113.395 165.9ZM111.071 161.308C109.951 161.308 108.943 161.91 108.817 163.674H113.101C113.143 162.008 112.163 161.308 111.071 161.308ZM124.702 165.9L125.402 166.292C125.052 167.188 124.128 168.112 122.476 168.112C120.39 168.112 119.158 166.558 119.158 164.192C119.158 162.022 120.446 160.468 122.378 160.468C123.974 160.468 125.346 161.616 125.346 163.632L125.318 164.458H120.124C120.208 166.432 121.146 167.272 122.574 167.272C123.694 167.272 124.352 166.628 124.702 165.9ZM122.378 161.308C121.258 161.308 120.25 161.91 120.124 163.674H124.408C124.45 162.008 123.47 161.308 122.378 161.308ZM130.018 160.468C130.984 160.468 131.684 161.112 131.684 162.372V163.1L130.816 163.268V162.54C130.816 161.798 130.564 161.308 129.808 161.308C128.954 161.308 128.31 161.938 128.31 163.436V168H127.358V160.58H128.31V161.504C128.702 160.804 129.36 160.468 130.018 160.468ZM138.631 166.152C138.631 167.02 139.149 167.272 139.611 167.272C140.059 167.272 140.353 167.104 140.703 166.74L141.207 167.3C140.717 167.874 140.185 168.112 139.527 168.112C138.519 168.112 137.679 167.44 137.679 166.124V161.364H136.279V160.58H137.679V158.984L138.631 158.424V160.58H141.039V161.364H138.631V166.152ZM147.479 165.9L148.179 166.292C147.829 167.188 146.905 168.112 145.253 168.112C143.167 168.112 141.935 166.558 141.935 164.192C141.935 162.022 143.223 160.468 145.155 160.468C146.751 160.468 148.123 161.616 148.123 163.632L148.095 164.458H142.901C142.985 166.432 143.923 167.272 145.351 167.272C146.471 167.272 147.129 166.628 147.479 165.9ZM145.155 161.308C144.035 161.308 143.027 161.91 142.901 163.674H147.185C147.227 162.008 146.247 161.308 145.155 161.308ZM154.756 168L152.026 164.318L151.116 165.186V168H150.164V157.64H151.116V164.066L154.644 160.58H155.904L152.67 163.688L155.96 168H154.756ZM156.772 162.512C156.772 161.336 157.878 160.468 159.432 160.468C160.776 160.468 161.812 161.112 162.12 162.092L161.336 162.4C161.042 161.686 160.356 161.308 159.404 161.308C158.368 161.308 157.696 161.742 157.696 162.428C157.696 163.044 158.102 163.422 158.984 163.604L159.964 163.8C161.588 164.122 162.344 164.822 162.344 165.928C162.344 167.216 161.196 168.112 159.544 168.112C158.046 168.112 156.996 167.524 156.492 166.404L157.304 166.068C157.654 166.852 158.424 167.272 159.516 167.272C160.664 167.272 161.42 166.768 161.42 166.012C161.42 165.312 161.028 164.934 160.048 164.724L158.844 164.472C157.486 164.192 156.772 163.506 156.772 162.512ZM165.565 166.152C165.565 167.02 166.083 167.272 166.545 167.272C166.993 167.272 167.287 167.104 167.637 166.74L168.141 167.3C167.651 167.874 167.119 168.112 166.461 168.112C165.453 168.112 164.613 167.44 164.613 166.124V161.364H163.213V160.58H164.613V158.984L165.565 158.424V160.58H167.973V161.364H165.565V166.152ZM176.178 168.112C174.344 168.112 172.874 166.6 172.874 164.276C172.874 161.98 174.33 160.468 176.178 160.468C178.026 160.468 179.482 161.98 179.482 164.276C179.482 166.6 178.012 168.112 176.178 168.112ZM176.178 167.272C177.452 167.272 178.502 166.264 178.502 164.276C178.502 162.302 177.438 161.308 176.178 161.308C174.918 161.308 173.854 162.302 173.854 164.276C173.854 166.264 174.904 167.272 176.178 167.272ZM185.875 160.58H186.855L183.943 168H183.103L180.191 160.58H181.227L183.551 166.95L185.875 160.58ZM193.102 165.9L193.802 166.292C193.452 167.188 192.528 168.112 190.876 168.112C188.79 168.112 187.558 166.558 187.558 164.192C187.558 162.022 188.846 160.468 190.778 160.468C192.374 160.468 193.746 161.616 193.746 163.632L193.718 164.458H188.524C188.608 166.432 189.546 167.272 190.974 167.272C192.094 167.272 192.752 166.628 193.102 165.9ZM190.778 161.308C189.658 161.308 188.65 161.91 188.524 163.674H192.808C192.85 162.008 191.87 161.308 190.778 161.308ZM198.419 160.468C199.385 160.468 200.085 161.112 200.085 162.372V163.1L199.217 163.268V162.54C199.217 161.798 198.965 161.308 198.209 161.308C197.355 161.308 196.711 161.938 196.711 163.436V168H195.759V160.58H196.711V161.504C197.103 160.804 197.761 160.468 198.419 160.468ZM206.024 159.236C205.562 159.236 205.184 158.872 205.184 158.396C205.184 157.92 205.562 157.556 206.024 157.556C206.486 157.556 206.864 157.92 206.864 158.396C206.864 158.872 206.486 159.236 206.024 159.236ZM205.548 168V160.58H206.5V168H205.548ZM212.019 160.468C213.503 160.468 214.371 161.378 214.371 163.044V168H213.419V163.184C213.419 161.84 212.803 161.336 211.767 161.336C210.465 161.336 209.863 162.344 209.863 163.828V168H208.911V160.58H209.863V161.728C210.311 160.916 211.123 160.468 212.019 160.468ZM220.051 160.482C221.941 160.482 223.215 162.064 223.215 164.22C223.215 166.502 221.927 168.112 219.939 168.112C218.903 168.112 218.063 167.594 217.615 166.656V170.94H216.663V160.58H217.615V161.966C218.105 161.014 219.085 160.482 220.051 160.482ZM219.939 167.272C221.325 167.272 222.235 166.208 222.235 164.262C222.235 162.386 221.325 161.322 219.953 161.322C218.469 161.322 217.615 162.428 217.615 164.248C217.615 166.18 218.455 167.272 219.939 167.272ZM229.465 160.58H230.417V168H229.465V166.866C229.017 167.664 228.233 168.112 227.323 168.112C225.867 168.112 224.985 167.174 224.985 165.564V160.58H225.937V165.48C225.937 166.698 226.553 167.258 227.589 167.258C228.905 167.258 229.465 166.208 229.465 164.752V160.58ZM234.252 166.152C234.252 167.02 234.77 167.272 235.232 167.272C235.68 167.272 235.974 167.104 236.324 166.74L236.828 167.3C236.338 167.874 235.806 168.112 235.148 168.112C234.14 168.112 233.3 167.44 233.3 166.124V161.364H231.9V160.58H233.3V158.984L234.252 158.424V160.58H236.66V161.364H234.252V166.152ZM239.667 159.544V160.58H241.739V161.364H239.667V168H238.715V161.364H237.315V160.58H238.715V159.544C238.715 158.256 239.555 157.528 240.703 157.528C241.235 157.528 241.851 157.738 242.201 158.298L241.627 158.872C241.403 158.536 241.067 158.34 240.675 158.34C240.185 158.34 239.667 158.634 239.667 159.544ZM247.831 165.9L248.531 166.292C248.181 167.188 247.257 168.112 245.605 168.112C243.519 168.112 242.287 166.558 242.287 164.192C242.287 162.022 243.575 160.468 245.507 160.468C247.103 160.468 248.475 161.616 248.475 163.632L248.447 164.458H243.253C243.337 166.432 244.275 167.272 245.703 167.272C246.823 167.272 247.481 166.628 247.831 165.9ZM245.507 161.308C244.387 161.308 243.379 161.91 243.253 163.674H247.537C247.579 162.008 246.599 161.308 245.507 161.308ZM252.811 167.972C252.587 168.028 252.405 168.056 252.195 168.056C251.033 168.056 250.487 167.328 250.487 166.236V157.64H251.439V166.236C251.439 166.866 251.775 167.188 252.363 167.188C252.517 167.188 252.671 167.174 252.811 167.132V167.972ZM255.895 166.152C255.895 167.02 256.413 167.272 256.875 167.272C257.323 167.272 257.617 167.104 257.967 166.74L258.471 167.3C257.981 167.874 257.449 168.112 256.791 168.112C255.783 168.112 254.943 167.44 254.943 166.124V161.364H253.543V160.58H254.943V158.984L255.895 158.424V160.58H258.303V161.364H255.895V166.152ZM264.743 165.9L265.443 166.292C265.093 167.188 264.169 168.112 262.517 168.112C260.431 168.112 259.199 166.558 259.199 164.192C259.199 162.022 260.487 160.468 262.419 160.468C264.015 160.468 265.387 161.616 265.387 163.632L265.359 164.458H260.165C260.249 166.432 261.187 167.272 262.615 167.272C263.735 167.272 264.393 166.628 264.743 165.9ZM262.419 161.308C261.299 161.308 260.291 161.91 260.165 163.674H264.449C264.491 162.008 263.511 161.308 262.419 161.308ZM268.747 166.152C268.747 167.02 269.265 167.272 269.727 167.272C270.175 167.272 270.469 167.104 270.819 166.74L271.323 167.3C270.833 167.874 270.301 168.112 269.643 168.112C268.635 168.112 267.795 167.44 267.795 166.124V161.364H266.395V160.58H267.795V158.984L268.747 158.424V160.58H271.155V161.364H268.747V166.152ZM272.894 166.432H274.406V168H272.894V166.432Z" fill="#2A2859"/>
<rect x="80" y="183" width="398" height="46" fill="white"/>
<rect x="80" y="183" width="398" height="46" stroke="#2A2859" stroke-width="2"/>
<line x1="79" y1="256.5" x2="479" y2="256.5" stroke="#6FE9FF"/>
<line x1="561" y1="256.5" x2="1061" y2="256.5" stroke="#6FE9FF"/>
<line x1="78.5" y1="257" x2="78.5" y2="246" stroke="#6FE9FF"/>
<line x1="560.5" y1="257" x2="560.5" y2="246" stroke="#6FE9FF"/>
<line x1="478.5" y1="257" x2="478.5" y2="246" stroke="#6FE9FF"/>
<line x1="1060.5" y1="257" x2="1060.5" y2="246" stroke="#6FE9FF"/>
<rect width="86" height="32" transform="translate(236 241)" fill="white"/>
<path d="M255.712 254.52H256.8L253.92 263H252.928L250.608 256.056L248.224 263H247.232L244.352 254.52H245.504L247.76 261.672L250.112 254.52H251.136L253.488 261.64L255.712 254.52ZM259.332 257.464C258.756 257.464 258.308 257.032 258.308 256.44C258.308 255.848 258.756 255.416 259.332 255.416C259.908 255.416 260.356 255.848 260.356 256.44C260.356 257.032 259.908 257.464 259.332 257.464ZM259.332 263.096C258.756 263.096 258.308 262.664 258.308 262.072C258.308 261.48 258.756 261.048 259.332 261.048C259.908 261.048 260.356 261.48 260.356 262.072C260.356 262.664 259.908 263.096 259.332 263.096ZM275.184 258.872V259.864H273.136V263H272.081V259.864H266.768V258.968L269.6 251.16H270.624L267.872 258.872H272.081V255.352L273.136 255.032V258.872H275.184ZM280.867 263.128C278.531 263.128 276.547 260.92 276.547 257.08C276.547 253.24 278.515 251.032 280.867 251.032C283.219 251.032 285.187 253.24 285.187 257.08C285.187 260.92 283.203 263.128 280.867 263.128ZM280.867 262.072C282.627 262.072 284.067 260.616 284.067 257.08C284.067 253.624 282.643 252.088 280.867 252.088C279.091 252.088 277.667 253.624 277.667 257.08C277.667 260.616 279.107 262.072 280.867 262.072ZM290.901 263.128C288.565 263.128 286.581 260.92 286.581 257.08C286.581 253.24 288.549 251.032 290.901 251.032C293.253 251.032 295.221 253.24 295.221 257.08C295.221 260.92 293.237 263.128 290.901 263.128ZM290.901 262.072C292.661 262.072 294.101 260.616 294.101 257.08C294.101 253.624 292.677 252.088 290.901 252.088C289.125 252.088 287.701 253.624 287.701 257.08C287.701 260.616 289.141 262.072 290.901 262.072ZM301.064 254.408C303.224 254.408 304.68 256.216 304.68 258.68C304.68 261.288 303.208 263.128 300.936 263.128C299.752 263.128 298.792 262.536 298.28 261.464V266.36H297.192V254.52H298.28V256.104C298.84 255.016 299.96 254.408 301.064 254.408ZM300.936 262.168C302.52 262.168 303.56 260.952 303.56 258.728C303.56 256.584 302.52 255.368 300.952 255.368C299.256 255.368 298.28 256.632 298.28 258.712C298.28 260.92 299.24 262.168 300.936 262.168ZM312.718 263H311.374L309.038 259.352L306.766 263H305.518L308.446 258.632L305.614 254.52H306.958L309.214 257.976L311.374 254.52H312.622L309.79 258.664L312.718 263Z" fill="#2A2859"/>
<rect width="120" height="32" transform="translate(751 241)" fill="white"/>
<path d="M768.824 254.392C770.44 254.392 771.384 255.416 771.384 257.176V263H770.296V257.336C770.296 255.96 769.64 255.384 768.536 255.384C767.048 255.384 766.424 256.536 766.424 258.232V263H765.336V257.336C765.336 255.96 764.68 255.384 763.576 255.384C762.088 255.384 761.464 256.536 761.464 258.232V263H760.376V254.52H761.464V255.848C761.976 254.904 762.872 254.392 763.864 254.392C765.128 254.392 765.976 255.016 766.28 256.12C766.76 255 767.736 254.392 768.824 254.392ZM780.121 263H779.129C779.001 262.536 778.905 261.976 778.905 261.336C778.473 262.328 777.369 263.128 775.993 263.128C774.489 263.128 773.353 262.152 773.353 260.696C773.353 258.952 774.921 258.04 776.665 258.04C777.353 258.04 778.025 258.12 778.713 258.36V257.24C778.713 256.136 778.041 255.384 776.729 255.384C775.673 255.384 774.777 255.848 774.329 257.144L773.369 256.856C774.009 255.064 775.305 254.392 776.793 254.392C778.889 254.392 779.769 255.656 779.769 257.112V260.6C779.769 261.56 779.929 262.424 780.121 263ZM778.713 259.48V259.288C778.057 259.016 777.385 258.936 776.729 258.936C775.449 258.936 774.441 259.512 774.441 260.632C774.441 261.656 775.161 262.2 776.185 262.2C777.289 262.2 778.713 261.544 778.713 259.48ZM788.656 263H787.312L784.976 259.352L782.704 263H781.456L784.384 258.632L781.552 254.52H782.896L785.152 257.976L787.312 254.52H788.56L785.728 258.664L788.656 263ZM804.568 254.52H805.656L802.776 263H801.784L799.464 256.056L797.08 263H796.088L793.208 254.52H794.36L796.616 261.672L798.968 254.52H799.992L802.344 261.64L804.568 254.52ZM808.188 257.464C807.612 257.464 807.164 257.032 807.164 256.44C807.164 255.848 807.612 255.416 808.188 255.416C808.764 255.416 809.212 255.848 809.212 256.44C809.212 257.032 808.764 257.464 808.188 257.464ZM808.188 263.096C807.612 263.096 807.164 262.664 807.164 262.072C807.164 261.48 807.612 261.048 808.188 261.048C808.764 261.048 809.212 261.48 809.212 262.072C809.212 262.664 808.764 263.096 808.188 263.096ZM820.041 255.384C822.233 255.384 823.785 256.936 823.785 259.064C823.785 261.352 822.105 263.128 819.465 263.128C817.993 263.128 816.521 262.552 815.401 260.952L816.233 260.28C817.113 261.56 818.169 262.136 819.593 262.136C821.433 262.136 822.697 260.792 822.697 259.128C822.697 257.464 821.593 256.376 819.945 256.376C818.793 256.376 818.057 256.728 817.017 257.704L816.137 257.368L816.537 251.16H822.889V252.184H817.481L817.161 256.504C817.929 255.784 818.953 255.384 820.041 255.384ZM829.723 263.128C827.387 263.128 825.403 260.92 825.403 257.08C825.403 253.24 827.371 251.032 829.723 251.032C832.075 251.032 834.043 253.24 834.043 257.08C834.043 260.92 832.059 263.128 829.723 263.128ZM829.723 262.072C831.483 262.072 832.923 260.616 832.923 257.08C832.923 253.624 831.499 252.088 829.723 252.088C827.947 252.088 826.523 253.624 826.523 257.08C826.523 260.616 827.963 262.072 829.723 262.072ZM839.757 263.128C837.421 263.128 835.437 260.92 835.437 257.08C835.437 253.24 837.405 251.032 839.757 251.032C842.109 251.032 844.077 253.24 844.077 257.08C844.077 260.92 842.093 263.128 839.757 263.128ZM839.757 262.072C841.517 262.072 842.957 260.616 842.957 257.08C842.957 253.624 841.533 252.088 839.757 252.088C837.981 252.088 836.557 253.624 836.557 257.08C836.557 260.616 837.997 262.072 839.757 262.072ZM849.92 254.408C852.08 254.408 853.536 256.216 853.536 258.68C853.536 261.288 852.064 263.128 849.792 263.128C848.608 263.128 847.648 262.536 847.136 261.464V266.36H846.048V254.52H847.136V256.104C847.696 255.016 848.816 254.408 849.92 254.408ZM849.792 262.168C851.376 262.168 852.416 260.952 852.416 258.728C852.416 256.584 851.376 255.368 849.808 255.368C848.112 255.368 847.136 256.632 847.136 258.712C847.136 260.92 848.096 262.168 849.792 262.168ZM861.575 263H860.231L857.895 259.352L855.623 263H854.375L857.303 258.632L854.471 254.52H855.815L858.071 257.976L860.231 254.52H861.479L858.647 258.664L861.575 263Z" fill="#2A2859"/>
<path d="M80.152 64.36C80.152 62.328 82.008 61.016 84.2 61.016C86.104 61.016 87.496 61.784 88.216 63.304L86.968 63.944C86.472 62.888 85.4 62.28 84.184 62.28C82.648 62.28 81.592 63.032 81.592 64.232C81.592 65.224 82.184 65.848 83.48 66.088L85.32 66.408C87.256 66.744 88.632 67.784 88.632 69.608C88.632 71.512 87.032 73.144 84.344 73.144C82.312 73.144 80.712 72.44 79.816 70.696L81.064 70.04C81.832 71.528 83.144 71.864 84.36 71.864C86.152 71.864 87.176 70.872 87.176 69.672C87.176 68.424 86.344 68.008 85.032 67.768L83.192 67.448C81.448 67.144 80.152 66.152 80.152 64.36ZM92.378 70.68C92.378 71.656 92.97 71.944 93.514 71.944C94.01 71.944 94.362 71.752 94.746 71.352L95.402 72.2C94.81 72.856 94.154 73.128 93.338 73.128C92.058 73.128 91.002 72.312 91.002 70.712V65.624H89.45V64.52H91.002V62.664L92.378 61.96V64.52H95.226V65.624H92.378V70.68ZM103.253 73H101.989C101.861 72.552 101.765 72.024 101.765 71.368C101.333 72.312 100.325 73.144 98.9173 73.144C97.3973 73.144 96.2773 72.136 96.2773 70.664C96.2773 68.856 97.8613 67.944 99.6533 67.944C100.293 67.944 100.917 68.008 101.557 68.216V67.256C101.557 66.232 100.933 65.544 99.7173 65.544C98.7093 65.544 97.8933 66.04 97.4933 67.208L96.3093 66.84C96.9333 65.048 98.2933 64.36 99.7973 64.36C101.957 64.36 102.901 65.656 102.901 67.176V70.584C102.901 71.56 103.061 72.44 103.253 73ZM101.557 69.496V69.288C100.965 69.048 100.357 68.984 99.7653 68.984C98.5653 68.984 97.6373 69.528 97.6373 70.568C97.6373 71.496 98.2933 72.024 99.2533 72.024C100.261 72.024 101.557 71.416 101.557 69.496ZM109.256 64.36C110.968 64.36 111.976 65.432 111.976 67.32V73H110.6V67.528C110.6 66.136 109.96 65.592 108.856 65.592C107.464 65.592 106.792 66.632 106.792 68.296V73H105.416V64.52H106.792V65.784C107.336 64.872 108.216 64.36 109.256 64.36ZM120.179 61.16H121.555V73H120.179V71.416C119.587 72.552 118.483 73.112 117.443 73.112C115.331 73.112 113.859 71.336 113.859 68.824C113.859 66.184 115.347 64.376 117.603 64.376C118.691 64.376 119.667 64.888 120.179 65.976V61.16ZM117.699 71.912C119.235 71.912 120.179 70.808 120.179 68.76C120.179 66.648 119.251 65.528 117.715 65.528C116.275 65.528 115.283 66.648 115.283 68.76C115.283 70.792 116.275 71.912 117.699 71.912ZM130.513 73H129.249C129.121 72.552 129.025 72.024 129.025 71.368C128.593 72.312 127.585 73.144 126.177 73.144C124.657 73.144 123.537 72.136 123.537 70.664C123.537 68.856 125.121 67.944 126.913 67.944C127.553 67.944 128.177 68.008 128.817 68.216V67.256C128.817 66.232 128.193 65.544 126.977 65.544C125.969 65.544 125.153 66.04 124.753 67.208L123.569 66.84C124.193 65.048 125.553 64.36 127.057 64.36C129.217 64.36 130.161 65.656 130.161 67.176V70.584C130.161 71.56 130.321 72.44 130.513 73ZM128.817 69.496V69.288C128.225 69.048 127.617 68.984 127.025 68.984C125.825 68.984 124.897 69.528 124.897 70.568C124.897 71.496 125.553 72.024 126.513 72.024C127.521 72.024 128.817 71.416 128.817 69.496ZM136.067 64.36C137.219 64.36 138.019 65.128 138.019 66.584V67.528L136.835 67.752V66.904C136.835 66.088 136.563 65.544 135.715 65.544C134.755 65.544 134.051 66.216 134.051 67.896V73H132.675V64.52H134.051V65.608C134.515 64.744 135.315 64.36 136.067 64.36ZM145.22 61.16H146.596V73H145.22V71.416C144.628 72.552 143.524 73.112 142.484 73.112C140.372 73.112 138.9 71.336 138.9 68.824C138.9 66.184 140.388 64.376 142.644 64.376C143.732 64.376 144.708 64.888 145.22 65.976V61.16ZM142.74 71.912C144.276 71.912 145.22 70.808 145.22 68.76C145.22 66.648 144.292 65.528 142.756 65.528C141.316 65.528 140.324 66.648 140.324 68.76C140.324 70.792 141.316 71.912 142.74 71.912ZM152.487 66.776C152.487 65.4 153.783 64.36 155.655 64.36C157.223 64.36 158.375 65.048 158.823 66.168L157.783 66.696C157.431 65.944 156.663 65.528 155.623 65.528C154.535 65.528 153.815 65.96 153.815 66.68C153.815 67.304 154.215 67.672 155.127 67.864L156.359 68.104C158.199 68.472 159.079 69.288 159.079 70.568C159.079 72.088 157.735 73.128 155.751 73.128C154.023 73.128 152.791 72.456 152.183 71.208L153.239 70.648C153.671 71.512 154.519 71.976 155.719 71.976C156.935 71.976 157.751 71.448 157.751 70.648C157.751 69.944 157.335 69.56 156.359 69.352L154.903 69.064C153.335 68.744 152.487 67.944 152.487 66.776ZM162.781 70.68C162.781 71.656 163.373 71.944 163.917 71.944C164.413 71.944 164.765 71.752 165.149 71.352L165.805 72.2C165.213 72.856 164.557 73.128 163.741 73.128C162.461 73.128 161.405 72.312 161.405 70.712V65.624H159.853V64.52H161.405V62.664L162.781 61.96V64.52H165.629V65.624H162.781V70.68ZM172.525 65.096C173.533 65.832 174.173 67.112 174.173 68.728C174.173 71.416 172.429 73.144 170.301 73.144C169.725 73.144 169.165 73.016 168.669 72.776L168.157 73.8H167.325L168.029 72.392C167.053 71.64 166.413 70.36 166.413 68.728C166.413 66.088 168.141 64.36 170.301 64.36C170.877 64.36 171.421 64.488 171.901 64.712L172.413 63.704H173.229L172.525 65.096ZM167.837 68.728C167.837 69.864 168.141 70.696 168.621 71.224L171.357 65.8C171.037 65.64 170.669 65.56 170.301 65.56C168.957 65.56 167.837 66.568 167.837 68.728ZM170.301 71.944C171.645 71.944 172.749 70.888 172.749 68.728C172.749 67.592 172.445 66.776 171.949 66.248L169.213 71.688C169.549 71.864 169.917 71.944 170.301 71.944ZM179.508 64.36C180.66 64.36 181.46 65.128 181.46 66.584V67.528L180.276 67.752V66.904C180.276 66.088 180.004 65.544 179.156 65.544C178.196 65.544 177.492 66.216 177.492 67.896V73H176.116V64.52H177.492V65.608C177.956 64.744 178.756 64.36 179.508 64.36ZM186.761 64.36C187.913 64.36 188.713 65.128 188.713 66.584V67.528L187.529 67.752V66.904C187.529 66.088 187.257 65.544 186.409 65.544C185.449 65.544 184.745 66.216 184.745 67.896V73H183.369V64.52H184.745V65.608C185.209 64.744 186.009 64.36 186.761 64.36ZM195.946 70.488L196.922 71.032C196.474 72.088 195.402 73.144 193.498 73.144C191.05 73.144 189.594 71.32 189.594 68.664C189.594 66.136 191.146 64.36 193.37 64.36C195.258 64.36 196.874 65.688 196.874 68.04L196.842 69.016H190.97C191.066 71.096 192.074 71.976 193.61 71.976C194.778 71.976 195.53 71.304 195.946 70.488ZM193.37 65.512C192.17 65.512 191.13 66.136 190.97 67.944H195.53C195.546 66.232 194.506 65.512 193.37 65.512ZM201.882 72.968C201.594 73.032 201.338 73.08 201.05 73.08C199.61 73.08 198.922 72.2 198.922 70.824V61.16H200.298V70.76C200.298 71.496 200.698 71.848 201.37 71.848C201.53 71.848 201.706 71.832 201.882 71.784V72.968ZM203.196 66.776C203.196 65.4 204.492 64.36 206.364 64.36C207.932 64.36 209.084 65.048 209.532 66.168L208.492 66.696C208.14 65.944 207.372 65.528 206.332 65.528C205.244 65.528 204.524 65.96 204.524 66.68C204.524 67.304 204.924 67.672 205.836 67.864L207.068 68.104C208.908 68.472 209.788 69.288 209.788 70.568C209.788 72.088 208.444 73.128 206.46 73.128C204.732 73.128 203.5 72.456 202.892 71.208L203.948 70.648C204.38 71.512 205.228 71.976 206.428 71.976C207.644 71.976 208.46 71.448 208.46 70.648C208.46 69.944 208.044 69.56 207.068 69.352L205.612 69.064C204.044 68.744 203.196 67.944 203.196 66.776ZM217.393 70.488L218.369 71.032C217.921 72.088 216.849 73.144 214.945 73.144C212.497 73.144 211.041 71.32 211.041 68.664C211.041 66.136 212.593 64.36 214.817 64.36C216.705 64.36 218.321 65.688 218.321 68.04L218.289 69.016H212.417C212.513 71.096 213.521 71.976 215.057 71.976C216.225 71.976 216.977 71.304 217.393 70.488ZM214.817 65.512C213.617 65.512 212.577 66.136 212.417 67.944H216.977C216.993 66.232 215.953 65.512 214.817 65.512ZM224.951 63.032C224.343 63.032 223.863 62.568 223.863 61.944C223.863 61.336 224.343 60.872 224.951 60.872C225.543 60.872 226.023 61.336 226.023 61.944C226.023 62.568 225.543 63.032 224.951 63.032ZM224.263 73V64.52H225.639V73H224.263ZM237.858 61.16H239.234V73H237.858V71.416C237.266 72.552 236.162 73.112 235.122 73.112C233.01 73.112 231.538 71.336 231.538 68.824C231.538 66.184 233.026 64.376 235.282 64.376C236.37 64.376 237.346 64.888 237.858 65.976V61.16ZM235.378 71.912C236.914 71.912 237.858 70.808 237.858 68.76C237.858 66.648 236.93 65.528 235.394 65.528C233.954 65.528 232.962 66.648 232.962 68.76C232.962 70.792 233.954 71.912 235.378 71.912ZM247.471 70.488L248.447 71.032C247.999 72.088 246.927 73.144 245.023 73.144C242.575 73.144 241.119 71.32 241.119 68.664C241.119 66.136 242.671 64.36 244.895 64.36C246.783 64.36 248.399 65.688 248.399 68.04L248.367 69.016H242.495C242.591 71.096 243.599 71.976 245.135 71.976C246.303 71.976 247.055 71.304 247.471 70.488ZM244.895 65.512C243.695 65.512 242.655 66.136 242.495 67.944H247.055C247.071 66.232 246.031 65.512 244.895 65.512ZM250.015 66.776C250.015 65.4 251.311 64.36 253.183 64.36C254.751 64.36 255.903 65.048 256.351 66.168L255.311 66.696C254.959 65.944 254.191 65.528 253.151 65.528C252.063 65.528 251.343 65.96 251.343 66.68C251.343 67.304 251.743 67.672 252.655 67.864L253.887 68.104C255.727 68.472 256.607 69.288 256.607 70.568C256.607 72.088 255.263 73.128 253.279 73.128C251.551 73.128 250.319 72.456 249.711 71.208L250.767 70.648C251.199 71.512 252.047 71.976 253.247 71.976C254.463 71.976 255.279 71.448 255.279 70.648C255.279 69.944 254.863 69.56 253.887 69.352L252.431 69.064C250.863 68.744 250.015 67.944 250.015 66.776ZM258.225 61.064H260.113V62.92H258.225V61.064ZM258.481 73V64.52H259.857V73H258.481ZM270.231 65.624H268.439V65.88C268.791 66.344 268.983 66.904 268.983 67.48C268.983 69.016 267.847 70.584 265.431 70.584H265.031C264.119 70.584 263.479 70.92 263.479 71.464C263.479 71.864 263.799 72.152 264.423 72.152H267.911C269.319 72.152 270.071 72.856 270.071 73.944C270.071 75.656 268.199 76.584 265.639 76.584C263.351 76.584 261.799 75.928 261.319 74.376L262.551 73.992C263.062 75.24 264.183 75.512 265.655 75.512C267.383 75.512 268.727 75.016 268.727 74.088C268.727 73.656 268.503 73.336 267.799 73.336H264.071C262.823 73.336 262.135 72.712 262.135 71.816C262.135 71.016 262.823 70.344 263.863 70.104C262.727 69.624 262.118 68.488 262.118 67.464C262.118 65.944 263.287 64.36 265.575 64.36C266.519 64.36 267.255 64.696 267.751 65.16V64.52H270.231V65.624ZM265.575 69.528C266.967 69.528 267.639 68.552 267.639 67.464C267.639 66.392 266.967 65.464 265.575 65.464C264.167 65.464 263.479 66.392 263.479 67.464C263.479 68.552 264.167 69.528 265.575 69.528ZM275.515 64.36C277.227 64.36 278.235 65.432 278.235 67.32V73H276.859V67.528C276.859 66.136 276.219 65.592 275.115 65.592C273.723 65.592 273.051 66.632 273.051 68.296V73H271.675V64.52H273.051V65.784C273.595 64.872 274.475 64.36 275.515 64.36ZM280.231 66.776C280.231 65.4 281.527 64.36 283.399 64.36C284.967 64.36 286.119 65.048 286.567 66.168L285.527 66.696C285.175 65.944 284.407 65.528 283.367 65.528C282.279 65.528 281.559 65.96 281.559 66.68C281.559 67.304 281.959 67.672 282.871 67.864L284.103 68.104C285.943 68.472 286.823 69.288 286.823 70.568C286.823 72.088 285.479 73.128 283.495 73.128C281.767 73.128 280.535 72.456 279.927 71.208L280.983 70.648C281.415 71.512 282.263 71.976 283.463 71.976C284.679 71.976 285.495 71.448 285.495 70.648C285.495 69.944 285.079 69.56 284.103 69.352L282.647 69.064C281.079 68.744 280.231 67.944 280.231 66.776ZM293.736 64.52H295.16L291.544 73.96C290.936 75.544 290.232 76.536 288.744 76.536C288.12 76.536 287.528 76.312 287.096 75.928L287.656 74.952C287.976 75.24 288.28 75.384 288.68 75.384C289.288 75.384 289.736 75.096 290.12 74.168L290.52 73.176L287.32 64.52H288.84L291.256 71.624L293.736 64.52ZM295.799 66.776C295.799 65.4 297.095 64.36 298.967 64.36C300.535 64.36 301.687 65.048 302.135 66.168L301.095 66.696C300.743 65.944 299.975 65.528 298.935 65.528C297.847 65.528 297.127 65.96 297.127 66.68C297.127 67.304 297.527 67.672 298.439 67.864L299.671 68.104C301.511 68.472 302.391 69.288 302.391 70.568C302.391 72.088 301.047 73.128 299.063 73.128C297.335 73.128 296.103 72.456 295.495 71.208L296.551 70.648C296.983 71.512 297.831 71.976 299.031 71.976C300.247 71.976 301.063 71.448 301.063 70.648C301.063 69.944 300.647 69.56 299.671 69.352L298.215 69.064C296.647 68.744 295.799 67.944 295.799 66.776ZM306.094 70.68C306.094 71.656 306.686 71.944 307.23 71.944C307.726 71.944 308.078 71.752 308.462 71.352L309.118 72.2C308.526 72.856 307.87 73.128 307.054 73.128C305.774 73.128 304.718 72.312 304.718 70.712V65.624H303.166V64.52H304.718V62.664L306.094 61.96V64.52H308.942V65.624H306.094V70.68ZM316.077 70.488L317.053 71.032C316.605 72.088 315.533 73.144 313.629 73.144C311.181 73.144 309.725 71.32 309.725 68.664C309.725 66.136 311.277 64.36 313.501 64.36C315.389 64.36 317.005 65.688 317.005 68.04L316.973 69.016H311.101C311.197 71.096 312.205 71.976 313.741 71.976C314.909 71.976 315.661 71.304 316.077 70.488ZM313.501 65.512C312.301 65.512 311.261 66.136 311.101 67.944H315.661C315.677 66.232 314.637 65.512 313.501 65.512ZM327.869 64.36C329.517 64.36 330.477 65.416 330.477 67.192V73H329.101V67.4C329.101 66.136 328.493 65.592 327.469 65.592C326.077 65.592 325.453 66.616 325.453 68.296V73H324.077V67.4C324.077 66.136 323.469 65.592 322.429 65.592C321.053 65.592 320.429 66.616 320.429 68.296V73H319.053V64.52H320.429V65.784C320.973 64.856 321.821 64.36 322.845 64.36C324.109 64.36 324.973 64.984 325.293 66.072C325.821 64.952 326.765 64.36 327.869 64.36ZM338.708 70.488L339.684 71.032C339.236 72.088 338.164 73.144 336.26 73.144C333.812 73.144 332.356 71.32 332.356 68.664C332.356 66.136 333.908 64.36 336.132 64.36C338.02 64.36 339.636 65.688 339.636 68.04L339.604 69.016H333.732C333.828 71.096 334.836 71.976 336.372 71.976C337.54 71.976 338.292 71.304 338.708 70.488ZM336.132 65.512C334.932 65.512 333.892 66.136 333.732 67.944H338.292C338.308 66.232 337.268 65.512 336.132 65.512ZM343.512 70.68C343.512 71.656 344.104 71.944 344.648 71.944C345.144 71.944 345.496 71.752 345.88 71.352L346.536 72.2C345.944 72.856 345.288 73.128 344.472 73.128C343.192 73.128 342.136 72.312 342.136 70.712V65.624H340.584V64.52H342.136V62.664L343.512 61.96V64.52H346.36V65.624H343.512V70.68ZM354.131 60.2H355.331C354.227 62.76 353.683 65.256 353.683 67.832C353.683 70.392 354.227 72.856 355.331 75.4H354.131C352.899 72.856 352.291 70.408 352.291 67.832C352.291 65.24 352.915 62.744 354.131 60.2ZM365.558 68.728V69.992H363.638V73H362.278V69.992H356.966V68.904L359.782 61.16H361.142L358.454 68.728H362.278V65.352L363.638 64.952V68.728H365.558ZM371.161 73.128C368.793 73.128 366.777 70.952 366.777 67.08C366.777 63.208 368.777 61.016 371.161 61.016C373.545 61.016 375.545 63.208 375.545 67.08C375.545 70.952 373.529 73.128 371.161 73.128ZM371.161 71.784C372.809 71.784 374.073 70.392 374.073 67.08C374.073 63.816 372.809 62.376 371.161 62.376C369.513 62.376 368.249 63.816 368.249 67.08C368.249 70.392 369.513 71.784 371.161 71.784ZM381.195 73.128C378.827 73.128 376.811 70.952 376.811 67.08C376.811 63.208 378.811 61.016 381.195 61.016C383.579 61.016 385.579 63.208 385.579 67.08C385.579 70.952 383.563 73.128 381.195 73.128ZM381.195 71.784C382.843 71.784 384.107 70.392 384.107 67.08C384.107 63.816 382.843 62.376 381.195 62.376C379.547 62.376 378.283 63.816 378.283 67.08C378.283 70.392 379.547 71.784 381.195 71.784ZM391.565 64.376C393.677 64.376 395.133 66.168 395.133 68.68C395.133 71.304 393.661 73.128 391.405 73.128C390.317 73.128 389.357 72.616 388.829 71.544V76.36H387.453V64.52H388.829V66.072C389.421 64.936 390.509 64.376 391.565 64.376ZM391.293 71.96C392.733 71.96 393.709 70.84 393.709 68.744C393.709 66.696 392.733 65.576 391.293 65.576C389.757 65.576 388.829 66.696 388.829 68.728C388.829 70.84 389.757 71.96 391.293 71.96ZM403.473 73H401.809L399.601 69.512L397.441 73H395.921L398.849 68.616L396.033 64.52H397.697L399.825 67.816L401.857 64.52H403.377L400.561 68.696L403.473 73ZM405.836 75.4H404.62C405.724 72.84 406.284 70.344 406.284 67.768C406.284 65.208 405.724 62.744 404.62 60.2H405.836C407.068 62.744 407.676 65.192 407.676 67.768C407.676 70.36 407.052 72.856 405.836 75.4ZM411.888 67.464C411.232 67.464 410.736 66.968 410.736 66.312C410.736 65.656 411.232 65.16 411.888 65.16C412.544 65.16 413.04 65.656 413.04 66.312C413.04 66.968 412.544 67.464 411.888 67.464ZM411.888 73.096C411.232 73.096 410.736 72.6 410.736 71.944C410.736 71.288 411.232 70.792 411.888 70.792C412.544 70.792 413.04 71.288 413.04 71.944C413.04 72.6 412.544 73.096 411.888 73.096Z" fill="#2A2859"/>
<path d="M569.976 73L568.888 69.688H564.056L562.952 73H561.48L565.656 61.16H567.384L571.528 73H569.976ZM564.488 68.424H568.472L566.488 62.44L564.488 68.424ZM577 64.36C578.712 64.36 579.72 65.432 579.72 67.32V73H578.344V67.528C578.344 66.136 577.704 65.592 576.6 65.592C575.208 65.592 574.536 66.632 574.536 68.296V73H573.16V64.52H574.536V65.784C575.08 64.872 575.96 64.36 577 64.36ZM586.275 64.376C588.387 64.376 589.859 66.168 589.859 68.68C589.859 71.304 588.371 73.128 586.115 73.128C585.027 73.128 584.051 72.616 583.539 71.528V73H582.163V61.16H583.539V66.072C584.131 64.936 585.235 64.376 586.275 64.376ZM586.003 71.96C587.443 71.96 588.435 70.84 588.435 68.744C588.435 66.696 587.443 65.576 586.019 65.576C584.483 65.576 583.539 66.696 583.539 68.728C583.539 70.84 584.467 71.96 586.003 71.96ZM597.615 70.488L598.59 71.032C598.142 72.088 597.07 73.144 595.166 73.144C592.718 73.144 591.262 71.32 591.262 68.664C591.262 66.136 592.814 64.36 595.038 64.36C596.926 64.36 598.542 65.688 598.542 68.04L598.51 69.016H592.638C592.734 71.096 593.742 71.976 595.279 71.976C596.446 71.976 597.199 71.304 597.615 70.488ZM595.038 65.512C593.838 65.512 592.798 66.136 592.638 67.944H597.199C597.214 66.232 596.174 65.512 595.038 65.512ZM602.294 63.512V64.52H604.662V65.624H602.294V73H600.918V65.624H599.366V64.52H600.918V63.544C600.918 61.912 601.974 60.984 603.43 60.984C604.118 60.984 604.854 61.256 605.27 61.88L604.534 62.744C604.278 62.392 603.894 62.168 603.462 62.168C602.87 62.168 602.294 62.536 602.294 63.512ZM612.138 73H610.874C610.746 72.552 610.65 72.024 610.65 71.368C610.218 72.312 609.21 73.144 607.802 73.144C606.282 73.144 605.162 72.136 605.162 70.664C605.162 68.856 606.746 67.944 608.538 67.944C609.178 67.944 609.802 68.008 610.442 68.216V67.256C610.442 66.232 609.818 65.544 608.602 65.544C607.594 65.544 606.778 66.04 606.378 67.208L605.194 66.84C605.818 65.048 607.178 64.36 608.682 64.36C610.842 64.36 611.786 65.656 611.786 67.176V70.584C611.786 71.56 611.946 72.44 612.138 73ZM610.442 69.496V69.288C609.85 69.048 609.242 68.984 608.65 68.984C607.45 68.984 606.522 69.528 606.522 70.568C606.522 71.496 607.178 72.024 608.138 72.024C609.146 72.024 610.442 71.416 610.442 69.496ZM617.229 72.968C616.941 73.032 616.685 73.08 616.397 73.08C614.957 73.08 614.269 72.2 614.269 70.824V61.16H615.645V70.76C615.645 71.496 616.045 71.848 616.717 71.848C616.877 71.848 617.053 71.832 617.229 71.784V72.968ZM620.834 70.68C620.834 71.656 621.426 71.944 621.97 71.944C622.466 71.944 622.818 71.752 623.202 71.352L623.858 72.2C623.266 72.856 622.61 73.128 621.794 73.128C620.514 73.128 619.458 72.312 619.458 70.712V65.624H617.906V64.52H619.458V62.664L620.834 61.96V64.52H623.682V65.624H620.834V70.68ZM638.172 64.36C639.82 64.36 640.78 65.416 640.78 67.192V73H639.404V67.4C639.404 66.136 638.796 65.592 637.772 65.592C636.38 65.592 635.756 66.616 635.756 68.296V73H634.38V67.4C634.38 66.136 633.772 65.592 632.732 65.592C631.356 65.592 630.732 66.616 630.732 68.296V73H629.356V64.52H630.732V65.784C631.276 64.856 632.124 64.36 633.148 64.36C634.412 64.36 635.276 64.984 635.596 66.072C636.124 64.952 637.068 64.36 638.172 64.36ZM649.731 73H648.467C648.339 72.552 648.243 72.024 648.243 71.368C647.811 72.312 646.803 73.144 645.395 73.144C643.875 73.144 642.755 72.136 642.755 70.664C642.755 68.856 644.339 67.944 646.131 67.944C646.771 67.944 647.395 68.008 648.035 68.216V67.256C648.035 66.232 647.411 65.544 646.195 65.544C645.187 65.544 644.371 66.04 643.971 67.208L642.787 66.84C643.411 65.048 644.771 64.36 646.275 64.36C648.435 64.36 649.379 65.656 649.379 67.176V70.584C649.379 71.56 649.539 72.44 649.731 73ZM648.035 69.496V69.288C647.443 69.048 646.835 68.984 646.243 68.984C645.043 68.984 644.115 69.528 644.115 70.568C644.115 71.496 644.771 72.024 645.731 72.024C646.739 72.024 648.035 71.416 648.035 69.496ZM657.206 73L654.294 68.92L653.286 69.912V73H651.91V61.16H653.286V68.328L657.078 64.52H658.822L655.222 68.024L658.886 73H657.206ZM659.528 66.776C659.528 65.4 660.824 64.36 662.696 64.36C664.264 64.36 665.416 65.048 665.864 66.168L664.824 66.696C664.472 65.944 663.704 65.528 662.664 65.528C661.576 65.528 660.856 65.96 660.856 66.68C660.856 67.304 661.256 67.672 662.168 67.864L663.4 68.104C665.24 68.472 666.12 69.288 666.12 70.568C666.12 72.088 664.776 73.128 662.792 73.128C661.064 73.128 659.832 72.456 659.224 71.208L660.28 70.648C660.712 71.512 661.56 71.976 662.76 71.976C663.976 71.976 664.792 71.448 664.792 70.648C664.792 69.944 664.376 69.56 663.4 69.352L661.944 69.064C660.376 68.744 659.528 67.944 659.528 66.776ZM672.122 64.376C674.234 64.376 675.706 66.168 675.706 68.68C675.706 71.304 674.218 73.128 671.962 73.128C670.874 73.128 669.898 72.616 669.386 71.528V73H668.01V61.16H669.386V66.072C669.978 64.936 671.082 64.376 672.122 64.376ZM671.85 71.96C673.29 71.96 674.282 70.84 674.282 68.744C674.282 66.696 673.29 65.576 671.866 65.576C670.33 65.576 669.386 66.696 669.386 68.728C669.386 70.84 670.314 71.96 671.85 71.96ZM681.045 64.36C682.197 64.36 682.997 65.128 682.997 66.584V67.528L681.813 67.752V66.904C681.813 66.088 681.541 65.544 680.693 65.544C679.733 65.544 679.029 66.216 679.029 67.896V73H677.653V64.52H679.029V65.608C679.493 64.744 680.293 64.36 681.045 64.36ZM690.23 70.488L691.206 71.032C690.758 72.088 689.686 73.144 687.782 73.144C685.334 73.144 683.878 71.32 683.878 68.664C683.878 66.136 685.43 64.36 687.654 64.36C689.542 64.36 691.158 65.688 691.158 68.04L691.126 69.016H685.254C685.35 71.096 686.358 71.976 687.894 71.976C689.062 71.976 689.814 71.304 690.23 70.488ZM687.654 65.512C686.454 65.512 685.414 66.136 685.254 67.944H689.814C689.83 66.232 688.79 65.512 687.654 65.512ZM698.983 61.16H700.359V73H698.983V71.416C698.391 72.552 697.287 73.112 696.247 73.112C694.135 73.112 692.663 71.336 692.663 68.824C692.663 66.184 694.151 64.376 696.407 64.376C697.495 64.376 698.471 64.888 698.983 65.976V61.16ZM696.503 71.912C698.039 71.912 698.983 70.808 698.983 68.76C698.983 66.648 698.055 65.528 696.519 65.528C695.079 65.528 694.087 66.648 694.087 68.76C694.087 70.792 695.079 71.912 696.503 71.912ZM708.564 61.16H709.94V73H708.564V71.416C707.972 72.552 706.868 73.112 705.828 73.112C703.716 73.112 702.244 71.336 702.244 68.824C702.244 66.184 703.732 64.376 705.988 64.376C707.076 64.376 708.052 64.888 708.564 65.976V61.16ZM706.084 71.912C707.62 71.912 708.564 70.808 708.564 68.76C708.564 66.648 707.636 65.528 706.1 65.528C704.66 65.528 703.668 66.648 703.668 68.76C703.668 70.792 704.66 71.912 706.084 71.912ZM718.177 70.488L719.153 71.032C718.705 72.088 717.633 73.144 715.729 73.144C713.281 73.144 711.825 71.32 711.825 68.664C711.825 66.136 713.377 64.36 715.601 64.36C717.489 64.36 719.105 65.688 719.105 68.04L719.073 69.016H713.201C713.297 71.096 714.305 71.976 715.841 71.976C717.009 71.976 717.761 71.304 718.177 70.488ZM715.601 65.512C714.401 65.512 713.361 66.136 713.201 67.944H717.761C717.777 66.232 716.737 65.512 715.601 65.512ZM727.143 60.2H728.343C727.239 62.76 726.695 65.256 726.695 67.832C726.695 70.392 727.239 72.856 728.343 75.4H727.143C725.911 72.856 725.303 70.408 725.303 67.832C725.303 65.24 725.927 62.744 727.143 60.2ZM734.571 65.352C736.763 65.352 738.315 66.888 738.315 69.032C738.315 71.352 736.603 73.128 733.899 73.128C732.379 73.128 730.907 72.552 729.771 70.952L730.811 70.136C731.675 71.352 732.667 71.88 733.995 71.88C735.707 71.88 736.875 70.664 736.875 69.128C736.875 67.528 735.803 66.552 734.315 66.552C733.227 66.552 732.523 66.888 731.595 67.784L730.507 67.368L730.891 61.16H737.403V62.456H732.075L731.787 66.44C732.507 65.736 733.499 65.352 734.571 65.352ZM744.173 73.128C741.805 73.128 739.789 70.952 739.789 67.08C739.789 63.208 741.789 61.016 744.173 61.016C746.557 61.016 748.557 63.208 748.557 67.08C748.557 70.952 746.541 73.128 744.173 73.128ZM744.173 71.784C745.821 71.784 747.085 70.392 747.085 67.08C747.085 63.816 745.821 62.376 744.173 62.376C742.525 62.376 741.261 63.816 741.261 67.08C741.261 70.392 742.525 71.784 744.173 71.784ZM754.207 73.128C751.839 73.128 749.823 70.952 749.823 67.08C749.823 63.208 751.823 61.016 754.207 61.016C756.591 61.016 758.591 63.208 758.591 67.08C758.591 70.952 756.575 73.128 754.207 73.128ZM754.207 71.784C755.855 71.784 757.119 70.392 757.119 67.08C757.119 63.816 755.855 62.376 754.207 62.376C752.559 62.376 751.295 63.816 751.295 67.08C751.295 70.392 752.559 71.784 754.207 71.784ZM764.578 64.376C766.69 64.376 768.146 66.168 768.146 68.68C768.146 71.304 766.674 73.128 764.418 73.128C763.33 73.128 762.37 72.616 761.842 71.544V76.36H760.466V64.52H761.842V66.072C762.434 64.936 763.522 64.376 764.578 64.376ZM764.306 71.96C765.746 71.96 766.722 70.84 766.722 68.744C766.722 66.696 765.746 65.576 764.306 65.576C762.77 65.576 761.842 66.696 761.842 68.728C761.842 70.84 762.77 71.96 764.306 71.96ZM776.485 73H774.821L772.613 69.512L770.453 73H768.933L771.861 68.616L769.045 64.52H770.709L772.837 67.816L774.869 64.52H776.389L773.573 68.696L776.485 73ZM778.849 75.4H777.633C778.737 72.84 779.297 70.344 779.297 67.768C779.297 65.208 778.737 62.744 777.633 60.2H778.849C780.081 62.744 780.689 65.192 780.689 67.768C780.689 70.36 780.065 72.856 778.849 75.4ZM784.9 67.464C784.244 67.464 783.748 66.968 783.748 66.312C783.748 65.656 784.244 65.16 784.9 65.16C785.556 65.16 786.052 65.656 786.052 66.312C786.052 66.968 785.556 67.464 784.9 67.464ZM784.9 73.096C784.244 73.096 783.748 72.6 783.748 71.944C783.748 71.288 784.244 70.792 784.9 70.792C785.556 70.792 786.052 71.288 786.052 71.944C786.052 72.6 785.556 73.096 784.9 73.096Z" fill="#2A2859"/>
</svg>
