<svg width="1062" height="263" viewBox="0 0 1062 263" fill="none" xmlns="http://www.w3.org/2000/svg">
<rect width="1062" height="263" fill="white"/>
<path d="M180.62 96.68V98.624H176.642V110H174.536V98.624H170.558V96.68H180.62ZM187.654 106.994L189.022 107.786C188.482 108.974 187.222 110.162 185.044 110.162C182.218 110.162 180.508 108.074 180.508 105.14C180.508 102.242 182.362 100.244 184.9 100.244C187.15 100.244 189.004 101.756 189.004 104.456L188.968 105.644H182.488C182.596 107.66 183.586 108.524 185.17 108.524C186.34 108.524 187.15 107.894 187.654 106.994ZM184.9 101.828C183.676 101.828 182.65 102.476 182.488 104.204H187.042C187.06 102.512 186.016 101.828 184.9 101.828ZM195.124 109.946C194.746 110.054 194.368 110.108 193.972 110.108C192.154 110.108 191.29 109.028 191.29 107.282V96.68H193.306V107.138C193.306 107.966 193.792 108.344 194.53 108.344C194.71 108.344 194.908 108.326 195.124 108.272V109.946ZM203.39 106.994L204.758 107.786C204.218 108.974 202.958 110.162 200.78 110.162C197.954 110.162 196.244 108.074 196.244 105.14C196.244 102.242 198.098 100.244 200.636 100.244C202.886 100.244 204.74 101.756 204.74 104.456L204.704 105.644H198.224C198.332 107.66 199.322 108.524 200.906 108.524C202.076 108.524 202.886 107.894 203.39 106.994ZM200.636 101.828C199.412 101.828 198.386 102.476 198.224 104.204H202.778C202.796 102.512 201.752 101.828 200.636 101.828ZM209.463 99.596V100.46H212.145V102.026H209.463V110H207.447V102.026H205.773V100.46H207.447V99.686C207.447 97.616 208.797 96.41 210.669 96.41C211.551 96.41 212.433 96.77 212.955 97.418L212.001 98.75C211.713 98.39 211.281 98.174 210.813 98.174C210.075 98.174 209.463 98.606 209.463 99.596ZM217.132 110.18C214.648 110.18 212.614 108.236 212.614 105.176C212.614 102.188 214.63 100.244 217.132 100.244C219.634 100.244 221.65 102.188 221.65 105.176C221.65 108.236 219.616 110.18 217.132 110.18ZM217.132 108.47C218.482 108.47 219.58 107.426 219.58 105.176C219.58 102.908 218.464 101.954 217.132 101.954C215.8 101.954 214.684 102.908 214.684 105.176C214.684 107.426 215.8 108.47 217.132 108.47ZM228.572 100.244C230.516 100.244 231.668 101.504 231.668 103.574V110H229.652V103.898C229.652 102.584 229.022 101.99 227.924 101.99C226.502 101.99 225.782 102.98 225.782 104.834V110H223.766V100.46H225.782V101.828C226.43 100.82 227.384 100.244 228.572 100.244ZM239.2 100.244C241.144 100.244 242.296 101.504 242.296 103.574V110H240.28V103.898C240.28 102.584 239.65 101.99 238.552 101.99C237.13 101.99 236.41 102.98 236.41 104.834V110H234.394V100.46H236.41V101.828C237.058 100.82 238.012 100.244 239.2 100.244ZM250.551 100.46H252.567V110H250.551V108.596C249.939 109.64 248.985 110.162 247.815 110.162C245.853 110.162 244.719 108.902 244.719 106.832V100.46H246.735V106.526C246.735 107.768 247.347 108.434 248.445 108.434C249.849 108.434 250.551 107.426 250.551 105.572V100.46ZM265.74 100.244C267.648 100.244 268.746 101.486 268.746 103.484V110H266.73V103.826C266.73 102.566 266.136 101.99 265.092 101.99C263.688 101.99 262.986 102.962 262.986 104.834V110H260.97V103.826C260.97 102.566 260.376 101.99 259.332 101.99C257.946 101.99 257.244 102.962 257.244 104.834V110H255.228V100.46H257.244V101.81C257.892 100.784 258.828 100.244 259.98 100.244C261.438 100.244 262.392 100.946 262.806 102.134C263.454 100.874 264.462 100.244 265.74 100.244ZM282.011 100.244C283.919 100.244 285.017 101.486 285.017 103.484V110H283.001V103.826C283.001 102.566 282.407 101.99 281.363 101.99C279.959 101.99 279.257 102.962 279.257 104.834V110H277.241V103.826C277.241 102.566 276.647 101.99 275.603 101.99C274.217 101.99 273.515 102.962 273.515 104.834V110H271.499V100.46H273.515V101.81C274.163 100.784 275.099 100.244 276.251 100.244C277.709 100.244 278.663 100.946 279.077 102.134C279.725 100.874 280.733 100.244 282.011 100.244ZM294.322 106.994L295.69 107.786C295.15 108.974 293.89 110.162 291.712 110.162C288.886 110.162 287.176 108.074 287.176 105.14C287.176 102.242 289.03 100.244 291.568 100.244C293.818 100.244 295.672 101.756 295.672 104.456L295.636 105.644H289.156C289.264 107.66 290.254 108.524 291.838 108.524C293.008 108.524 293.818 107.894 294.322 106.994ZM291.568 101.828C290.344 101.828 289.318 102.476 289.156 104.204H293.71C293.728 102.512 292.684 101.828 291.568 101.828ZM302.332 100.244C303.718 100.244 304.618 101.162 304.618 102.8V104.06L302.998 104.348V103.376C302.998 102.512 302.692 101.918 301.756 101.918C300.73 101.918 299.974 102.602 299.974 104.42V110H297.958V100.46H299.974V101.738C300.514 100.676 301.504 100.244 302.332 100.244Z" fill="#2A2859"/>
<rect x="171" y="127" width="193" height="46" fill="white"/>
<path d="M196.08 148.872V149.916H192.3V153.732H191.22V149.916H187.44V148.872H191.22V145.056H192.3V148.872H196.08ZM212.375 151.356V152.472H210.071V156H208.883V152.472H202.907V151.464L206.093 142.68H207.245L204.149 151.356H208.883V147.396L210.071 147.036V151.356H212.375ZM214.545 142.68H223.833V143.724L217.497 156H216.129L222.537 143.796H215.697V146.64H214.545V142.68Z" fill="#2A2859"/>
<path d="M232 136V164H234V136H232Z" fill="#2A2859" mask="url(#path-3-inside-1_5492_168341)"/>
<path d="M247.57 154.956H250.522V156H243.25V154.956H246.346V144.084L243.43 146.1V144.768L246.418 142.68H247.57V154.956ZM255.59 154.848H262.61V156H253.898V155.064L258.686 149.736C260.108 148.17 260.702 147.306 260.702 146.1C260.702 144.75 259.802 143.652 258.038 143.652C256.67 143.652 255.5 144.264 254.906 145.938L253.79 145.56C254.654 143.364 256.202 142.536 258.092 142.536C260.666 142.536 261.962 144.3 261.962 145.992C261.962 147.468 261.404 148.458 259.532 150.528L255.59 154.848ZM271.439 148.962C272.771 149.412 273.815 150.528 273.815 152.256C273.815 154.398 272.033 156.144 269.189 156.144C267.479 156.144 265.823 155.496 264.563 153.696L265.499 152.94C266.489 154.38 267.623 155.028 269.297 155.028C271.349 155.028 272.591 153.786 272.591 152.256C272.591 151.158 272.141 150.51 271.493 150.114C270.971 149.808 270.503 149.664 269.639 149.664H267.857V148.584H269.225C270.305 148.584 270.719 148.422 271.205 148.044C271.745 147.612 272.069 146.928 272.069 146.1C272.069 144.624 270.953 143.652 269.153 143.652C267.749 143.652 266.561 144.3 265.913 146.01L264.833 145.632C265.751 143.436 267.317 142.536 269.225 142.536C271.925 142.536 273.257 144.318 273.257 146.064C273.257 147.36 272.501 148.44 271.439 148.962ZM290.002 151.356V152.472H287.698V156H286.51V152.472H280.534V151.464L283.72 142.68H284.872L281.776 151.356H286.51V147.396L287.698 147.036V151.356H290.002ZM296.816 147.432C299.282 147.432 301.028 149.178 301.028 151.572C301.028 154.146 299.138 156.144 296.168 156.144C294.512 156.144 292.856 155.496 291.596 153.696L292.532 152.94C293.522 154.38 294.71 155.028 296.312 155.028C298.382 155.028 299.804 153.516 299.804 151.644C299.804 149.772 298.562 148.548 296.708 148.548C295.412 148.548 294.584 148.944 293.414 150.042L292.424 149.664L292.874 142.68H300.02V143.832H293.936L293.576 148.692C294.44 147.882 295.592 147.432 296.816 147.432ZM312.391 156.144C309.331 156.144 307.567 153.606 307.567 149.268C307.567 145.434 309.457 142.536 312.859 142.536C314.713 142.536 315.991 143.472 316.585 144.93L315.487 145.47C315.019 144.354 313.975 143.652 312.787 143.652C310.141 143.652 308.449 146.082 308.791 150.348C309.403 148.494 310.987 147.558 312.589 147.558C314.641 147.558 316.747 149.142 316.747 151.788C316.747 153.93 315.307 156.144 312.391 156.144ZM309.331 151.824C309.331 153.894 310.771 155.028 312.463 155.028C314.155 155.028 315.523 153.912 315.523 151.824C315.523 150.06 314.191 148.71 312.427 148.71C310.825 148.71 309.331 149.754 309.331 151.824ZM319.205 142.68H328.493V143.724L322.157 156H320.789L327.197 143.796H320.357V146.64H319.205V142.68ZM334.767 156.144C331.995 156.144 330.087 154.524 330.087 152.4C330.087 150.816 331.203 149.556 332.787 149.124C331.347 148.584 330.627 147.288 330.627 146.1C330.627 144.03 332.391 142.536 334.767 142.536C337.143 142.536 338.907 144.03 338.907 146.1C338.907 147.288 338.187 148.584 336.747 149.124C338.331 149.556 339.447 150.816 339.447 152.4C339.447 154.524 337.539 156.144 334.767 156.144ZM334.767 148.584C336.423 148.584 337.719 147.756 337.719 146.172C337.719 144.354 336.261 143.58 334.767 143.58C333.273 143.58 331.815 144.336 331.815 146.172C331.815 147.756 333.111 148.584 334.767 148.584ZM334.767 155.028C336.783 155.028 338.259 154.128 338.259 152.256C338.259 150.51 336.747 149.664 334.767 149.664C332.787 149.664 331.275 150.51 331.275 152.256C331.275 154.146 332.751 155.028 334.767 155.028Z" fill="#2A2859"/>
<rect x="171" y="127" width="193" height="46" stroke="#2A2859" stroke-width="2"/>
<path d="M817.138 96.68C820.144 96.68 821.998 98.444 821.998 101.072C821.998 103.7 820.054 105.464 817.03 105.464H814.672V110H812.566V96.68H817.138ZM817.21 103.628C818.866 103.628 819.82 102.746 819.82 101.144C819.82 99.47 818.866 98.588 817.192 98.588H814.672V103.628H817.21ZM827.151 110.18C824.667 110.18 822.633 108.236 822.633 105.176C822.633 102.188 824.649 100.244 827.151 100.244C829.653 100.244 831.669 102.188 831.669 105.176C831.669 108.236 829.635 110.18 827.151 110.18ZM827.151 108.47C828.501 108.47 829.599 107.426 829.599 105.176C829.599 102.908 828.483 101.954 827.151 101.954C825.819 101.954 824.703 102.908 824.703 105.176C824.703 107.426 825.819 108.47 827.151 108.47ZM833.281 103.088C833.281 101.468 834.775 100.244 837.025 100.244C838.879 100.244 840.121 100.91 840.787 102.188L839.383 103.052C838.951 102.314 838.087 101.864 837.007 101.864C835.927 101.864 835.189 102.278 835.189 102.962C835.189 103.52 835.567 103.862 836.413 104.024L838.015 104.348C840.031 104.744 841.039 105.698 841.039 107.156C841.039 108.956 839.473 110.162 837.115 110.162C835.117 110.162 833.695 109.406 832.957 108.02L834.361 107.138C834.883 108.02 835.801 108.524 837.061 108.524C838.285 108.524 839.113 108.038 839.113 107.246C839.113 106.598 838.717 106.238 837.835 106.058L836.071 105.716C834.271 105.374 833.281 104.456 833.281 103.088ZM845.636 107.048C845.636 108.11 846.284 108.434 846.95 108.434C847.472 108.434 847.886 108.218 848.3 107.804L849.164 109.1C848.444 109.82 847.652 110.162 846.626 110.162C844.97 110.162 843.62 109.154 843.62 107.174V102.026H841.946V100.46H843.62V98.336L845.636 97.418V100.46H849.002V102.026H845.636V107.048ZM855.716 100.244C857.66 100.244 858.812 101.504 858.812 103.574V110H856.796V103.898C856.796 102.584 856.166 101.99 855.068 101.99C853.646 101.99 852.926 102.98 852.926 104.834V110H850.91V100.46H852.926V101.828C853.574 100.82 854.528 100.244 855.716 100.244ZM867.067 100.46H869.083V110H867.067V108.596C866.455 109.64 865.501 110.162 864.331 110.162C862.369 110.162 861.235 108.902 861.235 106.832V100.46H863.251V106.526C863.251 107.768 863.863 108.434 864.961 108.434C866.365 108.434 867.067 107.426 867.067 105.572V100.46ZM882.256 100.244C884.164 100.244 885.262 101.486 885.262 103.484V110H883.246V103.826C883.246 102.566 882.652 101.99 881.608 101.99C880.204 101.99 879.502 102.962 879.502 104.834V110H877.486V103.826C877.486 102.566 876.892 101.99 875.848 101.99C874.462 101.99 873.76 102.962 873.76 104.834V110H871.744V100.46H873.76V101.81C874.408 100.784 875.344 100.244 876.496 100.244C877.954 100.244 878.908 100.946 879.322 102.134C879.97 100.874 880.978 100.244 882.256 100.244ZM898.527 100.244C900.435 100.244 901.533 101.486 901.533 103.484V110H899.517V103.826C899.517 102.566 898.923 101.99 897.879 101.99C896.475 101.99 895.773 102.962 895.773 104.834V110H893.757V103.826C893.757 102.566 893.163 101.99 892.119 101.99C890.733 101.99 890.031 102.962 890.031 104.834V110H888.015V100.46H890.031V101.81C890.679 100.784 891.615 100.244 892.767 100.244C894.225 100.244 895.179 100.946 895.593 102.134C896.241 100.874 897.249 100.244 898.527 100.244ZM910.838 106.994L912.206 107.786C911.666 108.974 910.406 110.162 908.228 110.162C905.402 110.162 903.692 108.074 903.692 105.14C903.692 102.242 905.546 100.244 908.084 100.244C910.334 100.244 912.188 101.756 912.188 104.456L912.152 105.644H905.672C905.78 107.66 906.77 108.524 908.354 108.524C909.524 108.524 910.334 107.894 910.838 106.994ZM908.084 101.828C906.86 101.828 905.834 102.476 905.672 104.204H910.226C910.244 102.512 909.2 101.828 908.084 101.828ZM918.848 100.244C920.234 100.244 921.134 101.162 921.134 102.8V104.06L919.514 104.348V103.376C919.514 102.512 919.208 101.918 918.272 101.918C917.246 101.918 916.49 102.602 916.49 104.42V110H914.474V100.46H916.49V101.738C917.03 100.676 918.02 100.244 918.848 100.244Z" fill="#2A2859"/>
<rect x="812" y="127" width="79" height="46" fill="white"/>
<path d="M833.57 154.956H836.522V156H829.25V154.956H832.346V144.084L829.43 146.1V144.768L832.418 142.68H833.57V154.956ZM841.59 154.848H848.61V156H839.898V155.064L844.686 149.736C846.108 148.17 846.702 147.306 846.702 146.1C846.702 144.75 845.802 143.652 844.038 143.652C842.67 143.652 841.5 144.264 840.906 145.938L839.79 145.56C840.654 143.364 842.202 142.536 844.092 142.536C846.666 142.536 847.962 144.3 847.962 145.992C847.962 147.468 847.404 148.458 845.532 150.528L841.59 154.848ZM857.439 148.962C858.771 149.412 859.815 150.528 859.815 152.256C859.815 154.398 858.033 156.144 855.189 156.144C853.479 156.144 851.823 155.496 850.563 153.696L851.499 152.94C852.489 154.38 853.623 155.028 855.297 155.028C857.349 155.028 858.591 153.786 858.591 152.256C858.591 151.158 858.141 150.51 857.493 150.114C856.971 149.808 856.503 149.664 855.639 149.664H853.857V148.584H855.225C856.305 148.584 856.719 148.422 857.205 148.044C857.745 147.612 858.069 146.928 858.069 146.1C858.069 144.624 856.953 143.652 855.153 143.652C853.749 143.652 852.561 144.3 851.913 146.01L850.833 145.632C851.751 143.436 853.317 142.536 855.225 142.536C857.925 142.536 859.257 144.318 859.257 146.064C859.257 147.36 858.501 148.44 857.439 148.962ZM871.597 151.356V152.472H869.293V156H868.105V152.472H862.129V151.464L865.315 142.68H866.467L863.371 151.356H868.105V147.396L869.293 147.036V151.356H871.597Z" fill="#2A2859"/>
<rect x="812" y="127" width="79" height="46" stroke="#2A2859" stroke-width="2"/>
<path d="M436.672 108.056H443.152V110H434.566V96.68H443.044V98.624H436.672V102.35H441.586V104.294H436.672V108.056ZM444.13 102.746H448.45V104.654H444.13V102.746ZM455.867 100.262C458.171 100.262 459.827 102.224 459.827 105.14C459.827 108.128 458.153 110.144 455.633 110.144C454.553 110.144 453.491 109.676 452.879 108.506V113.78H450.863V100.46H452.879V102.134C453.617 100.802 454.769 100.262 455.867 100.262ZM455.327 108.488C456.713 108.488 457.739 107.372 457.739 105.23C457.739 103.088 456.713 101.99 455.327 101.99C453.851 101.99 452.879 102.998 452.879 105.212C452.879 107.426 453.851 108.488 455.327 108.488ZM465.872 110.18C463.388 110.18 461.354 108.236 461.354 105.176C461.354 102.188 463.37 100.244 465.872 100.244C468.374 100.244 470.39 102.188 470.39 105.176C470.39 108.236 468.356 110.18 465.872 110.18ZM465.872 108.47C467.222 108.47 468.32 107.426 468.32 105.176C468.32 102.908 467.204 101.954 465.872 101.954C464.54 101.954 463.424 102.908 463.424 105.176C463.424 107.426 464.54 108.47 465.872 108.47ZM472.002 103.088C472.002 101.468 473.496 100.244 475.746 100.244C477.6 100.244 478.842 100.91 479.508 102.188L478.104 103.052C477.672 102.314 476.808 101.864 475.728 101.864C474.648 101.864 473.91 102.278 473.91 102.962C473.91 103.52 474.288 103.862 475.134 104.024L476.736 104.348C478.752 104.744 479.76 105.698 479.76 107.156C479.76 108.956 478.194 110.162 475.836 110.162C473.838 110.162 472.416 109.406 471.678 108.02L473.082 107.138C473.604 108.02 474.522 108.524 475.782 108.524C477.006 108.524 477.834 108.038 477.834 107.246C477.834 106.598 477.438 106.238 476.556 106.058L474.792 105.716C472.992 105.374 472.002 104.456 472.002 103.088ZM484.357 107.048C484.357 108.11 485.005 108.434 485.671 108.434C486.193 108.434 486.607 108.218 487.021 107.804L487.885 109.1C487.165 109.82 486.373 110.162 485.347 110.162C483.691 110.162 482.341 109.154 482.341 107.174V102.026H480.667V100.46H482.341V98.336L484.357 97.418V100.46H487.723V102.026H484.357V107.048Z" fill="#2A2859"/>
<rect width="62" height="22" transform="translate(499 93)" fill="#E5FCFF"/>
<path d="M510.924 98.64H511.96L508.166 109H507.186L503.42 98.64H504.484L507.69 107.866L510.924 98.64ZM517.992 109H517.124C517.012 108.594 516.928 108.104 516.928 107.544C516.55 108.412 515.584 109.112 514.38 109.112C513.064 109.112 512.07 108.258 512.07 106.984C512.07 105.458 513.442 104.66 514.968 104.66C515.57 104.66 516.158 104.73 516.76 104.94V103.96C516.76 102.994 516.172 102.336 515.024 102.336C514.1 102.336 513.316 102.742 512.924 103.876L512.084 103.624C512.644 102.056 513.778 101.468 515.08 101.468C516.914 101.468 517.684 102.574 517.684 103.848V106.9C517.684 107.74 517.824 108.496 517.992 109ZM516.76 105.92V105.752C516.186 105.514 515.598 105.444 515.024 105.444C513.904 105.444 513.022 105.948 513.022 106.928C513.022 107.824 513.652 108.3 514.548 108.3C515.514 108.3 516.76 107.726 516.76 105.92ZM522.415 108.972C522.191 109.028 522.009 109.056 521.799 109.056C520.637 109.056 520.091 108.328 520.091 107.236V98.64H521.043V107.236C521.043 107.866 521.379 108.188 521.967 108.188C522.121 108.188 522.275 108.174 522.415 108.132V108.972ZM530.542 102.364H528.946V102.63C529.31 103.078 529.506 103.638 529.506 104.184C529.506 105.542 528.526 106.928 526.44 106.928H526.118C525.278 106.928 524.676 107.25 524.676 107.74C524.676 108.118 524.97 108.384 525.586 108.384H528.596C529.8 108.384 530.416 108.972 530.416 109.896C530.416 111.366 528.722 112.136 526.636 112.136C524.76 112.136 523.458 111.534 523.01 110.232L523.78 109.882C524.298 111.1 525.39 111.338 526.636 111.338C528.176 111.338 529.464 110.876 529.464 109.98C529.464 109.56 529.24 109.252 528.568 109.252H525.376C524.34 109.252 523.724 108.762 523.724 107.992C523.724 107.334 524.27 106.76 525.18 106.522C524.2 106.13 523.654 105.094 523.654 104.184C523.654 102.854 524.648 101.468 526.608 101.468C527.378 101.468 527.966 101.72 528.414 102.098V101.58H530.542V102.364ZM526.594 106.144C527.91 106.144 528.568 105.234 528.568 104.184C528.568 103.148 527.91 102.28 526.594 102.28C525.264 102.28 524.592 103.162 524.592 104.184C524.592 105.22 525.264 106.144 526.594 106.144ZM533.237 100.544V101.58H535.309V102.364H533.237V109H532.285V102.364H530.885V101.58H532.285V100.544C532.285 99.256 533.125 98.528 534.273 98.528C534.805 98.528 535.421 98.738 535.771 99.298L535.197 99.872C534.973 99.536 534.637 99.34 534.245 99.34C533.755 99.34 533.237 99.634 533.237 100.544ZM539.417 101.468C540.383 101.468 541.083 102.112 541.083 103.372V104.1L540.215 104.268V103.54C540.215 102.798 539.963 102.308 539.207 102.308C538.353 102.308 537.709 102.938 537.709 104.436V109H536.757V101.58H537.709V102.504C538.101 101.804 538.759 101.468 539.417 101.468ZM543.44 100.236C542.978 100.236 542.6 99.872 542.6 99.396C542.6 98.92 542.978 98.556 543.44 98.556C543.902 98.556 544.28 98.92 544.28 99.396C544.28 99.872 543.902 100.236 543.44 100.236ZM542.964 109V101.58H543.916V109H542.964ZM547.811 107.152C547.811 108.02 548.329 108.272 548.791 108.272C549.239 108.272 549.533 108.104 549.883 107.74L550.387 108.3C549.897 108.874 549.365 109.112 548.707 109.112C547.699 109.112 546.859 108.44 546.859 107.124V102.364H545.459V101.58H546.859V99.984L547.811 99.424V101.58H550.219V102.364H547.811V107.152ZM553.225 107.152C553.225 108.02 553.743 108.272 554.205 108.272C554.653 108.272 554.947 108.104 555.297 107.74L555.801 108.3C555.311 108.874 554.779 109.112 554.121 109.112C553.113 109.112 552.273 108.44 552.273 107.124V102.364H550.873V101.58H552.273V99.984L553.225 99.424V101.58H555.633V102.364H553.225V107.152Z" fill="#2A2859"/>
<rect x="434" y="127" width="308" height="46" fill="white"/>
<path d="M454.544 146.316C456.452 146.316 457.568 147.486 457.568 149.628V156H456.344V149.808C456.344 148.08 455.552 147.432 454.22 147.432C452.546 147.432 451.772 148.728 451.772 150.636V156H450.548V146.46H451.772V147.936C452.348 146.892 453.392 146.316 454.544 146.316ZM467.425 156H466.309C466.165 155.478 466.057 154.848 466.057 154.128C465.571 155.244 464.329 156.144 462.781 156.144C461.089 156.144 459.811 155.046 459.811 153.408C459.811 151.446 461.575 150.42 463.537 150.42C464.311 150.42 465.067 150.51 465.841 150.78V149.52C465.841 148.278 465.085 147.432 463.609 147.432C462.421 147.432 461.413 147.954 460.909 149.412L459.829 149.088C460.549 147.072 462.007 146.316 463.681 146.316C466.039 146.316 467.029 147.738 467.029 149.376V153.3C467.029 154.38 467.209 155.352 467.425 156ZM465.841 152.04V151.824C465.103 151.518 464.347 151.428 463.609 151.428C462.169 151.428 461.035 152.076 461.035 153.336C461.035 154.488 461.845 155.1 462.997 155.1C464.239 155.1 465.841 154.362 465.841 152.04ZM475.656 146.46H476.916L473.172 156H472.092L468.348 146.46H469.68L472.668 154.65L475.656 146.46ZM482.579 146.316C484.487 146.316 485.603 147.486 485.603 149.628V156H484.379V149.808C484.379 148.08 483.587 147.432 482.255 147.432C480.581 147.432 479.807 148.728 479.807 150.636V156H478.583V146.46H479.807V147.936C480.383 146.892 481.427 146.316 482.579 146.316ZM489.25 156.108C488.602 156.108 488.098 155.622 488.098 154.956C488.098 154.29 488.602 153.804 489.25 153.804C489.898 153.804 490.402 154.29 490.402 154.956C490.402 155.622 489.898 156.108 489.25 156.108ZM497.05 146.316C498.958 146.316 500.074 147.486 500.074 149.628V156H498.85V149.808C498.85 148.08 498.058 147.432 496.726 147.432C495.052 147.432 494.278 148.728 494.278 150.636V156H493.054V146.46H494.278V147.936C494.854 146.892 495.898 146.316 497.05 146.316ZM509.931 156H508.815C508.671 155.478 508.563 154.848 508.563 154.128C508.077 155.244 506.835 156.144 505.287 156.144C503.595 156.144 502.317 155.046 502.317 153.408C502.317 151.446 504.081 150.42 506.043 150.42C506.817 150.42 507.573 150.51 508.347 150.78V149.52C508.347 148.278 507.591 147.432 506.115 147.432C504.927 147.432 503.919 147.954 503.415 149.412L502.335 149.088C503.055 147.072 504.513 146.316 506.187 146.316C508.545 146.316 509.535 147.738 509.535 149.376V153.3C509.535 154.38 509.715 155.352 509.931 156ZM508.347 152.04V151.824C507.609 151.518 506.853 151.428 506.115 151.428C504.675 151.428 503.541 152.076 503.541 153.336C503.541 154.488 504.351 155.1 505.503 155.1C506.745 155.1 508.347 154.362 508.347 152.04ZM518.162 146.46H519.422L515.678 156H514.598L510.854 146.46H512.186L515.174 154.65L518.162 146.46ZM525.085 146.316C526.993 146.316 528.109 147.486 528.109 149.628V156H526.885V149.808C526.885 148.08 526.093 147.432 524.761 147.432C523.087 147.432 522.313 148.728 522.313 150.636V156H521.089V146.46H522.313V147.936C522.889 146.892 523.933 146.316 525.085 146.316ZM537.371 153.3L538.271 153.804C537.821 154.956 536.633 156.144 534.509 156.144C531.827 156.144 530.243 154.146 530.243 151.104C530.243 148.314 531.899 146.316 534.383 146.316C536.435 146.316 538.199 147.792 538.199 150.384L538.163 151.446H531.485C531.593 153.984 532.799 155.064 534.635 155.064C536.075 155.064 536.921 154.236 537.371 153.3ZM534.383 147.396C532.943 147.396 531.647 148.17 531.485 150.438H536.993C537.047 148.296 535.787 147.396 534.383 147.396ZM540.119 148.944C540.119 147.432 541.541 146.316 543.539 146.316C545.267 146.316 546.599 147.144 546.995 148.404L545.987 148.8C545.609 147.882 544.727 147.396 543.503 147.396C542.171 147.396 541.307 147.954 541.307 148.836C541.307 149.628 541.829 150.114 542.963 150.348L544.223 150.6C546.311 151.014 547.283 151.914 547.283 153.336C547.283 154.992 545.807 156.144 543.683 156.144C541.757 156.144 540.407 155.388 539.759 153.948L540.803 153.516C541.253 154.524 542.243 155.064 543.647 155.064C545.123 155.064 546.095 154.416 546.095 153.444C546.095 152.544 545.591 152.058 544.331 151.788L542.783 151.464C541.037 151.104 540.119 150.222 540.119 148.944ZM556.009 153.3L556.909 153.804C556.459 154.956 555.271 156.144 553.147 156.144C550.465 156.144 548.881 154.146 548.881 151.104C548.881 148.314 550.537 146.316 553.021 146.316C555.073 146.316 556.837 147.792 556.837 150.384L556.801 151.446H550.123C550.231 153.984 551.437 155.064 553.273 155.064C554.713 155.064 555.559 154.236 556.009 153.3ZM553.021 147.396C551.581 147.396 550.285 148.17 550.123 150.438H555.631C555.685 148.296 554.425 147.396 553.021 147.396ZM563.22 146.316C565.128 146.316 566.244 147.486 566.244 149.628V156H565.02V149.808C565.02 148.08 564.228 147.432 562.896 147.432C561.222 147.432 560.448 148.728 560.448 150.636V156H559.224V146.46H560.448V147.936C561.024 146.892 562.068 146.316 563.22 146.316ZM577.145 143.328C581.087 143.328 584.183 146.208 584.183 150.366C584.183 153.066 582.977 155.694 580.457 155.694C579.071 155.694 578.351 154.74 578.423 153.552C577.829 154.542 576.821 155.1 575.813 155.1C574.031 155.1 572.879 153.714 572.879 151.734C572.879 149.16 574.571 147.234 576.623 147.234C577.631 147.234 578.549 147.756 578.909 148.71L579.017 147.45H580.007L579.323 153.066C579.197 154.2 579.647 154.794 580.457 154.794C582.293 154.794 583.067 152.724 583.067 150.438C583.067 146.748 580.457 144.336 577.055 144.336C573.041 144.336 570.035 147.396 570.035 151.77C570.035 155.892 572.627 158.232 576.047 158.232C577.325 158.232 578.549 157.908 579.593 157.242L580.043 158.088C578.801 158.862 577.451 159.24 575.957 159.24C571.925 159.24 568.883 156.342 568.883 151.806C568.883 146.784 572.483 143.328 577.145 143.328ZM575.939 154.146C577.775 154.146 578.675 152.13 578.675 150.708C578.675 149.124 577.919 148.188 576.479 148.188C574.877 148.188 573.923 149.844 573.923 151.68C573.923 153.318 574.697 154.146 575.939 154.146ZM590.603 156.144C588.245 156.144 586.355 154.2 586.355 151.212C586.355 148.26 588.227 146.316 590.603 146.316C592.979 146.316 594.851 148.26 594.851 151.212C594.851 154.2 592.961 156.144 590.603 156.144ZM590.603 155.064C592.241 155.064 593.591 153.768 593.591 151.212C593.591 148.674 592.223 147.396 590.603 147.396C588.983 147.396 587.615 148.674 587.615 151.212C587.615 153.768 588.965 155.064 590.603 155.064ZM596.67 148.944C596.67 147.432 598.092 146.316 600.09 146.316C601.818 146.316 603.15 147.144 603.546 148.404L602.538 148.8C602.16 147.882 601.278 147.396 600.054 147.396C598.722 147.396 597.858 147.954 597.858 148.836C597.858 149.628 598.38 150.114 599.514 150.348L600.774 150.6C602.862 151.014 603.834 151.914 603.834 153.336C603.834 154.992 602.358 156.144 600.234 156.144C598.308 156.144 596.958 155.388 596.31 153.948L597.354 153.516C597.804 154.524 598.794 155.064 600.198 155.064C601.674 155.064 602.646 154.416 602.646 153.444C602.646 152.544 602.142 152.058 600.882 151.788L599.334 151.464C597.588 151.104 596.67 150.222 596.67 148.944ZM609.031 155.964C608.743 156.036 608.509 156.072 608.239 156.072C606.745 156.072 606.043 155.136 606.043 153.732V142.68H607.267V153.732C607.267 154.542 607.699 154.956 608.455 154.956C608.653 154.956 608.851 154.938 609.031 154.884V155.964ZM614.419 156.144C612.061 156.144 610.171 154.2 610.171 151.212C610.171 148.26 612.043 146.316 614.419 146.316C616.795 146.316 618.667 148.26 618.667 151.212C618.667 154.2 616.777 156.144 614.419 156.144ZM614.419 155.064C616.057 155.064 617.407 153.768 617.407 151.212C617.407 148.674 616.039 147.396 614.419 147.396C612.799 147.396 611.431 148.674 611.431 151.212C611.431 153.768 612.781 155.064 614.419 155.064ZM620.53 153.984H622.474V156H620.53V153.984ZM631.247 156L627.737 151.266L626.567 152.382V156H625.343V142.68H626.567V150.942L631.103 146.46H632.723L628.565 150.456L632.795 156H631.247ZM637.567 156.144C635.209 156.144 633.319 154.2 633.319 151.212C633.319 148.26 635.191 146.316 637.567 146.316C639.943 146.316 641.815 148.26 641.815 151.212C641.815 154.2 639.925 156.144 637.567 156.144ZM637.567 155.064C639.205 155.064 640.555 153.768 640.555 151.212C640.555 148.674 639.187 147.396 637.567 147.396C635.947 147.396 634.579 148.674 634.579 151.212C634.579 153.768 635.929 155.064 637.567 155.064ZM653.606 146.316C655.424 146.316 656.486 147.468 656.486 149.448V156H655.262V149.628C655.262 148.08 654.524 147.432 653.282 147.432C651.608 147.432 650.906 148.728 650.906 150.636V156H649.682V149.628C649.682 148.08 648.944 147.432 647.702 147.432C646.028 147.432 645.326 148.728 645.326 150.636V156H644.102V146.46H645.326V147.954C645.902 146.892 646.91 146.316 648.026 146.316C649.448 146.316 650.402 147.018 650.744 148.26C651.284 147 652.382 146.316 653.606 146.316ZM668.734 146.316C670.552 146.316 671.614 147.468 671.614 149.448V156H670.39V149.628C670.39 148.08 669.652 147.432 668.41 147.432C666.736 147.432 666.034 148.728 666.034 150.636V156H664.81V149.628C664.81 148.08 664.072 147.432 662.83 147.432C661.156 147.432 660.454 148.728 660.454 150.636V156H659.23V146.46H660.454V147.954C661.03 146.892 662.038 146.316 663.154 146.316C664.576 146.316 665.53 147.018 665.872 148.26C666.412 147 667.51 146.316 668.734 146.316ZM679.902 146.46H681.126V156H679.902V154.542C679.326 155.568 678.318 156.144 677.148 156.144C675.276 156.144 674.142 154.938 674.142 152.868V146.46H675.366V152.76C675.366 154.326 676.158 155.046 677.49 155.046C679.182 155.046 679.902 153.696 679.902 151.824V146.46ZM687.945 146.316C689.853 146.316 690.969 147.486 690.969 149.628V156H689.745V149.808C689.745 148.08 688.953 147.432 687.621 147.432C685.947 147.432 685.173 148.728 685.173 150.636V156H683.949V146.46H685.173V147.936C685.749 146.892 686.793 146.316 687.945 146.316ZM700.232 153.3L701.132 153.804C700.682 154.956 699.494 156.144 697.37 156.144C694.688 156.144 693.104 154.146 693.104 151.104C693.104 148.314 694.76 146.316 697.244 146.316C699.296 146.316 701.06 147.792 701.06 150.384L701.024 151.446H694.346C694.454 153.984 695.66 155.064 697.496 155.064C698.936 155.064 699.782 154.236 700.232 153.3ZM697.244 147.396C695.804 147.396 694.508 148.17 694.346 150.438H699.854C699.908 148.296 698.648 147.396 697.244 147.396ZM704.172 156.108C703.524 156.108 703.02 155.622 703.02 154.956C703.02 154.29 703.524 153.804 704.172 153.804C704.82 153.804 705.324 154.29 705.324 154.956C705.324 155.622 704.82 156.108 704.172 156.108ZM711.972 146.316C713.88 146.316 714.996 147.486 714.996 149.628V156H713.772V149.808C713.772 148.08 712.98 147.432 711.648 147.432C709.974 147.432 709.2 148.728 709.2 150.636V156H707.976V146.46H709.2V147.936C709.776 146.892 710.82 146.316 711.972 146.316ZM721.379 156.144C719.021 156.144 717.131 154.2 717.131 151.212C717.131 148.26 719.003 146.316 721.379 146.316C723.755 146.316 725.627 148.26 725.627 151.212C725.627 154.2 723.737 156.144 721.379 156.144ZM721.379 155.064C723.017 155.064 724.367 153.768 724.367 151.212C724.367 148.674 722.999 147.396 721.379 147.396C719.759 147.396 718.391 148.674 718.391 151.212C718.391 153.768 719.741 155.064 721.379 155.064Z" fill="#2A2859"/>
<rect x="434" y="127" width="308" height="46" stroke="#2A2859" stroke-width="2"/>
</svg>
