<svg width="1062" height="254" viewBox="0 0 1062 254" fill="none" xmlns="http://www.w3.org/2000/svg">
<g clip-path="url(#clip0_5492_168426)">
<rect width="1062" height="254" fill="white"/>
<path d="M334.672 60.056H341.152V62H332.566V48.68H341.044V50.624H334.672V54.35H339.586V56.294H334.672V60.056ZM345.487 59.048C345.487 60.11 346.135 60.434 346.801 60.434C347.323 60.434 347.737 60.218 348.151 59.804L349.015 61.1C348.295 61.82 347.503 62.162 346.477 62.162C344.821 62.162 343.471 61.154 343.471 59.174V54.026H341.797V52.46H343.471V50.336L345.487 49.418V52.46H348.853V54.026H345.487V59.048ZM351.769 50.876C350.977 50.876 350.347 50.264 350.347 49.454C350.347 48.644 350.977 48.032 351.769 48.032C352.561 48.032 353.173 48.644 353.173 49.454C353.173 50.264 352.561 50.876 351.769 50.876ZM350.761 62V52.46H352.777V62H350.761ZM361.671 62L358.773 57.626L357.675 58.706V62H355.659V48.68H357.675V56.42L361.527 52.46H364.011L360.105 56.312L364.083 62H361.671ZM371.679 58.994L373.047 59.786C372.507 60.974 371.247 62.162 369.069 62.162C366.243 62.162 364.533 60.074 364.533 57.14C364.533 54.242 366.387 52.244 368.925 52.244C371.175 52.244 373.029 53.756 373.029 56.456L372.993 57.644H366.513C366.621 59.66 367.611 60.524 369.195 60.524C370.365 60.524 371.175 59.894 371.679 58.994ZM368.925 53.828C367.701 53.828 366.675 54.476 366.513 56.204H371.067C371.085 54.512 370.041 53.828 368.925 53.828ZM377.84 59.048C377.84 60.11 378.488 60.434 379.154 60.434C379.676 60.434 380.09 60.218 380.504 59.804L381.368 61.1C380.648 61.82 379.856 62.162 378.83 62.162C377.174 62.162 375.824 61.154 375.824 59.174V54.026H374.15V52.46H375.824V50.336L377.84 49.418V52.46H381.206V54.026H377.84V59.048ZM385.655 59.048C385.655 60.11 386.303 60.434 386.969 60.434C387.491 60.434 387.905 60.218 388.319 59.804L389.183 61.1C388.463 61.82 387.671 62.162 386.645 62.162C384.989 62.162 383.639 61.154 383.639 59.174V54.026H381.965V52.46H383.639V50.336L385.655 49.418V52.46H389.021V54.026H385.655V59.048Z" fill="#2A2859"/>
<path d="M332.232 94V83.64H335.62C338.182 83.64 340.156 85.642 340.156 88.764C340.156 91.886 338.182 94 335.62 94H332.232ZM333.212 93.104H335.424C337.58 93.104 339.148 91.648 339.148 88.764C339.148 85.908 337.566 84.536 335.396 84.536H333.212V93.104ZM347.129 91.9L347.829 92.292C347.479 93.188 346.555 94.112 344.903 94.112C342.817 94.112 341.585 92.558 341.585 90.192C341.585 88.022 342.873 86.468 344.805 86.468C346.401 86.468 347.773 87.616 347.773 89.632L347.745 90.458H342.551C342.635 92.432 343.573 93.272 345.001 93.272C346.121 93.272 346.779 92.628 347.129 91.9ZM344.805 87.308C343.685 87.308 342.677 87.91 342.551 89.674H346.835C346.877 88.008 345.897 87.308 344.805 87.308ZM351.133 92.152C351.133 93.02 351.651 93.272 352.113 93.272C352.561 93.272 352.855 93.104 353.205 92.74L353.709 93.3C353.219 93.874 352.687 94.112 352.029 94.112C351.021 94.112 350.181 93.44 350.181 92.124V87.364H348.781V86.58H350.181V84.984L351.133 84.424V86.58H353.541V87.364H351.133V92.152ZM356.547 92.152C356.547 93.02 357.065 93.272 357.527 93.272C357.975 93.272 358.269 93.104 358.619 92.74L359.123 93.3C358.633 93.874 358.101 94.112 357.443 94.112C356.435 94.112 355.595 93.44 355.595 92.124V87.364H354.195V86.58H355.595V84.984L356.547 84.424V86.58H358.955V87.364H356.547V92.152ZM365.395 91.9L366.095 92.292C365.745 93.188 364.821 94.112 363.169 94.112C361.083 94.112 359.851 92.558 359.851 90.192C359.851 88.022 361.139 86.468 363.071 86.468C364.667 86.468 366.039 87.616 366.039 89.632L366.011 90.458H360.817C360.901 92.432 361.839 93.272 363.267 93.272C364.387 93.272 365.045 92.628 365.395 91.9ZM363.071 87.308C361.951 87.308 360.943 87.91 360.817 89.674H365.101C365.143 88.008 364.163 87.308 363.071 87.308ZM376.702 91.9L377.402 92.292C377.052 93.188 376.128 94.112 374.476 94.112C372.39 94.112 371.158 92.558 371.158 90.192C371.158 88.022 372.446 86.468 374.378 86.468C375.974 86.468 377.346 87.616 377.346 89.632L377.318 90.458H372.124C372.208 92.432 373.146 93.272 374.574 93.272C375.694 93.272 376.352 92.628 376.702 91.9ZM374.378 87.308C373.258 87.308 372.25 87.91 372.124 89.674H376.408C376.45 88.008 375.47 87.308 374.378 87.308ZM382.018 86.468C382.984 86.468 383.684 87.112 383.684 88.372V89.1L382.816 89.268V88.54C382.816 87.798 382.564 87.308 381.808 87.308C380.954 87.308 380.31 87.938 380.31 89.436V94H379.358V86.58H380.31V87.504C380.702 86.804 381.36 86.468 382.018 86.468ZM390.631 92.152C390.631 93.02 391.149 93.272 391.611 93.272C392.059 93.272 392.353 93.104 392.703 92.74L393.207 93.3C392.717 93.874 392.185 94.112 391.527 94.112C390.519 94.112 389.679 93.44 389.679 92.124V87.364H388.279V86.58H389.679V84.984L390.631 84.424V86.58H393.039V87.364H390.631V92.152ZM399.479 91.9L400.179 92.292C399.829 93.188 398.905 94.112 397.253 94.112C395.167 94.112 393.935 92.558 393.935 90.192C393.935 88.022 395.223 86.468 397.155 86.468C398.751 86.468 400.123 87.616 400.123 89.632L400.095 90.458H394.901C394.985 92.432 395.923 93.272 397.351 93.272C398.471 93.272 399.129 92.628 399.479 91.9ZM397.155 87.308C396.035 87.308 395.027 87.91 394.901 89.674H399.185C399.227 88.008 398.247 87.308 397.155 87.308ZM406.756 94L404.026 90.318L403.116 91.186V94H402.164V83.64H403.116V90.066L406.644 86.58H407.904L404.67 89.688L407.96 94H406.756ZM408.772 88.512C408.772 87.336 409.878 86.468 411.432 86.468C412.776 86.468 413.812 87.112 414.12 88.092L413.336 88.4C413.042 87.686 412.356 87.308 411.404 87.308C410.368 87.308 409.696 87.742 409.696 88.428C409.696 89.044 410.102 89.422 410.984 89.604L411.964 89.8C413.588 90.122 414.344 90.822 414.344 91.928C414.344 93.216 413.196 94.112 411.544 94.112C410.046 94.112 408.996 93.524 408.492 92.404L409.304 92.068C409.654 92.852 410.424 93.272 411.516 93.272C412.664 93.272 413.42 92.768 413.42 92.012C413.42 91.312 413.028 90.934 412.048 90.724L410.844 90.472C409.486 90.192 408.772 89.506 408.772 88.512ZM417.565 92.152C417.565 93.02 418.083 93.272 418.545 93.272C418.993 93.272 419.287 93.104 419.637 92.74L420.141 93.3C419.651 93.874 419.119 94.112 418.461 94.112C417.453 94.112 416.613 93.44 416.613 92.124V87.364H415.213V86.58H416.613V84.984L417.565 84.424V86.58H419.973V87.364H417.565V92.152ZM428.178 94.112C426.344 94.112 424.874 92.6 424.874 90.276C424.874 87.98 426.33 86.468 428.178 86.468C430.026 86.468 431.482 87.98 431.482 90.276C431.482 92.6 430.012 94.112 428.178 94.112ZM428.178 93.272C429.452 93.272 430.502 92.264 430.502 90.276C430.502 88.302 429.438 87.308 428.178 87.308C426.918 87.308 425.854 88.302 425.854 90.276C425.854 92.264 426.904 93.272 428.178 93.272ZM437.875 86.58H438.855L435.943 94H435.103L432.191 86.58H433.227L435.551 92.95L437.875 86.58ZM445.102 91.9L445.802 92.292C445.452 93.188 444.528 94.112 442.876 94.112C440.79 94.112 439.558 92.558 439.558 90.192C439.558 88.022 440.846 86.468 442.778 86.468C444.374 86.468 445.746 87.616 445.746 89.632L445.718 90.458H440.524C440.608 92.432 441.546 93.272 442.974 93.272C444.094 93.272 444.752 92.628 445.102 91.9ZM442.778 87.308C441.658 87.308 440.65 87.91 440.524 89.674H444.808C444.85 88.008 443.87 87.308 442.778 87.308ZM450.419 86.468C451.385 86.468 452.085 87.112 452.085 88.372V89.1L451.217 89.268V88.54C451.217 87.798 450.965 87.308 450.209 87.308C449.355 87.308 448.711 87.938 448.711 89.436V94H447.759V86.58H448.711V87.504C449.103 86.804 449.761 86.468 450.419 86.468ZM458.024 85.236C457.562 85.236 457.184 84.872 457.184 84.396C457.184 83.92 457.562 83.556 458.024 83.556C458.486 83.556 458.864 83.92 458.864 84.396C458.864 84.872 458.486 85.236 458.024 85.236ZM457.548 94V86.58H458.5V94H457.548ZM464.019 86.468C465.503 86.468 466.371 87.378 466.371 89.044V94H465.419V89.184C465.419 87.84 464.803 87.336 463.767 87.336C462.465 87.336 461.863 88.344 461.863 89.828V94H460.911V86.58H461.863V87.728C462.311 86.916 463.123 86.468 464.019 86.468ZM472.051 86.482C473.941 86.482 475.215 88.064 475.215 90.22C475.215 92.502 473.927 94.112 471.939 94.112C470.903 94.112 470.063 93.594 469.615 92.656V96.94H468.663V86.58H469.615V87.966C470.105 87.014 471.085 86.482 472.051 86.482ZM471.939 93.272C473.325 93.272 474.235 92.208 474.235 90.262C474.235 88.386 473.325 87.322 471.953 87.322C470.469 87.322 469.615 88.428 469.615 90.248C469.615 92.18 470.455 93.272 471.939 93.272ZM481.465 86.58H482.417V94H481.465V92.866C481.017 93.664 480.233 94.112 479.323 94.112C477.867 94.112 476.985 93.174 476.985 91.564V86.58H477.937V91.48C477.937 92.698 478.553 93.258 479.589 93.258C480.905 93.258 481.465 92.208 481.465 90.752V86.58ZM486.252 92.152C486.252 93.02 486.77 93.272 487.232 93.272C487.68 93.272 487.974 93.104 488.324 92.74L488.828 93.3C488.338 93.874 487.806 94.112 487.148 94.112C486.14 94.112 485.3 93.44 485.3 92.124V87.364H483.9V86.58H485.3V84.984L486.252 84.424V86.58H488.66V87.364H486.252V92.152ZM491.667 85.544V86.58H493.739V87.364H491.667V94H490.715V87.364H489.315V86.58H490.715V85.544C490.715 84.256 491.555 83.528 492.703 83.528C493.235 83.528 493.851 83.738 494.201 84.298L493.627 84.872C493.403 84.536 493.067 84.34 492.675 84.34C492.185 84.34 491.667 84.634 491.667 85.544ZM499.831 91.9L500.531 92.292C500.181 93.188 499.257 94.112 497.605 94.112C495.519 94.112 494.287 92.558 494.287 90.192C494.287 88.022 495.575 86.468 497.507 86.468C499.103 86.468 500.475 87.616 500.475 89.632L500.447 90.458H495.253C495.337 92.432 496.275 93.272 497.703 93.272C498.823 93.272 499.481 92.628 499.831 91.9ZM497.507 87.308C496.387 87.308 495.379 87.91 495.253 89.674H499.537C499.579 88.008 498.599 87.308 497.507 87.308ZM504.811 93.972C504.587 94.028 504.405 94.056 504.195 94.056C503.033 94.056 502.487 93.328 502.487 92.236V83.64H503.439V92.236C503.439 92.866 503.775 93.188 504.363 93.188C504.517 93.188 504.671 93.174 504.811 93.132V93.972ZM507.895 92.152C507.895 93.02 508.413 93.272 508.875 93.272C509.323 93.272 509.617 93.104 509.967 92.74L510.471 93.3C509.981 93.874 509.449 94.112 508.791 94.112C507.783 94.112 506.943 93.44 506.943 92.124V87.364H505.543V86.58H506.943V84.984L507.895 84.424V86.58H510.303V87.364H507.895V92.152ZM516.743 91.9L517.443 92.292C517.093 93.188 516.169 94.112 514.517 94.112C512.431 94.112 511.199 92.558 511.199 90.192C511.199 88.022 512.487 86.468 514.419 86.468C516.015 86.468 517.387 87.616 517.387 89.632L517.359 90.458H512.165C512.249 92.432 513.187 93.272 514.615 93.272C515.735 93.272 516.393 92.628 516.743 91.9ZM514.419 87.308C513.299 87.308 512.291 87.91 512.165 89.674H516.449C516.491 88.008 515.511 87.308 514.419 87.308ZM520.747 92.152C520.747 93.02 521.265 93.272 521.727 93.272C522.175 93.272 522.469 93.104 522.819 92.74L523.323 93.3C522.833 93.874 522.301 94.112 521.643 94.112C520.635 94.112 519.795 93.44 519.795 92.124V87.364H518.395V86.58H519.795V84.984L520.747 84.424V86.58H523.155V87.364H520.747V92.152ZM524.894 92.432H526.406V94H524.894V92.432Z" fill="#2A2859"/>
<rect x="332" y="109" width="398" height="46" fill="white"/>
<rect x="332" y="109" width="398" height="46" stroke="#FF8274" stroke-width="2"/>
<mask id="path-4-inside-1_5492_168426" fill="white">
<path d="M331 164H731V212H331V164Z"/>
</mask>
<path d="M331 164H731V212H331V164Z" fill="#FFDFDC"/>
<path d="M362.187 180.747L366.374 188L362.187 195.253H353.813L349.626 188L353.813 180.747H362.187M363.094 179.179H352.906L347.811 188L352.906 196.821H363.094L368.189 188L363.094 179.179V179.179ZM361.527 185.36L360.654 184.487L358.007 187.134L355.353 184.48L354.48 185.353L357.134 188.007L354.487 190.654L355.36 191.527L358.007 188.88L360.647 191.52L361.52 190.647L358.88 188.007L361.527 185.36V185.36Z" fill="#2A2859"/>
<path d="M378.408 194V182.16H382.28C385.208 182.16 387.464 184.448 387.464 188.016C387.464 191.584 385.208 194 382.28 194H378.408ZM379.528 192.976H382.056C384.52 192.976 386.312 191.312 386.312 188.016C386.312 184.752 384.504 183.184 382.024 183.184H379.528V192.976ZM395.234 191.6L396.034 192.048C395.634 193.072 394.578 194.128 392.69 194.128C390.306 194.128 388.898 192.352 388.898 189.648C388.898 187.168 390.37 185.392 392.578 185.392C394.402 185.392 395.97 186.704 395.97 189.008L395.938 189.952H390.002C390.098 192.208 391.17 193.168 392.802 193.168C394.082 193.168 394.834 192.432 395.234 191.6ZM392.578 186.352C391.298 186.352 390.146 187.04 390.002 189.056H394.898C394.946 187.152 393.826 186.352 392.578 186.352ZM399.61 191.888C399.61 192.88 400.202 193.168 400.73 193.168C401.242 193.168 401.578 192.976 401.978 192.56L402.554 193.2C401.994 193.856 401.386 194.128 400.634 194.128C399.482 194.128 398.522 193.36 398.522 191.856V186.416H396.922V185.52H398.522V183.696L399.61 183.056V185.52H402.362V186.416H399.61V191.888ZM405.597 191.888C405.597 192.88 406.189 193.168 406.717 193.168C407.229 193.168 407.565 192.976 407.965 192.56L408.541 193.2C407.981 193.856 407.373 194.128 406.621 194.128C405.469 194.128 404.509 193.36 404.509 191.856V186.416H402.909V185.52H404.509V183.696L405.597 183.056V185.52H408.349V186.416H405.597V191.888ZM415.509 191.6L416.309 192.048C415.909 193.072 414.853 194.128 412.965 194.128C410.581 194.128 409.173 192.352 409.173 189.648C409.173 187.168 410.645 185.392 412.853 185.392C414.677 185.392 416.245 186.704 416.245 189.008L416.213 189.952H410.277C410.373 192.208 411.445 193.168 413.077 193.168C414.357 193.168 415.109 192.432 415.509 191.6ZM412.853 186.352C411.573 186.352 410.421 187.04 410.277 189.056H415.173C415.221 187.152 414.101 186.352 412.853 186.352ZM428.03 191.6L428.83 192.048C428.43 193.072 427.374 194.128 425.486 194.128C423.102 194.128 421.694 192.352 421.694 189.648C421.694 187.168 423.166 185.392 425.374 185.392C427.198 185.392 428.766 186.704 428.766 189.008L428.734 189.952H422.798C422.894 192.208 423.966 193.168 425.598 193.168C426.878 193.168 427.63 192.432 428.03 191.6ZM425.374 186.352C424.094 186.352 422.942 187.04 422.798 189.056H427.694C427.742 187.152 426.622 186.352 425.374 186.352ZM433.907 185.392C435.011 185.392 435.811 186.128 435.811 187.568V188.4L434.819 188.592V187.76C434.819 186.912 434.531 186.352 433.667 186.352C432.691 186.352 431.955 187.072 431.955 188.784V194H430.867V185.52H431.955V186.576C432.403 185.776 433.155 185.392 433.907 185.392ZM447.446 191.6L448.246 192.048C447.846 193.072 446.79 194.128 444.902 194.128C442.518 194.128 441.11 192.352 441.11 189.648C441.11 187.168 442.582 185.392 444.79 185.392C446.614 185.392 448.182 186.704 448.182 189.008L448.15 189.952H442.214C442.31 192.208 443.382 193.168 445.014 193.168C446.294 193.168 447.046 192.432 447.446 191.6ZM444.79 186.352C443.51 186.352 442.358 187.04 442.214 189.056H447.11C447.158 187.152 446.038 186.352 444.79 186.352ZM453.834 185.392C455.53 185.392 456.522 186.432 456.522 188.336V194H455.434V188.496C455.434 186.96 454.73 186.384 453.546 186.384C452.058 186.384 451.37 187.536 451.37 189.232V194H450.282V185.52H451.37V186.832C451.882 185.904 452.81 185.392 453.834 185.392ZM464.531 184.336V185.52H466.899V186.416H464.531V194H463.443V186.416H461.843V185.52H463.443V184.336C463.443 182.864 464.403 182.032 465.715 182.032C466.323 182.032 467.027 182.272 467.427 182.912L466.771 183.568C466.515 183.184 466.131 182.96 465.683 182.96C465.123 182.96 464.531 183.296 464.531 184.336ZM473.662 191.6L474.462 192.048C474.062 193.072 473.006 194.128 471.118 194.128C468.734 194.128 467.326 192.352 467.326 189.648C467.326 187.168 468.798 185.392 471.006 185.392C472.83 185.392 474.398 186.704 474.398 189.008L474.366 189.952H468.43C468.526 192.208 469.598 193.168 471.23 193.168C472.51 193.168 473.262 192.432 473.662 191.6ZM471.006 186.352C469.726 186.352 468.574 187.04 468.43 189.056H473.326C473.374 187.152 472.254 186.352 471.006 186.352ZM477.042 183.984C476.514 183.984 476.082 183.568 476.082 183.024C476.082 182.48 476.514 182.064 477.042 182.064C477.57 182.064 478.002 182.48 478.002 183.024C478.002 183.568 477.57 183.984 477.042 183.984ZM476.498 194V185.52H477.586V194H476.498ZM482.798 193.968C482.542 194.032 482.334 194.064 482.094 194.064C480.766 194.064 480.142 193.232 480.142 191.984V182.16H481.23V191.984C481.23 192.704 481.614 193.072 482.286 193.072C482.462 193.072 482.638 193.056 482.798 193.008V193.968ZM493.03 185.392C494.646 185.392 495.59 186.416 495.59 188.176V194H494.502V188.336C494.502 186.96 493.846 186.384 492.742 186.384C491.254 186.384 490.63 187.536 490.63 189.232V194H489.542V188.336C489.542 186.96 488.886 186.384 487.782 186.384C486.294 186.384 485.67 187.536 485.67 189.232V194H484.582V185.52H485.67V186.848C486.182 185.904 487.078 185.392 488.07 185.392C489.334 185.392 490.182 186.016 490.486 187.12C490.966 186 491.942 185.392 493.03 185.392ZM503.799 191.6L504.599 192.048C504.199 193.072 503.143 194.128 501.255 194.128C498.871 194.128 497.463 192.352 497.463 189.648C497.463 187.168 498.935 185.392 501.143 185.392C502.967 185.392 504.535 186.704 504.535 189.008L504.503 189.952H498.567C498.663 192.208 499.735 193.168 501.367 193.168C502.647 193.168 503.399 192.432 503.799 191.6ZM501.143 186.352C499.863 186.352 498.711 187.04 498.567 189.056H503.463C503.511 187.152 502.391 186.352 501.143 186.352ZM509.291 193.968C509.035 194.032 508.827 194.064 508.587 194.064C507.259 194.064 506.635 193.232 506.635 191.984V182.16H507.723V191.984C507.723 192.704 508.107 193.072 508.779 193.072C508.955 193.072 509.131 193.056 509.291 193.008V193.968ZM516.682 182.16H517.77V194H516.682V192.416C516.122 193.504 515.002 194.112 513.898 194.112C511.738 194.112 510.282 192.304 510.282 189.84C510.282 187.232 511.754 185.392 514.026 185.392C515.21 185.392 516.17 185.984 516.682 187.056V182.16ZM514.01 193.152C515.706 193.152 516.682 191.888 516.682 189.808C516.682 187.6 515.722 186.352 514.026 186.352C512.442 186.352 511.402 187.568 511.402 189.792C511.402 191.936 512.442 193.152 514.01 193.152ZM519.963 182.224H521.627V183.856H519.963V182.224ZM520.251 194V185.52H521.339V194H520.251ZM527.447 185.392C529.143 185.392 530.135 186.432 530.135 188.336V194H529.047V188.496C529.047 186.96 528.343 186.384 527.159 186.384C525.671 186.384 524.983 187.536 524.983 189.232V194H523.895V185.52H524.983V186.832C525.495 185.904 526.423 185.392 527.447 185.392ZM540.17 186.416H538.346V186.72C538.762 187.232 538.986 187.872 538.986 188.496C538.986 190.048 537.866 191.632 535.482 191.632H535.114C534.154 191.632 533.466 192 533.466 192.56C533.466 192.992 533.802 193.296 534.506 193.296H537.946C539.322 193.296 540.026 193.968 540.026 195.024C540.026 196.704 538.09 197.584 535.706 197.584C533.562 197.584 532.074 196.896 531.562 195.408L532.442 195.008C533.034 196.4 534.282 196.672 535.706 196.672C537.466 196.672 538.938 196.144 538.938 195.12C538.938 194.64 538.682 194.288 537.914 194.288H534.266C533.082 194.288 532.378 193.728 532.378 192.848C532.378 192.096 533.002 191.44 534.042 191.168C532.922 190.72 532.298 189.536 532.298 188.496C532.298 186.976 533.434 185.392 535.674 185.392C536.554 185.392 537.226 185.68 537.738 186.112V185.52H540.17V186.416ZM535.658 190.736C537.162 190.736 537.914 189.696 537.914 188.496C537.914 187.312 537.162 186.32 535.658 186.32C534.138 186.32 533.37 187.328 533.37 188.496C533.37 189.68 534.138 190.736 535.658 190.736Z" fill="#2A2859"/>
<path d="M335 212V164H327V212H335Z" fill="#FF8274" mask="url(#path-4-inside-1_5492_168426)"/>
</g>
<defs>
<clipPath id="clip0_5492_168426">
<rect width="1062" height="254" fill="white"/>
</clipPath>
</defs>
</svg>
