<svg width="922" height="301" viewBox="0 0 922 301" fill="none" xmlns="http://www.w3.org/2000/svg">
<g clip-path="url(#clip0_5492_1290)">
<rect width="922" height="301" fill="white"/>
<mask id="path-1-inside-1_5492_1290" fill="white">
<path d="M0 55H456V301H0V55Z"/>
</mask>
<path d="M0 55H456V301H0V55Z" fill="white"/>
<path d="M456 301V302H457V301H456ZM0 301H-1V302H0V301ZM455 55V301H457V55H455ZM456 300H0V302H456V300ZM1 301V55H-1V301H1Z" fill="#E6E6E6" mask="url(#path-1-inside-1_5492_1290)"/>
<mask id="path-3-inside-2_5492_1290" fill="white">
<path d="M465 55H922V301H465V55Z"/>
</mask>
<path d="M465 55H922V301H465V55Z" fill="white"/>
<path d="M922 301V302H923V301H922ZM465 301H464V302H465V301ZM921 55V301H923V55H921ZM922 300H465V302H922V300ZM466 301V55H464V301H466Z" fill="#E6E6E6" mask="url(#path-3-inside-2_5492_1290)"/>
<rect x="0.5" y="0.5" width="454.316" height="53.97" stroke="#E6E6E6"/>
<rect x="465.693" y="0.5" width="455.304" height="53.97" stroke="#E6E6E6"/>
<path d="M0 43.9761H455.316V54.9701H0V43.9761Z" fill="#C7F6C9"/>
<path opacity="0.6" d="M465.193 43.9761H921.497V54.9701H465.193V43.9761Z" fill="#FF8274"/>
<path d="M20.2116 28.144C21.7956 28.144 23.3796 27.68 24.4356 26.8V21.6H18.9796V22.896H23.1556V26.144C22.3556 26.608 21.4916 26.848 20.2916 26.848C17.8276 26.848 16.0996 25.136 16.0996 22.016C16.0996 18.896 17.9236 17.376 20.0676 17.376C21.4116 17.376 22.5636 18.048 23.1396 19.296L24.4036 18.64C23.6516 16.96 22.1476 16.016 20.0836 16.016C17.0916 16.016 14.6116 18.368 14.6116 22.016C14.6116 25.776 16.9636 28.144 20.2116 28.144ZM27.5186 18.032C28.1106 18.032 28.5906 17.568 28.5906 16.944C28.5906 16.336 28.1106 15.872 27.5186 15.872C26.9106 15.872 26.4306 16.336 26.4306 16.944C26.4306 17.568 26.9106 18.032 27.5186 18.032ZM26.1906 31.488C27.5506 31.488 28.2066 30.64 28.2066 29.104V19.52H26.8306V29.12C26.8306 29.84 26.6226 30.304 25.9186 30.304C25.7586 30.304 25.5666 30.288 25.3426 30.208L25.2306 31.344C25.5346 31.44 25.8706 31.488 26.1906 31.488ZM36.3084 20.096L37.0124 18.704H36.1964L35.6844 19.712C35.2044 19.488 34.6604 19.36 34.0844 19.36C31.9244 19.36 30.1964 21.088 30.1964 23.728C30.1964 25.36 30.8364 26.64 31.8124 27.392L31.1084 28.8H31.9404L32.4524 27.776C32.9484 28.016 33.5084 28.144 34.0844 28.144C36.2124 28.144 37.9564 26.416 37.9564 23.728C37.9564 22.112 37.3164 20.832 36.3084 20.096ZM31.6204 23.728C31.6204 21.568 32.7404 20.56 34.0844 20.56C34.4524 20.56 34.8204 20.64 35.1404 20.8L32.4044 26.224C31.9244 25.696 31.6204 24.864 31.6204 23.728ZM34.0844 26.944C33.7004 26.944 33.3324 26.864 32.9964 26.688L35.7324 21.248C36.2284 21.776 36.5324 22.592 36.5324 23.728C36.5324 25.888 35.4284 26.944 34.0844 26.944ZM43.2918 19.36C42.5398 19.36 41.7398 19.744 41.2758 20.608V19.52H39.8998V28H41.2758V22.896C41.2758 21.216 41.9798 20.544 42.9398 20.544C43.7878 20.544 44.0598 21.088 44.0598 21.904V22.752L45.2438 22.528V21.584C45.2438 20.128 44.4438 19.36 43.2918 19.36ZM50.6146 21.776C50.6146 22.944 51.4626 23.744 53.0306 24.064L54.4866 24.352C55.4626 24.56 55.8786 24.944 55.8786 25.648C55.8786 26.448 55.0626 26.976 53.8466 26.976C52.6466 26.976 51.7986 26.512 51.3666 25.648L50.3106 26.208C50.9186 27.456 52.1506 28.128 53.8786 28.128C55.8626 28.128 57.2066 27.088 57.2066 25.568C57.2066 24.288 56.3266 23.472 54.4866 23.104L53.2546 22.864C52.3426 22.672 51.9426 22.304 51.9426 21.68C51.9426 20.96 52.6626 20.528 53.7506 20.528C54.7906 20.528 55.5586 20.944 55.9106 21.696L56.9506 21.168C56.5026 20.048 55.3506 19.36 53.7826 19.36C51.9106 19.36 50.6146 20.4 50.6146 21.776ZM62.041 27.968V26.784C61.865 26.832 61.689 26.848 61.529 26.848C60.857 26.848 60.457 26.496 60.457 25.76V16.16H59.081V25.824C59.081 27.2 59.769 28.08 61.209 28.08C61.497 28.08 61.753 28.032 62.041 27.968ZM63.5625 16.064V17.92H65.4505V16.064H63.5625ZM63.8185 28H65.1945V19.52H63.8185V28ZM73.0555 28H74.7355L71.0715 23.024L74.6715 19.52H72.9275L69.1355 23.328V16.16H67.7595V28H69.1355V24.912L70.1435 23.92L73.0555 28Z" fill="#2A2859"/>
<path d="M484.379 28H485.803V16.16H484.379V28ZM493.646 28H495.326L491.662 23.024L495.262 19.52H493.518L489.726 23.328V16.16H488.35V28H489.726V24.912L490.734 23.92L493.646 28ZM502.227 28H503.907L500.243 23.024L503.843 19.52H502.099L498.307 23.328V16.16H496.931V28H498.307V24.912L499.315 23.92L502.227 28ZM510.664 25.488C510.248 26.304 509.496 26.976 508.328 26.976C506.792 26.976 505.784 26.096 505.688 24.016H511.56L511.592 23.04C511.592 20.688 509.976 19.36 508.088 19.36C505.864 19.36 504.312 21.136 504.312 23.664C504.312 26.32 505.768 28.144 508.216 28.144C510.12 28.144 511.192 27.088 511.64 26.032L510.664 25.488ZM508.088 20.512C509.224 20.512 510.264 21.232 510.248 22.944H505.688C505.848 21.136 506.888 20.512 508.088 20.512ZM517.102 21.776C517.102 22.944 517.95 23.744 519.518 24.064L520.974 24.352C521.95 24.56 522.366 24.944 522.366 25.648C522.366 26.448 521.55 26.976 520.334 26.976C519.134 26.976 518.286 26.512 517.854 25.648L516.798 26.208C517.406 27.456 518.638 28.128 520.366 28.128C522.35 28.128 523.694 27.088 523.694 25.568C523.694 24.288 522.814 23.472 520.974 23.104L519.742 22.864C518.83 22.672 518.43 22.304 518.43 21.68C518.43 20.96 519.15 20.528 520.238 20.528C521.278 20.528 522.046 20.944 522.398 21.696L523.438 21.168C522.99 20.048 521.838 19.36 520.27 19.36C518.398 19.36 517.102 20.4 517.102 21.776ZM528.528 27.968V26.784C528.352 26.832 528.176 26.848 528.016 26.848C527.344 26.848 526.944 26.496 526.944 25.76V16.16H525.568V25.824C525.568 27.2 526.256 28.08 527.696 28.08C527.984 28.08 528.24 28.032 528.528 27.968ZM530.994 18.032C531.586 18.032 532.066 17.568 532.066 16.944C532.066 16.336 531.586 15.872 530.994 15.872C530.386 15.872 529.906 16.336 529.906 16.944C529.906 17.568 530.386 18.032 530.994 18.032ZM530.306 28H531.682V19.52H530.306V28ZM539.543 28H541.223L537.559 23.024L541.159 19.52H539.415L535.623 23.328V16.16H534.247V28H535.623V24.912L536.631 23.92L539.543 28Z" fill="#2A2859"/>
<path d="M141.62 132.68V134.624H137.642V146H135.536V134.624H131.558V132.68H141.62ZM148.654 142.994L150.022 143.786C149.482 144.974 148.222 146.162 146.044 146.162C143.218 146.162 141.508 144.074 141.508 141.14C141.508 138.242 143.362 136.244 145.9 136.244C148.15 136.244 150.004 137.756 150.004 140.456L149.968 141.644H143.488C143.596 143.66 144.586 144.524 146.17 144.524C147.34 144.524 148.15 143.894 148.654 142.994ZM145.9 137.828C144.676 137.828 143.65 138.476 143.488 140.204H148.042C148.06 138.512 147.016 137.828 145.9 137.828ZM156.124 145.946C155.746 146.054 155.368 146.108 154.972 146.108C153.154 146.108 152.29 145.028 152.29 143.282V132.68H154.306V143.138C154.306 143.966 154.792 144.344 155.53 144.344C155.71 144.344 155.908 144.326 156.124 144.272V145.946ZM164.39 142.994L165.758 143.786C165.218 144.974 163.958 146.162 161.78 146.162C158.954 146.162 157.244 144.074 157.244 141.14C157.244 138.242 159.098 136.244 161.636 136.244C163.886 136.244 165.74 137.756 165.74 140.456L165.704 141.644H159.224C159.332 143.66 160.322 144.524 161.906 144.524C163.076 144.524 163.886 143.894 164.39 142.994ZM161.636 137.828C160.412 137.828 159.386 138.476 159.224 140.204H163.778C163.796 138.512 162.752 137.828 161.636 137.828ZM170.463 135.596V136.46H173.145V138.026H170.463V146H168.447V138.026H166.773V136.46H168.447V135.686C168.447 133.616 169.797 132.41 171.669 132.41C172.551 132.41 173.433 132.77 173.955 133.418L173.001 134.75C172.713 134.39 172.281 134.174 171.813 134.174C171.075 134.174 170.463 134.606 170.463 135.596ZM178.132 146.18C175.648 146.18 173.614 144.236 173.614 141.176C173.614 138.188 175.63 136.244 178.132 136.244C180.634 136.244 182.65 138.188 182.65 141.176C182.65 144.236 180.616 146.18 178.132 146.18ZM178.132 144.47C179.482 144.47 180.58 143.426 180.58 141.176C180.58 138.908 179.464 137.954 178.132 137.954C176.8 137.954 175.684 138.908 175.684 141.176C175.684 143.426 176.8 144.47 178.132 144.47ZM189.572 136.244C191.516 136.244 192.668 137.504 192.668 139.574V146H190.652V139.898C190.652 138.584 190.022 137.99 188.924 137.99C187.502 137.99 186.782 138.98 186.782 140.834V146H184.766V136.46H186.782V137.828C187.43 136.82 188.384 136.244 189.572 136.244ZM200.2 136.244C202.144 136.244 203.296 137.504 203.296 139.574V146H201.28V139.898C201.28 138.584 200.65 137.99 199.552 137.99C198.13 137.99 197.41 138.98 197.41 140.834V146H195.394V136.46H197.41V137.828C198.058 136.82 199.012 136.244 200.2 136.244ZM211.551 136.46H213.567V146H211.551V144.596C210.939 145.64 209.985 146.162 208.815 146.162C206.853 146.162 205.719 144.902 205.719 142.832V136.46H207.735V142.526C207.735 143.768 208.347 144.434 209.445 144.434C210.849 144.434 211.551 143.426 211.551 141.572V136.46ZM226.74 136.244C228.648 136.244 229.746 137.486 229.746 139.484V146H227.73V139.826C227.73 138.566 227.136 137.99 226.092 137.99C224.688 137.99 223.986 138.962 223.986 140.834V146H221.97V139.826C221.97 138.566 221.376 137.99 220.332 137.99C218.946 137.99 218.244 138.962 218.244 140.834V146H216.228V136.46H218.244V137.81C218.892 136.784 219.828 136.244 220.98 136.244C222.438 136.244 223.392 136.946 223.806 138.134C224.454 136.874 225.462 136.244 226.74 136.244ZM243.011 136.244C244.919 136.244 246.017 137.486 246.017 139.484V146H244.001V139.826C244.001 138.566 243.407 137.99 242.363 137.99C240.959 137.99 240.257 138.962 240.257 140.834V146H238.241V139.826C238.241 138.566 237.647 137.99 236.603 137.99C235.217 137.99 234.515 138.962 234.515 140.834V146H232.499V136.46H234.515V137.81C235.163 136.784 236.099 136.244 237.251 136.244C238.709 136.244 239.663 136.946 240.077 138.134C240.725 136.874 241.733 136.244 243.011 136.244ZM255.322 142.994L256.69 143.786C256.15 144.974 254.89 146.162 252.712 146.162C249.886 146.162 248.176 144.074 248.176 141.14C248.176 138.242 250.03 136.244 252.568 136.244C254.818 136.244 256.672 137.756 256.672 140.456L256.636 141.644H250.156C250.264 143.66 251.254 144.524 252.838 144.524C254.008 144.524 254.818 143.894 255.322 142.994ZM252.568 137.828C251.344 137.828 250.318 138.476 250.156 140.204H254.71C254.728 138.512 253.684 137.828 252.568 137.828ZM263.332 136.244C264.718 136.244 265.618 137.162 265.618 138.8V140.06L263.998 140.348V139.376C263.998 138.512 263.692 137.918 262.756 137.918C261.73 137.918 260.974 138.602 260.974 140.42V146H258.958V136.46H260.974V137.738C261.514 136.676 262.504 136.244 263.332 136.244Z" fill="#2A2859"/>
<rect x="132" y="163" width="193" height="46" fill="white"/>
<path d="M157.08 184.872V185.916H153.3V189.732H152.22V185.916H148.44V184.872H152.22V181.056H153.3V184.872H157.08ZM173.375 187.356V188.472H171.071V192H169.883V188.472H163.907V187.464L167.093 178.68H168.245L165.149 187.356H169.883V183.396L171.071 183.036V187.356H173.375ZM175.545 178.68H184.833V179.724L178.497 192H177.129L183.537 179.796H176.697V182.64H175.545V178.68Z" fill="#2A2859"/>
<path d="M193 172V200H195V172H193Z" fill="#2A2859" mask="url(#path-13-inside-3_5492_1290)"/>
<rect x="132" y="163" width="193" height="46" stroke="#2A2859" stroke-width="2"/>
<path d="M549.242 136.388C549.242 134.03 551.42 132.5 554.012 132.5C556.136 132.5 557.828 133.238 558.854 135.002L557.108 136.082C556.532 135.002 555.308 134.372 553.994 134.372C552.428 134.372 551.366 135.074 551.366 136.226C551.366 137.18 551.96 137.81 553.256 138.026L555.308 138.332C557.63 138.692 559.25 139.952 559.25 142.094C559.25 144.344 557.342 146.18 554.156 146.18C551.888 146.18 550.016 145.388 548.882 143.462L550.646 142.328C551.492 143.858 552.932 144.29 554.174 144.29C555.956 144.29 557.054 143.39 557.054 142.166C557.054 141.05 556.352 140.546 555.056 140.33L552.788 139.97C550.646 139.646 549.242 138.404 549.242 136.388ZM567.592 146L564.694 141.626L563.596 142.706V146H561.58V132.68H563.596V140.42L567.448 136.46H569.932L566.026 140.312L570.004 146H567.592ZM575.967 136.244C577.353 136.244 578.253 137.162 578.253 138.8V140.06L576.633 140.348V139.376C576.633 138.512 576.327 137.918 575.391 137.918C574.365 137.918 573.609 138.602 573.609 140.42V146H571.593V136.46H573.609V137.738C574.149 136.676 575.139 136.244 575.967 136.244ZM581.278 134.876C580.486 134.876 579.856 134.264 579.856 133.454C579.856 132.644 580.486 132.032 581.278 132.032C582.07 132.032 582.682 132.644 582.682 133.454C582.682 134.264 582.07 134.876 581.278 134.876ZM580.27 146V136.46H582.286V146H580.27ZM591.252 136.46H593.34L589.686 146H587.616L583.98 136.46H586.212L588.732 143.894L591.252 136.46ZM605.606 132.68H607.622V146H605.606V144.272C604.868 145.604 603.716 146.144 602.618 146.144C600.314 146.144 598.658 144.164 598.658 141.266C598.658 138.26 600.332 136.262 602.852 136.262C603.932 136.262 605.012 136.748 605.606 137.918V132.68ZM603.158 144.38C604.616 144.38 605.606 143.39 605.606 141.158C605.606 138.944 604.634 137.882 603.158 137.882C601.772 137.882 600.746 138.998 600.746 141.158C600.746 143.3 601.772 144.38 603.158 144.38ZM610.033 132.32H612.499V134.75H610.033V132.32ZM610.267 146V136.46H612.283V146H610.267ZM617.865 143.048C617.865 144.11 618.513 144.434 619.179 144.434C619.701 144.434 620.115 144.218 620.529 143.804L621.393 145.1C620.673 145.82 619.881 146.162 618.855 146.162C617.199 146.162 615.849 145.154 615.849 143.174V138.026H614.175V136.46H615.849V134.336L617.865 133.418V136.46H621.231V138.026H617.865V143.048ZM625.68 143.048C625.68 144.11 626.328 144.434 626.994 144.434C627.516 144.434 627.93 144.218 628.344 143.804L629.208 145.1C628.488 145.82 627.696 146.162 626.67 146.162C625.014 146.162 623.664 145.154 623.664 143.174V138.026H621.99V136.46H623.664V134.336L625.68 133.418V136.46H629.046V138.026H625.68V143.048ZM638.06 143.048C638.06 144.11 638.708 144.434 639.374 144.434C639.896 144.434 640.31 144.218 640.724 143.804L641.588 145.1C640.868 145.82 640.076 146.162 639.05 146.162C637.394 146.162 636.044 145.154 636.044 143.174V138.026H634.37V136.46H636.044V134.336L638.06 133.418V136.46H641.426V138.026H638.06V143.048ZM649.428 142.994L650.796 143.786C650.256 144.974 648.996 146.162 646.818 146.162C643.992 146.162 642.282 144.074 642.282 141.14C642.282 138.242 644.136 136.244 646.674 136.244C648.924 136.244 650.778 137.756 650.778 140.456L650.742 141.644H644.262C644.37 143.66 645.36 144.524 646.944 144.524C648.114 144.524 648.924 143.894 649.428 142.994ZM646.674 137.828C645.45 137.828 644.424 138.476 644.262 140.204H648.816C648.834 138.512 647.79 137.828 646.674 137.828ZM656.899 145.946C656.521 146.054 656.143 146.108 655.747 146.108C653.929 146.108 653.065 145.028 653.065 143.282V132.68H655.081V143.138C655.081 143.966 655.567 144.344 656.305 144.344C656.485 144.344 656.683 144.326 656.899 144.272V145.946ZM665.165 142.994L666.533 143.786C665.993 144.974 664.733 146.162 662.555 146.162C659.729 146.162 658.019 144.074 658.019 141.14C658.019 138.242 659.873 136.244 662.411 136.244C664.661 136.244 666.515 137.756 666.515 140.456L666.479 141.644H659.999C660.107 143.66 661.097 144.524 662.681 144.524C663.851 144.524 664.661 143.894 665.165 142.994ZM662.411 137.828C661.187 137.828 660.161 138.476 659.999 140.204H664.553C664.571 138.512 663.527 137.828 662.411 137.828ZM671.238 135.596V136.46H673.92V138.026H671.238V146H669.222V138.026H667.548V136.46H669.222V135.686C669.222 133.616 670.572 132.41 672.444 132.41C673.326 132.41 674.208 132.77 674.73 133.418L673.776 134.75C673.488 134.39 673.056 134.174 672.588 134.174C671.85 134.174 671.238 134.606 671.238 135.596ZM678.907 146.18C676.423 146.18 674.389 144.236 674.389 141.176C674.389 138.188 676.405 136.244 678.907 136.244C681.409 136.244 683.425 138.188 683.425 141.176C683.425 144.236 681.391 146.18 678.907 146.18ZM678.907 144.47C680.257 144.47 681.355 143.426 681.355 141.176C681.355 138.908 680.239 137.954 678.907 137.954C677.575 137.954 676.459 138.908 676.459 141.176C676.459 143.426 677.575 144.47 678.907 144.47ZM690.346 136.244C692.29 136.244 693.442 137.504 693.442 139.574V146H691.426V139.898C691.426 138.584 690.796 137.99 689.698 137.99C688.276 137.99 687.556 138.98 687.556 140.834V146H685.54V136.46H687.556V137.828C688.204 136.82 689.158 136.244 690.346 136.244ZM700.975 136.244C702.919 136.244 704.071 137.504 704.071 139.574V146H702.055V139.898C702.055 138.584 701.425 137.99 700.327 137.99C698.905 137.99 698.185 138.98 698.185 140.834V146H696.169V136.46H698.185V137.828C698.833 136.82 699.787 136.244 700.975 136.244ZM712.325 136.46H714.341V146H712.325V144.596C711.713 145.64 710.759 146.162 709.589 146.162C707.627 146.162 706.493 144.902 706.493 142.832V136.46H708.509V142.526C708.509 143.768 709.121 144.434 710.219 144.434C711.623 144.434 712.325 143.426 712.325 141.572V136.46ZM727.515 136.244C729.423 136.244 730.521 137.486 730.521 139.484V146H728.505V139.826C728.505 138.566 727.911 137.99 726.867 137.99C725.463 137.99 724.761 138.962 724.761 140.834V146H722.745V139.826C722.745 138.566 722.151 137.99 721.107 137.99C719.721 137.99 719.019 138.962 719.019 140.834V146H717.003V136.46H719.019V137.81C719.667 136.784 720.603 136.244 721.755 136.244C723.213 136.244 724.167 136.946 724.581 138.134C725.229 136.874 726.237 136.244 727.515 136.244ZM743.786 136.244C745.694 136.244 746.792 137.486 746.792 139.484V146H744.776V139.826C744.776 138.566 744.182 137.99 743.138 137.99C741.734 137.99 741.032 138.962 741.032 140.834V146H739.016V139.826C739.016 138.566 738.422 137.99 737.378 137.99C735.992 137.99 735.29 138.962 735.29 140.834V146H733.274V136.46H735.29V137.81C735.938 136.784 736.874 136.244 738.026 136.244C739.484 136.244 740.438 136.946 740.852 138.134C741.5 136.874 742.508 136.244 743.786 136.244ZM756.096 142.994L757.464 143.786C756.924 144.974 755.664 146.162 753.486 146.162C750.66 146.162 748.95 144.074 748.95 141.14C748.95 138.242 750.804 136.244 753.342 136.244C755.592 136.244 757.446 137.756 757.446 140.456L757.41 141.644H750.93C751.038 143.66 752.028 144.524 753.612 144.524C754.782 144.524 755.592 143.894 756.096 142.994ZM753.342 137.828C752.118 137.828 751.092 138.476 750.93 140.204H755.484C755.502 138.512 754.458 137.828 753.342 137.828ZM764.107 136.244C765.493 136.244 766.393 137.162 766.393 138.8V140.06L764.773 140.348V139.376C764.773 138.512 764.467 137.918 763.531 137.918C762.505 137.918 761.749 138.602 761.749 140.42V146H759.733V136.46H761.749V137.738C762.289 136.676 763.279 136.244 764.107 136.244ZM777.745 136.244C779.689 136.244 780.841 137.504 780.841 139.574V146H778.825V139.898C778.825 138.584 778.195 137.99 777.097 137.99C775.675 137.99 774.937 138.98 774.937 140.834V146H772.921V132.68H774.937V137.846C775.585 136.82 776.557 136.244 777.745 136.244ZM790.119 142.994L791.487 143.786C790.947 144.974 789.687 146.162 787.509 146.162C784.683 146.162 782.973 144.074 782.973 141.14C782.973 138.242 784.827 136.244 787.365 136.244C789.615 136.244 791.469 137.756 791.469 140.456L791.433 141.644H784.953C785.061 143.66 786.051 144.524 787.635 144.524C788.805 144.524 789.615 143.894 790.119 142.994ZM787.365 137.828C786.141 137.828 785.115 138.476 784.953 140.204H789.507C789.525 138.512 788.481 137.828 787.365 137.828ZM798.129 136.244C799.515 136.244 800.415 137.162 800.415 138.8V140.06L798.795 140.348V139.376C798.795 138.512 798.489 137.918 797.553 137.918C796.527 137.918 795.771 138.602 795.771 140.42V146H793.755V136.46H795.771V137.738C796.311 136.676 797.301 136.244 798.129 136.244Z" fill="#2A2859"/>
<rect x="549" y="163" width="193" height="46" fill="white"/>
<path d="M574.08 184.872V185.916H570.3V189.732H569.22V185.916H565.44V184.872H569.22V181.056H570.3V184.872H574.08ZM590.375 187.356V188.472H588.071V192H586.883V188.472H580.907V187.464L584.093 178.68H585.245L582.149 187.356H586.883V183.396L588.071 183.036V187.356H590.375ZM592.545 178.68H601.833V179.724L595.497 192H594.129L600.537 179.796H593.697V182.64H592.545V178.68Z" fill="#2A2859"/>
<path d="M610 172V200H612V172H610Z" fill="#2A2859" mask="url(#path-18-inside-4_5492_1290)"/>
<rect x="549" y="163" width="193" height="46" stroke="#2A2859" stroke-width="2"/>
</g>
<defs>
<clipPath id="clip0_5492_1290">
<rect width="922" height="301" fill="white"/>
</clipPath>
</defs>
</svg>
