<svg width="1062" height="263" viewBox="0 0 1062 263" fill="none" xmlns="http://www.w3.org/2000/svg">
<rect width="1062" height="263" fill="white"/>
<path d="M313.62 96.68V98.624H309.642V110H307.536V98.624H303.558V96.68H313.62ZM320.654 106.994L322.022 107.786C321.482 108.974 320.222 110.162 318.044 110.162C315.218 110.162 313.508 108.074 313.508 105.14C313.508 102.242 315.362 100.244 317.9 100.244C320.15 100.244 322.004 101.756 322.004 104.456L321.968 105.644H315.488C315.596 107.66 316.586 108.524 318.17 108.524C319.34 108.524 320.15 107.894 320.654 106.994ZM317.9 101.828C316.676 101.828 315.65 102.476 315.488 104.204H320.042C320.06 102.512 319.016 101.828 317.9 101.828ZM328.124 109.946C327.746 110.054 327.368 110.108 326.972 110.108C325.154 110.108 324.29 109.028 324.29 107.282V96.68H326.306V107.138C326.306 107.966 326.792 108.344 327.53 108.344C327.71 108.344 327.908 108.326 328.124 108.272V109.946ZM336.39 106.994L337.758 107.786C337.218 108.974 335.958 110.162 333.78 110.162C330.954 110.162 329.244 108.074 329.244 105.14C329.244 102.242 331.098 100.244 333.636 100.244C335.886 100.244 337.74 101.756 337.74 104.456L337.704 105.644H331.224C331.332 107.66 332.322 108.524 333.906 108.524C335.076 108.524 335.886 107.894 336.39 106.994ZM333.636 101.828C332.412 101.828 331.386 102.476 331.224 104.204H335.778C335.796 102.512 334.752 101.828 333.636 101.828ZM342.463 99.596V100.46H345.145V102.026H342.463V110H340.447V102.026H338.773V100.46H340.447V99.686C340.447 97.616 341.797 96.41 343.669 96.41C344.551 96.41 345.433 96.77 345.955 97.418L345.001 98.75C344.713 98.39 344.281 98.174 343.813 98.174C343.075 98.174 342.463 98.606 342.463 99.596ZM350.132 110.18C347.648 110.18 345.614 108.236 345.614 105.176C345.614 102.188 347.63 100.244 350.132 100.244C352.634 100.244 354.65 102.188 354.65 105.176C354.65 108.236 352.616 110.18 350.132 110.18ZM350.132 108.47C351.482 108.47 352.58 107.426 352.58 105.176C352.58 102.908 351.464 101.954 350.132 101.954C348.8 101.954 347.684 102.908 347.684 105.176C347.684 107.426 348.8 108.47 350.132 108.47ZM361.572 100.244C363.516 100.244 364.668 101.504 364.668 103.574V110H362.652V103.898C362.652 102.584 362.022 101.99 360.924 101.99C359.502 101.99 358.782 102.98 358.782 104.834V110H356.766V100.46H358.782V101.828C359.43 100.82 360.384 100.244 361.572 100.244ZM372.2 100.244C374.144 100.244 375.296 101.504 375.296 103.574V110H373.28V103.898C373.28 102.584 372.65 101.99 371.552 101.99C370.13 101.99 369.41 102.98 369.41 104.834V110H367.394V100.46H369.41V101.828C370.058 100.82 371.012 100.244 372.2 100.244ZM383.551 100.46H385.567V110H383.551V108.596C382.939 109.64 381.985 110.162 380.815 110.162C378.853 110.162 377.719 108.902 377.719 106.832V100.46H379.735V106.526C379.735 107.768 380.347 108.434 381.445 108.434C382.849 108.434 383.551 107.426 383.551 105.572V100.46ZM398.74 100.244C400.648 100.244 401.746 101.486 401.746 103.484V110H399.73V103.826C399.73 102.566 399.136 101.99 398.092 101.99C396.688 101.99 395.986 102.962 395.986 104.834V110H393.97V103.826C393.97 102.566 393.376 101.99 392.332 101.99C390.946 101.99 390.244 102.962 390.244 104.834V110H388.228V100.46H390.244V101.81C390.892 100.784 391.828 100.244 392.98 100.244C394.438 100.244 395.392 100.946 395.806 102.134C396.454 100.874 397.462 100.244 398.74 100.244ZM415.011 100.244C416.919 100.244 418.017 101.486 418.017 103.484V110H416.001V103.826C416.001 102.566 415.407 101.99 414.363 101.99C412.959 101.99 412.257 102.962 412.257 104.834V110H410.241V103.826C410.241 102.566 409.647 101.99 408.603 101.99C407.217 101.99 406.515 102.962 406.515 104.834V110H404.499V100.46H406.515V101.81C407.163 100.784 408.099 100.244 409.251 100.244C410.709 100.244 411.663 100.946 412.077 102.134C412.725 100.874 413.733 100.244 415.011 100.244ZM427.322 106.994L428.69 107.786C428.15 108.974 426.89 110.162 424.712 110.162C421.886 110.162 420.176 108.074 420.176 105.14C420.176 102.242 422.03 100.244 424.568 100.244C426.818 100.244 428.672 101.756 428.672 104.456L428.636 105.644H422.156C422.264 107.66 423.254 108.524 424.838 108.524C426.008 108.524 426.818 107.894 427.322 106.994ZM424.568 101.828C423.344 101.828 422.318 102.476 422.156 104.204H426.71C426.728 102.512 425.684 101.828 424.568 101.828ZM435.332 100.244C436.718 100.244 437.618 101.162 437.618 102.8V104.06L435.998 104.348V103.376C435.998 102.512 435.692 101.918 434.756 101.918C433.73 101.918 432.974 102.602 432.974 104.42V110H430.958V100.46H432.974V101.738C433.514 100.676 434.504 100.244 435.332 100.244Z" fill="#2A2859"/>
<rect x="304" y="127" width="193" height="46" fill="white"/>
<path d="M329.08 148.872V149.916H325.3V153.732H324.22V149.916H320.44V148.872H324.22V145.056H325.3V148.872H329.08ZM345.375 151.356V152.472H343.071V156H341.883V152.472H335.907V151.464L339.093 142.68H340.245L337.149 151.356H341.883V147.396L343.071 147.036V151.356H345.375ZM347.545 142.68H356.833V143.724L350.497 156H349.129L355.537 143.796H348.697V146.64H347.545V142.68Z" fill="#2A2859"/>
<path d="M365 136V164H367V136H365Z" fill="#2A2859" mask="url(#path-3-inside-1_5495_170436)"/>
<path d="M380.57 154.956H383.522V156H376.25V154.956H379.346V144.084L376.43 146.1V144.768L379.418 142.68H380.57V154.956ZM388.59 154.848H395.61V156H386.898V155.064L391.686 149.736C393.108 148.17 393.702 147.306 393.702 146.1C393.702 144.75 392.802 143.652 391.038 143.652C389.67 143.652 388.5 144.264 387.906 145.938L386.79 145.56C387.654 143.364 389.202 142.536 391.092 142.536C393.666 142.536 394.962 144.3 394.962 145.992C394.962 147.468 394.404 148.458 392.532 150.528L388.59 154.848ZM404.439 148.962C405.771 149.412 406.815 150.528 406.815 152.256C406.815 154.398 405.033 156.144 402.189 156.144C400.479 156.144 398.823 155.496 397.563 153.696L398.499 152.94C399.489 154.38 400.623 155.028 402.297 155.028C404.349 155.028 405.591 153.786 405.591 152.256C405.591 151.158 405.141 150.51 404.493 150.114C403.971 149.808 403.503 149.664 402.639 149.664H400.857V148.584H402.225C403.305 148.584 403.719 148.422 404.205 148.044C404.745 147.612 405.069 146.928 405.069 146.1C405.069 144.624 403.953 143.652 402.153 143.652C400.749 143.652 399.561 144.3 398.913 146.01L397.833 145.632C398.751 143.436 400.317 142.536 402.225 142.536C404.925 142.536 406.257 144.318 406.257 146.064C406.257 147.36 405.501 148.44 404.439 148.962ZM423.002 151.356V152.472H420.698V156H419.51V152.472H413.534V151.464L416.72 142.68H417.872L414.776 151.356H419.51V147.396L420.698 147.036V151.356H423.002ZM429.816 147.432C432.282 147.432 434.028 149.178 434.028 151.572C434.028 154.146 432.138 156.144 429.168 156.144C427.512 156.144 425.856 155.496 424.596 153.696L425.532 152.94C426.522 154.38 427.71 155.028 429.312 155.028C431.382 155.028 432.804 153.516 432.804 151.644C432.804 149.772 431.562 148.548 429.708 148.548C428.412 148.548 427.584 148.944 426.414 150.042L425.424 149.664L425.874 142.68H433.02V143.832H426.936L426.576 148.692C427.44 147.882 428.592 147.432 429.816 147.432ZM445.391 156.144C442.331 156.144 440.567 153.606 440.567 149.268C440.567 145.434 442.457 142.536 445.859 142.536C447.713 142.536 448.991 143.472 449.585 144.93L448.487 145.47C448.019 144.354 446.975 143.652 445.787 143.652C443.141 143.652 441.449 146.082 441.791 150.348C442.403 148.494 443.987 147.558 445.589 147.558C447.641 147.558 449.747 149.142 449.747 151.788C449.747 153.93 448.307 156.144 445.391 156.144ZM442.331 151.824C442.331 153.894 443.771 155.028 445.463 155.028C447.155 155.028 448.523 153.912 448.523 151.824C448.523 150.06 447.191 148.71 445.427 148.71C443.825 148.71 442.331 149.754 442.331 151.824ZM452.205 142.68H461.493V143.724L455.157 156H453.789L460.197 143.796H453.357V146.64H452.205V142.68ZM467.767 156.144C464.995 156.144 463.087 154.524 463.087 152.4C463.087 150.816 464.203 149.556 465.787 149.124C464.347 148.584 463.627 147.288 463.627 146.1C463.627 144.03 465.391 142.536 467.767 142.536C470.143 142.536 471.907 144.03 471.907 146.1C471.907 147.288 471.187 148.584 469.747 149.124C471.331 149.556 472.447 150.816 472.447 152.4C472.447 154.524 470.539 156.144 467.767 156.144ZM467.767 148.584C469.423 148.584 470.719 147.756 470.719 146.172C470.719 144.354 469.261 143.58 467.767 143.58C466.273 143.58 464.815 144.336 464.815 146.172C464.815 147.756 466.111 148.584 467.767 148.584ZM467.767 155.028C469.783 155.028 471.259 154.128 471.259 152.256C471.259 150.51 469.747 149.664 467.767 149.664C465.787 149.664 464.275 150.51 464.275 152.256C464.275 154.146 465.751 155.028 467.767 155.028Z" fill="#2A2859"/>
<rect x="304" y="127" width="193" height="46" stroke="#2A2859" stroke-width="2"/>
<path d="M596.566 110V96.68H598.672V110H596.566ZM606.302 100.244C608.246 100.244 609.398 101.504 609.398 103.574V110H607.382V103.898C607.382 102.584 606.752 101.99 605.654 101.99C604.232 101.99 603.512 102.98 603.512 104.834V110H601.496V100.46H603.512V101.828C604.16 100.82 605.114 100.244 606.302 100.244ZM616.93 100.244C618.874 100.244 620.026 101.504 620.026 103.574V110H618.01V103.898C618.01 102.584 617.38 101.99 616.282 101.99C614.86 101.99 614.14 102.98 614.14 104.834V110H612.124V100.46H614.14V101.828C614.788 100.82 615.742 100.244 616.93 100.244ZM626.587 109.946C626.209 110.054 625.831 110.108 625.435 110.108C623.617 110.108 622.753 109.028 622.753 107.282V96.68H624.769V107.138C624.769 107.966 625.255 108.344 625.993 108.344C626.173 108.344 626.371 108.326 626.587 108.272V109.946ZM632.225 110.18C629.741 110.18 627.707 108.236 627.707 105.176C627.707 102.188 629.723 100.244 632.225 100.244C634.727 100.244 636.743 102.188 636.743 105.176C636.743 108.236 634.709 110.18 632.225 110.18ZM632.225 108.47C633.575 108.47 634.673 107.426 634.673 105.176C634.673 102.908 633.557 101.954 632.225 101.954C630.893 101.954 629.777 102.908 629.777 105.176C629.777 107.426 630.893 108.47 632.225 108.47ZM647.686 102.026H645.688V102.242C646.012 102.692 646.174 103.214 646.174 103.754C646.174 105.482 644.842 107.21 642.07 107.21H641.602C640.63 107.21 640 107.534 640 108.11C640 108.506 640.306 108.794 640.918 108.794H644.896C646.534 108.794 647.47 109.64 647.47 110.936C647.47 112.898 645.472 114.032 642.286 114.032C639.496 114.032 637.624 113.33 637.138 111.476L639.1 111.098C639.55 112.25 640.594 112.556 642.34 112.556C644.212 112.556 645.544 112.052 645.544 111.17C645.544 110.756 645.31 110.45 644.662 110.45H640.324C638.83 110.45 638.056 109.64 638.056 108.632C638.056 107.66 638.92 106.886 640.108 106.652C638.794 106.076 638.146 104.852 638.146 103.7C638.146 101.99 639.532 100.244 642.178 100.244C643.348 100.244 644.266 100.658 644.806 101.252V100.46H647.686V102.026ZM642.178 105.752C643.564 105.752 644.212 104.78 644.212 103.736C644.212 102.692 643.564 101.738 642.178 101.738C640.81 101.738 640.144 102.692 640.144 103.736C640.144 104.78 640.81 105.752 642.178 105.752ZM658.525 102.026H656.527V102.242C656.851 102.692 657.013 103.214 657.013 103.754C657.013 105.482 655.681 107.21 652.909 107.21H652.441C651.469 107.21 650.839 107.534 650.839 108.11C650.839 108.506 651.145 108.794 651.757 108.794H655.735C657.373 108.794 658.309 109.64 658.309 110.936C658.309 112.898 656.311 114.032 653.125 114.032C650.335 114.032 648.463 113.33 647.977 111.476L649.939 111.098C650.389 112.25 651.433 112.556 653.179 112.556C655.051 112.556 656.383 112.052 656.383 111.17C656.383 110.756 656.149 110.45 655.501 110.45H651.163C649.669 110.45 648.895 109.64 648.895 108.632C648.895 107.66 649.759 106.886 650.947 106.652C649.633 106.076 648.985 104.852 648.985 103.7C648.985 101.99 650.371 100.244 653.017 100.244C654.187 100.244 655.105 100.658 655.645 101.252V100.46H658.525V102.026ZM653.017 105.752C654.403 105.752 655.051 104.78 655.051 103.736C655.051 102.692 654.403 101.738 653.017 101.738C651.649 101.738 650.983 102.692 650.983 103.736C650.983 104.78 651.649 105.752 653.017 105.752ZM661.105 98.876C660.313 98.876 659.683 98.264 659.683 97.454C659.683 96.644 660.313 96.032 661.105 96.032C661.897 96.032 662.509 96.644 662.509 97.454C662.509 98.264 661.897 98.876 661.105 98.876ZM660.097 110V100.46H662.113V110H660.097ZM669.801 100.244C671.745 100.244 672.897 101.504 672.897 103.574V110H670.881V103.898C670.881 102.584 670.251 101.99 669.153 101.99C667.731 101.99 667.011 102.98 667.011 104.834V110H664.995V100.46H667.011V101.828C667.659 100.82 668.613 100.244 669.801 100.244ZM684.785 102.026H682.787V102.242C683.111 102.692 683.273 103.214 683.273 103.754C683.273 105.482 681.941 107.21 679.169 107.21H678.701C677.729 107.21 677.099 107.534 677.099 108.11C677.099 108.506 677.405 108.794 678.017 108.794H681.995C683.633 108.794 684.569 109.64 684.569 110.936C684.569 112.898 682.571 114.032 679.385 114.032C676.595 114.032 674.723 113.33 674.237 111.476L676.199 111.098C676.649 112.25 677.693 112.556 679.439 112.556C681.311 112.556 682.643 112.052 682.643 111.17C682.643 110.756 682.409 110.45 681.761 110.45H677.423C675.929 110.45 675.155 109.64 675.155 108.632C675.155 107.66 676.019 106.886 677.207 106.652C675.893 106.076 675.245 104.852 675.245 103.7C675.245 101.99 676.631 100.244 679.277 100.244C680.447 100.244 681.365 100.658 681.905 101.252V100.46H684.785V102.026ZM679.277 105.752C680.663 105.752 681.311 104.78 681.311 103.736C681.311 102.692 680.663 101.738 679.277 101.738C677.909 101.738 677.243 102.692 677.243 103.736C677.243 104.78 677.909 105.752 679.277 105.752ZM685.378 103.088C685.378 101.468 686.872 100.244 689.122 100.244C690.976 100.244 692.218 100.91 692.884 102.188L691.48 103.052C691.048 102.314 690.184 101.864 689.104 101.864C688.024 101.864 687.286 102.278 687.286 102.962C687.286 103.52 687.664 103.862 688.51 104.024L690.112 104.348C692.128 104.744 693.136 105.698 693.136 107.156C693.136 108.956 691.57 110.162 689.212 110.162C687.214 110.162 685.792 109.406 685.054 108.02L686.458 107.138C686.98 108.02 687.898 108.524 689.158 108.524C690.382 108.524 691.21 108.038 691.21 107.246C691.21 106.598 690.814 106.238 689.932 106.058L688.168 105.716C686.368 105.374 685.378 104.456 685.378 103.088ZM701.221 110L698.323 105.626L697.225 106.706V110H695.209V96.68H697.225V104.42L701.077 100.46H703.561L699.655 104.312L703.633 110H701.221ZM708.601 110.18C706.117 110.18 704.083 108.236 704.083 105.176C704.083 102.188 706.099 100.244 708.601 100.244C711.103 100.244 713.119 102.188 713.119 105.176C713.119 108.236 711.085 110.18 708.601 110.18ZM708.601 108.47C709.951 108.47 711.049 107.426 711.049 105.176C711.049 102.908 709.933 101.954 708.601 101.954C707.269 101.954 706.153 102.908 706.153 105.176C706.153 107.426 707.269 108.47 708.601 108.47ZM721.589 96.68H723.605V110H721.589V108.272C720.851 109.604 719.699 110.144 718.601 110.144C716.297 110.144 714.641 108.164 714.641 105.266C714.641 102.26 716.315 100.262 718.835 100.262C719.915 100.262 720.995 100.748 721.589 101.918V96.68ZM719.141 108.38C720.599 108.38 721.589 107.39 721.589 105.158C721.589 102.944 720.617 101.882 719.141 101.882C717.755 101.882 716.729 102.998 716.729 105.158C716.729 107.3 717.755 108.38 719.141 108.38ZM732.802 106.994L734.17 107.786C733.63 108.974 732.37 110.162 730.192 110.162C727.366 110.162 725.656 108.074 725.656 105.14C725.656 102.242 727.51 100.244 730.048 100.244C732.298 100.244 734.152 101.756 734.152 104.456L734.116 105.644H727.636C727.744 107.66 728.734 108.524 730.318 108.524C731.488 108.524 732.298 107.894 732.802 106.994ZM730.048 101.828C728.824 101.828 727.798 102.476 727.636 104.204H732.19C732.208 102.512 731.164 101.828 730.048 101.828Z" fill="#2A2859"/>
<rect x="596" y="127" width="163" height="46" fill="white"/>
<path d="M618.056 156.144C614.492 156.144 611.9 153.48 611.9 149.268C611.9 145.182 614.618 142.536 617.948 142.536C620.288 142.536 621.944 143.616 622.718 145.452L621.566 145.992C620.9 144.498 619.496 143.724 617.912 143.724C615.302 143.724 613.196 145.596 613.196 149.268C613.196 152.94 615.212 155.028 618.11 155.028C619.586 155.028 620.612 154.722 621.584 154.128V150.132H616.688V148.98H622.736V154.632C621.638 155.604 619.82 156.144 618.056 156.144ZM625.136 149.016H629.456V150.168H625.136V149.016Z" fill="#2A2859"/>
<path d="M638 136V164H640V136H638Z" fill="#2A2859" mask="url(#path-9-inside-2_5495_170436)"/>
<path d="M650.276 154.848H657.296V156H648.584V155.064L653.372 149.736C654.794 148.17 655.388 147.306 655.388 146.1C655.388 144.75 654.488 143.652 652.724 143.652C651.356 143.652 650.186 144.264 649.592 145.938L648.476 145.56C649.34 143.364 650.888 142.536 652.778 142.536C655.352 142.536 656.648 144.3 656.648 145.992C656.648 147.468 656.09 148.458 654.218 150.528L650.276 154.848ZM663.462 156.144C661.608 156.144 660.078 155.208 659.43 153.75L660.528 153.21C661.05 154.452 662.292 155.028 663.48 155.028C666.216 155.028 667.512 152.562 667.242 148.332C666.576 150.204 664.938 151.104 663.39 151.104C661.356 151.104 659.322 149.7 659.322 146.856C659.322 144.768 660.78 142.536 663.714 142.536C666.684 142.536 668.466 145.128 668.466 149.304C668.466 153.21 666.936 156.144 663.462 156.144ZM663.534 149.988C665.172 149.988 666.702 148.944 666.702 146.856C666.702 144.768 665.208 143.652 663.606 143.652C662.022 143.652 660.546 144.732 660.546 146.82C660.546 148.98 661.968 149.988 663.534 149.988ZM680.283 151.356V152.472H677.979V156H676.791V152.472H670.815V151.464L674.001 142.68H675.153L672.057 151.356H676.791V147.396L677.979 147.036V151.356H680.283ZM686.089 156.144C684.235 156.144 682.705 155.208 682.057 153.75L683.155 153.21C683.677 154.452 684.919 155.028 686.107 155.028C688.843 155.028 690.139 152.562 689.869 148.332C689.203 150.204 687.565 151.104 686.017 151.104C683.983 151.104 681.949 149.7 681.949 146.856C681.949 144.768 683.407 142.536 686.341 142.536C689.311 142.536 691.093 145.128 691.093 149.304C691.093 153.21 689.563 156.144 686.089 156.144ZM686.161 149.988C687.799 149.988 689.329 148.944 689.329 146.856C689.329 144.768 687.835 143.652 686.233 143.652C684.649 143.652 683.173 144.732 683.173 146.82C683.173 148.98 684.595 149.988 686.161 149.988ZM700.067 148.962C701.399 149.412 702.443 150.528 702.443 152.256C702.443 154.398 700.661 156.144 697.817 156.144C696.107 156.144 694.451 155.496 693.191 153.696L694.127 152.94C695.117 154.38 696.251 155.028 697.925 155.028C699.977 155.028 701.219 153.786 701.219 152.256C701.219 151.158 700.769 150.51 700.121 150.114C699.599 149.808 699.131 149.664 698.267 149.664H696.485V148.584H697.853C698.933 148.584 699.347 148.422 699.833 148.044C700.373 147.612 700.697 146.928 700.697 146.1C700.697 144.624 699.581 143.652 697.781 143.652C696.377 143.652 695.189 144.3 694.541 146.01L693.461 145.632C694.379 143.436 695.945 142.536 697.853 142.536C700.553 142.536 701.885 144.318 701.885 146.064C701.885 147.36 701.129 148.44 700.067 148.962ZM714.224 151.356V152.472H711.92V156H710.732V152.472H704.756V151.464L707.942 142.68H709.094L705.998 151.356H710.732V147.396L711.92 147.036V151.356H714.224ZM725.538 151.356V152.472H723.234V156H722.046V152.472H716.07V151.464L719.256 142.68H720.408L717.312 151.356H722.046V147.396L723.234 147.036V151.356H725.538ZM736.852 151.356V152.472H734.548V156H733.36V152.472H727.384V151.464L730.57 142.68H731.722L728.626 151.356H733.36V147.396L734.548 147.036V151.356H736.852Z" fill="#2A2859"/>
<rect x="596" y="127" width="163" height="46" stroke="#2A2859" stroke-width="2"/>
</svg>
