<svg width="922" height="301" viewBox="0 0 922 301" fill="none" xmlns="http://www.w3.org/2000/svg">
<g clip-path="url(#clip0_5495_170591)">
<rect width="922" height="301" fill="white"/>
<mask id="path-1-inside-1_5495_170591" fill="white">
<path d="M0 55H456V301H0V55Z"/>
</mask>
<path d="M0 55H456V301H0V55Z" fill="white"/>
<path d="M456 301V302H457V301H456ZM0 301H-1V302H0V301ZM455 55V301H457V55H455ZM456 300H0V302H456V300ZM1 301V55H-1V301H1Z" fill="#E6E6E6" mask="url(#path-1-inside-1_5495_170591)"/>
<mask id="path-3-inside-2_5495_170591" fill="white">
<path d="M465 55H922V301H465V55Z"/>
</mask>
<path d="M465 55H922V301H465V55Z" fill="white"/>
<path d="M922 301V302H923V301H922ZM465 301H464V302H465V301ZM921 55V301H923V55H921ZM922 300H465V302H922V300ZM466 301V55H464V301H466Z" fill="#E6E6E6" mask="url(#path-3-inside-2_5495_170591)"/>
<rect x="0.5" y="0.5" width="454.316" height="53.97" stroke="#E6E6E6"/>
<rect x="465.693" y="0.5" width="455.304" height="53.97" stroke="#E6E6E6"/>
<path d="M0 43.9761H455.316V54.9701H0V43.9761Z" fill="#C7F6C9"/>
<path opacity="0.6" d="M465.193 43.9761H921.497V54.9701H465.193V43.9761Z" fill="#FF8274"/>
<path d="M20.2116 28.144C21.7956 28.144 23.3796 27.68 24.4356 26.8V21.6H18.9796V22.896H23.1556V26.144C22.3556 26.608 21.4916 26.848 20.2916 26.848C17.8276 26.848 16.0996 25.136 16.0996 22.016C16.0996 18.896 17.9236 17.376 20.0676 17.376C21.4116 17.376 22.5636 18.048 23.1396 19.296L24.4036 18.64C23.6516 16.96 22.1476 16.016 20.0836 16.016C17.0916 16.016 14.6116 18.368 14.6116 22.016C14.6116 25.776 16.9636 28.144 20.2116 28.144ZM27.5186 18.032C28.1106 18.032 28.5906 17.568 28.5906 16.944C28.5906 16.336 28.1106 15.872 27.5186 15.872C26.9106 15.872 26.4306 16.336 26.4306 16.944C26.4306 17.568 26.9106 18.032 27.5186 18.032ZM26.1906 31.488C27.5506 31.488 28.2066 30.64 28.2066 29.104V19.52H26.8306V29.12C26.8306 29.84 26.6226 30.304 25.9186 30.304C25.7586 30.304 25.5666 30.288 25.3426 30.208L25.2306 31.344C25.5346 31.44 25.8706 31.488 26.1906 31.488ZM36.3084 20.096L37.0124 18.704H36.1964L35.6844 19.712C35.2044 19.488 34.6604 19.36 34.0844 19.36C31.9244 19.36 30.1964 21.088 30.1964 23.728C30.1964 25.36 30.8364 26.64 31.8124 27.392L31.1084 28.8H31.9404L32.4524 27.776C32.9484 28.016 33.5084 28.144 34.0844 28.144C36.2124 28.144 37.9564 26.416 37.9564 23.728C37.9564 22.112 37.3164 20.832 36.3084 20.096ZM31.6204 23.728C31.6204 21.568 32.7404 20.56 34.0844 20.56C34.4524 20.56 34.8204 20.64 35.1404 20.8L32.4044 26.224C31.9244 25.696 31.6204 24.864 31.6204 23.728ZM34.0844 26.944C33.7004 26.944 33.3324 26.864 32.9964 26.688L35.7324 21.248C36.2284 21.776 36.5324 22.592 36.5324 23.728C36.5324 25.888 35.4284 26.944 34.0844 26.944ZM43.2918 19.36C42.5398 19.36 41.7398 19.744 41.2758 20.608V19.52H39.8998V28H41.2758V22.896C41.2758 21.216 41.9798 20.544 42.9398 20.544C43.7878 20.544 44.0598 21.088 44.0598 21.904V22.752L45.2438 22.528V21.584C45.2438 20.128 44.4438 19.36 43.2918 19.36ZM50.6146 21.776C50.6146 22.944 51.4626 23.744 53.0306 24.064L54.4866 24.352C55.4626 24.56 55.8786 24.944 55.8786 25.648C55.8786 26.448 55.0626 26.976 53.8466 26.976C52.6466 26.976 51.7986 26.512 51.3666 25.648L50.3106 26.208C50.9186 27.456 52.1506 28.128 53.8786 28.128C55.8626 28.128 57.2066 27.088 57.2066 25.568C57.2066 24.288 56.3266 23.472 54.4866 23.104L53.2546 22.864C52.3426 22.672 51.9426 22.304 51.9426 21.68C51.9426 20.96 52.6626 20.528 53.7506 20.528C54.7906 20.528 55.5586 20.944 55.9106 21.696L56.9506 21.168C56.5026 20.048 55.3506 19.36 53.7826 19.36C51.9106 19.36 50.6146 20.4 50.6146 21.776ZM62.041 27.968V26.784C61.865 26.832 61.689 26.848 61.529 26.848C60.857 26.848 60.457 26.496 60.457 25.76V16.16H59.081V25.824C59.081 27.2 59.769 28.08 61.209 28.08C61.497 28.08 61.753 28.032 62.041 27.968ZM63.5625 16.064V17.92H65.4505V16.064H63.5625ZM63.8185 28H65.1945V19.52H63.8185V28ZM73.0555 28H74.7355L71.0715 23.024L74.6715 19.52H72.9275L69.1355 23.328V16.16H67.7595V28H69.1355V24.912L70.1435 23.92L73.0555 28Z" fill="#2A2859"/>
<path d="M484.379 28H485.803V16.16H484.379V28ZM493.646 28H495.326L491.662 23.024L495.262 19.52H493.518L489.726 23.328V16.16H488.35V28H489.726V24.912L490.734 23.92L493.646 28ZM502.227 28H503.907L500.243 23.024L503.843 19.52H502.099L498.307 23.328V16.16H496.931V28H498.307V24.912L499.315 23.92L502.227 28ZM510.664 25.488C510.248 26.304 509.496 26.976 508.328 26.976C506.792 26.976 505.784 26.096 505.688 24.016H511.56L511.592 23.04C511.592 20.688 509.976 19.36 508.088 19.36C505.864 19.36 504.312 21.136 504.312 23.664C504.312 26.32 505.768 28.144 508.216 28.144C510.12 28.144 511.192 27.088 511.64 26.032L510.664 25.488ZM508.088 20.512C509.224 20.512 510.264 21.232 510.248 22.944H505.688C505.848 21.136 506.888 20.512 508.088 20.512ZM517.102 21.776C517.102 22.944 517.95 23.744 519.518 24.064L520.974 24.352C521.95 24.56 522.366 24.944 522.366 25.648C522.366 26.448 521.55 26.976 520.334 26.976C519.134 26.976 518.286 26.512 517.854 25.648L516.798 26.208C517.406 27.456 518.638 28.128 520.366 28.128C522.35 28.128 523.694 27.088 523.694 25.568C523.694 24.288 522.814 23.472 520.974 23.104L519.742 22.864C518.83 22.672 518.43 22.304 518.43 21.68C518.43 20.96 519.15 20.528 520.238 20.528C521.278 20.528 522.046 20.944 522.398 21.696L523.438 21.168C522.99 20.048 521.838 19.36 520.27 19.36C518.398 19.36 517.102 20.4 517.102 21.776ZM528.528 27.968V26.784C528.352 26.832 528.176 26.848 528.016 26.848C527.344 26.848 526.944 26.496 526.944 25.76V16.16H525.568V25.824C525.568 27.2 526.256 28.08 527.696 28.08C527.984 28.08 528.24 28.032 528.528 27.968ZM530.994 18.032C531.586 18.032 532.066 17.568 532.066 16.944C532.066 16.336 531.586 15.872 530.994 15.872C530.386 15.872 529.906 16.336 529.906 16.944C529.906 17.568 530.386 18.032 530.994 18.032ZM530.306 28H531.682V19.52H530.306V28ZM539.543 28H541.223L537.559 23.024L541.159 19.52H539.415L535.623 23.328V16.16H534.247V28H535.623V24.912L536.631 23.92L539.543 28Z" fill="#2A2859"/>
<path d="M141.62 132.68V134.624H137.642V146H135.536V134.624H131.558V132.68H141.62ZM148.654 142.994L150.022 143.786C149.482 144.974 148.222 146.162 146.044 146.162C143.218 146.162 141.508 144.074 141.508 141.14C141.508 138.242 143.362 136.244 145.9 136.244C148.15 136.244 150.004 137.756 150.004 140.456L149.968 141.644H143.488C143.596 143.66 144.586 144.524 146.17 144.524C147.34 144.524 148.15 143.894 148.654 142.994ZM145.9 137.828C144.676 137.828 143.65 138.476 143.488 140.204H148.042C148.06 138.512 147.016 137.828 145.9 137.828ZM156.124 145.946C155.746 146.054 155.368 146.108 154.972 146.108C153.154 146.108 152.29 145.028 152.29 143.282V132.68H154.306V143.138C154.306 143.966 154.792 144.344 155.53 144.344C155.71 144.344 155.908 144.326 156.124 144.272V145.946ZM164.39 142.994L165.758 143.786C165.218 144.974 163.958 146.162 161.78 146.162C158.954 146.162 157.244 144.074 157.244 141.14C157.244 138.242 159.098 136.244 161.636 136.244C163.886 136.244 165.74 137.756 165.74 140.456L165.704 141.644H159.224C159.332 143.66 160.322 144.524 161.906 144.524C163.076 144.524 163.886 143.894 164.39 142.994ZM161.636 137.828C160.412 137.828 159.386 138.476 159.224 140.204H163.778C163.796 138.512 162.752 137.828 161.636 137.828ZM170.463 135.596V136.46H173.145V138.026H170.463V146H168.447V138.026H166.773V136.46H168.447V135.686C168.447 133.616 169.797 132.41 171.669 132.41C172.551 132.41 173.433 132.77 173.955 133.418L173.001 134.75C172.713 134.39 172.281 134.174 171.813 134.174C171.075 134.174 170.463 134.606 170.463 135.596ZM178.132 146.18C175.648 146.18 173.614 144.236 173.614 141.176C173.614 138.188 175.63 136.244 178.132 136.244C180.634 136.244 182.65 138.188 182.65 141.176C182.65 144.236 180.616 146.18 178.132 146.18ZM178.132 144.47C179.482 144.47 180.58 143.426 180.58 141.176C180.58 138.908 179.464 137.954 178.132 137.954C176.8 137.954 175.684 138.908 175.684 141.176C175.684 143.426 176.8 144.47 178.132 144.47ZM189.572 136.244C191.516 136.244 192.668 137.504 192.668 139.574V146H190.652V139.898C190.652 138.584 190.022 137.99 188.924 137.99C187.502 137.99 186.782 138.98 186.782 140.834V146H184.766V136.46H186.782V137.828C187.43 136.82 188.384 136.244 189.572 136.244ZM200.2 136.244C202.144 136.244 203.296 137.504 203.296 139.574V146H201.28V139.898C201.28 138.584 200.65 137.99 199.552 137.99C198.13 137.99 197.41 138.98 197.41 140.834V146H195.394V136.46H197.41V137.828C198.058 136.82 199.012 136.244 200.2 136.244ZM211.551 136.46H213.567V146H211.551V144.596C210.939 145.64 209.985 146.162 208.815 146.162C206.853 146.162 205.719 144.902 205.719 142.832V136.46H207.735V142.526C207.735 143.768 208.347 144.434 209.445 144.434C210.849 144.434 211.551 143.426 211.551 141.572V136.46ZM226.74 136.244C228.648 136.244 229.746 137.486 229.746 139.484V146H227.73V139.826C227.73 138.566 227.136 137.99 226.092 137.99C224.688 137.99 223.986 138.962 223.986 140.834V146H221.97V139.826C221.97 138.566 221.376 137.99 220.332 137.99C218.946 137.99 218.244 138.962 218.244 140.834V146H216.228V136.46H218.244V137.81C218.892 136.784 219.828 136.244 220.98 136.244C222.438 136.244 223.392 136.946 223.806 138.134C224.454 136.874 225.462 136.244 226.74 136.244ZM243.011 136.244C244.919 136.244 246.017 137.486 246.017 139.484V146H244.001V139.826C244.001 138.566 243.407 137.99 242.363 137.99C240.959 137.99 240.257 138.962 240.257 140.834V146H238.241V139.826C238.241 138.566 237.647 137.99 236.603 137.99C235.217 137.99 234.515 138.962 234.515 140.834V146H232.499V136.46H234.515V137.81C235.163 136.784 236.099 136.244 237.251 136.244C238.709 136.244 239.663 136.946 240.077 138.134C240.725 136.874 241.733 136.244 243.011 136.244ZM255.322 142.994L256.69 143.786C256.15 144.974 254.89 146.162 252.712 146.162C249.886 146.162 248.176 144.074 248.176 141.14C248.176 138.242 250.03 136.244 252.568 136.244C254.818 136.244 256.672 137.756 256.672 140.456L256.636 141.644H250.156C250.264 143.66 251.254 144.524 252.838 144.524C254.008 144.524 254.818 143.894 255.322 142.994ZM252.568 137.828C251.344 137.828 250.318 138.476 250.156 140.204H254.71C254.728 138.512 253.684 137.828 252.568 137.828ZM263.332 136.244C264.718 136.244 265.618 137.162 265.618 138.8V140.06L263.998 140.348V139.376C263.998 138.512 263.692 137.918 262.756 137.918C261.73 137.918 260.974 138.602 260.974 140.42V146H258.958V136.46H260.974V137.738C261.514 136.676 262.504 136.244 263.332 136.244Z" fill="#2A2859"/>
<rect x="132" y="163" width="193" height="46" fill="white"/>
<path d="M157.08 184.872V185.916H153.3V189.732H152.22V185.916H148.44V184.872H152.22V181.056H153.3V184.872H157.08ZM173.375 187.356V188.472H171.071V192H169.883V188.472H163.907V187.464L167.093 178.68H168.245L165.149 187.356H169.883V183.396L171.071 183.036V187.356H173.375ZM175.545 178.68H184.833V179.724L178.497 192H177.129L183.537 179.796H176.697V182.64H175.545V178.68Z" fill="#2A2859"/>
<path d="M193 172V200H195V172H193Z" fill="#2A2859" mask="url(#path-13-inside-3_5495_170591)"/>
<rect x="132" y="163" width="193" height="46" stroke="#2A2859" stroke-width="2"/>
<path d="M558.62 132.68V134.624H554.642V146H552.536V134.624H548.558V132.68H558.62ZM565.654 142.994L567.022 143.786C566.482 144.974 565.222 146.162 563.044 146.162C560.218 146.162 558.508 144.074 558.508 141.14C558.508 138.242 560.362 136.244 562.9 136.244C565.15 136.244 567.004 137.756 567.004 140.456L566.968 141.644H560.488C560.596 143.66 561.586 144.524 563.17 144.524C564.34 144.524 565.15 143.894 565.654 142.994ZM562.9 137.828C561.676 137.828 560.65 138.476 560.488 140.204H565.042C565.06 138.512 564.016 137.828 562.9 137.828ZM573.124 145.946C572.746 146.054 572.368 146.108 571.972 146.108C570.154 146.108 569.29 145.028 569.29 143.282V132.68H571.306V143.138C571.306 143.966 571.792 144.344 572.53 144.344C572.71 144.344 572.908 144.326 573.124 144.272V145.946ZM581.39 142.994L582.758 143.786C582.218 144.974 580.958 146.162 578.78 146.162C575.954 146.162 574.244 144.074 574.244 141.14C574.244 138.242 576.098 136.244 578.636 136.244C580.886 136.244 582.74 137.756 582.74 140.456L582.704 141.644H576.224C576.332 143.66 577.322 144.524 578.906 144.524C580.076 144.524 580.886 143.894 581.39 142.994ZM578.636 137.828C577.412 137.828 576.386 138.476 576.224 140.204H580.778C580.796 138.512 579.752 137.828 578.636 137.828ZM587.463 135.596V136.46H590.145V138.026H587.463V146H585.447V138.026H583.773V136.46H585.447V135.686C585.447 133.616 586.797 132.41 588.669 132.41C589.551 132.41 590.433 132.77 590.955 133.418L590.001 134.75C589.713 134.39 589.281 134.174 588.813 134.174C588.075 134.174 587.463 134.606 587.463 135.596ZM595.132 146.18C592.648 146.18 590.614 144.236 590.614 141.176C590.614 138.188 592.63 136.244 595.132 136.244C597.634 136.244 599.65 138.188 599.65 141.176C599.65 144.236 597.616 146.18 595.132 146.18ZM595.132 144.47C596.482 144.47 597.58 143.426 597.58 141.176C597.58 138.908 596.464 137.954 595.132 137.954C593.8 137.954 592.684 138.908 592.684 141.176C592.684 143.426 593.8 144.47 595.132 144.47ZM606.572 136.244C608.516 136.244 609.668 137.504 609.668 139.574V146H607.652V139.898C607.652 138.584 607.022 137.99 605.924 137.99C604.502 137.99 603.782 138.98 603.782 140.834V146H601.766V136.46H603.782V137.828C604.43 136.82 605.384 136.244 606.572 136.244ZM617.2 136.244C619.144 136.244 620.296 137.504 620.296 139.574V146H618.28V139.898C618.28 138.584 617.65 137.99 616.552 137.99C615.13 137.99 614.41 138.98 614.41 140.834V146H612.394V136.46H614.41V137.828C615.058 136.82 616.012 136.244 617.2 136.244ZM628.551 136.46H630.567V146H628.551V144.596C627.939 145.64 626.985 146.162 625.815 146.162C623.853 146.162 622.719 144.902 622.719 142.832V136.46H624.735V142.526C624.735 143.768 625.347 144.434 626.445 144.434C627.849 144.434 628.551 143.426 628.551 141.572V136.46ZM643.74 136.244C645.648 136.244 646.746 137.486 646.746 139.484V146H644.73V139.826C644.73 138.566 644.136 137.99 643.092 137.99C641.688 137.99 640.986 138.962 640.986 140.834V146H638.97V139.826C638.97 138.566 638.376 137.99 637.332 137.99C635.946 137.99 635.244 138.962 635.244 140.834V146H633.228V136.46H635.244V137.81C635.892 136.784 636.828 136.244 637.98 136.244C639.438 136.244 640.392 136.946 640.806 138.134C641.454 136.874 642.462 136.244 643.74 136.244ZM660.011 136.244C661.919 136.244 663.017 137.486 663.017 139.484V146H661.001V139.826C661.001 138.566 660.407 137.99 659.363 137.99C657.959 137.99 657.257 138.962 657.257 140.834V146H655.241V139.826C655.241 138.566 654.647 137.99 653.603 137.99C652.217 137.99 651.515 138.962 651.515 140.834V146H649.499V136.46H651.515V137.81C652.163 136.784 653.099 136.244 654.251 136.244C655.709 136.244 656.663 136.946 657.077 138.134C657.725 136.874 658.733 136.244 660.011 136.244ZM672.322 142.994L673.69 143.786C673.15 144.974 671.89 146.162 669.712 146.162C666.886 146.162 665.176 144.074 665.176 141.14C665.176 138.242 667.03 136.244 669.568 136.244C671.818 136.244 673.672 137.756 673.672 140.456L673.636 141.644H667.156C667.264 143.66 668.254 144.524 669.838 144.524C671.008 144.524 671.818 143.894 672.322 142.994ZM669.568 137.828C668.344 137.828 667.318 138.476 667.156 140.204H671.71C671.728 138.512 670.684 137.828 669.568 137.828ZM680.332 136.244C681.718 136.244 682.618 137.162 682.618 138.8V140.06L680.998 140.348V139.376C680.998 138.512 680.692 137.918 679.756 137.918C678.73 137.918 677.974 138.602 677.974 140.42V146H675.958V136.46H677.974V137.738C678.514 136.676 679.504 136.244 680.332 136.244ZM686.386 139.79C685.522 139.79 684.874 139.124 684.874 138.278C684.874 137.432 685.522 136.766 686.386 136.766C687.25 136.766 687.898 137.432 687.898 138.278C687.898 139.124 687.25 139.79 686.386 139.79ZM686.386 146.126C685.522 146.126 684.874 145.46 684.874 144.614C684.874 143.768 685.522 143.102 686.386 143.102C687.25 143.102 687.898 143.768 687.898 144.614C687.898 145.46 687.25 146.126 686.386 146.126Z" fill="#2A2859"/>
<rect x="549" y="163" width="193" height="46" fill="white"/>
<path d="M574.08 184.872V185.916H570.3V189.732H569.22V185.916H565.44V184.872H569.22V181.056H570.3V184.872H574.08ZM590.375 187.356V188.472H588.071V192H586.883V188.472H580.907V187.464L584.093 178.68H585.245L582.149 187.356H586.883V183.396L588.071 183.036V187.356H590.375ZM592.545 178.68H601.833V179.724L595.497 192H594.129L600.537 179.796H593.697V182.64H592.545V178.68Z" fill="#2A2859"/>
<path d="M610 172V200H612V172H610Z" fill="#2A2859" mask="url(#path-18-inside-4_5495_170591)"/>
<rect x="549" y="163" width="193" height="46" stroke="#2A2859" stroke-width="2"/>
</g>
<defs>
<clipPath id="clip0_5495_170591">
<rect width="922" height="301" fill="white"/>
</clipPath>
</defs>
</svg>
