<svg width="922" height="301" viewBox="0 0 922 301" fill="none" xmlns="http://www.w3.org/2000/svg">
<g clip-path="url(#clip0_5495_170639)">
<rect width="922" height="301" fill="white"/>
<mask id="path-1-inside-1_5495_170639" fill="white">
<path d="M0 55H456V301H0V55Z"/>
</mask>
<path d="M0 55H456V301H0V55Z" fill="white"/>
<path d="M456 301V302H457V301H456ZM0 301H-1V302H0V301ZM455 55V301H457V55H455ZM456 300H0V302H456V300ZM1 301V55H-1V301H1Z" fill="#E6E6E6" mask="url(#path-1-inside-1_5495_170639)"/>
<mask id="path-3-inside-2_5495_170639" fill="white">
<path d="M465 55H922V301H465V55Z"/>
</mask>
<path d="M465 55H922V301H465V55Z" fill="white"/>
<path d="M922 301V302H923V301H922ZM465 301H464V302H465V301ZM921 55V301H923V55H921ZM922 300H465V302H922V300ZM466 301V55H464V301H466Z" fill="#E6E6E6" mask="url(#path-3-inside-2_5495_170639)"/>
<rect x="0.5" y="0.5" width="454.316" height="53.97" stroke="#E6E6E6"/>
<rect x="465.693" y="0.5" width="455.304" height="53.97" stroke="#E6E6E6"/>
<path d="M0 43.9761H455.316V54.9701H0V43.9761Z" fill="#C7F6C9"/>
<path opacity="0.6" d="M465.193 43.9761H921.497V54.9701H465.193V43.9761Z" fill="#FF8274"/>
<path d="M20.2116 28.144C21.7956 28.144 23.3796 27.68 24.4356 26.8V21.6H18.9796V22.896H23.1556V26.144C22.3556 26.608 21.4916 26.848 20.2916 26.848C17.8276 26.848 16.0996 25.136 16.0996 22.016C16.0996 18.896 17.9236 17.376 20.0676 17.376C21.4116 17.376 22.5636 18.048 23.1396 19.296L24.4036 18.64C23.6516 16.96 22.1476 16.016 20.0836 16.016C17.0916 16.016 14.6116 18.368 14.6116 22.016C14.6116 25.776 16.9636 28.144 20.2116 28.144ZM27.5186 18.032C28.1106 18.032 28.5906 17.568 28.5906 16.944C28.5906 16.336 28.1106 15.872 27.5186 15.872C26.9106 15.872 26.4306 16.336 26.4306 16.944C26.4306 17.568 26.9106 18.032 27.5186 18.032ZM26.1906 31.488C27.5506 31.488 28.2066 30.64 28.2066 29.104V19.52H26.8306V29.12C26.8306 29.84 26.6226 30.304 25.9186 30.304C25.7586 30.304 25.5666 30.288 25.3426 30.208L25.2306 31.344C25.5346 31.44 25.8706 31.488 26.1906 31.488ZM36.3084 20.096L37.0124 18.704H36.1964L35.6844 19.712C35.2044 19.488 34.6604 19.36 34.0844 19.36C31.9244 19.36 30.1964 21.088 30.1964 23.728C30.1964 25.36 30.8364 26.64 31.8124 27.392L31.1084 28.8H31.9404L32.4524 27.776C32.9484 28.016 33.5084 28.144 34.0844 28.144C36.2124 28.144 37.9564 26.416 37.9564 23.728C37.9564 22.112 37.3164 20.832 36.3084 20.096ZM31.6204 23.728C31.6204 21.568 32.7404 20.56 34.0844 20.56C34.4524 20.56 34.8204 20.64 35.1404 20.8L32.4044 26.224C31.9244 25.696 31.6204 24.864 31.6204 23.728ZM34.0844 26.944C33.7004 26.944 33.3324 26.864 32.9964 26.688L35.7324 21.248C36.2284 21.776 36.5324 22.592 36.5324 23.728C36.5324 25.888 35.4284 26.944 34.0844 26.944ZM43.2918 19.36C42.5398 19.36 41.7398 19.744 41.2758 20.608V19.52H39.8998V28H41.2758V22.896C41.2758 21.216 41.9798 20.544 42.9398 20.544C43.7878 20.544 44.0598 21.088 44.0598 21.904V22.752L45.2438 22.528V21.584C45.2438 20.128 44.4438 19.36 43.2918 19.36ZM50.6146 21.776C50.6146 22.944 51.4626 23.744 53.0306 24.064L54.4866 24.352C55.4626 24.56 55.8786 24.944 55.8786 25.648C55.8786 26.448 55.0626 26.976 53.8466 26.976C52.6466 26.976 51.7986 26.512 51.3666 25.648L50.3106 26.208C50.9186 27.456 52.1506 28.128 53.8786 28.128C55.8626 28.128 57.2066 27.088 57.2066 25.568C57.2066 24.288 56.3266 23.472 54.4866 23.104L53.2546 22.864C52.3426 22.672 51.9426 22.304 51.9426 21.68C51.9426 20.96 52.6626 20.528 53.7506 20.528C54.7906 20.528 55.5586 20.944 55.9106 21.696L56.9506 21.168C56.5026 20.048 55.3506 19.36 53.7826 19.36C51.9106 19.36 50.6146 20.4 50.6146 21.776ZM62.041 27.968V26.784C61.865 26.832 61.689 26.848 61.529 26.848C60.857 26.848 60.457 26.496 60.457 25.76V16.16H59.081V25.824C59.081 27.2 59.769 28.08 61.209 28.08C61.497 28.08 61.753 28.032 62.041 27.968ZM63.5625 16.064V17.92H65.4505V16.064H63.5625ZM63.8185 28H65.1945V19.52H63.8185V28ZM73.0555 28H74.7355L71.0715 23.024L74.6715 19.52H72.9275L69.1355 23.328V16.16H67.7595V28H69.1355V24.912L70.1435 23.92L73.0555 28Z" fill="#2A2859"/>
<path d="M484.379 28H485.803V16.16H484.379V28ZM493.646 28H495.326L491.662 23.024L495.262 19.52H493.518L489.726 23.328V16.16H488.35V28H489.726V24.912L490.734 23.92L493.646 28ZM502.227 28H503.907L500.243 23.024L503.843 19.52H502.099L498.307 23.328V16.16H496.931V28H498.307V24.912L499.315 23.92L502.227 28ZM510.664 25.488C510.248 26.304 509.496 26.976 508.328 26.976C506.792 26.976 505.784 26.096 505.688 24.016H511.56L511.592 23.04C511.592 20.688 509.976 19.36 508.088 19.36C505.864 19.36 504.312 21.136 504.312 23.664C504.312 26.32 505.768 28.144 508.216 28.144C510.12 28.144 511.192 27.088 511.64 26.032L510.664 25.488ZM508.088 20.512C509.224 20.512 510.264 21.232 510.248 22.944H505.688C505.848 21.136 506.888 20.512 508.088 20.512ZM517.102 21.776C517.102 22.944 517.95 23.744 519.518 24.064L520.974 24.352C521.95 24.56 522.366 24.944 522.366 25.648C522.366 26.448 521.55 26.976 520.334 26.976C519.134 26.976 518.286 26.512 517.854 25.648L516.798 26.208C517.406 27.456 518.638 28.128 520.366 28.128C522.35 28.128 523.694 27.088 523.694 25.568C523.694 24.288 522.814 23.472 520.974 23.104L519.742 22.864C518.83 22.672 518.43 22.304 518.43 21.68C518.43 20.96 519.15 20.528 520.238 20.528C521.278 20.528 522.046 20.944 522.398 21.696L523.438 21.168C522.99 20.048 521.838 19.36 520.27 19.36C518.398 19.36 517.102 20.4 517.102 21.776ZM528.528 27.968V26.784C528.352 26.832 528.176 26.848 528.016 26.848C527.344 26.848 526.944 26.496 526.944 25.76V16.16H525.568V25.824C525.568 27.2 526.256 28.08 527.696 28.08C527.984 28.08 528.24 28.032 528.528 27.968ZM530.994 18.032C531.586 18.032 532.066 17.568 532.066 16.944C532.066 16.336 531.586 15.872 530.994 15.872C530.386 15.872 529.906 16.336 529.906 16.944C529.906 17.568 530.386 18.032 530.994 18.032ZM530.306 28H531.682V19.52H530.306V28ZM539.543 28H541.223L537.559 23.024L541.159 19.52H539.415L535.623 23.328V16.16H534.247V28H535.623V24.912L536.631 23.92L539.543 28Z" fill="#2A2859"/>
<path d="M141.62 132.68V134.624H137.642V146H135.536V134.624H131.558V132.68H141.62ZM148.654 142.994L150.022 143.786C149.482 144.974 148.222 146.162 146.044 146.162C143.218 146.162 141.508 144.074 141.508 141.14C141.508 138.242 143.362 136.244 145.9 136.244C148.15 136.244 150.004 137.756 150.004 140.456L149.968 141.644H143.488C143.596 143.66 144.586 144.524 146.17 144.524C147.34 144.524 148.15 143.894 148.654 142.994ZM145.9 137.828C144.676 137.828 143.65 138.476 143.488 140.204H148.042C148.06 138.512 147.016 137.828 145.9 137.828ZM156.124 145.946C155.746 146.054 155.368 146.108 154.972 146.108C153.154 146.108 152.29 145.028 152.29 143.282V132.68H154.306V143.138C154.306 143.966 154.792 144.344 155.53 144.344C155.71 144.344 155.908 144.326 156.124 144.272V145.946ZM164.39 142.994L165.758 143.786C165.218 144.974 163.958 146.162 161.78 146.162C158.954 146.162 157.244 144.074 157.244 141.14C157.244 138.242 159.098 136.244 161.636 136.244C163.886 136.244 165.74 137.756 165.74 140.456L165.704 141.644H159.224C159.332 143.66 160.322 144.524 161.906 144.524C163.076 144.524 163.886 143.894 164.39 142.994ZM161.636 137.828C160.412 137.828 159.386 138.476 159.224 140.204H163.778C163.796 138.512 162.752 137.828 161.636 137.828ZM170.463 135.596V136.46H173.145V138.026H170.463V146H168.447V138.026H166.773V136.46H168.447V135.686C168.447 133.616 169.797 132.41 171.669 132.41C172.551 132.41 173.433 132.77 173.955 133.418L173.001 134.75C172.713 134.39 172.281 134.174 171.813 134.174C171.075 134.174 170.463 134.606 170.463 135.596ZM178.132 146.18C175.648 146.18 173.614 144.236 173.614 141.176C173.614 138.188 175.63 136.244 178.132 136.244C180.634 136.244 182.65 138.188 182.65 141.176C182.65 144.236 180.616 146.18 178.132 146.18ZM178.132 144.47C179.482 144.47 180.58 143.426 180.58 141.176C180.58 138.908 179.464 137.954 178.132 137.954C176.8 137.954 175.684 138.908 175.684 141.176C175.684 143.426 176.8 144.47 178.132 144.47ZM189.572 136.244C191.516 136.244 192.668 137.504 192.668 139.574V146H190.652V139.898C190.652 138.584 190.022 137.99 188.924 137.99C187.502 137.99 186.782 138.98 186.782 140.834V146H184.766V136.46H186.782V137.828C187.43 136.82 188.384 136.244 189.572 136.244ZM200.2 136.244C202.144 136.244 203.296 137.504 203.296 139.574V146H201.28V139.898C201.28 138.584 200.65 137.99 199.552 137.99C198.13 137.99 197.41 138.98 197.41 140.834V146H195.394V136.46H197.41V137.828C198.058 136.82 199.012 136.244 200.2 136.244ZM211.551 136.46H213.567V146H211.551V144.596C210.939 145.64 209.985 146.162 208.815 146.162C206.853 146.162 205.719 144.902 205.719 142.832V136.46H207.735V142.526C207.735 143.768 208.347 144.434 209.445 144.434C210.849 144.434 211.551 143.426 211.551 141.572V136.46ZM226.74 136.244C228.648 136.244 229.746 137.486 229.746 139.484V146H227.73V139.826C227.73 138.566 227.136 137.99 226.092 137.99C224.688 137.99 223.986 138.962 223.986 140.834V146H221.97V139.826C221.97 138.566 221.376 137.99 220.332 137.99C218.946 137.99 218.244 138.962 218.244 140.834V146H216.228V136.46H218.244V137.81C218.892 136.784 219.828 136.244 220.98 136.244C222.438 136.244 223.392 136.946 223.806 138.134C224.454 136.874 225.462 136.244 226.74 136.244ZM243.011 136.244C244.919 136.244 246.017 137.486 246.017 139.484V146H244.001V139.826C244.001 138.566 243.407 137.99 242.363 137.99C240.959 137.99 240.257 138.962 240.257 140.834V146H238.241V139.826C238.241 138.566 237.647 137.99 236.603 137.99C235.217 137.99 234.515 138.962 234.515 140.834V146H232.499V136.46H234.515V137.81C235.163 136.784 236.099 136.244 237.251 136.244C238.709 136.244 239.663 136.946 240.077 138.134C240.725 136.874 241.733 136.244 243.011 136.244ZM255.322 142.994L256.69 143.786C256.15 144.974 254.89 146.162 252.712 146.162C249.886 146.162 248.176 144.074 248.176 141.14C248.176 138.242 250.03 136.244 252.568 136.244C254.818 136.244 256.672 137.756 256.672 140.456L256.636 141.644H250.156C250.264 143.66 251.254 144.524 252.838 144.524C254.008 144.524 254.818 143.894 255.322 142.994ZM252.568 137.828C251.344 137.828 250.318 138.476 250.156 140.204H254.71C254.728 138.512 253.684 137.828 252.568 137.828ZM263.332 136.244C264.718 136.244 265.618 137.162 265.618 138.8V140.06L263.998 140.348V139.376C263.998 138.512 263.692 137.918 262.756 137.918C261.73 137.918 260.974 138.602 260.974 140.42V146H258.958V136.46H260.974V137.738C261.514 136.676 262.504 136.244 263.332 136.244Z" fill="#2A2859"/>
<rect width="62" height="22" transform="translate(277 129)" fill="#E5FCFF"/>
<path d="M288.924 134.64H289.96L286.166 145H285.186L281.42 134.64H282.484L285.69 143.866L288.924 134.64ZM295.992 145H295.124C295.012 144.594 294.928 144.104 294.928 143.544C294.55 144.412 293.584 145.112 292.38 145.112C291.064 145.112 290.07 144.258 290.07 142.984C290.07 141.458 291.442 140.66 292.968 140.66C293.57 140.66 294.158 140.73 294.76 140.94V139.96C294.76 138.994 294.172 138.336 293.024 138.336C292.1 138.336 291.316 138.742 290.924 139.876L290.084 139.624C290.644 138.056 291.778 137.468 293.08 137.468C294.914 137.468 295.684 138.574 295.684 139.848V142.9C295.684 143.74 295.824 144.496 295.992 145ZM294.76 141.92V141.752C294.186 141.514 293.598 141.444 293.024 141.444C291.904 141.444 291.022 141.948 291.022 142.928C291.022 143.824 291.652 144.3 292.548 144.3C293.514 144.3 294.76 143.726 294.76 141.92ZM300.415 144.972C300.191 145.028 300.009 145.056 299.799 145.056C298.637 145.056 298.091 144.328 298.091 143.236V134.64H299.043V143.236C299.043 143.866 299.379 144.188 299.967 144.188C300.121 144.188 300.275 144.174 300.415 144.132V144.972ZM308.542 138.364H306.946V138.63C307.31 139.078 307.506 139.638 307.506 140.184C307.506 141.542 306.526 142.928 304.44 142.928H304.118C303.278 142.928 302.676 143.25 302.676 143.74C302.676 144.118 302.97 144.384 303.586 144.384H306.596C307.8 144.384 308.416 144.972 308.416 145.896C308.416 147.366 306.722 148.136 304.636 148.136C302.76 148.136 301.458 147.534 301.01 146.232L301.78 145.882C302.298 147.1 303.39 147.338 304.636 147.338C306.176 147.338 307.464 146.876 307.464 145.98C307.464 145.56 307.24 145.252 306.568 145.252H303.376C302.34 145.252 301.724 144.762 301.724 143.992C301.724 143.334 302.27 142.76 303.18 142.522C302.2 142.13 301.654 141.094 301.654 140.184C301.654 138.854 302.648 137.468 304.608 137.468C305.378 137.468 305.966 137.72 306.414 138.098V137.58H308.542V138.364ZM304.594 142.144C305.91 142.144 306.568 141.234 306.568 140.184C306.568 139.148 305.91 138.28 304.594 138.28C303.264 138.28 302.592 139.162 302.592 140.184C302.592 141.22 303.264 142.144 304.594 142.144ZM311.237 136.544V137.58H313.309V138.364H311.237V145H310.285V138.364H308.885V137.58H310.285V136.544C310.285 135.256 311.125 134.528 312.273 134.528C312.805 134.528 313.421 134.738 313.771 135.298L313.197 135.872C312.973 135.536 312.637 135.34 312.245 135.34C311.755 135.34 311.237 135.634 311.237 136.544ZM317.417 137.468C318.383 137.468 319.083 138.112 319.083 139.372V140.1L318.215 140.268V139.54C318.215 138.798 317.963 138.308 317.207 138.308C316.353 138.308 315.709 138.938 315.709 140.436V145H314.757V137.58H315.709V138.504C316.101 137.804 316.759 137.468 317.417 137.468ZM321.44 136.236C320.978 136.236 320.6 135.872 320.6 135.396C320.6 134.92 320.978 134.556 321.44 134.556C321.902 134.556 322.28 134.92 322.28 135.396C322.28 135.872 321.902 136.236 321.44 136.236ZM320.964 145V137.58H321.916V145H320.964ZM325.811 143.152C325.811 144.02 326.329 144.272 326.791 144.272C327.239 144.272 327.533 144.104 327.883 143.74L328.387 144.3C327.897 144.874 327.365 145.112 326.707 145.112C325.699 145.112 324.859 144.44 324.859 143.124V138.364H323.459V137.58H324.859V135.984L325.811 135.424V137.58H328.219V138.364H325.811V143.152ZM331.225 143.152C331.225 144.02 331.743 144.272 332.205 144.272C332.653 144.272 332.947 144.104 333.297 143.74L333.801 144.3C333.311 144.874 332.779 145.112 332.121 145.112C331.113 145.112 330.273 144.44 330.273 143.124V138.364H328.873V137.58H330.273V135.984L331.225 135.424V137.58H333.633V138.364H331.225V143.152Z" fill="#2A2859"/>
<rect x="132" y="163" width="193" height="46" fill="white"/>
<path d="M157.08 184.872V185.916H153.3V189.732H152.22V185.916H148.44V184.872H152.22V181.056H153.3V184.872H157.08ZM173.375 187.356V188.472H171.071V192H169.883V188.472H163.907V187.464L167.093 178.68H168.245L165.149 187.356H169.883V183.396L171.071 183.036V187.356H173.375ZM175.545 178.68H184.833V179.724L178.497 192H177.129L183.537 179.796H176.697V182.64H175.545V178.68Z" fill="#2A2859"/>
<path d="M193 172V200H195V172H193Z" fill="#2A2859" mask="url(#path-14-inside-3_5495_170639)"/>
<path d="M208.57 190.956H211.522V192H204.25V190.956H207.346V180.084L204.43 182.1V180.768L207.418 178.68H208.57V190.956ZM216.59 190.848H223.61V192H214.898V191.064L219.686 185.736C221.108 184.17 221.702 183.306 221.702 182.1C221.702 180.75 220.802 179.652 219.038 179.652C217.67 179.652 216.5 180.264 215.906 181.938L214.79 181.56C215.654 179.364 217.202 178.536 219.092 178.536C221.666 178.536 222.962 180.3 222.962 181.992C222.962 183.468 222.404 184.458 220.532 186.528L216.59 190.848ZM232.439 184.962C233.771 185.412 234.815 186.528 234.815 188.256C234.815 190.398 233.033 192.144 230.189 192.144C228.479 192.144 226.823 191.496 225.563 189.696L226.499 188.94C227.489 190.38 228.623 191.028 230.297 191.028C232.349 191.028 233.591 189.786 233.591 188.256C233.591 187.158 233.141 186.51 232.493 186.114C231.971 185.808 231.503 185.664 230.639 185.664H228.857V184.584H230.225C231.305 184.584 231.719 184.422 232.205 184.044C232.745 183.612 233.069 182.928 233.069 182.1C233.069 180.624 231.953 179.652 230.153 179.652C228.749 179.652 227.561 180.3 226.913 182.01L225.833 181.632C226.751 179.436 228.317 178.536 230.225 178.536C232.925 178.536 234.257 180.318 234.257 182.064C234.257 183.36 233.501 184.44 232.439 184.962ZM251.002 187.356V188.472H248.698V192H247.51V188.472H241.534V187.464L244.72 178.68H245.872L242.776 187.356H247.51V183.396L248.698 183.036V187.356H251.002ZM257.816 183.432C260.282 183.432 262.028 185.178 262.028 187.572C262.028 190.146 260.138 192.144 257.168 192.144C255.512 192.144 253.856 191.496 252.596 189.696L253.532 188.94C254.522 190.38 255.71 191.028 257.312 191.028C259.382 191.028 260.804 189.516 260.804 187.644C260.804 185.772 259.562 184.548 257.708 184.548C256.412 184.548 255.584 184.944 254.414 186.042L253.424 185.664L253.874 178.68H261.02V179.832H254.936L254.576 184.692C255.44 183.882 256.592 183.432 257.816 183.432ZM273.391 192.144C270.331 192.144 268.567 189.606 268.567 185.268C268.567 181.434 270.457 178.536 273.859 178.536C275.713 178.536 276.991 179.472 277.585 180.93L276.487 181.47C276.019 180.354 274.975 179.652 273.787 179.652C271.141 179.652 269.449 182.082 269.791 186.348C270.403 184.494 271.987 183.558 273.589 183.558C275.641 183.558 277.747 185.142 277.747 187.788C277.747 189.93 276.307 192.144 273.391 192.144ZM270.331 187.824C270.331 189.894 271.771 191.028 273.463 191.028C275.155 191.028 276.523 189.912 276.523 187.824C276.523 186.06 275.191 184.71 273.427 184.71C271.825 184.71 270.331 185.754 270.331 187.824ZM280.205 178.68H289.493V179.724L283.157 192H281.789L288.197 179.796H281.357V182.64H280.205V178.68ZM295.767 192.144C292.995 192.144 291.087 190.524 291.087 188.4C291.087 186.816 292.203 185.556 293.787 185.124C292.347 184.584 291.627 183.288 291.627 182.1C291.627 180.03 293.391 178.536 295.767 178.536C298.143 178.536 299.907 180.03 299.907 182.1C299.907 183.288 299.187 184.584 297.747 185.124C299.331 185.556 300.447 186.816 300.447 188.4C300.447 190.524 298.539 192.144 295.767 192.144ZM295.767 184.584C297.423 184.584 298.719 183.756 298.719 182.172C298.719 180.354 297.261 179.58 295.767 179.58C294.273 179.58 292.815 180.336 292.815 182.172C292.815 183.756 294.111 184.584 295.767 184.584ZM295.767 191.028C297.783 191.028 299.259 190.128 299.259 188.256C299.259 186.51 297.747 185.664 295.767 185.664C293.787 185.664 292.275 186.51 292.275 188.256C292.275 190.146 293.751 191.028 295.767 191.028Z" fill="#2A2859"/>
<rect x="132" y="163" width="193" height="46" stroke="#2A2859" stroke-width="2"/>
<path d="M524.62 132.68V134.624H520.642V146H518.536V134.624H514.558V132.68H524.62ZM531.654 142.994L533.022 143.786C532.482 144.974 531.222 146.162 529.044 146.162C526.218 146.162 524.508 144.074 524.508 141.14C524.508 138.242 526.362 136.244 528.9 136.244C531.15 136.244 533.004 137.756 533.004 140.456L532.968 141.644H526.488C526.596 143.66 527.586 144.524 529.17 144.524C530.34 144.524 531.15 143.894 531.654 142.994ZM528.9 137.828C527.676 137.828 526.65 138.476 526.488 140.204H531.042C531.06 138.512 530.016 137.828 528.9 137.828ZM539.124 145.946C538.746 146.054 538.368 146.108 537.972 146.108C536.154 146.108 535.29 145.028 535.29 143.282V132.68H537.306V143.138C537.306 143.966 537.792 144.344 538.53 144.344C538.71 144.344 538.908 144.326 539.124 144.272V145.946ZM547.39 142.994L548.758 143.786C548.218 144.974 546.958 146.162 544.78 146.162C541.954 146.162 540.244 144.074 540.244 141.14C540.244 138.242 542.098 136.244 544.636 136.244C546.886 136.244 548.74 137.756 548.74 140.456L548.704 141.644H542.224C542.332 143.66 543.322 144.524 544.906 144.524C546.076 144.524 546.886 143.894 547.39 142.994ZM544.636 137.828C543.412 137.828 542.386 138.476 542.224 140.204H546.778C546.796 138.512 545.752 137.828 544.636 137.828ZM553.463 135.596V136.46H556.145V138.026H553.463V146H551.447V138.026H549.773V136.46H551.447V135.686C551.447 133.616 552.797 132.41 554.669 132.41C555.551 132.41 556.433 132.77 556.955 133.418L556.001 134.75C555.713 134.39 555.281 134.174 554.813 134.174C554.075 134.174 553.463 134.606 553.463 135.596ZM561.132 146.18C558.648 146.18 556.614 144.236 556.614 141.176C556.614 138.188 558.63 136.244 561.132 136.244C563.634 136.244 565.65 138.188 565.65 141.176C565.65 144.236 563.616 146.18 561.132 146.18ZM561.132 144.47C562.482 144.47 563.58 143.426 563.58 141.176C563.58 138.908 562.464 137.954 561.132 137.954C559.8 137.954 558.684 138.908 558.684 141.176C558.684 143.426 559.8 144.47 561.132 144.47ZM572.572 136.244C574.516 136.244 575.668 137.504 575.668 139.574V146H573.652V139.898C573.652 138.584 573.022 137.99 571.924 137.99C570.502 137.99 569.782 138.98 569.782 140.834V146H567.766V136.46H569.782V137.828C570.43 136.82 571.384 136.244 572.572 136.244ZM583.2 136.244C585.144 136.244 586.296 137.504 586.296 139.574V146H584.28V139.898C584.28 138.584 583.65 137.99 582.552 137.99C581.13 137.99 580.41 138.98 580.41 140.834V146H578.394V136.46H580.41V137.828C581.058 136.82 582.012 136.244 583.2 136.244ZM594.551 136.46H596.567V146H594.551V144.596C593.939 145.64 592.985 146.162 591.815 146.162C589.853 146.162 588.719 144.902 588.719 142.832V136.46H590.735V142.526C590.735 143.768 591.347 144.434 592.445 144.434C593.849 144.434 594.551 143.426 594.551 141.572V136.46ZM609.74 136.244C611.648 136.244 612.746 137.486 612.746 139.484V146H610.73V139.826C610.73 138.566 610.136 137.99 609.092 137.99C607.688 137.99 606.986 138.962 606.986 140.834V146H604.97V139.826C604.97 138.566 604.376 137.99 603.332 137.99C601.946 137.99 601.244 138.962 601.244 140.834V146H599.228V136.46H601.244V137.81C601.892 136.784 602.828 136.244 603.98 136.244C605.438 136.244 606.392 136.946 606.806 138.134C607.454 136.874 608.462 136.244 609.74 136.244ZM626.011 136.244C627.919 136.244 629.017 137.486 629.017 139.484V146H627.001V139.826C627.001 138.566 626.407 137.99 625.363 137.99C623.959 137.99 623.257 138.962 623.257 140.834V146H621.241V139.826C621.241 138.566 620.647 137.99 619.603 137.99C618.217 137.99 617.515 138.962 617.515 140.834V146H615.499V136.46H617.515V137.81C618.163 136.784 619.099 136.244 620.251 136.244C621.709 136.244 622.663 136.946 623.077 138.134C623.725 136.874 624.733 136.244 626.011 136.244ZM638.322 142.994L639.69 143.786C639.15 144.974 637.89 146.162 635.712 146.162C632.886 146.162 631.176 144.074 631.176 141.14C631.176 138.242 633.03 136.244 635.568 136.244C637.818 136.244 639.672 137.756 639.672 140.456L639.636 141.644H633.156C633.264 143.66 634.254 144.524 635.838 144.524C637.008 144.524 637.818 143.894 638.322 142.994ZM635.568 137.828C634.344 137.828 633.318 138.476 633.156 140.204H637.71C637.728 138.512 636.684 137.828 635.568 137.828ZM646.332 136.244C647.718 136.244 648.618 137.162 648.618 138.8V140.06L646.998 140.348V139.376C646.998 138.512 646.692 137.918 645.756 137.918C644.73 137.918 643.974 138.602 643.974 140.42V146H641.958V136.46H643.974V137.738C644.514 136.676 645.504 136.244 646.332 136.244Z" fill="#2A2859"/>
<rect width="62" height="22" transform="translate(660 129)" fill="#E5FCFF"/>
<path d="M671.924 134.64H672.96L669.166 145H668.186L664.42 134.64H665.484L668.69 143.866L671.924 134.64ZM678.992 145H678.124C678.012 144.594 677.928 144.104 677.928 143.544C677.55 144.412 676.584 145.112 675.38 145.112C674.064 145.112 673.07 144.258 673.07 142.984C673.07 141.458 674.442 140.66 675.968 140.66C676.57 140.66 677.158 140.73 677.76 140.94V139.96C677.76 138.994 677.172 138.336 676.024 138.336C675.1 138.336 674.316 138.742 673.924 139.876L673.084 139.624C673.644 138.056 674.778 137.468 676.08 137.468C677.914 137.468 678.684 138.574 678.684 139.848V142.9C678.684 143.74 678.824 144.496 678.992 145ZM677.76 141.92V141.752C677.186 141.514 676.598 141.444 676.024 141.444C674.904 141.444 674.022 141.948 674.022 142.928C674.022 143.824 674.652 144.3 675.548 144.3C676.514 144.3 677.76 143.726 677.76 141.92ZM683.415 144.972C683.191 145.028 683.009 145.056 682.799 145.056C681.637 145.056 681.091 144.328 681.091 143.236V134.64H682.043V143.236C682.043 143.866 682.379 144.188 682.967 144.188C683.121 144.188 683.275 144.174 683.415 144.132V144.972ZM691.542 138.364H689.946V138.63C690.31 139.078 690.506 139.638 690.506 140.184C690.506 141.542 689.526 142.928 687.44 142.928H687.118C686.278 142.928 685.676 143.25 685.676 143.74C685.676 144.118 685.97 144.384 686.586 144.384H689.596C690.8 144.384 691.416 144.972 691.416 145.896C691.416 147.366 689.722 148.136 687.636 148.136C685.76 148.136 684.458 147.534 684.01 146.232L684.78 145.882C685.298 147.1 686.39 147.338 687.636 147.338C689.176 147.338 690.464 146.876 690.464 145.98C690.464 145.56 690.24 145.252 689.568 145.252H686.376C685.34 145.252 684.724 144.762 684.724 143.992C684.724 143.334 685.27 142.76 686.18 142.522C685.2 142.13 684.654 141.094 684.654 140.184C684.654 138.854 685.648 137.468 687.608 137.468C688.378 137.468 688.966 137.72 689.414 138.098V137.58H691.542V138.364ZM687.594 142.144C688.91 142.144 689.568 141.234 689.568 140.184C689.568 139.148 688.91 138.28 687.594 138.28C686.264 138.28 685.592 139.162 685.592 140.184C685.592 141.22 686.264 142.144 687.594 142.144ZM694.237 136.544V137.58H696.309V138.364H694.237V145H693.285V138.364H691.885V137.58H693.285V136.544C693.285 135.256 694.125 134.528 695.273 134.528C695.805 134.528 696.421 134.738 696.771 135.298L696.197 135.872C695.973 135.536 695.637 135.34 695.245 135.34C694.755 135.34 694.237 135.634 694.237 136.544ZM700.417 137.468C701.383 137.468 702.083 138.112 702.083 139.372V140.1L701.215 140.268V139.54C701.215 138.798 700.963 138.308 700.207 138.308C699.353 138.308 698.709 138.938 698.709 140.436V145H697.757V137.58H698.709V138.504C699.101 137.804 699.759 137.468 700.417 137.468ZM704.44 136.236C703.978 136.236 703.6 135.872 703.6 135.396C703.6 134.92 703.978 134.556 704.44 134.556C704.902 134.556 705.28 134.92 705.28 135.396C705.28 135.872 704.902 136.236 704.44 136.236ZM703.964 145V137.58H704.916V145H703.964ZM708.811 143.152C708.811 144.02 709.329 144.272 709.791 144.272C710.239 144.272 710.533 144.104 710.883 143.74L711.387 144.3C710.897 144.874 710.365 145.112 709.707 145.112C708.699 145.112 707.859 144.44 707.859 143.124V138.364H706.459V137.58H707.859V135.984L708.811 135.424V137.58H711.219V138.364H708.811V143.152ZM714.225 143.152C714.225 144.02 714.743 144.272 715.205 144.272C715.653 144.272 715.947 144.104 716.297 143.74L716.801 144.3C716.311 144.874 715.779 145.112 715.121 145.112C714.113 145.112 713.273 144.44 713.273 143.124V138.364H711.873V137.58H713.273V135.984L714.225 135.424V137.58H716.633V138.364H714.225V143.152Z" fill="#2A2859"/>
<rect x="515" y="163" width="356" height="46" fill="white"/>
<path d="M540.08 184.872V185.916H536.3V189.732H535.22V185.916H531.44V184.872H535.22V181.056H536.3V184.872H540.08ZM556.375 187.356V188.472H554.071V192H552.883V188.472H546.907V187.464L550.093 178.68H551.245L548.149 187.356H552.883V183.396L554.071 183.036V187.356H556.375ZM558.545 178.68H567.833V179.724L561.497 192H560.129L566.537 179.796H559.697V182.64H558.545V178.68Z" fill="#2A2859"/>
<path d="M576 172V200H578V172H576Z" fill="#2A2859" mask="url(#path-21-inside-4_5495_170639)"/>
<path d="M591.57 190.956H594.522V192H587.25V190.956H590.346V180.084L587.43 182.1V180.768L590.418 178.68H591.57V190.956ZM599.59 190.848H606.61V192H597.898V191.064L602.686 185.736C604.108 184.17 604.702 183.306 604.702 182.1C604.702 180.75 603.802 179.652 602.038 179.652C600.67 179.652 599.5 180.264 598.906 181.938L597.79 181.56C598.654 179.364 600.202 178.536 602.092 178.536C604.666 178.536 605.962 180.3 605.962 181.992C605.962 183.468 605.404 184.458 603.532 186.528L599.59 190.848ZM615.439 184.962C616.771 185.412 617.815 186.528 617.815 188.256C617.815 190.398 616.033 192.144 613.189 192.144C611.479 192.144 609.823 191.496 608.563 189.696L609.499 188.94C610.489 190.38 611.623 191.028 613.297 191.028C615.349 191.028 616.591 189.786 616.591 188.256C616.591 187.158 616.141 186.51 615.493 186.114C614.971 185.808 614.503 185.664 613.639 185.664H611.857V184.584H613.225C614.305 184.584 614.719 184.422 615.205 184.044C615.745 183.612 616.069 182.928 616.069 182.1C616.069 180.624 614.953 179.652 613.153 179.652C611.749 179.652 610.561 180.3 609.913 182.01L608.833 181.632C609.751 179.436 611.317 178.536 613.225 178.536C615.925 178.536 617.257 180.318 617.257 182.064C617.257 183.36 616.501 184.44 615.439 184.962ZM634.002 187.356V188.472H631.698V192H630.51V188.472H624.534V187.464L627.72 178.68H628.872L625.776 187.356H630.51V183.396L631.698 183.036V187.356H634.002ZM640.816 183.432C643.282 183.432 645.028 185.178 645.028 187.572C645.028 190.146 643.138 192.144 640.168 192.144C638.512 192.144 636.856 191.496 635.596 189.696L636.532 188.94C637.522 190.38 638.71 191.028 640.312 191.028C642.382 191.028 643.804 189.516 643.804 187.644C643.804 185.772 642.562 184.548 640.708 184.548C639.412 184.548 638.584 184.944 637.414 186.042L636.424 185.664L636.874 178.68H644.02V179.832H637.936L637.576 184.692C638.44 183.882 639.592 183.432 640.816 183.432ZM656.391 192.144C653.331 192.144 651.567 189.606 651.567 185.268C651.567 181.434 653.457 178.536 656.859 178.536C658.713 178.536 659.991 179.472 660.585 180.93L659.487 181.47C659.019 180.354 657.975 179.652 656.787 179.652C654.141 179.652 652.449 182.082 652.791 186.348C653.403 184.494 654.987 183.558 656.589 183.558C658.641 183.558 660.747 185.142 660.747 187.788C660.747 189.93 659.307 192.144 656.391 192.144ZM653.331 187.824C653.331 189.894 654.771 191.028 656.463 191.028C658.155 191.028 659.523 189.912 659.523 187.824C659.523 186.06 658.191 184.71 656.427 184.71C654.825 184.71 653.331 185.754 653.331 187.824ZM663.205 178.68H672.493V179.724L666.157 192H664.789L671.197 179.796H664.357V182.64H663.205V178.68ZM678.767 192.144C675.995 192.144 674.087 190.524 674.087 188.4C674.087 186.816 675.203 185.556 676.787 185.124C675.347 184.584 674.627 183.288 674.627 182.1C674.627 180.03 676.391 178.536 678.767 178.536C681.143 178.536 682.907 180.03 682.907 182.1C682.907 183.288 682.187 184.584 680.747 185.124C682.331 185.556 683.447 186.816 683.447 188.4C683.447 190.524 681.539 192.144 678.767 192.144ZM678.767 184.584C680.423 184.584 681.719 183.756 681.719 182.172C681.719 180.354 680.261 179.58 678.767 179.58C677.273 179.58 675.815 180.336 675.815 182.172C675.815 183.756 677.111 184.584 678.767 184.584ZM678.767 191.028C680.783 191.028 682.259 190.128 682.259 188.256C682.259 186.51 680.747 185.664 678.767 185.664C676.787 185.664 675.275 186.51 675.275 188.256C675.275 190.146 676.751 191.028 678.767 191.028Z" fill="#2A2859"/>
<rect x="515" y="163" width="356" height="46" stroke="#2A2859" stroke-width="2"/>
</g>
<defs>
<clipPath id="clip0_5495_170639">
<rect width="922" height="301" fill="white"/>
</clipPath>
</defs>
</svg>
