<svg width="1062" height="279" viewBox="0 0 1062 279" fill="none" xmlns="http://www.w3.org/2000/svg">
<rect width="1062" height="279" fill="white"/>
<path d="M112.936 102L111.928 98.76H106.78L105.736 102H103.522L108.148 88.68H110.686L115.294 102H112.936ZM107.374 96.906H111.334L109.372 90.624L107.374 96.906ZM122.882 88.68H124.898V102H122.882V100.272C122.144 101.604 120.992 102.144 119.894 102.144C117.59 102.144 115.934 100.164 115.934 97.266C115.934 94.26 117.608 92.262 120.128 92.262C121.208 92.262 122.288 92.748 122.882 93.918V88.68ZM120.434 100.38C121.892 100.38 122.882 99.39 122.882 97.158C122.882 94.944 121.91 93.882 120.434 93.882C119.048 93.882 118.022 94.998 118.022 97.158C118.022 99.3 119.048 100.38 120.434 100.38ZM131.916 92.244C133.302 92.244 134.202 93.162 134.202 94.8V96.06L132.582 96.348V95.376C132.582 94.512 132.276 93.918 131.34 93.918C130.314 93.918 129.558 94.602 129.558 96.42V102H127.542V92.46H129.558V93.738C130.098 92.676 131.088 92.244 131.916 92.244ZM142.332 98.994L143.7 99.786C143.16 100.974 141.9 102.162 139.722 102.162C136.896 102.162 135.186 100.074 135.186 97.14C135.186 94.242 137.04 92.244 139.578 92.244C141.828 92.244 143.682 93.756 143.682 96.456L143.646 97.644H137.166C137.274 99.66 138.264 100.524 139.848 100.524C141.018 100.524 141.828 99.894 142.332 98.994ZM139.578 93.828C138.354 93.828 137.328 94.476 137.166 96.204H141.72C141.738 94.512 140.694 93.828 139.578 93.828ZM145.465 95.088C145.465 93.468 146.959 92.244 149.209 92.244C151.063 92.244 152.305 92.91 152.971 94.188L151.567 95.052C151.135 94.314 150.271 93.864 149.191 93.864C148.111 93.864 147.373 94.278 147.373 94.962C147.373 95.52 147.751 95.862 148.597 96.024L150.199 96.348C152.215 96.744 153.223 97.698 153.223 99.156C153.223 100.956 151.657 102.162 149.299 102.162C147.301 102.162 145.879 101.406 145.141 100.02L146.545 99.138C147.067 100.02 147.985 100.524 149.245 100.524C150.469 100.524 151.297 100.038 151.297 99.246C151.297 98.598 150.901 98.238 150.019 98.058L148.255 97.716C146.455 97.374 145.465 96.456 145.465 95.088ZM154.792 95.088C154.792 93.468 156.286 92.244 158.536 92.244C160.39 92.244 161.632 92.91 162.298 94.188L160.894 95.052C160.462 94.314 159.598 93.864 158.518 93.864C157.438 93.864 156.7 94.278 156.7 94.962C156.7 95.52 157.078 95.862 157.924 96.024L159.526 96.348C161.542 96.744 162.55 97.698 162.55 99.156C162.55 100.956 160.984 102.162 158.626 102.162C156.628 102.162 155.206 101.406 154.468 100.02L155.872 99.138C156.394 100.02 157.312 100.524 158.572 100.524C159.796 100.524 160.624 100.038 160.624 99.246C160.624 98.598 160.228 98.238 159.346 98.058L157.582 97.716C155.782 97.374 154.792 96.456 154.792 95.088ZM170.982 98.994L172.35 99.786C171.81 100.974 170.55 102.162 168.372 102.162C165.546 102.162 163.836 100.074 163.836 97.14C163.836 94.242 165.69 92.244 168.228 92.244C170.478 92.244 172.332 93.756 172.332 96.456L172.296 97.644H165.816C165.924 99.66 166.914 100.524 168.498 100.524C169.668 100.524 170.478 99.894 170.982 98.994ZM168.228 93.828C167.004 93.828 165.978 94.476 165.816 96.204H170.37C170.388 94.512 169.344 93.828 168.228 93.828Z" fill="#2A2859"/>
<rect width="62" height="22" transform="translate(184 85)" fill="#E5FCFF"/>
<path d="M195.924 90.64H196.96L193.166 101H192.186L188.42 90.64H189.484L192.69 99.866L195.924 90.64ZM202.992 101H202.124C202.012 100.594 201.928 100.104 201.928 99.544C201.55 100.412 200.584 101.112 199.38 101.112C198.064 101.112 197.07 100.258 197.07 98.984C197.07 97.458 198.442 96.66 199.968 96.66C200.57 96.66 201.158 96.73 201.76 96.94V95.96C201.76 94.994 201.172 94.336 200.024 94.336C199.1 94.336 198.316 94.742 197.924 95.876L197.084 95.624C197.644 94.056 198.778 93.468 200.08 93.468C201.914 93.468 202.684 94.574 202.684 95.848V98.9C202.684 99.74 202.824 100.496 202.992 101ZM201.76 97.92V97.752C201.186 97.514 200.598 97.444 200.024 97.444C198.904 97.444 198.022 97.948 198.022 98.928C198.022 99.824 198.652 100.3 199.548 100.3C200.514 100.3 201.76 99.726 201.76 97.92ZM207.415 100.972C207.191 101.028 207.009 101.056 206.799 101.056C205.637 101.056 205.091 100.328 205.091 99.236V90.64H206.043V99.236C206.043 99.866 206.379 100.188 206.967 100.188C207.121 100.188 207.275 100.174 207.415 100.132V100.972ZM215.542 94.364H213.946V94.63C214.31 95.078 214.506 95.638 214.506 96.184C214.506 97.542 213.526 98.928 211.44 98.928H211.118C210.278 98.928 209.676 99.25 209.676 99.74C209.676 100.118 209.97 100.384 210.586 100.384H213.596C214.8 100.384 215.416 100.972 215.416 101.896C215.416 103.366 213.722 104.136 211.636 104.136C209.76 104.136 208.458 103.534 208.01 102.232L208.78 101.882C209.298 103.1 210.39 103.338 211.636 103.338C213.176 103.338 214.464 102.876 214.464 101.98C214.464 101.56 214.24 101.252 213.568 101.252H210.376C209.34 101.252 208.724 100.762 208.724 99.992C208.724 99.334 209.27 98.76 210.18 98.522C209.2 98.13 208.654 97.094 208.654 96.184C208.654 94.854 209.648 93.468 211.608 93.468C212.378 93.468 212.966 93.72 213.414 94.098V93.58H215.542V94.364ZM211.594 98.144C212.91 98.144 213.568 97.234 213.568 96.184C213.568 95.148 212.91 94.28 211.594 94.28C210.264 94.28 209.592 95.162 209.592 96.184C209.592 97.22 210.264 98.144 211.594 98.144ZM218.237 92.544V93.58H220.309V94.364H218.237V101H217.285V94.364H215.885V93.58H217.285V92.544C217.285 91.256 218.125 90.528 219.273 90.528C219.805 90.528 220.421 90.738 220.771 91.298L220.197 91.872C219.973 91.536 219.637 91.34 219.245 91.34C218.755 91.34 218.237 91.634 218.237 92.544ZM224.417 93.468C225.383 93.468 226.083 94.112 226.083 95.372V96.1L225.215 96.268V95.54C225.215 94.798 224.963 94.308 224.207 94.308C223.353 94.308 222.709 94.938 222.709 96.436V101H221.757V93.58H222.709V94.504C223.101 93.804 223.759 93.468 224.417 93.468ZM228.44 92.236C227.978 92.236 227.6 91.872 227.6 91.396C227.6 90.92 227.978 90.556 228.44 90.556C228.902 90.556 229.28 90.92 229.28 91.396C229.28 91.872 228.902 92.236 228.44 92.236ZM227.964 101V93.58H228.916V101H227.964ZM232.811 99.152C232.811 100.02 233.329 100.272 233.791 100.272C234.239 100.272 234.533 100.104 234.883 99.74L235.387 100.3C234.897 100.874 234.365 101.112 233.707 101.112C232.699 101.112 231.859 100.44 231.859 99.124V94.364H230.459V93.58H231.859V91.984L232.811 91.424V93.58H235.219V94.364H232.811V99.152ZM238.225 99.152C238.225 100.02 238.743 100.272 239.205 100.272C239.653 100.272 239.947 100.104 240.297 99.74L240.801 100.3C240.311 100.874 239.779 101.112 239.121 101.112C238.113 101.112 237.273 100.44 237.273 99.124V94.364H235.873V93.58H237.273V91.984L238.225 91.424V93.58H240.633V94.364H238.225V99.152Z" fill="#2A2859"/>
<path d="M104.232 134V123.64H107.62C110.182 123.64 112.156 125.642 112.156 128.764C112.156 131.886 110.182 134 107.62 134H104.232ZM105.212 133.104H107.424C109.58 133.104 111.148 131.648 111.148 128.764C111.148 125.908 109.566 124.536 107.396 124.536H105.212V133.104ZM114.537 125.236C114.075 125.236 113.697 124.872 113.697 124.396C113.697 123.92 114.075 123.556 114.537 123.556C114.999 123.556 115.377 123.92 115.377 124.396C115.377 124.872 114.999 125.236 114.537 125.236ZM114.061 134V126.58H115.013V134H114.061ZM120.533 126.468C122.017 126.468 122.885 127.378 122.885 129.044V134H121.933V129.184C121.933 127.84 121.317 127.336 120.281 127.336C118.979 127.336 118.377 128.344 118.377 129.828V134H117.425V126.58H118.377V127.728C118.825 126.916 119.637 126.468 120.533 126.468ZM130.243 125.544V126.58H132.315V127.364H130.243V134H129.291V127.364H127.891V126.58H129.291V125.544C129.291 124.256 130.131 123.528 131.279 123.528C131.811 123.528 132.427 123.738 132.777 124.298L132.203 124.872C131.979 124.536 131.643 124.34 131.251 124.34C130.761 124.34 130.243 124.634 130.243 125.544ZM136.167 134.112C134.333 134.112 132.863 132.6 132.863 130.276C132.863 127.98 134.319 126.468 136.167 126.468C138.015 126.468 139.471 127.98 139.471 130.276C139.471 132.6 138.001 134.112 136.167 134.112ZM136.167 133.272C137.441 133.272 138.491 132.264 138.491 130.276C138.491 128.302 137.427 127.308 136.167 127.308C134.907 127.308 133.843 128.302 133.843 130.276C133.843 132.264 134.893 133.272 136.167 133.272ZM143.729 133.972C143.505 134.028 143.323 134.056 143.113 134.056C141.951 134.056 141.405 133.328 141.405 132.236V123.64H142.357V132.236C142.357 132.866 142.693 133.188 143.281 133.188C143.435 133.188 143.589 133.174 143.729 133.132V133.972ZM150.086 134L147.356 130.318L146.446 131.186V134H145.494V123.64H146.446V130.066L149.974 126.58H151.234L148 129.688L151.29 134H150.086ZM157.397 131.9L158.097 132.292C157.747 133.188 156.823 134.112 155.171 134.112C153.085 134.112 151.853 132.558 151.853 130.192C151.853 128.022 153.141 126.468 155.073 126.468C156.669 126.468 158.041 127.616 158.041 129.632L158.013 130.458H152.819C152.903 132.432 153.841 133.272 155.269 133.272C156.389 133.272 157.047 132.628 157.397 131.9ZM155.073 127.308C153.953 127.308 152.945 127.91 152.819 129.674H157.103C157.145 128.008 156.165 127.308 155.073 127.308ZM162.714 126.468C163.68 126.468 164.38 127.112 164.38 128.372V129.1L163.512 129.268V128.54C163.512 127.798 163.26 127.308 162.504 127.308C161.65 127.308 161.006 127.938 161.006 129.436V134H160.054V126.58H161.006V127.504C161.398 126.804 162.056 126.468 162.714 126.468ZM170.905 131.9L171.605 132.292C171.255 133.188 170.331 134.112 168.679 134.112C166.593 134.112 165.361 132.558 165.361 130.192C165.361 128.022 166.649 126.468 168.581 126.468C170.177 126.468 171.549 127.616 171.549 129.632L171.521 130.458H166.327C166.411 132.432 167.349 133.272 168.777 133.272C169.897 133.272 170.555 132.628 170.905 131.9ZM168.581 127.308C167.461 127.308 166.453 127.91 166.327 129.674H170.611C170.653 128.008 169.673 127.308 168.581 127.308ZM180.089 127.364H178.493V127.63C178.857 128.078 179.053 128.638 179.053 129.184C179.053 130.542 178.073 131.928 175.987 131.928H175.665C174.825 131.928 174.223 132.25 174.223 132.74C174.223 133.118 174.517 133.384 175.133 133.384H178.143C179.347 133.384 179.963 133.972 179.963 134.896C179.963 136.366 178.269 137.136 176.183 137.136C174.307 137.136 173.005 136.534 172.557 135.232L173.327 134.882C173.845 136.1 174.937 136.338 176.183 136.338C177.723 136.338 179.011 135.876 179.011 134.98C179.011 134.56 178.787 134.252 178.115 134.252H174.923C173.887 134.252 173.271 133.762 173.271 132.992C173.271 132.334 173.817 131.76 174.727 131.522C173.747 131.13 173.201 130.094 173.201 129.184C173.201 127.854 174.195 126.468 176.155 126.468C176.925 126.468 177.513 126.72 177.961 127.098V126.58H180.089V127.364ZM176.141 131.144C177.457 131.144 178.115 130.234 178.115 129.184C178.115 128.148 177.457 127.28 176.141 127.28C174.811 127.28 174.139 128.162 174.139 129.184C174.139 130.22 174.811 131.144 176.141 131.144ZM181.321 123.696H182.777V125.124H181.321V123.696ZM181.573 134V126.58H182.525V134H181.573ZM184.572 128.512C184.572 127.336 185.678 126.468 187.232 126.468C188.576 126.468 189.612 127.112 189.92 128.092L189.136 128.4C188.842 127.686 188.156 127.308 187.204 127.308C186.168 127.308 185.496 127.742 185.496 128.428C185.496 129.044 185.902 129.422 186.784 129.604L187.764 129.8C189.388 130.122 190.144 130.822 190.144 131.928C190.144 133.216 188.996 134.112 187.344 134.112C185.846 134.112 184.796 133.524 184.292 132.404L185.104 132.068C185.454 132.852 186.224 133.272 187.316 133.272C188.464 133.272 189.22 132.768 189.22 132.012C189.22 131.312 188.828 130.934 187.848 130.724L186.644 130.472C185.286 130.192 184.572 129.506 184.572 128.512ZM193.366 132.152C193.366 133.02 193.884 133.272 194.346 133.272C194.794 133.272 195.088 133.104 195.438 132.74L195.942 133.3C195.452 133.874 194.92 134.112 194.262 134.112C193.254 134.112 192.414 133.44 192.414 132.124V127.364H191.014V126.58H192.414V124.984L193.366 124.424V126.58H195.774V127.364H193.366V132.152ZM200.229 126.468C201.195 126.468 201.895 127.112 201.895 128.372V129.1L201.027 129.268V128.54C201.027 127.798 200.775 127.308 200.019 127.308C199.165 127.308 198.521 127.938 198.521 129.436V134H197.569V126.58H198.521V127.504C198.913 126.804 199.571 126.468 200.229 126.468ZM208.42 131.9L209.12 132.292C208.77 133.188 207.846 134.112 206.194 134.112C204.108 134.112 202.876 132.558 202.876 130.192C202.876 128.022 204.164 126.468 206.096 126.468C207.692 126.468 209.064 127.616 209.064 129.632L209.036 130.458H203.842C203.926 132.432 204.864 133.272 206.292 133.272C207.412 133.272 208.07 132.628 208.42 131.9ZM206.096 127.308C204.976 127.308 203.968 127.91 203.842 129.674H208.126C208.168 128.008 207.188 127.308 206.096 127.308ZM213.737 126.468C214.703 126.468 215.403 127.112 215.403 128.372V129.1L214.535 129.268V128.54C214.535 127.798 214.283 127.308 213.527 127.308C212.673 127.308 212.029 127.938 212.029 129.436V134H211.077V126.58H212.029V127.504C212.421 126.804 213.079 126.468 213.737 126.468ZM218.631 132.152C218.631 133.02 219.149 133.272 219.611 133.272C220.059 133.272 220.353 133.104 220.703 132.74L221.207 133.3C220.717 133.874 220.185 134.112 219.527 134.112C218.519 134.112 217.679 133.44 217.679 132.124V127.364H216.279V126.58H217.679V124.984L218.631 124.424V126.58H221.039V127.364H218.631V132.152ZM227.479 131.9L228.179 132.292C227.829 133.188 226.905 134.112 225.253 134.112C223.167 134.112 221.935 132.558 221.935 130.192C221.935 128.022 223.223 126.468 225.155 126.468C226.751 126.468 228.123 127.616 228.123 129.632L228.095 130.458H222.901C222.985 132.432 223.923 133.272 225.351 133.272C226.471 133.272 227.129 132.628 227.479 131.9ZM225.155 127.308C224.035 127.308 223.027 127.91 222.901 129.674H227.185C227.227 128.008 226.247 127.308 225.155 127.308ZM239.248 134H238.38C238.268 133.594 238.184 133.104 238.184 132.544C237.806 133.412 236.84 134.112 235.636 134.112C234.32 134.112 233.326 133.258 233.326 131.984C233.326 130.458 234.698 129.66 236.224 129.66C236.826 129.66 237.414 129.73 238.016 129.94V128.96C238.016 127.994 237.428 127.336 236.28 127.336C235.356 127.336 234.572 127.742 234.18 128.876L233.34 128.624C233.9 127.056 235.034 126.468 236.336 126.468C238.17 126.468 238.94 127.574 238.94 128.848V131.9C238.94 132.74 239.08 133.496 239.248 134ZM238.016 130.92V130.752C237.442 130.514 236.854 130.444 236.28 130.444C235.16 130.444 234.278 130.948 234.278 131.928C234.278 132.824 234.908 133.3 235.804 133.3C236.77 133.3 238.016 132.726 238.016 130.92ZM246.334 123.64H247.286V134H246.334V132.614C245.844 133.566 244.864 134.098 243.898 134.098C242.008 134.098 240.734 132.516 240.734 130.36C240.734 128.078 242.022 126.468 244.01 126.468C245.046 126.468 245.886 126.986 246.334 127.924V123.64ZM243.996 133.258C245.48 133.258 246.334 132.152 246.334 130.332C246.334 128.4 245.494 127.308 244.01 127.308C242.624 127.308 241.714 128.372 241.714 130.318C241.714 132.194 242.624 133.258 243.996 133.258ZM252.292 126.468C253.258 126.468 253.958 127.112 253.958 128.372V129.1L253.09 129.268V128.54C253.09 127.798 252.838 127.308 252.082 127.308C251.228 127.308 250.584 127.938 250.584 129.436V134H249.632V126.58H250.584V127.504C250.976 126.804 251.634 126.468 252.292 126.468ZM260.483 131.9L261.183 132.292C260.833 133.188 259.909 134.112 258.257 134.112C256.171 134.112 254.939 132.558 254.939 130.192C254.939 128.022 256.227 126.468 258.159 126.468C259.755 126.468 261.127 127.616 261.127 129.632L261.099 130.458H255.905C255.989 132.432 256.927 133.272 258.355 133.272C259.475 133.272 260.133 132.628 260.483 131.9ZM258.159 127.308C257.039 127.308 256.031 127.91 255.905 129.674H260.189C260.231 128.008 259.251 127.308 258.159 127.308ZM262.776 128.512C262.776 127.336 263.882 126.468 265.436 126.468C266.78 126.468 267.816 127.112 268.124 128.092L267.34 128.4C267.046 127.686 266.36 127.308 265.408 127.308C264.372 127.308 263.7 127.742 263.7 128.428C263.7 129.044 264.106 129.422 264.988 129.604L265.968 129.8C267.592 130.122 268.348 130.822 268.348 131.928C268.348 133.216 267.2 134.112 265.548 134.112C264.05 134.112 263 133.524 262.496 132.404L263.308 132.068C263.658 132.852 264.428 133.272 265.52 133.272C266.668 133.272 267.424 132.768 267.424 132.012C267.424 131.312 267.032 130.934 266.052 130.724L264.848 130.472C263.49 130.192 262.776 129.506 262.776 128.512ZM269.858 128.512C269.858 127.336 270.964 126.468 272.518 126.468C273.862 126.468 274.898 127.112 275.206 128.092L274.422 128.4C274.128 127.686 273.442 127.308 272.49 127.308C271.454 127.308 270.782 127.742 270.782 128.428C270.782 129.044 271.188 129.422 272.07 129.604L273.05 129.8C274.674 130.122 275.43 130.822 275.43 131.928C275.43 133.216 274.282 134.112 272.63 134.112C271.132 134.112 270.082 133.524 269.578 132.404L270.39 132.068C270.74 132.852 271.51 133.272 272.602 133.272C273.75 133.272 274.506 132.768 274.506 132.012C274.506 131.312 274.114 130.934 273.134 130.724L271.93 130.472C270.572 130.192 269.858 129.506 269.858 128.512ZM282.372 131.9L283.072 132.292C282.722 133.188 281.798 134.112 280.146 134.112C278.06 134.112 276.828 132.558 276.828 130.192C276.828 128.022 278.116 126.468 280.048 126.468C281.644 126.468 283.016 127.616 283.016 129.632L282.988 130.458H277.794C277.878 132.432 278.816 133.272 280.244 133.272C281.364 133.272 282.022 132.628 282.372 131.9ZM280.048 127.308C278.928 127.308 277.92 127.91 277.794 129.674H282.078C282.12 128.008 281.14 127.308 280.048 127.308Z" fill="#2A2859"/>
<rect x="104" y="149" width="398" height="46" fill="white"/>
<rect x="104" y="149" width="398" height="46" stroke="#2A2859" stroke-width="2"/>
<path d="M562.672 100.056H569.152V102H560.566V88.68H569.044V90.624H562.672V94.35H567.586V96.294H562.672V100.056ZM570.13 94.746H574.45V96.654H570.13V94.746ZM581.867 92.262C584.171 92.262 585.827 94.224 585.827 97.14C585.827 100.128 584.153 102.144 581.633 102.144C580.553 102.144 579.491 101.676 578.879 100.506V105.78H576.863V92.46H578.879V94.134C579.617 92.802 580.769 92.262 581.867 92.262ZM581.327 100.488C582.713 100.488 583.739 99.372 583.739 97.23C583.739 95.088 582.713 93.99 581.327 93.99C579.851 93.99 578.879 94.998 578.879 97.212C578.879 99.426 579.851 100.488 581.327 100.488ZM591.872 102.18C589.388 102.18 587.354 100.236 587.354 97.176C587.354 94.188 589.37 92.244 591.872 92.244C594.374 92.244 596.39 94.188 596.39 97.176C596.39 100.236 594.356 102.18 591.872 102.18ZM591.872 100.47C593.222 100.47 594.32 99.426 594.32 97.176C594.32 94.908 593.204 93.954 591.872 93.954C590.54 93.954 589.424 94.908 589.424 97.176C589.424 99.426 590.54 100.47 591.872 100.47ZM598.002 95.088C598.002 93.468 599.496 92.244 601.746 92.244C603.6 92.244 604.842 92.91 605.508 94.188L604.104 95.052C603.672 94.314 602.808 93.864 601.728 93.864C600.648 93.864 599.91 94.278 599.91 94.962C599.91 95.52 600.288 95.862 601.134 96.024L602.736 96.348C604.752 96.744 605.76 97.698 605.76 99.156C605.76 100.956 604.194 102.162 601.836 102.162C599.838 102.162 598.416 101.406 597.678 100.02L599.082 99.138C599.604 100.02 600.522 100.524 601.782 100.524C603.006 100.524 603.834 100.038 603.834 99.246C603.834 98.598 603.438 98.238 602.556 98.058L600.792 97.716C598.992 97.374 598.002 96.456 598.002 95.088ZM610.357 99.048C610.357 100.11 611.005 100.434 611.671 100.434C612.193 100.434 612.607 100.218 613.021 99.804L613.885 101.1C613.165 101.82 612.373 102.162 611.347 102.162C609.691 102.162 608.341 101.154 608.341 99.174V94.026H606.667V92.46H608.341V90.336L610.357 89.418V92.46H613.723V94.026H610.357V99.048Z" fill="#2A2859"/>
<rect width="83" height="22" transform="translate(625 85)" fill="#F8F0DD"/>
<path d="M638.324 90.64H639.276V101H638.296V92.362L634.964 97.542H634.544L631.212 92.362V101H630.232V90.64H631.184L634.754 96.184L638.324 90.64ZM644.362 92.796C643.452 92.796 642.71 92.124 642.71 91.2C642.71 90.276 643.452 89.604 644.362 89.604C645.272 89.604 646.014 90.276 646.014 91.2C646.014 92.124 645.272 92.796 644.362 92.796ZM644.362 90.248C643.83 90.248 643.41 90.584 643.41 91.2C643.41 91.83 643.83 92.152 644.362 92.152C644.894 92.152 645.314 91.83 645.314 91.2C645.314 90.584 644.894 90.248 644.362 90.248ZM647.246 101H646.378C646.266 100.594 646.182 100.104 646.182 99.544C645.804 100.412 644.838 101.112 643.634 101.112C642.318 101.112 641.324 100.258 641.324 98.984C641.324 97.458 642.696 96.66 644.222 96.66C644.824 96.66 645.412 96.73 646.014 96.94V95.96C646.014 94.994 645.426 94.336 644.278 94.336C643.354 94.336 642.57 94.742 642.178 95.876L641.338 95.624C641.898 94.056 643.032 93.468 644.334 93.468C646.168 93.468 646.938 94.574 646.938 95.848V98.9C646.938 99.74 647.078 100.496 647.246 101ZM646.014 97.92V97.752C645.44 97.514 644.852 97.444 644.278 97.444C643.158 97.444 642.276 97.948 642.276 98.928C642.276 99.824 642.906 100.3 643.802 100.3C644.768 100.3 646.014 99.726 646.014 97.92ZM654.411 92.544V93.58H656.483V94.364H654.411V101H653.459V94.364H652.059V93.58H653.459V92.544C653.459 91.256 654.299 90.528 655.447 90.528C655.979 90.528 656.595 90.738 656.945 91.298L656.371 91.872C656.147 91.536 655.811 91.34 655.419 91.34C654.929 91.34 654.411 91.634 654.411 92.544ZM662.421 93.58H663.401L660.139 102.022C659.649 103.282 659.103 104.08 657.955 104.08C657.451 104.08 656.989 103.898 656.639 103.576L657.059 102.89C657.339 103.142 657.605 103.254 657.927 103.254C658.445 103.254 658.809 103.03 659.173 102.176L659.607 101.126L656.821 93.58H657.857L660.097 100.006L662.421 93.58ZM667.132 100.972C666.908 101.028 666.726 101.056 666.516 101.056C665.354 101.056 664.808 100.328 664.808 99.236V90.64H665.76V99.236C665.76 99.866 666.096 100.188 666.684 100.188C666.838 100.188 666.992 100.174 667.132 100.132V100.972ZM671.192 100.972C670.968 101.028 670.786 101.056 670.576 101.056C669.414 101.056 668.868 100.328 668.868 99.236V90.64H669.82V99.236C669.82 99.866 670.156 100.188 670.744 100.188C670.898 100.188 671.052 100.174 671.192 100.132V100.972ZM677.778 98.9L678.478 99.292C678.128 100.188 677.204 101.112 675.552 101.112C673.466 101.112 672.234 99.558 672.234 97.192C672.234 95.022 673.522 93.468 675.454 93.468C677.05 93.468 678.422 94.616 678.422 96.632L678.394 97.458H673.2C673.284 99.432 674.222 100.272 675.65 100.272C676.77 100.272 677.428 99.628 677.778 98.9ZM675.454 94.308C674.334 94.308 673.326 94.91 673.2 96.674H677.484C677.526 95.008 676.546 94.308 675.454 94.308ZM680.07 95.512C680.07 94.336 681.176 93.468 682.73 93.468C684.074 93.468 685.11 94.112 685.418 95.092L684.634 95.4C684.34 94.686 683.654 94.308 682.702 94.308C681.666 94.308 680.994 94.742 680.994 95.428C680.994 96.044 681.4 96.422 682.282 96.604L683.262 96.8C684.886 97.122 685.642 97.822 685.642 98.928C685.642 100.216 684.494 101.112 682.842 101.112C681.344 101.112 680.294 100.524 679.79 99.404L680.602 99.068C680.952 99.852 681.722 100.272 682.814 100.272C683.962 100.272 684.718 99.768 684.718 99.012C684.718 98.312 684.326 97.934 683.346 97.724L682.142 97.472C680.784 97.192 680.07 96.506 680.07 95.512ZM695.411 93.58H696.363V101H695.411V99.866C694.963 100.664 694.179 101.112 693.269 101.112C691.813 101.112 690.931 100.174 690.931 98.564V93.58H691.883V98.48C691.883 99.698 692.499 100.258 693.535 100.258C694.851 100.258 695.411 99.208 695.411 97.752V93.58ZM700.198 99.152C700.198 100.02 700.716 100.272 701.178 100.272C701.626 100.272 701.92 100.104 702.27 99.74L702.774 100.3C702.284 100.874 701.752 101.112 701.094 101.112C700.086 101.112 699.246 100.44 699.246 99.124V94.364H697.846V93.58H699.246V91.984L700.198 91.424V93.58H702.606V94.364H700.198V99.152Z" fill="#2A2859"/>
<path d="M566.924 123.64H567.96L564.166 134H563.186L559.42 123.64H560.484L563.69 132.866L566.924 123.64ZM569.785 125.236C569.323 125.236 568.945 124.872 568.945 124.396C568.945 123.92 569.323 123.556 569.785 123.556C570.247 123.556 570.625 123.92 570.625 124.396C570.625 124.872 570.247 125.236 569.785 125.236ZM569.309 134V126.58H570.261V134H569.309ZM575.891 128.512C575.891 127.336 576.997 126.468 578.551 126.468C579.895 126.468 580.931 127.112 581.239 128.092L580.455 128.4C580.161 127.686 579.475 127.308 578.523 127.308C577.487 127.308 576.815 127.742 576.815 128.428C576.815 129.044 577.221 129.422 578.103 129.604L579.083 129.8C580.707 130.122 581.463 130.822 581.463 131.928C581.463 133.216 580.315 134.112 578.663 134.112C577.165 134.112 576.115 133.524 575.611 132.404L576.423 132.068C576.773 132.852 577.543 133.272 578.635 133.272C579.783 133.272 580.539 132.768 580.539 132.012C580.539 131.312 580.147 130.934 579.167 130.724L577.963 130.472C576.605 130.192 575.891 129.506 575.891 128.512ZM588.405 131.9L589.105 132.292C588.755 133.188 587.831 134.112 586.179 134.112C584.093 134.112 582.861 132.558 582.861 130.192C582.861 128.022 584.149 126.468 586.081 126.468C587.677 126.468 589.049 127.616 589.049 129.632L589.021 130.458H583.827C583.911 132.432 584.849 133.272 586.277 133.272C587.397 133.272 588.055 132.628 588.405 131.9ZM586.081 127.308C584.961 127.308 583.953 127.91 583.827 129.674H588.111C588.153 128.008 587.173 127.308 586.081 127.308ZM594.169 126.468C595.653 126.468 596.521 127.378 596.521 129.044V134H595.569V129.184C595.569 127.84 594.953 127.336 593.917 127.336C592.615 127.336 592.013 128.344 592.013 129.828V134H591.061V126.58H592.013V127.728C592.461 126.916 593.273 126.468 594.169 126.468ZM603.937 123.64H604.889V134H603.937V132.614C603.447 133.566 602.467 134.098 601.501 134.098C599.611 134.098 598.337 132.516 598.337 130.36C598.337 128.078 599.625 126.468 601.613 126.468C602.649 126.468 603.489 126.986 603.937 127.924V123.64ZM601.599 133.258C603.083 133.258 603.937 132.152 603.937 130.332C603.937 128.4 603.097 127.308 601.613 127.308C600.227 127.308 599.317 128.372 599.317 130.318C599.317 132.194 600.227 133.258 601.599 133.258ZM612.303 131.9L613.003 132.292C612.653 133.188 611.729 134.112 610.077 134.112C607.991 134.112 606.759 132.558 606.759 130.192C606.759 128.022 608.047 126.468 609.979 126.468C611.575 126.468 612.947 127.616 612.947 129.632L612.919 130.458H607.725C607.809 132.432 608.747 133.272 610.175 133.272C611.295 133.272 611.953 132.628 612.303 131.9ZM609.979 127.308C608.859 127.308 607.851 127.91 607.725 129.674H612.009C612.051 128.008 611.071 127.308 609.979 127.308ZM617.62 126.468C618.586 126.468 619.286 127.112 619.286 128.372V129.1L618.418 129.268V128.54C618.418 127.798 618.166 127.308 617.41 127.308C616.556 127.308 615.912 127.938 615.912 129.436V134H614.96V126.58H615.912V127.504C616.304 126.804 616.962 126.468 617.62 126.468ZM629.873 123.64H630.825V134H629.873V132.614C629.383 133.566 628.403 134.098 627.437 134.098C625.547 134.098 624.273 132.516 624.273 130.36C624.273 128.078 625.561 126.468 627.549 126.468C628.585 126.468 629.425 126.986 629.873 127.924V123.64ZM627.535 133.258C629.019 133.258 629.873 132.152 629.873 130.332C629.873 128.4 629.033 127.308 627.549 127.308C626.163 127.308 625.253 128.372 625.253 130.318C625.253 132.194 626.163 133.258 627.535 133.258ZM638.239 131.9L638.939 132.292C638.589 133.188 637.665 134.112 636.013 134.112C633.927 134.112 632.695 132.558 632.695 130.192C632.695 128.022 633.983 126.468 635.915 126.468C637.511 126.468 638.883 127.616 638.883 129.632L638.855 130.458H633.661C633.745 132.432 634.683 133.272 636.111 133.272C637.231 133.272 637.889 132.628 638.239 131.9ZM635.915 127.308C634.795 127.308 633.787 127.91 633.661 129.674H637.945C637.987 128.008 637.007 127.308 635.915 127.308ZM647.423 127.364H645.827V127.63C646.191 128.078 646.387 128.638 646.387 129.184C646.387 130.542 645.407 131.928 643.321 131.928H642.999C642.159 131.928 641.557 132.25 641.557 132.74C641.557 133.118 641.851 133.384 642.467 133.384H645.477C646.681 133.384 647.297 133.972 647.297 134.896C647.297 136.366 645.603 137.136 643.517 137.136C641.641 137.136 640.339 136.534 639.891 135.232L640.661 134.882C641.179 136.1 642.271 136.338 643.517 136.338C645.057 136.338 646.345 135.876 646.345 134.98C646.345 134.56 646.121 134.252 645.449 134.252H642.257C641.221 134.252 640.605 133.762 640.605 132.992C640.605 132.334 641.151 131.76 642.061 131.522C641.081 131.13 640.535 130.094 640.535 129.184C640.535 127.854 641.529 126.468 643.489 126.468C644.259 126.468 644.847 126.72 645.295 127.098V126.58H647.423V127.364ZM643.475 131.144C644.791 131.144 645.449 130.234 645.449 129.184C645.449 128.148 644.791 127.28 643.475 127.28C642.145 127.28 641.473 128.162 641.473 129.184C641.473 130.22 642.145 131.144 643.475 131.144ZM657.109 134L654.379 130.318L653.469 131.186V134H652.517V123.64H653.469V130.066L656.997 126.58H658.257L655.023 129.688L658.313 134H657.109ZM664.084 126.58H665.064L662.152 134H661.312L658.4 126.58H659.436L661.76 132.95L664.084 126.58ZM666.265 123.696H667.721V125.124H666.265V123.696ZM666.517 134V126.58H667.469V134H666.517ZM671.364 132.152C671.364 133.02 671.882 133.272 672.344 133.272C672.792 133.272 673.086 133.104 673.436 132.74L673.94 133.3C673.45 133.874 672.918 134.112 672.26 134.112C671.252 134.112 670.412 133.44 670.412 132.124V127.364H669.012V126.58H670.412V124.984L671.364 124.424V126.58H673.772V127.364H671.364V132.152ZM676.778 132.152C676.778 133.02 677.296 133.272 677.758 133.272C678.206 133.272 678.5 133.104 678.85 132.74L679.354 133.3C678.864 133.874 678.332 134.112 677.674 134.112C676.666 134.112 675.826 133.44 675.826 132.124V127.364H674.426V126.58H675.826V124.984L676.778 124.424V126.58H679.186V127.364H676.778V132.152ZM685.626 131.9L686.326 132.292C685.976 133.188 685.052 134.112 683.4 134.112C681.314 134.112 680.082 132.558 680.082 130.192C680.082 128.022 681.37 126.468 683.302 126.468C684.898 126.468 686.27 127.616 686.27 129.632L686.242 130.458H681.048C681.132 132.432 682.07 133.272 683.498 133.272C684.618 133.272 685.276 132.628 685.626 131.9ZM683.302 127.308C682.182 127.308 681.174 127.91 681.048 129.674H685.332C685.374 128.008 684.394 127.308 683.302 127.308ZM690.942 126.468C691.908 126.468 692.608 127.112 692.608 128.372V129.1L691.74 129.268V128.54C691.74 127.798 691.488 127.308 690.732 127.308C689.878 127.308 689.234 127.938 689.234 129.436V134H688.282V126.58H689.234V127.504C689.626 126.804 690.284 126.468 690.942 126.468ZM694.965 125.236C694.503 125.236 694.125 124.872 694.125 124.396C694.125 123.92 694.503 123.556 694.965 123.556C695.427 123.556 695.805 123.92 695.805 124.396C695.805 124.872 695.427 125.236 694.965 125.236ZM694.489 134V126.58H695.441V134H694.489ZM700.96 126.468C702.444 126.468 703.312 127.378 703.312 129.044V134H702.36V129.184C702.36 127.84 701.744 127.336 700.708 127.336C699.406 127.336 698.804 128.344 698.804 129.828V134H697.852V126.58H698.804V127.728C699.252 126.916 700.064 126.468 700.96 126.468ZM712.268 127.364H710.672V127.63C711.036 128.078 711.232 128.638 711.232 129.184C711.232 130.542 710.252 131.928 708.166 131.928H707.844C707.004 131.928 706.402 132.25 706.402 132.74C706.402 133.118 706.696 133.384 707.312 133.384H710.322C711.526 133.384 712.142 133.972 712.142 134.896C712.142 136.366 710.448 137.136 708.362 137.136C706.486 137.136 705.184 136.534 704.736 135.232L705.506 134.882C706.024 136.1 707.116 136.338 708.362 136.338C709.902 136.338 711.19 135.876 711.19 134.98C711.19 134.56 710.966 134.252 710.294 134.252H707.102C706.066 134.252 705.45 133.762 705.45 132.992C705.45 132.334 705.996 131.76 706.906 131.522C705.926 131.13 705.38 130.094 705.38 129.184C705.38 127.854 706.374 126.468 708.334 126.468C709.104 126.468 709.692 126.72 710.14 127.098V126.58H712.268V127.364ZM708.32 131.144C709.636 131.144 710.294 130.234 710.294 129.184C710.294 128.148 709.636 127.28 708.32 127.28C706.99 127.28 706.318 128.162 706.318 129.184C706.318 130.22 706.99 131.144 708.32 131.144ZM722.067 126.58H723.047L720.135 134H719.295L716.383 126.58H717.419L719.743 132.95L722.067 126.58ZM724.247 123.696H725.703V125.124H724.247V123.696ZM724.499 134V126.58H725.451V134H724.499ZM733.392 134H732.524C732.412 133.594 732.328 133.104 732.328 132.544C731.95 133.412 730.984 134.112 729.78 134.112C728.464 134.112 727.47 133.258 727.47 131.984C727.47 130.458 728.842 129.66 730.368 129.66C730.97 129.66 731.558 129.73 732.16 129.94V128.96C732.16 127.994 731.572 127.336 730.424 127.336C729.5 127.336 728.716 127.742 728.324 128.876L727.484 128.624C728.044 127.056 729.178 126.468 730.48 126.468C732.314 126.468 733.084 127.574 733.084 128.848V131.9C733.084 132.74 733.224 133.496 733.392 134ZM732.16 130.92V130.752C731.586 130.514 730.998 130.444 730.424 130.444C729.304 130.444 728.422 130.948 728.422 131.928C728.422 132.824 729.052 133.3 729.948 133.3C730.914 133.3 732.16 132.726 732.16 130.92ZM744.141 131.9L744.841 132.292C744.491 133.188 743.567 134.112 741.915 134.112C739.829 134.112 738.597 132.558 738.597 130.192C738.597 128.022 739.885 126.468 741.817 126.468C743.413 126.468 744.785 127.616 744.785 129.632L744.757 130.458H739.563C739.647 132.432 740.585 133.272 742.013 133.272C743.133 133.272 743.791 132.628 744.141 131.9ZM741.817 127.308C740.697 127.308 739.689 127.91 739.563 129.674H743.847C743.889 128.008 742.909 127.308 741.817 127.308ZM746.49 128.568H749.85V129.464H746.49V128.568ZM755.34 126.482C757.23 126.482 758.504 128.064 758.504 130.22C758.504 132.502 757.216 134.112 755.228 134.112C754.192 134.112 753.352 133.594 752.904 132.656V136.94H751.952V126.58H752.904V127.966C753.394 127.014 754.374 126.482 755.34 126.482ZM755.228 133.272C756.614 133.272 757.524 132.208 757.524 130.262C757.524 128.386 756.614 127.322 755.242 127.322C753.758 127.322 752.904 128.428 752.904 130.248C752.904 132.18 753.744 133.272 755.228 133.272ZM763.27 134.112C761.436 134.112 759.966 132.6 759.966 130.276C759.966 127.98 761.422 126.468 763.27 126.468C765.118 126.468 766.574 127.98 766.574 130.276C766.574 132.6 765.104 134.112 763.27 134.112ZM763.27 133.272C764.544 133.272 765.594 132.264 765.594 130.276C765.594 128.302 764.53 127.308 763.27 127.308C762.01 127.308 760.946 128.302 760.946 130.276C760.946 132.264 761.996 133.272 763.27 133.272ZM768.145 128.512C768.145 127.336 769.251 126.468 770.805 126.468C772.149 126.468 773.185 127.112 773.493 128.092L772.709 128.4C772.415 127.686 771.729 127.308 770.777 127.308C769.741 127.308 769.069 127.742 769.069 128.428C769.069 129.044 769.475 129.422 770.357 129.604L771.337 129.8C772.961 130.122 773.717 130.822 773.717 131.928C773.717 133.216 772.569 134.112 770.917 134.112C769.419 134.112 768.369 133.524 767.865 132.404L768.677 132.068C769.027 132.852 769.797 133.272 770.889 133.272C772.037 133.272 772.793 132.768 772.793 132.012C772.793 131.312 772.401 130.934 771.421 130.724L770.217 130.472C768.859 130.192 768.145 129.506 768.145 128.512ZM776.938 132.152C776.938 133.02 777.456 133.272 777.918 133.272C778.366 133.272 778.66 133.104 779.01 132.74L779.514 133.3C779.024 133.874 778.492 134.112 777.834 134.112C776.826 134.112 775.986 133.44 775.986 132.124V127.364H774.586V126.58H775.986V124.984L776.938 124.424V126.58H779.346V127.364H776.938V132.152Z" fill="#2A2859"/>
<rect x="560" y="149" width="398" height="46" fill="white"/>
<rect x="560" y="149" width="398" height="46" stroke="#2A2859" stroke-width="2"/>
</svg>
