<svg width="212" height="189" viewBox="0 0 212 189" fill="none" xmlns="http://www.w3.org/2000/svg">
<path d="M35.5464 170.669L37.7606 166.834L33.9022 164.606L31.688 168.441L35.5464 170.669Z" fill="#034B45"/>
<path d="M37.7606 166.834L39.9748 162.999L36.1165 160.771L33.9022 164.606L37.7606 166.834Z" fill="#034B45"/>
<path d="M69.5062 135.876L71.5368 132.358L46.768 118.058L44.7374 121.575L69.5062 135.876Z" fill="#034B45"/>
<path d="M65.4544 142.894L67.485 139.376L42.7162 125.076L40.6856 128.593L65.4544 142.894Z" fill="#034B45"/>
<path d="M61.4025 149.912L63.4331 146.395L38.6643 132.094L36.6337 135.611L61.4025 149.912Z" fill="#034B45"/>
<path d="M67.485 139.376L69.5156 135.859L44.7468 121.559L42.7162 125.076L67.485 139.376Z" fill="#F9C66B"/>
<path d="M63.4331 146.395L65.4637 142.877L40.6949 128.577L38.6643 132.094L63.4331 146.395Z" fill="#F9C66B"/>
<path d="M59.3812 153.413L61.4119 149.896L36.643 135.595L34.6124 139.112L59.3812 153.413Z" fill="#F9C66B"/>
<path d="M55.3294 160.431L57.36 156.914L32.5912 142.613L30.5606 146.13L55.3294 160.431Z" fill="#F9C66B"/>
<path d="M57.3507 156.93L59.3813 153.413L34.6124 139.112L32.5818 142.629L57.3507 156.93Z" fill="#034B45"/>
<path d="M59.1995 125.207C66.0575 129.167 74.8073 126.851 78.7429 120.034C82.6785 113.217 80.3095 104.482 73.4516 100.522C66.5937 96.5628 57.8438 98.879 53.9082 105.696C49.9726 112.512 52.3416 121.248 59.1995 125.207Z" fill="#034B45"/>
<path d="M55.3706 160.516C53.4806 163.79 50.3598 166.174 46.6947 167.144C43.0296 168.114 39.1205 167.591 35.8272 165.69C32.5339 163.788 30.1262 160.664 29.1339 157.005C28.1416 153.346 28.6459 149.451 30.5358 146.178" fill="#034B45"/>
<path d="M71.5368 132.358L59.3813 153.412C62.1583 155.036 65.228 156.096 68.4126 156.532C71.5971 156.967 74.8334 156.768 77.9339 155.947C81.0344 155.127 83.9375 153.7 86.4753 151.75C89.0131 149.8 91.1351 147.366 92.7184 144.588L71.5368 132.358Z" fill="#034B45"/>
<path d="M46.7683 118.058L34.6127 139.113C31.8179 137.519 29.3649 135.391 27.3958 132.851C25.4267 130.31 23.9805 127.408 23.1411 124.313C22.3016 121.217 22.0855 117.99 22.5053 114.817C22.9251 111.644 23.9725 108.59 25.5867 105.829L46.7683 118.058Z" fill="#034B45"/>
<path d="M78.7829 96.7702L77.5529 98.9006L75.4096 97.6631L74.1796 99.7935L76.3229 101.031L78.4671 102.269L79.6971 100.138L80.927 98.0081L78.7829 96.7702Z" fill="#034B45"/>
<path d="M74.4962 94.2951L72.3529 93.0576L71.1229 95.188L69.8929 97.3184L72.0362 98.5559L74.1795 99.7933L75.4095 97.6629L73.2662 96.4255L74.4962 94.2951Z" fill="#034B45"/>
<path d="M180.458 73.9999V70.1724H176.665V73.9999H180.458Z" fill="#034B45"/>
<path d="M180.458 70.1723V66.3447H176.665V70.1723H180.458Z" fill="#034B45"/>
<path d="M190.687 33.2802V29.77H166.336V33.2802H190.687Z" fill="#034B45"/>
<path d="M190.687 40.2846V36.7744H166.336V40.2846H190.687Z" fill="#034B45"/>
<path d="M190.687 47.2885V43.7783H166.336V47.2885H190.687Z" fill="#034B45"/>
<path d="M190.687 36.7743V33.2642H166.336V36.7743H190.687Z" fill="#F9C66B"/>
<path d="M190.687 43.7782V40.2681H166.336V43.7782H190.687Z" fill="#F9C66B"/>
<path d="M190.687 50.7826V47.2725H166.336V50.7826H190.687Z" fill="#F9C66B"/>
<path d="M190.687 57.787V54.2769H166.336V57.787H190.687Z" fill="#F9C66B"/>
<path d="M190.687 54.2929V50.7827H166.336V54.2929H190.687Z" fill="#034B45"/>
<path d="M178.545 29.7489C185.288 29.7489 190.753 24.2338 190.753 17.4306C190.753 10.6274 185.288 5.1123 178.545 5.1123C171.803 5.1123 166.338 10.6274 166.338 17.4306C166.338 24.2338 171.803 29.7489 178.545 29.7489Z" fill="#034B45"/>
<path d="M190.753 57.833C190.753 61.1 189.467 64.2332 187.178 66.5434C184.888 68.8535 181.783 70.1513 178.545 70.1513C175.308 70.1513 172.203 68.8535 169.913 66.5434C167.624 64.2332 166.338 61.1 166.338 57.833" fill="#034B45"/>
<path d="M190.687 29.77V50.7826C193.426 50.7979 196.14 50.2649 198.674 49.2144C201.207 48.1638 203.509 46.6166 205.446 44.6624C207.382 42.7081 208.916 40.3856 209.957 37.8293C210.998 35.273 211.526 32.5337 211.511 29.77H190.687Z" fill="#034B45"/>
<path d="M166.336 29.77V50.7826C163.597 50.7979 160.882 50.2649 158.349 49.2144C155.815 48.1638 153.514 46.6166 151.577 44.6624C149.64 42.7081 148.107 40.3856 147.066 37.8293C146.025 35.273 145.496 32.5337 145.512 29.77H166.336Z" fill="#034B45"/>
<path d="M180.879 0V2.1262H178.772V4.2524H180.879H182.987V2.1262V0H180.879Z" fill="#034B45"/>
<path d="M176.665 0H174.558V2.1262V4.2524H176.665H178.772V2.1262H176.665V0Z" fill="#034B45"/>
</svg>
