<svg id="16x16-favicon" width="16" height="16" viewBox="0 0 16 16" fill="none" xmlns="http://www.w3.org/2000/svg">
<rect width="16" height="16" fill="white"/>
<path d="M11.5504 4.13419L11.3553 4.01677C11.0581 3.82709 10.7422 3.66451 10.4077 3.52903C10.2684 3.47484 10.129 3.42064 9.98967 3.37548C9.65522 3.26709 9.30219 3.17677 8.95845 3.12258C8.8098 3.10451 8.66116 3.08645 8.50322 3.06838C8.15019 3.04129 7.78787 3.04129 7.43483 3.06838C7.28619 3.07742 7.12825 3.09548 6.97961 3.12258C6.62658 3.17677 6.28283 3.25806 5.93909 3.37548C5.79974 3.42064 5.66038 3.47484 5.52103 3.52903C5.19587 3.66451 4.88 3.82709 4.57341 4.01677L4.37832 4.13419L3.42141 2.35484L3.58864 2.25548C3.9138 2.05677 4.24825 1.88516 4.59199 1.74064L4.76851 1.65935L5.11225 2.30064C5.21445 2.26451 5.30735 2.22838 5.40954 2.19226L5.23303 1.48774L5.41883 1.42451C5.78116 1.31613 6.14348 1.2258 6.51509 1.16258L6.71019 1.12645L6.8867 1.83097L6.94245 1.82193C7.02606 1.8129 7.11896 1.80387 7.20258 1.79484V1.07226L7.39767 1.06322C7.58348 1.05419 7.77858 1.04516 7.96438 1.04516C8.15019 1.04516 8.34528 1.05419 8.53109 1.06322L8.72619 1.07226V1.79484C8.82838 1.80387 8.93057 1.8129 9.04206 1.83097L9.21858 1.12645L9.41367 1.16258C9.78528 1.2258 10.1569 1.31613 10.5099 1.42451L10.6957 1.48774L10.5192 2.19226C10.6214 2.22838 10.7143 2.26451 10.8165 2.30064L11.1603 1.65935L11.3368 1.74064C11.6805 1.89419 12.015 2.0658 12.3401 2.25548L12.5073 2.35484L11.5504 4.13419ZM3.97883 2.50838L4.54554 3.55613C4.80567 3.40258 5.07509 3.27613 5.3538 3.15871H5.36309C5.51174 3.09548 5.66038 3.04129 5.80903 2.99613C6.17135 2.87871 6.54296 2.77935 6.91458 2.72516C7.07251 2.69806 7.23045 2.68 7.39767 2.67096C7.77858 2.64387 8.15948 2.64387 8.54038 2.67096C8.69832 2.68903 8.86554 2.70709 9.02348 2.72516C9.39509 2.77935 9.7667 2.86967 10.129 2.98709C10.2777 3.04129 10.4263 3.09548 10.575 3.14967C10.8537 3.26709 11.1231 3.40258 11.3925 3.54709L11.9592 2.49935C11.7641 2.39096 11.5597 2.28258 11.3553 2.19226L11.0116 2.82451L10.8351 2.75225L10.7608 2.72516C10.5843 2.6529 10.3984 2.58064 10.2126 2.52645L10.0268 2.46322L10.2033 1.76774C9.98038 1.70451 9.7667 1.65032 9.54374 1.60516L9.36722 2.30064L9.17212 2.27355C8.94916 2.23742 8.72619 2.21032 8.51251 2.19226L8.31741 2.17419V1.46064C8.09445 1.45161 7.86219 1.45161 7.63922 1.46064V2.17419L7.44412 2.19226C7.29548 2.20129 7.15612 2.21935 7.01677 2.23742C6.94245 2.24645 6.85883 2.25548 6.78451 2.27355L6.58941 2.30064L6.4129 1.60516C6.18993 1.65032 5.96696 1.70451 5.75329 1.76774L5.9298 2.46322L5.744 2.52645C5.55819 2.58967 5.37238 2.6529 5.19587 2.72516L5.12154 2.75225L4.94503 2.82451L4.60129 2.19226C4.37832 2.28258 4.17393 2.39097 3.97883 2.50838Z" fill="var(--fg-color, #2A2859)" />
<path d="M7.96438 14.9548C4.69419 14.9548 2.04645 12.3806 2.04645 9.21032C2.04645 6.03999 4.69419 3.45677 7.95509 3.45677C11.216 3.45677 13.873 6.03096 13.873 9.20128C13.873 10.7277 13.2506 12.191 12.145 13.2748C11.0395 14.3497 9.52516 14.9548 7.96438 14.9548ZM7.96438 3.88128C4.93574 3.88128 2.48309 6.2658 2.48309 9.20128C2.48309 12.1368 4.93574 14.5303 7.95509 14.5303C10.9837 14.5303 13.4364 12.1458 13.4364 9.21032C13.4364 7.80128 12.8604 6.44645 11.8292 5.44387C10.8072 4.44129 9.41367 3.87225 7.96438 3.88128Z" fill="#2A2859"/>
<path d="M6.82167 7.56645C6.35716 6.96128 6.48722 6.09419 7.10967 5.64257C7.73212 5.19096 8.62399 5.31741 9.08851 5.92258C9.46012 6.41032 9.46012 7.0787 9.08851 7.56645L9.40438 7.79225C9.63664 7.49419 9.7667 7.12386 9.7667 6.74451C9.7667 5.77806 8.95845 4.99225 7.96438 4.99225C6.97032 4.99225 6.16206 5.77806 6.16206 6.74451C6.16206 7.12386 6.29212 7.49419 6.52438 7.79225L6.82167 7.56645Z" fill="#2A2859"/>
<path d="M7.95509 7.98193C8.34529 7.98193 8.66116 7.67483 8.66116 7.29548V7.22322H8.89342V6.78967C8.89342 6.28387 8.47535 5.87742 7.95509 5.87742C7.43483 5.87742 7.01677 6.28387 7.01677 6.78967V7.22322H7.24903V7.29548C7.24903 7.67483 7.5649 7.98193 7.95509 7.98193ZM7.40696 6.79871C7.40696 6.50064 7.64851 6.2658 7.95509 6.2658C8.26167 6.2658 8.50322 6.50064 8.50322 6.79871V7.23225H8.336V7.30451C8.34529 7.51225 8.18735 7.68387 7.97367 7.6929C7.75999 7.70193 7.58348 7.54838 7.57419 7.34064C7.57419 7.33161 7.57419 7.31354 7.57419 7.30451V7.23225H7.40696V6.79871Z" fill="#2A2859"/>
<path d="M4.46193 9.46322H3.92309V9.99612H4.46193V9.46322Z" fill="#2A2859"/>
<path d="M12.3308 9.05677V9.33677H12.6095L11.857 10.0684V8.7858L12.0521 8.97548L12.2565 8.77677L11.7084 8.24387L11.1603 8.77677L11.3646 8.97548L11.5597 8.7858V10.0593L10.8072 9.32774H11.0766V9.04774H10.3055V9.80645H10.5935V9.53548L11.1788 10.1135H9.98967L9.8689 10.0052L9.7667 9.0658C9.75741 9.01161 9.70167 8.5329 9.2929 8.32516H9.28361L8.86554 8.16258L8.80051 8.13548L8.73548 8.15354C8.47535 8.21677 8.21522 8.24387 7.95509 8.23483C7.69496 8.24387 7.42554 8.21677 7.1747 8.15354L7.10967 8.13548L6.62658 8.31612H6.61729C6.20851 8.52387 6.14348 9.00258 6.14348 9.05677L6.03199 10.0323L5.93909 10.1045H5.53032C5.56748 9.97806 5.58606 9.85161 5.58606 9.72516C5.58606 8.97548 4.95432 8.37032 4.18322 8.37935C3.41212 8.37935 2.78967 8.99354 2.79896 9.74322C2.79896 10.4116 3.30064 10.9716 3.97883 11.08H3.99741C4.03458 11.089 4.07174 11.089 4.1089 11.089L5.92051 11.2697C5.85548 11.8658 5.7347 12.4529 5.55819 13.031L5.744 13.0942L5.9298 13.1484C6.11561 12.5432 6.24567 11.92 6.3107 11.2968L6.71948 10.9626L6.65445 13.4194L6.82167 13.4464C7.58348 13.5729 8.36387 13.5729 9.13496 13.4464L9.30219 13.4194L9.23716 10.9716L9.64593 11.3058C9.71096 11.929 9.84103 12.5523 10.0268 13.1574L10.3984 13.04C10.2219 12.4619 10.1012 11.8748 10.0361 11.2787L11.857 11.1161V10.5019L12.8232 9.56257V9.83354H13.1112V9.08387L12.3308 9.05677ZM7.95509 8.62322C8.2338 8.63225 8.51251 8.59612 8.79122 8.54193L9.12567 8.66838C9.34864 8.7858 9.3858 9.10193 9.3858 9.10193L9.46941 9.84258H8.99561C8.8098 9.84258 8.61471 9.79741 8.45677 9.69806C8.336 9.60774 8.22451 9.50838 8.13161 9.39096L7.4627 8.59612C7.62993 8.61419 7.79716 8.62322 7.95509 8.62322ZM4.19251 10.7097H4.14606L4.04387 10.7006C3.49574 10.6193 3.11483 10.1135 3.20774 9.58064C3.29135 9.04774 3.81161 8.67742 4.35974 8.76774C4.90787 8.84903 5.28877 9.35483 5.19587 9.88774C5.11225 10.3574 4.6849 10.7097 4.19251 10.7097ZM6.72877 10.4477L6.17135 10.9084L5.05651 10.8C5.16799 10.7097 5.27019 10.6103 5.3538 10.4929H6.08774L6.73806 9.96L6.72877 10.4477ZM6.75664 9.45419L6.46864 9.68903L6.53367 9.11096V9.10193C6.53367 9.10193 6.56154 8.7858 6.7938 8.66838L6.97961 8.59612L7.31406 8.99354L6.75664 9.45419ZM7.96438 13.1574C7.6578 13.1574 7.35122 13.1393 7.05393 13.0942L7.07251 12.2903L7.13754 9.63483L7.55561 9.29161L7.83432 9.6258C7.95509 9.77935 8.10374 9.91483 8.26167 10.0232C8.4289 10.1226 8.62399 10.1858 8.81909 10.2129L8.89341 13.0942C8.58683 13.1303 8.27096 13.1484 7.96438 13.1574ZM11.4668 10.7548L9.78528 10.9084L8.94916 10.2219H9.56232L9.87819 10.4929H11.4761L11.4668 10.7548Z" fill="var(--fg-color, #2A2859)" />
</svg>
