<svg id="180x180-favicon" width="180" height="180" viewBox="0 0 180 180" fill="none" xmlns="http://www.w3.org/2000/svg">
<rect width="180" height="180" fill="white"/>
<path d="M129.443 45.2671L127.248 43.9084C123.903 41.7135 120.35 39.8323 116.587 38.2645C115.019 37.6374 113.452 37.0103 111.884 36.4877C108.121 35.2335 104.15 34.1884 100.283 33.5613C98.6103 33.3523 96.9381 33.1432 95.1613 32.9342C91.1897 32.6206 87.1135 32.6206 83.1419 32.9342C81.4697 33.0387 79.6929 33.2477 78.0206 33.5613C74.049 34.1884 70.1819 35.129 66.3148 36.4877C64.7471 37.0103 63.1793 37.6374 61.6116 38.2645C57.9535 39.8323 54.4 41.7135 50.951 43.9084L48.7561 45.2671L37.991 24.6774L39.8722 23.5277C43.5303 21.2284 47.2929 19.2426 51.16 17.5703L53.1458 16.6297L57.0129 24.0503C58.1626 23.6323 59.2077 23.2142 60.3574 22.7961L58.3716 14.6439L60.4619 13.9123C64.5381 12.6581 68.6142 11.6129 72.7948 10.8813L74.9897 10.4632L76.9755 18.6155L77.6026 18.511C78.5432 18.4065 79.5884 18.3019 80.529 18.1974V9.83613L82.7239 9.73162C84.8142 9.6271 87.009 9.52258 89.0993 9.52258C91.1897 9.52258 93.3845 9.6271 95.4748 9.73162L97.6697 9.83613V18.1974C98.8193 18.3019 99.969 18.4065 101.223 18.6155L103.209 10.4632L105.404 10.8813C109.585 11.6129 113.765 12.6581 117.737 13.9123L119.827 14.6439L117.841 22.7961C118.991 23.2142 120.036 23.6323 121.186 24.0503L125.053 16.6297L127.039 17.5703C130.906 19.3471 134.668 21.3329 138.326 23.5277L140.208 24.6774L129.443 45.2671ZM44.2619 26.4542L50.6374 38.5781C53.5639 36.8013 56.5948 35.3381 59.7303 33.9794H59.8348C61.5071 33.2477 63.1793 32.6206 64.8516 32.0981C68.9277 30.7394 73.1084 29.5897 77.289 28.9626C79.0658 28.649 80.8426 28.44 82.7239 28.3355C87.009 28.0219 91.2942 28.0219 95.5793 28.3355C97.3561 28.5445 99.2374 28.7535 101.014 28.9626C105.195 29.5897 109.375 30.6348 113.452 31.9935C115.124 32.6206 116.796 33.2477 118.468 33.8748C121.604 35.2335 124.635 36.8013 127.666 38.4735L134.041 26.3497C131.846 25.0955 129.547 23.8413 127.248 22.7961L123.381 30.1123L121.395 29.2761L120.559 28.9626C118.573 28.1264 116.483 27.2903 114.392 26.6632L112.302 25.9316L114.288 17.8839C111.779 17.1523 109.375 16.5252 106.867 16.0026L104.881 24.0503L102.686 23.7368C100.178 23.3187 97.6697 23.0052 95.2658 22.7961L93.071 22.5871V14.3303C90.5626 14.2258 87.9497 14.2258 85.4413 14.3303V22.5871L83.2464 22.7961C81.5742 22.9006 80.0064 23.1097 78.4387 23.3187C77.6026 23.4232 76.6619 23.5277 75.8258 23.7368L73.631 24.0503L71.6452 16.0026C69.1368 16.5252 66.6284 17.1523 64.2245 17.8839L66.2103 25.9316L64.12 26.6632C62.0297 27.3948 59.9393 28.1264 57.9535 28.9626L57.1174 29.2761L55.1316 30.1123L51.2645 22.7961C48.7561 23.8413 46.4568 25.0955 44.2619 26.4542Z" fill="var(--fg-color, #2A2859)" />
<path d="M89.0994 170.477C52.3097 170.477 22.5226 140.69 22.5226 104.005C22.5226 67.32 52.3097 37.4284 88.9948 37.4284C125.68 37.4284 155.572 67.2154 155.572 103.901C155.572 121.564 148.569 138.495 136.132 151.037C123.694 163.475 106.658 170.477 89.0994 170.477ZM89.0994 42.3406C55.0271 42.3406 27.4348 69.9329 27.4348 103.901C27.4348 137.868 55.0271 165.565 88.9948 165.565C123.067 165.565 150.659 137.973 150.659 104.005C150.659 87.7006 144.179 72.0232 132.578 60.4219C121.081 48.8206 105.404 42.2361 89.0994 42.3406Z" fill="#2A2859"/>
<path d="M76.2439 84.9832C71.0181 77.9806 72.4813 67.9471 79.4839 62.7213C86.4864 57.4955 96.52 58.9587 101.746 65.9613C105.926 71.6051 105.926 79.3393 101.746 84.9832L105.299 87.5961C107.912 84.1471 109.375 79.8619 109.375 75.4722C109.375 64.289 100.283 55.1961 89.0993 55.1961C77.9161 55.1961 68.8232 64.289 68.8232 75.4722C68.8232 79.8619 70.2864 84.1471 72.8993 87.5961L76.2439 84.9832Z" fill="#2A2859"/>
<path d="M88.9948 89.7909C93.3845 89.7909 96.9381 86.2374 96.9381 81.8477V81.0116H99.551V75.9948C99.551 70.1419 94.8477 65.4387 88.9948 65.4387C83.1419 65.4387 78.4387 70.1419 78.4387 75.9948V81.0116H81.0516V81.8477C81.0516 86.2374 84.6052 89.7909 88.9948 89.7909ZM82.8284 76.0993C82.8284 72.6503 85.5458 69.9329 88.9948 69.9329C92.4439 69.9329 95.1613 72.6503 95.1613 76.0993V81.1161H93.28V81.9522C93.3845 84.3561 91.6077 86.3419 89.2039 86.4464C86.8 86.5509 84.8142 84.7742 84.7097 82.3703C84.7097 82.2658 84.7097 82.0567 84.7097 81.9522V81.1161H82.8284V76.0993Z" fill="#2A2859"/>
<path d="M49.6968 106.932H43.6348V113.098H49.6968V106.932Z" fill="#2A2859"/>
<path d="M138.222 102.228V105.468H141.357L132.892 113.934V99.0929L135.086 101.288L137.386 98.9884L131.219 92.8219L125.053 98.9884L127.352 101.288L129.547 99.0929V113.83L121.081 105.364H124.112V102.124H115.437V110.903H118.677V107.768L125.262 114.457H111.884L110.525 113.203L109.375 102.333C109.271 101.706 108.644 96.1664 104.045 93.7626H103.941L99.2374 91.8813L98.5058 91.5677L97.7742 91.7768C94.8477 92.5084 91.9213 92.8219 88.9948 92.7174C86.0684 92.8219 83.0374 92.5084 80.2155 91.7768L79.4839 91.5677L74.049 93.6581H73.9445C69.3458 96.0619 68.6142 101.601 68.6142 102.228L67.36 113.516L66.3148 114.352H61.7161C62.1342 112.889 62.3432 111.426 62.3432 109.963C62.3432 101.288 55.2361 94.2851 46.5613 94.3897C37.8864 94.3897 30.8839 101.497 30.9884 110.172C30.9884 117.906 36.6322 124.386 44.2619 125.64H44.471C44.889 125.744 45.3071 125.744 45.7252 125.744L66.1058 127.835C65.3742 134.733 64.0155 141.526 62.0297 148.215L64.12 148.947L66.2103 149.574C68.3006 142.572 69.7639 135.36 70.4955 128.148L75.0942 124.281L74.3626 152.71L76.2439 153.023C84.8142 154.486 93.5935 154.486 102.268 153.023L104.15 152.71L103.418 124.386L108.017 128.253C108.748 135.464 110.212 142.676 112.302 149.679L116.483 148.32C114.497 141.631 113.138 134.837 112.406 127.939L132.892 126.058V118.951L143.761 108.081V111.217H147.001V102.542L138.222 102.228ZM88.9948 97.2116C92.1303 97.3161 95.2658 96.8981 98.4013 96.271L102.164 97.7342C104.672 99.0929 105.09 102.751 105.09 102.751L106.031 111.321H100.701C98.6103 111.321 96.4155 110.799 94.6387 109.649C93.28 108.604 92.0258 107.454 90.9806 106.095L83.4555 96.898C85.3368 97.1071 87.2181 97.2116 88.9948 97.2116ZM46.6658 121.355H46.1432L44.9935 121.25C38.8271 120.31 34.5419 114.457 35.5871 108.29C36.5277 102.124 42.3806 97.8387 48.5471 98.8839C54.7135 99.8245 58.9987 105.677 57.9535 111.844C57.0129 117.279 52.2051 121.355 46.6658 121.355ZM75.1987 118.324L68.9277 123.654L56.3858 122.4C57.64 121.355 58.7897 120.205 59.7303 118.846H67.9871L75.3032 112.68L75.1987 118.324ZM75.5122 106.827L72.2722 109.544L73.0039 102.855V102.751C73.0039 102.751 73.3174 99.0929 75.9303 97.7342L78.0206 96.898L81.7832 101.497L75.5122 106.827ZM89.0993 149.679C85.6503 149.679 82.2013 149.47 78.8568 148.947L79.0658 139.645L79.7974 108.917L84.5006 104.946L87.6361 108.813C88.9948 110.59 90.6671 112.157 92.4439 113.412C94.3252 114.561 96.52 115.293 98.7148 115.606L99.551 148.947C96.1019 149.365 92.5484 149.574 89.0993 149.679ZM128.502 121.877L109.584 123.654L100.178 115.711H107.076L110.63 118.846H128.606L128.502 121.877Z" fill="var(--fg-color, #2A2859)" />
</svg>
