<svg id="192x192-favicon" width="192" height="192" viewBox="0 0 192 192" fill="none" xmlns="http://www.w3.org/2000/svg">
<rect width="192" height="192" fill="white"/>
<path d="M139.401 47.9535L137.044 46.4942C133.452 44.1368 129.635 42.1161 125.594 40.4322C123.91 39.7587 122.226 39.0852 120.542 38.5239C116.501 37.1768 112.235 36.0542 108.081 35.3806C106.285 35.1561 104.489 34.9316 102.581 34.7071C98.3148 34.3703 93.9368 34.3703 89.671 34.7071C87.8748 34.8193 85.9664 35.0439 84.1703 35.3806C79.9045 36.0542 75.751 37.0645 71.5974 38.5239C69.9135 39.0852 68.2297 39.7587 66.5458 40.4322C62.6168 42.1161 58.8 44.1368 55.0955 46.4942L52.7381 47.9535L41.1755 25.8387L43.1961 24.6039C47.1251 22.1342 51.1664 20.0013 55.32 18.2052L57.4529 17.1948L61.6064 25.1652C62.8413 24.7161 63.9639 24.2671 65.1987 23.8181L63.0658 15.0619L65.311 14.2761C69.689 12.929 74.0671 11.8065 78.5574 11.0206L80.9148 10.5716L83.0477 19.3277L83.7213 19.2155C84.7316 19.1032 85.8542 18.991 86.8645 18.8787V9.89806L89.2219 9.78581C91.4671 9.67355 93.8245 9.56129 96.0697 9.56129C98.3148 9.56129 100.672 9.67355 102.917 9.78581L105.275 9.89806V18.8787C106.51 18.991 107.745 19.1032 109.092 19.3277L111.225 10.5716L113.582 11.0206C118.072 11.8065 122.563 12.929 126.828 14.2761L129.074 15.0619L126.941 23.8181C128.175 24.2671 129.298 24.7161 130.533 25.1652L134.686 17.1948L136.819 18.2052C140.973 20.1135 145.014 22.2464 148.943 24.6039L150.964 25.8387L139.401 47.9535ZM47.911 27.7471L54.7587 40.769C57.9019 38.8606 61.1574 37.289 64.5252 35.8297H64.6374C66.4335 35.0439 68.2297 34.3703 70.0258 33.809C74.4039 32.3497 78.8942 31.1148 83.3845 30.4413C85.2929 30.1045 87.2013 29.88 89.2219 29.7677C93.8245 29.431 98.4271 29.431 103.03 29.7677C104.938 29.9923 106.959 30.2168 108.867 30.4413C113.357 31.1148 117.848 32.2374 122.226 33.6968C124.022 34.3703 125.818 35.0439 127.614 35.7174C130.982 37.1768 134.237 38.8606 137.493 40.6568L144.341 27.6348C141.983 26.2877 139.514 24.9406 137.044 23.8181L132.89 31.6761L130.757 30.7781L129.859 30.4413C127.726 29.5432 125.481 28.6452 123.236 27.9716L120.991 27.1858L123.124 18.5419C120.43 17.7561 117.848 17.0826 115.154 16.5213L113.021 25.1652L110.663 24.8284C107.969 24.3793 105.275 24.0426 102.693 23.8181L100.335 23.5935V14.7252C97.6413 14.6129 94.8348 14.6129 92.1406 14.7252V23.5935L89.7832 23.8181C87.9871 23.9303 86.3032 24.1548 84.6194 24.3794C83.7213 24.4916 82.711 24.6039 81.8129 24.8284L79.4555 25.1652L77.3226 16.5213C74.6284 17.0826 71.9342 17.7561 69.3522 18.5419L71.4852 27.1858L69.24 27.9716C66.9948 28.7574 64.7497 29.5432 62.6168 30.4413L61.7187 30.7781L59.5858 31.6761L55.4322 23.8181C52.7381 24.9406 50.2684 26.2877 47.911 27.7471Z" fill="var(--fg-color, #2A2859)" />
<path d="M96.0697 182.439C56.5548 182.439 24.5613 150.445 24.5613 111.043C24.5613 71.64 56.5548 39.5342 95.9574 39.5342C135.36 39.5342 167.466 71.5277 167.466 110.93C167.466 129.902 159.945 148.088 146.586 161.559C133.227 174.917 114.929 182.439 96.0697 182.439ZM96.0697 44.8103C59.4736 44.8103 29.8374 74.4464 29.8374 110.93C29.8374 147.414 59.4736 177.163 95.9574 177.163C132.554 177.163 162.19 147.526 162.19 111.043C162.19 93.5303 155.23 76.6916 142.769 64.2309C130.421 51.7703 113.582 44.698 96.0697 44.8103Z" fill="#2A2859"/>
<path d="M82.2619 90.6116C76.649 83.0903 78.2206 72.3135 85.7419 66.7006C93.2632 61.0877 104.04 62.6593 109.653 70.1806C114.143 76.2425 114.143 84.5496 109.653 90.6116L113.47 93.418C116.276 89.7135 117.848 85.1109 117.848 80.3961C117.848 68.3845 108.081 58.618 96.0697 58.618C84.0581 58.618 74.2916 68.3845 74.2916 80.3961C74.2916 85.1109 75.8632 89.7135 78.6697 93.418L82.2619 90.6116Z" fill="#2A2859"/>
<path d="M95.9574 95.7755C100.672 95.7755 104.489 91.9587 104.489 87.2439V86.3458H107.295V80.9574C107.295 74.6709 102.244 69.6193 95.9574 69.6193C89.671 69.6193 84.6194 74.6709 84.6194 80.9574V86.3458H87.4258V87.2439C87.4258 91.9587 91.2426 95.7755 95.9574 95.7755ZM89.3342 81.0697C89.3342 77.3651 92.2529 74.4464 95.9574 74.4464C99.6619 74.4464 102.581 77.3651 102.581 81.0697V86.4581H100.56V87.3561C100.672 89.938 98.7639 92.0709 96.1819 92.1832C93.6 92.2955 91.4671 90.3871 91.3548 87.8051C91.3548 87.6929 91.3548 87.4684 91.3548 87.3561V86.4581H89.3342V81.0697Z" fill="#2A2859"/>
<path d="M53.7484 114.186H47.2374V120.809H53.7484V114.186Z" fill="#2A2859"/>
<path d="M148.831 109.134V112.614H152.199L143.106 121.707V105.766L145.463 108.124L147.933 105.654L141.31 99.0309L134.686 105.654L137.156 108.124L139.514 105.766V121.595L130.421 112.502H133.676V109.022H124.359V118.452H127.839V115.084L134.911 122.268H120.542L119.083 120.921L117.848 109.246C117.735 108.573 117.062 102.623 112.123 100.041H112.01L106.959 98.0206L106.173 97.6839L105.387 97.9084C102.244 98.6942 99.1006 99.0309 95.9574 98.9187C92.8142 99.0309 89.5587 98.6942 86.5277 97.9084L85.7419 97.6839L79.9045 99.929H79.7923C74.8529 102.511 74.0671 108.461 74.0671 109.134L72.72 121.258L71.5974 122.156H66.6581C67.1071 120.584 67.3316 119.013 67.3316 117.441C67.3316 108.124 59.6981 100.603 50.3806 100.715C41.0632 100.715 33.5419 108.348 33.6542 117.666C33.6542 125.973 39.7161 132.933 47.911 134.28H48.1355C48.5845 134.392 49.0335 134.392 49.4826 134.392L71.3729 136.637C70.5871 144.046 69.1277 151.343 66.9948 158.528L69.24 159.314L71.4852 159.987C73.7303 152.466 75.3019 144.72 76.0877 136.974L81.0271 132.821L80.2413 163.355L82.2619 163.692C91.4671 165.263 100.897 165.263 110.214 163.692L112.235 163.355L111.449 132.933L116.388 137.086C117.174 144.832 118.746 152.578 120.991 160.099L125.481 158.64C123.348 151.455 121.889 144.159 121.103 136.75L143.106 134.729V127.095L154.781 115.421V118.788H158.261V109.471L148.831 109.134ZM95.9574 103.746C99.3252 103.858 102.693 103.409 106.061 102.735L110.102 104.307C112.796 105.766 113.245 109.695 113.245 109.695L114.255 118.901H108.53C106.285 118.901 103.928 118.339 102.019 117.104C100.56 115.982 99.2129 114.747 98.0903 113.288L90.0077 103.409C92.0284 103.634 94.049 103.746 95.9574 103.746ZM50.4929 129.677H49.9316L48.6968 129.565C42.0735 128.555 37.471 122.268 38.5935 115.645C39.6039 109.022 45.8903 104.419 52.5135 105.542C59.1368 106.552 63.7393 112.839 62.6168 119.462C61.6064 125.299 56.4426 129.677 50.4929 129.677ZM81.1394 126.422L74.4039 132.147L60.9329 130.8C62.28 129.677 63.5148 128.443 64.5252 126.983H73.3935L81.2516 120.36L81.1394 126.422ZM81.4761 114.074L77.9961 116.992L78.7819 109.808V109.695C78.7819 109.695 79.1187 105.766 81.9252 104.307L84.1703 103.409L88.2116 108.348L81.4761 114.074ZM96.0697 160.099C92.3652 160.099 88.6606 159.875 85.0684 159.314L85.2929 149.323L86.0787 116.319L91.1303 112.053L94.4981 116.206C95.9574 118.115 97.7535 119.799 99.6619 121.146C101.683 122.381 104.04 123.166 106.397 123.503L107.295 159.314C103.591 159.763 99.7742 159.987 96.0697 160.099ZM138.391 130.239L118.072 132.147L107.969 123.615H115.378L119.195 126.983H138.503L138.391 130.239Z" fill="var(--fg-color, #2A2859)" />
</svg>
