<svg id="512x512-favicon" width="512" height="512" viewBox="0 0 512 512" fill="none" xmlns="http://www.w3.org/2000/svg">
<rect width="512" height="512" fill="white"/>
<path d="M368.635 130.637L362.473 126.83C353.084 120.679 343.108 115.406 332.545 111.013C328.143 109.255 323.742 107.498 319.341 106.034C308.778 102.519 297.628 99.5897 286.771 97.8323C282.076 97.2464 277.382 96.6606 272.394 96.0748C261.244 95.1961 249.8 95.1961 238.65 96.0748C233.956 96.3677 228.967 96.9535 224.273 97.8323C213.123 99.5897 202.266 102.226 191.41 106.034C187.008 107.498 182.607 109.255 178.206 111.013C167.936 115.406 157.96 120.679 148.277 126.83L142.115 130.637L111.893 72.9355L117.175 69.7135C127.444 63.2697 138.007 57.7045 148.864 53.0181L154.439 50.3819L165.295 71.1781C168.523 70.0065 171.457 68.8348 174.685 67.6632L169.11 44.8168L174.978 42.7665C186.422 39.2516 197.865 36.3226 209.602 34.2723L215.764 33.1006L221.339 55.9471L223.099 55.6542C225.74 55.3613 228.674 55.0684 231.315 54.7755V31.3432L237.477 31.0503C243.345 30.7574 249.507 30.4645 255.375 30.4645C261.244 30.4645 267.405 30.7574 273.274 31.0503L279.436 31.3432V54.7755C282.663 55.0684 285.891 55.3613 289.412 55.9471L294.987 33.1006L301.149 34.2723C312.885 36.3226 324.622 39.2516 335.772 42.7665L341.641 44.8168L336.066 67.6632C339.293 68.8348 342.227 70.0065 345.455 71.1781L356.311 50.3819L361.886 53.0181C372.743 57.9974 383.306 63.5626 393.576 69.7135L398.857 72.9355L368.635 130.637ZM129.498 77.9148L147.397 111.892C155.613 106.912 164.122 102.812 172.924 99.0039H173.218C177.913 96.9535 182.607 95.1961 187.302 93.7316C198.745 89.9239 210.482 86.7019 222.219 84.9445C227.207 84.0658 232.195 83.48 237.477 83.1871C249.507 82.3084 261.537 82.3084 273.567 83.1871C278.555 83.7729 283.837 84.3587 288.825 84.9445C300.562 86.7019 312.299 89.631 323.742 93.4387C328.437 95.1961 333.131 96.9535 337.826 98.711C346.629 102.519 355.138 106.912 363.647 111.599L381.546 77.6219C375.384 74.1071 368.929 70.5923 362.473 67.6632L351.617 88.1665L346.042 85.8232L343.694 84.9445C338.119 82.6013 332.251 80.2581 326.383 78.5006L320.514 76.4503L326.089 53.8968C319.047 51.8464 312.299 50.089 305.257 48.6245L299.682 71.1781L293.52 70.2993C286.478 69.1277 279.436 68.249 272.687 67.6632L266.525 67.0774V43.9381C259.483 43.6452 252.148 43.6452 245.106 43.9381V67.0774L238.944 67.6632C234.249 67.9561 229.848 68.5419 225.446 69.1278C223.099 69.4207 220.458 69.7135 218.111 70.2993L211.949 71.1781L206.374 48.6245C199.332 50.089 192.29 51.8464 185.541 53.8968L191.116 76.4503L185.248 78.5006C179.38 80.551 173.511 82.6013 167.936 84.9445L165.589 85.8232L160.014 88.1665L149.157 67.6632C142.115 70.5923 135.66 74.1071 129.498 77.9148Z" fill="var(--fg-color, #2A2859)" />
<path d="M255.375 481.535C152.092 481.535 68.4671 398.058 68.4671 295.249C68.4671 192.44 152.092 108.67 255.082 108.67C358.072 108.67 441.99 192.147 441.99 294.956C441.99 344.457 422.331 391.907 387.414 427.055C352.497 461.911 304.67 481.535 255.375 481.535ZM255.375 122.436C159.721 122.436 82.2578 199.762 82.2578 294.956C82.2578 390.15 159.721 467.769 255.082 467.769C350.737 467.769 428.199 390.442 428.199 295.249C428.199 249.556 410.007 205.621 377.438 173.108C345.162 140.596 301.149 122.143 255.375 122.436Z" fill="#2A2859"/>
<path d="M219.285 241.941C204.614 222.316 208.722 194.197 228.381 179.552C248.04 164.907 276.208 169.008 290.879 188.632C302.616 204.449 302.616 226.124 290.879 241.941L300.855 249.263C308.191 239.597 312.299 227.588 312.299 215.286C312.299 183.946 286.771 158.463 255.375 158.463C223.979 158.463 198.452 183.946 198.452 215.286C198.452 227.588 202.56 239.597 209.895 249.263L219.285 241.941Z" fill="#2A2859"/>
<path d="M255.082 255.414C267.405 255.414 277.382 245.455 277.382 233.154V230.81H284.717V216.751C284.717 200.348 271.513 187.168 255.082 187.168C238.65 187.168 225.446 200.348 225.446 216.751V230.81H232.782V233.154C232.782 245.455 242.758 255.414 255.082 255.414ZM237.77 217.044C237.77 207.378 245.399 199.763 255.082 199.763C264.765 199.763 272.394 207.378 272.394 217.044V231.103H267.112V233.446C267.405 240.183 262.417 245.748 255.669 246.041C248.92 246.334 243.345 241.355 243.052 234.618C243.052 234.325 243.052 233.739 243.052 233.446V231.103H237.77V217.044Z" fill="#2A2859"/>
<path d="M144.756 303.45H127.738V320.732H144.756V303.45Z" fill="#2A2859"/>
<path d="M393.282 290.27V299.35H402.085L378.318 323.075V281.483L384.48 287.633L390.935 281.19L373.623 263.908L356.311 281.19L362.767 287.633L368.929 281.483V322.782L345.162 299.057H353.671V289.977H329.317V314.581H338.413V305.794L356.898 324.539H319.341L315.526 321.024L312.299 290.563C312.005 288.805 310.245 273.281 297.334 266.544H297.041L283.837 261.272L281.783 260.394L279.729 260.979C271.513 263.03 263.298 263.908 255.082 263.615C246.866 263.908 238.357 263.03 230.435 260.979L228.381 260.394L213.123 266.252H212.829C199.919 272.988 197.865 288.512 197.865 290.27L194.344 321.903L191.41 324.246H178.499C179.673 320.146 180.26 316.045 180.26 311.944C180.26 287.633 160.307 268.009 135.954 268.302C111.6 268.302 91.9406 288.219 92.234 312.53C92.234 334.205 108.079 352.365 129.498 355.88H130.085C131.259 356.173 132.432 356.173 133.606 356.173L190.823 362.031C188.769 381.363 184.955 400.401 179.38 419.147L185.248 421.197L191.116 422.955C196.985 403.33 201.093 383.12 203.147 362.91L216.057 352.072L214.003 431.742L219.285 432.621C243.345 436.721 267.992 436.721 292.346 432.621L297.628 431.742L295.574 352.365L308.484 363.203C310.538 383.413 314.646 403.623 320.514 423.248L332.251 419.44C326.676 400.694 322.862 381.655 320.808 362.324L378.318 357.052V337.134L408.834 306.672V315.459H417.93V291.148L393.282 290.27ZM255.082 276.21C263.884 276.503 272.687 275.332 281.49 273.574L292.053 277.675C299.095 281.483 300.268 291.734 300.268 291.734L302.909 315.752H287.945C282.076 315.752 275.915 314.288 270.926 311.066C267.112 308.137 263.591 304.915 260.657 301.107L239.531 275.332C244.812 275.917 250.094 276.21 255.082 276.21ZM136.247 343.871H134.78L131.552 343.578C114.24 340.942 102.21 324.539 105.144 307.258C107.785 289.977 124.217 277.968 141.528 280.897C158.84 283.533 170.87 299.935 167.936 317.217C165.295 332.448 151.798 343.871 136.247 343.871ZM216.35 335.377L198.745 350.315L163.535 346.8C167.056 343.871 170.284 340.649 172.924 336.841H196.104L216.644 319.56L216.35 335.377ZM217.231 303.157L208.135 310.773L210.189 292.027V291.734C210.189 291.734 211.069 281.483 218.404 277.675L224.273 275.332L234.836 288.219L217.231 303.157ZM255.375 423.248C245.692 423.248 236.01 422.662 226.62 421.197L227.207 395.129L229.261 309.015L242.465 297.885L251.267 308.723C255.082 313.702 259.777 318.095 264.765 321.61C270.046 324.832 276.208 326.883 282.37 327.761L284.717 421.197C275.034 422.369 265.058 422.955 255.375 423.248ZM365.994 345.335L312.885 350.315L286.478 328.054H305.843L315.82 336.841H366.288L365.994 345.335Z" fill="var(--fg-color, #2A2859)" />
</svg>
