<svg id="96x96-favicon" width="96" height="96" viewBox="0 0 96 96" fill="none" xmlns="http://www.w3.org/2000/svg">
<rect width="96" height="96" fill="white"/>
<path d="M69.0986 23.7006L67.9117 22.9626C66.1032 21.7703 64.1817 20.7484 62.1471 19.8968C61.2993 19.5561 60.4516 19.2155 59.6039 18.9316C57.5693 18.2503 55.4217 17.6826 53.3306 17.3419C52.4263 17.2284 51.5221 17.1148 50.5613 17.0013C48.4137 16.831 46.2095 16.831 44.0619 17.0013C43.1577 17.0581 42.1969 17.1716 41.2926 17.3419C39.145 17.6826 37.0539 18.1936 34.9628 18.9316C34.1151 19.2155 33.2673 19.5561 32.4196 19.8968C30.4415 20.7484 28.52 21.7703 26.655 22.9626L25.4681 23.7006L19.647 12.5161L20.6642 11.8916C22.6423 10.6426 24.6769 9.56388 26.768 8.65549L27.8418 8.14452L29.9329 12.1755C30.5546 11.9484 31.1197 11.7213 31.7414 11.4942L30.6676 7.06581L31.7979 6.66839C34.0021 5.9871 36.2062 5.41936 38.4668 5.02194L39.6537 4.79484L40.7275 9.22323L41.0666 9.16645C41.5752 9.10968 42.1404 9.05291 42.649 8.99613V4.4542L43.8359 4.39743C44.9662 4.34065 46.153 4.28387 47.2833 4.28387C48.4137 4.28387 49.6005 4.34065 50.7308 4.39743L51.9177 4.4542V8.99613C52.5393 9.05291 53.161 9.10968 53.8392 9.22323L54.913 4.79484L56.0999 5.02194C58.3605 5.41936 60.6211 5.9871 62.7688 6.66839L63.8991 7.06581L62.8253 11.4942C63.447 11.7213 64.0121 11.9484 64.6338 12.1755L66.7249 8.14452L67.7987 8.65549C69.8898 9.62065 71.9244 10.6994 73.9024 11.8916L74.9197 12.5161L69.0986 23.7006ZM23.0379 13.4813L26.4854 20.0671C28.0679 19.1019 29.7068 18.3071 31.4023 17.569H31.4588C32.3631 17.1716 33.2673 16.831 34.1716 16.5471C36.3757 15.809 38.6364 15.1845 40.897 14.8439C41.8578 14.6735 42.8186 14.56 43.8359 14.5032C46.153 14.3329 48.4702 14.3329 50.7873 14.5032C51.7481 14.6168 52.7654 14.7303 53.7262 14.8439C55.9868 15.1845 58.2475 15.7523 60.4516 16.4903C61.3559 16.831 62.2601 17.1716 63.1644 17.5123C64.8599 18.2503 66.4988 19.1019 68.1378 20.0103L71.5853 13.4245C70.3984 12.7432 69.1551 12.0619 67.9117 11.4942L65.8206 15.4684L64.7468 15.0142L64.2947 14.8439C63.2209 14.3897 62.0906 13.9355 60.9602 13.5948L59.8299 13.1974L60.9037 8.82581C59.5473 8.42839 58.2475 8.08775 56.8911 7.80388L55.8173 12.1755L54.6304 12.0052C53.2741 11.7781 51.9177 11.6077 50.6178 11.4942L49.431 11.3806V6.89549C48.0746 6.83871 46.6617 6.83871 45.3053 6.89549V11.3806L44.1184 11.4942C43.2142 11.551 42.3664 11.6645 41.5187 11.7781C41.0666 11.8348 40.5579 11.8916 40.1058 12.0052L38.919 12.1755L37.8452 7.80388C36.4888 8.08775 35.1324 8.42839 33.8325 8.82581L34.9063 13.1974L33.776 13.5948C32.6457 13.9923 31.5153 14.3897 30.4415 14.8439L29.9894 15.0142L28.9156 15.4684L26.8245 11.4942C25.4681 12.0619 24.2248 12.7432 23.0379 13.4813Z" fill="var(--fg-color, #2A2859)" />
<path d="M47.2834 91.7161C27.3897 91.7161 11.2826 75.5355 11.2826 55.6077C11.2826 35.68 27.3897 19.4426 47.2268 19.4426C67.064 19.4426 83.2276 35.6232 83.2276 55.5509C83.2276 65.1458 79.441 74.3432 72.7156 81.1561C65.9902 87.9122 56.7781 91.7161 47.2834 91.7161ZM47.2834 22.111C28.8591 22.111 13.9388 37.0993 13.9388 55.5509C13.9388 74.0026 28.8591 89.0477 47.2268 89.0477C65.6511 89.0477 80.5713 74.0593 80.5713 55.6077C80.5713 46.751 77.0673 38.2348 70.7941 31.9329C64.5773 25.631 56.0999 22.0542 47.2834 22.111Z" fill="#2A2859"/>
<path d="M40.3319 45.2748C37.5061 41.471 38.2973 36.0206 42.0839 33.1819C45.8704 30.3432 51.296 31.1381 54.1218 34.9419C56.3824 38.0077 56.3824 42.209 54.1218 45.2748L56.0433 46.6942C57.4562 44.8206 58.2475 42.4929 58.2475 40.1084C58.2475 34.0335 53.3306 29.0942 47.2833 29.0942C41.2361 29.0942 36.3192 34.0335 36.3192 40.1084C36.3192 42.4929 37.1104 44.8206 38.5233 46.6942L40.3319 45.2748Z" fill="#2A2859"/>
<path d="M47.2268 47.8864C49.6005 47.8864 51.5221 45.9561 51.5221 43.5716V43.1174H52.935V40.3923C52.935 37.2129 50.3917 34.6581 47.2268 34.6581C44.0619 34.6581 41.5187 37.2129 41.5187 40.3923V43.1174H42.9316V43.5716C42.9316 45.9561 44.8532 47.8864 47.2268 47.8864ZM43.8924 40.449C43.8924 38.5755 45.3618 37.0993 47.2268 37.0993C49.0919 37.0993 50.5613 38.5755 50.5613 40.449V43.1742H49.544V43.6284C49.6005 44.9342 48.6397 46.0129 47.3399 46.0697C46.04 46.1264 44.9662 45.1613 44.9097 43.8555C44.9097 43.7987 44.9097 43.6852 44.9097 43.6284V43.1742H43.8924V40.449Z" fill="#2A2859"/>
<path d="M25.9768 57.1974H22.6988V60.5471H25.9768V57.1974Z" fill="#2A2859"/>
<path d="M73.8459 54.6426V56.4026H75.5414L70.9636 61.0013V52.9394L72.1504 54.1316L73.3938 52.8826L70.0593 49.5329L66.7249 52.8826L67.9682 54.1316L69.1551 52.9394V60.9445L64.5773 56.3458H66.2162V54.5858H61.5254V59.3548H63.2774V57.6516L66.8379 61.2852H59.6039L58.8692 60.6039L58.2475 54.6993C58.191 54.3587 57.8519 51.3497 55.3652 50.0439H55.3086L52.7654 49.0219L52.3698 48.8516L51.9742 48.9652C50.3917 49.3626 48.8093 49.5329 47.2268 49.4761C45.6444 49.5329 44.0054 49.3626 42.4795 48.9652L42.0839 48.8516L39.145 49.9871H39.0885C36.6018 51.2929 36.2062 54.3019 36.2062 54.6426L35.528 60.7742L34.9628 61.2284H32.4761C32.7022 60.4335 32.8152 59.6387 32.8152 58.8439C32.8152 54.1316 28.9721 50.3277 24.2813 50.3845C19.5904 50.3845 15.8039 54.2452 15.8604 58.9574C15.8604 63.1587 18.9122 66.6787 23.0379 67.36H23.151C23.377 67.4168 23.6031 67.4168 23.8292 67.4168L34.8498 68.5522C34.4542 72.2993 33.7195 75.9897 32.6457 79.6232L33.776 80.0206L34.9063 80.3613C36.0366 76.5574 36.8279 72.64 37.2235 68.7226L39.7102 66.6219L39.3146 82.0645L40.3319 82.2348C44.9662 83.0297 49.7135 83.0297 54.4044 82.2348L55.4217 82.0645L55.0261 66.6787L57.5128 68.7793C57.9084 72.6968 58.6996 76.6142 59.8299 80.418L62.0906 79.68C61.0168 76.0464 60.2821 72.3561 59.8864 68.609L70.9636 67.5871V63.7264L76.8413 57.8219V59.5252H78.5933V54.8129L73.8459 54.6426ZM47.2268 51.9174C48.9223 51.9742 50.6178 51.7471 52.3133 51.4064L54.3479 52.2013C55.7042 52.9393 55.9303 54.9264 55.9303 54.9264L56.439 59.5819H53.5566C52.4263 59.5819 51.2395 59.2981 50.2787 58.6735C49.544 58.1058 48.8658 57.4813 48.3006 56.7432L44.2315 51.7471C45.2488 51.8606 46.2661 51.9174 47.2268 51.9174ZM24.3378 65.0323H24.0552L23.4335 64.9755C20.0991 64.4645 17.7819 61.2852 18.3471 57.9355C18.8557 54.5858 22.0206 52.2581 25.3551 52.8258C28.6895 53.3368 31.0067 56.5161 30.4415 59.8658C29.9329 62.8181 27.3331 65.0323 24.3378 65.0323ZM39.7667 63.3858L36.3757 66.2813L29.5938 65.6C30.272 65.0322 30.8937 64.4077 31.4023 63.6697H35.8671L39.8232 60.32L39.7667 63.3858ZM39.9362 57.1406L38.1842 58.6168L38.5799 54.9832V54.9264C38.5799 54.9264 38.7494 52.9393 40.1623 52.2013L41.2926 51.7471L43.3272 54.2452L39.9362 57.1406ZM47.2833 80.418C45.4183 80.418 43.5533 80.3045 41.7448 80.0206L41.8578 74.9677L42.2534 58.2761L44.7966 56.1187L46.4921 58.2193C47.2268 59.1845 48.1311 60.0361 49.0919 60.7174C50.1092 61.3419 51.296 61.7393 52.4828 61.9097L52.935 80.0206C51.0699 80.2477 49.1484 80.3613 47.2833 80.418ZM68.5899 65.3161L58.3605 66.2813L53.2741 61.9664H57.0041L58.9257 63.6697H68.6464L68.5899 65.3161Z" fill="var(--fg-color, #2A2859)" />
</svg>
