<svg width="2118" height="458" viewBox="0 0 2118 458" fill="none" xmlns="http://www.w3.org/2000/svg">
<rect width="2118" height="458" fill="#F2F2F2"/>
<mask id="path-1-inside-1_5339_165350" fill="white">
<path d="M99 249H2019V353H99V249Z"/>
</mask>
<path d="M99 249H2019V353H99V249Z" fill="white"/>
<path d="M189.374 283.213L188.504 282.673C187.179 281.8 185.771 281.052 184.279 280.429C183.658 280.179 183.037 279.93 182.415 279.722C180.924 279.223 179.35 278.808 177.818 278.558C177.155 278.475 176.492 278.392 175.788 278.309C174.214 278.184 172.599 278.184 171.025 278.309C170.362 278.351 169.658 278.434 168.995 278.558C167.421 278.808 165.888 279.182 164.356 279.722C163.734 279.93 163.113 280.179 162.492 280.429C161.042 281.052 159.634 281.8 158.267 282.673L157.397 283.213L153.13 275.026L153.876 274.569C155.326 273.655 156.817 272.865 158.35 272.2L159.137 271.826L160.669 274.777C161.125 274.61 161.539 274.444 161.995 274.278L161.208 271.036L162.036 270.745C163.651 270.247 165.267 269.831 166.924 269.54L167.794 269.374L168.581 272.616L168.829 272.574C169.202 272.532 169.616 272.491 169.989 272.449V269.125L170.859 269.083C171.687 269.042 172.557 269 173.386 269C174.214 269 175.084 269.042 175.912 269.083L176.782 269.125V272.449C177.238 272.491 177.693 272.532 178.19 272.616L178.977 269.374L179.847 269.54C181.504 269.831 183.161 270.247 184.735 270.745L185.563 271.036L184.776 274.278C185.232 274.444 185.646 274.61 186.102 274.777L187.635 271.826L188.422 272.2C189.954 272.906 191.445 273.696 192.895 274.569L193.641 275.026L189.374 283.213ZM155.616 275.732L158.142 280.553C159.302 279.847 160.503 279.265 161.746 278.725H161.787C162.45 278.434 163.113 278.184 163.776 277.977C165.391 277.436 167.048 276.979 168.705 276.73C169.409 276.605 170.113 276.522 170.859 276.481C172.557 276.356 174.255 276.356 175.954 276.481C176.658 276.564 177.403 276.647 178.108 276.73C179.764 276.979 181.421 277.395 183.037 277.935C183.7 278.184 184.362 278.434 185.025 278.683C186.268 279.223 187.469 279.847 188.67 280.512L191.197 275.691C190.327 275.192 189.416 274.694 188.504 274.278L186.972 277.187L186.185 276.855L185.853 276.73C185.066 276.397 184.238 276.065 183.41 275.816L182.581 275.525L183.368 272.325C182.374 272.034 181.421 271.784 180.427 271.577L179.64 274.777L178.77 274.652C177.776 274.486 176.782 274.361 175.829 274.278L174.96 274.195V270.912C173.965 270.87 172.93 270.87 171.936 270.912V274.195L171.066 274.278C170.403 274.319 169.782 274.403 169.161 274.486C168.829 274.527 168.456 274.569 168.125 274.652L167.255 274.777L166.468 271.577C165.474 271.784 164.48 272.034 163.527 272.325L164.314 275.525L163.486 275.816C162.657 276.106 161.829 276.397 161.042 276.73L160.711 276.855L159.924 277.187L158.391 274.278C157.397 274.694 156.486 275.192 155.616 275.732Z" fill="#2A2859"/>
<path d="M173.386 333C158.805 333 147 321.156 147 306.569C147 291.982 158.805 280.096 173.344 280.096C187.883 280.096 199.73 291.94 199.73 306.527C199.73 313.551 196.954 320.283 192.025 325.27C187.096 330.216 180.344 333 173.386 333ZM173.386 282.049C159.882 282.049 148.947 293.021 148.947 306.527C148.947 320.034 159.882 331.047 173.344 331.047C186.848 331.047 197.783 320.075 197.783 306.569C197.783 300.086 195.215 293.852 190.617 289.239C186.061 284.626 179.847 282.008 173.386 282.049Z" fill="#2A2859"/>
<path d="M168.291 299.005C166.22 296.221 166.8 292.231 169.575 290.153C172.35 288.075 176.326 288.657 178.398 291.442C180.054 293.686 180.054 296.761 178.398 299.005L179.806 300.044C180.841 298.673 181.421 296.969 181.421 295.223C181.421 290.777 177.818 287.161 173.386 287.161C168.953 287.161 165.35 290.777 165.35 295.223C165.35 296.969 165.93 298.673 166.965 300.044L168.291 299.005Z" fill="#2A2859"/>
<path d="M173.344 300.917C175.084 300.917 176.492 299.504 176.492 297.758V297.426H177.528V295.431C177.528 293.104 175.664 291.234 173.344 291.234C171.025 291.234 169.161 293.104 169.161 295.431V297.426H170.196V297.758C170.196 299.504 171.604 300.917 173.344 300.917ZM170.9 295.473C170.9 294.101 171.977 293.021 173.344 293.021C174.711 293.021 175.788 294.101 175.788 295.473V297.468H175.042V297.8C175.084 298.756 174.38 299.545 173.427 299.587C172.474 299.629 171.687 298.922 171.646 297.966C171.646 297.925 171.646 297.842 171.646 297.8V297.468H170.9V295.473Z" fill="#2A2859"/>
<path d="M157.77 307.732H155.367V310.184H157.77V307.732Z" fill="#2A2859"/>
<path d="M192.854 305.862V307.151H194.096L190.741 310.517V304.616L191.611 305.488L192.522 304.574L190.078 302.122L187.635 304.574L188.546 305.488L189.416 304.616V310.475L186.061 307.109H187.262V305.821H183.824V309.312H185.108V308.065L187.717 310.725H182.415L181.877 310.226L181.421 305.904C181.38 305.655 181.131 303.452 179.309 302.496H179.267L177.403 301.748L177.113 301.623L176.824 301.706C175.664 301.997 174.504 302.122 173.344 302.081C172.184 302.122 170.983 301.997 169.865 301.706L169.575 301.623L167.421 302.455H167.379C165.557 303.41 165.267 305.613 165.267 305.862L164.77 310.351L164.356 310.683H162.533C162.699 310.101 162.782 309.519 162.782 308.938C162.782 305.488 159.965 302.704 156.527 302.745C153.089 302.745 150.314 305.571 150.355 309.021C150.355 312.096 152.592 314.673 155.616 315.171H155.699C155.864 315.213 156.03 315.213 156.196 315.213L164.273 316.044C163.983 318.787 163.444 321.488 162.657 324.148L163.486 324.439L164.314 324.688C165.143 321.904 165.723 319.036 166.012 316.169L167.835 314.631L167.545 325.935L168.291 326.06C171.687 326.642 175.167 326.642 178.605 326.06L179.35 325.935L179.06 314.673L180.883 316.21C181.173 319.078 181.753 321.945 182.581 324.73L184.238 324.19C183.451 321.53 182.912 318.829 182.623 316.086L190.741 315.338V312.512L195.049 308.19V309.436H196.333V305.987L192.854 305.862ZM173.344 303.868C174.587 303.909 175.829 303.743 177.072 303.494L178.563 304.075C179.557 304.616 179.723 306.07 179.723 306.07L180.096 309.478H177.983C177.155 309.478 176.285 309.27 175.581 308.813C175.042 308.397 174.545 307.94 174.131 307.4L171.149 303.743C171.894 303.826 172.64 303.868 173.344 303.868ZM156.568 313.468H156.361L155.906 313.426C153.462 313.052 151.763 310.725 152.178 308.273C152.55 305.821 154.87 304.117 157.314 304.532C159.758 304.906 161.456 307.234 161.042 309.686C160.669 311.847 158.764 313.468 156.568 313.468ZM167.876 312.262L165.391 314.382L160.421 313.883C160.918 313.468 161.373 313.01 161.746 312.47H165.018L167.918 310.018L167.876 312.262ZM168.001 307.691L166.717 308.771L167.007 306.112V306.07C167.007 306.07 167.131 304.616 168.166 304.075L168.995 303.743L170.486 305.571L168.001 307.691ZM173.386 324.73C172.019 324.73 170.652 324.647 169.326 324.439L169.409 320.74L169.699 308.522L171.563 306.943L172.806 308.481C173.344 309.187 174.007 309.81 174.711 310.309C175.457 310.766 176.326 311.057 177.196 311.182L177.528 324.439C176.161 324.605 174.752 324.688 173.386 324.73ZM189.001 313.675L181.504 314.382L177.776 311.223H180.51L181.918 312.47H189.043L189.001 313.675Z" fill="#2A2859"/>
<path d="M223.438 315.957C228.31 315.957 232.283 312.026 232.283 305.473C232.283 299.138 228.31 295.261 223.438 295.261C218.54 295.261 214.567 299.138 214.567 305.473C214.567 312.026 218.54 315.957 223.438 315.957ZM223.438 313.664C220.009 313.664 217.097 310.934 217.097 305.473C217.097 300.012 219.901 297.555 223.438 297.555C226.949 297.555 229.752 300.012 229.752 305.473C229.752 310.934 226.84 313.664 223.438 313.664Z" fill="#2A2859"/>
<path d="M235.495 305.09C235.495 307.084 236.937 308.449 239.604 308.995L242.081 309.486C243.741 309.841 244.448 310.497 244.448 311.698C244.448 313.063 243.061 313.964 240.992 313.964C238.951 313.964 237.509 313.172 236.774 311.698L234.978 312.654C236.012 314.783 238.108 315.93 241.047 315.93C244.421 315.93 246.707 314.155 246.707 311.562C246.707 309.377 245.21 307.985 242.081 307.357L239.985 306.947C238.434 306.619 237.754 305.992 237.754 304.927C237.754 303.698 238.978 302.961 240.829 302.961C242.598 302.961 243.904 303.671 244.503 304.954L246.272 304.053C245.51 302.142 243.55 300.968 240.883 300.968C237.699 300.968 235.495 302.742 235.495 305.09Z" fill="#2A2859"/>
<path d="M255.348 315.657V313.637C255.048 313.719 254.749 313.746 254.477 313.746C253.334 313.746 252.654 313.145 252.654 311.889V295.507H250.313V311.998C250.313 314.347 251.483 315.848 253.933 315.848C254.422 315.848 254.858 315.766 255.348 315.657Z" fill="#2A2859"/>
<path d="M264.285 315.957C267.905 315.957 270.871 313.009 270.871 308.422C270.871 303.916 267.932 300.968 264.285 300.968C260.611 300.968 257.672 303.916 257.672 308.422C257.672 313.009 260.639 315.957 264.285 315.957ZM264.285 313.91C261.972 313.91 260.094 312.108 260.094 308.422C260.094 304.736 261.999 303.015 264.285 303.015C266.544 303.015 268.449 304.736 268.449 308.422C268.449 312.108 266.571 313.91 264.285 313.91Z" fill="#2A2859"/>
<rect x="1242" y="278" width="226" height="46" fill="white"/>
<path d="M1266.33 297.208C1266.33 294.976 1268.37 293.536 1270.72 293.536C1272.9 293.536 1274.38 294.472 1275.04 296.146L1273.86 296.632C1273.32 295.354 1272.11 294.652 1270.72 294.652C1268.89 294.652 1267.59 295.588 1267.59 297.064C1267.59 298.306 1268.33 299.062 1269.9 299.368L1271.98 299.764C1274.04 300.16 1275.55 301.258 1275.55 303.256C1275.55 305.308 1273.82 307.144 1270.9 307.144C1268.6 307.144 1266.87 306.352 1265.94 304.372L1267.09 303.904C1267.99 305.668 1269.48 306.028 1270.94 306.028C1273.12 306.028 1274.29 304.768 1274.29 303.328C1274.29 301.726 1273.21 301.258 1271.59 300.952L1269.68 300.592C1267.83 300.25 1266.33 299.224 1266.33 297.208ZM1284.16 298.18C1285.22 299.026 1285.9 300.43 1285.9 302.212C1285.9 305.2 1284.01 307.144 1281.66 307.144C1280.99 307.144 1280.36 306.982 1279.8 306.694L1279.21 307.864H1278.34L1279.15 306.28C1278.09 305.434 1277.41 304.012 1277.41 302.212C1277.41 299.26 1279.28 297.316 1281.66 297.316C1282.32 297.316 1282.95 297.478 1283.51 297.748L1284.1 296.596H1284.97L1284.16 298.18ZM1278.67 302.212C1278.67 303.598 1279.06 304.606 1279.68 305.254L1283.01 298.738C1282.59 298.504 1282.14 298.396 1281.66 298.396C1280.04 298.396 1278.67 299.674 1278.67 302.212ZM1281.66 306.064C1283.29 306.064 1284.64 304.768 1284.64 302.212C1284.64 300.844 1284.25 299.854 1283.64 299.206L1280.31 305.722C1280.7 305.956 1281.17 306.064 1281.66 306.064ZM1294.13 307L1290.62 302.266L1289.45 303.382V307H1288.23V293.68H1289.45V301.942L1293.99 297.46H1295.61L1291.45 301.456L1295.68 307H1294.13Z" fill="#808080"/>
<rect x="1242" y="278" width="226" height="46" stroke="#F9C66B" stroke-width="2"/>
<circle cx="1493" cy="301" r="24" fill="#F9C66B"/>
<path fill-rule="evenodd" clip-rule="evenodd" d="M1491.5 292C1487.36 292 1484 295.358 1484 299.5C1484 303.642 1487.36 307 1491.5 307C1493.29 307 1494.93 306.374 1496.22 305.33L1500.89 310L1502 308.889L1497.33 304.219C1498.37 302.93 1499 301.288 1499 299.5C1499 295.358 1495.64 292 1491.5 292ZM1491.5 293.481C1494.82 293.481 1497.52 296.176 1497.52 299.5C1497.52 302.824 1494.82 305.519 1491.5 305.519C1488.18 305.519 1485.48 302.824 1485.48 299.5C1485.49 296.178 1488.18 293.485 1491.5 293.481Z" fill="#2A2859"/>
<path d="M1578.86 293.68H1580.93V307H1578.81V297.226L1575.17 303.004H1574.33L1570.67 297.208V307H1568.57V293.68H1570.62L1574.74 300.232L1578.86 293.68ZM1590.31 303.994L1591.68 304.786C1591.14 305.974 1589.88 307.162 1587.7 307.162C1584.88 307.162 1583.17 305.074 1583.17 302.14C1583.17 299.242 1585.02 297.244 1587.56 297.244C1589.81 297.244 1591.66 298.756 1591.66 301.456L1591.63 302.644H1585.15C1585.26 304.66 1586.25 305.524 1587.83 305.524C1589 305.524 1589.81 304.894 1590.31 303.994ZM1587.56 298.828C1586.34 298.828 1585.31 299.476 1585.15 301.204H1589.7C1589.72 299.512 1588.68 298.828 1587.56 298.828ZM1598.76 297.244C1600.7 297.244 1601.85 298.504 1601.85 300.574V307H1599.84V300.898C1599.84 299.584 1599.21 298.99 1598.11 298.99C1596.69 298.99 1595.97 299.98 1595.97 301.834V307H1593.95V297.46H1595.97V298.828C1596.61 297.82 1597.57 297.244 1598.76 297.244ZM1610.58 297.46H1612.69L1608.82 307.738C1608.06 309.736 1607.14 310.996 1605.18 310.996C1604.39 310.996 1603.63 310.744 1603.08 310.276L1603.83 308.872C1604.19 309.196 1604.55 309.358 1605.02 309.358C1605.76 309.358 1606.3 308.998 1606.69 308.026L1607.02 307.27L1603.36 297.46H1605.61L1608.1 305.056L1610.58 297.46Z" fill="#2A2859"/>
<path d="M1623.5 293.5H1644.5V295H1623.5V293.5Z" fill="#2A2859"/>
<path d="M1623.5 300.25H1644.5V301.75H1623.5V300.25Z" fill="#2A2859"/>
<path d="M1623.5 307H1644.5V308.5H1623.5V307Z" fill="#2A2859"/>
<rect x="1550" y="278" width="113" height="46" stroke="#2A2859" stroke-width="2"/>
<path d="M1723.36 307L1719.13 300.898L1717.67 302.446V307H1715.57V293.68H1717.67V299.818L1723.29 293.68H1725.88L1720.48 299.458L1725.95 307H1723.36ZM1730.54 307.18C1728.05 307.18 1726.02 305.236 1726.02 302.176C1726.02 299.188 1728.04 297.244 1730.54 297.244C1733.04 297.244 1735.06 299.188 1735.06 302.176C1735.06 305.236 1733.02 307.18 1730.54 307.18ZM1730.54 305.47C1731.89 305.47 1732.99 304.426 1732.99 302.176C1732.99 299.908 1731.87 298.954 1730.54 298.954C1729.21 298.954 1728.09 299.908 1728.09 302.176C1728.09 304.426 1729.21 305.47 1730.54 305.47ZM1741.98 297.244C1743.92 297.244 1745.07 298.504 1745.07 300.574V307H1743.06V300.898C1743.06 299.584 1742.43 298.99 1741.33 298.99C1739.91 298.99 1739.19 299.98 1739.19 301.834V307H1737.17V297.46H1739.19V298.828C1739.84 297.82 1740.79 297.244 1741.98 297.244ZM1750.39 304.048C1750.39 305.11 1751.04 305.434 1751.71 305.434C1752.23 305.434 1752.64 305.218 1753.06 304.804L1753.92 306.1C1753.2 306.82 1752.41 307.162 1751.38 307.162C1749.73 307.162 1748.38 306.154 1748.38 304.174V299.026H1746.7V297.46H1748.38V295.336L1750.39 294.418V297.46H1753.76V299.026H1750.39V304.048ZM1763.09 307H1761.24C1761.09 306.514 1761 305.938 1760.97 305.2C1760.52 306.19 1759.51 307.162 1757.85 307.162C1756.12 307.162 1754.9 305.992 1754.9 304.336C1754.9 302.266 1756.74 301.24 1758.79 301.24C1759.44 301.24 1760.05 301.294 1760.71 301.474V300.574C1760.71 299.548 1760.07 298.882 1758.9 298.882C1757.8 298.882 1757.02 299.476 1756.66 300.592L1754.95 300.07C1755.64 298.054 1757.28 297.244 1758.99 297.244C1761.52 297.244 1762.68 298.738 1762.68 300.556V304.246C1762.68 305.38 1762.86 306.388 1763.09 307ZM1760.71 303.058V302.842C1760.14 302.644 1759.58 302.572 1758.99 302.572C1757.8 302.572 1756.88 303.112 1756.88 304.156C1756.88 305.038 1757.51 305.596 1758.46 305.596C1759.44 305.596 1760.71 305.02 1760.71 303.058ZM1771.52 307L1768.62 302.626L1767.52 303.706V307H1765.5V293.68H1767.52V301.42L1771.37 297.46H1773.86L1769.95 301.312L1773.93 307H1771.52ZM1777.92 304.048C1777.92 305.11 1778.57 305.434 1779.23 305.434C1779.75 305.434 1780.17 305.218 1780.58 304.804L1781.45 306.1C1780.73 306.82 1779.93 307.162 1778.91 307.162C1777.25 307.162 1775.9 306.154 1775.9 304.174V299.026H1774.23V297.46H1775.9V295.336L1777.92 294.418V297.46H1781.28V299.026H1777.92V304.048Z" fill="#2A2859"/>
<rect x="1697" y="278" width="102" height="46" stroke="#F9C66B" stroke-width="2"/>
<path d="M1861.86 293.68H1863.93V307H1861.81V297.226L1858.17 303.004H1857.33L1853.67 297.208V307H1851.57V293.68H1853.62L1857.74 300.232L1861.86 293.68ZM1867.77 295.876C1866.98 295.876 1866.35 295.264 1866.35 294.454C1866.35 293.644 1866.98 293.032 1867.77 293.032C1868.56 293.032 1869.17 293.644 1869.17 294.454C1869.17 295.264 1868.56 295.876 1867.77 295.876ZM1866.76 307V297.46H1868.78V307H1866.76ZM1876.47 297.244C1878.41 297.244 1879.56 298.504 1879.56 300.574V307H1877.55V300.898C1877.55 299.584 1876.92 298.99 1875.82 298.99C1874.4 298.99 1873.68 299.98 1873.68 301.834V307H1871.66V297.46H1873.68V298.828C1874.32 297.82 1875.28 297.244 1876.47 297.244ZM1886.19 300.088C1886.19 298.468 1887.68 297.244 1889.93 297.244C1891.79 297.244 1893.03 297.91 1893.7 299.188L1892.29 300.052C1891.86 299.314 1891 298.864 1889.92 298.864C1888.84 298.864 1888.1 299.278 1888.1 299.962C1888.1 300.52 1888.48 300.862 1889.32 301.024L1890.92 301.348C1892.94 301.744 1893.95 302.698 1893.95 304.156C1893.95 305.956 1892.38 307.162 1890.02 307.162C1888.03 307.162 1886.6 306.406 1885.87 305.02L1887.27 304.138C1887.79 305.02 1888.71 305.524 1889.97 305.524C1891.19 305.524 1892.02 305.038 1892.02 304.246C1892.02 303.598 1891.63 303.238 1890.74 303.058L1888.98 302.716C1887.18 302.374 1886.19 301.456 1886.19 300.088ZM1895.79 293.32H1898.25V295.75H1895.79V293.32ZM1896.02 307V297.46H1898.04V307H1896.02ZM1907.27 293.68H1909.29V307H1907.27V305.272C1906.53 306.604 1905.38 307.144 1904.28 307.144C1901.98 307.144 1900.32 305.164 1900.32 302.266C1900.32 299.26 1902 297.262 1904.52 297.262C1905.6 297.262 1906.68 297.748 1907.27 298.918V293.68ZM1904.82 305.38C1906.28 305.38 1907.27 304.39 1907.27 302.158C1907.27 299.944 1906.3 298.882 1904.82 298.882C1903.44 298.882 1902.41 299.998 1902.41 302.158C1902.41 304.3 1903.44 305.38 1904.82 305.38ZM1918.48 303.994L1919.85 304.786C1919.31 305.974 1918.05 307.162 1915.87 307.162C1913.05 307.162 1911.34 305.074 1911.34 302.14C1911.34 299.242 1913.19 297.244 1915.73 297.244C1917.98 297.244 1919.83 298.756 1919.83 301.456L1919.8 302.644H1913.32C1913.43 304.66 1914.42 305.524 1916 305.524C1917.17 305.524 1917.98 304.894 1918.48 303.994ZM1915.73 298.828C1914.51 298.828 1913.48 299.476 1913.32 301.204H1917.87C1917.89 299.512 1916.85 298.828 1915.73 298.828Z" fill="#2A2859"/>
<path d="M1941 301C1942.53 301 1943.78 299.758 1943.78 298.225C1943.78 296.692 1942.53 295.45 1941 295.45C1939.47 295.45 1938.23 296.692 1938.23 298.225C1938.23 299.758 1939.47 301 1941 301Z" fill="#2A2859"/>
<path fill-rule="evenodd" clip-rule="evenodd" d="M1929.75 301C1929.75 294.787 1934.79 289.75 1941 289.75C1947.21 289.75 1952.25 294.787 1952.25 301C1952.25 307.213 1947.21 312.25 1941 312.25C1934.79 312.25 1929.75 307.213 1929.75 301ZM1937.77 304L1935.81 309.237C1937.31 310.19 1939.09 310.75 1941 310.75C1942.91 310.75 1944.69 310.19 1946.19 309.237L1944.23 304H1937.77ZM1945.27 302.5L1947.44 308.298C1949.47 306.509 1950.75 303.905 1950.75 301C1950.75 295.624 1946.38 291.25 1941 291.25C1935.62 291.25 1931.25 295.624 1931.25 301C1931.25 303.905 1932.53 306.509 1934.56 308.298L1936.73 302.5H1945.27Z" fill="#2A2859"/>
<path d="M2019 352H99V354H2019V352Z" fill="#F2F2F2" mask="url(#path-1-inside-1_5339_165350)"/>
<mask id="path-15-inside-2_5339_165350" fill="white">
<path d="M99 105H2019V209H99V105Z"/>
</mask>
<path d="M99 105H2019V209H99V105Z" fill="white"/>
<path d="M189.374 139.213L188.504 138.673C187.179 137.8 185.771 137.052 184.279 136.429C183.658 136.179 183.037 135.93 182.415 135.722C180.924 135.223 179.35 134.808 177.818 134.558C177.155 134.475 176.492 134.392 175.788 134.309C174.214 134.184 172.599 134.184 171.025 134.309C170.362 134.351 169.658 134.434 168.995 134.558C167.421 134.808 165.888 135.182 164.356 135.722C163.734 135.93 163.113 136.179 162.492 136.429C161.042 137.052 159.634 137.8 158.267 138.673L157.397 139.213L153.13 131.026L153.876 130.569C155.326 129.655 156.817 128.865 158.35 128.2L159.137 127.826L160.669 130.777C161.125 130.61 161.539 130.444 161.995 130.278L161.208 127.036L162.036 126.745C163.651 126.247 165.267 125.831 166.924 125.54L167.794 125.374L168.581 128.616L168.829 128.574C169.202 128.532 169.616 128.491 169.989 128.449V125.125L170.859 125.083C171.687 125.042 172.557 125 173.386 125C174.214 125 175.084 125.042 175.912 125.083L176.782 125.125V128.449C177.238 128.491 177.693 128.532 178.19 128.616L178.977 125.374L179.847 125.54C181.504 125.831 183.161 126.247 184.735 126.745L185.563 127.036L184.776 130.278C185.232 130.444 185.646 130.61 186.102 130.777L187.635 127.826L188.422 128.2C189.954 128.906 191.445 129.696 192.895 130.569L193.641 131.026L189.374 139.213ZM155.616 131.732L158.142 136.553C159.302 135.847 160.503 135.265 161.746 134.725H161.787C162.45 134.434 163.113 134.184 163.776 133.977C165.391 133.436 167.048 132.979 168.705 132.73C169.409 132.605 170.113 132.522 170.859 132.481C172.557 132.356 174.255 132.356 175.954 132.481C176.658 132.564 177.403 132.647 178.108 132.73C179.764 132.979 181.421 133.395 183.037 133.935C183.7 134.184 184.362 134.434 185.025 134.683C186.268 135.223 187.469 135.847 188.67 136.512L191.197 131.691C190.327 131.192 189.416 130.694 188.504 130.278L186.972 133.187L186.185 132.855L185.853 132.73C185.066 132.397 184.238 132.065 183.41 131.816L182.581 131.525L183.368 128.325C182.374 128.034 181.421 127.784 180.427 127.577L179.64 130.777L178.77 130.652C177.776 130.486 176.782 130.361 175.829 130.278L174.96 130.195V126.912C173.965 126.87 172.93 126.87 171.936 126.912V130.195L171.066 130.278C170.403 130.319 169.782 130.403 169.161 130.486C168.829 130.527 168.456 130.569 168.125 130.652L167.255 130.777L166.468 127.577C165.474 127.784 164.48 128.034 163.527 128.325L164.314 131.525L163.486 131.816C162.657 132.106 161.829 132.397 161.042 132.73L160.711 132.855L159.924 133.187L158.391 130.278C157.397 130.694 156.486 131.192 155.616 131.732Z" fill="#2A2859"/>
<path d="M173.386 189C158.805 189 147 177.156 147 162.569C147 147.982 158.805 136.096 173.344 136.096C187.883 136.096 199.73 147.94 199.73 162.527C199.73 169.551 196.954 176.283 192.025 181.27C187.096 186.216 180.344 189 173.386 189ZM173.386 138.049C159.882 138.049 148.947 149.021 148.947 162.527C148.947 176.034 159.882 187.047 173.344 187.047C186.848 187.047 197.783 176.075 197.783 162.569C197.783 156.086 195.215 149.852 190.617 145.239C186.061 140.626 179.847 138.008 173.386 138.049Z" fill="#2A2859"/>
<path d="M168.291 155.005C166.22 152.221 166.8 148.231 169.575 146.153C172.35 144.075 176.326 144.657 178.398 147.442C180.054 149.686 180.054 152.761 178.398 155.005L179.806 156.044C180.841 154.673 181.421 152.969 181.421 151.223C181.421 146.777 177.818 143.161 173.386 143.161C168.953 143.161 165.35 146.777 165.35 151.223C165.35 152.969 165.93 154.673 166.965 156.044L168.291 155.005Z" fill="#2A2859"/>
<path d="M173.344 156.917C175.084 156.917 176.492 155.504 176.492 153.758V153.426H177.528V151.431C177.528 149.104 175.664 147.234 173.344 147.234C171.025 147.234 169.161 149.104 169.161 151.431V153.426H170.196V153.758C170.196 155.504 171.604 156.917 173.344 156.917ZM170.9 151.473C170.9 150.101 171.977 149.021 173.344 149.021C174.711 149.021 175.788 150.101 175.788 151.473V153.468H175.042V153.8C175.084 154.756 174.38 155.545 173.427 155.587C172.474 155.629 171.687 154.922 171.646 153.966C171.646 153.925 171.646 153.842 171.646 153.8V153.468H170.9V151.473Z" fill="#2A2859"/>
<path d="M157.77 163.732H155.367V166.184H157.77V163.732Z" fill="#2A2859"/>
<path d="M192.854 161.862V163.151H194.096L190.741 166.517V160.616L191.611 161.488L192.522 160.574L190.078 158.122L187.635 160.574L188.546 161.488L189.416 160.616V166.475L186.061 163.109H187.262V161.821H183.824V165.312H185.108V164.065L187.717 166.725H182.415L181.877 166.226L181.421 161.904C181.38 161.655 181.131 159.452 179.309 158.496H179.267L177.403 157.748L177.113 157.623L176.824 157.706C175.664 157.997 174.504 158.122 173.344 158.081C172.184 158.122 170.983 157.997 169.865 157.706L169.575 157.623L167.421 158.455H167.379C165.557 159.41 165.267 161.613 165.267 161.862L164.77 166.351L164.356 166.683H162.533C162.699 166.101 162.782 165.519 162.782 164.938C162.782 161.488 159.965 158.704 156.527 158.745C153.089 158.745 150.314 161.571 150.355 165.021C150.355 168.096 152.592 170.673 155.616 171.171H155.699C155.864 171.213 156.03 171.213 156.196 171.213L164.273 172.044C163.983 174.787 163.444 177.488 162.657 180.148L163.486 180.439L164.314 180.688C165.143 177.904 165.723 175.036 166.012 172.169L167.835 170.631L167.545 181.935L168.291 182.06C171.687 182.642 175.167 182.642 178.605 182.06L179.35 181.935L179.06 170.673L180.883 172.21C181.173 175.078 181.753 177.945 182.581 180.73L184.238 180.19C183.451 177.53 182.912 174.829 182.623 172.086L190.741 171.338V168.512L195.049 164.19V165.436H196.333V161.987L192.854 161.862ZM173.344 159.868C174.587 159.909 175.829 159.743 177.072 159.494L178.563 160.075C179.557 160.616 179.723 162.07 179.723 162.07L180.096 165.478H177.983C177.155 165.478 176.285 165.27 175.581 164.813C175.042 164.397 174.545 163.94 174.131 163.4L171.149 159.743C171.894 159.826 172.64 159.868 173.344 159.868ZM156.568 169.468H156.361L155.906 169.426C153.462 169.052 151.763 166.725 152.178 164.273C152.55 161.821 154.87 160.117 157.314 160.532C159.758 160.906 161.456 163.234 161.042 165.686C160.669 167.847 158.764 169.468 156.568 169.468ZM167.876 168.262L165.391 170.382L160.421 169.883C160.918 169.468 161.373 169.01 161.746 168.47H165.018L167.918 166.018L167.876 168.262ZM168.001 163.691L166.717 164.771L167.007 162.112V162.07C167.007 162.07 167.131 160.616 168.166 160.075L168.995 159.743L170.486 161.571L168.001 163.691ZM173.386 180.73C172.019 180.73 170.652 180.647 169.326 180.439L169.409 176.74L169.699 164.522L171.563 162.943L172.806 164.481C173.344 165.187 174.007 165.81 174.711 166.309C175.457 166.766 176.326 167.057 177.196 167.182L177.528 180.439C176.161 180.605 174.752 180.688 173.386 180.73ZM189.001 169.675L181.504 170.382L177.776 167.223H180.51L181.918 168.47H189.043L189.001 169.675Z" fill="#2A2859"/>
<path d="M223.438 171.957C228.31 171.957 232.283 168.026 232.283 161.473C232.283 155.138 228.31 151.261 223.438 151.261C218.54 151.261 214.567 155.138 214.567 161.473C214.567 168.026 218.54 171.957 223.438 171.957ZM223.438 169.664C220.009 169.664 217.097 166.934 217.097 161.473C217.097 156.012 219.901 153.555 223.438 153.555C226.949 153.555 229.752 156.012 229.752 161.473C229.752 166.934 226.84 169.664 223.438 169.664Z" fill="#2A2859"/>
<path d="M235.495 161.09C235.495 163.084 236.937 164.449 239.604 164.995L242.081 165.486C243.741 165.841 244.448 166.497 244.448 167.698C244.448 169.063 243.061 169.964 240.992 169.964C238.951 169.964 237.509 169.172 236.774 167.698L234.978 168.654C236.012 170.783 238.108 171.93 241.047 171.93C244.421 171.93 246.707 170.155 246.707 167.562C246.707 165.377 245.21 163.985 242.081 163.357L239.985 162.947C238.434 162.619 237.754 161.992 237.754 160.927C237.754 159.698 238.978 158.961 240.829 158.961C242.598 158.961 243.904 159.671 244.503 160.954L246.272 160.053C245.51 158.142 243.55 156.968 240.883 156.968C237.699 156.968 235.495 158.742 235.495 161.09Z" fill="#2A2859"/>
<path d="M255.348 171.657V169.637C255.048 169.719 254.749 169.746 254.477 169.746C253.334 169.746 252.654 169.145 252.654 167.889V151.507H250.313V167.998C250.313 170.347 251.483 171.848 253.933 171.848C254.422 171.848 254.858 171.766 255.348 171.657Z" fill="#2A2859"/>
<path d="M264.285 171.957C267.905 171.957 270.871 169.009 270.871 164.422C270.871 159.916 267.932 156.968 264.285 156.968C260.611 156.968 257.672 159.916 257.672 164.422C257.672 169.009 260.639 171.957 264.285 171.957ZM264.285 169.91C261.972 169.91 260.094 168.108 260.094 164.422C260.094 160.736 261.999 159.015 264.285 159.015C266.544 159.015 268.449 160.736 268.449 164.422C268.449 168.108 266.571 169.91 264.285 169.91Z" fill="#2A2859"/>
<path d="M308.119 154.24H309.751V172H308.263L298.615 157.312V172H296.983V154.24H298.615L308.119 168.808V154.24ZM323.207 172H321.719C321.527 171.304 321.383 170.464 321.383 169.504C320.735 170.992 319.079 172.192 317.015 172.192C314.759 172.192 313.055 170.728 313.055 168.544C313.055 165.928 315.407 164.56 318.023 164.56C319.055 164.56 320.063 164.68 321.095 165.04V163.36C321.095 161.704 320.087 160.576 318.119 160.576C316.535 160.576 315.191 161.272 314.519 163.216L313.079 162.784C314.039 160.096 315.983 159.088 318.215 159.088C321.359 159.088 322.679 160.984 322.679 163.168V168.4C322.679 169.84 322.919 171.136 323.207 172ZM321.095 166.72V166.432C320.111 166.024 319.103 165.904 318.119 165.904C316.199 165.904 314.687 166.768 314.687 168.448C314.687 169.984 315.767 170.8 317.303 170.8C318.959 170.8 321.095 169.816 321.095 166.72ZM334.249 159.28H335.929L330.937 172H329.497L324.505 159.28H326.281L330.265 170.2L334.249 159.28ZM343.546 159.088C346.09 159.088 347.578 160.648 347.578 163.504V172H345.946V163.744C345.946 161.44 344.89 160.576 343.114 160.576C340.882 160.576 339.85 162.304 339.85 164.848V172H338.218V159.28H339.85V161.248C340.618 159.856 342.01 159.088 343.546 159.088ZM363.055 159.112C366.295 159.112 368.479 161.824 368.479 165.52C368.479 169.432 366.271 172.192 362.863 172.192C361.087 172.192 359.647 171.304 358.879 169.696V177.04H357.247V159.28H358.879V161.656C359.719 160.024 361.399 159.112 363.055 159.112ZM362.863 170.752C365.239 170.752 366.799 168.928 366.799 165.592C366.799 162.376 365.239 160.552 362.887 160.552C360.343 160.552 358.879 162.448 358.879 165.568C358.879 168.88 360.319 170.752 362.863 170.752ZM376.138 157.936C374.578 157.936 373.306 156.784 373.306 155.2C373.306 153.616 374.578 152.464 376.138 152.464C377.698 152.464 378.97 153.616 378.97 155.2C378.97 156.784 377.698 157.936 376.138 157.936ZM376.138 153.568C375.226 153.568 374.506 154.144 374.506 155.2C374.506 156.28 375.226 156.832 376.138 156.832C377.05 156.832 377.77 156.28 377.77 155.2C377.77 154.144 377.05 153.568 376.138 153.568ZM381.082 172H379.594C379.402 171.304 379.258 170.464 379.258 169.504C378.61 170.992 376.954 172.192 374.89 172.192C372.634 172.192 370.93 170.728 370.93 168.544C370.93 165.928 373.282 164.56 375.898 164.56C376.93 164.56 377.938 164.68 378.97 165.04V163.36C378.97 161.704 377.962 160.576 375.994 160.576C374.41 160.576 373.066 161.272 372.394 163.216L370.954 162.784C371.914 160.096 373.858 159.088 376.09 159.088C379.234 159.088 380.554 160.984 380.554 163.168V168.4C380.554 169.84 380.794 171.136 381.082 172ZM378.97 166.72V166.432C377.986 166.024 376.978 165.904 375.994 165.904C374.074 165.904 372.562 166.768 372.562 168.448C372.562 169.984 373.642 170.8 375.178 170.8C376.834 170.8 378.97 169.816 378.97 166.72ZM392.965 168.832C392.965 170.32 393.853 170.752 394.645 170.752C395.413 170.752 395.917 170.464 396.517 169.84L397.381 170.8C396.541 171.784 395.629 172.192 394.501 172.192C392.773 172.192 391.333 171.04 391.333 168.784V160.624H388.933V159.28H391.333V156.544L392.965 155.584V159.28H397.093V160.624H392.965V168.832ZM400.457 156.976C399.665 156.976 399.017 156.352 399.017 155.536C399.017 154.72 399.665 154.096 400.457 154.096C401.249 154.096 401.897 154.72 401.897 155.536C401.897 156.352 401.249 156.976 400.457 156.976ZM398.537 177.208C398.105 177.208 397.697 177.136 397.289 177.016L397.433 175.576C397.769 175.696 398.081 175.72 398.297 175.72C399.425 175.72 399.641 174.952 399.641 173.848V159.28H401.273V173.944C401.273 176.104 400.337 177.208 398.537 177.208ZM413.896 168.4L415.096 169.072C414.496 170.608 412.912 172.192 410.08 172.192C406.504 172.192 404.392 169.528 404.392 165.472C404.392 161.752 406.6 159.088 409.912 159.088C412.648 159.088 415 161.056 415 164.512L414.952 165.928H406.048C406.192 169.312 407.8 170.752 410.248 170.752C412.168 170.752 413.296 169.648 413.896 168.4ZM409.912 160.528C407.992 160.528 406.264 161.56 406.048 164.584H413.392C413.464 161.728 411.784 160.528 409.912 160.528ZM423.579 159.088C426.123 159.088 427.611 160.648 427.611 163.504V172H425.979V163.744C425.979 161.44 424.923 160.576 423.147 160.576C420.915 160.576 419.883 162.304 419.883 164.848V172H418.251V159.28H419.883V161.248C420.651 159.856 422.043 159.088 423.579 159.088ZM440.028 168.4L441.228 169.072C440.628 170.608 439.044 172.192 436.212 172.192C432.636 172.192 430.524 169.528 430.524 165.472C430.524 161.752 432.732 159.088 436.044 159.088C438.78 159.088 441.132 161.056 441.132 164.512L441.084 165.928H432.18C432.324 169.312 433.932 170.752 436.38 170.752C438.3 170.752 439.428 169.648 440.028 168.4ZM436.044 160.528C434.124 160.528 432.396 161.56 432.18 164.584H439.524C439.596 161.728 437.916 160.528 436.044 160.528ZM443.758 162.592C443.758 160.576 445.654 159.088 448.318 159.088C450.622 159.088 452.398 160.192 452.926 161.872L451.582 162.4C451.078 161.176 449.902 160.528 448.27 160.528C446.494 160.528 445.342 161.272 445.342 162.448C445.342 163.504 446.038 164.152 447.55 164.464L449.23 164.8C452.014 165.352 453.31 166.552 453.31 168.448C453.31 170.656 451.342 172.192 448.51 172.192C445.942 172.192 444.142 171.184 443.278 169.264L444.67 168.688C445.27 170.032 446.59 170.752 448.462 170.752C450.43 170.752 451.726 169.888 451.726 168.592C451.726 167.392 451.054 166.744 449.374 166.384L447.31 165.952C444.982 165.472 443.758 164.296 443.758 162.592ZM458.632 168.832C458.632 170.32 459.52 170.752 460.312 170.752C461.08 170.752 461.584 170.464 462.184 169.84L463.048 170.8C462.208 171.784 461.296 172.192 460.168 172.192C458.44 172.192 457 171.04 457 168.784V160.624H454.6V159.28H457V156.544L458.632 155.584V159.28H462.76V160.624H458.632V168.832ZM473.6 168.4L474.8 169.072C474.2 170.608 472.616 172.192 469.784 172.192C466.208 172.192 464.096 169.528 464.096 165.472C464.096 161.752 466.304 159.088 469.616 159.088C472.352 159.088 474.704 161.056 474.704 164.512L474.656 165.928H465.752C465.896 169.312 467.504 170.752 469.952 170.752C471.872 170.752 473 169.648 473.6 168.4ZM469.616 160.528C467.696 160.528 465.968 161.56 465.752 164.584H473.096C473.168 161.728 471.488 160.528 469.616 160.528ZM483.282 159.088C485.826 159.088 487.314 160.648 487.314 163.504V172H485.682V163.744C485.682 161.44 484.626 160.576 482.85 160.576C480.618 160.576 479.586 162.304 479.586 164.848V172H477.954V159.28H479.586V161.248C480.354 159.856 481.746 159.088 483.282 159.088Z" fill="#2A2859"/>
<path d="M1595.86 149.68H1597.93V163H1595.81V153.226L1592.17 159.004H1591.33L1587.67 153.208V163H1585.57V149.68H1587.62L1591.74 156.232L1595.86 149.68ZM1607.31 159.994L1608.68 160.786C1608.14 161.974 1606.88 163.162 1604.7 163.162C1601.88 163.162 1600.17 161.074 1600.17 158.14C1600.17 155.242 1602.02 153.244 1604.56 153.244C1606.81 153.244 1608.66 154.756 1608.66 157.456L1608.63 158.644H1602.15C1602.26 160.66 1603.25 161.524 1604.83 161.524C1606 161.524 1606.81 160.894 1607.31 159.994ZM1604.56 154.828C1603.34 154.828 1602.31 155.476 1602.15 157.204H1606.7C1606.72 155.512 1605.68 154.828 1604.56 154.828ZM1615.76 153.244C1617.7 153.244 1618.85 154.504 1618.85 156.574V163H1616.84V156.898C1616.84 155.584 1616.21 154.99 1615.11 154.99C1613.69 154.99 1612.97 155.98 1612.97 157.834V163H1610.95V153.46H1612.97V154.828C1613.61 153.82 1614.57 153.244 1615.76 153.244ZM1627.58 153.46H1629.69L1625.82 163.738C1625.06 165.736 1624.14 166.996 1622.18 166.996C1621.39 166.996 1620.63 166.744 1620.08 166.276L1620.83 164.872C1621.19 165.196 1621.55 165.358 1622.02 165.358C1622.76 165.358 1623.3 164.998 1623.69 164.026L1624.02 163.27L1620.36 153.46H1622.61L1625.1 161.056L1627.58 153.46Z" fill="#2A2859"/>
<path d="M1640.5 149.5H1661.5V151H1640.5V149.5Z" fill="#2A2859"/>
<path d="M1640.5 156.25H1661.5V157.75H1640.5V156.25Z" fill="#2A2859"/>
<path d="M1640.5 163H1661.5V164.5H1640.5V163Z" fill="#2A2859"/>
<rect x="1567" y="134" width="113" height="46" stroke="#2A2859" stroke-width="2"/>
<path d="M1743 157C1744.53 157 1745.78 155.758 1745.78 154.225C1745.78 152.692 1744.53 151.45 1743 151.45C1741.47 151.45 1740.23 152.692 1740.23 154.225C1740.23 155.758 1741.47 157 1743 157Z" fill="#2A2859"/>
<path fill-rule="evenodd" clip-rule="evenodd" d="M1731.75 157C1731.75 150.787 1736.79 145.75 1743 145.75C1749.21 145.75 1754.25 150.787 1754.25 157C1754.25 163.213 1749.21 168.25 1743 168.25C1736.79 168.25 1731.75 163.213 1731.75 157ZM1739.77 160L1737.81 165.237C1739.31 166.19 1741.09 166.75 1743 166.75C1744.91 166.75 1746.69 166.19 1748.19 165.237L1746.23 160H1739.77ZM1747.27 158.5L1749.44 164.298C1751.47 162.509 1752.75 159.905 1752.75 157C1752.75 151.624 1748.38 147.25 1743 147.25C1737.62 147.25 1733.25 151.624 1733.25 157C1733.25 159.905 1734.53 162.509 1736.56 164.298L1738.73 158.5H1747.27Z" fill="#2A2859"/>
<path d="M1772.94 163L1771.93 159.76H1766.78L1765.74 163H1763.52L1768.15 149.68H1770.69L1775.29 163H1772.94ZM1767.37 157.906H1771.33L1769.37 151.624L1767.37 157.906ZM1783.08 163L1780.19 158.626L1779.09 159.706V163H1777.07V149.68H1779.09V157.42L1782.94 153.46H1785.42L1781.52 157.312L1785.5 163H1783.08ZM1786.11 156.088C1786.11 154.468 1787.6 153.244 1789.85 153.244C1791.7 153.244 1792.95 153.91 1793.61 155.188L1792.21 156.052C1791.78 155.314 1790.91 154.864 1789.83 154.864C1788.75 154.864 1788.01 155.278 1788.01 155.962C1788.01 156.52 1788.39 156.862 1789.24 157.024L1790.84 157.348C1792.86 157.744 1793.86 158.698 1793.86 160.156C1793.86 161.956 1792.3 163.162 1789.94 163.162C1787.94 163.162 1786.52 162.406 1785.78 161.02L1787.19 160.138C1787.71 161.02 1788.63 161.524 1789.89 161.524C1791.11 161.524 1791.94 161.038 1791.94 160.246C1791.94 159.598 1791.54 159.238 1790.66 159.058L1788.9 158.716C1787.1 158.374 1786.11 157.456 1786.11 156.088ZM1802.3 159.994L1803.66 160.786C1803.12 161.974 1801.86 163.162 1799.69 163.162C1796.86 163.162 1795.15 161.074 1795.15 158.14C1795.15 155.242 1797 153.244 1799.54 153.244C1801.79 153.244 1803.65 154.756 1803.65 157.456L1803.61 158.644H1797.13C1797.24 160.66 1798.23 161.524 1799.81 161.524C1800.98 161.524 1801.79 160.894 1802.3 159.994ZM1799.54 154.828C1798.32 154.828 1797.29 155.476 1797.13 157.204H1801.68C1801.7 155.512 1800.66 154.828 1799.54 154.828ZM1809.77 162.946C1809.39 163.054 1809.01 163.108 1808.62 163.108C1806.8 163.108 1805.93 162.028 1805.93 160.282V149.68H1807.95V160.138C1807.95 160.966 1808.44 161.344 1809.17 161.344C1809.35 161.344 1809.55 161.326 1809.77 161.272V162.946ZM1831.11 149.68H1833.27L1829.58 163H1827.38L1824.39 152.812L1821.24 163H1819.05L1815.38 149.68H1817.72L1820.27 160.174L1823.31 149.68H1825.51L1828.55 160.156L1831.11 149.68ZM1840.89 159.994L1842.26 160.786C1841.72 161.974 1840.46 163.162 1838.28 163.162C1835.45 163.162 1833.74 161.074 1833.74 158.14C1833.74 155.242 1835.6 153.244 1838.14 153.244C1840.39 153.244 1842.24 154.756 1842.24 157.456L1842.2 158.644H1835.72C1835.83 160.66 1836.82 161.524 1838.41 161.524C1839.58 161.524 1840.39 160.894 1840.89 159.994ZM1838.14 154.828C1836.91 154.828 1835.89 155.476 1835.72 157.204H1840.28C1840.3 155.512 1839.25 154.828 1838.14 154.828ZM1849.55 153.262C1851.85 153.262 1853.51 155.224 1853.51 158.14C1853.51 161.128 1851.83 163.144 1849.31 163.144C1848.22 163.144 1847.15 162.658 1846.54 161.47V163H1844.53V149.68H1846.54V155.17C1847.28 153.82 1848.45 153.262 1849.55 153.262ZM1849.01 161.488C1850.39 161.488 1851.42 160.372 1851.42 158.23C1851.42 156.088 1850.39 154.99 1849.01 154.99C1847.53 154.99 1846.54 155.998 1846.54 158.212C1846.54 160.426 1847.53 161.488 1849.01 161.488ZM1865.43 163.18C1862.12 163.18 1859.44 160.624 1859.44 156.214C1859.44 152.056 1862.12 149.5 1865.43 149.5C1868.75 149.5 1871.43 152.056 1871.43 156.214C1871.43 160.624 1868.75 163.18 1865.43 163.18ZM1865.43 161.2C1867.49 161.2 1869.23 159.598 1869.23 156.232C1869.23 152.956 1867.54 151.48 1865.43 151.48C1863.33 151.48 1861.64 152.956 1861.64 156.232C1861.64 159.598 1863.38 161.2 1865.43 161.2ZM1878.55 153.262C1880.85 153.262 1882.51 155.224 1882.51 158.14C1882.51 161.128 1880.84 163.144 1878.32 163.144C1877.24 163.144 1876.17 162.676 1875.56 161.506V166.78H1873.55V153.46H1875.56V155.134C1876.3 153.802 1877.45 153.262 1878.55 153.262ZM1878.01 161.488C1879.4 161.488 1880.42 160.372 1880.42 158.23C1880.42 156.088 1879.4 154.99 1878.01 154.99C1876.53 154.99 1875.56 155.998 1875.56 158.212C1875.56 160.426 1876.53 161.488 1878.01 161.488ZM1890.98 149.68H1893V163H1890.98V161.272C1890.25 162.604 1889.09 163.144 1888 163.144C1885.69 163.144 1884.04 161.164 1884.04 158.266C1884.04 155.26 1885.71 153.262 1888.23 153.262C1889.31 153.262 1890.39 153.748 1890.98 154.918V149.68ZM1888.54 161.38C1889.99 161.38 1890.98 160.39 1890.98 158.158C1890.98 155.944 1890.01 154.882 1888.54 154.882C1887.15 154.882 1886.12 155.998 1886.12 158.158C1886.12 160.3 1887.15 161.38 1888.54 161.38ZM1903.33 163H1901.48C1901.33 162.514 1901.24 161.938 1901.21 161.2C1900.76 162.19 1899.75 163.162 1898.09 163.162C1896.37 163.162 1895.14 161.992 1895.14 160.336C1895.14 158.266 1896.98 157.24 1899.03 157.24C1899.68 157.24 1900.29 157.294 1900.96 157.474V156.574C1900.96 155.548 1900.31 154.882 1899.14 154.882C1898.04 154.882 1897.27 155.476 1896.91 156.592L1895.2 156.07C1895.88 154.054 1897.52 153.244 1899.23 153.244C1901.77 153.244 1902.92 154.738 1902.92 156.556V160.246C1902.92 161.38 1903.1 162.388 1903.33 163ZM1900.96 159.058V158.842C1900.38 158.644 1899.82 158.572 1899.23 158.572C1898.04 158.572 1897.12 159.112 1897.12 160.156C1897.12 161.038 1897.75 161.596 1898.71 161.596C1899.68 161.596 1900.96 161.02 1900.96 159.058ZM1910.57 153.244C1912.51 153.244 1913.67 154.504 1913.67 156.574V163H1911.65V156.898C1911.65 155.584 1911.02 154.99 1909.92 154.99C1908.5 154.99 1907.76 155.98 1907.76 157.834V163H1905.75V149.68H1907.76V154.846C1908.41 153.82 1909.38 153.244 1910.57 153.244ZM1920.23 162.946C1919.85 163.054 1919.47 163.108 1919.07 163.108C1917.26 163.108 1916.39 162.028 1916.39 160.282V149.68H1918.41V160.138C1918.41 160.966 1918.89 161.344 1919.63 161.344C1919.81 161.344 1920.01 161.326 1920.23 161.272V162.946Z" fill="#2A2859"/>
<path fill-rule="evenodd" clip-rule="evenodd" d="M1941 159.56L1933.75 152.5L1932.75 153.47L1941 161.5L1949.25 153.47L1948.25 152.5L1941 159.56Z" fill="#2A2859"/>
<rect x="1714" y="134" width="256" height="46" stroke="#F9C66B" stroke-width="2"/>
<path d="M2019 208H99V210H2019V208Z" fill="#F2F2F2" mask="url(#path-15-inside-2_5339_165350)"/>
</svg>
