<svg width="1451" height="436" viewBox="0 0 1451 436" fill="none" xmlns="http://www.w3.org/2000/svg">
<rect width="1451" height="436" fill="#F2F2F2"/>
<rect width="375" height="112" transform="translate(538.5 162)" fill="white"/>
<path fill-rule="evenodd" clip-rule="evenodd" d="M582.5 194.75C579.601 194.75 577.25 197.101 577.25 200C577.25 202.899 579.601 205.25 582.5 205.25C585.399 205.25 587.75 202.899 587.75 200C587.75 197.101 585.399 194.75 582.5 194.75ZM578.75 200C578.75 197.929 580.429 196.25 582.5 196.25C584.571 196.25 586.25 197.929 586.25 200C586.25 202.071 584.571 203.75 582.5 203.75C580.429 203.75 578.75 202.071 578.75 200Z" fill="#2A2859"/>
<path fill-rule="evenodd" clip-rule="evenodd" d="M580.5 188.75H584.5L585.084 191.376C585.674 191.553 586.238 191.788 586.77 192.076L589.041 190.631L591.869 193.459L590.424 195.73C590.712 196.262 590.947 196.826 591.124 197.416L593.75 198V202L591.124 202.584C590.947 203.174 590.712 203.738 590.424 204.27L591.869 206.541L589.041 209.369L586.77 207.924C586.238 208.212 585.674 208.447 585.084 208.624L584.5 211.25H580.5L579.916 208.624C579.326 208.447 578.762 208.212 578.23 207.924L575.959 209.369L573.131 206.541L574.576 204.27C574.288 203.738 574.053 203.174 573.876 202.584L571.25 202V198L573.876 197.416C574.053 196.826 574.288 196.262 574.576 195.73L573.131 193.459L575.959 190.631L578.23 192.076C578.762 191.788 579.326 191.553 579.916 191.376L580.5 188.75ZM580.346 192.813L581.19 192.561L581.703 190.25H583.297L583.81 192.561L584.654 192.813C585.144 192.96 585.614 193.156 586.058 193.395L586.833 193.814L588.831 192.542L589.958 193.669L588.686 195.667L589.104 196.442C589.344 196.886 589.54 197.356 589.687 197.846L589.939 198.69L592.25 199.203V200.797L589.939 201.31L589.687 202.154C589.54 202.644 589.344 203.114 589.104 203.558L588.686 204.333L589.958 206.331L588.831 207.458L586.833 206.186L586.058 206.605C585.614 206.844 585.144 207.04 584.654 207.187L583.81 207.439L583.297 209.75H581.703L581.19 207.439L580.346 207.187C579.856 207.04 579.386 206.844 578.942 206.605L578.167 206.186L576.169 207.458L575.042 206.331L576.314 204.333L575.895 203.558C575.656 203.114 575.46 202.644 575.313 202.154L575.061 201.31L572.75 200.797V199.203L575.061 198.69L575.313 197.846C575.46 197.356 575.656 196.886 575.896 196.442L576.314 195.667L575.042 193.669L576.169 192.542L578.167 193.814L578.942 193.395C579.386 193.156 579.856 192.96 580.346 192.813Z" fill="#2A2859"/>
<path d="M604.084 206V192.68H605.344V206H604.084ZM612.274 196.316C614.182 196.316 615.298 197.486 615.298 199.628V206H614.074V199.808C614.074 198.08 613.282 197.432 611.95 197.432C610.276 197.432 609.502 198.728 609.502 200.636V206H608.278V196.46H609.502V197.936C610.078 196.892 611.122 196.316 612.274 196.316ZM622.04 196.316C623.948 196.316 625.064 197.486 625.064 199.628V206H623.84V199.808C623.84 198.08 623.048 197.432 621.716 197.432C620.042 197.432 619.268 198.728 619.268 200.636V206H618.044V196.46H619.268V197.936C619.844 196.892 620.888 196.316 622.04 196.316ZM627.343 198.944C627.343 197.432 628.765 196.316 630.763 196.316C632.491 196.316 633.823 197.144 634.219 198.404L633.211 198.8C632.833 197.882 631.951 197.396 630.727 197.396C629.395 197.396 628.531 197.954 628.531 198.836C628.531 199.628 629.053 200.114 630.187 200.348L631.447 200.6C633.535 201.014 634.507 201.914 634.507 203.336C634.507 204.992 633.031 206.144 630.907 206.144C628.981 206.144 627.631 205.388 626.983 203.948L628.027 203.516C628.477 204.524 629.467 205.064 630.871 205.064C632.347 205.064 633.319 204.416 633.319 203.444C633.319 202.544 632.815 202.058 631.555 201.788L630.007 201.464C628.261 201.104 627.343 200.222 627.343 198.944ZM638.449 203.624C638.449 204.74 639.115 205.064 639.709 205.064C640.285 205.064 640.663 204.848 641.113 204.38L641.761 205.1C641.131 205.838 640.447 206.144 639.601 206.144C638.305 206.144 637.225 205.28 637.225 203.588V197.468H635.425V196.46H637.225V194.408L638.449 193.688V196.46H641.545V197.468H638.449V203.624ZM644.265 194.732C643.671 194.732 643.185 194.264 643.185 193.652C643.185 193.04 643.671 192.572 644.265 192.572C644.859 192.572 645.345 193.04 645.345 193.652C645.345 194.264 644.859 194.732 644.265 194.732ZM643.653 206V196.46H644.877V206H643.653ZM650.766 205.964C650.478 206.036 650.244 206.072 649.974 206.072C648.48 206.072 647.778 205.136 647.778 203.732V192.68H649.002V203.732C649.002 204.542 649.434 204.956 650.19 204.956C650.388 204.956 650.586 204.938 650.766 204.884V205.964ZM655.786 205.964C655.498 206.036 655.264 206.072 654.994 206.072C653.5 206.072 652.798 205.136 652.798 203.732V192.68H654.022V203.732C654.022 204.542 654.454 204.956 655.21 204.956C655.408 204.956 655.606 204.938 655.786 204.884V205.964ZM657.495 192.752H659.367V194.588H657.495V192.752ZM657.819 206V196.46H659.043V206H657.819ZM665.939 196.316C667.847 196.316 668.963 197.486 668.963 199.628V206H667.739V199.808C667.739 198.08 666.947 197.432 665.615 197.432C663.941 197.432 663.167 198.728 663.167 200.636V206H661.943V196.46H663.167V197.936C663.743 196.892 664.787 196.316 665.939 196.316ZM680.278 197.468H678.226V197.81C678.694 198.386 678.946 199.106 678.946 199.808C678.946 201.554 677.686 203.336 675.004 203.336H674.59C673.51 203.336 672.736 203.75 672.736 204.38C672.736 204.866 673.114 205.208 673.906 205.208H677.776C679.324 205.208 680.116 205.964 680.116 207.152C680.116 209.042 677.938 210.032 675.256 210.032C672.844 210.032 671.17 209.258 670.594 207.584L671.584 207.134C672.25 208.7 673.654 209.006 675.256 209.006C677.236 209.006 678.892 208.412 678.892 207.26C678.892 206.72 678.604 206.324 677.74 206.324H673.636C672.304 206.324 671.512 205.694 671.512 204.704C671.512 203.858 672.214 203.12 673.384 202.814C672.124 202.31 671.422 200.978 671.422 199.808C671.422 198.098 672.7 196.316 675.22 196.316C676.21 196.316 676.966 196.64 677.542 197.126V196.46H680.278V197.468ZM675.202 202.328C676.894 202.328 677.74 201.158 677.74 199.808C677.74 198.476 676.894 197.36 675.202 197.36C673.492 197.36 672.628 198.494 672.628 199.808C672.628 201.14 673.492 202.328 675.202 202.328ZM687.782 203.3L688.682 203.804C688.232 204.956 687.044 206.144 684.92 206.144C682.238 206.144 680.654 204.146 680.654 201.104C680.654 198.314 682.31 196.316 684.794 196.316C686.846 196.316 688.61 197.792 688.61 200.384L688.574 201.446H681.896C682.004 203.984 683.21 205.064 685.046 205.064C686.486 205.064 687.332 204.236 687.782 203.3ZM684.794 197.396C683.354 197.396 682.058 198.17 681.896 200.438H687.404C687.458 198.296 686.198 197.396 684.794 197.396ZM694.418 196.316C695.66 196.316 696.56 197.144 696.56 198.764V199.7L695.444 199.916V198.98C695.444 198.026 695.12 197.396 694.148 197.396C693.05 197.396 692.222 198.206 692.222 200.132V206H690.998V196.46H692.222V197.648C692.726 196.748 693.572 196.316 694.418 196.316Z" fill="#2A2859"/>
<path d="M582.229 225.631V227.472H577.004L576.981 231.056L578.481 231.066L578.494 228.972H582.229V243.009H578.506L578.539 239.565L577.039 239.539L577.027 239.998H577.034L576.992 244.509H582.229V246.369L591.218 244.371V227.629L582.229 225.631ZM589.718 243.168L583.731 244.498V227.502L589.718 228.832L589.718 243.168Z" fill="#2A2859"/>
<path d="M577.808 238.698L581.022 235.243L577.566 232.028L576.545 233.127L578.001 234.481L573.783 234.48L573.782 235.98L578.286 235.981L576.709 237.676L577.808 238.698Z" fill="#2A2859"/>
<path d="M586.951 235.991L585.352 235.996L585.356 237.496L586.956 237.491L586.951 235.991Z" fill="#2A2859"/>
<path d="M605.344 240.812H611.536V242H604.084V228.68H605.344V240.812ZM616.73 242.144C614.372 242.144 612.482 240.2 612.482 237.212C612.482 234.26 614.354 232.316 616.73 232.316C619.106 232.316 620.978 234.26 620.978 237.212C620.978 240.2 619.088 242.144 616.73 242.144ZM616.73 241.064C618.368 241.064 619.718 239.768 619.718 237.212C619.718 234.674 618.35 233.396 616.73 233.396C615.11 233.396 613.742 234.674 613.742 237.212C613.742 239.768 615.092 241.064 616.73 241.064ZM631.288 233.468H629.236V233.81C629.704 234.386 629.956 235.106 629.956 235.808C629.956 237.554 628.696 239.336 626.014 239.336H625.6C624.52 239.336 623.746 239.75 623.746 240.38C623.746 240.866 624.124 241.208 624.916 241.208H628.786C630.334 241.208 631.126 241.964 631.126 243.152C631.126 245.042 628.948 246.032 626.266 246.032C623.854 246.032 622.18 245.258 621.604 243.584L622.594 243.134C623.26 244.7 624.664 245.006 626.266 245.006C628.246 245.006 629.902 244.412 629.902 243.26C629.902 242.72 629.614 242.324 628.75 242.324H624.646C623.314 242.324 622.522 241.694 622.522 240.704C622.522 239.858 623.224 239.12 624.394 238.814C623.134 238.31 622.432 236.978 622.432 235.808C622.432 234.098 623.71 232.316 626.23 232.316C627.22 232.316 627.976 232.64 628.552 233.126V232.46H631.288V233.468ZM626.212 238.328C627.904 238.328 628.75 237.158 628.75 235.808C628.75 234.476 627.904 233.36 626.212 233.36C624.502 233.36 623.638 234.494 623.638 235.808C623.638 237.14 624.502 238.328 626.212 238.328ZM641.565 233.468H639.513V233.81C639.981 234.386 640.233 235.106 640.233 235.808C640.233 237.554 638.973 239.336 636.291 239.336H635.877C634.797 239.336 634.023 239.75 634.023 240.38C634.023 240.866 634.401 241.208 635.193 241.208H639.063C640.611 241.208 641.403 241.964 641.403 243.152C641.403 245.042 639.225 246.032 636.543 246.032C634.131 246.032 632.457 245.258 631.881 243.584L632.871 243.134C633.537 244.7 634.941 245.006 636.543 245.006C638.523 245.006 640.179 244.412 640.179 243.26C640.179 242.72 639.891 242.324 639.027 242.324H634.923C633.591 242.324 632.799 241.694 632.799 240.704C632.799 239.858 633.501 239.12 634.671 238.814C633.411 238.31 632.709 236.978 632.709 235.808C632.709 234.098 633.987 232.316 636.507 232.316C637.497 232.316 638.253 232.64 638.829 233.126V232.46H641.565V233.468ZM636.489 238.328C638.181 238.328 639.027 237.158 639.027 235.808C639.027 234.476 638.181 233.36 636.489 233.36C634.779 233.36 633.915 234.494 633.915 235.808C633.915 237.14 634.779 238.328 636.489 238.328ZM653.223 232.46H654.447V242H653.223V240.542C652.647 241.568 651.639 242.144 650.469 242.144C648.597 242.144 647.463 240.938 647.463 238.868V232.46H648.687V238.76C648.687 240.326 649.479 241.046 650.811 241.046C652.503 241.046 653.223 239.696 653.223 237.824V232.46ZM659.178 239.624C659.178 240.74 659.844 241.064 660.438 241.064C661.014 241.064 661.392 240.848 661.842 240.38L662.49 241.1C661.86 241.838 661.176 242.144 660.33 242.144C659.034 242.144 657.954 241.28 657.954 239.588V233.468H656.154V232.46H657.954V230.408L659.178 229.688V232.46H662.274V233.468H659.178V239.624Z" fill="#2A2859"/>
</svg>
