<svg width="2174" height="304" viewBox="0 0 2174 304" fill="none" xmlns="http://www.w3.org/2000/svg">
<g clip-path="url(#clip0_5508_16930)">
<rect width="2174" height="304" fill="white"/>
<rect width="2174" height="304" fill="#F2F2F2"/>
<mask id="path-1-inside-1_5508_16930" fill="white">
<path d="M127 100H2047V204H127V100Z"/>
</mask>
<path d="M127 100H2047V204H127V100Z" fill="white"/>
<path d="M217.374 134.213L216.504 133.673C215.179 132.8 213.771 132.052 212.279 131.429C211.658 131.179 211.037 130.93 210.415 130.722C208.924 130.223 207.35 129.808 205.818 129.558C205.155 129.475 204.492 129.392 203.788 129.309C202.214 129.184 200.599 129.184 199.025 129.309C198.362 129.351 197.658 129.434 196.995 129.558C195.421 129.808 193.888 130.182 192.356 130.722C191.734 130.93 191.113 131.179 190.492 131.429C189.042 132.052 187.634 132.8 186.267 133.673L185.397 134.213L181.13 126.026L181.876 125.569C183.326 124.655 184.817 123.865 186.35 123.2L187.137 122.826L188.669 125.777C189.125 125.61 189.539 125.444 189.995 125.278L189.208 122.036L190.036 121.745C191.651 121.247 193.267 120.831 194.924 120.54L195.794 120.374L196.581 123.616L196.829 123.574C197.202 123.532 197.616 123.491 197.989 123.449V120.125L198.859 120.083C199.687 120.042 200.557 120 201.386 120C202.214 120 203.084 120.042 203.912 120.083L204.782 120.125V123.449C205.238 123.491 205.693 123.532 206.19 123.616L206.977 120.374L207.847 120.54C209.504 120.831 211.161 121.247 212.735 121.745L213.563 122.036L212.776 125.278C213.232 125.444 213.646 125.61 214.102 125.777L215.635 122.826L216.422 123.2C217.954 123.906 219.445 124.696 220.895 125.569L221.641 126.026L217.374 134.213ZM183.616 126.732L186.142 131.553C187.302 130.847 188.503 130.265 189.746 129.725H189.787C190.45 129.434 191.113 129.184 191.776 128.977C193.391 128.436 195.048 127.979 196.705 127.73C197.409 127.605 198.113 127.522 198.859 127.481C200.557 127.356 202.255 127.356 203.954 127.481C204.658 127.564 205.403 127.647 206.108 127.73C207.764 127.979 209.421 128.395 211.037 128.935C211.7 129.184 212.362 129.434 213.025 129.683C214.268 130.223 215.469 130.847 216.67 131.512L219.197 126.691C218.327 126.192 217.416 125.694 216.504 125.278L214.972 128.187L214.185 127.855L213.853 127.73C213.066 127.397 212.238 127.065 211.41 126.816L210.581 126.525L211.368 123.325C210.374 123.034 209.421 122.784 208.427 122.577L207.64 125.777L206.77 125.652C205.776 125.486 204.782 125.361 203.829 125.278L202.96 125.195V121.912C201.965 121.87 200.93 121.87 199.936 121.912V125.195L199.066 125.278C198.403 125.319 197.782 125.403 197.161 125.486C196.829 125.527 196.456 125.569 196.125 125.652L195.255 125.777L194.468 122.577C193.474 122.784 192.48 123.034 191.527 123.325L192.314 126.525L191.486 126.816C190.657 127.106 189.829 127.397 189.042 127.73L188.711 127.855L187.924 128.187L186.391 125.278C185.397 125.694 184.486 126.192 183.616 126.732Z" fill="#2A2859"/>
<path d="M201.386 184C186.805 184 175 172.156 175 157.569C175 142.982 186.805 131.096 201.344 131.096C215.883 131.096 227.73 142.94 227.73 157.527C227.73 164.551 224.954 171.283 220.025 176.27C215.096 181.216 208.344 184 201.386 184ZM201.386 133.049C187.882 133.049 176.947 144.021 176.947 157.527C176.947 171.034 187.882 182.047 201.344 182.047C214.848 182.047 225.783 171.075 225.783 157.569C225.783 151.086 223.215 144.852 218.617 140.239C214.061 135.626 207.847 133.008 201.386 133.049Z" fill="#2A2859"/>
<path d="M196.291 150.005C194.22 147.221 194.8 143.231 197.575 141.153C200.35 139.075 204.326 139.657 206.398 142.442C208.054 144.686 208.054 147.761 206.398 150.005L207.806 151.044C208.841 149.673 209.421 147.969 209.421 146.223C209.421 141.777 205.818 138.161 201.386 138.161C196.953 138.161 193.35 141.777 193.35 146.223C193.35 147.969 193.93 149.673 194.965 151.044L196.291 150.005Z" fill="#2A2859"/>
<path d="M201.344 151.917C203.084 151.917 204.492 150.504 204.492 148.758V148.426H205.528V146.431C205.528 144.104 203.664 142.234 201.344 142.234C199.025 142.234 197.161 144.104 197.161 146.431V148.426H198.196V148.758C198.196 150.504 199.604 151.917 201.344 151.917ZM198.9 146.473C198.9 145.101 199.977 144.021 201.344 144.021C202.711 144.021 203.788 145.101 203.788 146.473V148.468H203.042V148.8C203.084 149.756 202.38 150.545 201.427 150.587C200.474 150.629 199.687 149.922 199.646 148.966C199.646 148.925 199.646 148.842 199.646 148.8V148.468H198.9V146.473Z" fill="#2A2859"/>
<path d="M185.77 158.732H183.367V161.184H185.77V158.732Z" fill="#2A2859"/>
<path d="M220.854 156.862V158.151H222.096L218.741 161.517V155.616L219.611 156.488L220.522 155.574L218.078 153.122L215.635 155.574L216.546 156.488L217.416 155.616V161.475L214.061 158.109H215.262V156.821H211.824V160.312H213.108V159.065L215.717 161.725H210.415L209.877 161.226L209.421 156.904C209.38 156.655 209.131 154.452 207.309 153.496H207.267L205.403 152.748L205.113 152.623L204.824 152.706C203.664 152.997 202.504 153.122 201.344 153.081C200.184 153.122 198.983 152.997 197.865 152.706L197.575 152.623L195.421 153.455H195.379C193.557 154.41 193.267 156.613 193.267 156.862L192.77 161.351L192.356 161.683H190.533C190.699 161.101 190.782 160.519 190.782 159.938C190.782 156.488 187.965 153.704 184.527 153.745C181.089 153.745 178.314 156.571 178.355 160.021C178.355 163.096 180.592 165.673 183.616 166.171H183.699C183.864 166.213 184.03 166.213 184.196 166.213L192.273 167.044C191.983 169.787 191.444 172.488 190.657 175.148L191.486 175.439L192.314 175.688C193.143 172.904 193.723 170.036 194.012 167.169L195.835 165.631L195.545 176.935L196.291 177.06C199.687 177.642 203.167 177.642 206.605 177.06L207.35 176.935L207.06 165.673L208.883 167.21C209.173 170.078 209.753 172.945 210.581 175.73L212.238 175.19C211.451 172.53 210.912 169.829 210.623 167.086L218.741 166.338V163.512L223.049 159.19V160.436H224.333V156.987L220.854 156.862ZM201.344 154.868C202.587 154.909 203.829 154.743 205.072 154.494L206.563 155.075C207.557 155.616 207.723 157.07 207.723 157.07L208.096 160.478H205.983C205.155 160.478 204.285 160.27 203.581 159.813C203.042 159.397 202.545 158.94 202.131 158.4L199.149 154.743C199.894 154.826 200.64 154.868 201.344 154.868ZM184.568 164.468H184.361L183.906 164.426C181.462 164.052 179.763 161.725 180.178 159.273C180.55 156.821 182.87 155.117 185.314 155.532C187.758 155.906 189.456 158.234 189.042 160.686C188.669 162.847 186.764 164.468 184.568 164.468ZM195.876 163.262L193.391 165.382L188.421 164.883C188.918 164.468 189.373 164.01 189.746 163.47H193.018L195.918 161.018L195.876 163.262ZM196.001 158.691L194.717 159.771L195.007 157.112V157.07C195.007 157.07 195.131 155.616 196.166 155.075L196.995 154.743L198.486 156.571L196.001 158.691ZM201.386 175.73C200.019 175.73 198.652 175.647 197.326 175.439L197.409 171.74L197.699 159.522L199.563 157.943L200.806 159.481C201.344 160.187 202.007 160.81 202.711 161.309C203.457 161.766 204.326 162.057 205.196 162.182L205.528 175.439C204.161 175.605 202.752 175.688 201.386 175.73ZM217.001 164.675L209.504 165.382L205.776 162.223H208.51L209.918 163.47H217.043L217.001 164.675Z" fill="#2A2859"/>
<path d="M251.438 166.957C256.31 166.957 260.283 163.026 260.283 156.473C260.283 150.138 256.31 146.261 251.438 146.261C246.54 146.261 242.567 150.138 242.567 156.473C242.567 163.026 246.54 166.957 251.438 166.957ZM251.438 164.664C248.009 164.664 245.097 161.934 245.097 156.473C245.097 151.012 247.901 148.555 251.438 148.555C254.949 148.555 257.752 151.012 257.752 156.473C257.752 161.934 254.84 164.664 251.438 164.664Z" fill="#2A2859"/>
<path d="M263.495 156.09C263.495 158.084 264.937 159.449 267.604 159.995L270.081 160.486C271.741 160.841 272.448 161.497 272.448 162.698C272.448 164.063 271.061 164.964 268.992 164.964C266.951 164.964 265.509 164.172 264.774 162.698L262.978 163.654C264.012 165.783 266.108 166.93 269.047 166.93C272.421 166.93 274.707 165.155 274.707 162.562C274.707 160.377 273.21 158.985 270.081 158.357L267.985 157.947C266.434 157.619 265.754 156.992 265.754 155.927C265.754 154.698 266.978 153.961 268.829 153.961C270.598 153.961 271.904 154.671 272.503 155.954L274.272 155.053C273.51 153.142 271.55 151.968 268.883 151.968C265.699 151.968 263.495 153.742 263.495 156.09Z" fill="#2A2859"/>
<path d="M283.348 166.657V164.637C283.048 164.719 282.749 164.746 282.477 164.746C281.334 164.746 280.654 164.145 280.654 162.889V146.507H278.313V162.998C278.313 165.347 279.483 166.848 281.933 166.848C282.422 166.848 282.858 166.766 283.348 166.657Z" fill="#2A2859"/>
<path d="M292.285 166.957C295.905 166.957 298.871 164.009 298.871 159.422C298.871 154.916 295.932 151.968 292.285 151.968C288.611 151.968 285.672 154.916 285.672 159.422C285.672 164.009 288.639 166.957 292.285 166.957ZM292.285 164.91C289.972 164.91 288.094 163.108 288.094 159.422C288.094 155.736 289.999 154.015 292.285 154.015C294.544 154.015 296.449 155.736 296.449 159.422C296.449 163.108 294.571 164.91 292.285 164.91Z" fill="#2A2859"/>
<path d="M336.119 149.24H337.751V167H336.263L326.615 152.312V167H324.983V149.24H326.615L336.119 163.808V149.24ZM351.207 167H349.719C349.527 166.304 349.383 165.464 349.383 164.504C348.735 165.992 347.079 167.192 345.015 167.192C342.759 167.192 341.055 165.728 341.055 163.544C341.055 160.928 343.407 159.56 346.023 159.56C347.055 159.56 348.063 159.68 349.095 160.04V158.36C349.095 156.704 348.087 155.576 346.119 155.576C344.535 155.576 343.191 156.272 342.519 158.216L341.079 157.784C342.039 155.096 343.983 154.088 346.215 154.088C349.359 154.088 350.679 155.984 350.679 158.168V163.4C350.679 164.84 350.919 166.136 351.207 167ZM349.095 161.72V161.432C348.111 161.024 347.103 160.904 346.119 160.904C344.199 160.904 342.687 161.768 342.687 163.448C342.687 164.984 343.767 165.8 345.303 165.8C346.959 165.8 349.095 164.816 349.095 161.72ZM362.249 154.28H363.929L358.937 167H357.497L352.505 154.28H354.281L358.265 165.2L362.249 154.28ZM371.546 154.088C374.09 154.088 375.578 155.648 375.578 158.504V167H373.946V158.744C373.946 156.44 372.89 155.576 371.114 155.576C368.882 155.576 367.85 157.304 367.85 159.848V167H366.218V154.28H367.85V156.248C368.618 154.856 370.01 154.088 371.546 154.088ZM391.055 154.112C394.295 154.112 396.479 156.824 396.479 160.52C396.479 164.432 394.271 167.192 390.863 167.192C389.087 167.192 387.647 166.304 386.879 164.696V172.04H385.247V154.28H386.879V156.656C387.719 155.024 389.399 154.112 391.055 154.112ZM390.863 165.752C393.239 165.752 394.799 163.928 394.799 160.592C394.799 157.376 393.239 155.552 390.887 155.552C388.343 155.552 386.879 157.448 386.879 160.568C386.879 163.88 388.319 165.752 390.863 165.752ZM404.138 152.936C402.578 152.936 401.306 151.784 401.306 150.2C401.306 148.616 402.578 147.464 404.138 147.464C405.698 147.464 406.97 148.616 406.97 150.2C406.97 151.784 405.698 152.936 404.138 152.936ZM404.138 148.568C403.226 148.568 402.506 149.144 402.506 150.2C402.506 151.28 403.226 151.832 404.138 151.832C405.05 151.832 405.77 151.28 405.77 150.2C405.77 149.144 405.05 148.568 404.138 148.568ZM409.082 167H407.594C407.402 166.304 407.258 165.464 407.258 164.504C406.61 165.992 404.954 167.192 402.89 167.192C400.634 167.192 398.93 165.728 398.93 163.544C398.93 160.928 401.282 159.56 403.898 159.56C404.93 159.56 405.938 159.68 406.97 160.04V158.36C406.97 156.704 405.962 155.576 403.994 155.576C402.41 155.576 401.066 156.272 400.394 158.216L398.954 157.784C399.914 155.096 401.858 154.088 404.09 154.088C407.234 154.088 408.554 155.984 408.554 158.168V163.4C408.554 164.84 408.794 166.136 409.082 167ZM406.97 161.72V161.432C405.986 161.024 404.978 160.904 403.994 160.904C402.074 160.904 400.562 161.768 400.562 163.448C400.562 164.984 401.642 165.8 403.178 165.8C404.834 165.8 406.97 164.816 406.97 161.72ZM420.965 163.832C420.965 165.32 421.853 165.752 422.645 165.752C423.413 165.752 423.917 165.464 424.517 164.84L425.381 165.8C424.541 166.784 423.629 167.192 422.501 167.192C420.773 167.192 419.333 166.04 419.333 163.784V155.624H416.933V154.28H419.333V151.544L420.965 150.584V154.28H425.093V155.624H420.965V163.832ZM428.457 151.976C427.665 151.976 427.017 151.352 427.017 150.536C427.017 149.72 427.665 149.096 428.457 149.096C429.249 149.096 429.897 149.72 429.897 150.536C429.897 151.352 429.249 151.976 428.457 151.976ZM426.537 172.208C426.105 172.208 425.697 172.136 425.289 172.016L425.433 170.576C425.769 170.696 426.081 170.72 426.297 170.72C427.425 170.72 427.641 169.952 427.641 168.848V154.28H429.273V168.944C429.273 171.104 428.337 172.208 426.537 172.208ZM441.896 163.4L443.096 164.072C442.496 165.608 440.912 167.192 438.08 167.192C434.504 167.192 432.392 164.528 432.392 160.472C432.392 156.752 434.6 154.088 437.912 154.088C440.648 154.088 443 156.056 443 159.512L442.952 160.928H434.048C434.192 164.312 435.8 165.752 438.248 165.752C440.168 165.752 441.296 164.648 441.896 163.4ZM437.912 155.528C435.992 155.528 434.264 156.56 434.048 159.584H441.392C441.464 156.728 439.784 155.528 437.912 155.528ZM451.579 154.088C454.123 154.088 455.611 155.648 455.611 158.504V167H453.979V158.744C453.979 156.44 452.923 155.576 451.147 155.576C448.915 155.576 447.883 157.304 447.883 159.848V167H446.251V154.28H447.883V156.248C448.651 154.856 450.043 154.088 451.579 154.088ZM468.028 163.4L469.228 164.072C468.628 165.608 467.044 167.192 464.212 167.192C460.636 167.192 458.524 164.528 458.524 160.472C458.524 156.752 460.732 154.088 464.044 154.088C466.78 154.088 469.132 156.056 469.132 159.512L469.084 160.928H460.18C460.324 164.312 461.932 165.752 464.38 165.752C466.3 165.752 467.428 164.648 468.028 163.4ZM464.044 155.528C462.124 155.528 460.396 156.56 460.18 159.584H467.524C467.596 156.728 465.916 155.528 464.044 155.528ZM471.758 157.592C471.758 155.576 473.654 154.088 476.318 154.088C478.622 154.088 480.398 155.192 480.926 156.872L479.582 157.4C479.078 156.176 477.902 155.528 476.27 155.528C474.494 155.528 473.342 156.272 473.342 157.448C473.342 158.504 474.038 159.152 475.55 159.464L477.23 159.8C480.014 160.352 481.31 161.552 481.31 163.448C481.31 165.656 479.342 167.192 476.51 167.192C473.942 167.192 472.142 166.184 471.278 164.264L472.67 163.688C473.27 165.032 474.59 165.752 476.462 165.752C478.43 165.752 479.726 164.888 479.726 163.592C479.726 162.392 479.054 161.744 477.374 161.384L475.31 160.952C472.982 160.472 471.758 159.296 471.758 157.592ZM486.632 163.832C486.632 165.32 487.52 165.752 488.312 165.752C489.08 165.752 489.584 165.464 490.184 164.84L491.048 165.8C490.208 166.784 489.296 167.192 488.168 167.192C486.44 167.192 485 166.04 485 163.784V155.624H482.6V154.28H485V151.544L486.632 150.584V154.28H490.76V155.624H486.632V163.832ZM501.6 163.4L502.8 164.072C502.2 165.608 500.616 167.192 497.784 167.192C494.208 167.192 492.096 164.528 492.096 160.472C492.096 156.752 494.304 154.088 497.616 154.088C500.352 154.088 502.704 156.056 502.704 159.512L502.656 160.928H493.752C493.896 164.312 495.504 165.752 497.952 165.752C499.872 165.752 501 164.648 501.6 163.4ZM497.616 155.528C495.696 155.528 493.968 156.56 493.752 159.584H501.096C501.168 156.728 499.488 155.528 497.616 155.528ZM511.282 154.088C513.826 154.088 515.314 155.648 515.314 158.504V167H513.682V158.744C513.682 156.44 512.626 155.576 510.85 155.576C508.618 155.576 507.586 157.304 507.586 159.848V167H505.954V154.28H507.586V156.248C508.354 154.856 509.746 154.088 511.282 154.088Z" fill="#2A2859"/>
<path d="M1458.86 144.68H1460.93V158H1458.81V148.226L1455.17 154.004H1454.33L1450.67 148.208V158H1448.57V144.68H1450.62L1454.74 151.232L1458.86 144.68ZM1470.31 154.994L1471.68 155.786C1471.14 156.974 1469.88 158.162 1467.7 158.162C1464.88 158.162 1463.17 156.074 1463.17 153.14C1463.17 150.242 1465.02 148.244 1467.56 148.244C1469.81 148.244 1471.66 149.756 1471.66 152.456L1471.63 153.644H1465.15C1465.26 155.66 1466.25 156.524 1467.83 156.524C1469 156.524 1469.81 155.894 1470.31 154.994ZM1467.56 149.828C1466.34 149.828 1465.31 150.476 1465.15 152.204H1469.7C1469.72 150.512 1468.68 149.828 1467.56 149.828ZM1478.76 148.244C1480.7 148.244 1481.85 149.504 1481.85 151.574V158H1479.84V151.898C1479.84 150.584 1479.21 149.99 1478.11 149.99C1476.69 149.99 1475.97 150.98 1475.97 152.834V158H1473.95V148.46H1475.97V149.828C1476.61 148.82 1477.57 148.244 1478.76 148.244ZM1490.58 148.46H1492.69L1488.82 158.738C1488.06 160.736 1487.14 161.996 1485.18 161.996C1484.39 161.996 1483.63 161.744 1483.08 161.276L1483.83 159.872C1484.19 160.196 1484.55 160.358 1485.02 160.358C1485.76 160.358 1486.3 159.998 1486.69 159.026L1487.02 158.27L1483.36 148.46H1485.61L1488.1 156.056L1490.58 148.46Z" fill="#2A2859"/>
<path d="M1503.5 144.5H1524.5V146H1503.5V144.5Z" fill="#2A2859"/>
<path d="M1503.5 151.25H1524.5V152.75H1503.5V151.25Z" fill="#2A2859"/>
<path d="M1503.5 158H1524.5V159.5H1503.5V158Z" fill="#2A2859"/>
<rect x="1430" y="129" width="113" height="46" stroke="#2A2859" stroke-width="2"/>
<path d="M1606 152C1607.53 152 1608.78 150.758 1608.78 149.225C1608.78 147.692 1607.53 146.45 1606 146.45C1604.47 146.45 1603.23 147.692 1603.23 149.225C1603.23 150.758 1604.47 152 1606 152Z" fill="#2A2859"/>
<path fill-rule="evenodd" clip-rule="evenodd" d="M1594.75 152C1594.75 145.787 1599.79 140.75 1606 140.75C1612.21 140.75 1617.25 145.787 1617.25 152C1617.25 158.213 1612.21 163.25 1606 163.25C1599.79 163.25 1594.75 158.213 1594.75 152ZM1602.77 155L1600.81 160.237C1602.31 161.19 1604.09 161.75 1606 161.75C1607.91 161.75 1609.69 161.19 1611.19 160.237L1609.23 155H1602.77ZM1610.27 153.5L1612.44 159.298C1614.47 157.509 1615.75 154.905 1615.75 152C1615.75 146.624 1611.38 142.25 1606 142.25C1600.62 142.25 1596.25 146.624 1596.25 152C1596.25 154.905 1597.53 157.509 1599.56 159.298L1601.73 153.5H1610.27Z" fill="#2A2859"/>
<path d="M1635.94 158L1634.93 154.76H1629.78L1628.74 158H1626.52L1631.15 144.68H1633.69L1638.29 158H1635.94ZM1630.37 152.906H1634.33L1632.37 146.624L1630.37 152.906ZM1646.08 158L1643.19 153.626L1642.09 154.706V158H1640.07V144.68H1642.09V152.42L1645.94 148.46H1648.42L1644.52 152.312L1648.5 158H1646.08ZM1649.11 151.088C1649.11 149.468 1650.6 148.244 1652.85 148.244C1654.7 148.244 1655.95 148.91 1656.61 150.188L1655.21 151.052C1654.78 150.314 1653.91 149.864 1652.83 149.864C1651.75 149.864 1651.01 150.278 1651.01 150.962C1651.01 151.52 1651.39 151.862 1652.24 152.024L1653.84 152.348C1655.86 152.744 1656.86 153.698 1656.86 155.156C1656.86 156.956 1655.3 158.162 1652.94 158.162C1650.94 158.162 1649.52 157.406 1648.78 156.02L1650.19 155.138C1650.71 156.02 1651.63 156.524 1652.89 156.524C1654.11 156.524 1654.94 156.038 1654.94 155.246C1654.94 154.598 1654.54 154.238 1653.66 154.058L1651.9 153.716C1650.1 153.374 1649.11 152.456 1649.11 151.088ZM1665.3 154.994L1666.66 155.786C1666.12 156.974 1664.86 158.162 1662.69 158.162C1659.86 158.162 1658.15 156.074 1658.15 153.14C1658.15 150.242 1660 148.244 1662.54 148.244C1664.79 148.244 1666.65 149.756 1666.65 152.456L1666.61 153.644H1660.13C1660.24 155.66 1661.23 156.524 1662.81 156.524C1663.98 156.524 1664.79 155.894 1665.3 154.994ZM1662.54 149.828C1661.32 149.828 1660.29 150.476 1660.13 152.204H1664.68C1664.7 150.512 1663.66 149.828 1662.54 149.828ZM1672.77 157.946C1672.39 158.054 1672.01 158.108 1671.62 158.108C1669.8 158.108 1668.93 157.028 1668.93 155.282V144.68H1670.95V155.138C1670.95 155.966 1671.44 156.344 1672.17 156.344C1672.35 156.344 1672.55 156.326 1672.77 156.272V157.946ZM1694.11 144.68H1696.27L1692.58 158H1690.38L1687.39 147.812L1684.24 158H1682.05L1678.38 144.68H1680.72L1683.27 155.174L1686.31 144.68H1688.51L1691.55 155.156L1694.11 144.68ZM1703.89 154.994L1705.26 155.786C1704.72 156.974 1703.46 158.162 1701.28 158.162C1698.45 158.162 1696.74 156.074 1696.74 153.14C1696.74 150.242 1698.6 148.244 1701.14 148.244C1703.39 148.244 1705.24 149.756 1705.24 152.456L1705.2 153.644H1698.72C1698.83 155.66 1699.82 156.524 1701.41 156.524C1702.58 156.524 1703.39 155.894 1703.89 154.994ZM1701.14 149.828C1699.91 149.828 1698.89 150.476 1698.72 152.204H1703.28C1703.3 150.512 1702.25 149.828 1701.14 149.828ZM1712.55 148.262C1714.85 148.262 1716.51 150.224 1716.51 153.14C1716.51 156.128 1714.83 158.144 1712.31 158.144C1711.22 158.144 1710.15 157.658 1709.54 156.47V158H1707.53V144.68H1709.54V150.17C1710.28 148.82 1711.45 148.262 1712.55 148.262ZM1712.01 156.488C1713.39 156.488 1714.42 155.372 1714.42 153.23C1714.42 151.088 1713.39 149.99 1712.01 149.99C1710.53 149.99 1709.54 150.998 1709.54 153.212C1709.54 155.426 1710.53 156.488 1712.01 156.488ZM1728.43 158.18C1725.12 158.18 1722.44 155.624 1722.44 151.214C1722.44 147.056 1725.12 144.5 1728.43 144.5C1731.75 144.5 1734.43 147.056 1734.43 151.214C1734.43 155.624 1731.75 158.18 1728.43 158.18ZM1728.43 156.2C1730.49 156.2 1732.23 154.598 1732.23 151.232C1732.23 147.956 1730.54 146.48 1728.43 146.48C1726.33 146.48 1724.64 147.956 1724.64 151.232C1724.64 154.598 1726.38 156.2 1728.43 156.2ZM1741.55 148.262C1743.85 148.262 1745.51 150.224 1745.51 153.14C1745.51 156.128 1743.84 158.144 1741.32 158.144C1740.24 158.144 1739.17 157.676 1738.56 156.506V161.78H1736.55V148.46H1738.56V150.134C1739.3 148.802 1740.45 148.262 1741.55 148.262ZM1741.01 156.488C1742.4 156.488 1743.42 155.372 1743.42 153.23C1743.42 151.088 1742.4 149.99 1741.01 149.99C1739.53 149.99 1738.56 150.998 1738.56 153.212C1738.56 155.426 1739.53 156.488 1741.01 156.488ZM1753.98 144.68H1756V158H1753.98V156.272C1753.25 157.604 1752.09 158.144 1751 158.144C1748.69 158.144 1747.04 156.164 1747.04 153.266C1747.04 150.26 1748.71 148.262 1751.23 148.262C1752.31 148.262 1753.39 148.748 1753.98 149.918V144.68ZM1751.54 156.38C1752.99 156.38 1753.98 155.39 1753.98 153.158C1753.98 150.944 1753.01 149.882 1751.54 149.882C1750.15 149.882 1749.12 150.998 1749.12 153.158C1749.12 155.3 1750.15 156.38 1751.54 156.38ZM1766.33 158H1764.48C1764.33 157.514 1764.24 156.938 1764.21 156.2C1763.76 157.19 1762.75 158.162 1761.09 158.162C1759.37 158.162 1758.14 156.992 1758.14 155.336C1758.14 153.266 1759.98 152.24 1762.03 152.24C1762.68 152.24 1763.29 152.294 1763.96 152.474V151.574C1763.96 150.548 1763.31 149.882 1762.14 149.882C1761.04 149.882 1760.27 150.476 1759.91 151.592L1758.2 151.07C1758.88 149.054 1760.52 148.244 1762.23 148.244C1764.77 148.244 1765.92 149.738 1765.92 151.556V155.246C1765.92 156.38 1766.1 157.388 1766.33 158ZM1763.96 154.058V153.842C1763.38 153.644 1762.82 153.572 1762.23 153.572C1761.04 153.572 1760.12 154.112 1760.12 155.156C1760.12 156.038 1760.75 156.596 1761.71 156.596C1762.68 156.596 1763.96 156.02 1763.96 154.058ZM1773.57 148.244C1775.51 148.244 1776.67 149.504 1776.67 151.574V158H1774.65V151.898C1774.65 150.584 1774.02 149.99 1772.92 149.99C1771.5 149.99 1770.76 150.98 1770.76 152.834V158H1768.75V144.68H1770.76V149.846C1771.41 148.82 1772.38 148.244 1773.57 148.244ZM1783.23 157.946C1782.85 158.054 1782.47 158.108 1782.07 158.108C1780.26 158.108 1779.39 157.028 1779.39 155.282V144.68H1781.41V155.138C1781.41 155.966 1781.89 156.344 1782.63 156.344C1782.81 156.344 1783.01 156.326 1783.23 156.272V157.946Z" fill="#2A2859"/>
<path fill-rule="evenodd" clip-rule="evenodd" d="M1804 154.56L1796.75 147.5L1795.75 148.47L1804 156.5L1812.25 148.47L1811.25 147.5L1804 154.56Z" fill="#2A2859"/>
<rect x="1577" y="129" width="256" height="46" stroke="#F9C66B" stroke-width="2"/>
<path d="M1887.67 156.056H1893.56V158H1885.57V144.68H1887.67V156.056ZM1898.94 158.18C1896.45 158.18 1894.42 156.236 1894.42 153.176C1894.42 150.188 1896.44 148.244 1898.94 148.244C1901.44 148.244 1903.46 150.188 1903.46 153.176C1903.46 156.236 1901.42 158.18 1898.94 158.18ZM1898.94 156.47C1900.29 156.47 1901.39 155.426 1901.39 153.176C1901.39 150.908 1900.27 149.954 1898.94 149.954C1897.61 149.954 1896.49 150.908 1896.49 153.176C1896.49 155.426 1897.61 156.47 1898.94 156.47ZM1914.4 150.026H1912.4V150.242C1912.73 150.692 1912.89 151.214 1912.89 151.754C1912.89 153.482 1911.56 155.21 1908.78 155.21H1908.32C1907.34 155.21 1906.71 155.534 1906.71 156.11C1906.71 156.506 1907.02 156.794 1907.63 156.794H1911.61C1913.25 156.794 1914.18 157.64 1914.18 158.936C1914.18 160.898 1912.19 162.032 1909 162.032C1906.21 162.032 1904.34 161.33 1903.85 159.476L1905.81 159.098C1906.26 160.25 1907.31 160.556 1909.05 160.556C1910.93 160.556 1912.26 160.052 1912.26 159.17C1912.26 158.756 1912.02 158.45 1911.38 158.45H1907.04C1905.54 158.45 1904.77 157.64 1904.77 156.632C1904.77 155.66 1905.63 154.886 1906.82 154.652C1905.51 154.076 1904.86 152.852 1904.86 151.7C1904.86 149.99 1906.25 148.244 1908.89 148.244C1910.06 148.244 1910.98 148.658 1911.52 149.252V148.46H1914.4V150.026ZM1908.89 153.752C1910.28 153.752 1910.93 152.78 1910.93 151.736C1910.93 150.692 1910.28 149.738 1908.89 149.738C1907.52 149.738 1906.86 150.692 1906.86 151.736C1906.86 152.78 1907.52 153.752 1908.89 153.752ZM1925.24 150.026H1923.24V150.242C1923.56 150.692 1923.73 151.214 1923.73 151.754C1923.73 153.482 1922.39 155.21 1919.62 155.21H1919.15C1918.18 155.21 1917.55 155.534 1917.55 156.11C1917.55 156.506 1917.86 156.794 1918.47 156.794H1922.45C1924.09 156.794 1925.02 157.64 1925.02 158.936C1925.02 160.898 1923.02 162.032 1919.84 162.032C1917.05 162.032 1915.18 161.33 1914.69 159.476L1916.65 159.098C1917.1 160.25 1918.15 160.556 1919.89 160.556C1921.76 160.556 1923.1 160.052 1923.1 159.17C1923.1 158.756 1922.86 158.45 1922.21 158.45H1917.88C1916.38 158.45 1915.61 157.64 1915.61 156.632C1915.61 155.66 1916.47 154.886 1917.66 154.652C1916.35 154.076 1915.7 152.852 1915.7 151.7C1915.7 149.99 1917.08 148.244 1919.73 148.244C1920.9 148.244 1921.82 148.658 1922.36 149.252V148.46H1925.24V150.026ZM1919.73 153.752C1921.12 153.752 1921.76 152.78 1921.76 151.736C1921.76 150.692 1921.12 149.738 1919.73 149.738C1918.36 149.738 1917.7 150.692 1917.7 151.736C1917.7 152.78 1918.36 153.752 1919.73 153.752ZM1936.85 148.46H1938.87V158H1936.85V156.596C1936.24 157.64 1935.28 158.162 1934.11 158.162C1932.15 158.162 1931.02 156.902 1931.02 154.832V148.46H1933.03V154.526C1933.03 155.768 1933.65 156.434 1934.74 156.434C1936.15 156.434 1936.85 155.426 1936.85 153.572V148.46ZM1944.23 155.048C1944.23 156.11 1944.88 156.434 1945.54 156.434C1946.06 156.434 1946.48 156.218 1946.89 155.804L1947.76 157.1C1947.04 157.82 1946.24 158.162 1945.22 158.162C1943.56 158.162 1942.21 157.154 1942.21 155.174V150.026H1940.54V148.46H1942.21V146.336L1944.23 145.418V148.46H1947.59V150.026H1944.23V155.048Z" fill="#2A2859"/>
<path d="M1967.88 142.25H1961.04V161.75H1967.79V163.25H1959.54V140.75H1967.88V142.25ZM1964.01 151.25H1976.92L1972.95 147.283L1974.01 146.217L1979.79 152L1974.01 157.782L1972.95 156.718L1976.92 152.75H1964.01V151.25Z" fill="#2A2859"/>
<rect x="1867" y="129" width="131" height="46" stroke="#F9C66B" stroke-width="2"/>
<path d="M2047 203H127V205H2047V203Z" fill="#F2F2F2" mask="url(#path-1-inside-1_5508_16930)"/>
<g clip-path="url(#clip1_5508_16930)">
<rect x="79" y="152" width="48" height="1" fill="#6FE9FF"/>
<g clip-path="url(#clip2_5508_16930)">
<rect x="79" y="140" width="24" height="24" rx="12" fill="#6FE9FF"/>
<path d="M91.7101 155.1H93.6661V156H88.5901V155.1H90.6541V148.32L88.6981 149.628V148.524L90.7621 147.12H91.7101V155.1Z" fill="#2A2859"/>
</g>
</g>
<g clip-path="url(#clip3_5508_16930)">
<rect x="236.936" y="52" width="1" height="68" fill="#6FE9FF"/>
<g clip-path="url(#clip4_5508_16930)">
<rect x="224.936" y="52" width="24" height="24" rx="12" fill="#6FE9FF"/>
<path d="M235.51 67.028H240.022V68H234.082V67.184L237.238 63.752C238.15 62.768 238.522 62.228 238.522 61.46C238.522 60.632 237.958 59.96 236.902 59.96C235.978 59.96 235.282 60.416 234.946 61.472L233.974 61.208C234.49 59.636 235.606 59.012 236.926 59.012C238.702 59.012 239.626 60.2 239.626 61.376C239.626 62.396 239.218 63.068 238.042 64.34L235.51 67.028Z" fill="#2A2859"/>
</g>
</g>
<g clip-path="url(#clip5_5508_16930)">
<rect x="420.371" y="52" width="1" height="89" fill="#6FE9FF"/>
<g clip-path="url(#clip6_5508_16930)">
<rect x="408.371" y="52" width="24" height="24" rx="12" fill="#6FE9FF"/>
<path d="M421.777 63.308C422.665 63.608 423.397 64.316 423.397 65.48C423.397 66.92 422.185 68.108 420.229 68.108C419.041 68.108 417.925 67.664 417.061 66.464L417.853 65.84C418.501 66.764 419.221 67.148 420.277 67.148C421.549 67.148 422.341 66.38 422.341 65.444C422.341 64.796 422.077 64.388 421.669 64.148C421.357 63.98 421.069 63.896 420.577 63.896H419.317V62.984H420.217C420.889 62.984 421.165 62.888 421.453 62.66C421.789 62.384 421.981 61.976 421.981 61.496C421.981 60.56 421.297 59.96 420.193 59.96C419.257 59.96 418.537 60.44 418.165 61.472L417.217 61.184C417.793 59.684 418.897 59.012 420.229 59.012C422.137 59.012 423.025 60.212 423.025 61.376C423.025 62.264 422.497 62.96 421.777 63.308Z" fill="#2A2859"/>
</g>
</g>
<g clip-path="url(#clip7_5508_16930)">
<rect x="1486.5" y="52" width="1" height="76" fill="#6FE9FF"/>
<g clip-path="url(#clip8_5508_16930)">
<rect x="1474.5" y="52" width="24" height="24" rx="12" fill="#6FE9FF"/>
<path d="M1489.83 64.796V65.744H1488.39V68H1487.37V65.744H1483.38V64.928L1485.49 59.12H1486.51L1484.5 64.796H1487.37V62.264L1488.39 61.964V64.796H1489.83Z" fill="#2A2859"/>
</g>
</g>
<g clip-path="url(#clip9_5508_16930)">
<rect x="1705" y="52" width="1" height="76" fill="#6FE9FF"/>
<g clip-path="url(#clip10_5508_16930)">
<rect x="1693" y="52" width="24" height="24" rx="12" fill="#6FE9FF"/>
<path d="M1705.33 62.264C1706.97 62.264 1708.13 63.416 1708.13 65.024C1708.13 66.764 1706.85 68.096 1704.82 68.096C1703.68 68.096 1702.58 67.664 1701.73 66.464L1702.51 65.852C1703.15 66.764 1703.9 67.16 1704.89 67.16C1706.18 67.16 1707.05 66.248 1707.05 65.096C1707.05 63.896 1706.25 63.164 1705.13 63.164C1704.32 63.164 1703.79 63.416 1703.09 64.088L1702.28 63.776L1702.57 59.12H1707.45V60.092H1703.45L1703.24 63.08C1703.78 62.552 1704.52 62.264 1705.33 62.264Z" fill="#2A2859"/>
</g>
</g>
<g clip-path="url(#clip11_5508_16930)">
<rect x="1932.5" y="52" width="1" height="76" fill="#6FE9FF"/>
<g clip-path="url(#clip12_5508_16930)">
<rect x="1920.5" y="52" width="24" height="24" rx="12" fill="#6FE9FF"/>
<path d="M1932.67 68.108C1930.58 68.108 1929.37 66.392 1929.37 63.512C1929.37 60.944 1930.69 59.012 1932.97 59.012C1934.25 59.012 1935.11 59.636 1935.55 60.608L1934.66 61.124C1934.34 60.428 1933.69 59.972 1932.91 59.972C1931.24 59.972 1930.23 61.496 1930.44 64.028C1930.87 62.924 1931.88 62.348 1932.89 62.348C1934.31 62.348 1935.67 63.416 1935.67 65.156C1935.67 66.656 1934.6 68.108 1932.67 68.108ZM1930.77 65.192C1930.77 66.476 1931.67 67.172 1932.71 67.172C1933.74 67.172 1934.59 66.488 1934.59 65.192C1934.59 64.064 1933.75 63.26 1932.68 63.26C1931.7 63.26 1930.77 63.908 1930.77 65.192Z" fill="#2A2859"/>
</g>
</g>
</g>
<defs>
<clipPath id="clip0_5508_16930">
<rect width="2174" height="304" fill="white"/>
</clipPath>
<clipPath id="clip1_5508_16930">
<rect width="48" height="24" fill="white" transform="translate(79 140)"/>
</clipPath>
<clipPath id="clip2_5508_16930">
<rect x="79" y="140" width="24" height="24" rx="12" fill="white"/>
</clipPath>
<clipPath id="clip3_5508_16930">
<rect width="24" height="68" fill="white" transform="translate(224.936 52)"/>
</clipPath>
<clipPath id="clip4_5508_16930">
<rect x="224.936" y="52" width="24" height="24" rx="12" fill="white"/>
</clipPath>
<clipPath id="clip5_5508_16930">
<rect width="24" height="89" fill="white" transform="translate(408.371 52)"/>
</clipPath>
<clipPath id="clip6_5508_16930">
<rect x="408.371" y="52" width="24" height="24" rx="12" fill="white"/>
</clipPath>
<clipPath id="clip7_5508_16930">
<rect width="24" height="76" fill="white" transform="translate(1474.5 52)"/>
</clipPath>
<clipPath id="clip8_5508_16930">
<rect x="1474.5" y="52" width="24" height="24" rx="12" fill="white"/>
</clipPath>
<clipPath id="clip9_5508_16930">
<rect width="24" height="76" fill="white" transform="translate(1693 52)"/>
</clipPath>
<clipPath id="clip10_5508_16930">
<rect x="1693" y="52" width="24" height="24" rx="12" fill="white"/>
</clipPath>
<clipPath id="clip11_5508_16930">
<rect width="24" height="76" fill="white" transform="translate(1920.5 52)"/>
</clipPath>
<clipPath id="clip12_5508_16930">
<rect x="1920.5" y="52" width="24" height="24" rx="12" fill="white"/>
</clipPath>
</defs>
</svg>
