<svg width="2198" height="359" viewBox="0 0 2198 359" fill="none" xmlns="http://www.w3.org/2000/svg">
<rect width="2198" height="359" fill="white"/>
<rect width="1920" height="104" transform="translate(139 122)" fill="#F2F2F2"/>
<rect width="128" height="104" transform="translate(187 122)" fill="#D1F9FF"/>
<path d="M228.792 180.416H237.048V182H227.112V164.24H228.792V180.416ZM244.04 182.192C240.896 182.192 238.376 179.6 238.376 175.616C238.376 171.68 240.872 169.088 244.04 169.088C247.208 169.088 249.704 171.68 249.704 175.616C249.704 179.6 247.184 182.192 244.04 182.192ZM244.04 180.752C246.224 180.752 248.024 179.024 248.024 175.616C248.024 172.232 246.2 170.528 244.04 170.528C241.88 170.528 240.056 172.232 240.056 175.616C240.056 179.024 241.856 180.752 244.04 180.752ZM263.518 170.624H260.782V171.08C261.406 171.848 261.742 172.808 261.742 173.744C261.742 176.072 260.062 178.448 256.486 178.448H255.934C254.494 178.448 253.462 179 253.462 179.84C253.462 180.488 253.966 180.944 255.022 180.944H260.182C262.246 180.944 263.302 181.952 263.302 183.536C263.302 186.056 260.398 187.376 256.822 187.376C253.606 187.376 251.374 186.344 250.606 184.112L251.926 183.512C252.814 185.6 254.686 186.008 256.822 186.008C259.462 186.008 261.67 185.216 261.67 183.68C261.67 182.96 261.286 182.432 260.134 182.432H254.662C252.886 182.432 251.83 181.592 251.83 180.272C251.83 179.144 252.766 178.16 254.326 177.752C252.646 177.08 251.71 175.304 251.71 173.744C251.71 171.464 253.414 169.088 256.774 169.088C258.094 169.088 259.102 169.52 259.87 170.168V169.28H263.518V170.624ZM256.75 177.104C259.006 177.104 260.134 175.544 260.134 173.744C260.134 171.968 259.006 170.48 256.75 170.48C254.47 170.48 253.318 171.992 253.318 173.744C253.318 175.52 254.47 177.104 256.75 177.104ZM269.75 182.192C266.606 182.192 264.086 179.6 264.086 175.616C264.086 171.68 266.582 169.088 269.75 169.088C272.918 169.088 275.414 171.68 275.414 175.616C275.414 179.6 272.894 182.192 269.75 182.192ZM269.75 180.752C271.934 180.752 273.734 179.024 273.734 175.616C273.734 172.232 271.91 170.528 269.75 170.528C267.59 170.528 265.766 172.232 265.766 175.616C265.766 179.024 267.566 180.752 269.75 180.752Z" fill="#2A2859"/>
<rect width="360" height="104" transform="translate(339 122)" fill="#FFB4AC"/>
<path d="M461.036 164.24V165.824H455.468V182H453.788V165.824H448.22V164.24H461.036ZM463.865 166.976C463.073 166.976 462.425 166.352 462.425 165.536C462.425 164.72 463.073 164.096 463.865 164.096C464.657 164.096 465.305 164.72 465.305 165.536C465.305 166.352 464.657 166.976 463.865 166.976ZM461.945 187.208C461.513 187.208 461.105 187.136 460.697 187.016L460.841 185.576C461.177 185.696 461.489 185.72 461.705 185.72C462.833 185.72 463.049 184.952 463.049 183.848V169.28H464.681V183.944C464.681 186.104 463.745 187.208 461.945 187.208ZM477.305 178.4L478.505 179.072C477.905 180.608 476.321 182.192 473.489 182.192C469.913 182.192 467.801 179.528 467.801 175.472C467.801 171.752 470.009 169.088 473.321 169.088C476.057 169.088 478.409 171.056 478.409 174.512L478.361 175.928H469.457C469.601 179.312 471.209 180.752 473.657 180.752C475.577 180.752 476.705 179.648 477.305 178.4ZM473.321 170.528C471.401 170.528 469.673 171.56 469.457 174.584H476.801C476.873 171.728 475.193 170.528 473.321 170.528ZM486.987 169.088C489.531 169.088 491.019 170.648 491.019 173.504V182H489.387V173.744C489.387 171.44 488.331 170.576 486.555 170.576C484.323 170.576 483.291 172.304 483.291 174.848V182H481.659V169.28H483.291V171.248C484.059 169.856 485.451 169.088 486.987 169.088ZM503.436 178.4L504.636 179.072C504.036 180.608 502.452 182.192 499.62 182.192C496.044 182.192 493.932 179.528 493.932 175.472C493.932 171.752 496.14 169.088 499.452 169.088C502.188 169.088 504.54 171.056 504.54 174.512L504.492 175.928H495.588C495.732 179.312 497.34 180.752 499.788 180.752C501.708 180.752 502.836 179.648 503.436 178.4ZM499.452 170.528C497.532 170.528 495.804 171.56 495.588 174.584H502.932C503.004 171.728 501.324 170.528 499.452 170.528ZM507.167 172.592C507.167 170.576 509.063 169.088 511.727 169.088C514.031 169.088 515.807 170.192 516.335 171.872L514.991 172.4C514.487 171.176 513.311 170.528 511.679 170.528C509.903 170.528 508.751 171.272 508.751 172.448C508.751 173.504 509.447 174.152 510.959 174.464L512.639 174.8C515.423 175.352 516.719 176.552 516.719 178.448C516.719 180.656 514.751 182.192 511.919 182.192C509.351 182.192 507.551 181.184 506.687 179.264L508.079 178.688C508.679 180.032 509.999 180.752 511.871 180.752C513.839 180.752 515.135 179.888 515.135 178.592C515.135 177.392 514.463 176.744 512.783 176.384L510.719 175.952C508.391 175.472 507.167 174.296 507.167 172.592ZM522.041 178.832C522.041 180.32 522.929 180.752 523.721 180.752C524.489 180.752 524.993 180.464 525.593 179.84L526.457 180.8C525.617 181.784 524.705 182.192 523.577 182.192C521.849 182.192 520.409 181.04 520.409 178.784V170.624H518.009V169.28H520.409V166.544L522.041 165.584V169.28H526.169V170.624H522.041V178.832ZM537.008 178.4L538.208 179.072C537.608 180.608 536.024 182.192 533.192 182.192C529.616 182.192 527.504 179.528 527.504 175.472C527.504 171.752 529.712 169.088 533.024 169.088C535.76 169.088 538.112 171.056 538.112 174.512L538.064 175.928H529.16C529.304 179.312 530.912 180.752 533.36 180.752C535.28 180.752 536.408 179.648 537.008 178.4ZM533.024 170.528C531.104 170.528 529.376 171.56 529.16 174.584H536.504C536.576 171.728 534.896 170.528 533.024 170.528ZM546.69 169.088C549.234 169.088 550.722 170.648 550.722 173.504V182H549.09V173.744C549.09 171.44 548.034 170.576 546.258 170.576C544.026 170.576 542.994 172.304 542.994 174.848V182H541.362V169.28H542.994V171.248C543.762 169.856 545.154 169.088 546.69 169.088ZM563.931 182H562.443C562.251 181.304 562.107 180.464 562.107 179.504C561.459 180.992 559.803 182.192 557.739 182.192C555.483 182.192 553.779 180.728 553.779 178.544C553.779 175.928 556.131 174.56 558.747 174.56C559.779 174.56 560.787 174.68 561.819 175.04V173.36C561.819 171.704 560.811 170.576 558.843 170.576C557.259 170.576 555.915 171.272 555.243 173.216L553.803 172.784C554.763 170.096 556.707 169.088 558.939 169.088C562.083 169.088 563.403 170.984 563.403 173.168V178.4C563.403 179.84 563.643 181.136 563.931 182ZM561.819 176.72V176.432C560.835 176.024 559.827 175.904 558.843 175.904C556.923 175.904 555.411 176.768 555.411 178.448C555.411 179.984 556.491 180.8 558.027 180.8C559.683 180.8 561.819 179.816 561.819 176.72ZM574.973 169.28H576.653L571.661 182H570.221L565.229 169.28H567.005L570.989 180.2L574.973 169.28ZM584.27 169.088C586.814 169.088 588.302 170.648 588.302 173.504V182H586.67V173.744C586.67 171.44 585.614 170.576 583.838 170.576C581.606 170.576 580.574 172.304 580.574 174.848V182H578.942V169.28H580.574V171.248C581.342 169.856 582.734 169.088 584.27 169.088Z" fill="#2A2859"/>
<rect width="1224" height="104" transform="translate(787 122)" fill="#D1F9FF"/>
<path d="M1327.29 182H1325.61V164.24H1336.08V165.824H1327.29V172.592H1334.44V174.176H1327.29V182ZM1344.85 169.28H1346.48V182H1344.85V180.056C1344.08 181.424 1342.74 182.192 1341.18 182.192C1338.68 182.192 1337.17 180.584 1337.17 177.824V169.28H1338.8V177.68C1338.8 179.768 1339.86 180.728 1341.63 180.728C1343.89 180.728 1344.85 178.928 1344.85 176.432V169.28ZM1355.64 169.088C1358.18 169.088 1359.67 170.648 1359.67 173.504V182H1358.04V173.744C1358.04 171.44 1356.98 170.576 1355.21 170.576C1352.98 170.576 1351.94 172.304 1351.94 174.848V182H1350.31V169.28H1351.94V171.248C1352.71 169.856 1354.1 169.088 1355.64 169.088ZM1371.32 182L1366.64 175.688L1365.08 177.176V182H1363.45V164.24H1365.08V175.256L1371.13 169.28H1373.29L1367.75 174.608L1373.39 182H1371.32ZM1374.58 172.592C1374.58 170.576 1376.47 169.088 1379.14 169.088C1381.44 169.088 1383.22 170.192 1383.75 171.872L1382.4 172.4C1381.9 171.176 1380.72 170.528 1379.09 170.528C1377.31 170.528 1376.16 171.272 1376.16 172.448C1376.16 173.504 1376.86 174.152 1378.37 174.464L1380.05 174.8C1382.83 175.352 1384.13 176.552 1384.13 178.448C1384.13 180.656 1382.16 182.192 1379.33 182.192C1376.76 182.192 1374.96 181.184 1374.1 179.264L1375.49 178.688C1376.09 180.032 1377.41 180.752 1379.28 180.752C1381.25 180.752 1382.55 179.888 1382.55 178.592C1382.55 177.392 1381.87 176.744 1380.19 176.384L1378.13 175.952C1375.8 175.472 1374.58 174.296 1374.58 172.592ZM1387.86 166.976C1387.07 166.976 1386.42 166.352 1386.42 165.536C1386.42 164.72 1387.07 164.096 1387.86 164.096C1388.65 164.096 1389.3 164.72 1389.3 165.536C1389.3 166.352 1388.65 166.976 1387.86 166.976ZM1385.94 187.208C1385.51 187.208 1385.1 187.136 1384.69 187.016L1384.84 185.576C1385.17 185.696 1385.49 185.72 1385.7 185.72C1386.83 185.72 1387.05 184.952 1387.05 183.848V169.28H1388.68V183.944C1388.68 186.104 1387.74 187.208 1385.94 187.208ZM1397.46 182.192C1394.32 182.192 1391.8 179.6 1391.8 175.616C1391.8 171.68 1394.29 169.088 1397.46 169.088C1400.63 169.088 1403.13 171.68 1403.13 175.616C1403.13 179.6 1400.61 182.192 1397.46 182.192ZM1397.46 180.752C1399.65 180.752 1401.45 179.024 1401.45 175.616C1401.45 172.232 1399.62 170.528 1397.46 170.528C1395.3 170.528 1393.48 172.232 1393.48 175.616C1393.48 179.024 1395.28 180.752 1397.46 180.752ZM1411.57 169.088C1414.11 169.088 1415.6 170.648 1415.6 173.504V182H1413.97V173.744C1413.97 171.44 1412.91 170.576 1411.14 170.576C1408.91 170.576 1407.87 172.304 1407.87 174.848V182H1406.24V169.28H1407.87V171.248C1408.64 169.856 1410.03 169.088 1411.57 169.088ZM1428.81 182H1427.32C1427.13 181.304 1426.99 180.464 1426.99 179.504C1426.34 180.992 1424.68 182.192 1422.62 182.192C1420.36 182.192 1418.66 180.728 1418.66 178.544C1418.66 175.928 1421.01 174.56 1423.63 174.56C1424.66 174.56 1425.67 174.68 1426.7 175.04V173.36C1426.7 171.704 1425.69 170.576 1423.72 170.576C1422.14 170.576 1420.8 171.272 1420.12 173.216L1418.68 172.784C1419.64 170.096 1421.59 169.088 1423.82 169.088C1426.96 169.088 1428.28 170.984 1428.28 173.168V178.4C1428.28 179.84 1428.52 181.136 1428.81 182ZM1426.7 176.72V176.432C1425.72 176.024 1424.71 175.904 1423.72 175.904C1421.8 175.904 1420.29 176.768 1420.29 178.448C1420.29 179.984 1421.37 180.8 1422.91 180.8C1424.56 180.8 1426.7 179.816 1426.7 176.72ZM1436.19 181.952C1435.81 182.048 1435.5 182.096 1435.14 182.096C1433.15 182.096 1432.21 180.848 1432.21 178.976V164.24H1433.84V178.976C1433.84 180.056 1434.42 180.608 1435.43 180.608C1435.69 180.608 1435.95 180.584 1436.19 180.512V181.952ZM1438.54 164.336H1441.03V166.784H1438.54V164.336ZM1438.97 182V169.28H1440.6V182H1438.97ZM1447.08 178.832C1447.08 180.32 1447.97 180.752 1448.76 180.752C1449.53 180.752 1450.03 180.464 1450.63 179.84L1451.5 180.8C1450.66 181.784 1449.74 182.192 1448.62 182.192C1446.89 182.192 1445.45 181.04 1445.45 178.784V170.624H1443.05V169.28H1445.45V166.544L1447.08 165.584V169.28H1451.21V170.624H1447.08V178.832ZM1462.05 178.4L1463.25 179.072C1462.65 180.608 1461.06 182.192 1458.23 182.192C1454.66 182.192 1452.54 179.528 1452.54 175.472C1452.54 171.752 1454.75 169.088 1458.06 169.088C1460.8 169.088 1463.15 171.056 1463.15 174.512L1463.1 175.928H1454.2C1454.34 179.312 1455.95 180.752 1458.4 180.752C1460.32 180.752 1461.45 179.648 1462.05 178.4ZM1458.06 170.528C1456.14 170.528 1454.42 171.56 1454.2 174.584H1461.54C1461.62 171.728 1459.94 170.528 1458.06 170.528ZM1468.71 178.832C1468.71 180.32 1469.6 180.752 1470.39 180.752C1471.16 180.752 1471.66 180.464 1472.26 179.84L1473.13 180.8C1472.29 181.784 1471.38 182.192 1470.25 182.192C1468.52 182.192 1467.08 181.04 1467.08 178.784V170.624H1464.68V169.28H1467.08V166.544L1468.71 165.584V169.28H1472.84V170.624H1468.71V178.832Z" fill="#2A2859"/>
<line x1="187.5" y1="94" x2="187.5" y2="224" stroke="#6FE9FF"/>
<path d="M139 94L139 265L846 265" stroke="#6FE9FF"/>
<path d="M2060 94L2060 265L952 265" stroke="#6FE9FF"/>
<line x1="315.5" y1="94" x2="315.5" y2="224" stroke="#6FE9FF"/>
<line x1="339.5" y1="94" x2="339.5" y2="224" stroke="#6FE9FF"/>
<line x1="699.5" y1="94" x2="699.5" y2="224" stroke="#6FE9FF"/>
<line x1="787.5" y1="94" x2="787.5" y2="224" stroke="#6FE9FF"/>
<line x1="2011.5" y1="94" x2="2011.5" y2="224" stroke="#6FE9FF"/>
<path d="M227.712 91.52H228.8L225.92 100H224.928L222.608 93.056L220.224 100H219.232L216.352 91.52H217.504L219.76 98.672L222.112 91.52H223.136L225.488 98.64L227.712 91.52ZM231.332 94.464C230.756 94.464 230.308 94.032 230.308 93.44C230.308 92.848 230.756 92.416 231.332 92.416C231.908 92.416 232.356 92.848 232.356 93.44C232.356 94.032 231.908 94.464 231.332 94.464ZM231.332 100.096C230.756 100.096 230.308 99.664 230.308 99.072C230.308 98.48 230.756 98.048 231.332 98.048C231.908 98.048 232.356 98.48 232.356 99.072C232.356 99.664 231.908 100.096 231.332 100.096ZM243.552 99.072H246.177V100H239.712V99.072H242.464V89.408L239.872 91.2V90.016L242.529 88.16H243.552V99.072ZM252.867 100.128C250.531 100.128 248.547 97.92 248.547 94.08C248.547 90.24 250.515 88.032 252.867 88.032C255.219 88.032 257.187 90.24 257.187 94.08C257.187 97.92 255.203 100.128 252.867 100.128ZM252.867 99.072C254.627 99.072 256.067 97.616 256.067 94.08C256.067 90.624 254.643 89.088 252.867 89.088C251.091 89.088 249.667 90.624 249.667 94.08C249.667 97.616 251.107 99.072 252.867 99.072ZM263.253 92.384C265.445 92.384 266.997 93.936 266.997 96.064C266.997 98.352 265.317 100.128 262.677 100.128C261.205 100.128 259.733 99.552 258.613 97.952L259.445 97.28C260.325 98.56 261.381 99.136 262.805 99.136C264.645 99.136 265.909 97.792 265.909 96.128C265.909 94.464 264.805 93.376 263.157 93.376C262.005 93.376 261.269 93.728 260.229 94.704L259.349 94.368L259.749 88.16H266.101V89.184H260.693L260.373 93.504C261.141 92.784 262.165 92.384 263.253 92.384ZM273.064 91.408C275.224 91.408 276.68 93.216 276.68 95.68C276.68 98.288 275.208 100.128 272.936 100.128C271.752 100.128 270.792 99.536 270.28 98.464V103.36H269.192V91.52H270.28V93.104C270.84 92.016 271.96 91.408 273.064 91.408ZM272.936 99.168C274.52 99.168 275.56 97.952 275.56 95.728C275.56 93.584 274.52 92.368 272.952 92.368C271.256 92.368 270.28 93.632 270.28 95.712C270.28 97.92 271.24 99.168 272.936 99.168ZM284.718 100H283.374L281.038 96.352L278.766 100H277.518L280.446 95.632L277.614 91.52H278.958L281.214 94.976L283.374 91.52H284.622L281.79 95.664L284.718 100Z" fill="black"/>
<path d="M495.712 91.52H496.8L493.92 100H492.928L490.608 93.056L488.224 100H487.232L484.352 91.52H485.504L487.76 98.672L490.112 91.52H491.136L493.488 98.64L495.712 91.52ZM499.332 94.464C498.756 94.464 498.308 94.032 498.308 93.44C498.308 92.848 498.756 92.416 499.332 92.416C499.908 92.416 500.356 92.848 500.356 93.44C500.356 94.032 499.908 94.464 499.332 94.464ZM499.332 100.096C498.756 100.096 498.308 99.664 498.308 99.072C498.308 98.48 498.756 98.048 499.332 98.048C499.908 98.048 500.356 98.48 500.356 99.072C500.356 99.664 499.908 100.096 499.332 100.096ZM512.656 93.744C513.84 94.144 514.769 95.136 514.769 96.672C514.769 98.576 513.184 100.128 510.656 100.128C509.136 100.128 507.664 99.552 506.544 97.952L507.376 97.28C508.256 98.56 509.264 99.136 510.753 99.136C512.576 99.136 513.681 98.032 513.681 96.672C513.681 95.696 513.28 95.12 512.704 94.768C512.24 94.496 511.825 94.368 511.056 94.368H509.472V93.408H510.688C511.648 93.408 512.016 93.264 512.449 92.928C512.929 92.544 513.216 91.936 513.216 91.2C513.216 89.888 512.224 89.024 510.624 89.024C509.376 89.024 508.32 89.6 507.744 91.12L506.784 90.784C507.6 88.832 508.992 88.032 510.688 88.032C513.089 88.032 514.273 89.616 514.273 91.168C514.273 92.32 513.601 93.28 512.656 93.744ZM521.091 100.128C518.371 100.128 516.803 97.872 516.803 94.016C516.803 90.608 518.483 88.032 521.507 88.032C523.155 88.032 524.291 88.864 524.819 90.16L523.843 90.64C523.427 89.648 522.499 89.024 521.443 89.024C519.091 89.024 517.587 91.184 517.891 94.976C518.435 93.328 519.843 92.496 521.267 92.496C523.091 92.496 524.963 93.904 524.963 96.256C524.963 98.16 523.683 100.128 521.091 100.128ZM518.371 96.288C518.371 98.128 519.651 99.136 521.155 99.136C522.659 99.136 523.875 98.144 523.875 96.288C523.875 94.72 522.691 93.52 521.123 93.52C519.699 93.52 518.371 94.448 518.371 96.288ZM530.901 100.128C528.565 100.128 526.581 97.92 526.581 94.08C526.581 90.24 528.549 88.032 530.901 88.032C533.253 88.032 535.221 90.24 535.221 94.08C535.221 97.92 533.237 100.128 530.901 100.128ZM530.901 99.072C532.661 99.072 534.101 97.616 534.101 94.08C534.101 90.624 532.677 89.088 530.901 89.088C529.125 89.088 527.701 90.624 527.701 94.08C527.701 97.616 529.141 99.072 530.901 99.072ZM541.064 91.408C543.224 91.408 544.68 93.216 544.68 95.68C544.68 98.288 543.208 100.128 540.936 100.128C539.752 100.128 538.792 99.536 538.28 98.464V103.36H537.192V91.52H538.28V93.104C538.84 92.016 539.96 91.408 541.064 91.408ZM540.936 99.168C542.52 99.168 543.56 97.952 543.56 95.728C543.56 93.584 542.52 92.368 540.952 92.368C539.256 92.368 538.28 93.632 538.28 95.712C538.28 97.92 539.24 99.168 540.936 99.168ZM552.718 100H551.374L549.038 96.352L546.766 100H545.518L548.446 95.632L545.614 91.52H546.958L549.214 94.976L551.374 91.52H552.622L549.79 95.664L552.718 100Z" fill="black"/>
<path d="M871.712 262.52H872.8L869.92 271H868.928L866.608 264.056L864.224 271H863.232L860.352 262.52H861.504L863.76 269.672L866.112 262.52H867.136L869.488 269.64L871.712 262.52ZM875.332 265.464C874.756 265.464 874.308 265.032 874.308 264.44C874.308 263.848 874.756 263.416 875.332 263.416C875.908 263.416 876.356 263.848 876.356 264.44C876.356 265.032 875.908 265.464 875.332 265.464ZM875.332 271.096C874.756 271.096 874.308 270.664 874.308 270.072C874.308 269.48 874.756 269.048 875.332 269.048C875.908 269.048 876.356 269.48 876.356 270.072C876.356 270.664 875.908 271.096 875.332 271.096ZM887.552 270.072H890.177V271H883.712V270.072H886.464V260.408L883.872 262.2V261.016L886.529 259.16H887.552V270.072ZM896.323 271.128C894.675 271.128 893.315 270.296 892.739 269L893.715 268.52C894.179 269.624 895.283 270.136 896.339 270.136C898.771 270.136 899.923 267.944 899.683 264.184C899.091 265.848 897.635 266.648 896.259 266.648C894.451 266.648 892.643 265.4 892.643 262.872C892.643 261.016 893.939 259.032 896.547 259.032C899.187 259.032 900.771 261.336 900.771 265.048C900.771 268.52 899.411 271.128 896.323 271.128ZM896.387 265.656C897.843 265.656 899.203 264.728 899.203 262.872C899.203 261.016 897.875 260.024 896.451 260.024C895.043 260.024 893.731 260.984 893.731 262.84C893.731 264.76 894.995 265.656 896.387 265.656ZM904.693 269.976H910.933V271H903.189V270.168L907.445 265.432C908.709 264.04 909.237 263.272 909.237 262.2C909.237 261 908.437 260.024 906.869 260.024C905.653 260.024 904.613 260.568 904.085 262.056L903.093 261.72C903.861 259.768 905.237 259.032 906.917 259.032C909.205 259.032 910.357 260.6 910.357 262.104C910.357 263.416 909.861 264.296 908.197 266.136L904.693 269.976ZM916.936 271.128C914.6 271.128 912.616 268.92 912.616 265.08C912.616 261.24 914.584 259.032 916.936 259.032C919.288 259.032 921.256 261.24 921.256 265.08C921.256 268.92 919.272 271.128 916.936 271.128ZM916.936 270.072C918.696 270.072 920.136 268.616 920.136 265.08C920.136 261.624 918.712 260.088 916.936 260.088C915.16 260.088 913.736 261.624 913.736 265.08C913.736 268.616 915.176 270.072 916.936 270.072ZM927.098 262.408C929.258 262.408 930.714 264.216 930.714 266.68C930.714 269.288 929.242 271.128 926.97 271.128C925.786 271.128 924.826 270.536 924.314 269.464V274.36H923.226V262.52H924.314V264.104C924.874 263.016 925.994 262.408 927.098 262.408ZM926.97 270.168C928.554 270.168 929.594 268.952 929.594 266.728C929.594 264.584 928.554 263.368 926.986 263.368C925.29 263.368 924.314 264.632 924.314 266.712C924.314 268.92 925.274 270.168 926.97 270.168ZM938.753 271H937.409L935.073 267.352L932.801 271H931.553L934.481 266.632L931.649 262.52H932.993L935.249 265.976L937.409 262.52H938.657L935.825 266.664L938.753 271Z" fill="black"/>
<path d="M1375.71 91.52H1376.8L1373.92 100H1372.93L1370.61 93.056L1368.22 100H1367.23L1364.35 91.52H1365.5L1367.76 98.672L1370.11 91.52H1371.14L1373.49 98.64L1375.71 91.52ZM1379.33 94.464C1378.76 94.464 1378.31 94.032 1378.31 93.44C1378.31 92.848 1378.76 92.416 1379.33 92.416C1379.91 92.416 1380.36 92.848 1380.36 93.44C1380.36 94.032 1379.91 94.464 1379.33 94.464ZM1379.33 100.096C1378.76 100.096 1378.31 99.664 1378.31 99.072C1378.31 98.48 1378.76 98.048 1379.33 98.048C1379.91 98.048 1380.36 98.48 1380.36 99.072C1380.36 99.664 1379.91 100.096 1379.33 100.096ZM1391.55 99.072H1394.18V100H1387.71V99.072H1390.46V89.408L1387.87 91.2V90.016L1390.53 88.16H1391.55V99.072ZM1398.66 98.976H1404.9V100H1397.15V99.168L1401.41 94.432C1402.67 93.04 1403.2 92.272 1403.2 91.2C1403.2 90 1402.4 89.024 1400.83 89.024C1399.62 89.024 1398.58 89.568 1398.05 91.056L1397.06 90.72C1397.83 88.768 1399.2 88.032 1400.88 88.032C1403.17 88.032 1404.32 89.6 1404.32 91.104C1404.32 92.416 1403.83 93.296 1402.16 95.136L1398.66 98.976ZM1408.69 98.976H1414.93V100H1407.19V99.168L1411.45 94.432C1412.71 93.04 1413.24 92.272 1413.24 91.2C1413.24 90 1412.44 89.024 1410.87 89.024C1409.65 89.024 1408.61 89.568 1408.09 91.056L1407.09 90.72C1407.86 88.768 1409.24 88.032 1410.92 88.032C1413.21 88.032 1414.36 89.6 1414.36 91.104C1414.36 92.416 1413.86 93.296 1412.2 95.136L1408.69 98.976ZM1425.29 95.872V96.864H1423.24V100H1422.18V96.864H1416.87V95.968L1419.7 88.16H1420.73L1417.98 95.872H1422.18V92.352L1423.24 92.032V95.872H1425.29ZM1431.1 91.408C1433.26 91.408 1434.71 93.216 1434.71 95.68C1434.71 98.288 1433.24 100.128 1430.97 100.128C1429.79 100.128 1428.83 99.536 1428.31 98.464V103.36H1427.23V91.52H1428.31V93.104C1428.87 92.016 1429.99 91.408 1431.1 91.408ZM1430.97 99.168C1432.55 99.168 1433.59 97.952 1433.59 95.728C1433.59 93.584 1432.55 92.368 1430.99 92.368C1429.29 92.368 1428.31 93.632 1428.31 95.712C1428.31 97.92 1429.27 99.168 1430.97 99.168ZM1442.75 100H1441.41L1439.07 96.352L1436.8 100H1435.55L1438.48 95.632L1435.65 91.52H1436.99L1439.25 94.976L1441.41 91.52H1442.66L1439.82 95.664L1442.75 100Z" fill="black"/>
</svg>
