<svg width="1451" height="436" viewBox="0 0 1451 436" fill="none" xmlns="http://www.w3.org/2000/svg">
<rect width="1451" height="436" fill="#F2F2F2"/>
<rect width="375" height="60" transform="translate(538.5 188)" fill="#F9F9F9"/>
<path d="M579.932 224L574.91 217.628L573.344 219.266V224H572.084V210.68H573.344V217.646L579.842 210.68H581.48L575.738 216.746L581.552 224H579.932ZM585.89 224.144C583.532 224.144 581.642 222.2 581.642 219.212C581.642 216.26 583.514 214.316 585.89 214.316C588.266 214.316 590.138 216.26 590.138 219.212C590.138 222.2 588.248 224.144 585.89 224.144ZM585.89 223.064C587.528 223.064 588.878 221.768 588.878 219.212C588.878 216.674 587.51 215.396 585.89 215.396C584.27 215.396 582.902 216.674 582.902 219.212C582.902 221.768 584.252 223.064 585.89 223.064ZM596.421 214.316C598.329 214.316 599.445 215.486 599.445 217.628V224H598.221V217.808C598.221 216.08 597.429 215.432 596.097 215.432C594.423 215.432 593.649 216.728 593.649 218.636V224H592.425V214.46H593.649V215.936C594.225 214.892 595.269 214.316 596.421 214.316ZM604.1 221.624C604.1 222.74 604.766 223.064 605.36 223.064C605.936 223.064 606.314 222.848 606.764 222.38L607.412 223.1C606.782 223.838 606.098 224.144 605.252 224.144C603.956 224.144 602.876 223.28 602.876 221.588V215.468H601.076V214.46H602.876V212.408L604.1 211.688V214.46H607.196V215.468H604.1V221.624ZM616.063 224H614.947C614.803 223.478 614.695 222.848 614.695 222.128C614.209 223.244 612.967 224.144 611.419 224.144C609.727 224.144 608.449 223.046 608.449 221.408C608.449 219.446 610.213 218.42 612.175 218.42C612.949 218.42 613.705 218.51 614.479 218.78V217.52C614.479 216.278 613.723 215.432 612.247 215.432C611.059 215.432 610.051 215.954 609.547 217.412L608.467 217.088C609.187 215.072 610.645 214.316 612.319 214.316C614.677 214.316 615.667 215.738 615.667 217.376V221.3C615.667 222.38 615.847 223.352 616.063 224ZM614.479 220.04V219.824C613.741 219.518 612.985 219.428 612.247 219.428C610.807 219.428 609.673 220.076 609.673 221.336C609.673 222.488 610.483 223.1 611.635 223.1C612.877 223.1 614.479 222.362 614.479 220.04ZM624.502 224L620.992 219.266L619.822 220.382V224H618.598V210.68H619.822V218.942L624.358 214.46H625.978L621.82 218.456L626.05 224H624.502ZM629.463 221.624C629.463 222.74 630.129 223.064 630.723 223.064C631.299 223.064 631.677 222.848 632.127 222.38L632.775 223.1C632.145 223.838 631.461 224.144 630.615 224.144C629.319 224.144 628.239 223.28 628.239 221.588V215.468H626.439V214.46H628.239V212.408L629.463 211.688V214.46H632.559V215.468H629.463V221.624Z" fill="#2A2859"/>
<path d="M570.5 227.672H633.315V228.464H570.5V227.672Z" fill="#2A2859"/>
<rect x="649.5" y="204" width="1" height="27" fill="#2A2859"/>
<path d="M672.296 210.68C675.086 210.68 676.76 212.39 676.76 214.784C676.76 217.178 674.996 218.816 672.206 218.816H669.344V224H668.084V210.68H672.296ZM672.35 217.7C674.402 217.7 675.464 216.656 675.464 214.784C675.464 212.912 674.402 211.832 672.35 211.832H669.344V217.7H672.35ZM684.612 221.3L685.512 221.804C685.062 222.956 683.874 224.144 681.75 224.144C679.068 224.144 677.484 222.146 677.484 219.104C677.484 216.314 679.14 214.316 681.624 214.316C683.676 214.316 685.44 215.792 685.44 218.384L685.404 219.446H678.726C678.834 221.984 680.04 223.064 681.876 223.064C683.316 223.064 684.162 222.236 684.612 221.3ZM681.624 215.396C680.184 215.396 678.888 216.17 678.726 218.438H684.234C684.288 216.296 683.028 215.396 681.624 215.396ZM691.248 214.316C692.49 214.316 693.39 215.144 693.39 216.764V217.7L692.274 217.916V216.98C692.274 216.026 691.95 215.396 690.978 215.396C689.88 215.396 689.052 216.206 689.052 218.132V224H687.828V214.46H689.052V215.648C689.556 214.748 690.402 214.316 691.248 214.316ZM694.789 216.944C694.789 215.432 696.211 214.316 698.209 214.316C699.937 214.316 701.269 215.144 701.665 216.404L700.657 216.8C700.279 215.882 699.397 215.396 698.173 215.396C696.841 215.396 695.977 215.954 695.977 216.836C695.977 217.628 696.499 218.114 697.633 218.348L698.893 218.6C700.981 219.014 701.953 219.914 701.953 221.336C701.953 222.992 700.477 224.144 698.353 224.144C696.427 224.144 695.077 223.388 694.429 221.948L695.473 221.516C695.923 222.524 696.913 223.064 698.317 223.064C699.793 223.064 700.765 222.416 700.765 221.444C700.765 220.544 700.261 220.058 699.001 219.788L697.453 219.464C695.707 219.104 694.789 218.222 694.789 216.944ZM707.798 224.144C705.44 224.144 703.55 222.2 703.55 219.212C703.55 216.26 705.422 214.316 707.798 214.316C710.174 214.316 712.046 216.26 712.046 219.212C712.046 222.2 710.156 224.144 707.798 224.144ZM707.798 223.064C709.436 223.064 710.786 221.768 710.786 219.212C710.786 216.674 709.418 215.396 707.798 215.396C706.178 215.396 704.81 216.674 704.81 219.212C704.81 221.768 706.16 223.064 707.798 223.064ZM718.329 214.316C720.237 214.316 721.353 215.486 721.353 217.628V224H720.129V217.808C720.129 216.08 719.337 215.432 718.005 215.432C716.331 215.432 715.557 216.728 715.557 218.636V224H714.333V214.46H715.557V215.936C716.133 214.892 717.177 214.316 718.329 214.316ZM730.008 214.46H731.268L727.524 224H726.444L722.7 214.46H724.032L727.02 222.65L730.008 214.46ZM739.1 221.3L740 221.804C739.55 222.956 738.362 224.144 736.238 224.144C733.556 224.144 731.972 222.146 731.972 219.104C731.972 216.314 733.628 214.316 736.112 214.316C738.164 214.316 739.928 215.792 739.928 218.384L739.892 219.446H733.214C733.322 221.984 734.528 223.064 736.364 223.064C737.804 223.064 738.65 222.236 739.1 221.3ZM736.112 215.396C734.672 215.396 733.376 216.17 733.214 218.438H738.722C738.776 216.296 737.516 215.396 736.112 215.396ZM745.735 214.316C746.977 214.316 747.877 215.144 747.877 216.764V217.7L746.761 217.916V216.98C746.761 216.026 746.437 215.396 745.465 215.396C744.367 215.396 743.539 216.206 743.539 218.132V224H742.315V214.46H743.539V215.648C744.043 214.748 744.889 214.316 745.735 214.316ZM754.092 214.316C756 214.316 757.116 215.486 757.116 217.628V224H755.892V217.808C755.892 216.08 755.1 215.432 753.768 215.432C752.094 215.432 751.32 216.728 751.32 218.636V224H750.096V214.46H751.32V215.936C751.896 214.892 752.94 214.316 754.092 214.316Z" fill="#2A2859"/>
<path d="M666.5 227.672H758.52V228.464H666.5V227.672Z" fill="#2A2859"/>
</svg>
