<svg width="1274" height="359" viewBox="0 0 1274 359" fill="none" xmlns="http://www.w3.org/2000/svg">
<rect width="1274" height="359" fill="white"/>
<path d="M597.041 144.103L595.282 143.013C592.601 141.252 589.753 139.742 586.737 138.484C585.48 137.981 584.224 137.477 582.967 137.058C579.951 136.052 576.768 135.213 573.668 134.71C572.328 134.542 570.988 134.374 569.564 134.206C566.38 133.955 563.113 133.955 559.93 134.206C558.589 134.29 557.165 134.458 555.825 134.71C552.642 135.213 549.542 135.968 546.442 137.058C545.186 137.477 543.929 137.981 542.673 138.484C539.741 139.742 536.892 141.252 534.128 143.013L532.369 144.103L523.74 127.581L525.248 126.658C528.18 124.813 531.196 123.219 534.296 121.877L535.887 121.123L538.987 127.077C539.908 126.742 540.746 126.406 541.667 126.071L540.076 119.529L541.751 118.942C545.018 117.935 548.285 117.097 551.636 116.51L553.396 116.174L554.987 122.716L555.49 122.632C556.244 122.548 557.082 122.464 557.835 122.381V115.671L559.595 115.587C561.27 115.503 563.029 115.419 564.705 115.419C566.38 115.419 568.139 115.503 569.815 115.587L571.574 115.671V122.381C572.496 122.464 573.417 122.548 574.422 122.716L576.014 116.174L577.773 116.51C581.124 117.097 584.475 117.935 587.658 118.942L589.334 119.529L587.742 126.071C588.664 126.406 589.501 126.742 590.423 127.077L593.522 121.123L595.114 121.877C598.214 123.303 601.229 124.897 604.161 126.658L605.669 127.581L597.041 144.103ZM528.767 129.006L533.877 138.735C536.222 137.31 538.652 136.135 541.165 135.045H541.249C542.589 134.458 543.929 133.955 545.27 133.535C548.537 132.445 551.888 131.523 555.239 131.019C556.663 130.768 558.087 130.6 559.595 130.516C563.029 130.264 566.464 130.264 569.899 130.516C571.323 130.684 572.831 130.852 574.255 131.019C577.606 131.523 580.957 132.361 584.224 133.452C585.564 133.955 586.904 134.458 588.245 134.961C590.758 136.052 593.187 137.31 595.617 138.652L600.727 128.923C598.967 127.916 597.124 126.91 595.282 126.071L592.182 131.942L590.59 131.271L589.92 131.019C588.328 130.348 586.653 129.677 584.978 129.174L583.302 128.587L584.894 122.129C582.883 121.542 580.957 121.039 578.946 120.619L577.354 127.077L575.595 126.826C573.585 126.49 571.574 126.239 569.647 126.071L567.888 125.903V119.277C565.878 119.194 563.783 119.194 561.773 119.277V125.903L560.014 126.071C558.673 126.155 557.417 126.323 556.16 126.49C555.49 126.574 554.736 126.658 554.066 126.826L552.307 127.077L550.715 120.619C548.704 121.039 546.694 121.542 544.767 122.129L546.359 128.587L544.683 129.174C543.008 129.761 541.332 130.348 539.741 131.019L539.071 131.271L537.479 131.942L534.379 126.071C532.369 126.91 530.526 127.916 528.767 129.006Z" fill="#2A2859"/>
<path d="M564.705 244.581C535.217 244.581 511.342 220.677 511.342 191.239C511.342 161.8 535.217 137.813 564.621 137.813C594.025 137.813 617.984 161.716 617.984 191.155C617.984 205.329 612.371 218.916 602.402 228.981C592.433 238.961 578.778 244.581 564.705 244.581ZM564.705 141.755C537.395 141.755 515.279 163.897 515.279 191.155C515.279 218.413 537.395 240.639 564.621 240.639C591.931 240.639 614.046 218.497 614.046 191.239C614.046 178.155 608.853 165.574 599.554 156.264C590.339 146.955 577.773 141.671 564.705 141.755Z" fill="#2A2859"/>
<path d="M554.401 175.974C550.212 170.355 551.385 162.303 556.998 158.11C562.61 153.916 570.653 155.09 574.841 160.71C578.192 165.239 578.192 171.445 574.841 175.974L577.689 178.071C579.784 175.303 580.956 171.864 580.956 168.342C580.956 159.368 573.668 152.071 564.705 152.071C555.741 152.071 548.453 159.368 548.453 168.342C548.453 171.864 549.626 175.303 551.72 178.071L554.401 175.974Z" fill="#2A2859"/>
<path d="M564.621 179.832C568.139 179.832 570.988 176.981 570.988 173.458V172.787H573.082V168.761C573.082 164.064 569.312 160.29 564.621 160.29C559.93 160.29 556.16 164.064 556.16 168.761V172.787H558.254V173.458C558.254 176.981 561.103 179.832 564.621 179.832ZM559.678 168.845C559.678 166.077 561.857 163.897 564.621 163.897C567.385 163.897 569.564 166.077 569.564 168.845V172.871H568.056V173.542C568.139 175.471 566.715 177.064 564.789 177.148C562.862 177.232 561.27 175.806 561.186 173.877C561.186 173.793 561.186 173.626 561.186 173.542V172.871H559.678V168.845Z" fill="#2A2859"/>
<path d="M533.123 193.587H528.264V198.535H533.123V193.587Z" fill="#2A2859"/>
<path d="M604.078 189.813V192.413H606.591L599.805 199.206V187.297L601.564 189.058L603.407 187.213L598.465 182.264L593.522 187.213L595.365 189.058L597.124 187.297V199.123L590.339 192.329H592.768V189.729H585.815V196.774H588.412V194.258L593.69 199.626H582.967L581.878 198.619L580.956 189.897C580.873 189.393 580.37 184.948 576.684 183.019H576.6L572.831 181.51L572.244 181.258L571.658 181.426C569.312 182.013 566.967 182.264 564.621 182.181C562.275 182.264 559.846 182.013 557.584 181.426L556.998 181.258L552.642 182.935H552.558C548.872 184.864 548.285 189.31 548.285 189.813L547.28 198.871L546.442 199.542H542.757C543.092 198.368 543.259 197.193 543.259 196.019C543.259 189.058 537.563 183.439 530.61 183.523C523.657 183.523 518.044 189.226 518.128 196.187C518.128 202.393 522.651 207.593 528.767 208.6H528.934C529.269 208.684 529.604 208.684 529.939 208.684L546.275 210.361C545.689 215.897 544.599 221.348 543.008 226.716L544.683 227.303L546.359 227.806C548.034 222.187 549.207 216.4 549.793 210.613L553.479 207.51L552.893 230.323L554.401 230.574C561.27 231.748 568.307 231.748 575.26 230.574L576.768 230.323L576.182 207.593L579.867 210.697C580.454 216.484 581.627 222.271 583.302 227.89L586.653 226.8C585.061 221.432 583.972 215.981 583.386 210.445L599.805 208.935V203.232L608.517 194.51V197.026H611.114V190.064L604.078 189.813ZM564.621 185.787C567.134 185.871 569.647 185.535 572.16 185.032L575.176 186.206C577.187 187.297 577.522 190.232 577.522 190.232L578.276 197.11H574.003C572.328 197.11 570.569 196.69 569.145 195.768C568.056 194.929 567.05 194.006 566.213 192.916L560.181 185.535C561.689 185.703 563.197 185.787 564.621 185.787ZM530.693 205.161H530.274L529.353 205.077C524.41 204.323 520.976 199.626 521.814 194.677C522.567 189.729 527.259 186.29 532.201 187.129C537.144 187.884 540.578 192.581 539.741 197.529C538.987 201.89 535.133 205.161 530.693 205.161ZM553.563 202.729L548.537 207.006L538.484 206C539.489 205.161 540.411 204.239 541.165 203.148H547.783L553.647 198.2L553.563 202.729ZM553.814 193.503L551.217 195.684L551.804 190.316V190.232C551.804 190.232 552.055 187.297 554.149 186.206L555.825 185.535L558.841 189.226L553.814 193.503ZM564.705 227.89C561.94 227.89 559.176 227.723 556.495 227.303L556.663 219.839L557.249 195.181L561.019 191.993L563.532 195.097C564.621 196.523 565.961 197.781 567.385 198.787C568.893 199.71 570.653 200.297 572.412 200.548L573.082 227.303C570.317 227.639 567.469 227.806 564.705 227.89ZM596.287 205.581L581.124 207.006L573.585 200.632H579.114L581.962 203.148H596.371L596.287 205.581Z" fill="#2A2859"/>
<path d="M666.729 210.186C676.58 210.186 684.616 202.251 684.616 189.027C684.616 176.243 676.58 168.418 666.729 168.418C656.822 168.418 648.786 176.243 648.786 189.027C648.786 202.251 656.822 210.186 666.729 210.186ZM666.729 205.558C659.794 205.558 653.905 200.047 653.905 189.027C653.905 178.006 659.574 173.047 666.729 173.047C673.828 173.047 679.497 178.006 679.497 189.027C679.497 200.047 673.608 205.558 666.729 205.558Z" fill="#2A2859"/>
<path d="M691.112 188.255C691.112 192.278 694.029 195.033 699.423 196.135L704.432 197.127C707.789 197.843 709.22 199.166 709.22 201.59C709.22 204.345 706.413 206.164 702.23 206.164C698.102 206.164 695.185 204.566 693.699 201.59L690.067 203.519C692.158 207.817 696.396 210.131 702.34 210.131C709.165 210.131 713.788 206.549 713.788 201.315C713.788 196.906 710.761 194.096 704.432 192.829L700.194 192.002C697.056 191.341 695.68 190.074 695.68 187.925C695.68 185.445 698.157 183.957 701.9 183.957C705.477 183.957 708.119 185.39 709.33 187.98L712.907 186.161C711.366 182.304 707.404 179.935 702.01 179.935C695.57 179.935 691.112 183.516 691.112 188.255Z" fill="#2A2859"/>
<path d="M731.263 209.58V205.502C730.657 205.668 730.052 205.723 729.502 205.723C727.19 205.723 725.814 204.511 725.814 201.976V168.914H721.081V202.196C721.081 206.935 723.447 209.966 728.401 209.966C729.392 209.966 730.272 209.8 731.263 209.58Z" fill="#2A2859"/>
<path d="M749.338 210.186C756.658 210.186 762.657 204.235 762.657 194.978C762.657 185.886 756.713 179.935 749.338 179.935C741.908 179.935 735.964 185.886 735.964 194.978C735.964 204.235 741.963 210.186 749.338 210.186ZM749.338 206.053C744.66 206.053 740.862 202.417 740.862 194.978C740.862 187.539 744.715 184.067 749.338 184.067C753.906 184.067 757.759 187.539 757.759 194.978C757.759 202.417 753.961 206.053 749.338 206.053Z" fill="#2A2859"/>
</svg>
