<svg width="1451" height="436" viewBox="0 0 1451 436" fill="none" xmlns="http://www.w3.org/2000/svg">
<rect width="1451" height="436" fill="#F2F2F2"/>
<rect width="375" height="146" transform="translate(139.5 145)" fill="#F9F9F9"/>
<path d="M176.274 182.64C178.612 182.64 180.054 184.012 180.054 186.056C180.054 188.1 178.542 189.472 176.19 189.472H174.356V193H172.718V182.64H176.274ZM176.33 188.044C177.618 188.044 178.36 187.358 178.36 186.112C178.36 184.81 177.618 184.124 176.316 184.124H174.356V188.044H176.33ZM183.835 184.908C182.855 184.908 182.029 184.194 182.029 183.214C182.029 182.248 182.855 181.548 183.835 181.548C184.829 181.548 185.641 182.248 185.641 183.214C185.641 184.194 184.829 184.908 183.835 184.908ZM183.835 182.36C183.345 182.36 182.981 182.64 182.981 183.214C182.981 183.788 183.345 184.096 183.835 184.096C184.325 184.096 184.689 183.788 184.689 183.214C184.689 182.64 184.325 182.36 183.835 182.36ZM186.943 193H185.501C185.389 192.622 185.319 192.174 185.291 191.6C184.941 192.37 184.157 193.126 182.869 193.126C181.525 193.126 180.573 192.216 180.573 190.928C180.573 189.318 182.001 188.52 183.597 188.52C184.101 188.52 184.577 188.562 185.095 188.702V188.002C185.095 187.204 184.591 186.686 183.681 186.686C182.827 186.686 182.225 187.148 181.945 188.016L180.615 187.61C181.147 186.042 182.421 185.412 183.751 185.412C185.725 185.412 186.621 186.574 186.621 187.988V190.858C186.621 191.74 186.761 192.524 186.943 193ZM185.095 189.934V189.766C184.647 189.612 184.213 189.556 183.751 189.556C182.827 189.556 182.113 189.976 182.113 190.788C182.113 191.474 182.603 191.908 183.345 191.908C184.101 191.908 185.095 191.46 185.095 189.934ZM191.677 192.958C191.383 193.042 191.089 193.084 190.781 193.084C189.367 193.084 188.695 192.244 188.695 190.886V182.64H190.263V190.774C190.263 191.418 190.641 191.712 191.215 191.712C191.355 191.712 191.509 191.698 191.677 191.656V192.958ZM196.018 193.14C194.086 193.14 192.504 191.628 192.504 189.248C192.504 186.924 194.072 185.412 196.018 185.412C197.964 185.412 199.532 186.924 199.532 189.248C199.532 191.628 197.95 193.14 196.018 193.14ZM196.018 191.81C197.068 191.81 197.922 190.998 197.922 189.248C197.922 187.484 197.054 186.742 196.018 186.742C194.982 186.742 194.114 187.484 194.114 189.248C194.114 190.998 194.982 191.81 196.018 191.81ZM207.999 186.798H206.445V186.966C206.697 187.316 206.823 187.722 206.823 188.142C206.823 189.486 205.787 190.83 203.631 190.83H203.267C202.511 190.83 202.021 191.082 202.021 191.53C202.021 191.838 202.259 192.062 202.735 192.062H205.829C207.103 192.062 207.831 192.72 207.831 193.728C207.831 195.254 206.277 196.136 203.799 196.136C201.629 196.136 200.173 195.59 199.795 194.148L201.321 193.854C201.671 194.75 202.483 194.988 203.841 194.988C205.297 194.988 206.333 194.596 206.333 193.91C206.333 193.588 206.151 193.35 205.647 193.35H202.273C201.111 193.35 200.509 192.72 200.509 191.936C200.509 191.18 201.181 190.578 202.105 190.396C201.083 189.948 200.579 188.996 200.579 188.1C200.579 186.77 201.657 185.412 203.715 185.412C204.625 185.412 205.339 185.734 205.759 186.196V185.58H207.999V186.798ZM203.715 189.696C204.793 189.696 205.297 188.94 205.297 188.128C205.297 187.316 204.793 186.574 203.715 186.574C202.651 186.574 202.133 187.316 202.133 188.128C202.133 188.94 202.651 189.696 203.715 189.696ZM216.385 186.798H214.831V186.966C215.083 187.316 215.209 187.722 215.209 188.142C215.209 189.486 214.173 190.83 212.017 190.83H211.653C210.897 190.83 210.407 191.082 210.407 191.53C210.407 191.838 210.645 192.062 211.121 192.062H214.215C215.489 192.062 216.217 192.72 216.217 193.728C216.217 195.254 214.663 196.136 212.185 196.136C210.015 196.136 208.559 195.59 208.181 194.148L209.707 193.854C210.057 194.75 210.869 194.988 212.227 194.988C213.683 194.988 214.719 194.596 214.719 193.91C214.719 193.588 214.537 193.35 214.033 193.35H210.659C209.497 193.35 208.895 192.72 208.895 191.936C208.895 191.18 209.567 190.578 210.491 190.396C209.469 189.948 208.965 188.996 208.965 188.1C208.965 186.77 210.043 185.412 212.101 185.412C213.011 185.412 213.725 185.734 214.145 186.196V185.58H216.385V186.798ZM212.101 189.696C213.179 189.696 213.683 188.94 213.683 188.128C213.683 187.316 213.179 186.574 212.101 186.574C211.037 186.574 210.519 187.316 210.519 188.128C210.519 188.94 211.037 189.696 212.101 189.696ZM222.167 190.662L223.231 191.278C222.811 192.202 221.831 193.126 220.137 193.126C217.939 193.126 216.609 191.502 216.609 189.22C216.609 186.966 218.051 185.412 220.025 185.412C221.775 185.412 223.217 186.588 223.217 188.688L223.189 189.612H218.149C218.233 191.18 219.003 191.852 220.235 191.852C221.145 191.852 221.775 191.362 222.167 190.662ZM220.025 186.644C219.073 186.644 218.275 187.148 218.149 188.492H221.691C221.705 187.176 220.893 186.644 220.025 186.644ZM226.914 190.704C226.914 191.53 227.418 191.782 227.936 191.782C228.342 191.782 228.664 191.614 228.986 191.292L229.658 192.3C229.098 192.86 228.482 193.126 227.684 193.126C226.396 193.126 225.346 192.342 225.346 190.802V186.798H224.044V185.58H225.346V183.928L226.914 183.214V185.58H229.532V186.798H226.914V190.704ZM233.962 187.624C233.962 186.364 235.124 185.412 236.874 185.412C238.316 185.412 239.282 185.93 239.8 186.924L238.708 187.596C238.372 187.022 237.7 186.672 236.86 186.672C236.02 186.672 235.446 186.994 235.446 187.526C235.446 187.96 235.74 188.226 236.398 188.352L237.644 188.604C239.212 188.912 239.996 189.654 239.996 190.788C239.996 192.188 238.778 193.126 236.944 193.126C235.39 193.126 234.284 192.538 233.71 191.46L234.802 190.774C235.208 191.46 235.922 191.852 236.902 191.852C237.854 191.852 238.498 191.474 238.498 190.858C238.498 190.354 238.19 190.074 237.504 189.934L236.132 189.668C234.732 189.402 233.962 188.688 233.962 187.624ZM244.465 193.14C242.533 193.14 240.951 191.628 240.951 189.248C240.951 186.924 242.519 185.412 244.465 185.412C246.411 185.412 247.979 186.924 247.979 189.248C247.979 191.628 246.397 193.14 244.465 193.14ZM244.465 191.81C245.515 191.81 246.369 190.998 246.369 189.248C246.369 187.484 245.501 186.742 244.465 186.742C243.429 186.742 242.561 187.484 242.561 189.248C242.561 190.998 243.429 191.81 244.465 191.81ZM257.756 185.412C259.24 185.412 260.094 186.378 260.094 187.932V193H258.526V188.198C258.526 187.218 258.064 186.77 257.252 186.77C256.16 186.77 255.614 187.526 255.614 188.982V193H254.046V188.198C254.046 187.218 253.584 186.77 252.772 186.77C251.694 186.77 251.148 187.526 251.148 188.982V193H249.58V185.58H251.148V186.63C251.652 185.832 252.38 185.412 253.276 185.412C254.41 185.412 255.152 185.958 255.474 186.882C255.978 185.902 256.762 185.412 257.756 185.412Z" fill="#666666"/>
<path d="M181.436 227L180.428 223.76H175.28L174.236 227H172.022L176.648 213.68H179.186L183.794 227H181.436ZM175.874 221.906H179.834L177.872 215.624L175.874 221.906ZM191.584 227L188.686 222.626L187.588 223.706V227H185.572V213.68H187.588V221.42L191.44 217.46H193.924L190.018 221.312L193.996 227H191.584ZM194.607 220.088C194.607 218.468 196.101 217.244 198.351 217.244C200.205 217.244 201.447 217.91 202.113 219.188L200.709 220.052C200.277 219.314 199.413 218.864 198.333 218.864C197.253 218.864 196.515 219.278 196.515 219.962C196.515 220.52 196.893 220.862 197.739 221.024L199.341 221.348C201.357 221.744 202.365 222.698 202.365 224.156C202.365 225.956 200.799 227.162 198.441 227.162C196.443 227.162 195.021 226.406 194.283 225.02L195.687 224.138C196.209 225.02 197.127 225.524 198.387 225.524C199.611 225.524 200.439 225.038 200.439 224.246C200.439 223.598 200.043 223.238 199.161 223.058L197.397 222.716C195.597 222.374 194.607 221.456 194.607 220.088ZM210.797 223.994L212.165 224.786C211.625 225.974 210.365 227.162 208.187 227.162C205.361 227.162 203.651 225.074 203.651 222.14C203.651 219.242 205.505 217.244 208.043 217.244C210.293 217.244 212.147 218.756 212.147 221.456L212.111 222.644H205.631C205.739 224.66 206.729 225.524 208.313 225.524C209.483 225.524 210.293 224.894 210.797 223.994ZM208.043 218.828C206.819 218.828 205.793 219.476 205.631 221.204H210.185C210.203 219.512 209.159 218.828 208.043 218.828ZM218.267 226.946C217.889 227.054 217.511 227.108 217.115 227.108C215.297 227.108 214.433 226.028 214.433 224.282V213.68H216.449V224.138C216.449 224.966 216.935 225.344 217.673 225.344C217.853 225.344 218.051 225.326 218.267 225.272V226.946ZM239.607 213.68H241.767L238.077 227H235.881L232.893 216.812L229.743 227H227.547L223.875 213.68H226.215L228.771 224.174L231.813 213.68H234.009L237.051 224.156L239.607 213.68ZM249.389 223.994L250.757 224.786C250.217 225.974 248.957 227.162 246.779 227.162C243.953 227.162 242.243 225.074 242.243 222.14C242.243 219.242 244.097 217.244 246.635 217.244C248.885 217.244 250.739 218.756 250.739 221.456L250.703 222.644H244.223C244.331 224.66 245.321 225.524 246.905 225.524C248.075 225.524 248.885 224.894 249.389 223.994ZM246.635 218.828C245.411 218.828 244.385 219.476 244.223 221.204H248.777C248.795 219.512 247.751 218.828 246.635 218.828ZM258.048 217.262C260.352 217.262 262.008 219.224 262.008 222.14C262.008 225.128 260.334 227.144 257.814 227.144C256.716 227.144 255.654 226.658 255.042 225.47V227H253.026V213.68H255.042V219.17C255.78 217.82 256.95 217.262 258.048 217.262ZM257.508 225.488C258.894 225.488 259.92 224.372 259.92 222.23C259.92 220.088 258.894 218.99 257.508 218.99C256.032 218.99 255.042 219.998 255.042 222.212C255.042 224.426 256.032 225.488 257.508 225.488ZM273.934 227.18C270.622 227.18 267.94 224.624 267.94 220.214C267.94 216.056 270.622 213.5 273.934 213.5C277.246 213.5 279.928 216.056 279.928 220.214C279.928 224.624 277.246 227.18 273.934 227.18ZM273.934 225.2C275.986 225.2 277.732 223.598 277.732 220.232C277.732 216.956 276.04 215.48 273.934 215.48C271.828 215.48 270.136 216.956 270.136 220.232C270.136 223.598 271.882 225.2 273.934 225.2ZM287.049 217.262C289.353 217.262 291.009 219.224 291.009 222.14C291.009 225.128 289.335 227.144 286.815 227.144C285.735 227.144 284.673 226.676 284.061 225.506V230.78H282.045V217.46H284.061V219.134C284.799 217.802 285.951 217.262 287.049 217.262ZM286.509 225.488C287.895 225.488 288.921 224.372 288.921 222.23C288.921 220.088 287.895 218.99 286.509 218.99C285.033 218.99 284.061 219.998 284.061 222.212C284.061 224.426 285.033 225.488 286.509 225.488ZM299.484 213.68H301.5V227H299.484V225.272C298.746 226.604 297.594 227.144 296.496 227.144C294.192 227.144 292.536 225.164 292.536 222.266C292.536 219.26 294.21 217.262 296.73 217.262C297.81 217.262 298.89 217.748 299.484 218.918V213.68ZM297.036 225.38C298.494 225.38 299.484 224.39 299.484 222.158C299.484 219.944 298.512 218.882 297.036 218.882C295.65 218.882 294.624 219.998 294.624 222.158C294.624 224.3 295.65 225.38 297.036 225.38ZM311.831 227H309.977C309.833 226.514 309.743 225.938 309.707 225.2C309.257 226.19 308.249 227.162 306.593 227.162C304.865 227.162 303.641 225.992 303.641 224.336C303.641 222.266 305.477 221.24 307.529 221.24C308.177 221.24 308.789 221.294 309.455 221.474V220.574C309.455 219.548 308.807 218.882 307.637 218.882C306.539 218.882 305.765 219.476 305.405 220.592L303.695 220.07C304.379 218.054 306.017 217.244 307.727 217.244C310.265 217.244 311.417 218.738 311.417 220.556V224.246C311.417 225.38 311.597 226.388 311.831 227ZM309.455 223.058V222.842C308.879 222.644 308.321 222.572 307.727 222.572C306.539 222.572 305.621 223.112 305.621 224.156C305.621 225.038 306.251 225.596 307.205 225.596C308.177 225.596 309.455 225.02 309.455 223.058ZM319.07 217.244C321.014 217.244 322.166 218.504 322.166 220.574V227H320.15V220.898C320.15 219.584 319.52 218.99 318.422 218.99C317 218.99 316.262 219.98 316.262 221.834V227H314.246V213.68H316.262V218.846C316.91 217.82 317.882 217.244 319.07 217.244ZM328.726 226.946C328.348 227.054 327.97 227.108 327.574 227.108C325.756 227.108 324.892 226.028 324.892 224.282V213.68H326.908V224.138C326.908 224.966 327.394 225.344 328.132 225.344C328.312 225.344 328.51 225.326 328.726 225.272V226.946Z" fill="#2A2859"/>
<path d="M172.684 244.296C172.684 242.312 174.492 241.032 176.588 241.032C178.524 241.032 179.836 241.864 180.428 243.352L179.372 243.784C178.892 242.648 177.82 242.024 176.588 242.024C174.956 242.024 173.804 242.856 173.804 244.168C173.804 245.272 174.46 245.944 175.852 246.216L177.708 246.568C179.532 246.92 180.876 247.896 180.876 249.672C180.876 251.496 179.34 253.128 176.748 253.128C174.7 253.128 173.164 252.424 172.332 250.664L173.356 250.248C174.156 251.816 175.484 252.136 176.78 252.136C178.716 252.136 179.756 251.016 179.756 249.736C179.756 248.312 178.796 247.896 177.356 247.624L175.66 247.304C174.012 247 172.684 246.088 172.684 244.296ZM183.595 242.984C183.067 242.984 182.635 242.568 182.635 242.024C182.635 241.48 183.067 241.064 183.595 241.064C184.123 241.064 184.555 241.48 184.555 242.024C184.555 242.568 184.123 242.984 183.595 242.984ZM183.051 253V244.52H184.139V253H183.051ZM186.279 246.728C186.279 245.384 187.543 244.392 189.319 244.392C190.855 244.392 192.039 245.128 192.391 246.248L191.495 246.6C191.159 245.784 190.375 245.352 189.287 245.352C188.103 245.352 187.335 245.848 187.335 246.632C187.335 247.336 187.799 247.768 188.807 247.976L189.927 248.2C191.783 248.568 192.647 249.368 192.647 250.632C192.647 252.104 191.335 253.128 189.447 253.128C187.735 253.128 186.535 252.456 185.959 251.176L186.887 250.792C187.287 251.688 188.167 252.168 189.415 252.168C190.727 252.168 191.591 251.592 191.591 250.728C191.591 249.928 191.143 249.496 190.023 249.256L188.647 248.968C187.095 248.648 186.279 247.864 186.279 246.728ZM196.128 250.888C196.128 251.88 196.72 252.168 197.248 252.168C197.76 252.168 198.096 251.976 198.496 251.56L199.072 252.2C198.512 252.856 197.904 253.128 197.152 253.128C196 253.128 195.04 252.36 195.04 250.856V245.416H193.44V244.52H195.04V242.696L196.128 242.056V244.52H198.88V245.416H196.128V250.888ZM204.338 241.224H206.002V242.856H204.338V241.224ZM204.626 253V244.52H205.714V253H204.626ZM211.822 244.392C213.518 244.392 214.51 245.432 214.51 247.336V253H213.422V247.496C213.422 245.96 212.718 245.384 211.534 245.384C210.046 245.384 209.358 246.536 209.358 248.232V253H208.27V244.52H209.358V245.832C209.87 244.904 210.798 244.392 211.822 244.392ZM220.481 244.392C222.177 244.392 223.169 245.432 223.169 247.336V253H222.081V247.496C222.081 245.96 221.377 245.384 220.193 245.384C218.705 245.384 218.017 246.536 218.017 248.232V253H216.929V244.52H218.017V245.832C218.529 244.904 219.457 244.392 220.481 244.392ZM228.245 252.968C227.989 253.032 227.781 253.064 227.541 253.064C226.213 253.064 225.589 252.232 225.589 250.984V241.16H226.677V250.984C226.677 251.704 227.061 252.072 227.733 252.072C227.909 252.072 228.085 252.056 228.245 252.008V252.968ZM233.011 253.128C230.915 253.128 229.235 251.4 229.235 248.744C229.235 246.12 230.899 244.392 233.011 244.392C235.123 244.392 236.787 246.12 236.787 248.744C236.787 251.4 235.107 253.128 233.011 253.128ZM233.011 252.168C234.467 252.168 235.667 251.016 235.667 248.744C235.667 246.488 234.451 245.352 233.011 245.352C231.571 245.352 230.355 246.488 230.355 248.744C230.355 251.016 231.555 252.168 233.011 252.168ZM245.93 245.416H244.106V245.72C244.522 246.232 244.746 246.872 244.746 247.496C244.746 249.048 243.626 250.632 241.242 250.632H240.874C239.914 250.632 239.226 251 239.226 251.56C239.226 251.992 239.562 252.296 240.266 252.296H243.706C245.082 252.296 245.786 252.968 245.786 254.024C245.786 255.704 243.85 256.584 241.466 256.584C239.322 256.584 237.834 255.896 237.322 254.408L238.202 254.008C238.794 255.4 240.042 255.672 241.466 255.672C243.226 255.672 244.698 255.144 244.698 254.12C244.698 253.64 244.442 253.288 243.674 253.288H240.026C238.842 253.288 238.138 252.728 238.138 251.848C238.138 251.096 238.762 250.44 239.802 250.168C238.682 249.72 238.058 248.536 238.058 247.496C238.058 245.976 239.194 244.392 241.434 244.392C242.314 244.392 242.986 244.68 243.498 245.112V244.52H245.93V245.416ZM241.418 249.736C242.922 249.736 243.674 248.696 243.674 247.496C243.674 246.312 242.922 245.32 241.418 245.32C239.898 245.32 239.13 246.328 239.13 247.496C239.13 248.68 239.898 249.736 241.418 249.736ZM255.042 245.416H253.218V245.72C253.634 246.232 253.858 246.872 253.858 247.496C253.858 249.048 252.738 250.632 250.354 250.632H249.986C249.026 250.632 248.338 251 248.338 251.56C248.338 251.992 248.674 252.296 249.378 252.296H252.818C254.194 252.296 254.898 252.968 254.898 254.024C254.898 255.704 252.962 256.584 250.578 256.584C248.434 256.584 246.946 255.896 246.434 254.408L247.314 254.008C247.906 255.4 249.154 255.672 250.578 255.672C252.338 255.672 253.81 255.144 253.81 254.12C253.81 253.64 253.554 253.288 252.786 253.288H249.138C247.954 253.288 247.25 252.728 247.25 251.848C247.25 251.096 247.874 250.44 248.914 250.168C247.794 249.72 247.17 248.536 247.17 247.496C247.17 245.976 248.306 244.392 250.546 244.392C251.426 244.392 252.098 244.68 252.61 245.112V244.52H255.042V245.416ZM250.53 249.736C252.034 249.736 252.786 248.696 252.786 247.496C252.786 246.312 252.034 245.32 250.53 245.32C249.01 245.32 248.242 246.328 248.242 247.496C248.242 248.68 249.01 249.736 250.53 249.736ZM261.69 250.6L262.49 251.048C262.09 252.072 261.034 253.128 259.146 253.128C256.762 253.128 255.354 251.352 255.354 248.648C255.354 246.168 256.826 244.392 259.034 244.392C260.858 244.392 262.426 245.704 262.426 248.008L262.394 248.952H256.458C256.554 251.208 257.626 252.168 259.258 252.168C260.538 252.168 261.29 251.432 261.69 250.6ZM259.034 245.352C257.754 245.352 256.602 246.04 256.458 248.056H261.354C261.402 246.152 260.282 245.352 259.034 245.352ZM266.066 250.888C266.066 251.88 266.658 252.168 267.186 252.168C267.698 252.168 268.034 251.976 268.434 251.56L269.01 252.2C268.45 252.856 267.842 253.128 267.09 253.128C265.938 253.128 264.978 252.36 264.978 250.856V245.416H263.378V244.52H264.978V242.696L266.066 242.056V244.52H268.818V245.416H266.066V250.888ZM271.982 247.464C271.406 247.464 270.958 247.032 270.958 246.44C270.958 245.848 271.406 245.416 271.982 245.416C272.558 245.416 273.006 245.848 273.006 246.44C273.006 247.032 272.558 247.464 271.982 247.464ZM271.982 253.096C271.406 253.096 270.958 252.664 270.958 252.072C270.958 251.48 271.406 251.048 271.982 251.048C272.558 251.048 273.006 251.48 273.006 252.072C273.006 252.664 272.558 253.096 271.982 253.096ZM281.275 251.976H287.515V253H279.771V252.168L284.027 247.432C285.291 246.04 285.819 245.272 285.819 244.2C285.819 243 285.019 242.024 283.451 242.024C282.235 242.024 281.195 242.568 280.667 244.056L279.675 243.72C280.443 241.768 281.819 241.032 283.499 241.032C285.787 241.032 286.939 242.6 286.939 244.104C286.939 245.416 286.443 246.296 284.779 248.136L281.275 251.976ZM293.517 253.128C291.181 253.128 289.197 250.92 289.197 247.08C289.197 243.24 291.165 241.032 293.517 241.032C295.869 241.032 297.837 243.24 297.837 247.08C297.837 250.92 295.853 253.128 293.517 253.128ZM293.517 252.072C295.277 252.072 296.717 250.616 296.717 247.08C296.717 243.624 295.293 242.088 293.517 242.088C291.741 242.088 290.317 243.624 290.317 247.08C290.317 250.616 291.757 252.072 293.517 252.072ZM299.743 251.208H301.471V253H299.743V251.208ZM307.711 253.128C305.375 253.128 303.391 250.92 303.391 247.08C303.391 243.24 305.359 241.032 307.711 241.032C310.063 241.032 312.031 243.24 312.031 247.08C312.031 250.92 310.047 253.128 307.711 253.128ZM307.711 252.072C309.471 252.072 310.911 250.616 310.911 247.08C310.911 243.624 309.487 242.088 307.711 242.088C305.935 242.088 304.511 243.624 304.511 247.08C304.511 250.616 305.951 252.072 307.711 252.072ZM318.465 252.072H321.089V253H314.625V252.072H317.377V242.408L314.785 244.2V243.016L317.441 241.16H318.465V252.072ZM324.835 253.096C324.259 253.096 323.811 252.664 323.811 252.072C323.811 251.48 324.259 251.048 324.835 251.048C325.411 251.048 325.859 251.48 325.859 252.072C325.859 252.664 325.411 253.096 324.835 253.096ZM329.731 251.976H335.971V253H328.227V252.168L332.483 247.432C333.747 246.04 334.275 245.272 334.275 244.2C334.275 243 333.475 242.024 331.907 242.024C330.691 242.024 329.651 242.568 329.123 244.056L328.131 243.72C328.899 241.768 330.275 241.032 331.955 241.032C334.243 241.032 335.395 242.6 335.395 244.104C335.395 245.416 334.899 246.296 333.235 248.136L329.731 251.976ZM341.973 253.128C339.637 253.128 337.653 250.92 337.653 247.08C337.653 243.24 339.621 241.032 341.973 241.032C344.325 241.032 346.293 243.24 346.293 247.08C346.293 250.92 344.309 253.128 341.973 253.128ZM341.973 252.072C343.733 252.072 345.173 250.616 345.173 247.08C345.173 243.624 343.749 242.088 341.973 242.088C340.197 242.088 338.773 243.624 338.773 247.08C338.773 250.616 340.213 252.072 341.973 252.072ZM349.799 251.976H356.039V253H348.295V252.168L352.551 247.432C353.815 246.04 354.343 245.272 354.343 244.2C354.343 243 353.543 242.024 351.975 242.024C350.759 242.024 349.719 242.568 349.191 244.056L348.199 243.72C348.967 241.768 350.343 241.032 352.023 241.032C354.311 241.032 355.463 242.6 355.463 244.104C355.463 245.416 354.967 246.296 353.303 248.136L349.799 251.976ZM359.834 251.976H366.074V253H358.33V252.168L362.586 247.432C363.85 246.04 364.378 245.272 364.378 244.2C364.378 243 363.578 242.024 362.01 242.024C360.794 242.024 359.754 242.568 359.226 244.056L358.234 243.72C359.002 241.768 360.378 241.032 362.058 241.032C364.346 241.032 365.498 242.6 365.498 244.104C365.498 245.416 365.002 246.296 363.338 248.136L359.834 251.976Z" fill="#2A2859"/>
<rect width="375" height="146" transform="translate(538.5 145)" fill="#F9F9F9"/>
<path d="M575.274 182.64C577.612 182.64 579.054 184.012 579.054 186.056C579.054 188.1 577.542 189.472 575.19 189.472H573.356V193H571.718V182.64H575.274ZM575.33 188.044C576.618 188.044 577.36 187.358 577.36 186.112C577.36 184.81 576.618 184.124 575.316 184.124H573.356V188.044H575.33ZM582.835 184.908C581.855 184.908 581.029 184.194 581.029 183.214C581.029 182.248 581.855 181.548 582.835 181.548C583.829 181.548 584.641 182.248 584.641 183.214C584.641 184.194 583.829 184.908 582.835 184.908ZM582.835 182.36C582.345 182.36 581.981 182.64 581.981 183.214C581.981 183.788 582.345 184.096 582.835 184.096C583.325 184.096 583.689 183.788 583.689 183.214C583.689 182.64 583.325 182.36 582.835 182.36ZM585.943 193H584.501C584.389 192.622 584.319 192.174 584.291 191.6C583.941 192.37 583.157 193.126 581.869 193.126C580.525 193.126 579.573 192.216 579.573 190.928C579.573 189.318 581.001 188.52 582.597 188.52C583.101 188.52 583.577 188.562 584.095 188.702V188.002C584.095 187.204 583.591 186.686 582.681 186.686C581.827 186.686 581.225 187.148 580.945 188.016L579.615 187.61C580.147 186.042 581.421 185.412 582.751 185.412C584.725 185.412 585.621 186.574 585.621 187.988V190.858C585.621 191.74 585.761 192.524 585.943 193ZM584.095 189.934V189.766C583.647 189.612 583.213 189.556 582.751 189.556C581.827 189.556 581.113 189.976 581.113 190.788C581.113 191.474 581.603 191.908 582.345 191.908C583.101 191.908 584.095 191.46 584.095 189.934ZM590.677 192.958C590.383 193.042 590.089 193.084 589.781 193.084C588.367 193.084 587.695 192.244 587.695 190.886V182.64H589.263V190.774C589.263 191.418 589.641 191.712 590.215 191.712C590.355 191.712 590.509 191.698 590.677 191.656V192.958ZM595.018 193.14C593.086 193.14 591.504 191.628 591.504 189.248C591.504 186.924 593.072 185.412 595.018 185.412C596.964 185.412 598.532 186.924 598.532 189.248C598.532 191.628 596.95 193.14 595.018 193.14ZM595.018 191.81C596.068 191.81 596.922 190.998 596.922 189.248C596.922 187.484 596.054 186.742 595.018 186.742C593.982 186.742 593.114 187.484 593.114 189.248C593.114 190.998 593.982 191.81 595.018 191.81ZM606.999 186.798H605.445V186.966C605.697 187.316 605.823 187.722 605.823 188.142C605.823 189.486 604.787 190.83 602.631 190.83H602.267C601.511 190.83 601.021 191.082 601.021 191.53C601.021 191.838 601.259 192.062 601.735 192.062H604.829C606.103 192.062 606.831 192.72 606.831 193.728C606.831 195.254 605.277 196.136 602.799 196.136C600.629 196.136 599.173 195.59 598.795 194.148L600.321 193.854C600.671 194.75 601.483 194.988 602.841 194.988C604.297 194.988 605.333 194.596 605.333 193.91C605.333 193.588 605.151 193.35 604.647 193.35H601.273C600.111 193.35 599.509 192.72 599.509 191.936C599.509 191.18 600.181 190.578 601.105 190.396C600.083 189.948 599.579 188.996 599.579 188.1C599.579 186.77 600.657 185.412 602.715 185.412C603.625 185.412 604.339 185.734 604.759 186.196V185.58H606.999V186.798ZM602.715 189.696C603.793 189.696 604.297 188.94 604.297 188.128C604.297 187.316 603.793 186.574 602.715 186.574C601.651 186.574 601.133 187.316 601.133 188.128C601.133 188.94 601.651 189.696 602.715 189.696ZM615.385 186.798H613.831V186.966C614.083 187.316 614.209 187.722 614.209 188.142C614.209 189.486 613.173 190.83 611.017 190.83H610.653C609.897 190.83 609.407 191.082 609.407 191.53C609.407 191.838 609.645 192.062 610.121 192.062H613.215C614.489 192.062 615.217 192.72 615.217 193.728C615.217 195.254 613.663 196.136 611.185 196.136C609.015 196.136 607.559 195.59 607.181 194.148L608.707 193.854C609.057 194.75 609.869 194.988 611.227 194.988C612.683 194.988 613.719 194.596 613.719 193.91C613.719 193.588 613.537 193.35 613.033 193.35H609.659C608.497 193.35 607.895 192.72 607.895 191.936C607.895 191.18 608.567 190.578 609.491 190.396C608.469 189.948 607.965 188.996 607.965 188.1C607.965 186.77 609.043 185.412 611.101 185.412C612.011 185.412 612.725 185.734 613.145 186.196V185.58H615.385V186.798ZM611.101 189.696C612.179 189.696 612.683 188.94 612.683 188.128C612.683 187.316 612.179 186.574 611.101 186.574C610.037 186.574 609.519 187.316 609.519 188.128C609.519 188.94 610.037 189.696 611.101 189.696ZM621.167 190.662L622.231 191.278C621.811 192.202 620.831 193.126 619.137 193.126C616.939 193.126 615.609 191.502 615.609 189.22C615.609 186.966 617.051 185.412 619.025 185.412C620.775 185.412 622.217 186.588 622.217 188.688L622.189 189.612H617.149C617.233 191.18 618.003 191.852 619.235 191.852C620.145 191.852 620.775 191.362 621.167 190.662ZM619.025 186.644C618.073 186.644 617.275 187.148 617.149 188.492H620.691C620.705 187.176 619.893 186.644 619.025 186.644ZM625.914 190.704C625.914 191.53 626.418 191.782 626.936 191.782C627.342 191.782 627.664 191.614 627.986 191.292L628.658 192.3C628.098 192.86 627.482 193.126 626.684 193.126C625.396 193.126 624.346 192.342 624.346 190.802V186.798H623.044V185.58H624.346V183.928L625.914 183.214V185.58H628.532V186.798H625.914V190.704ZM632.962 187.624C632.962 186.364 634.124 185.412 635.874 185.412C637.316 185.412 638.282 185.93 638.8 186.924L637.708 187.596C637.372 187.022 636.7 186.672 635.86 186.672C635.02 186.672 634.446 186.994 634.446 187.526C634.446 187.96 634.74 188.226 635.398 188.352L636.644 188.604C638.212 188.912 638.996 189.654 638.996 190.788C638.996 192.188 637.778 193.126 635.944 193.126C634.39 193.126 633.284 192.538 632.71 191.46L633.802 190.774C634.208 191.46 634.922 191.852 635.902 191.852C636.854 191.852 637.498 191.474 637.498 190.858C637.498 190.354 637.19 190.074 636.504 189.934L635.132 189.668C633.732 189.402 632.962 188.688 632.962 187.624ZM643.465 193.14C641.533 193.14 639.951 191.628 639.951 189.248C639.951 186.924 641.519 185.412 643.465 185.412C645.411 185.412 646.979 186.924 646.979 189.248C646.979 191.628 645.397 193.14 643.465 193.14ZM643.465 191.81C644.515 191.81 645.369 190.998 645.369 189.248C645.369 187.484 644.501 186.742 643.465 186.742C642.429 186.742 641.561 187.484 641.561 189.248C641.561 190.998 642.429 191.81 643.465 191.81ZM656.756 185.412C658.24 185.412 659.094 186.378 659.094 187.932V193H657.526V188.198C657.526 187.218 657.064 186.77 656.252 186.77C655.16 186.77 654.614 187.526 654.614 188.982V193H653.046V188.198C653.046 187.218 652.584 186.77 651.772 186.77C650.694 186.77 650.148 187.526 650.148 188.982V193H648.58V185.58H650.148V186.63C650.652 185.832 651.38 185.412 652.276 185.412C653.41 185.412 654.152 185.958 654.474 186.882C654.978 185.902 655.762 185.412 656.756 185.412Z" fill="#666666"/>
<path d="M580.436 227L579.428 223.76H574.28L573.236 227H571.022L575.648 213.68H578.186L582.794 227H580.436ZM574.874 221.906H578.834L576.872 215.624L574.874 221.906ZM590.584 227L587.686 222.626L586.588 223.706V227H584.572V213.68H586.588V221.42L590.44 217.46H592.924L589.018 221.312L592.996 227H590.584ZM593.607 220.088C593.607 218.468 595.101 217.244 597.351 217.244C599.205 217.244 600.447 217.91 601.113 219.188L599.709 220.052C599.277 219.314 598.413 218.864 597.333 218.864C596.253 218.864 595.515 219.278 595.515 219.962C595.515 220.52 595.893 220.862 596.739 221.024L598.341 221.348C600.357 221.744 601.365 222.698 601.365 224.156C601.365 225.956 599.799 227.162 597.441 227.162C595.443 227.162 594.021 226.406 593.283 225.02L594.687 224.138C595.209 225.02 596.127 225.524 597.387 225.524C598.611 225.524 599.439 225.038 599.439 224.246C599.439 223.598 599.043 223.238 598.161 223.058L596.397 222.716C594.597 222.374 593.607 221.456 593.607 220.088ZM609.797 223.994L611.165 224.786C610.625 225.974 609.365 227.162 607.187 227.162C604.361 227.162 602.651 225.074 602.651 222.14C602.651 219.242 604.505 217.244 607.043 217.244C609.293 217.244 611.147 218.756 611.147 221.456L611.111 222.644H604.631C604.739 224.66 605.729 225.524 607.313 225.524C608.483 225.524 609.293 224.894 609.797 223.994ZM607.043 218.828C605.819 218.828 604.793 219.476 604.631 221.204H609.185C609.203 219.512 608.159 218.828 607.043 218.828ZM617.267 226.946C616.889 227.054 616.511 227.108 616.115 227.108C614.297 227.108 613.433 226.028 613.433 224.282V213.68H615.449V224.138C615.449 224.966 615.935 225.344 616.673 225.344C616.853 225.344 617.051 225.326 617.267 225.272V226.946ZM638.607 213.68H640.767L637.077 227H634.881L631.893 216.812L628.743 227H626.547L622.875 213.68H625.215L627.771 224.174L630.813 213.68H633.009L636.051 224.156L638.607 213.68ZM648.389 223.994L649.757 224.786C649.217 225.974 647.957 227.162 645.779 227.162C642.953 227.162 641.243 225.074 641.243 222.14C641.243 219.242 643.097 217.244 645.635 217.244C647.885 217.244 649.739 218.756 649.739 221.456L649.703 222.644H643.223C643.331 224.66 644.321 225.524 645.905 225.524C647.075 225.524 647.885 224.894 648.389 223.994ZM645.635 218.828C644.411 218.828 643.385 219.476 643.223 221.204H647.777C647.795 219.512 646.751 218.828 645.635 218.828ZM657.048 217.262C659.352 217.262 661.008 219.224 661.008 222.14C661.008 225.128 659.334 227.144 656.814 227.144C655.716 227.144 654.654 226.658 654.042 225.47V227H652.026V213.68H654.042V219.17C654.78 217.82 655.95 217.262 657.048 217.262ZM656.508 225.488C657.894 225.488 658.92 224.372 658.92 222.23C658.92 220.088 657.894 218.99 656.508 218.99C655.032 218.99 654.042 219.998 654.042 222.212C654.042 224.426 655.032 225.488 656.508 225.488ZM672.934 227.18C669.622 227.18 666.94 224.624 666.94 220.214C666.94 216.056 669.622 213.5 672.934 213.5C676.246 213.5 678.928 216.056 678.928 220.214C678.928 224.624 676.246 227.18 672.934 227.18ZM672.934 225.2C674.986 225.2 676.732 223.598 676.732 220.232C676.732 216.956 675.04 215.48 672.934 215.48C670.828 215.48 669.136 216.956 669.136 220.232C669.136 223.598 670.882 225.2 672.934 225.2ZM686.049 217.262C688.353 217.262 690.009 219.224 690.009 222.14C690.009 225.128 688.335 227.144 685.815 227.144C684.735 227.144 683.673 226.676 683.061 225.506V230.78H681.045V217.46H683.061V219.134C683.799 217.802 684.951 217.262 686.049 217.262ZM685.509 225.488C686.895 225.488 687.921 224.372 687.921 222.23C687.921 220.088 686.895 218.99 685.509 218.99C684.033 218.99 683.061 219.998 683.061 222.212C683.061 224.426 684.033 225.488 685.509 225.488ZM698.484 213.68H700.5V227H698.484V225.272C697.746 226.604 696.594 227.144 695.496 227.144C693.192 227.144 691.536 225.164 691.536 222.266C691.536 219.26 693.21 217.262 695.73 217.262C696.81 217.262 697.89 217.748 698.484 218.918V213.68ZM696.036 225.38C697.494 225.38 698.484 224.39 698.484 222.158C698.484 219.944 697.512 218.882 696.036 218.882C694.65 218.882 693.624 219.998 693.624 222.158C693.624 224.3 694.65 225.38 696.036 225.38ZM710.831 227H708.977C708.833 226.514 708.743 225.938 708.707 225.2C708.257 226.19 707.249 227.162 705.593 227.162C703.865 227.162 702.641 225.992 702.641 224.336C702.641 222.266 704.477 221.24 706.529 221.24C707.177 221.24 707.789 221.294 708.455 221.474V220.574C708.455 219.548 707.807 218.882 706.637 218.882C705.539 218.882 704.765 219.476 704.405 220.592L702.695 220.07C703.379 218.054 705.017 217.244 706.727 217.244C709.265 217.244 710.417 218.738 710.417 220.556V224.246C710.417 225.38 710.597 226.388 710.831 227ZM708.455 223.058V222.842C707.879 222.644 707.321 222.572 706.727 222.572C705.539 222.572 704.621 223.112 704.621 224.156C704.621 225.038 705.251 225.596 706.205 225.596C707.177 225.596 708.455 225.02 708.455 223.058ZM718.07 217.244C720.014 217.244 721.166 218.504 721.166 220.574V227H719.15V220.898C719.15 219.584 718.52 218.99 717.422 218.99C716 218.99 715.262 219.98 715.262 221.834V227H713.246V213.68H715.262V218.846C715.91 217.82 716.882 217.244 718.07 217.244ZM727.726 226.946C727.348 227.054 726.97 227.108 726.574 227.108C724.756 227.108 723.892 226.028 723.892 224.282V213.68H725.908V224.138C725.908 224.966 726.394 225.344 727.132 225.344C727.312 225.344 727.51 225.326 727.726 225.272V226.946Z" fill="#2A2859"/>
<path d="M573.028 251.944H578.532V253H571.908V241.16H573.028V251.944ZM585.687 250.6L586.487 251.048C586.087 252.072 585.031 253.128 583.143 253.128C580.759 253.128 579.351 251.352 579.351 248.648C579.351 246.168 580.823 244.392 583.031 244.392C584.855 244.392 586.423 245.704 586.423 248.008L586.391 248.952H580.455C580.551 251.208 581.623 252.168 583.255 252.168C584.535 252.168 585.287 251.432 585.687 250.6ZM583.031 245.352C581.751 245.352 580.599 246.04 580.455 248.056H585.351C585.399 246.152 584.279 245.352 583.031 245.352ZM595.983 245.416H594.159V245.72C594.575 246.232 594.799 246.872 594.799 247.496C594.799 249.048 593.679 250.632 591.295 250.632H590.927C589.967 250.632 589.279 251 589.279 251.56C589.279 251.992 589.615 252.296 590.319 252.296H593.759C595.135 252.296 595.839 252.968 595.839 254.024C595.839 255.704 593.903 256.584 591.519 256.584C589.375 256.584 587.887 255.896 587.375 254.408L588.255 254.008C588.847 255.4 590.095 255.672 591.519 255.672C593.279 255.672 594.751 255.144 594.751 254.12C594.751 253.64 594.495 253.288 593.727 253.288H590.079C588.895 253.288 588.191 252.728 588.191 251.848C588.191 251.096 588.815 250.44 589.855 250.168C588.735 249.72 588.111 248.536 588.111 247.496C588.111 245.976 589.247 244.392 591.487 244.392C592.367 244.392 593.039 244.68 593.551 245.112V244.52H595.983V245.416ZM591.471 249.736C592.975 249.736 593.727 248.696 593.727 247.496C593.727 246.312 592.975 245.32 591.471 245.32C589.951 245.32 589.183 246.328 589.183 247.496C589.183 248.68 589.951 249.736 591.471 249.736ZM602.63 250.6L603.431 251.048C603.03 252.072 601.974 253.128 600.086 253.128C597.702 253.128 596.294 251.352 596.294 248.648C596.294 246.168 597.766 244.392 599.974 244.392C601.799 244.392 603.366 245.704 603.366 248.008L603.334 248.952H597.398C597.494 251.208 598.566 252.168 600.198 252.168C601.478 252.168 602.23 251.432 602.63 250.6ZM599.974 245.352C598.694 245.352 597.542 246.04 597.398 248.056H602.294C602.342 246.152 601.222 245.352 599.974 245.352ZM605.051 246.728C605.051 245.384 606.315 244.392 608.091 244.392C609.627 244.392 610.811 245.128 611.163 246.248L610.267 246.6C609.931 245.784 609.147 245.352 608.059 245.352C606.875 245.352 606.107 245.848 606.107 246.632C606.107 247.336 606.571 247.768 607.579 247.976L608.699 248.2C610.555 248.568 611.419 249.368 611.419 250.632C611.419 252.104 610.107 253.128 608.219 253.128C606.507 253.128 605.307 252.456 604.731 251.176L605.659 250.792C606.059 251.688 606.939 252.168 608.187 252.168C609.499 252.168 610.363 251.592 610.363 250.728C610.363 249.928 609.915 249.496 608.795 249.256L607.419 248.968C605.867 248.648 605.051 247.864 605.051 246.728ZM618.64 253L615.52 248.792L614.48 249.784V253H613.392V241.16H614.48V248.504L618.512 244.52H619.952L616.256 248.072L620.016 253H618.64ZM622.032 242.984C621.504 242.984 621.072 242.568 621.072 242.024C621.072 241.48 621.504 241.064 622.032 241.064C622.56 241.064 622.992 241.48 622.992 242.024C622.992 242.568 622.56 242.984 622.032 242.984ZM621.488 253V244.52H622.576V253H621.488ZM626.828 243.336V244.52H629.196V245.416H626.828V253H625.74V245.416H624.14V244.52H625.74V243.336C625.74 241.864 626.7 241.032 628.012 241.032C628.62 241.032 629.324 241.272 629.724 241.912L629.068 242.568C628.812 242.184 628.428 241.96 627.98 241.96C627.42 241.96 626.828 242.296 626.828 243.336ZM632.347 250.888C632.347 251.88 632.939 252.168 633.467 252.168C633.979 252.168 634.315 251.976 634.715 251.56L635.291 252.2C634.731 252.856 634.123 253.128 633.371 253.128C632.219 253.128 631.259 252.36 631.259 250.856V245.416H629.659V244.52H631.259V242.696L632.347 242.056V244.52H635.099V245.416H632.347V250.888ZM639.451 252.968C639.195 253.032 638.987 253.064 638.747 253.064C637.419 253.064 636.795 252.232 636.795 250.984V241.16H637.883V250.984C637.883 251.704 638.267 252.072 638.939 252.072C639.115 252.072 639.291 252.056 639.451 252.008V252.968ZM646.777 250.6L647.577 251.048C647.177 252.072 646.121 253.128 644.233 253.128C641.849 253.128 640.441 251.352 640.441 248.648C640.441 246.168 641.913 244.392 644.121 244.392C645.945 244.392 647.513 245.704 647.513 248.008L647.481 248.952H641.545C641.641 251.208 642.713 252.168 644.345 252.168C645.625 252.168 646.377 251.432 646.777 250.6ZM644.121 245.352C642.841 245.352 641.689 246.04 641.545 248.056H646.441C646.489 246.152 645.369 245.352 644.121 245.352ZM655.47 241.16H656.558V253H655.47V251.416C654.91 252.504 653.79 253.112 652.686 253.112C650.526 253.112 649.07 251.304 649.07 248.84C649.07 246.232 650.542 244.392 652.814 244.392C653.998 244.392 654.958 244.984 655.47 246.056V241.16ZM652.798 252.152C654.494 252.152 655.47 250.888 655.47 248.808C655.47 246.6 654.51 245.352 652.814 245.352C651.23 245.352 650.19 246.568 650.19 248.792C650.19 250.936 651.23 252.152 652.798 252.152ZM664.83 250.6L665.63 251.048C665.23 252.072 664.174 253.128 662.286 253.128C659.902 253.128 658.494 251.352 658.494 248.648C658.494 246.168 659.966 244.392 662.174 244.392C663.998 244.392 665.566 245.704 665.566 248.008L665.534 248.952H659.598C659.694 251.208 660.766 252.168 662.398 252.168C663.678 252.168 664.43 251.432 664.83 250.6ZM662.174 245.352C660.894 245.352 659.742 246.04 659.598 248.056H664.494C664.542 246.152 663.422 245.352 662.174 245.352ZM670.707 244.392C671.811 244.392 672.611 245.128 672.611 246.568V247.4L671.619 247.592V246.76C671.619 245.912 671.331 245.352 670.467 245.352C669.491 245.352 668.755 246.072 668.755 247.784V253H667.667V244.52H668.755V245.576C669.203 244.776 669.955 244.392 670.707 244.392Z" fill="#2A2859"/>
<rect width="375" height="146" transform="translate(937.5 145)" fill="#F9F9F9"/>
<path d="M974.274 182.64C976.612 182.64 978.054 184.012 978.054 186.056C978.054 188.1 976.542 189.472 974.19 189.472H972.356V193H970.718V182.64H974.274ZM974.33 188.044C975.618 188.044 976.36 187.358 976.36 186.112C976.36 184.81 975.618 184.124 974.316 184.124H972.356V188.044H974.33ZM981.835 184.908C980.855 184.908 980.029 184.194 980.029 183.214C980.029 182.248 980.855 181.548 981.835 181.548C982.829 181.548 983.641 182.248 983.641 183.214C983.641 184.194 982.829 184.908 981.835 184.908ZM981.835 182.36C981.345 182.36 980.981 182.64 980.981 183.214C980.981 183.788 981.345 184.096 981.835 184.096C982.325 184.096 982.689 183.788 982.689 183.214C982.689 182.64 982.325 182.36 981.835 182.36ZM984.943 193H983.501C983.389 192.622 983.319 192.174 983.291 191.6C982.941 192.37 982.157 193.126 980.869 193.126C979.525 193.126 978.573 192.216 978.573 190.928C978.573 189.318 980.001 188.52 981.597 188.52C982.101 188.52 982.577 188.562 983.095 188.702V188.002C983.095 187.204 982.591 186.686 981.681 186.686C980.827 186.686 980.225 187.148 979.945 188.016L978.615 187.61C979.147 186.042 980.421 185.412 981.751 185.412C983.725 185.412 984.621 186.574 984.621 187.988V190.858C984.621 191.74 984.761 192.524 984.943 193ZM983.095 189.934V189.766C982.647 189.612 982.213 189.556 981.751 189.556C980.827 189.556 980.113 189.976 980.113 190.788C980.113 191.474 980.603 191.908 981.345 191.908C982.101 191.908 983.095 191.46 983.095 189.934ZM989.677 192.958C989.383 193.042 989.089 193.084 988.781 193.084C987.367 193.084 986.695 192.244 986.695 190.886V182.64H988.263V190.774C988.263 191.418 988.641 191.712 989.215 191.712C989.355 191.712 989.509 191.698 989.677 191.656V192.958ZM994.018 193.14C992.086 193.14 990.504 191.628 990.504 189.248C990.504 186.924 992.072 185.412 994.018 185.412C995.964 185.412 997.532 186.924 997.532 189.248C997.532 191.628 995.95 193.14 994.018 193.14ZM994.018 191.81C995.068 191.81 995.922 190.998 995.922 189.248C995.922 187.484 995.054 186.742 994.018 186.742C992.982 186.742 992.114 187.484 992.114 189.248C992.114 190.998 992.982 191.81 994.018 191.81ZM1006 186.798H1004.45V186.966C1004.7 187.316 1004.82 187.722 1004.82 188.142C1004.82 189.486 1003.79 190.83 1001.63 190.83H1001.27C1000.51 190.83 1000.02 191.082 1000.02 191.53C1000.02 191.838 1000.26 192.062 1000.74 192.062H1003.83C1005.1 192.062 1005.83 192.72 1005.83 193.728C1005.83 195.254 1004.28 196.136 1001.8 196.136C999.629 196.136 998.173 195.59 997.795 194.148L999.321 193.854C999.671 194.75 1000.48 194.988 1001.84 194.988C1003.3 194.988 1004.33 194.596 1004.33 193.91C1004.33 193.588 1004.15 193.35 1003.65 193.35H1000.27C999.111 193.35 998.509 192.72 998.509 191.936C998.509 191.18 999.181 190.578 1000.11 190.396C999.083 189.948 998.579 188.996 998.579 188.1C998.579 186.77 999.657 185.412 1001.72 185.412C1002.63 185.412 1003.34 185.734 1003.76 186.196V185.58H1006V186.798ZM1001.72 189.696C1002.79 189.696 1003.3 188.94 1003.3 188.128C1003.3 187.316 1002.79 186.574 1001.72 186.574C1000.65 186.574 1000.13 187.316 1000.13 188.128C1000.13 188.94 1000.65 189.696 1001.72 189.696ZM1014.39 186.798H1012.83V186.966C1013.08 187.316 1013.21 187.722 1013.21 188.142C1013.21 189.486 1012.17 190.83 1010.02 190.83H1009.65C1008.9 190.83 1008.41 191.082 1008.41 191.53C1008.41 191.838 1008.65 192.062 1009.12 192.062H1012.22C1013.49 192.062 1014.22 192.72 1014.22 193.728C1014.22 195.254 1012.66 196.136 1010.19 196.136C1008.02 196.136 1006.56 195.59 1006.18 194.148L1007.71 193.854C1008.06 194.75 1008.87 194.988 1010.23 194.988C1011.68 194.988 1012.72 194.596 1012.72 193.91C1012.72 193.588 1012.54 193.35 1012.03 193.35H1008.66C1007.5 193.35 1006.9 192.72 1006.9 191.936C1006.9 191.18 1007.57 190.578 1008.49 190.396C1007.47 189.948 1006.97 188.996 1006.97 188.1C1006.97 186.77 1008.04 185.412 1010.1 185.412C1011.01 185.412 1011.73 185.734 1012.15 186.196V185.58H1014.39V186.798ZM1010.1 189.696C1011.18 189.696 1011.68 188.94 1011.68 188.128C1011.68 187.316 1011.18 186.574 1010.1 186.574C1009.04 186.574 1008.52 187.316 1008.52 188.128C1008.52 188.94 1009.04 189.696 1010.1 189.696ZM1020.17 190.662L1021.23 191.278C1020.81 192.202 1019.83 193.126 1018.14 193.126C1015.94 193.126 1014.61 191.502 1014.61 189.22C1014.61 186.966 1016.05 185.412 1018.02 185.412C1019.77 185.412 1021.22 186.588 1021.22 188.688L1021.19 189.612H1016.15C1016.23 191.18 1017 191.852 1018.23 191.852C1019.14 191.852 1019.77 191.362 1020.17 190.662ZM1018.02 186.644C1017.07 186.644 1016.27 187.148 1016.15 188.492H1019.69C1019.7 187.176 1018.89 186.644 1018.02 186.644ZM1024.91 190.704C1024.91 191.53 1025.42 191.782 1025.94 191.782C1026.34 191.782 1026.66 191.614 1026.99 191.292L1027.66 192.3C1027.1 192.86 1026.48 193.126 1025.68 193.126C1024.4 193.126 1023.35 192.342 1023.35 190.802V186.798H1022.04V185.58H1023.35V183.928L1024.91 183.214V185.58H1027.53V186.798H1024.91V190.704ZM1031.96 187.624C1031.96 186.364 1033.12 185.412 1034.87 185.412C1036.32 185.412 1037.28 185.93 1037.8 186.924L1036.71 187.596C1036.37 187.022 1035.7 186.672 1034.86 186.672C1034.02 186.672 1033.45 186.994 1033.45 187.526C1033.45 187.96 1033.74 188.226 1034.4 188.352L1035.64 188.604C1037.21 188.912 1038 189.654 1038 190.788C1038 192.188 1036.78 193.126 1034.94 193.126C1033.39 193.126 1032.28 192.538 1031.71 191.46L1032.8 190.774C1033.21 191.46 1033.92 191.852 1034.9 191.852C1035.85 191.852 1036.5 191.474 1036.5 190.858C1036.5 190.354 1036.19 190.074 1035.5 189.934L1034.13 189.668C1032.73 189.402 1031.96 188.688 1031.96 187.624ZM1042.47 193.14C1040.53 193.14 1038.95 191.628 1038.95 189.248C1038.95 186.924 1040.52 185.412 1042.47 185.412C1044.41 185.412 1045.98 186.924 1045.98 189.248C1045.98 191.628 1044.4 193.14 1042.47 193.14ZM1042.47 191.81C1043.52 191.81 1044.37 190.998 1044.37 189.248C1044.37 187.484 1043.5 186.742 1042.47 186.742C1041.43 186.742 1040.56 187.484 1040.56 189.248C1040.56 190.998 1041.43 191.81 1042.47 191.81ZM1055.76 185.412C1057.24 185.412 1058.09 186.378 1058.09 187.932V193H1056.53V188.198C1056.53 187.218 1056.06 186.77 1055.25 186.77C1054.16 186.77 1053.61 187.526 1053.61 188.982V193H1052.05V188.198C1052.05 187.218 1051.58 186.77 1050.77 186.77C1049.69 186.77 1049.15 187.526 1049.15 188.982V193H1047.58V185.58H1049.15V186.63C1049.65 185.832 1050.38 185.412 1051.28 185.412C1052.41 185.412 1053.15 185.958 1053.47 186.882C1053.98 185.902 1054.76 185.412 1055.76 185.412Z" fill="#666666"/>
<path d="M979.436 227L978.428 223.76H973.28L972.236 227H970.022L974.648 213.68H977.186L981.794 227H979.436ZM973.874 221.906H977.834L975.872 215.624L973.874 221.906ZM989.584 227L986.686 222.626L985.588 223.706V227H983.572V213.68H985.588V221.42L989.44 217.46H991.924L988.018 221.312L991.996 227H989.584ZM992.607 220.088C992.607 218.468 994.101 217.244 996.351 217.244C998.205 217.244 999.447 217.91 1000.11 219.188L998.709 220.052C998.277 219.314 997.413 218.864 996.333 218.864C995.253 218.864 994.515 219.278 994.515 219.962C994.515 220.52 994.893 220.862 995.739 221.024L997.341 221.348C999.357 221.744 1000.36 222.698 1000.36 224.156C1000.36 225.956 998.799 227.162 996.441 227.162C994.443 227.162 993.021 226.406 992.283 225.02L993.687 224.138C994.209 225.02 995.127 225.524 996.387 225.524C997.611 225.524 998.439 225.038 998.439 224.246C998.439 223.598 998.043 223.238 997.161 223.058L995.397 222.716C993.597 222.374 992.607 221.456 992.607 220.088ZM1008.8 223.994L1010.16 224.786C1009.62 225.974 1008.36 227.162 1006.19 227.162C1003.36 227.162 1001.65 225.074 1001.65 222.14C1001.65 219.242 1003.5 217.244 1006.04 217.244C1008.29 217.244 1010.15 218.756 1010.15 221.456L1010.11 222.644H1003.63C1003.74 224.66 1004.73 225.524 1006.31 225.524C1007.48 225.524 1008.29 224.894 1008.8 223.994ZM1006.04 218.828C1004.82 218.828 1003.79 219.476 1003.63 221.204H1008.18C1008.2 219.512 1007.16 218.828 1006.04 218.828ZM1016.27 226.946C1015.89 227.054 1015.51 227.108 1015.12 227.108C1013.3 227.108 1012.43 226.028 1012.43 224.282V213.68H1014.45V224.138C1014.45 224.966 1014.94 225.344 1015.67 225.344C1015.85 225.344 1016.05 225.326 1016.27 225.272V226.946ZM1037.61 213.68H1039.77L1036.08 227H1033.88L1030.89 216.812L1027.74 227H1025.55L1021.88 213.68H1024.22L1026.77 224.174L1029.81 213.68H1032.01L1035.05 224.156L1037.61 213.68ZM1047.39 223.994L1048.76 224.786C1048.22 225.974 1046.96 227.162 1044.78 227.162C1041.95 227.162 1040.24 225.074 1040.24 222.14C1040.24 219.242 1042.1 217.244 1044.64 217.244C1046.89 217.244 1048.74 218.756 1048.74 221.456L1048.7 222.644H1042.22C1042.33 224.66 1043.32 225.524 1044.91 225.524C1046.08 225.524 1046.89 224.894 1047.39 223.994ZM1044.64 218.828C1043.41 218.828 1042.39 219.476 1042.22 221.204H1046.78C1046.8 219.512 1045.75 218.828 1044.64 218.828ZM1056.05 217.262C1058.35 217.262 1060.01 219.224 1060.01 222.14C1060.01 225.128 1058.33 227.144 1055.81 227.144C1054.72 227.144 1053.65 226.658 1053.04 225.47V227H1051.03V213.68H1053.04V219.17C1053.78 217.82 1054.95 217.262 1056.05 217.262ZM1055.51 225.488C1056.89 225.488 1057.92 224.372 1057.92 222.23C1057.92 220.088 1056.89 218.99 1055.51 218.99C1054.03 218.99 1053.04 219.998 1053.04 222.212C1053.04 224.426 1054.03 225.488 1055.51 225.488ZM1071.93 227.18C1068.62 227.18 1065.94 224.624 1065.94 220.214C1065.94 216.056 1068.62 213.5 1071.93 213.5C1075.25 213.5 1077.93 216.056 1077.93 220.214C1077.93 224.624 1075.25 227.18 1071.93 227.18ZM1071.93 225.2C1073.99 225.2 1075.73 223.598 1075.73 220.232C1075.73 216.956 1074.04 215.48 1071.93 215.48C1069.83 215.48 1068.14 216.956 1068.14 220.232C1068.14 223.598 1069.88 225.2 1071.93 225.2ZM1085.05 217.262C1087.35 217.262 1089.01 219.224 1089.01 222.14C1089.01 225.128 1087.34 227.144 1084.82 227.144C1083.74 227.144 1082.67 226.676 1082.06 225.506V230.78H1080.05V217.46H1082.06V219.134C1082.8 217.802 1083.95 217.262 1085.05 217.262ZM1084.51 225.488C1085.9 225.488 1086.92 224.372 1086.92 222.23C1086.92 220.088 1085.9 218.99 1084.51 218.99C1083.03 218.99 1082.06 219.998 1082.06 222.212C1082.06 224.426 1083.03 225.488 1084.51 225.488ZM1097.48 213.68H1099.5V227H1097.48V225.272C1096.75 226.604 1095.59 227.144 1094.5 227.144C1092.19 227.144 1090.54 225.164 1090.54 222.266C1090.54 219.26 1092.21 217.262 1094.73 217.262C1095.81 217.262 1096.89 217.748 1097.48 218.918V213.68ZM1095.04 225.38C1096.49 225.38 1097.48 224.39 1097.48 222.158C1097.48 219.944 1096.51 218.882 1095.04 218.882C1093.65 218.882 1092.62 219.998 1092.62 222.158C1092.62 224.3 1093.65 225.38 1095.04 225.38ZM1109.83 227H1107.98C1107.83 226.514 1107.74 225.938 1107.71 225.2C1107.26 226.19 1106.25 227.162 1104.59 227.162C1102.87 227.162 1101.64 225.992 1101.64 224.336C1101.64 222.266 1103.48 221.24 1105.53 221.24C1106.18 221.24 1106.79 221.294 1107.46 221.474V220.574C1107.46 219.548 1106.81 218.882 1105.64 218.882C1104.54 218.882 1103.77 219.476 1103.41 220.592L1101.7 220.07C1102.38 218.054 1104.02 217.244 1105.73 217.244C1108.27 217.244 1109.42 218.738 1109.42 220.556V224.246C1109.42 225.38 1109.6 226.388 1109.83 227ZM1107.46 223.058V222.842C1106.88 222.644 1106.32 222.572 1105.73 222.572C1104.54 222.572 1103.62 223.112 1103.62 224.156C1103.62 225.038 1104.25 225.596 1105.21 225.596C1106.18 225.596 1107.46 225.02 1107.46 223.058ZM1117.07 217.244C1119.01 217.244 1120.17 218.504 1120.17 220.574V227H1118.15V220.898C1118.15 219.584 1117.52 218.99 1116.42 218.99C1115 218.99 1114.26 219.98 1114.26 221.834V227H1112.25V213.68H1114.26V218.846C1114.91 217.82 1115.88 217.244 1117.07 217.244ZM1126.73 226.946C1126.35 227.054 1125.97 227.108 1125.57 227.108C1123.76 227.108 1122.89 226.028 1122.89 224.282V213.68H1124.91V224.138C1124.91 224.966 1125.39 225.344 1126.13 225.344C1126.31 225.344 1126.51 225.326 1126.73 225.272V226.946Z" fill="#2A2859"/>
<path d="M972.028 253H970.908V241.16H977.884V242.216H972.028V246.728H976.796V247.784H972.028V253ZM984.038 245.16C984.982 245.912 985.59 247.16 985.59 248.744C985.59 251.4 983.91 253.128 981.814 253.128C981.222 253.128 980.662 252.984 980.166 252.728L979.638 253.768H978.87L979.59 252.36C978.646 251.608 978.038 250.344 978.038 248.744C978.038 246.12 979.702 244.392 981.814 244.392C982.406 244.392 982.966 244.536 983.462 244.776L983.99 243.752H984.758L984.038 245.16ZM979.158 248.744C979.158 249.976 979.51 250.872 980.054 251.448L983.014 245.656C982.646 245.448 982.246 245.352 981.814 245.352C980.374 245.352 979.158 246.488 979.158 248.744ZM981.814 252.168C983.27 252.168 984.47 251.016 984.47 248.744C984.47 247.528 984.118 246.648 983.574 246.072L980.614 251.864C980.966 252.072 981.382 252.168 981.814 252.168ZM993.457 241.16H994.545V253H993.457V251.416C992.897 252.504 991.777 253.112 990.673 253.112C988.513 253.112 987.057 251.304 987.057 248.84C987.057 246.232 988.529 244.392 990.801 244.392C991.985 244.392 992.945 244.984 993.457 246.056V241.16ZM990.785 252.152C992.481 252.152 993.457 250.888 993.457 248.808C993.457 246.6 992.497 245.352 990.801 245.352C989.217 245.352 988.177 246.568 988.177 248.792C988.177 250.936 989.217 252.152 990.785 252.152ZM996.61 246.728C996.61 245.384 997.874 244.392 999.65 244.392C1001.19 244.392 1002.37 245.128 1002.72 246.248L1001.83 246.6C1001.49 245.784 1000.71 245.352 999.618 245.352C998.434 245.352 997.666 245.848 997.666 246.632C997.666 247.336 998.13 247.768 999.138 247.976L1000.26 248.2C1002.11 248.568 1002.98 249.368 1002.98 250.632C1002.98 252.104 1001.67 253.128 999.778 253.128C998.066 253.128 996.866 252.456 996.29 251.176L997.218 250.792C997.618 251.688 998.498 252.168 999.746 252.168C1001.06 252.168 1001.92 251.592 1001.92 250.728C1001.92 249.928 1001.47 249.496 1000.35 249.256L998.978 248.968C997.426 248.648 996.61 247.864 996.61 246.728ZM1010.71 250.6L1011.51 251.048C1011.11 252.072 1010.06 253.128 1008.17 253.128C1005.78 253.128 1004.38 251.352 1004.38 248.648C1004.38 246.168 1005.85 244.392 1008.06 244.392C1009.88 244.392 1011.45 245.704 1011.45 248.008L1011.42 248.952H1005.48C1005.58 251.208 1006.65 252.168 1008.28 252.168C1009.56 252.168 1010.31 251.432 1010.71 250.6ZM1008.06 245.352C1006.78 245.352 1005.62 246.04 1005.48 248.056H1010.38C1010.42 246.152 1009.3 245.352 1008.06 245.352ZM1016.2 252.968C1015.95 253.032 1015.74 253.064 1015.5 253.064C1014.17 253.064 1013.55 252.232 1013.55 250.984V241.16H1014.64V250.984C1014.64 251.704 1015.02 252.072 1015.69 252.072C1015.87 252.072 1016.04 252.056 1016.2 252.008V252.968ZM1017.57 246.728C1017.57 245.384 1018.84 244.392 1020.61 244.392C1022.15 244.392 1023.33 245.128 1023.68 246.248L1022.79 246.6C1022.45 245.784 1021.67 245.352 1020.58 245.352C1019.4 245.352 1018.63 245.848 1018.63 246.632C1018.63 247.336 1019.09 247.768 1020.1 247.976L1021.22 248.2C1023.08 248.568 1023.94 249.368 1023.94 250.632C1023.94 252.104 1022.63 253.128 1020.74 253.128C1019.03 253.128 1017.83 252.456 1017.25 251.176L1018.18 250.792C1018.58 251.688 1019.46 252.168 1020.71 252.168C1022.02 252.168 1022.88 251.592 1022.88 250.728C1022.88 249.928 1022.44 249.496 1021.32 249.256L1019.94 248.968C1018.39 248.648 1017.57 247.864 1017.57 246.728ZM1029.43 244.392C1031.13 244.392 1032.12 245.432 1032.12 247.336V253H1031.03V247.496C1031.03 245.96 1030.33 245.384 1029.15 245.384C1027.66 245.384 1026.97 246.536 1026.97 248.232V253H1025.88V244.52H1026.97V245.832C1027.48 244.904 1028.41 244.392 1029.43 244.392ZM1039.47 244.52H1040.56V253H1039.47V251.704C1038.96 252.616 1038.06 253.128 1037.02 253.128C1035.36 253.128 1034.35 252.056 1034.35 250.216V244.52H1035.44V250.12C1035.44 251.512 1036.14 252.152 1037.33 252.152C1038.83 252.152 1039.47 250.952 1039.47 249.288V244.52ZM1051.49 244.392C1053.11 244.392 1054.05 245.416 1054.05 247.176V253H1052.96V247.336C1052.96 245.96 1052.31 245.384 1051.2 245.384C1049.72 245.384 1049.09 246.536 1049.09 248.232V253H1048V247.336C1048 245.96 1047.35 245.384 1046.24 245.384C1044.76 245.384 1044.13 246.536 1044.13 248.232V253H1043.04V244.52H1044.13V245.848C1044.64 244.904 1045.54 244.392 1046.53 244.392C1047.8 244.392 1048.64 245.016 1048.95 246.12C1049.43 245 1050.4 244.392 1051.49 244.392ZM1064.92 244.392C1066.53 244.392 1067.48 245.416 1067.48 247.176V253H1066.39V247.336C1066.39 245.96 1065.73 245.384 1064.63 245.384C1063.14 245.384 1062.52 246.536 1062.52 248.232V253H1061.43V247.336C1061.43 245.96 1060.77 245.384 1059.67 245.384C1058.18 245.384 1057.56 246.536 1057.56 248.232V253H1056.47V244.52H1057.56V245.848C1058.07 244.904 1058.97 244.392 1059.96 244.392C1061.22 244.392 1062.07 245.016 1062.37 246.12C1062.85 245 1063.83 244.392 1064.92 244.392ZM1075.69 250.6L1076.49 251.048C1076.09 252.072 1075.03 253.128 1073.14 253.128C1070.76 253.128 1069.35 251.352 1069.35 248.648C1069.35 246.168 1070.82 244.392 1073.03 244.392C1074.85 244.392 1076.42 245.704 1076.42 248.008L1076.39 248.952H1070.45C1070.55 251.208 1071.62 252.168 1073.25 252.168C1074.53 252.168 1075.29 251.432 1075.69 250.6ZM1073.03 245.352C1071.75 245.352 1070.6 246.04 1070.45 248.056H1075.35C1075.4 246.152 1074.28 245.352 1073.03 245.352ZM1081.56 244.392C1082.67 244.392 1083.47 245.128 1083.47 246.568V247.4L1082.47 247.592V246.76C1082.47 245.912 1082.19 245.352 1081.32 245.352C1080.35 245.352 1079.61 246.072 1079.61 247.784V253H1078.52V244.52H1079.61V245.576C1080.06 244.776 1080.81 244.392 1081.56 244.392ZM1086.57 247.464C1086 247.464 1085.55 247.032 1085.55 246.44C1085.55 245.848 1086 245.416 1086.57 245.416C1087.15 245.416 1087.6 245.848 1087.6 246.44C1087.6 247.032 1087.15 247.464 1086.57 247.464ZM1086.57 253.096C1086 253.096 1085.55 252.664 1085.55 252.072C1085.55 251.48 1086 251.048 1086.57 251.048C1087.15 251.048 1087.6 251.48 1087.6 252.072C1087.6 252.664 1087.15 253.096 1086.57 253.096ZM1098.79 252.072H1101.42V253H1094.95V252.072H1097.71V242.408L1095.11 244.2V243.016L1097.77 241.16H1098.79V252.072ZM1105.9 251.976H1112.14V253H1104.4V252.168L1108.65 247.432C1109.92 246.04 1110.44 245.272 1110.44 244.2C1110.44 243 1109.64 242.024 1108.08 242.024C1106.86 242.024 1105.82 242.568 1105.29 244.056L1104.3 243.72C1105.07 241.768 1106.44 241.032 1108.12 241.032C1110.41 241.032 1111.56 242.6 1111.56 244.104C1111.56 245.416 1111.07 246.296 1109.4 248.136L1105.9 251.976ZM1119.97 246.744C1121.15 247.144 1122.08 248.136 1122.08 249.672C1122.08 251.576 1120.49 253.128 1117.97 253.128C1116.45 253.128 1114.97 252.552 1113.85 250.952L1114.69 250.28C1115.57 251.56 1116.57 252.136 1118.06 252.136C1119.89 252.136 1120.99 251.032 1120.99 249.672C1120.99 248.696 1120.59 248.12 1120.01 247.768C1119.55 247.496 1119.13 247.368 1118.37 247.368H1116.78V246.408H1118C1118.96 246.408 1119.33 246.264 1119.76 245.928C1120.24 245.544 1120.53 244.936 1120.53 244.2C1120.53 242.888 1119.53 242.024 1117.93 242.024C1116.69 242.024 1115.63 242.6 1115.05 244.12L1114.09 243.784C1114.91 241.832 1116.3 241.032 1118 241.032C1120.4 241.032 1121.58 242.616 1121.58 244.168C1121.58 245.32 1120.91 246.28 1119.97 246.744ZM1132.53 248.872V249.864H1130.48V253H1129.42V249.864H1124.11V248.968L1126.94 241.16H1127.97L1125.22 248.872H1129.42V245.352L1130.48 245.032V248.872H1132.53ZM1138.56 245.384C1140.75 245.384 1142.31 246.936 1142.31 249.064C1142.31 251.352 1140.63 253.128 1137.99 253.128C1136.51 253.128 1135.04 252.552 1133.92 250.952L1134.75 250.28C1135.63 251.56 1136.69 252.136 1138.11 252.136C1139.95 252.136 1141.22 250.792 1141.22 249.128C1141.22 247.464 1140.11 246.376 1138.47 246.376C1137.31 246.376 1136.58 246.728 1135.54 247.704L1134.66 247.368L1135.06 241.16H1141.41V242.184H1136L1135.68 246.504C1136.45 245.784 1137.47 245.384 1138.56 245.384ZM1148.47 253.128C1145.75 253.128 1144.18 250.872 1144.18 247.016C1144.18 243.608 1145.86 241.032 1148.89 241.032C1150.53 241.032 1151.67 241.864 1152.2 243.16L1151.22 243.64C1150.81 242.648 1149.88 242.024 1148.82 242.024C1146.47 242.024 1144.97 244.184 1145.27 247.976C1145.81 246.328 1147.22 245.496 1148.65 245.496C1150.47 245.496 1152.34 246.904 1152.34 249.256C1152.34 251.16 1151.06 253.128 1148.47 253.128ZM1145.75 249.288C1145.75 251.128 1147.03 252.136 1148.53 252.136C1150.04 252.136 1151.25 251.144 1151.25 249.288C1151.25 247.72 1150.07 246.52 1148.5 246.52C1147.08 246.52 1145.75 247.448 1145.75 249.288ZM1158.4 241.16H1166.65V242.088L1161.02 253H1159.81L1165.5 242.152H1159.42V244.68H1158.4V241.16ZM1172.21 253.128C1169.74 253.128 1168.05 251.688 1168.05 249.8C1168.05 248.392 1169.04 247.272 1170.45 246.888C1169.17 246.408 1168.53 245.256 1168.53 244.2C1168.53 242.36 1170.1 241.032 1172.21 241.032C1174.32 241.032 1175.89 242.36 1175.89 244.2C1175.89 245.256 1175.25 246.408 1173.97 246.888C1175.38 247.272 1176.37 248.392 1176.37 249.8C1176.37 251.688 1174.67 253.128 1172.21 253.128ZM1172.21 246.408C1173.68 246.408 1174.83 245.672 1174.83 244.264C1174.83 242.648 1173.54 241.96 1172.21 241.96C1170.88 241.96 1169.58 242.632 1169.58 244.264C1169.58 245.672 1170.74 246.408 1172.21 246.408ZM1172.21 252.136C1174 252.136 1175.31 251.336 1175.31 249.672C1175.31 248.12 1173.97 247.368 1172.21 247.368C1170.45 247.368 1169.1 248.12 1169.1 249.672C1169.1 251.352 1170.42 252.136 1172.21 252.136ZM1181.7 253.128C1180.05 253.128 1178.69 252.296 1178.11 251L1179.09 250.52C1179.55 251.624 1180.66 252.136 1181.71 252.136C1184.15 252.136 1185.3 249.944 1185.06 246.184C1184.47 247.848 1183.01 248.648 1181.63 248.648C1179.83 248.648 1178.02 247.4 1178.02 244.872C1178.02 243.016 1179.31 241.032 1181.92 241.032C1184.56 241.032 1186.15 243.336 1186.15 247.048C1186.15 250.52 1184.79 253.128 1181.7 253.128ZM1181.76 247.656C1183.22 247.656 1184.58 246.728 1184.58 244.872C1184.58 243.016 1183.25 242.024 1181.83 242.024C1180.42 242.024 1179.11 242.984 1179.11 244.84C1179.11 246.76 1180.37 247.656 1181.76 247.656ZM1193 252.072H1195.62V253H1189.16V252.072H1191.91V242.408L1189.32 244.2V243.016L1191.97 241.16H1193V252.072ZM1202.31 253.128C1199.97 253.128 1197.99 250.92 1197.99 247.08C1197.99 243.24 1199.96 241.032 1202.31 241.032C1204.66 241.032 1206.63 243.24 1206.63 247.08C1206.63 250.92 1204.65 253.128 1202.31 253.128ZM1202.31 252.072C1204.07 252.072 1205.51 250.616 1205.51 247.08C1205.51 243.624 1204.09 242.088 1202.31 242.088C1200.53 242.088 1199.11 243.624 1199.11 247.08C1199.11 250.616 1200.55 252.072 1202.31 252.072Z" fill="#2A2859"/>
</svg>
