<svg width="898" height="174" viewBox="0 0 898 174" fill="none" xmlns="http://www.w3.org/2000/svg">
<rect width="898" height="174" fill="white"/>
<rect width="92" height="30" transform="translate(104 72)" fill="#F2F2F2"/>
<path d="M119.728 92L118.944 89.48H114.94L114.128 92H112.406L116.004 81.64H117.978L121.562 92H119.728ZM115.402 88.038H118.482L116.956 83.152L115.402 88.038ZM125.514 91.958C125.22 92.042 124.926 92.084 124.618 92.084C123.204 92.084 122.532 91.244 122.532 89.886V81.64H124.1V89.774C124.1 90.418 124.478 90.712 125.052 90.712C125.192 90.712 125.346 90.698 125.514 90.656V91.958ZM130.786 84.412C132.298 84.412 133.194 85.392 133.194 87.002V92H131.626V87.254C131.626 86.232 131.136 85.77 130.282 85.77C129.176 85.77 128.616 86.54 128.616 87.982V92H127.048V84.58H128.616V85.644C129.12 84.86 129.862 84.412 130.786 84.412ZM141.248 92H139.806C139.694 91.622 139.624 91.174 139.596 90.6C139.246 91.37 138.462 92.126 137.174 92.126C135.83 92.126 134.878 91.216 134.878 89.928C134.878 88.318 136.306 87.52 137.902 87.52C138.406 87.52 138.882 87.562 139.4 87.702V87.002C139.4 86.204 138.896 85.686 137.986 85.686C137.132 85.686 136.53 86.148 136.25 87.016L134.92 86.61C135.452 85.042 136.726 84.412 138.056 84.412C140.03 84.412 140.926 85.574 140.926 86.988V89.858C140.926 90.74 141.066 91.524 141.248 92ZM139.4 88.934V88.766C138.952 88.612 138.518 88.556 138.056 88.556C137.132 88.556 136.418 88.976 136.418 89.788C136.418 90.474 136.908 90.908 137.65 90.908C138.406 90.908 139.4 90.46 139.4 88.934ZM146.988 84.426C148.78 84.426 150.068 85.952 150.068 88.22C150.068 90.544 148.766 92.112 146.806 92.112C145.952 92.112 145.126 91.734 144.65 90.81V92H143.082V81.64H144.65V85.91C145.224 84.86 146.134 84.426 146.988 84.426ZM146.568 90.824C147.646 90.824 148.444 89.956 148.444 88.29C148.444 86.624 147.646 85.77 146.568 85.77C145.42 85.77 144.65 86.554 144.65 88.276C144.65 89.998 145.42 90.824 146.568 90.824ZM155.075 84.412C156.153 84.412 156.853 85.126 156.853 86.4V87.38L155.593 87.604V86.848C155.593 86.176 155.355 85.714 154.627 85.714C153.829 85.714 153.241 86.246 153.241 87.66V92H151.673V84.58H153.241V85.574C153.661 84.748 154.431 84.412 155.075 84.412ZM162.623 84.58H164.191V92H162.623V90.908C162.147 91.72 161.405 92.126 160.495 92.126C158.969 92.126 158.087 91.146 158.087 89.536V84.58H159.655V89.298C159.655 90.264 160.131 90.782 160.985 90.782C162.077 90.782 162.623 89.998 162.623 88.556V84.58Z" fill="#2A2859"/>
<path fill-rule="evenodd" clip-rule="evenodd" d="M180.358 87L176.188 82.8292L176.829 82.1875L181 86.3583L185.171 82.1875L185.812 82.8292L181.642 87L185.812 91.1708L185.171 91.8125L181 87.6417L176.829 91.8125L176.188 91.1708L180.358 87Z" fill="#2A2859"/>
<rect width="122" height="30" transform="translate(212 72)" fill="#F2F2F2"/>
<path d="M225.726 92.14C222.8 92.14 220.672 90.082 220.672 86.778C220.672 83.558 222.926 81.5 225.572 81.5C227.35 81.5 228.722 82.298 229.464 83.838L228.036 84.636C227.574 83.642 226.664 83.068 225.572 83.068C223.92 83.068 222.38 84.23 222.38 86.764C222.38 89.298 223.822 90.642 225.852 90.642C226.748 90.642 227.434 90.46 228.05 90.124V87.66H224.62V86.204H229.492V90.964C228.47 91.748 227.14 92.14 225.726 92.14ZM234.918 84.412C235.996 84.412 236.696 85.126 236.696 86.4V87.38L235.436 87.604V86.848C235.436 86.176 235.198 85.714 234.47 85.714C233.672 85.714 233.084 86.246 233.084 87.66V92H231.516V84.58H233.084V85.574C233.504 84.748 234.274 84.412 234.918 84.412ZM239.456 83.306C238.854 83.306 238.392 82.844 238.392 82.242C238.392 81.64 238.854 81.178 239.456 81.178C240.044 81.178 240.506 81.64 240.506 82.242C240.506 82.844 240.044 83.306 239.456 83.306ZM242.634 83.306C242.032 83.306 241.57 82.844 241.57 82.242C241.57 81.64 242.032 81.178 242.634 81.178C243.222 81.178 243.684 81.64 243.684 82.242C243.684 82.844 243.222 83.306 242.634 83.306ZM242.466 84.58H244.034V92H242.466V90.908C241.99 91.72 241.248 92.126 240.338 92.126C238.812 92.126 237.93 91.146 237.93 89.536V84.58H239.498V89.298C239.498 90.264 239.974 90.782 240.828 90.782C241.92 90.782 242.466 89.998 242.466 88.556V84.58ZM249.797 84.412C251.309 84.412 252.205 85.392 252.205 87.002V92H250.637V87.254C250.637 86.232 250.147 85.77 249.293 85.77C248.187 85.77 247.627 86.54 247.627 87.982V92H246.059V84.58H247.627V85.644C248.131 84.86 248.873 84.412 249.797 84.412ZM259.377 89.662L260.441 90.278C260.021 91.202 259.041 92.126 257.347 92.126C255.149 92.126 253.819 90.502 253.819 88.22C253.819 85.966 255.261 84.412 257.235 84.412C258.985 84.412 260.427 85.588 260.427 87.688L260.399 88.612H255.359C255.443 90.18 256.213 90.852 257.445 90.852C258.355 90.852 258.985 90.362 259.377 89.662ZM257.235 85.644C256.283 85.644 255.485 86.148 255.359 87.492H258.901C258.915 86.176 258.103 85.644 257.235 85.644ZM265.563 84.412C266.641 84.412 267.341 85.126 267.341 86.4V87.38L266.081 87.604V86.848C266.081 86.176 265.843 85.714 265.115 85.714C264.317 85.714 263.729 86.246 263.729 87.66V92H262.161V84.58H263.729V85.574C264.149 84.748 264.919 84.412 265.563 84.412ZM271.656 91.958C271.362 92.042 271.068 92.084 270.76 92.084C269.346 92.084 268.674 91.244 268.674 89.886V81.64H270.242V89.774C270.242 90.418 270.62 90.712 271.194 90.712C271.334 90.712 271.488 90.698 271.656 90.656V91.958ZM277.971 85.028C278.909 85.672 279.511 86.806 279.511 88.248C279.511 90.628 277.929 92.14 275.997 92.14C275.507 92.14 275.045 92.042 274.611 91.86L274.177 92.756H273.379L273.995 91.51C273.085 90.852 272.483 89.718 272.483 88.248C272.483 85.924 274.051 84.412 275.997 84.412C276.487 84.412 276.935 84.51 277.355 84.678L277.789 83.81H278.573L277.971 85.028ZM274.093 88.248C274.093 89.116 274.303 89.76 274.653 90.18L276.753 85.896C276.529 85.798 276.263 85.742 275.997 85.742C274.961 85.742 274.093 86.484 274.093 88.248ZM275.997 90.81C277.047 90.81 277.901 89.998 277.901 88.248C277.901 87.366 277.677 86.736 277.341 86.33L275.213 90.642C275.451 90.754 275.717 90.81 275.997 90.81ZM285.788 92L283.534 88.598L282.68 89.438V92H281.112V81.64H282.68V87.66L285.676 84.58H287.608L284.57 87.576L287.664 92H285.788ZM293.668 92L291.414 88.598L290.56 89.438V92H288.992V81.64H290.56V87.66L293.556 84.58H295.488L292.45 87.576L295.544 92H293.668ZM302.358 92H300.916C300.804 91.622 300.734 91.174 300.706 90.6C300.356 91.37 299.572 92.126 298.284 92.126C296.94 92.126 295.988 91.216 295.988 89.928C295.988 88.318 297.416 87.52 299.012 87.52C299.516 87.52 299.992 87.562 300.51 87.702V87.002C300.51 86.204 300.006 85.686 299.096 85.686C298.242 85.686 297.64 86.148 297.36 87.016L296.03 86.61C296.562 85.042 297.836 84.412 299.166 84.412C301.14 84.412 302.036 85.574 302.036 86.988V89.858C302.036 90.74 302.176 91.524 302.358 92ZM300.51 88.934V88.766C300.062 88.612 299.628 88.556 299.166 88.556C298.242 88.556 297.528 88.976 297.528 89.788C297.528 90.474 298.018 90.908 298.76 90.908C299.516 90.908 300.51 90.46 300.51 88.934Z" fill="#2A2859"/>
<path fill-rule="evenodd" clip-rule="evenodd" d="M318.358 87L314.188 82.8292L314.829 82.1875L319 86.3583L323.171 82.1875L323.812 82.8292L319.642 87L323.812 91.1708L323.171 91.8125L319 87.6417L314.829 91.8125L314.188 91.1708L318.358 87Z" fill="#2A2859"/>
<rect width="75" height="30" transform="translate(350 72)" fill="#F2F2F2"/>
<path d="M364.874 86.442C366.064 86.834 366.834 87.8 366.834 89.046C366.834 90.544 365.77 92 363.376 92H359.218V81.64H363.166C365.35 81.64 366.344 82.858 366.344 84.258C366.344 85.14 365.84 86.078 364.874 86.442ZM363.026 83.026H360.856V86.05H363.124C364.16 86.05 364.692 85.476 364.692 84.524C364.692 83.684 364.16 83.026 363.026 83.026ZM363.222 90.614C364.524 90.614 365.084 89.942 365.084 89.004C365.084 87.996 364.426 87.408 363.306 87.408H360.856V90.614H363.222ZM373.448 85.028C374.386 85.672 374.988 86.806 374.988 88.248C374.988 90.628 373.406 92.14 371.474 92.14C370.984 92.14 370.522 92.042 370.088 91.86L369.654 92.756H368.856L369.472 91.51C368.562 90.852 367.96 89.718 367.96 88.248C367.96 85.924 369.528 84.412 371.474 84.412C371.964 84.412 372.412 84.51 372.832 84.678L373.266 83.81H374.05L373.448 85.028ZM369.57 88.248C369.57 89.116 369.78 89.76 370.13 90.18L372.23 85.896C372.006 85.798 371.74 85.742 371.474 85.742C370.438 85.742 369.57 86.484 369.57 88.248ZM371.474 90.81C372.524 90.81 373.378 89.998 373.378 88.248C373.378 87.366 373.154 86.736 372.818 86.33L370.69 90.642C370.928 90.754 371.194 90.81 371.474 90.81ZM379.489 91.958C379.195 92.042 378.901 92.084 378.593 92.084C377.179 92.084 376.507 91.244 376.507 89.886V81.64H378.075V89.774C378.075 90.418 378.453 90.712 379.027 90.712C379.167 90.712 379.321 90.698 379.489 90.656V91.958ZM385.874 89.662L386.938 90.278C386.518 91.202 385.538 92.126 383.844 92.126C381.646 92.126 380.316 90.502 380.316 88.22C380.316 85.966 381.758 84.412 383.732 84.412C385.482 84.412 386.924 85.588 386.924 87.688L386.896 88.612H381.856C381.94 90.18 382.71 90.852 383.942 90.852C384.852 90.852 385.482 90.362 385.874 89.662ZM383.732 85.644C382.78 85.644 381.982 86.148 381.856 87.492H385.398C385.412 86.176 384.6 85.644 383.732 85.644ZM392.06 84.412C393.138 84.412 393.838 85.126 393.838 86.4V87.38L392.578 87.604V86.848C392.578 86.176 392.34 85.714 391.612 85.714C390.814 85.714 390.226 86.246 390.226 87.66V92H388.658V84.58H390.226V85.574C390.646 84.748 391.416 84.412 392.06 84.412Z" fill="#2A2859"/>
<path fill-rule="evenodd" clip-rule="evenodd" d="M409.358 87L405.188 82.8292L405.829 82.1875L410 86.3583L414.171 82.1875L414.812 82.8292L410.642 87L414.812 91.1708L414.171 91.8125L410 87.6417L405.829 91.8125L405.188 91.1708L409.358 87Z" fill="#2A2859"/>
<rect width="92" height="30" transform="translate(441 72)" fill="#F2F2F2"/>
<path d="M451.856 92H450.218V81.64H456.63V83.152H451.856V86.316H455.818V87.814H451.856V92ZM460.951 84.412C462.029 84.412 462.729 85.126 462.729 86.4V87.38L461.469 87.604V86.848C461.469 86.176 461.231 85.714 460.503 85.714C459.705 85.714 459.117 86.246 459.117 87.66V92H457.549V84.58H459.117V85.574C459.537 84.748 460.307 84.412 460.951 84.412ZM466.964 92.14C465.032 92.14 463.45 90.628 463.45 88.248C463.45 85.924 465.018 84.412 466.964 84.412C468.91 84.412 470.478 85.924 470.478 88.248C470.478 90.628 468.896 92.14 466.964 92.14ZM466.964 90.81C468.014 90.81 468.868 89.998 468.868 88.248C468.868 86.484 468 85.742 466.964 85.742C465.928 85.742 465.06 86.484 465.06 88.248C465.06 89.998 465.928 90.81 466.964 90.81ZM478.945 85.798H477.391V85.966C477.643 86.316 477.769 86.722 477.769 87.142C477.769 88.486 476.733 89.83 474.577 89.83H474.213C473.457 89.83 472.967 90.082 472.967 90.53C472.967 90.838 473.205 91.062 473.681 91.062H476.775C478.049 91.062 478.777 91.72 478.777 92.728C478.777 94.254 477.223 95.136 474.745 95.136C472.575 95.136 471.119 94.59 470.741 93.148L472.267 92.854C472.617 93.75 473.429 93.988 474.787 93.988C476.243 93.988 477.279 93.596 477.279 92.91C477.279 92.588 477.097 92.35 476.593 92.35H473.219C472.057 92.35 471.455 91.72 471.455 90.936C471.455 90.18 472.127 89.578 473.051 89.396C472.029 88.948 471.525 87.996 471.525 87.1C471.525 85.77 472.603 84.412 474.661 84.412C475.571 84.412 476.285 84.734 476.705 85.196V84.58H478.945V85.798ZM474.661 88.696C475.739 88.696 476.243 87.94 476.243 87.128C476.243 86.316 475.739 85.574 474.661 85.574C473.597 85.574 473.079 86.316 473.079 87.128C473.079 87.94 473.597 88.696 474.661 88.696ZM483.861 84.412C485.373 84.412 486.269 85.392 486.269 87.002V92H484.701V87.254C484.701 86.232 484.211 85.77 483.357 85.77C482.251 85.77 481.691 86.54 481.691 87.982V92H480.123V84.58H481.691V85.644C482.195 84.86 482.937 84.412 483.861 84.412ZM493.441 89.662L494.505 90.278C494.085 91.202 493.105 92.126 491.411 92.126C489.213 92.126 487.883 90.502 487.883 88.22C487.883 85.966 489.325 84.412 491.299 84.412C493.049 84.412 494.491 85.588 494.491 87.688L494.463 88.612H489.423C489.507 90.18 490.277 90.852 491.509 90.852C492.419 90.852 493.049 90.362 493.441 89.662ZM491.299 85.644C490.347 85.644 489.549 86.148 489.423 87.492H492.965C492.979 86.176 492.167 85.644 491.299 85.644ZM499.627 84.412C500.705 84.412 501.405 85.126 501.405 86.4V87.38L500.145 87.604V86.848C500.145 86.176 499.907 85.714 499.179 85.714C498.381 85.714 497.793 86.246 497.793 87.66V92H496.225V84.58H497.793V85.574C498.213 84.748 498.983 84.412 499.627 84.412Z" fill="#2A2859"/>
<path fill-rule="evenodd" clip-rule="evenodd" d="M517.358 87L513.188 82.8292L513.829 82.1875L518 86.3583L522.171 82.1875L522.812 82.8292L518.642 87L522.812 91.1708L522.171 91.8125L518 87.6417L513.829 91.8125L513.188 91.1708L517.358 87Z" fill="#2A2859"/>
<rect width="142" height="30" transform="translate(549 72)" fill="#F2F2F2"/>
<path d="M557.966 84.524C557.966 82.69 559.66 81.5 561.676 81.5C563.328 81.5 564.644 82.074 565.442 83.446L564.084 84.286C563.636 83.446 562.684 82.956 561.662 82.956C560.444 82.956 559.618 83.502 559.618 84.398C559.618 85.14 560.08 85.63 561.088 85.798L562.684 86.036C564.49 86.316 565.75 87.296 565.75 88.962C565.75 90.712 564.266 92.14 561.788 92.14C560.024 92.14 558.568 91.524 557.686 90.026L559.058 89.144C559.716 90.334 560.836 90.67 561.802 90.67C563.188 90.67 564.042 89.97 564.042 89.018C564.042 88.15 563.496 87.758 562.488 87.59L560.724 87.31C559.058 87.058 557.966 86.092 557.966 84.524ZM569.249 89.704C569.249 90.53 569.753 90.782 570.271 90.782C570.677 90.782 570.999 90.614 571.321 90.292L571.993 91.3C571.433 91.86 570.817 92.126 570.019 92.126C568.731 92.126 567.681 91.342 567.681 89.802V85.798H566.379V84.58H567.681V82.928L569.249 82.214V84.58H571.867V85.798H569.249V89.704ZM574.356 92.098C573.684 92.098 573.18 91.58 573.18 90.922C573.18 90.264 573.684 89.746 574.356 89.746C575.028 89.746 575.532 90.264 575.532 90.922C575.532 91.58 575.028 92.098 574.356 92.098ZM586.982 81.64H588.62V92H586.982V87.576H582.572V92H580.934V81.64H582.572V85.994H586.982V81.64ZM596.745 92H595.303C595.191 91.622 595.121 91.174 595.093 90.6C594.743 91.37 593.959 92.126 592.671 92.126C591.327 92.126 590.375 91.216 590.375 89.928C590.375 88.318 591.803 87.52 593.399 87.52C593.903 87.52 594.379 87.562 594.897 87.702V87.002C594.897 86.204 594.393 85.686 593.483 85.686C592.629 85.686 592.027 86.148 591.747 87.016L590.417 86.61C590.949 85.042 592.223 84.412 593.553 84.412C595.527 84.412 596.423 85.574 596.423 86.988V89.858C596.423 90.74 596.563 91.524 596.745 92ZM594.897 88.934V88.766C594.449 88.612 594.015 88.556 593.553 88.556C592.629 88.556 591.915 88.976 591.915 89.788C591.915 90.474 592.405 90.908 593.147 90.908C593.903 90.908 594.897 90.46 594.897 88.934ZM602.317 84.412C603.829 84.412 604.725 85.392 604.725 87.002V92H603.157V87.254C603.157 86.232 602.667 85.77 601.813 85.77C600.707 85.77 600.147 86.54 600.147 87.982V92H598.579V84.58H600.147V85.644C600.651 84.86 601.393 84.412 602.317 84.412ZM606.408 86.624C606.408 85.364 607.57 84.412 609.32 84.412C610.762 84.412 611.728 84.93 612.246 85.924L611.154 86.596C610.818 86.022 610.146 85.672 609.306 85.672C608.466 85.672 607.892 85.994 607.892 86.526C607.892 86.96 608.186 87.226 608.844 87.352L610.09 87.604C611.658 87.912 612.442 88.654 612.442 89.788C612.442 91.188 611.224 92.126 609.39 92.126C607.836 92.126 606.73 91.538 606.156 90.46L607.248 89.774C607.654 90.46 608.368 90.852 609.348 90.852C610.3 90.852 610.944 90.474 610.944 89.858C610.944 89.354 610.636 89.074 609.95 88.934L608.578 88.668C607.178 88.402 606.408 87.688 606.408 86.624ZM617.763 84.412C619.275 84.412 620.171 85.392 620.171 87.002V92H618.603V87.254C618.603 86.232 618.113 85.77 617.259 85.77C616.153 85.77 615.579 86.54 615.579 87.982V92H614.011V81.64H615.579V85.658C616.083 84.86 616.839 84.412 617.763 84.412ZM628.224 92H626.782C626.67 91.622 626.6 91.174 626.572 90.6C626.222 91.37 625.438 92.126 624.15 92.126C622.806 92.126 621.854 91.216 621.854 89.928C621.854 88.318 623.282 87.52 624.878 87.52C625.382 87.52 625.858 87.562 626.376 87.702V87.002C626.376 86.204 625.872 85.686 624.962 85.686C624.108 85.686 623.506 86.148 623.226 87.016L621.896 86.61C622.428 85.042 623.702 84.412 625.032 84.412C627.006 84.412 627.902 85.574 627.902 86.988V89.858C627.902 90.74 628.042 91.524 628.224 92ZM626.376 88.934V88.766C625.928 88.612 625.494 88.556 625.032 88.556C624.108 88.556 623.394 88.976 623.394 89.788C623.394 90.474 623.884 90.908 624.626 90.908C625.382 90.908 626.376 90.46 626.376 88.934ZM634.221 84.58H635.789V92H634.221V90.908C633.745 91.72 633.003 92.126 632.093 92.126C630.567 92.126 629.685 91.146 629.685 89.536V84.58H631.253V89.298C631.253 90.264 631.729 90.782 632.583 90.782C633.675 90.782 634.221 89.998 634.221 88.556V84.58ZM644.873 85.798H643.319V85.966C643.571 86.316 643.697 86.722 643.697 87.142C643.697 88.486 642.661 89.83 640.505 89.83H640.141C639.385 89.83 638.895 90.082 638.895 90.53C638.895 90.838 639.133 91.062 639.609 91.062H642.703C643.977 91.062 644.705 91.72 644.705 92.728C644.705 94.254 643.151 95.136 640.673 95.136C638.503 95.136 637.047 94.59 636.669 93.148L638.195 92.854C638.545 93.75 639.357 93.988 640.715 93.988C642.171 93.988 643.207 93.596 643.207 92.91C643.207 92.588 643.025 92.35 642.521 92.35H639.147C637.985 92.35 637.383 91.72 637.383 90.936C637.383 90.18 638.055 89.578 638.979 89.396C637.957 88.948 637.453 87.996 637.453 87.1C637.453 85.77 638.531 84.412 640.589 84.412C641.499 84.412 642.213 84.734 642.633 85.196V84.58H644.873V85.798ZM640.589 88.696C641.667 88.696 642.171 87.94 642.171 87.128C642.171 86.316 641.667 85.574 640.589 85.574C639.525 85.574 639.007 86.316 639.007 87.128C639.007 87.94 639.525 88.696 640.589 88.696ZM650.654 89.662L651.718 90.278C651.298 91.202 650.318 92.126 648.624 92.126C646.426 92.126 645.096 90.502 645.096 88.22C645.096 85.966 646.538 84.412 648.512 84.412C650.262 84.412 651.704 85.588 651.704 87.688L651.676 88.612H646.636C646.72 90.18 647.49 90.852 648.722 90.852C649.632 90.852 650.262 90.362 650.654 89.662ZM648.512 85.644C647.56 85.644 646.762 86.148 646.636 87.492H650.178C650.192 86.176 649.38 85.644 648.512 85.644ZM657.176 84.412C658.688 84.412 659.584 85.392 659.584 87.002V92H658.016V87.254C658.016 86.232 657.526 85.77 656.672 85.77C655.566 85.77 655.006 86.54 655.006 87.982V92H653.438V84.58H655.006V85.644C655.51 84.86 656.252 84.412 657.176 84.412Z" fill="#2A2859"/>
<path fill-rule="evenodd" clip-rule="evenodd" d="M675.358 87L671.188 82.8292L671.829 82.1875L676 86.3583L680.171 82.1875L680.812 82.8292L676.642 87L680.812 91.1708L680.171 91.8125L676 87.6417L671.829 91.8125L671.188 91.1708L675.358 87Z" fill="#2A2859"/>
<rect width="87" height="30" transform="translate(707 72)" fill="#F2F2F2"/>
<path d="M721.874 86.442C723.064 86.834 723.834 87.8 723.834 89.046C723.834 90.544 722.77 92 720.376 92H716.218V81.64H720.166C722.35 81.64 723.344 82.858 723.344 84.258C723.344 85.14 722.84 86.078 721.874 86.442ZM720.026 83.026H717.856V86.05H720.124C721.16 86.05 721.692 85.476 721.692 84.524C721.692 83.684 721.16 83.026 720.026 83.026ZM720.222 90.614C721.524 90.614 722.084 89.942 722.084 89.004C722.084 87.996 721.426 87.408 720.306 87.408H717.856V90.614H720.222ZM726.248 83.348C725.632 83.348 725.142 82.872 725.142 82.242C725.142 81.612 725.632 81.136 726.248 81.136C726.864 81.136 727.34 81.612 727.34 82.242C727.34 82.872 726.864 83.348 726.248 83.348ZM725.044 95.066C724.694 95.066 724.344 95.024 724.022 94.926L724.148 93.708C724.33 93.764 724.498 93.792 724.652 93.792C725.198 93.792 725.464 93.442 725.464 92.854V84.58H727.032V92.728C727.032 94.198 726.43 95.066 725.044 95.066ZM734.254 85.028C735.192 85.672 735.794 86.806 735.794 88.248C735.794 90.628 734.212 92.14 732.28 92.14C731.79 92.14 731.328 92.042 730.894 91.86L730.46 92.756H729.662L730.278 91.51C729.368 90.852 728.766 89.718 728.766 88.248C728.766 85.924 730.334 84.412 732.28 84.412C732.77 84.412 733.218 84.51 733.638 84.678L734.072 83.81H734.856L734.254 85.028ZM730.376 88.248C730.376 89.116 730.586 89.76 730.936 90.18L733.036 85.896C732.812 85.798 732.546 85.742 732.28 85.742C731.244 85.742 730.376 86.484 730.376 88.248ZM732.28 90.81C733.33 90.81 734.184 89.998 734.184 88.248C734.184 87.366 733.96 86.736 733.624 86.33L731.496 90.642C731.734 90.754 732 90.81 732.28 90.81ZM740.295 91.958C740.001 92.042 739.707 92.084 739.399 92.084C737.985 92.084 737.313 91.244 737.313 89.886V81.64H738.881V89.774C738.881 90.418 739.259 90.712 739.833 90.712C739.973 90.712 740.127 90.698 740.295 90.656V91.958ZM741.356 86.624C741.356 85.364 742.518 84.412 744.268 84.412C745.71 84.412 746.676 84.93 747.194 85.924L746.102 86.596C745.766 86.022 745.094 85.672 744.254 85.672C743.414 85.672 742.84 85.994 742.84 86.526C742.84 86.96 743.134 87.226 743.792 87.352L745.038 87.604C746.606 87.912 747.39 88.654 747.39 89.788C747.39 91.188 746.172 92.126 744.338 92.126C742.784 92.126 741.678 91.538 741.104 90.46L742.196 89.774C742.602 90.46 743.316 90.852 744.296 90.852C745.248 90.852 745.892 90.474 745.892 89.858C745.892 89.354 745.584 89.074 744.898 88.934L743.526 88.668C742.126 88.402 741.356 87.688 741.356 86.624ZM753.904 89.662L754.968 90.278C754.548 91.202 753.568 92.126 751.874 92.126C749.676 92.126 748.346 90.502 748.346 88.22C748.346 85.966 749.788 84.412 751.762 84.412C753.512 84.412 754.954 85.588 754.954 87.688L754.926 88.612H749.886C749.97 90.18 750.74 90.852 751.972 90.852C752.882 90.852 753.512 90.362 753.904 89.662ZM751.762 85.644C750.81 85.644 750.012 86.148 749.886 87.492H753.428C753.442 86.176 752.63 85.644 751.762 85.644ZM760.426 84.412C761.938 84.412 762.834 85.392 762.834 87.002V92H761.266V87.254C761.266 86.232 760.776 85.77 759.922 85.77C758.816 85.77 758.256 86.54 758.256 87.982V92H756.688V84.58H758.256V85.644C758.76 84.86 759.502 84.412 760.426 84.412Z" fill="#2A2859"/>
<path fill-rule="evenodd" clip-rule="evenodd" d="M778.358 87L774.188 82.8292L774.829 82.1875L779 86.3583L783.171 82.1875L783.812 82.8292L779.642 87L783.812 91.1708L783.171 91.8125L779 87.6417L774.829 91.8125L774.188 91.1708L778.358 87Z" fill="#2A2859"/>
</svg>
