<svg width="922" height="301" viewBox="0 0 922 301" fill="none" xmlns="http://www.w3.org/2000/svg">
<g clip-path="url(#clip0_5240_164423)">
<rect width="922" height="301" fill="white"/>
<mask id="path-1-inside-1_5240_164423" fill="white">
<path d="M0 55H456V301H0V55Z"/>
</mask>
<path d="M0 55H456V301H0V55Z" fill="white"/>
<path d="M456 301V302H457V301H456ZM0 301H-1V302H0V301ZM455 55V301H457V55H455ZM456 300H0V302H456V300ZM1 301V55H-1V301H1Z" fill="#E6E6E6" mask="url(#path-1-inside-1_5240_164423)"/>
<mask id="path-3-inside-2_5240_164423" fill="white">
<path d="M465 55H922V301H465V55Z"/>
</mask>
<path d="M465 55H922V301H465V55Z" fill="white"/>
<path d="M922 301V302H923V301H922ZM465 301H464V302H465V301ZM921 55V301H923V55H921ZM922 300H465V302H922V300ZM466 301V55H464V301H466Z" fill="#E6E6E6" mask="url(#path-3-inside-2_5240_164423)"/>
<rect x="0.5" y="0.5" width="454.316" height="53.97" stroke="#E6E6E6"/>
<rect x="465.693" y="0.5" width="455.304" height="53.97" stroke="#E6E6E6"/>
<path d="M0 43.9761H455.316V54.9701H0V43.9761Z" fill="#C7F6C9"/>
<path opacity="0.6" d="M465.193 43.9761H921.497V54.9701H465.193V43.9761Z" fill="#FF8274"/>
<path d="M20.2116 28.144C21.7956 28.144 23.3796 27.68 24.4356 26.8V21.6H18.9796V22.896H23.1556V26.144C22.3556 26.608 21.4916 26.848 20.2916 26.848C17.8276 26.848 16.0996 25.136 16.0996 22.016C16.0996 18.896 17.9236 17.376 20.0676 17.376C21.4116 17.376 22.5636 18.048 23.1396 19.296L24.4036 18.64C23.6516 16.96 22.1476 16.016 20.0836 16.016C17.0916 16.016 14.6116 18.368 14.6116 22.016C14.6116 25.776 16.9636 28.144 20.2116 28.144ZM27.5186 18.032C28.1106 18.032 28.5906 17.568 28.5906 16.944C28.5906 16.336 28.1106 15.872 27.5186 15.872C26.9106 15.872 26.4306 16.336 26.4306 16.944C26.4306 17.568 26.9106 18.032 27.5186 18.032ZM26.1906 31.488C27.5506 31.488 28.2066 30.64 28.2066 29.104V19.52H26.8306V29.12C26.8306 29.84 26.6226 30.304 25.9186 30.304C25.7586 30.304 25.5666 30.288 25.3426 30.208L25.2306 31.344C25.5346 31.44 25.8706 31.488 26.1906 31.488ZM36.3084 20.096L37.0124 18.704H36.1964L35.6844 19.712C35.2044 19.488 34.6604 19.36 34.0844 19.36C31.9244 19.36 30.1964 21.088 30.1964 23.728C30.1964 25.36 30.8364 26.64 31.8124 27.392L31.1084 28.8H31.9404L32.4524 27.776C32.9484 28.016 33.5084 28.144 34.0844 28.144C36.2124 28.144 37.9564 26.416 37.9564 23.728C37.9564 22.112 37.3164 20.832 36.3084 20.096ZM31.6204 23.728C31.6204 21.568 32.7404 20.56 34.0844 20.56C34.4524 20.56 34.8204 20.64 35.1404 20.8L32.4044 26.224C31.9244 25.696 31.6204 24.864 31.6204 23.728ZM34.0844 26.944C33.7004 26.944 33.3324 26.864 32.9964 26.688L35.7324 21.248C36.2284 21.776 36.5324 22.592 36.5324 23.728C36.5324 25.888 35.4284 26.944 34.0844 26.944ZM43.2918 19.36C42.5398 19.36 41.7398 19.744 41.2758 20.608V19.52H39.8998V28H41.2758V22.896C41.2758 21.216 41.9798 20.544 42.9398 20.544C43.7878 20.544 44.0598 21.088 44.0598 21.904V22.752L45.2438 22.528V21.584C45.2438 20.128 44.4438 19.36 43.2918 19.36ZM50.6146 21.776C50.6146 22.944 51.4626 23.744 53.0306 24.064L54.4866 24.352C55.4626 24.56 55.8786 24.944 55.8786 25.648C55.8786 26.448 55.0626 26.976 53.8466 26.976C52.6466 26.976 51.7986 26.512 51.3666 25.648L50.3106 26.208C50.9186 27.456 52.1506 28.128 53.8786 28.128C55.8626 28.128 57.2066 27.088 57.2066 25.568C57.2066 24.288 56.3266 23.472 54.4866 23.104L53.2546 22.864C52.3426 22.672 51.9426 22.304 51.9426 21.68C51.9426 20.96 52.6626 20.528 53.7506 20.528C54.7906 20.528 55.5586 20.944 55.9106 21.696L56.9506 21.168C56.5026 20.048 55.3506 19.36 53.7826 19.36C51.9106 19.36 50.6146 20.4 50.6146 21.776ZM62.041 27.968V26.784C61.865 26.832 61.689 26.848 61.529 26.848C60.857 26.848 60.457 26.496 60.457 25.76V16.16H59.081V25.824C59.081 27.2 59.769 28.08 61.209 28.08C61.497 28.08 61.753 28.032 62.041 27.968ZM63.5625 16.064V17.92H65.4505V16.064H63.5625ZM63.8185 28H65.1945V19.52H63.8185V28ZM73.0555 28H74.7355L71.0715 23.024L74.6715 19.52H72.9275L69.1355 23.328V16.16H67.7595V28H69.1355V24.912L70.1435 23.92L73.0555 28Z" fill="#2A2859"/>
<path d="M484.379 28H485.803V16.16H484.379V28ZM493.646 28H495.326L491.662 23.024L495.262 19.52H493.518L489.726 23.328V16.16H488.35V28H489.726V24.912L490.734 23.92L493.646 28ZM502.227 28H503.907L500.243 23.024L503.843 19.52H502.099L498.307 23.328V16.16H496.931V28H498.307V24.912L499.315 23.92L502.227 28ZM510.664 25.488C510.248 26.304 509.496 26.976 508.328 26.976C506.792 26.976 505.784 26.096 505.688 24.016H511.56L511.592 23.04C511.592 20.688 509.976 19.36 508.088 19.36C505.864 19.36 504.312 21.136 504.312 23.664C504.312 26.32 505.768 28.144 508.216 28.144C510.12 28.144 511.192 27.088 511.64 26.032L510.664 25.488ZM508.088 20.512C509.224 20.512 510.264 21.232 510.248 22.944H505.688C505.848 21.136 506.888 20.512 508.088 20.512ZM517.102 21.776C517.102 22.944 517.95 23.744 519.518 24.064L520.974 24.352C521.95 24.56 522.366 24.944 522.366 25.648C522.366 26.448 521.55 26.976 520.334 26.976C519.134 26.976 518.286 26.512 517.854 25.648L516.798 26.208C517.406 27.456 518.638 28.128 520.366 28.128C522.35 28.128 523.694 27.088 523.694 25.568C523.694 24.288 522.814 23.472 520.974 23.104L519.742 22.864C518.83 22.672 518.43 22.304 518.43 21.68C518.43 20.96 519.15 20.528 520.238 20.528C521.278 20.528 522.046 20.944 522.398 21.696L523.438 21.168C522.99 20.048 521.838 19.36 520.27 19.36C518.398 19.36 517.102 20.4 517.102 21.776ZM528.528 27.968V26.784C528.352 26.832 528.176 26.848 528.016 26.848C527.344 26.848 526.944 26.496 526.944 25.76V16.16H525.568V25.824C525.568 27.2 526.256 28.08 527.696 28.08C527.984 28.08 528.24 28.032 528.528 27.968ZM530.994 18.032C531.586 18.032 532.066 17.568 532.066 16.944C532.066 16.336 531.586 15.872 530.994 15.872C530.386 15.872 529.906 16.336 529.906 16.944C529.906 17.568 530.386 18.032 530.994 18.032ZM530.306 28H531.682V19.52H530.306V28ZM539.543 28H541.223L537.559 23.024L541.159 19.52H539.415L535.623 23.328V16.16H534.247V28H535.623V24.912L536.631 23.92L539.543 28Z" fill="#2A2859"/>
<rect width="274" height="30" transform="translate(557 163)" fill="#FFE7BC"/>
<path d="M572 174.062V178L575.062 177.74V178.875H571.125V174.062H572Z" fill="#2A2859"/>
<path fill-rule="evenodd" clip-rule="evenodd" d="M565.438 178C565.438 174.376 568.376 171.438 572 171.438C575.624 171.438 578.562 174.376 578.562 178C578.562 181.625 575.624 184.562 572 184.562C568.376 184.562 565.438 181.625 565.438 178ZM566.378 178C566.378 181.105 568.895 183.622 572 183.622C575.105 183.622 577.622 181.105 577.622 178C577.622 174.895 575.105 172.378 572 172.378C568.895 172.378 566.378 174.895 566.378 178Z" fill="#2A2859"/>
<path d="M588.218 183V172.64H591.928C594.574 172.64 596.618 174.67 596.618 177.792C596.618 180.9 594.574 183 591.942 183H588.218ZM589.856 181.474H591.774C593.608 181.474 594.896 180.298 594.896 177.792C594.896 175.272 593.594 174.166 591.76 174.166H589.856V181.474ZM603.325 180.662L604.389 181.278C603.969 182.202 602.989 183.126 601.295 183.126C599.097 183.126 597.767 181.502 597.767 179.22C597.767 176.966 599.209 175.412 601.183 175.412C602.933 175.412 604.375 176.588 604.375 178.688L604.347 179.612H599.307C599.391 181.18 600.161 181.852 601.393 181.852C602.303 181.852 602.933 181.362 603.325 180.662ZM601.183 176.644C600.231 176.644 599.433 177.148 599.307 178.492H602.849C602.863 177.176 602.051 176.644 601.183 176.644ZM609.847 175.412C611.359 175.412 612.255 176.392 612.255 178.002V183H610.687V178.254C610.687 177.232 610.197 176.77 609.343 176.77C608.237 176.77 607.677 177.54 607.677 178.982V183H606.109V175.58H607.677V176.644C608.181 175.86 608.923 175.412 609.847 175.412ZM618.069 175.412C619.581 175.412 620.477 176.392 620.477 178.002V183H618.909V178.254C618.909 177.232 618.419 176.77 617.565 176.77C616.459 176.77 615.899 177.54 615.899 178.982V183H614.331V175.58H615.899V176.644C616.403 175.86 617.145 175.412 618.069 175.412ZM627.649 180.662L628.713 181.278C628.293 182.202 627.313 183.126 625.619 183.126C623.421 183.126 622.091 181.502 622.091 179.22C622.091 176.966 623.533 175.412 625.507 175.412C627.257 175.412 628.699 176.588 628.699 178.688L628.671 179.612H623.631C623.715 181.18 624.485 181.852 625.717 181.852C626.627 181.852 627.257 181.362 627.649 180.662ZM625.507 176.644C624.555 176.644 623.757 177.148 623.631 178.492H627.173C627.187 177.176 626.375 176.644 625.507 176.644ZM633.423 177.624C633.423 176.364 634.585 175.412 636.335 175.412C637.777 175.412 638.743 175.93 639.261 176.924L638.169 177.596C637.833 177.022 637.161 176.672 636.321 176.672C635.481 176.672 634.907 176.994 634.907 177.526C634.907 177.96 635.201 178.226 635.859 178.352L637.105 178.604C638.673 178.912 639.457 179.654 639.457 180.788C639.457 182.188 638.239 183.126 636.405 183.126C634.851 183.126 633.745 182.538 633.171 181.46L634.263 180.774C634.669 181.46 635.383 181.852 636.363 181.852C637.315 181.852 637.959 181.474 637.959 180.858C637.959 180.354 637.651 180.074 636.965 179.934L635.593 179.668C634.193 179.402 633.423 178.688 633.423 177.624ZM646.798 183H645.356C645.244 182.622 645.174 182.174 645.146 181.6C644.796 182.37 644.012 183.126 642.724 183.126C641.38 183.126 640.428 182.216 640.428 180.928C640.428 179.318 641.856 178.52 643.452 178.52C643.956 178.52 644.432 178.562 644.95 178.702V178.002C644.95 177.204 644.446 176.686 643.536 176.686C642.682 176.686 642.08 177.148 641.8 178.016L640.47 177.61C641.002 176.042 642.276 175.412 643.606 175.412C645.58 175.412 646.476 176.574 646.476 177.988V180.858C646.476 181.74 646.616 182.524 646.798 183ZM644.95 179.934V179.766C644.502 179.612 644.068 179.556 643.606 179.556C642.682 179.556 641.968 179.976 641.968 180.788C641.968 181.474 642.458 181.908 643.2 181.908C643.956 181.908 644.95 181.46 644.95 179.934ZM653.308 183L651.054 179.598L650.2 180.438V183H648.632V172.64H650.2V178.66L653.196 175.58H655.128L652.09 178.576L655.184 183H653.308ZM661.047 180.662L662.111 181.278C661.691 182.202 660.711 183.126 659.017 183.126C656.819 183.126 655.489 181.502 655.489 179.22C655.489 176.966 656.931 175.412 658.905 175.412C660.655 175.412 662.097 176.588 662.097 178.688L662.069 179.612H657.029C657.113 181.18 657.883 181.852 659.115 181.852C660.025 181.852 660.655 181.362 661.047 180.662ZM658.905 176.644C657.953 176.644 657.155 177.148 657.029 178.492H660.571C660.585 177.176 659.773 176.644 658.905 176.644ZM667.569 175.412C669.081 175.412 669.977 176.392 669.977 178.002V183H668.409V178.254C668.409 177.232 667.919 176.77 667.065 176.77C665.959 176.77 665.399 177.54 665.399 178.982V183H663.831V175.58H665.399V176.644C665.903 175.86 666.645 175.412 667.569 175.412ZM680.167 175.58H681.791L678.949 183H677.339L674.511 175.58H676.247L678.207 181.362L680.167 175.58ZM687.81 180.662L688.874 181.278C688.454 182.202 687.474 183.126 685.78 183.126C683.582 183.126 682.252 181.502 682.252 179.22C682.252 176.966 683.694 175.412 685.668 175.412C687.418 175.412 688.86 176.588 688.86 178.688L688.832 179.612H683.792C683.876 181.18 684.646 181.852 685.878 181.852C686.788 181.852 687.418 181.362 687.81 180.662ZM685.668 176.644C684.716 176.644 683.918 177.148 683.792 178.492H687.334C687.348 177.176 686.536 176.644 685.668 176.644ZM694.332 175.412C695.844 175.412 696.74 176.392 696.74 178.002V183H695.172V178.254C695.172 177.232 694.682 176.77 693.828 176.77C692.722 176.77 692.162 177.54 692.162 178.982V183H690.594V175.58H692.162V176.644C692.666 175.86 693.408 175.412 694.332 175.412ZM700.834 180.704C700.834 181.53 701.338 181.782 701.856 181.782C702.262 181.782 702.584 181.614 702.906 181.292L703.578 182.3C703.018 182.86 702.402 183.126 701.604 183.126C700.316 183.126 699.266 182.342 699.266 180.802V176.798H697.964V175.58H699.266V173.928L700.834 173.214V175.58H703.452V176.798H700.834V180.704ZM709.632 180.662L710.696 181.278C710.276 182.202 709.296 183.126 707.602 183.126C705.404 183.126 704.074 181.502 704.074 179.22C704.074 176.966 705.516 175.412 707.49 175.412C709.24 175.412 710.682 176.588 710.682 178.688L710.654 179.612H705.614C705.698 181.18 706.468 181.852 707.7 181.852C708.61 181.852 709.24 181.362 709.632 180.662ZM707.49 176.644C706.538 176.644 705.74 177.148 705.614 178.492H709.156C709.17 177.176 708.358 176.644 707.49 176.644ZM715.818 175.412C716.896 175.412 717.596 176.126 717.596 177.4V178.38L716.336 178.604V177.848C716.336 177.176 716.098 176.714 715.37 176.714C714.572 176.714 713.984 177.246 713.984 178.66V183H712.416V175.58H713.984V176.574C714.404 175.748 715.174 175.412 715.818 175.412ZM726.476 175.426C728.268 175.426 729.556 176.952 729.556 179.22C729.556 181.544 728.254 183.112 726.294 183.112C725.454 183.112 724.628 182.748 724.152 181.838V185.94H722.584V175.58H724.152V176.882C724.726 175.846 725.622 175.426 726.476 175.426ZM726.056 181.824C727.134 181.824 727.932 180.956 727.932 179.29C727.932 177.624 727.134 176.77 726.056 176.77C724.908 176.77 724.152 177.554 724.152 179.276C724.152 180.998 724.908 181.824 726.056 181.824ZM734.031 174.908C733.051 174.908 732.225 174.194 732.225 173.214C732.225 172.248 733.051 171.548 734.031 171.548C735.025 171.548 735.837 172.248 735.837 173.214C735.837 174.194 735.025 174.908 734.031 174.908ZM734.031 172.36C733.541 172.36 733.177 172.64 733.177 173.214C733.177 173.788 733.541 174.096 734.031 174.096C734.521 174.096 734.885 173.788 734.885 173.214C734.885 172.64 734.521 172.36 734.031 172.36ZM737.139 183H735.697C735.585 182.622 735.515 182.174 735.487 181.6C735.137 182.37 734.353 183.126 733.065 183.126C731.721 183.126 730.769 182.216 730.769 180.928C730.769 179.318 732.197 178.52 733.793 178.52C734.297 178.52 734.773 178.562 735.291 178.702V178.002C735.291 177.204 734.787 176.686 733.877 176.686C733.023 176.686 732.421 177.148 732.141 178.016L730.811 177.61C731.343 176.042 732.617 175.412 733.947 175.412C735.921 175.412 736.817 176.574 736.817 177.988V180.858C736.817 181.74 736.957 182.524 737.139 183ZM735.291 179.934V179.766C734.843 179.612 734.409 179.556 733.947 179.556C733.023 179.556 732.309 179.976 732.309 180.788C732.309 181.474 732.799 181.908 733.541 181.908C734.297 181.908 735.291 181.46 735.291 179.934ZM749.481 176.798H747.927V176.966C748.179 177.316 748.305 177.722 748.305 178.142C748.305 179.486 747.269 180.83 745.113 180.83H744.749C743.993 180.83 743.503 181.082 743.503 181.53C743.503 181.838 743.741 182.062 744.217 182.062H747.311C748.585 182.062 749.313 182.72 749.313 183.728C749.313 185.254 747.759 186.136 745.281 186.136C743.111 186.136 741.655 185.59 741.277 184.148L742.803 183.854C743.153 184.75 743.965 184.988 745.323 184.988C746.779 184.988 747.815 184.596 747.815 183.91C747.815 183.588 747.633 183.35 747.129 183.35H743.755C742.593 183.35 741.991 182.72 741.991 181.936C741.991 181.18 742.663 180.578 743.587 180.396C742.565 179.948 742.061 178.996 742.061 178.1C742.061 176.77 743.139 175.412 745.197 175.412C746.107 175.412 746.821 175.734 747.241 176.196V175.58H749.481V176.798ZM745.197 179.696C746.275 179.696 746.779 178.94 746.779 178.128C746.779 177.316 746.275 176.574 745.197 176.574C744.133 176.574 743.615 177.316 743.615 178.128C743.615 178.94 744.133 179.696 745.197 179.696ZM753.219 183.14C751.287 183.14 749.705 181.628 749.705 179.248C749.705 176.924 751.273 175.412 753.219 175.412C755.165 175.412 756.733 176.924 756.733 179.248C756.733 181.628 755.151 183.14 753.219 183.14ZM753.219 181.81C754.269 181.81 755.123 180.998 755.123 179.248C755.123 177.484 754.255 176.742 753.219 176.742C752.183 176.742 751.315 177.484 751.315 179.248C751.315 180.998 752.183 181.81 753.219 181.81ZM763.276 172.64H764.844V183H763.276V181.656C762.702 182.692 761.806 183.112 760.952 183.112C759.16 183.112 757.872 181.572 757.872 179.318C757.872 176.98 759.174 175.426 761.134 175.426C761.974 175.426 762.814 175.804 763.276 176.714V172.64ZM761.372 181.74C762.506 181.74 763.276 180.97 763.276 179.234C763.276 177.512 762.52 176.686 761.372 176.686C760.294 176.686 759.496 177.554 759.496 179.234C759.496 180.9 760.294 181.74 761.372 181.74ZM771.615 183L769.361 179.598L768.507 180.438V183H766.939V172.64H768.507V178.66L771.503 175.58H773.435L770.397 178.576L773.491 183H771.615ZM775.426 174.348C774.81 174.348 774.32 173.872 774.32 173.242C774.32 172.612 774.81 172.136 775.426 172.136C776.042 172.136 776.518 172.612 776.518 173.242C776.518 173.872 776.042 174.348 775.426 174.348ZM774.222 186.066C773.872 186.066 773.522 186.024 773.2 185.926L773.326 184.708C773.508 184.764 773.676 184.792 773.83 184.792C774.376 184.792 774.642 184.442 774.642 183.854V175.58H776.21V183.728C776.21 185.198 775.608 186.066 774.222 186.066ZM783.502 180.662L784.566 181.278C784.146 182.202 783.166 183.126 781.472 183.126C779.274 183.126 777.944 181.502 777.944 179.22C777.944 176.966 779.386 175.412 781.36 175.412C783.11 175.412 784.552 176.588 784.552 178.688L784.524 179.612H779.484C779.568 181.18 780.338 181.852 781.57 181.852C782.48 181.852 783.11 181.362 783.502 180.662ZM781.36 176.644C780.408 176.644 779.61 177.148 779.484 178.492H783.026C783.04 177.176 782.228 176.644 781.36 176.644ZM790.024 175.412C791.536 175.412 792.432 176.392 792.432 178.002V183H790.864V178.254C790.864 177.232 790.374 176.77 789.52 176.77C788.414 176.77 787.854 177.54 787.854 178.982V183H786.286V175.58H787.854V176.644C788.358 175.86 789.1 175.412 790.024 175.412ZM798.246 175.412C799.758 175.412 800.654 176.392 800.654 178.002V183H799.086V178.254C799.086 177.232 798.596 176.77 797.742 176.77C796.636 176.77 796.076 177.54 796.076 178.982V183H794.508V175.58H796.076V176.644C796.58 175.86 797.322 175.412 798.246 175.412ZM802.548 172.36H804.466V174.25H802.548V172.36ZM802.73 183V175.58H804.298V183H802.73ZM810.233 175.412C811.745 175.412 812.641 176.392 812.641 178.002V183H811.073V178.254C811.073 177.232 810.583 176.77 809.729 176.77C808.623 176.77 808.063 177.54 808.063 178.982V183H806.495V175.58H808.063V176.644C808.567 175.86 809.309 175.412 810.233 175.412ZM821.842 176.798H820.288V176.966C820.54 177.316 820.666 177.722 820.666 178.142C820.666 179.486 819.63 180.83 817.474 180.83H817.11C816.354 180.83 815.864 181.082 815.864 181.53C815.864 181.838 816.102 182.062 816.578 182.062H819.672C820.946 182.062 821.674 182.72 821.674 183.728C821.674 185.254 820.12 186.136 817.642 186.136C815.472 186.136 814.016 185.59 813.638 184.148L815.164 183.854C815.514 184.75 816.326 184.988 817.684 184.988C819.14 184.988 820.176 184.596 820.176 183.91C820.176 183.588 819.994 183.35 819.49 183.35H816.116C814.954 183.35 814.352 182.72 814.352 181.936C814.352 181.18 815.024 180.578 815.948 180.396C814.926 179.948 814.422 178.996 814.422 178.1C814.422 176.77 815.5 175.412 817.558 175.412C818.468 175.412 819.182 175.734 819.602 176.196V175.58H821.842V176.798ZM817.558 179.696C818.636 179.696 819.14 178.94 819.14 178.128C819.14 177.316 818.636 176.574 817.558 176.574C816.494 176.574 815.976 177.316 815.976 178.128C815.976 178.94 816.494 179.696 817.558 179.696Z" fill="#2A2859"/>
<rect width="168" height="30" transform="translate(144 163)" fill="#FFE7BC"/>
<path d="M159 174.062V178L162.062 177.74V178.875H158.125V174.062H159Z" fill="#2A2859"/>
<path fill-rule="evenodd" clip-rule="evenodd" d="M152.438 178C152.438 174.376 155.376 171.438 159 171.438C162.624 171.438 165.562 174.376 165.562 178C165.562 181.625 162.624 184.562 159 184.562C155.376 184.562 152.438 181.625 152.438 178ZM153.378 178C153.378 181.105 155.895 183.622 159 183.622C162.105 183.622 164.622 181.105 164.622 178C164.622 174.895 162.105 172.378 159 172.378C155.895 172.378 153.378 174.895 153.378 178Z" fill="#2A2859"/>
<path d="M181.812 172.64H183.548L179.81 183H178.13L174.406 172.64H176.254L179.026 180.97L181.812 172.64ZM188.917 180.662L189.981 181.278C189.561 182.202 188.581 183.126 186.887 183.126C184.689 183.126 183.359 181.502 183.359 179.22C183.359 176.966 184.801 175.412 186.775 175.412C188.525 175.412 189.967 176.588 189.967 178.688L189.939 179.612H184.899C184.983 181.18 185.753 181.852 186.985 181.852C187.895 181.852 188.525 181.362 188.917 180.662ZM186.775 176.644C185.823 176.644 185.025 177.148 184.899 178.492H188.441C188.455 177.176 187.643 176.644 186.775 176.644ZM195.439 175.412C196.951 175.412 197.847 176.392 197.847 178.002V183H196.279V178.254C196.279 177.232 195.789 176.77 194.935 176.77C193.829 176.77 193.269 177.54 193.269 178.982V183H191.701V175.58H193.269V176.644C193.773 175.86 194.515 175.412 195.439 175.412ZM201.941 180.704C201.941 181.53 202.445 181.782 202.963 181.782C203.369 181.782 203.691 181.614 204.013 181.292L204.685 182.3C204.125 182.86 203.509 183.126 202.711 183.126C201.423 183.126 200.373 182.342 200.373 180.802V176.798H199.071V175.58H200.373V173.928L201.941 173.214V175.58H204.559V176.798H201.941V180.704ZM210.739 180.662L211.803 181.278C211.383 182.202 210.403 183.126 208.709 183.126C206.511 183.126 205.181 181.502 205.181 179.22C205.181 176.966 206.623 175.412 208.597 175.412C210.347 175.412 211.789 176.588 211.789 178.688L211.761 179.612H206.721C206.805 181.18 207.575 181.852 208.807 181.852C209.717 181.852 210.347 181.362 210.739 180.662ZM208.597 176.644C207.645 176.644 206.847 177.148 206.721 178.492H210.263C210.277 177.176 209.465 176.644 208.597 176.644ZM216.925 175.412C218.003 175.412 218.703 176.126 218.703 177.4V178.38L217.443 178.604V177.848C217.443 177.176 217.205 176.714 216.477 176.714C215.679 176.714 215.091 177.246 215.091 178.66V183H213.523V175.58H215.091V176.574C215.511 175.748 216.281 175.412 216.925 175.412ZM230.817 176.798H229.263V176.966C229.515 177.316 229.641 177.722 229.641 178.142C229.641 179.486 228.605 180.83 226.449 180.83H226.085C225.329 180.83 224.839 181.082 224.839 181.53C224.839 181.838 225.077 182.062 225.553 182.062H228.647C229.921 182.062 230.649 182.72 230.649 183.728C230.649 185.254 229.095 186.136 226.617 186.136C224.447 186.136 222.991 185.59 222.613 184.148L224.139 183.854C224.489 184.75 225.301 184.988 226.659 184.988C228.115 184.988 229.151 184.596 229.151 183.91C229.151 183.588 228.969 183.35 228.465 183.35H225.091C223.929 183.35 223.327 182.72 223.327 181.936C223.327 181.18 223.999 180.578 224.923 180.396C223.901 179.948 223.397 178.996 223.397 178.1C223.397 176.77 224.475 175.412 226.533 175.412C227.443 175.412 228.157 175.734 228.577 176.196V175.58H230.817V176.798ZM226.533 179.696C227.611 179.696 228.115 178.94 228.115 178.128C228.115 177.316 227.611 176.574 226.533 176.574C225.469 176.574 224.951 177.316 224.951 178.128C224.951 178.94 225.469 179.696 226.533 179.696ZM234.555 183.14C232.623 183.14 231.041 181.628 231.041 179.248C231.041 176.924 232.609 175.412 234.555 175.412C236.501 175.412 238.069 176.924 238.069 179.248C238.069 181.628 236.487 183.14 234.555 183.14ZM234.555 181.81C235.605 181.81 236.459 180.998 236.459 179.248C236.459 177.484 235.591 176.742 234.555 176.742C233.519 176.742 232.651 177.484 232.651 179.248C232.651 180.998 233.519 181.81 234.555 181.81ZM244.612 172.64H246.18V183H244.612V181.656C244.038 182.692 243.142 183.112 242.288 183.112C240.496 183.112 239.208 181.572 239.208 179.318C239.208 176.98 240.51 175.426 242.47 175.426C243.31 175.426 244.15 175.804 244.612 176.714V172.64ZM242.708 181.74C243.842 181.74 244.612 180.97 244.612 179.234C244.612 177.512 243.856 176.686 242.708 176.686C241.63 176.686 240.832 177.554 240.832 179.234C240.832 180.9 241.63 181.74 242.708 181.74ZM252.951 183L250.697 179.598L249.843 180.438V183H248.275V172.64H249.843V178.66L252.839 175.58H254.771L251.733 178.576L254.827 183H252.951ZM256.762 174.348C256.146 174.348 255.656 173.872 255.656 173.242C255.656 172.612 256.146 172.136 256.762 172.136C257.378 172.136 257.854 172.612 257.854 173.242C257.854 173.872 257.378 174.348 256.762 174.348ZM255.558 186.066C255.208 186.066 254.858 186.024 254.536 185.926L254.662 184.708C254.844 184.764 255.012 184.792 255.166 184.792C255.712 184.792 255.978 184.442 255.978 183.854V175.58H257.546V183.728C257.546 185.198 256.944 186.066 255.558 186.066ZM264.838 180.662L265.902 181.278C265.482 182.202 264.502 183.126 262.808 183.126C260.61 183.126 259.28 181.502 259.28 179.22C259.28 176.966 260.722 175.412 262.696 175.412C264.446 175.412 265.888 176.588 265.888 178.688L265.86 179.612H260.82C260.904 181.18 261.674 181.852 262.906 181.852C263.816 181.852 264.446 181.362 264.838 180.662ZM262.696 176.644C261.744 176.644 260.946 177.148 260.82 178.492H264.362C264.376 177.176 263.564 176.644 262.696 176.644ZM271.36 175.412C272.872 175.412 273.768 176.392 273.768 178.002V183H272.2V178.254C272.2 177.232 271.71 176.77 270.856 176.77C269.75 176.77 269.19 177.54 269.19 178.982V183H267.622V175.58H269.19V176.644C269.694 175.86 270.436 175.412 271.36 175.412ZM279.582 175.412C281.094 175.412 281.99 176.392 281.99 178.002V183H280.422V178.254C280.422 177.232 279.932 176.77 279.078 176.77C277.972 176.77 277.412 177.54 277.412 178.982V183H275.844V175.58H277.412V176.644C277.916 175.86 278.658 175.412 279.582 175.412ZM283.884 172.36H285.802V174.25H283.884V172.36ZM284.066 183V175.58H285.634V183H284.066ZM291.568 175.412C293.08 175.412 293.976 176.392 293.976 178.002V183H292.408V178.254C292.408 177.232 291.918 176.77 291.064 176.77C289.958 176.77 289.398 177.54 289.398 178.982V183H287.83V175.58H289.398V176.644C289.902 175.86 290.644 175.412 291.568 175.412ZM303.178 176.798H301.624V176.966C301.876 177.316 302.002 177.722 302.002 178.142C302.002 179.486 300.966 180.83 298.81 180.83H298.446C297.69 180.83 297.2 181.082 297.2 181.53C297.2 181.838 297.438 182.062 297.914 182.062H301.008C302.282 182.062 303.01 182.72 303.01 183.728C303.01 185.254 301.456 186.136 298.978 186.136C296.808 186.136 295.352 185.59 294.974 184.148L296.5 183.854C296.85 184.75 297.662 184.988 299.02 184.988C300.476 184.988 301.512 184.596 301.512 183.91C301.512 183.588 301.33 183.35 300.826 183.35H297.452C296.29 183.35 295.688 182.72 295.688 181.936C295.688 181.18 296.36 180.578 297.284 180.396C296.262 179.948 295.758 178.996 295.758 178.1C295.758 176.77 296.836 175.412 298.894 175.412C299.804 175.412 300.518 175.734 300.938 176.196V175.58H303.178V176.798ZM298.894 179.696C299.972 179.696 300.476 178.94 300.476 178.128C300.476 177.316 299.972 176.574 298.894 176.574C297.83 176.574 297.312 177.316 297.312 178.128C297.312 178.94 297.83 179.696 298.894 179.696Z" fill="#2A2859"/>
</g>
<defs>
<clipPath id="clip0_5240_164423">
<rect width="922" height="301" fill="white"/>
</clipPath>
</defs>
</svg>
