<svg width="1075" height="174" viewBox="0 0 1075 174" fill="none" xmlns="http://www.w3.org/2000/svg">
<rect width="1075" height="174" fill="white"/>
<rect width="127" height="30" transform="translate(104 72)" fill="#B3F5FF"/>
<path d="M119 83.0625V87L122.062 86.7396V87.875H118.125V83.0625H119Z" fill="#2A2859"/>
<path fill-rule="evenodd" clip-rule="evenodd" d="M112.438 87C112.438 83.3759 115.376 80.4375 119 80.4375C122.624 80.4375 125.562 83.3759 125.562 87C125.562 90.6247 122.624 93.5625 119 93.5625C115.376 93.5625 112.438 90.6247 112.438 87ZM113.378 87C113.378 90.1046 115.895 92.6224 119 92.6224C122.105 92.6224 124.622 90.1046 124.622 87C124.622 83.8948 122.105 81.3776 119 81.3776C115.895 81.3776 113.378 83.8948 113.378 87Z" fill="#2A2859"/>
<path d="M139.04 92.14C136.38 92.14 135.12 90.53 135.12 88.248V81.64H136.744V88.22C136.744 89.788 137.542 90.628 139.04 90.628C140.552 90.628 141.336 89.788 141.336 88.22V81.64H142.96V88.248C142.96 90.53 141.63 92.14 139.04 92.14ZM148.748 84.412C150.26 84.412 151.156 85.392 151.156 87.002V92H149.588V87.254C149.588 86.232 149.098 85.77 148.244 85.77C147.138 85.77 146.578 86.54 146.578 87.982V92H145.01V84.58H146.578V85.644C147.082 84.86 147.824 84.412 148.748 84.412ZM158.174 81.64H159.742V92H158.174V90.656C157.6 91.692 156.704 92.112 155.85 92.112C154.058 92.112 152.77 90.572 152.77 88.318C152.77 85.98 154.072 84.426 156.032 84.426C156.872 84.426 157.712 84.804 158.174 85.714V81.64ZM156.27 90.74C157.404 90.74 158.174 89.97 158.174 88.234C158.174 86.512 157.418 85.686 156.27 85.686C155.192 85.686 154.394 86.554 154.394 88.234C154.394 89.9 155.192 90.74 156.27 90.74ZM166.851 89.662L167.915 90.278C167.495 91.202 166.515 92.126 164.821 92.126C162.623 92.126 161.293 90.502 161.293 88.22C161.293 85.966 162.735 84.412 164.709 84.412C166.459 84.412 167.901 85.588 167.901 87.688L167.873 88.612H162.833C162.917 90.18 163.687 90.852 164.919 90.852C165.829 90.852 166.459 90.362 166.851 89.662ZM164.709 85.644C163.757 85.644 162.959 86.148 162.833 87.492H166.375C166.389 86.176 165.577 85.644 164.709 85.644ZM173.037 84.412C174.115 84.412 174.815 85.126 174.815 86.4V87.38L173.555 87.604V86.848C173.555 86.176 173.317 85.714 172.589 85.714C171.791 85.714 171.203 86.246 171.203 87.66V92H169.635V84.58H171.203V85.574C171.623 84.748 172.393 84.412 173.037 84.412ZM185.781 92H184.339C184.227 91.622 184.157 91.174 184.129 90.6C183.779 91.37 182.995 92.126 181.707 92.126C180.363 92.126 179.411 91.216 179.411 89.928C179.411 88.318 180.839 87.52 182.435 87.52C182.939 87.52 183.415 87.562 183.933 87.702V87.002C183.933 86.204 183.429 85.686 182.519 85.686C181.665 85.686 181.063 86.148 180.783 87.016L179.453 86.61C179.985 85.042 181.259 84.412 182.589 84.412C184.563 84.412 185.459 85.574 185.459 86.988V89.858C185.459 90.74 185.599 91.524 185.781 92ZM183.933 88.934V88.766C183.485 88.612 183.051 88.556 182.589 88.556C181.665 88.556 180.951 88.976 180.951 89.788C180.951 90.474 181.441 90.908 182.183 90.908C182.939 90.908 183.933 90.46 183.933 88.934ZM191.017 84.412C192.095 84.412 192.795 85.126 192.795 86.4V87.38L191.535 87.604V86.848C191.535 86.176 191.297 85.714 190.569 85.714C189.771 85.714 189.183 86.246 189.183 87.66V92H187.615V84.58H189.183V85.574C189.603 84.748 190.373 84.412 191.017 84.412ZM198.307 84.426C200.099 84.426 201.387 85.952 201.387 88.22C201.387 90.544 200.085 92.112 198.125 92.112C197.271 92.112 196.445 91.734 195.969 90.81V92H194.401V81.64H195.969V85.91C196.543 84.86 197.453 84.426 198.307 84.426ZM197.887 90.824C198.965 90.824 199.763 89.956 199.763 88.29C199.763 86.624 198.965 85.77 197.887 85.77C196.739 85.77 195.969 86.554 195.969 88.276C195.969 89.998 196.739 90.824 197.887 90.824ZM208.088 89.662L209.152 90.278C208.732 91.202 207.752 92.126 206.058 92.126C203.86 92.126 202.53 90.502 202.53 88.22C202.53 85.966 203.972 84.412 205.946 84.412C207.696 84.412 209.138 85.588 209.138 87.688L209.11 88.612H204.07C204.154 90.18 204.924 90.852 206.156 90.852C207.066 90.852 207.696 90.362 208.088 89.662ZM205.946 85.644C204.994 85.644 204.196 86.148 204.07 87.492H207.612C207.626 86.176 206.814 85.644 205.946 85.644ZM211.656 83.348C211.04 83.348 210.55 82.872 210.55 82.242C210.55 81.612 211.04 81.136 211.656 81.136C212.272 81.136 212.748 81.612 212.748 82.242C212.748 82.872 212.272 83.348 211.656 83.348ZM210.872 92V84.58H212.44V92H210.872ZM219.579 81.64H221.147V92H219.579V90.656C219.005 91.692 218.109 92.112 217.255 92.112C215.463 92.112 214.175 90.572 214.175 88.318C214.175 85.98 215.477 84.426 217.437 84.426C218.277 84.426 219.117 84.804 219.579 85.714V81.64ZM217.675 90.74C218.809 90.74 219.579 89.97 219.579 88.234C219.579 86.512 218.823 85.686 217.675 85.686C216.597 85.686 215.799 86.554 215.799 88.234C215.799 89.9 216.597 90.74 217.675 90.74Z" fill="#2A2859"/>
<rect width="108" height="30" transform="translate(255 72)" fill="#C7F6C9"/>
<path d="M268.11 90.9375L266.994 89.7738L264.75 87.4463L265.581 86.5581L268.11 89.1831L273.977 83.0625L274.812 83.9419L269.226 89.7738L268.11 90.9375Z" fill="#2A2859"/>
<path d="M287.856 92H286.218V81.64H292.63V83.152H287.856V86.316H291.818V87.814H287.856V92ZM298.468 89.662L299.532 90.278C299.112 91.202 298.132 92.126 296.438 92.126C294.24 92.126 292.91 90.502 292.91 88.22C292.91 85.966 294.352 84.412 296.326 84.412C298.076 84.412 299.518 85.588 299.518 87.688L299.49 88.612H294.45C294.534 90.18 295.304 90.852 296.536 90.852C297.446 90.852 298.076 90.362 298.468 89.662ZM296.326 85.644C295.374 85.644 294.576 86.148 294.45 87.492H297.992C298.006 86.176 297.194 85.644 296.326 85.644ZM304.654 84.412C305.732 84.412 306.432 85.126 306.432 86.4V87.38L305.172 87.604V86.848C305.172 86.176 304.934 85.714 304.206 85.714C303.408 85.714 302.82 86.246 302.82 87.66V92H301.252V84.58H302.82V85.574C303.24 84.748 304.01 84.412 304.654 84.412ZM312.556 81.64H314.124V92H312.556V90.656C311.982 91.692 311.086 92.112 310.232 92.112C308.44 92.112 307.152 90.572 307.152 88.318C307.152 85.98 308.454 84.426 310.414 84.426C311.254 84.426 312.094 84.804 312.556 85.714V81.64ZM310.652 90.74C311.786 90.74 312.556 89.97 312.556 88.234C312.556 86.512 311.8 85.686 310.652 85.686C309.574 85.686 308.776 86.554 308.776 88.234C308.776 89.9 309.574 90.74 310.652 90.74ZM316.921 83.348C316.305 83.348 315.815 82.872 315.815 82.242C315.815 81.612 316.305 81.136 316.921 81.136C317.537 81.136 318.013 81.612 318.013 82.242C318.013 82.872 317.537 83.348 316.921 83.348ZM316.137 92V84.58H317.705V92H316.137ZM327.028 85.798H325.474V85.966C325.726 86.316 325.852 86.722 325.852 87.142C325.852 88.486 324.816 89.83 322.66 89.83H322.296C321.54 89.83 321.05 90.082 321.05 90.53C321.05 90.838 321.288 91.062 321.764 91.062H324.858C326.132 91.062 326.86 91.72 326.86 92.728C326.86 94.254 325.306 95.136 322.828 95.136C320.658 95.136 319.202 94.59 318.824 93.148L320.35 92.854C320.7 93.75 321.512 93.988 322.87 93.988C324.326 93.988 325.362 93.596 325.362 92.91C325.362 92.588 325.18 92.35 324.676 92.35H321.302C320.14 92.35 319.538 91.72 319.538 90.936C319.538 90.18 320.21 89.578 321.134 89.396C320.112 88.948 319.608 87.996 319.608 87.1C319.608 85.77 320.686 84.412 322.744 84.412C323.654 84.412 324.368 84.734 324.788 85.196V84.58H327.028V85.798ZM322.744 88.696C323.822 88.696 324.326 87.94 324.326 87.128C324.326 86.316 323.822 85.574 322.744 85.574C321.68 85.574 321.162 86.316 321.162 87.128C321.162 87.94 321.68 88.696 322.744 88.696ZM327.444 86.624C327.444 85.364 328.606 84.412 330.356 84.412C331.798 84.412 332.764 84.93 333.282 85.924L332.19 86.596C331.854 86.022 331.182 85.672 330.342 85.672C329.502 85.672 328.928 85.994 328.928 86.526C328.928 86.96 329.222 87.226 329.88 87.352L331.126 87.604C332.694 87.912 333.478 88.654 333.478 89.788C333.478 91.188 332.26 92.126 330.426 92.126C328.872 92.126 327.766 91.538 327.192 90.46L328.284 89.774C328.69 90.46 329.404 90.852 330.384 90.852C331.336 90.852 331.98 90.474 331.98 89.858C331.98 89.354 331.672 89.074 330.986 88.934L329.614 88.668C328.214 88.402 327.444 87.688 327.444 86.624ZM337.01 89.704C337.01 90.53 337.514 90.782 338.032 90.782C338.438 90.782 338.76 90.614 339.082 90.292L339.754 91.3C339.194 91.86 338.578 92.126 337.78 92.126C336.492 92.126 335.442 91.342 335.442 89.802V85.798H334.14V84.58H335.442V82.928L337.01 82.214V84.58H339.628V85.798H337.01V89.704ZM340.885 81.36H342.803V83.25H340.885V81.36ZM341.067 92V84.58H342.635V92H341.067ZM347.814 91.958C347.52 92.042 347.226 92.084 346.918 92.084C345.504 92.084 344.832 91.244 344.832 89.886V81.64H346.4V89.774C346.4 90.418 346.778 90.712 347.352 90.712C347.492 90.712 347.646 90.698 347.814 90.656V91.958ZM351.312 89.704C351.312 90.53 351.816 90.782 352.334 90.782C352.74 90.782 353.062 90.614 353.384 90.292L354.056 91.3C353.496 91.86 352.88 92.126 352.082 92.126C350.794 92.126 349.744 91.342 349.744 89.802V85.798H348.442V84.58H349.744V82.928L351.312 82.214V84.58H353.93V85.798H351.312V89.704Z" fill="#2A2859"/>
<rect width="150" height="30" transform="translate(387 72)" fill="#FFB4AC"/>
<g clip-path="url(#clip0_5240_164195)">
<path d="M401.969 83.325C402.497 83.3205 403.007 83.5118 403.402 83.8619C403.796 84.212 404.047 84.696 404.105 85.2203C404.163 85.7445 404.025 86.2717 403.717 86.6999C403.409 87.1281 402.953 87.4267 402.438 87.5381H402.411V88.2731H401.536V86.7156H401.974C402.21 86.7163 402.441 86.6508 402.641 86.5266C402.842 86.4024 403.003 86.2244 403.108 86.0129C403.212 85.8013 403.255 85.5648 403.231 85.3302C403.208 85.0955 403.119 84.8722 402.975 84.6855C402.831 84.4989 402.637 84.3564 402.416 84.2744C402.195 84.1923 401.955 84.1739 401.724 84.2214C401.493 84.2688 401.28 84.3801 401.109 84.5426C400.938 84.7051 400.816 84.9123 400.758 85.1406V85.215L399.883 85.0444C399.978 84.561 400.239 84.1256 400.619 83.8122C400.999 83.4988 401.477 83.3267 401.969 83.325ZM402 81.3125C400.875 81.3125 399.775 81.6461 398.84 82.271C397.905 82.896 397.176 83.7842 396.745 84.8235C396.315 85.8627 396.202 87.0063 396.422 88.1096C396.641 89.2128 397.183 90.2263 397.978 91.0217C398.774 91.8171 399.787 92.3588 400.89 92.5782C401.994 92.7977 403.137 92.685 404.177 92.2546C405.216 91.8241 406.104 91.0951 406.729 90.1598C407.354 89.2245 407.688 88.1249 407.688 87C407.688 85.4916 407.088 84.0449 406.022 82.9783C404.955 81.9117 403.508 81.3125 402 81.3125ZM402 80.4375C403.298 80.4375 404.567 80.8224 405.646 81.5435C406.725 82.2646 407.566 83.2895 408.063 84.4886C408.56 85.6878 408.69 87.0073 408.436 88.2803C408.183 89.5533 407.558 90.7226 406.64 91.6404C405.723 92.5582 404.553 93.1832 403.28 93.4364C402.007 93.6896 400.688 93.5597 399.489 93.063C398.29 92.5663 397.265 91.7251 396.543 90.6459C395.822 89.5667 395.438 88.2979 395.438 87C395.438 85.2595 396.129 83.5903 397.36 82.3596C398.59 81.1289 400.26 80.4375 402 80.4375Z" fill="#2A2859"/>
<path fill-rule="evenodd" clip-rule="evenodd" d="M402.722 89.7913C402.721 89.9399 402.676 90.0849 402.593 90.2081C402.51 90.3313 402.392 90.4271 402.254 90.4833C402.117 90.5396 401.966 90.5539 401.82 90.5244C401.674 90.4949 401.541 90.4228 401.436 90.3174C401.331 90.212 401.26 90.0779 401.231 89.9321C401.202 89.7862 401.218 89.6352 401.275 89.4979C401.332 89.3607 401.428 89.2434 401.552 89.1609C401.675 89.0784 401.821 89.0344 401.969 89.0344C402.069 89.0344 402.167 89.054 402.258 89.0921C402.35 89.1302 402.433 89.186 402.503 89.2563C402.573 89.3267 402.628 89.4101 402.666 89.5019C402.703 89.5937 402.722 89.6921 402.722 89.7913Z" fill="#2A2859"/>
</g>
<path d="M426.226 81.64H427.836V92H426.184V84.398L423.356 88.892H422.698L419.856 84.384V92H418.218V81.64H419.814L423.02 86.736L426.226 81.64ZM435.971 92H434.529C434.417 91.622 434.347 91.174 434.319 90.6C433.969 91.37 433.185 92.126 431.897 92.126C430.553 92.126 429.601 91.216 429.601 89.928C429.601 88.318 431.029 87.52 432.625 87.52C433.129 87.52 433.605 87.562 434.123 87.702V87.002C434.123 86.204 433.619 85.686 432.709 85.686C431.855 85.686 431.253 86.148 430.973 87.016L429.643 86.61C430.175 85.042 431.449 84.412 432.779 84.412C434.753 84.412 435.649 85.574 435.649 86.988V89.858C435.649 90.74 435.789 91.524 435.971 92ZM434.123 88.934V88.766C433.675 88.612 433.241 88.556 432.779 88.556C431.855 88.556 431.141 88.976 431.141 89.788C431.141 90.474 431.631 90.908 432.373 90.908C433.129 90.908 434.123 90.46 434.123 88.934ZM441.542 84.412C443.054 84.412 443.95 85.392 443.95 87.002V92H442.382V87.254C442.382 86.232 441.892 85.77 441.038 85.77C439.932 85.77 439.372 86.54 439.372 87.982V92H437.804V84.58H439.372V85.644C439.876 84.86 440.618 84.412 441.542 84.412ZM453.152 85.798H451.598V85.966C451.85 86.316 451.976 86.722 451.976 87.142C451.976 88.486 450.94 89.83 448.784 89.83H448.42C447.664 89.83 447.174 90.082 447.174 90.53C447.174 90.838 447.412 91.062 447.888 91.062H450.982C452.256 91.062 452.984 91.72 452.984 92.728C452.984 94.254 451.43 95.136 448.952 95.136C446.782 95.136 445.326 94.59 444.948 93.148L446.474 92.854C446.824 93.75 447.636 93.988 448.994 93.988C450.45 93.988 451.486 93.596 451.486 92.91C451.486 92.588 451.304 92.35 450.8 92.35H447.426C446.264 92.35 445.662 91.72 445.662 90.936C445.662 90.18 446.334 89.578 447.258 89.396C446.236 88.948 445.732 87.996 445.732 87.1C445.732 85.77 446.81 84.412 448.868 84.412C449.778 84.412 450.492 84.734 450.912 85.196V84.58H453.152V85.798ZM448.868 88.696C449.946 88.696 450.45 87.94 450.45 87.128C450.45 86.316 449.946 85.574 448.868 85.574C447.804 85.574 447.286 86.316 447.286 87.128C447.286 87.94 447.804 88.696 448.868 88.696ZM457.175 91.958C456.881 92.042 456.587 92.084 456.279 92.084C454.865 92.084 454.193 91.244 454.193 89.886V81.64H455.761V89.774C455.761 90.418 456.139 90.712 456.713 90.712C456.853 90.712 457.007 90.698 457.175 90.656V91.958ZM463.56 89.662L464.624 90.278C464.204 91.202 463.224 92.126 461.53 92.126C459.332 92.126 458.002 90.502 458.002 88.22C458.002 85.966 459.444 84.412 461.418 84.412C463.168 84.412 464.61 85.588 464.61 87.688L464.582 88.612H459.542C459.626 90.18 460.396 90.852 461.628 90.852C462.538 90.852 463.168 90.362 463.56 89.662ZM461.418 85.644C460.466 85.644 459.668 86.148 459.542 87.492H463.084C463.098 86.176 462.286 85.644 461.418 85.644ZM469.746 84.412C470.824 84.412 471.524 85.126 471.524 86.4V87.38L470.264 87.604V86.848C470.264 86.176 470.026 85.714 469.298 85.714C468.5 85.714 467.912 86.246 467.912 87.66V92H466.344V84.58H467.912V85.574C468.332 84.748 469.102 84.412 469.746 84.412ZM481.455 81.64H483.023V92H481.455V90.656C480.881 91.692 479.985 92.112 479.131 92.112C477.339 92.112 476.051 90.572 476.051 88.318C476.051 85.98 477.353 84.426 479.313 84.426C480.153 84.426 480.993 84.804 481.455 85.714V81.64ZM479.551 90.74C480.685 90.74 481.455 89.97 481.455 88.234C481.455 86.512 480.699 85.686 479.551 85.686C478.473 85.686 477.675 86.554 477.675 88.234C477.675 89.9 478.473 90.74 479.551 90.74ZM490.131 89.662L491.195 90.278C490.775 91.202 489.795 92.126 488.101 92.126C485.903 92.126 484.573 90.502 484.573 88.22C484.573 85.966 486.015 84.412 487.989 84.412C489.739 84.412 491.181 85.588 491.181 87.688L491.153 88.612H486.113C486.197 90.18 486.967 90.852 488.199 90.852C489.109 90.852 489.739 90.362 490.131 89.662ZM487.989 85.644C487.037 85.644 486.239 86.148 486.113 87.492H489.655C489.669 86.176 488.857 85.644 487.989 85.644ZM497.591 92L495.337 88.598L494.483 89.438V92H492.915V81.64H494.483V87.66L497.479 84.58H499.411L496.373 87.576L499.467 92H497.591ZM504.397 84.412C505.909 84.412 506.805 85.392 506.805 87.002V92H505.237V87.254C505.237 86.232 504.747 85.77 503.893 85.77C502.787 85.77 502.227 86.54 502.227 87.982V92H500.659V84.58H502.227V85.644C502.731 84.86 503.473 84.412 504.397 84.412ZM509.664 83.348C509.048 83.348 508.558 82.872 508.558 82.242C508.558 81.612 509.048 81.136 509.664 81.136C510.28 81.136 510.756 81.612 510.756 82.242C510.756 82.872 510.28 83.348 509.664 83.348ZM508.88 92V84.58H510.448V92H508.88ZM516.383 84.412C517.895 84.412 518.791 85.392 518.791 87.002V92H517.223V87.254C517.223 86.232 516.733 85.77 515.879 85.77C514.773 85.77 514.213 86.54 514.213 87.982V92H512.645V84.58H514.213V85.644C514.717 84.86 515.459 84.412 516.383 84.412ZM527.993 85.798H526.439V85.966C526.691 86.316 526.817 86.722 526.817 87.142C526.817 88.486 525.781 89.83 523.625 89.83H523.261C522.505 89.83 522.015 90.082 522.015 90.53C522.015 90.838 522.253 91.062 522.729 91.062H525.823C527.097 91.062 527.825 91.72 527.825 92.728C527.825 94.254 526.271 95.136 523.793 95.136C521.623 95.136 520.167 94.59 519.789 93.148L521.315 92.854C521.665 93.75 522.477 93.988 523.835 93.988C525.291 93.988 526.327 93.596 526.327 92.91C526.327 92.588 526.145 92.35 525.641 92.35H522.267C521.105 92.35 520.503 91.72 520.503 90.936C520.503 90.18 521.175 89.578 522.099 89.396C521.077 88.948 520.573 87.996 520.573 87.1C520.573 85.77 521.651 84.412 523.709 84.412C524.619 84.412 525.333 84.734 525.753 85.196V84.58H527.993V85.798ZM523.709 88.696C524.787 88.696 525.291 87.94 525.291 87.128C525.291 86.316 524.787 85.574 523.709 85.574C522.645 85.574 522.127 86.316 522.127 87.128C522.127 87.94 522.645 88.696 523.709 88.696Z" fill="#2A2859"/>
<rect width="102" height="30" transform="translate(561 72)" fill="#F8F0DD"/>
<path fill-rule="evenodd" clip-rule="evenodd" d="M582.686 82.737L580.217 80.2672L573.014 87.4692L572.157 90.7879L575.476 89.9312L575.985 89.4217L580.887 84.5346L580.888 84.5352L581.268 84.1555L581.507 83.9171L581.506 83.9167L582.686 82.737ZM580.217 81.5041L581.449 82.7366L580.888 83.2974L579.656 82.0654L580.217 81.5041ZM574.537 87.1837L575.762 88.4086L580.268 83.9161L579.037 82.6841L574.537 87.1837ZM573.918 87.8024L575.142 89.0266L575.026 89.1433L573.375 89.5694L573.802 87.9187L573.918 87.8024Z" fill="#2A2859"/>
<path d="M574.907 81.7606V80.8856H569.007V93.1251H582.998L582.996 87.8351L582.121 87.8355L582.122 92.25H569.882V81.7605L574.907 81.7606Z" fill="#2A2859"/>
<path d="M595.774 81.64C598.112 81.64 599.554 83.012 599.554 85.056C599.554 87.1 598.042 88.472 595.69 88.472H593.856V92H592.218V81.64H595.774ZM595.83 87.044C597.118 87.044 597.86 86.358 597.86 85.112C597.86 83.81 597.118 83.124 595.816 83.124H593.856V87.044H595.83ZM603.335 83.908C602.355 83.908 601.529 83.194 601.529 82.214C601.529 81.248 602.355 80.548 603.335 80.548C604.329 80.548 605.141 81.248 605.141 82.214C605.141 83.194 604.329 83.908 603.335 83.908ZM603.335 81.36C602.845 81.36 602.481 81.64 602.481 82.214C602.481 82.788 602.845 83.096 603.335 83.096C603.825 83.096 604.189 82.788 604.189 82.214C604.189 81.64 603.825 81.36 603.335 81.36ZM606.443 92H605.001C604.889 91.622 604.819 91.174 604.791 90.6C604.441 91.37 603.657 92.126 602.369 92.126C601.025 92.126 600.073 91.216 600.073 89.928C600.073 88.318 601.501 87.52 603.097 87.52C603.601 87.52 604.077 87.562 604.595 87.702V87.002C604.595 86.204 604.091 85.686 603.181 85.686C602.327 85.686 601.725 86.148 601.445 87.016L600.115 86.61C600.647 85.042 601.921 84.412 603.251 84.412C605.225 84.412 606.121 85.574 606.121 86.988V89.858C606.121 90.74 606.261 91.524 606.443 92ZM604.595 88.934V88.766C604.147 88.612 603.713 88.556 603.251 88.556C602.327 88.556 601.613 88.976 601.613 89.788C601.613 90.474 602.103 90.908 602.845 90.908C603.601 90.908 604.595 90.46 604.595 88.934ZM612.183 84.426C613.975 84.426 615.263 85.952 615.263 88.22C615.263 90.544 613.961 92.112 612.001 92.112C611.147 92.112 610.321 91.734 609.845 90.81V92H608.277V81.64H609.845V85.91C610.419 84.86 611.329 84.426 612.183 84.426ZM611.763 90.824C612.841 90.824 613.639 89.956 613.639 88.29C613.639 86.624 612.841 85.77 611.763 85.77C610.615 85.77 609.845 86.554 609.845 88.276C609.845 89.998 610.615 90.824 611.763 90.824ZM621.964 89.662L623.028 90.278C622.608 91.202 621.628 92.126 619.934 92.126C617.736 92.126 616.406 90.502 616.406 88.22C616.406 85.966 617.848 84.412 619.822 84.412C621.572 84.412 623.014 85.588 623.014 87.688L622.986 88.612H617.946C618.03 90.18 618.8 90.852 620.032 90.852C620.942 90.852 621.572 90.362 621.964 89.662ZM619.822 85.644C618.87 85.644 618.072 86.148 617.946 87.492H621.488C621.502 86.176 620.69 85.644 619.822 85.644ZM631.806 85.798H630.252V85.966C630.504 86.316 630.63 86.722 630.63 87.142C630.63 88.486 629.594 89.83 627.438 89.83H627.074C626.318 89.83 625.828 90.082 625.828 90.53C625.828 90.838 626.066 91.062 626.542 91.062H629.636C630.91 91.062 631.638 91.72 631.638 92.728C631.638 94.254 630.084 95.136 627.606 95.136C625.436 95.136 623.98 94.59 623.602 93.148L625.128 92.854C625.478 93.75 626.29 93.988 627.648 93.988C629.104 93.988 630.14 93.596 630.14 92.91C630.14 92.588 629.958 92.35 629.454 92.35H626.08C624.918 92.35 624.316 91.72 624.316 90.936C624.316 90.18 624.988 89.578 625.912 89.396C624.89 88.948 624.386 87.996 624.386 87.1C624.386 85.77 625.464 84.412 627.522 84.412C628.432 84.412 629.146 84.734 629.566 85.196V84.58H631.806V85.798ZM627.522 88.696C628.6 88.696 629.104 87.94 629.104 87.128C629.104 86.316 628.6 85.574 627.522 85.574C626.458 85.574 625.94 86.316 625.94 87.128C625.94 87.94 626.458 88.696 627.522 88.696ZM637.735 84.58H639.373L636.363 92.574C635.775 94.128 635.061 95.108 633.535 95.108C632.919 95.108 632.331 94.912 631.897 94.548L632.485 93.456C632.765 93.708 633.045 93.834 633.409 93.834C633.983 93.834 634.403 93.554 634.711 92.798L634.963 92.21L632.121 84.58H633.871L635.803 90.488L637.735 84.58ZM644.383 84.412C645.895 84.412 646.791 85.392 646.791 87.002V92H645.223V87.254C645.223 86.232 644.733 85.77 643.879 85.77C642.773 85.77 642.213 86.54 642.213 87.982V92H640.645V84.58H642.213V85.644C642.717 84.86 643.459 84.412 644.383 84.412ZM650.885 89.704C650.885 90.53 651.389 90.782 651.907 90.782C652.313 90.782 652.635 90.614 652.957 90.292L653.629 91.3C653.069 91.86 652.453 92.126 651.655 92.126C650.367 92.126 649.317 91.342 649.317 89.802V85.798H648.015V84.58H649.317V82.928L650.885 82.214V84.58H653.503V85.798H650.885V89.704Z" fill="#2A2859"/>
<rect width="168" height="30" transform="translate(687 72)" fill="#FFE7BC"/>
<path d="M702 83.0625V87L705.062 86.7396V87.875H701.125V83.0625H702Z" fill="#2A2859"/>
<path fill-rule="evenodd" clip-rule="evenodd" d="M695.438 87C695.438 83.3759 698.376 80.4375 702 80.4375C705.624 80.4375 708.562 83.3759 708.562 87C708.562 90.6247 705.624 93.5625 702 93.5625C698.376 93.5625 695.438 90.6247 695.438 87ZM696.378 87C696.378 90.1046 698.895 92.6224 702 92.6224C705.105 92.6224 707.622 90.1046 707.622 87C707.622 83.8948 705.105 81.3776 702 81.3776C698.895 81.3776 696.378 83.8948 696.378 87Z" fill="#2A2859"/>
<path d="M724.812 81.64H726.548L722.81 92H721.13L717.406 81.64H719.254L722.026 89.97L724.812 81.64ZM731.917 89.662L732.981 90.278C732.561 91.202 731.581 92.126 729.887 92.126C727.689 92.126 726.359 90.502 726.359 88.22C726.359 85.966 727.801 84.412 729.775 84.412C731.525 84.412 732.967 85.588 732.967 87.688L732.939 88.612H727.899C727.983 90.18 728.753 90.852 729.985 90.852C730.895 90.852 731.525 90.362 731.917 89.662ZM729.775 85.644C728.823 85.644 728.025 86.148 727.899 87.492H731.441C731.455 86.176 730.643 85.644 729.775 85.644ZM738.439 84.412C739.951 84.412 740.847 85.392 740.847 87.002V92H739.279V87.254C739.279 86.232 738.789 85.77 737.935 85.77C736.829 85.77 736.269 86.54 736.269 87.982V92H734.701V84.58H736.269V85.644C736.773 84.86 737.515 84.412 738.439 84.412ZM744.941 89.704C744.941 90.53 745.445 90.782 745.963 90.782C746.369 90.782 746.691 90.614 747.013 90.292L747.685 91.3C747.125 91.86 746.509 92.126 745.711 92.126C744.423 92.126 743.373 91.342 743.373 89.802V85.798H742.071V84.58H743.373V82.928L744.941 82.214V84.58H747.559V85.798H744.941V89.704ZM753.739 89.662L754.803 90.278C754.383 91.202 753.403 92.126 751.709 92.126C749.511 92.126 748.181 90.502 748.181 88.22C748.181 85.966 749.623 84.412 751.597 84.412C753.347 84.412 754.789 85.588 754.789 87.688L754.761 88.612H749.721C749.805 90.18 750.575 90.852 751.807 90.852C752.717 90.852 753.347 90.362 753.739 89.662ZM751.597 85.644C750.645 85.644 749.847 86.148 749.721 87.492H753.263C753.277 86.176 752.465 85.644 751.597 85.644ZM759.925 84.412C761.003 84.412 761.703 85.126 761.703 86.4V87.38L760.443 87.604V86.848C760.443 86.176 760.205 85.714 759.477 85.714C758.679 85.714 758.091 86.246 758.091 87.66V92H756.523V84.58H758.091V85.574C758.511 84.748 759.281 84.412 759.925 84.412ZM773.817 85.798H772.263V85.966C772.515 86.316 772.641 86.722 772.641 87.142C772.641 88.486 771.605 89.83 769.449 89.83H769.085C768.329 89.83 767.839 90.082 767.839 90.53C767.839 90.838 768.077 91.062 768.553 91.062H771.647C772.921 91.062 773.649 91.72 773.649 92.728C773.649 94.254 772.095 95.136 769.617 95.136C767.447 95.136 765.991 94.59 765.613 93.148L767.139 92.854C767.489 93.75 768.301 93.988 769.659 93.988C771.115 93.988 772.151 93.596 772.151 92.91C772.151 92.588 771.969 92.35 771.465 92.35H768.091C766.929 92.35 766.327 91.72 766.327 90.936C766.327 90.18 766.999 89.578 767.923 89.396C766.901 88.948 766.397 87.996 766.397 87.1C766.397 85.77 767.475 84.412 769.533 84.412C770.443 84.412 771.157 84.734 771.577 85.196V84.58H773.817V85.798ZM769.533 88.696C770.611 88.696 771.115 87.94 771.115 87.128C771.115 86.316 770.611 85.574 769.533 85.574C768.469 85.574 767.951 86.316 767.951 87.128C767.951 87.94 768.469 88.696 769.533 88.696ZM777.555 92.14C775.623 92.14 774.041 90.628 774.041 88.248C774.041 85.924 775.609 84.412 777.555 84.412C779.501 84.412 781.069 85.924 781.069 88.248C781.069 90.628 779.487 92.14 777.555 92.14ZM777.555 90.81C778.605 90.81 779.459 89.998 779.459 88.248C779.459 86.484 778.591 85.742 777.555 85.742C776.519 85.742 775.651 86.484 775.651 88.248C775.651 89.998 776.519 90.81 777.555 90.81ZM787.612 81.64H789.18V92H787.612V90.656C787.038 91.692 786.142 92.112 785.288 92.112C783.496 92.112 782.208 90.572 782.208 88.318C782.208 85.98 783.51 84.426 785.47 84.426C786.31 84.426 787.15 84.804 787.612 85.714V81.64ZM785.708 90.74C786.842 90.74 787.612 89.97 787.612 88.234C787.612 86.512 786.856 85.686 785.708 85.686C784.63 85.686 783.832 86.554 783.832 88.234C783.832 89.9 784.63 90.74 785.708 90.74ZM795.951 92L793.697 88.598L792.843 89.438V92H791.275V81.64H792.843V87.66L795.839 84.58H797.771L794.733 87.576L797.827 92H795.951ZM799.762 83.348C799.146 83.348 798.656 82.872 798.656 82.242C798.656 81.612 799.146 81.136 799.762 81.136C800.378 81.136 800.854 81.612 800.854 82.242C800.854 82.872 800.378 83.348 799.762 83.348ZM798.558 95.066C798.208 95.066 797.858 95.024 797.536 94.926L797.662 93.708C797.844 93.764 798.012 93.792 798.166 93.792C798.712 93.792 798.978 93.442 798.978 92.854V84.58H800.546V92.728C800.546 94.198 799.944 95.066 798.558 95.066ZM807.838 89.662L808.902 90.278C808.482 91.202 807.502 92.126 805.808 92.126C803.61 92.126 802.28 90.502 802.28 88.22C802.28 85.966 803.722 84.412 805.696 84.412C807.446 84.412 808.888 85.588 808.888 87.688L808.86 88.612H803.82C803.904 90.18 804.674 90.852 805.906 90.852C806.816 90.852 807.446 90.362 807.838 89.662ZM805.696 85.644C804.744 85.644 803.946 86.148 803.82 87.492H807.362C807.376 86.176 806.564 85.644 805.696 85.644ZM814.36 84.412C815.872 84.412 816.768 85.392 816.768 87.002V92H815.2V87.254C815.2 86.232 814.71 85.77 813.856 85.77C812.75 85.77 812.19 86.54 812.19 87.982V92H810.622V84.58H812.19V85.644C812.694 84.86 813.436 84.412 814.36 84.412ZM822.582 84.412C824.094 84.412 824.99 85.392 824.99 87.002V92H823.422V87.254C823.422 86.232 822.932 85.77 822.078 85.77C820.972 85.77 820.412 86.54 820.412 87.982V92H818.844V84.58H820.412V85.644C820.916 84.86 821.658 84.412 822.582 84.412ZM826.884 81.36H828.802V83.25H826.884V81.36ZM827.066 92V84.58H828.634V92H827.066ZM834.568 84.412C836.08 84.412 836.976 85.392 836.976 87.002V92H835.408V87.254C835.408 86.232 834.918 85.77 834.064 85.77C832.958 85.77 832.398 86.54 832.398 87.982V92H830.83V84.58H832.398V85.644C832.902 84.86 833.644 84.412 834.568 84.412ZM846.178 85.798H844.624V85.966C844.876 86.316 845.002 86.722 845.002 87.142C845.002 88.486 843.966 89.83 841.81 89.83H841.446C840.69 89.83 840.2 90.082 840.2 90.53C840.2 90.838 840.438 91.062 840.914 91.062H844.008C845.282 91.062 846.01 91.72 846.01 92.728C846.01 94.254 844.456 95.136 841.978 95.136C839.808 95.136 838.352 94.59 837.974 93.148L839.5 92.854C839.85 93.75 840.662 93.988 842.02 93.988C843.476 93.988 844.512 93.596 844.512 92.91C844.512 92.588 844.33 92.35 843.826 92.35H840.452C839.29 92.35 838.688 91.72 838.688 90.936C838.688 90.18 839.36 89.578 840.284 89.396C839.262 88.948 838.758 87.996 838.758 87.1C838.758 85.77 839.836 84.412 841.894 84.412C842.804 84.412 843.518 84.734 843.938 85.196V84.58H846.178V85.798ZM841.894 88.696C842.972 88.696 843.476 87.94 843.476 87.128C843.476 86.316 842.972 85.574 841.894 85.574C840.83 85.574 840.312 86.316 840.312 87.128C840.312 87.94 840.83 88.696 841.894 88.696Z" fill="#2A2859"/>
<rect width="92" height="30" transform="translate(879 72)" fill="#F2F2F2"/>
<path d="M894.728 92L893.944 89.48H889.94L889.128 92H887.406L891.004 81.64H892.978L896.562 92H894.728ZM890.402 88.038H893.482L891.956 83.152L890.402 88.038ZM900.514 91.958C900.22 92.042 899.926 92.084 899.618 92.084C898.204 92.084 897.532 91.244 897.532 89.886V81.64H899.1V89.774C899.1 90.418 899.478 90.712 900.052 90.712C900.192 90.712 900.346 90.698 900.514 90.656V91.958ZM905.786 84.412C907.298 84.412 908.194 85.392 908.194 87.002V92H906.626V87.254C906.626 86.232 906.136 85.77 905.282 85.77C904.176 85.77 903.616 86.54 903.616 87.982V92H902.048V84.58H903.616V85.644C904.12 84.86 904.862 84.412 905.786 84.412ZM916.248 92H914.806C914.694 91.622 914.624 91.174 914.596 90.6C914.246 91.37 913.462 92.126 912.174 92.126C910.83 92.126 909.878 91.216 909.878 89.928C909.878 88.318 911.306 87.52 912.902 87.52C913.406 87.52 913.882 87.562 914.4 87.702V87.002C914.4 86.204 913.896 85.686 912.986 85.686C912.132 85.686 911.53 86.148 911.25 87.016L909.92 86.61C910.452 85.042 911.726 84.412 913.056 84.412C915.03 84.412 915.926 85.574 915.926 86.988V89.858C915.926 90.74 916.066 91.524 916.248 92ZM914.4 88.934V88.766C913.952 88.612 913.518 88.556 913.056 88.556C912.132 88.556 911.418 88.976 911.418 89.788C911.418 90.474 911.908 90.908 912.65 90.908C913.406 90.908 914.4 90.46 914.4 88.934ZM921.988 84.426C923.78 84.426 925.068 85.952 925.068 88.22C925.068 90.544 923.766 92.112 921.806 92.112C920.952 92.112 920.126 91.734 919.65 90.81V92H918.082V81.64H919.65V85.91C920.224 84.86 921.134 84.426 921.988 84.426ZM921.568 90.824C922.646 90.824 923.444 89.956 923.444 88.29C923.444 86.624 922.646 85.77 921.568 85.77C920.42 85.77 919.65 86.554 919.65 88.276C919.65 89.998 920.42 90.824 921.568 90.824ZM930.075 84.412C931.153 84.412 931.853 85.126 931.853 86.4V87.38L930.593 87.604V86.848C930.593 86.176 930.355 85.714 929.627 85.714C928.829 85.714 928.241 86.246 928.241 87.66V92H926.673V84.58H928.241V85.574C928.661 84.748 929.431 84.412 930.075 84.412ZM937.623 84.58H939.191V92H937.623V90.908C937.147 91.72 936.405 92.126 935.495 92.126C933.969 92.126 933.087 91.146 933.087 89.536V84.58H934.655V89.298C934.655 90.264 935.131 90.782 935.985 90.782C937.077 90.782 937.623 89.998 937.623 88.556V84.58Z" fill="#2A2859"/>
<path fill-rule="evenodd" clip-rule="evenodd" d="M955.358 87L951.188 82.8292L951.829 82.1875L956 86.3583L960.171 82.1875L960.812 82.8292L956.642 87L960.812 91.1708L960.171 91.8125L956 87.6417L951.829 91.8125L951.188 91.1708L955.358 87Z" fill="#2A2859"/>
<defs>
<clipPath id="clip0_5240_164195">
<rect width="14" height="14" fill="white" transform="translate(395 80)"/>
</clipPath>
</defs>
</svg>
