<svg width="922" height="301" viewBox="0 0 922 301" fill="none" xmlns="http://www.w3.org/2000/svg">
<g clip-path="url(#clip0_5240_164462)">
<rect width="922" height="301" fill="white"/>
<mask id="path-1-inside-1_5240_164462" fill="white">
<path d="M0 55H456V301H0V55Z"/>
</mask>
<path d="M0 55H456V301H0V55Z" fill="white"/>
<path d="M456 301V302H457V301H456ZM0 301H-1V302H0V301ZM455 55V301H457V55H455ZM456 300H0V302H456V300ZM1 301V55H-1V301H1Z" fill="#E6E6E6" mask="url(#path-1-inside-1_5240_164462)"/>
<mask id="path-3-inside-2_5240_164462" fill="white">
<path d="M465 55H922V301H465V55Z"/>
</mask>
<path d="M465 55H922V301H465V55Z" fill="white"/>
<path d="M922 301V302H923V301H922ZM465 301H464V302H465V301ZM921 55V301H923V55H921ZM922 300H465V302H922V300ZM466 301V55H464V301H466Z" fill="#E6E6E6" mask="url(#path-3-inside-2_5240_164462)"/>
<rect x="0.5" y="0.5" width="454.316" height="53.97" stroke="#E6E6E6"/>
<rect x="465.693" y="0.5" width="455.304" height="53.97" stroke="#E6E6E6"/>
<path d="M0 43.9761H455.316V54.9701H0V43.9761Z" fill="#C7F6C9"/>
<path opacity="0.6" d="M465.193 43.9761H921.497V54.9701H465.193V43.9761Z" fill="#FF8274"/>
<path d="M20.2116 28.144C21.7956 28.144 23.3796 27.68 24.4356 26.8V21.6H18.9796V22.896H23.1556V26.144C22.3556 26.608 21.4916 26.848 20.2916 26.848C17.8276 26.848 16.0996 25.136 16.0996 22.016C16.0996 18.896 17.9236 17.376 20.0676 17.376C21.4116 17.376 22.5636 18.048 23.1396 19.296L24.4036 18.64C23.6516 16.96 22.1476 16.016 20.0836 16.016C17.0916 16.016 14.6116 18.368 14.6116 22.016C14.6116 25.776 16.9636 28.144 20.2116 28.144ZM27.5186 18.032C28.1106 18.032 28.5906 17.568 28.5906 16.944C28.5906 16.336 28.1106 15.872 27.5186 15.872C26.9106 15.872 26.4306 16.336 26.4306 16.944C26.4306 17.568 26.9106 18.032 27.5186 18.032ZM26.1906 31.488C27.5506 31.488 28.2066 30.64 28.2066 29.104V19.52H26.8306V29.12C26.8306 29.84 26.6226 30.304 25.9186 30.304C25.7586 30.304 25.5666 30.288 25.3426 30.208L25.2306 31.344C25.5346 31.44 25.8706 31.488 26.1906 31.488ZM36.3084 20.096L37.0124 18.704H36.1964L35.6844 19.712C35.2044 19.488 34.6604 19.36 34.0844 19.36C31.9244 19.36 30.1964 21.088 30.1964 23.728C30.1964 25.36 30.8364 26.64 31.8124 27.392L31.1084 28.8H31.9404L32.4524 27.776C32.9484 28.016 33.5084 28.144 34.0844 28.144C36.2124 28.144 37.9564 26.416 37.9564 23.728C37.9564 22.112 37.3164 20.832 36.3084 20.096ZM31.6204 23.728C31.6204 21.568 32.7404 20.56 34.0844 20.56C34.4524 20.56 34.8204 20.64 35.1404 20.8L32.4044 26.224C31.9244 25.696 31.6204 24.864 31.6204 23.728ZM34.0844 26.944C33.7004 26.944 33.3324 26.864 32.9964 26.688L35.7324 21.248C36.2284 21.776 36.5324 22.592 36.5324 23.728C36.5324 25.888 35.4284 26.944 34.0844 26.944ZM43.2918 19.36C42.5398 19.36 41.7398 19.744 41.2758 20.608V19.52H39.8998V28H41.2758V22.896C41.2758 21.216 41.9798 20.544 42.9398 20.544C43.7878 20.544 44.0598 21.088 44.0598 21.904V22.752L45.2438 22.528V21.584C45.2438 20.128 44.4438 19.36 43.2918 19.36ZM50.6146 21.776C50.6146 22.944 51.4626 23.744 53.0306 24.064L54.4866 24.352C55.4626 24.56 55.8786 24.944 55.8786 25.648C55.8786 26.448 55.0626 26.976 53.8466 26.976C52.6466 26.976 51.7986 26.512 51.3666 25.648L50.3106 26.208C50.9186 27.456 52.1506 28.128 53.8786 28.128C55.8626 28.128 57.2066 27.088 57.2066 25.568C57.2066 24.288 56.3266 23.472 54.4866 23.104L53.2546 22.864C52.3426 22.672 51.9426 22.304 51.9426 21.68C51.9426 20.96 52.6626 20.528 53.7506 20.528C54.7906 20.528 55.5586 20.944 55.9106 21.696L56.9506 21.168C56.5026 20.048 55.3506 19.36 53.7826 19.36C51.9106 19.36 50.6146 20.4 50.6146 21.776ZM62.041 27.968V26.784C61.865 26.832 61.689 26.848 61.529 26.848C60.857 26.848 60.457 26.496 60.457 25.76V16.16H59.081V25.824C59.081 27.2 59.769 28.08 61.209 28.08C61.497 28.08 61.753 28.032 62.041 27.968ZM63.5625 16.064V17.92H65.4505V16.064H63.5625ZM63.8185 28H65.1945V19.52H63.8185V28ZM73.0555 28H74.7355L71.0715 23.024L74.6715 19.52H72.9275L69.1355 23.328V16.16H67.7595V28H69.1355V24.912L70.1435 23.92L73.0555 28Z" fill="#2A2859"/>
<path d="M484.379 28H485.803V16.16H484.379V28ZM493.646 28H495.326L491.662 23.024L495.262 19.52H493.518L489.726 23.328V16.16H488.35V28H489.726V24.912L490.734 23.92L493.646 28ZM502.227 28H503.907L500.243 23.024L503.843 19.52H502.099L498.307 23.328V16.16H496.931V28H498.307V24.912L499.315 23.92L502.227 28ZM510.664 25.488C510.248 26.304 509.496 26.976 508.328 26.976C506.792 26.976 505.784 26.096 505.688 24.016H511.56L511.592 23.04C511.592 20.688 509.976 19.36 508.088 19.36C505.864 19.36 504.312 21.136 504.312 23.664C504.312 26.32 505.768 28.144 508.216 28.144C510.12 28.144 511.192 27.088 511.64 26.032L510.664 25.488ZM508.088 20.512C509.224 20.512 510.264 21.232 510.248 22.944H505.688C505.848 21.136 506.888 20.512 508.088 20.512ZM517.102 21.776C517.102 22.944 517.95 23.744 519.518 24.064L520.974 24.352C521.95 24.56 522.366 24.944 522.366 25.648C522.366 26.448 521.55 26.976 520.334 26.976C519.134 26.976 518.286 26.512 517.854 25.648L516.798 26.208C517.406 27.456 518.638 28.128 520.366 28.128C522.35 28.128 523.694 27.088 523.694 25.568C523.694 24.288 522.814 23.472 520.974 23.104L519.742 22.864C518.83 22.672 518.43 22.304 518.43 21.68C518.43 20.96 519.15 20.528 520.238 20.528C521.278 20.528 522.046 20.944 522.398 21.696L523.438 21.168C522.99 20.048 521.838 19.36 520.27 19.36C518.398 19.36 517.102 20.4 517.102 21.776ZM528.528 27.968V26.784C528.352 26.832 528.176 26.848 528.016 26.848C527.344 26.848 526.944 26.496 526.944 25.76V16.16H525.568V25.824C525.568 27.2 526.256 28.08 527.696 28.08C527.984 28.08 528.24 28.032 528.528 27.968ZM530.994 18.032C531.586 18.032 532.066 17.568 532.066 16.944C532.066 16.336 531.586 15.872 530.994 15.872C530.386 15.872 529.906 16.336 529.906 16.944C529.906 17.568 530.386 18.032 530.994 18.032ZM530.306 28H531.682V19.52H530.306V28ZM539.543 28H541.223L537.559 23.024L541.159 19.52H539.415L535.623 23.328V16.16H534.247V28H535.623V24.912L536.631 23.92L539.543 28Z" fill="#2A2859"/>
<rect width="42" height="42" transform="translate(615 157)" fill="#B3F5FF"/>
<path d="M638.188 176.438C639.051 176.438 639.75 175.738 639.75 174.875C639.75 174.012 639.051 173.312 638.188 173.312C637.324 173.312 636.625 174.012 636.625 174.875C636.625 175.738 637.324 176.438 638.188 176.438Z" fill="#2A2859"/>
<path fill-rule="evenodd" clip-rule="evenodd" d="M646 170.266H626V185.891H646V170.266ZM644.75 183.197V184.641H641.906L638.627 181.649L640.842 179.628L644.75 183.197ZM644.75 181.504V171.516H627.25V180.486L632.288 175.868L637.699 180.804L640.844 177.935L644.75 181.504ZM632.291 177.561L640.051 184.641H627.25V182.181L632.291 177.561Z" fill="#2A2859"/>
<rect width="42" height="42" transform="translate(673 157)" fill="#B3F5FF"/>
<path d="M699.524 181.303C698.443 179.262 696.32 177.978 694 177.978C691.616 177.978 689.439 179.334 688.389 181.475L689.511 182.025L689.592 181.867C690.46 180.246 692.152 179.228 694 179.228C695.907 179.228 697.649 180.313 698.489 182.025L699.611 181.475L699.524 181.303Z" fill="#2A2859"/>
<path fill-rule="evenodd" clip-rule="evenodd" d="M694 168.625C688.822 168.625 684.625 172.822 684.625 178C684.625 183.178 688.822 187.375 694 187.375C699.178 187.375 703.375 183.178 703.375 178C703.375 172.822 699.178 168.625 694 168.625ZM694 169.875C698.487 169.875 702.125 173.513 702.125 178C702.125 182.487 698.487 186.125 694 186.125C689.513 186.125 685.875 182.487 685.875 178C685.875 173.513 689.513 169.875 694 169.875Z" fill="#2A2859"/>
<path d="M692.75 175.475C692.75 176.165 692.19 176.725 691.5 176.725C690.81 176.725 690.25 176.165 690.25 175.475C690.25 174.785 690.81 174.225 691.5 174.225C692.19 174.225 692.75 174.785 692.75 175.475Z" fill="#2A2859"/>
<path d="M697.75 175.475C697.75 176.165 697.19 176.725 696.5 176.725C695.81 176.725 695.25 176.165 695.25 175.475C695.25 174.785 695.81 174.225 696.5 174.225C697.19 174.225 697.75 174.785 697.75 175.475Z" fill="#2A2859"/>
<rect width="42" height="42" transform="translate(731 157)" fill="#B3F5FF"/>
<path d="M752.849 172.633L754.132 177.124L754.534 176.234H757.437V177.484H755.341L753.868 180.75L752.651 176.492L751.612 179.089L750.505 177.244L749.694 178.324L748.847 177.484H747.437V176.234H749.361L749.555 176.426L750.62 175.006L751.388 176.285L752.849 172.633Z" fill="#2A2859"/>
<path d="M755.549 170.426C755.012 169.803 754.225 169.45 753.427 169.47C752.952 169.512 752.744 169.565 752.486 169.677C752.456 169.69 752.426 169.703 752.397 169.717C751.481 169.313 750.595 169.168 749.752 169.294C748.915 169.42 748.171 169.806 747.523 170.386C746.591 170.29 745.736 170.471 745.084 170.983C744.438 171.491 744.079 172.253 744.001 173.163C742.936 173.823 742.506 175.017 742.654 176.128C742.8 177.232 743.515 178.289 744.746 178.772C744.801 179.804 745.049 180.632 745.506 181.275C746.034 182.018 746.786 182.434 747.63 182.665C748.461 182.892 749.418 182.95 750.412 182.957C750.913 182.961 751.435 182.951 751.966 182.941L752.041 182.94C752.456 182.932 752.877 182.924 753.305 182.921L756.242 186.445L757.202 185.645L753.89 181.67H753.597C753.057 181.67 752.527 181.68 752.02 181.69L751.943 181.691C751.409 181.702 750.903 181.711 750.421 181.707C749.449 181.7 748.627 181.641 747.96 181.459C747.305 181.28 746.839 180.993 746.524 180.55C746.203 180.099 745.984 179.407 745.984 178.313V177.825L745.51 177.706C744.524 177.46 743.994 176.722 743.893 175.964C743.792 175.208 744.115 174.474 744.836 174.129L744.847 174.145C744.885 174.119 744.924 174.095 744.964 174.071L745.235 173.948L745.235 173.928C745.527 173.794 745.837 173.712 746.132 173.697C746.554 173.676 746.913 173.793 747.18 174.063L748.07 173.186C747.502 172.609 746.768 172.414 746.07 172.448C745.851 172.459 745.632 172.493 745.418 172.545C745.528 172.294 745.68 172.104 745.856 171.966C746.224 171.677 746.811 171.525 747.633 171.662L747.95 171.715L748.177 171.487C748.727 170.938 749.313 170.624 749.938 170.53C750.381 170.464 750.876 170.503 751.429 170.683C751.204 171.056 751.063 171.51 751.063 172.062H752.313C752.313 171.496 752.585 171.095 753.028 170.807C753.615 170.584 754.322 170.802 754.715 171.392L754.901 171.67H755.235C756.243 171.67 757.036 171.886 757.638 172.33C758.235 172.77 758.717 173.487 759.004 174.634L759.063 174.869L759.264 175.003C759.634 175.249 759.849 175.533 759.955 175.852C760.064 176.179 760.078 176.599 759.942 177.144L759.879 177.395L760.012 177.617C760.407 178.275 760.441 178.805 760.335 179.204C760.247 179.534 760.049 179.824 759.787 180.052C759.273 180.185 758.919 180.151 758.661 180.068C758.321 179.958 758.055 179.734 757.754 179.433L756.871 180.317C757.195 180.641 757.638 181.05 758.277 181.257C758.603 181.363 758.959 181.409 759.351 181.385C759.325 181.653 759.229 181.918 759.078 182.163C758.829 182.568 758.469 182.85 758.163 182.952L757.629 183.13L758.299 186.179L759.52 185.911L759.077 183.895C759.5 183.637 759.873 183.256 760.143 182.818C760.442 182.332 760.636 181.736 760.606 181.104C760.623 181.098 760.64 181.091 760.657 181.085L760.62 180.984C761.038 180.617 761.383 180.125 761.542 179.527C761.731 178.818 761.644 178.022 761.21 177.198C761.331 176.582 761.32 175.996 761.141 175.457C760.96 174.913 760.621 174.464 760.157 174.106C759.809 172.866 759.217 171.94 758.38 171.323C757.576 170.731 756.607 170.468 755.549 170.426Z" fill="#2A2859"/>
<rect width="127" height="30" transform="translate(165 163)" fill="#B3F5FF"/>
<path d="M180 174.062V178L183.062 177.74V178.875H179.125V174.062H180Z" fill="#2A2859"/>
<path fill-rule="evenodd" clip-rule="evenodd" d="M173.438 178C173.438 174.376 176.376 171.438 180 171.438C183.624 171.438 186.562 174.376 186.562 178C186.562 181.625 183.624 184.562 180 184.562C176.376 184.562 173.438 181.625 173.438 178ZM174.378 178C174.378 181.105 176.895 183.622 180 183.622C183.105 183.622 185.622 181.105 185.622 178C185.622 174.895 183.105 172.378 180 172.378C176.895 172.378 174.378 174.895 174.378 178Z" fill="#2A2859"/>
<path d="M200.04 183.14C197.38 183.14 196.12 181.53 196.12 179.248V172.64H197.744V179.22C197.744 180.788 198.542 181.628 200.04 181.628C201.552 181.628 202.336 180.788 202.336 179.22V172.64H203.96V179.248C203.96 181.53 202.63 183.14 200.04 183.14ZM209.748 175.412C211.26 175.412 212.156 176.392 212.156 178.002V183H210.588V178.254C210.588 177.232 210.098 176.77 209.244 176.77C208.138 176.77 207.578 177.54 207.578 178.982V183H206.01V175.58H207.578V176.644C208.082 175.86 208.824 175.412 209.748 175.412ZM219.174 172.64H220.742V183H219.174V181.656C218.6 182.692 217.704 183.112 216.85 183.112C215.058 183.112 213.77 181.572 213.77 179.318C213.77 176.98 215.072 175.426 217.032 175.426C217.872 175.426 218.712 175.804 219.174 176.714V172.64ZM217.27 181.74C218.404 181.74 219.174 180.97 219.174 179.234C219.174 177.512 218.418 176.686 217.27 176.686C216.192 176.686 215.394 177.554 215.394 179.234C215.394 180.9 216.192 181.74 217.27 181.74ZM227.851 180.662L228.915 181.278C228.495 182.202 227.515 183.126 225.821 183.126C223.623 183.126 222.293 181.502 222.293 179.22C222.293 176.966 223.735 175.412 225.709 175.412C227.459 175.412 228.901 176.588 228.901 178.688L228.873 179.612H223.833C223.917 181.18 224.687 181.852 225.919 181.852C226.829 181.852 227.459 181.362 227.851 180.662ZM225.709 176.644C224.757 176.644 223.959 177.148 223.833 178.492H227.375C227.389 177.176 226.577 176.644 225.709 176.644ZM234.037 175.412C235.115 175.412 235.815 176.126 235.815 177.4V178.38L234.555 178.604V177.848C234.555 177.176 234.317 176.714 233.589 176.714C232.791 176.714 232.203 177.246 232.203 178.66V183H230.635V175.58H232.203V176.574C232.623 175.748 233.393 175.412 234.037 175.412ZM246.781 183H245.339C245.227 182.622 245.157 182.174 245.129 181.6C244.779 182.37 243.995 183.126 242.707 183.126C241.363 183.126 240.411 182.216 240.411 180.928C240.411 179.318 241.839 178.52 243.435 178.52C243.939 178.52 244.415 178.562 244.933 178.702V178.002C244.933 177.204 244.429 176.686 243.519 176.686C242.665 176.686 242.063 177.148 241.783 178.016L240.453 177.61C240.985 176.042 242.259 175.412 243.589 175.412C245.563 175.412 246.459 176.574 246.459 177.988V180.858C246.459 181.74 246.599 182.524 246.781 183ZM244.933 179.934V179.766C244.485 179.612 244.051 179.556 243.589 179.556C242.665 179.556 241.951 179.976 241.951 180.788C241.951 181.474 242.441 181.908 243.183 181.908C243.939 181.908 244.933 181.46 244.933 179.934ZM252.017 175.412C253.095 175.412 253.795 176.126 253.795 177.4V178.38L252.535 178.604V177.848C252.535 177.176 252.297 176.714 251.569 176.714C250.771 176.714 250.183 177.246 250.183 178.66V183H248.615V175.58H250.183V176.574C250.603 175.748 251.373 175.412 252.017 175.412ZM259.307 175.426C261.099 175.426 262.387 176.952 262.387 179.22C262.387 181.544 261.085 183.112 259.125 183.112C258.271 183.112 257.445 182.734 256.969 181.81V183H255.401V172.64H256.969V176.91C257.543 175.86 258.453 175.426 259.307 175.426ZM258.887 181.824C259.965 181.824 260.763 180.956 260.763 179.29C260.763 177.624 259.965 176.77 258.887 176.77C257.739 176.77 256.969 177.554 256.969 179.276C256.969 180.998 257.739 181.824 258.887 181.824ZM269.088 180.662L270.152 181.278C269.732 182.202 268.752 183.126 267.058 183.126C264.86 183.126 263.53 181.502 263.53 179.22C263.53 176.966 264.972 175.412 266.946 175.412C268.696 175.412 270.138 176.588 270.138 178.688L270.11 179.612H265.07C265.154 181.18 265.924 181.852 267.156 181.852C268.066 181.852 268.696 181.362 269.088 180.662ZM266.946 176.644C265.994 176.644 265.196 177.148 265.07 178.492H268.612C268.626 177.176 267.814 176.644 266.946 176.644ZM272.656 174.348C272.04 174.348 271.55 173.872 271.55 173.242C271.55 172.612 272.04 172.136 272.656 172.136C273.272 172.136 273.748 172.612 273.748 173.242C273.748 173.872 273.272 174.348 272.656 174.348ZM271.872 183V175.58H273.44V183H271.872ZM280.579 172.64H282.147V183H280.579V181.656C280.005 182.692 279.109 183.112 278.255 183.112C276.463 183.112 275.175 181.572 275.175 179.318C275.175 176.98 276.477 175.426 278.437 175.426C279.277 175.426 280.117 175.804 280.579 176.714V172.64ZM278.675 181.74C279.809 181.74 280.579 180.97 280.579 179.234C280.579 177.512 279.823 176.686 278.675 176.686C277.597 176.686 276.799 177.554 276.799 179.234C276.799 180.9 277.597 181.74 278.675 181.74Z" fill="#2A2859"/>
</g>
<defs>
<clipPath id="clip0_5240_164462">
<rect width="922" height="301" fill="white"/>
</clipPath>
</defs>
</svg>
