<svg width="672" height="174" viewBox="0 0 672 174" fill="none" xmlns="http://www.w3.org/2000/svg">
<rect width="672" height="174" fill="white"/>
<rect width="92" height="30" transform="translate(104 72)" fill="#B3F5FF"/>
<path d="M119.728 92L118.944 89.48H114.94L114.128 92H112.406L116.004 81.64H117.978L121.562 92H119.728ZM115.402 88.038H118.482L116.956 83.152L115.402 88.038ZM125.514 91.958C125.22 92.042 124.926 92.084 124.618 92.084C123.204 92.084 122.532 91.244 122.532 89.886V81.64H124.1V89.774C124.1 90.418 124.478 90.712 125.052 90.712C125.192 90.712 125.346 90.698 125.514 90.656V91.958ZM130.786 84.412C132.298 84.412 133.194 85.392 133.194 87.002V92H131.626V87.254C131.626 86.232 131.136 85.77 130.282 85.77C129.176 85.77 128.616 86.54 128.616 87.982V92H127.048V84.58H128.616V85.644C129.12 84.86 129.862 84.412 130.786 84.412ZM141.248 92H139.806C139.694 91.622 139.624 91.174 139.596 90.6C139.246 91.37 138.462 92.126 137.174 92.126C135.83 92.126 134.878 91.216 134.878 89.928C134.878 88.318 136.306 87.52 137.902 87.52C138.406 87.52 138.882 87.562 139.4 87.702V87.002C139.4 86.204 138.896 85.686 137.986 85.686C137.132 85.686 136.53 86.148 136.25 87.016L134.92 86.61C135.452 85.042 136.726 84.412 138.056 84.412C140.03 84.412 140.926 85.574 140.926 86.988V89.858C140.926 90.74 141.066 91.524 141.248 92ZM139.4 88.934V88.766C138.952 88.612 138.518 88.556 138.056 88.556C137.132 88.556 136.418 88.976 136.418 89.788C136.418 90.474 136.908 90.908 137.65 90.908C138.406 90.908 139.4 90.46 139.4 88.934ZM146.988 84.426C148.78 84.426 150.068 85.952 150.068 88.22C150.068 90.544 148.766 92.112 146.806 92.112C145.952 92.112 145.126 91.734 144.65 90.81V92H143.082V81.64H144.65V85.91C145.224 84.86 146.134 84.426 146.988 84.426ZM146.568 90.824C147.646 90.824 148.444 89.956 148.444 88.29C148.444 86.624 147.646 85.77 146.568 85.77C145.42 85.77 144.65 86.554 144.65 88.276C144.65 89.998 145.42 90.824 146.568 90.824ZM155.075 84.412C156.153 84.412 156.853 85.126 156.853 86.4V87.38L155.593 87.604V86.848C155.593 86.176 155.355 85.714 154.627 85.714C153.829 85.714 153.241 86.246 153.241 87.66V92H151.673V84.58H153.241V85.574C153.661 84.748 154.431 84.412 155.075 84.412ZM162.623 84.58H164.191V92H162.623V90.908C162.147 91.72 161.405 92.126 160.495 92.126C158.969 92.126 158.087 91.146 158.087 89.536V84.58H159.655V89.298C159.655 90.264 160.131 90.782 160.985 90.782C162.077 90.782 162.623 89.998 162.623 88.556V84.58Z" fill="#2A2859"/>
<path fill-rule="evenodd" clip-rule="evenodd" d="M180.358 87L176.188 82.8292L176.829 82.1875L181 86.3583L185.171 82.1875L185.812 82.8292L181.642 87L185.812 91.1708L185.171 91.8125L181 87.6417L176.829 91.8125L176.188 91.1708L180.358 87Z" fill="#2A2859"/>
<rect width="92" height="30" transform="translate(228 72)" fill="#6FE9FF"/>
<path d="M243.728 92L242.944 89.48H238.94L238.128 92H236.406L240.004 81.64H241.978L245.562 92H243.728ZM239.402 88.038H242.482L240.956 83.152L239.402 88.038ZM249.514 91.958C249.22 92.042 248.926 92.084 248.618 92.084C247.204 92.084 246.532 91.244 246.532 89.886V81.64H248.1V89.774C248.1 90.418 248.478 90.712 249.052 90.712C249.192 90.712 249.346 90.698 249.514 90.656V91.958ZM254.786 84.412C256.298 84.412 257.194 85.392 257.194 87.002V92H255.626V87.254C255.626 86.232 255.136 85.77 254.282 85.77C253.176 85.77 252.616 86.54 252.616 87.982V92H251.048V84.58H252.616V85.644C253.12 84.86 253.862 84.412 254.786 84.412ZM265.248 92H263.806C263.694 91.622 263.624 91.174 263.596 90.6C263.246 91.37 262.462 92.126 261.174 92.126C259.83 92.126 258.878 91.216 258.878 89.928C258.878 88.318 260.306 87.52 261.902 87.52C262.406 87.52 262.882 87.562 263.4 87.702V87.002C263.4 86.204 262.896 85.686 261.986 85.686C261.132 85.686 260.53 86.148 260.25 87.016L258.92 86.61C259.452 85.042 260.726 84.412 262.056 84.412C264.03 84.412 264.926 85.574 264.926 86.988V89.858C264.926 90.74 265.066 91.524 265.248 92ZM263.4 88.934V88.766C262.952 88.612 262.518 88.556 262.056 88.556C261.132 88.556 260.418 88.976 260.418 89.788C260.418 90.474 260.908 90.908 261.65 90.908C262.406 90.908 263.4 90.46 263.4 88.934ZM270.988 84.426C272.78 84.426 274.068 85.952 274.068 88.22C274.068 90.544 272.766 92.112 270.806 92.112C269.952 92.112 269.126 91.734 268.65 90.81V92H267.082V81.64H268.65V85.91C269.224 84.86 270.134 84.426 270.988 84.426ZM270.568 90.824C271.646 90.824 272.444 89.956 272.444 88.29C272.444 86.624 271.646 85.77 270.568 85.77C269.42 85.77 268.65 86.554 268.65 88.276C268.65 89.998 269.42 90.824 270.568 90.824ZM279.075 84.412C280.153 84.412 280.853 85.126 280.853 86.4V87.38L279.593 87.604V86.848C279.593 86.176 279.355 85.714 278.627 85.714C277.829 85.714 277.241 86.246 277.241 87.66V92H275.673V84.58H277.241V85.574C277.661 84.748 278.431 84.412 279.075 84.412ZM286.623 84.58H288.191V92H286.623V90.908C286.147 91.72 285.405 92.126 284.495 92.126C282.969 92.126 282.087 91.146 282.087 89.536V84.58H283.655V89.298C283.655 90.264 284.131 90.782 284.985 90.782C286.077 90.782 286.623 89.998 286.623 88.556V84.58Z" fill="#2A2859"/>
<path d="M236 94.856H289.283V95.472H236V94.856Z" fill="#2A2859"/>
<path fill-rule="evenodd" clip-rule="evenodd" d="M304.358 87L300.188 82.8292L300.829 82.1875L305 86.3583L309.171 82.1875L309.812 82.8292L305.642 87L309.812 91.1708L309.171 91.8125L305 87.6417L300.829 91.8125L300.188 91.1708L304.358 87Z" fill="#2A2859"/>
<rect x="350" y="70" width="96" height="34" fill="#6FE9FF"/>
<path d="M367.728 92L366.944 89.48H362.94L362.128 92H360.406L364.004 81.64H365.978L369.562 92H367.728ZM363.402 88.038H366.482L364.956 83.152L363.402 88.038ZM373.514 91.958C373.22 92.042 372.926 92.084 372.618 92.084C371.204 92.084 370.532 91.244 370.532 89.886V81.64H372.1V89.774C372.1 90.418 372.478 90.712 373.052 90.712C373.192 90.712 373.346 90.698 373.514 90.656V91.958ZM378.786 84.412C380.298 84.412 381.194 85.392 381.194 87.002V92H379.626V87.254C379.626 86.232 379.136 85.77 378.282 85.77C377.176 85.77 376.616 86.54 376.616 87.982V92H375.048V84.58H376.616V85.644C377.12 84.86 377.862 84.412 378.786 84.412ZM389.248 92H387.806C387.694 91.622 387.624 91.174 387.596 90.6C387.246 91.37 386.462 92.126 385.174 92.126C383.83 92.126 382.878 91.216 382.878 89.928C382.878 88.318 384.306 87.52 385.902 87.52C386.406 87.52 386.882 87.562 387.4 87.702V87.002C387.4 86.204 386.896 85.686 385.986 85.686C385.132 85.686 384.53 86.148 384.25 87.016L382.92 86.61C383.452 85.042 384.726 84.412 386.056 84.412C388.03 84.412 388.926 85.574 388.926 86.988V89.858C388.926 90.74 389.066 91.524 389.248 92ZM387.4 88.934V88.766C386.952 88.612 386.518 88.556 386.056 88.556C385.132 88.556 384.418 88.976 384.418 89.788C384.418 90.474 384.908 90.908 385.65 90.908C386.406 90.908 387.4 90.46 387.4 88.934ZM394.988 84.426C396.78 84.426 398.068 85.952 398.068 88.22C398.068 90.544 396.766 92.112 394.806 92.112C393.952 92.112 393.126 91.734 392.65 90.81V92H391.082V81.64H392.65V85.91C393.224 84.86 394.134 84.426 394.988 84.426ZM394.568 90.824C395.646 90.824 396.444 89.956 396.444 88.29C396.444 86.624 395.646 85.77 394.568 85.77C393.42 85.77 392.65 86.554 392.65 88.276C392.65 89.998 393.42 90.824 394.568 90.824ZM403.075 84.412C404.153 84.412 404.853 85.126 404.853 86.4V87.38L403.593 87.604V86.848C403.593 86.176 403.355 85.714 402.627 85.714C401.829 85.714 401.241 86.246 401.241 87.66V92H399.673V84.58H401.241V85.574C401.661 84.748 402.431 84.412 403.075 84.412ZM410.623 84.58H412.191V92H410.623V90.908C410.147 91.72 409.405 92.126 408.495 92.126C406.969 92.126 406.087 91.146 406.087 89.536V84.58H407.655V89.298C407.655 90.264 408.131 90.782 408.985 90.782C410.077 90.782 410.623 89.998 410.623 88.556V84.58Z" fill="#2A2859"/>
<path fill-rule="evenodd" clip-rule="evenodd" d="M428.358 87L424.188 82.8292L424.829 82.1875L429 86.3583L433.171 82.1875L433.812 82.8292L429.642 87L433.812 91.1708L433.171 91.8125L429 87.6417L424.829 91.8125L424.188 91.1708L428.358 87Z" fill="#2A2859"/>
<rect x="353" y="73" width="90" height="28" stroke="#1F42AA" stroke-width="2"/>
<rect x="350" y="70" width="96" height="34" stroke="#E0ADFF" stroke-width="4"/>
<rect width="92" height="30" transform="translate(476 72)" fill="#6FE9FF"/>
<path d="M491.728 92L490.944 89.48H486.94L486.128 92H484.406L488.004 81.64H489.978L493.562 92H491.728ZM487.402 88.038H490.482L488.956 83.152L487.402 88.038ZM497.514 91.958C497.22 92.042 496.926 92.084 496.618 92.084C495.204 92.084 494.532 91.244 494.532 89.886V81.64H496.1V89.774C496.1 90.418 496.478 90.712 497.052 90.712C497.192 90.712 497.346 90.698 497.514 90.656V91.958ZM502.786 84.412C504.298 84.412 505.194 85.392 505.194 87.002V92H503.626V87.254C503.626 86.232 503.136 85.77 502.282 85.77C501.176 85.77 500.616 86.54 500.616 87.982V92H499.048V84.58H500.616V85.644C501.12 84.86 501.862 84.412 502.786 84.412ZM513.248 92H511.806C511.694 91.622 511.624 91.174 511.596 90.6C511.246 91.37 510.462 92.126 509.174 92.126C507.83 92.126 506.878 91.216 506.878 89.928C506.878 88.318 508.306 87.52 509.902 87.52C510.406 87.52 510.882 87.562 511.4 87.702V87.002C511.4 86.204 510.896 85.686 509.986 85.686C509.132 85.686 508.53 86.148 508.25 87.016L506.92 86.61C507.452 85.042 508.726 84.412 510.056 84.412C512.03 84.412 512.926 85.574 512.926 86.988V89.858C512.926 90.74 513.066 91.524 513.248 92ZM511.4 88.934V88.766C510.952 88.612 510.518 88.556 510.056 88.556C509.132 88.556 508.418 88.976 508.418 89.788C508.418 90.474 508.908 90.908 509.65 90.908C510.406 90.908 511.4 90.46 511.4 88.934ZM518.988 84.426C520.78 84.426 522.068 85.952 522.068 88.22C522.068 90.544 520.766 92.112 518.806 92.112C517.952 92.112 517.126 91.734 516.65 90.81V92H515.082V81.64H516.65V85.91C517.224 84.86 518.134 84.426 518.988 84.426ZM518.568 90.824C519.646 90.824 520.444 89.956 520.444 88.29C520.444 86.624 519.646 85.77 518.568 85.77C517.42 85.77 516.65 86.554 516.65 88.276C516.65 89.998 517.42 90.824 518.568 90.824ZM527.075 84.412C528.153 84.412 528.853 85.126 528.853 86.4V87.38L527.593 87.604V86.848C527.593 86.176 527.355 85.714 526.627 85.714C525.829 85.714 525.241 86.246 525.241 87.66V92H523.673V84.58H525.241V85.574C525.661 84.748 526.431 84.412 527.075 84.412ZM534.623 84.58H536.191V92H534.623V90.908C534.147 91.72 533.405 92.126 532.495 92.126C530.969 92.126 530.087 91.146 530.087 89.536V84.58H531.655V89.298C531.655 90.264 532.131 90.782 532.985 90.782C534.077 90.782 534.623 89.998 534.623 88.556V84.58Z" fill="#2A2859"/>
<path fill-rule="evenodd" clip-rule="evenodd" d="M552.358 87L548.188 82.8292L548.829 82.1875L553 86.3583L557.171 82.1875L557.812 82.8292L553.642 87L557.812 91.1708L557.171 91.8125L553 87.6417L548.829 91.8125L548.188 91.1708L552.358 87Z" fill="#2A2859"/>
</svg>
