<svg width="1450" height="304" viewBox="0 0 1450 304" fill="none" xmlns="http://www.w3.org/2000/svg">
<rect width="1450" height="304" fill="white"/>
<rect width="1280" height="104" transform="translate(85 100)" fill="#2A2859"/>
<path fill-rule="evenodd" clip-rule="evenodd" d="M287.857 151.893L280.357 144.393L277.143 147.607L281.429 151.893L277.143 156.179L280.357 159.393L287.857 151.893ZM275 147.607L280.357 142.25L290 151.893L280.357 161.536L275 156.179L279.286 151.893L275 147.607Z" fill="white"/>
<path d="M310.432 158L305.41 151.628L303.844 153.266V158H302.584V144.68H303.844V151.646L310.342 144.68H311.98L306.238 150.746L312.052 158H310.432ZM316.39 158.144C314.032 158.144 312.142 156.2 312.142 153.212C312.142 150.26 314.014 148.316 316.39 148.316C318.766 148.316 320.638 150.26 320.638 153.212C320.638 156.2 318.748 158.144 316.39 158.144ZM316.39 157.064C318.028 157.064 319.378 155.768 319.378 153.212C319.378 150.674 318.01 149.396 316.39 149.396C314.77 149.396 313.402 150.674 313.402 153.212C313.402 155.768 314.752 157.064 316.39 157.064ZM326.921 148.316C328.829 148.316 329.945 149.486 329.945 151.628V158H328.721V151.808C328.721 150.08 327.929 149.432 326.597 149.432C324.923 149.432 324.149 150.728 324.149 152.636V158H322.925V148.46H324.149V149.936C324.725 148.892 325.769 148.316 326.921 148.316ZM334.6 155.624C334.6 156.74 335.266 157.064 335.86 157.064C336.436 157.064 336.814 156.848 337.264 156.38L337.912 157.1C337.282 157.838 336.598 158.144 335.752 158.144C334.456 158.144 333.376 157.28 333.376 155.588V149.468H331.576V148.46H333.376V146.408L334.6 145.688V148.46H337.696V149.468H334.6V155.624ZM346.563 158H345.447C345.303 157.478 345.195 156.848 345.195 156.128C344.709 157.244 343.467 158.144 341.919 158.144C340.227 158.144 338.949 157.046 338.949 155.408C338.949 153.446 340.713 152.42 342.675 152.42C343.449 152.42 344.205 152.51 344.979 152.78V151.52C344.979 150.278 344.223 149.432 342.747 149.432C341.559 149.432 340.551 149.954 340.047 151.412L338.967 151.088C339.687 149.072 341.145 148.316 342.819 148.316C345.177 148.316 346.167 149.738 346.167 151.376V155.3C346.167 156.38 346.347 157.352 346.563 158ZM344.979 154.04V153.824C344.241 153.518 343.485 153.428 342.747 153.428C341.307 153.428 340.173 154.076 340.173 155.336C340.173 156.488 340.983 157.1 342.135 157.1C343.377 157.1 344.979 156.362 344.979 154.04ZM355.002 158L351.492 153.266L350.322 154.382V158H349.098V144.68H350.322V152.942L354.858 148.46H356.478L352.32 152.456L356.55 158H355.002ZM359.963 155.624C359.963 156.74 360.629 157.064 361.223 157.064C361.799 157.064 362.177 156.848 362.627 156.38L363.275 157.1C362.645 157.838 361.961 158.144 361.115 158.144C359.819 158.144 358.739 157.28 358.739 155.588V149.468H356.939V148.46H358.739V146.408L359.963 145.688V148.46H363.059V149.468H359.963V155.624ZM374.685 158.144C371.517 158.144 368.925 155.534 368.925 151.268C368.925 147.074 371.517 144.536 374.685 144.536C377.853 144.536 380.445 147.074 380.445 151.268C380.445 155.534 377.853 158.144 374.685 158.144ZM374.685 156.956C377.097 156.956 379.149 155.03 379.149 151.268C379.149 147.434 377.169 145.724 374.685 145.724C372.201 145.724 370.221 147.434 370.221 151.268C370.221 155.03 372.273 156.956 374.685 156.956ZM382.053 150.944C382.053 149.432 383.475 148.316 385.473 148.316C387.201 148.316 388.533 149.144 388.929 150.404L387.921 150.8C387.543 149.882 386.661 149.396 385.437 149.396C384.105 149.396 383.241 149.954 383.241 150.836C383.241 151.628 383.763 152.114 384.897 152.348L386.157 152.6C388.245 153.014 389.217 153.914 389.217 155.336C389.217 156.992 387.741 158.144 385.617 158.144C383.691 158.144 382.341 157.388 381.693 155.948L382.737 155.516C383.187 156.524 384.177 157.064 385.581 157.064C387.057 157.064 388.029 156.416 388.029 155.444C388.029 154.544 387.525 154.058 386.265 153.788L384.717 153.464C382.971 153.104 382.053 152.222 382.053 150.944ZM394.415 157.964C394.127 158.036 393.893 158.072 393.623 158.072C392.129 158.072 391.427 157.136 391.427 155.732V144.68H392.651V155.732C392.651 156.542 393.083 156.956 393.839 156.956C394.037 156.956 394.235 156.938 394.415 156.884V157.964ZM399.802 158.144C397.444 158.144 395.554 156.2 395.554 153.212C395.554 150.26 397.426 148.316 399.802 148.316C402.178 148.316 404.05 150.26 404.05 153.212C404.05 156.2 402.16 158.144 399.802 158.144ZM399.802 157.064C401.44 157.064 402.79 155.768 402.79 153.212C402.79 150.674 401.422 149.396 399.802 149.396C398.182 149.396 396.814 150.674 396.814 153.212C396.814 155.768 398.164 157.064 399.802 157.064ZM416.683 158L413.173 153.266L412.003 154.382V158H410.779V144.68H412.003V152.942L416.539 148.46H418.159L414.001 152.456L418.231 158H416.683ZM423.003 158.144C420.645 158.144 418.755 156.2 418.755 153.212C418.755 150.26 420.627 148.316 423.003 148.316C425.379 148.316 427.251 150.26 427.251 153.212C427.251 156.2 425.361 158.144 423.003 158.144ZM423.003 157.064C424.641 157.064 425.991 155.768 425.991 153.212C425.991 150.674 424.623 149.396 423.003 149.396C421.383 149.396 420.015 150.674 420.015 153.212C420.015 155.768 421.365 157.064 423.003 157.064ZM439.042 148.316C440.86 148.316 441.922 149.468 441.922 151.448V158H440.698V151.628C440.698 150.08 439.96 149.432 438.718 149.432C437.044 149.432 436.342 150.728 436.342 152.636V158H435.118V151.628C435.118 150.08 434.38 149.432 433.138 149.432C431.464 149.432 430.762 150.728 430.762 152.636V158H429.538V148.46H430.762V149.954C431.338 148.892 432.346 148.316 433.462 148.316C434.884 148.316 435.838 149.018 436.18 150.26C436.72 149 437.818 148.316 439.042 148.316ZM454.17 148.316C455.988 148.316 457.05 149.468 457.05 151.448V158H455.826V151.628C455.826 150.08 455.088 149.432 453.846 149.432C452.172 149.432 451.47 150.728 451.47 152.636V158H450.246V151.628C450.246 150.08 449.508 149.432 448.266 149.432C446.592 149.432 445.89 150.728 445.89 152.636V158H444.666V148.46H445.89V149.954C446.466 148.892 447.474 148.316 448.59 148.316C450.012 148.316 450.966 149.018 451.308 150.26C451.848 149 452.946 148.316 454.17 148.316ZM465.338 148.46H466.562V158H465.338V156.542C464.762 157.568 463.754 158.144 462.584 158.144C460.712 158.144 459.578 156.938 459.578 154.868V148.46H460.802V154.76C460.802 156.326 461.594 157.046 462.926 157.046C464.618 157.046 465.338 155.696 465.338 153.824V148.46ZM473.381 148.316C475.289 148.316 476.405 149.486 476.405 151.628V158H475.181V151.808C475.181 150.08 474.389 149.432 473.057 149.432C471.383 149.432 470.609 150.728 470.609 152.636V158H469.385V148.46H470.609V149.936C471.185 148.892 472.229 148.316 473.381 148.316ZM485.668 155.3L486.568 155.804C486.118 156.956 484.93 158.144 482.806 158.144C480.124 158.144 478.54 156.146 478.54 153.104C478.54 150.314 480.196 148.316 482.68 148.316C484.732 148.316 486.496 149.792 486.496 152.384L486.46 153.446H479.782C479.89 155.984 481.096 157.064 482.932 157.064C484.372 157.064 485.218 156.236 485.668 155.3ZM482.68 149.396C481.24 149.396 479.944 150.17 479.782 152.438H485.29C485.344 150.296 484.084 149.396 482.68 149.396Z" fill="white"/>
<path fill-rule="evenodd" clip-rule="evenodd" d="M540.857 151.893L533.357 144.393L530.143 147.607L534.429 151.893L530.143 156.179L533.357 159.393L540.857 151.893ZM528 147.607L533.357 142.25L543 151.893L533.357 161.536L528 156.179L532.286 151.893L528 147.607Z" fill="white"/>
<path d="M559.796 144.68C562.586 144.68 564.26 146.39 564.26 148.784C564.26 151.178 562.496 152.816 559.706 152.816H556.844V158H555.584V144.68H559.796ZM559.85 151.7C561.902 151.7 562.964 150.656 562.964 148.784C562.964 146.912 561.902 145.832 559.85 145.832H556.844V151.7H559.85ZM572.112 155.3L573.012 155.804C572.562 156.956 571.374 158.144 569.25 158.144C566.568 158.144 564.984 156.146 564.984 153.104C564.984 150.314 566.64 148.316 569.124 148.316C571.176 148.316 572.94 149.792 572.94 152.384L572.904 153.446H566.226C566.334 155.984 567.54 157.064 569.376 157.064C570.816 157.064 571.662 156.236 572.112 155.3ZM569.124 149.396C567.684 149.396 566.388 150.17 566.226 152.438H571.734C571.788 150.296 570.528 149.396 569.124 149.396ZM578.748 148.316C579.99 148.316 580.89 149.144 580.89 150.764V151.7L579.774 151.916V150.98C579.774 150.026 579.45 149.396 578.478 149.396C577.38 149.396 576.552 150.206 576.552 152.132V158H575.328V148.46H576.552V149.648C577.056 148.748 577.902 148.316 578.748 148.316ZM582.289 150.944C582.289 149.432 583.711 148.316 585.709 148.316C587.437 148.316 588.769 149.144 589.165 150.404L588.157 150.8C587.779 149.882 586.897 149.396 585.673 149.396C584.341 149.396 583.477 149.954 583.477 150.836C583.477 151.628 583.999 152.114 585.133 152.348L586.393 152.6C588.481 153.014 589.453 153.914 589.453 155.336C589.453 156.992 587.977 158.144 585.853 158.144C583.927 158.144 582.577 157.388 581.929 155.948L582.973 155.516C583.423 156.524 584.413 157.064 585.817 157.064C587.293 157.064 588.265 156.416 588.265 155.444C588.265 154.544 587.761 154.058 586.501 153.788L584.953 153.464C583.207 153.104 582.289 152.222 582.289 150.944ZM595.298 158.144C592.94 158.144 591.05 156.2 591.05 153.212C591.05 150.26 592.922 148.316 595.298 148.316C597.674 148.316 599.546 150.26 599.546 153.212C599.546 156.2 597.656 158.144 595.298 158.144ZM595.298 157.064C596.936 157.064 598.286 155.768 598.286 153.212C598.286 150.674 596.918 149.396 595.298 149.396C593.678 149.396 592.31 150.674 592.31 153.212C592.31 155.768 593.66 157.064 595.298 157.064ZM605.829 148.316C607.737 148.316 608.853 149.486 608.853 151.628V158H607.629V151.808C607.629 150.08 606.837 149.432 605.505 149.432C603.831 149.432 603.057 150.728 603.057 152.636V158H601.833V148.46H603.057V149.936C603.633 148.892 604.677 148.316 605.829 148.316ZM617.508 148.46H618.768L615.024 158H613.944L610.2 148.46H611.532L614.52 156.65L617.508 148.46ZM626.6 155.3L627.5 155.804C627.05 156.956 625.862 158.144 623.738 158.144C621.056 158.144 619.472 156.146 619.472 153.104C619.472 150.314 621.128 148.316 623.612 148.316C625.664 148.316 627.428 149.792 627.428 152.384L627.392 153.446H620.714C620.822 155.984 622.028 157.064 623.864 157.064C625.304 157.064 626.15 156.236 626.6 155.3ZM623.612 149.396C622.172 149.396 620.876 150.17 620.714 152.438H626.222C626.276 150.296 625.016 149.396 623.612 149.396ZM633.235 148.316C634.477 148.316 635.377 149.144 635.377 150.764V151.7L634.261 151.916V150.98C634.261 150.026 633.937 149.396 632.965 149.396C631.867 149.396 631.039 150.206 631.039 152.132V158H629.815V148.46H631.039V149.648C631.543 148.748 632.389 148.316 633.235 148.316ZM641.592 148.316C643.5 148.316 644.616 149.486 644.616 151.628V158H643.392V151.808C643.392 150.08 642.6 149.432 641.268 149.432C639.594 149.432 638.82 150.728 638.82 152.636V158H637.596V148.46H638.82V149.936C639.396 148.892 640.44 148.316 641.592 148.316ZM655.404 158.144C653.046 158.144 651.156 156.2 651.156 153.212C651.156 150.26 653.028 148.316 655.404 148.316C657.78 148.316 659.652 150.26 659.652 153.212C659.652 156.2 657.762 158.144 655.404 158.144ZM655.404 157.064C657.042 157.064 658.392 155.768 658.392 153.212C658.392 150.674 657.024 149.396 655.404 149.396C653.784 149.396 652.416 150.674 652.416 153.212C652.416 155.768 653.766 157.064 655.404 157.064ZM669.962 149.468H667.91V149.81C668.378 150.386 668.63 151.106 668.63 151.808C668.63 153.554 667.37 155.336 664.688 155.336H664.274C663.194 155.336 662.42 155.75 662.42 156.38C662.42 156.866 662.798 157.208 663.59 157.208H667.46C669.008 157.208 669.8 157.964 669.8 159.152C669.8 161.042 667.622 162.032 664.94 162.032C662.528 162.032 660.854 161.258 660.278 159.584L661.268 159.134C661.934 160.7 663.338 161.006 664.94 161.006C666.92 161.006 668.576 160.412 668.576 159.26C668.576 158.72 668.288 158.324 667.424 158.324H663.32C661.988 158.324 661.196 157.694 661.196 156.704C661.196 155.858 661.898 155.12 663.068 154.814C661.808 154.31 661.106 152.978 661.106 151.808C661.106 150.098 662.384 148.316 664.904 148.316C665.894 148.316 666.65 148.64 667.226 149.126V148.46H669.962V149.468ZM664.886 154.328C666.578 154.328 667.424 153.158 667.424 151.808C667.424 150.476 666.578 149.36 664.886 149.36C663.176 149.36 662.312 150.494 662.312 151.808C662.312 153.14 663.176 154.328 664.886 154.328ZM676.688 146.732C676.094 146.732 675.608 146.264 675.608 145.652C675.608 145.04 676.094 144.572 676.688 144.572C677.282 144.572 677.768 145.04 677.768 145.652C677.768 146.264 677.282 146.732 676.688 146.732ZM676.076 158V148.46H677.3V158H676.076ZM684.196 148.316C686.104 148.316 687.22 149.486 687.22 151.628V158H685.996V151.808C685.996 150.08 685.204 149.432 683.872 149.432C682.198 149.432 681.424 150.728 681.424 152.636V158H680.2V148.46H681.424V149.936C682 148.892 683.044 148.316 684.196 148.316ZM691.875 147.128V148.46H694.539V149.468H691.875V158H690.651V149.468H688.851V148.46H690.651V147.128C690.651 145.472 691.731 144.536 693.207 144.536C693.891 144.536 694.683 144.806 695.133 145.526L694.395 146.264C694.107 145.832 693.675 145.58 693.171 145.58C692.541 145.58 691.875 145.958 691.875 147.128ZM699.292 158.144C696.934 158.144 695.044 156.2 695.044 153.212C695.044 150.26 696.916 148.316 699.292 148.316C701.668 148.316 703.54 150.26 703.54 153.212C703.54 156.2 701.65 158.144 699.292 158.144ZM699.292 157.064C700.93 157.064 702.28 155.768 702.28 153.212C702.28 150.674 700.912 149.396 699.292 149.396C697.672 149.396 696.304 150.674 696.304 153.212C696.304 155.768 697.654 157.064 699.292 157.064ZM709.247 148.316C710.489 148.316 711.389 149.144 711.389 150.764V151.7L710.273 151.916V150.98C710.273 150.026 709.949 149.396 708.977 149.396C707.879 149.396 707.051 150.206 707.051 152.132V158H705.827V148.46H707.051V149.648C707.555 148.748 708.401 148.316 709.247 148.316ZM723.111 148.316C724.929 148.316 725.991 149.468 725.991 151.448V158H724.767V151.628C724.767 150.08 724.029 149.432 722.787 149.432C721.113 149.432 720.411 150.728 720.411 152.636V158H719.187V151.628C719.187 150.08 718.449 149.432 717.207 149.432C715.533 149.432 714.831 150.728 714.831 152.636V158H713.607V148.46H714.831V149.954C715.407 148.892 716.415 148.316 717.531 148.316C718.953 148.316 719.907 149.018 720.249 150.26C720.789 149 721.887 148.316 723.111 148.316ZM735.846 158H734.73C734.586 157.478 734.478 156.848 734.478 156.128C733.992 157.244 732.75 158.144 731.202 158.144C729.51 158.144 728.232 157.046 728.232 155.408C728.232 153.446 729.996 152.42 731.958 152.42C732.732 152.42 733.488 152.51 734.262 152.78V151.52C734.262 150.278 733.506 149.432 732.03 149.432C730.842 149.432 729.833 149.954 729.33 151.412L728.25 151.088C728.97 149.072 730.428 148.316 732.102 148.316C734.46 148.316 735.45 149.738 735.45 151.376V155.3C735.45 156.38 735.63 157.352 735.846 158ZM734.262 154.04V153.824C733.524 153.518 732.768 153.428 732.03 153.428C730.59 153.428 729.456 154.076 729.456 155.336C729.456 156.488 730.266 157.1 731.418 157.1C732.66 157.1 734.262 156.362 734.262 154.04ZM737.876 150.944C737.876 149.432 739.298 148.316 741.296 148.316C743.024 148.316 744.356 149.144 744.752 150.404L743.744 150.8C743.366 149.882 742.484 149.396 741.26 149.396C739.928 149.396 739.064 149.954 739.064 150.836C739.064 151.628 739.586 152.114 740.72 152.348L741.98 152.6C744.068 153.014 745.04 153.914 745.04 155.336C745.04 156.992 743.564 158.144 741.44 158.144C739.514 158.144 738.164 157.388 737.516 155.948L738.56 155.516C739.01 156.524 740 157.064 741.404 157.064C742.88 157.064 743.852 156.416 743.852 155.444C743.852 154.544 743.348 154.058 742.088 153.788L740.54 153.464C738.794 153.104 737.876 152.222 737.876 150.944ZM746.854 144.752H748.726V146.588H746.854V144.752ZM746.35 161.906C746.026 161.906 745.72 161.852 745.414 161.762L745.522 160.682C745.774 160.772 746.008 160.79 746.17 160.79C747.016 160.79 747.178 160.214 747.178 159.386V148.46H748.402V159.458C748.402 161.078 747.7 161.906 746.35 161.906ZM754.939 158.144C752.581 158.144 750.691 156.2 750.691 153.212C750.691 150.26 752.563 148.316 754.939 148.316C757.315 148.316 759.187 150.26 759.187 153.212C759.187 156.2 757.297 158.144 754.939 158.144ZM754.939 157.064C756.577 157.064 757.927 155.768 757.927 153.212C757.927 150.674 756.559 149.396 754.939 149.396C753.319 149.396 751.951 150.674 751.951 153.212C751.951 155.768 753.301 157.064 754.939 157.064ZM765.471 148.316C767.379 148.316 768.495 149.486 768.495 151.628V158H767.271V151.808C767.271 150.08 766.479 149.432 765.147 149.432C763.473 149.432 762.699 150.728 762.699 152.636V158H761.475V148.46H762.699V149.936C763.275 148.892 764.319 148.316 765.471 148.316ZM770.773 150.944C770.773 149.432 772.195 148.316 774.193 148.316C775.921 148.316 777.253 149.144 777.649 150.404L776.641 150.8C776.263 149.882 775.381 149.396 774.157 149.396C772.825 149.396 771.961 149.954 771.961 150.836C771.961 151.628 772.483 152.114 773.617 152.348L774.877 152.6C776.965 153.014 777.937 153.914 777.937 155.336C777.937 156.992 776.461 158.144 774.337 158.144C772.411 158.144 771.061 157.388 770.413 155.948L771.457 155.516C771.907 156.524 772.897 157.064 774.301 157.064C775.777 157.064 776.749 156.416 776.749 155.444C776.749 154.544 776.245 154.058 774.985 153.788L773.437 153.464C771.691 153.104 770.773 152.222 770.773 150.944ZM786.087 158L782.577 153.266L781.407 154.382V158H780.183V144.68H781.407V152.942L785.943 148.46H787.563L783.405 152.456L787.635 158H786.087ZM795.881 158H794.765C794.621 157.478 794.513 156.848 794.513 156.128C794.027 157.244 792.785 158.144 791.237 158.144C789.545 158.144 788.267 157.046 788.267 155.408C788.267 153.446 790.031 152.42 791.993 152.42C792.767 152.42 793.523 152.51 794.297 152.78V151.52C794.297 150.278 793.541 149.432 792.065 149.432C790.877 149.432 789.869 149.954 789.365 151.412L788.285 151.088C789.005 149.072 790.463 148.316 792.137 148.316C794.495 148.316 795.485 149.738 795.485 151.376V155.3C795.485 156.38 795.665 157.352 795.881 158ZM794.297 154.04V153.824C793.559 153.518 792.803 153.428 792.065 153.428C790.625 153.428 789.491 154.076 789.491 155.336C789.491 156.488 790.301 157.1 791.453 157.1C792.695 157.1 794.297 156.362 794.297 154.04ZM802.736 148.334C805.166 148.334 806.804 150.368 806.804 153.14C806.804 156.074 805.148 158.144 802.592 158.144C801.26 158.144 800.18 157.478 799.604 156.272V161.78H798.38V148.46H799.604V150.242C800.234 149.018 801.494 148.334 802.736 148.334ZM802.592 157.064C804.374 157.064 805.544 155.696 805.544 153.194C805.544 150.782 804.374 149.414 802.61 149.414C800.702 149.414 799.604 150.836 799.604 153.176C799.604 155.66 800.684 157.064 802.592 157.064ZM808.628 150.944C808.628 149.432 810.05 148.316 812.048 148.316C813.776 148.316 815.108 149.144 815.504 150.404L814.496 150.8C814.118 149.882 813.236 149.396 812.012 149.396C810.68 149.396 809.816 149.954 809.816 150.836C809.816 151.628 810.338 152.114 811.472 152.348L812.732 152.6C814.82 153.014 815.792 153.914 815.792 155.336C815.792 156.992 814.316 158.144 812.192 158.144C810.266 158.144 808.916 157.388 808.268 155.948L809.312 155.516C809.762 156.524 810.752 157.064 812.156 157.064C813.632 157.064 814.604 156.416 814.604 155.444C814.604 154.544 814.1 154.058 812.84 153.788L811.292 153.464C809.546 153.104 808.628 152.222 808.628 150.944ZM820.989 157.964C820.701 158.036 820.467 158.072 820.197 158.072C818.703 158.072 818.001 157.136 818.001 155.732V144.68H819.225V155.732C819.225 156.542 819.657 156.956 820.413 156.956C820.611 156.956 820.809 156.938 820.989 156.884V157.964ZM829.257 155.3L830.157 155.804C829.707 156.956 828.519 158.144 826.395 158.144C823.713 158.144 822.129 156.146 822.129 153.104C822.129 150.314 823.785 148.316 826.269 148.316C828.321 148.316 830.085 149.792 830.085 152.384L830.049 153.446H823.371C823.479 155.984 824.685 157.064 826.521 157.064C827.961 157.064 828.807 156.236 829.257 155.3ZM826.269 149.396C824.829 149.396 823.533 150.17 823.371 152.438H828.879C828.933 150.296 827.673 149.396 826.269 149.396ZM835.892 148.316C837.134 148.316 838.034 149.144 838.034 150.764V151.7L836.918 151.916V150.98C836.918 150.026 836.594 149.396 835.622 149.396C834.524 149.396 833.696 150.206 833.696 152.132V158H832.472V148.46H833.696V149.648C834.2 148.748 835.046 148.316 835.892 148.316Z" fill="white"/>
<path fill-rule="evenodd" clip-rule="evenodd" d="M891.857 151.893L884.357 144.393L881.143 147.607L885.429 151.893L881.143 156.179L884.357 159.393L891.857 151.893ZM879 147.607L884.357 142.25L894 151.893L884.357 161.536L879 156.179L883.286 151.893L879 147.607Z" fill="white"/>
<path d="M907.844 156.812H914.036V158H906.584V144.68H907.844V156.812ZM922.11 155.3L923.01 155.804C922.56 156.956 921.372 158.144 919.248 158.144C916.566 158.144 914.982 156.146 914.982 153.104C914.982 150.314 916.638 148.316 919.122 148.316C921.174 148.316 922.938 149.792 922.938 152.384L922.902 153.446H916.224C916.332 155.984 917.538 157.064 919.374 157.064C920.814 157.064 921.66 156.236 922.11 155.3ZM919.122 149.396C917.682 149.396 916.386 150.17 916.224 152.438H921.732C921.786 150.296 920.526 149.396 919.122 149.396ZM929.322 148.316C931.23 148.316 932.346 149.486 932.346 151.628V158H931.122V151.808C931.122 150.08 930.33 149.432 928.998 149.432C927.324 149.432 926.55 150.728 926.55 152.636V158H925.326V148.46H926.55V149.936C927.126 148.892 928.17 148.316 929.322 148.316ZM941.033 158L937.523 153.266L936.353 154.382V158H935.129V144.68H936.353V152.942L940.889 148.46H942.509L938.351 152.456L942.581 158H941.033ZM950.233 155.3L951.133 155.804C950.683 156.956 949.495 158.144 947.371 158.144C944.689 158.144 943.105 156.146 943.105 153.104C943.105 150.314 944.761 148.316 947.245 148.316C949.297 148.316 951.061 149.792 951.061 152.384L951.025 153.446H944.347C944.455 155.984 945.661 157.064 947.497 157.064C948.937 157.064 949.783 156.236 950.233 155.3ZM947.245 149.396C945.805 149.396 944.509 150.17 944.347 152.438H949.855C949.909 150.296 948.649 149.396 947.245 149.396Z" fill="white"/>
<path fill-rule="evenodd" clip-rule="evenodd" d="M1005.86 151.893L998.357 144.393L995.143 147.607L999.429 151.893L995.143 156.179L998.357 159.393L1005.86 151.893ZM993 147.607L998.357 142.25L1008 151.893L998.357 161.536L993 156.179L997.286 151.893L993 147.607Z" fill="white"/>
<path d="M1021.84 156.812H1028.04V158H1020.58V144.68H1021.84V156.812ZM1036.11 155.3L1037.01 155.804C1036.56 156.956 1035.37 158.144 1033.25 158.144C1030.57 158.144 1028.98 156.146 1028.98 153.104C1028.98 150.314 1030.64 148.316 1033.12 148.316C1035.17 148.316 1036.94 149.792 1036.94 152.384L1036.9 153.446H1030.22C1030.33 155.984 1031.54 157.064 1033.37 157.064C1034.81 157.064 1035.66 156.236 1036.11 155.3ZM1033.12 149.396C1031.68 149.396 1030.39 150.17 1030.22 152.438H1035.73C1035.79 150.296 1034.53 149.396 1033.12 149.396ZM1043.32 148.316C1045.23 148.316 1046.35 149.486 1046.35 151.628V158H1045.12V151.808C1045.12 150.08 1044.33 149.432 1043 149.432C1041.32 149.432 1040.55 150.728 1040.55 152.636V158H1039.33V148.46H1040.55V149.936C1041.13 148.892 1042.17 148.316 1043.32 148.316ZM1055.03 158L1051.52 153.266L1050.35 154.382V158H1049.13V144.68H1050.35V152.942L1054.89 148.46H1056.51L1052.35 152.456L1056.58 158H1055.03ZM1064.23 155.3L1065.13 155.804C1064.68 156.956 1063.49 158.144 1061.37 158.144C1058.69 158.144 1057.1 156.146 1057.1 153.104C1057.1 150.314 1058.76 148.316 1061.24 148.316C1063.3 148.316 1065.06 149.792 1065.06 152.384L1065.02 153.446H1058.35C1058.45 155.984 1059.66 157.064 1061.5 157.064C1062.94 157.064 1063.78 156.236 1064.23 155.3ZM1061.24 149.396C1059.8 149.396 1058.51 150.17 1058.35 152.438H1063.85C1063.91 150.296 1062.65 149.396 1061.24 149.396Z" fill="white"/>
<path fill-rule="evenodd" clip-rule="evenodd" d="M1119.86 151.893L1112.36 144.393L1109.14 147.607L1113.43 151.893L1109.14 156.179L1112.36 159.393L1119.86 151.893ZM1107 147.607L1112.36 142.25L1122 151.893L1112.36 161.536L1107 156.179L1111.29 151.893L1107 147.607Z" fill="white"/>
<path d="M1135.84 156.812H1142.04V158H1134.58V144.68H1135.84V156.812ZM1150.11 155.3L1151.01 155.804C1150.56 156.956 1149.37 158.144 1147.25 158.144C1144.57 158.144 1142.98 156.146 1142.98 153.104C1142.98 150.314 1144.64 148.316 1147.12 148.316C1149.17 148.316 1150.94 149.792 1150.94 152.384L1150.9 153.446H1144.22C1144.33 155.984 1145.54 157.064 1147.37 157.064C1148.81 157.064 1149.66 156.236 1150.11 155.3ZM1147.12 149.396C1145.68 149.396 1144.39 150.17 1144.22 152.438H1149.73C1149.79 150.296 1148.53 149.396 1147.12 149.396ZM1157.32 148.316C1159.23 148.316 1160.35 149.486 1160.35 151.628V158H1159.12V151.808C1159.12 150.08 1158.33 149.432 1157 149.432C1155.32 149.432 1154.55 150.728 1154.55 152.636V158H1153.33V148.46H1154.55V149.936C1155.13 148.892 1156.17 148.316 1157.32 148.316ZM1169.03 158L1165.52 153.266L1164.35 154.382V158H1163.13V144.68H1164.35V152.942L1168.89 148.46H1170.51L1166.35 152.456L1170.58 158H1169.03ZM1178.23 155.3L1179.13 155.804C1178.68 156.956 1177.49 158.144 1175.37 158.144C1172.69 158.144 1171.1 156.146 1171.1 153.104C1171.1 150.314 1172.76 148.316 1175.24 148.316C1177.3 148.316 1179.06 149.792 1179.06 152.384L1179.02 153.446H1172.35C1172.45 155.984 1173.66 157.064 1175.5 157.064C1176.94 157.064 1177.78 156.236 1178.23 155.3ZM1175.24 149.396C1173.8 149.396 1172.51 150.17 1172.35 152.438H1177.85C1177.91 150.296 1176.65 149.396 1175.24 149.396Z" fill="white"/>
<g clip-path="url(#clip0_5110_157596)">
<rect x="37" y="153" width="48" height="1" fill="#6FE9FF"/>
<g clip-path="url(#clip1_5110_157596)">
<rect x="37" y="140" width="24" height="24" rx="12" fill="#6FE9FF"/>
<path d="M50.8302 146.818V157H48.6775V148.862H48.6178L46.2861 150.323V148.414L48.8067 146.818H50.8302Z" fill="#2A2859"/>
</g>
</g>
<g clip-path="url(#clip2_5110_157596)">
<rect x="383.5" y="52" width="1" height="86" fill="#6FE9FF"/>
<g clip-path="url(#clip3_5110_157596)">
<rect x="370.5" y="52" width="24" height="24" rx="12" fill="#6FE9FF"/>
<path d="M378.916 69V67.4489L382.54 64.093C382.849 63.7947 383.107 63.5263 383.316 63.2876C383.528 63.049 383.689 62.8153 383.798 62.5866C383.908 62.3546 383.962 62.1044 383.962 61.8359C383.962 61.5376 383.894 61.2808 383.758 61.0653C383.623 60.8466 383.437 60.6792 383.202 60.5632C382.966 60.4439 382.699 60.3842 382.401 60.3842C382.09 60.3842 381.818 60.4472 381.586 60.5732C381.354 60.6991 381.175 60.8797 381.049 61.1151C380.923 61.3504 380.86 61.6304 380.86 61.9553H378.817C378.817 61.2891 378.967 60.7107 379.269 60.2202C379.571 59.7296 379.993 59.3501 380.537 59.0817C381.08 58.8132 381.707 58.679 382.416 58.679C383.145 58.679 383.78 58.8082 384.32 59.0668C384.864 59.322 385.286 59.6766 385.588 60.1307C385.89 60.5848 386.04 61.1051 386.04 61.6918C386.04 62.0762 385.964 62.4557 385.812 62.8303C385.663 63.2048 385.396 63.6207 385.011 64.0781C384.627 64.5322 384.085 65.0774 383.386 65.7138L381.899 67.1705V67.2401H386.175V69H378.916Z" fill="#2A2859"/>
</g>
</g>
<g clip-path="url(#clip4_5110_157596)">
<rect x="683.5" y="52" width="1" height="86" fill="#6FE9FF"/>
<g clip-path="url(#clip5_5110_157596)">
<rect x="670.5" y="52" width="24" height="24" rx="12" fill="#6FE9FF"/>
<path d="M682.475 69.1392C681.732 69.1392 681.071 69.0116 680.491 68.7564C679.914 68.4979 679.458 68.1432 679.124 67.6925C678.792 67.2384 678.622 66.7147 678.612 66.1214H680.779C680.792 66.37 680.874 66.5888 681.023 66.7777C681.175 66.9633 681.377 67.1075 681.629 67.2102C681.881 67.313 682.165 67.3643 682.479 67.3643C682.808 67.3643 683.098 67.3063 683.35 67.1903C683.601 67.0743 683.799 66.9136 683.941 66.7081C684.084 66.5026 684.155 66.2656 684.155 65.9972C684.155 65.7254 684.079 65.4851 683.926 65.2763C683.777 65.0642 683.562 64.8984 683.28 64.7791C683.002 64.6598 682.67 64.6001 682.286 64.6001H681.336V63.0192H682.286C682.61 63.0192 682.897 62.9628 683.146 62.8501C683.398 62.7375 683.593 62.5817 683.732 62.3828C683.872 62.1806 683.941 61.9453 683.941 61.6768C683.941 61.4216 683.88 61.1979 683.757 61.0057C683.638 60.8101 683.469 60.6577 683.25 60.5483C683.035 60.4389 682.783 60.3842 682.494 60.3842C682.203 60.3842 681.936 60.4373 681.694 60.5433C681.452 60.6461 681.258 60.7936 681.112 60.9858C680.966 61.178 680.889 61.4034 680.879 61.6619H678.815C678.825 61.0753 678.993 60.5582 679.318 60.1108C679.642 59.6634 680.08 59.3137 680.63 59.0618C681.184 58.8066 681.808 58.679 682.504 58.679C683.207 58.679 683.822 58.8066 684.349 59.0618C684.876 59.317 685.285 59.6617 685.577 60.0959C685.872 60.5268 686.018 61.0107 686.014 61.5476C686.018 62.1177 685.84 62.5933 685.482 62.9744C685.128 63.3556 684.665 63.5975 684.095 63.7003V63.7798C684.844 63.8759 685.414 64.1361 685.805 64.5604C686.2 64.9813 686.395 65.5083 686.392 66.1413C686.395 66.7214 686.228 67.2367 685.89 67.6875C685.555 68.1383 685.093 68.4929 684.503 68.7514C683.913 69.0099 683.237 69.1392 682.475 69.1392Z" fill="#2A2859"/>
</g>
</g>
<g clip-path="url(#clip6_5110_157596)">
<rect x="914" y="52" width="1" height="86" fill="#6FE9FF"/>
<g clip-path="url(#clip7_5110_157596)">
<rect x="901" y="52" width="24" height="24" rx="12" fill="#6FE9FF"/>
<path d="M908.927 67.2102V65.5149L913.178 58.8182H914.639V61.1648H913.774L911.095 65.4055V65.4851H917.135V67.2102H908.927ZM913.814 69V66.6932L913.854 65.9425V58.8182H915.872V69H913.814Z" fill="#2A2859"/>
</g>
</g>
<g clip-path="url(#clip8_5110_157596)">
<rect x="1026" y="52" width="1" height="86" fill="#6FE9FF"/>
<g clip-path="url(#clip9_5110_157596)">
<rect x="1013" y="52" width="24" height="24" rx="12" fill="#6FE9FF"/>
<path d="M1025.03 69.1392C1024.33 69.1392 1023.7 69.0099 1023.15 68.7514C1022.61 68.4929 1022.17 68.1366 1021.85 67.6825C1021.53 67.2285 1021.36 66.7081 1021.35 66.1214H1023.44C1023.46 66.5159 1023.63 66.8357 1023.93 67.081C1024.24 67.3262 1024.61 67.4489 1025.03 67.4489C1025.37 67.4489 1025.67 67.3743 1025.93 67.2251C1026.19 67.0727 1026.39 66.8622 1026.54 66.5938C1026.69 66.322 1026.76 66.0104 1026.76 65.6591C1026.76 65.3011 1026.69 64.9863 1026.53 64.7145C1026.38 64.4427 1026.18 64.2306 1025.91 64.0781C1025.65 63.9257 1025.34 63.8478 1025 63.8445C1024.7 63.8445 1024.41 63.9058 1024.13 64.0284C1023.85 64.151 1023.64 64.3184 1023.48 64.5305L1021.57 64.1875L1022.05 58.8182H1028.27V60.5781H1023.82L1023.56 63.1286H1023.62C1023.8 62.8767 1024.07 62.6679 1024.43 62.5021C1024.79 62.3364 1025.2 62.2536 1025.64 62.2536C1026.26 62.2536 1026.8 62.3977 1027.28 62.6861C1027.77 62.9744 1028.14 63.3705 1028.42 63.8743C1028.7 64.3748 1028.84 64.9515 1028.84 65.6044C1028.84 66.2905 1028.68 66.9003 1028.36 67.4339C1028.04 67.9643 1027.59 68.3819 1027.02 68.6868C1026.45 68.9884 1025.79 69.1392 1025.03 69.1392Z" fill="#2A2859"/>
</g>
</g>
<g clip-path="url(#clip10_5110_157596)">
<rect x="1138" y="52" width="1" height="86" fill="#6FE9FF"/>
<g clip-path="url(#clip11_5110_157596)">
<rect x="1125" y="52" width="24" height="24" rx="12" fill="#6FE9FF"/>
<path d="M1137.11 69.1392C1136.59 69.1359 1136.08 69.0481 1135.6 68.8757C1135.11 68.7034 1134.68 68.4233 1134.29 68.0355C1133.91 67.6477 1133.6 67.134 1133.38 66.4943C1133.16 65.8546 1133.05 65.0691 1133.05 64.1378C1133.05 63.2827 1133.15 62.5187 1133.34 61.8459C1133.53 61.1697 1133.81 60.5964 1134.17 60.1257C1134.54 59.6551 1134.97 59.2971 1135.48 59.0518C1135.99 58.8033 1136.56 58.679 1137.19 58.679C1137.87 58.679 1138.47 58.8116 1138.99 59.0767C1139.51 59.3385 1139.92 59.6948 1140.24 60.1456C1140.56 60.5964 1140.75 61.1018 1140.82 61.6619H1138.69C1138.61 61.3073 1138.44 61.0289 1138.17 60.8267C1137.91 60.6245 1137.58 60.5234 1137.19 60.5234C1136.52 60.5234 1136.02 60.8118 1135.68 61.3885C1135.33 61.9652 1135.16 62.7491 1135.15 63.7401H1135.22C1135.38 63.4384 1135.58 63.1816 1135.84 62.9695C1136.1 62.754 1136.4 62.59 1136.73 62.4773C1137.06 62.3613 1137.42 62.3033 1137.79 62.3033C1138.39 62.3033 1138.93 62.4458 1139.4 62.7308C1139.87 63.0125 1140.24 63.4003 1140.51 63.8942C1140.78 64.388 1140.92 64.9531 1140.92 65.5895C1140.92 66.2789 1140.76 66.892 1140.44 67.429C1140.12 67.9659 1139.67 68.3868 1139.1 68.6918C1138.53 68.9934 1137.87 69.1425 1137.11 69.1392ZM1137.1 67.4489C1137.43 67.4489 1137.73 67.3693 1137.99 67.2102C1138.25 67.0511 1138.46 66.8357 1138.61 66.5639C1138.76 66.2921 1138.83 65.9872 1138.83 65.6491C1138.83 65.3111 1138.76 65.0078 1138.61 64.7393C1138.46 64.4709 1138.26 64.2571 1138 64.098C1137.74 63.9389 1137.45 63.8594 1137.12 63.8594C1136.87 63.8594 1136.64 63.9058 1136.43 63.9986C1136.22 64.0914 1136.03 64.2206 1135.87 64.3864C1135.72 64.5521 1135.6 64.7443 1135.51 64.9631C1135.42 65.1785 1135.37 65.4089 1135.37 65.6541C1135.37 65.9822 1135.45 66.2822 1135.6 66.554C1135.75 66.8258 1135.95 67.0429 1136.21 67.2053C1136.47 67.3677 1136.77 67.4489 1137.1 67.4489Z" fill="#2A2859"/>
</g>
</g>
<defs>
<clipPath id="clip0_5110_157596">
<rect width="48" height="24" fill="white" transform="translate(37 140)"/>
</clipPath>
<clipPath id="clip1_5110_157596">
<rect x="37" y="140" width="24" height="24" rx="12" fill="white"/>
</clipPath>
<clipPath id="clip2_5110_157596">
<rect width="24" height="86" fill="white" transform="translate(370.5 52)"/>
</clipPath>
<clipPath id="clip3_5110_157596">
<rect x="370.5" y="52" width="24" height="24" rx="12" fill="white"/>
</clipPath>
<clipPath id="clip4_5110_157596">
<rect width="24" height="86" fill="white" transform="translate(670.5 52)"/>
</clipPath>
<clipPath id="clip5_5110_157596">
<rect x="670.5" y="52" width="24" height="24" rx="12" fill="white"/>
</clipPath>
<clipPath id="clip6_5110_157596">
<rect width="24" height="86" fill="white" transform="translate(901 52)"/>
</clipPath>
<clipPath id="clip7_5110_157596">
<rect x="901" y="52" width="24" height="24" rx="12" fill="white"/>
</clipPath>
<clipPath id="clip8_5110_157596">
<rect width="24" height="86" fill="white" transform="translate(1013 52)"/>
</clipPath>
<clipPath id="clip9_5110_157596">
<rect x="1013" y="52" width="24" height="24" rx="12" fill="white"/>
</clipPath>
<clipPath id="clip10_5110_157596">
<rect width="24" height="86" fill="white" transform="translate(1125 52)"/>
</clipPath>
<clipPath id="clip11_5110_157596">
<rect x="1125" y="52" width="24" height="24" rx="12" fill="white"/>
</clipPath>
</defs>
</svg>
