<svg width="1680" height="827" viewBox="0 0 1680 827" fill="none" xmlns="http://www.w3.org/2000/svg">
<rect width="1680" height="827" fill="white"/>
<rect width="1280" height="336" transform="translate(200 338)" fill="#2A2859"/>
<path d="M268.48 422L262.84 413.864L260.896 415.928V422H258.088V404.24H260.896V412.424L268.384 404.24H271.84L264.64 411.944L271.936 422H268.48ZM278.117 422.24C274.805 422.24 272.093 419.648 272.093 415.568C272.093 411.584 274.781 408.992 278.117 408.992C281.453 408.992 284.141 411.584 284.141 415.568C284.141 419.648 281.429 422.24 278.117 422.24ZM278.117 419.96C279.917 419.96 281.381 418.568 281.381 415.568C281.381 412.544 279.893 411.272 278.117 411.272C276.341 411.272 274.853 412.544 274.853 415.568C274.853 418.568 276.341 419.96 278.117 419.96ZM293.436 408.992C296.028 408.992 297.564 410.672 297.564 413.432V422H294.876V413.864C294.876 412.112 294.036 411.32 292.572 411.32C290.676 411.32 289.716 412.64 289.716 415.112V422H287.028V409.28H289.716V411.104C290.58 409.76 291.852 408.992 293.436 408.992ZM304.725 418.064C304.725 419.48 305.589 419.912 306.477 419.912C307.173 419.912 307.725 419.624 308.277 419.072L309.429 420.8C308.469 421.76 307.413 422.216 306.045 422.216C303.837 422.216 302.037 420.872 302.037 418.232V411.368H299.805V409.28H302.037V406.448L304.725 405.224V409.28H309.213V411.368H304.725V418.064ZM321.72 422H319.248C319.056 421.352 318.936 420.584 318.888 419.6C318.288 420.92 316.944 422.216 314.736 422.216C312.432 422.216 310.8 420.656 310.8 418.448C310.8 415.688 313.248 414.32 315.984 414.32C316.848 414.32 317.664 414.392 318.552 414.632V413.432C318.552 412.064 317.688 411.176 316.128 411.176C314.664 411.176 313.632 411.968 313.152 413.456L310.872 412.76C311.784 410.072 313.968 408.992 316.248 408.992C319.632 408.992 321.168 410.984 321.168 413.408V418.328C321.168 419.84 321.408 421.184 321.72 422ZM318.552 416.744V416.456C317.784 416.192 317.04 416.096 316.248 416.096C314.664 416.096 313.44 416.816 313.44 418.208C313.44 419.384 314.28 420.128 315.552 420.128C316.848 420.128 318.552 419.36 318.552 416.744ZM333.023 422L329.159 416.168L327.695 417.608V422H325.007V404.24H327.695V414.56L332.831 409.28H336.143L330.935 414.416L336.239 422H333.023ZM341.625 418.064C341.625 419.48 342.489 419.912 343.377 419.912C344.073 419.912 344.625 419.624 345.177 419.072L346.329 420.8C345.369 421.76 344.313 422.216 342.945 422.216C340.737 422.216 338.937 420.872 338.937 418.232V411.368H336.705V409.28H338.937V406.448L341.625 405.224V409.28H346.113V411.368H341.625V418.064Z" fill="white"/>
<path fill-rule="evenodd" clip-rule="evenodd" d="M266.857 478.893L259.357 471.393L256.143 474.607L260.429 478.893L256.143 483.179L259.357 486.393L266.857 478.893ZM254 474.607L259.357 469.25L269 478.893L259.357 488.536L254 483.179L258.286 478.893L254 474.607Z" fill="white"/>
<path d="M289.432 484L284.41 477.628L282.844 479.266V484H281.584V470.68H282.844V477.646L289.342 470.68H290.98L285.238 476.746L291.052 484H289.432ZM295.39 484.144C293.032 484.144 291.142 482.2 291.142 479.212C291.142 476.26 293.014 474.316 295.39 474.316C297.766 474.316 299.638 476.26 299.638 479.212C299.638 482.2 297.748 484.144 295.39 484.144ZM295.39 483.064C297.028 483.064 298.378 481.768 298.378 479.212C298.378 476.674 297.01 475.396 295.39 475.396C293.77 475.396 292.402 476.674 292.402 479.212C292.402 481.768 293.752 483.064 295.39 483.064ZM305.921 474.316C307.829 474.316 308.945 475.486 308.945 477.628V484H307.721V477.808C307.721 476.08 306.929 475.432 305.597 475.432C303.923 475.432 303.149 476.728 303.149 478.636V484H301.925V474.46H303.149V475.936C303.725 474.892 304.769 474.316 305.921 474.316ZM313.6 481.624C313.6 482.74 314.266 483.064 314.86 483.064C315.436 483.064 315.814 482.848 316.264 482.38L316.912 483.1C316.282 483.838 315.598 484.144 314.752 484.144C313.456 484.144 312.376 483.28 312.376 481.588V475.468H310.576V474.46H312.376V472.408L313.6 471.688V474.46H316.696V475.468H313.6V481.624ZM325.563 484H324.447C324.303 483.478 324.195 482.848 324.195 482.128C323.709 483.244 322.467 484.144 320.919 484.144C319.227 484.144 317.949 483.046 317.949 481.408C317.949 479.446 319.713 478.42 321.675 478.42C322.449 478.42 323.205 478.51 323.979 478.78V477.52C323.979 476.278 323.223 475.432 321.747 475.432C320.559 475.432 319.551 475.954 319.047 477.412L317.967 477.088C318.687 475.072 320.145 474.316 321.819 474.316C324.177 474.316 325.167 475.738 325.167 477.376V481.3C325.167 482.38 325.347 483.352 325.563 484ZM323.979 480.04V479.824C323.241 479.518 322.485 479.428 321.747 479.428C320.307 479.428 319.173 480.076 319.173 481.336C319.173 482.488 319.983 483.1 321.135 483.1C322.377 483.1 323.979 482.362 323.979 480.04ZM334.002 484L330.492 479.266L329.322 480.382V484H328.098V470.68H329.322V478.942L333.858 474.46H335.478L331.32 478.456L335.55 484H334.002ZM338.963 481.624C338.963 482.74 339.629 483.064 340.223 483.064C340.799 483.064 341.177 482.848 341.627 482.38L342.275 483.1C341.645 483.838 340.961 484.144 340.115 484.144C338.819 484.144 337.739 483.28 337.739 481.588V475.468H335.939V474.46H337.739V472.408L338.963 471.688V474.46H342.059V475.468H338.963V481.624ZM353.685 484.144C350.517 484.144 347.925 481.534 347.925 477.268C347.925 473.074 350.517 470.536 353.685 470.536C356.853 470.536 359.445 473.074 359.445 477.268C359.445 481.534 356.853 484.144 353.685 484.144ZM353.685 482.956C356.097 482.956 358.149 481.03 358.149 477.268C358.149 473.434 356.169 471.724 353.685 471.724C351.201 471.724 349.221 473.434 349.221 477.268C349.221 481.03 351.273 482.956 353.685 482.956ZM361.053 476.944C361.053 475.432 362.475 474.316 364.473 474.316C366.201 474.316 367.533 475.144 367.929 476.404L366.921 476.8C366.543 475.882 365.661 475.396 364.437 475.396C363.105 475.396 362.241 475.954 362.241 476.836C362.241 477.628 362.763 478.114 363.897 478.348L365.157 478.6C367.245 479.014 368.217 479.914 368.217 481.336C368.217 482.992 366.741 484.144 364.617 484.144C362.691 484.144 361.341 483.388 360.693 481.948L361.737 481.516C362.187 482.524 363.177 483.064 364.581 483.064C366.057 483.064 367.029 482.416 367.029 481.444C367.029 480.544 366.525 480.058 365.265 479.788L363.717 479.464C361.971 479.104 361.053 478.222 361.053 476.944ZM373.415 483.964C373.127 484.036 372.893 484.072 372.623 484.072C371.129 484.072 370.427 483.136 370.427 481.732V470.68H371.651V481.732C371.651 482.542 372.083 482.956 372.839 482.956C373.037 482.956 373.235 482.938 373.415 482.884V483.964ZM378.802 484.144C376.444 484.144 374.554 482.2 374.554 479.212C374.554 476.26 376.426 474.316 378.802 474.316C381.178 474.316 383.05 476.26 383.05 479.212C383.05 482.2 381.16 484.144 378.802 484.144ZM378.802 483.064C380.44 483.064 381.79 481.768 381.79 479.212C381.79 476.674 380.422 475.396 378.802 475.396C377.182 475.396 375.814 476.674 375.814 479.212C375.814 481.768 377.164 483.064 378.802 483.064ZM395.683 484L392.173 479.266L391.003 480.382V484H389.779V470.68H391.003V478.942L395.539 474.46H397.159L393.001 478.456L397.231 484H395.683ZM402.003 484.144C399.645 484.144 397.755 482.2 397.755 479.212C397.755 476.26 399.627 474.316 402.003 474.316C404.379 474.316 406.251 476.26 406.251 479.212C406.251 482.2 404.361 484.144 402.003 484.144ZM402.003 483.064C403.641 483.064 404.991 481.768 404.991 479.212C404.991 476.674 403.623 475.396 402.003 475.396C400.383 475.396 399.015 476.674 399.015 479.212C399.015 481.768 400.365 483.064 402.003 483.064ZM418.042 474.316C419.86 474.316 420.922 475.468 420.922 477.448V484H419.698V477.628C419.698 476.08 418.96 475.432 417.718 475.432C416.044 475.432 415.342 476.728 415.342 478.636V484H414.118V477.628C414.118 476.08 413.38 475.432 412.138 475.432C410.464 475.432 409.762 476.728 409.762 478.636V484H408.538V474.46H409.762V475.954C410.338 474.892 411.346 474.316 412.462 474.316C413.884 474.316 414.838 475.018 415.18 476.26C415.72 475 416.818 474.316 418.042 474.316ZM433.17 474.316C434.988 474.316 436.05 475.468 436.05 477.448V484H434.826V477.628C434.826 476.08 434.088 475.432 432.846 475.432C431.172 475.432 430.47 476.728 430.47 478.636V484H429.246V477.628C429.246 476.08 428.508 475.432 427.266 475.432C425.592 475.432 424.89 476.728 424.89 478.636V484H423.666V474.46H424.89V475.954C425.466 474.892 426.474 474.316 427.59 474.316C429.012 474.316 429.966 475.018 430.308 476.26C430.848 475 431.946 474.316 433.17 474.316ZM444.338 474.46H445.562V484H444.338V482.542C443.762 483.568 442.754 484.144 441.584 484.144C439.712 484.144 438.578 482.938 438.578 480.868V474.46H439.802V480.76C439.802 482.326 440.594 483.046 441.926 483.046C443.618 483.046 444.338 481.696 444.338 479.824V474.46ZM452.381 474.316C454.289 474.316 455.405 475.486 455.405 477.628V484H454.181V477.808C454.181 476.08 453.389 475.432 452.057 475.432C450.383 475.432 449.609 476.728 449.609 478.636V484H448.385V474.46H449.609V475.936C450.185 474.892 451.229 474.316 452.381 474.316ZM464.668 481.3L465.568 481.804C465.118 482.956 463.93 484.144 461.806 484.144C459.124 484.144 457.54 482.146 457.54 479.104C457.54 476.314 459.196 474.316 461.68 474.316C463.732 474.316 465.496 475.792 465.496 478.384L465.46 479.446H458.782C458.89 481.984 460.096 483.064 461.932 483.064C463.372 483.064 464.218 482.236 464.668 481.3ZM461.68 475.396C460.24 475.396 458.944 476.17 458.782 478.438H464.29C464.344 476.296 463.084 475.396 461.68 475.396Z" fill="white"/>
<path fill-rule="evenodd" clip-rule="evenodd" d="M266.857 522.893L259.357 515.393L256.143 518.607L260.429 522.893L256.143 527.179L259.357 530.393L266.857 522.893ZM254 518.607L259.357 513.25L269 522.893L259.357 532.536L254 527.179L258.286 522.893L254 518.607Z" fill="white"/>
<path d="M282.844 528H281.584V514.68H289.432V515.868H282.844V520.944H288.208V522.132H282.844V528ZM291.575 516.732C290.981 516.732 290.495 516.264 290.495 515.652C290.495 515.04 290.981 514.572 291.575 514.572C292.169 514.572 292.655 515.04 292.655 515.652C292.655 516.264 292.169 516.732 291.575 516.732ZM290.963 528V518.46H292.187V528H290.963ZM299.083 518.316C300.991 518.316 302.107 519.486 302.107 521.628V528H300.883V521.808C300.883 520.08 300.091 519.432 298.759 519.432C297.085 519.432 296.311 520.728 296.311 522.636V528H295.087V518.46H296.311V519.936C296.887 518.892 297.931 518.316 299.083 518.316ZM308.85 518.316C310.758 518.316 311.874 519.486 311.874 521.628V528H310.65V521.808C310.65 520.08 309.858 519.432 308.526 519.432C306.852 519.432 306.078 520.728 306.078 522.636V528H304.854V518.46H306.078V519.936C306.654 518.892 307.698 518.316 308.85 518.316ZM325.543 525.3L326.443 525.804C325.993 526.956 324.805 528.144 322.681 528.144C319.999 528.144 318.415 526.146 318.415 523.104C318.415 520.314 320.071 518.316 322.555 518.316C324.607 518.316 326.371 519.792 326.371 522.384L326.335 523.446H319.657C319.765 525.984 320.971 527.064 322.807 527.064C324.247 527.064 325.093 526.236 325.543 525.3ZM322.555 519.396C321.115 519.396 319.819 520.17 319.657 522.438H325.165C325.219 520.296 323.959 519.396 322.555 519.396ZM332.754 518.316C334.662 518.316 335.778 519.486 335.778 521.628V528H334.554V521.808C334.554 520.08 333.762 519.432 332.43 519.432C330.756 519.432 329.982 520.728 329.982 522.636V528H328.758V518.46H329.982V519.936C330.558 518.892 331.602 518.316 332.754 518.316ZM350.04 528H348.924C348.78 527.478 348.672 526.848 348.672 526.128C348.186 527.244 346.944 528.144 345.396 528.144C343.704 528.144 342.426 527.046 342.426 525.408C342.426 523.446 344.19 522.42 346.152 522.42C346.926 522.42 347.682 522.51 348.456 522.78V521.52C348.456 520.278 347.7 519.432 346.224 519.432C345.036 519.432 344.028 519.954 343.524 521.412L342.444 521.088C343.164 519.072 344.622 518.316 346.296 518.316C348.654 518.316 349.644 519.738 349.644 521.376V525.3C349.644 526.38 349.824 527.352 350.04 528ZM348.456 524.04V523.824C347.718 523.518 346.962 523.428 346.224 523.428C344.784 523.428 343.65 524.076 343.65 525.336C343.65 526.488 344.46 527.1 345.612 527.1C346.854 527.1 348.456 526.362 348.456 524.04ZM356.535 518.316C358.443 518.316 359.559 519.486 359.559 521.628V528H358.335V521.808C358.335 520.08 357.543 519.432 356.211 519.432C354.537 519.432 353.763 520.728 353.763 522.636V528H352.539V518.46H353.763V519.936C354.339 518.892 355.383 518.316 356.535 518.316ZM361.838 520.944C361.838 519.432 363.26 518.316 365.258 518.316C366.986 518.316 368.318 519.144 368.714 520.404L367.706 520.8C367.328 519.882 366.446 519.396 365.222 519.396C363.89 519.396 363.026 519.954 363.026 520.836C363.026 521.628 363.548 522.114 364.682 522.348L365.942 522.6C368.03 523.014 369.002 523.914 369.002 525.336C369.002 526.992 367.526 528.144 365.402 528.144C363.476 528.144 362.126 527.388 361.478 525.948L362.522 525.516C362.972 526.524 363.962 527.064 365.366 527.064C366.842 527.064 367.814 526.416 367.814 525.444C367.814 524.544 367.31 524.058 366.05 523.788L364.502 523.464C362.756 523.104 361.838 522.222 361.838 520.944ZM377.97 528H376.854C376.71 527.478 376.602 526.848 376.602 526.128C376.116 527.244 374.874 528.144 373.326 528.144C371.634 528.144 370.356 527.046 370.356 525.408C370.356 523.446 372.12 522.42 374.082 522.42C374.856 522.42 375.612 522.51 376.386 522.78V521.52C376.386 520.278 375.63 519.432 374.154 519.432C372.966 519.432 371.958 519.954 371.454 521.412L370.374 521.088C371.094 519.072 372.552 518.316 374.226 518.316C376.584 518.316 377.574 519.738 377.574 521.376V525.3C377.574 526.38 377.754 527.352 377.97 528ZM376.386 524.04V523.824C375.648 523.518 374.892 523.428 374.154 523.428C372.714 523.428 371.58 524.076 371.58 525.336C371.58 526.488 372.39 527.1 373.542 527.1C374.784 527.1 376.386 526.362 376.386 524.04ZM382.201 525.624C382.201 526.74 382.867 527.064 383.461 527.064C384.037 527.064 384.415 526.848 384.865 526.38L385.513 527.1C384.883 527.838 384.199 528.144 383.353 528.144C382.057 528.144 380.977 527.28 380.977 525.588V519.468H379.177V518.46H380.977V516.408L382.201 515.688V518.46H385.297V519.468H382.201V525.624ZM388.961 525.624C388.961 526.74 389.627 527.064 390.221 527.064C390.797 527.064 391.175 526.848 391.625 526.38L392.273 527.1C391.643 527.838 390.959 528.144 390.113 528.144C388.817 528.144 387.737 527.28 387.737 525.588V519.468H385.937V518.46H387.737V516.408L388.961 515.688V518.46H392.057V519.468H388.961V525.624Z" fill="white"/>
<path d="M742.652 417.056V404.24H745.46V416.984C745.46 420.416 743.444 422.216 740.492 422.216C738.308 422.216 736.82 421.232 735.884 419.648L737.78 418.112C738.404 419.072 739.124 419.672 740.348 419.672C741.74 419.672 742.652 418.784 742.652 417.056ZM754.171 422.24C750.859 422.24 748.147 419.648 748.147 415.568C748.147 411.584 750.835 408.992 754.171 408.992C757.507 408.992 760.195 411.584 760.195 415.568C760.195 419.648 757.483 422.24 754.171 422.24ZM754.171 419.96C755.971 419.96 757.435 418.568 757.435 415.568C757.435 412.544 755.947 411.272 754.171 411.272C752.395 411.272 750.907 412.544 750.907 415.568C750.907 418.568 752.395 419.96 754.171 419.96ZM769.779 409.016C772.851 409.016 775.059 411.632 775.059 415.52C775.059 419.504 772.827 422.192 769.467 422.192C768.003 422.192 766.587 421.544 765.771 419.96V422H763.083V404.24H765.771V411.56C766.755 409.76 768.315 409.016 769.779 409.016ZM769.059 419.984C770.907 419.984 772.275 418.496 772.275 415.64C772.275 412.784 770.907 411.32 769.059 411.32C767.091 411.32 765.771 412.664 765.771 415.616C765.771 418.568 767.091 419.984 769.059 419.984ZM784.649 409.016C787.721 409.016 789.929 411.632 789.929 415.52C789.929 419.504 787.697 422.192 784.337 422.192C782.873 422.192 781.457 421.544 780.641 419.96V422H777.953V404.24H780.641V411.56C781.625 409.76 783.185 409.016 784.649 409.016ZM783.929 419.984C785.777 419.984 787.145 418.496 787.145 415.64C787.145 412.784 785.777 411.32 783.929 411.32C781.961 411.32 780.641 412.664 780.641 415.616C780.641 418.568 781.961 419.984 783.929 419.984ZM800.108 407.168C799.052 407.168 798.212 406.352 798.212 405.272C798.212 404.192 799.052 403.376 800.108 403.376C801.164 403.376 801.98 404.192 801.98 405.272C801.98 406.352 801.164 407.168 800.108 407.168ZM798.764 422V409.28H801.452V422H798.764ZM818.502 422.24C814.086 422.24 810.51 418.832 810.51 412.952C810.51 407.408 814.086 404 818.502 404C822.918 404 826.494 407.408 826.494 412.952C826.494 418.832 822.918 422.24 818.502 422.24ZM818.502 419.6C821.238 419.6 823.566 417.464 823.566 412.976C823.566 408.608 821.31 406.64 818.502 406.64C815.694 406.64 813.438 408.608 813.438 412.976C813.438 417.464 815.766 419.6 818.502 419.6ZM828.594 412.784C828.594 410.624 830.586 408.992 833.586 408.992C836.058 408.992 837.714 409.88 838.602 411.584L836.73 412.736C836.154 411.752 835.002 411.152 833.562 411.152C832.122 411.152 831.138 411.704 831.138 412.616C831.138 413.36 831.642 413.816 832.77 414.032L834.906 414.464C837.594 414.992 838.938 416.264 838.938 418.208C838.938 420.608 836.85 422.216 833.706 422.216C831.042 422.216 829.146 421.208 828.162 419.36L830.034 418.184C830.73 419.36 831.954 420.032 833.634 420.032C835.266 420.032 836.37 419.384 836.37 418.328C836.37 417.464 835.842 416.984 834.666 416.744L832.314 416.288C829.914 415.832 828.594 414.608 828.594 412.784ZM846.881 421.928C846.377 422.072 845.873 422.144 845.345 422.144C842.921 422.144 841.769 420.704 841.769 418.376V404.24H844.457V418.184C844.457 419.288 845.105 419.792 846.089 419.792C846.329 419.792 846.593 419.768 846.881 419.696V421.928ZM854.465 422.24C851.153 422.24 848.441 419.648 848.441 415.568C848.441 411.584 851.129 408.992 854.465 408.992C857.801 408.992 860.489 411.584 860.489 415.568C860.489 419.648 857.777 422.24 854.465 422.24ZM854.465 419.96C856.265 419.96 857.729 418.568 857.729 415.568C857.729 412.544 856.241 411.272 854.465 411.272C852.689 411.272 851.201 412.544 851.201 415.568C851.201 418.568 852.689 419.96 854.465 419.96ZM877.333 422L873.469 416.168L872.005 417.608V422H869.317V404.24H872.005V414.56L877.141 409.28H880.453L875.245 414.416L880.549 422H877.333ZM887.24 422.24C883.928 422.24 881.216 419.648 881.216 415.568C881.216 411.584 883.904 408.992 887.24 408.992C890.576 408.992 893.264 411.584 893.264 415.568C893.264 419.648 890.552 422.24 887.24 422.24ZM887.24 419.96C889.04 419.96 890.504 418.568 890.504 415.568C890.504 412.544 889.016 411.272 887.24 411.272C885.464 411.272 883.976 412.544 883.976 415.568C883.976 418.568 885.464 419.96 887.24 419.96ZM910.168 408.992C912.712 408.992 914.176 410.648 914.176 413.312V422H911.488V413.768C911.488 412.088 910.696 411.32 909.304 411.32C907.432 411.32 906.496 412.616 906.496 415.112V422H903.808V413.768C903.808 412.088 903.016 411.32 901.624 411.32C899.776 411.32 898.84 412.616 898.84 415.112V422H896.152V409.28H898.84V411.08C899.704 409.712 900.952 408.992 902.488 408.992C904.432 408.992 905.704 409.928 906.256 411.512C907.12 409.832 908.464 408.992 910.168 408.992ZM931.929 408.992C934.473 408.992 935.937 410.648 935.937 413.312V422H933.249V413.768C933.249 412.088 932.457 411.32 931.065 411.32C929.193 411.32 928.257 412.616 928.257 415.112V422H925.569V413.768C925.569 412.088 924.777 411.32 923.385 411.32C921.537 411.32 920.601 412.616 920.601 415.112V422H917.913V409.28H920.601V411.08C921.465 409.712 922.713 408.992 924.249 408.992C926.193 408.992 927.465 409.928 928.017 411.512C928.881 409.832 930.225 408.992 931.929 408.992ZM947.045 409.28H949.733V422H947.045V420.128C946.229 421.52 944.957 422.216 943.397 422.216C940.781 422.216 939.269 420.536 939.269 417.776V409.28H941.957V417.368C941.957 419.024 942.773 419.912 944.237 419.912C946.109 419.912 947.045 418.568 947.045 416.096V409.28ZM959.757 408.992C962.349 408.992 963.885 410.672 963.885 413.432V422H961.197V413.864C961.197 412.112 960.357 411.32 958.893 411.32C956.997 411.32 956.037 412.64 956.037 415.112V422H953.349V409.28H956.037V411.104C956.901 409.76 958.173 408.992 959.757 408.992ZM976.322 417.992L978.146 419.048C977.426 420.632 975.746 422.216 972.842 422.216C969.074 422.216 966.794 419.432 966.794 415.52C966.794 411.656 969.266 408.992 972.65 408.992C975.65 408.992 978.122 411.008 978.122 414.608L978.074 416.192H969.434C969.578 418.88 970.898 420.032 973.01 420.032C974.57 420.032 975.65 419.192 976.322 417.992ZM972.65 411.104C971.018 411.104 969.65 411.968 969.434 414.272H975.506C975.53 412.016 974.138 411.104 972.65 411.104Z" fill="white"/>
<path fill-rule="evenodd" clip-rule="evenodd" d="M746.357 478.893L738.857 471.393L735.643 474.607L739.929 478.893L735.643 483.179L738.857 486.393L746.357 478.893ZM733.5 474.607L738.857 469.25L748.5 478.893L738.857 488.536L733.5 483.179L737.786 478.893L733.5 474.607Z" fill="white"/>
<path d="M762.344 482.812H768.536V484H761.084V470.68H762.344V482.812ZM776.61 481.3L777.51 481.804C777.06 482.956 775.872 484.144 773.748 484.144C771.066 484.144 769.482 482.146 769.482 479.104C769.482 476.314 771.138 474.316 773.622 474.316C775.674 474.316 777.438 475.792 777.438 478.384L777.402 479.446H770.724C770.832 481.984 772.038 483.064 773.874 483.064C775.314 483.064 776.16 482.236 776.61 481.3ZM773.622 475.396C772.182 475.396 770.886 476.17 770.724 478.438H776.232C776.286 476.296 775.026 475.396 773.622 475.396ZM786.414 470.68H787.638V484H786.414V482.218C785.784 483.442 784.524 484.126 783.282 484.126C780.852 484.126 779.214 482.092 779.214 479.32C779.214 476.386 780.87 474.316 783.426 474.316C784.758 474.316 785.838 474.982 786.414 476.188V470.68ZM783.408 483.046C785.316 483.046 786.414 481.624 786.414 479.284C786.414 476.8 785.334 475.396 783.426 475.396C781.644 475.396 780.474 476.764 780.474 479.266C780.474 481.678 781.644 483.046 783.408 483.046ZM791.066 472.732C790.472 472.732 789.986 472.264 789.986 471.652C789.986 471.04 790.472 470.572 791.066 470.572C791.66 470.572 792.146 471.04 792.146 471.652C792.146 472.264 791.66 472.732 791.066 472.732ZM790.454 484V474.46H791.678V484H790.454ZM803.146 475.468H801.094V475.81C801.562 476.386 801.814 477.106 801.814 477.808C801.814 479.554 800.554 481.336 797.872 481.336H797.458C796.378 481.336 795.604 481.75 795.604 482.38C795.604 482.866 795.982 483.208 796.774 483.208H800.644C802.192 483.208 802.984 483.964 802.984 485.152C802.984 487.042 800.806 488.032 798.124 488.032C795.712 488.032 794.038 487.258 793.462 485.584L794.452 485.134C795.118 486.7 796.522 487.006 798.124 487.006C800.104 487.006 801.76 486.412 801.76 485.26C801.76 484.72 801.472 484.324 800.608 484.324H796.504C795.172 484.324 794.38 483.694 794.38 482.704C794.38 481.858 795.082 481.12 796.252 480.814C794.992 480.31 794.29 478.978 794.29 477.808C794.29 476.098 795.568 474.316 798.088 474.316C799.078 474.316 799.834 474.64 800.41 475.126V474.46H803.146V475.468ZM798.07 480.328C799.762 480.328 800.608 479.158 800.608 477.808C800.608 476.476 799.762 475.36 798.07 475.36C796.36 475.36 795.496 476.494 795.496 477.808C795.496 479.14 796.36 480.328 798.07 480.328ZM810.65 481.3L811.55 481.804C811.1 482.956 809.912 484.144 807.788 484.144C805.106 484.144 803.522 482.146 803.522 479.104C803.522 476.314 805.178 474.316 807.662 474.316C809.714 474.316 811.478 475.792 811.478 478.384L811.442 479.446H804.764C804.872 481.984 806.078 483.064 807.914 483.064C809.354 483.064 810.2 482.236 810.65 481.3ZM807.662 475.396C806.222 475.396 804.926 476.17 804.764 478.438H810.272C810.326 476.296 809.066 475.396 807.662 475.396ZM817.803 476.944C817.803 475.432 819.225 474.316 821.223 474.316C822.951 474.316 824.283 475.144 824.679 476.404L823.671 476.8C823.293 475.882 822.411 475.396 821.187 475.396C819.855 475.396 818.991 475.954 818.991 476.836C818.991 477.628 819.513 478.114 820.647 478.348L821.907 478.6C823.995 479.014 824.967 479.914 824.967 481.336C824.967 482.992 823.491 484.144 821.367 484.144C819.441 484.144 818.091 483.388 817.443 481.948L818.487 481.516C818.937 482.524 819.927 483.064 821.331 483.064C822.807 483.064 823.779 482.416 823.779 481.444C823.779 480.544 823.275 480.058 822.015 479.788L820.467 479.464C818.721 479.104 817.803 478.222 817.803 476.944ZM828.909 481.624C828.909 482.74 829.575 483.064 830.169 483.064C830.745 483.064 831.123 482.848 831.573 482.38L832.221 483.1C831.591 483.838 830.907 484.144 830.061 484.144C828.765 484.144 827.685 483.28 827.685 481.588V475.468H825.885V474.46H827.685V472.408L828.909 471.688V474.46H832.005V475.468H828.909V481.624ZM833.789 470.752H835.661V472.588H833.789V470.752ZM834.113 484V474.46H835.337V484H834.113ZM841.225 483.964C840.937 484.036 840.703 484.072 840.433 484.072C838.939 484.072 838.237 483.136 838.237 481.732V470.68H839.461V481.732C839.461 482.542 839.893 482.956 840.649 482.956C840.847 482.956 841.045 482.938 841.225 482.884V483.964ZM846.246 483.964C845.958 484.036 845.724 484.072 845.454 484.072C843.96 484.072 843.258 483.136 843.258 481.732V470.68H844.482V481.732C844.482 482.542 844.914 482.956 845.67 482.956C845.868 482.956 846.066 482.938 846.246 482.884V483.964ZM848.891 472.732C848.297 472.732 847.811 472.264 847.811 471.652C847.811 471.04 848.297 470.572 848.891 470.572C849.485 470.572 849.971 471.04 849.971 471.652C849.971 472.264 849.485 472.732 848.891 472.732ZM848.279 484V474.46H849.503V484H848.279ZM856.399 474.316C858.307 474.316 859.423 475.486 859.423 477.628V484H858.199V477.808C858.199 476.08 857.407 475.432 856.075 475.432C854.401 475.432 853.627 476.728 853.627 478.636V484H852.403V474.46H853.627V475.936C854.203 474.892 855.247 474.316 856.399 474.316ZM870.738 475.468H868.686V475.81C869.154 476.386 869.406 477.106 869.406 477.808C869.406 479.554 868.146 481.336 865.464 481.336H865.05C863.97 481.336 863.196 481.75 863.196 482.38C863.196 482.866 863.574 483.208 864.366 483.208H868.236C869.784 483.208 870.576 483.964 870.576 485.152C870.576 487.042 868.398 488.032 865.716 488.032C863.304 488.032 861.63 487.258 861.054 485.584L862.044 485.134C862.71 486.7 864.114 487.006 865.716 487.006C867.696 487.006 869.352 486.412 869.352 485.26C869.352 484.72 869.064 484.324 868.2 484.324H864.096C862.764 484.324 861.972 483.694 861.972 482.704C861.972 481.858 862.674 481.12 863.844 480.814C862.584 480.31 861.882 478.978 861.882 477.808C861.882 476.098 863.16 474.316 865.68 474.316C866.67 474.316 867.426 474.64 868.002 475.126V474.46H870.738V475.468ZM865.662 480.328C867.354 480.328 868.2 479.158 868.2 477.808C868.2 476.476 867.354 475.36 865.662 475.36C863.952 475.36 863.088 476.494 863.088 477.808C863.088 479.14 863.952 480.328 865.662 480.328ZM878.242 481.3L879.142 481.804C878.692 482.956 877.504 484.144 875.38 484.144C872.698 484.144 871.114 482.146 871.114 479.104C871.114 476.314 872.77 474.316 875.254 474.316C877.306 474.316 879.07 475.792 879.07 478.384L879.034 479.446H872.356C872.464 481.984 873.67 483.064 875.506 483.064C876.946 483.064 877.792 482.236 878.242 481.3ZM875.254 475.396C873.814 475.396 872.518 476.17 872.356 478.438H877.864C877.918 476.296 876.658 475.396 875.254 475.396ZM884.877 474.316C886.119 474.316 887.019 475.144 887.019 476.764V477.7L885.903 477.916V476.98C885.903 476.026 885.579 475.396 884.607 475.396C883.509 475.396 882.681 476.206 882.681 478.132V484H881.457V474.46H882.681V475.648C883.185 474.748 884.031 474.316 884.877 474.316Z" fill="white"/>
<path d="M913.772 482.832V484.377H903.227V473.885H904.772V472.385H903.227V472.377H901.727V485.877H915.272V482.832H913.772Z" fill="white"/>
<path fill-rule="evenodd" clip-rule="evenodd" d="M910 472.37V473.87H912.715L907.27 479.33L908.305 480.372L913.757 474.905V477.627H915.272V472.37H910Z" fill="white"/>
<path fill-rule="evenodd" clip-rule="evenodd" d="M746.357 522.893L738.857 515.393L735.643 518.607L739.929 522.893L735.643 527.179L738.857 530.393L746.357 522.893ZM733.5 518.607L738.857 513.25L748.5 522.893L738.857 532.536L733.5 527.179L737.786 522.893L733.5 518.607Z" fill="white"/>
<path d="M762.344 526.812H768.536V528H761.084V514.68H762.344V526.812ZM776.232 519.18C777.294 520.026 777.978 521.43 777.978 523.212C777.978 526.2 776.088 528.144 773.73 528.144C773.064 528.144 772.434 527.982 771.876 527.694L771.282 528.864H770.418L771.228 527.28C770.166 526.434 769.482 525.012 769.482 523.212C769.482 520.26 771.354 518.316 773.73 518.316C774.396 518.316 775.026 518.478 775.584 518.748L776.178 517.596H777.042L776.232 519.18ZM770.742 523.212C770.742 524.598 771.138 525.606 771.75 526.254L775.08 519.738C774.666 519.504 774.216 519.396 773.73 519.396C772.11 519.396 770.742 520.674 770.742 523.212ZM773.73 527.064C775.368 527.064 776.718 525.768 776.718 523.212C776.718 521.844 776.322 520.854 775.71 520.206L772.38 526.722C772.776 526.956 773.244 527.064 773.73 527.064ZM784.261 518.316C786.169 518.316 787.285 519.486 787.285 521.628V528H786.061V521.808C786.061 520.08 785.269 519.432 783.937 519.432C782.263 519.432 781.489 520.728 781.489 522.636V528H780.265V518.46H781.489V519.936C782.065 518.892 783.109 518.316 784.261 518.316ZM794.028 518.316C795.936 518.316 797.052 519.486 797.052 521.628V528H795.828V521.808C795.828 520.08 795.036 519.432 793.704 519.432C792.03 519.432 791.256 520.728 791.256 522.636V528H790.032V518.46H791.256V519.936C791.832 518.892 792.876 518.316 794.028 518.316ZM807.84 528.144C805.482 528.144 803.592 526.2 803.592 523.212C803.592 520.26 805.464 518.316 807.84 518.316C810.216 518.316 812.088 520.26 812.088 523.212C812.088 526.2 810.198 528.144 807.84 528.144ZM807.84 527.064C809.478 527.064 810.828 525.768 810.828 523.212C810.828 520.674 809.46 519.396 807.84 519.396C806.22 519.396 804.852 520.674 804.852 523.212C804.852 525.768 806.202 527.064 807.84 527.064ZM822.398 519.468H820.346V519.81C820.814 520.386 821.066 521.106 821.066 521.808C821.066 523.554 819.806 525.336 817.124 525.336H816.71C815.63 525.336 814.856 525.75 814.856 526.38C814.856 526.866 815.234 527.208 816.026 527.208H819.896C821.444 527.208 822.236 527.964 822.236 529.152C822.236 531.042 820.058 532.032 817.376 532.032C814.964 532.032 813.29 531.258 812.714 529.584L813.704 529.134C814.37 530.7 815.774 531.006 817.376 531.006C819.356 531.006 821.012 530.412 821.012 529.26C821.012 528.72 820.724 528.324 819.86 528.324H815.756C814.424 528.324 813.632 527.694 813.632 526.704C813.632 525.858 814.334 525.12 815.504 524.814C814.244 524.31 813.542 522.978 813.542 521.808C813.542 520.098 814.82 518.316 817.34 518.316C818.33 518.316 819.086 518.64 819.662 519.126V518.46H822.398V519.468ZM817.322 524.328C819.014 524.328 819.86 523.158 819.86 521.808C819.86 520.476 819.014 519.36 817.322 519.36C815.612 519.36 814.748 520.494 814.748 521.808C814.748 523.14 815.612 524.328 817.322 524.328ZM835.622 528H834.506C834.362 527.478 834.254 526.848 834.254 526.128C833.768 527.244 832.526 528.144 830.978 528.144C829.286 528.144 828.008 527.046 828.008 525.408C828.008 523.446 829.772 522.42 831.734 522.42C832.508 522.42 833.264 522.51 834.038 522.78V521.52C834.038 520.278 833.282 519.432 831.806 519.432C830.618 519.432 829.61 519.954 829.106 521.412L828.026 521.088C828.746 519.072 830.204 518.316 831.878 518.316C834.236 518.316 835.226 519.738 835.226 521.376V525.3C835.226 526.38 835.406 527.352 835.622 528ZM834.038 524.04V523.824C833.3 523.518 832.544 523.428 831.806 523.428C830.366 523.428 829.232 524.076 829.232 525.336C829.232 526.488 830.042 527.1 831.194 527.1C832.436 527.1 834.038 526.362 834.038 524.04ZM841.541 518.316C842.783 518.316 843.683 519.144 843.683 520.764V521.7L842.567 521.916V520.98C842.567 520.026 842.243 519.396 841.271 519.396C840.173 519.396 839.345 520.206 839.345 522.132V528H838.121V518.46H839.345V519.648C839.849 518.748 840.695 518.316 841.541 518.316ZM850.294 518.334C852.724 518.334 854.362 520.368 854.362 523.14C854.362 526.074 852.706 528.144 850.15 528.144C848.818 528.144 847.738 527.478 847.162 526.272V528H845.938V514.68H847.162V520.242C847.792 519.018 849.052 518.334 850.294 518.334ZM850.15 527.064C851.932 527.064 853.102 525.696 853.102 523.194C853.102 520.782 851.932 519.414 850.168 519.414C848.26 519.414 847.162 520.836 847.162 523.176C847.162 525.66 848.242 527.064 850.15 527.064ZM863.169 525.3L864.069 525.804C863.619 526.956 862.431 528.144 860.307 528.144C857.625 528.144 856.041 526.146 856.041 523.104C856.041 520.314 857.697 518.316 860.181 518.316C862.233 518.316 863.997 519.792 863.997 522.384L863.961 523.446H857.283C857.391 525.984 858.597 527.064 860.433 527.064C861.873 527.064 862.719 526.236 863.169 525.3ZM860.181 519.396C858.741 519.396 857.445 520.17 857.283 522.438H862.791C862.845 520.296 861.585 519.396 860.181 519.396ZM866.996 516.732C866.402 516.732 865.916 516.264 865.916 515.652C865.916 515.04 866.402 514.572 866.996 514.572C867.59 514.572 868.076 515.04 868.076 515.652C868.076 516.264 867.59 516.732 866.996 516.732ZM866.384 528V518.46H867.608V528H866.384ZM877.097 514.68H878.321V528H877.097V526.218C876.467 527.442 875.207 528.126 873.965 528.126C871.535 528.126 869.897 526.092 869.897 523.32C869.897 520.386 871.553 518.316 874.109 518.316C875.441 518.316 876.521 518.982 877.097 520.188V514.68ZM874.091 527.046C875.999 527.046 877.097 525.624 877.097 523.284C877.097 520.8 876.017 519.396 874.109 519.396C872.327 519.396 871.157 520.764 871.157 523.266C871.157 525.678 872.327 527.046 874.091 527.046ZM880.669 520.944C880.669 519.432 882.091 518.316 884.089 518.316C885.817 518.316 887.149 519.144 887.545 520.404L886.537 520.8C886.159 519.882 885.277 519.396 884.053 519.396C882.721 519.396 881.857 519.954 881.857 520.836C881.857 521.628 882.379 522.114 883.513 522.348L884.773 522.6C886.861 523.014 887.833 523.914 887.833 525.336C887.833 526.992 886.357 528.144 884.233 528.144C882.307 528.144 880.957 527.388 880.309 525.948L881.353 525.516C881.803 526.524 882.793 527.064 884.197 527.064C885.673 527.064 886.645 526.416 886.645 525.444C886.645 524.544 886.141 524.058 884.881 523.788L883.333 523.464C881.587 523.104 880.669 522.222 880.669 520.944ZM891.774 517.128V518.46H894.438V519.468H891.774V528H890.55V519.468H888.75V518.46H890.55V517.128C890.55 515.472 891.63 514.536 893.106 514.536C893.79 514.536 894.582 514.806 895.032 515.526L894.294 516.264C894.006 515.832 893.574 515.58 893.07 515.58C892.44 515.58 891.774 515.958 891.774 517.128ZM899.191 528.144C896.833 528.144 894.943 526.2 894.943 523.212C894.943 520.26 896.815 518.316 899.191 518.316C901.567 518.316 903.439 520.26 903.439 523.212C903.439 526.2 901.549 528.144 899.191 528.144ZM899.191 527.064C900.829 527.064 902.179 525.768 902.179 523.212C902.179 520.674 900.811 519.396 899.191 519.396C897.571 519.396 896.203 520.674 896.203 523.212C896.203 525.768 897.553 527.064 899.191 527.064ZM909.146 518.316C910.388 518.316 911.288 519.144 911.288 520.764V521.7L910.172 521.916V520.98C910.172 520.026 909.848 519.396 908.876 519.396C907.778 519.396 906.95 520.206 906.95 522.132V528H905.726V518.46H906.95V519.648C907.454 518.748 908.3 518.316 909.146 518.316ZM917.539 518.316C919.447 518.316 920.563 519.486 920.563 521.628V528H919.339V521.808C919.339 520.08 918.547 519.432 917.215 519.432C915.541 519.432 914.767 520.728 914.767 522.636V528H913.543V514.68H914.767V519.936C915.343 518.892 916.387 518.316 917.539 518.316ZM926.945 528.144C924.587 528.144 922.697 526.2 922.697 523.212C922.697 520.26 924.569 518.316 926.945 518.316C929.321 518.316 931.193 520.26 931.193 523.212C931.193 526.2 929.303 528.144 926.945 528.144ZM926.945 527.064C928.583 527.064 929.933 525.768 929.933 523.212C929.933 520.674 928.565 519.396 926.945 519.396C925.325 519.396 923.957 520.674 923.957 523.212C923.957 525.768 925.307 527.064 926.945 527.064ZM936.468 527.964C936.18 528.036 935.946 528.072 935.676 528.072C934.182 528.072 933.48 527.136 933.48 525.732V514.68H934.704V525.732C934.704 526.542 935.136 526.956 935.892 526.956C936.09 526.956 936.288 526.938 936.468 526.884V527.964ZM944.807 514.68H946.031V528H944.807V526.218C944.177 527.442 942.917 528.126 941.675 528.126C939.245 528.126 937.607 526.092 937.607 523.32C937.607 520.386 939.263 518.316 941.819 518.316C943.151 518.316 944.231 518.982 944.807 520.188V514.68ZM941.801 527.046C943.709 527.046 944.807 525.624 944.807 523.284C944.807 520.8 943.727 519.396 941.819 519.396C940.037 519.396 938.867 520.764 938.867 523.266C938.867 525.678 940.037 527.046 941.801 527.046Z" fill="white"/>
<path d="M1132.14 422.24C1127.73 422.24 1124.15 418.832 1124.15 412.952C1124.15 407.408 1127.73 404 1132.14 404C1136.56 404 1140.14 407.408 1140.14 412.952C1140.14 418.832 1136.56 422.24 1132.14 422.24ZM1132.14 419.6C1134.88 419.6 1137.21 417.464 1137.21 412.976C1137.21 408.608 1134.95 406.64 1132.14 406.64C1129.34 406.64 1127.08 408.608 1127.08 412.976C1127.08 417.464 1129.41 419.6 1132.14 419.6ZM1157.04 408.992C1159.59 408.992 1161.05 410.648 1161.05 413.312V422H1158.36V413.768C1158.36 412.088 1157.57 411.32 1156.18 411.32C1154.31 411.32 1153.37 412.616 1153.37 415.112V422H1150.68V413.768C1150.68 412.088 1149.89 411.32 1148.5 411.32C1146.65 411.32 1145.71 412.616 1145.71 415.112V422H1143.03V409.28H1145.71V411.08C1146.58 409.712 1147.83 408.992 1149.36 408.992C1151.31 408.992 1152.58 409.928 1153.13 411.512C1153.99 409.832 1155.34 408.992 1157.04 408.992ZM1177.13 408.992C1179.73 408.992 1181.26 410.672 1181.26 413.432V422H1178.57V413.864C1178.57 412.112 1177.73 411.32 1176.27 411.32C1174.37 411.32 1173.41 412.64 1173.41 415.112V422H1170.73V409.28H1173.41V411.104C1174.28 409.76 1175.55 408.992 1177.13 408.992ZM1193.7 417.992L1195.52 419.048C1194.8 420.632 1193.12 422.216 1190.22 422.216C1186.45 422.216 1184.17 419.432 1184.17 415.52C1184.17 411.656 1186.64 408.992 1190.03 408.992C1193.03 408.992 1195.5 411.008 1195.5 414.608L1195.45 416.192H1186.81C1186.96 418.88 1188.28 420.032 1190.39 420.032C1191.95 420.032 1193.03 419.192 1193.7 417.992ZM1190.03 411.104C1188.4 411.104 1187.03 411.968 1186.81 414.272H1192.88C1192.91 412.016 1191.52 411.104 1190.03 411.104ZM1201.98 418.064C1201.98 419.48 1202.85 419.912 1203.73 419.912C1204.43 419.912 1204.98 419.624 1205.53 419.072L1206.69 420.8C1205.73 421.76 1204.67 422.216 1203.3 422.216C1201.09 422.216 1199.29 420.872 1199.29 418.232V411.368H1197.06V409.28H1199.29V406.448L1201.98 405.224V409.28H1206.47V411.368H1201.98V418.064ZM1212.47 418.064C1212.47 419.48 1213.33 419.912 1214.22 419.912C1214.92 419.912 1215.47 419.624 1216.02 419.072L1217.17 420.8C1216.21 421.76 1215.16 422.216 1213.79 422.216C1211.58 422.216 1209.78 420.872 1209.78 418.232V411.368H1207.55V409.28H1209.78V406.448L1212.47 405.224V409.28H1216.96V411.368H1212.47V418.064ZM1218.54 412.784C1218.54 410.624 1220.54 408.992 1223.54 408.992C1226.01 408.992 1227.66 409.88 1228.55 411.584L1226.68 412.736C1226.1 411.752 1224.95 411.152 1223.51 411.152C1222.07 411.152 1221.09 411.704 1221.09 412.616C1221.09 413.36 1221.59 413.816 1222.72 414.032L1224.86 414.464C1227.54 414.992 1228.89 416.264 1228.89 418.208C1228.89 420.608 1226.8 422.216 1223.66 422.216C1220.99 422.216 1219.1 421.208 1218.11 419.36L1219.98 418.184C1220.68 419.36 1221.9 420.032 1223.58 420.032C1225.22 420.032 1226.32 419.384 1226.32 418.328C1226.32 417.464 1225.79 416.984 1224.62 416.744L1222.26 416.288C1219.86 415.832 1218.54 414.608 1218.54 412.784ZM1235.08 418.064C1235.08 419.48 1235.95 419.912 1236.84 419.912C1237.53 419.912 1238.08 419.624 1238.64 419.072L1239.79 420.8C1238.83 421.76 1237.77 422.216 1236.4 422.216C1234.2 422.216 1232.4 420.872 1232.4 418.232V411.368H1230.16V409.28H1232.4V406.448L1235.08 405.224V409.28H1239.57V411.368H1235.08V418.064ZM1250.31 417.992L1252.13 419.048C1251.41 420.632 1249.73 422.216 1246.83 422.216C1243.06 422.216 1240.78 419.432 1240.78 415.52C1240.78 411.656 1243.25 408.992 1246.64 408.992C1249.64 408.992 1252.11 411.008 1252.11 414.608L1252.06 416.192H1243.42C1243.57 418.88 1244.89 420.032 1247 420.032C1248.56 420.032 1249.64 419.192 1250.31 417.992ZM1246.64 411.104C1245.01 411.104 1243.64 411.968 1243.42 414.272H1249.49C1249.52 412.016 1248.13 411.104 1246.64 411.104ZM1263.7 404.24H1266.39V422H1263.7V419.696C1262.71 421.472 1261.18 422.192 1259.71 422.192C1256.64 422.192 1254.43 419.552 1254.43 415.688C1254.43 411.68 1256.67 409.016 1260.03 409.016C1261.47 409.016 1262.91 409.664 1263.7 411.224V404.24ZM1260.43 419.84C1262.38 419.84 1263.7 418.52 1263.7 415.544C1263.7 412.592 1262.4 411.176 1260.43 411.176C1258.59 411.176 1257.22 412.664 1257.22 415.544C1257.22 418.4 1258.59 419.84 1260.43 419.84ZM1278.71 417.992L1280.54 419.048C1279.82 420.632 1278.14 422.216 1275.23 422.216C1271.47 422.216 1269.19 419.432 1269.19 415.52C1269.19 411.656 1271.66 408.992 1275.04 408.992C1278.04 408.992 1280.51 411.008 1280.51 414.608L1280.47 416.192H1271.83C1271.97 418.88 1273.29 420.032 1275.4 420.032C1276.96 420.032 1278.04 419.192 1278.71 417.992ZM1275.04 411.104C1273.41 411.104 1272.04 411.968 1271.83 414.272H1277.9C1277.92 412.016 1276.53 411.104 1275.04 411.104ZM1287 418.064C1287 419.48 1287.86 419.912 1288.75 419.912C1289.44 419.912 1290 419.624 1290.55 419.072L1291.7 420.8C1290.74 421.76 1289.68 422.216 1288.32 422.216C1286.11 422.216 1284.31 420.872 1284.31 418.232V411.368H1282.08V409.28H1284.31V406.448L1287 405.224V409.28H1291.48V411.368H1287V418.064Z" fill="white"/>
<path fill-rule="evenodd" clip-rule="evenodd" d="M1133.86 478.893L1126.36 471.393L1123.14 474.607L1127.43 478.893L1123.14 483.179L1126.36 486.393L1133.86 478.893ZM1121 474.607L1126.36 469.25L1136 478.893L1126.36 488.536L1121 483.179L1125.29 478.893L1121 474.607Z" fill="white"/>
<path d="M1152.8 470.68C1155.59 470.68 1157.26 472.39 1157.26 474.784C1157.26 477.178 1155.5 478.816 1152.71 478.816H1149.84V484H1148.58V470.68H1152.8ZM1152.85 477.7C1154.9 477.7 1155.96 476.656 1155.96 474.784C1155.96 472.912 1154.9 471.832 1152.85 471.832H1149.84V477.7H1152.85ZM1165.11 481.3L1166.01 481.804C1165.56 482.956 1164.37 484.144 1162.25 484.144C1159.57 484.144 1157.98 482.146 1157.98 479.104C1157.98 476.314 1159.64 474.316 1162.12 474.316C1164.18 474.316 1165.94 475.792 1165.94 478.384L1165.9 479.446H1159.23C1159.33 481.984 1160.54 483.064 1162.38 483.064C1163.82 483.064 1164.66 482.236 1165.11 481.3ZM1162.12 475.396C1160.68 475.396 1159.39 476.17 1159.23 478.438H1164.73C1164.79 476.296 1163.53 475.396 1162.12 475.396ZM1171.75 474.316C1172.99 474.316 1173.89 475.144 1173.89 476.764V477.7L1172.77 477.916V476.98C1172.77 476.026 1172.45 475.396 1171.48 475.396C1170.38 475.396 1169.55 476.206 1169.55 478.132V484H1168.33V474.46H1169.55V475.648C1170.06 474.748 1170.9 474.316 1171.75 474.316ZM1175.29 476.944C1175.29 475.432 1176.71 474.316 1178.71 474.316C1180.44 474.316 1181.77 475.144 1182.16 476.404L1181.16 476.8C1180.78 475.882 1179.9 475.396 1178.67 475.396C1177.34 475.396 1176.48 475.954 1176.48 476.836C1176.48 477.628 1177 478.114 1178.13 478.348L1179.39 478.6C1181.48 479.014 1182.45 479.914 1182.45 481.336C1182.45 482.992 1180.98 484.144 1178.85 484.144C1176.93 484.144 1175.58 483.388 1174.93 481.948L1175.97 481.516C1176.42 482.524 1177.41 483.064 1178.82 483.064C1180.29 483.064 1181.26 482.416 1181.26 481.444C1181.26 480.544 1180.76 480.058 1179.5 479.788L1177.95 479.464C1176.21 479.104 1175.29 478.222 1175.29 476.944ZM1188.3 484.144C1185.94 484.144 1184.05 482.2 1184.05 479.212C1184.05 476.26 1185.92 474.316 1188.3 474.316C1190.67 474.316 1192.55 476.26 1192.55 479.212C1192.55 482.2 1190.66 484.144 1188.3 484.144ZM1188.3 483.064C1189.94 483.064 1191.29 481.768 1191.29 479.212C1191.29 476.674 1189.92 475.396 1188.3 475.396C1186.68 475.396 1185.31 476.674 1185.31 479.212C1185.31 481.768 1186.66 483.064 1188.3 483.064ZM1198.83 474.316C1200.74 474.316 1201.85 475.486 1201.85 477.628V484H1200.63V477.808C1200.63 476.08 1199.84 475.432 1198.51 475.432C1196.83 475.432 1196.06 476.728 1196.06 478.636V484H1194.83V474.46H1196.06V475.936C1196.63 474.892 1197.68 474.316 1198.83 474.316ZM1210.51 474.46H1211.77L1208.02 484H1206.94L1203.2 474.46H1204.53L1207.52 482.65L1210.51 474.46ZM1219.6 481.3L1220.5 481.804C1220.05 482.956 1218.86 484.144 1216.74 484.144C1214.06 484.144 1212.47 482.146 1212.47 479.104C1212.47 476.314 1214.13 474.316 1216.61 474.316C1218.66 474.316 1220.43 475.792 1220.43 478.384L1220.39 479.446H1213.71C1213.82 481.984 1215.03 483.064 1216.86 483.064C1218.3 483.064 1219.15 482.236 1219.6 481.3ZM1216.61 475.396C1215.17 475.396 1213.88 476.17 1213.71 478.438H1219.22C1219.28 476.296 1218.02 475.396 1216.61 475.396ZM1226.24 474.316C1227.48 474.316 1228.38 475.144 1228.38 476.764V477.7L1227.26 477.916V476.98C1227.26 476.026 1226.94 475.396 1225.97 475.396C1224.87 475.396 1224.04 476.206 1224.04 478.132V484H1222.82V474.46H1224.04V475.648C1224.54 474.748 1225.39 474.316 1226.24 474.316ZM1234.59 474.316C1236.5 474.316 1237.62 475.486 1237.62 477.628V484H1236.39V477.808C1236.39 476.08 1235.6 475.432 1234.27 475.432C1232.59 475.432 1231.82 476.728 1231.82 478.636V484H1230.6V474.46H1231.82V475.936C1232.4 474.892 1233.44 474.316 1234.59 474.316ZM1248.4 484.144C1246.05 484.144 1244.16 482.2 1244.16 479.212C1244.16 476.26 1246.03 474.316 1248.4 474.316C1250.78 474.316 1252.65 476.26 1252.65 479.212C1252.65 482.2 1250.76 484.144 1248.4 484.144ZM1248.4 483.064C1250.04 483.064 1251.39 481.768 1251.39 479.212C1251.39 476.674 1250.02 475.396 1248.4 475.396C1246.78 475.396 1245.42 476.674 1245.42 479.212C1245.42 481.768 1246.77 483.064 1248.4 483.064ZM1262.96 475.468H1260.91V475.81C1261.38 476.386 1261.63 477.106 1261.63 477.808C1261.63 479.554 1260.37 481.336 1257.69 481.336H1257.27C1256.19 481.336 1255.42 481.75 1255.42 482.38C1255.42 482.866 1255.8 483.208 1256.59 483.208H1260.46C1262.01 483.208 1262.8 483.964 1262.8 485.152C1262.8 487.042 1260.62 488.032 1257.94 488.032C1255.53 488.032 1253.85 487.258 1253.28 485.584L1254.27 485.134C1254.93 486.7 1256.34 487.006 1257.94 487.006C1259.92 487.006 1261.58 486.412 1261.58 485.26C1261.58 484.72 1261.29 484.324 1260.42 484.324H1256.32C1254.99 484.324 1254.2 483.694 1254.2 482.704C1254.2 481.858 1254.9 481.12 1256.07 480.814C1254.81 480.31 1254.11 478.978 1254.11 477.808C1254.11 476.098 1255.38 474.316 1257.9 474.316C1258.89 474.316 1259.65 474.64 1260.23 475.126V474.46H1262.96V475.468ZM1257.89 480.328C1259.58 480.328 1260.42 479.158 1260.42 477.808C1260.42 476.476 1259.58 475.36 1257.89 475.36C1256.18 475.36 1255.31 476.494 1255.31 477.808C1255.31 479.14 1256.18 480.328 1257.89 480.328ZM1269.69 472.732C1269.09 472.732 1268.61 472.264 1268.61 471.652C1268.61 471.04 1269.09 470.572 1269.69 470.572C1270.28 470.572 1270.77 471.04 1270.77 471.652C1270.77 472.264 1270.28 472.732 1269.69 472.732ZM1269.08 484V474.46H1270.3V484H1269.08ZM1277.2 474.316C1279.1 474.316 1280.22 475.486 1280.22 477.628V484H1279V477.808C1279 476.08 1278.2 475.432 1276.87 475.432C1275.2 475.432 1274.42 476.728 1274.42 478.636V484H1273.2V474.46H1274.42V475.936C1275 474.892 1276.04 474.316 1277.2 474.316ZM1284.88 473.128V474.46H1287.54V475.468H1284.88V484H1283.65V475.468H1281.85V474.46H1283.65V473.128C1283.65 471.472 1284.73 470.536 1286.21 470.536C1286.89 470.536 1287.68 470.806 1288.13 471.526L1287.4 472.264C1287.11 471.832 1286.68 471.58 1286.17 471.58C1285.54 471.58 1284.88 471.958 1284.88 473.128ZM1292.29 484.144C1289.93 484.144 1288.04 482.2 1288.04 479.212C1288.04 476.26 1289.92 474.316 1292.29 474.316C1294.67 474.316 1296.54 476.26 1296.54 479.212C1296.54 482.2 1294.65 484.144 1292.29 484.144ZM1292.29 483.064C1293.93 483.064 1295.28 481.768 1295.28 479.212C1295.28 476.674 1293.91 475.396 1292.29 475.396C1290.67 475.396 1289.3 476.674 1289.3 479.212C1289.3 481.768 1290.65 483.064 1292.29 483.064ZM1302.25 474.316C1303.49 474.316 1304.39 475.144 1304.39 476.764V477.7L1303.27 477.916V476.98C1303.27 476.026 1302.95 475.396 1301.98 475.396C1300.88 475.396 1300.05 476.206 1300.05 478.132V484H1298.83V474.46H1300.05V475.648C1300.55 474.748 1301.4 474.316 1302.25 474.316ZM1316.11 474.316C1317.93 474.316 1318.99 475.468 1318.99 477.448V484H1317.77V477.628C1317.77 476.08 1317.03 475.432 1315.79 475.432C1314.11 475.432 1313.41 476.728 1313.41 478.636V484H1312.19V477.628C1312.19 476.08 1311.45 475.432 1310.21 475.432C1308.53 475.432 1307.83 476.728 1307.83 478.636V484H1306.61V474.46H1307.83V475.954C1308.41 474.892 1309.42 474.316 1310.53 474.316C1311.95 474.316 1312.91 475.018 1313.25 476.26C1313.79 475 1314.89 474.316 1316.11 474.316ZM1328.85 484H1327.73C1327.59 483.478 1327.48 482.848 1327.48 482.128C1326.99 483.244 1325.75 484.144 1324.2 484.144C1322.51 484.144 1321.23 483.046 1321.23 481.408C1321.23 479.446 1323 478.42 1324.96 478.42C1325.73 478.42 1326.49 478.51 1327.26 478.78V477.52C1327.26 476.278 1326.51 475.432 1325.03 475.432C1323.84 475.432 1322.83 475.954 1322.33 477.412L1321.25 477.088C1321.97 475.072 1323.43 474.316 1325.1 474.316C1327.46 474.316 1328.45 475.738 1328.45 477.376V481.3C1328.45 482.38 1328.63 483.352 1328.85 484ZM1327.26 480.04V479.824C1326.52 479.518 1325.77 479.428 1325.03 479.428C1323.59 479.428 1322.46 480.076 1322.46 481.336C1322.46 482.488 1323.27 483.1 1324.42 483.1C1325.66 483.1 1327.26 482.362 1327.26 480.04ZM1330.88 476.944C1330.88 475.432 1332.3 474.316 1334.3 474.316C1336.02 474.316 1337.36 475.144 1337.75 476.404L1336.74 476.8C1336.37 475.882 1335.48 475.396 1334.26 475.396C1332.93 475.396 1332.06 475.954 1332.06 476.836C1332.06 477.628 1332.59 478.114 1333.72 478.348L1334.98 478.6C1337.07 479.014 1338.04 479.914 1338.04 481.336C1338.04 482.992 1336.56 484.144 1334.44 484.144C1332.51 484.144 1331.16 483.388 1330.52 481.948L1331.56 481.516C1332.01 482.524 1333 483.064 1334.4 483.064C1335.88 483.064 1336.85 482.416 1336.85 481.444C1336.85 480.544 1336.35 480.058 1335.09 479.788L1333.54 479.464C1331.79 479.104 1330.88 478.222 1330.88 476.944ZM1339.85 470.752H1341.73V472.588H1339.85V470.752ZM1339.35 487.906C1339.03 487.906 1338.72 487.852 1338.41 487.762L1338.52 486.682C1338.77 486.772 1339.01 486.79 1339.17 486.79C1340.02 486.79 1340.18 486.214 1340.18 485.386V474.46H1341.4V485.458C1341.4 487.078 1340.7 487.906 1339.35 487.906ZM1347.94 484.144C1345.58 484.144 1343.69 482.2 1343.69 479.212C1343.69 476.26 1345.56 474.316 1347.94 474.316C1350.32 474.316 1352.19 476.26 1352.19 479.212C1352.19 482.2 1350.3 484.144 1347.94 484.144ZM1347.94 483.064C1349.58 483.064 1350.93 481.768 1350.93 479.212C1350.93 476.674 1349.56 475.396 1347.94 475.396C1346.32 475.396 1344.95 476.674 1344.95 479.212C1344.95 481.768 1346.3 483.064 1347.94 483.064ZM1358.47 474.316C1360.38 474.316 1361.49 475.486 1361.49 477.628V484H1360.27V477.808C1360.27 476.08 1359.48 475.432 1358.15 475.432C1356.47 475.432 1355.7 476.728 1355.7 478.636V484H1354.47V474.46H1355.7V475.936C1356.27 474.892 1357.32 474.316 1358.47 474.316ZM1363.77 476.944C1363.77 475.432 1365.2 474.316 1367.19 474.316C1368.92 474.316 1370.25 475.144 1370.65 476.404L1369.64 476.8C1369.26 475.882 1368.38 475.396 1367.16 475.396C1365.83 475.396 1364.96 475.954 1364.96 476.836C1364.96 477.628 1365.48 478.114 1366.62 478.348L1367.88 478.6C1369.97 479.014 1370.94 479.914 1370.94 481.336C1370.94 482.992 1369.46 484.144 1367.34 484.144C1365.41 484.144 1364.06 483.388 1363.41 481.948L1364.46 481.516C1364.91 482.524 1365.9 483.064 1367.3 483.064C1368.78 483.064 1369.75 482.416 1369.75 481.444C1369.75 480.544 1369.25 480.058 1367.99 479.788L1366.44 479.464C1364.69 479.104 1363.77 478.222 1363.77 476.944ZM1379.09 484L1375.58 479.266L1374.41 480.382V484H1373.18V470.68H1374.41V478.942L1378.94 474.46H1380.56L1376.4 478.456L1380.63 484H1379.09ZM1388.88 484H1387.77C1387.62 483.478 1387.51 482.848 1387.51 482.128C1387.03 483.244 1385.79 484.144 1384.24 484.144C1382.55 484.144 1381.27 483.046 1381.27 481.408C1381.27 479.446 1383.03 478.42 1384.99 478.42C1385.77 478.42 1386.52 478.51 1387.3 478.78V477.52C1387.3 476.278 1386.54 475.432 1385.07 475.432C1383.88 475.432 1382.87 475.954 1382.37 477.412L1381.29 477.088C1382.01 475.072 1383.46 474.316 1385.14 474.316C1387.5 474.316 1388.49 475.738 1388.49 477.376V481.3C1388.49 482.38 1388.67 483.352 1388.88 484ZM1387.3 480.04V479.824C1386.56 479.518 1385.8 479.428 1385.07 479.428C1383.63 479.428 1382.49 480.076 1382.49 481.336C1382.49 482.488 1383.3 483.1 1384.45 483.1C1385.7 483.1 1387.3 482.362 1387.3 480.04ZM1395.74 474.334C1398.17 474.334 1399.8 476.368 1399.8 479.14C1399.8 482.074 1398.15 484.144 1395.59 484.144C1394.26 484.144 1393.18 483.478 1392.6 482.272V487.78H1391.38V474.46H1392.6V476.242C1393.23 475.018 1394.49 474.334 1395.74 474.334ZM1395.59 483.064C1397.37 483.064 1398.54 481.696 1398.54 479.194C1398.54 476.782 1397.37 475.414 1395.61 475.414C1393.7 475.414 1392.6 476.836 1392.6 479.176C1392.6 481.66 1393.68 483.064 1395.59 483.064ZM1401.63 476.944C1401.63 475.432 1403.05 474.316 1405.05 474.316C1406.78 474.316 1408.11 475.144 1408.5 476.404L1407.5 476.8C1407.12 475.882 1406.24 475.396 1405.01 475.396C1403.68 475.396 1402.82 475.954 1402.82 476.836C1402.82 477.628 1403.34 478.114 1404.47 478.348L1405.73 478.6C1407.82 479.014 1408.79 479.914 1408.79 481.336C1408.79 482.992 1407.32 484.144 1405.19 484.144C1403.27 484.144 1401.92 483.388 1401.27 481.948L1402.31 481.516C1402.76 482.524 1403.75 483.064 1405.16 483.064C1406.63 483.064 1407.6 482.416 1407.6 481.444C1407.6 480.544 1407.1 480.058 1405.84 479.788L1404.29 479.464C1402.55 479.104 1401.63 478.222 1401.63 476.944ZM1413.99 483.964C1413.7 484.036 1413.47 484.072 1413.2 484.072C1411.7 484.072 1411 483.136 1411 481.732V470.68H1412.23V481.732C1412.23 482.542 1412.66 482.956 1413.41 482.956C1413.61 482.956 1413.81 482.938 1413.99 482.884V483.964ZM1422.26 481.3L1423.16 481.804C1422.71 482.956 1421.52 484.144 1419.39 484.144C1416.71 484.144 1415.13 482.146 1415.13 479.104C1415.13 476.314 1416.78 474.316 1419.27 474.316C1421.32 474.316 1423.08 475.792 1423.08 478.384L1423.05 479.446H1416.37C1416.48 481.984 1417.68 483.064 1419.52 483.064C1420.96 483.064 1421.81 482.236 1422.26 481.3ZM1419.27 475.396C1417.83 475.396 1416.53 476.17 1416.37 478.438H1421.88C1421.93 476.296 1420.67 475.396 1419.27 475.396ZM1428.89 474.316C1430.13 474.316 1431.03 475.144 1431.03 476.764V477.7L1429.92 477.916V476.98C1429.92 476.026 1429.59 475.396 1428.62 475.396C1427.52 475.396 1426.7 476.206 1426.7 478.132V484H1425.47V474.46H1426.7V475.648C1427.2 474.748 1428.05 474.316 1428.89 474.316Z" fill="white"/>
<path fill-rule="evenodd" clip-rule="evenodd" d="M1133.86 522.893L1126.36 515.393L1123.14 518.607L1127.43 522.893L1123.14 527.179L1126.36 530.393L1133.86 522.893ZM1121 518.607L1126.36 513.25L1136 522.893L1126.36 532.536L1121 527.179L1125.29 522.893L1121 518.607Z" fill="white"/>
<path d="M1157.15 514.68V515.868H1152.98V528H1151.72V515.868H1147.54V514.68H1157.15ZM1159.3 516.732C1158.7 516.732 1158.22 516.264 1158.22 515.652C1158.22 515.04 1158.7 514.572 1159.3 514.572C1159.89 514.572 1160.38 515.04 1160.38 515.652C1160.38 516.264 1159.89 516.732 1159.3 516.732ZM1158.68 528V518.46H1159.91V528H1158.68ZM1165.8 527.964C1165.51 528.036 1165.27 528.072 1165 528.072C1163.51 528.072 1162.81 527.136 1162.81 525.732V514.68H1164.03V525.732C1164.03 526.542 1164.46 526.956 1165.22 526.956C1165.42 526.956 1165.62 526.938 1165.8 526.884V527.964ZM1176.05 519.468H1173.99V519.81C1174.46 520.386 1174.71 521.106 1174.71 521.808C1174.71 523.554 1173.45 525.336 1170.77 525.336H1170.36C1169.28 525.336 1168.5 525.75 1168.5 526.38C1168.5 526.866 1168.88 527.208 1169.67 527.208H1173.54C1175.09 527.208 1175.88 527.964 1175.88 529.152C1175.88 531.042 1173.71 532.032 1171.02 532.032C1168.61 532.032 1166.94 531.258 1166.36 529.584L1167.35 529.134C1168.02 530.7 1169.42 531.006 1171.02 531.006C1173 531.006 1174.66 530.412 1174.66 529.26C1174.66 528.72 1174.37 528.324 1173.51 528.324H1169.4C1168.07 528.324 1167.28 527.694 1167.28 526.704C1167.28 525.858 1167.98 525.12 1169.15 524.814C1167.89 524.31 1167.19 522.978 1167.19 521.808C1167.19 520.098 1168.47 518.316 1170.99 518.316C1171.98 518.316 1172.73 518.64 1173.31 519.126V518.46H1176.05V519.468ZM1170.97 524.328C1172.66 524.328 1173.51 523.158 1173.51 521.808C1173.51 520.476 1172.66 519.36 1170.97 519.36C1169.26 519.36 1168.4 520.494 1168.4 521.808C1168.4 523.14 1169.26 524.328 1170.97 524.328ZM1177.53 514.752H1179.41V516.588H1177.53V514.752ZM1177.03 531.906C1176.71 531.906 1176.4 531.852 1176.09 531.762L1176.2 530.682C1176.45 530.772 1176.69 530.79 1176.85 530.79C1177.7 530.79 1177.86 530.214 1177.86 529.386V518.46H1179.08V529.458C1179.08 531.078 1178.38 531.906 1177.03 531.906ZM1188.5 525.3L1189.4 525.804C1188.95 526.956 1187.76 528.144 1185.64 528.144C1182.96 528.144 1181.37 526.146 1181.37 523.104C1181.37 520.314 1183.03 518.316 1185.51 518.316C1187.56 518.316 1189.33 519.792 1189.33 522.384L1189.29 523.446H1182.61C1182.72 525.984 1183.93 527.064 1185.76 527.064C1187.2 527.064 1188.05 526.236 1188.5 525.3ZM1185.51 519.396C1184.07 519.396 1182.78 520.17 1182.61 522.438H1188.12C1188.18 520.296 1186.92 519.396 1185.51 519.396ZM1195.71 518.316C1197.62 518.316 1198.74 519.486 1198.74 521.628V528H1197.51V521.808C1197.51 520.08 1196.72 519.432 1195.39 519.432C1193.71 519.432 1192.94 520.728 1192.94 522.636V528H1191.72V518.46H1192.94V519.936C1193.52 518.892 1194.56 518.316 1195.71 518.316ZM1210.05 519.468H1208V519.81C1208.47 520.386 1208.72 521.106 1208.72 521.808C1208.72 523.554 1207.46 525.336 1204.78 525.336H1204.36C1203.28 525.336 1202.51 525.75 1202.51 526.38C1202.51 526.866 1202.89 527.208 1203.68 527.208H1207.55C1209.1 527.208 1209.89 527.964 1209.89 529.152C1209.89 531.042 1207.71 532.032 1205.03 532.032C1202.62 532.032 1200.94 531.258 1200.37 529.584L1201.36 529.134C1202.02 530.7 1203.43 531.006 1205.03 531.006C1207.01 531.006 1208.66 530.412 1208.66 529.26C1208.66 528.72 1208.38 528.324 1207.51 528.324H1203.41C1202.08 528.324 1201.28 527.694 1201.28 526.704C1201.28 525.858 1201.99 525.12 1203.16 524.814C1201.9 524.31 1201.19 522.978 1201.19 521.808C1201.19 520.098 1202.47 518.316 1204.99 518.316C1205.98 518.316 1206.74 518.64 1207.31 519.126V518.46H1210.05V519.468ZM1204.97 524.328C1206.67 524.328 1207.51 523.158 1207.51 521.808C1207.51 520.476 1206.67 519.36 1204.97 519.36C1203.26 519.36 1202.4 520.494 1202.4 521.808C1202.4 523.14 1203.26 524.328 1204.97 524.328ZM1217.55 525.3L1218.45 525.804C1218 526.956 1216.82 528.144 1214.69 528.144C1212.01 528.144 1210.43 526.146 1210.43 523.104C1210.43 520.314 1212.08 518.316 1214.57 518.316C1216.62 518.316 1218.38 519.792 1218.38 522.384L1218.35 523.446H1211.67C1211.78 525.984 1212.98 527.064 1214.82 527.064C1216.26 527.064 1217.1 526.236 1217.55 525.3ZM1214.57 519.396C1213.13 519.396 1211.83 520.17 1211.67 522.438H1217.18C1217.23 520.296 1215.97 519.396 1214.57 519.396ZM1223.76 527.964C1223.47 528.036 1223.24 528.072 1222.97 528.072C1221.47 528.072 1220.77 527.136 1220.77 525.732V514.68H1221.99V525.732C1221.99 526.542 1222.43 526.956 1223.18 526.956C1223.38 526.956 1223.58 526.938 1223.76 526.884V527.964ZM1226.4 516.732C1225.81 516.732 1225.32 516.264 1225.32 515.652C1225.32 515.04 1225.81 514.572 1226.4 514.572C1227 514.572 1227.48 515.04 1227.48 515.652C1227.48 516.264 1227 516.732 1226.4 516.732ZM1225.79 528V518.46H1227.01V528H1225.79ZM1238.48 519.468H1236.43V519.81C1236.9 520.386 1237.15 521.106 1237.15 521.808C1237.15 523.554 1235.89 525.336 1233.21 525.336H1232.79C1231.71 525.336 1230.94 525.75 1230.94 526.38C1230.94 526.866 1231.32 527.208 1232.11 527.208H1235.98C1237.53 527.208 1238.32 527.964 1238.32 529.152C1238.32 531.042 1236.14 532.032 1233.46 532.032C1231.05 532.032 1229.37 531.258 1228.8 529.584L1229.79 529.134C1230.45 530.7 1231.86 531.006 1233.46 531.006C1235.44 531.006 1237.1 530.412 1237.1 529.26C1237.1 528.72 1236.81 528.324 1235.94 528.324H1231.84C1230.51 528.324 1229.72 527.694 1229.72 526.704C1229.72 525.858 1230.42 525.12 1231.59 524.814C1230.33 524.31 1229.63 522.978 1229.63 521.808C1229.63 520.098 1230.9 518.316 1233.42 518.316C1234.41 518.316 1235.17 518.64 1235.75 519.126V518.46H1238.48V519.468ZM1233.41 524.328C1235.1 524.328 1235.94 523.158 1235.94 521.808C1235.94 520.476 1235.1 519.36 1233.41 519.36C1231.7 519.36 1230.83 520.494 1230.83 521.808C1230.83 523.14 1231.7 524.328 1233.41 524.328ZM1244.22 518.316C1246.13 518.316 1247.25 519.486 1247.25 521.628V528H1246.02V521.808C1246.02 520.08 1245.23 519.432 1243.9 519.432C1242.22 519.432 1241.45 520.728 1241.45 522.636V528H1240.23V514.68H1241.45V519.936C1242.03 518.892 1243.07 518.316 1244.22 518.316ZM1256.51 525.3L1257.41 525.804C1256.96 526.956 1255.77 528.144 1253.65 528.144C1250.96 528.144 1249.38 526.146 1249.38 523.104C1249.38 520.314 1251.04 518.316 1253.52 518.316C1255.57 518.316 1257.34 519.792 1257.34 522.384L1257.3 523.446H1250.62C1250.73 525.984 1251.94 527.064 1253.77 527.064C1255.21 527.064 1256.06 526.236 1256.51 525.3ZM1253.52 519.396C1252.08 519.396 1250.78 520.17 1250.62 522.438H1256.13C1256.18 520.296 1254.92 519.396 1253.52 519.396ZM1261.46 525.624C1261.46 526.74 1262.12 527.064 1262.72 527.064C1263.29 527.064 1263.67 526.848 1264.12 526.38L1264.77 527.1C1264.14 527.838 1263.45 528.144 1262.61 528.144C1261.31 528.144 1260.23 527.28 1260.23 525.588V519.468H1258.43V518.46H1260.23V516.408L1261.46 515.688V518.46H1264.55V519.468H1261.46V525.624Z" fill="white"/>
<path d="M1054.84 596.812H1061.72V598H1053.58V584.68H1061.65V585.868H1054.84V590.728H1060.14V591.916H1054.84V596.812ZM1067.79 588.316C1069.69 588.316 1070.81 589.486 1070.81 591.628V598H1069.59V591.808C1069.59 590.08 1068.79 589.432 1067.46 589.432C1065.79 589.432 1065.01 590.728 1065.01 592.636V598H1063.79V588.46H1065.01V589.936C1065.59 588.892 1066.63 588.316 1067.79 588.316ZM1082.12 589.468H1080.07V589.81C1080.54 590.386 1080.79 591.106 1080.79 591.808C1080.79 593.554 1079.53 595.336 1076.85 595.336H1076.44C1075.36 595.336 1074.58 595.75 1074.58 596.38C1074.58 596.866 1074.96 597.208 1075.75 597.208H1079.62C1081.17 597.208 1081.96 597.964 1081.96 599.152C1081.96 601.042 1079.78 602.032 1077.1 602.032C1074.69 602.032 1073.02 601.258 1072.44 599.584L1073.43 599.134C1074.1 600.7 1075.5 601.006 1077.1 601.006C1079.08 601.006 1080.74 600.412 1080.74 599.26C1080.74 598.72 1080.45 598.324 1079.59 598.324H1075.48C1074.15 598.324 1073.36 597.694 1073.36 596.704C1073.36 595.858 1074.06 595.12 1075.23 594.814C1073.97 594.31 1073.27 592.978 1073.27 591.808C1073.27 590.098 1074.55 588.316 1077.07 588.316C1078.06 588.316 1078.81 588.64 1079.39 589.126V588.46H1082.12V589.468ZM1077.05 594.328C1078.74 594.328 1079.59 593.158 1079.59 591.808C1079.59 590.476 1078.74 589.36 1077.05 589.36C1075.34 589.36 1074.47 590.494 1074.47 591.808C1074.47 593.14 1075.34 594.328 1077.05 594.328ZM1086.64 597.964C1086.36 598.036 1086.12 598.072 1085.85 598.072C1084.36 598.072 1083.66 597.136 1083.66 595.732V584.68H1084.88V595.732C1084.88 596.542 1085.31 596.956 1086.07 596.956C1086.27 596.956 1086.46 596.938 1086.64 596.884V597.964ZM1089.29 586.732C1088.7 586.732 1088.21 586.264 1088.21 585.652C1088.21 585.04 1088.7 584.572 1089.29 584.572C1089.88 584.572 1090.37 585.04 1090.37 585.652C1090.37 586.264 1089.88 586.732 1089.29 586.732ZM1088.68 598V588.46H1089.9V598H1088.68ZM1092.33 590.944C1092.33 589.432 1093.76 588.316 1095.75 588.316C1097.48 588.316 1098.81 589.144 1099.21 590.404L1098.2 590.8C1097.82 589.882 1096.94 589.396 1095.72 589.396C1094.39 589.396 1093.52 589.954 1093.52 590.836C1093.52 591.628 1094.04 592.114 1095.18 592.348L1096.44 592.6C1098.53 593.014 1099.5 593.914 1099.5 595.336C1099.5 596.992 1098.02 598.144 1095.9 598.144C1093.97 598.144 1092.62 597.388 1091.97 595.948L1093.02 595.516C1093.47 596.524 1094.46 597.064 1095.86 597.064C1097.34 597.064 1098.31 596.416 1098.31 595.444C1098.31 594.544 1097.81 594.058 1096.55 593.788L1095 593.464C1093.25 593.104 1092.33 592.222 1092.33 590.944ZM1105.74 588.316C1107.65 588.316 1108.76 589.486 1108.76 591.628V598H1107.54V591.808C1107.54 590.08 1106.75 589.432 1105.42 589.432C1103.74 589.432 1102.97 590.728 1102.97 592.636V598H1101.74V584.68H1102.97V589.936C1103.54 588.892 1104.59 588.316 1105.74 588.316Z" fill="white"/>
<path d="M1052 601.672H1110.17V602.464H1052V601.672Z" fill="white"/>
<path fill-rule="evenodd" clip-rule="evenodd" d="M1352 579C1344.82 579 1339 584.856 1339 592.079C1339 598.608 1343.75 604.019 1349.97 605V595.86H1346.67V592.079H1349.97V589.198C1349.97 585.92 1351.91 584.109 1354.88 584.109C1356.3 584.109 1357.79 584.365 1357.79 584.365V587.583H1356.15C1354.53 587.583 1354.03 588.592 1354.03 589.626V592.079H1357.64L1357.06 595.86H1354.03V605C1360.25 604.019 1365 598.608 1365 592.079C1365 584.856 1359.18 579 1352 579Z" fill="white"/>
<path fill-rule="evenodd" clip-rule="evenodd" d="M1429 583.604C1428.04 584.046 1427.02 584.345 1425.94 584.478C1427.04 583.792 1427.88 582.703 1428.28 581.407C1427.25 582.042 1426.11 582.505 1424.89 582.753C1423.92 581.674 1422.54 581 1421 581C1418.06 581 1415.67 583.487 1415.67 586.554C1415.67 586.989 1415.71 587.412 1415.81 587.818C1411.37 587.586 1407.44 585.378 1404.81 582.014C1404.35 582.837 1404.09 583.792 1404.09 584.809C1404.09 586.735 1405.03 588.435 1406.46 589.431C1405.59 589.404 1404.76 589.152 1404.04 588.739V588.807C1404.04 591.499 1405.88 593.744 1408.32 594.252C1407.88 594.383 1407.41 594.448 1406.92 594.448C1406.58 594.448 1406.24 594.415 1405.91 594.349C1406.59 596.555 1408.56 598.161 1410.9 598.204C1409.07 599.695 1406.77 600.583 1404.27 600.583C1403.84 600.583 1403.42 600.558 1403 600.507C1405.36 602.08 1408.17 603 1411.18 603C1420.99 603 1426.35 594.538 1426.35 587.199C1426.35 586.957 1426.35 586.716 1426.34 586.479C1427.38 585.696 1428.29 584.718 1429 583.604Z" fill="white"/>
<rect width="1280" height="104" transform="translate(200 149)" fill="#2A2859"/>
<path fill-rule="evenodd" clip-rule="evenodd" d="M402.857 200.893L395.357 193.393L392.143 196.607L396.429 200.893L392.143 205.179L395.357 208.393L402.857 200.893ZM390 196.607L395.357 191.25L405 200.893L395.357 210.536L390 205.179L394.286 200.893L390 196.607Z" fill="white"/>
<path d="M425.432 207L420.41 200.628L418.844 202.266V207H417.584V193.68H418.844V200.646L425.342 193.68H426.98L421.238 199.746L427.052 207H425.432ZM431.39 207.144C429.032 207.144 427.142 205.2 427.142 202.212C427.142 199.26 429.014 197.316 431.39 197.316C433.766 197.316 435.638 199.26 435.638 202.212C435.638 205.2 433.748 207.144 431.39 207.144ZM431.39 206.064C433.028 206.064 434.378 204.768 434.378 202.212C434.378 199.674 433.01 198.396 431.39 198.396C429.77 198.396 428.402 199.674 428.402 202.212C428.402 204.768 429.752 206.064 431.39 206.064ZM441.921 197.316C443.829 197.316 444.945 198.486 444.945 200.628V207H443.721V200.808C443.721 199.08 442.929 198.432 441.597 198.432C439.923 198.432 439.149 199.728 439.149 201.636V207H437.925V197.46H439.149V198.936C439.725 197.892 440.769 197.316 441.921 197.316ZM449.6 204.624C449.6 205.74 450.266 206.064 450.86 206.064C451.436 206.064 451.814 205.848 452.264 205.38L452.912 206.1C452.282 206.838 451.598 207.144 450.752 207.144C449.456 207.144 448.376 206.28 448.376 204.588V198.468H446.576V197.46H448.376V195.408L449.6 194.688V197.46H452.696V198.468H449.6V204.624ZM461.563 207H460.447C460.303 206.478 460.195 205.848 460.195 205.128C459.709 206.244 458.467 207.144 456.919 207.144C455.227 207.144 453.949 206.046 453.949 204.408C453.949 202.446 455.713 201.42 457.675 201.42C458.449 201.42 459.205 201.51 459.979 201.78V200.52C459.979 199.278 459.223 198.432 457.747 198.432C456.559 198.432 455.551 198.954 455.047 200.412L453.967 200.088C454.687 198.072 456.145 197.316 457.819 197.316C460.177 197.316 461.167 198.738 461.167 200.376V204.3C461.167 205.38 461.347 206.352 461.563 207ZM459.979 203.04V202.824C459.241 202.518 458.485 202.428 457.747 202.428C456.307 202.428 455.173 203.076 455.173 204.336C455.173 205.488 455.983 206.1 457.135 206.1C458.377 206.1 459.979 205.362 459.979 203.04ZM470.002 207L466.492 202.266L465.322 203.382V207H464.098V193.68H465.322V201.942L469.858 197.46H471.478L467.32 201.456L471.55 207H470.002ZM474.963 204.624C474.963 205.74 475.629 206.064 476.223 206.064C476.799 206.064 477.177 205.848 477.627 205.38L478.275 206.1C477.645 206.838 476.961 207.144 476.115 207.144C474.819 207.144 473.739 206.28 473.739 204.588V198.468H471.939V197.46H473.739V195.408L474.963 194.688V197.46H478.059V198.468H474.963V204.624ZM489.685 207.144C486.517 207.144 483.925 204.534 483.925 200.268C483.925 196.074 486.517 193.536 489.685 193.536C492.853 193.536 495.445 196.074 495.445 200.268C495.445 204.534 492.853 207.144 489.685 207.144ZM489.685 205.956C492.097 205.956 494.149 204.03 494.149 200.268C494.149 196.434 492.169 194.724 489.685 194.724C487.201 194.724 485.221 196.434 485.221 200.268C485.221 204.03 487.273 205.956 489.685 205.956ZM497.053 199.944C497.053 198.432 498.475 197.316 500.473 197.316C502.201 197.316 503.533 198.144 503.929 199.404L502.921 199.8C502.543 198.882 501.661 198.396 500.437 198.396C499.105 198.396 498.241 198.954 498.241 199.836C498.241 200.628 498.763 201.114 499.897 201.348L501.157 201.6C503.245 202.014 504.217 202.914 504.217 204.336C504.217 205.992 502.741 207.144 500.617 207.144C498.691 207.144 497.341 206.388 496.693 204.948L497.737 204.516C498.187 205.524 499.177 206.064 500.581 206.064C502.057 206.064 503.029 205.416 503.029 204.444C503.029 203.544 502.525 203.058 501.265 202.788L499.717 202.464C497.971 202.104 497.053 201.222 497.053 199.944ZM509.415 206.964C509.127 207.036 508.893 207.072 508.623 207.072C507.129 207.072 506.427 206.136 506.427 204.732V193.68H507.651V204.732C507.651 205.542 508.083 205.956 508.839 205.956C509.037 205.956 509.235 205.938 509.415 205.884V206.964ZM514.802 207.144C512.444 207.144 510.554 205.2 510.554 202.212C510.554 199.26 512.426 197.316 514.802 197.316C517.178 197.316 519.05 199.26 519.05 202.212C519.05 205.2 517.16 207.144 514.802 207.144ZM514.802 206.064C516.44 206.064 517.79 204.768 517.79 202.212C517.79 199.674 516.422 198.396 514.802 198.396C513.182 198.396 511.814 199.674 511.814 202.212C511.814 204.768 513.164 206.064 514.802 206.064ZM531.683 207L528.173 202.266L527.003 203.382V207H525.779V193.68H527.003V201.942L531.539 197.46H533.159L529.001 201.456L533.231 207H531.683ZM538.003 207.144C535.645 207.144 533.755 205.2 533.755 202.212C533.755 199.26 535.627 197.316 538.003 197.316C540.379 197.316 542.251 199.26 542.251 202.212C542.251 205.2 540.361 207.144 538.003 207.144ZM538.003 206.064C539.641 206.064 540.991 204.768 540.991 202.212C540.991 199.674 539.623 198.396 538.003 198.396C536.383 198.396 535.015 199.674 535.015 202.212C535.015 204.768 536.365 206.064 538.003 206.064ZM554.042 197.316C555.86 197.316 556.922 198.468 556.922 200.448V207H555.698V200.628C555.698 199.08 554.96 198.432 553.718 198.432C552.044 198.432 551.342 199.728 551.342 201.636V207H550.118V200.628C550.118 199.08 549.38 198.432 548.138 198.432C546.464 198.432 545.762 199.728 545.762 201.636V207H544.538V197.46H545.762V198.954C546.338 197.892 547.346 197.316 548.462 197.316C549.884 197.316 550.838 198.018 551.18 199.26C551.72 198 552.818 197.316 554.042 197.316ZM569.17 197.316C570.988 197.316 572.05 198.468 572.05 200.448V207H570.826V200.628C570.826 199.08 570.088 198.432 568.846 198.432C567.172 198.432 566.47 199.728 566.47 201.636V207H565.246V200.628C565.246 199.08 564.508 198.432 563.266 198.432C561.592 198.432 560.89 199.728 560.89 201.636V207H559.666V197.46H560.89V198.954C561.466 197.892 562.474 197.316 563.59 197.316C565.012 197.316 565.966 198.018 566.308 199.26C566.848 198 567.946 197.316 569.17 197.316ZM580.338 197.46H581.562V207H580.338V205.542C579.762 206.568 578.754 207.144 577.584 207.144C575.712 207.144 574.578 205.938 574.578 203.868V197.46H575.802V203.76C575.802 205.326 576.594 206.046 577.926 206.046C579.618 206.046 580.338 204.696 580.338 202.824V197.46ZM588.381 197.316C590.289 197.316 591.405 198.486 591.405 200.628V207H590.181V200.808C590.181 199.08 589.389 198.432 588.057 198.432C586.383 198.432 585.609 199.728 585.609 201.636V207H584.385V197.46H585.609V198.936C586.185 197.892 587.229 197.316 588.381 197.316ZM600.668 204.3L601.568 204.804C601.118 205.956 599.93 207.144 597.806 207.144C595.124 207.144 593.54 205.146 593.54 202.104C593.54 199.314 595.196 197.316 597.68 197.316C599.732 197.316 601.496 198.792 601.496 201.384L601.46 202.446H594.782C594.89 204.984 596.096 206.064 597.932 206.064C599.372 206.064 600.218 205.236 600.668 204.3ZM597.68 198.396C596.24 198.396 594.944 199.17 594.782 201.438H600.29C600.344 199.296 599.084 198.396 597.68 198.396Z" fill="white"/>
<path fill-rule="evenodd" clip-rule="evenodd" d="M655.857 200.893L648.357 193.393L645.143 196.607L649.429 200.893L645.143 205.179L648.357 208.393L655.857 200.893ZM643 196.607L648.357 191.25L658 200.893L648.357 210.536L643 205.179L647.286 200.893L643 196.607Z" fill="white"/>
<path d="M674.796 193.68C677.586 193.68 679.26 195.39 679.26 197.784C679.26 200.178 677.496 201.816 674.706 201.816H671.844V207H670.584V193.68H674.796ZM674.85 200.7C676.902 200.7 677.964 199.656 677.964 197.784C677.964 195.912 676.902 194.832 674.85 194.832H671.844V200.7H674.85ZM687.112 204.3L688.012 204.804C687.562 205.956 686.374 207.144 684.25 207.144C681.568 207.144 679.984 205.146 679.984 202.104C679.984 199.314 681.64 197.316 684.124 197.316C686.176 197.316 687.94 198.792 687.94 201.384L687.904 202.446H681.226C681.334 204.984 682.54 206.064 684.376 206.064C685.816 206.064 686.662 205.236 687.112 204.3ZM684.124 198.396C682.684 198.396 681.388 199.17 681.226 201.438H686.734C686.788 199.296 685.528 198.396 684.124 198.396ZM693.748 197.316C694.99 197.316 695.89 198.144 695.89 199.764V200.7L694.774 200.916V199.98C694.774 199.026 694.45 198.396 693.478 198.396C692.38 198.396 691.552 199.206 691.552 201.132V207H690.328V197.46H691.552V198.648C692.056 197.748 692.902 197.316 693.748 197.316ZM697.289 199.944C697.289 198.432 698.711 197.316 700.709 197.316C702.437 197.316 703.769 198.144 704.165 199.404L703.157 199.8C702.779 198.882 701.897 198.396 700.673 198.396C699.341 198.396 698.477 198.954 698.477 199.836C698.477 200.628 698.999 201.114 700.133 201.348L701.393 201.6C703.481 202.014 704.453 202.914 704.453 204.336C704.453 205.992 702.977 207.144 700.853 207.144C698.927 207.144 697.577 206.388 696.929 204.948L697.973 204.516C698.423 205.524 699.413 206.064 700.817 206.064C702.293 206.064 703.265 205.416 703.265 204.444C703.265 203.544 702.761 203.058 701.501 202.788L699.953 202.464C698.207 202.104 697.289 201.222 697.289 199.944ZM710.298 207.144C707.94 207.144 706.05 205.2 706.05 202.212C706.05 199.26 707.922 197.316 710.298 197.316C712.674 197.316 714.546 199.26 714.546 202.212C714.546 205.2 712.656 207.144 710.298 207.144ZM710.298 206.064C711.936 206.064 713.286 204.768 713.286 202.212C713.286 199.674 711.918 198.396 710.298 198.396C708.678 198.396 707.31 199.674 707.31 202.212C707.31 204.768 708.66 206.064 710.298 206.064ZM720.829 197.316C722.737 197.316 723.853 198.486 723.853 200.628V207H722.629V200.808C722.629 199.08 721.837 198.432 720.505 198.432C718.831 198.432 718.057 199.728 718.057 201.636V207H716.833V197.46H718.057V198.936C718.633 197.892 719.677 197.316 720.829 197.316ZM732.508 197.46H733.768L730.024 207H728.944L725.2 197.46H726.532L729.52 205.65L732.508 197.46ZM741.6 204.3L742.5 204.804C742.05 205.956 740.862 207.144 738.738 207.144C736.056 207.144 734.472 205.146 734.472 202.104C734.472 199.314 736.128 197.316 738.612 197.316C740.664 197.316 742.428 198.792 742.428 201.384L742.392 202.446H735.714C735.822 204.984 737.028 206.064 738.864 206.064C740.304 206.064 741.15 205.236 741.6 204.3ZM738.612 198.396C737.172 198.396 735.876 199.17 735.714 201.438H741.222C741.276 199.296 740.016 198.396 738.612 198.396ZM748.235 197.316C749.477 197.316 750.377 198.144 750.377 199.764V200.7L749.261 200.916V199.98C749.261 199.026 748.937 198.396 747.965 198.396C746.867 198.396 746.039 199.206 746.039 201.132V207H744.815V197.46H746.039V198.648C746.543 197.748 747.389 197.316 748.235 197.316ZM756.592 197.316C758.5 197.316 759.616 198.486 759.616 200.628V207H758.392V200.808C758.392 199.08 757.6 198.432 756.268 198.432C754.594 198.432 753.82 199.728 753.82 201.636V207H752.596V197.46H753.82V198.936C754.396 197.892 755.44 197.316 756.592 197.316ZM770.404 207.144C768.046 207.144 766.156 205.2 766.156 202.212C766.156 199.26 768.028 197.316 770.404 197.316C772.78 197.316 774.652 199.26 774.652 202.212C774.652 205.2 772.762 207.144 770.404 207.144ZM770.404 206.064C772.042 206.064 773.392 204.768 773.392 202.212C773.392 199.674 772.024 198.396 770.404 198.396C768.784 198.396 767.416 199.674 767.416 202.212C767.416 204.768 768.766 206.064 770.404 206.064ZM784.962 198.468H782.91V198.81C783.378 199.386 783.63 200.106 783.63 200.808C783.63 202.554 782.37 204.336 779.688 204.336H779.274C778.194 204.336 777.42 204.75 777.42 205.38C777.42 205.866 777.798 206.208 778.59 206.208H782.46C784.008 206.208 784.8 206.964 784.8 208.152C784.8 210.042 782.622 211.032 779.94 211.032C777.528 211.032 775.854 210.258 775.278 208.584L776.268 208.134C776.934 209.7 778.338 210.006 779.94 210.006C781.92 210.006 783.576 209.412 783.576 208.26C783.576 207.72 783.288 207.324 782.424 207.324H778.32C776.988 207.324 776.196 206.694 776.196 205.704C776.196 204.858 776.898 204.12 778.068 203.814C776.808 203.31 776.106 201.978 776.106 200.808C776.106 199.098 777.384 197.316 779.904 197.316C780.894 197.316 781.65 197.64 782.226 198.126V197.46H784.962V198.468ZM779.886 203.328C781.578 203.328 782.424 202.158 782.424 200.808C782.424 199.476 781.578 198.36 779.886 198.36C778.176 198.36 777.312 199.494 777.312 200.808C777.312 202.14 778.176 203.328 779.886 203.328ZM791.688 195.732C791.094 195.732 790.608 195.264 790.608 194.652C790.608 194.04 791.094 193.572 791.688 193.572C792.282 193.572 792.768 194.04 792.768 194.652C792.768 195.264 792.282 195.732 791.688 195.732ZM791.076 207V197.46H792.3V207H791.076ZM799.196 197.316C801.104 197.316 802.22 198.486 802.22 200.628V207H800.996V200.808C800.996 199.08 800.204 198.432 798.872 198.432C797.198 198.432 796.424 199.728 796.424 201.636V207H795.2V197.46H796.424V198.936C797 197.892 798.044 197.316 799.196 197.316ZM806.875 196.128V197.46H809.539V198.468H806.875V207H805.651V198.468H803.851V197.46H805.651V196.128C805.651 194.472 806.731 193.536 808.207 193.536C808.891 193.536 809.683 193.806 810.133 194.526L809.395 195.264C809.107 194.832 808.675 194.58 808.171 194.58C807.541 194.58 806.875 194.958 806.875 196.128ZM814.292 207.144C811.934 207.144 810.044 205.2 810.044 202.212C810.044 199.26 811.916 197.316 814.292 197.316C816.668 197.316 818.54 199.26 818.54 202.212C818.54 205.2 816.65 207.144 814.292 207.144ZM814.292 206.064C815.93 206.064 817.28 204.768 817.28 202.212C817.28 199.674 815.912 198.396 814.292 198.396C812.672 198.396 811.304 199.674 811.304 202.212C811.304 204.768 812.654 206.064 814.292 206.064ZM824.247 197.316C825.489 197.316 826.389 198.144 826.389 199.764V200.7L825.273 200.916V199.98C825.273 199.026 824.949 198.396 823.977 198.396C822.879 198.396 822.051 199.206 822.051 201.132V207H820.827V197.46H822.051V198.648C822.555 197.748 823.401 197.316 824.247 197.316ZM838.111 197.316C839.929 197.316 840.991 198.468 840.991 200.448V207H839.767V200.628C839.767 199.08 839.029 198.432 837.787 198.432C836.113 198.432 835.411 199.728 835.411 201.636V207H834.187V200.628C834.187 199.08 833.449 198.432 832.207 198.432C830.533 198.432 829.831 199.728 829.831 201.636V207H828.607V197.46H829.831V198.954C830.407 197.892 831.415 197.316 832.531 197.316C833.953 197.316 834.907 198.018 835.249 199.26C835.789 198 836.887 197.316 838.111 197.316ZM850.846 207H849.73C849.586 206.478 849.478 205.848 849.478 205.128C848.992 206.244 847.75 207.144 846.202 207.144C844.51 207.144 843.232 206.046 843.232 204.408C843.232 202.446 844.996 201.42 846.958 201.42C847.732 201.42 848.488 201.51 849.262 201.78V200.52C849.262 199.278 848.506 198.432 847.03 198.432C845.842 198.432 844.833 198.954 844.33 200.412L843.25 200.088C843.97 198.072 845.428 197.316 847.102 197.316C849.46 197.316 850.45 198.738 850.45 200.376V204.3C850.45 205.38 850.63 206.352 850.846 207ZM849.262 203.04V202.824C848.524 202.518 847.768 202.428 847.03 202.428C845.59 202.428 844.456 203.076 844.456 204.336C844.456 205.488 845.266 206.1 846.418 206.1C847.66 206.1 849.262 205.362 849.262 203.04ZM852.876 199.944C852.876 198.432 854.298 197.316 856.296 197.316C858.024 197.316 859.356 198.144 859.752 199.404L858.744 199.8C858.366 198.882 857.484 198.396 856.26 198.396C854.928 198.396 854.064 198.954 854.064 199.836C854.064 200.628 854.586 201.114 855.72 201.348L856.98 201.6C859.068 202.014 860.04 202.914 860.04 204.336C860.04 205.992 858.564 207.144 856.44 207.144C854.514 207.144 853.164 206.388 852.516 204.948L853.56 204.516C854.01 205.524 855 206.064 856.404 206.064C857.88 206.064 858.852 205.416 858.852 204.444C858.852 203.544 858.348 203.058 857.088 202.788L855.54 202.464C853.794 202.104 852.876 201.222 852.876 199.944ZM861.854 193.752H863.726V195.588H861.854V193.752ZM861.35 210.906C861.026 210.906 860.72 210.852 860.414 210.762L860.522 209.682C860.774 209.772 861.008 209.79 861.17 209.79C862.016 209.79 862.178 209.214 862.178 208.386V197.46H863.402V208.458C863.402 210.078 862.7 210.906 861.35 210.906ZM869.939 207.144C867.581 207.144 865.691 205.2 865.691 202.212C865.691 199.26 867.563 197.316 869.939 197.316C872.315 197.316 874.187 199.26 874.187 202.212C874.187 205.2 872.297 207.144 869.939 207.144ZM869.939 206.064C871.577 206.064 872.927 204.768 872.927 202.212C872.927 199.674 871.559 198.396 869.939 198.396C868.319 198.396 866.951 199.674 866.951 202.212C866.951 204.768 868.301 206.064 869.939 206.064ZM880.471 197.316C882.379 197.316 883.495 198.486 883.495 200.628V207H882.271V200.808C882.271 199.08 881.479 198.432 880.147 198.432C878.473 198.432 877.699 199.728 877.699 201.636V207H876.475V197.46H877.699V198.936C878.275 197.892 879.319 197.316 880.471 197.316ZM885.773 199.944C885.773 198.432 887.195 197.316 889.193 197.316C890.921 197.316 892.253 198.144 892.649 199.404L891.641 199.8C891.263 198.882 890.381 198.396 889.157 198.396C887.825 198.396 886.961 198.954 886.961 199.836C886.961 200.628 887.483 201.114 888.617 201.348L889.877 201.6C891.965 202.014 892.937 202.914 892.937 204.336C892.937 205.992 891.461 207.144 889.337 207.144C887.411 207.144 886.061 206.388 885.413 204.948L886.457 204.516C886.907 205.524 887.897 206.064 889.301 206.064C890.777 206.064 891.749 205.416 891.749 204.444C891.749 203.544 891.245 203.058 889.985 202.788L888.437 202.464C886.691 202.104 885.773 201.222 885.773 199.944ZM901.087 207L897.577 202.266L896.407 203.382V207H895.183V193.68H896.407V201.942L900.943 197.46H902.563L898.405 201.456L902.635 207H901.087ZM910.881 207H909.765C909.621 206.478 909.513 205.848 909.513 205.128C909.027 206.244 907.785 207.144 906.237 207.144C904.545 207.144 903.267 206.046 903.267 204.408C903.267 202.446 905.031 201.42 906.993 201.42C907.767 201.42 908.523 201.51 909.297 201.78V200.52C909.297 199.278 908.541 198.432 907.065 198.432C905.877 198.432 904.869 198.954 904.365 200.412L903.285 200.088C904.005 198.072 905.463 197.316 907.137 197.316C909.495 197.316 910.485 198.738 910.485 200.376V204.3C910.485 205.38 910.665 206.352 910.881 207ZM909.297 203.04V202.824C908.559 202.518 907.803 202.428 907.065 202.428C905.625 202.428 904.491 203.076 904.491 204.336C904.491 205.488 905.301 206.1 906.453 206.1C907.695 206.1 909.297 205.362 909.297 203.04ZM917.736 197.334C920.166 197.334 921.804 199.368 921.804 202.14C921.804 205.074 920.148 207.144 917.592 207.144C916.26 207.144 915.18 206.478 914.604 205.272V210.78H913.38V197.46H914.604V199.242C915.234 198.018 916.494 197.334 917.736 197.334ZM917.592 206.064C919.374 206.064 920.544 204.696 920.544 202.194C920.544 199.782 919.374 198.414 917.61 198.414C915.702 198.414 914.604 199.836 914.604 202.176C914.604 204.66 915.684 206.064 917.592 206.064ZM923.628 199.944C923.628 198.432 925.05 197.316 927.048 197.316C928.776 197.316 930.108 198.144 930.504 199.404L929.496 199.8C929.118 198.882 928.236 198.396 927.012 198.396C925.68 198.396 924.816 198.954 924.816 199.836C924.816 200.628 925.338 201.114 926.472 201.348L927.732 201.6C929.82 202.014 930.792 202.914 930.792 204.336C930.792 205.992 929.316 207.144 927.192 207.144C925.266 207.144 923.916 206.388 923.268 204.948L924.312 204.516C924.762 205.524 925.752 206.064 927.156 206.064C928.632 206.064 929.604 205.416 929.604 204.444C929.604 203.544 929.1 203.058 927.84 202.788L926.292 202.464C924.546 202.104 923.628 201.222 923.628 199.944ZM935.989 206.964C935.701 207.036 935.467 207.072 935.197 207.072C933.703 207.072 933.001 206.136 933.001 204.732V193.68H934.225V204.732C934.225 205.542 934.657 205.956 935.413 205.956C935.611 205.956 935.809 205.938 935.989 205.884V206.964ZM944.257 204.3L945.157 204.804C944.707 205.956 943.519 207.144 941.395 207.144C938.713 207.144 937.129 205.146 937.129 202.104C937.129 199.314 938.785 197.316 941.269 197.316C943.321 197.316 945.085 198.792 945.085 201.384L945.049 202.446H938.371C938.479 204.984 939.685 206.064 941.521 206.064C942.961 206.064 943.807 205.236 944.257 204.3ZM941.269 198.396C939.829 198.396 938.533 199.17 938.371 201.438H943.879C943.933 199.296 942.673 198.396 941.269 198.396ZM950.892 197.316C952.134 197.316 953.034 198.144 953.034 199.764V200.7L951.918 200.916V199.98C951.918 199.026 951.594 198.396 950.622 198.396C949.524 198.396 948.696 199.206 948.696 201.132V207H947.472V197.46H948.696V198.648C949.2 197.748 950.046 197.316 950.892 197.316Z" fill="white"/>
<path fill-rule="evenodd" clip-rule="evenodd" d="M1006.86 200.893L999.357 193.393L996.143 196.607L1000.43 200.893L996.143 205.179L999.357 208.393L1006.86 200.893ZM994 196.607L999.357 191.25L1009 200.893L999.357 210.536L994 205.179L998.286 200.893L994 196.607Z" fill="white"/>
<path d="M1022.84 205.812H1029.04V207H1021.58V193.68H1022.84V205.812ZM1037.11 204.3L1038.01 204.804C1037.56 205.956 1036.37 207.144 1034.25 207.144C1031.57 207.144 1029.98 205.146 1029.98 202.104C1029.98 199.314 1031.64 197.316 1034.12 197.316C1036.17 197.316 1037.94 198.792 1037.94 201.384L1037.9 202.446H1031.22C1031.33 204.984 1032.54 206.064 1034.37 206.064C1035.81 206.064 1036.66 205.236 1037.11 204.3ZM1034.12 198.396C1032.68 198.396 1031.39 199.17 1031.22 201.438H1036.73C1036.79 199.296 1035.53 198.396 1034.12 198.396ZM1044.32 197.316C1046.23 197.316 1047.35 198.486 1047.35 200.628V207H1046.12V200.808C1046.12 199.08 1045.33 198.432 1044 198.432C1042.32 198.432 1041.55 199.728 1041.55 201.636V207H1040.33V197.46H1041.55V198.936C1042.13 197.892 1043.17 197.316 1044.32 197.316ZM1056.03 207L1052.52 202.266L1051.35 203.382V207H1050.13V193.68H1051.35V201.942L1055.89 197.46H1057.51L1053.35 201.456L1057.58 207H1056.03ZM1065.23 204.3L1066.13 204.804C1065.68 205.956 1064.49 207.144 1062.37 207.144C1059.69 207.144 1058.1 205.146 1058.1 202.104C1058.1 199.314 1059.76 197.316 1062.24 197.316C1064.3 197.316 1066.06 198.792 1066.06 201.384L1066.02 202.446H1059.35C1059.45 204.984 1060.66 206.064 1062.5 206.064C1063.94 206.064 1064.78 205.236 1065.23 204.3ZM1062.24 198.396C1060.8 198.396 1059.51 199.17 1059.35 201.438H1064.85C1064.91 199.296 1063.65 198.396 1062.24 198.396Z" fill="white"/>
<path fill-rule="evenodd" clip-rule="evenodd" d="M1120.86 200.893L1113.36 193.393L1110.14 196.607L1114.43 200.893L1110.14 205.179L1113.36 208.393L1120.86 200.893ZM1108 196.607L1113.36 191.25L1123 200.893L1113.36 210.536L1108 205.179L1112.29 200.893L1108 196.607Z" fill="white"/>
<path d="M1136.84 205.812H1143.04V207H1135.58V193.68H1136.84V205.812ZM1151.11 204.3L1152.01 204.804C1151.56 205.956 1150.37 207.144 1148.25 207.144C1145.57 207.144 1143.98 205.146 1143.98 202.104C1143.98 199.314 1145.64 197.316 1148.12 197.316C1150.17 197.316 1151.94 198.792 1151.94 201.384L1151.9 202.446H1145.22C1145.33 204.984 1146.54 206.064 1148.37 206.064C1149.81 206.064 1150.66 205.236 1151.11 204.3ZM1148.12 198.396C1146.68 198.396 1145.39 199.17 1145.22 201.438H1150.73C1150.79 199.296 1149.53 198.396 1148.12 198.396ZM1158.32 197.316C1160.23 197.316 1161.35 198.486 1161.35 200.628V207H1160.12V200.808C1160.12 199.08 1159.33 198.432 1158 198.432C1156.32 198.432 1155.55 199.728 1155.55 201.636V207H1154.33V197.46H1155.55V198.936C1156.13 197.892 1157.17 197.316 1158.32 197.316ZM1170.03 207L1166.52 202.266L1165.35 203.382V207H1164.13V193.68H1165.35V201.942L1169.89 197.46H1171.51L1167.35 201.456L1171.58 207H1170.03ZM1179.23 204.3L1180.13 204.804C1179.68 205.956 1178.49 207.144 1176.37 207.144C1173.69 207.144 1172.1 205.146 1172.1 202.104C1172.1 199.314 1173.76 197.316 1176.24 197.316C1178.3 197.316 1180.06 198.792 1180.06 201.384L1180.02 202.446H1173.35C1173.45 204.984 1174.66 206.064 1176.5 206.064C1177.94 206.064 1178.78 205.236 1179.23 204.3ZM1176.24 198.396C1174.8 198.396 1173.51 199.17 1173.35 201.438H1178.85C1178.91 199.296 1177.65 198.396 1176.24 198.396Z" fill="white"/>
<path fill-rule="evenodd" clip-rule="evenodd" d="M1234.86 200.893L1227.36 193.393L1224.14 196.607L1228.43 200.893L1224.14 205.179L1227.36 208.393L1234.86 200.893ZM1222 196.607L1227.36 191.25L1237 200.893L1227.36 210.536L1222 205.179L1226.29 200.893L1222 196.607Z" fill="white"/>
<path d="M1250.84 205.812H1257.04V207H1249.58V193.68H1250.84V205.812ZM1265.11 204.3L1266.01 204.804C1265.56 205.956 1264.37 207.144 1262.25 207.144C1259.57 207.144 1257.98 205.146 1257.98 202.104C1257.98 199.314 1259.64 197.316 1262.12 197.316C1264.17 197.316 1265.94 198.792 1265.94 201.384L1265.9 202.446H1259.22C1259.33 204.984 1260.54 206.064 1262.37 206.064C1263.81 206.064 1264.66 205.236 1265.11 204.3ZM1262.12 198.396C1260.68 198.396 1259.39 199.17 1259.22 201.438H1264.73C1264.79 199.296 1263.53 198.396 1262.12 198.396ZM1272.32 197.316C1274.23 197.316 1275.35 198.486 1275.35 200.628V207H1274.12V200.808C1274.12 199.08 1273.33 198.432 1272 198.432C1270.32 198.432 1269.55 199.728 1269.55 201.636V207H1268.33V197.46H1269.55V198.936C1270.13 197.892 1271.17 197.316 1272.32 197.316ZM1284.03 207L1280.52 202.266L1279.35 203.382V207H1278.13V193.68H1279.35V201.942L1283.89 197.46H1285.51L1281.35 201.456L1285.58 207H1284.03ZM1293.23 204.3L1294.13 204.804C1293.68 205.956 1292.49 207.144 1290.37 207.144C1287.69 207.144 1286.1 205.146 1286.1 202.104C1286.1 199.314 1287.76 197.316 1290.24 197.316C1292.3 197.316 1294.06 198.792 1294.06 201.384L1294.02 202.446H1287.35C1287.45 204.984 1288.66 206.064 1290.5 206.064C1291.94 206.064 1292.78 205.236 1293.23 204.3ZM1290.24 198.396C1288.8 198.396 1287.51 199.17 1287.35 201.438H1292.85C1292.91 199.296 1291.65 198.396 1290.24 198.396Z" fill="white"/>
</svg>
