<svg width="624" height="1011" viewBox="0 0 624 1011" fill="none" xmlns="http://www.w3.org/2000/svg">
<rect width="624" height="1011" fill="white"/>
<g clip-path="url(#clip0_5111_156250)">
<rect x="116" y="79" width="393" height="852" rx="40" fill="#D1F9FF"/>
<rect width="393" height="311" transform="translate(116 636)" fill="#2A2859"/>
<path fill-rule="evenodd" clip-rule="evenodd" d="M160.857 690.393L153.357 682.893L150.143 686.107L154.429 690.393L150.143 694.679L153.357 697.893L160.857 690.393ZM148 686.107L153.357 680.75L163 690.393L153.357 700.036L148 694.679L152.286 690.393L148 686.107Z" fill="white"/>
<path d="M183.432 696L178.41 689.628L176.844 691.266V696H175.584V682.68H176.844V689.646L183.342 682.68H184.98L179.238 688.746L185.052 696H183.432ZM189.59 696.144C187.232 696.144 185.342 694.2 185.342 691.212C185.342 688.26 187.214 686.316 189.59 686.316C191.966 686.316 193.838 688.26 193.838 691.212C193.838 694.2 191.948 696.144 189.59 696.144ZM189.59 695.064C191.228 695.064 192.578 693.768 192.578 691.212C192.578 688.674 191.21 687.396 189.59 687.396C187.97 687.396 186.602 688.674 186.602 691.212C186.602 693.768 187.952 695.064 189.59 695.064ZM200.321 686.316C202.229 686.316 203.345 687.486 203.345 689.628V696H202.121V689.808C202.121 688.08 201.329 687.432 199.997 687.432C198.323 687.432 197.549 688.728 197.549 690.636V696H196.325V686.46H197.549V687.936C198.125 686.892 199.169 686.316 200.321 686.316ZM208.2 693.624C208.2 694.74 208.866 695.064 209.46 695.064C210.036 695.064 210.414 694.848 210.864 694.38L211.512 695.1C210.882 695.838 210.198 696.144 209.352 696.144C208.056 696.144 206.976 695.28 206.976 693.588V687.468H205.176V686.46H206.976V684.408L208.2 683.688V686.46H211.296V687.468H208.2V693.624ZM220.363 696H219.247C219.103 695.478 218.995 694.848 218.995 694.128C218.509 695.244 217.267 696.144 215.719 696.144C214.027 696.144 212.749 695.046 212.749 693.408C212.749 691.446 214.513 690.42 216.475 690.42C217.249 690.42 218.005 690.51 218.779 690.78V689.52C218.779 688.278 218.023 687.432 216.547 687.432C215.359 687.432 214.351 687.954 213.847 689.412L212.767 689.088C213.487 687.072 214.945 686.316 216.619 686.316C218.977 686.316 219.967 687.738 219.967 689.376V693.3C219.967 694.38 220.147 695.352 220.363 696ZM218.779 692.04V691.824C218.041 691.518 217.285 691.428 216.547 691.428C215.107 691.428 213.973 692.076 213.973 693.336C213.973 694.488 214.783 695.1 215.935 695.1C217.177 695.1 218.779 694.362 218.779 692.04ZM229.002 696L225.492 691.266L224.322 692.382V696H223.098V682.68H224.322V690.942L228.858 686.46H230.478L226.32 690.456L230.55 696H229.002ZM234.163 693.624C234.163 694.74 234.829 695.064 235.423 695.064C235.999 695.064 236.377 694.848 236.827 694.38L237.475 695.1C236.845 695.838 236.161 696.144 235.315 696.144C234.019 696.144 232.939 695.28 232.939 693.588V687.468H231.139V686.46H232.939V684.408L234.163 683.688V686.46H237.259V687.468H234.163V693.624ZM249.285 696.144C246.117 696.144 243.525 693.534 243.525 689.268C243.525 685.074 246.117 682.536 249.285 682.536C252.453 682.536 255.045 685.074 255.045 689.268C255.045 693.534 252.453 696.144 249.285 696.144ZM249.285 694.956C251.697 694.956 253.749 693.03 253.749 689.268C253.749 685.434 251.769 683.724 249.285 683.724C246.801 683.724 244.821 685.434 244.821 689.268C244.821 693.03 246.873 694.956 249.285 694.956ZM256.853 688.944C256.853 687.432 258.275 686.316 260.273 686.316C262.001 686.316 263.333 687.144 263.729 688.404L262.721 688.8C262.343 687.882 261.461 687.396 260.237 687.396C258.905 687.396 258.041 687.954 258.041 688.836C258.041 689.628 258.563 690.114 259.697 690.348L260.957 690.6C263.045 691.014 264.017 691.914 264.017 693.336C264.017 694.992 262.541 696.144 260.417 696.144C258.491 696.144 257.141 695.388 256.493 693.948L257.537 693.516C257.987 694.524 258.977 695.064 260.381 695.064C261.857 695.064 262.829 694.416 262.829 693.444C262.829 692.544 262.325 692.058 261.065 691.788L259.517 691.464C257.771 691.104 256.853 690.222 256.853 688.944ZM269.415 695.964C269.127 696.036 268.893 696.072 268.623 696.072C267.129 696.072 266.427 695.136 266.427 693.732V682.68H267.651V693.732C267.651 694.542 268.083 694.956 268.839 694.956C269.037 694.956 269.235 694.938 269.415 694.884V695.964ZM275.002 696.144C272.644 696.144 270.754 694.2 270.754 691.212C270.754 688.26 272.626 686.316 275.002 686.316C277.378 686.316 279.25 688.26 279.25 691.212C279.25 694.2 277.36 696.144 275.002 696.144ZM275.002 695.064C276.64 695.064 277.99 693.768 277.99 691.212C277.99 688.674 276.622 687.396 275.002 687.396C273.382 687.396 272.014 688.674 272.014 691.212C272.014 693.768 273.364 695.064 275.002 695.064ZM292.283 696L288.773 691.266L287.603 692.382V696H286.379V682.68H287.603V690.942L292.139 686.46H293.759L289.601 690.456L293.831 696H292.283ZM298.803 696.144C296.445 696.144 294.555 694.2 294.555 691.212C294.555 688.26 296.427 686.316 298.803 686.316C301.179 686.316 303.051 688.26 303.051 691.212C303.051 694.2 301.161 696.144 298.803 696.144ZM298.803 695.064C300.441 695.064 301.791 693.768 301.791 691.212C301.791 688.674 300.423 687.396 298.803 687.396C297.183 687.396 295.815 688.674 295.815 691.212C295.815 693.768 297.165 695.064 298.803 695.064ZM315.042 686.316C316.86 686.316 317.922 687.468 317.922 689.448V696H316.698V689.628C316.698 688.08 315.96 687.432 314.718 687.432C313.044 687.432 312.342 688.728 312.342 690.636V696H311.118V689.628C311.118 688.08 310.38 687.432 309.138 687.432C307.464 687.432 306.762 688.728 306.762 690.636V696H305.538V686.46H306.762V687.954C307.338 686.892 308.346 686.316 309.462 686.316C310.884 686.316 311.838 687.018 312.18 688.26C312.72 687 313.818 686.316 315.042 686.316ZM330.37 686.316C332.188 686.316 333.25 687.468 333.25 689.448V696H332.026V689.628C332.026 688.08 331.288 687.432 330.046 687.432C328.372 687.432 327.67 688.728 327.67 690.636V696H326.446V689.628C326.446 688.08 325.708 687.432 324.466 687.432C322.792 687.432 322.09 688.728 322.09 690.636V696H320.866V686.46H322.09V687.954C322.666 686.892 323.674 686.316 324.79 686.316C326.212 686.316 327.166 687.018 327.508 688.26C328.048 687 329.146 686.316 330.37 686.316ZM341.738 686.46H342.962V696H341.738V694.542C341.162 695.568 340.154 696.144 338.984 696.144C337.112 696.144 335.978 694.938 335.978 692.868V686.46H337.202V692.76C337.202 694.326 337.994 695.046 339.326 695.046C341.018 695.046 341.738 693.696 341.738 691.824V686.46ZM349.982 686.316C351.89 686.316 353.006 687.486 353.006 689.628V696H351.782V689.808C351.782 688.08 350.99 687.432 349.658 687.432C347.984 687.432 347.21 688.728 347.21 690.636V696H345.986V686.46H347.21V687.936C347.786 686.892 348.83 686.316 349.982 686.316ZM362.468 693.3L363.368 693.804C362.918 694.956 361.73 696.144 359.606 696.144C356.924 696.144 355.34 694.146 355.34 691.104C355.34 688.314 356.996 686.316 359.48 686.316C361.532 686.316 363.296 687.792 363.296 690.384L363.26 691.446H356.582C356.69 693.984 357.896 695.064 359.732 695.064C361.172 695.064 362.018 694.236 362.468 693.3ZM359.48 687.396C358.04 687.396 356.744 688.17 356.582 690.438H362.09C362.144 688.296 360.884 687.396 359.48 687.396Z" fill="white"/>
<path fill-rule="evenodd" clip-rule="evenodd" d="M160.857 741.393L153.357 733.893L150.143 737.107L154.429 741.393L150.143 745.679L153.357 748.893L160.857 741.393ZM148 737.107L153.357 731.75L163 741.393L153.357 751.036L148 745.679L152.286 741.393L148 737.107Z" fill="white"/>
<path d="M179.796 733.68C182.586 733.68 184.26 735.39 184.26 737.784C184.26 740.178 182.496 741.816 179.706 741.816H176.844V747H175.584V733.68H179.796ZM179.85 740.7C181.902 740.7 182.964 739.656 182.964 737.784C182.964 735.912 181.902 734.832 179.85 734.832H176.844V740.7H179.85ZM192.312 744.3L193.212 744.804C192.762 745.956 191.574 747.144 189.45 747.144C186.768 747.144 185.184 745.146 185.184 742.104C185.184 739.314 186.84 737.316 189.324 737.316C191.376 737.316 193.14 738.792 193.14 741.384L193.104 742.446H186.426C186.534 744.984 187.74 746.064 189.576 746.064C191.016 746.064 191.862 745.236 192.312 744.3ZM189.324 738.396C187.884 738.396 186.588 739.17 186.426 741.438H191.934C191.988 739.296 190.728 738.396 189.324 738.396ZM199.148 737.316C200.39 737.316 201.29 738.144 201.29 739.764V740.7L200.174 740.916V739.98C200.174 739.026 199.85 738.396 198.878 738.396C197.78 738.396 196.952 739.206 196.952 741.132V747H195.728V737.46H196.952V738.648C197.456 737.748 198.302 737.316 199.148 737.316ZM202.889 739.944C202.889 738.432 204.311 737.316 206.309 737.316C208.037 737.316 209.369 738.144 209.765 739.404L208.757 739.8C208.379 738.882 207.497 738.396 206.273 738.396C204.941 738.396 204.077 738.954 204.077 739.836C204.077 740.628 204.599 741.114 205.733 741.348L206.993 741.6C209.081 742.014 210.053 742.914 210.053 744.336C210.053 745.992 208.577 747.144 206.453 747.144C204.527 747.144 203.177 746.388 202.529 744.948L203.573 744.516C204.023 745.524 205.013 746.064 206.417 746.064C207.893 746.064 208.865 745.416 208.865 744.444C208.865 743.544 208.361 743.058 207.101 742.788L205.553 742.464C203.807 742.104 202.889 741.222 202.889 739.944ZM216.098 747.144C213.74 747.144 211.85 745.2 211.85 742.212C211.85 739.26 213.722 737.316 216.098 737.316C218.474 737.316 220.346 739.26 220.346 742.212C220.346 745.2 218.456 747.144 216.098 747.144ZM216.098 746.064C217.736 746.064 219.086 744.768 219.086 742.212C219.086 739.674 217.718 738.396 216.098 738.396C214.478 738.396 213.11 739.674 213.11 742.212C213.11 744.768 214.46 746.064 216.098 746.064ZM226.829 737.316C228.737 737.316 229.853 738.486 229.853 740.628V747H228.629V740.808C228.629 739.08 227.837 738.432 226.505 738.432C224.831 738.432 224.057 739.728 224.057 741.636V747H222.833V737.46H224.057V738.936C224.633 737.892 225.677 737.316 226.829 737.316ZM238.708 737.46H239.968L236.224 747H235.144L231.4 737.46H232.732L235.72 745.65L238.708 737.46ZM248 744.3L248.9 744.804C248.45 745.956 247.262 747.144 245.138 747.144C242.456 747.144 240.872 745.146 240.872 742.104C240.872 739.314 242.528 737.316 245.012 737.316C247.064 737.316 248.828 738.792 248.828 741.384L248.792 742.446H242.114C242.222 744.984 243.428 746.064 245.264 746.064C246.704 746.064 247.55 745.236 248 744.3ZM245.012 738.396C243.572 738.396 242.276 739.17 242.114 741.438H247.622C247.676 739.296 246.416 738.396 245.012 738.396ZM254.835 737.316C256.077 737.316 256.977 738.144 256.977 739.764V740.7L255.861 740.916V739.98C255.861 739.026 255.537 738.396 254.565 738.396C253.467 738.396 252.639 739.206 252.639 741.132V747H251.415V737.46H252.639V738.648C253.143 737.748 253.989 737.316 254.835 737.316ZM263.392 737.316C265.3 737.316 266.416 738.486 266.416 740.628V747H265.192V740.808C265.192 739.08 264.4 738.432 263.068 738.432C261.394 738.432 260.62 739.728 260.62 741.636V747H259.396V737.46H260.62V738.936C261.196 737.892 262.24 737.316 263.392 737.316ZM277.604 747.144C275.246 747.144 273.356 745.2 273.356 742.212C273.356 739.26 275.228 737.316 277.604 737.316C279.98 737.316 281.852 739.26 281.852 742.212C281.852 745.2 279.962 747.144 277.604 747.144ZM277.604 746.064C279.242 746.064 280.592 744.768 280.592 742.212C280.592 739.674 279.224 738.396 277.604 738.396C275.984 738.396 274.616 739.674 274.616 742.212C274.616 744.768 275.966 746.064 277.604 746.064ZM292.362 738.468H290.31V738.81C290.778 739.386 291.03 740.106 291.03 740.808C291.03 742.554 289.77 744.336 287.088 744.336H286.674C285.594 744.336 284.82 744.75 284.82 745.38C284.82 745.866 285.198 746.208 285.99 746.208H289.86C291.408 746.208 292.2 746.964 292.2 748.152C292.2 750.042 290.022 751.032 287.34 751.032C284.928 751.032 283.254 750.258 282.678 748.584L283.668 748.134C284.334 749.7 285.738 750.006 287.34 750.006C289.32 750.006 290.976 749.412 290.976 748.26C290.976 747.72 290.688 747.324 289.824 747.324H285.72C284.388 747.324 283.596 746.694 283.596 745.704C283.596 744.858 284.298 744.12 285.468 743.814C284.208 743.31 283.506 741.978 283.506 740.808C283.506 739.098 284.784 737.316 287.304 737.316C288.294 737.316 289.05 737.64 289.626 738.126V737.46H292.362V738.468ZM287.286 743.328C288.978 743.328 289.824 742.158 289.824 740.808C289.824 739.476 288.978 738.36 287.286 738.36C285.576 738.36 284.712 739.494 284.712 740.808C284.712 742.14 285.576 743.328 287.286 743.328ZM299.488 735.732C298.894 735.732 298.408 735.264 298.408 734.652C298.408 734.04 298.894 733.572 299.488 733.572C300.082 733.572 300.568 734.04 300.568 734.652C300.568 735.264 300.082 735.732 299.488 735.732ZM298.876 747V737.46H300.1V747H298.876ZM307.196 737.316C309.104 737.316 310.22 738.486 310.22 740.628V747H308.996V740.808C308.996 739.08 308.204 738.432 306.872 738.432C305.198 738.432 304.424 739.728 304.424 741.636V747H303.2V737.46H304.424V738.936C305 737.892 306.044 737.316 307.196 737.316ZM315.075 736.128V737.46H317.739V738.468H315.075V747H313.851V738.468H312.051V737.46H313.851V736.128C313.851 734.472 314.931 733.536 316.407 733.536C317.091 733.536 317.883 733.806 318.333 734.526L317.595 735.264C317.307 734.832 316.875 734.58 316.371 734.58C315.741 734.58 315.075 734.958 315.075 736.128ZM322.692 747.144C320.334 747.144 318.444 745.2 318.444 742.212C318.444 739.26 320.316 737.316 322.692 737.316C325.068 737.316 326.94 739.26 326.94 742.212C326.94 745.2 325.05 747.144 322.692 747.144ZM322.692 746.064C324.33 746.064 325.68 744.768 325.68 742.212C325.68 739.674 324.312 738.396 322.692 738.396C321.072 738.396 319.704 739.674 319.704 742.212C319.704 744.768 321.054 746.064 322.692 746.064ZM332.847 737.316C334.089 737.316 334.989 738.144 334.989 739.764V740.7L333.873 740.916V739.98C333.873 739.026 333.549 738.396 332.577 738.396C331.479 738.396 330.651 739.206 330.651 741.132V747H329.427V737.46H330.651V738.648C331.155 737.748 332.001 737.316 332.847 737.316ZM346.911 737.316C348.729 737.316 349.791 738.468 349.791 740.448V747H348.567V740.628C348.567 739.08 347.829 738.432 346.587 738.432C344.913 738.432 344.211 739.728 344.211 741.636V747H342.987V740.628C342.987 739.08 342.249 738.432 341.007 738.432C339.333 738.432 338.631 739.728 338.631 741.636V747H337.407V737.46H338.631V738.954C339.207 737.892 340.215 737.316 341.331 737.316C342.753 737.316 343.707 738.018 344.049 739.26C344.589 738 345.687 737.316 346.911 737.316ZM359.846 747H358.73C358.586 746.478 358.478 745.848 358.478 745.128C357.992 746.244 356.75 747.144 355.202 747.144C353.51 747.144 352.232 746.046 352.232 744.408C352.232 742.446 353.996 741.42 355.958 741.42C356.732 741.42 357.488 741.51 358.262 741.78V740.52C358.262 739.278 357.506 738.432 356.03 738.432C354.842 738.432 353.833 738.954 353.33 740.412L352.25 740.088C352.97 738.072 354.428 737.316 356.102 737.316C358.46 737.316 359.45 738.738 359.45 740.376V744.3C359.45 745.38 359.63 746.352 359.846 747ZM358.262 743.04V742.824C357.524 742.518 356.768 742.428 356.03 742.428C354.59 742.428 353.456 743.076 353.456 744.336C353.456 745.488 354.266 746.1 355.418 746.1C356.66 746.1 358.262 745.362 358.262 743.04ZM362.076 739.944C362.076 738.432 363.498 737.316 365.496 737.316C367.224 737.316 368.556 738.144 368.952 739.404L367.944 739.8C367.566 738.882 366.684 738.396 365.46 738.396C364.128 738.396 363.264 738.954 363.264 739.836C363.264 740.628 363.786 741.114 364.92 741.348L366.18 741.6C368.268 742.014 369.24 742.914 369.24 744.336C369.24 745.992 367.764 747.144 365.64 747.144C363.714 747.144 362.364 746.388 361.716 744.948L362.76 744.516C363.21 745.524 364.2 746.064 365.604 746.064C367.08 746.064 368.052 745.416 368.052 744.444C368.052 743.544 367.548 743.058 366.288 742.788L364.74 742.464C362.994 742.104 362.076 741.222 362.076 739.944ZM371.254 733.752H373.126V735.588H371.254V733.752ZM370.75 750.906C370.426 750.906 370.12 750.852 369.814 750.762L369.922 749.682C370.174 749.772 370.408 749.79 370.57 749.79C371.416 749.79 371.578 749.214 371.578 748.386V737.46H372.802V748.458C372.802 750.078 372.1 750.906 370.75 750.906ZM379.539 747.144C377.181 747.144 375.291 745.2 375.291 742.212C375.291 739.26 377.163 737.316 379.539 737.316C381.915 737.316 383.787 739.26 383.787 742.212C383.787 745.2 381.897 747.144 379.539 747.144ZM379.539 746.064C381.177 746.064 382.527 744.768 382.527 742.212C382.527 739.674 381.159 738.396 379.539 738.396C377.919 738.396 376.551 739.674 376.551 742.212C376.551 744.768 377.901 746.064 379.539 746.064ZM390.271 737.316C392.179 737.316 393.295 738.486 393.295 740.628V747H392.071V740.808C392.071 739.08 391.279 738.432 389.947 738.432C388.273 738.432 387.499 739.728 387.499 741.636V747H386.275V737.46H387.499V738.936C388.075 737.892 389.119 737.316 390.271 737.316ZM395.773 739.944C395.773 738.432 397.195 737.316 399.193 737.316C400.921 737.316 402.253 738.144 402.649 739.404L401.641 739.8C401.263 738.882 400.381 738.396 399.157 738.396C397.825 738.396 396.961 738.954 396.961 739.836C396.961 740.628 397.483 741.114 398.617 741.348L399.877 741.6C401.965 742.014 402.937 742.914 402.937 744.336C402.937 745.992 401.461 747.144 399.337 747.144C397.411 747.144 396.061 746.388 395.413 744.948L396.457 744.516C396.907 745.524 397.897 746.064 399.301 746.064C400.777 746.064 401.749 745.416 401.749 744.444C401.749 743.544 401.245 743.058 399.985 742.788L398.437 742.464C396.691 742.104 395.773 741.222 395.773 739.944ZM411.287 747L407.777 742.266L406.607 743.382V747H405.383V733.68H406.607V741.942L411.143 737.46H412.763L408.605 741.456L412.835 747H411.287ZM421.281 747H420.165C420.021 746.478 419.913 745.848 419.913 745.128C419.427 746.244 418.185 747.144 416.637 747.144C414.945 747.144 413.667 746.046 413.667 744.408C413.667 742.446 415.431 741.42 417.393 741.42C418.167 741.42 418.923 741.51 419.697 741.78V740.52C419.697 739.278 418.941 738.432 417.465 738.432C416.277 738.432 415.269 738.954 414.765 740.412L413.685 740.088C414.405 738.072 415.863 737.316 417.537 737.316C419.895 737.316 420.885 738.738 420.885 740.376V744.3C420.885 745.38 421.065 746.352 421.281 747ZM419.697 743.04V742.824C418.959 742.518 418.203 742.428 417.465 742.428C416.025 742.428 414.891 743.076 414.891 744.336C414.891 745.488 415.701 746.1 416.853 746.1C418.095 746.1 419.697 745.362 419.697 743.04ZM428.336 737.334C430.766 737.334 432.404 739.368 432.404 742.14C432.404 745.074 430.748 747.144 428.192 747.144C426.86 747.144 425.78 746.478 425.204 745.272V750.78H423.98V737.46H425.204V739.242C425.834 738.018 427.094 737.334 428.336 737.334ZM428.192 746.064C429.974 746.064 431.144 744.696 431.144 742.194C431.144 739.782 429.974 738.414 428.21 738.414C426.302 738.414 425.204 739.836 425.204 742.176C425.204 744.66 426.284 746.064 428.192 746.064ZM434.428 739.944C434.428 738.432 435.85 737.316 437.848 737.316C439.576 737.316 440.908 738.144 441.304 739.404L440.296 739.8C439.918 738.882 439.036 738.396 437.812 738.396C436.48 738.396 435.616 738.954 435.616 739.836C435.616 740.628 436.138 741.114 437.272 741.348L438.532 741.6C440.62 742.014 441.592 742.914 441.592 744.336C441.592 745.992 440.116 747.144 437.992 747.144C436.066 747.144 434.716 746.388 434.068 744.948L435.112 744.516C435.562 745.524 436.552 746.064 437.956 746.064C439.432 746.064 440.404 745.416 440.404 744.444C440.404 743.544 439.9 743.058 438.64 742.788L437.092 742.464C435.346 742.104 434.428 741.222 434.428 739.944ZM446.989 746.964C446.701 747.036 446.467 747.072 446.197 747.072C444.703 747.072 444.001 746.136 444.001 744.732V733.68H445.225V744.732C445.225 745.542 445.657 745.956 446.413 745.956C446.611 745.956 446.809 745.938 446.989 745.884V746.964ZM455.457 744.3L456.357 744.804C455.907 745.956 454.719 747.144 452.595 747.144C449.913 747.144 448.329 745.146 448.329 742.104C448.329 739.314 449.985 737.316 452.469 737.316C454.521 737.316 456.285 738.792 456.285 741.384L456.249 742.446H449.571C449.679 744.984 450.885 746.064 452.721 746.064C454.161 746.064 455.007 745.236 455.457 744.3ZM452.469 738.396C451.029 738.396 449.733 739.17 449.571 741.438H455.079C455.133 739.296 453.873 738.396 452.469 738.396ZM462.292 737.316C463.534 737.316 464.434 738.144 464.434 739.764V740.7L463.318 740.916V739.98C463.318 739.026 462.994 738.396 462.022 738.396C460.924 738.396 460.096 739.206 460.096 741.132V747H458.872V737.46H460.096V738.648C460.6 737.748 461.446 737.316 462.292 737.316Z" fill="white"/>
<path fill-rule="evenodd" clip-rule="evenodd" d="M160.857 792.393L153.357 784.893L150.143 788.107L154.429 792.393L150.143 796.679L153.357 799.893L160.857 792.393ZM148 788.107L153.357 782.75L163 792.393L153.357 802.036L148 796.679L152.286 792.393L148 788.107Z" fill="white"/>
<path d="M176.844 796.812H183.036V798H175.584V784.68H176.844V796.812ZM191.31 795.3L192.21 795.804C191.76 796.956 190.572 798.144 188.448 798.144C185.766 798.144 184.182 796.146 184.182 793.104C184.182 790.314 185.838 788.316 188.322 788.316C190.374 788.316 192.138 789.792 192.138 792.384L192.102 793.446H185.424C185.532 795.984 186.738 797.064 188.574 797.064C190.014 797.064 190.86 796.236 191.31 795.3ZM188.322 789.396C186.882 789.396 185.586 790.17 185.424 792.438H190.932C190.986 790.296 189.726 789.396 188.322 789.396ZM198.722 788.316C200.63 788.316 201.746 789.486 201.746 791.628V798H200.522V791.808C200.522 790.08 199.73 789.432 198.398 789.432C196.724 789.432 195.95 790.728 195.95 792.636V798H194.726V788.46H195.95V789.936C196.526 788.892 197.57 788.316 198.722 788.316ZM210.633 798L207.123 793.266L205.953 794.382V798H204.729V784.68H205.953V792.942L210.489 788.46H212.109L207.951 792.456L212.181 798H210.633ZM220.033 795.3L220.933 795.804C220.483 796.956 219.295 798.144 217.171 798.144C214.489 798.144 212.905 796.146 212.905 793.104C212.905 790.314 214.561 788.316 217.045 788.316C219.097 788.316 220.861 789.792 220.861 792.384L220.825 793.446H214.147C214.255 795.984 215.461 797.064 217.297 797.064C218.737 797.064 219.583 796.236 220.033 795.3ZM217.045 789.396C215.605 789.396 214.309 790.17 214.147 792.438H219.655C219.709 790.296 218.449 789.396 217.045 789.396Z" fill="white"/>
<path fill-rule="evenodd" clip-rule="evenodd" d="M160.857 843.393L153.357 835.893L150.143 839.107L154.429 843.393L150.143 847.679L153.357 850.893L160.857 843.393ZM148 839.107L153.357 833.75L163 843.393L153.357 853.036L148 847.679L152.286 843.393L148 839.107Z" fill="white"/>
<path d="M176.844 847.812H183.036V849H175.584V835.68H176.844V847.812ZM191.31 846.3L192.21 846.804C191.76 847.956 190.572 849.144 188.448 849.144C185.766 849.144 184.182 847.146 184.182 844.104C184.182 841.314 185.838 839.316 188.322 839.316C190.374 839.316 192.138 840.792 192.138 843.384L192.102 844.446H185.424C185.532 846.984 186.738 848.064 188.574 848.064C190.014 848.064 190.86 847.236 191.31 846.3ZM188.322 840.396C186.882 840.396 185.586 841.17 185.424 843.438H190.932C190.986 841.296 189.726 840.396 188.322 840.396ZM198.722 839.316C200.63 839.316 201.746 840.486 201.746 842.628V849H200.522V842.808C200.522 841.08 199.73 840.432 198.398 840.432C196.724 840.432 195.95 841.728 195.95 843.636V849H194.726V839.46H195.95V840.936C196.526 839.892 197.57 839.316 198.722 839.316ZM210.633 849L207.123 844.266L205.953 845.382V849H204.729V835.68H205.953V843.942L210.489 839.46H212.109L207.951 843.456L212.181 849H210.633ZM220.033 846.3L220.933 846.804C220.483 847.956 219.295 849.144 217.171 849.144C214.489 849.144 212.905 847.146 212.905 844.104C212.905 841.314 214.561 839.316 217.045 839.316C219.097 839.316 220.861 840.792 220.861 843.384L220.825 844.446H214.147C214.255 846.984 215.461 848.064 217.297 848.064C218.737 848.064 219.583 847.236 220.033 846.3ZM217.045 840.396C215.605 840.396 214.309 841.17 214.147 843.438H219.655C219.709 841.296 218.449 840.396 217.045 840.396Z" fill="white"/>
<path fill-rule="evenodd" clip-rule="evenodd" d="M160.857 894.393L153.357 886.893L150.143 890.107L154.429 894.393L150.143 898.679L153.357 901.893L160.857 894.393ZM148 890.107L153.357 884.75L163 894.393L153.357 904.036L148 898.679L152.286 894.393L148 890.107Z" fill="white"/>
<path d="M176.844 898.812H183.036V900H175.584V886.68H176.844V898.812ZM191.31 897.3L192.21 897.804C191.76 898.956 190.572 900.144 188.448 900.144C185.766 900.144 184.182 898.146 184.182 895.104C184.182 892.314 185.838 890.316 188.322 890.316C190.374 890.316 192.138 891.792 192.138 894.384L192.102 895.446H185.424C185.532 897.984 186.738 899.064 188.574 899.064C190.014 899.064 190.86 898.236 191.31 897.3ZM188.322 891.396C186.882 891.396 185.586 892.17 185.424 894.438H190.932C190.986 892.296 189.726 891.396 188.322 891.396ZM198.722 890.316C200.63 890.316 201.746 891.486 201.746 893.628V900H200.522V893.808C200.522 892.08 199.73 891.432 198.398 891.432C196.724 891.432 195.95 892.728 195.95 894.636V900H194.726V890.46H195.95V891.936C196.526 890.892 197.57 890.316 198.722 890.316ZM210.633 900L207.123 895.266L205.953 896.382V900H204.729V886.68H205.953V894.942L210.489 890.46H212.109L207.951 894.456L212.181 900H210.633ZM220.033 897.3L220.933 897.804C220.483 898.956 219.295 900.144 217.171 900.144C214.489 900.144 212.905 898.146 212.905 895.104C212.905 892.314 214.561 890.316 217.045 890.316C219.097 890.316 220.861 891.792 220.861 894.384L220.825 895.446H214.147C214.255 897.984 215.461 899.064 217.297 899.064C218.737 899.064 219.583 898.236 220.033 897.3ZM217.045 891.396C215.605 891.396 214.309 892.17 214.147 894.438H219.655C219.709 892.296 218.449 891.396 217.045 891.396Z" fill="white"/>
</g>
<defs>
<clipPath id="clip0_5111_156250">
<rect x="116" y="79" width="393" height="852" rx="40" fill="white"/>
</clipPath>
</defs>
</svg>
