<svg width="621" height="416" viewBox="0 0 621 416" fill="none" xmlns="http://www.w3.org/2000/svg">
<g clip-path="url(#clip0_4332_152803)">
<rect x="539.234" y="265.871" width="109.679" height="100.971" fill="#6FE9FF"/>
<path d="M601.119 230C552.337 230 512.806 269.745 512.806 318.791C512.806 367.836 552.337 407.581 601.119 407.581C649.9 407.581 689.432 367.836 689.432 318.791C689.432 269.745 649.803 230 601.119 230ZM601.119 357.948C579.6 357.948 562.171 340.425 562.171 318.791C562.171 297.156 579.6 279.633 601.119 279.633C622.637 279.633 640.066 297.156 640.066 318.791C640.066 340.425 622.637 357.948 601.119 357.948Z" fill="#2A2859"/>
<rect x="131.949" y="14.1499" width="37.9429" height="34.2" fill="#FF8274"/>
<path d="M153.357 2C136.481 2 122.806 15.4621 122.806 32.0742C122.806 48.6863 136.481 62.1484 153.357 62.1484C170.233 62.1484 183.909 48.6863 183.909 32.0742C183.909 15.4621 170.199 2 153.357 2ZM153.357 45.3374C145.913 45.3374 139.884 39.4021 139.884 32.0742C139.884 24.7463 145.913 18.8111 153.357 18.8111C160.801 18.8111 166.831 24.7463 166.831 32.0742C166.831 39.4021 160.801 45.3374 153.357 45.3374Z" fill="#FFB4AC"/>
<circle cx="66" cy="175" r="34" fill="#D9D9D9"/>
<path fill-rule="evenodd" clip-rule="evenodd" d="M134.5 238H38V237.329C35.9025 237.769 33.7283 238 31.5 238C14.103 238 0 223.897 0 206.5C0 189.103 14.103 175 31.5 175C31.667 175 31.8336 175.001 32 175.004V175C32 156.222 47.2223 141 66 141C78.8948 141 90.1129 148.178 95.8764 158.757C98.9461 152.392 105.46 148 113 148C123.493 148 132 156.507 132 167C132 169.978 131.315 172.797 130.093 175.306C131.533 175.104 133.004 175 134.5 175C151.897 175 166 189.103 166 206.5C166 223.73 152.166 237.729 135 237.996V238H134.5Z" fill="#6FE9FF"/>
<path fill-rule="evenodd" clip-rule="evenodd" d="M396.5 378H300V377.329C297.903 377.769 295.728 378 293.5 378C276.103 378 262 363.897 262 346.5C262 329.103 276.103 315 293.5 315C293.667 315 293.834 315.001 294 315.004V315C294 296.222 309.222 281 328 281C340.895 281 352.113 288.178 357.876 298.757C360.946 292.392 367.46 288 375 288C385.493 288 394 296.507 394 307C394 309.978 393.315 312.797 392.093 315.306C393.533 315.104 395.004 315 396.5 315C413.897 315 428 329.103 428 346.5C428 363.73 414.166 377.729 397 377.996V378H396.5Z" fill="#6FE9FF"/>
<path fill-rule="evenodd" clip-rule="evenodd" d="M571.681 163.564C570.318 163.85 568.906 164 567.459 164C556.16 164 547 154.84 547 143.541C547 132.242 556.16 123.082 567.459 123.082C567.567 123.082 567.675 123.083 567.783 123.085V123.082C567.783 110.887 577.67 101 589.866 101C598.241 101 605.527 105.662 609.27 112.533C611.264 108.399 615.495 105.546 620.392 105.546C627.207 105.546 632.732 111.071 632.732 117.887C632.732 119.821 632.287 121.651 631.494 123.281C632.429 123.15 633.385 123.082 634.356 123.082C645.655 123.082 654.815 132.242 654.815 143.541C654.815 154.732 645.83 163.824 634.681 163.997V164H571.681V163.564Z" fill="#6FE9FF"/>
<circle cx="341" cy="121" r="12" fill="#F9C66B"/>
<circle cx="314" cy="145" r="12" fill="#F9C66B"/>
<circle cx="427" cy="41" r="41" fill="#F9C66B"/>
<path fill-rule="evenodd" clip-rule="evenodd" d="M397.791 12L455.395 69.6047L417.889 107.111L429.789 119.01L429.799 119L437.577 126.778L437.567 126.789L437.577 126.799L429.799 134.577L429.789 134.567L417.778 146.577L410 138.799L422.011 126.789L410.111 114.889L397.791 127.209L340.186 69.6047L353.006 56.7843L343.789 47.5667L331.778 59.5772L324 51.7991L336.011 39.7885L336 39.7782L343.778 32L343.789 32.0104L343.799 32.0001L351.577 39.7783L351.567 39.7885L360.784 49.0061L397.791 12Z" fill="#2A2859"/>
<rect x="439.456" y="41.728" width="18" height="18" transform="rotate(135 439.456 41.728)" fill="#F8F0DD"/>
<path d="M392.56 68.2214L391.326 66.9882L393.951 64.3634L392.299 63.4583L390.048 65.7098L387.717 63.3791L394.788 60.019L393.476 58.7066L386.099 62.1686L385.138 63.1302L388.883 66.8751L386.891 68.8663L388.17 70.1447L390.161 68.1535L391.394 69.3867L392.56 68.2214ZM393.183 75.3394C394.903 77.0591 397.856 76.9799 400.628 74.208C403.4 71.4362 403.49 68.4946 401.759 66.7636C400.04 65.0439 397.087 65.1231 394.315 67.895C391.543 70.6668 391.475 73.631 393.183 75.3394ZM394.439 74.0836C393.398 73.0427 393.579 71.3909 395.695 69.2753C397.788 67.1822 399.463 66.9786 400.503 68.0194C401.544 69.0603 401.341 70.7347 399.248 72.8278C397.132 74.9434 395.48 75.1244 394.439 74.0836ZM406.75 82.4122L405.517 81.179L408.142 78.5542L406.49 77.6491L404.239 79.9005L401.908 77.5699L408.979 74.2097L407.667 72.8973L400.29 76.3593L399.329 77.321L403.073 81.0658L401.082 83.057L402.361 84.3355L404.352 82.3443L405.585 83.5775L406.75 82.4122Z" fill="white"/>
</g>
<defs>
<clipPath id="clip0_4332_152803">
<rect width="697.806" height="416" fill="white"/>
</clipPath>
</defs>
</svg>
