<svg width="922" height="212" viewBox="0 0 922 212" fill="none" xmlns="http://www.w3.org/2000/svg">
<mask id="path-1-inside-1_4768_151065" fill="white">
<path d="M0 55.6729H455.751V211.588H0V55.6729Z"/>
</mask>
<path d="M0 55.6729H455.751V211.588H0V55.6729Z" fill="white"/>
<path d="M455.751 211.588V212.588H456.751V211.588H455.751ZM0 211.588H-1V212.588H0V211.588ZM454.751 55.6729V211.588H456.751V55.6729H454.751ZM455.751 210.588H0V212.588H455.751V210.588ZM1 211.588V55.6729H-1V211.588H1Z" fill="#E6E6E6" mask="url(#path-1-inside-1_4768_151065)"/>
<mask id="path-3-inside-2_4768_151065" fill="white">
<path d="M465 55.6729H921.751V211.588H465V55.6729Z"/>
</mask>
<path d="M465 55.6729H921.751V211.588H465V55.6729Z" fill="white"/>
<path d="M921.751 211.588V212.588H922.751V211.588H921.751ZM465 211.588H464V212.588H465V211.588ZM920.751 55.6729V211.588H922.751V55.6729H920.751ZM921.751 210.588H465V212.588H921.751V210.588ZM466 211.588V55.6729H464V211.588H466Z" fill="#E6E6E6" mask="url(#path-3-inside-2_4768_151065)"/>
<rect x="0.5" y="1.20215" width="454.316" height="53.97" stroke="#E6E6E6"/>
<rect x="465.693" y="1.20215" width="455.304" height="53.97" stroke="#E6E6E6"/>
<path d="M0 44.6787H455.316V55.6727H0V44.6787Z" fill="#C7F6C9"/>
<path opacity="0.6" d="M465.193 44.6787H921.497V55.6727H465.193V44.6787Z" fill="#FF8274"/>
<path d="M20.2116 28.8461C21.7956 28.8461 23.3796 28.3821 24.4356 27.5021V22.3021H18.9796V23.5981H23.1556V26.8461C22.3556 27.3101 21.4916 27.5501 20.2916 27.5501C17.8276 27.5501 16.0996 25.8381 16.0996 22.7181C16.0996 19.5981 17.9236 18.0781 20.0676 18.0781C21.4116 18.0781 22.5636 18.7501 23.1396 19.9981L24.4036 19.3421C23.6516 17.6621 22.1476 16.7181 20.0836 16.7181C17.0916 16.7181 14.6116 19.0701 14.6116 22.7181C14.6116 26.4781 16.9636 28.8461 20.2116 28.8461ZM27.5186 18.7341C28.1106 18.7341 28.5906 18.2701 28.5906 17.6461C28.5906 17.0381 28.1106 16.5741 27.5186 16.5741C26.9106 16.5741 26.4306 17.0381 26.4306 17.6461C26.4306 18.2701 26.9106 18.7341 27.5186 18.7341ZM26.1906 32.1901C27.5506 32.1901 28.2066 31.3421 28.2066 29.8061V20.2221H26.8306V29.8221C26.8306 30.5421 26.6226 31.0061 25.9186 31.0061C25.7586 31.0061 25.5666 30.9901 25.3426 30.9101L25.2306 32.0461C25.5346 32.1421 25.8706 32.1901 26.1906 32.1901ZM36.3084 20.7981L37.0124 19.4061H36.1964L35.6844 20.4141C35.2044 20.1901 34.6604 20.0621 34.0844 20.0621C31.9244 20.0621 30.1964 21.7901 30.1964 24.4301C30.1964 26.0621 30.8364 27.3421 31.8124 28.0941L31.1084 29.5021H31.9404L32.4524 28.4781C32.9484 28.7181 33.5084 28.8461 34.0844 28.8461C36.2124 28.8461 37.9564 27.1181 37.9564 24.4301C37.9564 22.8141 37.3164 21.5341 36.3084 20.7981ZM31.6204 24.4301C31.6204 22.2701 32.7404 21.2621 34.0844 21.2621C34.4524 21.2621 34.8204 21.3421 35.1404 21.5021L32.4044 26.9261C31.9244 26.3981 31.6204 25.5661 31.6204 24.4301ZM34.0844 27.6461C33.7004 27.6461 33.3324 27.5661 32.9964 27.3901L35.7324 21.9501C36.2284 22.4781 36.5324 23.2941 36.5324 24.4301C36.5324 26.5901 35.4284 27.6461 34.0844 27.6461ZM43.2918 20.0621C42.5398 20.0621 41.7398 20.4461 41.2758 21.3101V20.2221H39.8998V28.7021H41.2758V23.5981C41.2758 21.9181 41.9798 21.2461 42.9398 21.2461C43.7878 21.2461 44.0598 21.7901 44.0598 22.6061V23.4541L45.2438 23.2301V22.2861C45.2438 20.8301 44.4438 20.0621 43.2918 20.0621ZM50.6146 22.4781C50.6146 23.6461 51.4626 24.4461 53.0306 24.7661L54.4866 25.0541C55.4626 25.2621 55.8786 25.6461 55.8786 26.3501C55.8786 27.1501 55.0626 27.6781 53.8466 27.6781C52.6466 27.6781 51.7986 27.2141 51.3666 26.3501L50.3106 26.9101C50.9186 28.1581 52.1506 28.8301 53.8786 28.8301C55.8626 28.8301 57.2066 27.7901 57.2066 26.2701C57.2066 24.9901 56.3266 24.1741 54.4866 23.8061L53.2546 23.5661C52.3426 23.3741 51.9426 23.0061 51.9426 22.3821C51.9426 21.6621 52.6626 21.2301 53.7506 21.2301C54.7906 21.2301 55.5586 21.6461 55.9106 22.3981L56.9506 21.8701C56.5026 20.7501 55.3506 20.0621 53.7826 20.0621C51.9106 20.0621 50.6146 21.1021 50.6146 22.4781ZM62.041 28.6701V27.4861C61.865 27.5341 61.689 27.5501 61.529 27.5501C60.857 27.5501 60.457 27.1981 60.457 26.4621V16.8621H59.081V26.5261C59.081 27.9021 59.769 28.7821 61.209 28.7821C61.497 28.7821 61.753 28.7341 62.041 28.6701ZM63.5625 16.7661V18.6221H65.4505V16.7661H63.5625ZM63.8185 28.7021H65.1945V20.2221H63.8185V28.7021ZM73.0555 28.7021H74.7355L71.0715 23.7261L74.6715 20.2221H72.9275L69.1355 24.0301V16.8621H67.7595V28.7021H69.1355V25.6141L70.1435 24.6221L73.0555 28.7021Z" fill="#2A2859"/>
<path d="M484.379 28.7021H485.803V16.8621H484.379V28.7021ZM493.646 28.7021H495.326L491.662 23.7261L495.262 20.2221H493.518L489.726 24.0301V16.8621H488.35V28.7021H489.726V25.6141L490.734 24.6221L493.646 28.7021ZM502.227 28.7021H503.907L500.243 23.7261L503.843 20.2221H502.099L498.307 24.0301V16.8621H496.931V28.7021H498.307V25.6141L499.315 24.6221L502.227 28.7021ZM510.664 26.1901C510.248 27.0061 509.496 27.6781 508.328 27.6781C506.792 27.6781 505.784 26.7981 505.688 24.7181H511.56L511.592 23.7421C511.592 21.3901 509.976 20.0621 508.088 20.0621C505.864 20.0621 504.312 21.8381 504.312 24.3661C504.312 27.0221 505.768 28.8461 508.216 28.8461C510.12 28.8461 511.192 27.7901 511.64 26.7341L510.664 26.1901ZM508.088 21.2141C509.224 21.2141 510.264 21.9341 510.248 23.6461H505.688C505.848 21.8381 506.888 21.2141 508.088 21.2141ZM517.102 22.4781C517.102 23.6461 517.95 24.4461 519.518 24.7661L520.974 25.0541C521.95 25.2621 522.366 25.6461 522.366 26.3501C522.366 27.1501 521.55 27.6781 520.334 27.6781C519.134 27.6781 518.286 27.2141 517.854 26.3501L516.798 26.9101C517.406 28.1581 518.638 28.8301 520.366 28.8301C522.35 28.8301 523.694 27.7901 523.694 26.2701C523.694 24.9901 522.814 24.1741 520.974 23.8061L519.742 23.5661C518.83 23.3741 518.43 23.0061 518.43 22.3821C518.43 21.6621 519.15 21.2301 520.238 21.2301C521.278 21.2301 522.046 21.6461 522.398 22.3981L523.438 21.8701C522.99 20.7501 521.838 20.0621 520.27 20.0621C518.398 20.0621 517.102 21.1021 517.102 22.4781ZM528.528 28.6701V27.4861C528.352 27.5341 528.176 27.5501 528.016 27.5501C527.344 27.5501 526.944 27.1981 526.944 26.4621V16.8621H525.568V26.5261C525.568 27.9021 526.256 28.7821 527.696 28.7821C527.984 28.7821 528.24 28.7341 528.528 28.6701ZM530.994 18.7341C531.586 18.7341 532.066 18.2701 532.066 17.6461C532.066 17.0381 531.586 16.5741 530.994 16.5741C530.386 16.5741 529.906 17.0381 529.906 17.6461C529.906 18.2701 530.386 18.7341 530.994 18.7341ZM530.306 28.7021H531.682V20.2221H530.306V28.7021ZM539.543 28.7021H541.223L537.559 23.7261L541.159 20.2221H539.415L535.623 24.0301V16.8621H534.247V28.7021H535.623V25.6141L536.631 24.6221L539.543 28.7021Z" fill="#2A2859"/>
<path fill-rule="evenodd" clip-rule="evenodd" d="M182.857 95.8929L175.357 88.3929L172.143 91.6071L176.429 95.8929L172.143 100.179L175.357 103.393L182.857 95.8929ZM170 91.6071L175.357 86.25L185 95.8929L175.357 105.536L170 100.179L174.286 95.8929L170 91.6071Z" fill="#2A2859"/>
<path d="M205.432 101H207.052L201.238 93.746L206.98 87.68H205.342L198.844 94.646V87.68H197.584V101H198.844V96.266L200.41 94.628L205.432 101ZM211.39 101.144C213.748 101.144 215.638 99.2 215.638 96.212C215.638 93.26 213.766 91.316 211.39 91.316C209.014 91.316 207.142 93.26 207.142 96.212C207.142 99.2 209.032 101.144 211.39 101.144ZM211.39 100.064C209.752 100.064 208.402 98.768 208.402 96.212C208.402 93.674 209.77 92.396 211.39 92.396C213.01 92.396 214.378 93.674 214.378 96.212C214.378 98.768 213.028 100.064 211.39 100.064ZM221.921 91.316C220.769 91.316 219.725 91.892 219.149 92.936V91.46H217.925V101H219.149V95.636C219.149 93.728 219.923 92.432 221.597 92.432C222.929 92.432 223.721 93.08 223.721 94.808V101H224.945V94.628C224.945 92.486 223.829 91.316 221.921 91.316ZM229.6 98.624V92.468H232.696V91.46H229.6V88.688L228.376 89.408V91.46H226.576V92.468H228.376V98.588C228.376 100.28 229.456 101.144 230.752 101.144C231.598 101.144 232.282 100.838 232.912 100.1L232.264 99.38C231.814 99.848 231.436 100.064 230.86 100.064C230.266 100.064 229.6 99.74 229.6 98.624ZM241.563 101C241.347 100.352 241.167 99.38 241.167 98.3V94.376C241.167 92.738 240.177 91.316 237.819 91.316C236.145 91.316 234.687 92.072 233.967 94.088L235.047 94.412C235.551 92.954 236.559 92.432 237.747 92.432C239.223 92.432 239.979 93.278 239.979 94.52V95.78C239.205 95.51 238.449 95.42 237.675 95.42C235.713 95.42 233.949 96.446 233.949 98.408C233.949 100.046 235.227 101.144 236.919 101.144C238.467 101.144 239.709 100.244 240.195 99.128C240.195 99.848 240.303 100.478 240.447 101H241.563ZM239.979 97.04C239.979 99.362 238.377 100.1 237.135 100.1C235.983 100.1 235.173 99.488 235.173 98.336C235.173 97.076 236.307 96.428 237.747 96.428C238.485 96.428 239.241 96.518 239.979 96.824V97.04ZM250.002 101H251.55L247.32 95.456L251.478 91.46H249.858L245.322 95.942V87.68H244.098V101H245.322V97.382L246.492 96.266L250.002 101ZM254.963 98.624V92.468H258.059V91.46H254.963V88.688L253.739 89.408V91.46H251.939V92.468H253.739V98.588C253.739 100.28 254.819 101.144 256.115 101.144C256.961 101.144 257.645 100.838 258.275 100.1L257.627 99.38C257.177 99.848 256.799 100.064 256.223 100.064C255.629 100.064 254.963 99.74 254.963 98.624ZM268.209 101.144C270.567 101.144 272.457 99.2 272.457 96.212C272.457 93.26 270.585 91.316 268.209 91.316C265.833 91.316 263.961 93.26 263.961 96.212C263.961 99.2 265.851 101.144 268.209 101.144ZM268.209 100.064C266.571 100.064 265.221 98.768 265.221 96.212C265.221 93.674 266.589 92.396 268.209 92.396C269.829 92.396 271.197 93.674 271.197 96.212C271.197 98.768 269.847 100.064 268.209 100.064ZM274.276 93.944C274.276 95.222 275.194 96.104 276.94 96.464L278.488 96.788C279.748 97.058 280.252 97.544 280.252 98.444C280.252 99.416 279.28 100.064 277.804 100.064C276.4 100.064 275.41 99.524 274.96 98.516L273.916 98.948C274.564 100.388 275.914 101.144 277.84 101.144C279.964 101.144 281.44 99.992 281.44 98.336C281.44 96.914 280.468 96.014 278.38 95.6L277.12 95.348C275.986 95.114 275.464 94.628 275.464 93.836C275.464 92.954 276.328 92.396 277.66 92.396C278.884 92.396 279.766 92.882 280.144 93.8L281.152 93.404C280.756 92.144 279.424 91.316 277.696 91.316C275.698 91.316 274.276 92.432 274.276 93.944ZM283.182 93.944C283.182 95.222 284.1 96.104 285.846 96.464L287.394 96.788C288.654 97.058 289.158 97.544 289.158 98.444C289.158 99.416 288.186 100.064 286.71 100.064C285.306 100.064 284.316 99.524 283.866 98.516L282.822 98.948C283.47 100.388 284.82 101.144 286.746 101.144C288.87 101.144 290.346 99.992 290.346 98.336C290.346 96.914 289.374 96.014 287.286 95.6L286.026 95.348C284.892 95.114 284.37 94.628 284.37 93.836C284.37 92.954 285.234 92.396 286.566 92.396C287.79 92.396 288.672 92.882 289.05 93.8L290.058 93.404C289.662 92.144 288.33 91.316 286.602 91.316C284.604 91.316 283.182 92.432 283.182 93.944Z" fill="#2A2859"/>
<path fill-rule="evenodd" clip-rule="evenodd" d="M182.857 131.893L175.357 124.393L172.143 127.607L176.429 131.893L172.143 136.179L175.357 139.393L182.857 131.893ZM170 127.607L175.357 122.25L185 131.893L175.357 141.536L170 136.179L174.286 131.893L170 127.607Z" fill="#2A2859"/>
<path d="M201.796 123.68H197.584V137H198.844V131.816H201.706C204.496 131.816 206.26 130.178 206.26 127.784C206.26 125.39 204.586 123.68 201.796 123.68ZM201.85 130.7H198.844V124.832H201.85C203.902 124.832 204.964 125.912 204.964 127.784C204.964 129.656 203.902 130.7 201.85 130.7ZM214.112 134.3C213.662 135.236 212.816 136.064 211.376 136.064C209.54 136.064 208.334 134.984 208.226 132.446H214.904L214.94 131.384C214.94 128.792 213.176 127.316 211.124 127.316C208.64 127.316 206.984 129.314 206.984 132.104C206.984 135.146 208.568 137.144 211.25 137.144C213.374 137.144 214.562 135.956 215.012 134.804L214.112 134.3ZM211.124 128.396C212.528 128.396 213.788 129.296 213.734 131.438H208.226C208.388 129.17 209.684 128.396 211.124 128.396ZM220.748 127.316C219.902 127.316 219.056 127.748 218.552 128.648V127.46H217.328V137H218.552V131.132C218.552 129.206 219.38 128.396 220.478 128.396C221.45 128.396 221.774 129.026 221.774 129.98V130.916L222.89 130.7V129.764C222.89 128.144 221.99 127.316 220.748 127.316ZM224.289 129.944C224.289 131.222 225.207 132.104 226.953 132.464L228.501 132.788C229.761 133.058 230.265 133.544 230.265 134.444C230.265 135.416 229.293 136.064 227.817 136.064C226.413 136.064 225.423 135.524 224.973 134.516L223.929 134.948C224.577 136.388 225.927 137.144 227.853 137.144C229.977 137.144 231.453 135.992 231.453 134.336C231.453 132.914 230.481 132.014 228.393 131.6L227.133 131.348C225.999 131.114 225.477 130.628 225.477 129.836C225.477 128.954 226.341 128.396 227.673 128.396C228.897 128.396 229.779 128.882 230.157 129.8L231.165 129.404C230.769 128.144 229.437 127.316 227.709 127.316C225.711 127.316 224.289 128.432 224.289 129.944ZM237.298 137.144C239.656 137.144 241.546 135.2 241.546 132.212C241.546 129.26 239.674 127.316 237.298 127.316C234.922 127.316 233.05 129.26 233.05 132.212C233.05 135.2 234.94 137.144 237.298 137.144ZM237.298 136.064C235.66 136.064 234.31 134.768 234.31 132.212C234.31 129.674 235.678 128.396 237.298 128.396C238.918 128.396 240.286 129.674 240.286 132.212C240.286 134.768 238.936 136.064 237.298 136.064ZM247.829 127.316C246.677 127.316 245.633 127.892 245.057 128.936V127.46H243.833V137H245.057V131.636C245.057 129.728 245.831 128.432 247.505 128.432C248.837 128.432 249.629 129.08 249.629 130.808V137H250.853V130.628C250.853 128.486 249.737 127.316 247.829 127.316ZM259.508 127.46L256.52 135.65L253.532 127.46H252.2L255.944 137H257.024L260.768 127.46H259.508ZM268.6 134.3C268.15 135.236 267.304 136.064 265.864 136.064C264.028 136.064 262.822 134.984 262.714 132.446H269.392L269.428 131.384C269.428 128.792 267.664 127.316 265.612 127.316C263.128 127.316 261.472 129.314 261.472 132.104C261.472 135.146 263.056 137.144 265.738 137.144C267.862 137.144 269.05 135.956 269.5 134.804L268.6 134.3ZM265.612 128.396C267.016 128.396 268.276 129.296 268.222 131.438H262.714C262.876 129.17 264.172 128.396 265.612 128.396ZM275.235 127.316C274.389 127.316 273.543 127.748 273.039 128.648V127.46H271.815V137H273.039V131.132C273.039 129.206 273.867 128.396 274.965 128.396C275.937 128.396 276.261 129.026 276.261 129.98V130.916L277.377 130.7V129.764C277.377 128.144 276.477 127.316 275.235 127.316ZM283.592 127.316C282.44 127.316 281.396 127.892 280.82 128.936V127.46H279.596V137H280.82V131.636C280.82 129.728 281.594 128.432 283.268 128.432C284.6 128.432 285.392 129.08 285.392 130.808V137H286.616V130.628C286.616 128.486 285.5 127.316 283.592 127.316Z" fill="#2A2859"/>
<path fill-rule="evenodd" clip-rule="evenodd" d="M182.857 167.893L175.357 160.393L172.143 163.607L176.429 167.893L172.143 172.179L175.357 175.393L182.857 167.893ZM170 163.607L175.357 158.25L185 167.893L175.357 177.536L170 172.179L174.286 167.893L170 163.607Z" fill="#2A2859"/>
<path d="M202.66 173.144C205.828 173.144 208.42 170.534 208.42 166.268C208.42 162.074 205.828 159.536 202.66 159.536C199.492 159.536 196.9 162.074 196.9 166.268C196.9 170.534 199.492 173.144 202.66 173.144ZM202.66 171.956C200.248 171.956 198.196 170.03 198.196 166.268C198.196 162.434 200.176 160.724 202.66 160.724C205.144 160.724 207.124 162.434 207.124 166.268C207.124 170.03 205.072 171.956 202.66 171.956ZM216.58 163.46L213.592 171.65L210.604 163.46H209.272L213.016 173H214.096L217.84 163.46H216.58ZM225.672 170.3C225.222 171.236 224.376 172.064 222.936 172.064C221.1 172.064 219.894 170.984 219.786 168.446H226.464L226.5 167.384C226.5 164.792 224.736 163.316 222.684 163.316C220.2 163.316 218.544 165.314 218.544 168.104C218.544 171.146 220.128 173.144 222.81 173.144C224.934 173.144 226.122 171.956 226.572 170.804L225.672 170.3ZM222.684 164.396C224.088 164.396 225.348 165.296 225.294 167.438H219.786C219.948 165.17 221.244 164.396 222.684 164.396ZM232.307 163.316C231.461 163.316 230.615 163.748 230.111 164.648V163.46H228.887V173H230.111V167.132C230.111 165.206 230.939 164.396 232.037 164.396C233.009 164.396 233.333 165.026 233.333 165.98V166.916L234.449 166.7V165.764C234.449 164.144 233.549 163.316 232.307 163.316ZM235.848 165.944C235.848 167.222 236.766 168.104 238.512 168.464L240.06 168.788C241.32 169.058 241.824 169.544 241.824 170.444C241.824 171.416 240.852 172.064 239.376 172.064C237.972 172.064 236.982 171.524 236.532 170.516L235.488 170.948C236.136 172.388 237.486 173.144 239.412 173.144C241.536 173.144 243.012 171.992 243.012 170.336C243.012 168.914 242.04 168.014 239.952 167.6L238.692 167.348C237.558 167.114 237.036 166.628 237.036 165.836C237.036 164.954 237.9 164.396 239.232 164.396C240.456 164.396 241.338 164.882 241.716 165.8L242.724 165.404C242.328 164.144 240.996 163.316 239.268 163.316C237.27 163.316 235.848 164.432 235.848 165.944ZM245.834 161.732C246.428 161.732 246.914 161.264 246.914 160.652C246.914 160.04 246.428 159.572 245.834 159.572C245.24 159.572 244.754 160.04 244.754 160.652C244.754 161.264 245.24 161.732 245.834 161.732ZM245.222 173H246.446V163.46H245.222V173ZM255.286 173H256.834L252.604 167.456L256.762 163.46H255.142L250.606 167.942V159.68H249.382V173H250.606V169.382L251.776 168.266L255.286 173ZM260.247 170.624V164.468H263.343V163.46H260.247V160.688L259.023 161.408V163.46H257.223V164.468H259.023V170.588C259.023 172.28 260.103 173.144 261.399 173.144C262.245 173.144 262.929 172.838 263.559 172.1L262.911 171.38C262.461 171.848 262.083 172.064 261.507 172.064C260.913 172.064 260.247 171.74 260.247 170.624Z" fill="#2A2859"/>
<path fill-rule="evenodd" clip-rule="evenodd" d="M647.857 95.8929L640.357 88.3929L637.143 91.6071L641.429 95.8929L637.143 100.179L640.357 103.393L647.857 95.8929ZM635 91.6071L640.357 86.25L650 95.8929L640.357 105.536L635 100.179L639.286 95.8929L635 91.6071Z" fill="#2A2859"/>
<path d="M670.432 101H672.052L666.238 93.746L671.98 87.68H670.342L663.844 94.646V87.68H662.584V101H663.844V96.266L665.41 94.628L670.432 101ZM676.39 101.144C678.748 101.144 680.638 99.2 680.638 96.212C680.638 93.26 678.766 91.316 676.39 91.316C674.014 91.316 672.142 93.26 672.142 96.212C672.142 99.2 674.032 101.144 676.39 101.144ZM676.39 100.064C674.752 100.064 673.402 98.768 673.402 96.212C673.402 93.674 674.77 92.396 676.39 92.396C678.01 92.396 679.378 93.674 679.378 96.212C679.378 98.768 678.028 100.064 676.39 100.064ZM686.921 91.316C685.769 91.316 684.725 91.892 684.149 92.936V91.46H682.925V101H684.149V95.636C684.149 93.728 684.923 92.432 686.597 92.432C687.929 92.432 688.721 93.08 688.721 94.808V101H689.945V94.628C689.945 92.486 688.829 91.316 686.921 91.316ZM694.6 98.624V92.468H697.696V91.46H694.6V88.688L693.376 89.408V91.46H691.576V92.468H693.376V98.588C693.376 100.28 694.456 101.144 695.752 101.144C696.598 101.144 697.282 100.838 697.912 100.1L697.264 99.38C696.814 99.848 696.436 100.064 695.86 100.064C695.266 100.064 694.6 99.74 694.6 98.624ZM706.563 101C706.347 100.352 706.167 99.38 706.167 98.3V94.376C706.167 92.738 705.177 91.316 702.819 91.316C701.145 91.316 699.687 92.072 698.967 94.088L700.047 94.412C700.551 92.954 701.559 92.432 702.747 92.432C704.223 92.432 704.979 93.278 704.979 94.52V95.78C704.205 95.51 703.449 95.42 702.675 95.42C700.713 95.42 698.949 96.446 698.949 98.408C698.949 100.046 700.227 101.144 701.919 101.144C703.467 101.144 704.709 100.244 705.195 99.128C705.195 99.848 705.303 100.478 705.447 101H706.563ZM704.979 97.04C704.979 99.362 703.377 100.1 702.135 100.1C700.983 100.1 700.173 99.488 700.173 98.336C700.173 97.076 701.307 96.428 702.747 96.428C703.485 96.428 704.241 96.518 704.979 96.824V97.04ZM715.002 101H716.55L712.32 95.456L716.478 91.46H714.858L710.322 95.942V87.68H709.098V101H710.322V97.382L711.492 96.266L715.002 101ZM719.963 98.624V92.468H723.059V91.46H719.963V88.688L718.739 89.408V91.46H716.939V92.468H718.739V98.588C718.739 100.28 719.819 101.144 721.115 101.144C721.961 101.144 722.645 100.838 723.275 100.1L722.627 99.38C722.177 99.848 721.799 100.064 721.223 100.064C720.629 100.064 719.963 99.74 719.963 98.624ZM733.209 101.144C735.567 101.144 737.457 99.2 737.457 96.212C737.457 93.26 735.585 91.316 733.209 91.316C730.833 91.316 728.961 93.26 728.961 96.212C728.961 99.2 730.851 101.144 733.209 101.144ZM733.209 100.064C731.571 100.064 730.221 98.768 730.221 96.212C730.221 93.674 731.589 92.396 733.209 92.396C734.829 92.396 736.197 93.674 736.197 96.212C736.197 98.768 734.847 100.064 733.209 100.064ZM739.276 93.944C739.276 95.222 740.194 96.104 741.94 96.464L743.488 96.788C744.748 97.058 745.252 97.544 745.252 98.444C745.252 99.416 744.28 100.064 742.804 100.064C741.4 100.064 740.41 99.524 739.96 98.516L738.916 98.948C739.564 100.388 740.914 101.144 742.84 101.144C744.964 101.144 746.44 99.992 746.44 98.336C746.44 96.914 745.468 96.014 743.38 95.6L742.12 95.348C740.986 95.114 740.464 94.628 740.464 93.836C740.464 92.954 741.328 92.396 742.66 92.396C743.884 92.396 744.766 92.882 745.144 93.8L746.152 93.404C745.756 92.144 744.424 91.316 742.696 91.316C740.698 91.316 739.276 92.432 739.276 93.944ZM748.182 93.944C748.182 95.222 749.1 96.104 750.846 96.464L752.394 96.788C753.654 97.058 754.158 97.544 754.158 98.444C754.158 99.416 753.186 100.064 751.71 100.064C750.306 100.064 749.316 99.524 748.866 98.516L747.822 98.948C748.47 100.388 749.82 101.144 751.746 101.144C753.87 101.144 755.346 99.992 755.346 98.336C755.346 96.914 754.374 96.014 752.286 95.6L751.026 95.348C749.892 95.114 749.37 94.628 749.37 93.836C749.37 92.954 750.234 92.396 751.566 92.396C752.79 92.396 753.672 92.882 754.05 93.8L755.058 93.404C754.662 92.144 753.33 91.316 751.602 91.316C749.604 91.316 748.182 92.432 748.182 93.944Z" fill="#2A2859"/>
<path d="M634.796 123.68H630.584V137H631.844V131.816H634.706C637.496 131.816 639.26 130.178 639.26 127.784C639.26 125.39 637.586 123.68 634.796 123.68ZM634.85 130.7H631.844V124.832H634.85C636.902 124.832 637.964 125.912 637.964 127.784C637.964 129.656 636.902 130.7 634.85 130.7ZM647.112 134.3C646.662 135.236 645.816 136.064 644.376 136.064C642.54 136.064 641.334 134.984 641.226 132.446H647.904L647.94 131.384C647.94 128.792 646.176 127.316 644.124 127.316C641.64 127.316 639.984 129.314 639.984 132.104C639.984 135.146 641.568 137.144 644.25 137.144C646.374 137.144 647.562 135.956 648.012 134.804L647.112 134.3ZM644.124 128.396C645.528 128.396 646.788 129.296 646.734 131.438H641.226C641.388 129.17 642.684 128.396 644.124 128.396ZM653.748 127.316C652.902 127.316 652.056 127.748 651.552 128.648V127.46H650.328V137H651.552V131.132C651.552 129.206 652.38 128.396 653.478 128.396C654.45 128.396 654.774 129.026 654.774 129.98V130.916L655.89 130.7V129.764C655.89 128.144 654.99 127.316 653.748 127.316ZM657.289 129.944C657.289 131.222 658.207 132.104 659.953 132.464L661.501 132.788C662.761 133.058 663.265 133.544 663.265 134.444C663.265 135.416 662.293 136.064 660.817 136.064C659.413 136.064 658.423 135.524 657.973 134.516L656.929 134.948C657.577 136.388 658.927 137.144 660.853 137.144C662.977 137.144 664.453 135.992 664.453 134.336C664.453 132.914 663.481 132.014 661.393 131.6L660.133 131.348C658.999 131.114 658.477 130.628 658.477 129.836C658.477 128.954 659.341 128.396 660.673 128.396C661.897 128.396 662.779 128.882 663.157 129.8L664.165 129.404C663.769 128.144 662.437 127.316 660.709 127.316C658.711 127.316 657.289 128.432 657.289 129.944ZM670.298 137.144C672.656 137.144 674.546 135.2 674.546 132.212C674.546 129.26 672.674 127.316 670.298 127.316C667.922 127.316 666.05 129.26 666.05 132.212C666.05 135.2 667.94 137.144 670.298 137.144ZM670.298 136.064C668.66 136.064 667.31 134.768 667.31 132.212C667.31 129.674 668.678 128.396 670.298 128.396C671.918 128.396 673.286 129.674 673.286 132.212C673.286 134.768 671.936 136.064 670.298 136.064ZM680.829 127.316C679.677 127.316 678.633 127.892 678.057 128.936V127.46H676.833V137H678.057V131.636C678.057 129.728 678.831 128.432 680.505 128.432C681.837 128.432 682.629 129.08 682.629 130.808V137H683.853V130.628C683.853 128.486 682.737 127.316 680.829 127.316ZM692.508 127.46L689.52 135.65L686.532 127.46H685.2L688.944 137H690.024L693.768 127.46H692.508ZM701.6 134.3C701.15 135.236 700.304 136.064 698.864 136.064C697.028 136.064 695.822 134.984 695.714 132.446H702.392L702.428 131.384C702.428 128.792 700.664 127.316 698.612 127.316C696.128 127.316 694.472 129.314 694.472 132.104C694.472 135.146 696.056 137.144 698.738 137.144C700.862 137.144 702.05 135.956 702.5 134.804L701.6 134.3ZM698.612 128.396C700.016 128.396 701.276 129.296 701.222 131.438H695.714C695.876 129.17 697.172 128.396 698.612 128.396ZM708.235 127.316C707.389 127.316 706.543 127.748 706.039 128.648V127.46H704.815V137H706.039V131.132C706.039 129.206 706.867 128.396 707.965 128.396C708.937 128.396 709.261 129.026 709.261 129.98V130.916L710.377 130.7V129.764C710.377 128.144 709.477 127.316 708.235 127.316ZM716.592 127.316C715.44 127.316 714.396 127.892 713.82 128.936V127.46H712.596V137H713.82V131.636C713.82 129.728 714.594 128.432 716.268 128.432C717.6 128.432 718.392 129.08 718.392 130.808V137H719.616V130.628C719.616 128.486 718.5 127.316 716.592 127.316Z" fill="#2A2859"/>
<path d="M629 140.672H721.02V141.464H629V140.672Z" fill="#2A2859"/>
<path fill-rule="evenodd" clip-rule="evenodd" d="M647.857 167.893L640.357 160.393L637.143 163.607L641.429 167.893L637.143 172.179L640.357 175.393L647.857 167.893ZM635 163.607L640.357 158.25L650 167.893L640.357 177.536L635 172.179L639.286 167.893L635 163.607Z" fill="#2A2859"/>
<path d="M667.66 173.144C670.828 173.144 673.42 170.534 673.42 166.268C673.42 162.074 670.828 159.536 667.66 159.536C664.492 159.536 661.9 162.074 661.9 166.268C661.9 170.534 664.492 173.144 667.66 173.144ZM667.66 171.956C665.248 171.956 663.196 170.03 663.196 166.268C663.196 162.434 665.176 160.724 667.66 160.724C670.144 160.724 672.124 162.434 672.124 166.268C672.124 170.03 670.072 171.956 667.66 171.956ZM681.58 163.46L678.592 171.65L675.604 163.46H674.272L678.016 173H679.096L682.84 163.46H681.58ZM690.672 170.3C690.222 171.236 689.376 172.064 687.936 172.064C686.1 172.064 684.894 170.984 684.786 168.446H691.464L691.5 167.384C691.5 164.792 689.736 163.316 687.684 163.316C685.2 163.316 683.544 165.314 683.544 168.104C683.544 171.146 685.128 173.144 687.81 173.144C689.934 173.144 691.122 171.956 691.572 170.804L690.672 170.3ZM687.684 164.396C689.088 164.396 690.348 165.296 690.294 167.438H684.786C684.948 165.17 686.244 164.396 687.684 164.396ZM697.307 163.316C696.461 163.316 695.615 163.748 695.111 164.648V163.46H693.887V173H695.111V167.132C695.111 165.206 695.939 164.396 697.037 164.396C698.009 164.396 698.333 165.026 698.333 165.98V166.916L699.449 166.7V165.764C699.449 164.144 698.549 163.316 697.307 163.316ZM700.848 165.944C700.848 167.222 701.766 168.104 703.512 168.464L705.06 168.788C706.32 169.058 706.824 169.544 706.824 170.444C706.824 171.416 705.852 172.064 704.376 172.064C702.972 172.064 701.982 171.524 701.532 170.516L700.488 170.948C701.136 172.388 702.486 173.144 704.412 173.144C706.536 173.144 708.012 171.992 708.012 170.336C708.012 168.914 707.04 168.014 704.952 167.6L703.692 167.348C702.558 167.114 702.036 166.628 702.036 165.836C702.036 164.954 702.9 164.396 704.232 164.396C705.456 164.396 706.338 164.882 706.716 165.8L707.724 165.404C707.328 164.144 705.996 163.316 704.268 163.316C702.27 163.316 700.848 164.432 700.848 165.944ZM710.834 161.732C711.428 161.732 711.914 161.264 711.914 160.652C711.914 160.04 711.428 159.572 710.834 159.572C710.24 159.572 709.754 160.04 709.754 160.652C709.754 161.264 710.24 161.732 710.834 161.732ZM710.222 173H711.446V163.46H710.222V173ZM720.286 173H721.834L717.604 167.456L721.762 163.46H720.142L715.606 167.942V159.68H714.382V173H715.606V169.382L716.776 168.266L720.286 173ZM725.247 170.624V164.468H728.343V163.46H725.247V160.688L724.023 161.408V163.46H722.223V164.468H724.023V170.588C724.023 172.28 725.103 173.144 726.399 173.144C727.245 173.144 727.929 172.838 728.559 172.1L727.911 171.38C727.461 171.848 727.083 172.064 726.507 172.064C725.913 172.064 725.247 171.74 725.247 170.624Z" fill="#2A2859"/>
</svg>
