<svg width="690" height="103" viewBox="0 0 690 103" fill="none" xmlns="http://www.w3.org/2000/svg">
<rect width="690" height="103" fill="white"/>
<path d="M246.844 55.812V43.68H245.584V57H253.036V55.812H246.844ZM261.11 54.3C260.66 55.236 259.814 56.064 258.374 56.064C256.538 56.064 255.332 54.984 255.224 52.446H261.902L261.938 51.384C261.938 48.792 260.174 47.316 258.122 47.316C255.638 47.316 253.982 49.314 253.982 52.104C253.982 55.146 255.566 57.144 258.248 57.144C260.372 57.144 261.56 55.956 262.01 54.804L261.11 54.3ZM258.122 48.396C259.526 48.396 260.786 49.296 260.732 51.438H255.224C255.386 49.17 256.682 48.396 258.122 48.396ZM268.322 47.316C267.17 47.316 266.126 47.892 265.55 48.936V47.46H264.326V57H265.55V51.636C265.55 49.728 266.324 48.432 267.998 48.432C269.33 48.432 270.122 49.08 270.122 50.808V57H271.346V50.628C271.346 48.486 270.23 47.316 268.322 47.316ZM280.033 57H281.581L277.351 51.456L281.509 47.46H279.889L275.353 51.942V43.68H274.129V57H275.353V53.382L276.523 52.266L280.033 57ZM289.233 54.3C288.783 55.236 287.937 56.064 286.497 56.064C284.661 56.064 283.455 54.984 283.347 52.446H290.025L290.061 51.384C290.061 48.792 288.297 47.316 286.245 47.316C283.761 47.316 282.105 49.314 282.105 52.104C282.105 55.146 283.689 57.144 286.371 57.144C288.495 57.144 289.683 55.956 290.133 54.804L289.233 54.3ZM286.245 48.396C287.649 48.396 288.909 49.296 288.855 51.438H283.347C283.509 49.17 284.805 48.396 286.245 48.396Z" fill="#2A2859"/>
<path d="M244 60.672H291.105V61.464H244V60.672Z" fill="#2A2859"/>
<path d="M382.844 55.812V43.68H381.584V57H389.036V55.812H382.844ZM397.11 54.3C396.66 55.236 395.814 56.064 394.374 56.064C392.538 56.064 391.332 54.984 391.224 52.446H397.902L397.938 51.384C397.938 48.792 396.174 47.316 394.122 47.316C391.638 47.316 389.982 49.314 389.982 52.104C389.982 55.146 391.566 57.144 394.248 57.144C396.372 57.144 397.56 55.956 398.01 54.804L397.11 54.3ZM394.122 48.396C395.526 48.396 396.786 49.296 396.732 51.438H391.224C391.386 49.17 392.682 48.396 394.122 48.396ZM404.322 47.316C403.17 47.316 402.126 47.892 401.55 48.936V47.46H400.326V57H401.55V51.636C401.55 49.728 402.324 48.432 403.998 48.432C405.33 48.432 406.122 49.08 406.122 50.808V57H407.346V50.628C407.346 48.486 406.23 47.316 404.322 47.316ZM416.033 57H417.581L413.351 51.456L417.509 47.46H415.889L411.353 51.942V43.68H410.129V57H411.353V53.382L412.523 52.266L416.033 57ZM425.233 54.3C424.783 55.236 423.937 56.064 422.497 56.064C420.661 56.064 419.455 54.984 419.347 52.446H426.025L426.061 51.384C426.061 48.792 424.297 47.316 422.245 47.316C419.761 47.316 418.105 49.314 418.105 52.104C418.105 55.146 419.689 57.144 422.371 57.144C424.495 57.144 425.683 55.956 426.133 54.804L425.233 54.3ZM422.245 48.396C423.649 48.396 424.909 49.296 424.855 51.438H419.347C419.509 49.17 420.805 48.396 422.245 48.396Z" fill="#2A2859"/>
<path d="M380 60.672H427.105V61.464H380V60.672Z" fill="#2A2859"/>
<path d="M440.954 54.8745V56.0332H433.046V48.1638H434.204V47.0388H433.046V47.0332H431.921V57.1582H442.079V54.8745H440.954Z" fill="#2A2859"/>
<path fill-rule="evenodd" clip-rule="evenodd" d="M438.125 47.0276V48.1526H440.161L436.077 52.2476L436.854 53.0295L440.943 48.9288V50.9707H442.079V47.0276H438.125Z" fill="#2A2859"/>
</svg>
