<svg width="922" height="211" viewBox="0 0 922 211" fill="none" xmlns="http://www.w3.org/2000/svg">
<mask id="path-1-inside-1_4768_151063" fill="white">
<path d="M0 55H455.751V210.915H0V55Z"/>
</mask>
<path d="M0 55H455.751V210.915H0V55Z" fill="white"/>
<path d="M455.751 210.915V211.915H456.751V210.915H455.751ZM0 210.915H-1V211.915H0V210.915ZM454.751 55V210.915H456.751V55H454.751ZM455.751 209.915H0V211.915H455.751V209.915ZM1 210.915V55H-1V210.915H1Z" fill="#E6E6E6" mask="url(#path-1-inside-1_4768_151063)"/>
<path d="M49.408 115H53.28C56.208 115 58.464 112.584 58.464 109.016C58.464 105.448 56.208 103.16 53.28 103.16H49.408V115ZM50.528 113.976V104.184H53.024C55.504 104.184 57.312 105.752 57.312 109.016C57.312 112.312 55.52 113.976 53.056 113.976H50.528ZM66.2336 112.6C65.8336 113.432 65.0816 114.168 63.8016 114.168C62.1696 114.168 61.0976 113.208 61.0016 110.952H66.9376L66.9696 110.008C66.9696 107.704 65.4016 106.392 63.5776 106.392C61.3696 106.392 59.8976 108.168 59.8976 110.648C59.8976 113.352 61.3056 115.128 63.6896 115.128C65.5776 115.128 66.6336 114.072 67.0336 113.048L66.2336 112.6ZM63.5776 107.352C64.8256 107.352 65.9456 108.152 65.8976 110.056H61.0016C61.1456 108.04 62.2976 107.352 63.5776 107.352ZM70.6095 112.888V107.416H73.3615V106.52H70.6095V104.056L69.5215 104.696V106.52H67.9215V107.416H69.5215V112.856C69.5215 114.36 70.4815 115.128 71.6335 115.128C72.3855 115.128 72.9935 114.856 73.5535 114.2L72.9775 113.56C72.5775 113.976 72.2415 114.168 71.7295 114.168C71.2015 114.168 70.6095 113.88 70.6095 112.888ZM76.597 112.888V107.416H79.349V106.52H76.597V104.056L75.509 104.696V106.52H73.909V107.416H75.509V112.856C75.509 114.36 76.469 115.128 77.621 115.128C78.373 115.128 78.981 114.856 79.541 114.2L78.965 113.56C78.565 113.976 78.229 114.168 77.717 114.168C77.189 114.168 76.597 113.88 76.597 112.888ZM86.5086 112.6C86.1086 113.432 85.3566 114.168 84.0766 114.168C82.4446 114.168 81.3726 113.208 81.2766 110.952H87.2126L87.2446 110.008C87.2446 107.704 85.6766 106.392 83.8526 106.392C81.6446 106.392 80.1726 108.168 80.1726 110.648C80.1726 113.352 81.5806 115.128 83.9646 115.128C85.8526 115.128 86.9086 114.072 87.3086 113.048L86.5086 112.6ZM83.8526 107.352C85.1006 107.352 86.2206 108.152 86.1726 110.056H81.2766C81.4206 108.04 82.5726 107.352 83.8526 107.352ZM99.0305 112.6C98.6305 113.432 97.8785 114.168 96.5985 114.168C94.9665 114.168 93.8945 113.208 93.7985 110.952H99.7345L99.7665 110.008C99.7665 107.704 98.1985 106.392 96.3745 106.392C94.1665 106.392 92.6945 108.168 92.6945 110.648C92.6945 113.352 94.1025 115.128 96.4865 115.128C98.3745 115.128 99.4305 114.072 99.8305 113.048L99.0305 112.6ZM96.3745 107.352C97.6225 107.352 98.7425 108.152 98.6945 110.056H93.7985C93.9425 108.04 95.0945 107.352 96.3745 107.352ZM104.907 106.392C104.155 106.392 103.403 106.776 102.955 107.576V106.52H101.867V115H102.955V109.784C102.955 108.072 103.691 107.352 104.667 107.352C105.531 107.352 105.819 107.912 105.819 108.76V109.592L106.811 109.4V108.568C106.811 107.128 106.011 106.392 104.907 106.392ZM118.446 112.6C118.046 113.432 117.294 114.168 116.014 114.168C114.382 114.168 113.31 113.208 113.214 110.952H119.15L119.182 110.008C119.182 107.704 117.614 106.392 115.79 106.392C113.582 106.392 112.11 108.168 112.11 110.648C112.11 113.352 113.518 115.128 115.902 115.128C117.79 115.128 118.846 114.072 119.246 113.048L118.446 112.6ZM115.79 107.352C117.038 107.352 118.158 108.152 118.11 110.056H113.214C113.358 108.04 114.51 107.352 115.79 107.352ZM124.834 106.392C123.81 106.392 122.882 106.904 122.37 107.832V106.52H121.282V115H122.37V110.232C122.37 108.536 123.058 107.384 124.546 107.384C125.73 107.384 126.434 107.96 126.434 109.496V115H127.522V109.336C127.522 107.432 126.53 106.392 124.834 106.392ZM136.491 114.968V114.008C136.331 114.056 136.155 114.072 135.979 114.072C135.307 114.072 134.923 113.704 134.923 112.984V103.16H133.835V112.984C133.835 114.232 134.459 115.064 135.787 115.064C136.027 115.064 136.235 115.032 136.491 114.968ZM143.818 112.6C143.418 113.432 142.666 114.168 141.386 114.168C139.754 114.168 138.682 113.208 138.586 110.952H144.522L144.554 110.008C144.554 107.704 142.986 106.392 141.162 106.392C138.954 106.392 137.482 108.168 137.482 110.648C137.482 113.352 138.89 115.128 141.274 115.128C143.162 115.128 144.218 114.072 144.618 113.048L143.818 112.6ZM141.162 107.352C142.41 107.352 143.53 108.152 143.482 110.056H138.586C138.73 108.04 139.882 107.352 141.162 107.352ZM150.206 106.392C149.182 106.392 148.254 106.904 147.742 107.832V106.52H146.654V115H147.742V110.232C147.742 108.536 148.43 107.384 149.918 107.384C151.102 107.384 151.806 107.96 151.806 109.496V115H152.894V109.336C152.894 107.432 151.902 106.392 150.206 106.392ZM162.93 107.416V106.52H160.498V107.112C159.986 106.68 159.314 106.392 158.434 106.392C156.194 106.392 155.058 107.976 155.058 109.496C155.058 110.536 155.682 111.72 156.802 112.168C155.762 112.44 155.138 113.096 155.138 113.848C155.138 114.728 155.842 115.288 157.026 115.288H160.674C161.442 115.288 161.698 115.64 161.698 116.12C161.698 117.144 160.226 117.672 158.466 117.672C157.042 117.672 155.794 117.4 155.202 116.008L154.322 116.408C154.834 117.896 156.322 118.584 158.466 118.584C160.85 118.584 162.786 117.704 162.786 116.024C162.786 114.968 162.082 114.296 160.706 114.296H157.266C156.562 114.296 156.226 113.992 156.226 113.56C156.226 113 156.914 112.632 157.874 112.632H158.242C160.626 112.632 161.746 111.048 161.746 109.496C161.746 108.872 161.522 108.232 161.106 107.72V107.416H162.93ZM158.418 111.736C156.898 111.736 156.13 110.68 156.13 109.496C156.13 108.328 156.898 107.32 158.418 107.32C159.922 107.32 160.674 108.312 160.674 109.496C160.674 110.696 159.922 111.736 158.418 111.736ZM167.466 106.392C166.714 106.392 165.962 106.776 165.514 107.576V106.52H164.426V115H165.514V109.784C165.514 108.072 166.25 107.352 167.226 107.352C168.09 107.352 168.378 107.912 168.378 108.76V109.592L169.37 109.4V108.568C169.37 107.128 168.57 106.392 167.466 106.392ZM176.627 112.6C176.227 113.432 175.475 114.168 174.195 114.168C172.563 114.168 171.491 113.208 171.395 110.952H177.331L177.363 110.008C177.363 107.704 175.795 106.392 173.971 106.392C171.763 106.392 170.291 108.168 170.291 110.648C170.291 113.352 171.699 115.128 174.083 115.128C175.971 115.128 177.027 114.072 177.427 113.048L176.627 112.6ZM173.971 107.352C175.219 107.352 176.339 108.152 176.291 110.056H171.395C171.539 108.04 172.691 107.352 173.971 107.352ZM185.053 112.888V107.416H187.805V106.52H185.053V104.056L183.965 104.696V106.52H182.365V107.416H183.965V112.856C183.965 114.36 184.925 115.128 186.077 115.128C186.829 115.128 187.437 114.856 187.997 114.2L187.421 113.56C187.021 113.976 186.685 114.168 186.173 114.168C185.645 114.168 185.053 113.88 185.053 112.888ZM194.965 112.6C194.565 113.432 193.813 114.168 192.533 114.168C190.901 114.168 189.829 113.208 189.733 110.952H195.669L195.701 110.008C195.701 107.704 194.133 106.392 192.309 106.392C190.101 106.392 188.629 108.168 188.629 110.648C188.629 113.352 190.037 115.128 192.421 115.128C194.309 115.128 195.365 114.072 195.765 113.048L194.965 112.6ZM192.309 107.352C193.557 107.352 194.677 108.152 194.629 110.056H189.733C189.877 108.04 191.029 107.352 192.309 107.352ZM203.081 115H204.457L200.697 110.072L204.393 106.52H202.953L198.921 110.504V103.16H197.833V115H198.921V111.784L199.961 110.792L203.081 115ZM205.185 108.728C205.185 109.864 206.001 110.648 207.553 110.968L208.929 111.256C210.049 111.496 210.497 111.928 210.497 112.728C210.497 113.592 209.633 114.168 208.321 114.168C207.073 114.168 206.193 113.688 205.793 112.792L204.865 113.176C205.441 114.456 206.641 115.128 208.353 115.128C210.241 115.128 211.553 114.104 211.553 112.632C211.553 111.368 210.689 110.568 208.833 110.2L207.713 109.976C206.705 109.768 206.241 109.336 206.241 108.632C206.241 107.848 207.009 107.352 208.193 107.352C209.281 107.352 210.065 107.784 210.401 108.6L211.297 108.248C210.945 107.128 209.761 106.392 208.225 106.392C206.449 106.392 205.185 107.384 205.185 108.728ZM215.034 112.888V107.416H217.786V106.52H215.034V104.056L213.946 104.696V106.52H212.346V107.416H213.946V112.856C213.946 114.36 214.906 115.128 216.058 115.128C216.81 115.128 217.418 114.856 217.978 114.2L217.402 113.56C217.002 113.976 216.666 114.168 216.154 114.168C215.626 114.168 215.034 113.88 215.034 112.888ZM229.388 103.16V108.056C228.876 106.984 227.916 106.392 226.732 106.392C224.46 106.392 222.988 108.232 222.988 110.84C222.988 113.304 224.444 115.112 226.604 115.112C227.708 115.112 228.828 114.504 229.388 113.416V115H230.476V103.16H229.388ZM226.716 114.152C225.148 114.152 224.108 112.936 224.108 110.792C224.108 108.568 225.148 107.352 226.732 107.352C228.428 107.352 229.388 108.6 229.388 110.808C229.388 112.888 228.412 114.152 226.716 114.152ZM238.749 112.6C238.349 113.432 237.597 114.168 236.317 114.168C234.685 114.168 233.613 113.208 233.517 110.952H239.453L239.485 110.008C239.485 107.704 237.917 106.392 236.093 106.392C233.885 106.392 232.413 108.168 232.413 110.648C232.413 113.352 233.821 115.128 236.205 115.128C238.093 115.128 239.149 114.072 239.549 113.048L238.749 112.6ZM236.093 107.352C237.341 107.352 238.461 108.152 238.413 110.056H233.517C233.661 108.04 234.813 107.352 236.093 107.352ZM244.625 106.392C243.873 106.392 243.121 106.776 242.673 107.576V106.52H241.585V115H242.673V109.784C242.673 108.072 243.409 107.352 244.385 107.352C245.249 107.352 245.537 107.912 245.537 108.76V109.592L246.529 109.4V108.568C246.529 107.128 245.729 106.392 244.625 106.392ZM257.781 106.52L255.125 113.8L252.469 106.52H251.285L254.613 115H255.573L258.901 106.52H257.781ZM260.904 104.984C261.432 104.984 261.864 104.568 261.864 104.024C261.864 103.48 261.432 103.064 260.904 103.064C260.376 103.064 259.944 103.48 259.944 104.024C259.944 104.568 260.376 104.984 260.904 104.984ZM260.36 115H261.448V106.52H260.36V115ZM273.178 115H274.554L270.794 110.072L274.49 106.52H273.05L269.018 110.504V103.16H267.93V115H269.018V111.784L270.058 110.792L273.178 115ZM281.862 115C281.67 114.424 281.51 113.56 281.51 112.6V109.112C281.51 107.656 280.63 106.392 278.534 106.392C277.046 106.392 275.75 107.064 275.11 108.856L276.07 109.144C276.518 107.848 277.414 107.384 278.47 107.384C279.782 107.384 280.454 108.136 280.454 109.24V110.36C279.766 110.12 279.094 110.04 278.406 110.04C276.662 110.04 275.094 110.952 275.094 112.696C275.094 114.152 276.23 115.128 277.734 115.128C279.11 115.128 280.214 114.328 280.646 113.336C280.646 113.976 280.742 114.536 280.87 115H281.862ZM280.454 111.48C280.454 113.544 279.03 114.2 277.926 114.2C276.902 114.2 276.182 113.656 276.182 112.632C276.182 111.512 277.19 110.936 278.47 110.936C279.126 110.936 279.798 111.016 280.454 111.288V111.48ZM287.612 106.392C286.588 106.392 285.66 106.904 285.148 107.832V106.52H284.06V115H285.148V110.232C285.148 108.536 285.836 107.384 287.324 107.384C288.508 107.384 289.212 107.96 289.212 109.496V115H290.3V109.336C290.3 107.432 289.308 106.392 287.612 106.392ZM296.198 108.728C296.198 109.864 297.014 110.648 298.566 110.968L299.942 111.256C301.062 111.496 301.51 111.928 301.51 112.728C301.51 113.592 300.646 114.168 299.334 114.168C298.086 114.168 297.206 113.688 296.806 112.792L295.878 113.176C296.454 114.456 297.654 115.128 299.366 115.128C301.254 115.128 302.566 114.104 302.566 112.632C302.566 111.368 301.702 110.568 299.846 110.2L298.726 109.976C297.718 109.768 297.254 109.336 297.254 108.632C297.254 107.848 298.022 107.352 299.206 107.352C300.294 107.352 301.078 107.784 301.414 108.6L302.31 108.248C301.958 107.128 300.774 106.392 299.238 106.392C297.462 106.392 296.198 107.384 296.198 108.728ZM310.299 112.6C309.899 113.432 309.147 114.168 307.867 114.168C306.235 114.168 305.163 113.208 305.067 110.952H311.003L311.035 110.008C311.035 107.704 309.467 106.392 307.643 106.392C305.435 106.392 303.963 108.168 303.963 110.648C303.963 113.352 305.371 115.128 307.755 115.128C309.643 115.128 310.699 114.072 311.099 113.048L310.299 112.6ZM307.643 107.352C308.891 107.352 310.011 108.152 309.963 110.056H305.067C305.211 108.04 306.363 107.352 307.643 107.352ZM320.261 115.128C322.357 115.128 324.037 113.4 324.037 110.744C324.037 108.12 322.373 106.392 320.261 106.392C318.149 106.392 316.485 108.12 316.485 110.744C316.485 113.4 318.165 115.128 320.261 115.128ZM320.261 114.168C318.805 114.168 317.605 113.016 317.605 110.744C317.605 108.488 318.821 107.352 320.261 107.352C321.701 107.352 322.917 108.488 322.917 110.744C322.917 113.016 321.717 114.168 320.261 114.168ZM334.496 106.392C333.408 106.392 332.432 107 331.952 108.12C331.648 107.016 330.8 106.392 329.536 106.392C328.544 106.392 327.648 106.904 327.136 107.848V106.52H326.048V115H327.136V110.232C327.136 108.536 327.76 107.384 329.248 107.384C330.352 107.384 331.008 107.96 331.008 109.336V115H332.096V110.232C332.096 108.536 332.72 107.384 334.208 107.384C335.312 107.384 335.968 107.96 335.968 109.336V115H337.056V109.176C337.056 107.416 336.112 106.392 334.496 106.392ZM349.223 103.16V108.056C348.711 106.984 347.751 106.392 346.567 106.392C344.295 106.392 342.823 108.232 342.823 110.84C342.823 113.304 344.279 115.112 346.439 115.112C347.543 115.112 348.663 114.504 349.223 113.416V115H350.311V103.16H349.223ZM346.551 114.152C344.983 114.152 343.943 112.936 343.943 110.792C343.943 108.568 344.983 107.352 346.567 107.352C348.263 107.352 349.223 108.6 349.223 110.808C349.223 112.888 348.247 114.152 346.551 114.152ZM358.584 112.6C358.184 113.432 357.432 114.168 356.152 114.168C354.52 114.168 353.448 113.208 353.352 110.952H359.288L359.32 110.008C359.32 107.704 357.752 106.392 355.928 106.392C353.72 106.392 352.248 108.168 352.248 110.648C352.248 113.352 353.656 115.128 356.04 115.128C357.928 115.128 358.984 114.072 359.384 113.048L358.584 112.6ZM355.928 107.352C357.176 107.352 358.296 108.152 358.248 110.056H353.352C353.496 108.04 354.648 107.352 355.928 107.352ZM362.96 112.888V107.416H365.712V106.52H362.96V104.056L361.872 104.696V106.52H360.272V107.416H361.872V112.856C361.872 114.36 362.832 115.128 363.984 115.128C364.736 115.128 365.344 114.856 365.904 114.2L365.328 113.56C364.928 113.976 364.592 114.168 364.08 114.168C363.552 114.168 362.96 113.88 362.96 112.888ZM377.249 112.6C376.849 113.432 376.097 114.168 374.817 114.168C373.185 114.168 372.113 113.208 372.017 110.952H377.953L377.985 110.008C377.985 107.704 376.417 106.392 374.593 106.392C372.385 106.392 370.913 108.168 370.913 110.648C370.913 113.352 372.321 115.128 374.705 115.128C376.593 115.128 377.649 114.072 378.049 113.048L377.249 112.6ZM374.593 107.352C375.841 107.352 376.961 108.152 376.913 110.056H372.017C372.161 108.04 373.313 107.352 374.593 107.352ZM383.125 106.392C382.373 106.392 381.621 106.776 381.173 107.576V106.52H380.085V115H381.173V109.784C381.173 108.072 381.909 107.352 382.885 107.352C383.749 107.352 384.037 107.912 384.037 108.76V109.592L385.029 109.4V108.568C385.029 107.128 384.229 106.392 383.125 106.392ZM396.665 112.6C396.265 113.432 395.513 114.168 394.233 114.168C392.601 114.168 391.529 113.208 391.433 110.952H397.369L397.401 110.008C397.401 107.704 395.833 106.392 394.009 106.392C391.801 106.392 390.329 108.168 390.329 110.648C390.329 113.352 391.737 115.128 394.121 115.128C396.009 115.128 397.065 114.072 397.465 113.048L396.665 112.6ZM394.009 107.352C395.257 107.352 396.377 108.152 396.329 110.056H391.433C391.577 108.04 392.729 107.352 394.009 107.352ZM401.041 112.888V107.416H403.793V106.52H401.041V104.056L399.953 104.696V106.52H398.353V107.416H399.953V112.856C399.953 114.36 400.913 115.128 402.065 115.128C402.817 115.128 403.425 114.856 403.985 114.2L403.409 113.56C403.009 113.976 402.673 114.168 402.161 114.168C401.633 114.168 401.041 113.88 401.041 112.888ZM53.248 130.408C52.144 130.408 51.024 131.016 50.464 132.104V130.52H49.376V142.36H50.464V137.464C50.976 138.536 51.936 139.128 53.12 139.128C55.392 139.128 56.864 137.288 56.864 134.68C56.864 132.216 55.408 130.408 53.248 130.408ZM53.12 138.168C51.424 138.168 50.464 136.92 50.464 134.712C50.464 132.632 51.44 131.368 53.136 131.368C54.704 131.368 55.744 132.584 55.744 134.728C55.744 136.952 54.704 138.168 53.12 138.168ZM65.1991 139C65.0071 138.424 64.8471 137.56 64.8471 136.6V133.112C64.8471 131.656 63.9671 130.392 61.8711 130.392C60.3831 130.392 59.0871 131.064 58.4471 132.856L59.4071 133.144C59.8551 131.848 60.7511 131.384 61.8071 131.384C63.1191 131.384 63.7911 132.136 63.7911 133.24V134.36C63.1031 134.12 62.4311 134.04 61.7431 134.04C59.9991 134.04 58.4311 134.952 58.4311 136.696C58.4311 138.152 59.5671 139.128 61.0711 139.128C62.4471 139.128 63.5511 138.328 63.9831 137.336C63.9831 137.976 64.0791 138.536 64.2071 139H65.1991ZM63.7911 135.48C63.7911 137.544 62.3671 138.2 61.2631 138.2C60.2391 138.2 59.5191 137.656 59.5191 136.632C59.5191 135.512 60.5271 134.936 61.8071 134.936C62.4631 134.936 63.1351 135.016 63.7911 135.288V135.48ZM70.4379 130.392C69.6859 130.392 68.9339 130.776 68.4859 131.576V130.52H67.3979V139H68.4859V133.784C68.4859 132.072 69.2219 131.352 70.1979 131.352C71.0619 131.352 71.3499 131.912 71.3499 132.76V133.592L72.3419 133.4V132.568C72.3419 131.128 71.5419 130.392 70.4379 130.392ZM80.8414 138.968V138.008C80.6814 138.056 80.5054 138.072 80.3294 138.072C79.6574 138.072 79.2734 137.704 79.2734 136.984V127.16H78.1854V136.984C78.1854 138.232 78.8094 139.064 80.1374 139.064C80.3774 139.064 80.5854 139.032 80.8414 138.968ZM88.168 136.6C87.768 137.432 87.016 138.168 85.736 138.168C84.104 138.168 83.032 137.208 82.936 134.952H88.872L88.904 134.008C88.904 131.704 87.336 130.392 85.512 130.392C83.304 130.392 81.832 132.168 81.832 134.648C81.832 137.352 83.24 139.128 85.624 139.128C87.512 139.128 88.568 138.072 88.968 137.048L88.168 136.6ZM85.512 131.352C86.76 131.352 87.88 132.152 87.832 134.056H82.936C83.08 132.04 84.232 131.352 85.512 131.352ZM94.5561 130.392C93.5321 130.392 92.6041 130.904 92.0921 131.832V130.52H91.0041V139H92.0921V134.232C92.0921 132.536 92.7801 131.384 94.2681 131.384C95.4521 131.384 96.1561 131.96 96.1561 133.496V139H97.2441V133.336C97.2441 131.432 96.2521 130.392 94.5561 130.392ZM104.943 139H106.319L102.559 134.072L106.255 130.52H104.815L100.783 134.504V127.16H99.6955V139H100.783V135.784L101.823 134.792L104.943 139ZM113.099 136.6C112.699 137.432 111.947 138.168 110.667 138.168C109.035 138.168 107.963 137.208 107.867 134.952H113.803L113.835 134.008C113.835 131.704 112.267 130.392 110.443 130.392C108.235 130.392 106.763 132.168 106.763 134.648C106.763 137.352 108.171 139.128 110.555 139.128C112.443 139.128 113.499 138.072 113.899 137.048L113.099 136.6ZM110.443 131.352C111.691 131.352 112.811 132.152 112.763 134.056H107.867C108.011 132.04 109.163 131.352 110.443 131.352ZM118.975 130.392C118.223 130.392 117.471 130.776 117.023 131.576V130.52H115.935V139H117.023V133.784C117.023 132.072 117.759 131.352 118.735 131.352C119.599 131.352 119.887 131.912 119.887 132.76V133.592L120.879 133.4V132.568C120.879 131.128 120.079 130.392 118.975 130.392ZM121.331 137.08C120.739 137.08 120.307 137.512 120.307 138.072C120.307 138.696 120.755 139.064 121.331 139.064C121.459 139.064 121.571 139.048 121.651 139.032C121.779 140.152 121.059 140.824 120.307 141.496L120.691 141.944C122.083 140.856 122.515 139.8 122.515 138.744C122.515 137.656 122.003 137.08 121.331 137.08ZM133.928 139H135.304L131.544 134.072L135.24 130.52H133.8L129.768 134.504V127.16H128.68V139H129.768V135.784L130.808 134.792L133.928 139ZM142.612 139C142.42 138.424 142.26 137.56 142.26 136.6V133.112C142.26 131.656 141.38 130.392 139.284 130.392C137.796 130.392 136.5 131.064 135.86 132.856L136.82 133.144C137.268 131.848 138.164 131.384 139.22 131.384C140.532 131.384 141.204 132.136 141.204 133.24V134.36C140.516 134.12 139.844 134.04 139.156 134.04C137.412 134.04 135.844 134.952 135.844 136.696C135.844 138.152 136.98 139.128 138.484 139.128C139.86 139.128 140.964 138.328 141.396 137.336C141.396 137.976 141.492 138.536 141.62 139H142.612ZM141.204 135.48C141.204 137.544 139.78 138.2 138.676 138.2C137.652 138.2 136.932 137.656 136.932 136.632C136.932 135.512 137.94 134.936 139.22 134.936C139.876 134.936 140.548 135.016 141.204 135.288V135.48ZM148.362 130.392C147.338 130.392 146.41 130.904 145.898 131.832V130.52H144.81V139H145.898V134.232C145.898 132.536 146.586 131.384 148.074 131.384C149.258 131.384 149.962 131.96 149.962 133.496V139H151.05V133.336C151.05 131.432 150.058 130.392 148.362 130.392ZM153.054 132.728C153.054 133.864 153.87 134.648 155.422 134.968L156.798 135.256C157.918 135.496 158.366 135.928 158.366 136.728C158.366 137.592 157.502 138.168 156.19 138.168C154.942 138.168 154.062 137.688 153.662 136.792L152.734 137.176C153.31 138.456 154.51 139.128 156.222 139.128C158.11 139.128 159.422 138.104 159.422 136.632C159.422 135.368 158.558 134.568 156.702 134.2L155.582 133.976C154.574 133.768 154.11 133.336 154.11 132.632C154.11 131.848 154.878 131.352 156.062 131.352C157.15 131.352 157.934 131.784 158.27 132.6L159.166 132.248C158.814 131.128 157.63 130.392 156.094 130.392C154.318 130.392 153.054 131.384 153.054 132.728ZM166.644 139H168.02L164.26 134.072L167.956 130.52H166.516L162.484 134.504V127.16H161.396V139H162.484V135.784L163.524 134.792L166.644 139ZM169.972 128.984C170.5 128.984 170.932 128.568 170.932 128.024C170.932 127.48 170.5 127.064 169.972 127.064C169.444 127.064 169.012 127.48 169.012 128.024C169.012 128.568 169.444 128.984 169.972 128.984ZM168.692 142.472C169.892 142.472 170.516 141.736 170.516 140.296V130.52H169.428V140.232C169.428 140.968 169.284 141.48 168.532 141.48C168.388 141.48 168.18 141.464 167.956 141.384L167.86 142.344C168.132 142.424 168.404 142.472 168.692 142.472ZM178.865 136.6C178.465 137.432 177.713 138.168 176.433 138.168C174.801 138.168 173.729 137.208 173.633 134.952H179.569L179.601 134.008C179.601 131.704 178.033 130.392 176.209 130.392C174.001 130.392 172.529 132.168 172.529 134.648C172.529 137.352 173.937 139.128 176.321 139.128C178.209 139.128 179.265 138.072 179.665 137.048L178.865 136.6ZM176.209 131.352C177.457 131.352 178.577 132.152 178.529 134.056H173.633C173.777 132.04 174.929 131.352 176.209 131.352ZM191.451 127.16V132.056C190.939 130.984 189.979 130.392 188.795 130.392C186.523 130.392 185.051 132.232 185.051 134.84C185.051 137.304 186.507 139.112 188.667 139.112C189.771 139.112 190.891 138.504 191.451 137.416V139H192.539V127.16H191.451ZM188.779 138.152C187.211 138.152 186.171 136.936 186.171 134.792C186.171 132.568 187.211 131.352 188.795 131.352C190.491 131.352 191.451 132.6 191.451 134.808C191.451 136.888 190.475 138.152 188.779 138.152ZM200.812 136.6C200.412 137.432 199.66 138.168 198.38 138.168C196.748 138.168 195.676 137.208 195.58 134.952H201.516L201.548 134.008C201.548 131.704 199.98 130.392 198.156 130.392C195.948 130.392 194.476 132.168 194.476 134.648C194.476 137.352 195.884 139.128 198.268 139.128C200.156 139.128 201.212 138.072 201.612 137.048L200.812 136.6ZM198.156 131.352C199.404 131.352 200.524 132.152 200.476 134.056H195.58C195.724 132.04 196.876 131.352 198.156 131.352ZM205.188 136.888V131.416H207.94V130.52H205.188V128.056L204.1 128.696V130.52H202.5V131.416H204.1V136.856C204.1 138.36 205.06 139.128 206.212 139.128C206.964 139.128 207.572 138.856 208.132 138.2L207.556 137.56C207.156 137.976 206.82 138.168 206.308 138.168C205.78 138.168 205.188 137.88 205.188 136.888ZM217.589 130.408C216.485 130.408 215.365 131.016 214.805 132.104V127.16H213.717V139H214.805V137.464C215.317 138.536 216.277 139.128 217.461 139.128C219.733 139.128 221.205 137.288 221.205 134.68C221.205 132.216 219.749 130.408 217.589 130.408ZM217.461 138.168C215.765 138.168 214.805 136.92 214.805 134.712C214.805 132.632 215.781 131.368 217.477 131.368C219.045 131.368 220.085 132.584 220.085 134.728C220.085 136.952 219.045 138.168 217.461 138.168ZM229.54 139C229.348 138.424 229.188 137.56 229.188 136.6V133.112C229.188 131.656 228.308 130.392 226.212 130.392C224.724 130.392 223.428 131.064 222.788 132.856L223.748 133.144C224.196 131.848 225.092 131.384 226.148 131.384C227.46 131.384 228.132 132.136 228.132 133.24V134.36C227.444 134.12 226.772 134.04 226.084 134.04C224.34 134.04 222.772 134.952 222.772 136.696C222.772 138.152 223.908 139.128 225.412 139.128C226.788 139.128 227.892 138.328 228.324 137.336C228.324 137.976 228.42 138.536 228.548 139H229.54ZM228.132 135.48C228.132 137.544 226.708 138.2 225.604 138.2C224.58 138.2 223.86 137.656 223.86 136.632C223.86 135.512 224.868 134.936 226.148 134.936C226.804 134.936 227.476 135.016 228.132 135.288V135.48ZM234.779 130.392C234.027 130.392 233.275 130.776 232.827 131.576V130.52H231.739V139H232.827V133.784C232.827 132.072 233.563 131.352 234.539 131.352C235.403 131.352 235.691 131.912 235.691 132.76V133.592L236.683 133.4V132.568C236.683 131.128 235.883 130.392 234.779 130.392ZM243.94 136.6C243.54 137.432 242.788 138.168 241.508 138.168C239.876 138.168 238.804 137.208 238.708 134.952H244.644L244.676 134.008C244.676 131.704 243.108 130.392 241.284 130.392C239.076 130.392 237.604 132.168 237.604 134.648C237.604 137.352 239.012 139.128 241.396 139.128C243.284 139.128 244.34 138.072 244.74 137.048L243.94 136.6ZM241.284 131.352C242.532 131.352 243.652 132.152 243.604 134.056H238.708C238.852 132.04 240.004 131.352 241.284 131.352ZM256.462 136.6C256.062 137.432 255.31 138.168 254.03 138.168C252.398 138.168 251.326 137.208 251.23 134.952H257.166L257.198 134.008C257.198 131.704 255.63 130.392 253.806 130.392C251.598 130.392 250.126 132.168 250.126 134.648C250.126 137.352 251.534 139.128 253.918 139.128C255.806 139.128 256.862 138.072 257.262 137.048L256.462 136.6ZM253.806 131.352C255.054 131.352 256.174 132.152 256.126 134.056H251.23C251.374 132.04 252.526 131.352 253.806 131.352ZM262.338 130.392C261.586 130.392 260.834 130.776 260.386 131.576V130.52H259.298V139H260.386V133.784C260.386 132.072 261.122 131.352 262.098 131.352C262.962 131.352 263.25 131.912 263.25 132.76V133.592L264.242 133.4V132.568C264.242 131.128 263.442 130.392 262.338 130.392ZM275.253 126.2H273.813L272.981 129.56H273.557L275.253 126.2ZM275.877 136.6C275.477 137.432 274.725 138.168 273.445 138.168C271.813 138.168 270.741 137.208 270.645 134.952H276.581L276.613 134.008C276.613 131.704 275.045 130.392 273.221 130.392C271.013 130.392 269.541 132.168 269.541 134.648C269.541 137.352 270.949 139.128 273.333 139.128C275.221 139.128 276.277 138.072 276.677 137.048L275.877 136.6ZM273.221 131.352C274.469 131.352 275.589 132.152 275.541 134.056H270.645C270.789 132.04 271.941 131.352 273.221 131.352ZM282.265 130.392C281.241 130.392 280.313 130.904 279.801 131.832V130.52H278.713V139H279.801V134.232C279.801 132.536 280.489 131.384 281.977 131.384C283.161 131.384 283.865 131.96 283.865 133.496V139H284.953V133.336C284.953 131.432 283.961 130.392 282.265 130.392ZM287.309 137.208V139H289.037V137.208H287.309ZM304.706 127.16L300.626 133.496L296.546 127.16H295.458V139H296.578V129.128L300.386 135.048H300.866L304.674 129.128V139H305.794V127.16H304.706ZM314.174 136.6C313.774 137.432 313.022 138.168 311.742 138.168C310.11 138.168 309.038 137.208 308.942 134.952H314.878L314.91 134.008C314.91 131.704 313.342 130.392 311.518 130.392C309.31 130.392 307.838 132.168 307.838 134.648C307.838 137.352 309.246 139.128 311.63 139.128C313.518 139.128 314.574 138.072 314.974 137.048L314.174 136.6ZM311.518 131.352C312.766 131.352 313.886 132.152 313.838 134.056H308.942C309.086 132.04 310.238 131.352 311.518 131.352ZM320.562 130.392C319.538 130.392 318.61 130.904 318.098 131.832V130.52H317.01V139H318.098V134.232C318.098 132.536 318.786 131.384 320.274 131.384C321.458 131.384 322.162 131.96 322.162 133.496V139H323.25V133.336C323.25 131.432 322.258 130.392 320.562 130.392ZM334.492 130.52V135.288C334.492 136.952 333.852 138.152 332.348 138.152C331.164 138.152 330.46 137.512 330.46 136.12V130.52H329.372V136.216C329.372 138.056 330.38 139.128 332.044 139.128C333.084 139.128 333.98 138.616 334.492 137.704V139H335.58V130.52H334.492ZM344.387 139C344.195 138.424 344.035 137.56 344.035 136.6V133.112C344.035 131.656 343.155 130.392 341.059 130.392C339.571 130.392 338.275 131.064 337.635 132.856L338.595 133.144C339.043 131.848 339.939 131.384 340.995 131.384C342.307 131.384 342.979 132.136 342.979 133.24V134.36C342.291 134.12 341.619 134.04 340.931 134.04C339.187 134.04 337.619 134.952 337.619 136.696C337.619 138.152 338.755 139.128 340.259 139.128C341.635 139.128 342.739 138.328 343.171 137.336C343.171 137.976 343.267 138.536 343.395 139H344.387ZM342.979 135.48C342.979 137.544 341.555 138.2 340.451 138.2C339.427 138.2 338.707 137.656 338.707 136.632C338.707 135.512 339.715 134.936 340.995 134.936C341.651 134.936 342.323 135.016 342.979 135.288V135.48ZM350.137 130.392C349.113 130.392 348.185 130.904 347.673 131.832V130.52H346.585V139H347.673V134.232C347.673 132.536 348.361 131.384 349.849 131.384C351.033 131.384 351.737 131.96 351.737 133.496V139H352.825V133.336C352.825 131.432 351.833 130.392 350.137 130.392ZM354.829 132.728C354.829 133.864 355.645 134.648 357.197 134.968L358.573 135.256C359.693 135.496 360.141 135.928 360.141 136.728C360.141 137.592 359.277 138.168 357.965 138.168C356.717 138.168 355.837 137.688 355.437 136.792L354.509 137.176C355.085 138.456 356.285 139.128 357.997 139.128C359.885 139.128 361.197 138.104 361.197 136.632C361.197 135.368 360.333 134.568 358.477 134.2L357.357 133.976C356.349 133.768 355.885 133.336 355.885 132.632C355.885 131.848 356.653 131.352 357.837 131.352C358.925 131.352 359.709 131.784 360.045 132.6L360.941 132.248C360.589 131.128 359.405 130.392 357.869 130.392C356.093 130.392 354.829 131.384 354.829 132.728ZM368.931 136.6C368.531 137.432 367.779 138.168 366.499 138.168C364.867 138.168 363.795 137.208 363.699 134.952H369.635L369.667 134.008C369.667 131.704 368.099 130.392 366.275 130.392C364.067 130.392 362.595 132.168 362.595 134.648C362.595 137.352 364.003 139.128 366.387 139.128C368.275 139.128 369.331 138.072 369.731 137.048L368.931 136.6ZM366.275 131.352C367.523 131.352 368.643 132.152 368.595 134.056H363.699C363.843 132.04 364.995 131.352 366.275 131.352ZM373.306 136.888V131.416H376.058V130.52H373.306V128.056L372.218 128.696V130.52H370.618V131.416H372.218V136.856C372.218 138.36 373.178 139.128 374.33 139.128C375.082 139.128 375.69 138.856 376.25 138.2L375.674 137.56C375.274 137.976 374.938 138.168 374.426 138.168C373.898 138.168 373.306 137.88 373.306 136.888ZM379.294 136.888V131.416H382.046V130.52H379.294V128.056L378.206 128.696V130.52H376.606V131.416H378.206V136.856C378.206 138.36 379.166 139.128 380.318 139.128C381.07 139.128 381.678 138.856 382.238 138.2L381.662 137.56C381.262 137.976 380.926 138.168 380.414 138.168C379.886 138.168 379.294 137.88 379.294 136.888ZM54.656 163H56.032L52.272 158.072L55.968 154.52H54.528L50.496 158.504V151.16H49.408V163H50.496V159.784L51.536 158.792L54.656 163ZM63.3398 163C63.1478 162.424 62.9878 161.56 62.9878 160.6V157.112C62.9878 155.656 62.1078 154.392 60.0118 154.392C58.5238 154.392 57.2278 155.064 56.5878 156.856L57.5478 157.144C57.9958 155.848 58.8918 155.384 59.9478 155.384C61.2598 155.384 61.9318 156.136 61.9318 157.24V158.36C61.2438 158.12 60.5718 158.04 59.8838 158.04C58.1398 158.04 56.5718 158.952 56.5718 160.696C56.5718 162.152 57.7078 163.128 59.2118 163.128C60.5878 163.128 61.6918 162.328 62.1238 161.336C62.1238 161.976 62.2198 162.536 62.3478 163H63.3398ZM61.9318 159.48C61.9318 161.544 60.5078 162.2 59.4038 162.2C58.3798 162.2 57.6598 161.656 57.6598 160.632C57.6598 159.512 58.6678 158.936 59.9478 158.936C60.6038 158.936 61.2758 159.016 61.9318 159.288V159.48ZM69.0905 154.392C68.0665 154.392 67.1385 154.904 66.6265 155.832V154.52H65.5385V163H66.6265V158.232C66.6265 156.536 67.3145 155.384 68.8025 155.384C69.9865 155.384 70.6905 155.96 70.6905 157.496V163H71.7785V157.336C71.7785 155.432 70.7865 154.392 69.0905 154.392ZM83.9476 151.16V156.056C83.4356 154.984 82.4756 154.392 81.2916 154.392C79.0196 154.392 77.5476 156.232 77.5476 158.84C77.5476 161.304 79.0036 163.112 81.1636 163.112C82.2676 163.112 83.3876 162.504 83.9476 161.416V163H85.0356V151.16H83.9476ZM81.2756 162.152C79.7076 162.152 78.6676 160.936 78.6676 158.792C78.6676 156.568 79.7076 155.352 81.2916 155.352C82.9876 155.352 83.9476 156.6 83.9476 158.808C83.9476 160.888 82.9716 162.152 81.2756 162.152ZM93.3086 160.6C92.9086 161.432 92.1566 162.168 90.8766 162.168C89.2446 162.168 88.1726 161.208 88.0766 158.952H94.0126L94.0446 158.008C94.0446 155.704 92.4766 154.392 90.6526 154.392C88.4446 154.392 86.9726 156.168 86.9726 158.648C86.9726 161.352 88.3806 163.128 90.7646 163.128C92.6526 163.128 93.7086 162.072 94.1086 161.048L93.3086 160.6ZM90.6526 155.352C91.9006 155.352 93.0206 156.152 92.9726 158.056H88.0766C88.2206 156.04 89.3726 155.352 90.6526 155.352ZM97.6845 160.888V155.416H100.436V154.52H97.6845V152.056L96.5965 152.696V154.52H94.9965V155.416H96.5965V160.856C96.5965 162.36 97.5565 163.128 98.7085 163.128C99.4605 163.128 100.068 162.856 100.628 162.2L100.052 161.56C99.6525 161.976 99.3165 162.168 98.8045 162.168C98.2765 162.168 97.6845 161.88 97.6845 160.888ZM111.59 154.52L108.934 161.8L106.278 154.52H105.094L108.422 163H109.382L112.71 154.52H111.59ZM124.849 160.6C124.465 161.432 123.729 162.168 122.481 162.168C120.849 162.168 119.809 161.208 119.745 158.92H125.489L125.521 158.008C125.521 155.704 124.097 154.392 122.321 154.392C121.057 154.392 120.033 154.984 119.457 155.944C119.105 155.048 118.257 154.392 116.785 154.392C115.393 154.392 114.033 155.144 113.409 156.808L114.321 157.144C114.769 155.928 115.713 155.384 116.785 155.384C118.049 155.384 118.721 156.136 118.721 157.24V158.088H116.689C114.913 158.088 113.345 158.968 113.345 160.696C113.345 162.152 114.513 163.128 116.049 163.128C117.617 163.128 118.849 162.104 119.169 160.856C119.633 162.264 120.801 163.128 122.433 163.128C124.209 163.128 125.249 162.008 125.649 161.048L124.849 160.6ZM122.321 155.352C123.505 155.352 124.561 156.168 124.513 158.088H119.745C119.841 156.04 121.025 155.352 122.321 155.352ZM118.721 159.48C118.721 161.544 117.281 162.2 116.177 162.2C115.153 162.2 114.433 161.656 114.433 160.632C114.433 159.512 115.441 158.92 116.721 158.92H118.721V159.48ZM130.729 154.392C129.977 154.392 129.225 154.776 128.777 155.576V154.52H127.689V163H128.777V157.784C128.777 156.072 129.513 155.352 130.489 155.352C131.353 155.352 131.641 155.912 131.641 156.76V157.592L132.633 157.4V156.568C132.633 155.128 131.833 154.392 130.729 154.392ZM139.89 160.6C139.49 161.432 138.738 162.168 137.458 162.168C135.826 162.168 134.754 161.208 134.658 158.952H140.594L140.626 158.008C140.626 155.704 139.058 154.392 137.234 154.392C135.026 154.392 133.554 156.168 133.554 158.648C133.554 161.352 134.962 163.128 137.346 163.128C139.234 163.128 140.29 162.072 140.69 161.048L139.89 160.6ZM137.234 155.352C138.482 155.352 139.602 156.152 139.554 158.056H134.658C134.802 156.04 135.954 155.352 137.234 155.352ZM146.204 156.728C146.204 157.864 147.02 158.648 148.572 158.968L149.948 159.256C151.068 159.496 151.516 159.928 151.516 160.728C151.516 161.592 150.652 162.168 149.34 162.168C148.092 162.168 147.212 161.688 146.812 160.792L145.884 161.176C146.46 162.456 147.66 163.128 149.372 163.128C151.26 163.128 152.572 162.104 152.572 160.632C152.572 159.368 151.708 158.568 149.852 158.2L148.732 157.976C147.724 157.768 147.26 157.336 147.26 156.632C147.26 155.848 148.028 155.352 149.212 155.352C150.3 155.352 151.084 155.784 151.42 156.6L152.316 156.248C151.964 155.128 150.78 154.392 149.244 154.392C147.468 154.392 146.204 155.384 146.204 156.728ZM158.385 154.408C157.281 154.408 156.161 155.016 155.601 156.104V154.52H154.513V166.36H155.601V161.464C156.113 162.536 157.073 163.128 158.257 163.128C160.529 163.128 162.001 161.288 162.001 158.68C162.001 156.216 160.545 154.408 158.385 154.408ZM158.257 162.168C156.561 162.168 155.601 160.92 155.601 158.712C155.601 156.632 156.577 155.368 158.273 155.368C159.841 155.368 160.881 156.584 160.881 158.728C160.881 160.952 159.841 162.168 158.257 162.168ZM169.809 160.6C169.409 161.432 168.657 162.168 167.377 162.168C165.745 162.168 164.673 161.208 164.577 158.952H170.513L170.545 158.008C170.545 155.704 168.977 154.392 167.153 154.392C164.945 154.392 163.473 156.168 163.473 158.648C163.473 161.352 164.881 163.128 167.265 163.128C169.153 163.128 170.209 162.072 170.609 161.048L169.809 160.6ZM167.153 155.352C168.401 155.352 169.521 156.152 169.473 158.056H164.577C164.721 156.04 165.873 155.352 167.153 155.352ZM176.197 154.392C175.173 154.392 174.245 154.904 173.733 155.832V154.52H172.645V163H173.733V158.232C173.733 156.536 174.421 155.384 175.909 155.384C177.093 155.384 177.797 155.96 177.797 157.496V163H178.885V157.336C178.885 155.432 177.893 154.392 176.197 154.392ZM184.856 154.392C183.832 154.392 182.904 154.904 182.392 155.832V154.52H181.304V163H182.392V158.232C182.392 156.536 183.08 155.384 184.568 155.384C185.752 155.384 186.456 155.96 186.456 157.496V163H187.544V157.336C187.544 155.432 186.552 154.392 184.856 154.392ZM195.755 160.6C195.355 161.432 194.603 162.168 193.323 162.168C191.691 162.168 190.619 161.208 190.523 158.952H196.459L196.491 158.008C196.491 155.704 194.923 154.392 193.099 154.392C190.891 154.392 189.419 156.168 189.419 158.648C189.419 161.352 190.827 163.128 193.211 163.128C195.099 163.128 196.155 162.072 196.555 161.048L195.755 160.6ZM193.099 155.352C194.347 155.352 195.467 156.152 195.419 158.056H190.523C190.667 156.04 191.819 155.352 193.099 155.352ZM202.144 154.392C201.12 154.392 200.192 154.904 199.68 155.832V154.52H198.592V163H199.68V158.232C199.68 156.536 200.368 155.384 201.856 155.384C203.04 155.384 203.744 155.96 203.744 157.496V163H204.832V157.336C204.832 155.432 203.84 154.392 202.144 154.392ZM213.107 151.16V156.056C212.595 154.984 211.635 154.392 210.451 154.392C208.179 154.392 206.707 156.232 206.707 158.84C206.707 161.304 208.163 163.112 210.323 163.112C211.427 163.112 212.547 162.504 213.107 161.416V163H214.195V151.16H213.107ZM210.435 162.152C208.867 162.152 207.827 160.936 207.827 158.792C207.827 156.568 208.867 155.352 210.451 155.352C212.147 155.352 213.107 156.6 213.107 158.808C213.107 160.888 212.131 162.152 210.435 162.152ZM222.468 160.6C222.068 161.432 221.316 162.168 220.036 162.168C218.404 162.168 217.332 161.208 217.236 158.952H223.172L223.204 158.008C223.204 155.704 221.636 154.392 219.812 154.392C217.604 154.392 216.132 156.168 216.132 158.648C216.132 161.352 217.54 163.128 219.924 163.128C221.812 163.128 222.868 162.072 223.268 161.048L222.468 160.6ZM219.812 155.352C221.06 155.352 222.18 156.152 222.132 158.056H217.236C217.38 156.04 218.532 155.352 219.812 155.352ZM232.222 153.624C233.262 153.624 234.11 152.856 234.11 151.8C234.11 150.744 233.262 149.976 232.222 149.976C231.182 149.976 230.334 150.744 230.334 151.8C230.334 152.856 231.182 153.624 232.222 153.624ZM232.222 150.712C232.83 150.712 233.31 151.096 233.31 151.8C233.31 152.52 232.83 152.888 232.222 152.888C231.614 152.888 231.134 152.52 231.134 151.8C231.134 151.096 231.614 150.712 232.222 150.712ZM235.518 163C235.326 162.424 235.166 161.56 235.166 160.6V157.112C235.166 155.656 234.286 154.392 232.19 154.392C230.702 154.392 229.406 155.064 228.766 156.856L229.726 157.144C230.174 155.848 231.07 155.384 232.126 155.384C233.438 155.384 234.11 156.136 234.11 157.24V158.36C233.422 158.12 232.75 158.04 232.062 158.04C230.318 158.04 228.75 158.952 228.75 160.696C228.75 162.152 229.886 163.128 231.39 163.128C232.766 163.128 233.87 162.328 234.302 161.336C234.302 161.976 234.398 162.536 234.526 163H235.518ZM234.11 159.48C234.11 161.544 232.686 162.2 231.582 162.2C230.558 162.2 229.838 161.656 229.838 160.632C229.838 159.512 230.846 158.936 232.126 158.936C232.782 158.936 233.454 159.016 234.11 159.288V159.48ZM244.266 162.968V162.008C244.106 162.056 243.93 162.072 243.754 162.072C243.082 162.072 242.698 161.704 242.698 160.984V151.16H241.61V160.984C241.61 162.232 242.234 163.064 243.562 163.064C243.802 163.064 244.01 163.032 244.266 162.968ZM251.593 160.6C251.193 161.432 250.441 162.168 249.161 162.168C247.529 162.168 246.457 161.208 246.361 158.952H252.297L252.329 158.008C252.329 155.704 250.761 154.392 248.937 154.392C246.729 154.392 245.257 156.168 245.257 158.648C245.257 161.352 246.665 163.128 249.049 163.128C250.937 163.128 251.993 162.072 252.393 161.048L251.593 160.6ZM248.937 155.352C250.185 155.352 251.305 156.152 251.257 158.056H246.361C246.505 156.04 247.657 155.352 248.937 155.352ZM254.013 156.728C254.013 157.864 254.829 158.648 256.381 158.968L257.757 159.256C258.877 159.496 259.325 159.928 259.325 160.728C259.325 161.592 258.461 162.168 257.149 162.168C255.901 162.168 255.021 161.688 254.621 160.792L253.693 161.176C254.269 162.456 255.469 163.128 257.181 163.128C259.069 163.128 260.381 162.104 260.381 160.632C260.381 159.368 259.517 158.568 257.661 158.2L256.541 157.976C255.533 157.768 255.069 157.336 255.069 156.632C255.069 155.848 255.837 155.352 257.021 155.352C258.109 155.352 258.893 155.784 259.229 156.6L260.125 156.248C259.773 155.128 258.589 154.392 257.053 154.392C255.277 154.392 254.013 155.384 254.013 156.728ZM268.115 160.6C267.715 161.432 266.963 162.168 265.683 162.168C264.051 162.168 262.979 161.208 262.883 158.952H268.819L268.851 158.008C268.851 155.704 267.283 154.392 265.459 154.392C263.251 154.392 261.779 156.168 261.779 158.648C261.779 161.352 263.187 163.128 265.571 163.128C267.459 163.128 268.515 162.072 268.915 161.048L268.115 160.6ZM265.459 155.352C266.707 155.352 267.827 156.152 267.779 158.056H262.883C263.027 156.04 264.179 155.352 265.459 155.352ZM278.077 163.128C280.173 163.128 281.853 161.4 281.853 158.744C281.853 156.12 280.189 154.392 278.077 154.392C275.965 154.392 274.301 156.12 274.301 158.744C274.301 161.4 275.981 163.128 278.077 163.128ZM278.077 162.168C276.621 162.168 275.421 161.016 275.421 158.744C275.421 156.488 276.637 155.352 278.077 155.352C279.517 155.352 280.733 156.488 280.733 158.744C280.733 161.016 279.533 162.168 278.077 162.168ZM292.312 154.392C291.224 154.392 290.248 155 289.768 156.12C289.464 155.016 288.616 154.392 287.352 154.392C286.36 154.392 285.464 154.904 284.952 155.848V154.52H283.864V163H284.952V158.232C284.952 156.536 285.576 155.384 287.064 155.384C288.168 155.384 288.824 155.96 288.824 157.336V163H289.912V158.232C289.912 156.536 290.536 155.384 292.024 155.384C293.128 155.384 293.784 155.96 293.784 157.336V163H294.872V157.176C294.872 155.416 293.928 154.392 292.312 154.392ZM303.838 162.968V162.008C303.678 162.056 303.502 162.072 303.326 162.072C302.654 162.072 302.27 161.704 302.27 160.984V151.16H301.182V160.984C301.182 162.232 301.806 163.064 303.134 163.064C303.374 163.064 303.582 163.032 303.838 162.968ZM311.165 160.6C310.765 161.432 310.013 162.168 308.733 162.168C307.101 162.168 306.029 161.208 305.933 158.952H311.869L311.901 158.008C311.901 155.704 310.333 154.392 308.509 154.392C306.301 154.392 304.829 156.168 304.829 158.648C304.829 161.352 306.237 163.128 308.621 163.128C310.509 163.128 311.565 162.072 311.965 161.048L311.165 160.6ZM308.509 155.352C309.757 155.352 310.877 156.152 310.829 158.056H305.933C306.077 156.04 307.229 155.352 308.509 155.352ZM317.553 154.392C316.529 154.392 315.601 154.904 315.089 155.832V154.52H314.001V163H315.089V158.232C315.089 156.536 315.777 155.384 317.265 155.384C318.449 155.384 319.153 155.96 319.153 157.496V163H320.241V157.336C320.241 155.432 319.249 154.392 317.553 154.392ZM327.94 163H329.316L325.556 158.072L329.252 154.52H327.812L323.78 158.504V151.16H322.692V163H323.78V159.784L324.82 158.792L327.94 163ZM336.096 160.6C335.696 161.432 334.944 162.168 333.664 162.168C332.032 162.168 330.96 161.208 330.864 158.952H336.8L336.832 158.008C336.832 155.704 335.264 154.392 333.44 154.392C331.232 154.392 329.76 156.168 329.76 158.648C329.76 161.352 331.168 163.128 333.552 163.128C335.44 163.128 336.496 162.072 336.896 161.048L336.096 160.6ZM333.44 155.352C334.688 155.352 335.808 156.152 335.76 158.056H330.864C331.008 156.04 332.16 155.352 333.44 155.352ZM341.972 154.392C341.22 154.392 340.468 154.776 340.02 155.576V154.52H338.932V163H340.02V157.784C340.02 156.072 340.756 155.352 341.732 155.352C342.596 155.352 342.884 155.912 342.884 156.76V157.592L343.876 157.4V156.568C343.876 155.128 343.076 154.392 341.972 154.392ZM344.392 163.096C344.968 163.096 345.416 162.664 345.416 162.072C345.416 161.48 344.968 161.048 344.392 161.048C343.816 161.048 343.368 161.48 343.368 162.072C343.368 162.664 343.816 163.096 344.392 163.096Z" fill="#2A2859"/>
<path d="M240.234 166.264H346.568V166.968H240.234V166.264Z" fill="#2A2859"/>
<mask id="path-4-inside-2_4768_151063" fill="white">
<path d="M465 55H921.751V210.915H465V55Z"/>
</mask>
<path d="M465 55H921.751V210.915H465V55Z" fill="white"/>
<path d="M921.751 210.915V211.915H922.751V210.915H921.751ZM465 210.915H464V211.915H465V210.915ZM920.751 55V210.915H922.751V55H920.751ZM921.751 209.915H465V211.915H921.751V209.915ZM466 210.915V55H464V210.915H466Z" fill="#E6E6E6" mask="url(#path-4-inside-2_4768_151063)"/>
<rect x="0.5" y="0.546875" width="454.316" height="53.97" stroke="#E6E6E6"/>
<rect x="465.693" y="0.546875" width="455.304" height="53.97" stroke="#E6E6E6"/>
<path d="M0 44.0229H455.316V55.0169H0V44.0229Z" fill="#C7F6C9"/>
<path opacity="0.6" d="M465.193 44.0229H921.497V55.0169H465.193V44.0229Z" fill="#FF8274"/>
<path d="M20.2116 28.1909C21.7956 28.1909 23.3796 27.7269 24.4356 26.8469V21.6469H18.9796V22.9429H23.1556V26.1909C22.3556 26.6549 21.4916 26.8949 20.2916 26.8949C17.8276 26.8949 16.0996 25.1829 16.0996 22.0629C16.0996 18.9429 17.9236 17.4229 20.0676 17.4229C21.4116 17.4229 22.5636 18.0949 23.1396 19.3429L24.4036 18.6869C23.6516 17.0069 22.1476 16.0629 20.0836 16.0629C17.0916 16.0629 14.6116 18.4149 14.6116 22.0629C14.6116 25.8229 16.9636 28.1909 20.2116 28.1909ZM27.5186 18.0789C28.1106 18.0789 28.5906 17.6149 28.5906 16.9909C28.5906 16.3829 28.1106 15.9189 27.5186 15.9189C26.9106 15.9189 26.4306 16.3829 26.4306 16.9909C26.4306 17.6149 26.9106 18.0789 27.5186 18.0789ZM26.1906 31.5349C27.5506 31.5349 28.2066 30.6869 28.2066 29.1509V19.5669H26.8306V29.1669C26.8306 29.8869 26.6226 30.3509 25.9186 30.3509C25.7586 30.3509 25.5666 30.3349 25.3426 30.2549L25.2306 31.3909C25.5346 31.4869 25.8706 31.5349 26.1906 31.5349ZM36.3084 20.1429L37.0124 18.7509H36.1964L35.6844 19.7589C35.2044 19.5349 34.6604 19.4069 34.0844 19.4069C31.9244 19.4069 30.1964 21.1349 30.1964 23.7749C30.1964 25.4069 30.8364 26.6869 31.8124 27.4389L31.1084 28.8469H31.9404L32.4524 27.8229C32.9484 28.0629 33.5084 28.1909 34.0844 28.1909C36.2124 28.1909 37.9564 26.4629 37.9564 23.7749C37.9564 22.1589 37.3164 20.8789 36.3084 20.1429ZM31.6204 23.7749C31.6204 21.6149 32.7404 20.6069 34.0844 20.6069C34.4524 20.6069 34.8204 20.6869 35.1404 20.8469L32.4044 26.2709C31.9244 25.7429 31.6204 24.9109 31.6204 23.7749ZM34.0844 26.9909C33.7004 26.9909 33.3324 26.9109 32.9964 26.7349L35.7324 21.2949C36.2284 21.8229 36.5324 22.6389 36.5324 23.7749C36.5324 25.9349 35.4284 26.9909 34.0844 26.9909ZM43.2918 19.4069C42.5398 19.4069 41.7398 19.7909 41.2758 20.6549V19.5669H39.8998V28.0469H41.2758V22.9429C41.2758 21.2629 41.9798 20.5909 42.9398 20.5909C43.7878 20.5909 44.0598 21.1349 44.0598 21.9509V22.7989L45.2438 22.5749V21.6309C45.2438 20.1749 44.4438 19.4069 43.2918 19.4069ZM50.6146 21.8229C50.6146 22.9909 51.4626 23.7909 53.0306 24.1109L54.4866 24.3989C55.4626 24.6069 55.8786 24.9909 55.8786 25.6949C55.8786 26.4949 55.0626 27.0229 53.8466 27.0229C52.6466 27.0229 51.7986 26.5589 51.3666 25.6949L50.3106 26.2549C50.9186 27.5029 52.1506 28.1749 53.8786 28.1749C55.8626 28.1749 57.2066 27.1349 57.2066 25.6149C57.2066 24.3349 56.3266 23.5189 54.4866 23.1509L53.2546 22.9109C52.3426 22.7189 51.9426 22.3509 51.9426 21.7269C51.9426 21.0069 52.6626 20.5749 53.7506 20.5749C54.7906 20.5749 55.5586 20.9909 55.9106 21.7429L56.9506 21.2149C56.5026 20.0949 55.3506 19.4069 53.7826 19.4069C51.9106 19.4069 50.6146 20.4469 50.6146 21.8229ZM62.041 28.0149V26.8309C61.865 26.8789 61.689 26.8949 61.529 26.8949C60.857 26.8949 60.457 26.5429 60.457 25.8069V16.2069H59.081V25.8709C59.081 27.2469 59.769 28.1269 61.209 28.1269C61.497 28.1269 61.753 28.0789 62.041 28.0149ZM63.5625 16.1109V17.9669H65.4505V16.1109H63.5625ZM63.8185 28.0469H65.1945V19.5669H63.8185V28.0469ZM73.0555 28.0469H74.7355L71.0715 23.0709L74.6715 19.5669H72.9275L69.1355 23.3749V16.2069H67.7595V28.0469H69.1355V24.9589L70.1435 23.9669L73.0555 28.0469Z" fill="#2A2859"/>
<path d="M484.379 28.0469H485.803V16.2069H484.379V28.0469ZM493.646 28.0469H495.326L491.662 23.0709L495.262 19.5669H493.518L489.726 23.3749V16.2069H488.35V28.0469H489.726V24.9589L490.734 23.9669L493.646 28.0469ZM502.227 28.0469H503.907L500.243 23.0709L503.843 19.5669H502.099L498.307 23.3749V16.2069H496.931V28.0469H498.307V24.9589L499.315 23.9669L502.227 28.0469ZM510.664 25.5349C510.248 26.3509 509.496 27.0229 508.328 27.0229C506.792 27.0229 505.784 26.1429 505.688 24.0629H511.56L511.592 23.0869C511.592 20.7349 509.976 19.4069 508.088 19.4069C505.864 19.4069 504.312 21.1829 504.312 23.7109C504.312 26.3669 505.768 28.1909 508.216 28.1909C510.12 28.1909 511.192 27.1349 511.64 26.0789L510.664 25.5349ZM508.088 20.5589C509.224 20.5589 510.264 21.2789 510.248 22.9909H505.688C505.848 21.1829 506.888 20.5589 508.088 20.5589ZM517.102 21.8229C517.102 22.9909 517.95 23.7909 519.518 24.1109L520.974 24.3989C521.95 24.6069 522.366 24.9909 522.366 25.6949C522.366 26.4949 521.55 27.0229 520.334 27.0229C519.134 27.0229 518.286 26.5589 517.854 25.6949L516.798 26.2549C517.406 27.5029 518.638 28.1749 520.366 28.1749C522.35 28.1749 523.694 27.1349 523.694 25.6149C523.694 24.3349 522.814 23.5189 520.974 23.1509L519.742 22.9109C518.83 22.7189 518.43 22.3509 518.43 21.7269C518.43 21.0069 519.15 20.5749 520.238 20.5749C521.278 20.5749 522.046 20.9909 522.398 21.7429L523.438 21.2149C522.99 20.0949 521.838 19.4069 520.27 19.4069C518.398 19.4069 517.102 20.4469 517.102 21.8229ZM528.528 28.0149V26.8309C528.352 26.8789 528.176 26.8949 528.016 26.8949C527.344 26.8949 526.944 26.5429 526.944 25.8069V16.2069H525.568V25.8709C525.568 27.2469 526.256 28.1269 527.696 28.1269C527.984 28.1269 528.24 28.0789 528.528 28.0149ZM530.994 18.0789C531.586 18.0789 532.066 17.6149 532.066 16.9909C532.066 16.3829 531.586 15.9189 530.994 15.9189C530.386 15.9189 529.906 16.3829 529.906 16.9909C529.906 17.6149 530.386 18.0789 530.994 18.0789ZM530.306 28.0469H531.682V19.5669H530.306V28.0469ZM539.543 28.0469H541.223L537.559 23.0709L541.159 19.5669H539.415L535.623 23.3749V16.2069H534.247V28.0469H535.623V24.9589L536.631 23.9669L539.543 28.0469Z" fill="#2A2859"/>
<path fill-rule="evenodd" clip-rule="evenodd" d="M721.857 156.893L714.357 149.393L711.143 152.607L715.429 156.893L711.143 161.179L714.357 164.393L721.857 156.893ZM709 152.607L714.357 147.25L724 156.893L714.357 166.536L709 161.179L713.286 156.893L709 152.607Z" fill="#2A2859"/>
<path d="M514.408 115H518.28C521.208 115 523.464 112.584 523.464 109.016C523.464 105.448 521.208 103.16 518.28 103.16H514.408V115ZM515.528 113.976V104.184H518.024C520.504 104.184 522.312 105.752 522.312 109.016C522.312 112.312 520.52 113.976 518.056 113.976H515.528ZM531.234 112.6C530.834 113.432 530.082 114.168 528.802 114.168C527.17 114.168 526.098 113.208 526.002 110.952H531.938L531.97 110.008C531.97 107.704 530.402 106.392 528.578 106.392C526.37 106.392 524.898 108.168 524.898 110.648C524.898 113.352 526.306 115.128 528.69 115.128C530.578 115.128 531.634 114.072 532.034 113.048L531.234 112.6ZM528.578 107.352C529.826 107.352 530.946 108.152 530.898 110.056H526.002C526.146 108.04 527.298 107.352 528.578 107.352ZM535.61 112.888V107.416H538.362V106.52H535.61V104.056L534.522 104.696V106.52H532.922V107.416H534.522V112.856C534.522 114.36 535.482 115.128 536.634 115.128C537.386 115.128 537.994 114.856 538.554 114.2L537.978 113.56C537.578 113.976 537.242 114.168 536.73 114.168C536.202 114.168 535.61 113.88 535.61 112.888ZM541.597 112.888V107.416H544.349V106.52H541.597V104.056L540.509 104.696V106.52H538.909V107.416H540.509V112.856C540.509 114.36 541.469 115.128 542.621 115.128C543.373 115.128 543.981 114.856 544.541 114.2L543.965 113.56C543.565 113.976 543.229 114.168 542.717 114.168C542.189 114.168 541.597 113.88 541.597 112.888ZM551.509 112.6C551.109 113.432 550.357 114.168 549.077 114.168C547.445 114.168 546.373 113.208 546.277 110.952H552.213L552.245 110.008C552.245 107.704 550.677 106.392 548.853 106.392C546.645 106.392 545.173 108.168 545.173 110.648C545.173 113.352 546.581 115.128 548.965 115.128C550.853 115.128 551.909 114.072 552.309 113.048L551.509 112.6ZM548.853 107.352C550.101 107.352 551.221 108.152 551.173 110.056H546.277C546.421 108.04 547.573 107.352 548.853 107.352ZM564.03 112.6C563.63 113.432 562.878 114.168 561.598 114.168C559.966 114.168 558.894 113.208 558.798 110.952H564.734L564.766 110.008C564.766 107.704 563.198 106.392 561.374 106.392C559.166 106.392 557.694 108.168 557.694 110.648C557.694 113.352 559.102 115.128 561.486 115.128C563.374 115.128 564.43 114.072 564.83 113.048L564.03 112.6ZM561.374 107.352C562.622 107.352 563.742 108.152 563.694 110.056H558.798C558.942 108.04 560.094 107.352 561.374 107.352ZM569.907 106.392C569.155 106.392 568.403 106.776 567.955 107.576V106.52H566.867V115H567.955V109.784C567.955 108.072 568.691 107.352 569.667 107.352C570.531 107.352 570.819 107.912 570.819 108.76V109.592L571.811 109.4V108.568C571.811 107.128 571.011 106.392 569.907 106.392ZM583.446 112.6C583.046 113.432 582.294 114.168 581.014 114.168C579.382 114.168 578.31 113.208 578.214 110.952H584.15L584.182 110.008C584.182 107.704 582.614 106.392 580.79 106.392C578.582 106.392 577.11 108.168 577.11 110.648C577.11 113.352 578.518 115.128 580.902 115.128C582.79 115.128 583.846 114.072 584.246 113.048L583.446 112.6ZM580.79 107.352C582.038 107.352 583.158 108.152 583.11 110.056H578.214C578.358 108.04 579.51 107.352 580.79 107.352ZM589.834 106.392C588.81 106.392 587.882 106.904 587.37 107.832V106.52H586.282V115H587.37V110.232C587.37 108.536 588.058 107.384 589.546 107.384C590.73 107.384 591.434 107.96 591.434 109.496V115H592.522V109.336C592.522 107.432 591.53 106.392 589.834 106.392ZM601.491 114.968V114.008C601.331 114.056 601.155 114.072 600.979 114.072C600.307 114.072 599.923 113.704 599.923 112.984V103.16H598.835V112.984C598.835 114.232 599.459 115.064 600.787 115.064C601.027 115.064 601.235 115.032 601.491 114.968ZM608.818 112.6C608.418 113.432 607.666 114.168 606.386 114.168C604.754 114.168 603.682 113.208 603.586 110.952H609.522L609.554 110.008C609.554 107.704 607.986 106.392 606.162 106.392C603.954 106.392 602.482 108.168 602.482 110.648C602.482 113.352 603.89 115.128 606.274 115.128C608.162 115.128 609.218 114.072 609.618 113.048L608.818 112.6ZM606.162 107.352C607.41 107.352 608.53 108.152 608.482 110.056H603.586C603.73 108.04 604.882 107.352 606.162 107.352ZM615.206 106.392C614.182 106.392 613.254 106.904 612.742 107.832V106.52H611.654V115H612.742V110.232C612.742 108.536 613.43 107.384 614.918 107.384C616.102 107.384 616.806 107.96 616.806 109.496V115H617.894V109.336C617.894 107.432 616.902 106.392 615.206 106.392ZM627.93 107.416V106.52H625.498V107.112C624.986 106.68 624.314 106.392 623.434 106.392C621.194 106.392 620.058 107.976 620.058 109.496C620.058 110.536 620.682 111.72 621.802 112.168C620.762 112.44 620.138 113.096 620.138 113.848C620.138 114.728 620.842 115.288 622.026 115.288H625.674C626.442 115.288 626.698 115.64 626.698 116.12C626.698 117.144 625.226 117.672 623.466 117.672C622.042 117.672 620.794 117.4 620.202 116.008L619.322 116.408C619.834 117.896 621.322 118.584 623.466 118.584C625.85 118.584 627.786 117.704 627.786 116.024C627.786 114.968 627.082 114.296 625.706 114.296H622.266C621.562 114.296 621.226 113.992 621.226 113.56C621.226 113 621.914 112.632 622.874 112.632H623.242C625.626 112.632 626.746 111.048 626.746 109.496C626.746 108.872 626.522 108.232 626.106 107.72V107.416H627.93ZM623.418 111.736C621.898 111.736 621.13 110.68 621.13 109.496C621.13 108.328 621.898 107.32 623.418 107.32C624.922 107.32 625.674 108.312 625.674 109.496C625.674 110.696 624.922 111.736 623.418 111.736ZM632.466 106.392C631.714 106.392 630.962 106.776 630.514 107.576V106.52H629.426V115H630.514V109.784C630.514 108.072 631.25 107.352 632.226 107.352C633.09 107.352 633.378 107.912 633.378 108.76V109.592L634.37 109.4V108.568C634.37 107.128 633.57 106.392 632.466 106.392ZM641.627 112.6C641.227 113.432 640.475 114.168 639.195 114.168C637.563 114.168 636.491 113.208 636.395 110.952H642.331L642.363 110.008C642.363 107.704 640.795 106.392 638.971 106.392C636.763 106.392 635.291 108.168 635.291 110.648C635.291 113.352 636.699 115.128 639.083 115.128C640.971 115.128 642.027 114.072 642.427 113.048L641.627 112.6ZM638.971 107.352C640.219 107.352 641.339 108.152 641.291 110.056H636.395C636.539 108.04 637.691 107.352 638.971 107.352ZM650.053 112.888V107.416H652.805V106.52H650.053V104.056L648.965 104.696V106.52H647.365V107.416H648.965V112.856C648.965 114.36 649.925 115.128 651.077 115.128C651.829 115.128 652.437 114.856 652.997 114.2L652.421 113.56C652.021 113.976 651.685 114.168 651.173 114.168C650.645 114.168 650.053 113.88 650.053 112.888ZM659.965 112.6C659.565 113.432 658.813 114.168 657.533 114.168C655.901 114.168 654.829 113.208 654.733 110.952H660.669L660.701 110.008C660.701 107.704 659.133 106.392 657.309 106.392C655.101 106.392 653.629 108.168 653.629 110.648C653.629 113.352 655.037 115.128 657.421 115.128C659.309 115.128 660.365 114.072 660.765 113.048L659.965 112.6ZM657.309 107.352C658.557 107.352 659.677 108.152 659.629 110.056H654.733C654.877 108.04 656.029 107.352 657.309 107.352ZM668.081 115H669.457L665.697 110.072L669.393 106.52H667.953L663.921 110.504V103.16H662.833V115H663.921V111.784L664.961 110.792L668.081 115ZM670.185 108.728C670.185 109.864 671.001 110.648 672.553 110.968L673.929 111.256C675.049 111.496 675.497 111.928 675.497 112.728C675.497 113.592 674.633 114.168 673.321 114.168C672.073 114.168 671.193 113.688 670.793 112.792L669.865 113.176C670.441 114.456 671.641 115.128 673.353 115.128C675.241 115.128 676.553 114.104 676.553 112.632C676.553 111.368 675.689 110.568 673.833 110.2L672.713 109.976C671.705 109.768 671.241 109.336 671.241 108.632C671.241 107.848 672.009 107.352 673.193 107.352C674.281 107.352 675.065 107.784 675.401 108.6L676.297 108.248C675.945 107.128 674.761 106.392 673.225 106.392C671.449 106.392 670.185 107.384 670.185 108.728ZM680.034 112.888V107.416H682.786V106.52H680.034V104.056L678.946 104.696V106.52H677.346V107.416H678.946V112.856C678.946 114.36 679.906 115.128 681.058 115.128C681.81 115.128 682.418 114.856 682.978 114.2L682.402 113.56C682.002 113.976 681.666 114.168 681.154 114.168C680.626 114.168 680.034 113.88 680.034 112.888ZM694.388 103.16V108.056C693.876 106.984 692.916 106.392 691.732 106.392C689.46 106.392 687.988 108.232 687.988 110.84C687.988 113.304 689.444 115.112 691.604 115.112C692.708 115.112 693.828 114.504 694.388 113.416V115H695.476V103.16H694.388ZM691.716 114.152C690.148 114.152 689.108 112.936 689.108 110.792C689.108 108.568 690.148 107.352 691.732 107.352C693.428 107.352 694.388 108.6 694.388 110.808C694.388 112.888 693.412 114.152 691.716 114.152ZM703.749 112.6C703.349 113.432 702.597 114.168 701.317 114.168C699.685 114.168 698.613 113.208 698.517 110.952H704.453L704.485 110.008C704.485 107.704 702.917 106.392 701.093 106.392C698.885 106.392 697.413 108.168 697.413 110.648C697.413 113.352 698.821 115.128 701.205 115.128C703.093 115.128 704.149 114.072 704.549 113.048L703.749 112.6ZM701.093 107.352C702.341 107.352 703.461 108.152 703.413 110.056H698.517C698.661 108.04 699.813 107.352 701.093 107.352ZM709.625 106.392C708.873 106.392 708.121 106.776 707.673 107.576V106.52H706.585V115H707.673V109.784C707.673 108.072 708.409 107.352 709.385 107.352C710.249 107.352 710.537 107.912 710.537 108.76V109.592L711.529 109.4V108.568C711.529 107.128 710.729 106.392 709.625 106.392ZM722.781 106.52L720.125 113.8L717.469 106.52H716.285L719.613 115H720.573L723.901 106.52H722.781ZM725.904 104.984C726.432 104.984 726.864 104.568 726.864 104.024C726.864 103.48 726.432 103.064 725.904 103.064C725.376 103.064 724.944 103.48 724.944 104.024C724.944 104.568 725.376 104.984 725.904 104.984ZM725.36 115H726.448V106.52H725.36V115ZM738.178 115H739.554L735.794 110.072L739.49 106.52H738.05L734.018 110.504V103.16H732.93V115H734.018V111.784L735.058 110.792L738.178 115ZM746.862 115C746.67 114.424 746.51 113.56 746.51 112.6V109.112C746.51 107.656 745.63 106.392 743.534 106.392C742.046 106.392 740.75 107.064 740.11 108.856L741.07 109.144C741.518 107.848 742.414 107.384 743.47 107.384C744.782 107.384 745.454 108.136 745.454 109.24V110.36C744.766 110.12 744.094 110.04 743.406 110.04C741.662 110.04 740.094 110.952 740.094 112.696C740.094 114.152 741.23 115.128 742.734 115.128C744.11 115.128 745.214 114.328 745.646 113.336C745.646 113.976 745.742 114.536 745.87 115H746.862ZM745.454 111.48C745.454 113.544 744.03 114.2 742.926 114.2C741.902 114.2 741.182 113.656 741.182 112.632C741.182 111.512 742.19 110.936 743.47 110.936C744.126 110.936 744.798 111.016 745.454 111.288V111.48ZM752.612 106.392C751.588 106.392 750.66 106.904 750.148 107.832V106.52H749.06V115H750.148V110.232C750.148 108.536 750.836 107.384 752.324 107.384C753.508 107.384 754.212 107.96 754.212 109.496V115H755.3V109.336C755.3 107.432 754.308 106.392 752.612 106.392ZM761.198 108.728C761.198 109.864 762.014 110.648 763.566 110.968L764.942 111.256C766.062 111.496 766.51 111.928 766.51 112.728C766.51 113.592 765.646 114.168 764.334 114.168C763.086 114.168 762.206 113.688 761.806 112.792L760.878 113.176C761.454 114.456 762.654 115.128 764.366 115.128C766.254 115.128 767.566 114.104 767.566 112.632C767.566 111.368 766.702 110.568 764.846 110.2L763.726 109.976C762.718 109.768 762.254 109.336 762.254 108.632C762.254 107.848 763.022 107.352 764.206 107.352C765.294 107.352 766.078 107.784 766.414 108.6L767.31 108.248C766.958 107.128 765.774 106.392 764.238 106.392C762.462 106.392 761.198 107.384 761.198 108.728ZM775.299 112.6C774.899 113.432 774.147 114.168 772.867 114.168C771.235 114.168 770.163 113.208 770.067 110.952H776.003L776.035 110.008C776.035 107.704 774.467 106.392 772.643 106.392C770.435 106.392 768.963 108.168 768.963 110.648C768.963 113.352 770.371 115.128 772.755 115.128C774.643 115.128 775.699 114.072 776.099 113.048L775.299 112.6ZM772.643 107.352C773.891 107.352 775.011 108.152 774.963 110.056H770.067C770.211 108.04 771.363 107.352 772.643 107.352ZM785.261 115.128C787.357 115.128 789.037 113.4 789.037 110.744C789.037 108.12 787.373 106.392 785.261 106.392C783.149 106.392 781.485 108.12 781.485 110.744C781.485 113.4 783.165 115.128 785.261 115.128ZM785.261 114.168C783.805 114.168 782.605 113.016 782.605 110.744C782.605 108.488 783.821 107.352 785.261 107.352C786.701 107.352 787.917 108.488 787.917 110.744C787.917 113.016 786.717 114.168 785.261 114.168ZM799.496 106.392C798.408 106.392 797.432 107 796.952 108.12C796.648 107.016 795.8 106.392 794.536 106.392C793.544 106.392 792.648 106.904 792.136 107.848V106.52H791.048V115H792.136V110.232C792.136 108.536 792.76 107.384 794.248 107.384C795.352 107.384 796.008 107.96 796.008 109.336V115H797.096V110.232C797.096 108.536 797.72 107.384 799.208 107.384C800.312 107.384 800.968 107.96 800.968 109.336V115H802.056V109.176C802.056 107.416 801.112 106.392 799.496 106.392ZM814.223 103.16V108.056C813.711 106.984 812.751 106.392 811.567 106.392C809.295 106.392 807.823 108.232 807.823 110.84C807.823 113.304 809.279 115.112 811.439 115.112C812.543 115.112 813.663 114.504 814.223 113.416V115H815.311V103.16H814.223ZM811.551 114.152C809.983 114.152 808.943 112.936 808.943 110.792C808.943 108.568 809.983 107.352 811.567 107.352C813.263 107.352 814.223 108.6 814.223 110.808C814.223 112.888 813.247 114.152 811.551 114.152ZM823.584 112.6C823.184 113.432 822.432 114.168 821.152 114.168C819.52 114.168 818.448 113.208 818.352 110.952H824.288L824.32 110.008C824.32 107.704 822.752 106.392 820.928 106.392C818.72 106.392 817.248 108.168 817.248 110.648C817.248 113.352 818.656 115.128 821.04 115.128C822.928 115.128 823.984 114.072 824.384 113.048L823.584 112.6ZM820.928 107.352C822.176 107.352 823.296 108.152 823.248 110.056H818.352C818.496 108.04 819.648 107.352 820.928 107.352ZM827.96 112.888V107.416H830.712V106.52H827.96V104.056L826.872 104.696V106.52H825.272V107.416H826.872V112.856C826.872 114.36 827.832 115.128 828.984 115.128C829.736 115.128 830.344 114.856 830.904 114.2L830.328 113.56C829.928 113.976 829.592 114.168 829.08 114.168C828.552 114.168 827.96 113.88 827.96 112.888ZM842.249 112.6C841.849 113.432 841.097 114.168 839.817 114.168C838.185 114.168 837.113 113.208 837.017 110.952H842.953L842.985 110.008C842.985 107.704 841.417 106.392 839.593 106.392C837.385 106.392 835.913 108.168 835.913 110.648C835.913 113.352 837.321 115.128 839.705 115.128C841.593 115.128 842.649 114.072 843.049 113.048L842.249 112.6ZM839.593 107.352C840.841 107.352 841.961 108.152 841.913 110.056H837.017C837.161 108.04 838.313 107.352 839.593 107.352ZM848.125 106.392C847.373 106.392 846.621 106.776 846.173 107.576V106.52H845.085V115H846.173V109.784C846.173 108.072 846.909 107.352 847.885 107.352C848.749 107.352 849.037 107.912 849.037 108.76V109.592L850.029 109.4V108.568C850.029 107.128 849.229 106.392 848.125 106.392ZM861.665 112.6C861.265 113.432 860.513 114.168 859.233 114.168C857.601 114.168 856.529 113.208 856.433 110.952H862.369L862.401 110.008C862.401 107.704 860.833 106.392 859.009 106.392C856.801 106.392 855.329 108.168 855.329 110.648C855.329 113.352 856.737 115.128 859.121 115.128C861.009 115.128 862.065 114.072 862.465 113.048L861.665 112.6ZM859.009 107.352C860.257 107.352 861.377 108.152 861.329 110.056H856.433C856.577 108.04 857.729 107.352 859.009 107.352ZM866.041 112.888V107.416H868.793V106.52H866.041V104.056L864.953 104.696V106.52H863.353V107.416H864.953V112.856C864.953 114.36 865.913 115.128 867.065 115.128C867.817 115.128 868.425 114.856 868.985 114.2L868.409 113.56C868.009 113.976 867.673 114.168 867.161 114.168C866.633 114.168 866.041 113.88 866.041 112.888ZM518.248 130.408C517.144 130.408 516.024 131.016 515.464 132.104V130.52H514.376V142.36H515.464V137.464C515.976 138.536 516.936 139.128 518.12 139.128C520.392 139.128 521.864 137.288 521.864 134.68C521.864 132.216 520.408 130.408 518.248 130.408ZM518.12 138.168C516.424 138.168 515.464 136.92 515.464 134.712C515.464 132.632 516.44 131.368 518.136 131.368C519.704 131.368 520.744 132.584 520.744 134.728C520.744 136.952 519.704 138.168 518.12 138.168ZM530.199 139C530.007 138.424 529.847 137.56 529.847 136.6V133.112C529.847 131.656 528.967 130.392 526.871 130.392C525.383 130.392 524.087 131.064 523.447 132.856L524.407 133.144C524.855 131.848 525.751 131.384 526.807 131.384C528.119 131.384 528.791 132.136 528.791 133.24V134.36C528.103 134.12 527.431 134.04 526.743 134.04C524.999 134.04 523.431 134.952 523.431 136.696C523.431 138.152 524.567 139.128 526.071 139.128C527.447 139.128 528.551 138.328 528.983 137.336C528.983 137.976 529.079 138.536 529.207 139H530.199ZM528.791 135.48C528.791 137.544 527.367 138.2 526.263 138.2C525.239 138.2 524.519 137.656 524.519 136.632C524.519 135.512 525.527 134.936 526.807 134.936C527.463 134.936 528.135 135.016 528.791 135.288V135.48ZM535.438 130.392C534.686 130.392 533.934 130.776 533.486 131.576V130.52H532.398V139H533.486V133.784C533.486 132.072 534.222 131.352 535.198 131.352C536.062 131.352 536.35 131.912 536.35 132.76V133.592L537.342 133.4V132.568C537.342 131.128 536.542 130.392 535.438 130.392ZM545.841 138.968V138.008C545.681 138.056 545.505 138.072 545.329 138.072C544.657 138.072 544.273 137.704 544.273 136.984V127.16H543.185V136.984C543.185 138.232 543.809 139.064 545.137 139.064C545.377 139.064 545.585 139.032 545.841 138.968ZM553.168 136.6C552.768 137.432 552.016 138.168 550.736 138.168C549.104 138.168 548.032 137.208 547.936 134.952H553.872L553.904 134.008C553.904 131.704 552.336 130.392 550.512 130.392C548.304 130.392 546.832 132.168 546.832 134.648C546.832 137.352 548.24 139.128 550.624 139.128C552.512 139.128 553.568 138.072 553.968 137.048L553.168 136.6ZM550.512 131.352C551.76 131.352 552.88 132.152 552.832 134.056H547.936C548.08 132.04 549.232 131.352 550.512 131.352ZM559.556 130.392C558.532 130.392 557.604 130.904 557.092 131.832V130.52H556.004V139H557.092V134.232C557.092 132.536 557.78 131.384 559.268 131.384C560.452 131.384 561.156 131.96 561.156 133.496V139H562.244V133.336C562.244 131.432 561.252 130.392 559.556 130.392ZM569.943 139H571.319L567.559 134.072L571.255 130.52H569.815L565.783 134.504V127.16H564.695V139H565.783V135.784L566.823 134.792L569.943 139ZM578.099 136.6C577.699 137.432 576.947 138.168 575.667 138.168C574.035 138.168 572.963 137.208 572.867 134.952H578.803L578.835 134.008C578.835 131.704 577.267 130.392 575.443 130.392C573.235 130.392 571.763 132.168 571.763 134.648C571.763 137.352 573.171 139.128 575.555 139.128C577.443 139.128 578.499 138.072 578.899 137.048L578.099 136.6ZM575.443 131.352C576.691 131.352 577.811 132.152 577.763 134.056H572.867C573.011 132.04 574.163 131.352 575.443 131.352ZM583.975 130.392C583.223 130.392 582.471 130.776 582.023 131.576V130.52H580.935V139H582.023V133.784C582.023 132.072 582.759 131.352 583.735 131.352C584.599 131.352 584.887 131.912 584.887 132.76V133.592L585.879 133.4V132.568C585.879 131.128 585.079 130.392 583.975 130.392ZM586.331 137.08C585.739 137.08 585.307 137.512 585.307 138.072C585.307 138.696 585.755 139.064 586.331 139.064C586.459 139.064 586.571 139.048 586.651 139.032C586.779 140.152 586.059 140.824 585.307 141.496L585.691 141.944C587.083 140.856 587.515 139.8 587.515 138.744C587.515 137.656 587.003 137.08 586.331 137.08ZM598.928 139H600.304L596.544 134.072L600.24 130.52H598.8L594.768 134.504V127.16H593.68V139H594.768V135.784L595.808 134.792L598.928 139ZM607.612 139C607.42 138.424 607.26 137.56 607.26 136.6V133.112C607.26 131.656 606.38 130.392 604.284 130.392C602.796 130.392 601.5 131.064 600.86 132.856L601.82 133.144C602.268 131.848 603.164 131.384 604.22 131.384C605.532 131.384 606.204 132.136 606.204 133.24V134.36C605.516 134.12 604.844 134.04 604.156 134.04C602.412 134.04 600.844 134.952 600.844 136.696C600.844 138.152 601.98 139.128 603.484 139.128C604.86 139.128 605.964 138.328 606.396 137.336C606.396 137.976 606.492 138.536 606.62 139H607.612ZM606.204 135.48C606.204 137.544 604.78 138.2 603.676 138.2C602.652 138.2 601.932 137.656 601.932 136.632C601.932 135.512 602.94 134.936 604.22 134.936C604.876 134.936 605.548 135.016 606.204 135.288V135.48ZM613.362 130.392C612.338 130.392 611.41 130.904 610.898 131.832V130.52H609.81V139H610.898V134.232C610.898 132.536 611.586 131.384 613.074 131.384C614.258 131.384 614.962 131.96 614.962 133.496V139H616.05V133.336C616.05 131.432 615.058 130.392 613.362 130.392ZM618.054 132.728C618.054 133.864 618.87 134.648 620.422 134.968L621.798 135.256C622.918 135.496 623.366 135.928 623.366 136.728C623.366 137.592 622.502 138.168 621.19 138.168C619.942 138.168 619.062 137.688 618.662 136.792L617.734 137.176C618.31 138.456 619.51 139.128 621.222 139.128C623.11 139.128 624.422 138.104 624.422 136.632C624.422 135.368 623.558 134.568 621.702 134.2L620.582 133.976C619.574 133.768 619.11 133.336 619.11 132.632C619.11 131.848 619.878 131.352 621.062 131.352C622.15 131.352 622.934 131.784 623.27 132.6L624.166 132.248C623.814 131.128 622.63 130.392 621.094 130.392C619.318 130.392 618.054 131.384 618.054 132.728ZM631.644 139H633.02L629.26 134.072L632.956 130.52H631.516L627.484 134.504V127.16H626.396V139H627.484V135.784L628.524 134.792L631.644 139ZM634.972 128.984C635.5 128.984 635.932 128.568 635.932 128.024C635.932 127.48 635.5 127.064 634.972 127.064C634.444 127.064 634.012 127.48 634.012 128.024C634.012 128.568 634.444 128.984 634.972 128.984ZM633.692 142.472C634.892 142.472 635.516 141.736 635.516 140.296V130.52H634.428V140.232C634.428 140.968 634.284 141.48 633.532 141.48C633.388 141.48 633.18 141.464 632.956 141.384L632.86 142.344C633.132 142.424 633.404 142.472 633.692 142.472ZM643.865 136.6C643.465 137.432 642.713 138.168 641.433 138.168C639.801 138.168 638.729 137.208 638.633 134.952H644.569L644.601 134.008C644.601 131.704 643.033 130.392 641.209 130.392C639.001 130.392 637.529 132.168 637.529 134.648C637.529 137.352 638.937 139.128 641.321 139.128C643.209 139.128 644.265 138.072 644.665 137.048L643.865 136.6ZM641.209 131.352C642.457 131.352 643.577 132.152 643.529 134.056H638.633C638.777 132.04 639.929 131.352 641.209 131.352ZM656.451 127.16V132.056C655.939 130.984 654.979 130.392 653.795 130.392C651.523 130.392 650.051 132.232 650.051 134.84C650.051 137.304 651.507 139.112 653.667 139.112C654.771 139.112 655.891 138.504 656.451 137.416V139H657.539V127.16H656.451ZM653.779 138.152C652.211 138.152 651.171 136.936 651.171 134.792C651.171 132.568 652.211 131.352 653.795 131.352C655.491 131.352 656.451 132.6 656.451 134.808C656.451 136.888 655.475 138.152 653.779 138.152ZM665.812 136.6C665.412 137.432 664.66 138.168 663.38 138.168C661.748 138.168 660.676 137.208 660.58 134.952H666.516L666.548 134.008C666.548 131.704 664.98 130.392 663.156 130.392C660.948 130.392 659.476 132.168 659.476 134.648C659.476 137.352 660.884 139.128 663.268 139.128C665.156 139.128 666.212 138.072 666.612 137.048L665.812 136.6ZM663.156 131.352C664.404 131.352 665.524 132.152 665.476 134.056H660.58C660.724 132.04 661.876 131.352 663.156 131.352ZM670.188 136.888V131.416H672.94V130.52H670.188V128.056L669.1 128.696V130.52H667.5V131.416H669.1V136.856C669.1 138.36 670.06 139.128 671.212 139.128C671.964 139.128 672.572 138.856 673.132 138.2L672.556 137.56C672.156 137.976 671.82 138.168 671.308 138.168C670.78 138.168 670.188 137.88 670.188 136.888ZM682.589 130.408C681.485 130.408 680.365 131.016 679.805 132.104V127.16H678.717V139H679.805V137.464C680.317 138.536 681.277 139.128 682.461 139.128C684.733 139.128 686.205 137.288 686.205 134.68C686.205 132.216 684.749 130.408 682.589 130.408ZM682.461 138.168C680.765 138.168 679.805 136.92 679.805 134.712C679.805 132.632 680.781 131.368 682.477 131.368C684.045 131.368 685.085 132.584 685.085 134.728C685.085 136.952 684.045 138.168 682.461 138.168ZM694.54 139C694.348 138.424 694.188 137.56 694.188 136.6V133.112C694.188 131.656 693.308 130.392 691.212 130.392C689.724 130.392 688.428 131.064 687.788 132.856L688.748 133.144C689.196 131.848 690.092 131.384 691.148 131.384C692.46 131.384 693.132 132.136 693.132 133.24V134.36C692.444 134.12 691.772 134.04 691.084 134.04C689.34 134.04 687.772 134.952 687.772 136.696C687.772 138.152 688.908 139.128 690.412 139.128C691.788 139.128 692.892 138.328 693.324 137.336C693.324 137.976 693.42 138.536 693.548 139H694.54ZM693.132 135.48C693.132 137.544 691.708 138.2 690.604 138.2C689.58 138.2 688.86 137.656 688.86 136.632C688.86 135.512 689.868 134.936 691.148 134.936C691.804 134.936 692.476 135.016 693.132 135.288V135.48ZM699.779 130.392C699.027 130.392 698.275 130.776 697.827 131.576V130.52H696.739V139H697.827V133.784C697.827 132.072 698.563 131.352 699.539 131.352C700.403 131.352 700.691 131.912 700.691 132.76V133.592L701.683 133.4V132.568C701.683 131.128 700.883 130.392 699.779 130.392ZM708.94 136.6C708.54 137.432 707.788 138.168 706.508 138.168C704.876 138.168 703.804 137.208 703.708 134.952H709.644L709.676 134.008C709.676 131.704 708.108 130.392 706.284 130.392C704.076 130.392 702.604 132.168 702.604 134.648C702.604 137.352 704.012 139.128 706.396 139.128C708.284 139.128 709.34 138.072 709.74 137.048L708.94 136.6ZM706.284 131.352C707.532 131.352 708.652 132.152 708.604 134.056H703.708C703.852 132.04 705.004 131.352 706.284 131.352ZM721.462 136.6C721.062 137.432 720.31 138.168 719.03 138.168C717.398 138.168 716.326 137.208 716.23 134.952H722.166L722.198 134.008C722.198 131.704 720.63 130.392 718.806 130.392C716.598 130.392 715.126 132.168 715.126 134.648C715.126 137.352 716.534 139.128 718.918 139.128C720.806 139.128 721.862 138.072 722.262 137.048L721.462 136.6ZM718.806 131.352C720.054 131.352 721.174 132.152 721.126 134.056H716.23C716.374 132.04 717.526 131.352 718.806 131.352ZM727.338 130.392C726.586 130.392 725.834 130.776 725.386 131.576V130.52H724.298V139H725.386V133.784C725.386 132.072 726.122 131.352 727.098 131.352C727.962 131.352 728.25 131.912 728.25 132.76V133.592L729.242 133.4V132.568C729.242 131.128 728.442 130.392 727.338 130.392ZM740.253 126.2H738.813L737.981 129.56H738.557L740.253 126.2ZM740.877 136.6C740.477 137.432 739.725 138.168 738.445 138.168C736.813 138.168 735.741 137.208 735.645 134.952H741.581L741.613 134.008C741.613 131.704 740.045 130.392 738.221 130.392C736.013 130.392 734.541 132.168 734.541 134.648C734.541 137.352 735.949 139.128 738.333 139.128C740.221 139.128 741.277 138.072 741.677 137.048L740.877 136.6ZM738.221 131.352C739.469 131.352 740.589 132.152 740.541 134.056H735.645C735.789 132.04 736.941 131.352 738.221 131.352ZM747.265 130.392C746.241 130.392 745.313 130.904 744.801 131.832V130.52H743.713V139H744.801V134.232C744.801 132.536 745.489 131.384 746.977 131.384C748.161 131.384 748.865 131.96 748.865 133.496V139H749.953V133.336C749.953 131.432 748.961 130.392 747.265 130.392ZM752.309 137.208V139H754.037V137.208H752.309ZM769.706 127.16L765.626 133.496L761.546 127.16H760.458V139H761.578V129.128L765.386 135.048H765.866L769.674 129.128V139H770.794V127.16H769.706ZM779.174 136.6C778.774 137.432 778.022 138.168 776.742 138.168C775.11 138.168 774.038 137.208 773.942 134.952H779.878L779.91 134.008C779.91 131.704 778.342 130.392 776.518 130.392C774.31 130.392 772.838 132.168 772.838 134.648C772.838 137.352 774.246 139.128 776.63 139.128C778.518 139.128 779.574 138.072 779.974 137.048L779.174 136.6ZM776.518 131.352C777.766 131.352 778.886 132.152 778.838 134.056H773.942C774.086 132.04 775.238 131.352 776.518 131.352ZM785.562 130.392C784.538 130.392 783.61 130.904 783.098 131.832V130.52H782.01V139H783.098V134.232C783.098 132.536 783.786 131.384 785.274 131.384C786.458 131.384 787.162 131.96 787.162 133.496V139H788.25V133.336C788.25 131.432 787.258 130.392 785.562 130.392ZM799.492 130.52V135.288C799.492 136.952 798.852 138.152 797.348 138.152C796.164 138.152 795.46 137.512 795.46 136.12V130.52H794.372V136.216C794.372 138.056 795.38 139.128 797.044 139.128C798.084 139.128 798.98 138.616 799.492 137.704V139H800.58V130.52H799.492ZM809.387 139C809.195 138.424 809.035 137.56 809.035 136.6V133.112C809.035 131.656 808.155 130.392 806.059 130.392C804.571 130.392 803.275 131.064 802.635 132.856L803.595 133.144C804.043 131.848 804.939 131.384 805.995 131.384C807.307 131.384 807.979 132.136 807.979 133.24V134.36C807.291 134.12 806.619 134.04 805.931 134.04C804.187 134.04 802.619 134.952 802.619 136.696C802.619 138.152 803.755 139.128 805.259 139.128C806.635 139.128 807.739 138.328 808.171 137.336C808.171 137.976 808.267 138.536 808.395 139H809.387ZM807.979 135.48C807.979 137.544 806.555 138.2 805.451 138.2C804.427 138.2 803.707 137.656 803.707 136.632C803.707 135.512 804.715 134.936 805.995 134.936C806.651 134.936 807.323 135.016 807.979 135.288V135.48ZM815.137 130.392C814.113 130.392 813.185 130.904 812.673 131.832V130.52H811.585V139H812.673V134.232C812.673 132.536 813.361 131.384 814.849 131.384C816.033 131.384 816.737 131.96 816.737 133.496V139H817.825V133.336C817.825 131.432 816.833 130.392 815.137 130.392ZM819.829 132.728C819.829 133.864 820.645 134.648 822.197 134.968L823.573 135.256C824.693 135.496 825.141 135.928 825.141 136.728C825.141 137.592 824.277 138.168 822.965 138.168C821.717 138.168 820.837 137.688 820.437 136.792L819.509 137.176C820.085 138.456 821.285 139.128 822.997 139.128C824.885 139.128 826.197 138.104 826.197 136.632C826.197 135.368 825.333 134.568 823.477 134.2L822.357 133.976C821.349 133.768 820.885 133.336 820.885 132.632C820.885 131.848 821.653 131.352 822.837 131.352C823.925 131.352 824.709 131.784 825.045 132.6L825.941 132.248C825.589 131.128 824.405 130.392 822.869 130.392C821.093 130.392 819.829 131.384 819.829 132.728ZM833.931 136.6C833.531 137.432 832.779 138.168 831.499 138.168C829.867 138.168 828.795 137.208 828.699 134.952H834.635L834.667 134.008C834.667 131.704 833.099 130.392 831.275 130.392C829.067 130.392 827.595 132.168 827.595 134.648C827.595 137.352 829.003 139.128 831.387 139.128C833.275 139.128 834.331 138.072 834.731 137.048L833.931 136.6ZM831.275 131.352C832.523 131.352 833.643 132.152 833.595 134.056H828.699C828.843 132.04 829.995 131.352 831.275 131.352ZM838.306 136.888V131.416H841.058V130.52H838.306V128.056L837.218 128.696V130.52H835.618V131.416H837.218V136.856C837.218 138.36 838.178 139.128 839.33 139.128C840.082 139.128 840.69 138.856 841.25 138.2L840.674 137.56C840.274 137.976 839.938 138.168 839.426 138.168C838.898 138.168 838.306 137.88 838.306 136.888ZM844.294 136.888V131.416H847.046V130.52H844.294V128.056L843.206 128.696V130.52H841.606V131.416H843.206V136.856C843.206 138.36 844.166 139.128 845.318 139.128C846.07 139.128 846.678 138.856 847.238 138.2L846.662 137.56C846.262 137.976 845.926 138.168 845.414 138.168C844.886 138.168 844.294 137.88 844.294 136.888ZM519.656 163H521.032L517.272 158.072L520.968 154.52H519.528L515.496 158.504V151.16H514.408V163H515.496V159.784L516.536 158.792L519.656 163ZM528.34 163C528.148 162.424 527.988 161.56 527.988 160.6V157.112C527.988 155.656 527.108 154.392 525.012 154.392C523.524 154.392 522.228 155.064 521.588 156.856L522.548 157.144C522.996 155.848 523.892 155.384 524.948 155.384C526.26 155.384 526.932 156.136 526.932 157.24V158.36C526.244 158.12 525.572 158.04 524.884 158.04C523.14 158.04 521.572 158.952 521.572 160.696C521.572 162.152 522.708 163.128 524.212 163.128C525.588 163.128 526.692 162.328 527.124 161.336C527.124 161.976 527.22 162.536 527.348 163H528.34ZM526.932 159.48C526.932 161.544 525.508 162.2 524.404 162.2C523.38 162.2 522.66 161.656 522.66 160.632C522.66 159.512 523.668 158.936 524.948 158.936C525.604 158.936 526.276 159.016 526.932 159.288V159.48ZM534.091 154.392C533.067 154.392 532.139 154.904 531.627 155.832V154.52H530.539V163H531.627V158.232C531.627 156.536 532.315 155.384 533.803 155.384C534.987 155.384 535.691 155.96 535.691 157.496V163H536.779V157.336C536.779 155.432 535.787 154.392 534.091 154.392ZM548.948 151.16V156.056C548.436 154.984 547.476 154.392 546.292 154.392C544.02 154.392 542.548 156.232 542.548 158.84C542.548 161.304 544.004 163.112 546.164 163.112C547.268 163.112 548.388 162.504 548.948 161.416V163H550.036V151.16H548.948ZM546.276 162.152C544.708 162.152 543.668 160.936 543.668 158.792C543.668 156.568 544.708 155.352 546.292 155.352C547.988 155.352 548.948 156.6 548.948 158.808C548.948 160.888 547.972 162.152 546.276 162.152ZM558.309 160.6C557.909 161.432 557.157 162.168 555.877 162.168C554.245 162.168 553.173 161.208 553.077 158.952H559.013L559.045 158.008C559.045 155.704 557.477 154.392 555.653 154.392C553.445 154.392 551.973 156.168 551.973 158.648C551.973 161.352 553.381 163.128 555.765 163.128C557.653 163.128 558.709 162.072 559.109 161.048L558.309 160.6ZM555.653 155.352C556.901 155.352 558.021 156.152 557.973 158.056H553.077C553.221 156.04 554.373 155.352 555.653 155.352ZM562.684 160.888V155.416H565.436V154.52H562.684V152.056L561.596 152.696V154.52H559.996V155.416H561.596V160.856C561.596 162.36 562.556 163.128 563.708 163.128C564.46 163.128 565.068 162.856 565.628 162.2L565.052 161.56C564.652 161.976 564.316 162.168 563.804 162.168C563.276 162.168 562.684 161.88 562.684 160.888ZM576.59 154.52L573.934 161.8L571.278 154.52H570.094L573.422 163H574.382L577.71 154.52H576.59ZM589.849 160.6C589.465 161.432 588.729 162.168 587.481 162.168C585.849 162.168 584.809 161.208 584.745 158.92H590.489L590.521 158.008C590.521 155.704 589.097 154.392 587.321 154.392C586.057 154.392 585.033 154.984 584.457 155.944C584.105 155.048 583.257 154.392 581.785 154.392C580.393 154.392 579.033 155.144 578.409 156.808L579.321 157.144C579.769 155.928 580.713 155.384 581.785 155.384C583.049 155.384 583.721 156.136 583.721 157.24V158.088H581.689C579.913 158.088 578.345 158.968 578.345 160.696C578.345 162.152 579.513 163.128 581.049 163.128C582.617 163.128 583.849 162.104 584.169 160.856C584.633 162.264 585.801 163.128 587.433 163.128C589.209 163.128 590.249 162.008 590.649 161.048L589.849 160.6ZM587.321 155.352C588.505 155.352 589.561 156.168 589.513 158.088H584.745C584.841 156.04 586.025 155.352 587.321 155.352ZM583.721 159.48C583.721 161.544 582.281 162.2 581.177 162.2C580.153 162.2 579.433 161.656 579.433 160.632C579.433 159.512 580.441 158.92 581.721 158.92H583.721V159.48ZM595.729 154.392C594.977 154.392 594.225 154.776 593.777 155.576V154.52H592.689V163H593.777V157.784C593.777 156.072 594.513 155.352 595.489 155.352C596.353 155.352 596.641 155.912 596.641 156.76V157.592L597.633 157.4V156.568C597.633 155.128 596.833 154.392 595.729 154.392ZM604.89 160.6C604.49 161.432 603.738 162.168 602.458 162.168C600.826 162.168 599.754 161.208 599.658 158.952H605.594L605.626 158.008C605.626 155.704 604.058 154.392 602.234 154.392C600.026 154.392 598.554 156.168 598.554 158.648C598.554 161.352 599.962 163.128 602.346 163.128C604.234 163.128 605.29 162.072 605.69 161.048L604.89 160.6ZM602.234 155.352C603.482 155.352 604.602 156.152 604.554 158.056H599.658C599.802 156.04 600.954 155.352 602.234 155.352ZM611.204 156.728C611.204 157.864 612.02 158.648 613.572 158.968L614.948 159.256C616.068 159.496 616.516 159.928 616.516 160.728C616.516 161.592 615.652 162.168 614.34 162.168C613.092 162.168 612.212 161.688 611.812 160.792L610.884 161.176C611.46 162.456 612.66 163.128 614.372 163.128C616.26 163.128 617.572 162.104 617.572 160.632C617.572 159.368 616.708 158.568 614.852 158.2L613.732 157.976C612.724 157.768 612.26 157.336 612.26 156.632C612.26 155.848 613.028 155.352 614.212 155.352C615.3 155.352 616.084 155.784 616.42 156.6L617.316 156.248C616.964 155.128 615.78 154.392 614.244 154.392C612.468 154.392 611.204 155.384 611.204 156.728ZM623.385 154.408C622.281 154.408 621.161 155.016 620.601 156.104V154.52H619.513V166.36H620.601V161.464C621.113 162.536 622.073 163.128 623.257 163.128C625.529 163.128 627.001 161.288 627.001 158.68C627.001 156.216 625.545 154.408 623.385 154.408ZM623.257 162.168C621.561 162.168 620.601 160.92 620.601 158.712C620.601 156.632 621.577 155.368 623.273 155.368C624.841 155.368 625.881 156.584 625.881 158.728C625.881 160.952 624.841 162.168 623.257 162.168ZM634.809 160.6C634.409 161.432 633.657 162.168 632.377 162.168C630.745 162.168 629.673 161.208 629.577 158.952H635.513L635.545 158.008C635.545 155.704 633.977 154.392 632.153 154.392C629.945 154.392 628.473 156.168 628.473 158.648C628.473 161.352 629.881 163.128 632.265 163.128C634.153 163.128 635.209 162.072 635.609 161.048L634.809 160.6ZM632.153 155.352C633.401 155.352 634.521 156.152 634.473 158.056H629.577C629.721 156.04 630.873 155.352 632.153 155.352ZM641.197 154.392C640.173 154.392 639.245 154.904 638.733 155.832V154.52H637.645V163H638.733V158.232C638.733 156.536 639.421 155.384 640.909 155.384C642.093 155.384 642.797 155.96 642.797 157.496V163H643.885V157.336C643.885 155.432 642.893 154.392 641.197 154.392ZM649.856 154.392C648.832 154.392 647.904 154.904 647.392 155.832V154.52H646.304V163H647.392V158.232C647.392 156.536 648.08 155.384 649.568 155.384C650.752 155.384 651.456 155.96 651.456 157.496V163H652.544V157.336C652.544 155.432 651.552 154.392 649.856 154.392ZM660.755 160.6C660.355 161.432 659.603 162.168 658.323 162.168C656.691 162.168 655.619 161.208 655.523 158.952H661.459L661.491 158.008C661.491 155.704 659.923 154.392 658.099 154.392C655.891 154.392 654.419 156.168 654.419 158.648C654.419 161.352 655.827 163.128 658.211 163.128C660.099 163.128 661.155 162.072 661.555 161.048L660.755 160.6ZM658.099 155.352C659.347 155.352 660.467 156.152 660.419 158.056H655.523C655.667 156.04 656.819 155.352 658.099 155.352ZM667.144 154.392C666.12 154.392 665.192 154.904 664.68 155.832V154.52H663.592V163H664.68V158.232C664.68 156.536 665.368 155.384 666.856 155.384C668.04 155.384 668.744 155.96 668.744 157.496V163H669.832V157.336C669.832 155.432 668.84 154.392 667.144 154.392ZM678.107 151.16V156.056C677.595 154.984 676.635 154.392 675.451 154.392C673.179 154.392 671.707 156.232 671.707 158.84C671.707 161.304 673.163 163.112 675.323 163.112C676.427 163.112 677.547 162.504 678.107 161.416V163H679.195V151.16H678.107ZM675.435 162.152C673.867 162.152 672.827 160.936 672.827 158.792C672.827 156.568 673.867 155.352 675.451 155.352C677.147 155.352 678.107 156.6 678.107 158.808C678.107 160.888 677.131 162.152 675.435 162.152ZM687.468 160.6C687.068 161.432 686.316 162.168 685.036 162.168C683.404 162.168 682.332 161.208 682.236 158.952H688.172L688.204 158.008C688.204 155.704 686.636 154.392 684.812 154.392C682.604 154.392 681.132 156.168 681.132 158.648C681.132 161.352 682.54 163.128 684.924 163.128C686.812 163.128 687.868 162.072 688.268 161.048L687.468 160.6ZM684.812 155.352C686.06 155.352 687.18 156.152 687.132 158.056H682.236C682.38 156.04 683.532 155.352 684.812 155.352ZM697.222 153.624C698.262 153.624 699.11 152.856 699.11 151.8C699.11 150.744 698.262 149.976 697.222 149.976C696.182 149.976 695.334 150.744 695.334 151.8C695.334 152.856 696.182 153.624 697.222 153.624ZM697.222 150.712C697.83 150.712 698.31 151.096 698.31 151.8C698.31 152.52 697.83 152.888 697.222 152.888C696.614 152.888 696.134 152.52 696.134 151.8C696.134 151.096 696.614 150.712 697.222 150.712ZM700.518 163C700.326 162.424 700.166 161.56 700.166 160.6V157.112C700.166 155.656 699.286 154.392 697.19 154.392C695.702 154.392 694.406 155.064 693.766 156.856L694.726 157.144C695.174 155.848 696.07 155.384 697.126 155.384C698.438 155.384 699.11 156.136 699.11 157.24V158.36C698.422 158.12 697.75 158.04 697.062 158.04C695.318 158.04 693.75 158.952 693.75 160.696C693.75 162.152 694.886 163.128 696.39 163.128C697.766 163.128 698.87 162.328 699.302 161.336C699.302 161.976 699.398 162.536 699.526 163H700.518ZM699.11 159.48C699.11 161.544 697.686 162.2 696.582 162.2C695.558 162.2 694.838 161.656 694.838 160.632C694.838 159.512 695.846 158.936 697.126 158.936C697.782 158.936 698.454 159.016 699.11 159.288V159.48ZM732.629 162.968V162.008C732.469 162.056 732.293 162.072 732.117 162.072C731.445 162.072 731.061 161.704 731.061 160.984V151.16H729.973V160.984C729.973 162.232 730.597 163.064 731.925 163.064C732.165 163.064 732.373 163.032 732.629 162.968ZM739.956 160.6C739.556 161.432 738.804 162.168 737.524 162.168C735.892 162.168 734.82 161.208 734.724 158.952H740.66L740.692 158.008C740.692 155.704 739.124 154.392 737.3 154.392C735.092 154.392 733.62 156.168 733.62 158.648C733.62 161.352 735.028 163.128 737.412 163.128C739.3 163.128 740.356 162.072 740.756 161.048L739.956 160.6ZM737.3 155.352C738.548 155.352 739.668 156.152 739.62 158.056H734.724C734.868 156.04 736.02 155.352 737.3 155.352ZM742.376 156.728C742.376 157.864 743.192 158.648 744.744 158.968L746.12 159.256C747.24 159.496 747.688 159.928 747.688 160.728C747.688 161.592 746.824 162.168 745.512 162.168C744.264 162.168 743.384 161.688 742.984 160.792L742.056 161.176C742.632 162.456 743.832 163.128 745.544 163.128C747.432 163.128 748.744 162.104 748.744 160.632C748.744 159.368 747.88 158.568 746.024 158.2L744.904 157.976C743.896 157.768 743.432 157.336 743.432 156.632C743.432 155.848 744.2 155.352 745.384 155.352C746.472 155.352 747.256 155.784 747.592 156.6L748.488 156.248C748.136 155.128 746.952 154.392 745.416 154.392C743.64 154.392 742.376 155.384 742.376 156.728ZM756.477 160.6C756.077 161.432 755.325 162.168 754.045 162.168C752.413 162.168 751.341 161.208 751.245 158.952H757.181L757.213 158.008C757.213 155.704 755.645 154.392 753.821 154.392C751.613 154.392 750.141 156.168 750.141 158.648C750.141 161.352 751.549 163.128 753.933 163.128C755.821 163.128 756.877 162.072 757.277 161.048L756.477 160.6ZM753.821 155.352C755.069 155.352 756.189 156.152 756.141 158.056H751.245C751.389 156.04 752.541 155.352 753.821 155.352ZM766.439 163.128C768.535 163.128 770.215 161.4 770.215 158.744C770.215 156.12 768.551 154.392 766.439 154.392C764.327 154.392 762.663 156.12 762.663 158.744C762.663 161.4 764.343 163.128 766.439 163.128ZM766.439 162.168C764.983 162.168 763.783 161.016 763.783 158.744C763.783 156.488 764.999 155.352 766.439 155.352C767.879 155.352 769.095 156.488 769.095 158.744C769.095 161.016 767.895 162.168 766.439 162.168ZM780.674 154.392C779.586 154.392 778.61 155 778.13 156.12C777.826 155.016 776.978 154.392 775.714 154.392C774.722 154.392 773.826 154.904 773.314 155.848V154.52H772.226V163H773.314V158.232C773.314 156.536 773.938 155.384 775.426 155.384C776.53 155.384 777.186 155.96 777.186 157.336V163H778.274V158.232C778.274 156.536 778.898 155.384 780.386 155.384C781.49 155.384 782.146 155.96 782.146 157.336V163H783.234V157.176C783.234 155.416 782.29 154.392 780.674 154.392ZM792.201 162.968V162.008C792.041 162.056 791.865 162.072 791.689 162.072C791.017 162.072 790.633 161.704 790.633 160.984V151.16H789.545V160.984C789.545 162.232 790.169 163.064 791.497 163.064C791.737 163.064 791.945 163.032 792.201 162.968ZM799.527 160.6C799.127 161.432 798.375 162.168 797.095 162.168C795.463 162.168 794.391 161.208 794.295 158.952H800.231L800.263 158.008C800.263 155.704 798.695 154.392 796.871 154.392C794.663 154.392 793.191 156.168 793.191 158.648C793.191 161.352 794.599 163.128 796.983 163.128C798.871 163.128 799.927 162.072 800.327 161.048L799.527 160.6ZM796.871 155.352C798.119 155.352 799.239 156.152 799.191 158.056H794.295C794.439 156.04 795.591 155.352 796.871 155.352ZM805.915 154.392C804.891 154.392 803.963 154.904 803.451 155.832V154.52H802.363V163H803.451V158.232C803.451 156.536 804.139 155.384 805.627 155.384C806.811 155.384 807.515 155.96 807.515 157.496V163H808.603V157.336C808.603 155.432 807.611 154.392 805.915 154.392ZM816.303 163H817.679L813.919 158.072L817.615 154.52H816.175L812.143 158.504V151.16H811.055V163H812.143V159.784L813.183 158.792L816.303 163ZM824.459 160.6C824.059 161.432 823.307 162.168 822.027 162.168C820.395 162.168 819.323 161.208 819.227 158.952H825.163L825.195 158.008C825.195 155.704 823.627 154.392 821.803 154.392C819.595 154.392 818.123 156.168 818.123 158.648C818.123 161.352 819.531 163.128 821.915 163.128C823.803 163.128 824.859 162.072 825.259 161.048L824.459 160.6ZM821.803 155.352C823.051 155.352 824.171 156.152 824.123 158.056H819.227C819.371 156.04 820.523 155.352 821.803 155.352ZM830.335 154.392C829.583 154.392 828.831 154.776 828.383 155.576V154.52H827.295V163H828.383V157.784C828.383 156.072 829.119 155.352 830.095 155.352C830.959 155.352 831.247 155.912 831.247 156.76V157.592L832.239 157.4V156.568C832.239 155.128 831.439 154.392 830.335 154.392ZM832.754 163.096C833.33 163.096 833.778 162.664 833.778 162.072C833.778 161.48 833.33 161.048 832.754 161.048C832.178 161.048 831.73 161.48 831.73 162.072C831.73 162.664 832.178 163.096 832.754 163.096Z" fill="#2A2859"/>
</svg>
