<svg width="922" height="212" viewBox="0 0 922 212" fill="none" xmlns="http://www.w3.org/2000/svg">
<mask id="path-1-inside-1_4768_151064" fill="white">
<path d="M0 55.8442H455.751V211.759H0V55.8442Z"/>
</mask>
<path d="M0 55.8442H455.751V211.759H0V55.8442Z" fill="white"/>
<path d="M455.751 211.759V212.759H456.751V211.759H455.751ZM0 211.759H-1V212.759H0V211.759ZM454.751 55.8442V211.759H456.751V55.8442H454.751ZM455.751 210.759H0V212.759H455.751V210.759ZM1 211.759V55.8442H-1V211.759H1Z" fill="#E6E6E6" mask="url(#path-1-inside-1_4768_151064)"/>
<path d="M200 135C201.533 135 202.775 133.758 202.775 132.225C202.775 130.692 201.533 129.45 200 129.45C198.467 129.45 197.225 130.692 197.225 132.225C197.225 133.758 198.467 135 200 135Z" fill="#2A2859"/>
<path fill-rule="evenodd" clip-rule="evenodd" d="M188.75 135C188.75 128.787 193.787 123.75 200 123.75C206.213 123.75 211.25 128.787 211.25 135C211.25 141.213 206.213 146.25 200 146.25C193.787 146.25 188.75 141.213 188.75 135ZM196.77 138L194.806 143.237C196.312 144.19 198.09 144.75 200 144.75C201.91 144.75 203.688 144.19 205.194 143.237L203.23 138H196.77ZM204.27 136.5L206.444 142.297C208.466 140.509 209.75 137.905 209.75 135C209.75 129.624 205.376 125.25 200 125.25C194.624 125.25 190.25 129.624 190.25 135C190.25 137.905 191.534 140.509 193.556 142.297L195.73 136.5H204.27Z" fill="#2A2859"/>
<path d="M222.844 138.812V126.68H221.584V140H229.036V138.812H222.844ZM237.11 137.3C236.66 138.236 235.814 139.064 234.374 139.064C232.538 139.064 231.332 137.984 231.224 135.446H237.902L237.938 134.384C237.938 131.792 236.174 130.316 234.122 130.316C231.638 130.316 229.982 132.314 229.982 135.104C229.982 138.146 231.566 140.144 234.248 140.144C236.372 140.144 237.56 138.956 238.01 137.804L237.11 137.3ZM234.122 131.396C235.526 131.396 236.786 132.296 236.732 134.438H231.224C231.386 132.17 232.682 131.396 234.122 131.396ZM244.322 130.316C243.17 130.316 242.126 130.892 241.55 131.936V130.46H240.326V140H241.55V134.636C241.55 132.728 242.324 131.432 243.998 131.432C245.33 131.432 246.122 132.08 246.122 133.808V140H247.346V133.628C247.346 131.486 246.23 130.316 244.322 130.316ZM256.033 140H257.581L253.351 134.456L257.509 130.46H255.889L251.353 134.942V126.68H250.129V140H251.353V136.382L252.523 135.266L256.033 140ZM265.233 137.3C264.783 138.236 263.937 139.064 262.497 139.064C260.661 139.064 259.455 137.984 259.347 135.446H266.025L266.061 134.384C266.061 131.792 264.297 130.316 262.245 130.316C259.761 130.316 258.105 132.314 258.105 135.104C258.105 138.146 259.689 140.144 262.371 140.144C264.495 140.144 265.683 138.956 266.133 137.804L265.233 137.3ZM262.245 131.396C263.649 131.396 264.909 132.296 264.855 134.438H259.347C259.509 132.17 260.805 131.396 262.245 131.396Z" fill="#2A2859"/>
<mask id="path-5-inside-2_4768_151064" fill="white">
<path d="M465 55.8442H921.751V211.759H465V55.8442Z"/>
</mask>
<path d="M465 55.8442H921.751V211.759H465V55.8442Z" fill="white"/>
<path d="M921.751 211.759V212.759H922.751V211.759H921.751ZM465 211.759H464V212.759H465V211.759ZM920.751 55.8442V211.759H922.751V55.8442H920.751ZM921.751 210.759H465V212.759H921.751V210.759ZM466 211.759V55.8442H464V211.759H466Z" fill="#E6E6E6" mask="url(#path-5-inside-2_4768_151064)"/>
<rect x="0.5" y="1.37451" width="454.316" height="53.97" stroke="#E6E6E6"/>
<rect x="465.693" y="1.37451" width="455.304" height="53.97" stroke="#E6E6E6"/>
<path d="M0 44.8506H455.316V55.8446H0V44.8506Z" fill="#C7F6C9"/>
<path opacity="0.6" d="M465.193 44.8506H921.497V55.8446H465.193V44.8506Z" fill="#FF8274"/>
<path d="M20.2116 29.0185C21.7956 29.0185 23.3796 28.5545 24.4356 27.6745V22.4745H18.9796V23.7705H23.1556V27.0185C22.3556 27.4825 21.4916 27.7225 20.2916 27.7225C17.8276 27.7225 16.0996 26.0105 16.0996 22.8905C16.0996 19.7705 17.9236 18.2505 20.0676 18.2505C21.4116 18.2505 22.5636 18.9225 23.1396 20.1705L24.4036 19.5145C23.6516 17.8345 22.1476 16.8905 20.0836 16.8905C17.0916 16.8905 14.6116 19.2425 14.6116 22.8905C14.6116 26.6505 16.9636 29.0185 20.2116 29.0185ZM27.5186 18.9065C28.1106 18.9065 28.5906 18.4425 28.5906 17.8185C28.5906 17.2105 28.1106 16.7465 27.5186 16.7465C26.9106 16.7465 26.4306 17.2105 26.4306 17.8185C26.4306 18.4425 26.9106 18.9065 27.5186 18.9065ZM26.1906 32.3625C27.5506 32.3625 28.2066 31.5145 28.2066 29.9785V20.3945H26.8306V29.9945C26.8306 30.7145 26.6226 31.1785 25.9186 31.1785C25.7586 31.1785 25.5666 31.1625 25.3426 31.0825L25.2306 32.2185C25.5346 32.3145 25.8706 32.3625 26.1906 32.3625ZM36.3084 20.9705L37.0124 19.5785H36.1964L35.6844 20.5865C35.2044 20.3625 34.6604 20.2345 34.0844 20.2345C31.9244 20.2345 30.1964 21.9625 30.1964 24.6025C30.1964 26.2345 30.8364 27.5145 31.8124 28.2665L31.1084 29.6745H31.9404L32.4524 28.6505C32.9484 28.8905 33.5084 29.0185 34.0844 29.0185C36.2124 29.0185 37.9564 27.2905 37.9564 24.6025C37.9564 22.9865 37.3164 21.7065 36.3084 20.9705ZM31.6204 24.6025C31.6204 22.4425 32.7404 21.4345 34.0844 21.4345C34.4524 21.4345 34.8204 21.5145 35.1404 21.6745L32.4044 27.0985C31.9244 26.5705 31.6204 25.7385 31.6204 24.6025ZM34.0844 27.8185C33.7004 27.8185 33.3324 27.7385 32.9964 27.5625L35.7324 22.1225C36.2284 22.6505 36.5324 23.4665 36.5324 24.6025C36.5324 26.7625 35.4284 27.8185 34.0844 27.8185ZM43.2918 20.2345C42.5398 20.2345 41.7398 20.6185 41.2758 21.4825V20.3945H39.8998V28.8745H41.2758V23.7705C41.2758 22.0905 41.9798 21.4185 42.9398 21.4185C43.7878 21.4185 44.0598 21.9625 44.0598 22.7785V23.6265L45.2438 23.4025V22.4585C45.2438 21.0025 44.4438 20.2345 43.2918 20.2345ZM50.6146 22.6505C50.6146 23.8185 51.4626 24.6185 53.0306 24.9385L54.4866 25.2265C55.4626 25.4345 55.8786 25.8185 55.8786 26.5225C55.8786 27.3225 55.0626 27.8505 53.8466 27.8505C52.6466 27.8505 51.7986 27.3865 51.3666 26.5225L50.3106 27.0825C50.9186 28.3305 52.1506 29.0025 53.8786 29.0025C55.8626 29.0025 57.2066 27.9625 57.2066 26.4425C57.2066 25.1625 56.3266 24.3465 54.4866 23.9785L53.2546 23.7385C52.3426 23.5465 51.9426 23.1785 51.9426 22.5545C51.9426 21.8345 52.6626 21.4025 53.7506 21.4025C54.7906 21.4025 55.5586 21.8185 55.9106 22.5705L56.9506 22.0425C56.5026 20.9225 55.3506 20.2345 53.7826 20.2345C51.9106 20.2345 50.6146 21.2745 50.6146 22.6505ZM62.041 28.8425V27.6585C61.865 27.7065 61.689 27.7225 61.529 27.7225C60.857 27.7225 60.457 27.3705 60.457 26.6345V17.0345H59.081V26.6985C59.081 28.0745 59.769 28.9545 61.209 28.9545C61.497 28.9545 61.753 28.9065 62.041 28.8425ZM63.5625 16.9385V18.7945H65.4505V16.9385H63.5625ZM63.8185 28.8745H65.1945V20.3945H63.8185V28.8745ZM73.0555 28.8745H74.7355L71.0715 23.8985L74.6715 20.3945H72.9275L69.1355 24.2025V17.0345H67.7595V28.8745H69.1355V25.7865L70.1435 24.7945L73.0555 28.8745Z" fill="#2A2859"/>
<path d="M484.379 28.8745H485.803V17.0345H484.379V28.8745ZM493.646 28.8745H495.326L491.662 23.8985L495.262 20.3945H493.518L489.726 24.2025V17.0345H488.35V28.8745H489.726V25.7865L490.734 24.7945L493.646 28.8745ZM502.227 28.8745H503.907L500.243 23.8985L503.843 20.3945H502.099L498.307 24.2025V17.0345H496.931V28.8745H498.307V25.7865L499.315 24.7945L502.227 28.8745ZM510.664 26.3625C510.248 27.1785 509.496 27.8505 508.328 27.8505C506.792 27.8505 505.784 26.9705 505.688 24.8905H511.56L511.592 23.9145C511.592 21.5625 509.976 20.2345 508.088 20.2345C505.864 20.2345 504.312 22.0105 504.312 24.5385C504.312 27.1945 505.768 29.0185 508.216 29.0185C510.12 29.0185 511.192 27.9625 511.64 26.9065L510.664 26.3625ZM508.088 21.3865C509.224 21.3865 510.264 22.1065 510.248 23.8185H505.688C505.848 22.0105 506.888 21.3865 508.088 21.3865ZM517.102 22.6505C517.102 23.8185 517.95 24.6185 519.518 24.9385L520.974 25.2265C521.95 25.4345 522.366 25.8185 522.366 26.5225C522.366 27.3225 521.55 27.8505 520.334 27.8505C519.134 27.8505 518.286 27.3865 517.854 26.5225L516.798 27.0825C517.406 28.3305 518.638 29.0025 520.366 29.0025C522.35 29.0025 523.694 27.9625 523.694 26.4425C523.694 25.1625 522.814 24.3465 520.974 23.9785L519.742 23.7385C518.83 23.5465 518.43 23.1785 518.43 22.5545C518.43 21.8345 519.15 21.4025 520.238 21.4025C521.278 21.4025 522.046 21.8185 522.398 22.5705L523.438 22.0425C522.99 20.9225 521.838 20.2345 520.27 20.2345C518.398 20.2345 517.102 21.2745 517.102 22.6505ZM528.528 28.8425V27.6585C528.352 27.7065 528.176 27.7225 528.016 27.7225C527.344 27.7225 526.944 27.3705 526.944 26.6345V17.0345H525.568V26.6985C525.568 28.0745 526.256 28.9545 527.696 28.9545C527.984 28.9545 528.24 28.9065 528.528 28.8425ZM530.994 18.9065C531.586 18.9065 532.066 18.4425 532.066 17.8185C532.066 17.2105 531.586 16.7465 530.994 16.7465C530.386 16.7465 529.906 17.2105 529.906 17.8185C529.906 18.4425 530.386 18.9065 530.994 18.9065ZM530.306 28.8745H531.682V20.3945H530.306V28.8745ZM539.543 28.8745H541.223L537.559 23.8985L541.159 20.3945H539.415L535.623 24.2025V17.0345H534.247V28.8745H535.623V25.7865L536.631 24.7945L539.543 28.8745Z" fill="#2A2859"/>
<path d="M649 135C650.533 135 651.775 133.758 651.775 132.225C651.775 130.692 650.533 129.45 649 129.45C647.467 129.45 646.225 130.692 646.225 132.225C646.225 133.758 647.467 135 649 135Z" fill="#2A2859"/>
<path fill-rule="evenodd" clip-rule="evenodd" d="M637.75 135C637.75 128.787 642.787 123.75 649 123.75C655.213 123.75 660.25 128.787 660.25 135C660.25 141.213 655.213 146.25 649 146.25C642.787 146.25 637.75 141.213 637.75 135ZM645.77 138L643.806 143.237C645.312 144.19 647.09 144.75 649 144.75C650.91 144.75 652.688 144.19 654.194 143.237L652.23 138H645.77ZM653.27 136.5L655.444 142.297C657.466 140.509 658.75 137.905 658.75 135C658.75 129.624 654.376 125.25 649 125.25C643.624 125.25 639.25 129.624 639.25 135C639.25 137.905 640.534 140.509 642.556 142.297L644.73 136.5H653.27Z" fill="#2A2859"/>
<path d="M671.844 138.812V126.68H670.584V140H678.036V138.812H671.844ZM686.11 137.3C685.66 138.236 684.814 139.064 683.374 139.064C681.538 139.064 680.332 137.984 680.224 135.446H686.902L686.938 134.384C686.938 131.792 685.174 130.316 683.122 130.316C680.638 130.316 678.982 132.314 678.982 135.104C678.982 138.146 680.566 140.144 683.248 140.144C685.372 140.144 686.56 138.956 687.01 137.804L686.11 137.3ZM683.122 131.396C684.526 131.396 685.786 132.296 685.732 134.438H680.224C680.386 132.17 681.682 131.396 683.122 131.396ZM693.322 130.316C692.17 130.316 691.126 130.892 690.55 131.936V130.46H689.326V140H690.55V134.636C690.55 132.728 691.324 131.432 692.998 131.432C694.33 131.432 695.122 132.08 695.122 133.808V140H696.346V133.628C696.346 131.486 695.23 130.316 693.322 130.316ZM705.033 140H706.581L702.351 134.456L706.509 130.46H704.889L700.353 134.942V126.68H699.129V140H700.353V136.382L701.523 135.266L705.033 140ZM714.233 137.3C713.783 138.236 712.937 139.064 711.497 139.064C709.661 139.064 708.455 137.984 708.347 135.446H715.025L715.061 134.384C715.061 131.792 713.297 130.316 711.245 130.316C708.761 130.316 707.105 132.314 707.105 135.104C707.105 138.146 708.689 140.144 711.371 140.144C713.495 140.144 714.683 138.956 715.133 137.804L714.233 137.3ZM711.245 131.396C712.649 131.396 713.909 132.296 713.855 134.438H708.347C708.509 132.17 709.805 131.396 711.245 131.396Z" fill="#2A2859"/>
<path d="M747.011 126.585C745.736 125.311 744.007 124.595 742.204 124.595C740.401 124.595 738.672 125.311 737.397 126.585L737.048 126.935L736.698 126.585C736.071 125.934 735.321 125.414 734.491 125.056C733.661 124.698 732.768 124.509 731.864 124.5C730.961 124.492 730.064 124.663 729.227 125.005C728.391 125.347 727.63 125.852 726.991 126.491C726.352 127.13 725.847 127.891 725.505 128.727C725.163 129.564 724.992 130.461 725 131.364C725.009 132.268 725.198 133.161 725.556 133.991C725.914 134.821 726.434 135.571 727.085 136.198L737.048 146.161L747.011 136.198C748.285 134.923 749.001 133.194 749.001 131.392C749.001 129.589 748.285 127.86 747.011 126.585ZM745.954 135.142L737.048 144.048L728.141 135.142C727.633 134.653 727.227 134.067 726.948 133.42C726.668 132.772 726.521 132.075 726.514 131.37C726.507 130.665 726.641 129.965 726.908 129.312C727.175 128.659 727.569 128.066 728.068 127.568C728.566 127.069 729.159 126.675 729.812 126.408C730.465 126.141 731.165 126.007 731.87 126.014C732.575 126.021 733.272 126.168 733.92 126.448C734.567 126.727 735.153 127.133 735.642 127.641L737.048 129.048L738.454 127.641C738.943 127.133 739.528 126.727 740.176 126.448C740.823 126.169 741.52 126.021 742.225 126.014C742.931 126.007 743.63 126.141 744.283 126.408C744.936 126.675 745.529 127.069 746.028 127.568C746.527 128.066 746.921 128.66 747.188 129.312C747.454 129.965 747.588 130.665 747.581 131.37C747.574 132.075 747.427 132.772 747.148 133.42C746.868 134.067 746.462 134.653 745.954 135.142Z" fill="#2A2859"/>
<path fill-rule="evenodd" clip-rule="evenodd" d="M738.781 129.316L740.787 134.412H747.125V135.912H739.766L738.692 133.184L736.095 138.985L734.089 135.062L733.661 135.912H727.25V134.412H732.737L734.079 131.747L736.005 135.515L738.781 129.316Z" fill="#2A2859"/>
</svg>
