<svg width="597" height="176" viewBox="0 0 597 176" fill="none" xmlns="http://www.w3.org/2000/svg">
<rect width="597" height="176" fill="white"/>
<g clip-path="url(#clip0_4768_150887)">
<path fill-rule="evenodd" clip-rule="evenodd" d="M266.75 104.25V101.75H269.25V103.25H268.25V104.25H266.75ZM276.75 101.75H271.75V103.25H276.75V101.75ZM279.25 101.75V103.25H284.25V101.75H279.25ZM286.75 101.75V103.25H287.75V104.25H289.25V101.75H286.75ZM289.25 106.75H287.75V111.75H289.25V106.75ZM289.25 114.25H287.75V119.25H289.25V114.25ZM289.25 121.75H287.75V122.75H286.75V124.25H289.25V121.75ZM284.25 124.25V122.75H279.25V124.25H284.25ZM276.75 124.25V122.75H271.75V124.25H276.75ZM269.25 124.25V122.75H268.25V121.75H266.75V124.25H269.25ZM266.75 119.25H268.25V114.25H266.75V119.25ZM266.75 111.75H268.25V106.75H266.75V111.75Z" fill="#2A2859"/>
</g>
<path d="M300.844 116.812V104.68H299.584V118H307.036V116.812H300.844ZM315.11 115.3C314.66 116.236 313.814 117.064 312.374 117.064C310.538 117.064 309.332 115.984 309.224 113.446H315.902L315.938 112.384C315.938 109.792 314.174 108.316 312.122 108.316C309.638 108.316 307.982 110.314 307.982 113.104C307.982 116.146 309.566 118.144 312.248 118.144C314.372 118.144 315.56 116.956 316.01 115.804L315.11 115.3ZM312.122 109.396C313.526 109.396 314.786 110.296 314.732 112.438H309.224C309.386 110.17 310.682 109.396 312.122 109.396ZM322.322 108.316C321.17 108.316 320.126 108.892 319.55 109.936V108.46H318.326V118H319.55V112.636C319.55 110.728 320.324 109.432 321.998 109.432C323.33 109.432 324.122 110.08 324.122 111.808V118H325.346V111.628C325.346 109.486 324.23 108.316 322.322 108.316ZM334.033 118H335.581L331.351 112.456L335.509 108.46H333.889L329.353 112.942V104.68H328.129V118H329.353V114.382L330.523 113.266L334.033 118ZM343.233 115.3C342.783 116.236 341.937 117.064 340.497 117.064C338.661 117.064 337.455 115.984 337.347 113.446H344.025L344.061 112.384C344.061 109.792 342.297 108.316 340.245 108.316C337.761 108.316 336.105 110.314 336.105 113.104C336.105 116.146 337.689 118.144 340.371 118.144C342.495 118.144 343.683 116.956 344.133 115.804L343.233 115.3ZM340.245 109.396C341.649 109.396 342.909 110.296 342.855 112.438H337.347C337.509 110.17 338.805 109.396 340.245 109.396Z" fill="#2A2859"/>
<path d="M298 121.672H345.105V122.464H298V121.672Z" fill="#2A2859"/>
<g clip-path="url(#clip1_4768_150887)">
<path fill-rule="evenodd" clip-rule="evenodd" d="M354.75 104.25V101.75H357.25V103.25H356.25V104.25H354.75ZM364.75 101.75H359.75V103.25H364.75V101.75ZM367.25 101.75V103.25H372.25V101.75H367.25ZM374.75 101.75V103.25H375.75V104.25H377.25V101.75H374.75ZM377.25 106.75H375.75V111.75H377.25V106.75ZM377.25 114.25H375.75V119.25H377.25V114.25ZM377.25 121.75H375.75V122.75H374.75V124.25H377.25V121.75ZM372.25 124.25V122.75H367.25V124.25H372.25ZM364.75 124.25V122.75H359.75V124.25H364.75ZM357.25 124.25V122.75H356.25V121.75H354.75V124.25H357.25ZM354.75 119.25H356.25V114.25H354.75V119.25ZM354.75 111.75H356.25V106.75H354.75V111.75Z" fill="#2A2859"/>
</g>
<g clip-path="url(#clip2_4768_150887)">
<rect x="218" y="114" width="48" height="1" fill="#6FE9FF"/>
<g clip-path="url(#clip3_4768_150887)">
<rect x="218" y="101" width="24" height="24" rx="12" fill="#6FE9FF"/>
<path d="M231.472 116.152V107.64H229.666L226.992 109.32V111.504L229.288 110.132V116.152H226.908V118H233.712V116.152H231.472Z" fill="#2A2859"/>
</g>
</g>
<g clip-path="url(#clip4_4768_150887)">
<rect x="323" y="50" width="1" height="48" fill="#6FE9FF"/>
<g clip-path="url(#clip5_4768_150887)">
<rect x="310" y="50" width="24" height="24" rx="12" fill="#6FE9FF"/>
<path d="M321.33 65.04L323.808 62.674C324.872 61.652 325.502 60.812 325.502 59.468C325.502 57.872 324.214 56.472 321.918 56.472C320.112 56.472 318.446 57.494 318.11 59.776L320.154 60.112C320.322 59.09 320.812 58.418 321.89 58.418C322.632 58.418 323.178 58.908 323.178 59.608C323.178 60.392 322.814 60.84 321.918 61.736L318.376 65.264V67H325.81V65.04H321.33Z" fill="#2A2859"/>
</g>
</g>
<g clip-path="url(#clip6_4768_150887)">
<rect x="367" y="50" width="1" height="51" fill="#6FE9FF"/>
<g clip-path="url(#clip7_4768_150887)">
<rect x="354" y="50" width="24" height="24" rx="12" fill="#6FE9FF"/>
<path d="M367.948 61.498C368.774 61.078 369.39 60.378 369.39 59.272C369.39 57.9 368.326 56.472 365.708 56.472C363.874 56.472 362.348 57.55 361.844 59.412L363.832 59.944C364.07 59.174 364.574 58.418 365.694 58.418C366.59 58.418 367.15 58.894 367.15 59.776C367.15 60.042 367.038 60.364 366.758 60.602C366.534 60.798 366.226 60.868 365.638 60.868H364.602V62.688H366.366C366.632 62.688 366.87 62.716 367.066 62.8C367.444 62.954 367.598 63.36 367.598 63.808C367.598 64.55 366.87 65.208 365.736 65.208C364.784 65.208 364.084 64.928 363.328 64.004L361.746 65.18C362.838 66.608 364.196 67.168 365.764 67.168C368.312 67.168 369.838 65.698 369.838 63.962C369.838 62.618 368.97 61.862 367.948 61.498Z" fill="#2A2859"/>
</g>
</g>
<defs>
<clipPath id="clip0_4768_150887">
<rect width="24" height="24" fill="white" transform="translate(266 101)"/>
</clipPath>
<clipPath id="clip1_4768_150887">
<rect width="24" height="24" fill="white" transform="translate(354 101)"/>
</clipPath>
<clipPath id="clip2_4768_150887">
<rect width="48" height="24" fill="white" transform="translate(218 101)"/>
</clipPath>
<clipPath id="clip3_4768_150887">
<rect x="218" y="101" width="24" height="24" rx="12" fill="white"/>
</clipPath>
<clipPath id="clip4_4768_150887">
<rect width="24" height="48" fill="white" transform="translate(310 50)"/>
</clipPath>
<clipPath id="clip5_4768_150887">
<rect x="310" y="50" width="24" height="24" rx="12" fill="white"/>
</clipPath>
<clipPath id="clip6_4768_150887">
<rect width="24" height="51" fill="white" transform="translate(354 50)"/>
</clipPath>
<clipPath id="clip7_4768_150887">
<rect x="354" y="50" width="24" height="24" rx="12" fill="white"/>
</clipPath>
</defs>
</svg>
