<svg width="922" height="211" viewBox="0 0 922 211" fill="none" xmlns="http://www.w3.org/2000/svg">
<mask id="path-1-inside-1_4768_151062" fill="white">
<path d="M0 54.9697H455.751V210.885H0V54.9697Z"/>
</mask>
<path d="M0 54.9697H455.751V210.885H0V54.9697Z" fill="white"/>
<path d="M455.751 210.885V211.885H456.751V210.885H455.751ZM0 210.885H-1V211.885H0V210.885ZM454.751 54.9697V210.885H456.751V54.9697H454.751ZM455.751 209.885H0V211.885H455.751V209.885ZM1 210.885V54.9697H-1V210.885H1Z" fill="#E6E6E6" mask="url(#path-1-inside-1_4768_151062)"/>
<mask id="path-3-inside-2_4768_151062" fill="white">
<path d="M465 55.0337H921.751V210.949H465V55.0337Z"/>
</mask>
<path d="M465 55.0337H921.751V210.949H465V55.0337Z" fill="white"/>
<path d="M921.751 210.949V211.949H922.751V210.949H921.751ZM465 210.949H464V211.949H465V210.949ZM920.751 55.0337V210.949H922.751V55.0337H920.751ZM921.751 209.949H465V211.949H921.751V209.949ZM466 210.949V55.0337H464V210.949H466Z" fill="#E6E6E6" mask="url(#path-3-inside-2_4768_151062)"/>
<rect x="0.5" y="0.5" width="454.316" height="53.97" stroke="#E6E6E6"/>
<rect x="465.693" y="0.5" width="455.304" height="53.97" stroke="#E6E6E6"/>
<path d="M0 43.9761H455.316V54.9701H0V43.9761Z" fill="#C7F6C9"/>
<path opacity="0.6" d="M465.193 43.9761H921.497V54.9701H465.193V43.9761Z" fill="#FF8274"/>
<path d="M20.2116 28.144C21.7956 28.144 23.3796 27.68 24.4356 26.8V21.6H18.9796V22.896H23.1556V26.144C22.3556 26.608 21.4916 26.848 20.2916 26.848C17.8276 26.848 16.0996 25.136 16.0996 22.016C16.0996 18.896 17.9236 17.376 20.0676 17.376C21.4116 17.376 22.5636 18.048 23.1396 19.296L24.4036 18.64C23.6516 16.96 22.1476 16.016 20.0836 16.016C17.0916 16.016 14.6116 18.368 14.6116 22.016C14.6116 25.776 16.9636 28.144 20.2116 28.144ZM27.5186 18.032C28.1106 18.032 28.5906 17.568 28.5906 16.944C28.5906 16.336 28.1106 15.872 27.5186 15.872C26.9106 15.872 26.4306 16.336 26.4306 16.944C26.4306 17.568 26.9106 18.032 27.5186 18.032ZM26.1906 31.488C27.5506 31.488 28.2066 30.64 28.2066 29.104V19.52H26.8306V29.12C26.8306 29.84 26.6226 30.304 25.9186 30.304C25.7586 30.304 25.5666 30.288 25.3426 30.208L25.2306 31.344C25.5346 31.44 25.8706 31.488 26.1906 31.488ZM36.3084 20.096L37.0124 18.704H36.1964L35.6844 19.712C35.2044 19.488 34.6604 19.36 34.0844 19.36C31.9244 19.36 30.1964 21.088 30.1964 23.728C30.1964 25.36 30.8364 26.64 31.8124 27.392L31.1084 28.8H31.9404L32.4524 27.776C32.9484 28.016 33.5084 28.144 34.0844 28.144C36.2124 28.144 37.9564 26.416 37.9564 23.728C37.9564 22.112 37.3164 20.832 36.3084 20.096ZM31.6204 23.728C31.6204 21.568 32.7404 20.56 34.0844 20.56C34.4524 20.56 34.8204 20.64 35.1404 20.8L32.4044 26.224C31.9244 25.696 31.6204 24.864 31.6204 23.728ZM34.0844 26.944C33.7004 26.944 33.3324 26.864 32.9964 26.688L35.7324 21.248C36.2284 21.776 36.5324 22.592 36.5324 23.728C36.5324 25.888 35.4284 26.944 34.0844 26.944ZM43.2918 19.36C42.5398 19.36 41.7398 19.744 41.2758 20.608V19.52H39.8998V28H41.2758V22.896C41.2758 21.216 41.9798 20.544 42.9398 20.544C43.7878 20.544 44.0598 21.088 44.0598 21.904V22.752L45.2438 22.528V21.584C45.2438 20.128 44.4438 19.36 43.2918 19.36ZM50.6146 21.776C50.6146 22.944 51.4626 23.744 53.0306 24.064L54.4866 24.352C55.4626 24.56 55.8786 24.944 55.8786 25.648C55.8786 26.448 55.0626 26.976 53.8466 26.976C52.6466 26.976 51.7986 26.512 51.3666 25.648L50.3106 26.208C50.9186 27.456 52.1506 28.128 53.8786 28.128C55.8626 28.128 57.2066 27.088 57.2066 25.568C57.2066 24.288 56.3266 23.472 54.4866 23.104L53.2546 22.864C52.3426 22.672 51.9426 22.304 51.9426 21.68C51.9426 20.96 52.6626 20.528 53.7506 20.528C54.7906 20.528 55.5586 20.944 55.9106 21.696L56.9506 21.168C56.5026 20.048 55.3506 19.36 53.7826 19.36C51.9106 19.36 50.6146 20.4 50.6146 21.776ZM62.041 27.968V26.784C61.865 26.832 61.689 26.848 61.529 26.848C60.857 26.848 60.457 26.496 60.457 25.76V16.16H59.081V25.824C59.081 27.2 59.769 28.08 61.209 28.08C61.497 28.08 61.753 28.032 62.041 27.968ZM63.5625 16.064V17.92H65.4505V16.064H63.5625ZM63.8185 28H65.1945V19.52H63.8185V28ZM73.0555 28H74.7355L71.0715 23.024L74.6715 19.52H72.9275L69.1355 23.328V16.16H67.7595V28H69.1355V24.912L70.1435 23.92L73.0555 28Z" fill="#2A2859"/>
<path d="M484.379 28H485.803V16.16H484.379V28ZM493.646 28H495.326L491.662 23.024L495.262 19.52H493.518L489.726 23.328V16.16H488.35V28H489.726V24.912L490.734 23.92L493.646 28ZM502.227 28H503.907L500.243 23.024L503.843 19.52H502.099L498.307 23.328V16.16H496.931V28H498.307V24.912L499.315 23.92L502.227 28ZM510.664 25.488C510.248 26.304 509.496 26.976 508.328 26.976C506.792 26.976 505.784 26.096 505.688 24.016H511.56L511.592 23.04C511.592 20.688 509.976 19.36 508.088 19.36C505.864 19.36 504.312 21.136 504.312 23.664C504.312 26.32 505.768 28.144 508.216 28.144C510.12 28.144 511.192 27.088 511.64 26.032L510.664 25.488ZM508.088 20.512C509.224 20.512 510.264 21.232 510.248 22.944H505.688C505.848 21.136 506.888 20.512 508.088 20.512ZM517.102 21.776C517.102 22.944 517.95 23.744 519.518 24.064L520.974 24.352C521.95 24.56 522.366 24.944 522.366 25.648C522.366 26.448 521.55 26.976 520.334 26.976C519.134 26.976 518.286 26.512 517.854 25.648L516.798 26.208C517.406 27.456 518.638 28.128 520.366 28.128C522.35 28.128 523.694 27.088 523.694 25.568C523.694 24.288 522.814 23.472 520.974 23.104L519.742 22.864C518.83 22.672 518.43 22.304 518.43 21.68C518.43 20.96 519.15 20.528 520.238 20.528C521.278 20.528 522.046 20.944 522.398 21.696L523.438 21.168C522.99 20.048 521.838 19.36 520.27 19.36C518.398 19.36 517.102 20.4 517.102 21.776ZM528.528 27.968V26.784C528.352 26.832 528.176 26.848 528.016 26.848C527.344 26.848 526.944 26.496 526.944 25.76V16.16H525.568V25.824C525.568 27.2 526.256 28.08 527.696 28.08C527.984 28.08 528.24 28.032 528.528 27.968ZM530.994 18.032C531.586 18.032 532.066 17.568 532.066 16.944C532.066 16.336 531.586 15.872 530.994 15.872C530.386 15.872 529.906 16.336 529.906 16.944C529.906 17.568 530.386 18.032 530.994 18.032ZM530.306 28H531.682V19.52H530.306V28ZM539.543 28H541.223L537.559 23.024L541.159 19.52H539.415L535.623 23.328V16.16H534.247V28H535.623V24.912L536.631 23.92L539.543 28Z" fill="#2A2859"/>
<path fill-rule="evenodd" clip-rule="evenodd" d="M206.857 133.927L199.357 126.427L196.143 129.641L200.429 133.927L196.143 138.212L199.357 141.427L206.857 133.927ZM194 129.641L199.357 124.284L209 133.927L199.357 143.569L194 138.212L198.286 133.927L194 129.641Z" fill="#2A2859"/>
<path d="M222.844 137.846V125.714H221.584V139.034H229.036V137.846H222.844ZM237.11 136.334C236.66 137.27 235.814 138.098 234.374 138.098C232.538 138.098 231.332 137.018 231.224 134.48H237.902L237.938 133.418C237.938 130.826 236.174 129.35 234.122 129.35C231.638 129.35 229.982 131.348 229.982 134.138C229.982 137.18 231.566 139.178 234.248 139.178C236.372 139.178 237.56 137.99 238.01 136.838L237.11 136.334ZM234.122 130.43C235.526 130.43 236.786 131.33 236.732 133.472H231.224C231.386 131.204 232.682 130.43 234.122 130.43ZM244.322 129.35C243.17 129.35 242.126 129.926 241.55 130.97V129.494H240.326V139.034H241.55V133.67C241.55 131.762 242.324 130.466 243.998 130.466C245.33 130.466 246.122 131.114 246.122 132.842V139.034H247.346V132.662C247.346 130.52 246.23 129.35 244.322 129.35ZM256.033 139.034H257.581L253.351 133.49L257.509 129.494H255.889L251.353 133.976V125.714H250.129V139.034H251.353V135.416L252.523 134.3L256.033 139.034ZM265.233 136.334C264.783 137.27 263.937 138.098 262.497 138.098C260.661 138.098 259.455 137.018 259.347 134.48H266.025L266.061 133.418C266.061 130.826 264.297 129.35 262.245 129.35C259.761 129.35 258.105 131.348 258.105 134.138C258.105 137.18 259.689 139.178 262.371 139.178C264.495 139.178 265.683 137.99 266.133 136.838L265.233 136.334ZM262.245 130.43C263.649 130.43 264.909 131.33 264.855 133.472H259.347C259.509 131.204 260.805 130.43 262.245 130.43Z" fill="#2A2859"/>
<path fill-rule="evenodd" clip-rule="evenodd" d="M671.857 133.927L664.357 126.427L661.143 129.641L665.429 133.927L661.143 138.212L664.357 141.427L671.857 133.927ZM659 129.641L664.357 124.284L674 133.927L664.357 143.569L659 138.212L663.286 133.927L659 129.641Z" fill="#2A2859"/>
<path d="M687.844 137.846V125.714H686.584V139.034H694.036V137.846H687.844ZM702.11 136.334C701.66 137.27 700.814 138.098 699.374 138.098C697.538 138.098 696.332 137.018 696.224 134.48H702.902L702.938 133.418C702.938 130.826 701.174 129.35 699.122 129.35C696.638 129.35 694.982 131.348 694.982 134.138C694.982 137.18 696.566 139.178 699.248 139.178C701.372 139.178 702.56 137.99 703.01 136.838L702.11 136.334ZM699.122 130.43C700.526 130.43 701.786 131.33 701.732 133.472H696.224C696.386 131.204 697.682 130.43 699.122 130.43ZM709.322 129.35C708.17 129.35 707.126 129.926 706.55 130.97V129.494H705.326V139.034H706.55V133.67C706.55 131.762 707.324 130.466 708.998 130.466C710.33 130.466 711.122 131.114 711.122 132.842V139.034H712.346V132.662C712.346 130.52 711.23 129.35 709.322 129.35ZM721.033 139.034H722.581L718.351 133.49L722.509 129.494H720.889L716.353 133.976V125.714H715.129V139.034H716.353V135.416L717.523 134.3L721.033 139.034ZM730.233 136.334C729.783 137.27 728.937 138.098 727.497 138.098C725.661 138.098 724.455 137.018 724.347 134.48H731.025L731.061 133.418C731.061 130.826 729.297 129.35 727.245 129.35C724.761 129.35 723.105 131.348 723.105 134.138C723.105 137.18 724.689 139.178 727.371 139.178C729.495 139.178 730.683 137.99 731.133 136.838L730.233 136.334ZM727.245 130.43C728.649 130.43 729.909 131.33 729.855 133.472H724.347C724.509 131.204 725.805 130.43 727.245 130.43Z" fill="#2A2859"/>
<path d="M685 142.706H732.105V143.498H685V142.706Z" fill="#2A2859"/>
</svg>
