<svg width="690" height="103" viewBox="0 0 690 103" fill="none" xmlns="http://www.w3.org/2000/svg">
<rect width="690" height="103" fill="white"/>
<path d="M246.844 55.812V43.68H245.584V57H253.036V55.812H246.844ZM261.11 54.3C260.66 55.236 259.814 56.064 258.374 56.064C256.538 56.064 255.332 54.984 255.224 52.446H261.902L261.938 51.384C261.938 48.792 260.174 47.316 258.122 47.316C255.638 47.316 253.982 49.314 253.982 52.104C253.982 55.146 255.566 57.144 258.248 57.144C260.372 57.144 261.56 55.956 262.01 54.804L261.11 54.3ZM258.122 48.396C259.526 48.396 260.786 49.296 260.732 51.438H255.224C255.386 49.17 256.682 48.396 258.122 48.396ZM268.322 47.316C267.17 47.316 266.126 47.892 265.55 48.936V47.46H264.326V57H265.55V51.636C265.55 49.728 266.324 48.432 267.998 48.432C269.33 48.432 270.122 49.08 270.122 50.808V57H271.346V50.628C271.346 48.486 270.23 47.316 268.322 47.316ZM280.033 57H281.581L277.351 51.456L281.509 47.46H279.889L275.353 51.942V43.68H274.129V57H275.353V53.382L276.523 52.266L280.033 57ZM289.233 54.3C288.783 55.236 287.937 56.064 286.497 56.064C284.661 56.064 283.455 54.984 283.347 52.446H290.025L290.061 51.384C290.061 48.792 288.297 47.316 286.245 47.316C283.761 47.316 282.105 49.314 282.105 52.104C282.105 55.146 283.689 57.144 286.371 57.144C288.495 57.144 289.683 55.956 290.133 54.804L289.233 54.3ZM286.245 48.396C287.649 48.396 288.909 49.296 288.855 51.438H283.347C283.509 49.17 284.805 48.396 286.245 48.396Z" fill="#2A2859"/>
<path d="M244 60.672H291.105V61.464H244V60.672Z" fill="#2A2859"/>
<path fill-rule="evenodd" clip-rule="evenodd" d="M398.857 51.8929L391.357 44.3929L388.143 47.6071L392.429 51.8929L388.143 56.1786L391.357 59.3929L398.857 51.8929ZM386 47.6071L391.357 42.25L401 51.8929L391.357 61.5357L386 56.1786L390.286 51.8929L386 47.6071Z" fill="#2A2859"/>
<path d="M414.844 55.812V43.68H413.584V57H421.036V55.812H414.844ZM429.11 54.3C428.66 55.236 427.814 56.064 426.374 56.064C424.538 56.064 423.332 54.984 423.224 52.446H429.902L429.938 51.384C429.938 48.792 428.174 47.316 426.122 47.316C423.638 47.316 421.982 49.314 421.982 52.104C421.982 55.146 423.566 57.144 426.248 57.144C428.372 57.144 429.56 55.956 430.01 54.804L429.11 54.3ZM426.122 48.396C427.526 48.396 428.786 49.296 428.732 51.438H423.224C423.386 49.17 424.682 48.396 426.122 48.396ZM436.322 47.316C435.17 47.316 434.126 47.892 433.55 48.936V47.46H432.326V57H433.55V51.636C433.55 49.728 434.324 48.432 435.998 48.432C437.33 48.432 438.122 49.08 438.122 50.808V57H439.346V50.628C439.346 48.486 438.23 47.316 436.322 47.316ZM448.033 57H449.581L445.351 51.456L449.509 47.46H447.889L443.353 51.942V43.68H442.129V57H443.353V53.382L444.523 52.266L448.033 57ZM457.233 54.3C456.783 55.236 455.937 56.064 454.497 56.064C452.661 56.064 451.455 54.984 451.347 52.446H458.025L458.061 51.384C458.061 48.792 456.297 47.316 454.245 47.316C451.761 47.316 450.105 49.314 450.105 52.104C450.105 55.146 451.689 57.144 454.371 57.144C456.495 57.144 457.683 55.956 458.133 54.804L457.233 54.3ZM454.245 48.396C455.649 48.396 456.909 49.296 456.855 51.438H451.347C451.509 49.17 452.805 48.396 454.245 48.396Z" fill="#2A2859"/>
</svg>
