<svg width="1744" height="1142" viewBox="0 0 1744 1142" fill="none" xmlns="http://www.w3.org/2000/svg">
<rect width="1744" height="1142" fill="white"/>
<path d="M233.64 133V110.8H236.31V133H233.64ZM248.43 116.8C251.64 116.8 253.53 118.81 253.53 122.35V133H250.95V122.74C250.95 120.13 249.75 119.11 247.68 119.11C245.07 119.11 243.81 121.06 243.81 124.18V133H241.23V117.1H243.81V119.47C244.83 117.76 246.48 116.8 248.43 116.8ZM261.918 115.21V117.1H266.358V119.17H261.918V133H259.338V119.17H256.428V117.1H259.338V115.27C259.338 112.21 261.318 110.47 264.048 110.47C265.338 110.47 266.718 110.98 267.498 112.15L266.118 113.77C265.638 113.11 264.918 112.69 264.108 112.69C262.998 112.69 261.918 113.38 261.918 115.21ZM274.581 133.27C270.561 133.27 267.291 130.03 267.291 124.99C267.291 120.04 270.531 116.8 274.581 116.8C278.601 116.8 281.841 120.04 281.841 124.99C281.841 130.03 278.571 133.27 274.581 133.27ZM274.581 131.02C277.101 131.02 279.171 129.04 279.171 124.99C279.171 120.94 277.071 119.05 274.581 119.05C272.061 119.05 269.961 120.94 269.961 124.99C269.961 129.04 272.031 131.02 274.581 131.02ZM292.019 116.8C294.179 116.8 295.679 118.24 295.679 120.97V122.74L293.459 123.16V121.57C293.459 120.04 292.949 119.02 291.359 119.02C289.559 119.02 288.239 120.28 288.239 123.43V133H285.659V117.1H288.239V119.14C289.109 117.52 290.609 116.8 292.019 116.8ZM315.964 116.8C319.054 116.8 320.854 118.78 320.854 122.11V133H318.274V122.5C318.274 120.13 317.134 119.11 315.214 119.11C312.604 119.11 311.434 121.03 311.434 124.18V133H308.854V122.5C308.854 120.13 307.714 119.11 305.764 119.11C303.184 119.11 302.014 121.03 302.014 124.18V133H299.434V117.1H302.014V119.47C303.034 117.73 304.624 116.8 306.544 116.8C308.914 116.8 310.534 117.97 311.134 120.01C312.124 117.91 313.894 116.8 315.964 116.8ZM337.812 133H335.442C335.202 132.16 335.022 131.17 335.022 129.94C334.212 131.71 332.322 133.27 329.682 133.27C326.832 133.27 324.732 131.38 324.732 128.62C324.732 125.23 327.702 123.52 331.062 123.52C332.262 123.52 333.432 123.64 334.632 124.03V122.23C334.632 120.31 333.462 119.02 331.182 119.02C329.292 119.02 327.762 119.95 327.012 122.14L324.792 121.45C325.962 118.09 328.512 116.8 331.332 116.8C335.382 116.8 337.152 119.23 337.152 122.08V128.47C337.152 130.3 337.452 131.95 337.812 133ZM334.632 126.43V126.04C333.522 125.59 332.382 125.47 331.272 125.47C329.022 125.47 327.282 126.49 327.282 128.44C327.282 130.18 328.512 131.17 330.312 131.17C332.202 131.17 334.632 130.03 334.632 126.43ZM341.173 121.33C341.173 118.75 343.603 116.8 347.113 116.8C350.053 116.8 352.213 118.09 353.053 120.19L351.103 121.18C350.443 119.77 349.003 118.99 347.053 118.99C345.013 118.99 343.663 119.8 343.663 121.15C343.663 122.32 344.413 123.01 346.123 123.37L348.433 123.82C351.883 124.51 353.533 126.04 353.533 128.44C353.533 131.29 351.013 133.24 347.293 133.24C344.053 133.24 341.743 131.98 340.603 129.64L342.583 128.59C343.393 130.21 344.983 131.08 347.233 131.08C349.513 131.08 351.043 130.09 351.043 128.59C351.043 127.27 350.263 126.55 348.433 126.16L345.703 125.62C342.763 125.02 341.173 123.52 341.173 121.33ZM358.483 114.31C357.343 114.31 356.443 113.44 356.443 112.27C356.443 111.13 357.343 110.26 358.483 110.26C359.593 110.26 360.493 111.13 360.493 112.27C360.493 113.44 359.593 114.31 358.483 114.31ZM355.993 139.54C355.393 139.54 354.763 139.45 354.193 139.27L354.403 137.14C354.823 137.29 355.183 137.32 355.483 137.32C356.803 137.32 357.193 136.45 357.193 135.1V117.1H359.773V135.07C359.773 137.95 358.543 139.54 355.993 139.54ZM370.969 133.27C366.949 133.27 363.679 130.03 363.679 124.99C363.679 120.04 366.919 116.8 370.969 116.8C374.989 116.8 378.229 120.04 378.229 124.99C378.229 130.03 374.959 133.27 370.969 133.27ZM370.969 131.02C373.489 131.02 375.559 129.04 375.559 124.99C375.559 120.94 373.459 119.05 370.969 119.05C368.449 119.05 366.349 120.94 366.349 124.99C366.349 129.04 368.419 131.02 370.969 131.02ZM389.247 116.8C392.457 116.8 394.347 118.81 394.347 122.35V133H391.767V122.74C391.767 120.13 390.567 119.11 388.497 119.11C385.887 119.11 384.627 121.06 384.627 124.18V133H382.047V117.1H384.627V119.47C385.647 117.76 387.297 116.8 389.247 116.8ZM412.82 133.27C408.8 133.27 405.53 130.03 405.53 124.99C405.53 120.04 408.77 116.8 412.82 116.8C416.84 116.8 420.08 120.04 420.08 124.99C420.08 130.03 416.81 133.27 412.82 133.27ZM412.82 131.02C415.34 131.02 417.41 129.04 417.41 124.99C417.41 120.94 415.31 119.05 412.82 119.05C410.3 119.05 408.2 120.94 408.2 124.99C408.2 129.04 410.27 131.02 412.82 131.02ZM440.429 116.8C443.519 116.8 445.319 118.78 445.319 122.11V133H442.739V122.5C442.739 120.13 441.599 119.11 439.679 119.11C437.069 119.11 435.899 121.03 435.899 124.18V133H433.319V122.5C433.319 120.13 432.179 119.11 430.229 119.11C427.649 119.11 426.479 121.03 426.479 124.18V133H423.899V117.1H426.479V119.47C427.499 117.73 429.089 116.8 431.009 116.8C433.379 116.8 434.999 117.97 435.599 120.01C436.589 117.91 438.359 116.8 440.429 116.8ZM468.342 110.8H470.922V133H468.342V130.03C467.232 132.16 465.162 133.21 463.212 133.21C459.252 133.21 456.492 129.88 456.492 125.17C456.492 120.22 459.282 116.83 463.512 116.83C465.552 116.83 467.382 117.79 468.342 119.83V110.8ZM463.692 130.96C466.572 130.96 468.342 128.89 468.342 125.05C468.342 121.09 466.602 118.99 463.722 118.99C461.022 118.99 459.162 121.09 459.162 125.05C459.162 128.86 461.022 130.96 463.692 130.96ZM486.542 128.29L488.372 129.31C487.532 131.29 485.522 133.27 481.952 133.27C477.362 133.27 474.632 129.85 474.632 124.87C474.632 120.13 477.542 116.8 481.712 116.8C485.252 116.8 488.282 119.29 488.282 123.7L488.222 125.53H477.212C477.392 129.43 479.282 131.08 482.162 131.08C484.352 131.08 485.762 129.82 486.542 128.29ZM481.712 118.96C479.462 118.96 477.512 120.13 477.212 123.52H485.762C485.792 120.31 483.842 118.96 481.712 118.96ZM506.733 119.17H503.373V119.65C504.033 120.52 504.393 121.57 504.393 122.65C504.393 125.53 502.263 128.47 497.733 128.47H496.983C495.273 128.47 494.073 129.1 494.073 130.12C494.073 130.87 494.673 131.41 495.843 131.41H502.383C505.023 131.41 506.433 132.73 506.433 134.77C506.433 137.98 502.923 139.72 498.123 139.72C493.833 139.72 490.923 138.49 490.023 135.58L492.333 134.86C493.293 137.2 495.393 137.71 498.153 137.71C501.393 137.71 503.913 136.78 503.913 135.04C503.913 134.23 503.493 133.63 502.173 133.63H495.183C492.843 133.63 491.553 132.46 491.553 130.78C491.553 129.28 492.843 128.02 494.793 127.57C492.663 126.67 491.523 124.54 491.523 122.62C491.523 119.77 493.713 116.8 498.003 116.8C499.773 116.8 501.153 117.43 502.083 118.3V117.1H506.733V119.17ZM498.003 126.49C500.613 126.49 501.873 124.66 501.873 122.62C501.873 120.61 500.613 118.87 498.003 118.87C495.363 118.87 494.073 120.61 494.073 122.62C494.073 124.66 495.363 126.49 498.003 126.49Z" fill="#2A2859"/>
<path d="M234.672 180H232.566V166.68H240.81V168.624H234.672V172.692H239.766V174.618H234.672V180ZM248.283 171.036C249.489 171.864 250.263 173.322 250.263 175.176C250.263 178.236 248.229 180.18 245.745 180.18C245.115 180.18 244.521 180.054 243.963 179.82L243.405 180.972H242.379L243.171 179.37C242.001 178.524 241.227 177.066 241.227 175.176C241.227 172.188 243.243 170.244 245.745 170.244C246.375 170.244 246.951 170.37 247.491 170.586L248.049 169.47H249.057L248.283 171.036ZM243.297 175.176C243.297 176.292 243.567 177.12 244.017 177.66L246.717 172.152C246.429 172.026 246.087 171.954 245.745 171.954C244.413 171.954 243.297 172.908 243.297 175.176ZM245.745 178.47C247.095 178.47 248.193 177.426 248.193 175.176C248.193 174.042 247.905 173.232 247.473 172.71L244.737 178.254C245.043 178.398 245.385 178.47 245.745 178.47ZM258.732 166.68H260.748V180H258.732V178.272C257.994 179.604 256.842 180.144 255.744 180.144C253.44 180.144 251.784 178.164 251.784 175.266C251.784 172.26 253.458 170.262 255.978 170.262C257.058 170.262 258.138 170.748 258.732 171.918V166.68ZM256.284 178.38C257.742 178.38 258.732 177.39 258.732 175.158C258.732 172.944 257.76 171.882 256.284 171.882C254.898 171.882 253.872 172.998 253.872 175.158C253.872 177.3 254.898 178.38 256.284 178.38ZM262.889 173.088C262.889 171.468 264.383 170.244 266.633 170.244C268.487 170.244 269.729 170.91 270.395 172.188L268.991 173.052C268.559 172.314 267.695 171.864 266.615 171.864C265.535 171.864 264.797 172.278 264.797 172.962C264.797 173.52 265.175 173.862 266.021 174.024L267.623 174.348C269.639 174.744 270.647 175.698 270.647 177.156C270.647 178.956 269.081 180.162 266.723 180.162C264.725 180.162 263.303 179.406 262.565 178.02L263.969 177.138C264.491 178.02 265.409 178.524 266.669 178.524C267.893 178.524 268.721 178.038 268.721 177.246C268.721 176.598 268.325 176.238 267.443 176.058L265.679 175.716C263.879 175.374 262.889 174.456 262.889 173.088ZM279.079 176.994L280.447 177.786C279.907 178.974 278.647 180.162 276.469 180.162C273.643 180.162 271.933 178.074 271.933 175.14C271.933 172.242 273.787 170.244 276.325 170.244C278.575 170.244 280.429 171.756 280.429 174.456L280.393 175.644H273.913C274.021 177.66 275.011 178.524 276.595 178.524C277.765 178.524 278.575 177.894 279.079 176.994ZM276.325 171.828C275.101 171.828 274.075 172.476 273.913 174.204H278.467C278.485 172.512 277.441 171.828 276.325 171.828ZM286.55 179.946C286.172 180.054 285.794 180.108 285.398 180.108C283.58 180.108 282.716 179.028 282.716 177.282V166.68H284.732V177.138C284.732 177.966 285.218 178.344 285.956 178.344C286.136 178.344 286.334 178.326 286.55 178.272V179.946ZM287.971 173.088C287.971 171.468 289.465 170.244 291.715 170.244C293.569 170.244 294.811 170.91 295.477 172.188L294.073 173.052C293.641 172.314 292.777 171.864 291.697 171.864C290.617 171.864 289.879 172.278 289.879 172.962C289.879 173.52 290.257 173.862 291.103 174.024L292.705 174.348C294.721 174.744 295.729 175.698 295.729 177.156C295.729 178.956 294.163 180.162 291.805 180.162C289.807 180.162 288.385 179.406 287.647 178.02L289.051 177.138C289.573 178.02 290.491 178.524 291.751 178.524C292.975 178.524 293.803 178.038 293.803 177.246C293.803 176.598 293.407 176.238 292.525 176.058L290.761 175.716C288.961 175.374 287.971 174.456 287.971 173.088ZM302.608 170.244C304.552 170.244 305.704 171.504 305.704 173.574V180H303.688V173.898C303.688 172.584 303.058 171.99 301.96 171.99C300.538 171.99 299.818 172.98 299.818 174.834V180H297.802V170.46H299.818V171.828C300.466 170.82 301.42 170.244 302.608 170.244ZM313.959 170.46H315.975V180H313.959V178.596C313.347 179.64 312.393 180.162 311.223 180.162C309.261 180.162 308.127 178.902 308.127 176.832V170.46H310.143V176.526C310.143 177.768 310.755 178.434 311.853 178.434C313.257 178.434 313.959 177.426 313.959 175.572V170.46ZM329.149 170.244C331.057 170.244 332.155 171.486 332.155 173.484V180H330.139V173.826C330.139 172.566 329.545 171.99 328.501 171.99C327.097 171.99 326.395 172.962 326.395 174.834V180H324.379V173.826C324.379 172.566 323.785 171.99 322.741 171.99C321.355 171.99 320.653 172.962 320.653 174.834V180H318.637V170.46H320.653V171.81C321.301 170.784 322.237 170.244 323.389 170.244C324.847 170.244 325.801 170.946 326.215 172.134C326.863 170.874 327.871 170.244 329.149 170.244ZM345.419 170.244C347.327 170.244 348.425 171.486 348.425 173.484V180H346.409V173.826C346.409 172.566 345.815 171.99 344.771 171.99C343.367 171.99 342.665 172.962 342.665 174.834V180H340.649V173.826C340.649 172.566 340.055 171.99 339.011 171.99C337.625 171.99 336.923 172.962 336.923 174.834V180H334.907V170.46H336.923V171.81C337.571 170.784 338.507 170.244 339.659 170.244C341.117 170.244 342.071 170.946 342.485 172.134C343.133 170.874 344.141 170.244 345.419 170.244ZM357.73 176.994L359.098 177.786C358.558 178.974 357.298 180.162 355.12 180.162C352.294 180.162 350.584 178.074 350.584 175.14C350.584 172.242 352.438 170.244 354.976 170.244C357.226 170.244 359.08 171.756 359.08 174.456L359.044 175.644H352.564C352.672 177.66 353.662 178.524 355.246 178.524C356.416 178.524 357.226 177.894 357.73 176.994ZM354.976 171.828C353.752 171.828 352.726 172.476 352.564 174.204H357.118C357.136 172.512 356.092 171.828 354.976 171.828ZM365.741 170.244C367.127 170.244 368.027 171.162 368.027 172.8V174.06L366.407 174.348V173.376C366.407 172.512 366.101 171.918 365.165 171.918C364.139 171.918 363.383 172.602 363.383 174.42V180H361.367V170.46H363.383V171.738C363.923 170.676 364.913 170.244 365.741 170.244Z" fill="#2A2859"/>
<rect x="232" y="197" width="159" height="46" fill="white"/>
<rect x="232" y="197" width="159" height="46" stroke="#2A2859" stroke-width="2"/>
<path d="M234.672 288H232.566V274.68H240.81V276.624H234.672V280.692H239.766V282.618H234.672V288ZM245.745 288.18C243.261 288.18 241.227 286.236 241.227 283.176C241.227 280.188 243.243 278.244 245.745 278.244C248.247 278.244 250.263 280.188 250.263 283.176C250.263 286.236 248.229 288.18 245.745 288.18ZM245.745 286.47C247.095 286.47 248.193 285.426 248.193 283.176C248.193 280.908 247.077 279.954 245.745 279.954C244.413 279.954 243.297 280.908 243.297 283.176C243.297 285.426 244.413 286.47 245.745 286.47ZM256.752 278.244C258.138 278.244 259.038 279.162 259.038 280.8V282.06L257.418 282.348V281.376C257.418 280.512 257.112 279.918 256.176 279.918C255.15 279.918 254.394 280.602 254.394 282.42V288H252.378V278.46H254.394V279.738C254.934 278.676 255.924 278.244 256.752 278.244ZM265.967 278.244C267.911 278.244 269.063 279.504 269.063 281.574V288H267.047V281.898C267.047 280.584 266.417 279.99 265.319 279.99C263.897 279.99 263.177 280.98 263.177 282.834V288H261.161V278.46H263.177V279.828C263.825 278.82 264.779 278.244 265.967 278.244ZM279.475 288H277.621C277.477 287.514 277.387 286.938 277.351 286.2C276.901 287.19 275.893 288.162 274.237 288.162C272.509 288.162 271.285 286.992 271.285 285.336C271.285 283.266 273.121 282.24 275.173 282.24C275.821 282.24 276.433 282.294 277.099 282.474V281.574C277.099 280.548 276.451 279.882 275.281 279.882C274.183 279.882 273.409 280.476 273.049 281.592L271.339 281.07C272.023 279.054 273.661 278.244 275.371 278.244C277.909 278.244 279.061 279.738 279.061 281.556V285.246C279.061 286.38 279.241 287.388 279.475 288ZM277.099 284.058V283.842C276.523 283.644 275.965 283.572 275.371 283.572C274.183 283.572 273.265 284.112 273.265 285.156C273.265 286.038 273.895 286.596 274.849 286.596C275.821 286.596 277.099 286.02 277.099 284.058ZM287.499 278.46H289.587L285.933 288H283.863L280.227 278.46H282.459L284.979 285.894L287.499 278.46ZM295.9 278.244C297.844 278.244 298.996 279.504 298.996 281.574V288H296.98V281.898C296.98 280.584 296.35 279.99 295.252 279.99C293.83 279.99 293.11 280.98 293.11 282.834V288H291.094V278.46H293.11V279.828C293.758 278.82 294.712 278.244 295.9 278.244Z" fill="#2A2859"/>
<rect x="232" y="305" width="398" height="46" fill="white"/>
<rect x="232" y="305" width="398" height="46" stroke="#2A2859" stroke-width="2"/>
<path d="M234.672 394.056H241.152V396H232.566V382.68H241.044V384.624H234.672V388.35H239.586V390.294H234.672V394.056ZM245.487 393.048C245.487 394.11 246.135 394.434 246.801 394.434C247.323 394.434 247.737 394.218 248.151 393.804L249.015 395.1C248.295 395.82 247.503 396.162 246.477 396.162C244.821 396.162 243.471 395.154 243.471 393.174V388.026H241.797V386.46H243.471V384.336L245.487 383.418V386.46H248.853V388.026H245.487V393.048ZM253.303 393.048C253.303 394.11 253.951 394.434 254.617 394.434C255.139 394.434 255.553 394.218 255.967 393.804L256.831 395.1C256.111 395.82 255.319 396.162 254.293 396.162C252.637 396.162 251.287 395.154 251.287 393.174V388.026H249.613V386.46H251.287V384.336L253.303 383.418V386.46H256.669V388.026H253.303V393.048ZM264.672 392.994L266.04 393.786C265.5 394.974 264.24 396.162 262.062 396.162C259.236 396.162 257.526 394.074 257.526 391.14C257.526 388.242 259.38 386.244 261.918 386.244C264.168 386.244 266.022 387.756 266.022 390.456L265.986 391.644H259.506C259.614 393.66 260.604 394.524 262.188 394.524C263.358 394.524 264.168 393.894 264.672 392.994ZM261.918 387.828C260.694 387.828 259.668 388.476 259.506 390.204H264.06C264.078 388.512 263.034 387.828 261.918 387.828ZM272.682 386.244C274.068 386.244 274.968 387.162 274.968 388.8V390.06L273.348 390.348V389.376C273.348 388.512 273.042 387.918 272.106 387.918C271.08 387.918 270.324 388.602 270.324 390.42V396H268.308V386.46H270.324V387.738C270.864 386.676 271.854 386.244 272.682 386.244ZM281.897 386.244C283.841 386.244 284.993 387.504 284.993 389.574V396H282.977V389.898C282.977 388.584 282.347 387.99 281.249 387.99C279.827 387.99 279.107 388.98 279.107 390.834V396H277.091V386.46H279.107V387.828C279.755 386.82 280.709 386.244 281.897 386.244ZM295.405 396H293.551C293.407 395.514 293.317 394.938 293.281 394.2C292.831 395.19 291.823 396.162 290.167 396.162C288.439 396.162 287.215 394.992 287.215 393.336C287.215 391.266 289.051 390.24 291.103 390.24C291.751 390.24 292.363 390.294 293.029 390.474V389.574C293.029 388.548 292.381 387.882 291.211 387.882C290.113 387.882 289.339 388.476 288.979 389.592L287.269 389.07C287.953 387.054 289.591 386.244 291.301 386.244C293.839 386.244 294.991 387.738 294.991 389.556V393.246C294.991 394.38 295.171 395.388 295.405 396ZM293.029 392.058V391.842C292.453 391.644 291.895 391.572 291.301 391.572C290.113 391.572 289.195 392.112 289.195 393.156C289.195 394.038 289.825 394.596 290.779 394.596C291.751 394.596 293.029 394.02 293.029 392.058ZM303.429 386.46H305.517L301.863 396H299.793L296.157 386.46H298.389L300.909 393.894L303.429 386.46ZM311.83 386.244C313.774 386.244 314.926 387.504 314.926 389.574V396H312.91V389.898C312.91 388.584 312.28 387.99 311.182 387.99C309.76 387.99 309.04 388.98 309.04 390.834V396H307.024V386.46H309.04V387.828C309.688 386.82 310.642 386.244 311.83 386.244Z" fill="#2A2859"/>
<rect x="232" y="413" width="398" height="46" fill="white"/>
<rect x="232" y="413" width="398" height="46" stroke="#2A2859" stroke-width="2"/>
<path d="M240.936 504L239.928 500.76H234.78L233.736 504H231.522L236.148 490.68H238.686L243.294 504H240.936ZM235.374 498.906H239.334L237.372 492.624L235.374 498.906ZM250.882 490.68H252.898V504H250.882V502.272C250.144 503.604 248.992 504.144 247.894 504.144C245.59 504.144 243.934 502.164 243.934 499.266C243.934 496.26 245.608 494.262 248.128 494.262C249.208 494.262 250.288 494.748 250.882 495.918V490.68ZM248.434 502.38C249.892 502.38 250.882 501.39 250.882 499.158C250.882 496.944 249.91 495.882 248.434 495.882C247.048 495.882 246.022 496.998 246.022 499.158C246.022 501.3 247.048 502.38 248.434 502.38ZM259.916 494.244C261.302 494.244 262.202 495.162 262.202 496.8V498.06L260.582 498.348V497.376C260.582 496.512 260.276 495.918 259.34 495.918C258.314 495.918 257.558 496.602 257.558 498.42V504H255.542V494.46H257.558V495.738C258.098 494.676 259.088 494.244 259.916 494.244ZM270.332 500.994L271.7 501.786C271.16 502.974 269.9 504.162 267.722 504.162C264.896 504.162 263.186 502.074 263.186 499.14C263.186 496.242 265.04 494.244 267.578 494.244C269.828 494.244 271.682 495.756 271.682 498.456L271.646 499.644H265.166C265.274 501.66 266.264 502.524 267.848 502.524C269.018 502.524 269.828 501.894 270.332 500.994ZM267.578 495.828C266.354 495.828 265.328 496.476 265.166 498.204H269.72C269.738 496.512 268.694 495.828 267.578 495.828ZM273.465 497.088C273.465 495.468 274.959 494.244 277.209 494.244C279.063 494.244 280.305 494.91 280.971 496.188L279.567 497.052C279.135 496.314 278.271 495.864 277.191 495.864C276.111 495.864 275.373 496.278 275.373 496.962C275.373 497.52 275.751 497.862 276.597 498.024L278.199 498.348C280.215 498.744 281.223 499.698 281.223 501.156C281.223 502.956 279.657 504.162 277.299 504.162C275.301 504.162 273.879 503.406 273.141 502.02L274.545 501.138C275.067 502.02 275.985 502.524 277.245 502.524C278.469 502.524 279.297 502.038 279.297 501.246C279.297 500.598 278.901 500.238 278.019 500.058L276.255 499.716C274.455 499.374 273.465 498.456 273.465 497.088ZM282.792 497.088C282.792 495.468 284.286 494.244 286.536 494.244C288.39 494.244 289.632 494.91 290.298 496.188L288.894 497.052C288.462 496.314 287.598 495.864 286.518 495.864C285.438 495.864 284.7 496.278 284.7 496.962C284.7 497.52 285.078 497.862 285.924 498.024L287.526 498.348C289.542 498.744 290.55 499.698 290.55 501.156C290.55 502.956 288.984 504.162 286.626 504.162C284.628 504.162 283.206 503.406 282.468 502.02L283.872 501.138C284.394 502.02 285.312 502.524 286.572 502.524C287.796 502.524 288.624 502.038 288.624 501.246C288.624 500.598 288.228 500.238 287.346 500.058L285.582 499.716C283.782 499.374 282.792 498.456 282.792 497.088ZM298.982 500.994L300.35 501.786C299.81 502.974 298.55 504.162 296.372 504.162C293.546 504.162 291.836 502.074 291.836 499.14C291.836 496.242 293.69 494.244 296.228 494.244C298.478 494.244 300.332 495.756 300.332 498.456L300.296 499.644H293.816C293.924 501.66 294.914 502.524 296.498 502.524C297.668 502.524 298.478 501.894 298.982 500.994ZM296.228 495.828C295.004 495.828 293.978 496.476 293.816 498.204H298.37C298.388 496.512 297.344 495.828 296.228 495.828Z" fill="#2A2859"/>
<rect x="232" y="521" width="398" height="46" fill="white"/>
<rect x="232" y="521" width="398" height="46" stroke="#2A2859" stroke-width="2"/>
<path d="M237.138 598.68C240.144 598.68 241.998 600.444 241.998 603.072C241.998 605.7 240.054 607.464 237.03 607.464H234.672V612H232.566V598.68H237.138ZM237.21 605.628C238.866 605.628 239.82 604.746 239.82 603.144C239.82 601.47 238.866 600.588 237.192 600.588H234.672V605.628H237.21ZM247.151 612.18C244.667 612.18 242.633 610.236 242.633 607.176C242.633 604.188 244.649 602.244 247.151 602.244C249.653 602.244 251.669 604.188 251.669 607.176C251.669 610.236 249.635 612.18 247.151 612.18ZM247.151 610.47C248.501 610.47 249.599 609.426 249.599 607.176C249.599 604.908 248.483 603.954 247.151 603.954C245.819 603.954 244.703 604.908 244.703 607.176C244.703 609.426 245.819 610.47 247.151 610.47ZM253.281 605.088C253.281 603.468 254.775 602.244 257.025 602.244C258.879 602.244 260.121 602.91 260.787 604.188L259.383 605.052C258.951 604.314 258.087 603.864 257.007 603.864C255.927 603.864 255.189 604.278 255.189 604.962C255.189 605.52 255.567 605.862 256.413 606.024L258.015 606.348C260.031 606.744 261.039 607.698 261.039 609.156C261.039 610.956 259.473 612.162 257.115 612.162C255.117 612.162 253.695 611.406 252.957 610.02L254.361 609.138C254.883 610.02 255.801 610.524 257.061 610.524C258.285 610.524 259.113 610.038 259.113 609.246C259.113 608.598 258.717 608.238 257.835 608.058L256.071 607.716C254.271 607.374 253.281 606.456 253.281 605.088ZM265.636 609.048C265.636 610.11 266.284 610.434 266.95 610.434C267.472 610.434 267.886 610.218 268.3 609.804L269.164 611.1C268.444 611.82 267.652 612.162 266.626 612.162C264.97 612.162 263.62 611.154 263.62 609.174V604.026H261.946V602.46H263.62V600.336L265.636 599.418V602.46H269.002V604.026H265.636V609.048ZM275.716 602.244C277.66 602.244 278.812 603.504 278.812 605.574V612H276.796V605.898C276.796 604.584 276.166 603.99 275.068 603.99C273.646 603.99 272.926 604.98 272.926 606.834V612H270.91V602.46H272.926V603.828C273.574 602.82 274.528 602.244 275.716 602.244ZM287.067 602.46H289.083V612H287.067V610.596C286.455 611.64 285.501 612.162 284.331 612.162C282.369 612.162 281.235 610.902 281.235 608.832V602.46H283.251V608.526C283.251 609.768 283.863 610.434 284.961 610.434C286.365 610.434 287.067 609.426 287.067 607.572V602.46ZM302.256 602.244C304.164 602.244 305.262 603.486 305.262 605.484V612H303.246V605.826C303.246 604.566 302.652 603.99 301.608 603.99C300.204 603.99 299.502 604.962 299.502 606.834V612H297.486V605.826C297.486 604.566 296.892 603.99 295.848 603.99C294.462 603.99 293.76 604.962 293.76 606.834V612H291.744V602.46H293.76V603.81C294.408 602.784 295.344 602.244 296.496 602.244C297.954 602.244 298.908 602.946 299.322 604.134C299.97 602.874 300.978 602.244 302.256 602.244ZM318.527 602.244C320.435 602.244 321.533 603.486 321.533 605.484V612H319.517V605.826C319.517 604.566 318.923 603.99 317.879 603.99C316.475 603.99 315.773 604.962 315.773 606.834V612H313.757V605.826C313.757 604.566 313.163 603.99 312.119 603.99C310.733 603.99 310.031 604.962 310.031 606.834V612H308.015V602.46H310.031V603.81C310.679 602.784 311.615 602.244 312.767 602.244C314.225 602.244 315.179 602.946 315.593 604.134C316.241 602.874 317.249 602.244 318.527 602.244ZM330.838 608.994L332.206 609.786C331.666 610.974 330.406 612.162 328.228 612.162C325.402 612.162 323.692 610.074 323.692 607.14C323.692 604.242 325.546 602.244 328.084 602.244C330.334 602.244 332.188 603.756 332.188 606.456L332.152 607.644H325.672C325.78 609.66 326.77 610.524 328.354 610.524C329.524 610.524 330.334 609.894 330.838 608.994ZM328.084 603.828C326.86 603.828 325.834 604.476 325.672 606.204H330.226C330.244 604.512 329.2 603.828 328.084 603.828ZM338.848 602.244C340.234 602.244 341.134 603.162 341.134 604.8V606.06L339.514 606.348V605.376C339.514 604.512 339.208 603.918 338.272 603.918C337.246 603.918 336.49 604.602 336.49 606.42V612H334.474V602.46H336.49V603.738C337.03 602.676 338.02 602.244 338.848 602.244Z" fill="#2A2859"/>
<rect x="232" y="629" width="139" height="46" fill="white"/>
<rect x="232" y="629" width="139" height="46" stroke="#2A2859" stroke-width="2"/>
<path d="M410.138 598.68C413.144 598.68 414.998 600.444 414.998 603.072C414.998 605.7 413.054 607.464 410.03 607.464H407.672V612H405.566V598.68H410.138ZM410.21 605.628C411.866 605.628 412.82 604.746 412.82 603.144C412.82 601.47 411.866 600.588 410.192 600.588H407.672V605.628H410.21ZM420.151 612.18C417.667 612.18 415.633 610.236 415.633 607.176C415.633 604.188 417.649 602.244 420.151 602.244C422.653 602.244 424.669 604.188 424.669 607.176C424.669 610.236 422.635 612.18 420.151 612.18ZM420.151 610.47C421.501 610.47 422.599 609.426 422.599 607.176C422.599 604.908 421.483 603.954 420.151 603.954C418.819 603.954 417.703 604.908 417.703 607.176C417.703 609.426 418.819 610.47 420.151 610.47ZM426.281 605.088C426.281 603.468 427.775 602.244 430.025 602.244C431.879 602.244 433.121 602.91 433.787 604.188L432.383 605.052C431.951 604.314 431.087 603.864 430.007 603.864C428.927 603.864 428.189 604.278 428.189 604.962C428.189 605.52 428.567 605.862 429.413 606.024L431.015 606.348C433.031 606.744 434.039 607.698 434.039 609.156C434.039 610.956 432.473 612.162 430.115 612.162C428.117 612.162 426.695 611.406 425.957 610.02L427.361 609.138C427.883 610.02 428.801 610.524 430.061 610.524C431.285 610.524 432.113 610.038 432.113 609.246C432.113 608.598 431.717 608.238 430.835 608.058L429.071 607.716C427.271 607.374 426.281 606.456 426.281 605.088ZM438.636 609.048C438.636 610.11 439.284 610.434 439.95 610.434C440.472 610.434 440.886 610.218 441.3 609.804L442.164 611.1C441.444 611.82 440.652 612.162 439.626 612.162C437.97 612.162 436.62 611.154 436.62 609.174V604.026H434.946V602.46H436.62V600.336L438.636 599.418V602.46H442.002V604.026H438.636V609.048ZM443.142 605.088C443.142 603.468 444.636 602.244 446.886 602.244C448.74 602.244 449.982 602.91 450.648 604.188L449.244 605.052C448.812 604.314 447.948 603.864 446.868 603.864C445.788 603.864 445.05 604.278 445.05 604.962C445.05 605.52 445.428 605.862 446.274 606.024L447.876 606.348C449.892 606.744 450.9 607.698 450.9 609.156C450.9 610.956 449.334 612.162 446.976 612.162C444.978 612.162 443.556 611.406 442.818 610.02L444.222 609.138C444.744 610.02 445.662 610.524 446.922 610.524C448.146 610.524 448.974 610.038 448.974 609.246C448.974 608.598 448.578 608.238 447.696 608.058L445.932 607.716C444.132 607.374 443.142 606.456 443.142 605.088ZM455.498 609.048C455.498 610.11 456.146 610.434 456.812 610.434C457.334 610.434 457.748 610.218 458.162 609.804L459.026 611.1C458.306 611.82 457.514 612.162 456.488 612.162C454.832 612.162 453.482 611.154 453.482 609.174V604.026H451.808V602.46H453.482V600.336L455.498 599.418V602.46H458.864V604.026H455.498V609.048ZM466.867 608.994L468.235 609.786C467.695 610.974 466.435 612.162 464.257 612.162C461.431 612.162 459.721 610.074 459.721 607.14C459.721 604.242 461.575 602.244 464.113 602.244C466.363 602.244 468.217 603.756 468.217 606.456L468.181 607.644H461.701C461.809 609.66 462.799 610.524 464.383 610.524C465.553 610.524 466.363 609.894 466.867 608.994ZM464.113 603.828C462.889 603.828 461.863 604.476 461.701 606.204H466.255C466.273 604.512 465.229 603.828 464.113 603.828ZM476.857 598.68H478.873V612H476.857V610.272C476.119 611.604 474.967 612.144 473.869 612.144C471.565 612.144 469.909 610.164 469.909 607.266C469.909 604.26 471.583 602.262 474.103 602.262C475.183 602.262 476.263 602.748 476.857 603.918V598.68ZM474.409 610.38C475.867 610.38 476.857 609.39 476.857 607.158C476.857 604.944 475.885 603.882 474.409 603.882C473.023 603.882 471.997 604.998 471.997 607.158C471.997 609.3 473.023 610.38 474.409 610.38Z" fill="#2A2859"/>
<rect x="405" y="629" width="398" height="46" fill="white"/>
<rect x="405" y="629" width="398" height="46" stroke="#2A2859" stroke-width="2"/>
<path d="M246.66 773L238.83 762.53L236.31 765.23V773H233.64V750.8H236.31V761.84L246.54 750.8H249.9L240.57 760.7L250.02 773H246.66ZM257.608 773.27C253.588 773.27 250.318 770.03 250.318 764.99C250.318 760.04 253.558 756.8 257.608 756.8C261.628 756.8 264.868 760.04 264.868 764.99C264.868 770.03 261.598 773.27 257.608 773.27ZM257.608 771.02C260.128 771.02 262.198 769.04 262.198 764.99C262.198 760.94 260.098 759.05 257.608 759.05C255.088 759.05 252.988 760.94 252.988 764.99C252.988 769.04 255.058 771.02 257.608 771.02ZM275.886 756.8C279.096 756.8 280.986 758.81 280.986 762.35V773H278.406V762.74C278.406 760.13 277.206 759.11 275.136 759.11C272.526 759.11 271.266 761.06 271.266 764.18V773H268.686V757.1H271.266V759.47C272.286 757.76 273.936 756.8 275.886 756.8ZM289.374 768.65C289.374 770.48 290.484 771.02 291.504 771.02C292.434 771.02 293.094 770.66 293.814 769.91L295.044 771.5C293.934 772.73 292.704 773.24 291.174 773.24C288.774 773.24 286.794 771.71 286.794 768.71V759.17H283.884V757.1H286.794V753.62L289.374 752.3V757.1H294.714V759.17H289.374V768.65ZM309.94 773H307.57C307.33 772.16 307.15 771.17 307.15 769.94C306.34 771.71 304.45 773.27 301.81 773.27C298.96 773.27 296.86 771.38 296.86 768.62C296.86 765.23 299.83 763.52 303.19 763.52C304.39 763.52 305.56 763.64 306.76 764.03V762.23C306.76 760.31 305.59 759.02 303.31 759.02C301.42 759.02 299.89 759.95 299.14 762.14L296.92 761.45C298.09 758.09 300.64 756.8 303.46 756.8C307.51 756.8 309.28 759.23 309.28 762.08V768.47C309.28 770.3 309.58 771.95 309.94 773ZM306.76 766.43V766.04C305.65 765.59 304.51 765.47 303.4 765.47C301.15 765.47 299.41 766.49 299.41 768.44C299.41 770.18 300.64 771.17 302.44 771.17C304.33 771.17 306.76 770.03 306.76 766.43ZM324.13 773L318.67 765.35L316.78 767.21V773H314.2V750.8H316.78V764.24L323.89 757.1H327.16L320.41 763.67L327.28 773H324.13ZM333.481 768.65C333.481 770.48 334.591 771.02 335.611 771.02C336.541 771.02 337.201 770.66 337.921 769.91L339.151 771.5C338.041 772.73 336.811 773.24 335.281 773.24C332.881 773.24 330.901 771.71 330.901 768.71V759.17H327.991V757.1H330.901V753.62L333.481 752.3V757.1H338.821V759.17H333.481V768.65ZM343.625 754.31C342.485 754.31 341.585 753.44 341.585 752.27C341.585 751.13 342.485 750.26 343.625 750.26C344.735 750.26 345.635 751.13 345.635 752.27C345.635 753.44 344.735 754.31 343.625 754.31ZM342.335 773V757.1H344.915V773H342.335ZM357.069 756.8C360.279 756.8 362.169 758.81 362.169 762.35V773H359.589V762.74C359.589 760.13 358.389 759.11 356.319 759.11C353.709 759.11 352.449 761.06 352.449 764.18V773H349.869V757.1H352.449V759.47C353.469 757.76 355.119 756.8 357.069 756.8ZM370.557 755.21V757.1H374.997V759.17H370.557V773H367.977V759.17H365.067V757.1H367.977V755.27C367.977 752.21 369.957 750.47 372.687 750.47C373.977 750.47 375.357 750.98 376.137 752.15L374.757 753.77C374.277 753.11 373.557 752.69 372.747 752.69C371.637 752.69 370.557 753.38 370.557 755.21ZM383.22 773.27C379.2 773.27 375.93 770.03 375.93 764.99C375.93 760.04 379.17 756.8 383.22 756.8C387.24 756.8 390.48 760.04 390.48 764.99C390.48 770.03 387.21 773.27 383.22 773.27ZM383.22 771.02C385.74 771.02 387.81 769.04 387.81 764.99C387.81 760.94 385.71 759.05 383.22 759.05C380.7 759.05 378.6 760.94 378.6 764.99C378.6 769.04 380.67 771.02 383.22 771.02ZM400.659 756.8C402.819 756.8 404.319 758.24 404.319 760.97V762.74L402.099 763.16V761.57C402.099 760.04 401.589 759.02 399.999 759.02C398.199 759.02 396.879 760.28 396.879 763.43V773H394.299V757.1H396.879V759.14C397.749 757.52 399.249 756.8 400.659 756.8ZM424.603 756.8C427.693 756.8 429.493 758.78 429.493 762.11V773H426.913V762.5C426.913 760.13 425.773 759.11 423.853 759.11C421.243 759.11 420.073 761.03 420.073 764.18V773H417.493V762.5C417.493 760.13 416.353 759.11 414.403 759.11C411.823 759.11 410.653 761.03 410.653 764.18V773H408.073V757.1H410.653V759.47C411.673 757.73 413.263 756.8 415.183 756.8C417.553 756.8 419.173 757.97 419.773 760.01C420.763 757.91 422.533 756.8 424.603 756.8ZM446.451 773H444.081C443.841 772.16 443.661 771.17 443.661 769.94C442.851 771.71 440.961 773.27 438.321 773.27C435.471 773.27 433.371 771.38 433.371 768.62C433.371 765.23 436.341 763.52 439.701 763.52C440.901 763.52 442.071 763.64 443.271 764.03V762.23C443.271 760.31 442.101 759.02 439.821 759.02C437.931 759.02 436.401 759.95 435.651 762.14L433.431 761.45C434.601 758.09 437.151 756.8 439.971 756.8C444.021 756.8 445.791 759.23 445.791 762.08V768.47C445.791 770.3 446.091 771.95 446.451 773ZM443.271 766.43V766.04C442.161 765.59 441.021 765.47 439.911 765.47C437.661 765.47 435.921 766.49 435.921 768.44C435.921 770.18 437.151 771.17 438.951 771.17C440.841 771.17 443.271 770.03 443.271 766.43ZM449.812 761.33C449.812 758.75 452.242 756.8 455.752 756.8C458.692 756.8 460.852 758.09 461.692 760.19L459.742 761.18C459.082 759.77 457.642 758.99 455.692 758.99C453.652 758.99 452.302 759.8 452.302 761.15C452.302 762.32 453.052 763.01 454.762 763.37L457.072 763.82C460.522 764.51 462.172 766.04 462.172 768.44C462.172 771.29 459.652 773.24 455.932 773.24C452.692 773.24 450.382 771.98 449.242 769.64L451.222 768.59C452.032 770.21 453.622 771.08 455.872 771.08C458.152 771.08 459.682 770.09 459.682 768.59C459.682 767.27 458.902 766.55 457.072 766.16L454.342 765.62C451.402 765.02 449.812 763.52 449.812 761.33ZM465.352 750.62H468.892V754.1H465.352V750.62ZM464.632 779.54C464.032 779.54 463.402 779.45 462.832 779.27L463.042 777.14C463.462 777.29 463.822 777.32 464.122 777.32C465.442 777.32 465.832 776.45 465.832 775.1V757.1H468.412V775.07C468.412 777.95 467.182 779.54 464.632 779.54ZM479.608 773.27C475.588 773.27 472.318 770.03 472.318 764.99C472.318 760.04 475.558 756.8 479.608 756.8C483.628 756.8 486.868 760.04 486.868 764.99C486.868 770.03 483.598 773.27 479.608 773.27ZM479.608 771.02C482.128 771.02 484.198 769.04 484.198 764.99C484.198 760.94 482.098 759.05 479.608 759.05C477.088 759.05 474.988 760.94 474.988 764.99C474.988 769.04 477.058 771.02 479.608 771.02ZM497.886 756.8C501.096 756.8 502.986 758.81 502.986 762.35V773H500.406V762.74C500.406 760.13 499.206 759.11 497.136 759.11C494.526 759.11 493.266 761.06 493.266 764.18V773H490.686V757.1H493.266V759.47C494.286 757.76 495.936 756.8 497.886 756.8Z" fill="#2A2859"/>
<path d="M234.672 820.056H241.152V822H232.566V808.68H241.044V810.624H234.672V814.35H239.586V816.294H234.672V820.056ZM242.13 814.746H246.45V816.654H242.13V814.746ZM253.867 812.262C256.171 812.262 257.827 814.224 257.827 817.14C257.827 820.128 256.153 822.144 253.633 822.144C252.553 822.144 251.491 821.676 250.879 820.506V825.78H248.863V812.46H250.879V814.134C251.617 812.802 252.769 812.262 253.867 812.262ZM253.327 820.488C254.713 820.488 255.739 819.372 255.739 817.23C255.739 815.088 254.713 813.99 253.327 813.99C251.851 813.99 250.879 814.998 250.879 817.212C250.879 819.426 251.851 820.488 253.327 820.488ZM263.872 822.18C261.388 822.18 259.354 820.236 259.354 817.176C259.354 814.188 261.37 812.244 263.872 812.244C266.374 812.244 268.39 814.188 268.39 817.176C268.39 820.236 266.356 822.18 263.872 822.18ZM263.872 820.47C265.222 820.47 266.32 819.426 266.32 817.176C266.32 814.908 265.204 813.954 263.872 813.954C262.54 813.954 261.424 814.908 261.424 817.176C261.424 819.426 262.54 820.47 263.872 820.47ZM270.002 815.088C270.002 813.468 271.496 812.244 273.746 812.244C275.6 812.244 276.842 812.91 277.508 814.188L276.104 815.052C275.672 814.314 274.808 813.864 273.728 813.864C272.648 813.864 271.91 814.278 271.91 814.962C271.91 815.52 272.288 815.862 273.134 816.024L274.736 816.348C276.752 816.744 277.76 817.698 277.76 819.156C277.76 820.956 276.194 822.162 273.836 822.162C271.838 822.162 270.416 821.406 269.678 820.02L271.082 819.138C271.604 820.02 272.522 820.524 273.782 820.524C275.006 820.524 275.834 820.038 275.834 819.246C275.834 818.598 275.438 818.238 274.556 818.058L272.792 817.716C270.992 817.374 270.002 816.456 270.002 815.088ZM282.357 819.048C282.357 820.11 283.005 820.434 283.671 820.434C284.193 820.434 284.607 820.218 285.021 819.804L285.885 821.1C285.165 821.82 284.373 822.162 283.347 822.162C281.691 822.162 280.341 821.154 280.341 819.174V814.026H278.667V812.46H280.341V810.336L282.357 809.418V812.46H285.723V814.026H282.357V819.048Z" fill="#2A2859"/>
<rect x="232" y="839" width="273" height="46" fill="white"/>
<path d="M255.064 865.3L255.964 865.804C255.514 866.956 254.326 868.144 252.202 868.144C249.52 868.144 247.936 866.146 247.936 863.104C247.936 860.314 249.592 858.316 252.076 858.316C254.128 858.316 255.892 859.792 255.892 862.384L255.856 863.446H249.178C249.286 865.984 250.492 867.064 252.328 867.064C253.768 867.064 254.614 866.236 255.064 865.3ZM252.076 859.396C250.636 859.396 249.34 860.17 249.178 862.438H254.686C254.74 860.296 253.48 859.396 252.076 859.396ZM262.636 858.334C265.066 858.334 266.704 860.368 266.704 863.14C266.704 866.074 265.048 868.144 262.492 868.144C261.16 868.144 260.08 867.478 259.504 866.272V871.78H258.28V858.46H259.504V860.242C260.134 859.018 261.394 858.334 262.636 858.334ZM262.492 867.064C264.274 867.064 265.444 865.696 265.444 863.194C265.444 860.782 264.274 859.414 262.51 859.414C260.602 859.414 259.504 860.836 259.504 863.176C259.504 865.66 260.584 867.064 262.492 867.064ZM272.632 868.144C270.274 868.144 268.384 866.2 268.384 863.212C268.384 860.26 270.256 858.316 272.632 858.316C275.008 858.316 276.88 860.26 276.88 863.212C276.88 866.2 274.99 868.144 272.632 868.144ZM272.632 867.064C274.27 867.064 275.62 865.768 275.62 863.212C275.62 860.674 274.252 859.396 272.632 859.396C271.012 859.396 269.644 860.674 269.644 863.212C269.644 865.768 270.994 867.064 272.632 867.064ZM278.699 860.944C278.699 859.432 280.121 858.316 282.119 858.316C283.847 858.316 285.179 859.144 285.575 860.404L284.567 860.8C284.189 859.882 283.307 859.396 282.083 859.396C280.751 859.396 279.887 859.954 279.887 860.836C279.887 861.628 280.409 862.114 281.543 862.348L282.803 862.6C284.891 863.014 285.863 863.914 285.863 865.336C285.863 866.992 284.387 868.144 282.263 868.144C280.337 868.144 278.987 867.388 278.339 865.948L279.383 865.516C279.833 866.524 280.823 867.064 282.227 867.064C283.703 867.064 284.675 866.416 284.675 865.444C284.675 864.544 284.171 864.058 282.911 863.788L281.363 863.464C279.617 863.104 278.699 862.222 278.699 860.944ZM289.804 865.624C289.804 866.74 290.47 867.064 291.064 867.064C291.64 867.064 292.018 866.848 292.468 866.38L293.116 867.1C292.486 867.838 291.802 868.144 290.956 868.144C289.66 868.144 288.58 867.28 288.58 865.588V859.468H286.78V858.46H288.58V856.408L289.804 855.688V858.46H292.9V859.468H289.804V865.624ZM303.163 855.328C307.105 855.328 310.201 858.208 310.201 862.366C310.201 865.066 308.995 867.694 306.475 867.694C305.089 867.694 304.369 866.74 304.441 865.552C303.847 866.542 302.839 867.1 301.831 867.1C300.049 867.1 298.897 865.714 298.897 863.734C298.897 861.16 300.589 859.234 302.641 859.234C303.649 859.234 304.567 859.756 304.927 860.71L305.035 859.45H306.025L305.341 865.066C305.215 866.2 305.665 866.794 306.475 866.794C308.311 866.794 309.085 864.724 309.085 862.438C309.085 858.748 306.475 856.336 303.073 856.336C299.059 856.336 296.053 859.396 296.053 863.77C296.053 867.892 298.645 870.232 302.065 870.232C303.343 870.232 304.567 869.908 305.611 869.242L306.061 870.088C304.819 870.862 303.469 871.24 301.975 871.24C297.943 871.24 294.901 868.342 294.901 863.806C294.901 858.784 298.501 855.328 303.163 855.328ZM301.957 866.146C303.793 866.146 304.693 864.13 304.693 862.708C304.693 861.124 303.937 860.188 302.497 860.188C300.895 860.188 299.941 861.844 299.941 863.68C299.941 865.318 300.715 866.146 301.957 866.146ZM321.553 859.468H319.501V859.81C319.969 860.386 320.221 861.106 320.221 861.808C320.221 863.554 318.961 865.336 316.279 865.336H315.865C314.785 865.336 314.011 865.75 314.011 866.38C314.011 866.866 314.389 867.208 315.181 867.208H319.051C320.599 867.208 321.391 867.964 321.391 869.152C321.391 871.042 319.213 872.032 316.531 872.032C314.119 872.032 312.445 871.258 311.869 869.584L312.859 869.134C313.525 870.7 314.929 871.006 316.531 871.006C318.511 871.006 320.167 870.412 320.167 869.26C320.167 868.72 319.879 868.324 319.015 868.324H314.911C313.579 868.324 312.787 867.694 312.787 866.704C312.787 865.858 313.489 865.12 314.659 864.814C313.399 864.31 312.697 862.978 312.697 861.808C312.697 860.098 313.975 858.316 316.495 858.316C317.485 858.316 318.241 858.64 318.817 859.126V858.46H321.553V859.468ZM316.477 864.328C318.169 864.328 319.015 863.158 319.015 861.808C319.015 860.476 318.169 859.36 316.477 859.36C314.767 859.36 313.903 860.494 313.903 861.808C313.903 863.14 314.767 864.328 316.477 864.328ZM332.765 858.316C334.583 858.316 335.645 859.468 335.645 861.448V868H334.421V861.628C334.421 860.08 333.683 859.432 332.441 859.432C330.767 859.432 330.065 860.728 330.065 862.636V868H328.841V861.628C328.841 860.08 328.103 859.432 326.861 859.432C325.187 859.432 324.485 860.728 324.485 862.636V868H323.261V858.46H324.485V859.954C325.061 858.892 326.069 858.316 327.185 858.316C328.607 858.316 329.561 859.018 329.903 860.26C330.443 859 331.541 858.316 332.765 858.316ZM345.499 868H344.383C344.239 867.478 344.131 866.848 344.131 866.128C343.645 867.244 342.403 868.144 340.855 868.144C339.163 868.144 337.885 867.046 337.885 865.408C337.885 863.446 339.649 862.42 341.611 862.42C342.385 862.42 343.141 862.51 343.915 862.78V861.52C343.915 860.278 343.159 859.432 341.683 859.432C340.495 859.432 339.487 859.954 338.983 861.412L337.903 861.088C338.623 859.072 340.081 858.316 341.755 858.316C344.113 858.316 345.103 859.738 345.103 861.376V865.3C345.103 866.38 345.283 867.352 345.499 868ZM343.915 864.04V863.824C343.177 863.518 342.421 863.428 341.683 863.428C340.243 863.428 339.109 864.076 339.109 865.336C339.109 866.488 339.919 867.1 341.071 867.1C342.313 867.1 343.915 866.362 343.915 864.04ZM348.61 856.732C348.016 856.732 347.53 856.264 347.53 855.652C347.53 855.04 348.016 854.572 348.61 854.572C349.204 854.572 349.69 855.04 349.69 855.652C349.69 856.264 349.204 856.732 348.61 856.732ZM347.998 868V858.46H349.222V868H347.998ZM355.11 867.964C354.822 868.036 354.588 868.072 354.318 868.072C352.824 868.072 352.122 867.136 352.122 865.732V854.68H353.346V865.732C353.346 866.542 353.778 866.956 354.534 866.956C354.732 866.956 354.93 866.938 355.11 866.884V867.964ZM357.071 865.984H359.015V868H357.071V865.984ZM367.868 861.304C367.472 860.116 366.518 859.396 365.276 859.396C363.386 859.396 362.144 860.854 362.144 863.104C362.144 865.57 363.386 867.064 365.42 867.064C366.68 867.064 367.688 866.326 368.192 865.084L369.092 865.588C368.516 867.172 367.04 868.144 365.384 868.144C362.63 868.144 360.884 866.146 360.884 863.104C360.884 860.332 362.756 858.316 365.312 858.316C367.184 858.316 368.534 859.432 368.912 860.944L367.868 861.304ZM374.582 868.144C372.224 868.144 370.334 866.2 370.334 863.212C370.334 860.26 372.206 858.316 374.582 858.316C376.958 858.316 378.83 860.26 378.83 863.212C378.83 866.2 376.94 868.144 374.582 868.144ZM374.582 867.064C376.22 867.064 377.57 865.768 377.57 863.212C377.57 860.674 376.202 859.396 374.582 859.396C372.962 859.396 371.594 860.674 371.594 863.212C371.594 865.768 372.944 867.064 374.582 867.064ZM390.621 858.316C392.439 858.316 393.501 859.468 393.501 861.448V868H392.277V861.628C392.277 860.08 391.539 859.432 390.297 859.432C388.623 859.432 387.921 860.728 387.921 862.636V868H386.697V861.628C386.697 860.08 385.959 859.432 384.717 859.432C383.043 859.432 382.341 860.728 382.341 862.636V868H381.117V858.46H382.341V859.954C382.917 858.892 383.925 858.316 385.041 858.316C386.463 858.316 387.417 859.018 387.759 860.26C388.299 859 389.397 858.316 390.621 858.316Z" fill="#808080"/>
<rect x="232" y="839" width="273" height="46" stroke="#2A2859" stroke-width="2"/>
<path d="M241.62 916.68V918.624H237.642V930H235.536V918.624H231.558V916.68H241.62ZM248.654 926.994L250.022 927.786C249.482 928.974 248.222 930.162 246.044 930.162C243.218 930.162 241.508 928.074 241.508 925.14C241.508 922.242 243.362 920.244 245.9 920.244C248.15 920.244 250.004 921.756 250.004 924.456L249.968 925.644H243.488C243.596 927.66 244.586 928.524 246.17 928.524C247.34 928.524 248.15 927.894 248.654 926.994ZM245.9 921.828C244.676 921.828 243.65 922.476 243.488 924.204H248.042C248.06 922.512 247.016 921.828 245.9 921.828ZM256.124 929.946C255.746 930.054 255.368 930.108 254.972 930.108C253.154 930.108 252.29 929.028 252.29 927.282V916.68H254.306V927.138C254.306 927.966 254.792 928.344 255.53 928.344C255.71 928.344 255.908 928.326 256.124 928.272V929.946ZM264.39 926.994L265.758 927.786C265.218 928.974 263.958 930.162 261.78 930.162C258.954 930.162 257.244 928.074 257.244 925.14C257.244 922.242 259.098 920.244 261.636 920.244C263.886 920.244 265.74 921.756 265.74 924.456L265.704 925.644H259.224C259.332 927.66 260.322 928.524 261.906 928.524C263.076 928.524 263.886 927.894 264.39 926.994ZM261.636 921.828C260.412 921.828 259.386 922.476 259.224 924.204H263.778C263.796 922.512 262.752 921.828 261.636 921.828ZM270.463 919.596V920.46H273.145V922.026H270.463V930H268.447V922.026H266.773V920.46H268.447V919.686C268.447 917.616 269.797 916.41 271.669 916.41C272.551 916.41 273.433 916.77 273.955 917.418L273.001 918.75C272.713 918.39 272.281 918.174 271.813 918.174C271.075 918.174 270.463 918.606 270.463 919.596ZM278.132 930.18C275.648 930.18 273.614 928.236 273.614 925.176C273.614 922.188 275.63 920.244 278.132 920.244C280.634 920.244 282.65 922.188 282.65 925.176C282.65 928.236 280.616 930.18 278.132 930.18ZM278.132 928.47C279.482 928.47 280.58 927.426 280.58 925.176C280.58 922.908 279.464 921.954 278.132 921.954C276.8 921.954 275.684 922.908 275.684 925.176C275.684 927.426 276.8 928.47 278.132 928.47ZM289.572 920.244C291.516 920.244 292.668 921.504 292.668 923.574V930H290.652V923.898C290.652 922.584 290.022 921.99 288.924 921.99C287.502 921.99 286.782 922.98 286.782 924.834V930H284.766V920.46H286.782V921.828C287.43 920.82 288.384 920.244 289.572 920.244ZM300.2 920.244C302.144 920.244 303.296 921.504 303.296 923.574V930H301.28V923.898C301.28 922.584 300.65 921.99 299.552 921.99C298.13 921.99 297.41 922.98 297.41 924.834V930H295.394V920.46H297.41V921.828C298.058 920.82 299.012 920.244 300.2 920.244ZM311.551 920.46H313.567V930H311.551V928.596C310.939 929.64 309.985 930.162 308.815 930.162C306.853 930.162 305.719 928.902 305.719 926.832V920.46H307.735V926.526C307.735 927.768 308.347 928.434 309.445 928.434C310.849 928.434 311.551 927.426 311.551 925.572V920.46ZM326.74 920.244C328.648 920.244 329.746 921.486 329.746 923.484V930H327.73V923.826C327.73 922.566 327.136 921.99 326.092 921.99C324.688 921.99 323.986 922.962 323.986 924.834V930H321.97V923.826C321.97 922.566 321.376 921.99 320.332 921.99C318.946 921.99 318.244 922.962 318.244 924.834V930H316.228V920.46H318.244V921.81C318.892 920.784 319.828 920.244 320.98 920.244C322.438 920.244 323.392 920.946 323.806 922.134C324.454 920.874 325.462 920.244 326.74 920.244ZM343.011 920.244C344.919 920.244 346.017 921.486 346.017 923.484V930H344.001V923.826C344.001 922.566 343.407 921.99 342.363 921.99C340.959 921.99 340.257 922.962 340.257 924.834V930H338.241V923.826C338.241 922.566 337.647 921.99 336.603 921.99C335.217 921.99 334.515 922.962 334.515 924.834V930H332.499V920.46H334.515V921.81C335.163 920.784 336.099 920.244 337.251 920.244C338.709 920.244 339.663 920.946 340.077 922.134C340.725 920.874 341.733 920.244 343.011 920.244ZM355.322 926.994L356.69 927.786C356.15 928.974 354.89 930.162 352.712 930.162C349.886 930.162 348.176 928.074 348.176 925.14C348.176 922.242 350.03 920.244 352.568 920.244C354.818 920.244 356.672 921.756 356.672 924.456L356.636 925.644H350.156C350.264 927.66 351.254 928.524 352.838 928.524C354.008 928.524 354.818 927.894 355.322 926.994ZM352.568 921.828C351.344 921.828 350.318 922.476 350.156 924.204H354.71C354.728 922.512 353.684 921.828 352.568 921.828ZM363.332 920.244C364.718 920.244 365.618 921.162 365.618 922.8V924.06L363.998 924.348V923.376C363.998 922.512 363.692 921.918 362.756 921.918C361.73 921.918 360.974 922.602 360.974 924.42V930H358.958V920.46H360.974V921.738C361.514 920.676 362.504 920.244 363.332 920.244Z" fill="#2A2859"/>
<rect x="232" y="947" width="92.875" height="46" fill="white"/>
<rect x="232" y="947" width="92.875" height="46" stroke="#2A2859" stroke-width="2"/>
<rect x="232" y="1019" width="22" height="22" fill="white"/>
<rect x="232" y="1019" width="22" height="22" stroke="#2A2859" stroke-width="2"/>
<path d="M265.528 1034.94H271.032V1036H264.408V1024.16H265.528V1034.94ZM278.187 1033.6L278.987 1034.05C278.587 1035.07 277.531 1036.13 275.643 1036.13C273.259 1036.13 271.851 1034.35 271.851 1031.65C271.851 1029.17 273.323 1027.39 275.531 1027.39C277.355 1027.39 278.923 1028.7 278.923 1031.01L278.891 1031.95H272.955C273.051 1034.21 274.123 1035.17 275.755 1035.17C277.035 1035.17 277.787 1034.43 278.187 1033.6ZM275.531 1028.35C274.251 1028.35 273.099 1029.04 272.955 1031.06H277.851C277.899 1029.15 276.779 1028.35 275.531 1028.35ZM288.483 1028.42H286.659V1028.72C287.075 1029.23 287.299 1029.87 287.299 1030.5C287.299 1032.05 286.179 1033.63 283.795 1033.63H283.427C282.467 1033.63 281.779 1034 281.779 1034.56C281.779 1034.99 282.115 1035.3 282.819 1035.3H286.259C287.635 1035.3 288.339 1035.97 288.339 1037.02C288.339 1038.7 286.403 1039.58 284.019 1039.58C281.875 1039.58 280.387 1038.9 279.875 1037.41L280.755 1037.01C281.347 1038.4 282.595 1038.67 284.019 1038.67C285.779 1038.67 287.251 1038.14 287.251 1037.12C287.251 1036.64 286.995 1036.29 286.227 1036.29H282.579C281.395 1036.29 280.691 1035.73 280.691 1034.85C280.691 1034.1 281.315 1033.44 282.355 1033.17C281.235 1032.72 280.611 1031.54 280.611 1030.5C280.611 1028.98 281.747 1027.39 283.987 1027.39C284.867 1027.39 285.539 1027.68 286.051 1028.11V1027.52H288.483V1028.42ZM283.971 1032.74C285.475 1032.74 286.227 1031.7 286.227 1030.5C286.227 1029.31 285.475 1028.32 283.971 1028.32C282.451 1028.32 281.683 1029.33 281.683 1030.5C281.683 1031.68 282.451 1032.74 283.971 1032.74ZM297.595 1028.42H295.771V1028.72C296.187 1029.23 296.411 1029.87 296.411 1030.5C296.411 1032.05 295.291 1033.63 292.907 1033.63H292.539C291.579 1033.63 290.891 1034 290.891 1034.56C290.891 1034.99 291.227 1035.3 291.931 1035.3H295.371C296.747 1035.3 297.451 1035.97 297.451 1037.02C297.451 1038.7 295.515 1039.58 293.131 1039.58C290.987 1039.58 289.499 1038.9 288.987 1037.41L289.867 1037.01C290.459 1038.4 291.707 1038.67 293.131 1038.67C294.891 1038.67 296.363 1038.14 296.363 1037.12C296.363 1036.64 296.107 1036.29 295.339 1036.29H291.691C290.507 1036.29 289.803 1035.73 289.803 1034.85C289.803 1034.1 290.427 1033.44 291.467 1033.17C290.347 1032.72 289.723 1031.54 289.723 1030.5C289.723 1028.98 290.859 1027.39 293.099 1027.39C293.979 1027.39 294.651 1027.68 295.163 1028.11V1027.52H297.595V1028.42ZM293.083 1032.74C294.587 1032.74 295.339 1031.7 295.339 1030.5C295.339 1029.31 294.587 1028.32 293.083 1028.32C291.563 1028.32 290.795 1029.33 290.795 1030.5C290.795 1031.68 291.563 1032.74 293.083 1032.74ZM304.681 1033.89C304.681 1034.88 305.273 1035.17 305.801 1035.17C306.313 1035.17 306.649 1034.98 307.049 1034.56L307.625 1035.2C307.065 1035.86 306.457 1036.13 305.705 1036.13C304.553 1036.13 303.593 1035.36 303.593 1033.86V1028.42H301.993V1027.52H303.593V1025.7L304.681 1025.06V1027.52H307.433V1028.42H304.681V1033.89ZM309.829 1025.98C309.301 1025.98 308.869 1025.57 308.869 1025.02C308.869 1024.48 309.301 1024.06 309.829 1024.06C310.357 1024.06 310.789 1024.48 310.789 1025.02C310.789 1025.57 310.357 1025.98 309.829 1025.98ZM309.285 1036V1027.52H310.373V1036H309.285ZM315.585 1035.97C315.329 1036.03 315.121 1036.06 314.881 1036.06C313.553 1036.06 312.929 1035.23 312.929 1033.98V1024.16H314.017V1033.98C314.017 1034.7 314.401 1035.07 315.073 1035.07C315.249 1035.07 315.425 1035.06 315.585 1035.01V1035.97ZM329.712 1027.39C331.328 1027.39 332.272 1028.42 332.272 1030.18V1036H331.184V1030.34C331.184 1028.96 330.528 1028.38 329.424 1028.38C327.936 1028.38 327.312 1029.54 327.312 1031.23V1036H326.224V1030.34C326.224 1028.96 325.568 1028.38 324.464 1028.38C322.976 1028.38 322.352 1029.54 322.352 1031.23V1036H321.264V1027.52H322.352V1028.85C322.864 1027.9 323.76 1027.39 324.752 1027.39C326.016 1027.39 326.864 1028.02 327.168 1029.12C327.648 1028 328.624 1027.39 329.712 1027.39ZM340.481 1033.6L341.281 1034.05C340.881 1035.07 339.825 1036.13 337.937 1036.13C335.553 1036.13 334.145 1034.35 334.145 1031.65C334.145 1029.17 335.617 1027.39 337.825 1027.39C339.649 1027.39 341.217 1028.7 341.217 1031.01L341.185 1031.95H335.249C335.345 1034.21 336.417 1035.17 338.049 1035.17C339.329 1035.17 340.081 1034.43 340.481 1033.6ZM337.825 1028.35C336.545 1028.35 335.393 1029.04 335.249 1031.06H340.145C340.193 1029.15 339.073 1028.35 337.825 1028.35ZM349.173 1024.16H350.261V1036H349.173V1034.42C348.613 1035.5 347.493 1036.11 346.389 1036.11C344.229 1036.11 342.773 1034.3 342.773 1031.84C342.773 1029.23 344.245 1027.39 346.517 1027.39C347.701 1027.39 348.661 1027.98 349.173 1029.06V1024.16ZM346.501 1035.15C348.197 1035.15 349.173 1033.89 349.173 1031.81C349.173 1029.6 348.213 1028.35 346.517 1028.35C344.933 1028.35 343.893 1029.57 343.893 1031.79C343.893 1033.94 344.933 1035.15 346.501 1035.15ZM352.326 1029.73C352.326 1028.38 353.59 1027.39 355.366 1027.39C356.902 1027.39 358.086 1028.13 358.438 1029.25L357.542 1029.6C357.206 1028.78 356.422 1028.35 355.334 1028.35C354.15 1028.35 353.382 1028.85 353.382 1029.63C353.382 1030.34 353.846 1030.77 354.854 1030.98L355.974 1031.2C357.83 1031.57 358.694 1032.37 358.694 1033.63C358.694 1035.1 357.382 1036.13 355.494 1036.13C353.782 1036.13 352.582 1035.46 352.006 1034.18L352.934 1033.79C353.334 1034.69 354.214 1035.17 355.462 1035.17C356.774 1035.17 357.638 1034.59 357.638 1033.73C357.638 1032.93 357.19 1032.5 356.07 1032.26L354.694 1031.97C353.142 1031.65 352.326 1030.86 352.326 1029.73ZM366.091 1028.16C367.035 1028.91 367.643 1030.16 367.643 1031.74C367.643 1034.4 365.963 1036.13 363.867 1036.13C363.275 1036.13 362.715 1035.98 362.219 1035.73L361.691 1036.77H360.923L361.643 1035.36C360.699 1034.61 360.091 1033.34 360.091 1031.74C360.091 1029.12 361.755 1027.39 363.867 1027.39C364.459 1027.39 365.019 1027.54 365.515 1027.78L366.043 1026.75H366.811L366.091 1028.16ZM361.211 1031.74C361.211 1032.98 361.563 1033.87 362.107 1034.45L365.067 1028.66C364.699 1028.45 364.299 1028.35 363.867 1028.35C362.427 1028.35 361.211 1029.49 361.211 1031.74ZM363.867 1035.17C365.323 1035.17 366.523 1034.02 366.523 1031.74C366.523 1030.53 366.171 1029.65 365.627 1029.07L362.667 1034.86C363.019 1035.07 363.435 1035.17 363.867 1035.17ZM374.934 1036L371.814 1031.79L370.774 1032.78V1036H369.686V1024.16H370.774V1031.5L374.806 1027.52H376.246L372.55 1031.07L376.31 1036H374.934ZM383.09 1033.6L383.89 1034.05C383.49 1035.07 382.434 1036.13 380.546 1036.13C378.162 1036.13 376.754 1034.35 376.754 1031.65C376.754 1029.17 378.226 1027.39 380.434 1027.39C382.258 1027.39 383.826 1028.7 383.826 1031.01L383.794 1031.95H377.858C377.954 1034.21 379.026 1035.17 380.658 1035.17C381.938 1035.17 382.69 1034.43 383.09 1033.6ZM380.434 1028.35C379.154 1028.35 378.002 1029.04 377.858 1031.06H382.754C382.802 1029.15 381.682 1028.35 380.434 1028.35ZM388.966 1027.39C390.07 1027.39 390.87 1028.13 390.87 1029.57V1030.4L389.878 1030.59V1029.76C389.878 1028.91 389.59 1028.35 388.726 1028.35C387.75 1028.35 387.014 1029.07 387.014 1030.78V1036H385.926V1027.52H387.014V1028.58C387.462 1027.78 388.214 1027.39 388.966 1027.39Z" fill="#2A2859"/>
<path d="M941.38 112.32C941.38 109.7 943.8 108 946.68 108C949.04 108 950.92 108.82 952.06 110.78L950.12 111.98C949.48 110.78 948.12 110.08 946.66 110.08C944.92 110.08 943.74 110.86 943.74 112.14C943.74 113.2 944.4 113.9 945.84 114.14L948.12 114.48C950.7 114.88 952.5 116.28 952.5 118.66C952.5 121.16 950.38 123.2 946.84 123.2C944.32 123.2 942.24 122.32 940.98 120.18L942.94 118.92C943.88 120.62 945.48 121.1 946.86 121.1C948.84 121.1 950.06 120.1 950.06 118.74C950.06 117.5 949.28 116.94 947.84 116.7L945.32 116.3C942.94 115.94 941.38 114.56 941.38 112.32ZM957.584 119.72C957.584 120.9 958.304 121.26 959.044 121.26C959.624 121.26 960.084 121.02 960.544 120.56L961.504 122C960.704 122.8 959.824 123.18 958.684 123.18C956.844 123.18 955.344 122.06 955.344 119.86V114.14H953.484V112.4H955.344V110.04L957.584 109.02V112.4H961.324V114.14H957.584V119.72ZM970.238 119.66L971.758 120.54C971.158 121.86 969.758 123.18 967.338 123.18C964.198 123.18 962.298 120.86 962.298 117.6C962.298 114.38 964.358 112.16 967.178 112.16C969.678 112.16 971.738 113.84 971.738 116.84L971.698 118.16H964.498C964.618 120.4 965.718 121.36 967.478 121.36C968.778 121.36 969.678 120.66 970.238 119.66ZM967.178 113.92C965.818 113.92 964.678 114.64 964.498 116.56H969.558C969.578 114.68 968.418 113.92 967.178 113.92ZM984.384 114.14H982.164V114.38C982.524 114.88 982.704 115.46 982.704 116.06C982.704 117.98 981.224 119.9 978.144 119.9H977.624C976.544 119.9 975.844 120.26 975.844 120.9C975.844 121.34 976.184 121.66 976.864 121.66H981.284C983.104 121.66 984.144 122.6 984.144 124.04C984.144 126.22 981.924 127.48 978.384 127.48C975.284 127.48 973.204 126.7 972.664 124.64L974.844 124.22C975.344 125.5 976.504 125.84 978.444 125.84C980.524 125.84 982.004 125.28 982.004 124.3C982.004 123.84 981.744 123.5 981.024 123.5H976.204C974.544 123.5 973.684 122.6 973.684 121.48C973.684 120.4 974.644 119.54 975.964 119.28C974.504 118.64 973.784 117.28 973.784 116C973.784 114.1 975.324 112.16 978.264 112.16C979.564 112.16 980.584 112.62 981.184 113.28V112.4H984.384V114.14ZM978.264 118.28C979.804 118.28 980.524 117.2 980.524 116.04C980.524 114.88 979.804 113.82 978.264 113.82C976.744 113.82 976.004 114.88 976.004 116.04C976.004 117.2 976.744 118.28 978.264 118.28ZM997.409 121.02H1000.65V123H991.669V121.02H995.089V110.86L991.829 112.94V110.56L995.409 108.2H997.409V121.02Z" fill="#2A2859"/>
<path d="M942.64 189V166.8H945.31V189H942.64ZM957.43 172.8C960.64 172.8 962.53 174.81 962.53 178.35V189H959.95V178.74C959.95 176.13 958.75 175.11 956.68 175.11C954.07 175.11 952.81 177.06 952.81 180.18V189H950.23V173.1H952.81V175.47C953.83 173.76 955.48 172.8 957.43 172.8ZM970.918 171.21V173.1H975.358V175.17H970.918V189H968.338V175.17H965.428V173.1H968.338V171.27C968.338 168.21 970.318 166.47 973.048 166.47C974.338 166.47 975.718 166.98 976.498 168.15L975.118 169.77C974.638 169.11 973.918 168.69 973.108 168.69C971.998 168.69 970.918 169.38 970.918 171.21ZM983.581 189.27C979.561 189.27 976.291 186.03 976.291 180.99C976.291 176.04 979.531 172.8 983.581 172.8C987.601 172.8 990.841 176.04 990.841 180.99C990.841 186.03 987.571 189.27 983.581 189.27ZM983.581 187.02C986.101 187.02 988.171 185.04 988.171 180.99C988.171 176.94 986.071 175.05 983.581 175.05C981.061 175.05 978.961 176.94 978.961 180.99C978.961 185.04 981.031 187.02 983.581 187.02ZM1001.02 172.8C1003.18 172.8 1004.68 174.24 1004.68 176.97V178.74L1002.46 179.16V177.57C1002.46 176.04 1001.95 175.02 1000.36 175.02C998.559 175.02 997.239 176.28 997.239 179.43V189H994.659V173.1H997.239V175.14C998.109 173.52 999.609 172.8 1001.02 172.8ZM1024.96 172.8C1028.05 172.8 1029.85 174.78 1029.85 178.11V189H1027.27V178.5C1027.27 176.13 1026.13 175.11 1024.21 175.11C1021.6 175.11 1020.43 177.03 1020.43 180.18V189H1017.85V178.5C1017.85 176.13 1016.71 175.11 1014.76 175.11C1012.18 175.11 1011.01 177.03 1011.01 180.18V189H1008.43V173.1H1011.01V175.47C1012.03 173.73 1013.62 172.8 1015.54 172.8C1017.91 172.8 1019.53 173.97 1020.13 176.01C1021.12 173.91 1022.89 172.8 1024.96 172.8ZM1046.81 189H1044.44C1044.2 188.16 1044.02 187.17 1044.02 185.94C1043.21 187.71 1041.32 189.27 1038.68 189.27C1035.83 189.27 1033.73 187.38 1033.73 184.62C1033.73 181.23 1036.7 179.52 1040.06 179.52C1041.26 179.52 1042.43 179.64 1043.63 180.03V178.23C1043.63 176.31 1042.46 175.02 1040.18 175.02C1038.29 175.02 1036.76 175.95 1036.01 178.14L1033.79 177.45C1034.96 174.09 1037.51 172.8 1040.33 172.8C1044.38 172.8 1046.15 175.23 1046.15 178.08V184.47C1046.15 186.3 1046.45 187.95 1046.81 189ZM1043.63 182.43V182.04C1042.52 181.59 1041.38 181.47 1040.27 181.47C1038.02 181.47 1036.28 182.49 1036.28 184.44C1036.28 186.18 1037.51 187.17 1039.31 187.17C1041.2 187.17 1043.63 186.03 1043.63 182.43ZM1050.17 177.33C1050.17 174.75 1052.6 172.8 1056.11 172.8C1059.05 172.8 1061.21 174.09 1062.05 176.19L1060.1 177.18C1059.44 175.77 1058 174.99 1056.05 174.99C1054.01 174.99 1052.66 175.8 1052.66 177.15C1052.66 178.32 1053.41 179.01 1055.12 179.37L1057.43 179.82C1060.88 180.51 1062.53 182.04 1062.53 184.44C1062.53 187.29 1060.01 189.24 1056.29 189.24C1053.05 189.24 1050.74 187.98 1049.6 185.64L1051.58 184.59C1052.39 186.21 1053.98 187.08 1056.23 187.08C1058.51 187.08 1060.04 186.09 1060.04 184.59C1060.04 183.27 1059.26 182.55 1057.43 182.16L1054.7 181.62C1051.76 181.02 1050.17 179.52 1050.17 177.33ZM1067.48 170.31C1066.34 170.31 1065.44 169.44 1065.44 168.27C1065.44 167.13 1066.34 166.26 1067.48 166.26C1068.59 166.26 1069.49 167.13 1069.49 168.27C1069.49 169.44 1068.59 170.31 1067.48 170.31ZM1064.99 195.54C1064.39 195.54 1063.76 195.45 1063.19 195.27L1063.4 193.14C1063.82 193.29 1064.18 193.32 1064.48 193.32C1065.8 193.32 1066.19 192.45 1066.19 191.1V173.1H1068.77V191.07C1068.77 193.95 1067.54 195.54 1064.99 195.54ZM1079.97 189.27C1075.95 189.27 1072.68 186.03 1072.68 180.99C1072.68 176.04 1075.92 172.8 1079.97 172.8C1083.99 172.8 1087.23 176.04 1087.23 180.99C1087.23 186.03 1083.96 189.27 1079.97 189.27ZM1079.97 187.02C1082.49 187.02 1084.56 185.04 1084.56 180.99C1084.56 176.94 1082.46 175.05 1079.97 175.05C1077.45 175.05 1075.35 176.94 1075.35 180.99C1075.35 185.04 1077.42 187.02 1079.97 187.02ZM1098.25 172.8C1101.46 172.8 1103.35 174.81 1103.35 178.35V189H1100.77V178.74C1100.77 176.13 1099.57 175.11 1097.5 175.11C1094.89 175.11 1093.63 177.06 1093.63 180.18V189H1091.05V173.1H1093.63V175.47C1094.65 173.76 1096.3 172.8 1098.25 172.8ZM1121.82 189.27C1117.8 189.27 1114.53 186.03 1114.53 180.99C1114.53 176.04 1117.77 172.8 1121.82 172.8C1125.84 172.8 1129.08 176.04 1129.08 180.99C1129.08 186.03 1125.81 189.27 1121.82 189.27ZM1121.82 187.02C1124.34 187.02 1126.41 185.04 1126.41 180.99C1126.41 176.94 1124.31 175.05 1121.82 175.05C1119.3 175.05 1117.2 176.94 1117.2 180.99C1117.2 185.04 1119.27 187.02 1121.82 187.02ZM1149.43 172.8C1152.52 172.8 1154.32 174.78 1154.32 178.11V189H1151.74V178.5C1151.74 176.13 1150.6 175.11 1148.68 175.11C1146.07 175.11 1144.9 177.03 1144.9 180.18V189H1142.32V178.5C1142.32 176.13 1141.18 175.11 1139.23 175.11C1136.65 175.11 1135.48 177.03 1135.48 180.18V189H1132.9V173.1H1135.48V175.47C1136.5 173.73 1138.09 172.8 1140.01 172.8C1142.38 172.8 1144 173.97 1144.6 176.01C1145.59 173.91 1147.36 172.8 1149.43 172.8ZM1177.34 166.8H1179.92V189H1177.34V186.03C1176.23 188.16 1174.16 189.21 1172.21 189.21C1168.25 189.21 1165.49 185.88 1165.49 181.17C1165.49 176.22 1168.28 172.83 1172.51 172.83C1174.55 172.83 1176.38 173.79 1177.34 175.83V166.8ZM1172.69 186.96C1175.57 186.96 1177.34 184.89 1177.34 181.05C1177.34 177.09 1175.6 174.99 1172.72 174.99C1170.02 174.99 1168.16 177.09 1168.16 181.05C1168.16 184.86 1170.02 186.96 1172.69 186.96ZM1195.54 184.29L1197.37 185.31C1196.53 187.29 1194.52 189.27 1190.95 189.27C1186.36 189.27 1183.63 185.85 1183.63 180.87C1183.63 176.13 1186.54 172.8 1190.71 172.8C1194.25 172.8 1197.28 175.29 1197.28 179.7L1197.22 181.53H1186.21C1186.39 185.43 1188.28 187.08 1191.16 187.08C1193.35 187.08 1194.76 185.82 1195.54 184.29ZM1190.71 174.96C1188.46 174.96 1186.51 176.13 1186.21 179.52H1194.76C1194.79 176.31 1192.84 174.96 1190.71 174.96ZM1215.73 175.17H1212.37V175.65C1213.03 176.52 1213.39 177.57 1213.39 178.65C1213.39 181.53 1211.26 184.47 1206.73 184.47H1205.98C1204.27 184.47 1203.07 185.1 1203.07 186.12C1203.07 186.87 1203.67 187.41 1204.84 187.41H1211.38C1214.02 187.41 1215.43 188.73 1215.43 190.77C1215.43 193.98 1211.92 195.72 1207.12 195.72C1202.83 195.72 1199.92 194.49 1199.02 191.58L1201.33 190.86C1202.29 193.2 1204.39 193.71 1207.15 193.71C1210.39 193.71 1212.91 192.78 1212.91 191.04C1212.91 190.23 1212.49 189.63 1211.17 189.63H1204.18C1201.84 189.63 1200.55 188.46 1200.55 186.78C1200.55 185.28 1201.84 184.02 1203.79 183.57C1201.66 182.67 1200.52 180.54 1200.52 178.62C1200.52 175.77 1202.71 172.8 1207 172.8C1208.77 172.8 1210.15 173.43 1211.08 174.3V173.1H1215.73V175.17ZM1207 182.49C1209.61 182.49 1210.87 180.66 1210.87 178.62C1210.87 176.61 1209.61 174.87 1207 174.87C1204.36 174.87 1203.07 176.61 1203.07 178.62C1203.07 180.66 1204.36 182.49 1207 182.49Z" fill="#2A2859"/>
<path d="M943.672 244H941.566V230.68H949.81V232.624H943.672V236.692H948.766V238.618H943.672V244ZM957.283 235.036C958.489 235.864 959.263 237.322 959.263 239.176C959.263 242.236 957.229 244.18 954.745 244.18C954.115 244.18 953.521 244.054 952.963 243.82L952.405 244.972H951.379L952.171 243.37C951.001 242.524 950.227 241.066 950.227 239.176C950.227 236.188 952.243 234.244 954.745 234.244C955.375 234.244 955.951 234.37 956.491 234.586L957.049 233.47H958.057L957.283 235.036ZM952.297 239.176C952.297 240.292 952.567 241.12 953.017 241.66L955.717 236.152C955.429 236.026 955.087 235.954 954.745 235.954C953.413 235.954 952.297 236.908 952.297 239.176ZM954.745 242.47C956.095 242.47 957.193 241.426 957.193 239.176C957.193 238.042 956.905 237.232 956.473 236.71L953.737 242.254C954.043 242.398 954.385 242.47 954.745 242.47ZM967.732 230.68H969.748V244H967.732V242.272C966.994 243.604 965.842 244.144 964.744 244.144C962.44 244.144 960.784 242.164 960.784 239.266C960.784 236.26 962.458 234.262 964.978 234.262C966.058 234.262 967.138 234.748 967.732 235.918V230.68ZM965.284 242.38C966.742 242.38 967.732 241.39 967.732 239.158C967.732 236.944 966.76 235.882 965.284 235.882C963.898 235.882 962.872 236.998 962.872 239.158C962.872 241.3 963.898 242.38 965.284 242.38ZM971.889 237.088C971.889 235.468 973.383 234.244 975.633 234.244C977.487 234.244 978.729 234.91 979.395 236.188L977.991 237.052C977.559 236.314 976.695 235.864 975.615 235.864C974.535 235.864 973.797 236.278 973.797 236.962C973.797 237.52 974.175 237.862 975.021 238.024L976.623 238.348C978.639 238.744 979.647 239.698 979.647 241.156C979.647 242.956 978.081 244.162 975.723 244.162C973.725 244.162 972.303 243.406 971.565 242.02L972.969 241.138C973.491 242.02 974.409 242.524 975.669 242.524C976.893 242.524 977.721 242.038 977.721 241.246C977.721 240.598 977.325 240.238 976.443 240.058L974.679 239.716C972.879 239.374 971.889 238.456 971.889 237.088ZM988.079 240.994L989.447 241.786C988.907 242.974 987.647 244.162 985.469 244.162C982.643 244.162 980.933 242.074 980.933 239.14C980.933 236.242 982.787 234.244 985.325 234.244C987.575 234.244 989.429 235.756 989.429 238.456L989.393 239.644H982.913C983.021 241.66 984.011 242.524 985.595 242.524C986.765 242.524 987.575 241.894 988.079 240.994ZM985.325 235.828C984.101 235.828 983.075 236.476 982.913 238.204H987.467C987.485 236.512 986.441 235.828 985.325 235.828ZM995.55 243.946C995.172 244.054 994.794 244.108 994.398 244.108C992.58 244.108 991.716 243.028 991.716 241.282V230.68H993.732V241.138C993.732 241.966 994.218 242.344 994.956 242.344C995.136 242.344 995.334 242.326 995.55 242.272V243.946ZM996.971 237.088C996.971 235.468 998.465 234.244 1000.71 234.244C1002.57 234.244 1003.81 234.91 1004.48 236.188L1003.07 237.052C1002.64 236.314 1001.78 235.864 1000.7 235.864C999.617 235.864 998.879 236.278 998.879 236.962C998.879 237.52 999.257 237.862 1000.1 238.024L1001.7 238.348C1003.72 238.744 1004.73 239.698 1004.73 241.156C1004.73 242.956 1003.16 244.162 1000.8 244.162C998.807 244.162 997.385 243.406 996.647 242.02L998.051 241.138C998.573 242.02 999.491 242.524 1000.75 242.524C1001.97 242.524 1002.8 242.038 1002.8 241.246C1002.8 240.598 1002.41 240.238 1001.52 240.058L999.761 239.716C997.961 239.374 996.971 238.456 996.971 237.088ZM1011.61 234.244C1013.55 234.244 1014.7 235.504 1014.7 237.574V244H1012.69V237.898C1012.69 236.584 1012.06 235.99 1010.96 235.99C1009.54 235.99 1008.82 236.98 1008.82 238.834V244H1006.8V234.46H1008.82V235.828C1009.47 234.82 1010.42 234.244 1011.61 234.244ZM1022.96 234.46H1024.97V244H1022.96V242.596C1022.35 243.64 1021.39 244.162 1020.22 244.162C1018.26 244.162 1017.13 242.902 1017.13 240.832V234.46H1019.14V240.526C1019.14 241.768 1019.75 242.434 1020.85 242.434C1022.26 242.434 1022.96 241.426 1022.96 239.572V234.46ZM1038.15 234.244C1040.06 234.244 1041.15 235.486 1041.15 237.484V244H1039.14V237.826C1039.14 236.566 1038.54 235.99 1037.5 235.99C1036.1 235.99 1035.39 236.962 1035.39 238.834V244H1033.38V237.826C1033.38 236.566 1032.78 235.99 1031.74 235.99C1030.35 235.99 1029.65 236.962 1029.65 238.834V244H1027.64V234.46H1029.65V235.81C1030.3 234.784 1031.24 234.244 1032.39 234.244C1033.85 234.244 1034.8 234.946 1035.21 236.134C1035.86 234.874 1036.87 234.244 1038.15 234.244ZM1054.42 234.244C1056.33 234.244 1057.43 235.486 1057.43 237.484V244H1055.41V237.826C1055.41 236.566 1054.82 235.99 1053.77 235.99C1052.37 235.99 1051.67 236.962 1051.67 238.834V244H1049.65V237.826C1049.65 236.566 1049.06 235.99 1048.01 235.99C1046.63 235.99 1045.92 236.962 1045.92 238.834V244H1043.91V234.46H1045.92V235.81C1046.57 234.784 1047.51 234.244 1048.66 234.244C1050.12 234.244 1051.07 234.946 1051.49 236.134C1052.13 234.874 1053.14 234.244 1054.42 234.244ZM1066.73 240.994L1068.1 241.786C1067.56 242.974 1066.3 244.162 1064.12 244.162C1061.29 244.162 1059.58 242.074 1059.58 239.14C1059.58 236.242 1061.44 234.244 1063.98 234.244C1066.23 234.244 1068.08 235.756 1068.08 238.456L1068.04 239.644H1061.56C1061.67 241.66 1062.66 242.524 1064.25 242.524C1065.42 242.524 1066.23 241.894 1066.73 240.994ZM1063.98 235.828C1062.75 235.828 1061.73 236.476 1061.56 238.204H1066.12C1066.14 236.512 1065.09 235.828 1063.98 235.828ZM1074.74 234.244C1076.13 234.244 1077.03 235.162 1077.03 236.8V238.06L1075.41 238.348V237.376C1075.41 236.512 1075.1 235.918 1074.16 235.918C1073.14 235.918 1072.38 236.602 1072.38 238.42V244H1070.37V234.46H1072.38V235.738C1072.92 234.676 1073.91 234.244 1074.74 234.244Z" fill="#2A2859"/>
<rect x="941" y="261" width="159" height="46" fill="white"/>
<rect x="941" y="261" width="159" height="46" stroke="#2A2859" stroke-width="2"/>
<path d="M943.672 352H941.566V338.68H949.81V340.624H943.672V344.692H948.766V346.618H943.672V352ZM954.745 352.18C952.261 352.18 950.227 350.236 950.227 347.176C950.227 344.188 952.243 342.244 954.745 342.244C957.247 342.244 959.263 344.188 959.263 347.176C959.263 350.236 957.229 352.18 954.745 352.18ZM954.745 350.47C956.095 350.47 957.193 349.426 957.193 347.176C957.193 344.908 956.077 343.954 954.745 343.954C953.413 343.954 952.297 344.908 952.297 347.176C952.297 349.426 953.413 350.47 954.745 350.47ZM965.752 342.244C967.138 342.244 968.038 343.162 968.038 344.8V346.06L966.418 346.348V345.376C966.418 344.512 966.112 343.918 965.176 343.918C964.15 343.918 963.394 344.602 963.394 346.42V352H961.378V342.46H963.394V343.738C963.934 342.676 964.924 342.244 965.752 342.244ZM974.967 342.244C976.911 342.244 978.063 343.504 978.063 345.574V352H976.047V345.898C976.047 344.584 975.417 343.99 974.319 343.99C972.897 343.99 972.177 344.98 972.177 346.834V352H970.161V342.46H972.177V343.828C972.825 342.82 973.779 342.244 974.967 342.244ZM988.475 352H986.621C986.477 351.514 986.387 350.938 986.351 350.2C985.901 351.19 984.893 352.162 983.237 352.162C981.509 352.162 980.285 350.992 980.285 349.336C980.285 347.266 982.121 346.24 984.173 346.24C984.821 346.24 985.433 346.294 986.099 346.474V345.574C986.099 344.548 985.451 343.882 984.281 343.882C983.183 343.882 982.409 344.476 982.049 345.592L980.339 345.07C981.023 343.054 982.661 342.244 984.371 342.244C986.909 342.244 988.061 343.738 988.061 345.556V349.246C988.061 350.38 988.241 351.388 988.475 352ZM986.099 348.058V347.842C985.523 347.644 984.965 347.572 984.371 347.572C983.183 347.572 982.265 348.112 982.265 349.156C982.265 350.038 982.895 350.596 983.849 350.596C984.821 350.596 986.099 350.02 986.099 348.058ZM996.499 342.46H998.587L994.933 352H992.863L989.227 342.46H991.459L993.979 349.894L996.499 342.46ZM1004.9 342.244C1006.84 342.244 1008 343.504 1008 345.574V352H1005.98V345.898C1005.98 344.584 1005.35 343.99 1004.25 343.99C1002.83 343.99 1002.11 344.98 1002.11 346.834V352H1000.09V342.46H1002.11V343.828C1002.76 342.82 1003.71 342.244 1004.9 342.244Z" fill="#2A2859"/>
<rect x="941" y="369" width="398" height="46" fill="white"/>
<rect x="941" y="369" width="398" height="46" stroke="#2A2859" stroke-width="2"/>
<path d="M943.672 458.056H950.152V460H941.566V446.68H950.044V448.624H943.672V452.35H948.586V454.294H943.672V458.056ZM954.487 457.048C954.487 458.11 955.135 458.434 955.801 458.434C956.323 458.434 956.737 458.218 957.151 457.804L958.015 459.1C957.295 459.82 956.503 460.162 955.477 460.162C953.821 460.162 952.471 459.154 952.471 457.174V452.026H950.797V450.46H952.471V448.336L954.487 447.418V450.46H957.853V452.026H954.487V457.048ZM962.303 457.048C962.303 458.11 962.951 458.434 963.617 458.434C964.139 458.434 964.553 458.218 964.967 457.804L965.831 459.1C965.111 459.82 964.319 460.162 963.293 460.162C961.637 460.162 960.287 459.154 960.287 457.174V452.026H958.613V450.46H960.287V448.336L962.303 447.418V450.46H965.669V452.026H962.303V457.048ZM973.672 456.994L975.04 457.786C974.5 458.974 973.24 460.162 971.062 460.162C968.236 460.162 966.526 458.074 966.526 455.14C966.526 452.242 968.38 450.244 970.918 450.244C973.168 450.244 975.022 451.756 975.022 454.456L974.986 455.644H968.506C968.614 457.66 969.604 458.524 971.188 458.524C972.358 458.524 973.168 457.894 973.672 456.994ZM970.918 451.828C969.694 451.828 968.668 452.476 968.506 454.204H973.06C973.078 452.512 972.034 451.828 970.918 451.828ZM981.682 450.244C983.068 450.244 983.968 451.162 983.968 452.8V454.06L982.348 454.348V453.376C982.348 452.512 982.042 451.918 981.106 451.918C980.08 451.918 979.324 452.602 979.324 454.42V460H977.308V450.46H979.324V451.738C979.864 450.676 980.854 450.244 981.682 450.244ZM990.897 450.244C992.841 450.244 993.993 451.504 993.993 453.574V460H991.977V453.898C991.977 452.584 991.347 451.99 990.249 451.99C988.827 451.99 988.107 452.98 988.107 454.834V460H986.091V450.46H988.107V451.828C988.755 450.82 989.709 450.244 990.897 450.244ZM1004.4 460H1002.55C1002.41 459.514 1002.32 458.938 1002.28 458.2C1001.83 459.19 1000.82 460.162 999.167 460.162C997.439 460.162 996.215 458.992 996.215 457.336C996.215 455.266 998.051 454.24 1000.1 454.24C1000.75 454.24 1001.36 454.294 1002.03 454.474V453.574C1002.03 452.548 1001.38 451.882 1000.21 451.882C999.113 451.882 998.339 452.476 997.979 453.592L996.269 453.07C996.953 451.054 998.591 450.244 1000.3 450.244C1002.84 450.244 1003.99 451.738 1003.99 453.556V457.246C1003.99 458.38 1004.17 459.388 1004.4 460ZM1002.03 456.058V455.842C1001.45 455.644 1000.89 455.572 1000.3 455.572C999.113 455.572 998.195 456.112 998.195 457.156C998.195 458.038 998.825 458.596 999.779 458.596C1000.75 458.596 1002.03 458.02 1002.03 456.058ZM1012.43 450.46H1014.52L1010.86 460H1008.79L1005.16 450.46H1007.39L1009.91 457.894L1012.43 450.46ZM1020.83 450.244C1022.77 450.244 1023.93 451.504 1023.93 453.574V460H1021.91V453.898C1021.91 452.584 1021.28 451.99 1020.18 451.99C1018.76 451.99 1018.04 452.98 1018.04 454.834V460H1016.02V450.46H1018.04V451.828C1018.69 450.82 1019.64 450.244 1020.83 450.244Z" fill="#2A2859"/>
<rect x="941" y="477" width="398" height="46" fill="white"/>
<rect x="941" y="477" width="398" height="46" stroke="#2A2859" stroke-width="2"/>
<path d="M949.936 568L948.928 564.76H943.78L942.736 568H940.522L945.148 554.68H947.686L952.294 568H949.936ZM944.374 562.906H948.334L946.372 556.624L944.374 562.906ZM959.882 554.68H961.898V568H959.882V566.272C959.144 567.604 957.992 568.144 956.894 568.144C954.59 568.144 952.934 566.164 952.934 563.266C952.934 560.26 954.608 558.262 957.128 558.262C958.208 558.262 959.288 558.748 959.882 559.918V554.68ZM957.434 566.38C958.892 566.38 959.882 565.39 959.882 563.158C959.882 560.944 958.91 559.882 957.434 559.882C956.048 559.882 955.022 560.998 955.022 563.158C955.022 565.3 956.048 566.38 957.434 566.38ZM968.916 558.244C970.302 558.244 971.202 559.162 971.202 560.8V562.06L969.582 562.348V561.376C969.582 560.512 969.276 559.918 968.34 559.918C967.314 559.918 966.558 560.602 966.558 562.42V568H964.542V558.46H966.558V559.738C967.098 558.676 968.088 558.244 968.916 558.244ZM979.332 564.994L980.7 565.786C980.16 566.974 978.9 568.162 976.722 568.162C973.896 568.162 972.186 566.074 972.186 563.14C972.186 560.242 974.04 558.244 976.578 558.244C978.828 558.244 980.682 559.756 980.682 562.456L980.646 563.644H974.166C974.274 565.66 975.264 566.524 976.848 566.524C978.018 566.524 978.828 565.894 979.332 564.994ZM976.578 559.828C975.354 559.828 974.328 560.476 974.166 562.204H978.72C978.738 560.512 977.694 559.828 976.578 559.828ZM982.465 561.088C982.465 559.468 983.959 558.244 986.209 558.244C988.063 558.244 989.305 558.91 989.971 560.188L988.567 561.052C988.135 560.314 987.271 559.864 986.191 559.864C985.111 559.864 984.373 560.278 984.373 560.962C984.373 561.52 984.751 561.862 985.597 562.024L987.199 562.348C989.215 562.744 990.223 563.698 990.223 565.156C990.223 566.956 988.657 568.162 986.299 568.162C984.301 568.162 982.879 567.406 982.141 566.02L983.545 565.138C984.067 566.02 984.985 566.524 986.245 566.524C987.469 566.524 988.297 566.038 988.297 565.246C988.297 564.598 987.901 564.238 987.019 564.058L985.255 563.716C983.455 563.374 982.465 562.456 982.465 561.088ZM991.792 561.088C991.792 559.468 993.286 558.244 995.536 558.244C997.39 558.244 998.632 558.91 999.298 560.188L997.894 561.052C997.462 560.314 996.598 559.864 995.518 559.864C994.438 559.864 993.7 560.278 993.7 560.962C993.7 561.52 994.078 561.862 994.924 562.024L996.526 562.348C998.542 562.744 999.55 563.698 999.55 565.156C999.55 566.956 997.984 568.162 995.626 568.162C993.628 568.162 992.206 567.406 991.468 566.02L992.872 565.138C993.394 566.02 994.312 566.524 995.572 566.524C996.796 566.524 997.624 566.038 997.624 565.246C997.624 564.598 997.228 564.238 996.346 564.058L994.582 563.716C992.782 563.374 991.792 562.456 991.792 561.088ZM1007.98 564.994L1009.35 565.786C1008.81 566.974 1007.55 568.162 1005.37 568.162C1002.55 568.162 1000.84 566.074 1000.84 563.14C1000.84 560.242 1002.69 558.244 1005.23 558.244C1007.48 558.244 1009.33 559.756 1009.33 562.456L1009.3 563.644H1002.82C1002.92 565.66 1003.91 566.524 1005.5 566.524C1006.67 566.524 1007.48 565.894 1007.98 564.994ZM1005.23 559.828C1004 559.828 1002.98 560.476 1002.82 562.204H1007.37C1007.39 560.512 1006.34 559.828 1005.23 559.828Z" fill="#2A2859"/>
<rect x="941" y="585" width="398" height="46" fill="white"/>
<rect x="941" y="585" width="398" height="46" stroke="#2A2859" stroke-width="2"/>
<path d="M946.138 662.68C949.144 662.68 950.998 664.444 950.998 667.072C950.998 669.7 949.054 671.464 946.03 671.464H943.672V676H941.566V662.68H946.138ZM946.21 669.628C947.866 669.628 948.82 668.746 948.82 667.144C948.82 665.47 947.866 664.588 946.192 664.588H943.672V669.628H946.21ZM956.151 676.18C953.667 676.18 951.633 674.236 951.633 671.176C951.633 668.188 953.649 666.244 956.151 666.244C958.653 666.244 960.669 668.188 960.669 671.176C960.669 674.236 958.635 676.18 956.151 676.18ZM956.151 674.47C957.501 674.47 958.599 673.426 958.599 671.176C958.599 668.908 957.483 667.954 956.151 667.954C954.819 667.954 953.703 668.908 953.703 671.176C953.703 673.426 954.819 674.47 956.151 674.47ZM962.281 669.088C962.281 667.468 963.775 666.244 966.025 666.244C967.879 666.244 969.121 666.91 969.787 668.188L968.383 669.052C967.951 668.314 967.087 667.864 966.007 667.864C964.927 667.864 964.189 668.278 964.189 668.962C964.189 669.52 964.567 669.862 965.413 670.024L967.015 670.348C969.031 670.744 970.039 671.698 970.039 673.156C970.039 674.956 968.473 676.162 966.115 676.162C964.117 676.162 962.695 675.406 961.957 674.02L963.361 673.138C963.883 674.02 964.801 674.524 966.061 674.524C967.285 674.524 968.113 674.038 968.113 673.246C968.113 672.598 967.717 672.238 966.835 672.058L965.071 671.716C963.271 671.374 962.281 670.456 962.281 669.088ZM974.636 673.048C974.636 674.11 975.284 674.434 975.95 674.434C976.472 674.434 976.886 674.218 977.3 673.804L978.164 675.1C977.444 675.82 976.652 676.162 975.626 676.162C973.97 676.162 972.62 675.154 972.62 673.174V668.026H970.946V666.46H972.62V664.336L974.636 663.418V666.46H978.002V668.026H974.636V673.048ZM984.716 666.244C986.66 666.244 987.812 667.504 987.812 669.574V676H985.796V669.898C985.796 668.584 985.166 667.99 984.068 667.99C982.646 667.99 981.926 668.98 981.926 670.834V676H979.91V666.46H981.926V667.828C982.574 666.82 983.528 666.244 984.716 666.244ZM996.067 666.46H998.083V676H996.067V674.596C995.455 675.64 994.501 676.162 993.331 676.162C991.369 676.162 990.235 674.902 990.235 672.832V666.46H992.251V672.526C992.251 673.768 992.863 674.434 993.961 674.434C995.365 674.434 996.067 673.426 996.067 671.572V666.46ZM1011.26 666.244C1013.16 666.244 1014.26 667.486 1014.26 669.484V676H1012.25V669.826C1012.25 668.566 1011.65 667.99 1010.61 667.99C1009.2 667.99 1008.5 668.962 1008.5 670.834V676H1006.49V669.826C1006.49 668.566 1005.89 667.99 1004.85 667.99C1003.46 667.99 1002.76 668.962 1002.76 670.834V676H1000.74V666.46H1002.76V667.81C1003.41 666.784 1004.34 666.244 1005.5 666.244C1006.95 666.244 1007.91 666.946 1008.32 668.134C1008.97 666.874 1009.98 666.244 1011.26 666.244ZM1027.53 666.244C1029.44 666.244 1030.53 667.486 1030.53 669.484V676H1028.52V669.826C1028.52 668.566 1027.92 667.99 1026.88 667.99C1025.48 667.99 1024.77 668.962 1024.77 670.834V676H1022.76V669.826C1022.76 668.566 1022.16 667.99 1021.12 667.99C1019.73 667.99 1019.03 668.962 1019.03 670.834V676H1017.02V666.46H1019.03V667.81C1019.68 666.784 1020.62 666.244 1021.77 666.244C1023.23 666.244 1024.18 666.946 1024.59 668.134C1025.24 666.874 1026.25 666.244 1027.53 666.244ZM1039.84 672.994L1041.21 673.786C1040.67 674.974 1039.41 676.162 1037.23 676.162C1034.4 676.162 1032.69 674.074 1032.69 671.14C1032.69 668.242 1034.55 666.244 1037.08 666.244C1039.33 666.244 1041.19 667.756 1041.19 670.456L1041.15 671.644H1034.67C1034.78 673.66 1035.77 674.524 1037.35 674.524C1038.52 674.524 1039.33 673.894 1039.84 672.994ZM1037.08 667.828C1035.86 667.828 1034.83 668.476 1034.67 670.204H1039.23C1039.24 668.512 1038.2 667.828 1037.08 667.828ZM1047.85 666.244C1049.23 666.244 1050.13 667.162 1050.13 668.8V670.06L1048.51 670.348V669.376C1048.51 668.512 1048.21 667.918 1047.27 667.918C1046.25 667.918 1045.49 668.602 1045.49 670.42V676H1043.47V666.46H1045.49V667.738C1046.03 666.676 1047.02 666.244 1047.85 666.244Z" fill="#2A2859"/>
<rect x="941" y="693" width="139" height="46" fill="white"/>
<rect x="941" y="693" width="139" height="46" stroke="#2A2859" stroke-width="2"/>
<path d="M1119.14 662.68C1122.14 662.68 1124 664.444 1124 667.072C1124 669.7 1122.05 671.464 1119.03 671.464H1116.67V676H1114.57V662.68H1119.14ZM1119.21 669.628C1120.87 669.628 1121.82 668.746 1121.82 667.144C1121.82 665.47 1120.87 664.588 1119.19 664.588H1116.67V669.628H1119.21ZM1129.15 676.18C1126.67 676.18 1124.63 674.236 1124.63 671.176C1124.63 668.188 1126.65 666.244 1129.15 666.244C1131.65 666.244 1133.67 668.188 1133.67 671.176C1133.67 674.236 1131.63 676.18 1129.15 676.18ZM1129.15 674.47C1130.5 674.47 1131.6 673.426 1131.6 671.176C1131.6 668.908 1130.48 667.954 1129.15 667.954C1127.82 667.954 1126.7 668.908 1126.7 671.176C1126.7 673.426 1127.82 674.47 1129.15 674.47ZM1135.28 669.088C1135.28 667.468 1136.77 666.244 1139.02 666.244C1140.88 666.244 1142.12 666.91 1142.79 668.188L1141.38 669.052C1140.95 668.314 1140.09 667.864 1139.01 667.864C1137.93 667.864 1137.19 668.278 1137.19 668.962C1137.19 669.52 1137.57 669.862 1138.41 670.024L1140.01 670.348C1142.03 670.744 1143.04 671.698 1143.04 673.156C1143.04 674.956 1141.47 676.162 1139.11 676.162C1137.12 676.162 1135.69 675.406 1134.96 674.02L1136.36 673.138C1136.88 674.02 1137.8 674.524 1139.06 674.524C1140.28 674.524 1141.11 674.038 1141.11 673.246C1141.11 672.598 1140.72 672.238 1139.83 672.058L1138.07 671.716C1136.27 671.374 1135.28 670.456 1135.28 669.088ZM1147.64 673.048C1147.64 674.11 1148.28 674.434 1148.95 674.434C1149.47 674.434 1149.89 674.218 1150.3 673.804L1151.16 675.1C1150.44 675.82 1149.65 676.162 1148.63 676.162C1146.97 676.162 1145.62 675.154 1145.62 673.174V668.026H1143.95V666.46H1145.62V664.336L1147.64 663.418V666.46H1151V668.026H1147.64V673.048ZM1152.14 669.088C1152.14 667.468 1153.64 666.244 1155.89 666.244C1157.74 666.244 1158.98 666.91 1159.65 668.188L1158.24 669.052C1157.81 668.314 1156.95 667.864 1155.87 667.864C1154.79 667.864 1154.05 668.278 1154.05 668.962C1154.05 669.52 1154.43 669.862 1155.27 670.024L1156.88 670.348C1158.89 670.744 1159.9 671.698 1159.9 673.156C1159.9 674.956 1158.33 676.162 1155.98 676.162C1153.98 676.162 1152.56 675.406 1151.82 674.02L1153.22 673.138C1153.74 674.02 1154.66 674.524 1155.92 674.524C1157.15 674.524 1157.97 674.038 1157.97 673.246C1157.97 672.598 1157.58 672.238 1156.7 672.058L1154.93 671.716C1153.13 671.374 1152.14 670.456 1152.14 669.088ZM1164.5 673.048C1164.5 674.11 1165.15 674.434 1165.81 674.434C1166.33 674.434 1166.75 674.218 1167.16 673.804L1168.03 675.1C1167.31 675.82 1166.51 676.162 1165.49 676.162C1163.83 676.162 1162.48 675.154 1162.48 673.174V668.026H1160.81V666.46H1162.48V664.336L1164.5 663.418V666.46H1167.86V668.026H1164.5V673.048ZM1175.87 672.994L1177.23 673.786C1176.69 674.974 1175.43 676.162 1173.26 676.162C1170.43 676.162 1168.72 674.074 1168.72 671.14C1168.72 668.242 1170.57 666.244 1173.11 666.244C1175.36 666.244 1177.22 667.756 1177.22 670.456L1177.18 671.644H1170.7C1170.81 673.66 1171.8 674.524 1173.38 674.524C1174.55 674.524 1175.36 673.894 1175.87 672.994ZM1173.11 667.828C1171.89 667.828 1170.86 668.476 1170.7 670.204H1175.25C1175.27 668.512 1174.23 667.828 1173.11 667.828ZM1185.86 662.68H1187.87V676H1185.86V674.272C1185.12 675.604 1183.97 676.144 1182.87 676.144C1180.57 676.144 1178.91 674.164 1178.91 671.266C1178.91 668.26 1180.58 666.262 1183.1 666.262C1184.18 666.262 1185.26 666.748 1185.86 667.918V662.68ZM1183.41 674.38C1184.87 674.38 1185.86 673.39 1185.86 671.158C1185.86 668.944 1184.89 667.882 1183.41 667.882C1182.02 667.882 1181 668.998 1181 671.158C1181 673.3 1182.02 674.38 1183.41 674.38Z" fill="#2A2859"/>
<rect x="1114" y="693" width="398" height="46" fill="white"/>
<rect x="1114" y="693" width="398" height="46" stroke="#2A2859" stroke-width="2"/>
</svg>
