<svg width="1600" height="266" viewBox="0 0 1600 266" fill="none" xmlns="http://www.w3.org/2000/svg">
<g clip-path="url(#clip0_5668_186441)">
<rect width="1600" height="266" fill="white"/>
<g clip-path="url(#clip1_5668_186441)">
<rect width="1600" height="2433" transform="translate(0 -1506)" fill="white"/>
<path d="M170.26 1.64H162.434V3.152H165.528V12H167.166V3.152H170.26V1.64ZM172.154 3.348C172.77 3.348 173.246 2.872 173.246 2.242C173.246 1.612 172.77 1.136 172.154 1.136C171.538 1.136 171.048 1.612 171.048 2.242C171.048 2.872 171.538 3.348 172.154 3.348ZM171.37 12H172.938V4.58H171.37V12ZM183.31 4.412C182.316 4.412 181.532 4.902 181.028 5.882C180.706 4.958 179.964 4.412 178.83 4.412C177.934 4.412 177.206 4.832 176.702 5.63V4.58H175.134V12H176.702V7.982C176.702 6.526 177.248 5.77 178.326 5.77C179.138 5.77 179.6 6.218 179.6 7.198V12H181.168V7.982C181.168 6.526 181.714 5.77 182.806 5.77C183.618 5.77 184.08 6.218 184.08 7.198V12H185.648V6.932C185.648 5.378 184.794 4.412 183.31 4.412ZM192.841 9.662C192.449 10.362 191.819 10.852 190.909 10.852C189.677 10.852 188.907 10.18 188.823 8.612H193.863L193.891 7.688C193.891 5.588 192.449 4.412 190.699 4.412C188.725 4.412 187.283 5.966 187.283 8.22C187.283 10.502 188.613 12.126 190.811 12.126C192.505 12.126 193.485 11.202 193.905 10.278L192.841 9.662ZM190.699 5.644C191.567 5.644 192.379 6.176 192.365 7.492H188.823C188.949 6.148 189.747 5.644 190.699 5.644ZM199.517 4.426C198.663 4.426 197.767 4.846 197.193 5.882V4.58H195.625V14.94H197.193V10.838C197.669 11.748 198.495 12.112 199.335 12.112C201.295 12.112 202.597 10.544 202.597 8.22C202.597 5.952 201.309 4.426 199.517 4.426ZM199.097 10.824C197.949 10.824 197.193 9.998 197.193 8.276C197.193 6.554 197.949 5.77 199.097 5.77C200.175 5.77 200.973 6.624 200.973 8.29C200.973 9.956 200.175 10.824 199.097 10.824ZM207.604 4.412C206.96 4.412 206.19 4.748 205.77 5.574V4.58H204.202V12H205.77V7.66C205.77 6.246 206.358 5.714 207.156 5.714C207.884 5.714 208.122 6.176 208.122 6.848V7.604L209.382 7.38V6.4C209.382 5.126 208.682 4.412 207.604 4.412ZM210.725 1.36V3.25H212.643V1.36H210.725ZM210.907 12H212.475V4.58H210.907V12ZM214.279 6.624C214.279 7.688 215.049 8.402 216.449 8.668L217.821 8.934C218.507 9.074 218.815 9.354 218.815 9.858C218.815 10.474 218.171 10.852 217.219 10.852C216.239 10.852 215.525 10.46 215.119 9.774L214.027 10.46C214.601 11.538 215.707 12.126 217.261 12.126C219.095 12.126 220.313 11.188 220.313 9.788C220.313 8.654 219.529 7.912 217.961 7.604L216.715 7.352C216.057 7.226 215.763 6.96 215.763 6.526C215.763 5.994 216.337 5.672 217.177 5.672C218.017 5.672 218.689 6.022 219.025 6.596L220.117 5.924C219.599 4.93 218.633 4.412 217.191 4.412C215.441 4.412 214.279 5.364 214.279 6.624ZM223.38 7.17C224.052 7.17 224.556 6.652 224.556 5.994C224.556 5.336 224.052 4.818 223.38 4.818C222.708 4.818 222.204 5.336 222.204 5.994C222.204 6.652 222.708 7.17 223.38 7.17ZM223.38 12.098C224.052 12.098 224.556 11.58 224.556 10.922C224.556 10.264 224.052 9.746 223.38 9.746C222.708 9.746 222.204 10.264 222.204 10.922C222.204 11.58 222.708 12.098 223.38 12.098Z" fill="#2A2859"/>
<path d="M235.788 5.336C234.836 5.336 233.94 5.686 233.268 6.316L233.548 2.536H238.28V1.64H232.722L232.372 7.072L233.142 7.366C234.052 6.512 234.696 6.204 235.704 6.204C237.146 6.204 238.112 7.156 238.112 8.612C238.112 10.068 237.006 11.244 235.396 11.244C234.15 11.244 233.226 10.74 232.456 9.62L231.728 10.208C232.708 11.608 233.996 12.112 235.284 12.112C237.594 12.112 239.064 10.558 239.064 8.556C239.064 6.694 237.706 5.336 235.788 5.336ZM244.435 12.112C246.479 12.112 248.215 10.18 248.215 6.82C248.215 3.46 246.493 1.528 244.435 1.528C242.377 1.528 240.655 3.46 240.655 6.82C240.655 10.18 242.391 12.112 244.435 12.112ZM244.435 11.188C242.895 11.188 241.635 9.914 241.635 6.82C241.635 3.796 242.881 2.452 244.435 2.452C245.989 2.452 247.235 3.796 247.235 6.82C247.235 9.914 245.975 11.188 244.435 11.188ZM252.914 12.112C255.616 12.112 256.806 9.83 256.806 6.792C256.806 3.544 255.42 1.528 253.11 1.528C250.828 1.528 249.694 3.264 249.694 4.888C249.694 7.1 251.276 8.192 252.858 8.192C254.062 8.192 255.336 7.492 255.854 6.036C256.064 9.326 255.056 11.244 252.928 11.244C252.004 11.244 251.038 10.796 250.632 9.83L249.778 10.25C250.282 11.384 251.472 12.112 252.914 12.112ZM252.97 7.324C251.752 7.324 250.646 6.54 250.646 4.86C250.646 3.236 251.794 2.396 253.026 2.396C254.272 2.396 255.434 3.264 255.434 4.888C255.434 6.512 254.244 7.324 252.97 7.324ZM259.713 10.32C259.195 10.32 258.817 10.698 258.817 11.188C258.817 11.734 259.209 12.056 259.713 12.056C259.825 12.056 259.923 12.042 259.993 12.028C260.105 13.008 259.475 13.596 258.817 14.184L259.153 14.576C260.371 13.624 260.749 12.7 260.749 11.776C260.749 10.824 260.301 10.32 259.713 10.32ZM262.015 6.568V7.464H265.375V6.568H262.015Z" fill="#2A2859"/>
<path d="M165.672 86.056H172.152V88H163.566V74.68H172.044V76.624H165.672V80.35H170.586V82.294H165.672V86.056ZM176.487 85.048C176.487 86.11 177.135 86.434 177.801 86.434C178.323 86.434 178.737 86.218 179.151 85.804L180.015 87.1C179.295 87.82 178.503 88.162 177.477 88.162C175.821 88.162 174.471 87.154 174.471 85.174V80.026H172.797V78.46H174.471V76.336L176.487 75.418V78.46H179.853V80.026H176.487V85.048ZM189.183 88H187.329C187.185 87.514 187.095 86.938 187.059 86.2C186.609 87.19 185.601 88.162 183.945 88.162C182.217 88.162 180.993 86.992 180.993 85.336C180.993 83.266 182.829 82.24 184.881 82.24C185.529 82.24 186.141 82.294 186.807 82.474V81.574C186.807 80.548 186.159 79.882 184.989 79.882C183.891 79.882 183.117 80.476 182.757 81.592L181.047 81.07C181.731 79.054 183.369 78.244 185.079 78.244C187.617 78.244 188.769 79.738 188.769 81.556V85.246C188.769 86.38 188.949 87.388 189.183 88ZM186.807 84.058V83.842C186.231 83.644 185.673 83.572 185.079 83.572C183.891 83.572 182.973 84.112 182.973 85.156C182.973 86.038 183.603 86.596 184.557 86.596C185.529 86.596 186.807 86.02 186.807 84.058ZM196.62 78.262C198.924 78.262 200.58 80.224 200.58 83.14C200.58 86.128 198.906 88.144 196.386 88.144C195.288 88.144 194.226 87.658 193.614 86.47V88H191.598V74.68H193.614V80.17C194.352 78.82 195.522 78.262 196.62 78.262ZM196.08 86.488C197.466 86.488 198.492 85.372 198.492 83.23C198.492 81.088 197.466 79.99 196.08 79.99C194.604 79.99 193.614 80.998 193.614 83.212C193.614 85.426 194.604 86.488 196.08 86.488ZM206.43 87.946C206.052 88.054 205.674 88.108 205.278 88.108C203.46 88.108 202.596 87.028 202.596 85.282V74.68H204.612V85.138C204.612 85.966 205.098 86.344 205.836 86.344C206.016 86.344 206.214 86.326 206.43 86.272V87.946ZM214.696 84.994L216.064 85.786C215.524 86.974 214.264 88.162 212.086 88.162C209.26 88.162 207.55 86.074 207.55 83.14C207.55 80.242 209.404 78.244 211.942 78.244C214.192 78.244 216.046 79.756 216.046 82.456L216.01 83.644H209.53C209.638 85.66 210.628 86.524 212.212 86.524C213.382 86.524 214.192 85.894 214.696 84.994ZM211.942 79.828C210.718 79.828 209.692 80.476 209.53 82.204H214.084C214.102 80.512 213.058 79.828 211.942 79.828ZM222.706 78.244C224.092 78.244 224.992 79.162 224.992 80.8V82.06L223.372 82.348V81.376C223.372 80.512 223.066 79.918 222.13 79.918C221.104 79.918 220.348 80.602 220.348 82.42V88H218.332V78.46H220.348V79.738C220.888 78.676 221.878 78.244 222.706 78.244ZM228.017 76.876C227.225 76.876 226.595 76.264 226.595 75.454C226.595 74.644 227.225 74.032 228.017 74.032C228.809 74.032 229.421 74.644 229.421 75.454C229.421 76.264 228.809 76.876 228.017 76.876ZM227.009 88V78.46H229.025V88H227.009ZM236.713 78.244C238.657 78.244 239.809 79.504 239.809 81.574V88H237.793V81.898C237.793 80.584 237.163 79.99 236.065 79.99C234.643 79.99 233.923 80.98 233.923 82.834V88H231.907V78.46H233.923V79.828C234.571 78.82 235.525 78.244 236.713 78.244ZM251.697 80.026H249.699V80.242C250.023 80.692 250.185 81.214 250.185 81.754C250.185 83.482 248.853 85.21 246.081 85.21H245.613C244.641 85.21 244.011 85.534 244.011 86.11C244.011 86.506 244.317 86.794 244.929 86.794H248.907C250.545 86.794 251.481 87.64 251.481 88.936C251.481 90.898 249.483 92.032 246.297 92.032C243.507 92.032 241.635 91.33 241.149 89.476L243.111 89.098C243.561 90.25 244.605 90.556 246.351 90.556C248.223 90.556 249.555 90.052 249.555 89.17C249.555 88.756 249.321 88.45 248.673 88.45H244.335C242.841 88.45 242.067 87.64 242.067 86.632C242.067 85.66 242.931 84.886 244.119 84.652C242.805 84.076 242.157 82.852 242.157 81.7C242.157 79.99 243.543 78.244 246.189 78.244C247.359 78.244 248.277 78.658 248.817 79.252V78.46H251.697V80.026ZM246.189 83.752C247.575 83.752 248.223 82.78 248.223 81.736C248.223 80.692 247.575 79.738 246.189 79.738C244.821 79.738 244.155 80.692 244.155 81.736C244.155 82.78 244.821 83.752 246.189 83.752ZM252.29 81.088C252.29 79.468 253.784 78.244 256.034 78.244C257.888 78.244 259.13 78.91 259.796 80.188L258.392 81.052C257.96 80.314 257.096 79.864 256.016 79.864C254.936 79.864 254.198 80.278 254.198 80.962C254.198 81.52 254.576 81.862 255.422 82.024L257.024 82.348C259.04 82.744 260.048 83.698 260.048 85.156C260.048 86.956 258.482 88.162 256.124 88.162C254.126 88.162 252.704 87.406 251.966 86.02L253.37 85.138C253.892 86.02 254.81 86.524 256.07 86.524C257.294 86.524 258.122 86.038 258.122 85.246C258.122 84.598 257.726 84.238 256.844 84.058L255.08 83.716C253.28 83.374 252.29 82.456 252.29 81.088ZM268.133 88L265.235 83.626L264.137 84.706V88H262.121V74.68H264.137V82.42L267.989 78.46H270.473L266.567 82.312L270.545 88H268.133ZM275.513 88.18C273.029 88.18 270.995 86.236 270.995 83.176C270.995 80.188 273.011 78.244 275.513 78.244C278.015 78.244 280.031 80.188 280.031 83.176C280.031 86.236 277.997 88.18 275.513 88.18ZM275.513 86.47C276.863 86.47 277.961 85.426 277.961 83.176C277.961 80.908 276.845 79.954 275.513 79.954C274.181 79.954 273.065 80.908 273.065 83.176C273.065 85.426 274.181 86.47 275.513 86.47ZM281.643 81.088C281.643 79.468 283.137 78.244 285.387 78.244C287.241 78.244 288.483 78.91 289.149 80.188L287.745 81.052C287.313 80.314 286.449 79.864 285.369 79.864C284.289 79.864 283.551 80.278 283.551 80.962C283.551 81.52 283.929 81.862 284.775 82.024L286.377 82.348C288.393 82.744 289.401 83.698 289.401 85.156C289.401 86.956 287.835 88.162 285.477 88.162C283.479 88.162 282.057 87.406 281.319 86.02L282.723 85.138C283.245 86.02 284.163 86.524 285.423 86.524C286.647 86.524 287.475 86.038 287.475 85.246C287.475 84.598 287.079 84.238 286.197 84.058L284.433 83.716C282.633 83.374 281.643 82.456 281.643 81.088ZM293.999 85.048C293.999 86.11 294.647 86.434 295.313 86.434C295.835 86.434 296.249 86.218 296.663 85.804L297.527 87.1C296.807 87.82 296.015 88.162 294.989 88.162C293.333 88.162 291.983 87.154 291.983 85.174V80.026H290.309V78.46H291.983V76.336L293.999 75.418V78.46H297.365V80.026H293.999V85.048ZM304.078 78.244C306.022 78.244 307.174 79.504 307.174 81.574V88H305.158V81.898C305.158 80.584 304.528 79.99 303.43 79.99C302.008 79.99 301.288 80.98 301.288 82.834V88H299.272V78.46H301.288V79.828C301.936 78.82 302.89 78.244 304.078 78.244ZM317.587 88H315.733C315.589 87.514 315.499 86.938 315.463 86.2C315.013 87.19 314.005 88.162 312.349 88.162C310.621 88.162 309.397 86.992 309.397 85.336C309.397 83.266 311.233 82.24 313.285 82.24C313.933 82.24 314.545 82.294 315.211 82.474V81.574C315.211 80.548 314.563 79.882 313.393 79.882C312.295 79.882 311.521 80.476 311.161 81.592L309.451 81.07C310.135 79.054 311.773 78.244 313.483 78.244C316.021 78.244 317.173 79.738 317.173 81.556V85.246C317.173 86.38 317.353 87.388 317.587 88ZM315.211 84.058V83.842C314.635 83.644 314.077 83.572 313.483 83.572C312.295 83.572 311.377 84.112 311.377 85.156C311.377 86.038 312.007 86.596 312.961 86.596C313.933 86.596 315.211 86.02 315.211 84.058ZM326.074 74.68H328.09V88H326.074V86.272C325.336 87.604 324.184 88.144 323.086 88.144C320.782 88.144 319.126 86.164 319.126 83.266C319.126 80.26 320.8 78.262 323.32 78.262C324.4 78.262 325.48 78.748 326.074 79.918V74.68ZM323.626 86.38C325.084 86.38 326.074 85.39 326.074 83.158C326.074 80.944 325.102 79.882 323.626 79.882C322.24 79.882 321.214 80.998 321.214 83.158C321.214 85.3 322.24 86.38 323.626 86.38ZM337.287 84.994L338.655 85.786C338.115 86.974 336.855 88.162 334.677 88.162C331.851 88.162 330.141 86.074 330.141 83.14C330.141 80.242 331.995 78.244 334.533 78.244C336.783 78.244 338.637 79.756 338.637 82.456L338.601 83.644H332.121C332.229 85.66 333.219 86.524 334.803 86.524C335.973 86.524 336.783 85.894 337.287 84.994ZM334.533 79.828C333.309 79.828 332.283 80.476 332.121 82.204H336.675C336.693 80.512 335.649 79.828 334.533 79.828ZM345.298 78.244C346.684 78.244 347.584 79.162 347.584 80.8V82.06L345.964 82.348V81.376C345.964 80.512 345.658 79.918 344.722 79.918C343.696 79.918 342.94 80.602 342.94 82.42V88H340.924V78.46H342.94V79.738C343.48 78.676 344.47 78.244 345.298 78.244Z" fill="#2A2859"/>
<path d="M185 148C185 143.029 189.029 139 194 139C198.971 139 203 143.029 203 148C203 152.971 198.971 157 194 157C189.029 157 185 152.971 185 148Z" fill="white" stroke="#1F42AA" stroke-width="6"/>
<path d="M215.152 145.36C215.152 143.328 217.008 142.016 219.2 142.016C221.104 142.016 222.496 142.784 223.216 144.304L221.968 144.944C221.472 143.888 220.4 143.28 219.184 143.28C217.648 143.28 216.592 144.032 216.592 145.232C216.592 146.224 217.184 146.848 218.48 147.088L220.32 147.408C222.256 147.744 223.632 148.784 223.632 150.608C223.632 152.512 222.032 154.144 219.344 154.144C217.312 154.144 215.712 153.44 214.816 151.696L216.064 151.04C216.832 152.528 218.144 152.864 219.36 152.864C221.152 152.864 222.176 151.872 222.176 150.672C222.176 149.424 221.344 149.008 220.032 148.768L218.192 148.448C216.448 148.144 215.152 147.152 215.152 145.36ZM231.483 151.488L232.459 152.032C232.011 153.088 230.939 154.144 229.035 154.144C226.587 154.144 225.131 152.32 225.131 149.664C225.131 147.136 226.683 145.36 228.907 145.36C230.795 145.36 232.411 146.688 232.411 149.04L232.379 150.016H226.507C226.603 152.096 227.611 152.976 229.147 152.976C230.315 152.976 231.067 152.304 231.483 151.488ZM228.907 146.512C227.707 146.512 226.667 147.136 226.507 148.944H231.067C231.083 147.232 230.043 146.512 228.907 146.512ZM243.276 145.36C244.924 145.36 245.884 146.416 245.884 148.192V154H244.508V148.4C244.508 147.136 243.9 146.592 242.876 146.592C241.484 146.592 240.86 147.616 240.86 149.296V154H239.484V148.4C239.484 147.136 238.876 146.592 237.836 146.592C236.46 146.592 235.836 147.616 235.836 149.296V154H234.46V145.52H235.836V146.784C236.38 145.856 237.228 145.36 238.252 145.36C239.516 145.36 240.38 145.984 240.7 147.072C241.228 145.952 242.172 145.36 243.276 145.36ZM254.115 151.488L255.091 152.032C254.643 153.088 253.571 154.144 251.667 154.144C249.219 154.144 247.763 152.32 247.763 149.664C247.763 147.136 249.315 145.36 251.539 145.36C253.427 145.36 255.043 146.688 255.043 149.04L255.011 150.016H249.139C249.235 152.096 250.243 152.976 251.779 152.976C252.947 152.976 253.699 152.304 254.115 151.488ZM251.539 146.512C250.339 146.512 249.299 147.136 249.139 148.944H253.699C253.715 147.232 252.675 146.512 251.539 146.512ZM256.659 147.776C256.659 146.4 257.955 145.36 259.827 145.36C261.395 145.36 262.547 146.048 262.995 147.168L261.955 147.696C261.603 146.944 260.835 146.528 259.795 146.528C258.707 146.528 257.987 146.96 257.987 147.68C257.987 148.304 258.387 148.672 259.299 148.864L260.531 149.104C262.371 149.472 263.251 150.288 263.251 151.568C263.251 153.088 261.907 154.128 259.923 154.128C258.195 154.128 256.963 153.456 256.355 152.208L257.411 151.648C257.843 152.512 258.691 152.976 259.891 152.976C261.107 152.976 261.923 152.448 261.923 151.648C261.923 150.944 261.507 150.56 260.531 150.352L259.075 150.064C257.507 149.744 256.659 148.944 256.659 147.776ZM266.953 151.68C266.953 152.656 267.545 152.944 268.089 152.944C268.585 152.944 268.937 152.752 269.321 152.352L269.977 153.2C269.385 153.856 268.729 154.128 267.913 154.128C266.633 154.128 265.577 153.312 265.577 151.712V146.624H264.025V145.52H265.577V143.664L266.953 142.96V145.52H269.801V146.624H266.953V151.68ZM276.936 151.488L277.912 152.032C277.464 153.088 276.392 154.144 274.488 154.144C272.04 154.144 270.584 152.32 270.584 149.664C270.584 147.136 272.136 145.36 274.36 145.36C276.248 145.36 277.864 146.688 277.864 149.04L277.832 150.016H271.96C272.056 152.096 273.064 152.976 274.6 152.976C275.768 152.976 276.52 152.304 276.936 151.488ZM274.36 146.512C273.16 146.512 272.12 147.136 271.96 148.944H276.52C276.536 147.232 275.496 146.512 274.36 146.512ZM283.305 145.36C284.457 145.36 285.257 146.128 285.257 147.584V148.528L284.073 148.752V147.904C284.073 147.088 283.801 146.544 282.953 146.544C281.993 146.544 281.289 147.216 281.289 148.896V154H279.913V145.52H281.289V146.608C281.753 145.744 282.553 145.36 283.305 145.36ZM289.813 153.968C289.525 154.032 289.269 154.08 288.981 154.08C287.541 154.08 286.853 153.2 286.853 151.824V142.16H288.229V151.76C288.229 152.496 288.629 152.848 289.301 152.848C289.461 152.848 289.637 152.832 289.813 152.784V153.968ZM294.68 144.672C293.592 144.672 292.712 143.888 292.712 142.8C292.712 141.728 293.592 140.944 294.68 140.944C295.752 140.944 296.632 141.728 296.632 142.8C296.632 143.888 295.752 144.672 294.68 144.672ZM294.68 141.76C294.088 141.76 293.624 142.128 293.624 142.8C293.624 143.504 294.088 143.856 294.68 143.856C295.256 143.856 295.72 143.504 295.72 142.8C295.72 142.128 295.256 141.76 294.68 141.76ZM298.088 154H296.824C296.696 153.552 296.6 153.024 296.6 152.368C296.168 153.312 295.16 154.144 293.752 154.144C292.232 154.144 291.112 153.136 291.112 151.664C291.112 149.856 292.696 148.944 294.488 148.944C295.128 148.944 295.752 149.008 296.392 149.216V148.256C296.392 147.232 295.768 146.544 294.552 146.544C293.544 146.544 292.728 147.04 292.328 148.208L291.144 147.84C291.768 146.048 293.128 145.36 294.632 145.36C296.792 145.36 297.736 146.656 297.736 148.176V151.584C297.736 152.56 297.896 153.44 298.088 154ZM296.392 150.496V150.288C295.8 150.048 295.192 149.984 294.6 149.984C293.4 149.984 292.472 150.528 292.472 151.568C292.472 152.496 293.128 153.024 294.088 153.024C295.096 153.024 296.392 152.416 296.392 150.496ZM304.09 145.36C305.802 145.36 306.81 146.432 306.81 148.32V154H305.434V148.528C305.434 147.136 304.794 146.592 303.69 146.592C302.298 146.592 301.626 147.632 301.626 149.296V154H300.25V145.52H301.626V146.784C302.17 145.872 303.05 145.36 304.09 145.36Z" fill="#1F42AA"/>
<path d="M495.731 152.8H498.339V154H491.571V152.8H494.323V143.76L491.715 145.504V144.032L494.467 142.16H495.731V152.8ZM508.715 154.128C506.347 154.128 504.331 151.952 504.331 148.08C504.331 144.208 506.331 142.016 508.715 142.016C511.099 142.016 513.099 144.208 513.099 148.08C513.099 151.952 511.083 154.128 508.715 154.128ZM508.715 152.784C510.363 152.784 511.627 151.392 511.627 148.08C511.627 144.816 510.363 143.376 508.715 143.376C507.067 143.376 505.803 144.816 505.803 148.08C505.803 151.392 507.067 152.784 508.715 152.784ZM518.749 154.128C516.381 154.128 514.365 151.952 514.365 148.08C514.365 144.208 516.365 142.016 518.749 142.016C521.133 142.016 523.133 144.208 523.133 148.08C523.133 151.952 521.117 154.128 518.749 154.128ZM518.749 152.784C520.397 152.784 521.661 151.392 521.661 148.08C521.661 144.816 520.397 143.376 518.749 143.376C517.101 143.376 515.837 144.816 515.837 148.08C515.837 151.392 517.101 152.784 518.749 152.784ZM529.216 146.352C531.408 146.352 532.96 147.888 532.96 150.032C532.96 152.352 531.248 154.128 528.544 154.128C527.024 154.128 525.552 153.552 524.416 151.952L525.456 151.136C526.32 152.352 527.312 152.88 528.64 152.88C530.352 152.88 531.52 151.664 531.52 150.128C531.52 148.528 530.448 147.552 528.96 147.552C527.872 147.552 527.168 147.888 526.24 148.784L525.152 148.368L525.536 142.16H532.048V143.456H526.72L526.432 147.44C527.152 146.736 528.144 146.352 529.216 146.352ZM544.248 154L541.336 149.92L540.328 150.912V154H538.952V142.16H540.328V149.328L544.12 145.52H545.864L542.264 149.024L545.928 154H544.248ZM550.753 145.36C551.905 145.36 552.705 146.128 552.705 147.584V148.528L551.521 148.752V147.904C551.521 147.088 551.249 146.544 550.401 146.544C549.441 146.544 548.737 147.216 548.737 148.896V154H547.361V145.52H548.737V146.608C549.201 145.744 550.001 145.36 550.753 145.36Z" fill="#1F42AA"/>
<rect x="163.5" y="107.5" width="408.667" height="81" stroke="#1F42AA" stroke-width="3"/>
<rect x="614.667" y="137" width="22" height="22" rx="11" stroke="#2A2859" stroke-width="2"/>
<path d="M648.195 152.944H654.307V154H647.075V142.16H654.243V143.216H648.195V147.536H652.899V148.592H648.195V152.944ZM659.676 145.392C661.372 145.392 662.364 146.432 662.364 148.336V154H661.276V148.496C661.276 146.96 660.572 146.384 659.388 146.384C657.9 146.384 657.212 147.536 657.212 149.232V154H656.124V145.52H657.212V146.832C657.724 145.904 658.652 145.392 659.676 145.392ZM672.399 146.416H670.575V146.72C670.991 147.232 671.215 147.872 671.215 148.496C671.215 150.048 670.095 151.632 667.711 151.632H667.343C666.383 151.632 665.695 152 665.695 152.56C665.695 152.992 666.031 153.296 666.735 153.296H670.175C671.551 153.296 672.255 153.968 672.255 155.024C672.255 156.704 670.319 157.584 667.935 157.584C665.791 157.584 664.303 156.896 663.791 155.408L664.671 155.008C665.263 156.4 666.511 156.672 667.935 156.672C669.695 156.672 671.167 156.144 671.167 155.12C671.167 154.64 670.911 154.288 670.143 154.288H666.495C665.311 154.288 664.607 153.728 664.607 152.848C664.607 152.096 665.231 151.44 666.271 151.168C665.151 150.72 664.527 149.536 664.527 148.496C664.527 146.976 665.663 145.392 667.903 145.392C668.783 145.392 669.455 145.68 669.967 146.112V145.52H672.399V146.416ZM667.887 150.736C669.391 150.736 670.143 149.696 670.143 148.496C670.143 147.312 669.391 146.32 667.887 146.32C666.367 146.32 665.599 147.328 665.599 148.496C665.599 149.68 666.367 150.736 667.887 150.736ZM679.575 154H678.583C678.455 153.536 678.359 152.976 678.359 152.336C677.927 153.328 676.823 154.128 675.447 154.128C673.943 154.128 672.807 153.152 672.807 151.696C672.807 149.952 674.375 149.04 676.119 149.04C676.807 149.04 677.479 149.12 678.167 149.36V148.24C678.167 147.136 677.495 146.384 676.183 146.384C675.127 146.384 674.231 146.848 673.783 148.144L672.823 147.856C673.463 146.064 674.759 145.392 676.247 145.392C678.343 145.392 679.223 146.656 679.223 148.112V151.6C679.223 152.56 679.383 153.424 679.575 154ZM678.167 150.48V150.288C677.511 150.016 676.839 149.936 676.183 149.936C674.903 149.936 673.895 150.512 673.895 151.632C673.895 152.656 674.615 153.2 675.639 153.2C676.743 153.2 678.167 152.544 678.167 150.48ZM685.326 145.392C687.022 145.392 688.014 146.432 688.014 148.336V154H686.926V148.496C686.926 146.96 686.222 146.384 685.038 146.384C683.55 146.384 682.862 147.536 682.862 149.232V154H681.774V145.52H682.862V146.832C683.374 145.904 684.302 145.392 685.326 145.392ZM698.049 146.416H696.225V146.72C696.641 147.232 696.865 147.872 696.865 148.496C696.865 150.048 695.745 151.632 693.361 151.632H692.993C692.033 151.632 691.345 152 691.345 152.56C691.345 152.992 691.681 153.296 692.385 153.296H695.825C697.201 153.296 697.905 153.968 697.905 155.024C697.905 156.704 695.969 157.584 693.585 157.584C691.441 157.584 689.953 156.896 689.441 155.408L690.321 155.008C690.913 156.4 692.161 156.672 693.585 156.672C695.345 156.672 696.817 156.144 696.817 155.12C696.817 154.64 696.561 154.288 695.793 154.288H692.145C690.961 154.288 690.257 153.728 690.257 152.848C690.257 152.096 690.881 151.44 691.921 151.168C690.801 150.72 690.177 149.536 690.177 148.496C690.177 146.976 691.313 145.392 693.553 145.392C694.433 145.392 695.105 145.68 695.617 146.112V145.52H698.049V146.416ZM693.537 150.736C695.041 150.736 695.793 149.696 695.793 148.496C695.793 147.312 695.041 146.32 693.537 146.32C692.017 146.32 691.249 147.328 691.249 148.496C691.249 149.68 692.017 150.736 693.537 150.736ZM698.817 147.728C698.817 146.384 700.081 145.392 701.857 145.392C703.393 145.392 704.577 146.128 704.929 147.248L704.033 147.6C703.697 146.784 702.913 146.352 701.825 146.352C700.641 146.352 699.873 146.848 699.873 147.632C699.873 148.336 700.337 148.768 701.345 148.976L702.465 149.2C704.321 149.568 705.185 150.368 705.185 151.632C705.185 153.104 703.873 154.128 701.985 154.128C700.273 154.128 699.073 153.456 698.497 152.176L699.425 151.792C699.825 152.688 700.705 153.168 701.953 153.168C703.265 153.168 704.129 152.592 704.129 151.728C704.129 150.928 703.681 150.496 702.561 150.256L701.185 149.968C699.633 149.648 698.817 148.864 698.817 147.728ZM709.783 153.968C709.527 154.032 709.319 154.064 709.079 154.064C707.751 154.064 707.127 153.232 707.127 151.984V142.16H708.215V151.984C708.215 152.704 708.599 153.072 709.271 153.072C709.447 153.072 709.623 153.056 709.783 153.008V153.968ZM714.592 144.624C713.552 144.624 712.704 143.856 712.704 142.8C712.704 141.744 713.552 140.976 714.592 140.976C715.632 140.976 716.48 141.744 716.48 142.8C716.48 143.856 715.632 144.624 714.592 144.624ZM714.592 141.712C713.984 141.712 713.504 142.096 713.504 142.8C713.504 143.52 713.984 143.888 714.592 143.888C715.2 143.888 715.68 143.52 715.68 142.8C715.68 142.096 715.2 141.712 714.592 141.712ZM717.888 154H716.896C716.768 153.536 716.672 152.976 716.672 152.336C716.24 153.328 715.136 154.128 713.76 154.128C712.256 154.128 711.12 153.152 711.12 151.696C711.12 149.952 712.688 149.04 714.432 149.04C715.12 149.04 715.792 149.12 716.48 149.36V148.24C716.48 147.136 715.808 146.384 714.496 146.384C713.44 146.384 712.544 146.848 712.096 148.144L711.136 147.856C711.776 146.064 713.072 145.392 714.56 145.392C716.656 145.392 717.536 146.656 717.536 148.112V151.6C717.536 152.56 717.696 153.424 717.888 154ZM716.48 150.48V150.288C715.824 150.016 715.152 149.936 714.496 149.936C713.216 149.936 712.208 150.512 712.208 151.632C712.208 152.656 712.928 153.2 713.952 153.2C715.056 153.2 716.48 152.544 716.48 150.48ZM723.638 145.392C725.334 145.392 726.326 146.432 726.326 148.336V154H725.238V148.496C725.238 146.96 724.534 146.384 723.35 146.384C721.862 146.384 721.174 147.536 721.174 149.232V154H720.086V145.52H721.174V146.832C721.686 145.904 722.614 145.392 723.638 145.392Z" fill="#2A2859"/>
<path d="M940.805 146.384C942.997 146.384 944.549 147.936 944.549 150.064C944.549 152.352 942.869 154.128 940.229 154.128C938.757 154.128 937.285 153.552 936.165 151.952L936.997 151.28C937.877 152.56 938.933 153.136 940.357 153.136C942.197 153.136 943.461 151.792 943.461 150.128C943.461 148.464 942.357 147.376 940.709 147.376C939.557 147.376 938.821 147.728 937.781 148.704L936.901 148.368L937.301 142.16H943.653V143.184H938.245L937.925 147.504C938.693 146.784 939.717 146.384 940.805 146.384ZM952.312 147.744C953.496 148.144 954.424 149.136 954.424 150.672C954.424 152.576 952.84 154.128 950.312 154.128C948.792 154.128 947.32 153.552 946.2 151.952L947.032 151.28C947.912 152.56 948.92 153.136 950.408 153.136C952.232 153.136 953.336 152.032 953.336 150.672C953.336 149.696 952.936 149.12 952.36 148.768C951.896 148.496 951.48 148.368 950.712 148.368H949.128V147.408H950.344C951.304 147.408 951.672 147.264 952.104 146.928C952.584 146.544 952.872 145.936 952.872 145.2C952.872 143.888 951.88 143.024 950.28 143.024C949.032 143.024 947.976 143.6 947.4 145.12L946.44 144.784C947.256 142.832 948.648 142.032 950.344 142.032C952.744 142.032 953.928 143.616 953.928 145.168C953.928 146.32 953.256 147.28 952.312 147.744ZM960.746 154.128C958.026 154.128 956.458 151.872 956.458 148.016C956.458 144.608 958.138 142.032 961.162 142.032C962.81 142.032 963.946 142.864 964.474 144.16L963.498 144.64C963.082 143.648 962.154 143.024 961.098 143.024C958.746 143.024 957.242 145.184 957.546 148.976C958.09 147.328 959.498 146.496 960.922 146.496C962.746 146.496 964.618 147.904 964.618 150.256C964.618 152.16 963.338 154.128 960.746 154.128ZM958.026 150.288C958.026 152.128 959.306 153.136 960.81 153.136C962.314 153.136 963.53 152.144 963.53 150.288C963.53 148.72 962.346 147.52 960.778 147.52C959.354 147.52 958.026 148.448 958.026 150.288ZM975.986 154L972.866 149.792L971.826 150.784V154H970.738V142.16H971.826V149.504L975.858 145.52H977.298L973.602 149.072L977.362 154H975.986ZM981.874 145.392C982.978 145.392 983.778 146.128 983.778 147.568V148.4L982.786 148.592V147.76C982.786 146.912 982.498 146.352 981.634 146.352C980.658 146.352 979.922 147.072 979.922 148.784V154H978.834V145.52H979.922V146.576C980.37 145.776 981.122 145.392 981.874 145.392Z" fill="#2A2859"/>
<rect x="594.167" y="106.5" width="410.667" height="83" stroke="#2A2859"/>
<rect x="1046.33" y="137" width="22" height="22" rx="11" stroke="#2A2859" stroke-width="2"/>
<path d="M1078.74 154V142.16H1079.86V154H1078.74ZM1086 145.392C1087.69 145.392 1088.69 146.432 1088.69 148.336V154H1087.6V148.496C1087.6 146.96 1086.89 146.384 1085.71 146.384C1084.22 146.384 1083.53 147.536 1083.53 149.232V154H1082.45V145.52H1083.53V146.832C1084.05 145.904 1084.97 145.392 1086 145.392ZM1098.72 146.416H1096.9V146.72C1097.31 147.232 1097.54 147.872 1097.54 148.496C1097.54 150.048 1096.42 151.632 1094.03 151.632H1093.67C1092.71 151.632 1092.02 152 1092.02 152.56C1092.02 152.992 1092.35 153.296 1093.06 153.296H1096.5C1097.87 153.296 1098.58 153.968 1098.58 155.024C1098.58 156.704 1096.64 157.584 1094.26 157.584C1092.11 157.584 1090.63 156.896 1090.11 155.408L1090.99 155.008C1091.59 156.4 1092.83 156.672 1094.26 156.672C1096.02 156.672 1097.49 156.144 1097.49 155.12C1097.49 154.64 1097.23 154.288 1096.47 154.288H1092.82C1091.63 154.288 1090.93 153.728 1090.93 152.848C1090.93 152.096 1091.55 151.44 1092.59 151.168C1091.47 150.72 1090.85 149.536 1090.85 148.496C1090.85 146.976 1091.99 145.392 1094.23 145.392C1095.11 145.392 1095.78 145.68 1096.29 146.112V145.52H1098.72V146.416ZM1094.21 150.736C1095.71 150.736 1096.47 149.696 1096.47 148.496C1096.47 147.312 1095.71 146.32 1094.21 146.32C1092.69 146.32 1091.92 147.328 1091.92 148.496C1091.92 149.68 1092.69 150.736 1094.21 150.736ZM1105.37 151.6L1106.17 152.048C1105.77 153.072 1104.71 154.128 1102.83 154.128C1100.44 154.128 1099.03 152.352 1099.03 149.648C1099.03 147.168 1100.51 145.392 1102.71 145.392C1104.54 145.392 1106.11 146.704 1106.11 149.008L1106.07 149.952H1100.14C1100.23 152.208 1101.31 153.168 1102.94 153.168C1104.22 153.168 1104.97 152.432 1105.37 151.6ZM1102.71 146.352C1101.43 146.352 1100.28 147.04 1100.14 149.056H1105.03C1105.08 147.152 1103.96 146.352 1102.71 146.352ZM1111.76 145.392C1113.45 145.392 1114.45 146.432 1114.45 148.336V154H1113.36V148.496C1113.36 146.96 1112.65 146.384 1111.47 146.384C1109.98 146.384 1109.29 147.536 1109.29 149.232V154H1108.21V145.52H1109.29V146.832C1109.81 145.904 1110.73 145.392 1111.76 145.392ZM1126.55 151.6L1127.35 152.048C1126.95 153.072 1125.9 154.128 1124.01 154.128C1121.62 154.128 1120.22 152.352 1120.22 149.648C1120.22 147.168 1121.69 145.392 1123.9 145.392C1125.72 145.392 1127.29 146.704 1127.29 149.008L1127.26 149.952H1121.32C1121.42 152.208 1122.49 153.168 1124.12 153.168C1125.4 153.168 1126.15 152.432 1126.55 151.6ZM1123.9 146.352C1122.62 146.352 1121.46 147.04 1121.32 149.056H1126.22C1126.26 147.152 1125.14 146.352 1123.9 146.352ZM1130.93 151.888C1130.93 152.88 1131.52 153.168 1132.05 153.168C1132.56 153.168 1132.9 152.976 1133.3 152.56L1133.87 153.2C1133.31 153.856 1132.7 154.128 1131.95 154.128C1130.8 154.128 1129.84 153.36 1129.84 151.856V146.416H1128.24V145.52H1129.84V143.696L1130.93 143.056V145.52H1133.68V146.416H1130.93V151.888ZM1141.54 154H1140.55C1140.42 153.536 1140.32 152.976 1140.32 152.336C1139.89 153.328 1138.79 154.128 1137.41 154.128C1135.91 154.128 1134.77 153.152 1134.77 151.696C1134.77 149.952 1136.34 149.04 1138.08 149.04C1138.77 149.04 1139.44 149.12 1140.13 149.36V148.24C1140.13 147.136 1139.46 146.384 1138.15 146.384C1137.09 146.384 1136.19 146.848 1135.75 148.144L1134.79 147.856C1135.43 146.064 1136.72 145.392 1138.21 145.392C1140.31 145.392 1141.19 146.656 1141.19 148.112V151.6C1141.19 152.56 1141.35 153.424 1141.54 154ZM1140.13 150.48V150.288C1139.47 150.016 1138.8 149.936 1138.15 149.936C1136.87 149.936 1135.86 150.512 1135.86 151.632C1135.86 152.656 1136.58 153.2 1137.6 153.2C1138.71 153.2 1140.13 152.544 1140.13 150.48ZM1147.64 145.408C1149.8 145.408 1151.26 147.216 1151.26 149.68C1151.26 152.288 1149.79 154.128 1147.51 154.128C1146.33 154.128 1145.37 153.536 1144.86 152.464V154H1143.77V142.16H1144.86V147.104C1145.42 146.016 1146.54 145.408 1147.64 145.408ZM1147.51 153.168C1149.1 153.168 1150.14 151.952 1150.14 149.728C1150.14 147.584 1149.1 146.368 1147.53 146.368C1145.83 146.368 1144.86 147.632 1144.86 149.712C1144.86 151.92 1145.82 153.168 1147.51 153.168ZM1155.93 153.968C1155.67 154.032 1155.46 154.064 1155.22 154.064C1153.9 154.064 1153.27 153.232 1153.27 151.984V142.16H1154.36V151.984C1154.36 152.704 1154.74 153.072 1155.42 153.072C1155.59 153.072 1155.77 153.056 1155.93 153.008V153.968ZM1163.25 151.6L1164.05 152.048C1163.65 153.072 1162.6 154.128 1160.71 154.128C1158.33 154.128 1156.92 152.352 1156.92 149.648C1156.92 147.168 1158.39 145.392 1160.6 145.392C1162.42 145.392 1163.99 146.704 1163.99 149.008L1163.96 149.952H1158.02C1158.12 152.208 1159.19 153.168 1160.82 153.168C1162.1 153.168 1162.85 152.432 1163.25 151.6ZM1160.6 146.352C1159.32 146.352 1158.17 147.04 1158.02 149.056H1162.92C1162.97 147.152 1161.85 146.352 1160.6 146.352ZM1169.13 145.392C1170.23 145.392 1171.03 146.128 1171.03 147.568V148.4L1170.04 148.592V147.76C1170.04 146.912 1169.75 146.352 1168.89 146.352C1167.91 146.352 1167.18 147.072 1167.18 148.784V154H1166.09V145.52H1167.18V146.576C1167.63 145.776 1168.38 145.392 1169.13 145.392ZM1173.53 143.984C1173 143.984 1172.57 143.568 1172.57 143.024C1172.57 142.48 1173 142.064 1173.53 142.064C1174.06 142.064 1174.49 142.48 1174.49 143.024C1174.49 143.568 1174.06 143.984 1173.53 143.984ZM1172.98 154V145.52H1174.07V154H1172.98ZM1180.18 145.392C1181.88 145.392 1182.87 146.432 1182.87 148.336V154H1181.78V148.496C1181.78 146.96 1181.08 146.384 1179.89 146.384C1178.4 146.384 1177.72 147.536 1177.72 149.232V154H1176.63V145.52H1177.72V146.832C1178.23 145.904 1179.16 145.392 1180.18 145.392ZM1192.9 146.416H1191.08V146.72C1191.5 147.232 1191.72 147.872 1191.72 148.496C1191.72 150.048 1190.6 151.632 1188.22 151.632H1187.85C1186.89 151.632 1186.2 152 1186.2 152.56C1186.2 152.992 1186.54 153.296 1187.24 153.296H1190.68C1192.06 153.296 1192.76 153.968 1192.76 155.024C1192.76 156.704 1190.82 157.584 1188.44 157.584C1186.3 157.584 1184.81 156.896 1184.3 155.408L1185.18 155.008C1185.77 156.4 1187.02 156.672 1188.44 156.672C1190.2 156.672 1191.67 156.144 1191.67 155.12C1191.67 154.64 1191.42 154.288 1190.65 154.288H1187C1185.82 154.288 1185.11 153.728 1185.11 152.848C1185.11 152.096 1185.74 151.44 1186.78 151.168C1185.66 150.72 1185.03 149.536 1185.03 148.496C1185.03 146.976 1186.17 145.392 1188.41 145.392C1189.29 145.392 1189.96 145.68 1190.47 146.112V145.52H1192.9V146.416ZM1188.39 150.736C1189.9 150.736 1190.65 149.696 1190.65 148.496C1190.65 147.312 1189.9 146.32 1188.39 146.32C1186.87 146.32 1186.1 147.328 1186.1 148.496C1186.1 149.68 1186.87 150.736 1188.39 150.736ZM1193.67 147.728C1193.67 146.384 1194.94 145.392 1196.71 145.392C1198.25 145.392 1199.43 146.128 1199.78 147.248L1198.89 147.6C1198.55 146.784 1197.77 146.352 1196.68 146.352C1195.5 146.352 1194.73 146.848 1194.73 147.632C1194.73 148.336 1195.19 148.768 1196.2 148.976L1197.32 149.2C1199.18 149.568 1200.04 150.368 1200.04 151.632C1200.04 153.104 1198.73 154.128 1196.84 154.128C1195.13 154.128 1193.93 153.456 1193.35 152.176L1194.28 151.792C1194.68 152.688 1195.56 153.168 1196.81 153.168C1198.12 153.168 1198.98 152.592 1198.98 151.728C1198.98 150.928 1198.54 150.496 1197.42 150.256L1196.04 149.968C1194.49 149.648 1193.67 148.864 1193.67 147.728ZM1207.26 154L1204.14 149.792L1203.1 150.784V154H1202.01V142.16H1203.1V149.504L1207.13 145.52H1208.57L1204.88 149.072L1208.64 154H1207.26ZM1212.86 154.128C1210.76 154.128 1209.08 152.4 1209.08 149.744C1209.08 147.12 1210.74 145.392 1212.86 145.392C1214.97 145.392 1216.63 147.12 1216.63 149.744C1216.63 152.4 1214.95 154.128 1212.86 154.128ZM1212.86 153.168C1214.31 153.168 1215.51 152.016 1215.51 149.744C1215.51 147.488 1214.3 146.352 1212.86 146.352C1211.42 146.352 1210.2 147.488 1210.2 149.744C1210.2 152.016 1211.4 153.168 1212.86 153.168ZM1218.23 147.728C1218.23 146.384 1219.49 145.392 1221.27 145.392C1222.8 145.392 1223.99 146.128 1224.34 147.248L1223.44 147.6C1223.11 146.784 1222.32 146.352 1221.24 146.352C1220.05 146.352 1219.28 146.848 1219.28 147.632C1219.28 148.336 1219.75 148.768 1220.76 148.976L1221.88 149.2C1223.73 149.568 1224.6 150.368 1224.6 151.632C1224.6 153.104 1223.28 154.128 1221.4 154.128C1219.68 154.128 1218.48 153.456 1217.91 152.176L1218.84 151.792C1219.24 152.688 1220.12 153.168 1221.36 153.168C1222.68 153.168 1223.54 152.592 1223.54 151.728C1223.54 150.928 1223.09 150.496 1221.97 150.256L1220.6 149.968C1219.04 149.648 1218.23 148.864 1218.23 147.728ZM1228.08 151.888C1228.08 152.88 1228.67 153.168 1229.2 153.168C1229.71 153.168 1230.05 152.976 1230.45 152.56L1231.02 153.2C1230.46 153.856 1229.85 154.128 1229.1 154.128C1227.95 154.128 1226.99 153.36 1226.99 151.856V146.416H1225.39V145.52H1226.99V143.696L1228.08 143.056V145.52H1230.83V146.416H1228.08V151.888ZM1236.23 145.392C1237.93 145.392 1238.92 146.432 1238.92 148.336V154H1237.83V148.496C1237.83 146.96 1237.13 146.384 1235.95 146.384C1234.46 146.384 1233.77 147.536 1233.77 149.232V154H1232.68V145.52H1233.77V146.832C1234.28 145.904 1235.21 145.392 1236.23 145.392ZM1247.66 154H1246.67C1246.54 153.536 1246.44 152.976 1246.44 152.336C1246.01 153.328 1244.91 154.128 1243.53 154.128C1242.03 154.128 1240.89 153.152 1240.89 151.696C1240.89 149.952 1242.46 149.04 1244.2 149.04C1244.89 149.04 1245.56 149.12 1246.25 149.36V148.24C1246.25 147.136 1245.58 146.384 1244.27 146.384C1243.21 146.384 1242.32 146.848 1241.87 148.144L1240.91 147.856C1241.55 146.064 1242.84 145.392 1244.33 145.392C1246.43 145.392 1247.31 146.656 1247.31 148.112V151.6C1247.31 152.56 1247.47 153.424 1247.66 154ZM1246.25 150.48V150.288C1245.6 150.016 1244.92 149.936 1244.27 149.936C1242.99 149.936 1241.98 150.512 1241.98 151.632C1241.98 152.656 1242.7 153.2 1243.72 153.2C1244.83 153.2 1246.25 152.544 1246.25 150.48ZM1255.56 142.16H1256.65V154H1255.56V152.416C1255 153.504 1253.88 154.112 1252.77 154.112C1250.61 154.112 1249.16 152.304 1249.16 149.84C1249.16 147.232 1250.63 145.392 1252.9 145.392C1254.09 145.392 1255.05 145.984 1255.56 147.056V142.16ZM1252.89 153.152C1254.58 153.152 1255.56 151.888 1255.56 149.808C1255.56 147.6 1254.6 146.352 1252.9 146.352C1251.32 146.352 1250.28 147.568 1250.28 149.792C1250.28 151.936 1251.32 153.152 1252.89 153.152ZM1264.92 151.6L1265.72 152.048C1265.32 153.072 1264.26 154.128 1262.38 154.128C1259.99 154.128 1258.58 152.352 1258.58 149.648C1258.58 147.168 1260.06 145.392 1262.26 145.392C1264.09 145.392 1265.66 146.704 1265.66 149.008L1265.62 149.952H1259.69C1259.78 152.208 1260.86 153.168 1262.49 153.168C1263.77 153.168 1264.52 152.432 1264.92 151.6ZM1262.26 146.352C1260.98 146.352 1259.83 147.04 1259.69 149.056H1264.58C1264.63 147.152 1263.51 146.352 1262.26 146.352ZM1270.8 145.392C1271.9 145.392 1272.7 146.128 1272.7 147.568V148.4L1271.71 148.592V147.76C1271.71 146.912 1271.42 146.352 1270.56 146.352C1269.58 146.352 1268.84 147.072 1268.84 148.784V154H1267.76V145.52H1268.84V146.576C1269.29 145.776 1270.04 145.392 1270.8 145.392Z" fill="#2A2859"/>
<path d="M1392.12 154.128C1389.78 154.128 1387.8 151.92 1387.8 148.08C1387.8 144.24 1389.77 142.032 1392.12 142.032C1394.47 142.032 1396.44 144.24 1396.44 148.08C1396.44 151.92 1394.46 154.128 1392.12 154.128ZM1392.12 153.072C1393.88 153.072 1395.32 151.616 1395.32 148.08C1395.32 144.624 1393.9 143.088 1392.12 143.088C1390.34 143.088 1388.92 144.624 1388.92 148.08C1388.92 151.616 1390.36 153.072 1392.12 153.072ZM1407.58 154L1404.46 149.792L1403.42 150.784V154H1402.34V142.16H1403.42V149.504L1407.46 145.52H1408.9L1405.2 149.072L1408.96 154H1407.58ZM1413.47 145.392C1414.58 145.392 1415.38 146.128 1415.38 147.568V148.4L1414.38 148.592V147.76C1414.38 146.912 1414.1 146.352 1413.23 146.352C1412.26 146.352 1411.52 147.072 1411.52 148.784V154H1410.43V145.52H1411.52V146.576C1411.97 145.776 1412.72 145.392 1413.47 145.392Z" fill="#2A2859"/>
<rect x="1025.83" y="106.5" width="410.667" height="83" stroke="#2A2859"/>
<rect x="162" y="260" width="1487" height="220" fill="white"/>
<rect x="62" y="-290" width="1487" height="331" fill="white"/>
</g>
</g>
<defs>
<clipPath id="clip0_5668_186441">
<rect width="1600" height="266" fill="white"/>
</clipPath>
<clipPath id="clip1_5668_186441">
<rect width="1600" height="2433" fill="white" transform="translate(0 -1506)"/>
</clipPath>
</defs>
</svg>
