<svg width="1510" height="607" viewBox="0 0 1510 607" fill="none" xmlns="http://www.w3.org/2000/svg">
<rect width="1510" height="607" fill="white"/>
<path d="M181.672 322H179.566V308.68H187.81V310.624H181.672V314.692H186.766V316.618H181.672V322ZM195.283 313.036C196.489 313.864 197.263 315.322 197.263 317.176C197.263 320.236 195.229 322.18 192.745 322.18C192.115 322.18 191.521 322.054 190.963 321.82L190.405 322.972H189.379L190.171 321.37C189.001 320.524 188.227 319.066 188.227 317.176C188.227 314.188 190.243 312.244 192.745 312.244C193.375 312.244 193.951 312.37 194.491 312.586L195.049 311.47H196.057L195.283 313.036ZM190.297 317.176C190.297 318.292 190.567 319.12 191.017 319.66L193.717 314.152C193.429 314.026 193.087 313.954 192.745 313.954C191.413 313.954 190.297 314.908 190.297 317.176ZM192.745 320.47C194.095 320.47 195.193 319.426 195.193 317.176C195.193 316.042 194.905 315.232 194.473 314.71L191.737 320.254C192.043 320.398 192.385 320.47 192.745 320.47ZM205.732 308.68H207.748V322H205.732V320.272C204.994 321.604 203.842 322.144 202.744 322.144C200.44 322.144 198.784 320.164 198.784 317.266C198.784 314.26 200.458 312.262 202.978 312.262C204.058 312.262 205.138 312.748 205.732 313.918V308.68ZM203.284 320.38C204.742 320.38 205.732 319.39 205.732 317.158C205.732 314.944 204.76 313.882 203.284 313.882C201.898 313.882 200.872 314.998 200.872 317.158C200.872 319.3 201.898 320.38 203.284 320.38ZM209.889 315.088C209.889 313.468 211.383 312.244 213.633 312.244C215.487 312.244 216.729 312.91 217.395 314.188L215.991 315.052C215.559 314.314 214.695 313.864 213.615 313.864C212.535 313.864 211.797 314.278 211.797 314.962C211.797 315.52 212.175 315.862 213.021 316.024L214.623 316.348C216.639 316.744 217.647 317.698 217.647 319.156C217.647 320.956 216.081 322.162 213.723 322.162C211.725 322.162 210.303 321.406 209.565 320.02L210.969 319.138C211.491 320.02 212.409 320.524 213.669 320.524C214.893 320.524 215.721 320.038 215.721 319.246C215.721 318.598 215.325 318.238 214.443 318.058L212.679 317.716C210.879 317.374 209.889 316.456 209.889 315.088ZM226.079 318.994L227.447 319.786C226.907 320.974 225.647 322.162 223.469 322.162C220.643 322.162 218.933 320.074 218.933 317.14C218.933 314.242 220.787 312.244 223.325 312.244C225.575 312.244 227.429 313.756 227.429 316.456L227.393 317.644H220.913C221.021 319.66 222.011 320.524 223.595 320.524C224.765 320.524 225.575 319.894 226.079 318.994ZM223.325 313.828C222.101 313.828 221.075 314.476 220.913 316.204H225.467C225.485 314.512 224.441 313.828 223.325 313.828ZM233.55 321.946C233.172 322.054 232.794 322.108 232.398 322.108C230.58 322.108 229.716 321.028 229.716 319.282V308.68H231.732V319.138C231.732 319.966 232.218 320.344 232.956 320.344C233.136 320.344 233.334 320.326 233.55 320.272V321.946ZM234.971 315.088C234.971 313.468 236.465 312.244 238.715 312.244C240.569 312.244 241.811 312.91 242.477 314.188L241.073 315.052C240.641 314.314 239.777 313.864 238.697 313.864C237.617 313.864 236.879 314.278 236.879 314.962C236.879 315.52 237.257 315.862 238.103 316.024L239.705 316.348C241.721 316.744 242.729 317.698 242.729 319.156C242.729 320.956 241.163 322.162 238.805 322.162C236.807 322.162 235.385 321.406 234.647 320.02L236.051 319.138C236.573 320.02 237.491 320.524 238.751 320.524C239.975 320.524 240.803 320.038 240.803 319.246C240.803 318.598 240.407 318.238 239.525 318.058L237.761 317.716C235.961 317.374 234.971 316.456 234.971 315.088ZM249.608 312.244C251.552 312.244 252.704 313.504 252.704 315.574V322H250.688V315.898C250.688 314.584 250.058 313.99 248.96 313.99C247.538 313.99 246.818 314.98 246.818 316.834V322H244.802V312.46H246.818V313.828C247.466 312.82 248.42 312.244 249.608 312.244ZM260.959 312.46H262.975V322H260.959V320.596C260.347 321.64 259.393 322.162 258.223 322.162C256.261 322.162 255.127 320.902 255.127 318.832V312.46H257.143V318.526C257.143 319.768 257.755 320.434 258.853 320.434C260.257 320.434 260.959 319.426 260.959 317.572V312.46ZM276.149 312.244C278.057 312.244 279.155 313.486 279.155 315.484V322H277.139V315.826C277.139 314.566 276.545 313.99 275.501 313.99C274.097 313.99 273.395 314.962 273.395 316.834V322H271.379V315.826C271.379 314.566 270.785 313.99 269.741 313.99C268.355 313.99 267.653 314.962 267.653 316.834V322H265.637V312.46H267.653V313.81C268.301 312.784 269.237 312.244 270.389 312.244C271.847 312.244 272.801 312.946 273.215 314.134C273.863 312.874 274.871 312.244 276.149 312.244ZM292.419 312.244C294.327 312.244 295.425 313.486 295.425 315.484V322H293.409V315.826C293.409 314.566 292.815 313.99 291.771 313.99C290.367 313.99 289.665 314.962 289.665 316.834V322H287.649V315.826C287.649 314.566 287.055 313.99 286.011 313.99C284.625 313.99 283.923 314.962 283.923 316.834V322H281.907V312.46H283.923V313.81C284.571 312.784 285.507 312.244 286.659 312.244C288.117 312.244 289.071 312.946 289.485 314.134C290.133 312.874 291.141 312.244 292.419 312.244ZM304.73 318.994L306.098 319.786C305.558 320.974 304.298 322.162 302.12 322.162C299.294 322.162 297.584 320.074 297.584 317.14C297.584 314.242 299.438 312.244 301.976 312.244C304.226 312.244 306.08 313.756 306.08 316.456L306.044 317.644H299.564C299.672 319.66 300.662 320.524 302.246 320.524C303.416 320.524 304.226 319.894 304.73 318.994ZM301.976 313.828C300.752 313.828 299.726 314.476 299.564 316.204H304.118C304.136 314.512 303.092 313.828 301.976 313.828ZM312.741 312.244C314.127 312.244 315.027 313.162 315.027 314.8V316.06L313.407 316.348V315.376C313.407 314.512 313.101 313.918 312.165 313.918C311.139 313.918 310.383 314.602 310.383 316.42V322H308.367V312.46H310.383V313.738C310.923 312.676 311.913 312.244 312.741 312.244Z" fill="#2A2859"/>
<rect x="179" y="339" width="163" height="46" fill="white"/>
<path d="M201.812 360.962C203.144 361.412 204.188 362.528 204.188 364.256C204.188 366.398 202.406 368.144 199.562 368.144C197.852 368.144 196.196 367.496 194.936 365.696L195.872 364.94C196.862 366.38 197.996 367.028 199.67 367.028C201.722 367.028 202.964 365.786 202.964 364.256C202.964 363.158 202.514 362.51 201.866 362.114C201.344 361.808 200.876 361.664 200.012 361.664H198.23V360.584H199.598C200.678 360.584 201.092 360.422 201.578 360.044C202.118 359.612 202.442 358.928 202.442 358.1C202.442 356.624 201.326 355.652 199.526 355.652C198.122 355.652 196.934 356.3 196.286 358.01L195.206 357.632C196.124 355.436 197.69 354.536 199.598 354.536C202.298 354.536 203.63 356.318 203.63 358.064C203.63 359.36 202.874 360.44 201.812 360.962ZM211.074 368.144C208.446 368.144 206.214 365.66 206.214 361.34C206.214 357.02 208.428 354.536 211.074 354.536C213.72 354.536 215.934 357.02 215.934 361.34C215.934 365.66 213.702 368.144 211.074 368.144ZM211.074 366.956C213.054 366.956 214.674 365.318 214.674 361.34C214.674 357.452 213.072 355.724 211.074 355.724C209.076 355.724 207.474 357.452 207.474 361.34C207.474 365.318 209.094 366.956 211.074 366.956ZM223.197 366.956H226.149V368H218.877V366.956H221.973V356.084L219.057 358.1V356.768L222.045 354.68H223.197V366.956ZM231.217 366.848H238.237V368H229.525V367.064L234.313 361.736C235.735 360.17 236.329 359.306 236.329 358.1C236.329 356.75 235.429 355.652 233.665 355.652C232.297 355.652 231.127 356.264 230.533 357.938L229.417 357.56C230.281 355.364 231.829 354.536 233.719 354.536C236.293 354.536 237.589 356.3 237.589 357.992C237.589 359.468 237.031 360.458 235.159 362.528L231.217 366.848ZM244.403 368.144C242.549 368.144 241.019 367.208 240.371 365.75L241.469 365.21C241.991 366.452 243.233 367.028 244.421 367.028C247.157 367.028 248.453 364.562 248.183 360.332C247.517 362.204 245.879 363.104 244.331 363.104C242.297 363.104 240.263 361.7 240.263 358.856C240.263 356.768 241.721 354.536 244.655 354.536C247.625 354.536 249.407 357.128 249.407 361.304C249.407 365.21 247.877 368.144 244.403 368.144ZM244.475 361.988C246.113 361.988 247.643 360.944 247.643 358.856C247.643 356.768 246.149 355.652 244.547 355.652C242.963 355.652 241.487 356.732 241.487 358.82C241.487 360.98 242.909 361.988 244.475 361.988ZM258.38 360.962C259.712 361.412 260.756 362.528 260.756 364.256C260.756 366.398 258.974 368.144 256.13 368.144C254.42 368.144 252.764 367.496 251.504 365.696L252.44 364.94C253.43 366.38 254.564 367.028 256.238 367.028C258.29 367.028 259.532 365.786 259.532 364.256C259.532 363.158 259.082 362.51 258.434 362.114C257.912 361.808 257.444 361.664 256.58 361.664H254.798V360.584H256.166C257.246 360.584 257.66 360.422 258.146 360.044C258.686 359.612 259.01 358.928 259.01 358.1C259.01 356.624 257.894 355.652 256.094 355.652C254.69 355.652 253.502 356.3 252.854 358.01L251.774 357.632C252.692 355.436 254.258 354.536 256.166 354.536C258.866 354.536 260.198 356.318 260.198 358.064C260.198 359.36 259.442 360.44 258.38 360.962ZM274.099 360.962C275.431 361.412 276.475 362.528 276.475 364.256C276.475 366.398 274.693 368.144 271.849 368.144C270.139 368.144 268.483 367.496 267.223 365.696L268.159 364.94C269.149 366.38 270.283 367.028 271.957 367.028C274.009 367.028 275.251 365.786 275.251 364.256C275.251 363.158 274.801 362.51 274.153 362.114C273.631 361.808 273.163 361.664 272.299 361.664H270.517V360.584H271.885C272.965 360.584 273.379 360.422 273.865 360.044C274.405 359.612 274.729 358.928 274.729 358.1C274.729 356.624 273.613 355.652 271.813 355.652C270.409 355.652 269.221 356.3 268.573 358.01L267.493 357.632C268.411 355.436 269.977 354.536 271.885 354.536C274.585 354.536 275.917 356.318 275.917 358.064C275.917 359.36 275.161 360.44 274.099 360.962ZM279.113 354.68H288.401V355.724L282.065 368H280.697L287.105 355.796H280.265V358.64H279.113V354.68ZM292.191 366.848H299.211V368H290.499V367.064L295.287 361.736C296.709 360.17 297.303 359.306 297.303 358.1C297.303 356.75 296.403 355.652 294.639 355.652C293.271 355.652 292.101 356.264 291.507 357.938L290.391 357.56C291.255 355.364 292.803 354.536 294.693 354.536C297.267 354.536 298.563 356.3 298.563 357.992C298.563 359.468 298.005 360.458 296.133 362.528L292.191 366.848ZM310.885 363.356V364.472H308.581V368H307.393V364.472H301.417V363.464L304.603 354.68H305.755L302.659 363.356H307.393V359.396L308.581 359.036V363.356H310.885ZM318.112 366.956H321.064V368H313.792V366.956H316.888V356.084L313.972 358.1V356.768L316.96 354.68H318.112V366.956Z" fill="#2A2859"/>
<rect x="179" y="339" width="163" height="46" stroke="#2A2859" stroke-width="2"/>
<path d="M184.138 414.68C187.144 414.68 188.998 416.444 188.998 419.072C188.998 421.7 187.054 423.464 184.03 423.464H181.672V428H179.566V414.68H184.138ZM184.21 421.628C185.866 421.628 186.82 420.746 186.82 419.144C186.82 417.47 185.866 416.588 184.192 416.588H181.672V421.628H184.21ZM194.151 428.18C191.667 428.18 189.633 426.236 189.633 423.176C189.633 420.188 191.649 418.244 194.151 418.244C196.653 418.244 198.669 420.188 198.669 423.176C198.669 426.236 196.635 428.18 194.151 428.18ZM194.151 426.47C195.501 426.47 196.599 425.426 196.599 423.176C196.599 420.908 195.483 419.954 194.151 419.954C192.819 419.954 191.703 420.908 191.703 423.176C191.703 425.426 192.819 426.47 194.151 426.47ZM200.281 421.088C200.281 419.468 201.775 418.244 204.025 418.244C205.879 418.244 207.121 418.91 207.787 420.188L206.383 421.052C205.951 420.314 205.087 419.864 204.007 419.864C202.927 419.864 202.189 420.278 202.189 420.962C202.189 421.52 202.567 421.862 203.413 422.024L205.015 422.348C207.031 422.744 208.039 423.698 208.039 425.156C208.039 426.956 206.473 428.162 204.115 428.162C202.117 428.162 200.695 427.406 199.957 426.02L201.361 425.138C201.883 426.02 202.801 426.524 204.061 426.524C205.285 426.524 206.113 426.038 206.113 425.246C206.113 424.598 205.717 424.238 204.835 424.058L203.071 423.716C201.271 423.374 200.281 422.456 200.281 421.088ZM212.636 425.048C212.636 426.11 213.284 426.434 213.95 426.434C214.472 426.434 214.886 426.218 215.3 425.804L216.164 427.1C215.444 427.82 214.652 428.162 213.626 428.162C211.97 428.162 210.62 427.154 210.62 425.174V420.026H208.946V418.46H210.62V416.336L212.636 415.418V418.46H216.002V420.026H212.636V425.048ZM222.716 418.244C224.66 418.244 225.812 419.504 225.812 421.574V428H223.796V421.898C223.796 420.584 223.166 419.99 222.068 419.99C220.646 419.99 219.926 420.98 219.926 422.834V428H217.91V418.46H219.926V419.828C220.574 418.82 221.528 418.244 222.716 418.244ZM234.067 418.46H236.083V428H234.067V426.596C233.455 427.64 232.501 428.162 231.331 428.162C229.369 428.162 228.235 426.902 228.235 424.832V418.46H230.251V424.526C230.251 425.768 230.863 426.434 231.961 426.434C233.365 426.434 234.067 425.426 234.067 423.572V418.46ZM249.256 418.244C251.164 418.244 252.262 419.486 252.262 421.484V428H250.246V421.826C250.246 420.566 249.652 419.99 248.608 419.99C247.204 419.99 246.502 420.962 246.502 422.834V428H244.486V421.826C244.486 420.566 243.892 419.99 242.848 419.99C241.462 419.99 240.76 420.962 240.76 422.834V428H238.744V418.46H240.76V419.81C241.408 418.784 242.344 418.244 243.496 418.244C244.954 418.244 245.908 418.946 246.322 420.134C246.97 418.874 247.978 418.244 249.256 418.244ZM265.527 418.244C267.435 418.244 268.533 419.486 268.533 421.484V428H266.517V421.826C266.517 420.566 265.923 419.99 264.879 419.99C263.475 419.99 262.773 420.962 262.773 422.834V428H260.757V421.826C260.757 420.566 260.163 419.99 259.119 419.99C257.733 419.99 257.031 420.962 257.031 422.834V428H255.015V418.46H257.031V419.81C257.679 418.784 258.615 418.244 259.767 418.244C261.225 418.244 262.179 418.946 262.593 420.134C263.241 418.874 264.249 418.244 265.527 418.244ZM277.838 424.994L279.206 425.786C278.666 426.974 277.406 428.162 275.228 428.162C272.402 428.162 270.692 426.074 270.692 423.14C270.692 420.242 272.546 418.244 275.084 418.244C277.334 418.244 279.188 419.756 279.188 422.456L279.152 423.644H272.672C272.78 425.66 273.77 426.524 275.354 426.524C276.524 426.524 277.334 425.894 277.838 424.994ZM275.084 419.828C273.86 419.828 272.834 420.476 272.672 422.204H277.226C277.244 420.512 276.2 419.828 275.084 419.828ZM285.848 418.244C287.234 418.244 288.134 419.162 288.134 420.8V422.06L286.514 422.348V421.376C286.514 420.512 286.208 419.918 285.272 419.918C284.246 419.918 283.49 420.602 283.49 422.42V428H281.474V418.46H283.49V419.738C284.03 418.676 285.02 418.244 285.848 418.244Z" fill="#2A2859"/>
<rect x="179" y="445" width="79" height="46" fill="white"/>
<path d="M199.76 474.144C197.132 474.144 194.9 471.66 194.9 467.34C194.9 463.02 197.114 460.536 199.76 460.536C202.406 460.536 204.62 463.02 204.62 467.34C204.62 471.66 202.388 474.144 199.76 474.144ZM199.76 472.956C201.74 472.956 203.36 471.318 203.36 467.34C203.36 463.452 201.758 461.724 199.76 461.724C197.762 461.724 196.16 463.452 196.16 467.34C196.16 471.318 197.78 472.956 199.76 472.956ZM211.884 472.956H214.836V474H207.564V472.956H210.66V462.084L207.744 464.1V462.768L210.732 460.68H211.884V472.956ZM222.639 474.144C219.579 474.144 217.815 471.606 217.815 467.268C217.815 463.434 219.705 460.536 223.107 460.536C224.961 460.536 226.239 461.472 226.833 462.93L225.735 463.47C225.267 462.354 224.223 461.652 223.035 461.652C220.389 461.652 218.697 464.082 219.039 468.348C219.651 466.494 221.235 465.558 222.837 465.558C224.889 465.558 226.995 467.142 226.995 469.788C226.995 471.93 225.555 474.144 222.639 474.144ZM219.579 469.824C219.579 471.894 221.019 473.028 222.711 473.028C224.403 473.028 225.771 471.912 225.771 469.824C225.771 468.06 224.439 466.71 222.675 466.71C221.073 466.71 219.579 467.754 219.579 469.824ZM233.953 474.144C230.893 474.144 229.129 471.606 229.129 467.268C229.129 463.434 231.019 460.536 234.421 460.536C236.275 460.536 237.553 461.472 238.147 462.93L237.049 463.47C236.581 462.354 235.537 461.652 234.349 461.652C231.703 461.652 230.011 464.082 230.353 468.348C230.965 466.494 232.549 465.558 234.151 465.558C236.203 465.558 238.309 467.142 238.309 469.788C238.309 471.93 236.869 474.144 233.953 474.144ZM230.893 469.824C230.893 471.894 232.333 473.028 234.025 473.028C235.717 473.028 237.085 471.912 237.085 469.824C237.085 468.06 235.753 466.71 233.989 466.71C232.387 466.71 230.893 467.754 230.893 469.824Z" fill="#2A2859"/>
<rect x="179" y="445" width="79" height="46" stroke="#2A2859" stroke-width="2"/>
<path d="M320.138 414.68C323.144 414.68 324.998 416.444 324.998 419.072C324.998 421.7 323.054 423.464 320.03 423.464H317.672V428H315.566V414.68H320.138ZM320.21 421.628C321.866 421.628 322.82 420.746 322.82 419.144C322.82 417.47 321.866 416.588 320.192 416.588H317.672V421.628H320.21ZM330.151 428.18C327.667 428.18 325.633 426.236 325.633 423.176C325.633 420.188 327.649 418.244 330.151 418.244C332.653 418.244 334.669 420.188 334.669 423.176C334.669 426.236 332.635 428.18 330.151 428.18ZM330.151 426.47C331.501 426.47 332.599 425.426 332.599 423.176C332.599 420.908 331.483 419.954 330.151 419.954C328.819 419.954 327.703 420.908 327.703 423.176C327.703 425.426 328.819 426.47 330.151 426.47ZM336.281 421.088C336.281 419.468 337.775 418.244 340.025 418.244C341.879 418.244 343.121 418.91 343.787 420.188L342.383 421.052C341.951 420.314 341.087 419.864 340.007 419.864C338.927 419.864 338.189 420.278 338.189 420.962C338.189 421.52 338.567 421.862 339.413 422.024L341.015 422.348C343.031 422.744 344.039 423.698 344.039 425.156C344.039 426.956 342.473 428.162 340.115 428.162C338.117 428.162 336.695 427.406 335.957 426.02L337.361 425.138C337.883 426.02 338.801 426.524 340.061 426.524C341.285 426.524 342.113 426.038 342.113 425.246C342.113 424.598 341.717 424.238 340.835 424.058L339.071 423.716C337.271 423.374 336.281 422.456 336.281 421.088ZM348.636 425.048C348.636 426.11 349.284 426.434 349.95 426.434C350.472 426.434 350.886 426.218 351.3 425.804L352.164 427.1C351.444 427.82 350.652 428.162 349.626 428.162C347.97 428.162 346.62 427.154 346.62 425.174V420.026H344.946V418.46H346.62V416.336L348.636 415.418V418.46H352.002V420.026H348.636V425.048ZM353.142 421.088C353.142 419.468 354.636 418.244 356.886 418.244C358.74 418.244 359.982 418.91 360.648 420.188L359.244 421.052C358.812 420.314 357.948 419.864 356.868 419.864C355.788 419.864 355.05 420.278 355.05 420.962C355.05 421.52 355.428 421.862 356.274 422.024L357.876 422.348C359.892 422.744 360.9 423.698 360.9 425.156C360.9 426.956 359.334 428.162 356.976 428.162C354.978 428.162 353.556 427.406 352.818 426.02L354.222 425.138C354.744 426.02 355.662 426.524 356.922 426.524C358.146 426.524 358.974 426.038 358.974 425.246C358.974 424.598 358.578 424.238 357.696 424.058L355.932 423.716C354.132 423.374 353.142 422.456 353.142 421.088ZM365.498 425.048C365.498 426.11 366.146 426.434 366.812 426.434C367.334 426.434 367.748 426.218 368.162 425.804L369.026 427.1C368.306 427.82 367.514 428.162 366.488 428.162C364.832 428.162 363.482 427.154 363.482 425.174V420.026H361.808V418.46H363.482V416.336L365.498 415.418V418.46H368.864V420.026H365.498V425.048ZM376.867 424.994L378.235 425.786C377.695 426.974 376.435 428.162 374.257 428.162C371.431 428.162 369.721 426.074 369.721 423.14C369.721 420.242 371.575 418.244 374.113 418.244C376.363 418.244 378.217 419.756 378.217 422.456L378.181 423.644H371.701C371.809 425.66 372.799 426.524 374.383 426.524C375.553 426.524 376.363 425.894 376.867 424.994ZM374.113 419.828C372.889 419.828 371.863 420.476 371.701 422.204H376.255C376.273 420.512 375.229 419.828 374.113 419.828ZM386.857 414.68H388.873V428H386.857V426.272C386.119 427.604 384.967 428.144 383.869 428.144C381.565 428.144 379.909 426.164 379.909 423.266C379.909 420.26 381.583 418.262 384.103 418.262C385.183 418.262 386.263 418.748 386.857 419.918V414.68ZM384.409 426.38C385.867 426.38 386.857 425.39 386.857 423.158C386.857 420.944 385.885 419.882 384.409 419.882C383.023 419.882 381.997 420.998 381.997 423.158C381.997 425.3 383.023 426.38 384.409 426.38Z" fill="#2A2859"/>
<rect x="315" y="445" width="303" height="46" fill="white"/>
<rect x="315" y="445" width="303" height="46" stroke="#2A2859" stroke-width="2"/>
<path d="M188.62 202.68V204.624H184.642V216H182.536V204.624H178.558V202.68H188.62ZM195.654 212.994L197.022 213.786C196.482 214.974 195.222 216.162 193.044 216.162C190.218 216.162 188.508 214.074 188.508 211.14C188.508 208.242 190.362 206.244 192.9 206.244C195.15 206.244 197.004 207.756 197.004 210.456L196.968 211.644H190.488C190.596 213.66 191.586 214.524 193.17 214.524C194.34 214.524 195.15 213.894 195.654 212.994ZM192.9 207.828C191.676 207.828 190.65 208.476 190.488 210.204H195.042C195.06 208.512 194.016 207.828 192.9 207.828ZM203.124 215.946C202.746 216.054 202.368 216.108 201.972 216.108C200.154 216.108 199.29 215.028 199.29 213.282V202.68H201.306V213.138C201.306 213.966 201.792 214.344 202.53 214.344C202.71 214.344 202.908 214.326 203.124 214.272V215.946ZM211.39 212.994L212.758 213.786C212.218 214.974 210.958 216.162 208.78 216.162C205.954 216.162 204.244 214.074 204.244 211.14C204.244 208.242 206.098 206.244 208.636 206.244C210.886 206.244 212.74 207.756 212.74 210.456L212.704 211.644H206.224C206.332 213.66 207.322 214.524 208.906 214.524C210.076 214.524 210.886 213.894 211.39 212.994ZM208.636 207.828C207.412 207.828 206.386 208.476 206.224 210.204H210.778C210.796 208.512 209.752 207.828 208.636 207.828ZM217.463 205.596V206.46H220.145V208.026H217.463V216H215.447V208.026H213.773V206.46H215.447V205.686C215.447 203.616 216.797 202.41 218.669 202.41C219.551 202.41 220.433 202.77 220.955 203.418L220.001 204.75C219.713 204.39 219.281 204.174 218.813 204.174C218.075 204.174 217.463 204.606 217.463 205.596ZM225.132 216.18C222.648 216.18 220.614 214.236 220.614 211.176C220.614 208.188 222.63 206.244 225.132 206.244C227.634 206.244 229.65 208.188 229.65 211.176C229.65 214.236 227.616 216.18 225.132 216.18ZM225.132 214.47C226.482 214.47 227.58 213.426 227.58 211.176C227.58 208.908 226.464 207.954 225.132 207.954C223.8 207.954 222.684 208.908 222.684 211.176C222.684 213.426 223.8 214.47 225.132 214.47ZM236.572 206.244C238.516 206.244 239.668 207.504 239.668 209.574V216H237.652V209.898C237.652 208.584 237.022 207.99 235.924 207.99C234.502 207.99 233.782 208.98 233.782 210.834V216H231.766V206.46H233.782V207.828C234.43 206.82 235.384 206.244 236.572 206.244ZM247.2 206.244C249.144 206.244 250.296 207.504 250.296 209.574V216H248.28V209.898C248.28 208.584 247.65 207.99 246.552 207.99C245.13 207.99 244.41 208.98 244.41 210.834V216H242.394V206.46H244.41V207.828C245.058 206.82 246.012 206.244 247.2 206.244ZM258.551 206.46H260.567V216H258.551V214.596C257.939 215.64 256.985 216.162 255.815 216.162C253.853 216.162 252.719 214.902 252.719 212.832V206.46H254.735V212.526C254.735 213.768 255.347 214.434 256.445 214.434C257.849 214.434 258.551 213.426 258.551 211.572V206.46ZM273.74 206.244C275.648 206.244 276.746 207.486 276.746 209.484V216H274.73V209.826C274.73 208.566 274.136 207.99 273.092 207.99C271.688 207.99 270.986 208.962 270.986 210.834V216H268.97V209.826C268.97 208.566 268.376 207.99 267.332 207.99C265.946 207.99 265.244 208.962 265.244 210.834V216H263.228V206.46H265.244V207.81C265.892 206.784 266.828 206.244 267.98 206.244C269.438 206.244 270.392 206.946 270.806 208.134C271.454 206.874 272.462 206.244 273.74 206.244ZM290.011 206.244C291.919 206.244 293.017 207.486 293.017 209.484V216H291.001V209.826C291.001 208.566 290.407 207.99 289.363 207.99C287.959 207.99 287.257 208.962 287.257 210.834V216H285.241V209.826C285.241 208.566 284.647 207.99 283.603 207.99C282.217 207.99 281.515 208.962 281.515 210.834V216H279.499V206.46H281.515V207.81C282.163 206.784 283.099 206.244 284.251 206.244C285.709 206.244 286.663 206.946 287.077 208.134C287.725 206.874 288.733 206.244 290.011 206.244ZM302.322 212.994L303.69 213.786C303.15 214.974 301.89 216.162 299.712 216.162C296.886 216.162 295.176 214.074 295.176 211.14C295.176 208.242 297.03 206.244 299.568 206.244C301.818 206.244 303.672 207.756 303.672 210.456L303.636 211.644H297.156C297.264 213.66 298.254 214.524 299.838 214.524C301.008 214.524 301.818 213.894 302.322 212.994ZM299.568 207.828C298.344 207.828 297.318 208.476 297.156 210.204H301.71C301.728 208.512 300.684 207.828 299.568 207.828ZM310.332 206.244C311.718 206.244 312.618 207.162 312.618 208.8V210.06L310.998 210.348V209.376C310.998 208.512 310.692 207.918 309.756 207.918C308.73 207.918 307.974 208.602 307.974 210.42V216H305.958V206.46H307.974V207.738C308.514 206.676 309.504 206.244 310.332 206.244Z" fill="#2A2859"/>
<rect x="179" y="233" width="186" height="46" fill="white"/>
<path d="M204.08 254.872V255.916H200.3V259.732H199.22V255.916H195.44V254.872H199.22V251.056H200.3V254.872H204.08ZM220.375 257.356V258.472H218.071V262H216.883V258.472H210.907V257.464L214.093 248.68H215.245L212.149 257.356H216.883V253.396L218.071 253.036V257.356H220.375ZM222.545 248.68H231.833V249.724L225.497 262H224.129L230.537 249.796H223.697V252.64H222.545V248.68Z" fill="#2A2859"/>
<path d="M240 242V270H242V242H240Z" fill="#2A2859" mask="url(#path-11-inside-1_5523_177151)"/>
<path d="M255.57 260.956H258.522V262H251.25V260.956H254.346V250.084L251.43 252.1V250.768L254.418 248.68H255.57V260.956ZM263.59 260.848H270.61V262H261.898V261.064L266.686 255.736C268.108 254.17 268.702 253.306 268.702 252.1C268.702 250.75 267.802 249.652 266.038 249.652C264.67 249.652 263.5 250.264 262.906 251.938L261.79 251.56C262.654 249.364 264.202 248.536 266.092 248.536C268.666 248.536 269.962 250.3 269.962 251.992C269.962 253.468 269.404 254.458 267.532 256.528L263.59 260.848ZM279.439 254.962C280.771 255.412 281.815 256.528 281.815 258.256C281.815 260.398 280.033 262.144 277.189 262.144C275.479 262.144 273.823 261.496 272.563 259.696L273.499 258.94C274.489 260.38 275.623 261.028 277.297 261.028C279.349 261.028 280.591 259.786 280.591 258.256C280.591 257.158 280.141 256.51 279.493 256.114C278.971 255.808 278.503 255.664 277.639 255.664H275.857V254.584H277.225C278.305 254.584 278.719 254.422 279.205 254.044C279.745 253.612 280.069 252.928 280.069 252.1C280.069 250.624 278.953 249.652 277.153 249.652C275.749 249.652 274.561 250.3 273.913 252.01L272.833 251.632C273.751 249.436 275.317 248.536 277.225 248.536C279.925 248.536 281.257 250.318 281.257 252.064C281.257 253.36 280.501 254.44 279.439 254.962ZM298.002 257.356V258.472H295.698V262H294.51V258.472H288.534V257.464L291.72 248.68H292.872L289.776 257.356H294.51V253.396L295.698 253.036V257.356H298.002ZM304.816 253.432C307.282 253.432 309.028 255.178 309.028 257.572C309.028 260.146 307.138 262.144 304.168 262.144C302.512 262.144 300.856 261.496 299.596 259.696L300.532 258.94C301.522 260.38 302.71 261.028 304.312 261.028C306.382 261.028 307.804 259.516 307.804 257.644C307.804 255.772 306.562 254.548 304.708 254.548C303.412 254.548 302.584 254.944 301.414 256.042L300.424 255.664L300.874 248.68H308.02V249.832H301.936L301.576 254.692C302.44 253.882 303.592 253.432 304.816 253.432ZM320.391 262.144C317.331 262.144 315.567 259.606 315.567 255.268C315.567 251.434 317.457 248.536 320.859 248.536C322.713 248.536 323.991 249.472 324.585 250.93L323.487 251.47C323.019 250.354 321.975 249.652 320.787 249.652C318.141 249.652 316.449 252.082 316.791 256.348C317.403 254.494 318.987 253.558 320.589 253.558C322.641 253.558 324.747 255.142 324.747 257.788C324.747 259.93 323.307 262.144 320.391 262.144ZM317.331 257.824C317.331 259.894 318.771 261.028 320.463 261.028C322.155 261.028 323.523 259.912 323.523 257.824C323.523 256.06 322.191 254.71 320.427 254.71C318.825 254.71 317.331 255.754 317.331 257.824ZM327.205 248.68H336.493V249.724L330.157 262H328.789L335.197 249.796H328.357V252.64H327.205V248.68ZM342.767 262.144C339.995 262.144 338.087 260.524 338.087 258.4C338.087 256.816 339.203 255.556 340.787 255.124C339.347 254.584 338.627 253.288 338.627 252.1C338.627 250.03 340.391 248.536 342.767 248.536C345.143 248.536 346.907 250.03 346.907 252.1C346.907 253.288 346.187 254.584 344.747 255.124C346.331 255.556 347.447 256.816 347.447 258.4C347.447 260.524 345.539 262.144 342.767 262.144ZM342.767 254.584C344.423 254.584 345.719 253.756 345.719 252.172C345.719 250.354 344.261 249.58 342.767 249.58C341.273 249.58 339.815 250.336 339.815 252.172C339.815 253.756 341.111 254.584 342.767 254.584ZM342.767 261.028C344.783 261.028 346.259 260.128 346.259 258.256C346.259 256.51 344.747 255.664 342.767 255.664C340.787 255.664 339.275 256.51 339.275 258.256C339.275 260.146 340.751 261.028 342.767 261.028Z" fill="#2A2859"/>
<rect x="179" y="233" width="186" height="46" stroke="#2A2859" stroke-width="2"/>
<path d="M178 159H678V170H178V159Z" fill="#C7F6C9"/>
<path d="M198.212 143.144C199.796 143.144 201.38 142.68 202.436 141.8V136.6H196.98V137.896H201.156V141.144C200.356 141.608 199.492 141.848 198.292 141.848C195.828 141.848 194.1 140.136 194.1 137.016C194.1 133.896 195.924 132.376 198.068 132.376C199.412 132.376 200.564 133.048 201.14 134.296L202.404 133.64C201.652 131.96 200.148 131.016 198.084 131.016C195.092 131.016 192.612 133.368 192.612 137.016C192.612 140.776 194.964 143.144 198.212 143.144ZM205.519 133.032C206.111 133.032 206.591 132.568 206.591 131.944C206.591 131.336 206.111 130.872 205.519 130.872C204.911 130.872 204.431 131.336 204.431 131.944C204.431 132.568 204.911 133.032 205.519 133.032ZM204.191 146.488C205.551 146.488 206.207 145.64 206.207 144.104V134.52H204.831V144.12C204.831 144.84 204.623 145.304 203.919 145.304C203.759 145.304 203.567 145.288 203.343 145.208L203.231 146.344C203.535 146.44 203.871 146.488 204.191 146.488ZM214.308 135.096L215.012 133.704H214.196L213.684 134.712C213.204 134.488 212.66 134.36 212.084 134.36C209.924 134.36 208.196 136.088 208.196 138.728C208.196 140.36 208.836 141.64 209.812 142.392L209.108 143.8H209.94L210.452 142.776C210.948 143.016 211.508 143.144 212.084 143.144C214.212 143.144 215.956 141.416 215.956 138.728C215.956 137.112 215.316 135.832 214.308 135.096ZM209.62 138.728C209.62 136.568 210.74 135.56 212.084 135.56C212.452 135.56 212.82 135.64 213.14 135.8L210.404 141.224C209.924 140.696 209.62 139.864 209.62 138.728ZM212.084 141.944C211.7 141.944 211.332 141.864 210.996 141.688L213.732 136.248C214.228 136.776 214.532 137.592 214.532 138.728C214.532 140.888 213.428 141.944 212.084 141.944ZM221.292 134.36C220.54 134.36 219.74 134.744 219.276 135.608V134.52H217.9V143H219.276V137.896C219.276 136.216 219.98 135.544 220.94 135.544C221.788 135.544 222.06 136.088 222.06 136.904V137.752L223.244 137.528V136.584C223.244 135.128 222.444 134.36 221.292 134.36ZM228.615 136.776C228.615 137.944 229.463 138.744 231.031 139.064L232.487 139.352C233.463 139.56 233.879 139.944 233.879 140.648C233.879 141.448 233.063 141.976 231.847 141.976C230.647 141.976 229.799 141.512 229.367 140.648L228.311 141.208C228.919 142.456 230.151 143.128 231.879 143.128C233.863 143.128 235.207 142.088 235.207 140.568C235.207 139.288 234.327 138.472 232.487 138.104L231.255 137.864C230.343 137.672 229.943 137.304 229.943 136.68C229.943 135.96 230.663 135.528 231.751 135.528C232.791 135.528 233.559 135.944 233.911 136.696L234.951 136.168C234.503 135.048 233.351 134.36 231.783 134.36C229.911 134.36 228.615 135.4 228.615 136.776ZM240.041 142.968V141.784C239.865 141.832 239.689 141.848 239.529 141.848C238.857 141.848 238.457 141.496 238.457 140.76V131.16H237.081V140.824C237.081 142.2 237.769 143.08 239.209 143.08C239.497 143.08 239.753 143.032 240.041 142.968ZM241.563 131.064V132.92H243.451V131.064H241.563ZM241.819 143H243.195V134.52H241.819V143ZM251.056 143H252.736L249.072 138.024L252.672 134.52H250.928L247.136 138.328V131.16H245.76V143H247.136V139.912L248.144 138.92L251.056 143Z" fill="#2A2859"/>
<line x1="755.5" y1="115" x2="755.5" y2="492" stroke="#CCCCCC"/>
<path d="M835.672 322H833.566V308.68H841.81V310.624H835.672V314.692H840.766V316.618H835.672V322ZM849.283 313.036C850.489 313.864 851.263 315.322 851.263 317.176C851.263 320.236 849.229 322.18 846.745 322.18C846.115 322.18 845.521 322.054 844.963 321.82L844.405 322.972H843.379L844.171 321.37C843.001 320.524 842.227 319.066 842.227 317.176C842.227 314.188 844.243 312.244 846.745 312.244C847.375 312.244 847.951 312.37 848.491 312.586L849.049 311.47H850.057L849.283 313.036ZM844.297 317.176C844.297 318.292 844.567 319.12 845.017 319.66L847.717 314.152C847.429 314.026 847.087 313.954 846.745 313.954C845.413 313.954 844.297 314.908 844.297 317.176ZM846.745 320.47C848.095 320.47 849.193 319.426 849.193 317.176C849.193 316.042 848.905 315.232 848.473 314.71L845.737 320.254C846.043 320.398 846.385 320.47 846.745 320.47ZM859.732 308.68H861.748V322H859.732V320.272C858.994 321.604 857.842 322.144 856.744 322.144C854.44 322.144 852.784 320.164 852.784 317.266C852.784 314.26 854.458 312.262 856.978 312.262C858.058 312.262 859.138 312.748 859.732 313.918V308.68ZM857.284 320.38C858.742 320.38 859.732 319.39 859.732 317.158C859.732 314.944 858.76 313.882 857.284 313.882C855.898 313.882 854.872 314.998 854.872 317.158C854.872 319.3 855.898 320.38 857.284 320.38ZM863.889 315.088C863.889 313.468 865.383 312.244 867.633 312.244C869.487 312.244 870.729 312.91 871.395 314.188L869.991 315.052C869.559 314.314 868.695 313.864 867.615 313.864C866.535 313.864 865.797 314.278 865.797 314.962C865.797 315.52 866.175 315.862 867.021 316.024L868.623 316.348C870.639 316.744 871.647 317.698 871.647 319.156C871.647 320.956 870.081 322.162 867.723 322.162C865.725 322.162 864.303 321.406 863.565 320.02L864.969 319.138C865.491 320.02 866.409 320.524 867.669 320.524C868.893 320.524 869.721 320.038 869.721 319.246C869.721 318.598 869.325 318.238 868.443 318.058L866.679 317.716C864.879 317.374 863.889 316.456 863.889 315.088ZM880.079 318.994L881.447 319.786C880.907 320.974 879.647 322.162 877.469 322.162C874.643 322.162 872.933 320.074 872.933 317.14C872.933 314.242 874.787 312.244 877.325 312.244C879.575 312.244 881.429 313.756 881.429 316.456L881.393 317.644H874.913C875.021 319.66 876.011 320.524 877.595 320.524C878.765 320.524 879.575 319.894 880.079 318.994ZM877.325 313.828C876.101 313.828 875.075 314.476 874.913 316.204H879.467C879.485 314.512 878.441 313.828 877.325 313.828ZM887.55 321.946C887.172 322.054 886.794 322.108 886.398 322.108C884.58 322.108 883.716 321.028 883.716 319.282V308.68H885.732V319.138C885.732 319.966 886.218 320.344 886.956 320.344C887.136 320.344 887.334 320.326 887.55 320.272V321.946ZM888.971 315.088C888.971 313.468 890.465 312.244 892.715 312.244C894.569 312.244 895.811 312.91 896.477 314.188L895.073 315.052C894.641 314.314 893.777 313.864 892.697 313.864C891.617 313.864 890.879 314.278 890.879 314.962C890.879 315.52 891.257 315.862 892.103 316.024L893.705 316.348C895.721 316.744 896.729 317.698 896.729 319.156C896.729 320.956 895.163 322.162 892.805 322.162C890.807 322.162 889.385 321.406 888.647 320.02L890.051 319.138C890.573 320.02 891.491 320.524 892.751 320.524C893.975 320.524 894.803 320.038 894.803 319.246C894.803 318.598 894.407 318.238 893.525 318.058L891.761 317.716C889.961 317.374 888.971 316.456 888.971 315.088ZM903.608 312.244C905.552 312.244 906.704 313.504 906.704 315.574V322H904.688V315.898C904.688 314.584 904.058 313.99 902.96 313.99C901.538 313.99 900.818 314.98 900.818 316.834V322H898.802V312.46H900.818V313.828C901.466 312.82 902.42 312.244 903.608 312.244ZM914.959 312.46H916.975V322H914.959V320.596C914.347 321.64 913.393 322.162 912.223 322.162C910.261 322.162 909.127 320.902 909.127 318.832V312.46H911.143V318.526C911.143 319.768 911.755 320.434 912.853 320.434C914.257 320.434 914.959 319.426 914.959 317.572V312.46ZM930.149 312.244C932.057 312.244 933.155 313.486 933.155 315.484V322H931.139V315.826C931.139 314.566 930.545 313.99 929.501 313.99C928.097 313.99 927.395 314.962 927.395 316.834V322H925.379V315.826C925.379 314.566 924.785 313.99 923.741 313.99C922.355 313.99 921.653 314.962 921.653 316.834V322H919.637V312.46H921.653V313.81C922.301 312.784 923.237 312.244 924.389 312.244C925.847 312.244 926.801 312.946 927.215 314.134C927.863 312.874 928.871 312.244 930.149 312.244ZM946.419 312.244C948.327 312.244 949.425 313.486 949.425 315.484V322H947.409V315.826C947.409 314.566 946.815 313.99 945.771 313.99C944.367 313.99 943.665 314.962 943.665 316.834V322H941.649V315.826C941.649 314.566 941.055 313.99 940.011 313.99C938.625 313.99 937.923 314.962 937.923 316.834V322H935.907V312.46H937.923V313.81C938.571 312.784 939.507 312.244 940.659 312.244C942.117 312.244 943.071 312.946 943.485 314.134C944.133 312.874 945.141 312.244 946.419 312.244ZM958.73 318.994L960.098 319.786C959.558 320.974 958.298 322.162 956.12 322.162C953.294 322.162 951.584 320.074 951.584 317.14C951.584 314.242 953.438 312.244 955.976 312.244C958.226 312.244 960.08 313.756 960.08 316.456L960.044 317.644H953.564C953.672 319.66 954.662 320.524 956.246 320.524C957.416 320.524 958.226 319.894 958.73 318.994ZM955.976 313.828C954.752 313.828 953.726 314.476 953.564 316.204H958.118C958.136 314.512 957.092 313.828 955.976 313.828ZM966.741 312.244C968.127 312.244 969.027 313.162 969.027 314.8V316.06L967.407 316.348V315.376C967.407 314.512 967.101 313.918 966.165 313.918C965.139 313.918 964.383 314.602 964.383 316.42V322H962.367V312.46H964.383V313.738C964.923 312.676 965.913 312.244 966.741 312.244Z" fill="#2A2859"/>
<rect x="833" y="339" width="498" height="46" fill="white"/>
<path d="M855.812 360.962C857.144 361.412 858.188 362.528 858.188 364.256C858.188 366.398 856.406 368.144 853.562 368.144C851.852 368.144 850.196 367.496 848.936 365.696L849.872 364.94C850.862 366.38 851.996 367.028 853.67 367.028C855.722 367.028 856.964 365.786 856.964 364.256C856.964 363.158 856.514 362.51 855.866 362.114C855.344 361.808 854.876 361.664 854.012 361.664H852.23V360.584H853.598C854.678 360.584 855.092 360.422 855.578 360.044C856.118 359.612 856.442 358.928 856.442 358.1C856.442 356.624 855.326 355.652 853.526 355.652C852.122 355.652 850.934 356.3 850.286 358.01L849.206 357.632C850.124 355.436 851.69 354.536 853.598 354.536C856.298 354.536 857.63 356.318 857.63 358.064C857.63 359.36 856.874 360.44 855.812 360.962ZM865.074 368.144C862.446 368.144 860.214 365.66 860.214 361.34C860.214 357.02 862.428 354.536 865.074 354.536C867.72 354.536 869.934 357.02 869.934 361.34C869.934 365.66 867.702 368.144 865.074 368.144ZM865.074 366.956C867.054 366.956 868.674 365.318 868.674 361.34C868.674 357.452 867.072 355.724 865.074 355.724C863.076 355.724 861.474 357.452 861.474 361.34C861.474 365.318 863.094 366.956 865.074 366.956ZM877.197 366.956H880.149V368H872.877V366.956H875.973V356.084L873.057 358.1V356.768L876.045 354.68H877.197V366.956ZM885.217 366.848H892.237V368H883.525V367.064L888.313 361.736C889.735 360.17 890.329 359.306 890.329 358.1C890.329 356.75 889.429 355.652 887.665 355.652C886.297 355.652 885.127 356.264 884.533 357.938L883.417 357.56C884.281 355.364 885.829 354.536 887.719 354.536C890.293 354.536 891.589 356.3 891.589 357.992C891.589 359.468 891.031 360.458 889.159 362.528L885.217 366.848ZM898.403 368.144C896.549 368.144 895.019 367.208 894.371 365.75L895.469 365.21C895.991 366.452 897.233 367.028 898.421 367.028C901.157 367.028 902.453 364.562 902.183 360.332C901.517 362.204 899.879 363.104 898.331 363.104C896.297 363.104 894.263 361.7 894.263 358.856C894.263 356.768 895.721 354.536 898.655 354.536C901.625 354.536 903.407 357.128 903.407 361.304C903.407 365.21 901.877 368.144 898.403 368.144ZM898.475 361.988C900.113 361.988 901.643 360.944 901.643 358.856C901.643 356.768 900.149 355.652 898.547 355.652C896.963 355.652 895.487 356.732 895.487 358.82C895.487 360.98 896.909 361.988 898.475 361.988ZM912.38 360.962C913.712 361.412 914.756 362.528 914.756 364.256C914.756 366.398 912.974 368.144 910.13 368.144C908.42 368.144 906.764 367.496 905.504 365.696L906.44 364.94C907.43 366.38 908.564 367.028 910.238 367.028C912.29 367.028 913.532 365.786 913.532 364.256C913.532 363.158 913.082 362.51 912.434 362.114C911.912 361.808 911.444 361.664 910.58 361.664H908.798V360.584H910.166C911.246 360.584 911.66 360.422 912.146 360.044C912.686 359.612 913.01 358.928 913.01 358.1C913.01 356.624 911.894 355.652 910.094 355.652C908.69 355.652 907.502 356.3 906.854 358.01L905.774 357.632C906.692 355.436 908.258 354.536 910.166 354.536C912.866 354.536 914.198 356.318 914.198 358.064C914.198 359.36 913.442 360.44 912.38 360.962ZM928.099 360.962C929.431 361.412 930.475 362.528 930.475 364.256C930.475 366.398 928.693 368.144 925.849 368.144C924.139 368.144 922.483 367.496 921.223 365.696L922.159 364.94C923.149 366.38 924.283 367.028 925.957 367.028C928.009 367.028 929.251 365.786 929.251 364.256C929.251 363.158 928.801 362.51 928.153 362.114C927.631 361.808 927.163 361.664 926.299 361.664H924.517V360.584H925.885C926.965 360.584 927.379 360.422 927.865 360.044C928.405 359.612 928.729 358.928 928.729 358.1C928.729 356.624 927.613 355.652 925.813 355.652C924.409 355.652 923.221 356.3 922.573 358.01L921.493 357.632C922.411 355.436 923.977 354.536 925.885 354.536C928.585 354.536 929.917 356.318 929.917 358.064C929.917 359.36 929.161 360.44 928.099 360.962ZM933.113 354.68H942.401V355.724L936.065 368H934.697L941.105 355.796H934.265V358.64H933.113V354.68ZM946.191 366.848H953.211V368H944.499V367.064L949.287 361.736C950.709 360.17 951.303 359.306 951.303 358.1C951.303 356.75 950.403 355.652 948.639 355.652C947.271 355.652 946.101 356.264 945.507 357.938L944.391 357.56C945.255 355.364 946.803 354.536 948.693 354.536C951.267 354.536 952.563 356.3 952.563 357.992C952.563 359.468 952.005 360.458 950.133 362.528L946.191 366.848ZM964.885 363.356V364.472H962.581V368H961.393V364.472H955.417V363.464L958.603 354.68H959.755L956.659 363.356H961.393V359.396L962.581 359.036V363.356H964.885ZM972.112 366.956H975.064V368H967.792V366.956H970.888V356.084L967.972 358.1V356.768L970.96 354.68H972.112V366.956Z" fill="#2A2859"/>
<rect x="833" y="339" width="498" height="46" stroke="#2A2859" stroke-width="2"/>
<path d="M838.138 414.68C841.144 414.68 842.998 416.444 842.998 419.072C842.998 421.7 841.054 423.464 838.03 423.464H835.672V428H833.566V414.68H838.138ZM838.21 421.628C839.866 421.628 840.82 420.746 840.82 419.144C840.82 417.47 839.866 416.588 838.192 416.588H835.672V421.628H838.21ZM848.151 428.18C845.667 428.18 843.633 426.236 843.633 423.176C843.633 420.188 845.649 418.244 848.151 418.244C850.653 418.244 852.669 420.188 852.669 423.176C852.669 426.236 850.635 428.18 848.151 428.18ZM848.151 426.47C849.501 426.47 850.599 425.426 850.599 423.176C850.599 420.908 849.483 419.954 848.151 419.954C846.819 419.954 845.703 420.908 845.703 423.176C845.703 425.426 846.819 426.47 848.151 426.47ZM854.281 421.088C854.281 419.468 855.775 418.244 858.025 418.244C859.879 418.244 861.121 418.91 861.787 420.188L860.383 421.052C859.951 420.314 859.087 419.864 858.007 419.864C856.927 419.864 856.189 420.278 856.189 420.962C856.189 421.52 856.567 421.862 857.413 422.024L859.015 422.348C861.031 422.744 862.039 423.698 862.039 425.156C862.039 426.956 860.473 428.162 858.115 428.162C856.117 428.162 854.695 427.406 853.957 426.02L855.361 425.138C855.883 426.02 856.801 426.524 858.061 426.524C859.285 426.524 860.113 426.038 860.113 425.246C860.113 424.598 859.717 424.238 858.835 424.058L857.071 423.716C855.271 423.374 854.281 422.456 854.281 421.088ZM866.636 425.048C866.636 426.11 867.284 426.434 867.95 426.434C868.472 426.434 868.886 426.218 869.3 425.804L870.164 427.1C869.444 427.82 868.652 428.162 867.626 428.162C865.97 428.162 864.62 427.154 864.62 425.174V420.026H862.946V418.46H864.62V416.336L866.636 415.418V418.46H870.002V420.026H866.636V425.048ZM876.716 418.244C878.66 418.244 879.812 419.504 879.812 421.574V428H877.796V421.898C877.796 420.584 877.166 419.99 876.068 419.99C874.646 419.99 873.926 420.98 873.926 422.834V428H871.91V418.46H873.926V419.828C874.574 418.82 875.528 418.244 876.716 418.244ZM888.067 418.46H890.083V428H888.067V426.596C887.455 427.64 886.501 428.162 885.331 428.162C883.369 428.162 882.235 426.902 882.235 424.832V418.46H884.251V424.526C884.251 425.768 884.863 426.434 885.961 426.434C887.365 426.434 888.067 425.426 888.067 423.572V418.46ZM903.256 418.244C905.164 418.244 906.262 419.486 906.262 421.484V428H904.246V421.826C904.246 420.566 903.652 419.99 902.608 419.99C901.204 419.99 900.502 420.962 900.502 422.834V428H898.486V421.826C898.486 420.566 897.892 419.99 896.848 419.99C895.462 419.99 894.76 420.962 894.76 422.834V428H892.744V418.46H894.76V419.81C895.408 418.784 896.344 418.244 897.496 418.244C898.954 418.244 899.908 418.946 900.322 420.134C900.97 418.874 901.978 418.244 903.256 418.244ZM919.527 418.244C921.435 418.244 922.533 419.486 922.533 421.484V428H920.517V421.826C920.517 420.566 919.923 419.99 918.879 419.99C917.475 419.99 916.773 420.962 916.773 422.834V428H914.757V421.826C914.757 420.566 914.163 419.99 913.119 419.99C911.733 419.99 911.031 420.962 911.031 422.834V428H909.015V418.46H911.031V419.81C911.679 418.784 912.615 418.244 913.767 418.244C915.225 418.244 916.179 418.946 916.593 420.134C917.241 418.874 918.249 418.244 919.527 418.244ZM931.838 424.994L933.206 425.786C932.666 426.974 931.406 428.162 929.228 428.162C926.402 428.162 924.692 426.074 924.692 423.14C924.692 420.242 926.546 418.244 929.084 418.244C931.334 418.244 933.188 419.756 933.188 422.456L933.152 423.644H926.672C926.78 425.66 927.77 426.524 929.354 426.524C930.524 426.524 931.334 425.894 931.838 424.994ZM929.084 419.828C927.86 419.828 926.834 420.476 926.672 422.204H931.226C931.244 420.512 930.2 419.828 929.084 419.828ZM939.848 418.244C941.234 418.244 942.134 419.162 942.134 420.8V422.06L940.514 422.348V421.376C940.514 420.512 940.208 419.918 939.272 419.918C938.246 419.918 937.49 420.602 937.49 422.42V428H935.474V418.46H937.49V419.738C938.03 418.676 939.02 418.244 939.848 418.244Z" fill="#2A2859"/>
<rect x="833" y="445" width="178" height="46" fill="white"/>
<path d="M853.76 474.144C851.132 474.144 848.9 471.66 848.9 467.34C848.9 463.02 851.114 460.536 853.76 460.536C856.406 460.536 858.62 463.02 858.62 467.34C858.62 471.66 856.388 474.144 853.76 474.144ZM853.76 472.956C855.74 472.956 857.36 471.318 857.36 467.34C857.36 463.452 855.758 461.724 853.76 461.724C851.762 461.724 850.16 463.452 850.16 467.34C850.16 471.318 851.78 472.956 853.76 472.956ZM865.884 472.956H868.836V474H861.564V472.956H864.66V462.084L861.744 464.1V462.768L864.732 460.68H865.884V472.956ZM876.639 474.144C873.579 474.144 871.815 471.606 871.815 467.268C871.815 463.434 873.705 460.536 877.107 460.536C878.961 460.536 880.239 461.472 880.833 462.93L879.735 463.47C879.267 462.354 878.223 461.652 877.035 461.652C874.389 461.652 872.697 464.082 873.039 468.348C873.651 466.494 875.235 465.558 876.837 465.558C878.889 465.558 880.995 467.142 880.995 469.788C880.995 471.93 879.555 474.144 876.639 474.144ZM873.579 469.824C873.579 471.894 875.019 473.028 876.711 473.028C878.403 473.028 879.771 471.912 879.771 469.824C879.771 468.06 878.439 466.71 876.675 466.71C875.073 466.71 873.579 467.754 873.579 469.824ZM887.953 474.144C884.893 474.144 883.129 471.606 883.129 467.268C883.129 463.434 885.019 460.536 888.421 460.536C890.275 460.536 891.553 461.472 892.147 462.93L891.049 463.47C890.581 462.354 889.537 461.652 888.349 461.652C885.703 461.652 884.011 464.082 884.353 468.348C884.965 466.494 886.549 465.558 888.151 465.558C890.203 465.558 892.309 467.142 892.309 469.788C892.309 471.93 890.869 474.144 887.953 474.144ZM884.893 469.824C884.893 471.894 886.333 473.028 888.025 473.028C889.717 473.028 891.085 471.912 891.085 469.824C891.085 468.06 889.753 466.71 887.989 466.71C886.387 466.71 884.893 467.754 884.893 469.824Z" fill="#2A2859"/>
<rect x="833" y="445" width="178" height="46" stroke="#2A2859" stroke-width="2"/>
<path d="M1033.14 414.68C1036.14 414.68 1038 416.444 1038 419.072C1038 421.7 1036.05 423.464 1033.03 423.464H1030.67V428H1028.57V414.68H1033.14ZM1033.21 421.628C1034.87 421.628 1035.82 420.746 1035.82 419.144C1035.82 417.47 1034.87 416.588 1033.19 416.588H1030.67V421.628H1033.21ZM1043.15 428.18C1040.67 428.18 1038.63 426.236 1038.63 423.176C1038.63 420.188 1040.65 418.244 1043.15 418.244C1045.65 418.244 1047.67 420.188 1047.67 423.176C1047.67 426.236 1045.63 428.18 1043.15 428.18ZM1043.15 426.47C1044.5 426.47 1045.6 425.426 1045.6 423.176C1045.6 420.908 1044.48 419.954 1043.15 419.954C1041.82 419.954 1040.7 420.908 1040.7 423.176C1040.7 425.426 1041.82 426.47 1043.15 426.47ZM1049.28 421.088C1049.28 419.468 1050.77 418.244 1053.02 418.244C1054.88 418.244 1056.12 418.91 1056.79 420.188L1055.38 421.052C1054.95 420.314 1054.09 419.864 1053.01 419.864C1051.93 419.864 1051.19 420.278 1051.19 420.962C1051.19 421.52 1051.57 421.862 1052.41 422.024L1054.01 422.348C1056.03 422.744 1057.04 423.698 1057.04 425.156C1057.04 426.956 1055.47 428.162 1053.11 428.162C1051.12 428.162 1049.69 427.406 1048.96 426.02L1050.36 425.138C1050.88 426.02 1051.8 426.524 1053.06 426.524C1054.28 426.524 1055.11 426.038 1055.11 425.246C1055.11 424.598 1054.72 424.238 1053.83 424.058L1052.07 423.716C1050.27 423.374 1049.28 422.456 1049.28 421.088ZM1061.64 425.048C1061.64 426.11 1062.28 426.434 1062.95 426.434C1063.47 426.434 1063.89 426.218 1064.3 425.804L1065.16 427.1C1064.44 427.82 1063.65 428.162 1062.63 428.162C1060.97 428.162 1059.62 427.154 1059.62 425.174V420.026H1057.95V418.46H1059.62V416.336L1061.64 415.418V418.46H1065V420.026H1061.64V425.048ZM1066.14 421.088C1066.14 419.468 1067.64 418.244 1069.89 418.244C1071.74 418.244 1072.98 418.91 1073.65 420.188L1072.24 421.052C1071.81 420.314 1070.95 419.864 1069.87 419.864C1068.79 419.864 1068.05 420.278 1068.05 420.962C1068.05 421.52 1068.43 421.862 1069.27 422.024L1070.88 422.348C1072.89 422.744 1073.9 423.698 1073.9 425.156C1073.9 426.956 1072.33 428.162 1069.98 428.162C1067.98 428.162 1066.56 427.406 1065.82 426.02L1067.22 425.138C1067.74 426.02 1068.66 426.524 1069.92 426.524C1071.15 426.524 1071.97 426.038 1071.97 425.246C1071.97 424.598 1071.58 424.238 1070.7 424.058L1068.93 423.716C1067.13 423.374 1066.14 422.456 1066.14 421.088ZM1078.5 425.048C1078.5 426.11 1079.15 426.434 1079.81 426.434C1080.33 426.434 1080.75 426.218 1081.16 425.804L1082.03 427.1C1081.31 427.82 1080.51 428.162 1079.49 428.162C1077.83 428.162 1076.48 427.154 1076.48 425.174V420.026H1074.81V418.46H1076.48V416.336L1078.5 415.418V418.46H1081.86V420.026H1078.5V425.048ZM1089.87 424.994L1091.23 425.786C1090.69 426.974 1089.43 428.162 1087.26 428.162C1084.43 428.162 1082.72 426.074 1082.72 423.14C1082.72 420.242 1084.57 418.244 1087.11 418.244C1089.36 418.244 1091.22 419.756 1091.22 422.456L1091.18 423.644H1084.7C1084.81 425.66 1085.8 426.524 1087.38 426.524C1088.55 426.524 1089.36 425.894 1089.87 424.994ZM1087.11 419.828C1085.89 419.828 1084.86 420.476 1084.7 422.204H1089.25C1089.27 420.512 1088.23 419.828 1087.11 419.828ZM1099.86 414.68H1101.87V428H1099.86V426.272C1099.12 427.604 1097.97 428.144 1096.87 428.144C1094.57 428.144 1092.91 426.164 1092.91 423.266C1092.91 420.26 1094.58 418.262 1097.1 418.262C1098.18 418.262 1099.26 418.748 1099.86 419.918V414.68ZM1097.41 426.38C1098.87 426.38 1099.86 425.39 1099.86 423.158C1099.86 420.944 1098.89 419.882 1097.41 419.882C1096.02 419.882 1095 420.998 1095 423.158C1095 425.3 1096.02 426.38 1097.41 426.38Z" fill="#2A2859"/>
<rect x="1028" y="445" width="303" height="46" fill="white"/>
<rect x="1028" y="445" width="303" height="46" stroke="#2A2859" stroke-width="2"/>
<path d="M842.62 202.68V204.624H838.642V216H836.536V204.624H832.558V202.68H842.62ZM849.654 212.994L851.022 213.786C850.482 214.974 849.222 216.162 847.044 216.162C844.218 216.162 842.508 214.074 842.508 211.14C842.508 208.242 844.362 206.244 846.9 206.244C849.15 206.244 851.004 207.756 851.004 210.456L850.968 211.644H844.488C844.596 213.66 845.586 214.524 847.17 214.524C848.34 214.524 849.15 213.894 849.654 212.994ZM846.9 207.828C845.676 207.828 844.65 208.476 844.488 210.204H849.042C849.06 208.512 848.016 207.828 846.9 207.828ZM857.124 215.946C856.746 216.054 856.368 216.108 855.972 216.108C854.154 216.108 853.29 215.028 853.29 213.282V202.68H855.306V213.138C855.306 213.966 855.792 214.344 856.53 214.344C856.71 214.344 856.908 214.326 857.124 214.272V215.946ZM865.39 212.994L866.758 213.786C866.218 214.974 864.958 216.162 862.78 216.162C859.954 216.162 858.244 214.074 858.244 211.14C858.244 208.242 860.098 206.244 862.636 206.244C864.886 206.244 866.74 207.756 866.74 210.456L866.704 211.644H860.224C860.332 213.66 861.322 214.524 862.906 214.524C864.076 214.524 864.886 213.894 865.39 212.994ZM862.636 207.828C861.412 207.828 860.386 208.476 860.224 210.204H864.778C864.796 208.512 863.752 207.828 862.636 207.828ZM871.463 205.596V206.46H874.145V208.026H871.463V216H869.447V208.026H867.773V206.46H869.447V205.686C869.447 203.616 870.797 202.41 872.669 202.41C873.551 202.41 874.433 202.77 874.955 203.418L874.001 204.75C873.713 204.39 873.281 204.174 872.813 204.174C872.075 204.174 871.463 204.606 871.463 205.596ZM879.132 216.18C876.648 216.18 874.614 214.236 874.614 211.176C874.614 208.188 876.63 206.244 879.132 206.244C881.634 206.244 883.65 208.188 883.65 211.176C883.65 214.236 881.616 216.18 879.132 216.18ZM879.132 214.47C880.482 214.47 881.58 213.426 881.58 211.176C881.58 208.908 880.464 207.954 879.132 207.954C877.8 207.954 876.684 208.908 876.684 211.176C876.684 213.426 877.8 214.47 879.132 214.47ZM890.572 206.244C892.516 206.244 893.668 207.504 893.668 209.574V216H891.652V209.898C891.652 208.584 891.022 207.99 889.924 207.99C888.502 207.99 887.782 208.98 887.782 210.834V216H885.766V206.46H887.782V207.828C888.43 206.82 889.384 206.244 890.572 206.244ZM901.2 206.244C903.144 206.244 904.296 207.504 904.296 209.574V216H902.28V209.898C902.28 208.584 901.65 207.99 900.552 207.99C899.13 207.99 898.41 208.98 898.41 210.834V216H896.394V206.46H898.41V207.828C899.058 206.82 900.012 206.244 901.2 206.244ZM912.551 206.46H914.567V216H912.551V214.596C911.939 215.64 910.985 216.162 909.815 216.162C907.853 216.162 906.719 214.902 906.719 212.832V206.46H908.735V212.526C908.735 213.768 909.347 214.434 910.445 214.434C911.849 214.434 912.551 213.426 912.551 211.572V206.46ZM927.74 206.244C929.648 206.244 930.746 207.486 930.746 209.484V216H928.73V209.826C928.73 208.566 928.136 207.99 927.092 207.99C925.688 207.99 924.986 208.962 924.986 210.834V216H922.97V209.826C922.97 208.566 922.376 207.99 921.332 207.99C919.946 207.99 919.244 208.962 919.244 210.834V216H917.228V206.46H919.244V207.81C919.892 206.784 920.828 206.244 921.98 206.244C923.438 206.244 924.392 206.946 924.806 208.134C925.454 206.874 926.462 206.244 927.74 206.244ZM944.011 206.244C945.919 206.244 947.017 207.486 947.017 209.484V216H945.001V209.826C945.001 208.566 944.407 207.99 943.363 207.99C941.959 207.99 941.257 208.962 941.257 210.834V216H939.241V209.826C939.241 208.566 938.647 207.99 937.603 207.99C936.217 207.99 935.515 208.962 935.515 210.834V216H933.499V206.46H935.515V207.81C936.163 206.784 937.099 206.244 938.251 206.244C939.709 206.244 940.663 206.946 941.077 208.134C941.725 206.874 942.733 206.244 944.011 206.244ZM956.322 212.994L957.69 213.786C957.15 214.974 955.89 216.162 953.712 216.162C950.886 216.162 949.176 214.074 949.176 211.14C949.176 208.242 951.03 206.244 953.568 206.244C955.818 206.244 957.672 207.756 957.672 210.456L957.636 211.644H951.156C951.264 213.66 952.254 214.524 953.838 214.524C955.008 214.524 955.818 213.894 956.322 212.994ZM953.568 207.828C952.344 207.828 951.318 208.476 951.156 210.204H955.71C955.728 208.512 954.684 207.828 953.568 207.828ZM964.332 206.244C965.718 206.244 966.618 207.162 966.618 208.8V210.06L964.998 210.348V209.376C964.998 208.512 964.692 207.918 963.756 207.918C962.73 207.918 961.974 208.602 961.974 210.42V216H959.958V206.46H961.974V207.738C962.514 206.676 963.504 206.244 964.332 206.244Z" fill="#2A2859"/>
<rect x="833" y="233" width="498" height="46" fill="white"/>
<path d="M858.08 254.872V255.916H854.3V259.732H853.22V255.916H849.44V254.872H853.22V251.056H854.3V254.872H858.08ZM874.375 257.356V258.472H872.071V262H870.883V258.472H864.907V257.464L868.093 248.68H869.245L866.149 257.356H870.883V253.396L872.071 253.036V257.356H874.375ZM876.545 248.68H885.833V249.724L879.497 262H878.129L884.537 249.796H877.697V252.64H876.545V248.68Z" fill="#2A2859"/>
<path d="M894 242V270H896V242H894Z" fill="#2A2859" mask="url(#path-28-inside-2_5523_177151)"/>
<path d="M909.57 260.956H912.522V262H905.25V260.956H908.346V250.084L905.43 252.1V250.768L908.418 248.68H909.57V260.956ZM917.59 260.848H924.61V262H915.898V261.064L920.686 255.736C922.108 254.17 922.702 253.306 922.702 252.1C922.702 250.75 921.802 249.652 920.038 249.652C918.67 249.652 917.5 250.264 916.906 251.938L915.79 251.56C916.654 249.364 918.202 248.536 920.092 248.536C922.666 248.536 923.962 250.3 923.962 251.992C923.962 253.468 923.404 254.458 921.532 256.528L917.59 260.848ZM933.439 254.962C934.771 255.412 935.815 256.528 935.815 258.256C935.815 260.398 934.033 262.144 931.189 262.144C929.479 262.144 927.823 261.496 926.563 259.696L927.499 258.94C928.489 260.38 929.623 261.028 931.297 261.028C933.349 261.028 934.591 259.786 934.591 258.256C934.591 257.158 934.141 256.51 933.493 256.114C932.971 255.808 932.503 255.664 931.639 255.664H929.857V254.584H931.225C932.305 254.584 932.719 254.422 933.205 254.044C933.745 253.612 934.069 252.928 934.069 252.1C934.069 250.624 932.953 249.652 931.153 249.652C929.749 249.652 928.561 250.3 927.913 252.01L926.833 251.632C927.751 249.436 929.317 248.536 931.225 248.536C933.925 248.536 935.257 250.318 935.257 252.064C935.257 253.36 934.501 254.44 933.439 254.962ZM952.002 257.356V258.472H949.698V262H948.51V258.472H942.534V257.464L945.72 248.68H946.872L943.776 257.356H948.51V253.396L949.698 253.036V257.356H952.002ZM958.816 253.432C961.282 253.432 963.028 255.178 963.028 257.572C963.028 260.146 961.138 262.144 958.168 262.144C956.512 262.144 954.856 261.496 953.596 259.696L954.532 258.94C955.522 260.38 956.71 261.028 958.312 261.028C960.382 261.028 961.804 259.516 961.804 257.644C961.804 255.772 960.562 254.548 958.708 254.548C957.412 254.548 956.584 254.944 955.414 256.042L954.424 255.664L954.874 248.68H962.02V249.832H955.936L955.576 254.692C956.44 253.882 957.592 253.432 958.816 253.432ZM974.391 262.144C971.331 262.144 969.567 259.606 969.567 255.268C969.567 251.434 971.457 248.536 974.859 248.536C976.713 248.536 977.991 249.472 978.585 250.93L977.487 251.47C977.019 250.354 975.975 249.652 974.787 249.652C972.141 249.652 970.449 252.082 970.791 256.348C971.403 254.494 972.987 253.558 974.589 253.558C976.641 253.558 978.747 255.142 978.747 257.788C978.747 259.93 977.307 262.144 974.391 262.144ZM971.331 257.824C971.331 259.894 972.771 261.028 974.463 261.028C976.155 261.028 977.523 259.912 977.523 257.824C977.523 256.06 976.191 254.71 974.427 254.71C972.825 254.71 971.331 255.754 971.331 257.824ZM981.205 248.68H990.493V249.724L984.157 262H982.789L989.197 249.796H982.357V252.64H981.205V248.68ZM996.767 262.144C993.995 262.144 992.087 260.524 992.087 258.4C992.087 256.816 993.203 255.556 994.787 255.124C993.347 254.584 992.627 253.288 992.627 252.1C992.627 250.03 994.391 248.536 996.767 248.536C999.143 248.536 1000.91 250.03 1000.91 252.1C1000.91 253.288 1000.19 254.584 998.747 255.124C1000.33 255.556 1001.45 256.816 1001.45 258.4C1001.45 260.524 999.539 262.144 996.767 262.144ZM996.767 254.584C998.423 254.584 999.719 253.756 999.719 252.172C999.719 250.354 998.261 249.58 996.767 249.58C995.273 249.58 993.815 250.336 993.815 252.172C993.815 253.756 995.111 254.584 996.767 254.584ZM996.767 261.028C998.783 261.028 1000.26 260.128 1000.26 258.256C1000.26 256.51 998.747 255.664 996.767 255.664C994.787 255.664 993.275 256.51 993.275 258.256C993.275 260.146 994.751 261.028 996.767 261.028Z" fill="#2A2859"/>
<rect x="833" y="233" width="498" height="46" stroke="#2A2859" stroke-width="2"/>
<path opacity="0.6" d="M832 159H1332V170H832V159Z" fill="#FF8274"/>
<path d="M851.186 143H852.61V131.16H851.186V143ZM860.453 143H862.133L858.469 138.024L862.069 134.52H860.325L856.533 138.328V131.16H855.157V143H856.533V139.912L857.541 138.92L860.453 143ZM869.034 143H870.714L867.05 138.024L870.65 134.52H868.906L865.114 138.328V131.16H863.738V143H865.114V139.912L866.122 138.92L869.034 143ZM877.471 140.488C877.055 141.304 876.303 141.976 875.135 141.976C873.599 141.976 872.591 141.096 872.495 139.016H878.367L878.399 138.04C878.399 135.688 876.783 134.36 874.895 134.36C872.671 134.36 871.119 136.136 871.119 138.664C871.119 141.32 872.575 143.144 875.023 143.144C876.927 143.144 877.999 142.088 878.447 141.032L877.471 140.488ZM874.895 135.512C876.031 135.512 877.071 136.232 877.055 137.944H872.495C872.655 136.136 873.695 135.512 874.895 135.512ZM883.909 136.776C883.909 137.944 884.757 138.744 886.325 139.064L887.781 139.352C888.757 139.56 889.173 139.944 889.173 140.648C889.173 141.448 888.357 141.976 887.141 141.976C885.941 141.976 885.093 141.512 884.661 140.648L883.605 141.208C884.213 142.456 885.445 143.128 887.173 143.128C889.157 143.128 890.501 142.088 890.501 140.568C890.501 139.288 889.621 138.472 887.781 138.104L886.549 137.864C885.637 137.672 885.237 137.304 885.237 136.68C885.237 135.96 885.957 135.528 887.045 135.528C888.085 135.528 888.853 135.944 889.205 136.696L890.245 136.168C889.797 135.048 888.645 134.36 887.077 134.36C885.205 134.36 883.909 135.4 883.909 136.776ZM895.335 142.968V141.784C895.159 141.832 894.983 141.848 894.823 141.848C894.151 141.848 893.751 141.496 893.751 140.76V131.16H892.375V140.824C892.375 142.2 893.063 143.08 894.503 143.08C894.791 143.08 895.047 143.032 895.335 142.968ZM897.801 133.032C898.393 133.032 898.873 132.568 898.873 131.944C898.873 131.336 898.393 130.872 897.801 130.872C897.193 130.872 896.713 131.336 896.713 131.944C896.713 132.568 897.193 133.032 897.801 133.032ZM897.113 143H898.489V134.52H897.113V143ZM906.35 143H908.03L904.366 138.024L907.966 134.52H906.222L902.43 138.328V131.16H901.054V143H902.43V139.912L903.438 138.92L906.35 143Z" fill="#2A2859"/>
</svg>
