<svg width="1116" height="505" viewBox="0 0 1116 505" fill="none" xmlns="http://www.w3.org/2000/svg">
<rect width="1116" height="505" fill="white"/>
<rect x="308" y="107" width="500" height="346" fill="#F1FDFF"/>
<path d="M311.672 273H309.566V259.68H317.81V261.624H311.672V265.692H316.766V267.618H311.672V273ZM325.283 264.036C326.489 264.864 327.263 266.322 327.263 268.176C327.263 271.236 325.229 273.18 322.745 273.18C322.115 273.18 321.521 273.054 320.963 272.82L320.405 273.972H319.379L320.171 272.37C319.001 271.524 318.227 270.066 318.227 268.176C318.227 265.188 320.243 263.244 322.745 263.244C323.375 263.244 323.951 263.37 324.491 263.586L325.049 262.47H326.057L325.283 264.036ZM320.297 268.176C320.297 269.292 320.567 270.12 321.017 270.66L323.717 265.152C323.429 265.026 323.087 264.954 322.745 264.954C321.413 264.954 320.297 265.908 320.297 268.176ZM322.745 271.47C324.095 271.47 325.193 270.426 325.193 268.176C325.193 267.042 324.905 266.232 324.473 265.71L321.737 271.254C322.043 271.398 322.385 271.47 322.745 271.47ZM335.732 259.68H337.748V273H335.732V271.272C334.994 272.604 333.842 273.144 332.744 273.144C330.44 273.144 328.784 271.164 328.784 268.266C328.784 265.26 330.458 263.262 332.978 263.262C334.058 263.262 335.138 263.748 335.732 264.918V259.68ZM333.284 271.38C334.742 271.38 335.732 270.39 335.732 268.158C335.732 265.944 334.76 264.882 333.284 264.882C331.898 264.882 330.872 265.998 330.872 268.158C330.872 270.3 331.898 271.38 333.284 271.38ZM339.889 266.088C339.889 264.468 341.383 263.244 343.633 263.244C345.487 263.244 346.729 263.91 347.395 265.188L345.991 266.052C345.559 265.314 344.695 264.864 343.615 264.864C342.535 264.864 341.797 265.278 341.797 265.962C341.797 266.52 342.175 266.862 343.021 267.024L344.623 267.348C346.639 267.744 347.647 268.698 347.647 270.156C347.647 271.956 346.081 273.162 343.723 273.162C341.725 273.162 340.303 272.406 339.565 271.02L340.969 270.138C341.491 271.02 342.409 271.524 343.669 271.524C344.893 271.524 345.721 271.038 345.721 270.246C345.721 269.598 345.325 269.238 344.443 269.058L342.679 268.716C340.879 268.374 339.889 267.456 339.889 266.088ZM356.079 269.994L357.447 270.786C356.907 271.974 355.647 273.162 353.469 273.162C350.643 273.162 348.933 271.074 348.933 268.14C348.933 265.242 350.787 263.244 353.325 263.244C355.575 263.244 357.429 264.756 357.429 267.456L357.393 268.644H350.913C351.021 270.66 352.011 271.524 353.595 271.524C354.765 271.524 355.575 270.894 356.079 269.994ZM353.325 264.828C352.101 264.828 351.075 265.476 350.913 267.204H355.467C355.485 265.512 354.441 264.828 353.325 264.828ZM363.55 272.946C363.172 273.054 362.794 273.108 362.398 273.108C360.58 273.108 359.716 272.028 359.716 270.282V259.68H361.732V270.138C361.732 270.966 362.218 271.344 362.956 271.344C363.136 271.344 363.334 271.326 363.55 271.272V272.946ZM364.971 266.088C364.971 264.468 366.465 263.244 368.715 263.244C370.569 263.244 371.811 263.91 372.477 265.188L371.073 266.052C370.641 265.314 369.777 264.864 368.697 264.864C367.617 264.864 366.879 265.278 366.879 265.962C366.879 266.52 367.257 266.862 368.103 267.024L369.705 267.348C371.721 267.744 372.729 268.698 372.729 270.156C372.729 271.956 371.163 273.162 368.805 273.162C366.807 273.162 365.385 272.406 364.647 271.02L366.051 270.138C366.573 271.02 367.491 271.524 368.751 271.524C369.975 271.524 370.803 271.038 370.803 270.246C370.803 269.598 370.407 269.238 369.525 269.058L367.761 268.716C365.961 268.374 364.971 267.456 364.971 266.088ZM379.608 263.244C381.552 263.244 382.704 264.504 382.704 266.574V273H380.688V266.898C380.688 265.584 380.058 264.99 378.96 264.99C377.538 264.99 376.818 265.98 376.818 267.834V273H374.802V263.46H376.818V264.828C377.466 263.82 378.42 263.244 379.608 263.244ZM390.959 263.46H392.975V273H390.959V271.596C390.347 272.64 389.393 273.162 388.223 273.162C386.261 273.162 385.127 271.902 385.127 269.832V263.46H387.143V269.526C387.143 270.768 387.755 271.434 388.853 271.434C390.257 271.434 390.959 270.426 390.959 268.572V263.46ZM406.149 263.244C408.057 263.244 409.155 264.486 409.155 266.484V273H407.139V266.826C407.139 265.566 406.545 264.99 405.501 264.99C404.097 264.99 403.395 265.962 403.395 267.834V273H401.379V266.826C401.379 265.566 400.785 264.99 399.741 264.99C398.355 264.99 397.653 265.962 397.653 267.834V273H395.637V263.46H397.653V264.81C398.301 263.784 399.237 263.244 400.389 263.244C401.847 263.244 402.801 263.946 403.215 265.134C403.863 263.874 404.871 263.244 406.149 263.244ZM422.419 263.244C424.327 263.244 425.425 264.486 425.425 266.484V273H423.409V266.826C423.409 265.566 422.815 264.99 421.771 264.99C420.367 264.99 419.665 265.962 419.665 267.834V273H417.649V266.826C417.649 265.566 417.055 264.99 416.011 264.99C414.625 264.99 413.923 265.962 413.923 267.834V273H411.907V263.46H413.923V264.81C414.571 263.784 415.507 263.244 416.659 263.244C418.117 263.244 419.071 263.946 419.485 265.134C420.133 263.874 421.141 263.244 422.419 263.244ZM434.73 269.994L436.098 270.786C435.558 271.974 434.298 273.162 432.12 273.162C429.294 273.162 427.584 271.074 427.584 268.14C427.584 265.242 429.438 263.244 431.976 263.244C434.226 263.244 436.08 264.756 436.08 267.456L436.044 268.644H429.564C429.672 270.66 430.662 271.524 432.246 271.524C433.416 271.524 434.226 270.894 434.73 269.994ZM431.976 264.828C430.752 264.828 429.726 265.476 429.564 267.204H434.118C434.136 265.512 433.092 264.828 431.976 264.828ZM442.741 263.244C444.127 263.244 445.027 264.162 445.027 265.8V267.06L443.407 267.348V266.376C443.407 265.512 443.101 264.918 442.165 264.918C441.139 264.918 440.383 265.602 440.383 267.42V273H438.367V263.46H440.383V264.738C440.923 263.676 441.913 263.244 442.741 263.244Z" fill="#2A2859"/>
<rect x="309" y="290" width="163" height="46" fill="white"/>
<rect x="309" y="290" width="163" height="46" stroke="#2A2859" stroke-width="2"/>
<path d="M309.242 379.388C309.242 377.03 311.42 375.5 314.012 375.5C316.136 375.5 317.828 376.238 318.854 378.002L317.108 379.082C316.532 378.002 315.308 377.372 313.994 377.372C312.428 377.372 311.366 378.074 311.366 379.226C311.366 380.18 311.96 380.81 313.256 381.026L315.308 381.332C317.63 381.692 319.25 382.952 319.25 385.094C319.25 387.344 317.342 389.18 314.156 389.18C311.888 389.18 310.016 388.388 308.882 386.462L310.646 385.328C311.492 386.858 312.932 387.29 314.174 387.29C315.956 387.29 317.054 386.39 317.054 385.166C317.054 384.05 316.352 383.546 315.056 383.33L312.788 382.97C310.646 382.646 309.242 381.404 309.242 379.388ZM322.588 377.876C321.796 377.876 321.166 377.264 321.166 376.454C321.166 375.644 321.796 375.032 322.588 375.032C323.38 375.032 323.992 375.644 323.992 376.454C323.992 377.264 323.38 377.876 322.588 377.876ZM321.58 389V379.46H323.596V389H321.58ZM332.562 379.46H334.65L330.996 389H328.926L325.29 379.46H327.522L330.042 386.894L332.562 379.46ZM335.923 375.32H338.389V377.75H335.923V375.32ZM336.157 389V379.46H338.173V389H336.157ZM344.888 388.946C344.51 389.054 344.132 389.108 343.736 389.108C341.918 389.108 341.054 388.028 341.054 386.282V375.68H343.07V386.138C343.07 386.966 343.556 387.344 344.294 387.344C344.474 387.344 344.672 387.326 344.888 387.272V388.946ZM346.309 382.088C346.309 380.468 347.803 379.244 350.053 379.244C351.907 379.244 353.149 379.91 353.815 381.188L352.411 382.052C351.979 381.314 351.115 380.864 350.035 380.864C348.955 380.864 348.217 381.278 348.217 381.962C348.217 382.52 348.595 382.862 349.441 383.024L351.043 383.348C353.059 383.744 354.067 384.698 354.067 386.156C354.067 387.956 352.501 389.162 350.143 389.162C348.145 389.162 346.723 388.406 345.985 387.02L347.389 386.138C347.911 387.02 348.829 387.524 350.089 387.524C351.313 387.524 352.141 387.038 352.141 386.246C352.141 385.598 351.745 385.238 350.863 385.058L349.099 384.716C347.299 384.374 346.309 383.456 346.309 382.088ZM358.665 386.048C358.665 387.11 359.313 387.434 359.979 387.434C360.501 387.434 360.915 387.218 361.329 386.804L362.193 388.1C361.473 388.82 360.681 389.162 359.655 389.162C357.999 389.162 356.649 388.154 356.649 386.174V381.026H354.975V379.46H356.649V377.336L358.665 376.418V379.46H362.031V381.026H358.665V386.048ZM371.361 389H369.507C369.363 388.514 369.273 387.938 369.237 387.2C368.787 388.19 367.779 389.162 366.123 389.162C364.395 389.162 363.171 387.992 363.171 386.336C363.171 384.266 365.007 383.24 367.059 383.24C367.707 383.24 368.319 383.294 368.985 383.474V382.574C368.985 381.548 368.337 380.882 367.167 380.882C366.069 380.882 365.295 381.476 364.935 382.592L363.225 382.07C363.909 380.054 365.547 379.244 367.257 379.244C369.795 379.244 370.947 380.738 370.947 382.556V386.246C370.947 387.38 371.127 388.388 371.361 389ZM368.985 385.058V384.842C368.409 384.644 367.851 384.572 367.257 384.572C366.069 384.572 365.151 385.112 365.151 386.156C365.151 387.038 365.781 387.596 366.735 387.596C367.707 387.596 368.985 387.02 368.985 385.058ZM376.195 386.048C376.195 387.11 376.843 387.434 377.509 387.434C378.031 387.434 378.445 387.218 378.859 386.804L379.723 388.1C379.003 388.82 378.211 389.162 377.185 389.162C375.529 389.162 374.179 388.154 374.179 386.174V381.026H372.505V379.46H374.179V377.336L376.195 376.418V379.46H379.561V381.026H376.195V386.048ZM386.927 379.46H388.943V389H386.927V387.596C386.315 388.64 385.361 389.162 384.191 389.162C382.229 389.162 381.095 387.902 381.095 385.832V379.46H383.111V385.526C383.111 386.768 383.723 387.434 384.821 387.434C386.225 387.434 386.927 386.426 386.927 384.572V379.46ZM391.1 382.088C391.1 380.468 392.594 379.244 394.844 379.244C396.698 379.244 397.94 379.91 398.606 381.188L397.202 382.052C396.77 381.314 395.906 380.864 394.826 380.864C393.746 380.864 393.008 381.278 393.008 381.962C393.008 382.52 393.386 382.862 394.232 383.024L395.834 383.348C397.85 383.744 398.858 384.698 398.858 386.156C398.858 387.956 397.292 389.162 394.934 389.162C392.936 389.162 391.514 388.406 390.776 387.02L392.18 386.138C392.702 387.02 393.62 387.524 394.88 387.524C396.104 387.524 396.932 387.038 396.932 386.246C396.932 385.598 396.536 385.238 395.654 385.058L393.89 384.716C392.09 384.374 391.1 383.456 391.1 382.088Z" fill="#2A2859"/>
<rect x="309" y="406" width="498" height="46" fill="white"/>
<path d="M334.188 421.68H335.52L330.642 435H329.382L324.54 421.68H325.908L330.03 433.542L334.188 421.68ZM342.657 432.3L343.557 432.804C343.107 433.956 341.919 435.144 339.795 435.144C337.113 435.144 335.529 433.146 335.529 430.104C335.529 427.314 337.185 425.316 339.669 425.316C341.721 425.316 343.485 426.792 343.485 429.384L343.449 430.446H336.771C336.879 432.984 338.085 434.064 339.921 434.064C341.361 434.064 342.207 433.236 342.657 432.3ZM339.669 426.396C338.229 426.396 336.933 427.17 336.771 429.438H342.279C342.333 427.296 341.073 426.396 339.669 426.396ZM348.861 434.964C348.573 435.036 348.339 435.072 348.069 435.072C346.575 435.072 345.873 434.136 345.873 432.732V421.68H347.097V432.732C347.097 433.542 347.529 433.956 348.285 433.956C348.483 433.956 348.681 433.938 348.861 433.884V434.964ZM359.11 426.468H357.058V426.81C357.526 427.386 357.778 428.106 357.778 428.808C357.778 430.554 356.518 432.336 353.836 432.336H353.422C352.342 432.336 351.568 432.75 351.568 433.38C351.568 433.866 351.946 434.208 352.738 434.208H356.608C358.156 434.208 358.948 434.964 358.948 436.152C358.948 438.042 356.77 439.032 354.088 439.032C351.676 439.032 350.002 438.258 349.426 436.584L350.416 436.134C351.082 437.7 352.486 438.006 354.088 438.006C356.068 438.006 357.724 437.412 357.724 436.26C357.724 435.72 357.436 435.324 356.572 435.324H352.468C351.136 435.324 350.344 434.694 350.344 433.704C350.344 432.858 351.046 432.12 352.216 431.814C350.956 431.31 350.254 429.978 350.254 428.808C350.254 427.098 351.532 425.316 354.052 425.316C355.042 425.316 355.798 425.64 356.374 426.126V425.46H359.11V426.468ZM354.034 431.328C355.726 431.328 356.572 430.158 356.572 428.808C356.572 427.476 355.726 426.36 354.034 426.36C352.324 426.36 351.46 427.494 351.46 428.808C351.46 430.14 352.324 431.328 354.034 431.328Z" fill="#2A2859"/>
<path fill-rule="evenodd" clip-rule="evenodd" d="M780 431.56L772.747 424.5L771.75 425.47L780 433.5L788.25 425.47L787.253 424.5L780 431.56Z" fill="#2A2859"/>
<rect x="309" y="406" width="498" height="46" stroke="#2A2859" stroke-width="2"/>
<path d="M317.81 113.68H319.826V127H317.99L311.582 117.442V127H309.566V113.68H311.564L317.81 123.058V113.68ZM330.339 127H328.485C328.341 126.514 328.251 125.938 328.215 125.2C327.765 126.19 326.757 127.162 325.101 127.162C323.373 127.162 322.149 125.992 322.149 124.336C322.149 122.266 323.985 121.24 326.037 121.24C326.685 121.24 327.297 121.294 327.963 121.474V120.574C327.963 119.548 327.315 118.882 326.145 118.882C325.047 118.882 324.273 119.476 323.913 120.592L322.203 120.07C322.887 118.054 324.525 117.244 326.235 117.244C328.773 117.244 329.925 118.738 329.925 120.556V124.246C329.925 125.38 330.105 126.388 330.339 127ZM327.963 123.058V122.842C327.387 122.644 326.829 122.572 326.235 122.572C325.047 122.572 324.129 123.112 324.129 124.156C324.129 125.038 324.759 125.596 325.713 125.596C326.685 125.596 327.963 125.02 327.963 123.058ZM338.363 117.46H340.451L336.797 127H334.727L331.091 117.46H333.323L335.843 124.894L338.363 117.46ZM346.764 117.244C348.708 117.244 349.86 118.504 349.86 120.574V127H347.844V120.898C347.844 119.584 347.214 118.99 346.116 118.99C344.694 118.99 343.974 119.98 343.974 121.834V127H341.958V117.46H343.974V118.828C344.622 117.82 345.576 117.244 346.764 117.244Z" fill="#2A2859"/>
<path d="M310.212 159H309.232V148.64H315.336V149.564H310.212V153.512H314.384V154.436H310.212V159ZM318.95 159.112C317.116 159.112 315.646 157.6 315.646 155.276C315.646 152.98 317.102 151.468 318.95 151.468C320.798 151.468 322.254 152.98 322.254 155.276C322.254 157.6 320.784 159.112 318.95 159.112ZM318.95 158.272C320.224 158.272 321.274 157.264 321.274 155.276C321.274 153.302 320.21 152.308 318.95 152.308C317.69 152.308 316.626 153.302 316.626 155.276C316.626 157.264 317.676 158.272 318.95 158.272ZM326.848 151.468C327.814 151.468 328.514 152.112 328.514 153.372V154.1L327.646 154.268V153.54C327.646 152.798 327.394 152.308 326.638 152.308C325.784 152.308 325.14 152.938 325.14 154.436V159H324.188V151.58H325.14V152.504C325.532 151.804 326.19 151.468 326.848 151.468ZM333.503 151.468C334.987 151.468 335.855 152.378 335.855 154.044V159H334.903V154.184C334.903 152.84 334.287 152.336 333.251 152.336C331.949 152.336 331.347 153.344 331.347 154.828V159H330.395V151.58H331.347V152.728C331.795 151.916 332.607 151.468 333.503 151.468ZM343.677 159H342.809C342.697 158.594 342.613 158.104 342.613 157.544C342.235 158.412 341.269 159.112 340.065 159.112C338.749 159.112 337.755 158.258 337.755 156.984C337.755 155.458 339.127 154.66 340.653 154.66C341.255 154.66 341.843 154.73 342.445 154.94V153.96C342.445 152.994 341.857 152.336 340.709 152.336C339.785 152.336 339.001 152.742 338.609 153.876L337.769 153.624C338.329 152.056 339.463 151.468 340.765 151.468C342.599 151.468 343.369 152.574 343.369 153.848V156.9C343.369 157.74 343.509 158.496 343.677 159ZM342.445 155.92V155.752C341.871 155.514 341.283 155.444 340.709 155.444C339.589 155.444 338.707 155.948 338.707 156.928C338.707 157.824 339.337 158.3 340.233 158.3C341.199 158.3 342.445 157.726 342.445 155.92ZM350.235 151.58H351.215L348.303 159H347.463L344.551 151.58H345.587L347.911 157.95L350.235 151.58ZM355.775 151.468C357.259 151.468 358.127 152.378 358.127 154.044V159H357.175V154.184C357.175 152.84 356.559 152.336 355.523 152.336C354.221 152.336 353.619 153.344 353.619 154.828V159H352.667V151.58H353.619V152.728C354.067 151.916 354.879 151.468 355.775 151.468ZM361.063 157.32C361.651 157.32 362.099 157.824 362.099 158.776C362.099 159.7 361.721 160.624 360.503 161.576L360.167 161.184C360.825 160.596 361.455 160.008 361.343 159.028C361.273 159.042 361.175 159.056 361.063 159.056C360.559 159.056 360.167 158.734 360.167 158.188C360.167 157.698 360.545 157.32 361.063 157.32ZM375.207 151.468C376.621 151.468 377.447 152.364 377.447 153.904V159H376.495V154.044C376.495 152.84 375.921 152.336 374.955 152.336C373.653 152.336 373.107 153.344 373.107 154.828V159H372.155V154.044C372.155 152.84 371.581 152.336 370.615 152.336C369.313 152.336 368.767 153.344 368.767 154.828V159H367.815V151.58H368.767V152.742C369.215 151.916 369.999 151.468 370.867 151.468C371.973 151.468 372.715 152.014 372.981 152.98C373.401 152 374.255 151.468 375.207 151.468ZM384.805 156.9L385.505 157.292C385.155 158.188 384.231 159.112 382.579 159.112C380.493 159.112 379.261 157.558 379.261 155.192C379.261 153.022 380.549 151.468 382.481 151.468C384.077 151.468 385.449 152.616 385.449 154.632L385.421 155.458H380.227C380.311 157.432 381.249 158.272 382.677 158.272C383.797 158.272 384.455 157.628 384.805 156.9ZM382.481 152.308C381.361 152.308 380.353 152.91 380.227 154.674H384.511C384.553 153.008 383.573 152.308 382.481 152.308ZM389.786 158.972C389.562 159.028 389.38 159.056 389.17 159.056C388.008 159.056 387.462 158.328 387.462 157.236V148.64H388.414V157.236C388.414 157.866 388.75 158.188 389.338 158.188C389.492 158.188 389.646 158.174 389.786 158.132V158.972ZM393.846 158.972C393.622 159.028 393.44 159.056 393.23 159.056C392.068 159.056 391.522 158.328 391.522 157.236V148.64H392.474V157.236C392.474 157.866 392.81 158.188 393.398 158.188C393.552 158.188 393.706 158.174 393.846 158.132V158.972ZM398.192 159.112C396.358 159.112 394.888 157.6 394.888 155.276C394.888 152.98 396.344 151.468 398.192 151.468C400.04 151.468 401.496 152.98 401.496 155.276C401.496 157.6 400.026 159.112 398.192 159.112ZM398.192 158.272C399.466 158.272 400.516 157.264 400.516 155.276C400.516 153.302 399.452 152.308 398.192 152.308C396.932 152.308 395.868 153.302 395.868 155.276C395.868 157.264 396.918 158.272 398.192 158.272ZM410.823 151.468C412.237 151.468 413.063 152.364 413.063 153.904V159H412.111V154.044C412.111 152.84 411.537 152.336 410.571 152.336C409.269 152.336 408.723 153.344 408.723 154.828V159H407.771V154.044C407.771 152.84 407.197 152.336 406.231 152.336C404.929 152.336 404.383 153.344 404.383 154.828V159H403.431V151.58H404.383V152.742C404.831 151.916 405.615 151.468 406.483 151.468C407.589 151.468 408.331 152.014 408.597 152.98C409.017 152 409.871 151.468 410.823 151.468ZM418.46 151.468C419.944 151.468 420.812 152.378 420.812 154.044V159H419.86V154.184C419.86 152.84 419.244 152.336 418.208 152.336C416.906 152.336 416.304 153.344 416.304 154.828V159H415.352V151.58H416.304V152.728C416.752 151.916 417.564 151.468 418.46 151.468ZM428.634 159H427.766C427.654 158.594 427.57 158.104 427.57 157.544C427.192 158.412 426.226 159.112 425.022 159.112C423.706 159.112 422.712 158.258 422.712 156.984C422.712 155.458 424.084 154.66 425.61 154.66C426.212 154.66 426.8 154.73 427.402 154.94V153.96C427.402 152.994 426.814 152.336 425.666 152.336C424.742 152.336 423.958 152.742 423.566 153.876L422.726 153.624C423.286 152.056 424.42 151.468 425.722 151.468C427.556 151.468 428.326 152.574 428.326 153.848V156.9C428.326 157.74 428.466 158.496 428.634 159ZM427.402 155.92V155.752C426.828 155.514 426.24 155.444 425.666 155.444C424.546 155.444 423.664 155.948 423.664 156.928C423.664 157.824 424.294 158.3 425.19 158.3C426.156 158.3 427.402 157.726 427.402 155.92ZM435.192 151.58H436.172L433.26 159H432.42L429.508 151.58H430.544L432.868 157.95L435.192 151.58ZM440.732 151.468C442.216 151.468 443.084 152.378 443.084 154.044V159H442.132V154.184C442.132 152.84 441.516 152.336 440.48 152.336C439.178 152.336 438.576 153.344 438.576 154.828V159H437.624V151.58H438.576V152.728C439.024 151.916 439.836 151.468 440.732 151.468ZM451.786 159.112C449.952 159.112 448.482 157.6 448.482 155.276C448.482 152.98 449.938 151.468 451.786 151.468C453.634 151.468 455.09 152.98 455.09 155.276C455.09 157.6 453.62 159.112 451.786 159.112ZM451.786 158.272C453.06 158.272 454.11 157.264 454.11 155.276C454.11 153.302 453.046 152.308 451.786 152.308C450.526 152.308 449.462 153.302 449.462 155.276C449.462 157.264 450.512 158.272 451.786 158.272ZM463.264 152.364H461.668V152.63C462.032 153.078 462.228 153.638 462.228 154.184C462.228 155.542 461.248 156.928 459.162 156.928H458.84C458 156.928 457.398 157.25 457.398 157.74C457.398 158.118 457.692 158.384 458.308 158.384H461.318C462.522 158.384 463.138 158.972 463.138 159.896C463.138 161.366 461.444 162.136 459.358 162.136C457.482 162.136 456.18 161.534 455.732 160.232L456.502 159.882C457.02 161.1 458.112 161.338 459.358 161.338C460.898 161.338 462.186 160.876 462.186 159.98C462.186 159.56 461.962 159.252 461.29 159.252H458.098C457.062 159.252 456.446 158.762 456.446 157.992C456.446 157.334 456.992 156.76 457.902 156.522C456.922 156.13 456.376 155.094 456.376 154.184C456.376 152.854 457.37 151.468 459.33 151.468C460.1 151.468 460.688 151.72 461.136 152.098V151.58H463.264V152.364ZM459.316 156.144C460.632 156.144 461.29 155.234 461.29 154.184C461.29 153.148 460.632 152.28 459.316 152.28C457.986 152.28 457.314 153.162 457.314 154.184C457.314 155.22 457.986 156.144 459.316 156.144ZM473.399 156.9L474.099 157.292C473.749 158.188 472.825 159.112 471.173 159.112C469.087 159.112 467.855 157.558 467.855 155.192C467.855 153.022 469.143 151.468 471.075 151.468C472.671 151.468 474.043 152.616 474.043 154.632L474.015 155.458H468.821C468.905 157.432 469.843 158.272 471.271 158.272C472.391 158.272 473.049 157.628 473.399 156.9ZM471.075 152.308C469.955 152.308 468.947 152.91 468.821 154.674H473.105C473.147 153.008 472.167 152.308 471.075 152.308ZM477.403 157.152C477.403 158.02 477.921 158.272 478.383 158.272C478.831 158.272 479.125 158.104 479.475 157.74L479.979 158.3C479.489 158.874 478.957 159.112 478.299 159.112C477.291 159.112 476.451 158.44 476.451 157.124V152.364H475.051V151.58H476.451V149.984L477.403 149.424V151.58H479.811V152.364H477.403V157.152ZM482.817 157.152C482.817 158.02 483.335 158.272 483.797 158.272C484.245 158.272 484.539 158.104 484.889 157.74L485.393 158.3C484.903 158.874 484.371 159.112 483.713 159.112C482.705 159.112 481.865 158.44 481.865 157.124V152.364H480.465V151.58H481.865V149.984L482.817 149.424V151.58H485.225V152.364H482.817V157.152ZM491.665 156.9L492.365 157.292C492.015 158.188 491.091 159.112 489.439 159.112C487.353 159.112 486.121 157.558 486.121 155.192C486.121 153.022 487.409 151.468 489.341 151.468C490.937 151.468 492.309 152.616 492.309 154.632L492.281 155.458H487.087C487.171 157.432 488.109 158.272 489.537 158.272C490.657 158.272 491.315 157.628 491.665 156.9ZM489.341 152.308C488.221 152.308 487.213 152.91 487.087 154.674H491.371C491.413 153.008 490.433 152.308 489.341 152.308ZM496.981 151.468C497.947 151.468 498.647 152.112 498.647 153.372V154.1L497.779 154.268V153.54C497.779 152.798 497.527 152.308 496.771 152.308C495.917 152.308 495.273 152.938 495.273 154.436V159H494.321V151.58H495.273V152.504C495.665 151.804 496.323 151.468 496.981 151.468ZM503.636 151.468C505.12 151.468 505.988 152.378 505.988 154.044V159H505.036V154.184C505.036 152.84 504.42 152.336 503.384 152.336C502.082 152.336 501.48 153.344 501.48 154.828V159H500.528V151.58H501.48V152.728C501.928 151.916 502.74 151.468 503.636 151.468ZM513.81 159H512.942C512.83 158.594 512.746 158.104 512.746 157.544C512.368 158.412 511.402 159.112 510.198 159.112C508.882 159.112 507.888 158.258 507.888 156.984C507.888 155.458 509.26 154.66 510.786 154.66C511.388 154.66 511.976 154.73 512.578 154.94V153.96C512.578 152.994 511.99 152.336 510.842 152.336C509.918 152.336 509.134 152.742 508.742 153.876L507.902 153.624C508.462 152.056 509.596 151.468 510.898 151.468C512.732 151.468 513.502 152.574 513.502 153.848V156.9C513.502 157.74 513.642 158.496 513.81 159ZM512.578 155.92V155.752C512.004 155.514 511.416 155.444 510.842 155.444C509.722 155.444 508.84 155.948 508.84 156.928C508.84 157.824 509.47 158.3 510.366 158.3C511.332 158.3 512.578 157.726 512.578 155.92ZM520.368 151.58H521.348L518.436 159H517.596L514.684 151.58H515.72L518.044 157.95L520.368 151.58ZM525.908 151.468C527.392 151.468 528.26 152.378 528.26 154.044V159H527.308V154.184C527.308 152.84 526.692 152.336 525.656 152.336C524.354 152.336 523.752 153.344 523.752 154.828V159H522.8V151.58H523.752V152.728C524.2 151.916 525.012 151.468 525.908 151.468Z" fill="#2A2859"/>
<rect x="309" y="174" width="498" height="46" fill="white"/>
<rect x="309" y="174" width="498" height="46" stroke="#2A2859" stroke-width="2"/>
<line x1="308.5" y1="75" x2="308.5" y2="91" stroke="#6FE9FF"/>
<line x1="308" y1="74.5" x2="808" y2="74.5" stroke="#6FE9FF"/>
<line x1="808.5" y1="74" x2="808.5" y2="89" stroke="#6FE9FF"/>
<rect width="164" height="44" transform="translate(478 52)" fill="white"/>
<path d="M500.48 70.262C502.784 70.262 504.44 72.224 504.44 75.14C504.44 78.128 502.766 80.144 500.246 80.144C499.148 80.144 498.086 79.658 497.474 78.47V80H495.458V66.68H497.474V72.17C498.212 70.82 499.382 70.262 500.48 70.262ZM499.94 78.488C501.326 78.488 502.352 77.372 502.352 75.23C502.352 73.088 501.326 71.99 499.94 71.99C498.464 71.99 497.474 72.998 497.474 75.212C497.474 77.426 498.464 78.488 499.94 78.488ZM510.935 70.244C512.321 70.244 513.221 71.162 513.221 72.8V74.06L511.601 74.348V73.376C511.601 72.512 511.295 71.918 510.359 71.918C509.333 71.918 508.577 72.602 508.577 74.42V80H506.561V70.46H508.577V71.738C509.117 70.676 510.107 70.244 510.935 70.244ZM521.35 76.994L522.718 77.786C522.178 78.974 520.918 80.162 518.74 80.162C515.914 80.162 514.204 78.074 514.204 75.14C514.204 72.242 516.058 70.244 518.596 70.244C520.846 70.244 522.7 71.756 522.7 74.456L522.664 75.644H516.184C516.292 77.66 517.282 78.524 518.866 78.524C520.036 78.524 520.846 77.894 521.35 76.994ZM518.596 71.828C517.372 71.828 516.346 72.476 516.184 74.204H520.738C520.756 72.512 519.712 71.828 518.596 71.828ZM531.341 66.68H533.357V80H531.341V78.272C530.603 79.604 529.451 80.144 528.353 80.144C526.049 80.144 524.393 78.164 524.393 75.266C524.393 72.26 526.067 70.262 528.587 70.262C529.667 70.262 530.747 70.748 531.341 71.918V66.68ZM528.893 78.38C530.351 78.38 531.341 77.39 531.341 75.158C531.341 72.944 530.369 71.882 528.893 71.882C527.507 71.882 526.481 72.998 526.481 75.158C526.481 77.3 527.507 78.38 528.893 78.38ZM542.356 66.68H544.372V80H542.356V78.272C541.618 79.604 540.466 80.144 539.368 80.144C537.064 80.144 535.408 78.164 535.408 75.266C535.408 72.26 537.082 70.262 539.602 70.262C540.682 70.262 541.762 70.748 542.356 71.918V66.68ZM539.908 78.38C541.366 78.38 542.356 77.39 542.356 75.158C542.356 72.944 541.384 71.882 539.908 71.882C538.522 71.882 537.496 72.998 537.496 75.158C537.496 77.3 538.522 78.38 539.908 78.38ZM553.569 76.994L554.937 77.786C554.397 78.974 553.137 80.162 550.959 80.162C548.133 80.162 546.423 78.074 546.423 75.14C546.423 72.242 548.277 70.244 550.815 70.244C553.065 70.244 554.919 71.756 554.919 74.456L554.883 75.644H548.403C548.511 77.66 549.501 78.524 551.085 78.524C552.255 78.524 553.065 77.894 553.569 76.994ZM550.815 71.828C549.591 71.828 548.565 72.476 548.403 74.204H552.957C552.975 72.512 551.931 71.828 550.815 71.828ZM559.131 73.79C558.267 73.79 557.619 73.124 557.619 72.278C557.619 71.432 558.267 70.766 559.131 70.766C559.995 70.766 560.643 71.432 560.643 72.278C560.643 73.124 559.995 73.79 559.131 73.79ZM559.131 80.126C558.267 80.126 557.619 79.46 557.619 78.614C557.619 77.768 558.267 77.102 559.131 77.102C559.995 77.102 560.643 77.768 560.643 78.614C560.643 79.46 559.995 80.126 559.131 80.126ZM573.11 71.324C575.576 71.324 577.286 73.052 577.286 75.5C577.286 78.146 575.342 80.162 572.192 80.162C570.392 80.162 568.718 79.514 567.422 77.696L568.952 76.526C569.906 77.822 570.896 78.308 572.246 78.308C573.956 78.308 575.108 77.156 575.108 75.626C575.108 73.97 573.974 73.034 572.552 73.034C571.418 73.034 570.68 73.394 569.816 74.258L568.268 73.664L568.682 66.68H576.26V68.57H570.392L570.104 72.476C570.86 71.738 571.922 71.324 573.11 71.324ZM583.794 80.144C581.076 80.144 578.772 77.732 578.772 73.322C578.772 68.912 581.058 66.5 583.794 66.5C586.548 66.5 588.816 68.912 588.816 73.322C588.816 77.732 586.53 80.144 583.794 80.144ZM583.794 78.146C585.45 78.146 586.62 76.688 586.62 73.322C586.62 69.992 585.45 68.498 583.794 68.498C582.138 68.498 580.968 69.992 580.968 73.322C580.968 76.688 582.138 78.146 583.794 78.146ZM595.108 80.144C592.39 80.144 590.086 77.732 590.086 73.322C590.086 68.912 592.372 66.5 595.108 66.5C597.862 66.5 600.13 68.912 600.13 73.322C600.13 77.732 597.844 80.144 595.108 80.144ZM595.108 78.146C596.764 78.146 597.934 76.688 597.934 73.322C597.934 69.992 596.764 68.498 595.108 68.498C593.452 68.498 592.282 69.992 592.282 73.322C592.282 76.688 593.452 78.146 595.108 78.146ZM611.529 70.262C613.833 70.262 615.489 72.224 615.489 75.14C615.489 78.128 613.815 80.144 611.295 80.144C610.215 80.144 609.153 79.676 608.541 78.506V83.78H606.525V70.46H608.541V72.134C609.279 70.802 610.431 70.262 611.529 70.262ZM610.989 78.488C612.375 78.488 613.401 77.372 613.401 75.23C613.401 73.088 612.375 71.99 610.989 71.99C609.513 71.99 608.541 72.998 608.541 75.212C608.541 77.426 609.513 78.488 610.989 78.488ZM625.376 80H622.964L620.678 76.31L618.446 80H616.304L619.562 75.032L616.43 70.46H618.824L621.02 73.916L623.09 70.46H625.232L622.1 75.176L625.376 80Z" fill="#2A2859"/>
</svg>
