<svg width="1498" height="620" viewBox="0 0 1498 620" fill="none" xmlns="http://www.w3.org/2000/svg">
<rect width="1498" height="620" fill="white"/>
<path d="M175.672 410H173.566V396.68H181.81V398.624H175.672V402.692H180.766V404.618H175.672V410ZM189.283 401.036C190.489 401.864 191.263 403.322 191.263 405.176C191.263 408.236 189.229 410.18 186.745 410.18C186.115 410.18 185.521 410.054 184.963 409.82L184.405 410.972H183.379L184.171 409.37C183.001 408.524 182.227 407.066 182.227 405.176C182.227 402.188 184.243 400.244 186.745 400.244C187.375 400.244 187.951 400.37 188.491 400.586L189.049 399.47H190.057L189.283 401.036ZM184.297 405.176C184.297 406.292 184.567 407.12 185.017 407.66L187.717 402.152C187.429 402.026 187.087 401.954 186.745 401.954C185.413 401.954 184.297 402.908 184.297 405.176ZM186.745 408.47C188.095 408.47 189.193 407.426 189.193 405.176C189.193 404.042 188.905 403.232 188.473 402.71L185.737 408.254C186.043 408.398 186.385 408.47 186.745 408.47ZM199.732 396.68H201.748V410H199.732V408.272C198.994 409.604 197.842 410.144 196.744 410.144C194.44 410.144 192.784 408.164 192.784 405.266C192.784 402.26 194.458 400.262 196.978 400.262C198.058 400.262 199.138 400.748 199.732 401.918V396.68ZM197.284 408.38C198.742 408.38 199.732 407.39 199.732 405.158C199.732 402.944 198.76 401.882 197.284 401.882C195.898 401.882 194.872 402.998 194.872 405.158C194.872 407.3 195.898 408.38 197.284 408.38ZM203.889 403.088C203.889 401.468 205.383 400.244 207.633 400.244C209.487 400.244 210.729 400.91 211.395 402.188L209.991 403.052C209.559 402.314 208.695 401.864 207.615 401.864C206.535 401.864 205.797 402.278 205.797 402.962C205.797 403.52 206.175 403.862 207.021 404.024L208.623 404.348C210.639 404.744 211.647 405.698 211.647 407.156C211.647 408.956 210.081 410.162 207.723 410.162C205.725 410.162 204.303 409.406 203.565 408.02L204.969 407.138C205.491 408.02 206.409 408.524 207.669 408.524C208.893 408.524 209.721 408.038 209.721 407.246C209.721 406.598 209.325 406.238 208.443 406.058L206.679 405.716C204.879 405.374 203.889 404.456 203.889 403.088ZM220.079 406.994L221.447 407.786C220.907 408.974 219.647 410.162 217.469 410.162C214.643 410.162 212.933 408.074 212.933 405.14C212.933 402.242 214.787 400.244 217.325 400.244C219.575 400.244 221.429 401.756 221.429 404.456L221.393 405.644H214.913C215.021 407.66 216.011 408.524 217.595 408.524C218.765 408.524 219.575 407.894 220.079 406.994ZM217.325 401.828C216.101 401.828 215.075 402.476 214.913 404.204H219.467C219.485 402.512 218.441 401.828 217.325 401.828ZM227.55 409.946C227.172 410.054 226.794 410.108 226.398 410.108C224.58 410.108 223.716 409.028 223.716 407.282V396.68H225.732V407.138C225.732 407.966 226.218 408.344 226.956 408.344C227.136 408.344 227.334 408.326 227.55 408.272V409.946ZM228.971 403.088C228.971 401.468 230.465 400.244 232.715 400.244C234.569 400.244 235.811 400.91 236.477 402.188L235.073 403.052C234.641 402.314 233.777 401.864 232.697 401.864C231.617 401.864 230.879 402.278 230.879 402.962C230.879 403.52 231.257 403.862 232.103 404.024L233.705 404.348C235.721 404.744 236.729 405.698 236.729 407.156C236.729 408.956 235.163 410.162 232.805 410.162C230.807 410.162 229.385 409.406 228.647 408.02L230.051 407.138C230.573 408.02 231.491 408.524 232.751 408.524C233.975 408.524 234.803 408.038 234.803 407.246C234.803 406.598 234.407 406.238 233.525 406.058L231.761 405.716C229.961 405.374 228.971 404.456 228.971 403.088ZM243.608 400.244C245.552 400.244 246.704 401.504 246.704 403.574V410H244.688V403.898C244.688 402.584 244.058 401.99 242.96 401.99C241.538 401.99 240.818 402.98 240.818 404.834V410H238.802V400.46H240.818V401.828C241.466 400.82 242.42 400.244 243.608 400.244ZM254.959 400.46H256.975V410H254.959V408.596C254.347 409.64 253.393 410.162 252.223 410.162C250.261 410.162 249.127 408.902 249.127 406.832V400.46H251.143V406.526C251.143 407.768 251.755 408.434 252.853 408.434C254.257 408.434 254.959 407.426 254.959 405.572V400.46ZM270.149 400.244C272.057 400.244 273.155 401.486 273.155 403.484V410H271.139V403.826C271.139 402.566 270.545 401.99 269.501 401.99C268.097 401.99 267.395 402.962 267.395 404.834V410H265.379V403.826C265.379 402.566 264.785 401.99 263.741 401.99C262.355 401.99 261.653 402.962 261.653 404.834V410H259.637V400.46H261.653V401.81C262.301 400.784 263.237 400.244 264.389 400.244C265.847 400.244 266.801 400.946 267.215 402.134C267.863 400.874 268.871 400.244 270.149 400.244ZM286.419 400.244C288.327 400.244 289.425 401.486 289.425 403.484V410H287.409V403.826C287.409 402.566 286.815 401.99 285.771 401.99C284.367 401.99 283.665 402.962 283.665 404.834V410H281.649V403.826C281.649 402.566 281.055 401.99 280.011 401.99C278.625 401.99 277.923 402.962 277.923 404.834V410H275.907V400.46H277.923V401.81C278.571 400.784 279.507 400.244 280.659 400.244C282.117 400.244 283.071 400.946 283.485 402.134C284.133 400.874 285.141 400.244 286.419 400.244ZM298.73 406.994L300.098 407.786C299.558 408.974 298.298 410.162 296.12 410.162C293.294 410.162 291.584 408.074 291.584 405.14C291.584 402.242 293.438 400.244 295.976 400.244C298.226 400.244 300.08 401.756 300.08 404.456L300.044 405.644H293.564C293.672 407.66 294.662 408.524 296.246 408.524C297.416 408.524 298.226 407.894 298.73 406.994ZM295.976 401.828C294.752 401.828 293.726 402.476 293.564 404.204H298.118C298.136 402.512 297.092 401.828 295.976 401.828ZM306.741 400.244C308.127 400.244 309.027 401.162 309.027 402.8V404.06L307.407 404.348V403.376C307.407 402.512 307.101 401.918 306.165 401.918C305.139 401.918 304.383 402.602 304.383 404.42V410H302.367V400.46H304.383V401.738C304.923 400.676 305.913 400.244 306.741 400.244Z" fill="#2A2859"/>
<rect x="173" y="427" width="163" height="46" fill="white"/>
<rect x="173" y="427" width="163" height="46" stroke="#2A2859" stroke-width="2"/>
<path d="M172 190H672V201H172V190Z" fill="#C7F6C9"/>
<path d="M192.212 174.144C193.796 174.144 195.38 173.68 196.436 172.8V167.6H190.98V168.896H195.156V172.144C194.356 172.608 193.492 172.848 192.292 172.848C189.828 172.848 188.1 171.136 188.1 168.016C188.1 164.896 189.924 163.376 192.068 163.376C193.412 163.376 194.564 164.048 195.14 165.296L196.404 164.64C195.652 162.96 194.148 162.016 192.084 162.016C189.092 162.016 186.612 164.368 186.612 168.016C186.612 171.776 188.964 174.144 192.212 174.144ZM199.519 164.032C200.111 164.032 200.591 163.568 200.591 162.944C200.591 162.336 200.111 161.872 199.519 161.872C198.911 161.872 198.431 162.336 198.431 162.944C198.431 163.568 198.911 164.032 199.519 164.032ZM198.191 177.488C199.551 177.488 200.207 176.64 200.207 175.104V165.52H198.831V175.12C198.831 175.84 198.623 176.304 197.919 176.304C197.759 176.304 197.567 176.288 197.343 176.208L197.231 177.344C197.535 177.44 197.871 177.488 198.191 177.488ZM208.308 166.096L209.012 164.704H208.196L207.684 165.712C207.204 165.488 206.66 165.36 206.084 165.36C203.924 165.36 202.196 167.088 202.196 169.728C202.196 171.36 202.836 172.64 203.812 173.392L203.108 174.8H203.94L204.452 173.776C204.948 174.016 205.508 174.144 206.084 174.144C208.212 174.144 209.956 172.416 209.956 169.728C209.956 168.112 209.316 166.832 208.308 166.096ZM203.62 169.728C203.62 167.568 204.74 166.56 206.084 166.56C206.452 166.56 206.82 166.64 207.14 166.8L204.404 172.224C203.924 171.696 203.62 170.864 203.62 169.728ZM206.084 172.944C205.7 172.944 205.332 172.864 204.996 172.688L207.732 167.248C208.228 167.776 208.532 168.592 208.532 169.728C208.532 171.888 207.428 172.944 206.084 172.944ZM215.292 165.36C214.54 165.36 213.74 165.744 213.276 166.608V165.52H211.9V174H213.276V168.896C213.276 167.216 213.98 166.544 214.94 166.544C215.788 166.544 216.06 167.088 216.06 167.904V168.752L217.244 168.528V167.584C217.244 166.128 216.444 165.36 215.292 165.36ZM222.615 167.776C222.615 168.944 223.463 169.744 225.031 170.064L226.487 170.352C227.463 170.56 227.879 170.944 227.879 171.648C227.879 172.448 227.063 172.976 225.847 172.976C224.647 172.976 223.799 172.512 223.367 171.648L222.311 172.208C222.919 173.456 224.151 174.128 225.879 174.128C227.863 174.128 229.207 173.088 229.207 171.568C229.207 170.288 228.327 169.472 226.487 169.104L225.255 168.864C224.343 168.672 223.943 168.304 223.943 167.68C223.943 166.96 224.663 166.528 225.751 166.528C226.791 166.528 227.559 166.944 227.911 167.696L228.951 167.168C228.503 166.048 227.351 165.36 225.783 165.36C223.911 165.36 222.615 166.4 222.615 167.776ZM234.041 173.968V172.784C233.865 172.832 233.689 172.848 233.529 172.848C232.857 172.848 232.457 172.496 232.457 171.76V162.16H231.081V171.824C231.081 173.2 231.769 174.08 233.209 174.08C233.497 174.08 233.753 174.032 234.041 173.968ZM235.563 162.064V163.92H237.451V162.064H235.563ZM235.819 174H237.195V165.52H235.819V174ZM245.056 174H246.736L243.072 169.024L246.672 165.52H244.928L241.136 169.328V162.16H239.76V174H241.136V170.912L242.144 169.92L245.056 174Z" fill="#2A2859"/>
<line x1="749.5" y1="146" x2="749.5" y2="454" stroke="#CCCCCC"/>
<path d="M829.672 456H827.566V442.68H835.81V444.624H829.672V448.692H834.766V450.618H829.672V456ZM843.283 447.036C844.489 447.864 845.263 449.322 845.263 451.176C845.263 454.236 843.229 456.18 840.745 456.18C840.115 456.18 839.521 456.054 838.963 455.82L838.405 456.972H837.379L838.171 455.37C837.001 454.524 836.227 453.066 836.227 451.176C836.227 448.188 838.243 446.244 840.745 446.244C841.375 446.244 841.951 446.37 842.491 446.586L843.049 445.47H844.057L843.283 447.036ZM838.297 451.176C838.297 452.292 838.567 453.12 839.017 453.66L841.717 448.152C841.429 448.026 841.087 447.954 840.745 447.954C839.413 447.954 838.297 448.908 838.297 451.176ZM840.745 454.47C842.095 454.47 843.193 453.426 843.193 451.176C843.193 450.042 842.905 449.232 842.473 448.71L839.737 454.254C840.043 454.398 840.385 454.47 840.745 454.47ZM853.732 442.68H855.748V456H853.732V454.272C852.994 455.604 851.842 456.144 850.744 456.144C848.44 456.144 846.784 454.164 846.784 451.266C846.784 448.26 848.458 446.262 850.978 446.262C852.058 446.262 853.138 446.748 853.732 447.918V442.68ZM851.284 454.38C852.742 454.38 853.732 453.39 853.732 451.158C853.732 448.944 852.76 447.882 851.284 447.882C849.898 447.882 848.872 448.998 848.872 451.158C848.872 453.3 849.898 454.38 851.284 454.38ZM857.889 449.088C857.889 447.468 859.383 446.244 861.633 446.244C863.487 446.244 864.729 446.91 865.395 448.188L863.991 449.052C863.559 448.314 862.695 447.864 861.615 447.864C860.535 447.864 859.797 448.278 859.797 448.962C859.797 449.52 860.175 449.862 861.021 450.024L862.623 450.348C864.639 450.744 865.647 451.698 865.647 453.156C865.647 454.956 864.081 456.162 861.723 456.162C859.725 456.162 858.303 455.406 857.565 454.02L858.969 453.138C859.491 454.02 860.409 454.524 861.669 454.524C862.893 454.524 863.721 454.038 863.721 453.246C863.721 452.598 863.325 452.238 862.443 452.058L860.679 451.716C858.879 451.374 857.889 450.456 857.889 449.088ZM874.079 452.994L875.447 453.786C874.907 454.974 873.647 456.162 871.469 456.162C868.643 456.162 866.933 454.074 866.933 451.14C866.933 448.242 868.787 446.244 871.325 446.244C873.575 446.244 875.429 447.756 875.429 450.456L875.393 451.644H868.913C869.021 453.66 870.011 454.524 871.595 454.524C872.765 454.524 873.575 453.894 874.079 452.994ZM871.325 447.828C870.101 447.828 869.075 448.476 868.913 450.204H873.467C873.485 448.512 872.441 447.828 871.325 447.828ZM881.55 455.946C881.172 456.054 880.794 456.108 880.398 456.108C878.58 456.108 877.716 455.028 877.716 453.282V442.68H879.732V453.138C879.732 453.966 880.218 454.344 880.956 454.344C881.136 454.344 881.334 454.326 881.55 454.272V455.946ZM882.971 449.088C882.971 447.468 884.465 446.244 886.715 446.244C888.569 446.244 889.811 446.91 890.477 448.188L889.073 449.052C888.641 448.314 887.777 447.864 886.697 447.864C885.617 447.864 884.879 448.278 884.879 448.962C884.879 449.52 885.257 449.862 886.103 450.024L887.705 450.348C889.721 450.744 890.729 451.698 890.729 453.156C890.729 454.956 889.163 456.162 886.805 456.162C884.807 456.162 883.385 455.406 882.647 454.02L884.051 453.138C884.573 454.02 885.491 454.524 886.751 454.524C887.975 454.524 888.803 454.038 888.803 453.246C888.803 452.598 888.407 452.238 887.525 452.058L885.761 451.716C883.961 451.374 882.971 450.456 882.971 449.088ZM897.608 446.244C899.552 446.244 900.704 447.504 900.704 449.574V456H898.688V449.898C898.688 448.584 898.058 447.99 896.96 447.99C895.538 447.99 894.818 448.98 894.818 450.834V456H892.802V446.46H894.818V447.828C895.466 446.82 896.42 446.244 897.608 446.244ZM908.959 446.46H910.975V456H908.959V454.596C908.347 455.64 907.393 456.162 906.223 456.162C904.261 456.162 903.127 454.902 903.127 452.832V446.46H905.143V452.526C905.143 453.768 905.755 454.434 906.853 454.434C908.257 454.434 908.959 453.426 908.959 451.572V446.46ZM924.149 446.244C926.057 446.244 927.155 447.486 927.155 449.484V456H925.139V449.826C925.139 448.566 924.545 447.99 923.501 447.99C922.097 447.99 921.395 448.962 921.395 450.834V456H919.379V449.826C919.379 448.566 918.785 447.99 917.741 447.99C916.355 447.99 915.653 448.962 915.653 450.834V456H913.637V446.46H915.653V447.81C916.301 446.784 917.237 446.244 918.389 446.244C919.847 446.244 920.801 446.946 921.215 448.134C921.863 446.874 922.871 446.244 924.149 446.244ZM940.419 446.244C942.327 446.244 943.425 447.486 943.425 449.484V456H941.409V449.826C941.409 448.566 940.815 447.99 939.771 447.99C938.367 447.99 937.665 448.962 937.665 450.834V456H935.649V449.826C935.649 448.566 935.055 447.99 934.011 447.99C932.625 447.99 931.923 448.962 931.923 450.834V456H929.907V446.46H931.923V447.81C932.571 446.784 933.507 446.244 934.659 446.244C936.117 446.244 937.071 446.946 937.485 448.134C938.133 446.874 939.141 446.244 940.419 446.244ZM952.73 452.994L954.098 453.786C953.558 454.974 952.298 456.162 950.12 456.162C947.294 456.162 945.584 454.074 945.584 451.14C945.584 448.242 947.438 446.244 949.976 446.244C952.226 446.244 954.08 447.756 954.08 450.456L954.044 451.644H947.564C947.672 453.66 948.662 454.524 950.246 454.524C951.416 454.524 952.226 453.894 952.73 452.994ZM949.976 447.828C948.752 447.828 947.726 448.476 947.564 450.204H952.118C952.136 448.512 951.092 447.828 949.976 447.828ZM960.741 446.244C962.127 446.244 963.027 447.162 963.027 448.8V450.06L961.407 450.348V449.376C961.407 448.512 961.101 447.918 960.165 447.918C959.139 447.918 958.383 448.602 958.383 450.42V456H956.367V446.46H958.383V447.738C958.923 446.676 959.913 446.244 960.741 446.244Z" fill="#2A2859"/>
<rect x="989" y="427" width="336" height="46" fill="white"/>
<rect x="989" y="427" width="336" height="46" stroke="#2A2859" stroke-width="2"/>
<path d="M835.81 326.68H837.826V340H835.99L829.582 330.442V340H827.566V326.68H829.564L835.81 336.058V326.68ZM848.339 340H846.485C846.341 339.514 846.251 338.938 846.215 338.2C845.765 339.19 844.757 340.162 843.101 340.162C841.373 340.162 840.149 338.992 840.149 337.336C840.149 335.266 841.985 334.24 844.037 334.24C844.685 334.24 845.297 334.294 845.963 334.474V333.574C845.963 332.548 845.315 331.882 844.145 331.882C843.047 331.882 842.273 332.476 841.913 333.592L840.203 333.07C840.887 331.054 842.525 330.244 844.235 330.244C846.773 330.244 847.925 331.738 847.925 333.556V337.246C847.925 338.38 848.105 339.388 848.339 340ZM845.963 336.058V335.842C845.387 335.644 844.829 335.572 844.235 335.572C843.047 335.572 842.129 336.112 842.129 337.156C842.129 338.038 842.759 338.596 843.713 338.596C844.685 338.596 845.963 338.02 845.963 336.058ZM856.363 330.46H858.451L854.797 340H852.727L849.091 330.46H851.323L853.843 337.894L856.363 330.46ZM864.764 330.244C866.708 330.244 867.86 331.504 867.86 333.574V340H865.844V333.898C865.844 332.584 865.214 331.99 864.116 331.99C862.694 331.99 861.974 332.98 861.974 334.834V340H859.958V330.46H861.974V331.828C862.622 330.82 863.576 330.244 864.764 330.244Z" fill="#2A2859"/>
<rect x="895" y="311" width="430" height="46" fill="white"/>
<rect x="895" y="311" width="430" height="46" stroke="#2A2859" stroke-width="2"/>
<path opacity="0.6" d="M826 190H1326V201H826V190Z" fill="#FF8274"/>
<path d="M845.186 174H846.61V162.16H845.186V174ZM854.453 174H856.133L852.469 169.024L856.069 165.52H854.325L850.533 169.328V162.16H849.157V174H850.533V170.912L851.541 169.92L854.453 174ZM863.034 174H864.714L861.05 169.024L864.65 165.52H862.906L859.114 169.328V162.16H857.738V174H859.114V170.912L860.122 169.92L863.034 174ZM871.471 171.488C871.055 172.304 870.303 172.976 869.135 172.976C867.599 172.976 866.591 172.096 866.495 170.016H872.367L872.399 169.04C872.399 166.688 870.783 165.36 868.895 165.36C866.671 165.36 865.119 167.136 865.119 169.664C865.119 172.32 866.575 174.144 869.023 174.144C870.927 174.144 871.999 173.088 872.447 172.032L871.471 171.488ZM868.895 166.512C870.031 166.512 871.071 167.232 871.055 168.944H866.495C866.655 167.136 867.695 166.512 868.895 166.512ZM877.909 167.776C877.909 168.944 878.757 169.744 880.325 170.064L881.781 170.352C882.757 170.56 883.173 170.944 883.173 171.648C883.173 172.448 882.357 172.976 881.141 172.976C879.941 172.976 879.093 172.512 878.661 171.648L877.605 172.208C878.213 173.456 879.445 174.128 881.173 174.128C883.157 174.128 884.501 173.088 884.501 171.568C884.501 170.288 883.621 169.472 881.781 169.104L880.549 168.864C879.637 168.672 879.237 168.304 879.237 167.68C879.237 166.96 879.957 166.528 881.045 166.528C882.085 166.528 882.853 166.944 883.205 167.696L884.245 167.168C883.797 166.048 882.645 165.36 881.077 165.36C879.205 165.36 877.909 166.4 877.909 167.776ZM889.335 173.968V172.784C889.159 172.832 888.983 172.848 888.823 172.848C888.151 172.848 887.751 172.496 887.751 171.76V162.16H886.375V171.824C886.375 173.2 887.063 174.08 888.503 174.08C888.791 174.08 889.047 174.032 889.335 173.968ZM891.801 164.032C892.393 164.032 892.873 163.568 892.873 162.944C892.873 162.336 892.393 161.872 891.801 161.872C891.193 161.872 890.713 162.336 890.713 162.944C890.713 163.568 891.193 164.032 891.801 164.032ZM891.113 174H892.489V165.52H891.113V174ZM900.35 174H902.03L898.366 169.024L901.966 165.52H900.222L896.43 169.328V162.16H895.054V174H896.43V170.912L897.438 169.92L900.35 174Z" fill="#2A2859"/>
<path d="M181.81 250.68H183.826V264H181.99L175.582 254.442V264H173.566V250.68H175.564L181.81 260.058V250.68ZM194.339 264H192.485C192.341 263.514 192.251 262.938 192.215 262.2C191.765 263.19 190.757 264.162 189.101 264.162C187.373 264.162 186.149 262.992 186.149 261.336C186.149 259.266 187.985 258.24 190.037 258.24C190.685 258.24 191.297 258.294 191.963 258.474V257.574C191.963 256.548 191.315 255.882 190.145 255.882C189.047 255.882 188.273 256.476 187.913 257.592L186.203 257.07C186.887 255.054 188.525 254.244 190.235 254.244C192.773 254.244 193.925 255.738 193.925 257.556V261.246C193.925 262.38 194.105 263.388 194.339 264ZM191.963 260.058V259.842C191.387 259.644 190.829 259.572 190.235 259.572C189.047 259.572 188.129 260.112 188.129 261.156C188.129 262.038 188.759 262.596 189.713 262.596C190.685 262.596 191.963 262.02 191.963 260.058ZM202.363 254.46H204.451L200.797 264H198.727L195.091 254.46H197.323L199.843 261.894L202.363 254.46ZM210.764 254.244C212.708 254.244 213.86 255.504 213.86 257.574V264H211.844V257.898C211.844 256.584 211.214 255.99 210.116 255.99C208.694 255.99 207.974 256.98 207.974 258.834V264H205.958V254.46H207.974V255.828C208.622 254.82 209.576 254.244 210.764 254.244Z" fill="#2A2859"/>
<path d="M174.212 296H173.232V285.64H179.336V286.564H174.212V290.512H178.384V291.436H174.212V296ZM182.95 296.112C181.116 296.112 179.646 294.6 179.646 292.276C179.646 289.98 181.102 288.468 182.95 288.468C184.798 288.468 186.254 289.98 186.254 292.276C186.254 294.6 184.784 296.112 182.95 296.112ZM182.95 295.272C184.224 295.272 185.274 294.264 185.274 292.276C185.274 290.302 184.21 289.308 182.95 289.308C181.69 289.308 180.626 290.302 180.626 292.276C180.626 294.264 181.676 295.272 182.95 295.272ZM190.848 288.468C191.814 288.468 192.514 289.112 192.514 290.372V291.1L191.646 291.268V290.54C191.646 289.798 191.394 289.308 190.638 289.308C189.784 289.308 189.14 289.938 189.14 291.436V296H188.188V288.58H189.14V289.504C189.532 288.804 190.19 288.468 190.848 288.468ZM197.503 288.468C198.987 288.468 199.855 289.378 199.855 291.044V296H198.903V291.184C198.903 289.84 198.287 289.336 197.251 289.336C195.949 289.336 195.347 290.344 195.347 291.828V296H194.395V288.58H195.347V289.728C195.795 288.916 196.607 288.468 197.503 288.468ZM207.677 296H206.809C206.697 295.594 206.613 295.104 206.613 294.544C206.235 295.412 205.269 296.112 204.065 296.112C202.749 296.112 201.755 295.258 201.755 293.984C201.755 292.458 203.127 291.66 204.653 291.66C205.255 291.66 205.843 291.73 206.445 291.94V290.96C206.445 289.994 205.857 289.336 204.709 289.336C203.785 289.336 203.001 289.742 202.609 290.876L201.769 290.624C202.329 289.056 203.463 288.468 204.765 288.468C206.599 288.468 207.369 289.574 207.369 290.848V293.9C207.369 294.74 207.509 295.496 207.677 296ZM206.445 292.92V292.752C205.871 292.514 205.283 292.444 204.709 292.444C203.589 292.444 202.707 292.948 202.707 293.928C202.707 294.824 203.337 295.3 204.233 295.3C205.199 295.3 206.445 294.726 206.445 292.92ZM214.235 288.58H215.215L212.303 296H211.463L208.551 288.58H209.587L211.911 294.95L214.235 288.58ZM219.775 288.468C221.259 288.468 222.127 289.378 222.127 291.044V296H221.175V291.184C221.175 289.84 220.559 289.336 219.523 289.336C218.221 289.336 217.619 290.344 217.619 291.828V296H216.667V288.58H217.619V289.728C218.067 288.916 218.879 288.468 219.775 288.468ZM225.063 294.32C225.651 294.32 226.099 294.824 226.099 295.776C226.099 296.7 225.721 297.624 224.503 298.576L224.167 298.184C224.825 297.596 225.455 297.008 225.343 296.028C225.273 296.042 225.175 296.056 225.063 296.056C224.559 296.056 224.167 295.734 224.167 295.188C224.167 294.698 224.545 294.32 225.063 294.32ZM239.207 288.468C240.621 288.468 241.447 289.364 241.447 290.904V296H240.495V291.044C240.495 289.84 239.921 289.336 238.955 289.336C237.653 289.336 237.107 290.344 237.107 291.828V296H236.155V291.044C236.155 289.84 235.581 289.336 234.615 289.336C233.313 289.336 232.767 290.344 232.767 291.828V296H231.815V288.58H232.767V289.742C233.215 288.916 233.999 288.468 234.867 288.468C235.973 288.468 236.715 289.014 236.981 289.98C237.401 289 238.255 288.468 239.207 288.468ZM248.805 293.9L249.505 294.292C249.155 295.188 248.231 296.112 246.579 296.112C244.493 296.112 243.261 294.558 243.261 292.192C243.261 290.022 244.549 288.468 246.481 288.468C248.077 288.468 249.449 289.616 249.449 291.632L249.421 292.458H244.227C244.311 294.432 245.249 295.272 246.677 295.272C247.797 295.272 248.455 294.628 248.805 293.9ZM246.481 289.308C245.361 289.308 244.353 289.91 244.227 291.674H248.511C248.553 290.008 247.573 289.308 246.481 289.308ZM253.786 295.972C253.562 296.028 253.38 296.056 253.17 296.056C252.008 296.056 251.462 295.328 251.462 294.236V285.64H252.414V294.236C252.414 294.866 252.75 295.188 253.338 295.188C253.492 295.188 253.646 295.174 253.786 295.132V295.972ZM257.846 295.972C257.622 296.028 257.44 296.056 257.23 296.056C256.068 296.056 255.522 295.328 255.522 294.236V285.64H256.474V294.236C256.474 294.866 256.81 295.188 257.398 295.188C257.552 295.188 257.706 295.174 257.846 295.132V295.972ZM262.192 296.112C260.358 296.112 258.888 294.6 258.888 292.276C258.888 289.98 260.344 288.468 262.192 288.468C264.04 288.468 265.496 289.98 265.496 292.276C265.496 294.6 264.026 296.112 262.192 296.112ZM262.192 295.272C263.466 295.272 264.516 294.264 264.516 292.276C264.516 290.302 263.452 289.308 262.192 289.308C260.932 289.308 259.868 290.302 259.868 292.276C259.868 294.264 260.918 295.272 262.192 295.272ZM274.823 288.468C276.237 288.468 277.063 289.364 277.063 290.904V296H276.111V291.044C276.111 289.84 275.537 289.336 274.571 289.336C273.269 289.336 272.723 290.344 272.723 291.828V296H271.771V291.044C271.771 289.84 271.197 289.336 270.231 289.336C268.929 289.336 268.383 290.344 268.383 291.828V296H267.431V288.58H268.383V289.742C268.831 288.916 269.615 288.468 270.483 288.468C271.589 288.468 272.331 289.014 272.597 289.98C273.017 289 273.871 288.468 274.823 288.468ZM282.46 288.468C283.944 288.468 284.812 289.378 284.812 291.044V296H283.86V291.184C283.86 289.84 283.244 289.336 282.208 289.336C280.906 289.336 280.304 290.344 280.304 291.828V296H279.352V288.58H280.304V289.728C280.752 288.916 281.564 288.468 282.46 288.468ZM292.634 296H291.766C291.654 295.594 291.57 295.104 291.57 294.544C291.192 295.412 290.226 296.112 289.022 296.112C287.706 296.112 286.712 295.258 286.712 293.984C286.712 292.458 288.084 291.66 289.61 291.66C290.212 291.66 290.8 291.73 291.402 291.94V290.96C291.402 289.994 290.814 289.336 289.666 289.336C288.742 289.336 287.958 289.742 287.566 290.876L286.726 290.624C287.286 289.056 288.42 288.468 289.722 288.468C291.556 288.468 292.326 289.574 292.326 290.848V293.9C292.326 294.74 292.466 295.496 292.634 296ZM291.402 292.92V292.752C290.828 292.514 290.24 292.444 289.666 292.444C288.546 292.444 287.664 292.948 287.664 293.928C287.664 294.824 288.294 295.3 289.19 295.3C290.156 295.3 291.402 294.726 291.402 292.92ZM299.192 288.58H300.172L297.26 296H296.42L293.508 288.58H294.544L296.868 294.95L299.192 288.58ZM304.732 288.468C306.216 288.468 307.084 289.378 307.084 291.044V296H306.132V291.184C306.132 289.84 305.516 289.336 304.48 289.336C303.178 289.336 302.576 290.344 302.576 291.828V296H301.624V288.58H302.576V289.728C303.024 288.916 303.836 288.468 304.732 288.468ZM315.786 296.112C313.952 296.112 312.482 294.6 312.482 292.276C312.482 289.98 313.938 288.468 315.786 288.468C317.634 288.468 319.09 289.98 319.09 292.276C319.09 294.6 317.62 296.112 315.786 296.112ZM315.786 295.272C317.06 295.272 318.11 294.264 318.11 292.276C318.11 290.302 317.046 289.308 315.786 289.308C314.526 289.308 313.462 290.302 313.462 292.276C313.462 294.264 314.512 295.272 315.786 295.272ZM327.264 289.364H325.668V289.63C326.032 290.078 326.228 290.638 326.228 291.184C326.228 292.542 325.248 293.928 323.162 293.928H322.84C322 293.928 321.398 294.25 321.398 294.74C321.398 295.118 321.692 295.384 322.308 295.384H325.318C326.522 295.384 327.138 295.972 327.138 296.896C327.138 298.366 325.444 299.136 323.358 299.136C321.482 299.136 320.18 298.534 319.732 297.232L320.502 296.882C321.02 298.1 322.112 298.338 323.358 298.338C324.898 298.338 326.186 297.876 326.186 296.98C326.186 296.56 325.962 296.252 325.29 296.252H322.098C321.062 296.252 320.446 295.762 320.446 294.992C320.446 294.334 320.992 293.76 321.902 293.522C320.922 293.13 320.376 292.094 320.376 291.184C320.376 289.854 321.37 288.468 323.33 288.468C324.1 288.468 324.688 288.72 325.136 289.098V288.58H327.264V289.364ZM323.316 293.144C324.632 293.144 325.29 292.234 325.29 291.184C325.29 290.148 324.632 289.28 323.316 289.28C321.986 289.28 321.314 290.162 321.314 291.184C321.314 292.22 321.986 293.144 323.316 293.144ZM337.399 293.9L338.099 294.292C337.749 295.188 336.825 296.112 335.173 296.112C333.087 296.112 331.855 294.558 331.855 292.192C331.855 290.022 333.143 288.468 335.075 288.468C336.671 288.468 338.043 289.616 338.043 291.632L338.015 292.458H332.821C332.905 294.432 333.843 295.272 335.271 295.272C336.391 295.272 337.049 294.628 337.399 293.9ZM335.075 289.308C333.955 289.308 332.947 289.91 332.821 291.674H337.105C337.147 290.008 336.167 289.308 335.075 289.308ZM341.403 294.152C341.403 295.02 341.921 295.272 342.383 295.272C342.831 295.272 343.125 295.104 343.475 294.74L343.979 295.3C343.489 295.874 342.957 296.112 342.299 296.112C341.291 296.112 340.451 295.44 340.451 294.124V289.364H339.051V288.58H340.451V286.984L341.403 286.424V288.58H343.811V289.364H341.403V294.152ZM346.817 294.152C346.817 295.02 347.335 295.272 347.797 295.272C348.245 295.272 348.539 295.104 348.889 294.74L349.393 295.3C348.903 295.874 348.371 296.112 347.713 296.112C346.705 296.112 345.865 295.44 345.865 294.124V289.364H344.465V288.58H345.865V286.984L346.817 286.424V288.58H349.225V289.364H346.817V294.152ZM355.665 293.9L356.365 294.292C356.015 295.188 355.091 296.112 353.439 296.112C351.353 296.112 350.121 294.558 350.121 292.192C350.121 290.022 351.409 288.468 353.341 288.468C354.937 288.468 356.309 289.616 356.309 291.632L356.281 292.458H351.087C351.171 294.432 352.109 295.272 353.537 295.272C354.657 295.272 355.315 294.628 355.665 293.9ZM353.341 289.308C352.221 289.308 351.213 289.91 351.087 291.674H355.371C355.413 290.008 354.433 289.308 353.341 289.308ZM360.981 288.468C361.947 288.468 362.647 289.112 362.647 290.372V291.1L361.779 291.268V290.54C361.779 289.798 361.527 289.308 360.771 289.308C359.917 289.308 359.273 289.938 359.273 291.436V296H358.321V288.58H359.273V289.504C359.665 288.804 360.323 288.468 360.981 288.468ZM367.636 288.468C369.12 288.468 369.988 289.378 369.988 291.044V296H369.036V291.184C369.036 289.84 368.42 289.336 367.384 289.336C366.082 289.336 365.48 290.344 365.48 291.828V296H364.528V288.58H365.48V289.728C365.928 288.916 366.74 288.468 367.636 288.468ZM377.81 296H376.942C376.83 295.594 376.746 295.104 376.746 294.544C376.368 295.412 375.402 296.112 374.198 296.112C372.882 296.112 371.888 295.258 371.888 293.984C371.888 292.458 373.26 291.66 374.786 291.66C375.388 291.66 375.976 291.73 376.578 291.94V290.96C376.578 289.994 375.99 289.336 374.842 289.336C373.918 289.336 373.134 289.742 372.742 290.876L371.902 290.624C372.462 289.056 373.596 288.468 374.898 288.468C376.732 288.468 377.502 289.574 377.502 290.848V293.9C377.502 294.74 377.642 295.496 377.81 296ZM376.578 292.92V292.752C376.004 292.514 375.416 292.444 374.842 292.444C373.722 292.444 372.84 292.948 372.84 293.928C372.84 294.824 373.47 295.3 374.366 295.3C375.332 295.3 376.578 294.726 376.578 292.92ZM384.368 288.58H385.348L382.436 296H381.596L378.684 288.58H379.72L382.044 294.95L384.368 288.58ZM389.908 288.468C391.392 288.468 392.26 289.378 392.26 291.044V296H391.308V291.184C391.308 289.84 390.692 289.336 389.656 289.336C388.354 289.336 387.752 290.344 387.752 291.828V296H386.8V288.58H387.752V289.728C388.2 288.916 389.012 288.468 389.908 288.468Z" fill="#2A2859"/>
<rect x="173" y="311" width="498" height="46" fill="white"/>
<rect x="173" y="311" width="498" height="46" stroke="#2A2859" stroke-width="2"/>
</svg>
