<svg width="1500" height="411" viewBox="0 0 1500 411" fill="none" xmlns="http://www.w3.org/2000/svg">
<rect width="1500" height="411" fill="white"/>
<path d="M181.81 196.68H183.826V210H181.99L175.582 200.442V210H173.566V196.68H175.564L181.81 206.058V196.68ZM194.339 210H192.485C192.341 209.514 192.251 208.938 192.215 208.2C191.765 209.19 190.757 210.162 189.101 210.162C187.373 210.162 186.149 208.992 186.149 207.336C186.149 205.266 187.985 204.24 190.037 204.24C190.685 204.24 191.297 204.294 191.963 204.474V203.574C191.963 202.548 191.315 201.882 190.145 201.882C189.047 201.882 188.273 202.476 187.913 203.592L186.203 203.07C186.887 201.054 188.525 200.244 190.235 200.244C192.773 200.244 193.925 201.738 193.925 203.556V207.246C193.925 208.38 194.105 209.388 194.339 210ZM191.963 206.058V205.842C191.387 205.644 190.829 205.572 190.235 205.572C189.047 205.572 188.129 206.112 188.129 207.156C188.129 208.038 188.759 208.596 189.713 208.596C190.685 208.596 191.963 208.02 191.963 206.058ZM202.363 200.46H204.451L200.797 210H198.727L195.091 200.46H197.323L199.843 207.894L202.363 200.46ZM210.764 200.244C212.708 200.244 213.86 201.504 213.86 203.574V210H211.844V203.898C211.844 202.584 211.214 201.99 210.116 201.99C208.694 201.99 207.974 202.98 207.974 204.834V210H205.958V200.46H207.974V201.828C208.622 200.82 209.576 200.244 210.764 200.244Z" fill="#2A2859"/>
<path d="M174.212 242H173.232V231.64H179.336V232.564H174.212V236.512H178.384V237.436H174.212V242ZM182.95 242.112C181.116 242.112 179.646 240.6 179.646 238.276C179.646 235.98 181.102 234.468 182.95 234.468C184.798 234.468 186.254 235.98 186.254 238.276C186.254 240.6 184.784 242.112 182.95 242.112ZM182.95 241.272C184.224 241.272 185.274 240.264 185.274 238.276C185.274 236.302 184.21 235.308 182.95 235.308C181.69 235.308 180.626 236.302 180.626 238.276C180.626 240.264 181.676 241.272 182.95 241.272ZM190.848 234.468C191.814 234.468 192.514 235.112 192.514 236.372V237.1L191.646 237.268V236.54C191.646 235.798 191.394 235.308 190.638 235.308C189.784 235.308 189.14 235.938 189.14 237.436V242H188.188V234.58H189.14V235.504C189.532 234.804 190.19 234.468 190.848 234.468ZM197.503 234.468C198.987 234.468 199.855 235.378 199.855 237.044V242H198.903V237.184C198.903 235.84 198.287 235.336 197.251 235.336C195.949 235.336 195.347 236.344 195.347 237.828V242H194.395V234.58H195.347V235.728C195.795 234.916 196.607 234.468 197.503 234.468ZM207.677 242H206.809C206.697 241.594 206.613 241.104 206.613 240.544C206.235 241.412 205.269 242.112 204.065 242.112C202.749 242.112 201.755 241.258 201.755 239.984C201.755 238.458 203.127 237.66 204.653 237.66C205.255 237.66 205.843 237.73 206.445 237.94V236.96C206.445 235.994 205.857 235.336 204.709 235.336C203.785 235.336 203.001 235.742 202.609 236.876L201.769 236.624C202.329 235.056 203.463 234.468 204.765 234.468C206.599 234.468 207.369 235.574 207.369 236.848V239.9C207.369 240.74 207.509 241.496 207.677 242ZM206.445 238.92V238.752C205.871 238.514 205.283 238.444 204.709 238.444C203.589 238.444 202.707 238.948 202.707 239.928C202.707 240.824 203.337 241.3 204.233 241.3C205.199 241.3 206.445 240.726 206.445 238.92ZM214.235 234.58H215.215L212.303 242H211.463L208.551 234.58H209.587L211.911 240.95L214.235 234.58ZM219.775 234.468C221.259 234.468 222.127 235.378 222.127 237.044V242H221.175V237.184C221.175 235.84 220.559 235.336 219.523 235.336C218.221 235.336 217.619 236.344 217.619 237.828V242H216.667V234.58H217.619V235.728C218.067 234.916 218.879 234.468 219.775 234.468ZM225.063 240.32C225.651 240.32 226.099 240.824 226.099 241.776C226.099 242.7 225.721 243.624 224.503 244.576L224.167 244.184C224.825 243.596 225.455 243.008 225.343 242.028C225.273 242.042 225.175 242.056 225.063 242.056C224.559 242.056 224.167 241.734 224.167 241.188C224.167 240.698 224.545 240.32 225.063 240.32ZM239.207 234.468C240.621 234.468 241.447 235.364 241.447 236.904V242H240.495V237.044C240.495 235.84 239.921 235.336 238.955 235.336C237.653 235.336 237.107 236.344 237.107 237.828V242H236.155V237.044C236.155 235.84 235.581 235.336 234.615 235.336C233.313 235.336 232.767 236.344 232.767 237.828V242H231.815V234.58H232.767V235.742C233.215 234.916 233.999 234.468 234.867 234.468C235.973 234.468 236.715 235.014 236.981 235.98C237.401 235 238.255 234.468 239.207 234.468ZM248.805 239.9L249.505 240.292C249.155 241.188 248.231 242.112 246.579 242.112C244.493 242.112 243.261 240.558 243.261 238.192C243.261 236.022 244.549 234.468 246.481 234.468C248.077 234.468 249.449 235.616 249.449 237.632L249.421 238.458H244.227C244.311 240.432 245.249 241.272 246.677 241.272C247.797 241.272 248.455 240.628 248.805 239.9ZM246.481 235.308C245.361 235.308 244.353 235.91 244.227 237.674H248.511C248.553 236.008 247.573 235.308 246.481 235.308ZM253.786 241.972C253.562 242.028 253.38 242.056 253.17 242.056C252.008 242.056 251.462 241.328 251.462 240.236V231.64H252.414V240.236C252.414 240.866 252.75 241.188 253.338 241.188C253.492 241.188 253.646 241.174 253.786 241.132V241.972ZM257.846 241.972C257.622 242.028 257.44 242.056 257.23 242.056C256.068 242.056 255.522 241.328 255.522 240.236V231.64H256.474V240.236C256.474 240.866 256.81 241.188 257.398 241.188C257.552 241.188 257.706 241.174 257.846 241.132V241.972ZM262.192 242.112C260.358 242.112 258.888 240.6 258.888 238.276C258.888 235.98 260.344 234.468 262.192 234.468C264.04 234.468 265.496 235.98 265.496 238.276C265.496 240.6 264.026 242.112 262.192 242.112ZM262.192 241.272C263.466 241.272 264.516 240.264 264.516 238.276C264.516 236.302 263.452 235.308 262.192 235.308C260.932 235.308 259.868 236.302 259.868 238.276C259.868 240.264 260.918 241.272 262.192 241.272ZM274.823 234.468C276.237 234.468 277.063 235.364 277.063 236.904V242H276.111V237.044C276.111 235.84 275.537 235.336 274.571 235.336C273.269 235.336 272.723 236.344 272.723 237.828V242H271.771V237.044C271.771 235.84 271.197 235.336 270.231 235.336C268.929 235.336 268.383 236.344 268.383 237.828V242H267.431V234.58H268.383V235.742C268.831 234.916 269.615 234.468 270.483 234.468C271.589 234.468 272.331 235.014 272.597 235.98C273.017 235 273.871 234.468 274.823 234.468ZM282.46 234.468C283.944 234.468 284.812 235.378 284.812 237.044V242H283.86V237.184C283.86 235.84 283.244 235.336 282.208 235.336C280.906 235.336 280.304 236.344 280.304 237.828V242H279.352V234.58H280.304V235.728C280.752 234.916 281.564 234.468 282.46 234.468ZM292.634 242H291.766C291.654 241.594 291.57 241.104 291.57 240.544C291.192 241.412 290.226 242.112 289.022 242.112C287.706 242.112 286.712 241.258 286.712 239.984C286.712 238.458 288.084 237.66 289.61 237.66C290.212 237.66 290.8 237.73 291.402 237.94V236.96C291.402 235.994 290.814 235.336 289.666 235.336C288.742 235.336 287.958 235.742 287.566 236.876L286.726 236.624C287.286 235.056 288.42 234.468 289.722 234.468C291.556 234.468 292.326 235.574 292.326 236.848V239.9C292.326 240.74 292.466 241.496 292.634 242ZM291.402 238.92V238.752C290.828 238.514 290.24 238.444 289.666 238.444C288.546 238.444 287.664 238.948 287.664 239.928C287.664 240.824 288.294 241.3 289.19 241.3C290.156 241.3 291.402 240.726 291.402 238.92ZM299.192 234.58H300.172L297.26 242H296.42L293.508 234.58H294.544L296.868 240.95L299.192 234.58ZM304.732 234.468C306.216 234.468 307.084 235.378 307.084 237.044V242H306.132V237.184C306.132 235.84 305.516 235.336 304.48 235.336C303.178 235.336 302.576 236.344 302.576 237.828V242H301.624V234.58H302.576V235.728C303.024 234.916 303.836 234.468 304.732 234.468ZM315.786 242.112C313.952 242.112 312.482 240.6 312.482 238.276C312.482 235.98 313.938 234.468 315.786 234.468C317.634 234.468 319.09 235.98 319.09 238.276C319.09 240.6 317.62 242.112 315.786 242.112ZM315.786 241.272C317.06 241.272 318.11 240.264 318.11 238.276C318.11 236.302 317.046 235.308 315.786 235.308C314.526 235.308 313.462 236.302 313.462 238.276C313.462 240.264 314.512 241.272 315.786 241.272ZM327.264 235.364H325.668V235.63C326.032 236.078 326.228 236.638 326.228 237.184C326.228 238.542 325.248 239.928 323.162 239.928H322.84C322 239.928 321.398 240.25 321.398 240.74C321.398 241.118 321.692 241.384 322.308 241.384H325.318C326.522 241.384 327.138 241.972 327.138 242.896C327.138 244.366 325.444 245.136 323.358 245.136C321.482 245.136 320.18 244.534 319.732 243.232L320.502 242.882C321.02 244.1 322.112 244.338 323.358 244.338C324.898 244.338 326.186 243.876 326.186 242.98C326.186 242.56 325.962 242.252 325.29 242.252H322.098C321.062 242.252 320.446 241.762 320.446 240.992C320.446 240.334 320.992 239.76 321.902 239.522C320.922 239.13 320.376 238.094 320.376 237.184C320.376 235.854 321.37 234.468 323.33 234.468C324.1 234.468 324.688 234.72 325.136 235.098V234.58H327.264V235.364ZM323.316 239.144C324.632 239.144 325.29 238.234 325.29 237.184C325.29 236.148 324.632 235.28 323.316 235.28C321.986 235.28 321.314 236.162 321.314 237.184C321.314 238.22 321.986 239.144 323.316 239.144ZM337.399 239.9L338.099 240.292C337.749 241.188 336.825 242.112 335.173 242.112C333.087 242.112 331.855 240.558 331.855 238.192C331.855 236.022 333.143 234.468 335.075 234.468C336.671 234.468 338.043 235.616 338.043 237.632L338.015 238.458H332.821C332.905 240.432 333.843 241.272 335.271 241.272C336.391 241.272 337.049 240.628 337.399 239.9ZM335.075 235.308C333.955 235.308 332.947 235.91 332.821 237.674H337.105C337.147 236.008 336.167 235.308 335.075 235.308ZM341.403 240.152C341.403 241.02 341.921 241.272 342.383 241.272C342.831 241.272 343.125 241.104 343.475 240.74L343.979 241.3C343.489 241.874 342.957 242.112 342.299 242.112C341.291 242.112 340.451 241.44 340.451 240.124V235.364H339.051V234.58H340.451V232.984L341.403 232.424V234.58H343.811V235.364H341.403V240.152ZM346.817 240.152C346.817 241.02 347.335 241.272 347.797 241.272C348.245 241.272 348.539 241.104 348.889 240.74L349.393 241.3C348.903 241.874 348.371 242.112 347.713 242.112C346.705 242.112 345.865 241.44 345.865 240.124V235.364H344.465V234.58H345.865V232.984L346.817 232.424V234.58H349.225V235.364H346.817V240.152ZM355.665 239.9L356.365 240.292C356.015 241.188 355.091 242.112 353.439 242.112C351.353 242.112 350.121 240.558 350.121 238.192C350.121 236.022 351.409 234.468 353.341 234.468C354.937 234.468 356.309 235.616 356.309 237.632L356.281 238.458H351.087C351.171 240.432 352.109 241.272 353.537 241.272C354.657 241.272 355.315 240.628 355.665 239.9ZM353.341 235.308C352.221 235.308 351.213 235.91 351.087 237.674H355.371C355.413 236.008 354.433 235.308 353.341 235.308ZM360.981 234.468C361.947 234.468 362.647 235.112 362.647 236.372V237.1L361.779 237.268V236.54C361.779 235.798 361.527 235.308 360.771 235.308C359.917 235.308 359.273 235.938 359.273 237.436V242H358.321V234.58H359.273V235.504C359.665 234.804 360.323 234.468 360.981 234.468ZM367.636 234.468C369.12 234.468 369.988 235.378 369.988 237.044V242H369.036V237.184C369.036 235.84 368.42 235.336 367.384 235.336C366.082 235.336 365.48 236.344 365.48 237.828V242H364.528V234.58H365.48V235.728C365.928 234.916 366.74 234.468 367.636 234.468ZM377.81 242H376.942C376.83 241.594 376.746 241.104 376.746 240.544C376.368 241.412 375.402 242.112 374.198 242.112C372.882 242.112 371.888 241.258 371.888 239.984C371.888 238.458 373.26 237.66 374.786 237.66C375.388 237.66 375.976 237.73 376.578 237.94V236.96C376.578 235.994 375.99 235.336 374.842 235.336C373.918 235.336 373.134 235.742 372.742 236.876L371.902 236.624C372.462 235.056 373.596 234.468 374.898 234.468C376.732 234.468 377.502 235.574 377.502 236.848V239.9C377.502 240.74 377.642 241.496 377.81 242ZM376.578 238.92V238.752C376.004 238.514 375.416 238.444 374.842 238.444C373.722 238.444 372.84 238.948 372.84 239.928C372.84 240.824 373.47 241.3 374.366 241.3C375.332 241.3 376.578 240.726 376.578 238.92ZM384.368 234.58H385.348L382.436 242H381.596L378.684 234.58H379.72L382.044 240.95L384.368 234.58ZM389.908 234.468C391.392 234.468 392.26 235.378 392.26 237.044V242H391.308V237.184C391.308 235.84 390.692 235.336 389.656 235.336C388.354 235.336 387.752 236.344 387.752 237.828V242H386.8V234.58H387.752V235.728C388.2 234.916 389.012 234.468 389.908 234.468Z" fill="#2A2859"/>
<rect x="173" y="257" width="498" height="46" fill="white"/>
<rect x="173" y="257" width="498" height="46" stroke="#2A2859" stroke-width="2"/>
<path d="M172 136H672V147H172V136Z" fill="#C7F6C9"/>
<path d="M192.212 120.144C193.796 120.144 195.38 119.68 196.436 118.8V113.6H190.98V114.896H195.156V118.144C194.356 118.608 193.492 118.848 192.292 118.848C189.828 118.848 188.1 117.136 188.1 114.016C188.1 110.896 189.924 109.376 192.068 109.376C193.412 109.376 194.564 110.048 195.14 111.296L196.404 110.64C195.652 108.96 194.148 108.016 192.084 108.016C189.092 108.016 186.612 110.368 186.612 114.016C186.612 117.776 188.964 120.144 192.212 120.144ZM199.519 110.032C200.111 110.032 200.591 109.568 200.591 108.944C200.591 108.336 200.111 107.872 199.519 107.872C198.911 107.872 198.431 108.336 198.431 108.944C198.431 109.568 198.911 110.032 199.519 110.032ZM198.191 123.488C199.551 123.488 200.207 122.64 200.207 121.104V111.52H198.831V121.12C198.831 121.84 198.623 122.304 197.919 122.304C197.759 122.304 197.567 122.288 197.343 122.208L197.231 123.344C197.535 123.44 197.871 123.488 198.191 123.488ZM208.308 112.096L209.012 110.704H208.196L207.684 111.712C207.204 111.488 206.66 111.36 206.084 111.36C203.924 111.36 202.196 113.088 202.196 115.728C202.196 117.36 202.836 118.64 203.812 119.392L203.108 120.8H203.94L204.452 119.776C204.948 120.016 205.508 120.144 206.084 120.144C208.212 120.144 209.956 118.416 209.956 115.728C209.956 114.112 209.316 112.832 208.308 112.096ZM203.62 115.728C203.62 113.568 204.74 112.56 206.084 112.56C206.452 112.56 206.82 112.64 207.14 112.8L204.404 118.224C203.924 117.696 203.62 116.864 203.62 115.728ZM206.084 118.944C205.7 118.944 205.332 118.864 204.996 118.688L207.732 113.248C208.228 113.776 208.532 114.592 208.532 115.728C208.532 117.888 207.428 118.944 206.084 118.944ZM215.292 111.36C214.54 111.36 213.74 111.744 213.276 112.608V111.52H211.9V120H213.276V114.896C213.276 113.216 213.98 112.544 214.94 112.544C215.788 112.544 216.06 113.088 216.06 113.904V114.752L217.244 114.528V113.584C217.244 112.128 216.444 111.36 215.292 111.36ZM222.615 113.776C222.615 114.944 223.463 115.744 225.031 116.064L226.487 116.352C227.463 116.56 227.879 116.944 227.879 117.648C227.879 118.448 227.063 118.976 225.847 118.976C224.647 118.976 223.799 118.512 223.367 117.648L222.311 118.208C222.919 119.456 224.151 120.128 225.879 120.128C227.863 120.128 229.207 119.088 229.207 117.568C229.207 116.288 228.327 115.472 226.487 115.104L225.255 114.864C224.343 114.672 223.943 114.304 223.943 113.68C223.943 112.96 224.663 112.528 225.751 112.528C226.791 112.528 227.559 112.944 227.911 113.696L228.951 113.168C228.503 112.048 227.351 111.36 225.783 111.36C223.911 111.36 222.615 112.4 222.615 113.776ZM234.041 119.968V118.784C233.865 118.832 233.689 118.848 233.529 118.848C232.857 118.848 232.457 118.496 232.457 117.76V108.16H231.081V117.824C231.081 119.2 231.769 120.08 233.209 120.08C233.497 120.08 233.753 120.032 234.041 119.968ZM235.563 108.064V109.92H237.451V108.064H235.563ZM235.819 120H237.195V111.52H235.819V120ZM245.056 120H246.736L243.072 115.024L246.672 111.52H244.928L241.136 115.328V108.16H239.76V120H241.136V116.912L242.144 115.92L245.056 120Z" fill="#2A2859"/>
<line x1="750.5" y1="92" x2="750.5" y2="319" stroke="#CCCCCC"/>
<rect x="829" y="257" width="498" height="46" fill="white"/>
<path d="M853.936 272.68H855.16V286H854.044L846.808 274.984V286H845.584V272.68H846.808L853.936 283.606V272.68ZM865.202 286H864.086C863.942 285.478 863.834 284.848 863.834 284.128C863.348 285.244 862.106 286.144 860.558 286.144C858.866 286.144 857.588 285.046 857.588 283.408C857.588 281.446 859.352 280.42 861.314 280.42C862.088 280.42 862.844 280.51 863.618 280.78V279.52C863.618 278.278 862.862 277.432 861.386 277.432C860.198 277.432 859.19 277.954 858.686 279.412L857.606 279.088C858.326 277.072 859.784 276.316 861.458 276.316C863.816 276.316 864.806 277.738 864.806 279.376V283.3C864.806 284.38 864.986 285.352 865.202 286ZM863.618 282.04V281.824C862.88 281.518 862.124 281.428 861.386 281.428C859.946 281.428 858.812 282.076 858.812 283.336C858.812 284.488 859.622 285.1 860.774 285.1C862.016 285.1 863.618 284.362 863.618 282.04ZM873.433 276.46H874.693L870.949 286H869.869L866.125 276.46H867.457L870.445 284.65L873.433 276.46ZM880.356 276.316C882.264 276.316 883.38 277.486 883.38 279.628V286H882.156V279.808C882.156 278.08 881.364 277.432 880.032 277.432C878.358 277.432 877.584 278.728 877.584 280.636V286H876.36V276.46H877.584V277.936C878.16 276.892 879.204 276.316 880.356 276.316Z" fill="#808080"/>
<rect x="829" y="257" width="498" height="46" stroke="#2A2859" stroke-width="2"/>
<path opacity="0.6" d="M828 136H1328V147H828V136Z" fill="#FF8274"/>
<path d="M847.186 120H848.61V108.16H847.186V120ZM856.453 120H858.133L854.469 115.024L858.069 111.52H856.325L852.533 115.328V108.16H851.157V120H852.533V116.912L853.541 115.92L856.453 120ZM865.034 120H866.714L863.05 115.024L866.65 111.52H864.906L861.114 115.328V108.16H859.738V120H861.114V116.912L862.122 115.92L865.034 120ZM873.471 117.488C873.055 118.304 872.303 118.976 871.135 118.976C869.599 118.976 868.591 118.096 868.495 116.016H874.367L874.399 115.04C874.399 112.688 872.783 111.36 870.895 111.36C868.671 111.36 867.119 113.136 867.119 115.664C867.119 118.32 868.575 120.144 871.023 120.144C872.927 120.144 873.999 119.088 874.447 118.032L873.471 117.488ZM870.895 112.512C872.031 112.512 873.071 113.232 873.055 114.944H868.495C868.655 113.136 869.695 112.512 870.895 112.512ZM879.909 113.776C879.909 114.944 880.757 115.744 882.325 116.064L883.781 116.352C884.757 116.56 885.173 116.944 885.173 117.648C885.173 118.448 884.357 118.976 883.141 118.976C881.941 118.976 881.093 118.512 880.661 117.648L879.605 118.208C880.213 119.456 881.445 120.128 883.173 120.128C885.157 120.128 886.501 119.088 886.501 117.568C886.501 116.288 885.621 115.472 883.781 115.104L882.549 114.864C881.637 114.672 881.237 114.304 881.237 113.68C881.237 112.96 881.957 112.528 883.045 112.528C884.085 112.528 884.853 112.944 885.205 113.696L886.245 113.168C885.797 112.048 884.645 111.36 883.077 111.36C881.205 111.36 879.909 112.4 879.909 113.776ZM891.335 119.968V118.784C891.159 118.832 890.983 118.848 890.823 118.848C890.151 118.848 889.751 118.496 889.751 117.76V108.16H888.375V117.824C888.375 119.2 889.063 120.08 890.503 120.08C890.791 120.08 891.047 120.032 891.335 119.968ZM893.801 110.032C894.393 110.032 894.873 109.568 894.873 108.944C894.873 108.336 894.393 107.872 893.801 107.872C893.193 107.872 892.713 108.336 892.713 108.944C892.713 109.568 893.193 110.032 893.801 110.032ZM893.113 120H894.489V111.52H893.113V120ZM902.35 120H904.03L900.366 115.024L903.966 111.52H902.222L898.43 115.328V108.16H897.054V120H898.43V116.912L899.438 115.92L902.35 120Z" fill="#2A2859"/>
</svg>
