<svg width="810" height="225" viewBox="0 0 810 225" fill="none" xmlns="http://www.w3.org/2000/svg">
<rect x="335" y="96" width="140" height="62" fill="#2A2859"/>
<path fill-rule="evenodd" clip-rule="evenodd" d="M353 112V142H379.414L383 138.414V112H353ZM357 114H355V140H358V132H378V140H378.584L381 137.584V114H379V128H357V114ZM377 114H359V126H377V114ZM376 140V134H373V140H376ZM371 140V134H360V140H371Z" fill="white"/>
<path d="M396.896 132.408V117.24H394.088V135H404.744V132.408H396.896ZM417.258 135C416.946 134.184 416.706 132.84 416.706 131.328V126.408C416.706 123.984 415.17 121.992 411.786 121.992C409.506 121.992 407.322 123.072 406.41 125.76L408.69 126.456C409.17 124.968 410.202 124.176 411.666 124.176C413.226 124.176 414.09 125.064 414.09 126.432V127.632C413.202 127.392 412.386 127.32 411.522 127.32C408.786 127.32 406.338 128.688 406.338 131.448C406.338 133.656 407.97 135.216 410.274 135.216C412.482 135.216 413.826 133.92 414.426 132.6C414.474 133.584 414.594 134.352 414.786 135H417.258ZM414.09 129.744C414.09 132.36 412.386 133.128 411.09 133.128C409.818 133.128 408.978 132.384 408.978 131.208C408.978 129.816 410.202 129.096 411.786 129.096C412.578 129.096 413.322 129.192 414.09 129.456V129.744ZM432.526 124.368V122.28H428.686V123.336C427.966 122.544 426.742 121.992 425.182 121.992C421.654 121.992 419.806 124.32 419.806 126.6C419.806 128.136 420.67 129.768 422.422 130.536C420.838 130.848 419.686 131.88 419.686 133.176C419.686 134.52 420.718 135.6 422.71 135.6H428.494C429.358 135.6 429.67 136.008 429.67 136.56C429.67 137.736 427.894 138.408 425.398 138.408C423.07 138.408 421.678 138 421.078 136.464L418.462 136.968C419.11 139.44 421.606 140.376 425.326 140.376C429.574 140.376 432.238 138.864 432.238 136.248C432.238 134.52 430.99 133.392 428.806 133.392H423.502C422.686 133.392 422.278 133.008 422.278 132.48C422.278 131.712 423.118 131.28 424.414 131.28H425.038C428.734 131.28 430.51 128.976 430.51 126.672C430.51 125.952 430.294 125.256 429.862 124.656V124.368H432.526ZM425.182 129.336C423.358 129.336 422.47 128.04 422.47 126.648C422.47 125.256 423.358 123.984 425.182 123.984C427.03 123.984 427.894 125.256 427.894 126.648C427.894 128.04 427.03 129.336 425.182 129.336ZM440.52 121.992C439.416 121.992 438.096 122.568 437.376 123.984V122.28H434.688V135H437.376V127.56C437.376 125.136 438.384 124.224 439.752 124.224C441 124.224 441.408 125.016 441.408 126.168V127.464L443.568 127.08V125.4C443.568 123.216 442.368 121.992 440.52 121.992ZM454.474 130.992C453.802 132.192 452.722 133.032 451.162 133.032C449.05 133.032 447.73 131.88 447.586 129.192H456.226L456.274 127.608C456.274 124.008 453.802 121.992 450.802 121.992C447.418 121.992 444.946 124.656 444.946 128.52C444.946 132.432 447.226 135.216 450.994 135.216C453.898 135.216 455.578 133.632 456.298 132.048L454.474 130.992ZM450.802 124.104C452.29 124.104 453.682 125.016 453.658 127.272H447.586C447.802 124.968 449.17 124.104 450.802 124.104Z" fill="white"/>
<rect x="335" y="96" width="140" height="62" stroke="#2A2859" stroke-width="2"/>
<circle cx="367.986" cy="70.9819" r="7.5" fill="#6FE9FF" stroke="#6FE9FF"/>
<path d="M368.69 73.0909V67.3219H367.79L366.179 68.3839V69.4549L367.646 68.5189V73.0909H366.107V73.9819H370.148V73.0909H368.69Z" fill="#2A2859"/>
<line opacity="0.3" x1="367.986" y1="113.982" x2="367.986" y2="77.9819" stroke="#6FE9FF"/>
<circle cx="367.986" cy="115.982" r="3" fill="#6FE9FF"/>
<circle cx="428.953" cy="38" r="7.5" fill="#6FE9FF" stroke="#6FE9FF"/>
<path d="M428.153 40.046L429.917 38.237C430.718 37.409 431.069 36.896 431.069 36.086C431.069 35.141 430.322 34.25 428.927 34.25C427.865 34.25 426.929 34.799 426.614 36.095L427.586 36.302C427.784 35.564 428.216 35.186 428.909 35.186C429.566 35.186 429.962 35.609 429.962 36.158C429.962 36.707 429.701 37.058 429.062 37.733L426.731 40.172V41H431.321V40.046H428.153Z" fill="#2A2859"/>
<line opacity="0.3" x1="428.953" y1="113.952" x2="428.953" y2="45.0002" stroke="#6FE9FF"/>
<circle cx="428.953" cy="115.952" r="3" fill="#6FE9FF"/>
<circle cx="462.934" cy="80.9766" r="7.5" fill="#6FE9FF" stroke="#6FE9FF"/>
<path d="M464.052 80.4486C464.592 80.1876 465.006 79.7016 465.006 79.0086C465.006 78.1266 464.331 77.2266 462.792 77.2266C461.721 77.2266 460.83 77.8116 460.443 78.9636L461.388 79.2336C461.613 78.5766 462.063 78.1626 462.774 78.1626C463.494 78.1626 463.944 78.5496 463.944 79.1976C463.944 79.4766 463.836 79.7466 463.611 79.9266C463.422 80.0796 463.224 80.1426 462.774 80.1426H462.099V81.0246H463.125C463.413 81.0246 463.602 81.0696 463.782 81.1686C464.07 81.3126 464.223 81.6006 464.223 82.0056C464.223 82.6086 463.683 83.1216 462.819 83.1216C462.108 83.1216 461.604 82.8786 461.118 82.2306L460.344 82.8156C461.019 83.7246 461.865 84.0666 462.81 84.0666C464.349 84.0666 465.285 83.1576 465.285 82.0596C465.285 81.1866 464.709 80.6736 464.052 80.4486Z" fill="#2A2859"/>
<line opacity="0.3" x1="462.934" y1="112.952" x2="462.934" y2="87.9767" stroke="#6FE9FF"/>
<circle cx="462.934" cy="114.952" r="3" fill="#6FE9FF"/>
</svg>
