<svg width="810" height="217" viewBox="0 0 810 217" fill="none" xmlns="http://www.w3.org/2000/svg">
<rect width="810" height="217" fill="white"/>
<rect x="335" y="89.9648" width="140" height="62" fill="#2A2859"/>
<path fill-rule="evenodd" clip-rule="evenodd" d="M353 105.965V135.965H379.414L383 132.379V105.965H353ZM357 107.965H355V133.965H358V125.965H378V133.965H378.584L381 131.549V107.965H379V121.965H357V107.965ZM377 107.965H359V119.965H377V107.965ZM376 133.965V127.965H373V133.965H376ZM371 133.965V127.965H360V133.965H371Z" fill="white"/>
<path d="M396.896 126.373V111.205H394.088V128.965H404.744V126.373H396.896ZM417.258 128.965C416.946 128.149 416.706 126.805 416.706 125.293V120.373C416.706 117.949 415.17 115.957 411.786 115.957C409.506 115.957 407.322 117.037 406.41 119.725L408.69 120.421C409.17 118.933 410.202 118.141 411.666 118.141C413.226 118.141 414.09 119.029 414.09 120.397V121.597C413.202 121.357 412.386 121.285 411.522 121.285C408.786 121.285 406.338 122.653 406.338 125.413C406.338 127.621 407.97 129.181 410.274 129.181C412.482 129.181 413.826 127.885 414.426 126.565C414.474 127.549 414.594 128.317 414.786 128.965H417.258ZM414.09 123.709C414.09 126.325 412.386 127.093 411.09 127.093C409.818 127.093 408.978 126.349 408.978 125.173C408.978 123.781 410.202 123.061 411.786 123.061C412.578 123.061 413.322 123.157 414.09 123.421V123.709ZM432.526 118.333V116.245H428.686V117.301C427.966 116.509 426.742 115.957 425.182 115.957C421.654 115.957 419.806 118.285 419.806 120.565C419.806 122.101 420.67 123.733 422.422 124.501C420.838 124.813 419.686 125.845 419.686 127.141C419.686 128.485 420.718 129.565 422.71 129.565H428.494C429.358 129.565 429.67 129.973 429.67 130.525C429.67 131.701 427.894 132.373 425.398 132.373C423.07 132.373 421.678 131.965 421.078 130.429L418.462 130.933C419.11 133.405 421.606 134.341 425.326 134.341C429.574 134.341 432.238 132.829 432.238 130.213C432.238 128.485 430.99 127.357 428.806 127.357H423.502C422.686 127.357 422.278 126.973 422.278 126.445C422.278 125.677 423.118 125.245 424.414 125.245H425.038C428.734 125.245 430.51 122.941 430.51 120.637C430.51 119.917 430.294 119.221 429.862 118.621V118.333H432.526ZM425.182 123.301C423.358 123.301 422.47 122.005 422.47 120.613C422.47 119.221 423.358 117.949 425.182 117.949C427.03 117.949 427.894 119.221 427.894 120.613C427.894 122.005 427.03 123.301 425.182 123.301ZM440.52 115.957C439.416 115.957 438.096 116.533 437.376 117.949V116.245H434.688V128.965H437.376V121.525C437.376 119.101 438.384 118.189 439.752 118.189C441 118.189 441.408 118.981 441.408 120.133V121.429L443.568 121.045V119.365C443.568 117.181 442.368 115.957 440.52 115.957ZM454.474 124.957C453.802 126.157 452.722 126.997 451.162 126.997C449.05 126.997 447.73 125.845 447.586 123.157H456.226L456.274 121.573C456.274 117.973 453.802 115.957 450.802 115.957C447.418 115.957 444.946 118.621 444.946 122.485C444.946 126.397 447.226 129.181 450.994 129.181C453.898 129.181 455.578 127.597 456.298 126.013L454.474 124.957ZM450.802 118.069C452.29 118.069 453.682 118.981 453.658 121.237H447.586C447.802 118.933 449.17 118.069 450.802 118.069Z" fill="white"/>
<rect x="335" y="89.9648" width="140" height="62" stroke="#2A2859" stroke-width="2"/>
<circle cx="367.986" cy="65.9819" r="7.5" fill="#6FE9FF" stroke="#6FE9FF"/>
<path d="M368.69 68.0909V62.3219H367.79L366.179 63.3839V64.4549L367.646 63.5189V68.0909H366.107V68.9819H370.148V68.0909H368.69Z" fill="#2A2859"/>
<line opacity="0.3" x1="367.986" y1="108.982" x2="367.986" y2="72.9819" stroke="#6FE9FF"/>
<circle cx="367.986" cy="110.982" r="3" fill="#6FE9FF"/>
<circle cx="428.953" cy="33" r="7.5" fill="#6FE9FF" stroke="#6FE9FF"/>
<path d="M428.153 35.046L429.917 33.237C430.718 32.409 431.069 31.896 431.069 31.086C431.069 30.141 430.322 29.25 428.927 29.25C427.865 29.25 426.929 29.799 426.614 31.095L427.586 31.302C427.784 30.564 428.216 30.186 428.909 30.186C429.566 30.186 429.962 30.609 429.962 31.158C429.962 31.707 429.701 32.058 429.062 32.733L426.731 35.172V36H431.321V35.046H428.153Z" fill="#2A2859"/>
<line opacity="0.3" x1="428.953" y1="108.952" x2="428.953" y2="40.0002" stroke="#6FE9FF"/>
<circle cx="428.953" cy="110.952" r="3" fill="#6FE9FF"/>
<circle cx="462.934" cy="75.9766" r="7.5" fill="#6FE9FF" stroke="#6FE9FF"/>
<path d="M464.052 75.4486C464.592 75.1876 465.006 74.7016 465.006 74.0086C465.006 73.1266 464.331 72.2266 462.792 72.2266C461.721 72.2266 460.83 72.8116 460.443 73.9636L461.388 74.2336C461.613 73.5766 462.063 73.1626 462.774 73.1626C463.494 73.1626 463.944 73.5496 463.944 74.1976C463.944 74.4766 463.836 74.7466 463.611 74.9266C463.422 75.0796 463.224 75.1426 462.774 75.1426H462.099V76.0246H463.125C463.413 76.0246 463.602 76.0696 463.782 76.1686C464.07 76.3126 464.223 76.6006 464.223 77.0056C464.223 77.6086 463.683 78.1216 462.819 78.1216C462.108 78.1216 461.604 77.8786 461.118 77.2306L460.344 77.8156C461.019 78.7246 461.865 79.0666 462.81 79.0666C464.349 79.0666 465.285 78.1576 465.285 77.0596C465.285 76.1866 464.709 75.6736 464.052 75.4486Z" fill="#2A2859"/>
<line opacity="0.3" x1="462.934" y1="107.952" x2="462.934" y2="82.9767" stroke="#6FE9FF"/>
<circle cx="462.934" cy="109.952" r="3" fill="#6FE9FF"/>
</svg>
