<svg width="922" height="212" viewBox="0 0 922 212" fill="none" xmlns="http://www.w3.org/2000/svg">
<mask id="path-1-inside-1_4533_147840" fill="white">
<path d="M0 55.8555H455.751V211.77H0V55.8555Z"/>
</mask>
<path d="M0 55.8555H455.751V211.77H0V55.8555Z" fill="white"/>
<path d="M455.751 211.77V212.77H456.751V211.77H455.751ZM0 211.77H-1V212.77H0V211.77ZM454.751 55.8555V211.77H456.751V55.8555H454.751ZM455.751 210.77H0V212.77H455.751V210.77ZM1 211.77V55.8555H-1V211.77H1Z" fill="#E6E6E6" mask="url(#path-1-inside-1_4533_147840)"/>
<mask id="path-3-inside-2_4533_147840" fill="white">
<path d="M464.746 55.8555H921.497V211.77H464.746V55.8555Z"/>
</mask>
<path d="M464.746 55.8555H921.497V211.77H464.746V55.8555Z" fill="white"/>
<path d="M921.497 211.77V212.77H922.497V211.77H921.497ZM464.746 211.77H463.746V212.77H464.746V211.77ZM920.497 55.8555V211.77H922.497V55.8555H920.497ZM921.497 210.77H464.746V212.77H921.497V210.77ZM465.746 211.77V55.8555H463.746V211.77H465.746Z" fill="#E6E6E6" mask="url(#path-3-inside-2_4533_147840)"/>
<rect x="0.5" y="1.38574" width="454.316" height="53.97" stroke="#E6E6E6"/>
<rect x="465.693" y="1.38574" width="455.304" height="53.97" stroke="#E6E6E6"/>
<path d="M0 44.8618H455.316V55.8558H0V44.8618Z" fill="#C7F6C9"/>
<path opacity="0.6" d="M465.193 44.8618H921.497V55.8558H465.193V44.8618Z" fill="#FF8274"/>
<path d="M20.2116 29.0297C21.7956 29.0297 23.3796 28.5657 24.4356 27.6857V22.4857H18.9796V23.7817H23.1556V27.0297C22.3556 27.4937 21.4916 27.7337 20.2916 27.7337C17.8276 27.7337 16.0996 26.0217 16.0996 22.9017C16.0996 19.7817 17.9236 18.2617 20.0676 18.2617C21.4116 18.2617 22.5636 18.9337 23.1396 20.1817L24.4036 19.5257C23.6516 17.8457 22.1476 16.9017 20.0836 16.9017C17.0916 16.9017 14.6116 19.2537 14.6116 22.9017C14.6116 26.6617 16.9636 29.0297 20.2116 29.0297ZM27.5186 18.9177C28.1106 18.9177 28.5906 18.4537 28.5906 17.8297C28.5906 17.2217 28.1106 16.7577 27.5186 16.7577C26.9106 16.7577 26.4306 17.2217 26.4306 17.8297C26.4306 18.4537 26.9106 18.9177 27.5186 18.9177ZM26.1906 32.3737C27.5506 32.3737 28.2066 31.5257 28.2066 29.9897V20.4057H26.8306V30.0057C26.8306 30.7257 26.6226 31.1897 25.9186 31.1897C25.7586 31.1897 25.5666 31.1737 25.3426 31.0937L25.2306 32.2297C25.5346 32.3257 25.8706 32.3737 26.1906 32.3737ZM36.3084 20.9817L37.0124 19.5897H36.1964L35.6844 20.5977C35.2044 20.3737 34.6604 20.2457 34.0844 20.2457C31.9244 20.2457 30.1964 21.9737 30.1964 24.6137C30.1964 26.2457 30.8364 27.5257 31.8124 28.2777L31.1084 29.6857H31.9404L32.4524 28.6617C32.9484 28.9017 33.5084 29.0297 34.0844 29.0297C36.2124 29.0297 37.9564 27.3017 37.9564 24.6137C37.9564 22.9977 37.3164 21.7177 36.3084 20.9817ZM31.6204 24.6137C31.6204 22.4537 32.7404 21.4457 34.0844 21.4457C34.4524 21.4457 34.8204 21.5257 35.1404 21.6857L32.4044 27.1097C31.9244 26.5817 31.6204 25.7497 31.6204 24.6137ZM34.0844 27.8297C33.7004 27.8297 33.3324 27.7497 32.9964 27.5737L35.7324 22.1337C36.2284 22.6617 36.5324 23.4777 36.5324 24.6137C36.5324 26.7737 35.4284 27.8297 34.0844 27.8297ZM43.2918 20.2457C42.5398 20.2457 41.7398 20.6297 41.2758 21.4937V20.4057H39.8998V28.8857H41.2758V23.7817C41.2758 22.1017 41.9798 21.4297 42.9398 21.4297C43.7878 21.4297 44.0598 21.9737 44.0598 22.7897V23.6377L45.2438 23.4137V22.4697C45.2438 21.0137 44.4438 20.2457 43.2918 20.2457ZM50.6146 22.6617C50.6146 23.8297 51.4626 24.6297 53.0306 24.9497L54.4866 25.2377C55.4626 25.4457 55.8786 25.8297 55.8786 26.5337C55.8786 27.3337 55.0626 27.8617 53.8466 27.8617C52.6466 27.8617 51.7986 27.3977 51.3666 26.5337L50.3106 27.0937C50.9186 28.3417 52.1506 29.0137 53.8786 29.0137C55.8626 29.0137 57.2066 27.9737 57.2066 26.4537C57.2066 25.1737 56.3266 24.3577 54.4866 23.9897L53.2546 23.7497C52.3426 23.5577 51.9426 23.1897 51.9426 22.5657C51.9426 21.8457 52.6626 21.4137 53.7506 21.4137C54.7906 21.4137 55.5586 21.8297 55.9106 22.5817L56.9506 22.0537C56.5026 20.9337 55.3506 20.2457 53.7826 20.2457C51.9106 20.2457 50.6146 21.2857 50.6146 22.6617ZM62.041 28.8537V27.6697C61.865 27.7177 61.689 27.7337 61.529 27.7337C60.857 27.7337 60.457 27.3817 60.457 26.6457V17.0457H59.081V26.7097C59.081 28.0857 59.769 28.9657 61.209 28.9657C61.497 28.9657 61.753 28.9177 62.041 28.8537ZM63.5625 16.9497V18.8057H65.4505V16.9497H63.5625ZM63.8185 28.8857H65.1945V20.4057H63.8185V28.8857ZM73.0555 28.8857H74.7355L71.0715 23.9097L74.6715 20.4057H72.9275L69.1355 24.2137V17.0457H67.7595V28.8857H69.1355V25.7977L70.1435 24.8057L73.0555 28.8857Z" fill="#2A2859"/>
<rect x="160.913" y="102.831" width="134" height="62" fill="#2A2859"/>
<path d="M179.569 129.015C179.569 131.703 181.441 133.359 184.297 133.791L187.321 134.271C189.049 134.559 189.985 135.231 189.985 136.719C189.985 138.351 188.521 139.551 186.145 139.551C184.489 139.551 182.569 138.975 181.441 136.935L179.089 138.447C180.601 141.015 183.097 142.071 186.121 142.071C190.369 142.071 192.913 139.623 192.913 136.623C192.913 133.767 190.753 132.087 187.657 131.607L184.921 131.199C183.193 130.911 182.401 130.071 182.401 128.799C182.401 127.263 183.817 126.327 185.905 126.327C187.657 126.327 189.289 127.167 190.057 128.607L192.385 127.167C191.017 124.815 188.761 123.831 185.929 123.831C182.473 123.831 179.569 125.871 179.569 129.015ZM204.564 137.823C203.892 139.023 202.812 139.863 201.252 139.863C199.14 139.863 197.82 138.711 197.676 136.023H206.316L206.364 134.439C206.364 130.839 203.892 128.823 200.892 128.823C197.508 128.823 195.036 131.487 195.036 135.351C195.036 139.263 197.316 142.047 201.084 142.047C203.988 142.047 205.668 140.463 206.388 138.879L204.564 137.823ZM200.892 130.935C202.38 130.935 203.772 131.847 203.748 134.103H197.676C197.892 131.799 199.26 130.935 200.892 130.935ZM215.888 128.823C214.304 128.823 213.032 129.591 212.168 130.935V129.111H209.48V141.831H212.168V134.943C212.168 132.471 213.128 131.151 215.024 131.151C216.488 131.151 217.328 131.943 217.328 133.695V141.831H220.016V133.263C220.016 130.503 218.48 128.823 215.888 128.823ZM232.19 124.071V131.055C231.398 129.495 229.958 128.847 228.518 128.847C225.158 128.847 222.926 131.511 222.926 135.519C222.926 139.383 225.134 142.023 228.206 142.023C229.67 142.023 231.206 141.303 232.19 139.527V141.831H234.878V124.071H232.19ZM228.926 139.671C227.078 139.671 225.71 138.231 225.71 135.375C225.71 132.495 227.078 131.007 228.926 131.007C230.894 131.007 232.19 132.423 232.19 135.375C232.19 138.351 230.87 139.671 228.926 139.671ZM245.755 126.999C246.811 126.999 247.627 126.183 247.627 125.103C247.627 124.023 246.811 123.207 245.755 123.207C244.699 123.207 243.859 124.023 243.859 125.103C243.859 126.183 244.699 126.999 245.755 126.999ZM244.411 141.831H247.099V129.111H244.411V141.831ZM257.416 128.823C255.832 128.823 254.56 129.591 253.696 130.935V129.111H251.008V141.831H253.696V134.943C253.696 132.471 254.656 131.151 256.552 131.151C258.016 131.151 258.856 131.943 258.856 133.695V141.831H261.544V133.263C261.544 130.503 260.008 128.823 257.416 128.823ZM271.654 128.823C270.07 128.823 268.798 129.591 267.934 130.935V129.111H265.246V141.831H267.934V134.943C267.934 132.471 268.894 131.151 270.79 131.151C272.254 131.151 273.094 131.943 273.094 133.695V141.831H275.782V133.263C275.782 130.503 274.246 128.823 271.654 128.823Z" fill="white"/>
<rect x="160.913" y="102.831" width="134" height="62" stroke="#2A2859" stroke-width="2"/>
<path d="M484.379 28.8857H485.803V17.0457H484.379V28.8857ZM493.646 28.8857H495.326L491.662 23.9097L495.262 20.4057H493.518L489.726 24.2137V17.0457H488.35V28.8857H489.726V25.7977L490.734 24.8057L493.646 28.8857ZM502.227 28.8857H503.907L500.243 23.9097L503.843 20.4057H502.099L498.307 24.2137V17.0457H496.931V28.8857H498.307V25.7977L499.315 24.8057L502.227 28.8857ZM510.664 26.3737C510.248 27.1897 509.496 27.8617 508.328 27.8617C506.792 27.8617 505.784 26.9817 505.688 24.9017H511.56L511.592 23.9257C511.592 21.5737 509.976 20.2457 508.088 20.2457C505.864 20.2457 504.312 22.0217 504.312 24.5497C504.312 27.2057 505.768 29.0297 508.216 29.0297C510.12 29.0297 511.192 27.9737 511.64 26.9177L510.664 26.3737ZM508.088 21.3977C509.224 21.3977 510.264 22.1177 510.248 23.8297H505.688C505.848 22.0217 506.888 21.3977 508.088 21.3977ZM517.102 22.6617C517.102 23.8297 517.95 24.6297 519.518 24.9497L520.974 25.2377C521.95 25.4457 522.366 25.8297 522.366 26.5337C522.366 27.3337 521.55 27.8617 520.334 27.8617C519.134 27.8617 518.286 27.3977 517.854 26.5337L516.798 27.0937C517.406 28.3417 518.638 29.0137 520.366 29.0137C522.35 29.0137 523.694 27.9737 523.694 26.4537C523.694 25.1737 522.814 24.3577 520.974 23.9897L519.742 23.7497C518.83 23.5577 518.43 23.1897 518.43 22.5657C518.43 21.8457 519.15 21.4137 520.238 21.4137C521.278 21.4137 522.046 21.8297 522.398 22.5817L523.438 22.0537C522.99 20.9337 521.838 20.2457 520.27 20.2457C518.398 20.2457 517.102 21.2857 517.102 22.6617ZM528.528 28.8537V27.6697C528.352 27.7177 528.176 27.7337 528.016 27.7337C527.344 27.7337 526.944 27.3817 526.944 26.6457V17.0457H525.568V26.7097C525.568 28.0857 526.256 28.9657 527.696 28.9657C527.984 28.9657 528.24 28.9177 528.528 28.8537ZM530.994 18.9177C531.586 18.9177 532.066 18.4537 532.066 17.8297C532.066 17.2217 531.586 16.7577 530.994 16.7577C530.386 16.7577 529.906 17.2217 529.906 17.8297C529.906 18.4537 530.386 18.9177 530.994 18.9177ZM530.306 28.8857H531.682V20.4057H530.306V28.8857ZM539.543 28.8857H541.223L537.559 23.9097L541.159 20.4057H539.415L535.623 24.2137V17.0457H534.247V28.8857H535.623V25.7977L536.631 24.8057L539.543 28.8857Z" fill="#2A2859"/>
<rect x="626.659" y="102.831" width="134" height="62" rx="7" fill="#2A2859"/>
<path d="M645.315 129.015C645.315 131.703 647.187 133.359 650.043 133.791L653.067 134.271C654.795 134.559 655.731 135.231 655.731 136.719C655.731 138.351 654.267 139.551 651.891 139.551C650.235 139.551 648.315 138.975 647.187 136.935L644.835 138.447C646.347 141.015 648.843 142.071 651.867 142.071C656.115 142.071 658.659 139.623 658.659 136.623C658.659 133.767 656.499 132.087 653.403 131.607L650.667 131.199C648.939 130.911 648.147 130.071 648.147 128.799C648.147 127.263 649.563 126.327 651.651 126.327C653.403 126.327 655.035 127.167 655.803 128.607L658.131 127.167C656.763 124.815 654.507 123.831 651.675 123.831C648.219 123.831 645.315 125.871 645.315 129.015ZM670.311 137.823C669.639 139.023 668.559 139.863 666.999 139.863C664.887 139.863 663.567 138.711 663.423 136.023H672.063L672.111 134.439C672.111 130.839 669.639 128.823 666.639 128.823C663.255 128.823 660.783 131.487 660.783 135.351C660.783 139.263 663.063 142.047 666.831 142.047C669.735 142.047 671.415 140.463 672.135 138.879L670.311 137.823ZM666.639 130.935C668.127 130.935 669.519 131.847 669.495 134.103H663.423C663.639 131.799 665.007 130.935 666.639 130.935ZM681.634 128.823C680.05 128.823 678.778 129.591 677.914 130.935V129.111H675.226V141.831H677.914V134.943C677.914 132.471 678.874 131.151 680.77 131.151C682.234 131.151 683.074 131.943 683.074 133.695V141.831H685.762V133.263C685.762 130.503 684.226 128.823 681.634 128.823ZM697.936 124.071V131.055C697.144 129.495 695.704 128.847 694.264 128.847C690.904 128.847 688.672 131.511 688.672 135.519C688.672 139.383 690.88 142.023 693.952 142.023C695.416 142.023 696.952 141.303 697.936 139.527V141.831H700.624V124.071H697.936ZM694.672 139.671C692.824 139.671 691.456 138.231 691.456 135.375C691.456 132.495 692.824 131.007 694.672 131.007C696.64 131.007 697.936 132.423 697.936 135.375C697.936 138.351 696.616 139.671 694.672 139.671ZM711.501 126.999C712.557 126.999 713.373 126.183 713.373 125.103C713.373 124.023 712.557 123.207 711.501 123.207C710.445 123.207 709.605 124.023 709.605 125.103C709.605 126.183 710.445 126.999 711.501 126.999ZM710.157 141.831H712.845V129.111H710.157V141.831ZM723.162 128.823C721.578 128.823 720.306 129.591 719.442 130.935V129.111H716.754V141.831H719.442V134.943C719.442 132.471 720.402 131.151 722.298 131.151C723.762 131.151 724.602 131.943 724.602 133.695V141.831H727.29V133.263C727.29 130.503 725.754 128.823 723.162 128.823ZM737.4 128.823C735.816 128.823 734.544 129.591 733.68 130.935V129.111H730.992V141.831H733.68V134.943C733.68 132.471 734.64 131.151 736.536 131.151C738 131.151 738.84 131.943 738.84 133.695V141.831H741.528V133.263C741.528 130.503 739.992 128.823 737.4 128.823Z" fill="white"/>
<rect x="626.659" y="102.831" width="134" height="62" rx="7" stroke="#2A2859" stroke-width="2"/>
</svg>
