<svg width="922" height="212" viewBox="0 0 922 212" fill="none" xmlns="http://www.w3.org/2000/svg">
<mask id="path-1-inside-1_4533_147844" fill="white">
<path d="M0 55.5918H455.751V211.507H0V55.5918Z"/>
</mask>
<path d="M0 55.5918H455.751V211.507H0V55.5918Z" fill="white"/>
<path d="M455.751 211.507V212.507H456.751V211.507H455.751ZM0 211.507H-1V212.507H0V211.507ZM454.751 55.5918V211.507H456.751V55.5918H454.751ZM455.751 210.507H0V212.507H455.751V210.507ZM1 211.507V55.5918H-1V211.507H1Z" fill="#E6E6E6" mask="url(#path-1-inside-1_4533_147844)"/>
<mask id="path-3-inside-2_4533_147844" fill="white">
<path d="M464.746 55.5918H921.497V211.507H464.746V55.5918Z"/>
</mask>
<path d="M464.746 55.5918H921.497V211.507H464.746V55.5918Z" fill="white"/>
<path d="M921.497 211.507V212.507H922.497V211.507H921.497ZM464.746 211.507H463.746V212.507H464.746V211.507ZM920.497 55.5918V211.507H922.497V55.5918H920.497ZM921.497 210.507H464.746V212.507H921.497V210.507ZM465.746 211.507V55.5918H463.746V211.507H465.746Z" fill="#E6E6E6" mask="url(#path-3-inside-2_4533_147844)"/>
<rect x="0.5" y="1.12109" width="454.316" height="53.97" stroke="#E6E6E6"/>
<rect x="465.693" y="1.12109" width="455.304" height="53.97" stroke="#E6E6E6"/>
<path d="M0 44.5977H455.316V55.5917H0V44.5977Z" fill="#C7F6C9"/>
<path opacity="0.6" d="M465.193 44.5977H921.497V55.5917H465.193V44.5977Z" fill="#FF8274"/>
<path d="M20.2116 28.7651C21.7956 28.7651 23.3796 28.3011 24.4356 27.4211V22.2211H18.9796V23.5171H23.1556V26.7651C22.3556 27.2291 21.4916 27.4691 20.2916 27.4691C17.8276 27.4691 16.0996 25.7571 16.0996 22.6371C16.0996 19.5171 17.9236 17.9971 20.0676 17.9971C21.4116 17.9971 22.5636 18.6691 23.1396 19.9171L24.4036 19.2611C23.6516 17.5811 22.1476 16.6371 20.0836 16.6371C17.0916 16.6371 14.6116 18.9891 14.6116 22.6371C14.6116 26.3971 16.9636 28.7651 20.2116 28.7651ZM27.5186 18.6531C28.1106 18.6531 28.5906 18.1891 28.5906 17.5651C28.5906 16.9571 28.1106 16.4931 27.5186 16.4931C26.9106 16.4931 26.4306 16.9571 26.4306 17.5651C26.4306 18.1891 26.9106 18.6531 27.5186 18.6531ZM26.1906 32.1091C27.5506 32.1091 28.2066 31.2611 28.2066 29.7251V20.1411H26.8306V29.7411C26.8306 30.4611 26.6226 30.9251 25.9186 30.9251C25.7586 30.9251 25.5666 30.9091 25.3426 30.8291L25.2306 31.9651C25.5346 32.0611 25.8706 32.1091 26.1906 32.1091ZM36.3084 20.7171L37.0124 19.3251H36.1964L35.6844 20.3331C35.2044 20.1091 34.6604 19.9811 34.0844 19.9811C31.9244 19.9811 30.1964 21.7091 30.1964 24.3491C30.1964 25.9811 30.8364 27.2611 31.8124 28.0131L31.1084 29.4211H31.9404L32.4524 28.3971C32.9484 28.6371 33.5084 28.7651 34.0844 28.7651C36.2124 28.7651 37.9564 27.0371 37.9564 24.3491C37.9564 22.7331 37.3164 21.4531 36.3084 20.7171ZM31.6204 24.3491C31.6204 22.1891 32.7404 21.1811 34.0844 21.1811C34.4524 21.1811 34.8204 21.2611 35.1404 21.4211L32.4044 26.8451C31.9244 26.3171 31.6204 25.4851 31.6204 24.3491ZM34.0844 27.5651C33.7004 27.5651 33.3324 27.4851 32.9964 27.3091L35.7324 21.8691C36.2284 22.3971 36.5324 23.2131 36.5324 24.3491C36.5324 26.5091 35.4284 27.5651 34.0844 27.5651ZM43.2918 19.9811C42.5398 19.9811 41.7398 20.3651 41.2758 21.2291V20.1411H39.8998V28.6211H41.2758V23.5171C41.2758 21.8371 41.9798 21.1651 42.9398 21.1651C43.7878 21.1651 44.0598 21.7091 44.0598 22.5251V23.3731L45.2438 23.1491V22.2051C45.2438 20.7491 44.4438 19.9811 43.2918 19.9811ZM50.6146 22.3971C50.6146 23.5651 51.4626 24.3651 53.0306 24.6851L54.4866 24.9731C55.4626 25.1811 55.8786 25.5651 55.8786 26.2691C55.8786 27.0691 55.0626 27.5971 53.8466 27.5971C52.6466 27.5971 51.7986 27.1331 51.3666 26.2691L50.3106 26.8291C50.9186 28.0771 52.1506 28.7491 53.8786 28.7491C55.8626 28.7491 57.2066 27.7091 57.2066 26.1891C57.2066 24.9091 56.3266 24.0931 54.4866 23.7251L53.2546 23.4851C52.3426 23.2931 51.9426 22.9251 51.9426 22.3011C51.9426 21.5811 52.6626 21.1491 53.7506 21.1491C54.7906 21.1491 55.5586 21.5651 55.9106 22.3171L56.9506 21.7891C56.5026 20.6691 55.3506 19.9811 53.7826 19.9811C51.9106 19.9811 50.6146 21.0211 50.6146 22.3971ZM62.041 28.5891V27.4051C61.865 27.4531 61.689 27.4691 61.529 27.4691C60.857 27.4691 60.457 27.1171 60.457 26.3811V16.7811H59.081V26.4451C59.081 27.8211 59.769 28.7011 61.209 28.7011C61.497 28.7011 61.753 28.6531 62.041 28.5891ZM63.5625 16.6851V18.5411H65.4505V16.6851H63.5625ZM63.8185 28.6211H65.1945V20.1411H63.8185V28.6211ZM73.0555 28.6211H74.7355L71.0715 23.6451L74.6715 20.1411H72.9275L69.1355 23.9491V16.7811H67.7595V28.6211H69.1355V25.5331L70.1435 24.5411L73.0555 28.6211Z" fill="#2A2859"/>
<path d="M484.379 28.6211H485.803V16.7811H484.379V28.6211ZM493.646 28.6211H495.326L491.662 23.6451L495.262 20.1411H493.518L489.726 23.9491V16.7811H488.35V28.6211H489.726V25.5331L490.734 24.5411L493.646 28.6211ZM502.227 28.6211H503.907L500.243 23.6451L503.843 20.1411H502.099L498.307 23.9491V16.7811H496.931V28.6211H498.307V25.5331L499.315 24.5411L502.227 28.6211ZM510.664 26.1091C510.248 26.9251 509.496 27.5971 508.328 27.5971C506.792 27.5971 505.784 26.7171 505.688 24.6371H511.56L511.592 23.6611C511.592 21.3091 509.976 19.9811 508.088 19.9811C505.864 19.9811 504.312 21.7571 504.312 24.2851C504.312 26.9411 505.768 28.7651 508.216 28.7651C510.12 28.7651 511.192 27.7091 511.64 26.6531L510.664 26.1091ZM508.088 21.1331C509.224 21.1331 510.264 21.8531 510.248 23.5651H505.688C505.848 21.7571 506.888 21.1331 508.088 21.1331ZM517.102 22.3971C517.102 23.5651 517.95 24.3651 519.518 24.6851L520.974 24.9731C521.95 25.1811 522.366 25.5651 522.366 26.2691C522.366 27.0691 521.55 27.5971 520.334 27.5971C519.134 27.5971 518.286 27.1331 517.854 26.2691L516.798 26.8291C517.406 28.0771 518.638 28.7491 520.366 28.7491C522.35 28.7491 523.694 27.7091 523.694 26.1891C523.694 24.9091 522.814 24.0931 520.974 23.7251L519.742 23.4851C518.83 23.2931 518.43 22.9251 518.43 22.3011C518.43 21.5811 519.15 21.1491 520.238 21.1491C521.278 21.1491 522.046 21.5651 522.398 22.3171L523.438 21.7891C522.99 20.6691 521.838 19.9811 520.27 19.9811C518.398 19.9811 517.102 21.0211 517.102 22.3971ZM528.528 28.5891V27.4051C528.352 27.4531 528.176 27.4691 528.016 27.4691C527.344 27.4691 526.944 27.1171 526.944 26.3811V16.7811H525.568V26.4451C525.568 27.8211 526.256 28.7011 527.696 28.7011C527.984 28.7011 528.24 28.6531 528.528 28.5891ZM530.994 18.6531C531.586 18.6531 532.066 18.1891 532.066 17.5651C532.066 16.9571 531.586 16.4931 530.994 16.4931C530.386 16.4931 529.906 16.9571 529.906 17.5651C529.906 18.1891 530.386 18.6531 530.994 18.6531ZM530.306 28.6211H531.682V20.1411H530.306V28.6211ZM539.543 28.6211H541.223L537.559 23.6451L541.159 20.1411H539.415L535.623 23.9491V16.7811H534.247V28.6211H535.623V25.5331L536.631 24.5411L539.543 28.6211Z" fill="#2A2859"/>
<rect x="140.743" y="102.335" width="174" height="62" fill="#2A2859"/>
<path d="M169.423 142.335L166.873 139.675L161.743 134.355L163.643 132.325L169.423 138.325L182.833 124.335L184.743 126.345L171.973 139.675L169.423 142.335Z" fill="white"/>
<path d="M199.399 128.519C199.399 131.207 201.271 132.863 204.127 133.295L207.151 133.775C208.879 134.063 209.815 134.735 209.815 136.223C209.815 137.855 208.351 139.055 205.975 139.055C204.319 139.055 202.399 138.479 201.271 136.439L198.919 137.951C200.431 140.519 202.927 141.575 205.951 141.575C210.199 141.575 212.743 139.127 212.743 136.127C212.743 133.271 210.583 131.591 207.487 131.111L204.751 130.703C203.023 130.415 202.231 129.575 202.231 128.303C202.231 126.767 203.647 125.831 205.735 125.831C207.487 125.831 209.119 126.671 209.887 128.111L212.215 126.671C210.847 124.319 208.591 123.335 205.759 123.335C202.303 123.335 199.399 125.375 199.399 128.519ZM224.395 137.327C223.723 138.527 222.643 139.367 221.083 139.367C218.971 139.367 217.651 138.215 217.507 135.527H226.147L226.195 133.943C226.195 130.343 223.723 128.327 220.723 128.327C217.339 128.327 214.867 130.991 214.867 134.855C214.867 138.767 217.147 141.551 220.915 141.551C223.819 141.551 225.499 139.967 226.219 138.383L224.395 137.327ZM220.723 130.439C222.211 130.439 223.603 131.351 223.579 133.607H217.507C217.723 131.303 219.091 130.439 220.723 130.439ZM235.719 128.327C234.135 128.327 232.863 129.095 231.999 130.439V128.615H229.311V141.335H231.999V134.447C231.999 131.975 232.959 130.655 234.855 130.655C236.319 130.655 237.159 131.447 237.159 133.199V141.335H239.847V132.767C239.847 130.007 238.311 128.327 235.719 128.327ZM252.02 123.575V130.559C251.228 128.999 249.788 128.351 248.348 128.351C244.988 128.351 242.756 131.015 242.756 135.023C242.756 138.887 244.964 141.527 248.036 141.527C249.5 141.527 251.036 140.807 252.02 139.031V141.335H254.708V123.575H252.02ZM248.756 139.175C246.908 139.175 245.54 137.735 245.54 134.879C245.54 131.999 246.908 130.511 248.756 130.511C250.724 130.511 252.02 131.927 252.02 134.879C252.02 137.855 250.7 139.175 248.756 139.175ZM265.586 126.503C266.642 126.503 267.458 125.687 267.458 124.607C267.458 123.527 266.642 122.711 265.586 122.711C264.53 122.711 263.69 123.527 263.69 124.607C263.69 125.687 264.53 126.503 265.586 126.503ZM264.242 141.335H266.93V128.615H264.242V141.335ZM277.247 128.327C275.663 128.327 274.391 129.095 273.527 130.439V128.615H270.839V141.335H273.527V134.447C273.527 131.975 274.487 130.655 276.383 130.655C277.847 130.655 278.687 131.447 278.687 133.199V141.335H281.375V132.767C281.375 130.007 279.839 128.327 277.247 128.327ZM291.484 128.327C289.9 128.327 288.628 129.095 287.764 130.439V128.615H285.076V141.335H287.764V134.447C287.764 131.975 288.724 130.655 290.62 130.655C292.084 130.655 292.924 131.447 292.924 133.199V141.335H295.612V132.767C295.612 130.007 294.076 128.327 291.484 128.327Z" fill="white"/>
<rect x="140.743" y="102.335" width="174" height="62" stroke="#2A2859" stroke-width="2"/>
<rect x="586.743" y="102.335" width="214" height="62" fill="#2A2859"/>
<path d="M623.243 130.835C624.624 130.835 625.743 129.716 625.743 128.335C625.743 126.954 624.624 125.835 623.243 125.835C621.862 125.835 620.743 126.954 620.743 128.335C620.743 129.716 621.862 130.835 623.243 130.835Z" fill="white"/>
<path fill-rule="evenodd" clip-rule="evenodd" d="M635.743 120.96H603.743V145.96H635.743V120.96ZM633.743 141.65V143.96H629.192L623.946 139.174L627.491 135.939L633.743 141.65ZM633.743 138.941V122.96H605.743V137.312L613.805 129.924L622.462 137.821L627.493 133.232L633.743 138.941ZM613.808 132.633L626.225 143.96H605.743V140.025L613.808 132.633Z" fill="white"/>
<path d="M645.399 128.519C645.399 131.207 647.271 132.863 650.127 133.295L653.151 133.775C654.879 134.063 655.815 134.735 655.815 136.223C655.815 137.855 654.351 139.055 651.975 139.055C650.319 139.055 648.399 138.479 647.271 136.439L644.919 137.951C646.431 140.519 648.927 141.575 651.951 141.575C656.199 141.575 658.743 139.127 658.743 136.127C658.743 133.271 656.583 131.591 653.487 131.111L650.751 130.703C649.023 130.415 648.231 129.575 648.231 128.303C648.231 126.767 649.647 125.831 651.735 125.831C653.487 125.831 655.119 126.671 655.887 128.111L658.215 126.671C656.847 124.319 654.591 123.335 651.759 123.335C648.303 123.335 645.399 125.375 645.399 128.519ZM670.395 137.327C669.723 138.527 668.643 139.367 667.083 139.367C664.971 139.367 663.651 138.215 663.507 135.527H672.147L672.195 133.943C672.195 130.343 669.723 128.327 666.723 128.327C663.339 128.327 660.867 130.991 660.867 134.855C660.867 138.767 663.147 141.551 666.915 141.551C669.819 141.551 671.499 139.967 672.219 138.383L670.395 137.327ZM666.723 130.439C668.211 130.439 669.603 131.351 669.579 133.607H663.507C663.723 131.303 665.091 130.439 666.723 130.439ZM681.719 128.327C680.135 128.327 678.863 129.095 677.999 130.439V128.615H675.311V141.335H677.999V134.447C677.999 131.975 678.959 130.655 680.855 130.655C682.319 130.655 683.159 131.447 683.159 133.199V141.335H685.847V132.767C685.847 130.007 684.311 128.327 681.719 128.327ZM698.02 123.575V130.559C697.228 128.999 695.788 128.351 694.348 128.351C690.988 128.351 688.756 131.015 688.756 135.023C688.756 138.887 690.964 141.527 694.036 141.527C695.5 141.527 697.036 140.807 698.02 139.031V141.335H700.708V123.575H698.02ZM694.756 139.175C692.908 139.175 691.54 137.735 691.54 134.879C691.54 131.999 692.908 130.511 694.756 130.511C696.724 130.511 698.02 131.927 698.02 134.879C698.02 137.855 696.7 139.175 694.756 139.175ZM711.586 126.503C712.642 126.503 713.458 125.687 713.458 124.607C713.458 123.527 712.642 122.711 711.586 122.711C710.53 122.711 709.69 123.527 709.69 124.607C709.69 125.687 710.53 126.503 711.586 126.503ZM710.242 141.335H712.93V128.615H710.242V141.335ZM723.247 128.327C721.663 128.327 720.391 129.095 719.527 130.439V128.615H716.839V141.335H719.527V134.447C719.527 131.975 720.487 130.655 722.383 130.655C723.847 130.655 724.687 131.447 724.687 133.199V141.335H727.375V132.767C727.375 130.007 725.839 128.327 723.247 128.327ZM737.484 128.327C735.9 128.327 734.628 129.095 733.764 130.439V128.615H731.076V141.335H733.764V134.447C733.764 131.975 734.724 130.655 736.62 130.655C738.084 130.655 738.924 131.447 738.924 133.199V141.335H741.612V132.767C741.612 130.007 740.076 128.327 737.484 128.327Z" fill="white"/>
<path d="M767.673 124.935C768.879 124.925 770.045 125.362 770.947 126.162C771.849 126.962 772.422 128.069 772.555 129.267C772.688 130.465 772.372 131.67 771.668 132.649C770.964 133.628 769.922 134.31 768.743 134.565H768.683V136.245H766.683V132.685H767.683C768.222 132.687 768.751 132.537 769.209 132.253C769.667 131.969 770.036 131.562 770.275 131.079C770.513 130.595 770.611 130.055 770.557 129.518C770.504 128.982 770.301 128.471 769.971 128.045C769.642 127.618 769.199 127.292 768.694 127.105C768.188 126.917 767.641 126.875 767.113 126.984C766.585 127.092 766.098 127.347 765.707 127.718C765.316 128.089 765.038 128.563 764.903 129.085V129.255L762.903 128.865C763.122 127.76 763.717 126.765 764.587 126.049C765.456 125.332 766.547 124.939 767.673 124.935ZM767.743 120.335C765.172 120.335 762.659 121.097 760.521 122.526C758.383 123.954 756.717 125.985 755.733 128.36C754.749 130.736 754.491 133.349 754.993 135.871C755.495 138.393 756.733 140.709 758.551 142.527C760.369 144.345 762.685 145.584 765.207 146.085C767.729 146.587 770.343 146.329 772.718 145.345C775.093 144.361 777.124 142.695 778.552 140.557C779.981 138.42 780.743 135.906 780.743 133.335C780.743 129.887 779.374 126.581 776.936 124.143C774.498 121.705 771.191 120.335 767.743 120.335ZM767.743 118.335C770.71 118.335 773.61 119.215 776.077 120.863C778.543 122.511 780.466 124.854 781.601 127.595C782.737 130.336 783.034 133.352 782.455 136.261C781.876 139.171 780.448 141.844 778.35 143.942C776.252 146.039 773.579 147.468 770.67 148.047C767.76 148.626 764.744 148.328 762.003 147.193C759.262 146.058 756.919 144.135 755.271 141.669C753.623 139.202 752.743 136.302 752.743 133.335C752.743 129.357 754.324 125.541 757.137 122.728C759.95 119.915 763.765 118.335 767.743 118.335Z" fill="white"/>
<path fill-rule="evenodd" clip-rule="evenodd" d="M769.393 139.715C769.391 140.055 769.289 140.386 769.098 140.668C768.908 140.949 768.639 141.168 768.324 141.297C768.01 141.426 767.665 141.458 767.332 141.391C766.999 141.323 766.693 141.159 766.453 140.918C766.214 140.677 766.051 140.37 765.986 140.037C765.92 139.703 765.955 139.358 766.085 139.044C766.216 138.731 766.436 138.463 766.719 138.274C767.001 138.086 767.333 137.985 767.673 137.985C767.9 137.985 768.124 138.03 768.334 138.117C768.543 138.204 768.733 138.331 768.893 138.492C769.053 138.653 769.179 138.844 769.265 139.054C769.351 139.264 769.394 139.488 769.393 139.715Z" fill="white"/>
<rect x="586.743" y="102.335" width="214" height="62" stroke="#2A2859" stroke-width="2"/>
</svg>
