<svg width="922" height="212" viewBox="0 0 922 212" fill="none" xmlns="http://www.w3.org/2000/svg">
<mask id="path-1-inside-1_4533_147841" fill="white">
<path d="M0 55.936H455.751V211.851H0V55.936Z"/>
</mask>
<path d="M0 55.936H455.751V211.851H0V55.936Z" fill="white"/>
<path d="M455.751 211.851V212.851H456.751V211.851H455.751ZM0 211.851H-1V212.851H0V211.851ZM454.751 55.936V211.851H456.751V55.936H454.751ZM455.751 210.851H0V212.851H455.751V210.851ZM1 211.851V55.936H-1V211.851H1Z" fill="#E6E6E6" mask="url(#path-1-inside-1_4533_147841)"/>
<mask id="path-3-inside-2_4533_147841" fill="white">
<path d="M464.746 55.936H921.497V211.851H464.746V55.936Z"/>
</mask>
<path d="M464.746 55.936H921.497V211.851H464.746V55.936Z" fill="white"/>
<path d="M921.497 211.851V212.851H922.497V211.851H921.497ZM464.746 211.851H463.746V212.851H464.746V211.851ZM920.497 55.936V211.851H922.497V55.936H920.497ZM921.497 210.851H464.746V212.851H921.497V210.851ZM465.746 211.851V55.936H463.746V211.851H465.746Z" fill="#E6E6E6" mask="url(#path-3-inside-2_4533_147841)"/>
<rect x="0.5" y="1.46631" width="454.316" height="53.97" stroke="#E6E6E6"/>
<rect x="465.693" y="1.46631" width="455.304" height="53.97" stroke="#E6E6E6"/>
<path d="M0 44.9424H455.316V55.9364H0V44.9424Z" fill="#C7F6C9"/>
<path opacity="0.6" d="M465.193 44.9424H921.497V55.9364H465.193V44.9424Z" fill="#FF8274"/>
<path d="M20.2116 29.1103C21.7956 29.1103 23.3796 28.6463 24.4356 27.7663V22.5663H18.9796V23.8623H23.1556V27.1103C22.3556 27.5743 21.4916 27.8143 20.2916 27.8143C17.8276 27.8143 16.0996 26.1023 16.0996 22.9823C16.0996 19.8623 17.9236 18.3423 20.0676 18.3423C21.4116 18.3423 22.5636 19.0143 23.1396 20.2623L24.4036 19.6063C23.6516 17.9263 22.1476 16.9823 20.0836 16.9823C17.0916 16.9823 14.6116 19.3343 14.6116 22.9823C14.6116 26.7423 16.9636 29.1103 20.2116 29.1103ZM27.5186 18.9983C28.1106 18.9983 28.5906 18.5343 28.5906 17.9103C28.5906 17.3023 28.1106 16.8383 27.5186 16.8383C26.9106 16.8383 26.4306 17.3023 26.4306 17.9103C26.4306 18.5343 26.9106 18.9983 27.5186 18.9983ZM26.1906 32.4543C27.5506 32.4543 28.2066 31.6063 28.2066 30.0703V20.4863H26.8306V30.0863C26.8306 30.8063 26.6226 31.2703 25.9186 31.2703C25.7586 31.2703 25.5666 31.2543 25.3426 31.1743L25.2306 32.3103C25.5346 32.4063 25.8706 32.4543 26.1906 32.4543ZM36.3084 21.0623L37.0124 19.6703H36.1964L35.6844 20.6783C35.2044 20.4543 34.6604 20.3263 34.0844 20.3263C31.9244 20.3263 30.1964 22.0543 30.1964 24.6943C30.1964 26.3263 30.8364 27.6063 31.8124 28.3583L31.1084 29.7663H31.9404L32.4524 28.7423C32.9484 28.9823 33.5084 29.1103 34.0844 29.1103C36.2124 29.1103 37.9564 27.3823 37.9564 24.6943C37.9564 23.0783 37.3164 21.7983 36.3084 21.0623ZM31.6204 24.6943C31.6204 22.5343 32.7404 21.5263 34.0844 21.5263C34.4524 21.5263 34.8204 21.6063 35.1404 21.7663L32.4044 27.1903C31.9244 26.6623 31.6204 25.8303 31.6204 24.6943ZM34.0844 27.9103C33.7004 27.9103 33.3324 27.8303 32.9964 27.6543L35.7324 22.2143C36.2284 22.7423 36.5324 23.5583 36.5324 24.6943C36.5324 26.8543 35.4284 27.9103 34.0844 27.9103ZM43.2918 20.3263C42.5398 20.3263 41.7398 20.7103 41.2758 21.5743V20.4863H39.8998V28.9663H41.2758V23.8623C41.2758 22.1823 41.9798 21.5103 42.9398 21.5103C43.7878 21.5103 44.0598 22.0543 44.0598 22.8703V23.7183L45.2438 23.4943V22.5503C45.2438 21.0943 44.4438 20.3263 43.2918 20.3263ZM50.6146 22.7423C50.6146 23.9103 51.4626 24.7103 53.0306 25.0303L54.4866 25.3183C55.4626 25.5263 55.8786 25.9103 55.8786 26.6143C55.8786 27.4143 55.0626 27.9423 53.8466 27.9423C52.6466 27.9423 51.7986 27.4783 51.3666 26.6143L50.3106 27.1743C50.9186 28.4223 52.1506 29.0943 53.8786 29.0943C55.8626 29.0943 57.2066 28.0543 57.2066 26.5343C57.2066 25.2543 56.3266 24.4383 54.4866 24.0703L53.2546 23.8303C52.3426 23.6383 51.9426 23.2703 51.9426 22.6463C51.9426 21.9263 52.6626 21.4943 53.7506 21.4943C54.7906 21.4943 55.5586 21.9103 55.9106 22.6623L56.9506 22.1343C56.5026 21.0143 55.3506 20.3263 53.7826 20.3263C51.9106 20.3263 50.6146 21.3663 50.6146 22.7423ZM62.041 28.9343V27.7503C61.865 27.7983 61.689 27.8143 61.529 27.8143C60.857 27.8143 60.457 27.4623 60.457 26.7263V17.1263H59.081V26.7903C59.081 28.1663 59.769 29.0463 61.209 29.0463C61.497 29.0463 61.753 28.9983 62.041 28.9343ZM63.5625 17.0303V18.8863H65.4505V17.0303H63.5625ZM63.8185 28.9663H65.1945V20.4863H63.8185V28.9663ZM73.0555 28.9663H74.7355L71.0715 23.9903L74.6715 20.4863H72.9275L69.1355 24.2943V17.1263H67.7595V28.9663H69.1355V25.8783L70.1435 24.8863L73.0555 28.9663Z" fill="#2A2859"/>
<path d="M484.379 28.9663H485.803V17.1263H484.379V28.9663ZM493.646 28.9663H495.326L491.662 23.9903L495.262 20.4863H493.518L489.726 24.2943V17.1263H488.35V28.9663H489.726V25.8783L490.734 24.8863L493.646 28.9663ZM502.227 28.9663H503.907L500.243 23.9903L503.843 20.4863H502.099L498.307 24.2943V17.1263H496.931V28.9663H498.307V25.8783L499.315 24.8863L502.227 28.9663ZM510.664 26.4543C510.248 27.2703 509.496 27.9423 508.328 27.9423C506.792 27.9423 505.784 27.0623 505.688 24.9823H511.56L511.592 24.0063C511.592 21.6543 509.976 20.3263 508.088 20.3263C505.864 20.3263 504.312 22.1023 504.312 24.6303C504.312 27.2863 505.768 29.1103 508.216 29.1103C510.12 29.1103 511.192 28.0543 511.64 26.9983L510.664 26.4543ZM508.088 21.4783C509.224 21.4783 510.264 22.1983 510.248 23.9103H505.688C505.848 22.1023 506.888 21.4783 508.088 21.4783ZM517.102 22.7423C517.102 23.9103 517.95 24.7103 519.518 25.0303L520.974 25.3183C521.95 25.5263 522.366 25.9103 522.366 26.6143C522.366 27.4143 521.55 27.9423 520.334 27.9423C519.134 27.9423 518.286 27.4783 517.854 26.6143L516.798 27.1743C517.406 28.4223 518.638 29.0943 520.366 29.0943C522.35 29.0943 523.694 28.0543 523.694 26.5343C523.694 25.2543 522.814 24.4383 520.974 24.0703L519.742 23.8303C518.83 23.6383 518.43 23.2703 518.43 22.6463C518.43 21.9263 519.15 21.4943 520.238 21.4943C521.278 21.4943 522.046 21.9103 522.398 22.6623L523.438 22.1343C522.99 21.0143 521.838 20.3263 520.27 20.3263C518.398 20.3263 517.102 21.3663 517.102 22.7423ZM528.528 28.9343V27.7503C528.352 27.7983 528.176 27.8143 528.016 27.8143C527.344 27.8143 526.944 27.4623 526.944 26.7263V17.1263H525.568V26.7903C525.568 28.1663 526.256 29.0463 527.696 29.0463C527.984 29.0463 528.24 28.9983 528.528 28.9343ZM530.994 18.9983C531.586 18.9983 532.066 18.5343 532.066 17.9103C532.066 17.3023 531.586 16.8383 530.994 16.8383C530.386 16.8383 529.906 17.3023 529.906 17.9103C529.906 18.5343 530.386 18.9983 530.994 18.9983ZM530.306 28.9663H531.682V20.4863H530.306V28.9663ZM539.543 28.9663H541.223L537.559 23.9903L541.159 20.4863H539.415L535.623 24.2943V17.1263H534.247V28.9663H535.623V25.8783L536.631 24.8863L539.543 28.9663Z" fill="#2A2859"/>
<rect x="160.743" y="103.083" width="134" height="62" fill="#2A2859"/>
<path d="M179.399 129.267C179.399 131.955 181.271 133.611 184.127 134.043L187.151 134.523C188.879 134.811 189.815 135.483 189.815 136.971C189.815 138.603 188.351 139.803 185.975 139.803C184.319 139.803 182.399 139.227 181.271 137.187L178.919 138.699C180.431 141.267 182.927 142.323 185.951 142.323C190.199 142.323 192.743 139.875 192.743 136.875C192.743 134.019 190.583 132.339 187.487 131.859L184.751 131.451C183.023 131.163 182.231 130.323 182.231 129.051C182.231 127.515 183.647 126.579 185.735 126.579C187.487 126.579 189.119 127.419 189.887 128.859L192.215 127.419C190.847 125.067 188.591 124.083 185.759 124.083C182.303 124.083 179.399 126.123 179.399 129.267ZM204.395 138.075C203.723 139.275 202.643 140.115 201.083 140.115C198.971 140.115 197.651 138.963 197.507 136.275H206.147L206.195 134.691C206.195 131.091 203.723 129.075 200.723 129.075C197.339 129.075 194.867 131.739 194.867 135.603C194.867 139.515 197.147 142.299 200.915 142.299C203.819 142.299 205.499 140.715 206.219 139.131L204.395 138.075ZM200.723 131.187C202.211 131.187 203.603 132.099 203.579 134.355H197.507C197.723 132.051 199.091 131.187 200.723 131.187ZM215.719 129.075C214.135 129.075 212.863 129.843 211.999 131.187V129.363H209.311V142.083H211.999V135.195C211.999 132.723 212.959 131.403 214.855 131.403C216.319 131.403 217.159 132.195 217.159 133.947V142.083H219.847V133.515C219.847 130.755 218.311 129.075 215.719 129.075ZM232.02 124.323V131.307C231.228 129.747 229.788 129.099 228.348 129.099C224.988 129.099 222.756 131.763 222.756 135.771C222.756 139.635 224.964 142.275 228.036 142.275C229.5 142.275 231.036 141.555 232.02 139.779V142.083H234.708V124.323H232.02ZM228.756 139.923C226.908 139.923 225.54 138.483 225.54 135.627C225.54 132.747 226.908 131.259 228.756 131.259C230.724 131.259 232.02 132.675 232.02 135.627C232.02 138.603 230.7 139.923 228.756 139.923ZM245.586 127.251C246.642 127.251 247.458 126.435 247.458 125.355C247.458 124.275 246.642 123.459 245.586 123.459C244.53 123.459 243.69 124.275 243.69 125.355C243.69 126.435 244.53 127.251 245.586 127.251ZM244.242 142.083H246.93V129.363H244.242V142.083ZM257.247 129.075C255.663 129.075 254.391 129.843 253.527 131.187V129.363H250.839V142.083H253.527V135.195C253.527 132.723 254.487 131.403 256.383 131.403C257.847 131.403 258.687 132.195 258.687 133.947V142.083H261.375V133.515C261.375 130.755 259.839 129.075 257.247 129.075ZM271.484 129.075C269.9 129.075 268.628 129.843 267.764 131.187V129.363H265.076V142.083H267.764V135.195C267.764 132.723 268.724 131.403 270.62 131.403C272.084 131.403 272.924 132.195 272.924 133.947V142.083H275.612V133.515C275.612 130.755 274.076 129.075 271.484 129.075Z" fill="white"/>
<rect x="160.743" y="103.083" width="134" height="62" stroke="#2A2859" stroke-width="2"/>
<rect width="132" height="60" transform="translate(627.743 102.083)" fill="#6FE9FF"/>
<path d="M645.399 127.267C645.399 129.955 647.271 131.611 650.127 132.043L653.151 132.523C654.879 132.811 655.815 133.483 655.815 134.971C655.815 136.603 654.351 137.803 651.975 137.803C650.319 137.803 648.399 137.227 647.271 135.187L644.919 136.699C646.431 139.267 648.927 140.323 651.951 140.323C656.199 140.323 658.743 137.875 658.743 134.875C658.743 132.019 656.583 130.339 653.487 129.859L650.751 129.451C649.023 129.163 648.231 128.323 648.231 127.051C648.231 125.515 649.647 124.579 651.735 124.579C653.487 124.579 655.119 125.419 655.887 126.859L658.215 125.419C656.847 123.067 654.591 122.083 651.759 122.083C648.303 122.083 645.399 124.123 645.399 127.267ZM670.395 136.075C669.723 137.275 668.643 138.115 667.083 138.115C664.971 138.115 663.651 136.963 663.507 134.275H672.147L672.195 132.691C672.195 129.091 669.723 127.075 666.723 127.075C663.339 127.075 660.867 129.739 660.867 133.603C660.867 137.515 663.147 140.299 666.915 140.299C669.819 140.299 671.499 138.715 672.219 137.131L670.395 136.075ZM666.723 129.187C668.211 129.187 669.603 130.099 669.579 132.355H663.507C663.723 130.051 665.091 129.187 666.723 129.187ZM681.719 127.075C680.135 127.075 678.863 127.843 677.999 129.187V127.363H675.311V140.083H677.999V133.195C677.999 130.723 678.959 129.403 680.855 129.403C682.319 129.403 683.159 130.195 683.159 131.947V140.083H685.847V131.515C685.847 128.755 684.311 127.075 681.719 127.075ZM698.02 122.323V129.307C697.228 127.747 695.788 127.099 694.348 127.099C690.988 127.099 688.756 129.763 688.756 133.771C688.756 137.635 690.964 140.275 694.036 140.275C695.5 140.275 697.036 139.555 698.02 137.779V140.083H700.708V122.323H698.02ZM694.756 137.923C692.908 137.923 691.54 136.483 691.54 133.627C691.54 130.747 692.908 129.259 694.756 129.259C696.724 129.259 698.02 130.675 698.02 133.627C698.02 136.603 696.7 137.923 694.756 137.923ZM711.586 125.251C712.642 125.251 713.458 124.435 713.458 123.355C713.458 122.275 712.642 121.459 711.586 121.459C710.53 121.459 709.69 122.275 709.69 123.355C709.69 124.435 710.53 125.251 711.586 125.251ZM710.242 140.083H712.93V127.363H710.242V140.083ZM723.247 127.075C721.663 127.075 720.391 127.843 719.527 129.187V127.363H716.839V140.083H719.527V133.195C719.527 130.723 720.487 129.403 722.383 129.403C723.847 129.403 724.687 130.195 724.687 131.947V140.083H727.375V131.515C727.375 128.755 725.839 127.075 723.247 127.075ZM737.484 127.075C735.9 127.075 734.628 127.843 733.764 129.187V127.363H731.076V140.083H733.764V133.195C733.764 130.723 734.724 129.403 736.62 129.403C738.084 129.403 738.924 130.195 738.924 131.947V140.083H741.612V131.515C741.612 128.755 740.076 127.075 737.484 127.075Z" fill="#B3F5FF"/>
</svg>
