<svg width="922" height="212" viewBox="0 0 922 212" fill="none" xmlns="http://www.w3.org/2000/svg">
<mask id="path-1-inside-1_4533_147845" fill="white">
<path d="M0 55.4199H455.751V211.335H0V55.4199Z"/>
</mask>
<path d="M0 55.4199H455.751V211.335H0V55.4199Z" fill="white"/>
<path d="M455.751 211.335V212.335H456.751V211.335H455.751ZM0 211.335H-1V212.335H0V211.335ZM454.751 55.4199V211.335H456.751V55.4199H454.751ZM455.751 210.335H0V212.335H455.751V210.335ZM1 211.335V55.4199H-1V211.335H1Z" fill="#E6E6E6" mask="url(#path-1-inside-1_4533_147845)"/>
<mask id="path-3-inside-2_4533_147845" fill="white">
<path d="M464.746 55.4199H921.497V211.335H464.746V55.4199Z"/>
</mask>
<path d="M464.746 55.4199H921.497V211.335H464.746V55.4199Z" fill="white"/>
<path d="M921.497 211.335V212.335H922.497V211.335H921.497ZM464.746 211.335H463.746V212.335H464.746V211.335ZM920.497 55.4199V211.335H922.497V55.4199H920.497ZM921.497 210.335H464.746V212.335H921.497V210.335ZM465.746 211.335V55.4199H463.746V211.335H465.746Z" fill="#E6E6E6" mask="url(#path-3-inside-2_4533_147845)"/>
<rect x="0.5" y="0.949219" width="454.316" height="53.97" stroke="#E6E6E6"/>
<rect x="465.693" y="0.949219" width="455.304" height="53.97" stroke="#E6E6E6"/>
<path d="M0 44.4258H455.316V55.4198H0V44.4258Z" fill="#C7F6C9"/>
<path opacity="0.6" d="M465.193 44.4258H921.497V55.4198H465.193V44.4258Z" fill="#FF8274"/>
<path d="M20.2116 28.5932C21.7956 28.5932 23.3796 28.1292 24.4356 27.2492V22.0492H18.9796V23.3452H23.1556V26.5932C22.3556 27.0572 21.4916 27.2972 20.2916 27.2972C17.8276 27.2972 16.0996 25.5852 16.0996 22.4652C16.0996 19.3452 17.9236 17.8252 20.0676 17.8252C21.4116 17.8252 22.5636 18.4972 23.1396 19.7452L24.4036 19.0892C23.6516 17.4092 22.1476 16.4652 20.0836 16.4652C17.0916 16.4652 14.6116 18.8172 14.6116 22.4652C14.6116 26.2252 16.9636 28.5932 20.2116 28.5932ZM27.5186 18.4812C28.1106 18.4812 28.5906 18.0172 28.5906 17.3932C28.5906 16.7852 28.1106 16.3212 27.5186 16.3212C26.9106 16.3212 26.4306 16.7852 26.4306 17.3932C26.4306 18.0172 26.9106 18.4812 27.5186 18.4812ZM26.1906 31.9372C27.5506 31.9372 28.2066 31.0892 28.2066 29.5532V19.9692H26.8306V29.5692C26.8306 30.2892 26.6226 30.7532 25.9186 30.7532C25.7586 30.7532 25.5666 30.7372 25.3426 30.6572L25.2306 31.7932C25.5346 31.8892 25.8706 31.9372 26.1906 31.9372ZM36.3084 20.5452L37.0124 19.1532H36.1964L35.6844 20.1612C35.2044 19.9372 34.6604 19.8092 34.0844 19.8092C31.9244 19.8092 30.1964 21.5372 30.1964 24.1772C30.1964 25.8092 30.8364 27.0892 31.8124 27.8412L31.1084 29.2492H31.9404L32.4524 28.2252C32.9484 28.4652 33.5084 28.5932 34.0844 28.5932C36.2124 28.5932 37.9564 26.8652 37.9564 24.1772C37.9564 22.5612 37.3164 21.2812 36.3084 20.5452ZM31.6204 24.1772C31.6204 22.0172 32.7404 21.0092 34.0844 21.0092C34.4524 21.0092 34.8204 21.0892 35.1404 21.2492L32.4044 26.6732C31.9244 26.1452 31.6204 25.3132 31.6204 24.1772ZM34.0844 27.3932C33.7004 27.3932 33.3324 27.3132 32.9964 27.1372L35.7324 21.6972C36.2284 22.2252 36.5324 23.0412 36.5324 24.1772C36.5324 26.3372 35.4284 27.3932 34.0844 27.3932ZM43.2918 19.8092C42.5398 19.8092 41.7398 20.1932 41.2758 21.0572V19.9692H39.8998V28.4492H41.2758V23.3452C41.2758 21.6652 41.9798 20.9932 42.9398 20.9932C43.7878 20.9932 44.0598 21.5372 44.0598 22.3532V23.2012L45.2438 22.9772V22.0332C45.2438 20.5772 44.4438 19.8092 43.2918 19.8092ZM50.6146 22.2252C50.6146 23.3932 51.4626 24.1932 53.0306 24.5132L54.4866 24.8012C55.4626 25.0092 55.8786 25.3932 55.8786 26.0972C55.8786 26.8972 55.0626 27.4252 53.8466 27.4252C52.6466 27.4252 51.7986 26.9612 51.3666 26.0972L50.3106 26.6572C50.9186 27.9052 52.1506 28.5772 53.8786 28.5772C55.8626 28.5772 57.2066 27.5372 57.2066 26.0172C57.2066 24.7372 56.3266 23.9212 54.4866 23.5532L53.2546 23.3132C52.3426 23.1212 51.9426 22.7532 51.9426 22.1292C51.9426 21.4092 52.6626 20.9772 53.7506 20.9772C54.7906 20.9772 55.5586 21.3932 55.9106 22.1452L56.9506 21.6172C56.5026 20.4972 55.3506 19.8092 53.7826 19.8092C51.9106 19.8092 50.6146 20.8492 50.6146 22.2252ZM62.041 28.4172V27.2332C61.865 27.2812 61.689 27.2972 61.529 27.2972C60.857 27.2972 60.457 26.9452 60.457 26.2092V16.6092H59.081V26.2732C59.081 27.6492 59.769 28.5292 61.209 28.5292C61.497 28.5292 61.753 28.4812 62.041 28.4172ZM63.5625 16.5132V18.3692H65.4505V16.5132H63.5625ZM63.8185 28.4492H65.1945V19.9692H63.8185V28.4492ZM73.0555 28.4492H74.7355L71.0715 23.4732L74.6715 19.9692H72.9275L69.1355 23.7772V16.6092H67.7595V28.4492H69.1355V25.3612L70.1435 24.3692L73.0555 28.4492Z" fill="#2A2859"/>
<path d="M484.379 28.4492H485.803V16.6092H484.379V28.4492ZM493.646 28.4492H495.326L491.662 23.4732L495.262 19.9692H493.518L489.726 23.7772V16.6092H488.35V28.4492H489.726V25.3612L490.734 24.3692L493.646 28.4492ZM502.227 28.4492H503.907L500.243 23.4732L503.843 19.9692H502.099L498.307 23.7772V16.6092H496.931V28.4492H498.307V25.3612L499.315 24.3692L502.227 28.4492ZM510.664 25.9372C510.248 26.7532 509.496 27.4252 508.328 27.4252C506.792 27.4252 505.784 26.5452 505.688 24.4652H511.56L511.592 23.4892C511.592 21.1372 509.976 19.8092 508.088 19.8092C505.864 19.8092 504.312 21.5852 504.312 24.1132C504.312 26.7692 505.768 28.5932 508.216 28.5932C510.12 28.5932 511.192 27.5372 511.64 26.4812L510.664 25.9372ZM508.088 20.9612C509.224 20.9612 510.264 21.6812 510.248 23.3932H505.688C505.848 21.5852 506.888 20.9612 508.088 20.9612ZM517.102 22.2252C517.102 23.3932 517.95 24.1932 519.518 24.5132L520.974 24.8012C521.95 25.0092 522.366 25.3932 522.366 26.0972C522.366 26.8972 521.55 27.4252 520.334 27.4252C519.134 27.4252 518.286 26.9612 517.854 26.0972L516.798 26.6572C517.406 27.9052 518.638 28.5772 520.366 28.5772C522.35 28.5772 523.694 27.5372 523.694 26.0172C523.694 24.7372 522.814 23.9212 520.974 23.5532L519.742 23.3132C518.83 23.1212 518.43 22.7532 518.43 22.1292C518.43 21.4092 519.15 20.9772 520.238 20.9772C521.278 20.9772 522.046 21.3932 522.398 22.1452L523.438 21.6172C522.99 20.4972 521.838 19.8092 520.27 19.8092C518.398 19.8092 517.102 20.8492 517.102 22.2252ZM528.528 28.4172V27.2332C528.352 27.2812 528.176 27.2972 528.016 27.2972C527.344 27.2972 526.944 26.9452 526.944 26.2092V16.6092H525.568V26.2732C525.568 27.6492 526.256 28.5292 527.696 28.5292C527.984 28.5292 528.24 28.4812 528.528 28.4172ZM530.994 18.4812C531.586 18.4812 532.066 18.0172 532.066 17.3932C532.066 16.7852 531.586 16.3212 530.994 16.3212C530.386 16.3212 529.906 16.7852 529.906 17.3932C529.906 18.0172 530.386 18.4812 530.994 18.4812ZM530.306 28.4492H531.682V19.9692H530.306V28.4492ZM539.543 28.4492H541.223L537.559 23.4732L541.159 19.9692H539.415L535.623 23.7772V16.6092H534.247V28.4492H535.623V25.3612L536.631 24.3692L539.543 28.4492Z" fill="#2A2859"/>
<rect x="140.743" y="102.335" width="174" height="62" fill="#2A2859"/>
<path d="M169.423 142.335L166.873 139.675L161.743 134.355L163.643 132.325L169.423 138.325L182.833 124.335L184.743 126.345L171.973 139.675L169.423 142.335Z" fill="white"/>
<path d="M199.399 128.519C199.399 131.207 201.271 132.863 204.127 133.295L207.151 133.775C208.879 134.063 209.815 134.735 209.815 136.223C209.815 137.855 208.351 139.055 205.975 139.055C204.319 139.055 202.399 138.479 201.271 136.439L198.919 137.951C200.431 140.519 202.927 141.575 205.951 141.575C210.199 141.575 212.743 139.127 212.743 136.127C212.743 133.271 210.583 131.591 207.487 131.111L204.751 130.703C203.023 130.415 202.231 129.575 202.231 128.303C202.231 126.767 203.647 125.831 205.735 125.831C207.487 125.831 209.119 126.671 209.887 128.111L212.215 126.671C210.847 124.319 208.591 123.335 205.759 123.335C202.303 123.335 199.399 125.375 199.399 128.519ZM224.395 137.327C223.723 138.527 222.643 139.367 221.083 139.367C218.971 139.367 217.651 138.215 217.507 135.527H226.147L226.195 133.943C226.195 130.343 223.723 128.327 220.723 128.327C217.339 128.327 214.867 130.991 214.867 134.855C214.867 138.767 217.147 141.551 220.915 141.551C223.819 141.551 225.499 139.967 226.219 138.383L224.395 137.327ZM220.723 130.439C222.211 130.439 223.603 131.351 223.579 133.607H217.507C217.723 131.303 219.091 130.439 220.723 130.439ZM235.719 128.327C234.135 128.327 232.863 129.095 231.999 130.439V128.615H229.311V141.335H231.999V134.447C231.999 131.975 232.959 130.655 234.855 130.655C236.319 130.655 237.159 131.447 237.159 133.199V141.335H239.847V132.767C239.847 130.007 238.311 128.327 235.719 128.327ZM252.02 123.575V130.559C251.228 128.999 249.788 128.351 248.348 128.351C244.988 128.351 242.756 131.015 242.756 135.023C242.756 138.887 244.964 141.527 248.036 141.527C249.5 141.527 251.036 140.807 252.02 139.031V141.335H254.708V123.575H252.02ZM248.756 139.175C246.908 139.175 245.54 137.735 245.54 134.879C245.54 131.999 246.908 130.511 248.756 130.511C250.724 130.511 252.02 131.927 252.02 134.879C252.02 137.855 250.7 139.175 248.756 139.175ZM265.586 126.503C266.642 126.503 267.458 125.687 267.458 124.607C267.458 123.527 266.642 122.711 265.586 122.711C264.53 122.711 263.69 123.527 263.69 124.607C263.69 125.687 264.53 126.503 265.586 126.503ZM264.242 141.335H266.93V128.615H264.242V141.335ZM277.247 128.327C275.663 128.327 274.391 129.095 273.527 130.439V128.615H270.839V141.335H273.527V134.447C273.527 131.975 274.487 130.655 276.383 130.655C277.847 130.655 278.687 131.447 278.687 133.199V141.335H281.375V132.767C281.375 130.007 279.839 128.327 277.247 128.327ZM291.484 128.327C289.9 128.327 288.628 129.095 287.764 130.439V128.615H285.076V141.335H287.764V134.447C287.764 131.975 288.724 130.655 290.62 130.655C292.084 130.655 292.924 131.447 292.924 133.199V141.335H295.612V132.767C295.612 130.007 294.076 128.327 291.484 128.327Z" fill="white"/>
<rect x="140.743" y="102.335" width="174" height="62" stroke="#2A2859" stroke-width="2"/>
<rect x="598.743" y="102.335" width="189" height="62" fill="#2A2859"/>
<path d="M627.423 142.335L624.873 139.675L619.743 134.355L621.643 132.325L627.423 138.325L640.833 124.335L642.743 126.345L629.973 139.675L627.423 142.335Z" fill="white"/>
<path d="M657.399 128.519C657.399 131.207 659.271 132.863 662.127 133.295L665.151 133.775C666.879 134.063 667.815 134.735 667.815 136.223C667.815 137.855 666.351 139.055 663.975 139.055C662.319 139.055 660.399 138.479 659.271 136.439L656.919 137.951C658.431 140.519 660.927 141.575 663.951 141.575C668.199 141.575 670.743 139.127 670.743 136.127C670.743 133.271 668.583 131.591 665.487 131.111L662.751 130.703C661.023 130.415 660.231 129.575 660.231 128.303C660.231 126.767 661.647 125.831 663.735 125.831C665.487 125.831 667.119 126.671 667.887 128.111L670.215 126.671C668.847 124.319 666.591 123.335 663.759 123.335C660.303 123.335 657.399 125.375 657.399 128.519ZM676.869 138.743V133.727H683.421V131.135H676.869V126.167H685.365V123.575H674.061V141.335H685.509V138.743H676.869ZM699.501 123.575V136.079L691.173 123.575H688.509V141.335H691.197V128.591L699.741 141.335H702.189V123.575H699.501ZM706.169 141.335H712.553C717.065 141.335 720.569 137.735 720.569 132.407C720.569 127.055 717.065 123.575 712.529 123.575H706.169V141.335ZM708.977 138.719V126.191H712.241C715.385 126.191 717.617 128.087 717.617 132.407C717.617 136.703 715.409 138.719 712.265 138.719H708.977ZM729.558 141.335H732.366V123.575H729.558V141.335ZM747.334 123.575V136.079L739.006 123.575H736.342V141.335H739.03V128.591L747.574 141.335H750.022V123.575H747.334ZM764.993 123.575V136.079L756.665 123.575H754.001V141.335H756.689V128.591L765.233 141.335H767.681V123.575H764.993Z" fill="white"/>
<rect x="598.743" y="102.335" width="189" height="62" stroke="#2A2859" stroke-width="2"/>
</svg>
