<svg width="922" height="212" viewBox="0 0 922 212" fill="none" xmlns="http://www.w3.org/2000/svg">
<mask id="path-1-inside-1_4533_147842" fill="white">
<path d="M0 55.7637H455.751V211.679H0V55.7637Z"/>
</mask>
<path d="M0 55.7637H455.751V211.679H0V55.7637Z" fill="white"/>
<path d="M455.751 211.679V212.679H456.751V211.679H455.751ZM0 211.679H-1V212.679H0V211.679ZM454.751 55.7637V211.679H456.751V55.7637H454.751ZM455.751 210.679H0V212.679H455.751V210.679ZM1 211.679V55.7637H-1V211.679H1Z" fill="#E6E6E6" mask="url(#path-1-inside-1_4533_147842)"/>
<mask id="path-3-inside-2_4533_147842" fill="white">
<path d="M464.746 55.7637H921.497V211.679H464.746V55.7637Z"/>
</mask>
<path d="M464.746 55.7637H921.497V211.679H464.746V55.7637Z" fill="white"/>
<path d="M921.497 211.679V212.679H922.497V211.679H921.497ZM464.746 211.679H463.746V212.679H464.746V211.679ZM920.497 55.7637V211.679H922.497V55.7637H920.497ZM921.497 210.679H464.746V212.679H921.497V210.679ZM465.746 211.679V55.7637H463.746V211.679H465.746Z" fill="#E6E6E6" mask="url(#path-3-inside-2_4533_147842)"/>
<rect x="0.5" y="1.29395" width="454.316" height="53.97" stroke="#E6E6E6"/>
<rect x="465.693" y="1.29395" width="455.304" height="53.97" stroke="#E6E6E6"/>
<path d="M0 44.77H455.316V55.764H0V44.77Z" fill="#C7F6C9"/>
<path opacity="0.6" d="M465.193 44.77H921.497V55.764H465.193V44.77Z" fill="#FF8274"/>
<path d="M20.2116 28.9379C21.7956 28.9379 23.3796 28.4739 24.4356 27.5939V22.3939H18.9796V23.6899H23.1556V26.9379C22.3556 27.4019 21.4916 27.6419 20.2916 27.6419C17.8276 27.6419 16.0996 25.9299 16.0996 22.8099C16.0996 19.6899 17.9236 18.1699 20.0676 18.1699C21.4116 18.1699 22.5636 18.8419 23.1396 20.0899L24.4036 19.4339C23.6516 17.7539 22.1476 16.8099 20.0836 16.8099C17.0916 16.8099 14.6116 19.1619 14.6116 22.8099C14.6116 26.5699 16.9636 28.9379 20.2116 28.9379ZM27.5186 18.8259C28.1106 18.8259 28.5906 18.3619 28.5906 17.7379C28.5906 17.1299 28.1106 16.6659 27.5186 16.6659C26.9106 16.6659 26.4306 17.1299 26.4306 17.7379C26.4306 18.3619 26.9106 18.8259 27.5186 18.8259ZM26.1906 32.2819C27.5506 32.2819 28.2066 31.4339 28.2066 29.8979V20.3139H26.8306V29.9139C26.8306 30.6339 26.6226 31.0979 25.9186 31.0979C25.7586 31.0979 25.5666 31.0819 25.3426 31.0019L25.2306 32.1379C25.5346 32.2339 25.8706 32.2819 26.1906 32.2819ZM36.3084 20.8899L37.0124 19.4979H36.1964L35.6844 20.5059C35.2044 20.2819 34.6604 20.1539 34.0844 20.1539C31.9244 20.1539 30.1964 21.8819 30.1964 24.5219C30.1964 26.1539 30.8364 27.4339 31.8124 28.1859L31.1084 29.5939H31.9404L32.4524 28.5699C32.9484 28.8099 33.5084 28.9379 34.0844 28.9379C36.2124 28.9379 37.9564 27.2099 37.9564 24.5219C37.9564 22.9059 37.3164 21.6259 36.3084 20.8899ZM31.6204 24.5219C31.6204 22.3619 32.7404 21.3539 34.0844 21.3539C34.4524 21.3539 34.8204 21.4339 35.1404 21.5939L32.4044 27.0179C31.9244 26.4899 31.6204 25.6579 31.6204 24.5219ZM34.0844 27.7379C33.7004 27.7379 33.3324 27.6579 32.9964 27.4819L35.7324 22.0419C36.2284 22.5699 36.5324 23.3859 36.5324 24.5219C36.5324 26.6819 35.4284 27.7379 34.0844 27.7379ZM43.2918 20.1539C42.5398 20.1539 41.7398 20.5379 41.2758 21.4019V20.3139H39.8998V28.7939H41.2758V23.6899C41.2758 22.0099 41.9798 21.3379 42.9398 21.3379C43.7878 21.3379 44.0598 21.8819 44.0598 22.6979V23.5459L45.2438 23.3219V22.3779C45.2438 20.9219 44.4438 20.1539 43.2918 20.1539ZM50.6146 22.5699C50.6146 23.7379 51.4626 24.5379 53.0306 24.8579L54.4866 25.1459C55.4626 25.3539 55.8786 25.7379 55.8786 26.4419C55.8786 27.2419 55.0626 27.7699 53.8466 27.7699C52.6466 27.7699 51.7986 27.3059 51.3666 26.4419L50.3106 27.0019C50.9186 28.2499 52.1506 28.9219 53.8786 28.9219C55.8626 28.9219 57.2066 27.8819 57.2066 26.3619C57.2066 25.0819 56.3266 24.2659 54.4866 23.8979L53.2546 23.6579C52.3426 23.4659 51.9426 23.0979 51.9426 22.4739C51.9426 21.7539 52.6626 21.3219 53.7506 21.3219C54.7906 21.3219 55.5586 21.7379 55.9106 22.4899L56.9506 21.9619C56.5026 20.8419 55.3506 20.1539 53.7826 20.1539C51.9106 20.1539 50.6146 21.1939 50.6146 22.5699ZM62.041 28.7619V27.5779C61.865 27.6259 61.689 27.6419 61.529 27.6419C60.857 27.6419 60.457 27.2899 60.457 26.5539V16.9539H59.081V26.6179C59.081 27.9939 59.769 28.8739 61.209 28.8739C61.497 28.8739 61.753 28.8259 62.041 28.7619ZM63.5625 16.8579V18.7139H65.4505V16.8579H63.5625ZM63.8185 28.7939H65.1945V20.3139H63.8185V28.7939ZM73.0555 28.7939H74.7355L71.0715 23.8179L74.6715 20.3139H72.9275L69.1355 24.1219V16.9539H67.7595V28.7939H69.1355V25.7059L70.1435 24.7139L73.0555 28.7939Z" fill="#2A2859"/>
<path d="M484.379 28.7939H485.803V16.9539H484.379V28.7939ZM493.646 28.7939H495.326L491.662 23.8179L495.262 20.3139H493.518L489.726 24.1219V16.9539H488.35V28.7939H489.726V25.7059L490.734 24.7139L493.646 28.7939ZM502.227 28.7939H503.907L500.243 23.8179L503.843 20.3139H502.099L498.307 24.1219V16.9539H496.931V28.7939H498.307V25.7059L499.315 24.7139L502.227 28.7939ZM510.664 26.2819C510.248 27.0979 509.496 27.7699 508.328 27.7699C506.792 27.7699 505.784 26.8899 505.688 24.8099H511.56L511.592 23.8339C511.592 21.4819 509.976 20.1539 508.088 20.1539C505.864 20.1539 504.312 21.9299 504.312 24.4579C504.312 27.1139 505.768 28.9379 508.216 28.9379C510.12 28.9379 511.192 27.8819 511.64 26.8259L510.664 26.2819ZM508.088 21.3059C509.224 21.3059 510.264 22.0259 510.248 23.7379H505.688C505.848 21.9299 506.888 21.3059 508.088 21.3059ZM517.102 22.5699C517.102 23.7379 517.95 24.5379 519.518 24.8579L520.974 25.1459C521.95 25.3539 522.366 25.7379 522.366 26.4419C522.366 27.2419 521.55 27.7699 520.334 27.7699C519.134 27.7699 518.286 27.3059 517.854 26.4419L516.798 27.0019C517.406 28.2499 518.638 28.9219 520.366 28.9219C522.35 28.9219 523.694 27.8819 523.694 26.3619C523.694 25.0819 522.814 24.2659 520.974 23.8979L519.742 23.6579C518.83 23.4659 518.43 23.0979 518.43 22.4739C518.43 21.7539 519.15 21.3219 520.238 21.3219C521.278 21.3219 522.046 21.7379 522.398 22.4899L523.438 21.9619C522.99 20.8419 521.838 20.1539 520.27 20.1539C518.398 20.1539 517.102 21.1939 517.102 22.5699ZM528.528 28.7619V27.5779C528.352 27.6259 528.176 27.6419 528.016 27.6419C527.344 27.6419 526.944 27.2899 526.944 26.5539V16.9539H525.568V26.6179C525.568 27.9939 526.256 28.8739 527.696 28.8739C527.984 28.8739 528.24 28.8259 528.528 28.7619ZM530.994 18.8259C531.586 18.8259 532.066 18.3619 532.066 17.7379C532.066 17.1299 531.586 16.6659 530.994 16.6659C530.386 16.6659 529.906 17.1299 529.906 17.7379C529.906 18.3619 530.386 18.8259 530.994 18.8259ZM530.306 28.7939H531.682V20.3139H530.306V28.7939ZM539.543 28.7939H541.223L537.559 23.8179L541.159 20.3139H539.415L535.623 24.1219V16.9539H534.247V28.7939H535.623V25.7059L536.631 24.7139L539.543 28.7939Z" fill="#2A2859"/>
<rect x="160.743" y="102.083" width="134" height="62" fill="#2A2859"/>
<path d="M179.399 128.267C179.399 130.955 181.271 132.611 184.127 133.043L187.151 133.523C188.879 133.811 189.815 134.483 189.815 135.971C189.815 137.603 188.351 138.803 185.975 138.803C184.319 138.803 182.399 138.227 181.271 136.187L178.919 137.699C180.431 140.267 182.927 141.323 185.951 141.323C190.199 141.323 192.743 138.875 192.743 135.875C192.743 133.019 190.583 131.339 187.487 130.859L184.751 130.451C183.023 130.163 182.231 129.323 182.231 128.051C182.231 126.515 183.647 125.579 185.735 125.579C187.487 125.579 189.119 126.419 189.887 127.859L192.215 126.419C190.847 124.067 188.591 123.083 185.759 123.083C182.303 123.083 179.399 125.123 179.399 128.267ZM204.395 137.075C203.723 138.275 202.643 139.115 201.083 139.115C198.971 139.115 197.651 137.963 197.507 135.275H206.147L206.195 133.691C206.195 130.091 203.723 128.075 200.723 128.075C197.339 128.075 194.867 130.739 194.867 134.603C194.867 138.515 197.147 141.299 200.915 141.299C203.819 141.299 205.499 139.715 206.219 138.131L204.395 137.075ZM200.723 130.187C202.211 130.187 203.603 131.099 203.579 133.355H197.507C197.723 131.051 199.091 130.187 200.723 130.187ZM215.719 128.075C214.135 128.075 212.863 128.843 211.999 130.187V128.363H209.311V141.083H211.999V134.195C211.999 131.723 212.959 130.403 214.855 130.403C216.319 130.403 217.159 131.195 217.159 132.947V141.083H219.847V132.515C219.847 129.755 218.311 128.075 215.719 128.075ZM232.02 123.323V130.307C231.228 128.747 229.788 128.099 228.348 128.099C224.988 128.099 222.756 130.763 222.756 134.771C222.756 138.635 224.964 141.275 228.036 141.275C229.5 141.275 231.036 140.555 232.02 138.779V141.083H234.708V123.323H232.02ZM228.756 138.923C226.908 138.923 225.54 137.483 225.54 134.627C225.54 131.747 226.908 130.259 228.756 130.259C230.724 130.259 232.02 131.675 232.02 134.627C232.02 137.603 230.7 138.923 228.756 138.923ZM245.586 126.251C246.642 126.251 247.458 125.435 247.458 124.355C247.458 123.275 246.642 122.459 245.586 122.459C244.53 122.459 243.69 123.275 243.69 124.355C243.69 125.435 244.53 126.251 245.586 126.251ZM244.242 141.083H246.93V128.363H244.242V141.083ZM257.247 128.075C255.663 128.075 254.391 128.843 253.527 130.187V128.363H250.839V141.083H253.527V134.195C253.527 131.723 254.487 130.403 256.383 130.403C257.847 130.403 258.687 131.195 258.687 132.947V141.083H261.375V132.515C261.375 129.755 259.839 128.075 257.247 128.075ZM271.484 128.075C269.9 128.075 268.628 128.843 267.764 130.187V128.363H265.076V141.083H267.764V134.195C267.764 131.723 268.724 130.403 270.62 130.403C272.084 130.403 272.924 131.195 272.924 132.947V141.083H275.612V132.515C275.612 129.755 274.076 128.075 271.484 128.075Z" fill="white"/>
<rect x="160.743" y="102.083" width="134" height="62" stroke="#2A2859" stroke-width="2"/>
<rect x="651.743" y="110.083" width="84" height="46" fill="#2A2859"/>
<path d="M669.571 130.675C669.571 132.019 670.507 132.847 671.935 133.063L673.447 133.303C674.311 133.447 674.779 133.783 674.779 134.527C674.779 135.343 674.047 135.943 672.859 135.943C672.031 135.943 671.071 135.655 670.507 134.635L669.331 135.391C670.087 136.675 671.335 137.203 672.847 137.203C674.971 137.203 676.243 135.979 676.243 134.479C676.243 133.051 675.163 132.211 673.615 131.971L672.247 131.767C671.383 131.623 670.987 131.203 670.987 130.567C670.987 129.799 671.695 129.331 672.739 129.331C673.615 129.331 674.431 129.751 674.815 130.471L675.979 129.751C675.295 128.575 674.167 128.083 672.751 128.083C671.023 128.083 669.571 129.103 669.571 130.675ZM681.969 135.079C681.633 135.679 681.093 136.099 680.313 136.099C679.257 136.099 678.597 135.523 678.525 134.179H682.845L682.869 133.387C682.869 131.587 681.633 130.579 680.133 130.579C678.441 130.579 677.205 131.911 677.205 133.843C677.205 135.799 678.345 137.191 680.229 137.191C681.681 137.191 682.521 136.399 682.881 135.607L681.969 135.079ZM680.133 131.635C680.877 131.635 681.573 132.091 681.561 133.219H678.525C678.633 132.067 679.317 131.635 680.133 131.635ZM687.531 130.579C686.739 130.579 686.103 130.963 685.671 131.635V130.723H684.327V137.083H685.671V133.639C685.671 132.403 686.151 131.743 687.099 131.743C687.831 131.743 688.251 132.139 688.251 133.015V137.083H689.595V132.799C689.595 131.419 688.827 130.579 687.531 130.579ZM695.582 128.203V131.695C695.186 130.915 694.466 130.591 693.746 130.591C692.066 130.591 690.95 131.923 690.95 133.927C690.95 135.859 692.054 137.179 693.59 137.179C694.322 137.179 695.09 136.819 695.582 135.931V137.083H696.926V128.203H695.582ZM693.95 136.003C693.026 136.003 692.342 135.283 692.342 133.855C692.342 132.415 693.026 131.671 693.95 131.671C694.934 131.671 695.582 132.379 695.582 133.855C695.582 135.343 694.922 136.003 693.95 136.003ZM702.165 129.667C702.693 129.667 703.101 129.259 703.101 128.719C703.101 128.179 702.693 127.771 702.165 127.771C701.637 127.771 701.217 128.179 701.217 128.719C701.217 129.259 701.637 129.667 702.165 129.667ZM701.493 137.083H702.837V130.723H701.493V137.083ZM707.895 130.579C707.103 130.579 706.467 130.963 706.035 131.635V130.723H704.691V137.083H706.035V133.639C706.035 132.403 706.515 131.743 707.463 131.743C708.195 131.743 708.615 132.139 708.615 133.015V137.083H709.959V132.799C709.959 131.419 709.191 130.579 707.895 130.579ZM714.914 130.579C714.122 130.579 713.486 130.963 713.054 131.635V130.723H711.71V137.083H713.054V133.639C713.054 132.403 713.534 131.743 714.482 131.743C715.214 131.743 715.634 132.139 715.634 133.015V137.083H716.978V132.799C716.978 131.419 716.21 130.579 714.914 130.579Z" fill="white"/>
<rect x="651.743" y="110.083" width="84" height="46" stroke="#2A2859" stroke-width="2"/>
</svg>
