<svg width="606" height="326" viewBox="0 0 606 326" fill="none" xmlns="http://www.w3.org/2000/svg">
<g clip-path="url(#clip0_5965_11278)">
<path d="M31.3045 324.5L217.5 2L403.695 324.5H31.3045Z" fill="#F1FDFF" stroke="#2A2859" stroke-width="2"/>
<line x1="116.5" y1="208" x2="318.5" y2="208" stroke="#2A2859" stroke-width="2"/>
<rect width="41" height="41.7576" transform="translate(197.5 186)" fill="#F1FDFF"/>
<g clip-path="url(#clip1_5965_11278)">
<path d="M229.743 200.348C229.652 200.705 229.584 201.068 229.477 201.417C229.227 202.205 228.781 202.871 228.197 203.455C226.152 205.5 224.106 207.545 222.053 209.598C220.94 210.712 219.599 211.242 218.038 211.129C216.788 211.045 215.712 210.538 214.826 209.644C214.44 209.258 214.447 208.652 214.818 208.258C215.182 207.864 215.788 207.818 216.205 208.182C216.621 208.553 217.068 208.871 217.614 209.008C218.735 209.28 219.735 209.03 220.553 208.22C222.652 206.144 224.735 204.053 226.811 201.962C227.644 201.121 227.917 200.098 227.591 198.962C227.265 197.848 226.5 197.129 225.364 196.864C224.258 196.606 223.296 196.932 222.493 197.727C221.387 198.826 220.288 199.939 219.174 201.038C218.69 201.523 217.993 201.492 217.606 200.985C217.326 200.614 217.326 200.129 217.606 199.758C217.637 199.712 217.674 199.667 217.712 199.629C218.909 198.439 220.091 197.235 221.311 196.061C222.061 195.333 222.993 194.932 224.031 194.795C224.076 194.795 224.114 194.765 224.159 194.75C224.508 194.75 224.856 194.75 225.205 194.75C225.265 194.765 225.326 194.788 225.387 194.795C227.334 195.114 228.69 196.189 229.417 198.023C229.576 198.424 229.644 198.871 229.75 199.295V200.341L229.743 200.348Z" fill="#2A2859"/>
<path d="M205.5 213.417C205.598 213.038 205.674 212.652 205.788 212.28C206.038 211.508 206.492 210.856 207.061 210.288C208.909 208.439 210.758 206.598 212.598 204.75C213.705 203.636 215.045 203.098 216.614 203.205C217.871 203.288 218.955 203.795 219.848 204.689C220.235 205.076 220.22 205.689 219.848 206.076C219.485 206.462 218.886 206.508 218.477 206.152C218.053 205.78 217.606 205.447 217.045 205.311C215.924 205.038 214.932 205.295 214.106 206.106C212.197 207.992 210.303 209.894 208.417 211.795C207.591 212.629 207.318 213.652 207.644 214.78C207.97 215.894 208.727 216.621 209.864 216.886C210.97 217.144 211.939 216.826 212.742 216.03C213.659 215.121 214.568 214.197 215.492 213.288C215.879 212.902 216.341 212.833 216.765 213.076C217.303 213.379 217.439 214.076 217.068 214.568C217.038 214.614 217 214.659 216.962 214.697C215.955 215.697 214.962 216.712 213.939 217.697C213.182 218.424 212.258 218.826 211.22 218.962C211.174 218.962 211.136 218.992 211.091 219.008H210.045C209.985 218.992 209.924 218.97 209.864 218.962C207.902 218.636 206.553 217.553 205.826 215.712C205.667 215.303 205.606 214.871 205.5 214.455C205.5 214.106 205.5 213.758 205.5 213.409V213.417Z" fill="#2A2859"/>
</g>
<path d="M156.902 147.524C156.902 145.69 158.596 144.5 160.612 144.5C162.264 144.5 163.58 145.074 164.378 146.446L163.02 147.286C162.572 146.446 161.62 145.956 160.598 145.956C159.38 145.956 158.554 146.502 158.554 147.398C158.554 148.14 159.016 148.63 160.024 148.798L161.62 149.036C163.426 149.316 164.686 150.296 164.686 151.962C164.686 153.712 163.202 155.14 160.724 155.14C158.96 155.14 157.504 154.524 156.622 153.026L157.994 152.144C158.652 153.334 159.772 153.67 160.738 153.67C162.124 153.67 162.978 152.97 162.978 152.018C162.978 151.15 162.432 150.758 161.424 150.59L159.66 150.31C157.994 150.058 156.902 149.092 156.902 147.524ZM171.4 152.662L172.464 153.278C172.044 154.202 171.064 155.126 169.37 155.126C167.172 155.126 165.842 153.502 165.842 151.22C165.842 148.966 167.284 147.412 169.258 147.412C171.008 147.412 172.45 148.588 172.45 150.688L172.422 151.612H167.382C167.466 153.18 168.236 153.852 169.468 153.852C170.378 153.852 171.008 153.362 171.4 152.662ZM169.258 148.644C168.306 148.644 167.508 149.148 167.382 150.492H170.924C170.938 149.176 170.126 148.644 169.258 148.644ZM182.36 147.412C183.844 147.412 184.698 148.378 184.698 149.932V155H183.13V150.198C183.13 149.218 182.668 148.77 181.856 148.77C180.764 148.77 180.218 149.526 180.218 150.982V155H178.65V150.198C178.65 149.218 178.188 148.77 177.376 148.77C176.298 148.77 175.752 149.526 175.752 150.982V155H174.184V147.58H175.752V148.63C176.256 147.832 176.984 147.412 177.88 147.412C179.014 147.412 179.756 147.958 180.078 148.882C180.582 147.902 181.366 147.412 182.36 147.412ZM192.772 155H191.33C191.218 154.622 191.148 154.174 191.12 153.6C190.77 154.37 189.986 155.126 188.698 155.126C187.354 155.126 186.402 154.216 186.402 152.928C186.402 151.318 187.83 150.52 189.426 150.52C189.93 150.52 190.406 150.562 190.924 150.702V150.002C190.924 149.204 190.42 148.686 189.51 148.686C188.656 148.686 188.054 149.148 187.774 150.016L186.444 149.61C186.976 148.042 188.25 147.412 189.58 147.412C191.554 147.412 192.45 148.574 192.45 149.988V152.858C192.45 153.74 192.59 154.524 192.772 155ZM190.924 151.934V151.766C190.476 151.612 190.042 151.556 189.58 151.556C188.656 151.556 187.942 151.976 187.942 152.788C187.942 153.474 188.432 153.908 189.174 153.908C189.93 153.908 190.924 153.46 190.924 151.934ZM198.344 147.412C199.856 147.412 200.752 148.392 200.752 150.002V155H199.184V150.254C199.184 149.232 198.694 148.77 197.84 148.77C196.734 148.77 196.174 149.54 196.174 150.982V155H194.606V147.58H196.174V148.644C196.678 147.86 197.42 147.412 198.344 147.412ZM204.846 152.704C204.846 153.53 205.35 153.782 205.868 153.782C206.274 153.782 206.596 153.614 206.918 153.292L207.59 154.3C207.03 154.86 206.414 155.126 205.616 155.126C204.328 155.126 203.278 154.342 203.278 152.802V148.798H201.976V147.58H203.278V145.928L204.846 145.214V147.58H207.464V148.798H204.846V152.704ZM209.687 146.348C209.071 146.348 208.581 145.872 208.581 145.242C208.581 144.612 209.071 144.136 209.687 144.136C210.303 144.136 210.779 144.612 210.779 145.242C210.779 145.872 210.303 146.348 209.687 146.348ZM208.903 155V147.58H210.471V155H208.903ZM212.276 149.624C212.276 148.364 213.438 147.412 215.188 147.412C216.63 147.412 217.596 147.93 218.114 148.924L217.022 149.596C216.686 149.022 216.014 148.672 215.174 148.672C214.334 148.672 213.76 148.994 213.76 149.526C213.76 149.96 214.054 150.226 214.712 150.352L215.958 150.604C217.526 150.912 218.31 151.654 218.31 152.788C218.31 154.188 217.092 155.126 215.258 155.126C213.704 155.126 212.598 154.538 212.024 153.46L213.116 152.774C213.522 153.46 214.236 153.852 215.216 153.852C216.168 153.852 216.812 153.474 216.812 152.858C216.812 152.354 216.504 152.074 215.818 151.934L214.446 151.668C213.046 151.402 212.276 150.688 212.276 149.624ZM224.554 155L222.3 151.598L221.446 152.438V155H219.878V144.64H221.446V150.66L224.442 147.58H226.374L223.336 150.576L226.43 155H224.554ZM232.294 152.662L233.358 153.278C232.938 154.202 231.958 155.126 230.264 155.126C228.066 155.126 226.736 153.502 226.736 151.22C226.736 148.966 228.178 147.412 230.152 147.412C231.902 147.412 233.344 148.588 233.344 150.688L233.316 151.612H228.276C228.36 153.18 229.13 153.852 230.362 153.852C231.272 153.852 231.902 153.362 232.294 152.662ZM230.152 148.644C229.2 148.644 228.402 149.148 228.276 150.492H231.818C231.832 149.176 231.02 148.644 230.152 148.644ZM240.56 146.908V147.58H242.646V148.798H240.56V155H238.992V148.798H237.69V147.58H238.992V146.978C238.992 145.368 240.042 144.43 241.498 144.43C242.184 144.43 242.87 144.71 243.276 145.214L242.534 146.25C242.31 145.97 241.974 145.802 241.61 145.802C241.036 145.802 240.56 146.138 240.56 146.908ZM249.406 155H247.964C247.852 154.622 247.782 154.174 247.754 153.6C247.404 154.37 246.62 155.126 245.332 155.126C243.988 155.126 243.036 154.216 243.036 152.928C243.036 151.318 244.464 150.52 246.06 150.52C246.564 150.52 247.04 150.562 247.558 150.702V150.002C247.558 149.204 247.054 148.686 246.144 148.686C245.29 148.686 244.688 149.148 244.408 150.016L243.078 149.61C243.61 148.042 244.884 147.412 246.214 147.412C248.188 147.412 249.084 148.574 249.084 149.988V152.858C249.084 153.74 249.224 154.524 249.406 155ZM247.558 151.934V151.766C247.11 151.612 246.676 151.556 246.214 151.556C245.29 151.556 244.576 151.976 244.576 152.788C244.576 153.474 245.066 153.908 245.808 153.908C246.564 153.908 247.558 153.46 247.558 151.934ZM254.641 147.412C255.719 147.412 256.419 148.126 256.419 149.4V150.38L255.159 150.604V149.848C255.159 149.176 254.921 148.714 254.193 148.714C253.395 148.714 252.807 149.246 252.807 150.66V155H251.239V147.58H252.807V148.574C253.227 147.748 253.997 147.412 254.641 147.412ZM264.646 148.798H263.092V148.966C263.344 149.316 263.47 149.722 263.47 150.142C263.47 151.486 262.434 152.83 260.278 152.83H259.914C259.158 152.83 258.668 153.082 258.668 153.53C258.668 153.838 258.906 154.062 259.382 154.062H262.476C263.75 154.062 264.478 154.72 264.478 155.728C264.478 157.254 262.924 158.136 260.446 158.136C258.276 158.136 256.82 157.59 256.442 156.148L257.968 155.854C258.318 156.75 259.13 156.988 260.488 156.988C261.944 156.988 262.98 156.596 262.98 155.91C262.98 155.588 262.798 155.35 262.294 155.35H258.92C257.758 155.35 257.156 154.72 257.156 153.936C257.156 153.18 257.828 152.578 258.752 152.396C257.73 151.948 257.226 150.996 257.226 150.1C257.226 148.77 258.304 147.412 260.362 147.412C261.272 147.412 261.986 147.734 262.406 148.196V147.58H264.646V148.798ZM260.362 151.696C261.44 151.696 261.944 150.94 261.944 150.128C261.944 149.316 261.44 148.574 260.362 148.574C259.298 148.574 258.78 149.316 258.78 150.128C258.78 150.94 259.298 151.696 260.362 151.696ZM270.428 152.662L271.492 153.278C271.072 154.202 270.092 155.126 268.398 155.126C266.2 155.126 264.87 153.502 264.87 151.22C264.87 148.966 266.312 147.412 268.286 147.412C270.036 147.412 271.478 148.588 271.478 150.688L271.45 151.612H266.41C266.494 153.18 267.264 153.852 268.496 153.852C269.406 153.852 270.036 153.362 270.428 152.662ZM268.286 148.644C267.334 148.644 266.536 149.148 266.41 150.492H269.952C269.966 149.176 269.154 148.644 268.286 148.644ZM276.614 147.412C277.692 147.412 278.392 148.126 278.392 149.4V150.38L277.132 150.604V149.848C277.132 149.176 276.894 148.714 276.166 148.714C275.368 148.714 274.78 149.246 274.78 150.66V155H273.212V147.58H274.78V148.574C275.2 147.748 275.97 147.412 276.614 147.412Z" fill="#2A2859"/>
<path d="M182.251 264.442C183.441 264.834 184.211 265.8 184.211 267.046C184.211 268.544 183.147 270 180.753 270H176.595V259.64H180.543C182.727 259.64 183.721 260.858 183.721 262.258C183.721 263.14 183.217 264.078 182.251 264.442ZM180.403 261.026H178.233V264.05H180.501C181.537 264.05 182.069 263.476 182.069 262.524C182.069 261.684 181.537 261.026 180.403 261.026ZM180.599 268.614C181.901 268.614 182.461 267.942 182.461 267.004C182.461 265.996 181.803 265.408 180.683 265.408H178.233V268.614H180.599ZM189.202 262.412C190.28 262.412 190.98 263.126 190.98 264.4V265.38L189.72 265.604V264.848C189.72 264.176 189.482 263.714 188.754 263.714C187.956 263.714 187.368 264.246 187.368 265.66V270H185.8V262.58H187.368V263.574C187.788 262.748 188.558 262.412 189.202 262.412ZM198.058 270H196.616C196.504 269.622 196.434 269.174 196.406 268.6C196.056 269.37 195.272 270.126 193.984 270.126C192.64 270.126 191.688 269.216 191.688 267.928C191.688 266.318 193.116 265.52 194.712 265.52C195.216 265.52 195.692 265.562 196.21 265.702V265.002C196.21 264.204 195.706 263.686 194.796 263.686C193.942 263.686 193.34 264.148 193.06 265.016L191.73 264.61C192.262 263.042 193.536 262.412 194.866 262.412C196.84 262.412 197.736 263.574 197.736 264.988V267.858C197.736 268.74 197.876 269.524 198.058 270ZM196.21 266.934V266.766C195.762 266.612 195.328 266.556 194.866 266.556C193.942 266.556 193.228 266.976 193.228 267.788C193.228 268.474 193.718 268.908 194.46 268.908C195.216 268.908 196.21 268.46 196.21 266.934ZM203.63 262.412C205.142 262.412 206.038 263.392 206.038 265.002V270H204.47V265.254C204.47 264.232 203.98 263.77 203.126 263.77C202.02 263.77 201.46 264.54 201.46 265.982V270H199.892V262.58H201.46V263.644C201.964 262.86 202.706 262.412 203.63 262.412ZM213.056 259.64H214.624V270H213.056V268.656C212.482 269.692 211.586 270.112 210.732 270.112C208.94 270.112 207.652 268.572 207.652 266.318C207.652 263.98 208.954 262.426 210.914 262.426C211.754 262.426 212.594 262.804 213.056 263.714V259.64ZM211.152 268.74C212.286 268.74 213.056 267.97 213.056 266.234C213.056 264.512 212.3 263.686 211.152 263.686C210.074 263.686 209.276 264.554 209.276 266.234C209.276 267.9 210.074 268.74 211.152 268.74ZM222.118 261.908V262.58H224.204V263.798H222.118V270H220.55V263.798H219.248V262.58H220.55V261.978C220.55 260.368 221.6 259.43 223.056 259.43C223.742 259.43 224.428 259.71 224.834 260.214L224.092 261.25C223.868 260.97 223.532 260.802 223.168 260.802C222.594 260.802 222.118 261.138 222.118 261.908ZM230.964 270H229.522C229.41 269.622 229.34 269.174 229.312 268.6C228.962 269.37 228.178 270.126 226.89 270.126C225.546 270.126 224.594 269.216 224.594 267.928C224.594 266.318 226.022 265.52 227.618 265.52C228.122 265.52 228.598 265.562 229.116 265.702V265.002C229.116 264.204 228.612 263.686 227.702 263.686C226.848 263.686 226.246 264.148 225.966 265.016L224.636 264.61C225.168 263.042 226.442 262.412 227.772 262.412C229.746 262.412 230.642 263.574 230.642 264.988V267.858C230.642 268.74 230.782 269.524 230.964 270ZM229.116 266.934V266.766C228.668 266.612 228.234 266.556 227.772 266.556C226.848 266.556 226.134 266.976 226.134 267.788C226.134 268.474 226.624 268.908 227.366 268.908C228.122 268.908 229.116 268.46 229.116 266.934ZM236.2 262.412C237.278 262.412 237.978 263.126 237.978 264.4V265.38L236.718 265.604V264.848C236.718 264.176 236.48 263.714 235.752 263.714C234.954 263.714 234.366 264.246 234.366 265.66V270H232.798V262.58H234.366V263.574C234.786 262.748 235.556 262.412 236.2 262.412ZM246.205 263.798H244.651V263.966C244.903 264.316 245.029 264.722 245.029 265.142C245.029 266.486 243.993 267.83 241.837 267.83H241.473C240.717 267.83 240.227 268.082 240.227 268.53C240.227 268.838 240.465 269.062 240.941 269.062H244.035C245.309 269.062 246.037 269.72 246.037 270.728C246.037 272.254 244.483 273.136 242.005 273.136C239.835 273.136 238.379 272.59 238.001 271.148L239.527 270.854C239.877 271.75 240.689 271.988 242.047 271.988C243.503 271.988 244.539 271.596 244.539 270.91C244.539 270.588 244.357 270.35 243.853 270.35H240.479C239.317 270.35 238.715 269.72 238.715 268.936C238.715 268.18 239.387 267.578 240.311 267.396C239.289 266.948 238.785 265.996 238.785 265.1C238.785 263.77 239.863 262.412 241.921 262.412C242.831 262.412 243.545 262.734 243.965 263.196V262.58H246.205V263.798ZM241.921 266.696C242.999 266.696 243.503 265.94 243.503 265.128C243.503 264.316 242.999 263.574 241.921 263.574C240.857 263.574 240.339 264.316 240.339 265.128C240.339 265.94 240.857 266.696 241.921 266.696ZM251.986 267.662L253.05 268.278C252.63 269.202 251.65 270.126 249.956 270.126C247.758 270.126 246.428 268.502 246.428 266.22C246.428 263.966 247.87 262.412 249.844 262.412C251.594 262.412 253.036 263.588 253.036 265.688L253.008 266.612H247.968C248.052 268.18 248.822 268.852 250.054 268.852C250.964 268.852 251.594 268.362 251.986 267.662ZM249.844 263.644C248.892 263.644 248.094 264.148 247.968 265.492H251.51C251.524 264.176 250.712 263.644 249.844 263.644ZM258.172 262.412C259.25 262.412 259.95 263.126 259.95 264.4V265.38L258.69 265.604V264.848C258.69 264.176 258.452 263.714 257.724 263.714C256.926 263.714 256.338 264.246 256.338 265.66V270H254.77V262.58H256.338V263.574C256.758 262.748 257.528 262.412 258.172 262.412Z" fill="#2A2859"/>
<rect x="406.5" y="253" width="24" height="24" rx="2" fill="#2A2859"/>
<path d="M443.491 261.454C445.339 261.454 446.627 263.022 446.627 265.22C446.627 267.516 445.325 269.112 443.351 269.112C442.399 269.112 441.545 268.664 441.097 267.712V269H439.893V258.64H441.097V262.938C441.615 261.944 442.581 261.454 443.491 261.454ZM443.253 268.09C444.513 268.09 445.381 267.11 445.381 265.276C445.381 263.484 444.513 262.504 443.267 262.504C441.923 262.504 441.097 263.484 441.097 265.262C441.097 267.11 441.909 268.09 443.253 268.09ZM451.274 261.44C452.282 261.44 452.982 262.112 452.982 263.386V264.212L451.946 264.408V263.666C451.946 262.952 451.708 262.476 450.966 262.476C450.126 262.476 449.51 263.064 449.51 264.534V269H448.306V261.58H449.51V262.532C449.916 261.776 450.616 261.44 451.274 261.44ZM459.888 269H458.782C458.67 268.608 458.586 268.146 458.586 267.572C458.208 268.398 457.326 269.126 456.094 269.126C454.764 269.126 453.784 268.244 453.784 266.956C453.784 265.374 455.17 264.576 456.738 264.576C457.298 264.576 457.844 264.632 458.404 264.814V263.974C458.404 263.078 457.858 262.476 456.794 262.476C455.912 262.476 455.198 262.91 454.848 263.932L453.812 263.61C454.358 262.042 455.548 261.44 456.864 261.44C458.754 261.44 459.58 262.574 459.58 263.904V266.886C459.58 267.74 459.72 268.51 459.888 269ZM458.404 265.934V265.752C457.886 265.542 457.354 265.486 456.836 265.486C455.786 265.486 454.974 265.962 454.974 266.872C454.974 267.684 455.548 268.146 456.388 268.146C457.27 268.146 458.404 267.614 458.404 265.934ZM465.115 261.44C466.613 261.44 467.495 262.378 467.495 264.03V269H466.291V264.212C466.291 262.994 465.731 262.518 464.765 262.518C463.547 262.518 462.959 263.428 462.959 264.884V269H461.755V261.58H462.959V262.686C463.435 261.888 464.205 261.44 465.115 261.44ZM474.648 258.64H475.852V269H474.648V267.614C474.13 268.608 473.164 269.098 472.254 269.098C470.406 269.098 469.118 267.544 469.118 265.346C469.118 263.036 470.42 261.454 472.394 261.454C473.346 261.454 474.2 261.902 474.648 262.854V258.64ZM472.478 268.048C473.822 268.048 474.648 267.082 474.648 265.29C474.648 263.442 473.836 262.462 472.492 262.462C471.232 262.462 470.364 263.442 470.364 265.29C470.364 267.068 471.232 268.048 472.478 268.048ZM477.673 263.484H481.033V264.618H477.673V263.484ZM487.961 258.64H489.165V269H487.961V267.614C487.443 268.608 486.477 269.098 485.567 269.098C483.719 269.098 482.431 267.544 482.431 265.346C482.431 263.036 483.733 261.454 485.707 261.454C486.659 261.454 487.513 261.902 487.961 262.854V258.64ZM485.791 268.048C487.135 268.048 487.961 267.082 487.961 265.29C487.961 263.442 487.149 262.462 485.805 262.462C484.545 262.462 483.677 263.442 483.677 265.29C483.677 267.068 484.545 268.048 485.791 268.048ZM496.978 269H495.872C495.76 268.608 495.676 268.146 495.676 267.572C495.298 268.398 494.416 269.126 493.184 269.126C491.854 269.126 490.874 268.244 490.874 266.956C490.874 265.374 492.26 264.576 493.828 264.576C494.388 264.576 494.934 264.632 495.494 264.814V263.974C495.494 263.078 494.948 262.476 493.884 262.476C493.002 262.476 492.288 262.91 491.938 263.932L490.902 263.61C491.448 262.042 492.638 261.44 493.954 261.44C495.844 261.44 496.67 262.574 496.67 263.904V266.886C496.67 267.74 496.81 268.51 496.978 269ZM495.494 265.934V265.752C494.976 265.542 494.444 265.486 493.926 265.486C492.876 265.486 492.064 265.962 492.064 266.872C492.064 267.684 492.638 268.146 493.478 268.146C494.36 268.146 495.494 267.614 495.494 265.934ZM501.813 261.44C502.821 261.44 503.521 262.112 503.521 263.386V264.212L502.485 264.408V263.666C502.485 262.952 502.247 262.476 501.505 262.476C500.665 262.476 500.049 263.064 500.049 264.534V269H498.845V261.58H500.049V262.532C500.455 261.776 501.155 261.44 501.813 261.44ZM509.815 269L507.267 265.43L506.385 266.298V269H505.181V258.64H506.385V264.912L509.703 261.58H511.229L508.079 264.646L511.285 269H509.815ZM511.317 263.484H514.677V264.618H511.317V263.484ZM520.164 261.454C522.012 261.454 523.3 263.022 523.3 265.22C523.3 267.516 521.998 269.112 520.024 269.112C519.072 269.112 518.218 268.664 517.77 267.712V269H516.566V258.64H517.77V262.938C518.288 261.944 519.254 261.454 520.164 261.454ZM519.926 268.09C521.186 268.09 522.054 267.11 522.054 265.276C522.054 263.484 521.186 262.504 519.94 262.504C518.596 262.504 517.77 263.484 517.77 265.262C517.77 267.11 518.582 268.09 519.926 268.09ZM527.541 268.972C527.289 269.028 527.065 269.07 526.813 269.07C525.553 269.07 524.951 268.3 524.951 267.096V258.64H526.155V267.04C526.155 267.684 526.505 267.992 527.093 267.992C527.233 267.992 527.387 267.978 527.541 267.936V268.972ZM533.343 261.58H534.547V269H533.343V267.88C532.895 268.678 532.111 269.112 531.201 269.112C529.717 269.112 528.835 268.16 528.835 266.55V261.58H530.039V266.41C530.039 267.516 530.599 268.062 531.565 268.062C532.783 268.062 533.343 267.124 533.343 265.668V261.58ZM541.719 266.802L542.573 267.278C542.181 268.202 541.243 269.126 539.577 269.126C537.435 269.126 536.161 267.53 536.161 265.206C536.161 262.994 537.519 261.44 539.465 261.44C541.117 261.44 542.531 262.602 542.531 264.66L542.503 265.514H537.365C537.449 267.334 538.331 268.104 539.675 268.104C540.697 268.104 541.355 267.516 541.719 266.802ZM539.465 262.448C538.415 262.448 537.505 262.994 537.365 264.576H541.355C541.369 263.078 540.459 262.448 539.465 262.448ZM544.019 263.484H547.379V264.618H544.019V263.484ZM553.383 267.95H555.665V269H549.743V267.95H552.151V260.04L549.869 261.566V260.278L552.277 258.64H553.383V267.95ZM561.312 269.112C559.24 269.112 557.476 267.208 557.476 263.82C557.476 260.432 559.226 258.514 561.312 258.514C563.398 258.514 565.148 260.432 565.148 263.82C565.148 267.208 563.384 269.112 561.312 269.112ZM561.312 267.936C562.754 267.936 563.86 266.718 563.86 263.82C563.86 260.964 562.754 259.704 561.312 259.704C559.87 259.704 558.764 260.964 558.764 263.82C558.764 266.718 559.87 267.936 561.312 267.936ZM570.067 269.112C567.995 269.112 566.231 267.208 566.231 263.82C566.231 260.432 567.981 258.514 570.067 258.514C572.153 258.514 573.903 260.432 573.903 263.82C573.903 267.208 572.139 269.112 570.067 269.112ZM570.067 267.936C571.509 267.936 572.615 266.718 572.615 263.82C572.615 260.964 571.509 259.704 570.067 259.704C568.625 259.704 567.519 260.964 567.519 263.82C567.519 266.718 568.625 267.936 570.067 267.936ZM578.822 269.112C576.75 269.112 574.986 267.208 574.986 263.82C574.986 260.432 576.736 258.514 578.822 258.514C580.908 258.514 582.658 260.432 582.658 263.82C582.658 267.208 580.894 269.112 578.822 269.112ZM578.822 267.936C580.264 267.936 581.37 266.718 581.37 263.82C581.37 260.964 580.264 259.704 578.822 259.704C577.38 259.704 576.274 260.964 576.274 263.82C576.274 266.718 577.38 267.936 578.822 267.936Z" fill="#2A2859"/>
<rect x="406.5" y="138" width="24" height="24" rx="2" fill="#2A2859"/>
<path d="M441.783 152.97C441.783 153.824 442.301 154.076 442.777 154.076C443.211 154.076 443.519 153.908 443.855 153.558L444.429 154.3C443.911 154.874 443.337 155.112 442.623 155.112C441.503 155.112 440.579 154.398 440.579 152.998V148.546H439.221V147.58H440.579V145.956L441.783 145.34V147.58H444.275V148.546H441.783V152.97ZM450.493 152.802L451.347 153.278C450.955 154.202 450.017 155.126 448.351 155.126C446.209 155.126 444.935 153.53 444.935 151.206C444.935 148.994 446.293 147.44 448.239 147.44C449.891 147.44 451.305 148.602 451.305 150.66L451.277 151.514H446.139C446.223 153.334 447.105 154.104 448.449 154.104C449.471 154.104 450.129 153.516 450.493 152.802ZM448.239 148.448C447.189 148.448 446.279 148.994 446.139 150.576H450.129C450.143 149.078 449.233 148.448 448.239 148.448ZM458.76 155H457.304L455.372 151.948L453.482 155H452.152L454.714 151.164L452.25 147.58H453.706L455.568 150.464L457.346 147.58H458.676L456.212 151.234L458.76 155ZM461.759 152.97C461.759 153.824 462.277 154.076 462.753 154.076C463.187 154.076 463.495 153.908 463.831 153.558L464.405 154.3C463.887 154.874 463.313 155.112 462.599 155.112C461.479 155.112 460.555 154.398 460.555 152.998V148.546H459.197V147.58H460.555V145.956L461.759 145.34V147.58H464.251V148.546H461.759V152.97ZM464.861 149.484H468.221V150.618H464.861V149.484ZM473.707 147.454C475.555 147.454 476.843 149.022 476.843 151.22C476.843 153.516 475.541 155.112 473.567 155.112C472.615 155.112 471.761 154.664 471.313 153.712V155H470.109V144.64H471.313V148.938C471.831 147.944 472.797 147.454 473.707 147.454ZM473.469 154.09C474.729 154.09 475.597 153.11 475.597 151.276C475.597 149.484 474.729 148.504 473.483 148.504C472.139 148.504 471.313 149.484 471.313 151.262C471.313 153.11 472.125 154.09 473.469 154.09ZM481.448 155.126C479.572 155.126 478.046 153.614 478.046 151.262C478.046 148.952 479.558 147.44 481.448 147.44C483.324 147.44 484.836 148.952 484.836 151.262C484.836 153.614 483.31 155.126 481.448 155.126ZM481.448 154.076C482.624 154.076 483.59 153.152 483.59 151.262C483.59 149.372 482.61 148.49 481.448 148.49C480.272 148.49 479.292 149.372 479.292 151.262C479.292 153.152 480.258 154.076 481.448 154.076ZM491.566 144.64H492.77V155H491.566V153.614C491.048 154.608 490.082 155.098 489.172 155.098C487.324 155.098 486.036 153.544 486.036 151.346C486.036 149.036 487.338 147.454 489.312 147.454C490.264 147.454 491.118 147.902 491.566 148.854V144.64ZM489.396 154.048C490.74 154.048 491.566 153.082 491.566 151.29C491.566 149.442 490.754 148.462 489.41 148.462C488.15 148.462 487.282 149.442 487.282 151.29C487.282 153.068 488.15 154.048 489.396 154.048ZM499.812 147.58H501.058L497.894 155.84C497.362 157.226 496.746 158.094 495.444 158.094C494.898 158.094 494.38 157.898 494.002 157.562L494.492 156.708C494.772 156.96 495.038 157.086 495.388 157.086C495.92 157.086 496.312 156.834 496.648 156.022L496.998 155.154L494.198 147.58H495.528L497.642 153.796L499.812 147.58ZM501.691 149.484H505.051V150.618H501.691V149.484ZM511.979 144.64H513.183V155H511.979V153.614C511.461 154.608 510.495 155.098 509.585 155.098C507.737 155.098 506.449 153.544 506.449 151.346C506.449 149.036 507.751 147.454 509.725 147.454C510.677 147.454 511.531 147.902 511.979 148.854V144.64ZM509.809 154.048C511.153 154.048 511.979 153.082 511.979 151.29C511.979 149.442 511.167 148.462 509.823 148.462C508.563 148.462 507.695 149.442 507.695 151.29C507.695 153.068 508.563 154.048 509.809 154.048ZM520.366 152.802L521.22 153.278C520.828 154.202 519.89 155.126 518.224 155.126C516.082 155.126 514.808 153.53 514.808 151.206C514.808 148.994 516.166 147.44 518.112 147.44C519.764 147.44 521.178 148.602 521.178 150.66L521.15 151.514H516.012C516.096 153.334 516.978 154.104 518.322 154.104C519.344 154.104 520.002 153.516 520.366 152.802ZM518.112 148.448C517.062 148.448 516.152 148.994 516.012 150.576H520.002C520.016 149.078 519.106 148.448 518.112 148.448ZM524.435 146.698V147.58H526.507V148.546H524.435V155H523.231V148.546H521.873V147.58H523.231V146.726C523.231 145.298 524.155 144.486 525.429 144.486C526.031 144.486 526.675 144.724 527.039 145.27L526.395 146.026C526.171 145.718 525.835 145.522 525.457 145.522C524.939 145.522 524.435 145.844 524.435 146.698ZM533.024 155H531.918C531.806 154.608 531.722 154.146 531.722 153.572C531.344 154.398 530.462 155.126 529.23 155.126C527.9 155.126 526.92 154.244 526.92 152.956C526.92 151.374 528.306 150.576 529.874 150.576C530.434 150.576 530.98 150.632 531.54 150.814V149.974C531.54 149.078 530.994 148.476 529.93 148.476C529.048 148.476 528.334 148.91 527.984 149.932L526.948 149.61C527.494 148.042 528.684 147.44 530 147.44C531.89 147.44 532.716 148.574 532.716 149.904V152.886C532.716 153.74 532.856 154.51 533.024 155ZM531.54 151.934V151.752C531.022 151.542 530.49 151.486 529.972 151.486C528.922 151.486 528.11 151.962 528.11 152.872C528.11 153.684 528.684 154.146 529.524 154.146C530.406 154.146 531.54 153.614 531.54 151.934ZM539.067 147.58H540.271V155H539.067V153.88C538.619 154.678 537.835 155.112 536.925 155.112C535.441 155.112 534.559 154.16 534.559 152.55V147.58H535.763V152.41C535.763 153.516 536.323 154.062 537.289 154.062C538.507 154.062 539.067 153.124 539.067 151.668V147.58ZM544.951 154.972C544.699 155.028 544.475 155.07 544.223 155.07C542.963 155.07 542.361 154.3 542.361 153.096V144.64H543.565V153.04C543.565 153.684 543.915 153.992 544.503 153.992C544.643 153.992 544.797 153.978 544.951 153.936V154.972ZM548.081 152.97C548.081 153.824 548.599 154.076 549.075 154.076C549.509 154.076 549.817 153.908 550.153 153.558L550.727 154.3C550.209 154.874 549.635 155.112 548.921 155.112C547.801 155.112 546.877 154.398 546.877 152.998V148.546H545.519V147.58H546.877V145.956L548.081 145.34V147.58H550.573V148.546H548.081V152.97Z" fill="#2A2859"/>
<line x1="318.5" y1="208" x2="605.5" y2="208" stroke="#2A2859" stroke-width="2" stroke-dasharray="4 4"/>
</g>
<defs>
<clipPath id="clip0_5965_11278">
<rect width="605" height="326" fill="white" transform="translate(0.5)"/>
</clipPath>
<clipPath id="clip1_5965_11278">
<rect width="25" height="25.7576" fill="white" transform="translate(205.5 194)"/>
</clipPath>
</defs>
</svg>
