<svg width="603" height="208" viewBox="0 0 603 208" fill="none" xmlns="http://www.w3.org/2000/svg">
  <rect width="603" height="208" fill="white" />
  <path
    d="M128.672 56.056H135.152V58H126.566V44.68H135.044V46.624H128.672V50.35H133.586V52.294H128.672V56.056ZM139.487 55.048C139.487 56.11 140.135 56.434 140.801 56.434C141.323 56.434 141.737 56.218 142.151 55.804L143.015 57.1C142.295 57.82 141.503 58.162 140.477 58.162C138.821 58.162 137.471 57.154 137.471 55.174V50.026H135.797V48.46H137.471V46.336L139.487 45.418V48.46H142.853V50.026H139.487V55.048ZM145.769 46.876C144.977 46.876 144.347 46.264 144.347 45.454C144.347 44.644 144.977 44.032 145.769 44.032C146.561 44.032 147.173 44.644 147.173 45.454C147.173 46.264 146.561 46.876 145.769 46.876ZM144.761 58V48.46H146.777V58H144.761ZM155.671 58L152.773 53.626L151.675 54.706V58H149.659V44.68H151.675V52.42L155.527 48.46H158.011L154.105 52.312L158.083 58H155.671ZM165.679 54.994L167.047 55.786C166.507 56.974 165.247 58.162 163.069 58.162C160.243 58.162 158.533 56.074 158.533 53.14C158.533 50.242 160.387 48.244 162.925 48.244C165.175 48.244 167.029 49.756 167.029 52.456L166.993 53.644H160.513C160.621 55.66 161.611 56.524 163.195 56.524C164.365 56.524 165.175 55.894 165.679 54.994ZM162.925 49.828C161.701 49.828 160.675 50.476 160.513 52.204H165.067C165.085 50.512 164.041 49.828 162.925 49.828ZM171.84 55.048C171.84 56.11 172.488 56.434 173.154 56.434C173.676 56.434 174.09 56.218 174.504 55.804L175.368 57.1C174.648 57.82 173.856 58.162 172.83 58.162C171.174 58.162 169.824 57.154 169.824 55.174V50.026H168.15V48.46H169.824V46.336L171.84 45.418V48.46H175.206V50.026H171.84V55.048ZM179.655 55.048C179.655 56.11 180.303 56.434 180.969 56.434C181.491 56.434 181.905 56.218 182.319 55.804L183.183 57.1C182.463 57.82 181.671 58.162 180.645 58.162C178.989 58.162 177.639 57.154 177.639 55.174V50.026H175.965V48.46H177.639V46.336L179.655 45.418V48.46H183.021V50.026H179.655V55.048Z"
    fill="#2A2859" />
  <rect x="126" y="75" width="398" height="46" fill="white" />
  <rect x="126" y="75" width="398" height="46" stroke="#2A2859" stroke-width="2" />
  <path
    d="M150.332 94.208C150.332 91.976 152.366 90.536 154.724 90.536C156.902 90.536 158.378 91.472 159.044 93.146L157.856 93.632C157.316 92.354 156.11 91.652 154.724 91.652C152.888 91.652 151.592 92.588 151.592 94.064C151.592 95.306 152.33 96.062 153.896 96.368L155.984 96.764C158.036 97.16 159.548 98.258 159.548 100.256C159.548 102.308 157.82 104.144 154.904 104.144C152.6 104.144 150.872 103.352 149.936 101.372L151.088 100.904C151.988 102.668 153.482 103.028 154.94 103.028C157.118 103.028 158.288 101.768 158.288 100.328C158.288 98.726 157.208 98.258 155.588 97.952L153.68 97.592C151.826 97.25 150.332 96.224 150.332 94.208ZM168.158 95.18C169.22 96.026 169.904 97.43 169.904 99.212C169.904 102.2 168.014 104.144 165.656 104.144C164.99 104.144 164.36 103.982 163.802 103.694L163.208 104.864H162.344L163.154 103.28C162.092 102.434 161.408 101.012 161.408 99.212C161.408 96.26 163.28 94.316 165.656 94.316C166.322 94.316 166.952 94.478 167.51 94.748L168.104 93.596H168.968L168.158 95.18ZM162.668 99.212C162.668 100.598 163.064 101.606 163.676 102.254L167.006 95.738C166.592 95.504 166.142 95.396 165.656 95.396C164.036 95.396 162.668 96.674 162.668 99.212ZM165.656 103.064C167.294 103.064 168.644 101.768 168.644 99.212C168.644 97.844 168.248 96.854 167.636 96.206L164.306 102.722C164.702 102.956 165.17 103.064 165.656 103.064ZM178.131 104L174.621 99.266L173.451 100.382V104H172.227V90.68H173.451V98.942L177.987 94.46H179.607L175.449 98.456L179.679 104H178.131Z"
    fill="#666666" />
  <path fill-rule="evenodd" clip-rule="evenodd"
    d="M507.73 107.587L502.176 102.033C503.44 100.483 504.2 98.5063 504.2 96.3501C504.2 91.3798 500.17 87.3501 495.2 87.3501C490.23 87.3501 486.2 91.3798 486.2 96.3501C486.2 101.32 490.23 105.35 495.2 105.35C497.475 105.35 499.546 104.5 501.131 103.108L506.67 108.646L507.73 107.587ZM495.2 103.85C491.064 103.85 487.7 100.486 487.7 96.3501C487.7 92.2146 491.064 88.8501 495.2 88.8501C499.335 88.8501 502.7 92.2146 502.7 96.3501C502.7 100.486 499.335 103.85 495.2 103.85Z"
    fill="#2A2859" />
  <g clip-path="url(#clip0_6153_129901)">
    <rect x="77" y="51.0972" width="50" height="1" fill="#6FE9FF" />
    <g clip-path="url(#clip1_6153_129901)">
      <rect x="77" y="39.0972" width="24" height="24" rx="12" fill="#6FE9FF" />
      <path
        d="M89.7101 54.1972H91.6661V55.0972H86.5901V54.1972H88.6541V47.4172L86.6981 48.7252V47.6212L88.7621 46.2172H89.7101V54.1972Z"
        fill="#2A2859" />
    </g>
  </g>
  <g clip-path="url(#clip2_6153_129901)">
    <rect x="77" y="98" width="48" height="1" fill="#6FE9FF" />
    <g clip-path="url(#clip3_6153_129901)">
      <rect x="77" y="86" width="24" height="24" rx="12" fill="#6FE9FF" />
      <path
        d="M87.5741 101.028H92.0861V102H86.1461V101.184L89.3021 97.752C90.2141 96.768 90.5861 96.228 90.5861 95.46C90.5861 94.632 90.0221 93.96 88.9661 93.96C88.0421 93.96 87.3461 94.416 87.0101 95.472L86.0381 95.208C86.5541 93.636 87.6701 93.012 88.9901 93.012C90.7661 93.012 91.6901 94.2 91.6901 95.376C91.6901 96.396 91.2821 97.068 90.1061 98.34L87.5741 101.028Z"
        fill="#2A2859" />
    </g>
  </g>
  <g clip-path="url(#clip4_6153_129901)">
    <rect x="164.808" y="104.864" width="1" height="65.136" fill="#6FE9FF" />
    <g clip-path="url(#clip5_6153_129901)">
      <rect x="152.808" y="146" width="24" height="24" rx="12" fill="#6FE9FF" />
      <path
        d="M166.214 157.308C167.102 157.608 167.834 158.316 167.834 159.48C167.834 160.92 166.622 162.108 164.666 162.108C163.478 162.108 162.362 161.664 161.498 160.464L162.29 159.84C162.938 160.764 163.658 161.148 164.714 161.148C165.986 161.148 166.778 160.38 166.778 159.444C166.778 158.796 166.514 158.388 166.106 158.148C165.794 157.98 165.506 157.896 165.014 157.896H163.754V156.984H164.654C165.326 156.984 165.602 156.888 165.89 156.66C166.226 156.384 166.418 155.976 166.418 155.496C166.418 154.56 165.734 153.96 164.63 153.96C163.694 153.96 162.974 154.44 162.602 155.472L161.654 155.184C162.23 153.684 163.334 153.012 164.666 153.012C166.574 153.012 167.462 154.212 167.462 155.376C167.462 156.264 166.934 156.96 166.214 157.308Z"
        fill="#2A2859" />
    </g>
  </g>
  <g clip-path="url(#clip6_6153_129901)">
    <rect x="497" y="110" width="1" height="60" fill="#6FE9FF" />
    <g clip-path="url(#clip7_6153_129901)">
      <rect x="485" y="146" width="24" height="24" rx="12" fill="#6FE9FF" />
      <path
        d="M500.326 158.796V159.744H498.886V162H497.866V159.744H493.882V158.928L495.994 153.12H497.014L494.998 158.796H497.866V156.264L498.886 155.964V158.796H500.326Z"
        fill="#2A2859" />
    </g>
  </g>
  <defs>
    <clipPath id="clip0_6153_129901">
      <rect width="49.5659" height="24" fill="white" transform="translate(77 39.0972)" />
    </clipPath>
    <clipPath id="clip1_6153_129901">
      <rect x="77" y="39.0972" width="24" height="24" rx="12" fill="white" />
    </clipPath>
    <clipPath id="clip2_6153_129901">
      <rect width="48" height="24" fill="white" transform="translate(77 86)" />
    </clipPath>
    <clipPath id="clip3_6153_129901">
      <rect x="77" y="86" width="24" height="24" rx="12" fill="white" />
    </clipPath>
    <clipPath id="clip4_6153_129901">
      <rect width="24" height="65.136" fill="white" transform="translate(152.808 104.864)" />
    </clipPath>
    <clipPath id="clip5_6153_129901">
      <rect x="152.808" y="146" width="24" height="24" rx="12" fill="white" />
    </clipPath>
    <clipPath id="clip6_6153_129901">
      <rect width="24" height="60" fill="white" transform="translate(485 110)" />
    </clipPath>
    <clipPath id="clip7_6153_129901">
      <rect x="485" y="146" width="24" height="24" rx="12" fill="white" />
    </clipPath>
  </defs>
</svg>