<svg width="898" height="254" viewBox="0 0 898 254" fill="none" xmlns="http://www.w3.org/2000/svg">
  <rect width="898" height="254" fill="white" />
  <path
    d="M250.242 95.388C250.242 93.03 252.42 91.5 255.012 91.5C257.136 91.5 258.828 92.238 259.854 94.002L258.108 95.082C257.532 94.002 256.308 93.372 254.994 93.372C253.428 93.372 252.366 94.074 252.366 95.226C252.366 96.18 252.96 96.81 254.256 97.026L256.308 97.332C258.63 97.692 260.25 98.952 260.25 101.094C260.25 103.344 258.342 105.18 255.156 105.18C252.888 105.18 251.016 104.388 249.882 102.462L251.646 101.328C252.492 102.858 253.932 103.29 255.174 103.29C256.956 103.29 258.054 102.39 258.054 101.166C258.054 100.05 257.352 99.546 256.056 99.33L253.788 98.97C251.646 98.646 250.242 97.404 250.242 95.388ZM268.849 96.036C270.055 96.864 270.829 98.322 270.829 100.176C270.829 103.236 268.795 105.18 266.311 105.18C265.681 105.18 265.087 105.054 264.529 104.82L263.971 105.972H262.945L263.737 104.37C262.567 103.524 261.793 102.066 261.793 100.176C261.793 97.188 263.809 95.244 266.311 95.244C266.941 95.244 267.517 95.37 268.057 95.586L268.615 94.47H269.623L268.849 96.036ZM263.863 100.176C263.863 101.292 264.133 102.12 264.583 102.66L267.283 97.152C266.995 97.026 266.653 96.954 266.311 96.954C264.979 96.954 263.863 97.908 263.863 100.176ZM266.311 103.47C267.661 103.47 268.759 102.426 268.759 100.176C268.759 99.042 268.471 98.232 268.039 97.71L265.303 103.254C265.609 103.398 265.951 103.47 266.311 103.47ZM278.957 105L276.059 100.626L274.961 101.706V105H272.945V91.68H274.961V99.42L278.813 95.46H281.297L277.391 99.312L281.369 105H278.957ZM294.091 101.994L295.459 102.786C294.919 103.974 293.659 105.162 291.481 105.162C288.655 105.162 286.945 103.074 286.945 100.14C286.945 97.242 288.799 95.244 291.337 95.244C293.587 95.244 295.441 96.756 295.441 99.456L295.405 100.644H288.925C289.033 102.66 290.023 103.524 291.607 103.524C292.777 103.524 293.587 102.894 294.091 101.994ZM291.337 96.828C290.113 96.828 289.087 97.476 288.925 99.204H293.479C293.497 97.512 292.453 96.828 291.337 96.828ZM300.252 102.048C300.252 103.11 300.9 103.434 301.566 103.434C302.088 103.434 302.502 103.218 302.916 102.804L303.78 104.1C303.06 104.82 302.268 105.162 301.242 105.162C299.586 105.162 298.236 104.154 298.236 102.174V97.026H296.562V95.46H298.236V93.336L300.252 92.418V95.46H303.618V97.026H300.252V102.048ZM308.067 102.048C308.067 103.11 308.715 103.434 309.381 103.434C309.903 103.434 310.317 103.218 310.731 102.804L311.595 104.1C310.875 104.82 310.083 105.162 309.057 105.162C307.401 105.162 306.051 104.154 306.051 102.174V97.026H304.377V95.46H306.051V93.336L308.067 92.418V95.46H311.433V97.026H308.067V102.048ZM319.436 101.994L320.804 102.786C320.264 103.974 319.004 105.162 316.826 105.162C314 105.162 312.29 103.074 312.29 100.14C312.29 97.242 314.144 95.244 316.682 95.244C318.932 95.244 320.786 96.756 320.786 99.456L320.75 100.644H314.27C314.378 102.66 315.368 103.524 316.952 103.524C318.122 103.524 318.932 102.894 319.436 101.994ZM316.682 96.828C315.458 96.828 314.432 97.476 314.27 99.204H318.824C318.842 97.512 317.798 96.828 316.682 96.828ZM327.447 95.244C328.833 95.244 329.733 96.162 329.733 97.8V99.06L328.113 99.348V98.376C328.113 97.512 327.807 96.918 326.871 96.918C325.845 96.918 325.089 97.602 325.089 99.42V105H323.073V95.46H325.089V96.738C325.629 95.676 326.619 95.244 327.447 95.244ZM343.947 105H342.093C341.949 104.514 341.859 103.938 341.823 103.2C341.373 104.19 340.365 105.162 338.709 105.162C336.981 105.162 335.757 103.992 335.757 102.336C335.757 100.266 337.593 99.24 339.645 99.24C340.293 99.24 340.905 99.294 341.571 99.474V98.574C341.571 97.548 340.923 96.882 339.753 96.882C338.655 96.882 337.881 97.476 337.521 98.592L335.811 98.07C336.495 96.054 338.133 95.244 339.843 95.244C342.381 95.244 343.533 96.738 343.533 98.556V102.246C343.533 103.38 343.713 104.388 343.947 105ZM341.571 101.058V100.842C340.995 100.644 340.437 100.572 339.843 100.572C338.655 100.572 337.737 101.112 337.737 102.156C337.737 103.038 338.367 103.596 339.321 103.596C340.293 103.596 341.571 103.02 341.571 101.058ZM352.434 91.68H354.45V105H352.434V103.272C351.696 104.604 350.544 105.144 349.446 105.144C347.142 105.144 345.486 103.164 345.486 100.266C345.486 97.26 347.16 95.262 349.68 95.262C350.76 95.262 351.84 95.748 352.434 96.918V91.68ZM349.986 103.38C351.444 103.38 352.434 102.39 352.434 100.158C352.434 97.944 351.462 96.882 349.986 96.882C348.6 96.882 347.574 97.998 347.574 100.158C347.574 102.3 348.6 103.38 349.986 103.38ZM361.469 95.244C362.855 95.244 363.755 96.162 363.755 97.8V99.06L362.135 99.348V98.376C362.135 97.512 361.829 96.918 360.893 96.918C359.867 96.918 359.111 97.602 359.111 99.42V105H357.095V95.46H359.111V96.738C359.651 95.676 360.641 95.244 361.469 95.244ZM371.885 101.994L373.253 102.786C372.713 103.974 371.453 105.162 369.275 105.162C366.449 105.162 364.739 103.074 364.739 100.14C364.739 97.242 366.593 95.244 369.131 95.244C371.381 95.244 373.235 96.756 373.235 99.456L373.199 100.644H366.719C366.827 102.66 367.817 103.524 369.401 103.524C370.571 103.524 371.381 102.894 371.885 101.994ZM369.131 96.828C367.907 96.828 366.881 97.476 366.719 99.204H371.273C371.291 97.512 370.247 96.828 369.131 96.828ZM375.017 98.088C375.017 96.468 376.511 95.244 378.761 95.244C380.615 95.244 381.857 95.91 382.523 97.188L381.119 98.052C380.687 97.314 379.823 96.864 378.743 96.864C377.663 96.864 376.925 97.278 376.925 97.962C376.925 98.52 377.303 98.862 378.149 99.024L379.751 99.348C381.767 99.744 382.775 100.698 382.775 102.156C382.775 103.956 381.209 105.162 378.851 105.162C376.853 105.162 375.431 104.406 374.693 103.02L376.097 102.138C376.619 103.02 377.537 103.524 378.797 103.524C380.021 103.524 380.849 103.038 380.849 102.246C380.849 101.598 380.453 101.238 379.571 101.058L377.807 100.716C376.007 100.374 375.017 99.456 375.017 98.088ZM384.345 98.088C384.345 96.468 385.839 95.244 388.089 95.244C389.943 95.244 391.185 95.91 391.851 97.188L390.447 98.052C390.015 97.314 389.151 96.864 388.071 96.864C386.991 96.864 386.253 97.278 386.253 97.962C386.253 98.52 386.631 98.862 387.477 99.024L389.079 99.348C391.095 99.744 392.103 100.698 392.103 102.156C392.103 103.956 390.537 105.162 388.179 105.162C386.181 105.162 384.759 104.406 384.021 103.02L385.425 102.138C385.947 103.02 386.865 103.524 388.125 103.524C389.349 103.524 390.177 103.038 390.177 102.246C390.177 101.598 389.781 101.238 388.899 101.058L387.135 100.716C385.335 100.374 384.345 99.456 384.345 98.088ZM400.535 101.994L401.903 102.786C401.363 103.974 400.103 105.162 397.925 105.162C395.099 105.162 393.389 103.074 393.389 100.14C393.389 97.242 395.243 95.244 397.781 95.244C400.031 95.244 401.885 96.756 401.885 99.456L401.849 100.644H395.369C395.477 102.66 396.467 103.524 398.051 103.524C399.221 103.524 400.031 102.894 400.535 101.994ZM397.781 96.828C396.557 96.828 395.531 97.476 395.369 99.204H399.923C399.941 97.512 398.897 96.828 397.781 96.828Z"
    fill="#2A2859" />
  <rect x="250" y="122" width="398" height="46" fill="white" />
  <rect x="250" y="122" width="398" height="46" stroke="#2A2859" stroke-width="2" />
  <path
    d="M283.188 137.68H284.52L279.642 151H278.382L273.54 137.68H274.908L279.03 149.542L283.188 137.68ZM291.657 148.3L292.557 148.804C292.107 149.956 290.919 151.144 288.795 151.144C286.113 151.144 284.529 149.146 284.529 146.104C284.529 143.314 286.185 141.316 288.669 141.316C290.721 141.316 292.485 142.792 292.485 145.384L292.449 146.446H285.771C285.879 148.984 287.085 150.064 288.921 150.064C290.361 150.064 291.207 149.236 291.657 148.3ZM288.669 142.396C287.229 142.396 285.933 143.17 285.771 145.438H291.279C291.333 143.296 290.073 142.396 288.669 142.396ZM295.485 139.732C294.891 139.732 294.405 139.264 294.405 138.652C294.405 138.04 294.891 137.572 295.485 137.572C296.079 137.572 296.565 138.04 296.565 138.652C296.565 139.264 296.079 139.732 295.485 139.732ZM294.873 151V141.46H296.097V151H294.873ZM306.107 151H304.991C304.847 150.478 304.739 149.848 304.739 149.128C304.253 150.244 303.011 151.144 301.463 151.144C299.771 151.144 298.493 150.046 298.493 148.408C298.493 146.446 300.257 145.42 302.219 145.42C302.993 145.42 303.749 145.51 304.523 145.78V144.52C304.523 143.278 303.767 142.432 302.291 142.432C301.103 142.432 300.095 142.954 299.591 144.412L298.511 144.088C299.231 142.072 300.689 141.316 302.363 141.316C304.721 141.316 305.711 142.738 305.711 144.376V148.3C305.711 149.38 305.891 150.352 306.107 151ZM304.523 147.04V146.824C303.785 146.518 303.029 146.428 302.291 146.428C300.851 146.428 299.717 147.076 299.717 148.336C299.717 149.488 300.527 150.1 301.679 150.1C302.921 150.1 304.523 149.362 304.523 147.04ZM315.018 137.68H316.242V151H315.018V149.218C314.388 150.442 313.128 151.126 311.886 151.126C309.456 151.126 307.818 149.092 307.818 146.32C307.818 143.386 309.474 141.316 312.03 141.316C313.362 141.316 314.442 141.982 315.018 143.188V137.68ZM312.012 150.046C313.92 150.046 315.018 148.624 315.018 146.284C315.018 143.8 313.938 142.396 312.03 142.396C310.248 142.396 309.078 143.764 309.078 146.266C309.078 148.678 310.248 150.046 312.012 150.046ZM322.478 141.316C323.72 141.316 324.62 142.144 324.62 143.764V144.7L323.504 144.916V143.98C323.504 143.026 323.18 142.396 322.208 142.396C321.11 142.396 320.282 143.206 320.282 145.132V151H319.058V141.46H320.282V142.648C320.786 141.748 321.632 141.316 322.478 141.316ZM332.809 148.3L333.709 148.804C333.259 149.956 332.071 151.144 329.947 151.144C327.265 151.144 325.681 149.146 325.681 146.104C325.681 143.314 327.337 141.316 329.821 141.316C331.873 141.316 333.637 142.792 333.637 145.384L333.601 146.446H326.923C327.031 148.984 328.237 150.064 330.073 150.064C331.513 150.064 332.359 149.236 332.809 148.3ZM329.821 142.396C328.381 142.396 327.085 143.17 326.923 145.438H332.431C332.485 143.296 331.225 142.396 329.821 142.396ZM335.557 143.944C335.557 142.432 336.979 141.316 338.977 141.316C340.705 141.316 342.037 142.144 342.433 143.404L341.425 143.8C341.047 142.882 340.165 142.396 338.941 142.396C337.609 142.396 336.745 142.954 336.745 143.836C336.745 144.628 337.267 145.114 338.401 145.348L339.661 145.6C341.749 146.014 342.721 146.914 342.721 148.336C342.721 149.992 341.245 151.144 339.121 151.144C337.195 151.144 335.845 150.388 335.197 148.948L336.241 148.516C336.691 149.524 337.681 150.064 339.085 150.064C340.561 150.064 341.533 149.416 341.533 148.444C341.533 147.544 341.029 147.058 339.769 146.788L338.221 146.464C336.475 146.104 335.557 145.222 335.557 143.944ZM344.462 143.944C344.462 142.432 345.884 141.316 347.882 141.316C349.61 141.316 350.942 142.144 351.338 143.404L350.33 143.8C349.952 142.882 349.07 142.396 347.846 142.396C346.514 142.396 345.65 142.954 345.65 143.836C345.65 144.628 346.172 145.114 347.306 145.348L348.566 145.6C350.654 146.014 351.626 146.914 351.626 148.336C351.626 149.992 350.15 151.144 348.026 151.144C346.1 151.144 344.75 150.388 344.102 148.948L345.146 148.516C345.596 149.524 346.586 150.064 347.99 150.064C349.466 150.064 350.438 149.416 350.438 148.444C350.438 147.544 349.934 147.058 348.674 146.788L347.126 146.464C345.38 146.104 344.462 145.222 344.462 143.944ZM360.352 148.3L361.252 148.804C360.802 149.956 359.614 151.144 357.49 151.144C354.808 151.144 353.224 149.146 353.224 146.104C353.224 143.314 354.88 141.316 357.364 141.316C359.416 141.316 361.18 142.792 361.18 145.384L361.144 146.446H354.466C354.574 148.984 355.78 150.064 357.616 150.064C359.056 150.064 359.902 149.236 360.352 148.3ZM357.364 142.396C355.924 142.396 354.628 143.17 354.466 145.438H359.974C360.028 143.296 358.768 142.396 357.364 142.396Z"
    fill="#666666" />
  <path fill-rule="evenodd" clip-rule="evenodd"
    d="M631.73 154.586L626.176 149.033C627.44 147.483 628.2 145.506 628.2 143.35C628.2 138.38 624.17 134.35 619.2 134.35C614.23 134.35 610.2 138.38 610.2 143.35C610.2 148.32 614.23 152.35 619.2 152.35C621.475 152.35 623.546 151.499 625.131 150.107L630.67 155.646L631.73 154.586ZM619.2 150.85C615.064 150.85 611.7 147.485 611.7 143.35C611.7 139.214 615.064 135.85 619.2 135.85C623.335 135.85 626.7 139.214 626.7 143.35C626.7 147.486 623.335 150.85 619.2 150.85Z"
    fill="#2A2859" />
</svg>