<svg width="603" height="208" viewBox="0 0 603 208" fill="none" xmlns="http://www.w3.org/2000/svg">
  <rect width="603" height="208" fill="white" />
  <path
    d="M105.672 56.056H112.152V58H103.566V44.68H112.044V46.624H105.672V50.35H110.586V52.294H105.672V56.056ZM116.487 55.048C116.487 56.11 117.135 56.434 117.801 56.434C118.323 56.434 118.737 56.218 119.151 55.804L120.015 57.1C119.295 57.82 118.503 58.162 117.477 58.162C115.821 58.162 114.471 57.154 114.471 55.174V50.026H112.797V48.46H114.471V46.336L116.487 45.418V48.46H119.853V50.026H116.487V55.048ZM122.769 46.876C121.977 46.876 121.347 46.264 121.347 45.454C121.347 44.644 121.977 44.032 122.769 44.032C123.561 44.032 124.173 44.644 124.173 45.454C124.173 46.264 123.561 46.876 122.769 46.876ZM121.761 58V48.46H123.777V58H121.761ZM132.671 58L129.773 53.626L128.675 54.706V58H126.659V44.68H128.675V52.42L132.527 48.46H135.011L131.105 52.312L135.083 58H132.671ZM142.679 54.994L144.047 55.786C143.507 56.974 142.247 58.162 140.069 58.162C137.243 58.162 135.533 56.074 135.533 53.14C135.533 50.242 137.387 48.244 139.925 48.244C142.175 48.244 144.029 49.756 144.029 52.456L143.993 53.644H137.513C137.621 55.66 138.611 56.524 140.195 56.524C141.365 56.524 142.175 55.894 142.679 54.994ZM139.925 49.828C138.701 49.828 137.675 50.476 137.513 52.204H142.067C142.085 50.512 141.041 49.828 139.925 49.828ZM148.84 55.048C148.84 56.11 149.488 56.434 150.154 56.434C150.676 56.434 151.09 56.218 151.504 55.804L152.368 57.1C151.648 57.82 150.856 58.162 149.83 58.162C148.174 58.162 146.824 57.154 146.824 55.174V50.026H145.15V48.46H146.824V46.336L148.84 45.418V48.46H152.206V50.026H148.84V55.048ZM156.655 55.048C156.655 56.11 157.303 56.434 157.969 56.434C158.491 56.434 158.905 56.218 159.319 55.804L160.183 57.1C159.463 57.82 158.671 58.162 157.645 58.162C155.989 58.162 154.639 57.154 154.639 55.174V50.026H152.965V48.46H154.639V46.336L156.655 45.418V48.46H160.021V50.026H156.655V55.048Z"
    fill="#2A2859" />
  <rect x="103" y="75" width="342" height="46" fill="white" />
  <rect x="103" y="75" width="342" height="46" stroke="#2A2859" stroke-width="2" />
  <path
    d="M119.332 94.208C119.332 91.976 121.366 90.536 123.724 90.536C125.902 90.536 127.378 91.472 128.044 93.146L126.856 93.632C126.316 92.354 125.11 91.652 123.724 91.652C121.888 91.652 120.592 92.588 120.592 94.064C120.592 95.306 121.33 96.062 122.896 96.368L124.984 96.764C127.036 97.16 128.548 98.258 128.548 100.256C128.548 102.308 126.82 104.144 123.904 104.144C121.6 104.144 119.872 103.352 118.936 101.372L120.088 100.904C120.988 102.668 122.482 103.028 123.94 103.028C126.118 103.028 127.288 101.768 127.288 100.328C127.288 98.726 126.208 98.258 124.588 97.952L122.68 97.592C120.826 97.25 119.332 96.224 119.332 94.208ZM137.158 95.18C138.22 96.026 138.904 97.43 138.904 99.212C138.904 102.2 137.014 104.144 134.656 104.144C133.99 104.144 133.36 103.982 132.802 103.694L132.208 104.864H131.344L132.154 103.28C131.092 102.434 130.408 101.012 130.408 99.212C130.408 96.26 132.28 94.316 134.656 94.316C135.322 94.316 135.952 94.478 136.51 94.748L137.104 93.596H137.968L137.158 95.18ZM131.668 99.212C131.668 100.598 132.064 101.606 132.676 102.254L136.006 95.738C135.592 95.504 135.142 95.396 134.656 95.396C133.036 95.396 131.668 96.674 131.668 99.212ZM134.656 103.064C136.294 103.064 137.644 101.768 137.644 99.212C137.644 97.844 137.248 96.854 136.636 96.206L133.306 102.722C133.702 102.956 134.17 103.064 134.656 103.064ZM147.131 104L143.621 99.266L142.451 100.382V104H141.227V90.68H142.451V98.942L146.987 94.46H148.607L144.449 98.456L148.679 104H147.131Z"
    fill="#666666" />
  <rect width="48" height="48" transform="translate(454 74)" fill="#2A2859" />
  <path fill-rule="evenodd" clip-rule="evenodd"
    d="M488.73 107.587L483.176 102.033C484.44 100.483 485.2 98.5063 485.2 96.3501C485.2 91.3798 481.17 87.3501 476.2 87.3501C471.23 87.3501 467.2 91.3798 467.2 96.3501C467.2 101.32 471.23 105.35 476.2 105.35C478.475 105.35 480.546 104.5 482.131 103.108L487.67 108.646L488.73 107.587ZM476.2 103.85C472.064 103.85 468.7 100.486 468.7 96.3501C468.7 92.2146 472.064 88.8501 476.2 88.8501C480.335 88.8501 483.7 92.2146 483.7 96.3501C483.7 100.486 480.335 103.85 476.2 103.85Z"
    fill="white" />
  <g clip-path="url(#clip0_6153_129871)">
    <rect x="54" y="51.0972" width="50" height="1" fill="#6FE9FF" />
    <g clip-path="url(#clip1_6153_129871)">
      <rect x="54" y="39.0972" width="24" height="24" rx="12" fill="#6FE9FF" />
      <path
        d="M66.7101 54.1972H68.6661V55.0972H63.5901V54.1972H65.6541V47.4172L63.6981 48.7252V47.6212L65.7621 46.2172H66.7101V54.1972Z"
        fill="#2A2859" />
    </g>
  </g>
  <g clip-path="url(#clip2_6153_129871)">
    <rect x="54" y="98" width="48" height="1" fill="#6FE9FF" />
    <g clip-path="url(#clip3_6153_129871)">
      <rect x="54" y="86" width="24" height="24" rx="12" fill="#6FE9FF" />
      <path
        d="M64.5741 101.028H69.0861V102H63.1461V101.184L66.3021 97.752C67.2141 96.768 67.5861 96.228 67.5861 95.46C67.5861 94.632 67.0221 93.96 65.9661 93.96C65.0421 93.96 64.3461 94.416 64.0101 95.472L63.0381 95.208C63.5541 93.636 64.6701 93.012 65.9901 93.012C67.7661 93.012 68.6901 94.2 68.6901 95.376C68.6901 96.396 68.2821 97.068 67.1061 98.34L64.5741 101.028Z"
        fill="#2A2859" />
    </g>
  </g>
  <g clip-path="url(#clip4_6153_129871)">
    <rect x="133.807" y="104.864" width="1" height="65.136" fill="#6FE9FF" />
    <g clip-path="url(#clip5_6153_129871)">
      <rect x="121.807" y="146" width="24" height="24" rx="12" fill="#6FE9FF" />
      <path
        d="M135.214 157.308C136.102 157.608 136.834 158.316 136.834 159.48C136.834 160.92 135.622 162.108 133.666 162.108C132.478 162.108 131.362 161.664 130.498 160.464L131.29 159.84C131.938 160.764 132.658 161.148 133.714 161.148C134.986 161.148 135.778 160.38 135.778 159.444C135.778 158.796 135.514 158.388 135.106 158.148C134.794 157.98 134.506 157.896 134.014 157.896H132.754V156.984H133.654C134.326 156.984 134.602 156.888 134.89 156.66C135.226 156.384 135.418 155.976 135.418 155.496C135.418 154.56 134.734 153.96 133.63 153.96C132.694 153.96 131.974 154.44 131.602 155.472L130.654 155.184C131.23 153.684 132.334 153.012 133.666 153.012C135.574 153.012 136.462 154.212 136.462 155.376C136.462 156.264 135.934 156.96 135.214 157.308Z"
        fill="#2A2859" />
    </g>
  </g>
  <g clip-path="url(#clip6_6153_129871)">
    <rect x="502" y="98" width="48" height="1" fill="#6FE9FF" />
    <g clip-path="url(#clip7_6153_129871)">
      <rect x="526" y="86" width="24" height="24" rx="12" fill="#6FE9FF" />
      <path
        d="M541.326 98.796V99.744H539.886V102H538.866V99.744H534.882V98.928L536.994 93.12H538.014L535.998 98.796H538.866V96.264L539.886 95.964V98.796H541.326Z"
        fill="#2A2859" />
    </g>
  </g>
  <defs>
    <clipPath id="clip0_6153_129871">
      <rect width="49.5659" height="24" fill="white" transform="translate(54 39.0972)" />
    </clipPath>
    <clipPath id="clip1_6153_129871">
      <rect x="54" y="39.0972" width="24" height="24" rx="12" fill="white" />
    </clipPath>
    <clipPath id="clip2_6153_129871">
      <rect width="48" height="24" fill="white" transform="translate(54 86)" />
    </clipPath>
    <clipPath id="clip3_6153_129871">
      <rect x="54" y="86" width="24" height="24" rx="12" fill="white" />
    </clipPath>
    <clipPath id="clip4_6153_129871">
      <rect width="24" height="65.136" fill="white" transform="translate(121.807 104.864)" />
    </clipPath>
    <clipPath id="clip5_6153_129871">
      <rect x="121.807" y="146" width="24" height="24" rx="12" fill="white" />
    </clipPath>
    <clipPath id="clip6_6153_129871">
      <rect width="48" height="24" fill="white" transform="translate(502 86)" />
    </clipPath>
    <clipPath id="clip7_6153_129871">
      <rect x="526" y="86" width="24" height="24" rx="12" fill="white" />
    </clipPath>
  </defs>
</svg>