<svg width="898" height="218" viewBox="0 0 898 218" fill="none" xmlns="http://www.w3.org/2000/svg">
  <rect width="898" height="218" fill="white" />
  <rect x="250" y="86" width="350" height="46" fill="white" />
  <rect x="250" y="86" width="350" height="46" stroke="#F9C66B" stroke-width="2" />
  <path
    d="M274.332 105.208C274.332 102.976 276.366 101.536 278.724 101.536C280.902 101.536 282.378 102.472 283.044 104.146L281.856 104.632C281.316 103.354 280.11 102.652 278.724 102.652C276.888 102.652 275.592 103.588 275.592 105.064C275.592 106.306 276.33 107.062 277.896 107.368L279.984 107.764C282.036 108.16 283.548 109.258 283.548 111.256C283.548 113.308 281.82 115.144 278.904 115.144C276.6 115.144 274.872 114.352 273.936 112.372L275.088 111.904C275.988 113.668 277.482 114.028 278.94 114.028C281.118 114.028 282.288 112.768 282.288 111.328C282.288 109.726 281.208 109.258 279.588 108.952L277.68 108.592C275.826 108.25 274.332 107.224 274.332 105.208ZM292.158 106.18C293.22 107.026 293.904 108.43 293.904 110.212C293.904 113.2 292.014 115.144 289.656 115.144C288.99 115.144 288.36 114.982 287.802 114.694L287.208 115.864H286.344L287.154 114.28C286.092 113.434 285.408 112.012 285.408 110.212C285.408 107.26 287.28 105.316 289.656 105.316C290.322 105.316 290.952 105.478 291.51 105.748L292.104 104.596H292.968L292.158 106.18ZM286.668 110.212C286.668 111.598 287.064 112.606 287.676 113.254L291.006 106.738C290.592 106.504 290.142 106.396 289.656 106.396C288.036 106.396 286.668 107.674 286.668 110.212ZM289.656 114.064C291.294 114.064 292.644 112.768 292.644 110.212C292.644 108.844 292.248 107.854 291.636 107.206L288.306 113.722C288.702 113.956 289.17 114.064 289.656 114.064ZM302.131 115L298.621 110.266L297.451 111.382V115H296.227V101.68H297.451V109.942L301.987 105.46H303.607L299.449 109.456L303.679 115H302.131ZM310.553 103.732C309.959 103.732 309.473 103.264 309.473 102.652C309.473 102.04 309.959 101.572 310.553 101.572C311.147 101.572 311.633 102.04 311.633 102.652C311.633 103.264 311.147 103.732 310.553 103.732ZM309.941 115V105.46H311.165V115H309.941ZM322.503 105.316C324.411 105.316 325.527 106.486 325.527 108.628V115H324.303V108.808C324.303 107.08 323.511 106.432 322.179 106.432C320.505 106.432 319.731 107.728 319.731 109.636V115H318.507V101.68H319.731V106.936C320.307 105.892 321.351 105.316 322.503 105.316ZM334.789 112.3L335.689 112.804C335.239 113.956 334.051 115.144 331.927 115.144C329.245 115.144 327.661 113.146 327.661 110.104C327.661 107.314 329.317 105.316 331.801 105.316C333.853 105.316 335.617 106.792 335.617 109.384L335.581 110.446H328.903C329.011 112.984 330.217 114.064 332.053 114.064C333.493 114.064 334.339 113.236 334.789 112.3ZM331.801 106.396C330.361 106.396 329.065 107.17 328.903 109.438H334.411C334.465 107.296 333.205 106.396 331.801 106.396ZM340.993 114.964C340.705 115.036 340.471 115.072 340.201 115.072C338.707 115.072 338.005 114.136 338.005 112.732V101.68H339.229V112.732C339.229 113.542 339.661 113.956 340.417 113.956C340.615 113.956 340.813 113.938 340.993 113.884V114.964ZM349.26 112.3L350.16 112.804C349.71 113.956 348.522 115.144 346.398 115.144C343.716 115.144 342.132 113.146 342.132 110.104C342.132 107.314 343.788 105.316 346.272 105.316C348.324 105.316 350.088 106.792 350.088 109.384L350.052 110.446H343.374C343.482 112.984 344.688 114.064 346.524 114.064C347.964 114.064 348.81 113.236 349.26 112.3ZM346.272 106.396C344.832 106.396 343.536 107.17 343.374 109.438H348.882C348.936 107.296 347.676 106.396 346.272 106.396ZM360.877 105.316C362.785 105.316 363.901 106.486 363.901 108.628V115H362.677V108.808C362.677 107.08 361.885 106.432 360.553 106.432C358.879 106.432 358.105 107.728 358.105 109.636V115H356.881V105.46H358.105V106.936C358.681 105.892 359.725 105.316 360.877 105.316ZM373.164 112.3L374.064 112.804C373.614 113.956 372.426 115.144 370.302 115.144C367.62 115.144 366.036 113.146 366.036 110.104C366.036 107.314 367.692 105.316 370.176 105.316C372.228 105.316 373.992 106.792 373.992 109.384L373.956 110.446H367.278C367.386 112.984 368.592 114.064 370.428 114.064C371.868 114.064 372.714 113.236 373.164 112.3ZM370.176 106.396C368.736 106.396 367.44 107.17 367.278 109.438H372.786C372.84 107.296 371.58 106.396 370.176 106.396ZM378.112 112.624C378.112 113.74 378.778 114.064 379.372 114.064C379.948 114.064 380.326 113.848 380.776 113.38L381.424 114.1C380.794 114.838 380.11 115.144 379.264 115.144C377.968 115.144 376.888 114.28 376.888 112.588V106.468H375.088V105.46H376.888V103.408L378.112 102.688V105.46H381.208V106.468H378.112V112.624ZM384.873 112.624C384.873 113.74 385.539 114.064 386.133 114.064C386.709 114.064 387.087 113.848 387.537 113.38L388.185 114.1C387.555 114.838 386.871 115.144 386.025 115.144C384.729 115.144 383.649 114.28 383.649 112.588V106.468H381.849V105.46H383.649V103.408L384.873 102.688V105.46H387.969V106.468H384.873V112.624ZM389.258 107.944C389.258 106.432 390.68 105.316 392.678 105.316C394.406 105.316 395.738 106.144 396.134 107.404L395.126 107.8C394.748 106.882 393.866 106.396 392.642 106.396C391.31 106.396 390.446 106.954 390.446 107.836C390.446 108.628 390.968 109.114 392.102 109.348L393.362 109.6C395.45 110.014 396.422 110.914 396.422 112.336C396.422 113.992 394.946 115.144 392.822 115.144C390.896 115.144 389.546 114.388 388.898 112.948L389.942 112.516C390.392 113.524 391.382 114.064 392.786 114.064C394.262 114.064 395.234 113.416 395.234 112.444C395.234 111.544 394.73 111.058 393.47 110.788L391.922 110.464C390.176 110.104 389.258 109.222 389.258 107.944ZM400.363 112.624C400.363 113.74 401.029 114.064 401.623 114.064C402.199 114.064 402.577 113.848 403.027 113.38L403.675 114.1C403.045 114.838 402.361 115.144 401.515 115.144C400.219 115.144 399.139 114.28 399.139 112.588V106.468H397.339V105.46H399.139V103.408L400.363 102.688V105.46H403.459V106.468H400.363V112.624ZM411.539 112.3L412.439 112.804C411.989 113.956 410.801 115.144 408.677 115.144C405.995 115.144 404.411 113.146 404.411 110.104C404.411 107.314 406.067 105.316 408.551 105.316C410.603 105.316 412.367 106.792 412.367 109.384L412.331 110.446H405.653C405.761 112.984 406.967 114.064 408.803 114.064C410.243 114.064 411.089 113.236 411.539 112.3ZM408.551 106.396C407.111 106.396 405.815 107.17 405.653 109.438H411.161C411.215 107.296 409.955 106.396 408.551 106.396ZM421.343 101.68H422.567V115H421.343V113.218C420.713 114.442 419.453 115.126 418.211 115.126C415.781 115.126 414.143 113.092 414.143 110.32C414.143 107.386 415.799 105.316 418.355 105.316C419.687 105.316 420.767 105.982 421.343 107.188V101.68ZM418.337 114.046C420.245 114.046 421.343 112.624 421.343 110.284C421.343 107.8 420.263 106.396 418.355 106.396C416.573 106.396 415.403 107.764 415.403 110.266C415.403 112.678 416.573 114.046 418.337 114.046ZM431.899 112.3L432.799 112.804C432.349 113.956 431.161 115.144 429.037 115.144C426.355 115.144 424.771 113.146 424.771 110.104C424.771 107.314 426.427 105.316 428.911 105.316C430.963 105.316 432.727 106.792 432.727 109.384L432.691 110.446H426.013C426.121 112.984 427.327 114.064 429.163 114.064C430.603 114.064 431.449 113.236 431.899 112.3ZM428.911 106.396C427.471 106.396 426.175 107.17 426.013 109.438H431.521C431.575 107.296 430.315 106.396 428.911 106.396ZM436.847 112.624C436.847 113.74 437.513 114.064 438.107 114.064C438.683 114.064 439.061 113.848 439.511 113.38L440.159 114.1C439.529 114.838 438.845 115.144 437.999 115.144C436.703 115.144 435.623 114.28 435.623 112.588V106.468H433.823V105.46H435.623V103.408L436.847 102.688V105.46H439.943V106.468H436.847V112.624Z"
    fill="#666666" />
  <circle cx="625" cy="109" r="24" fill="#F9C66B" />
  <path fill-rule="evenodd" clip-rule="evenodd"
    d="M623.5 100C619.358 100 616 103.358 616 107.5C616 111.642 619.358 115 623.5 115C625.288 115 626.93 114.374 628.219 113.33L632.889 118L634 116.889L629.33 112.219C630.374 110.93 631 109.288 631 107.5C631 103.358 627.642 100 623.5 100ZM623.5 101.481C626.824 101.481 629.519 104.176 629.519 107.5C629.519 110.824 626.824 113.519 623.5 113.519C620.176 113.519 617.481 110.824 617.481 107.5C617.485 104.178 620.178 101.485 623.5 101.481Z"
    fill="#2A2859" />
</svg>