<svg width="1116" height="328" viewBox="0 0 1116 328" fill="none" xmlns="http://www.w3.org/2000/svg">
  <g clip-path="url(#clip0_6148_130518)">
    <rect width="1116" height="328" fill="white" />
    <mask id="path-1-inside-1_6148_130518" fill="white">
      <path d="M0 55H552V328H0V55Z" />
    </mask>
    <path d="M0 55H552V328H0V55Z" fill="white" />
    <path
      d="M552 328V329H553V328H552ZM0 328H-1V329H0V328ZM551 55V328H553V55H551ZM552 327H0V329H552V327ZM1 328V55H-1V328H1Z"
      fill="#E6E6E6" mask="url(#path-1-inside-1_6148_130518)" />
    <mask id="path-3-inside-2_6148_130518" fill="white">
      <path d="M563 55H1116V328H563V55Z" />
    </mask>
    <path d="M563 55H1116V328H563V55Z" fill="white" />
    <path
      d="M1116 328V329H1117V328H1116ZM563 328H562V329H563V328ZM1115 55V328H1117V55H1115ZM1116 327H563V329H1116V327ZM564 328V55H562V328H564Z"
      fill="#E6E6E6" mask="url(#path-3-inside-2_6148_130518)" />
    <rect x="0.5" y="0.5" width="550.12" height="53.97" stroke="#E6E6E6" />
    <rect x="563.575" y="0.5" width="551.316" height="53.97" stroke="#E6E6E6" />
    <path d="M0 43.9761H551.12V54.9701H0V43.9761Z" fill="#C7F6C9" />
    <path opacity="0.6" d="M563 43.9761H1115.32V54.9701H563V43.9761Z" fill="#FF8274" />
    <path
      d="M23.1211 28.144C19.8731 28.144 17.5211 25.776 17.5211 22.016C17.5211 18.368 20.0011 16.016 22.9931 16.016C25.0571 16.016 26.5611 16.96 27.3131 18.64L26.0491 19.296C25.4731 18.048 24.3211 17.376 22.9771 17.376C20.8331 17.376 19.0091 18.896 19.0091 22.016C19.0091 25.136 20.7371 26.848 23.2011 26.848C24.4011 26.848 25.2651 26.608 26.0651 26.144V22.896H21.8891V21.6H27.3451V26.8C26.2891 27.68 24.7051 28.144 23.1211 28.144ZM30.4281 18.032C29.8201 18.032 29.3401 17.568 29.3401 16.944C29.3401 16.336 29.8201 15.872 30.4281 15.872C31.0201 15.872 31.5001 16.336 31.5001 16.944C31.5001 17.568 31.0201 18.032 30.4281 18.032ZM29.1001 31.488C28.7801 31.488 28.4441 31.44 28.1401 31.344L28.2521 30.208C28.4761 30.288 28.6681 30.304 28.8281 30.304C29.5321 30.304 29.7401 29.84 29.7401 29.12V19.52H31.1161V29.104C31.1161 30.64 30.4601 31.488 29.1001 31.488ZM39.2179 20.096C40.2259 20.832 40.8659 22.112 40.8659 23.728C40.8659 26.416 39.1219 28.144 36.9939 28.144C36.4179 28.144 35.8579 28.016 35.3619 27.776L34.8499 28.8H34.0179L34.7219 27.392C33.7459 26.64 33.1059 25.36 33.1059 23.728C33.1059 21.088 34.8339 19.36 36.9939 19.36C37.5699 19.36 38.1139 19.488 38.5939 19.712L39.1059 18.704H39.9219L39.2179 20.096ZM34.5299 23.728C34.5299 24.864 34.8339 25.696 35.3139 26.224L38.0499 20.8C37.7299 20.64 37.3619 20.56 36.9939 20.56C35.6499 20.56 34.5299 21.568 34.5299 23.728ZM36.9939 26.944C38.3379 26.944 39.4419 25.888 39.4419 23.728C39.4419 22.592 39.1379 21.776 38.6419 21.248L35.9059 26.688C36.2419 26.864 36.6099 26.944 36.9939 26.944ZM46.2012 19.36C47.3532 19.36 48.1532 20.128 48.1532 21.584V22.528L46.9692 22.752V21.904C46.9692 21.088 46.6972 20.544 45.8492 20.544C44.8892 20.544 44.1852 21.216 44.1852 22.896V28H42.8092V19.52H44.1852V20.608C44.6492 19.744 45.4492 19.36 46.2012 19.36ZM53.5241 21.776C53.5241 20.4 54.8201 19.36 56.6921 19.36C58.2601 19.36 59.4121 20.048 59.8601 21.168L58.8201 21.696C58.4681 20.944 57.7001 20.528 56.6601 20.528C55.5721 20.528 54.8521 20.96 54.8521 21.68C54.8521 22.304 55.2521 22.672 56.1641 22.864L57.3961 23.104C59.2361 23.472 60.1161 24.288 60.1161 25.568C60.1161 27.088 58.7721 28.128 56.7881 28.128C55.0601 28.128 53.8281 27.456 53.2201 26.208L54.2761 25.648C54.7081 26.512 55.5561 26.976 56.7561 26.976C57.9721 26.976 58.7881 26.448 58.7881 25.648C58.7881 24.944 58.3721 24.56 57.3961 24.352L55.9401 24.064C54.3721 23.744 53.5241 22.944 53.5241 21.776ZM64.9505 27.968C64.6625 28.032 64.4065 28.08 64.1185 28.08C62.6785 28.08 61.9905 27.2 61.9905 25.824V16.16H63.3665V25.76C63.3665 26.496 63.7665 26.848 64.4385 26.848C64.5985 26.848 64.7745 26.832 64.9505 26.784V27.968ZM66.472 16.064H68.36V17.92H66.472V16.064ZM66.728 28V19.52H68.104V28H66.728ZM75.965 28L73.053 23.92L72.045 24.912V28H70.669V16.16H72.045V23.328L75.837 19.52H77.581L73.981 23.024L77.645 28H75.965Z"
      fill="#2A2859" />
    <path
      d="M586.002 28V16.16H587.426V28H586.002ZM595.269 28L592.357 23.92L591.349 24.912V28H589.973V16.16H591.349V23.328L595.141 19.52H596.885L593.285 23.024L596.949 28H595.269ZM603.85 28L600.938 23.92L599.93 24.912V28H598.554V16.16H599.93V23.328L603.722 19.52H605.466L601.866 23.024L605.53 28H603.85ZM612.287 25.488L613.263 26.032C612.815 27.088 611.743 28.144 609.839 28.144C607.391 28.144 605.935 26.32 605.935 23.664C605.935 21.136 607.487 19.36 609.711 19.36C611.599 19.36 613.215 20.688 613.215 23.04L613.183 24.016H607.311C607.407 26.096 608.415 26.976 609.951 26.976C611.119 26.976 611.871 26.304 612.287 25.488ZM609.711 20.512C608.511 20.512 607.471 21.136 607.311 22.944H611.871C611.887 21.232 610.847 20.512 609.711 20.512ZM618.725 21.776C618.725 20.4 620.021 19.36 621.893 19.36C623.461 19.36 624.613 20.048 625.061 21.168L624.021 21.696C623.669 20.944 622.901 20.528 621.861 20.528C620.773 20.528 620.053 20.96 620.053 21.68C620.053 22.304 620.453 22.672 621.365 22.864L622.597 23.104C624.437 23.472 625.317 24.288 625.317 25.568C625.317 27.088 623.973 28.128 621.989 28.128C620.261 28.128 619.029 27.456 618.421 26.208L619.477 25.648C619.909 26.512 620.757 26.976 621.957 26.976C623.173 26.976 623.989 26.448 623.989 25.648C623.989 24.944 623.573 24.56 622.597 24.352L621.141 24.064C619.573 23.744 618.725 22.944 618.725 21.776ZM630.151 27.968C629.863 28.032 629.607 28.08 629.319 28.08C627.879 28.08 627.191 27.2 627.191 25.824V16.16H628.567V25.76C628.567 26.496 628.967 26.848 629.639 26.848C629.799 26.848 629.975 26.832 630.151 26.784V27.968ZM632.617 18.032C632.009 18.032 631.529 17.568 631.529 16.944C631.529 16.336 632.009 15.872 632.617 15.872C633.209 15.872 633.689 16.336 633.689 16.944C633.689 17.568 633.209 18.032 632.617 18.032ZM631.929 28V19.52H633.305V28H631.929ZM641.166 28L638.254 23.92L637.246 24.912V28H635.87V16.16H637.246V23.328L641.038 19.52H642.782L639.182 23.024L642.846 28H641.166Z"
      fill="#2A2859" />
    <path
      d="M740.242 160.388C740.242 158.03 742.42 156.5 745.012 156.5C747.136 156.5 748.828 157.238 749.854 159.002L748.108 160.082C747.532 159.002 746.308 158.372 744.994 158.372C743.428 158.372 742.366 159.074 742.366 160.226C742.366 161.18 742.96 161.81 744.256 162.026L746.308 162.332C748.63 162.692 750.25 163.952 750.25 166.094C750.25 168.344 748.342 170.18 745.156 170.18C742.888 170.18 741.016 169.388 739.882 167.462L741.646 166.328C742.492 167.858 743.932 168.29 745.174 168.29C746.956 168.29 748.054 167.39 748.054 166.166C748.054 165.05 747.352 164.546 746.056 164.33L743.788 163.97C741.646 163.646 740.242 162.404 740.242 160.388ZM758.849 161.036C760.055 161.864 760.829 163.322 760.829 165.176C760.829 168.236 758.795 170.18 756.311 170.18C755.681 170.18 755.087 170.054 754.529 169.82L753.971 170.972H752.945L753.737 169.37C752.567 168.524 751.793 167.066 751.793 165.176C751.793 162.188 753.809 160.244 756.311 160.244C756.941 160.244 757.517 160.37 758.057 160.586L758.615 159.47H759.623L758.849 161.036ZM753.863 165.176C753.863 166.292 754.133 167.12 754.583 167.66L757.283 162.152C756.995 162.026 756.653 161.954 756.311 161.954C754.979 161.954 753.863 162.908 753.863 165.176ZM756.311 168.47C757.661 168.47 758.759 167.426 758.759 165.176C758.759 164.042 758.471 163.232 758.039 162.71L755.303 168.254C755.609 168.398 755.951 168.47 756.311 168.47ZM768.957 170L766.059 165.626L764.961 166.706V170H762.945V156.68H764.961V164.42L768.813 160.46H771.297L767.391 164.312L771.369 170H768.957ZM784.091 166.994L785.459 167.786C784.919 168.974 783.659 170.162 781.481 170.162C778.655 170.162 776.945 168.074 776.945 165.14C776.945 162.242 778.799 160.244 781.337 160.244C783.587 160.244 785.441 161.756 785.441 164.456L785.405 165.644H778.925C779.033 167.66 780.023 168.524 781.607 168.524C782.777 168.524 783.587 167.894 784.091 166.994ZM781.337 161.828C780.113 161.828 779.087 162.476 778.925 164.204H783.479C783.497 162.512 782.453 161.828 781.337 161.828ZM790.252 167.048C790.252 168.11 790.9 168.434 791.566 168.434C792.088 168.434 792.502 168.218 792.916 167.804L793.78 169.1C793.06 169.82 792.268 170.162 791.242 170.162C789.586 170.162 788.236 169.154 788.236 167.174V162.026H786.562V160.46H788.236V158.336L790.252 157.418V160.46H793.618V162.026H790.252V167.048ZM798.067 167.048C798.067 168.11 798.715 168.434 799.381 168.434C799.903 168.434 800.317 168.218 800.731 167.804L801.595 169.1C800.875 169.82 800.083 170.162 799.057 170.162C797.401 170.162 796.051 169.154 796.051 167.174V162.026H794.377V160.46H796.051V158.336L798.067 157.418V160.46H801.433V162.026H798.067V167.048ZM809.436 166.994L810.804 167.786C810.264 168.974 809.004 170.162 806.826 170.162C804 170.162 802.29 168.074 802.29 165.14C802.29 162.242 804.144 160.244 806.682 160.244C808.932 160.244 810.786 161.756 810.786 164.456L810.75 165.644H804.27C804.378 167.66 805.368 168.524 806.952 168.524C808.122 168.524 808.932 167.894 809.436 166.994ZM806.682 161.828C805.458 161.828 804.432 162.476 804.27 164.204H808.824C808.842 162.512 807.798 161.828 806.682 161.828ZM817.447 160.244C818.833 160.244 819.733 161.162 819.733 162.8V164.06L818.113 164.348V163.376C818.113 162.512 817.807 161.918 816.871 161.918C815.845 161.918 815.089 162.602 815.089 164.42V170H813.073V160.46H815.089V161.738C815.629 160.676 816.619 160.244 817.447 160.244ZM833.947 170H832.093C831.949 169.514 831.859 168.938 831.823 168.2C831.373 169.19 830.365 170.162 828.709 170.162C826.981 170.162 825.757 168.992 825.757 167.336C825.757 165.266 827.593 164.24 829.645 164.24C830.293 164.24 830.905 164.294 831.571 164.474V163.574C831.571 162.548 830.923 161.882 829.753 161.882C828.655 161.882 827.881 162.476 827.521 163.592L825.811 163.07C826.495 161.054 828.133 160.244 829.843 160.244C832.381 160.244 833.533 161.738 833.533 163.556V167.246C833.533 168.38 833.713 169.388 833.947 170ZM831.571 166.058V165.842C830.995 165.644 830.437 165.572 829.843 165.572C828.655 165.572 827.737 166.112 827.737 167.156C827.737 168.038 828.367 168.596 829.321 168.596C830.293 168.596 831.571 168.02 831.571 166.058ZM842.434 156.68H844.45V170H842.434V168.272C841.696 169.604 840.544 170.144 839.446 170.144C837.142 170.144 835.486 168.164 835.486 165.266C835.486 162.26 837.16 160.262 839.68 160.262C840.76 160.262 841.84 160.748 842.434 161.918V156.68ZM839.986 168.38C841.444 168.38 842.434 167.39 842.434 165.158C842.434 162.944 841.462 161.882 839.986 161.882C838.6 161.882 837.574 162.998 837.574 165.158C837.574 167.3 838.6 168.38 839.986 168.38ZM851.469 160.244C852.855 160.244 853.755 161.162 853.755 162.8V164.06L852.135 164.348V163.376C852.135 162.512 851.829 161.918 850.893 161.918C849.867 161.918 849.111 162.602 849.111 164.42V170H847.095V160.46H849.111V161.738C849.651 160.676 850.641 160.244 851.469 160.244ZM861.885 166.994L863.253 167.786C862.713 168.974 861.453 170.162 859.275 170.162C856.449 170.162 854.739 168.074 854.739 165.14C854.739 162.242 856.593 160.244 859.131 160.244C861.381 160.244 863.235 161.756 863.235 164.456L863.199 165.644H856.719C856.827 167.66 857.817 168.524 859.401 168.524C860.571 168.524 861.381 167.894 861.885 166.994ZM859.131 161.828C857.907 161.828 856.881 162.476 856.719 164.204H861.273C861.291 162.512 860.247 161.828 859.131 161.828ZM865.017 163.088C865.017 161.468 866.511 160.244 868.761 160.244C870.615 160.244 871.857 160.91 872.523 162.188L871.119 163.052C870.687 162.314 869.823 161.864 868.743 161.864C867.663 161.864 866.925 162.278 866.925 162.962C866.925 163.52 867.303 163.862 868.149 164.024L869.751 164.348C871.767 164.744 872.775 165.698 872.775 167.156C872.775 168.956 871.209 170.162 868.851 170.162C866.853 170.162 865.431 169.406 864.693 168.02L866.097 167.138C866.619 168.02 867.537 168.524 868.797 168.524C870.021 168.524 870.849 168.038 870.849 167.246C870.849 166.598 870.453 166.238 869.571 166.058L867.807 165.716C866.007 165.374 865.017 164.456 865.017 163.088ZM874.345 163.088C874.345 161.468 875.839 160.244 878.089 160.244C879.943 160.244 881.185 160.91 881.851 162.188L880.447 163.052C880.015 162.314 879.151 161.864 878.071 161.864C876.991 161.864 876.253 162.278 876.253 162.962C876.253 163.52 876.631 163.862 877.477 164.024L879.079 164.348C881.095 164.744 882.103 165.698 882.103 167.156C882.103 168.956 880.537 170.162 878.179 170.162C876.181 170.162 874.759 169.406 874.021 168.02L875.425 167.138C875.947 168.02 876.865 168.524 878.125 168.524C879.349 168.524 880.177 168.038 880.177 167.246C880.177 166.598 879.781 166.238 878.899 166.058L877.135 165.716C875.335 165.374 874.345 164.456 874.345 163.088ZM890.535 166.994L891.903 167.786C891.363 168.974 890.103 170.162 887.925 170.162C885.099 170.162 883.389 168.074 883.389 165.14C883.389 162.242 885.243 160.244 887.781 160.244C890.031 160.244 891.885 161.756 891.885 164.456L891.849 165.644H885.369C885.477 167.66 886.467 168.524 888.051 168.524C889.221 168.524 890.031 167.894 890.535 166.994ZM887.781 161.828C886.557 161.828 885.531 162.476 885.369 164.204H889.923C889.941 162.512 888.897 161.828 887.781 161.828Z"
      fill="#2A2859" />
    <rect x="740" y="187" width="199" height="46" fill="white" />
    <rect x="740" y="187" width="199" height="46" stroke="#2A2859" stroke-width="2" />
    <path
      d="M765.844 214.812H772.036V216H764.584V202.68H765.844V214.812ZM774.751 204.732C774.157 204.732 773.671 204.264 773.671 203.652C773.671 203.04 774.157 202.572 774.751 202.572C775.345 202.572 775.831 203.04 775.831 203.652C775.831 204.264 775.345 204.732 774.751 204.732ZM774.139 216V206.46H775.363V216H774.139ZM782.259 206.316C784.167 206.316 785.283 207.486 785.283 209.628V216H784.059V209.808C784.059 208.08 783.267 207.432 781.935 207.432C780.261 207.432 779.487 208.728 779.487 210.636V216H778.263V206.46H779.487V207.936C780.063 206.892 781.107 206.316 782.259 206.316ZM787.562 208.944C787.562 207.432 788.984 206.316 790.982 206.316C792.71 206.316 794.042 207.144 794.438 208.404L793.43 208.8C793.052 207.882 792.17 207.396 790.946 207.396C789.614 207.396 788.75 207.954 788.75 208.836C788.75 209.628 789.272 210.114 790.406 210.348L791.666 210.6C793.754 211.014 794.726 211.914 794.726 213.336C794.726 214.992 793.25 216.144 791.126 216.144C789.2 216.144 787.85 215.388 787.202 213.948L788.246 213.516C788.696 214.524 789.686 215.064 791.09 215.064C792.566 215.064 793.538 214.416 793.538 213.444C793.538 212.544 793.034 212.058 791.774 211.788L790.226 211.464C788.48 211.104 787.562 210.222 787.562 208.944ZM798.668 213.624C798.668 214.74 799.334 215.064 799.928 215.064C800.504 215.064 800.882 214.848 801.332 214.38L801.98 215.1C801.35 215.838 800.666 216.144 799.82 216.144C798.524 216.144 797.444 215.28 797.444 213.588V207.468H795.644V206.46H797.444V204.408L798.668 203.688V206.46H801.764V207.468H798.668V213.624ZM806.963 216.144C804.605 216.144 802.715 214.2 802.715 211.212C802.715 208.26 804.587 206.316 806.963 206.316C809.339 206.316 811.211 208.26 811.211 211.212C811.211 214.2 809.321 216.144 806.963 216.144ZM806.963 215.064C808.601 215.064 809.951 213.768 809.951 211.212C809.951 208.674 808.583 207.396 806.963 207.396C805.343 207.396 803.975 208.674 803.975 211.212C803.975 213.768 805.325 215.064 806.963 215.064ZM824.951 206.46H826.175L822.935 216H821.819L819.209 208.188L816.527 216H815.411L812.171 206.46H813.467L816.005 214.506L818.651 206.46H819.803L822.449 214.47L824.951 206.46ZM827.28 208.944C827.28 207.432 828.702 206.316 830.7 206.316C832.428 206.316 833.76 207.144 834.156 208.404L833.148 208.8C832.77 207.882 831.888 207.396 830.664 207.396C829.332 207.396 828.468 207.954 828.468 208.836C828.468 209.628 828.99 210.114 830.124 210.348L831.384 210.6C833.472 211.014 834.444 211.914 834.444 213.336C834.444 214.992 832.968 216.144 830.844 216.144C828.918 216.144 827.568 215.388 826.92 213.948L827.964 213.516C828.414 214.524 829.404 215.064 830.808 215.064C832.284 215.064 833.256 214.416 833.256 213.444C833.256 212.544 832.752 212.058 831.492 211.788L829.944 211.464C828.198 211.104 827.28 210.222 827.28 208.944ZM849.627 207.468H847.575V207.81C848.043 208.386 848.295 209.106 848.295 209.808C848.295 211.554 847.035 213.336 844.353 213.336H843.939C842.859 213.336 842.085 213.75 842.085 214.38C842.085 214.866 842.463 215.208 843.255 215.208H847.125C848.673 215.208 849.465 215.964 849.465 217.152C849.465 219.042 847.287 220.032 844.605 220.032C842.193 220.032 840.519 219.258 839.943 217.584L840.933 217.134C841.599 218.7 843.003 219.006 844.605 219.006C846.585 219.006 848.241 218.412 848.241 217.26C848.241 216.72 847.953 216.324 847.089 216.324H842.985C841.653 216.324 840.861 215.694 840.861 214.704C840.861 213.858 841.563 213.12 842.733 212.814C841.473 212.31 840.771 210.978 840.771 209.808C840.771 208.098 842.049 206.316 844.569 206.316C845.559 206.316 846.315 206.64 846.891 207.126V206.46H849.627V207.468ZM844.551 212.328C846.243 212.328 847.089 211.158 847.089 209.808C847.089 208.476 846.243 207.36 844.551 207.36C842.841 207.36 841.977 208.494 841.977 209.808C841.977 211.14 842.841 212.328 844.551 212.328ZM857.724 216H856.608C856.464 215.478 856.356 214.848 856.356 214.128C855.87 215.244 854.628 216.144 853.08 216.144C851.388 216.144 850.11 215.046 850.11 213.408C850.11 211.446 851.874 210.42 853.836 210.42C854.61 210.42 855.366 210.51 856.14 210.78V209.52C856.14 208.278 855.384 207.432 853.908 207.432C852.72 207.432 851.712 207.954 851.208 209.412L850.128 209.088C850.848 207.072 852.306 206.316 853.98 206.316C856.338 206.316 857.328 207.738 857.328 209.376V213.3C857.328 214.38 857.508 215.352 857.724 216ZM856.14 212.04V211.824C855.402 211.518 854.646 211.428 853.908 211.428C852.468 211.428 851.334 212.076 851.334 213.336C851.334 214.488 852.144 215.1 853.296 215.1C854.538 215.1 856.14 214.362 856.14 212.04ZM861.955 213.624C861.955 214.74 862.621 215.064 863.215 215.064C863.791 215.064 864.169 214.848 864.619 214.38L865.267 215.1C864.637 215.838 863.953 216.144 863.107 216.144C861.811 216.144 860.731 215.28 860.731 213.588V207.468H858.931V206.46H860.731V204.408L861.955 203.688V206.46H865.051V207.468H861.955V213.624ZM867.088 213.984H869.032V216H867.088V213.984ZM872.764 216.108C872.116 216.108 871.612 215.622 871.612 214.956C871.612 214.29 872.116 213.804 872.764 213.804C873.412 213.804 873.916 214.29 873.916 214.956C873.916 215.622 873.412 216.108 872.764 216.108ZM876.496 213.984H878.44V216H876.496V213.984Z"
      fill="#666666" />
    <path fill-rule="evenodd" clip-rule="evenodd"
      d="M922.73 219.587L917.176 214.033C918.44 212.483 919.2 210.506 919.2 208.35C919.2 203.38 915.17 199.35 910.2 199.35C905.23 199.35 901.2 203.38 901.2 208.35C901.2 213.32 905.23 217.35 910.2 217.35C912.475 217.35 914.546 216.5 916.131 215.108L921.67 220.646L922.73 219.587ZM910.2 215.85C906.064 215.85 902.7 212.486 902.7 208.35C902.7 204.215 906.064 200.85 910.2 200.85C914.335 200.85 917.7 204.215 917.7 208.35C917.7 212.486 914.335 215.85 910.2 215.85Z"
      fill="#2A2859" />
    <path
      d="M107.242 160.388C107.242 158.03 109.42 156.5 112.012 156.5C114.136 156.5 115.828 157.238 116.854 159.002L115.108 160.082C114.532 159.002 113.308 158.372 111.994 158.372C110.428 158.372 109.366 159.074 109.366 160.226C109.366 161.18 109.96 161.81 111.256 162.026L113.308 162.332C115.63 162.692 117.25 163.952 117.25 166.094C117.25 168.344 115.342 170.18 112.156 170.18C109.888 170.18 108.016 169.388 106.882 167.462L108.646 166.328C109.492 167.858 110.932 168.29 112.174 168.29C113.956 168.29 115.054 167.39 115.054 166.166C115.054 165.05 114.352 164.546 113.056 164.33L110.788 163.97C108.646 163.646 107.242 162.404 107.242 160.388ZM125.849 161.036C127.055 161.864 127.829 163.322 127.829 165.176C127.829 168.236 125.795 170.18 123.311 170.18C122.681 170.18 122.087 170.054 121.529 169.82L120.971 170.972H119.945L120.737 169.37C119.567 168.524 118.793 167.066 118.793 165.176C118.793 162.188 120.809 160.244 123.311 160.244C123.941 160.244 124.517 160.37 125.057 160.586L125.615 159.47H126.623L125.849 161.036ZM120.863 165.176C120.863 166.292 121.133 167.12 121.583 167.66L124.283 162.152C123.995 162.026 123.653 161.954 123.311 161.954C121.979 161.954 120.863 162.908 120.863 165.176ZM123.311 168.47C124.661 168.47 125.759 167.426 125.759 165.176C125.759 164.042 125.471 163.232 125.039 162.71L122.303 168.254C122.609 168.398 122.951 168.47 123.311 168.47ZM135.957 170L133.059 165.626L131.961 166.706V170H129.945V156.68H131.961V164.42L135.813 160.46H138.297L134.391 164.312L138.369 170H135.957ZM151.091 166.994L152.459 167.786C151.919 168.974 150.659 170.162 148.481 170.162C145.655 170.162 143.945 168.074 143.945 165.14C143.945 162.242 145.799 160.244 148.337 160.244C150.587 160.244 152.441 161.756 152.441 164.456L152.405 165.644H145.925C146.033 167.66 147.023 168.524 148.607 168.524C149.777 168.524 150.587 167.894 151.091 166.994ZM148.337 161.828C147.113 161.828 146.087 162.476 145.925 164.204H150.479C150.497 162.512 149.453 161.828 148.337 161.828ZM157.252 167.048C157.252 168.11 157.9 168.434 158.566 168.434C159.088 168.434 159.502 168.218 159.916 167.804L160.78 169.1C160.06 169.82 159.268 170.162 158.242 170.162C156.586 170.162 155.236 169.154 155.236 167.174V162.026H153.562V160.46H155.236V158.336L157.252 157.418V160.46H160.618V162.026H157.252V167.048ZM165.067 167.048C165.067 168.11 165.715 168.434 166.381 168.434C166.903 168.434 167.317 168.218 167.731 167.804L168.595 169.1C167.875 169.82 167.083 170.162 166.057 170.162C164.401 170.162 163.051 169.154 163.051 167.174V162.026H161.377V160.46H163.051V158.336L165.067 157.418V160.46H168.433V162.026H165.067V167.048ZM176.436 166.994L177.804 167.786C177.264 168.974 176.004 170.162 173.826 170.162C171 170.162 169.29 168.074 169.29 165.14C169.29 162.242 171.144 160.244 173.682 160.244C175.932 160.244 177.786 161.756 177.786 164.456L177.75 165.644H171.27C171.378 167.66 172.368 168.524 173.952 168.524C175.122 168.524 175.932 167.894 176.436 166.994ZM173.682 161.828C172.458 161.828 171.432 162.476 171.27 164.204H175.824C175.842 162.512 174.798 161.828 173.682 161.828ZM184.447 160.244C185.833 160.244 186.733 161.162 186.733 162.8V164.06L185.113 164.348V163.376C185.113 162.512 184.807 161.918 183.871 161.918C182.845 161.918 182.089 162.602 182.089 164.42V170H180.073V160.46H182.089V161.738C182.629 160.676 183.619 160.244 184.447 160.244ZM200.947 170H199.093C198.949 169.514 198.859 168.938 198.823 168.2C198.373 169.19 197.365 170.162 195.709 170.162C193.981 170.162 192.757 168.992 192.757 167.336C192.757 165.266 194.593 164.24 196.645 164.24C197.293 164.24 197.905 164.294 198.571 164.474V163.574C198.571 162.548 197.923 161.882 196.753 161.882C195.655 161.882 194.881 162.476 194.521 163.592L192.811 163.07C193.495 161.054 195.133 160.244 196.843 160.244C199.381 160.244 200.533 161.738 200.533 163.556V167.246C200.533 168.38 200.713 169.388 200.947 170ZM198.571 166.058V165.842C197.995 165.644 197.437 165.572 196.843 165.572C195.655 165.572 194.737 166.112 194.737 167.156C194.737 168.038 195.367 168.596 196.321 168.596C197.293 168.596 198.571 168.02 198.571 166.058ZM209.434 156.68H211.45V170H209.434V168.272C208.696 169.604 207.544 170.144 206.446 170.144C204.142 170.144 202.486 168.164 202.486 165.266C202.486 162.26 204.16 160.262 206.68 160.262C207.76 160.262 208.84 160.748 209.434 161.918V156.68ZM206.986 168.38C208.444 168.38 209.434 167.39 209.434 165.158C209.434 162.944 208.462 161.882 206.986 161.882C205.6 161.882 204.574 162.998 204.574 165.158C204.574 167.3 205.6 168.38 206.986 168.38ZM218.469 160.244C219.855 160.244 220.755 161.162 220.755 162.8V164.06L219.135 164.348V163.376C219.135 162.512 218.829 161.918 217.893 161.918C216.867 161.918 216.111 162.602 216.111 164.42V170H214.095V160.46H216.111V161.738C216.651 160.676 217.641 160.244 218.469 160.244ZM228.885 166.994L230.253 167.786C229.713 168.974 228.453 170.162 226.275 170.162C223.449 170.162 221.739 168.074 221.739 165.14C221.739 162.242 223.593 160.244 226.131 160.244C228.381 160.244 230.235 161.756 230.235 164.456L230.199 165.644H223.719C223.827 167.66 224.817 168.524 226.401 168.524C227.571 168.524 228.381 167.894 228.885 166.994ZM226.131 161.828C224.907 161.828 223.881 162.476 223.719 164.204H228.273C228.291 162.512 227.247 161.828 226.131 161.828ZM232.017 163.088C232.017 161.468 233.511 160.244 235.761 160.244C237.615 160.244 238.857 160.91 239.523 162.188L238.119 163.052C237.687 162.314 236.823 161.864 235.743 161.864C234.663 161.864 233.925 162.278 233.925 162.962C233.925 163.52 234.303 163.862 235.149 164.024L236.751 164.348C238.767 164.744 239.775 165.698 239.775 167.156C239.775 168.956 238.209 170.162 235.851 170.162C233.853 170.162 232.431 169.406 231.693 168.02L233.097 167.138C233.619 168.02 234.537 168.524 235.797 168.524C237.021 168.524 237.849 168.038 237.849 167.246C237.849 166.598 237.453 166.238 236.571 166.058L234.807 165.716C233.007 165.374 232.017 164.456 232.017 163.088ZM241.345 163.088C241.345 161.468 242.839 160.244 245.089 160.244C246.943 160.244 248.185 160.91 248.851 162.188L247.447 163.052C247.015 162.314 246.151 161.864 245.071 161.864C243.991 161.864 243.253 162.278 243.253 162.962C243.253 163.52 243.631 163.862 244.477 164.024L246.079 164.348C248.095 164.744 249.103 165.698 249.103 167.156C249.103 168.956 247.537 170.162 245.179 170.162C243.181 170.162 241.759 169.406 241.021 168.02L242.425 167.138C242.947 168.02 243.865 168.524 245.125 168.524C246.349 168.524 247.177 168.038 247.177 167.246C247.177 166.598 246.781 166.238 245.899 166.058L244.135 165.716C242.335 165.374 241.345 164.456 241.345 163.088ZM257.535 166.994L258.903 167.786C258.363 168.974 257.103 170.162 254.925 170.162C252.099 170.162 250.389 168.074 250.389 165.14C250.389 162.242 252.243 160.244 254.781 160.244C257.031 160.244 258.885 161.756 258.885 164.456L258.849 165.644H252.369C252.477 167.66 253.467 168.524 255.051 168.524C256.221 168.524 257.031 167.894 257.535 166.994ZM254.781 161.828C253.557 161.828 252.531 162.476 252.369 164.204H256.923C256.941 162.512 255.897 161.828 254.781 161.828Z"
      fill="#2A2859" />
    <rect x="107" y="187" width="338" height="46" fill="white" />
    <rect x="107" y="187" width="338" height="46" stroke="#2A2859" stroke-width="2" />
    <path
      d="M132.844 214.812H139.036V216H131.584V202.68H132.844V214.812ZM141.751 204.732C141.157 204.732 140.671 204.264 140.671 203.652C140.671 203.04 141.157 202.572 141.751 202.572C142.345 202.572 142.831 203.04 142.831 203.652C142.831 204.264 142.345 204.732 141.751 204.732ZM141.139 216V206.46H142.363V216H141.139ZM149.259 206.316C151.167 206.316 152.283 207.486 152.283 209.628V216H151.059V209.808C151.059 208.08 150.267 207.432 148.935 207.432C147.261 207.432 146.487 208.728 146.487 210.636V216H145.263V206.46H146.487V207.936C147.063 206.892 148.107 206.316 149.259 206.316ZM154.562 208.944C154.562 207.432 155.984 206.316 157.982 206.316C159.71 206.316 161.042 207.144 161.438 208.404L160.43 208.8C160.052 207.882 159.17 207.396 157.946 207.396C156.614 207.396 155.75 207.954 155.75 208.836C155.75 209.628 156.272 210.114 157.406 210.348L158.666 210.6C160.754 211.014 161.726 211.914 161.726 213.336C161.726 214.992 160.25 216.144 158.126 216.144C156.2 216.144 154.85 215.388 154.202 213.948L155.246 213.516C155.696 214.524 156.686 215.064 158.09 215.064C159.566 215.064 160.538 214.416 160.538 213.444C160.538 212.544 160.034 212.058 158.774 211.788L157.226 211.464C155.48 211.104 154.562 210.222 154.562 208.944ZM165.668 213.624C165.668 214.74 166.334 215.064 166.928 215.064C167.504 215.064 167.882 214.848 168.332 214.38L168.98 215.1C168.35 215.838 167.666 216.144 166.82 216.144C165.524 216.144 164.444 215.28 164.444 213.588V207.468H162.644V206.46H164.444V204.408L165.668 203.688V206.46H168.764V207.468H165.668V213.624ZM173.963 216.144C171.605 216.144 169.715 214.2 169.715 211.212C169.715 208.26 171.587 206.316 173.963 206.316C176.339 206.316 178.211 208.26 178.211 211.212C178.211 214.2 176.321 216.144 173.963 216.144ZM173.963 215.064C175.601 215.064 176.951 213.768 176.951 211.212C176.951 208.674 175.583 207.396 173.963 207.396C172.343 207.396 170.975 208.674 170.975 211.212C170.975 213.768 172.325 215.064 173.963 215.064ZM191.951 206.46H193.175L189.935 216H188.819L186.209 208.188L183.527 216H182.411L179.171 206.46H180.467L183.005 214.506L185.651 206.46H186.803L189.449 214.47L191.951 206.46ZM194.28 208.944C194.28 207.432 195.702 206.316 197.7 206.316C199.428 206.316 200.76 207.144 201.156 208.404L200.148 208.8C199.77 207.882 198.888 207.396 197.664 207.396C196.332 207.396 195.468 207.954 195.468 208.836C195.468 209.628 195.99 210.114 197.124 210.348L198.384 210.6C200.472 211.014 201.444 211.914 201.444 213.336C201.444 214.992 199.968 216.144 197.844 216.144C195.918 216.144 194.568 215.388 193.92 213.948L194.964 213.516C195.414 214.524 196.404 215.064 197.808 215.064C199.284 215.064 200.256 214.416 200.256 213.444C200.256 212.544 199.752 212.058 198.492 211.788L196.944 211.464C195.198 211.104 194.28 210.222 194.28 208.944ZM216.627 207.468H214.575V207.81C215.043 208.386 215.295 209.106 215.295 209.808C215.295 211.554 214.035 213.336 211.353 213.336H210.939C209.859 213.336 209.085 213.75 209.085 214.38C209.085 214.866 209.463 215.208 210.255 215.208H214.125C215.673 215.208 216.465 215.964 216.465 217.152C216.465 219.042 214.287 220.032 211.605 220.032C209.193 220.032 207.519 219.258 206.943 217.584L207.933 217.134C208.599 218.7 210.003 219.006 211.605 219.006C213.585 219.006 215.241 218.412 215.241 217.26C215.241 216.72 214.953 216.324 214.089 216.324H209.985C208.653 216.324 207.861 215.694 207.861 214.704C207.861 213.858 208.563 213.12 209.733 212.814C208.473 212.31 207.771 210.978 207.771 209.808C207.771 208.098 209.049 206.316 211.569 206.316C212.559 206.316 213.315 206.64 213.891 207.126V206.46H216.627V207.468ZM211.551 212.328C213.243 212.328 214.089 211.158 214.089 209.808C214.089 208.476 213.243 207.36 211.551 207.36C209.841 207.36 208.977 208.494 208.977 209.808C208.977 211.14 209.841 212.328 211.551 212.328ZM224.724 216H223.608C223.464 215.478 223.356 214.848 223.356 214.128C222.87 215.244 221.628 216.144 220.08 216.144C218.388 216.144 217.11 215.046 217.11 213.408C217.11 211.446 218.874 210.42 220.836 210.42C221.61 210.42 222.366 210.51 223.14 210.78V209.52C223.14 208.278 222.384 207.432 220.908 207.432C219.72 207.432 218.712 207.954 218.208 209.412L217.128 209.088C217.848 207.072 219.306 206.316 220.98 206.316C223.338 206.316 224.328 207.738 224.328 209.376V213.3C224.328 214.38 224.508 215.352 224.724 216ZM223.14 212.04V211.824C222.402 211.518 221.646 211.428 220.908 211.428C219.468 211.428 218.334 212.076 218.334 213.336C218.334 214.488 219.144 215.1 220.296 215.1C221.538 215.1 223.14 214.362 223.14 212.04ZM228.955 213.624C228.955 214.74 229.621 215.064 230.215 215.064C230.791 215.064 231.169 214.848 231.619 214.38L232.267 215.1C231.637 215.838 230.953 216.144 230.107 216.144C228.811 216.144 227.731 215.28 227.731 213.588V207.468H225.931V206.46H227.731V204.408L228.955 203.688V206.46H232.051V207.468H228.955V213.624ZM240.131 213.3L241.031 213.804C240.581 214.956 239.393 216.144 237.269 216.144C234.587 216.144 233.003 214.146 233.003 211.104C233.003 208.314 234.659 206.316 237.143 206.316C239.195 206.316 240.959 207.792 240.959 210.384L240.923 211.446H234.245C234.353 213.984 235.559 215.064 237.395 215.064C238.835 215.064 239.681 214.236 240.131 213.3ZM237.143 207.396C235.703 207.396 234.407 208.17 234.245 210.438H239.753C239.807 208.296 238.547 207.396 237.143 207.396ZM256.86 211.356V212.472H254.556V216H253.368V212.472H247.392V211.464L250.578 202.68H251.73L248.634 211.356H253.368V207.396L254.556 207.036V211.356H256.86ZM260.362 214.812H267.238V216H259.102V202.68H267.166V203.868H260.362V208.728H265.654V209.916H260.362V214.812Z"
      fill="#666666" />
    <path fill-rule="evenodd" clip-rule="evenodd"
      d="M428.73 219.587L423.176 214.033C424.44 212.483 425.2 210.506 425.2 208.35C425.2 203.38 421.17 199.35 416.2 199.35C411.23 199.35 407.2 203.38 407.2 208.35C407.2 213.32 411.23 217.35 416.2 217.35C418.475 217.35 420.546 216.5 422.131 215.108L427.67 220.646L428.73 219.587ZM416.2 215.85C412.064 215.85 408.7 212.486 408.7 208.35C408.7 204.215 412.064 200.85 416.2 200.85C420.335 200.85 423.7 204.215 423.7 208.35C423.7 212.486 420.335 215.85 416.2 215.85Z"
      fill="#2A2859" />
  </g>
  <defs>
    <clipPath id="clip0_6148_130518">
      <rect width="1116" height="328" fill="white" />
    </clipPath>
  </defs>
</svg>