<svg width="1424" height="176" viewBox="0 0 1424 176" fill="none" xmlns="http://www.w3.org/2000/svg">
  <rect width="1424" height="176" fill="white" />
  <rect x="65" y="65" width="350" height="46" fill="white" />
  <rect x="65" y="65" width="350" height="46" stroke="#F9C66B" stroke-width="2" />
  <path
    d="M89.332 84.208C89.332 81.976 91.366 80.536 93.724 80.536C95.902 80.536 97.378 81.472 98.044 83.146L96.856 83.632C96.316 82.354 95.11 81.652 93.724 81.652C91.888 81.652 90.592 82.588 90.592 84.064C90.592 85.306 91.33 86.062 92.896 86.368L94.984 86.764C97.036 87.16 98.548 88.258 98.548 90.256C98.548 92.308 96.82 94.144 93.904 94.144C91.6 94.144 89.872 93.352 88.936 91.372L90.088 90.904C90.988 92.668 92.482 93.028 93.94 93.028C96.118 93.028 97.288 91.768 97.288 90.328C97.288 88.726 96.208 88.258 94.588 87.952L92.68 87.592C90.826 87.25 89.332 86.224 89.332 84.208ZM107.158 85.18C108.22 86.026 108.904 87.43 108.904 89.212C108.904 92.2 107.014 94.144 104.656 94.144C103.99 94.144 103.36 93.982 102.802 93.694L102.208 94.864H101.344L102.154 93.28C101.092 92.434 100.408 91.012 100.408 89.212C100.408 86.26 102.28 84.316 104.656 84.316C105.322 84.316 105.952 84.478 106.51 84.748L107.104 83.596H107.968L107.158 85.18ZM101.668 89.212C101.668 90.598 102.064 91.606 102.676 92.254L106.006 85.738C105.592 85.504 105.142 85.396 104.656 85.396C103.036 85.396 101.668 86.674 101.668 89.212ZM104.656 93.064C106.294 93.064 107.644 91.768 107.644 89.212C107.644 87.844 107.248 86.854 106.636 86.206L103.306 92.722C103.702 92.956 104.17 93.064 104.656 93.064ZM117.131 94L113.621 89.266L112.451 90.382V94H111.227V80.68H112.451V88.942L116.987 84.46H118.607L114.449 88.456L118.679 94H117.131Z"
    fill="#666666" />
  <circle cx="440" cy="88" r="24" fill="#F9C66B" />
  <path fill-rule="evenodd" clip-rule="evenodd"
    d="M438.5 79C434.358 79 431 82.3579 431 86.5C431 90.6421 434.358 94 438.5 94C440.288 94 441.93 93.3743 443.219 92.33L447.889 97L449 95.8885L444.33 91.2186C445.374 89.9299 446 88.288 446 86.5C446 82.3579 442.642 79 438.5 79ZM438.5 80.4815C441.824 80.4815 444.519 83.1761 444.519 86.5C444.519 89.8239 441.824 92.5185 438.5 92.5185C435.176 92.5185 432.481 89.8239 432.481 86.5C432.485 83.1776 435.178 80.4852 438.5 80.4815Z"
    fill="#2A2859" />
  <rect x="513" y="65" width="342" height="46" fill="white" />
  <rect x="513" y="65" width="342" height="46" stroke="#2A2859" stroke-width="2" />
  <path
    d="M529.332 84.208C529.332 81.976 531.366 80.536 533.724 80.536C535.902 80.536 537.378 81.472 538.044 83.146L536.856 83.632C536.316 82.354 535.11 81.652 533.724 81.652C531.888 81.652 530.592 82.588 530.592 84.064C530.592 85.306 531.33 86.062 532.896 86.368L534.984 86.764C537.036 87.16 538.548 88.258 538.548 90.256C538.548 92.308 536.82 94.144 533.904 94.144C531.6 94.144 529.872 93.352 528.936 91.372L530.088 90.904C530.988 92.668 532.482 93.028 533.94 93.028C536.118 93.028 537.288 91.768 537.288 90.328C537.288 88.726 536.208 88.258 534.588 87.952L532.68 87.592C530.826 87.25 529.332 86.224 529.332 84.208ZM547.158 85.18C548.22 86.026 548.904 87.43 548.904 89.212C548.904 92.2 547.014 94.144 544.656 94.144C543.99 94.144 543.36 93.982 542.802 93.694L542.208 94.864H541.344L542.154 93.28C541.092 92.434 540.408 91.012 540.408 89.212C540.408 86.26 542.28 84.316 544.656 84.316C545.322 84.316 545.952 84.478 546.51 84.748L547.104 83.596H547.968L547.158 85.18ZM541.668 89.212C541.668 90.598 542.064 91.606 542.676 92.254L546.006 85.738C545.592 85.504 545.142 85.396 544.656 85.396C543.036 85.396 541.668 86.674 541.668 89.212ZM544.656 93.064C546.294 93.064 547.644 91.768 547.644 89.212C547.644 87.844 547.248 86.854 546.636 86.206L543.306 92.722C543.702 92.956 544.17 93.064 544.656 93.064ZM557.131 94L553.621 89.266L552.451 90.382V94H551.227V80.68H552.451V88.942L556.987 84.46H558.607L554.449 88.456L558.679 94H557.131Z"
    fill="#666666" />
  <rect width="48" height="48" transform="translate(864 64)" fill="#2A2859" />
  <path fill-rule="evenodd" clip-rule="evenodd"
    d="M898.73 97.5865L893.176 92.0327C894.44 90.4832 895.2 88.5062 895.2 86.35C895.2 81.3797 891.17 77.35 886.2 77.35C881.23 77.35 877.2 81.3797 877.2 86.35C877.2 91.3202 881.23 95.35 886.2 95.35C888.475 95.35 890.546 94.4995 892.131 93.1075L897.67 98.6462L898.73 97.5865ZM886.2 93.85C882.064 93.85 878.7 90.4855 878.7 86.35C878.7 82.2145 882.064 78.85 886.2 78.85C890.335 78.85 893.7 82.2145 893.7 86.35C893.7 90.4862 890.335 93.85 886.2 93.85Z"
    fill="white" />
  <rect x="961" y="65" width="398" height="46" fill="white" />
  <rect x="961" y="65" width="398" height="46" stroke="#2A2859" stroke-width="2" />
  <path
    d="M985.332 84.208C985.332 81.976 987.366 80.536 989.724 80.536C991.902 80.536 993.378 81.472 994.044 83.146L992.856 83.632C992.316 82.354 991.11 81.652 989.724 81.652C987.888 81.652 986.592 82.588 986.592 84.064C986.592 85.306 987.33 86.062 988.896 86.368L990.984 86.764C993.036 87.16 994.548 88.258 994.548 90.256C994.548 92.308 992.82 94.144 989.904 94.144C987.6 94.144 985.872 93.352 984.936 91.372L986.088 90.904C986.988 92.668 988.482 93.028 989.94 93.028C992.118 93.028 993.288 91.768 993.288 90.328C993.288 88.726 992.208 88.258 990.588 87.952L988.68 87.592C986.826 87.25 985.332 86.224 985.332 84.208ZM1003.16 85.18C1004.22 86.026 1004.9 87.43 1004.9 89.212C1004.9 92.2 1003.01 94.144 1000.66 94.144C999.99 94.144 999.36 93.982 998.802 93.694L998.208 94.864H997.344L998.154 93.28C997.092 92.434 996.408 91.012 996.408 89.212C996.408 86.26 998.28 84.316 1000.66 84.316C1001.32 84.316 1001.95 84.478 1002.51 84.748L1003.1 83.596H1003.97L1003.16 85.18ZM997.668 89.212C997.668 90.598 998.064 91.606 998.676 92.254L1002.01 85.738C1001.59 85.504 1001.14 85.396 1000.66 85.396C999.036 85.396 997.668 86.674 997.668 89.212ZM1000.66 93.064C1002.29 93.064 1003.64 91.768 1003.64 89.212C1003.64 87.844 1003.25 86.854 1002.64 86.206L999.306 92.722C999.702 92.956 1000.17 93.064 1000.66 93.064ZM1013.13 94L1009.62 89.266L1008.45 90.382V94H1007.23V80.68H1008.45V88.942L1012.99 84.46H1014.61L1010.45 88.456L1014.68 94H1013.13Z"
    fill="#666666" />
  <path fill-rule="evenodd" clip-rule="evenodd"
    d="M1342.73 97.5865L1337.18 92.0327C1338.44 90.4832 1339.2 88.5062 1339.2 86.35C1339.2 81.3797 1335.17 77.35 1330.2 77.35C1325.23 77.35 1321.2 81.3797 1321.2 86.35C1321.2 91.3202 1325.23 95.35 1330.2 95.35C1332.47 95.35 1334.55 94.4995 1336.13 93.1075L1341.67 98.6462L1342.73 97.5865ZM1330.2 93.85C1326.06 93.85 1322.7 90.4855 1322.7 86.35C1322.7 82.2145 1326.06 78.85 1330.2 78.85C1334.34 78.85 1337.7 82.2145 1337.7 86.35C1337.7 90.4862 1334.34 93.85 1330.2 93.85Z"
    fill="#2A2859" />
</svg>