<svg width="889" height="969" viewBox="0 0 889 969" fill="none" xmlns="http://www.w3.org/2000/svg">
  <rect width="889" height="969" fill="#F2F2F2" />
  <g clip-path="url(#clip0_6152_1919)">
    <rect x="248" y="69" width="393" height="831" rx="40" fill="white" />
    <rect x="247.5" y="64" width="390" height="95" fill="white" />
    <mask id="path-3-inside-1_6152_1919" fill="white">
      <path d="M248 89H641V159H248V89Z" />
    </mask>
    <path d="M248 89H641V159H248V89Z" fill="white" />
    <path d="M641 158H248V160H641V158Z" fill="#F2F2F2" mask="url(#path-3-inside-1_6152_1919)" />
    <path
      d="M298.429 109.548L297.722 109.109C296.645 108.4 295.501 107.792 294.29 107.286C293.785 107.083 293.28 106.881 292.775 106.712C291.563 106.306 290.285 105.969 289.039 105.766C288.501 105.699 287.962 105.631 287.39 105.564C286.111 105.462 284.799 105.462 283.52 105.564C282.981 105.597 282.409 105.665 281.871 105.766C280.592 105.969 279.347 106.273 278.101 106.712C277.597 106.881 277.092 107.083 276.587 107.286C275.409 107.792 274.265 108.4 273.154 109.109L272.447 109.548L268.981 102.896L269.587 102.525C270.765 101.782 271.976 101.14 273.221 100.6L273.861 100.296L275.106 102.694C275.476 102.558 275.813 102.423 276.183 102.288L275.544 99.6545L276.217 99.4182C277.529 99.013 278.842 98.6753 280.188 98.439L280.895 98.3039L281.534 100.938L281.736 100.904C282.039 100.87 282.376 100.836 282.679 100.803V98.1013L283.385 98.0675C284.058 98.0338 284.765 98 285.438 98C286.111 98 286.818 98.0338 287.491 98.0675L288.198 98.1013V100.803C288.568 100.836 288.938 100.87 289.342 100.938L289.982 98.3039L290.688 98.439C292.035 98.6753 293.381 99.013 294.66 99.4182L295.333 99.6545L294.693 102.288C295.064 102.423 295.4 102.558 295.77 102.694L297.016 100.296L297.655 100.6C298.9 101.174 300.112 101.816 301.29 102.525L301.896 102.896L298.429 109.548ZM271 103.47L273.053 107.387C273.996 106.813 274.972 106.34 275.981 105.901H276.015C276.553 105.665 277.092 105.462 277.63 105.294C278.943 104.855 280.289 104.483 281.635 104.281C282.207 104.179 282.779 104.112 283.385 104.078C284.765 103.977 286.145 103.977 287.525 104.078C288.097 104.145 288.703 104.213 289.275 104.281C290.621 104.483 291.967 104.821 293.28 105.26C293.818 105.462 294.357 105.665 294.895 105.868C295.905 106.306 296.881 106.813 297.857 107.353L299.91 103.436C299.203 103.031 298.463 102.626 297.722 102.288L296.477 104.652L295.838 104.382L295.568 104.281C294.929 104.01 294.256 103.74 293.583 103.538L292.91 103.301L293.549 100.701C292.741 100.465 291.967 100.262 291.16 100.094L290.52 102.694L289.813 102.592C289.006 102.457 288.198 102.356 287.424 102.288L286.717 102.221V99.5532C285.909 99.5195 285.068 99.5195 284.26 99.5532V102.221L283.554 102.288C283.015 102.322 282.51 102.39 282.005 102.457C281.736 102.491 281.433 102.525 281.164 102.592L280.457 102.694L279.818 100.094C279.01 100.262 278.202 100.465 277.428 100.701L278.068 103.301L277.395 103.538C276.722 103.774 276.048 104.01 275.409 104.281L275.14 104.382L274.5 104.652L273.255 102.288C272.447 102.626 271.707 103.031 271 103.47Z"
      fill="#2A2859" />
    <path
      d="M285.438 150C273.592 150 264 140.377 264 128.525C264 116.673 273.592 107.016 285.405 107.016C297.217 107.016 306.843 116.639 306.843 128.491C306.843 134.197 304.588 139.668 300.583 143.719C296.578 147.738 291.092 150 285.438 150ZM285.438 108.603C274.467 108.603 265.582 117.517 265.582 128.491C265.582 139.465 274.467 148.413 285.405 148.413C296.376 148.413 305.261 139.499 305.261 128.525C305.261 123.257 303.174 118.192 299.439 114.444C295.737 110.696 290.688 108.569 285.438 108.603Z"
      fill="#2A2859" />
    <path
      d="M281.299 122.379C279.616 120.117 280.087 116.875 282.342 115.187C284.597 113.499 287.828 113.971 289.51 116.234C290.857 118.057 290.857 120.556 289.51 122.379L290.655 123.223C291.496 122.109 291.967 120.725 291.967 119.306C291.967 115.694 289.039 112.756 285.438 112.756C281.837 112.756 278.909 115.694 278.909 119.306C278.909 120.725 279.38 122.109 280.222 123.223L281.299 122.379Z"
      fill="#2A2859" />
    <path
      d="M285.405 123.932C286.818 123.932 287.962 122.784 287.962 121.366V121.096H288.804V119.475C288.804 117.584 287.289 116.065 285.405 116.065C283.52 116.065 282.005 117.584 282.005 119.475V121.096H282.847V121.366C282.847 122.784 283.991 123.932 285.405 123.932ZM283.419 119.509C283.419 118.395 284.294 117.517 285.405 117.517C286.515 117.517 287.39 118.395 287.39 119.509V121.13H286.784V121.4C286.818 122.177 286.246 122.818 285.472 122.852C284.698 122.886 284.058 122.312 284.025 121.535C284.025 121.501 284.025 121.434 284.025 121.4V121.13H283.419V119.509Z"
      fill="#2A2859" />
    <path d="M272.75 129.47H270.798V131.462H272.75V129.47Z" fill="#2A2859" />
    <path
      d="M301.256 127.951V128.997H302.266L299.54 131.732V126.938L300.246 127.647L300.987 126.904L299.001 124.912L297.016 126.904L297.756 127.647L298.463 126.938V131.699L295.737 128.964H296.713V127.917H293.919V130.753H294.963V129.74L297.083 131.901H292.775L292.338 131.496L291.967 127.984C291.934 127.782 291.732 125.992 290.251 125.216H290.217L288.703 124.608L288.467 124.506L288.232 124.574C287.289 124.81 286.347 124.912 285.405 124.878C284.462 124.912 283.486 124.81 282.578 124.574L282.342 124.506L280.592 125.182H280.558C279.077 125.958 278.842 127.748 278.842 127.951L278.438 131.597L278.101 131.868H276.621C276.755 131.395 276.823 130.922 276.823 130.449C276.823 127.647 274.534 125.384 271.741 125.418C268.947 125.418 266.692 127.714 266.726 130.517C266.726 133.016 268.543 135.109 271 135.514H271.068C271.202 135.548 271.337 135.548 271.471 135.548L278.034 136.223C277.799 138.452 277.361 140.647 276.722 142.808L277.395 143.044L278.068 143.247C278.741 140.984 279.212 138.655 279.448 136.325L280.928 135.075L280.693 144.26L281.299 144.361C284.058 144.834 286.885 144.834 289.679 144.361L290.285 144.26L290.049 135.109L291.53 136.358C291.765 138.688 292.237 141.018 292.91 143.281L294.256 142.842C293.616 140.681 293.179 138.486 292.943 136.257L299.54 135.649V133.353L303.04 129.842V130.855H304.083V128.052L301.256 127.951ZM285.405 126.33C286.414 126.364 287.424 126.229 288.434 126.026L289.645 126.499C290.453 126.938 290.587 128.119 290.587 128.119L290.89 130.888H289.174C288.501 130.888 287.794 130.719 287.222 130.348C286.784 130.01 286.381 129.639 286.044 129.2L283.621 126.229C284.227 126.296 284.832 126.33 285.405 126.33ZM271.774 134.13H271.606L271.236 134.096C269.25 133.792 267.87 131.901 268.207 129.909C268.51 127.917 270.394 126.532 272.38 126.87C274.366 127.174 275.746 129.065 275.409 131.057C275.106 132.813 273.558 134.13 271.774 134.13ZM280.962 133.151L278.943 134.873L274.904 134.468C275.308 134.13 275.678 133.758 275.981 133.319H278.64L280.996 131.327L280.962 133.151ZM281.063 129.436L280.02 130.314L280.255 128.153V128.119C280.255 128.119 280.356 126.938 281.198 126.499L281.871 126.229L283.082 127.714L281.063 129.436ZM285.438 143.281C284.328 143.281 283.217 143.213 282.14 143.044L282.207 140.039L282.443 130.112L283.957 128.829L284.967 130.078C285.405 130.652 285.943 131.158 286.515 131.564C287.121 131.935 287.828 132.171 288.535 132.273L288.804 143.044C287.693 143.179 286.549 143.247 285.438 143.281ZM298.126 134.299L292.035 134.873L289.006 132.306H291.227L292.371 133.319H298.16L298.126 134.299Z"
      fill="#2A2859" />
    <path
      d="M326.106 136.153C330.064 136.153 333.292 132.958 333.292 127.634C333.292 122.487 330.064 119.337 326.106 119.337C322.126 119.337 318.898 122.487 318.898 127.634C318.898 132.958 322.126 136.153 326.106 136.153ZM326.106 134.289C323.32 134.289 320.954 132.071 320.954 127.634C320.954 123.197 323.232 121.201 326.106 121.201C328.958 121.201 331.236 123.197 331.236 127.634C331.236 132.071 328.87 134.289 326.106 134.289Z"
      fill="#2A2859" />
    <path
      d="M335.902 127.324C335.902 128.943 337.074 130.052 339.241 130.496L341.253 130.895C342.602 131.184 343.177 131.716 343.177 132.692C343.177 133.801 342.049 134.533 340.369 134.533C338.71 134.533 337.538 133.89 336.941 132.692L335.482 133.469C336.322 135.199 338.025 136.131 340.413 136.131C343.155 136.131 345.012 134.689 345.012 132.581C345.012 130.806 343.796 129.675 341.253 129.165L339.551 128.832C338.29 128.566 337.737 128.056 337.737 127.19C337.737 126.192 338.732 125.593 340.236 125.593C341.673 125.593 342.735 126.17 343.221 127.213L344.658 126.481C344.039 124.928 342.447 123.974 340.28 123.974C337.693 123.974 335.902 125.416 335.902 127.324Z"
      fill="#2A2859" />
    <path
      d="M352.033 135.909V134.267C351.789 134.334 351.546 134.356 351.325 134.356C350.396 134.356 349.844 133.868 349.844 132.847V119.537H347.942V132.936C347.942 134.844 348.893 136.064 350.883 136.064C351.281 136.064 351.635 135.998 352.033 135.909Z"
      fill="#2A2859" />
    <path
      d="M359.294 136.153C362.235 136.153 364.645 133.757 364.645 130.03C364.645 126.37 362.257 123.974 359.294 123.974C356.309 123.974 353.921 126.37 353.921 130.03C353.921 133.757 356.331 136.153 359.294 136.153ZM359.294 134.489C357.415 134.489 355.889 133.025 355.889 130.03C355.889 127.035 357.437 125.637 359.294 125.637C361.129 125.637 362.677 127.035 362.677 130.03C362.677 133.025 361.152 134.489 359.294 134.489Z"
      fill="#2A2859" />
    <circle cx="553" cy="124" r="24" fill="#F9C66B" />
    <path fill-rule="evenodd" clip-rule="evenodd"
      d="M551.5 115C547.358 115 544 118.358 544 122.5C544 126.642 547.358 130 551.5 130C553.288 130 554.93 129.374 556.219 128.33L560.889 133L562 131.889L557.33 127.219C558.374 125.93 559 124.288 559 122.5C559 118.358 555.642 115 551.5 115ZM551.5 116.481C554.824 116.481 557.519 119.176 557.519 122.5C557.519 125.824 554.824 128.519 551.5 128.519C548.176 128.519 545.481 125.824 545.481 122.5C545.485 119.178 548.178 116.485 551.5 116.481Z"
      fill="#2A2859" />
    <path d="M595 114H623V116H595V114Z" fill="#2A2859" />
    <path d="M595 123H623V125H595V123Z" fill="#2A2859" />
    <path d="M595 132H623V134H595V132Z" fill="#2A2859" />
    <path
      d="M279.116 231L271.808 221.228L269.456 223.748V231H266.964V210.28H269.456V220.584L279.004 210.28H282.14L273.432 219.52L282.252 231H279.116ZM289.32 231.252C285.568 231.252 282.516 228.228 282.516 223.524C282.516 218.904 285.54 215.88 289.32 215.88C293.072 215.88 296.096 218.904 296.096 223.524C296.096 228.228 293.044 231.252 289.32 231.252ZM289.32 229.152C291.672 229.152 293.604 227.304 293.604 223.524C293.604 219.744 291.644 217.98 289.32 217.98C286.968 217.98 285.008 219.744 285.008 223.524C285.008 227.304 286.94 229.152 289.32 229.152ZM315.075 215.88C317.959 215.88 319.639 217.728 319.639 220.836V231H317.231V221.2C317.231 218.988 316.167 218.036 314.375 218.036C311.939 218.036 310.847 219.828 310.847 222.768V231H308.439V221.2C308.439 218.988 307.375 218.036 305.555 218.036C303.147 218.036 302.055 219.828 302.055 222.768V231H299.647V216.16H302.055V218.372C303.007 216.748 304.491 215.88 306.283 215.88C308.495 215.88 310.007 216.972 310.567 218.876C311.491 216.916 313.143 215.88 315.075 215.88ZM339.457 215.88C342.341 215.88 344.021 217.728 344.021 220.836V231H341.613V221.2C341.613 218.988 340.549 218.036 338.757 218.036C336.321 218.036 335.229 219.828 335.229 222.768V231H332.821V221.2C332.821 218.988 331.757 218.036 329.937 218.036C327.529 218.036 326.437 219.828 326.437 222.768V231H324.029V216.16H326.437V218.372C327.389 216.748 328.873 215.88 330.665 215.88C332.877 215.88 334.389 216.972 334.949 218.876C335.873 216.916 337.525 215.88 339.457 215.88ZM357.037 216.16H359.445V231H357.037V228.76C356.141 230.356 354.573 231.224 352.753 231.224C349.785 231.224 348.021 229.32 348.021 226.1V216.16H350.429V225.82C350.429 228.032 351.549 229.124 353.481 229.124C355.917 229.124 357.037 227.248 357.037 224.336V216.16ZM370.545 215.88C373.541 215.88 375.305 217.756 375.305 221.06V231H372.897V221.424C372.897 218.988 371.777 218.036 369.845 218.036C367.409 218.036 366.233 219.856 366.233 222.768V231H363.825V216.16H366.233V218.372C367.185 216.776 368.725 215.88 370.545 215.88ZM391.127 231H388.915C388.691 230.216 388.523 229.292 388.523 228.144C387.767 229.796 386.003 231.252 383.539 231.252C380.879 231.252 378.919 229.488 378.919 226.912C378.919 223.748 381.691 222.152 384.827 222.152C385.947 222.152 387.039 222.264 388.159 222.628V220.948C388.159 219.156 387.067 217.952 384.939 217.952C383.175 217.952 381.747 218.82 381.047 220.864L378.975 220.22C380.067 217.084 382.447 215.88 385.079 215.88C388.859 215.88 390.511 218.148 390.511 220.808V226.772C390.511 228.48 390.791 230.02 391.127 231ZM388.159 224.868V224.504C387.123 224.084 386.059 223.972 385.023 223.972C382.923 223.972 381.299 224.924 381.299 226.744C381.299 228.368 382.447 229.292 384.127 229.292C385.891 229.292 388.159 228.228 388.159 224.868ZM400.187 230.944C399.683 231.056 399.235 231.14 398.731 231.14C396.211 231.14 395.007 229.6 395.007 227.192V210.28H397.415V227.08C397.415 228.368 398.115 228.984 399.291 228.984C399.571 228.984 399.879 228.956 400.187 228.872V230.944ZM413.146 226.604L414.854 227.556C414.07 229.404 412.194 231.252 408.862 231.252C404.578 231.252 402.03 228.06 402.03 223.412C402.03 218.988 404.746 215.88 408.638 215.88C411.942 215.88 414.77 218.204 414.77 222.32L414.714 224.028H404.438C404.606 227.668 406.37 229.208 409.058 229.208C411.102 229.208 412.418 228.032 413.146 226.604ZM408.638 217.896C406.538 217.896 404.718 218.988 404.438 222.152H412.418C412.446 219.156 410.626 217.896 408.638 217.896ZM430.649 230.944C430.145 231.056 429.697 231.14 429.193 231.14C426.673 231.14 425.469 229.6 425.469 227.192V210.28H427.877V227.08C427.877 228.368 428.577 228.984 429.753 228.984C430.033 228.984 430.341 228.956 430.649 228.872V230.944ZM439.297 231.252C435.545 231.252 432.493 228.228 432.493 223.524C432.493 218.904 435.517 215.88 439.297 215.88C443.049 215.88 446.073 218.904 446.073 223.524C446.073 228.228 443.021 231.252 439.297 231.252ZM439.297 229.152C441.649 229.152 443.581 227.304 443.581 223.524C443.581 219.744 441.621 217.98 439.297 217.98C436.945 217.98 434.985 219.744 434.985 223.524C434.985 227.304 436.917 229.152 439.297 229.152ZM458.92 231L453.824 223.86L452.06 225.596V231H449.652V210.28H452.06V222.824L458.696 216.16H461.748L455.448 222.292L461.86 231H458.92ZM475.149 231H472.937C472.713 230.216 472.545 229.292 472.545 228.144C471.789 229.796 470.025 231.252 467.561 231.252C464.901 231.252 462.941 229.488 462.941 226.912C462.941 223.748 465.713 222.152 468.849 222.152C469.969 222.152 471.061 222.264 472.181 222.628V220.948C472.181 219.156 471.089 217.952 468.961 217.952C467.197 217.952 465.769 218.82 465.069 220.864L462.997 220.22C464.089 217.084 466.469 215.88 469.101 215.88C472.881 215.88 474.533 218.148 474.533 220.808V226.772C474.533 228.48 474.813 230.02 475.149 231ZM472.181 224.868V224.504C471.145 224.084 470.081 223.972 469.045 223.972C466.945 223.972 465.321 224.924 465.321 226.744C465.321 228.368 466.469 229.292 468.149 229.292C469.913 229.292 472.181 228.228 472.181 224.868ZM484.209 230.944C483.705 231.056 483.257 231.14 482.753 231.14C480.233 231.14 479.029 229.6 479.029 227.192V210.28H481.437V227.08C481.437 228.368 482.137 228.984 483.313 228.984C483.593 228.984 483.901 228.956 484.209 228.872V230.944ZM497.168 226.604L498.876 227.556C498.092 229.404 496.216 231.252 492.884 231.252C488.6 231.252 486.052 228.06 486.052 223.412C486.052 218.988 488.768 215.88 492.66 215.88C495.964 215.88 498.792 218.204 498.792 222.32L498.736 224.028H488.46C488.628 227.668 490.392 229.208 493.08 229.208C495.124 229.208 496.44 228.032 497.168 226.604ZM492.66 217.896C490.56 217.896 488.74 218.988 488.46 222.152H496.44C496.468 219.156 494.648 217.896 492.66 217.896ZM508.463 215.88C510.479 215.88 511.879 217.224 511.879 219.772V221.424L509.807 221.816V220.332C509.807 218.904 509.331 217.952 507.847 217.952C506.167 217.952 504.935 219.128 504.935 222.068V231H502.527V216.16H504.935V218.064C505.747 216.552 507.147 215.88 508.463 215.88ZM525.806 226.94C525.806 228.648 526.842 229.152 527.794 229.152C528.662 229.152 529.278 228.816 529.95 228.116L531.098 229.6C530.062 230.748 528.914 231.224 527.486 231.224C525.246 231.224 523.398 229.796 523.398 226.996V218.092H520.682V216.16H523.398V212.912L525.806 211.68V216.16H530.79V218.092H525.806V226.94ZM535.26 213.556C534.196 213.556 533.356 212.744 533.356 211.652C533.356 210.588 534.196 209.776 535.26 209.776C536.296 209.776 537.136 210.588 537.136 211.652C537.136 212.744 536.296 213.556 535.26 213.556ZM534.056 231V216.16H536.464V231H534.056ZM546.255 230.944C545.751 231.056 545.303 231.14 544.799 231.14C542.279 231.14 541.075 229.6 541.075 227.192V210.28H543.483V227.08C543.483 228.368 544.183 228.984 545.359 228.984C545.639 228.984 545.947 228.956 546.255 228.872V230.944ZM561.659 230.944C561.155 231.056 560.707 231.14 560.203 231.14C557.683 231.14 556.479 229.6 556.479 227.192V210.28H558.887V227.08C558.887 228.368 559.587 228.984 560.763 228.984C561.043 228.984 561.351 228.956 561.659 228.872V230.944ZM570.325 214.676C568.421 214.676 566.881 213.304 566.881 211.4C566.881 209.524 568.421 208.152 570.325 208.152C572.201 208.152 573.741 209.524 573.741 211.4C573.741 213.304 572.201 214.676 570.325 214.676ZM570.325 209.58C569.289 209.58 568.477 210.224 568.477 211.4C568.477 212.632 569.289 213.248 570.325 213.248C571.333 213.248 572.145 212.632 572.145 211.4C572.145 210.224 571.333 209.58 570.325 209.58ZM576.289 231H574.077C573.853 230.216 573.685 229.292 573.685 228.144C572.929 229.796 571.165 231.252 568.701 231.252C566.041 231.252 564.081 229.488 564.081 226.912C564.081 223.748 566.853 222.152 569.989 222.152C571.109 222.152 572.201 222.264 573.321 222.628V220.948C573.321 219.156 572.229 217.952 570.101 217.952C568.337 217.952 566.909 218.82 566.209 220.864L564.137 220.22C565.229 217.084 567.609 215.88 570.241 215.88C574.021 215.88 575.673 218.148 575.673 220.808V226.772C575.673 228.48 575.953 230.02 576.289 231ZM573.321 224.868V224.504C572.285 224.084 571.221 223.972 570.185 223.972C568.085 223.972 566.461 224.924 566.461 226.744C566.461 228.368 567.609 229.292 569.289 229.292C571.053 229.292 573.321 228.228 573.321 224.868ZM586.944 215.88C589.94 215.88 591.704 217.756 591.704 221.06V231H589.296V221.424C589.296 218.988 588.176 218.036 586.244 218.036C583.808 218.036 582.632 219.856 582.632 222.768V231H580.224V216.16H582.632V218.372C583.584 216.776 585.124 215.88 586.944 215.88ZM272.704 273.252C268.952 273.252 265.9 270.228 265.9 265.524C265.9 260.904 268.924 257.88 272.704 257.88C276.456 257.88 279.48 260.904 279.48 265.524C279.48 270.228 276.428 273.252 272.704 273.252ZM272.704 271.152C275.056 271.152 276.988 269.304 276.988 265.524C276.988 261.744 275.028 259.98 272.704 259.98C270.352 259.98 268.392 261.744 268.392 265.524C268.392 269.304 270.324 271.152 272.704 271.152ZM295.985 260.092H292.849V260.54C293.465 261.352 293.801 262.332 293.801 263.34C293.801 266.028 291.813 268.772 287.585 268.772H286.885C285.289 268.772 284.169 269.36 284.169 270.312C284.169 271.012 284.729 271.516 285.821 271.516H291.925C294.389 271.516 295.705 272.748 295.705 274.652C295.705 277.648 292.429 279.272 287.949 279.272C283.945 279.272 281.229 278.124 280.389 275.408L282.545 274.736C283.441 276.92 285.401 277.396 287.977 277.396C291.001 277.396 293.353 276.528 293.353 274.904C293.353 274.148 292.961 273.588 291.729 273.588H285.205C283.021 273.588 281.817 272.496 281.817 270.928C281.817 269.528 283.021 268.352 284.841 267.932C282.853 267.092 281.789 265.104 281.789 263.312C281.789 260.652 283.833 257.88 287.837 257.88C289.489 257.88 290.777 258.468 291.645 259.28V258.16H295.985V260.092ZM287.837 266.924C290.273 266.924 291.449 265.216 291.449 263.312C291.449 261.436 290.273 259.812 287.837 259.812C285.373 259.812 284.169 261.436 284.169 263.312C284.169 265.216 285.373 266.924 287.837 266.924ZM310.807 272.944C310.303 273.056 309.855 273.14 309.351 273.14C306.831 273.14 305.627 271.6 305.627 269.192V252.28H308.035V269.08C308.035 270.368 308.735 270.984 309.911 270.984C310.191 270.984 310.499 270.956 310.807 270.872V272.944ZM323.767 268.604L325.475 269.556C324.691 271.404 322.815 273.252 319.483 273.252C315.199 273.252 312.651 270.06 312.651 265.412C312.651 260.988 315.367 257.88 319.259 257.88C322.563 257.88 325.391 260.204 325.391 264.32L325.335 266.028H315.059C315.227 269.668 316.991 271.208 319.679 271.208C321.723 271.208 323.039 270.032 323.767 268.604ZM319.259 259.896C317.159 259.896 315.339 260.988 315.059 264.152H323.039C323.067 261.156 321.247 259.896 319.259 259.896ZM328.677 252.112H331.981V255.36H328.677V252.112ZM329.125 273V258.16H331.533V273H329.125ZM346.308 268.604L348.016 269.556C347.232 271.404 345.356 273.252 342.024 273.252C337.74 273.252 335.192 270.06 335.192 265.412C335.192 260.988 337.908 257.88 341.8 257.88C345.104 257.88 347.932 260.204 347.932 264.32L347.876 266.028H337.6C337.768 269.668 339.532 271.208 342.22 271.208C344.264 271.208 345.58 270.032 346.308 268.604ZM341.8 259.896C339.7 259.896 337.88 260.988 337.6 264.152H345.58C345.608 261.156 343.788 259.896 341.8 259.896ZM359.835 255.556C358.771 255.556 357.931 254.744 357.931 253.652C357.931 252.588 358.771 251.776 359.835 251.776C360.871 251.776 361.711 252.588 361.711 253.652C361.711 254.744 360.871 255.556 359.835 255.556ZM358.631 273V258.16H361.039V273H358.631ZM380.762 273.252C375.722 273.252 371.634 269.22 371.634 262.5C371.634 256.004 375.722 252.028 380.762 252.028C385.774 252.028 389.862 256.004 389.862 262.5C389.862 269.22 385.774 273.252 380.762 273.252ZM380.762 270.9C384.262 270.9 387.258 268.1 387.258 262.5C387.258 256.9 384.374 254.38 380.762 254.38C377.122 254.38 374.238 256.9 374.238 262.5C374.238 268.1 377.234 270.9 380.762 270.9ZM392.412 262.108C392.412 259.7 394.68 257.88 397.956 257.88C400.7 257.88 402.716 259.084 403.5 261.044L401.68 261.968C401.064 260.652 399.72 259.924 397.9 259.924C395.996 259.924 394.736 260.68 394.736 261.94C394.736 263.032 395.436 263.676 397.032 264.012L399.188 264.432C402.408 265.076 403.948 266.504 403.948 268.744C403.948 271.404 401.596 273.224 398.124 273.224C395.1 273.224 392.944 272.048 391.88 269.864L393.728 268.884C394.484 270.396 395.968 271.208 398.068 271.208C400.196 271.208 401.624 270.284 401.624 268.884C401.624 267.652 400.896 266.98 399.188 266.616L396.64 266.112C393.896 265.552 392.412 264.152 392.412 262.108ZM412.558 272.944C412.054 273.056 411.606 273.14 411.102 273.14C408.582 273.14 407.378 271.6 407.378 269.192V252.28H409.786V269.08C409.786 270.368 410.486 270.984 411.662 270.984C411.942 270.984 412.25 270.956 412.558 270.872V272.944ZM421.206 273.252C417.454 273.252 414.402 270.228 414.402 265.524C414.402 260.904 417.426 257.88 421.206 257.88C424.958 257.88 427.982 260.904 427.982 265.524C427.982 270.228 424.93 273.252 421.206 273.252ZM421.206 271.152C423.558 271.152 425.49 269.304 425.49 265.524C425.49 261.744 423.53 259.98 421.206 259.98C418.854 259.98 416.894 261.744 416.894 265.524C416.894 269.304 418.826 271.152 421.206 271.152Z"
      fill="#2A2859" />
    <path
      d="M273.044 310.16H274.164V322H273.044V316.56H267.028V322H265.908V310.16H267.028V315.504H273.044V310.16ZM282.546 319.6L283.346 320.048C282.946 321.072 281.89 322.128 280.002 322.128C277.618 322.128 276.21 320.352 276.21 317.648C276.21 315.168 277.682 313.392 279.89 313.392C281.714 313.392 283.282 314.704 283.282 317.008L283.25 317.952H277.314C277.41 320.208 278.482 321.168 280.114 321.168C281.394 321.168 282.146 320.432 282.546 319.6ZM279.89 314.352C278.61 314.352 277.458 315.04 277.314 317.056H282.21C282.258 315.152 281.138 314.352 279.89 314.352ZM288.422 313.392C289.526 313.392 290.326 314.128 290.326 315.568V316.4L289.334 316.592V315.76C289.334 314.912 289.046 314.352 288.182 314.352C287.206 314.352 286.47 315.072 286.47 316.784V322H285.382V313.52H286.47V314.576C286.918 313.776 287.67 313.392 288.422 313.392ZM296.778 322V314.416H295.178V313.52H296.778V312.4C296.778 310.88 297.738 310.032 299.05 310.032C299.61 310.032 300.09 310.224 300.378 310.48L299.978 311.28C299.69 311.088 299.418 310.96 299.018 310.96C298.458 310.96 297.866 311.296 297.866 312.336V313.52H300.234V314.416H297.866V322H296.778ZM301.92 311.984C301.392 311.984 300.96 311.568 300.96 311.024C300.96 310.48 301.392 310.064 301.92 310.064C302.448 310.064 302.88 310.48 302.88 311.024C302.88 311.568 302.448 311.984 301.92 311.984ZM301.376 322V313.52H302.464V322H301.376ZM308.572 313.392C310.268 313.392 311.26 314.432 311.26 316.336V322H310.172V316.496C310.172 314.96 309.468 314.384 308.284 314.384C306.796 314.384 306.108 315.536 306.108 317.232V322H305.02V313.52H306.108V314.832C306.62 313.904 307.548 313.392 308.572 313.392ZM317.231 313.392C318.927 313.392 319.919 314.432 319.919 316.336V322H318.831V316.496C318.831 314.96 318.127 314.384 316.943 314.384C315.455 314.384 314.767 315.536 314.767 317.232V322H313.679V313.52H314.767V314.832C315.279 313.904 316.207 313.392 317.231 313.392ZM328.131 319.6L328.931 320.048C328.531 321.072 327.475 322.128 325.587 322.128C323.203 322.128 321.795 320.352 321.795 317.648C321.795 315.168 323.267 313.392 325.475 313.392C327.299 313.392 328.867 314.704 328.867 317.008L328.835 317.952H322.899C322.995 320.208 324.067 321.168 325.699 321.168C326.979 321.168 327.731 320.432 328.131 319.6ZM325.475 314.352C324.195 314.352 323.043 315.04 322.899 317.056H327.795C327.843 315.152 326.723 314.352 325.475 314.352ZM334.007 313.392C335.111 313.392 335.911 314.128 335.911 315.568V316.4L334.919 316.592V315.76C334.919 314.912 334.631 314.352 333.767 314.352C332.791 314.352 332.055 315.072 332.055 316.784V322H330.967V313.52H332.055V314.576C332.503 313.776 333.255 313.392 334.007 313.392ZM347.61 310.16H348.698V322H347.61V320.416C347.05 321.504 345.93 322.112 344.826 322.112C342.666 322.112 341.21 320.304 341.21 317.84C341.21 315.232 342.682 313.392 344.954 313.392C346.138 313.392 347.098 313.984 347.61 315.056V310.16ZM344.938 321.152C346.634 321.152 347.61 319.888 347.61 317.808C347.61 315.6 346.65 314.352 344.954 314.352C343.37 314.352 342.33 315.568 342.33 317.792C342.33 319.936 343.37 321.152 344.938 321.152ZM356.107 313.52H357.195V322H356.107V320.704C355.595 321.616 354.699 322.128 353.659 322.128C351.995 322.128 350.987 321.056 350.987 319.216V313.52H352.075V319.12C352.075 320.512 352.779 321.152 353.963 321.152C355.467 321.152 356.107 319.952 356.107 318.288V313.52ZM364.184 322V314.416H362.584V313.52H364.184V312.4C364.184 310.88 365.144 310.032 366.456 310.032C367.016 310.032 367.496 310.224 367.784 310.48L367.384 311.28C367.096 311.088 366.824 310.96 366.424 310.96C365.864 310.96 365.272 311.296 365.272 312.336V313.52H367.64V314.416H365.272V322H364.184ZM371.751 321.968C371.495 322.032 371.287 322.064 371.047 322.064C369.719 322.064 369.095 321.232 369.095 319.984V310.16H370.183V319.984C370.183 320.704 370.567 321.072 371.239 321.072C371.415 321.072 371.591 321.056 371.751 321.008V321.968ZM379.077 319.6L379.877 320.048C379.477 321.072 378.421 322.128 376.533 322.128C374.149 322.128 372.741 320.352 372.741 317.648C372.741 315.168 374.213 313.392 376.421 313.392C378.245 313.392 379.813 314.704 379.813 317.008L379.781 317.952H373.845C373.941 320.208 375.013 321.168 376.645 321.168C377.925 321.168 378.677 320.432 379.077 319.6ZM376.421 314.352C375.141 314.352 373.989 315.04 373.845 317.056H378.741C378.789 315.152 377.669 314.352 376.421 314.352ZM384.953 313.392C386.057 313.392 386.857 314.128 386.857 315.568V316.4L385.865 316.592V315.76C385.865 314.912 385.577 314.352 384.713 314.352C383.737 314.352 383.001 315.072 383.001 316.784V322H381.913V313.52H383.001V314.576C383.449 313.776 384.201 313.392 384.953 313.392ZM394.115 319.6L394.915 320.048C394.515 321.072 393.459 322.128 391.571 322.128C389.187 322.128 387.779 320.352 387.779 317.648C387.779 315.168 389.251 313.392 391.459 313.392C393.283 313.392 394.851 314.704 394.851 317.008L394.819 317.952H388.883C388.979 320.208 390.051 321.168 391.683 321.168C392.963 321.168 393.715 320.432 394.115 319.6ZM391.459 314.352C390.179 314.352 389.027 315.04 388.883 317.056H393.779C393.827 315.152 392.707 314.352 391.459 314.352ZM407.165 322H406.173C406.045 321.536 405.949 320.976 405.949 320.336C405.517 321.328 404.413 322.128 403.037 322.128C401.533 322.128 400.397 321.152 400.397 319.696C400.397 317.952 401.965 317.04 403.709 317.04C404.397 317.04 405.069 317.12 405.757 317.36V316.24C405.757 315.136 405.085 314.384 403.773 314.384C402.717 314.384 401.821 314.848 401.373 316.144L400.413 315.856C401.053 314.064 402.349 313.392 403.837 313.392C405.933 313.392 406.813 314.656 406.813 316.112V319.6C406.813 320.56 406.973 321.424 407.165 322ZM405.757 318.48V318.288C405.101 318.016 404.429 317.936 403.773 317.936C402.493 317.936 401.485 318.512 401.485 319.632C401.485 320.656 402.205 321.2 403.229 321.2C404.333 321.2 405.757 320.544 405.757 318.48ZM414.459 313.52H415.579L412.251 322H411.291L407.963 313.52H409.147L411.803 320.8L414.459 313.52ZM423.588 321.968C423.332 322.032 423.124 322.064 422.884 322.064C421.556 322.064 420.932 321.232 420.932 319.984V310.16H422.02V319.984C422.02 320.704 422.404 321.072 423.076 321.072C423.252 321.072 423.428 321.056 423.588 321.008V321.968ZM428.355 322.128C426.259 322.128 424.579 320.4 424.579 317.744C424.579 315.12 426.243 313.392 428.355 313.392C430.467 313.392 432.131 315.12 432.131 317.744C432.131 320.4 430.451 322.128 428.355 322.128ZM428.355 321.168C429.811 321.168 431.011 320.016 431.011 317.744C431.011 315.488 429.795 314.352 428.355 314.352C426.915 314.352 425.699 315.488 425.699 317.744C425.699 320.016 426.899 321.168 428.355 321.168ZM439.422 322L436.302 317.792L435.262 318.784V322H434.174V310.16H435.262V317.504L439.294 313.52H440.734L437.038 317.072L440.798 322H439.422ZM448.105 322H447.113C446.985 321.536 446.889 320.976 446.889 320.336C446.457 321.328 445.353 322.128 443.977 322.128C442.473 322.128 441.337 321.152 441.337 319.696C441.337 317.952 442.905 317.04 444.649 317.04C445.337 317.04 446.009 317.12 446.697 317.36V316.24C446.697 315.136 446.025 314.384 444.713 314.384C443.657 314.384 442.761 314.848 442.313 316.144L441.353 315.856C441.993 314.064 443.289 313.392 444.777 313.392C446.873 313.392 447.753 314.656 447.753 316.112V319.6C447.753 320.56 447.913 321.424 448.105 322ZM446.697 318.48V318.288C446.041 318.016 445.369 317.936 444.713 317.936C443.433 317.936 442.425 318.512 442.425 319.632C442.425 320.656 443.145 321.2 444.169 321.2C445.273 321.2 446.697 320.544 446.697 318.48ZM452.96 321.968C452.704 322.032 452.496 322.064 452.256 322.064C450.928 322.064 450.304 321.232 450.304 319.984V310.16H451.392V319.984C451.392 320.704 451.776 321.072 452.448 321.072C452.624 321.072 452.8 321.056 452.96 321.008V321.968ZM460.287 319.6L461.087 320.048C460.687 321.072 459.631 322.128 457.743 322.128C455.359 322.128 453.951 320.352 453.951 317.648C453.951 315.168 455.423 313.392 457.631 313.392C459.455 313.392 461.023 314.704 461.023 317.008L460.991 317.952H455.055C455.151 320.208 456.223 321.168 457.855 321.168C459.135 321.168 459.887 320.432 460.287 319.6ZM457.631 314.352C456.351 314.352 455.199 315.04 455.055 317.056H459.951C459.999 315.152 458.879 314.352 457.631 314.352ZM466.675 313.392C468.371 313.392 469.363 314.432 469.363 316.336V322H468.275V316.496C468.275 314.96 467.571 314.384 466.387 314.384C464.899 314.384 464.211 315.536 464.211 317.232V322H463.123V313.52H464.211V314.832C464.723 313.904 465.651 313.392 466.675 313.392ZM477.574 319.6L478.374 320.048C477.974 321.072 476.918 322.128 475.03 322.128C472.646 322.128 471.238 320.352 471.238 317.648C471.238 315.168 472.71 313.392 474.918 313.392C476.742 313.392 478.31 314.704 478.31 317.008L478.278 317.952H472.342C472.438 320.208 473.51 321.168 475.142 321.168C476.422 321.168 477.174 320.432 477.574 319.6ZM474.918 314.352C473.638 314.352 472.486 315.04 472.342 317.056H477.238C477.286 315.152 476.166 314.352 474.918 314.352ZM486 319.888C486 320.88 486.592 321.168 487.12 321.168C487.632 321.168 487.968 320.976 488.368 320.56L488.944 321.2C488.384 321.856 487.776 322.128 487.024 322.128C485.872 322.128 484.912 321.36 484.912 319.856V314.416H483.312V313.52H484.912V311.696L486 311.056V313.52H488.752V314.416H486V319.888ZM491.148 311.984C490.62 311.984 490.188 311.568 490.188 311.024C490.188 310.48 490.62 310.064 491.148 310.064C491.676 310.064 492.108 310.48 492.108 311.024C492.108 311.568 491.676 311.984 491.148 311.984ZM490.604 322V313.52H491.692V322H490.604ZM496.904 321.968C496.648 322.032 496.44 322.064 496.2 322.064C494.872 322.064 494.248 321.232 494.248 319.984V310.16H495.336V319.984C495.336 320.704 495.72 321.072 496.392 321.072C496.568 321.072 496.744 321.056 496.904 321.008V321.968ZM507.126 322.128C504.31 322.128 502.006 319.808 502.006 316.016C502.006 312.288 504.31 310.032 507.126 310.032C509.942 310.032 512.246 312.288 512.246 316.016C512.246 319.808 509.942 322.128 507.126 322.128ZM507.126 321.072C509.27 321.072 511.094 319.36 511.094 316.016C511.094 312.608 509.334 311.088 507.126 311.088C504.918 311.088 503.158 312.608 503.158 316.016C503.158 319.36 504.982 321.072 507.126 321.072ZM513.654 315.728C513.654 314.384 514.918 313.392 516.694 313.392C518.23 313.392 519.414 314.128 519.766 315.248L518.87 315.6C518.534 314.784 517.75 314.352 516.662 314.352C515.478 314.352 514.71 314.848 514.71 315.632C514.71 316.336 515.174 316.768 516.182 316.976L517.302 317.2C519.158 317.568 520.022 318.368 520.022 319.632C520.022 321.104 518.71 322.128 516.822 322.128C515.11 322.128 513.91 321.456 513.334 320.176L514.262 319.792C514.662 320.688 515.542 321.168 516.79 321.168C518.102 321.168 518.966 320.592 518.966 319.728C518.966 318.928 518.518 318.496 517.398 318.256L516.022 317.968C514.47 317.648 513.654 316.864 513.654 315.728ZM524.619 321.968C524.363 322.032 524.155 322.064 523.915 322.064C522.587 322.064 521.963 321.232 521.963 319.984V310.16H523.051V319.984C523.051 320.704 523.435 321.072 524.107 321.072C524.283 321.072 524.459 321.056 524.619 321.008V321.968ZM529.386 322.128C527.29 322.128 525.61 320.4 525.61 317.744C525.61 315.12 527.274 313.392 529.386 313.392C531.498 313.392 533.162 315.12 533.162 317.744C533.162 320.4 531.482 322.128 529.386 322.128ZM529.386 321.168C530.842 321.168 532.042 320.016 532.042 317.744C532.042 315.488 530.826 314.352 529.386 314.352C527.946 314.352 526.73 315.488 526.73 317.744C526.73 320.016 527.93 321.168 529.386 321.168ZM544.347 322L541.227 317.792L540.187 318.784V322H539.099V310.16H540.187V317.504L544.219 313.52H545.659L541.963 317.072L545.723 322H544.347ZM549.942 322.128C547.846 322.128 546.166 320.4 546.166 317.744C546.166 315.12 547.83 313.392 549.942 313.392C552.054 313.392 553.718 315.12 553.718 317.744C553.718 320.4 552.038 322.128 549.942 322.128ZM549.942 321.168C551.398 321.168 552.598 320.016 552.598 317.744C552.598 315.488 551.382 314.352 549.942 314.352C548.502 314.352 547.286 315.488 547.286 317.744C547.286 320.016 548.486 321.168 549.942 321.168ZM564.177 313.392C565.793 313.392 566.737 314.416 566.737 316.176V322H565.649V316.336C565.649 314.96 564.993 314.384 563.889 314.384C562.401 314.384 561.777 315.536 561.777 317.232V322H560.689V316.336C560.689 314.96 560.033 314.384 558.929 314.384C557.441 314.384 556.817 315.536 556.817 317.232V322H555.729V313.52H556.817V314.848C557.329 313.904 558.225 313.392 559.217 313.392C560.481 313.392 561.329 314.016 561.633 315.12C562.113 314 563.089 313.392 564.177 313.392ZM577.602 313.392C579.218 313.392 580.162 314.416 580.162 316.176V322H579.074V316.336C579.074 314.96 578.418 314.384 577.314 314.384C575.826 314.384 575.202 315.536 575.202 317.232V322H574.114V316.336C574.114 314.96 573.458 314.384 572.354 314.384C570.866 314.384 570.242 315.536 570.242 317.232V322H569.154V313.52H570.242V314.848C570.754 313.904 571.65 313.392 572.642 313.392C573.906 313.392 574.754 314.016 575.058 315.12C575.538 314 576.514 313.392 577.602 313.392ZM587.507 313.52H588.595V322H587.507V320.704C586.995 321.616 586.099 322.128 585.059 322.128C583.395 322.128 582.387 321.056 582.387 319.216V313.52H583.475V319.12C583.475 320.512 584.179 321.152 585.363 321.152C586.867 321.152 587.507 319.952 587.507 318.288V313.52ZM594.634 313.392C596.33 313.392 597.322 314.432 597.322 316.336V322H596.234V316.496C596.234 314.96 595.53 314.384 594.346 314.384C592.858 314.384 592.17 315.536 592.17 317.232V322H591.082V313.52H592.17V314.832C592.682 313.904 593.61 313.392 594.634 313.392ZM605.534 319.6L606.334 320.048C605.934 321.072 604.878 322.128 602.99 322.128C600.606 322.128 599.198 320.352 599.198 317.648C599.198 315.168 600.67 313.392 602.878 313.392C604.702 313.392 606.27 314.704 606.27 317.008L606.238 317.952H600.302C600.398 320.208 601.47 321.168 603.102 321.168C604.382 321.168 605.134 320.432 605.534 319.6ZM602.878 314.352C601.598 314.352 600.446 315.04 600.302 317.056H605.198C605.246 315.152 604.126 314.352 602.878 314.352ZM265.46 339.728C265.46 338.384 266.724 337.392 268.5 337.392C270.036 337.392 271.22 338.128 271.572 339.248L270.676 339.6C270.34 338.784 269.556 338.352 268.468 338.352C267.284 338.352 266.516 338.848 266.516 339.632C266.516 340.336 266.98 340.768 267.988 340.976L269.108 341.2C270.964 341.568 271.828 342.368 271.828 343.632C271.828 345.104 270.516 346.128 268.628 346.128C266.916 346.128 265.716 345.456 265.14 344.176L266.068 343.792C266.468 344.688 267.348 345.168 268.596 345.168C269.908 345.168 270.772 344.592 270.772 343.728C270.772 342.928 270.324 342.496 269.204 342.256L267.828 341.968C266.276 341.648 265.46 340.864 265.46 339.728ZM277.002 346.128C274.906 346.128 273.226 344.4 273.226 341.744C273.226 339.12 274.89 337.392 277.002 337.392C279.114 337.392 280.778 339.12 280.778 341.744C280.778 344.4 279.098 346.128 277.002 346.128ZM277.002 345.168C278.458 345.168 279.658 344.016 279.658 341.744C279.658 339.488 278.442 338.352 277.002 338.352C275.562 338.352 274.346 339.488 274.346 341.744C274.346 344.016 275.546 345.168 277.002 345.168ZM291.237 337.392C292.853 337.392 293.797 338.416 293.797 340.176V346H292.709V340.336C292.709 338.96 292.053 338.384 290.949 338.384C289.461 338.384 288.837 339.536 288.837 341.232V346H287.749V340.336C287.749 338.96 287.093 338.384 285.989 338.384C284.501 338.384 283.877 339.536 283.877 341.232V346H282.789V337.52H283.877V338.848C284.389 337.904 285.285 337.392 286.277 337.392C287.541 337.392 288.389 338.016 288.693 339.12C289.173 338 290.149 337.392 291.237 337.392ZM305.387 346L302.267 341.792L301.227 342.784V346H300.139V334.16H301.227V341.504L305.259 337.52H306.699L303.003 341.072L306.763 346H305.387ZM314.071 346H313.079C312.951 345.536 312.855 344.976 312.855 344.336C312.423 345.328 311.319 346.128 309.943 346.128C308.439 346.128 307.303 345.152 307.303 343.696C307.303 341.952 308.871 341.04 310.615 341.04C311.303 341.04 311.975 341.12 312.663 341.36V340.24C312.663 339.136 311.991 338.384 310.679 338.384C309.623 338.384 308.727 338.848 308.279 340.144L307.319 339.856C307.959 338.064 309.255 337.392 310.743 337.392C312.839 337.392 313.719 338.656 313.719 340.112V343.6C313.719 344.56 313.879 345.424 314.071 346ZM312.663 342.48V342.288C312.007 342.016 311.335 341.936 310.679 341.936C309.399 341.936 308.391 342.512 308.391 343.632C308.391 344.656 309.111 345.2 310.135 345.2C311.239 345.2 312.663 344.544 312.663 342.48ZM319.822 337.392C321.518 337.392 322.51 338.432 322.51 340.336V346H321.422V340.496C321.422 338.96 320.718 338.384 319.534 338.384C318.046 338.384 317.358 339.536 317.358 341.232V346H316.27V337.52H317.358V338.832C317.87 337.904 318.798 337.392 319.822 337.392ZM331.479 345.968C331.223 346.032 331.015 346.064 330.775 346.064C329.447 346.064 328.823 345.232 328.823 343.984V334.16H329.911V343.984C329.911 344.704 330.295 345.072 330.967 345.072C331.143 345.072 331.319 345.056 331.479 345.008V345.968ZM336.287 336.624C335.247 336.624 334.399 335.856 334.399 334.8C334.399 333.744 335.247 332.976 336.287 332.976C337.327 332.976 338.175 333.744 338.175 334.8C338.175 335.856 337.327 336.624 336.287 336.624ZM336.287 333.712C335.679 333.712 335.199 334.096 335.199 334.8C335.199 335.52 335.679 335.888 336.287 335.888C336.895 335.888 337.375 335.52 337.375 334.8C337.375 334.096 336.895 333.712 336.287 333.712ZM339.583 346H338.591C338.463 345.536 338.367 344.976 338.367 344.336C337.935 345.328 336.831 346.128 335.455 346.128C333.951 346.128 332.815 345.152 332.815 343.696C332.815 341.952 334.383 341.04 336.127 341.04C336.815 341.04 337.487 341.12 338.175 341.36V340.24C338.175 339.136 337.503 338.384 336.191 338.384C335.135 338.384 334.239 338.848 333.791 340.144L332.831 339.856C333.471 338.064 334.767 337.392 336.255 337.392C338.351 337.392 339.231 338.656 339.231 340.112V343.6C339.231 344.56 339.391 345.424 339.583 346ZM338.175 342.48V342.288C337.519 342.016 336.847 341.936 336.191 341.936C334.911 341.936 333.903 342.512 333.903 343.632C333.903 344.656 334.623 345.2 335.647 345.2C336.751 345.2 338.175 344.544 338.175 342.48ZM345.334 337.392C347.03 337.392 348.022 338.432 348.022 340.336V346H346.934V340.496C346.934 338.96 346.23 338.384 345.046 338.384C343.558 338.384 342.87 339.536 342.87 341.232V346H341.782V337.52H342.87V338.832C343.382 337.904 344.31 337.392 345.334 337.392ZM356.234 343.6L357.034 344.048C356.634 345.072 355.578 346.128 353.69 346.128C351.306 346.128 349.898 344.352 349.898 341.648C349.898 339.168 351.37 337.392 353.578 337.392C355.402 337.392 356.97 338.704 356.97 341.008L356.938 341.952H351.002C351.098 344.208 352.17 345.168 353.802 345.168C355.082 345.168 355.834 344.432 356.234 343.6ZM353.578 338.352C352.298 338.352 351.146 339.04 351.002 341.056H355.898C355.946 339.152 354.826 338.352 353.578 338.352ZM358.654 339.728C358.654 338.384 359.918 337.392 361.694 337.392C363.23 337.392 364.414 338.128 364.766 339.248L363.87 339.6C363.534 338.784 362.75 338.352 361.662 338.352C360.478 338.352 359.71 338.848 359.71 339.632C359.71 340.336 360.174 340.768 361.182 340.976L362.302 341.2C364.158 341.568 365.022 342.368 365.022 343.632C365.022 345.104 363.71 346.128 361.822 346.128C360.11 346.128 358.91 345.456 358.334 344.176L359.262 343.792C359.662 344.688 360.542 345.168 361.79 345.168C363.102 345.168 363.966 344.592 363.966 343.728C363.966 342.928 363.518 342.496 362.398 342.256L361.022 341.968C359.47 341.648 358.654 340.864 358.654 339.728ZM377.177 346H376.185C376.057 345.536 375.961 344.976 375.961 344.336C375.529 345.328 374.425 346.128 373.049 346.128C371.545 346.128 370.409 345.152 370.409 343.696C370.409 341.952 371.977 341.04 373.721 341.04C374.409 341.04 375.081 341.12 375.769 341.36V340.24C375.769 339.136 375.097 338.384 373.785 338.384C372.729 338.384 371.833 338.848 371.385 340.144L370.425 339.856C371.065 338.064 372.361 337.392 373.849 337.392C375.945 337.392 376.825 338.656 376.825 340.112V343.6C376.825 344.56 376.985 345.424 377.177 346ZM375.769 342.48V342.288C375.113 342.016 374.441 341.936 373.785 341.936C372.505 341.936 371.497 342.512 371.497 343.632C371.497 344.656 372.217 345.2 373.241 345.2C374.345 345.2 375.769 344.544 375.769 342.48ZM384.472 337.52H385.592L382.264 346H381.304L377.976 337.52H379.16L381.816 344.8L384.472 337.52ZM392.641 336.336V337.52H395.009V338.416H392.641V346H391.553V338.416H389.953V337.52H391.553V336.336C391.553 334.864 392.513 334.032 393.825 334.032C394.433 334.032 395.137 334.272 395.537 334.912L394.881 335.568C394.625 335.184 394.241 334.96 393.793 334.96C393.233 334.96 392.641 335.296 392.641 336.336ZM399.503 337.392C400.607 337.392 401.407 338.128 401.407 339.568V340.4L400.415 340.592V339.76C400.415 338.912 400.127 338.352 399.263 338.352C398.287 338.352 397.551 339.072 397.551 340.784V346H396.463V337.52H397.551V338.576C397.999 337.776 398.751 337.392 399.503 337.392ZM403.901 335.984C403.373 335.984 402.941 335.568 402.941 335.024C402.941 334.48 403.373 334.064 403.901 334.064C404.429 334.064 404.861 334.48 404.861 335.024C404.861 335.568 404.429 335.984 403.901 335.984ZM403.357 346V337.52H404.445V346H403.357ZM412.409 337.52H413.529L410.201 346H409.241L405.913 337.52H407.097L409.753 344.8L412.409 337.52ZM414.701 334.224H416.365V335.856H414.701V334.224ZM414.989 346V337.52H416.077V346H414.989ZM421.288 345.968C421.032 346.032 420.824 346.064 420.584 346.064C419.256 346.064 418.632 345.232 418.632 343.984V334.16H419.72V343.984C419.72 344.704 420.104 345.072 420.776 345.072C420.952 345.072 421.128 345.056 421.288 345.008V345.968ZM425.729 345.968C425.473 346.032 425.265 346.064 425.025 346.064C423.697 346.064 423.073 345.232 423.073 343.984V334.16H424.161V343.984C424.161 344.704 424.545 345.072 425.217 345.072C425.393 345.072 425.569 345.056 425.729 345.008V345.968ZM428.057 335.984C427.529 335.984 427.097 335.568 427.097 335.024C427.097 334.48 427.529 334.064 428.057 334.064C428.585 334.064 429.017 334.48 429.017 335.024C429.017 335.568 428.585 335.984 428.057 335.984ZM427.513 346V337.52H428.601V346H427.513ZM438.773 338.416H436.949V338.72C437.365 339.232 437.589 339.872 437.589 340.496C437.589 342.048 436.469 343.632 434.085 343.632H433.717C432.757 343.632 432.069 344 432.069 344.56C432.069 344.992 432.405 345.296 433.109 345.296H436.549C437.925 345.296 438.629 345.968 438.629 347.024C438.629 348.704 436.693 349.584 434.309 349.584C432.165 349.584 430.677 348.896 430.165 347.408L431.045 347.008C431.637 348.4 432.885 348.672 434.309 348.672C436.069 348.672 437.541 348.144 437.541 347.12C437.541 346.64 437.285 346.288 436.517 346.288H432.869C431.685 346.288 430.981 345.728 430.981 344.848C430.981 344.096 431.605 343.44 432.645 343.168C431.525 342.72 430.901 341.536 430.901 340.496C430.901 338.976 432.037 337.392 434.277 337.392C435.157 337.392 435.829 337.68 436.341 338.112V337.52H438.773V338.416ZM434.261 342.736C435.765 342.736 436.517 341.696 436.517 340.496C436.517 339.312 435.765 338.32 434.261 338.32C432.741 338.32 431.973 339.328 431.973 340.496C431.973 341.68 432.741 342.736 434.261 342.736ZM445.421 343.6L446.221 344.048C445.821 345.072 444.765 346.128 442.877 346.128C440.493 346.128 439.085 344.352 439.085 341.648C439.085 339.168 440.557 337.392 442.765 337.392C444.589 337.392 446.157 338.704 446.157 341.008L446.125 341.952H440.189C440.285 344.208 441.357 345.168 442.989 345.168C444.269 345.168 445.021 344.432 445.421 343.6ZM442.765 338.352C441.485 338.352 440.333 339.04 440.189 341.056H445.085C445.133 339.152 444.013 338.352 442.765 338.352ZM455.383 346.128C453.287 346.128 451.607 344.4 451.607 341.744C451.607 339.12 453.271 337.392 455.383 337.392C457.495 337.392 459.159 339.12 459.159 341.744C459.159 344.4 457.479 346.128 455.383 346.128ZM455.383 345.168C456.839 345.168 458.039 344.016 458.039 341.744C458.039 339.488 456.823 338.352 455.383 338.352C453.943 338.352 452.727 339.488 452.727 341.744C452.727 344.016 453.927 345.168 455.383 345.168ZM464.21 337.392C465.314 337.392 466.114 338.128 466.114 339.568V340.4L465.122 340.592V339.76C465.122 338.912 464.834 338.352 463.97 338.352C462.994 338.352 462.258 339.072 462.258 340.784V346H461.17V337.52H462.258V338.576C462.706 337.776 463.458 337.392 464.21 337.392ZM475.195 338.416H473.371V338.72C473.787 339.232 474.011 339.872 474.011 340.496C474.011 342.048 472.891 343.632 470.507 343.632H470.139C469.179 343.632 468.491 344 468.491 344.56C468.491 344.992 468.827 345.296 469.531 345.296H472.971C474.347 345.296 475.051 345.968 475.051 347.024C475.051 348.704 473.115 349.584 470.731 349.584C468.587 349.584 467.099 348.896 466.587 347.408L467.467 347.008C468.059 348.4 469.307 348.672 470.731 348.672C472.491 348.672 473.963 348.144 473.963 347.12C473.963 346.64 473.707 346.288 472.939 346.288H469.291C468.107 346.288 467.403 345.728 467.403 344.848C467.403 344.096 468.027 343.44 469.067 343.168C467.947 342.72 467.323 341.536 467.323 340.496C467.323 338.976 468.459 337.392 470.699 337.392C471.579 337.392 472.251 337.68 472.763 338.112V337.52H475.195V338.416ZM470.683 342.736C472.187 342.736 472.939 341.696 472.939 340.496C472.939 339.312 472.187 338.32 470.683 338.32C469.163 338.32 468.395 339.328 468.395 340.496C468.395 341.68 469.163 342.736 470.683 342.736ZM482.371 346H481.379C481.251 345.536 481.155 344.976 481.155 344.336C480.723 345.328 479.619 346.128 478.243 346.128C476.739 346.128 475.603 345.152 475.603 343.696C475.603 341.952 477.171 341.04 478.915 341.04C479.603 341.04 480.275 341.12 480.963 341.36V340.24C480.963 339.136 480.291 338.384 478.979 338.384C477.923 338.384 477.027 338.848 476.579 340.144L475.619 339.856C476.259 338.064 477.555 337.392 479.043 337.392C481.139 337.392 482.019 338.656 482.019 340.112V343.6C482.019 344.56 482.179 345.424 482.371 346ZM480.963 342.48V342.288C480.307 342.016 479.635 341.936 478.979 341.936C477.699 341.936 476.691 342.512 476.691 343.632C476.691 344.656 477.411 345.2 478.435 345.2C479.539 345.2 480.963 344.544 480.963 342.48ZM488.122 337.392C489.818 337.392 490.81 338.432 490.81 340.336V346H489.722V340.496C489.722 338.96 489.018 338.384 487.834 338.384C486.346 338.384 485.658 339.536 485.658 341.232V346H484.57V337.52H485.658V338.832C486.17 337.904 487.098 337.392 488.122 337.392ZM492.941 334.224H494.605V335.856H492.941V334.224ZM493.229 346V337.52H494.317V346H493.229ZM496.457 339.728C496.457 338.384 497.721 337.392 499.497 337.392C501.033 337.392 502.217 338.128 502.569 339.248L501.673 339.6C501.337 338.784 500.553 338.352 499.465 338.352C498.281 338.352 497.513 338.848 497.513 339.632C497.513 340.336 497.977 340.768 498.985 340.976L500.105 341.2C501.961 341.568 502.825 342.368 502.825 343.632C502.825 345.104 501.513 346.128 499.625 346.128C497.913 346.128 496.713 345.456 496.137 344.176L497.065 343.792C497.465 344.688 498.345 345.168 499.593 345.168C500.905 345.168 501.769 344.592 501.769 343.728C501.769 342.928 501.321 342.496 500.201 342.256L498.825 341.968C497.273 341.648 496.457 340.864 496.457 339.728ZM510.774 346H509.782C509.654 345.536 509.558 344.976 509.558 344.336C509.126 345.328 508.022 346.128 506.646 346.128C505.142 346.128 504.006 345.152 504.006 343.696C504.006 341.952 505.574 341.04 507.318 341.04C508.006 341.04 508.678 341.12 509.366 341.36V340.24C509.366 339.136 508.694 338.384 507.382 338.384C506.326 338.384 505.43 338.848 504.982 340.144L504.022 339.856C504.662 338.064 505.958 337.392 507.446 337.392C509.542 337.392 510.422 338.656 510.422 340.112V343.6C510.422 344.56 510.582 345.424 510.774 346ZM509.366 342.48V342.288C508.71 342.016 508.038 341.936 507.382 341.936C506.102 341.936 505.094 342.512 505.094 343.632C505.094 344.656 505.814 345.2 506.838 345.2C507.942 345.2 509.366 344.544 509.366 342.48ZM512.557 339.728C512.557 338.384 513.821 337.392 515.597 337.392C517.133 337.392 518.317 338.128 518.669 339.248L517.773 339.6C517.437 338.784 516.653 338.352 515.565 338.352C514.381 338.352 513.613 338.848 513.613 339.632C513.613 340.336 514.077 340.768 515.085 340.976L516.205 341.2C518.061 341.568 518.925 342.368 518.925 343.632C518.925 345.104 517.613 346.128 515.725 346.128C514.013 346.128 512.813 345.456 512.237 344.176L513.165 343.792C513.565 344.688 514.445 345.168 515.693 345.168C517.005 345.168 517.869 344.592 517.869 343.728C517.869 342.928 517.421 342.496 516.301 342.256L514.925 341.968C513.373 341.648 512.557 340.864 512.557 339.728ZM521.347 335.984C520.819 335.984 520.387 335.568 520.387 335.024C520.387 334.48 520.819 334.064 521.347 334.064C521.875 334.064 522.307 334.48 522.307 335.024C522.307 335.568 521.875 335.984 521.347 335.984ZM520.067 349.472C519.779 349.472 519.507 349.424 519.235 349.344L519.331 348.384C519.555 348.464 519.763 348.48 519.907 348.48C520.659 348.48 520.803 347.968 520.803 347.232V337.52H521.891V347.296C521.891 348.736 521.267 349.472 520.067 349.472ZM527.68 346.128C525.584 346.128 523.904 344.4 523.904 341.744C523.904 339.12 525.568 337.392 527.68 337.392C529.792 337.392 531.456 339.12 531.456 341.744C531.456 344.4 529.776 346.128 527.68 346.128ZM527.68 345.168C529.136 345.168 530.336 344.016 530.336 341.744C530.336 339.488 529.12 338.352 527.68 338.352C526.24 338.352 525.024 339.488 525.024 341.744C525.024 344.016 526.224 345.168 527.68 345.168ZM537.019 337.392C538.715 337.392 539.707 338.432 539.707 340.336V346H538.619V340.496C538.619 338.96 537.915 338.384 536.731 338.384C535.243 338.384 534.555 339.536 534.555 341.232V346H533.467V337.52H534.555V338.832C535.067 337.904 535.995 337.392 537.019 337.392ZM547.918 343.6L548.718 344.048C548.318 345.072 547.262 346.128 545.374 346.128C542.99 346.128 541.582 344.352 541.582 341.648C541.582 339.168 543.054 337.392 545.262 337.392C547.086 337.392 548.654 338.704 548.654 341.008L548.622 341.952H542.686C542.782 344.208 543.854 345.168 545.486 345.168C546.766 345.168 547.518 344.432 547.918 343.6ZM545.262 338.352C543.982 338.352 542.83 339.04 542.686 341.056H547.582C547.63 339.152 546.51 338.352 545.262 338.352ZM553.794 337.392C554.898 337.392 555.698 338.128 555.698 339.568V340.4L554.706 340.592V339.76C554.706 338.912 554.418 338.352 553.554 338.352C552.578 338.352 551.842 339.072 551.842 340.784V346H550.754V337.52H551.842V338.576C552.29 337.776 553.042 337.392 553.794 337.392ZM564.774 346.128C562.678 346.128 560.998 344.4 560.998 341.744C560.998 339.12 562.662 337.392 564.774 337.392C566.886 337.392 568.55 339.12 568.55 341.744C568.55 344.4 566.87 346.128 564.774 346.128ZM564.774 345.168C566.23 345.168 567.43 344.016 567.43 341.744C567.43 339.488 566.214 338.352 564.774 338.352C563.334 338.352 562.118 339.488 562.118 341.744C562.118 344.016 563.318 345.168 564.774 345.168ZM577.692 338.416H575.868V338.72C576.284 339.232 576.508 339.872 576.508 340.496C576.508 342.048 575.388 343.632 573.004 343.632H572.636C571.676 343.632 570.988 344 570.988 344.56C570.988 344.992 571.324 345.296 572.028 345.296H575.468C576.844 345.296 577.548 345.968 577.548 347.024C577.548 348.704 575.612 349.584 573.228 349.584C571.084 349.584 569.596 348.896 569.084 347.408L569.964 347.008C570.556 348.4 571.804 348.672 573.228 348.672C574.988 348.672 576.46 348.144 576.46 347.12C576.46 346.64 576.204 346.288 575.436 346.288H571.788C570.604 346.288 569.9 345.728 569.9 344.848C569.9 344.096 570.524 343.44 571.564 343.168C570.444 342.72 569.82 341.536 569.82 340.496C569.82 338.976 570.956 337.392 573.196 337.392C574.076 337.392 574.748 337.68 575.26 338.112V337.52H577.692V338.416ZM573.18 342.736C574.684 342.736 575.436 341.696 575.436 340.496C575.436 339.312 574.684 338.32 573.18 338.32C571.66 338.32 570.892 339.328 570.892 340.496C570.892 341.68 571.66 342.736 573.18 342.736ZM589.402 346H588.41C588.282 345.536 588.186 344.976 588.186 344.336C587.754 345.328 586.65 346.128 585.274 346.128C583.77 346.128 582.634 345.152 582.634 343.696C582.634 341.952 584.202 341.04 585.946 341.04C586.634 341.04 587.306 341.12 587.994 341.36V340.24C587.994 339.136 587.322 338.384 586.01 338.384C584.954 338.384 584.058 338.848 583.61 340.144L582.65 339.856C583.29 338.064 584.586 337.392 586.074 337.392C588.17 337.392 589.05 338.656 589.05 340.112V343.6C589.05 344.56 589.21 345.424 589.402 346ZM587.994 342.48V342.288C587.338 342.016 586.666 341.936 586.01 341.936C584.73 341.936 583.722 342.512 583.722 343.632C583.722 344.656 584.442 345.2 585.466 345.2C586.57 345.2 587.994 344.544 587.994 342.48ZM595.153 337.392C596.849 337.392 597.841 338.432 597.841 340.336V346H596.753V340.496C596.753 338.96 596.049 338.384 594.865 338.384C593.377 338.384 592.689 339.536 592.689 341.232V346H591.601V337.52H592.689V338.832C593.201 337.904 594.129 337.392 595.153 337.392ZM606.116 334.16H607.204V346H606.116V344.416C605.556 345.504 604.436 346.112 603.332 346.112C601.172 346.112 599.716 344.304 599.716 341.84C599.716 339.232 601.188 337.392 603.46 337.392C604.644 337.392 605.604 337.984 606.116 339.056V334.16ZM603.444 345.152C605.14 345.152 606.116 343.888 606.116 341.808C606.116 339.6 605.156 338.352 603.46 338.352C601.876 338.352 600.836 339.568 600.836 341.792C600.836 343.936 601.876 345.152 603.444 345.152ZM612.725 337.392C613.829 337.392 614.629 338.128 614.629 339.568V340.4L613.637 340.592V339.76C613.637 338.912 613.349 338.352 612.485 338.352C611.509 338.352 610.773 339.072 610.773 340.784V346H609.685V337.52H610.773V338.576C611.221 337.776 611.973 337.392 612.725 337.392ZM621.887 343.6L622.687 344.048C622.287 345.072 621.231 346.128 619.343 346.128C616.959 346.128 615.551 344.352 615.551 341.648C615.551 339.168 617.023 337.392 619.231 337.392C621.055 337.392 622.623 338.704 622.623 341.008L622.591 341.952H616.655C616.751 344.208 617.823 345.168 619.455 345.168C620.735 345.168 621.487 344.432 621.887 343.6ZM619.231 338.352C617.951 338.352 616.799 339.04 616.655 341.056H621.551C621.599 339.152 620.479 338.352 619.231 338.352ZM272.196 370H271.204C271.076 369.536 270.98 368.976 270.98 368.336C270.548 369.328 269.444 370.128 268.068 370.128C266.564 370.128 265.428 369.152 265.428 367.696C265.428 365.952 266.996 365.04 268.74 365.04C269.428 365.04 270.1 365.12 270.788 365.36V364.24C270.788 363.136 270.116 362.384 268.804 362.384C267.748 362.384 266.852 362.848 266.404 364.144L265.444 363.856C266.084 362.064 267.38 361.392 268.868 361.392C270.964 361.392 271.844 362.656 271.844 364.112V367.6C271.844 368.56 272.004 369.424 272.196 370ZM270.788 366.48V366.288C270.132 366.016 269.46 365.936 268.804 365.936C267.524 365.936 266.516 366.512 266.516 367.632C266.516 368.656 267.236 369.2 268.26 369.2C269.364 369.2 270.788 368.544 270.788 366.48ZM279.675 370L276.555 365.792L275.515 366.784V370H274.427V358.16H275.515V365.504L279.547 361.52H280.987L277.291 365.072L281.051 370H279.675ZM284.063 367.888C284.063 368.88 284.655 369.168 285.183 369.168C285.695 369.168 286.031 368.976 286.431 368.56L287.007 369.2C286.447 369.856 285.839 370.128 285.087 370.128C283.935 370.128 282.975 369.36 282.975 367.856V362.416H281.375V361.52H282.975V359.696L284.063 359.056V361.52H286.815V362.416H284.063V367.888ZM293.638 362.16C294.582 362.912 295.19 364.16 295.19 365.744C295.19 368.4 293.51 370.128 291.414 370.128C290.822 370.128 290.262 369.984 289.766 369.728L289.238 370.768H288.47L289.19 369.36C288.246 368.608 287.638 367.344 287.638 365.744C287.638 363.12 289.302 361.392 291.414 361.392C292.006 361.392 292.566 361.536 293.062 361.776L293.59 360.752H294.358L293.638 362.16ZM288.758 365.744C288.758 366.976 289.11 367.872 289.654 368.448L292.614 362.656C292.246 362.448 291.846 362.352 291.414 362.352C289.974 362.352 288.758 363.488 288.758 365.744ZM291.414 369.168C292.87 369.168 294.07 368.016 294.07 365.744C294.07 364.528 293.718 363.648 293.174 363.072L290.214 368.864C290.566 369.072 290.982 369.168 291.414 369.168ZM300.241 361.392C301.345 361.392 302.145 362.128 302.145 363.568V364.4L301.153 364.592V363.76C301.153 362.912 300.865 362.352 300.001 362.352C299.025 362.352 298.289 363.072 298.289 364.784V370H297.201V361.52H298.289V362.576C298.737 361.776 299.489 361.392 300.241 361.392ZM309.402 367.6L310.202 368.048C309.802 369.072 308.746 370.128 306.858 370.128C304.474 370.128 303.066 368.352 303.066 365.648C303.066 363.168 304.538 361.392 306.746 361.392C308.57 361.392 310.138 362.704 310.138 365.008L310.106 365.952H304.17C304.266 368.208 305.338 369.168 306.97 369.168C308.25 369.168 309.002 368.432 309.402 367.6ZM306.746 362.352C305.466 362.352 304.314 363.04 304.17 365.056H309.066C309.114 363.152 307.994 362.352 306.746 362.352ZM315.278 361.392C316.382 361.392 317.182 362.128 317.182 363.568V364.4L316.19 364.592V363.76C316.19 362.912 315.902 362.352 315.038 362.352C314.062 362.352 313.326 363.072 313.326 364.784V370H312.238V361.52H313.326V362.576C313.774 361.776 314.526 361.392 315.278 361.392ZM317.698 370.096C317.122 370.096 316.674 369.664 316.674 369.072C316.674 368.48 317.122 368.048 317.698 368.048C318.274 368.048 318.722 368.48 318.722 369.072C318.722 369.664 318.274 370.096 317.698 370.096Z"
      fill="#2A2859" />
    <rect x="265" y="397" width="357" height="46" fill="white" />
    <rect x="265" y="397" width="357" height="46" stroke="#2A2859" stroke-width="2" />
    <path
      d="M289.332 416.208C289.332 413.976 291.366 412.536 293.724 412.536C295.902 412.536 297.378 413.472 298.044 415.146L296.856 415.632C296.316 414.354 295.11 413.652 293.724 413.652C291.888 413.652 290.592 414.588 290.592 416.064C290.592 417.306 291.33 418.062 292.896 418.368L294.984 418.764C297.036 419.16 298.548 420.258 298.548 422.256C298.548 424.308 296.82 426.144 293.904 426.144C291.6 426.144 289.872 425.352 288.936 423.372L290.088 422.904C290.988 424.668 292.482 425.028 293.94 425.028C296.118 425.028 297.288 423.768 297.288 422.328C297.288 420.726 296.208 420.258 294.588 419.952L292.68 419.592C290.826 419.25 289.332 418.224 289.332 416.208ZM307.158 417.18C308.22 418.026 308.904 419.43 308.904 421.212C308.904 424.2 307.014 426.144 304.656 426.144C303.99 426.144 303.36 425.982 302.802 425.694L302.208 426.864H301.344L302.154 425.28C301.092 424.434 300.408 423.012 300.408 421.212C300.408 418.26 302.28 416.316 304.656 416.316C305.322 416.316 305.952 416.478 306.51 416.748L307.104 415.596H307.968L307.158 417.18ZM301.668 421.212C301.668 422.598 302.064 423.606 302.676 424.254L306.006 417.738C305.592 417.504 305.142 417.396 304.656 417.396C303.036 417.396 301.668 418.674 301.668 421.212ZM304.656 425.064C306.294 425.064 307.644 423.768 307.644 421.212C307.644 419.844 307.248 418.854 306.636 418.206L303.306 424.722C303.702 424.956 304.17 425.064 304.656 425.064ZM317.131 426L313.621 421.266L312.451 422.382V426H311.227V412.68H312.451V420.942L316.987 416.46H318.607L314.449 420.456L318.679 426H317.131ZM331.457 423.3L332.357 423.804C331.907 424.956 330.719 426.144 328.595 426.144C325.913 426.144 324.329 424.146 324.329 421.104C324.329 418.314 325.985 416.316 328.469 416.316C330.521 416.316 332.285 417.792 332.285 420.384L332.249 421.446H325.571C325.679 423.984 326.885 425.064 328.721 425.064C330.161 425.064 331.007 424.236 331.457 423.3ZM328.469 417.396C327.029 417.396 325.733 418.17 325.571 420.438H331.079C331.133 418.296 329.873 417.396 328.469 417.396ZM336.405 423.624C336.405 424.74 337.071 425.064 337.665 425.064C338.241 425.064 338.619 424.848 339.069 424.38L339.717 425.1C339.087 425.838 338.403 426.144 337.557 426.144C336.261 426.144 335.181 425.28 335.181 423.588V417.468H333.381V416.46H335.181V414.408L336.405 413.688V416.46H339.501V417.468H336.405V423.624ZM343.166 423.624C343.166 424.74 343.832 425.064 344.426 425.064C345.002 425.064 345.38 424.848 345.83 424.38L346.478 425.1C345.848 425.838 345.164 426.144 344.318 426.144C343.022 426.144 341.942 425.28 341.942 423.588V417.468H340.142V416.46H341.942V414.408L343.166 413.688V416.46H346.262V417.468H343.166V423.624ZM354.342 423.3L355.242 423.804C354.792 424.956 353.604 426.144 351.48 426.144C348.798 426.144 347.214 424.146 347.214 421.104C347.214 418.314 348.87 416.316 351.354 416.316C353.406 416.316 355.17 417.792 355.17 420.384L355.134 421.446H348.456C348.564 423.984 349.77 425.064 351.606 425.064C353.046 425.064 353.892 424.236 354.342 423.3ZM351.354 417.396C349.914 417.396 348.618 418.17 348.456 420.438H353.964C354.018 418.296 352.758 417.396 351.354 417.396ZM360.977 416.316C362.219 416.316 363.119 417.144 363.119 418.764V419.7L362.003 419.916V418.98C362.003 418.026 361.679 417.396 360.707 417.396C359.609 417.396 358.781 418.206 358.781 420.132V426H357.557V416.46H358.781V417.648C359.285 416.748 360.131 416.316 360.977 416.316ZM372.731 425.964C372.443 426.036 372.209 426.072 371.939 426.072C370.445 426.072 369.743 425.136 369.743 423.732V412.68H370.967V423.732C370.967 424.542 371.399 424.956 372.155 424.956C372.353 424.956 372.551 424.938 372.731 424.884V425.964ZM378.119 426.144C375.761 426.144 373.871 424.2 373.871 421.212C373.871 418.26 375.743 416.316 378.119 416.316C380.495 416.316 382.367 418.26 382.367 421.212C382.367 424.2 380.477 426.144 378.119 426.144ZM378.119 425.064C379.757 425.064 381.107 423.768 381.107 421.212C381.107 418.674 379.739 417.396 378.119 417.396C376.499 417.396 375.131 418.674 375.131 421.212C375.131 423.768 376.481 425.064 378.119 425.064ZM390.594 426L387.084 421.266L385.914 422.382V426H384.69V412.68H385.914V420.942L390.45 416.46H392.07L387.912 420.456L392.142 426H390.594ZM400.388 426H399.272C399.128 425.478 399.02 424.848 399.02 424.128C398.534 425.244 397.292 426.144 395.744 426.144C394.052 426.144 392.774 425.046 392.774 423.408C392.774 421.446 394.538 420.42 396.5 420.42C397.274 420.42 398.03 420.51 398.804 420.78V419.52C398.804 418.278 398.048 417.432 396.572 417.432C395.384 417.432 394.376 417.954 393.872 419.412L392.792 419.088C393.512 417.072 394.97 416.316 396.644 416.316C399.002 416.316 399.992 417.738 399.992 419.376V423.3C399.992 424.38 400.172 425.352 400.388 426ZM398.804 422.04V421.824C398.066 421.518 397.31 421.428 396.572 421.428C395.132 421.428 393.998 422.076 393.998 423.336C393.998 424.488 394.808 425.1 395.96 425.1C397.202 425.1 398.804 424.362 398.804 422.04ZM405.875 425.964C405.587 426.036 405.353 426.072 405.083 426.072C403.589 426.072 402.887 425.136 402.887 423.732V412.68H404.111V423.732C404.111 424.542 404.543 424.956 405.299 424.956C405.497 424.956 405.695 424.938 405.875 424.884V425.964ZM414.142 423.3L415.042 423.804C414.592 424.956 413.404 426.144 411.28 426.144C408.598 426.144 407.014 424.146 407.014 421.104C407.014 418.314 408.67 416.316 411.154 416.316C413.206 416.316 414.97 417.792 414.97 420.384L414.934 421.446H408.256C408.364 423.984 409.57 425.064 411.406 425.064C412.846 425.064 413.692 424.236 414.142 423.3ZM411.154 417.396C409.714 417.396 408.418 418.17 408.256 420.438H413.764C413.818 418.296 412.558 417.396 411.154 417.396Z"
      fill="#666666" />
    <path fill-rule="evenodd" clip-rule="evenodd"
      d="M605.73 429.587L600.176 424.033C601.44 422.483 602.2 420.506 602.2 418.35C602.2 413.38 598.17 409.35 593.2 409.35C588.23 409.35 584.2 413.38 584.2 418.35C584.2 423.32 588.23 427.35 593.2 427.35C595.475 427.35 597.546 426.5 599.131 425.108L604.67 430.646L605.73 429.587ZM593.2 425.85C589.064 425.85 585.7 422.486 585.7 418.35C585.7 414.215 589.064 410.85 593.2 410.85C597.335 410.85 600.7 414.215 600.7 418.35C600.7 422.486 597.335 425.85 593.2 425.85Z"
      fill="#2A2859" />
    <rect width="359" height="139" transform="translate(264 464)" fill="#D1F9FF" />
    <path
      d="M295.367 529.128C292.199 529.128 289.895 526.76 289.895 523.016C289.895 519.384 292.311 517.032 295.271 517.032C297.351 517.032 298.823 517.992 299.511 519.624L298.487 520.104C297.895 518.776 296.647 518.088 295.239 518.088C292.919 518.088 291.047 519.752 291.047 523.016C291.047 526.28 292.839 528.136 295.415 528.136C296.727 528.136 297.639 527.864 298.503 527.336V523.784H294.151V522.76H299.527V527.784C298.551 528.648 296.935 529.128 295.367 529.128ZM308.154 529H307.162C307.034 528.536 306.938 527.976 306.938 527.336C306.506 528.328 305.402 529.128 304.026 529.128C302.522 529.128 301.386 528.152 301.386 526.696C301.386 524.952 302.954 524.04 304.698 524.04C305.386 524.04 306.058 524.12 306.746 524.36V523.24C306.746 522.136 306.074 521.384 304.762 521.384C303.706 521.384 302.81 521.848 302.362 523.144L301.402 522.856C302.042 521.064 303.338 520.392 304.826 520.392C306.922 520.392 307.802 521.656 307.802 523.112V526.6C307.802 527.56 307.962 528.424 308.154 529ZM306.746 525.48V525.288C306.09 525.016 305.418 524.936 304.762 524.936C303.482 524.936 302.474 525.512 302.474 526.632C302.474 527.656 303.194 528.2 304.218 528.2C305.322 528.2 306.746 527.544 306.746 525.48ZM318.801 520.392C320.417 520.392 321.361 521.416 321.361 523.176V529H320.273V523.336C320.273 521.96 319.617 521.384 318.513 521.384C317.025 521.384 316.401 522.536 316.401 524.232V529H315.313V523.336C315.313 521.96 314.657 521.384 313.553 521.384C312.065 521.384 311.441 522.536 311.441 524.232V529H310.353V520.52H311.441V521.848C311.953 520.904 312.849 520.392 313.841 520.392C315.105 520.392 315.953 521.016 316.257 522.12C316.737 521 317.713 520.392 318.801 520.392ZM326.434 528.968C326.178 529.032 325.97 529.064 325.73 529.064C324.402 529.064 323.778 528.232 323.778 526.984V517.16H324.866V526.984C324.866 527.704 325.25 528.072 325.922 528.072C326.098 528.072 326.274 528.056 326.434 528.008V528.968ZM333.76 526.6L334.56 527.048C334.16 528.072 333.104 529.128 331.216 529.128C328.832 529.128 327.424 527.352 327.424 524.648C327.424 522.168 328.896 520.392 331.104 520.392C332.928 520.392 334.496 521.704 334.496 524.008L334.464 524.952H328.528C328.624 527.208 329.696 528.168 331.328 528.168C332.608 528.168 333.36 527.432 333.76 526.6ZM331.104 521.352C329.824 521.352 328.672 522.04 328.528 524.056H333.424C333.472 522.152 332.352 521.352 331.104 521.352ZM345.034 529.128C342.218 529.128 339.914 526.808 339.914 523.016C339.914 519.288 342.218 517.032 345.034 517.032C347.85 517.032 350.154 519.288 350.154 523.016C350.154 526.808 347.85 529.128 345.034 529.128ZM345.034 528.072C347.178 528.072 349.002 526.36 349.002 523.016C349.002 519.608 347.242 518.088 345.034 518.088C342.826 518.088 341.066 519.608 341.066 523.016C341.066 526.36 342.89 528.072 345.034 528.072ZM351.562 522.728C351.562 521.384 352.826 520.392 354.602 520.392C356.138 520.392 357.322 521.128 357.674 522.248L356.778 522.6C356.442 521.784 355.658 521.352 354.57 521.352C353.386 521.352 352.618 521.848 352.618 522.632C352.618 523.336 353.082 523.768 354.09 523.976L355.21 524.2C357.066 524.568 357.93 525.368 357.93 526.632C357.93 528.104 356.618 529.128 354.73 529.128C353.018 529.128 351.818 528.456 351.242 527.176L352.17 526.792C352.57 527.688 353.45 528.168 354.698 528.168C356.01 528.168 356.874 527.592 356.874 526.728C356.874 525.928 356.426 525.496 355.306 525.256L353.93 524.968C352.378 524.648 351.562 523.864 351.562 522.728ZM362.527 528.968C362.271 529.032 362.063 529.064 361.823 529.064C360.495 529.064 359.871 528.232 359.871 526.984V517.16H360.959V526.984C360.959 527.704 361.343 528.072 362.015 528.072C362.191 528.072 362.367 528.056 362.527 528.008V528.968ZM367.294 529.128C365.198 529.128 363.518 527.4 363.518 524.744C363.518 522.12 365.182 520.392 367.294 520.392C369.406 520.392 371.07 522.12 371.07 524.744C371.07 527.4 369.39 529.128 367.294 529.128ZM367.294 528.168C368.75 528.168 369.95 527.016 369.95 524.744C369.95 522.488 368.734 521.352 367.294 521.352C365.854 521.352 364.638 522.488 364.638 524.744C364.638 527.016 365.838 528.168 367.294 528.168Z"
      fill="#2A2859" />
    <path
      d="M298.936 565L297.928 561.76H292.78L291.736 565H289.522L294.148 551.68H296.686L301.294 565H298.936ZM293.374 559.906H297.334L295.372 553.624L293.374 559.906ZM309.084 565L306.186 560.626L305.088 561.706V565H303.072V551.68H305.088V559.42L308.94 555.46H311.424L307.518 559.312L311.496 565H309.084ZM315.487 562.048C315.487 563.11 316.135 563.434 316.801 563.434C317.323 563.434 317.737 563.218 318.151 562.804L319.015 564.1C318.295 564.82 317.503 565.162 316.477 565.162C314.821 565.162 313.471 564.154 313.471 562.174V557.026H311.797V555.46H313.471V553.336L315.487 552.418V555.46H318.853V557.026H315.487V562.048ZM321.768 553.876C320.976 553.876 320.346 553.264 320.346 552.454C320.346 551.644 320.976 551.032 321.768 551.032C322.56 551.032 323.172 551.644 323.172 552.454C323.172 553.264 322.56 553.876 321.768 553.876ZM320.76 565V555.46H322.776V565H320.76ZM331.742 555.46H333.83L330.176 565H328.106L324.47 555.46H326.702L329.222 562.894L331.742 555.46ZM335.103 551.32H337.569V553.75H335.103V551.32ZM335.337 565V555.46H337.353V565H335.337ZM342.935 562.048C342.935 563.11 343.583 563.434 344.249 563.434C344.771 563.434 345.185 563.218 345.599 562.804L346.463 564.1C345.743 564.82 344.951 565.162 343.925 565.162C342.269 565.162 340.919 564.154 340.919 562.174V557.026H339.245V555.46H340.919V553.336L342.935 552.418V555.46H346.301V557.026H342.935V562.048ZM354.303 561.994L355.671 562.786C355.131 563.974 353.871 565.162 351.693 565.162C348.867 565.162 347.157 563.074 347.157 560.14C347.157 557.242 349.011 555.244 351.549 555.244C353.799 555.244 355.653 556.756 355.653 559.456L355.617 560.644H349.137C349.245 562.66 350.235 563.524 351.819 563.524C352.989 563.524 353.799 562.894 354.303 561.994ZM351.549 556.828C350.325 556.828 349.299 557.476 349.137 559.204H353.691C353.709 557.512 352.665 556.828 351.549 556.828ZM360.464 562.048C360.464 563.11 361.112 563.434 361.778 563.434C362.3 563.434 362.714 563.218 363.128 562.804L363.992 564.1C363.272 564.82 362.48 565.162 361.454 565.162C359.798 565.162 358.448 564.154 358.448 562.174V557.026H356.774V555.46H358.448V553.336L360.464 552.418V555.46H363.83V557.026H360.464V562.048ZM364.97 558.088C364.97 556.468 366.464 555.244 368.714 555.244C370.568 555.244 371.81 555.91 372.476 557.188L371.072 558.052C370.64 557.314 369.776 556.864 368.696 556.864C367.616 556.864 366.878 557.278 366.878 557.962C366.878 558.52 367.256 558.862 368.102 559.024L369.704 559.348C371.72 559.744 372.728 560.698 372.728 562.156C372.728 563.956 371.162 565.162 368.804 565.162C366.806 565.162 365.384 564.406 364.646 563.02L366.05 562.138C366.572 563.02 367.49 563.524 368.75 563.524C369.974 563.524 370.802 563.038 370.802 562.246C370.802 561.598 370.406 561.238 369.524 561.058L367.76 560.716C365.96 560.374 364.97 559.456 364.97 558.088ZM379.626 555.244C381.57 555.244 382.722 556.504 382.722 558.574V565H380.706V558.898C380.706 557.584 380.076 556.99 378.978 556.99C377.556 556.99 376.818 557.98 376.818 559.834V565H374.802V551.68H376.818V556.846C377.466 555.82 378.438 555.244 379.626 555.244ZM390.976 555.46H392.992V565H390.976V563.596C390.364 564.64 389.41 565.162 388.24 565.162C386.278 565.162 385.144 563.902 385.144 561.832V555.46H387.16V561.526C387.16 562.768 387.772 563.434 388.87 563.434C390.274 563.434 390.976 562.426 390.976 560.572V555.46ZM395.15 558.088C395.15 556.468 396.644 555.244 398.894 555.244C400.748 555.244 401.99 555.91 402.656 557.188L401.252 558.052C400.82 557.314 399.956 556.864 398.876 556.864C397.796 556.864 397.058 557.278 397.058 557.962C397.058 558.52 397.436 558.862 398.282 559.024L399.884 559.348C401.9 559.744 402.908 560.698 402.908 562.156C402.908 563.956 401.342 565.162 398.984 565.162C396.986 565.162 395.564 564.406 394.826 563.02L396.23 562.138C396.752 563.02 397.67 563.524 398.93 563.524C400.154 563.524 400.982 563.038 400.982 562.246C400.982 561.598 400.586 561.238 399.704 561.058L397.94 560.716C396.14 560.374 395.15 559.456 395.15 558.088ZM411.34 561.994L412.708 562.786C412.168 563.974 410.908 565.162 408.73 565.162C405.904 565.162 404.194 563.074 404.194 560.14C404.194 557.242 406.048 555.244 408.586 555.244C410.836 555.244 412.69 556.756 412.69 559.456L412.654 560.644H406.174C406.282 562.66 407.272 563.524 408.856 563.524C410.026 563.524 410.836 562.894 411.34 561.994ZM408.586 556.828C407.362 556.828 406.336 557.476 406.174 559.204H410.728C410.746 557.512 409.702 556.828 408.586 556.828ZM417.501 562.048C417.501 563.11 418.149 563.434 418.815 563.434C419.337 563.434 419.751 563.218 420.165 562.804L421.029 564.1C420.309 564.82 419.517 565.162 418.491 565.162C416.835 565.162 415.485 564.154 415.485 562.174V557.026H413.811V555.46H415.485V553.336L417.501 552.418V555.46H420.867V557.026H417.501V562.048ZM435.082 565L430.852 558.898L429.394 560.446V565H427.288V551.68H429.394V557.818L435.01 551.68H437.602L432.202 557.458L437.674 565H435.082ZM445.026 563.218H447.942V565H439.86V563.218H442.938V554.074L440.004 555.946V553.804L443.226 551.68H445.026V563.218Z"
      fill="#2A2859" />
    <rect x="460" y="558.219" width="14.0585" height="1.56205" fill="#2A2859" />
    <rect x="474.893" y="560.106" width="9.37233" height="1.56205"
      transform="rotate(-135 474.893 560.106)" fill="#2A2859" />
    <rect x="475.999" y="558.998" width="9.37233" height="1.56205"
      transform="rotate(135 475.999 558.998)" fill="#2A2859" />
    <rect width="359" height="138" transform="translate(264 617)" fill="#D1F9FF" />
    <path
      d="M298.552 681L297.32 677.384H292.36L291.112 681H289.96L294.184 669.16H295.544L299.736 681H298.552ZM292.696 676.392H296.984L294.856 670.104L292.696 676.392ZM303.734 680.968C303.478 681.032 303.27 681.064 303.03 681.064C301.702 681.064 301.078 680.232 301.078 678.984V669.16H302.166V678.984C302.166 679.704 302.55 680.072 303.222 680.072C303.398 680.072 303.574 680.056 303.734 680.008V680.968ZM309.07 672.392C310.766 672.392 311.758 673.432 311.758 675.336V681H310.67V675.496C310.67 673.96 309.966 673.384 308.782 673.384C307.294 673.384 306.606 674.536 306.606 676.232V681H305.518V672.52H306.606V673.832C307.118 672.904 308.046 672.392 309.07 672.392ZM320.498 681H319.506C319.378 680.536 319.282 679.976 319.282 679.336C318.85 680.328 317.746 681.128 316.37 681.128C314.866 681.128 313.73 680.152 313.73 678.696C313.73 676.952 315.298 676.04 317.042 676.04C317.73 676.04 318.402 676.12 319.09 676.36V675.24C319.09 674.136 318.418 673.384 317.106 673.384C316.05 673.384 315.154 673.848 314.706 675.144L313.746 674.856C314.386 673.064 315.682 672.392 317.17 672.392C319.266 672.392 320.146 673.656 320.146 675.112V678.6C320.146 679.56 320.306 680.424 320.498 681ZM319.09 677.48V677.288C318.434 677.016 317.762 676.936 317.106 676.936C315.826 676.936 314.818 677.512 314.818 678.632C314.818 679.656 315.538 680.2 316.562 680.2C317.666 680.2 319.09 679.544 319.09 677.48Z"
      fill="#2A2859" />
    <path
      d="M298.936 717L297.928 713.76H292.78L291.736 717H289.522L294.148 703.68H296.686L301.294 717H298.936ZM293.374 711.906H297.334L295.372 705.624L293.374 711.906ZM306.432 716.946C306.054 717.054 305.676 717.108 305.28 717.108C303.462 717.108 302.598 716.028 302.598 714.282V703.68H304.614V714.138C304.614 714.966 305.1 715.344 305.838 715.344C306.018 715.344 306.216 715.326 306.432 715.272V716.946ZM313.268 707.244C315.212 707.244 316.364 708.504 316.364 710.574V717H314.348V710.898C314.348 709.584 313.718 708.99 312.62 708.99C311.198 708.99 310.478 709.98 310.478 711.834V717H308.462V707.46H310.478V708.828C311.126 707.82 312.08 707.244 313.268 707.244ZM326.776 717H324.922C324.778 716.514 324.688 715.938 324.652 715.2C324.202 716.19 323.194 717.162 321.538 717.162C319.81 717.162 318.586 715.992 318.586 714.336C318.586 712.266 320.422 711.24 322.474 711.24C323.122 711.24 323.734 711.294 324.4 711.474V710.574C324.4 709.548 323.752 708.882 322.582 708.882C321.484 708.882 320.71 709.476 320.35 710.592L318.64 710.07C319.324 708.054 320.962 707.244 322.672 707.244C325.21 707.244 326.362 708.738 326.362 710.556V714.246C326.362 715.38 326.542 716.388 326.776 717ZM324.4 713.058V712.842C323.824 712.644 323.266 712.572 322.672 712.572C321.484 712.572 320.566 713.112 320.566 714.156C320.566 715.038 321.196 715.596 322.15 715.596C323.122 715.596 324.4 715.02 324.4 713.058ZM338.619 707.262C340.923 707.262 342.579 709.224 342.579 712.14C342.579 715.128 340.905 717.144 338.385 717.144C337.287 717.144 336.225 716.658 335.613 715.47V717H333.597V703.68H335.613V709.17C336.351 707.82 337.521 707.262 338.619 707.262ZM338.079 715.488C339.465 715.488 340.491 714.372 340.491 712.23C340.491 710.088 339.465 708.99 338.079 708.99C336.603 708.99 335.613 709.998 335.613 712.212C335.613 714.426 336.603 715.488 338.079 715.488ZM350.544 707.46H352.65L348.78 717.738C348.024 719.736 347.106 720.996 345.144 720.996C344.352 720.996 343.596 720.744 343.038 720.276L343.794 718.872C344.154 719.196 344.514 719.358 344.982 719.358C345.72 719.358 346.26 718.998 346.656 718.026L346.98 717.27L343.326 707.46H345.576L348.06 715.056L350.544 707.46ZM360.152 703.68H362.168V717H360.152V715.272C359.414 716.604 358.262 717.144 357.164 717.144C354.86 717.144 353.204 715.164 353.204 712.266C353.204 709.26 354.878 707.262 357.398 707.262C358.478 707.262 359.558 707.748 360.152 708.918V703.68ZM357.704 715.38C359.162 715.38 360.152 714.39 360.152 712.158C360.152 709.944 359.18 708.882 357.704 708.882C356.318 708.882 355.292 709.998 355.292 712.158C355.292 714.3 356.318 715.38 357.704 715.38ZM371.365 713.994L372.733 714.786C372.193 715.974 370.933 717.162 368.755 717.162C365.929 717.162 364.219 715.074 364.219 712.14C364.219 709.242 366.073 707.244 368.611 707.244C370.861 707.244 372.715 708.756 372.715 711.456L372.679 712.644H366.199C366.307 714.66 367.297 715.524 368.881 715.524C370.051 715.524 370.861 714.894 371.365 713.994ZM368.611 708.828C367.387 708.828 366.361 709.476 366.199 711.204H370.753C370.771 709.512 369.727 708.828 368.611 708.828ZM378.836 716.946C378.458 717.054 378.08 717.108 377.684 717.108C375.866 717.108 375.002 716.028 375.002 714.282V703.68H377.018V714.138C377.018 714.966 377.504 715.344 378.242 715.344C378.422 715.344 378.62 715.326 378.836 715.272V716.946ZM380.257 710.088C380.257 708.468 381.751 707.244 384.001 707.244C385.855 707.244 387.097 707.91 387.763 709.188L386.359 710.052C385.927 709.314 385.063 708.864 383.983 708.864C382.903 708.864 382.165 709.278 382.165 709.962C382.165 710.52 382.543 710.862 383.389 711.024L384.991 711.348C387.007 711.744 388.015 712.698 388.015 714.156C388.015 715.956 386.449 717.162 384.091 717.162C382.093 717.162 380.671 716.406 379.933 715.02L381.337 714.138C381.859 715.02 382.777 715.524 384.037 715.524C385.261 715.524 386.089 715.038 386.089 714.246C386.089 713.598 385.693 713.238 384.811 713.058L383.047 712.716C381.247 712.374 380.257 711.456 380.257 710.088ZM394.912 707.244C396.856 707.244 398.008 708.504 398.008 710.574V717H395.992V710.898C395.992 709.584 395.362 708.99 394.264 708.99C392.842 708.99 392.104 709.98 392.104 711.834V717H390.088V703.68H392.104V708.846C392.752 707.82 393.724 707.244 394.912 707.244ZM406.262 707.46H408.278V717H406.262V715.596C405.65 716.64 404.696 717.162 403.526 717.162C401.564 717.162 400.43 715.902 400.43 713.832V707.46H402.446V713.526C402.446 714.768 403.058 715.434 404.156 715.434C405.56 715.434 406.262 714.426 406.262 712.572V707.46ZM410.436 710.088C410.436 708.468 411.93 707.244 414.18 707.244C416.034 707.244 417.276 707.91 417.942 709.188L416.538 710.052C416.106 709.314 415.242 708.864 414.162 708.864C413.082 708.864 412.344 709.278 412.344 709.962C412.344 710.52 412.722 710.862 413.568 711.024L415.17 711.348C417.186 711.744 418.194 712.698 418.194 714.156C418.194 715.956 416.628 717.162 414.27 717.162C412.272 717.162 410.85 716.406 410.112 715.02L411.516 714.138C412.038 715.02 412.956 715.524 414.216 715.524C415.44 715.524 416.268 715.038 416.268 714.246C416.268 713.598 415.872 713.238 414.99 713.058L413.226 712.716C411.426 712.374 410.436 711.456 410.436 710.088Z"
      fill="#2A2859" />
    <rect x="430" y="710.219" width="14.0585" height="1.56205" fill="#2A2859" />
    <rect x="444.893" y="712.106" width="9.37233" height="1.56205"
      transform="rotate(-135 444.893 712.106)" fill="#2A2859" />
    <rect x="445.999" y="710.998" width="9.37233" height="1.56205"
      transform="rotate(135 445.999 710.998)" fill="#2A2859" />
    <rect width="359" height="139" transform="translate(264 769)" fill="#D1F9FF" />
    <path
      d="M295.366 834.128C292.198 834.128 289.894 831.76 289.894 828.016C289.894 824.384 292.31 822.032 295.27 822.032C297.35 822.032 298.822 822.992 299.51 824.624L298.486 825.104C297.894 823.776 296.646 823.088 295.238 823.088C292.918 823.088 291.046 824.752 291.046 828.016C291.046 831.28 292.838 833.136 295.414 833.136C296.726 833.136 297.638 832.864 298.502 832.336V828.784H294.15V827.76H299.526V832.784C298.55 833.648 296.934 834.128 295.366 834.128ZM305.029 825.392C306.133 825.392 306.933 826.128 306.933 827.568V828.4L305.941 828.592V827.76C305.941 826.912 305.653 826.352 304.789 826.352C303.813 826.352 303.077 827.072 303.077 828.784V834H301.989V825.52H303.077V826.576C303.525 825.776 304.277 825.392 305.029 825.392ZM311.63 834.128C309.534 834.128 307.854 832.4 307.854 829.744C307.854 827.12 309.518 825.392 311.63 825.392C313.742 825.392 315.406 827.12 315.406 829.744C315.406 832.4 313.726 834.128 311.63 834.128ZM311.63 833.168C313.086 833.168 314.286 832.016 314.286 829.744C314.286 827.488 313.07 826.352 311.63 826.352C310.19 826.352 308.974 827.488 308.974 829.744C308.974 832.016 310.174 833.168 311.63 833.168ZM320.457 825.392C321.561 825.392 322.361 826.128 322.361 827.568V828.4L321.369 828.592V827.76C321.369 826.912 321.081 826.352 320.217 826.352C319.241 826.352 318.505 827.072 318.505 828.784V834H317.417V825.52H318.505V826.576C318.953 825.776 319.705 825.392 320.457 825.392ZM329.082 825.52H330.17V834H329.082V832.704C328.57 833.616 327.674 834.128 326.634 834.128C324.97 834.128 323.962 833.056 323.962 831.216V825.52H325.05V831.12C325.05 832.512 325.754 833.152 326.938 833.152C328.442 833.152 329.082 831.952 329.082 830.288V825.52ZM338.513 822.16H339.601V834H338.513V832.416C337.953 833.504 336.833 834.112 335.729 834.112C333.569 834.112 332.113 832.304 332.113 829.84C332.113 827.232 333.585 825.392 335.857 825.392C337.041 825.392 338.001 825.984 338.513 827.056V822.16ZM335.841 833.152C337.537 833.152 338.513 831.888 338.513 829.808C338.513 827.6 337.553 826.352 335.857 826.352C334.273 826.352 333.233 827.568 333.233 829.792C333.233 831.936 334.273 833.152 335.841 833.152Z"
      fill="#2A2859" />
    <path
      d="M298.936 870L297.928 866.76H292.78L291.736 870H289.522L294.148 856.68H296.686L301.294 870H298.936ZM293.374 864.906H297.334L295.372 858.624L293.374 864.906ZM313.584 860.244C315.492 860.244 316.59 861.486 316.59 863.484V870H314.574V863.826C314.574 862.566 313.98 861.99 312.936 861.99C311.532 861.99 310.83 862.962 310.83 864.834V870H308.814V863.826C308.814 862.566 308.22 861.99 307.176 861.99C305.79 861.99 305.088 862.962 305.088 864.834V870H303.072V860.46H305.088V861.81C305.736 860.784 306.672 860.244 307.824 860.244C309.282 860.244 310.236 860.946 310.65 862.134C311.298 860.874 312.306 860.244 313.584 860.244ZM329.855 860.244C331.763 860.244 332.861 861.486 332.861 863.484V870H330.845V863.826C330.845 862.566 330.251 861.99 329.207 861.99C327.803 861.99 327.101 862.962 327.101 864.834V870H325.085V863.826C325.085 862.566 324.491 861.99 323.447 861.99C322.061 861.99 321.359 862.962 321.359 864.834V870H319.343V860.46H321.359V861.81C322.007 860.784 322.943 860.244 324.095 860.244C325.553 860.244 326.507 860.946 326.921 862.134C327.569 860.874 328.577 860.244 329.855 860.244ZM342.166 866.994L343.534 867.786C342.994 868.974 341.734 870.162 339.556 870.162C336.73 870.162 335.02 868.074 335.02 865.14C335.02 862.242 336.874 860.244 339.412 860.244C341.662 860.244 343.516 861.756 343.516 864.456L343.48 865.644H337C337.108 867.66 338.098 868.524 339.682 868.524C340.852 868.524 341.662 867.894 342.166 866.994ZM339.412 861.828C338.188 861.828 337.162 862.476 337 864.204H341.554C341.572 862.512 340.528 861.828 339.412 861.828ZM350.177 860.244C351.563 860.244 352.463 861.162 352.463 862.8V864.06L350.843 864.348V863.376C350.843 862.512 350.537 861.918 349.601 861.918C348.575 861.918 347.819 862.602 347.819 864.42V870H345.803V860.46H347.819V861.738C348.359 860.676 349.349 860.244 350.177 860.244ZM359.938 860.46H361.954V870H359.938V868.596C359.326 869.64 358.372 870.162 357.202 870.162C355.24 870.162 354.106 868.902 354.106 866.832V860.46H356.122V866.526C356.122 867.768 356.734 868.434 357.832 868.434C359.236 868.434 359.938 867.426 359.938 865.572V860.46ZM370.969 856.68H372.985V870H370.969V868.272C370.231 869.604 369.079 870.144 367.981 870.144C365.677 870.144 364.021 868.164 364.021 865.266C364.021 862.26 365.695 860.262 368.215 860.262C369.295 860.262 370.375 860.748 370.969 861.918V856.68ZM368.521 868.38C369.979 868.38 370.969 867.39 370.969 865.158C370.969 862.944 369.997 861.882 368.521 861.882C367.135 861.882 366.109 862.998 366.109 865.158C366.109 867.3 367.135 868.38 368.521 868.38ZM387.722 870H385.868C385.724 869.514 385.634 868.938 385.598 868.2C385.148 869.19 384.14 870.162 382.484 870.162C380.756 870.162 379.532 868.992 379.532 867.336C379.532 865.266 381.368 864.24 383.42 864.24C384.068 864.24 384.68 864.294 385.346 864.474V863.574C385.346 862.548 384.698 861.882 383.528 861.882C382.43 861.882 381.656 862.476 381.296 863.592L379.586 863.07C380.27 861.054 381.908 860.244 383.618 860.244C386.156 860.244 387.308 861.738 387.308 863.556V867.246C387.308 868.38 387.488 869.388 387.722 870ZM385.346 866.058V865.842C384.77 865.644 384.212 865.572 383.618 865.572C382.43 865.572 381.512 866.112 381.512 867.156C381.512 868.038 382.142 868.596 383.096 868.596C384.068 868.596 385.346 868.02 385.346 866.058ZM396.149 870L393.251 865.626L392.153 866.706V870H390.137V856.68H392.153V864.42L396.005 860.46H398.489L394.583 864.312L398.561 870H396.149ZM402.551 867.048C402.551 868.11 403.199 868.434 403.865 868.434C404.387 868.434 404.801 868.218 405.215 867.804L406.079 869.1C405.359 869.82 404.567 870.162 403.541 870.162C401.885 870.162 400.535 869.154 400.535 867.174V862.026H398.861V860.46H400.535V858.336L402.551 857.418V860.46H405.917V862.026H402.551V867.048ZM408.832 858.876C408.04 858.876 407.41 858.264 407.41 857.454C407.41 856.644 408.04 856.032 408.832 856.032C409.624 856.032 410.236 856.644 410.236 857.454C410.236 858.264 409.624 858.876 408.832 858.876ZM407.824 870V860.46H409.84V870H407.824ZM418.806 860.46H420.894L417.24 870H415.17L411.534 860.46H413.766L416.286 867.894L418.806 860.46ZM422.167 856.32H424.633V858.75H422.167V856.32ZM422.401 870V860.46H424.417V870H422.401ZM429.999 867.048C429.999 868.11 430.647 868.434 431.313 868.434C431.835 868.434 432.249 868.218 432.663 867.804L433.527 869.1C432.807 869.82 432.015 870.162 430.989 870.162C429.333 870.162 427.983 869.154 427.983 867.174V862.026H426.309V860.46H427.983V858.336L429.999 857.418V860.46H433.365V862.026H429.999V867.048ZM441.367 866.994L442.735 867.786C442.195 868.974 440.935 870.162 438.757 870.162C435.931 870.162 434.221 868.074 434.221 865.14C434.221 862.242 436.075 860.244 438.613 860.244C440.863 860.244 442.717 861.756 442.717 864.456L442.681 865.644H436.201C436.309 867.66 437.299 868.524 438.883 868.524C440.053 868.524 440.863 867.894 441.367 866.994ZM438.613 861.828C437.389 861.828 436.363 862.476 436.201 864.204H440.755C440.773 862.512 439.729 861.828 438.613 861.828ZM447.528 867.048C447.528 868.11 448.176 868.434 448.842 868.434C449.364 868.434 449.778 868.218 450.192 867.804L451.056 869.1C450.336 869.82 449.544 870.162 448.518 870.162C446.862 870.162 445.512 869.154 445.512 867.174V862.026H443.838V860.46H445.512V858.336L447.528 857.418V860.46H450.894V862.026H447.528V867.048ZM452.034 863.088C452.034 861.468 453.528 860.244 455.778 860.244C457.632 860.244 458.874 860.91 459.54 862.188L458.136 863.052C457.704 862.314 456.84 861.864 455.76 861.864C454.68 861.864 453.942 862.278 453.942 862.962C453.942 863.52 454.32 863.862 455.166 864.024L456.768 864.348C458.784 864.744 459.792 865.698 459.792 867.156C459.792 868.956 458.226 870.162 455.868 870.162C453.87 870.162 452.448 869.406 451.71 868.02L453.114 867.138C453.636 868.02 454.554 868.524 455.814 868.524C457.038 868.524 457.866 868.038 457.866 867.246C457.866 866.598 457.47 866.238 456.588 866.058L454.824 865.716C453.024 865.374 452.034 864.456 452.034 863.088ZM466.69 860.244C468.634 860.244 469.786 861.504 469.786 863.574V870H467.77V863.898C467.77 862.584 467.14 861.99 466.042 861.99C464.62 861.99 463.882 862.98 463.882 864.834V870H461.866V856.68H463.882V861.846C464.53 860.82 465.502 860.244 466.69 860.244ZM478.04 860.46H480.056V870H478.04V868.596C477.428 869.64 476.474 870.162 475.304 870.162C473.342 870.162 472.208 868.902 472.208 866.832V860.46H474.224V866.526C474.224 867.768 474.836 868.434 475.934 868.434C477.338 868.434 478.04 867.426 478.04 865.572V860.46ZM482.214 863.088C482.214 861.468 483.708 860.244 485.958 860.244C487.812 860.244 489.054 860.91 489.72 862.188L488.316 863.052C487.884 862.314 487.02 861.864 485.94 861.864C484.86 861.864 484.122 862.278 484.122 862.962C484.122 863.52 484.5 863.862 485.346 864.024L486.948 864.348C488.964 864.744 489.972 865.698 489.972 867.156C489.972 868.956 488.406 870.162 486.048 870.162C484.05 870.162 482.628 869.406 481.89 868.02L483.294 867.138C483.816 868.02 484.734 868.524 485.994 868.524C487.218 868.524 488.046 868.038 488.046 867.246C488.046 866.598 487.65 866.238 486.768 866.058L485.004 865.716C483.204 865.374 482.214 864.456 482.214 863.088Z"
      fill="#2A2859" />
    <rect x="501" y="863.219" width="14.0585" height="1.56205" fill="#2A2859" />
    <rect x="515.893" y="865.106" width="9.37233" height="1.56205"
      transform="rotate(-135 515.893 865.106)" fill="#2A2859" />
    <rect x="516.999" y="863.998" width="9.37233" height="1.56205"
      transform="rotate(135 516.999 863.998)" fill="#2A2859" />
  </g>
  <defs>
    <clipPath id="clip0_6152_1919">
      <rect x="248" y="69" width="393" height="831" rx="40" fill="white" />
    </clipPath>
  </defs>
</svg>