<svg width="898" height="194" viewBox="0 0 898 194" fill="none" xmlns="http://www.w3.org/2000/svg">
<rect width="898" height="194" fill="white"/>
<rect x="246" y="86" width="22" height="22" fill="white"/>
<rect x="246" y="86" width="22" height="22" stroke="#2A2859" stroke-width="2"/>
<path d="M283.144 92.088C280.824 92.088 278.952 93.752 278.952 97.016C278.952 100.248 280.68 102.072 283.16 102.072C284.6 102.072 286.008 101.384 286.696 99.544L287.608 100.056C286.68 102.264 284.984 103.128 283.112 103.128C280.04 103.128 277.8 100.76 277.8 97.016C277.8 93.384 280.216 91.032 283.176 91.032C285.256 91.032 286.728 91.992 287.416 93.624L286.392 94.104C285.8 92.776 284.552 92.088 283.144 92.088ZM293.073 94.392C294.769 94.392 295.761 95.432 295.761 97.336V103H294.673V97.496C294.673 95.96 293.969 95.384 292.785 95.384C291.297 95.384 290.609 96.536 290.609 98.232V103H289.521V91.16H290.609V95.832C291.121 94.904 292.049 94.392 293.073 94.392ZM303.971 100.6L304.771 101.048C304.371 102.072 303.315 103.128 301.427 103.128C299.043 103.128 297.635 101.352 297.635 98.648C297.635 96.168 299.107 94.392 301.315 94.392C303.139 94.392 304.707 95.704 304.707 98.008L304.675 98.952H298.739C298.835 101.208 299.907 102.168 301.539 102.168C302.819 102.168 303.571 101.432 303.971 100.6ZM301.315 95.352C300.035 95.352 298.883 96.04 298.739 98.056H303.635C303.683 96.152 302.563 95.352 301.315 95.352ZM312.471 97.048C312.119 95.992 311.271 95.352 310.167 95.352C308.487 95.352 307.383 96.648 307.383 98.648C307.383 100.84 308.487 102.168 310.295 102.168C311.415 102.168 312.311 101.512 312.759 100.408L313.559 100.856C313.047 102.264 311.735 103.128 310.263 103.128C307.815 103.128 306.263 101.352 306.263 98.648C306.263 96.184 307.927 94.392 310.199 94.392C311.863 94.392 313.063 95.384 313.399 96.728L312.471 97.048ZM320.778 103L317.658 98.792L316.618 99.784V103H315.53V91.16H316.618V98.504L320.65 94.52H322.09L318.394 98.072L322.154 103H320.778ZM327.686 94.408C329.846 94.408 331.302 96.216 331.302 98.68C331.302 101.288 329.83 103.128 327.558 103.128C326.374 103.128 325.414 102.536 324.902 101.464V103H323.814V91.16H324.902V96.104C325.462 95.016 326.582 94.408 327.686 94.408ZM327.558 102.168C329.142 102.168 330.182 100.952 330.182 98.728C330.182 96.584 329.142 95.368 327.574 95.368C325.878 95.368 324.902 96.632 324.902 98.712C324.902 100.92 325.862 102.168 327.558 102.168ZM336.549 103.128C334.453 103.128 332.773 101.4 332.773 98.744C332.773 96.12 334.437 94.392 336.549 94.392C338.661 94.392 340.325 96.12 340.325 98.744C340.325 101.4 338.645 103.128 336.549 103.128ZM336.549 102.168C338.005 102.168 339.205 101.016 339.205 98.744C339.205 96.488 337.989 95.352 336.549 95.352C335.109 95.352 333.893 96.488 333.893 98.744C333.893 101.016 335.093 102.168 336.549 102.168ZM348.359 103H347.015L344.679 99.352L342.407 103H341.159L344.087 98.632L341.255 94.52H342.599L344.855 97.976L347.015 94.52H348.263L345.431 98.664L348.359 103Z" fill="#2A2859"/>
<rect x="398" y="86" width="22" height="22" fill="white"/>
<rect x="398" y="86" width="22" height="22" stroke="#1F42AA" stroke-width="2"/>
<path d="M435.144 92.088C432.824 92.088 430.952 93.752 430.952 97.016C430.952 100.248 432.68 102.072 435.16 102.072C436.6 102.072 438.008 101.384 438.696 99.544L439.608 100.056C438.68 102.264 436.984 103.128 435.112 103.128C432.04 103.128 429.8 100.76 429.8 97.016C429.8 93.384 432.216 91.032 435.176 91.032C437.256 91.032 438.728 91.992 439.416 93.624L438.392 94.104C437.8 92.776 436.552 92.088 435.144 92.088ZM445.073 94.392C446.769 94.392 447.761 95.432 447.761 97.336V103H446.673V97.496C446.673 95.96 445.969 95.384 444.785 95.384C443.297 95.384 442.609 96.536 442.609 98.232V103H441.521V91.16H442.609V95.832C443.121 94.904 444.049 94.392 445.073 94.392ZM455.971 100.6L456.771 101.048C456.371 102.072 455.315 103.128 453.427 103.128C451.043 103.128 449.635 101.352 449.635 98.648C449.635 96.168 451.107 94.392 453.315 94.392C455.139 94.392 456.707 95.704 456.707 98.008L456.675 98.952H450.739C450.835 101.208 451.907 102.168 453.539 102.168C454.819 102.168 455.571 101.432 455.971 100.6ZM453.315 95.352C452.035 95.352 450.883 96.04 450.739 98.056H455.635C455.683 96.152 454.563 95.352 453.315 95.352ZM464.471 97.048C464.119 95.992 463.271 95.352 462.167 95.352C460.487 95.352 459.383 96.648 459.383 98.648C459.383 100.84 460.487 102.168 462.295 102.168C463.415 102.168 464.311 101.512 464.759 100.408L465.559 100.856C465.047 102.264 463.735 103.128 462.263 103.128C459.815 103.128 458.263 101.352 458.263 98.648C458.263 96.184 459.927 94.392 462.199 94.392C463.863 94.392 465.063 95.384 465.399 96.728L464.471 97.048ZM472.778 103L469.658 98.792L468.618 99.784V103H467.53V91.16H468.618V98.504L472.65 94.52H474.09L470.394 98.072L474.154 103H472.778ZM479.686 94.408C481.846 94.408 483.302 96.216 483.302 98.68C483.302 101.288 481.83 103.128 479.558 103.128C478.374 103.128 477.414 102.536 476.902 101.464V103H475.814V91.16H476.902V96.104C477.462 95.016 478.582 94.408 479.686 94.408ZM479.558 102.168C481.142 102.168 482.182 100.952 482.182 98.728C482.182 96.584 481.142 95.368 479.574 95.368C477.878 95.368 476.902 96.632 476.902 98.712C476.902 100.92 477.862 102.168 479.558 102.168ZM488.549 103.128C486.453 103.128 484.773 101.4 484.773 98.744C484.773 96.12 486.437 94.392 488.549 94.392C490.661 94.392 492.325 96.12 492.325 98.744C492.325 101.4 490.645 103.128 488.549 103.128ZM488.549 102.168C490.005 102.168 491.205 101.016 491.205 98.744C491.205 96.488 489.989 95.352 488.549 95.352C487.109 95.352 485.893 96.488 485.893 98.744C485.893 101.016 487.093 102.168 488.549 102.168ZM500.359 103H499.015L496.679 99.352L494.407 103H493.159L496.087 98.632L493.255 94.52H494.599L496.855 97.976L499.015 94.52H500.263L497.431 98.664L500.359 103Z" fill="#1F42AA"/>
<rect x="550" y="86" width="22" height="22" fill="#2A2859"/>
<path fill-rule="evenodd" clip-rule="evenodd" d="M566.778 94.1606L559.498 101.441L555.217 97.1606L556.278 96.1L559.498 99.3196L565.717 93.1L566.778 94.1606Z" fill="white"/>
<rect x="550" y="86" width="22" height="22" stroke="#2A2859" stroke-width="2"/>
<path d="M587.144 92.088C584.824 92.088 582.952 93.752 582.952 97.016C582.952 100.248 584.68 102.072 587.16 102.072C588.6 102.072 590.008 101.384 590.696 99.544L591.608 100.056C590.68 102.264 588.984 103.128 587.112 103.128C584.04 103.128 581.8 100.76 581.8 97.016C581.8 93.384 584.216 91.032 587.176 91.032C589.256 91.032 590.728 91.992 591.416 93.624L590.392 94.104C589.8 92.776 588.552 92.088 587.144 92.088ZM597.073 94.392C598.769 94.392 599.761 95.432 599.761 97.336V103H598.673V97.496C598.673 95.96 597.969 95.384 596.785 95.384C595.297 95.384 594.609 96.536 594.609 98.232V103H593.521V91.16H594.609V95.832C595.121 94.904 596.049 94.392 597.073 94.392ZM607.971 100.6L608.771 101.048C608.371 102.072 607.315 103.128 605.427 103.128C603.043 103.128 601.635 101.352 601.635 98.648C601.635 96.168 603.107 94.392 605.315 94.392C607.139 94.392 608.707 95.704 608.707 98.008L608.675 98.952H602.739C602.835 101.208 603.907 102.168 605.539 102.168C606.819 102.168 607.571 101.432 607.971 100.6ZM605.315 95.352C604.035 95.352 602.883 96.04 602.739 98.056H607.635C607.683 96.152 606.563 95.352 605.315 95.352ZM616.471 97.048C616.119 95.992 615.271 95.352 614.167 95.352C612.487 95.352 611.383 96.648 611.383 98.648C611.383 100.84 612.487 102.168 614.295 102.168C615.415 102.168 616.311 101.512 616.759 100.408L617.559 100.856C617.047 102.264 615.735 103.128 614.263 103.128C611.815 103.128 610.263 101.352 610.263 98.648C610.263 96.184 611.927 94.392 614.199 94.392C615.863 94.392 617.063 95.384 617.399 96.728L616.471 97.048ZM624.778 103L621.658 98.792L620.618 99.784V103H619.53V91.16H620.618V98.504L624.65 94.52H626.09L622.394 98.072L626.154 103H624.778ZM631.686 94.408C633.846 94.408 635.302 96.216 635.302 98.68C635.302 101.288 633.83 103.128 631.558 103.128C630.374 103.128 629.414 102.536 628.902 101.464V103H627.814V91.16H628.902V96.104C629.462 95.016 630.582 94.408 631.686 94.408ZM631.558 102.168C633.142 102.168 634.182 100.952 634.182 98.728C634.182 96.584 633.142 95.368 631.574 95.368C629.878 95.368 628.902 96.632 628.902 98.712C628.902 100.92 629.862 102.168 631.558 102.168ZM640.549 103.128C638.453 103.128 636.773 101.4 636.773 98.744C636.773 96.12 638.437 94.392 640.549 94.392C642.661 94.392 644.325 96.12 644.325 98.744C644.325 101.4 642.645 103.128 640.549 103.128ZM640.549 102.168C642.005 102.168 643.205 101.016 643.205 98.744C643.205 96.488 641.989 95.352 640.549 95.352C639.109 95.352 637.893 96.488 637.893 98.744C637.893 101.016 639.093 102.168 640.549 102.168ZM652.359 103H651.015L648.679 99.352L646.407 103H645.159L648.087 98.632L645.255 94.52H646.599L648.855 97.976L651.015 94.52H652.263L649.431 98.664L652.359 103Z" fill="#2A2859"/>
</svg>
