<svg width="802" height="302" viewBox="0 0 802 302" fill="none" xmlns="http://www.w3.org/2000/svg">
<rect width="802" height="302" fill="white"/>
<rect x="202" y="120" width="22" height="22" fill="white"/>
<rect x="202" y="120" width="22" height="22" stroke="#2A2859" stroke-width="2"/>
<path d="M239.144 126.088C236.824 126.088 234.952 127.752 234.952 131.016C234.952 134.248 236.68 136.072 239.16 136.072C240.6 136.072 242.008 135.384 242.696 133.544L243.608 134.056C242.68 136.264 240.984 137.128 239.112 137.128C236.04 137.128 233.8 134.76 233.8 131.016C233.8 127.384 236.216 125.032 239.176 125.032C241.256 125.032 242.728 125.992 243.416 127.624L242.392 128.104C241.8 126.776 240.552 126.088 239.144 126.088ZM249.073 128.392C250.769 128.392 251.761 129.432 251.761 131.336V137H250.673V131.496C250.673 129.96 249.969 129.384 248.785 129.384C247.297 129.384 246.609 130.536 246.609 132.232V137H245.521V125.16H246.609V129.832C247.121 128.904 248.049 128.392 249.073 128.392ZM259.971 134.6L260.771 135.048C260.371 136.072 259.315 137.128 257.427 137.128C255.043 137.128 253.635 135.352 253.635 132.648C253.635 130.168 255.107 128.392 257.315 128.392C259.139 128.392 260.707 129.704 260.707 132.008L260.675 132.952H254.739C254.835 135.208 255.907 136.168 257.539 136.168C258.819 136.168 259.571 135.432 259.971 134.6ZM257.315 129.352C256.035 129.352 254.883 130.04 254.739 132.056H259.635C259.683 130.152 258.563 129.352 257.315 129.352ZM268.471 131.048C268.119 129.992 267.271 129.352 266.167 129.352C264.487 129.352 263.383 130.648 263.383 132.648C263.383 134.84 264.487 136.168 266.295 136.168C267.415 136.168 268.311 135.512 268.759 134.408L269.559 134.856C269.047 136.264 267.735 137.128 266.263 137.128C263.815 137.128 262.263 135.352 262.263 132.648C262.263 130.184 263.927 128.392 266.199 128.392C267.863 128.392 269.063 129.384 269.399 130.728L268.471 131.048ZM276.778 137L273.658 132.792L272.618 133.784V137H271.53V125.16H272.618V132.504L276.65 128.52H278.09L274.394 132.072L278.154 137H276.778ZM283.686 128.408C285.846 128.408 287.302 130.216 287.302 132.68C287.302 135.288 285.83 137.128 283.558 137.128C282.374 137.128 281.414 136.536 280.902 135.464V137H279.814V125.16H280.902V130.104C281.462 129.016 282.582 128.408 283.686 128.408ZM283.558 136.168C285.142 136.168 286.182 134.952 286.182 132.728C286.182 130.584 285.142 129.368 283.574 129.368C281.878 129.368 280.902 130.632 280.902 132.712C280.902 134.92 281.862 136.168 283.558 136.168ZM292.549 137.128C290.453 137.128 288.773 135.4 288.773 132.744C288.773 130.12 290.437 128.392 292.549 128.392C294.661 128.392 296.325 130.12 296.325 132.744C296.325 135.4 294.645 137.128 292.549 137.128ZM292.549 136.168C294.005 136.168 295.205 135.016 295.205 132.744C295.205 130.488 293.989 129.352 292.549 129.352C291.109 129.352 289.893 130.488 289.893 132.744C289.893 135.016 291.093 136.168 292.549 136.168ZM304.359 137H303.015L300.679 133.352L298.407 137H297.159L300.087 132.632L297.255 128.52H298.599L300.855 131.976L303.015 128.52H304.263L301.431 132.664L304.359 137Z" fill="#2A2859"/>
<path d="M234.232 167V156.64H237.62C240.182 156.64 242.156 158.642 242.156 161.764C242.156 164.886 240.182 167 237.62 167H234.232ZM235.212 166.104H237.424C239.58 166.104 241.148 164.648 241.148 161.764C241.148 158.908 239.566 157.536 237.396 157.536H235.212V166.104ZM249.129 164.9L249.829 165.292C249.479 166.188 248.555 167.112 246.903 167.112C244.817 167.112 243.585 165.558 243.585 163.192C243.585 161.022 244.873 159.468 246.805 159.468C248.401 159.468 249.773 160.616 249.773 162.632L249.745 163.458H244.551C244.635 165.432 245.573 166.272 247.001 166.272C248.121 166.272 248.779 165.628 249.129 164.9ZM246.805 160.308C245.685 160.308 244.677 160.91 244.551 162.674H248.835C248.877 161.008 247.897 160.308 246.805 160.308ZM254.894 159.468C256.378 159.468 257.246 160.378 257.246 162.044V167H256.294V162.184C256.294 160.84 255.678 160.336 254.642 160.336C253.34 160.336 252.738 161.344 252.738 162.828V167H251.786V159.58H252.738V160.728C253.186 159.916 253.998 159.468 254.894 159.468ZM262.646 159.468C264.13 159.468 264.998 160.378 264.998 162.044V167H264.046V162.184C264.046 160.84 263.43 160.336 262.394 160.336C261.092 160.336 260.49 161.344 260.49 162.828V167H259.538V159.58H260.49V160.728C260.938 159.916 261.75 159.468 262.646 159.468ZM272.358 164.9L273.058 165.292C272.708 166.188 271.784 167.112 270.132 167.112C268.046 167.112 266.814 165.558 266.814 163.192C266.814 161.022 268.102 159.468 270.034 159.468C271.63 159.468 273.002 160.616 273.002 162.632L272.974 163.458H267.78C267.864 165.432 268.802 166.272 270.23 166.272C271.35 166.272 272.008 165.628 272.358 164.9ZM270.034 160.308C268.914 160.308 267.906 160.91 267.78 162.674H272.064C272.106 161.008 271.126 160.308 270.034 160.308ZM283.329 159.58H284.309L281.397 167H280.557L277.645 159.58H278.681L281.005 165.95L283.329 159.58ZM291.017 167H290.149C290.037 166.594 289.953 166.104 289.953 165.544C289.575 166.412 288.609 167.112 287.405 167.112C286.089 167.112 285.095 166.258 285.095 164.984C285.095 163.458 286.467 162.66 287.993 162.66C288.595 162.66 289.183 162.73 289.785 162.94V161.96C289.785 160.994 289.197 160.336 288.049 160.336C287.125 160.336 286.341 160.742 285.949 161.876L285.109 161.624C285.669 160.056 286.803 159.468 288.105 159.468C289.939 159.468 290.709 160.574 290.709 161.848V164.9C290.709 165.74 290.849 166.496 291.017 167ZM289.785 163.92V163.752C289.211 163.514 288.623 163.444 288.049 163.444C286.929 163.444 286.047 163.948 286.047 164.928C286.047 165.824 286.677 166.3 287.573 166.3C288.539 166.3 289.785 165.726 289.785 163.92ZM295.44 166.972C295.216 167.028 295.034 167.056 294.824 167.056C293.662 167.056 293.116 166.328 293.116 165.236V156.64H294.068V165.236C294.068 165.866 294.404 166.188 294.992 166.188C295.146 166.188 295.3 166.174 295.44 166.132V166.972ZM303.567 160.364H301.971V160.63C302.335 161.078 302.531 161.638 302.531 162.184C302.531 163.542 301.551 164.928 299.465 164.928H299.143C298.303 164.928 297.701 165.25 297.701 165.74C297.701 166.118 297.995 166.384 298.611 166.384H301.621C302.825 166.384 303.441 166.972 303.441 167.896C303.441 169.366 301.747 170.136 299.661 170.136C297.785 170.136 296.483 169.534 296.035 168.232L296.805 167.882C297.323 169.1 298.415 169.338 299.661 169.338C301.201 169.338 302.489 168.876 302.489 167.98C302.489 167.56 302.265 167.252 301.593 167.252H298.401C297.365 167.252 296.749 166.762 296.749 165.992C296.749 165.334 297.295 164.76 298.205 164.522C297.225 164.13 296.679 163.094 296.679 162.184C296.679 160.854 297.673 159.468 299.633 159.468C300.403 159.468 300.991 159.72 301.439 160.098V159.58H303.567V160.364ZM299.619 164.144C300.935 164.144 301.593 163.234 301.593 162.184C301.593 161.148 300.935 160.28 299.619 160.28C298.289 160.28 297.617 161.162 297.617 162.184C297.617 163.22 298.289 164.144 299.619 164.144ZM306.262 158.544V159.58H308.334V160.364H306.262V167H305.31V160.364H303.91V159.58H305.31V158.544C305.31 157.256 306.15 156.528 307.298 156.528C307.83 156.528 308.446 156.738 308.796 157.298L308.222 157.872C307.998 157.536 307.662 157.34 307.27 157.34C306.78 157.34 306.262 157.634 306.262 158.544ZM312.442 159.468C313.408 159.468 314.108 160.112 314.108 161.372V162.1L313.24 162.268V161.54C313.24 160.798 312.988 160.308 312.232 160.308C311.378 160.308 310.734 160.938 310.734 162.436V167H309.782V159.58H310.734V160.504C311.126 159.804 311.784 159.468 312.442 159.468ZM316.465 158.236C316.003 158.236 315.625 157.872 315.625 157.396C315.625 156.92 316.003 156.556 316.465 156.556C316.927 156.556 317.305 156.92 317.305 157.396C317.305 157.872 316.927 158.236 316.465 158.236ZM315.989 167V159.58H316.941V167H315.989ZM324.42 164.9L325.12 165.292C324.77 166.188 323.846 167.112 322.194 167.112C320.108 167.112 318.876 165.558 318.876 163.192C318.876 161.022 320.164 159.468 322.096 159.468C323.692 159.468 325.064 160.616 325.064 162.632L325.036 163.458H319.842C319.926 165.432 320.864 166.272 322.292 166.272C323.412 166.272 324.07 165.628 324.42 164.9ZM322.096 160.308C320.976 160.308 319.968 160.91 319.842 162.674H324.126C324.168 161.008 323.188 160.308 322.096 160.308ZM332.143 165.152C332.143 166.02 332.661 166.272 333.123 166.272C333.571 166.272 333.865 166.104 334.215 165.74L334.719 166.3C334.229 166.874 333.697 167.112 333.039 167.112C332.031 167.112 331.191 166.44 331.191 165.124V160.364H329.791V159.58H331.191V157.984L332.143 157.424V159.58H334.551V160.364H332.143V165.152ZM340.991 164.9L341.691 165.292C341.341 166.188 340.417 167.112 338.765 167.112C336.679 167.112 335.447 165.558 335.447 163.192C335.447 161.022 336.735 159.468 338.667 159.468C340.263 159.468 341.635 160.616 341.635 162.632L341.607 163.458H336.413C336.497 165.432 337.435 166.272 338.863 166.272C339.983 166.272 340.641 165.628 340.991 164.9ZM338.667 160.308C337.547 160.308 336.539 160.91 336.413 162.674H340.697C340.739 161.008 339.759 160.308 338.667 160.308ZM348.267 167L345.537 163.318L344.627 164.186V167H343.675V156.64H344.627V163.066L348.155 159.58H349.415L346.181 162.688L349.471 167H348.267ZM350.283 161.512C350.283 160.336 351.389 159.468 352.943 159.468C354.287 159.468 355.323 160.112 355.631 161.092L354.847 161.4C354.553 160.686 353.867 160.308 352.915 160.308C351.879 160.308 351.207 160.742 351.207 161.428C351.207 162.044 351.613 162.422 352.495 162.604L353.475 162.8C355.099 163.122 355.855 163.822 355.855 164.928C355.855 166.216 354.707 167.112 353.055 167.112C351.557 167.112 350.507 166.524 350.003 165.404L350.815 165.068C351.165 165.852 351.935 166.272 353.027 166.272C354.175 166.272 354.931 165.768 354.931 165.012C354.931 164.312 354.539 163.934 353.559 163.724L352.355 163.472C350.997 163.192 350.283 162.506 350.283 161.512ZM359.077 165.152C359.077 166.02 359.595 166.272 360.057 166.272C360.505 166.272 360.799 166.104 361.149 165.74L361.653 166.3C361.163 166.874 360.631 167.112 359.973 167.112C358.965 167.112 358.125 166.44 358.125 165.124V160.364H356.725V159.58H358.125V157.984L359.077 157.424V159.58H361.485V160.364H359.077V165.152ZM367.924 164.9L368.624 165.292C368.274 166.188 367.35 167.112 365.698 167.112C363.612 167.112 362.38 165.558 362.38 163.192C362.38 161.022 363.668 159.468 365.6 159.468C367.196 159.468 368.568 160.616 368.568 162.632L368.54 163.458H363.346C363.43 165.432 364.368 166.272 365.796 166.272C366.916 166.272 367.574 165.628 367.924 164.9ZM365.6 160.308C364.48 160.308 363.472 160.91 363.346 162.674H367.63C367.672 161.008 366.692 160.308 365.6 160.308ZM373.689 159.468C375.173 159.468 376.041 160.378 376.041 162.044V167H375.089V162.184C375.089 160.84 374.473 160.336 373.437 160.336C372.135 160.336 371.533 161.344 371.533 162.828V167H370.581V159.58H371.533V160.728C371.981 159.916 372.793 159.468 373.689 159.468ZM386.535 167L383.805 163.318L382.895 164.186V167H381.943V156.64H382.895V163.066L386.423 159.58H387.683L384.449 162.688L387.739 167H386.535ZM394.308 167H393.44C393.328 166.594 393.244 166.104 393.244 165.544C392.866 166.412 391.9 167.112 390.696 167.112C389.38 167.112 388.386 166.258 388.386 164.984C388.386 163.458 389.758 162.66 391.284 162.66C391.886 162.66 392.474 162.73 393.076 162.94V161.96C393.076 160.994 392.488 160.336 391.34 160.336C390.416 160.336 389.632 160.742 389.24 161.876L388.4 161.624C388.96 160.056 390.094 159.468 391.396 159.468C393.23 159.468 394 160.574 394 161.848V164.9C394 165.74 394.14 166.496 394.308 167ZM393.076 163.92V163.752C392.502 163.514 391.914 163.444 391.34 163.444C390.22 163.444 389.338 163.948 389.338 164.928C389.338 165.824 389.968 166.3 390.864 166.3C391.83 166.3 393.076 165.726 393.076 163.92ZM399.515 159.468C400.999 159.468 401.867 160.378 401.867 162.044V167H400.915V162.184C400.915 160.84 400.299 160.336 399.263 160.336C397.961 160.336 397.359 161.344 397.359 162.828V167H396.407V159.58H397.359V160.728C397.807 159.916 398.619 159.468 399.515 159.468ZM411.157 159.482C413.047 159.482 414.321 161.064 414.321 163.22C414.321 165.502 413.033 167.112 411.045 167.112C410.009 167.112 409.169 166.594 408.721 165.656V167H407.769V156.64H408.721V160.966C409.211 160.014 410.191 159.482 411.157 159.482ZM411.045 166.272C412.431 166.272 413.341 165.208 413.341 163.262C413.341 161.386 412.431 160.322 411.059 160.322C409.575 160.322 408.721 161.428 408.721 163.248C408.721 165.18 409.561 166.272 411.045 166.272ZM418.919 159.468C419.885 159.468 420.585 160.112 420.585 161.372V162.1L419.717 162.268V161.54C419.717 160.798 419.465 160.308 418.709 160.308C417.855 160.308 417.211 160.938 417.211 162.436V167H416.259V159.58H417.211V160.504C417.603 159.804 418.261 159.468 418.919 159.468ZM426.641 159.58H427.593V167H426.641V165.866C426.193 166.664 425.409 167.112 424.499 167.112C423.043 167.112 422.161 166.174 422.161 164.564V159.58H423.113V164.48C423.113 165.698 423.729 166.258 424.765 166.258C426.081 166.258 426.641 165.208 426.641 163.752V159.58ZM434.564 167L431.834 163.318L430.924 164.186V167H429.972V156.64H430.924V163.066L434.452 159.58H435.712L432.478 162.688L435.768 167H434.564ZM441.876 164.9L442.576 165.292C442.226 166.188 441.302 167.112 439.65 167.112C437.564 167.112 436.332 165.558 436.332 163.192C436.332 161.022 437.62 159.468 439.552 159.468C441.148 159.468 442.52 160.616 442.52 162.632L442.492 163.458H437.298C437.382 165.432 438.32 166.272 439.748 166.272C440.868 166.272 441.526 165.628 441.876 164.9ZM439.552 160.308C438.432 160.308 437.424 160.91 437.298 162.674H441.582C441.624 161.008 440.644 160.308 439.552 160.308ZM444.168 161.512C444.168 160.336 445.274 159.468 446.828 159.468C448.172 159.468 449.208 160.112 449.516 161.092L448.732 161.4C448.438 160.686 447.752 160.308 446.8 160.308C445.764 160.308 445.092 160.742 445.092 161.428C445.092 162.044 445.498 162.422 446.38 162.604L447.36 162.8C448.984 163.122 449.74 163.822 449.74 164.928C449.74 166.216 448.592 167.112 446.94 167.112C445.442 167.112 444.392 166.524 443.888 165.404L444.7 165.068C445.05 165.852 445.82 166.272 446.912 166.272C448.06 166.272 448.816 165.768 448.816 165.012C448.816 164.312 448.424 163.934 447.444 163.724L446.24 163.472C444.882 163.192 444.168 162.506 444.168 161.512ZM456.68 165.152C456.68 166.02 457.198 166.272 457.66 166.272C458.108 166.272 458.402 166.104 458.752 165.74L459.256 166.3C458.766 166.874 458.234 167.112 457.576 167.112C456.568 167.112 455.728 166.44 455.728 165.124V160.364H454.328V159.58H455.728V157.984L456.68 157.424V159.58H459.088V160.364H456.68V165.152ZM461.36 158.236C460.898 158.236 460.52 157.872 460.52 157.396C460.52 156.92 460.898 156.556 461.36 156.556C461.822 156.556 462.2 156.92 462.2 157.396C462.2 157.872 461.822 158.236 461.36 158.236ZM460.884 167V159.58H461.836V167H460.884ZM466.571 166.972C466.347 167.028 466.165 167.056 465.955 167.056C464.793 167.056 464.247 166.328 464.247 165.236V156.64H465.199V165.236C465.199 165.866 465.535 166.188 466.123 166.188C466.277 166.188 466.431 166.174 466.571 166.132V166.972ZM474.536 158.796C473.626 158.796 472.884 158.124 472.884 157.2C472.884 156.276 473.626 155.604 474.536 155.604C475.446 155.604 476.188 156.276 476.188 157.2C476.188 158.124 475.446 158.796 474.536 158.796ZM474.536 156.248C474.004 156.248 473.584 156.584 473.584 157.2C473.584 157.83 474.004 158.152 474.536 158.152C475.068 158.152 475.488 157.83 475.488 157.2C475.488 156.584 475.068 156.248 474.536 156.248ZM477.42 167H476.552C476.44 166.594 476.356 166.104 476.356 165.544C475.978 166.412 475.012 167.112 473.808 167.112C472.492 167.112 471.498 166.258 471.498 164.984C471.498 163.458 472.87 162.66 474.396 162.66C474.998 162.66 475.586 162.73 476.188 162.94V161.96C476.188 160.994 475.6 160.336 474.452 160.336C473.528 160.336 472.744 160.742 472.352 161.876L471.512 161.624C472.072 160.056 473.206 159.468 474.508 159.468C476.342 159.468 477.112 160.574 477.112 161.848V164.9C477.112 165.74 477.252 166.496 477.42 167ZM476.188 163.92V163.752C475.614 163.514 475.026 163.444 474.452 163.444C473.332 163.444 472.45 163.948 472.45 164.928C472.45 165.824 473.08 166.3 473.976 166.3C474.942 166.3 476.188 165.726 476.188 163.92ZM486.516 159.482C488.406 159.482 489.68 161.064 489.68 163.22C489.68 165.502 488.392 167.112 486.404 167.112C485.368 167.112 484.528 166.594 484.08 165.656V167H483.128V156.64H484.08V160.966C484.57 160.014 485.55 159.482 486.516 159.482ZM486.404 166.272C487.79 166.272 488.7 165.208 488.7 163.262C488.7 161.386 487.79 160.322 486.418 160.322C484.934 160.322 484.08 161.428 484.08 163.248C484.08 165.18 484.92 166.272 486.404 166.272ZM496.686 164.9L497.386 165.292C497.036 166.188 496.112 167.112 494.46 167.112C492.374 167.112 491.142 165.558 491.142 163.192C491.142 161.022 492.43 159.468 494.362 159.468C495.958 159.468 497.33 160.616 497.33 162.632L497.302 163.458H492.108C492.192 165.432 493.13 166.272 494.558 166.272C495.678 166.272 496.336 165.628 496.686 164.9ZM494.362 160.308C493.242 160.308 492.234 160.91 492.108 162.674H496.392C496.434 161.008 495.454 160.308 494.362 160.308ZM498.979 161.512C498.979 160.336 500.085 159.468 501.639 159.468C502.983 159.468 504.019 160.112 504.327 161.092L503.543 161.4C503.249 160.686 502.563 160.308 501.611 160.308C500.575 160.308 499.903 160.742 499.903 161.428C499.903 162.044 500.309 162.422 501.191 162.604L502.171 162.8C503.795 163.122 504.551 163.822 504.551 164.928C504.551 166.216 503.403 167.112 501.751 167.112C500.253 167.112 499.203 166.524 498.699 165.404L499.511 165.068C499.861 165.852 500.631 166.272 501.723 166.272C502.871 166.272 503.627 165.768 503.627 165.012C503.627 164.312 503.235 163.934 502.255 163.724L501.051 163.472C499.693 163.192 498.979 162.506 498.979 161.512ZM511.045 167L508.315 163.318L507.405 164.186V167H506.453V156.64H507.405V163.066L510.933 159.58H512.193L508.959 162.688L512.249 167H511.045ZM516.372 159.468C517.338 159.468 518.038 160.112 518.038 161.372V162.1L517.17 162.268V161.54C517.17 160.798 516.918 160.308 516.162 160.308C515.308 160.308 514.664 160.938 514.664 162.436V167H513.712V159.58H514.664V160.504C515.056 159.804 515.714 159.468 516.372 159.468ZM519.667 156.696H521.123V158.124H519.667V156.696ZM519.919 167V159.58H520.871V167H519.919ZM528.014 159.58H528.994L526.082 167H525.242L522.33 159.58H523.366L525.69 165.95L528.014 159.58ZM535.241 164.9L535.941 165.292C535.591 166.188 534.667 167.112 533.015 167.112C530.929 167.112 529.697 165.558 529.697 163.192C529.697 161.022 530.985 159.468 532.917 159.468C534.513 159.468 535.885 160.616 535.885 162.632L535.857 163.458H530.663C530.747 165.432 531.685 166.272 533.113 166.272C534.233 166.272 534.891 165.628 535.241 164.9ZM532.917 160.308C531.797 160.308 530.789 160.91 530.663 162.674H534.947C534.989 161.008 534.009 160.308 532.917 160.308ZM546.547 164.9L547.247 165.292C546.897 166.188 545.973 167.112 544.321 167.112C542.235 167.112 541.003 165.558 541.003 163.192C541.003 161.022 542.291 159.468 544.223 159.468C545.819 159.468 547.191 160.616 547.191 162.632L547.163 163.458H541.969C542.053 165.432 542.991 166.272 544.419 166.272C545.539 166.272 546.197 165.628 546.547 164.9ZM544.223 160.308C543.103 160.308 542.095 160.91 541.969 162.674H546.253C546.295 161.008 545.315 160.308 544.223 160.308ZM550.551 165.152C550.551 166.02 551.069 166.272 551.531 166.272C551.979 166.272 552.273 166.104 552.623 165.74L553.127 166.3C552.637 166.874 552.105 167.112 551.447 167.112C550.439 167.112 549.599 166.44 549.599 165.124V160.364H548.199V159.58H549.599V157.984L550.551 157.424V159.58H552.959V160.364H550.551V165.152ZM555.231 158.236C554.769 158.236 554.391 157.872 554.391 157.396C554.391 156.92 554.769 156.556 555.231 156.556C555.693 156.556 556.071 156.92 556.071 157.396C556.071 157.872 555.693 158.236 555.231 158.236ZM554.755 167V159.58H555.707V167H554.755ZM562.738 167L560.008 163.318L559.098 164.186V167H558.146V156.64H559.098V163.066L562.626 159.58H563.886L560.652 162.688L563.942 167H562.738ZM570.049 164.9L570.749 165.292C570.399 166.188 569.475 167.112 567.823 167.112C565.737 167.112 564.505 165.558 564.505 163.192C564.505 161.022 565.793 159.468 567.725 159.468C569.321 159.468 570.693 160.616 570.693 162.632L570.665 163.458H565.471C565.555 165.432 566.493 166.272 567.921 166.272C569.041 166.272 569.699 165.628 570.049 164.9ZM567.725 160.308C566.605 160.308 565.597 160.91 565.471 162.674H569.755C569.797 161.008 568.817 160.308 567.725 160.308ZM574.053 165.152C574.053 166.02 574.571 166.272 575.033 166.272C575.481 166.272 575.775 166.104 576.125 165.74L576.629 166.3C576.139 166.874 575.607 167.112 574.949 167.112C573.941 167.112 573.101 166.44 573.101 165.124V160.364H571.701V159.58H573.101V157.984L574.053 157.424V159.58H576.461V160.364H574.053V165.152ZM579.467 165.152C579.467 166.02 579.985 166.272 580.447 166.272C580.895 166.272 581.189 166.104 581.539 165.74L582.043 166.3C581.553 166.874 581.021 167.112 580.363 167.112C579.355 167.112 578.515 166.44 578.515 165.124V160.364H577.115V159.58H578.515V157.984L579.467 157.424V159.58H581.875V160.364H579.467V165.152ZM588.315 164.9L589.015 165.292C588.665 166.188 587.741 167.112 586.089 167.112C584.003 167.112 582.771 165.558 582.771 163.192C582.771 161.022 584.059 159.468 585.991 159.468C587.587 159.468 588.959 160.616 588.959 162.632L588.931 163.458H583.737C583.821 165.432 584.759 166.272 586.187 166.272C587.307 166.272 587.965 165.628 588.315 164.9ZM585.991 160.308C584.871 160.308 583.863 160.91 583.737 162.674H588.021C588.063 161.008 587.083 160.308 585.991 160.308ZM594.08 159.468C595.564 159.468 596.432 160.378 596.432 162.044V167H595.48V162.184C595.48 160.84 594.864 160.336 593.828 160.336C592.526 160.336 591.924 161.344 591.924 162.828V167H590.972V159.58H591.924V160.728C592.372 159.916 593.184 159.468 594.08 159.468ZM241.596 181.468C243.01 181.468 243.836 182.364 243.836 183.904V189H242.884V184.044C242.884 182.84 242.31 182.336 241.344 182.336C240.042 182.336 239.496 183.344 239.496 184.828V189H238.544V184.044C238.544 182.84 237.97 182.336 237.004 182.336C235.702 182.336 235.156 183.344 235.156 184.828V189H234.204V181.58H235.156V182.742C235.604 181.916 236.388 181.468 237.256 181.468C238.362 181.468 239.104 182.014 239.37 182.98C239.79 182 240.644 181.468 241.596 181.468ZM251.194 186.9L251.894 187.292C251.544 188.188 250.62 189.112 248.968 189.112C246.882 189.112 245.65 187.558 245.65 185.192C245.65 183.022 246.938 181.468 248.87 181.468C250.466 181.468 251.838 182.616 251.838 184.632L251.81 185.458H246.616C246.7 187.432 247.638 188.272 249.066 188.272C250.186 188.272 250.844 187.628 251.194 186.9ZM248.87 182.308C247.75 182.308 246.742 182.91 246.616 184.674H250.9C250.942 183.008 249.962 182.308 248.87 182.308ZM256.51 181.468C257.476 181.468 258.176 182.112 258.176 183.372V184.1L257.308 184.268V183.54C257.308 182.798 257.056 182.308 256.3 182.308C255.446 182.308 254.802 182.938 254.802 184.436V189H253.85V181.58H254.802V182.504C255.194 181.804 255.852 181.468 256.51 181.468ZM268.764 178.64H269.716V189H268.764V187.614C268.274 188.566 267.294 189.098 266.328 189.098C264.438 189.098 263.164 187.516 263.164 185.36C263.164 183.078 264.452 181.468 266.44 181.468C267.476 181.468 268.316 181.986 268.764 182.924V178.64ZM266.426 188.258C267.91 188.258 268.764 187.152 268.764 185.332C268.764 183.4 267.924 182.308 266.44 182.308C265.054 182.308 264.144 183.372 264.144 185.318C264.144 187.194 265.054 188.258 266.426 188.258ZM277.129 186.9L277.829 187.292C277.479 188.188 276.555 189.112 274.903 189.112C272.817 189.112 271.585 187.558 271.585 185.192C271.585 183.022 272.873 181.468 274.805 181.468C276.401 181.468 277.773 182.616 277.773 184.632L277.745 185.458H272.551C272.635 187.432 273.573 188.272 275.001 188.272C276.121 188.272 276.779 187.628 277.129 186.9ZM274.805 182.308C273.685 182.308 272.677 182.91 272.551 184.674H276.835C276.877 183.008 275.897 182.308 274.805 182.308ZM281.133 187.152C281.133 188.02 281.651 188.272 282.113 188.272C282.561 188.272 282.855 188.104 283.205 187.74L283.709 188.3C283.219 188.874 282.687 189.112 282.029 189.112C281.021 189.112 280.181 188.44 280.181 187.124V182.364H278.781V181.58H280.181V179.984L281.133 179.424V181.58H283.541V182.364H281.133V187.152ZM290.593 189H289.725C289.613 188.594 289.529 188.104 289.529 187.544C289.151 188.412 288.185 189.112 286.981 189.112C285.665 189.112 284.671 188.258 284.671 186.984C284.671 185.458 286.043 184.66 287.569 184.66C288.171 184.66 288.759 184.73 289.361 184.94V183.96C289.361 182.994 288.773 182.336 287.625 182.336C286.701 182.336 285.917 182.742 285.525 183.876L284.685 183.624C285.245 182.056 286.379 181.468 287.681 181.468C289.515 181.468 290.285 182.574 290.285 183.848V186.9C290.285 187.74 290.425 188.496 290.593 189ZM289.361 185.92V185.752C288.787 185.514 288.199 185.444 287.625 185.444C286.505 185.444 285.623 185.948 285.623 186.928C285.623 187.824 286.253 188.3 287.149 188.3C288.115 188.3 289.361 187.726 289.361 185.92ZM295.016 188.972C294.792 189.028 294.61 189.056 294.4 189.056C293.238 189.056 292.692 188.328 292.692 187.236V178.64H293.644V187.236C293.644 187.866 293.98 188.188 294.568 188.188C294.722 188.188 294.876 188.174 295.016 188.132V188.972ZM296.445 178.696H297.901V180.124H296.445V178.696ZM296.053 192.038C295.801 192.038 295.563 191.996 295.325 191.926L295.409 191.086C295.605 191.156 295.787 191.17 295.913 191.17C296.571 191.17 296.697 190.722 296.697 190.078V181.58H297.649V190.134C297.649 191.394 297.103 192.038 296.053 192.038ZM305.129 186.9L305.829 187.292C305.479 188.188 304.555 189.112 302.903 189.112C300.817 189.112 299.585 187.558 299.585 185.192C299.585 183.022 300.873 181.468 302.805 181.468C304.401 181.468 305.773 182.616 305.773 184.632L305.745 185.458H300.551C300.635 187.432 301.573 188.272 303.001 188.272C304.121 188.272 304.779 187.628 305.129 186.9ZM302.805 182.308C301.685 182.308 300.677 182.91 300.551 184.674H304.835C304.877 183.008 303.897 182.308 302.805 182.308ZM310.446 181.468C311.412 181.468 312.112 182.112 312.112 183.372V184.1L311.244 184.268V183.54C311.244 182.798 310.992 182.308 310.236 182.308C309.382 182.308 308.738 182.938 308.738 184.436V189H307.786V181.58H308.738V182.504C309.13 181.804 309.788 181.468 310.446 181.468ZM315.34 187.152C315.34 188.02 315.858 188.272 316.32 188.272C316.768 188.272 317.062 188.104 317.412 187.74L317.916 188.3C317.426 188.874 316.894 189.112 316.236 189.112C315.228 189.112 314.388 188.44 314.388 187.124V182.364H312.988V181.58H314.388V179.984L315.34 179.424V181.58H317.748V182.364H315.34V187.152ZM320.244 189.084C319.74 189.084 319.348 188.706 319.348 188.188C319.348 187.67 319.74 187.292 320.244 187.292C320.748 187.292 321.14 187.67 321.14 188.188C321.14 188.706 320.748 189.084 320.244 189.084Z" fill="#2A2859"/>
<g clip-path="url(#clip0_5855_4908)">
<rect x="153" y="125" width="48" height="1" fill="#6FE9FF"/>
<g clip-path="url(#clip1_5855_4908)">
<rect x="153" y="113" width="24" height="24" rx="12" fill="#6FE9FF"/>
<path d="M165.71 128.1H167.666V129H162.59V128.1H164.654V121.32L162.698 122.628V121.524L164.762 120.12H165.71V128.1Z" fill="#2A2859"/>
</g>
</g>
<g clip-path="url(#clip2_5855_4908)">
<rect x="269.079" y="65" width="1" height="54.032" fill="#6FE9FF"/>
<g clip-path="url(#clip3_5855_4908)">
<rect x="257.079" y="65" width="24" height="24" rx="12" fill="#6FE9FF"/>
<path d="M267.654 80.028H272.166V81H266.226V80.184L269.382 76.752C270.294 75.768 270.666 75.228 270.666 74.46C270.666 73.632 270.102 72.96 269.046 72.96C268.122 72.96 267.426 73.416 267.09 74.472L266.118 74.208C266.634 72.636 267.75 72.012 269.07 72.012C270.846 72.012 271.77 73.2 271.77 74.376C271.77 75.396 271.362 76.068 270.186 77.34L267.654 80.028Z" fill="#2A2859"/>
</g>
</g>
<g clip-path="url(#clip4_5855_4908)">
<rect x="293" y="190" width="1" height="50.962" fill="#6FE9FF"/>
<g clip-path="url(#clip5_5855_4908)">
<rect x="281" y="216.962" width="24" height="24" rx="12" fill="#6FE9FF"/>
<path d="M294.406 228.27C295.294 228.57 296.026 229.278 296.026 230.442C296.026 231.882 294.814 233.07 292.858 233.07C291.67 233.07 290.554 232.626 289.69 231.426L290.482 230.802C291.13 231.726 291.85 232.11 292.906 232.11C294.178 232.11 294.97 231.342 294.97 230.406C294.97 229.758 294.706 229.35 294.298 229.11C293.986 228.942 293.698 228.858 293.206 228.858H291.946V227.946H292.846C293.518 227.946 293.794 227.85 294.082 227.622C294.418 227.346 294.61 226.938 294.61 226.458C294.61 225.522 293.926 224.922 292.822 224.922C291.886 224.922 291.166 225.402 290.794 226.434L289.846 226.146C290.422 224.646 291.526 223.974 292.858 223.974C294.766 223.974 295.654 225.174 295.654 226.338C295.654 227.226 295.126 227.922 294.406 228.27Z" fill="#2A2859"/>
</g>
</g>
<defs>
<clipPath id="clip0_5855_4908">
<rect width="48" height="24" fill="white" transform="translate(153 113)"/>
</clipPath>
<clipPath id="clip1_5855_4908">
<rect x="153" y="113" width="24" height="24" rx="12" fill="white"/>
</clipPath>
<clipPath id="clip2_5855_4908">
<rect width="24" height="54.032" fill="white" transform="translate(257.079 65)"/>
</clipPath>
<clipPath id="clip3_5855_4908">
<rect x="257.079" y="65" width="24" height="24" rx="12" fill="white"/>
</clipPath>
<clipPath id="clip4_5855_4908">
<rect width="24" height="50.962" fill="white" transform="translate(281 190)"/>
</clipPath>
<clipPath id="clip5_5855_4908">
<rect x="281" y="216.962" width="24" height="24" rx="12" fill="white"/>
</clipPath>
</defs>
</svg>
