<svg width="1024" height="438" viewBox="0 0 1024 438" fill="none" xmlns="http://www.w3.org/2000/svg">
<rect width="1024" height="438" fill="white"/>
<path d="M321.36 121L317.13 114.898L315.672 116.446V121H313.566V107.68H315.672V113.818L321.288 107.68H323.88L318.48 113.458L323.952 121H321.36ZM329.691 111.244C331.077 111.244 331.977 112.162 331.977 113.8V115.06L330.357 115.348V114.376C330.357 113.512 330.051 112.918 329.115 112.918C328.089 112.918 327.333 113.602 327.333 115.42V121H325.317V111.46H327.333V112.738C327.873 111.676 328.863 111.244 329.691 111.244ZM339.927 111.46H342.033L338.163 121.738C337.407 123.736 336.489 124.996 334.527 124.996C333.735 124.996 332.979 124.744 332.421 124.276L333.177 122.872C333.537 123.196 333.897 123.358 334.365 123.358C335.103 123.358 335.643 122.998 336.039 122.026L336.363 121.27L332.709 111.46H334.959L337.443 119.056L339.927 111.46ZM342.764 114.088C342.764 112.468 344.258 111.244 346.508 111.244C348.362 111.244 349.604 111.91 350.27 113.188L348.866 114.052C348.434 113.314 347.57 112.864 346.49 112.864C345.41 112.864 344.672 113.278 344.672 113.962C344.672 114.52 345.05 114.862 345.896 115.024L347.498 115.348C349.514 115.744 350.522 116.698 350.522 118.156C350.522 119.956 348.956 121.162 346.598 121.162C344.6 121.162 343.178 120.406 342.44 119.02L343.844 118.138C344.366 119.02 345.284 119.524 346.544 119.524C347.768 119.524 348.596 119.038 348.596 118.246C348.596 117.598 348.2 117.238 347.318 117.058L345.554 116.716C343.754 116.374 342.764 115.456 342.764 114.088ZM352.092 114.088C352.092 112.468 353.586 111.244 355.836 111.244C357.69 111.244 358.932 111.91 359.598 113.188L358.194 114.052C357.762 113.314 356.898 112.864 355.818 112.864C354.738 112.864 354 113.278 354 113.962C354 114.52 354.378 114.862 355.224 115.024L356.826 115.348C358.842 115.744 359.85 116.698 359.85 118.156C359.85 119.956 358.284 121.162 355.926 121.162C353.928 121.162 352.506 120.406 351.768 119.02L353.172 118.138C353.694 119.02 354.612 119.524 355.872 119.524C357.096 119.524 357.924 119.038 357.924 118.246C357.924 117.598 357.528 117.238 356.646 117.058L354.882 116.716C353.082 116.374 352.092 115.456 352.092 114.088ZM374.014 121H372.16C372.016 120.514 371.926 119.938 371.89 119.2C371.44 120.19 370.432 121.162 368.776 121.162C367.048 121.162 365.824 119.992 365.824 118.336C365.824 116.266 367.66 115.24 369.712 115.24C370.36 115.24 370.972 115.294 371.638 115.474V114.574C371.638 113.548 370.99 112.882 369.82 112.882C368.722 112.882 367.948 113.476 367.588 114.592L365.878 114.07C366.562 112.054 368.2 111.244 369.91 111.244C372.448 111.244 373.6 112.738 373.6 114.556V118.246C373.6 119.38 373.78 120.388 374.014 121ZM371.638 117.058V116.842C371.062 116.644 370.504 116.572 369.91 116.572C368.722 116.572 367.804 117.112 367.804 118.156C367.804 119.038 368.434 119.596 369.388 119.596C370.36 119.596 371.638 119.02 371.638 117.058ZM382.038 111.46H384.126L380.472 121H378.402L374.766 111.46H376.998L379.518 118.894L382.038 111.46ZM392.739 110.596V111.46H395.421V113.026H392.739V121H390.723V113.026H389.049V111.46H390.723V110.686C390.723 108.616 392.073 107.41 393.945 107.41C394.827 107.41 395.709 107.77 396.231 108.418L395.277 109.75C394.989 109.39 394.557 109.174 394.089 109.174C393.351 109.174 392.739 109.606 392.739 110.596ZM400.407 121.18C397.923 121.18 395.889 119.236 395.889 116.176C395.889 113.188 397.905 111.244 400.407 111.244C402.909 111.244 404.925 113.188 404.925 116.176C404.925 119.236 402.891 121.18 400.407 121.18ZM400.407 119.47C401.757 119.47 402.855 118.426 402.855 116.176C402.855 113.908 401.739 112.954 400.407 112.954C399.075 112.954 397.959 113.908 397.959 116.176C397.959 118.426 399.075 119.47 400.407 119.47ZM411.415 111.244C412.801 111.244 413.701 112.162 413.701 113.8V115.06L412.081 115.348V114.376C412.081 113.512 411.775 112.918 410.839 112.918C409.813 112.918 409.057 113.602 409.057 115.42V121H407.041V111.46H409.057V112.738C409.597 111.676 410.587 111.244 411.415 111.244ZM425.863 111.46H427.879V121H425.863V119.596C425.251 120.64 424.297 121.162 423.127 121.162C421.165 121.162 420.031 119.902 420.031 117.832V111.46H422.047V117.526C422.047 118.768 422.659 119.434 423.757 119.434C425.161 119.434 425.863 118.426 425.863 116.572V111.46ZM433.241 118.048C433.241 119.11 433.889 119.434 434.555 119.434C435.077 119.434 435.491 119.218 435.905 118.804L436.769 120.1C436.049 120.82 435.257 121.162 434.231 121.162C432.575 121.162 431.225 120.154 431.225 118.174V113.026H429.551V111.46H431.225V109.336L433.241 108.418V111.46H436.607V113.026H433.241V118.048ZM443.537 111.262C445.841 111.262 447.497 113.224 447.497 116.14C447.497 119.128 445.823 121.144 443.303 121.144C442.205 121.144 441.143 120.658 440.531 119.47V121H438.515V107.68H440.531V113.17C441.269 111.82 442.439 111.262 443.537 111.262ZM442.997 119.488C444.383 119.488 445.409 118.372 445.409 116.23C445.409 114.088 444.383 112.99 442.997 112.99C441.521 112.99 440.531 113.998 440.531 116.212C440.531 118.426 441.521 119.488 442.997 119.488ZM456.169 117.994L457.537 118.786C456.997 119.974 455.737 121.162 453.559 121.162C450.733 121.162 449.023 119.074 449.023 116.14C449.023 113.242 450.877 111.244 453.415 111.244C455.665 111.244 457.519 112.756 457.519 115.456L457.483 116.644H451.003C451.111 118.66 452.101 119.524 453.685 119.524C454.855 119.524 455.665 118.894 456.169 117.994ZM453.415 112.828C452.191 112.828 451.165 113.476 451.003 115.204H455.557C455.575 113.512 454.531 112.828 453.415 112.828ZM462.33 118.048C462.33 119.11 462.978 119.434 463.644 119.434C464.166 119.434 464.58 119.218 464.994 118.804L465.858 120.1C465.138 120.82 464.346 121.162 463.32 121.162C461.664 121.162 460.314 120.154 460.314 118.174V113.026H458.64V111.46H460.314V109.336L462.33 108.418V111.46H465.696V113.026H462.33V118.048ZM475.026 121H473.172C473.028 120.514 472.938 119.938 472.902 119.2C472.452 120.19 471.444 121.162 469.788 121.162C468.06 121.162 466.836 119.992 466.836 118.336C466.836 116.266 468.672 115.24 470.724 115.24C471.372 115.24 471.984 115.294 472.65 115.474V114.574C472.65 113.548 472.002 112.882 470.832 112.882C469.734 112.882 468.96 113.476 468.6 114.592L466.89 114.07C467.574 112.054 469.212 111.244 470.922 111.244C473.46 111.244 474.612 112.738 474.612 114.556V118.246C474.612 119.38 474.792 120.388 475.026 121ZM472.65 117.058V116.842C472.074 116.644 471.516 116.572 470.922 116.572C469.734 116.572 468.816 117.112 468.816 118.156C468.816 119.038 469.446 119.596 470.4 119.596C471.372 119.596 472.65 119.02 472.65 117.058ZM481.17 120.946C480.792 121.054 480.414 121.108 480.018 121.108C478.2 121.108 477.336 120.028 477.336 118.282V107.68H479.352V118.138C479.352 118.966 479.838 119.344 480.576 119.344C480.756 119.344 480.954 119.326 481.17 119.272V120.946ZM484.208 109.876C483.416 109.876 482.786 109.264 482.786 108.454C482.786 107.644 483.416 107.032 484.208 107.032C485 107.032 485.612 107.644 485.612 108.454C485.612 109.264 485 109.876 484.208 109.876ZM483.2 121V111.46H485.216V121H483.2ZM492.904 111.244C494.848 111.244 496 112.504 496 114.574V121H493.984V114.898C493.984 113.584 493.354 112.99 492.256 112.99C490.834 112.99 490.114 113.98 490.114 115.834V121H488.098V111.46H490.114V112.828C490.762 111.82 491.716 111.244 492.904 111.244ZM507.888 113.026H505.89V113.242C506.214 113.692 506.376 114.214 506.376 114.754C506.376 116.482 505.044 118.21 502.272 118.21H501.804C500.832 118.21 500.202 118.534 500.202 119.11C500.202 119.506 500.508 119.794 501.12 119.794H505.098C506.736 119.794 507.672 120.64 507.672 121.936C507.672 123.898 505.674 125.032 502.488 125.032C499.698 125.032 497.826 124.33 497.34 122.476L499.302 122.098C499.752 123.25 500.796 123.556 502.542 123.556C504.414 123.556 505.746 123.052 505.746 122.17C505.746 121.756 505.512 121.45 504.864 121.45H500.526C499.032 121.45 498.258 120.64 498.258 119.632C498.258 118.66 499.122 117.886 500.31 117.652C498.996 117.076 498.348 115.852 498.348 114.7C498.348 112.99 499.734 111.244 502.38 111.244C503.55 111.244 504.468 111.658 505.008 112.252V111.46H507.888V113.026ZM502.38 116.752C503.766 116.752 504.414 115.78 504.414 114.736C504.414 113.692 503.766 112.738 502.38 112.738C501.012 112.738 500.346 113.692 500.346 114.736C500.346 115.78 501.012 116.752 502.38 116.752ZM515.379 117.994L516.747 118.786C516.207 119.974 514.947 121.162 512.769 121.162C509.943 121.162 508.233 119.074 508.233 116.14C508.233 113.242 510.087 111.244 512.625 111.244C514.875 111.244 516.729 112.756 516.729 115.456L516.693 116.644H510.213C510.321 118.66 511.311 119.524 512.895 119.524C514.065 119.524 514.875 118.894 515.379 117.994ZM512.625 112.828C511.401 112.828 510.375 113.476 510.213 115.204H514.767C514.785 113.512 513.741 112.828 512.625 112.828ZM523.389 111.244C524.775 111.244 525.675 112.162 525.675 113.8V115.06L524.055 115.348V114.376C524.055 113.512 523.749 112.918 522.813 112.918C521.787 112.918 521.031 113.602 521.031 115.42V121H519.015V111.46H521.031V112.738C521.571 111.676 522.561 111.244 523.389 111.244ZM538.557 107.68H540.573V121H538.557V119.272C537.819 120.604 536.667 121.144 535.569 121.144C533.265 121.144 531.609 119.164 531.609 116.266C531.609 113.26 533.283 111.262 535.803 111.262C536.883 111.262 537.963 111.748 538.557 112.918V107.68ZM536.109 119.38C537.567 119.38 538.557 118.39 538.557 116.158C538.557 113.944 537.585 112.882 536.109 112.882C534.723 112.882 533.697 113.998 533.697 116.158C533.697 118.3 534.723 119.38 536.109 119.38ZM548.852 111.46H550.868V121H548.852V119.596C548.24 120.64 547.286 121.162 546.116 121.162C544.154 121.162 543.02 119.902 543.02 117.832V111.46H545.036V117.526C545.036 118.768 545.648 119.434 546.746 119.434C548.15 119.434 548.852 118.426 548.852 116.572V111.46ZM568.447 111.244C570.355 111.244 571.453 112.486 571.453 114.484V121H569.437V114.826C569.437 113.566 568.843 112.99 567.799 112.99C566.395 112.99 565.693 113.962 565.693 115.834V121H563.677V114.826C563.677 113.566 563.083 112.99 562.039 112.99C560.653 112.99 559.951 113.962 559.951 115.834V121H557.935V111.46H559.951V112.81C560.599 111.784 561.535 111.244 562.687 111.244C564.145 111.244 565.099 111.946 565.513 113.134C566.161 111.874 567.169 111.244 568.447 111.244ZM578.13 121.18C575.646 121.18 573.612 119.236 573.612 116.176C573.612 113.188 575.628 111.244 578.13 111.244C580.632 111.244 582.648 113.188 582.648 116.176C582.648 119.236 580.614 121.18 578.13 121.18ZM578.13 119.47C579.48 119.47 580.578 118.426 580.578 116.176C580.578 113.908 579.462 112.954 578.13 112.954C576.798 112.954 575.682 113.908 575.682 116.176C575.682 118.426 576.798 119.47 578.13 119.47ZM587.288 118.048C587.288 119.11 587.936 119.434 588.602 119.434C589.124 119.434 589.538 119.218 589.952 118.804L590.816 120.1C590.096 120.82 589.304 121.162 588.278 121.162C586.622 121.162 585.272 120.154 585.272 118.174V113.026H583.598V111.46H585.272V109.336L587.288 108.418V111.46H590.654V113.026H587.288V118.048ZM595.104 118.048C595.104 119.11 595.752 119.434 596.418 119.434C596.94 119.434 597.354 119.218 597.768 118.804L598.632 120.1C597.912 120.82 597.12 121.162 596.094 121.162C594.438 121.162 593.088 120.154 593.088 118.174V113.026H591.414V111.46H593.088V109.336L595.104 108.418V111.46H598.47V113.026H595.104V118.048ZM607.8 121H605.946C605.802 120.514 605.712 119.938 605.676 119.2C605.226 120.19 604.218 121.162 602.562 121.162C600.834 121.162 599.61 119.992 599.61 118.336C599.61 116.266 601.446 115.24 603.498 115.24C604.146 115.24 604.758 115.294 605.424 115.474V114.574C605.424 113.548 604.776 112.882 603.606 112.882C602.508 112.882 601.734 113.476 601.374 114.592L599.664 114.07C600.348 112.054 601.986 111.244 603.696 111.244C606.234 111.244 607.386 112.738 607.386 114.556V118.246C607.386 119.38 607.566 120.388 607.8 121ZM605.424 117.058V116.842C604.848 116.644 604.29 116.572 603.696 116.572C602.508 116.572 601.59 117.112 601.59 118.156C601.59 119.038 602.22 119.596 603.174 119.596C604.146 119.596 605.424 119.02 605.424 117.058ZM614.589 111.244C615.975 111.244 616.875 112.162 616.875 113.8V115.06L615.255 115.348V114.376C615.255 113.512 614.949 112.918 614.013 112.918C612.987 112.918 612.231 113.602 612.231 115.42V121H610.215V111.46H612.231V112.738C612.771 111.676 613.761 111.244 614.589 111.244Z" fill="#2A2859"/>
<rect width="83" height="22" transform="translate(626 104)" fill="#F8F0DD"/>
<path d="M639.324 109.64H640.276V120H639.296V111.362L635.964 116.542H635.544L632.212 111.362V120H631.232V109.64H632.184L635.754 115.184L639.324 109.64ZM645.362 111.796C644.452 111.796 643.71 111.124 643.71 110.2C643.71 109.276 644.452 108.604 645.362 108.604C646.272 108.604 647.014 109.276 647.014 110.2C647.014 111.124 646.272 111.796 645.362 111.796ZM645.362 109.248C644.83 109.248 644.41 109.584 644.41 110.2C644.41 110.83 644.83 111.152 645.362 111.152C645.894 111.152 646.314 110.83 646.314 110.2C646.314 109.584 645.894 109.248 645.362 109.248ZM648.246 120H647.378C647.266 119.594 647.182 119.104 647.182 118.544C646.804 119.412 645.838 120.112 644.634 120.112C643.318 120.112 642.324 119.258 642.324 117.984C642.324 116.458 643.696 115.66 645.222 115.66C645.824 115.66 646.412 115.73 647.014 115.94V114.96C647.014 113.994 646.426 113.336 645.278 113.336C644.354 113.336 643.57 113.742 643.178 114.876L642.338 114.624C642.898 113.056 644.032 112.468 645.334 112.468C647.168 112.468 647.938 113.574 647.938 114.848V117.9C647.938 118.74 648.078 119.496 648.246 120ZM647.014 116.92V116.752C646.44 116.514 645.852 116.444 645.278 116.444C644.158 116.444 643.276 116.948 643.276 117.928C643.276 118.824 643.906 119.3 644.802 119.3C645.768 119.3 647.014 118.726 647.014 116.92ZM655.411 111.544V112.58H657.483V113.364H655.411V120H654.459V113.364H653.059V112.58H654.459V111.544C654.459 110.256 655.299 109.528 656.447 109.528C656.979 109.528 657.595 109.738 657.945 110.298L657.371 110.872C657.147 110.536 656.811 110.34 656.419 110.34C655.929 110.34 655.411 110.634 655.411 111.544ZM663.421 112.58H664.401L661.139 121.022C660.649 122.282 660.103 123.08 658.955 123.08C658.451 123.08 657.989 122.898 657.639 122.576L658.059 121.89C658.339 122.142 658.605 122.254 658.927 122.254C659.445 122.254 659.809 122.03 660.173 121.176L660.607 120.126L657.821 112.58H658.857L661.097 119.006L663.421 112.58ZM668.132 119.972C667.908 120.028 667.726 120.056 667.516 120.056C666.354 120.056 665.808 119.328 665.808 118.236V109.64H666.76V118.236C666.76 118.866 667.096 119.188 667.684 119.188C667.838 119.188 667.992 119.174 668.132 119.132V119.972ZM672.192 119.972C671.968 120.028 671.786 120.056 671.576 120.056C670.414 120.056 669.868 119.328 669.868 118.236V109.64H670.82V118.236C670.82 118.866 671.156 119.188 671.744 119.188C671.898 119.188 672.052 119.174 672.192 119.132V119.972ZM678.778 117.9L679.478 118.292C679.128 119.188 678.204 120.112 676.552 120.112C674.466 120.112 673.234 118.558 673.234 116.192C673.234 114.022 674.522 112.468 676.454 112.468C678.05 112.468 679.422 113.616 679.422 115.632L679.394 116.458H674.2C674.284 118.432 675.222 119.272 676.65 119.272C677.77 119.272 678.428 118.628 678.778 117.9ZM676.454 113.308C675.334 113.308 674.326 113.91 674.2 115.674H678.484C678.526 114.008 677.546 113.308 676.454 113.308ZM681.07 114.512C681.07 113.336 682.176 112.468 683.73 112.468C685.074 112.468 686.11 113.112 686.418 114.092L685.634 114.4C685.34 113.686 684.654 113.308 683.702 113.308C682.666 113.308 681.994 113.742 681.994 114.428C681.994 115.044 682.4 115.422 683.282 115.604L684.262 115.8C685.886 116.122 686.642 116.822 686.642 117.928C686.642 119.216 685.494 120.112 683.842 120.112C682.344 120.112 681.294 119.524 680.79 118.404L681.602 118.068C681.952 118.852 682.722 119.272 683.814 119.272C684.962 119.272 685.718 118.768 685.718 118.012C685.718 117.312 685.326 116.934 684.346 116.724L683.142 116.472C681.784 116.192 681.07 115.506 681.07 114.512ZM696.411 112.58H697.363V120H696.411V118.866C695.963 119.664 695.179 120.112 694.269 120.112C692.813 120.112 691.931 119.174 691.931 117.564V112.58H692.883V117.48C692.883 118.698 693.499 119.258 694.535 119.258C695.851 119.258 696.411 118.208 696.411 116.752V112.58ZM701.198 118.152C701.198 119.02 701.716 119.272 702.178 119.272C702.626 119.272 702.92 119.104 703.27 118.74L703.774 119.3C703.284 119.874 702.752 120.112 702.094 120.112C701.086 120.112 700.246 119.44 700.246 118.124V113.364H698.846V112.58H700.246V110.984L701.198 110.424V112.58H703.606V113.364H701.198V118.152Z" fill="#2A2859"/>
<rect x="313" y="138" width="22" height="22" fill="#FFDFDC"/>
<rect x="313" y="138" width="22" height="22" stroke="#FF8274" stroke-width="2"/>
<path d="M350.272 155.128C347.104 155.128 344.8 152.76 344.8 149.016C344.8 145.384 347.216 143.032 350.176 143.032C352.256 143.032 353.728 143.992 354.416 145.624L353.392 146.104C352.8 144.776 351.552 144.088 350.144 144.088C347.824 144.088 345.952 145.752 345.952 149.016C345.952 152.28 347.744 154.136 350.32 154.136C351.632 154.136 352.544 153.864 353.408 153.336V149.784H349.056V148.76H354.432V153.784C353.456 154.648 351.84 155.128 350.272 155.128ZM360.127 155.128C358.031 155.128 356.351 153.4 356.351 150.744C356.351 148.12 358.015 146.392 360.127 146.392C362.239 146.392 363.903 148.12 363.903 150.744C363.903 153.4 362.223 155.128 360.127 155.128ZM360.127 154.168C361.583 154.168 362.783 153.016 362.783 150.744C362.783 148.488 361.567 147.352 360.127 147.352C358.687 147.352 357.471 148.488 357.471 150.744C357.471 153.016 358.671 154.168 360.127 154.168ZM371.77 143.16H372.858V155H371.77V153.416C371.21 154.504 370.09 155.112 368.986 155.112C366.826 155.112 365.37 153.304 365.37 150.84C365.37 148.232 366.842 146.392 369.114 146.392C370.298 146.392 371.258 146.984 371.77 148.056V143.16ZM369.098 154.152C370.794 154.152 371.77 152.888 371.77 150.808C371.77 148.6 370.81 147.352 369.114 147.352C367.53 147.352 366.49 148.568 366.49 150.792C366.49 152.936 367.53 154.152 369.098 154.152ZM377.034 152.888C377.034 153.88 377.626 154.168 378.155 154.168C378.666 154.168 379.003 153.976 379.402 153.56L379.978 154.2C379.418 154.856 378.81 155.128 378.058 155.128C376.906 155.128 375.946 154.36 375.946 152.856V147.416H374.346V146.52H375.946V144.696L377.034 144.056V146.52H379.786V147.416H377.034V152.888ZM388.614 147.416H386.79V147.72C387.206 148.232 387.43 148.872 387.43 149.496C387.43 151.048 386.31 152.632 383.926 152.632H383.558C382.598 152.632 381.91 153 381.91 153.56C381.91 153.992 382.246 154.296 382.95 154.296H386.39C387.766 154.296 388.47 154.968 388.47 156.024C388.47 157.704 386.534 158.584 384.15 158.584C382.006 158.584 380.518 157.896 380.006 156.408L380.886 156.008C381.478 157.4 382.726 157.672 384.15 157.672C385.91 157.672 387.382 157.144 387.382 156.12C387.382 155.64 387.126 155.288 386.358 155.288H382.71C381.526 155.288 380.822 154.728 380.822 153.848C380.822 153.096 381.446 152.44 382.486 152.168C381.366 151.72 380.742 150.536 380.742 149.496C380.742 147.976 381.878 146.392 384.118 146.392C384.998 146.392 385.67 146.68 386.182 147.112V146.52H388.614V147.416ZM384.102 151.736C385.606 151.736 386.358 150.696 386.358 149.496C386.358 148.312 385.606 147.32 384.102 147.32C382.582 147.32 381.814 148.328 381.814 149.496C381.814 150.68 382.582 151.736 384.102 151.736ZM390.747 144.984C390.219 144.984 389.787 144.568 389.787 144.024C389.787 143.48 390.219 143.064 390.747 143.064C391.275 143.064 391.707 143.48 391.707 144.024C391.707 144.568 391.275 144.984 390.747 144.984ZM389.467 158.472C389.179 158.472 388.907 158.424 388.635 158.344L388.731 157.384C388.955 157.464 389.163 157.48 389.307 157.48C390.059 157.48 390.203 156.968 390.203 156.232V146.52H391.291V156.296C391.291 157.736 390.667 158.472 389.467 158.472ZM399.304 147.16C400.248 147.912 400.856 149.16 400.856 150.744C400.856 153.4 399.176 155.128 397.08 155.128C396.488 155.128 395.928 154.984 395.432 154.728L394.904 155.768H394.136L394.856 154.36C393.912 153.608 393.304 152.344 393.304 150.744C393.304 148.12 394.968 146.392 397.08 146.392C397.672 146.392 398.232 146.536 398.728 146.776L399.256 145.752H400.024L399.304 147.16ZM394.424 150.744C394.424 151.976 394.776 152.872 395.32 153.448L398.28 147.656C397.912 147.448 397.512 147.352 397.08 147.352C395.64 147.352 394.424 148.488 394.424 150.744ZM397.08 154.168C398.536 154.168 399.736 153.016 399.736 150.744C399.736 149.528 399.384 148.648 398.84 148.072L395.88 153.864C396.232 154.072 396.648 154.168 397.08 154.168ZM405.907 146.392C407.011 146.392 407.811 147.128 407.811 148.568V149.4L406.819 149.592V148.76C406.819 147.912 406.531 147.352 405.667 147.352C404.691 147.352 403.955 148.072 403.955 149.784V155H402.867V146.52H403.955V147.576C404.403 146.776 405.155 146.392 405.907 146.392ZM415.068 152.6L415.868 153.048C415.468 154.072 414.412 155.128 412.524 155.128C410.14 155.128 408.732 153.352 408.732 150.648C408.732 148.168 410.204 146.392 412.412 146.392C414.236 146.392 415.804 147.704 415.804 150.008L415.772 150.952H409.836C409.932 153.208 411.004 154.168 412.636 154.168C413.916 154.168 414.668 153.432 415.068 152.6ZM412.412 147.352C411.132 147.352 409.98 148.04 409.836 150.056H414.732C414.78 148.152 413.66 147.352 412.412 147.352ZM420.56 154.968C420.304 155.032 420.096 155.064 419.856 155.064C418.528 155.064 417.904 154.232 417.904 152.984V143.16H418.992V152.984C418.992 153.704 419.376 154.072 420.048 154.072C420.224 154.072 420.4 154.056 420.56 154.008V154.968ZM421.929 148.728C421.929 147.384 423.193 146.392 424.969 146.392C426.505 146.392 427.689 147.128 428.041 148.248L427.145 148.6C426.809 147.784 426.025 147.352 424.937 147.352C423.753 147.352 422.985 147.848 422.985 148.632C422.985 149.336 423.449 149.768 424.457 149.976L425.577 150.2C427.433 150.568 428.297 151.368 428.297 152.632C428.297 154.104 426.985 155.128 425.097 155.128C423.385 155.128 422.185 154.456 421.609 153.176L422.537 152.792C422.937 153.688 423.817 154.168 425.065 154.168C426.377 154.168 427.241 153.592 427.241 152.728C427.241 151.928 426.793 151.496 425.673 151.256L424.297 150.968C422.745 150.648 421.929 149.864 421.929 148.728ZM436.031 152.6L436.831 153.048C436.431 154.072 435.375 155.128 433.487 155.128C431.103 155.128 429.695 153.352 429.695 150.648C429.695 148.168 431.167 146.392 433.375 146.392C435.199 146.392 436.767 147.704 436.767 150.008L436.735 150.952H430.799C430.895 153.208 431.967 154.168 433.599 154.168C434.879 154.168 435.631 153.432 436.031 152.6ZM433.375 147.352C432.095 147.352 430.943 148.04 430.799 150.056H435.695C435.743 148.152 434.623 147.352 433.375 147.352ZM448.552 152.6L449.352 153.048C448.952 154.072 447.896 155.128 446.008 155.128C443.624 155.128 442.216 153.352 442.216 150.648C442.216 148.168 443.688 146.392 445.896 146.392C447.72 146.392 449.288 147.704 449.288 150.008L449.256 150.952H443.32C443.416 153.208 444.488 154.168 446.12 154.168C447.4 154.168 448.152 153.432 448.552 152.6ZM445.896 147.352C444.616 147.352 443.464 148.04 443.32 150.056H448.216C448.264 148.152 447.144 147.352 445.896 147.352ZM454.044 154.968C453.788 155.032 453.58 155.064 453.34 155.064C452.012 155.064 451.388 154.232 451.388 152.984V143.16H452.476V152.984C452.476 153.704 452.86 154.072 453.532 154.072C453.708 154.072 453.884 154.056 454.044 154.008V154.968ZM458.485 154.968C458.229 155.032 458.021 155.064 457.781 155.064C456.453 155.064 455.829 154.232 455.829 152.984V143.16H456.917V152.984C456.917 153.704 457.301 154.072 457.973 154.072C458.149 154.072 458.325 154.056 458.485 154.008V154.968ZM465.812 152.6L466.612 153.048C466.212 154.072 465.156 155.128 463.268 155.128C460.884 155.128 459.476 153.352 459.476 150.648C459.476 148.168 460.948 146.392 463.156 146.392C464.98 146.392 466.548 147.704 466.548 150.008L466.516 150.952H460.58C460.676 153.208 461.748 154.168 463.38 154.168C464.66 154.168 465.412 153.432 465.812 152.6ZM463.156 147.352C461.876 147.352 460.724 148.04 460.58 150.056H465.476C465.524 148.152 464.404 147.352 463.156 147.352ZM471.688 146.392C472.792 146.392 473.592 147.128 473.592 148.568V149.4L472.6 149.592V148.76C472.6 147.912 472.312 147.352 471.448 147.352C470.472 147.352 469.736 148.072 469.736 149.784V155H468.648V146.52H469.736V147.576C470.184 146.776 470.936 146.392 471.688 146.392ZM482.091 154.968C481.835 155.032 481.627 155.064 481.387 155.064C480.059 155.064 479.435 154.232 479.435 152.984V143.16H480.523V152.984C480.523 153.704 480.907 154.072 481.579 154.072C481.755 154.072 481.931 154.056 482.091 154.008V154.968ZM489.082 147.16C490.026 147.912 490.634 149.16 490.634 150.744C490.634 153.4 488.954 155.128 486.858 155.128C486.266 155.128 485.706 154.984 485.21 154.728L484.682 155.768H483.914L484.634 154.36C483.69 153.608 483.082 152.344 483.082 150.744C483.082 148.12 484.746 146.392 486.858 146.392C487.45 146.392 488.01 146.536 488.506 146.776L489.034 145.752H489.802L489.082 147.16ZM484.202 150.744C484.202 151.976 484.554 152.872 485.098 153.448L488.058 147.656C487.69 147.448 487.29 147.352 486.858 147.352C485.418 147.352 484.202 148.488 484.202 150.744ZM486.858 154.168C488.314 154.168 489.514 153.016 489.514 150.744C489.514 149.528 489.162 148.648 488.618 148.072L485.658 153.864C486.01 154.072 486.426 154.168 486.858 154.168ZM496.197 146.392C497.893 146.392 498.885 147.432 498.885 149.336V155H497.797V149.496C497.797 147.96 497.093 147.384 495.909 147.384C494.421 147.384 493.733 148.536 493.733 150.232V155H492.645V146.52H493.733V147.832C494.245 146.904 495.173 146.392 496.197 146.392ZM504.856 146.392C506.552 146.392 507.544 147.432 507.544 149.336V155H506.456V149.496C506.456 147.96 505.752 147.384 504.568 147.384C503.08 147.384 502.392 148.536 502.392 150.232V155H501.304V146.52H502.392V147.832C502.904 146.904 503.832 146.392 504.856 146.392ZM515.553 145.336V146.52H517.921V147.416H515.553V155H514.465V147.416H512.865V146.52H514.465V145.336C514.465 143.864 515.425 143.032 516.737 143.032C517.345 143.032 518.049 143.272 518.449 143.912L517.793 144.568C517.537 144.184 517.153 143.96 516.705 143.96C516.145 143.96 515.553 144.296 515.553 145.336ZM522.124 155.128C520.028 155.128 518.348 153.4 518.348 150.744C518.348 148.12 520.012 146.392 522.124 146.392C524.236 146.392 525.9 148.12 525.9 150.744C525.9 153.4 524.22 155.128 522.124 155.128ZM522.124 154.168C523.58 154.168 524.78 153.016 524.78 150.744C524.78 148.488 523.564 147.352 522.124 147.352C520.684 147.352 519.468 148.488 519.468 150.744C519.468 153.016 520.668 154.168 522.124 154.168ZM530.95 146.392C532.054 146.392 532.854 147.128 532.854 148.568V149.4L531.862 149.592V148.76C531.862 147.912 531.574 147.352 530.71 147.352C529.734 147.352 528.998 148.072 528.998 149.784V155H527.91V146.52H528.998V147.576C529.446 146.776 530.198 146.392 530.95 146.392ZM544.106 146.52H545.226L541.898 155H540.938L537.61 146.52H538.794L541.45 153.8L544.106 146.52ZM552.165 152.6L552.965 153.048C552.565 154.072 551.509 155.128 549.621 155.128C547.237 155.128 545.829 153.352 545.829 150.648C545.829 148.168 547.301 146.392 549.509 146.392C551.333 146.392 552.901 147.704 552.901 150.008L552.869 150.952H546.933C547.029 153.208 548.101 154.168 549.733 154.168C551.013 154.168 551.765 153.432 552.165 152.6ZM549.509 147.352C548.229 147.352 547.077 148.04 546.933 150.056H551.829C551.877 148.152 550.757 147.352 549.509 147.352ZM558.041 146.392C559.145 146.392 559.945 147.128 559.945 148.568V149.4L558.953 149.592V148.76C558.953 147.912 558.665 147.352 557.801 147.352C556.825 147.352 556.089 148.072 556.089 149.784V155H555.001V146.52H556.089V147.576C556.537 146.776 557.289 146.392 558.041 146.392ZM566.99 146.52H568.11L564.782 155H563.822L560.494 146.52H561.678L564.334 153.8L566.99 146.52Z" fill="#2A2859"/>
<rect x="313" y="178" width="22" height="22" fill="#FFDFDC"/>
<rect x="313" y="178" width="22" height="22" stroke="#FF8274" stroke-width="2"/>
<path d="M353.024 184.136C354.24 185.144 355.04 186.824 355.04 189.016C355.04 192.808 352.736 195.128 349.92 195.128C349.024 195.128 348.176 194.888 347.424 194.44L346.816 195.576H345.952L346.816 193.992C345.584 192.952 344.8 191.24 344.8 189.016C344.8 185.288 347.104 183.032 349.92 183.032C350.816 183.032 351.664 183.256 352.4 183.688L352.992 182.584H353.856L353.024 184.136ZM345.952 189.016C345.952 190.84 346.496 192.184 347.344 193.016L351.904 184.6C351.328 184.248 350.64 184.088 349.92 184.088C347.712 184.088 345.952 185.608 345.952 189.016ZM349.92 194.072C352.064 194.072 353.888 192.36 353.888 189.016C353.888 187.144 353.36 185.848 352.512 185.048L347.936 193.512C348.528 193.88 349.2 194.072 349.92 194.072ZM362.3 195L359.18 190.792L358.14 191.784V195H357.052V183.16H358.14V190.504L362.172 186.52H363.612L359.916 190.072L363.676 195H362.3ZM367.896 195.128C365.8 195.128 364.12 193.4 364.12 190.744C364.12 188.12 365.784 186.392 367.896 186.392C370.008 186.392 371.672 188.12 371.672 190.744C371.672 193.4 369.992 195.128 367.896 195.128ZM367.896 194.168C369.352 194.168 370.552 193.016 370.552 190.744C370.552 188.488 369.336 187.352 367.896 187.352C366.456 187.352 365.24 188.488 365.24 190.744C365.24 193.016 366.44 194.168 367.896 194.168ZM377.234 186.392C378.93 186.392 379.922 187.432 379.922 189.336V195H378.834V189.496C378.834 187.96 378.13 187.384 376.946 187.384C375.458 187.384 374.77 188.536 374.77 190.232V195H373.682V186.52H374.77V187.832C375.282 186.904 376.21 186.392 377.234 186.392ZM385.574 195.128C383.478 195.128 381.798 193.4 381.798 190.744C381.798 188.12 383.462 186.392 385.574 186.392C387.686 186.392 389.35 188.12 389.35 190.744C389.35 193.4 387.67 195.128 385.574 195.128ZM385.574 194.168C387.03 194.168 388.23 193.016 388.23 190.744C388.23 188.488 387.014 187.352 385.574 187.352C384.134 187.352 382.918 188.488 382.918 190.744C382.918 193.016 384.118 194.168 385.574 194.168ZM399.808 186.392C401.424 186.392 402.368 187.416 402.368 189.176V195H401.28V189.336C401.28 187.96 400.624 187.384 399.52 187.384C398.032 187.384 397.408 188.536 397.408 190.232V195H396.32V189.336C396.32 187.96 395.664 187.384 394.56 187.384C393.072 187.384 392.448 188.536 392.448 190.232V195H391.36V186.52H392.448V187.848C392.96 186.904 393.856 186.392 394.848 186.392C396.112 186.392 396.96 187.016 397.264 188.12C397.744 187 398.72 186.392 399.808 186.392ZM405.329 184.984C404.801 184.984 404.369 184.568 404.369 184.024C404.369 183.48 404.801 183.064 405.329 183.064C405.857 183.064 406.289 183.48 406.289 184.024C406.289 184.568 405.857 184.984 405.329 184.984ZM404.785 195V186.52H405.873V195H404.785ZM408.013 188.728C408.013 187.384 409.277 186.392 411.053 186.392C412.589 186.392 413.773 187.128 414.125 188.248L413.229 188.6C412.893 187.784 412.109 187.352 411.021 187.352C409.837 187.352 409.069 187.848 409.069 188.632C409.069 189.336 409.533 189.768 410.541 189.976L411.661 190.2C413.517 190.568 414.381 191.368 414.381 192.632C414.381 194.104 413.069 195.128 411.181 195.128C409.469 195.128 408.269 194.456 407.693 193.176L408.621 192.792C409.021 193.688 409.901 194.168 411.149 194.168C412.461 194.168 413.325 193.592 413.325 192.728C413.325 191.928 412.877 191.496 411.757 191.256L410.381 190.968C408.829 190.648 408.013 189.864 408.013 188.728ZM421.603 195L418.483 190.792L417.443 191.784V195H416.355V183.16H417.443V190.504L421.475 186.52H422.915L419.219 190.072L422.979 195H421.603ZM428.085 188.728C428.085 187.384 429.349 186.392 431.125 186.392C432.661 186.392 433.845 187.128 434.197 188.248L433.301 188.6C432.965 187.784 432.181 187.352 431.093 187.352C429.909 187.352 429.141 187.848 429.141 188.632C429.141 189.336 429.605 189.768 430.613 189.976L431.733 190.2C433.589 190.568 434.453 191.368 434.453 192.632C434.453 194.104 433.141 195.128 431.253 195.128C429.541 195.128 428.341 194.456 427.765 193.176L428.693 192.792C429.093 193.688 429.973 194.168 431.221 194.168C432.533 194.168 433.397 193.592 433.397 192.728C433.397 191.928 432.949 191.496 431.829 191.256L430.453 190.968C428.901 190.648 428.085 189.864 428.085 188.728ZM439.627 195.128C437.531 195.128 435.851 193.4 435.851 190.744C435.851 188.12 437.515 186.392 439.627 186.392C441.739 186.392 443.403 188.12 443.403 190.744C443.403 193.4 441.723 195.128 439.627 195.128ZM439.627 194.168C441.083 194.168 442.283 193.016 442.283 190.744C442.283 188.488 441.067 187.352 439.627 187.352C438.187 187.352 436.971 188.488 436.971 190.744C436.971 193.016 438.171 194.168 439.627 194.168ZM444.997 188.728C444.997 187.384 446.261 186.392 448.037 186.392C449.573 186.392 450.757 187.128 451.109 188.248L450.213 188.6C449.877 187.784 449.093 187.352 448.005 187.352C446.821 187.352 446.053 187.848 446.053 188.632C446.053 189.336 446.517 189.768 447.525 189.976L448.645 190.2C450.501 190.568 451.365 191.368 451.365 192.632C451.365 194.104 450.053 195.128 448.165 195.128C446.453 195.128 445.253 194.456 444.677 193.176L445.605 192.792C446.005 193.688 446.885 194.168 448.133 194.168C449.445 194.168 450.309 193.592 450.309 192.728C450.309 191.928 449.861 191.496 448.741 191.256L447.365 190.968C445.813 190.648 444.997 189.864 444.997 188.728ZM453.019 183.224H454.683V184.856H453.019V183.224ZM453.307 195V186.52H454.395V195H453.307ZM463.271 195H462.279C462.151 194.536 462.055 193.976 462.055 193.336C461.623 194.328 460.519 195.128 459.143 195.128C457.639 195.128 456.503 194.152 456.503 192.696C456.503 190.952 458.071 190.04 459.815 190.04C460.503 190.04 461.175 190.12 461.863 190.36V189.24C461.863 188.136 461.191 187.384 459.879 187.384C458.823 187.384 457.927 187.848 457.479 189.144L456.519 188.856C457.159 187.064 458.455 186.392 459.943 186.392C462.039 186.392 462.919 187.656 462.919 189.112V192.6C462.919 193.56 463.079 194.424 463.271 195ZM461.863 191.48V191.288C461.207 191.016 460.535 190.936 459.879 190.936C458.599 190.936 457.591 191.512 457.591 192.632C457.591 193.656 458.311 194.2 459.335 194.2C460.439 194.2 461.863 193.544 461.863 191.48ZM468.126 194.968C467.87 195.032 467.662 195.064 467.422 195.064C466.094 195.064 465.47 194.232 465.47 192.984V183.16H466.558V192.984C466.558 193.704 466.942 194.072 467.614 194.072C467.79 194.072 467.966 194.056 468.126 194.008V194.968ZM473.494 186.392C475.19 186.392 476.182 187.432 476.182 189.336V195H475.094V189.496C475.094 187.96 474.39 187.384 473.206 187.384C471.718 187.384 471.03 188.536 471.03 190.232V195H469.942V183.16H471.03V187.832C471.542 186.904 472.47 186.392 473.494 186.392ZM479.081 184.984C478.553 184.984 478.121 184.568 478.121 184.024C478.121 183.48 478.553 183.064 479.081 183.064C479.609 183.064 480.041 183.48 480.041 184.024C480.041 184.568 479.609 184.984 479.081 184.984ZM477.801 198.472C477.513 198.472 477.241 198.424 476.969 198.344L477.065 197.384C477.289 197.464 477.497 197.48 477.641 197.48C478.393 197.48 478.537 196.968 478.537 196.232V186.52H479.625V196.296C479.625 197.736 479.001 198.472 477.801 198.472ZM487.974 192.6L488.774 193.048C488.374 194.072 487.318 195.128 485.43 195.128C483.046 195.128 481.638 193.352 481.638 190.648C481.638 188.168 483.11 186.392 485.318 186.392C487.142 186.392 488.71 187.704 488.71 190.008L488.678 190.952H482.742C482.838 193.208 483.91 194.168 485.542 194.168C486.822 194.168 487.574 193.432 487.974 192.6ZM485.318 187.352C484.038 187.352 482.886 188.04 482.742 190.056H487.638C487.686 188.152 486.566 187.352 485.318 187.352ZM493.466 194.968C493.21 195.032 493.002 195.064 492.762 195.064C491.434 195.064 490.81 194.232 490.81 192.984V183.16H491.898V192.984C491.898 193.704 492.282 194.072 492.954 194.072C493.13 194.072 493.306 194.056 493.466 194.008V194.968ZM499.123 186.408C501.283 186.408 502.739 188.216 502.739 190.68C502.739 193.288 501.267 195.128 498.995 195.128C497.811 195.128 496.851 194.536 496.339 193.464V198.36H495.251V186.52H496.339V188.104C496.899 187.016 498.019 186.408 499.123 186.408ZM498.995 194.168C500.579 194.168 501.619 192.952 501.619 190.728C501.619 188.584 500.579 187.368 499.011 187.368C497.315 187.368 496.339 188.632 496.339 190.712C496.339 192.92 497.299 194.168 498.995 194.168Z" fill="#2A2859"/>
<rect x="313" y="218" width="22" height="22" fill="#FFDFDC"/>
<rect x="313" y="218" width="22" height="22" stroke="#FF8274" stroke-width="2"/>
<path d="M353.072 235L351.84 231.384H346.88L345.632 235H344.48L348.704 223.16H350.064L354.256 235H353.072ZM347.216 230.392H351.504L349.376 224.104L347.216 230.392ZM360.678 226.52H361.798L358.47 235H357.51L354.182 226.52H355.366L358.022 233.8L360.678 226.52ZM364.797 232.888C364.797 233.88 365.389 234.168 365.917 234.168C366.429 234.168 366.765 233.976 367.165 233.56L367.741 234.2C367.181 234.856 366.573 235.128 365.821 235.128C364.669 235.128 363.709 234.36 363.709 232.856V227.416H362.109V226.52H363.709V224.696L364.797 224.056V226.52H367.549V227.416H364.797V232.888ZM375.409 235H374.417C374.288 234.536 374.193 233.976 374.193 233.336C373.76 234.328 372.656 235.128 371.28 235.128C369.776 235.128 368.64 234.152 368.64 232.696C368.64 230.952 370.208 230.04 371.952 230.04C372.641 230.04 373.312 230.12 374 230.36V229.24C374 228.136 373.328 227.384 372.016 227.384C370.96 227.384 370.064 227.848 369.616 229.144L368.656 228.856C369.296 227.064 370.592 226.392 372.08 226.392C374.176 226.392 375.056 227.656 375.056 229.112V232.6C375.056 233.56 375.216 234.424 375.409 235ZM374 231.48V231.288C373.345 231.016 372.672 230.936 372.016 230.936C370.736 230.936 369.728 231.512 369.728 232.632C369.728 233.656 370.448 234.2 371.472 234.2C372.576 234.2 374 233.544 374 231.48ZM380.263 234.968C380.007 235.032 379.799 235.064 379.559 235.064C378.231 235.064 377.607 234.232 377.607 232.984V223.16H378.695V232.984C378.695 233.704 379.079 234.072 379.751 234.072C379.927 234.072 380.103 234.056 380.263 234.008V234.968ZM387.59 232.6L388.39 233.048C387.99 234.072 386.934 235.128 385.046 235.128C382.662 235.128 381.254 233.352 381.254 230.648C381.254 228.168 382.726 226.392 384.934 226.392C386.758 226.392 388.326 227.704 388.326 230.008L388.294 230.952H382.358C382.454 233.208 383.526 234.168 385.158 234.168C386.438 234.168 387.19 233.432 387.59 232.6ZM384.934 227.352C383.654 227.352 382.502 228.04 382.358 230.056H387.254C387.302 228.152 386.182 227.352 384.934 227.352ZM391.809 225.336V226.52H394.177V227.416H391.809V235H390.721V227.416H389.121V226.52H390.721V225.336C390.721 223.864 391.681 223.032 392.993 223.032C393.601 223.032 394.305 223.272 394.705 223.912L394.049 224.568C393.793 224.184 393.409 223.96 392.961 223.96C392.401 223.96 391.809 224.296 391.809 225.336ZM400.94 232.6L401.74 233.048C401.34 234.072 400.284 235.128 398.396 235.128C396.012 235.128 394.604 233.352 394.604 230.648C394.604 228.168 396.076 226.392 398.284 226.392C400.108 226.392 401.676 227.704 401.676 230.008L401.644 230.952H395.708C395.804 233.208 396.876 234.168 398.508 234.168C399.788 234.168 400.54 233.432 400.94 232.6ZM398.284 227.352C397.004 227.352 395.852 228.04 395.708 230.056H400.604C400.652 228.152 399.532 227.352 398.284 227.352ZM403.36 228.728C403.36 227.384 404.624 226.392 406.4 226.392C407.936 226.392 409.12 227.128 409.472 228.248L408.576 228.6C408.24 227.784 407.456 227.352 406.368 227.352C405.184 227.352 404.416 227.848 404.416 228.632C404.416 229.336 404.88 229.768 405.888 229.976L407.008 230.2C408.864 230.568 409.728 231.368 409.728 232.632C409.728 234.104 408.416 235.128 406.528 235.128C404.816 235.128 403.616 234.456 403.04 233.176L403.968 232.792C404.368 233.688 405.248 234.168 406.496 234.168C407.808 234.168 408.672 233.592 408.672 232.728C408.672 231.928 408.224 231.496 407.104 231.256L405.728 230.968C404.176 230.648 403.36 229.864 403.36 228.728ZM413.209 232.888C413.209 233.88 413.801 234.168 414.329 234.168C414.841 234.168 415.177 233.976 415.577 233.56L416.153 234.2C415.593 234.856 414.985 235.128 414.233 235.128C413.081 235.128 412.121 234.36 412.121 232.856V227.416H410.521V226.52H412.121V224.696L413.209 224.056V226.52H415.961V227.416H413.209V232.888ZM423.121 232.6L423.921 233.048C423.521 234.072 422.465 235.128 420.577 235.128C418.193 235.128 416.785 233.352 416.785 230.648C416.785 228.168 418.257 226.392 420.465 226.392C422.289 226.392 423.857 227.704 423.857 230.008L423.825 230.952H417.889C417.985 233.208 419.057 234.168 420.689 234.168C421.969 234.168 422.721 233.432 423.121 232.6ZM420.465 227.352C419.185 227.352 418.033 228.04 417.889 230.056H422.785C422.833 228.152 421.713 227.352 420.465 227.352ZM427.497 232.888C427.497 233.88 428.089 234.168 428.617 234.168C429.129 234.168 429.465 233.976 429.865 233.56L430.441 234.2C429.881 234.856 429.273 235.128 428.521 235.128C427.369 235.128 426.409 234.36 426.409 232.856V227.416H424.809V226.52H426.409V224.696L427.497 224.056V226.52H430.249V227.416H427.497V232.888ZM439.867 226.408C442.027 226.408 443.483 228.216 443.483 230.68C443.483 233.288 442.011 235.128 439.739 235.128C438.555 235.128 437.595 234.536 437.083 233.464V238.36H435.995V226.52H437.083V228.104C437.643 227.016 438.763 226.408 439.867 226.408ZM439.739 234.168C441.323 234.168 442.363 232.952 442.363 230.728C442.363 228.584 441.323 227.368 439.755 227.368C438.059 227.368 437.083 228.632 437.083 230.712C437.083 232.92 438.043 234.168 439.739 234.168ZM451.29 232.6L452.09 233.048C451.69 234.072 450.634 235.128 448.746 235.128C446.362 235.128 444.954 233.352 444.954 230.648C444.954 228.168 446.426 226.392 448.634 226.392C450.458 226.392 452.026 227.704 452.026 230.008L451.994 230.952H446.058C446.154 233.208 447.226 234.168 448.858 234.168C450.138 234.168 450.89 233.432 451.29 232.6ZM448.634 227.352C447.354 227.352 446.202 228.04 446.058 230.056H450.954C451.002 228.152 449.882 227.352 448.634 227.352ZM457.678 226.392C459.374 226.392 460.366 227.432 460.366 229.336V235H459.278V229.496C459.278 227.96 458.574 227.384 457.39 227.384C455.902 227.384 455.214 228.536 455.214 230.232V235H454.126V226.52H455.214V227.832C455.726 226.904 456.654 226.392 457.678 226.392ZM462.369 228.728C462.369 227.384 463.633 226.392 465.409 226.392C466.945 226.392 468.129 227.128 468.481 228.248L467.585 228.6C467.249 227.784 466.465 227.352 465.377 227.352C464.193 227.352 463.425 227.848 463.425 228.632C463.425 229.336 463.889 229.768 464.897 229.976L466.017 230.2C467.873 230.568 468.737 231.368 468.737 232.632C468.737 234.104 467.425 235.128 465.537 235.128C463.825 235.128 462.625 234.456 462.049 233.176L462.977 232.792C463.377 233.688 464.257 234.168 465.505 234.168C466.817 234.168 467.681 233.592 467.681 232.728C467.681 231.928 467.233 231.496 466.113 231.256L464.737 230.968C463.185 230.648 462.369 229.864 462.369 228.728ZM471.159 224.984C470.631 224.984 470.199 224.568 470.199 224.024C470.199 223.48 470.631 223.064 471.159 223.064C471.687 223.064 472.119 223.48 472.119 224.024C472.119 224.568 471.687 224.984 471.159 224.984ZM469.879 238.472C469.591 238.472 469.319 238.424 469.047 238.344L469.143 237.384C469.367 237.464 469.575 237.48 469.719 237.48C470.471 237.48 470.615 236.968 470.615 236.232V226.52H471.703V236.296C471.703 237.736 471.079 238.472 469.879 238.472ZM477.492 235.128C475.396 235.128 473.716 233.4 473.716 230.744C473.716 228.12 475.38 226.392 477.492 226.392C479.604 226.392 481.268 228.12 481.268 230.744C481.268 233.4 479.588 235.128 477.492 235.128ZM477.492 234.168C478.948 234.168 480.148 233.016 480.148 230.744C480.148 228.488 478.932 227.352 477.492 227.352C476.052 227.352 474.836 228.488 474.836 230.744C474.836 233.016 476.036 234.168 477.492 234.168ZM486.831 226.392C488.527 226.392 489.519 227.432 489.519 229.336V235H488.431V229.496C488.431 227.96 487.727 227.384 486.543 227.384C485.055 227.384 484.367 228.536 484.367 230.232V235H483.279V226.52H484.367V227.832C484.879 226.904 485.807 226.392 486.831 226.392ZM497.912 222.2H498.968C497.816 224.76 497.24 227.272 497.24 229.832C497.24 232.392 497.816 234.856 498.968 237.4H497.912C496.712 234.856 496.12 232.408 496.12 229.832C496.12 227.256 496.728 224.744 497.912 222.2ZM508.766 235L507.534 231.384H502.574L501.326 235H500.174L504.398 223.16H505.758L509.95 235H508.766ZM502.91 230.392H507.198L505.07 224.104L502.91 230.392ZM512.756 235H511.636V223.16H518.612V224.216H512.756V228.728H517.524V229.784H512.756V235ZM524.039 223.16C526.519 223.16 528.007 224.68 528.007 226.808C528.007 228.936 526.439 230.392 523.959 230.392H521.415V235H520.295V223.16H524.039ZM524.087 229.4C525.911 229.4 526.855 228.472 526.855 226.808C526.855 225.144 525.911 224.184 524.087 224.184H521.415V229.4H524.087ZM530.265 237.4H529.209C530.361 234.84 530.937 232.328 530.937 229.768C530.937 227.208 530.361 224.744 529.209 222.2H530.265C531.465 224.744 532.057 227.192 532.057 229.768C532.057 232.344 531.449 234.856 530.265 237.4Z" fill="#2A2859"/>
<rect x="313" y="258" width="22" height="22" fill="#FFDFDC"/>
<rect x="313" y="258" width="22" height="22" stroke="#FF8274" stroke-width="2"/>
<path d="M345.408 275V263.16H346.528V275H345.408ZM352.666 266.392C354.362 266.392 355.354 267.432 355.354 269.336V275H354.266V269.496C354.266 267.96 353.562 267.384 352.378 267.384C350.89 267.384 350.202 268.536 350.202 270.232V275H349.113V266.52H350.202V267.832C350.714 266.904 351.642 266.392 352.666 266.392ZM365.389 267.416H363.565V267.72C363.981 268.232 364.205 268.872 364.205 269.496C364.205 271.048 363.085 272.632 360.701 272.632H360.333C359.373 272.632 358.685 273 358.685 273.56C358.685 273.992 359.021 274.296 359.725 274.296H363.165C364.541 274.296 365.245 274.968 365.245 276.024C365.245 277.704 363.309 278.584 360.925 278.584C358.781 278.584 357.293 277.896 356.781 276.408L357.661 276.008C358.253 277.4 359.501 277.672 360.925 277.672C362.685 277.672 364.157 277.144 364.157 276.12C364.157 275.64 363.901 275.288 363.133 275.288H359.485C358.301 275.288 357.597 274.728 357.597 273.848C357.597 273.096 358.221 272.44 359.261 272.168C358.141 271.72 357.517 270.536 357.517 269.496C357.517 267.976 358.653 266.392 360.893 266.392C361.773 266.392 362.445 266.68 362.957 267.112V266.52H365.389V267.416ZM360.877 271.736C362.381 271.736 363.133 270.696 363.133 269.496C363.133 268.312 362.381 267.32 360.877 267.32C359.357 267.32 358.589 268.328 358.589 269.496C358.589 270.68 359.357 271.736 360.877 271.736ZM372.037 272.6L372.837 273.048C372.437 274.072 371.381 275.128 369.493 275.128C367.109 275.128 365.701 273.352 365.701 270.648C365.701 268.168 367.173 266.392 369.381 266.392C371.205 266.392 372.773 267.704 372.773 270.008L372.741 270.952H366.805C366.901 273.208 367.973 274.168 369.605 274.168C370.885 274.168 371.637 273.432 372.037 272.6ZM369.381 267.352C368.101 267.352 366.949 268.04 366.805 270.056H371.701C371.749 268.152 370.629 267.352 369.381 267.352ZM378.425 266.392C380.121 266.392 381.113 267.432 381.113 269.336V275H380.025V269.496C380.025 267.96 379.321 267.384 378.137 267.384C376.649 267.384 375.961 268.536 375.961 270.232V275H374.873V266.52H375.961V267.832C376.473 266.904 377.401 266.392 378.425 266.392ZM393.746 275H392.754C392.626 274.536 392.53 273.976 392.53 273.336C392.098 274.328 390.994 275.128 389.618 275.128C388.114 275.128 386.978 274.152 386.978 272.696C386.978 270.952 388.546 270.04 390.29 270.04C390.978 270.04 391.65 270.12 392.338 270.36V269.24C392.338 268.136 391.666 267.384 390.354 267.384C389.298 267.384 388.402 267.848 387.954 269.144L386.994 268.856C387.634 267.064 388.93 266.392 390.418 266.392C392.514 266.392 393.394 267.656 393.394 269.112V272.6C393.394 273.56 393.554 274.424 393.746 275ZM392.338 271.48V271.288C391.682 271.016 391.01 270.936 390.354 270.936C389.074 270.936 388.066 271.512 388.066 272.632C388.066 273.656 388.786 274.2 389.81 274.2C390.914 274.2 392.338 273.544 392.338 271.48ZM401.04 266.52H402.16L398.832 275H397.872L394.544 266.52H395.728L398.384 273.8L401.04 266.52ZM413.37 263.16H414.458V275H413.37V273.416C412.81 274.504 411.69 275.112 410.586 275.112C408.426 275.112 406.97 273.304 406.97 270.84C406.97 268.232 408.442 266.392 410.714 266.392C411.898 266.392 412.858 266.984 413.37 268.056V263.16ZM410.698 274.152C412.394 274.152 413.37 272.888 413.37 270.808C413.37 268.6 412.41 267.352 410.714 267.352C409.13 267.352 408.09 268.568 408.09 270.792C408.09 272.936 409.13 274.152 410.698 274.152ZM417.483 264.984C416.955 264.984 416.523 264.568 416.523 264.024C416.523 263.48 416.955 263.064 417.483 263.064C418.011 263.064 418.443 263.48 418.443 264.024C418.443 264.568 418.011 264.984 417.483 264.984ZM416.939 275V266.52H418.027V275H416.939ZM420.166 268.728C420.166 267.384 421.43 266.392 423.206 266.392C424.742 266.392 425.926 267.128 426.278 268.248L425.382 268.6C425.046 267.784 424.262 267.352 423.174 267.352C421.99 267.352 421.222 267.848 421.222 268.632C421.222 269.336 421.686 269.768 422.694 269.976L423.814 270.2C425.67 270.568 426.534 271.368 426.534 272.632C426.534 274.104 425.222 275.128 423.334 275.128C421.622 275.128 420.422 274.456 419.846 273.176L420.774 272.792C421.174 273.688 422.054 274.168 423.302 274.168C424.614 274.168 425.478 273.592 425.478 272.728C425.478 271.928 425.03 271.496 423.91 271.256L422.534 270.968C420.982 270.648 420.166 269.864 420.166 268.728ZM428.06 268.728C428.06 267.384 429.324 266.392 431.1 266.392C432.636 266.392 433.82 267.128 434.172 268.248L433.276 268.6C432.94 267.784 432.156 267.352 431.068 267.352C429.884 267.352 429.116 267.848 429.116 268.632C429.116 269.336 429.58 269.768 430.588 269.976L431.708 270.2C433.564 270.568 434.428 271.368 434.428 272.632C434.428 274.104 433.116 275.128 431.228 275.128C429.516 275.128 428.316 274.456 427.74 273.176L428.668 272.792C429.068 273.688 429.948 274.168 431.196 274.168C432.508 274.168 433.372 273.592 433.372 272.728C433.372 271.928 432.924 271.496 431.804 271.256L430.428 270.968C428.876 270.648 428.06 269.864 428.06 268.728ZM442.162 272.6L442.962 273.048C442.562 274.072 441.506 275.128 439.618 275.128C437.234 275.128 435.826 273.352 435.826 270.648C435.826 268.168 437.298 266.392 439.506 266.392C441.33 266.392 442.898 267.704 442.898 270.008L442.866 270.952H436.93C437.026 273.208 438.098 274.168 439.73 274.168C441.01 274.168 441.762 273.432 442.162 272.6ZM439.506 267.352C438.226 267.352 437.074 268.04 436.93 270.056H441.826C441.874 268.152 440.754 267.352 439.506 267.352Z" fill="#2A2859"/>
<mask id="path-11-inside-1_5860_869" fill="white">
<path d="M312 289H712V337H312V289Z"/>
</mask>
<path d="M312 289H712V337H312V289Z" fill="#FFDFDC"/>
<path d="M343.187 305.747L347.374 313L343.187 320.253H334.813L330.626 313L334.813 305.747H343.187ZM344.094 304.179H333.906L328.811 313L333.906 321.821H344.094L349.189 313L344.094 304.179ZM342.527 310.36L341.654 309.487L339.007 312.134L336.353 309.48L335.48 310.353L338.134 313.007L335.487 315.654L336.36 316.527L339.007 313.88L341.647 316.52L342.52 315.647L339.88 313.007L342.527 310.36Z" fill="#2A2859"/>
<path d="M359.408 319V307.16H363.28C366.208 307.16 368.464 309.448 368.464 313.016C368.464 316.584 366.208 319 363.28 319H359.408ZM360.528 317.976H363.056C365.52 317.976 367.312 316.312 367.312 313.016C367.312 309.752 365.504 308.184 363.024 308.184H360.528V317.976ZM375.37 310.52H376.458V319H375.37V317.704C374.858 318.616 373.962 319.128 372.922 319.128C371.258 319.128 370.25 318.056 370.25 316.216V310.52H371.338V316.12C371.338 317.512 372.042 318.152 373.226 318.152C374.73 318.152 375.37 316.952 375.37 315.288V310.52ZM391.286 310.392C392.903 310.392 393.847 311.416 393.847 313.176V319H392.759V313.336C392.759 311.96 392.102 311.384 390.998 311.384C389.51 311.384 388.886 312.536 388.886 314.232V319H387.799V313.336C387.799 311.96 387.142 311.384 386.038 311.384C384.55 311.384 383.926 312.536 383.926 314.232V319H382.838V310.52H383.926V311.848C384.438 310.904 385.334 310.392 386.326 310.392C387.59 310.392 388.438 311.016 388.742 312.12C389.222 311 390.198 310.392 391.286 310.392ZM399.288 309.624C398.248 309.624 397.4 308.856 397.4 307.8C397.4 306.744 398.248 305.976 399.288 305.976C400.328 305.976 401.176 306.744 401.176 307.8C401.176 308.856 400.328 309.624 399.288 309.624ZM399.288 306.712C398.68 306.712 398.2 307.096 398.2 307.8C398.2 308.52 398.68 308.888 399.288 308.888C399.896 308.888 400.376 308.52 400.376 307.8C400.376 307.096 399.896 306.712 399.288 306.712ZM402.584 319H401.592C401.464 318.536 401.368 317.976 401.368 317.336C400.936 318.328 399.832 319.128 398.456 319.128C396.952 319.128 395.816 318.152 395.816 316.696C395.816 314.952 397.384 314.04 399.128 314.04C399.816 314.04 400.488 314.12 401.176 314.36V313.24C401.176 312.136 400.504 311.384 399.192 311.384C398.136 311.384 397.24 311.848 396.792 313.144L395.832 312.856C396.472 311.064 397.768 310.392 399.256 310.392C401.352 310.392 402.232 311.656 402.232 313.112V316.6C402.232 317.56 402.392 318.424 402.584 319ZM401.176 315.48V315.288C400.52 315.016 399.848 314.936 399.192 314.936C397.912 314.936 396.904 315.512 396.904 316.632C396.904 317.656 397.624 318.2 398.648 318.2C399.752 318.2 401.176 317.544 401.176 315.48ZM414.084 310.52H415.204L411.876 319H410.916L407.588 310.52H408.772L411.428 317.8L414.084 310.52ZM422.143 316.6L422.943 317.048C422.543 318.072 421.487 319.128 419.599 319.128C417.215 319.128 415.807 317.352 415.807 314.648C415.807 312.168 417.279 310.392 419.487 310.392C421.311 310.392 422.879 311.704 422.879 314.008L422.847 314.952H416.911C417.007 317.208 418.079 318.168 419.711 318.168C420.991 318.168 421.743 317.432 422.143 316.6ZM419.487 311.352C418.207 311.352 417.055 312.04 416.911 314.056H421.807C421.855 312.152 420.735 311.352 419.487 311.352ZM427.635 318.968C427.379 319.032 427.171 319.064 426.931 319.064C425.603 319.064 424.979 318.232 424.979 316.984V307.16H426.067V316.984C426.067 317.704 426.451 318.072 427.123 318.072C427.299 318.072 427.475 318.056 427.635 318.008V318.968ZM436.723 311.416H434.899V311.72C435.315 312.232 435.539 312.872 435.539 313.496C435.539 315.048 434.419 316.632 432.035 316.632H431.667C430.707 316.632 430.019 317 430.019 317.56C430.019 317.992 430.355 318.296 431.059 318.296H434.499C435.875 318.296 436.579 318.968 436.579 320.024C436.579 321.704 434.643 322.584 432.259 322.584C430.115 322.584 428.627 321.896 428.115 320.408L428.995 320.008C429.587 321.4 430.835 321.672 432.259 321.672C434.019 321.672 435.491 321.144 435.491 320.12C435.491 319.64 435.235 319.288 434.467 319.288H430.819C429.635 319.288 428.931 318.728 428.931 317.848C428.931 317.096 429.555 316.44 430.595 316.168C429.475 315.72 428.851 314.536 428.851 313.496C428.851 311.976 429.987 310.392 432.227 310.392C433.107 310.392 433.779 310.68 434.291 311.112V310.52H436.723V311.416ZM432.211 315.736C433.715 315.736 434.467 314.696 434.467 313.496C434.467 312.312 433.715 311.32 432.211 311.32C430.691 311.32 429.923 312.328 429.923 313.496C429.923 314.68 430.691 315.736 432.211 315.736ZM443.371 316.6L444.171 317.048C443.771 318.072 442.715 319.128 440.827 319.128C438.443 319.128 437.035 317.352 437.035 314.648C437.035 312.168 438.507 310.392 440.715 310.392C442.539 310.392 444.107 311.704 444.107 314.008L444.075 314.952H438.139C438.235 317.208 439.307 318.168 440.939 318.168C442.219 318.168 442.971 317.432 443.371 316.6ZM440.715 311.352C439.435 311.352 438.283 312.04 438.139 314.056H443.035C443.083 312.152 441.963 311.352 440.715 311.352ZM458.549 310.392C460.165 310.392 461.109 311.416 461.109 313.176V319H460.021V313.336C460.021 311.96 459.365 311.384 458.261 311.384C456.773 311.384 456.149 312.536 456.149 314.232V319H455.061V313.336C455.061 311.96 454.405 311.384 453.301 311.384C451.813 311.384 451.189 312.536 451.189 314.232V319H450.101V310.52H451.189V311.848C451.701 310.904 452.597 310.392 453.589 310.392C454.853 310.392 455.701 311.016 456.005 312.12C456.485 311 457.461 310.392 458.549 310.392ZM464.07 308.984C463.542 308.984 463.11 308.568 463.11 308.024C463.11 307.48 463.542 307.064 464.07 307.064C464.598 307.064 465.03 307.48 465.03 308.024C465.03 308.568 464.598 308.984 464.07 308.984ZM463.526 319V310.52H464.614V319H463.526ZM470.722 310.392C472.418 310.392 473.41 311.432 473.41 313.336V319H472.322V313.496C472.322 311.96 471.618 311.384 470.434 311.384C468.946 311.384 468.258 312.536 468.258 314.232V319H467.17V310.52H468.258V311.832C468.77 310.904 469.698 310.392 470.722 310.392ZM475.413 312.728C475.413 311.384 476.677 310.392 478.453 310.392C479.989 310.392 481.173 311.128 481.525 312.248L480.629 312.6C480.293 311.784 479.509 311.352 478.421 311.352C477.237 311.352 476.469 311.848 476.469 312.632C476.469 313.336 476.933 313.768 477.941 313.976L479.061 314.2C480.917 314.568 481.781 315.368 481.781 316.632C481.781 318.104 480.469 319.128 478.581 319.128C476.869 319.128 475.669 318.456 475.093 317.176L476.021 316.792C476.421 317.688 477.301 318.168 478.549 318.168C479.861 318.168 480.725 317.592 480.725 316.728C480.725 315.928 480.277 315.496 479.157 315.256L477.781 314.968C476.229 314.648 475.413 313.864 475.413 312.728ZM485.263 316.888C485.263 317.88 485.855 318.168 486.383 318.168C486.895 318.168 487.231 317.976 487.631 317.56L488.207 318.2C487.647 318.856 487.039 319.128 486.287 319.128C485.135 319.128 484.175 318.36 484.175 316.856V311.416H482.575V310.52H484.175V308.696L485.263 308.056V310.52H488.015V311.416H485.263V316.888ZM499.552 316.6L500.352 317.048C499.952 318.072 498.896 319.128 497.008 319.128C494.624 319.128 493.216 317.352 493.216 314.648C493.216 312.168 494.688 310.392 496.896 310.392C498.72 310.392 500.288 311.704 500.288 314.008L500.256 314.952H494.32C494.416 317.208 495.488 318.168 497.12 318.168C498.4 318.168 499.152 317.432 499.552 316.6ZM496.896 311.352C495.616 311.352 494.464 312.04 494.32 314.056H499.216C499.264 312.152 498.144 311.352 496.896 311.352ZM503.928 316.888C503.928 317.88 504.52 318.168 505.048 318.168C505.56 318.168 505.896 317.976 506.296 317.56L506.872 318.2C506.312 318.856 505.704 319.128 504.952 319.128C503.8 319.128 502.84 318.36 502.84 316.856V311.416H501.24V310.52H502.84V308.696L503.928 308.056V310.52H506.68V311.416H503.928V316.888ZM509.916 316.888C509.916 317.88 510.508 318.168 511.036 318.168C511.548 318.168 511.884 317.976 512.284 317.56L512.86 318.2C512.3 318.856 511.692 319.128 510.94 319.128C509.788 319.128 508.828 318.36 508.828 316.856V311.416H507.228V310.52H508.828V308.696L509.916 308.056V310.52H512.668V311.416H509.916V316.888ZM524.734 319H523.742C523.614 318.536 523.518 317.976 523.518 317.336C523.086 318.328 521.982 319.128 520.606 319.128C519.102 319.128 517.966 318.152 517.966 316.696C517.966 314.952 519.534 314.04 521.278 314.04C521.966 314.04 522.638 314.12 523.326 314.36V313.24C523.326 312.136 522.654 311.384 521.342 311.384C520.286 311.384 519.39 311.848 518.942 313.144L517.982 312.856C518.622 311.064 519.918 310.392 521.406 310.392C523.502 310.392 524.382 311.656 524.382 313.112V316.6C524.382 317.56 524.542 318.424 524.734 319ZM523.326 315.48V315.288C522.67 315.016 521.998 314.936 521.342 314.936C520.062 314.936 519.054 315.512 519.054 316.632C519.054 317.656 519.774 318.2 520.798 318.2C521.902 318.2 523.326 317.544 523.326 315.48ZM532.028 310.52H533.148L529.82 319H528.86L525.532 310.52H526.716L529.372 317.8L532.028 310.52ZM544.821 319H543.829C543.701 318.536 543.605 317.976 543.605 317.336C543.173 318.328 542.069 319.128 540.693 319.128C539.189 319.128 538.053 318.152 538.053 316.696C538.053 314.952 539.621 314.04 541.365 314.04C542.053 314.04 542.725 314.12 543.413 314.36V313.24C543.413 312.136 542.741 311.384 541.429 311.384C540.373 311.384 539.477 311.848 539.029 313.144L538.069 312.856C538.709 311.064 540.005 310.392 541.493 310.392C543.589 310.392 544.469 311.656 544.469 313.112V316.6C544.469 317.56 544.629 318.424 544.821 319ZM543.413 315.48V315.288C542.757 315.016 542.085 314.936 541.429 314.936C540.149 314.936 539.141 315.512 539.141 316.632C539.141 317.656 539.861 318.2 540.885 318.2C541.989 318.2 543.413 317.544 543.413 315.48ZM549.676 318.968C549.42 319.032 549.212 319.064 548.972 319.064C547.644 319.064 547.02 318.232 547.02 316.984V307.16H548.108V316.984C548.108 317.704 548.492 318.072 549.164 318.072C549.34 318.072 549.516 318.056 549.676 318.008V318.968ZM553 316.888C553 317.88 553.592 318.168 554.12 318.168C554.632 318.168 554.968 317.976 555.368 317.56L555.944 318.2C555.384 318.856 554.776 319.128 554.024 319.128C552.872 319.128 551.912 318.36 551.912 316.856V311.416H550.312V310.52H551.912V308.696L553 308.056V310.52H555.752V311.416H553V316.888ZM562.912 316.6L563.712 317.048C563.312 318.072 562.256 319.128 560.368 319.128C557.984 319.128 556.576 317.352 556.576 314.648C556.576 312.168 558.048 310.392 560.256 310.392C562.08 310.392 563.648 311.704 563.648 314.008L563.616 314.952H557.68C557.776 317.208 558.848 318.168 560.48 318.168C561.76 318.168 562.512 317.432 562.912 316.6ZM560.256 311.352C558.976 311.352 557.824 312.04 557.68 314.056H562.576C562.624 312.152 561.504 311.352 560.256 311.352ZM568.788 310.392C569.892 310.392 570.692 311.128 570.692 312.568V313.4L569.7 313.592V312.76C569.7 311.912 569.412 311.352 568.548 311.352C567.572 311.352 566.836 312.072 566.836 313.784V319H565.748V310.52H566.836V311.576C567.284 310.776 568.036 310.392 568.788 310.392ZM576.194 310.392C577.89 310.392 578.882 311.432 578.882 313.336V319H577.794V313.496C577.794 311.96 577.09 311.384 575.906 311.384C574.418 311.384 573.73 312.536 573.73 314.232V319H572.642V310.52H573.73V311.832C574.242 310.904 575.17 310.392 576.194 310.392ZM587.621 319H586.629C586.501 318.536 586.405 317.976 586.405 317.336C585.973 318.328 584.869 319.128 583.493 319.128C581.989 319.128 580.853 318.152 580.853 316.696C580.853 314.952 582.421 314.04 584.165 314.04C584.853 314.04 585.525 314.12 586.213 314.36V313.24C586.213 312.136 585.541 311.384 584.229 311.384C583.173 311.384 582.277 311.848 581.829 313.144L580.869 312.856C581.509 311.064 582.805 310.392 584.293 310.392C586.389 310.392 587.269 311.656 587.269 313.112V316.6C587.269 317.56 587.429 318.424 587.621 319ZM586.213 315.48V315.288C585.557 315.016 584.885 314.936 584.229 314.936C582.949 314.936 581.941 315.512 581.941 316.632C581.941 317.656 582.661 318.2 583.685 318.2C584.789 318.2 586.213 317.544 586.213 315.48ZM591.36 316.888C591.36 317.88 591.952 318.168 592.48 318.168C592.992 318.168 593.328 317.976 593.728 317.56L594.304 318.2C593.744 318.856 593.136 319.128 592.384 319.128C591.232 319.128 590.272 318.36 590.272 316.856V311.416H588.672V310.52H590.272V308.696L591.36 308.056V310.52H594.112V311.416H591.36V316.888ZM595.675 307.224H597.339V308.856H595.675V307.224ZM595.963 319V310.52H597.051V319H595.963ZM605.015 310.52H606.135L602.807 319H601.847L598.519 310.52H599.703L602.359 317.8L605.015 310.52ZM613.074 316.6L613.874 317.048C613.474 318.072 612.418 319.128 610.53 319.128C608.146 319.128 606.738 317.352 606.738 314.648C606.738 312.168 608.21 310.392 610.418 310.392C612.242 310.392 613.81 311.704 613.81 314.008L613.778 314.952H607.842C607.938 317.208 609.01 318.168 610.642 318.168C611.922 318.168 612.674 317.432 613.074 316.6ZM610.418 311.352C609.138 311.352 607.986 312.04 607.842 314.056H612.738C612.786 312.152 611.666 311.352 610.418 311.352ZM619.462 310.392C621.158 310.392 622.15 311.432 622.15 313.336V319H621.062V313.496C621.062 311.96 620.358 311.384 619.174 311.384C617.686 311.384 616.998 312.536 616.998 314.232V319H615.91V310.52H616.998V311.832C617.51 310.904 618.438 310.392 619.462 310.392ZM630.362 316.6L631.162 317.048C630.762 318.072 629.706 319.128 627.818 319.128C625.434 319.128 624.026 317.352 624.026 314.648C624.026 312.168 625.498 310.392 627.706 310.392C629.53 310.392 631.098 311.704 631.098 314.008L631.066 314.952H625.13C625.226 317.208 626.298 318.168 627.93 318.168C629.21 318.168 629.962 317.432 630.362 316.6ZM627.706 311.352C626.426 311.352 625.274 312.04 625.13 314.056H630.026C630.074 312.152 628.954 311.352 627.706 311.352ZM640.324 319.128C638.228 319.128 636.548 317.4 636.548 314.744C636.548 312.12 638.212 310.392 640.324 310.392C642.436 310.392 644.1 312.12 644.1 314.744C644.1 317.4 642.42 319.128 640.324 319.128ZM640.324 318.168C641.78 318.168 642.98 317.016 642.98 314.744C642.98 312.488 641.764 311.352 640.324 311.352C638.884 311.352 637.668 312.488 637.668 314.744C637.668 317.016 638.868 318.168 640.324 318.168ZM651.206 310.52H652.326L648.998 319H648.038L644.71 310.52H645.894L648.55 317.8L651.206 310.52ZM659.265 316.6L660.065 317.048C659.665 318.072 658.609 319.128 656.721 319.128C654.337 319.128 652.929 317.352 652.929 314.648C652.929 312.168 654.401 310.392 656.609 310.392C658.433 310.392 660.001 311.704 660.001 314.008L659.969 314.952H654.033C654.129 317.208 655.201 318.168 656.833 318.168C658.113 318.168 658.865 317.432 659.265 316.6ZM656.609 311.352C655.329 311.352 654.177 312.04 654.033 314.056H658.929C658.977 312.152 657.857 311.352 656.609 311.352ZM665.141 310.392C666.245 310.392 667.045 311.128 667.045 312.568V313.4L666.053 313.592V312.76C666.053 311.912 665.765 311.352 664.901 311.352C663.925 311.352 663.189 312.072 663.189 313.784V319H662.101V310.52H663.189V311.576C663.637 310.776 664.389 310.392 665.141 310.392ZM667.56 319.096C666.984 319.096 666.536 318.664 666.536 318.072C666.536 317.48 666.984 317.048 667.56 317.048C668.136 317.048 668.584 317.48 668.584 318.072C668.584 318.664 668.136 319.096 667.56 319.096Z" fill="#2A2859"/>
<path d="M316 337V289H308V337H316Z" fill="#FF8274" mask="url(#path-11-inside-1_5860_869)"/>
</svg>
