<svg width="1024" height="376" viewBox="0 0 1024 376" fill="none" xmlns="http://www.w3.org/2000/svg">
<rect width="1024" height="376" fill="white"/>
<path d="M212.672 124.056H219.152V126H210.566V112.68H219.044V114.624H212.672V118.35H217.586V120.294H212.672V124.056ZM223.487 123.048C223.487 124.11 224.135 124.434 224.801 124.434C225.323 124.434 225.737 124.218 226.151 123.804L227.015 125.1C226.295 125.82 225.503 126.162 224.477 126.162C222.821 126.162 221.471 125.154 221.471 123.174V118.026H219.797V116.46H221.471V114.336L223.487 113.418V116.46H226.853V118.026H223.487V123.048ZM229.769 114.876C228.977 114.876 228.347 114.264 228.347 113.454C228.347 112.644 228.977 112.032 229.769 112.032C230.561 112.032 231.173 112.644 231.173 113.454C231.173 114.264 230.561 114.876 229.769 114.876ZM228.761 126V116.46H230.777V126H228.761ZM239.671 126L236.773 121.626L235.675 122.706V126H233.659V112.68H235.675V120.42L239.527 116.46H242.011L238.105 120.312L242.083 126H239.671ZM249.679 122.994L251.047 123.786C250.507 124.974 249.247 126.162 247.069 126.162C244.243 126.162 242.533 124.074 242.533 121.14C242.533 118.242 244.387 116.244 246.925 116.244C249.175 116.244 251.029 117.756 251.029 120.456L250.993 121.644H244.513C244.621 123.66 245.611 124.524 247.195 124.524C248.365 124.524 249.175 123.894 249.679 122.994ZM246.925 117.828C245.701 117.828 244.675 118.476 244.513 120.204H249.067C249.085 118.512 248.041 117.828 246.925 117.828ZM255.84 123.048C255.84 124.11 256.488 124.434 257.154 124.434C257.676 124.434 258.09 124.218 258.504 123.804L259.368 125.1C258.648 125.82 257.856 126.162 256.83 126.162C255.174 126.162 253.824 125.154 253.824 123.174V118.026H252.15V116.46H253.824V114.336L255.84 113.418V116.46H259.206V118.026H255.84V123.048ZM263.655 123.048C263.655 124.11 264.303 124.434 264.969 124.434C265.491 124.434 265.905 124.218 266.319 123.804L267.183 125.1C266.463 125.82 265.671 126.162 264.645 126.162C262.989 126.162 261.639 125.154 261.639 123.174V118.026H259.965V116.46H261.639V114.336L263.655 113.418V116.46H267.021V118.026H263.655V123.048Z" fill="#2A2859"/>
<rect x="210" y="143" width="22" height="22" fill="white"/>
<rect x="210" y="143" width="22" height="22" stroke="#2A2859" stroke-width="2"/>
<path d="M243.528 158.944H249.032V160H242.408V148.16H243.528V158.944ZM256.715 160H255.723C255.595 159.536 255.499 158.976 255.499 158.336C255.067 159.328 253.963 160.128 252.587 160.128C251.083 160.128 249.947 159.152 249.947 157.696C249.947 155.952 251.515 155.04 253.259 155.04C253.947 155.04 254.619 155.12 255.307 155.36V154.24C255.307 153.136 254.635 152.384 253.323 152.384C252.267 152.384 251.371 152.848 250.923 154.144L249.963 153.856C250.603 152.064 251.899 151.392 253.387 151.392C255.483 151.392 256.363 152.656 256.363 154.112V157.6C256.363 158.56 256.523 159.424 256.715 160ZM255.307 156.48V156.288C254.651 156.016 253.979 155.936 253.323 155.936C252.043 155.936 251.035 156.512 251.035 157.632C251.035 158.656 251.755 159.2 252.779 159.2C253.883 159.2 255.307 158.544 255.307 156.48ZM262.818 151.408C264.978 151.408 266.434 153.216 266.434 155.68C266.434 158.288 264.962 160.128 262.69 160.128C261.506 160.128 260.546 159.536 260.034 158.464V160H258.946V148.16H260.034V153.104C260.594 152.016 261.714 151.408 262.818 151.408ZM262.69 159.168C264.274 159.168 265.314 157.952 265.314 155.728C265.314 153.584 264.274 152.368 262.706 152.368C261.01 152.368 260.034 153.632 260.034 155.712C260.034 157.92 260.994 159.168 262.69 159.168ZM274.24 157.6L275.04 158.048C274.64 159.072 273.584 160.128 271.696 160.128C269.312 160.128 267.904 158.352 267.904 155.648C267.904 153.168 269.376 151.392 271.584 151.392C273.408 151.392 274.976 152.704 274.976 155.008L274.944 155.952H269.008C269.104 158.208 270.176 159.168 271.808 159.168C273.088 159.168 273.84 158.432 274.24 157.6ZM271.584 152.352C270.304 152.352 269.152 153.04 269.008 155.056H273.904C273.952 153.152 272.832 152.352 271.584 152.352ZM279.732 159.968C279.476 160.032 279.268 160.064 279.028 160.064C277.7 160.064 277.076 159.232 277.076 157.984V148.16H278.164V157.984C278.164 158.704 278.548 159.072 279.22 159.072C279.396 159.072 279.572 159.056 279.732 159.008V159.968ZM289.874 159.072H292.498V160H286.034V159.072H288.786V149.408L286.194 151.2V150.016L288.85 148.16H289.874V159.072Z" fill="#2A2859"/>
<rect x="210" y="183" width="22" height="22" fill="white"/>
<rect x="210" y="183" width="22" height="22" stroke="#2A2859" stroke-width="2"/>
<path d="M243.528 198.944H249.032V200H242.408V188.16H243.528V198.944ZM256.715 200H255.723C255.595 199.536 255.499 198.976 255.499 198.336C255.067 199.328 253.963 200.128 252.587 200.128C251.083 200.128 249.947 199.152 249.947 197.696C249.947 195.952 251.515 195.04 253.259 195.04C253.947 195.04 254.619 195.12 255.307 195.36V194.24C255.307 193.136 254.635 192.384 253.323 192.384C252.267 192.384 251.371 192.848 250.923 194.144L249.963 193.856C250.603 192.064 251.899 191.392 253.387 191.392C255.483 191.392 256.363 192.656 256.363 194.112V197.6C256.363 198.56 256.523 199.424 256.715 200ZM255.307 196.48V196.288C254.651 196.016 253.979 195.936 253.323 195.936C252.043 195.936 251.035 196.512 251.035 197.632C251.035 198.656 251.755 199.2 252.779 199.2C253.883 199.2 255.307 198.544 255.307 196.48ZM262.818 191.408C264.978 191.408 266.434 193.216 266.434 195.68C266.434 198.288 264.962 200.128 262.69 200.128C261.506 200.128 260.546 199.536 260.034 198.464V200H258.946V188.16H260.034V193.104C260.594 192.016 261.714 191.408 262.818 191.408ZM262.69 199.168C264.274 199.168 265.314 197.952 265.314 195.728C265.314 193.584 264.274 192.368 262.706 192.368C261.01 192.368 260.034 193.632 260.034 195.712C260.034 197.92 260.994 199.168 262.69 199.168ZM274.24 197.6L275.04 198.048C274.64 199.072 273.584 200.128 271.696 200.128C269.312 200.128 267.904 198.352 267.904 195.648C267.904 193.168 269.376 191.392 271.584 191.392C273.408 191.392 274.976 192.704 274.976 195.008L274.944 195.952H269.008C269.104 198.208 270.176 199.168 271.808 199.168C273.088 199.168 273.84 198.432 274.24 197.6ZM271.584 192.352C270.304 192.352 269.152 193.04 269.008 195.056H273.904C273.952 193.152 272.832 192.352 271.584 192.352ZM279.732 199.968C279.476 200.032 279.268 200.064 279.028 200.064C277.7 200.064 277.076 199.232 277.076 197.984V188.16H278.164V197.984C278.164 198.704 278.548 199.072 279.22 199.072C279.396 199.072 279.572 199.056 279.732 199.008V199.968ZM286.946 198.976H293.186V200H285.442V199.168L289.698 194.432C290.962 193.04 291.49 192.272 291.49 191.2C291.49 190 290.69 189.024 289.122 189.024C287.906 189.024 286.866 189.568 286.338 191.056L285.346 190.72C286.114 188.768 287.49 188.032 289.17 188.032C291.458 188.032 292.61 189.6 292.61 191.104C292.61 192.416 292.114 193.296 290.45 195.136L286.946 198.976ZM300.491 198.944H305.995V200H299.371V188.16H300.491V198.944ZM310.589 200.128C308.493 200.128 306.813 198.4 306.813 195.744C306.813 193.12 308.477 191.392 310.589 191.392C312.701 191.392 314.365 193.12 314.365 195.744C314.365 198.4 312.685 200.128 310.589 200.128ZM310.589 199.168C312.045 199.168 313.245 198.016 313.245 195.744C313.245 193.488 312.029 192.352 310.589 192.352C309.149 192.352 307.933 193.488 307.933 195.744C307.933 198.016 309.133 199.168 310.589 199.168ZM319.416 191.392C320.52 191.392 321.32 192.128 321.32 193.568V194.4L320.328 194.592V193.76C320.328 192.912 320.04 192.352 319.176 192.352C318.2 192.352 317.464 193.072 317.464 194.784V200H316.376V191.52H317.464V192.576C317.912 191.776 318.664 191.392 319.416 191.392ZM328.577 197.6L329.377 198.048C328.977 199.072 327.921 200.128 326.033 200.128C323.649 200.128 322.241 198.352 322.241 195.648C322.241 193.168 323.713 191.392 325.921 191.392C327.745 191.392 329.313 192.704 329.313 195.008L329.281 195.952H323.345C323.441 198.208 324.513 199.168 326.145 199.168C327.425 199.168 328.177 198.432 328.577 197.6ZM325.921 192.352C324.641 192.352 323.489 193.04 323.345 195.056H328.241C328.289 193.152 327.169 192.352 325.921 192.352ZM339.861 191.392C341.477 191.392 342.421 192.416 342.421 194.176V200H341.333V194.336C341.333 192.96 340.677 192.384 339.573 192.384C338.085 192.384 337.461 193.536 337.461 195.232V200H336.373V194.336C336.373 192.96 335.717 192.384 334.613 192.384C333.125 192.384 332.501 193.536 332.501 195.232V200H331.413V191.52H332.501V192.848C333.013 191.904 333.909 191.392 334.901 191.392C336.165 191.392 337.013 192.016 337.317 193.12C337.797 192 338.773 191.392 339.861 191.392ZM349.276 189.984C348.748 189.984 348.316 189.568 348.316 189.024C348.316 188.48 348.748 188.064 349.276 188.064C349.804 188.064 350.236 188.48 350.236 189.024C350.236 189.568 349.804 189.984 349.276 189.984ZM348.732 200V191.52H349.82V200H348.732ZM356.248 191.408C358.408 191.408 359.864 193.216 359.864 195.68C359.864 198.288 358.392 200.128 356.12 200.128C354.936 200.128 353.976 199.536 353.464 198.464V203.36H352.376V191.52H353.464V193.104C354.024 192.016 355.144 191.408 356.248 191.408ZM356.12 199.168C357.704 199.168 358.744 197.952 358.744 195.728C358.744 193.584 357.704 192.368 356.136 192.368C354.44 192.368 353.464 193.632 353.464 195.712C353.464 197.92 354.424 199.168 356.12 199.168ZM361.463 193.728C361.463 192.384 362.727 191.392 364.503 191.392C366.039 191.392 367.223 192.128 367.575 193.248L366.679 193.6C366.343 192.784 365.559 192.352 364.471 192.352C363.287 192.352 362.519 192.848 362.519 193.632C362.519 194.336 362.983 194.768 363.991 194.976L365.111 195.2C366.967 195.568 367.831 196.368 367.831 197.632C367.831 199.104 366.519 200.128 364.631 200.128C362.919 200.128 361.719 199.456 361.143 198.176L362.071 197.792C362.471 198.688 363.351 199.168 364.599 199.168C365.911 199.168 366.775 198.592 366.775 197.728C366.775 196.928 366.327 196.496 365.207 196.256L363.831 195.968C362.279 195.648 361.463 194.864 361.463 193.728ZM374.545 191.52H375.633V200H374.545V198.704C374.033 199.616 373.137 200.128 372.097 200.128C370.433 200.128 369.425 199.056 369.425 197.216V191.52H370.513V197.12C370.513 198.512 371.217 199.152 372.401 199.152C373.905 199.152 374.545 197.952 374.545 196.288V191.52ZM386.568 191.392C388.184 191.392 389.128 192.416 389.128 194.176V200H388.04V194.336C388.04 192.96 387.384 192.384 386.28 192.384C384.792 192.384 384.168 193.536 384.168 195.232V200H383.08V194.336C383.08 192.96 382.424 192.384 381.32 192.384C379.832 192.384 379.208 193.536 379.208 195.232V200H378.12V191.52H379.208V192.848C379.72 191.904 380.616 191.392 381.608 191.392C382.872 191.392 383.72 192.016 384.024 193.12C384.504 192 385.48 191.392 386.568 191.392ZM401.295 188.16H402.383V200H401.295V198.416C400.735 199.504 399.615 200.112 398.511 200.112C396.351 200.112 394.895 198.304 394.895 195.84C394.895 193.232 396.367 191.392 398.639 191.392C399.823 191.392 400.783 191.984 401.295 193.056V188.16ZM398.623 199.152C400.319 199.152 401.295 197.888 401.295 195.808C401.295 193.6 400.335 192.352 398.639 192.352C397.055 192.352 396.015 193.568 396.015 195.792C396.015 197.936 397.055 199.152 398.623 199.152ZM408.096 200.128C406 200.128 404.32 198.4 404.32 195.744C404.32 193.12 405.984 191.392 408.096 191.392C410.208 191.392 411.872 193.12 411.872 195.744C411.872 198.4 410.192 200.128 408.096 200.128ZM408.096 199.168C409.552 199.168 410.752 198.016 410.752 195.744C410.752 193.488 409.536 192.352 408.096 192.352C406.656 192.352 405.44 193.488 405.44 195.744C405.44 198.016 406.64 199.168 408.096 199.168ZM416.538 199.968C416.282 200.032 416.074 200.064 415.834 200.064C414.506 200.064 413.882 199.232 413.882 197.984V188.16H414.97V197.984C414.97 198.704 415.354 199.072 416.026 199.072C416.202 199.072 416.378 199.056 416.538 199.008V199.968ZM421.305 200.128C419.209 200.128 417.529 198.4 417.529 195.744C417.529 193.12 419.193 191.392 421.305 191.392C423.417 191.392 425.081 193.12 425.081 195.744C425.081 198.4 423.401 200.128 421.305 200.128ZM421.305 199.168C422.761 199.168 423.961 198.016 423.961 195.744C423.961 193.488 422.745 192.352 421.305 192.352C419.865 192.352 418.649 193.488 418.649 195.744C418.649 198.016 419.849 199.168 421.305 199.168ZM430.132 191.392C431.236 191.392 432.036 192.128 432.036 193.568V194.4L431.044 194.592V193.76C431.044 192.912 430.756 192.352 429.892 192.352C428.916 192.352 428.18 193.072 428.18 194.784V200H427.092V191.52H428.18V192.576C428.628 191.776 429.38 191.392 430.132 191.392ZM437.463 193.728C437.463 192.384 438.727 191.392 440.503 191.392C442.039 191.392 443.223 192.128 443.575 193.248L442.679 193.6C442.343 192.784 441.559 192.352 440.471 192.352C439.287 192.352 438.519 192.848 438.519 193.632C438.519 194.336 438.983 194.768 439.991 194.976L441.111 195.2C442.967 195.568 443.831 196.368 443.831 197.632C443.831 199.104 442.519 200.128 440.631 200.128C438.919 200.128 437.719 199.456 437.143 198.176L438.071 197.792C438.471 198.688 439.351 199.168 440.599 199.168C441.911 199.168 442.775 198.592 442.775 197.728C442.775 196.928 442.327 196.496 441.207 196.256L439.831 195.968C438.279 195.648 437.463 194.864 437.463 193.728ZM445.485 188.224H447.149V189.856H445.485V188.224ZM445.773 200V191.52H446.861V200H445.773ZM451.113 197.888C451.113 198.88 451.705 199.168 452.233 199.168C452.745 199.168 453.081 198.976 453.481 198.56L454.057 199.2C453.497 199.856 452.889 200.128 452.137 200.128C450.985 200.128 450.025 199.36 450.025 197.856V192.416H448.425V191.52H450.025V189.696L451.113 189.056V191.52H453.865V192.416H451.113V197.888ZM465.93 200H464.938C464.81 199.536 464.714 198.976 464.714 198.336C464.282 199.328 463.178 200.128 461.802 200.128C460.298 200.128 459.162 199.152 459.162 197.696C459.162 195.952 460.73 195.04 462.474 195.04C463.162 195.04 463.834 195.12 464.522 195.36V194.24C464.522 193.136 463.85 192.384 462.538 192.384C461.482 192.384 460.586 192.848 460.138 194.144L459.178 193.856C459.818 192.064 461.114 191.392 462.602 191.392C464.698 191.392 465.578 192.656 465.578 194.112V197.6C465.578 198.56 465.738 199.424 465.93 200ZM464.522 196.48V196.288C463.866 196.016 463.194 195.936 462.538 195.936C461.258 195.936 460.25 196.512 460.25 197.632C460.25 198.656 460.97 199.2 461.994 199.2C463.098 199.2 464.522 198.544 464.522 196.48ZM476.577 191.392C478.193 191.392 479.137 192.416 479.137 194.176V200H478.049V194.336C478.049 192.96 477.393 192.384 476.289 192.384C474.801 192.384 474.177 193.536 474.177 195.232V200H473.089V194.336C473.089 192.96 472.433 192.384 471.329 192.384C469.841 192.384 469.217 193.536 469.217 195.232V200H468.129V191.52H469.217V192.848C469.729 191.904 470.625 191.392 471.617 191.392C472.881 191.392 473.729 192.016 474.033 193.12C474.513 192 475.489 191.392 476.577 191.392ZM487.346 197.6L488.146 198.048C487.746 199.072 486.69 200.128 484.802 200.128C482.418 200.128 481.01 198.352 481.01 195.648C481.01 193.168 482.482 191.392 484.69 191.392C486.514 191.392 488.082 192.704 488.082 195.008L488.05 195.952H482.114C482.21 198.208 483.282 199.168 484.914 199.168C486.194 199.168 486.946 198.432 487.346 197.6ZM484.69 192.352C483.41 192.352 482.258 193.04 482.114 195.056H487.01C487.058 193.152 485.938 192.352 484.69 192.352ZM491.722 197.888C491.722 198.88 492.314 199.168 492.842 199.168C493.354 199.168 493.69 198.976 494.09 198.56L494.666 199.2C494.106 199.856 493.498 200.128 492.746 200.128C491.594 200.128 490.634 199.36 490.634 197.856V192.416H489.034V191.52H490.634V189.696L491.722 189.056V191.52H494.474V192.416H491.722V197.888ZM497.062 198.08C497.734 198.08 498.246 198.656 498.246 199.744C498.246 200.8 497.814 201.856 496.422 202.944L496.038 202.496C496.79 201.824 497.51 201.152 497.382 200.032C497.302 200.048 497.19 200.064 497.062 200.064C496.486 200.064 496.038 199.696 496.038 199.072C496.038 198.512 496.47 198.08 497.062 198.08ZM248.04 218.048C247.688 216.992 246.84 216.352 245.736 216.352C244.056 216.352 242.952 217.648 242.952 219.648C242.952 221.84 244.056 223.168 245.864 223.168C246.984 223.168 247.88 222.512 248.328 221.408L249.128 221.856C248.616 223.264 247.304 224.128 245.832 224.128C243.384 224.128 241.832 222.352 241.832 219.648C241.832 217.184 243.496 215.392 245.768 215.392C247.432 215.392 248.632 216.384 248.968 217.728L248.04 218.048ZM253.986 224.128C251.89 224.128 250.21 222.4 250.21 219.744C250.21 217.12 251.874 215.392 253.986 215.392C256.098 215.392 257.762 217.12 257.762 219.744C257.762 222.4 256.082 224.128 253.986 224.128ZM253.986 223.168C255.442 223.168 256.642 222.016 256.642 219.744C256.642 217.488 255.426 216.352 253.986 216.352C252.546 216.352 251.33 217.488 251.33 219.744C251.33 222.016 252.53 223.168 253.986 223.168ZM263.325 215.392C265.021 215.392 266.013 216.432 266.013 218.336V224H264.925V218.496C264.925 216.96 264.221 216.384 263.037 216.384C261.549 216.384 260.861 217.536 260.861 219.232V224H259.773V215.52H260.861V216.832C261.373 215.904 262.301 215.392 263.325 215.392ZM268.016 217.728C268.016 216.384 269.28 215.392 271.056 215.392C272.592 215.392 273.776 216.128 274.128 217.248L273.232 217.6C272.896 216.784 272.112 216.352 271.024 216.352C269.84 216.352 269.072 216.848 269.072 217.632C269.072 218.336 269.536 218.768 270.544 218.976L271.664 219.2C273.52 219.568 274.384 220.368 274.384 221.632C274.384 223.104 273.072 224.128 271.184 224.128C269.472 224.128 268.272 223.456 267.696 222.176L268.624 221.792C269.024 222.688 269.904 223.168 271.152 223.168C272.464 223.168 273.328 222.592 273.328 221.728C273.328 220.928 272.88 220.496 271.76 220.256L270.384 219.968C268.832 219.648 268.016 218.864 268.016 217.728ZM282.118 221.6L282.918 222.048C282.518 223.072 281.462 224.128 279.574 224.128C277.19 224.128 275.782 222.352 275.782 219.648C275.782 217.168 277.254 215.392 279.462 215.392C281.286 215.392 282.854 216.704 282.854 219.008L282.822 219.952H276.886C276.982 222.208 278.054 223.168 279.686 223.168C280.966 223.168 281.718 222.432 282.118 221.6ZM279.462 216.352C278.182 216.352 277.03 217.04 276.886 219.056H281.782C281.83 217.152 280.71 216.352 279.462 216.352ZM290.618 218.048C290.266 216.992 289.418 216.352 288.314 216.352C286.634 216.352 285.53 217.648 285.53 219.648C285.53 221.84 286.634 223.168 288.442 223.168C289.562 223.168 290.458 222.512 290.906 221.408L291.706 221.856C291.194 223.264 289.882 224.128 288.41 224.128C285.962 224.128 284.41 222.352 284.41 219.648C284.41 217.184 286.074 215.392 288.346 215.392C290.01 215.392 291.21 216.384 291.546 217.728L290.618 218.048ZM295.341 221.888C295.341 222.88 295.933 223.168 296.461 223.168C296.973 223.168 297.309 222.976 297.709 222.56L298.285 223.2C297.725 223.856 297.117 224.128 296.365 224.128C295.213 224.128 294.253 223.36 294.253 221.856V216.416H292.653V215.52H294.253V213.696L295.341 213.056V215.52H298.093V216.416H295.341V221.888ZM305.252 221.6L306.052 222.048C305.652 223.072 304.596 224.128 302.708 224.128C300.324 224.128 298.916 222.352 298.916 219.648C298.916 217.168 300.388 215.392 302.596 215.392C304.42 215.392 305.988 216.704 305.988 219.008L305.956 219.952H300.02C300.116 222.208 301.188 223.168 302.82 223.168C304.1 223.168 304.852 222.432 305.252 221.6ZM302.596 216.352C301.316 216.352 300.164 217.04 300.02 219.056H304.916C304.964 217.152 303.844 216.352 302.596 216.352ZM309.628 221.888C309.628 222.88 310.22 223.168 310.748 223.168C311.26 223.168 311.596 222.976 311.996 222.56L312.572 223.2C312.012 223.856 311.404 224.128 310.652 224.128C309.5 224.128 308.54 223.36 308.54 221.856V216.416H306.94V215.52H308.54V213.696L309.628 213.056V215.52H312.38V216.416H309.628V221.888ZM319.004 215.52H320.092V224H319.004V222.704C318.492 223.616 317.596 224.128 316.556 224.128C314.892 224.128 313.884 223.056 313.884 221.216V215.52H314.972V221.12C314.972 222.512 315.676 223.152 316.86 223.152C318.364 223.152 319.004 221.952 319.004 220.288V215.52ZM325.619 215.392C326.723 215.392 327.523 216.128 327.523 217.568V218.4L326.531 218.592V217.76C326.531 216.912 326.243 216.352 325.379 216.352C324.403 216.352 323.667 217.072 323.667 218.784V224H322.579V215.52H323.667V216.576C324.115 215.776 324.867 215.392 325.619 215.392ZM339.159 221.6L339.959 222.048C339.559 223.072 338.503 224.128 336.615 224.128C334.231 224.128 332.823 222.352 332.823 219.648C332.823 217.168 334.295 215.392 336.503 215.392C338.327 215.392 339.895 216.704 339.895 219.008L339.863 219.952H333.927C334.023 222.208 335.095 223.168 336.727 223.168C338.007 223.168 338.759 222.432 339.159 221.6ZM336.503 216.352C335.223 216.352 334.071 217.04 333.927 219.056H338.823C338.871 217.152 337.751 216.352 336.503 216.352ZM344.651 223.968C344.395 224.032 344.187 224.064 343.947 224.064C342.619 224.064 341.995 223.232 341.995 221.984V212.16H343.083V221.984C343.083 222.704 343.467 223.072 344.139 223.072C344.315 223.072 344.491 223.056 344.651 223.008V223.968ZM347.975 221.888C347.975 222.88 348.567 223.168 349.095 223.168C349.607 223.168 349.943 222.976 350.343 222.56L350.919 223.2C350.359 223.856 349.751 224.128 348.999 224.128C347.847 224.128 346.887 223.36 346.887 221.856V216.416H345.287V215.52H346.887V213.696L347.975 213.056V215.52H350.727V216.416H347.975V221.888ZM356.057 217.728C356.057 216.384 357.321 215.392 359.097 215.392C360.633 215.392 361.817 216.128 362.169 217.248L361.273 217.6C360.937 216.784 360.153 216.352 359.065 216.352C357.881 216.352 357.113 216.848 357.113 217.632C357.113 218.336 357.577 218.768 358.585 218.976L359.705 219.2C361.561 219.568 362.425 220.368 362.425 221.632C362.425 223.104 361.113 224.128 359.225 224.128C357.513 224.128 356.313 223.456 355.737 222.176L356.665 221.792C357.065 222.688 357.945 223.168 359.193 223.168C360.505 223.168 361.369 222.592 361.369 221.728C361.369 220.928 360.921 220.496 359.801 220.256L358.425 219.968C356.873 219.648 356.057 218.864 356.057 217.728ZM369.138 215.52H370.226V224H369.138V222.704C368.626 223.616 367.73 224.128 366.69 224.128C365.026 224.128 364.018 223.056 364.018 221.216V215.52H365.106V221.12C365.106 222.512 365.81 223.152 366.994 223.152C368.498 223.152 369.138 221.952 369.138 220.288V215.52ZM372.297 217.728C372.297 216.384 373.561 215.392 375.337 215.392C376.873 215.392 378.057 216.128 378.409 217.248L377.513 217.6C377.177 216.784 376.393 216.352 375.305 216.352C374.121 216.352 373.353 216.848 373.353 217.632C373.353 218.336 373.817 218.768 374.825 218.976L375.945 219.2C377.801 219.568 378.665 220.368 378.665 221.632C378.665 223.104 377.353 224.128 375.465 224.128C373.753 224.128 372.553 223.456 371.977 222.176L372.905 221.792C373.305 222.688 374.185 223.168 375.433 223.168C376.745 223.168 377.609 222.592 377.609 221.728C377.609 220.928 377.161 220.496 376.041 220.256L374.665 219.968C373.113 219.648 372.297 218.864 372.297 217.728ZM384.479 215.408C386.639 215.408 388.095 217.216 388.095 219.68C388.095 222.288 386.623 224.128 384.351 224.128C383.167 224.128 382.207 223.536 381.695 222.464V227.36H380.607V215.52H381.695V217.104C382.255 216.016 383.375 215.408 384.479 215.408ZM384.351 223.168C385.935 223.168 386.975 221.952 386.975 219.728C386.975 217.584 385.935 216.368 384.367 216.368C382.671 216.368 381.695 217.632 381.695 219.712C381.695 221.92 382.655 223.168 384.351 223.168ZM395.902 221.6L396.702 222.048C396.302 223.072 395.246 224.128 393.358 224.128C390.974 224.128 389.566 222.352 389.566 219.648C389.566 217.168 391.038 215.392 393.246 215.392C395.07 215.392 396.638 216.704 396.638 219.008L396.606 219.952H390.67C390.766 222.208 391.838 223.168 393.47 223.168C394.75 223.168 395.502 222.432 395.902 221.6ZM393.246 216.352C391.966 216.352 390.814 217.04 390.67 219.056H395.566C395.614 217.152 394.494 216.352 393.246 216.352ZM402.291 215.392C403.987 215.392 404.979 216.432 404.979 218.336V224H403.891V218.496C403.891 216.96 403.187 216.384 402.003 216.384C400.515 216.384 399.827 217.536 399.827 219.232V224H398.739V215.52H399.827V216.832C400.339 215.904 401.267 215.392 402.291 215.392ZM413.254 212.16H414.342V224H413.254V222.416C412.694 223.504 411.574 224.112 410.47 224.112C408.31 224.112 406.854 222.304 406.854 219.84C406.854 217.232 408.326 215.392 410.598 215.392C411.782 215.392 412.742 215.984 413.254 217.056V212.16ZM410.582 223.152C412.278 223.152 413.254 221.888 413.254 219.808C413.254 217.6 412.294 216.352 410.598 216.352C409.014 216.352 407.974 217.568 407.974 219.792C407.974 221.936 409.014 223.152 410.582 223.152ZM417.367 213.984C416.839 213.984 416.407 213.568 416.407 213.024C416.407 212.48 416.839 212.064 417.367 212.064C417.895 212.064 418.327 212.48 418.327 213.024C418.327 213.568 417.895 213.984 417.367 213.984ZM416.823 224V215.52H417.911V224H416.823ZM420.051 217.728C420.051 216.384 421.315 215.392 423.091 215.392C424.627 215.392 425.811 216.128 426.163 217.248L425.267 217.6C424.931 216.784 424.147 216.352 423.059 216.352C421.875 216.352 421.107 216.848 421.107 217.632C421.107 218.336 421.571 218.768 422.579 218.976L423.699 219.2C425.555 219.568 426.419 220.368 426.419 221.632C426.419 223.104 425.107 224.128 423.219 224.128C421.507 224.128 420.307 223.456 419.731 222.176L420.659 221.792C421.059 222.688 421.939 223.168 423.187 223.168C424.499 223.168 425.363 222.592 425.363 221.728C425.363 220.928 424.915 220.496 423.795 220.256L422.419 219.968C420.867 219.648 420.051 218.864 420.051 217.728ZM427.944 217.728C427.944 216.384 429.208 215.392 430.984 215.392C432.52 215.392 433.704 216.128 434.056 217.248L433.16 217.6C432.824 216.784 432.04 216.352 430.952 216.352C429.768 216.352 429 216.848 429 217.632C429 218.336 429.464 218.768 430.472 218.976L431.592 219.2C433.448 219.568 434.312 220.368 434.312 221.632C434.312 223.104 433 224.128 431.112 224.128C429.4 224.128 428.2 223.456 427.624 222.176L428.552 221.792C428.952 222.688 429.832 223.168 431.08 223.168C432.392 223.168 433.256 222.592 433.256 221.728C433.256 220.928 432.808 220.496 431.688 220.256L430.312 219.968C428.76 219.648 427.944 218.864 427.944 217.728ZM442.046 221.6L442.846 222.048C442.446 223.072 441.39 224.128 439.502 224.128C437.118 224.128 435.71 222.352 435.71 219.648C435.71 217.168 437.182 215.392 439.39 215.392C441.214 215.392 442.782 216.704 442.782 219.008L442.75 219.952H436.814C436.91 222.208 437.982 223.168 439.614 223.168C440.894 223.168 441.646 222.432 442.046 221.6ZM439.39 216.352C438.11 216.352 436.958 217.04 436.814 219.056H441.71C441.758 217.152 440.638 216.352 439.39 216.352Z" fill="#2A2859"/>
<rect x="210" y="247" width="22" height="22" fill="white"/>
<rect x="210" y="247" width="22" height="22" stroke="#2A2859" stroke-width="2"/>
<path d="M243.528 262.944H249.032V264H242.408V252.16H243.528V262.944ZM256.715 264H255.723C255.595 263.536 255.499 262.976 255.499 262.336C255.067 263.328 253.963 264.128 252.587 264.128C251.083 264.128 249.947 263.152 249.947 261.696C249.947 259.952 251.515 259.04 253.259 259.04C253.947 259.04 254.619 259.12 255.307 259.36V258.24C255.307 257.136 254.635 256.384 253.323 256.384C252.267 256.384 251.371 256.848 250.923 258.144L249.963 257.856C250.603 256.064 251.899 255.392 253.387 255.392C255.483 255.392 256.363 256.656 256.363 258.112V261.6C256.363 262.56 256.523 263.424 256.715 264ZM255.307 260.48V260.288C254.651 260.016 253.979 259.936 253.323 259.936C252.043 259.936 251.035 260.512 251.035 261.632C251.035 262.656 251.755 263.2 252.779 263.2C253.883 263.2 255.307 262.544 255.307 260.48ZM262.818 255.408C264.978 255.408 266.434 257.216 266.434 259.68C266.434 262.288 264.962 264.128 262.69 264.128C261.506 264.128 260.546 263.536 260.034 262.464V264H258.946V252.16H260.034V257.104C260.594 256.016 261.714 255.408 262.818 255.408ZM262.69 263.168C264.274 263.168 265.314 261.952 265.314 259.728C265.314 257.584 264.274 256.368 262.706 256.368C261.01 256.368 260.034 257.632 260.034 259.712C260.034 261.92 260.994 263.168 262.69 263.168ZM274.24 261.6L275.04 262.048C274.64 263.072 273.584 264.128 271.696 264.128C269.312 264.128 267.904 262.352 267.904 259.648C267.904 257.168 269.376 255.392 271.584 255.392C273.408 255.392 274.976 256.704 274.976 259.008L274.944 259.952H269.008C269.104 262.208 270.176 263.168 271.808 263.168C273.088 263.168 273.84 262.432 274.24 261.6ZM271.584 256.352C270.304 256.352 269.152 257.04 269.008 259.056H273.904C273.952 257.152 272.832 256.352 271.584 256.352ZM279.732 263.968C279.476 264.032 279.268 264.064 279.028 264.064C277.7 264.064 277.076 263.232 277.076 261.984V252.16H278.164V261.984C278.164 262.704 278.548 263.072 279.22 263.072C279.396 263.072 279.572 263.056 279.732 263.008V263.968ZM290.978 257.744C292.162 258.144 293.09 259.136 293.09 260.672C293.09 262.576 291.506 264.128 288.978 264.128C287.458 264.128 285.986 263.552 284.866 261.952L285.698 261.28C286.578 262.56 287.586 263.136 289.074 263.136C290.898 263.136 292.002 262.032 292.002 260.672C292.002 259.696 291.602 259.12 291.026 258.768C290.562 258.496 290.146 258.368 289.378 258.368H287.794V257.408H289.01C289.97 257.408 290.338 257.264 290.77 256.928C291.25 256.544 291.538 255.936 291.538 255.2C291.538 253.888 290.546 253.024 288.946 253.024C287.698 253.024 286.642 253.6 286.066 255.12L285.106 254.784C285.922 252.832 287.314 252.032 289.01 252.032C291.41 252.032 292.594 253.616 292.594 255.168C292.594 256.32 291.922 257.28 290.978 257.744Z" fill="#2A2859"/>
<line x1="545.5" y1="101" x2="545.5" y2="275" stroke="#E6E6E6"/>
<path d="M630.672 176.056H637.152V178H628.566V164.68H637.044V166.624H630.672V170.35H635.586V172.294H630.672V176.056ZM641.487 175.048C641.487 176.11 642.135 176.434 642.801 176.434C643.323 176.434 643.737 176.218 644.151 175.804L645.015 177.1C644.295 177.82 643.503 178.162 642.477 178.162C640.821 178.162 639.471 177.154 639.471 175.174V170.026H637.797V168.46H639.471V166.336L641.487 165.418V168.46H644.853V170.026H641.487V175.048ZM647.769 166.876C646.977 166.876 646.347 166.264 646.347 165.454C646.347 164.644 646.977 164.032 647.769 164.032C648.561 164.032 649.173 164.644 649.173 165.454C649.173 166.264 648.561 166.876 647.769 166.876ZM646.761 178V168.46H648.777V178H646.761ZM657.671 178L654.773 173.626L653.675 174.706V178H651.659V164.68H653.675V172.42L657.527 168.46H660.011L656.105 172.312L660.083 178H657.671ZM667.679 174.994L669.047 175.786C668.507 176.974 667.247 178.162 665.069 178.162C662.243 178.162 660.533 176.074 660.533 173.14C660.533 170.242 662.387 168.244 664.925 168.244C667.175 168.244 669.029 169.756 669.029 172.456L668.993 173.644H662.513C662.621 175.66 663.611 176.524 665.195 176.524C666.365 176.524 667.175 175.894 667.679 174.994ZM664.925 169.828C663.701 169.828 662.675 170.476 662.513 172.204H667.067C667.085 170.512 666.041 169.828 664.925 169.828ZM673.84 175.048C673.84 176.11 674.488 176.434 675.154 176.434C675.676 176.434 676.09 176.218 676.504 175.804L677.368 177.1C676.648 177.82 675.856 178.162 674.83 178.162C673.174 178.162 671.824 177.154 671.824 175.174V170.026H670.15V168.46H671.824V166.336L673.84 165.418V168.46H677.206V170.026H673.84V175.048ZM681.655 175.048C681.655 176.11 682.303 176.434 682.969 176.434C683.491 176.434 683.905 176.218 684.319 175.804L685.183 177.1C684.463 177.82 683.671 178.162 682.645 178.162C680.989 178.162 679.639 177.154 679.639 175.174V170.026H677.965V168.46H679.639V166.336L681.655 165.418V168.46H685.021V170.026H681.655V175.048Z" fill="#2A2859"/>
<rect x="628" y="195" width="22" height="22" fill="white"/>
<rect x="628" y="195" width="22" height="22" stroke="#2A2859" stroke-width="2"/>
<path d="M661.528 210.944H667.032V212H660.408V200.16H661.528V210.944ZM674.715 212H673.723C673.595 211.536 673.499 210.976 673.499 210.336C673.067 211.328 671.963 212.128 670.587 212.128C669.083 212.128 667.947 211.152 667.947 209.696C667.947 207.952 669.515 207.04 671.259 207.04C671.947 207.04 672.619 207.12 673.307 207.36V206.24C673.307 205.136 672.635 204.384 671.323 204.384C670.267 204.384 669.371 204.848 668.923 206.144L667.963 205.856C668.603 204.064 669.899 203.392 671.387 203.392C673.483 203.392 674.363 204.656 674.363 206.112V209.6C674.363 210.56 674.523 211.424 674.715 212ZM673.307 208.48V208.288C672.651 208.016 671.979 207.936 671.323 207.936C670.043 207.936 669.035 208.512 669.035 209.632C669.035 210.656 669.755 211.2 670.779 211.2C671.883 211.2 673.307 210.544 673.307 208.48ZM680.818 203.408C682.978 203.408 684.434 205.216 684.434 207.68C684.434 210.288 682.962 212.128 680.69 212.128C679.506 212.128 678.546 211.536 678.034 210.464V212H676.946V200.16H678.034V205.104C678.594 204.016 679.714 203.408 680.818 203.408ZM680.69 211.168C682.274 211.168 683.314 209.952 683.314 207.728C683.314 205.584 682.274 204.368 680.706 204.368C679.01 204.368 678.034 205.632 678.034 207.712C678.034 209.92 678.994 211.168 680.69 211.168ZM692.24 209.6L693.04 210.048C692.64 211.072 691.584 212.128 689.696 212.128C687.312 212.128 685.904 210.352 685.904 207.648C685.904 205.168 687.376 203.392 689.584 203.392C691.408 203.392 692.976 204.704 692.976 207.008L692.944 207.952H687.008C687.104 210.208 688.176 211.168 689.808 211.168C691.088 211.168 691.84 210.432 692.24 209.6ZM689.584 204.352C688.304 204.352 687.152 205.04 687.008 207.056H691.904C691.952 205.152 690.832 204.352 689.584 204.352ZM697.732 211.968C697.476 212.032 697.268 212.064 697.028 212.064C695.7 212.064 695.076 211.232 695.076 209.984V200.16H696.164V209.984C696.164 210.704 696.548 211.072 697.22 211.072C697.396 211.072 697.572 211.056 697.732 211.008V211.968ZM707.874 211.072H710.498V212H704.034V211.072H706.786V201.408L704.194 203.2V202.016L706.85 200.16H707.874V211.072Z" fill="#2A2859"/>
<rect x="730" y="195" width="22" height="22" fill="white"/>
<rect x="730" y="195" width="22" height="22" stroke="#2A2859" stroke-width="2"/>
<path d="M763.528 210.944H769.032V212H762.408V200.16H763.528V210.944ZM776.715 212H775.723C775.595 211.536 775.499 210.976 775.499 210.336C775.067 211.328 773.963 212.128 772.587 212.128C771.083 212.128 769.947 211.152 769.947 209.696C769.947 207.952 771.515 207.04 773.259 207.04C773.947 207.04 774.619 207.12 775.307 207.36V206.24C775.307 205.136 774.635 204.384 773.323 204.384C772.267 204.384 771.371 204.848 770.923 206.144L769.963 205.856C770.603 204.064 771.899 203.392 773.387 203.392C775.483 203.392 776.363 204.656 776.363 206.112V209.6C776.363 210.56 776.523 211.424 776.715 212ZM775.307 208.48V208.288C774.651 208.016 773.979 207.936 773.323 207.936C772.043 207.936 771.035 208.512 771.035 209.632C771.035 210.656 771.755 211.2 772.779 211.2C773.883 211.2 775.307 210.544 775.307 208.48ZM782.818 203.408C784.978 203.408 786.434 205.216 786.434 207.68C786.434 210.288 784.962 212.128 782.69 212.128C781.506 212.128 780.546 211.536 780.034 210.464V212H778.946V200.16H780.034V205.104C780.594 204.016 781.714 203.408 782.818 203.408ZM782.69 211.168C784.274 211.168 785.314 209.952 785.314 207.728C785.314 205.584 784.274 204.368 782.706 204.368C781.01 204.368 780.034 205.632 780.034 207.712C780.034 209.92 780.994 211.168 782.69 211.168ZM794.24 209.6L795.04 210.048C794.64 211.072 793.584 212.128 791.696 212.128C789.312 212.128 787.904 210.352 787.904 207.648C787.904 205.168 789.376 203.392 791.584 203.392C793.408 203.392 794.976 204.704 794.976 207.008L794.944 207.952H789.008C789.104 210.208 790.176 211.168 791.808 211.168C793.088 211.168 793.84 210.432 794.24 209.6ZM791.584 204.352C790.304 204.352 789.152 205.04 789.008 207.056H793.904C793.952 205.152 792.832 204.352 791.584 204.352ZM799.732 211.968C799.476 212.032 799.268 212.064 799.028 212.064C797.7 212.064 797.076 211.232 797.076 209.984V200.16H798.164V209.984C798.164 210.704 798.548 211.072 799.22 211.072C799.396 211.072 799.572 211.056 799.732 211.008V211.968ZM806.946 210.976H813.186V212H805.442V211.168L809.698 206.432C810.962 205.04 811.49 204.272 811.49 203.2C811.49 202 810.69 201.024 809.122 201.024C807.906 201.024 806.866 201.568 806.338 203.056L805.346 202.72C806.114 200.768 807.49 200.032 809.17 200.032C811.458 200.032 812.61 201.6 812.61 203.104C812.61 204.416 812.114 205.296 810.45 207.136L806.946 210.976Z" fill="#2A2859"/>
</svg>
