<svg width="855" height="462" viewBox="0 0 855 462" fill="none" xmlns="http://www.w3.org/2000/svg">
<rect width="855" height="462" fill="white"/>
<path d="M201.36 97L197.13 90.898L195.672 92.446V97H193.566V83.68H195.672V89.818L201.288 83.68H203.88L198.48 89.458L203.952 97H201.36ZM209.691 87.244C211.077 87.244 211.977 88.162 211.977 89.8V91.06L210.357 91.348V90.376C210.357 89.512 210.051 88.918 209.115 88.918C208.089 88.918 207.333 89.602 207.333 91.42V97H205.317V87.46H207.333V88.738C207.873 87.676 208.863 87.244 209.691 87.244ZM219.927 87.46H222.033L218.163 97.738C217.407 99.736 216.489 100.996 214.527 100.996C213.735 100.996 212.979 100.744 212.421 100.276L213.177 98.872C213.537 99.196 213.897 99.358 214.365 99.358C215.103 99.358 215.643 98.998 216.039 98.026L216.363 97.27L212.709 87.46H214.959L217.443 95.056L219.927 87.46ZM222.764 90.088C222.764 88.468 224.258 87.244 226.508 87.244C228.362 87.244 229.604 87.91 230.27 89.188L228.866 90.052C228.434 89.314 227.57 88.864 226.49 88.864C225.41 88.864 224.672 89.278 224.672 89.962C224.672 90.52 225.05 90.862 225.896 91.024L227.498 91.348C229.514 91.744 230.522 92.698 230.522 94.156C230.522 95.956 228.956 97.162 226.598 97.162C224.6 97.162 223.178 96.406 222.44 95.02L223.844 94.138C224.366 95.02 225.284 95.524 226.544 95.524C227.768 95.524 228.596 95.038 228.596 94.246C228.596 93.598 228.2 93.238 227.318 93.058L225.554 92.716C223.754 92.374 222.764 91.456 222.764 90.088ZM232.092 90.088C232.092 88.468 233.586 87.244 235.836 87.244C237.69 87.244 238.932 87.91 239.598 89.188L238.194 90.052C237.762 89.314 236.898 88.864 235.818 88.864C234.738 88.864 234 89.278 234 89.962C234 90.52 234.378 90.862 235.224 91.024L236.826 91.348C238.842 91.744 239.85 92.698 239.85 94.156C239.85 95.956 238.284 97.162 235.926 97.162C233.928 97.162 232.506 96.406 231.768 95.02L233.172 94.138C233.694 95.02 234.612 95.524 235.872 95.524C237.096 95.524 237.924 95.038 237.924 94.246C237.924 93.598 237.528 93.238 236.646 93.058L234.882 92.716C233.082 92.374 232.092 91.456 232.092 90.088ZM254.014 97H252.16C252.016 96.514 251.926 95.938 251.89 95.2C251.44 96.19 250.432 97.162 248.776 97.162C247.048 97.162 245.824 95.992 245.824 94.336C245.824 92.266 247.66 91.24 249.712 91.24C250.36 91.24 250.972 91.294 251.638 91.474V90.574C251.638 89.548 250.99 88.882 249.82 88.882C248.722 88.882 247.948 89.476 247.588 90.592L245.878 90.07C246.562 88.054 248.2 87.244 249.91 87.244C252.448 87.244 253.6 88.738 253.6 90.556V94.246C253.6 95.38 253.78 96.388 254.014 97ZM251.638 93.058V92.842C251.062 92.644 250.504 92.572 249.91 92.572C248.722 92.572 247.804 93.112 247.804 94.156C247.804 95.038 248.434 95.596 249.388 95.596C250.36 95.596 251.638 95.02 251.638 93.058ZM262.038 87.46H264.126L260.472 97H258.402L254.766 87.46H256.998L259.518 94.894L262.038 87.46ZM272.739 86.596V87.46H275.421V89.026H272.739V97H270.723V89.026H269.049V87.46H270.723V86.686C270.723 84.616 272.073 83.41 273.945 83.41C274.827 83.41 275.709 83.77 276.231 84.418L275.277 85.75C274.989 85.39 274.557 85.174 274.089 85.174C273.351 85.174 272.739 85.606 272.739 86.596ZM280.407 97.18C277.923 97.18 275.889 95.236 275.889 92.176C275.889 89.188 277.905 87.244 280.407 87.244C282.909 87.244 284.925 89.188 284.925 92.176C284.925 95.236 282.891 97.18 280.407 97.18ZM280.407 95.47C281.757 95.47 282.855 94.426 282.855 92.176C282.855 89.908 281.739 88.954 280.407 88.954C279.075 88.954 277.959 89.908 277.959 92.176C277.959 94.426 279.075 95.47 280.407 95.47ZM291.415 87.244C292.801 87.244 293.701 88.162 293.701 89.8V91.06L292.081 91.348V90.376C292.081 89.512 291.775 88.918 290.839 88.918C289.813 88.918 289.057 89.602 289.057 91.42V97H287.041V87.46H289.057V88.738C289.597 87.676 290.587 87.244 291.415 87.244ZM305.863 87.46H307.879V97H305.863V95.596C305.251 96.64 304.297 97.162 303.127 97.162C301.165 97.162 300.031 95.902 300.031 93.832V87.46H302.047V93.526C302.047 94.768 302.659 95.434 303.757 95.434C305.161 95.434 305.863 94.426 305.863 92.572V87.46ZM313.241 94.048C313.241 95.11 313.889 95.434 314.555 95.434C315.077 95.434 315.491 95.218 315.905 94.804L316.769 96.1C316.049 96.82 315.257 97.162 314.231 97.162C312.575 97.162 311.225 96.154 311.225 94.174V89.026H309.551V87.46H311.225V85.336L313.241 84.418V87.46H316.607V89.026H313.241V94.048ZM323.537 87.262C325.841 87.262 327.497 89.224 327.497 92.14C327.497 95.128 325.823 97.144 323.303 97.144C322.205 97.144 321.143 96.658 320.531 95.47V97H318.515V83.68H320.531V89.17C321.269 87.82 322.439 87.262 323.537 87.262ZM322.997 95.488C324.383 95.488 325.409 94.372 325.409 92.23C325.409 90.088 324.383 88.99 322.997 88.99C321.521 88.99 320.531 89.998 320.531 92.212C320.531 94.426 321.521 95.488 322.997 95.488ZM336.169 93.994L337.537 94.786C336.997 95.974 335.737 97.162 333.559 97.162C330.733 97.162 329.023 95.074 329.023 92.14C329.023 89.242 330.877 87.244 333.415 87.244C335.665 87.244 337.519 88.756 337.519 91.456L337.483 92.644H331.003C331.111 94.66 332.101 95.524 333.685 95.524C334.855 95.524 335.665 94.894 336.169 93.994ZM333.415 88.828C332.191 88.828 331.165 89.476 331.003 91.204H335.557C335.575 89.512 334.531 88.828 333.415 88.828ZM342.33 94.048C342.33 95.11 342.978 95.434 343.644 95.434C344.166 95.434 344.58 95.218 344.994 94.804L345.858 96.1C345.138 96.82 344.346 97.162 343.32 97.162C341.664 97.162 340.314 96.154 340.314 94.174V89.026H338.64V87.46H340.314V85.336L342.33 84.418V87.46H345.696V89.026H342.33V94.048ZM355.026 97H353.172C353.028 96.514 352.938 95.938 352.902 95.2C352.452 96.19 351.444 97.162 349.788 97.162C348.06 97.162 346.836 95.992 346.836 94.336C346.836 92.266 348.672 91.24 350.724 91.24C351.372 91.24 351.984 91.294 352.65 91.474V90.574C352.65 89.548 352.002 88.882 350.832 88.882C349.734 88.882 348.96 89.476 348.6 90.592L346.89 90.07C347.574 88.054 349.212 87.244 350.922 87.244C353.46 87.244 354.612 88.738 354.612 90.556V94.246C354.612 95.38 354.792 96.388 355.026 97ZM352.65 93.058V92.842C352.074 92.644 351.516 92.572 350.922 92.572C349.734 92.572 348.816 93.112 348.816 94.156C348.816 95.038 349.446 95.596 350.4 95.596C351.372 95.596 352.65 95.02 352.65 93.058ZM361.17 96.946C360.792 97.054 360.414 97.108 360.018 97.108C358.2 97.108 357.336 96.028 357.336 94.282V83.68H359.352V94.138C359.352 94.966 359.838 95.344 360.576 95.344C360.756 95.344 360.954 95.326 361.17 95.272V96.946ZM364.208 85.876C363.416 85.876 362.786 85.264 362.786 84.454C362.786 83.644 363.416 83.032 364.208 83.032C365 83.032 365.612 83.644 365.612 84.454C365.612 85.264 365 85.876 364.208 85.876ZM363.2 97V87.46H365.216V97H363.2ZM372.904 87.244C374.848 87.244 376 88.504 376 90.574V97H373.984V90.898C373.984 89.584 373.354 88.99 372.256 88.99C370.834 88.99 370.114 89.98 370.114 91.834V97H368.098V87.46H370.114V88.828C370.762 87.82 371.716 87.244 372.904 87.244ZM387.888 89.026H385.89V89.242C386.214 89.692 386.376 90.214 386.376 90.754C386.376 92.482 385.044 94.21 382.272 94.21H381.804C380.832 94.21 380.202 94.534 380.202 95.11C380.202 95.506 380.508 95.794 381.12 95.794H385.098C386.736 95.794 387.672 96.64 387.672 97.936C387.672 99.898 385.674 101.032 382.488 101.032C379.698 101.032 377.826 100.33 377.34 98.476L379.302 98.098C379.752 99.25 380.796 99.556 382.542 99.556C384.414 99.556 385.746 99.052 385.746 98.17C385.746 97.756 385.512 97.45 384.864 97.45H380.526C379.032 97.45 378.258 96.64 378.258 95.632C378.258 94.66 379.122 93.886 380.31 93.652C378.996 93.076 378.348 91.852 378.348 90.7C378.348 88.99 379.734 87.244 382.38 87.244C383.55 87.244 384.468 87.658 385.008 88.252V87.46H387.888V89.026ZM382.38 92.752C383.766 92.752 384.414 91.78 384.414 90.736C384.414 89.692 383.766 88.738 382.38 88.738C381.012 88.738 380.346 89.692 380.346 90.736C380.346 91.78 381.012 92.752 382.38 92.752ZM395.379 93.994L396.747 94.786C396.207 95.974 394.947 97.162 392.769 97.162C389.943 97.162 388.233 95.074 388.233 92.14C388.233 89.242 390.087 87.244 392.625 87.244C394.875 87.244 396.729 88.756 396.729 91.456L396.693 92.644H390.213C390.321 94.66 391.311 95.524 392.895 95.524C394.065 95.524 394.875 94.894 395.379 93.994ZM392.625 88.828C391.401 88.828 390.375 89.476 390.213 91.204H394.767C394.785 89.512 393.741 88.828 392.625 88.828ZM403.389 87.244C404.775 87.244 405.675 88.162 405.675 89.8V91.06L404.055 91.348V90.376C404.055 89.512 403.749 88.918 402.813 88.918C401.787 88.918 401.031 89.602 401.031 91.42V97H399.015V87.46H401.031V88.738C401.571 87.676 402.561 87.244 403.389 87.244ZM418.557 83.68H420.573V97H418.557V95.272C417.819 96.604 416.667 97.144 415.569 97.144C413.265 97.144 411.609 95.164 411.609 92.266C411.609 89.26 413.283 87.262 415.803 87.262C416.883 87.262 417.963 87.748 418.557 88.918V83.68ZM416.109 95.38C417.567 95.38 418.557 94.39 418.557 92.158C418.557 89.944 417.585 88.882 416.109 88.882C414.723 88.882 413.697 89.998 413.697 92.158C413.697 94.3 414.723 95.38 416.109 95.38ZM428.852 87.46H430.868V97H428.852V95.596C428.24 96.64 427.286 97.162 426.116 97.162C424.154 97.162 423.02 95.902 423.02 93.832V87.46H425.036V93.526C425.036 94.768 425.648 95.434 426.746 95.434C428.15 95.434 428.852 94.426 428.852 92.572V87.46ZM440.635 86.596V87.46H443.317V89.026H440.635V97H438.619V89.026H436.945V87.46H438.619V86.686C438.619 84.616 439.969 83.41 441.841 83.41C442.723 83.41 443.605 83.77 444.127 84.418L443.173 85.75C442.885 85.39 442.453 85.174 441.985 85.174C441.247 85.174 440.635 85.606 440.635 86.596ZM448.07 86.596C446.81 86.596 445.748 85.678 445.748 84.418C445.748 83.176 446.81 82.276 448.07 82.276C449.348 82.276 450.392 83.176 450.392 84.418C450.392 85.678 449.348 86.596 448.07 86.596ZM448.07 83.32C447.44 83.32 446.972 83.68 446.972 84.418C446.972 85.156 447.44 85.552 448.07 85.552C448.7 85.552 449.168 85.156 449.168 84.418C449.168 83.68 448.7 83.32 448.07 83.32ZM452.066 97H450.212C450.068 96.514 449.978 95.938 449.942 95.2C449.492 96.19 448.484 97.162 446.828 97.162C445.1 97.162 443.876 95.992 443.876 94.336C443.876 92.266 445.712 91.24 447.764 91.24C448.412 91.24 449.024 91.294 449.69 91.474V90.574C449.69 89.548 449.042 88.882 447.872 88.882C446.774 88.882 446 89.476 445.64 90.592L443.93 90.07C444.614 88.054 446.252 87.244 447.962 87.244C450.5 87.244 451.652 88.738 451.652 90.556V94.246C451.652 95.38 451.832 96.388 452.066 97ZM449.69 93.058V92.842C449.114 92.644 448.556 92.572 447.962 92.572C446.774 92.572 445.856 93.112 445.856 94.156C445.856 95.038 446.486 95.596 447.44 95.596C448.412 95.596 449.69 95.02 449.69 93.058ZM458.855 87.244C460.241 87.244 461.141 88.162 461.141 89.8V91.06L459.521 91.348V90.376C459.521 89.512 459.215 88.918 458.279 88.918C457.253 88.918 456.497 89.602 456.497 91.42V97H454.481V87.46H456.497V88.738C457.037 87.676 458.027 87.244 458.855 87.244ZM461.675 94.174C462.629 94.174 463.331 94.93 463.331 96.388C463.331 97.918 462.611 99.322 460.883 100.564L460.343 99.88C461.387 99.106 462.071 98.26 461.999 97.018C461.891 97.036 461.765 97.054 461.621 97.054C460.847 97.054 460.163 96.514 460.163 95.614C460.163 94.768 460.811 94.174 461.675 94.174ZM476.798 93.994L478.166 94.786C477.626 95.974 476.366 97.162 474.188 97.162C471.362 97.162 469.652 95.074 469.652 92.14C469.652 89.242 471.506 87.244 474.044 87.244C476.294 87.244 478.148 88.756 478.148 91.456L478.112 92.644H471.632C471.74 94.66 472.73 95.524 474.314 95.524C475.484 95.524 476.294 94.894 476.798 93.994ZM474.044 88.828C472.82 88.828 471.794 89.476 471.632 91.204H476.186C476.204 89.512 475.16 88.828 474.044 88.828ZM484.269 96.946C483.891 97.054 483.513 97.108 483.117 97.108C481.299 97.108 480.435 96.028 480.435 94.282V83.68H482.451V94.138C482.451 94.966 482.937 95.344 483.675 95.344C483.855 95.344 484.053 95.326 484.269 95.272V96.946ZM490.028 96.946C489.65 97.054 489.272 97.108 488.876 97.108C487.058 97.108 486.194 96.028 486.194 94.282V83.68H488.21V94.138C488.21 94.966 488.696 95.344 489.434 95.344C489.614 95.344 489.812 95.326 490.028 95.272V96.946ZM498.294 93.994L499.662 94.786C499.122 95.974 497.862 97.162 495.684 97.162C492.858 97.162 491.148 95.074 491.148 92.14C491.148 89.242 493.002 87.244 495.54 87.244C497.79 87.244 499.644 88.756 499.644 91.456L499.608 92.644H493.128C493.236 94.66 494.226 95.524 495.81 95.524C496.98 95.524 497.79 94.894 498.294 93.994ZM495.54 88.828C494.316 88.828 493.29 89.476 493.128 91.204H497.682C497.7 89.512 496.656 88.828 495.54 88.828ZM506.304 87.244C507.69 87.244 508.59 88.162 508.59 89.8V91.06L506.97 91.348V90.376C506.97 89.512 506.664 88.918 505.728 88.918C504.702 88.918 503.946 89.602 503.946 91.42V97H501.93V87.46H503.946V88.738C504.486 87.676 505.476 87.244 506.304 87.244ZM519.924 87.244C521.868 87.244 523.02 88.504 523.02 90.574V97H521.004V90.898C521.004 89.584 520.374 88.99 519.276 88.99C517.854 88.99 517.134 89.98 517.134 91.834V97H515.118V87.46H517.134V88.828C517.782 87.82 518.736 87.244 519.924 87.244ZM531.75 87.46H533.856L529.986 97.738C529.23 99.736 528.312 100.996 526.35 100.996C525.558 100.996 524.802 100.744 524.244 100.276L525 98.872C525.36 99.196 525.72 99.358 526.188 99.358C526.926 99.358 527.466 98.998 527.862 98.026L528.186 97.27L524.532 87.46H526.782L529.266 95.056L531.75 87.46ZM539.206 96.946C538.828 97.054 538.45 97.108 538.054 97.108C536.236 97.108 535.372 96.028 535.372 94.282V83.68H537.388V94.138C537.388 94.966 537.874 95.344 538.612 95.344C538.792 95.344 538.99 95.326 539.206 95.272V96.946ZM542.245 85.876C541.453 85.876 540.823 85.264 540.823 84.454C540.823 83.644 541.453 83.032 542.245 83.032C543.037 83.032 543.649 83.644 543.649 84.454C543.649 85.264 543.037 85.876 542.245 85.876ZM541.237 97V87.46H543.253V97H541.237ZM555.297 89.026H553.299V89.242C553.623 89.692 553.785 90.214 553.785 90.754C553.785 92.482 552.453 94.21 549.681 94.21H549.213C548.241 94.21 547.611 94.534 547.611 95.11C547.611 95.506 547.917 95.794 548.529 95.794H552.507C554.145 95.794 555.081 96.64 555.081 97.936C555.081 99.898 553.083 101.032 549.897 101.032C547.107 101.032 545.235 100.33 544.749 98.476L546.711 98.098C547.161 99.25 548.205 99.556 549.951 99.556C551.823 99.556 553.155 99.052 553.155 98.17C553.155 97.756 552.921 97.45 552.273 97.45H547.935C546.441 97.45 545.667 96.64 545.667 95.632C545.667 94.66 546.531 93.886 547.719 93.652C546.405 93.076 545.757 91.852 545.757 90.7C545.757 88.99 547.143 87.244 549.789 87.244C550.959 87.244 551.877 87.658 552.417 88.252V87.46H555.297V89.026ZM549.789 92.752C551.175 92.752 551.823 91.78 551.823 90.736C551.823 89.692 551.175 88.738 549.789 88.738C548.421 88.738 547.755 89.692 547.755 90.736C547.755 91.78 548.421 92.752 549.789 92.752ZM566.098 87.244C568.042 87.244 569.194 88.504 569.194 90.574V97H567.178V90.898C567.178 89.584 566.548 88.99 565.45 88.99C564.028 88.99 563.29 89.98 563.29 91.834V97H561.274V83.68H563.29V88.846C563.938 87.82 564.91 87.244 566.098 87.244ZM579.605 97H577.751C577.607 96.514 577.517 95.938 577.481 95.2C577.031 96.19 576.023 97.162 574.367 97.162C572.639 97.162 571.415 95.992 571.415 94.336C571.415 92.266 573.251 91.24 575.303 91.24C575.951 91.24 576.563 91.294 577.229 91.474V90.574C577.229 89.548 576.581 88.882 575.411 88.882C574.313 88.882 573.539 89.476 573.179 90.592L571.469 90.07C572.153 88.054 573.791 87.244 575.501 87.244C578.039 87.244 579.191 88.738 579.191 90.556V94.246C579.191 95.38 579.371 96.388 579.605 97ZM577.229 93.058V92.842C576.653 92.644 576.095 92.572 575.501 92.572C574.313 92.572 573.395 93.112 573.395 94.156C573.395 95.038 574.025 95.596 574.979 95.596C575.951 95.596 577.229 95.02 577.229 93.058ZM586.394 87.244C587.78 87.244 588.68 88.162 588.68 89.8V91.06L587.06 91.348V90.376C587.06 89.512 586.754 88.918 585.818 88.918C584.792 88.918 584.036 89.602 584.036 91.42V97H582.02V87.46H584.036V88.738C584.576 87.676 585.566 87.244 586.394 87.244ZM594.704 90.088C594.704 88.468 596.198 87.244 598.448 87.244C600.302 87.244 601.544 87.91 602.21 89.188L600.806 90.052C600.374 89.314 599.51 88.864 598.43 88.864C597.35 88.864 596.612 89.278 596.612 89.962C596.612 90.52 596.99 90.862 597.836 91.024L599.438 91.348C601.454 91.744 602.462 92.698 602.462 94.156C602.462 95.956 600.896 97.162 598.538 97.162C596.54 97.162 595.118 96.406 594.38 95.02L595.784 94.138C596.306 95.02 597.224 95.524 598.484 95.524C599.708 95.524 600.536 95.038 600.536 94.246C600.536 93.598 600.14 93.238 599.258 93.058L597.494 92.716C595.694 92.374 594.704 91.456 594.704 90.088ZM610.804 88.036C612.01 88.864 612.784 90.322 612.784 92.176C612.784 95.236 610.75 97.18 608.266 97.18C607.636 97.18 607.042 97.054 606.484 96.82L605.926 97.972H604.9L605.692 96.37C604.522 95.524 603.748 94.066 603.748 92.176C603.748 89.188 605.764 87.244 608.266 87.244C608.896 87.244 609.472 87.37 610.012 87.586L610.57 86.47H611.578L610.804 88.036ZM605.818 92.176C605.818 93.292 606.088 94.12 606.538 94.66L609.238 89.152C608.95 89.026 608.608 88.954 608.266 88.954C606.934 88.954 605.818 89.908 605.818 92.176ZM608.266 95.47C609.616 95.47 610.714 94.426 610.714 92.176C610.714 91.042 610.426 90.232 609.994 89.71L607.258 95.254C607.564 95.398 607.906 95.47 608.266 95.47ZM620.912 97L618.014 92.626L616.916 93.706V97H614.9V83.68H616.916V91.42L620.768 87.46H623.252L619.346 91.312L623.324 97H620.912ZM627.314 94.048C627.314 95.11 627.962 95.434 628.628 95.434C629.15 95.434 629.564 95.218 629.978 94.804L630.842 96.1C630.122 96.82 629.33 97.162 628.304 97.162C626.648 97.162 625.298 96.154 625.298 94.174V89.026H623.624V87.46H625.298V85.336L627.314 84.418V87.46H630.68V89.026H627.314V94.048ZM640.917 97.18C638.433 97.18 636.399 95.236 636.399 92.176C636.399 89.188 638.415 87.244 640.917 87.244C643.419 87.244 645.435 89.188 645.435 92.176C645.435 95.236 643.401 97.18 640.917 97.18ZM640.917 95.47C642.267 95.47 643.365 94.426 643.365 92.176C643.365 89.908 642.249 88.954 640.917 88.954C639.585 88.954 638.469 89.908 638.469 92.176C638.469 94.426 639.585 95.47 640.917 95.47ZM658.063 87.244C659.971 87.244 661.069 88.486 661.069 90.484V97H659.053V90.826C659.053 89.566 658.459 88.99 657.415 88.99C656.011 88.99 655.309 89.962 655.309 91.834V97H653.293V90.826C653.293 89.566 652.699 88.99 651.655 88.99C650.269 88.99 649.567 89.962 649.567 91.834V97H647.551V87.46H649.567V88.81C650.215 87.784 651.151 87.244 652.303 87.244C653.761 87.244 654.715 87.946 655.129 89.134C655.777 87.874 656.785 87.244 658.063 87.244Z" fill="#2A2859"/>
<rect x="209" y="130" width="22" height="22" fill="#2A2859"/>
<path fill-rule="evenodd" clip-rule="evenodd" d="M225.778 138.161L218.498 145.441L214.218 141.161L215.278 140.1L218.498 143.32L224.718 137.1L225.778 138.161Z" fill="white"/>
<rect x="209" y="130" width="22" height="22" stroke="#2A2859" stroke-width="2"/>
<path d="M254.544 147.16C251.2 147.16 248.768 144.808 248.768 141.032C248.768 137.352 251.344 135 254.368 135C256.4 135 257.968 135.912 258.816 137.672L257.184 138.584C256.656 137.448 255.616 136.792 254.368 136.792C252.48 136.792 250.72 138.12 250.72 141.016C250.72 143.912 252.368 145.448 254.688 145.448C255.712 145.448 256.496 145.24 257.2 144.856V142.04H253.28V140.376H258.848V145.816C257.68 146.712 256.16 147.16 254.544 147.16ZM264.678 147.16C262.47 147.16 260.662 145.432 260.662 142.712C260.662 140.056 262.454 138.328 264.678 138.328C266.902 138.328 268.694 140.056 268.694 142.712C268.694 145.432 266.886 147.16 264.678 147.16ZM264.678 145.64C265.878 145.64 266.854 144.712 266.854 142.712C266.854 140.696 265.862 139.848 264.678 139.848C263.494 139.848 262.502 140.696 262.502 142.712C262.502 144.712 263.494 145.64 264.678 145.64ZM276.2 135.16H277.992V147H276.2V145.464C275.544 146.648 274.52 147.128 273.544 147.128C271.496 147.128 270.024 145.368 270.024 142.792C270.024 140.12 271.512 138.344 273.752 138.344C274.712 138.344 275.672 138.776 276.2 139.816V135.16ZM274.024 145.56C275.32 145.56 276.2 144.68 276.2 142.696C276.2 140.728 275.336 139.784 274.024 139.784C272.792 139.784 271.88 140.776 271.88 142.696C271.88 144.6 272.792 145.56 274.024 145.56ZM282.721 144.376C282.721 145.32 283.297 145.608 283.889 145.608C284.353 145.608 284.721 145.416 285.089 145.048L285.857 146.2C285.217 146.84 284.513 147.144 283.601 147.144C282.129 147.144 280.929 146.248 280.929 144.488V139.912H279.441V138.52H280.929V136.632L282.721 135.816V138.52H285.713V139.912H282.721V144.376ZM295.14 139.912H293.364V140.104C293.652 140.504 293.796 140.968 293.796 141.448C293.796 142.984 292.612 144.52 290.148 144.52H289.732C288.868 144.52 288.308 144.808 288.308 145.32C288.308 145.672 288.58 145.928 289.124 145.928H292.66C294.116 145.928 294.948 146.68 294.948 147.832C294.948 149.576 293.172 150.584 290.34 150.584C287.86 150.584 286.196 149.96 285.764 148.312L287.508 147.976C287.908 149 288.836 149.272 290.388 149.272C292.052 149.272 293.236 148.824 293.236 148.04C293.236 147.672 293.028 147.4 292.452 147.4H288.596C287.268 147.4 286.58 146.68 286.58 145.784C286.58 144.92 287.348 144.232 288.404 144.024C287.236 143.512 286.66 142.424 286.66 141.4C286.66 139.88 287.892 138.328 290.244 138.328C291.284 138.328 292.1 138.696 292.58 139.224V138.52H295.14V139.912ZM290.244 143.224C291.476 143.224 292.052 142.36 292.052 141.432C292.052 140.504 291.476 139.656 290.244 139.656C289.028 139.656 288.436 140.504 288.436 141.432C288.436 142.36 289.028 143.224 290.244 143.224ZM297.709 137.112C297.005 137.112 296.445 136.568 296.445 135.848C296.445 135.128 297.005 134.584 297.709 134.584C298.413 134.584 298.957 135.128 298.957 135.848C298.957 136.568 298.413 137.112 297.709 137.112ZM296.333 150.504C295.933 150.504 295.533 150.456 295.165 150.344L295.309 148.952C295.517 149.016 295.709 149.048 295.885 149.048C296.509 149.048 296.813 148.648 296.813 147.976V138.52H298.605V147.832C298.605 149.512 297.917 150.504 296.333 150.504ZM306.887 139.032C307.959 139.768 308.647 141.064 308.647 142.712C308.647 145.432 306.839 147.16 304.631 147.16C304.071 147.16 303.543 147.048 303.047 146.84L302.551 147.864H301.639L302.343 146.44C301.303 145.688 300.615 144.392 300.615 142.712C300.615 140.056 302.407 138.328 304.631 138.328C305.191 138.328 305.703 138.44 306.183 138.632L306.679 137.64H307.575L306.887 139.032ZM302.455 142.712C302.455 143.704 302.695 144.44 303.095 144.92L305.495 140.024C305.239 139.912 304.935 139.848 304.631 139.848C303.447 139.848 302.455 140.696 302.455 142.712ZM304.631 145.64C305.831 145.64 306.807 144.712 306.807 142.712C306.807 141.704 306.551 140.984 306.167 140.52L303.735 145.448C304.007 145.576 304.311 145.64 304.631 145.64ZM314.393 138.328C315.625 138.328 316.425 139.144 316.425 140.6V141.72L314.985 141.976V141.112C314.985 140.344 314.713 139.816 313.881 139.816C312.969 139.816 312.297 140.424 312.297 142.04V147H310.505V138.52H312.297V139.656C312.777 138.712 313.657 138.328 314.393 138.328ZM323.629 144.328L324.845 145.032C324.365 146.088 323.245 147.144 321.309 147.144C318.797 147.144 317.277 145.288 317.277 142.68C317.277 140.104 318.925 138.328 321.181 138.328C323.181 138.328 324.829 139.672 324.829 142.072L324.797 143.128H319.037C319.133 144.92 320.013 145.688 321.421 145.688C322.461 145.688 323.181 145.128 323.629 144.328ZM321.181 139.736C320.093 139.736 319.181 140.312 319.037 141.848H323.085C323.101 140.344 322.173 139.736 321.181 139.736ZM330.248 146.952C329.912 147.048 329.576 147.096 329.224 147.096C327.608 147.096 326.84 146.136 326.84 144.584V135.16H328.632V144.456C328.632 145.192 329.064 145.528 329.72 145.528C329.88 145.528 330.056 145.512 330.248 145.464V146.952ZM331.489 140.856C331.489 139.416 332.817 138.328 334.817 138.328C336.465 138.328 337.569 138.92 338.161 140.056L336.913 140.824C336.529 140.168 335.761 139.768 334.801 139.768C333.841 139.768 333.185 140.136 333.185 140.744C333.185 141.24 333.521 141.544 334.273 141.688L335.697 141.976C337.489 142.328 338.385 143.176 338.385 144.472C338.385 146.072 336.993 147.144 334.897 147.144C333.121 147.144 331.857 146.472 331.201 145.24L332.449 144.456C332.913 145.24 333.729 145.688 334.849 145.688C335.937 145.688 336.673 145.256 336.673 144.552C336.673 143.976 336.321 143.656 335.537 143.496L333.969 143.192C332.369 142.888 331.489 142.072 331.489 140.856ZM345.858 144.328L347.074 145.032C346.594 146.088 345.474 147.144 343.538 147.144C341.026 147.144 339.506 145.288 339.506 142.68C339.506 140.104 341.154 138.328 343.41 138.328C345.41 138.328 347.058 139.672 347.058 142.072L347.026 143.128H341.266C341.362 144.92 342.242 145.688 343.65 145.688C344.69 145.688 345.41 145.128 345.858 144.328ZM343.41 139.736C342.322 139.736 341.41 140.312 341.266 141.848H345.314C345.33 140.344 344.402 139.736 343.41 139.736ZM358.786 144.328L360.002 145.032C359.522 146.088 358.402 147.144 356.466 147.144C353.954 147.144 352.434 145.288 352.434 142.68C352.434 140.104 354.082 138.328 356.338 138.328C358.338 138.328 359.986 139.672 359.986 142.072L359.954 143.128H354.194C354.29 144.92 355.17 145.688 356.578 145.688C357.618 145.688 358.338 145.128 358.786 144.328ZM356.338 139.736C355.25 139.736 354.338 140.312 354.194 141.848H358.242C358.258 140.344 357.33 139.736 356.338 139.736ZM365.404 146.952C365.068 147.048 364.732 147.096 364.38 147.096C362.764 147.096 361.996 146.136 361.996 144.584V135.16H363.788V144.456C363.788 145.192 364.22 145.528 364.876 145.528C365.036 145.528 365.212 145.512 365.404 145.464V146.952ZM370.501 146.952C370.165 147.048 369.829 147.096 369.477 147.096C367.861 147.096 367.093 146.136 367.093 144.584V135.16H368.885V144.456C368.885 145.192 369.317 145.528 369.973 145.528C370.133 145.528 370.309 145.512 370.501 145.464V146.952ZM377.826 144.328L379.042 145.032C378.562 146.088 377.442 147.144 375.506 147.144C372.994 147.144 371.474 145.288 371.474 142.68C371.474 140.104 373.122 138.328 375.378 138.328C377.378 138.328 379.026 139.672 379.026 142.072L378.994 143.128H373.234C373.33 144.92 374.21 145.688 375.618 145.688C376.658 145.688 377.378 145.128 377.826 144.328ZM375.378 139.736C374.29 139.736 373.378 140.312 373.234 141.848H377.282C377.298 140.344 376.37 139.736 375.378 139.736ZM384.925 138.328C386.157 138.328 386.957 139.144 386.957 140.6V141.72L385.517 141.976V141.112C385.517 140.344 385.245 139.816 384.413 139.816C383.501 139.816 382.829 140.424 382.829 142.04V147H381.037V138.52H382.829V139.656C383.309 138.712 384.189 138.328 384.925 138.328ZM396.123 146.952C395.787 147.048 395.451 147.096 395.099 147.096C393.483 147.096 392.715 146.136 392.715 144.584V135.16H394.507V144.456C394.507 145.192 394.939 145.528 395.595 145.528C395.755 145.528 395.931 145.512 396.123 145.464V146.952ZM403.368 139.032C404.44 139.768 405.128 141.064 405.128 142.712C405.128 145.432 403.32 147.16 401.112 147.16C400.552 147.16 400.024 147.048 399.528 146.84L399.032 147.864H398.12L398.824 146.44C397.784 145.688 397.096 144.392 397.096 142.712C397.096 140.056 398.888 138.328 401.112 138.328C401.672 138.328 402.184 138.44 402.664 138.632L403.16 137.64H404.056L403.368 139.032ZM398.936 142.712C398.936 143.704 399.176 144.44 399.576 144.92L401.976 140.024C401.72 139.912 401.416 139.848 401.112 139.848C399.928 139.848 398.936 140.696 398.936 142.712ZM401.112 145.64C402.312 145.64 403.288 144.712 403.288 142.712C403.288 141.704 403.032 140.984 402.648 140.52L400.216 145.448C400.488 145.576 400.792 145.64 401.112 145.64ZM411.259 138.328C412.987 138.328 414.011 139.448 414.011 141.288V147H412.219V141.576C412.219 140.408 411.659 139.88 410.683 139.88C409.419 139.88 408.779 140.76 408.779 142.408V147H406.987V138.52H408.779V139.736C409.355 138.84 410.203 138.328 411.259 138.328ZM420.684 138.328C422.412 138.328 423.436 139.448 423.436 141.288V147H421.644V141.576C421.644 140.408 421.084 139.88 420.108 139.88C418.844 139.88 418.204 140.76 418.204 142.408V147H416.412V138.52H418.204V139.736C418.78 138.84 419.628 138.328 420.684 138.328ZM432.13 137.752V138.52H434.514V139.912H432.13V147H430.338V139.912H428.85V138.52H430.338V137.832C430.338 135.992 431.538 134.92 433.202 134.92C433.986 134.92 434.77 135.24 435.234 135.816L434.386 137C434.13 136.68 433.746 136.488 433.33 136.488C432.674 136.488 432.13 136.872 432.13 137.752ZM438.925 147.16C436.717 147.16 434.909 145.432 434.909 142.712C434.909 140.056 436.701 138.328 438.925 138.328C441.149 138.328 442.941 140.056 442.941 142.712C442.941 145.432 441.133 147.16 438.925 147.16ZM438.925 145.64C440.125 145.64 441.101 144.712 441.101 142.712C441.101 140.696 440.109 139.848 438.925 139.848C437.741 139.848 436.749 140.696 436.749 142.712C436.749 144.712 437.741 145.64 438.925 145.64ZM448.687 138.328C449.919 138.328 450.719 139.144 450.719 140.6V141.72L449.279 141.976V141.112C449.279 140.344 449.007 139.816 448.175 139.816C447.263 139.816 446.591 140.424 446.591 142.04V147H444.799V138.52H446.591V139.656C447.071 138.712 447.951 138.328 448.687 138.328ZM461.885 138.52H463.741L460.493 147H458.653L455.421 138.52H457.405L459.645 145.128L461.885 138.52ZM470.648 144.328L471.864 145.032C471.384 146.088 470.264 147.144 468.328 147.144C465.816 147.144 464.296 145.288 464.296 142.68C464.296 140.104 465.944 138.328 468.2 138.328C470.2 138.328 471.848 139.672 471.848 142.072L471.816 143.128H466.056C466.152 144.92 467.032 145.688 468.44 145.688C469.48 145.688 470.2 145.128 470.648 144.328ZM468.2 139.736C467.112 139.736 466.2 140.312 466.056 141.848H470.104C470.12 140.344 469.192 139.736 468.2 139.736ZM477.747 138.328C478.979 138.328 479.779 139.144 479.779 140.6V141.72L478.339 141.976V141.112C478.339 140.344 478.067 139.816 477.235 139.816C476.323 139.816 475.651 140.424 475.651 142.04V147H473.859V138.52H475.651V139.656C476.131 138.712 477.011 138.328 477.747 138.328ZM486.629 138.52H488.485L485.237 147H483.397L480.165 138.52H482.149L484.389 145.128L486.629 138.52Z" fill="#2A2859"/>
<rect x="193" y="114" width="469" height="54" stroke="#2A2859" stroke-width="2"/>
<rect x="209" y="202" width="22" height="22" fill="white"/>
<rect x="209" y="202" width="22" height="22" stroke="#2A2859" stroke-width="2"/>
<path d="M257.28 208.072C258.592 209.08 259.424 210.776 259.424 212.968C259.424 216.888 257.04 219.16 254.096 219.16C253.232 219.16 252.416 218.968 251.696 218.584L251.136 219.64H250.064L250.896 218.072C249.6 217.032 248.768 215.288 248.768 212.968C248.768 209.272 251.152 207 254.096 207C254.96 207 255.76 207.192 256.48 207.56L257.04 206.52H258.112L257.28 208.072ZM250.72 212.984C250.72 214.536 251.136 215.656 251.792 216.392L255.648 209.128C255.184 208.872 254.656 208.76 254.096 208.76C252.224 208.76 250.72 210.072 250.72 212.984ZM254.096 217.4C255.92 217.4 257.472 215.976 257.472 212.984C257.472 211.48 257.072 210.392 256.416 209.704L252.544 217C253.008 217.272 253.536 217.4 254.096 217.4ZM266.628 219L264.052 215.112L263.076 216.072V219H261.284V207.16H263.076V214.04L266.5 210.52H268.708L265.236 213.944L268.772 219H266.628ZM273.165 219.16C270.957 219.16 269.149 217.432 269.149 214.712C269.149 212.056 270.941 210.328 273.165 210.328C275.389 210.328 277.181 212.056 277.181 214.712C277.181 217.432 275.373 219.16 273.165 219.16ZM273.165 217.64C274.365 217.64 275.341 216.712 275.341 214.712C275.341 212.696 274.349 211.848 273.165 211.848C271.981 211.848 270.989 212.696 270.989 214.712C270.989 216.712 271.981 217.64 273.165 217.64ZM283.312 210.328C285.04 210.328 286.064 211.448 286.064 213.288V219H284.272V213.576C284.272 212.408 283.712 211.88 282.736 211.88C281.472 211.88 280.832 212.76 280.832 214.408V219H279.04V210.52H280.832V211.736C281.408 210.84 282.256 210.328 283.312 210.328ZM291.953 219.16C289.745 219.16 287.937 217.432 287.937 214.712C287.937 212.056 289.729 210.328 291.953 210.328C294.177 210.328 295.969 212.056 295.969 214.712C295.969 217.432 294.161 219.16 291.953 219.16ZM291.953 217.64C293.153 217.64 294.129 216.712 294.129 214.712C294.129 212.696 293.137 211.848 291.953 211.848C290.769 211.848 289.777 212.696 289.777 214.712C289.777 216.712 290.769 217.64 291.953 217.64ZM307.171 210.328C308.867 210.328 309.843 211.432 309.843 213.208V219H308.051V213.512C308.051 212.392 307.523 211.88 306.595 211.88C305.347 211.88 304.723 212.744 304.723 214.408V219H302.931V213.512C302.931 212.392 302.403 211.88 301.475 211.88C300.243 211.88 299.619 212.744 299.619 214.408V219H297.827V210.52H299.619V211.72C300.195 210.808 301.027 210.328 302.051 210.328C303.347 210.328 304.195 210.952 304.563 212.008C305.139 210.888 306.035 210.328 307.171 210.328ZM313.164 209.112C312.46 209.112 311.9 208.568 311.9 207.848C311.9 207.128 312.46 206.584 313.164 206.584C313.868 206.584 314.412 207.128 314.412 207.848C314.412 208.568 313.868 209.112 313.164 209.112ZM312.268 219V210.52H314.06V219H312.268ZM316.151 212.856C316.151 211.416 317.479 210.328 319.479 210.328C321.127 210.328 322.231 210.92 322.823 212.056L321.575 212.824C321.191 212.168 320.423 211.768 319.463 211.768C318.503 211.768 317.847 212.136 317.847 212.744C317.847 213.24 318.183 213.544 318.935 213.688L320.359 213.976C322.151 214.328 323.047 215.176 323.047 216.472C323.047 218.072 321.655 219.144 319.559 219.144C317.783 219.144 316.519 218.472 315.863 217.24L317.111 216.456C317.575 217.24 318.391 217.688 319.511 217.688C320.599 217.688 321.335 217.256 321.335 216.552C321.335 215.976 320.983 215.656 320.199 215.496L318.631 215.192C317.031 214.888 316.151 214.072 316.151 212.856ZM330.212 219L327.636 215.112L326.66 216.072V219H324.868V207.16H326.66V214.04L330.084 210.52H332.292L328.82 213.944L332.356 219H330.212ZM337.348 212.856C337.348 211.416 338.676 210.328 340.676 210.328C342.324 210.328 343.428 210.92 344.02 212.056L342.772 212.824C342.388 212.168 341.62 211.768 340.66 211.768C339.7 211.768 339.044 212.136 339.044 212.744C339.044 213.24 339.38 213.544 340.132 213.688L341.556 213.976C343.348 214.328 344.244 215.176 344.244 216.472C344.244 218.072 342.852 219.144 340.756 219.144C338.98 219.144 337.716 218.472 337.06 217.24L338.308 216.456C338.772 217.24 339.588 217.688 340.708 217.688C341.796 217.688 342.532 217.256 342.532 216.552C342.532 215.976 342.18 215.656 341.396 215.496L339.828 215.192C338.228 214.888 337.348 214.072 337.348 212.856ZM349.381 219.16C347.173 219.16 345.365 217.432 345.365 214.712C345.365 212.056 347.157 210.328 349.381 210.328C351.605 210.328 353.397 212.056 353.397 214.712C353.397 217.432 351.589 219.16 349.381 219.16ZM349.381 217.64C350.581 217.64 351.557 216.712 351.557 214.712C351.557 212.696 350.565 211.848 349.381 211.848C348.197 211.848 347.205 212.696 347.205 214.712C347.205 216.712 348.197 217.64 349.381 217.64ZM354.807 212.856C354.807 211.416 356.135 210.328 358.135 210.328C359.783 210.328 360.887 210.92 361.479 212.056L360.231 212.824C359.847 212.168 359.079 211.768 358.119 211.768C357.159 211.768 356.503 212.136 356.503 212.744C356.503 213.24 356.839 213.544 357.591 213.688L359.015 213.976C360.807 214.328 361.703 215.176 361.703 216.472C361.703 218.072 360.311 219.144 358.215 219.144C356.439 219.144 355.175 218.472 354.519 217.24L355.767 216.456C356.231 217.24 357.047 217.688 358.167 217.688C359.255 217.688 359.991 217.256 359.991 216.552C359.991 215.976 359.639 215.656 358.855 215.496L357.287 215.192C355.687 214.888 354.807 214.072 354.807 212.856ZM363.316 206.84H365.508V209H363.316V206.84ZM363.524 219V210.52H365.316V219H363.524ZM374.687 219H373.039C372.911 218.568 372.831 218.056 372.799 217.4C372.399 218.28 371.503 219.144 370.031 219.144C368.495 219.144 367.407 218.104 367.407 216.632C367.407 214.792 369.039 213.88 370.863 213.88C371.439 213.88 371.983 213.928 372.575 214.088V213.288C372.575 212.376 371.999 211.784 370.959 211.784C369.983 211.784 369.295 212.312 368.975 213.304L367.455 212.84C368.063 211.048 369.519 210.328 371.039 210.328C373.295 210.328 374.319 211.656 374.319 213.272V216.552C374.319 217.56 374.479 218.456 374.687 219ZM372.575 215.496V215.304C372.063 215.128 371.567 215.064 371.039 215.064C369.983 215.064 369.167 215.544 369.167 216.472C369.167 217.256 369.727 217.752 370.575 217.752C371.439 217.752 372.575 217.24 372.575 215.496ZM380.126 218.952C379.79 219.048 379.454 219.096 379.102 219.096C377.486 219.096 376.718 218.136 376.718 216.584V207.16H378.51V216.456C378.51 217.192 378.942 217.528 379.598 217.528C379.758 217.528 379.934 217.512 380.126 217.464V218.952ZM386.197 210.328C387.925 210.328 388.949 211.448 388.949 213.288V219H387.157V213.576C387.157 212.408 386.597 211.88 385.621 211.88C384.357 211.88 383.701 212.76 383.701 214.408V219H381.909V207.16H383.701V211.752C384.277 210.84 385.141 210.328 386.197 210.328ZM392.293 209.112C391.589 209.112 391.029 208.568 391.029 207.848C391.029 207.128 391.589 206.584 392.293 206.584C392.997 206.584 393.541 207.128 393.541 207.848C393.541 208.568 392.997 209.112 392.293 209.112ZM390.917 222.504C390.517 222.504 390.117 222.456 389.749 222.344L389.893 220.952C390.101 221.016 390.293 221.048 390.469 221.048C391.093 221.048 391.397 220.648 391.397 219.976V210.52H393.189V219.832C393.189 221.512 392.501 222.504 390.917 222.504ZM401.551 216.328L402.767 217.032C402.287 218.088 401.167 219.144 399.231 219.144C396.719 219.144 395.199 217.288 395.199 214.68C395.199 212.104 396.847 210.328 399.103 210.328C401.103 210.328 402.751 211.672 402.751 214.072L402.719 215.128H396.959C397.055 216.92 397.935 217.688 399.343 217.688C400.383 217.688 401.103 217.128 401.551 216.328ZM399.103 211.736C398.015 211.736 397.103 212.312 396.959 213.848H401.007C401.023 212.344 400.095 211.736 399.103 211.736ZM408.17 218.952C407.834 219.048 407.498 219.096 407.146 219.096C405.53 219.096 404.762 218.136 404.762 216.584V207.16H406.554V216.456C406.554 217.192 406.986 217.528 407.642 217.528C407.802 217.528 407.978 217.512 408.17 217.464V218.952ZM414.4 210.344C416.448 210.344 417.92 212.088 417.92 214.68C417.92 217.336 416.432 219.128 414.192 219.128C413.232 219.128 412.288 218.712 411.744 217.672V222.36H409.952V210.52H411.744V212.008C412.4 210.824 413.424 210.344 414.4 210.344ZM413.92 217.656C415.152 217.656 416.064 216.664 416.064 214.76C416.064 212.856 415.152 211.88 413.92 211.88C412.608 211.88 411.744 212.776 411.744 214.744C411.744 216.712 412.608 217.656 413.92 217.656Z" fill="#2A2859"/>
<rect x="193" y="186" width="469" height="54" stroke="#F2F2F2" stroke-width="2"/>
<rect x="209" y="274" width="22" height="22" fill="white"/>
<rect x="209" y="274" width="22" height="22" stroke="#2A2859" stroke-width="2"/>
<path d="M256.832 291L255.936 288.12H251.36L250.432 291H248.464L252.576 279.16H254.832L258.928 291H256.832ZM251.888 286.472H255.408L253.664 280.888L251.888 286.472ZM265.254 282.52H267.11L263.862 291H262.022L258.79 282.52H260.774L263.014 289.128L265.254 282.52ZM270.749 288.376C270.749 289.32 271.325 289.608 271.917 289.608C272.381 289.608 272.749 289.416 273.117 289.048L273.885 290.2C273.245 290.84 272.541 291.144 271.629 291.144C270.157 291.144 268.957 290.248 268.957 288.488V283.912H267.469V282.52H268.957V280.632L270.749 279.816V282.52H273.741V283.912H270.749V288.376ZM282.012 291H280.364C280.236 290.568 280.156 290.056 280.124 289.4C279.724 290.28 278.828 291.144 277.356 291.144C275.82 291.144 274.732 290.104 274.732 288.632C274.732 286.792 276.364 285.88 278.188 285.88C278.764 285.88 279.308 285.928 279.9 286.088V285.288C279.9 284.376 279.324 283.784 278.284 283.784C277.308 283.784 276.62 284.312 276.3 285.304L274.78 284.84C275.388 283.048 276.844 282.328 278.364 282.328C280.62 282.328 281.644 283.656 281.644 285.272V288.552C281.644 289.56 281.804 290.456 282.012 291ZM279.9 287.496V287.304C279.388 287.128 278.892 287.064 278.364 287.064C277.308 287.064 276.492 287.544 276.492 288.472C276.492 289.256 277.052 289.752 277.9 289.752C278.764 289.752 279.9 289.24 279.9 287.496ZM287.451 290.952C287.115 291.048 286.779 291.096 286.427 291.096C284.811 291.096 284.043 290.136 284.043 288.584V279.16H285.835V288.456C285.835 289.192 286.267 289.528 286.923 289.528C287.083 289.528 287.259 289.512 287.451 289.464V290.952ZM294.776 288.328L295.992 289.032C295.512 290.088 294.392 291.144 292.456 291.144C289.944 291.144 288.424 289.288 288.424 286.68C288.424 284.104 290.072 282.328 292.328 282.328C294.328 282.328 295.976 283.672 295.976 286.072L295.944 287.128H290.184C290.28 288.92 291.16 289.688 292.568 289.688C293.608 289.688 294.328 289.128 294.776 288.328ZM292.328 283.736C291.24 283.736 290.328 284.312 290.184 285.848H294.232C294.248 284.344 293.32 283.736 292.328 283.736ZM300.152 281.752V282.52H302.536V283.912H300.152V291H298.36V283.912H296.872V282.52H298.36V281.832C298.36 279.992 299.56 278.92 301.224 278.92C302.008 278.92 302.792 279.24 303.256 279.816L302.408 281C302.152 280.68 301.768 280.488 301.352 280.488C300.696 280.488 300.152 280.872 300.152 281.752ZM309.282 288.328L310.498 289.032C310.018 290.088 308.898 291.144 306.962 291.144C304.45 291.144 302.93 289.288 302.93 286.68C302.93 284.104 304.578 282.328 306.834 282.328C308.834 282.328 310.482 283.672 310.482 286.072L310.45 287.128H304.69C304.786 288.92 305.666 289.688 307.074 289.688C308.114 289.688 308.834 289.128 309.282 288.328ZM306.834 283.736C305.746 283.736 304.834 284.312 304.69 285.848H308.738C308.754 284.344 307.826 283.736 306.834 283.736ZM312.045 284.856C312.045 283.416 313.373 282.328 315.373 282.328C317.021 282.328 318.125 282.92 318.717 284.056L317.469 284.824C317.085 284.168 316.317 283.768 315.357 283.768C314.397 283.768 313.741 284.136 313.741 284.744C313.741 285.24 314.077 285.544 314.829 285.688L316.253 285.976C318.045 286.328 318.941 287.176 318.941 288.472C318.941 290.072 317.549 291.144 315.453 291.144C313.677 291.144 312.413 290.472 311.757 289.24L313.005 288.456C313.469 289.24 314.285 289.688 315.405 289.688C316.493 289.688 317.229 289.256 317.229 288.552C317.229 287.976 316.877 287.656 316.093 287.496L314.525 287.192C312.925 286.888 312.045 286.072 312.045 284.856ZM323.005 288.376C323.005 289.32 323.581 289.608 324.173 289.608C324.637 289.608 325.005 289.416 325.373 289.048L326.141 290.2C325.501 290.84 324.797 291.144 323.885 291.144C322.413 291.144 321.213 290.248 321.213 288.488V283.912H319.725V282.52H321.213V280.632L323.005 279.816V282.52H325.997V283.912H323.005V288.376ZM333.089 288.328L334.305 289.032C333.825 290.088 332.705 291.144 330.769 291.144C328.257 291.144 326.737 289.288 326.737 286.68C326.737 284.104 328.385 282.328 330.641 282.328C332.641 282.328 334.289 283.672 334.289 286.072L334.257 287.128H328.497C328.593 288.92 329.473 289.688 330.881 289.688C331.921 289.688 332.641 289.128 333.089 288.328ZM330.641 283.736C329.553 283.736 328.641 284.312 328.497 285.848H332.545C332.561 284.344 331.633 283.736 330.641 283.736ZM338.543 288.376C338.543 289.32 339.119 289.608 339.711 289.608C340.175 289.608 340.543 289.416 340.911 289.048L341.679 290.2C341.039 290.84 340.335 291.144 339.423 291.144C337.951 291.144 336.751 290.248 336.751 288.488V283.912H335.263V282.52H336.751V280.632L338.543 279.816V282.52H341.535V283.912H338.543V288.376ZM351.55 282.344C353.598 282.344 355.07 284.088 355.07 286.68C355.07 289.336 353.582 291.128 351.342 291.128C350.382 291.128 349.438 290.712 348.894 289.672V294.36H347.102V282.52H348.894V284.008C349.55 282.824 350.574 282.344 351.55 282.344ZM351.07 289.656C352.302 289.656 353.214 288.664 353.214 286.76C353.214 284.856 352.302 283.88 351.07 283.88C349.758 283.88 348.894 284.776 348.894 286.744C348.894 288.712 349.758 289.656 351.07 289.656ZM362.757 288.328L363.973 289.032C363.493 290.088 362.373 291.144 360.437 291.144C357.925 291.144 356.405 289.288 356.405 286.68C356.405 284.104 358.053 282.328 360.309 282.328C362.309 282.328 363.957 283.672 363.957 286.072L363.925 287.128H358.165C358.261 288.92 359.141 289.688 360.549 289.688C361.589 289.688 362.309 289.128 362.757 288.328ZM360.309 283.736C359.221 283.736 358.309 284.312 358.165 285.848H362.213C362.229 284.344 361.301 283.736 360.309 283.736ZM370.24 282.328C371.968 282.328 372.992 283.448 372.992 285.288V291H371.2V285.576C371.2 284.408 370.64 283.88 369.664 283.88C368.4 283.88 367.76 284.76 367.76 286.408V291H365.968V282.52H367.76V283.736C368.336 282.84 369.184 282.328 370.24 282.328ZM374.945 284.856C374.945 283.416 376.273 282.328 378.273 282.328C379.921 282.328 381.025 282.92 381.617 284.056L380.369 284.824C379.985 284.168 379.217 283.768 378.257 283.768C377.297 283.768 376.641 284.136 376.641 284.744C376.641 285.24 376.977 285.544 377.729 285.688L379.153 285.976C380.945 286.328 381.841 287.176 381.841 288.472C381.841 290.072 380.449 291.144 378.353 291.144C376.577 291.144 375.313 290.472 374.657 289.24L375.905 288.456C376.369 289.24 377.185 289.688 378.305 289.688C379.393 289.688 380.129 289.256 380.129 288.552C380.129 287.976 379.777 287.656 378.993 287.496L377.425 287.192C375.825 286.888 374.945 286.072 374.945 284.856ZM384.606 281.112C383.902 281.112 383.342 280.568 383.342 279.848C383.342 279.128 383.902 278.584 384.606 278.584C385.31 278.584 385.854 279.128 385.854 279.848C385.854 280.568 385.31 281.112 384.606 281.112ZM383.23 294.504C382.83 294.504 382.43 294.456 382.062 294.344L382.206 292.952C382.414 293.016 382.606 293.048 382.782 293.048C383.406 293.048 383.71 292.648 383.71 291.976V282.52H385.502V291.832C385.502 293.512 384.814 294.504 383.23 294.504ZM391.528 291.16C389.32 291.16 387.512 289.432 387.512 286.712C387.512 284.056 389.304 282.328 391.528 282.328C393.752 282.328 395.544 284.056 395.544 286.712C395.544 289.432 393.736 291.16 391.528 291.16ZM391.528 289.64C392.728 289.64 393.704 288.712 393.704 286.712C393.704 284.696 392.712 283.848 391.528 283.848C390.344 283.848 389.352 284.696 389.352 286.712C389.352 288.712 390.344 289.64 391.528 289.64ZM401.674 282.328C403.402 282.328 404.426 283.448 404.426 285.288V291H402.634V285.576C402.634 284.408 402.074 283.88 401.098 283.88C399.834 283.88 399.194 284.76 399.194 286.408V291H397.402V282.52H399.194V283.736C399.77 282.84 400.618 282.328 401.674 282.328ZM412.833 278.2H414.257C413.217 280.76 412.705 283.24 412.705 285.816C412.705 288.408 413.217 290.856 414.257 293.4H412.833C411.553 290.872 410.913 288.424 410.913 285.816C410.913 283.224 411.569 280.728 412.833 278.2ZM423.666 291L422.77 288.12H418.194L417.266 291H415.298L419.41 279.16H421.666L425.762 291H423.666ZM418.722 286.472H422.242L420.498 280.888L418.722 286.472ZM429.289 291H427.417V279.16H434.745V280.888H429.289V284.504H433.817V286.216H429.289V291ZM440.562 279.16C443.234 279.16 444.882 280.728 444.882 283.064C444.882 285.4 443.154 286.968 440.466 286.968H438.37V291H436.498V279.16H440.562ZM440.626 285.336C442.098 285.336 442.946 284.552 442.946 283.128C442.946 281.64 442.098 280.856 440.61 280.856H438.37V285.336H440.626ZM447.349 293.4H445.925C446.965 290.84 447.477 288.36 447.477 285.784C447.477 283.192 446.965 280.744 445.925 278.2H447.349C448.629 280.728 449.269 283.176 449.269 285.784C449.269 288.376 448.613 290.872 447.349 293.4Z" fill="#2A2859"/>
<rect x="193" y="258" width="469" height="54" stroke="#F2F2F2" stroke-width="2"/>
<rect x="209" y="346" width="22" height="22" fill="white"/>
<rect x="209" y="346" width="22" height="22" stroke="#2A2859" stroke-width="2"/>
<path d="M249.392 363V351.16H251.264V363H249.392ZM258.024 354.328C259.752 354.328 260.776 355.448 260.776 357.288V363H258.984V357.576C258.984 356.408 258.424 355.88 257.448 355.88C256.184 355.88 255.544 356.76 255.544 358.408V363H253.752V354.52H255.544V355.736C256.12 354.84 256.968 354.328 258.024 354.328ZM271.321 355.912H269.545V356.104C269.833 356.504 269.977 356.968 269.977 357.448C269.977 358.984 268.793 360.52 266.329 360.52H265.913C265.049 360.52 264.489 360.808 264.489 361.32C264.489 361.672 264.761 361.928 265.305 361.928H268.841C270.297 361.928 271.129 362.68 271.129 363.832C271.129 365.576 269.353 366.584 266.521 366.584C264.041 366.584 262.377 365.96 261.945 364.312L263.689 363.976C264.089 365 265.017 365.272 266.569 365.272C268.233 365.272 269.417 364.824 269.417 364.04C269.417 363.672 269.209 363.4 268.633 363.4H264.777C263.449 363.4 262.761 362.68 262.761 361.784C262.761 360.92 263.529 360.232 264.585 360.024C263.417 359.512 262.841 358.424 262.841 357.4C262.841 355.88 264.073 354.328 266.425 354.328C267.465 354.328 268.281 354.696 268.761 355.224V354.52H271.321V355.912ZM266.425 359.224C267.657 359.224 268.233 358.36 268.233 357.432C268.233 356.504 267.657 355.656 266.425 355.656C265.209 355.656 264.617 356.504 264.617 357.432C264.617 358.36 265.209 359.224 266.425 359.224ZM277.957 360.328L279.174 361.032C278.694 362.088 277.574 363.144 275.637 363.144C273.125 363.144 271.605 361.288 271.605 358.68C271.605 356.104 273.253 354.328 275.51 354.328C277.51 354.328 279.158 355.672 279.158 358.072L279.125 359.128H273.365C273.461 360.92 274.341 361.688 275.749 361.688C276.789 361.688 277.51 361.128 277.957 360.328ZM275.51 355.736C274.421 355.736 273.509 356.312 273.365 357.848H277.413C277.43 356.344 276.501 355.736 275.51 355.736ZM285.44 354.328C287.168 354.328 288.192 355.448 288.192 357.288V363H286.4V357.576C286.4 356.408 285.84 355.88 284.864 355.88C283.6 355.88 282.96 356.76 282.96 358.408V363H281.168V354.52H282.96V355.736C283.536 354.84 284.384 354.328 285.44 354.328ZM301.319 363H299.671C299.543 362.568 299.463 362.056 299.431 361.4C299.031 362.28 298.135 363.144 296.663 363.144C295.127 363.144 294.039 362.104 294.039 360.632C294.039 358.792 295.671 357.88 297.495 357.88C298.071 357.88 298.615 357.928 299.207 358.088V357.288C299.207 356.376 298.631 355.784 297.591 355.784C296.615 355.784 295.927 356.312 295.607 357.304L294.087 356.84C294.695 355.048 296.151 354.328 297.671 354.328C299.927 354.328 300.951 355.656 300.951 357.272V360.552C300.951 361.56 301.111 362.456 301.319 363ZM299.207 359.496V359.304C298.695 359.128 298.199 359.064 297.671 359.064C296.615 359.064 295.799 359.544 295.799 360.472C295.799 361.256 296.359 361.752 297.207 361.752C298.071 361.752 299.207 361.24 299.207 359.496ZM308.429 354.52H310.285L307.037 363H305.197L301.965 354.52H303.949L306.189 361.128L308.429 354.52ZM321.144 351.16H322.936V363H321.144V361.464C320.488 362.648 319.464 363.128 318.488 363.128C316.44 363.128 314.968 361.368 314.968 358.792C314.968 356.12 316.456 354.344 318.696 354.344C319.656 354.344 320.616 354.776 321.144 355.816V351.16ZM318.968 361.56C320.264 361.56 321.144 360.68 321.144 358.696C321.144 356.728 320.28 355.784 318.968 355.784C317.736 355.784 316.824 356.776 316.824 358.696C316.824 360.6 317.736 361.56 318.968 361.56ZM326.161 353.112C325.457 353.112 324.897 352.568 324.897 351.848C324.897 351.128 325.457 350.584 326.161 350.584C326.865 350.584 327.409 351.128 327.409 351.848C327.409 352.568 326.865 353.112 326.161 353.112ZM325.265 363V354.52H327.057V363H325.265ZM329.148 356.856C329.148 355.416 330.476 354.328 332.476 354.328C334.124 354.328 335.228 354.92 335.82 356.056L334.572 356.824C334.188 356.168 333.42 355.768 332.46 355.768C331.5 355.768 330.844 356.136 330.844 356.744C330.844 357.24 331.18 357.544 331.932 357.688L333.356 357.976C335.148 358.328 336.044 359.176 336.044 360.472C336.044 362.072 334.652 363.144 332.556 363.144C330.78 363.144 329.516 362.472 328.86 361.24L330.108 360.456C330.572 361.24 331.388 361.688 332.508 361.688C333.596 361.688 334.332 361.256 334.332 360.552C334.332 359.976 333.98 359.656 333.196 359.496L331.628 359.192C330.028 358.888 329.148 358.072 329.148 356.856ZM337.417 356.856C337.417 355.416 338.745 354.328 340.745 354.328C342.393 354.328 343.497 354.92 344.089 356.056L342.841 356.824C342.457 356.168 341.689 355.768 340.729 355.768C339.769 355.768 339.113 356.136 339.113 356.744C339.113 357.24 339.449 357.544 340.201 357.688L341.625 357.976C343.417 358.328 344.313 359.176 344.313 360.472C344.313 362.072 342.921 363.144 340.825 363.144C339.049 363.144 337.785 362.472 337.129 361.24L338.377 360.456C338.841 361.24 339.657 361.688 340.777 361.688C341.865 361.688 342.601 361.256 342.601 360.552C342.601 359.976 342.249 359.656 341.465 359.496L339.897 359.192C338.297 358.888 337.417 358.072 337.417 356.856ZM351.786 360.328L353.002 361.032C352.522 362.088 351.402 363.144 349.466 363.144C346.954 363.144 345.434 361.288 345.434 358.68C345.434 356.104 347.082 354.328 349.338 354.328C351.338 354.328 352.986 355.672 352.986 358.072L352.954 359.128H347.194C347.29 360.92 348.17 361.688 349.578 361.688C350.618 361.688 351.338 361.128 351.786 360.328ZM349.338 355.736C348.25 355.736 347.338 356.312 347.194 357.848H351.242C351.258 356.344 350.33 355.736 349.338 355.736Z" fill="#2A2859"/>
<rect x="193" y="330" width="469" height="54" stroke="#F2F2F2" stroke-width="2"/>
</svg>
