<svg width="1165" height="298" viewBox="0 0 1165 298" fill="none" xmlns="http://www.w3.org/2000/svg">
<rect width="1165" height="298" fill="white"/>
<rect x="170" y="86" width="22" height="22" fill="white"/>
<rect x="170" y="86" width="22" height="22" stroke="#2A2859" stroke-width="2"/>
<path d="M207.144 92.088C204.824 92.088 202.952 93.752 202.952 97.016C202.952 100.248 204.68 102.072 207.16 102.072C208.6 102.072 210.008 101.384 210.696 99.544L211.608 100.056C210.68 102.264 208.984 103.128 207.112 103.128C204.04 103.128 201.8 100.76 201.8 97.016C201.8 93.384 204.216 91.032 207.176 91.032C209.256 91.032 210.728 91.992 211.416 93.624L210.392 94.104C209.8 92.776 208.552 92.088 207.144 92.088ZM217.073 94.392C218.769 94.392 219.761 95.432 219.761 97.336V103H218.673V97.496C218.673 95.96 217.969 95.384 216.785 95.384C215.297 95.384 214.609 96.536 214.609 98.232V103H213.521V91.16H214.609V95.832C215.121 94.904 216.049 94.392 217.073 94.392ZM227.971 100.6L228.771 101.048C228.371 102.072 227.315 103.128 225.427 103.128C223.043 103.128 221.635 101.352 221.635 98.648C221.635 96.168 223.107 94.392 225.315 94.392C227.139 94.392 228.707 95.704 228.707 98.008L228.675 98.952H222.739C222.835 101.208 223.907 102.168 225.539 102.168C226.819 102.168 227.571 101.432 227.971 100.6ZM225.315 95.352C224.035 95.352 222.883 96.04 222.739 98.056H227.635C227.683 96.152 226.563 95.352 225.315 95.352ZM236.471 97.048C236.119 95.992 235.271 95.352 234.167 95.352C232.487 95.352 231.383 96.648 231.383 98.648C231.383 100.84 232.487 102.168 234.295 102.168C235.415 102.168 236.311 101.512 236.759 100.408L237.559 100.856C237.047 102.264 235.735 103.128 234.263 103.128C231.815 103.128 230.263 101.352 230.263 98.648C230.263 96.184 231.927 94.392 234.199 94.392C235.863 94.392 237.063 95.384 237.399 96.728L236.471 97.048ZM244.778 103L241.658 98.792L240.618 99.784V103H239.53V91.16H240.618V98.504L244.65 94.52H246.09L242.394 98.072L246.154 103H244.778ZM251.686 94.408C253.846 94.408 255.302 96.216 255.302 98.68C255.302 101.288 253.83 103.128 251.558 103.128C250.374 103.128 249.414 102.536 248.902 101.464V103H247.814V91.16H248.902V96.104C249.462 95.016 250.582 94.408 251.686 94.408ZM251.558 102.168C253.142 102.168 254.182 100.952 254.182 98.728C254.182 96.584 253.142 95.368 251.574 95.368C249.878 95.368 248.902 96.632 248.902 98.712C248.902 100.92 249.862 102.168 251.558 102.168ZM260.549 103.128C258.453 103.128 256.773 101.4 256.773 98.744C256.773 96.12 258.437 94.392 260.549 94.392C262.661 94.392 264.325 96.12 264.325 98.744C264.325 101.4 262.645 103.128 260.549 103.128ZM260.549 102.168C262.005 102.168 263.205 101.016 263.205 98.744C263.205 96.488 261.989 95.352 260.549 95.352C259.109 95.352 257.893 96.488 257.893 98.744C257.893 101.016 259.093 102.168 260.549 102.168ZM272.359 103H271.015L268.679 99.352L266.407 103H265.159L268.087 98.632L265.255 94.52H266.599L268.855 97.976L271.015 94.52H272.263L269.431 98.664L272.359 103Z" fill="#2A2859"/>
<rect x="618" y="86" width="22" height="22" fill="#2A2859"/>
<path fill-rule="evenodd" clip-rule="evenodd" d="M634.778 94.1606L627.498 101.441L623.217 97.1606L624.278 96.1L627.498 99.3196L633.717 93.1L634.778 94.1606Z" fill="white"/>
<rect x="618" y="86" width="22" height="22" stroke="#2A2859" stroke-width="2"/>
<path d="M655.144 92.088C652.824 92.088 650.952 93.752 650.952 97.016C650.952 100.248 652.68 102.072 655.16 102.072C656.6 102.072 658.008 101.384 658.696 99.544L659.608 100.056C658.68 102.264 656.984 103.128 655.112 103.128C652.04 103.128 649.8 100.76 649.8 97.016C649.8 93.384 652.216 91.032 655.176 91.032C657.256 91.032 658.728 91.992 659.416 93.624L658.392 94.104C657.8 92.776 656.552 92.088 655.144 92.088ZM665.073 94.392C666.769 94.392 667.761 95.432 667.761 97.336V103H666.673V97.496C666.673 95.96 665.969 95.384 664.785 95.384C663.297 95.384 662.609 96.536 662.609 98.232V103H661.521V91.16H662.609V95.832C663.121 94.904 664.049 94.392 665.073 94.392ZM675.971 100.6L676.771 101.048C676.371 102.072 675.315 103.128 673.427 103.128C671.043 103.128 669.635 101.352 669.635 98.648C669.635 96.168 671.107 94.392 673.315 94.392C675.139 94.392 676.707 95.704 676.707 98.008L676.675 98.952H670.739C670.835 101.208 671.907 102.168 673.539 102.168C674.819 102.168 675.571 101.432 675.971 100.6ZM673.315 95.352C672.035 95.352 670.883 96.04 670.739 98.056H675.635C675.683 96.152 674.563 95.352 673.315 95.352ZM684.471 97.048C684.119 95.992 683.271 95.352 682.167 95.352C680.487 95.352 679.383 96.648 679.383 98.648C679.383 100.84 680.487 102.168 682.295 102.168C683.415 102.168 684.311 101.512 684.759 100.408L685.559 100.856C685.047 102.264 683.735 103.128 682.263 103.128C679.815 103.128 678.263 101.352 678.263 98.648C678.263 96.184 679.927 94.392 682.199 94.392C683.863 94.392 685.063 95.384 685.399 96.728L684.471 97.048ZM692.778 103L689.658 98.792L688.618 99.784V103H687.53V91.16H688.618V98.504L692.65 94.52H694.09L690.394 98.072L694.154 103H692.778ZM699.686 94.408C701.846 94.408 703.302 96.216 703.302 98.68C703.302 101.288 701.83 103.128 699.558 103.128C698.374 103.128 697.414 102.536 696.902 101.464V103H695.814V91.16H696.902V96.104C697.462 95.016 698.582 94.408 699.686 94.408ZM699.558 102.168C701.142 102.168 702.182 100.952 702.182 98.728C702.182 96.584 701.142 95.368 699.574 95.368C697.878 95.368 696.902 96.632 696.902 98.712C696.902 100.92 697.862 102.168 699.558 102.168ZM708.549 103.128C706.453 103.128 704.773 101.4 704.773 98.744C704.773 96.12 706.437 94.392 708.549 94.392C710.661 94.392 712.325 96.12 712.325 98.744C712.325 101.4 710.645 103.128 708.549 103.128ZM708.549 102.168C710.005 102.168 711.205 101.016 711.205 98.744C711.205 96.488 709.989 95.352 708.549 95.352C707.109 95.352 705.893 96.488 705.893 98.744C705.893 101.016 707.093 102.168 708.549 102.168ZM720.359 103H719.015L716.679 99.352L714.407 103H713.159L716.087 98.632L713.255 94.52H714.599L716.855 97.976L719.015 94.52H720.263L717.431 98.664L720.359 103Z" fill="#2A2859"/>
<rect x="170" y="174" width="22" height="22" fill="white"/>
<rect x="170" y="174" width="22" height="22" stroke="#2A2859" stroke-width="2"/>
<path d="M215.368 180.792C213.48 180.792 211.72 182.12 211.72 185.016C211.72 187.848 213.272 189.368 215.352 189.368C216.696 189.368 217.816 188.712 218.456 187.288L219.944 188.216C219.016 190.232 217.336 191.16 215.272 191.16C212.088 191.16 209.768 188.824 209.768 185.032C209.768 181.352 212.344 179 215.368 179C217.4 179 218.968 179.912 219.816 181.672L218.184 182.584C217.656 181.448 216.616 180.792 215.368 180.792ZM226.025 182.328C227.753 182.328 228.777 183.448 228.777 185.288V191H226.985V185.576C226.985 184.408 226.425 183.88 225.449 183.88C224.185 183.88 223.529 184.76 223.529 186.408V191H221.737V179.16H223.529V183.752C224.105 182.84 224.969 182.328 226.025 182.328ZM237.001 188.328L238.217 189.032C237.737 190.088 236.617 191.144 234.681 191.144C232.169 191.144 230.649 189.288 230.649 186.68C230.649 184.104 232.297 182.328 234.553 182.328C236.553 182.328 238.201 183.672 238.201 186.072L238.169 187.128H232.409C232.505 188.92 233.385 189.688 234.793 189.688C235.833 189.688 236.553 189.128 237.001 188.328ZM234.553 183.736C233.465 183.736 232.553 184.312 232.409 185.848H236.457C236.473 184.344 235.545 183.736 234.553 183.736ZM245.828 185.208C245.524 184.424 244.82 183.864 243.876 183.864C242.484 183.864 241.524 184.856 241.524 186.632C241.524 188.504 242.484 189.576 243.972 189.576C244.916 189.576 245.716 189.048 246.116 188.12L247.38 188.904C246.804 190.232 245.556 191.128 243.892 191.128C241.316 191.128 239.684 189.24 239.684 186.664C239.684 184.136 241.412 182.328 243.86 182.328C245.652 182.328 246.788 183.256 247.236 184.488L245.828 185.208ZM254.481 191L251.905 187.112L250.929 188.072V191H249.137V179.16H250.929V186.04L254.353 182.52H256.561L253.089 185.944L256.625 191H254.481ZM262.635 182.344C264.683 182.344 266.155 184.088 266.155 186.68C266.155 189.336 264.667 191.128 262.427 191.128C261.451 191.128 260.507 190.696 259.963 189.64V191H258.171V179.16H259.963V184.04C260.619 182.84 261.659 182.344 262.635 182.344ZM262.155 189.656C263.387 189.656 264.299 188.664 264.299 186.76C264.299 184.856 263.387 183.88 262.155 183.88C260.843 183.88 259.963 184.776 259.963 186.744C259.963 188.712 260.843 189.656 262.155 189.656ZM271.506 191.16C269.298 191.16 267.49 189.432 267.49 186.712C267.49 184.056 269.282 182.328 271.506 182.328C273.73 182.328 275.522 184.056 275.522 186.712C275.522 189.432 273.714 191.16 271.506 191.16ZM271.506 189.64C272.706 189.64 273.682 188.712 273.682 186.712C273.682 184.696 272.69 183.848 271.506 183.848C270.322 183.848 269.33 184.696 269.33 186.712C269.33 188.712 270.322 189.64 271.506 189.64ZM284.284 191H282.14L280.108 187.72L278.124 191H276.22L279.116 186.584L276.332 182.52H278.46L280.412 185.592L282.252 182.52H284.156L281.372 186.712L284.284 191Z" fill="#2A2859"/>
<rect x="154" y="158" width="398" height="54" stroke="#F2F2F2" stroke-width="2"/>
<rect x="618" y="174" width="22" height="22" fill="#2A2859"/>
<path fill-rule="evenodd" clip-rule="evenodd" d="M634.778 182.161L627.498 189.441L623.217 185.161L624.278 184.1L627.498 187.32L633.717 181.1L634.778 182.161Z" fill="white"/>
<rect x="618" y="174" width="22" height="22" stroke="#2A2859" stroke-width="2"/>
<path d="M663.368 180.792C661.48 180.792 659.72 182.12 659.72 185.016C659.72 187.848 661.272 189.368 663.352 189.368C664.696 189.368 665.816 188.712 666.456 187.288L667.944 188.216C667.016 190.232 665.336 191.16 663.272 191.16C660.088 191.16 657.768 188.824 657.768 185.032C657.768 181.352 660.344 179 663.368 179C665.4 179 666.968 179.912 667.816 181.672L666.184 182.584C665.656 181.448 664.616 180.792 663.368 180.792ZM674.025 182.328C675.753 182.328 676.777 183.448 676.777 185.288V191H674.985V185.576C674.985 184.408 674.425 183.88 673.449 183.88C672.185 183.88 671.529 184.76 671.529 186.408V191H669.737V179.16H671.529V183.752C672.105 182.84 672.969 182.328 674.025 182.328ZM685.001 188.328L686.217 189.032C685.737 190.088 684.617 191.144 682.681 191.144C680.169 191.144 678.649 189.288 678.649 186.68C678.649 184.104 680.297 182.328 682.553 182.328C684.553 182.328 686.201 183.672 686.201 186.072L686.169 187.128H680.409C680.505 188.92 681.385 189.688 682.793 189.688C683.833 189.688 684.553 189.128 685.001 188.328ZM682.553 183.736C681.465 183.736 680.553 184.312 680.409 185.848H684.457C684.473 184.344 683.545 183.736 682.553 183.736ZM693.828 185.208C693.524 184.424 692.82 183.864 691.876 183.864C690.484 183.864 689.524 184.856 689.524 186.632C689.524 188.504 690.484 189.576 691.972 189.576C692.916 189.576 693.716 189.048 694.116 188.12L695.38 188.904C694.804 190.232 693.556 191.128 691.892 191.128C689.316 191.128 687.684 189.24 687.684 186.664C687.684 184.136 689.412 182.328 691.86 182.328C693.652 182.328 694.788 183.256 695.236 184.488L693.828 185.208ZM702.481 191L699.905 187.112L698.929 188.072V191H697.137V179.16H698.929V186.04L702.353 182.52H704.561L701.089 185.944L704.625 191H702.481ZM710.635 182.344C712.683 182.344 714.155 184.088 714.155 186.68C714.155 189.336 712.667 191.128 710.427 191.128C709.451 191.128 708.507 190.696 707.963 189.64V191H706.171V179.16H707.963V184.04C708.619 182.84 709.659 182.344 710.635 182.344ZM710.155 189.656C711.387 189.656 712.299 188.664 712.299 186.76C712.299 184.856 711.387 183.88 710.155 183.88C708.843 183.88 707.963 184.776 707.963 186.744C707.963 188.712 708.843 189.656 710.155 189.656ZM719.506 191.16C717.298 191.16 715.49 189.432 715.49 186.712C715.49 184.056 717.282 182.328 719.506 182.328C721.73 182.328 723.522 184.056 723.522 186.712C723.522 189.432 721.714 191.16 719.506 191.16ZM719.506 189.64C720.706 189.64 721.682 188.712 721.682 186.712C721.682 184.696 720.69 183.848 719.506 183.848C718.322 183.848 717.33 184.696 717.33 186.712C717.33 188.712 718.322 189.64 719.506 189.64ZM732.284 191H730.14L728.108 187.72L726.124 191H724.22L727.116 186.584L724.332 182.52H726.46L728.412 185.592L730.252 182.52H732.156L729.372 186.712L732.284 191Z" fill="#2A2859"/>
<rect x="602" y="158" width="398" height="54" stroke="#2A2859" stroke-width="2"/>
</svg>
