<svg width="1166" height="266" viewBox="0 0 1166 266" fill="none" xmlns="http://www.w3.org/2000/svg">
<rect width="1166" height="266" fill="white"/>
<rect x="188" y="96" width="22" height="22" fill="white"/>
<rect x="188" y="96" width="22" height="22" stroke="#2A2859" stroke-width="2"/>
<path d="M225.272 113.128C222.104 113.128 219.8 110.76 219.8 107.016C219.8 103.384 222.216 101.032 225.176 101.032C227.256 101.032 228.728 101.992 229.416 103.624L228.392 104.104C227.8 102.776 226.552 102.088 225.144 102.088C222.824 102.088 220.952 103.752 220.952 107.016C220.952 110.28 222.744 112.136 225.32 112.136C226.632 112.136 227.544 111.864 228.408 111.336V107.784H224.056V106.76H229.432V111.784C228.456 112.648 226.84 113.128 225.272 113.128ZM235.127 113.128C233.031 113.128 231.351 111.4 231.351 108.744C231.351 106.12 233.015 104.392 235.127 104.392C237.239 104.392 238.903 106.12 238.903 108.744C238.903 111.4 237.223 113.128 235.127 113.128ZM235.127 112.168C236.583 112.168 237.783 111.016 237.783 108.744C237.783 106.488 236.567 105.352 235.127 105.352C233.687 105.352 232.471 106.488 232.471 108.744C232.471 111.016 233.671 112.168 235.127 112.168ZM246.77 101.16H247.858V113H246.77V111.416C246.21 112.504 245.09 113.112 243.986 113.112C241.826 113.112 240.37 111.304 240.37 108.84C240.37 106.232 241.842 104.392 244.114 104.392C245.298 104.392 246.258 104.984 246.77 106.056V101.16ZM244.098 112.152C245.794 112.152 246.77 110.888 246.77 108.808C246.77 106.6 245.81 105.352 244.114 105.352C242.53 105.352 241.49 106.568 241.49 108.792C241.49 110.936 242.53 112.152 244.098 112.152ZM252.034 110.888C252.034 111.88 252.626 112.168 253.155 112.168C253.666 112.168 254.003 111.976 254.402 111.56L254.978 112.2C254.418 112.856 253.81 113.128 253.058 113.128C251.906 113.128 250.946 112.36 250.946 110.856V105.416H249.346V104.52H250.946V102.696L252.034 102.056V104.52H254.786V105.416H252.034V110.888ZM263.614 105.416H261.79V105.72C262.206 106.232 262.43 106.872 262.43 107.496C262.43 109.048 261.31 110.632 258.926 110.632H258.558C257.598 110.632 256.91 111 256.91 111.56C256.91 111.992 257.246 112.296 257.95 112.296H261.39C262.766 112.296 263.47 112.968 263.47 114.024C263.47 115.704 261.534 116.584 259.15 116.584C257.006 116.584 255.518 115.896 255.006 114.408L255.886 114.008C256.478 115.4 257.726 115.672 259.15 115.672C260.91 115.672 262.382 115.144 262.382 114.12C262.382 113.64 262.126 113.288 261.358 113.288H257.71C256.526 113.288 255.822 112.728 255.822 111.848C255.822 111.096 256.446 110.44 257.486 110.168C256.366 109.72 255.742 108.536 255.742 107.496C255.742 105.976 256.878 104.392 259.118 104.392C259.998 104.392 260.67 104.68 261.182 105.112V104.52H263.614V105.416ZM259.102 109.736C260.606 109.736 261.358 108.696 261.358 107.496C261.358 106.312 260.606 105.32 259.102 105.32C257.582 105.32 256.814 106.328 256.814 107.496C256.814 108.68 257.582 109.736 259.102 109.736ZM265.747 102.984C265.219 102.984 264.787 102.568 264.787 102.024C264.787 101.48 265.219 101.064 265.747 101.064C266.275 101.064 266.707 101.48 266.707 102.024C266.707 102.568 266.275 102.984 265.747 102.984ZM264.467 116.472C264.179 116.472 263.907 116.424 263.635 116.344L263.731 115.384C263.955 115.464 264.163 115.48 264.307 115.48C265.059 115.48 265.203 114.968 265.203 114.232V104.52H266.291V114.296C266.291 115.736 265.667 116.472 264.467 116.472ZM274.304 105.16C275.248 105.912 275.856 107.16 275.856 108.744C275.856 111.4 274.176 113.128 272.08 113.128C271.488 113.128 270.928 112.984 270.432 112.728L269.904 113.768H269.136L269.856 112.36C268.912 111.608 268.304 110.344 268.304 108.744C268.304 106.12 269.968 104.392 272.08 104.392C272.672 104.392 273.232 104.536 273.728 104.776L274.256 103.752H275.024L274.304 105.16ZM269.424 108.744C269.424 109.976 269.776 110.872 270.32 111.448L273.28 105.656C272.912 105.448 272.512 105.352 272.08 105.352C270.64 105.352 269.424 106.488 269.424 108.744ZM272.08 112.168C273.536 112.168 274.736 111.016 274.736 108.744C274.736 107.528 274.384 106.648 273.84 106.072L270.88 111.864C271.232 112.072 271.648 112.168 272.08 112.168ZM280.907 104.392C282.011 104.392 282.811 105.128 282.811 106.568V107.4L281.819 107.592V106.76C281.819 105.912 281.531 105.352 280.667 105.352C279.691 105.352 278.955 106.072 278.955 107.784V113H277.867V104.52H278.955V105.576C279.403 104.776 280.155 104.392 280.907 104.392ZM290.068 110.6L290.868 111.048C290.468 112.072 289.412 113.128 287.524 113.128C285.14 113.128 283.732 111.352 283.732 108.648C283.732 106.168 285.204 104.392 287.412 104.392C289.236 104.392 290.804 105.704 290.804 108.008L290.772 108.952H284.836C284.932 111.208 286.004 112.168 287.636 112.168C288.916 112.168 289.668 111.432 290.068 110.6ZM287.412 105.352C286.132 105.352 284.98 106.04 284.836 108.056H289.732C289.78 106.152 288.66 105.352 287.412 105.352ZM295.56 112.968C295.304 113.032 295.096 113.064 294.856 113.064C293.528 113.064 292.904 112.232 292.904 110.984V101.16H293.992V110.984C293.992 111.704 294.376 112.072 295.048 112.072C295.224 112.072 295.4 112.056 295.56 112.008V112.968ZM296.929 106.728C296.929 105.384 298.193 104.392 299.969 104.392C301.505 104.392 302.689 105.128 303.041 106.248L302.145 106.6C301.809 105.784 301.025 105.352 299.937 105.352C298.753 105.352 297.985 105.848 297.985 106.632C297.985 107.336 298.449 107.768 299.457 107.976L300.577 108.2C302.433 108.568 303.297 109.368 303.297 110.632C303.297 112.104 301.985 113.128 300.097 113.128C298.385 113.128 297.185 112.456 296.609 111.176L297.537 110.792C297.937 111.688 298.817 112.168 300.065 112.168C301.377 112.168 302.241 111.592 302.241 110.728C302.241 109.928 301.793 109.496 300.673 109.256L299.297 108.968C297.745 108.648 296.929 107.864 296.929 106.728ZM311.031 110.6L311.831 111.048C311.431 112.072 310.375 113.128 308.487 113.128C306.103 113.128 304.695 111.352 304.695 108.648C304.695 106.168 306.167 104.392 308.375 104.392C310.199 104.392 311.767 105.704 311.767 108.008L311.735 108.952H305.799C305.895 111.208 306.967 112.168 308.599 112.168C309.879 112.168 310.631 111.432 311.031 110.6ZM308.375 105.352C307.095 105.352 305.943 106.04 305.799 108.056H310.695C310.743 106.152 309.623 105.352 308.375 105.352ZM323.552 110.6L324.352 111.048C323.952 112.072 322.896 113.128 321.008 113.128C318.624 113.128 317.216 111.352 317.216 108.648C317.216 106.168 318.688 104.392 320.896 104.392C322.72 104.392 324.288 105.704 324.288 108.008L324.256 108.952H318.32C318.416 111.208 319.488 112.168 321.12 112.168C322.4 112.168 323.152 111.432 323.552 110.6ZM320.896 105.352C319.616 105.352 318.464 106.04 318.32 108.056H323.216C323.264 106.152 322.144 105.352 320.896 105.352ZM329.044 112.968C328.788 113.032 328.58 113.064 328.34 113.064C327.012 113.064 326.388 112.232 326.388 110.984V101.16H327.476V110.984C327.476 111.704 327.86 112.072 328.532 112.072C328.708 112.072 328.884 112.056 329.044 112.008V112.968ZM333.485 112.968C333.229 113.032 333.021 113.064 332.781 113.064C331.453 113.064 330.829 112.232 330.829 110.984V101.16H331.917V110.984C331.917 111.704 332.301 112.072 332.973 112.072C333.149 112.072 333.325 112.056 333.485 112.008V112.968ZM340.812 110.6L341.612 111.048C341.212 112.072 340.156 113.128 338.268 113.128C335.884 113.128 334.476 111.352 334.476 108.648C334.476 106.168 335.948 104.392 338.156 104.392C339.98 104.392 341.548 105.704 341.548 108.008L341.516 108.952H335.58C335.676 111.208 336.748 112.168 338.38 112.168C339.66 112.168 340.412 111.432 340.812 110.6ZM338.156 105.352C336.876 105.352 335.724 106.04 335.58 108.056H340.476C340.524 106.152 339.404 105.352 338.156 105.352ZM346.688 104.392C347.792 104.392 348.592 105.128 348.592 106.568V107.4L347.6 107.592V106.76C347.6 105.912 347.312 105.352 346.448 105.352C345.472 105.352 344.736 106.072 344.736 107.784V113H343.648V104.52H344.736V105.576C345.184 104.776 345.936 104.392 346.688 104.392ZM357.091 112.968C356.835 113.032 356.627 113.064 356.387 113.064C355.059 113.064 354.435 112.232 354.435 110.984V101.16H355.523V110.984C355.523 111.704 355.907 112.072 356.579 112.072C356.755 112.072 356.931 112.056 357.091 112.008V112.968ZM364.082 105.16C365.026 105.912 365.634 107.16 365.634 108.744C365.634 111.4 363.954 113.128 361.858 113.128C361.266 113.128 360.706 112.984 360.21 112.728L359.682 113.768H358.914L359.634 112.36C358.69 111.608 358.082 110.344 358.082 108.744C358.082 106.12 359.746 104.392 361.858 104.392C362.45 104.392 363.01 104.536 363.506 104.776L364.034 103.752H364.802L364.082 105.16ZM359.202 108.744C359.202 109.976 359.554 110.872 360.098 111.448L363.058 105.656C362.69 105.448 362.29 105.352 361.858 105.352C360.418 105.352 359.202 106.488 359.202 108.744ZM361.858 112.168C363.314 112.168 364.514 111.016 364.514 108.744C364.514 107.528 364.162 106.648 363.618 106.072L360.658 111.864C361.01 112.072 361.426 112.168 361.858 112.168ZM371.197 104.392C372.893 104.392 373.885 105.432 373.885 107.336V113H372.797V107.496C372.797 105.96 372.093 105.384 370.909 105.384C369.421 105.384 368.733 106.536 368.733 108.232V113H367.645V104.52H368.733V105.832C369.245 104.904 370.173 104.392 371.197 104.392ZM379.856 104.392C381.552 104.392 382.544 105.432 382.544 107.336V113H381.456V107.496C381.456 105.96 380.752 105.384 379.568 105.384C378.08 105.384 377.392 106.536 377.392 108.232V113H376.304V104.52H377.392V105.832C377.904 104.904 378.832 104.392 379.856 104.392ZM390.553 103.336V104.52H392.921V105.416H390.553V113H389.465V105.416H387.865V104.52H389.465V103.336C389.465 101.864 390.425 101.032 391.737 101.032C392.345 101.032 393.049 101.272 393.449 101.912L392.793 102.568C392.537 102.184 392.153 101.96 391.705 101.96C391.145 101.96 390.553 102.296 390.553 103.336ZM397.124 113.128C395.028 113.128 393.348 111.4 393.348 108.744C393.348 106.12 395.012 104.392 397.124 104.392C399.236 104.392 400.9 106.12 400.9 108.744C400.9 111.4 399.22 113.128 397.124 113.128ZM397.124 112.168C398.58 112.168 399.78 111.016 399.78 108.744C399.78 106.488 398.564 105.352 397.124 105.352C395.684 105.352 394.468 106.488 394.468 108.744C394.468 111.016 395.668 112.168 397.124 112.168ZM405.95 104.392C407.054 104.392 407.854 105.128 407.854 106.568V107.4L406.862 107.592V106.76C406.862 105.912 406.574 105.352 405.71 105.352C404.734 105.352 403.998 106.072 403.998 107.784V113H402.91V104.52H403.998V105.576C404.446 104.776 405.198 104.392 405.95 104.392ZM419.106 104.52H420.226L416.898 113H415.938L412.61 104.52H413.794L416.45 111.8L419.106 104.52ZM427.165 110.6L427.965 111.048C427.565 112.072 426.509 113.128 424.621 113.128C422.237 113.128 420.829 111.352 420.829 108.648C420.829 106.168 422.301 104.392 424.509 104.392C426.333 104.392 427.901 105.704 427.901 108.008L427.869 108.952H421.933C422.029 111.208 423.101 112.168 424.733 112.168C426.013 112.168 426.765 111.432 427.165 110.6ZM424.509 105.352C423.229 105.352 422.077 106.04 421.933 108.056H426.829C426.877 106.152 425.757 105.352 424.509 105.352ZM433.041 104.392C434.145 104.392 434.945 105.128 434.945 106.568V107.4L433.953 107.592V106.76C433.953 105.912 433.665 105.352 432.801 105.352C431.825 105.352 431.089 106.072 431.089 107.784V113H430.001V104.52H431.089V105.576C431.537 104.776 432.289 104.392 433.041 104.392ZM441.99 104.52H443.11L439.782 113H438.822L435.494 104.52H436.678L439.334 111.8L441.99 104.52Z" fill="#2A2859"/>
<path d="M220.036 135.384C220.036 133.648 221.618 132.528 223.452 132.528C225.146 132.528 226.294 133.256 226.812 134.558L225.888 134.936C225.468 133.942 224.53 133.396 223.452 133.396C222.024 133.396 221.016 134.124 221.016 135.272C221.016 136.238 221.59 136.826 222.808 137.064L224.432 137.372C226.028 137.68 227.204 138.534 227.204 140.088C227.204 141.684 225.86 143.112 223.592 143.112C221.8 143.112 220.456 142.496 219.728 140.956L220.624 140.592C221.324 141.964 222.486 142.244 223.62 142.244C225.314 142.244 226.224 141.264 226.224 140.144C226.224 138.898 225.384 138.534 224.124 138.296L222.64 138.016C221.198 137.75 220.036 136.952 220.036 135.384ZM230.493 141.152C230.493 142.02 231.011 142.272 231.473 142.272C231.921 142.272 232.215 142.104 232.565 141.74L233.069 142.3C232.579 142.874 232.047 143.112 231.389 143.112C230.381 143.112 229.541 142.44 229.541 141.124V136.364H228.141V135.58H229.541V133.984L230.493 133.424V135.58H232.901V136.364H230.493V141.152ZM239.186 135.58H240.166L236.904 144.022C236.414 145.282 235.868 146.08 234.72 146.08C234.216 146.08 233.754 145.898 233.404 145.576L233.824 144.89C234.104 145.142 234.37 145.254 234.692 145.254C235.21 145.254 235.574 145.03 235.938 144.176L236.372 143.126L233.586 135.58H234.622L236.862 142.006L239.186 135.58ZM244.37 135.468C245.336 135.468 246.036 136.112 246.036 137.372V138.1L245.168 138.268V137.54C245.168 136.798 244.916 136.308 244.16 136.308C243.306 136.308 242.662 136.938 242.662 138.436V143H241.71V135.58H242.662V136.504C243.054 135.804 243.712 135.468 244.37 135.468ZM252.561 140.9L253.261 141.292C252.911 142.188 251.987 143.112 250.335 143.112C248.249 143.112 247.017 141.558 247.017 139.192C247.017 137.022 248.305 135.468 250.237 135.468C251.833 135.468 253.205 136.616 253.205 138.632L253.177 139.458H247.983C248.067 141.432 249.005 142.272 250.433 142.272C251.553 142.272 252.211 141.628 252.561 140.9ZM250.237 136.308C249.117 136.308 248.109 136.91 247.983 138.674H252.267C252.309 137.008 251.329 136.308 250.237 136.308ZM258.354 135.468C259.838 135.468 260.706 136.378 260.706 138.044V143H259.754V138.184C259.754 136.84 259.138 136.336 258.102 136.336C256.8 136.336 256.198 137.344 256.198 138.828V143H255.246V132.64H256.198V136.728C256.646 135.916 257.458 135.468 258.354 135.468ZM265.825 143.112C263.991 143.112 262.521 141.6 262.521 139.276C262.521 136.98 263.977 135.468 265.825 135.468C267.673 135.468 269.129 136.98 269.129 139.276C269.129 141.6 267.659 143.112 265.825 143.112ZM265.825 142.272C267.099 142.272 268.149 141.264 268.149 139.276C268.149 137.302 267.085 136.308 265.825 136.308C264.565 136.308 263.501 137.302 263.501 139.276C263.501 141.264 264.551 142.272 265.825 142.272ZM274.171 135.468C275.655 135.468 276.523 136.378 276.523 138.044V143H275.571V138.184C275.571 136.84 274.955 136.336 273.919 136.336C272.617 136.336 272.015 137.344 272.015 138.828V143H271.063V135.58H272.015V136.728C272.463 135.916 273.275 135.468 274.171 135.468ZM281.643 143.112C279.809 143.112 278.339 141.6 278.339 139.276C278.339 136.98 279.795 135.468 281.643 135.468C283.491 135.468 284.947 136.98 284.947 139.276C284.947 141.6 283.477 143.112 281.643 143.112ZM281.643 142.272C282.917 142.272 283.967 141.264 283.967 139.276C283.967 137.302 282.903 136.308 281.643 136.308C280.383 136.308 279.319 137.302 279.319 139.276C279.319 141.264 280.369 142.272 281.643 142.272ZM289.542 135.468C290.508 135.468 291.208 136.112 291.208 137.372V138.1L290.34 138.268V137.54C290.34 136.798 290.088 136.308 289.332 136.308C288.478 136.308 287.834 136.938 287.834 138.436V143H286.882V135.58H287.834V136.504C288.226 135.804 288.884 135.468 289.542 135.468ZM298.195 143H297.327C297.215 142.594 297.131 142.104 297.131 141.544C296.753 142.412 295.787 143.112 294.583 143.112C293.267 143.112 292.273 142.258 292.273 140.984C292.273 139.458 293.645 138.66 295.171 138.66C295.773 138.66 296.361 138.73 296.963 138.94V137.96C296.963 136.994 296.375 136.336 295.227 136.336C294.303 136.336 293.519 136.742 293.127 137.876L292.287 137.624C292.847 136.056 293.981 135.468 295.283 135.468C297.117 135.468 297.887 136.574 297.887 137.848V140.9C297.887 141.74 298.027 142.496 298.195 143ZM296.963 139.92V139.752C296.389 139.514 295.801 139.444 295.227 139.444C294.107 139.444 293.225 139.948 293.225 140.928C293.225 141.824 293.855 142.3 294.751 142.3C295.717 142.3 296.963 141.726 296.963 139.92ZM302.954 135.468C303.92 135.468 304.62 136.112 304.62 137.372V138.1L303.752 138.268V137.54C303.752 136.798 303.5 136.308 302.744 136.308C301.89 136.308 301.246 136.938 301.246 138.436V143H300.294V135.58H301.246V136.504C301.638 135.804 302.296 135.468 302.954 135.468ZM312.743 135.468C313.709 135.468 314.409 136.112 314.409 137.372V138.1L313.541 138.268V137.54C313.541 136.798 313.289 136.308 312.533 136.308C311.679 136.308 311.035 136.938 311.035 138.436V143H310.083V135.58H311.035V136.504C311.427 135.804 312.085 135.468 312.743 135.468ZM321.396 143H320.528C320.416 142.594 320.332 142.104 320.332 141.544C319.954 142.412 318.988 143.112 317.784 143.112C316.468 143.112 315.474 142.258 315.474 140.984C315.474 139.458 316.846 138.66 318.372 138.66C318.974 138.66 319.562 138.73 320.164 138.94V137.96C320.164 136.994 319.576 136.336 318.428 136.336C317.504 136.336 316.72 136.742 316.328 137.876L315.488 137.624C316.048 136.056 317.182 135.468 318.484 135.468C320.318 135.468 321.088 136.574 321.088 137.848V140.9C321.088 141.74 321.228 142.496 321.396 143ZM320.164 139.92V139.752C319.59 139.514 319.002 139.444 318.428 139.444C317.308 139.444 316.426 139.948 316.426 140.928C316.426 141.824 317.056 142.3 317.952 142.3C318.918 142.3 320.164 141.726 320.164 139.92ZM326.883 135.482C328.773 135.482 330.047 137.064 330.047 139.22C330.047 141.502 328.759 143.112 326.771 143.112C325.735 143.112 324.895 142.594 324.447 141.656V145.94H323.495V135.58H324.447V136.966C324.937 136.014 325.917 135.482 326.883 135.482ZM326.771 142.272C328.157 142.272 329.067 141.208 329.067 139.262C329.067 137.386 328.157 136.322 326.785 136.322C325.301 136.322 324.447 137.428 324.447 139.248C324.447 141.18 325.287 142.272 326.771 142.272ZM335.373 135.482C337.263 135.482 338.537 137.064 338.537 139.22C338.537 141.502 337.249 143.112 335.261 143.112C334.225 143.112 333.385 142.594 332.937 141.656V145.94H331.985V135.58H332.937V136.966C333.427 136.014 334.407 135.482 335.373 135.482ZM335.261 142.272C336.647 142.272 337.557 141.208 337.557 139.262C337.557 137.386 336.647 136.322 335.275 136.322C333.791 136.322 332.937 137.428 332.937 139.248C332.937 141.18 333.777 142.272 335.261 142.272ZM343.303 143.112C341.469 143.112 339.999 141.6 339.999 139.276C339.999 136.98 341.455 135.468 343.303 135.468C345.151 135.468 346.607 136.98 346.607 139.276C346.607 141.6 345.137 143.112 343.303 143.112ZM343.303 142.272C344.577 142.272 345.627 141.264 345.627 139.276C345.627 137.302 344.563 136.308 343.303 136.308C342.043 136.308 340.979 137.302 340.979 139.276C340.979 141.264 342.029 142.272 343.303 142.272ZM351.202 135.468C352.168 135.468 352.868 136.112 352.868 137.372V138.1L352 138.268V137.54C352 136.798 351.748 136.308 350.992 136.308C350.138 136.308 349.494 136.938 349.494 138.436V143H348.542V135.58H349.494V136.504C349.886 135.804 350.544 135.468 351.202 135.468ZM356.096 141.152C356.096 142.02 356.614 142.272 357.076 142.272C357.524 142.272 357.818 142.104 358.168 141.74L358.672 142.3C358.182 142.874 357.65 143.112 356.992 143.112C355.984 143.112 355.144 142.44 355.144 141.124V136.364H353.744V135.58H355.144V133.984L356.096 133.424V135.58H358.504V136.364H356.096V141.152ZM364.944 140.9L365.644 141.292C365.294 142.188 364.37 143.112 362.718 143.112C360.632 143.112 359.4 141.558 359.4 139.192C359.4 137.022 360.688 135.468 362.62 135.468C364.216 135.468 365.588 136.616 365.588 138.632L365.56 139.458H360.366C360.45 141.432 361.388 142.272 362.816 142.272C363.936 142.272 364.594 141.628 364.944 140.9ZM362.62 136.308C361.5 136.308 360.492 136.91 360.366 138.674H364.65C364.692 137.008 363.712 136.308 362.62 136.308ZM370.26 135.468C371.226 135.468 371.926 136.112 371.926 137.372V138.1L371.058 138.268V137.54C371.058 136.798 370.806 136.308 370.05 136.308C369.196 136.308 368.552 136.938 368.552 138.436V143H367.6V135.58H368.552V136.504C368.944 135.804 369.602 135.468 370.26 135.468ZM373.17 137.512C373.17 136.336 374.276 135.468 375.83 135.468C377.174 135.468 378.21 136.112 378.518 137.092L377.734 137.4C377.44 136.686 376.754 136.308 375.802 136.308C374.766 136.308 374.094 136.742 374.094 137.428C374.094 138.044 374.5 138.422 375.382 138.604L376.362 138.8C377.986 139.122 378.742 139.822 378.742 140.928C378.742 142.216 377.594 143.112 375.942 143.112C374.444 143.112 373.394 142.524 372.89 141.404L373.702 141.068C374.052 141.852 374.822 142.272 375.914 142.272C377.062 142.272 377.818 141.768 377.818 141.012C377.818 140.312 377.426 139.934 376.446 139.724L375.242 139.472C373.884 139.192 373.17 138.506 373.17 137.512ZM391.59 135.468C393.004 135.468 393.83 136.364 393.83 137.904V143H392.878V138.044C392.878 136.84 392.304 136.336 391.338 136.336C390.036 136.336 389.49 137.344 389.49 138.828V143H388.538V138.044C388.538 136.84 387.964 136.336 386.998 136.336C385.696 136.336 385.15 137.344 385.15 138.828V143H384.198V135.58H385.15V136.742C385.598 135.916 386.382 135.468 387.25 135.468C388.356 135.468 389.098 136.014 389.364 136.98C389.784 136 390.638 135.468 391.59 135.468ZM401.188 140.9L401.888 141.292C401.538 142.188 400.614 143.112 398.962 143.112C396.876 143.112 395.644 141.558 395.644 139.192C395.644 137.022 396.932 135.468 398.864 135.468C400.46 135.468 401.832 136.616 401.832 138.632L401.804 139.458H396.61C396.694 141.432 397.632 142.272 399.06 142.272C400.18 142.272 400.838 141.628 401.188 140.9ZM398.864 136.308C397.744 136.308 396.736 136.91 396.61 138.674H400.894C400.936 137.008 399.956 136.308 398.864 136.308ZM408.969 132.64H409.921V143H408.969V141.614C408.479 142.566 407.499 143.098 406.533 143.098C404.643 143.098 403.369 141.516 403.369 139.36C403.369 137.078 404.657 135.468 406.645 135.468C407.681 135.468 408.521 135.986 408.969 136.924V132.64ZM406.631 142.258C408.115 142.258 408.969 141.152 408.969 139.332C408.969 137.4 408.129 136.308 406.645 136.308C405.259 136.308 404.349 137.372 404.349 139.318C404.349 141.194 405.259 142.258 406.631 142.258ZM415.485 137.512C415.485 136.336 416.591 135.468 418.145 135.468C419.489 135.468 420.525 136.112 420.833 137.092L420.049 137.4C419.755 136.686 419.069 136.308 418.117 136.308C417.081 136.308 416.409 136.742 416.409 137.428C416.409 138.044 416.815 138.422 417.697 138.604L418.677 138.8C420.301 139.122 421.057 139.822 421.057 140.928C421.057 142.216 419.909 143.112 418.257 143.112C416.759 143.112 415.709 142.524 415.205 141.404L416.017 141.068C416.367 141.852 417.137 142.272 418.229 142.272C419.377 142.272 420.133 141.768 420.133 141.012C420.133 140.312 419.741 139.934 418.761 139.724L417.557 139.472C416.199 139.192 415.485 138.506 415.485 137.512ZM427.551 143L424.821 139.318L423.911 140.186V143H422.959V132.64H423.911V139.066L427.439 135.58H428.699L425.465 138.688L428.755 143H427.551ZM435.324 143H434.456C434.344 142.594 434.26 142.104 434.26 141.544C433.882 142.412 432.916 143.112 431.712 143.112C430.396 143.112 429.402 142.258 429.402 140.984C429.402 139.458 430.774 138.66 432.3 138.66C432.902 138.66 433.49 138.73 434.092 138.94V137.96C434.092 136.994 433.504 136.336 432.356 136.336C431.432 136.336 430.648 136.742 430.256 137.876L429.416 137.624C429.976 136.056 431.11 135.468 432.412 135.468C434.246 135.468 435.016 136.574 435.016 137.848V140.9C435.016 141.74 435.156 142.496 435.324 143ZM434.092 139.92V139.752C433.518 139.514 432.93 139.444 432.356 139.444C431.236 139.444 430.354 139.948 430.354 140.928C430.354 141.824 430.984 142.3 431.88 142.3C432.846 142.3 434.092 141.726 434.092 139.92ZM438.77 141.152C438.77 142.02 439.288 142.272 439.75 142.272C440.198 142.272 440.492 142.104 440.842 141.74L441.346 142.3C440.856 142.874 440.324 143.112 439.666 143.112C438.658 143.112 437.818 142.44 437.818 141.124V136.364H436.418V135.58H437.818V133.984L438.77 133.424V135.58H441.178V136.364H438.77V141.152ZM444.184 141.152C444.184 142.02 444.702 142.272 445.164 142.272C445.612 142.272 445.906 142.104 446.256 141.74L446.76 142.3C446.27 142.874 445.738 143.112 445.08 143.112C444.072 143.112 443.232 142.44 443.232 141.124V136.364H441.832V135.58H443.232V133.984L444.184 133.424V135.58H446.592V136.364H444.184V141.152ZM453.032 140.9L453.732 141.292C453.382 142.188 452.458 143.112 450.806 143.112C448.72 143.112 447.488 141.558 447.488 139.192C447.488 137.022 448.776 135.468 450.708 135.468C452.304 135.468 453.676 136.616 453.676 138.632L453.648 139.458H448.454C448.538 141.432 449.476 142.272 450.904 142.272C452.024 142.272 452.682 141.628 453.032 140.9ZM450.708 136.308C449.588 136.308 448.58 136.91 448.454 138.674H452.738C452.78 137.008 451.8 136.308 450.708 136.308ZM457.036 141.152C457.036 142.02 457.554 142.272 458.016 142.272C458.464 142.272 458.758 142.104 459.108 141.74L459.612 142.3C459.122 142.874 458.59 143.112 457.932 143.112C456.924 143.112 456.084 142.44 456.084 141.124V136.364H454.684V135.58H456.084V133.984L457.036 133.424V135.58H459.444V136.364H457.036V141.152ZM463.899 135.468C464.865 135.468 465.565 136.112 465.565 137.372V138.1L464.697 138.268V137.54C464.697 136.798 464.445 136.308 463.689 136.308C462.835 136.308 462.191 136.938 462.191 138.436V143H461.239V135.58H462.191V136.504C462.583 135.804 463.241 135.468 463.899 135.468ZM472.09 140.9L472.79 141.292C472.44 142.188 471.516 143.112 469.864 143.112C467.778 143.112 466.546 141.558 466.546 139.192C466.546 137.022 467.834 135.468 469.766 135.468C471.362 135.468 472.734 136.616 472.734 138.632L472.706 139.458H467.512C467.596 141.432 468.534 142.272 469.962 142.272C471.082 142.272 471.74 141.628 472.09 140.9ZM469.766 136.308C468.646 136.308 467.638 136.91 467.512 138.674H471.796C471.838 137.008 470.858 136.308 469.766 136.308ZM479.367 143L476.637 139.318L475.727 140.186V143H474.775V132.64H475.727V139.066L479.255 135.58H480.515L477.281 138.688L480.571 143H479.367ZM486.791 143L484.061 139.318L483.151 140.186V143H482.199V132.64H483.151V139.066L486.679 135.58H487.939L484.705 138.688L487.995 143H486.791ZM496.005 143.112C494.171 143.112 492.701 141.6 492.701 139.276C492.701 136.98 494.157 135.468 496.005 135.468C497.853 135.468 499.309 136.98 499.309 139.276C499.309 141.6 497.839 143.112 496.005 143.112ZM496.005 142.272C497.279 142.272 498.329 141.264 498.329 139.276C498.329 137.302 497.265 136.308 496.005 136.308C494.745 136.308 493.681 137.302 493.681 139.276C493.681 141.264 494.731 142.272 496.005 142.272ZM507.483 136.364H505.887V136.63C506.251 137.078 506.447 137.638 506.447 138.184C506.447 139.542 505.467 140.928 503.381 140.928H503.059C502.219 140.928 501.617 141.25 501.617 141.74C501.617 142.118 501.911 142.384 502.527 142.384H505.537C506.741 142.384 507.357 142.972 507.357 143.896C507.357 145.366 505.663 146.136 503.577 146.136C501.701 146.136 500.399 145.534 499.951 144.232L500.721 143.882C501.239 145.1 502.331 145.338 503.577 145.338C505.117 145.338 506.405 144.876 506.405 143.98C506.405 143.56 506.181 143.252 505.509 143.252H502.317C501.281 143.252 500.665 142.762 500.665 141.992C500.665 141.334 501.211 140.76 502.121 140.522C501.141 140.13 500.595 139.094 500.595 138.184C500.595 136.854 501.589 135.468 503.549 135.468C504.319 135.468 504.907 135.72 505.355 136.098V135.58H507.483V136.364ZM503.535 140.144C504.851 140.144 505.509 139.234 505.509 138.184C505.509 137.148 504.851 136.28 503.535 136.28C502.205 136.28 501.533 137.162 501.533 138.184C501.533 139.22 502.205 140.144 503.535 140.144ZM225.734 165H224.866C224.754 164.594 224.67 164.104 224.67 163.544C224.292 164.412 223.326 165.112 222.122 165.112C220.806 165.112 219.812 164.258 219.812 162.984C219.812 161.458 221.184 160.66 222.71 160.66C223.312 160.66 223.9 160.73 224.502 160.94V159.96C224.502 158.994 223.914 158.336 222.766 158.336C221.842 158.336 221.058 158.742 220.666 159.876L219.826 159.624C220.386 158.056 221.52 157.468 222.822 157.468C224.656 157.468 225.426 158.574 225.426 159.848V162.9C225.426 163.74 225.566 164.496 225.734 165ZM224.502 161.92V161.752C223.928 161.514 223.34 161.444 222.766 161.444C221.646 161.444 220.764 161.948 220.764 162.928C220.764 163.824 221.394 164.3 222.29 164.3C223.256 164.3 224.502 163.726 224.502 161.92ZM230.493 157.468C231.459 157.468 232.159 158.112 232.159 159.372V160.1L231.291 160.268V159.54C231.291 158.798 231.039 158.308 230.283 158.308C229.429 158.308 228.785 158.938 228.785 160.436V165H227.833V157.58H228.785V158.504C229.177 157.804 229.835 157.468 230.493 157.468ZM237.456 157.482C239.346 157.482 240.62 159.064 240.62 161.22C240.62 163.502 239.332 165.112 237.344 165.112C236.308 165.112 235.468 164.594 235.02 163.656V165H234.068V154.64H235.02V158.966C235.51 158.014 236.49 157.482 237.456 157.482ZM237.344 164.272C238.73 164.272 239.64 163.208 239.64 161.262C239.64 159.386 238.73 158.322 237.358 158.322C235.874 158.322 235.02 159.428 235.02 161.248C235.02 163.18 235.86 164.272 237.344 164.272ZM247.626 162.9L248.326 163.292C247.976 164.188 247.052 165.112 245.4 165.112C243.314 165.112 242.082 163.558 242.082 161.192C242.082 159.022 243.37 157.468 245.302 157.468C246.898 157.468 248.27 158.616 248.27 160.632L248.242 161.458H243.048C243.132 163.432 244.07 164.272 245.498 164.272C246.618 164.272 247.276 163.628 247.626 162.9ZM245.302 158.308C244.182 158.308 243.174 158.91 243.048 160.674H247.332C247.374 159.008 246.394 158.308 245.302 158.308ZM250.758 156.236C250.296 156.236 249.918 155.872 249.918 155.396C249.918 154.92 250.296 154.556 250.758 154.556C251.22 154.556 251.598 154.92 251.598 155.396C251.598 155.872 251.22 156.236 250.758 156.236ZM250.282 165V157.58H251.234V165H250.282ZM258.769 154.64H259.721V165H258.769V163.614C258.279 164.566 257.299 165.098 256.333 165.098C254.443 165.098 253.169 163.516 253.169 161.36C253.169 159.078 254.457 157.468 256.445 157.468C257.481 157.468 258.321 157.986 258.769 158.924V154.64ZM256.431 164.258C257.915 164.258 258.769 163.152 258.769 161.332C258.769 159.4 257.929 158.308 256.445 158.308C255.059 158.308 254.149 159.372 254.149 161.318C254.149 163.194 255.059 164.258 256.431 164.258ZM261.703 159.512C261.703 158.336 262.809 157.468 264.363 157.468C265.707 157.468 266.743 158.112 267.051 159.092L266.267 159.4C265.973 158.686 265.287 158.308 264.335 158.308C263.299 158.308 262.627 158.742 262.627 159.428C262.627 160.044 263.033 160.422 263.915 160.604L264.895 160.8C266.519 161.122 267.275 161.822 267.275 162.928C267.275 164.216 266.127 165.112 264.475 165.112C262.977 165.112 261.927 164.524 261.423 163.404L262.235 163.068C262.585 163.852 263.355 164.272 264.447 164.272C265.595 164.272 266.351 163.768 266.351 163.012C266.351 162.312 265.959 161.934 264.979 161.724L263.775 161.472C262.417 161.192 261.703 160.506 261.703 159.512ZM275.677 158.364H274.081V158.63C274.445 159.078 274.641 159.638 274.641 160.184C274.641 161.542 273.661 162.928 271.575 162.928H271.253C270.413 162.928 269.811 163.25 269.811 163.74C269.811 164.118 270.105 164.384 270.721 164.384H273.731C274.935 164.384 275.551 164.972 275.551 165.896C275.551 167.366 273.857 168.136 271.771 168.136C269.895 168.136 268.593 167.534 268.145 166.232L268.915 165.882C269.433 167.1 270.525 167.338 271.771 167.338C273.311 167.338 274.599 166.876 274.599 165.98C274.599 165.56 274.375 165.252 273.703 165.252H270.511C269.475 165.252 268.859 164.762 268.859 163.992C268.859 163.334 269.405 162.76 270.315 162.522C269.335 162.13 268.789 161.094 268.789 160.184C268.789 158.854 269.783 157.468 271.743 157.468C272.513 157.468 273.101 157.72 273.549 158.098V157.58H275.677V158.364ZM271.729 162.144C273.045 162.144 273.703 161.234 273.703 160.184C273.703 159.148 273.045 158.28 271.729 158.28C270.399 158.28 269.727 159.162 269.727 160.184C269.727 161.22 270.399 162.144 271.729 162.144ZM276.909 154.696H278.365V156.124H276.909V154.696ZM277.161 165V157.58H278.113V165H277.161ZM285.256 157.58H286.236L283.324 165H282.484L279.572 157.58H280.608L282.932 163.95L285.256 157.58ZM292.483 162.9L293.183 163.292C292.833 164.188 291.909 165.112 290.257 165.112C288.171 165.112 286.939 163.558 286.939 161.192C286.939 159.022 288.227 157.468 290.159 157.468C291.755 157.468 293.127 158.616 293.127 160.632L293.099 161.458H287.905C287.989 163.432 288.927 164.272 290.355 164.272C291.475 164.272 292.133 163.628 292.483 162.9ZM290.159 158.308C289.039 158.308 288.031 158.91 287.905 160.674H292.189C292.231 159.008 291.251 158.308 290.159 158.308ZM297.8 157.468C298.766 157.468 299.466 158.112 299.466 159.372V160.1L298.598 160.268V159.54C298.598 158.798 298.346 158.308 297.59 158.308C296.736 158.308 296.092 158.938 296.092 160.436V165H295.14V157.58H296.092V158.504C296.484 157.804 297.142 157.468 297.8 157.468ZM306.453 165H305.585C305.473 164.594 305.389 164.104 305.389 163.544C305.011 164.412 304.045 165.112 302.841 165.112C301.525 165.112 300.531 164.258 300.531 162.984C300.531 161.458 301.903 160.66 303.429 160.66C304.031 160.66 304.619 160.73 305.221 160.94V159.96C305.221 158.994 304.633 158.336 303.485 158.336C302.561 158.336 301.777 158.742 301.385 159.876L300.545 159.624C301.105 158.056 302.239 157.468 303.541 157.468C305.375 157.468 306.145 158.574 306.145 159.848V162.9C306.145 163.74 306.285 164.496 306.453 165ZM305.221 161.92V161.752C304.647 161.514 304.059 161.444 303.485 161.444C302.365 161.444 301.483 161.948 301.483 162.928C301.483 163.824 302.113 164.3 303.009 164.3C303.975 164.3 305.221 163.726 305.221 161.92ZM313.01 157.58H313.99L311.078 165H310.238L307.326 157.58H308.362L310.686 163.95L313.01 157.58ZM321.682 158.364H320.086V158.63C320.45 159.078 320.646 159.638 320.646 160.184C320.646 161.542 319.666 162.928 317.58 162.928H317.258C316.418 162.928 315.816 163.25 315.816 163.74C315.816 164.118 316.11 164.384 316.726 164.384H319.736C320.94 164.384 321.556 164.972 321.556 165.896C321.556 167.366 319.862 168.136 317.776 168.136C315.9 168.136 314.598 167.534 314.15 166.232L314.92 165.882C315.438 167.1 316.53 167.338 317.776 167.338C319.316 167.338 320.604 166.876 320.604 165.98C320.604 165.56 320.38 165.252 319.708 165.252H316.516C315.48 165.252 314.864 164.762 314.864 163.992C314.864 163.334 315.41 162.76 316.32 162.522C315.34 162.13 314.794 161.094 314.794 160.184C314.794 158.854 315.788 157.468 317.748 157.468C318.518 157.468 319.106 157.72 319.554 158.098V157.58H321.682V158.364ZM317.734 162.144C319.05 162.144 319.708 161.234 319.708 160.184C319.708 159.148 319.05 158.28 317.734 158.28C316.404 158.28 315.732 159.162 315.732 160.184C315.732 161.22 316.404 162.144 317.734 162.144ZM323.643 156.236C323.181 156.236 322.803 155.872 322.803 155.396C322.803 154.92 323.181 154.556 323.643 154.556C324.105 154.556 324.483 154.92 324.483 155.396C324.483 155.872 324.105 156.236 323.643 156.236ZM323.167 165V157.58H324.119V165H323.167ZM328.014 156.544V157.58H330.086V158.364H328.014V165H327.062V158.364H325.662V157.58H327.062V156.544C327.062 155.256 327.902 154.528 329.05 154.528C329.582 154.528 330.198 154.738 330.548 155.298L329.974 155.872C329.75 155.536 329.414 155.34 329.022 155.34C328.532 155.34 328.014 155.634 328.014 156.544ZM333.018 163.152C333.018 164.02 333.536 164.272 333.998 164.272C334.446 164.272 334.74 164.104 335.09 163.74L335.594 164.3C335.104 164.874 334.572 165.112 333.914 165.112C332.906 165.112 332.066 164.44 332.066 163.124V158.364H330.666V157.58H332.066V155.984L333.018 155.424V157.58H335.426V158.364H333.018V163.152ZM337.166 163.432H338.678V165H337.166V163.432Z" fill="#2A2859"/>
<rect x="620" y="94" width="22" height="22" fill="white"/>
<rect x="620" y="94" width="22" height="22" stroke="#2A2859" stroke-width="2"/>
<path d="M665.544 111.16C662.2 111.16 659.768 108.808 659.768 105.032C659.768 101.352 662.344 99 665.368 99C667.4 99 668.968 99.912 669.816 101.672L668.184 102.584C667.656 101.448 666.616 100.792 665.368 100.792C663.48 100.792 661.72 102.12 661.72 105.016C661.72 107.912 663.368 109.448 665.688 109.448C666.712 109.448 667.496 109.24 668.2 108.856V106.04H664.28V104.376H669.848V109.816C668.68 110.712 667.16 111.16 665.544 111.16ZM675.678 111.16C673.47 111.16 671.662 109.432 671.662 106.712C671.662 104.056 673.454 102.328 675.678 102.328C677.902 102.328 679.694 104.056 679.694 106.712C679.694 109.432 677.886 111.16 675.678 111.16ZM675.678 109.64C676.878 109.64 677.854 108.712 677.854 106.712C677.854 104.696 676.862 103.848 675.678 103.848C674.494 103.848 673.502 104.696 673.502 106.712C673.502 108.712 674.494 109.64 675.678 109.64ZM687.2 99.16H688.992V111H687.2V109.464C686.544 110.648 685.52 111.128 684.544 111.128C682.496 111.128 681.024 109.368 681.024 106.792C681.024 104.12 682.512 102.344 684.752 102.344C685.712 102.344 686.672 102.776 687.2 103.816V99.16ZM685.024 109.56C686.32 109.56 687.2 108.68 687.2 106.696C687.2 104.728 686.336 103.784 685.024 103.784C683.792 103.784 682.88 104.776 682.88 106.696C682.88 108.6 683.792 109.56 685.024 109.56ZM693.721 108.376C693.721 109.32 694.297 109.608 694.889 109.608C695.353 109.608 695.721 109.416 696.089 109.048L696.857 110.2C696.217 110.84 695.513 111.144 694.601 111.144C693.129 111.144 691.929 110.248 691.929 108.488V103.912H690.441V102.52H691.929V100.632L693.721 99.816V102.52H696.713V103.912H693.721V108.376ZM706.14 103.912H704.364V104.104C704.652 104.504 704.796 104.968 704.796 105.448C704.796 106.984 703.612 108.52 701.148 108.52H700.732C699.868 108.52 699.308 108.808 699.308 109.32C699.308 109.672 699.58 109.928 700.124 109.928H703.66C705.116 109.928 705.948 110.68 705.948 111.832C705.948 113.576 704.172 114.584 701.34 114.584C698.86 114.584 697.196 113.96 696.764 112.312L698.508 111.976C698.908 113 699.836 113.272 701.388 113.272C703.052 113.272 704.236 112.824 704.236 112.04C704.236 111.672 704.028 111.4 703.452 111.4H699.596C698.268 111.4 697.58 110.68 697.58 109.784C697.58 108.92 698.348 108.232 699.404 108.024C698.236 107.512 697.66 106.424 697.66 105.4C697.66 103.88 698.892 102.328 701.244 102.328C702.284 102.328 703.1 102.696 703.58 103.224V102.52H706.14V103.912ZM701.244 107.224C702.476 107.224 703.052 106.36 703.052 105.432C703.052 104.504 702.476 103.656 701.244 103.656C700.028 103.656 699.436 104.504 699.436 105.432C699.436 106.36 700.028 107.224 701.244 107.224ZM708.709 101.112C708.005 101.112 707.445 100.568 707.445 99.848C707.445 99.128 708.005 98.584 708.709 98.584C709.413 98.584 709.957 99.128 709.957 99.848C709.957 100.568 709.413 101.112 708.709 101.112ZM707.333 114.504C706.933 114.504 706.533 114.456 706.165 114.344L706.309 112.952C706.517 113.016 706.709 113.048 706.885 113.048C707.509 113.048 707.813 112.648 707.813 111.976V102.52H709.605V111.832C709.605 113.512 708.917 114.504 707.333 114.504ZM717.887 103.032C718.959 103.768 719.647 105.064 719.647 106.712C719.647 109.432 717.839 111.16 715.631 111.16C715.071 111.16 714.543 111.048 714.047 110.84L713.551 111.864H712.639L713.343 110.44C712.303 109.688 711.615 108.392 711.615 106.712C711.615 104.056 713.407 102.328 715.631 102.328C716.191 102.328 716.703 102.44 717.183 102.632L717.679 101.64H718.575L717.887 103.032ZM713.455 106.712C713.455 107.704 713.695 108.44 714.095 108.92L716.495 104.024C716.239 103.912 715.935 103.848 715.631 103.848C714.447 103.848 713.455 104.696 713.455 106.712ZM715.631 109.64C716.831 109.64 717.807 108.712 717.807 106.712C717.807 105.704 717.551 104.984 717.167 104.52L714.735 109.448C715.007 109.576 715.311 109.64 715.631 109.64ZM725.393 102.328C726.625 102.328 727.425 103.144 727.425 104.6V105.72L725.985 105.976V105.112C725.985 104.344 725.713 103.816 724.881 103.816C723.969 103.816 723.297 104.424 723.297 106.04V111H721.505V102.52H723.297V103.656C723.777 102.712 724.657 102.328 725.393 102.328ZM734.629 108.328L735.845 109.032C735.365 110.088 734.245 111.144 732.309 111.144C729.797 111.144 728.277 109.288 728.277 106.68C728.277 104.104 729.925 102.328 732.181 102.328C734.181 102.328 735.829 103.672 735.829 106.072L735.797 107.128H730.037C730.133 108.92 731.013 109.688 732.421 109.688C733.461 109.688 734.181 109.128 734.629 108.328ZM732.181 103.736C731.093 103.736 730.181 104.312 730.037 105.848H734.085C734.101 104.344 733.173 103.736 732.181 103.736ZM741.248 110.952C740.912 111.048 740.576 111.096 740.224 111.096C738.608 111.096 737.84 110.136 737.84 108.584V99.16H739.632V108.456C739.632 109.192 740.064 109.528 740.72 109.528C740.88 109.528 741.056 109.512 741.248 109.464V110.952ZM742.489 104.856C742.489 103.416 743.817 102.328 745.817 102.328C747.465 102.328 748.569 102.92 749.161 104.056L747.913 104.824C747.529 104.168 746.761 103.768 745.801 103.768C744.841 103.768 744.185 104.136 744.185 104.744C744.185 105.24 744.521 105.544 745.273 105.688L746.697 105.976C748.489 106.328 749.385 107.176 749.385 108.472C749.385 110.072 747.993 111.144 745.897 111.144C744.121 111.144 742.857 110.472 742.201 109.24L743.449 108.456C743.913 109.24 744.729 109.688 745.849 109.688C746.937 109.688 747.673 109.256 747.673 108.552C747.673 107.976 747.321 107.656 746.537 107.496L744.969 107.192C743.369 106.888 742.489 106.072 742.489 104.856ZM756.858 108.328L758.074 109.032C757.594 110.088 756.474 111.144 754.538 111.144C752.026 111.144 750.506 109.288 750.506 106.68C750.506 104.104 752.154 102.328 754.41 102.328C756.41 102.328 758.058 103.672 758.058 106.072L758.026 107.128H752.266C752.362 108.92 753.242 109.688 754.65 109.688C755.69 109.688 756.41 109.128 756.858 108.328ZM754.41 103.736C753.322 103.736 752.41 104.312 752.266 105.848H756.314C756.33 104.344 755.402 103.736 754.41 103.736ZM769.786 108.328L771.002 109.032C770.522 110.088 769.402 111.144 767.466 111.144C764.954 111.144 763.434 109.288 763.434 106.68C763.434 104.104 765.082 102.328 767.338 102.328C769.338 102.328 770.986 103.672 770.986 106.072L770.954 107.128H765.194C765.29 108.92 766.17 109.688 767.578 109.688C768.618 109.688 769.338 109.128 769.786 108.328ZM767.338 103.736C766.25 103.736 765.338 104.312 765.194 105.848H769.242C769.258 104.344 768.33 103.736 767.338 103.736ZM776.404 110.952C776.068 111.048 775.732 111.096 775.38 111.096C773.764 111.096 772.996 110.136 772.996 108.584V99.16H774.788V108.456C774.788 109.192 775.22 109.528 775.876 109.528C776.036 109.528 776.212 109.512 776.404 109.464V110.952ZM781.501 110.952C781.165 111.048 780.829 111.096 780.477 111.096C778.861 111.096 778.093 110.136 778.093 108.584V99.16H779.885V108.456C779.885 109.192 780.317 109.528 780.973 109.528C781.133 109.528 781.309 109.512 781.501 109.464V110.952ZM788.826 108.328L790.042 109.032C789.562 110.088 788.442 111.144 786.506 111.144C783.994 111.144 782.474 109.288 782.474 106.68C782.474 104.104 784.122 102.328 786.378 102.328C788.378 102.328 790.026 103.672 790.026 106.072L789.994 107.128H784.234C784.33 108.92 785.21 109.688 786.618 109.688C787.658 109.688 788.378 109.128 788.826 108.328ZM786.378 103.736C785.29 103.736 784.378 104.312 784.234 105.848H788.282C788.298 104.344 787.37 103.736 786.378 103.736ZM795.925 102.328C797.157 102.328 797.957 103.144 797.957 104.6V105.72L796.517 105.976V105.112C796.517 104.344 796.245 103.816 795.413 103.816C794.501 103.816 793.829 104.424 793.829 106.04V111H792.037V102.52H793.829V103.656C794.309 102.712 795.189 102.328 795.925 102.328ZM807.123 110.952C806.787 111.048 806.451 111.096 806.099 111.096C804.483 111.096 803.715 110.136 803.715 108.584V99.16H805.507V108.456C805.507 109.192 805.939 109.528 806.595 109.528C806.755 109.528 806.931 109.512 807.123 109.464V110.952ZM814.368 103.032C815.44 103.768 816.128 105.064 816.128 106.712C816.128 109.432 814.32 111.16 812.112 111.16C811.552 111.16 811.024 111.048 810.528 110.84L810.032 111.864H809.12L809.824 110.44C808.784 109.688 808.096 108.392 808.096 106.712C808.096 104.056 809.888 102.328 812.112 102.328C812.672 102.328 813.184 102.44 813.664 102.632L814.16 101.64H815.056L814.368 103.032ZM809.936 106.712C809.936 107.704 810.176 108.44 810.576 108.92L812.976 104.024C812.72 103.912 812.416 103.848 812.112 103.848C810.928 103.848 809.936 104.696 809.936 106.712ZM812.112 109.64C813.312 109.64 814.288 108.712 814.288 106.712C814.288 105.704 814.032 104.984 813.648 104.52L811.216 109.448C811.488 109.576 811.792 109.64 812.112 109.64ZM822.259 102.328C823.987 102.328 825.011 103.448 825.011 105.288V111H823.219V105.576C823.219 104.408 822.659 103.88 821.683 103.88C820.419 103.88 819.779 104.76 819.779 106.408V111H817.987V102.52H819.779V103.736C820.355 102.84 821.203 102.328 822.259 102.328ZM831.684 102.328C833.412 102.328 834.436 103.448 834.436 105.288V111H832.644V105.576C832.644 104.408 832.084 103.88 831.108 103.88C829.844 103.88 829.204 104.76 829.204 106.408V111H827.412V102.52H829.204V103.736C829.78 102.84 830.628 102.328 831.684 102.328ZM843.13 101.752V102.52H845.514V103.912H843.13V111H841.338V103.912H839.85V102.52H841.338V101.832C841.338 99.992 842.538 98.92 844.202 98.92C844.986 98.92 845.77 99.24 846.234 99.816L845.386 101C845.13 100.68 844.746 100.488 844.33 100.488C843.674 100.488 843.13 100.872 843.13 101.752ZM849.925 111.16C847.717 111.16 845.909 109.432 845.909 106.712C845.909 104.056 847.701 102.328 849.925 102.328C852.149 102.328 853.941 104.056 853.941 106.712C853.941 109.432 852.133 111.16 849.925 111.16ZM849.925 109.64C851.125 109.64 852.101 108.712 852.101 106.712C852.101 104.696 851.109 103.848 849.925 103.848C848.741 103.848 847.749 104.696 847.749 106.712C847.749 108.712 848.741 109.64 849.925 109.64ZM859.687 102.328C860.919 102.328 861.719 103.144 861.719 104.6V105.72L860.279 105.976V105.112C860.279 104.344 860.007 103.816 859.175 103.816C858.263 103.816 857.591 104.424 857.591 106.04V111H855.799V102.52H857.591V103.656C858.071 102.712 858.951 102.328 859.687 102.328ZM872.885 102.52H874.741L871.493 111H869.653L866.421 102.52H868.405L870.645 109.128L872.885 102.52ZM881.648 108.328L882.864 109.032C882.384 110.088 881.264 111.144 879.328 111.144C876.816 111.144 875.296 109.288 875.296 106.68C875.296 104.104 876.944 102.328 879.2 102.328C881.2 102.328 882.848 103.672 882.848 106.072L882.816 107.128H877.056C877.152 108.92 878.032 109.688 879.44 109.688C880.48 109.688 881.2 109.128 881.648 108.328ZM879.2 103.736C878.112 103.736 877.2 104.312 877.056 105.848H881.104C881.12 104.344 880.192 103.736 879.2 103.736ZM888.747 102.328C889.979 102.328 890.779 103.144 890.779 104.6V105.72L889.339 105.976V105.112C889.339 104.344 889.067 103.816 888.235 103.816C887.323 103.816 886.651 104.424 886.651 106.04V111H884.859V102.52H886.651V103.656C887.131 102.712 888.011 102.328 888.747 102.328ZM897.629 102.52H899.485L896.237 111H894.397L891.165 102.52H893.149L895.389 109.128L897.629 102.52Z" fill="#2A2859"/>
<path d="M660.184 134.296C660.184 132.312 661.992 131.032 664.088 131.032C666.024 131.032 667.336 131.864 667.928 133.352L666.872 133.784C666.392 132.648 665.32 132.024 664.088 132.024C662.456 132.024 661.304 132.856 661.304 134.168C661.304 135.272 661.96 135.944 663.352 136.216L665.208 136.568C667.032 136.92 668.376 137.896 668.376 139.672C668.376 141.496 666.84 143.128 664.248 143.128C662.2 143.128 660.664 142.424 659.832 140.664L660.856 140.248C661.656 141.816 662.984 142.136 664.28 142.136C666.216 142.136 667.256 141.016 667.256 139.736C667.256 138.312 666.296 137.896 664.856 137.624L663.16 137.304C661.512 137 660.184 136.088 660.184 134.296ZM671.935 140.888C671.935 141.88 672.527 142.168 673.055 142.168C673.567 142.168 673.903 141.976 674.303 141.56L674.879 142.2C674.319 142.856 673.711 143.128 672.959 143.128C671.807 143.128 670.847 142.36 670.847 140.856V135.416H669.247V134.52H670.847V132.696L671.935 132.056V134.52H674.687V135.416H671.935V140.888ZM681.67 134.52H682.79L679.062 144.168C678.502 145.608 677.878 146.52 676.566 146.52C675.99 146.52 675.462 146.312 675.062 145.944L675.542 145.16C675.862 145.448 676.166 145.576 676.534 145.576C677.126 145.576 677.542 145.32 677.958 144.344L678.454 143.144L675.27 134.52H676.454L679.014 141.864L681.67 134.52ZM687.394 134.392C688.498 134.392 689.298 135.128 689.298 136.568V137.4L688.306 137.592V136.76C688.306 135.912 688.018 135.352 687.154 135.352C686.178 135.352 685.442 136.072 685.442 137.784V143H684.354V134.52H685.442V135.576C685.89 134.776 686.642 134.392 687.394 134.392ZM696.556 140.6L697.356 141.048C696.956 142.072 695.9 143.128 694.012 143.128C691.628 143.128 690.22 141.352 690.22 138.648C690.22 136.168 691.692 134.392 693.9 134.392C695.724 134.392 697.292 135.704 697.292 138.008L697.26 138.952H691.324C691.42 141.208 692.492 142.168 694.124 142.168C695.404 142.168 696.156 141.432 696.556 140.6ZM693.9 135.352C692.62 135.352 691.468 136.04 691.324 138.056H696.22C696.268 136.152 695.148 135.352 693.9 135.352ZM702.976 134.392C704.672 134.392 705.664 135.432 705.664 137.336V143H704.576V137.496C704.576 135.96 703.872 135.384 702.688 135.384C701.2 135.384 700.512 136.536 700.512 138.232V143H699.424V131.16H700.512V135.832C701.024 134.904 701.952 134.392 702.976 134.392ZM711.314 143.128C709.218 143.128 707.538 141.4 707.538 138.744C707.538 136.12 709.202 134.392 711.314 134.392C713.426 134.392 715.09 136.12 715.09 138.744C715.09 141.4 713.41 143.128 711.314 143.128ZM711.314 142.168C712.77 142.168 713.97 141.016 713.97 138.744C713.97 136.488 712.754 135.352 711.314 135.352C709.874 135.352 708.658 136.488 708.658 138.744C708.658 141.016 709.858 142.168 711.314 142.168ZM720.653 134.392C722.349 134.392 723.341 135.432 723.341 137.336V143H722.253V137.496C722.253 135.96 721.549 135.384 720.365 135.384C718.877 135.384 718.189 136.536 718.189 138.232V143H717.101V134.52H718.189V135.832C718.701 134.904 719.629 134.392 720.653 134.392ZM728.992 143.128C726.896 143.128 725.216 141.4 725.216 138.744C725.216 136.12 726.88 134.392 728.992 134.392C731.104 134.392 732.768 136.12 732.768 138.744C732.768 141.4 731.088 143.128 728.992 143.128ZM728.992 142.168C730.448 142.168 731.648 141.016 731.648 138.744C731.648 136.488 730.432 135.352 728.992 135.352C727.552 135.352 726.336 136.488 726.336 138.744C726.336 141.016 727.536 142.168 728.992 142.168ZM737.819 134.392C738.923 134.392 739.723 135.128 739.723 136.568V137.4L738.731 137.592V136.76C738.731 135.912 738.443 135.352 737.579 135.352C736.603 135.352 735.867 136.072 735.867 137.784V143H734.779V134.52H735.867V135.576C736.315 134.776 737.067 134.392 737.819 134.392ZM747.509 143H746.517C746.389 142.536 746.293 141.976 746.293 141.336C745.861 142.328 744.757 143.128 743.381 143.128C741.877 143.128 740.741 142.152 740.741 140.696C740.741 138.952 742.309 138.04 744.053 138.04C744.741 138.04 745.413 138.12 746.101 138.36V137.24C746.101 136.136 745.429 135.384 744.117 135.384C743.061 135.384 742.164 135.848 741.717 137.144L740.757 136.856C741.397 135.064 742.693 134.392 744.181 134.392C746.277 134.392 747.157 135.656 747.157 137.112V140.6C747.157 141.56 747.317 142.424 747.509 143ZM746.101 139.48V139.288C745.445 139.016 744.773 138.936 744.117 138.936C742.837 138.936 741.829 139.512 741.829 140.632C741.829 141.656 742.549 142.2 743.573 142.2C744.677 142.2 746.101 141.544 746.101 139.48ZM752.747 134.392C753.851 134.392 754.651 135.128 754.651 136.568V137.4L753.659 137.592V136.76C753.659 135.912 753.371 135.352 752.507 135.352C751.531 135.352 750.795 136.072 750.795 137.784V143H749.707V134.52H750.795V135.576C751.243 134.776 751.995 134.392 752.747 134.392ZM763.535 134.392C764.639 134.392 765.439 135.128 765.439 136.568V137.4L764.447 137.592V136.76C764.447 135.912 764.159 135.352 763.295 135.352C762.319 135.352 761.583 136.072 761.583 137.784V143H760.495V134.52H761.583V135.576C762.031 134.776 762.783 134.392 763.535 134.392ZM773.224 143H772.232C772.104 142.536 772.008 141.976 772.008 141.336C771.576 142.328 770.472 143.128 769.096 143.128C767.592 143.128 766.456 142.152 766.456 140.696C766.456 138.952 768.024 138.04 769.768 138.04C770.456 138.04 771.128 138.12 771.816 138.36V137.24C771.816 136.136 771.144 135.384 769.832 135.384C768.776 135.384 767.88 135.848 767.432 137.144L766.472 136.856C767.112 135.064 768.408 134.392 769.896 134.392C771.992 134.392 772.872 135.656 772.872 137.112V140.6C772.872 141.56 773.032 142.424 773.224 143ZM771.816 139.48V139.288C771.16 139.016 770.488 138.936 769.832 138.936C768.552 138.936 767.544 139.512 767.544 140.632C767.544 141.656 768.264 142.2 769.288 142.2C770.392 142.2 771.816 141.544 771.816 139.48ZM779.295 134.408C781.455 134.408 782.911 136.216 782.911 138.68C782.911 141.288 781.439 143.128 779.167 143.128C777.983 143.128 777.023 142.536 776.511 141.464V146.36H775.423V134.52H776.511V136.104C777.071 135.016 778.191 134.408 779.295 134.408ZM779.167 142.168C780.751 142.168 781.791 140.952 781.791 138.728C781.791 136.584 780.751 135.368 779.183 135.368C777.487 135.368 776.511 136.632 776.511 138.712C776.511 140.92 777.471 142.168 779.167 142.168ZM788.798 134.408C790.958 134.408 792.414 136.216 792.414 138.68C792.414 141.288 790.942 143.128 788.67 143.128C787.486 143.128 786.526 142.536 786.014 141.464V146.36H784.926V134.52H786.014V136.104C786.574 135.016 787.694 134.408 788.798 134.408ZM788.67 142.168C790.254 142.168 791.294 140.952 791.294 138.728C791.294 136.584 790.254 135.368 788.686 135.368C786.99 135.368 786.014 136.632 786.014 138.712C786.014 140.92 786.974 142.168 788.67 142.168ZM797.661 143.128C795.565 143.128 793.885 141.4 793.885 138.744C793.885 136.12 795.549 134.392 797.661 134.392C799.773 134.392 801.437 136.12 801.437 138.744C801.437 141.4 799.757 143.128 797.661 143.128ZM797.661 142.168C799.117 142.168 800.317 141.016 800.317 138.744C800.317 136.488 799.101 135.352 797.661 135.352C796.221 135.352 795.005 136.488 795.005 138.744C795.005 141.016 796.205 142.168 797.661 142.168ZM806.488 134.392C807.592 134.392 808.392 135.128 808.392 136.568V137.4L807.4 137.592V136.76C807.4 135.912 807.112 135.352 806.248 135.352C805.272 135.352 804.536 136.072 804.536 137.784V143H803.448V134.52H804.536V135.576C804.984 134.776 805.736 134.392 806.488 134.392ZM811.881 140.888C811.881 141.88 812.473 142.168 813.001 142.168C813.513 142.168 813.849 141.976 814.249 141.56L814.825 142.2C814.265 142.856 813.657 143.128 812.905 143.128C811.753 143.128 810.793 142.36 810.793 140.856V135.416H809.193V134.52H810.793V132.696L811.881 132.056V134.52H814.633V135.416H811.881V140.888ZM821.793 140.6L822.593 141.048C822.193 142.072 821.137 143.128 819.249 143.128C816.865 143.128 815.457 141.352 815.457 138.648C815.457 136.168 816.929 134.392 819.137 134.392C820.961 134.392 822.529 135.704 822.529 138.008L822.497 138.952H816.561C816.657 141.208 817.729 142.168 819.361 142.168C820.641 142.168 821.393 141.432 821.793 140.6ZM819.137 135.352C817.857 135.352 816.705 136.04 816.561 138.056H821.457C821.505 136.152 820.385 135.352 819.137 135.352ZM827.669 134.392C828.773 134.392 829.573 135.128 829.573 136.568V137.4L828.581 137.592V136.76C828.581 135.912 828.293 135.352 827.429 135.352C826.453 135.352 825.717 136.072 825.717 137.784V143H824.629V134.52H825.717V135.576C826.165 134.776 826.917 134.392 827.669 134.392ZM830.794 136.728C830.794 135.384 832.058 134.392 833.834 134.392C835.37 134.392 836.554 135.128 836.906 136.248L836.01 136.6C835.674 135.784 834.89 135.352 833.802 135.352C832.618 135.352 831.85 135.848 831.85 136.632C831.85 137.336 832.314 137.768 833.322 137.976L834.442 138.2C836.298 138.568 837.162 139.368 837.162 140.632C837.162 142.104 835.85 143.128 833.962 143.128C832.25 143.128 831.05 142.456 830.474 141.176L831.402 140.792C831.802 141.688 832.682 142.168 833.93 142.168C835.242 142.168 836.106 141.592 836.106 140.728C836.106 139.928 835.658 139.496 834.538 139.256L833.162 138.968C831.61 138.648 830.794 137.864 830.794 136.728ZM851.446 134.392C853.062 134.392 854.006 135.416 854.006 137.176V143H852.918V137.336C852.918 135.96 852.262 135.384 851.158 135.384C849.67 135.384 849.046 136.536 849.046 138.232V143H847.958V137.336C847.958 135.96 847.302 135.384 846.198 135.384C844.71 135.384 844.086 136.536 844.086 138.232V143H842.998V134.52H844.086V135.848C844.598 134.904 845.494 134.392 846.486 134.392C847.75 134.392 848.598 135.016 848.902 136.12C849.382 135 850.358 134.392 851.446 134.392ZM862.215 140.6L863.015 141.048C862.615 142.072 861.559 143.128 859.671 143.128C857.287 143.128 855.879 141.352 855.879 138.648C855.879 136.168 857.351 134.392 859.559 134.392C861.383 134.392 862.951 135.704 862.951 138.008L862.919 138.952H856.983C857.079 141.208 858.151 142.168 859.783 142.168C861.063 142.168 861.815 141.432 862.215 140.6ZM859.559 135.352C858.279 135.352 857.127 136.04 856.983 138.056H861.879C861.927 136.152 860.807 135.352 859.559 135.352ZM870.907 131.16H871.995V143H870.907V141.416C870.347 142.504 869.227 143.112 868.123 143.112C865.963 143.112 864.507 141.304 864.507 138.84C864.507 136.232 865.979 134.392 868.251 134.392C869.435 134.392 870.395 134.984 870.907 136.056V131.16ZM868.235 142.152C869.931 142.152 870.907 140.888 870.907 138.808C870.907 136.6 869.947 135.352 868.251 135.352C866.667 135.352 865.627 136.568 865.627 138.792C865.627 140.936 866.667 142.152 868.235 142.152ZM877.954 136.728C877.954 135.384 879.218 134.392 880.994 134.392C882.53 134.392 883.714 135.128 884.066 136.248L883.17 136.6C882.834 135.784 882.05 135.352 880.962 135.352C879.778 135.352 879.01 135.848 879.01 136.632C879.01 137.336 879.474 137.768 880.482 137.976L881.602 138.2C883.458 138.568 884.322 139.368 884.322 140.632C884.322 142.104 883.01 143.128 881.122 143.128C879.41 143.128 878.21 142.456 877.634 141.176L878.562 140.792C878.962 141.688 879.842 142.168 881.09 142.168C882.402 142.168 883.266 141.592 883.266 140.728C883.266 139.928 882.818 139.496 881.698 139.256L880.322 138.968C878.77 138.648 877.954 137.864 877.954 136.728ZM891.543 143L888.423 138.792L887.383 139.784V143H886.295V131.16H887.383V138.504L891.415 134.52H892.855L889.159 138.072L892.919 143H891.543ZM900.227 143H899.235C899.107 142.536 899.011 141.976 899.011 141.336C898.579 142.328 897.475 143.128 896.099 143.128C894.595 143.128 893.459 142.152 893.459 140.696C893.459 138.952 895.027 138.04 896.771 138.04C897.459 138.04 898.131 138.12 898.819 138.36V137.24C898.819 136.136 898.147 135.384 896.835 135.384C895.779 135.384 894.883 135.848 894.435 137.144L893.475 136.856C894.115 135.064 895.411 134.392 896.899 134.392C898.995 134.392 899.875 135.656 899.875 137.112V140.6C899.875 141.56 900.035 142.424 900.227 143ZM898.819 139.48V139.288C898.163 139.016 897.491 138.936 896.835 138.936C895.555 138.936 894.547 139.512 894.547 140.632C894.547 141.656 895.267 142.2 896.291 142.2C897.395 142.2 898.819 141.544 898.819 139.48ZM903.966 140.888C903.966 141.88 904.558 142.168 905.086 142.168C905.598 142.168 905.934 141.976 906.334 141.56L906.91 142.2C906.35 142.856 905.742 143.128 904.99 143.128C903.838 143.128 902.878 142.36 902.878 140.856V135.416H901.278V134.52H902.878V132.696L903.966 132.056V134.52H906.718V135.416H903.966V140.888ZM909.953 140.888C909.953 141.88 910.545 142.168 911.073 142.168C911.585 142.168 911.921 141.976 912.321 141.56L912.897 142.2C912.337 142.856 911.729 143.128 910.977 143.128C909.825 143.128 908.865 142.36 908.865 140.856V135.416H907.265V134.52H908.865V132.696L909.953 132.056V134.52H912.705V135.416H909.953V140.888ZM919.865 140.6L920.665 141.048C920.265 142.072 919.209 143.128 917.321 143.128C914.937 143.128 913.529 141.352 913.529 138.648C913.529 136.168 915.001 134.392 917.209 134.392C919.033 134.392 920.601 135.704 920.601 138.008L920.569 138.952H914.633C914.729 141.208 915.801 142.168 917.433 142.168C918.713 142.168 919.465 141.432 919.865 140.6ZM917.209 135.352C915.929 135.352 914.777 136.04 914.633 138.056H919.529C919.577 136.152 918.457 135.352 917.209 135.352ZM924.241 140.888C924.241 141.88 924.833 142.168 925.361 142.168C925.873 142.168 926.209 141.976 926.609 141.56L927.185 142.2C926.625 142.856 926.017 143.128 925.265 143.128C924.113 143.128 923.153 142.36 923.153 140.856V135.416H921.553V134.52H923.153V132.696L924.241 132.056V134.52H926.993V135.416H924.241V140.888ZM931.885 134.392C932.989 134.392 933.789 135.128 933.789 136.568V137.4L932.797 137.592V136.76C932.797 135.912 932.509 135.352 931.645 135.352C930.669 135.352 929.933 136.072 929.933 137.784V143H928.845V134.52H929.933V135.576C930.381 134.776 931.133 134.392 931.885 134.392ZM941.046 140.6L941.846 141.048C941.446 142.072 940.39 143.128 938.502 143.128C936.118 143.128 934.71 141.352 934.71 138.648C934.71 136.168 936.182 134.392 938.39 134.392C940.214 134.392 941.782 135.704 941.782 138.008L941.75 138.952H935.814C935.91 141.208 936.982 142.168 938.614 142.168C939.894 142.168 940.646 141.432 941.046 140.6ZM938.39 135.352C937.11 135.352 935.958 136.04 935.814 138.056H940.71C940.758 136.152 939.638 135.352 938.39 135.352ZM949.162 143L946.042 138.792L945.002 139.784V143H943.914V131.16H945.002V138.504L949.034 134.52H950.474L946.778 138.072L950.538 143H949.162ZM957.447 143L954.327 138.792L953.287 139.784V143H952.199V131.16H953.287V138.504L957.319 134.52H958.759L955.063 138.072L958.823 143H957.447ZM967.577 143.128C965.481 143.128 963.801 141.4 963.801 138.744C963.801 136.12 965.465 134.392 967.577 134.392C969.689 134.392 971.353 136.12 971.353 138.744C971.353 141.4 969.673 143.128 967.577 143.128ZM967.577 142.168C969.033 142.168 970.233 141.016 970.233 138.744C970.233 136.488 969.017 135.352 967.577 135.352C966.137 135.352 964.921 136.488 964.921 138.744C964.921 141.016 966.121 142.168 967.577 142.168ZM980.495 135.416H978.671V135.72C979.087 136.232 979.311 136.872 979.311 137.496C979.311 139.048 978.191 140.632 975.807 140.632H975.439C974.479 140.632 973.791 141 973.791 141.56C973.791 141.992 974.127 142.296 974.831 142.296H978.271C979.647 142.296 980.351 142.968 980.351 144.024C980.351 145.704 978.415 146.584 976.031 146.584C973.887 146.584 972.399 145.896 971.887 144.408L972.767 144.008C973.359 145.4 974.607 145.672 976.031 145.672C977.791 145.672 979.263 145.144 979.263 144.12C979.263 143.64 979.007 143.288 978.239 143.288H974.591C973.407 143.288 972.703 142.728 972.703 141.848C972.703 141.096 973.327 140.44 974.367 140.168C973.247 139.72 972.623 138.536 972.623 137.496C972.623 135.976 973.759 134.392 975.999 134.392C976.879 134.392 977.551 134.68 978.063 135.112V134.52H980.495V135.416ZM975.983 139.736C977.487 139.736 978.239 138.696 978.239 137.496C978.239 136.312 977.487 135.32 975.983 135.32C974.463 135.32 973.695 136.328 973.695 137.496C973.695 138.68 974.463 139.736 975.983 139.736ZM666.696 167H665.704C665.576 166.536 665.48 165.976 665.48 165.336C665.048 166.328 663.944 167.128 662.568 167.128C661.064 167.128 659.928 166.152 659.928 164.696C659.928 162.952 661.496 162.04 663.24 162.04C663.928 162.04 664.6 162.12 665.288 162.36V161.24C665.288 160.136 664.616 159.384 663.304 159.384C662.248 159.384 661.352 159.848 660.904 161.144L659.944 160.856C660.584 159.064 661.88 158.392 663.368 158.392C665.464 158.392 666.344 159.656 666.344 161.112V164.6C666.344 165.56 666.504 166.424 666.696 167ZM665.288 163.48V163.288C664.632 163.016 663.96 162.936 663.304 162.936C662.024 162.936 661.016 163.512 661.016 164.632C661.016 165.656 661.736 166.2 662.76 166.2C663.864 166.2 665.288 165.544 665.288 163.48ZM671.935 158.392C673.039 158.392 673.839 159.128 673.839 160.568V161.4L672.847 161.592V160.76C672.847 159.912 672.559 159.352 671.695 159.352C670.719 159.352 669.983 160.072 669.983 161.784V167H668.895V158.52H669.983V159.576C670.431 158.776 671.183 158.392 671.935 158.392ZM679.693 158.408C681.853 158.408 683.309 160.216 683.309 162.68C683.309 165.288 681.837 167.128 679.565 167.128C678.381 167.128 677.421 166.536 676.909 165.464V167H675.821V155.16H676.909V160.104C677.469 159.016 678.589 158.408 679.693 158.408ZM679.565 166.168C681.149 166.168 682.189 164.952 682.189 162.728C682.189 160.584 681.149 159.368 679.581 159.368C677.885 159.368 676.909 160.632 676.909 162.712C676.909 164.92 677.869 166.168 679.565 166.168ZM691.115 164.6L691.915 165.048C691.515 166.072 690.459 167.128 688.571 167.128C686.187 167.128 684.779 165.352 684.779 162.648C684.779 160.168 686.251 158.392 688.459 158.392C690.283 158.392 691.851 159.704 691.851 162.008L691.819 162.952H685.883C685.979 165.208 687.051 166.168 688.683 166.168C689.963 166.168 690.715 165.432 691.115 164.6ZM688.459 159.352C687.179 159.352 686.027 160.04 685.883 162.056H690.779C690.827 160.152 689.707 159.352 688.459 159.352ZM694.495 156.984C693.967 156.984 693.535 156.568 693.535 156.024C693.535 155.48 693.967 155.064 694.495 155.064C695.023 155.064 695.455 155.48 695.455 156.024C695.455 156.568 695.023 156.984 694.495 156.984ZM693.951 167V158.52H695.039V167H693.951ZM703.451 155.16H704.539V167H703.451V165.416C702.891 166.504 701.771 167.112 700.667 167.112C698.507 167.112 697.051 165.304 697.051 162.84C697.051 160.232 698.523 158.392 700.795 158.392C701.979 158.392 702.939 158.984 703.451 160.056V155.16ZM700.779 166.152C702.475 166.152 703.451 164.888 703.451 162.808C703.451 160.6 702.491 159.352 700.795 159.352C699.211 159.352 698.171 160.568 698.171 162.792C698.171 164.936 699.211 166.152 700.779 166.152ZM706.604 160.728C706.604 159.384 707.868 158.392 709.644 158.392C711.18 158.392 712.364 159.128 712.716 160.248L711.82 160.6C711.484 159.784 710.7 159.352 709.612 159.352C708.428 159.352 707.66 159.848 707.66 160.632C707.66 161.336 708.124 161.768 709.132 161.976L710.252 162.2C712.108 162.568 712.972 163.368 712.972 164.632C712.972 166.104 711.66 167.128 709.772 167.128C708.06 167.128 706.86 166.456 706.284 165.176L707.212 164.792C707.612 165.688 708.492 166.168 709.74 166.168C711.052 166.168 711.916 165.592 711.916 164.728C711.916 163.928 711.468 163.496 710.348 163.256L708.972 162.968C707.42 162.648 706.604 161.864 706.604 160.728ZM722.373 159.416H720.549V159.72C720.965 160.232 721.189 160.872 721.189 161.496C721.189 163.048 720.069 164.632 717.685 164.632H717.317C716.357 164.632 715.669 165 715.669 165.56C715.669 165.992 716.005 166.296 716.709 166.296H720.149C721.525 166.296 722.229 166.968 722.229 168.024C722.229 169.704 720.293 170.584 717.909 170.584C715.765 170.584 714.277 169.896 713.765 168.408L714.645 168.008C715.237 169.4 716.485 169.672 717.909 169.672C719.669 169.672 721.141 169.144 721.141 168.12C721.141 167.64 720.885 167.288 720.117 167.288H716.469C715.285 167.288 714.581 166.728 714.581 165.848C714.581 165.096 715.205 164.44 716.245 164.168C715.125 163.72 714.501 162.536 714.501 161.496C714.501 159.976 715.637 158.392 717.877 158.392C718.757 158.392 719.429 158.68 719.941 159.112V158.52H722.373V159.416ZM717.861 163.736C719.365 163.736 720.117 162.696 720.117 161.496C720.117 160.312 719.365 159.32 717.861 159.32C716.341 159.32 715.573 160.328 715.573 161.496C715.573 162.68 716.341 163.736 717.861 163.736ZM723.582 155.224H725.246V156.856H723.582V155.224ZM723.87 167V158.52H724.958V167H723.87ZM732.921 158.52H734.041L730.713 167H729.753L726.425 158.52H727.609L730.265 165.8L732.921 158.52ZM740.981 164.6L741.781 165.048C741.381 166.072 740.325 167.128 738.437 167.128C736.053 167.128 734.645 165.352 734.645 162.648C734.645 160.168 736.117 158.392 738.325 158.392C740.149 158.392 741.717 159.704 741.717 162.008L741.685 162.952H735.749C735.845 165.208 736.917 166.168 738.549 166.168C739.829 166.168 740.581 165.432 740.981 164.6ZM738.325 159.352C737.045 159.352 735.893 160.04 735.749 162.056H740.645C740.693 160.152 739.573 159.352 738.325 159.352ZM746.857 158.392C747.961 158.392 748.761 159.128 748.761 160.568V161.4L747.769 161.592V160.76C747.769 159.912 747.481 159.352 746.617 159.352C745.641 159.352 744.905 160.072 744.905 161.784V167H743.817V158.52H744.905V159.576C745.353 158.776 746.105 158.392 746.857 158.392ZM756.546 167H755.554C755.426 166.536 755.33 165.976 755.33 165.336C754.898 166.328 753.794 167.128 752.418 167.128C750.914 167.128 749.778 166.152 749.778 164.696C749.778 162.952 751.346 162.04 753.09 162.04C753.778 162.04 754.45 162.12 755.138 162.36V161.24C755.138 160.136 754.466 159.384 753.154 159.384C752.098 159.384 751.202 159.848 750.754 161.144L749.794 160.856C750.434 159.064 751.73 158.392 753.218 158.392C755.314 158.392 756.194 159.656 756.194 161.112V164.6C756.194 165.56 756.354 166.424 756.546 167ZM755.138 163.48V163.288C754.482 163.016 753.81 162.936 753.154 162.936C751.874 162.936 750.866 163.512 750.866 164.632C750.866 165.656 751.586 166.2 752.61 166.2C753.714 166.2 755.138 165.544 755.138 163.48ZM763.84 158.52H764.96L761.632 167H760.672L757.344 158.52H758.528L761.184 165.8L763.84 158.52ZM773.551 159.416H771.727V159.72C772.143 160.232 772.367 160.872 772.367 161.496C772.367 163.048 771.247 164.632 768.863 164.632H768.495C767.535 164.632 766.847 165 766.847 165.56C766.847 165.992 767.183 166.296 767.887 166.296H771.327C772.703 166.296 773.407 166.968 773.407 168.024C773.407 169.704 771.471 170.584 769.087 170.584C766.943 170.584 765.455 169.896 764.943 168.408L765.823 168.008C766.415 169.4 767.663 169.672 769.087 169.672C770.847 169.672 772.319 169.144 772.319 168.12C772.319 167.64 772.063 167.288 771.295 167.288H767.647C766.463 167.288 765.759 166.728 765.759 165.848C765.759 165.096 766.383 164.44 767.423 164.168C766.303 163.72 765.679 162.536 765.679 161.496C765.679 159.976 766.815 158.392 769.055 158.392C769.935 158.392 770.607 158.68 771.119 159.112V158.52H773.551V159.416ZM769.039 163.736C770.543 163.736 771.295 162.696 771.295 161.496C771.295 160.312 770.543 159.32 769.039 159.32C767.519 159.32 766.751 160.328 766.751 161.496C766.751 162.68 767.519 163.736 769.039 163.736ZM775.592 156.984C775.064 156.984 774.632 156.568 774.632 156.024C774.632 155.48 775.064 155.064 775.592 155.064C776.12 155.064 776.552 155.48 776.552 156.024C776.552 156.568 776.12 156.984 775.592 156.984ZM775.048 167V158.52H776.136V167H775.048ZM780.388 157.336V158.52H782.756V159.416H780.388V167H779.3V159.416H777.7V158.52H779.3V157.336C779.3 155.864 780.26 155.032 781.572 155.032C782.18 155.032 782.884 155.272 783.284 155.912L782.628 156.568C782.372 156.184 781.988 155.96 781.54 155.96C780.98 155.96 780.388 156.296 780.388 157.336ZM785.906 164.888C785.906 165.88 786.498 166.168 787.026 166.168C787.538 166.168 787.874 165.976 788.274 165.56L788.85 166.2C788.29 166.856 787.682 167.128 786.93 167.128C785.778 167.128 784.818 166.36 784.818 164.856V159.416H783.218V158.52H784.818V156.696L785.906 156.056V158.52H788.658V159.416H785.906V164.888ZM790.446 165.208H792.174V167H790.446V165.208Z" fill="#2A2859"/>
<rect x="604" y="78" width="398" height="110" stroke="#F2F2F2" stroke-width="2"/>
</svg>
