<svg width="1116" height="326" viewBox="0 0 1116 326" fill="none" xmlns="http://www.w3.org/2000/svg">
<g clip-path="url(#clip0_5855_4969)">
<rect width="1116" height="326" fill="white"/>
<mask id="path-1-inside-1_5855_4969" fill="white">
<path d="M0 55H552V326H0V55Z"/>
</mask>
<path d="M0 55H552V326H0V55Z" fill="white"/>
<path d="M552 326V327H553V326H552ZM0 326H-1V327H0V326ZM551 55V326H553V55H551ZM552 325H0V327H552V325ZM1 326V55H-1V326H1Z" fill="#E6E6E6" mask="url(#path-1-inside-1_5855_4969)"/>
<mask id="path-3-inside-2_5855_4969" fill="white">
<path d="M563 55H1116V326H563V55Z"/>
</mask>
<path d="M563 55H1116V326H563V55Z" fill="white"/>
<path d="M1116 326V327H1117V326H1116ZM563 326H562V327H563V326ZM1115 55V326H1117V55H1115ZM1116 325H563V327H1116V325ZM564 326V55H562V326H564Z" fill="#E6E6E6" mask="url(#path-3-inside-2_5855_4969)"/>
<rect x="0.5" y="0.5" width="550.12" height="53.97" stroke="#E6E6E6"/>
<rect x="563.575" y="0.5" width="551.316" height="53.97" stroke="#E6E6E6"/>
<path d="M0 43.9761H551.12V54.9701H0V43.9761Z" fill="#C7F6C9"/>
<path opacity="0.6" d="M563 43.9761H1115.32V54.9701H563V43.9761Z" fill="#FF8274"/>
<path d="M23.1211 28.144C19.8731 28.144 17.5211 25.776 17.5211 22.016C17.5211 18.368 20.0011 16.016 22.9931 16.016C25.0571 16.016 26.5611 16.96 27.3131 18.64L26.0491 19.296C25.4731 18.048 24.3211 17.376 22.9771 17.376C20.8331 17.376 19.0091 18.896 19.0091 22.016C19.0091 25.136 20.7371 26.848 23.2011 26.848C24.4011 26.848 25.2651 26.608 26.0651 26.144V22.896H21.8891V21.6H27.3451V26.8C26.2891 27.68 24.7051 28.144 23.1211 28.144ZM30.4281 18.032C29.8201 18.032 29.3401 17.568 29.3401 16.944C29.3401 16.336 29.8201 15.872 30.4281 15.872C31.0201 15.872 31.5001 16.336 31.5001 16.944C31.5001 17.568 31.0201 18.032 30.4281 18.032ZM29.1001 31.488C28.7801 31.488 28.4441 31.44 28.1401 31.344L28.2521 30.208C28.4761 30.288 28.6681 30.304 28.8281 30.304C29.5321 30.304 29.7401 29.84 29.7401 29.12V19.52H31.1161V29.104C31.1161 30.64 30.4601 31.488 29.1001 31.488ZM39.2179 20.096C40.2259 20.832 40.8659 22.112 40.8659 23.728C40.8659 26.416 39.1219 28.144 36.9939 28.144C36.4179 28.144 35.8579 28.016 35.3619 27.776L34.8499 28.8H34.0179L34.7219 27.392C33.7459 26.64 33.1059 25.36 33.1059 23.728C33.1059 21.088 34.8339 19.36 36.9939 19.36C37.5699 19.36 38.1139 19.488 38.5939 19.712L39.1059 18.704H39.9219L39.2179 20.096ZM34.5299 23.728C34.5299 24.864 34.8339 25.696 35.3139 26.224L38.0499 20.8C37.7299 20.64 37.3619 20.56 36.9939 20.56C35.6499 20.56 34.5299 21.568 34.5299 23.728ZM36.9939 26.944C38.3379 26.944 39.4419 25.888 39.4419 23.728C39.4419 22.592 39.1379 21.776 38.6419 21.248L35.9059 26.688C36.2419 26.864 36.6099 26.944 36.9939 26.944ZM46.2012 19.36C47.3532 19.36 48.1532 20.128 48.1532 21.584V22.528L46.9692 22.752V21.904C46.9692 21.088 46.6972 20.544 45.8492 20.544C44.8892 20.544 44.1852 21.216 44.1852 22.896V28H42.8092V19.52H44.1852V20.608C44.6492 19.744 45.4492 19.36 46.2012 19.36ZM53.5241 21.776C53.5241 20.4 54.8201 19.36 56.6921 19.36C58.2601 19.36 59.4121 20.048 59.8601 21.168L58.8201 21.696C58.4681 20.944 57.7001 20.528 56.6601 20.528C55.5721 20.528 54.8521 20.96 54.8521 21.68C54.8521 22.304 55.2521 22.672 56.1641 22.864L57.3961 23.104C59.2361 23.472 60.1161 24.288 60.1161 25.568C60.1161 27.088 58.7721 28.128 56.7881 28.128C55.0601 28.128 53.8281 27.456 53.2201 26.208L54.2761 25.648C54.7081 26.512 55.5561 26.976 56.7561 26.976C57.9721 26.976 58.7881 26.448 58.7881 25.648C58.7881 24.944 58.3721 24.56 57.3961 24.352L55.9401 24.064C54.3721 23.744 53.5241 22.944 53.5241 21.776ZM64.9505 27.968C64.6625 28.032 64.4065 28.08 64.1185 28.08C62.6785 28.08 61.9905 27.2 61.9905 25.824V16.16H63.3665V25.76C63.3665 26.496 63.7665 26.848 64.4385 26.848C64.5985 26.848 64.7745 26.832 64.9505 26.784V27.968ZM66.472 16.064H68.36V17.92H66.472V16.064ZM66.728 28V19.52H68.104V28H66.728ZM75.965 28L73.053 23.92L72.045 24.912V28H70.669V16.16H72.045V23.328L75.837 19.52H77.581L73.981 23.024L77.645 28H75.965Z" fill="#2A2859"/>
<path d="M586.002 28V16.16H587.426V28H586.002ZM595.269 28L592.357 23.92L591.349 24.912V28H589.973V16.16H591.349V23.328L595.141 19.52H596.885L593.285 23.024L596.949 28H595.269ZM603.85 28L600.938 23.92L599.93 24.912V28H598.554V16.16H599.93V23.328L603.722 19.52H605.466L601.866 23.024L605.53 28H603.85ZM612.287 25.488L613.263 26.032C612.815 27.088 611.743 28.144 609.839 28.144C607.391 28.144 605.935 26.32 605.935 23.664C605.935 21.136 607.487 19.36 609.711 19.36C611.599 19.36 613.215 20.688 613.215 23.04L613.183 24.016H607.311C607.407 26.096 608.415 26.976 609.951 26.976C611.119 26.976 611.871 26.304 612.287 25.488ZM609.711 20.512C608.511 20.512 607.471 21.136 607.311 22.944H611.871C611.887 21.232 610.847 20.512 609.711 20.512ZM618.725 21.776C618.725 20.4 620.021 19.36 621.893 19.36C623.461 19.36 624.613 20.048 625.061 21.168L624.021 21.696C623.669 20.944 622.901 20.528 621.861 20.528C620.773 20.528 620.053 20.96 620.053 21.68C620.053 22.304 620.453 22.672 621.365 22.864L622.597 23.104C624.437 23.472 625.317 24.288 625.317 25.568C625.317 27.088 623.973 28.128 621.989 28.128C620.261 28.128 619.029 27.456 618.421 26.208L619.477 25.648C619.909 26.512 620.757 26.976 621.957 26.976C623.173 26.976 623.989 26.448 623.989 25.648C623.989 24.944 623.573 24.56 622.597 24.352L621.141 24.064C619.573 23.744 618.725 22.944 618.725 21.776ZM630.151 27.968C629.863 28.032 629.607 28.08 629.319 28.08C627.879 28.08 627.191 27.2 627.191 25.824V16.16H628.567V25.76C628.567 26.496 628.967 26.848 629.639 26.848C629.799 26.848 629.975 26.832 630.151 26.784V27.968ZM632.617 18.032C632.009 18.032 631.529 17.568 631.529 16.944C631.529 16.336 632.009 15.872 632.617 15.872C633.209 15.872 633.689 16.336 633.689 16.944C633.689 17.568 633.209 18.032 632.617 18.032ZM631.929 28V19.52H633.305V28H631.929ZM641.166 28L638.254 23.92L637.246 24.912V28H635.87V16.16H637.246V23.328L641.038 19.52H642.782L639.182 23.024L642.846 28H641.166Z" fill="#2A2859"/>
<path d="M648.342 133.68H650.448V147H648.342V141.312H642.672V147H640.566V133.68H642.672V139.278H648.342V133.68ZM660.952 147H659.098C658.954 146.514 658.864 145.938 658.828 145.2C658.378 146.19 657.37 147.162 655.714 147.162C653.986 147.162 652.762 145.992 652.762 144.336C652.762 142.266 654.598 141.24 656.65 141.24C657.298 141.24 657.91 141.294 658.576 141.474V140.574C658.576 139.548 657.928 138.882 656.758 138.882C655.66 138.882 654.886 139.476 654.526 140.592L652.816 140.07C653.5 138.054 655.138 137.244 656.848 137.244C659.386 137.244 660.538 138.738 660.538 140.556V144.246C660.538 145.38 660.718 146.388 660.952 147ZM658.576 143.058V142.842C658 142.644 657.442 142.572 656.848 142.572C655.66 142.572 654.742 143.112 654.742 144.156C654.742 145.038 655.372 145.596 656.326 145.596C657.298 145.596 658.576 145.02 658.576 143.058ZM667.741 137.244C669.127 137.244 670.027 138.162 670.027 139.8V141.06L668.407 141.348V140.376C668.407 139.512 668.101 138.918 667.165 138.918C666.139 138.918 665.383 139.602 665.383 141.42V147H663.367V137.46H665.383V138.738C665.923 137.676 666.913 137.244 667.741 137.244ZM681.576 137.262C683.88 137.262 685.536 139.224 685.536 142.14C685.536 145.128 683.862 147.144 681.342 147.144C680.244 147.144 679.182 146.658 678.57 145.47V147H676.554V133.68H678.57V139.17C679.308 137.82 680.478 137.262 681.576 137.262ZM681.036 145.488C682.422 145.488 683.448 144.372 683.448 142.23C683.448 140.088 682.422 138.99 681.036 138.99C679.56 138.99 678.57 139.998 678.57 142.212C678.57 144.426 679.56 145.488 681.036 145.488ZM695.343 147H693.489C693.345 146.514 693.255 145.938 693.219 145.2C692.769 146.19 691.761 147.162 690.105 147.162C688.377 147.162 687.153 145.992 687.153 144.336C687.153 142.266 688.989 141.24 691.041 141.24C691.689 141.24 692.301 141.294 692.967 141.474V140.574C692.967 139.548 692.319 138.882 691.149 138.882C690.051 138.882 689.277 139.476 688.917 140.592L687.207 140.07C687.891 138.054 689.529 137.244 691.239 137.244C693.777 137.244 694.929 138.738 694.929 140.556V144.246C694.929 145.38 695.109 146.388 695.343 147ZM692.967 143.058V142.842C692.391 142.644 691.833 142.572 691.239 142.572C690.051 142.572 689.133 143.112 689.133 144.156C689.133 145.038 689.763 145.596 690.717 145.596C691.689 145.596 692.967 145.02 692.967 143.058ZM702.132 137.244C703.518 137.244 704.418 138.162 704.418 139.8V141.06L702.798 141.348V140.376C702.798 139.512 702.492 138.918 701.556 138.918C700.53 138.918 699.774 139.602 699.774 141.42V147H697.758V137.46H699.774V138.738C700.314 137.676 701.304 137.244 702.132 137.244ZM711.346 137.244C713.29 137.244 714.442 138.504 714.442 140.574V147H712.426V140.898C712.426 139.584 711.796 138.99 710.698 138.99C709.276 138.99 708.556 139.98 708.556 141.834V147H706.54V137.46H708.556V138.828C709.204 137.82 710.158 137.244 711.346 137.244ZM723.721 143.994L725.089 144.786C724.549 145.974 723.289 147.162 721.111 147.162C718.285 147.162 716.575 145.074 716.575 142.14C716.575 139.242 718.429 137.244 720.967 137.244C723.217 137.244 725.071 138.756 725.071 141.456L725.035 142.644H718.555C718.663 144.66 719.653 145.524 721.237 145.524C722.407 145.524 723.217 144.894 723.721 143.994ZM720.967 138.828C719.743 138.828 718.717 139.476 718.555 141.204H723.109C723.127 139.512 722.083 138.828 720.967 138.828ZM729.881 144.048C729.881 145.11 730.529 145.434 731.195 145.434C731.717 145.434 732.131 145.218 732.545 144.804L733.409 146.1C732.689 146.82 731.897 147.162 730.871 147.162C729.215 147.162 727.865 146.154 727.865 144.174V139.026H726.191V137.46H727.865V135.336L729.881 134.418V137.46H733.247V139.026H729.881V144.048ZM739.057 140.088C739.057 138.468 740.551 137.244 742.801 137.244C744.655 137.244 745.897 137.91 746.563 139.188L745.159 140.052C744.727 139.314 743.863 138.864 742.783 138.864C741.703 138.864 740.965 139.278 740.965 139.962C740.965 140.52 741.343 140.862 742.189 141.024L743.791 141.348C745.807 141.744 746.815 142.698 746.815 144.156C746.815 145.956 745.249 147.162 742.891 147.162C740.893 147.162 739.471 146.406 738.733 145.02L740.137 144.138C740.659 145.02 741.577 145.524 742.837 145.524C744.061 145.524 744.889 145.038 744.889 144.246C744.889 143.598 744.493 143.238 743.611 143.058L741.847 142.716C740.047 142.374 739.057 141.456 739.057 140.088ZM755.157 138.036C756.363 138.864 757.137 140.322 757.137 142.176C757.137 145.236 755.103 147.18 752.619 147.18C751.989 147.18 751.395 147.054 750.837 146.82L750.279 147.972H749.253L750.045 146.37C748.875 145.524 748.101 144.066 748.101 142.176C748.101 139.188 750.117 137.244 752.619 137.244C753.249 137.244 753.825 137.37 754.365 137.586L754.923 136.47H755.931L755.157 138.036ZM750.171 142.176C750.171 143.292 750.441 144.12 750.891 144.66L753.591 139.152C753.303 139.026 752.961 138.954 752.619 138.954C751.287 138.954 750.171 139.908 750.171 142.176ZM752.619 145.47C753.969 145.47 755.067 144.426 755.067 142.176C755.067 141.042 754.779 140.232 754.347 139.71L751.611 145.254C751.917 145.398 752.259 145.47 752.619 145.47ZM758.749 140.088C758.749 138.468 760.243 137.244 762.493 137.244C764.347 137.244 765.589 137.91 766.255 139.188L764.851 140.052C764.419 139.314 763.555 138.864 762.475 138.864C761.395 138.864 760.657 139.278 760.657 139.962C760.657 140.52 761.035 140.862 761.881 141.024L763.483 141.348C765.499 141.744 766.507 142.698 766.507 144.156C766.507 145.956 764.941 147.162 762.583 147.162C760.585 147.162 759.163 146.406 758.425 145.02L759.829 144.138C760.351 145.02 761.269 145.524 762.529 145.524C763.753 145.524 764.581 145.038 764.581 144.246C764.581 143.598 764.185 143.238 763.303 143.058L761.539 142.716C759.739 142.374 758.749 141.456 758.749 140.088ZM774.592 147L771.694 142.626L770.596 143.706V147H768.58V133.68H770.596V141.42L774.448 137.46H776.932L773.026 141.312L777.004 147H774.592ZM784.6 143.994L785.968 144.786C785.428 145.974 784.168 147.162 781.99 147.162C779.164 147.162 777.454 145.074 777.454 142.14C777.454 139.242 779.308 137.244 781.846 137.244C784.096 137.244 785.95 138.756 785.95 141.456L785.914 142.644H779.434C779.542 144.66 780.532 145.524 782.116 145.524C783.286 145.524 784.096 144.894 784.6 143.994ZM781.846 138.828C780.622 138.828 779.596 139.476 779.434 141.204H783.988C784.006 139.512 782.962 138.828 781.846 138.828ZM793.043 137.244C794.987 137.244 796.139 138.504 796.139 140.574V147H794.123V140.898C794.123 139.584 793.493 138.99 792.395 138.99C790.973 138.99 790.253 139.98 790.253 141.834V147H788.237V137.46H790.253V138.828C790.901 137.82 791.855 137.244 793.043 137.244ZM802.766 140.088C802.766 138.468 804.26 137.244 806.51 137.244C808.364 137.244 809.606 137.91 810.272 139.188L808.868 140.052C808.436 139.314 807.572 138.864 806.492 138.864C805.412 138.864 804.674 139.278 804.674 139.962C804.674 140.52 805.052 140.862 805.898 141.024L807.5 141.348C809.516 141.744 810.524 142.698 810.524 144.156C810.524 145.956 808.958 147.162 806.6 147.162C804.602 147.162 803.18 146.406 802.442 145.02L803.846 144.138C804.368 145.02 805.286 145.524 806.546 145.524C807.77 145.524 808.598 145.038 808.598 144.246C808.598 143.598 808.202 143.238 807.32 143.058L805.556 142.716C803.756 142.374 802.766 141.456 802.766 140.088ZM816.328 147.18C813.844 147.18 811.81 145.236 811.81 142.176C811.81 139.188 813.826 137.244 816.328 137.244C818.83 137.244 820.846 139.188 820.846 142.176C820.846 145.236 818.812 147.18 816.328 147.18ZM816.328 145.47C817.678 145.47 818.776 144.426 818.776 142.176C818.776 139.908 817.66 138.954 816.328 138.954C814.996 138.954 813.88 139.908 813.88 142.176C813.88 144.426 814.996 145.47 816.328 145.47ZM833.474 137.244C835.382 137.244 836.48 138.486 836.48 140.484V147H834.464V140.826C834.464 139.566 833.87 138.99 832.826 138.99C831.422 138.99 830.72 139.962 830.72 141.834V147H828.704V140.826C828.704 139.566 828.11 138.99 827.066 138.99C825.68 138.99 824.978 139.962 824.978 141.834V147H822.962V137.46H824.978V138.81C825.626 137.784 826.562 137.244 827.714 137.244C829.172 137.244 830.126 137.946 830.54 139.134C831.188 137.874 832.196 137.244 833.474 137.244ZM851.324 147H849.47C849.326 146.514 849.236 145.938 849.2 145.2C848.75 146.19 847.742 147.162 846.086 147.162C844.358 147.162 843.134 145.992 843.134 144.336C843.134 142.266 844.97 141.24 847.022 141.24C847.67 141.24 848.282 141.294 848.948 141.474V140.574C848.948 139.548 848.3 138.882 847.13 138.882C846.032 138.882 845.258 139.476 844.898 140.592L843.188 140.07C843.872 138.054 845.51 137.244 847.22 137.244C849.758 137.244 850.91 138.738 850.91 140.556V144.246C850.91 145.38 851.09 146.388 851.324 147ZM848.948 143.058V142.842C848.372 142.644 847.814 142.572 847.22 142.572C846.032 142.572 845.114 143.112 845.114 144.156C845.114 145.038 845.744 145.596 846.698 145.596C847.67 145.596 848.948 145.02 848.948 143.058ZM857.467 146.946C857.089 147.054 856.711 147.108 856.315 147.108C854.497 147.108 853.633 146.028 853.633 144.282V133.68H855.649V144.138C855.649 144.966 856.135 145.344 856.873 145.344C857.053 145.344 857.251 145.326 857.467 145.272V146.946ZM863.226 146.946C862.848 147.054 862.47 147.108 862.074 147.108C860.256 147.108 859.392 146.028 859.392 144.282V133.68H861.408V144.138C861.408 144.966 861.894 145.344 862.632 145.344C862.812 145.344 863.01 145.326 863.226 145.272V146.946ZM871.492 143.994L872.86 144.786C872.32 145.974 871.06 147.162 868.882 147.162C866.056 147.162 864.346 145.074 864.346 142.14C864.346 139.242 866.2 137.244 868.738 137.244C870.988 137.244 872.842 138.756 872.842 141.456L872.806 142.644H866.326C866.434 144.66 867.424 145.524 869.008 145.524C870.178 145.524 870.988 144.894 871.492 143.994ZM868.738 138.828C867.514 138.828 866.488 139.476 866.326 141.204H870.88C870.898 139.512 869.854 138.828 868.738 138.828ZM879.503 137.244C880.889 137.244 881.789 138.162 881.789 139.8V141.06L880.169 141.348V140.376C880.169 139.512 879.863 138.918 878.927 138.918C877.901 138.918 877.145 139.602 877.145 141.42V147H875.129V137.46H877.145V138.738C877.685 137.676 878.675 137.244 879.503 137.244ZM889.721 133.68H891.737V147H889.721V145.272C888.983 146.604 887.831 147.144 886.733 147.144C884.429 147.144 882.773 145.164 882.773 142.266C882.773 139.26 884.447 137.262 886.967 137.262C888.047 137.262 889.127 137.748 889.721 138.918V133.68ZM887.273 145.38C888.731 145.38 889.721 144.39 889.721 142.158C889.721 139.944 888.749 138.882 887.273 138.882C885.887 138.882 884.861 139.998 884.861 142.158C884.861 144.3 885.887 145.38 887.273 145.38ZM900.933 143.994L902.301 144.786C901.761 145.974 900.501 147.162 898.323 147.162C895.497 147.162 893.787 145.074 893.787 142.14C893.787 139.242 895.641 137.244 898.179 137.244C900.429 137.244 902.283 138.756 902.283 141.456L902.247 142.644H895.767C895.875 144.66 896.865 145.524 898.449 145.524C899.619 145.524 900.429 144.894 900.933 143.994ZM898.179 138.828C896.955 138.828 895.929 139.476 895.767 141.204H900.321C900.339 139.512 899.295 138.828 898.179 138.828ZM918.138 139.026H916.14V139.242C916.464 139.692 916.626 140.214 916.626 140.754C916.626 142.482 915.294 144.21 912.522 144.21H912.054C911.082 144.21 910.452 144.534 910.452 145.11C910.452 145.506 910.758 145.794 911.37 145.794H915.348C916.986 145.794 917.922 146.64 917.922 147.936C917.922 149.898 915.924 151.032 912.738 151.032C909.948 151.032 908.076 150.33 907.59 148.476L909.552 148.098C910.002 149.25 911.046 149.556 912.792 149.556C914.664 149.556 915.996 149.052 915.996 148.17C915.996 147.756 915.762 147.45 915.114 147.45H910.776C909.282 147.45 908.508 146.64 908.508 145.632C908.508 144.66 909.372 143.886 910.56 143.652C909.246 143.076 908.598 141.852 908.598 140.7C908.598 138.99 909.984 137.244 912.63 137.244C913.8 137.244 914.718 137.658 915.258 138.252V137.46H918.138V139.026ZM912.63 142.752C914.016 142.752 914.664 141.78 914.664 140.736C914.664 139.692 914.016 138.738 912.63 138.738C911.262 138.738 910.596 139.692 910.596 140.736C910.596 141.78 911.262 142.752 912.63 142.752ZM922.766 136.596C921.506 136.596 920.444 135.678 920.444 134.418C920.444 133.176 921.506 132.276 922.766 132.276C924.044 132.276 925.088 133.176 925.088 134.418C925.088 135.678 924.044 136.596 922.766 136.596ZM922.766 133.32C922.136 133.32 921.668 133.68 921.668 134.418C921.668 135.156 922.136 135.552 922.766 135.552C923.396 135.552 923.864 135.156 923.864 134.418C923.864 133.68 923.396 133.32 922.766 133.32ZM926.762 147H924.908C924.764 146.514 924.674 145.938 924.638 145.2C924.188 146.19 923.18 147.162 921.524 147.162C919.796 147.162 918.572 145.992 918.572 144.336C918.572 142.266 920.408 141.24 922.46 141.24C923.108 141.24 923.72 141.294 924.386 141.474V140.574C924.386 139.548 923.738 138.882 922.568 138.882C921.47 138.882 920.696 139.476 920.336 140.592L918.626 140.07C919.31 138.054 920.948 137.244 922.658 137.244C925.196 137.244 926.348 138.738 926.348 140.556V144.246C926.348 145.38 926.528 146.388 926.762 147ZM924.386 143.058V142.842C923.81 142.644 923.252 142.572 922.658 142.572C921.47 142.572 920.552 143.112 920.552 144.156C920.552 145.038 921.182 145.596 922.136 145.596C923.108 145.596 924.386 145.02 924.386 143.058ZM933.551 137.244C934.937 137.244 935.837 138.162 935.837 139.8V141.06L934.217 141.348V140.376C934.217 139.512 933.911 138.918 932.975 138.918C931.949 138.918 931.193 139.602 931.193 141.42V147H929.177V137.46H931.193V138.738C931.733 137.676 932.723 137.244 933.551 137.244ZM943.373 135.876C942.581 135.876 941.951 135.264 941.951 134.454C941.951 133.644 942.581 133.032 943.373 133.032C944.165 133.032 944.777 133.644 944.777 134.454C944.777 135.264 944.165 135.876 943.373 135.876ZM942.365 147V137.46H944.381V147H942.365ZM645.48 165.262C647.784 165.262 649.44 167.224 649.44 170.14C649.44 173.128 647.766 175.144 645.246 175.144C644.148 175.144 643.086 174.658 642.474 173.47V175H640.458V161.68H642.474V167.17C643.212 165.82 644.382 165.262 645.48 165.262ZM644.94 173.488C646.326 173.488 647.352 172.372 647.352 170.23C647.352 168.088 646.326 166.99 644.94 166.99C643.464 166.99 642.474 167.998 642.474 170.212C642.474 172.426 643.464 173.488 644.94 173.488ZM659.247 175H657.393C657.249 174.514 657.159 173.938 657.123 173.2C656.673 174.19 655.665 175.162 654.009 175.162C652.281 175.162 651.057 173.992 651.057 172.336C651.057 170.266 652.893 169.24 654.945 169.24C655.593 169.24 656.205 169.294 656.871 169.474V168.574C656.871 167.548 656.223 166.882 655.053 166.882C653.955 166.882 653.181 167.476 652.821 168.592L651.111 168.07C651.795 166.054 653.433 165.244 655.143 165.244C657.681 165.244 658.833 166.738 658.833 168.556V172.246C658.833 173.38 659.013 174.388 659.247 175ZM656.871 171.058V170.842C656.295 170.644 655.737 170.572 655.143 170.572C653.955 170.572 653.037 171.112 653.037 172.156C653.037 173.038 653.667 173.596 654.621 173.596C655.593 173.596 656.871 173.02 656.871 171.058ZM666.036 165.244C667.422 165.244 668.322 166.162 668.322 167.8V169.06L666.702 169.348V168.376C666.702 167.512 666.396 166.918 665.46 166.918C664.434 166.918 663.678 167.602 663.678 169.42V175H661.662V165.46H663.678V166.738C664.218 165.676 665.208 165.244 666.036 165.244ZM675.25 165.244C677.194 165.244 678.346 166.504 678.346 168.574V175H676.33V168.898C676.33 167.584 675.7 166.99 674.602 166.99C673.18 166.99 672.46 167.98 672.46 169.834V175H670.444V165.46H672.46V166.828C673.108 165.82 674.062 165.244 675.25 165.244ZM687.624 171.994L688.992 172.786C688.452 173.974 687.192 175.162 685.014 175.162C682.188 175.162 680.478 173.074 680.478 170.14C680.478 167.242 682.332 165.244 684.87 165.244C687.12 165.244 688.974 166.756 688.974 169.456L688.938 170.644H682.458C682.566 172.66 683.556 173.524 685.14 173.524C686.31 173.524 687.12 172.894 687.624 171.994ZM684.87 166.828C683.646 166.828 682.62 167.476 682.458 169.204H687.012C687.03 167.512 685.986 166.828 684.87 166.828ZM696.085 165.244C698.029 165.244 699.181 166.504 699.181 168.574V175H697.165V168.898C697.165 167.584 696.535 166.99 695.437 166.99C694.015 166.99 693.277 167.98 693.277 169.834V175H691.261V161.68H693.277V166.846C693.925 165.82 694.897 165.244 696.085 165.244ZM709.592 175H707.738C707.594 174.514 707.504 173.938 707.468 173.2C707.018 174.19 706.01 175.162 704.354 175.162C702.626 175.162 701.402 173.992 701.402 172.336C701.402 170.266 703.238 169.24 705.29 169.24C705.938 169.24 706.55 169.294 707.216 169.474V168.574C707.216 167.548 706.568 166.882 705.398 166.882C704.3 166.882 703.526 167.476 703.166 168.592L701.456 168.07C702.14 166.054 703.778 165.244 705.488 165.244C708.026 165.244 709.178 166.738 709.178 168.556V172.246C709.178 173.38 709.358 174.388 709.592 175ZM707.216 171.058V170.842C706.64 170.644 706.082 170.572 705.488 170.572C704.3 170.572 703.382 171.112 703.382 172.156C703.382 173.038 704.012 173.596 704.966 173.596C705.938 173.596 707.216 173.02 707.216 171.058ZM720.993 167.026H718.995V167.242C719.319 167.692 719.481 168.214 719.481 168.754C719.481 170.482 718.149 172.21 715.377 172.21H714.909C713.937 172.21 713.307 172.534 713.307 173.11C713.307 173.506 713.613 173.794 714.225 173.794H718.203C719.841 173.794 720.777 174.64 720.777 175.936C720.777 177.898 718.779 179.032 715.593 179.032C712.803 179.032 710.931 178.33 710.445 176.476L712.407 176.098C712.857 177.25 713.901 177.556 715.647 177.556C717.519 177.556 718.851 177.052 718.851 176.17C718.851 175.756 718.617 175.45 717.969 175.45H713.631C712.137 175.45 711.363 174.64 711.363 173.632C711.363 172.66 712.227 171.886 713.415 171.652C712.101 171.076 711.453 169.852 711.453 168.7C711.453 166.99 712.839 165.244 715.485 165.244C716.655 165.244 717.573 165.658 718.113 166.252V165.46H720.993V167.026ZM715.485 170.752C716.871 170.752 717.519 169.78 717.519 168.736C717.519 167.692 716.871 166.738 715.485 166.738C714.117 166.738 713.451 167.692 713.451 168.736C713.451 169.78 714.117 170.752 715.485 170.752ZM728.484 171.994L729.852 172.786C729.312 173.974 728.052 175.162 725.874 175.162C723.048 175.162 721.338 173.074 721.338 170.14C721.338 167.242 723.192 165.244 725.73 165.244C727.98 165.244 729.834 166.756 729.834 169.456L729.798 170.644H723.318C723.426 172.66 724.416 173.524 726 173.524C727.17 173.524 727.98 172.894 728.484 171.994ZM725.73 166.828C724.506 166.828 723.48 167.476 723.318 169.204H727.872C727.89 167.512 726.846 166.828 725.73 166.828ZM736.927 165.244C738.871 165.244 740.023 166.504 740.023 168.574V175H738.007V168.898C738.007 167.584 737.377 166.99 736.279 166.99C734.857 166.99 734.137 167.98 734.137 169.834V175H732.121V165.46H734.137V166.828C734.785 165.82 735.739 165.244 736.927 165.244ZM753.508 161.68H755.524V175H753.508V173.272C752.77 174.604 751.618 175.144 750.52 175.144C748.216 175.144 746.56 173.164 746.56 170.266C746.56 167.26 748.234 165.262 750.754 165.262C751.834 165.262 752.914 165.748 753.508 166.918V161.68ZM751.06 173.38C752.518 173.38 753.508 172.39 753.508 170.158C753.508 167.944 752.536 166.882 751.06 166.882C749.674 166.882 748.648 167.998 748.648 170.158C748.648 172.3 749.674 173.38 751.06 173.38ZM763.803 165.46H765.819V175H763.803V173.596C763.191 174.64 762.237 175.162 761.067 175.162C759.105 175.162 757.971 173.902 757.971 171.832V165.46H759.987V171.526C759.987 172.768 760.599 173.434 761.697 173.434C763.101 173.434 763.803 172.426 763.803 170.572V165.46ZM772.383 168.088C772.383 166.468 773.877 165.244 776.127 165.244C777.981 165.244 779.223 165.91 779.889 167.188L778.485 168.052C778.053 167.314 777.189 166.864 776.109 166.864C775.029 166.864 774.291 167.278 774.291 167.962C774.291 168.52 774.669 168.862 775.515 169.024L777.117 169.348C779.133 169.744 780.141 170.698 780.141 172.156C780.141 173.956 778.575 175.162 776.217 175.162C774.219 175.162 772.797 174.406 772.059 173.02L773.463 172.138C773.985 173.02 774.903 173.524 776.163 173.524C777.387 173.524 778.215 173.038 778.215 172.246C778.215 171.598 777.819 171.238 776.937 171.058L775.173 170.716C773.373 170.374 772.383 169.456 772.383 168.088ZM788.483 166.036C789.689 166.864 790.463 168.322 790.463 170.176C790.463 173.236 788.429 175.18 785.945 175.18C785.314 175.18 784.721 175.054 784.163 174.82L783.605 175.972H782.579L783.371 174.37C782.201 173.524 781.427 172.066 781.427 170.176C781.427 167.188 783.443 165.244 785.945 165.244C786.575 165.244 787.151 165.37 787.691 165.586L788.249 164.47H789.257L788.483 166.036ZM783.497 170.176C783.497 171.292 783.767 172.12 784.217 172.66L786.917 167.152C786.629 167.026 786.287 166.954 785.945 166.954C784.613 166.954 783.497 167.908 783.497 170.176ZM785.945 173.47C787.295 173.47 788.393 172.426 788.393 170.176C788.393 169.042 788.105 168.232 787.673 167.71L784.937 173.254C785.243 173.398 785.585 173.47 785.945 173.47ZM798.59 175L795.692 170.626L794.594 171.706V175H792.578V161.68H794.594V169.42L798.446 165.46H800.93L797.024 169.312L801.002 175H798.59ZM808.598 171.994L809.966 172.786C809.426 173.974 808.166 175.162 805.988 175.162C803.162 175.162 801.452 173.074 801.452 170.14C801.452 167.242 803.306 165.244 805.844 165.244C808.094 165.244 809.948 166.756 809.948 169.456L809.912 170.644H803.432C803.54 172.66 804.53 173.524 806.114 173.524C807.284 173.524 808.094 172.894 808.598 171.994ZM805.844 166.828C804.62 166.828 803.594 167.476 803.432 169.204H807.986C808.004 167.512 806.96 166.828 805.844 166.828ZM816.609 165.244C817.995 165.244 818.895 166.162 818.895 167.8V169.06L817.275 169.348V168.376C817.275 167.512 816.969 166.918 816.033 166.918C815.007 166.918 814.251 167.602 814.251 169.42V175H812.235V165.46H814.251V166.738C814.791 165.676 815.781 165.244 816.609 165.244ZM830.427 165.262C832.731 165.262 834.387 167.224 834.387 170.14C834.387 173.128 832.713 175.144 830.193 175.144C829.113 175.144 828.051 174.676 827.439 173.506V178.78H825.423V165.46H827.439V167.134C828.177 165.802 829.329 165.262 830.427 165.262ZM829.887 173.488C831.273 173.488 832.299 172.372 832.299 170.23C832.299 168.088 831.273 166.99 829.887 166.99C828.411 166.99 827.439 167.998 827.439 170.212C827.439 172.426 828.411 173.488 829.887 173.488ZM840.198 164.596C838.938 164.596 837.876 163.678 837.876 162.418C837.876 161.176 838.938 160.276 840.198 160.276C841.476 160.276 842.52 161.176 842.52 162.418C842.52 163.678 841.476 164.596 840.198 164.596ZM840.198 161.32C839.568 161.32 839.1 161.68 839.1 162.418C839.1 163.156 839.568 163.552 840.198 163.552C840.828 163.552 841.296 163.156 841.296 162.418C841.296 161.68 840.828 161.32 840.198 161.32ZM844.194 175H842.34C842.196 174.514 842.106 173.938 842.07 173.2C841.62 174.19 840.612 175.162 838.956 175.162C837.228 175.162 836.004 173.992 836.004 172.336C836.004 170.266 837.84 169.24 839.892 169.24C840.54 169.24 841.152 169.294 841.818 169.474V168.574C841.818 167.548 841.17 166.882 840 166.882C838.902 166.882 838.128 167.476 837.768 168.592L836.058 168.07C836.742 166.054 838.38 165.244 840.09 165.244C842.628 165.244 843.78 166.738 843.78 168.556V172.246C843.78 173.38 843.96 174.388 844.194 175ZM841.818 171.058V170.842C841.242 170.644 840.684 170.572 840.09 170.572C838.902 170.572 837.984 171.112 837.984 172.156C837.984 173.038 838.614 173.596 839.568 173.596C840.54 173.596 841.818 173.02 841.818 171.058ZM849.835 161.5C852.319 161.5 854.065 162.922 854.065 165.19C854.065 167.44 852.319 168.664 850.339 169.222L850.303 170.77H848.665L848.557 168.07C850.501 167.782 851.905 167.044 851.905 165.298C851.905 164.128 851.095 163.372 849.763 163.372C848.557 163.372 847.639 164.038 847.045 165.226L845.317 164.488C846.253 162.49 847.963 161.5 849.835 161.5ZM849.475 172.102C850.339 172.102 850.987 172.768 850.987 173.614C850.987 174.46 850.339 175.126 849.475 175.126C848.629 175.126 847.981 174.46 847.981 173.614C847.981 172.768 848.629 172.102 849.475 172.102Z" fill="#2A2859"/>
<rect x="640" y="192" width="22" height="22" fill="white"/>
<rect x="640" y="192" width="22" height="22" stroke="#2A2859" stroke-width="2"/>
<path d="M675.752 206.024V197.16H676.872V206.024C676.872 207.976 675.832 209.128 674.008 209.128C672.776 209.128 671.816 208.552 671.32 207.432L672.232 206.92C672.6 207.624 673.048 208.104 674.024 208.104C675.16 208.104 675.752 207.304 675.752 206.024ZM685.652 209H684.66C684.532 208.536 684.436 207.976 684.436 207.336C684.004 208.328 682.9 209.128 681.524 209.128C680.02 209.128 678.884 208.152 678.884 206.696C678.884 204.952 680.452 204.04 682.196 204.04C682.884 204.04 683.556 204.12 684.244 204.36V203.24C684.244 202.136 683.572 201.384 682.26 201.384C681.204 201.384 680.308 201.848 679.86 203.144L678.9 202.856C679.54 201.064 680.836 200.392 682.324 200.392C684.42 200.392 685.3 201.656 685.3 203.112V206.6C685.3 207.56 685.46 208.424 685.652 209ZM684.244 205.48V205.288C683.588 205.016 682.916 204.936 682.26 204.936C680.98 204.936 679.972 205.512 679.972 206.632C679.972 207.656 680.692 208.2 681.716 208.2C682.82 208.2 684.244 207.544 684.244 205.48Z" fill="#2A2859"/>
<rect x="640" y="232" width="22" height="22" fill="white"/>
<rect x="640" y="232" width="22" height="22" stroke="#2A2859" stroke-width="2"/>
<path d="M679.832 237.16H680.92V249H679.928L673.496 239.208V249H672.408V237.16H673.496L679.832 246.872V237.16ZM689.296 246.6L690.096 247.048C689.696 248.072 688.64 249.128 686.752 249.128C684.368 249.128 682.96 247.352 682.96 244.648C682.96 242.168 684.432 240.392 686.64 240.392C688.464 240.392 690.032 241.704 690.032 244.008L690 244.952H684.064C684.16 247.208 685.232 248.168 686.864 248.168C688.144 248.168 688.896 247.432 689.296 246.6ZM686.64 241.352C685.36 241.352 684.208 242.04 684.064 244.056H688.96C689.008 242.152 687.888 241.352 686.64 241.352ZM692.676 238.984C692.148 238.984 691.716 238.568 691.716 238.024C691.716 237.48 692.148 237.064 692.676 237.064C693.204 237.064 693.636 237.48 693.636 238.024C693.636 238.568 693.204 238.984 692.676 238.984ZM692.132 249V240.52H693.22V249H692.132Z" fill="#2A2859"/>
<path d="M85.342 129.68H87.448V143H85.342V137.312H79.672V143H77.566V129.68H79.672V135.278H85.342V129.68ZM97.9518 143H96.0978C95.9538 142.514 95.8638 141.938 95.8278 141.2C95.3778 142.19 94.3698 143.162 92.7138 143.162C90.9858 143.162 89.7618 141.992 89.7618 140.336C89.7618 138.266 91.5978 137.24 93.6498 137.24C94.2978 137.24 94.9098 137.294 95.5758 137.474V136.574C95.5758 135.548 94.9278 134.882 93.7578 134.882C92.6598 134.882 91.8858 135.476 91.5258 136.592L89.8158 136.07C90.4998 134.054 92.1378 133.244 93.8478 133.244C96.3858 133.244 97.5378 134.738 97.5378 136.556V140.246C97.5378 141.38 97.7178 142.388 97.9518 143ZM95.5758 139.058V138.842C94.9998 138.644 94.4418 138.572 93.8478 138.572C92.6598 138.572 91.7418 139.112 91.7418 140.156C91.7418 141.038 92.3718 141.596 93.3258 141.596C94.2978 141.596 95.5758 141.02 95.5758 139.058ZM104.741 133.244C106.127 133.244 107.027 134.162 107.027 135.8V137.06L105.407 137.348V136.376C105.407 135.512 105.101 134.918 104.165 134.918C103.139 134.918 102.383 135.602 102.383 137.42V143H100.367V133.46H102.383V134.738C102.923 133.676 103.913 133.244 104.741 133.244ZM118.576 133.262C120.88 133.262 122.536 135.224 122.536 138.14C122.536 141.128 120.862 143.144 118.342 143.144C117.244 143.144 116.182 142.658 115.57 141.47V143H113.554V129.68H115.57V135.17C116.308 133.82 117.478 133.262 118.576 133.262ZM118.036 141.488C119.422 141.488 120.448 140.372 120.448 138.23C120.448 136.088 119.422 134.99 118.036 134.99C116.56 134.99 115.57 135.998 115.57 138.212C115.57 140.426 116.56 141.488 118.036 141.488ZM132.343 143H130.489C130.345 142.514 130.255 141.938 130.219 141.2C129.769 142.19 128.761 143.162 127.105 143.162C125.377 143.162 124.153 141.992 124.153 140.336C124.153 138.266 125.989 137.24 128.041 137.24C128.689 137.24 129.301 137.294 129.967 137.474V136.574C129.967 135.548 129.319 134.882 128.149 134.882C127.051 134.882 126.277 135.476 125.917 136.592L124.207 136.07C124.891 134.054 126.529 133.244 128.239 133.244C130.777 133.244 131.929 134.738 131.929 136.556V140.246C131.929 141.38 132.109 142.388 132.343 143ZM129.967 139.058V138.842C129.391 138.644 128.833 138.572 128.239 138.572C127.051 138.572 126.133 139.112 126.133 140.156C126.133 141.038 126.763 141.596 127.717 141.596C128.689 141.596 129.967 141.02 129.967 139.058ZM139.132 133.244C140.518 133.244 141.418 134.162 141.418 135.8V137.06L139.798 137.348V136.376C139.798 135.512 139.492 134.918 138.556 134.918C137.53 134.918 136.774 135.602 136.774 137.42V143H134.758V133.46H136.774V134.738C137.314 133.676 138.304 133.244 139.132 133.244ZM148.346 133.244C150.29 133.244 151.442 134.504 151.442 136.574V143H149.426V136.898C149.426 135.584 148.796 134.99 147.698 134.99C146.276 134.99 145.556 135.98 145.556 137.834V143H143.54V133.46H145.556V134.828C146.204 133.82 147.158 133.244 148.346 133.244ZM160.721 139.994L162.089 140.786C161.549 141.974 160.289 143.162 158.111 143.162C155.285 143.162 153.575 141.074 153.575 138.14C153.575 135.242 155.429 133.244 157.967 133.244C160.217 133.244 162.071 134.756 162.071 137.456L162.035 138.644H155.555C155.663 140.66 156.653 141.524 158.237 141.524C159.407 141.524 160.217 140.894 160.721 139.994ZM157.967 134.828C156.743 134.828 155.717 135.476 155.555 137.204H160.109C160.127 135.512 159.083 134.828 157.967 134.828ZM166.881 140.048C166.881 141.11 167.529 141.434 168.195 141.434C168.717 141.434 169.131 141.218 169.545 140.804L170.409 142.1C169.689 142.82 168.897 143.162 167.871 143.162C166.215 143.162 164.865 142.154 164.865 140.174V135.026H163.191V133.46H164.865V131.336L166.881 130.418V133.46H170.247V135.026H166.881V140.048ZM176.057 136.088C176.057 134.468 177.551 133.244 179.801 133.244C181.655 133.244 182.897 133.91 183.563 135.188L182.159 136.052C181.727 135.314 180.863 134.864 179.783 134.864C178.703 134.864 177.965 135.278 177.965 135.962C177.965 136.52 178.343 136.862 179.189 137.024L180.791 137.348C182.807 137.744 183.815 138.698 183.815 140.156C183.815 141.956 182.249 143.162 179.891 143.162C177.893 143.162 176.471 142.406 175.733 141.02L177.137 140.138C177.659 141.02 178.577 141.524 179.837 141.524C181.061 141.524 181.889 141.038 181.889 140.246C181.889 139.598 181.493 139.238 180.611 139.058L178.847 138.716C177.047 138.374 176.057 137.456 176.057 136.088ZM192.157 134.036C193.363 134.864 194.137 136.322 194.137 138.176C194.137 141.236 192.103 143.18 189.619 143.18C188.989 143.18 188.395 143.054 187.837 142.82L187.279 143.972H186.253L187.045 142.37C185.875 141.524 185.101 140.066 185.101 138.176C185.101 135.188 187.117 133.244 189.619 133.244C190.249 133.244 190.825 133.37 191.365 133.586L191.923 132.47H192.931L192.157 134.036ZM187.171 138.176C187.171 139.292 187.441 140.12 187.891 140.66L190.591 135.152C190.303 135.026 189.961 134.954 189.619 134.954C188.287 134.954 187.171 135.908 187.171 138.176ZM189.619 141.47C190.969 141.47 192.067 140.426 192.067 138.176C192.067 137.042 191.779 136.232 191.347 135.71L188.611 141.254C188.917 141.398 189.259 141.47 189.619 141.47ZM195.749 136.088C195.749 134.468 197.243 133.244 199.493 133.244C201.347 133.244 202.589 133.91 203.255 135.188L201.851 136.052C201.419 135.314 200.555 134.864 199.475 134.864C198.395 134.864 197.657 135.278 197.657 135.962C197.657 136.52 198.035 136.862 198.881 137.024L200.483 137.348C202.499 137.744 203.507 138.698 203.507 140.156C203.507 141.956 201.941 143.162 199.583 143.162C197.585 143.162 196.163 142.406 195.425 141.02L196.829 140.138C197.351 141.02 198.269 141.524 199.529 141.524C200.753 141.524 201.581 141.038 201.581 140.246C201.581 139.598 201.185 139.238 200.303 139.058L198.539 138.716C196.739 138.374 195.749 137.456 195.749 136.088ZM211.592 143L208.694 138.626L207.596 139.706V143H205.58V129.68H207.596V137.42L211.448 133.46H213.932L210.026 137.312L214.004 143H211.592ZM221.6 139.994L222.968 140.786C222.428 141.974 221.168 143.162 218.99 143.162C216.164 143.162 214.454 141.074 214.454 138.14C214.454 135.242 216.308 133.244 218.846 133.244C221.096 133.244 222.95 134.756 222.95 137.456L222.914 138.644H216.434C216.542 140.66 217.532 141.524 219.116 141.524C220.286 141.524 221.096 140.894 221.6 139.994ZM218.846 134.828C217.622 134.828 216.596 135.476 216.434 137.204H220.988C221.006 135.512 219.962 134.828 218.846 134.828ZM230.043 133.244C231.987 133.244 233.139 134.504 233.139 136.574V143H231.123V136.898C231.123 135.584 230.493 134.99 229.395 134.99C227.973 134.99 227.253 135.98 227.253 137.834V143H225.237V133.46H227.253V134.828C227.901 133.82 228.855 133.244 230.043 133.244ZM239.766 136.088C239.766 134.468 241.26 133.244 243.51 133.244C245.364 133.244 246.606 133.91 247.272 135.188L245.868 136.052C245.436 135.314 244.572 134.864 243.492 134.864C242.412 134.864 241.674 135.278 241.674 135.962C241.674 136.52 242.052 136.862 242.898 137.024L244.5 137.348C246.516 137.744 247.524 138.698 247.524 140.156C247.524 141.956 245.958 143.162 243.6 143.162C241.602 143.162 240.18 142.406 239.442 141.02L240.846 140.138C241.368 141.02 242.286 141.524 243.546 141.524C244.77 141.524 245.598 141.038 245.598 140.246C245.598 139.598 245.202 139.238 244.32 139.058L242.556 138.716C240.756 138.374 239.766 137.456 239.766 136.088ZM253.328 143.18C250.844 143.18 248.81 141.236 248.81 138.176C248.81 135.188 250.826 133.244 253.328 133.244C255.83 133.244 257.846 135.188 257.846 138.176C257.846 141.236 255.812 143.18 253.328 143.18ZM253.328 141.47C254.678 141.47 255.776 140.426 255.776 138.176C255.776 135.908 254.66 134.954 253.328 134.954C251.996 134.954 250.88 135.908 250.88 138.176C250.88 140.426 251.996 141.47 253.328 141.47ZM270.474 133.244C272.382 133.244 273.48 134.486 273.48 136.484V143H271.464V136.826C271.464 135.566 270.87 134.99 269.826 134.99C268.422 134.99 267.72 135.962 267.72 137.834V143H265.704V136.826C265.704 135.566 265.11 134.99 264.066 134.99C262.68 134.99 261.978 135.962 261.978 137.834V143H259.962V133.46H261.978V134.81C262.626 133.784 263.562 133.244 264.714 133.244C266.172 133.244 267.126 133.946 267.54 135.134C268.188 133.874 269.196 133.244 270.474 133.244ZM288.324 143H286.47C286.326 142.514 286.236 141.938 286.2 141.2C285.75 142.19 284.742 143.162 283.086 143.162C281.358 143.162 280.134 141.992 280.134 140.336C280.134 138.266 281.97 137.24 284.022 137.24C284.67 137.24 285.282 137.294 285.948 137.474V136.574C285.948 135.548 285.3 134.882 284.13 134.882C283.032 134.882 282.258 135.476 281.898 136.592L280.188 136.07C280.872 134.054 282.51 133.244 284.22 133.244C286.758 133.244 287.91 134.738 287.91 136.556V140.246C287.91 141.38 288.09 142.388 288.324 143ZM285.948 139.058V138.842C285.372 138.644 284.814 138.572 284.22 138.572C283.032 138.572 282.114 139.112 282.114 140.156C282.114 141.038 282.744 141.596 283.698 141.596C284.67 141.596 285.948 141.02 285.948 139.058ZM294.467 142.946C294.089 143.054 293.711 143.108 293.315 143.108C291.497 143.108 290.633 142.028 290.633 140.282V129.68H292.649V140.138C292.649 140.966 293.135 141.344 293.873 141.344C294.053 141.344 294.251 141.326 294.467 141.272V142.946ZM300.226 142.946C299.848 143.054 299.47 143.108 299.074 143.108C297.256 143.108 296.392 142.028 296.392 140.282V129.68H298.408V140.138C298.408 140.966 298.894 141.344 299.632 141.344C299.812 141.344 300.01 141.326 300.226 141.272V142.946ZM308.492 139.994L309.86 140.786C309.32 141.974 308.06 143.162 305.882 143.162C303.056 143.162 301.346 141.074 301.346 138.14C301.346 135.242 303.2 133.244 305.738 133.244C307.988 133.244 309.842 134.756 309.842 137.456L309.806 138.644H303.326C303.434 140.66 304.424 141.524 306.008 141.524C307.178 141.524 307.988 140.894 308.492 139.994ZM305.738 134.828C304.514 134.828 303.488 135.476 303.326 137.204H307.88C307.898 135.512 306.854 134.828 305.738 134.828ZM316.503 133.244C317.889 133.244 318.789 134.162 318.789 135.8V137.06L317.169 137.348V136.376C317.169 135.512 316.863 134.918 315.927 134.918C314.901 134.918 314.145 135.602 314.145 137.42V143H312.129V133.46H314.145V134.738C314.685 133.676 315.675 133.244 316.503 133.244ZM326.721 129.68H328.737V143H326.721V141.272C325.983 142.604 324.831 143.144 323.733 143.144C321.429 143.144 319.773 141.164 319.773 138.266C319.773 135.26 321.447 133.262 323.967 133.262C325.047 133.262 326.127 133.748 326.721 134.918V129.68ZM324.273 141.38C325.731 141.38 326.721 140.39 326.721 138.158C326.721 135.944 325.749 134.882 324.273 134.882C322.887 134.882 321.861 135.998 321.861 138.158C321.861 140.3 322.887 141.38 324.273 141.38ZM337.933 139.994L339.301 140.786C338.761 141.974 337.501 143.162 335.323 143.162C332.497 143.162 330.787 141.074 330.787 138.14C330.787 135.242 332.641 133.244 335.179 133.244C337.429 133.244 339.283 134.756 339.283 137.456L339.247 138.644H332.767C332.875 140.66 333.865 141.524 335.449 141.524C336.619 141.524 337.429 140.894 337.933 139.994ZM335.179 134.828C333.955 134.828 332.929 135.476 332.767 137.204H337.321C337.339 135.512 336.295 134.828 335.179 134.828ZM355.138 135.026H353.14V135.242C353.464 135.692 353.626 136.214 353.626 136.754C353.626 138.482 352.294 140.21 349.522 140.21H349.054C348.082 140.21 347.452 140.534 347.452 141.11C347.452 141.506 347.758 141.794 348.37 141.794H352.348C353.986 141.794 354.922 142.64 354.922 143.936C354.922 145.898 352.924 147.032 349.738 147.032C346.948 147.032 345.076 146.33 344.59 144.476L346.552 144.098C347.002 145.25 348.046 145.556 349.792 145.556C351.664 145.556 352.996 145.052 352.996 144.17C352.996 143.756 352.762 143.45 352.114 143.45H347.776C346.282 143.45 345.508 142.64 345.508 141.632C345.508 140.66 346.372 139.886 347.56 139.652C346.246 139.076 345.598 137.852 345.598 136.7C345.598 134.99 346.984 133.244 349.63 133.244C350.8 133.244 351.718 133.658 352.258 134.252V133.46H355.138V135.026ZM349.63 138.752C351.016 138.752 351.664 137.78 351.664 136.736C351.664 135.692 351.016 134.738 349.63 134.738C348.262 134.738 347.596 135.692 347.596 136.736C347.596 137.78 348.262 138.752 349.63 138.752ZM359.766 132.596C358.506 132.596 357.444 131.678 357.444 130.418C357.444 129.176 358.506 128.276 359.766 128.276C361.044 128.276 362.088 129.176 362.088 130.418C362.088 131.678 361.044 132.596 359.766 132.596ZM359.766 129.32C359.136 129.32 358.668 129.68 358.668 130.418C358.668 131.156 359.136 131.552 359.766 131.552C360.396 131.552 360.864 131.156 360.864 130.418C360.864 129.68 360.396 129.32 359.766 129.32ZM363.762 143H361.908C361.764 142.514 361.674 141.938 361.638 141.2C361.188 142.19 360.18 143.162 358.524 143.162C356.796 143.162 355.572 141.992 355.572 140.336C355.572 138.266 357.408 137.24 359.46 137.24C360.108 137.24 360.72 137.294 361.386 137.474V136.574C361.386 135.548 360.738 134.882 359.568 134.882C358.47 134.882 357.696 135.476 357.336 136.592L355.626 136.07C356.31 134.054 357.948 133.244 359.658 133.244C362.196 133.244 363.348 134.738 363.348 136.556V140.246C363.348 141.38 363.528 142.388 363.762 143ZM361.386 139.058V138.842C360.81 138.644 360.252 138.572 359.658 138.572C358.47 138.572 357.552 139.112 357.552 140.156C357.552 141.038 358.182 141.596 359.136 141.596C360.108 141.596 361.386 141.02 361.386 139.058ZM370.551 133.244C371.937 133.244 372.837 134.162 372.837 135.8V137.06L371.217 137.348V136.376C371.217 135.512 370.911 134.918 369.975 134.918C368.949 134.918 368.193 135.602 368.193 137.42V143H366.177V133.46H368.193V134.738C368.733 133.676 369.723 133.244 370.551 133.244ZM380.373 131.876C379.581 131.876 378.951 131.264 378.951 130.454C378.951 129.644 379.581 129.032 380.373 129.032C381.165 129.032 381.777 129.644 381.777 130.454C381.777 131.264 381.165 131.876 380.373 131.876ZM379.365 143V133.46H381.381V143H379.365ZM82.48 161.262C84.784 161.262 86.44 163.224 86.44 166.14C86.44 169.128 84.766 171.144 82.246 171.144C81.148 171.144 80.086 170.658 79.474 169.47V171H77.458V157.68H79.474V163.17C80.212 161.82 81.382 161.262 82.48 161.262ZM81.94 169.488C83.326 169.488 84.352 168.372 84.352 166.23C84.352 164.088 83.326 162.99 81.94 162.99C80.464 162.99 79.474 163.998 79.474 166.212C79.474 168.426 80.464 169.488 81.94 169.488ZM96.2467 171H94.3927C94.2487 170.514 94.1587 169.938 94.1227 169.2C93.6727 170.19 92.6647 171.162 91.0087 171.162C89.2807 171.162 88.0567 169.992 88.0567 168.336C88.0567 166.266 89.8927 165.24 91.9447 165.24C92.5927 165.24 93.2047 165.294 93.8707 165.474V164.574C93.8707 163.548 93.2227 162.882 92.0527 162.882C90.9547 162.882 90.1807 163.476 89.8207 164.592L88.1107 164.07C88.7947 162.054 90.4327 161.244 92.1427 161.244C94.6807 161.244 95.8327 162.738 95.8327 164.556V168.246C95.8327 169.38 96.0127 170.388 96.2467 171ZM93.8707 167.058V166.842C93.2947 166.644 92.7367 166.572 92.1427 166.572C90.9547 166.572 90.0367 167.112 90.0367 168.156C90.0367 169.038 90.6667 169.596 91.6207 169.596C92.5927 169.596 93.8707 169.02 93.8707 167.058ZM103.036 161.244C104.422 161.244 105.322 162.162 105.322 163.8V165.06L103.702 165.348V164.376C103.702 163.512 103.396 162.918 102.46 162.918C101.434 162.918 100.678 163.602 100.678 165.42V171H98.6615V161.46H100.678V162.738C101.218 161.676 102.208 161.244 103.036 161.244ZM112.25 161.244C114.194 161.244 115.346 162.504 115.346 164.574V171H113.33V164.898C113.33 163.584 112.7 162.99 111.602 162.99C110.18 162.99 109.46 163.98 109.46 165.834V171H107.444V161.46H109.46V162.828C110.108 161.82 111.062 161.244 112.25 161.244ZM124.624 167.994L125.992 168.786C125.452 169.974 124.192 171.162 122.014 171.162C119.188 171.162 117.478 169.074 117.478 166.14C117.478 163.242 119.332 161.244 121.87 161.244C124.12 161.244 125.974 162.756 125.974 165.456L125.938 166.644H119.458C119.566 168.66 120.556 169.524 122.14 169.524C123.31 169.524 124.12 168.894 124.624 167.994ZM121.87 162.828C120.646 162.828 119.62 163.476 119.458 165.204H124.012C124.03 163.512 122.986 162.828 121.87 162.828ZM133.085 161.244C135.029 161.244 136.181 162.504 136.181 164.574V171H134.165V164.898C134.165 163.584 133.535 162.99 132.437 162.99C131.015 162.99 130.277 163.98 130.277 165.834V171H128.261V157.68H130.277V162.846C130.925 161.82 131.897 161.244 133.085 161.244ZM146.592 171H144.738C144.594 170.514 144.504 169.938 144.468 169.2C144.018 170.19 143.01 171.162 141.354 171.162C139.626 171.162 138.402 169.992 138.402 168.336C138.402 166.266 140.238 165.24 142.29 165.24C142.938 165.24 143.55 165.294 144.216 165.474V164.574C144.216 163.548 143.568 162.882 142.398 162.882C141.3 162.882 140.526 163.476 140.166 164.592L138.456 164.07C139.14 162.054 140.778 161.244 142.488 161.244C145.026 161.244 146.178 162.738 146.178 164.556V168.246C146.178 169.38 146.358 170.388 146.592 171ZM144.216 167.058V166.842C143.64 166.644 143.082 166.572 142.488 166.572C141.3 166.572 140.382 167.112 140.382 168.156C140.382 169.038 141.012 169.596 141.966 169.596C142.938 169.596 144.216 169.02 144.216 167.058ZM157.993 163.026H155.995V163.242C156.319 163.692 156.481 164.214 156.481 164.754C156.481 166.482 155.149 168.21 152.377 168.21H151.909C150.937 168.21 150.307 168.534 150.307 169.11C150.307 169.506 150.613 169.794 151.225 169.794H155.203C156.841 169.794 157.777 170.64 157.777 171.936C157.777 173.898 155.779 175.032 152.593 175.032C149.803 175.032 147.931 174.33 147.445 172.476L149.407 172.098C149.857 173.25 150.901 173.556 152.647 173.556C154.519 173.556 155.851 173.052 155.851 172.17C155.851 171.756 155.617 171.45 154.969 171.45H150.631C149.137 171.45 148.363 170.64 148.363 169.632C148.363 168.66 149.227 167.886 150.415 167.652C149.101 167.076 148.453 165.852 148.453 164.7C148.453 162.99 149.839 161.244 152.485 161.244C153.655 161.244 154.573 161.658 155.113 162.252V161.46H157.993V163.026ZM152.485 166.752C153.871 166.752 154.519 165.78 154.519 164.736C154.519 163.692 153.871 162.738 152.485 162.738C151.117 162.738 150.451 163.692 150.451 164.736C150.451 165.78 151.117 166.752 152.485 166.752ZM165.484 167.994L166.852 168.786C166.312 169.974 165.052 171.162 162.874 171.162C160.048 171.162 158.338 169.074 158.338 166.14C158.338 163.242 160.192 161.244 162.73 161.244C164.98 161.244 166.834 162.756 166.834 165.456L166.798 166.644H160.318C160.426 168.66 161.416 169.524 163 169.524C164.17 169.524 164.98 168.894 165.484 167.994ZM162.73 162.828C161.506 162.828 160.48 163.476 160.318 165.204H164.872C164.89 163.512 163.846 162.828 162.73 162.828ZM173.927 161.244C175.871 161.244 177.023 162.504 177.023 164.574V171H175.007V164.898C175.007 163.584 174.377 162.99 173.279 162.99C171.857 162.99 171.137 163.98 171.137 165.834V171H169.121V161.46H171.137V162.828C171.785 161.82 172.739 161.244 173.927 161.244ZM190.508 157.68H192.524V171H190.508V169.272C189.77 170.604 188.618 171.144 187.52 171.144C185.216 171.144 183.56 169.164 183.56 166.266C183.56 163.26 185.234 161.262 187.754 161.262C188.834 161.262 189.914 161.748 190.508 162.918V157.68ZM188.06 169.38C189.518 169.38 190.508 168.39 190.508 166.158C190.508 163.944 189.536 162.882 188.06 162.882C186.674 162.882 185.648 163.998 185.648 166.158C185.648 168.3 186.674 169.38 188.06 169.38ZM200.803 161.46H202.819V171H200.803V169.596C200.191 170.64 199.237 171.162 198.067 171.162C196.105 171.162 194.971 169.902 194.971 167.832V161.46H196.987V167.526C196.987 168.768 197.599 169.434 198.697 169.434C200.101 169.434 200.803 168.426 200.803 166.572V161.46ZM209.383 164.088C209.383 162.468 210.877 161.244 213.127 161.244C214.981 161.244 216.223 161.91 216.889 163.188L215.485 164.052C215.053 163.314 214.189 162.864 213.109 162.864C212.029 162.864 211.291 163.278 211.291 163.962C211.291 164.52 211.669 164.862 212.515 165.024L214.117 165.348C216.133 165.744 217.141 166.698 217.141 168.156C217.141 169.956 215.575 171.162 213.217 171.162C211.219 171.162 209.797 170.406 209.059 169.02L210.463 168.138C210.985 169.02 211.903 169.524 213.163 169.524C214.387 169.524 215.215 169.038 215.215 168.246C215.215 167.598 214.819 167.238 213.937 167.058L212.173 166.716C210.373 166.374 209.383 165.456 209.383 164.088ZM225.483 162.036C226.689 162.864 227.463 164.322 227.463 166.176C227.463 169.236 225.429 171.18 222.945 171.18C222.314 171.18 221.721 171.054 221.163 170.82L220.605 171.972H219.579L220.371 170.37C219.201 169.524 218.427 168.066 218.427 166.176C218.427 163.188 220.443 161.244 222.945 161.244C223.575 161.244 224.151 161.37 224.691 161.586L225.249 160.47H226.257L225.483 162.036ZM220.497 166.176C220.497 167.292 220.767 168.12 221.217 168.66L223.917 163.152C223.629 163.026 223.287 162.954 222.945 162.954C221.613 162.954 220.497 163.908 220.497 166.176ZM222.945 169.47C224.295 169.47 225.393 168.426 225.393 166.176C225.393 165.042 225.105 164.232 224.673 163.71L221.937 169.254C222.243 169.398 222.585 169.47 222.945 169.47ZM235.59 171L232.692 166.626L231.594 167.706V171H229.578V157.68H231.594V165.42L235.446 161.46H237.93L234.024 165.312L238.002 171H235.59ZM245.598 167.994L246.966 168.786C246.426 169.974 245.166 171.162 242.988 171.162C240.162 171.162 238.452 169.074 238.452 166.14C238.452 163.242 240.306 161.244 242.844 161.244C245.094 161.244 246.948 162.756 246.948 165.456L246.912 166.644H240.432C240.54 168.66 241.53 169.524 243.114 169.524C244.284 169.524 245.094 168.894 245.598 167.994ZM242.844 162.828C241.62 162.828 240.594 163.476 240.432 165.204H244.986C245.004 163.512 243.96 162.828 242.844 162.828ZM253.609 161.244C254.995 161.244 255.895 162.162 255.895 163.8V165.06L254.275 165.348V164.376C254.275 163.512 253.969 162.918 253.033 162.918C252.007 162.918 251.251 163.602 251.251 165.42V171H249.235V161.46H251.251V162.738C251.791 161.676 252.781 161.244 253.609 161.244ZM267.427 161.262C269.731 161.262 271.387 163.224 271.387 166.14C271.387 169.128 269.713 171.144 267.193 171.144C266.113 171.144 265.051 170.676 264.439 169.506V174.78H262.423V161.46H264.439V163.134C265.177 161.802 266.329 161.262 267.427 161.262ZM266.887 169.488C268.273 169.488 269.299 168.372 269.299 166.23C269.299 164.088 268.273 162.99 266.887 162.99C265.411 162.99 264.439 163.998 264.439 166.212C264.439 168.426 265.411 169.488 266.887 169.488ZM277.198 160.596C275.938 160.596 274.876 159.678 274.876 158.418C274.876 157.176 275.938 156.276 277.198 156.276C278.476 156.276 279.52 157.176 279.52 158.418C279.52 159.678 278.476 160.596 277.198 160.596ZM277.198 157.32C276.568 157.32 276.1 157.68 276.1 158.418C276.1 159.156 276.568 159.552 277.198 159.552C277.828 159.552 278.296 159.156 278.296 158.418C278.296 157.68 277.828 157.32 277.198 157.32ZM281.194 171H279.34C279.196 170.514 279.106 169.938 279.07 169.2C278.62 170.19 277.612 171.162 275.956 171.162C274.228 171.162 273.004 169.992 273.004 168.336C273.004 166.266 274.84 165.24 276.892 165.24C277.54 165.24 278.152 165.294 278.818 165.474V164.574C278.818 163.548 278.17 162.882 277 162.882C275.902 162.882 275.128 163.476 274.768 164.592L273.058 164.07C273.742 162.054 275.38 161.244 277.09 161.244C279.628 161.244 280.78 162.738 280.78 164.556V168.246C280.78 169.38 280.96 170.388 281.194 171ZM278.818 167.058V166.842C278.242 166.644 277.684 166.572 277.09 166.572C275.902 166.572 274.984 167.112 274.984 168.156C274.984 169.038 275.614 169.596 276.568 169.596C277.54 169.596 278.818 169.02 278.818 167.058ZM286.835 157.5C289.319 157.5 291.065 158.922 291.065 161.19C291.065 163.44 289.319 164.664 287.339 165.222L287.303 166.77H285.665L285.557 164.07C287.501 163.782 288.905 163.044 288.905 161.298C288.905 160.128 288.095 159.372 286.763 159.372C285.557 159.372 284.639 160.038 284.045 161.226L282.317 160.488C283.253 158.49 284.963 157.5 286.835 157.5ZM286.475 168.102C287.339 168.102 287.987 168.768 287.987 169.614C287.987 170.46 287.339 171.126 286.475 171.126C285.629 171.126 284.981 170.46 284.981 169.614C284.981 168.768 285.629 168.102 286.475 168.102Z" fill="#2A2859"/>
<circle cx="88" cy="207" r="11" stroke="#2A2859" stroke-width="2"/>
<circle cx="88" cy="207" r="7" fill="#2A2859"/>
<path d="M112.752 210.024V201.16H113.872V210.024C113.872 211.976 112.832 213.128 111.008 213.128C109.776 213.128 108.816 212.552 108.32 211.432L109.232 210.92C109.6 211.624 110.048 212.104 111.024 212.104C112.16 212.104 112.752 211.304 112.752 210.024ZM122.652 213H121.66C121.532 212.536 121.436 211.976 121.436 211.336C121.004 212.328 119.9 213.128 118.524 213.128C117.02 213.128 115.884 212.152 115.884 210.696C115.884 208.952 117.452 208.04 119.196 208.04C119.884 208.04 120.556 208.12 121.244 208.36V207.24C121.244 206.136 120.572 205.384 119.26 205.384C118.204 205.384 117.308 205.848 116.86 207.144L115.9 206.856C116.54 205.064 117.836 204.392 119.324 204.392C121.42 204.392 122.3 205.656 122.3 207.112V210.6C122.3 211.56 122.46 212.424 122.652 213ZM121.244 209.48V209.288C120.588 209.016 119.916 208.936 119.26 208.936C117.98 208.936 116.972 209.512 116.972 210.632C116.972 211.656 117.692 212.2 118.716 212.2C119.82 212.2 121.244 211.544 121.244 209.48Z" fill="#2A2859"/>
<rect x="77" y="236" width="22" height="22" rx="11" stroke="#2A2859" stroke-width="2"/>
<path d="M116.832 241.16H117.92V253H116.928L110.496 243.208V253H109.408V241.16H110.496L116.832 250.872V241.16ZM126.296 250.6L127.096 251.048C126.696 252.072 125.64 253.128 123.752 253.128C121.368 253.128 119.96 251.352 119.96 248.648C119.96 246.168 121.432 244.392 123.64 244.392C125.464 244.392 127.032 245.704 127.032 248.008L127 248.952H121.064C121.16 251.208 122.232 252.168 123.864 252.168C125.144 252.168 125.896 251.432 126.296 250.6ZM123.64 245.352C122.36 245.352 121.208 246.04 121.064 248.056H125.96C126.008 246.152 124.888 245.352 123.64 245.352ZM129.676 242.984C129.148 242.984 128.716 242.568 128.716 242.024C128.716 241.48 129.148 241.064 129.676 241.064C130.204 241.064 130.636 241.48 130.636 242.024C130.636 242.568 130.204 242.984 129.676 242.984ZM129.132 253V244.52H130.22V253H129.132Z" fill="#2A2859"/>
</g>
<defs>
<clipPath id="clip0_5855_4969">
<rect width="1116" height="326" fill="white"/>
</clipPath>
</defs>
</svg>
