<svg width="743" height="382" viewBox="0 0 743 382" fill="none" xmlns="http://www.w3.org/2000/svg">
<rect width="743" height="382" fill="white"/>
<path d="M145.36 121L141.13 114.898L139.672 116.446V121H137.566V107.68H139.672V113.818L145.288 107.68H147.88L142.48 113.458L147.952 121H145.36ZM153.691 111.244C155.077 111.244 155.977 112.162 155.977 113.8V115.06L154.357 115.348V114.376C154.357 113.512 154.051 112.918 153.115 112.918C152.089 112.918 151.333 113.602 151.333 115.42V121H149.317V111.46H151.333V112.738C151.873 111.676 152.863 111.244 153.691 111.244ZM163.927 111.46H166.033L162.163 121.738C161.407 123.736 160.489 124.996 158.527 124.996C157.735 124.996 156.979 124.744 156.421 124.276L157.177 122.872C157.537 123.196 157.897 123.358 158.365 123.358C159.103 123.358 159.643 122.998 160.039 122.026L160.363 121.27L156.709 111.46H158.959L161.443 119.056L163.927 111.46ZM166.764 114.088C166.764 112.468 168.258 111.244 170.508 111.244C172.362 111.244 173.604 111.91 174.27 113.188L172.866 114.052C172.434 113.314 171.57 112.864 170.49 112.864C169.41 112.864 168.672 113.278 168.672 113.962C168.672 114.52 169.05 114.862 169.896 115.024L171.498 115.348C173.514 115.744 174.522 116.698 174.522 118.156C174.522 119.956 172.956 121.162 170.598 121.162C168.6 121.162 167.178 120.406 166.44 119.02L167.844 118.138C168.366 119.02 169.284 119.524 170.544 119.524C171.768 119.524 172.596 119.038 172.596 118.246C172.596 117.598 172.2 117.238 171.318 117.058L169.554 116.716C167.754 116.374 166.764 115.456 166.764 114.088ZM176.092 114.088C176.092 112.468 177.586 111.244 179.836 111.244C181.69 111.244 182.932 111.91 183.598 113.188L182.194 114.052C181.762 113.314 180.898 112.864 179.818 112.864C178.738 112.864 178 113.278 178 113.962C178 114.52 178.378 114.862 179.224 115.024L180.826 115.348C182.842 115.744 183.85 116.698 183.85 118.156C183.85 119.956 182.284 121.162 179.926 121.162C177.928 121.162 176.506 120.406 175.768 119.02L177.172 118.138C177.694 119.02 178.612 119.524 179.872 119.524C181.096 119.524 181.924 119.038 181.924 118.246C181.924 117.598 181.528 117.238 180.646 117.058L178.882 116.716C177.082 116.374 176.092 115.456 176.092 114.088ZM198.014 121H196.16C196.016 120.514 195.926 119.938 195.89 119.2C195.44 120.19 194.432 121.162 192.776 121.162C191.048 121.162 189.824 119.992 189.824 118.336C189.824 116.266 191.66 115.24 193.712 115.24C194.36 115.24 194.972 115.294 195.638 115.474V114.574C195.638 113.548 194.99 112.882 193.82 112.882C192.722 112.882 191.948 113.476 191.588 114.592L189.878 114.07C190.562 112.054 192.2 111.244 193.91 111.244C196.448 111.244 197.6 112.738 197.6 114.556V118.246C197.6 119.38 197.78 120.388 198.014 121ZM195.638 117.058V116.842C195.062 116.644 194.504 116.572 193.91 116.572C192.722 116.572 191.804 117.112 191.804 118.156C191.804 119.038 192.434 119.596 193.388 119.596C194.36 119.596 195.638 119.02 195.638 117.058ZM206.038 111.46H208.126L204.472 121H202.402L198.766 111.46H200.998L203.518 118.894L206.038 111.46ZM216.739 110.596V111.46H219.421V113.026H216.739V121H214.723V113.026H213.049V111.46H214.723V110.686C214.723 108.616 216.073 107.41 217.945 107.41C218.827 107.41 219.709 107.77 220.231 108.418L219.277 109.75C218.989 109.39 218.557 109.174 218.089 109.174C217.351 109.174 216.739 109.606 216.739 110.596ZM224.407 121.18C221.923 121.18 219.889 119.236 219.889 116.176C219.889 113.188 221.905 111.244 224.407 111.244C226.909 111.244 228.925 113.188 228.925 116.176C228.925 119.236 226.891 121.18 224.407 121.18ZM224.407 119.47C225.757 119.47 226.855 118.426 226.855 116.176C226.855 113.908 225.739 112.954 224.407 112.954C223.075 112.954 221.959 113.908 221.959 116.176C221.959 118.426 223.075 119.47 224.407 119.47ZM235.415 111.244C236.801 111.244 237.701 112.162 237.701 113.8V115.06L236.081 115.348V114.376C236.081 113.512 235.775 112.918 234.839 112.918C233.813 112.918 233.057 113.602 233.057 115.42V121H231.041V111.46H233.057V112.738C233.597 111.676 234.587 111.244 235.415 111.244ZM249.863 111.46H251.879V121H249.863V119.596C249.251 120.64 248.297 121.162 247.127 121.162C245.165 121.162 244.031 119.902 244.031 117.832V111.46H246.047V117.526C246.047 118.768 246.659 119.434 247.757 119.434C249.161 119.434 249.863 118.426 249.863 116.572V111.46ZM257.241 118.048C257.241 119.11 257.889 119.434 258.555 119.434C259.077 119.434 259.491 119.218 259.905 118.804L260.769 120.1C260.049 120.82 259.257 121.162 258.231 121.162C256.575 121.162 255.225 120.154 255.225 118.174V113.026H253.551V111.46H255.225V109.336L257.241 108.418V111.46H260.607V113.026H257.241V118.048ZM267.537 111.262C269.841 111.262 271.497 113.224 271.497 116.14C271.497 119.128 269.823 121.144 267.303 121.144C266.205 121.144 265.143 120.658 264.531 119.47V121H262.515V107.68H264.531V113.17C265.269 111.82 266.439 111.262 267.537 111.262ZM266.997 119.488C268.383 119.488 269.409 118.372 269.409 116.23C269.409 114.088 268.383 112.99 266.997 112.99C265.521 112.99 264.531 113.998 264.531 116.212C264.531 118.426 265.521 119.488 266.997 119.488ZM280.169 117.994L281.537 118.786C280.997 119.974 279.737 121.162 277.559 121.162C274.733 121.162 273.023 119.074 273.023 116.14C273.023 113.242 274.877 111.244 277.415 111.244C279.665 111.244 281.519 112.756 281.519 115.456L281.483 116.644H275.003C275.111 118.66 276.101 119.524 277.685 119.524C278.855 119.524 279.665 118.894 280.169 117.994ZM277.415 112.828C276.191 112.828 275.165 113.476 275.003 115.204H279.557C279.575 113.512 278.531 112.828 277.415 112.828ZM286.33 118.048C286.33 119.11 286.978 119.434 287.644 119.434C288.166 119.434 288.58 119.218 288.994 118.804L289.858 120.1C289.138 120.82 288.346 121.162 287.32 121.162C285.664 121.162 284.314 120.154 284.314 118.174V113.026H282.64V111.46H284.314V109.336L286.33 108.418V111.46H289.696V113.026H286.33V118.048ZM299.026 121H297.172C297.028 120.514 296.938 119.938 296.902 119.2C296.452 120.19 295.444 121.162 293.788 121.162C292.06 121.162 290.836 119.992 290.836 118.336C290.836 116.266 292.672 115.24 294.724 115.24C295.372 115.24 295.984 115.294 296.65 115.474V114.574C296.65 113.548 296.002 112.882 294.832 112.882C293.734 112.882 292.96 113.476 292.6 114.592L290.89 114.07C291.574 112.054 293.212 111.244 294.922 111.244C297.46 111.244 298.612 112.738 298.612 114.556V118.246C298.612 119.38 298.792 120.388 299.026 121ZM296.65 117.058V116.842C296.074 116.644 295.516 116.572 294.922 116.572C293.734 116.572 292.816 117.112 292.816 118.156C292.816 119.038 293.446 119.596 294.4 119.596C295.372 119.596 296.65 119.02 296.65 117.058ZM305.17 120.946C304.792 121.054 304.414 121.108 304.018 121.108C302.2 121.108 301.336 120.028 301.336 118.282V107.68H303.352V118.138C303.352 118.966 303.838 119.344 304.576 119.344C304.756 119.344 304.954 119.326 305.17 119.272V120.946ZM308.208 109.876C307.416 109.876 306.786 109.264 306.786 108.454C306.786 107.644 307.416 107.032 308.208 107.032C309 107.032 309.612 107.644 309.612 108.454C309.612 109.264 309 109.876 308.208 109.876ZM307.2 121V111.46H309.216V121H307.2ZM316.904 111.244C318.848 111.244 320 112.504 320 114.574V121H317.984V114.898C317.984 113.584 317.354 112.99 316.256 112.99C314.834 112.99 314.114 113.98 314.114 115.834V121H312.098V111.46H314.114V112.828C314.762 111.82 315.716 111.244 316.904 111.244ZM331.888 113.026H329.89V113.242C330.214 113.692 330.376 114.214 330.376 114.754C330.376 116.482 329.044 118.21 326.272 118.21H325.804C324.832 118.21 324.202 118.534 324.202 119.11C324.202 119.506 324.508 119.794 325.12 119.794H329.098C330.736 119.794 331.672 120.64 331.672 121.936C331.672 123.898 329.674 125.032 326.488 125.032C323.698 125.032 321.826 124.33 321.34 122.476L323.302 122.098C323.752 123.25 324.796 123.556 326.542 123.556C328.414 123.556 329.746 123.052 329.746 122.17C329.746 121.756 329.512 121.45 328.864 121.45H324.526C323.032 121.45 322.258 120.64 322.258 119.632C322.258 118.66 323.122 117.886 324.31 117.652C322.996 117.076 322.348 115.852 322.348 114.7C322.348 112.99 323.734 111.244 326.38 111.244C327.55 111.244 328.468 111.658 329.008 112.252V111.46H331.888V113.026ZM326.38 116.752C327.766 116.752 328.414 115.78 328.414 114.736C328.414 113.692 327.766 112.738 326.38 112.738C325.012 112.738 324.346 113.692 324.346 114.736C324.346 115.78 325.012 116.752 326.38 116.752ZM339.379 117.994L340.747 118.786C340.207 119.974 338.947 121.162 336.769 121.162C333.943 121.162 332.233 119.074 332.233 116.14C332.233 113.242 334.087 111.244 336.625 111.244C338.875 111.244 340.729 112.756 340.729 115.456L340.693 116.644H334.213C334.321 118.66 335.311 119.524 336.895 119.524C338.065 119.524 338.875 118.894 339.379 117.994ZM336.625 112.828C335.401 112.828 334.375 113.476 334.213 115.204H338.767C338.785 113.512 337.741 112.828 336.625 112.828ZM347.389 111.244C348.775 111.244 349.675 112.162 349.675 113.8V115.06L348.055 115.348V114.376C348.055 113.512 347.749 112.918 346.813 112.918C345.787 112.918 345.031 113.602 345.031 115.42V121H343.015V111.46H345.031V112.738C345.571 111.676 346.561 111.244 347.389 111.244ZM362.557 107.68H364.573V121H362.557V119.272C361.819 120.604 360.667 121.144 359.569 121.144C357.265 121.144 355.609 119.164 355.609 116.266C355.609 113.26 357.283 111.262 359.803 111.262C360.883 111.262 361.963 111.748 362.557 112.918V107.68ZM360.109 119.38C361.567 119.38 362.557 118.39 362.557 116.158C362.557 113.944 361.585 112.882 360.109 112.882C358.723 112.882 357.697 113.998 357.697 116.158C357.697 118.3 358.723 119.38 360.109 119.38ZM372.852 111.46H374.868V121H372.852V119.596C372.24 120.64 371.286 121.162 370.116 121.162C368.154 121.162 367.02 119.902 367.02 117.832V111.46H369.036V117.526C369.036 118.768 369.648 119.434 370.746 119.434C372.15 119.434 372.852 118.426 372.852 116.572V111.46ZM384.635 110.596V111.46H387.317V113.026H384.635V121H382.619V113.026H380.945V111.46H382.619V110.686C382.619 108.616 383.969 107.41 385.841 107.41C386.723 107.41 387.605 107.77 388.127 108.418L387.173 109.75C386.885 109.39 386.453 109.174 385.985 109.174C385.247 109.174 384.635 109.606 384.635 110.596ZM392.07 110.596C390.81 110.596 389.748 109.678 389.748 108.418C389.748 107.176 390.81 106.276 392.07 106.276C393.348 106.276 394.392 107.176 394.392 108.418C394.392 109.678 393.348 110.596 392.07 110.596ZM392.07 107.32C391.44 107.32 390.972 107.68 390.972 108.418C390.972 109.156 391.44 109.552 392.07 109.552C392.7 109.552 393.168 109.156 393.168 108.418C393.168 107.68 392.7 107.32 392.07 107.32ZM396.066 121H394.212C394.068 120.514 393.978 119.938 393.942 119.2C393.492 120.19 392.484 121.162 390.828 121.162C389.1 121.162 387.876 119.992 387.876 118.336C387.876 116.266 389.712 115.24 391.764 115.24C392.412 115.24 393.024 115.294 393.69 115.474V114.574C393.69 113.548 393.042 112.882 391.872 112.882C390.774 112.882 390 113.476 389.64 114.592L387.93 114.07C388.614 112.054 390.252 111.244 391.962 111.244C394.5 111.244 395.652 112.738 395.652 114.556V118.246C395.652 119.38 395.832 120.388 396.066 121ZM393.69 117.058V116.842C393.114 116.644 392.556 116.572 391.962 116.572C390.774 116.572 389.856 117.112 389.856 118.156C389.856 119.038 390.486 119.596 391.44 119.596C392.412 119.596 393.69 119.02 393.69 117.058ZM402.855 111.244C404.241 111.244 405.141 112.162 405.141 113.8V115.06L403.521 115.348V114.376C403.521 113.512 403.215 112.918 402.279 112.918C401.253 112.918 400.497 113.602 400.497 115.42V121H398.481V111.46H400.497V112.738C401.037 111.676 402.027 111.244 402.855 111.244ZM405.675 118.174C406.629 118.174 407.331 118.93 407.331 120.388C407.331 121.918 406.611 123.322 404.883 124.564L404.343 123.88C405.387 123.106 406.071 122.26 405.999 121.018C405.891 121.036 405.765 121.054 405.621 121.054C404.847 121.054 404.163 120.514 404.163 119.614C404.163 118.768 404.811 118.174 405.675 118.174ZM420.798 117.994L422.166 118.786C421.626 119.974 420.366 121.162 418.188 121.162C415.362 121.162 413.652 119.074 413.652 116.14C413.652 113.242 415.506 111.244 418.044 111.244C420.294 111.244 422.148 112.756 422.148 115.456L422.112 116.644H415.632C415.74 118.66 416.73 119.524 418.314 119.524C419.484 119.524 420.294 118.894 420.798 117.994ZM418.044 112.828C416.82 112.828 415.794 113.476 415.632 115.204H420.186C420.204 113.512 419.16 112.828 418.044 112.828ZM428.269 120.946C427.891 121.054 427.513 121.108 427.117 121.108C425.299 121.108 424.435 120.028 424.435 118.282V107.68H426.451V118.138C426.451 118.966 426.937 119.344 427.675 119.344C427.855 119.344 428.053 119.326 428.269 119.272V120.946ZM434.028 120.946C433.65 121.054 433.272 121.108 432.876 121.108C431.058 121.108 430.194 120.028 430.194 118.282V107.68H432.21V118.138C432.21 118.966 432.696 119.344 433.434 119.344C433.614 119.344 433.812 119.326 434.028 119.272V120.946ZM442.294 117.994L443.662 118.786C443.122 119.974 441.862 121.162 439.684 121.162C436.858 121.162 435.148 119.074 435.148 116.14C435.148 113.242 437.002 111.244 439.54 111.244C441.79 111.244 443.644 112.756 443.644 115.456L443.608 116.644H437.128C437.236 118.66 438.226 119.524 439.81 119.524C440.98 119.524 441.79 118.894 442.294 117.994ZM439.54 112.828C438.316 112.828 437.29 113.476 437.128 115.204H441.682C441.7 113.512 440.656 112.828 439.54 112.828ZM450.304 111.244C451.69 111.244 452.59 112.162 452.59 113.8V115.06L450.97 115.348V114.376C450.97 113.512 450.664 112.918 449.728 112.918C448.702 112.918 447.946 113.602 447.946 115.42V121H445.93V111.46H447.946V112.738C448.486 111.676 449.476 111.244 450.304 111.244ZM463.924 111.244C465.868 111.244 467.02 112.504 467.02 114.574V121H465.004V114.898C465.004 113.584 464.374 112.99 463.276 112.99C461.854 112.99 461.134 113.98 461.134 115.834V121H459.118V111.46H461.134V112.828C461.782 111.82 462.736 111.244 463.924 111.244ZM475.75 111.46H477.856L473.986 121.738C473.23 123.736 472.312 124.996 470.35 124.996C469.558 124.996 468.802 124.744 468.244 124.276L469 122.872C469.36 123.196 469.72 123.358 470.188 123.358C470.926 123.358 471.466 122.998 471.862 122.026L472.186 121.27L468.532 111.46H470.782L473.266 119.056L475.75 111.46ZM483.206 120.946C482.828 121.054 482.45 121.108 482.054 121.108C480.236 121.108 479.372 120.028 479.372 118.282V107.68H481.388V118.138C481.388 118.966 481.874 119.344 482.612 119.344C482.792 119.344 482.99 119.326 483.206 119.272V120.946ZM486.245 109.876C485.453 109.876 484.823 109.264 484.823 108.454C484.823 107.644 485.453 107.032 486.245 107.032C487.037 107.032 487.649 107.644 487.649 108.454C487.649 109.264 487.037 109.876 486.245 109.876ZM485.237 121V111.46H487.253V121H485.237ZM499.297 113.026H497.299V113.242C497.623 113.692 497.785 114.214 497.785 114.754C497.785 116.482 496.453 118.21 493.681 118.21H493.213C492.241 118.21 491.611 118.534 491.611 119.11C491.611 119.506 491.917 119.794 492.529 119.794H496.507C498.145 119.794 499.081 120.64 499.081 121.936C499.081 123.898 497.083 125.032 493.897 125.032C491.107 125.032 489.235 124.33 488.749 122.476L490.711 122.098C491.161 123.25 492.205 123.556 493.951 123.556C495.823 123.556 497.155 123.052 497.155 122.17C497.155 121.756 496.921 121.45 496.273 121.45H491.935C490.441 121.45 489.667 120.64 489.667 119.632C489.667 118.66 490.531 117.886 491.719 117.652C490.405 117.076 489.757 115.852 489.757 114.7C489.757 112.99 491.143 111.244 493.789 111.244C494.959 111.244 495.877 111.658 496.417 112.252V111.46H499.297V113.026ZM493.789 116.752C495.175 116.752 495.823 115.78 495.823 114.736C495.823 113.692 495.175 112.738 493.789 112.738C492.421 112.738 491.755 113.692 491.755 114.736C491.755 115.78 492.421 116.752 493.789 116.752ZM510.098 111.244C512.042 111.244 513.194 112.504 513.194 114.574V121H511.178V114.898C511.178 113.584 510.548 112.99 509.45 112.99C508.028 112.99 507.29 113.98 507.29 115.834V121H505.274V107.68H507.29V112.846C507.938 111.82 508.91 111.244 510.098 111.244ZM523.605 121H521.751C521.607 120.514 521.517 119.938 521.481 119.2C521.031 120.19 520.023 121.162 518.367 121.162C516.639 121.162 515.415 119.992 515.415 118.336C515.415 116.266 517.251 115.24 519.303 115.24C519.951 115.24 520.563 115.294 521.229 115.474V114.574C521.229 113.548 520.581 112.882 519.411 112.882C518.313 112.882 517.539 113.476 517.179 114.592L515.469 114.07C516.153 112.054 517.791 111.244 519.501 111.244C522.039 111.244 523.191 112.738 523.191 114.556V118.246C523.191 119.38 523.371 120.388 523.605 121ZM521.229 117.058V116.842C520.653 116.644 520.095 116.572 519.501 116.572C518.313 116.572 517.395 117.112 517.395 118.156C517.395 119.038 518.025 119.596 518.979 119.596C519.951 119.596 521.229 119.02 521.229 117.058ZM530.394 111.244C531.78 111.244 532.68 112.162 532.68 113.8V115.06L531.06 115.348V114.376C531.06 113.512 530.754 112.918 529.818 112.918C528.792 112.918 528.036 113.602 528.036 115.42V121H526.02V111.46H528.036V112.738C528.576 111.676 529.566 111.244 530.394 111.244ZM538.704 114.088C538.704 112.468 540.198 111.244 542.448 111.244C544.302 111.244 545.544 111.91 546.21 113.188L544.806 114.052C544.374 113.314 543.51 112.864 542.43 112.864C541.35 112.864 540.612 113.278 540.612 113.962C540.612 114.52 540.99 114.862 541.836 115.024L543.438 115.348C545.454 115.744 546.462 116.698 546.462 118.156C546.462 119.956 544.896 121.162 542.538 121.162C540.54 121.162 539.118 120.406 538.38 119.02L539.784 118.138C540.306 119.02 541.224 119.524 542.484 119.524C543.708 119.524 544.536 119.038 544.536 118.246C544.536 117.598 544.14 117.238 543.258 117.058L541.494 116.716C539.694 116.374 538.704 115.456 538.704 114.088ZM554.804 112.036C556.01 112.864 556.784 114.322 556.784 116.176C556.784 119.236 554.75 121.18 552.266 121.18C551.636 121.18 551.042 121.054 550.484 120.82L549.926 121.972H548.9L549.692 120.37C548.522 119.524 547.748 118.066 547.748 116.176C547.748 113.188 549.764 111.244 552.266 111.244C552.896 111.244 553.472 111.37 554.012 111.586L554.57 110.47H555.578L554.804 112.036ZM549.818 116.176C549.818 117.292 550.088 118.12 550.538 118.66L553.238 113.152C552.95 113.026 552.608 112.954 552.266 112.954C550.934 112.954 549.818 113.908 549.818 116.176ZM552.266 119.47C553.616 119.47 554.714 118.426 554.714 116.176C554.714 115.042 554.426 114.232 553.994 113.71L551.258 119.254C551.564 119.398 551.906 119.47 552.266 119.47ZM564.912 121L562.014 116.626L560.916 117.706V121H558.9V107.68H560.916V115.42L564.768 111.46H567.252L563.346 115.312L567.324 121H564.912ZM571.314 118.048C571.314 119.11 571.962 119.434 572.628 119.434C573.15 119.434 573.564 119.218 573.978 118.804L574.842 120.1C574.122 120.82 573.33 121.162 572.304 121.162C570.648 121.162 569.298 120.154 569.298 118.174V113.026H567.624V111.46H569.298V109.336L571.314 108.418V111.46H574.68V113.026H571.314V118.048ZM584.917 121.18C582.433 121.18 580.399 119.236 580.399 116.176C580.399 113.188 582.415 111.244 584.917 111.244C587.419 111.244 589.435 113.188 589.435 116.176C589.435 119.236 587.401 121.18 584.917 121.18ZM584.917 119.47C586.267 119.47 587.365 118.426 587.365 116.176C587.365 113.908 586.249 112.954 584.917 112.954C583.585 112.954 582.469 113.908 582.469 116.176C582.469 118.426 583.585 119.47 584.917 119.47ZM602.063 111.244C603.971 111.244 605.069 112.486 605.069 114.484V121H603.053V114.826C603.053 113.566 602.459 112.99 601.415 112.99C600.011 112.99 599.309 113.962 599.309 115.834V121H597.293V114.826C597.293 113.566 596.699 112.99 595.655 112.99C594.269 112.99 593.567 113.962 593.567 115.834V121H591.551V111.46H593.567V112.81C594.215 111.784 595.151 111.244 596.303 111.244C597.761 111.244 598.715 111.946 599.129 113.134C599.777 111.874 600.785 111.244 602.063 111.244Z" fill="#2A2859"/>
<rect x="137" y="138" width="22" height="22" fill="#2A2859"/>
<path fill-rule="evenodd" clip-rule="evenodd" d="M153.778 146.161L146.498 153.441L142.218 149.161L143.278 148.1L146.498 151.32L152.718 145.1L153.778 146.161Z" fill="white"/>
<rect x="137" y="138" width="22" height="22" stroke="#2A2859" stroke-width="2"/>
<path d="M174.272 155.128C171.104 155.128 168.8 152.76 168.8 149.016C168.8 145.384 171.216 143.032 174.176 143.032C176.256 143.032 177.728 143.992 178.416 145.624L177.392 146.104C176.8 144.776 175.552 144.088 174.144 144.088C171.824 144.088 169.952 145.752 169.952 149.016C169.952 152.28 171.744 154.136 174.32 154.136C175.632 154.136 176.544 153.864 177.408 153.336V149.784H173.056V148.76H178.432V153.784C177.456 154.648 175.84 155.128 174.272 155.128ZM184.127 155.128C182.031 155.128 180.351 153.4 180.351 150.744C180.351 148.12 182.015 146.392 184.127 146.392C186.239 146.392 187.903 148.12 187.903 150.744C187.903 153.4 186.223 155.128 184.127 155.128ZM184.127 154.168C185.583 154.168 186.783 153.016 186.783 150.744C186.783 148.488 185.567 147.352 184.127 147.352C182.687 147.352 181.471 148.488 181.471 150.744C181.471 153.016 182.671 154.168 184.127 154.168ZM195.77 143.16H196.858V155H195.77V153.416C195.21 154.504 194.09 155.112 192.986 155.112C190.826 155.112 189.37 153.304 189.37 150.84C189.37 148.232 190.842 146.392 193.114 146.392C194.298 146.392 195.258 146.984 195.77 148.056V143.16ZM193.098 154.152C194.794 154.152 195.77 152.888 195.77 150.808C195.77 148.6 194.81 147.352 193.114 147.352C191.53 147.352 190.49 148.568 190.49 150.792C190.49 152.936 191.53 154.152 193.098 154.152ZM201.034 152.888C201.034 153.88 201.626 154.168 202.155 154.168C202.666 154.168 203.003 153.976 203.402 153.56L203.978 154.2C203.418 154.856 202.81 155.128 202.058 155.128C200.906 155.128 199.946 154.36 199.946 152.856V147.416H198.346V146.52H199.946V144.696L201.034 144.056V146.52H203.786V147.416H201.034V152.888ZM212.614 147.416H210.79V147.72C211.206 148.232 211.43 148.872 211.43 149.496C211.43 151.048 210.31 152.632 207.926 152.632H207.558C206.598 152.632 205.91 153 205.91 153.56C205.91 153.992 206.246 154.296 206.95 154.296H210.39C211.766 154.296 212.47 154.968 212.47 156.024C212.47 157.704 210.534 158.584 208.15 158.584C206.006 158.584 204.518 157.896 204.006 156.408L204.886 156.008C205.478 157.4 206.726 157.672 208.15 157.672C209.91 157.672 211.382 157.144 211.382 156.12C211.382 155.64 211.126 155.288 210.358 155.288H206.71C205.526 155.288 204.822 154.728 204.822 153.848C204.822 153.096 205.446 152.44 206.486 152.168C205.366 151.72 204.742 150.536 204.742 149.496C204.742 147.976 205.878 146.392 208.118 146.392C208.998 146.392 209.67 146.68 210.182 147.112V146.52H212.614V147.416ZM208.102 151.736C209.606 151.736 210.358 150.696 210.358 149.496C210.358 148.312 209.606 147.32 208.102 147.32C206.582 147.32 205.814 148.328 205.814 149.496C205.814 150.68 206.582 151.736 208.102 151.736ZM214.747 144.984C214.219 144.984 213.787 144.568 213.787 144.024C213.787 143.48 214.219 143.064 214.747 143.064C215.275 143.064 215.707 143.48 215.707 144.024C215.707 144.568 215.275 144.984 214.747 144.984ZM213.467 158.472C213.179 158.472 212.907 158.424 212.635 158.344L212.731 157.384C212.955 157.464 213.163 157.48 213.307 157.48C214.059 157.48 214.203 156.968 214.203 156.232V146.52H215.291V156.296C215.291 157.736 214.667 158.472 213.467 158.472ZM223.304 147.16C224.248 147.912 224.856 149.16 224.856 150.744C224.856 153.4 223.176 155.128 221.08 155.128C220.488 155.128 219.928 154.984 219.432 154.728L218.904 155.768H218.136L218.856 154.36C217.912 153.608 217.304 152.344 217.304 150.744C217.304 148.12 218.968 146.392 221.08 146.392C221.672 146.392 222.232 146.536 222.728 146.776L223.256 145.752H224.024L223.304 147.16ZM218.424 150.744C218.424 151.976 218.776 152.872 219.32 153.448L222.28 147.656C221.912 147.448 221.512 147.352 221.08 147.352C219.64 147.352 218.424 148.488 218.424 150.744ZM221.08 154.168C222.536 154.168 223.736 153.016 223.736 150.744C223.736 149.528 223.384 148.648 222.84 148.072L219.88 153.864C220.232 154.072 220.648 154.168 221.08 154.168ZM229.907 146.392C231.011 146.392 231.811 147.128 231.811 148.568V149.4L230.819 149.592V148.76C230.819 147.912 230.531 147.352 229.667 147.352C228.691 147.352 227.955 148.072 227.955 149.784V155H226.867V146.52H227.955V147.576C228.403 146.776 229.155 146.392 229.907 146.392ZM239.068 152.6L239.868 153.048C239.468 154.072 238.412 155.128 236.524 155.128C234.14 155.128 232.732 153.352 232.732 150.648C232.732 148.168 234.204 146.392 236.412 146.392C238.236 146.392 239.804 147.704 239.804 150.008L239.772 150.952H233.836C233.932 153.208 235.004 154.168 236.636 154.168C237.916 154.168 238.668 153.432 239.068 152.6ZM236.412 147.352C235.132 147.352 233.98 148.04 233.836 150.056H238.732C238.78 148.152 237.66 147.352 236.412 147.352ZM244.56 154.968C244.304 155.032 244.096 155.064 243.856 155.064C242.528 155.064 241.904 154.232 241.904 152.984V143.16H242.992V152.984C242.992 153.704 243.376 154.072 244.048 154.072C244.224 154.072 244.4 154.056 244.56 154.008V154.968ZM245.929 148.728C245.929 147.384 247.193 146.392 248.969 146.392C250.505 146.392 251.689 147.128 252.041 148.248L251.145 148.6C250.809 147.784 250.025 147.352 248.937 147.352C247.753 147.352 246.985 147.848 246.985 148.632C246.985 149.336 247.449 149.768 248.457 149.976L249.577 150.2C251.433 150.568 252.297 151.368 252.297 152.632C252.297 154.104 250.985 155.128 249.097 155.128C247.385 155.128 246.185 154.456 245.609 153.176L246.537 152.792C246.937 153.688 247.817 154.168 249.065 154.168C250.377 154.168 251.241 153.592 251.241 152.728C251.241 151.928 250.793 151.496 249.673 151.256L248.297 150.968C246.745 150.648 245.929 149.864 245.929 148.728ZM260.031 152.6L260.831 153.048C260.431 154.072 259.375 155.128 257.487 155.128C255.103 155.128 253.695 153.352 253.695 150.648C253.695 148.168 255.167 146.392 257.375 146.392C259.199 146.392 260.767 147.704 260.767 150.008L260.735 150.952H254.799C254.895 153.208 255.967 154.168 257.599 154.168C258.879 154.168 259.631 153.432 260.031 152.6ZM257.375 147.352C256.095 147.352 254.943 148.04 254.799 150.056H259.695C259.743 148.152 258.623 147.352 257.375 147.352ZM272.552 152.6L273.352 153.048C272.952 154.072 271.896 155.128 270.008 155.128C267.624 155.128 266.216 153.352 266.216 150.648C266.216 148.168 267.688 146.392 269.896 146.392C271.72 146.392 273.288 147.704 273.288 150.008L273.256 150.952H267.32C267.416 153.208 268.488 154.168 270.12 154.168C271.4 154.168 272.152 153.432 272.552 152.6ZM269.896 147.352C268.616 147.352 267.464 148.04 267.32 150.056H272.216C272.264 148.152 271.144 147.352 269.896 147.352ZM278.044 154.968C277.788 155.032 277.58 155.064 277.34 155.064C276.012 155.064 275.388 154.232 275.388 152.984V143.16H276.476V152.984C276.476 153.704 276.86 154.072 277.532 154.072C277.708 154.072 277.884 154.056 278.044 154.008V154.968ZM282.485 154.968C282.229 155.032 282.021 155.064 281.781 155.064C280.453 155.064 279.829 154.232 279.829 152.984V143.16H280.917V152.984C280.917 153.704 281.301 154.072 281.973 154.072C282.149 154.072 282.325 154.056 282.485 154.008V154.968ZM289.812 152.6L290.612 153.048C290.212 154.072 289.156 155.128 287.268 155.128C284.884 155.128 283.476 153.352 283.476 150.648C283.476 148.168 284.948 146.392 287.156 146.392C288.98 146.392 290.548 147.704 290.548 150.008L290.516 150.952H284.58C284.676 153.208 285.748 154.168 287.38 154.168C288.66 154.168 289.412 153.432 289.812 152.6ZM287.156 147.352C285.876 147.352 284.724 148.04 284.58 150.056H289.476C289.524 148.152 288.404 147.352 287.156 147.352ZM295.688 146.392C296.792 146.392 297.592 147.128 297.592 148.568V149.4L296.6 149.592V148.76C296.6 147.912 296.312 147.352 295.448 147.352C294.472 147.352 293.736 148.072 293.736 149.784V155H292.648V146.52H293.736V147.576C294.184 146.776 294.936 146.392 295.688 146.392ZM306.091 154.968C305.835 155.032 305.627 155.064 305.387 155.064C304.059 155.064 303.435 154.232 303.435 152.984V143.16H304.523V152.984C304.523 153.704 304.907 154.072 305.579 154.072C305.755 154.072 305.931 154.056 306.091 154.008V154.968ZM313.082 147.16C314.026 147.912 314.634 149.16 314.634 150.744C314.634 153.4 312.954 155.128 310.858 155.128C310.266 155.128 309.706 154.984 309.21 154.728L308.682 155.768H307.914L308.634 154.36C307.69 153.608 307.082 152.344 307.082 150.744C307.082 148.12 308.746 146.392 310.858 146.392C311.45 146.392 312.01 146.536 312.506 146.776L313.034 145.752H313.802L313.082 147.16ZM308.202 150.744C308.202 151.976 308.554 152.872 309.098 153.448L312.058 147.656C311.69 147.448 311.29 147.352 310.858 147.352C309.418 147.352 308.202 148.488 308.202 150.744ZM310.858 154.168C312.314 154.168 313.514 153.016 313.514 150.744C313.514 149.528 313.162 148.648 312.618 148.072L309.658 153.864C310.01 154.072 310.426 154.168 310.858 154.168ZM320.197 146.392C321.893 146.392 322.885 147.432 322.885 149.336V155H321.797V149.496C321.797 147.96 321.093 147.384 319.909 147.384C318.421 147.384 317.733 148.536 317.733 150.232V155H316.645V146.52H317.733V147.832C318.245 146.904 319.173 146.392 320.197 146.392ZM328.856 146.392C330.552 146.392 331.544 147.432 331.544 149.336V155H330.456V149.496C330.456 147.96 329.752 147.384 328.568 147.384C327.08 147.384 326.392 148.536 326.392 150.232V155H325.304V146.52H326.392V147.832C326.904 146.904 327.832 146.392 328.856 146.392ZM339.553 145.336V146.52H341.921V147.416H339.553V155H338.465V147.416H336.865V146.52H338.465V145.336C338.465 143.864 339.425 143.032 340.737 143.032C341.345 143.032 342.049 143.272 342.449 143.912L341.793 144.568C341.537 144.184 341.153 143.96 340.705 143.96C340.145 143.96 339.553 144.296 339.553 145.336ZM346.124 155.128C344.028 155.128 342.348 153.4 342.348 150.744C342.348 148.12 344.012 146.392 346.124 146.392C348.236 146.392 349.9 148.12 349.9 150.744C349.9 153.4 348.22 155.128 346.124 155.128ZM346.124 154.168C347.58 154.168 348.78 153.016 348.78 150.744C348.78 148.488 347.564 147.352 346.124 147.352C344.684 147.352 343.468 148.488 343.468 150.744C343.468 153.016 344.668 154.168 346.124 154.168ZM354.95 146.392C356.054 146.392 356.854 147.128 356.854 148.568V149.4L355.862 149.592V148.76C355.862 147.912 355.574 147.352 354.71 147.352C353.734 147.352 352.998 148.072 352.998 149.784V155H351.91V146.52H352.998V147.576C353.446 146.776 354.198 146.392 354.95 146.392ZM368.106 146.52H369.226L365.898 155H364.938L361.61 146.52H362.794L365.45 153.8L368.106 146.52ZM376.165 152.6L376.965 153.048C376.565 154.072 375.509 155.128 373.621 155.128C371.237 155.128 369.829 153.352 369.829 150.648C369.829 148.168 371.301 146.392 373.509 146.392C375.333 146.392 376.901 147.704 376.901 150.008L376.869 150.952H370.933C371.029 153.208 372.101 154.168 373.733 154.168C375.013 154.168 375.765 153.432 376.165 152.6ZM373.509 147.352C372.229 147.352 371.077 148.04 370.933 150.056H375.829C375.877 148.152 374.757 147.352 373.509 147.352ZM382.041 146.392C383.145 146.392 383.945 147.128 383.945 148.568V149.4L382.953 149.592V148.76C382.953 147.912 382.665 147.352 381.801 147.352C380.825 147.352 380.089 148.072 380.089 149.784V155H379.001V146.52H380.089V147.576C380.537 146.776 381.289 146.392 382.041 146.392ZM390.99 146.52H392.11L388.782 155H387.822L384.494 146.52H385.678L388.334 153.8L390.99 146.52Z" fill="#2A2859"/>
<rect x="137" y="178" width="22" height="22" fill="white"/>
<rect x="137" y="178" width="22" height="22" stroke="#2A2859" stroke-width="2"/>
<path d="M177.024 184.136C178.24 185.144 179.04 186.824 179.04 189.016C179.04 192.808 176.736 195.128 173.92 195.128C173.024 195.128 172.176 194.888 171.424 194.44L170.816 195.576H169.952L170.816 193.992C169.584 192.952 168.8 191.24 168.8 189.016C168.8 185.288 171.104 183.032 173.92 183.032C174.816 183.032 175.664 183.256 176.4 183.688L176.992 182.584H177.856L177.024 184.136ZM169.952 189.016C169.952 190.84 170.496 192.184 171.344 193.016L175.904 184.6C175.328 184.248 174.64 184.088 173.92 184.088C171.712 184.088 169.952 185.608 169.952 189.016ZM173.92 194.072C176.064 194.072 177.888 192.36 177.888 189.016C177.888 187.144 177.36 185.848 176.512 185.048L171.936 193.512C172.528 193.88 173.2 194.072 173.92 194.072ZM186.3 195L183.18 190.792L182.14 191.784V195H181.052V183.16H182.14V190.504L186.172 186.52H187.612L183.916 190.072L187.676 195H186.3ZM191.896 195.128C189.8 195.128 188.12 193.4 188.12 190.744C188.12 188.12 189.784 186.392 191.896 186.392C194.008 186.392 195.672 188.12 195.672 190.744C195.672 193.4 193.992 195.128 191.896 195.128ZM191.896 194.168C193.352 194.168 194.552 193.016 194.552 190.744C194.552 188.488 193.336 187.352 191.896 187.352C190.456 187.352 189.24 188.488 189.24 190.744C189.24 193.016 190.44 194.168 191.896 194.168ZM201.234 186.392C202.93 186.392 203.922 187.432 203.922 189.336V195H202.834V189.496C202.834 187.96 202.13 187.384 200.946 187.384C199.458 187.384 198.77 188.536 198.77 190.232V195H197.682V186.52H198.77V187.832C199.282 186.904 200.21 186.392 201.234 186.392ZM209.574 195.128C207.478 195.128 205.798 193.4 205.798 190.744C205.798 188.12 207.462 186.392 209.574 186.392C211.686 186.392 213.35 188.12 213.35 190.744C213.35 193.4 211.67 195.128 209.574 195.128ZM209.574 194.168C211.03 194.168 212.23 193.016 212.23 190.744C212.23 188.488 211.014 187.352 209.574 187.352C208.134 187.352 206.918 188.488 206.918 190.744C206.918 193.016 208.118 194.168 209.574 194.168ZM223.808 186.392C225.424 186.392 226.368 187.416 226.368 189.176V195H225.28V189.336C225.28 187.96 224.624 187.384 223.52 187.384C222.032 187.384 221.408 188.536 221.408 190.232V195H220.32V189.336C220.32 187.96 219.664 187.384 218.56 187.384C217.072 187.384 216.448 188.536 216.448 190.232V195H215.36V186.52H216.448V187.848C216.96 186.904 217.856 186.392 218.848 186.392C220.112 186.392 220.96 187.016 221.264 188.12C221.744 187 222.72 186.392 223.808 186.392ZM229.329 184.984C228.801 184.984 228.369 184.568 228.369 184.024C228.369 183.48 228.801 183.064 229.329 183.064C229.857 183.064 230.289 183.48 230.289 184.024C230.289 184.568 229.857 184.984 229.329 184.984ZM228.785 195V186.52H229.873V195H228.785ZM232.013 188.728C232.013 187.384 233.277 186.392 235.053 186.392C236.589 186.392 237.773 187.128 238.125 188.248L237.229 188.6C236.893 187.784 236.109 187.352 235.021 187.352C233.837 187.352 233.069 187.848 233.069 188.632C233.069 189.336 233.533 189.768 234.541 189.976L235.661 190.2C237.517 190.568 238.381 191.368 238.381 192.632C238.381 194.104 237.069 195.128 235.181 195.128C233.469 195.128 232.269 194.456 231.693 193.176L232.621 192.792C233.021 193.688 233.901 194.168 235.149 194.168C236.461 194.168 237.325 193.592 237.325 192.728C237.325 191.928 236.877 191.496 235.757 191.256L234.381 190.968C232.829 190.648 232.013 189.864 232.013 188.728ZM245.603 195L242.483 190.792L241.443 191.784V195H240.355V183.16H241.443V190.504L245.475 186.52H246.915L243.219 190.072L246.979 195H245.603ZM252.085 188.728C252.085 187.384 253.349 186.392 255.125 186.392C256.661 186.392 257.845 187.128 258.197 188.248L257.301 188.6C256.965 187.784 256.181 187.352 255.093 187.352C253.909 187.352 253.141 187.848 253.141 188.632C253.141 189.336 253.605 189.768 254.613 189.976L255.733 190.2C257.589 190.568 258.453 191.368 258.453 192.632C258.453 194.104 257.141 195.128 255.253 195.128C253.541 195.128 252.341 194.456 251.765 193.176L252.693 192.792C253.093 193.688 253.973 194.168 255.221 194.168C256.533 194.168 257.397 193.592 257.397 192.728C257.397 191.928 256.949 191.496 255.829 191.256L254.453 190.968C252.901 190.648 252.085 189.864 252.085 188.728ZM263.627 195.128C261.531 195.128 259.851 193.4 259.851 190.744C259.851 188.12 261.515 186.392 263.627 186.392C265.739 186.392 267.403 188.12 267.403 190.744C267.403 193.4 265.723 195.128 263.627 195.128ZM263.627 194.168C265.083 194.168 266.283 193.016 266.283 190.744C266.283 188.488 265.067 187.352 263.627 187.352C262.187 187.352 260.971 188.488 260.971 190.744C260.971 193.016 262.171 194.168 263.627 194.168ZM268.997 188.728C268.997 187.384 270.261 186.392 272.037 186.392C273.573 186.392 274.757 187.128 275.109 188.248L274.213 188.6C273.877 187.784 273.093 187.352 272.005 187.352C270.821 187.352 270.053 187.848 270.053 188.632C270.053 189.336 270.517 189.768 271.525 189.976L272.645 190.2C274.501 190.568 275.365 191.368 275.365 192.632C275.365 194.104 274.053 195.128 272.165 195.128C270.453 195.128 269.253 194.456 268.677 193.176L269.605 192.792C270.005 193.688 270.885 194.168 272.133 194.168C273.445 194.168 274.309 193.592 274.309 192.728C274.309 191.928 273.861 191.496 272.741 191.256L271.365 190.968C269.813 190.648 268.997 189.864 268.997 188.728ZM277.019 183.224H278.683V184.856H277.019V183.224ZM277.307 195V186.52H278.395V195H277.307ZM287.271 195H286.279C286.151 194.536 286.055 193.976 286.055 193.336C285.623 194.328 284.519 195.128 283.143 195.128C281.639 195.128 280.503 194.152 280.503 192.696C280.503 190.952 282.071 190.04 283.815 190.04C284.503 190.04 285.175 190.12 285.863 190.36V189.24C285.863 188.136 285.191 187.384 283.879 187.384C282.823 187.384 281.927 187.848 281.479 189.144L280.519 188.856C281.159 187.064 282.455 186.392 283.943 186.392C286.039 186.392 286.919 187.656 286.919 189.112V192.6C286.919 193.56 287.079 194.424 287.271 195ZM285.863 191.48V191.288C285.207 191.016 284.535 190.936 283.879 190.936C282.599 190.936 281.591 191.512 281.591 192.632C281.591 193.656 282.311 194.2 283.335 194.2C284.439 194.2 285.863 193.544 285.863 191.48ZM292.126 194.968C291.87 195.032 291.662 195.064 291.422 195.064C290.094 195.064 289.47 194.232 289.47 192.984V183.16H290.558V192.984C290.558 193.704 290.942 194.072 291.614 194.072C291.79 194.072 291.966 194.056 292.126 194.008V194.968ZM297.494 186.392C299.19 186.392 300.182 187.432 300.182 189.336V195H299.094V189.496C299.094 187.96 298.39 187.384 297.206 187.384C295.718 187.384 295.03 188.536 295.03 190.232V195H293.942V183.16H295.03V187.832C295.542 186.904 296.47 186.392 297.494 186.392ZM303.081 184.984C302.553 184.984 302.121 184.568 302.121 184.024C302.121 183.48 302.553 183.064 303.081 183.064C303.609 183.064 304.041 183.48 304.041 184.024C304.041 184.568 303.609 184.984 303.081 184.984ZM301.801 198.472C301.513 198.472 301.241 198.424 300.969 198.344L301.065 197.384C301.289 197.464 301.497 197.48 301.641 197.48C302.393 197.48 302.537 196.968 302.537 196.232V186.52H303.625V196.296C303.625 197.736 303.001 198.472 301.801 198.472ZM311.974 192.6L312.774 193.048C312.374 194.072 311.318 195.128 309.43 195.128C307.046 195.128 305.638 193.352 305.638 190.648C305.638 188.168 307.11 186.392 309.318 186.392C311.142 186.392 312.71 187.704 312.71 190.008L312.678 190.952H306.742C306.838 193.208 307.91 194.168 309.542 194.168C310.822 194.168 311.574 193.432 311.974 192.6ZM309.318 187.352C308.038 187.352 306.886 188.04 306.742 190.056H311.638C311.686 188.152 310.566 187.352 309.318 187.352ZM317.466 194.968C317.21 195.032 317.002 195.064 316.762 195.064C315.434 195.064 314.81 194.232 314.81 192.984V183.16H315.898V192.984C315.898 193.704 316.282 194.072 316.954 194.072C317.13 194.072 317.306 194.056 317.466 194.008V194.968ZM323.123 186.408C325.283 186.408 326.739 188.216 326.739 190.68C326.739 193.288 325.267 195.128 322.995 195.128C321.811 195.128 320.851 194.536 320.339 193.464V198.36H319.251V186.52H320.339V188.104C320.899 187.016 322.019 186.408 323.123 186.408ZM322.995 194.168C324.579 194.168 325.619 192.952 325.619 190.728C325.619 188.584 324.579 187.368 323.011 187.368C321.315 187.368 320.339 188.632 320.339 190.712C320.339 192.92 321.299 194.168 322.995 194.168Z" fill="#2A2859"/>
<rect x="137" y="218" width="22" height="22" fill="white"/>
<rect x="137" y="218" width="22" height="22" stroke="#2A2859" stroke-width="2"/>
<path d="M177.072 235L175.84 231.384H170.88L169.632 235H168.48L172.704 223.16H174.064L178.256 235H177.072ZM171.216 230.392H175.504L173.376 224.104L171.216 230.392ZM184.678 226.52H185.798L182.47 235H181.51L178.182 226.52H179.366L182.022 233.8L184.678 226.52ZM188.797 232.888C188.797 233.88 189.389 234.168 189.917 234.168C190.429 234.168 190.765 233.976 191.165 233.56L191.741 234.2C191.181 234.856 190.573 235.128 189.821 235.128C188.669 235.128 187.709 234.36 187.709 232.856V227.416H186.109V226.52H187.709V224.696L188.797 224.056V226.52H191.549V227.416H188.797V232.888ZM199.409 235H198.417C198.288 234.536 198.193 233.976 198.193 233.336C197.76 234.328 196.656 235.128 195.28 235.128C193.776 235.128 192.64 234.152 192.64 232.696C192.64 230.952 194.208 230.04 195.952 230.04C196.641 230.04 197.312 230.12 198 230.36V229.24C198 228.136 197.328 227.384 196.016 227.384C194.96 227.384 194.064 227.848 193.616 229.144L192.656 228.856C193.296 227.064 194.592 226.392 196.08 226.392C198.176 226.392 199.056 227.656 199.056 229.112V232.6C199.056 233.56 199.216 234.424 199.409 235ZM198 231.48V231.288C197.345 231.016 196.672 230.936 196.016 230.936C194.736 230.936 193.728 231.512 193.728 232.632C193.728 233.656 194.448 234.2 195.472 234.2C196.576 234.2 198 233.544 198 231.48ZM204.263 234.968C204.007 235.032 203.799 235.064 203.559 235.064C202.231 235.064 201.607 234.232 201.607 232.984V223.16H202.695V232.984C202.695 233.704 203.079 234.072 203.751 234.072C203.927 234.072 204.103 234.056 204.263 234.008V234.968ZM211.59 232.6L212.39 233.048C211.99 234.072 210.934 235.128 209.046 235.128C206.662 235.128 205.254 233.352 205.254 230.648C205.254 228.168 206.726 226.392 208.934 226.392C210.758 226.392 212.326 227.704 212.326 230.008L212.294 230.952H206.358C206.454 233.208 207.526 234.168 209.158 234.168C210.438 234.168 211.19 233.432 211.59 232.6ZM208.934 227.352C207.654 227.352 206.502 228.04 206.358 230.056H211.254C211.302 228.152 210.182 227.352 208.934 227.352ZM215.809 225.336V226.52H218.177V227.416H215.809V235H214.721V227.416H213.121V226.52H214.721V225.336C214.721 223.864 215.681 223.032 216.993 223.032C217.601 223.032 218.305 223.272 218.705 223.912L218.049 224.568C217.793 224.184 217.409 223.96 216.961 223.96C216.401 223.96 215.809 224.296 215.809 225.336ZM224.94 232.6L225.74 233.048C225.34 234.072 224.284 235.128 222.396 235.128C220.012 235.128 218.604 233.352 218.604 230.648C218.604 228.168 220.076 226.392 222.284 226.392C224.108 226.392 225.676 227.704 225.676 230.008L225.644 230.952H219.708C219.804 233.208 220.876 234.168 222.508 234.168C223.788 234.168 224.54 233.432 224.94 232.6ZM222.284 227.352C221.004 227.352 219.852 228.04 219.708 230.056H224.604C224.652 228.152 223.532 227.352 222.284 227.352ZM227.36 228.728C227.36 227.384 228.624 226.392 230.4 226.392C231.936 226.392 233.12 227.128 233.472 228.248L232.576 228.6C232.24 227.784 231.456 227.352 230.368 227.352C229.184 227.352 228.416 227.848 228.416 228.632C228.416 229.336 228.88 229.768 229.888 229.976L231.008 230.2C232.864 230.568 233.728 231.368 233.728 232.632C233.728 234.104 232.416 235.128 230.528 235.128C228.816 235.128 227.616 234.456 227.04 233.176L227.968 232.792C228.368 233.688 229.248 234.168 230.496 234.168C231.808 234.168 232.672 233.592 232.672 232.728C232.672 231.928 232.224 231.496 231.104 231.256L229.728 230.968C228.176 230.648 227.36 229.864 227.36 228.728ZM237.209 232.888C237.209 233.88 237.801 234.168 238.329 234.168C238.841 234.168 239.177 233.976 239.577 233.56L240.153 234.2C239.593 234.856 238.985 235.128 238.233 235.128C237.081 235.128 236.121 234.36 236.121 232.856V227.416H234.521V226.52H236.121V224.696L237.209 224.056V226.52H239.961V227.416H237.209V232.888ZM247.121 232.6L247.921 233.048C247.521 234.072 246.465 235.128 244.577 235.128C242.193 235.128 240.785 233.352 240.785 230.648C240.785 228.168 242.257 226.392 244.465 226.392C246.289 226.392 247.857 227.704 247.857 230.008L247.825 230.952H241.889C241.985 233.208 243.057 234.168 244.689 234.168C245.969 234.168 246.721 233.432 247.121 232.6ZM244.465 227.352C243.185 227.352 242.033 228.04 241.889 230.056H246.785C246.833 228.152 245.713 227.352 244.465 227.352ZM251.497 232.888C251.497 233.88 252.089 234.168 252.617 234.168C253.129 234.168 253.465 233.976 253.865 233.56L254.441 234.2C253.881 234.856 253.273 235.128 252.521 235.128C251.369 235.128 250.409 234.36 250.409 232.856V227.416H248.809V226.52H250.409V224.696L251.497 224.056V226.52H254.249V227.416H251.497V232.888ZM263.867 226.408C266.027 226.408 267.483 228.216 267.483 230.68C267.483 233.288 266.011 235.128 263.739 235.128C262.555 235.128 261.595 234.536 261.083 233.464V238.36H259.995V226.52H261.083V228.104C261.643 227.016 262.763 226.408 263.867 226.408ZM263.739 234.168C265.323 234.168 266.363 232.952 266.363 230.728C266.363 228.584 265.323 227.368 263.755 227.368C262.059 227.368 261.083 228.632 261.083 230.712C261.083 232.92 262.043 234.168 263.739 234.168ZM275.29 232.6L276.09 233.048C275.69 234.072 274.634 235.128 272.746 235.128C270.362 235.128 268.954 233.352 268.954 230.648C268.954 228.168 270.426 226.392 272.634 226.392C274.458 226.392 276.026 227.704 276.026 230.008L275.994 230.952H270.058C270.154 233.208 271.226 234.168 272.858 234.168C274.138 234.168 274.89 233.432 275.29 232.6ZM272.634 227.352C271.354 227.352 270.202 228.04 270.058 230.056H274.954C275.002 228.152 273.882 227.352 272.634 227.352ZM281.678 226.392C283.374 226.392 284.366 227.432 284.366 229.336V235H283.278V229.496C283.278 227.96 282.574 227.384 281.39 227.384C279.902 227.384 279.214 228.536 279.214 230.232V235H278.126V226.52H279.214V227.832C279.726 226.904 280.654 226.392 281.678 226.392ZM286.369 228.728C286.369 227.384 287.633 226.392 289.409 226.392C290.945 226.392 292.129 227.128 292.481 228.248L291.585 228.6C291.249 227.784 290.465 227.352 289.377 227.352C288.193 227.352 287.425 227.848 287.425 228.632C287.425 229.336 287.889 229.768 288.897 229.976L290.017 230.2C291.873 230.568 292.737 231.368 292.737 232.632C292.737 234.104 291.425 235.128 289.537 235.128C287.825 235.128 286.625 234.456 286.049 233.176L286.977 232.792C287.377 233.688 288.257 234.168 289.505 234.168C290.817 234.168 291.681 233.592 291.681 232.728C291.681 231.928 291.233 231.496 290.113 231.256L288.737 230.968C287.185 230.648 286.369 229.864 286.369 228.728ZM295.159 224.984C294.631 224.984 294.199 224.568 294.199 224.024C294.199 223.48 294.631 223.064 295.159 223.064C295.687 223.064 296.119 223.48 296.119 224.024C296.119 224.568 295.687 224.984 295.159 224.984ZM293.879 238.472C293.591 238.472 293.319 238.424 293.047 238.344L293.143 237.384C293.367 237.464 293.575 237.48 293.719 237.48C294.471 237.48 294.615 236.968 294.615 236.232V226.52H295.703V236.296C295.703 237.736 295.079 238.472 293.879 238.472ZM301.492 235.128C299.396 235.128 297.716 233.4 297.716 230.744C297.716 228.12 299.38 226.392 301.492 226.392C303.604 226.392 305.268 228.12 305.268 230.744C305.268 233.4 303.588 235.128 301.492 235.128ZM301.492 234.168C302.948 234.168 304.148 233.016 304.148 230.744C304.148 228.488 302.932 227.352 301.492 227.352C300.052 227.352 298.836 228.488 298.836 230.744C298.836 233.016 300.036 234.168 301.492 234.168ZM310.831 226.392C312.527 226.392 313.519 227.432 313.519 229.336V235H312.431V229.496C312.431 227.96 311.727 227.384 310.543 227.384C309.055 227.384 308.367 228.536 308.367 230.232V235H307.279V226.52H308.367V227.832C308.879 226.904 309.807 226.392 310.831 226.392ZM321.912 222.2H322.968C321.816 224.76 321.24 227.272 321.24 229.832C321.24 232.392 321.816 234.856 322.968 237.4H321.912C320.712 234.856 320.12 232.408 320.12 229.832C320.12 227.256 320.728 224.744 321.912 222.2ZM332.766 235L331.534 231.384H326.574L325.326 235H324.174L328.398 223.16H329.758L333.95 235H332.766ZM326.91 230.392H331.198L329.07 224.104L326.91 230.392ZM336.756 235H335.636V223.16H342.612V224.216H336.756V228.728H341.524V229.784H336.756V235ZM348.039 223.16C350.519 223.16 352.007 224.68 352.007 226.808C352.007 228.936 350.439 230.392 347.959 230.392H345.415V235H344.295V223.16H348.039ZM348.087 229.4C349.911 229.4 350.855 228.472 350.855 226.808C350.855 225.144 349.911 224.184 348.087 224.184H345.415V229.4H348.087ZM354.265 237.4H353.209C354.361 234.84 354.937 232.328 354.937 229.768C354.937 227.208 354.361 224.744 353.209 222.2H354.265C355.465 224.744 356.057 227.192 356.057 229.768C356.057 232.344 355.449 234.856 354.265 237.4Z" fill="#2A2859"/>
<rect x="137" y="258" width="22" height="22" fill="white"/>
<rect x="137" y="258" width="22" height="22" stroke="#2A2859" stroke-width="2"/>
<path d="M169.408 275V263.16H170.528V275H169.408ZM176.666 266.392C178.362 266.392 179.354 267.432 179.354 269.336V275H178.266V269.496C178.266 267.96 177.562 267.384 176.378 267.384C174.89 267.384 174.202 268.536 174.202 270.232V275H173.113V266.52H174.202V267.832C174.714 266.904 175.642 266.392 176.666 266.392ZM189.389 267.416H187.565V267.72C187.981 268.232 188.205 268.872 188.205 269.496C188.205 271.048 187.085 272.632 184.701 272.632H184.333C183.373 272.632 182.685 273 182.685 273.56C182.685 273.992 183.021 274.296 183.725 274.296H187.165C188.541 274.296 189.245 274.968 189.245 276.024C189.245 277.704 187.309 278.584 184.925 278.584C182.781 278.584 181.293 277.896 180.781 276.408L181.661 276.008C182.253 277.4 183.501 277.672 184.925 277.672C186.685 277.672 188.157 277.144 188.157 276.12C188.157 275.64 187.901 275.288 187.133 275.288H183.485C182.301 275.288 181.597 274.728 181.597 273.848C181.597 273.096 182.221 272.44 183.261 272.168C182.141 271.72 181.517 270.536 181.517 269.496C181.517 267.976 182.653 266.392 184.893 266.392C185.773 266.392 186.445 266.68 186.957 267.112V266.52H189.389V267.416ZM184.877 271.736C186.381 271.736 187.133 270.696 187.133 269.496C187.133 268.312 186.381 267.32 184.877 267.32C183.357 267.32 182.589 268.328 182.589 269.496C182.589 270.68 183.357 271.736 184.877 271.736ZM196.037 272.6L196.837 273.048C196.437 274.072 195.381 275.128 193.493 275.128C191.109 275.128 189.701 273.352 189.701 270.648C189.701 268.168 191.173 266.392 193.381 266.392C195.205 266.392 196.773 267.704 196.773 270.008L196.741 270.952H190.805C190.901 273.208 191.973 274.168 193.605 274.168C194.885 274.168 195.637 273.432 196.037 272.6ZM193.381 267.352C192.101 267.352 190.949 268.04 190.805 270.056H195.701C195.749 268.152 194.629 267.352 193.381 267.352ZM202.425 266.392C204.121 266.392 205.113 267.432 205.113 269.336V275H204.025V269.496C204.025 267.96 203.321 267.384 202.137 267.384C200.649 267.384 199.961 268.536 199.961 270.232V275H198.873V266.52H199.961V267.832C200.473 266.904 201.401 266.392 202.425 266.392ZM217.746 275H216.754C216.626 274.536 216.53 273.976 216.53 273.336C216.098 274.328 214.994 275.128 213.618 275.128C212.114 275.128 210.978 274.152 210.978 272.696C210.978 270.952 212.546 270.04 214.29 270.04C214.978 270.04 215.65 270.12 216.338 270.36V269.24C216.338 268.136 215.666 267.384 214.354 267.384C213.298 267.384 212.402 267.848 211.954 269.144L210.994 268.856C211.634 267.064 212.93 266.392 214.418 266.392C216.514 266.392 217.394 267.656 217.394 269.112V272.6C217.394 273.56 217.554 274.424 217.746 275ZM216.338 271.48V271.288C215.682 271.016 215.01 270.936 214.354 270.936C213.074 270.936 212.066 271.512 212.066 272.632C212.066 273.656 212.786 274.2 213.81 274.2C214.914 274.2 216.338 273.544 216.338 271.48ZM225.04 266.52H226.16L222.832 275H221.872L218.544 266.52H219.728L222.384 273.8L225.04 266.52ZM237.37 263.16H238.458V275H237.37V273.416C236.81 274.504 235.69 275.112 234.586 275.112C232.426 275.112 230.97 273.304 230.97 270.84C230.97 268.232 232.442 266.392 234.714 266.392C235.898 266.392 236.858 266.984 237.37 268.056V263.16ZM234.698 274.152C236.394 274.152 237.37 272.888 237.37 270.808C237.37 268.6 236.41 267.352 234.714 267.352C233.13 267.352 232.09 268.568 232.09 270.792C232.09 272.936 233.13 274.152 234.698 274.152ZM241.483 264.984C240.955 264.984 240.523 264.568 240.523 264.024C240.523 263.48 240.955 263.064 241.483 263.064C242.011 263.064 242.443 263.48 242.443 264.024C242.443 264.568 242.011 264.984 241.483 264.984ZM240.939 275V266.52H242.027V275H240.939ZM244.166 268.728C244.166 267.384 245.43 266.392 247.206 266.392C248.742 266.392 249.926 267.128 250.278 268.248L249.382 268.6C249.046 267.784 248.262 267.352 247.174 267.352C245.99 267.352 245.222 267.848 245.222 268.632C245.222 269.336 245.686 269.768 246.694 269.976L247.814 270.2C249.67 270.568 250.534 271.368 250.534 272.632C250.534 274.104 249.222 275.128 247.334 275.128C245.622 275.128 244.422 274.456 243.846 273.176L244.774 272.792C245.174 273.688 246.054 274.168 247.302 274.168C248.614 274.168 249.478 273.592 249.478 272.728C249.478 271.928 249.03 271.496 247.91 271.256L246.534 270.968C244.982 270.648 244.166 269.864 244.166 268.728ZM252.06 268.728C252.06 267.384 253.324 266.392 255.1 266.392C256.636 266.392 257.82 267.128 258.172 268.248L257.276 268.6C256.94 267.784 256.156 267.352 255.068 267.352C253.884 267.352 253.116 267.848 253.116 268.632C253.116 269.336 253.58 269.768 254.588 269.976L255.708 270.2C257.564 270.568 258.428 271.368 258.428 272.632C258.428 274.104 257.116 275.128 255.228 275.128C253.516 275.128 252.316 274.456 251.74 273.176L252.668 272.792C253.068 273.688 253.948 274.168 255.196 274.168C256.508 274.168 257.372 273.592 257.372 272.728C257.372 271.928 256.924 271.496 255.804 271.256L254.428 270.968C252.876 270.648 252.06 269.864 252.06 268.728ZM266.162 272.6L266.962 273.048C266.562 274.072 265.506 275.128 263.618 275.128C261.234 275.128 259.826 273.352 259.826 270.648C259.826 268.168 261.298 266.392 263.506 266.392C265.33 266.392 266.898 267.704 266.898 270.008L266.866 270.952H260.93C261.026 273.208 262.098 274.168 263.73 274.168C265.01 274.168 265.762 273.432 266.162 272.6ZM263.506 267.352C262.226 267.352 261.074 268.04 260.93 270.056H265.826C265.874 268.152 264.754 267.352 263.506 267.352Z" fill="#2A2859"/>
</svg>
