<svg width="1150" height="476" viewBox="0 0 1150 476" fill="none" xmlns="http://www.w3.org/2000/svg">
<rect width="1150" height="476" fill="white"/>
<mask id="path-1-inside-1_4602_148888" fill="white">
<path d="M200 92H950V384H200V92Z"/>
</mask>
<path d="M200 92H950V384H200V92Z" fill="#F8F0DD"/>
<path d="M233.656 137.184C233.656 139.872 235.528 141.528 238.384 141.96L241.408 142.44C243.136 142.728 244.072 143.4 244.072 144.888C244.072 146.52 242.608 147.72 240.232 147.72C238.576 147.72 236.656 147.144 235.528 145.104L233.176 146.616C234.688 149.184 237.184 150.24 240.208 150.24C244.456 150.24 247 147.792 247 144.792C247 141.936 244.84 140.256 241.744 139.776L239.008 139.368C237.28 139.08 236.488 138.24 236.488 136.968C236.488 135.432 237.904 134.496 239.992 134.496C241.744 134.496 243.376 135.336 244.144 136.776L246.472 135.336C245.104 132.984 242.848 132 240.016 132C236.56 132 233.656 134.04 233.656 137.184ZM258.19 150H261.406L256.102 142.416L261.31 137.28H257.998L252.862 142.56V132.24H250.174V150H252.862V145.608L254.326 144.168L258.19 150ZM269.423 136.992C268.319 136.992 266.999 137.568 266.279 138.984V137.28H263.591V150H266.279V142.56C266.279 140.136 267.287 139.224 268.655 139.224C269.903 139.224 270.311 140.016 270.311 141.168V142.464L272.471 142.08V140.4C272.471 138.216 271.271 136.992 269.423 136.992ZM276.571 135.168C277.627 135.168 278.443 134.352 278.443 133.272C278.443 132.192 277.627 131.376 276.571 131.376C275.515 131.376 274.675 132.192 274.675 133.272C274.675 134.352 275.515 135.168 276.571 135.168ZM275.227 150H277.915V137.28H275.227V150ZM289.936 137.28L286.576 147.192L283.216 137.28H280.24L285.088 150H287.848L292.72 137.28H289.936ZM309.472 145.992C308.8 147.192 307.72 148.032 306.16 148.032C304.048 148.032 302.728 146.88 302.584 144.192H311.224L311.272 142.608C311.272 139.008 308.8 136.992 305.8 136.992C302.416 136.992 299.944 139.656 299.944 143.52C299.944 147.432 302.224 150.216 305.992 150.216C308.896 150.216 310.576 148.632 311.296 147.048L309.472 145.992ZM305.8 139.104C307.288 139.104 308.68 140.016 308.656 142.272H302.584C302.8 139.968 304.168 139.104 305.8 139.104ZM320.796 136.992C319.212 136.992 317.94 137.76 317.076 139.104V137.28H314.388V150H317.076V143.112C317.076 140.64 318.036 139.32 319.932 139.32C321.396 139.32 322.236 140.112 322.236 141.864V150H324.924V141.432C324.924 138.672 323.388 136.992 320.796 136.992ZM342.582 150H345.798L340.494 142.416L345.702 137.28H342.39L337.254 142.56V132.24H334.566V150H337.254V145.608L338.718 144.168L342.582 150ZM352.489 150.24C355.801 150.24 358.513 147.648 358.513 143.568C358.513 139.584 355.825 136.992 352.489 136.992C349.153 136.992 346.465 139.584 346.465 143.568C346.465 147.648 349.177 150.24 352.489 150.24ZM352.489 147.96C350.713 147.96 349.225 146.568 349.225 143.568C349.225 140.544 350.713 139.272 352.489 139.272C354.265 139.272 355.753 140.544 355.753 143.568C355.753 146.568 354.289 147.96 352.489 147.96ZM367.232 136.992C366.128 136.992 364.808 137.568 364.088 138.984V137.28H361.4V150H364.088V142.56C364.088 140.136 365.096 139.224 366.464 139.224C367.712 139.224 368.12 140.016 368.12 141.168V142.464L370.28 142.08V140.4C370.28 138.216 369.08 136.992 367.232 136.992ZM376.542 146.064V139.368H381.03V137.28H376.542V133.224L373.854 134.448V137.28H371.622V139.368H373.854V146.232C373.854 148.872 375.654 150.216 377.862 150.216C379.23 150.216 380.286 149.76 381.246 148.8L380.094 147.072C379.542 147.624 378.99 147.912 378.294 147.912C377.406 147.912 376.542 147.48 376.542 146.064ZM393.181 146.064V139.368H397.669V137.28H393.181V133.224L390.493 134.448V137.28H388.261V139.368H390.493V146.232C390.493 148.872 392.293 150.216 394.501 150.216C395.869 150.216 396.925 149.76 397.885 148.8L396.733 147.072C396.181 147.624 395.629 147.912 394.933 147.912C394.045 147.912 393.181 147.48 393.181 146.064ZM399.968 131.76V135H403.256V131.76H399.968ZM400.28 150H402.968V137.28H400.28V150ZM410.477 146.064V139.368H414.965V137.28H410.477V133.224L407.789 134.448V137.28H405.557V139.368H407.789V146.232C407.789 148.872 409.589 150.216 411.797 150.216C413.165 150.216 414.221 149.76 415.181 148.8L414.029 147.072C413.477 147.624 412.925 147.912 412.229 147.912C411.341 147.912 410.477 147.48 410.477 146.064ZM420.964 146.064V139.368H425.452V137.28H420.964V133.224L418.276 134.448V137.28H416.044V139.368H418.276V146.232C418.276 148.872 420.076 150.216 422.284 150.216C423.652 150.216 424.708 149.76 425.668 148.8L424.516 147.072C423.964 147.624 423.412 147.912 422.716 147.912C421.828 147.912 420.964 147.48 420.964 146.064ZM436.189 145.992C435.517 147.192 434.437 148.032 432.877 148.032C430.765 148.032 429.445 146.88 429.301 144.192H437.941L437.989 142.608C437.989 139.008 435.517 136.992 432.517 136.992C429.133 136.992 426.661 139.656 426.661 143.52C426.661 147.432 428.941 150.216 432.709 150.216C435.613 150.216 437.293 148.632 438.013 147.048L436.189 145.992ZM432.517 139.104C434.005 139.104 435.397 140.016 435.373 142.272H429.301C429.517 139.968 430.885 139.104 432.517 139.104ZM446.217 149.928V147.696C445.929 147.768 445.665 147.792 445.425 147.792C444.441 147.792 443.793 147.288 443.793 146.184V132.24H441.105V146.376C441.105 148.704 442.257 150.144 444.681 150.144C445.209 150.144 445.713 150.072 446.217 149.928ZM461.364 136.992C459.78 136.992 458.484 137.76 457.62 139.128V132.24H454.932V150H457.62V143.112C457.62 140.64 458.604 139.32 460.5 139.32C461.964 139.32 462.804 140.112 462.804 141.864V150H465.492V141.432C465.492 138.672 463.956 136.992 461.364 136.992ZM477.928 145.992C477.256 147.192 476.176 148.032 474.616 148.032C472.504 148.032 471.184 146.88 471.04 144.192H479.68L479.728 142.608C479.728 139.008 477.256 136.992 474.256 136.992C470.872 136.992 468.4 139.656 468.4 143.52C468.4 147.432 470.68 150.216 474.448 150.216C477.352 150.216 479.032 148.632 479.752 147.048L477.928 145.992ZM474.256 139.104C475.744 139.104 477.136 140.016 477.112 142.272H471.04C471.256 139.968 472.624 139.104 474.256 139.104ZM488.676 136.992C487.572 136.992 486.252 137.568 485.532 138.984V137.28H482.844V150H485.532V142.56C485.532 140.136 486.54 139.224 487.908 139.224C489.156 139.224 489.564 140.016 489.564 141.168V142.464L491.724 142.08V140.4C491.724 138.216 490.524 136.992 488.676 136.992Z" fill="#2A2859"/>
<path d="M233.332 194.208C233.332 196.224 234.826 197.25 236.68 197.592L238.588 197.952C240.208 198.258 241.288 198.726 241.288 200.328C241.288 201.768 240.118 203.028 237.94 203.028C236.482 203.028 234.988 202.668 234.088 200.904L232.936 201.372C233.872 203.352 235.6 204.144 237.904 204.144C240.82 204.144 242.548 202.308 242.548 200.256C242.548 198.258 241.036 197.16 238.984 196.764L236.896 196.368C235.33 196.062 234.592 195.306 234.592 194.064C234.592 192.588 235.888 191.652 237.724 191.652C239.11 191.652 240.316 192.354 240.856 193.632L242.044 193.146C241.378 191.472 239.902 190.536 237.724 190.536C235.366 190.536 233.332 191.976 233.332 194.208ZM250.96 204H252.508L248.278 198.456L252.436 194.46H250.816L246.28 198.942V190.68H245.056V204H246.28V200.382L247.45 199.266L250.96 204ZM257.609 194.316C256.763 194.316 255.917 194.748 255.413 195.648V194.46H254.189V204H255.413V198.132C255.413 196.206 256.241 195.396 257.339 195.396C258.311 195.396 258.635 196.026 258.635 196.98V197.916L259.751 197.7V196.764C259.751 195.144 258.851 194.316 257.609 194.316ZM262.581 192.732C263.175 192.732 263.661 192.264 263.661 191.652C263.661 191.04 263.175 190.572 262.581 190.572C261.987 190.572 261.501 191.04 261.501 191.652C261.501 192.264 261.987 192.732 262.581 192.732ZM261.969 204H263.193V194.46H261.969V204ZM272.178 194.46L269.19 202.65L266.202 194.46H264.87L268.614 204H269.694L273.438 194.46H272.178ZM286.026 201.3C285.576 202.236 284.73 203.064 283.29 203.064C281.454 203.064 280.248 201.984 280.14 199.446H286.818L286.854 198.384C286.854 195.792 285.09 194.316 283.038 194.316C280.554 194.316 278.898 196.314 278.898 199.104C278.898 202.146 280.482 204.144 283.164 204.144C285.288 204.144 286.476 202.956 286.926 201.804L286.026 201.3ZM283.038 195.396C284.442 195.396 285.702 196.296 285.648 198.438H280.14C280.302 196.17 281.598 195.396 283.038 195.396ZM293.238 194.316C292.086 194.316 291.042 194.892 290.466 195.936V194.46H289.242V204H290.466V198.636C290.466 196.728 291.24 195.432 292.914 195.432C294.246 195.432 295.038 196.08 295.038 197.808V204H296.262V197.628C296.262 195.486 295.146 194.316 293.238 194.316ZM303.09 190.752V192.588H304.962V190.752H303.09ZM303.414 204H304.638V194.46H303.414V204ZM311.534 194.316C310.382 194.316 309.338 194.892 308.762 195.936V194.46H307.538V204H308.762V198.636C308.762 196.728 309.536 195.432 311.21 195.432C312.542 195.432 313.334 196.08 313.334 197.808V204H314.558V197.628C314.558 195.486 313.442 194.316 311.534 194.316ZM319.213 193.128C319.213 191.958 319.879 191.58 320.509 191.58C321.013 191.58 321.445 191.832 321.733 192.264L322.471 191.526C322.021 190.806 321.229 190.536 320.545 190.536C319.069 190.536 317.989 191.472 317.989 193.128V194.46H316.189V195.468H317.989V204H319.213V195.468H321.877V194.46H319.213V193.128ZM326.63 204.144C328.988 204.144 330.878 202.2 330.878 199.212C330.878 196.26 329.006 194.316 326.63 194.316C324.254 194.316 322.382 196.26 322.382 199.212C322.382 202.2 324.272 204.144 326.63 204.144ZM326.63 203.064C324.992 203.064 323.642 201.768 323.642 199.212C323.642 196.674 325.01 195.396 326.63 195.396C328.25 195.396 329.618 196.674 329.618 199.212C329.618 201.768 328.268 203.064 326.63 203.064ZM336.585 194.316C335.739 194.316 334.893 194.748 334.389 195.648V194.46H333.165V204H334.389V198.132C334.389 196.206 335.217 195.396 336.315 195.396C337.287 195.396 337.611 196.026 337.611 196.98V197.916L338.727 197.7V196.764C338.727 195.144 337.827 194.316 336.585 194.316ZM350.449 194.316C349.225 194.316 348.127 195 347.587 196.26C347.245 195.018 346.291 194.316 344.869 194.316C343.753 194.316 342.745 194.892 342.169 195.954V194.46H340.945V204H342.169V198.636C342.169 196.728 342.871 195.432 344.545 195.432C345.787 195.432 346.525 196.08 346.525 197.628V204H347.749V198.636C347.749 196.728 348.451 195.432 350.125 195.432C351.367 195.432 352.105 196.08 352.105 197.628V204H353.329V197.448C353.329 195.468 352.267 194.316 350.449 194.316ZM362.589 201.3C362.139 202.236 361.293 203.064 359.853 203.064C358.017 203.064 356.811 201.984 356.703 199.446H363.381L363.417 198.384C363.417 195.792 361.653 194.316 359.601 194.316C357.117 194.316 355.461 196.314 355.461 199.104C355.461 202.146 357.045 204.144 359.727 204.144C361.851 204.144 363.039 202.956 363.489 201.804L362.589 201.3ZM359.601 195.396C361.005 195.396 362.265 196.296 362.211 198.438H356.703C356.865 196.17 358.161 195.396 359.601 195.396ZM369.225 194.316C368.379 194.316 367.533 194.748 367.029 195.648V194.46H365.805V204H367.029V198.132C367.029 196.206 367.857 195.396 368.955 195.396C369.927 195.396 370.251 196.026 370.251 196.98V197.916L371.367 197.7V196.764C371.367 195.144 370.467 194.316 369.225 194.316ZM379.557 201.3C379.107 202.236 378.261 203.064 376.821 203.064C374.985 203.064 373.779 201.984 373.671 199.446H380.349L380.385 198.384C380.385 195.792 378.621 194.316 376.569 194.316C374.085 194.316 372.429 196.314 372.429 199.104C372.429 202.146 374.013 204.144 376.695 204.144C378.819 204.144 380.007 202.956 380.457 201.804L379.557 201.3ZM376.569 195.396C377.973 195.396 379.233 196.296 379.179 198.438H373.671C373.833 196.17 375.129 195.396 376.569 195.396ZM386.768 194.316C385.616 194.316 384.572 194.892 383.996 195.936V194.46H382.772V204H383.996V198.636C383.996 196.728 384.77 195.432 386.444 195.432C387.776 195.432 388.568 196.08 388.568 197.808V204H389.792V197.628C389.792 195.486 388.676 194.316 386.768 194.316ZM399.127 190.68V196.188C398.551 194.982 397.471 194.316 396.139 194.316C393.583 194.316 391.927 196.386 391.927 199.32C391.927 202.092 393.565 204.126 395.995 204.126C397.237 204.126 398.497 203.442 399.127 202.218V204H400.351V190.68H399.127ZM396.121 203.046C394.357 203.046 393.187 201.678 393.187 199.266C393.187 196.764 394.357 195.396 396.139 195.396C398.047 195.396 399.127 196.8 399.127 199.284C399.127 201.624 398.029 203.046 396.121 203.046ZM409.683 201.3C409.233 202.236 408.387 203.064 406.947 203.064C405.111 203.064 403.905 201.984 403.797 199.446H410.475L410.511 198.384C410.511 195.792 408.747 194.316 406.695 194.316C404.211 194.316 402.555 196.314 402.555 199.104C402.555 202.146 404.139 204.144 406.821 204.144C408.945 204.144 410.133 202.956 410.583 201.804L409.683 201.3ZM406.695 195.396C408.099 195.396 409.359 196.296 409.305 198.438H403.797C403.959 196.17 405.255 195.396 406.695 195.396ZM419.212 201.624V195.468H422.308V194.46H419.212V191.688L417.988 192.408V194.46H416.188V195.468H417.988V201.588C417.988 203.28 419.068 204.144 420.364 204.144C421.21 204.144 421.894 203.838 422.524 203.1L421.876 202.38C421.426 202.848 421.048 203.064 420.472 203.064C419.878 203.064 419.212 202.74 419.212 201.624ZM430.388 201.3C429.938 202.236 429.092 203.064 427.652 203.064C425.816 203.064 424.61 201.984 424.502 199.446H431.18L431.216 198.384C431.216 195.792 429.452 194.316 427.4 194.316C424.916 194.316 423.26 196.314 423.26 199.104C423.26 202.146 424.844 204.144 427.526 204.144C429.65 204.144 430.838 202.956 431.288 201.804L430.388 201.3ZM427.4 195.396C428.804 195.396 430.064 196.296 430.01 198.438H424.502C424.664 196.17 425.96 195.396 427.4 195.396ZM439.543 204H441.091L436.861 198.456L441.019 194.46H439.399L434.863 198.942V190.68H433.639V204H434.863V200.382L436.033 199.266L439.543 204ZM441.935 196.944C441.935 198.222 442.853 199.104 444.599 199.464L446.147 199.788C447.407 200.058 447.911 200.544 447.911 201.444C447.911 202.416 446.939 203.064 445.463 203.064C444.059 203.064 443.069 202.524 442.619 201.516L441.575 201.948C442.223 203.388 443.573 204.144 445.499 204.144C447.623 204.144 449.099 202.992 449.099 201.336C449.099 199.914 448.127 199.014 446.039 198.6L444.779 198.348C443.645 198.114 443.123 197.628 443.123 196.836C443.123 195.954 443.987 195.396 445.319 195.396C446.543 195.396 447.425 195.882 447.803 196.8L448.811 196.404C448.415 195.144 447.083 194.316 445.355 194.316C443.357 194.316 441.935 195.432 441.935 196.944ZM453.041 201.624V195.468H456.137V194.46H453.041V191.688L451.817 192.408V194.46H450.017V195.468H451.817V201.588C451.817 203.28 452.897 204.144 454.193 204.144C455.039 204.144 455.723 203.838 456.353 203.1L455.705 202.38C455.255 202.848 454.877 203.064 454.301 203.064C453.707 203.064 453.041 202.74 453.041 201.624ZM466.287 204.144C468.645 204.144 470.535 202.2 470.535 199.212C470.535 196.26 468.663 194.316 466.287 194.316C463.911 194.316 462.039 196.26 462.039 199.212C462.039 202.2 463.929 204.144 466.287 204.144ZM466.287 203.064C464.649 203.064 463.299 201.768 463.299 199.212C463.299 196.674 464.667 195.396 466.287 195.396C467.907 195.396 469.275 196.674 469.275 199.212C469.275 201.768 467.925 203.064 466.287 203.064ZM482.326 194.316C481.102 194.316 480.004 195 479.464 196.26C479.122 195.018 478.168 194.316 476.746 194.316C475.63 194.316 474.622 194.892 474.046 195.954V194.46H472.822V204H474.046V198.636C474.046 196.728 474.748 195.432 476.422 195.432C477.664 195.432 478.402 196.08 478.402 197.628V204H479.626V198.636C479.626 196.728 480.328 195.432 482.002 195.432C483.244 195.432 483.982 196.08 483.982 197.628V204H485.206V197.448C485.206 195.468 484.144 194.316 482.326 194.316ZM498.494 195.18L499.304 193.596H498.44L497.846 194.748C497.288 194.478 496.658 194.316 495.992 194.316C493.616 194.316 491.744 196.26 491.744 199.212C491.744 201.012 492.428 202.434 493.49 203.28L492.68 204.864H493.544L494.138 203.694C494.696 203.982 495.326 204.144 495.992 204.144C498.35 204.144 500.24 202.2 500.24 199.212C500.24 197.43 499.556 196.026 498.494 195.18ZM493.004 199.212C493.004 196.674 494.372 195.396 495.992 195.396C496.478 195.396 496.928 195.504 497.342 195.738L494.012 202.254C493.4 201.606 493.004 200.598 493.004 199.212ZM495.992 203.064C495.506 203.064 495.038 202.956 494.642 202.722L497.972 196.206C498.584 196.854 498.98 197.844 498.98 199.212C498.98 201.768 497.63 203.064 495.992 203.064ZM506.523 194.316C505.371 194.316 504.327 194.892 503.751 195.936V194.46H502.527V204H503.751V198.636C503.751 196.728 504.525 195.432 506.199 195.432C507.531 195.432 508.323 196.08 508.323 197.808V204H509.547V197.628C509.547 195.486 508.431 194.316 506.523 194.316ZM511.826 196.944C511.826 198.222 512.744 199.104 514.49 199.464L516.038 199.788C517.298 200.058 517.802 200.544 517.802 201.444C517.802 202.416 516.83 203.064 515.354 203.064C513.95 203.064 512.96 202.524 512.51 201.516L511.466 201.948C512.114 203.388 513.464 204.144 515.39 204.144C517.514 204.144 518.99 202.992 518.99 201.336C518.99 199.914 518.018 199.014 515.93 198.6L514.67 198.348C513.536 198.114 513.014 197.628 513.014 196.836C513.014 195.954 513.878 195.396 515.21 195.396C516.434 195.396 517.316 195.882 517.694 196.8L518.702 196.404C518.306 195.144 516.974 194.316 515.246 194.316C513.248 194.316 511.826 195.432 511.826 196.944ZM527.139 204H528.687L524.457 198.456L528.615 194.46H526.995L522.459 198.942V190.68H521.235V204H522.459V200.382L523.629 199.266L527.139 204ZM536.339 201.3C535.889 202.236 535.043 203.064 533.603 203.064C531.767 203.064 530.561 201.984 530.453 199.446H537.131L537.167 198.384C537.167 195.792 535.403 194.316 533.351 194.316C530.867 194.316 529.211 196.314 529.211 199.104C529.211 202.146 530.795 204.144 533.477 204.144C535.601 204.144 536.789 202.956 537.239 201.804L536.339 201.3ZM533.351 195.396C534.755 195.396 536.015 196.296 535.961 198.438H530.453C530.615 196.17 531.911 195.396 533.351 195.396ZM542.543 203.964V202.884C542.363 202.938 542.165 202.956 541.967 202.956C541.211 202.956 540.779 202.542 540.779 201.732V190.68H539.555V201.732C539.555 203.136 540.257 204.072 541.751 204.072C542.021 204.072 542.255 204.036 542.543 203.964ZM545.188 192.732C545.782 192.732 546.268 192.264 546.268 191.652C546.268 191.04 545.782 190.572 545.188 190.572C544.594 190.572 544.108 191.04 544.108 191.652C544.108 192.264 544.594 192.732 545.188 192.732ZM544.576 204H545.8V194.46H544.576V204ZM557.268 195.468V194.46H554.532V195.126C553.956 194.64 553.2 194.316 552.21 194.316C549.69 194.316 548.412 196.098 548.412 197.808C548.412 198.978 549.114 200.31 550.374 200.814C549.204 201.12 548.502 201.858 548.502 202.704C548.502 203.694 549.294 204.324 550.626 204.324H554.73C555.594 204.324 555.882 204.72 555.882 205.26C555.882 206.412 554.226 207.006 552.246 207.006C550.644 207.006 549.24 206.7 548.574 205.134L547.584 205.584C548.16 207.258 549.834 208.032 552.246 208.032C554.928 208.032 557.106 207.042 557.106 205.152C557.106 203.964 556.314 203.208 554.766 203.208H550.896C550.104 203.208 549.726 202.866 549.726 202.38C549.726 201.75 550.5 201.336 551.58 201.336H551.994C554.676 201.336 555.936 199.554 555.936 197.808C555.936 197.106 555.684 196.386 555.216 195.81V195.468H557.268ZM552.192 200.328C550.482 200.328 549.618 199.14 549.618 197.808C549.618 196.494 550.482 195.36 552.192 195.36C553.884 195.36 554.73 196.476 554.73 197.808C554.73 199.158 553.884 200.328 552.192 200.328ZM565.29 201.624V195.468H568.386V194.46H565.29V191.688L564.066 192.408V194.46H562.266V195.468H564.066V201.588C564.066 203.28 565.146 204.144 566.442 204.144C567.288 204.144 567.972 203.838 568.602 203.1L567.954 202.38C567.504 202.848 567.126 203.064 566.55 203.064C565.956 203.064 565.29 202.74 565.29 201.624ZM576.466 201.3C576.016 202.236 575.17 203.064 573.73 203.064C571.894 203.064 570.688 201.984 570.58 199.446H577.258L577.294 198.384C577.294 195.792 575.53 194.316 573.478 194.316C570.994 194.316 569.338 196.314 569.338 199.104C569.338 202.146 570.922 204.144 573.604 204.144C575.728 204.144 576.916 202.956 577.366 201.804L576.466 201.3ZM573.478 195.396C574.882 195.396 576.142 196.296 576.088 198.438H570.58C570.742 196.17 572.038 195.396 573.478 195.396ZM589.185 194.316C587.961 194.316 586.863 195 586.323 196.26C585.981 195.018 585.027 194.316 583.605 194.316C582.489 194.316 581.481 194.892 580.905 195.954V194.46H579.681V204H580.905V198.636C580.905 196.728 581.607 195.432 583.281 195.432C584.523 195.432 585.261 196.08 585.261 197.628V204H586.485V198.636C586.485 196.728 587.187 195.432 588.861 195.432C590.103 195.432 590.841 196.08 590.841 197.628V204H592.065V197.448C592.065 195.468 591.003 194.316 589.185 194.316ZM601.919 204C601.703 203.352 601.523 202.38 601.523 201.3V197.376C601.523 195.738 600.533 194.316 598.175 194.316C596.501 194.316 595.043 195.072 594.323 197.088L595.403 197.412C595.907 195.954 596.915 195.432 598.103 195.432C599.579 195.432 600.335 196.278 600.335 197.52V198.78C599.561 198.51 598.805 198.42 598.031 198.42C596.069 198.42 594.305 199.446 594.305 201.408C594.305 203.046 595.583 204.144 597.275 204.144C598.823 204.144 600.065 203.244 600.551 202.128C600.551 202.848 600.659 203.478 600.803 204H601.919ZM600.335 200.04C600.335 202.362 598.733 203.1 597.491 203.1C596.339 203.1 595.529 202.488 595.529 201.336C595.529 200.076 596.663 199.428 598.103 199.428C598.841 199.428 599.597 199.518 600.335 199.824V200.04ZM612.855 194.316C611.703 194.316 610.659 194.892 610.083 195.936V190.68H608.859V204H610.083V198.636C610.083 196.728 610.857 195.432 612.531 195.432C613.863 195.432 614.655 196.08 614.655 197.808V204H615.879V197.628C615.879 195.486 614.763 194.316 612.855 194.316ZM625.141 201.3C624.691 202.236 623.845 203.064 622.405 203.064C620.569 203.064 619.363 201.984 619.255 199.446H625.933L625.969 198.384C625.969 195.792 624.205 194.316 622.153 194.316C619.669 194.316 618.013 196.314 618.013 199.104C618.013 202.146 619.597 204.144 622.279 204.144C624.403 204.144 625.591 202.956 626.041 201.804L625.141 201.3ZM622.153 195.396C623.557 195.396 624.817 196.296 624.763 198.438H619.255C619.417 196.17 620.713 195.396 622.153 195.396ZM631.777 194.316C630.931 194.316 630.085 194.748 629.581 195.648V194.46H628.357V204H629.581V198.132C629.581 196.206 630.409 195.396 631.507 195.396C632.479 195.396 632.803 196.026 632.803 196.98V197.916L633.919 197.7V196.764C633.919 195.144 633.019 194.316 631.777 194.316ZM633.552 201.984V204H635.496V201.984H633.552ZM644.03 202.812V190.68H642.77V204H650.222V202.812H644.03ZM658.296 201.3C657.846 202.236 657 203.064 655.56 203.064C653.724 203.064 652.518 201.984 652.41 199.446H659.088L659.124 198.384C659.124 195.792 657.36 194.316 655.308 194.316C652.824 194.316 651.168 196.314 651.168 199.104C651.168 202.146 652.752 204.144 655.434 204.144C657.558 204.144 658.746 202.956 659.196 201.804L658.296 201.3ZM655.308 195.396C656.712 195.396 657.972 196.296 657.918 198.438H652.41C652.572 196.17 653.868 195.396 655.308 195.396ZM669.904 195.468V194.46H667.168V195.126C666.592 194.64 665.836 194.316 664.846 194.316C662.326 194.316 661.048 196.098 661.048 197.808C661.048 198.978 661.75 200.31 663.01 200.814C661.84 201.12 661.138 201.858 661.138 202.704C661.138 203.694 661.93 204.324 663.262 204.324H667.366C668.23 204.324 668.518 204.72 668.518 205.26C668.518 206.412 666.862 207.006 664.882 207.006C663.28 207.006 661.876 206.7 661.21 205.134L660.22 205.584C660.796 207.258 662.47 208.032 664.882 208.032C667.564 208.032 669.742 207.042 669.742 205.152C669.742 203.964 668.95 203.208 667.402 203.208H663.532C662.74 203.208 662.362 202.866 662.362 202.38C662.362 201.75 663.136 201.336 664.216 201.336H664.63C667.312 201.336 668.572 199.554 668.572 197.808C668.572 197.106 668.32 196.386 667.852 195.81V195.468H669.904ZM664.828 200.328C663.118 200.328 662.254 199.14 662.254 197.808C662.254 196.494 663.118 195.36 664.828 195.36C666.52 195.36 667.366 196.476 667.366 197.808C667.366 199.158 666.52 200.328 664.828 200.328ZM680.18 195.468V194.46H677.444V195.126C676.868 194.64 676.112 194.316 675.122 194.316C672.602 194.316 671.324 196.098 671.324 197.808C671.324 198.978 672.026 200.31 673.286 200.814C672.116 201.12 671.414 201.858 671.414 202.704C671.414 203.694 672.206 204.324 673.538 204.324H677.642C678.506 204.324 678.794 204.72 678.794 205.26C678.794 206.412 677.138 207.006 675.158 207.006C673.556 207.006 672.152 206.7 671.486 205.134L670.496 205.584C671.072 207.258 672.746 208.032 675.158 208.032C677.84 208.032 680.018 207.042 680.018 205.152C680.018 203.964 679.226 203.208 677.678 203.208H673.808C673.016 203.208 672.638 202.866 672.638 202.38C672.638 201.75 673.412 201.336 674.492 201.336H674.906C677.588 201.336 678.848 199.554 678.848 197.808C678.848 197.106 678.596 196.386 678.128 195.81V195.468H680.18ZM675.104 200.328C673.394 200.328 672.53 199.14 672.53 197.808C672.53 196.494 673.394 195.36 675.104 195.36C676.796 195.36 677.642 196.476 677.642 197.808C677.642 199.158 676.796 200.328 675.104 200.328ZM688.202 201.624V195.468H691.298V194.46H688.202V191.688L686.978 192.408V194.46H685.178V195.468H686.978V201.588C686.978 203.28 688.058 204.144 689.354 204.144C690.2 204.144 690.884 203.838 691.514 203.1L690.866 202.38C690.416 202.848 690.038 203.064 689.462 203.064C688.868 203.064 688.202 202.74 688.202 201.624ZM694.019 192.732C694.613 192.732 695.099 192.264 695.099 191.652C695.099 191.04 694.613 190.572 694.019 190.572C693.425 190.572 692.939 191.04 692.939 191.652C692.939 192.264 693.425 192.732 694.019 192.732ZM693.407 204H694.631V194.46H693.407V204ZM700.519 203.964V202.884C700.339 202.938 700.141 202.956 699.943 202.956C699.187 202.956 698.755 202.542 698.755 201.732V190.68H697.531V201.732C697.531 203.136 698.233 204.072 699.727 204.072C699.997 204.072 700.231 204.036 700.519 203.964ZM712.897 204H714.445L710.215 198.456L714.373 194.46H712.753L708.217 198.942V190.68H706.993V204H708.217V200.382L709.387 199.266L712.897 204ZM720.122 194.316C718.97 194.316 717.926 194.892 717.35 195.936V194.46H716.126V204H717.35V198.636C717.35 196.728 718.124 195.432 719.798 195.432C721.13 195.432 721.922 196.08 721.922 197.808V204H723.146V197.628C723.146 195.486 722.03 194.316 720.122 194.316ZM733.003 204C732.787 203.352 732.607 202.38 732.607 201.3V197.376C732.607 195.738 731.617 194.316 729.259 194.316C727.585 194.316 726.127 195.072 725.407 197.088L726.487 197.412C726.991 195.954 727.999 195.432 729.187 195.432C730.663 195.432 731.419 196.278 731.419 197.52V198.78C730.645 198.51 729.889 198.42 729.115 198.42C727.153 198.42 725.389 199.446 725.389 201.408C725.389 203.046 726.667 204.144 728.359 204.144C729.907 204.144 731.149 203.244 731.635 202.128C731.635 202.848 731.743 203.478 731.887 204H733.003ZM731.419 200.04C731.419 202.362 729.817 203.1 728.575 203.1C727.423 203.1 726.613 202.488 726.613 201.336C726.613 200.076 727.747 199.428 729.187 199.428C729.925 199.428 730.681 199.518 731.419 199.824V200.04ZM739.858 194.334C738.616 194.334 737.356 195.018 736.726 196.242V194.46H735.502V207.78H736.726V202.272C737.302 203.478 738.382 204.144 739.714 204.144C742.27 204.144 743.926 202.074 743.926 199.14C743.926 196.368 742.288 194.334 739.858 194.334ZM739.714 203.064C737.806 203.064 736.726 201.66 736.726 199.176C736.726 196.836 737.824 195.414 739.732 195.414C741.496 195.414 742.666 196.782 742.666 199.194C742.666 201.696 741.496 203.064 739.714 203.064ZM750.574 194.334C749.332 194.334 748.072 195.018 747.442 196.242V194.46H746.218V207.78H747.442V202.272C748.018 203.478 749.098 204.144 750.43 204.144C752.986 204.144 754.642 202.074 754.642 199.14C754.642 196.368 753.004 194.334 750.574 194.334ZM750.43 203.064C748.522 203.064 747.442 201.66 747.442 199.176C747.442 196.836 748.54 195.414 750.448 195.414C752.212 195.414 753.382 196.782 753.382 199.194C753.382 201.696 752.212 203.064 750.43 203.064ZM763.45 201.3C763 202.236 762.154 203.064 760.714 203.064C758.878 203.064 757.672 201.984 757.564 199.446H764.242L764.278 198.384C764.278 195.792 762.514 194.316 760.462 194.316C757.978 194.316 756.322 196.314 756.322 199.104C756.322 202.146 757.906 204.144 760.588 204.144C762.712 204.144 763.9 202.956 764.35 201.804L763.45 201.3ZM760.462 195.396C761.866 195.396 763.126 196.296 763.072 198.438H757.564C757.726 196.17 759.022 195.396 760.462 195.396ZM770.085 194.316C769.239 194.316 768.393 194.748 767.889 195.648V194.46H766.665V204H767.889V198.132C767.889 196.206 768.717 195.396 769.815 195.396C770.787 195.396 771.111 196.026 771.111 196.98V197.916L772.227 197.7V196.764C772.227 195.144 771.327 194.316 770.085 194.316ZM785.367 201.3C784.917 202.236 784.071 203.064 782.631 203.064C780.795 203.064 779.589 201.984 779.481 199.446H786.159L786.195 198.384C786.195 195.792 784.431 194.316 782.379 194.316C779.895 194.316 778.239 196.314 778.239 199.104C778.239 202.146 779.823 204.144 782.505 204.144C784.629 204.144 785.817 202.956 786.267 201.804L785.367 201.3ZM782.379 195.396C783.783 195.396 785.043 196.296 784.989 198.438H779.481C779.643 196.17 780.939 195.396 782.379 195.396ZM791.571 203.964V202.884C791.391 202.938 791.193 202.956 790.995 202.956C790.239 202.956 789.807 202.542 789.807 201.732V190.68H788.583V201.732C788.583 203.136 789.285 204.072 790.779 204.072C791.049 204.072 791.283 204.036 791.571 203.964ZM796.591 203.964V202.884C796.411 202.938 796.213 202.956 796.015 202.956C795.259 202.956 794.827 202.542 794.827 201.732V190.68H793.603V201.732C793.603 203.136 794.305 204.072 795.799 204.072C796.069 204.072 796.303 204.036 796.591 203.964ZM804.859 201.3C804.409 202.236 803.563 203.064 802.123 203.064C800.287 203.064 799.081 201.984 798.973 199.446H805.651L805.687 198.384C805.687 195.792 803.923 194.316 801.871 194.316C799.387 194.316 797.731 196.314 797.731 199.104C797.731 202.146 799.315 204.144 801.997 204.144C804.121 204.144 805.309 202.956 805.759 201.804L804.859 201.3ZM801.871 195.396C803.275 195.396 804.535 196.296 804.481 198.438H798.973C799.135 196.17 800.431 195.396 801.871 195.396ZM811.495 194.316C810.649 194.316 809.803 194.748 809.299 195.648V194.46H808.075V204H809.299V198.132C809.299 196.206 810.127 195.396 811.225 195.396C812.197 195.396 812.521 196.026 812.521 196.98V197.916L813.637 197.7V196.764C813.637 195.144 812.737 194.316 811.495 194.316ZM824.653 194.334C823.411 194.334 822.151 195.018 821.521 196.242V190.68H820.297V204H821.521V202.272C822.097 203.478 823.177 204.144 824.509 204.144C827.065 204.144 828.721 202.074 828.721 199.14C828.721 196.368 827.083 194.334 824.653 194.334ZM824.509 203.064C822.601 203.064 821.521 201.66 821.521 199.176C821.521 196.836 822.619 195.414 824.527 195.414C826.291 195.414 827.461 196.782 827.461 199.194C827.461 201.696 826.291 203.064 824.509 203.064ZM830.688 190.752V192.588H832.56V190.752H830.688ZM831.012 204H832.236V194.46H831.012V204ZM838.124 203.964V202.884C837.944 202.938 837.746 202.956 837.548 202.956C836.792 202.956 836.36 202.542 836.36 201.732V190.68H835.136V201.732C835.136 203.136 835.838 204.072 837.332 204.072C837.602 204.072 837.836 204.036 838.124 203.964ZM846.463 190.68V196.188C845.887 194.982 844.807 194.316 843.475 194.316C840.919 194.316 839.263 196.386 839.263 199.32C839.263 202.092 840.901 204.126 843.331 204.126C844.573 204.126 845.833 203.442 846.463 202.218V204H847.687V190.68H846.463ZM843.457 203.046C841.693 203.046 840.523 201.678 840.523 199.266C840.523 196.764 841.693 195.396 843.475 195.396C845.383 195.396 846.463 196.8 846.463 199.284C846.463 201.624 845.365 203.046 843.457 203.046ZM857.019 201.3C856.569 202.236 855.723 203.064 854.283 203.064C852.447 203.064 851.241 201.984 851.133 199.446H857.811L857.847 198.384C857.847 195.792 856.083 194.316 854.031 194.316C851.547 194.316 849.891 196.314 849.891 199.104C849.891 202.146 851.475 204.144 854.157 204.144C856.281 204.144 857.469 202.956 857.919 201.804L857.019 201.3ZM854.031 195.396C855.435 195.396 856.695 196.296 856.641 198.438H851.133C851.295 196.17 852.591 195.396 854.031 195.396ZM863.655 194.316C862.809 194.316 861.963 194.748 861.459 195.648V194.46H860.235V204H861.459V198.132C861.459 196.206 862.287 195.396 863.385 195.396C864.357 195.396 864.681 196.026 864.681 196.98V197.916L865.797 197.7V196.764C865.797 195.144 864.897 194.316 863.655 194.316ZM876.057 204.144C878.415 204.144 880.305 202.2 880.305 199.212C880.305 196.26 878.433 194.316 876.057 194.316C873.681 194.316 871.809 196.26 871.809 199.212C871.809 202.2 873.699 204.144 876.057 204.144ZM876.057 203.064C874.419 203.064 873.069 201.768 873.069 199.212C873.069 196.674 874.437 195.396 876.057 195.396C877.677 195.396 879.045 196.674 879.045 199.212C879.045 201.768 877.695 203.064 876.057 203.064ZM892.096 194.316C890.872 194.316 889.774 195 889.234 196.26C888.892 195.018 887.938 194.316 886.516 194.316C885.4 194.316 884.392 194.892 883.816 195.954V194.46H882.592V204H883.816V198.636C883.816 196.728 884.518 195.432 886.192 195.432C887.434 195.432 888.172 196.08 888.172 197.628V204H889.396V198.636C889.396 196.728 890.098 195.432 891.772 195.432C893.014 195.432 893.752 196.08 893.752 197.628V204H894.976V197.448C894.976 195.468 893.914 194.316 892.096 194.316ZM240.136 218.68V224.188C239.56 222.982 238.48 222.316 237.148 222.316C234.592 222.316 232.936 224.386 232.936 227.32C232.936 230.092 234.574 232.126 237.004 232.126C238.246 232.126 239.506 231.442 240.136 230.218V232H241.36V218.68H240.136ZM237.13 231.046C235.366 231.046 234.196 229.678 234.196 227.266C234.196 224.764 235.366 223.396 237.148 223.396C239.056 223.396 240.136 224.8 240.136 227.284C240.136 229.624 239.038 231.046 237.13 231.046ZM249.72 222.46V227.824C249.72 229.696 249 231.046 247.308 231.046C245.976 231.046 245.184 230.326 245.184 228.76V222.46H243.96V228.868C243.96 230.938 245.094 232.144 246.966 232.144C248.136 232.144 249.144 231.568 249.72 230.542V232H250.944V222.46H249.72ZM264.311 223.18L265.121 221.596H264.257L263.663 222.748C263.105 222.478 262.475 222.316 261.809 222.316C259.433 222.316 257.561 224.26 257.561 227.212C257.561 229.012 258.245 230.434 259.307 231.28L258.497 232.864H259.361L259.955 231.694C260.513 231.982 261.143 232.144 261.809 232.144C264.167 232.144 266.057 230.2 266.057 227.212C266.057 225.43 265.373 224.026 264.311 223.18ZM258.821 227.212C258.821 224.674 260.189 223.396 261.809 223.396C262.295 223.396 262.745 223.504 263.159 223.738L259.829 230.254C259.217 229.606 258.821 228.598 258.821 227.212ZM261.809 231.064C261.323 231.064 260.855 230.956 260.459 230.722L263.789 224.206C264.401 224.854 264.797 225.844 264.797 227.212C264.797 229.768 263.447 231.064 261.809 231.064ZM272.34 222.316C271.188 222.316 270.144 222.892 269.568 223.936V222.46H268.344V232H269.568V226.636C269.568 224.728 270.342 223.432 272.016 223.432C273.348 223.432 274.14 224.08 274.14 225.808V232H275.364V225.628C275.364 223.486 274.248 222.316 272.34 222.316ZM277.643 224.944C277.643 226.222 278.561 227.104 280.307 227.464L281.854 227.788C283.115 228.058 283.619 228.544 283.619 229.444C283.619 230.416 282.647 231.064 281.171 231.064C279.767 231.064 278.777 230.524 278.327 229.516L277.283 229.948C277.931 231.388 279.281 232.144 281.207 232.144C283.331 232.144 284.807 230.992 284.807 229.336C284.807 227.914 283.835 227.014 281.747 226.6L280.487 226.348C279.353 226.114 278.831 225.628 278.831 224.836C278.831 223.954 279.695 223.396 281.027 223.396C282.251 223.396 283.133 223.882 283.511 224.8L284.519 224.404C284.123 223.144 282.791 222.316 281.062 222.316C279.065 222.316 277.643 223.432 277.643 224.944ZM292.956 232H294.504L290.274 226.456L294.432 222.46H292.812L288.276 226.942V218.68H287.052V232H288.276V228.382L289.446 227.266L292.956 232ZM302.156 229.3C301.706 230.236 300.86 231.064 299.42 231.064C297.584 231.064 296.378 229.984 296.27 227.446H302.948L302.984 226.384C302.984 223.792 301.22 222.316 299.168 222.316C296.684 222.316 295.028 224.314 295.028 227.104C295.028 230.146 296.612 232.144 299.294 232.144C301.418 232.144 302.606 230.956 303.056 229.804L302.156 229.3ZM299.168 223.396C300.572 223.396 301.832 224.296 301.778 226.438H296.27C296.432 224.17 297.728 223.396 299.168 223.396ZM308.792 222.316C307.946 222.316 307.1 222.748 306.596 223.648V222.46H305.372V232H306.596V226.132C306.596 224.206 307.424 223.396 308.522 223.396C309.494 223.396 309.818 224.026 309.818 224.98V225.916L310.934 225.7V224.764C310.934 223.144 310.034 222.316 308.792 222.316ZM311.539 232.108C312.187 232.108 312.691 231.622 312.691 230.956C312.691 230.29 312.187 229.804 311.539 229.804C310.891 229.804 310.387 230.29 310.387 230.956C310.387 231.622 310.891 232.108 311.539 232.108ZM245.5 285.804C247.444 285.804 248.956 284.346 248.956 282.348C248.956 280.35 247.444 278.892 245.5 278.892C243.556 278.892 242.044 280.35 242.044 282.348C242.044 284.346 243.556 285.804 245.5 285.804ZM261.844 286.812V274.68H260.584V288H268.036V286.812H261.844ZM270.751 276.732C271.345 276.732 271.831 276.264 271.831 275.652C271.831 275.04 271.345 274.572 270.751 274.572C270.157 274.572 269.671 275.04 269.671 275.652C269.671 276.264 270.157 276.732 270.751 276.732ZM270.139 288H271.363V278.46H270.139V288ZM273.795 280.944C273.795 282.222 274.713 283.104 276.459 283.464L278.007 283.788C279.267 284.058 279.771 284.544 279.771 285.444C279.771 286.416 278.799 287.064 277.323 287.064C275.919 287.064 274.929 286.524 274.479 285.516L273.435 285.948C274.083 287.388 275.433 288.144 277.359 288.144C279.483 288.144 280.959 286.992 280.959 285.336C280.959 283.914 279.987 283.014 277.899 282.6L276.639 282.348C275.505 282.114 274.983 281.628 274.983 280.836C274.983 279.954 275.847 279.396 277.179 279.396C278.403 279.396 279.285 279.882 279.663 280.8L280.671 280.404C280.275 279.144 278.943 278.316 277.215 278.316C275.217 278.316 273.795 279.432 273.795 280.944ZM284.901 285.624V279.468H287.997V278.46H284.901V275.688L283.677 276.408V278.46H281.877V279.468H283.677V285.588C283.677 287.28 284.757 288.144 286.053 288.144C286.899 288.144 287.583 287.838 288.213 287.1L287.565 286.38C287.115 286.848 286.737 287.064 286.161 287.064C285.567 287.064 284.901 286.74 284.901 285.624ZM296.077 285.3C295.627 286.236 294.781 287.064 293.341 287.064C291.505 287.064 290.299 285.984 290.191 283.446H296.869L296.905 282.384C296.905 279.792 295.141 278.316 293.089 278.316C290.605 278.316 288.949 280.314 288.949 283.104C288.949 286.146 290.533 288.144 293.215 288.144C295.339 288.144 296.527 286.956 296.977 285.804L296.077 285.3ZM293.089 279.396C294.493 279.396 295.753 280.296 295.699 282.438H290.191C290.353 280.17 291.649 279.396 293.089 279.396ZM305.808 285.3C305.358 286.236 304.512 287.064 303.072 287.064C301.236 287.064 300.03 285.984 299.922 283.446H306.6L306.636 282.384C306.636 279.792 304.872 278.316 302.82 278.316C300.336 278.316 298.68 280.314 298.68 283.104C298.68 286.146 300.264 288.144 302.946 288.144C305.07 288.144 306.258 286.956 306.708 285.804L305.808 285.3ZM302.82 279.396C304.224 279.396 305.484 280.296 305.43 282.438H299.922C300.084 280.17 301.38 279.396 302.82 279.396ZM312.012 287.964V286.884C311.832 286.938 311.634 286.956 311.436 286.956C310.68 286.956 310.248 286.542 310.248 285.732V274.68H309.024V285.732C309.024 287.136 309.726 288.072 311.22 288.072C311.49 288.072 311.724 288.036 312.012 287.964ZM320.279 285.3C319.829 286.236 318.983 287.064 317.543 287.064C315.707 287.064 314.501 285.984 314.393 283.446H321.071L321.107 282.384C321.107 279.792 319.343 278.316 317.291 278.316C314.807 278.316 313.151 280.314 313.151 283.104C313.151 286.146 314.735 288.144 317.417 288.144C319.541 288.144 320.729 286.956 321.179 285.804L320.279 285.3ZM317.291 279.396C318.695 279.396 319.955 280.296 319.901 282.438H314.393C314.555 280.17 315.851 279.396 317.291 279.396ZM332.999 278.316C331.775 278.316 330.677 279 330.137 280.26C329.795 279.018 328.841 278.316 327.419 278.316C326.303 278.316 325.295 278.892 324.719 279.954V278.46H323.495V288H324.719V282.636C324.719 280.728 325.421 279.432 327.095 279.432C328.337 279.432 329.075 280.08 329.075 281.628V288H330.299V282.636C330.299 280.728 331.001 279.432 332.675 279.432C333.917 279.432 334.655 280.08 334.655 281.628V288H335.879V281.448C335.879 279.468 334.817 278.316 332.999 278.316ZM345.139 285.3C344.689 286.236 343.843 287.064 342.403 287.064C340.567 287.064 339.361 285.984 339.253 283.446H345.931L345.967 282.384C345.967 279.792 344.203 278.316 342.151 278.316C339.667 278.316 338.011 280.314 338.011 283.104C338.011 286.146 339.595 288.144 342.277 288.144C344.401 288.144 345.589 286.956 346.039 285.804L345.139 285.3ZM342.151 279.396C343.555 279.396 344.815 280.296 344.761 282.438H339.253C339.415 280.17 340.711 279.396 342.151 279.396ZM352.351 278.316C351.199 278.316 350.155 278.892 349.579 279.936V278.46H348.355V288H349.579V282.636C349.579 280.728 350.353 279.432 352.027 279.432C353.359 279.432 354.151 280.08 354.151 281.808V288H355.375V281.628C355.375 279.486 354.259 278.316 352.351 278.316ZM360.029 285.624V279.468H363.125V278.46H360.029V275.688L358.805 276.408V278.46H357.005V279.468H358.805V285.588C358.805 287.28 359.885 288.144 361.181 288.144C362.027 288.144 362.711 287.838 363.341 287.1L362.693 286.38C362.243 286.848 361.865 287.064 361.289 287.064C360.695 287.064 360.029 286.74 360.029 285.624ZM374.661 286.956V274.68H373.509L370.521 276.768V278.1L373.437 276.084V286.956H370.341V288H377.613V286.956H374.661ZM245.5 313.804C247.444 313.804 248.956 312.346 248.956 310.348C248.956 308.35 247.444 306.892 245.5 306.892C243.556 306.892 242.044 308.35 242.044 310.348C242.044 312.346 243.556 313.804 245.5 313.804ZM261.844 314.812V302.68H260.584V316H268.036V314.812H261.844ZM270.751 304.732C271.345 304.732 271.831 304.264 271.831 303.652C271.831 303.04 271.345 302.572 270.751 302.572C270.157 302.572 269.671 303.04 269.671 303.652C269.671 304.264 270.157 304.732 270.751 304.732ZM270.139 316H271.363V306.46H270.139V316ZM273.795 308.944C273.795 310.222 274.713 311.104 276.459 311.464L278.007 311.788C279.267 312.058 279.771 312.544 279.771 313.444C279.771 314.416 278.799 315.064 277.323 315.064C275.919 315.064 274.929 314.524 274.479 313.516L273.435 313.948C274.083 315.388 275.433 316.144 277.359 316.144C279.483 316.144 280.959 314.992 280.959 313.336C280.959 311.914 279.987 311.014 277.899 310.6L276.639 310.348C275.505 310.114 274.983 309.628 274.983 308.836C274.983 307.954 275.847 307.396 277.179 307.396C278.403 307.396 279.285 307.882 279.663 308.8L280.671 308.404C280.275 307.144 278.943 306.316 277.215 306.316C275.217 306.316 273.795 307.432 273.795 308.944ZM284.901 313.624V307.468H287.997V306.46H284.901V303.688L283.677 304.408V306.46H281.877V307.468H283.677V313.588C283.677 315.28 284.757 316.144 286.053 316.144C286.899 316.144 287.583 315.838 288.213 315.1L287.565 314.38C287.115 314.848 286.737 315.064 286.161 315.064C285.567 315.064 284.901 314.74 284.901 313.624ZM296.077 313.3C295.627 314.236 294.781 315.064 293.341 315.064C291.505 315.064 290.299 313.984 290.191 311.446H296.869L296.905 310.384C296.905 307.792 295.141 306.316 293.089 306.316C290.605 306.316 288.949 308.314 288.949 311.104C288.949 314.146 290.533 316.144 293.215 316.144C295.339 316.144 296.527 314.956 296.977 313.804L296.077 313.3ZM293.089 307.396C294.493 307.396 295.753 308.296 295.699 310.438H290.191C290.353 308.17 291.649 307.396 293.089 307.396ZM305.808 313.3C305.358 314.236 304.512 315.064 303.072 315.064C301.236 315.064 300.03 313.984 299.922 311.446H306.6L306.636 310.384C306.636 307.792 304.872 306.316 302.82 306.316C300.336 306.316 298.68 308.314 298.68 311.104C298.68 314.146 300.264 316.144 302.946 316.144C305.07 316.144 306.258 314.956 306.708 313.804L305.808 313.3ZM302.82 307.396C304.224 307.396 305.484 308.296 305.43 310.438H299.922C300.084 308.17 301.38 307.396 302.82 307.396ZM312.012 315.964V314.884C311.832 314.938 311.634 314.956 311.436 314.956C310.68 314.956 310.248 314.542 310.248 313.732V302.68H309.024V313.732C309.024 315.136 309.726 316.072 311.22 316.072C311.49 316.072 311.724 316.036 312.012 315.964ZM320.279 313.3C319.829 314.236 318.983 315.064 317.543 315.064C315.707 315.064 314.501 313.984 314.393 311.446H321.071L321.107 310.384C321.107 307.792 319.343 306.316 317.291 306.316C314.807 306.316 313.151 308.314 313.151 311.104C313.151 314.146 314.735 316.144 317.417 316.144C319.541 316.144 320.729 314.956 321.179 313.804L320.279 313.3ZM317.291 307.396C318.695 307.396 319.955 308.296 319.901 310.438H314.393C314.555 308.17 315.851 307.396 317.291 307.396ZM332.999 306.316C331.775 306.316 330.677 307 330.137 308.26C329.795 307.018 328.841 306.316 327.419 306.316C326.303 306.316 325.295 306.892 324.719 307.954V306.46H323.495V316H324.719V310.636C324.719 308.728 325.421 307.432 327.095 307.432C328.337 307.432 329.075 308.08 329.075 309.628V316H330.299V310.636C330.299 308.728 331.001 307.432 332.675 307.432C333.917 307.432 334.655 308.08 334.655 309.628V316H335.879V309.448C335.879 307.468 334.817 306.316 332.999 306.316ZM345.139 313.3C344.689 314.236 343.843 315.064 342.403 315.064C340.567 315.064 339.361 313.984 339.253 311.446H345.931L345.967 310.384C345.967 307.792 344.203 306.316 342.151 306.316C339.667 306.316 338.011 308.314 338.011 311.104C338.011 314.146 339.595 316.144 342.277 316.144C344.401 316.144 345.589 314.956 346.039 313.804L345.139 313.3ZM342.151 307.396C343.555 307.396 344.815 308.296 344.761 310.438H339.253C339.415 308.17 340.711 307.396 342.151 307.396ZM352.351 306.316C351.199 306.316 350.155 306.892 349.579 307.936V306.46H348.355V316H349.579V310.636C349.579 308.728 350.353 307.432 352.027 307.432C353.359 307.432 354.151 308.08 354.151 309.808V316H355.375V309.628C355.375 307.486 354.259 306.316 352.351 306.316ZM360.029 313.624V307.468H363.125V306.46H360.029V303.688L358.805 304.408V306.46H357.005V307.468H358.805V313.588C358.805 315.28 359.885 316.144 361.181 316.144C362.027 316.144 362.711 315.838 363.341 315.1L362.693 314.38C362.243 314.848 361.865 315.064 361.289 315.064C360.695 315.064 360.029 314.74 360.029 313.624ZM371.367 314.848L375.309 310.528C377.181 308.458 377.739 307.468 377.739 305.992C377.739 304.3 376.443 302.536 373.869 302.536C371.979 302.536 370.431 303.364 369.567 305.56L370.683 305.938C371.277 304.264 372.447 303.652 373.815 303.652C375.579 303.652 376.479 304.75 376.479 306.1C376.479 307.306 375.885 308.17 374.463 309.736L369.675 315.064V316H378.387V314.848H371.367ZM245.5 341.804C247.444 341.804 248.956 340.346 248.956 338.348C248.956 336.35 247.444 334.892 245.5 334.892C243.556 334.892 242.044 336.35 242.044 338.348C242.044 340.346 243.556 341.804 245.5 341.804ZM261.844 342.812V330.68H260.584V344H268.036V342.812H261.844ZM270.751 332.732C271.345 332.732 271.831 332.264 271.831 331.652C271.831 331.04 271.345 330.572 270.751 330.572C270.157 330.572 269.671 331.04 269.671 331.652C269.671 332.264 270.157 332.732 270.751 332.732ZM270.139 344H271.363V334.46H270.139V344ZM273.795 336.944C273.795 338.222 274.713 339.104 276.459 339.464L278.007 339.788C279.267 340.058 279.771 340.544 279.771 341.444C279.771 342.416 278.799 343.064 277.323 343.064C275.919 343.064 274.929 342.524 274.479 341.516L273.435 341.948C274.083 343.388 275.433 344.144 277.359 344.144C279.483 344.144 280.959 342.992 280.959 341.336C280.959 339.914 279.987 339.014 277.899 338.6L276.639 338.348C275.505 338.114 274.983 337.628 274.983 336.836C274.983 335.954 275.847 335.396 277.179 335.396C278.403 335.396 279.285 335.882 279.663 336.8L280.671 336.404C280.275 335.144 278.943 334.316 277.215 334.316C275.217 334.316 273.795 335.432 273.795 336.944ZM284.901 341.624V335.468H287.997V334.46H284.901V331.688L283.677 332.408V334.46H281.877V335.468H283.677V341.588C283.677 343.28 284.757 344.144 286.053 344.144C286.899 344.144 287.583 343.838 288.213 343.1L287.565 342.38C287.115 342.848 286.737 343.064 286.161 343.064C285.567 343.064 284.901 342.74 284.901 341.624ZM296.077 341.3C295.627 342.236 294.781 343.064 293.341 343.064C291.505 343.064 290.299 341.984 290.191 339.446H296.869L296.905 338.384C296.905 335.792 295.141 334.316 293.089 334.316C290.605 334.316 288.949 336.314 288.949 339.104C288.949 342.146 290.533 344.144 293.215 344.144C295.339 344.144 296.527 342.956 296.977 341.804L296.077 341.3ZM293.089 335.396C294.493 335.396 295.753 336.296 295.699 338.438H290.191C290.353 336.17 291.649 335.396 293.089 335.396ZM305.808 341.3C305.358 342.236 304.512 343.064 303.072 343.064C301.236 343.064 300.03 341.984 299.922 339.446H306.6L306.636 338.384C306.636 335.792 304.872 334.316 302.82 334.316C300.336 334.316 298.68 336.314 298.68 339.104C298.68 342.146 300.264 344.144 302.946 344.144C305.07 344.144 306.258 342.956 306.708 341.804L305.808 341.3ZM302.82 335.396C304.224 335.396 305.484 336.296 305.43 338.438H299.922C300.084 336.17 301.38 335.396 302.82 335.396ZM312.012 343.964V342.884C311.832 342.938 311.634 342.956 311.436 342.956C310.68 342.956 310.248 342.542 310.248 341.732V330.68H309.024V341.732C309.024 343.136 309.726 344.072 311.22 344.072C311.49 344.072 311.724 344.036 312.012 343.964ZM320.279 341.3C319.829 342.236 318.983 343.064 317.543 343.064C315.707 343.064 314.501 341.984 314.393 339.446H321.071L321.107 338.384C321.107 335.792 319.343 334.316 317.291 334.316C314.807 334.316 313.151 336.314 313.151 339.104C313.151 342.146 314.735 344.144 317.417 344.144C319.541 344.144 320.729 342.956 321.179 341.804L320.279 341.3ZM317.291 335.396C318.695 335.396 319.955 336.296 319.901 338.438H314.393C314.555 336.17 315.851 335.396 317.291 335.396ZM332.999 334.316C331.775 334.316 330.677 335 330.137 336.26C329.795 335.018 328.841 334.316 327.419 334.316C326.303 334.316 325.295 334.892 324.719 335.954V334.46H323.495V344H324.719V338.636C324.719 336.728 325.421 335.432 327.095 335.432C328.337 335.432 329.075 336.08 329.075 337.628V344H330.299V338.636C330.299 336.728 331.001 335.432 332.675 335.432C333.917 335.432 334.655 336.08 334.655 337.628V344H335.879V337.448C335.879 335.468 334.817 334.316 332.999 334.316ZM345.139 341.3C344.689 342.236 343.843 343.064 342.403 343.064C340.567 343.064 339.361 341.984 339.253 339.446H345.931L345.967 338.384C345.967 335.792 344.203 334.316 342.151 334.316C339.667 334.316 338.011 336.314 338.011 339.104C338.011 342.146 339.595 344.144 342.277 344.144C344.401 344.144 345.589 342.956 346.039 341.804L345.139 341.3ZM342.151 335.396C343.555 335.396 344.815 336.296 344.761 338.438H339.253C339.415 336.17 340.711 335.396 342.151 335.396ZM352.351 334.316C351.199 334.316 350.155 334.892 349.579 335.936V334.46H348.355V344H349.579V338.636C349.579 336.728 350.353 335.432 352.027 335.432C353.359 335.432 354.151 336.08 354.151 337.808V344H355.375V337.628C355.375 335.486 354.259 334.316 352.351 334.316ZM360.029 341.624V335.468H363.125V334.46H360.029V331.688L358.805 332.408V334.46H357.005V335.468H358.805V341.588C358.805 343.28 359.885 344.144 361.181 344.144C362.027 344.144 362.711 343.838 363.341 343.1L362.693 342.38C362.243 342.848 361.865 343.064 361.289 343.064C360.695 343.064 360.029 342.74 360.029 341.624ZM375.903 336.962C376.965 336.44 377.721 335.36 377.721 334.064C377.721 332.318 376.389 330.536 373.689 330.536C371.781 330.536 370.215 331.436 369.297 333.632L370.377 334.01C371.025 332.3 372.213 331.652 373.617 331.652C375.417 331.652 376.533 332.624 376.533 334.1C376.533 334.928 376.209 335.612 375.669 336.044C375.183 336.422 374.769 336.584 373.689 336.584H372.321V337.664H374.103C374.967 337.664 375.435 337.808 375.957 338.114C376.605 338.51 377.055 339.158 377.055 340.256C377.055 341.786 375.813 343.028 373.761 343.028C372.087 343.028 370.953 342.38 369.963 340.94L369.027 341.696C370.287 343.496 371.943 344.144 373.653 344.144C376.497 344.144 378.279 342.398 378.279 340.256C378.279 338.528 377.235 337.412 375.903 336.962Z" fill="#2A2859"/>
<path d="M204 384V92H196V384H204Z" fill="#D0BFAE" mask="url(#path-1-inside-1_4602_148888)"/>
<g clip-path="url(#clip0_4602_148888)">
<rect x="152" y="239" width="48" height="1" fill="#2A2859"/>
<g clip-path="url(#clip1_4602_148888)">
<rect x="152" y="226" width="24" height="24" rx="12" fill="#2A2859"/>
<path d="M165.83 232.818V243H163.677V234.862H163.618L161.286 236.323V234.414L163.807 232.818H165.83Z" fill="white"/>
</g>
</g>
<g clip-path="url(#clip2_4602_148888)">
<rect x="152" y="143" width="72" height="1" fill="#2A2859"/>
<g clip-path="url(#clip3_4602_148888)">
<rect x="152" y="130" width="24" height="24" rx="12" fill="#2A2859"/>
<path d="M160.416 147V145.449L164.04 142.093C164.349 141.795 164.607 141.526 164.816 141.288C165.028 141.049 165.189 140.815 165.298 140.587C165.408 140.355 165.462 140.104 165.462 139.836C165.462 139.538 165.394 139.281 165.258 139.065C165.123 138.847 164.937 138.679 164.702 138.563C164.466 138.444 164.199 138.384 163.901 138.384C163.59 138.384 163.318 138.447 163.086 138.573C162.854 138.699 162.675 138.88 162.549 139.115C162.423 139.35 162.36 139.63 162.36 139.955H160.317C160.317 139.289 160.467 138.711 160.769 138.22C161.071 137.73 161.493 137.35 162.037 137.082C162.58 136.813 163.207 136.679 163.916 136.679C164.645 136.679 165.28 136.808 165.82 137.067C166.364 137.322 166.786 137.677 167.088 138.131C167.39 138.585 167.54 139.105 167.54 139.692C167.54 140.076 167.464 140.456 167.312 140.83C167.163 141.205 166.896 141.621 166.511 142.078C166.127 142.532 165.585 143.077 164.886 143.714L163.399 145.17V145.24H167.675V147H160.416Z" fill="white"/>
</g>
</g>
<g clip-path="url(#clip4_4602_148888)">
<rect x="152" y="269" width="72" height="1" fill="#2A2859"/>
<g clip-path="url(#clip5_4602_148888)">
<rect x="152" y="256" width="24" height="24" rx="12" fill="#2A2859"/>
<path d="M163.975 273.139C163.232 273.139 162.571 273.012 161.991 272.756C161.414 272.498 160.958 272.143 160.624 271.692C160.292 271.238 160.122 270.715 160.112 270.121H162.279C162.292 270.37 162.374 270.589 162.523 270.778C162.675 270.963 162.877 271.107 163.129 271.21C163.381 271.313 163.665 271.364 163.979 271.364C164.308 271.364 164.598 271.306 164.85 271.19C165.101 271.074 165.299 270.914 165.441 270.708C165.584 270.503 165.655 270.266 165.655 269.997C165.655 269.725 165.579 269.485 165.426 269.276C165.277 269.064 165.062 268.898 164.78 268.779C164.502 268.66 164.17 268.6 163.786 268.6H162.836V267.019H163.786C164.11 267.019 164.397 266.963 164.646 266.85C164.898 266.737 165.093 266.582 165.232 266.383C165.372 266.181 165.441 265.945 165.441 265.677C165.441 265.422 165.38 265.198 165.257 265.006C165.138 264.81 164.969 264.658 164.75 264.548C164.535 264.439 164.283 264.384 163.994 264.384C163.703 264.384 163.436 264.437 163.194 264.543C162.952 264.646 162.758 264.794 162.612 264.986C162.466 265.178 162.389 265.403 162.379 265.662H160.315C160.325 265.075 160.493 264.558 160.818 264.111C161.142 263.663 161.58 263.314 162.13 263.062C162.684 262.807 163.308 262.679 164.004 262.679C164.707 262.679 165.322 262.807 165.849 263.062C166.376 263.317 166.785 263.662 167.077 264.096C167.372 264.527 167.518 265.011 167.514 265.548C167.518 266.118 167.34 266.593 166.982 266.974C166.628 267.356 166.165 267.598 165.595 267.7V267.78C166.344 267.876 166.914 268.136 167.305 268.56C167.7 268.981 167.895 269.508 167.892 270.141C167.895 270.721 167.728 271.237 167.39 271.688C167.055 272.138 166.593 272.493 166.003 272.751C165.413 273.01 164.737 273.139 163.975 273.139Z" fill="white"/>
</g>
</g>
<defs>
<clipPath id="clip0_4602_148888">
<rect width="48" height="24" fill="white" transform="translate(152 226)"/>
</clipPath>
<clipPath id="clip1_4602_148888">
<rect x="152" y="226" width="24" height="24" rx="12" fill="white"/>
</clipPath>
<clipPath id="clip2_4602_148888">
<rect width="72" height="24" fill="white" transform="translate(152 130)"/>
</clipPath>
<clipPath id="clip3_4602_148888">
<rect x="152" y="130" width="24" height="24" rx="12" fill="white"/>
</clipPath>
<clipPath id="clip4_4602_148888">
<rect width="72" height="24" fill="white" transform="translate(152 256)"/>
</clipPath>
<clipPath id="clip5_4602_148888">
<rect x="152" y="256" width="24" height="24" rx="12" fill="white"/>
</clipPath>
</defs>
</svg>
