<svg id="active-person" data-category="people-and-health" width="32" height="32" viewBox="0 0 32 32" fill="none" xmlns="http://www.w3.org/2000/svg">
<path fill="var(--fg-color, #2A2859)" d="M16.4199 3.5C16.4199 4.88071 15.3006 6 13.9199 6C12.5391 6 11.4199 4.88071 11.4199 3.5C11.4199 2.11929 12.5391 1 13.9199 1C15.3006 1 16.4199 2.11929 16.4199 3.5Z"/>
<path fill="var(--fg-color, #2A2859)" fill-rule="evenodd" clip-rule="evenodd" d="M18.0067 9.75H27V7.75H7V2H5V9.75H9.83352L9.02313 19.4726L6.03492 20.8421L5.50146 30.4444L7.49839 30.5554L7.96493 22.1576L13.2174 19.7503L15.1728 19.7504L22.6912 30.0882L24.3086 28.9119L17.6459 19.7506L18.8404 19.7506L18.0067 9.75ZM11.1736 17.75L11.8401 9.75H16.0002L16.6667 17.75H11.1736Z" />
</svg>
