<svg xmlns="http://www.w3.org/2000/svg" id="apple" fill="none" data-category="ui" viewBox="0 0 32 32">
  <path fill="var(--fg-color, #2A2859)" fill-rule="evenodd" d="m14.846 8.762-.077-.025a31.209 31.209 0 0 0-1.139-.36c-1.201-.35-2.748-.675-4.346-.358-4.508.893-6.784 4.996-6.784 9.596 0 2.951 1.322 6.233 2.866 8.737.78 1.263 1.644 2.376 2.482 3.188.419.406.85.756 1.28 1.01.418.246.913.45 1.437.45 1.243 0 2.19-.311 3-.578l.03-.01c.818-.27 1.5-.489 2.405-.489.906 0 1.587.219 2.405.488l.03.01c.81.268 1.757.579 3 .579.524 0 1.02-.204 1.436-.45.43-.254.862-.604 1.28-1.01.839-.812 1.704-1.925 2.483-3.188 1.544-2.504 2.866-5.786 2.866-8.737 0-4.6-2.276-8.703-6.784-9.596a6.901 6.901 0 0 0-1.24-.128 5.038 5.038 0 0 0 .959-2.954V2.615H20.1a5.125 5.125 0 0 0-4.255 2.274c-.648-1.394-1.614-2.55-3.03-3.673l-1.242 1.568c1.26.998 2.012 1.947 2.503 3.047.366.82.603 1.76.77 2.931ZM17 8h.334a3.12 3.12 0 0 0 2.196-.9 3.05 3.05 0 0 0 .905-2.163v-.322h-.333a3.121 3.121 0 0 0-2.196.902A3.047 3.047 0 0 0 17 7.679V8Zm.398 2.786c-.425.135-.946.29-1.398.29-.452 0-.973-.155-1.398-.29-.171-.054-.34-.11-.51-.166a26.94 26.94 0 0 0-1.021-.323c-1.109-.323-2.279-.538-3.398-.316C6.42 10.625 4.5 13.6 4.5 17.615c0 2.434 1.124 5.345 2.569 7.687.715 1.16 1.48 2.133 2.171 2.802.346.335.653.574.906.724.267.157.4.172.42.172.905 0 1.586-.219 2.404-.488l.03-.01c.811-.267 1.757-.579 3-.579s2.189.312 3 .579l.03.01c.818.269 1.5.488 2.405.488.019 0 .152-.015.419-.172.253-.15.56-.39.906-.724.69-.669 1.456-1.642 2.171-2.802 1.445-2.342 2.569-5.253 2.569-7.687 0-4.015-1.921-6.99-5.173-7.634-1.119-.222-2.29-.007-3.398.316-.37.107-.7.216-1.02.322-.171.057-.34.113-.51.167Z" clip-rule="evenodd"/>
</svg>
