<svg xmlns="http://www.w3.org/2000/svg" id="backpack" fill="none" data-category="services" viewBox="0 0 32 32">
  <g fill="var(--fg-color, #2A2859)">
    <path d="M20.995 19.5h-10v2h10v-2Z" />
    <path fill-rule="evenodd"
      d="m26.995 16.009 3.027 2.154-.025 10.378-3.001-.009V30.5h-22v-2.032l-3.018-.009.026-10.376 2.991-2.124V15.5l2-10h4v-4h10v4h4l2 10v.509Zm-8-12.509h-6v2h6v-2Zm5.229 8.341L23.356 7.5H8.635l-.871 4.355L9.909 14h11.724l2.591-2.159ZM4.002 19.118l-.019 7.347 1.013.003v-8.056l-.994.706ZM6.995 28.5h18V15.699l-.325-1.626L22.357 16H9.081l-1.789-1.789-.297 1.487V28.5Zm20.001-1.968 1.006.003.019-7.343-1.025-.729v8.069Z"
      clip-rule="evenodd" />
  </g>
</svg>