<svg xmlns="http://www.w3.org/2000/svg" id="brain-signal" fill="none" data-category="people-and-health" viewBox="0 0 32 32">
  <path fill="var(--fg-color, #2A2859)" d="M18.284 2.351c1.276-.032 2.535.533 3.394 1.531 1.692.068 3.244.488 4.53 1.435 1.34.987 2.286 2.47 2.843 4.452.743.573 1.285 1.292 1.574 2.162.288.862.305 1.8.111 2.785.695 1.32.834 2.592.532 3.726-.256.959-.807 1.745-1.477 2.333l.06.161-.08.03c.047 1.012-.264 1.966-.743 2.743a5.268 5.268 0 0 1-1.705 1.722l.709 3.227-1.954.429-1.071-4.879.853-.284c.49-.164 1.066-.615 1.465-1.263a2.95 2.95 0 0 0 .437-1.245 4.612 4.612 0 0 1-1.719-.205c-1.023-.33-1.731-.985-2.25-1.504l1.414-1.414c.481.48.907.84 1.451 1.015.413.134.979.187 1.8-.024.421-.365.737-.83.878-1.357.17-.639.115-1.487-.517-2.54l-.213-.355.1-.402c.218-.87.196-1.544.022-2.067-.17-.51-.514-.964-1.106-1.359l-.322-.214-.094-.375c-.458-1.835-1.23-2.984-2.185-3.688-.963-.71-2.232-1.055-3.844-1.055h-.535l-.297-.445c-.63-.943-1.761-1.293-2.7-.936-.709.46-1.145 1.102-1.145 2.009h-2c0-.883.226-1.61.587-2.207-.885-.287-1.677-.35-2.387-.244-1 .15-1.937.651-2.816 1.53l-.364.364-.508-.084c-1.315-.22-2.253.024-2.842.487a2.355 2.355 0 0 0-.7.927 5.537 5.537 0 0 1 1.042-.155c1.116-.056 2.292.257 3.2 1.18L8.288 9.702c-.426-.434-1-.62-1.676-.587a3.97 3.97 0 0 0-1.434.37v.031l-.435.198a4.474 4.474 0 0 0-.187.118l-.017-.025c-1.153.551-1.67 1.726-1.51 2.935.162 1.213 1.011 2.393 2.589 2.788l.757.19v.78c0 1.752.351 2.858.865 3.58.503.709 1.249 1.168 2.296 1.454 1.069.292 2.384.386 3.938.397a93.37 93.37 0 0 0 2.435-.025l.124-.002a131.2 131.2 0 0 1 2.523-.032h.469l5.3 6.36-1.537 1.28-4.699-5.638c-.684.004-1.358.017-2.023.03l-.119.002c-.85.016-1.686.031-2.487.025-1.59-.011-3.121-.104-4.451-.468-1.35-.369-2.553-1.034-3.4-2.224-.73-1.027-1.126-2.352-1.215-4.004a5.27 5.27 0 0 1-3.347-4.23c-.237-1.778.452-3.688 2.156-4.744.124-1.456.7-2.676 1.732-3.488 1.044-.82 2.412-1.11 3.903-.955 1.037-.928 2.227-1.546 3.566-1.747 1.348-.202 2.766.03 4.232.677.047-.023.095-.044.142-.065.466-.275.953-.48 1.407-.632l.1.3Z"/>
  <path fill="var(--fg-color, #2A2859)" d="m17.358 7.413 2.053 7.186.643-1.425H24.7v2h-3.354L18.989 20.4l-1.947-6.814-1.662 4.156-1.772-2.953-1.297 1.728-1.356-1.344H8.7v-2h3.078l.31.308 1.704-2.272 1.228 2.047 2.338-5.844Z"/>
</svg>
