<svg xmlns="http://www.w3.org/2000/svg" id="brain-heart" fill="none" data-category="people-and-health" viewBox="0 0 32 32">
  <path fill="var(--fg-color, #2A2859)" d="M16.635 2.748c1.75-.839 3.808-.3 5.042 1.134 1.693.068 3.244.488 4.53 1.435 1.34.987 2.287 2.47 2.844 4.452.743.573 1.284 1.292 1.574 2.162.287.862.304 1.8.11 2.785.695 1.32.835 2.592.532 3.726-.26.974-.824 1.77-1.508 2.36.092 1.073-.227 2.088-.731 2.907a5.268 5.268 0 0 1-1.705 1.722l.708 3.227-1.953.429-1.072-4.879.854-.284c.49-.164 1.065-.615 1.465-1.263.163-.267.287-.548.363-.836-.924.172-1.729.118-2.445-.114-1.023-.33-1.731-.985-2.25-1.504l1.414-1.414c.48.48.907.84 1.45 1.015.44.142 1.054.194 1.966-.07l.299-.198c.587-.391 1.037-.953 1.213-1.613.17-.639.116-1.487-.516-2.54l-.213-.355.1-.402c.218-.87.196-1.544.021-2.067-.17-.51-.513-.964-1.105-1.359l-.322-.214-.094-.375c-.459-1.835-1.23-2.984-2.186-3.688-.963-.71-2.231-1.055-3.844-1.055h-.535l-.297-.445c-.552-.828-1.491-1.199-2.347-1.036l.019.058C16.646 4.905 15.7 5.664 15.7 7h-2c0-1.207.42-2.121 1.033-2.811-.744-.197-1.42-.232-2.034-.14-.999.15-1.937.651-2.816 1.53l-.364.364-.507-.084c-1.316-.22-2.253.024-2.843.487-.364.286-.664.71-.836 1.304a5.35 5.35 0 0 1 .378-.032c1.117-.056 2.292.257 3.201 1.18l-1.425 1.404c-.427-.434-1.001-.62-1.676-.587-.651.033-1.351.273-1.952.65-.672.62-.956 1.539-.831 2.477.161 1.213 1.01 2.393 2.588 2.788l.758.19v.78c0 1.752.351 2.858.864 3.58.504.709 1.25 1.168 2.297 1.454 1.068.292 2.384.386 3.938.397.77.006 1.582-.009 2.435-.025l.124-.002a131.2 131.2 0 0 1 2.523-.032h.468l5.3 6.36-1.537 1.28-4.698-5.638c-.684.004-1.358.017-2.023.03l-.12.002a96.33 96.33 0 0 1-2.487.025c-1.59-.011-3.12-.104-4.45-.468-1.35-.369-2.554-1.034-3.4-2.224-.73-1.027-1.127-2.352-1.215-4.004a5.27 5.27 0 0 1-3.348-4.23c-.236-1.778.453-3.688 2.157-4.744.123-1.456.699-2.676 1.731-3.488 1.044-.82 2.413-1.11 3.903-.955 1.038-.928 2.227-1.546 3.567-1.747 1.348-.202 2.766.03 4.232.677Z"/>
  <path fill="var(--fg-color, #2A2859)" d="M12.907 10.95a2.415 2.415 0 0 0 0 3.415l3.95 3.949 3.948-3.95a2.415 2.415 0 1 0-3.415-3.415l-.534.534-.533-.534a2.4 2.4 0 0 0-3.416 0Z"/>
</svg>
