<svg xmlns="http://www.w3.org/2000/svg" id="bullseye" fill="none" data-category="ui" viewBox="0 0 32 32">
  <path fill="var(--fg-color, #2A2859)"
    d="m26.44 8.62-1.58-.08.53-.54 3 .11V6.73l-2.8-.14-.14-2.81L24 3.76l.1 2.7-.53.54-.07-1.33h-1.38l.09 2.54a10.76 10.76 0 1 0 1.72 1.72l2.53.09-.02-1.4ZM15.54 25.3a8.729 8.729 0 0 1-6.08-15.027 8.73 8.73 0 0 1 11.42-.583l-1.48 1.48a6.54 6.54 0 0 0-3.86-1.25 6.68 6.68 0 1 0 5.3 2.64l1.47-1.48a8.711 8.711 0 0 1-6.77 14.22Zm4.66-8.73a4.661 4.661 0 1 1-4.66-4.65 4.58 4.58 0 0 1 2.41.69l-2 2.06c-.12-.01-.24-.01-.36 0a1.94 1.94 0 1 0 1.94 1.94 2.114 2.114 0 0 0-.09-.56l2-2c.49.75.753 1.625.76 2.52Z" />
</svg>