<svg id="car" data-category="sign" xmlns="http://www.w3.org/2000/svg" fill="none" viewBox="0 0 32 32">
  <path fill="var(--fg-color, #2A2859)" d="M28.474 18.577a3.126 3.126 0 0 0-1.927-2.883l-1.856-6.576a3.542 3.542 0 0 0-3.489-2.662h-10.11a3.561 3.561 0 0 0-3.484 2.642l-1.93 6.513a3.126 3.126 0 0 0-2.152 2.966v8.847h.995v4.09h4.74l1.092-4.09h11.379l1.067 4.09h4.674v-4.09h1v-8.847ZM5.526 25.424v-6.847a1.122 1.122 0 0 1 1.121-1.12h18.706a1.123 1.123 0 0 1 1.12 1.12v6.847H5.527ZM9.53 9.655l.007-.025a1.564 1.564 0 0 1 1.556-1.174h10.11a1.569 1.569 0 0 1 1.548 1.146l1.652 5.854H7.81l1.72-5.8ZM7.725 29.514H6.521v-2.09h1.762l-.558 2.09Zm17.748 0h-1.13l-.544-2.09h1.674v2.09Z"/>
  <path fill="var(--fg-color, #2A2859)" d="M8.997 22.473a1.524 1.524 0 1 0 0-3.048 1.524 1.524 0 0 0 0 3.048Zm13.989 0a1.524 1.524 0 1 0 0-3.048 1.524 1.524 0 0 0 0 3.048Z"/>
</svg>
