<svg xmlns="http://www.w3.org/2000/svg" id="cloud" fill="none" data-category="ui" viewBox="0 0 32 32">
  <path fill="var(--fg-color, #2A2859)"
    d="M25.017 25.746H6.982a6.01 6.01 0 0 1-3.044-11.175A8.8 8.8 0 0 1 19.928 10a6.016 6.016 0 0 1 7.192 4.116 6.009 6.009 0 0 1-2.103 11.63ZM12.724 8.253a6.807 6.807 0 0 0-6.8 6.8l.017.762-.598.274a4.01 4.01 0 0 0 1.64 7.657h18.034a4.01 4.01 0 0 0 1.008-7.884l-.608-.161-.117-.619a4.012 4.012 0 0 0-5.429-2.968l-.809.325-.432-.756a6.821 6.821 0 0 0-5.906-3.43Z" />
</svg>