<svg xmlns="http://www.w3.org/2000/svg" id="cogwheel" fill="none" data-category="ui" viewBox="0 0 32 32">
  <g fill="var(--fg-color, #2A2859)" fill-rule="evenodd" clip-rule="evenodd">
    <path d="M16 9a7 7 0 1 0 0 14 7 7 0 0 0 0-14Zm-5 7a5 5 0 1 1 10 0 5 5 0 0 1-10 0Z" />
    <path
      d="M13.333 1h5.334l.778 3.502c.786.235 1.54.549 2.249.932l3.027-1.926 3.771 3.771-1.926 3.027c.383.71.697 1.463.932 2.25l3.502.777v5.334l-3.502.778a11.89 11.89 0 0 1-.932 2.249l1.926 3.027-3.771 3.771-3.027-1.926c-.71.383-1.463.697-2.25.932L18.668 31h-5.334l-.778-3.502a11.917 11.917 0 0 1-2.249-.932L7.28 28.492l-3.771-3.771 1.926-3.027a11.927 11.927 0 0 1-.932-2.25L1 18.668v-5.334l3.502-.778c.235-.787.549-1.54.932-2.249L3.508 7.28l3.771-3.771 3.027 1.926c.71-.383 1.463-.697 2.25-.932L13.332 1Zm-.205 5.418 1.125-.337L14.938 3h2.124l.685 3.081 1.125.337c.654.196 1.28.457 1.871.776l1.034.558 2.664-1.696 1.503 1.503-1.696 2.664.558 1.034c.32.59.58 1.217.776 1.871l.337 1.125 3.081.685v2.124l-3.081.685-.337 1.125a9.921 9.921 0 0 1-.776 1.872l-.558 1.033 1.695 2.664-1.502 1.503-2.664-1.696-1.034.558a9.86 9.86 0 0 1-1.871.776l-1.125.337L17.062 29h-2.124l-.685-3.081-1.125-.337a9.924 9.924 0 0 1-1.871-.776l-1.034-.558-2.664 1.696-1.503-1.503 1.696-2.664-.558-1.034a9.925 9.925 0 0 1-.776-1.871l-.337-1.125L3 17.062v-2.124l3.081-.685.337-1.125c.196-.654.457-1.28.776-1.871l.558-1.034L6.057 7.56l1.502-1.503 2.664 1.696 1.034-.558a9.925 9.925 0 0 1 1.871-.776Z" />
  </g>
</svg>