<svg xmlns="http://www.w3.org/2000/svg" id="coin-stacks" fill="none" data-category="services" viewBox="0 0 32 32">
  <path fill="var(--fg-color, #2A2859)"
    d="M17 4.5C17 1.977 20.294 0 24.5 0 28.706 0 32 1.977 32 4.5V22c0 2.523-3.294 4.5-7.5 4.5-4.206 0-7.5-1.977-7.5-4.5V4.5Zm7.5 20c3.147 0 5.5-1.32 5.5-2.5v-.418C28.64 22.457 26.698 23 24.5 23s-4.14-.543-5.5-1.418V22c0 1.18 2.353 2.5 5.5 2.5Zm0-3.5c3.147 0 5.5-1.32 5.5-2.5v-.418c-1.36.875-3.302 1.418-5.5 1.418s-4.14-.543-5.5-1.418v.418c0 1.18 2.353 2.5 5.5 2.5Zm0-3.5c3.147 0 5.5-1.32 5.5-2.5v-.418C28.64 15.457 26.698 16 24.5 16s-4.14-.543-5.5-1.418V15c0 1.18 2.353 2.5 5.5 2.5Zm0-3.5c3.147 0 5.5-1.32 5.5-2.5v-.418c-1.36.875-3.302 1.418-5.5 1.418s-4.14-.543-5.5-1.418v.418c0 1.18 2.353 2.5 5.5 2.5Zm0-3.5c3.147 0 5.5-1.32 5.5-2.5v-.418C28.64 8.457 26.698 9 24.5 9s-4.14-.543-5.5-1.418V8c0 1.18 2.353 2.5 5.5 2.5Zm-5.5-6C19 5.68 21.353 7 24.5 7S30 5.68 30 4.5 27.647 2 24.5 2 19 3.32 19 4.5ZM0 17c0-2.523 3.294-4.5 7.5-4.5 4.206 0 7.5 1.977 7.5 4.5v10.5c0 2.523-3.294 4.5-7.5 4.5C3.294 32 0 30.023 0 27.5V17Zm7.5 13c3.148 0 5.5-1.32 5.5-2.5v-.418c-1.36.875-3.303 1.418-5.5 1.418s-4.14-.543-5.5-1.418v.418C2 28.68 4.352 30 7.5 30Zm0-3.5c3.148 0 5.5-1.32 5.5-2.5v-.418C11.64 24.457 9.697 25 7.5 25s-4.14-.543-5.5-1.418V24c0 1.18 2.352 2.5 5.5 2.5Zm0-3.5c3.148 0 5.5-1.32 5.5-2.5v-.418c-1.36.875-3.303 1.418-5.5 1.418s-4.14-.543-5.5-1.418v.418C2 21.68 4.352 23 7.5 23ZM2 17c0 1.18 2.352 2.5 5.5 2.5S13 18.18 13 17s-2.352-2.5-5.5-2.5S2 15.82 2 17Z" />
</svg>