<svg xmlns="http://www.w3.org/2000/svg" id="data" fill="none" data-category="ui" viewBox="0 0 32 32">
  <g fill="var(--fg-color, #2A2859)">
    <path fill-rule="evenodd"
      d="M15.82 1c-3.05 0-5.848.336-7.914.9-1.026.279-1.928.63-2.598 1.061C4.684 3.364 4 4.013 4 4.95c0 .066.003.131.01.195V27.15l.464.294a20.59 20.59 0 0 0 11.303 3.206 22.84 22.84 0 0 0 7.144-1.169c1.963-.656 3.537-1.496 4.376-2.227l.343-.299V4.95c0-.937-.684-1.586-1.309-1.989-.669-.431-1.571-.782-2.597-1.062C21.668 1.336 18.87 1 15.82 1ZM6.392 5.258c-.227-.147-.326-.252-.368-.308.042-.056.14-.161.368-.308.426-.274 1.108-.559 2.04-.813C10.282 3.324 12.895 3 15.82 3s5.538.324 7.388.829c.932.254 1.614.539 2.04.813.227.147.326.252.368.308-.042.056-.14.161-.368.308-.426.274-1.108.559-2.04.813-1.85.505-4.463.829-7.388.829s-5.538-.324-7.388-.829c-.932-.254-1.614-.539-2.04-.813ZM25.64 7.319c-.553.263-1.2.49-1.906.682-2.066.563-4.864.899-7.914.899S9.972 8.564 7.906 8a11.64 11.64 0 0 1-1.896-.676v3.823a18.66 18.66 0 0 0 9.796 2.613h.014c2.417 0 4.664-.46 6.472-1.066 1.526-.51 2.68-1.106 3.348-1.573V7.319Zm0 6.13c-.765.403-1.686.798-2.712 1.142a22.65 22.65 0 0 1-7.1 1.169 20.66 20.66 0 0 1-9.818-2.326v5.033a18.66 18.66 0 0 0 9.748 2.613h.012c2.443 0 4.703-.46 6.517-1.066 1.53-.511 2.685-1.106 3.353-1.573v-4.992ZM6.01 26.041v-5.287a20.66 20.66 0 0 0 9.766 2.326c2.685 0 5.157-.505 7.145-1.169a18.59 18.59 0 0 0 2.719-1.142v5.242c-.668.467-1.823 1.062-3.353 1.573a20.84 20.84 0 0 1-6.517 1.066h-.013a18.59 18.59 0 0 1-9.747-2.61Z"
      clip-rule="evenodd" />
    <path
      d="M21.82 10.83a1 1 0 1 1-2 0 1 1 0 0 1 2 0Zm0 7a1 1 0 1 1-2 0 1 1 0 0 1 2 0Zm0 7a1 1 0 1 1-2 0 1 1 0 0 1 2 0Z" />
  </g>
</svg>