<svg id="drinking-area-refreshments" data-category="sign" xmlns="http://www.w3.org/2000/svg" fill="none" viewBox="0 0 32 32">
  <path fill="var(--fg-color, #2A2859)" d="M17.098 27.723h5.248v2.135H9.66v-2.149h5.261c.02-2.117.04-3.693.06-5.795-.356-.081-.709-.135-1.045-.242a7.203 7.203 0 0 1-5.194-5.618 10.375 10.375 0 0 1-.144-1.254c-.01-.108-.009-.202-.009-.31.001-4.045.03-8.105.03-12.148v-.2h14.789v.21l.005 12.175a7.158 7.158 0 0 1-1.556 4.603 7.256 7.256 0 0 1-4.586 2.721c-.098.017-.119.06-.12.15a1199.59 1199.59 0 0 1-.03 3.888c-.006.723-.015.916-.022 1.64v.194Zm-6.3-15.608v.195c0 .834-.008 1.668.005 2.502-.001.315.03.63.091.938a5.237 5.237 0 0 0 8.093 3.137 4.938 4.938 0 0 0 2.232-4.14c.018-.838.006-1.677.006-2.516a1.094 1.094 0 0 0-.012-.116H10.798Zm.01-2.166h10.41V4.285h-10.41V9.95Z"/>
</svg>
