<svg xmlns="http://www.w3.org/2000/svg" id="face-almost-sad" fill="none" data-category="feedback" viewBox="0 0 32 32">
  <path fill="var(--bg-color, #f9c66b)"
    d="M16.111 30.222c7.793 0 14.111-6.318 14.111-14.11C30.222 8.317 23.904 2 16.112 2 8.317 2 2 8.318 2 16.111c0 7.793 6.318 14.111 14.111 14.111Z" />
  <path fill="var(--fg-color, #2C2C2C)"
    d="m16.111 16.421-4.989 4.99 2.495 2.494 2.494-2.495 2.494 2.495L21.1 21.41l-4.989-4.989Zm-3.528-3.841a1.764 1.764 0 1 0 0-3.527 1.764 1.764 0 0 0 0 3.528Zm7.056 0a1.764 1.764 0 1 0 0-3.527 1.764 1.764 0 0 0 0 3.528Z" />
</svg>