<svg xmlns="http://www.w3.org/2000/svg" id="face-sad" fill="none" data-category="feedback" viewBox="0 0 32 32">
  <path fill="var(--bg-color, #ff8274)"
    d="M16.111 30.222c7.793 0 14.111-6.318 14.111-14.11C30.222 8.317 23.904 2 16.112 2 8.317 2 2 8.318 2 16.111c0 7.793 6.318 14.111 14.111 14.111Z" />
  <path fill="var(--fg-color, #2C2C2C)"
    d="m17.358 10.847 2.495 2.495 1.247-1.247-1.247-1.248L21.1 9.6l-1.247-1.247-2.495 2.494Zm-2.494 0-2.495-2.494L11.122 9.6l1.247 1.247-1.247 1.248 1.247 1.247 2.495-2.495Zm1.247 5.574-4.989 4.99 2.495 2.494 2.494-2.495 2.494 2.495L21.1 21.41l-4.989-4.989Z" />
</svg>