<svg xmlns="http://www.w3.org/2000/svg" id="fire-emblem" fill="none" data-category="services" viewBox="0 0 32 32">
  <path fill="var(--fg-color, #2A2859)"
    d="M3 1.085V11.66c0 7.656 4.682 14.758 12.524 18.997l.476.258.476-.257C24.318 26.418 29 19.317 29 11.661V1.085H3Zm13 27.55c-2.135-1.209-4-2.65-5.561-4.262-.005-.007-.005-.016-.011-.022-1.956-2.353-1.935-3.98-1.559-5.979.458-2.435 2.287-3.685 4.036-4.945 1.377-.993 2.679-1.93 3.159-3.345a6.015 6.015 0 0 0 .305-1.571c.412.812.673 1.725.593 2.68-.161 1.918-1.06 3.107-1.852 4.156-.482.638-.938 1.24-1.187 1.94-.504 1.434-.285 2.837.601 3.851.921 1.053 2.454 1.537 3.903 1.235 1.563-.325 2.766-1.472 3.299-3.145a6.44 6.44 0 0 0 .306-2.146c.606.819.938 1.717.986 2.682.011.188.003.368.002.54-.019 2.662-1.095 3.672-1.095 3.672-1.632 1.772-3.618 3.352-5.925 4.659Zm11-16.974c0 2.77-.7 5.461-1.989 7.947-.11-1.858-.978-3.576-2.517-4.973l-.285-.26h-2.937l.487 1.341a4.41 4.41 0 0 1 .061 2.906c-.312.98-.951 1.617-1.8 1.794-.75.154-1.544-.085-1.99-.595-.41-.468-.485-1.114-.221-1.866.145-.407.493-.868.896-1.402.86-1.139 2.039-2.699 2.249-5.194.221-2.621-1.28-4.85-2.578-6.259l-.296-.322h-2.581l.5 1.348c.309.832.588 2.082.171 3.314-.274.808-1.275 1.529-2.435 2.364-1.868 1.346-4.134 2.915-4.827 6.174-.085.399-.1.838-.093 1.292C5.637 16.879 5 14.305 5 11.661V3.085h22v8.576Z" />
</svg>