<svg xmlns="http://www.w3.org/2000/svg" id="fire-safety" data-category="people-and-health" fill="none" viewBox="0 0 32 32">
  <path fill="var(--fg-color, #2A2859)" fill-rule="evenodd" d="M10.64 4.46 16 0l12 10v21H4V1h5.78l.86 3.46ZM8.22 3H6v5.34l2.94-2.45L8.22 3ZM6 10.94V29h20V10.94L16 2.61 6 10.94Z" clip-rule="evenodd"/>
  <path fill="var(--fg-color, #2A2859)" d="M21.34 15.03a5.879 5.879 0 0 1-.29 2 4.15 4.15 0 0 1-1.13 1.9 4.22 4.22 0 0 1-1.94 1 3.8 3.8 0 0 1-2-.1 3.71 3.71 0 0 1-1.66-1.06 3.44 3.44 0 0 1-.78-1.71 3.55 3.55 0 0 1 .21-1.88 7.344 7.344 0 0 1 1.11-1.81c1-1.08 2.93-2.7 1.12-6.37-.35 2.3-.58 3.07-3.18 4.58a7.78 7.78 0 0 0-2.31 2.01 7.55 7.55 0 0 0-1.41 2.69 5.84 5.84 0 0 0 1.45 5.58 24.703 24.703 0 0 0 5.48 4 21.62 21.62 0 0 0 5.24-4.35c.9-.92 1.61-3.64.09-6.48Z"/>
</svg>
