<svg xmlns="http://www.w3.org/2000/svg" id="github" fill="none" data-category="social" viewBox="0 0 32 32">
  <path fill="var(--fg-color, #2A2859)" fill-rule="evenodd"
    d="M16.0623 3c-3.1009-.0032-6.1016 1.1216-8.4644 3.173-2.3627 2.0513-3.933 4.895-4.4295 8.0215-.4965 3.1265.1133 6.3315 1.72 9.0405 1.6068 2.709 4.1056 4.745 7.0485 5.7431.6569.1227.8892-.2946.8892-.6464v-2.2664c-3.6448.81-4.4138-1.7919-4.4138-1.7919-.2418-.8064-.7554-1.4992-1.4499-1.9555-1.1775-.8182.0962-.8182.0962-.8182a2.7123 2.7123 0 0 1 1.1524.4524 2.784 2.784 0 0 1 .8422.9222c.1772.3282.4162.6175.7031.8512.287.2337.6163.4072.9691.5106a2.7323 2.7323 0 0 0 1.0867.0919 2.7461 2.7461 0 0 0 1.038-.341c.0503-.6731.3344-1.3057.8011-1.7837-2.8998-.3354-5.9438-1.4809-5.9438-6.5456-.0199-1.3231.459-2.6033 1.3378-3.5756a4.9568 4.9568 0 0 1 .1281-3.5265s1.0975-.36 3.5887 1.3664a12.0952 12.0952 0 0 1 6.5365 0c2.4913-1.7264 3.5807-1.3664 3.5807-1.3664a4.9317 4.9317 0 0 1 .1602 3.502c.8787.9723 1.3577 2.2525 1.3378 3.5755 0 5.122-3.052 6.243-5.9598 6.5457.3118.3201.5525.705.706 1.1285.1534.4235.2158.8758.1832 1.3261v3.6574c0 .4336.2323.7691.8971.6382 2.9095-1.0245 5.3708-3.0663 6.9492-5.7647 1.5784-2.6985 2.1723-5.8799 1.6768-8.9823-.4955-3.1024-2.0486-5.926-4.3848-7.9721C22.1087 4.1637 19.1397 3.0269 16.0623 3Z"
    clip-rule="evenodd" />
</svg>