<svg xmlns="http://www.w3.org/2000/svg" id="hands-globe" fill="none" data-category="people-and-health" viewBox="0 0 32 32">
  <path fill="var(--fg-color, #2A2859)" fill-rule="evenodd" d="M16 2a9.005 9.005 0 0 0-8.018 4.908A8.966 8.966 0 0 0 7 11c0 1.471.354 2.863.982 4.091a9.005 9.005 0 0 0 9.05 4.85 9.005 9.005 0 0 0 6.986-4.85A8.966 8.966 0 0 0 25 11a8.966 8.966 0 0 0-.982-4.092A9.005 9.005 0 0 0 16 2Zm-.586 2.262c.068-.095.13-.179.184-.25a7.125 7.125 0 0 1 .781-.002 18.03 18.03 0 0 1 1.382 2.354h-3.594a14.668 14.668 0 0 1 1.247-2.102Zm3.933.804a19.185 19.185 0 0 0-.158-.3 7.033 7.033 0 0 1 2.056 1.598h-1.288a18.143 18.143 0 0 0-.61-1.298Zm1.295 3.298h1.845c.33.812.513 1.702.513 2.636 0 .934-.182 1.824-.513 2.636h-1.845A10.52 10.52 0 0 0 21 11c0-.903-.14-1.794-.358-2.636Zm-.685 7.272h1.288a7.03 7.03 0 0 1-2.056 1.597l.158-.299c.205-.396.413-.831.61-1.298Zm-3.389 2.077c-.07.105-.133.197-.189.277a7.112 7.112 0 0 1-.782-.001 14.669 14.669 0 0 1-1.43-2.352h3.594a18.022 18.022 0 0 1-1.193 2.077Zm-3.91-.631.055.1a7.032 7.032 0 0 1-1.958-1.546h1.221c.217.528.451 1.012.683 1.446Zm-1.334-3.446h-1.81A6.978 6.978 0 0 1 9 11c0-.934.182-1.824.513-2.636h1.81C11.125 9.19 11 10.077 11 11s.124 1.81.324 2.636Zm.652-7.272h-1.22a7.03 7.03 0 0 1 1.957-1.546 15.996 15.996 0 0 0-.737 1.546ZM13 11c0-.92.154-1.81.392-2.636h5.17c.265.855.438 1.752.438 2.636 0 .884-.172 1.781-.438 2.636h-5.17A9.527 9.527 0 0 1 13 11Z" clip-rule="evenodd"/>
  <path fill="var(--fg-color, #2A2859)" d="M6 13H1v10.914l5.793 5.793 1.414-1.414L3 23.086V15h1v6.303l3.168 4.752 1.664-1.11-2.418-3.627.809-.486 2.07 2.898 2.83 1.888.907 3.625 1.94-.485-1.094-4.376-3.169-2.112-2.93-4.102L6 19.233V13Zm20 0h5v10.914l-5.793 5.793-1.414-1.414L29 23.086V15h-1v6.303l-3.168 4.752-1.664-1.11 2.418-3.627-.809-.486-2.07 2.898-2.83 1.888-.907 3.625-1.94-.485 1.094-4.376 3.169-2.112 2.93-4.102L26 19.233V13Z"/>
</svg>
