<svg xmlns="http://www.w3.org/2000/svg" id="heart-hand" fill="none" data-category="people-and-health" viewBox="0 0 32 32">
  <path fill="var(--fg-color, #2A2859)" fill-rule="evenodd" d="M2.214 2.371a3.717 3.717 0 0 0 0 5.257l5.15 5.15 4.708-4.708.567 3.971-.708-1.415-3.788 2.066 2.887 11.55c.82 3.283 3.363 6.622 7.97 6.622 3.986 0 6.768-2.3 8.395-5.553.106-.213.991-2.11 1.836-3.923l1.157-2.486.518-1.115.001-.002.38-.816-4.032-2.418-1.61 2.069 1.503-8.91-4.375-.875L22 9.77V5h-5v3.954l-.753-3.123-2.924.584A3.718 3.718 0 0 0 7.364 2.27a3.698 3.698 0 0 0-5.15.102Zm1.414 3.843a1.717 1.717 0 0 1 0-2.428 1.7 1.7 0 0 1 2.429 0l1.307 1.307 1.308-1.307A1.717 1.717 0 0 1 11.1 6.214L7.364 9.95 3.628 6.213Zm9.342 17.543-2.512-10.05.611-.333 2.537 5.073 1.884-.588-1.366-9.564.63-.126 2.274 9.43L19 17.363V7h1v10.5l1.967.255 2.26-8.59.626.125-1.726 10.238-.013.004a7.079 7.079 0 0 0-1.604.648c-1.202.676-2.51 1.96-2.51 4.184h2c0-1.276.692-1.992 1.49-2.441a5.087 5.087 0 0 1 1.618-.564l.019-.003h.001l.407-.051 3.21-4.128.969.581-.14.3-1.156 2.486a629.706 629.706 0 0 1-1.812 3.873c-1.373 2.746-3.551 4.447-6.606 4.447-3.393 0-5.35-2.39-6.03-5.107Z" clip-rule="evenodd"/>
</svg>
