<svg xmlns="http://www.w3.org/2000/svg" id="heart-plus" fill="none" data-category="services" viewBox="0 0 32 32">
  <g fill="var(--fg-color, #2A2859)">
    <path d="M23 23v-3h2v3h3v2h-3v3h-2v-3h-3v-2h3Z" />
    <path
      d="m28.41 15.096-1.469 1.469A7.997 7.997 0 0 1 24 32c-3.379 0-6.262-2.097-7.436-5.059l-1.065 1.065L2.59 15.097A8.784 8.784 0 0 1 0 8.844C0 6.481.92 4.261 2.59 2.59A8.788 8.788 0 0 1 8.844 0c2.362 0 4.583.92 6.253 2.59l.403.403.403-.403A8.786 8.786 0 0 1 22.156 0c2.363 0 4.584.92 6.254 2.59A8.786 8.786 0 0 1 31 8.843c0 2.362-.92 4.583-2.59 6.253ZM15.5 25.182l.533-.533A8.172 8.172 0 0 1 16 24a8 8 0 0 1 8-8c.219 0 .435.016.649.033l2.348-2.348a6.846 6.846 0 0 0-4.841-11.687 6.824 6.824 0 0 0-4.841 2.005L15.5 5.818l-1.815-1.815a6.824 6.824 0 0 0-4.841-2.005 6.846 6.846 0 0 0-4.841 11.687L15.5 25.182ZM18 24c0 3.308 2.692 6 6 6s6-2.692 6-6-2.692-6-6-6-6 2.692-6 6Z" />
  </g>
</svg>