<svg xmlns="http://www.w3.org/2000/svg" id="house-heart" fill="none" data-category="services" viewBox="0 0 32 32">
  <g fill="var(--fg-color, #2A2859)">
    <path
      d="M10.184 14.184a4.045 4.045 0 0 1 5.716 0l.099.101.1-.1a4.047 4.047 0 0 1 5.717 0 4.048 4.048 0 0 1 0 5.716L16 25.717 10.184 19.9a4.046 4.046 0 0 1 0-5.716Zm10.219 1.414a2.046 2.046 0 0 0-2.889 0L16 17.112l-1.514-1.513a2.036 2.036 0 0 0-1.444-.597c-.523 0-1.046.199-1.444.597a2.045 2.045 0 0 0 0 2.888L16 22.889l4.403-4.403a2.045 2.045 0 0 0 0-2.888Z" />
    <path
      d="M10.646 5.461 16 1l12 10v21H4V2h5.781l.865 3.461ZM8.219 4H6v5.333l2.94-2.45L8.219 4ZM6 11.937V30h20V11.937L16 3.604 6 11.937Z" />
  </g>
</svg>