<svg xmlns="http://www.w3.org/2000/svg" id="instagram" fill="none" data-category="social" viewBox="0 0 32 32">
  <path fill="var(--fg-color, #2A2859)"
    d="M10.6226 3.078C12.006 3.015 12.4477 3 15.9702 3s3.9641.015 5.3475.078a9.5195 9.5195 0 0 1 3.1484.603 6.3568 6.3568 0 0 1 2.2973 1.496 6.3581 6.3581 0 0 1 1.496 2.2972 9.5204 9.5204 0 0 1 .6029 3.1484c.0631 1.3834.078 1.8251.078 5.3476s-.0149 3.9641-.078 5.3475a9.5203 9.5203 0 0 1-.6029 3.1484 6.6321 6.6321 0 0 1-3.7933 3.7933 9.5202 9.5202 0 0 1-3.1483.6029c-1.3834.0631-1.8251.078-5.3476.078s-3.9642-.0149-5.3476-.078a9.5204 9.5204 0 0 1-3.1484-.6029 6.3581 6.3581 0 0 1-2.2973-1.496 6.3568 6.3568 0 0 1-1.496-2.2973 9.5198 9.5198 0 0 1-.6029-3.1484C3.015 19.9343 3 19.4927 3 15.9702s.015-3.9642.078-5.3476a9.52 9.52 0 0 1 .603-3.1484 6.3578 6.3578 0 0 1 1.496-2.2973 6.3577 6.3577 0 0 1 2.2972-1.496 9.52 9.52 0 0 1 3.1484-.6029Zm10.5886 2.3346c-1.3676-.0624-1.7778-.0756-5.241-.0756-3.4632 0-3.8734.0132-5.2411.0756a7.177 7.177 0 0 0-2.4084.4466 4.0187 4.0187 0 0 0-1.4913.9702 4.0184 4.0184 0 0 0-.9702 1.4913 7.1767 7.1767 0 0 0-.4466 2.4084c-.0624 1.3677-.0756 1.7779-.0756 5.2411 0 3.4632.0132 3.8734.0756 5.241a7.177 7.177 0 0 0 .4466 2.4084 4.0169 4.0169 0 0 0 .9702 1.4913 4.02 4.02 0 0 0 1.4913.9703 7.1797 7.1797 0 0 0 2.4084.4466c1.3675.0624 1.7776.0756 5.2411.0756 3.4634 0 3.8736-.0132 5.241-.0756a7.1797 7.1797 0 0 0 2.4084-.4466 4.2957 4.2957 0 0 0 2.4616-2.4616 7.1797 7.1797 0 0 0 .4466-2.4084c.0624-1.3676.0756-1.7778.0756-5.241 0-3.4632-.0132-3.8734-.0756-5.2411a7.1797 7.1797 0 0 0-.4466-2.4084 4.0195 4.0195 0 0 0-.9703-1.4913 4.0182 4.0182 0 0 0-1.4913-.9702 7.1768 7.1768 0 0 0-2.4084-.4466Zm3.2389 3.634c0 .8596-.6968 1.5565-1.5564 1.5565s-1.5564-.6969-1.5564-1.5564c0-.8596.6968-1.5565 1.5564-1.5565s1.5564.6969 1.5564 1.5565Zm-8.4799.2632c-2.6939 0-5.1225 1.6228-6.1534 4.1116-1.0309 2.4888-.461 5.3535 1.4438 7.2583 1.9048 1.9049 4.7696 2.4747 7.2584 1.4438 2.4888-1.0309 4.1115-3.4595 4.1115-6.1533 0-3.6784-2.9819-6.6604-6.6603-6.6604Zm0 10.9838c-2.3878-.0001-4.3234-1.9357-4.3234-4.3234 0-2.3878 1.9356-4.3234 4.3234-4.3234 2.3877 0 4.3234 1.9356 4.3234 4.3234a4.3234 4.3234 0 0 1-4.3234 4.3234Z" />
</svg>