<svg xmlns="http://www.w3.org/2000/svg" fill="none" viewBox="0 0 32 32"  id="key" data-category="ui">
  <g fill="var(--fg-color, #2A2859)" clip-path="url(#clip0_9164_15817)">
    <path d="M8.11 11.647c-1.901 0-3.448-1.556-3.448-3.466 0-1.911 1.547-3.467 3.448-3.467 1.9 0 3.448 1.556 3.448 3.467 0 1.91-1.547 3.466-3.448 3.466Zm0-4.857c-.763 0-1.384.624-1.384 1.39A1.39 1.39 0 0 0 8.11 9.571c.763 0 1.383-.624 1.383-1.39 0-.767-.62-1.391-1.383-1.391Z"/>
    <path d="M19.422 13.939c1.502-3.735.624-8.125-2.211-10.974A9.985 9.985 0 0 0 10.08 0a9.98 9.98 0 0 0-7.13 2.965A10.083 10.083 0 0 0 0 10.133c0 2.713 1.047 5.258 2.95 7.169a9.984 9.984 0 0 0 5.513 2.825c1.984.322 3.982.057 5.79-.77l1.545 1.554h1.222l.027.03-.016 1.3 2.317 2.207 1.183-.005.12.126-.02 1.188.973 1.068h1.287l.353.342.044 1.337L26.768 32h3.725L32 30.523V26.79L19.422 13.939Zm5.538 11.523-.251-.275-1.819.041-.113-.11-.003-1.86-1.234-1.247-1.856-.017-.497-.481-.002-1.927-.57-.498-.58-.585-1.66-.02-1.758-1.57-.645.353a8.103 8.103 0 0 1-9.616-1.377 8.105 8.105 0 0 1-2.368-5.755c0-2.176.84-4.22 2.366-5.755a8.08 8.08 0 0 1 11.453 0 8.17 8.17 0 0 1 1.536 9.339l-.315.641 12.92 13.02.137 2.614h-2.428l-1.89-2.292.015-1.415-.822-.825Z"/>
  </g>
  <defs>
    <clipPath id="clip0_9164_15817">
      <path fill="#fff" d="M0 0h32v32H0z"/>
    </clipPath>
  </defs>
</svg>
