<svg xmlns="http://www.w3.org/2000/svg" id="language" fill="none" data-category="ui" viewBox="0 0 32 32">
  <path fill="var(--fg-color, #2A2859)"
    d="M28 15.94a12 12 0 1 0-12 12 13.19 13.19 0 0 0 1.42-.09A12 12 0 0 0 28 15.94Zm-2.52 4H22a15 15 0 0 0 .11-8h3.36a10.36 10.36 0 0 1 0 8h.01ZM12.05 12h8a12.77 12.77 0 0 1-.14 8h-8a12.82 12.82 0 0 1 .14-8Zm12.29-2h-2.92a17.38 17.38 0 0 0-2.22-3.82A10.3 10.3 0 0 1 24.34 10Zm-8.22-4.34A17.34 17.34 0 0 1 19.23 10h-6.36a18.941 18.941 0 0 1 2.89-4.3h.36v-.04Zm-3.36.52A19.25 19.25 0 0 0 10.65 10h-3a10.23 10.23 0 0 1 5.11-3.82ZM6.5 12H10a15 15 0 0 0-.14 8H6.51a10.24 10.24 0 0 1 0-8H6.5Zm1.14 10h2.86a17.138 17.138 0 0 0 2.17 3.73 10.27 10.27 0 0 1-5.03-3.8V22Zm8.11 4.28A17.26 17.26 0 0 1 12.69 22h6.41a18.739 18.739 0 0 1-2.86 4.28h-.49Zm3.49-.53A19.088 19.088 0 0 0 21.31 22h3a10.19 10.19 0 0 1-5.07 3.68v.07Z" />
</svg>