<svg xmlns="http://www.w3.org/2000/svg" id="law-paragraph" fill="none" data-category="ui" viewBox="0 0 32 32">
  <path fill="var(--fg-color, #2A2859)" fill-rule="evenodd" d="M16.459.982c-2.252-.338-4.043.41-5.23 1.625-1.154 1.182-1.731 2.8-1.614 4.222.109 1.322.626 2.337 1.367 3.134a6.181 6.181 0 0 0-.77.48c-1.131.83-2.149 2.204-2.106 4.209.043 1.98.956 3.335 2.235 4.3 1.216.917 2.79 1.5 4.202 2.017l.099.037c1.379.505 2.61.956 3.568 1.58l-.001.028.044.001.08.054c.94.646 1.517 1.423 1.613 2.593.067.806-.275 1.865-1.051 2.66-.742.76-1.892 1.286-3.503 1.044-1.2-.18-2.28-.824-2.918-1.654-.621-.808-.802-1.74-.38-2.666l-1.82-.829c-.782 1.716-.374 3.428.615 4.714.972 1.263 2.524 2.16 4.207 2.413 2.25.338 4.042-.409 5.23-1.625 1.154-1.181 1.73-2.8 1.613-4.221-.108-1.323-.626-2.338-1.367-3.134.258-.136.518-.296.77-.481 1.131-.83 2.149-2.204 2.106-4.208-.043-1.98-.956-3.335-2.235-4.3-1.216-.918-2.79-1.501-4.201-2.018l-.1-.036c-1.379-.505-2.61-.956-3.568-1.581l.002-.027-.045-.002a6.556 6.556 0 0 1-.08-.054c-.94-.645-1.517-1.422-1.613-2.592-.066-.807.275-1.866 1.051-2.66.742-.76 1.892-1.287 3.503-1.045 1.2.18 2.28.825 2.918 1.655.621.808.802 1.74.38 2.665l1.821.83c.781-1.716.373-3.429-.616-4.715-.971-1.263-2.524-2.16-4.206-2.413Zm-3.612 10.39a4.322 4.322 0 0 0-1.453.685c-.734.538-1.314 1.345-1.288 2.552.027 1.27.565 2.087 1.44 2.746.936.707 2.217 1.199 3.684 1.736l.208.076c1.073.392 2.239.819 3.269 1.388a4.325 4.325 0 0 0 1.453-.685c.734-.538 1.314-1.345 1.288-2.552-.027-1.27-.565-2.087-1.439-2.747-.937-.706-2.218-1.198-3.685-1.736l-.208-.076c-1.072-.392-2.238-.818-3.269-1.388Z" clip-rule="evenodd"/>
</svg>
