<svg id="link" data-category="ui" xmlns="http://www.w3.org/2000/svg" fill="none" viewBox="0 0 33 34">
  <g fill="var(--fg-color, #2A2859)" clip-path="url(#clip0_11491_17175)">
    <path d="M32 8.38c-.12.47-.21.95-.35 1.41-.33 1.04-.92 1.92-1.69 2.69l-8.11 8.11c-1.47 1.47-3.24 2.17-5.3 2.02-1.65-.11-3.07-.78-4.24-1.96-.51-.51-.5-1.31-.01-1.83.48-.52 1.28-.58 1.83-.1.55.49 1.14.91 1.86 1.09 1.48.36 2.8.03 3.88-1.04 2.77-2.74 5.52-5.5 8.26-8.26 1.1-1.11 1.46-2.46 1.03-3.96-.43-1.47-1.44-2.42-2.94-2.77-1.46-.34-2.73.09-3.79 1.14-1.46 1.45-2.91 2.92-4.38 4.37-.64.64-1.56.6-2.07-.07a1.32 1.32 0 0 1 0-1.62c.04-.06.09-.12.14-.17 1.58-1.57 3.14-3.16 4.75-4.71.99-.96 2.22-1.49 3.59-1.67.06 0 .11-.04.17-.06h1.38c.08.02.16.05.24.06 2.57.42 4.36 1.84 5.32 4.26.21.53.3 1.12.44 1.68v1.38l-.01.01Z"/>
    <path d="M0 25.63c.13-.5.23-1.01.38-1.5.33-1.02.93-1.88 1.68-2.63 2.44-2.44 4.88-4.87 7.31-7.31 1.46-1.47 3.23-2.18 5.3-2.04 1.66.11 3.09.78 4.27 1.96.51.51.49 1.32 0 1.83a1.3 1.3 0 0 1-1.81.1c-.56-.49-1.15-.93-1.89-1.11-1.48-.36-2.79-.02-3.88 1.05-2.52 2.49-5.02 5-7.51 7.51-1.09 1.1-1.45 2.45-1.02 3.94.43 1.47 1.43 2.43 2.93 2.78 1.46.34 2.74-.08 3.8-1.13 1.21-1.2 2.41-2.42 3.63-3.62.51-.51 1.12-.6 1.68-.28.71.4.89 1.32.4 1.97-.04.06-.09.12-.14.17-1.33 1.32-2.64 2.66-3.99 3.96-1 .96-2.22 1.49-3.59 1.67-.06 0-.11.04-.17.06H6c-.08-.02-.16-.05-.24-.06-2.59-.43-4.37-1.86-5.33-4.29C.22 28.12.14 27.55 0 27v-1.38.01Z"/>
  </g>
  <defs>
    <clipPath id="clip0_11491_17175">
      <path fill="#fff" d="M0 0h33v34H0z"/>
    </clipPath>
  </defs>
</svg>
