<svg xmlns="http://www.w3.org/2000/svg" id="lock-unlocked" fill="none" data-category="ui" viewBox="0 0 32 32">
  <path fill="var(--fg-color, #2A2859)" d="M7.337 6.506A11.859 11.859 0 0 0 6 12h1.85c0-1.572.376-3.116 1.09-4.478.713-1.361 1.74-2.493 2.976-3.28a7.59 7.59 0 0 1 4.069-1.207 7.586 7.586 0 0 1 4.072 1.19l.921-1.765A9.308 9.308 0 0 0 15.981 1a9.313 9.313 0 0 0-4.992 1.48c-1.517.967-2.777 2.355-3.652 4.026ZM17.65 20.65a1.65 1.65 0 0 1-.85 1.444V25.4h-1.6v-3.307a1.65 1.65 0 1 1 2.45-1.443Z"/>
  <path fill="var(--fg-color, #2A2859)" fill-rule="evenodd" d="M3 13v18h26V13H3Zm24 2H5v14h22V15Z" clip-rule="evenodd"/>
</svg>
