<svg xmlns="http://www.w3.org/2000/svg" id="lock-locked" fill="none" data-category="ui" viewBox="0 0 32 32">
  <path fill="var(--fg-color, #2A2859)" d="M23.071 4.222C24.946 6.285 26 9.082 26 12h-1.85c0-2.378-.859-4.658-2.387-6.34C20.234 3.98 18.161 3.036 16 3.036c-2.162 0-4.235.944-5.763 2.626C8.709 7.342 7.85 9.622 7.85 12H6c0-2.917 1.054-5.715 2.929-7.778C10.804 2.159 13.348 1 16 1s5.196 1.159 7.071 3.222ZM17.65 20.65a1.65 1.65 0 0 1-.85 1.444V25.4h-1.6v-3.307a1.65 1.65 0 1 1 2.45-1.443Z"/>
  <path fill="var(--fg-color, #2A2859)" fill-rule="evenodd" d="M3 13v18h26V13H3Zm24 2H5v14h22V15Z" clip-rule="evenodd"/>
</svg>
