<svg xmlns="http://www.w3.org/2000/svg" id="map" fill="none" data-category="ui" viewBox="0 0 32 32">
  <g fill="var(--fg-color, #2A2859)">
    <path d="M13.582 7.5a2 2 0 1 0 4.001-.001 2 2 0 0 0-4.001.001Z" />
    <path fill-rule="evenodd"
      d="M8.64 7.607a6.943 6.943 0 1 1 12.946 3.487l9.981 7.13-5.508 6.607-6.398.914-4.92 5.904L.307 21.341l5.508-6.609 5.697-.815-1.789-2.581A6.914 6.914 0 0 1 8.64 7.607Zm9.354 8.828 2.483-3.675 8.173 5.838-2.847 3.416-7.81-5.579Zm-2.34 3.46 1.22-1.802 7.035 5.026-4.918.703-10.444-7.46 4.24-.606 2.868 4.14Zm4.871-12.288a4.943 4.943 0 0 0-9.886 0c0 .955.27 1.868.75 2.622l4.245 6.125 4.12-6.093a4.91 4.91 0 0 0 .763-2.369l.008-.285ZM17.5 25.214 6.332 17.237l-3.108 3.729 11.167 7.976 3.109-3.728Z"
      clip-rule="evenodd" />
  </g>
</svg>