<svg xmlns="http://www.w3.org/2000/svg" id="park" fill="none" data-category="services" viewBox="0 0 32 32">
  <g fill="var(--fg-color, #2A2859)">
    <path
      d="M32 7a7 7 0 1 0-14 0c0 3.526 2.609 6.434 6 6.92V32h2V19.914l3.207-3.207-1.414-1.414L26 17.086V13.92c3.391-.486 6-3.394 6-6.92ZM20 7c0-2.757 2.243-5 5-5s5 2.243 5 5-2.243 5-5 5-5-2.243-5-5Z" />
    <path
      d="M0 21v-2h22v2h-3v1h3v2h-3v1h-2v-1H5v1H3v-1H0v-2h3v-1H0Zm5 1h12v-1H5v1Zm17 4H0v2h22v-2ZM3 32v-3h2v3H3Zm14-3v3h2v-3h-2ZM7.503 8l-.304-.398A3.973 3.973 0 0 0 4 6.003v-2a5.954 5.954 0 0 1 4 1.525 5.942 5.942 0 0 1 3.999-1.525l.001 2a3.975 3.975 0 0 0-3.199 1.598l-.3.399h-.998Z" />
  </g>
</svg>