<svg xmlns="http://www.w3.org/2000/svg" id="pride-heart" fill="none" data-category="people-and-health" viewBox="0 0 32 32">
  <path fill="var(--fg-color, #2A2859)" fill-rule="evenodd" d="m28.907 17.092-12.91 12.91-12.91-12.91a8.842 8.842 0 0 1 12.51-12.5l.4.4.4-.4a8.842 8.842 0 1 1 12.51 12.5Zm-12.94 10.09.53-.53.655-.652h-2.363l1.178 1.182ZM12.795 24h6.364l2.509-2.5H10.303l2.492 2.5Zm-4.486-4.5h15.366l1.472-1.468L26.18 17H5.815l.502.502L8.31 19.5ZM3.875 15h24.22a6.846 6.846 0 0 0 1.203-2.5H2.617A6.848 6.848 0 0 0 3.875 15ZM2.39 10.5h27.104a6.845 6.845 0 0 0-.61-2.5H2.955a6.85 6.85 0 0 0-.566 2.5ZM4.286 6h9.9a6.85 6.85 0 0 0-9.9 0Zm18.371-2.002c-1.814 0-3.554.72-4.837 2.002h9.675a6.845 6.845 0 0 0-4.838-2.002Z" clip-rule="evenodd"/>
</svg>
