<svg xmlns="http://www.w3.org/2000/svg" id="punkt-circle-blue" data-category="social" fill="none" viewBox="0 0 200 200">
  <rect width="200" height="200" fill="#B3F5FF" rx="100"/>
  <path fill="#2A2859" d="M43.162 85C34.787 85 28 91.714 28 100s6.787 15 15.162 15 15.162-6.714 15.162-15-6.804-15-15.162-15Zm0 21.615c-3.694 0-6.687-2.96-6.687-6.615 0-3.655 2.993-6.615 6.687-6.615 3.694 0 6.687 2.96 6.687 6.615 0 3.655-2.993 6.615-6.687 6.615Zm47.927-12.287c0 5.474-4.096 9.211-10.549 9.211h-5.9v10.833h-3.578V85h9.712c6.42 0 10.315 3.82 10.315 9.328Zm-3.695.032c0-3.936-2.29-6.152-6.503-6.152H74.64v12.189h6.252c4.213 0 6.503-2.134 6.503-6.037Zm23.755-1.008v21.036h-3.461v-3.175c-1.287 2.266-3.527 3.489-6.135 3.489-4.246 0-6.787-2.695-6.787-7.26V93.335h3.46v13.71c0 3.142 1.605 4.68 4.364 4.68 3.493 0 5.098-2.662 5.098-6.78V93.352h3.461Zm22.149 6.946v14.09h-3.46V100.81c0-3.456-1.605-4.812-4.363-4.812-3.494 0-5.183 2.58-5.183 6.714v11.676h-3.46V93.352h3.46v3.142c1.371-2.266 3.578-3.54 6.186-3.523 4.296 0 6.82 2.663 6.82 7.343v-.016ZM145 104.267l-2.525 2.464v7.657h-3.46V85h3.46v17.795l9.512-9.443h4.38l-9.027 8.699 9.177 12.354h-4.212L145 104.283v-.016Zm23.269 7.508c1.237 0 2.123-.48 3.093-1.472l1.638 2.101c-1.488 1.62-3.126 2.298-5.182 2.298-3.21 0-5.851-2.017-5.851-5.986V96.097h-3.895v-2.745h3.895v-4.598l3.46-1.753v6.35h7.138v2.746h-7.138v12.536c0 2.414 1.488 3.142 2.842 3.142Z"/>
</svg>
