<svg xmlns="http://www.w3.org/2000/svg" id="qr-code" fill="none" data-category="ui" viewBox="0 0 32 32">
    <path fill="var(--fg-color, #2A2859)" d="M1 1h14v2H1zm20 0h10v2H21zm0 8h10v2H21zm-6-6h6v2h-6zm-4 2h7v2h-7zM5 5h2v2H5zm20 0h2v2h-2zM1 9h10v2H1zm2 12h6v2H3zm8 1h4v2h-4zm6-7h4v2h-4zM3 29h6v2H3zm2-16h4v2H5zm6-2h4v2h-4zM3 3v6H1V3zm8 0v6H9V3zm20 0v6h-2V3zm-8 0v6h-2V3zm0 8v4h-2v-4zm6 0v8h-2v-8zm-4 4v4h-2v-4zm2 4v2h-2v-2zm-8 3v2h-2v-2zm2-2v2h-2v-2zm4 1v2h-2v-2zm-8 3v2h-2v-2zM7 25v2H5v-2zm6 2v2h-2v-2zm8 2v2h-8v-2zm10-10v4h-2v-4zm-2 2v5h-2v-5zm2 5v5h-2v-5zm-6 0v4h-2v-4zm2 0v2h-2v-2zm-4-6v6h-2v-6zm-2 4v5h-2v-5zM5 11v4H3v-4zm6 4v6H9v-6zm0 6v10H9V21zm-8 0v10H1V21zM15 9v2h-2V9zm0 4v9h-2v-9zm2 0v8h-2v-8zm3-6v4h-2V7z"/>
</svg>
