<svg id="react" data-category="social" xmlns="http://www.w3.org/2000/svg" fill="none" viewBox="0 0 32 32">
  <path fill="var(--fg-color,#61DAFB)" d="M15.572 18.692a2.658 2.658 0 1 0 0-5.316 2.658 2.658 0 0 0 0 5.316Z"/>
  <path fill="var(--fg-color,#61DAFB)" d="M25.642 11.656a19.1 19.1 0 0 0-1.577-.524c.148-.569.257-1.123.342-1.658.488-3.07-.062-5.234-1.55-6.093s-3.638-.255-6.052 1.704c-.444.355-.88.75-1.317 1.185-.43-.406-.859-.779-1.287-1.118-2.437-1.925-4.59-2.507-6.07-1.629-1.481.878-2.002 3.047-1.481 6.11.084.496.195 1.009.332 1.533-.52.148-1.018.317-1.481.497C2.598 12.775 1 14.328 1 16.052c0 1.723 1.598 3.276 4.501 4.388.492.188 1.013.362 1.558.518a18.75 18.75 0 0 0-.323 1.577c-.11.669-.17 1.345-.175 2.023 0 1.994.592 3.405 1.724 4.061.453.257.968.389 1.489.38 1.297 0 2.864-.707 4.562-2.082.423-.344.847-.722 1.272-1.135.444.422.888.81 1.332 1.161 1.695 1.341 3.258 2.028 4.544 2.028a2.935 2.935 0 0 0 1.528-.4c1.48-.876 2.002-3.046 1.48-6.11a18.35 18.35 0 0 0-.331-1.532c.52-.148 1.017-.317 1.48-.498 2.903-1.111 4.502-2.665 4.502-4.388 0-1.723-1.6-3.275-4.501-4.387ZM17.646 6.12c1.925-1.564 3.583-2.141 4.546-1.586.962.555 1.29 2.28.9 4.73a18.237 18.237 0 0 1-.318 1.54 29.887 29.887 0 0 0-3.877-.608 30.19 30.19 0 0 0-2.46-2.99c.396-.396.804-.759 1.208-1.086h.001ZM15.6 23.887a27.777 27.777 0 0 1-1.6-1.876 38 38 0 0 0 3.168 0 30.083 30.083 0 0 1-1.57 1.869l.002.007Zm-.028-3.179c-.899 0-1.765-.03-2.599-.093a35.26 35.26 0 0 1-1.41-2.188 34.815 34.815 0 0 1-1.287-2.37c.38-.791.8-1.59 1.26-2.383.444-.76.897-1.491 1.37-2.188a35.643 35.643 0 0 1 5.263-.006 36.164 36.164 0 0 1 2.678 4.514 36.121 36.121 0 0 1-2.672 4.62c-.849.059-1.72.094-2.603.094Zm-6.013-6.197a28.185 28.185 0 0 1-.91-2.403 26.178 26.178 0 0 1 2.55-.445 38.13 38.13 0 0 0-1.64 2.845v.003Zm1.697 5.928a27.437 27.437 0 0 1-2.541-.444c.24-.776.531-1.573.869-2.383.265.5.545.997.841 1.493.264.454.542.9.83 1.334Zm9.511-1.442c.281-.488.548-.976.801-1.465.369.852.677 1.672.927 2.454-.825.186-1.697.339-2.604.456.295-.47.585-.952.87-1.445h.006Zm.783-4.559a35.687 35.687 0 0 0-1.65-2.787c.888.114 1.733.263 2.516.445a29.58 29.58 0 0 1-.872 2.342h.006Zm-6.04-6.273a27.049 27.049 0 0 1 1.638 1.925 37.111 37.111 0 0 0-3.237.003 23.412 23.412 0 0 1 1.592-1.928h.006ZM8.815 4.662c.264-.15.564-.226.868-.218.96 0 2.25.601 3.701 1.746.395.312.79.658 1.185 1.036a29.952 29.952 0 0 0-2.396 2.99c-1.31.117-2.61.322-3.89.614a17.38 17.38 0 0 1-.309-1.423c-.422-2.452-.126-4.178.835-4.745h.006ZM2.331 16.044c0-1.11 1.333-2.256 3.645-3.144a17.75 17.75 0 0 1 1.382-.462c.4 1.239.881 2.45 1.44 3.626-.537 1.169-1 2.37-1.383 3.599-3.177-.918-5.084-2.313-5.084-3.619Zm6.62 11.423c-.963-.556-1.291-2.28-.9-4.729.075-.47.174-.958.296-1.457 1.284.29 2.586.494 3.897.612a30.198 30.198 0 0 0 2.416 2.942c-2.394 2.318-4.572 3.288-5.71 2.632Zm13.38-.038c-.955.567-2.62.01-4.565-1.53-.408-.323-.818-.68-1.229-1.07a30.06 30.06 0 0 0 2.37-2.944 29.85 29.85 0 0 0 3.951-.619c.817 3.172.59 5.5-.527 6.163Zm2.841-8.24a18.91 18.91 0 0 1-1.381.462 29.816 29.816 0 0 0-1.463-3.672 29.783 29.783 0 0 0 1.373-3.562c3.192.918 5.11 2.317 5.11 3.626 0 1.112-1.329 2.26-3.639 3.146Z"/>
</svg>
