<svg id="receipt" data-category="ui" xmlns="http://www.w3.org/2000/svg" fill="none" viewBox="0 0 32 32">
  <path fill="#2A2859" d="M22.065 20.327H10.69v1.935h11.374v-1.935Zm-4.055-9.68h-7.32v1.936h7.318v-1.936Zm4.055 5.073H10.69v1.935h11.374V15.72Z"/>
  <path fill="#2A2859" d="M23.013 0H5v28.07l3.049 3.901 2.081-2.662L12.22 32l2.072-2.681L16.373 32l2.091-2.681L20.535 32l2.081-2.681L24.698 32l3.058-3.95V5.809L23.013 0Zm0 3.03 2.275 2.778h-2.275V3.03Zm2.846 24.363-1.162 1.451-2.08-2.68-2.082 2.68-2.071-2.68-2.09 2.68-2.091-2.68-2.072 2.68-2.071-2.68-2.091 2.661-1.152-1.423V1.936h14.22v5.808h4.742v19.648Z"/>
</svg>
