<svg xmlns="http://www.w3.org/2000/svg" id="share-outline" fill="none" data-category="ui" viewBox="0 0 32 32">
  <path fill="var(--fg-color, #2A2859)"
    d="M23.35 19.41a4.821 4.821 0 0 0-3.77 1.83l-7.34-4a4.69 4.69 0 0 0 .12-3.39l7-4A4.84 4.84 0 1 0 18.5 7c-.007.336.027.672.1 1l-7.24 4.15a4.81 4.81 0 0 0-3.59-1.65 4.85 4.85 0 0 0 0 9.7 4.81 4.81 0 0 0 3.3-1.32L18.68 23c-.116.4-.177.814-.18 1.23a4.85 4.85 0 1 0 4.85-4.85v.03Zm0-15.24A2.85 2.85 0 1 1 20.5 7a2.86 2.86 0 0 1 2.85-2.83ZM7.77 18.2a2.85 2.85 0 1 1 2.85-2.85 2.86 2.86 0 0 1-2.85 2.85Zm15.58 8.91a2.85 2.85 0 1 1 2.85-2.85 2.86 2.86 0 0 1-2.85 2.85Z" />
</svg>