<svg xmlns="http://www.w3.org/2000/svg" id="slack" fill="none" data-category="social" viewBox="0 0 32 32">
  <path fill="var(--fg-color, #2A2859)"
    d="M8.4626 19.4299c0 1.5033-1.228 2.7313-2.7313 2.7313S3 20.9332 3 19.4299c0-1.5032 1.228-2.7312 2.7313-2.7312h2.7313v2.7312Zm1.3761 0c0-1.5032 1.228-2.7312 2.7313-2.7312 1.5032 0 2.7312 1.228 2.7312 2.7312v6.8388C15.3012 27.772 14.0732 29 12.57 29c-1.5033 0-2.7313-1.228-2.7313-2.7313v-6.8388ZM12.57 8.4626c-1.5033 0-2.7313-1.228-2.7313-2.7313S11.0667 3 12.57 3c1.5032 0 2.7312 1.228 2.7312 2.7313v2.7313H12.57Zm.0001 1.3762c1.5033 0 2.7313 1.228 2.7313 2.7312 0 1.5033-1.228 2.7313-2.7313 2.7313H5.7313C4.228 15.3013 3 14.0733 3 12.57c0-1.5032 1.228-2.7312 2.7313-2.7312H12.57ZM23.5373 12.57c0-1.5032 1.228-2.7312 2.7313-2.7312 1.5032 0 2.7313 1.228 2.7313 2.7312 0 1.5033-1.2281 2.7313-2.7313 2.7313h-2.7313V12.57Zm-1.3761.0001c0 1.5032-1.228 2.7312-2.7313 2.7312s-2.7313-1.228-2.7313-2.7312V5.7313C16.6986 4.228 17.9266 3 19.4299 3s2.7313 1.228 2.7313 2.7313V12.57Zm-2.7313 10.9673c1.5033 0 2.7313 1.228 2.7313 2.7313S20.9332 29 19.4299 29s-2.7313-1.228-2.7313-2.7313v-2.7313h2.7313Zm0-1.3762c-1.5033 0-2.7313-1.228-2.7313-2.7313 0-1.5032 1.228-2.7312 2.7313-2.7312h6.8388c1.5033 0 2.7313 1.228 2.7313 2.7312 0 1.5033-1.228 2.7313-2.7313 2.7313h-6.8388Z" />
</svg>
