<svg xmlns="http://www.w3.org/2000/svg" id="sound-off" fill="none" data-category="ui" viewBox="0 0 32 32">
  <path fill="var(--fg-color, #2A2859)" fill-rule="evenodd"
    d="M25.534 8.974C24.252 4.93 20.468 2 16 2 10.477 2 6 6.477 6 12v4.319L.028 18.564l.704 1.872L6 18.456v1.128l-4 4.002v2.664h10.008a4 4 0 0 0 7.984 0H30v-2.664l-4-4.001V12l-.004-.28a10.092 10.092 0 0 0-.05-.764l6.036-2.27-.704-1.872-5.744 2.16Zm-1.876.705a8 8 0 0 0-15.654 2.072L8 12v3.566L23.658 9.68ZM8 17.703v2.711L4.164 24.25h23.671L24 20.414V12c0-.104-.002-.207-.006-.31L8 17.703ZM16 28a2 2 0 0 1-1.985-1.75h3.97A2 2 0 0 1 16 28Z"
    clip-rule="evenodd" />
</svg>