<svg xmlns="http://www.w3.org/2000/svg" id="svg-logo" fill="none" data-category="social" viewBox="0 0 33 33">
  <path fill="#FFB13B" d="M16.564.448c-1.996 0-3.666 1.287-4.331 2.894a4.6 4.6 0 0 0-.318 1.888 4.612 4.612 0 0 0-1.557-1.112 4.677 4.677 0 0 0-1.95-.342 4.684 4.684 0 0 0-3.157 1.36c-1.413 1.41-1.684 3.5-1.018 5.107.238.576.626 1.093 1.093 1.539a4.654 4.654 0 0 0-1.87.336C1.85 12.783.564 14.45.564 16.448c0 1.996 1.287 3.666 2.894 4.33.582.242 1.232.334 1.885.316-.476.45-.867.976-1.11 1.56-.665 1.606-.393 3.696 1.02 5.106 1.41 1.414 3.5 1.684 5.106 1.019.583-.241 1.107-.635 1.557-1.11-.018.654.077 1.303.318 1.886.665 1.607 2.333 2.893 4.33 2.893 1.997 0 3.666-1.286 4.331-2.893.237-.6.345-1.244.318-1.888.45.475.973.87 1.557 1.112 1.607.665 3.696.393 5.107-1.019 1.413-1.41 1.683-3.5 1.018-5.106a4.612 4.612 0 0 0-1.112-1.558 4.6 4.6 0 0 0 1.888-.317c1.607-.665 2.893-2.333 2.893-4.33 0-1.997-1.286-3.666-2.893-4.331a4.605 4.605 0 0 0-1.885-.315c.476-.45.866-.976 1.11-1.56.665-1.607.393-3.696-1.02-5.107a4.684 4.684 0 0 0-3.155-1.36 4.677 4.677 0 0 0-1.951.342c-.583.24-1.107.633-1.557 1.109a4.6 4.6 0 0 0-.318-1.885C20.23 1.735 18.561.448 16.564.448Zm-.055 2.15a2.536 2.536 0 0 1 1.85 4.329v5.19l3.668-3.669a2.536 2.536 0 1 1 2.537 2.536l-3.67 3.67h5.19a2.535 2.535 0 1 1 0 3.589h-5.19l3.67 3.67a2.536 2.536 0 1 1-2.537 2.535l-3.669-3.67v5.192a2.535 2.535 0 1 1-3.59 0v-5.191l-3.668 3.67a2.537 2.537 0 1 1-2.537-2.537l3.67-3.67h-5.19a2.535 2.535 0 1 1 0-3.588h5.19l-3.67-3.67A2.536 2.536 0 1 1 11.1 8.448l3.669 3.67V6.927a2.536 2.536 0 0 1 1.74-4.328Z"/>
</svg>
