<svg xmlns="http://www.w3.org/2000/svg" id="two-people-dancing" fill="none" data-category="people-and-health" viewBox="0 0 32 32">
  <path fill="var(--fg-color, #2A2859)" d="M9.498 2.75a2.5 2.5 0 1 1-5 0 2.5 2.5 0 0 1 5 0Zm17.999 0a2.5 2.5 0 1 1-5 0 2.5 2.5 0 0 1 5 0Z"/>
  <path fill="#2A2859" d="M29.996 6.306h-.566a1.741 1.741 0 0 1-1.74-1.74V4h.566a1.74 1.74 0 0 1 1.74 1.74v.566Z"/>
  <path fill="var(--fg-color, #2A2859)" fill-rule="evenodd" d="M27.021 31.706 25.19 23H23v9h-2v-9h-2.68l1.195-7.174 1.138-6.07-4.04 2.707-3.508-7.016 1.79-.894 2.492 4.984 3.783-2.534V7h7.463l-.001.006 1.846 5.77 1.012 7.083-1.98.282-.988-6.916-.48-1.5-.532 4.254L28.68 23h-1.447l1.746 8.294-1.957.412ZM22.83 9l-1.345 7.174L20.68 21h5.64l-.83-4.98.877-7.02H22.83ZM10.951 7H3.962L2.5 3.783V1h-2v3.217l2.421 5.327L2.45 19H4v5.764l-2.894 5.789 1.79.894L6 25.237V19h2.069l.423 5.922-1.466 6.353 1.948.45 1.534-6.647L10.074 19h1.477l-.414-8.286 1.92 2.707.957 5.743 1.972-.328-1.043-6.257-3.992-5.577V7ZM9.45 17h-4.9l.4-8h4.1l.4 8Z" clip-rule="evenodd"/>
</svg>
