<svg xmlns="http://www.w3.org/2000/svg" id="water-faucet" fill="none" data-category="services" viewBox="0 0 32 32">
  <g fill="var(--fg-color, #2A2859)">
    <path
      d="M27.5 17h-6v-5c0-3.309-2.691-6-6-6s-6 2.691-6 6v20h-6V12c0-6.617 5.383-12 12-12s12 5.383 12 12v5Zm-4-4v2h2v-2h-2Zm-16-1c0-4.411 3.589-8 8-8 4.072 0 7.436 3.06 7.93 7h2.019c-.503-5.046-4.773-9-9.949-9-5.514 0-10 4.486-10 10v18h2V12Z" />
    <path
      d="m24.5 18.344 2.828 2.828A3.971 3.971 0 0 1 28.5 24a3.971 3.971 0 0 1-1.172 2.828A3.971 3.971 0 0 1 24.5 28a3.971 3.971 0 0 1-2.828-1.172A3.971 3.971 0 0 1 20.5 24c0-1.068.416-2.073 1.172-2.828l2.828-2.828ZM22.5 24c0 .534.208 1.036.586 1.414.756.756 2.072.756 2.828 0 .378-.378.586-.88.586-1.414 0-.534-.208-1.036-.586-1.414L24.5 21.172l-1.414 1.414c-.378.378-.586.88-.586 1.414Z" />
  </g>
</svg>