<svg xmlns="http://www.w3.org/2000/svg" id="wine-bottle" data-category="people-and-health" fill="none" viewBox="0 0 32 32">
  <path fill="var(--fg-color, #2A2859)" d="M20.06 9.723a5.563 5.563 0 0 0-2.469-1.325V2h-3.22v6.417a5.077 5.077 0 0 0-2.469 1.166 6.576 6.576 0 0 0-1.514 2.328c-.327.865-.405 1.748-.385 2.7V30H22V15.077c-.02-.952-.055-1.941-.388-2.86a7.158 7.158 0 0 0-1.552-2.494Zm-4.119.42c.66 0 3.64.177 4 3.982h-7.939c0-3.982 3.11-3.982 3.92-3.982h.02Zm-3.939 5.848H20v6.529h-7.998v-6.53ZM20 28.116h-7.998v-3.73H20v3.73Z"/>
</svg>
