<svg width="1014" height="198" viewBox="0 0 1014 198" fill="none" xmlns="http://www.w3.org/2000/svg">
<rect width="1014" height="198" fill="white"/>
<path d="M66.036 61.384C66.036 59.648 67.618 58.528 69.452 58.528C71.146 58.528 72.294 59.256 72.812 60.558L71.888 60.936C71.468 59.942 70.53 59.396 69.452 59.396C68.024 59.396 67.016 60.124 67.016 61.272C67.016 62.238 67.59 62.826 68.808 63.064L70.432 63.372C72.028 63.68 73.204 64.534 73.204 66.088C73.204 67.684 71.86 69.112 69.592 69.112C67.8 69.112 66.456 68.496 65.728 66.956L66.624 66.592C67.324 67.964 68.486 68.244 69.62 68.244C71.314 68.244 72.224 67.264 72.224 66.144C72.224 64.898 71.384 64.534 70.124 64.296L68.64 64.016C67.198 63.75 66.036 62.952 66.036 61.384ZM76.4927 67.152C76.4927 68.02 77.0107 68.272 77.4727 68.272C77.9207 68.272 78.2147 68.104 78.5647 67.74L79.0687 68.3C78.5787 68.874 78.0467 69.112 77.3887 69.112C76.3807 69.112 75.5407 68.44 75.5407 67.124V62.364H74.1407V61.58H75.5407V59.984L76.4927 59.424V61.58H78.9007V62.364H76.4927V67.152ZM85.9528 69H85.0848C84.9728 68.594 84.8888 68.104 84.8888 67.544C84.5108 68.412 83.5448 69.112 82.3408 69.112C81.0248 69.112 80.0308 68.258 80.0308 66.984C80.0308 65.458 81.4028 64.66 82.9288 64.66C83.5308 64.66 84.1188 64.73 84.7208 64.94V63.96C84.7208 62.994 84.1328 62.336 82.9848 62.336C82.0608 62.336 81.2767 62.742 80.8848 63.876L80.0448 63.624C80.6048 62.056 81.7388 61.468 83.0408 61.468C84.8748 61.468 85.6448 62.574 85.6448 63.848V66.9C85.6448 67.74 85.7848 68.496 85.9528 69ZM84.7208 65.92V65.752C84.1468 65.514 83.5588 65.444 82.9848 65.444C81.8648 65.444 80.9828 65.948 80.9828 66.928C80.9828 67.824 81.6128 68.3 82.5088 68.3C83.4748 68.3 84.7208 67.726 84.7208 65.92ZM90.7117 61.468C91.6777 61.468 92.3777 62.112 92.3777 63.372V64.1L91.5097 64.268V63.54C91.5097 62.798 91.2577 62.308 90.5017 62.308C89.6477 62.308 89.0037 62.938 89.0037 64.436V69H88.0517V61.58H89.0037V62.504C89.3957 61.804 90.0537 61.468 90.7117 61.468ZM95.606 67.152C95.606 68.02 96.124 68.272 96.586 68.272C97.034 68.272 97.328 68.104 97.678 67.74L98.182 68.3C97.692 68.874 97.16 69.112 96.502 69.112C95.494 69.112 94.654 68.44 94.654 67.124V62.364H93.254V61.58H94.654V59.984L95.606 59.424V61.58H98.014V62.364H95.606V67.152ZM98.8042 63.568H102.164V64.464H98.8042V63.568ZM106.559 57.94H107.483L104.683 71.1H103.759L106.559 57.94ZM111.288 67.152C111.288 68.02 111.806 68.272 112.268 68.272C112.716 68.272 113.01 68.104 113.36 67.74L113.864 68.3C113.374 68.874 112.842 69.112 112.184 69.112C111.176 69.112 110.336 68.44 110.336 67.124V62.364H108.936V61.58H110.336V59.984L111.288 59.424V61.58H113.696V62.364H111.288V67.152ZM118.151 61.468C119.117 61.468 119.817 62.112 119.817 63.372V64.1L118.949 64.268V63.54C118.949 62.798 118.697 62.308 117.941 62.308C117.087 62.308 116.443 62.938 116.443 64.436V69H115.491V61.58H116.443V62.504C116.835 61.804 117.493 61.468 118.151 61.468ZM126.804 69H125.936C125.824 68.594 125.74 68.104 125.74 67.544C125.362 68.412 124.396 69.112 123.192 69.112C121.876 69.112 120.882 68.258 120.882 66.984C120.882 65.458 122.254 64.66 123.78 64.66C124.382 64.66 124.97 64.73 125.572 64.94V63.96C125.572 62.994 124.984 62.336 123.836 62.336C122.912 62.336 122.128 62.742 121.736 63.876L120.896 63.624C121.456 62.056 122.59 61.468 123.892 61.468C125.726 61.468 126.496 62.574 126.496 63.848V66.9C126.496 67.74 126.636 68.496 126.804 69ZM125.572 65.92V65.752C124.998 65.514 124.41 65.444 123.836 65.444C122.716 65.444 121.834 65.948 121.834 66.928C121.834 67.824 122.464 68.3 123.36 68.3C124.326 68.3 125.572 67.726 125.572 65.92ZM132.011 61.468C133.495 61.468 134.363 62.378 134.363 64.044V69H133.411V64.184C133.411 62.84 132.795 62.336 131.759 62.336C130.457 62.336 129.855 63.344 129.855 64.828V69H128.903V61.58H129.855V62.728C130.303 61.916 131.115 61.468 132.011 61.468ZM136.291 63.512C136.291 62.336 137.397 61.468 138.951 61.468C140.295 61.468 141.331 62.112 141.639 63.092L140.855 63.4C140.561 62.686 139.875 62.308 138.923 62.308C137.887 62.308 137.215 62.742 137.215 63.428C137.215 64.044 137.621 64.422 138.503 64.604L139.483 64.8C141.107 65.122 141.863 65.822 141.863 66.928C141.863 68.216 140.715 69.112 139.063 69.112C137.565 69.112 136.515 68.524 136.011 67.404L136.823 67.068C137.173 67.852 137.943 68.272 139.035 68.272C140.183 68.272 140.939 67.768 140.939 67.012C140.939 66.312 140.547 65.934 139.567 65.724L138.363 65.472C137.005 65.192 136.291 64.506 136.291 63.512ZM147.125 61.482C149.015 61.482 150.289 63.064 150.289 65.22C150.289 67.502 149.001 69.112 147.013 69.112C145.977 69.112 145.137 68.594 144.689 67.656V71.94H143.737V61.58H144.689V62.966C145.179 62.014 146.159 61.482 147.125 61.482ZM147.013 68.272C148.399 68.272 149.309 67.208 149.309 65.262C149.309 63.386 148.399 62.322 147.027 62.322C145.543 62.322 144.689 63.428 144.689 65.248C144.689 67.18 145.529 68.272 147.013 68.272ZM155.055 69.112C153.221 69.112 151.751 67.6 151.751 65.276C151.751 62.98 153.207 61.468 155.055 61.468C156.903 61.468 158.359 62.98 158.359 65.276C158.359 67.6 156.889 69.112 155.055 69.112ZM155.055 68.272C156.329 68.272 157.379 67.264 157.379 65.276C157.379 63.302 156.315 62.308 155.055 62.308C153.795 62.308 152.731 63.302 152.731 65.276C152.731 67.264 153.781 68.272 155.055 68.272ZM162.954 61.468C163.92 61.468 164.62 62.112 164.62 63.372V64.1L163.752 64.268V63.54C163.752 62.798 163.5 62.308 162.744 62.308C161.89 62.308 161.246 62.938 161.246 64.436V69H160.294V61.58H161.246V62.504C161.638 61.804 162.296 61.468 162.954 61.468ZM167.848 67.152C167.848 68.02 168.366 68.272 168.828 68.272C169.276 68.272 169.57 68.104 169.92 67.74L170.424 68.3C169.934 68.874 169.402 69.112 168.744 69.112C167.736 69.112 166.896 68.44 166.896 67.124V62.364H165.496V61.58H166.896V59.984L167.848 59.424V61.58H170.256V62.364H167.848V67.152ZM171.046 63.568H174.406V64.464H171.046V63.568ZM178.801 57.94H179.725L176.925 71.1H176.001L178.801 57.94ZM184.37 68.972C184.146 69.028 183.964 69.056 183.754 69.056C182.592 69.056 182.046 68.328 182.046 67.236V58.64H182.998V67.236C182.998 67.866 183.334 68.188 183.922 68.188C184.076 68.188 184.23 68.174 184.37 68.132V68.972ZM191.636 69H190.768C190.656 68.594 190.572 68.104 190.572 67.544C190.194 68.412 189.228 69.112 188.024 69.112C186.708 69.112 185.714 68.258 185.714 66.984C185.714 65.458 187.086 64.66 188.612 64.66C189.214 64.66 189.802 64.73 190.404 64.94V63.96C190.404 62.994 189.816 62.336 188.668 62.336C187.744 62.336 186.96 62.742 186.568 63.876L185.728 63.624C186.288 62.056 187.422 61.468 188.724 61.468C190.558 61.468 191.328 62.574 191.328 63.848V66.9C191.328 67.74 191.468 68.496 191.636 69ZM190.404 65.92V65.752C189.83 65.514 189.242 65.444 188.668 65.444C187.548 65.444 186.666 65.948 186.666 66.928C186.666 67.824 187.296 68.3 188.192 68.3C189.158 68.3 190.404 67.726 190.404 65.92ZM196.843 61.468C198.327 61.468 199.195 62.378 199.195 64.044V69H198.243V64.184C198.243 62.84 197.627 62.336 196.591 62.336C195.289 62.336 194.687 63.344 194.687 64.828V69H193.735V61.58H194.687V62.728C195.135 61.916 195.947 61.468 196.843 61.468ZM206.611 58.64H207.563V69H206.611V67.614C206.121 68.566 205.141 69.098 204.175 69.098C202.285 69.098 201.011 67.516 201.011 65.36C201.011 63.078 202.299 61.468 204.287 61.468C205.323 61.468 206.163 61.986 206.611 62.924V58.64ZM204.273 68.258C205.757 68.258 206.611 67.152 206.611 65.332C206.611 63.4 205.771 62.308 204.287 62.308C202.901 62.308 201.991 63.372 201.991 65.318C201.991 67.194 202.901 68.258 204.273 68.258ZM210.385 60.236C209.923 60.236 209.545 59.872 209.545 59.396C209.545 58.92 209.923 58.556 210.385 58.556C210.847 58.556 211.225 58.92 211.225 59.396C211.225 59.872 210.847 60.236 210.385 60.236ZM209.909 69V61.58H210.861V69H209.909ZM216.38 61.468C217.864 61.468 218.732 62.378 218.732 64.044V69H217.78V64.184C217.78 62.84 217.164 62.336 216.128 62.336C214.826 62.336 214.224 63.344 214.224 64.828V69H213.272V61.58H214.224V62.728C214.672 61.916 215.484 61.468 216.38 61.468ZM227.688 62.364H226.092V62.63C226.456 63.078 226.652 63.638 226.652 64.184C226.652 65.542 225.672 66.928 223.586 66.928H223.264C222.424 66.928 221.822 67.25 221.822 67.74C221.822 68.118 222.116 68.384 222.732 68.384H225.742C226.946 68.384 227.562 68.972 227.562 69.896C227.562 71.366 225.868 72.136 223.782 72.136C221.906 72.136 220.604 71.534 220.156 70.232L220.926 69.882C221.444 71.1 222.536 71.338 223.782 71.338C225.322 71.338 226.61 70.876 226.61 69.98C226.61 69.56 226.386 69.252 225.714 69.252H222.522C221.486 69.252 220.87 68.762 220.87 67.992C220.87 67.334 221.416 66.76 222.326 66.522C221.346 66.13 220.8 65.094 220.8 64.184C220.8 62.854 221.794 61.468 223.754 61.468C224.524 61.468 225.112 61.72 225.56 62.098V61.58H227.688V62.364ZM223.74 66.144C225.056 66.144 225.714 65.234 225.714 64.184C225.714 63.148 225.056 62.28 223.74 62.28C222.41 62.28 221.738 63.162 221.738 64.184C221.738 65.22 222.41 66.144 223.74 66.144ZM228.535 63.512C228.535 62.336 229.641 61.468 231.195 61.468C232.539 61.468 233.575 62.112 233.883 63.092L233.099 63.4C232.805 62.686 232.119 62.308 231.167 62.308C230.131 62.308 229.459 62.742 229.459 63.428C229.459 64.044 229.865 64.422 230.747 64.604L231.727 64.8C233.351 65.122 234.107 65.822 234.107 66.928C234.107 68.216 232.959 69.112 231.307 69.112C229.809 69.112 228.759 68.524 228.255 67.404L229.067 67.068C229.417 67.852 230.187 68.272 231.279 68.272C232.427 68.272 233.183 67.768 233.183 67.012C233.183 66.312 232.791 65.934 231.811 65.724L230.607 65.472C229.249 65.192 228.535 64.506 228.535 63.512ZM235.617 63.512C235.617 62.336 236.723 61.468 238.277 61.468C239.621 61.468 240.657 62.112 240.965 63.092L240.181 63.4C239.887 62.686 239.201 62.308 238.249 62.308C237.213 62.308 236.541 62.742 236.541 63.428C236.541 64.044 236.947 64.422 237.829 64.604L238.809 64.8C240.433 65.122 241.189 65.822 241.189 66.928C241.189 68.216 240.041 69.112 238.389 69.112C236.891 69.112 235.841 68.524 235.337 67.404L236.149 67.068C236.499 67.852 237.269 68.272 238.361 68.272C239.509 68.272 240.265 67.768 240.265 67.012C240.265 66.312 239.873 65.934 238.893 65.724L237.689 65.472C236.331 65.192 235.617 64.506 235.617 63.512ZM242.811 58.696H244.267V60.124H242.811V58.696ZM243.063 69V61.58H244.015V69H243.063ZM251.551 58.64H252.503V69H251.551V67.614C251.061 68.566 250.081 69.098 249.115 69.098C247.225 69.098 245.951 67.516 245.951 65.36C245.951 63.078 247.239 61.468 249.227 61.468C250.263 61.468 251.103 61.986 251.551 62.924V58.64ZM249.213 68.258C250.697 68.258 251.551 67.152 251.551 65.332C251.551 63.4 250.711 62.308 249.227 62.308C247.841 62.308 246.931 63.372 246.931 65.318C246.931 67.194 247.841 68.258 249.213 68.258ZM259.917 66.9L260.617 67.292C260.267 68.188 259.343 69.112 257.691 69.112C255.605 69.112 254.373 67.558 254.373 65.192C254.373 63.022 255.661 61.468 257.593 61.468C259.189 61.468 260.561 62.616 260.561 64.632L260.533 65.458H255.339C255.423 67.432 256.361 68.272 257.789 68.272C258.909 68.272 259.567 67.628 259.917 66.9ZM257.593 62.308C256.473 62.308 255.465 62.91 255.339 64.674H259.623C259.665 63.008 258.685 62.308 257.593 62.308Z" fill="#2A2859"/>
<path d="M65 71.856H261.373V72.472H65V71.856Z" fill="#2A2859"/>
<path fill-rule="evenodd" clip-rule="evenodd" d="M279.707 64L275 68.8356L275.647 69.5L281 64L275.647 58.5L275 59.1644L279.707 64Z" fill="#2A2859"/>
<path d="M295.036 61.384C295.036 59.648 296.618 58.528 298.452 58.528C300.146 58.528 301.294 59.256 301.812 60.558L300.888 60.936C300.468 59.942 299.53 59.396 298.452 59.396C297.024 59.396 296.016 60.124 296.016 61.272C296.016 62.238 296.59 62.826 297.808 63.064L299.432 63.372C301.028 63.68 302.204 64.534 302.204 66.088C302.204 67.684 300.86 69.112 298.592 69.112C296.8 69.112 295.456 68.496 294.728 66.956L295.624 66.592C296.324 67.964 297.486 68.244 298.62 68.244C300.314 68.244 301.224 67.264 301.224 66.144C301.224 64.898 300.384 64.534 299.124 64.296L297.64 64.016C296.198 63.75 295.036 62.952 295.036 61.384ZM305.493 67.152C305.493 68.02 306.011 68.272 306.473 68.272C306.921 68.272 307.215 68.104 307.565 67.74L308.069 68.3C307.579 68.874 307.047 69.112 306.389 69.112C305.381 69.112 304.541 68.44 304.541 67.124V62.364H303.141V61.58H304.541V59.984L305.493 59.424V61.58H307.901V62.364H305.493V67.152ZM314.953 69H314.085C313.973 68.594 313.889 68.104 313.889 67.544C313.511 68.412 312.545 69.112 311.341 69.112C310.025 69.112 309.031 68.258 309.031 66.984C309.031 65.458 310.403 64.66 311.929 64.66C312.531 64.66 313.119 64.73 313.721 64.94V63.96C313.721 62.994 313.133 62.336 311.985 62.336C311.061 62.336 310.277 62.742 309.885 63.876L309.045 63.624C309.605 62.056 310.739 61.468 312.041 61.468C313.875 61.468 314.645 62.574 314.645 63.848V66.9C314.645 67.74 314.785 68.496 314.953 69ZM313.721 65.92V65.752C313.147 65.514 312.559 65.444 311.985 65.444C310.865 65.444 309.983 65.948 309.983 66.928C309.983 67.824 310.613 68.3 311.509 68.3C312.475 68.3 313.721 67.726 313.721 65.92ZM319.712 61.468C320.678 61.468 321.378 62.112 321.378 63.372V64.1L320.51 64.268V63.54C320.51 62.798 320.258 62.308 319.502 62.308C318.648 62.308 318.004 62.938 318.004 64.436V69H317.052V61.58H318.004V62.504C318.396 61.804 319.054 61.468 319.712 61.468ZM324.606 67.152C324.606 68.02 325.124 68.272 325.586 68.272C326.034 68.272 326.328 68.104 326.678 67.74L327.182 68.3C326.692 68.874 326.16 69.112 325.502 69.112C324.494 69.112 323.654 68.44 323.654 67.124V62.364H322.254V61.58H323.654V59.984L324.606 59.424V61.58H327.014V62.364H324.606V67.152ZM327.804 63.568H331.164V64.464H327.804V63.568ZM335.559 57.94H336.483L333.683 71.1H332.759L335.559 57.94ZM340.288 67.152C340.288 68.02 340.806 68.272 341.268 68.272C341.716 68.272 342.01 68.104 342.36 67.74L342.864 68.3C342.374 68.874 341.842 69.112 341.184 69.112C340.176 69.112 339.336 68.44 339.336 67.124V62.364H337.936V61.58H339.336V59.984L340.288 59.424V61.58H342.696V62.364H340.288V67.152ZM347.151 61.468C348.117 61.468 348.817 62.112 348.817 63.372V64.1L347.949 64.268V63.54C347.949 62.798 347.697 62.308 346.941 62.308C346.087 62.308 345.443 62.938 345.443 64.436V69H344.491V61.58H345.443V62.504C345.835 61.804 346.493 61.468 347.151 61.468ZM355.804 69H354.936C354.824 68.594 354.74 68.104 354.74 67.544C354.362 68.412 353.396 69.112 352.192 69.112C350.876 69.112 349.882 68.258 349.882 66.984C349.882 65.458 351.254 64.66 352.78 64.66C353.382 64.66 353.97 64.73 354.572 64.94V63.96C354.572 62.994 353.984 62.336 352.836 62.336C351.912 62.336 351.128 62.742 350.736 63.876L349.896 63.624C350.456 62.056 351.59 61.468 352.892 61.468C354.726 61.468 355.496 62.574 355.496 63.848V66.9C355.496 67.74 355.636 68.496 355.804 69ZM354.572 65.92V65.752C353.998 65.514 353.41 65.444 352.836 65.444C351.716 65.444 350.834 65.948 350.834 66.928C350.834 67.824 351.464 68.3 352.36 68.3C353.326 68.3 354.572 67.726 354.572 65.92ZM361.011 61.468C362.495 61.468 363.363 62.378 363.363 64.044V69H362.411V64.184C362.411 62.84 361.795 62.336 360.759 62.336C359.457 62.336 358.855 63.344 358.855 64.828V69H357.903V61.58H358.855V62.728C359.303 61.916 360.115 61.468 361.011 61.468ZM365.291 63.512C365.291 62.336 366.397 61.468 367.951 61.468C369.295 61.468 370.331 62.112 370.639 63.092L369.855 63.4C369.561 62.686 368.875 62.308 367.923 62.308C366.887 62.308 366.215 62.742 366.215 63.428C366.215 64.044 366.621 64.422 367.503 64.604L368.483 64.8C370.107 65.122 370.863 65.822 370.863 66.928C370.863 68.216 369.715 69.112 368.063 69.112C366.565 69.112 365.515 68.524 365.011 67.404L365.823 67.068C366.173 67.852 366.943 68.272 368.035 68.272C369.183 68.272 369.939 67.768 369.939 67.012C369.939 66.312 369.547 65.934 368.567 65.724L367.363 65.472C366.005 65.192 365.291 64.506 365.291 63.512ZM376.125 61.482C378.015 61.482 379.289 63.064 379.289 65.22C379.289 67.502 378.001 69.112 376.013 69.112C374.977 69.112 374.137 68.594 373.689 67.656V71.94H372.737V61.58H373.689V62.966C374.179 62.014 375.159 61.482 376.125 61.482ZM376.013 68.272C377.399 68.272 378.309 67.208 378.309 65.262C378.309 63.386 377.399 62.322 376.027 62.322C374.543 62.322 373.689 63.428 373.689 65.248C373.689 67.18 374.529 68.272 376.013 68.272ZM384.055 69.112C382.221 69.112 380.751 67.6 380.751 65.276C380.751 62.98 382.207 61.468 384.055 61.468C385.903 61.468 387.359 62.98 387.359 65.276C387.359 67.6 385.889 69.112 384.055 69.112ZM384.055 68.272C385.329 68.272 386.379 67.264 386.379 65.276C386.379 63.302 385.315 62.308 384.055 62.308C382.795 62.308 381.731 63.302 381.731 65.276C381.731 67.264 382.781 68.272 384.055 68.272ZM391.954 61.468C392.92 61.468 393.62 62.112 393.62 63.372V64.1L392.752 64.268V63.54C392.752 62.798 392.5 62.308 391.744 62.308C390.89 62.308 390.246 62.938 390.246 64.436V69H389.294V61.58H390.246V62.504C390.638 61.804 391.296 61.468 391.954 61.468ZM396.848 67.152C396.848 68.02 397.366 68.272 397.828 68.272C398.276 68.272 398.57 68.104 398.92 67.74L399.424 68.3C398.934 68.874 398.402 69.112 397.744 69.112C396.736 69.112 395.896 68.44 395.896 67.124V62.364H394.496V61.58H395.896V59.984L396.848 59.424V61.58H399.256V62.364H396.848V67.152ZM400.046 63.568H403.406V64.464H400.046V63.568ZM407.801 57.94H408.725L405.925 71.1H405.001L407.801 57.94ZM413.37 68.972C413.146 69.028 412.964 69.056 412.754 69.056C411.592 69.056 411.046 68.328 411.046 67.236V58.64H411.998V67.236C411.998 67.866 412.334 68.188 412.922 68.188C413.076 68.188 413.23 68.174 413.37 68.132V68.972ZM420.636 69H419.768C419.656 68.594 419.572 68.104 419.572 67.544C419.194 68.412 418.228 69.112 417.024 69.112C415.708 69.112 414.714 68.258 414.714 66.984C414.714 65.458 416.086 64.66 417.612 64.66C418.214 64.66 418.802 64.73 419.404 64.94V63.96C419.404 62.994 418.816 62.336 417.668 62.336C416.744 62.336 415.96 62.742 415.568 63.876L414.728 63.624C415.288 62.056 416.422 61.468 417.724 61.468C419.558 61.468 420.328 62.574 420.328 63.848V66.9C420.328 67.74 420.468 68.496 420.636 69ZM419.404 65.92V65.752C418.83 65.514 418.242 65.444 417.668 65.444C416.548 65.444 415.666 65.948 415.666 66.928C415.666 67.824 416.296 68.3 417.192 68.3C418.158 68.3 419.404 67.726 419.404 65.92ZM425.843 61.468C427.327 61.468 428.195 62.378 428.195 64.044V69H427.243V64.184C427.243 62.84 426.627 62.336 425.591 62.336C424.289 62.336 423.687 63.344 423.687 64.828V69H422.735V61.58H423.687V62.728C424.135 61.916 424.947 61.468 425.843 61.468ZM435.611 58.64H436.563V69H435.611V67.614C435.121 68.566 434.141 69.098 433.175 69.098C431.285 69.098 430.011 67.516 430.011 65.36C430.011 63.078 431.299 61.468 433.287 61.468C434.323 61.468 435.163 61.986 435.611 62.924V58.64ZM433.273 68.258C434.757 68.258 435.611 67.152 435.611 65.332C435.611 63.4 434.771 62.308 433.287 62.308C431.901 62.308 430.991 63.372 430.991 65.318C430.991 67.194 431.901 68.258 433.273 68.258ZM439.385 60.236C438.923 60.236 438.545 59.872 438.545 59.396C438.545 58.92 438.923 58.556 439.385 58.556C439.847 58.556 440.225 58.92 440.225 59.396C440.225 59.872 439.847 60.236 439.385 60.236ZM438.909 69V61.58H439.861V69H438.909ZM445.38 61.468C446.864 61.468 447.732 62.378 447.732 64.044V69H446.78V64.184C446.78 62.84 446.164 62.336 445.128 62.336C443.826 62.336 443.224 63.344 443.224 64.828V69H442.272V61.58H443.224V62.728C443.672 61.916 444.484 61.468 445.38 61.468ZM456.688 62.364H455.092V62.63C455.456 63.078 455.652 63.638 455.652 64.184C455.652 65.542 454.672 66.928 452.586 66.928H452.264C451.424 66.928 450.822 67.25 450.822 67.74C450.822 68.118 451.116 68.384 451.732 68.384H454.742C455.946 68.384 456.562 68.972 456.562 69.896C456.562 71.366 454.868 72.136 452.782 72.136C450.906 72.136 449.604 71.534 449.156 70.232L449.926 69.882C450.444 71.1 451.536 71.338 452.782 71.338C454.322 71.338 455.61 70.876 455.61 69.98C455.61 69.56 455.386 69.252 454.714 69.252H451.522C450.486 69.252 449.87 68.762 449.87 67.992C449.87 67.334 450.416 66.76 451.326 66.522C450.346 66.13 449.8 65.094 449.8 64.184C449.8 62.854 450.794 61.468 452.754 61.468C453.524 61.468 454.112 61.72 454.56 62.098V61.58H456.688V62.364ZM452.74 66.144C454.056 66.144 454.714 65.234 454.714 64.184C454.714 63.148 454.056 62.28 452.74 62.28C451.41 62.28 450.738 63.162 450.738 64.184C450.738 65.22 451.41 66.144 452.74 66.144ZM457.535 63.512C457.535 62.336 458.641 61.468 460.195 61.468C461.539 61.468 462.575 62.112 462.883 63.092L462.099 63.4C461.805 62.686 461.119 62.308 460.167 62.308C459.131 62.308 458.459 62.742 458.459 63.428C458.459 64.044 458.865 64.422 459.747 64.604L460.727 64.8C462.351 65.122 463.107 65.822 463.107 66.928C463.107 68.216 461.959 69.112 460.307 69.112C458.809 69.112 457.759 68.524 457.255 67.404L458.067 67.068C458.417 67.852 459.187 68.272 460.279 68.272C461.427 68.272 462.183 67.768 462.183 67.012C462.183 66.312 461.791 65.934 460.811 65.724L459.607 65.472C458.249 65.192 457.535 64.506 457.535 63.512ZM464.617 63.512C464.617 62.336 465.723 61.468 467.277 61.468C468.621 61.468 469.657 62.112 469.965 63.092L469.181 63.4C468.887 62.686 468.201 62.308 467.249 62.308C466.213 62.308 465.541 62.742 465.541 63.428C465.541 64.044 465.947 64.422 466.829 64.604L467.809 64.8C469.433 65.122 470.189 65.822 470.189 66.928C470.189 68.216 469.041 69.112 467.389 69.112C465.891 69.112 464.841 68.524 464.337 67.404L465.149 67.068C465.499 67.852 466.269 68.272 467.361 68.272C468.509 68.272 469.265 67.768 469.265 67.012C469.265 66.312 468.873 65.934 467.893 65.724L466.689 65.472C465.331 65.192 464.617 64.506 464.617 63.512ZM471.811 58.696H473.267V60.124H471.811V58.696ZM472.063 69V61.58H473.015V69H472.063ZM480.551 58.64H481.503V69H480.551V67.614C480.061 68.566 479.081 69.098 478.115 69.098C476.225 69.098 474.951 67.516 474.951 65.36C474.951 63.078 476.239 61.468 478.227 61.468C479.263 61.468 480.103 61.986 480.551 62.924V58.64ZM478.213 68.258C479.697 68.258 480.551 67.152 480.551 65.332C480.551 63.4 479.711 62.308 478.227 62.308C476.841 62.308 475.931 63.372 475.931 65.318C475.931 67.194 476.841 68.258 478.213 68.258ZM488.917 66.9L489.617 67.292C489.267 68.188 488.343 69.112 486.691 69.112C484.605 69.112 483.373 67.558 483.373 65.192C483.373 63.022 484.661 61.468 486.593 61.468C488.189 61.468 489.561 62.616 489.561 64.632L489.533 65.458H484.339C484.423 67.432 485.361 68.272 486.789 68.272C487.909 68.272 488.567 67.628 488.917 66.9ZM486.593 62.308C485.473 62.308 484.465 62.91 484.339 64.674H488.623C488.665 63.008 487.685 62.308 486.593 62.308Z" fill="#2A2859"/>
<path d="M294 71.856H490.373V72.472H294V71.856Z" fill="#2A2859"/>
<path fill-rule="evenodd" clip-rule="evenodd" d="M508.707 64L504 68.8356L504.647 69.5L510 64L504.647 58.5L504 59.1644L508.707 64Z" fill="#2A2859"/>
<path d="M524.036 61.384C524.036 59.648 525.618 58.528 527.452 58.528C529.146 58.528 530.294 59.256 530.812 60.558L529.888 60.936C529.468 59.942 528.53 59.396 527.452 59.396C526.024 59.396 525.016 60.124 525.016 61.272C525.016 62.238 525.59 62.826 526.808 63.064L528.432 63.372C530.028 63.68 531.204 64.534 531.204 66.088C531.204 67.684 529.86 69.112 527.592 69.112C525.8 69.112 524.456 68.496 523.728 66.956L524.624 66.592C525.324 67.964 526.486 68.244 527.62 68.244C529.314 68.244 530.224 67.264 530.224 66.144C530.224 64.898 529.384 64.534 528.124 64.296L526.64 64.016C525.198 63.75 524.036 62.952 524.036 61.384ZM534.493 67.152C534.493 68.02 535.011 68.272 535.473 68.272C535.921 68.272 536.215 68.104 536.565 67.74L537.069 68.3C536.579 68.874 536.047 69.112 535.389 69.112C534.381 69.112 533.541 68.44 533.541 67.124V62.364H532.141V61.58H533.541V59.984L534.493 59.424V61.58H536.901V62.364H534.493V67.152ZM543.953 69H543.085C542.973 68.594 542.889 68.104 542.889 67.544C542.511 68.412 541.545 69.112 540.341 69.112C539.025 69.112 538.031 68.258 538.031 66.984C538.031 65.458 539.403 64.66 540.929 64.66C541.531 64.66 542.119 64.73 542.721 64.94V63.96C542.721 62.994 542.133 62.336 540.985 62.336C540.061 62.336 539.277 62.742 538.885 63.876L538.045 63.624C538.605 62.056 539.739 61.468 541.041 61.468C542.875 61.468 543.645 62.574 543.645 63.848V66.9C543.645 67.74 543.785 68.496 543.953 69ZM542.721 65.92V65.752C542.147 65.514 541.559 65.444 540.985 65.444C539.865 65.444 538.983 65.948 538.983 66.928C538.983 67.824 539.613 68.3 540.509 68.3C541.475 68.3 542.721 67.726 542.721 65.92ZM548.712 61.468C549.678 61.468 550.378 62.112 550.378 63.372V64.1L549.51 64.268V63.54C549.51 62.798 549.258 62.308 548.502 62.308C547.648 62.308 547.004 62.938 547.004 64.436V69H546.052V61.58H547.004V62.504C547.396 61.804 548.054 61.468 548.712 61.468ZM553.606 67.152C553.606 68.02 554.124 68.272 554.586 68.272C555.034 68.272 555.328 68.104 555.678 67.74L556.182 68.3C555.692 68.874 555.16 69.112 554.502 69.112C553.494 69.112 552.654 68.44 552.654 67.124V62.364H551.254V61.58H552.654V59.984L553.606 59.424V61.58H556.014V62.364H553.606V67.152ZM556.804 63.568H560.164V64.464H556.804V63.568ZM564.559 57.94H565.483L562.683 71.1H561.759L564.559 57.94ZM569.288 67.152C569.288 68.02 569.806 68.272 570.268 68.272C570.716 68.272 571.01 68.104 571.36 67.74L571.864 68.3C571.374 68.874 570.842 69.112 570.184 69.112C569.176 69.112 568.336 68.44 568.336 67.124V62.364H566.936V61.58H568.336V59.984L569.288 59.424V61.58H571.696V62.364H569.288V67.152ZM576.151 61.468C577.117 61.468 577.817 62.112 577.817 63.372V64.1L576.949 64.268V63.54C576.949 62.798 576.697 62.308 575.941 62.308C575.087 62.308 574.443 62.938 574.443 64.436V69H573.491V61.58H574.443V62.504C574.835 61.804 575.493 61.468 576.151 61.468ZM584.804 69H583.936C583.824 68.594 583.74 68.104 583.74 67.544C583.362 68.412 582.396 69.112 581.192 69.112C579.876 69.112 578.882 68.258 578.882 66.984C578.882 65.458 580.254 64.66 581.78 64.66C582.382 64.66 582.97 64.73 583.572 64.94V63.96C583.572 62.994 582.984 62.336 581.836 62.336C580.912 62.336 580.128 62.742 579.736 63.876L578.896 63.624C579.456 62.056 580.59 61.468 581.892 61.468C583.726 61.468 584.496 62.574 584.496 63.848V66.9C584.496 67.74 584.636 68.496 584.804 69ZM583.572 65.92V65.752C582.998 65.514 582.41 65.444 581.836 65.444C580.716 65.444 579.834 65.948 579.834 66.928C579.834 67.824 580.464 68.3 581.36 68.3C582.326 68.3 583.572 67.726 583.572 65.92ZM590.011 61.468C591.495 61.468 592.363 62.378 592.363 64.044V69H591.411V64.184C591.411 62.84 590.795 62.336 589.759 62.336C588.457 62.336 587.855 63.344 587.855 64.828V69H586.903V61.58H587.855V62.728C588.303 61.916 589.115 61.468 590.011 61.468ZM594.291 63.512C594.291 62.336 595.397 61.468 596.951 61.468C598.295 61.468 599.331 62.112 599.639 63.092L598.855 63.4C598.561 62.686 597.875 62.308 596.923 62.308C595.887 62.308 595.215 62.742 595.215 63.428C595.215 64.044 595.621 64.422 596.503 64.604L597.483 64.8C599.107 65.122 599.863 65.822 599.863 66.928C599.863 68.216 598.715 69.112 597.063 69.112C595.565 69.112 594.515 68.524 594.011 67.404L594.823 67.068C595.173 67.852 595.943 68.272 597.035 68.272C598.183 68.272 598.939 67.768 598.939 67.012C598.939 66.312 598.547 65.934 597.567 65.724L596.363 65.472C595.005 65.192 594.291 64.506 594.291 63.512ZM605.125 61.482C607.015 61.482 608.289 63.064 608.289 65.22C608.289 67.502 607.001 69.112 605.013 69.112C603.977 69.112 603.137 68.594 602.689 67.656V71.94H601.737V61.58H602.689V62.966C603.179 62.014 604.159 61.482 605.125 61.482ZM605.013 68.272C606.399 68.272 607.309 67.208 607.309 65.262C607.309 63.386 606.399 62.322 605.027 62.322C603.543 62.322 602.689 63.428 602.689 65.248C602.689 67.18 603.529 68.272 605.013 68.272ZM613.055 69.112C611.221 69.112 609.751 67.6 609.751 65.276C609.751 62.98 611.207 61.468 613.055 61.468C614.903 61.468 616.359 62.98 616.359 65.276C616.359 67.6 614.889 69.112 613.055 69.112ZM613.055 68.272C614.329 68.272 615.379 67.264 615.379 65.276C615.379 63.302 614.315 62.308 613.055 62.308C611.795 62.308 610.731 63.302 610.731 65.276C610.731 67.264 611.781 68.272 613.055 68.272ZM620.954 61.468C621.92 61.468 622.62 62.112 622.62 63.372V64.1L621.752 64.268V63.54C621.752 62.798 621.5 62.308 620.744 62.308C619.89 62.308 619.246 62.938 619.246 64.436V69H618.294V61.58H619.246V62.504C619.638 61.804 620.296 61.468 620.954 61.468ZM625.848 67.152C625.848 68.02 626.366 68.272 626.828 68.272C627.276 68.272 627.57 68.104 627.92 67.74L628.424 68.3C627.934 68.874 627.402 69.112 626.744 69.112C625.736 69.112 624.896 68.44 624.896 67.124V62.364H623.496V61.58H624.896V59.984L625.848 59.424V61.58H628.256V62.364H625.848V67.152ZM629.046 63.568H632.406V64.464H629.046V63.568ZM636.801 57.94H637.725L634.925 71.1H634.001L636.801 57.94ZM642.37 68.972C642.146 69.028 641.964 69.056 641.754 69.056C640.592 69.056 640.046 68.328 640.046 67.236V58.64H640.998V67.236C640.998 67.866 641.334 68.188 641.922 68.188C642.076 68.188 642.23 68.174 642.37 68.132V68.972ZM649.636 69H648.768C648.656 68.594 648.572 68.104 648.572 67.544C648.194 68.412 647.228 69.112 646.024 69.112C644.708 69.112 643.714 68.258 643.714 66.984C643.714 65.458 645.086 64.66 646.612 64.66C647.214 64.66 647.802 64.73 648.404 64.94V63.96C648.404 62.994 647.816 62.336 646.668 62.336C645.744 62.336 644.96 62.742 644.568 63.876L643.728 63.624C644.288 62.056 645.422 61.468 646.724 61.468C648.558 61.468 649.328 62.574 649.328 63.848V66.9C649.328 67.74 649.468 68.496 649.636 69ZM648.404 65.92V65.752C647.83 65.514 647.242 65.444 646.668 65.444C645.548 65.444 644.666 65.948 644.666 66.928C644.666 67.824 645.296 68.3 646.192 68.3C647.158 68.3 648.404 67.726 648.404 65.92ZM654.843 61.468C656.327 61.468 657.195 62.378 657.195 64.044V69H656.243V64.184C656.243 62.84 655.627 62.336 654.591 62.336C653.289 62.336 652.687 63.344 652.687 64.828V69H651.735V61.58H652.687V62.728C653.135 61.916 653.947 61.468 654.843 61.468ZM664.611 58.64H665.563V69H664.611V67.614C664.121 68.566 663.141 69.098 662.175 69.098C660.285 69.098 659.011 67.516 659.011 65.36C659.011 63.078 660.299 61.468 662.287 61.468C663.323 61.468 664.163 61.986 664.611 62.924V58.64ZM662.273 68.258C663.757 68.258 664.611 67.152 664.611 65.332C664.611 63.4 663.771 62.308 662.287 62.308C660.901 62.308 659.991 63.372 659.991 65.318C659.991 67.194 660.901 68.258 662.273 68.258ZM668.385 60.236C667.923 60.236 667.545 59.872 667.545 59.396C667.545 58.92 667.923 58.556 668.385 58.556C668.847 58.556 669.225 58.92 669.225 59.396C669.225 59.872 668.847 60.236 668.385 60.236ZM667.909 69V61.58H668.861V69H667.909ZM674.38 61.468C675.864 61.468 676.732 62.378 676.732 64.044V69H675.78V64.184C675.78 62.84 675.164 62.336 674.128 62.336C672.826 62.336 672.224 63.344 672.224 64.828V69H671.272V61.58H672.224V62.728C672.672 61.916 673.484 61.468 674.38 61.468ZM685.688 62.364H684.092V62.63C684.456 63.078 684.652 63.638 684.652 64.184C684.652 65.542 683.672 66.928 681.586 66.928H681.264C680.424 66.928 679.822 67.25 679.822 67.74C679.822 68.118 680.116 68.384 680.732 68.384H683.742C684.946 68.384 685.562 68.972 685.562 69.896C685.562 71.366 683.868 72.136 681.782 72.136C679.906 72.136 678.604 71.534 678.156 70.232L678.926 69.882C679.444 71.1 680.536 71.338 681.782 71.338C683.322 71.338 684.61 70.876 684.61 69.98C684.61 69.56 684.386 69.252 683.714 69.252H680.522C679.486 69.252 678.87 68.762 678.87 67.992C678.87 67.334 679.416 66.76 680.326 66.522C679.346 66.13 678.8 65.094 678.8 64.184C678.8 62.854 679.794 61.468 681.754 61.468C682.524 61.468 683.112 61.72 683.56 62.098V61.58H685.688V62.364ZM681.74 66.144C683.056 66.144 683.714 65.234 683.714 64.184C683.714 63.148 683.056 62.28 681.74 62.28C680.41 62.28 679.738 63.162 679.738 64.184C679.738 65.22 680.41 66.144 681.74 66.144ZM686.535 63.512C686.535 62.336 687.641 61.468 689.195 61.468C690.539 61.468 691.575 62.112 691.883 63.092L691.099 63.4C690.805 62.686 690.119 62.308 689.167 62.308C688.131 62.308 687.459 62.742 687.459 63.428C687.459 64.044 687.865 64.422 688.747 64.604L689.727 64.8C691.351 65.122 692.107 65.822 692.107 66.928C692.107 68.216 690.959 69.112 689.307 69.112C687.809 69.112 686.759 68.524 686.255 67.404L687.067 67.068C687.417 67.852 688.187 68.272 689.279 68.272C690.427 68.272 691.183 67.768 691.183 67.012C691.183 66.312 690.791 65.934 689.811 65.724L688.607 65.472C687.249 65.192 686.535 64.506 686.535 63.512ZM693.617 63.512C693.617 62.336 694.723 61.468 696.277 61.468C697.621 61.468 698.657 62.112 698.965 63.092L698.181 63.4C697.887 62.686 697.201 62.308 696.249 62.308C695.213 62.308 694.541 62.742 694.541 63.428C694.541 64.044 694.947 64.422 695.829 64.604L696.809 64.8C698.433 65.122 699.189 65.822 699.189 66.928C699.189 68.216 698.041 69.112 696.389 69.112C694.891 69.112 693.841 68.524 693.337 67.404L694.149 67.068C694.499 67.852 695.269 68.272 696.361 68.272C697.509 68.272 698.265 67.768 698.265 67.012C698.265 66.312 697.873 65.934 696.893 65.724L695.689 65.472C694.331 65.192 693.617 64.506 693.617 63.512ZM700.811 58.696H702.267V60.124H700.811V58.696ZM701.063 69V61.58H702.015V69H701.063ZM709.551 58.64H710.503V69H709.551V67.614C709.061 68.566 708.081 69.098 707.115 69.098C705.225 69.098 703.951 67.516 703.951 65.36C703.951 63.078 705.239 61.468 707.227 61.468C708.263 61.468 709.103 61.986 709.551 62.924V58.64ZM707.213 68.258C708.697 68.258 709.551 67.152 709.551 65.332C709.551 63.4 708.711 62.308 707.227 62.308C705.841 62.308 704.931 63.372 704.931 65.318C704.931 67.194 705.841 68.258 707.213 68.258ZM717.917 66.9L718.617 67.292C718.267 68.188 717.343 69.112 715.691 69.112C713.605 69.112 712.373 67.558 712.373 65.192C712.373 63.022 713.661 61.468 715.593 61.468C717.189 61.468 718.561 62.616 718.561 64.632L718.533 65.458H713.339C713.423 67.432 714.361 68.272 715.789 68.272C716.909 68.272 717.567 67.628 717.917 66.9ZM715.593 62.308C714.473 62.308 713.465 62.91 713.339 64.674H717.623C717.665 63.008 716.685 62.308 715.593 62.308Z" fill="#2A2859"/>
<path d="M523 71.856H719.373V72.472H523V71.856Z" fill="#2A2859"/>
<path fill-rule="evenodd" clip-rule="evenodd" d="M737.707 64L733 68.8356L733.647 69.5L739 64L733.647 58.5L733 59.1644L737.707 64Z" fill="#2A2859"/>
<path d="M753.036 61.384C753.036 59.648 754.618 58.528 756.452 58.528C758.146 58.528 759.294 59.256 759.812 60.558L758.888 60.936C758.468 59.942 757.53 59.396 756.452 59.396C755.024 59.396 754.016 60.124 754.016 61.272C754.016 62.238 754.59 62.826 755.808 63.064L757.432 63.372C759.028 63.68 760.204 64.534 760.204 66.088C760.204 67.684 758.86 69.112 756.592 69.112C754.8 69.112 753.456 68.496 752.728 66.956L753.624 66.592C754.324 67.964 755.486 68.244 756.62 68.244C758.314 68.244 759.224 67.264 759.224 66.144C759.224 64.898 758.384 64.534 757.124 64.296L755.64 64.016C754.198 63.75 753.036 62.952 753.036 61.384ZM763.493 67.152C763.493 68.02 764.011 68.272 764.473 68.272C764.921 68.272 765.215 68.104 765.565 67.74L766.069 68.3C765.579 68.874 765.047 69.112 764.389 69.112C763.381 69.112 762.541 68.44 762.541 67.124V62.364H761.141V61.58H762.541V59.984L763.493 59.424V61.58H765.901V62.364H763.493V67.152ZM772.953 69H772.085C771.973 68.594 771.889 68.104 771.889 67.544C771.511 68.412 770.545 69.112 769.341 69.112C768.025 69.112 767.031 68.258 767.031 66.984C767.031 65.458 768.403 64.66 769.929 64.66C770.531 64.66 771.119 64.73 771.721 64.94V63.96C771.721 62.994 771.133 62.336 769.985 62.336C769.061 62.336 768.277 62.742 767.885 63.876L767.045 63.624C767.605 62.056 768.739 61.468 770.041 61.468C771.875 61.468 772.645 62.574 772.645 63.848V66.9C772.645 67.74 772.785 68.496 772.953 69ZM771.721 65.92V65.752C771.147 65.514 770.559 65.444 769.985 65.444C768.865 65.444 767.983 65.948 767.983 66.928C767.983 67.824 768.613 68.3 769.509 68.3C770.475 68.3 771.721 67.726 771.721 65.92ZM777.712 61.468C778.678 61.468 779.378 62.112 779.378 63.372V64.1L778.51 64.268V63.54C778.51 62.798 778.258 62.308 777.502 62.308C776.648 62.308 776.004 62.938 776.004 64.436V69H775.052V61.58H776.004V62.504C776.396 61.804 777.054 61.468 777.712 61.468ZM782.606 67.152C782.606 68.02 783.124 68.272 783.586 68.272C784.034 68.272 784.328 68.104 784.678 67.74L785.182 68.3C784.692 68.874 784.16 69.112 783.502 69.112C782.494 69.112 781.654 68.44 781.654 67.124V62.364H780.254V61.58H781.654V59.984L782.606 59.424V61.58H785.014V62.364H782.606V67.152ZM785.804 63.568H789.164V64.464H785.804V63.568ZM793.559 57.94H794.483L791.683 71.1H790.759L793.559 57.94ZM798.288 67.152C798.288 68.02 798.806 68.272 799.268 68.272C799.716 68.272 800.01 68.104 800.36 67.74L800.864 68.3C800.374 68.874 799.842 69.112 799.184 69.112C798.176 69.112 797.336 68.44 797.336 67.124V62.364H795.936V61.58H797.336V59.984L798.288 59.424V61.58H800.696V62.364H798.288V67.152ZM805.151 61.468C806.117 61.468 806.817 62.112 806.817 63.372V64.1L805.949 64.268V63.54C805.949 62.798 805.697 62.308 804.941 62.308C804.087 62.308 803.443 62.938 803.443 64.436V69H802.491V61.58H803.443V62.504C803.835 61.804 804.493 61.468 805.151 61.468ZM813.804 69H812.936C812.824 68.594 812.74 68.104 812.74 67.544C812.362 68.412 811.396 69.112 810.192 69.112C808.876 69.112 807.882 68.258 807.882 66.984C807.882 65.458 809.254 64.66 810.78 64.66C811.382 64.66 811.97 64.73 812.572 64.94V63.96C812.572 62.994 811.984 62.336 810.836 62.336C809.912 62.336 809.128 62.742 808.736 63.876L807.896 63.624C808.456 62.056 809.59 61.468 810.892 61.468C812.726 61.468 813.496 62.574 813.496 63.848V66.9C813.496 67.74 813.636 68.496 813.804 69ZM812.572 65.92V65.752C811.998 65.514 811.41 65.444 810.836 65.444C809.716 65.444 808.834 65.948 808.834 66.928C808.834 67.824 809.464 68.3 810.36 68.3C811.326 68.3 812.572 67.726 812.572 65.92ZM819.011 61.468C820.495 61.468 821.363 62.378 821.363 64.044V69H820.411V64.184C820.411 62.84 819.795 62.336 818.759 62.336C817.457 62.336 816.855 63.344 816.855 64.828V69H815.903V61.58H816.855V62.728C817.303 61.916 818.115 61.468 819.011 61.468ZM823.291 63.512C823.291 62.336 824.397 61.468 825.951 61.468C827.295 61.468 828.331 62.112 828.639 63.092L827.855 63.4C827.561 62.686 826.875 62.308 825.923 62.308C824.887 62.308 824.215 62.742 824.215 63.428C824.215 64.044 824.621 64.422 825.503 64.604L826.483 64.8C828.107 65.122 828.863 65.822 828.863 66.928C828.863 68.216 827.715 69.112 826.063 69.112C824.565 69.112 823.515 68.524 823.011 67.404L823.823 67.068C824.173 67.852 824.943 68.272 826.035 68.272C827.183 68.272 827.939 67.768 827.939 67.012C827.939 66.312 827.547 65.934 826.567 65.724L825.363 65.472C824.005 65.192 823.291 64.506 823.291 63.512ZM834.125 61.482C836.015 61.482 837.289 63.064 837.289 65.22C837.289 67.502 836.001 69.112 834.013 69.112C832.977 69.112 832.137 68.594 831.689 67.656V71.94H830.737V61.58H831.689V62.966C832.179 62.014 833.159 61.482 834.125 61.482ZM834.013 68.272C835.399 68.272 836.309 67.208 836.309 65.262C836.309 63.386 835.399 62.322 834.027 62.322C832.543 62.322 831.689 63.428 831.689 65.248C831.689 67.18 832.529 68.272 834.013 68.272ZM842.055 69.112C840.221 69.112 838.751 67.6 838.751 65.276C838.751 62.98 840.207 61.468 842.055 61.468C843.903 61.468 845.359 62.98 845.359 65.276C845.359 67.6 843.889 69.112 842.055 69.112ZM842.055 68.272C843.329 68.272 844.379 67.264 844.379 65.276C844.379 63.302 843.315 62.308 842.055 62.308C840.795 62.308 839.731 63.302 839.731 65.276C839.731 67.264 840.781 68.272 842.055 68.272ZM849.954 61.468C850.92 61.468 851.62 62.112 851.62 63.372V64.1L850.752 64.268V63.54C850.752 62.798 850.5 62.308 849.744 62.308C848.89 62.308 848.246 62.938 848.246 64.436V69H847.294V61.58H848.246V62.504C848.638 61.804 849.296 61.468 849.954 61.468ZM854.848 67.152C854.848 68.02 855.366 68.272 855.828 68.272C856.276 68.272 856.57 68.104 856.92 67.74L857.424 68.3C856.934 68.874 856.402 69.112 855.744 69.112C854.736 69.112 853.896 68.44 853.896 67.124V62.364H852.496V61.58H853.896V59.984L854.848 59.424V61.58H857.256V62.364H854.848V67.152ZM858.046 63.568H861.406V64.464H858.046V63.568ZM865.801 57.94H866.725L863.925 71.1H863.001L865.801 57.94ZM871.37 68.972C871.146 69.028 870.964 69.056 870.754 69.056C869.592 69.056 869.046 68.328 869.046 67.236V58.64H869.998V67.236C869.998 67.866 870.334 68.188 870.922 68.188C871.076 68.188 871.23 68.174 871.37 68.132V68.972ZM878.636 69H877.768C877.656 68.594 877.572 68.104 877.572 67.544C877.194 68.412 876.228 69.112 875.024 69.112C873.708 69.112 872.714 68.258 872.714 66.984C872.714 65.458 874.086 64.66 875.612 64.66C876.214 64.66 876.802 64.73 877.404 64.94V63.96C877.404 62.994 876.816 62.336 875.668 62.336C874.744 62.336 873.96 62.742 873.568 63.876L872.728 63.624C873.288 62.056 874.422 61.468 875.724 61.468C877.558 61.468 878.328 62.574 878.328 63.848V66.9C878.328 67.74 878.468 68.496 878.636 69ZM877.404 65.92V65.752C876.83 65.514 876.242 65.444 875.668 65.444C874.548 65.444 873.666 65.948 873.666 66.928C873.666 67.824 874.296 68.3 875.192 68.3C876.158 68.3 877.404 67.726 877.404 65.92ZM883.843 61.468C885.327 61.468 886.195 62.378 886.195 64.044V69H885.243V64.184C885.243 62.84 884.627 62.336 883.591 62.336C882.289 62.336 881.687 63.344 881.687 64.828V69H880.735V61.58H881.687V62.728C882.135 61.916 882.947 61.468 883.843 61.468ZM893.611 58.64H894.563V69H893.611V67.614C893.121 68.566 892.141 69.098 891.175 69.098C889.285 69.098 888.011 67.516 888.011 65.36C888.011 63.078 889.299 61.468 891.287 61.468C892.323 61.468 893.163 61.986 893.611 62.924V58.64ZM891.273 68.258C892.757 68.258 893.611 67.152 893.611 65.332C893.611 63.4 892.771 62.308 891.287 62.308C889.901 62.308 888.991 63.372 888.991 65.318C888.991 67.194 889.901 68.258 891.273 68.258ZM897.385 60.236C896.923 60.236 896.545 59.872 896.545 59.396C896.545 58.92 896.923 58.556 897.385 58.556C897.847 58.556 898.225 58.92 898.225 59.396C898.225 59.872 897.847 60.236 897.385 60.236ZM896.909 69V61.58H897.861V69H896.909ZM903.38 61.468C904.864 61.468 905.732 62.378 905.732 64.044V69H904.78V64.184C904.78 62.84 904.164 62.336 903.128 62.336C901.826 62.336 901.224 63.344 901.224 64.828V69H900.272V61.58H901.224V62.728C901.672 61.916 902.484 61.468 903.38 61.468ZM914.688 62.364H913.092V62.63C913.456 63.078 913.652 63.638 913.652 64.184C913.652 65.542 912.672 66.928 910.586 66.928H910.264C909.424 66.928 908.822 67.25 908.822 67.74C908.822 68.118 909.116 68.384 909.732 68.384H912.742C913.946 68.384 914.562 68.972 914.562 69.896C914.562 71.366 912.868 72.136 910.782 72.136C908.906 72.136 907.604 71.534 907.156 70.232L907.926 69.882C908.444 71.1 909.536 71.338 910.782 71.338C912.322 71.338 913.61 70.876 913.61 69.98C913.61 69.56 913.386 69.252 912.714 69.252H909.522C908.486 69.252 907.87 68.762 907.87 67.992C907.87 67.334 908.416 66.76 909.326 66.522C908.346 66.13 907.8 65.094 907.8 64.184C907.8 62.854 908.794 61.468 910.754 61.468C911.524 61.468 912.112 61.72 912.56 62.098V61.58H914.688V62.364ZM910.74 66.144C912.056 66.144 912.714 65.234 912.714 64.184C912.714 63.148 912.056 62.28 910.74 62.28C909.41 62.28 908.738 63.162 908.738 64.184C908.738 65.22 909.41 66.144 910.74 66.144ZM915.535 63.512C915.535 62.336 916.641 61.468 918.195 61.468C919.539 61.468 920.575 62.112 920.883 63.092L920.099 63.4C919.805 62.686 919.119 62.308 918.167 62.308C917.131 62.308 916.459 62.742 916.459 63.428C916.459 64.044 916.865 64.422 917.747 64.604L918.727 64.8C920.351 65.122 921.107 65.822 921.107 66.928C921.107 68.216 919.959 69.112 918.307 69.112C916.809 69.112 915.759 68.524 915.255 67.404L916.067 67.068C916.417 67.852 917.187 68.272 918.279 68.272C919.427 68.272 920.183 67.768 920.183 67.012C920.183 66.312 919.791 65.934 918.811 65.724L917.607 65.472C916.249 65.192 915.535 64.506 915.535 63.512ZM922.617 63.512C922.617 62.336 923.723 61.468 925.277 61.468C926.621 61.468 927.657 62.112 927.965 63.092L927.181 63.4C926.887 62.686 926.201 62.308 925.249 62.308C924.213 62.308 923.541 62.742 923.541 63.428C923.541 64.044 923.947 64.422 924.829 64.604L925.809 64.8C927.433 65.122 928.189 65.822 928.189 66.928C928.189 68.216 927.041 69.112 925.389 69.112C923.891 69.112 922.841 68.524 922.337 67.404L923.149 67.068C923.499 67.852 924.269 68.272 925.361 68.272C926.509 68.272 927.265 67.768 927.265 67.012C927.265 66.312 926.873 65.934 925.893 65.724L924.689 65.472C923.331 65.192 922.617 64.506 922.617 63.512ZM929.811 58.696H931.267V60.124H929.811V58.696ZM930.063 69V61.58H931.015V69H930.063ZM938.551 58.64H939.503V69H938.551V67.614C938.061 68.566 937.081 69.098 936.115 69.098C934.225 69.098 932.951 67.516 932.951 65.36C932.951 63.078 934.239 61.468 936.227 61.468C937.263 61.468 938.103 61.986 938.551 62.924V58.64ZM936.213 68.258C937.697 68.258 938.551 67.152 938.551 65.332C938.551 63.4 937.711 62.308 936.227 62.308C934.841 62.308 933.931 63.372 933.931 65.318C933.931 67.194 934.841 68.258 936.213 68.258ZM946.917 66.9L947.617 67.292C947.267 68.188 946.343 69.112 944.691 69.112C942.605 69.112 941.373 67.558 941.373 65.192C941.373 63.022 942.661 61.468 944.593 61.468C946.189 61.468 947.561 62.616 947.561 64.632L947.533 65.458H942.339C942.423 67.432 943.361 68.272 944.789 68.272C945.909 68.272 946.567 67.628 946.917 66.9ZM944.593 62.308C943.473 62.308 942.465 62.91 942.339 64.674H946.623C946.665 63.008 945.685 62.308 944.593 62.308Z" fill="#2A2859"/>
<path d="M66.036 131.384C66.036 129.648 67.618 128.528 69.452 128.528C71.146 128.528 72.294 129.256 72.812 130.558L71.888 130.936C71.468 129.942 70.53 129.396 69.452 129.396C68.024 129.396 67.016 130.124 67.016 131.272C67.016 132.238 67.59 132.826 68.808 133.064L70.432 133.372C72.028 133.68 73.204 134.534 73.204 136.088C73.204 137.684 71.86 139.112 69.592 139.112C67.8 139.112 66.456 138.496 65.728 136.956L66.624 136.592C67.324 137.964 68.486 138.244 69.62 138.244C71.314 138.244 72.224 137.264 72.224 136.144C72.224 134.898 71.384 134.534 70.124 134.296L68.64 134.016C67.198 133.75 66.036 132.952 66.036 131.384ZM76.4927 137.152C76.4927 138.02 77.0107 138.272 77.4727 138.272C77.9207 138.272 78.2147 138.104 78.5647 137.74L79.0687 138.3C78.5787 138.874 78.0467 139.112 77.3887 139.112C76.3807 139.112 75.5407 138.44 75.5407 137.124V132.364H74.1407V131.58H75.5407V129.984L76.4927 129.424V131.58H78.9007V132.364H76.4927V137.152ZM85.9528 139H85.0848C84.9728 138.594 84.8888 138.104 84.8888 137.544C84.5108 138.412 83.5448 139.112 82.3408 139.112C81.0248 139.112 80.0308 138.258 80.0308 136.984C80.0308 135.458 81.4028 134.66 82.9288 134.66C83.5308 134.66 84.1188 134.73 84.7208 134.94V133.96C84.7208 132.994 84.1328 132.336 82.9848 132.336C82.0608 132.336 81.2767 132.742 80.8848 133.876L80.0448 133.624C80.6048 132.056 81.7388 131.468 83.0408 131.468C84.8748 131.468 85.6448 132.574 85.6448 133.848V136.9C85.6448 137.74 85.7848 138.496 85.9528 139ZM84.7208 135.92V135.752C84.1468 135.514 83.5588 135.444 82.9848 135.444C81.8648 135.444 80.9828 135.948 80.9828 136.928C80.9828 137.824 81.6128 138.3 82.5088 138.3C83.4748 138.3 84.7208 137.726 84.7208 135.92ZM90.7117 131.468C91.6777 131.468 92.3777 132.112 92.3777 133.372V134.1L91.5097 134.268V133.54C91.5097 132.798 91.2577 132.308 90.5017 132.308C89.6477 132.308 89.0037 132.938 89.0037 134.436V139H88.0517V131.58H89.0037V132.504C89.3957 131.804 90.0537 131.468 90.7117 131.468ZM95.606 137.152C95.606 138.02 96.124 138.272 96.586 138.272C97.034 138.272 97.328 138.104 97.678 137.74L98.182 138.3C97.692 138.874 97.16 139.112 96.502 139.112C95.494 139.112 94.654 138.44 94.654 137.124V132.364H93.254V131.58H94.654V129.984L95.606 129.424V131.58H98.014V132.364H95.606V137.152ZM99.172 133.512C99.172 132.336 100.278 131.468 101.832 131.468C103.176 131.468 104.212 132.112 104.52 133.092L103.736 133.4C103.442 132.686 102.756 132.308 101.804 132.308C100.768 132.308 100.096 132.742 100.096 133.428C100.096 134.044 100.502 134.422 101.384 134.604L102.364 134.8C103.988 135.122 104.744 135.822 104.744 136.928C104.744 138.216 103.596 139.112 101.944 139.112C100.446 139.112 99.396 138.524 98.892 137.404L99.704 137.068C100.054 137.852 100.824 138.272 101.916 138.272C103.064 138.272 103.82 137.768 103.82 137.012C103.82 136.312 103.428 135.934 102.448 135.724L101.244 135.472C99.886 135.192 99.172 134.506 99.172 133.512ZM107.094 130.236C106.632 130.236 106.254 129.872 106.254 129.396C106.254 128.92 106.632 128.556 107.094 128.556C107.556 128.556 107.934 128.92 107.934 129.396C107.934 129.872 107.556 130.236 107.094 130.236ZM106.618 139V131.58H107.57V139H106.618ZM115.105 128.64H116.057V139H115.105V137.614C114.615 138.566 113.635 139.098 112.669 139.098C110.779 139.098 109.505 137.516 109.505 135.36C109.505 133.078 110.793 131.468 112.781 131.468C113.817 131.468 114.657 131.986 115.105 132.924V128.64ZM112.767 138.258C114.251 138.258 115.105 137.152 115.105 135.332C115.105 133.4 114.265 132.308 112.781 132.308C111.395 132.308 110.485 133.372 110.485 135.318C110.485 137.194 111.395 138.258 112.767 138.258ZM123.471 136.9L124.171 137.292C123.821 138.188 122.897 139.112 121.245 139.112C119.159 139.112 117.927 137.558 117.927 135.192C117.927 133.022 119.215 131.468 121.147 131.468C122.743 131.468 124.115 132.616 124.115 134.632L124.087 135.458H118.893C118.977 137.432 119.915 138.272 121.343 138.272C122.463 138.272 123.121 137.628 123.471 136.9ZM121.147 132.308C120.027 132.308 119.019 132.91 118.893 134.674H123.177C123.219 133.008 122.239 132.308 121.147 132.308ZM129.236 131.468C130.72 131.468 131.588 132.378 131.588 134.044V139H130.636V134.184C130.636 132.84 130.02 132.336 128.984 132.336C127.682 132.336 127.08 133.344 127.08 134.828V139H126.128V131.58H127.08V132.728C127.528 131.916 128.34 131.468 129.236 131.468Z" fill="#2A2859"/>
<path d="M65 141.856H132.68V142.472H65V141.856Z" fill="#2A2859"/>
<path fill-rule="evenodd" clip-rule="evenodd" d="M150.707 134L146 138.836L146.647 139.5L152 134L146.647 128.5L146 129.164L150.707 134Z" fill="#2A2859"/>
<path d="M171.398 133.526C172.462 133.848 173.372 134.856 173.372 136.13C173.372 137.446 172.476 139 170.012 139H166.232V128.64H169.676C172.042 128.64 172.896 129.942 172.896 131.356C172.896 132.182 172.448 133.148 171.398 133.526ZM169.676 129.508H167.212V133.288H169.886C171.272 133.288 171.888 132.588 171.888 131.356C171.888 130.348 171.272 129.508 169.676 129.508ZM169.956 138.132C171.65 138.132 172.336 137.404 172.336 136.186C172.336 134.87 171.482 134.128 170.096 134.128H167.212V138.132H169.956ZM180.511 139H179.643C179.531 138.594 179.447 138.104 179.447 137.544C179.069 138.412 178.103 139.112 176.899 139.112C175.583 139.112 174.589 138.258 174.589 136.984C174.589 135.458 175.961 134.66 177.487 134.66C178.089 134.66 178.677 134.73 179.279 134.94V133.96C179.279 132.994 178.691 132.336 177.543 132.336C176.619 132.336 175.835 132.742 175.443 133.876L174.603 133.624C175.163 132.056 176.297 131.468 177.599 131.468C179.433 131.468 180.203 132.574 180.203 133.848V136.9C180.203 137.74 180.343 138.496 180.511 139ZM179.279 135.92V135.752C178.705 135.514 178.117 135.444 177.543 135.444C176.423 135.444 175.541 135.948 175.541 136.928C175.541 137.824 176.171 138.3 177.067 138.3C178.033 138.3 179.279 137.726 179.279 135.92ZM185.27 131.468C186.236 131.468 186.936 132.112 186.936 133.372V134.1L186.068 134.268V133.54C186.068 132.798 185.816 132.308 185.06 132.308C184.206 132.308 183.562 132.938 183.562 134.436V139H182.61V131.58H183.562V132.504C183.954 131.804 184.612 131.468 185.27 131.468ZM191.925 131.468C193.409 131.468 194.277 132.378 194.277 134.044V139H193.325V134.184C193.325 132.84 192.709 132.336 191.673 132.336C190.371 132.336 189.769 133.344 189.769 134.828V139H188.817V131.58H189.769V132.728C190.217 131.916 191.029 131.468 191.925 131.468ZM201.637 136.9L202.337 137.292C201.987 138.188 201.063 139.112 199.411 139.112C197.325 139.112 196.093 137.558 196.093 135.192C196.093 133.022 197.381 131.468 199.313 131.468C200.909 131.468 202.281 132.616 202.281 134.632L202.253 135.458H197.059C197.143 137.432 198.081 138.272 199.509 138.272C200.629 138.272 201.287 137.628 201.637 136.9ZM199.313 132.308C198.193 132.308 197.185 132.91 197.059 134.674H201.343C201.385 133.008 200.405 132.308 199.313 132.308ZM207.43 131.468C208.914 131.468 209.782 132.378 209.782 134.044V139H208.83V134.184C208.83 132.84 208.214 132.336 207.178 132.336C205.876 132.336 205.274 133.344 205.274 134.828V139H204.322V128.64H205.274V132.728C205.722 131.916 206.534 131.468 207.43 131.468ZM217.603 139H216.735C216.623 138.594 216.539 138.104 216.539 137.544C216.161 138.412 215.195 139.112 213.991 139.112C212.675 139.112 211.681 138.258 211.681 136.984C211.681 135.458 213.053 134.66 214.579 134.66C215.181 134.66 215.769 134.73 216.371 134.94V133.96C216.371 132.994 215.783 132.336 214.635 132.336C213.711 132.336 212.927 132.742 212.535 133.876L211.695 133.624C212.255 132.056 213.389 131.468 214.691 131.468C216.525 131.468 217.295 132.574 217.295 133.848V136.9C217.295 137.74 217.435 138.496 217.603 139ZM216.371 135.92V135.752C215.797 135.514 215.209 135.444 214.635 135.444C213.515 135.444 212.633 135.948 212.633 136.928C212.633 137.824 213.263 138.3 214.159 138.3C215.125 138.3 216.371 137.726 216.371 135.92ZM226.229 132.364H224.633V132.63C224.997 133.078 225.193 133.638 225.193 134.184C225.193 135.542 224.213 136.928 222.127 136.928H221.805C220.965 136.928 220.363 137.25 220.363 137.74C220.363 138.118 220.657 138.384 221.273 138.384H224.283C225.487 138.384 226.103 138.972 226.103 139.896C226.103 141.366 224.409 142.136 222.323 142.136C220.447 142.136 219.145 141.534 218.697 140.232L219.467 139.882C219.985 141.1 221.077 141.338 222.323 141.338C223.863 141.338 225.151 140.876 225.151 139.98C225.151 139.56 224.927 139.252 224.255 139.252H221.063C220.027 139.252 219.411 138.762 219.411 137.992C219.411 137.334 219.957 136.76 220.867 136.522C219.887 136.13 219.341 135.094 219.341 134.184C219.341 132.854 220.335 131.468 222.295 131.468C223.065 131.468 223.653 131.72 224.101 132.098V131.58H226.229V132.364ZM222.281 136.144C223.597 136.144 224.255 135.234 224.255 134.184C224.255 133.148 223.597 132.28 222.281 132.28C220.951 132.28 220.279 133.162 220.279 134.184C220.279 135.22 220.951 136.144 222.281 136.144ZM232.221 136.9L232.921 137.292C232.571 138.188 231.647 139.112 229.995 139.112C227.909 139.112 226.677 137.558 226.677 135.192C226.677 133.022 227.965 131.468 229.897 131.468C231.493 131.468 232.865 132.616 232.865 134.632L232.837 135.458H227.643C227.727 137.432 228.665 138.272 230.093 138.272C231.213 138.272 231.871 137.628 232.221 136.9ZM229.897 132.308C228.777 132.308 227.769 132.91 227.643 134.674H231.927C231.969 133.008 230.989 132.308 229.897 132.308Z" fill="#2A2859"/>
<path d="M165 141.856H233.677V142.472H165V141.856Z" fill="#2A2859"/>
<path fill-rule="evenodd" clip-rule="evenodd" d="M251.707 134L247 138.836L247.647 139.5L253 134L247.647 128.5L247 129.164L251.707 134Z" fill="#2A2859"/>
<path d="M267.036 131.384C267.036 129.648 268.618 128.528 270.452 128.528C272.146 128.528 273.294 129.256 273.812 130.558L272.888 130.936C272.468 129.942 271.53 129.396 270.452 129.396C269.024 129.396 268.016 130.124 268.016 131.272C268.016 132.238 268.59 132.826 269.808 133.064L271.432 133.372C273.028 133.68 274.204 134.534 274.204 136.088C274.204 137.684 272.86 139.112 270.592 139.112C268.8 139.112 267.456 138.496 266.728 136.956L267.624 136.592C268.324 137.964 269.486 138.244 270.62 138.244C272.314 138.244 273.224 137.264 273.224 136.144C273.224 134.898 272.384 134.534 271.124 134.296L269.64 134.016C268.198 133.75 267.036 132.952 267.036 131.384ZM281.056 132.14C281.882 132.798 282.414 133.89 282.414 135.276C282.414 137.6 280.944 139.112 279.11 139.112C278.592 139.112 278.102 138.986 277.668 138.762L277.206 139.672H276.534L277.164 138.44C276.338 137.782 275.806 136.676 275.806 135.276C275.806 132.98 277.262 131.468 279.11 131.468C279.628 131.468 280.118 131.594 280.552 131.804L281.014 130.908H281.686L281.056 132.14ZM276.786 135.276C276.786 136.354 277.094 137.138 277.57 137.642L280.16 132.574C279.838 132.392 279.488 132.308 279.11 132.308C277.85 132.308 276.786 133.302 276.786 135.276ZM279.11 138.272C280.384 138.272 281.434 137.264 281.434 135.276C281.434 134.212 281.126 133.442 280.65 132.938L278.06 138.006C278.368 138.188 278.732 138.272 279.11 138.272ZM288.969 139L286.239 135.318L285.329 136.186V139H284.377V128.64H285.329V135.066L288.857 131.58H290.117L286.883 134.688L290.173 139H288.969ZM296.28 136.9L296.98 137.292C296.63 138.188 295.706 139.112 294.054 139.112C291.968 139.112 290.736 137.558 290.736 135.192C290.736 133.022 292.024 131.468 293.956 131.468C295.552 131.468 296.924 132.616 296.924 134.632L296.896 135.458H291.702C291.786 137.432 292.724 138.272 294.152 138.272C295.272 138.272 295.93 137.628 296.28 136.9ZM293.956 132.308C292.836 132.308 291.828 132.91 291.702 134.674H295.986C296.028 133.008 295.048 132.308 293.956 132.308ZM305.934 131.482C307.824 131.482 309.098 133.064 309.098 135.22C309.098 137.502 307.81 139.112 305.822 139.112C304.786 139.112 303.946 138.594 303.498 137.656V139H302.546V128.64H303.498V132.966C303.988 132.014 304.968 131.482 305.934 131.482ZM305.822 138.272C307.208 138.272 308.118 137.208 308.118 135.262C308.118 133.386 307.208 132.322 305.836 132.322C304.352 132.322 303.498 133.428 303.498 135.248C303.498 137.18 304.338 138.272 305.822 138.272ZM316.566 139H315.698C315.586 138.594 315.502 138.104 315.502 137.544C315.124 138.412 314.158 139.112 312.954 139.112C311.638 139.112 310.644 138.258 310.644 136.984C310.644 135.458 312.016 134.66 313.542 134.66C314.144 134.66 314.732 134.73 315.334 134.94V133.96C315.334 132.994 314.746 132.336 313.598 132.336C312.674 132.336 311.89 132.742 311.498 133.876L310.658 133.624C311.218 132.056 312.352 131.468 313.654 131.468C315.488 131.468 316.258 132.574 316.258 133.848V136.9C316.258 137.74 316.398 138.496 316.566 139ZM315.334 135.92V135.752C314.76 135.514 314.172 135.444 313.598 135.444C312.478 135.444 311.596 135.948 311.596 136.928C311.596 137.824 312.226 138.3 313.122 138.3C314.088 138.3 315.334 137.726 315.334 135.92ZM321.325 131.468C322.291 131.468 322.991 132.112 322.991 133.372V134.1L322.123 134.268V133.54C322.123 132.798 321.871 132.308 321.115 132.308C320.261 132.308 319.617 132.938 319.617 134.436V139H318.665V131.58H319.617V132.504C320.009 131.804 320.667 131.468 321.325 131.468ZM327.98 131.468C329.464 131.468 330.332 132.378 330.332 134.044V139H329.38V134.184C329.38 132.84 328.764 132.336 327.728 132.336C326.426 132.336 325.824 133.344 325.824 134.828V139H324.872V131.58H325.824V132.728C326.272 131.916 327.084 131.468 327.98 131.468ZM337.692 136.9L338.392 137.292C338.042 138.188 337.118 139.112 335.466 139.112C333.38 139.112 332.148 137.558 332.148 135.192C332.148 133.022 333.436 131.468 335.368 131.468C336.964 131.468 338.336 132.616 338.336 134.632L338.308 135.458H333.114C333.198 137.432 334.136 138.272 335.564 138.272C336.684 138.272 337.342 137.628 337.692 136.9ZM335.368 132.308C334.248 132.308 333.24 132.91 333.114 134.674H337.398C337.44 133.008 336.46 132.308 335.368 132.308ZM343.485 131.468C344.969 131.468 345.837 132.378 345.837 134.044V139H344.885V134.184C344.885 132.84 344.269 132.336 343.233 132.336C341.931 132.336 341.329 133.344 341.329 134.828V139H340.377V128.64H341.329V132.728C341.777 131.916 342.589 131.468 343.485 131.468ZM353.658 139H352.79C352.678 138.594 352.594 138.104 352.594 137.544C352.216 138.412 351.25 139.112 350.046 139.112C348.73 139.112 347.736 138.258 347.736 136.984C347.736 135.458 349.108 134.66 350.634 134.66C351.236 134.66 351.824 134.73 352.426 134.94V133.96C352.426 132.994 351.838 132.336 350.69 132.336C349.766 132.336 348.982 132.742 348.59 133.876L347.75 133.624C348.31 132.056 349.444 131.468 350.746 131.468C352.58 131.468 353.35 132.574 353.35 133.848V136.9C353.35 137.74 353.49 138.496 353.658 139ZM352.426 135.92V135.752C351.852 135.514 351.264 135.444 350.69 135.444C349.57 135.444 348.688 135.948 348.688 136.928C348.688 137.824 349.318 138.3 350.214 138.3C351.18 138.3 352.426 137.726 352.426 135.92ZM362.284 132.364H360.688V132.63C361.052 133.078 361.248 133.638 361.248 134.184C361.248 135.542 360.268 136.928 358.182 136.928H357.86C357.02 136.928 356.418 137.25 356.418 137.74C356.418 138.118 356.712 138.384 357.328 138.384H360.338C361.542 138.384 362.158 138.972 362.158 139.896C362.158 141.366 360.464 142.136 358.378 142.136C356.502 142.136 355.2 141.534 354.752 140.232L355.522 139.882C356.04 141.1 357.132 141.338 358.378 141.338C359.918 141.338 361.206 140.876 361.206 139.98C361.206 139.56 360.982 139.252 360.31 139.252H357.118C356.082 139.252 355.466 138.762 355.466 137.992C355.466 137.334 356.012 136.76 356.922 136.522C355.942 136.13 355.396 135.094 355.396 134.184C355.396 132.854 356.39 131.468 358.35 131.468C359.12 131.468 359.708 131.72 360.156 132.098V131.58H362.284V132.364ZM358.336 136.144C359.652 136.144 360.31 135.234 360.31 134.184C360.31 133.148 359.652 132.28 358.336 132.28C357.006 132.28 356.334 133.162 356.334 134.184C356.334 135.22 357.006 136.144 358.336 136.144ZM368.276 136.9L368.976 137.292C368.626 138.188 367.702 139.112 366.05 139.112C363.964 139.112 362.732 137.558 362.732 135.192C362.732 133.022 364.02 131.468 365.952 131.468C367.548 131.468 368.92 132.616 368.92 134.632L368.892 135.458H363.698C363.782 137.432 364.72 138.272 366.148 138.272C367.268 138.272 367.926 137.628 368.276 136.9ZM365.952 132.308C364.832 132.308 363.824 132.91 363.698 134.674H367.982C368.024 133.008 367.044 132.308 365.952 132.308ZM374.321 131.482C376.211 131.482 377.485 133.064 377.485 135.22C377.485 137.502 376.197 139.112 374.209 139.112C373.173 139.112 372.333 138.594 371.885 137.656V141.94H370.933V131.58H371.885V132.966C372.375 132.014 373.355 131.482 374.321 131.482ZM374.209 138.272C375.595 138.272 376.505 137.208 376.505 135.262C376.505 133.386 375.595 132.322 374.223 132.322C372.739 132.322 371.885 133.428 371.885 135.248C371.885 137.18 372.725 138.272 374.209 138.272ZM381.747 138.972C381.523 139.028 381.341 139.056 381.131 139.056C379.969 139.056 379.423 138.328 379.423 137.236V128.64H380.375V137.236C380.375 137.866 380.711 138.188 381.299 138.188C381.453 138.188 381.607 138.174 381.747 138.132V138.972ZM389.013 139H388.145C388.033 138.594 387.949 138.104 387.949 137.544C387.571 138.412 386.605 139.112 385.401 139.112C384.085 139.112 383.091 138.258 383.091 136.984C383.091 135.458 384.463 134.66 385.989 134.66C386.591 134.66 387.179 134.73 387.781 134.94V133.96C387.781 132.994 387.193 132.336 386.045 132.336C385.121 132.336 384.337 132.742 383.945 133.876L383.105 133.624C383.665 132.056 384.799 131.468 386.101 131.468C387.935 131.468 388.705 132.574 388.705 133.848V136.9C388.705 137.74 388.845 138.496 389.013 139ZM387.781 135.92V135.752C387.207 135.514 386.619 135.444 386.045 135.444C384.925 135.444 384.043 135.948 384.043 136.928C384.043 137.824 384.673 138.3 385.569 138.3C386.535 138.3 387.781 137.726 387.781 135.92ZM390.748 133.512C390.748 132.336 391.854 131.468 393.408 131.468C394.752 131.468 395.788 132.112 396.096 133.092L395.312 133.4C395.018 132.686 394.332 132.308 393.38 132.308C392.344 132.308 391.672 132.742 391.672 133.428C391.672 134.044 392.078 134.422 392.96 134.604L393.94 134.8C395.564 135.122 396.32 135.822 396.32 136.928C396.32 138.216 395.172 139.112 393.52 139.112C392.022 139.112 390.972 138.524 390.468 137.404L391.28 137.068C391.63 137.852 392.4 138.272 393.492 138.272C394.64 138.272 395.396 137.768 395.396 137.012C395.396 136.312 395.004 135.934 394.024 135.724L392.82 135.472C391.462 135.192 390.748 134.506 390.748 133.512ZM397.83 133.512C397.83 132.336 398.936 131.468 400.49 131.468C401.834 131.468 402.87 132.112 403.178 133.092L402.394 133.4C402.1 132.686 401.414 132.308 400.462 132.308C399.426 132.308 398.754 132.742 398.754 133.428C398.754 134.044 399.16 134.422 400.042 134.604L401.022 134.8C402.646 135.122 403.402 135.822 403.402 136.928C403.402 138.216 402.254 139.112 400.602 139.112C399.104 139.112 398.054 138.524 397.55 137.404L398.362 137.068C398.712 137.852 399.482 138.272 400.574 138.272C401.722 138.272 402.478 137.768 402.478 137.012C402.478 136.312 402.086 135.934 401.106 135.724L399.902 135.472C398.544 135.192 397.83 134.506 397.83 133.512Z" fill="#2A2859"/>
<path d="M266 141.856H404.074V142.472H266V141.856Z" fill="#2A2859"/>
<path fill-rule="evenodd" clip-rule="evenodd" d="M422.707 134L418 138.836L418.647 139.5L424 134L418.647 128.5L418 129.164L422.707 134Z" fill="#2A2859"/>
<path d="M444.924 128.64H445.96L442.166 139H441.186L437.42 128.64H438.484L441.69 137.866L444.924 128.64ZM451.667 136.9L452.367 137.292C452.017 138.188 451.093 139.112 449.441 139.112C447.355 139.112 446.123 137.558 446.123 135.192C446.123 133.022 447.411 131.468 449.343 131.468C450.939 131.468 452.311 132.616 452.311 134.632L452.283 135.458H447.089C447.173 137.432 448.111 138.272 449.539 138.272C450.659 138.272 451.317 137.628 451.667 136.9ZM449.343 132.308C448.223 132.308 447.215 132.91 447.089 134.674H451.373C451.415 133.008 450.435 132.308 449.343 132.308ZM456.647 138.972C456.423 139.028 456.241 139.056 456.031 139.056C454.869 139.056 454.323 138.328 454.323 137.236V128.64H455.275V137.236C455.275 137.866 455.611 138.188 456.199 138.188C456.353 138.188 456.507 138.174 456.647 138.132V138.972ZM464.774 132.364H463.178V132.63C463.542 133.078 463.738 133.638 463.738 134.184C463.738 135.542 462.758 136.928 460.672 136.928H460.35C459.51 136.928 458.908 137.25 458.908 137.74C458.908 138.118 459.202 138.384 459.818 138.384H462.828C464.032 138.384 464.648 138.972 464.648 139.896C464.648 141.366 462.954 142.136 460.868 142.136C458.992 142.136 457.69 141.534 457.242 140.232L458.012 139.882C458.53 141.1 459.622 141.338 460.868 141.338C462.408 141.338 463.696 140.876 463.696 139.98C463.696 139.56 463.472 139.252 462.8 139.252H459.608C458.572 139.252 457.956 138.762 457.956 137.992C457.956 137.334 458.502 136.76 459.412 136.522C458.432 136.13 457.886 135.094 457.886 134.184C457.886 132.854 458.88 131.468 460.84 131.468C461.61 131.468 462.198 131.72 462.646 132.098V131.58H464.774V132.364ZM460.826 136.144C462.142 136.144 462.8 135.234 462.8 134.184C462.8 133.148 462.142 132.28 460.826 132.28C459.496 132.28 458.824 133.162 458.824 134.184C458.824 135.22 459.496 136.144 460.826 136.144ZM473.257 131.482C475.147 131.482 476.421 133.064 476.421 135.22C476.421 137.502 475.133 139.112 473.145 139.112C472.109 139.112 471.269 138.594 470.821 137.656V139H469.869V128.64H470.821V132.966C471.311 132.014 472.291 131.482 473.257 131.482ZM473.145 138.272C474.531 138.272 475.441 137.208 475.441 135.262C475.441 133.386 474.531 132.322 473.159 132.322C471.675 132.322 470.821 133.428 470.821 135.248C470.821 137.18 471.661 138.272 473.145 138.272ZM483.888 139H483.02C482.908 138.594 482.824 138.104 482.824 137.544C482.446 138.412 481.48 139.112 480.276 139.112C478.96 139.112 477.966 138.258 477.966 136.984C477.966 135.458 479.338 134.66 480.864 134.66C481.466 134.66 482.054 134.73 482.656 134.94V133.96C482.656 132.994 482.068 132.336 480.92 132.336C479.996 132.336 479.212 132.742 478.82 133.876L477.98 133.624C478.54 132.056 479.674 131.468 480.976 131.468C482.81 131.468 483.58 132.574 483.58 133.848V136.9C483.58 137.74 483.72 138.496 483.888 139ZM482.656 135.92V135.752C482.082 135.514 481.494 135.444 480.92 135.444C479.8 135.444 478.918 135.948 478.918 136.928C478.918 137.824 479.548 138.3 480.444 138.3C481.41 138.3 482.656 137.726 482.656 135.92ZM488.647 131.468C489.613 131.468 490.313 132.112 490.313 133.372V134.1L489.445 134.268V133.54C489.445 132.798 489.193 132.308 488.437 132.308C487.583 132.308 486.939 132.938 486.939 134.436V139H485.987V131.58H486.939V132.504C487.331 131.804 487.989 131.468 488.647 131.468ZM495.302 131.468C496.786 131.468 497.654 132.378 497.654 134.044V139H496.702V134.184C496.702 132.84 496.086 132.336 495.05 132.336C493.748 132.336 493.146 133.344 493.146 134.828V139H492.194V131.58H493.146V132.728C493.594 131.916 494.406 131.468 495.302 131.468ZM505.014 136.9L505.714 137.292C505.364 138.188 504.44 139.112 502.788 139.112C500.702 139.112 499.47 137.558 499.47 135.192C499.47 133.022 500.758 131.468 502.69 131.468C504.286 131.468 505.658 132.616 505.658 134.632L505.63 135.458H500.436C500.52 137.432 501.458 138.272 502.886 138.272C504.006 138.272 504.664 137.628 505.014 136.9ZM502.69 132.308C501.57 132.308 500.562 132.91 500.436 134.674H504.72C504.762 133.008 503.782 132.308 502.69 132.308ZM510.807 131.468C512.291 131.468 513.159 132.378 513.159 134.044V139H512.207V134.184C512.207 132.84 511.591 132.336 510.555 132.336C509.253 132.336 508.651 133.344 508.651 134.828V139H507.699V128.64H508.651V132.728C509.099 131.916 509.911 131.468 510.807 131.468ZM520.98 139H520.112C520 138.594 519.916 138.104 519.916 137.544C519.538 138.412 518.572 139.112 517.368 139.112C516.052 139.112 515.058 138.258 515.058 136.984C515.058 135.458 516.43 134.66 517.956 134.66C518.558 134.66 519.146 134.73 519.748 134.94V133.96C519.748 132.994 519.16 132.336 518.012 132.336C517.088 132.336 516.304 132.742 515.912 133.876L515.072 133.624C515.632 132.056 516.766 131.468 518.068 131.468C519.902 131.468 520.672 132.574 520.672 133.848V136.9C520.672 137.74 520.812 138.496 520.98 139ZM519.748 135.92V135.752C519.174 135.514 518.586 135.444 518.012 135.444C516.892 135.444 516.01 135.948 516.01 136.928C516.01 137.824 516.64 138.3 517.536 138.3C518.502 138.3 519.748 137.726 519.748 135.92ZM529.606 132.364H528.01V132.63C528.374 133.078 528.57 133.638 528.57 134.184C528.57 135.542 527.59 136.928 525.504 136.928H525.182C524.342 136.928 523.74 137.25 523.74 137.74C523.74 138.118 524.034 138.384 524.65 138.384H527.66C528.864 138.384 529.48 138.972 529.48 139.896C529.48 141.366 527.786 142.136 525.7 142.136C523.824 142.136 522.522 141.534 522.074 140.232L522.844 139.882C523.362 141.1 524.454 141.338 525.7 141.338C527.24 141.338 528.528 140.876 528.528 139.98C528.528 139.56 528.304 139.252 527.632 139.252H524.44C523.404 139.252 522.788 138.762 522.788 137.992C522.788 137.334 523.334 136.76 524.244 136.522C523.264 136.13 522.718 135.094 522.718 134.184C522.718 132.854 523.712 131.468 525.672 131.468C526.442 131.468 527.03 131.72 527.478 132.098V131.58H529.606V132.364ZM525.658 136.144C526.974 136.144 527.632 135.234 527.632 134.184C527.632 133.148 526.974 132.28 525.658 132.28C524.328 132.28 523.656 133.162 523.656 134.184C523.656 135.22 524.328 136.144 525.658 136.144ZM535.598 136.9L536.298 137.292C535.948 138.188 535.024 139.112 533.372 139.112C531.286 139.112 530.054 137.558 530.054 135.192C530.054 133.022 531.342 131.468 533.274 131.468C534.87 131.468 536.242 132.616 536.242 134.632L536.214 135.458H531.02C531.104 137.432 532.042 138.272 533.47 138.272C534.59 138.272 535.248 137.628 535.598 136.9ZM533.274 132.308C532.154 132.308 531.146 132.91 531.02 134.674H535.304C535.346 133.008 534.366 132.308 533.274 132.308Z" fill="#2A2859"/>
</svg>
