<svg width="1043" height="223" viewBox="0 0 1043 223" fill="none" xmlns="http://www.w3.org/2000/svg">
<rect width="1043" height="223" fill="white"/>
<path d="M219.036 132.384C219.036 130.648 220.618 129.528 222.452 129.528C224.146 129.528 225.294 130.256 225.812 131.558L224.888 131.936C224.468 130.942 223.53 130.396 222.452 130.396C221.024 130.396 220.016 131.124 220.016 132.272C220.016 133.238 220.59 133.826 221.808 134.064L223.432 134.372C225.028 134.68 226.204 135.534 226.204 137.088C226.204 138.684 224.86 140.112 222.592 140.112C220.8 140.112 219.456 139.496 218.728 137.956L219.624 137.592C220.324 138.964 221.486 139.244 222.62 139.244C224.314 139.244 225.224 138.264 225.224 137.144C225.224 135.898 224.384 135.534 223.124 135.296L221.64 135.016C220.198 134.75 219.036 133.952 219.036 132.384ZM229.493 138.152C229.493 139.02 230.011 139.272 230.473 139.272C230.921 139.272 231.215 139.104 231.565 138.74L232.069 139.3C231.579 139.874 231.047 140.112 230.389 140.112C229.381 140.112 228.541 139.44 228.541 138.124V133.364H227.141V132.58H228.541V130.984L229.493 130.424V132.58H231.901V133.364H229.493V138.152ZM238.953 140H238.085C237.973 139.594 237.889 139.104 237.889 138.544C237.511 139.412 236.545 140.112 235.341 140.112C234.025 140.112 233.031 139.258 233.031 137.984C233.031 136.458 234.403 135.66 235.929 135.66C236.531 135.66 237.119 135.73 237.721 135.94V134.96C237.721 133.994 237.133 133.336 235.985 133.336C235.061 133.336 234.277 133.742 233.885 134.876L233.045 134.624C233.605 133.056 234.739 132.468 236.041 132.468C237.875 132.468 238.645 133.574 238.645 134.848V137.9C238.645 138.74 238.785 139.496 238.953 140ZM237.721 136.92V136.752C237.147 136.514 236.559 136.444 235.985 136.444C234.865 136.444 233.983 136.948 233.983 137.928C233.983 138.824 234.613 139.3 235.509 139.3C236.475 139.3 237.721 138.726 237.721 136.92ZM243.712 132.468C244.678 132.468 245.378 133.112 245.378 134.372V135.1L244.51 135.268V134.54C244.51 133.798 244.258 133.308 243.502 133.308C242.648 133.308 242.004 133.938 242.004 135.436V140H241.052V132.58H242.004V133.504C242.396 132.804 243.054 132.468 243.712 132.468ZM248.606 138.152C248.606 139.02 249.124 139.272 249.586 139.272C250.034 139.272 250.328 139.104 250.678 138.74L251.182 139.3C250.692 139.874 250.16 140.112 249.502 140.112C248.494 140.112 247.654 139.44 247.654 138.124V133.364H246.254V132.58H247.654V130.984L248.606 130.424V132.58H251.014V133.364H248.606V138.152ZM251.804 134.568H255.164V135.464H251.804V134.568ZM259.559 128.94H260.483L257.683 142.1H256.759L259.559 128.94ZM264.288 138.152C264.288 139.02 264.806 139.272 265.268 139.272C265.716 139.272 266.01 139.104 266.36 138.74L266.864 139.3C266.374 139.874 265.842 140.112 265.184 140.112C264.176 140.112 263.336 139.44 263.336 138.124V133.364H261.936V132.58H263.336V130.984L264.288 130.424V132.58H266.696V133.364H264.288V138.152ZM271.151 132.468C272.117 132.468 272.817 133.112 272.817 134.372V135.1L271.949 135.268V134.54C271.949 133.798 271.697 133.308 270.941 133.308C270.087 133.308 269.443 133.938 269.443 135.436V140H268.491V132.58H269.443V133.504C269.835 132.804 270.493 132.468 271.151 132.468ZM279.804 140H278.936C278.824 139.594 278.74 139.104 278.74 138.544C278.362 139.412 277.396 140.112 276.192 140.112C274.876 140.112 273.882 139.258 273.882 137.984C273.882 136.458 275.254 135.66 276.78 135.66C277.382 135.66 277.97 135.73 278.572 135.94V134.96C278.572 133.994 277.984 133.336 276.836 133.336C275.912 133.336 275.128 133.742 274.736 134.876L273.896 134.624C274.456 133.056 275.59 132.468 276.892 132.468C278.726 132.468 279.496 133.574 279.496 134.848V137.9C279.496 138.74 279.636 139.496 279.804 140ZM278.572 136.92V136.752C277.998 136.514 277.41 136.444 276.836 136.444C275.716 136.444 274.834 136.948 274.834 137.928C274.834 138.824 275.464 139.3 276.36 139.3C277.326 139.3 278.572 138.726 278.572 136.92ZM285.011 132.468C286.495 132.468 287.363 133.378 287.363 135.044V140H286.411V135.184C286.411 133.84 285.795 133.336 284.759 133.336C283.457 133.336 282.855 134.344 282.855 135.828V140H281.903V132.58H282.855V133.728C283.303 132.916 284.115 132.468 285.011 132.468ZM289.291 134.512C289.291 133.336 290.397 132.468 291.951 132.468C293.295 132.468 294.331 133.112 294.639 134.092L293.855 134.4C293.561 133.686 292.875 133.308 291.923 133.308C290.887 133.308 290.215 133.742 290.215 134.428C290.215 135.044 290.621 135.422 291.503 135.604L292.483 135.8C294.107 136.122 294.863 136.822 294.863 137.928C294.863 139.216 293.715 140.112 292.063 140.112C290.565 140.112 289.515 139.524 289.011 138.404L289.823 138.068C290.173 138.852 290.943 139.272 292.035 139.272C293.183 139.272 293.939 138.768 293.939 138.012C293.939 137.312 293.547 136.934 292.567 136.724L291.363 136.472C290.005 136.192 289.291 135.506 289.291 134.512ZM300.125 132.482C302.015 132.482 303.289 134.064 303.289 136.22C303.289 138.502 302.001 140.112 300.013 140.112C298.977 140.112 298.137 139.594 297.689 138.656V142.94H296.737V132.58H297.689V133.966C298.179 133.014 299.159 132.482 300.125 132.482ZM300.013 139.272C301.399 139.272 302.309 138.208 302.309 136.262C302.309 134.386 301.399 133.322 300.027 133.322C298.543 133.322 297.689 134.428 297.689 136.248C297.689 138.18 298.529 139.272 300.013 139.272ZM308.055 140.112C306.221 140.112 304.751 138.6 304.751 136.276C304.751 133.98 306.207 132.468 308.055 132.468C309.903 132.468 311.359 133.98 311.359 136.276C311.359 138.6 309.889 140.112 308.055 140.112ZM308.055 139.272C309.329 139.272 310.379 138.264 310.379 136.276C310.379 134.302 309.315 133.308 308.055 133.308C306.795 133.308 305.731 134.302 305.731 136.276C305.731 138.264 306.781 139.272 308.055 139.272ZM315.954 132.468C316.92 132.468 317.62 133.112 317.62 134.372V135.1L316.752 135.268V134.54C316.752 133.798 316.5 133.308 315.744 133.308C314.89 133.308 314.246 133.938 314.246 135.436V140H313.294V132.58H314.246V133.504C314.638 132.804 315.296 132.468 315.954 132.468ZM320.848 138.152C320.848 139.02 321.366 139.272 321.828 139.272C322.276 139.272 322.57 139.104 322.92 138.74L323.424 139.3C322.934 139.874 322.402 140.112 321.744 140.112C320.736 140.112 319.896 139.44 319.896 138.124V133.364H318.496V132.58H319.896V130.984L320.848 130.424V132.58H323.256V133.364H320.848V138.152ZM324.046 134.568H327.406V135.464H324.046V134.568ZM331.801 128.94H332.725L329.925 142.1H329.001L331.801 128.94ZM337.37 139.972C337.146 140.028 336.964 140.056 336.754 140.056C335.592 140.056 335.046 139.328 335.046 138.236V129.64H335.998V138.236C335.998 138.866 336.334 139.188 336.922 139.188C337.076 139.188 337.23 139.174 337.37 139.132V139.972ZM344.636 140H343.768C343.656 139.594 343.572 139.104 343.572 138.544C343.194 139.412 342.228 140.112 341.024 140.112C339.708 140.112 338.714 139.258 338.714 137.984C338.714 136.458 340.086 135.66 341.612 135.66C342.214 135.66 342.802 135.73 343.404 135.94V134.96C343.404 133.994 342.816 133.336 341.668 133.336C340.744 133.336 339.96 133.742 339.568 134.876L338.728 134.624C339.288 133.056 340.422 132.468 341.724 132.468C343.558 132.468 344.328 133.574 344.328 134.848V137.9C344.328 138.74 344.468 139.496 344.636 140ZM343.404 136.92V136.752C342.83 136.514 342.242 136.444 341.668 136.444C340.548 136.444 339.666 136.948 339.666 137.928C339.666 138.824 340.296 139.3 341.192 139.3C342.158 139.3 343.404 138.726 343.404 136.92ZM349.843 132.468C351.327 132.468 352.195 133.378 352.195 135.044V140H351.243V135.184C351.243 133.84 350.627 133.336 349.591 133.336C348.289 133.336 347.687 134.344 347.687 135.828V140H346.735V132.58H347.687V133.728C348.135 132.916 348.947 132.468 349.843 132.468ZM359.611 129.64H360.563V140H359.611V138.614C359.121 139.566 358.141 140.098 357.175 140.098C355.285 140.098 354.011 138.516 354.011 136.36C354.011 134.078 355.299 132.468 357.287 132.468C358.323 132.468 359.163 132.986 359.611 133.924V129.64ZM357.273 139.258C358.757 139.258 359.611 138.152 359.611 136.332C359.611 134.4 358.771 133.308 357.287 133.308C355.901 133.308 354.991 134.372 354.991 136.318C354.991 138.194 355.901 139.258 357.273 139.258ZM363.385 131.236C362.923 131.236 362.545 130.872 362.545 130.396C362.545 129.92 362.923 129.556 363.385 129.556C363.847 129.556 364.225 129.92 364.225 130.396C364.225 130.872 363.847 131.236 363.385 131.236ZM362.909 140V132.58H363.861V140H362.909ZM369.38 132.468C370.864 132.468 371.732 133.378 371.732 135.044V140H370.78V135.184C370.78 133.84 370.164 133.336 369.128 133.336C367.826 133.336 367.224 134.344 367.224 135.828V140H366.272V132.58H367.224V133.728C367.672 132.916 368.484 132.468 369.38 132.468ZM380.688 133.364H379.092V133.63C379.456 134.078 379.652 134.638 379.652 135.184C379.652 136.542 378.672 137.928 376.586 137.928H376.264C375.424 137.928 374.822 138.25 374.822 138.74C374.822 139.118 375.116 139.384 375.732 139.384H378.742C379.946 139.384 380.562 139.972 380.562 140.896C380.562 142.366 378.868 143.136 376.782 143.136C374.906 143.136 373.604 142.534 373.156 141.232L373.926 140.882C374.444 142.1 375.536 142.338 376.782 142.338C378.322 142.338 379.61 141.876 379.61 140.98C379.61 140.56 379.386 140.252 378.714 140.252H375.522C374.486 140.252 373.87 139.762 373.87 138.992C373.87 138.334 374.416 137.76 375.326 137.522C374.346 137.13 373.8 136.094 373.8 135.184C373.8 133.854 374.794 132.468 376.754 132.468C377.524 132.468 378.112 132.72 378.56 133.098V132.58H380.688V133.364ZM376.74 137.144C378.056 137.144 378.714 136.234 378.714 135.184C378.714 134.148 378.056 133.28 376.74 133.28C375.41 133.28 374.738 134.162 374.738 135.184C374.738 136.22 375.41 137.144 376.74 137.144ZM381.535 134.512C381.535 133.336 382.641 132.468 384.195 132.468C385.539 132.468 386.575 133.112 386.883 134.092L386.099 134.4C385.805 133.686 385.119 133.308 384.167 133.308C383.131 133.308 382.459 133.742 382.459 134.428C382.459 135.044 382.865 135.422 383.747 135.604L384.727 135.8C386.351 136.122 387.107 136.822 387.107 137.928C387.107 139.216 385.959 140.112 384.307 140.112C382.809 140.112 381.759 139.524 381.255 138.404L382.067 138.068C382.417 138.852 383.187 139.272 384.279 139.272C385.427 139.272 386.183 138.768 386.183 138.012C386.183 137.312 385.791 136.934 384.811 136.724L383.607 136.472C382.249 136.192 381.535 135.506 381.535 134.512ZM388.617 134.512C388.617 133.336 389.723 132.468 391.277 132.468C392.621 132.468 393.657 133.112 393.965 134.092L393.181 134.4C392.887 133.686 392.201 133.308 391.249 133.308C390.213 133.308 389.541 133.742 389.541 134.428C389.541 135.044 389.947 135.422 390.829 135.604L391.809 135.8C393.433 136.122 394.189 136.822 394.189 137.928C394.189 139.216 393.041 140.112 391.389 140.112C389.891 140.112 388.841 139.524 388.337 138.404L389.149 138.068C389.499 138.852 390.269 139.272 391.361 139.272C392.509 139.272 393.265 138.768 393.265 138.012C393.265 137.312 392.873 136.934 391.893 136.724L390.689 136.472C389.331 136.192 388.617 135.506 388.617 134.512ZM395.811 129.696H397.267V131.124H395.811V129.696ZM396.063 140V132.58H397.015V140H396.063ZM404.551 129.64H405.503V140H404.551V138.614C404.061 139.566 403.081 140.098 402.115 140.098C400.225 140.098 398.951 138.516 398.951 136.36C398.951 134.078 400.239 132.468 402.227 132.468C403.263 132.468 404.103 132.986 404.551 133.924V129.64ZM402.213 139.258C403.697 139.258 404.551 138.152 404.551 136.332C404.551 134.4 403.711 133.308 402.227 133.308C400.841 133.308 399.931 134.372 399.931 136.318C399.931 138.194 400.841 139.258 402.213 139.258ZM412.917 137.9L413.617 138.292C413.267 139.188 412.343 140.112 410.691 140.112C408.605 140.112 407.373 138.558 407.373 136.192C407.373 134.022 408.661 132.468 410.593 132.468C412.189 132.468 413.561 133.616 413.561 135.632L413.533 136.458H408.339C408.423 138.432 409.361 139.272 410.789 139.272C411.909 139.272 412.567 138.628 412.917 137.9ZM410.593 133.308C409.473 133.308 408.465 133.91 408.339 135.674H412.623C412.665 134.008 411.685 133.308 410.593 133.308Z" fill="#2A2859"/>
<path d="M218 142.856H414.373V143.472H218V142.856Z" fill="#2A2859"/>
<path fill-rule="evenodd" clip-rule="evenodd" d="M432.707 135L428 139.836L428.647 140.5L434 135L428.647 129.5L428 130.164L432.707 135Z" fill="#2A2859"/>
<path d="M448.036 132.384C448.036 130.648 449.618 129.528 451.452 129.528C453.146 129.528 454.294 130.256 454.812 131.558L453.888 131.936C453.468 130.942 452.53 130.396 451.452 130.396C450.024 130.396 449.016 131.124 449.016 132.272C449.016 133.238 449.59 133.826 450.808 134.064L452.432 134.372C454.028 134.68 455.204 135.534 455.204 137.088C455.204 138.684 453.86 140.112 451.592 140.112C449.8 140.112 448.456 139.496 447.728 137.956L448.624 137.592C449.324 138.964 450.486 139.244 451.62 139.244C453.314 139.244 454.224 138.264 454.224 137.144C454.224 135.898 453.384 135.534 452.124 135.296L450.64 135.016C449.198 134.75 448.036 133.952 448.036 132.384ZM458.493 138.152C458.493 139.02 459.011 139.272 459.473 139.272C459.921 139.272 460.215 139.104 460.565 138.74L461.069 139.3C460.579 139.874 460.047 140.112 459.389 140.112C458.381 140.112 457.541 139.44 457.541 138.124V133.364H456.141V132.58H457.541V130.984L458.493 130.424V132.58H460.901V133.364H458.493V138.152ZM467.953 140H467.085C466.973 139.594 466.889 139.104 466.889 138.544C466.511 139.412 465.545 140.112 464.341 140.112C463.025 140.112 462.031 139.258 462.031 137.984C462.031 136.458 463.403 135.66 464.929 135.66C465.531 135.66 466.119 135.73 466.721 135.94V134.96C466.721 133.994 466.133 133.336 464.985 133.336C464.061 133.336 463.277 133.742 462.885 134.876L462.045 134.624C462.605 133.056 463.739 132.468 465.041 132.468C466.875 132.468 467.645 133.574 467.645 134.848V137.9C467.645 138.74 467.785 139.496 467.953 140ZM466.721 136.92V136.752C466.147 136.514 465.559 136.444 464.985 136.444C463.865 136.444 462.983 136.948 462.983 137.928C462.983 138.824 463.613 139.3 464.509 139.3C465.475 139.3 466.721 138.726 466.721 136.92ZM472.712 132.468C473.678 132.468 474.378 133.112 474.378 134.372V135.1L473.51 135.268V134.54C473.51 133.798 473.258 133.308 472.502 133.308C471.648 133.308 471.004 133.938 471.004 135.436V140H470.052V132.58H471.004V133.504C471.396 132.804 472.054 132.468 472.712 132.468ZM477.606 138.152C477.606 139.02 478.124 139.272 478.586 139.272C479.034 139.272 479.328 139.104 479.678 138.74L480.182 139.3C479.692 139.874 479.16 140.112 478.502 140.112C477.494 140.112 476.654 139.44 476.654 138.124V133.364H475.254V132.58H476.654V130.984L477.606 130.424V132.58H480.014V133.364H477.606V138.152ZM480.804 134.568H484.164V135.464H480.804V134.568ZM488.559 128.94H489.483L486.683 142.1H485.759L488.559 128.94ZM493.288 138.152C493.288 139.02 493.806 139.272 494.268 139.272C494.716 139.272 495.01 139.104 495.36 138.74L495.864 139.3C495.374 139.874 494.842 140.112 494.184 140.112C493.176 140.112 492.336 139.44 492.336 138.124V133.364H490.936V132.58H492.336V130.984L493.288 130.424V132.58H495.696V133.364H493.288V138.152ZM500.151 132.468C501.117 132.468 501.817 133.112 501.817 134.372V135.1L500.949 135.268V134.54C500.949 133.798 500.697 133.308 499.941 133.308C499.087 133.308 498.443 133.938 498.443 135.436V140H497.491V132.58H498.443V133.504C498.835 132.804 499.493 132.468 500.151 132.468ZM508.804 140H507.936C507.824 139.594 507.74 139.104 507.74 138.544C507.362 139.412 506.396 140.112 505.192 140.112C503.876 140.112 502.882 139.258 502.882 137.984C502.882 136.458 504.254 135.66 505.78 135.66C506.382 135.66 506.97 135.73 507.572 135.94V134.96C507.572 133.994 506.984 133.336 505.836 133.336C504.912 133.336 504.128 133.742 503.736 134.876L502.896 134.624C503.456 133.056 504.59 132.468 505.892 132.468C507.726 132.468 508.496 133.574 508.496 134.848V137.9C508.496 138.74 508.636 139.496 508.804 140ZM507.572 136.92V136.752C506.998 136.514 506.41 136.444 505.836 136.444C504.716 136.444 503.834 136.948 503.834 137.928C503.834 138.824 504.464 139.3 505.36 139.3C506.326 139.3 507.572 138.726 507.572 136.92ZM514.011 132.468C515.495 132.468 516.363 133.378 516.363 135.044V140H515.411V135.184C515.411 133.84 514.795 133.336 513.759 133.336C512.457 133.336 511.855 134.344 511.855 135.828V140H510.903V132.58H511.855V133.728C512.303 132.916 513.115 132.468 514.011 132.468ZM518.291 134.512C518.291 133.336 519.397 132.468 520.951 132.468C522.295 132.468 523.331 133.112 523.639 134.092L522.855 134.4C522.561 133.686 521.875 133.308 520.923 133.308C519.887 133.308 519.215 133.742 519.215 134.428C519.215 135.044 519.621 135.422 520.503 135.604L521.483 135.8C523.107 136.122 523.863 136.822 523.863 137.928C523.863 139.216 522.715 140.112 521.063 140.112C519.565 140.112 518.515 139.524 518.011 138.404L518.823 138.068C519.173 138.852 519.943 139.272 521.035 139.272C522.183 139.272 522.939 138.768 522.939 138.012C522.939 137.312 522.547 136.934 521.567 136.724L520.363 136.472C519.005 136.192 518.291 135.506 518.291 134.512ZM529.125 132.482C531.015 132.482 532.289 134.064 532.289 136.22C532.289 138.502 531.001 140.112 529.013 140.112C527.977 140.112 527.137 139.594 526.689 138.656V142.94H525.737V132.58H526.689V133.966C527.179 133.014 528.159 132.482 529.125 132.482ZM529.013 139.272C530.399 139.272 531.309 138.208 531.309 136.262C531.309 134.386 530.399 133.322 529.027 133.322C527.543 133.322 526.689 134.428 526.689 136.248C526.689 138.18 527.529 139.272 529.013 139.272ZM537.055 140.112C535.221 140.112 533.751 138.6 533.751 136.276C533.751 133.98 535.207 132.468 537.055 132.468C538.903 132.468 540.359 133.98 540.359 136.276C540.359 138.6 538.889 140.112 537.055 140.112ZM537.055 139.272C538.329 139.272 539.379 138.264 539.379 136.276C539.379 134.302 538.315 133.308 537.055 133.308C535.795 133.308 534.731 134.302 534.731 136.276C534.731 138.264 535.781 139.272 537.055 139.272ZM544.954 132.468C545.92 132.468 546.62 133.112 546.62 134.372V135.1L545.752 135.268V134.54C545.752 133.798 545.5 133.308 544.744 133.308C543.89 133.308 543.246 133.938 543.246 135.436V140H542.294V132.58H543.246V133.504C543.638 132.804 544.296 132.468 544.954 132.468ZM549.848 138.152C549.848 139.02 550.366 139.272 550.828 139.272C551.276 139.272 551.57 139.104 551.92 138.74L552.424 139.3C551.934 139.874 551.402 140.112 550.744 140.112C549.736 140.112 548.896 139.44 548.896 138.124V133.364H547.496V132.58H548.896V130.984L549.848 130.424V132.58H552.256V133.364H549.848V138.152ZM553.046 134.568H556.406V135.464H553.046V134.568ZM560.801 128.94H561.725L558.925 142.1H558.001L560.801 128.94ZM566.37 139.972C566.146 140.028 565.964 140.056 565.754 140.056C564.592 140.056 564.046 139.328 564.046 138.236V129.64H564.998V138.236C564.998 138.866 565.334 139.188 565.922 139.188C566.076 139.188 566.23 139.174 566.37 139.132V139.972ZM573.636 140H572.768C572.656 139.594 572.572 139.104 572.572 138.544C572.194 139.412 571.228 140.112 570.024 140.112C568.708 140.112 567.714 139.258 567.714 137.984C567.714 136.458 569.086 135.66 570.612 135.66C571.214 135.66 571.802 135.73 572.404 135.94V134.96C572.404 133.994 571.816 133.336 570.668 133.336C569.744 133.336 568.96 133.742 568.568 134.876L567.728 134.624C568.288 133.056 569.422 132.468 570.724 132.468C572.558 132.468 573.328 133.574 573.328 134.848V137.9C573.328 138.74 573.468 139.496 573.636 140ZM572.404 136.92V136.752C571.83 136.514 571.242 136.444 570.668 136.444C569.548 136.444 568.666 136.948 568.666 137.928C568.666 138.824 569.296 139.3 570.192 139.3C571.158 139.3 572.404 138.726 572.404 136.92ZM578.843 132.468C580.327 132.468 581.195 133.378 581.195 135.044V140H580.243V135.184C580.243 133.84 579.627 133.336 578.591 133.336C577.289 133.336 576.687 134.344 576.687 135.828V140H575.735V132.58H576.687V133.728C577.135 132.916 577.947 132.468 578.843 132.468ZM588.611 129.64H589.563V140H588.611V138.614C588.121 139.566 587.141 140.098 586.175 140.098C584.285 140.098 583.011 138.516 583.011 136.36C583.011 134.078 584.299 132.468 586.287 132.468C587.323 132.468 588.163 132.986 588.611 133.924V129.64ZM586.273 139.258C587.757 139.258 588.611 138.152 588.611 136.332C588.611 134.4 587.771 133.308 586.287 133.308C584.901 133.308 583.991 134.372 583.991 136.318C583.991 138.194 584.901 139.258 586.273 139.258ZM592.385 131.236C591.923 131.236 591.545 130.872 591.545 130.396C591.545 129.92 591.923 129.556 592.385 129.556C592.847 129.556 593.225 129.92 593.225 130.396C593.225 130.872 592.847 131.236 592.385 131.236ZM591.909 140V132.58H592.861V140H591.909ZM598.38 132.468C599.864 132.468 600.732 133.378 600.732 135.044V140H599.78V135.184C599.78 133.84 599.164 133.336 598.128 133.336C596.826 133.336 596.224 134.344 596.224 135.828V140H595.272V132.58H596.224V133.728C596.672 132.916 597.484 132.468 598.38 132.468ZM609.688 133.364H608.092V133.63C608.456 134.078 608.652 134.638 608.652 135.184C608.652 136.542 607.672 137.928 605.586 137.928H605.264C604.424 137.928 603.822 138.25 603.822 138.74C603.822 139.118 604.116 139.384 604.732 139.384H607.742C608.946 139.384 609.562 139.972 609.562 140.896C609.562 142.366 607.868 143.136 605.782 143.136C603.906 143.136 602.604 142.534 602.156 141.232L602.926 140.882C603.444 142.1 604.536 142.338 605.782 142.338C607.322 142.338 608.61 141.876 608.61 140.98C608.61 140.56 608.386 140.252 607.714 140.252H604.522C603.486 140.252 602.87 139.762 602.87 138.992C602.87 138.334 603.416 137.76 604.326 137.522C603.346 137.13 602.8 136.094 602.8 135.184C602.8 133.854 603.794 132.468 605.754 132.468C606.524 132.468 607.112 132.72 607.56 133.098V132.58H609.688V133.364ZM605.74 137.144C607.056 137.144 607.714 136.234 607.714 135.184C607.714 134.148 607.056 133.28 605.74 133.28C604.41 133.28 603.738 134.162 603.738 135.184C603.738 136.22 604.41 137.144 605.74 137.144ZM610.535 134.512C610.535 133.336 611.641 132.468 613.195 132.468C614.539 132.468 615.575 133.112 615.883 134.092L615.099 134.4C614.805 133.686 614.119 133.308 613.167 133.308C612.131 133.308 611.459 133.742 611.459 134.428C611.459 135.044 611.865 135.422 612.747 135.604L613.727 135.8C615.351 136.122 616.107 136.822 616.107 137.928C616.107 139.216 614.959 140.112 613.307 140.112C611.809 140.112 610.759 139.524 610.255 138.404L611.067 138.068C611.417 138.852 612.187 139.272 613.279 139.272C614.427 139.272 615.183 138.768 615.183 138.012C615.183 137.312 614.791 136.934 613.811 136.724L612.607 136.472C611.249 136.192 610.535 135.506 610.535 134.512ZM617.617 134.512C617.617 133.336 618.723 132.468 620.277 132.468C621.621 132.468 622.657 133.112 622.965 134.092L622.181 134.4C621.887 133.686 621.201 133.308 620.249 133.308C619.213 133.308 618.541 133.742 618.541 134.428C618.541 135.044 618.947 135.422 619.829 135.604L620.809 135.8C622.433 136.122 623.189 136.822 623.189 137.928C623.189 139.216 622.041 140.112 620.389 140.112C618.891 140.112 617.841 139.524 617.337 138.404L618.149 138.068C618.499 138.852 619.269 139.272 620.361 139.272C621.509 139.272 622.265 138.768 622.265 138.012C622.265 137.312 621.873 136.934 620.893 136.724L619.689 136.472C618.331 136.192 617.617 135.506 617.617 134.512ZM624.811 129.696H626.267V131.124H624.811V129.696ZM625.063 140V132.58H626.015V140H625.063ZM633.551 129.64H634.503V140H633.551V138.614C633.061 139.566 632.081 140.098 631.115 140.098C629.225 140.098 627.951 138.516 627.951 136.36C627.951 134.078 629.239 132.468 631.227 132.468C632.263 132.468 633.103 132.986 633.551 133.924V129.64ZM631.213 139.258C632.697 139.258 633.551 138.152 633.551 136.332C633.551 134.4 632.711 133.308 631.227 133.308C629.841 133.308 628.931 134.372 628.931 136.318C628.931 138.194 629.841 139.258 631.213 139.258ZM641.917 137.9L642.617 138.292C642.267 139.188 641.343 140.112 639.691 140.112C637.605 140.112 636.373 138.558 636.373 136.192C636.373 134.022 637.661 132.468 639.593 132.468C641.189 132.468 642.561 133.616 642.561 135.632L642.533 136.458H637.339C637.423 138.432 638.361 139.272 639.789 139.272C640.909 139.272 641.567 138.628 641.917 137.9ZM639.593 133.308C638.473 133.308 637.465 133.91 637.339 135.674H641.623C641.665 134.008 640.685 133.308 639.593 133.308Z" fill="#2A2859"/>
<path d="M447 142.856H643.373V143.472H447V142.856Z" fill="#2A2859"/>
<path fill-rule="evenodd" clip-rule="evenodd" d="M661.707 135L657 139.836L657.647 140.5L663 135L657.647 129.5L657 130.164L661.707 135Z" fill="#2A2859"/>
<path d="M677.036 132.384C677.036 130.648 678.618 129.528 680.452 129.528C682.146 129.528 683.294 130.256 683.812 131.558L682.888 131.936C682.468 130.942 681.53 130.396 680.452 130.396C679.024 130.396 678.016 131.124 678.016 132.272C678.016 133.238 678.59 133.826 679.808 134.064L681.432 134.372C683.028 134.68 684.204 135.534 684.204 137.088C684.204 138.684 682.86 140.112 680.592 140.112C678.8 140.112 677.456 139.496 676.728 137.956L677.624 137.592C678.324 138.964 679.486 139.244 680.62 139.244C682.314 139.244 683.224 138.264 683.224 137.144C683.224 135.898 682.384 135.534 681.124 135.296L679.64 135.016C678.198 134.75 677.036 133.952 677.036 132.384ZM687.493 138.152C687.493 139.02 688.011 139.272 688.473 139.272C688.921 139.272 689.215 139.104 689.565 138.74L690.069 139.3C689.579 139.874 689.047 140.112 688.389 140.112C687.381 140.112 686.541 139.44 686.541 138.124V133.364H685.141V132.58H686.541V130.984L687.493 130.424V132.58H689.901V133.364H687.493V138.152ZM696.953 140H696.085C695.973 139.594 695.889 139.104 695.889 138.544C695.511 139.412 694.545 140.112 693.341 140.112C692.025 140.112 691.031 139.258 691.031 137.984C691.031 136.458 692.403 135.66 693.929 135.66C694.531 135.66 695.119 135.73 695.721 135.94V134.96C695.721 133.994 695.133 133.336 693.985 133.336C693.061 133.336 692.277 133.742 691.885 134.876L691.045 134.624C691.605 133.056 692.739 132.468 694.041 132.468C695.875 132.468 696.645 133.574 696.645 134.848V137.9C696.645 138.74 696.785 139.496 696.953 140ZM695.721 136.92V136.752C695.147 136.514 694.559 136.444 693.985 136.444C692.865 136.444 691.983 136.948 691.983 137.928C691.983 138.824 692.613 139.3 693.509 139.3C694.475 139.3 695.721 138.726 695.721 136.92ZM701.712 132.468C702.678 132.468 703.378 133.112 703.378 134.372V135.1L702.51 135.268V134.54C702.51 133.798 702.258 133.308 701.502 133.308C700.648 133.308 700.004 133.938 700.004 135.436V140H699.052V132.58H700.004V133.504C700.396 132.804 701.054 132.468 701.712 132.468ZM706.606 138.152C706.606 139.02 707.124 139.272 707.586 139.272C708.034 139.272 708.328 139.104 708.678 138.74L709.182 139.3C708.692 139.874 708.16 140.112 707.502 140.112C706.494 140.112 705.654 139.44 705.654 138.124V133.364H704.254V132.58H705.654V130.984L706.606 130.424V132.58H709.014V133.364H706.606V138.152ZM709.804 134.568H713.164V135.464H709.804V134.568ZM717.559 128.94H718.483L715.683 142.1H714.759L717.559 128.94ZM722.288 138.152C722.288 139.02 722.806 139.272 723.268 139.272C723.716 139.272 724.01 139.104 724.36 138.74L724.864 139.3C724.374 139.874 723.842 140.112 723.184 140.112C722.176 140.112 721.336 139.44 721.336 138.124V133.364H719.936V132.58H721.336V130.984L722.288 130.424V132.58H724.696V133.364H722.288V138.152ZM729.151 132.468C730.117 132.468 730.817 133.112 730.817 134.372V135.1L729.949 135.268V134.54C729.949 133.798 729.697 133.308 728.941 133.308C728.087 133.308 727.443 133.938 727.443 135.436V140H726.491V132.58H727.443V133.504C727.835 132.804 728.493 132.468 729.151 132.468ZM737.804 140H736.936C736.824 139.594 736.74 139.104 736.74 138.544C736.362 139.412 735.396 140.112 734.192 140.112C732.876 140.112 731.882 139.258 731.882 137.984C731.882 136.458 733.254 135.66 734.78 135.66C735.382 135.66 735.97 135.73 736.572 135.94V134.96C736.572 133.994 735.984 133.336 734.836 133.336C733.912 133.336 733.128 133.742 732.736 134.876L731.896 134.624C732.456 133.056 733.59 132.468 734.892 132.468C736.726 132.468 737.496 133.574 737.496 134.848V137.9C737.496 138.74 737.636 139.496 737.804 140ZM736.572 136.92V136.752C735.998 136.514 735.41 136.444 734.836 136.444C733.716 136.444 732.834 136.948 732.834 137.928C732.834 138.824 733.464 139.3 734.36 139.3C735.326 139.3 736.572 138.726 736.572 136.92ZM743.011 132.468C744.495 132.468 745.363 133.378 745.363 135.044V140H744.411V135.184C744.411 133.84 743.795 133.336 742.759 133.336C741.457 133.336 740.855 134.344 740.855 135.828V140H739.903V132.58H740.855V133.728C741.303 132.916 742.115 132.468 743.011 132.468ZM747.291 134.512C747.291 133.336 748.397 132.468 749.951 132.468C751.295 132.468 752.331 133.112 752.639 134.092L751.855 134.4C751.561 133.686 750.875 133.308 749.923 133.308C748.887 133.308 748.215 133.742 748.215 134.428C748.215 135.044 748.621 135.422 749.503 135.604L750.483 135.8C752.107 136.122 752.863 136.822 752.863 137.928C752.863 139.216 751.715 140.112 750.063 140.112C748.565 140.112 747.515 139.524 747.011 138.404L747.823 138.068C748.173 138.852 748.943 139.272 750.035 139.272C751.183 139.272 751.939 138.768 751.939 138.012C751.939 137.312 751.547 136.934 750.567 136.724L749.363 136.472C748.005 136.192 747.291 135.506 747.291 134.512ZM758.125 132.482C760.015 132.482 761.289 134.064 761.289 136.22C761.289 138.502 760.001 140.112 758.013 140.112C756.977 140.112 756.137 139.594 755.689 138.656V142.94H754.737V132.58H755.689V133.966C756.179 133.014 757.159 132.482 758.125 132.482ZM758.013 139.272C759.399 139.272 760.309 138.208 760.309 136.262C760.309 134.386 759.399 133.322 758.027 133.322C756.543 133.322 755.689 134.428 755.689 136.248C755.689 138.18 756.529 139.272 758.013 139.272ZM766.055 140.112C764.221 140.112 762.751 138.6 762.751 136.276C762.751 133.98 764.207 132.468 766.055 132.468C767.903 132.468 769.359 133.98 769.359 136.276C769.359 138.6 767.889 140.112 766.055 140.112ZM766.055 139.272C767.329 139.272 768.379 138.264 768.379 136.276C768.379 134.302 767.315 133.308 766.055 133.308C764.795 133.308 763.731 134.302 763.731 136.276C763.731 138.264 764.781 139.272 766.055 139.272ZM773.954 132.468C774.92 132.468 775.62 133.112 775.62 134.372V135.1L774.752 135.268V134.54C774.752 133.798 774.5 133.308 773.744 133.308C772.89 133.308 772.246 133.938 772.246 135.436V140H771.294V132.58H772.246V133.504C772.638 132.804 773.296 132.468 773.954 132.468ZM778.848 138.152C778.848 139.02 779.366 139.272 779.828 139.272C780.276 139.272 780.57 139.104 780.92 138.74L781.424 139.3C780.934 139.874 780.402 140.112 779.744 140.112C778.736 140.112 777.896 139.44 777.896 138.124V133.364H776.496V132.58H777.896V130.984L778.848 130.424V132.58H781.256V133.364H778.848V138.152ZM782.046 134.568H785.406V135.464H782.046V134.568ZM789.801 128.94H790.725L787.925 142.1H787.001L789.801 128.94ZM795.37 139.972C795.146 140.028 794.964 140.056 794.754 140.056C793.592 140.056 793.046 139.328 793.046 138.236V129.64H793.998V138.236C793.998 138.866 794.334 139.188 794.922 139.188C795.076 139.188 795.23 139.174 795.37 139.132V139.972ZM802.636 140H801.768C801.656 139.594 801.572 139.104 801.572 138.544C801.194 139.412 800.228 140.112 799.024 140.112C797.708 140.112 796.714 139.258 796.714 137.984C796.714 136.458 798.086 135.66 799.612 135.66C800.214 135.66 800.802 135.73 801.404 135.94V134.96C801.404 133.994 800.816 133.336 799.668 133.336C798.744 133.336 797.96 133.742 797.568 134.876L796.728 134.624C797.288 133.056 798.422 132.468 799.724 132.468C801.558 132.468 802.328 133.574 802.328 134.848V137.9C802.328 138.74 802.468 139.496 802.636 140ZM801.404 136.92V136.752C800.83 136.514 800.242 136.444 799.668 136.444C798.548 136.444 797.666 136.948 797.666 137.928C797.666 138.824 798.296 139.3 799.192 139.3C800.158 139.3 801.404 138.726 801.404 136.92ZM807.843 132.468C809.327 132.468 810.195 133.378 810.195 135.044V140H809.243V135.184C809.243 133.84 808.627 133.336 807.591 133.336C806.289 133.336 805.687 134.344 805.687 135.828V140H804.735V132.58H805.687V133.728C806.135 132.916 806.947 132.468 807.843 132.468ZM817.611 129.64H818.563V140H817.611V138.614C817.121 139.566 816.141 140.098 815.175 140.098C813.285 140.098 812.011 138.516 812.011 136.36C812.011 134.078 813.299 132.468 815.287 132.468C816.323 132.468 817.163 132.986 817.611 133.924V129.64ZM815.273 139.258C816.757 139.258 817.611 138.152 817.611 136.332C817.611 134.4 816.771 133.308 815.287 133.308C813.901 133.308 812.991 134.372 812.991 136.318C812.991 138.194 813.901 139.258 815.273 139.258ZM821.385 131.236C820.923 131.236 820.545 130.872 820.545 130.396C820.545 129.92 820.923 129.556 821.385 129.556C821.847 129.556 822.225 129.92 822.225 130.396C822.225 130.872 821.847 131.236 821.385 131.236ZM820.909 140V132.58H821.861V140H820.909ZM827.38 132.468C828.864 132.468 829.732 133.378 829.732 135.044V140H828.78V135.184C828.78 133.84 828.164 133.336 827.128 133.336C825.826 133.336 825.224 134.344 825.224 135.828V140H824.272V132.58H825.224V133.728C825.672 132.916 826.484 132.468 827.38 132.468ZM838.688 133.364H837.092V133.63C837.456 134.078 837.652 134.638 837.652 135.184C837.652 136.542 836.672 137.928 834.586 137.928H834.264C833.424 137.928 832.822 138.25 832.822 138.74C832.822 139.118 833.116 139.384 833.732 139.384H836.742C837.946 139.384 838.562 139.972 838.562 140.896C838.562 142.366 836.868 143.136 834.782 143.136C832.906 143.136 831.604 142.534 831.156 141.232L831.926 140.882C832.444 142.1 833.536 142.338 834.782 142.338C836.322 142.338 837.61 141.876 837.61 140.98C837.61 140.56 837.386 140.252 836.714 140.252H833.522C832.486 140.252 831.87 139.762 831.87 138.992C831.87 138.334 832.416 137.76 833.326 137.522C832.346 137.13 831.8 136.094 831.8 135.184C831.8 133.854 832.794 132.468 834.754 132.468C835.524 132.468 836.112 132.72 836.56 133.098V132.58H838.688V133.364ZM834.74 137.144C836.056 137.144 836.714 136.234 836.714 135.184C836.714 134.148 836.056 133.28 834.74 133.28C833.41 133.28 832.738 134.162 832.738 135.184C832.738 136.22 833.41 137.144 834.74 137.144ZM839.535 134.512C839.535 133.336 840.641 132.468 842.195 132.468C843.539 132.468 844.575 133.112 844.883 134.092L844.099 134.4C843.805 133.686 843.119 133.308 842.167 133.308C841.131 133.308 840.459 133.742 840.459 134.428C840.459 135.044 840.865 135.422 841.747 135.604L842.727 135.8C844.351 136.122 845.107 136.822 845.107 137.928C845.107 139.216 843.959 140.112 842.307 140.112C840.809 140.112 839.759 139.524 839.255 138.404L840.067 138.068C840.417 138.852 841.187 139.272 842.279 139.272C843.427 139.272 844.183 138.768 844.183 138.012C844.183 137.312 843.791 136.934 842.811 136.724L841.607 136.472C840.249 136.192 839.535 135.506 839.535 134.512ZM846.617 134.512C846.617 133.336 847.723 132.468 849.277 132.468C850.621 132.468 851.657 133.112 851.965 134.092L851.181 134.4C850.887 133.686 850.201 133.308 849.249 133.308C848.213 133.308 847.541 133.742 847.541 134.428C847.541 135.044 847.947 135.422 848.829 135.604L849.809 135.8C851.433 136.122 852.189 136.822 852.189 137.928C852.189 139.216 851.041 140.112 849.389 140.112C847.891 140.112 846.841 139.524 846.337 138.404L847.149 138.068C847.499 138.852 848.269 139.272 849.361 139.272C850.509 139.272 851.265 138.768 851.265 138.012C851.265 137.312 850.873 136.934 849.893 136.724L848.689 136.472C847.331 136.192 846.617 135.506 846.617 134.512ZM853.811 129.696H855.267V131.124H853.811V129.696ZM854.063 140V132.58H855.015V140H854.063ZM862.551 129.64H863.503V140H862.551V138.614C862.061 139.566 861.081 140.098 860.115 140.098C858.225 140.098 856.951 138.516 856.951 136.36C856.951 134.078 858.239 132.468 860.227 132.468C861.263 132.468 862.103 132.986 862.551 133.924V129.64ZM860.213 139.258C861.697 139.258 862.551 138.152 862.551 136.332C862.551 134.4 861.711 133.308 860.227 133.308C858.841 133.308 857.931 134.372 857.931 136.318C857.931 138.194 858.841 139.258 860.213 139.258ZM870.917 137.9L871.617 138.292C871.267 139.188 870.343 140.112 868.691 140.112C866.605 140.112 865.373 138.558 865.373 136.192C865.373 134.022 866.661 132.468 868.593 132.468C870.189 132.468 871.561 133.616 871.561 135.632L871.533 136.458H866.339C866.423 138.432 867.361 139.272 868.789 139.272C869.909 139.272 870.567 138.628 870.917 137.9ZM868.593 133.308C867.473 133.308 866.465 133.91 866.339 135.674H870.623C870.665 134.008 869.685 133.308 868.593 133.308Z" fill="#2A2859"/>
<g clip-path="url(#clip0_5734_204761)">
<rect x="170" y="135" width="48" height="1" fill="#6FE9FF"/>
<g clip-path="url(#clip1_5734_204761)">
<rect x="170" y="123" width="24" height="24" rx="12" fill="#6FE9FF"/>
<path d="M182.71 138.1H184.666V139H179.59V138.1H181.654V131.32L179.698 132.628V131.524L181.762 130.12H182.71V138.1Z" fill="#2A2859"/>
</g>
</g>
<g clip-path="url(#clip2_5734_204761)">
<rect x="533.5" y="76" width="1" height="48" fill="#6FE9FF"/>
<g clip-path="url(#clip3_5734_204761)">
<rect x="521.5" y="76" width="24" height="24" rx="12" fill="#6FE9FF"/>
<path d="M534.906 87.308C535.794 87.608 536.526 88.316 536.526 89.48C536.526 90.92 535.314 92.108 533.358 92.108C532.17 92.108 531.054 91.664 530.19 90.464L530.982 89.84C531.63 90.764 532.35 91.148 533.406 91.148C534.678 91.148 535.47 90.38 535.47 89.444C535.47 88.796 535.206 88.388 534.798 88.148C534.486 87.98 534.198 87.896 533.706 87.896H532.446V86.984H533.346C534.018 86.984 534.294 86.888 534.582 86.66C534.918 86.384 535.11 85.976 535.11 85.496C535.11 84.56 534.426 83.96 533.322 83.96C532.386 83.96 531.666 84.44 531.294 85.472L530.346 85.184C530.922 83.684 532.026 83.012 533.358 83.012C535.266 83.012 536.154 84.212 536.154 85.376C536.154 86.264 535.626 86.96 534.906 87.308Z" fill="#2A2859"/>
</g>
</g>
<g clip-path="url(#clip4_5734_204761)">
<rect x="431" y="76" width="1" height="48" fill="#6FE9FF"/>
<g clip-path="url(#clip5_5734_204761)">
<rect x="419" y="76" width="24" height="24" rx="12" fill="#6FE9FF"/>
<path d="M429.574 91.028H434.086V92H428.146V91.184L431.302 87.752C432.214 86.768 432.586 86.228 432.586 85.46C432.586 84.632 432.022 83.96 430.966 83.96C430.042 83.96 429.346 84.416 429.01 85.472L428.038 85.208C428.554 83.636 429.67 83.012 430.99 83.012C432.766 83.012 433.69 84.2 433.69 85.376C433.69 86.396 433.282 87.068 432.106 88.34L429.574 91.028Z" fill="#2A2859"/>
</g>
</g>
<g clip-path="url(#clip6_5734_204761)">
<rect x="762.5" y="76" width="1" height="48" fill="#6FE9FF"/>
<g clip-path="url(#clip7_5734_204761)">
<rect x="750.5" y="76" width="24" height="24" rx="12" fill="#6FE9FF"/>
<path d="M765.826 88.796V89.744H764.386V92H763.366V89.744H759.382V88.928L761.494 83.12H762.514L760.498 88.796H763.366V86.264L764.386 85.964V88.796H765.826Z" fill="#2A2859"/>
</g>
</g>
<defs>
<clipPath id="clip0_5734_204761">
<rect width="48" height="24" fill="white" transform="translate(170 123)"/>
</clipPath>
<clipPath id="clip1_5734_204761">
<rect x="170" y="123" width="24" height="24" rx="12" fill="white"/>
</clipPath>
<clipPath id="clip2_5734_204761">
<rect width="24" height="48" fill="white" transform="translate(521.5 76)"/>
</clipPath>
<clipPath id="clip3_5734_204761">
<rect x="521.5" y="76" width="24" height="24" rx="12" fill="white"/>
</clipPath>
<clipPath id="clip4_5734_204761">
<rect width="24" height="48" fill="white" transform="translate(419 76)"/>
</clipPath>
<clipPath id="clip5_5734_204761">
<rect x="419" y="76" width="24" height="24" rx="12" fill="white"/>
</clipPath>
<clipPath id="clip6_5734_204761">
<rect width="24" height="48" fill="white" transform="translate(750.5 76)"/>
</clipPath>
<clipPath id="clip7_5734_204761">
<rect x="750.5" y="76" width="24" height="24" rx="12" fill="white"/>
</clipPath>
</defs>
</svg>
