<svg width="662" height="313" viewBox="0 0 662 313" fill="none" xmlns="http://www.w3.org/2000/svg">
<rect width="662" height="313" fill="white"/>
<mask id="path-1-inside-1_3057_108020" fill="white">
<path d="M59 44H641V269H59V44Z"/>
</mask>
<path d="M59 44H641V269H59V44Z" fill="#F2F9FF"/>
<path fill-rule="evenodd" clip-rule="evenodd" d="M95 93.25C101.213 93.25 106.25 88.2132 106.25 82C106.25 75.7868 101.213 70.75 95 70.75C88.7868 70.75 83.75 75.7868 83.75 82C83.75 88.2132 88.7868 93.25 95 93.25Z" fill="#6FE9FF"/>
<path d="M95.8437 79.8906H94.1562V88.3281H95.8437V79.8906Z" fill="#2A2859"/>
<path d="M93.6641 77.1484C93.6641 77.8959 94.2366 78.4844 95 78.4844C95.7634 78.4844 96.3359 77.8959 96.3359 77.1484C96.3359 76.4009 95.7634 75.8125 95 75.8125C94.2366 75.8125 93.6641 76.4009 93.6641 77.1484Z" fill="#2A2859"/>
<path d="M124.566 88H126.672V74.68H124.566V88ZM134.502 78.244C133.314 78.244 132.36 78.82 131.712 79.828V78.46H129.696V88H131.712V82.834C131.712 80.98 132.432 79.99 133.854 79.99C134.952 79.99 135.582 80.584 135.582 81.898V88H137.598V81.574C137.598 79.504 136.446 78.244 134.502 78.244ZM143.119 77.596C143.119 76.606 143.731 76.174 144.469 76.174C144.937 76.174 145.369 76.39 145.657 76.75L146.611 75.418C146.089 74.77 145.207 74.41 144.325 74.41C142.453 74.41 141.103 75.616 141.103 77.686V78.46H139.429V80.026H141.103V88H143.119V80.026H145.801V78.46H143.119V77.596ZM150.987 88.18C153.471 88.18 155.505 86.236 155.505 83.176C155.505 80.188 153.489 78.244 150.987 78.244C148.485 78.244 146.469 80.188 146.469 83.176C146.469 86.236 148.503 88.18 150.987 88.18ZM150.987 86.47C149.655 86.47 148.539 85.426 148.539 83.176C148.539 80.908 149.655 79.954 150.987 79.954C152.319 79.954 153.435 80.908 153.435 83.176C153.435 85.426 152.337 86.47 150.987 86.47ZM162.195 78.244C161.367 78.244 160.377 78.676 159.837 79.738V78.46H157.821V88H159.837V82.42C159.837 80.602 160.593 79.918 161.619 79.918C162.555 79.918 162.861 80.512 162.861 81.376V82.348L164.481 82.06V80.8C164.481 79.162 163.581 78.244 162.195 78.244ZM177.316 78.244C176.038 78.244 175.03 78.874 174.382 80.134C173.968 78.946 173.014 78.244 171.556 78.244C170.404 78.244 169.468 78.784 168.82 79.81V78.46H166.804V88H168.82V82.834C168.82 80.962 169.522 79.99 170.908 79.99C171.952 79.99 172.546 80.566 172.546 81.826V88H174.562V82.834C174.562 80.962 175.264 79.99 176.668 79.99C177.712 79.99 178.306 80.566 178.306 81.826V88H180.322V81.484C180.322 79.486 179.224 78.244 177.316 78.244ZM190.96 88C190.726 87.388 190.546 86.38 190.546 85.246V81.556C190.546 79.738 189.394 78.244 186.856 78.244C185.146 78.244 183.508 79.054 182.824 81.07L184.534 81.592C184.894 80.476 185.668 79.882 186.766 79.882C187.936 79.882 188.584 80.548 188.584 81.574V82.474C187.918 82.294 187.306 82.24 186.658 82.24C184.606 82.24 182.77 83.266 182.77 85.336C182.77 86.992 183.994 88.162 185.722 88.162C187.378 88.162 188.386 87.19 188.836 86.2C188.872 86.938 188.962 87.514 189.106 88H190.96ZM188.584 84.058C188.584 86.02 187.306 86.596 186.334 86.596C185.38 86.596 184.75 86.038 184.75 85.156C184.75 84.112 185.668 83.572 186.856 83.572C187.45 83.572 188.008 83.644 188.584 83.842V84.058ZM195.994 85.048V80.026H199.36V78.46H195.994V75.418L193.978 76.336V78.46H192.304V80.026H193.978V85.174C193.978 87.154 195.328 88.162 196.984 88.162C198.01 88.162 198.802 87.82 199.522 87.1L198.658 85.804C198.244 86.218 197.83 86.434 197.308 86.434C196.642 86.434 195.994 86.11 195.994 85.048ZM202.476 76.876C203.268 76.876 203.88 76.264 203.88 75.454C203.88 74.644 203.268 74.032 202.476 74.032C201.684 74.032 201.054 74.644 201.054 75.454C201.054 76.264 201.684 76.876 202.476 76.876ZM201.468 88H203.484V78.46H201.468V88ZM212.649 78.46L210.129 85.894L207.609 78.46H205.377L209.013 88H211.083L214.737 78.46H212.649ZM223.75 85.048V80.026H227.116V78.46H223.75V75.418L221.734 76.336V78.46H220.06V80.026H221.734V85.174C221.734 87.154 223.084 88.162 224.74 88.162C225.766 88.162 226.558 87.82 227.278 87.1L226.414 85.804C226 86.218 225.586 86.434 225.064 86.434C224.398 86.434 223.75 86.11 223.75 85.048ZM228.99 74.32V76.75H231.456V74.32H228.99ZM229.224 88H231.24V78.46H229.224V88ZM237.021 85.048V80.026H240.387V78.46H237.021V75.418L235.005 76.336V78.46H233.331V80.026H235.005V85.174C235.005 87.154 236.355 88.162 238.011 88.162C239.037 88.162 239.829 87.82 240.549 87.1L239.685 85.804C239.271 86.218 238.857 86.434 238.335 86.434C237.669 86.434 237.021 86.11 237.021 85.048ZM245.037 85.048V80.026H248.403V78.46H245.037V75.418L243.021 76.336V78.46H241.347V80.026H243.021V85.174C243.021 87.154 244.371 88.162 246.027 88.162C247.053 88.162 247.845 87.82 248.565 87.1L247.701 85.804C247.287 86.218 246.873 86.434 246.351 86.434C245.685 86.434 245.037 86.11 245.037 85.048ZM256.606 84.994C256.102 85.894 255.292 86.524 254.122 86.524C252.538 86.524 251.548 85.66 251.44 83.644H257.92L257.956 82.456C257.956 79.756 256.102 78.244 253.852 78.244C251.314 78.244 249.46 80.242 249.46 83.14C249.46 86.074 251.17 88.162 253.996 88.162C256.174 88.162 257.434 86.974 257.974 85.786L256.606 84.994ZM253.852 79.828C254.968 79.828 256.012 80.512 255.994 82.204H251.44C251.602 80.476 252.628 79.828 253.852 79.828ZM264.276 87.946V86.272C264.06 86.326 263.862 86.344 263.682 86.344C262.944 86.344 262.458 85.966 262.458 85.138V74.68H260.442V85.282C260.442 87.028 261.306 88.108 263.124 88.108C263.52 88.108 263.898 88.054 264.276 87.946Z" fill="#2A2859"/>
<path fill-rule="evenodd" clip-rule="evenodd" d="M603.9 82L596.75 74.85L597.85 73.75L605 80.9L612.15 73.75L613.25 74.85L606.1 82L613.25 89.15L612.15 90.25L605 83.1L597.85 90.25L596.75 89.15L603.9 82Z" fill="#2A2859"/>
<path d="M91.226 131.962C92.576 131.476 93.152 130.234 93.152 129.172C93.152 127.354 92.054 125.68 89.012 125.68H84.584V139H89.444C92.612 139 93.764 137.002 93.764 135.31C93.764 133.672 92.594 132.376 91.226 131.962ZM89.012 126.796C91.064 126.796 91.856 127.876 91.856 129.172C91.856 130.756 91.064 131.656 89.282 131.656H85.844V126.796H89.012ZM89.372 137.884H85.844V132.736H89.552C91.334 132.736 92.432 133.69 92.432 135.382C92.432 136.948 91.55 137.884 89.372 137.884ZM99.6047 129.316C98.7587 129.316 97.9127 129.748 97.4087 130.648V129.46H96.1847V139H97.4087V133.132C97.4087 131.206 98.2367 130.396 99.3347 130.396C100.307 130.396 100.631 131.026 100.631 131.98V132.916L101.747 132.7V131.764C101.747 130.144 100.847 129.316 99.6047 129.316ZM109.533 129.46V134.824C109.533 136.696 108.813 138.046 107.121 138.046C105.789 138.046 104.997 137.326 104.997 135.76V129.46H103.773V135.868C103.773 137.938 104.907 139.144 106.779 139.144C107.949 139.144 108.957 138.568 109.533 137.542V139H110.757V129.46H109.533ZM119.72 139H121.268L117.038 133.456L121.196 129.46H119.576L115.04 133.942V125.68H113.816V139H115.04V135.382L116.21 134.266L119.72 139ZM124.882 136.624V130.468H127.978V129.46H124.882V126.688L123.658 127.408V129.46H121.858V130.468H123.658V136.588C123.658 138.28 124.738 139.144 126.034 139.144C126.88 139.144 127.564 138.838 128.194 138.1L127.546 137.38C127.096 137.848 126.718 138.064 126.142 138.064C125.548 138.064 124.882 137.74 124.882 136.624ZM141.48 125.68V131.188C140.904 129.982 139.824 129.316 138.492 129.316C135.936 129.316 134.28 131.386 134.28 134.32C134.28 137.092 135.918 139.126 138.348 139.126C139.59 139.126 140.85 138.442 141.48 137.218V139H142.704V125.68H141.48ZM138.474 138.046C136.71 138.046 135.54 136.678 135.54 134.266C135.54 131.764 136.71 130.396 138.492 130.396C140.4 130.396 141.48 131.8 141.48 134.284C141.48 136.624 140.382 138.046 138.474 138.046ZM152.236 136.3C151.786 137.236 150.94 138.064 149.5 138.064C147.664 138.064 146.458 136.984 146.35 134.446H153.028L153.064 133.384C153.064 130.792 151.3 129.316 149.248 129.316C146.764 129.316 145.108 131.314 145.108 134.104C145.108 137.146 146.692 139.144 149.374 139.144C151.498 139.144 152.686 137.956 153.136 136.804L152.236 136.3ZM149.248 130.396C150.652 130.396 151.912 131.296 151.858 133.438H146.35C146.512 131.17 147.808 130.396 149.248 130.396ZM157.384 136.624V130.468H160.48V129.46H157.384V126.688L156.16 127.408V129.46H154.36V130.468H156.16V136.588C156.16 138.28 157.24 139.144 158.536 139.144C159.382 139.144 160.066 138.838 160.696 138.1L160.048 137.38C159.598 137.848 159.22 138.064 158.644 138.064C158.05 138.064 157.384 137.74 157.384 136.624ZM164.345 136.624V130.468H167.441V129.46H164.345V126.688L163.121 127.408V129.46H161.321V130.468H163.121V136.588C163.121 138.28 164.201 139.144 165.497 139.144C166.343 139.144 167.027 138.838 167.657 138.1L167.009 137.38C166.559 137.848 166.181 138.064 165.605 138.064C165.011 138.064 164.345 137.74 164.345 136.624ZM175.72 136.3C175.27 137.236 174.424 138.064 172.984 138.064C171.148 138.064 169.942 136.984 169.834 134.446H176.512L176.548 133.384C176.548 130.792 174.784 129.316 172.732 129.316C170.248 129.316 168.592 131.314 168.592 134.104C168.592 137.146 170.176 139.144 172.858 139.144C174.982 139.144 176.17 137.956 176.62 136.804L175.72 136.3ZM172.732 130.396C174.136 130.396 175.396 131.296 175.342 133.438H169.834C169.996 131.17 171.292 130.396 172.732 130.396ZM185.649 136.624V130.468H188.745V129.46H185.649V126.688L184.425 127.408V129.46H182.625V130.468H184.425V136.588C184.425 138.28 185.505 139.144 186.801 139.144C187.647 139.144 188.331 138.838 188.961 138.1L188.313 137.38C187.863 137.848 187.485 138.064 186.909 138.064C186.315 138.064 185.649 137.74 185.649 136.624ZM197.025 136.3C196.575 137.236 195.729 138.064 194.289 138.064C192.453 138.064 191.247 136.984 191.139 134.446H197.817L197.853 133.384C197.853 130.792 196.089 129.316 194.037 129.316C191.553 129.316 189.897 131.314 189.897 134.104C189.897 137.146 191.481 139.144 194.163 139.144C196.287 139.144 197.475 137.956 197.925 136.804L197.025 136.3ZM194.037 130.396C195.441 130.396 196.701 131.296 196.647 133.438H191.139C191.301 131.17 192.597 130.396 194.037 130.396ZM206.381 139H207.929L203.699 133.456L207.857 129.46H206.237L201.701 133.942V125.68H200.477V139H201.701V135.382L202.871 134.266L206.381 139ZM208.973 131.944C208.973 133.222 209.891 134.104 211.637 134.464L213.185 134.788C214.445 135.058 214.949 135.544 214.949 136.444C214.949 137.416 213.977 138.064 212.501 138.064C211.097 138.064 210.107 137.524 209.657 136.516L208.613 136.948C209.261 138.388 210.611 139.144 212.537 139.144C214.661 139.144 216.137 137.992 216.137 136.336C216.137 134.914 215.165 134.014 213.077 133.6L211.817 133.348C210.683 133.114 210.161 132.628 210.161 131.836C210.161 130.954 211.025 130.396 212.357 130.396C213.581 130.396 214.463 130.882 214.841 131.8L215.849 131.404C215.453 130.144 214.121 129.316 212.393 129.316C210.395 129.316 208.973 130.432 208.973 131.944ZM220.278 136.624V130.468H223.374V129.46H220.278V126.688L219.054 127.408V129.46H217.254V130.468H219.054V136.588C219.054 138.28 220.134 139.144 221.43 139.144C222.276 139.144 222.96 138.838 223.59 138.1L222.942 137.38C222.492 137.848 222.114 138.064 221.538 138.064C220.944 138.064 220.278 137.74 220.278 136.624ZM227.239 128.128C227.239 126.958 227.905 126.58 228.535 126.58C229.039 126.58 229.471 126.832 229.759 127.264L230.497 126.526C230.047 125.806 229.255 125.536 228.571 125.536C227.095 125.536 226.015 126.472 226.015 128.128V129.46H224.215V130.468H226.015V139H227.239V130.468H229.903V129.46H227.239V128.128ZM237.736 136.3C237.286 137.236 236.44 138.064 235 138.064C233.164 138.064 231.958 136.984 231.85 134.446H238.528L238.564 133.384C238.564 130.792 236.8 129.316 234.748 129.316C232.264 129.316 230.608 131.314 230.608 134.104C230.608 137.146 232.192 139.144 234.874 139.144C236.998 139.144 238.186 137.956 238.636 136.804L237.736 136.3ZM234.748 130.396C236.152 130.396 237.412 131.296 237.358 133.438H231.85C232.012 131.17 233.308 130.396 234.748 130.396ZM244.14 138.964V137.884C243.96 137.938 243.762 137.956 243.564 137.956C242.808 137.956 242.376 137.542 242.376 136.732V125.68H241.152V136.732C241.152 138.136 241.854 139.072 243.348 139.072C243.618 139.072 243.852 139.036 244.14 138.964ZM248.104 136.624V130.468H251.2V129.46H248.104V126.688L246.88 127.408V129.46H245.08V130.468H246.88V136.588C246.88 138.28 247.96 139.144 249.256 139.144C250.102 139.144 250.786 138.838 251.416 138.1L250.768 137.38C250.318 137.848 249.94 138.064 249.364 138.064C248.77 138.064 248.104 137.74 248.104 136.624ZM259.48 136.3C259.03 137.236 258.184 138.064 256.744 138.064C254.908 138.064 253.702 136.984 253.594 134.446H260.272L260.308 133.384C260.308 130.792 258.544 129.316 256.492 129.316C254.008 129.316 252.352 131.314 252.352 134.104C252.352 137.146 253.936 139.144 256.618 139.144C258.742 139.144 259.93 137.956 260.38 136.804L259.48 136.3ZM256.492 130.396C257.896 130.396 259.156 131.296 259.102 133.438H253.594C253.756 131.17 255.052 130.396 256.492 130.396ZM264.628 136.624V130.468H267.724V129.46H264.628V126.688L263.404 127.408V129.46H261.604V130.468H263.404V136.588C263.404 138.28 264.484 139.144 265.78 139.144C266.626 139.144 267.31 138.838 267.94 138.1L267.292 137.38C266.842 137.848 266.464 138.064 265.888 138.064C265.294 138.064 264.628 137.74 264.628 136.624ZM276.546 136.624V130.468H279.642V129.46H276.546V126.688L275.322 127.408V129.46H273.522V130.468H275.322V136.588C275.322 138.28 276.402 139.144 277.698 139.144C278.544 139.144 279.228 138.838 279.858 138.1L279.21 137.38C278.76 137.848 278.382 138.064 277.806 138.064C277.212 138.064 276.546 137.74 276.546 136.624ZM282.562 127.732C283.156 127.732 283.642 127.264 283.642 126.652C283.642 126.04 283.156 125.572 282.562 125.572C281.968 125.572 281.482 126.04 281.482 126.652C281.482 127.264 281.968 127.732 282.562 127.732ZM281.95 139H283.174V129.46H281.95V139ZM289.263 138.964V137.884C289.083 137.938 288.885 137.956 288.687 137.956C287.931 137.956 287.499 137.542 287.499 136.732V125.68H286.275V136.732C286.275 138.136 286.977 139.072 288.471 139.072C288.741 139.072 288.975 139.036 289.263 138.964ZM299.503 128.452C300.673 128.452 301.627 127.588 301.627 126.4C301.627 125.212 300.673 124.348 299.503 124.348C298.333 124.348 297.379 125.212 297.379 126.4C297.379 127.588 298.333 128.452 299.503 128.452ZM299.503 125.176C300.187 125.176 300.727 125.608 300.727 126.4C300.727 127.21 300.187 127.624 299.503 127.624C298.819 127.624 298.279 127.21 298.279 126.4C298.279 125.608 298.819 125.176 299.503 125.176ZM303.211 139C302.995 138.352 302.815 137.38 302.815 136.3V132.376C302.815 130.738 301.825 129.316 299.467 129.316C297.793 129.316 296.335 130.072 295.615 132.088L296.695 132.412C297.199 130.954 298.207 130.432 299.395 130.432C300.871 130.432 301.627 131.278 301.627 132.52V133.78C300.853 133.51 300.097 133.42 299.323 133.42C297.361 133.42 295.597 134.446 295.597 136.408C295.597 138.046 296.875 139.144 298.567 139.144C300.115 139.144 301.357 138.244 301.843 137.128C301.843 137.848 301.951 138.478 302.095 139H303.211ZM301.627 135.04C301.627 137.362 300.025 138.1 298.783 138.1C297.631 138.1 296.821 137.488 296.821 136.336C296.821 135.076 297.955 134.428 299.395 134.428C300.133 134.428 300.889 134.518 301.627 134.824V135.04ZM314.907 129.334C313.665 129.334 312.405 130.018 311.775 131.242V125.68H310.551V139H311.775V137.272C312.351 138.478 313.431 139.144 314.763 139.144C317.319 139.144 318.975 137.074 318.975 134.14C318.975 131.368 317.337 129.334 314.907 129.334ZM314.763 138.064C312.855 138.064 311.775 136.66 311.775 134.176C311.775 131.836 312.873 130.414 314.781 130.414C316.545 130.414 317.715 131.782 317.715 134.194C317.715 136.696 316.545 138.064 314.763 138.064ZM327.982 136.3C327.532 137.236 326.686 138.064 325.246 138.064C323.41 138.064 322.204 136.984 322.096 134.446H328.774L328.81 133.384C328.81 130.792 327.046 129.316 324.994 129.316C322.51 129.316 320.854 131.314 320.854 134.104C320.854 137.146 322.438 139.144 325.12 139.144C327.244 139.144 328.432 137.956 328.882 136.804L327.982 136.3ZM324.994 130.396C326.398 130.396 327.658 131.296 327.604 133.438H322.096C322.258 131.17 323.554 130.396 324.994 130.396ZM330.93 131.944C330.93 133.222 331.848 134.104 333.594 134.464L335.142 134.788C336.402 135.058 336.906 135.544 336.906 136.444C336.906 137.416 335.934 138.064 334.458 138.064C333.054 138.064 332.064 137.524 331.614 136.516L330.57 136.948C331.218 138.388 332.568 139.144 334.494 139.144C336.618 139.144 338.094 137.992 338.094 136.336C338.094 134.914 337.122 134.014 335.034 133.6L333.774 133.348C332.64 133.114 332.118 132.628 332.118 131.836C332.118 130.954 332.982 130.396 334.314 130.396C335.538 130.396 336.42 130.882 336.798 131.8L337.806 131.404C337.41 130.144 336.078 129.316 334.35 129.316C332.352 129.316 330.93 130.432 330.93 131.944ZM346.443 139H347.991L343.761 133.456L347.919 129.46H346.299L341.763 133.942V125.68H340.539V139H341.763V135.382L342.933 134.266L346.443 139ZM353.292 129.316C352.446 129.316 351.6 129.748 351.096 130.648V129.46H349.872V139H351.096V133.132C351.096 131.206 351.924 130.396 353.022 130.396C353.994 130.396 354.318 131.026 354.318 131.98V132.916L355.434 132.7V131.764C355.434 130.144 354.534 129.316 353.292 129.316ZM357.529 125.752V127.588H359.401V125.752H357.529ZM357.853 139H359.077V129.46H357.853V139ZM368.261 129.46L365.273 137.65L362.285 129.46H360.953L364.697 139H365.777L369.521 129.46H368.261ZM377.552 136.3C377.102 137.236 376.256 138.064 374.816 138.064C372.98 138.064 371.774 136.984 371.666 134.446H378.344L378.38 133.384C378.38 130.792 376.616 129.316 374.564 129.316C372.08 129.316 370.424 131.314 370.424 134.104C370.424 137.146 372.008 139.144 374.69 139.144C376.814 139.144 378.002 137.956 378.452 136.804L377.552 136.3ZM374.564 130.396C375.968 130.396 377.228 131.296 377.174 133.438H371.666C371.828 131.17 373.124 130.396 374.564 130.396ZM389.605 129.316C388.453 129.316 387.409 129.892 386.833 130.936V125.68H385.609V139H386.833V133.636C386.833 131.728 387.607 130.432 389.281 130.432C390.613 130.432 391.405 131.08 391.405 132.808V139H392.629V132.628C392.629 130.486 391.513 129.316 389.605 129.316ZM401.484 129.46L398.496 137.65L395.508 129.46H394.176L397.92 139H399L402.744 129.46H401.484ZM411.369 139C411.153 138.352 410.973 137.38 410.973 136.3V132.376C410.973 130.738 409.983 129.316 407.625 129.316C405.951 129.316 404.493 130.072 403.773 132.088L404.853 132.412C405.357 130.954 406.365 130.432 407.553 130.432C409.029 130.432 409.785 131.278 409.785 132.52V133.78C409.011 133.51 408.255 133.42 407.481 133.42C405.519 133.42 403.755 134.446 403.755 136.408C403.755 138.046 405.033 139.144 406.725 139.144C408.273 139.144 409.515 138.244 410.001 137.128C410.001 137.848 410.109 138.478 410.253 139H411.369ZM409.785 135.04C409.785 137.362 408.183 138.1 406.941 138.1C405.789 138.1 404.979 137.488 404.979 136.336C404.979 135.076 406.113 134.428 407.553 134.428C408.291 134.428 409.047 134.518 409.785 134.824V135.04ZM424.757 129.46L421.769 137.65L418.781 129.46H417.449L421.193 139H422.273L426.017 129.46H424.757ZM434.642 139C434.426 138.352 434.246 137.38 434.246 136.3V132.376C434.246 130.738 433.256 129.316 430.898 129.316C429.224 129.316 427.766 130.072 427.046 132.088L428.126 132.412C428.63 130.954 429.638 130.432 430.826 130.432C432.302 130.432 433.058 131.278 433.058 132.52V133.78C432.284 133.51 431.528 133.42 430.754 133.42C428.792 133.42 427.028 134.446 427.028 136.408C427.028 138.046 428.306 139.144 429.998 139.144C431.546 139.144 432.788 138.244 433.274 137.128C433.274 137.848 433.382 138.478 433.526 139H434.642ZM433.058 135.04C433.058 137.362 431.456 138.1 430.214 138.1C429.062 138.1 428.252 137.488 428.252 136.336C428.252 135.076 429.386 134.428 430.826 134.428C431.564 134.428 432.32 134.518 433.058 134.824V135.04ZM440.761 129.316C439.915 129.316 439.069 129.748 438.565 130.648V129.46H437.341V139H438.565V133.132C438.565 131.206 439.393 130.396 440.491 130.396C441.463 130.396 441.787 131.026 441.787 131.98V132.916L442.903 132.7V131.764C442.903 130.144 442.003 129.316 440.761 129.316ZM444.502 131.944C444.502 133.222 445.42 134.104 447.166 134.464L448.714 134.788C449.974 135.058 450.478 135.544 450.478 136.444C450.478 137.416 449.506 138.064 448.03 138.064C446.626 138.064 445.636 137.524 445.186 136.516L444.142 136.948C444.79 138.388 446.14 139.144 448.066 139.144C450.19 139.144 451.666 137.992 451.666 136.336C451.666 134.914 450.694 134.014 448.606 133.6L447.346 133.348C446.212 133.114 445.69 132.628 445.69 131.836C445.69 130.954 446.554 130.396 447.886 130.396C449.11 130.396 449.992 130.882 450.37 131.8L451.378 131.404C450.982 130.144 449.65 129.316 447.922 129.316C445.924 129.316 444.502 130.432 444.502 131.944ZM457.063 138.964V137.884C456.883 137.938 456.685 137.956 456.487 137.956C455.731 137.956 455.299 137.542 455.299 136.732V125.68H454.075V136.732C454.075 138.136 454.777 139.072 456.271 139.072C456.541 139.072 456.775 139.036 457.063 138.964ZM459.908 127.732C460.502 127.732 460.988 127.264 460.988 126.652C460.988 126.04 460.502 125.572 459.908 125.572C459.314 125.572 458.828 126.04 458.828 126.652C458.828 127.264 459.314 127.732 459.908 127.732ZM459.296 139H460.52V129.46H459.296V139ZM467.616 129.316C466.464 129.316 465.42 129.892 464.844 130.936V129.46H463.62V139H464.844V133.636C464.844 131.728 465.618 130.432 467.292 130.432C468.624 130.432 469.416 131.08 469.416 132.808V139H470.64V132.628C470.64 130.486 469.524 129.316 467.616 129.316ZM482.155 130.468V129.46H479.419V130.126C478.843 129.64 478.087 129.316 477.097 129.316C474.577 129.316 473.299 131.098 473.299 132.808C473.299 133.978 474.001 135.31 475.261 135.814C474.091 136.12 473.389 136.858 473.389 137.704C473.389 138.694 474.181 139.324 475.513 139.324H479.617C480.481 139.324 480.769 139.72 480.769 140.26C480.769 141.412 479.113 142.006 477.133 142.006C475.531 142.006 474.127 141.7 473.461 140.134L472.471 140.584C473.047 142.258 474.721 143.032 477.133 143.032C479.815 143.032 481.993 142.042 481.993 140.152C481.993 138.964 481.201 138.208 479.653 138.208H475.783C474.991 138.208 474.613 137.866 474.613 137.38C474.613 136.75 475.387 136.336 476.467 136.336H476.881C479.563 136.336 480.823 134.554 480.823 132.808C480.823 132.106 480.571 131.386 480.103 130.81V130.468H482.155ZM477.079 135.328C475.369 135.328 474.505 134.14 474.505 132.808C474.505 131.494 475.369 130.36 477.079 130.36C478.771 130.36 479.617 131.476 479.617 132.808C479.617 134.158 478.771 135.328 477.079 135.328ZM489.859 136.3C489.409 137.236 488.563 138.064 487.123 138.064C485.287 138.064 484.081 136.984 483.973 134.446H490.651L490.687 133.384C490.687 130.792 488.923 129.316 486.871 129.316C484.387 129.316 482.731 131.314 482.731 134.104C482.731 137.146 484.315 139.144 486.997 139.144C489.121 139.144 490.309 137.956 490.759 136.804L489.859 136.3ZM486.871 130.396C488.275 130.396 489.535 131.296 489.481 133.438H483.973C484.135 131.17 485.431 130.396 486.871 130.396ZM497.271 129.316C496.119 129.316 495.075 129.892 494.499 130.936V129.46H493.275V139H494.499V133.636C494.499 131.728 495.273 130.432 496.947 130.432C498.279 130.432 499.071 131.08 499.071 132.808V139H500.295V132.628C500.295 130.486 499.179 129.316 497.271 129.316ZM511.879 129.316C510.727 129.316 509.683 129.892 509.107 130.936V125.68H507.883V139H509.107V133.636C509.107 131.728 509.881 130.432 511.555 130.432C512.887 130.432 513.679 131.08 513.679 132.808V139H514.903V132.628C514.903 130.486 513.787 129.316 511.879 129.316ZM524.959 139C524.743 138.352 524.563 137.38 524.563 136.3V132.376C524.563 130.738 523.573 129.316 521.215 129.316C519.541 129.316 518.083 130.072 517.363 132.088L518.443 132.412C518.947 130.954 519.955 130.432 521.143 130.432C522.619 130.432 523.375 131.278 523.375 132.52V133.78C522.601 133.51 521.845 133.42 521.071 133.42C519.109 133.42 517.345 134.446 517.345 136.408C517.345 138.046 518.623 139.144 520.315 139.144C521.863 139.144 523.105 138.244 523.591 137.128C523.591 137.848 523.699 138.478 523.843 139H524.959ZM523.375 135.04C523.375 137.362 521.773 138.1 520.531 138.1C519.379 138.1 518.569 137.488 518.569 136.336C518.569 135.076 519.703 134.428 521.143 134.428C521.881 134.428 522.637 134.518 523.375 134.824V135.04ZM531.653 129.316C530.501 129.316 529.457 129.892 528.881 130.936V129.46H527.657V139H528.881V133.636C528.881 131.728 529.655 130.432 531.329 130.432C532.661 130.432 533.453 131.08 533.453 132.808V139H534.677V132.628C534.677 130.486 533.561 129.316 531.653 129.316ZM544.212 125.68V131.188C543.636 129.982 542.556 129.316 541.224 129.316C538.668 129.316 537.012 131.386 537.012 134.32C537.012 137.092 538.65 139.126 541.08 139.126C542.322 139.126 543.582 138.442 544.212 137.218V139H545.436V125.68H544.212ZM541.206 138.046C539.442 138.046 538.272 136.678 538.272 134.266C538.272 131.764 539.442 130.396 541.224 130.396C543.132 130.396 544.212 131.8 544.212 134.284C544.212 136.624 543.114 138.046 541.206 138.046ZM551.44 138.964V137.884C551.26 137.938 551.062 137.956 550.864 137.956C550.108 137.956 549.676 137.542 549.676 136.732V125.68H548.452V136.732C548.452 138.136 549.154 139.072 550.648 139.072C550.918 139.072 551.152 139.036 551.44 138.964ZM559.908 136.3C559.458 137.236 558.612 138.064 557.172 138.064C555.336 138.064 554.13 136.984 554.022 134.446H560.7L560.736 133.384C560.736 130.792 558.972 129.316 556.92 129.316C554.436 129.316 552.78 131.314 552.78 134.104C552.78 137.146 554.364 139.144 557.046 139.144C559.17 139.144 560.358 137.956 560.808 136.804L559.908 136.3ZM556.92 130.396C558.324 130.396 559.584 131.296 559.53 133.438H554.022C554.184 131.17 555.48 130.396 556.92 130.396ZM566.743 129.316C565.897 129.316 565.051 129.748 564.547 130.648V129.46H563.323V139H564.547V133.132C564.547 131.206 565.375 130.396 566.473 130.396C567.445 130.396 567.769 131.026 567.769 131.98V132.916L568.885 132.7V131.764C568.885 130.144 567.985 129.316 566.743 129.316ZM88.184 166.144C90.542 166.144 92.432 164.2 92.432 161.212C92.432 158.26 90.56 156.316 88.184 156.316C85.808 156.316 83.936 158.26 83.936 161.212C83.936 164.2 85.826 166.144 88.184 166.144ZM88.184 165.064C86.546 165.064 85.196 163.768 85.196 161.212C85.196 158.674 86.564 157.396 88.184 157.396C89.804 157.396 91.172 158.674 91.172 161.212C91.172 163.768 89.822 165.064 88.184 165.064ZM104.423 156.316C103.199 156.316 102.101 157 101.561 158.26C101.219 157.018 100.265 156.316 98.8431 156.316C97.7271 156.316 96.7191 156.892 96.1431 157.954V156.46H94.9191V166H96.1431V160.636C96.1431 158.728 96.8451 157.432 98.5191 157.432C99.7611 157.432 100.499 158.08 100.499 159.628V166H101.723V160.636C101.723 158.728 102.425 157.432 104.099 157.432C105.341 157.432 106.079 158.08 106.079 159.628V166H107.303V159.448C107.303 157.468 106.241 156.316 104.423 156.316ZM110.175 163.984V166H112.119V163.984H110.175ZM119.793 166H124.149C127.443 166 129.981 163.282 129.981 159.268C129.981 155.254 127.443 152.68 124.149 152.68H119.793V166ZM121.053 164.848V153.832H123.861C126.651 153.832 128.685 155.596 128.685 159.268C128.685 162.976 126.669 164.848 123.897 164.848H121.053ZM137.975 156.46V161.824C137.975 163.696 137.255 165.046 135.563 165.046C134.231 165.046 133.439 164.326 133.439 162.76V156.46H132.215V162.868C132.215 164.938 133.349 166.144 135.221 166.144C136.391 166.144 137.399 165.568 137.975 164.542V166H139.199V156.46H137.975ZM152.767 166H154.315L150.085 160.456L154.243 156.46H152.623L148.087 160.942V152.68H146.863V166H148.087V162.382L149.257 161.266L152.767 166ZM162.762 166C162.546 165.352 162.366 164.38 162.366 163.3V159.376C162.366 157.738 161.376 156.316 159.018 156.316C157.344 156.316 155.886 157.072 155.166 159.088L156.246 159.412C156.75 157.954 157.758 157.432 158.946 157.432C160.422 157.432 161.178 158.278 161.178 159.52V160.78C160.404 160.51 159.648 160.42 158.874 160.42C156.912 160.42 155.148 161.446 155.148 163.408C155.148 165.046 156.426 166.144 158.118 166.144C159.666 166.144 160.908 165.244 161.394 164.128C161.394 164.848 161.502 165.478 161.646 166H162.762ZM161.178 162.04C161.178 164.362 159.576 165.1 158.334 165.1C157.182 165.1 156.372 164.488 156.372 163.336C156.372 162.076 157.506 161.428 158.946 161.428C159.684 161.428 160.44 161.518 161.178 161.824V162.04ZM169.456 156.316C168.304 156.316 167.26 156.892 166.684 157.936V156.46H165.46V166H166.684V160.636C166.684 158.728 167.458 157.432 169.132 157.432C170.464 157.432 171.256 158.08 171.256 159.808V166H172.48V159.628C172.48 157.486 171.364 156.316 169.456 156.316ZM184.424 156.334C183.182 156.334 181.922 157.018 181.292 158.242V152.68H180.068V166H181.292V164.272C181.868 165.478 182.948 166.144 184.28 166.144C186.836 166.144 188.492 164.074 188.492 161.14C188.492 158.368 186.854 156.334 184.424 156.334ZM184.28 165.064C182.372 165.064 181.292 163.66 181.292 161.176C181.292 158.836 182.39 157.414 184.298 157.414C186.062 157.414 187.232 158.782 187.232 161.194C187.232 163.696 186.062 165.064 184.28 165.064ZM194.404 156.316C193.558 156.316 192.712 156.748 192.208 157.648V156.46H190.984V166H192.208V160.132C192.208 158.206 193.036 157.396 194.134 157.396C195.106 157.396 195.43 158.026 195.43 158.98V159.916L196.546 159.7V158.764C196.546 157.144 195.646 156.316 194.404 156.316ZM204.332 156.46V161.824C204.332 163.696 203.612 165.046 201.92 165.046C200.588 165.046 199.796 164.326 199.796 162.76V156.46H198.572V162.868C198.572 164.938 199.706 166.144 201.578 166.144C202.748 166.144 203.756 165.568 204.332 164.542V166H205.556V156.46H204.332ZM214.519 166H216.067L211.837 160.456L215.995 156.46H214.375L209.839 160.942V152.68H208.615V166H209.839V162.382L211.009 161.266L214.519 166ZM223.919 163.3C223.469 164.236 222.623 165.064 221.183 165.064C219.347 165.064 218.141 163.984 218.033 161.446H224.711L224.747 160.384C224.747 157.792 222.983 156.316 220.931 156.316C218.447 156.316 216.791 158.314 216.791 161.104C216.791 164.146 218.375 166.144 221.057 166.144C223.181 166.144 224.369 164.956 224.819 163.804L223.919 163.3ZM220.931 157.396C222.335 157.396 223.595 158.296 223.541 160.438H218.033C218.195 158.17 219.491 157.396 220.931 157.396ZM231.473 158.944C231.473 160.222 232.391 161.104 234.137 161.464L235.685 161.788C236.945 162.058 237.449 162.544 237.449 163.444C237.449 164.416 236.477 165.064 235.001 165.064C233.597 165.064 232.607 164.524 232.157 163.516L231.113 163.948C231.761 165.388 233.111 166.144 235.037 166.144C237.161 166.144 238.637 164.992 238.637 163.336C238.637 161.914 237.665 161.014 235.577 160.6L234.317 160.348C233.183 160.114 232.661 159.628 232.661 158.836C232.661 157.954 233.525 157.396 234.857 157.396C236.081 157.396 236.963 157.882 237.341 158.8L238.349 158.404C237.953 157.144 236.621 156.316 234.893 156.316C232.895 156.316 231.473 157.432 231.473 158.944ZM244.096 155.452C245.266 155.452 246.22 154.588 246.22 153.4C246.22 152.212 245.266 151.348 244.096 151.348C242.926 151.348 241.972 152.212 241.972 153.4C241.972 154.588 242.926 155.452 244.096 155.452ZM244.096 152.176C244.78 152.176 245.32 152.608 245.32 153.4C245.32 154.21 244.78 154.624 244.096 154.624C243.412 154.624 242.872 154.21 242.872 153.4C242.872 152.608 243.412 152.176 244.096 152.176ZM247.804 166C247.588 165.352 247.408 164.38 247.408 163.3V159.376C247.408 157.738 246.418 156.316 244.06 156.316C242.386 156.316 240.928 157.072 240.208 159.088L241.288 159.412C241.792 157.954 242.8 157.432 243.988 157.432C245.464 157.432 246.22 158.278 246.22 159.52V160.78C245.446 160.51 244.69 160.42 243.916 160.42C241.954 160.42 240.19 161.446 240.19 163.408C240.19 165.046 241.468 166.144 243.16 166.144C244.708 166.144 245.95 165.244 246.436 164.128C246.436 164.848 246.544 165.478 246.688 166H247.804ZM246.22 162.04C246.22 164.362 244.618 165.1 243.376 165.1C242.224 165.1 241.414 164.488 241.414 163.336C241.414 162.076 242.548 161.428 243.988 161.428C244.726 161.428 245.482 161.518 246.22 161.824V162.04ZM264.613 156.316C263.389 156.316 262.291 157 261.751 158.26C261.409 157.018 260.455 156.316 259.033 156.316C257.917 156.316 256.909 156.892 256.333 157.954V156.46H255.109V166H256.333V160.636C256.333 158.728 257.035 157.432 258.709 157.432C259.951 157.432 260.689 158.08 260.689 159.628V166H261.913V160.636C261.913 158.728 262.615 157.432 264.289 157.432C265.531 157.432 266.269 158.08 266.269 159.628V166H267.493V159.448C267.493 157.468 266.431 156.316 264.613 156.316ZM277.547 166C277.331 165.352 277.151 164.38 277.151 163.3V159.376C277.151 157.738 276.161 156.316 273.803 156.316C272.129 156.316 270.671 157.072 269.951 159.088L271.031 159.412C271.535 157.954 272.543 157.432 273.731 157.432C275.207 157.432 275.963 158.278 275.963 159.52V160.78C275.189 160.51 274.433 160.42 273.659 160.42C271.697 160.42 269.933 161.446 269.933 163.408C269.933 165.046 271.211 166.144 272.903 166.144C274.451 166.144 275.693 165.244 276.179 164.128C276.179 164.848 276.287 165.478 276.431 166H277.547ZM275.963 162.04C275.963 164.362 274.361 165.1 273.119 165.1C271.967 165.1 271.157 164.488 271.157 163.336C271.157 162.076 272.291 161.428 273.731 161.428C274.469 161.428 275.225 161.518 275.963 161.824V162.04ZM284.241 156.316C283.089 156.316 282.045 156.892 281.469 157.936V156.46H280.245V166H281.469V160.636C281.469 158.728 282.243 157.432 283.917 157.432C285.249 157.432 286.041 158.08 286.041 159.808V166H287.265V159.628C287.265 157.486 286.149 156.316 284.241 156.316ZM298.78 157.468V156.46H296.044V157.126C295.468 156.64 294.712 156.316 293.722 156.316C291.202 156.316 289.924 158.098 289.924 159.808C289.924 160.978 290.626 162.31 291.886 162.814C290.716 163.12 290.014 163.858 290.014 164.704C290.014 165.694 290.806 166.324 292.138 166.324H296.242C297.106 166.324 297.394 166.72 297.394 167.26C297.394 168.412 295.738 169.006 293.758 169.006C292.156 169.006 290.752 168.7 290.086 167.134L289.096 167.584C289.672 169.258 291.346 170.032 293.758 170.032C296.44 170.032 298.618 169.042 298.618 167.152C298.618 165.964 297.826 165.208 296.278 165.208H292.408C291.616 165.208 291.238 164.866 291.238 164.38C291.238 163.75 292.012 163.336 293.092 163.336H293.506C296.188 163.336 297.448 161.554 297.448 159.808C297.448 159.106 297.196 158.386 296.728 157.81V157.468H298.78ZM293.704 162.328C291.994 162.328 291.13 161.14 291.13 159.808C291.13 158.494 291.994 157.36 293.704 157.36C295.396 157.36 296.242 158.476 296.242 159.808C296.242 161.158 295.396 162.328 293.704 162.328ZM306.484 163.3C306.034 164.236 305.188 165.064 303.748 165.064C301.912 165.064 300.706 163.984 300.598 161.446H307.276L307.312 160.384C307.312 157.792 305.548 156.316 303.496 156.316C301.012 156.316 299.356 158.314 299.356 161.104C299.356 164.146 300.94 166.144 303.622 166.144C305.746 166.144 306.934 164.956 307.384 163.804L306.484 163.3ZM303.496 157.396C304.9 157.396 306.16 158.296 306.106 160.438H300.598C300.76 158.17 302.056 157.396 303.496 157.396ZM317.493 165.964V164.884C317.313 164.938 317.115 164.956 316.917 164.956C316.161 164.956 315.729 164.542 315.729 163.732V152.68H314.505V163.732C314.505 165.136 315.207 166.072 316.701 166.072C316.971 166.072 317.205 166.036 317.493 165.964ZM320.338 154.732C320.932 154.732 321.418 154.264 321.418 153.652C321.418 153.04 320.932 152.572 320.338 152.572C319.744 152.572 319.258 153.04 319.258 153.652C319.258 154.264 319.744 154.732 320.338 154.732ZM319.726 166H320.95V156.46H319.726V166ZM328.046 156.316C326.894 156.316 325.85 156.892 325.274 157.936V156.46H324.05V166H325.274V160.636C325.274 158.728 326.048 157.432 327.722 157.432C329.054 157.432 329.846 158.08 329.846 159.808V166H331.07V159.628C331.07 157.486 329.954 156.316 328.046 156.316ZM333.621 152.752V154.588H335.493V152.752H333.621ZM333.117 169.906C334.467 169.906 335.169 169.078 335.169 167.458V156.46H333.945V167.386C333.945 168.214 333.783 168.79 332.937 168.79C332.775 168.79 332.541 168.772 332.289 168.682L332.181 169.762C332.487 169.852 332.793 169.906 333.117 169.906ZM344.787 163.3C344.337 164.236 343.491 165.064 342.051 165.064C340.215 165.064 339.009 163.984 338.901 161.446H345.579L345.615 160.384C345.615 157.792 343.851 156.316 341.799 156.316C339.315 156.316 337.659 158.314 337.659 161.104C337.659 164.146 339.243 166.144 341.925 166.144C344.049 166.144 345.237 164.956 345.687 163.804L344.787 163.3ZM341.799 157.396C343.203 157.396 344.463 158.296 344.409 160.438H338.901C339.063 158.17 340.359 157.396 341.799 157.396ZM351.622 156.316C350.776 156.316 349.93 156.748 349.426 157.648V156.46H348.202V166H349.426V160.132C349.426 158.206 350.254 157.396 351.352 157.396C352.324 157.396 352.648 158.026 352.648 158.98V159.916L353.764 159.7V158.764C353.764 157.144 352.864 156.316 351.622 156.316ZM367.376 152.68V158.188C366.8 156.982 365.72 156.316 364.388 156.316C361.832 156.316 360.176 158.386 360.176 161.32C360.176 164.092 361.814 166.126 364.244 166.126C365.486 166.126 366.746 165.442 367.376 164.218V166H368.6V152.68H367.376ZM364.37 165.046C362.606 165.046 361.436 163.678 361.436 161.266C361.436 158.764 362.606 157.396 364.388 157.396C366.296 157.396 367.376 158.8 367.376 161.284C367.376 163.624 366.278 165.046 364.37 165.046ZM377.16 156.46V161.824C377.16 163.696 376.44 165.046 374.748 165.046C373.416 165.046 372.624 164.326 372.624 162.76V156.46H371.4V162.868C371.4 164.938 372.534 166.144 374.406 166.144C375.576 166.144 376.584 165.568 377.16 164.542V166H378.384V156.46H377.16ZM390.045 156.316C388.893 156.316 387.849 156.892 387.273 157.936V152.68H386.049V166H387.273V160.636C387.273 158.728 388.047 157.432 389.721 157.432C391.053 157.432 391.845 158.08 391.845 159.808V166H393.069V159.628C393.069 157.486 391.953 156.316 390.045 156.316ZM403.125 166C402.909 165.352 402.729 164.38 402.729 163.3V159.376C402.729 157.738 401.739 156.316 399.381 156.316C397.707 156.316 396.249 157.072 395.529 159.088L396.609 159.412C397.113 157.954 398.121 157.432 399.309 157.432C400.785 157.432 401.541 158.278 401.541 159.52V160.78C400.767 160.51 400.011 160.42 399.237 160.42C397.275 160.42 395.511 161.446 395.511 163.408C395.511 165.046 396.789 166.144 398.481 166.144C400.029 166.144 401.271 165.244 401.757 164.128C401.757 164.848 401.865 165.478 402.009 166H403.125ZM401.541 162.04C401.541 164.362 399.939 165.1 398.697 165.1C397.545 165.1 396.735 164.488 396.735 163.336C396.735 162.076 397.869 161.428 399.309 161.428C400.047 161.428 400.803 161.518 401.541 161.824V162.04ZM409.243 156.316C408.397 156.316 407.551 156.748 407.047 157.648V156.46H405.823V166H407.047V160.132C407.047 158.206 407.875 157.396 408.973 157.396C409.945 157.396 410.269 158.026 410.269 158.98V159.916L411.385 159.7V158.764C411.385 157.144 410.485 156.316 409.243 156.316ZM422.801 156.334C421.559 156.334 420.299 157.018 419.669 158.242V152.68H418.445V166H419.669V164.272C420.245 165.478 421.325 166.144 422.657 166.144C425.213 166.144 426.869 164.074 426.869 161.14C426.869 158.368 425.231 156.334 422.801 156.334ZM422.657 165.064C420.749 165.064 419.669 163.66 419.669 161.176C419.669 158.836 420.767 157.414 422.675 157.414C424.439 157.414 425.609 158.782 425.609 161.194C425.609 163.696 424.439 165.064 422.657 165.064ZM435.877 163.3C435.427 164.236 434.581 165.064 433.141 165.064C431.305 165.064 430.099 163.984 429.991 161.446H436.669L436.705 160.384C436.705 157.792 434.941 156.316 432.889 156.316C430.405 156.316 428.749 158.314 428.749 161.104C428.749 164.146 430.333 166.144 433.015 166.144C435.139 166.144 436.327 164.956 436.777 163.804L435.877 163.3ZM432.889 157.396C434.293 157.396 435.553 158.296 435.499 160.438H429.991C430.153 158.17 431.449 157.396 432.889 157.396ZM443.324 156.316C442.172 156.316 441.128 156.892 440.552 157.936V152.68H439.328V166H440.552V160.636C440.552 158.728 441.326 157.432 443 157.432C444.332 157.432 445.124 158.08 445.124 159.808V166H446.348V159.628C446.348 157.486 445.232 156.316 443.324 156.316ZM452.93 166.144C455.288 166.144 457.178 164.2 457.178 161.212C457.178 158.26 455.306 156.316 452.93 156.316C450.554 156.316 448.682 158.26 448.682 161.212C448.682 164.2 450.572 166.144 452.93 166.144ZM452.93 165.064C451.292 165.064 449.942 163.768 449.942 161.212C449.942 158.674 451.31 157.396 452.93 157.396C454.55 157.396 455.918 158.674 455.918 161.212C455.918 163.768 454.568 165.064 452.93 165.064ZM465.398 156.46L462.41 164.65L459.422 156.46H458.09L461.834 166H462.914L466.658 156.46H465.398ZM475.038 155.128C475.038 153.958 475.704 153.58 476.334 153.58C476.838 153.58 477.27 153.832 477.558 154.264L478.296 153.526C477.846 152.806 477.054 152.536 476.37 152.536C474.894 152.536 473.814 153.472 473.814 155.128V156.46H472.014V157.468H473.814V166H475.038V157.468H477.702V156.46H475.038V155.128ZM482.655 166.144C485.013 166.144 486.903 164.2 486.903 161.212C486.903 158.26 485.031 156.316 482.655 156.316C480.279 156.316 478.407 158.26 478.407 161.212C478.407 164.2 480.297 166.144 482.655 166.144ZM482.655 165.064C481.017 165.064 479.667 163.768 479.667 161.212C479.667 158.674 481.035 157.396 482.655 157.396C484.275 157.396 485.643 158.674 485.643 161.212C485.643 163.768 484.293 165.064 482.655 165.064ZM492.81 156.316C491.964 156.316 491.118 156.748 490.614 157.648V156.46H489.39V166H490.614V160.132C490.614 158.206 491.442 157.396 492.54 157.396C493.512 157.396 493.836 158.026 493.836 158.98V159.916L494.952 159.7V158.764C494.952 157.144 494.052 156.316 492.81 156.316ZM495.685 163.84C495.019 163.84 494.533 164.326 494.533 164.956C494.533 165.658 495.037 166.072 495.685 166.072C495.829 166.072 495.955 166.054 496.045 166.036C496.189 167.296 495.379 168.052 494.533 168.808L494.965 169.312C496.531 168.088 497.017 166.9 497.017 165.712C497.017 164.488 496.441 163.84 495.685 163.84ZM513.87 156.316C512.646 156.316 511.548 157 511.008 158.26C510.666 157.018 509.712 156.316 508.29 156.316C507.174 156.316 506.166 156.892 505.59 157.954V156.46H504.366V166H505.59V160.636C505.59 158.728 506.292 157.432 507.966 157.432C509.208 157.432 509.946 158.08 509.946 159.628V166H511.17V160.636C511.17 158.728 511.872 157.432 513.546 157.432C514.788 157.432 515.526 158.08 515.526 159.628V166H516.75V159.448C516.75 157.468 515.688 156.316 513.87 156.316ZM526.21 163.3C525.76 164.236 524.914 165.064 523.474 165.064C521.638 165.064 520.432 163.984 520.324 161.446H527.002L527.038 160.384C527.038 157.792 525.274 156.316 523.222 156.316C520.738 156.316 519.082 158.314 519.082 161.104C519.082 164.146 520.666 166.144 523.348 166.144C525.472 166.144 526.66 164.956 527.11 163.804L526.21 163.3ZM523.222 157.396C524.626 157.396 525.886 158.296 525.832 160.438H520.324C520.486 158.17 521.782 157.396 523.222 157.396ZM533.622 156.316C532.47 156.316 531.426 156.892 530.85 157.936V156.46H529.626V166H530.85V160.636C530.85 158.728 531.624 157.432 533.298 157.432C534.63 157.432 535.422 158.08 535.422 159.808V166H536.646V159.628C536.646 157.486 535.53 156.316 533.622 156.316ZM88.904 183.334C87.662 183.334 86.402 184.018 85.772 185.242V183.46H84.548V196.78H85.772V191.272C86.348 192.478 87.428 193.144 88.76 193.144C91.316 193.144 92.972 191.074 92.972 188.14C92.972 185.368 91.334 183.334 88.904 183.334ZM88.76 192.064C86.852 192.064 85.772 190.66 85.772 188.176C85.772 185.836 86.87 184.414 88.778 184.414C90.542 184.414 91.712 185.782 91.712 188.194C91.712 190.696 90.542 192.064 88.76 192.064ZM98.884 183.316C98.038 183.316 97.192 183.748 96.688 184.648V183.46H95.464V193H96.688V187.132C96.688 185.206 97.516 184.396 98.614 184.396C99.586 184.396 99.91 185.026 99.91 185.98V186.916L101.026 186.7V185.764C101.026 184.144 100.126 183.316 98.884 183.316ZM109.038 184.18L109.848 182.596H108.984L108.39 183.748C107.832 183.478 107.202 183.316 106.536 183.316C104.16 183.316 102.288 185.26 102.288 188.212C102.288 190.012 102.972 191.434 104.034 192.28L103.224 193.864H104.088L104.682 192.694C105.24 192.982 105.87 193.144 106.536 193.144C108.894 193.144 110.784 191.2 110.784 188.212C110.784 186.43 110.1 185.026 109.038 184.18ZM103.548 188.212C103.548 185.674 104.916 184.396 106.536 184.396C107.022 184.396 107.472 184.504 107.886 184.738L104.556 191.254C103.944 190.606 103.548 189.598 103.548 188.212ZM106.536 192.064C106.05 192.064 105.582 191.956 105.186 191.722L108.516 185.206C109.128 185.854 109.524 186.844 109.524 188.212C109.524 190.768 108.174 192.064 106.536 192.064ZM119.003 183.46L116.015 191.65L113.027 183.46H111.695L115.439 193H116.519L120.263 183.46H119.003ZM129.724 192.964V191.884C129.544 191.938 129.346 191.956 129.148 191.956C128.392 191.956 127.96 191.542 127.96 190.732V179.68H126.736V190.732C126.736 192.136 127.438 193.072 128.932 193.072C129.202 193.072 129.436 193.036 129.724 192.964ZM132.568 181.732C133.162 181.732 133.648 181.264 133.648 180.652C133.648 180.04 133.162 179.572 132.568 179.572C131.974 179.572 131.488 180.04 131.488 180.652C131.488 181.264 131.974 181.732 132.568 181.732ZM131.956 193H133.18V183.46H131.956V193ZM142.22 193H143.768L139.538 187.456L143.696 183.46H142.076L137.54 187.942V179.68H136.316V193H137.54V189.382L138.71 188.266L142.22 193ZM151.621 190.3C151.171 191.236 150.325 192.064 148.885 192.064C147.049 192.064 145.843 190.984 145.735 188.446H152.413L152.449 187.384C152.449 184.792 150.685 183.316 148.633 183.316C146.149 183.316 144.493 185.314 144.493 188.104C144.493 191.146 146.077 193.144 148.759 193.144C150.883 193.144 152.071 191.956 152.521 190.804L151.621 190.3ZM148.633 184.396C150.037 184.396 151.297 185.296 151.243 187.438H145.735C145.897 185.17 147.193 184.396 148.633 184.396ZM160.945 183.46L157.957 191.65L154.969 183.46H153.637L157.381 193H158.461L162.205 183.46H160.945ZM170.236 190.3C169.786 191.236 168.94 192.064 167.5 192.064C165.664 192.064 164.458 190.984 164.35 188.446H171.028L171.064 187.384C171.064 184.792 169.3 183.316 167.248 183.316C164.764 183.316 163.108 185.314 163.108 188.104C163.108 191.146 164.692 193.144 167.374 193.144C169.498 193.144 170.686 191.956 171.136 190.804L170.236 190.3ZM167.248 184.396C168.652 184.396 169.912 185.296 169.858 187.438H164.35C164.512 185.17 165.808 184.396 167.248 184.396ZM176.64 192.964V191.884C176.46 191.938 176.262 191.956 176.064 191.956C175.308 191.956 174.876 191.542 174.876 190.732V179.68H173.652V190.732C173.652 192.136 174.354 193.072 175.848 193.072C176.118 193.072 176.352 193.036 176.64 192.964ZM186.88 182.452C188.05 182.452 189.004 181.588 189.004 180.4C189.004 179.212 188.05 178.348 186.88 178.348C185.71 178.348 184.756 179.212 184.756 180.4C184.756 181.588 185.71 182.452 186.88 182.452ZM186.88 179.176C187.564 179.176 188.104 179.608 188.104 180.4C188.104 181.21 187.564 181.624 186.88 181.624C186.196 181.624 185.656 181.21 185.656 180.4C185.656 179.608 186.196 179.176 186.88 179.176ZM190.588 193C190.372 192.352 190.192 191.38 190.192 190.3V186.376C190.192 184.738 189.202 183.316 186.844 183.316C185.17 183.316 183.712 184.072 182.992 186.088L184.072 186.412C184.576 184.954 185.584 184.432 186.772 184.432C188.248 184.432 189.004 185.278 189.004 186.52V187.78C188.23 187.51 187.474 187.42 186.7 187.42C184.738 187.42 182.974 188.446 182.974 190.408C182.974 192.046 184.252 193.144 185.944 193.144C187.492 193.144 188.734 192.244 189.22 191.128C189.22 191.848 189.328 192.478 189.472 193H190.588ZM189.004 189.04C189.004 191.362 187.402 192.1 186.16 192.1C185.008 192.1 184.198 191.488 184.198 190.336C184.198 189.076 185.332 188.428 186.772 188.428C187.51 188.428 188.266 188.518 189.004 188.824V189.04ZM203.976 183.46L200.988 191.65L198 183.46H196.668L200.412 193H201.492L205.236 183.46H203.976ZM219.117 190.3C218.685 191.236 217.857 192.064 216.453 192.064C214.617 192.064 213.447 190.984 213.375 188.41H219.837L219.873 187.384C219.873 184.792 218.271 183.316 216.273 183.316C214.851 183.316 213.699 183.982 213.051 185.062C212.655 184.054 211.701 183.316 210.045 183.316C208.479 183.316 206.949 184.162 206.247 186.034L207.273 186.412C207.777 185.044 208.839 184.432 210.045 184.432C211.467 184.432 212.223 185.278 212.223 186.52V187.474H209.937C207.939 187.474 206.175 188.464 206.175 190.408C206.175 192.046 207.489 193.144 209.217 193.144C210.981 193.144 212.367 191.992 212.727 190.588C213.249 192.172 214.563 193.144 216.399 193.144C218.397 193.144 219.567 191.884 220.017 190.804L219.117 190.3ZM216.273 184.396C217.605 184.396 218.793 185.314 218.739 187.474H213.375C213.483 185.17 214.815 184.396 216.273 184.396ZM212.223 189.04C212.223 191.362 210.603 192.1 209.361 192.1C208.209 192.1 207.399 191.488 207.399 190.336C207.399 189.076 208.533 188.41 209.973 188.41H212.223V189.04ZM225.956 183.316C225.11 183.316 224.264 183.748 223.76 184.648V183.46H222.536V193H223.76V187.132C223.76 185.206 224.588 184.396 225.686 184.396C226.658 184.396 226.982 185.026 226.982 185.98V186.916L228.098 186.7V185.764C228.098 184.144 227.198 183.316 225.956 183.316ZM236.488 190.3C236.038 191.236 235.192 192.064 233.752 192.064C231.916 192.064 230.71 190.984 230.602 188.446H237.28L237.316 187.384C237.316 184.792 235.552 183.316 233.5 183.316C231.016 183.316 229.36 185.314 229.36 188.104C229.36 191.146 230.944 193.144 233.626 193.144C235.75 193.144 236.938 191.956 237.388 190.804L236.488 190.3ZM233.5 184.396C234.904 184.396 236.164 185.296 236.11 187.438H230.602C230.764 185.17 232.06 184.396 233.5 184.396ZM250.449 193H251.997L247.767 187.456L251.925 183.46H250.305L245.769 187.942V179.68H244.545V193H245.769V189.382L246.939 188.266L250.449 193ZM256.969 193.144C259.327 193.144 261.217 191.2 261.217 188.212C261.217 185.26 259.345 183.316 256.969 183.316C254.593 183.316 252.721 185.26 252.721 188.212C252.721 191.2 254.611 193.144 256.969 193.144ZM256.969 192.064C255.331 192.064 253.981 190.768 253.981 188.212C253.981 185.674 255.349 184.396 256.969 184.396C258.589 184.396 259.957 185.674 259.957 188.212C259.957 190.768 258.607 192.064 256.969 192.064ZM267.124 183.316C266.278 183.316 265.432 183.748 264.928 184.648V183.46H263.704V193H264.928V187.132C264.928 185.206 265.756 184.396 266.854 184.396C267.826 184.396 268.15 185.026 268.15 185.98V186.916L269.266 186.7V185.764C269.266 184.144 268.366 183.316 267.124 183.316ZM273.417 190.624V184.468H276.513V183.46H273.417V180.688L272.193 181.408V183.46H270.393V184.468H272.193V190.588C272.193 192.28 273.273 193.144 274.569 193.144C275.415 193.144 276.099 192.838 276.729 192.1L276.081 191.38C275.631 191.848 275.253 192.064 274.677 192.064C274.083 192.064 273.417 191.74 273.417 190.624ZM287.063 193.144C289.421 193.144 291.311 191.2 291.311 188.212C291.311 185.26 289.439 183.316 287.063 183.316C284.687 183.316 282.815 185.26 282.815 188.212C282.815 191.2 284.705 193.144 287.063 193.144ZM287.063 192.064C285.425 192.064 284.075 190.768 284.075 188.212C284.075 185.674 285.443 184.396 287.063 184.396C288.683 184.396 290.051 185.674 290.051 188.212C290.051 190.768 288.701 192.064 287.063 192.064ZM301.821 184.468V183.46H299.085V184.126C298.509 183.64 297.753 183.316 296.763 183.316C294.243 183.316 292.965 185.098 292.965 186.808C292.965 187.978 293.667 189.31 294.927 189.814C293.757 190.12 293.055 190.858 293.055 191.704C293.055 192.694 293.847 193.324 295.179 193.324H299.283C300.147 193.324 300.435 193.72 300.435 194.26C300.435 195.412 298.779 196.006 296.799 196.006C295.197 196.006 293.793 195.7 293.127 194.134L292.137 194.584C292.713 196.258 294.387 197.032 296.799 197.032C299.481 197.032 301.659 196.042 301.659 194.152C301.659 192.964 300.867 192.208 299.319 192.208H295.449C294.657 192.208 294.279 191.866 294.279 191.38C294.279 190.75 295.053 190.336 296.133 190.336H296.547C299.229 190.336 300.489 188.554 300.489 186.808C300.489 186.106 300.237 185.386 299.769 184.81V184.468H301.821ZM296.745 189.328C295.035 189.328 294.171 188.14 294.171 186.808C294.171 185.494 295.035 184.36 296.745 184.36C298.437 184.36 299.283 185.476 299.283 186.808C299.283 188.158 298.437 189.328 296.745 189.328ZM314.275 193H315.823L311.593 187.456L315.751 183.46H314.131L309.595 187.942V179.68H308.371V193H309.595V189.382L310.765 188.266L314.275 193ZM320.795 193.144C323.153 193.144 325.043 191.2 325.043 188.212C325.043 185.26 323.171 183.316 320.795 183.316C318.419 183.316 316.547 185.26 316.547 188.212C316.547 191.2 318.437 193.144 320.795 193.144ZM320.795 192.064C319.157 192.064 317.807 190.768 317.807 188.212C317.807 185.674 319.175 184.396 320.795 184.396C322.415 184.396 323.783 185.674 323.783 188.212C323.783 190.768 322.433 192.064 320.795 192.064ZM331.526 183.316C330.374 183.316 329.33 183.892 328.754 184.936V183.46H327.53V193H328.754V187.636C328.754 185.728 329.528 184.432 331.202 184.432C332.534 184.432 333.326 185.08 333.326 186.808V193H334.55V186.628C334.55 184.486 333.434 183.316 331.526 183.316ZM337.029 185.944C337.029 187.222 337.947 188.104 339.693 188.464L341.241 188.788C342.501 189.058 343.005 189.544 343.005 190.444C343.005 191.416 342.033 192.064 340.557 192.064C339.153 192.064 338.163 191.524 337.713 190.516L336.669 190.948C337.317 192.388 338.667 193.144 340.593 193.144C342.717 193.144 344.193 191.992 344.193 190.336C344.193 188.914 343.221 188.014 341.133 187.6L339.873 187.348C338.739 187.114 338.217 186.628 338.217 185.836C338.217 184.954 339.081 184.396 340.413 184.396C341.637 184.396 342.519 184.882 342.897 185.8L343.905 185.404C343.509 184.144 342.177 183.316 340.449 183.316C338.451 183.316 337.029 184.432 337.029 185.944ZM347.215 181.732C347.809 181.732 348.295 181.264 348.295 180.652C348.295 180.04 347.809 179.572 347.215 179.572C346.621 179.572 346.135 180.04 346.135 180.652C346.135 181.264 346.621 181.732 347.215 181.732ZM346.603 193H347.827V183.46H346.603V193ZM350.459 185.944C350.459 187.222 351.377 188.104 353.123 188.464L354.671 188.788C355.931 189.058 356.435 189.544 356.435 190.444C356.435 191.416 355.463 192.064 353.987 192.064C352.583 192.064 351.593 191.524 351.143 190.516L350.099 190.948C350.747 192.388 352.097 193.144 354.023 193.144C356.147 193.144 357.623 191.992 357.623 190.336C357.623 188.914 356.651 188.014 354.563 187.6L353.303 187.348C352.169 187.114 351.647 186.628 351.647 185.836C351.647 184.954 352.511 184.396 353.843 184.396C355.067 184.396 355.949 184.882 356.327 185.8L357.335 185.404C356.939 184.144 355.607 183.316 353.879 183.316C351.881 183.316 350.459 184.432 350.459 185.944ZM359.785 190.984V193H361.729V190.984H359.785Z" fill="#2A2859"/>
<path d="M84.036 231.384C84.036 232.952 85.198 233.75 86.64 234.016L88.124 234.296C89.384 234.534 90.224 234.898 90.224 236.144C90.224 237.264 89.314 238.244 87.62 238.244C86.486 238.244 85.324 237.964 84.624 236.592L83.728 236.956C84.456 238.496 85.8 239.112 87.592 239.112C89.86 239.112 91.204 237.684 91.204 236.088C91.204 234.534 90.028 233.68 88.432 233.372L86.808 233.064C85.59 232.826 85.016 232.238 85.016 231.272C85.016 230.124 86.024 229.396 87.452 229.396C88.53 229.396 89.468 229.942 89.888 230.936L90.812 230.558C90.294 229.256 89.146 228.528 87.452 228.528C85.618 228.528 84.036 229.648 84.036 231.384ZM93.7581 230.236C94.2201 230.236 94.5981 229.872 94.5981 229.396C94.5981 228.92 94.2201 228.556 93.7581 228.556C93.2961 228.556 92.9181 228.92 92.9181 229.396C92.9181 229.872 93.2961 230.236 93.7581 230.236ZM93.2821 239H94.2341V231.58H93.2821V239ZM96.2814 233.512C96.2814 234.506 96.9954 235.192 98.3534 235.472L99.5574 235.724C100.537 235.934 100.929 236.312 100.929 237.012C100.929 237.768 100.173 238.272 99.0254 238.272C97.9334 238.272 97.1634 237.852 96.8134 237.068L96.0014 237.404C96.5054 238.524 97.5554 239.112 99.0534 239.112C100.705 239.112 101.853 238.216 101.853 236.928C101.853 235.822 101.097 235.122 99.4734 234.8L98.4934 234.604C97.6114 234.422 97.2054 234.044 97.2054 233.428C97.2054 232.742 97.8774 232.308 98.9134 232.308C99.8654 232.308 100.551 232.686 100.845 233.4L101.629 233.092C101.321 232.112 100.285 231.468 98.9414 231.468C97.3874 231.468 96.2814 232.336 96.2814 233.512ZM105.075 237.152V232.364H107.483V231.58H105.075V229.424L104.123 229.984V231.58H102.723V232.364H104.123V237.124C104.123 238.44 104.963 239.112 105.971 239.112C106.629 239.112 107.161 238.874 107.651 238.3L107.147 237.74C106.797 238.104 106.503 238.272 106.055 238.272C105.593 238.272 105.075 238.02 105.075 237.152ZM115.688 239.112C117.522 239.112 118.992 237.6 118.992 235.276C118.992 232.98 117.536 231.468 115.688 231.468C113.84 231.468 112.384 232.98 112.384 235.276C112.384 237.6 113.854 239.112 115.688 239.112ZM115.688 238.272C114.414 238.272 113.364 237.264 113.364 235.276C113.364 233.302 114.428 232.308 115.688 232.308C116.948 232.308 118.012 233.302 118.012 235.276C118.012 237.264 116.962 238.272 115.688 238.272ZM124.315 231.482C123.349 231.482 122.369 232.014 121.879 232.966V231.58H120.927V241.94H121.879V237.656C122.327 238.594 123.167 239.112 124.203 239.112C126.191 239.112 127.479 237.502 127.479 235.22C127.479 233.064 126.205 231.482 124.315 231.482ZM124.203 238.272C122.719 238.272 121.879 237.18 121.879 235.248C121.879 233.428 122.733 232.322 124.217 232.322C125.589 232.322 126.499 233.386 126.499 235.262C126.499 237.208 125.589 238.272 124.203 238.272ZM132.805 231.482C131.839 231.482 130.859 232.014 130.369 232.966V231.58H129.417V241.94H130.369V237.656C130.817 238.594 131.657 239.112 132.693 239.112C134.681 239.112 135.969 237.502 135.969 235.22C135.969 233.064 134.695 231.482 132.805 231.482ZM132.693 238.272C131.209 238.272 130.369 237.18 130.369 235.248C130.369 233.428 131.223 232.322 132.707 232.322C134.079 232.322 134.989 233.386 134.989 235.262C134.989 237.208 134.079 238.272 132.693 238.272ZM143.031 228.64V232.924C142.583 231.986 141.743 231.468 140.707 231.468C138.719 231.468 137.431 233.078 137.431 235.36C137.431 237.516 138.705 239.098 140.595 239.098C141.561 239.098 142.541 238.566 143.031 237.614V239H143.983V228.64H143.031ZM140.693 238.258C139.321 238.258 138.411 237.194 138.411 235.318C138.411 233.372 139.321 232.308 140.707 232.308C142.191 232.308 143.031 233.4 143.031 235.332C143.031 237.152 142.177 238.258 140.693 238.258ZM151.859 239C151.691 238.496 151.551 237.74 151.551 236.9V233.848C151.551 232.574 150.781 231.468 148.947 231.468C147.645 231.468 146.511 232.056 145.951 233.624L146.791 233.876C147.183 232.742 147.967 232.336 148.891 232.336C150.039 232.336 150.627 232.994 150.627 233.96V234.94C150.025 234.73 149.437 234.66 148.835 234.66C147.309 234.66 145.937 235.458 145.937 236.984C145.937 238.258 146.931 239.112 148.247 239.112C149.451 239.112 150.417 238.412 150.795 237.544C150.795 238.104 150.879 238.594 150.991 239H151.859ZM150.627 235.92C150.627 237.726 149.381 238.3 148.415 238.3C147.519 238.3 146.889 237.824 146.889 236.928C146.889 235.948 147.771 235.444 148.891 235.444C149.465 235.444 150.053 235.514 150.627 235.752V235.92ZM155.305 237.152V232.364H157.713V231.58H155.305V229.424L154.353 229.984V231.58H152.953V232.364H154.353V237.124C154.353 238.44 155.193 239.112 156.201 239.112C156.859 239.112 157.391 238.874 157.881 238.3L157.377 237.74C157.027 238.104 156.733 238.272 156.285 238.272C155.823 238.272 155.305 238.02 155.305 237.152ZM164.153 236.9C163.803 237.628 163.145 238.272 162.025 238.272C160.597 238.272 159.659 237.432 159.575 235.458H164.769L164.797 234.632C164.797 232.616 163.425 231.468 161.829 231.468C159.897 231.468 158.609 233.022 158.609 235.192C158.609 237.558 159.841 239.112 161.927 239.112C163.579 239.112 164.503 238.188 164.853 237.292L164.153 236.9ZM161.829 232.308C162.921 232.308 163.901 233.008 163.859 234.674H159.575C159.701 232.91 160.709 232.308 161.829 232.308ZM169.469 231.468C168.811 231.468 168.153 231.804 167.761 232.504V231.58H166.809V239H167.761V234.436C167.761 232.938 168.405 232.308 169.259 232.308C170.015 232.308 170.267 232.798 170.267 233.54V234.268L171.135 234.1V233.372C171.135 232.112 170.435 231.468 169.469 231.468ZM174.364 237.152V232.364H176.772V231.58H174.364V229.424L173.412 229.984V231.58H172.012V232.364H173.412V237.124C173.412 238.44 174.252 239.112 175.26 239.112C175.918 239.112 176.45 238.874 176.94 238.3L176.436 237.74C176.086 238.104 175.792 238.272 175.344 238.272C174.882 238.272 174.364 238.02 174.364 237.152ZM178.959 232.504V234.072H180.471V232.504H178.959ZM179.715 239.084C180.219 239.084 180.611 238.706 180.611 238.188C180.611 237.67 180.219 237.292 179.715 237.292C179.211 237.292 178.819 237.67 178.819 238.188C178.819 238.706 179.211 239.084 179.715 239.084ZM191.976 228.64V232.924C191.528 231.986 190.688 231.468 189.652 231.468C187.664 231.468 186.376 233.078 186.376 235.36C186.376 237.516 187.65 239.098 189.54 239.098C190.506 239.098 191.486 238.566 191.976 237.614V239H192.928V228.64H191.976ZM189.638 238.258C188.266 238.258 187.356 237.194 187.356 235.318C187.356 233.372 188.266 232.308 189.652 232.308C191.136 232.308 191.976 233.4 191.976 235.332C191.976 237.152 191.122 238.258 189.638 238.258ZM200.804 239C200.636 238.496 200.496 237.74 200.496 236.9V233.848C200.496 232.574 199.726 231.468 197.892 231.468C196.59 231.468 195.456 232.056 194.896 233.624L195.736 233.876C196.128 232.742 196.912 232.336 197.836 232.336C198.984 232.336 199.572 232.994 199.572 233.96V234.94C198.97 234.73 198.382 234.66 197.78 234.66C196.254 234.66 194.882 235.458 194.882 236.984C194.882 238.258 195.876 239.112 197.192 239.112C198.396 239.112 199.362 238.412 199.74 237.544C199.74 238.104 199.824 238.594 199.936 239H200.804ZM199.572 235.92C199.572 237.726 198.326 238.3 197.36 238.3C196.464 238.3 195.834 237.824 195.834 236.928C195.834 235.948 196.716 235.444 197.836 235.444C198.41 235.444 198.998 235.514 199.572 235.752V235.92ZM204.251 237.152V232.364H206.659V231.58H204.251V229.424L203.299 229.984V231.58H201.899V232.364H203.299V237.124C203.299 238.44 204.139 239.112 205.147 239.112C205.805 239.112 206.337 238.874 206.827 238.3L206.323 237.74C205.973 238.104 205.678 238.272 205.231 238.272C204.769 238.272 204.251 238.02 204.251 237.152ZM210.858 239.112C212.692 239.112 214.162 237.6 214.162 235.276C214.162 232.98 212.706 231.468 210.858 231.468C209.01 231.468 207.554 232.98 207.554 235.276C207.554 237.6 209.024 239.112 210.858 239.112ZM210.858 238.272C209.584 238.272 208.534 237.264 208.534 235.276C208.534 233.302 209.598 232.308 210.858 232.308C212.118 232.308 213.182 233.302 213.182 235.276C213.182 237.264 212.132 238.272 210.858 238.272Z" fill="#2A2859"/>
<path d="M61 269V44H57V269H61Z" fill="#2A2859" mask="url(#path-1-inside-1_3057_108020)"/>
<path d="M95 25L95 64" stroke="#2A2859"/>
<circle cx="95" cy="64" r="2" fill="#2A2859"/>
<path d="M130 25L130 64" stroke="#2A2859"/>
<circle cx="130" cy="64" r="2" fill="#2A2859"/>
<path d="M606 25L606 64" stroke="#2A2859"/>
<circle cx="606" cy="64" r="2" fill="#2A2859"/>
<path d="M88 288L88 249" stroke="#2A2859"/>
<circle cx="88" cy="249" r="2" transform="rotate(-180 88 249)" fill="#2A2859"/>
<path d="M36 131L75 131" stroke="#2A2859"/>
<circle cx="75" cy="131" r="2" transform="rotate(-90 75 131)" fill="#2A2859"/>
<circle cx="95.5" cy="17.5" r="7.5" fill="#2A2859"/>
<path d="M96.2036 20.0563V14.2873H95.3036L93.6926 15.3493V16.4203L95.1596 15.4843V20.0563H93.6206V20.9473H97.6616V20.0563H96.2036Z" fill="white"/>
<circle cx="87.5" cy="295.5" r="7.5" fill="#2A2859"/>
<path d="M90.0666 296.436H89.0856V294.348L88.0686 294.645V296.436H86.2146L87.6906 292.287H86.6466L85.0896 296.598V297.363H88.0686V298.947H89.0856V297.363H90.0666V296.436Z" fill="white"/>
<circle cx="28.5" cy="130.5" r="7.5" fill="#2A2859"/>
<path d="M29.6176 130.419C30.1576 130.158 30.5716 129.672 30.5716 128.979C30.5716 128.097 29.8966 127.197 28.3576 127.197C27.2866 127.197 26.3956 127.782 26.0086 128.934L26.9536 129.204C27.1786 128.547 27.6286 128.133 28.3396 128.133C29.0596 128.133 29.5096 128.52 29.5096 129.168C29.5096 129.447 29.4016 129.717 29.1766 129.897C28.9876 130.05 28.7896 130.113 28.3396 130.113H27.6646V130.995H28.6906C28.9786 130.995 29.1676 131.04 29.3476 131.139C29.6356 131.283 29.7886 131.571 29.7886 131.976C29.7886 132.579 29.2486 133.092 28.3846 133.092C27.6736 133.092 27.1696 132.849 26.6836 132.201L25.9096 132.786C26.5846 133.695 27.4306 134.037 28.3756 134.037C29.9146 134.037 30.8506 133.128 30.8506 132.03C30.8506 131.157 30.2746 130.644 29.6176 130.419Z" fill="white"/>
<circle cx="130.5" cy="17.5" r="7.5" fill="#2A2859"/>
<path d="M129.701 19.9933L131.465 18.1843C132.266 17.3563 132.617 16.8433 132.617 16.0333C132.617 15.0883 131.87 14.1973 130.475 14.1973C129.413 14.1973 128.477 14.7463 128.162 16.0423L129.134 16.2493C129.332 15.5113 129.764 15.1333 130.457 15.1333C131.114 15.1333 131.51 15.5563 131.51 16.1053C131.51 16.6543 131.249 17.0053 130.61 17.6803L128.279 20.1193V20.9473H132.869V19.9933H129.701Z" fill="white"/>
<circle cx="605.5" cy="17.5" r="7.5" fill="#2A2859"/>
<path d="M605.817 16.6093C605.223 16.6093 604.692 16.8163 604.314 17.1853L604.458 15.2323H607.392V14.2873H603.603L603.396 17.7793L604.17 18.0763C604.602 17.6443 604.971 17.4643 605.538 17.4643C606.249 17.4643 606.816 17.9323 606.816 18.7603C606.816 19.5253 606.24 20.1013 605.385 20.1013C604.71 20.1013 604.215 19.8583 603.738 19.2103L602.973 19.7953C603.621 20.7043 604.458 21.0283 605.358 21.0283C606.933 21.0283 607.905 20.0203 607.905 18.6973C607.905 17.4733 607.05 16.6093 605.817 16.6093Z" fill="white"/>
</svg>
