<svg width="632" height="254" viewBox="0 0 632 254" fill="none" xmlns="http://www.w3.org/2000/svg">
<rect width="632" height="254" fill="white"/>
<path d="M119.672 62H117.566V48.68H125.81V50.624H119.672V54.692H124.766V56.618H119.672V62ZM133.283 53.036C134.489 53.864 135.263 55.322 135.263 57.176C135.263 60.236 133.229 62.18 130.745 62.18C130.115 62.18 129.521 62.054 128.963 61.82L128.405 62.972H127.379L128.171 61.37C127.001 60.524 126.227 59.066 126.227 57.176C126.227 54.188 128.243 52.244 130.745 52.244C131.375 52.244 131.951 52.37 132.491 52.586L133.049 51.47H134.057L133.283 53.036ZM128.297 57.176C128.297 58.292 128.567 59.12 129.017 59.66L131.717 54.152C131.429 54.026 131.087 53.954 130.745 53.954C129.413 53.954 128.297 54.908 128.297 57.176ZM130.745 60.47C132.095 60.47 133.193 59.426 133.193 57.176C133.193 56.042 132.905 55.232 132.473 54.71L129.737 60.254C130.043 60.398 130.385 60.47 130.745 60.47ZM143.732 48.68H145.748V62H143.732V60.272C142.994 61.604 141.842 62.144 140.744 62.144C138.44 62.144 136.784 60.164 136.784 57.266C136.784 54.26 138.458 52.262 140.978 52.262C142.058 52.262 143.138 52.748 143.732 53.918V48.68ZM141.284 60.38C142.742 60.38 143.732 59.39 143.732 57.158C143.732 54.944 142.76 53.882 141.284 53.882C139.898 53.882 138.872 54.998 138.872 57.158C138.872 59.3 139.898 60.38 141.284 60.38ZM147.889 55.088C147.889 53.468 149.383 52.244 151.633 52.244C153.487 52.244 154.729 52.91 155.395 54.188L153.991 55.052C153.559 54.314 152.695 53.864 151.615 53.864C150.535 53.864 149.797 54.278 149.797 54.962C149.797 55.52 150.175 55.862 151.021 56.024L152.623 56.348C154.639 56.744 155.647 57.698 155.647 59.156C155.647 60.956 154.081 62.162 151.723 62.162C149.725 62.162 148.303 61.406 147.565 60.02L148.969 59.138C149.491 60.02 150.409 60.524 151.669 60.524C152.893 60.524 153.721 60.038 153.721 59.246C153.721 58.598 153.325 58.238 152.443 58.058L150.679 57.716C148.879 57.374 147.889 56.456 147.889 55.088ZM164.079 58.994L165.447 59.786C164.907 60.974 163.647 62.162 161.469 62.162C158.643 62.162 156.933 60.074 156.933 57.14C156.933 54.242 158.787 52.244 161.325 52.244C163.575 52.244 165.429 53.756 165.429 56.456L165.393 57.644H158.913C159.021 59.66 160.011 60.524 161.595 60.524C162.765 60.524 163.575 59.894 164.079 58.994ZM161.325 53.828C160.101 53.828 159.075 54.476 158.913 56.204H163.467C163.485 54.512 162.441 53.828 161.325 53.828ZM171.55 61.946C171.172 62.054 170.794 62.108 170.398 62.108C168.58 62.108 167.716 61.028 167.716 59.282V48.68H169.732V59.138C169.732 59.966 170.218 60.344 170.956 60.344C171.136 60.344 171.334 60.326 171.55 60.272V61.946ZM172.971 55.088C172.971 53.468 174.465 52.244 176.715 52.244C178.569 52.244 179.811 52.91 180.477 54.188L179.073 55.052C178.641 54.314 177.777 53.864 176.697 53.864C175.617 53.864 174.879 54.278 174.879 54.962C174.879 55.52 175.257 55.862 176.103 56.024L177.705 56.348C179.721 56.744 180.729 57.698 180.729 59.156C180.729 60.956 179.163 62.162 176.805 62.162C174.807 62.162 173.385 61.406 172.647 60.02L174.051 59.138C174.573 60.02 175.491 60.524 176.751 60.524C177.975 60.524 178.803 60.038 178.803 59.246C178.803 58.598 178.407 58.238 177.525 58.058L175.761 57.716C173.961 57.374 172.971 56.456 172.971 55.088ZM187.608 52.244C189.552 52.244 190.704 53.504 190.704 55.574V62H188.688V55.898C188.688 54.584 188.058 53.99 186.96 53.99C185.538 53.99 184.818 54.98 184.818 56.834V62H182.802V52.46H184.818V53.828C185.466 52.82 186.42 52.244 187.608 52.244ZM198.959 52.46H200.975V62H198.959V60.596C198.347 61.64 197.393 62.162 196.223 62.162C194.261 62.162 193.127 60.902 193.127 58.832V52.46H195.143V58.526C195.143 59.768 195.755 60.434 196.853 60.434C198.257 60.434 198.959 59.426 198.959 57.572V52.46ZM214.149 52.244C216.057 52.244 217.155 53.486 217.155 55.484V62H215.139V55.826C215.139 54.566 214.545 53.99 213.501 53.99C212.097 53.99 211.395 54.962 211.395 56.834V62H209.379V55.826C209.379 54.566 208.785 53.99 207.741 53.99C206.355 53.99 205.653 54.962 205.653 56.834V62H203.637V52.46H205.653V53.81C206.301 52.784 207.237 52.244 208.389 52.244C209.847 52.244 210.801 52.946 211.215 54.134C211.863 52.874 212.871 52.244 214.149 52.244ZM230.419 52.244C232.327 52.244 233.425 53.486 233.425 55.484V62H231.409V55.826C231.409 54.566 230.815 53.99 229.771 53.99C228.367 53.99 227.665 54.962 227.665 56.834V62H225.649V55.826C225.649 54.566 225.055 53.99 224.011 53.99C222.625 53.99 221.923 54.962 221.923 56.834V62H219.907V52.46H221.923V53.81C222.571 52.784 223.507 52.244 224.659 52.244C226.117 52.244 227.071 52.946 227.485 54.134C228.133 52.874 229.141 52.244 230.419 52.244ZM242.73 58.994L244.098 59.786C243.558 60.974 242.298 62.162 240.12 62.162C237.294 62.162 235.584 60.074 235.584 57.14C235.584 54.242 237.438 52.244 239.976 52.244C242.226 52.244 244.08 53.756 244.08 56.456L244.044 57.644H237.564C237.672 59.66 238.662 60.524 240.246 60.524C241.416 60.524 242.226 59.894 242.73 58.994ZM239.976 53.828C238.752 53.828 237.726 54.476 237.564 56.204H242.118C242.136 54.512 241.092 53.828 239.976 53.828ZM250.741 52.244C252.127 52.244 253.027 53.162 253.027 54.8V56.06L251.407 56.348V55.376C251.407 54.512 251.101 53.918 250.165 53.918C249.139 53.918 248.383 54.602 248.383 56.42V62H246.367V52.46H248.383V53.738C248.923 52.676 249.913 52.244 250.741 52.244Z" fill="#2A2859"/>
<rect width="83" height="22" transform="translate(262 45)" fill="#F8F0DD"/>
<path d="M275.324 50.64H276.276V61H275.296V52.362L271.964 57.542H271.544L268.212 52.362V61H267.232V50.64H268.184L271.754 56.184L275.324 50.64ZM281.362 52.796C280.452 52.796 279.71 52.124 279.71 51.2C279.71 50.276 280.452 49.604 281.362 49.604C282.272 49.604 283.014 50.276 283.014 51.2C283.014 52.124 282.272 52.796 281.362 52.796ZM281.362 50.248C280.83 50.248 280.41 50.584 280.41 51.2C280.41 51.83 280.83 52.152 281.362 52.152C281.894 52.152 282.314 51.83 282.314 51.2C282.314 50.584 281.894 50.248 281.362 50.248ZM284.246 61H283.378C283.266 60.594 283.182 60.104 283.182 59.544C282.804 60.412 281.838 61.112 280.634 61.112C279.318 61.112 278.324 60.258 278.324 58.984C278.324 57.458 279.696 56.66 281.222 56.66C281.824 56.66 282.412 56.73 283.014 56.94V55.96C283.014 54.994 282.426 54.336 281.278 54.336C280.354 54.336 279.57 54.742 279.178 55.876L278.338 55.624C278.898 54.056 280.032 53.468 281.334 53.468C283.168 53.468 283.938 54.574 283.938 55.848V58.9C283.938 59.74 284.078 60.496 284.246 61ZM283.014 57.92V57.752C282.44 57.514 281.852 57.444 281.278 57.444C280.158 57.444 279.276 57.948 279.276 58.928C279.276 59.824 279.906 60.3 280.802 60.3C281.768 60.3 283.014 59.726 283.014 57.92ZM291.411 52.544V53.58H293.483V54.364H291.411V61H290.459V54.364H289.059V53.58H290.459V52.544C290.459 51.256 291.299 50.528 292.447 50.528C292.979 50.528 293.595 50.738 293.945 51.298L293.371 51.872C293.147 51.536 292.811 51.34 292.419 51.34C291.929 51.34 291.411 51.634 291.411 52.544ZM299.421 53.58H300.401L297.139 62.022C296.649 63.282 296.103 64.08 294.955 64.08C294.451 64.08 293.989 63.898 293.639 63.576L294.059 62.89C294.339 63.142 294.605 63.254 294.927 63.254C295.445 63.254 295.809 63.03 296.173 62.176L296.607 61.126L293.821 53.58H294.857L297.097 60.006L299.421 53.58ZM304.132 60.972C303.908 61.028 303.726 61.056 303.516 61.056C302.354 61.056 301.808 60.328 301.808 59.236V50.64H302.76V59.236C302.76 59.866 303.096 60.188 303.684 60.188C303.838 60.188 303.992 60.174 304.132 60.132V60.972ZM308.192 60.972C307.968 61.028 307.786 61.056 307.576 61.056C306.414 61.056 305.868 60.328 305.868 59.236V50.64H306.82V59.236C306.82 59.866 307.156 60.188 307.744 60.188C307.898 60.188 308.052 60.174 308.192 60.132V60.972ZM314.778 58.9L315.478 59.292C315.128 60.188 314.204 61.112 312.552 61.112C310.466 61.112 309.234 59.558 309.234 57.192C309.234 55.022 310.522 53.468 312.454 53.468C314.05 53.468 315.422 54.616 315.422 56.632L315.394 57.458H310.2C310.284 59.432 311.222 60.272 312.65 60.272C313.77 60.272 314.428 59.628 314.778 58.9ZM312.454 54.308C311.334 54.308 310.326 54.91 310.2 56.674H314.484C314.526 55.008 313.546 54.308 312.454 54.308ZM317.07 55.512C317.07 54.336 318.176 53.468 319.73 53.468C321.074 53.468 322.11 54.112 322.418 55.092L321.634 55.4C321.34 54.686 320.654 54.308 319.702 54.308C318.666 54.308 317.994 54.742 317.994 55.428C317.994 56.044 318.4 56.422 319.282 56.604L320.262 56.8C321.886 57.122 322.642 57.822 322.642 58.928C322.642 60.216 321.494 61.112 319.842 61.112C318.344 61.112 317.294 60.524 316.79 59.404L317.602 59.068C317.952 59.852 318.722 60.272 319.814 60.272C320.962 60.272 321.718 59.768 321.718 59.012C321.718 58.312 321.326 57.934 320.346 57.724L319.142 57.472C317.784 57.192 317.07 56.506 317.07 55.512ZM332.411 53.58H333.363V61H332.411V59.866C331.963 60.664 331.179 61.112 330.269 61.112C328.813 61.112 327.931 60.174 327.931 58.564V53.58H328.883V58.48C328.883 59.698 329.499 60.258 330.535 60.258C331.851 60.258 332.411 59.208 332.411 57.752V53.58ZM337.198 59.152C337.198 60.02 337.716 60.272 338.178 60.272C338.626 60.272 338.92 60.104 339.27 59.74L339.774 60.3C339.284 60.874 338.752 61.112 338.094 61.112C337.086 61.112 336.246 60.44 336.246 59.124V54.364H334.846V53.58H336.246V51.984L337.198 51.424V53.58H339.606V54.364H337.198V59.152Z" fill="#2A2859"/>
<path d="M117.036 86.384C117.036 84.648 118.618 83.528 120.452 83.528C122.146 83.528 123.294 84.256 123.812 85.558L122.888 85.936C122.468 84.942 121.53 84.396 120.452 84.396C119.024 84.396 118.016 85.124 118.016 86.272C118.016 87.238 118.59 87.826 119.808 88.064L121.432 88.372C123.028 88.68 124.204 89.534 124.204 91.088C124.204 92.684 122.86 94.112 120.592 94.112C118.8 94.112 117.456 93.496 116.728 91.956L117.624 91.592C118.324 92.964 119.486 93.244 120.62 93.244C122.314 93.244 123.224 92.264 123.224 91.144C123.224 89.898 122.384 89.534 121.124 89.296L119.64 89.016C118.198 88.75 117.036 87.952 117.036 86.384ZM130.902 94L128.172 90.318L127.262 91.186V94H126.31V83.64H127.262V90.066L130.79 86.58H132.05L128.816 89.688L132.106 94H130.902ZM136.229 86.468C137.195 86.468 137.895 87.112 137.895 88.372V89.1L137.027 89.268V88.54C137.027 87.798 136.775 87.308 136.019 87.308C135.165 87.308 134.521 87.938 134.521 89.436V94H133.569V86.58H134.521V87.504C134.913 86.804 135.571 86.468 136.229 86.468ZM140.252 85.236C139.79 85.236 139.412 84.872 139.412 84.396C139.412 83.92 139.79 83.556 140.252 83.556C140.714 83.556 141.092 83.92 141.092 84.396C141.092 84.872 140.714 85.236 140.252 85.236ZM139.776 94V86.58H140.728V94H139.776ZM147.872 86.58H148.852L145.94 94H145.1L142.188 86.58H143.224L145.548 92.95L147.872 86.58ZM153.634 83.696H155.09V85.124H153.634V83.696ZM153.886 94V86.58H154.838V94H153.886ZM160.357 86.468C161.841 86.468 162.709 87.378 162.709 89.044V94H161.757V89.184C161.757 87.84 161.141 87.336 160.105 87.336C158.803 87.336 158.201 88.344 158.201 89.828V94H157.249V86.58H158.201V87.728C158.649 86.916 159.461 86.468 160.357 86.468ZM168.109 86.468C169.593 86.468 170.461 87.378 170.461 89.044V94H169.509V89.184C169.509 87.84 168.893 87.336 167.857 87.336C166.555 87.336 165.953 88.344 165.953 89.828V94H165.001V86.58H165.953V87.728C166.401 86.916 167.213 86.468 168.109 86.468ZM179.751 86.482C181.641 86.482 182.915 88.064 182.915 90.22C182.915 92.502 181.627 94.112 179.639 94.112C178.603 94.112 177.763 93.594 177.315 92.656V94H176.363V83.64H177.315V87.966C177.805 87.014 178.785 86.482 179.751 86.482ZM179.639 93.272C181.025 93.272 181.935 92.208 181.935 90.262C181.935 88.386 181.025 87.322 179.653 87.322C178.169 87.322 177.315 88.428 177.315 90.248C177.315 92.18 178.155 93.272 179.639 93.272ZM187.498 85.796C186.588 85.796 185.846 85.124 185.846 84.2C185.846 83.276 186.588 82.604 187.498 82.604C188.408 82.604 189.15 83.276 189.15 84.2C189.15 85.124 188.408 85.796 187.498 85.796ZM187.498 83.248C186.966 83.248 186.546 83.584 186.546 84.2C186.546 84.83 186.966 85.152 187.498 85.152C188.03 85.152 188.45 84.83 188.45 84.2C188.45 83.584 188.03 83.248 187.498 83.248ZM190.382 94H189.514C189.402 93.594 189.318 93.104 189.318 92.544C188.94 93.412 187.974 94.112 186.77 94.112C185.454 94.112 184.46 93.258 184.46 91.984C184.46 90.458 185.832 89.66 187.358 89.66C187.96 89.66 188.548 89.73 189.15 89.94V88.96C189.15 87.994 188.562 87.336 187.414 87.336C186.49 87.336 185.706 87.742 185.314 88.876L184.474 88.624C185.034 87.056 186.168 86.468 187.47 86.468C189.304 86.468 190.074 87.574 190.074 88.848V91.9C190.074 92.74 190.214 93.496 190.382 94ZM189.15 90.92V90.752C188.576 90.514 187.988 90.444 187.414 90.444C186.294 90.444 185.412 90.948 185.412 91.928C185.412 92.824 186.042 93.3 186.938 93.3C187.904 93.3 189.15 92.726 189.15 90.92ZM197.469 83.64H198.421V94H197.469V92.614C196.979 93.566 195.999 94.098 195.033 94.098C193.143 94.098 191.869 92.516 191.869 90.36C191.869 88.078 193.157 86.468 195.145 86.468C196.181 86.468 197.021 86.986 197.469 87.924V83.64ZM195.131 93.258C196.615 93.258 197.469 92.152 197.469 90.332C197.469 88.4 196.629 87.308 195.145 87.308C193.759 87.308 192.849 88.372 192.849 90.318C192.849 92.194 193.759 93.258 195.131 93.258ZM205.835 91.9L206.535 92.292C206.185 93.188 205.261 94.112 203.609 94.112C201.523 94.112 200.291 92.558 200.291 90.192C200.291 88.022 201.579 86.468 203.511 86.468C205.107 86.468 206.479 87.616 206.479 89.632L206.451 90.458H201.257C201.341 92.432 202.279 93.272 203.707 93.272C204.827 93.272 205.485 92.628 205.835 91.9ZM203.511 87.308C202.391 87.308 201.383 87.91 201.257 89.674H205.541C205.583 88.008 204.603 87.308 203.511 87.308ZM213.557 85.544V86.58H215.629V87.364H213.557V94H212.605V87.364H211.205V86.58H212.605V85.544C212.605 84.256 213.445 83.528 214.593 83.528C215.125 83.528 215.741 83.738 216.091 84.298L215.517 84.872C215.293 84.536 214.957 84.34 214.565 84.34C214.075 84.34 213.557 84.634 213.557 85.544ZM221.427 87.14C222.253 87.798 222.785 88.89 222.785 90.276C222.785 92.6 221.315 94.112 219.481 94.112C218.963 94.112 218.473 93.986 218.039 93.762L217.577 94.672H216.905L217.535 93.44C216.709 92.782 216.177 91.676 216.177 90.276C216.177 87.98 217.633 86.468 219.481 86.468C219.999 86.468 220.489 86.594 220.923 86.804L221.385 85.908H222.057L221.427 87.14ZM217.157 90.276C217.157 91.354 217.465 92.138 217.941 92.642L220.531 87.574C220.209 87.392 219.859 87.308 219.481 87.308C218.221 87.308 217.157 88.302 217.157 90.276ZM219.481 93.272C220.755 93.272 221.805 92.264 221.805 90.276C221.805 89.212 221.497 88.442 221.021 87.938L218.431 93.006C218.739 93.188 219.103 93.272 219.481 93.272ZM229.844 83.64H230.796V94H229.844V92.614C229.354 93.566 228.374 94.098 227.408 94.098C225.518 94.098 224.244 92.516 224.244 90.36C224.244 88.078 225.532 86.468 227.52 86.468C228.556 86.468 229.396 86.986 229.844 87.924V83.64ZM227.506 93.258C228.99 93.258 229.844 92.152 229.844 90.332C229.844 88.4 229.004 87.308 227.52 87.308C226.134 87.308 225.224 88.372 225.224 90.318C225.224 92.194 226.134 93.258 227.506 93.258ZM232.778 88.512C232.778 87.336 233.884 86.468 235.438 86.468C236.782 86.468 237.818 87.112 238.126 88.092L237.342 88.4C237.048 87.686 236.362 87.308 235.41 87.308C234.374 87.308 233.702 87.742 233.702 88.428C233.702 89.044 234.108 89.422 234.99 89.604L235.97 89.8C237.594 90.122 238.35 90.822 238.35 91.928C238.35 93.216 237.202 94.112 235.55 94.112C234.052 94.112 233.002 93.524 232.498 92.404L233.31 92.068C233.66 92.852 234.43 93.272 235.522 93.272C236.67 93.272 237.426 92.768 237.426 92.012C237.426 91.312 237.034 90.934 236.053 90.724L234.85 90.472C233.492 90.192 232.778 89.506 232.778 88.512ZM245.292 91.9L245.992 92.292C245.642 93.188 244.718 94.112 243.066 94.112C240.98 94.112 239.748 92.558 239.748 90.192C239.748 88.022 241.036 86.468 242.968 86.468C244.564 86.468 245.936 87.616 245.936 89.632L245.908 90.458H240.714C240.798 92.432 241.736 93.272 243.164 93.272C244.284 93.272 244.942 92.628 245.292 91.9ZM242.968 87.308C241.848 87.308 240.84 87.91 240.714 89.674H244.998C245.04 88.008 244.06 87.308 242.968 87.308ZM250.272 93.972C250.048 94.028 249.866 94.056 249.656 94.056C248.494 94.056 247.948 93.328 247.948 92.236V83.64H248.9V92.236C248.9 92.866 249.236 93.188 249.824 93.188C249.978 93.188 250.132 93.174 250.272 93.132V93.972ZM251.645 88.512C251.645 87.336 252.751 86.468 254.305 86.468C255.649 86.468 256.685 87.112 256.993 88.092L256.209 88.4C255.915 87.686 255.229 87.308 254.277 87.308C253.241 87.308 252.569 87.742 252.569 88.428C252.569 89.044 252.975 89.422 253.857 89.604L254.837 89.8C256.461 90.122 257.217 90.822 257.217 91.928C257.217 93.216 256.069 94.112 254.417 94.112C252.919 94.112 251.869 93.524 251.365 92.404L252.177 92.068C252.527 92.852 253.297 93.272 254.389 93.272C255.537 93.272 256.293 92.768 256.293 92.012C256.293 91.312 255.901 90.934 254.921 90.724L253.717 90.472C252.359 90.192 251.645 89.506 251.645 88.512ZM264.215 83.64H265.167V94H264.215V92.614C263.725 93.566 262.745 94.098 261.779 94.098C259.889 94.098 258.615 92.516 258.615 90.36C258.615 88.078 259.903 86.468 261.891 86.468C262.927 86.468 263.767 86.986 264.215 87.924V83.64ZM261.877 93.258C263.361 93.258 264.215 92.152 264.215 90.332C264.215 88.4 263.375 87.308 261.891 87.308C260.505 87.308 259.595 88.372 259.595 90.318C259.595 92.194 260.505 93.258 261.877 93.258ZM273.043 94H272.175C272.063 93.594 271.979 93.104 271.979 92.544C271.601 93.412 270.635 94.112 269.431 94.112C268.115 94.112 267.121 93.258 267.121 91.984C267.121 90.458 268.493 89.66 270.019 89.66C270.621 89.66 271.209 89.73 271.811 89.94V88.96C271.811 87.994 271.223 87.336 270.075 87.336C269.151 87.336 268.367 87.742 267.975 88.876L267.135 88.624C267.695 87.056 268.829 86.468 270.131 86.468C271.965 86.468 272.735 87.574 272.735 88.848V91.9C272.735 92.74 272.875 93.496 273.043 94ZM271.811 90.92V90.752C271.237 90.514 270.649 90.444 270.075 90.444C268.955 90.444 268.073 90.948 268.073 91.928C268.073 92.824 268.703 93.3 269.599 93.3C270.565 93.3 271.811 92.726 271.811 90.92ZM276.489 92.152C276.489 93.02 277.007 93.272 277.469 93.272C277.917 93.272 278.211 93.104 278.561 92.74L279.065 93.3C278.575 93.874 278.043 94.112 277.385 94.112C276.377 94.112 275.537 93.44 275.537 92.124V87.364H274.137V86.58H275.537V84.984L276.489 84.424V86.58H278.897V87.364H276.489V92.152ZM283.096 94.112C281.262 94.112 279.792 92.6 279.792 90.276C279.792 87.98 281.248 86.468 283.096 86.468C284.944 86.468 286.4 87.98 286.4 90.276C286.4 92.6 284.93 94.112 283.096 94.112ZM283.096 93.272C284.37 93.272 285.42 92.264 285.42 90.276C285.42 88.302 284.356 87.308 283.096 87.308C281.836 87.308 280.772 88.302 280.772 90.276C280.772 92.264 281.822 93.272 283.096 93.272ZM294.745 94.112C292.911 94.112 291.441 92.6 291.441 90.276C291.441 87.98 292.897 86.468 294.745 86.468C296.593 86.468 298.049 87.98 298.049 90.276C298.049 92.6 296.579 94.112 294.745 94.112ZM294.745 93.272C296.019 93.272 297.069 92.264 297.069 90.276C297.069 88.302 296.005 87.308 294.745 87.308C293.485 87.308 292.421 88.302 292.421 90.276C292.421 92.264 293.471 93.272 294.745 93.272ZM306.223 87.364H304.627V87.63C304.991 88.078 305.187 88.638 305.187 89.184C305.187 90.542 304.207 91.928 302.121 91.928H301.799C300.959 91.928 300.357 92.25 300.357 92.74C300.357 93.118 300.651 93.384 301.267 93.384H304.277C305.481 93.384 306.097 93.972 306.097 94.896C306.097 96.366 304.403 97.136 302.317 97.136C300.441 97.136 299.139 96.534 298.691 95.232L299.461 94.882C299.979 96.1 301.071 96.338 302.317 96.338C303.857 96.338 305.145 95.876 305.145 94.98C305.145 94.56 304.921 94.252 304.249 94.252H301.057C300.021 94.252 299.405 93.762 299.405 92.992C299.405 92.334 299.951 91.76 300.861 91.522C299.881 91.13 299.335 90.094 299.335 89.184C299.335 87.854 300.329 86.468 302.289 86.468C303.059 86.468 303.647 86.72 304.095 87.098V86.58H306.223V87.364ZM302.275 91.144C303.591 91.144 304.249 90.234 304.249 89.184C304.249 88.148 303.591 87.28 302.275 87.28C300.945 87.28 300.273 88.162 300.273 89.184C300.273 90.22 300.945 91.144 302.275 91.144ZM314.678 86.482C316.568 86.482 317.842 88.064 317.842 90.22C317.842 92.502 316.554 94.112 314.566 94.112C313.53 94.112 312.69 93.594 312.242 92.656V96.94H311.29V86.58H312.242V87.966C312.732 87.014 313.712 86.482 314.678 86.482ZM314.566 93.272C315.952 93.272 316.862 92.208 316.862 90.262C316.862 88.386 315.952 87.322 314.58 87.322C313.096 87.322 312.242 88.428 312.242 90.248C312.242 92.18 313.082 93.272 314.566 93.272ZM324.848 91.9L325.548 92.292C325.198 93.188 324.274 94.112 322.622 94.112C320.536 94.112 319.304 92.558 319.304 90.192C319.304 88.022 320.592 86.468 322.524 86.468C324.12 86.468 325.492 87.616 325.492 89.632L325.464 90.458H320.27C320.354 92.432 321.292 93.272 322.72 93.272C323.84 93.272 324.498 92.628 324.848 91.9ZM322.524 87.308C321.404 87.308 320.396 87.91 320.27 89.674H324.554C324.596 88.008 323.616 87.308 322.524 87.308ZM330.165 86.468C331.131 86.468 331.831 87.112 331.831 88.372V89.1L330.963 89.268V88.54C330.963 87.798 330.711 87.308 329.955 87.308C329.101 87.308 328.457 87.938 328.457 89.436V94H327.505V86.58H328.457V87.504C328.849 86.804 329.507 86.468 330.165 86.468ZM333.074 88.512C333.074 87.336 334.18 86.468 335.734 86.468C337.078 86.468 338.114 87.112 338.422 88.092L337.638 88.4C337.344 87.686 336.658 87.308 335.706 87.308C334.67 87.308 333.998 87.742 333.998 88.428C333.998 89.044 334.404 89.422 335.286 89.604L336.266 89.8C337.89 90.122 338.646 90.822 338.646 91.928C338.646 93.216 337.498 94.112 335.846 94.112C334.348 94.112 333.298 93.524 332.794 92.404L333.606 92.068C333.956 92.852 334.726 93.272 335.818 93.272C336.966 93.272 337.722 92.768 337.722 92.012C337.722 91.312 337.33 90.934 336.35 90.724L335.146 90.472C333.788 90.192 333.074 89.506 333.074 88.512ZM343.348 94.112C341.514 94.112 340.044 92.6 340.044 90.276C340.044 87.98 341.5 86.468 343.348 86.468C345.196 86.468 346.652 87.98 346.652 90.276C346.652 92.6 345.182 94.112 343.348 94.112ZM343.348 93.272C344.622 93.272 345.672 92.264 345.672 90.276C345.672 88.302 344.608 87.308 343.348 87.308C342.088 87.308 341.024 88.302 341.024 90.276C341.024 92.264 342.074 93.272 343.348 93.272ZM351.695 86.468C353.179 86.468 354.047 87.378 354.047 89.044V94H353.095V89.184C353.095 87.84 352.479 87.336 351.443 87.336C350.141 87.336 349.539 88.344 349.539 89.828V94H348.587V86.58H349.539V87.728C349.987 86.916 350.799 86.468 351.695 86.468ZM359.447 86.468C360.931 86.468 361.799 87.378 361.799 89.044V94H360.847V89.184C360.847 87.84 360.231 87.336 359.195 87.336C357.893 87.336 357.291 88.344 357.291 89.828V94H356.339V86.58H357.291V87.728C357.739 86.916 358.551 86.468 359.447 86.468ZM368.403 86.58H369.355V94H368.403V92.866C367.955 93.664 367.171 94.112 366.261 94.112C364.805 94.112 363.923 93.174 363.923 91.564V86.58H364.875V91.48C364.875 92.698 365.491 93.258 366.527 93.258C367.843 93.258 368.403 92.208 368.403 90.752V86.58ZM379.098 86.468C380.512 86.468 381.338 87.364 381.338 88.904V94H380.386V89.044C380.386 87.84 379.812 87.336 378.846 87.336C377.544 87.336 376.998 88.344 376.998 89.828V94H376.046V89.044C376.046 87.84 375.472 87.336 374.506 87.336C373.204 87.336 372.658 88.344 372.658 89.828V94H371.706V86.58H372.658V87.742C373.106 86.916 373.89 86.468 374.758 86.468C375.864 86.468 376.606 87.014 376.872 87.98C377.292 87 378.146 86.468 379.098 86.468ZM391.02 86.468C392.434 86.468 393.26 87.364 393.26 88.904V94H392.308V89.044C392.308 87.84 391.734 87.336 390.768 87.336C389.466 87.336 388.92 88.344 388.92 89.828V94H387.968V89.044C387.968 87.84 387.394 87.336 386.428 87.336C385.126 87.336 384.58 88.344 384.58 89.828V94H383.628V86.58H384.58V87.742C385.028 86.916 385.812 86.468 386.68 86.468C387.786 86.468 388.528 87.014 388.794 87.98C389.214 87 390.068 86.468 391.02 86.468ZM400.618 91.9L401.318 92.292C400.968 93.188 400.044 94.112 398.392 94.112C396.306 94.112 395.074 92.558 395.074 90.192C395.074 88.022 396.362 86.468 398.294 86.468C399.89 86.468 401.262 87.616 401.262 89.632L401.234 90.458H396.04C396.124 92.432 397.062 93.272 398.49 93.272C399.61 93.272 400.268 92.628 400.618 91.9ZM398.294 87.308C397.174 87.308 396.166 87.91 396.04 89.674H400.324C400.366 88.008 399.386 87.308 398.294 87.308ZM405.934 86.468C406.9 86.468 407.6 87.112 407.6 88.372V89.1L406.732 89.268V88.54C406.732 87.798 406.48 87.308 405.724 87.308C404.87 87.308 404.226 87.938 404.226 89.436V94H403.274V86.58H404.226V87.504C404.618 86.804 405.276 86.468 405.934 86.468ZM414.883 82.8H415.807C414.799 85.04 414.295 87.238 414.295 89.478C414.295 91.718 414.799 93.874 415.807 96.1H414.883C413.833 93.874 413.315 91.732 413.315 89.478C413.315 87.224 413.847 85.026 414.883 82.8ZM421.727 93.188H424.023V94H418.367V93.188H420.775V84.732L418.507 86.3V85.264L420.831 83.64H421.727V93.188ZM430.682 93.188H432.978V94H427.322V93.188H429.73V84.732L427.462 86.3V85.264L429.786 83.64H430.682V93.188ZM438.949 88.512C438.949 87.336 440.055 86.468 441.609 86.468C442.953 86.468 443.989 87.112 444.297 88.092L443.513 88.4C443.219 87.686 442.533 87.308 441.581 87.308C440.545 87.308 439.873 87.742 439.873 88.428C439.873 89.044 440.279 89.422 441.161 89.604L442.141 89.8C443.765 90.122 444.521 90.822 444.521 91.928C444.521 93.216 443.373 94.112 441.721 94.112C440.223 94.112 439.173 93.524 438.669 92.404L439.481 92.068C439.831 92.852 440.601 93.272 441.693 93.272C442.841 93.272 443.597 92.768 443.597 92.012C443.597 91.312 443.205 90.934 442.225 90.724L441.021 90.472C439.663 90.192 438.949 89.506 438.949 88.512ZM446.871 85.236C446.409 85.236 446.031 84.872 446.031 84.396C446.031 83.92 446.409 83.556 446.871 83.556C447.333 83.556 447.711 83.92 447.711 84.396C447.711 84.872 447.333 85.236 446.871 85.236ZM446.395 94V86.58H447.347V94H446.395ZM451.243 85.544V86.58H453.315V87.364H451.243V94H450.291V87.364H448.891V86.58H450.291V85.544C450.291 84.256 451.131 83.528 452.279 83.528C452.811 83.528 453.427 83.738 453.777 84.298L453.203 84.872C452.979 84.536 452.643 84.34 452.251 84.34C451.761 84.34 451.243 84.634 451.243 85.544ZM456.247 85.544V86.58H458.319V87.364H456.247V94H455.295V87.364H453.895V86.58H455.295V85.544C455.295 84.256 456.135 83.528 457.283 83.528C457.815 83.528 458.431 83.738 458.781 84.298L458.207 84.872C457.983 84.536 457.647 84.34 457.255 84.34C456.765 84.34 456.247 84.634 456.247 85.544ZM464.411 91.9L465.111 92.292C464.761 93.188 463.837 94.112 462.185 94.112C460.099 94.112 458.867 92.558 458.867 90.192C458.867 88.022 460.155 86.468 462.087 86.468C463.683 86.468 465.055 87.616 465.055 89.632L465.027 90.458H459.833C459.917 92.432 460.855 93.272 462.283 93.272C463.403 93.272 464.061 92.628 464.411 91.9ZM462.087 87.308C460.967 87.308 459.959 87.91 459.833 89.674H464.117C464.159 88.008 463.179 87.308 462.087 87.308ZM469.727 86.468C470.693 86.468 471.393 87.112 471.393 88.372V89.1L470.525 89.268V88.54C470.525 87.798 470.273 87.308 469.517 87.308C468.663 87.308 468.019 87.938 468.019 89.436V94H467.067V86.58H468.019V87.504C468.411 86.804 469.069 86.468 469.727 86.468ZM473.806 96.1H472.882C473.89 93.86 474.394 91.662 474.394 89.422C474.394 87.182 473.89 85.026 472.882 82.8H473.806C474.856 85.026 475.374 87.168 475.374 89.422C475.374 91.676 474.842 93.874 473.806 96.1Z" fill="#2A2859"/>
<rect x="117" y="109" width="398" height="46" fill="white"/>
<rect x="117" y="109" width="398" height="46" stroke="#FF8274" stroke-width="2"/>
<path d="M135.276 136.848H142.296V138H133.584V137.064L138.372 131.736C139.794 130.17 140.388 129.306 140.388 128.1C140.388 126.75 139.488 125.652 137.724 125.652C136.356 125.652 135.186 126.264 134.592 127.938L133.476 127.56C134.34 125.364 135.888 124.536 137.778 124.536C140.352 124.536 141.648 126.3 141.648 127.992C141.648 129.468 141.09 130.458 139.218 132.528L135.276 136.848ZM149.074 138.144C146.446 138.144 144.214 135.66 144.214 131.34C144.214 127.02 146.428 124.536 149.074 124.536C151.72 124.536 153.934 127.02 153.934 131.34C153.934 135.66 151.702 138.144 149.074 138.144ZM149.074 136.956C151.054 136.956 152.674 135.318 152.674 131.34C152.674 127.452 151.072 125.724 149.074 125.724C147.076 125.724 145.474 127.452 145.474 131.34C145.474 135.318 147.094 136.956 149.074 136.956ZM164.793 138.144C162.165 138.144 159.933 135.66 159.933 131.34C159.933 127.02 162.147 124.536 164.793 124.536C167.439 124.536 169.653 127.02 169.653 131.34C169.653 135.66 167.421 138.144 164.793 138.144ZM164.793 136.956C166.773 136.956 168.393 135.318 168.393 131.34C168.393 127.452 166.791 125.724 164.793 125.724C162.795 125.724 161.193 127.452 161.193 131.34C161.193 135.318 162.813 136.956 164.793 136.956ZM178.158 130.962C179.49 131.412 180.534 132.528 180.534 134.256C180.534 136.398 178.752 138.144 175.908 138.144C174.198 138.144 172.542 137.496 171.282 135.696L172.218 134.94C173.208 136.38 174.342 137.028 176.016 137.028C178.068 137.028 179.31 135.786 179.31 134.256C179.31 133.158 178.86 132.51 178.212 132.114C177.69 131.808 177.222 131.664 176.358 131.664H174.576V130.584H175.944C177.024 130.584 177.438 130.422 177.924 130.044C178.464 129.612 178.788 128.928 178.788 128.1C178.788 126.624 177.672 125.652 175.872 125.652C174.468 125.652 173.28 126.3 172.632 128.01L171.552 127.632C172.47 125.436 174.036 124.536 175.944 124.536C178.644 124.536 179.976 126.318 179.976 128.064C179.976 129.36 179.22 130.44 178.158 130.962ZM189.342 136.848H196.362V138H187.65V137.064L192.438 131.736C193.86 130.17 194.454 129.306 194.454 128.1C194.454 126.75 193.554 125.652 191.79 125.652C190.422 125.652 189.252 126.264 188.658 127.938L187.542 127.56C188.406 125.364 189.954 124.536 191.844 124.536C194.418 124.536 195.714 126.3 195.714 127.992C195.714 129.468 195.156 130.458 193.284 132.528L189.342 136.848ZM200.655 136.848H207.675V138H198.963V137.064L203.751 131.736C205.173 130.17 205.767 129.306 205.767 128.1C205.767 126.75 204.867 125.652 203.103 125.652C201.735 125.652 200.565 126.264 199.971 127.938L198.855 127.56C199.719 125.364 201.267 124.536 203.157 124.536C205.731 124.536 207.027 126.3 207.027 127.992C207.027 129.468 206.469 130.458 204.597 132.528L200.655 136.848Z" fill="#666666"/>
<mask id="path-6-inside-1_6417_11105" fill="white">
<path d="M116 164H516V212H116V164Z"/>
</mask>
<path d="M116 164H516V212H116V164Z" fill="#FFDFDC"/>
<path d="M120 212V164H112V212H120Z" fill="#FF8274" mask="url(#path-6-inside-1_6417_11105)"/>
<path d="M147.188 180.747L151.375 188L147.188 195.253H138.814L134.627 188L138.814 180.747H147.188M148.096 179.18H137.907L132.812 188L137.907 196.821H148.096L153.19 188L148.096 179.18V179.18ZM146.528 185.36L145.655 184.487L143.008 187.134L140.354 184.48L139.481 185.353L142.135 188.007L139.488 190.654L140.361 191.527L143.008 188.88L145.648 191.52L146.521 190.647L143.881 188.007L146.528 185.36V185.36Z" fill="#2A2859"/>
<path d="M163.408 194V182.16H167.28C170.208 182.16 172.464 184.448 172.464 188.016C172.464 191.584 170.208 194 167.28 194H163.408ZM164.528 192.976H167.056C169.52 192.976 171.312 191.312 171.312 188.016C171.312 184.752 169.504 183.184 167.024 183.184H164.528V192.976ZM179.37 185.52H180.458V194H179.37V192.704C178.858 193.616 177.962 194.128 176.922 194.128C175.258 194.128 174.25 193.056 174.25 191.216V185.52H175.338V191.12C175.338 192.512 176.042 193.152 177.226 193.152C178.73 193.152 179.37 191.952 179.37 190.288V185.52ZM195.286 185.392C196.903 185.392 197.847 186.416 197.847 188.176V194H196.759V188.336C196.759 186.96 196.102 186.384 194.998 186.384C193.51 186.384 192.886 187.536 192.886 189.232V194H191.799V188.336C191.799 186.96 191.142 186.384 190.038 186.384C188.55 186.384 187.926 187.536 187.926 189.232V194H186.838V185.52H187.926V186.848C188.438 185.904 189.334 185.392 190.326 185.392C191.59 185.392 192.438 186.016 192.742 187.12C193.222 186 194.198 185.392 195.286 185.392ZM203.288 184.624C202.248 184.624 201.4 183.856 201.4 182.8C201.4 181.744 202.248 180.976 203.288 180.976C204.328 180.976 205.176 181.744 205.176 182.8C205.176 183.856 204.328 184.624 203.288 184.624ZM203.288 181.712C202.68 181.712 202.2 182.096 202.2 182.8C202.2 183.52 202.68 183.888 203.288 183.888C203.896 183.888 204.376 183.52 204.376 182.8C204.376 182.096 203.896 181.712 203.288 181.712ZM206.584 194H205.592C205.464 193.536 205.368 192.976 205.368 192.336C204.936 193.328 203.832 194.128 202.456 194.128C200.952 194.128 199.816 193.152 199.816 191.696C199.816 189.952 201.384 189.04 203.128 189.04C203.816 189.04 204.488 189.12 205.176 189.36V188.24C205.176 187.136 204.504 186.384 203.192 186.384C202.136 186.384 201.24 186.848 200.792 188.144L199.832 187.856C200.472 186.064 201.768 185.392 203.256 185.392C205.352 185.392 206.232 186.656 206.232 188.112V191.6C206.232 192.56 206.392 193.424 206.584 194ZM205.176 190.48V190.288C204.52 190.016 203.848 189.936 203.192 189.936C201.912 189.936 200.904 190.512 200.904 191.632C200.904 192.656 201.624 193.2 202.648 193.2C203.752 193.2 205.176 192.544 205.176 190.48ZM212.26 187.728C212.26 186.384 213.524 185.392 215.3 185.392C216.836 185.392 218.02 186.128 218.372 187.248L217.476 187.6C217.14 186.784 216.356 186.352 215.268 186.352C214.084 186.352 213.316 186.848 213.316 187.632C213.316 188.336 213.78 188.768 214.788 188.976L215.908 189.2C217.764 189.568 218.628 190.368 218.628 191.632C218.628 193.104 217.316 194.128 215.428 194.128C213.716 194.128 212.516 193.456 211.94 192.176L212.868 191.792C213.268 192.688 214.148 193.168 215.396 193.168C216.708 193.168 217.572 192.592 217.572 191.728C217.572 190.928 217.124 190.496 216.004 190.256L214.628 189.968C213.076 189.648 212.26 188.864 212.26 187.728ZM225.85 194L222.73 189.792L221.69 190.784V194H220.602V182.16H221.69V189.504L225.722 185.52H227.162L223.466 189.072L227.226 194H225.85ZM231.738 185.392C232.842 185.392 233.642 186.128 233.642 187.568V188.4L232.65 188.592V187.76C232.65 186.912 232.362 186.352 231.498 186.352C230.522 186.352 229.786 187.072 229.786 188.784V194H228.698V185.52H229.786V186.576C230.234 185.776 230.986 185.392 231.738 185.392ZM236.136 183.984C235.608 183.984 235.176 183.568 235.176 183.024C235.176 182.48 235.608 182.064 236.136 182.064C236.664 182.064 237.096 182.48 237.096 183.024C237.096 183.568 236.664 183.984 236.136 183.984ZM235.592 194V185.52H236.68V194H235.592ZM244.643 185.52H245.763L242.435 194H241.475L238.147 185.52H239.331L241.987 192.8L244.643 185.52ZM252.702 191.6L253.502 192.048C253.102 193.072 252.046 194.128 250.158 194.128C247.774 194.128 246.366 192.352 246.366 189.648C246.366 187.168 247.838 185.392 250.046 185.392C251.87 185.392 253.438 186.704 253.438 189.008L253.406 189.952H247.47C247.566 192.208 248.638 193.168 250.27 193.168C251.55 193.168 252.302 192.432 252.702 191.6ZM250.046 186.352C248.766 186.352 247.614 187.04 247.47 189.056H252.366C252.414 187.152 251.294 186.352 250.046 186.352ZM259.144 182.224H260.808V183.856H259.144V182.224ZM259.432 194V185.52H260.52V194H259.432ZM266.628 185.392C268.324 185.392 269.316 186.432 269.316 188.336V194H268.228V188.496C268.228 186.96 267.524 186.384 266.34 186.384C264.852 186.384 264.164 187.536 264.164 189.232V194H263.076V185.52H264.164V186.832C264.676 185.904 265.604 185.392 266.628 185.392ZM275.287 185.392C276.983 185.392 277.975 186.432 277.975 188.336V194H276.887V188.496C276.887 186.96 276.183 186.384 274.999 186.384C273.511 186.384 272.823 187.536 272.823 189.232V194H271.735V185.52H272.823V186.832C273.335 185.904 274.263 185.392 275.287 185.392ZM288.752 193.072H291.376V194H284.912V193.072H287.664V183.408L285.072 185.2V184.016L287.728 182.16H288.752V193.072ZM298.787 193.072H301.411V194H294.947V193.072H297.699V183.408L295.107 185.2V184.016L297.763 182.16H298.787V193.072ZM307.835 187.728C307.835 186.384 309.099 185.392 310.875 185.392C312.411 185.392 313.595 186.128 313.947 187.248L313.051 187.6C312.715 186.784 311.931 186.352 310.843 186.352C309.659 186.352 308.891 186.848 308.891 187.632C308.891 188.336 309.355 188.768 310.363 188.976L311.483 189.2C313.339 189.568 314.203 190.368 314.203 191.632C314.203 193.104 312.891 194.128 311.003 194.128C309.291 194.128 308.091 193.456 307.515 192.176L308.443 191.792C308.843 192.688 309.723 193.168 310.971 193.168C312.283 193.168 313.147 192.592 313.147 191.728C313.147 190.928 312.699 190.496 311.579 190.256L310.203 189.968C308.651 189.648 307.835 188.864 307.835 187.728ZM316.689 183.984C316.161 183.984 315.729 183.568 315.729 183.024C315.729 182.48 316.161 182.064 316.689 182.064C317.217 182.064 317.649 182.48 317.649 183.024C317.649 183.568 317.217 183.984 316.689 183.984ZM316.145 194V185.52H317.233V194H316.145ZM321.485 184.336V185.52H323.853V186.416H321.485V194H320.397V186.416H318.797V185.52H320.397V184.336C320.397 182.864 321.357 182.032 322.669 182.032C323.277 182.032 323.981 182.272 324.381 182.912L323.725 183.568C323.469 183.184 323.085 182.96 322.637 182.96C322.077 182.96 321.485 183.296 321.485 184.336ZM327.003 184.336V185.52H329.371V186.416H327.003V194H325.915V186.416H324.315V185.52H325.915V184.336C325.915 182.864 326.875 182.032 328.187 182.032C328.795 182.032 329.499 182.272 329.899 182.912L329.243 183.568C328.987 183.184 328.603 182.96 328.155 182.96C327.595 182.96 327.003 183.296 327.003 184.336ZM336.134 191.6L336.934 192.048C336.534 193.072 335.478 194.128 333.59 194.128C331.206 194.128 329.798 192.352 329.798 189.648C329.798 187.168 331.27 185.392 333.478 185.392C335.302 185.392 336.87 186.704 336.87 189.008L336.838 189.952H330.902C330.998 192.208 332.07 193.168 333.702 193.168C334.982 193.168 335.734 192.432 336.134 191.6ZM333.478 186.352C332.198 186.352 331.046 187.04 330.902 189.056H335.798C335.846 187.152 334.726 186.352 333.478 186.352ZM342.01 185.392C343.114 185.392 343.914 186.128 343.914 187.568V188.4L342.922 188.592V187.76C342.922 186.912 342.634 186.352 341.77 186.352C340.794 186.352 340.058 187.072 340.058 188.784V194H338.97V185.52H340.058V186.576C340.506 185.776 341.258 185.392 342.01 185.392Z" fill="#2A2859"/>
</svg>
