<svg width="1207" height="254" viewBox="0 0 1207 254" fill="none" xmlns="http://www.w3.org/2000/svg">
<rect width="1207" height="254" fill="white"/>
<mask id="path-1-inside-1_6398_16045" fill="white">
<path d="M50 62H632V136H50V62Z"/>
</mask>
<path d="M50 62H632V136H50V62Z" fill="#D1F9FF"/>
<path d="M54 136V62H46V136H54Z" fill="#6FE9FF" mask="url(#path-1-inside-1_6398_16045)"/>
<path fill-rule="evenodd" clip-rule="evenodd" d="M90 83.5C92.9667 83.5 95.8668 84.3797 98.3336 86.028C100.8 87.6762 102.723 90.0189 103.858 92.7597C104.994 95.5006 105.291 98.5166 104.712 101.426C104.133 104.336 102.704 107.009 100.607 109.107C98.5088 111.204 95.8361 112.633 92.9264 113.212C90.0166 113.791 87.0006 113.494 84.2597 112.358C81.5189 111.223 79.1762 109.3 77.528 106.834C75.8797 104.367 75 101.467 75 98.5C75 94.5218 76.5804 90.7064 79.3934 87.8934C82.2064 85.0804 86.0218 83.5 90 83.5ZM90 85.5C87.4288 85.5 84.9154 86.2624 82.7776 87.6909C80.6397 89.1194 78.9735 91.1497 77.9896 93.5251C77.0056 95.9006 76.7482 98.5144 77.2498 101.036C77.7514 103.558 78.9895 105.874 80.8076 107.692C82.6257 109.51 84.9421 110.749 87.4638 111.25C89.9856 111.752 92.5994 111.494 94.9749 110.51C97.3503 109.526 99.3806 107.86 100.809 105.722C102.238 103.585 103 101.071 103 98.5C103 95.0522 101.63 91.7456 99.1924 89.3076C96.7544 86.8696 93.4478 85.5 90 85.5Z" fill="#2A2859"/>
<path d="M88.1514 91.1092C88.1447 90.6337 88.3272 90.175 88.6587 89.834C88.9902 89.4931 89.4436 89.2978 89.9191 89.2911C89.9359 89.2909 89.9526 89.2909 89.9694 89.2911C90.4399 89.2854 90.8934 89.4668 91.2301 89.7955C91.5668 90.1241 91.7592 90.5731 91.7649 91.0435C91.7652 91.0654 91.765 91.0873 91.7645 91.1092C91.7703 91.342 91.7301 91.5736 91.6464 91.7909C91.5626 92.0082 91.4369 92.2069 91.2763 92.3756C91.1158 92.5443 90.9236 92.6797 90.7107 92.7741C90.4978 92.8685 90.2684 92.9201 90.0356 92.9259C90.0136 92.9264 89.9915 92.9265 89.9694 92.9263C89.734 92.9297 89.5003 92.8867 89.2816 92.7998C89.0629 92.7128 88.8634 92.5837 88.6946 92.4197C88.5258 92.2557 88.3909 92.06 88.2977 91.8439C88.2045 91.6278 88.1548 91.3954 88.1514 91.1601C88.1511 91.1431 88.1511 91.1261 88.1514 91.1092ZM88.681 94.9514H91.2578V107.146H88.681L88.681 94.9514Z" fill="#2A2859"/>
<path d="M138.226 98.962C139.594 99.376 140.764 100.672 140.764 102.31C140.764 104.002 139.612 106 136.444 106H131.584V92.68H136.012C139.054 92.68 140.152 94.354 140.152 96.172C140.152 97.234 139.576 98.476 138.226 98.962ZM136.012 93.796H132.844V98.656H136.282C138.064 98.656 138.856 97.756 138.856 96.172C138.856 94.876 138.064 93.796 136.012 93.796ZM136.372 104.884C138.55 104.884 139.432 103.948 139.432 102.382C139.432 100.69 138.334 99.736 136.552 99.736H132.844V104.884H136.372ZM146.405 96.316C147.647 96.316 148.547 97.144 148.547 98.764V99.7L147.431 99.916V98.98C147.431 98.026 147.107 97.396 146.135 97.396C145.037 97.396 144.209 98.206 144.209 100.132V106H142.985V96.46H144.209V97.648C144.713 96.748 145.559 96.316 146.405 96.316ZM156.133 96.46H157.357V106H156.133V104.542C155.557 105.568 154.549 106.144 153.379 106.144C151.507 106.144 150.373 104.938 150.373 102.868V96.46H151.597V102.76C151.597 104.326 152.389 105.046 153.721 105.046C155.413 105.046 156.133 103.696 156.133 101.824V96.46ZM166.12 106L162.61 101.266L161.44 102.382V106H160.216V92.68H161.44V100.942L165.976 96.46H167.596L163.438 100.456L167.668 106H166.12ZM180.519 92.68H181.743V106H180.519V104.218C179.889 105.442 178.629 106.126 177.387 106.126C174.957 106.126 173.319 104.092 173.319 101.32C173.319 98.386 174.975 96.316 177.531 96.316C178.863 96.316 179.943 96.982 180.519 98.188V92.68ZM177.513 105.046C179.421 105.046 180.519 103.624 180.519 101.284C180.519 98.8 179.439 97.396 177.531 97.396C175.749 97.396 174.579 98.764 174.579 101.266C174.579 103.678 175.749 105.046 177.513 105.046ZM191.075 103.3L191.975 103.804C191.525 104.956 190.337 106.144 188.213 106.144C185.531 106.144 183.947 104.146 183.947 101.104C183.947 98.314 185.603 96.316 188.087 96.316C190.139 96.316 191.903 97.792 191.903 100.384L191.867 101.446H185.189C185.297 103.984 186.503 105.064 188.339 105.064C189.779 105.064 190.625 104.236 191.075 103.3ZM188.087 97.396C186.647 97.396 185.351 98.17 185.189 100.438H190.697C190.751 98.296 189.491 97.396 188.087 97.396ZM196.023 103.624C196.023 104.74 196.689 105.064 197.283 105.064C197.859 105.064 198.237 104.848 198.687 104.38L199.335 105.1C198.705 105.838 198.021 106.144 197.175 106.144C195.879 106.144 194.799 105.28 194.799 103.588V97.468H192.999V96.46H194.799V94.408L196.023 93.688V96.46H199.119V97.468H196.023V103.624ZM202.784 103.624C202.784 104.74 203.45 105.064 204.044 105.064C204.62 105.064 204.998 104.848 205.448 104.38L206.096 105.1C205.466 105.838 204.782 106.144 203.936 106.144C202.64 106.144 201.56 105.28 201.56 103.588V97.468H199.76V96.46H201.56V94.408L202.784 93.688V96.46H205.88V97.468H202.784V103.624ZM213.959 103.3L214.859 103.804C214.409 104.956 213.221 106.144 211.097 106.144C208.415 106.144 206.831 104.146 206.831 101.104C206.831 98.314 208.487 96.316 210.971 96.316C213.023 96.316 214.787 97.792 214.787 100.384L214.751 101.446H208.073C208.181 103.984 209.387 105.064 211.223 105.064C212.663 105.064 213.509 104.236 213.959 103.3ZM210.971 97.396C209.531 97.396 208.235 98.17 208.073 100.438H213.581C213.635 98.296 212.375 97.396 210.971 97.396ZM223.488 103.624C223.488 104.74 224.154 105.064 224.748 105.064C225.324 105.064 225.702 104.848 226.152 104.38L226.8 105.1C226.17 105.838 225.486 106.144 224.64 106.144C223.344 106.144 222.264 105.28 222.264 103.588V97.468H220.464V96.46H222.264V94.408L223.488 93.688V96.46H226.584V97.468H223.488V103.624ZM234.664 103.3L235.564 103.804C235.114 104.956 233.926 106.144 231.802 106.144C229.12 106.144 227.536 104.146 227.536 101.104C227.536 98.314 229.192 96.316 231.676 96.316C233.728 96.316 235.492 97.792 235.492 100.384L235.456 101.446H228.778C228.886 103.984 230.092 105.064 231.928 105.064C233.368 105.064 234.214 104.236 234.664 103.3ZM231.676 97.396C230.236 97.396 228.94 98.17 228.778 100.438H234.286C234.34 98.296 233.08 97.396 231.676 97.396ZM243.82 106L240.31 101.266L239.14 102.382V106H237.916V92.68H239.14V100.942L243.676 96.46H245.296L241.138 100.456L245.368 106H243.82ZM246.212 98.944C246.212 97.432 247.634 96.316 249.632 96.316C251.36 96.316 252.692 97.144 253.088 98.404L252.08 98.8C251.702 97.882 250.82 97.396 249.596 97.396C248.264 97.396 247.4 97.954 247.4 98.836C247.4 99.628 247.922 100.114 249.056 100.348L250.316 100.6C252.404 101.014 253.376 101.914 253.376 103.336C253.376 104.992 251.9 106.144 249.776 106.144C247.85 106.144 246.5 105.388 245.852 103.948L246.896 103.516C247.346 104.524 248.336 105.064 249.74 105.064C251.216 105.064 252.188 104.416 252.188 103.444C252.188 102.544 251.684 102.058 250.424 101.788L248.876 101.464C247.13 101.104 246.212 100.222 246.212 98.944ZM257.317 103.624C257.317 104.74 257.983 105.064 258.577 105.064C259.153 105.064 259.531 104.848 259.981 104.38L260.629 105.1C259.999 105.838 259.315 106.144 258.469 106.144C257.173 106.144 256.093 105.28 256.093 103.588V97.468H254.293V96.46H256.093V94.408L257.317 93.688V96.46H260.413V97.468H257.317V103.624ZM264.078 95.128V96.46H266.742V97.468H264.078V106H262.854V97.468H261.054V96.46H262.854V95.128C262.854 93.472 263.934 92.536 265.41 92.536C266.094 92.536 266.886 92.806 267.336 93.526L266.598 94.264C266.31 93.832 265.878 93.58 265.374 93.58C264.744 93.58 264.078 93.958 264.078 95.128ZM274.375 103.3L275.275 103.804C274.825 104.956 273.637 106.144 271.513 106.144C268.831 106.144 267.247 104.146 267.247 101.104C267.247 98.314 268.903 96.316 271.387 96.316C273.439 96.316 275.203 97.792 275.203 100.384L275.167 101.446H268.489C268.597 103.984 269.803 105.064 271.639 105.064C273.079 105.064 273.925 104.236 274.375 103.3ZM271.387 97.396C269.947 97.396 268.651 98.17 268.489 100.438H273.997C274.051 98.296 272.791 97.396 271.387 97.396ZM280.579 105.964C280.291 106.036 280.057 106.072 279.787 106.072C278.293 106.072 277.591 105.136 277.591 103.732V92.68H278.815V103.732C278.815 104.542 279.247 104.956 280.003 104.956C280.201 104.956 280.399 104.938 280.579 104.884V105.964ZM284.343 103.624C284.343 104.74 285.009 105.064 285.603 105.064C286.179 105.064 286.557 104.848 287.007 104.38L287.655 105.1C287.025 105.838 286.341 106.144 285.495 106.144C284.199 106.144 283.119 105.28 283.119 103.588V97.468H281.319V96.46H283.119V94.408L284.343 93.688V96.46H287.439V97.468H284.343V103.624ZM295.519 103.3L296.419 103.804C295.969 104.956 294.781 106.144 292.657 106.144C289.975 106.144 288.391 104.146 288.391 101.104C288.391 98.314 290.047 96.316 292.531 96.316C294.583 96.316 296.347 97.792 296.347 100.384L296.311 101.446H289.633C289.741 103.984 290.947 105.064 292.783 105.064C294.223 105.064 295.069 104.236 295.519 103.3ZM292.531 97.396C291.091 97.396 289.795 98.17 289.633 100.438H295.141C295.195 98.296 293.935 97.396 292.531 97.396ZM300.467 103.624C300.467 104.74 301.133 105.064 301.727 105.064C302.303 105.064 302.681 104.848 303.131 104.38L303.779 105.1C303.149 105.838 302.465 106.144 301.619 106.144C300.323 106.144 299.243 105.28 299.243 103.588V97.468H297.443V96.46H299.243V94.408L300.467 93.688V96.46H303.563V97.468H300.467V103.624ZM311.985 103.624C311.985 104.74 312.651 105.064 313.245 105.064C313.821 105.064 314.199 104.848 314.649 104.38L315.297 105.1C314.667 105.838 313.983 106.144 313.137 106.144C311.841 106.144 310.761 105.28 310.761 103.588V97.468H308.961V96.46H310.761V94.408L311.985 93.688V96.46H315.081V97.468H311.985V103.624ZM317.801 94.732C317.207 94.732 316.721 94.264 316.721 93.652C316.721 93.04 317.207 92.572 317.801 92.572C318.395 92.572 318.881 93.04 318.881 93.652C318.881 94.264 318.395 94.732 317.801 94.732ZM317.189 106V96.46H318.413V106H317.189ZM324.302 105.964C324.014 106.036 323.78 106.072 323.51 106.072C322.016 106.072 321.314 105.136 321.314 103.732V92.68H322.538V103.732C322.538 104.542 322.97 104.956 323.726 104.956C323.924 104.956 324.122 104.938 324.302 104.884V105.964ZM334.142 95.452C332.972 95.452 332.018 94.588 332.018 93.4C332.018 92.212 332.972 91.348 334.142 91.348C335.312 91.348 336.266 92.212 336.266 93.4C336.266 94.588 335.312 95.452 334.142 95.452ZM334.142 92.176C333.458 92.176 332.918 92.608 332.918 93.4C332.918 94.21 333.458 94.624 334.142 94.624C334.826 94.624 335.366 94.21 335.366 93.4C335.366 92.608 334.826 92.176 334.142 92.176ZM337.85 106H336.734C336.59 105.478 336.482 104.848 336.482 104.128C335.996 105.244 334.754 106.144 333.206 106.144C331.514 106.144 330.236 105.046 330.236 103.408C330.236 101.446 332 100.42 333.962 100.42C334.736 100.42 335.492 100.51 336.266 100.78V99.52C336.266 98.278 335.51 97.432 334.034 97.432C332.846 97.432 331.838 97.954 331.334 99.412L330.254 99.088C330.974 97.072 332.432 96.316 334.106 96.316C336.464 96.316 337.454 97.738 337.454 99.376V103.3C337.454 104.38 337.634 105.352 337.85 106ZM336.266 102.04V101.824C335.528 101.518 334.772 101.428 334.034 101.428C332.594 101.428 331.46 102.076 331.46 103.336C331.46 104.488 332.27 105.1 333.422 105.1C334.664 105.1 336.266 104.362 336.266 102.04ZM344.286 98.944C344.286 97.432 345.708 96.316 347.706 96.316C349.434 96.316 350.766 97.144 351.162 98.404L350.154 98.8C349.776 97.882 348.894 97.396 347.67 97.396C346.338 97.396 345.474 97.954 345.474 98.836C345.474 99.628 345.996 100.114 347.13 100.348L348.39 100.6C350.478 101.014 351.45 101.914 351.45 103.336C351.45 104.992 349.974 106.144 347.85 106.144C345.924 106.144 344.574 105.388 343.926 103.948L344.97 103.516C345.42 104.524 346.41 105.064 347.814 105.064C349.29 105.064 350.262 104.416 350.262 103.444C350.262 102.544 349.758 102.058 348.498 101.788L346.95 101.464C345.204 101.104 344.286 100.222 344.286 98.944ZM359.599 106L356.089 101.266L354.919 102.382V106H353.695V92.68H354.919V100.942L359.455 96.46H361.075L356.917 100.456L361.147 106H359.599ZM366.248 96.316C367.49 96.316 368.39 97.144 368.39 98.764V99.7L367.274 99.916V98.98C367.274 98.026 366.95 97.396 365.978 97.396C364.88 97.396 364.052 98.206 364.052 100.132V106H362.828V96.46H364.052V97.648C364.556 96.748 365.402 96.316 366.248 96.316ZM370.285 92.752H372.157V94.588H370.285V92.752ZM370.609 106V96.46H371.833V106H370.609ZM380.817 96.46H382.077L378.333 106H377.253L373.509 96.46H374.841L377.829 104.65L380.817 96.46ZM389.909 103.3L390.809 103.804C390.359 104.956 389.171 106.144 387.047 106.144C384.365 106.144 382.781 104.146 382.781 101.104C382.781 98.314 384.437 96.316 386.921 96.316C388.973 96.316 390.737 97.792 390.737 100.384L390.701 101.446H384.023C384.131 103.984 385.337 105.064 387.173 105.064C388.613 105.064 389.459 104.236 389.909 103.3ZM386.921 97.396C385.481 97.396 384.185 98.17 384.023 100.438H389.531C389.585 98.296 388.325 97.396 386.921 97.396ZM404.046 103.3L404.946 103.804C404.496 104.956 403.308 106.144 401.184 106.144C398.502 106.144 396.918 104.146 396.918 101.104C396.918 98.314 398.574 96.316 401.058 96.316C403.11 96.316 404.874 97.792 404.874 100.384L404.838 101.446H398.16C398.268 103.984 399.474 105.064 401.31 105.064C402.75 105.064 403.596 104.236 404.046 103.3ZM401.058 97.396C399.618 97.396 398.322 98.17 398.16 100.438H403.668C403.722 98.296 402.462 97.396 401.058 97.396ZM411.257 96.316C413.165 96.316 414.281 97.486 414.281 99.628V106H413.057V99.808C413.057 98.08 412.265 97.432 410.933 97.432C409.259 97.432 408.485 98.728 408.485 100.636V106H407.261V96.46H408.485V97.936C409.061 96.892 410.105 96.316 411.257 96.316ZM427.374 106L423.864 101.266L422.694 102.382V106H421.47V92.68H422.694V100.942L427.23 96.46H428.85L424.692 100.456L428.922 106H427.374ZM433.694 106.144C431.336 106.144 429.446 104.2 429.446 101.212C429.446 98.26 431.318 96.316 433.694 96.316C436.07 96.316 437.942 98.26 437.942 101.212C437.942 104.2 436.052 106.144 433.694 106.144ZM433.694 105.064C435.332 105.064 436.682 103.768 436.682 101.212C436.682 98.674 435.314 97.396 433.694 97.396C432.074 97.396 430.706 98.674 430.706 101.212C430.706 103.768 432.056 105.064 433.694 105.064ZM443.649 96.316C444.891 96.316 445.791 97.144 445.791 98.764V99.7L444.675 99.916V98.98C444.675 98.026 444.351 97.396 443.379 97.396C442.281 97.396 441.453 98.206 441.453 100.132V106H440.229V96.46H441.453V97.648C441.957 96.748 442.803 96.316 443.649 96.316ZM449.742 103.624C449.742 104.74 450.408 105.064 451.002 105.064C451.578 105.064 451.956 104.848 452.406 104.38L453.054 105.1C452.424 105.838 451.74 106.144 450.894 106.144C449.598 106.144 448.518 105.28 448.518 103.588V97.468H446.718V96.46H448.518V94.408L449.742 93.688V96.46H452.838V97.468H449.742V103.624ZM465.436 96.46H466.696L462.952 106H461.872L458.128 96.46H459.46L462.448 104.65L465.436 96.46ZM475.121 106H474.005C473.861 105.478 473.753 104.848 473.753 104.128C473.267 105.244 472.025 106.144 470.477 106.144C468.785 106.144 467.507 105.046 467.507 103.408C467.507 101.446 469.271 100.42 471.233 100.42C472.007 100.42 472.763 100.51 473.537 100.78V99.52C473.537 98.278 472.781 97.432 471.305 97.432C470.117 97.432 469.109 97.954 468.605 99.412L467.525 99.088C468.245 97.072 469.703 96.316 471.377 96.316C473.735 96.316 474.725 97.738 474.725 99.376V103.3C474.725 104.38 474.905 105.352 475.121 106ZM473.537 102.04V101.824C472.799 101.518 472.043 101.428 471.305 101.428C469.865 101.428 468.731 102.076 468.731 103.336C468.731 104.488 469.541 105.1 470.693 105.1C471.935 105.1 473.537 104.362 473.537 102.04ZM481.039 96.316C482.281 96.316 483.181 97.144 483.181 98.764V99.7L482.065 99.916V98.98C482.065 98.026 481.741 97.396 480.769 97.396C479.671 97.396 478.843 98.206 478.843 100.132V106H477.619V96.46H478.843V97.648C479.347 96.748 480.193 96.316 481.039 96.316ZM484.58 98.944C484.58 97.432 486.002 96.316 488 96.316C489.728 96.316 491.06 97.144 491.456 98.404L490.448 98.8C490.07 97.882 489.188 97.396 487.964 97.396C486.632 97.396 485.768 97.954 485.768 98.836C485.768 99.628 486.29 100.114 487.424 100.348L488.684 100.6C490.772 101.014 491.744 101.914 491.744 103.336C491.744 104.992 490.268 106.144 488.144 106.144C486.218 106.144 484.868 105.388 484.22 103.948L485.264 103.516C485.714 104.524 486.704 105.064 488.108 105.064C489.584 105.064 490.556 104.416 490.556 103.444C490.556 102.544 490.052 102.058 488.792 101.788L487.244 101.464C485.498 101.104 484.58 100.222 484.58 98.944ZM496.942 105.964C496.654 106.036 496.42 106.072 496.15 106.072C494.656 106.072 493.954 105.136 493.954 103.732V92.68H495.178V103.732C495.178 104.542 495.61 104.956 496.366 104.956C496.564 104.956 496.762 104.938 496.942 104.884V105.964ZM499.587 94.732C498.993 94.732 498.507 94.264 498.507 93.652C498.507 93.04 498.993 92.572 499.587 92.572C500.181 92.572 500.667 93.04 500.667 93.652C500.667 94.264 500.181 94.732 499.587 94.732ZM498.975 106V96.46H500.199V106H498.975ZM507.095 96.316C509.003 96.316 510.119 97.486 510.119 99.628V106H508.895V99.808C508.895 98.08 508.103 97.432 506.771 97.432C505.097 97.432 504.323 98.728 504.323 100.636V106H503.099V96.46H504.323V97.936C504.899 96.892 505.943 96.316 507.095 96.316ZM521.434 97.468H519.382V97.81C519.85 98.386 520.102 99.106 520.102 99.808C520.102 101.554 518.842 103.336 516.16 103.336H515.746C514.666 103.336 513.892 103.75 513.892 104.38C513.892 104.866 514.27 105.208 515.062 105.208H518.932C520.48 105.208 521.272 105.964 521.272 107.152C521.272 109.042 519.094 110.032 516.412 110.032C514 110.032 512.326 109.258 511.75 107.584L512.74 107.134C513.406 108.7 514.81 109.006 516.412 109.006C518.392 109.006 520.048 108.412 520.048 107.26C520.048 106.72 519.76 106.324 518.896 106.324H514.792C513.46 106.324 512.668 105.694 512.668 104.704C512.668 103.858 513.37 103.12 514.54 102.814C513.28 102.31 512.578 100.978 512.578 99.808C512.578 98.098 513.856 96.316 516.376 96.316C517.366 96.316 518.122 96.64 518.698 97.126V96.46H521.434V97.468ZM516.358 102.328C518.05 102.328 518.896 101.158 518.896 99.808C518.896 98.476 518.05 97.36 516.358 97.36C514.648 97.36 513.784 98.494 513.784 99.808C513.784 101.14 514.648 102.328 516.358 102.328ZM522.894 103.984H524.838V106H522.894V103.984Z" fill="#2A2859"/>
<path fill-rule="evenodd" clip-rule="evenodd" d="M586.083 99L580.125 93.0417L581.042 92.125L587 98.0833L592.958 92.125L593.875 93.0417L587.917 99L593.875 104.958L592.958 105.875L587 99.9167L581.042 105.875L580.125 104.958L586.083 99Z" fill="#2A2859"/>
<g filter="url(#filter0_d_6398_16045)">
<mask id="path-6-inside-2_6398_16045" fill="white">
<path d="M689 75H1157V123H689V75Z"/>
</mask>
<path d="M689 75H1157V123H689V75Z" fill="#D1F9FF" shape-rendering="crispEdges"/>
<path d="M693 123V75H685V123H693Z" fill="#6FE9FF" mask="url(#path-6-inside-2_6398_16045)"/>
<g clip-path="url(#clip0_6398_16045)">
<path fill-rule="evenodd" clip-rule="evenodd" d="M717 87.75C719.225 87.75 721.4 88.4098 723.25 89.646C725.1 90.8821 726.542 92.6391 727.394 94.6948C728.245 96.7505 728.468 99.0125 728.034 101.195C727.6 103.377 726.528 105.382 724.955 106.955C723.382 108.528 721.377 109.6 719.195 110.034C717.012 110.468 714.75 110.245 712.695 109.394C710.639 108.542 708.882 107.1 707.646 105.25C706.41 103.4 705.75 101.225 705.75 99C705.75 96.0163 706.935 93.1548 709.045 91.045C711.155 88.9353 714.016 87.75 717 87.75ZM717 89.25C715.072 89.25 713.187 89.8218 711.583 90.8932C709.98 91.9645 708.73 93.4873 707.992 95.2688C707.254 97.0504 707.061 99.0108 707.437 100.902C707.814 102.793 708.742 104.531 710.106 105.894C711.469 107.258 713.207 108.186 715.098 108.563C716.989 108.939 718.95 108.746 720.731 108.008C722.513 107.27 724.035 106.02 725.107 104.417C726.178 102.813 726.75 100.928 726.75 99C726.75 96.4141 725.723 93.9342 723.894 92.1057C722.066 90.2772 719.586 89.25 717 89.25Z" fill="#2A2859"/>
<path d="M715.614 93.4569C715.609 93.1003 715.745 92.7562 715.994 92.5005C716.243 92.2448 716.583 92.0984 716.939 92.0933C716.952 92.0932 716.964 92.0932 716.977 92.0933C717.33 92.0891 717.67 92.2251 717.923 92.4716C718.175 92.7181 718.319 93.0548 718.324 93.4077C718.324 93.4241 718.324 93.4405 718.323 93.4569C718.328 93.6315 718.298 93.8052 718.235 93.9682C718.172 94.1312 718.078 94.2802 717.957 94.4067C717.837 94.5332 717.693 94.6348 717.533 94.7056C717.373 94.7764 717.201 94.8151 717.027 94.8194C717.01 94.8198 716.994 94.8199 716.977 94.8197C716.801 94.8223 716.625 94.79 716.461 94.7248C716.297 94.6596 716.148 94.5628 716.021 94.4398C715.894 94.3168 715.793 94.17 715.723 94.0079C715.653 93.8458 715.616 93.6716 715.614 93.4951C715.613 93.4823 715.613 93.4696 715.614 93.4569ZM716.011 96.3386H717.943V105.485H716.011L716.011 96.3386Z" fill="#2A2859"/>
</g>
<path d="M752.312 98.744C753.528 99.112 754.568 100.264 754.568 101.72C754.568 103.224 753.544 105 750.728 105H746.408V93.16H750.344C753.048 93.16 754.024 94.648 754.024 96.264C754.024 97.208 753.512 98.312 752.312 98.744ZM750.344 94.152H747.528V98.472H750.584C752.168 98.472 752.872 97.672 752.872 96.264C752.872 95.112 752.168 94.152 750.344 94.152ZM750.664 104.008C752.6 104.008 753.384 103.176 753.384 101.784C753.384 100.28 752.408 99.432 750.824 99.432H747.528V104.008H750.664ZM759.56 96.392C760.664 96.392 761.464 97.128 761.464 98.568V99.4L760.472 99.592V98.76C760.472 97.912 760.184 97.352 759.32 97.352C758.344 97.352 757.608 98.072 757.608 99.784V105H756.52V96.52H757.608V97.576C758.056 96.776 758.808 96.392 759.56 96.392ZM768.185 96.52H769.273V105H768.185V103.704C767.673 104.616 766.777 105.128 765.737 105.128C764.073 105.128 763.065 104.056 763.065 102.216V96.52H764.153V102.12C764.153 103.512 764.857 104.152 766.041 104.152C767.545 104.152 768.185 102.952 768.185 101.288V96.52ZM777.04 105L773.92 100.792L772.88 101.784V105H771.792V93.16H772.88V100.504L776.912 96.52H778.352L774.656 100.072L778.416 105H777.04ZM789.795 93.16H790.883V105H789.795V103.416C789.235 104.504 788.115 105.112 787.011 105.112C784.851 105.112 783.395 103.304 783.395 100.84C783.395 98.232 784.867 96.392 787.139 96.392C788.323 96.392 789.283 96.984 789.795 98.056V93.16ZM787.123 104.152C788.819 104.152 789.795 102.888 789.795 100.808C789.795 98.6 788.835 97.352 787.139 97.352C785.555 97.352 784.515 98.568 784.515 100.792C784.515 102.936 785.555 104.152 787.123 104.152ZM799.155 102.6L799.955 103.048C799.555 104.072 798.499 105.128 796.611 105.128C794.227 105.128 792.819 103.352 792.819 100.648C792.819 98.168 794.291 96.392 796.499 96.392C798.323 96.392 799.891 97.704 799.891 100.008L799.859 100.952H793.923C794.019 103.208 795.091 104.168 796.723 104.168C798.003 104.168 798.755 103.432 799.155 102.6ZM796.499 97.352C795.219 97.352 794.067 98.04 793.923 100.056H798.819C798.867 98.152 797.747 97.352 796.499 97.352ZM803.531 102.888C803.531 103.88 804.123 104.168 804.651 104.168C805.163 104.168 805.499 103.976 805.899 103.56L806.475 104.2C805.915 104.856 805.307 105.128 804.555 105.128C803.403 105.128 802.443 104.36 802.443 102.856V97.416H800.843V96.52H802.443V94.696L803.531 94.056V96.52H806.283V97.416H803.531V102.888ZM809.519 102.888C809.519 103.88 810.111 104.168 810.639 104.168C811.151 104.168 811.487 103.976 811.887 103.56L812.463 104.2C811.903 104.856 811.295 105.128 810.543 105.128C809.391 105.128 808.431 104.36 808.431 102.856V97.416H806.831V96.52H808.431V94.696L809.519 94.056V96.52H812.271V97.416H809.519V102.888ZM819.43 102.6L820.23 103.048C819.83 104.072 818.774 105.128 816.886 105.128C814.502 105.128 813.094 103.352 813.094 100.648C813.094 98.168 814.566 96.392 816.774 96.392C818.598 96.392 820.166 97.704 820.166 100.008L820.134 100.952H814.198C814.294 103.208 815.366 104.168 816.998 104.168C818.278 104.168 819.03 103.432 819.43 102.6ZM816.774 97.352C815.494 97.352 814.342 98.04 814.198 100.056H819.094C819.142 98.152 818.022 97.352 816.774 97.352ZM827.856 102.888C827.856 103.88 828.448 104.168 828.976 104.168C829.488 104.168 829.824 103.976 830.224 103.56L830.8 104.2C830.24 104.856 829.632 105.128 828.88 105.128C827.728 105.128 826.768 104.36 826.768 102.856V97.416H825.168V96.52H826.768V94.696L827.856 94.056V96.52H830.608V97.416H827.856V102.888ZM837.768 102.6L838.568 103.048C838.168 104.072 837.112 105.128 835.224 105.128C832.84 105.128 831.432 103.352 831.432 100.648C831.432 98.168 832.904 96.392 835.112 96.392C836.936 96.392 838.504 97.704 838.504 100.008L838.472 100.952H832.536C832.632 103.208 833.704 104.168 835.336 104.168C836.616 104.168 837.368 103.432 837.768 102.6ZM835.112 97.352C833.832 97.352 832.68 98.04 832.536 100.056H837.432C837.48 98.152 836.36 97.352 835.112 97.352ZM845.884 105L842.764 100.792L841.724 101.784V105H840.636V93.16H841.724V100.504L845.756 96.52H847.196L843.5 100.072L847.26 105H845.884ZM847.988 98.728C847.988 97.384 849.252 96.392 851.028 96.392C852.564 96.392 853.748 97.128 854.1 98.248L853.204 98.6C852.868 97.784 852.084 97.352 850.996 97.352C849.812 97.352 849.044 97.848 849.044 98.632C849.044 99.336 849.508 99.768 850.516 99.976L851.636 100.2C853.492 100.568 854.356 101.368 854.356 102.632C854.356 104.104 853.044 105.128 851.156 105.128C849.444 105.128 848.244 104.456 847.668 103.176L848.596 102.792C848.996 103.688 849.876 104.168 851.124 104.168C852.436 104.168 853.3 103.592 853.3 102.728C853.3 101.928 852.852 101.496 851.732 101.256L850.356 100.968C848.804 100.648 847.988 99.864 847.988 98.728ZM857.838 102.888C857.838 103.88 858.43 104.168 858.958 104.168C859.47 104.168 859.806 103.976 860.206 103.56L860.782 104.2C860.222 104.856 859.614 105.128 858.862 105.128C857.71 105.128 856.75 104.36 856.75 102.856V97.416H855.15V96.52H856.75V94.696L857.838 94.056V96.52H860.59V97.416H857.838V102.888ZM863.825 95.336V96.52H866.193V97.416H863.825V105H862.737V97.416H861.137V96.52H862.737V95.336C862.737 93.864 863.697 93.032 865.009 93.032C865.617 93.032 866.321 93.272 866.721 93.912L866.065 94.568C865.809 94.184 865.425 93.96 864.977 93.96C864.417 93.96 863.825 94.296 863.825 95.336ZM872.955 102.6L873.755 103.048C873.355 104.072 872.299 105.128 870.411 105.128C868.027 105.128 866.619 103.352 866.619 100.648C866.619 98.168 868.091 96.392 870.299 96.392C872.123 96.392 873.691 97.704 873.691 100.008L873.659 100.952H867.723C867.819 103.208 868.891 104.168 870.523 104.168C871.803 104.168 872.555 103.432 872.955 102.6ZM870.299 97.352C869.019 97.352 867.867 98.04 867.723 100.056H872.619C872.667 98.152 871.547 97.352 870.299 97.352ZM878.448 104.968C878.192 105.032 877.984 105.064 877.744 105.064C876.416 105.064 875.792 104.232 875.792 102.984V93.16H876.88V102.984C876.88 103.704 877.264 104.072 877.936 104.072C878.112 104.072 878.288 104.056 878.448 104.008V104.968ZM881.772 102.888C881.772 103.88 882.364 104.168 882.892 104.168C883.404 104.168 883.74 103.976 884.14 103.56L884.716 104.2C884.156 104.856 883.548 105.128 882.796 105.128C881.644 105.128 880.684 104.36 880.684 102.856V97.416H879.084V96.52H880.684V94.696L881.772 94.056V96.52H884.524V97.416H881.772V102.888ZM891.684 102.6L892.484 103.048C892.084 104.072 891.028 105.128 889.14 105.128C886.756 105.128 885.348 103.352 885.348 100.648C885.348 98.168 886.82 96.392 889.028 96.392C890.852 96.392 892.42 97.704 892.42 100.008L892.388 100.952H886.452C886.548 103.208 887.62 104.168 889.252 104.168C890.532 104.168 891.284 103.432 891.684 102.6ZM889.028 97.352C887.748 97.352 886.596 98.04 886.452 100.056H891.348C891.396 98.152 890.276 97.352 889.028 97.352ZM896.06 102.888C896.06 103.88 896.652 104.168 897.18 104.168C897.692 104.168 898.028 103.976 898.428 103.56L899.004 104.2C898.444 104.856 897.836 105.128 897.084 105.128C895.932 105.128 894.972 104.36 894.972 102.856V97.416H893.372V96.52H894.972V94.696L896.06 94.056V96.52H898.812V97.416H896.06V102.888ZM906.253 102.888C906.253 103.88 906.845 104.168 907.373 104.168C907.885 104.168 908.221 103.976 908.621 103.56L909.197 104.2C908.637 104.856 908.029 105.128 907.277 105.128C906.125 105.128 905.165 104.36 905.165 102.856V97.416H903.565V96.52H905.165V94.696L906.253 94.056V96.52H909.005V97.416H906.253V102.888ZM911.401 94.984C910.873 94.984 910.441 94.568 910.441 94.024C910.441 93.48 910.873 93.064 911.401 93.064C911.929 93.064 912.361 93.48 912.361 94.024C912.361 94.568 911.929 94.984 911.401 94.984ZM910.857 105V96.52H911.945V105H910.857ZM917.157 104.968C916.901 105.032 916.693 105.064 916.453 105.064C915.125 105.064 914.501 104.232 914.501 102.984V93.16H915.589V102.984C915.589 103.704 915.973 104.072 916.645 104.072C916.821 104.072 916.997 104.056 917.157 104.008V104.968ZM925.859 95.624C924.819 95.624 923.971 94.856 923.971 93.8C923.971 92.744 924.819 91.976 925.859 91.976C926.899 91.976 927.747 92.744 927.747 93.8C927.747 94.856 926.899 95.624 925.859 95.624ZM925.859 92.712C925.251 92.712 924.771 93.096 924.771 93.8C924.771 94.52 925.251 94.888 925.859 94.888C926.467 94.888 926.947 94.52 926.947 93.8C926.947 93.096 926.467 92.712 925.859 92.712ZM929.155 105H928.163C928.035 104.536 927.939 103.976 927.939 103.336C927.507 104.328 926.403 105.128 925.027 105.128C923.523 105.128 922.387 104.152 922.387 102.696C922.387 100.952 923.955 100.04 925.699 100.04C926.387 100.04 927.059 100.12 927.747 100.36V99.24C927.747 98.136 927.075 97.384 925.763 97.384C924.707 97.384 923.811 97.848 923.363 99.144L922.403 98.856C923.043 97.064 924.339 96.392 925.827 96.392C927.923 96.392 928.803 97.656 928.803 99.112V102.6C928.803 103.56 928.963 104.424 929.155 105ZM927.747 101.48V101.288C927.091 101.016 926.419 100.936 925.763 100.936C924.483 100.936 923.475 101.512 923.475 102.632C923.475 103.656 924.195 104.2 925.219 104.2C926.323 104.2 927.747 103.544 927.747 101.48ZM934.832 98.728C934.832 97.384 936.096 96.392 937.872 96.392C939.408 96.392 940.592 97.128 940.944 98.248L940.048 98.6C939.712 97.784 938.928 97.352 937.84 97.352C936.656 97.352 935.888 97.848 935.888 98.632C935.888 99.336 936.352 99.768 937.36 99.976L938.48 100.2C940.336 100.568 941.2 101.368 941.2 102.632C941.2 104.104 939.888 105.128 938 105.128C936.288 105.128 935.088 104.456 934.512 103.176L935.44 102.792C935.84 103.688 936.72 104.168 937.968 104.168C939.28 104.168 940.144 103.592 940.144 102.728C940.144 101.928 939.696 101.496 938.576 101.256L937.2 100.968C935.648 100.648 934.832 99.864 934.832 98.728ZM948.422 105L945.302 100.792L944.262 101.784V105H943.174V93.16H944.262V100.504L948.294 96.52H949.734L946.038 100.072L949.798 105H948.422ZM954.31 96.392C955.414 96.392 956.214 97.128 956.214 98.568V99.4L955.222 99.592V98.76C955.222 97.912 954.934 97.352 954.07 97.352C953.094 97.352 952.358 98.072 952.358 99.784V105H951.27V96.52H952.358V97.576C952.806 96.776 953.558 96.392 954.31 96.392ZM957.876 93.224H959.54V94.856H957.876V93.224ZM958.164 105V96.52H959.252V105H958.164ZM967.215 96.52H968.335L965.007 105H964.047L960.719 96.52H961.903L964.559 103.8L967.215 96.52ZM975.274 102.6L976.074 103.048C975.674 104.072 974.618 105.128 972.73 105.128C970.346 105.128 968.938 103.352 968.938 100.648C968.938 98.168 970.41 96.392 972.618 96.392C974.442 96.392 976.01 97.704 976.01 100.008L975.978 100.952H970.042C970.138 103.208 971.21 104.168 972.842 104.168C974.122 104.168 974.874 103.432 975.274 102.6ZM972.618 97.352C971.338 97.352 970.186 98.04 970.042 100.056H974.938C974.986 98.152 973.866 97.352 972.618 97.352ZM987.796 102.6L988.596 103.048C988.196 104.072 987.14 105.128 985.252 105.128C982.868 105.128 981.46 103.352 981.46 100.648C981.46 98.168 982.932 96.392 985.14 96.392C986.964 96.392 988.532 97.704 988.532 100.008L988.5 100.952H982.564C982.66 103.208 983.732 104.168 985.364 104.168C986.644 104.168 987.396 103.432 987.796 102.6ZM985.14 97.352C983.86 97.352 982.708 98.04 982.564 100.056H987.46C987.508 98.152 986.388 97.352 985.14 97.352ZM994.184 96.392C995.88 96.392 996.872 97.432 996.872 99.336V105H995.784V99.496C995.784 97.96 995.08 97.384 993.896 97.384C992.408 97.384 991.72 98.536 991.72 100.232V105H990.632V96.52H991.72V97.832C992.232 96.904 993.16 96.392 994.184 96.392ZM1008.47 105L1005.35 100.792L1004.31 101.784V105H1003.22V93.16H1004.31V100.504L1008.34 96.52H1009.78L1006.08 100.072L1009.84 105H1008.47ZM1014.06 105.128C1011.97 105.128 1010.29 103.4 1010.29 100.744C1010.29 98.12 1011.95 96.392 1014.06 96.392C1016.17 96.392 1017.84 98.12 1017.84 100.744C1017.84 103.4 1016.16 105.128 1014.06 105.128ZM1014.06 104.168C1015.52 104.168 1016.72 103.016 1016.72 100.744C1016.72 98.488 1015.5 97.352 1014.06 97.352C1012.62 97.352 1011.41 98.488 1011.41 100.744C1011.41 103.016 1012.61 104.168 1014.06 104.168ZM1022.89 96.392C1023.99 96.392 1024.79 97.128 1024.79 98.568V99.4L1023.8 99.592V98.76C1023.8 97.912 1023.51 97.352 1022.65 97.352C1021.67 97.352 1020.94 98.072 1020.94 99.784V105H1019.85V96.52H1020.94V97.576C1021.38 96.776 1022.14 96.392 1022.89 96.392ZM1028.28 102.888C1028.28 103.88 1028.87 104.168 1029.4 104.168C1029.91 104.168 1030.25 103.976 1030.65 103.56L1031.23 104.2C1030.67 104.856 1030.06 105.128 1029.31 105.128C1028.15 105.128 1027.19 104.36 1027.19 102.856V97.416H1025.59V96.52H1027.19V94.696L1028.28 94.056V96.52H1031.03V97.416H1028.28V102.888ZM1042.19 96.52H1043.31L1039.98 105H1039.02L1035.69 96.52H1036.88L1039.53 103.8L1042.19 96.52ZM1050.77 105H1049.78C1049.65 104.536 1049.56 103.976 1049.56 103.336C1049.13 104.328 1048.02 105.128 1046.65 105.128C1045.14 105.128 1044.01 104.152 1044.01 102.696C1044.01 100.952 1045.57 100.04 1047.32 100.04C1048.01 100.04 1048.68 100.12 1049.37 100.36V99.24C1049.37 98.136 1048.69 97.384 1047.38 97.384C1046.33 97.384 1045.43 97.848 1044.98 99.144L1044.02 98.856C1044.66 97.064 1045.96 96.392 1047.45 96.392C1049.54 96.392 1050.42 97.656 1050.42 99.112V102.6C1050.42 103.56 1050.58 104.424 1050.77 105ZM1049.37 101.48V101.288C1048.71 101.016 1048.04 100.936 1047.38 100.936C1046.1 100.936 1045.09 101.512 1045.09 102.632C1045.09 103.656 1045.81 104.2 1046.84 104.2C1047.94 104.2 1049.37 103.544 1049.37 101.48ZM1056.01 96.392C1057.12 96.392 1057.92 97.128 1057.92 98.568V99.4L1056.92 99.592V98.76C1056.92 97.912 1056.64 97.352 1055.77 97.352C1054.8 97.352 1054.06 98.072 1054.06 99.784V105H1052.97V96.52H1054.06V97.576C1054.51 96.776 1055.26 96.392 1056.01 96.392ZM1059.14 98.728C1059.14 97.384 1060.4 96.392 1062.18 96.392C1063.71 96.392 1064.9 97.128 1065.25 98.248L1064.35 98.6C1064.02 97.784 1063.23 97.352 1062.15 97.352C1060.96 97.352 1060.19 97.848 1060.19 98.632C1060.19 99.336 1060.66 99.768 1061.67 99.976L1062.79 100.2C1064.64 100.568 1065.51 101.368 1065.51 102.632C1065.51 104.104 1064.19 105.128 1062.31 105.128C1060.59 105.128 1059.39 104.456 1058.82 103.176L1059.75 102.792C1060.15 103.688 1061.03 104.168 1062.27 104.168C1063.59 104.168 1064.45 103.592 1064.45 102.728C1064.45 101.928 1064 101.496 1062.88 101.256L1061.51 100.968C1059.95 100.648 1059.14 99.864 1059.14 98.728ZM1070.1 104.968C1069.85 105.032 1069.64 105.064 1069.4 105.064C1068.07 105.064 1067.45 104.232 1067.45 102.984V93.16H1068.54V102.984C1068.54 103.704 1068.92 104.072 1069.59 104.072C1069.77 104.072 1069.94 104.056 1070.1 104.008V104.968ZM1072.43 94.984C1071.9 94.984 1071.47 94.568 1071.47 94.024C1071.47 93.48 1071.9 93.064 1072.43 93.064C1072.96 93.064 1073.39 93.48 1073.39 94.024C1073.39 94.568 1072.96 94.984 1072.43 94.984ZM1071.89 105V96.52H1072.98V105H1071.89ZM1079.08 96.392C1080.78 96.392 1081.77 97.432 1081.77 99.336V105H1080.68V99.496C1080.68 97.96 1079.98 97.384 1078.8 97.384C1077.31 97.384 1076.62 98.536 1076.62 100.232V105H1075.53V96.52H1076.62V97.832C1077.13 96.904 1078.06 96.392 1079.08 96.392ZM1091.81 97.416H1089.98V97.72C1090.4 98.232 1090.62 98.872 1090.62 99.496C1090.62 101.048 1089.5 102.632 1087.12 102.632H1086.75C1085.79 102.632 1085.1 103 1085.1 103.56C1085.1 103.992 1085.44 104.296 1086.14 104.296H1089.58C1090.96 104.296 1091.66 104.968 1091.66 106.024C1091.66 107.704 1089.73 108.584 1087.34 108.584C1085.2 108.584 1083.71 107.896 1083.2 106.408L1084.08 106.008C1084.67 107.4 1085.92 107.672 1087.34 107.672C1089.1 107.672 1090.58 107.144 1090.58 106.12C1090.58 105.64 1090.32 105.288 1089.55 105.288H1085.9C1084.72 105.288 1084.02 104.728 1084.02 103.848C1084.02 103.096 1084.64 102.44 1085.68 102.168C1084.56 101.72 1083.94 100.536 1083.94 99.496C1083.94 97.976 1085.07 96.392 1087.31 96.392C1088.19 96.392 1088.86 96.68 1089.38 97.112V96.52H1091.81V97.416ZM1087.3 101.736C1088.8 101.736 1089.55 100.696 1089.55 99.496C1089.55 98.312 1088.8 97.32 1087.3 97.32C1085.78 97.32 1085.01 98.328 1085.01 99.496C1085.01 100.68 1085.78 101.736 1087.3 101.736ZM1093.08 103.208H1094.81V105H1093.08V103.208Z" fill="#2A2859"/>
<path fill-rule="evenodd" clip-rule="evenodd" d="M1128.08 99L1122.12 93.0417L1123.04 92.125L1129 98.0833L1134.96 92.125L1135.88 93.0417L1129.92 99L1135.88 104.958L1134.96 105.875L1129 99.9167L1123.04 105.875L1122.12 104.958L1128.08 99Z" fill="#2A2859"/>
</g>
<path d="M312.722 184V170.68H317.078C320.372 170.68 322.91 173.254 322.91 177.268C322.91 181.282 320.372 184 317.078 184H312.722ZM313.982 182.848H316.826C319.598 182.848 321.614 180.976 321.614 177.268C321.614 173.596 319.58 171.832 316.79 171.832H313.982V182.848ZM331.676 181.3L332.576 181.804C332.126 182.956 330.938 184.144 328.814 184.144C326.132 184.144 324.548 182.146 324.548 179.104C324.548 176.314 326.204 174.316 328.688 174.316C330.74 174.316 332.504 175.792 332.504 178.384L332.468 179.446H325.79C325.898 181.984 327.104 183.064 328.94 183.064C330.38 183.064 331.226 182.236 331.676 181.3ZM328.688 175.396C327.248 175.396 325.952 176.17 325.79 178.438H331.298C331.352 176.296 330.092 175.396 328.688 175.396ZM336.448 173.128V174.46H339.112V175.468H336.448V184H335.224V175.468H333.424V174.46H335.224V173.128C335.224 171.472 336.304 170.536 337.78 170.536C338.464 170.536 339.256 170.806 339.706 171.526L338.968 172.264C338.68 171.832 338.248 171.58 337.744 171.58C337.114 171.58 336.448 171.958 336.448 173.128ZM347.339 184H346.223C346.079 183.478 345.971 182.848 345.971 182.128C345.485 183.244 344.243 184.144 342.695 184.144C341.003 184.144 339.725 183.046 339.725 181.408C339.725 179.446 341.489 178.42 343.451 178.42C344.225 178.42 344.981 178.51 345.755 178.78V177.52C345.755 176.278 344.999 175.432 343.523 175.432C342.335 175.432 341.327 175.954 340.823 177.412L339.743 177.088C340.463 175.072 341.921 174.316 343.595 174.316C345.953 174.316 346.943 175.738 346.943 177.376V181.3C346.943 182.38 347.123 183.352 347.339 184ZM345.755 180.04V179.824C345.017 179.518 344.261 179.428 343.523 179.428C342.083 179.428 340.949 180.076 340.949 181.336C340.949 182.488 341.759 183.1 342.911 183.1C344.153 183.1 345.755 182.362 345.755 180.04ZM355.205 174.46H356.429V184H355.205V182.542C354.629 183.568 353.621 184.144 352.451 184.144C350.579 184.144 349.445 182.938 349.445 180.868V174.46H350.669V180.76C350.669 182.326 351.461 183.046 352.793 183.046C354.485 183.046 355.205 181.696 355.205 179.824V174.46ZM362.24 183.964C361.952 184.036 361.718 184.072 361.448 184.072C359.954 184.072 359.252 183.136 359.252 181.732V170.68H360.476V181.732C360.476 182.542 360.908 182.956 361.664 182.956C361.862 182.956 362.06 182.938 362.24 182.884V183.964ZM366.005 181.624C366.005 182.74 366.671 183.064 367.265 183.064C367.841 183.064 368.219 182.848 368.669 182.38L369.317 183.1C368.687 183.838 368.003 184.144 367.157 184.144C365.861 184.144 364.781 183.28 364.781 181.588V175.468H362.981V174.46H364.781V172.408L366.005 171.688V174.46H369.101V175.468H366.005V181.624Z" fill="#2A2859"/>
<path d="M892.043 163.724C889.433 163.724 887.327 165.596 887.327 169.268C887.327 172.904 889.271 174.956 892.061 174.956C893.681 174.956 895.265 174.182 896.039 172.112L897.065 172.688C896.021 175.172 894.113 176.144 892.007 176.144C888.551 176.144 886.031 173.48 886.031 169.268C886.031 165.182 888.749 162.536 892.079 162.536C894.419 162.536 896.075 163.616 896.849 165.452L895.697 165.992C895.031 164.498 893.627 163.724 892.043 163.724ZM902.49 176.144C900.132 176.144 898.242 174.2 898.242 171.212C898.242 168.26 900.114 166.316 902.49 166.316C904.866 166.316 906.738 168.26 906.738 171.212C906.738 174.2 904.848 176.144 902.49 176.144ZM902.49 175.064C904.128 175.064 905.478 173.768 905.478 171.212C905.478 168.674 904.11 167.396 902.49 167.396C900.87 167.396 899.502 168.674 899.502 171.212C899.502 173.768 900.852 175.064 902.49 175.064ZM918.529 166.316C920.347 166.316 921.409 167.468 921.409 169.448V176H920.185V169.628C920.185 168.08 919.447 167.432 918.205 167.432C916.531 167.432 915.829 168.728 915.829 170.636V176H914.605V169.628C914.605 168.08 913.867 167.432 912.625 167.432C910.951 167.432 910.249 168.728 910.249 170.636V176H909.025V166.46H910.249V167.954C910.825 166.892 911.833 166.316 912.949 166.316C914.371 166.316 915.325 167.018 915.667 168.26C916.207 167 917.305 166.316 918.529 166.316ZM928.509 166.334C930.939 166.334 932.577 168.368 932.577 171.14C932.577 174.074 930.921 176.144 928.365 176.144C927.033 176.144 925.953 175.478 925.377 174.272V179.78H924.153V166.46H925.377V168.242C926.007 167.018 927.267 166.334 928.509 166.334ZM928.365 175.064C930.147 175.064 931.317 173.696 931.317 171.194C931.317 168.782 930.147 167.414 928.383 167.414C926.475 167.414 925.377 168.836 925.377 171.176C925.377 173.66 926.457 175.064 928.365 175.064ZM941.979 176H940.863C940.719 175.478 940.611 174.848 940.611 174.128C940.125 175.244 938.883 176.144 937.335 176.144C935.643 176.144 934.365 175.046 934.365 173.408C934.365 171.446 936.129 170.42 938.091 170.42C938.865 170.42 939.621 170.51 940.395 170.78V169.52C940.395 168.278 939.639 167.432 938.163 167.432C936.975 167.432 935.967 167.954 935.463 169.412L934.383 169.088C935.103 167.072 936.561 166.316 938.235 166.316C940.593 166.316 941.583 167.738 941.583 169.376V173.3C941.583 174.38 941.763 175.352 941.979 176ZM940.395 172.04V171.824C939.657 171.518 938.901 171.428 938.163 171.428C936.723 171.428 935.589 172.076 935.589 173.336C935.589 174.488 936.399 175.1 937.551 175.1C938.793 175.1 940.395 174.362 940.395 172.04ZM950.674 169.304C950.278 168.116 949.324 167.396 948.082 167.396C946.192 167.396 944.95 168.854 944.95 171.104C944.95 173.57 946.192 175.064 948.226 175.064C949.486 175.064 950.494 174.326 950.998 173.084L951.898 173.588C951.322 175.172 949.846 176.144 948.19 176.144C945.436 176.144 943.69 174.146 943.69 171.104C943.69 168.332 945.562 166.316 948.118 166.316C949.99 166.316 951.34 167.432 951.718 168.944L950.674 169.304ZM956.012 173.624C956.012 174.74 956.678 175.064 957.272 175.064C957.848 175.064 958.226 174.848 958.676 174.38L959.324 175.1C958.694 175.838 958.01 176.144 957.164 176.144C955.868 176.144 954.788 175.28 954.788 173.588V167.468H952.988V166.46H954.788V164.408L956.012 163.688V166.46H959.108V167.468H956.012V173.624Z" fill="#2A2859"/>
<defs>
<filter id="filter0_d_6398_16045" x="685" y="75" width="476" height="56" filterUnits="userSpaceOnUse" color-interpolation-filters="sRGB">
<feFlood flood-opacity="0" result="BackgroundImageFix"/>
<feColorMatrix in="SourceAlpha" type="matrix" values="0 0 0 0 0 0 0 0 0 0 0 0 0 0 0 0 0 0 127 0" result="hardAlpha"/>
<feOffset dy="4"/>
<feGaussianBlur stdDeviation="2"/>
<feComposite in2="hardAlpha" operator="out"/>
<feColorMatrix type="matrix" values="0 0 0 0 0 0 0 0 0 0 0 0 0 0 0 0 0 0 0.1 0"/>
<feBlend mode="normal" in2="BackgroundImageFix" result="effect1_dropShadow_6398_16045"/>
<feBlend mode="normal" in="SourceGraphic" in2="effect1_dropShadow_6398_16045" result="shape"/>
</filter>
<clipPath id="clip0_6398_16045">
<rect width="24" height="24" fill="white" transform="translate(705 87)"/>
</clipPath>
</defs>
</svg>
