<svg width="1105" height="450" viewBox="0 0 1105 450" fill="none" xmlns="http://www.w3.org/2000/svg">
<rect width="1105" height="450" fill="white"/>
<mask id="path-1-inside-1_4591_150610" fill="white">
<path d="M262 206H844V278H262V206Z"/>
</mask>
<path d="M262 206H844V278H262V206Z" fill="#CDF5FB"/>
<path fill-rule="evenodd" clip-rule="evenodd" d="M302 227C304.967 227 307.867 227.88 310.334 229.528C312.8 231.176 314.723 233.519 315.858 236.26C316.994 239.001 317.291 242.017 316.712 244.926C316.133 247.836 314.704 250.509 312.607 252.607C310.509 254.704 307.836 256.133 304.926 256.712C302.017 257.291 299.001 256.994 296.26 255.858C293.519 254.723 291.176 252.8 289.528 250.334C287.88 247.867 287 244.967 287 242C287 238.022 288.58 234.206 291.393 231.393C294.206 228.58 298.022 227 302 227ZM302 229C299.429 229 296.915 229.762 294.778 231.191C292.64 232.619 290.974 234.65 289.99 237.025C289.006 239.401 288.748 242.014 289.25 244.536C289.751 247.058 290.99 249.374 292.808 251.192C294.626 253.01 296.942 254.249 299.464 254.75C301.986 255.252 304.599 254.994 306.975 254.01C309.35 253.026 311.381 251.36 312.809 249.222C314.238 247.085 315 244.571 315 242C315 238.552 313.63 235.246 311.192 232.808C308.754 230.37 305.448 229 302 229Z" fill="#2A2859"/>
<path d="M300.151 234.609C300.145 234.134 300.327 233.675 300.659 233.334C300.99 232.993 301.444 232.798 301.919 232.791C301.936 232.791 301.953 232.791 301.969 232.791C302.44 232.785 302.893 232.967 303.23 233.295C303.567 233.624 303.759 234.073 303.765 234.544C303.765 234.565 303.765 234.587 303.765 234.609C303.77 234.842 303.73 235.074 303.646 235.291C303.563 235.508 303.437 235.707 303.276 235.876C303.116 236.044 302.924 236.18 302.711 236.274C302.498 236.369 302.268 236.42 302.036 236.426C302.014 236.426 301.991 236.427 301.969 236.426C301.734 236.43 301.5 236.387 301.282 236.3C301.063 236.213 300.863 236.084 300.695 235.92C300.526 235.756 300.391 235.56 300.298 235.344C300.204 235.128 300.155 234.895 300.151 234.66C300.151 234.643 300.151 234.626 300.151 234.609ZM300.681 238.451H303.258V250.646H300.681L300.681 238.451Z" fill="#2A2859"/>
<path d="M334.226 240.962C335.576 240.476 336.152 239.234 336.152 238.172C336.152 236.354 335.054 234.68 332.012 234.68H327.584V248H332.444C335.612 248 336.764 246.002 336.764 244.31C336.764 242.672 335.594 241.376 334.226 240.962ZM332.012 235.796C334.064 235.796 334.856 236.876 334.856 238.172C334.856 239.756 334.064 240.656 332.282 240.656H328.844V235.796H332.012ZM332.372 246.884H328.844V241.736H332.552C334.334 241.736 335.432 242.69 335.432 244.382C335.432 245.948 334.55 246.884 332.372 246.884ZM342.405 238.316C341.559 238.316 340.713 238.748 340.209 239.648V238.46H338.985V248H340.209V242.132C340.209 240.206 341.037 239.396 342.135 239.396C343.107 239.396 343.431 240.026 343.431 240.98V241.916L344.547 241.7V240.764C344.547 239.144 343.647 238.316 342.405 238.316ZM352.133 238.46V243.824C352.133 245.696 351.413 247.046 349.721 247.046C348.389 247.046 347.597 246.326 347.597 244.76V238.46H346.373V244.868C346.373 246.938 347.507 248.144 349.379 248.144C350.549 248.144 351.557 247.568 352.133 246.542V248H353.357V238.46H352.133ZM362.12 248H363.668L359.438 242.456L363.596 238.46H361.976L357.44 242.942V234.68H356.216V248H357.44V244.382L358.61 243.266L362.12 248ZM376.519 234.68V240.188C375.943 238.982 374.863 238.316 373.531 238.316C370.975 238.316 369.319 240.386 369.319 243.32C369.319 246.092 370.957 248.126 373.387 248.126C374.629 248.126 375.889 247.442 376.519 246.218V248H377.743V234.68H376.519ZM373.513 247.046C371.749 247.046 370.579 245.678 370.579 243.266C370.579 240.764 371.749 239.396 373.531 239.396C375.439 239.396 376.519 240.8 376.519 243.284C376.519 245.624 375.421 247.046 373.513 247.046ZM387.075 245.3C386.625 246.236 385.779 247.064 384.339 247.064C382.503 247.064 381.297 245.984 381.189 243.446H387.867L387.903 242.384C387.903 239.792 386.139 238.316 384.087 238.316C381.603 238.316 379.947 240.314 379.947 243.104C379.947 246.146 381.531 248.144 384.213 248.144C386.337 248.144 387.525 246.956 387.975 245.804L387.075 245.3ZM384.087 239.396C385.491 239.396 386.751 240.296 386.697 242.438H381.189C381.351 240.17 382.647 239.396 384.087 239.396ZM392.023 245.624V239.468H395.119V238.46H392.023V235.688L390.799 236.408V238.46H388.999V239.468H390.799V245.588C390.799 247.28 391.879 248.144 393.175 248.144C394.021 248.144 394.705 247.838 395.335 247.1L394.687 246.38C394.237 246.848 393.859 247.064 393.283 247.064C392.689 247.064 392.023 246.74 392.023 245.624ZM398.784 245.624V239.468H401.88V238.46H398.784V235.688L397.56 236.408V238.46H395.76V239.468H397.56V245.588C397.56 247.28 398.64 248.144 399.936 248.144C400.782 248.144 401.466 247.838 402.096 247.1L401.448 246.38C400.998 246.848 400.62 247.064 400.044 247.064C399.45 247.064 398.784 246.74 398.784 245.624ZM409.959 245.3C409.509 246.236 408.663 247.064 407.223 247.064C405.387 247.064 404.181 245.984 404.073 243.446H410.751L410.787 242.384C410.787 239.792 409.023 238.316 406.971 238.316C404.487 238.316 402.831 240.314 402.831 243.104C402.831 246.146 404.415 248.144 407.097 248.144C409.221 248.144 410.409 246.956 410.859 245.804L409.959 245.3ZM406.971 239.396C408.375 239.396 409.635 240.296 409.581 242.438H404.073C404.235 240.17 405.531 239.396 406.971 239.396ZM419.488 245.624V239.468H422.584V238.46H419.488V235.688L418.264 236.408V238.46H416.464V239.468H418.264V245.588C418.264 247.28 419.344 248.144 420.64 248.144C421.486 248.144 422.17 247.838 422.8 247.1L422.152 246.38C421.702 246.848 421.324 247.064 420.748 247.064C420.154 247.064 419.488 246.74 419.488 245.624ZM430.664 245.3C430.214 246.236 429.368 247.064 427.928 247.064C426.092 247.064 424.886 245.984 424.778 243.446H431.456L431.492 242.384C431.492 239.792 429.728 238.316 427.676 238.316C425.192 238.316 423.536 240.314 423.536 243.104C423.536 246.146 425.12 248.144 427.802 248.144C429.926 248.144 431.114 246.956 431.564 245.804L430.664 245.3ZM427.676 239.396C429.08 239.396 430.34 240.296 430.286 242.438H424.778C424.94 240.17 426.236 239.396 427.676 239.396ZM439.82 248H441.368L437.138 242.456L441.296 238.46H439.676L435.14 242.942V234.68H433.916V248H435.14V244.382L436.31 243.266L439.82 248ZM442.212 240.944C442.212 242.222 443.13 243.104 444.876 243.464L446.424 243.788C447.684 244.058 448.188 244.544 448.188 245.444C448.188 246.416 447.216 247.064 445.74 247.064C444.336 247.064 443.346 246.524 442.896 245.516L441.852 245.948C442.5 247.388 443.85 248.144 445.776 248.144C447.9 248.144 449.376 246.992 449.376 245.336C449.376 243.914 448.404 243.014 446.316 242.6L445.056 242.348C443.922 242.114 443.4 241.628 443.4 240.836C443.4 239.954 444.264 239.396 445.596 239.396C446.82 239.396 447.702 239.882 448.08 240.8L449.088 240.404C448.692 239.144 447.36 238.316 445.632 238.316C443.634 238.316 442.212 239.432 442.212 240.944ZM453.317 245.624V239.468H456.413V238.46H453.317V235.688L452.093 236.408V238.46H450.293V239.468H452.093V245.588C452.093 247.28 453.173 248.144 454.469 248.144C455.315 248.144 455.999 247.838 456.629 247.1L455.981 246.38C455.531 246.848 455.153 247.064 454.577 247.064C453.983 247.064 453.317 246.74 453.317 245.624ZM460.078 237.128C460.078 235.958 460.744 235.58 461.374 235.58C461.878 235.58 462.31 235.832 462.598 236.264L463.336 235.526C462.886 234.806 462.094 234.536 461.41 234.536C459.934 234.536 458.854 235.472 458.854 237.128V238.46H457.054V239.468H458.854V248H460.078V239.468H462.742V238.46H460.078V237.128ZM470.375 245.3C469.925 246.236 469.079 247.064 467.639 247.064C465.803 247.064 464.597 245.984 464.489 243.446H471.167L471.203 242.384C471.203 239.792 469.439 238.316 467.387 238.316C464.903 238.316 463.247 240.314 463.247 243.104C463.247 246.146 464.831 248.144 467.513 248.144C469.637 248.144 470.825 246.956 471.275 245.804L470.375 245.3ZM467.387 239.396C468.791 239.396 470.051 240.296 469.997 242.438H464.489C464.651 240.17 465.947 239.396 467.387 239.396ZM476.579 247.964V246.884C476.399 246.938 476.201 246.956 476.003 246.956C475.247 246.956 474.815 246.542 474.815 245.732V234.68H473.591V245.732C473.591 247.136 474.293 248.072 475.787 248.072C476.057 248.072 476.291 248.036 476.579 247.964ZM480.343 245.624V239.468H483.439V238.46H480.343V235.688L479.119 236.408V238.46H477.319V239.468H479.119V245.588C479.119 247.28 480.199 248.144 481.495 248.144C482.341 248.144 483.025 247.838 483.655 247.1L483.007 246.38C482.557 246.848 482.179 247.064 481.603 247.064C481.009 247.064 480.343 246.74 480.343 245.624ZM491.519 245.3C491.069 246.236 490.223 247.064 488.783 247.064C486.947 247.064 485.741 245.984 485.633 243.446H492.311L492.347 242.384C492.347 239.792 490.583 238.316 488.531 238.316C486.047 238.316 484.391 240.314 484.391 243.104C484.391 246.146 485.975 248.144 488.657 248.144C490.781 248.144 491.969 246.956 492.419 245.804L491.519 245.3ZM488.531 239.396C489.935 239.396 491.195 240.296 491.141 242.438H485.633C485.795 240.17 487.091 239.396 488.531 239.396ZM496.467 245.624V239.468H499.563V238.46H496.467V235.688L495.243 236.408V238.46H493.443V239.468H495.243V245.588C495.243 247.28 496.323 248.144 497.619 248.144C498.465 248.144 499.149 247.838 499.779 247.1L499.131 246.38C498.681 246.848 498.303 247.064 497.727 247.064C497.133 247.064 496.467 246.74 496.467 245.624ZM507.985 245.624V239.468H511.081V238.46H507.985V235.688L506.761 236.408V238.46H504.961V239.468H506.761V245.588C506.761 247.28 507.841 248.144 509.137 248.144C509.983 248.144 510.667 247.838 511.297 247.1L510.649 246.38C510.199 246.848 509.821 247.064 509.245 247.064C508.651 247.064 507.985 246.74 507.985 245.624ZM513.801 236.732C514.395 236.732 514.881 236.264 514.881 235.652C514.881 235.04 514.395 234.572 513.801 234.572C513.207 234.572 512.721 235.04 512.721 235.652C512.721 236.264 513.207 236.732 513.801 236.732ZM513.189 248H514.413V238.46H513.189V248ZM520.302 247.964V246.884C520.122 246.938 519.924 246.956 519.726 246.956C518.97 246.956 518.538 246.542 518.538 245.732V234.68H517.314V245.732C517.314 247.136 518.016 248.072 519.51 248.072C519.78 248.072 520.014 248.036 520.302 247.964ZM530.142 237.452C531.312 237.452 532.266 236.588 532.266 235.4C532.266 234.212 531.312 233.348 530.142 233.348C528.972 233.348 528.018 234.212 528.018 235.4C528.018 236.588 528.972 237.452 530.142 237.452ZM530.142 234.176C530.826 234.176 531.366 234.608 531.366 235.4C531.366 236.21 530.826 236.624 530.142 236.624C529.458 236.624 528.918 236.21 528.918 235.4C528.918 234.608 529.458 234.176 530.142 234.176ZM533.85 248C533.634 247.352 533.454 246.38 533.454 245.3V241.376C533.454 239.738 532.464 238.316 530.106 238.316C528.432 238.316 526.974 239.072 526.254 241.088L527.334 241.412C527.838 239.954 528.846 239.432 530.034 239.432C531.51 239.432 532.266 240.278 532.266 241.52V242.78C531.492 242.51 530.736 242.42 529.962 242.42C528 242.42 526.236 243.446 526.236 245.408C526.236 247.046 527.514 248.144 529.206 248.144C530.754 248.144 531.996 247.244 532.482 246.128C532.482 246.848 532.59 247.478 532.734 248H533.85ZM532.266 244.04C532.266 246.362 530.664 247.1 529.422 247.1C528.27 247.1 527.46 246.488 527.46 245.336C527.46 244.076 528.594 243.428 530.034 243.428C530.772 243.428 531.528 243.518 532.266 243.824V244.04ZM540.286 240.944C540.286 242.222 541.204 243.104 542.95 243.464L544.498 243.788C545.758 244.058 546.262 244.544 546.262 245.444C546.262 246.416 545.29 247.064 543.814 247.064C542.41 247.064 541.42 246.524 540.97 245.516L539.926 245.948C540.574 247.388 541.924 248.144 543.85 248.144C545.974 248.144 547.45 246.992 547.45 245.336C547.45 243.914 546.478 243.014 544.39 242.6L543.13 242.348C541.996 242.114 541.474 241.628 541.474 240.836C541.474 239.954 542.338 239.396 543.67 239.396C544.894 239.396 545.776 239.882 546.154 240.8L547.162 240.404C546.766 239.144 545.434 238.316 543.706 238.316C541.708 238.316 540.286 239.432 540.286 240.944ZM555.599 248H557.147L552.917 242.456L557.075 238.46H555.455L550.919 242.942V234.68H549.695V248H550.919V244.382L552.089 243.266L555.599 248ZM562.248 238.316C561.402 238.316 560.556 238.748 560.052 239.648V238.46H558.828V248H560.052V242.132C560.052 240.206 560.88 239.396 561.978 239.396C562.95 239.396 563.274 240.026 563.274 240.98V241.916L564.39 241.7V240.764C564.39 239.144 563.49 238.316 562.248 238.316ZM566.285 234.752V236.588H568.157V234.752H566.285ZM566.609 248H567.833V238.46H566.609V248ZM576.817 238.46L573.829 246.65L570.841 238.46H569.509L573.253 248H574.333L578.077 238.46H576.817ZM585.909 245.3C585.459 246.236 584.613 247.064 583.173 247.064C581.337 247.064 580.131 245.984 580.023 243.446H586.701L586.737 242.384C586.737 239.792 584.973 238.316 582.921 238.316C580.437 238.316 578.781 240.314 578.781 243.104C578.781 246.146 580.365 248.144 583.047 248.144C585.171 248.144 586.359 246.956 586.809 245.804L585.909 245.3ZM582.921 239.396C584.325 239.396 585.585 240.296 585.531 242.438H580.023C580.185 240.17 581.481 239.396 582.921 239.396ZM600.046 245.3C599.596 246.236 598.75 247.064 597.31 247.064C595.474 247.064 594.268 245.984 594.16 243.446H600.838L600.874 242.384C600.874 239.792 599.11 238.316 597.058 238.316C594.574 238.316 592.918 240.314 592.918 243.104C592.918 246.146 594.502 248.144 597.184 248.144C599.308 248.144 600.496 246.956 600.946 245.804L600.046 245.3ZM597.058 239.396C598.462 239.396 599.722 240.296 599.668 242.438H594.16C594.322 240.17 595.618 239.396 597.058 239.396ZM607.257 238.316C606.105 238.316 605.061 238.892 604.485 239.936V238.46H603.261V248H604.485V242.636C604.485 240.728 605.259 239.432 606.933 239.432C608.265 239.432 609.057 240.08 609.057 241.808V248H610.281V241.628C610.281 239.486 609.165 238.316 607.257 238.316ZM623.374 248H624.922L620.692 242.456L624.85 238.46H623.23L618.694 242.942V234.68H617.47V248H618.694V244.382L619.864 243.266L623.374 248ZM629.694 248.144C632.052 248.144 633.942 246.2 633.942 243.212C633.942 240.26 632.07 238.316 629.694 238.316C627.318 238.316 625.446 240.26 625.446 243.212C625.446 246.2 627.336 248.144 629.694 248.144ZM629.694 247.064C628.056 247.064 626.706 245.768 626.706 243.212C626.706 240.674 628.074 239.396 629.694 239.396C631.314 239.396 632.682 240.674 632.682 243.212C632.682 245.768 631.332 247.064 629.694 247.064ZM639.649 238.316C638.803 238.316 637.957 238.748 637.453 239.648V238.46H636.229V248H637.453V242.132C637.453 240.206 638.281 239.396 639.379 239.396C640.351 239.396 640.675 240.026 640.675 240.98V241.916L641.791 241.7V240.764C641.791 239.144 640.891 238.316 639.649 238.316ZM645.742 245.624V239.468H648.838V238.46H645.742V235.688L644.518 236.408V238.46H642.718V239.468H644.518V245.588C644.518 247.28 645.598 248.144 646.894 248.144C647.74 248.144 648.424 247.838 649.054 247.1L648.406 246.38C647.956 246.848 647.578 247.064 647.002 247.064C646.408 247.064 645.742 246.74 645.742 245.624ZM661.436 238.46L658.448 246.65L655.46 238.46H654.128L657.872 248H658.952L662.696 238.46H661.436ZM671.121 248C670.905 247.352 670.725 246.38 670.725 245.3V241.376C670.725 239.738 669.735 238.316 667.377 238.316C665.703 238.316 664.245 239.072 663.525 241.088L664.605 241.412C665.109 239.954 666.117 239.432 667.305 239.432C668.781 239.432 669.537 240.278 669.537 241.52V242.78C668.763 242.51 668.007 242.42 667.233 242.42C665.271 242.42 663.507 243.446 663.507 245.408C663.507 247.046 664.785 248.144 666.477 248.144C668.025 248.144 669.267 247.244 669.753 246.128C669.753 246.848 669.861 247.478 670.005 248H671.121ZM669.537 244.04C669.537 246.362 667.935 247.1 666.693 247.1C665.541 247.1 664.731 246.488 664.731 245.336C664.731 244.076 665.865 243.428 667.305 243.428C668.043 243.428 668.799 243.518 669.537 243.824V244.04ZM677.039 238.316C676.193 238.316 675.347 238.748 674.843 239.648V238.46H673.619V248H674.843V242.132C674.843 240.206 675.671 239.396 676.769 239.396C677.741 239.396 678.065 240.026 678.065 240.98V241.916L679.181 241.7V240.764C679.181 239.144 678.281 238.316 677.039 238.316ZM680.58 240.944C680.58 242.222 681.498 243.104 683.244 243.464L684.792 243.788C686.052 244.058 686.556 244.544 686.556 245.444C686.556 246.416 685.584 247.064 684.108 247.064C682.704 247.064 681.714 246.524 681.264 245.516L680.22 245.948C680.868 247.388 682.218 248.144 684.144 248.144C686.268 248.144 687.744 246.992 687.744 245.336C687.744 243.914 686.772 243.014 684.684 242.6L683.424 242.348C682.29 242.114 681.768 241.628 681.768 240.836C681.768 239.954 682.632 239.396 683.964 239.396C685.188 239.396 686.07 239.882 686.448 240.8L687.456 240.404C687.06 239.144 685.728 238.316 684 238.316C682.002 238.316 680.58 239.432 680.58 240.944ZM692.942 247.964V246.884C692.762 246.938 692.564 246.956 692.366 246.956C691.61 246.956 691.178 246.542 691.178 245.732V234.68H689.954V245.732C689.954 247.136 690.656 248.072 692.15 248.072C692.42 248.072 692.654 248.036 692.942 247.964ZM695.587 236.732C696.181 236.732 696.667 236.264 696.667 235.652C696.667 235.04 696.181 234.572 695.587 234.572C694.993 234.572 694.507 235.04 694.507 235.652C694.507 236.264 694.993 236.732 695.587 236.732ZM694.975 248H696.199V238.46H694.975V248ZM703.095 238.316C701.943 238.316 700.899 238.892 700.323 239.936V238.46H699.099V248H700.323V242.636C700.323 240.728 701.097 239.432 702.771 239.432C704.103 239.432 704.895 240.08 704.895 241.808V248H706.119V241.628C706.119 239.486 705.003 238.316 703.095 238.316ZM717.434 239.468V238.46H714.698V239.126C714.122 238.64 713.366 238.316 712.376 238.316C709.856 238.316 708.578 240.098 708.578 241.808C708.578 242.978 709.28 244.31 710.54 244.814C709.37 245.12 708.668 245.858 708.668 246.704C708.668 247.694 709.46 248.324 710.792 248.324H714.896C715.76 248.324 716.048 248.72 716.048 249.26C716.048 250.412 714.392 251.006 712.412 251.006C710.81 251.006 709.406 250.7 708.74 249.134L707.75 249.584C708.326 251.258 710 252.032 712.412 252.032C715.094 252.032 717.272 251.042 717.272 249.152C717.272 247.964 716.48 247.208 714.932 247.208H711.062C710.27 247.208 709.892 246.866 709.892 246.38C709.892 245.75 710.666 245.336 711.746 245.336H712.16C714.842 245.336 716.102 243.554 716.102 241.808C716.102 241.106 715.85 240.386 715.382 239.81V239.468H717.434ZM712.358 244.328C710.648 244.328 709.784 243.14 709.784 241.808C709.784 240.494 710.648 239.36 712.358 239.36C714.05 239.36 714.896 240.476 714.896 241.808C714.896 243.158 714.05 244.328 712.358 244.328ZM718.894 245.984V248H720.838V245.984H718.894Z" fill="#2A2859"/>
<path fill-rule="evenodd" clip-rule="evenodd" d="M799.083 242L793.125 236.042L794.042 235.125L800 241.083L805.958 235.125L806.875 236.042L800.917 242L806.875 247.958L805.958 248.875L800 242.917L794.042 248.875L793.125 247.958L799.083 242Z" fill="#2A2859"/>
<path d="M266 278V206H258V278H266Z" fill="#6FE9FF" mask="url(#path-1-inside-1_4591_150610)"/>
<path d="M298 188L298 227" stroke="#2A2859"/>
<circle cx="298" cy="227" r="2" fill="#2A2859"/>
<circle cx="298.5" cy="180.5" r="7.5" fill="#2A2859"/>
<path d="M299.204 183.056V177.287H298.304L296.693 178.349V179.42L298.16 178.484V183.056H296.621V183.947H300.662V183.056H299.204Z" fill="white"/>
<path d="M333 188L333 227" stroke="#2A2859"/>
<circle cx="333" cy="227" r="2" fill="#2A2859"/>
<circle cx="333.5" cy="180.5" r="7.5" fill="#2A2859"/>
<path d="M332.701 182.993L334.465 181.184C335.266 180.356 335.617 179.843 335.617 179.033C335.617 178.088 334.87 177.197 333.475 177.197C332.413 177.197 331.477 177.746 331.162 179.042L332.134 179.249C332.332 178.511 332.764 178.133 333.457 178.133C334.114 178.133 334.51 178.556 334.51 179.105C334.51 179.654 334.249 180.005 333.61 180.68L331.279 183.119V183.947H335.869V182.993H332.701Z" fill="white"/>
<path d="M801 188L801 227" stroke="#2A2859"/>
<circle cx="801" cy="227" r="2" fill="#2A2859"/>
<circle cx="800.5" cy="180.5" r="7.5" fill="#2A2859"/>
<path d="M801.618 180.419C802.158 180.158 802.572 179.672 802.572 178.979C802.572 178.097 801.897 177.197 800.358 177.197C799.287 177.197 798.396 177.782 798.009 178.934L798.954 179.204C799.179 178.547 799.629 178.133 800.34 178.133C801.06 178.133 801.51 178.52 801.51 179.168C801.51 179.447 801.402 179.717 801.177 179.897C800.988 180.05 800.79 180.113 800.34 180.113H799.665V180.995H800.691C800.979 180.995 801.168 181.04 801.348 181.139C801.636 181.283 801.789 181.571 801.789 181.976C801.789 182.579 801.249 183.092 800.385 183.092C799.674 183.092 799.17 182.849 798.684 182.201L797.91 182.786C798.585 183.695 799.431 184.037 800.376 184.037C801.915 184.037 802.851 183.128 802.851 182.03C802.851 181.157 802.275 180.644 801.618 180.419Z" fill="white"/>
</svg>
