<svg width="1105" height="450" viewBox="0 0 1105 450" fill="none" xmlns="http://www.w3.org/2000/svg">
<rect width="1105" height="450" fill="white"/>
<mask id="path-1-inside-1_4591_150604" fill="white">
<path d="M281 111H863V337H281V111Z"/>
</mask>
<path d="M281 111H863V337H281V111Z" fill="#D1F9FF"/>
<path d="M285 337V111H277V337H285Z" fill="#6FE9FF" mask="url(#path-1-inside-1_4591_150604)"/>
<path fill-rule="evenodd" clip-rule="evenodd" d="M321 132C323.967 132 326.867 132.88 329.334 134.528C331.8 136.176 333.723 138.519 334.858 141.26C335.994 144.001 336.291 147.017 335.712 149.926C335.133 152.836 333.704 155.509 331.607 157.607C329.509 159.704 326.836 161.133 323.926 161.712C321.017 162.291 318.001 161.994 315.26 160.858C312.519 159.723 310.176 157.8 308.528 155.334C306.88 152.867 306 149.967 306 147C306 143.022 307.58 139.206 310.393 136.393C313.206 133.58 317.022 132 321 132ZM321 134C318.429 134 315.915 134.762 313.778 136.191C311.64 137.619 309.974 139.65 308.99 142.025C308.006 144.401 307.748 147.014 308.25 149.536C308.751 152.058 309.99 154.374 311.808 156.192C313.626 158.01 315.942 159.249 318.464 159.75C320.986 160.252 323.599 159.994 325.975 159.01C328.35 158.026 330.381 156.36 331.809 154.222C333.238 152.085 334 149.571 334 147C334 143.552 332.63 140.246 330.192 137.808C327.754 135.37 324.448 134 321 134Z" fill="#2A2859"/>
<path d="M319.151 139.609C319.145 139.134 319.327 138.675 319.659 138.334C319.99 137.993 320.444 137.798 320.919 137.791C320.936 137.791 320.953 137.791 320.969 137.791C321.44 137.785 321.893 137.967 322.23 138.295C322.567 138.624 322.759 139.073 322.765 139.544C322.765 139.565 322.765 139.587 322.765 139.609C322.77 139.842 322.73 140.074 322.646 140.291C322.563 140.508 322.437 140.707 322.276 140.876C322.116 141.044 321.924 141.18 321.711 141.274C321.498 141.369 321.268 141.42 321.036 141.426C321.014 141.426 320.991 141.427 320.969 141.426C320.734 141.43 320.5 141.387 320.282 141.3C320.063 141.213 319.863 141.084 319.695 140.92C319.526 140.756 319.391 140.56 319.298 140.344C319.204 140.128 319.155 139.895 319.151 139.66C319.151 139.643 319.151 139.626 319.151 139.609ZM319.681 143.451H322.258V155.646H319.681L319.681 143.451Z" fill="#2A2859"/>
<path d="M346.566 155V141.68H348.672V155H346.566ZM356.302 145.244C358.246 145.244 359.398 146.504 359.398 148.574V155H357.382V148.898C357.382 147.584 356.752 146.99 355.654 146.99C354.232 146.99 353.512 147.98 353.512 149.834V155H351.496V145.46H353.512V146.828C354.16 145.82 355.114 145.244 356.302 145.244ZM364.719 144.596V145.46H367.401V147.026H364.719V155H362.703V147.026H361.029V145.46H362.703V144.686C362.703 142.616 364.053 141.41 365.925 141.41C366.807 141.41 367.689 141.77 368.211 142.418L367.257 143.75C366.969 143.39 366.537 143.174 366.069 143.174C365.331 143.174 364.719 143.606 364.719 144.596ZM372.387 155.18C369.903 155.18 367.869 153.236 367.869 150.176C367.869 147.188 369.885 145.244 372.387 145.244C374.889 145.244 376.905 147.188 376.905 150.176C376.905 153.236 374.871 155.18 372.387 155.18ZM372.387 153.47C373.737 153.47 374.835 152.426 374.835 150.176C374.835 147.908 373.719 146.954 372.387 146.954C371.055 146.954 369.939 147.908 369.939 150.176C369.939 152.426 371.055 153.47 372.387 153.47ZM383.395 145.244C384.781 145.244 385.681 146.162 385.681 147.8V149.06L384.061 149.348V148.376C384.061 147.512 383.755 146.918 382.819 146.918C381.793 146.918 381.037 147.602 381.037 149.42V155H379.021V145.46H381.037V146.738C381.577 145.676 382.567 145.244 383.395 145.244ZM398.316 145.244C400.224 145.244 401.322 146.486 401.322 148.484V155H399.306V148.826C399.306 147.566 398.712 146.99 397.668 146.99C396.264 146.99 395.562 147.962 395.562 149.834V155H393.546V148.826C393.546 147.566 392.952 146.99 391.908 146.99C390.522 146.99 389.82 147.962 389.82 149.834V155H387.804V145.46H389.82V146.81C390.468 145.784 391.404 145.244 392.556 145.244C394.014 145.244 394.968 145.946 395.382 147.134C396.03 145.874 397.038 145.244 398.316 145.244ZM411.76 155H409.906C409.762 154.514 409.672 153.938 409.636 153.2C409.186 154.19 408.178 155.162 406.522 155.162C404.794 155.162 403.57 153.992 403.57 152.336C403.57 150.266 405.406 149.24 407.458 149.24C408.106 149.24 408.718 149.294 409.384 149.474V148.574C409.384 147.548 408.736 146.882 407.566 146.882C406.468 146.882 405.694 147.476 405.334 148.592L403.624 148.07C404.308 146.054 405.946 145.244 407.656 145.244C410.194 145.244 411.346 146.738 411.346 148.556V152.246C411.346 153.38 411.526 154.388 411.76 155ZM409.384 151.058V150.842C408.808 150.644 408.25 150.572 407.656 150.572C406.468 150.572 405.55 151.112 405.55 152.156C405.55 153.038 406.18 153.596 407.134 153.596C408.106 153.596 409.384 153.02 409.384 151.058ZM416.594 152.048C416.594 153.11 417.242 153.434 417.908 153.434C418.43 153.434 418.844 153.218 419.258 152.804L420.122 154.1C419.402 154.82 418.61 155.162 417.584 155.162C415.928 155.162 414.578 154.154 414.578 152.174V147.026H412.904V145.46H414.578V143.336L416.594 142.418V145.46H419.96V147.026H416.594V152.048ZM422.876 143.876C422.084 143.876 421.454 143.264 421.454 142.454C421.454 141.644 422.084 141.032 422.876 141.032C423.668 141.032 424.28 141.644 424.28 142.454C424.28 143.264 423.668 143.876 422.876 143.876ZM421.868 155V145.46H423.884V155H421.868ZM432.849 145.46H434.937L431.283 155H429.213L425.577 145.46H427.809L430.329 152.894L432.849 145.46ZM443.55 152.048C443.55 153.11 444.198 153.434 444.864 153.434C445.386 153.434 445.8 153.218 446.214 152.804L447.078 154.1C446.358 154.82 445.566 155.162 444.54 155.162C442.884 155.162 441.534 154.154 441.534 152.174V147.026H439.86V145.46H441.534V143.336L443.55 142.418V145.46H446.916V147.026H443.55V152.048ZM448.59 141.32H451.056V143.75H448.59V141.32ZM448.824 155V145.46H450.84V155H448.824ZM456.421 152.048C456.421 153.11 457.069 153.434 457.735 153.434C458.257 153.434 458.671 153.218 459.085 152.804L459.949 154.1C459.229 154.82 458.437 155.162 457.411 155.162C455.755 155.162 454.405 154.154 454.405 152.174V147.026H452.731V145.46H454.405V143.336L456.421 142.418V145.46H459.787V147.026H456.421V152.048ZM464.237 152.048C464.237 153.11 464.885 153.434 465.551 153.434C466.073 153.434 466.487 153.218 466.901 152.804L467.765 154.1C467.045 154.82 466.253 155.162 465.227 155.162C463.571 155.162 462.221 154.154 462.221 152.174V147.026H460.547V145.46H462.221V143.336L464.237 142.418V145.46H467.603V147.026H464.237V152.048ZM475.606 151.994L476.974 152.786C476.434 153.974 475.174 155.162 472.996 155.162C470.17 155.162 468.46 153.074 468.46 150.14C468.46 147.242 470.314 145.244 472.852 145.244C475.102 145.244 476.956 146.756 476.956 149.456L476.92 150.644H470.44C470.548 152.66 471.538 153.524 473.122 153.524C474.292 153.524 475.102 152.894 475.606 151.994ZM472.852 146.828C471.628 146.828 470.602 147.476 470.44 149.204H474.994C475.012 147.512 473.968 146.828 472.852 146.828ZM483.076 154.946C482.698 155.054 482.32 155.108 481.924 155.108C480.106 155.108 479.242 154.028 479.242 152.282V141.68H481.258V152.138C481.258 152.966 481.744 153.344 482.482 153.344C482.662 153.344 482.86 153.326 483.076 153.272V154.946Z" fill="#2A2859"/>
<path fill-rule="evenodd" clip-rule="evenodd" d="M817.083 147L811.125 141.042L812.042 140.125L818 146.083L823.958 140.125L824.875 141.042L818.917 147L824.875 152.958L823.958 153.875L818 147.917L812.042 153.875L811.125 152.958L817.083 147Z" fill="#2A2859"/>
<path d="M313.226 203.962C314.594 204.376 315.764 205.672 315.764 207.31C315.764 209.002 314.612 211 311.444 211H306.584V197.68H311.012C314.054 197.68 315.152 199.354 315.152 201.172C315.152 202.234 314.576 203.476 313.226 203.962ZM311.012 198.796H307.844V203.656H311.282C313.064 203.656 313.856 202.756 313.856 201.172C313.856 199.876 313.064 198.796 311.012 198.796ZM311.372 209.884C313.55 209.884 314.432 208.948 314.432 207.382C314.432 205.69 313.334 204.736 311.552 204.736H307.844V209.884H311.372ZM321.405 201.316C322.647 201.316 323.547 202.144 323.547 203.764V204.7L322.431 204.916V203.98C322.431 203.026 322.107 202.396 321.135 202.396C320.037 202.396 319.209 203.206 319.209 205.132V211H317.985V201.46H319.209V202.648C319.713 201.748 320.559 201.316 321.405 201.316ZM331.133 201.46H332.357V211H331.133V209.542C330.557 210.568 329.549 211.144 328.379 211.144C326.507 211.144 325.373 209.938 325.373 207.868V201.46H326.597V207.76C326.597 209.326 327.389 210.046 328.721 210.046C330.413 210.046 331.133 208.696 331.133 206.824V201.46ZM341.12 211L337.61 206.266L336.44 207.382V211H335.216V197.68H336.44V205.942L340.976 201.46H342.596L338.438 205.456L342.668 211H341.12ZM346.082 208.624C346.082 209.74 346.748 210.064 347.342 210.064C347.918 210.064 348.296 209.848 348.746 209.38L349.394 210.1C348.764 210.838 348.08 211.144 347.234 211.144C345.938 211.144 344.858 210.28 344.858 208.588V202.468H343.058V201.46H344.858V199.408L346.082 198.688V201.46H349.178V202.468H346.082V208.624ZM362.28 197.68H363.504V211H362.28V209.218C361.65 210.442 360.39 211.126 359.148 211.126C356.718 211.126 355.08 209.092 355.08 206.32C355.08 203.386 356.736 201.316 359.292 201.316C360.624 201.316 361.704 201.982 362.28 203.188V197.68ZM359.274 210.046C361.182 210.046 362.28 208.624 362.28 206.284C362.28 203.8 361.2 202.396 359.292 202.396C357.51 202.396 356.34 203.764 356.34 206.266C356.34 208.678 357.51 210.046 359.274 210.046ZM372.836 208.3L373.736 208.804C373.286 209.956 372.098 211.144 369.974 211.144C367.292 211.144 365.708 209.146 365.708 206.104C365.708 203.314 367.364 201.316 369.848 201.316C371.9 201.316 373.664 202.792 373.664 205.384L373.628 206.446H366.95C367.058 208.984 368.264 210.064 370.1 210.064C371.54 210.064 372.386 209.236 372.836 208.3ZM369.848 202.396C368.408 202.396 367.112 203.17 366.95 205.438H372.458C372.512 203.296 371.252 202.396 369.848 202.396ZM377.784 208.624C377.784 209.74 378.45 210.064 379.044 210.064C379.62 210.064 379.998 209.848 380.448 209.38L381.096 210.1C380.466 210.838 379.782 211.144 378.936 211.144C377.64 211.144 376.56 210.28 376.56 208.588V202.468H374.76V201.46H376.56V199.408L377.784 198.688V201.46H380.88V202.468H377.784V208.624ZM384.545 208.624C384.545 209.74 385.211 210.064 385.805 210.064C386.381 210.064 386.759 209.848 387.209 209.38L387.857 210.1C387.227 210.838 386.543 211.144 385.697 211.144C384.401 211.144 383.321 210.28 383.321 208.588V202.468H381.521V201.46H383.321V199.408L384.545 198.688V201.46H387.641V202.468H384.545V208.624ZM395.72 208.3L396.62 208.804C396.17 209.956 394.982 211.144 392.858 211.144C390.176 211.144 388.592 209.146 388.592 206.104C388.592 203.314 390.248 201.316 392.732 201.316C394.784 201.316 396.548 202.792 396.548 205.384L396.512 206.446H389.834C389.942 208.984 391.148 210.064 392.984 210.064C394.424 210.064 395.27 209.236 395.72 208.3ZM392.732 202.396C391.292 202.396 389.996 203.17 389.834 205.438H395.342C395.396 203.296 394.136 202.396 392.732 202.396ZM405.249 208.624C405.249 209.74 405.915 210.064 406.509 210.064C407.085 210.064 407.463 209.848 407.913 209.38L408.561 210.1C407.931 210.838 407.247 211.144 406.401 211.144C405.105 211.144 404.025 210.28 404.025 208.588V202.468H402.225V201.46H404.025V199.408L405.249 198.688V201.46H408.345V202.468H405.249V208.624ZM416.425 208.3L417.325 208.804C416.875 209.956 415.687 211.144 413.563 211.144C410.881 211.144 409.297 209.146 409.297 206.104C409.297 203.314 410.953 201.316 413.437 201.316C415.489 201.316 417.253 202.792 417.253 205.384L417.217 206.446H410.539C410.647 208.984 411.853 210.064 413.689 210.064C415.129 210.064 415.975 209.236 416.425 208.3ZM413.437 202.396C411.997 202.396 410.701 203.17 410.539 205.438H416.047C416.101 203.296 414.841 202.396 413.437 202.396ZM425.581 211L422.071 206.266L420.901 207.382V211H419.677V197.68H420.901V205.942L425.437 201.46H427.057L422.899 205.456L427.129 211H425.581ZM427.973 203.944C427.973 202.432 429.395 201.316 431.393 201.316C433.121 201.316 434.453 202.144 434.849 203.404L433.841 203.8C433.463 202.882 432.581 202.396 431.357 202.396C430.025 202.396 429.161 202.954 429.161 203.836C429.161 204.628 429.683 205.114 430.817 205.348L432.077 205.6C434.165 206.014 435.137 206.914 435.137 208.336C435.137 209.992 433.661 211.144 431.537 211.144C429.611 211.144 428.261 210.388 427.613 208.948L428.657 208.516C429.107 209.524 430.097 210.064 431.501 210.064C432.977 210.064 433.949 209.416 433.949 208.444C433.949 207.544 433.445 207.058 432.185 206.788L430.637 206.464C428.891 206.104 427.973 205.222 427.973 203.944ZM439.078 208.624C439.078 209.74 439.744 210.064 440.338 210.064C440.914 210.064 441.292 209.848 441.742 209.38L442.39 210.1C441.76 210.838 441.076 211.144 440.23 211.144C438.934 211.144 437.854 210.28 437.854 208.588V202.468H436.054V201.46H437.854V199.408L439.078 198.688V201.46H442.174V202.468H439.078V208.624ZM445.839 200.128V201.46H448.503V202.468H445.839V211H444.615V202.468H442.815V201.46H444.615V200.128C444.615 198.472 445.695 197.536 447.171 197.536C447.855 197.536 448.647 197.806 449.097 198.526L448.359 199.264C448.071 198.832 447.639 198.58 447.135 198.58C446.505 198.58 445.839 198.958 445.839 200.128ZM456.136 208.3L457.036 208.804C456.586 209.956 455.398 211.144 453.274 211.144C450.592 211.144 449.008 209.146 449.008 206.104C449.008 203.314 450.664 201.316 453.148 201.316C455.2 201.316 456.964 202.792 456.964 205.384L456.928 206.446H450.25C450.358 208.984 451.564 210.064 453.4 210.064C454.84 210.064 455.686 209.236 456.136 208.3ZM453.148 202.396C451.708 202.396 450.412 203.17 450.25 205.438H455.758C455.812 203.296 454.552 202.396 453.148 202.396ZM462.34 210.964C462.052 211.036 461.818 211.072 461.548 211.072C460.054 211.072 459.352 210.136 459.352 208.732V197.68H460.576V208.732C460.576 209.542 461.008 209.956 461.764 209.956C461.962 209.956 462.16 209.938 462.34 209.884V210.964ZM466.104 208.624C466.104 209.74 466.77 210.064 467.364 210.064C467.94 210.064 468.318 209.848 468.768 209.38L469.416 210.1C468.786 210.838 468.102 211.144 467.256 211.144C465.96 211.144 464.88 210.28 464.88 208.588V202.468H463.08V201.46H464.88V199.408L466.104 198.688V201.46H469.2V202.468H466.104V208.624ZM477.28 208.3L478.18 208.804C477.73 209.956 476.542 211.144 474.418 211.144C471.736 211.144 470.152 209.146 470.152 206.104C470.152 203.314 471.808 201.316 474.292 201.316C476.344 201.316 478.108 202.792 478.108 205.384L478.072 206.446H471.394C471.502 208.984 472.708 210.064 474.544 210.064C475.984 210.064 476.83 209.236 477.28 208.3ZM474.292 202.396C472.852 202.396 471.556 203.17 471.394 205.438H476.902C476.956 203.296 475.696 202.396 474.292 202.396ZM482.228 208.624C482.228 209.74 482.894 210.064 483.488 210.064C484.064 210.064 484.442 209.848 484.892 209.38L485.54 210.1C484.91 210.838 484.226 211.144 483.38 211.144C482.084 211.144 481.004 210.28 481.004 208.588V202.468H479.204V201.46H481.004V199.408L482.228 198.688V201.46H485.324V202.468H482.228V208.624ZM493.746 208.624C493.746 209.74 494.412 210.064 495.006 210.064C495.582 210.064 495.96 209.848 496.41 209.38L497.058 210.1C496.428 210.838 495.744 211.144 494.898 211.144C493.602 211.144 492.522 210.28 492.522 208.588V202.468H490.722V201.46H492.522V199.408L493.746 198.688V201.46H496.842V202.468H493.746V208.624ZM499.562 199.732C498.968 199.732 498.482 199.264 498.482 198.652C498.482 198.04 498.968 197.572 499.562 197.572C500.156 197.572 500.642 198.04 500.642 198.652C500.642 199.264 500.156 199.732 499.562 199.732ZM498.95 211V201.46H500.174V211H498.95ZM506.063 210.964C505.775 211.036 505.541 211.072 505.271 211.072C503.777 211.072 503.075 210.136 503.075 208.732V197.68H504.299V208.732C504.299 209.542 504.731 209.956 505.487 209.956C505.685 209.956 505.883 209.938 506.063 209.884V210.964ZM515.903 200.452C514.733 200.452 513.779 199.588 513.779 198.4C513.779 197.212 514.733 196.348 515.903 196.348C517.073 196.348 518.027 197.212 518.027 198.4C518.027 199.588 517.073 200.452 515.903 200.452ZM515.903 197.176C515.219 197.176 514.679 197.608 514.679 198.4C514.679 199.21 515.219 199.624 515.903 199.624C516.587 199.624 517.127 199.21 517.127 198.4C517.127 197.608 516.587 197.176 515.903 197.176ZM519.611 211H518.495C518.351 210.478 518.243 209.848 518.243 209.128C517.757 210.244 516.515 211.144 514.967 211.144C513.275 211.144 511.997 210.046 511.997 208.408C511.997 206.446 513.761 205.42 515.723 205.42C516.497 205.42 517.253 205.51 518.027 205.78V204.52C518.027 203.278 517.271 202.432 515.795 202.432C514.607 202.432 513.599 202.954 513.095 204.412L512.015 204.088C512.735 202.072 514.193 201.316 515.867 201.316C518.225 201.316 519.215 202.738 519.215 204.376V208.3C519.215 209.38 519.395 210.352 519.611 211ZM518.027 207.04V206.824C517.289 206.518 516.533 206.428 515.795 206.428C514.355 206.428 513.221 207.076 513.221 208.336C513.221 209.488 514.031 210.1 515.183 210.1C516.425 210.1 518.027 209.362 518.027 207.04ZM530.907 201.334C533.337 201.334 534.975 203.368 534.975 206.14C534.975 209.074 533.319 211.144 530.763 211.144C529.431 211.144 528.351 210.478 527.775 209.272V211H526.551V197.68H527.775V203.242C528.405 202.018 529.665 201.334 530.907 201.334ZM530.763 210.064C532.545 210.064 533.715 208.696 533.715 206.194C533.715 203.782 532.545 202.414 530.781 202.414C528.873 202.414 527.775 203.836 527.775 206.176C527.775 208.66 528.855 210.064 530.763 210.064ZM543.782 208.3L544.682 208.804C544.232 209.956 543.044 211.144 540.92 211.144C538.238 211.144 536.654 209.146 536.654 206.104C536.654 203.314 538.31 201.316 540.794 201.316C542.846 201.316 544.61 202.792 544.61 205.384L544.574 206.446H537.896C538.004 208.984 539.21 210.064 541.046 210.064C542.486 210.064 543.332 209.236 543.782 208.3ZM540.794 202.396C539.354 202.396 538.058 203.17 537.896 205.438H543.404C543.458 203.296 542.198 202.396 540.794 202.396ZM546.53 203.944C546.53 202.432 547.952 201.316 549.95 201.316C551.678 201.316 553.01 202.144 553.406 203.404L552.398 203.8C552.02 202.882 551.138 202.396 549.914 202.396C548.582 202.396 547.718 202.954 547.718 203.836C547.718 204.628 548.24 205.114 549.374 205.348L550.634 205.6C552.722 206.014 553.694 206.914 553.694 208.336C553.694 209.992 552.218 211.144 550.094 211.144C548.168 211.144 546.818 210.388 546.17 208.948L547.214 208.516C547.664 209.524 548.654 210.064 550.058 210.064C551.534 210.064 552.506 209.416 552.506 208.444C552.506 207.544 552.002 207.058 550.742 206.788L549.194 206.464C547.448 206.104 546.53 205.222 546.53 203.944ZM561.843 211L558.333 206.266L557.163 207.382V211H555.939V197.68H557.163V205.942L561.699 201.46H563.319L559.161 205.456L563.391 211H561.843ZM568.492 201.316C569.734 201.316 570.634 202.144 570.634 203.764V204.7L569.518 204.916V203.98C569.518 203.026 569.194 202.396 568.222 202.396C567.124 202.396 566.296 203.206 566.296 205.132V211H565.072V201.46H566.296V202.648C566.8 201.748 567.646 201.316 568.492 201.316ZM572.529 197.752H574.401V199.588H572.529V197.752ZM572.853 211V201.46H574.077V211H572.853ZM583.061 201.46H584.321L580.577 211H579.497L575.753 201.46H577.085L580.073 209.65L583.061 201.46ZM592.152 208.3L593.052 208.804C592.602 209.956 591.414 211.144 589.29 211.144C586.608 211.144 585.024 209.146 585.024 206.104C585.024 203.314 586.68 201.316 589.164 201.316C591.216 201.316 592.98 202.792 592.98 205.384L592.944 206.446H586.266C586.374 208.984 587.58 210.064 589.416 210.064C590.856 210.064 591.702 209.236 592.152 208.3ZM589.164 202.396C587.724 202.396 586.428 203.17 586.266 205.438H591.774C591.828 203.296 590.568 202.396 589.164 202.396ZM603.805 201.316C605.713 201.316 606.829 202.486 606.829 204.628V211H605.605V204.808C605.605 203.08 604.813 202.432 603.481 202.432C601.807 202.432 601.033 203.728 601.033 205.636V211H599.809V197.68H601.033V202.936C601.609 201.892 602.653 201.316 603.805 201.316ZM615.484 201.46H616.744L613 211H611.92L608.176 201.46H609.508L612.496 209.65L615.484 201.46ZM625.169 211H624.053C623.909 210.478 623.801 209.848 623.801 209.128C623.315 210.244 622.073 211.144 620.525 211.144C618.833 211.144 617.555 210.046 617.555 208.408C617.555 206.446 619.319 205.42 621.281 205.42C622.055 205.42 622.811 205.51 623.585 205.78V204.52C623.585 203.278 622.829 202.432 621.353 202.432C620.165 202.432 619.157 202.954 618.653 204.412L617.573 204.088C618.293 202.072 619.751 201.316 621.425 201.316C623.783 201.316 624.773 202.738 624.773 204.376V208.3C624.773 209.38 624.953 210.352 625.169 211ZM623.585 207.04V206.824C622.847 206.518 622.091 206.428 621.353 206.428C619.913 206.428 618.779 207.076 618.779 208.336C618.779 209.488 619.589 210.1 620.741 210.1C621.983 210.1 623.585 209.362 623.585 207.04ZM638.157 201.46H639.417L635.673 211H634.593L630.849 201.46H632.181L635.169 209.65L638.157 201.46ZM647.842 211H646.726C646.582 210.478 646.474 209.848 646.474 209.128C645.988 210.244 644.746 211.144 643.198 211.144C641.506 211.144 640.228 210.046 640.228 208.408C640.228 206.446 641.992 205.42 643.954 205.42C644.728 205.42 645.484 205.51 646.258 205.78V204.52C646.258 203.278 645.502 202.432 644.026 202.432C642.838 202.432 641.83 202.954 641.326 204.412L640.246 204.088C640.966 202.072 642.424 201.316 644.098 201.316C646.456 201.316 647.446 202.738 647.446 204.376V208.3C647.446 209.38 647.626 210.352 647.842 211ZM646.258 207.04V206.824C645.52 206.518 644.764 206.428 644.026 206.428C642.586 206.428 641.452 207.076 641.452 208.336C641.452 209.488 642.262 210.1 643.414 210.1C644.656 210.1 646.258 209.362 646.258 207.04ZM653.761 201.316C655.003 201.316 655.903 202.144 655.903 203.764V204.7L654.787 204.916V203.98C654.787 203.026 654.463 202.396 653.491 202.396C652.393 202.396 651.565 203.206 651.565 205.132V211H650.341V201.46H651.565V202.648C652.069 201.748 652.915 201.316 653.761 201.316ZM657.302 203.944C657.302 202.432 658.724 201.316 660.722 201.316C662.45 201.316 663.782 202.144 664.178 203.404L663.17 203.8C662.792 202.882 661.91 202.396 660.686 202.396C659.354 202.396 658.49 202.954 658.49 203.836C658.49 204.628 659.012 205.114 660.146 205.348L661.406 205.6C663.494 206.014 664.466 206.914 664.466 208.336C664.466 209.992 662.99 211.144 660.866 211.144C658.94 211.144 657.59 210.388 656.942 208.948L657.986 208.516C658.436 209.524 659.426 210.064 660.83 210.064C662.306 210.064 663.278 209.416 663.278 208.444C663.278 207.544 662.774 207.058 661.514 206.788L659.966 206.464C658.22 206.104 657.302 205.222 657.302 203.944ZM669.663 210.964C669.375 211.036 669.141 211.072 668.871 211.072C667.377 211.072 666.675 210.136 666.675 208.732V197.68H667.899V208.732C667.899 209.542 668.331 209.956 669.087 209.956C669.285 209.956 669.483 209.938 669.663 209.884V210.964ZM672.308 199.732C671.714 199.732 671.228 199.264 671.228 198.652C671.228 198.04 671.714 197.572 672.308 197.572C672.902 197.572 673.388 198.04 673.388 198.652C673.388 199.264 672.902 199.732 672.308 199.732ZM671.696 211V201.46H672.92V211H671.696ZM679.816 201.316C681.724 201.316 682.84 202.486 682.84 204.628V211H681.616V204.808C681.616 203.08 680.824 202.432 679.492 202.432C677.818 202.432 677.044 203.728 677.044 205.636V211H675.82V201.46H677.044V202.936C677.62 201.892 678.664 201.316 679.816 201.316ZM694.155 202.468H692.103V202.81C692.571 203.386 692.823 204.106 692.823 204.808C692.823 206.554 691.563 208.336 688.881 208.336H688.467C687.387 208.336 686.613 208.75 686.613 209.38C686.613 209.866 686.991 210.208 687.783 210.208H691.653C693.201 210.208 693.993 210.964 693.993 212.152C693.993 214.042 691.815 215.032 689.133 215.032C686.721 215.032 685.047 214.258 684.471 212.584L685.461 212.134C686.127 213.7 687.531 214.006 689.133 214.006C691.113 214.006 692.769 213.412 692.769 212.26C692.769 211.72 692.481 211.324 691.617 211.324H687.513C686.181 211.324 685.389 210.694 685.389 209.704C685.389 208.858 686.091 208.12 687.261 207.814C686.001 207.31 685.299 205.978 685.299 204.808C685.299 203.098 686.577 201.316 689.097 201.316C690.087 201.316 690.843 201.64 691.419 202.126V201.46H694.155V202.468ZM689.079 207.328C690.771 207.328 691.617 206.158 691.617 204.808C691.617 203.476 690.771 202.36 689.079 202.36C687.369 202.36 686.505 203.494 686.505 204.808C686.505 206.14 687.369 207.328 689.079 207.328ZM701.659 208.3L702.559 208.804C702.109 209.956 700.921 211.144 698.797 211.144C696.115 211.144 694.531 209.146 694.531 206.104C694.531 203.314 696.187 201.316 698.671 201.316C700.723 201.316 702.487 202.792 702.487 205.384L702.451 206.446H695.773C695.881 208.984 697.087 210.064 698.923 210.064C700.363 210.064 701.209 209.236 701.659 208.3ZM698.671 202.396C697.231 202.396 695.935 203.17 695.773 205.438H701.281C701.335 203.296 700.075 202.396 698.671 202.396ZM708.871 201.316C710.779 201.316 711.895 202.486 711.895 204.628V211H710.671V204.808C710.671 203.08 709.879 202.432 708.547 202.432C706.873 202.432 706.099 203.728 706.099 205.636V211H704.875V201.46H706.099V202.936C706.675 201.892 707.719 201.316 708.871 201.316ZM723.079 201.316C724.987 201.316 726.103 202.486 726.103 204.628V211H724.879V204.808C724.879 203.08 724.087 202.432 722.755 202.432C721.081 202.432 720.307 203.728 720.307 205.636V211H719.083V197.68H720.307V202.936C720.883 201.892 721.927 201.316 723.079 201.316ZM735.959 211H734.843C734.699 210.478 734.591 209.848 734.591 209.128C734.105 210.244 732.863 211.144 731.315 211.144C729.623 211.144 728.345 210.046 728.345 208.408C728.345 206.446 730.109 205.42 732.071 205.42C732.845 205.42 733.601 205.51 734.375 205.78V204.52C734.375 203.278 733.619 202.432 732.143 202.432C730.955 202.432 729.947 202.954 729.443 204.412L728.363 204.088C729.083 202.072 730.541 201.316 732.215 201.316C734.573 201.316 735.563 202.738 735.563 204.376V208.3C735.563 209.38 735.743 210.352 735.959 211ZM734.375 207.04V206.824C733.637 206.518 732.881 206.428 732.143 206.428C730.703 206.428 729.569 207.076 729.569 208.336C729.569 209.488 730.379 210.1 731.531 210.1C732.773 210.1 734.375 209.362 734.375 207.04ZM742.453 201.316C744.361 201.316 745.477 202.486 745.477 204.628V211H744.253V204.808C744.253 203.08 743.461 202.432 742.129 202.432C740.455 202.432 739.681 203.728 739.681 205.636V211H738.457V201.46H739.681V202.936C740.257 201.892 741.301 201.316 742.453 201.316ZM754.812 197.68H756.036V211H754.812V209.218C754.182 210.442 752.922 211.126 751.68 211.126C749.25 211.126 747.612 209.092 747.612 206.32C747.612 203.386 749.268 201.316 751.824 201.316C753.156 201.316 754.236 201.982 754.812 203.188V197.68ZM751.806 210.046C753.714 210.046 754.812 208.624 754.812 206.284C754.812 203.8 753.732 202.396 751.824 202.396C750.042 202.396 748.872 203.764 748.872 206.266C748.872 208.678 750.042 210.046 751.806 210.046ZM761.84 210.964C761.552 211.036 761.318 211.072 761.048 211.072C759.554 211.072 758.852 210.136 758.852 208.732V197.68H760.076V208.732C760.076 209.542 760.508 209.956 761.264 209.956C761.462 209.956 761.66 209.938 761.84 209.884V210.964ZM770.108 208.3L771.008 208.804C770.558 209.956 769.37 211.144 767.246 211.144C764.564 211.144 762.98 209.146 762.98 206.104C762.98 203.314 764.636 201.316 767.12 201.316C769.172 201.316 770.936 202.792 770.936 205.384L770.9 206.446H764.222C764.33 208.984 765.536 210.064 767.372 210.064C768.812 210.064 769.658 209.236 770.108 208.3ZM767.12 202.396C765.68 202.396 764.384 203.17 764.222 205.438H769.73C769.784 203.296 768.524 202.396 767.12 202.396ZM776.743 201.316C777.985 201.316 778.885 202.144 778.885 203.764V204.7L777.769 204.916V203.98C777.769 203.026 777.445 202.396 776.473 202.396C775.375 202.396 774.547 203.206 774.547 205.132V211H773.323V201.46H774.547V202.648C775.051 201.748 775.897 201.316 776.743 201.316ZM789.145 211.144C786.787 211.144 784.897 209.2 784.897 206.212C784.897 203.26 786.769 201.316 789.145 201.316C791.521 201.316 793.393 203.26 793.393 206.212C793.393 209.2 791.503 211.144 789.145 211.144ZM789.145 210.064C790.783 210.064 792.133 208.768 792.133 206.212C792.133 203.674 790.765 202.396 789.145 202.396C787.525 202.396 786.157 203.674 786.157 206.212C786.157 208.768 787.507 210.064 789.145 210.064ZM805.184 201.316C807.002 201.316 808.064 202.468 808.064 204.448V211H806.84V204.628C806.84 203.08 806.102 202.432 804.86 202.432C803.186 202.432 802.484 203.728 802.484 205.636V211H801.26V204.628C801.26 203.08 800.522 202.432 799.28 202.432C797.606 202.432 796.904 203.728 796.904 205.636V211H795.68V201.46H796.904V202.954C797.48 201.892 798.488 201.316 799.604 201.316C801.026 201.316 801.98 202.018 802.322 203.26C802.862 202 803.96 201.316 805.184 201.316ZM810.737 208.984H812.681V211H810.737V208.984ZM306.584 239V225.68H310.94C314.234 225.68 316.772 228.254 316.772 232.268C316.772 236.282 314.234 239 310.94 239H306.584ZM307.844 237.848H310.688C313.46 237.848 315.476 235.976 315.476 232.268C315.476 228.596 313.442 226.832 310.652 226.832H307.844V237.848ZM324.566 229.46H325.79V239H324.566V237.542C323.99 238.568 322.982 239.144 321.812 239.144C319.94 239.144 318.806 237.938 318.806 235.868V229.46H320.03V235.76C320.03 237.326 320.822 238.046 322.154 238.046C323.846 238.046 324.566 236.696 324.566 234.824V229.46ZM338.958 239L335.448 234.266L334.278 235.382V239H333.054V225.68H334.278V233.942L338.814 229.46H340.434L336.276 233.456L340.506 239H338.958ZM348.753 239H347.637C347.493 238.478 347.385 237.848 347.385 237.128C346.899 238.244 345.657 239.144 344.109 239.144C342.417 239.144 341.139 238.046 341.139 236.408C341.139 234.446 342.903 233.42 344.865 233.42C345.639 233.42 346.395 233.51 347.169 233.78V232.52C347.169 231.278 346.413 230.432 344.937 230.432C343.749 230.432 342.741 230.954 342.237 232.412L341.157 232.088C341.877 230.072 343.335 229.316 345.009 229.316C347.367 229.316 348.357 230.738 348.357 232.376V236.3C348.357 237.38 348.537 238.352 348.753 239ZM347.169 235.04V234.824C346.431 234.518 345.675 234.428 344.937 234.428C343.497 234.428 342.363 235.076 342.363 236.336C342.363 237.488 343.173 238.1 344.325 238.1C345.567 238.1 347.169 237.362 347.169 235.04ZM355.247 229.316C357.155 229.316 358.271 230.486 358.271 232.628V239H357.047V232.808C357.047 231.08 356.255 230.432 354.923 230.432C353.249 230.432 352.475 231.728 352.475 233.636V239H351.251V229.46H352.475V230.936C353.051 229.892 354.095 229.316 355.247 229.316ZM369.815 229.334C372.245 229.334 373.883 231.368 373.883 234.14C373.883 237.074 372.227 239.144 369.671 239.144C368.339 239.144 367.259 238.478 366.683 237.272V239H365.459V225.68H366.683V231.242C367.313 230.018 368.573 229.334 369.815 229.334ZM369.671 238.064C371.453 238.064 372.623 236.696 372.623 234.194C372.623 231.782 371.453 230.414 369.689 230.414C367.781 230.414 366.683 231.836 366.683 234.176C366.683 236.66 367.763 238.064 369.671 238.064ZM379.595 229.316C380.837 229.316 381.737 230.144 381.737 231.764V232.7L380.621 232.916V231.98C380.621 231.026 380.297 230.396 379.325 230.396C378.227 230.396 377.399 231.206 377.399 233.132V239H376.175V229.46H377.399V230.648C377.903 229.748 378.749 229.316 379.595 229.316ZM389.323 229.46H390.547V239H389.323V237.542C388.747 238.568 387.739 239.144 386.569 239.144C384.697 239.144 383.563 237.938 383.563 235.868V229.46H384.787V235.76C384.787 237.326 385.579 238.046 386.911 238.046C388.603 238.046 389.323 236.696 389.323 234.824V229.46ZM399.31 239L395.8 234.266L394.63 235.382V239H393.406V225.68H394.63V233.942L399.166 229.46H400.786L396.628 233.456L400.858 239H399.31ZM408.51 236.3L409.41 236.804C408.96 237.956 407.772 239.144 405.648 239.144C402.966 239.144 401.382 237.146 401.382 234.104C401.382 231.314 403.038 229.316 405.522 229.316C407.574 229.316 409.338 230.792 409.338 233.384L409.302 234.446H402.624C402.732 236.984 403.938 238.064 405.774 238.064C407.214 238.064 408.06 237.236 408.51 236.3ZM405.522 230.396C404.082 230.396 402.786 231.17 402.624 233.438H408.132C408.186 231.296 406.926 230.396 405.522 230.396ZM415.664 231.944C415.664 230.432 417.086 229.316 419.084 229.316C420.812 229.316 422.144 230.144 422.54 231.404L421.532 231.8C421.154 230.882 420.272 230.396 419.048 230.396C417.716 230.396 416.852 230.954 416.852 231.836C416.852 232.628 417.374 233.114 418.508 233.348L419.768 233.6C421.856 234.014 422.828 234.914 422.828 236.336C422.828 237.992 421.352 239.144 419.228 239.144C417.302 239.144 415.952 238.388 415.304 236.948L416.348 236.516C416.798 237.524 417.788 238.064 419.192 238.064C420.668 238.064 421.64 237.416 421.64 236.444C421.64 235.544 421.136 235.058 419.876 234.788L418.328 234.464C416.582 234.104 415.664 233.222 415.664 231.944ZM428.087 228.452C426.917 228.452 425.963 227.588 425.963 226.4C425.963 225.212 426.917 224.348 428.087 224.348C429.257 224.348 430.211 225.212 430.211 226.4C430.211 227.588 429.257 228.452 428.087 228.452ZM428.087 225.176C427.403 225.176 426.863 225.608 426.863 226.4C426.863 227.21 427.403 227.624 428.087 227.624C428.771 227.624 429.311 227.21 429.311 226.4C429.311 225.608 428.771 225.176 428.087 225.176ZM431.795 239H430.679C430.535 238.478 430.427 237.848 430.427 237.128C429.941 238.244 428.699 239.144 427.151 239.144C425.459 239.144 424.181 238.046 424.181 236.408C424.181 234.446 425.945 233.42 427.907 233.42C428.681 233.42 429.437 233.51 430.211 233.78V232.52C430.211 231.278 429.455 230.432 427.979 230.432C426.791 230.432 425.783 230.954 425.279 232.412L424.199 232.088C424.919 230.072 426.377 229.316 428.051 229.316C430.409 229.316 431.399 230.738 431.399 232.376V236.3C431.399 237.38 431.579 238.352 431.795 239ZM430.211 235.04V234.824C429.473 234.518 428.717 234.428 427.979 234.428C426.539 234.428 425.405 235.076 425.405 236.336C425.405 237.488 426.215 238.1 427.367 238.1C428.609 238.1 430.211 237.362 430.211 235.04ZM448.204 229.316C450.022 229.316 451.084 230.468 451.084 232.448V239H449.86V232.628C449.86 231.08 449.122 230.432 447.88 230.432C446.206 230.432 445.504 231.728 445.504 233.636V239H444.28V232.628C444.28 231.08 443.542 230.432 442.3 230.432C440.626 230.432 439.924 231.728 439.924 233.636V239H438.7V229.46H439.924V230.954C440.5 229.892 441.508 229.316 442.624 229.316C444.046 229.316 445 230.018 445.342 231.26C445.882 230 446.98 229.316 448.204 229.316ZM460.938 239H459.822C459.678 238.478 459.57 237.848 459.57 237.128C459.084 238.244 457.842 239.144 456.294 239.144C454.602 239.144 453.324 238.046 453.324 236.408C453.324 234.446 455.088 233.42 457.05 233.42C457.824 233.42 458.58 233.51 459.354 233.78V232.52C459.354 231.278 458.598 230.432 457.122 230.432C455.934 230.432 454.926 230.954 454.422 232.412L453.342 232.088C454.062 230.072 455.52 229.316 457.194 229.316C459.552 229.316 460.542 230.738 460.542 232.376V236.3C460.542 237.38 460.722 238.352 460.938 239ZM459.354 235.04V234.824C458.616 234.518 457.86 234.428 457.122 234.428C455.682 234.428 454.548 235.076 454.548 236.336C454.548 237.488 455.358 238.1 456.51 238.1C457.752 238.1 459.354 237.362 459.354 235.04ZM467.432 229.316C469.34 229.316 470.456 230.486 470.456 232.628V239H469.232V232.808C469.232 231.08 468.44 230.432 467.108 230.432C465.434 230.432 464.66 231.728 464.66 233.636V239H463.436V229.46H464.66V230.936C465.236 229.892 466.28 229.316 467.432 229.316ZM481.771 230.468H479.719V230.81C480.187 231.386 480.439 232.106 480.439 232.808C480.439 234.554 479.179 236.336 476.497 236.336H476.083C475.003 236.336 474.229 236.75 474.229 237.38C474.229 237.866 474.607 238.208 475.399 238.208H479.269C480.817 238.208 481.609 238.964 481.609 240.152C481.609 242.042 479.431 243.032 476.749 243.032C474.337 243.032 472.663 242.258 472.087 240.584L473.077 240.134C473.743 241.7 475.147 242.006 476.749 242.006C478.729 242.006 480.385 241.412 480.385 240.26C480.385 239.72 480.097 239.324 479.233 239.324H475.129C473.797 239.324 473.005 238.694 473.005 237.704C473.005 236.858 473.707 236.12 474.877 235.814C473.617 235.31 472.915 233.978 472.915 232.808C472.915 231.098 474.193 229.316 476.713 229.316C477.703 229.316 478.459 229.64 479.035 230.126V229.46H481.771V230.468ZM476.695 235.328C478.387 235.328 479.233 234.158 479.233 232.808C479.233 231.476 478.387 230.36 476.695 230.36C474.985 230.36 474.121 231.494 474.121 232.808C474.121 234.14 474.985 235.328 476.695 235.328ZM489.275 236.3L490.175 236.804C489.725 237.956 488.537 239.144 486.413 239.144C483.731 239.144 482.147 237.146 482.147 234.104C482.147 231.314 483.803 229.316 486.287 229.316C488.339 229.316 490.103 230.792 490.103 233.384L490.067 234.446H483.389C483.497 236.984 484.703 238.064 486.539 238.064C487.979 238.064 488.825 237.236 489.275 236.3ZM486.287 230.396C484.847 230.396 483.551 231.17 483.389 233.438H488.897C488.951 231.296 487.691 230.396 486.287 230.396ZM499.884 238.964C499.596 239.036 499.362 239.072 499.092 239.072C497.598 239.072 496.896 238.136 496.896 236.732V225.68H498.12V236.732C498.12 237.542 498.552 237.956 499.308 237.956C499.506 237.956 499.704 237.938 499.884 237.884V238.964ZM502.529 227.732C501.935 227.732 501.449 227.264 501.449 226.652C501.449 226.04 501.935 225.572 502.529 225.572C503.123 225.572 503.609 226.04 503.609 226.652C503.609 227.264 503.123 227.732 502.529 227.732ZM501.917 239V229.46H503.141V239H501.917ZM510.037 229.316C511.945 229.316 513.061 230.486 513.061 232.628V239H511.837V232.808C511.837 231.08 511.045 230.432 509.713 230.432C508.039 230.432 507.265 231.728 507.265 233.636V239H506.041V229.46H507.265V230.936C507.841 229.892 508.885 229.316 510.037 229.316ZM515.412 225.752H517.284V227.588H515.412V225.752ZM514.908 242.906C514.584 242.906 514.278 242.852 513.972 242.762L514.08 241.682C514.332 241.772 514.566 241.79 514.728 241.79C515.574 241.79 515.736 241.214 515.736 240.386V229.46H516.96V240.458C516.96 242.078 516.258 242.906 514.908 242.906ZM526.378 236.3L527.278 236.804C526.828 237.956 525.64 239.144 523.516 239.144C520.834 239.144 519.25 237.146 519.25 234.104C519.25 231.314 520.906 229.316 523.39 229.316C525.442 229.316 527.206 230.792 527.206 233.384L527.17 234.446H520.492C520.6 236.984 521.806 238.064 523.642 238.064C525.082 238.064 525.928 237.236 526.378 236.3ZM523.39 230.396C521.95 230.396 520.654 231.17 520.492 233.438H526C526.054 231.296 524.794 230.396 523.39 230.396ZM533.013 229.316C534.255 229.316 535.155 230.144 535.155 231.764V232.7L534.039 232.916V231.98C534.039 231.026 533.715 230.396 532.743 230.396C531.645 230.396 530.817 231.206 530.817 233.132V239H529.593V229.46H530.817V230.648C531.321 229.748 532.167 229.316 533.013 229.316ZM548.367 225.68H549.591V239H548.367V237.218C547.737 238.442 546.477 239.126 545.235 239.126C542.805 239.126 541.167 237.092 541.167 234.32C541.167 231.386 542.823 229.316 545.379 229.316C546.711 229.316 547.791 229.982 548.367 231.188V225.68ZM545.361 238.046C547.269 238.046 548.367 236.624 548.367 234.284C548.367 231.8 547.287 230.396 545.379 230.396C543.597 230.396 542.427 231.764 542.427 234.266C542.427 236.678 543.597 238.046 545.361 238.046ZM557.951 229.46H559.175V239H557.951V237.542C557.375 238.568 556.367 239.144 555.197 239.144C553.325 239.144 552.191 237.938 552.191 235.868V229.46H553.415V235.76C553.415 237.326 554.207 238.046 555.539 238.046C557.231 238.046 557.951 236.696 557.951 234.824V229.46ZM570.436 229.316C572.344 229.316 573.46 230.486 573.46 232.628V239H572.236V232.808C572.236 231.08 571.444 230.432 570.112 230.432C568.438 230.432 567.664 231.728 567.664 233.636V239H566.44V225.68H567.664V230.936C568.24 229.892 569.284 229.316 570.436 229.316ZM583.316 239H582.2C582.056 238.478 581.948 237.848 581.948 237.128C581.462 238.244 580.22 239.144 578.672 239.144C576.98 239.144 575.702 238.046 575.702 236.408C575.702 234.446 577.466 233.42 579.428 233.42C580.202 233.42 580.958 233.51 581.732 233.78V232.52C581.732 231.278 580.976 230.432 579.5 230.432C578.312 230.432 577.304 230.954 576.8 232.412L575.72 232.088C576.44 230.072 577.898 229.316 579.572 229.316C581.93 229.316 582.92 230.738 582.92 232.376V236.3C582.92 237.38 583.1 238.352 583.316 239ZM581.732 235.04V234.824C580.994 234.518 580.238 234.428 579.5 234.428C578.06 234.428 576.926 235.076 576.926 236.336C576.926 237.488 577.736 238.1 578.888 238.1C580.13 238.1 581.732 237.362 581.732 235.04ZM589.234 229.316C590.476 229.316 591.376 230.144 591.376 231.764V232.7L590.26 232.916V231.98C590.26 231.026 589.936 230.396 588.964 230.396C587.866 230.396 587.038 231.206 587.038 233.132V239H585.814V229.46H587.038V230.648C587.542 229.748 588.388 229.316 589.234 229.316ZM602.392 229.334C604.822 229.334 606.46 231.368 606.46 234.14C606.46 237.074 604.804 239.144 602.248 239.144C600.916 239.144 599.836 238.478 599.26 237.272V239H598.036V225.68H599.26V231.242C599.89 230.018 601.15 229.334 602.392 229.334ZM602.248 238.064C604.03 238.064 605.2 236.696 605.2 234.194C605.2 231.782 604.03 230.414 602.266 230.414C600.358 230.414 599.26 231.836 599.26 234.176C599.26 236.66 600.34 238.064 602.248 238.064ZM615.268 236.3L616.168 236.804C615.718 237.956 614.53 239.144 612.406 239.144C609.724 239.144 608.14 237.146 608.14 234.104C608.14 231.314 609.796 229.316 612.28 229.316C614.332 229.316 616.096 230.792 616.096 233.384L616.06 234.446H609.382C609.49 236.984 610.696 238.064 612.532 238.064C613.972 238.064 614.818 237.236 615.268 236.3ZM612.28 230.396C610.84 230.396 609.544 231.17 609.382 233.438H614.89C614.944 231.296 613.684 230.396 612.28 230.396ZM622.515 229.316C624.423 229.316 625.539 230.486 625.539 232.628V239H624.315V232.808C624.315 231.08 623.523 230.432 622.191 230.432C620.517 230.432 619.743 231.728 619.743 233.636V239H618.519V225.68H619.743V230.936C620.319 229.892 621.363 229.316 622.515 229.316ZM631.921 239.144C629.563 239.144 627.673 237.2 627.673 234.212C627.673 231.26 629.545 229.316 631.921 229.316C634.297 229.316 636.169 231.26 636.169 234.212C636.169 237.2 634.279 239.144 631.921 239.144ZM631.921 238.064C633.559 238.064 634.909 236.768 634.909 234.212C634.909 231.674 633.541 230.396 631.921 230.396C630.301 230.396 628.933 231.674 628.933 234.212C628.933 236.768 630.283 238.064 631.921 238.064ZM644.189 229.46H645.449L641.705 239H640.625L636.881 229.46H638.213L641.201 237.65L644.189 229.46ZM653.429 228.128V229.46H656.093V230.468H653.429V239H652.205V230.468H650.405V229.46H652.205V228.128C652.205 226.472 653.285 225.536 654.761 225.536C655.445 225.536 656.237 225.806 656.687 226.526L655.949 227.264C655.661 226.832 655.229 226.58 654.725 226.58C654.095 226.58 653.429 226.958 653.429 228.128ZM660.846 239.144C658.488 239.144 656.598 237.2 656.598 234.212C656.598 231.26 658.47 229.316 660.846 229.316C663.222 229.316 665.094 231.26 665.094 234.212C665.094 237.2 663.204 239.144 660.846 239.144ZM660.846 238.064C662.484 238.064 663.834 236.768 663.834 234.212C663.834 231.674 662.466 230.396 660.846 230.396C659.226 230.396 657.858 231.674 657.858 234.212C657.858 236.768 659.208 238.064 660.846 238.064ZM670.801 229.316C672.043 229.316 672.943 230.144 672.943 231.764V232.7L671.827 232.916V231.98C671.827 231.026 671.503 230.396 670.531 230.396C669.433 230.396 668.605 231.206 668.605 233.132V239H667.381V229.46H668.605V230.648C669.109 229.748 669.955 229.316 670.801 229.316ZM673.476 236.84C674.232 236.84 674.808 237.488 674.808 238.712C674.808 239.9 674.322 241.088 672.756 242.312L672.324 241.808C673.17 241.052 673.98 240.296 673.836 239.036C673.746 239.054 673.62 239.072 673.476 239.072C672.828 239.072 672.324 238.658 672.324 237.956C672.324 237.326 672.81 236.84 673.476 236.84ZM691.261 229.316C693.079 229.316 694.141 230.468 694.141 232.448V239H692.917V232.628C692.917 231.08 692.179 230.432 690.937 230.432C689.263 230.432 688.561 231.728 688.561 233.636V239H687.337V232.628C687.337 231.08 686.599 230.432 685.357 230.432C683.683 230.432 682.981 231.728 682.981 233.636V239H681.757V229.46H682.981V230.954C683.557 229.892 684.565 229.316 685.681 229.316C687.103 229.316 688.057 230.018 688.399 231.26C688.939 230 690.037 229.316 691.261 229.316ZM703.401 236.3L704.301 236.804C703.851 237.956 702.663 239.144 700.539 239.144C697.857 239.144 696.273 237.146 696.273 234.104C696.273 231.314 697.929 229.316 700.413 229.316C702.465 229.316 704.229 230.792 704.229 233.384L704.193 234.446H697.515C697.623 236.984 698.829 238.064 700.665 238.064C702.105 238.064 702.951 237.236 703.401 236.3ZM700.413 230.396C698.973 230.396 697.677 231.17 697.515 233.438H703.023C703.077 231.296 701.817 230.396 700.413 230.396ZM710.613 229.316C712.521 229.316 713.637 230.486 713.637 232.628V239H712.413V232.808C712.413 231.08 711.621 230.432 710.289 230.432C708.615 230.432 707.841 231.728 707.841 233.636V239H706.617V229.46H707.841V230.936C708.417 229.892 709.461 229.316 710.613 229.316ZM725.145 229.334C727.575 229.334 729.213 231.368 729.213 234.14C729.213 237.074 727.557 239.144 725.001 239.144C723.669 239.144 722.589 238.478 722.013 237.272V242.78H720.789V229.46H722.013V231.242C722.643 230.018 723.903 229.334 725.145 229.334ZM725.001 238.064C726.783 238.064 727.953 236.696 727.953 234.194C727.953 231.782 726.783 230.414 725.019 230.414C723.111 230.414 722.013 231.836 722.013 234.176C722.013 236.66 723.093 238.064 725.001 238.064ZM734.925 229.316C736.167 229.316 737.067 230.144 737.067 231.764V232.7L735.951 232.916V231.98C735.951 231.026 735.627 230.396 734.655 230.396C733.557 230.396 732.729 231.206 732.729 233.132V239H731.505V229.46H732.729V230.648C733.233 229.748 734.079 229.316 734.925 229.316ZM744.879 230.18C745.941 231.026 746.625 232.43 746.625 234.212C746.625 237.2 744.735 239.144 742.377 239.144C741.711 239.144 741.081 238.982 740.523 238.694L739.929 239.864H739.065L739.875 238.28C738.813 237.434 738.129 236.012 738.129 234.212C738.129 231.26 740.001 229.316 742.377 229.316C743.043 229.316 743.673 229.478 744.231 229.748L744.825 228.596H745.689L744.879 230.18ZM739.389 234.212C739.389 235.598 739.785 236.606 740.397 237.254L743.727 230.738C743.313 230.504 742.863 230.396 742.377 230.396C740.757 230.396 739.389 231.674 739.389 234.212ZM742.377 238.064C744.015 238.064 745.365 236.768 745.365 234.212C745.365 232.844 744.969 231.854 744.357 231.206L741.027 237.722C741.423 237.956 741.891 238.064 742.377 238.064ZM754.645 229.46H755.905L752.161 239H751.081L747.337 229.46H748.669L751.657 237.65L754.645 229.46ZM764.965 238.964C764.677 239.036 764.443 239.072 764.173 239.072C762.679 239.072 761.977 238.136 761.977 236.732V225.68H763.201V236.732C763.201 237.542 763.633 237.956 764.389 237.956C764.587 237.956 764.785 237.938 764.965 237.884V238.964ZM767.61 227.732C767.016 227.732 766.53 227.264 766.53 226.652C766.53 226.04 767.016 225.572 767.61 225.572C768.204 225.572 768.69 226.04 768.69 226.652C768.69 227.264 768.204 227.732 767.61 227.732ZM766.998 239V229.46H768.222V239H766.998ZM777.062 239L773.552 234.266L772.382 235.382V239H771.158V225.68H772.382V233.942L776.918 229.46H778.538L774.38 233.456L778.61 239H777.062ZM786.262 236.3L787.162 236.804C786.712 237.956 785.524 239.144 783.4 239.144C780.718 239.144 779.134 237.146 779.134 234.104C779.134 231.314 780.79 229.316 783.274 229.316C785.326 229.316 787.09 230.792 787.09 233.384L787.054 234.446H780.376C780.484 236.984 781.69 238.064 783.526 238.064C784.966 238.064 785.812 237.236 786.262 236.3ZM783.274 230.396C781.834 230.396 780.538 231.17 780.376 233.438H785.884C785.938 231.296 784.678 230.396 783.274 230.396ZM795.386 229.46H796.646L792.902 239H791.822L788.078 229.46H789.41L792.398 237.65L795.386 229.46ZM804.477 236.3L805.377 236.804C804.927 237.956 803.739 239.144 801.615 239.144C798.933 239.144 797.349 237.146 797.349 234.104C797.349 231.314 799.005 229.316 801.489 229.316C803.541 229.316 805.305 230.792 805.305 233.384L805.269 234.446H798.591C798.699 236.984 799.905 238.064 801.741 238.064C803.181 238.064 804.027 237.236 804.477 236.3ZM801.489 230.396C800.049 230.396 798.753 231.17 798.591 233.438H804.099C804.153 231.296 802.893 230.396 801.489 230.396ZM810.681 238.964C810.393 239.036 810.159 239.072 809.889 239.072C808.395 239.072 807.693 238.136 807.693 236.732V225.68H808.917V236.732C808.917 237.542 809.349 237.956 810.105 237.956C810.303 237.956 810.501 237.938 810.681 237.884V238.964ZM309.95 256.452C308.78 256.452 307.826 255.588 307.826 254.4C307.826 253.212 308.78 252.348 309.95 252.348C311.12 252.348 312.074 253.212 312.074 254.4C312.074 255.588 311.12 256.452 309.95 256.452ZM309.95 253.176C309.266 253.176 308.726 253.608 308.726 254.4C308.726 255.21 309.266 255.624 309.95 255.624C310.634 255.624 311.174 255.21 311.174 254.4C311.174 253.608 310.634 253.176 309.95 253.176ZM313.658 267H312.542C312.398 266.478 312.29 265.848 312.29 265.128C311.804 266.244 310.562 267.144 309.014 267.144C307.322 267.144 306.044 266.046 306.044 264.408C306.044 262.446 307.808 261.42 309.77 261.42C310.544 261.42 311.3 261.51 312.074 261.78V260.52C312.074 259.278 311.318 258.432 309.842 258.432C308.654 258.432 307.646 258.954 307.142 260.412L306.062 260.088C306.782 258.072 308.24 257.316 309.914 257.316C312.272 257.316 313.262 258.738 313.262 260.376V264.3C313.262 265.38 313.442 266.352 313.658 267ZM312.074 263.04V262.824C311.336 262.518 310.58 262.428 309.842 262.428C308.402 262.428 307.268 263.076 307.268 264.336C307.268 265.488 308.078 266.1 309.23 266.1C310.472 266.1 312.074 265.362 312.074 263.04ZM326.646 257.46H327.906L324.162 267H323.082L319.338 257.46H320.67L323.658 265.65L326.646 257.46ZM341.587 264.3L342.487 264.804C342.037 265.884 340.867 267.144 338.869 267.144C337.033 267.144 335.719 266.172 335.197 264.588C334.837 265.992 333.451 267.144 331.687 267.144C329.959 267.144 328.645 266.046 328.645 264.408C328.645 262.464 330.409 261.474 332.407 261.474H334.693V260.52C334.693 259.278 333.937 258.432 332.515 258.432C331.309 258.432 330.247 259.044 329.743 260.412L328.717 260.034C329.419 258.162 330.949 257.316 332.515 257.316C334.171 257.316 335.125 258.054 335.521 259.062C336.169 257.982 337.321 257.316 338.743 257.316C340.741 257.316 342.343 258.792 342.343 261.384L342.307 262.41H335.845C335.917 264.984 337.087 266.064 338.923 266.064C340.327 266.064 341.155 265.236 341.587 264.3ZM338.743 258.396C337.285 258.396 335.953 259.17 335.845 261.474H341.209C341.263 259.314 340.075 258.396 338.743 258.396ZM334.693 263.04V262.41H332.443C331.003 262.41 329.869 263.076 329.869 264.336C329.869 265.488 330.679 266.1 331.831 266.1C333.073 266.1 334.693 265.362 334.693 263.04ZM348.227 257.316C349.469 257.316 350.369 258.144 350.369 259.764V260.7L349.253 260.916V259.98C349.253 259.026 348.929 258.396 347.957 258.396C346.859 258.396 346.031 259.206 346.031 261.132V267H344.807V257.46H346.031V258.648C346.535 257.748 347.381 257.316 348.227 257.316ZM358.558 264.3L359.458 264.804C359.008 265.956 357.82 267.144 355.696 267.144C353.014 267.144 351.43 265.146 351.43 262.104C351.43 259.314 353.086 257.316 355.57 257.316C357.622 257.316 359.386 258.792 359.386 261.384L359.35 262.446H352.672C352.78 264.984 353.986 266.064 355.822 266.064C357.262 266.064 358.108 265.236 358.558 264.3ZM355.57 258.396C354.13 258.396 352.834 259.17 352.672 261.438H358.18C358.234 259.296 356.974 258.396 355.57 258.396ZM372.119 267L368.609 262.266L367.439 263.382V267H366.215V253.68H367.439V261.942L371.975 257.46H373.595L369.437 261.456L373.667 267H372.119ZM378.439 267.144C376.081 267.144 374.191 265.2 374.191 262.212C374.191 259.26 376.063 257.316 378.439 257.316C380.815 257.316 382.687 259.26 382.687 262.212C382.687 265.2 380.797 267.144 378.439 267.144ZM378.439 266.064C380.077 266.064 381.427 264.768 381.427 262.212C381.427 259.674 380.059 258.396 378.439 258.396C376.819 258.396 375.451 259.674 375.451 262.212C375.451 264.768 376.801 266.064 378.439 266.064ZM388.395 257.316C389.637 257.316 390.537 258.144 390.537 259.764V260.7L389.421 260.916V259.98C389.421 259.026 389.097 258.396 388.125 258.396C387.027 258.396 386.199 259.206 386.199 261.132V267H384.975V257.46H386.199V258.648C386.703 257.748 387.549 257.316 388.395 257.316ZM394.487 264.624C394.487 265.74 395.153 266.064 395.747 266.064C396.323 266.064 396.701 265.848 397.151 265.38L397.799 266.1C397.169 266.838 396.485 267.144 395.639 267.144C394.343 267.144 393.263 266.28 393.263 264.588V258.468H391.463V257.46H393.263V255.408L394.487 254.688V257.46H397.583V258.468H394.487V264.624ZM407.733 267.144C405.375 267.144 403.485 265.2 403.485 262.212C403.485 259.26 405.357 257.316 407.733 257.316C410.109 257.316 411.981 259.26 411.981 262.212C411.981 265.2 410.091 267.144 407.733 267.144ZM407.733 266.064C409.371 266.064 410.721 264.768 410.721 262.212C410.721 259.674 409.353 258.396 407.733 258.396C406.113 258.396 404.745 259.674 404.745 262.212C404.745 264.768 406.095 266.064 407.733 266.064ZM422.291 258.468H420.239V258.81C420.707 259.386 420.959 260.106 420.959 260.808C420.959 262.554 419.699 264.336 417.017 264.336H416.603C415.523 264.336 414.749 264.75 414.749 265.38C414.749 265.866 415.127 266.208 415.919 266.208H419.789C421.337 266.208 422.129 266.964 422.129 268.152C422.129 270.042 419.951 271.032 417.269 271.032C414.857 271.032 413.183 270.258 412.607 268.584L413.597 268.134C414.263 269.7 415.667 270.006 417.269 270.006C419.249 270.006 420.905 269.412 420.905 268.26C420.905 267.72 420.617 267.324 419.753 267.324H415.649C414.317 267.324 413.525 266.694 413.525 265.704C413.525 264.858 414.227 264.12 415.397 263.814C414.137 263.31 413.435 261.978 413.435 260.808C413.435 259.098 414.713 257.316 417.233 257.316C418.223 257.316 418.979 257.64 419.555 258.126V257.46H422.291V258.468ZM417.215 263.328C418.907 263.328 419.753 262.158 419.753 260.808C419.753 259.476 418.907 258.36 417.215 258.36C415.505 258.36 414.641 259.494 414.641 260.808C414.641 262.14 415.505 263.328 417.215 263.328ZM434.345 267L430.835 262.266L429.665 263.382V267H428.441V253.68H429.665V261.942L434.201 257.46H435.821L431.663 261.456L435.893 267H434.345ZM440.666 267.144C438.308 267.144 436.418 265.2 436.418 262.212C436.418 259.26 438.29 257.316 440.666 257.316C443.042 257.316 444.914 259.26 444.914 262.212C444.914 265.2 443.024 267.144 440.666 267.144ZM440.666 266.064C442.304 266.064 443.654 264.768 443.654 262.212C443.654 259.674 442.286 258.396 440.666 258.396C439.046 258.396 437.678 259.674 437.678 262.212C437.678 264.768 439.028 266.064 440.666 266.064ZM451.197 257.316C453.105 257.316 454.221 258.486 454.221 260.628V267H452.997V260.808C452.997 259.08 452.205 258.432 450.873 258.432C449.199 258.432 448.425 259.728 448.425 261.636V267H447.201V257.46H448.425V258.936C449.001 257.892 450.045 257.316 451.197 257.316ZM456.5 259.944C456.5 258.432 457.922 257.316 459.92 257.316C461.648 257.316 462.98 258.144 463.376 259.404L462.368 259.8C461.99 258.882 461.108 258.396 459.884 258.396C458.552 258.396 457.688 258.954 457.688 259.836C457.688 260.628 458.21 261.114 459.344 261.348L460.604 261.6C462.692 262.014 463.664 262.914 463.664 264.336C463.664 265.992 462.188 267.144 460.064 267.144C458.138 267.144 456.788 266.388 456.14 264.948L457.184 264.516C457.634 265.524 458.624 266.064 460.028 266.064C461.504 266.064 462.476 265.416 462.476 264.444C462.476 263.544 461.972 263.058 460.712 262.788L459.164 262.464C457.418 262.104 456.5 261.222 456.5 259.944ZM466.485 255.732C465.891 255.732 465.405 255.264 465.405 254.652C465.405 254.04 465.891 253.572 466.485 253.572C467.079 253.572 467.565 254.04 467.565 254.652C467.565 255.264 467.079 255.732 466.485 255.732ZM465.873 267V257.46H467.097V267H465.873ZM469.529 259.944C469.529 258.432 470.951 257.316 472.949 257.316C474.677 257.316 476.009 258.144 476.405 259.404L475.397 259.8C475.019 258.882 474.137 258.396 472.913 258.396C471.581 258.396 470.717 258.954 470.717 259.836C470.717 260.628 471.239 261.114 472.373 261.348L473.633 261.6C475.721 262.014 476.693 262.914 476.693 264.336C476.693 265.992 475.217 267.144 473.093 267.144C471.167 267.144 469.817 266.388 469.169 264.948L470.213 264.516C470.663 265.524 471.653 266.064 473.057 266.064C474.533 266.064 475.505 265.416 475.505 264.444C475.505 263.544 475.001 263.058 473.741 262.788L472.193 262.464C470.447 262.104 469.529 261.222 469.529 259.944ZM478.655 264.984H480.599V267H478.655V264.984Z" fill="#2A2859"/>
<path d="M306.036 307.384C306.036 305.648 307.618 304.528 309.452 304.528C311.146 304.528 312.294 305.256 312.812 306.558L311.888 306.936C311.468 305.942 310.53 305.396 309.452 305.396C308.024 305.396 307.016 306.124 307.016 307.272C307.016 308.238 307.59 308.826 308.808 309.064L310.432 309.372C312.028 309.68 313.204 310.534 313.204 312.088C313.204 313.684 311.86 315.112 309.592 315.112C307.8 315.112 306.456 314.496 305.728 312.956L306.624 312.592C307.324 313.964 308.486 314.244 309.62 314.244C311.314 314.244 312.224 313.264 312.224 312.144C312.224 310.898 311.384 310.534 310.124 310.296L308.64 310.016C307.198 309.75 306.036 308.952 306.036 307.384ZM315.758 306.236C315.296 306.236 314.918 305.872 314.918 305.396C314.918 304.92 315.296 304.556 315.758 304.556C316.22 304.556 316.598 304.92 316.598 305.396C316.598 305.872 316.22 306.236 315.758 306.236ZM315.282 315V307.58H316.234V315H315.282ZM318.281 309.512C318.281 308.336 319.387 307.468 320.941 307.468C322.285 307.468 323.321 308.112 323.629 309.092L322.845 309.4C322.551 308.686 321.865 308.308 320.913 308.308C319.877 308.308 319.205 308.742 319.205 309.428C319.205 310.044 319.611 310.422 320.493 310.604L321.473 310.8C323.097 311.122 323.853 311.822 323.853 312.928C323.853 314.216 322.705 315.112 321.053 315.112C319.555 315.112 318.505 314.524 318.001 313.404L318.813 313.068C319.163 313.852 319.933 314.272 321.025 314.272C322.173 314.272 322.929 313.768 322.929 313.012C322.929 312.312 322.537 311.934 321.557 311.724L320.353 311.472C318.995 311.192 318.281 310.506 318.281 309.512ZM327.075 313.152C327.075 314.02 327.593 314.272 328.055 314.272C328.503 314.272 328.797 314.104 329.147 313.74L329.651 314.3C329.161 314.874 328.629 315.112 327.971 315.112C326.963 315.112 326.123 314.44 326.123 313.124V308.364H324.723V307.58H326.123V305.984L327.075 305.424V307.58H329.483V308.364H327.075V313.152ZM337.688 315.112C335.854 315.112 334.384 313.6 334.384 311.276C334.384 308.98 335.84 307.468 337.688 307.468C339.536 307.468 340.992 308.98 340.992 311.276C340.992 313.6 339.522 315.112 337.688 315.112ZM337.688 314.272C338.962 314.272 340.012 313.264 340.012 311.276C340.012 309.302 338.948 308.308 337.688 308.308C336.428 308.308 335.364 309.302 335.364 311.276C335.364 313.264 336.414 314.272 337.688 314.272ZM346.315 307.482C348.205 307.482 349.479 309.064 349.479 311.22C349.479 313.502 348.191 315.112 346.203 315.112C345.167 315.112 344.327 314.594 343.879 313.656V317.94H342.927V307.58H343.879V308.966C344.369 308.014 345.349 307.482 346.315 307.482ZM346.203 314.272C347.589 314.272 348.499 313.208 348.499 311.262C348.499 309.386 347.589 308.322 346.217 308.322C344.733 308.322 343.879 309.428 343.879 311.248C343.879 313.18 344.719 314.272 346.203 314.272ZM354.805 307.482C356.695 307.482 357.969 309.064 357.969 311.22C357.969 313.502 356.681 315.112 354.693 315.112C353.657 315.112 352.817 314.594 352.369 313.656V317.94H351.417V307.58H352.369V308.966C352.859 308.014 353.839 307.482 354.805 307.482ZM354.693 314.272C356.079 314.272 356.989 313.208 356.989 311.262C356.989 309.386 356.079 308.322 354.707 308.322C353.223 308.322 352.369 309.428 352.369 311.248C352.369 313.18 353.209 314.272 354.693 314.272ZM365.031 304.64H365.983V315H365.031V313.614C364.541 314.566 363.561 315.098 362.595 315.098C360.705 315.098 359.431 313.516 359.431 311.36C359.431 309.078 360.719 307.468 362.707 307.468C363.743 307.468 364.583 307.986 365.031 308.924V304.64ZM362.693 314.258C364.177 314.258 365.031 313.152 365.031 311.332C365.031 309.4 364.191 308.308 362.707 308.308C361.321 308.308 360.411 309.372 360.411 311.318C360.411 313.194 361.321 314.258 362.693 314.258ZM373.859 315H372.991C372.879 314.594 372.795 314.104 372.795 313.544C372.417 314.412 371.451 315.112 370.247 315.112C368.931 315.112 367.937 314.258 367.937 312.984C367.937 311.458 369.309 310.66 370.835 310.66C371.437 310.66 372.025 310.73 372.627 310.94V309.96C372.627 308.994 372.039 308.336 370.891 308.336C369.967 308.336 369.183 308.742 368.791 309.876L367.951 309.624C368.511 308.056 369.645 307.468 370.947 307.468C372.781 307.468 373.551 308.574 373.551 309.848V312.9C373.551 313.74 373.691 314.496 373.859 315ZM372.627 311.92V311.752C372.053 311.514 371.465 311.444 370.891 311.444C369.771 311.444 368.889 311.948 368.889 312.928C368.889 313.824 369.519 314.3 370.415 314.3C371.381 314.3 372.627 313.726 372.627 311.92ZM377.305 313.152C377.305 314.02 377.823 314.272 378.285 314.272C378.733 314.272 379.027 314.104 379.377 313.74L379.881 314.3C379.391 314.874 378.859 315.112 378.201 315.112C377.193 315.112 376.353 314.44 376.353 313.124V308.364H374.953V307.58H376.353V305.984L377.305 305.424V307.58H379.713V308.364H377.305V313.152ZM386.153 312.9L386.853 313.292C386.503 314.188 385.579 315.112 383.927 315.112C381.841 315.112 380.609 313.558 380.609 311.192C380.609 309.022 381.897 307.468 383.829 307.468C385.425 307.468 386.797 308.616 386.797 310.632L386.769 311.458H381.575C381.659 313.432 382.597 314.272 384.025 314.272C385.145 314.272 385.803 313.628 386.153 312.9ZM383.829 308.308C382.709 308.308 381.701 308.91 381.575 310.674H385.859C385.901 309.008 384.921 308.308 383.829 308.308ZM391.469 307.468C392.435 307.468 393.135 308.112 393.135 309.372V310.1L392.267 310.268V309.54C392.267 308.798 392.015 308.308 391.259 308.308C390.405 308.308 389.761 308.938 389.761 310.436V315H388.809V307.58H389.761V308.504C390.153 307.804 390.811 307.468 391.469 307.468ZM396.364 313.152C396.364 314.02 396.882 314.272 397.344 314.272C397.792 314.272 398.086 314.104 398.436 313.74L398.94 314.3C398.45 314.874 397.918 315.112 397.26 315.112C396.252 315.112 395.412 314.44 395.412 313.124V308.364H394.012V307.58H395.412V305.984L396.364 305.424V307.58H398.772V308.364H396.364V313.152ZM400.959 308.504H402.471V310.072H400.959V308.504ZM401.715 315.084C401.211 315.084 400.819 314.706 400.819 314.188C400.819 313.67 401.211 313.292 401.715 313.292C402.219 313.292 402.611 313.67 402.611 314.188C402.611 314.706 402.219 315.084 401.715 315.084ZM413.976 304.64H414.928V315H413.976V313.614C413.486 314.566 412.506 315.098 411.54 315.098C409.65 315.098 408.376 313.516 408.376 311.36C408.376 309.078 409.664 307.468 411.652 307.468C412.688 307.468 413.528 307.986 413.976 308.924V304.64ZM411.638 314.258C413.122 314.258 413.976 313.152 413.976 311.332C413.976 309.4 413.136 308.308 411.652 308.308C410.266 308.308 409.356 309.372 409.356 311.318C409.356 313.194 410.266 314.258 411.638 314.258ZM422.804 315H421.936C421.824 314.594 421.74 314.104 421.74 313.544C421.362 314.412 420.396 315.112 419.192 315.112C417.876 315.112 416.882 314.258 416.882 312.984C416.882 311.458 418.254 310.66 419.78 310.66C420.382 310.66 420.97 310.73 421.572 310.94V309.96C421.572 308.994 420.984 308.336 419.836 308.336C418.912 308.336 418.128 308.742 417.736 309.876L416.896 309.624C417.456 308.056 418.59 307.468 419.892 307.468C421.726 307.468 422.496 308.574 422.496 309.848V312.9C422.496 313.74 422.636 314.496 422.804 315ZM421.572 311.92V311.752C420.998 311.514 420.41 311.444 419.836 311.444C418.716 311.444 417.834 311.948 417.834 312.928C417.834 313.824 418.464 314.3 419.36 314.3C420.326 314.3 421.572 313.726 421.572 311.92ZM426.251 313.152C426.251 314.02 426.769 314.272 427.231 314.272C427.678 314.272 427.973 314.104 428.323 313.74L428.827 314.3C428.337 314.874 427.805 315.112 427.147 315.112C426.139 315.112 425.299 314.44 425.299 313.124V308.364H423.899V307.58H425.299V305.984L426.251 305.424V307.58H428.659V308.364H426.251V313.152ZM432.858 315.112C431.024 315.112 429.554 313.6 429.554 311.276C429.554 308.98 431.01 307.468 432.858 307.468C434.706 307.468 436.162 308.98 436.162 311.276C436.162 313.6 434.692 315.112 432.858 315.112ZM432.858 314.272C434.132 314.272 435.182 313.264 435.182 311.276C435.182 309.302 434.118 308.308 432.858 308.308C431.598 308.308 430.534 309.302 430.534 311.276C430.534 313.264 431.584 314.272 432.858 314.272Z" fill="#2A2859"/>
<path d="M322 93L322 132" stroke="#6FE9FF"/>
<circle cx="322" cy="84" r="11" fill="#6FE9FF"/>
<path d="M322.782 86.7991H324.402V87.7891H319.912V86.7991H321.622V81.7191L319.992 82.7591V81.5691L321.782 80.3891H322.782V86.7991Z" fill="#2A2859"/>
<path d="M367 360L367 321" stroke="#6FE9FF"/>
<circle cx="367" cy="371" r="11" fill="#6FE9FF"/>
<path d="M369.852 371.999V373.029H368.762V374.789H367.632V373.029H364.322V372.179L366.052 367.389H367.212L365.572 371.999H367.632V370.009L368.762 369.679V371.999H369.852Z" fill="#2A2859"/>
<path d="M258 207L297 207" stroke="#6FE9FF"/>
<circle cx="253" cy="207" r="11" fill="#6FE9FF"/>
<path d="M254.242 206.869C254.972 207.119 255.612 207.689 255.612 208.659C255.612 209.879 254.572 210.889 252.862 210.889C251.812 210.889 250.872 210.509 250.122 209.499L250.982 208.849C251.522 209.569 252.082 209.839 252.872 209.839C253.832 209.839 254.432 209.269 254.432 208.599C254.432 208.149 254.262 207.829 253.942 207.669C253.742 207.559 253.532 207.509 253.212 207.509H252.072V206.529H252.822C253.322 206.529 253.542 206.459 253.752 206.289C254.002 206.089 254.122 205.789 254.122 205.479C254.122 204.759 253.622 204.329 252.822 204.329C252.032 204.329 251.532 204.789 251.282 205.519L250.232 205.219C250.662 203.939 251.652 203.289 252.842 203.289C254.552 203.289 255.302 204.289 255.302 205.269C255.302 206.039 254.842 206.579 254.242 206.869Z" fill="#2A2859"/>
<path d="M409 93L409 132" stroke="#6FE9FF"/>
<circle cx="409" cy="84" r="11" fill="#6FE9FF"/>
<path d="M408.112 86.7291H411.632V87.7891H406.532V86.8691L409.122 84.1591C409.832 83.4091 410.122 83.0191 410.122 82.4091C410.122 81.7991 409.682 81.3291 408.952 81.3291C408.182 81.3291 407.702 81.7491 407.482 82.5691L406.402 82.3391C406.752 80.8991 407.792 80.2891 408.972 80.2891C410.522 80.2891 411.352 81.2791 411.352 82.3291C411.352 83.2291 410.962 83.7991 410.072 84.7191L408.112 86.7291Z" fill="#2A2859"/>
<path d="M818 93L818 132" stroke="#6FE9FF"/>
<circle cx="818" cy="84" r="11" fill="#6FE9FF"/>
<path d="M818.352 82.9691C819.722 82.9691 820.672 83.9291 820.672 85.2891C820.672 86.7591 819.592 87.8791 817.842 87.8791C816.842 87.8791 815.912 87.5191 815.192 86.5091L816.042 85.8591C816.572 86.5791 817.122 86.8491 817.872 86.8491C818.822 86.8491 819.462 86.2091 819.462 85.3591C819.462 84.4391 818.832 83.9191 818.042 83.9191C817.412 83.9191 817.002 84.1191 816.522 84.5991L815.662 84.2691L815.892 80.3891H820.102V81.4391H816.842L816.682 83.6091C817.102 83.1991 817.692 82.9691 818.352 82.9691Z" fill="#2A2859"/>
</svg>
