<svg width="1105" height="450" viewBox="0 0 1105 450" fill="none" xmlns="http://www.w3.org/2000/svg">
<rect width="1105" height="450" fill="white"/>
<mask id="path-1-inside-1_4591_150604" fill="white">
<path d="M281 111H863V337H281V111Z"/>
</mask>
<path d="M281 111H863V337H281V111Z" fill="#CDF5FB"/>
<path fill-rule="evenodd" clip-rule="evenodd" d="M321 132C323.967 132 326.867 132.88 329.334 134.528C331.8 136.176 333.723 138.519 334.858 141.26C335.994 144.001 336.291 147.017 335.712 149.926C335.133 152.836 333.704 155.509 331.607 157.607C329.509 159.704 326.836 161.133 323.926 161.712C321.017 162.291 318.001 161.994 315.26 160.858C312.519 159.723 310.176 157.8 308.528 155.334C306.88 152.867 306 149.967 306 147C306 143.022 307.58 139.206 310.393 136.393C313.206 133.58 317.022 132 321 132ZM321 134C318.429 134 315.915 134.762 313.778 136.191C311.64 137.619 309.974 139.65 308.99 142.025C308.006 144.401 307.748 147.014 308.25 149.536C308.751 152.058 309.99 154.374 311.808 156.192C313.626 158.01 315.942 159.249 318.464 159.75C320.986 160.252 323.599 159.994 325.975 159.01C328.35 158.026 330.381 156.36 331.809 154.222C333.238 152.085 334 149.571 334 147C334 143.552 332.63 140.246 330.192 137.808C327.754 135.37 324.448 134 321 134Z" fill="#2A2859"/>
<path d="M319.151 139.609C319.145 139.134 319.327 138.675 319.659 138.334C319.99 137.993 320.444 137.798 320.919 137.791C320.936 137.791 320.953 137.791 320.969 137.791C321.44 137.785 321.893 137.967 322.23 138.295C322.567 138.624 322.759 139.073 322.765 139.544C322.765 139.565 322.765 139.587 322.765 139.609C322.77 139.842 322.73 140.074 322.646 140.291C322.563 140.508 322.437 140.707 322.276 140.876C322.116 141.044 321.924 141.18 321.711 141.274C321.498 141.369 321.268 141.42 321.036 141.426C321.014 141.426 320.991 141.427 320.969 141.426C320.734 141.43 320.5 141.387 320.282 141.3C320.063 141.213 319.863 141.084 319.695 140.92C319.526 140.756 319.391 140.56 319.298 140.344C319.204 140.128 319.155 139.895 319.151 139.66C319.151 139.643 319.151 139.626 319.151 139.609ZM319.681 143.451H322.258V155.646H319.681L319.681 143.451Z" fill="#2A2859"/>
<path d="M346.566 155H348.672V141.68H346.566V155ZM356.302 145.244C355.114 145.244 354.16 145.82 353.512 146.828V145.46H351.496V155H353.512V149.834C353.512 147.98 354.232 146.99 355.654 146.99C356.752 146.99 357.382 147.584 357.382 148.898V155H359.398V148.574C359.398 146.504 358.246 145.244 356.302 145.244ZM364.719 144.596C364.719 143.606 365.331 143.174 366.069 143.174C366.537 143.174 366.969 143.39 367.257 143.75L368.211 142.418C367.689 141.77 366.807 141.41 365.925 141.41C364.053 141.41 362.703 142.616 362.703 144.686V145.46H361.029V147.026H362.703V155H364.719V147.026H367.401V145.46H364.719V144.596ZM372.387 155.18C374.871 155.18 376.905 153.236 376.905 150.176C376.905 147.188 374.889 145.244 372.387 145.244C369.885 145.244 367.869 147.188 367.869 150.176C367.869 153.236 369.903 155.18 372.387 155.18ZM372.387 153.47C371.055 153.47 369.939 152.426 369.939 150.176C369.939 147.908 371.055 146.954 372.387 146.954C373.719 146.954 374.835 147.908 374.835 150.176C374.835 152.426 373.737 153.47 372.387 153.47ZM383.395 145.244C382.567 145.244 381.577 145.676 381.037 146.738V145.46H379.021V155H381.037V149.42C381.037 147.602 381.793 146.918 382.819 146.918C383.755 146.918 384.061 147.512 384.061 148.376V149.348L385.681 149.06V147.8C385.681 146.162 384.781 145.244 383.395 145.244ZM398.316 145.244C397.038 145.244 396.03 145.874 395.382 147.134C394.968 145.946 394.014 145.244 392.556 145.244C391.404 145.244 390.468 145.784 389.82 146.81V145.46H387.804V155H389.82V149.834C389.82 147.962 390.522 146.99 391.908 146.99C392.952 146.99 393.546 147.566 393.546 148.826V155H395.562V149.834C395.562 147.962 396.264 146.99 397.668 146.99C398.712 146.99 399.306 147.566 399.306 148.826V155H401.322V148.484C401.322 146.486 400.224 145.244 398.316 145.244ZM411.76 155C411.526 154.388 411.346 153.38 411.346 152.246V148.556C411.346 146.738 410.194 145.244 407.656 145.244C405.946 145.244 404.308 146.054 403.624 148.07L405.334 148.592C405.694 147.476 406.468 146.882 407.566 146.882C408.736 146.882 409.384 147.548 409.384 148.574V149.474C408.718 149.294 408.106 149.24 407.458 149.24C405.406 149.24 403.57 150.266 403.57 152.336C403.57 153.992 404.794 155.162 406.522 155.162C408.178 155.162 409.186 154.19 409.636 153.2C409.672 153.938 409.762 154.514 409.906 155H411.76ZM409.384 151.058C409.384 153.02 408.106 153.596 407.134 153.596C406.18 153.596 405.55 153.038 405.55 152.156C405.55 151.112 406.468 150.572 407.656 150.572C408.25 150.572 408.808 150.644 409.384 150.842V151.058ZM416.594 152.048V147.026H419.96V145.46H416.594V142.418L414.578 143.336V145.46H412.904V147.026H414.578V152.174C414.578 154.154 415.928 155.162 417.584 155.162C418.61 155.162 419.402 154.82 420.122 154.1L419.258 152.804C418.844 153.218 418.43 153.434 417.908 153.434C417.242 153.434 416.594 153.11 416.594 152.048ZM422.876 143.876C423.668 143.876 424.28 143.264 424.28 142.454C424.28 141.644 423.668 141.032 422.876 141.032C422.084 141.032 421.454 141.644 421.454 142.454C421.454 143.264 422.084 143.876 422.876 143.876ZM421.868 155H423.884V145.46H421.868V155ZM432.849 145.46L430.329 152.894L427.809 145.46H425.577L429.213 155H431.283L434.937 145.46H432.849ZM443.55 152.048V147.026H446.916V145.46H443.55V142.418L441.534 143.336V145.46H439.86V147.026H441.534V152.174C441.534 154.154 442.884 155.162 444.54 155.162C445.566 155.162 446.358 154.82 447.078 154.1L446.214 152.804C445.8 153.218 445.386 153.434 444.864 153.434C444.198 153.434 443.55 153.11 443.55 152.048ZM448.59 141.32V143.75H451.056V141.32H448.59ZM448.824 155H450.84V145.46H448.824V155ZM456.421 152.048V147.026H459.787V145.46H456.421V142.418L454.405 143.336V145.46H452.731V147.026H454.405V152.174C454.405 154.154 455.755 155.162 457.411 155.162C458.437 155.162 459.229 154.82 459.949 154.1L459.085 152.804C458.671 153.218 458.257 153.434 457.735 153.434C457.069 153.434 456.421 153.11 456.421 152.048ZM464.237 152.048V147.026H467.603V145.46H464.237V142.418L462.221 143.336V145.46H460.547V147.026H462.221V152.174C462.221 154.154 463.571 155.162 465.227 155.162C466.253 155.162 467.045 154.82 467.765 154.1L466.901 152.804C466.487 153.218 466.073 153.434 465.551 153.434C464.885 153.434 464.237 153.11 464.237 152.048ZM475.606 151.994C475.102 152.894 474.292 153.524 473.122 153.524C471.538 153.524 470.548 152.66 470.44 150.644H476.92L476.956 149.456C476.956 146.756 475.102 145.244 472.852 145.244C470.314 145.244 468.46 147.242 468.46 150.14C468.46 153.074 470.17 155.162 472.996 155.162C475.174 155.162 476.434 153.974 476.974 152.786L475.606 151.994ZM472.852 146.828C473.968 146.828 475.012 147.512 474.994 149.204H470.44C470.602 147.476 471.628 146.828 472.852 146.828ZM483.076 154.946V153.272C482.86 153.326 482.662 153.344 482.482 153.344C481.744 153.344 481.258 152.966 481.258 152.138V141.68H479.242V152.282C479.242 154.028 480.106 155.108 481.924 155.108C482.32 155.108 482.698 155.054 483.076 154.946Z" fill="#2A2859"/>
<path fill-rule="evenodd" clip-rule="evenodd" d="M818.083 147L812.125 141.042L813.042 140.125L819 146.083L824.958 140.125L825.875 141.042L819.917 147L825.875 152.958L824.958 153.875L819 147.917L813.042 153.875L812.125 152.958L818.083 147Z" fill="#2A2859"/>
<path d="M313.226 203.962C314.576 203.476 315.152 202.234 315.152 201.172C315.152 199.354 314.054 197.68 311.012 197.68H306.584V211H311.444C314.612 211 315.764 209.002 315.764 207.31C315.764 205.672 314.594 204.376 313.226 203.962ZM311.012 198.796C313.064 198.796 313.856 199.876 313.856 201.172C313.856 202.756 313.064 203.656 311.282 203.656H307.844V198.796H311.012ZM311.372 209.884H307.844V204.736H311.552C313.334 204.736 314.432 205.69 314.432 207.382C314.432 208.948 313.55 209.884 311.372 209.884ZM321.405 201.316C320.559 201.316 319.713 201.748 319.209 202.648V201.46H317.985V211H319.209V205.132C319.209 203.206 320.037 202.396 321.135 202.396C322.107 202.396 322.431 203.026 322.431 203.98V204.916L323.547 204.7V203.764C323.547 202.144 322.647 201.316 321.405 201.316ZM331.133 201.46V206.824C331.133 208.696 330.413 210.046 328.721 210.046C327.389 210.046 326.597 209.326 326.597 207.76V201.46H325.373V207.868C325.373 209.938 326.507 211.144 328.379 211.144C329.549 211.144 330.557 210.568 331.133 209.542V211H332.357V201.46H331.133ZM341.12 211H342.668L338.438 205.456L342.596 201.46H340.976L336.44 205.942V197.68H335.216V211H336.44V207.382L337.61 206.266L341.12 211ZM346.082 208.624V202.468H349.178V201.46H346.082V198.688L344.858 199.408V201.46H343.058V202.468H344.858V208.588C344.858 210.28 345.938 211.144 347.234 211.144C348.08 211.144 348.764 210.838 349.394 210.1L348.746 209.38C348.296 209.848 347.918 210.064 347.342 210.064C346.748 210.064 346.082 209.74 346.082 208.624ZM362.28 197.68V203.188C361.704 201.982 360.624 201.316 359.292 201.316C356.736 201.316 355.08 203.386 355.08 206.32C355.08 209.092 356.718 211.126 359.148 211.126C360.39 211.126 361.65 210.442 362.28 209.218V211H363.504V197.68H362.28ZM359.274 210.046C357.51 210.046 356.34 208.678 356.34 206.266C356.34 203.764 357.51 202.396 359.292 202.396C361.2 202.396 362.28 203.8 362.28 206.284C362.28 208.624 361.182 210.046 359.274 210.046ZM372.836 208.3C372.386 209.236 371.54 210.064 370.1 210.064C368.264 210.064 367.058 208.984 366.95 206.446H373.628L373.664 205.384C373.664 202.792 371.9 201.316 369.848 201.316C367.364 201.316 365.708 203.314 365.708 206.104C365.708 209.146 367.292 211.144 369.974 211.144C372.098 211.144 373.286 209.956 373.736 208.804L372.836 208.3ZM369.848 202.396C371.252 202.396 372.512 203.296 372.458 205.438H366.95C367.112 203.17 368.408 202.396 369.848 202.396ZM377.784 208.624V202.468H380.88V201.46H377.784V198.688L376.56 199.408V201.46H374.76V202.468H376.56V208.588C376.56 210.28 377.64 211.144 378.936 211.144C379.782 211.144 380.466 210.838 381.096 210.1L380.448 209.38C379.998 209.848 379.62 210.064 379.044 210.064C378.45 210.064 377.784 209.74 377.784 208.624ZM384.545 208.624V202.468H387.641V201.46H384.545V198.688L383.321 199.408V201.46H381.521V202.468H383.321V208.588C383.321 210.28 384.401 211.144 385.697 211.144C386.543 211.144 387.227 210.838 387.857 210.1L387.209 209.38C386.759 209.848 386.381 210.064 385.805 210.064C385.211 210.064 384.545 209.74 384.545 208.624ZM395.72 208.3C395.27 209.236 394.424 210.064 392.984 210.064C391.148 210.064 389.942 208.984 389.834 206.446H396.512L396.548 205.384C396.548 202.792 394.784 201.316 392.732 201.316C390.248 201.316 388.592 203.314 388.592 206.104C388.592 209.146 390.176 211.144 392.858 211.144C394.982 211.144 396.17 209.956 396.62 208.804L395.72 208.3ZM392.732 202.396C394.136 202.396 395.396 203.296 395.342 205.438H389.834C389.996 203.17 391.292 202.396 392.732 202.396ZM405.249 208.624V202.468H408.345V201.46H405.249V198.688L404.025 199.408V201.46H402.225V202.468H404.025V208.588C404.025 210.28 405.105 211.144 406.401 211.144C407.247 211.144 407.931 210.838 408.561 210.1L407.913 209.38C407.463 209.848 407.085 210.064 406.509 210.064C405.915 210.064 405.249 209.74 405.249 208.624ZM416.425 208.3C415.975 209.236 415.129 210.064 413.689 210.064C411.853 210.064 410.647 208.984 410.539 206.446H417.217L417.253 205.384C417.253 202.792 415.489 201.316 413.437 201.316C410.953 201.316 409.297 203.314 409.297 206.104C409.297 209.146 410.881 211.144 413.563 211.144C415.687 211.144 416.875 209.956 417.325 208.804L416.425 208.3ZM413.437 202.396C414.841 202.396 416.101 203.296 416.047 205.438H410.539C410.701 203.17 411.997 202.396 413.437 202.396ZM425.581 211H427.129L422.899 205.456L427.057 201.46H425.437L420.901 205.942V197.68H419.677V211H420.901V207.382L422.071 206.266L425.581 211ZM427.973 203.944C427.973 205.222 428.891 206.104 430.637 206.464L432.185 206.788C433.445 207.058 433.949 207.544 433.949 208.444C433.949 209.416 432.977 210.064 431.501 210.064C430.097 210.064 429.107 209.524 428.657 208.516L427.613 208.948C428.261 210.388 429.611 211.144 431.537 211.144C433.661 211.144 435.137 209.992 435.137 208.336C435.137 206.914 434.165 206.014 432.077 205.6L430.817 205.348C429.683 205.114 429.161 204.628 429.161 203.836C429.161 202.954 430.025 202.396 431.357 202.396C432.581 202.396 433.463 202.882 433.841 203.8L434.849 203.404C434.453 202.144 433.121 201.316 431.393 201.316C429.395 201.316 427.973 202.432 427.973 203.944ZM439.078 208.624V202.468H442.174V201.46H439.078V198.688L437.854 199.408V201.46H436.054V202.468H437.854V208.588C437.854 210.28 438.934 211.144 440.23 211.144C441.076 211.144 441.76 210.838 442.39 210.1L441.742 209.38C441.292 209.848 440.914 210.064 440.338 210.064C439.744 210.064 439.078 209.74 439.078 208.624ZM445.839 200.128C445.839 198.958 446.505 198.58 447.135 198.58C447.639 198.58 448.071 198.832 448.359 199.264L449.097 198.526C448.647 197.806 447.855 197.536 447.171 197.536C445.695 197.536 444.615 198.472 444.615 200.128V201.46H442.815V202.468H444.615V211H445.839V202.468H448.503V201.46H445.839V200.128ZM456.136 208.3C455.686 209.236 454.84 210.064 453.4 210.064C451.564 210.064 450.358 208.984 450.25 206.446H456.928L456.964 205.384C456.964 202.792 455.2 201.316 453.148 201.316C450.664 201.316 449.008 203.314 449.008 206.104C449.008 209.146 450.592 211.144 453.274 211.144C455.398 211.144 456.586 209.956 457.036 208.804L456.136 208.3ZM453.148 202.396C454.552 202.396 455.812 203.296 455.758 205.438H450.25C450.412 203.17 451.708 202.396 453.148 202.396ZM462.34 210.964V209.884C462.16 209.938 461.962 209.956 461.764 209.956C461.008 209.956 460.576 209.542 460.576 208.732V197.68H459.352V208.732C459.352 210.136 460.054 211.072 461.548 211.072C461.818 211.072 462.052 211.036 462.34 210.964ZM466.104 208.624V202.468H469.2V201.46H466.104V198.688L464.88 199.408V201.46H463.08V202.468H464.88V208.588C464.88 210.28 465.96 211.144 467.256 211.144C468.102 211.144 468.786 210.838 469.416 210.1L468.768 209.38C468.318 209.848 467.94 210.064 467.364 210.064C466.77 210.064 466.104 209.74 466.104 208.624ZM477.28 208.3C476.83 209.236 475.984 210.064 474.544 210.064C472.708 210.064 471.502 208.984 471.394 206.446H478.072L478.108 205.384C478.108 202.792 476.344 201.316 474.292 201.316C471.808 201.316 470.152 203.314 470.152 206.104C470.152 209.146 471.736 211.144 474.418 211.144C476.542 211.144 477.73 209.956 478.18 208.804L477.28 208.3ZM474.292 202.396C475.696 202.396 476.956 203.296 476.902 205.438H471.394C471.556 203.17 472.852 202.396 474.292 202.396ZM482.228 208.624V202.468H485.324V201.46H482.228V198.688L481.004 199.408V201.46H479.204V202.468H481.004V208.588C481.004 210.28 482.084 211.144 483.38 211.144C484.226 211.144 484.91 210.838 485.54 210.1L484.892 209.38C484.442 209.848 484.064 210.064 483.488 210.064C482.894 210.064 482.228 209.74 482.228 208.624ZM493.746 208.624V202.468H496.842V201.46H493.746V198.688L492.522 199.408V201.46H490.722V202.468H492.522V208.588C492.522 210.28 493.602 211.144 494.898 211.144C495.744 211.144 496.428 210.838 497.058 210.1L496.41 209.38C495.96 209.848 495.582 210.064 495.006 210.064C494.412 210.064 493.746 209.74 493.746 208.624ZM499.562 199.732C500.156 199.732 500.642 199.264 500.642 198.652C500.642 198.04 500.156 197.572 499.562 197.572C498.968 197.572 498.482 198.04 498.482 198.652C498.482 199.264 498.968 199.732 499.562 199.732ZM498.95 211H500.174V201.46H498.95V211ZM506.063 210.964V209.884C505.883 209.938 505.685 209.956 505.487 209.956C504.731 209.956 504.299 209.542 504.299 208.732V197.68H503.075V208.732C503.075 210.136 503.777 211.072 505.271 211.072C505.541 211.072 505.775 211.036 506.063 210.964ZM515.903 200.452C517.073 200.452 518.027 199.588 518.027 198.4C518.027 197.212 517.073 196.348 515.903 196.348C514.733 196.348 513.779 197.212 513.779 198.4C513.779 199.588 514.733 200.452 515.903 200.452ZM515.903 197.176C516.587 197.176 517.127 197.608 517.127 198.4C517.127 199.21 516.587 199.624 515.903 199.624C515.219 199.624 514.679 199.21 514.679 198.4C514.679 197.608 515.219 197.176 515.903 197.176ZM519.611 211C519.395 210.352 519.215 209.38 519.215 208.3V204.376C519.215 202.738 518.225 201.316 515.867 201.316C514.193 201.316 512.735 202.072 512.015 204.088L513.095 204.412C513.599 202.954 514.607 202.432 515.795 202.432C517.271 202.432 518.027 203.278 518.027 204.52V205.78C517.253 205.51 516.497 205.42 515.723 205.42C513.761 205.42 511.997 206.446 511.997 208.408C511.997 210.046 513.275 211.144 514.967 211.144C516.515 211.144 517.757 210.244 518.243 209.128C518.243 209.848 518.351 210.478 518.495 211H519.611ZM518.027 207.04C518.027 209.362 516.425 210.1 515.183 210.1C514.031 210.1 513.221 209.488 513.221 208.336C513.221 207.076 514.355 206.428 515.795 206.428C516.533 206.428 517.289 206.518 518.027 206.824V207.04ZM530.907 201.334C529.665 201.334 528.405 202.018 527.775 203.242V197.68H526.551V211H527.775V209.272C528.351 210.478 529.431 211.144 530.763 211.144C533.319 211.144 534.975 209.074 534.975 206.14C534.975 203.368 533.337 201.334 530.907 201.334ZM530.763 210.064C528.855 210.064 527.775 208.66 527.775 206.176C527.775 203.836 528.873 202.414 530.781 202.414C532.545 202.414 533.715 203.782 533.715 206.194C533.715 208.696 532.545 210.064 530.763 210.064ZM543.782 208.3C543.332 209.236 542.486 210.064 541.046 210.064C539.21 210.064 538.004 208.984 537.896 206.446H544.574L544.61 205.384C544.61 202.792 542.846 201.316 540.794 201.316C538.31 201.316 536.654 203.314 536.654 206.104C536.654 209.146 538.238 211.144 540.92 211.144C543.044 211.144 544.232 209.956 544.682 208.804L543.782 208.3ZM540.794 202.396C542.198 202.396 543.458 203.296 543.404 205.438H537.896C538.058 203.17 539.354 202.396 540.794 202.396ZM546.53 203.944C546.53 205.222 547.448 206.104 549.194 206.464L550.742 206.788C552.002 207.058 552.506 207.544 552.506 208.444C552.506 209.416 551.534 210.064 550.058 210.064C548.654 210.064 547.664 209.524 547.214 208.516L546.17 208.948C546.818 210.388 548.168 211.144 550.094 211.144C552.218 211.144 553.694 209.992 553.694 208.336C553.694 206.914 552.722 206.014 550.634 205.6L549.374 205.348C548.24 205.114 547.718 204.628 547.718 203.836C547.718 202.954 548.582 202.396 549.914 202.396C551.138 202.396 552.02 202.882 552.398 203.8L553.406 203.404C553.01 202.144 551.678 201.316 549.95 201.316C547.952 201.316 546.53 202.432 546.53 203.944ZM561.843 211H563.391L559.161 205.456L563.319 201.46H561.699L557.163 205.942V197.68H555.939V211H557.163V207.382L558.333 206.266L561.843 211ZM568.492 201.316C567.646 201.316 566.8 201.748 566.296 202.648V201.46H565.072V211H566.296V205.132C566.296 203.206 567.124 202.396 568.222 202.396C569.194 202.396 569.518 203.026 569.518 203.98V204.916L570.634 204.7V203.764C570.634 202.144 569.734 201.316 568.492 201.316ZM572.529 197.752V199.588H574.401V197.752H572.529ZM572.853 211H574.077V201.46H572.853V211ZM583.061 201.46L580.073 209.65L577.085 201.46H575.753L579.497 211H580.577L584.321 201.46H583.061ZM592.152 208.3C591.702 209.236 590.856 210.064 589.416 210.064C587.58 210.064 586.374 208.984 586.266 206.446H592.944L592.98 205.384C592.98 202.792 591.216 201.316 589.164 201.316C586.68 201.316 585.024 203.314 585.024 206.104C585.024 209.146 586.608 211.144 589.29 211.144C591.414 211.144 592.602 209.956 593.052 208.804L592.152 208.3ZM589.164 202.396C590.568 202.396 591.828 203.296 591.774 205.438H586.266C586.428 203.17 587.724 202.396 589.164 202.396ZM603.805 201.316C602.653 201.316 601.609 201.892 601.033 202.936V197.68H599.809V211H601.033V205.636C601.033 203.728 601.807 202.432 603.481 202.432C604.813 202.432 605.605 203.08 605.605 204.808V211H606.829V204.628C606.829 202.486 605.713 201.316 603.805 201.316ZM615.484 201.46L612.496 209.65L609.508 201.46H608.176L611.92 211H613L616.744 201.46H615.484ZM625.169 211C624.953 210.352 624.773 209.38 624.773 208.3V204.376C624.773 202.738 623.783 201.316 621.425 201.316C619.751 201.316 618.293 202.072 617.573 204.088L618.653 204.412C619.157 202.954 620.165 202.432 621.353 202.432C622.829 202.432 623.585 203.278 623.585 204.52V205.78C622.811 205.51 622.055 205.42 621.281 205.42C619.319 205.42 617.555 206.446 617.555 208.408C617.555 210.046 618.833 211.144 620.525 211.144C622.073 211.144 623.315 210.244 623.801 209.128C623.801 209.848 623.909 210.478 624.053 211H625.169ZM623.585 207.04C623.585 209.362 621.983 210.1 620.741 210.1C619.589 210.1 618.779 209.488 618.779 208.336C618.779 207.076 619.913 206.428 621.353 206.428C622.091 206.428 622.847 206.518 623.585 206.824V207.04ZM638.157 201.46L635.169 209.65L632.181 201.46H630.849L634.593 211H635.673L639.417 201.46H638.157ZM647.842 211C647.626 210.352 647.446 209.38 647.446 208.3V204.376C647.446 202.738 646.456 201.316 644.098 201.316C642.424 201.316 640.966 202.072 640.246 204.088L641.326 204.412C641.83 202.954 642.838 202.432 644.026 202.432C645.502 202.432 646.258 203.278 646.258 204.52V205.78C645.484 205.51 644.728 205.42 643.954 205.42C641.992 205.42 640.228 206.446 640.228 208.408C640.228 210.046 641.506 211.144 643.198 211.144C644.746 211.144 645.988 210.244 646.474 209.128C646.474 209.848 646.582 210.478 646.726 211H647.842ZM646.258 207.04C646.258 209.362 644.656 210.1 643.414 210.1C642.262 210.1 641.452 209.488 641.452 208.336C641.452 207.076 642.586 206.428 644.026 206.428C644.764 206.428 645.52 206.518 646.258 206.824V207.04ZM653.761 201.316C652.915 201.316 652.069 201.748 651.565 202.648V201.46H650.341V211H651.565V205.132C651.565 203.206 652.393 202.396 653.491 202.396C654.463 202.396 654.787 203.026 654.787 203.98V204.916L655.903 204.7V203.764C655.903 202.144 655.003 201.316 653.761 201.316ZM657.302 203.944C657.302 205.222 658.22 206.104 659.966 206.464L661.514 206.788C662.774 207.058 663.278 207.544 663.278 208.444C663.278 209.416 662.306 210.064 660.83 210.064C659.426 210.064 658.436 209.524 657.986 208.516L656.942 208.948C657.59 210.388 658.94 211.144 660.866 211.144C662.99 211.144 664.466 209.992 664.466 208.336C664.466 206.914 663.494 206.014 661.406 205.6L660.146 205.348C659.012 205.114 658.49 204.628 658.49 203.836C658.49 202.954 659.354 202.396 660.686 202.396C661.91 202.396 662.792 202.882 663.17 203.8L664.178 203.404C663.782 202.144 662.45 201.316 660.722 201.316C658.724 201.316 657.302 202.432 657.302 203.944ZM669.663 210.964V209.884C669.483 209.938 669.285 209.956 669.087 209.956C668.331 209.956 667.899 209.542 667.899 208.732V197.68H666.675V208.732C666.675 210.136 667.377 211.072 668.871 211.072C669.141 211.072 669.375 211.036 669.663 210.964ZM672.308 199.732C672.902 199.732 673.388 199.264 673.388 198.652C673.388 198.04 672.902 197.572 672.308 197.572C671.714 197.572 671.228 198.04 671.228 198.652C671.228 199.264 671.714 199.732 672.308 199.732ZM671.696 211H672.92V201.46H671.696V211ZM679.816 201.316C678.664 201.316 677.62 201.892 677.044 202.936V201.46H675.82V211H677.044V205.636C677.044 203.728 677.818 202.432 679.492 202.432C680.824 202.432 681.616 203.08 681.616 204.808V211H682.84V204.628C682.84 202.486 681.724 201.316 679.816 201.316ZM694.155 202.468V201.46H691.419V202.126C690.843 201.64 690.087 201.316 689.097 201.316C686.577 201.316 685.299 203.098 685.299 204.808C685.299 205.978 686.001 207.31 687.261 207.814C686.091 208.12 685.389 208.858 685.389 209.704C685.389 210.694 686.181 211.324 687.513 211.324H691.617C692.481 211.324 692.769 211.72 692.769 212.26C692.769 213.412 691.113 214.006 689.133 214.006C687.531 214.006 686.127 213.7 685.461 212.134L684.471 212.584C685.047 214.258 686.721 215.032 689.133 215.032C691.815 215.032 693.993 214.042 693.993 212.152C693.993 210.964 693.201 210.208 691.653 210.208H687.783C686.991 210.208 686.613 209.866 686.613 209.38C686.613 208.75 687.387 208.336 688.467 208.336H688.881C691.563 208.336 692.823 206.554 692.823 204.808C692.823 204.106 692.571 203.386 692.103 202.81V202.468H694.155ZM689.079 207.328C687.369 207.328 686.505 206.14 686.505 204.808C686.505 203.494 687.369 202.36 689.079 202.36C690.771 202.36 691.617 203.476 691.617 204.808C691.617 206.158 690.771 207.328 689.079 207.328ZM701.659 208.3C701.209 209.236 700.363 210.064 698.923 210.064C697.087 210.064 695.881 208.984 695.773 206.446H702.451L702.487 205.384C702.487 202.792 700.723 201.316 698.671 201.316C696.187 201.316 694.531 203.314 694.531 206.104C694.531 209.146 696.115 211.144 698.797 211.144C700.921 211.144 702.109 209.956 702.559 208.804L701.659 208.3ZM698.671 202.396C700.075 202.396 701.335 203.296 701.281 205.438H695.773C695.935 203.17 697.231 202.396 698.671 202.396ZM708.871 201.316C707.719 201.316 706.675 201.892 706.099 202.936V201.46H704.875V211H706.099V205.636C706.099 203.728 706.873 202.432 708.547 202.432C709.879 202.432 710.671 203.08 710.671 204.808V211H711.895V204.628C711.895 202.486 710.779 201.316 708.871 201.316ZM723.079 201.316C721.927 201.316 720.883 201.892 720.307 202.936V197.68H719.083V211H720.307V205.636C720.307 203.728 721.081 202.432 722.755 202.432C724.087 202.432 724.879 203.08 724.879 204.808V211H726.103V204.628C726.103 202.486 724.987 201.316 723.079 201.316ZM735.959 211C735.743 210.352 735.563 209.38 735.563 208.3V204.376C735.563 202.738 734.573 201.316 732.215 201.316C730.541 201.316 729.083 202.072 728.363 204.088L729.443 204.412C729.947 202.954 730.955 202.432 732.143 202.432C733.619 202.432 734.375 203.278 734.375 204.52V205.78C733.601 205.51 732.845 205.42 732.071 205.42C730.109 205.42 728.345 206.446 728.345 208.408C728.345 210.046 729.623 211.144 731.315 211.144C732.863 211.144 734.105 210.244 734.591 209.128C734.591 209.848 734.699 210.478 734.843 211H735.959ZM734.375 207.04C734.375 209.362 732.773 210.1 731.531 210.1C730.379 210.1 729.569 209.488 729.569 208.336C729.569 207.076 730.703 206.428 732.143 206.428C732.881 206.428 733.637 206.518 734.375 206.824V207.04ZM742.453 201.316C741.301 201.316 740.257 201.892 739.681 202.936V201.46H738.457V211H739.681V205.636C739.681 203.728 740.455 202.432 742.129 202.432C743.461 202.432 744.253 203.08 744.253 204.808V211H745.477V204.628C745.477 202.486 744.361 201.316 742.453 201.316ZM754.812 197.68V203.188C754.236 201.982 753.156 201.316 751.824 201.316C749.268 201.316 747.612 203.386 747.612 206.32C747.612 209.092 749.25 211.126 751.68 211.126C752.922 211.126 754.182 210.442 754.812 209.218V211H756.036V197.68H754.812ZM751.806 210.046C750.042 210.046 748.872 208.678 748.872 206.266C748.872 203.764 750.042 202.396 751.824 202.396C753.732 202.396 754.812 203.8 754.812 206.284C754.812 208.624 753.714 210.046 751.806 210.046ZM761.84 210.964V209.884C761.66 209.938 761.462 209.956 761.264 209.956C760.508 209.956 760.076 209.542 760.076 208.732V197.68H758.852V208.732C758.852 210.136 759.554 211.072 761.048 211.072C761.318 211.072 761.552 211.036 761.84 210.964ZM770.108 208.3C769.658 209.236 768.812 210.064 767.372 210.064C765.536 210.064 764.33 208.984 764.222 206.446H770.9L770.936 205.384C770.936 202.792 769.172 201.316 767.12 201.316C764.636 201.316 762.98 203.314 762.98 206.104C762.98 209.146 764.564 211.144 767.246 211.144C769.37 211.144 770.558 209.956 771.008 208.804L770.108 208.3ZM767.12 202.396C768.524 202.396 769.784 203.296 769.73 205.438H764.222C764.384 203.17 765.68 202.396 767.12 202.396ZM776.743 201.316C775.897 201.316 775.051 201.748 774.547 202.648V201.46H773.323V211H774.547V205.132C774.547 203.206 775.375 202.396 776.473 202.396C777.445 202.396 777.769 203.026 777.769 203.98V204.916L778.885 204.7V203.764C778.885 202.144 777.985 201.316 776.743 201.316ZM789.145 211.144C791.503 211.144 793.393 209.2 793.393 206.212C793.393 203.26 791.521 201.316 789.145 201.316C786.769 201.316 784.897 203.26 784.897 206.212C784.897 209.2 786.787 211.144 789.145 211.144ZM789.145 210.064C787.507 210.064 786.157 208.768 786.157 206.212C786.157 203.674 787.525 202.396 789.145 202.396C790.765 202.396 792.133 203.674 792.133 206.212C792.133 208.768 790.783 210.064 789.145 210.064ZM805.184 201.316C803.96 201.316 802.862 202 802.322 203.26C801.98 202.018 801.026 201.316 799.604 201.316C798.488 201.316 797.48 201.892 796.904 202.954V201.46H795.68V211H796.904V205.636C796.904 203.728 797.606 202.432 799.28 202.432C800.522 202.432 801.26 203.08 801.26 204.628V211H802.484V205.636C802.484 203.728 803.186 202.432 804.86 202.432C806.102 202.432 806.84 203.08 806.84 204.628V211H808.064V204.448C808.064 202.468 807.002 201.316 805.184 201.316ZM810.737 208.984V211H812.681V208.984H810.737ZM306.584 239H310.94C314.234 239 316.772 236.282 316.772 232.268C316.772 228.254 314.234 225.68 310.94 225.68H306.584V239ZM307.844 237.848V226.832H310.652C313.442 226.832 315.476 228.596 315.476 232.268C315.476 235.976 313.46 237.848 310.688 237.848H307.844ZM324.566 229.46V234.824C324.566 236.696 323.846 238.046 322.154 238.046C320.822 238.046 320.03 237.326 320.03 235.76V229.46H318.806V235.868C318.806 237.938 319.94 239.144 321.812 239.144C322.982 239.144 323.99 238.568 324.566 237.542V239H325.79V229.46H324.566ZM338.958 239H340.506L336.276 233.456L340.434 229.46H338.814L334.278 233.942V225.68H333.054V239H334.278V235.382L335.448 234.266L338.958 239ZM348.753 239C348.537 238.352 348.357 237.38 348.357 236.3V232.376C348.357 230.738 347.367 229.316 345.009 229.316C343.335 229.316 341.877 230.072 341.157 232.088L342.237 232.412C342.741 230.954 343.749 230.432 344.937 230.432C346.413 230.432 347.169 231.278 347.169 232.52V233.78C346.395 233.51 345.639 233.42 344.865 233.42C342.903 233.42 341.139 234.446 341.139 236.408C341.139 238.046 342.417 239.144 344.109 239.144C345.657 239.144 346.899 238.244 347.385 237.128C347.385 237.848 347.493 238.478 347.637 239H348.753ZM347.169 235.04C347.169 237.362 345.567 238.1 344.325 238.1C343.173 238.1 342.363 237.488 342.363 236.336C342.363 235.076 343.497 234.428 344.937 234.428C345.675 234.428 346.431 234.518 347.169 234.824V235.04ZM355.247 229.316C354.095 229.316 353.051 229.892 352.475 230.936V229.46H351.251V239H352.475V233.636C352.475 231.728 353.249 230.432 354.923 230.432C356.255 230.432 357.047 231.08 357.047 232.808V239H358.271V232.628C358.271 230.486 357.155 229.316 355.247 229.316ZM369.815 229.334C368.573 229.334 367.313 230.018 366.683 231.242V225.68H365.459V239H366.683V237.272C367.259 238.478 368.339 239.144 369.671 239.144C372.227 239.144 373.883 237.074 373.883 234.14C373.883 231.368 372.245 229.334 369.815 229.334ZM369.671 238.064C367.763 238.064 366.683 236.66 366.683 234.176C366.683 231.836 367.781 230.414 369.689 230.414C371.453 230.414 372.623 231.782 372.623 234.194C372.623 236.696 371.453 238.064 369.671 238.064ZM379.595 229.316C378.749 229.316 377.903 229.748 377.399 230.648V229.46H376.175V239H377.399V233.132C377.399 231.206 378.227 230.396 379.325 230.396C380.297 230.396 380.621 231.026 380.621 231.98V232.916L381.737 232.7V231.764C381.737 230.144 380.837 229.316 379.595 229.316ZM389.323 229.46V234.824C389.323 236.696 388.603 238.046 386.911 238.046C385.579 238.046 384.787 237.326 384.787 235.76V229.46H383.563V235.868C383.563 237.938 384.697 239.144 386.569 239.144C387.739 239.144 388.747 238.568 389.323 237.542V239H390.547V229.46H389.323ZM399.31 239H400.858L396.628 233.456L400.786 229.46H399.166L394.63 233.942V225.68H393.406V239H394.63V235.382L395.8 234.266L399.31 239ZM408.51 236.3C408.06 237.236 407.214 238.064 405.774 238.064C403.938 238.064 402.732 236.984 402.624 234.446H409.302L409.338 233.384C409.338 230.792 407.574 229.316 405.522 229.316C403.038 229.316 401.382 231.314 401.382 234.104C401.382 237.146 402.966 239.144 405.648 239.144C407.772 239.144 408.96 237.956 409.41 236.804L408.51 236.3ZM405.522 230.396C406.926 230.396 408.186 231.296 408.132 233.438H402.624C402.786 231.17 404.082 230.396 405.522 230.396ZM415.664 231.944C415.664 233.222 416.582 234.104 418.328 234.464L419.876 234.788C421.136 235.058 421.64 235.544 421.64 236.444C421.64 237.416 420.668 238.064 419.192 238.064C417.788 238.064 416.798 237.524 416.348 236.516L415.304 236.948C415.952 238.388 417.302 239.144 419.228 239.144C421.352 239.144 422.828 237.992 422.828 236.336C422.828 234.914 421.856 234.014 419.768 233.6L418.508 233.348C417.374 233.114 416.852 232.628 416.852 231.836C416.852 230.954 417.716 230.396 419.048 230.396C420.272 230.396 421.154 230.882 421.532 231.8L422.54 231.404C422.144 230.144 420.812 229.316 419.084 229.316C417.086 229.316 415.664 230.432 415.664 231.944ZM428.087 228.452C429.257 228.452 430.211 227.588 430.211 226.4C430.211 225.212 429.257 224.348 428.087 224.348C426.917 224.348 425.963 225.212 425.963 226.4C425.963 227.588 426.917 228.452 428.087 228.452ZM428.087 225.176C428.771 225.176 429.311 225.608 429.311 226.4C429.311 227.21 428.771 227.624 428.087 227.624C427.403 227.624 426.863 227.21 426.863 226.4C426.863 225.608 427.403 225.176 428.087 225.176ZM431.795 239C431.579 238.352 431.399 237.38 431.399 236.3V232.376C431.399 230.738 430.409 229.316 428.051 229.316C426.377 229.316 424.919 230.072 424.199 232.088L425.279 232.412C425.783 230.954 426.791 230.432 427.979 230.432C429.455 230.432 430.211 231.278 430.211 232.52V233.78C429.437 233.51 428.681 233.42 427.907 233.42C425.945 233.42 424.181 234.446 424.181 236.408C424.181 238.046 425.459 239.144 427.151 239.144C428.699 239.144 429.941 238.244 430.427 237.128C430.427 237.848 430.535 238.478 430.679 239H431.795ZM430.211 235.04C430.211 237.362 428.609 238.1 427.367 238.1C426.215 238.1 425.405 237.488 425.405 236.336C425.405 235.076 426.539 234.428 427.979 234.428C428.717 234.428 429.473 234.518 430.211 234.824V235.04ZM448.204 229.316C446.98 229.316 445.882 230 445.342 231.26C445 230.018 444.046 229.316 442.624 229.316C441.508 229.316 440.5 229.892 439.924 230.954V229.46H438.7V239H439.924V233.636C439.924 231.728 440.626 230.432 442.3 230.432C443.542 230.432 444.28 231.08 444.28 232.628V239H445.504V233.636C445.504 231.728 446.206 230.432 447.88 230.432C449.122 230.432 449.86 231.08 449.86 232.628V239H451.084V232.448C451.084 230.468 450.022 229.316 448.204 229.316ZM460.938 239C460.722 238.352 460.542 237.38 460.542 236.3V232.376C460.542 230.738 459.552 229.316 457.194 229.316C455.52 229.316 454.062 230.072 453.342 232.088L454.422 232.412C454.926 230.954 455.934 230.432 457.122 230.432C458.598 230.432 459.354 231.278 459.354 232.52V233.78C458.58 233.51 457.824 233.42 457.05 233.42C455.088 233.42 453.324 234.446 453.324 236.408C453.324 238.046 454.602 239.144 456.294 239.144C457.842 239.144 459.084 238.244 459.57 237.128C459.57 237.848 459.678 238.478 459.822 239H460.938ZM459.354 235.04C459.354 237.362 457.752 238.1 456.51 238.1C455.358 238.1 454.548 237.488 454.548 236.336C454.548 235.076 455.682 234.428 457.122 234.428C457.86 234.428 458.616 234.518 459.354 234.824V235.04ZM467.432 229.316C466.28 229.316 465.236 229.892 464.66 230.936V229.46H463.436V239H464.66V233.636C464.66 231.728 465.434 230.432 467.108 230.432C468.44 230.432 469.232 231.08 469.232 232.808V239H470.456V232.628C470.456 230.486 469.34 229.316 467.432 229.316ZM481.771 230.468V229.46H479.035V230.126C478.459 229.64 477.703 229.316 476.713 229.316C474.193 229.316 472.915 231.098 472.915 232.808C472.915 233.978 473.617 235.31 474.877 235.814C473.707 236.12 473.005 236.858 473.005 237.704C473.005 238.694 473.797 239.324 475.129 239.324H479.233C480.097 239.324 480.385 239.72 480.385 240.26C480.385 241.412 478.729 242.006 476.749 242.006C475.147 242.006 473.743 241.7 473.077 240.134L472.087 240.584C472.663 242.258 474.337 243.032 476.749 243.032C479.431 243.032 481.609 242.042 481.609 240.152C481.609 238.964 480.817 238.208 479.269 238.208H475.399C474.607 238.208 474.229 237.866 474.229 237.38C474.229 236.75 475.003 236.336 476.083 236.336H476.497C479.179 236.336 480.439 234.554 480.439 232.808C480.439 232.106 480.187 231.386 479.719 230.81V230.468H481.771ZM476.695 235.328C474.985 235.328 474.121 234.14 474.121 232.808C474.121 231.494 474.985 230.36 476.695 230.36C478.387 230.36 479.233 231.476 479.233 232.808C479.233 234.158 478.387 235.328 476.695 235.328ZM489.275 236.3C488.825 237.236 487.979 238.064 486.539 238.064C484.703 238.064 483.497 236.984 483.389 234.446H490.067L490.103 233.384C490.103 230.792 488.339 229.316 486.287 229.316C483.803 229.316 482.147 231.314 482.147 234.104C482.147 237.146 483.731 239.144 486.413 239.144C488.537 239.144 489.725 237.956 490.175 236.804L489.275 236.3ZM486.287 230.396C487.691 230.396 488.951 231.296 488.897 233.438H483.389C483.551 231.17 484.847 230.396 486.287 230.396ZM499.884 238.964V237.884C499.704 237.938 499.506 237.956 499.308 237.956C498.552 237.956 498.12 237.542 498.12 236.732V225.68H496.896V236.732C496.896 238.136 497.598 239.072 499.092 239.072C499.362 239.072 499.596 239.036 499.884 238.964ZM502.529 227.732C503.123 227.732 503.609 227.264 503.609 226.652C503.609 226.04 503.123 225.572 502.529 225.572C501.935 225.572 501.449 226.04 501.449 226.652C501.449 227.264 501.935 227.732 502.529 227.732ZM501.917 239H503.141V229.46H501.917V239ZM510.037 229.316C508.885 229.316 507.841 229.892 507.265 230.936V229.46H506.041V239H507.265V233.636C507.265 231.728 508.039 230.432 509.713 230.432C511.045 230.432 511.837 231.08 511.837 232.808V239H513.061V232.628C513.061 230.486 511.945 229.316 510.037 229.316ZM515.412 225.752V227.588H517.284V225.752H515.412ZM514.908 242.906C516.258 242.906 516.96 242.078 516.96 240.458V229.46H515.736V240.386C515.736 241.214 515.574 241.79 514.728 241.79C514.566 241.79 514.332 241.772 514.08 241.682L513.972 242.762C514.278 242.852 514.584 242.906 514.908 242.906ZM526.378 236.3C525.928 237.236 525.082 238.064 523.642 238.064C521.806 238.064 520.6 236.984 520.492 234.446H527.17L527.206 233.384C527.206 230.792 525.442 229.316 523.39 229.316C520.906 229.316 519.25 231.314 519.25 234.104C519.25 237.146 520.834 239.144 523.516 239.144C525.64 239.144 526.828 237.956 527.278 236.804L526.378 236.3ZM523.39 230.396C524.794 230.396 526.054 231.296 526 233.438H520.492C520.654 231.17 521.95 230.396 523.39 230.396ZM533.013 229.316C532.167 229.316 531.321 229.748 530.817 230.648V229.46H529.593V239H530.817V233.132C530.817 231.206 531.645 230.396 532.743 230.396C533.715 230.396 534.039 231.026 534.039 231.98V232.916L535.155 232.7V231.764C535.155 230.144 534.255 229.316 533.013 229.316ZM548.367 225.68V231.188C547.791 229.982 546.711 229.316 545.379 229.316C542.823 229.316 541.167 231.386 541.167 234.32C541.167 237.092 542.805 239.126 545.235 239.126C546.477 239.126 547.737 238.442 548.367 237.218V239H549.591V225.68H548.367ZM545.361 238.046C543.597 238.046 542.427 236.678 542.427 234.266C542.427 231.764 543.597 230.396 545.379 230.396C547.287 230.396 548.367 231.8 548.367 234.284C548.367 236.624 547.269 238.046 545.361 238.046ZM557.951 229.46V234.824C557.951 236.696 557.231 238.046 555.539 238.046C554.207 238.046 553.415 237.326 553.415 235.76V229.46H552.191V235.868C552.191 237.938 553.325 239.144 555.197 239.144C556.367 239.144 557.375 238.568 557.951 237.542V239H559.175V229.46H557.951ZM570.436 229.316C569.284 229.316 568.24 229.892 567.664 230.936V225.68H566.44V239H567.664V233.636C567.664 231.728 568.438 230.432 570.112 230.432C571.444 230.432 572.236 231.08 572.236 232.808V239H573.46V232.628C573.46 230.486 572.344 229.316 570.436 229.316ZM583.316 239C583.1 238.352 582.92 237.38 582.92 236.3V232.376C582.92 230.738 581.93 229.316 579.572 229.316C577.898 229.316 576.44 230.072 575.72 232.088L576.8 232.412C577.304 230.954 578.312 230.432 579.5 230.432C580.976 230.432 581.732 231.278 581.732 232.52V233.78C580.958 233.51 580.202 233.42 579.428 233.42C577.466 233.42 575.702 234.446 575.702 236.408C575.702 238.046 576.98 239.144 578.672 239.144C580.22 239.144 581.462 238.244 581.948 237.128C581.948 237.848 582.056 238.478 582.2 239H583.316ZM581.732 235.04C581.732 237.362 580.13 238.1 578.888 238.1C577.736 238.1 576.926 237.488 576.926 236.336C576.926 235.076 578.06 234.428 579.5 234.428C580.238 234.428 580.994 234.518 581.732 234.824V235.04ZM589.234 229.316C588.388 229.316 587.542 229.748 587.038 230.648V229.46H585.814V239H587.038V233.132C587.038 231.206 587.866 230.396 588.964 230.396C589.936 230.396 590.26 231.026 590.26 231.98V232.916L591.376 232.7V231.764C591.376 230.144 590.476 229.316 589.234 229.316ZM602.392 229.334C601.15 229.334 599.89 230.018 599.26 231.242V225.68H598.036V239H599.26V237.272C599.836 238.478 600.916 239.144 602.248 239.144C604.804 239.144 606.46 237.074 606.46 234.14C606.46 231.368 604.822 229.334 602.392 229.334ZM602.248 238.064C600.34 238.064 599.26 236.66 599.26 234.176C599.26 231.836 600.358 230.414 602.266 230.414C604.03 230.414 605.2 231.782 605.2 234.194C605.2 236.696 604.03 238.064 602.248 238.064ZM615.268 236.3C614.818 237.236 613.972 238.064 612.532 238.064C610.696 238.064 609.49 236.984 609.382 234.446H616.06L616.096 233.384C616.096 230.792 614.332 229.316 612.28 229.316C609.796 229.316 608.14 231.314 608.14 234.104C608.14 237.146 609.724 239.144 612.406 239.144C614.53 239.144 615.718 237.956 616.168 236.804L615.268 236.3ZM612.28 230.396C613.684 230.396 614.944 231.296 614.89 233.438H609.382C609.544 231.17 610.84 230.396 612.28 230.396ZM622.515 229.316C621.363 229.316 620.319 229.892 619.743 230.936V225.68H618.519V239H619.743V233.636C619.743 231.728 620.517 230.432 622.191 230.432C623.523 230.432 624.315 231.08 624.315 232.808V239H625.539V232.628C625.539 230.486 624.423 229.316 622.515 229.316ZM631.921 239.144C634.279 239.144 636.169 237.2 636.169 234.212C636.169 231.26 634.297 229.316 631.921 229.316C629.545 229.316 627.673 231.26 627.673 234.212C627.673 237.2 629.563 239.144 631.921 239.144ZM631.921 238.064C630.283 238.064 628.933 236.768 628.933 234.212C628.933 231.674 630.301 230.396 631.921 230.396C633.541 230.396 634.909 231.674 634.909 234.212C634.909 236.768 633.559 238.064 631.921 238.064ZM644.189 229.46L641.201 237.65L638.213 229.46H636.881L640.625 239H641.705L645.449 229.46H644.189ZM653.429 228.128C653.429 226.958 654.095 226.58 654.725 226.58C655.229 226.58 655.661 226.832 655.949 227.264L656.687 226.526C656.237 225.806 655.445 225.536 654.761 225.536C653.285 225.536 652.205 226.472 652.205 228.128V229.46H650.405V230.468H652.205V239H653.429V230.468H656.093V229.46H653.429V228.128ZM660.846 239.144C663.204 239.144 665.094 237.2 665.094 234.212C665.094 231.26 663.222 229.316 660.846 229.316C658.47 229.316 656.598 231.26 656.598 234.212C656.598 237.2 658.488 239.144 660.846 239.144ZM660.846 238.064C659.208 238.064 657.858 236.768 657.858 234.212C657.858 231.674 659.226 230.396 660.846 230.396C662.466 230.396 663.834 231.674 663.834 234.212C663.834 236.768 662.484 238.064 660.846 238.064ZM670.801 229.316C669.955 229.316 669.109 229.748 668.605 230.648V229.46H667.381V239H668.605V233.132C668.605 231.206 669.433 230.396 670.531 230.396C671.503 230.396 671.827 231.026 671.827 231.98V232.916L672.943 232.7V231.764C672.943 230.144 672.043 229.316 670.801 229.316ZM673.476 236.84C672.81 236.84 672.324 237.326 672.324 237.956C672.324 238.658 672.828 239.072 673.476 239.072C673.62 239.072 673.746 239.054 673.836 239.036C673.98 240.296 673.17 241.052 672.324 241.808L672.756 242.312C674.322 241.088 674.808 239.9 674.808 238.712C674.808 237.488 674.232 236.84 673.476 236.84ZM691.261 229.316C690.037 229.316 688.939 230 688.399 231.26C688.057 230.018 687.103 229.316 685.681 229.316C684.565 229.316 683.557 229.892 682.981 230.954V229.46H681.757V239H682.981V233.636C682.981 231.728 683.683 230.432 685.357 230.432C686.599 230.432 687.337 231.08 687.337 232.628V239H688.561V233.636C688.561 231.728 689.263 230.432 690.937 230.432C692.179 230.432 692.917 231.08 692.917 232.628V239H694.141V232.448C694.141 230.468 693.079 229.316 691.261 229.316ZM703.401 236.3C702.951 237.236 702.105 238.064 700.665 238.064C698.829 238.064 697.623 236.984 697.515 234.446H704.193L704.229 233.384C704.229 230.792 702.465 229.316 700.413 229.316C697.929 229.316 696.273 231.314 696.273 234.104C696.273 237.146 697.857 239.144 700.539 239.144C702.663 239.144 703.851 237.956 704.301 236.804L703.401 236.3ZM700.413 230.396C701.817 230.396 703.077 231.296 703.023 233.438H697.515C697.677 231.17 698.973 230.396 700.413 230.396ZM710.613 229.316C709.461 229.316 708.417 229.892 707.841 230.936V229.46H706.617V239H707.841V233.636C707.841 231.728 708.615 230.432 710.289 230.432C711.621 230.432 712.413 231.08 712.413 232.808V239H713.637V232.628C713.637 230.486 712.521 229.316 710.613 229.316ZM725.145 229.334C723.903 229.334 722.643 230.018 722.013 231.242V229.46H720.789V242.78H722.013V237.272C722.589 238.478 723.669 239.144 725.001 239.144C727.557 239.144 729.213 237.074 729.213 234.14C729.213 231.368 727.575 229.334 725.145 229.334ZM725.001 238.064C723.093 238.064 722.013 236.66 722.013 234.176C722.013 231.836 723.111 230.414 725.019 230.414C726.783 230.414 727.953 231.782 727.953 234.194C727.953 236.696 726.783 238.064 725.001 238.064ZM734.925 229.316C734.079 229.316 733.233 229.748 732.729 230.648V229.46H731.505V239H732.729V233.132C732.729 231.206 733.557 230.396 734.655 230.396C735.627 230.396 735.951 231.026 735.951 231.98V232.916L737.067 232.7V231.764C737.067 230.144 736.167 229.316 734.925 229.316ZM744.879 230.18L745.689 228.596H744.825L744.231 229.748C743.673 229.478 743.043 229.316 742.377 229.316C740.001 229.316 738.129 231.26 738.129 234.212C738.129 236.012 738.813 237.434 739.875 238.28L739.065 239.864H739.929L740.523 238.694C741.081 238.982 741.711 239.144 742.377 239.144C744.735 239.144 746.625 237.2 746.625 234.212C746.625 232.43 745.941 231.026 744.879 230.18ZM739.389 234.212C739.389 231.674 740.757 230.396 742.377 230.396C742.863 230.396 743.313 230.504 743.727 230.738L740.397 237.254C739.785 236.606 739.389 235.598 739.389 234.212ZM742.377 238.064C741.891 238.064 741.423 237.956 741.027 237.722L744.357 231.206C744.969 231.854 745.365 232.844 745.365 234.212C745.365 236.768 744.015 238.064 742.377 238.064ZM754.645 229.46L751.657 237.65L748.669 229.46H747.337L751.081 239H752.161L755.905 229.46H754.645ZM764.965 238.964V237.884C764.785 237.938 764.587 237.956 764.389 237.956C763.633 237.956 763.201 237.542 763.201 236.732V225.68H761.977V236.732C761.977 238.136 762.679 239.072 764.173 239.072C764.443 239.072 764.677 239.036 764.965 238.964ZM767.61 227.732C768.204 227.732 768.69 227.264 768.69 226.652C768.69 226.04 768.204 225.572 767.61 225.572C767.016 225.572 766.53 226.04 766.53 226.652C766.53 227.264 767.016 227.732 767.61 227.732ZM766.998 239H768.222V229.46H766.998V239ZM777.062 239H778.61L774.38 233.456L778.538 229.46H776.918L772.382 233.942V225.68H771.158V239H772.382V235.382L773.552 234.266L777.062 239ZM786.262 236.3C785.812 237.236 784.966 238.064 783.526 238.064C781.69 238.064 780.484 236.984 780.376 234.446H787.054L787.09 233.384C787.09 230.792 785.326 229.316 783.274 229.316C780.79 229.316 779.134 231.314 779.134 234.104C779.134 237.146 780.718 239.144 783.4 239.144C785.524 239.144 786.712 237.956 787.162 236.804L786.262 236.3ZM783.274 230.396C784.678 230.396 785.938 231.296 785.884 233.438H780.376C780.538 231.17 781.834 230.396 783.274 230.396ZM795.386 229.46L792.398 237.65L789.41 229.46H788.078L791.822 239H792.902L796.646 229.46H795.386ZM804.477 236.3C804.027 237.236 803.181 238.064 801.741 238.064C799.905 238.064 798.699 236.984 798.591 234.446H805.269L805.305 233.384C805.305 230.792 803.541 229.316 801.489 229.316C799.005 229.316 797.349 231.314 797.349 234.104C797.349 237.146 798.933 239.144 801.615 239.144C803.739 239.144 804.927 237.956 805.377 236.804L804.477 236.3ZM801.489 230.396C802.893 230.396 804.153 231.296 804.099 233.438H798.591C798.753 231.17 800.049 230.396 801.489 230.396ZM810.681 238.964V237.884C810.501 237.938 810.303 237.956 810.105 237.956C809.349 237.956 808.917 237.542 808.917 236.732V225.68H807.693V236.732C807.693 238.136 808.395 239.072 809.889 239.072C810.159 239.072 810.393 239.036 810.681 238.964ZM309.95 256.452C311.12 256.452 312.074 255.588 312.074 254.4C312.074 253.212 311.12 252.348 309.95 252.348C308.78 252.348 307.826 253.212 307.826 254.4C307.826 255.588 308.78 256.452 309.95 256.452ZM309.95 253.176C310.634 253.176 311.174 253.608 311.174 254.4C311.174 255.21 310.634 255.624 309.95 255.624C309.266 255.624 308.726 255.21 308.726 254.4C308.726 253.608 309.266 253.176 309.95 253.176ZM313.658 267C313.442 266.352 313.262 265.38 313.262 264.3V260.376C313.262 258.738 312.272 257.316 309.914 257.316C308.24 257.316 306.782 258.072 306.062 260.088L307.142 260.412C307.646 258.954 308.654 258.432 309.842 258.432C311.318 258.432 312.074 259.278 312.074 260.52V261.78C311.3 261.51 310.544 261.42 309.77 261.42C307.808 261.42 306.044 262.446 306.044 264.408C306.044 266.046 307.322 267.144 309.014 267.144C310.562 267.144 311.804 266.244 312.29 265.128C312.29 265.848 312.398 266.478 312.542 267H313.658ZM312.074 263.04C312.074 265.362 310.472 266.1 309.23 266.1C308.078 266.1 307.268 265.488 307.268 264.336C307.268 263.076 308.402 262.428 309.842 262.428C310.58 262.428 311.336 262.518 312.074 262.824V263.04ZM326.646 257.46L323.658 265.65L320.67 257.46H319.338L323.082 267H324.162L327.906 257.46H326.646ZM341.587 264.3C341.155 265.236 340.327 266.064 338.923 266.064C337.087 266.064 335.917 264.984 335.845 262.41H342.307L342.343 261.384C342.343 258.792 340.741 257.316 338.743 257.316C337.321 257.316 336.169 257.982 335.521 259.062C335.125 258.054 334.171 257.316 332.515 257.316C330.949 257.316 329.419 258.162 328.717 260.034L329.743 260.412C330.247 259.044 331.309 258.432 332.515 258.432C333.937 258.432 334.693 259.278 334.693 260.52V261.474H332.407C330.409 261.474 328.645 262.464 328.645 264.408C328.645 266.046 329.959 267.144 331.687 267.144C333.451 267.144 334.837 265.992 335.197 264.588C335.719 266.172 337.033 267.144 338.869 267.144C340.867 267.144 342.037 265.884 342.487 264.804L341.587 264.3ZM338.743 258.396C340.075 258.396 341.263 259.314 341.209 261.474H335.845C335.953 259.17 337.285 258.396 338.743 258.396ZM334.693 263.04C334.693 265.362 333.073 266.1 331.831 266.1C330.679 266.1 329.869 265.488 329.869 264.336C329.869 263.076 331.003 262.41 332.443 262.41H334.693V263.04ZM348.227 257.316C347.381 257.316 346.535 257.748 346.031 258.648V257.46H344.807V267H346.031V261.132C346.031 259.206 346.859 258.396 347.957 258.396C348.929 258.396 349.253 259.026 349.253 259.98V260.916L350.369 260.7V259.764C350.369 258.144 349.469 257.316 348.227 257.316ZM358.558 264.3C358.108 265.236 357.262 266.064 355.822 266.064C353.986 266.064 352.78 264.984 352.672 262.446H359.35L359.386 261.384C359.386 258.792 357.622 257.316 355.57 257.316C353.086 257.316 351.43 259.314 351.43 262.104C351.43 265.146 353.014 267.144 355.696 267.144C357.82 267.144 359.008 265.956 359.458 264.804L358.558 264.3ZM355.57 258.396C356.974 258.396 358.234 259.296 358.18 261.438H352.672C352.834 259.17 354.13 258.396 355.57 258.396ZM372.119 267H373.667L369.437 261.456L373.595 257.46H371.975L367.439 261.942V253.68H366.215V267H367.439V263.382L368.609 262.266L372.119 267ZM378.439 267.144C380.797 267.144 382.687 265.2 382.687 262.212C382.687 259.26 380.815 257.316 378.439 257.316C376.063 257.316 374.191 259.26 374.191 262.212C374.191 265.2 376.081 267.144 378.439 267.144ZM378.439 266.064C376.801 266.064 375.451 264.768 375.451 262.212C375.451 259.674 376.819 258.396 378.439 258.396C380.059 258.396 381.427 259.674 381.427 262.212C381.427 264.768 380.077 266.064 378.439 266.064ZM388.395 257.316C387.549 257.316 386.703 257.748 386.199 258.648V257.46H384.975V267H386.199V261.132C386.199 259.206 387.027 258.396 388.125 258.396C389.097 258.396 389.421 259.026 389.421 259.98V260.916L390.537 260.7V259.764C390.537 258.144 389.637 257.316 388.395 257.316ZM394.487 264.624V258.468H397.583V257.46H394.487V254.688L393.263 255.408V257.46H391.463V258.468H393.263V264.588C393.263 266.28 394.343 267.144 395.639 267.144C396.485 267.144 397.169 266.838 397.799 266.1L397.151 265.38C396.701 265.848 396.323 266.064 395.747 266.064C395.153 266.064 394.487 265.74 394.487 264.624ZM407.733 267.144C410.091 267.144 411.981 265.2 411.981 262.212C411.981 259.26 410.109 257.316 407.733 257.316C405.357 257.316 403.485 259.26 403.485 262.212C403.485 265.2 405.375 267.144 407.733 267.144ZM407.733 266.064C406.095 266.064 404.745 264.768 404.745 262.212C404.745 259.674 406.113 258.396 407.733 258.396C409.353 258.396 410.721 259.674 410.721 262.212C410.721 264.768 409.371 266.064 407.733 266.064ZM422.291 258.468V257.46H419.555V258.126C418.979 257.64 418.223 257.316 417.233 257.316C414.713 257.316 413.435 259.098 413.435 260.808C413.435 261.978 414.137 263.31 415.397 263.814C414.227 264.12 413.525 264.858 413.525 265.704C413.525 266.694 414.317 267.324 415.649 267.324H419.753C420.617 267.324 420.905 267.72 420.905 268.26C420.905 269.412 419.249 270.006 417.269 270.006C415.667 270.006 414.263 269.7 413.597 268.134L412.607 268.584C413.183 270.258 414.857 271.032 417.269 271.032C419.951 271.032 422.129 270.042 422.129 268.152C422.129 266.964 421.337 266.208 419.789 266.208H415.919C415.127 266.208 414.749 265.866 414.749 265.38C414.749 264.75 415.523 264.336 416.603 264.336H417.017C419.699 264.336 420.959 262.554 420.959 260.808C420.959 260.106 420.707 259.386 420.239 258.81V258.468H422.291ZM417.215 263.328C415.505 263.328 414.641 262.14 414.641 260.808C414.641 259.494 415.505 258.36 417.215 258.36C418.907 258.36 419.753 259.476 419.753 260.808C419.753 262.158 418.907 263.328 417.215 263.328ZM434.345 267H435.893L431.663 261.456L435.821 257.46H434.201L429.665 261.942V253.68H428.441V267H429.665V263.382L430.835 262.266L434.345 267ZM440.666 267.144C443.024 267.144 444.914 265.2 444.914 262.212C444.914 259.26 443.042 257.316 440.666 257.316C438.29 257.316 436.418 259.26 436.418 262.212C436.418 265.2 438.308 267.144 440.666 267.144ZM440.666 266.064C439.028 266.064 437.678 264.768 437.678 262.212C437.678 259.674 439.046 258.396 440.666 258.396C442.286 258.396 443.654 259.674 443.654 262.212C443.654 264.768 442.304 266.064 440.666 266.064ZM451.197 257.316C450.045 257.316 449.001 257.892 448.425 258.936V257.46H447.201V267H448.425V261.636C448.425 259.728 449.199 258.432 450.873 258.432C452.205 258.432 452.997 259.08 452.997 260.808V267H454.221V260.628C454.221 258.486 453.105 257.316 451.197 257.316ZM456.5 259.944C456.5 261.222 457.418 262.104 459.164 262.464L460.712 262.788C461.972 263.058 462.476 263.544 462.476 264.444C462.476 265.416 461.504 266.064 460.028 266.064C458.624 266.064 457.634 265.524 457.184 264.516L456.14 264.948C456.788 266.388 458.138 267.144 460.064 267.144C462.188 267.144 463.664 265.992 463.664 264.336C463.664 262.914 462.692 262.014 460.604 261.6L459.344 261.348C458.21 261.114 457.688 260.628 457.688 259.836C457.688 258.954 458.552 258.396 459.884 258.396C461.108 258.396 461.99 258.882 462.368 259.8L463.376 259.404C462.98 258.144 461.648 257.316 459.92 257.316C457.922 257.316 456.5 258.432 456.5 259.944ZM466.485 255.732C467.079 255.732 467.565 255.264 467.565 254.652C467.565 254.04 467.079 253.572 466.485 253.572C465.891 253.572 465.405 254.04 465.405 254.652C465.405 255.264 465.891 255.732 466.485 255.732ZM465.873 267H467.097V257.46H465.873V267ZM469.529 259.944C469.529 261.222 470.447 262.104 472.193 262.464L473.741 262.788C475.001 263.058 475.505 263.544 475.505 264.444C475.505 265.416 474.533 266.064 473.057 266.064C471.653 266.064 470.663 265.524 470.213 264.516L469.169 264.948C469.817 266.388 471.167 267.144 473.093 267.144C475.217 267.144 476.693 265.992 476.693 264.336C476.693 262.914 475.721 262.014 473.633 261.6L472.373 261.348C471.239 261.114 470.717 260.628 470.717 259.836C470.717 258.954 471.581 258.396 472.913 258.396C474.137 258.396 475.019 258.882 475.397 259.8L476.405 259.404C476.009 258.144 474.677 257.316 472.949 257.316C470.951 257.316 469.529 258.432 469.529 259.944ZM478.655 264.984V267H480.599V264.984H478.655Z" fill="#2A2859"/>
<path d="M306.036 307.384C306.036 308.952 307.198 309.75 308.64 310.016L310.124 310.296C311.384 310.534 312.224 310.898 312.224 312.144C312.224 313.264 311.314 314.244 309.62 314.244C308.486 314.244 307.324 313.964 306.624 312.592L305.728 312.956C306.456 314.496 307.8 315.112 309.592 315.112C311.86 315.112 313.204 313.684 313.204 312.088C313.204 310.534 312.028 309.68 310.432 309.372L308.808 309.064C307.59 308.826 307.016 308.238 307.016 307.272C307.016 306.124 308.024 305.396 309.452 305.396C310.53 305.396 311.468 305.942 311.888 306.936L312.812 306.558C312.294 305.256 311.146 304.528 309.452 304.528C307.618 304.528 306.036 305.648 306.036 307.384ZM315.758 306.236C316.22 306.236 316.598 305.872 316.598 305.396C316.598 304.92 316.22 304.556 315.758 304.556C315.296 304.556 314.918 304.92 314.918 305.396C314.918 305.872 315.296 306.236 315.758 306.236ZM315.282 315H316.234V307.58H315.282V315ZM318.281 309.512C318.281 310.506 318.995 311.192 320.353 311.472L321.557 311.724C322.537 311.934 322.929 312.312 322.929 313.012C322.929 313.768 322.173 314.272 321.025 314.272C319.933 314.272 319.163 313.852 318.813 313.068L318.001 313.404C318.505 314.524 319.555 315.112 321.053 315.112C322.705 315.112 323.853 314.216 323.853 312.928C323.853 311.822 323.097 311.122 321.473 310.8L320.493 310.604C319.611 310.422 319.205 310.044 319.205 309.428C319.205 308.742 319.877 308.308 320.913 308.308C321.865 308.308 322.551 308.686 322.845 309.4L323.629 309.092C323.321 308.112 322.285 307.468 320.941 307.468C319.387 307.468 318.281 308.336 318.281 309.512ZM327.075 313.152V308.364H329.483V307.58H327.075V305.424L326.123 305.984V307.58H324.723V308.364H326.123V313.124C326.123 314.44 326.963 315.112 327.971 315.112C328.629 315.112 329.161 314.874 329.651 314.3L329.147 313.74C328.797 314.104 328.503 314.272 328.055 314.272C327.593 314.272 327.075 314.02 327.075 313.152ZM337.688 315.112C339.522 315.112 340.992 313.6 340.992 311.276C340.992 308.98 339.536 307.468 337.688 307.468C335.84 307.468 334.384 308.98 334.384 311.276C334.384 313.6 335.854 315.112 337.688 315.112ZM337.688 314.272C336.414 314.272 335.364 313.264 335.364 311.276C335.364 309.302 336.428 308.308 337.688 308.308C338.948 308.308 340.012 309.302 340.012 311.276C340.012 313.264 338.962 314.272 337.688 314.272ZM346.315 307.482C345.349 307.482 344.369 308.014 343.879 308.966V307.58H342.927V317.94H343.879V313.656C344.327 314.594 345.167 315.112 346.203 315.112C348.191 315.112 349.479 313.502 349.479 311.22C349.479 309.064 348.205 307.482 346.315 307.482ZM346.203 314.272C344.719 314.272 343.879 313.18 343.879 311.248C343.879 309.428 344.733 308.322 346.217 308.322C347.589 308.322 348.499 309.386 348.499 311.262C348.499 313.208 347.589 314.272 346.203 314.272ZM354.805 307.482C353.839 307.482 352.859 308.014 352.369 308.966V307.58H351.417V317.94H352.369V313.656C352.817 314.594 353.657 315.112 354.693 315.112C356.681 315.112 357.969 313.502 357.969 311.22C357.969 309.064 356.695 307.482 354.805 307.482ZM354.693 314.272C353.209 314.272 352.369 313.18 352.369 311.248C352.369 309.428 353.223 308.322 354.707 308.322C356.079 308.322 356.989 309.386 356.989 311.262C356.989 313.208 356.079 314.272 354.693 314.272ZM365.031 304.64V308.924C364.583 307.986 363.743 307.468 362.707 307.468C360.719 307.468 359.431 309.078 359.431 311.36C359.431 313.516 360.705 315.098 362.595 315.098C363.561 315.098 364.541 314.566 365.031 313.614V315H365.983V304.64H365.031ZM362.693 314.258C361.321 314.258 360.411 313.194 360.411 311.318C360.411 309.372 361.321 308.308 362.707 308.308C364.191 308.308 365.031 309.4 365.031 311.332C365.031 313.152 364.177 314.258 362.693 314.258ZM373.859 315C373.691 314.496 373.551 313.74 373.551 312.9V309.848C373.551 308.574 372.781 307.468 370.947 307.468C369.645 307.468 368.511 308.056 367.951 309.624L368.791 309.876C369.183 308.742 369.967 308.336 370.891 308.336C372.039 308.336 372.627 308.994 372.627 309.96V310.94C372.025 310.73 371.437 310.66 370.835 310.66C369.309 310.66 367.937 311.458 367.937 312.984C367.937 314.258 368.931 315.112 370.247 315.112C371.451 315.112 372.417 314.412 372.795 313.544C372.795 314.104 372.879 314.594 372.991 315H373.859ZM372.627 311.92C372.627 313.726 371.381 314.3 370.415 314.3C369.519 314.3 368.889 313.824 368.889 312.928C368.889 311.948 369.771 311.444 370.891 311.444C371.465 311.444 372.053 311.514 372.627 311.752V311.92ZM377.305 313.152V308.364H379.713V307.58H377.305V305.424L376.353 305.984V307.58H374.953V308.364H376.353V313.124C376.353 314.44 377.193 315.112 378.201 315.112C378.859 315.112 379.391 314.874 379.881 314.3L379.377 313.74C379.027 314.104 378.733 314.272 378.285 314.272C377.823 314.272 377.305 314.02 377.305 313.152ZM386.153 312.9C385.803 313.628 385.145 314.272 384.025 314.272C382.597 314.272 381.659 313.432 381.575 311.458H386.769L386.797 310.632C386.797 308.616 385.425 307.468 383.829 307.468C381.897 307.468 380.609 309.022 380.609 311.192C380.609 313.558 381.841 315.112 383.927 315.112C385.579 315.112 386.503 314.188 386.853 313.292L386.153 312.9ZM383.829 308.308C384.921 308.308 385.901 309.008 385.859 310.674H381.575C381.701 308.91 382.709 308.308 383.829 308.308ZM391.469 307.468C390.811 307.468 390.153 307.804 389.761 308.504V307.58H388.809V315H389.761V310.436C389.761 308.938 390.405 308.308 391.259 308.308C392.015 308.308 392.267 308.798 392.267 309.54V310.268L393.135 310.1V309.372C393.135 308.112 392.435 307.468 391.469 307.468ZM396.364 313.152V308.364H398.772V307.58H396.364V305.424L395.412 305.984V307.58H394.012V308.364H395.412V313.124C395.412 314.44 396.252 315.112 397.26 315.112C397.918 315.112 398.45 314.874 398.94 314.3L398.436 313.74C398.086 314.104 397.792 314.272 397.344 314.272C396.882 314.272 396.364 314.02 396.364 313.152ZM400.959 308.504V310.072H402.471V308.504H400.959ZM401.715 315.084C402.219 315.084 402.611 314.706 402.611 314.188C402.611 313.67 402.219 313.292 401.715 313.292C401.211 313.292 400.819 313.67 400.819 314.188C400.819 314.706 401.211 315.084 401.715 315.084ZM413.976 304.64V308.924C413.528 307.986 412.688 307.468 411.652 307.468C409.664 307.468 408.376 309.078 408.376 311.36C408.376 313.516 409.65 315.098 411.54 315.098C412.506 315.098 413.486 314.566 413.976 313.614V315H414.928V304.64H413.976ZM411.638 314.258C410.266 314.258 409.356 313.194 409.356 311.318C409.356 309.372 410.266 308.308 411.652 308.308C413.136 308.308 413.976 309.4 413.976 311.332C413.976 313.152 413.122 314.258 411.638 314.258ZM422.804 315C422.636 314.496 422.496 313.74 422.496 312.9V309.848C422.496 308.574 421.726 307.468 419.892 307.468C418.59 307.468 417.456 308.056 416.896 309.624L417.736 309.876C418.128 308.742 418.912 308.336 419.836 308.336C420.984 308.336 421.572 308.994 421.572 309.96V310.94C420.97 310.73 420.382 310.66 419.78 310.66C418.254 310.66 416.882 311.458 416.882 312.984C416.882 314.258 417.876 315.112 419.192 315.112C420.396 315.112 421.362 314.412 421.74 313.544C421.74 314.104 421.824 314.594 421.936 315H422.804ZM421.572 311.92C421.572 313.726 420.326 314.3 419.36 314.3C418.464 314.3 417.834 313.824 417.834 312.928C417.834 311.948 418.716 311.444 419.836 311.444C420.41 311.444 420.998 311.514 421.572 311.752V311.92ZM426.251 313.152V308.364H428.659V307.58H426.251V305.424L425.299 305.984V307.58H423.899V308.364H425.299V313.124C425.299 314.44 426.139 315.112 427.147 315.112C427.805 315.112 428.337 314.874 428.827 314.3L428.323 313.74C427.973 314.104 427.678 314.272 427.231 314.272C426.769 314.272 426.251 314.02 426.251 313.152ZM432.858 315.112C434.692 315.112 436.162 313.6 436.162 311.276C436.162 308.98 434.706 307.468 432.858 307.468C431.01 307.468 429.554 308.98 429.554 311.276C429.554 313.6 431.024 315.112 432.858 315.112ZM432.858 314.272C431.584 314.272 430.534 313.264 430.534 311.276C430.534 309.302 431.598 308.308 432.858 308.308C434.118 308.308 435.182 309.302 435.182 311.276C435.182 313.264 434.132 314.272 432.858 314.272Z" fill="#2A2859"/>
<path d="M285 337V111H277V337H285Z" fill="#6FE9FF" mask="url(#path-1-inside-1_4591_150604)"/>
<path d="M317 93L317 132" stroke="#2A2859"/>
<circle cx="317" cy="132" r="2" fill="#2A2859"/>
<circle cx="317.5" cy="85.5" r="7.5" fill="#2A2859"/>
<path d="M318.204 88.0564V82.2874H317.304L315.693 83.3494V84.4204L317.16 83.4844V88.0564H315.621V88.9474H319.662V88.0564H318.204Z" fill="white"/>
<path d="M310 356L310 317" stroke="#2A2859"/>
<circle cx="310" cy="317" r="2" transform="rotate(-180 310 317)" fill="#2A2859"/>
<circle cx="309.5" cy="363.5" r="7.5" fill="#2A2859"/>
<path d="M312.067 364.436H311.086V362.348L310.069 362.645V364.436H308.215L309.691 360.287H308.647L307.09 364.598V365.363H310.069V366.947H311.086V365.363H312.067V364.436Z" fill="white"/>
<path d="M258 199L297 199" stroke="#2A2859"/>
<circle cx="297" cy="199" r="2" transform="rotate(-90 297 199)" fill="#2A2859"/>
<circle cx="250.5" cy="198.5" r="7.5" fill="#2A2859"/>
<path d="M251.618 198.419C252.158 198.158 252.572 197.672 252.572 196.979C252.572 196.097 251.897 195.197 250.358 195.197C249.287 195.197 248.396 195.782 248.009 196.934L248.954 197.204C249.179 196.547 249.629 196.133 250.34 196.133C251.06 196.133 251.51 196.52 251.51 197.168C251.51 197.447 251.402 197.717 251.177 197.897C250.988 198.05 250.79 198.113 250.34 198.113H249.665V198.995H250.691C250.979 198.995 251.168 199.04 251.348 199.139C251.636 199.283 251.789 199.571 251.789 199.976C251.789 200.579 251.249 201.092 250.385 201.092C249.674 201.092 249.17 200.849 248.684 200.201L247.91 200.786C248.585 201.695 249.431 202.037 250.376 202.037C251.915 202.037 252.851 201.128 252.851 200.03C252.851 199.157 252.275 198.644 251.618 198.419Z" fill="white"/>
<path d="M352 93L352 132" stroke="#2A2859"/>
<circle cx="352" cy="132" r="2" fill="#2A2859"/>
<circle cx="352.5" cy="85.5" r="7.5" fill="#2A2859"/>
<path d="M351.701 87.9934L353.465 86.1844C354.266 85.3564 354.617 84.8434 354.617 84.0334C354.617 83.0884 353.87 82.1974 352.475 82.1974C351.413 82.1974 350.477 82.7464 350.162 84.0424L351.134 84.2494C351.332 83.5114 351.764 83.1334 352.457 83.1334C353.114 83.1334 353.51 83.5564 353.51 84.1054C353.51 84.6544 353.249 85.0054 352.61 85.6804L350.279 88.1194V88.9474H354.869V87.9934H351.701Z" fill="white"/>
<path d="M828 93L828 132" stroke="#2A2859"/>
<circle cx="828" cy="132" r="2" fill="#2A2859"/>
<circle cx="827.5" cy="85.5" r="7.5" fill="#2A2859"/>
<path d="M827.817 84.6094C827.223 84.6094 826.692 84.8164 826.314 85.1854L826.458 83.2324H829.392V82.2874H825.603L825.396 85.7794L826.17 86.0764C826.602 85.6444 826.971 85.4644 827.538 85.4644C828.249 85.4644 828.816 85.9324 828.816 86.7604C828.816 87.5254 828.24 88.1014 827.385 88.1014C826.71 88.1014 826.215 87.8584 825.738 87.2104L824.973 87.7954C825.621 88.7044 826.458 89.0284 827.358 89.0284C828.933 89.0284 829.905 88.0204 829.905 86.6974C829.905 85.4734 829.05 84.6094 827.817 84.6094Z" fill="white"/>
</svg>
