<svg width="662" height="150" viewBox="0 0 662 150" fill="none" xmlns="http://www.w3.org/2000/svg">
<rect width="662" height="150" fill="white"/>
<mask id="path-1-inside-1_3057_108022" fill="white">
<path d="M40 55H622V130H40V55Z"/>
</mask>
<path d="M40 55H622V130H40V55Z" fill="#F2F9FF"/>
<path fill-rule="evenodd" clip-rule="evenodd" d="M76 104.25C82.2132 104.25 87.25 99.2132 87.25 93C87.25 86.7868 82.2132 81.75 76 81.75C69.7868 81.75 64.75 86.7868 64.75 93C64.75 99.2132 69.7868 104.25 76 104.25Z" fill="#6FE9FF"/>
<path d="M76.8437 90.8906H75.1562V99.3281H76.8437V90.8906Z" fill="#2A2859"/>
<path d="M74.6641 88.1484C74.6641 88.8959 75.2366 89.4844 76 89.4844C76.7634 89.4844 77.3359 88.8959 77.3359 88.1484C77.3359 87.4009 76.7634 86.8125 76 86.8125C75.2366 86.8125 74.6641 87.4009 74.6641 88.1484Z" fill="#2A2859"/>
<path d="M112.226 91.962C113.576 91.476 114.152 90.234 114.152 89.172C114.152 87.354 113.054 85.68 110.012 85.68H105.584V99H110.444C113.612 99 114.764 97.002 114.764 95.31C114.764 93.672 113.594 92.376 112.226 91.962ZM110.012 86.796C112.064 86.796 112.856 87.876 112.856 89.172C112.856 90.756 112.064 91.656 110.282 91.656H106.844V86.796H110.012ZM110.372 97.884H106.844V92.736H110.552C112.334 92.736 113.432 93.69 113.432 95.382C113.432 96.948 112.55 97.884 110.372 97.884ZM120.605 89.316C119.759 89.316 118.913 89.748 118.409 90.648V89.46H117.185V99H118.409V93.132C118.409 91.206 119.237 90.396 120.335 90.396C121.307 90.396 121.631 91.026 121.631 91.98V92.916L122.747 92.7V91.764C122.747 90.144 121.847 89.316 120.605 89.316ZM130.533 89.46V94.824C130.533 96.696 129.813 98.046 128.121 98.046C126.789 98.046 125.997 97.326 125.997 95.76V89.46H124.773V95.868C124.773 97.938 125.907 99.144 127.779 99.144C128.949 99.144 129.957 98.568 130.533 97.542V99H131.757V89.46H130.533ZM140.72 99H142.268L138.038 93.456L142.196 89.46H140.576L136.04 93.942V85.68H134.816V99H136.04V95.382L137.21 94.266L140.72 99ZM155.519 85.68V91.188C154.943 89.982 153.863 89.316 152.531 89.316C149.975 89.316 148.319 91.386 148.319 94.32C148.319 97.092 149.957 99.126 152.387 99.126C153.629 99.126 154.889 98.442 155.519 97.218V99H156.743V85.68H155.519ZM152.513 98.046C150.749 98.046 149.579 96.678 149.579 94.266C149.579 91.764 150.749 90.396 152.531 90.396C154.439 90.396 155.519 91.8 155.519 94.284C155.519 96.624 154.421 98.046 152.513 98.046ZM166.275 96.3C165.825 97.236 164.979 98.064 163.539 98.064C161.703 98.064 160.497 96.984 160.389 94.446H167.067L167.103 93.384C167.103 90.792 165.339 89.316 163.287 89.316C160.803 89.316 159.147 91.314 159.147 94.104C159.147 97.146 160.731 99.144 163.413 99.144C165.537 99.144 166.725 97.956 167.175 96.804L166.275 96.3ZM163.287 90.396C164.691 90.396 165.951 91.296 165.897 93.438H160.389C160.551 91.17 161.847 90.396 163.287 90.396ZM171.423 96.624V90.468H174.519V89.46H171.423V86.688L170.199 87.408V89.46H168.399V90.468H170.199V96.588C170.199 98.28 171.279 99.144 172.575 99.144C173.421 99.144 174.105 98.838 174.735 98.1L174.087 97.38C173.637 97.848 173.259 98.064 172.683 98.064C172.089 98.064 171.423 97.74 171.423 96.624ZM178.384 96.624V90.468H181.48V89.46H178.384V86.688L177.16 87.408V89.46H175.36V90.468H177.16V96.588C177.16 98.28 178.24 99.144 179.536 99.144C180.382 99.144 181.066 98.838 181.696 98.1L181.048 97.38C180.598 97.848 180.22 98.064 179.644 98.064C179.05 98.064 178.384 97.74 178.384 96.624ZM189.759 96.3C189.309 97.236 188.463 98.064 187.023 98.064C185.187 98.064 183.981 96.984 183.873 94.446H190.551L190.587 93.384C190.587 90.792 188.823 89.316 186.771 89.316C184.287 89.316 182.631 91.314 182.631 94.104C182.631 97.146 184.215 99.144 186.897 99.144C189.021 99.144 190.209 97.956 190.659 96.804L189.759 96.3ZM186.771 90.396C188.175 90.396 189.435 91.296 189.381 93.438H183.873C184.035 91.17 185.331 90.396 186.771 90.396ZM199.688 96.624V90.468H202.784V89.46H199.688V86.688L198.464 87.408V89.46H196.664V90.468H198.464V96.588C198.464 98.28 199.544 99.144 200.84 99.144C201.686 99.144 202.37 98.838 203 98.1L202.352 97.38C201.902 97.848 201.524 98.064 200.948 98.064C200.354 98.064 199.688 97.74 199.688 96.624ZM211.064 96.3C210.614 97.236 209.768 98.064 208.328 98.064C206.492 98.064 205.286 96.984 205.178 94.446H211.856L211.892 93.384C211.892 90.792 210.128 89.316 208.076 89.316C205.592 89.316 203.936 91.314 203.936 94.104C203.936 97.146 205.52 99.144 208.202 99.144C210.326 99.144 211.514 97.956 211.964 96.804L211.064 96.3ZM208.076 90.396C209.48 90.396 210.74 91.296 210.686 93.438H205.178C205.34 91.17 206.636 90.396 208.076 90.396ZM220.42 99H221.968L217.738 93.456L221.896 89.46H220.276L215.74 93.942V85.68H214.516V99H215.74V95.382L216.91 94.266L220.42 99ZM223.012 91.944C223.012 93.222 223.93 94.104 225.676 94.464L227.224 94.788C228.484 95.058 228.988 95.544 228.988 96.444C228.988 97.416 228.016 98.064 226.54 98.064C225.136 98.064 224.146 97.524 223.696 96.516L222.652 96.948C223.3 98.388 224.65 99.144 226.576 99.144C228.7 99.144 230.176 97.992 230.176 96.336C230.176 94.914 229.204 94.014 227.116 93.6L225.856 93.348C224.722 93.114 224.2 92.628 224.2 91.836C224.2 90.954 225.064 90.396 226.396 90.396C227.62 90.396 228.502 90.882 228.88 91.8L229.888 91.404C229.492 90.144 228.16 89.316 226.432 89.316C224.434 89.316 223.012 90.432 223.012 91.944ZM234.317 96.624V90.468H237.413V89.46H234.317V86.688L233.093 87.408V89.46H231.293V90.468H233.093V96.588C233.093 98.28 234.173 99.144 235.469 99.144C236.315 99.144 236.999 98.838 237.629 98.1L236.981 97.38C236.531 97.848 236.153 98.064 235.577 98.064C234.983 98.064 234.317 97.74 234.317 96.624ZM241.278 88.128C241.278 86.958 241.944 86.58 242.574 86.58C243.078 86.58 243.51 86.832 243.798 87.264L244.536 86.526C244.086 85.806 243.294 85.536 242.61 85.536C241.134 85.536 240.054 86.472 240.054 88.128V89.46H238.254V90.468H240.054V99H241.278V90.468H243.942V89.46H241.278V88.128ZM251.775 96.3C251.325 97.236 250.479 98.064 249.039 98.064C247.203 98.064 245.997 96.984 245.889 94.446H252.567L252.603 93.384C252.603 90.792 250.839 89.316 248.787 89.316C246.303 89.316 244.647 91.314 244.647 94.104C244.647 97.146 246.231 99.144 248.913 99.144C251.037 99.144 252.225 97.956 252.675 96.804L251.775 96.3ZM248.787 90.396C250.191 90.396 251.451 91.296 251.397 93.438H245.889C246.051 91.17 247.347 90.396 248.787 90.396ZM258.179 98.964V97.884C257.999 97.938 257.801 97.956 257.603 97.956C256.847 97.956 256.415 97.542 256.415 96.732V85.68H255.191V96.732C255.191 98.136 255.893 99.072 257.387 99.072C257.657 99.072 257.891 99.036 258.179 98.964ZM262.144 96.624V90.468H265.24V89.46H262.144V86.688L260.92 87.408V89.46H259.12V90.468H260.92V96.588C260.92 98.28 262 99.144 263.296 99.144C264.142 99.144 264.826 98.838 265.456 98.1L264.808 97.38C264.358 97.848 263.979 98.064 263.404 98.064C262.81 98.064 262.144 97.74 262.144 96.624ZM273.519 96.3C273.069 97.236 272.223 98.064 270.783 98.064C268.947 98.064 267.741 96.984 267.633 94.446H274.311L274.347 93.384C274.347 90.792 272.583 89.316 270.531 89.316C268.047 89.316 266.391 91.314 266.391 94.104C266.391 97.146 267.975 99.144 270.657 99.144C272.781 99.144 273.969 97.956 274.419 96.804L273.519 96.3ZM270.531 90.396C271.935 90.396 273.195 91.296 273.141 93.438H267.633C267.795 91.17 269.091 90.396 270.531 90.396ZM278.667 96.624V90.468H281.763V89.46H278.667V86.688L277.443 87.408V89.46H275.643V90.468H277.443V96.588C277.443 98.28 278.523 99.144 279.819 99.144C280.665 99.144 281.349 98.838 281.979 98.1L281.331 97.38C280.881 97.848 280.503 98.064 279.927 98.064C279.333 98.064 278.667 97.74 278.667 96.624ZM290.585 96.624V90.468H293.681V89.46H290.585V86.688L289.361 87.408V89.46H287.561V90.468H289.361V96.588C289.361 98.28 290.441 99.144 291.737 99.144C292.583 99.144 293.267 98.838 293.897 98.1L293.249 97.38C292.799 97.848 292.421 98.064 291.845 98.064C291.251 98.064 290.585 97.74 290.585 96.624ZM296.601 87.732C297.195 87.732 297.681 87.264 297.681 86.652C297.681 86.04 297.195 85.572 296.601 85.572C296.007 85.572 295.521 86.04 295.521 86.652C295.521 87.264 296.007 87.732 296.601 87.732ZM295.989 99H297.213V89.46H295.989V99ZM303.302 98.964V97.884C303.122 97.938 302.924 97.956 302.726 97.956C301.97 97.956 301.538 97.542 301.538 96.732V85.68H300.314V96.732C300.314 98.136 301.016 99.072 302.51 99.072C302.78 99.072 303.014 99.036 303.302 98.964ZM313.542 88.452C314.712 88.452 315.666 87.588 315.666 86.4C315.666 85.212 314.712 84.348 313.542 84.348C312.372 84.348 311.418 85.212 311.418 86.4C311.418 87.588 312.372 88.452 313.542 88.452ZM313.542 85.176C314.226 85.176 314.766 85.608 314.766 86.4C314.766 87.21 314.226 87.624 313.542 87.624C312.858 87.624 312.318 87.21 312.318 86.4C312.318 85.608 312.858 85.176 313.542 85.176ZM317.25 99C317.034 98.352 316.854 97.38 316.854 96.3V92.376C316.854 90.738 315.864 89.316 313.506 89.316C311.832 89.316 310.374 90.072 309.654 92.088L310.734 92.412C311.238 90.954 312.246 90.432 313.434 90.432C314.91 90.432 315.666 91.278 315.666 92.52V93.78C314.892 93.51 314.136 93.42 313.362 93.42C311.4 93.42 309.636 94.446 309.636 96.408C309.636 98.046 310.914 99.144 312.606 99.144C314.154 99.144 315.396 98.244 315.882 97.128C315.882 97.848 315.99 98.478 316.134 99H317.25ZM315.666 95.04C315.666 97.362 314.064 98.1 312.822 98.1C311.67 98.1 310.86 97.488 310.86 96.336C310.86 95.076 311.994 94.428 313.434 94.428C314.172 94.428 314.928 94.518 315.666 94.824V95.04ZM324.086 91.944C324.086 93.222 325.004 94.104 326.75 94.464L328.298 94.788C329.558 95.058 330.062 95.544 330.062 96.444C330.062 97.416 329.09 98.064 327.614 98.064C326.21 98.064 325.22 97.524 324.77 96.516L323.726 96.948C324.374 98.388 325.724 99.144 327.65 99.144C329.774 99.144 331.25 97.992 331.25 96.336C331.25 94.914 330.278 94.014 328.19 93.6L326.93 93.348C325.796 93.114 325.274 92.628 325.274 91.836C325.274 90.954 326.138 90.396 327.47 90.396C328.694 90.396 329.576 90.882 329.954 91.8L330.962 91.404C330.566 90.144 329.234 89.316 327.506 89.316C325.508 89.316 324.086 90.432 324.086 91.944ZM339.599 99H341.147L336.917 93.456L341.075 89.46H339.455L334.919 93.942V85.68H333.695V99H334.919V95.382L336.089 94.266L339.599 99ZM346.448 89.316C345.602 89.316 344.756 89.748 344.252 90.648V89.46H343.028V99H344.252V93.132C344.252 91.206 345.08 90.396 346.178 90.396C347.15 90.396 347.474 91.026 347.474 91.98V92.916L348.59 92.7V91.764C348.59 90.144 347.69 89.316 346.448 89.316ZM350.685 85.752V87.588H352.557V85.752H350.685ZM351.009 99H352.233V89.46H351.009V99ZM361.417 89.46L358.429 97.65L355.441 89.46H354.109L357.853 99H358.933L362.677 89.46H361.417ZM370.709 96.3C370.259 97.236 369.413 98.064 367.973 98.064C366.137 98.064 364.931 96.984 364.823 94.446H371.501L371.537 93.384C371.537 90.792 369.773 89.316 367.721 89.316C365.237 89.316 363.581 91.314 363.581 94.104C363.581 97.146 365.165 99.144 367.847 99.144C369.971 99.144 371.159 97.956 371.609 96.804L370.709 96.3ZM367.721 90.396C369.125 90.396 370.385 91.296 370.331 93.438H364.823C364.985 91.17 366.281 90.396 367.721 90.396ZM385.246 96.3C384.796 97.236 383.95 98.064 382.51 98.064C380.674 98.064 379.468 96.984 379.36 94.446H386.038L386.074 93.384C386.074 90.792 384.31 89.316 382.258 89.316C379.774 89.316 378.118 91.314 378.118 94.104C378.118 97.146 379.702 99.144 382.384 99.144C384.508 99.144 385.696 97.956 386.146 96.804L385.246 96.3ZM382.258 90.396C383.662 90.396 384.922 91.296 384.868 93.438H379.36C379.522 91.17 380.818 90.396 382.258 90.396ZM392.657 89.316C391.505 89.316 390.461 89.892 389.885 90.936V89.46H388.661V99H389.885V93.636C389.885 91.728 390.659 90.432 392.333 90.432C393.665 90.432 394.457 91.08 394.457 92.808V99H395.681V92.628C395.681 90.486 394.565 89.316 392.657 89.316ZM409.174 99H410.722L406.492 93.456L410.65 89.46H409.03L404.494 93.942V85.68H403.27V99H404.494V95.382L405.664 94.266L409.174 99ZM415.694 99.144C418.052 99.144 419.942 97.2 419.942 94.212C419.942 91.26 418.07 89.316 415.694 89.316C413.318 89.316 411.446 91.26 411.446 94.212C411.446 97.2 413.336 99.144 415.694 99.144ZM415.694 98.064C414.056 98.064 412.706 96.768 412.706 94.212C412.706 91.674 414.074 90.396 415.694 90.396C417.314 90.396 418.682 91.674 418.682 94.212C418.682 96.768 417.332 98.064 415.694 98.064ZM425.849 89.316C425.003 89.316 424.157 89.748 423.653 90.648V89.46H422.429V99H423.653V93.132C423.653 91.206 424.481 90.396 425.579 90.396C426.551 90.396 426.875 91.026 426.875 91.98V92.916L427.991 92.7V91.764C427.991 90.144 427.091 89.316 425.849 89.316ZM432.142 96.624V90.468H435.238V89.46H432.142V86.688L430.918 87.408V89.46H429.118V90.468H430.918V96.588C430.918 98.28 431.998 99.144 433.294 99.144C434.14 99.144 434.824 98.838 435.454 98.1L434.806 97.38C434.356 97.848 433.978 98.064 433.402 98.064C432.808 98.064 432.142 97.74 432.142 96.624ZM448.236 89.46L445.248 97.65L442.26 89.46H440.928L444.672 99H445.752L449.496 89.46H448.236ZM458.121 99C457.905 98.352 457.725 97.38 457.725 96.3V92.376C457.725 90.738 456.735 89.316 454.377 89.316C452.703 89.316 451.245 90.072 450.525 92.088L451.605 92.412C452.109 90.954 453.117 90.432 454.305 90.432C455.781 90.432 456.537 91.278 456.537 92.52V93.78C455.763 93.51 455.007 93.42 454.233 93.42C452.271 93.42 450.507 94.446 450.507 96.408C450.507 98.046 451.785 99.144 453.477 99.144C455.025 99.144 456.267 98.244 456.753 97.128C456.753 97.848 456.861 98.478 457.005 99H458.121ZM456.537 95.04C456.537 97.362 454.935 98.1 453.693 98.1C452.541 98.1 451.731 97.488 451.731 96.336C451.731 95.076 452.865 94.428 454.305 94.428C455.043 94.428 455.799 94.518 456.537 94.824V95.04ZM464.239 89.316C463.393 89.316 462.547 89.748 462.043 90.648V89.46H460.819V99H462.043V93.132C462.043 91.206 462.871 90.396 463.969 90.396C464.941 90.396 465.265 91.026 465.265 91.98V92.916L466.381 92.7V91.764C466.381 90.144 465.481 89.316 464.239 89.316ZM467.98 91.944C467.98 93.222 468.898 94.104 470.644 94.464L472.192 94.788C473.452 95.058 473.956 95.544 473.956 96.444C473.956 97.416 472.984 98.064 471.508 98.064C470.104 98.064 469.114 97.524 468.664 96.516L467.62 96.948C468.268 98.388 469.618 99.144 471.544 99.144C473.668 99.144 475.144 97.992 475.144 96.336C475.144 94.914 474.172 94.014 472.084 93.6L470.824 93.348C469.69 93.114 469.168 92.628 469.168 91.836C469.168 90.954 470.032 90.396 471.364 90.396C472.588 90.396 473.47 90.882 473.848 91.8L474.856 91.404C474.46 90.144 473.128 89.316 471.4 89.316C469.402 89.316 467.98 90.432 467.98 91.944ZM480.542 98.964V97.884C480.362 97.938 480.164 97.956 479.966 97.956C479.21 97.956 478.778 97.542 478.778 96.732V85.68H477.554V96.732C477.554 98.136 478.256 99.072 479.75 99.072C480.02 99.072 480.254 99.036 480.542 98.964ZM483.387 87.732C483.981 87.732 484.467 87.264 484.467 86.652C484.467 86.04 483.981 85.572 483.387 85.572C482.793 85.572 482.307 86.04 482.307 86.652C482.307 87.264 482.793 87.732 483.387 87.732ZM482.775 99H483.999V89.46H482.775V99ZM491.095 89.316C489.943 89.316 488.899 89.892 488.323 90.936V89.46H487.099V99H488.323V93.636C488.323 91.728 489.097 90.432 490.771 90.432C492.103 90.432 492.895 91.08 492.895 92.808V99H494.119V92.628C494.119 90.486 493.003 89.316 491.095 89.316ZM505.634 90.468V89.46H502.898V90.126C502.322 89.64 501.566 89.316 500.576 89.316C498.056 89.316 496.778 91.098 496.778 92.808C496.778 93.978 497.48 95.31 498.74 95.814C497.57 96.12 496.868 96.858 496.868 97.704C496.868 98.694 497.66 99.324 498.992 99.324H503.096C503.96 99.324 504.248 99.72 504.248 100.26C504.248 101.412 502.592 102.006 500.612 102.006C499.01 102.006 497.606 101.7 496.94 100.134L495.95 100.584C496.526 102.258 498.2 103.032 500.612 103.032C503.294 103.032 505.472 102.042 505.472 100.152C505.472 98.964 504.68 98.208 503.132 98.208H499.262C498.47 98.208 498.092 97.866 498.092 97.38C498.092 96.75 498.866 96.336 499.946 96.336H500.36C503.042 96.336 504.302 94.554 504.302 92.808C504.302 92.106 504.05 91.386 503.582 90.81V90.468H505.634ZM500.558 95.328C498.848 95.328 497.984 94.14 497.984 92.808C497.984 91.494 498.848 90.36 500.558 90.36C502.25 90.36 503.096 91.476 503.096 92.808C503.096 94.158 502.25 95.328 500.558 95.328ZM507.294 96.984V99H509.238V96.984H507.294Z" fill="#2A2859"/>
<path fill-rule="evenodd" clip-rule="evenodd" d="M584.9 93L577.75 85.85L578.85 84.75L586 91.9L593.15 84.75L594.25 85.85L587.1 93L594.25 100.15L593.15 101.25L586 94.1L578.85 101.25L577.75 100.15L584.9 93Z" fill="#2A2859"/>
<path d="M42 130V55H38V130H42Z" fill="#2A2859" mask="url(#path-1-inside-1_3057_108022)"/>
<path d="M76 35L76 74" stroke="#2A2859"/>
<circle cx="76" cy="74" r="2" fill="#2A2859"/>
<path d="M111 35L111 74" stroke="#2A2859"/>
<circle cx="111" cy="74" r="2" fill="#2A2859"/>
<path d="M587 35L587 74" stroke="#2A2859"/>
<circle cx="587" cy="74" r="2" fill="#2A2859"/>
<circle cx="76.5" cy="27.5" r="7.5" fill="#2A2859"/>
<path d="M77.2036 30.0563V24.2873H76.3036L74.6926 25.3493V26.4203L76.1596 25.4843V30.0563H74.6206V30.9473H78.6616V30.0563H77.2036Z" fill="white"/>
<circle cx="111.5" cy="27.5" r="7.5" fill="#2A2859"/>
<path d="M110.701 29.9933L112.465 28.1843C113.266 27.3563 113.617 26.8433 113.617 26.0333C113.617 25.0883 112.87 24.1973 111.475 24.1973C110.413 24.1973 109.477 24.7463 109.162 26.0423L110.134 26.2493C110.332 25.5113 110.764 25.1333 111.457 25.1333C112.114 25.1333 112.51 25.5563 112.51 26.1053C112.51 26.6543 112.249 27.0053 111.61 27.6803L109.279 30.1193V30.9473H113.869V29.9933H110.701Z" fill="white"/>
<circle cx="586.5" cy="27.5" r="7.5" fill="#2A2859"/>
<path d="M586.817 26.6093C586.223 26.6093 585.692 26.8163 585.314 27.1853L585.458 25.2323H588.392V24.2873H584.603L584.396 27.7793L585.17 28.0763C585.602 27.6443 585.971 27.4643 586.538 27.4643C587.249 27.4643 587.816 27.9323 587.816 28.7603C587.816 29.5253 587.24 30.1013 586.385 30.1013C585.71 30.1013 585.215 29.8583 584.738 29.2103L583.973 29.7953C584.621 30.7043 585.458 31.0283 586.358 31.0283C587.933 31.0283 588.905 30.0203 588.905 28.6973C588.905 27.4733 588.05 26.6093 586.817 26.6093Z" fill="white"/>
</svg>
