<svg width="1116" height="342" viewBox="0 0 1116 342" fill="none" xmlns="http://www.w3.org/2000/svg">
<g clip-path="url(#clip0_6732_9426)">
<rect width="1116" height="342" fill="white"/>
<mask id="path-1-inside-1_6732_9426" fill="white">
<path d="M0 55H552V342H0V55Z"/>
</mask>
<path d="M0 55H552V342H0V55Z" fill="white"/>
<path d="M552 342V343H553V342H552ZM0 342H-1V343H0V342ZM551 55V342H553V55H551ZM552 341H0V343H552V341ZM1 342V55H-1V342H1Z" fill="#E6E6E6" mask="url(#path-1-inside-1_6732_9426)"/>
<mask id="path-3-inside-2_6732_9426" fill="white">
<path d="M563 55H1116V342H563V55Z"/>
</mask>
<path d="M563 55H1116V342H563V55Z" fill="white"/>
<path d="M1116 342V343H1117V342H1116ZM563 342H562V343H563V342ZM1115 55V342H1117V55H1115ZM1116 341H563V343H1116V341ZM564 342V55H562V342H564Z" fill="#E6E6E6" mask="url(#path-3-inside-2_6732_9426)"/>
<rect x="0.5" y="0.5" width="550.12" height="53.97" stroke="#E6E6E6"/>
<rect x="563.575" y="0.5" width="551.316" height="53.97" stroke="#E6E6E6"/>
<path d="M0 43.9761H551.12V54.9701H0V43.9761Z" fill="#C7F6C9"/>
<path opacity="0.6" d="M563 43.9761H1115.32V54.9701H563V43.9761Z" fill="#FF8274"/>
<path d="M23.1211 28.144C19.8731 28.144 17.5211 25.776 17.5211 22.016C17.5211 18.368 20.0011 16.016 22.9931 16.016C25.0571 16.016 26.5611 16.96 27.3131 18.64L26.0491 19.296C25.4731 18.048 24.3211 17.376 22.9771 17.376C20.8331 17.376 19.0091 18.896 19.0091 22.016C19.0091 25.136 20.7371 26.848 23.2011 26.848C24.4011 26.848 25.2651 26.608 26.0651 26.144V22.896H21.8891V21.6H27.3451V26.8C26.2891 27.68 24.7051 28.144 23.1211 28.144ZM30.4281 18.032C29.8201 18.032 29.3401 17.568 29.3401 16.944C29.3401 16.336 29.8201 15.872 30.4281 15.872C31.0201 15.872 31.5001 16.336 31.5001 16.944C31.5001 17.568 31.0201 18.032 30.4281 18.032ZM29.1001 31.488C28.7801 31.488 28.4441 31.44 28.1401 31.344L28.2521 30.208C28.4761 30.288 28.6681 30.304 28.8281 30.304C29.5321 30.304 29.7401 29.84 29.7401 29.12V19.52H31.1161V29.104C31.1161 30.64 30.4601 31.488 29.1001 31.488ZM39.2178 20.096C40.2258 20.832 40.8658 22.112 40.8658 23.728C40.8658 26.416 39.1218 28.144 36.9938 28.144C36.4178 28.144 35.8578 28.016 35.3618 27.776L34.8498 28.8H34.0178L34.7218 27.392C33.7458 26.64 33.1058 25.36 33.1058 23.728C33.1058 21.088 34.8338 19.36 36.9938 19.36C37.5698 19.36 38.1138 19.488 38.5938 19.712L39.1058 18.704H39.9218L39.2178 20.096ZM34.5298 23.728C34.5298 24.864 34.8338 25.696 35.3138 26.224L38.0498 20.8C37.7298 20.64 37.3618 20.56 36.9938 20.56C35.6498 20.56 34.5298 21.568 34.5298 23.728ZM36.9938 26.944C38.3378 26.944 39.4418 25.888 39.4418 23.728C39.4418 22.592 39.1378 21.776 38.6418 21.248L35.9058 26.688C36.2418 26.864 36.6098 26.944 36.9938 26.944ZM46.2012 19.36C47.3532 19.36 48.1532 20.128 48.1532 21.584V22.528L46.9692 22.752V21.904C46.9692 21.088 46.6972 20.544 45.8492 20.544C44.8892 20.544 44.1852 21.216 44.1852 22.896V28H42.8092V19.52H44.1852V20.608C44.6492 19.744 45.4492 19.36 46.2012 19.36ZM53.5241 21.776C53.5241 20.4 54.8201 19.36 56.6921 19.36C58.2601 19.36 59.4121 20.048 59.8601 21.168L58.8201 21.696C58.4681 20.944 57.7001 20.528 56.6601 20.528C55.5721 20.528 54.8521 20.96 54.8521 21.68C54.8521 22.304 55.2521 22.672 56.1641 22.864L57.3961 23.104C59.2361 23.472 60.1161 24.288 60.1161 25.568C60.1161 27.088 58.7721 28.128 56.7881 28.128C55.0601 28.128 53.8281 27.456 53.2201 26.208L54.2761 25.648C54.7081 26.512 55.5561 26.976 56.7561 26.976C57.9721 26.976 58.7881 26.448 58.7881 25.648C58.7881 24.944 58.3721 24.56 57.3961 24.352L55.9401 24.064C54.3721 23.744 53.5241 22.944 53.5241 21.776ZM64.9504 27.968C64.6624 28.032 64.4064 28.08 64.1184 28.08C62.6784 28.08 61.9904 27.2 61.9904 25.824V16.16H63.3664V25.76C63.3664 26.496 63.7664 26.848 64.4384 26.848C64.5984 26.848 64.7744 26.832 64.9504 26.784V27.968ZM66.4719 16.064H68.3599V17.92H66.4719V16.064ZM66.7279 28V19.52H68.1039V28H66.7279ZM75.9649 28L73.0529 23.92L72.0449 24.912V28H70.6689V16.16H72.0449V23.328L75.8369 19.52H77.5809L73.9809 23.024L77.6449 28H75.9649Z" fill="#2A2859"/>
<path d="M586.002 28V16.16H587.426V28H586.002ZM595.269 28L592.357 23.92L591.349 24.912V28H589.973V16.16H591.349V23.328L595.141 19.52H596.885L593.285 23.024L596.949 28H595.269ZM603.85 28L600.938 23.92L599.93 24.912V28H598.554V16.16H599.93V23.328L603.722 19.52H605.466L601.866 23.024L605.53 28H603.85ZM612.287 25.488L613.263 26.032C612.815 27.088 611.743 28.144 609.839 28.144C607.391 28.144 605.935 26.32 605.935 23.664C605.935 21.136 607.487 19.36 609.711 19.36C611.599 19.36 613.215 20.688 613.215 23.04L613.183 24.016H607.311C607.407 26.096 608.415 26.976 609.951 26.976C611.119 26.976 611.871 26.304 612.287 25.488ZM609.711 20.512C608.511 20.512 607.471 21.136 607.311 22.944H611.871C611.887 21.232 610.847 20.512 609.711 20.512ZM618.725 21.776C618.725 20.4 620.021 19.36 621.893 19.36C623.461 19.36 624.613 20.048 625.061 21.168L624.021 21.696C623.669 20.944 622.901 20.528 621.861 20.528C620.773 20.528 620.053 20.96 620.053 21.68C620.053 22.304 620.453 22.672 621.365 22.864L622.597 23.104C624.437 23.472 625.317 24.288 625.317 25.568C625.317 27.088 623.973 28.128 621.989 28.128C620.261 28.128 619.029 27.456 618.421 26.208L619.477 25.648C619.909 26.512 620.757 26.976 621.957 26.976C623.173 26.976 623.989 26.448 623.989 25.648C623.989 24.944 623.573 24.56 622.597 24.352L621.141 24.064C619.573 23.744 618.725 22.944 618.725 21.776ZM630.151 27.968C629.863 28.032 629.607 28.08 629.319 28.08C627.879 28.08 627.191 27.2 627.191 25.824V16.16H628.567V25.76C628.567 26.496 628.967 26.848 629.639 26.848C629.799 26.848 629.975 26.832 630.151 26.784V27.968ZM632.617 18.032C632.009 18.032 631.529 17.568 631.529 16.944C631.529 16.336 632.009 15.872 632.617 15.872C633.209 15.872 633.689 16.336 633.689 16.944C633.689 17.568 633.209 18.032 632.617 18.032ZM631.929 28V19.52H633.305V28H631.929ZM641.166 28L638.254 23.92L637.246 24.912V28H635.87V16.16H637.246V23.328L641.038 19.52H642.782L639.182 23.024L642.846 28H641.166Z" fill="#2A2859"/>
<rect x="729" y="150" width="38" height="24" rx="12" fill="#2A2859" stroke="#2A2859" stroke-width="2"/>
<g clip-path="url(#clip1_6732_9426)">
<circle cx="754.564" cy="162" r="11.25" fill="white"/>
<path fill-rule="evenodd" clip-rule="evenodd" d="M760.343 159.161L753.062 166.441L748.782 162.161L749.843 161.1L753.062 164.32L759.282 158.1L760.343 159.161Z" fill="#2A2859"/>
</g>
<path d="M781.152 156.16C783.632 156.16 785.12 157.68 785.12 159.808C785.12 161.936 783.552 163.392 781.072 163.392H778.528V168H777.408V156.16H781.152ZM781.2 162.4C783.024 162.4 783.968 161.472 783.968 159.808C783.968 158.144 783.024 157.184 781.2 157.184H778.528V162.4H781.2ZM789.81 159.392C790.914 159.392 791.714 160.128 791.714 161.568V162.4L790.722 162.592V161.76C790.722 160.912 790.434 160.352 789.57 160.352C788.594 160.352 787.858 161.072 787.858 162.784V168H786.77V159.52H787.858V160.576C788.306 159.776 789.058 159.392 789.81 159.392ZM794.208 157.984C793.68 157.984 793.248 157.568 793.248 157.024C793.248 156.48 793.68 156.064 794.208 156.064C794.736 156.064 795.168 156.48 795.168 157.024C795.168 157.568 794.736 157.984 794.208 157.984ZM793.664 168V159.52H794.752V168H793.664ZM802.715 159.52H803.835L800.507 168H799.547L796.219 159.52H797.403L800.059 166.8L802.715 159.52ZM811.302 168H810.31C810.182 167.536 810.086 166.976 810.086 166.336C809.654 167.328 808.55 168.128 807.174 168.128C805.67 168.128 804.534 167.152 804.534 165.696C804.534 163.952 806.102 163.04 807.846 163.04C808.534 163.04 809.206 163.12 809.894 163.36V162.24C809.894 161.136 809.222 160.384 807.91 160.384C806.854 160.384 805.958 160.848 805.51 162.144L804.55 161.856C805.19 160.064 806.486 159.392 807.974 159.392C810.07 159.392 810.95 160.656 810.95 162.112V165.6C810.95 166.56 811.11 167.424 811.302 168ZM809.894 164.48V164.288C809.238 164.016 808.566 163.936 807.91 163.936C806.63 163.936 805.622 164.512 805.622 165.632C805.622 166.656 806.342 167.2 807.366 167.2C808.47 167.2 809.894 166.544 809.894 164.48ZM815.041 165.888C815.041 166.88 815.633 167.168 816.161 167.168C816.673 167.168 817.009 166.976 817.409 166.56L817.985 167.2C817.425 167.856 816.817 168.128 816.065 168.128C814.913 168.128 813.953 167.36 813.953 165.856V160.416H812.353V159.52H813.953V157.696L815.041 157.056V159.52H817.793V160.416H815.041V165.888ZM827.41 159.408C829.57 159.408 831.026 161.216 831.026 163.68C831.026 166.288 829.554 168.128 827.282 168.128C826.098 168.128 825.138 167.536 824.626 166.464V171.36H823.538V159.52H824.626V161.104C825.186 160.016 826.306 159.408 827.41 159.408ZM827.282 167.168C828.866 167.168 829.906 165.952 829.906 163.728C829.906 161.584 828.866 160.368 827.298 160.368C825.602 160.368 824.626 161.632 824.626 163.712C824.626 165.92 825.586 167.168 827.282 167.168ZM836.082 159.392C837.186 159.392 837.986 160.128 837.986 161.568V162.4L836.994 162.592V161.76C836.994 160.912 836.706 160.352 835.842 160.352C834.866 160.352 834.13 161.072 834.13 162.784V168H833.042V159.52H834.13V160.576C834.578 159.776 835.33 159.392 836.082 159.392ZM842.683 168.128C840.587 168.128 838.907 166.4 838.907 163.744C838.907 161.12 840.571 159.392 842.683 159.392C844.795 159.392 846.459 161.12 846.459 163.744C846.459 166.4 844.779 168.128 842.683 168.128ZM842.683 167.168C844.139 167.168 845.339 166.016 845.339 163.744C845.339 161.488 844.123 160.352 842.683 160.352C841.243 160.352 840.027 161.488 840.027 163.744C840.027 166.016 841.227 167.168 842.683 167.168ZM848.765 168V160.416H847.165V159.52H848.765V158.4C848.765 156.88 849.725 156.032 851.037 156.032C851.597 156.032 852.077 156.224 852.365 156.48L851.965 157.28C851.677 157.088 851.405 156.96 851.005 156.96C850.445 156.96 849.853 157.296 849.853 158.336V159.52H852.221V160.416H849.853V168H848.765ZM853.076 156.224H854.74V157.856H853.076V156.224ZM853.364 168V159.52H854.452V168H853.364ZM859.663 167.968C859.407 168.032 859.199 168.064 858.959 168.064C857.631 168.064 857.007 167.232 857.007 165.984V156.16H858.095V165.984C858.095 166.704 858.479 167.072 859.151 167.072C859.327 167.072 859.503 167.056 859.663 167.008V167.968Z" fill="#2A2859"/>
<rect x="197" y="179" width="38" height="24" rx="12" fill="#2A2859" stroke="#2A2859" stroke-width="2"/>
<g clip-path="url(#clip2_6732_9426)">
<circle cx="222.564" cy="191" r="11.25" fill="white"/>
<path fill-rule="evenodd" clip-rule="evenodd" d="M228.343 188.161L221.062 195.441L216.782 191.161L217.843 190.1L221.062 193.32L227.282 187.1L228.343 188.161Z" fill="#2A2859"/>
</g>
<path d="M249.152 185.16C251.632 185.16 253.12 186.68 253.12 188.808C253.12 190.936 251.552 192.392 249.072 192.392H246.528V197H245.408V185.16H249.152ZM249.2 191.4C251.024 191.4 251.968 190.472 251.968 188.808C251.968 187.144 251.024 186.184 249.2 186.184H246.528V191.4H249.2ZM257.81 188.392C258.914 188.392 259.714 189.128 259.714 190.568V191.4L258.722 191.592V190.76C258.722 189.912 258.434 189.352 257.57 189.352C256.594 189.352 255.858 190.072 255.858 191.784V197H254.77V188.52H255.858V189.576C256.306 188.776 257.058 188.392 257.81 188.392ZM262.208 186.984C261.68 186.984 261.248 186.568 261.248 186.024C261.248 185.48 261.68 185.064 262.208 185.064C262.736 185.064 263.168 185.48 263.168 186.024C263.168 186.568 262.736 186.984 262.208 186.984ZM261.664 197V188.52H262.752V197H261.664ZM270.715 188.52H271.835L268.507 197H267.547L264.219 188.52H265.403L268.059 195.8L270.715 188.52ZM279.302 197H278.31C278.182 196.536 278.086 195.976 278.086 195.336C277.654 196.328 276.55 197.128 275.174 197.128C273.67 197.128 272.534 196.152 272.534 194.696C272.534 192.952 274.102 192.04 275.846 192.04C276.534 192.04 277.206 192.12 277.894 192.36V191.24C277.894 190.136 277.222 189.384 275.91 189.384C274.854 189.384 273.958 189.848 273.51 191.144L272.55 190.856C273.19 189.064 274.486 188.392 275.974 188.392C278.07 188.392 278.95 189.656 278.95 191.112V194.6C278.95 195.56 279.11 196.424 279.302 197ZM277.894 193.48V193.288C277.238 193.016 276.566 192.936 275.91 192.936C274.63 192.936 273.622 193.512 273.622 194.632C273.622 195.656 274.342 196.2 275.366 196.2C276.47 196.2 277.894 195.544 277.894 193.48ZM283.041 194.888C283.041 195.88 283.633 196.168 284.161 196.168C284.673 196.168 285.009 195.976 285.409 195.56L285.985 196.2C285.425 196.856 284.817 197.128 284.065 197.128C282.913 197.128 281.953 196.36 281.953 194.856V189.416H280.353V188.52H281.953V186.696L283.041 186.056V188.52H285.793V189.416H283.041V194.888ZM295.41 188.408C297.57 188.408 299.026 190.216 299.026 192.68C299.026 195.288 297.554 197.128 295.282 197.128C294.098 197.128 293.138 196.536 292.626 195.464V200.36H291.538V188.52H292.626V190.104C293.186 189.016 294.306 188.408 295.41 188.408ZM295.282 196.168C296.866 196.168 297.906 194.952 297.906 192.728C297.906 190.584 296.866 189.368 295.298 189.368C293.602 189.368 292.626 190.632 292.626 192.712C292.626 194.92 293.586 196.168 295.282 196.168ZM304.082 188.392C305.186 188.392 305.986 189.128 305.986 190.568V191.4L304.994 191.592V190.76C304.994 189.912 304.706 189.352 303.842 189.352C302.866 189.352 302.13 190.072 302.13 191.784V197H301.042V188.52H302.13V189.576C302.578 188.776 303.33 188.392 304.082 188.392ZM310.683 197.128C308.587 197.128 306.907 195.4 306.907 192.744C306.907 190.12 308.571 188.392 310.683 188.392C312.795 188.392 314.459 190.12 314.459 192.744C314.459 195.4 312.779 197.128 310.683 197.128ZM310.683 196.168C312.139 196.168 313.339 195.016 313.339 192.744C313.339 190.488 312.123 189.352 310.683 189.352C309.243 189.352 308.027 190.488 308.027 192.744C308.027 195.016 309.227 196.168 310.683 196.168ZM316.765 197V189.416H315.165V188.52H316.765V187.4C316.765 185.88 317.725 185.032 319.037 185.032C319.597 185.032 320.077 185.224 320.365 185.48L319.965 186.28C319.677 186.088 319.405 185.96 319.005 185.96C318.445 185.96 317.853 186.296 317.853 187.336V188.52H320.221V189.416H317.853V197H316.765ZM321.076 185.224H322.74V186.856H321.076V185.224ZM321.364 197V188.52H322.452V197H321.364ZM327.663 196.968C327.407 197.032 327.199 197.064 326.959 197.064C325.631 197.064 325.007 196.232 325.007 194.984V185.16H326.095V194.984C326.095 195.704 326.479 196.072 327.151 196.072C327.327 196.072 327.503 196.056 327.663 196.008V196.968Z" fill="#2A2859"/>
<rect x="729" y="195" width="38" height="24" rx="12" stroke="#2A2859" stroke-width="2"/>
<g clip-path="url(#clip3_6732_9426)">
<circle cx="740.064" cy="207" r="10.25" stroke="#2A2859" stroke-width="2"/>
</g>
<path d="M777.184 204.296C777.184 202.312 778.992 201.032 781.088 201.032C783.024 201.032 784.336 201.864 784.928 203.352L783.872 203.784C783.392 202.648 782.32 202.024 781.088 202.024C779.456 202.024 778.304 202.856 778.304 204.168C778.304 205.272 778.96 205.944 780.352 206.216L782.208 206.568C784.032 206.92 785.376 207.896 785.376 209.672C785.376 211.496 783.84 213.128 781.248 213.128C779.2 213.128 777.664 212.424 776.832 210.664L777.856 210.248C778.656 211.816 779.984 212.136 781.28 212.136C783.216 212.136 784.256 211.016 784.256 209.736C784.256 208.312 783.296 207.896 781.856 207.624L780.16 207.304C778.512 207 777.184 206.088 777.184 204.296ZM792.831 213L789.711 208.792L788.671 209.784V213H787.583V201.16H788.671V208.504L792.703 204.52H794.143L790.447 208.072L794.207 213H792.831ZM796.159 202.984C795.631 202.984 795.199 202.568 795.199 202.024C795.199 201.48 795.631 201.064 796.159 201.064C796.687 201.064 797.119 201.48 797.119 202.024C797.119 202.568 796.687 202.984 796.159 202.984ZM794.879 216.472C794.591 216.472 794.319 216.424 794.047 216.344L794.143 215.384C794.367 215.464 794.575 215.48 794.719 215.48C795.471 215.48 795.615 214.968 795.615 214.232V204.52H796.703V214.296C796.703 215.736 796.079 216.472 794.879 216.472ZM804.188 204.52H805.276V213H804.188V211.704C803.676 212.616 802.78 213.128 801.74 213.128C800.076 213.128 799.068 212.056 799.068 210.216V204.52H800.156V210.12C800.156 211.512 800.86 212.152 802.044 212.152C803.548 212.152 804.188 210.952 804.188 209.288V204.52ZM810.42 212.968C810.164 213.032 809.956 213.064 809.716 213.064C808.388 213.064 807.764 212.232 807.764 210.984V201.16H808.852V210.984C808.852 211.704 809.236 212.072 809.908 212.072C810.084 212.072 810.26 212.056 810.42 212.008V212.968ZM819.97 204.408C822.13 204.408 823.586 206.216 823.586 208.68C823.586 211.288 822.114 213.128 819.842 213.128C818.658 213.128 817.698 212.536 817.186 211.464V216.36H816.098V204.52H817.186V206.104C817.746 205.016 818.866 204.408 819.97 204.408ZM819.842 212.168C821.426 212.168 822.466 210.952 822.466 208.728C822.466 206.584 821.426 205.368 819.858 205.368C818.162 205.368 817.186 206.632 817.186 208.712C817.186 210.92 818.146 212.168 819.842 212.168ZM828.641 204.392C829.745 204.392 830.545 205.128 830.545 206.568V207.4L829.553 207.592V206.76C829.553 205.912 829.265 205.352 828.401 205.352C827.425 205.352 826.689 206.072 826.689 207.784V213H825.601V204.52H826.689V205.576C827.137 204.776 827.889 204.392 828.641 204.392ZM835.242 213.128C833.146 213.128 831.466 211.4 831.466 208.744C831.466 206.12 833.13 204.392 835.242 204.392C837.354 204.392 839.018 206.12 839.018 208.744C839.018 211.4 837.338 213.128 835.242 213.128ZM835.242 212.168C836.698 212.168 837.898 211.016 837.898 208.744C837.898 206.488 836.682 205.352 835.242 205.352C833.802 205.352 832.586 206.488 832.586 208.744C832.586 211.016 833.786 212.168 835.242 212.168ZM841.325 213V205.416H839.725V204.52H841.325V203.4C841.325 201.88 842.285 201.032 843.597 201.032C844.157 201.032 844.637 201.224 844.925 201.48L844.525 202.28C844.237 202.088 843.965 201.96 843.565 201.96C843.005 201.96 842.413 202.296 842.413 203.336V204.52H844.781V205.416H842.413V213H841.325ZM845.635 201.224H847.299V202.856H845.635V201.224ZM845.923 213V204.52H847.011V213H845.923ZM852.223 212.968C851.967 213.032 851.759 213.064 851.519 213.064C850.191 213.064 849.567 212.232 849.567 210.984V201.16H850.655V210.984C850.655 211.704 851.039 212.072 851.711 212.072C851.887 212.072 852.063 212.056 852.223 212.008V212.968ZM857.911 204.408C860.071 204.408 861.527 206.216 861.527 208.68C861.527 211.288 860.055 213.128 857.783 213.128C856.599 213.128 855.639 212.536 855.127 211.464V213H854.039V201.16H855.127V206.104C855.687 205.016 856.807 204.408 857.911 204.408ZM857.783 212.168C859.367 212.168 860.407 210.952 860.407 208.728C860.407 206.584 859.367 205.368 857.799 205.368C856.103 205.368 855.127 206.632 855.127 208.712C855.127 210.92 856.087 212.168 857.783 212.168ZM864.086 202.984C863.558 202.984 863.126 202.568 863.126 202.024C863.126 201.48 863.558 201.064 864.086 201.064C864.614 201.064 865.046 201.48 865.046 202.024C865.046 202.568 864.614 202.984 864.086 202.984ZM863.542 213V204.52H864.63V213H863.542ZM869.841 212.968C869.585 213.032 869.377 213.064 869.137 213.064C867.809 213.064 867.185 212.232 867.185 210.984V201.16H868.273V210.984C868.273 211.704 868.657 212.072 869.329 212.072C869.505 212.072 869.681 212.056 869.841 212.008V212.968ZM877.232 201.16H878.32V213H877.232V211.416C876.672 212.504 875.552 213.112 874.448 213.112C872.288 213.112 870.832 211.304 870.832 208.84C870.832 206.232 872.304 204.392 874.576 204.392C875.76 204.392 876.72 204.984 877.232 206.056V201.16ZM874.56 212.152C876.256 212.152 877.232 210.888 877.232 208.808C877.232 206.6 876.272 205.352 874.576 205.352C872.992 205.352 871.952 206.568 871.952 208.792C871.952 210.936 872.992 212.152 874.56 212.152ZM886.593 210.6L887.393 211.048C886.993 212.072 885.937 213.128 884.049 213.128C881.665 213.128 880.257 211.352 880.257 208.648C880.257 206.168 881.729 204.392 883.937 204.392C885.761 204.392 887.329 205.704 887.329 208.008L887.297 208.952H881.361C881.457 211.208 882.529 212.168 884.161 212.168C885.441 212.168 886.193 211.432 886.593 210.6ZM883.937 205.352C882.657 205.352 881.505 206.04 881.361 208.056H886.257C886.305 206.152 885.185 205.352 883.937 205.352Z" fill="#2A2859"/>
<rect x="197" y="224" width="38" height="24" rx="12" stroke="#2A2859" stroke-width="2"/>
<g clip-path="url(#clip4_6732_9426)">
<circle cx="208.064" cy="236" r="10.25" stroke="#2A2859" stroke-width="2"/>
</g>
<path d="M245.184 233.296C245.184 231.312 246.992 230.032 249.088 230.032C251.024 230.032 252.336 230.864 252.928 232.352L251.872 232.784C251.392 231.648 250.32 231.024 249.088 231.024C247.456 231.024 246.304 231.856 246.304 233.168C246.304 234.272 246.96 234.944 248.352 235.216L250.208 235.568C252.032 235.92 253.376 236.896 253.376 238.672C253.376 240.496 251.84 242.128 249.248 242.128C247.2 242.128 245.664 241.424 244.832 239.664L245.856 239.248C246.656 240.816 247.984 241.136 249.28 241.136C251.216 241.136 252.256 240.016 252.256 238.736C252.256 237.312 251.296 236.896 249.856 236.624L248.16 236.304C246.512 236 245.184 235.088 245.184 233.296ZM260.831 242L257.711 237.792L256.671 238.784V242H255.583V230.16H256.671V237.504L260.703 233.52H262.143L258.447 237.072L262.207 242H260.831ZM264.159 231.984C263.631 231.984 263.199 231.568 263.199 231.024C263.199 230.48 263.631 230.064 264.159 230.064C264.687 230.064 265.119 230.48 265.119 231.024C265.119 231.568 264.687 231.984 264.159 231.984ZM262.879 245.472C262.591 245.472 262.319 245.424 262.047 245.344L262.143 244.384C262.367 244.464 262.575 244.48 262.719 244.48C263.471 244.48 263.615 243.968 263.615 243.232V233.52H264.703V243.296C264.703 244.736 264.079 245.472 262.879 245.472ZM272.188 233.52H273.276V242H272.188V240.704C271.676 241.616 270.78 242.128 269.74 242.128C268.076 242.128 267.068 241.056 267.068 239.216V233.52H268.156V239.12C268.156 240.512 268.86 241.152 270.044 241.152C271.548 241.152 272.188 239.952 272.188 238.288V233.52ZM278.42 241.968C278.164 242.032 277.956 242.064 277.716 242.064C276.388 242.064 275.764 241.232 275.764 239.984V230.16H276.852V239.984C276.852 240.704 277.236 241.072 277.908 241.072C278.084 241.072 278.26 241.056 278.42 241.008V241.968ZM287.97 233.408C290.13 233.408 291.586 235.216 291.586 237.68C291.586 240.288 290.114 242.128 287.842 242.128C286.658 242.128 285.698 241.536 285.186 240.464V245.36H284.098V233.52H285.186V235.104C285.746 234.016 286.866 233.408 287.97 233.408ZM287.842 241.168C289.426 241.168 290.466 239.952 290.466 237.728C290.466 235.584 289.426 234.368 287.858 234.368C286.162 234.368 285.186 235.632 285.186 237.712C285.186 239.92 286.146 241.168 287.842 241.168ZM296.641 233.392C297.745 233.392 298.545 234.128 298.545 235.568V236.4L297.553 236.592V235.76C297.553 234.912 297.265 234.352 296.401 234.352C295.425 234.352 294.689 235.072 294.689 236.784V242H293.601V233.52H294.689V234.576C295.137 233.776 295.889 233.392 296.641 233.392ZM303.242 242.128C301.146 242.128 299.466 240.4 299.466 237.744C299.466 235.12 301.13 233.392 303.242 233.392C305.354 233.392 307.018 235.12 307.018 237.744C307.018 240.4 305.338 242.128 303.242 242.128ZM303.242 241.168C304.698 241.168 305.898 240.016 305.898 237.744C305.898 235.488 304.682 234.352 303.242 234.352C301.802 234.352 300.586 235.488 300.586 237.744C300.586 240.016 301.786 241.168 303.242 241.168ZM309.325 242V234.416H307.725V233.52H309.325V232.4C309.325 230.88 310.285 230.032 311.597 230.032C312.157 230.032 312.637 230.224 312.925 230.48L312.525 231.28C312.237 231.088 311.965 230.96 311.565 230.96C311.005 230.96 310.413 231.296 310.413 232.336V233.52H312.781V234.416H310.413V242H309.325ZM313.635 230.224H315.299V231.856H313.635V230.224ZM313.923 242V233.52H315.011V242H313.923ZM320.223 241.968C319.967 242.032 319.759 242.064 319.519 242.064C318.191 242.064 317.567 241.232 317.567 239.984V230.16H318.655V239.984C318.655 240.704 319.039 241.072 319.711 241.072C319.887 241.072 320.063 241.056 320.223 241.008V241.968ZM325.911 233.408C328.071 233.408 329.527 235.216 329.527 237.68C329.527 240.288 328.055 242.128 325.783 242.128C324.599 242.128 323.639 241.536 323.127 240.464V242H322.039V230.16H323.127V235.104C323.687 234.016 324.807 233.408 325.911 233.408ZM325.783 241.168C327.367 241.168 328.407 239.952 328.407 237.728C328.407 235.584 327.367 234.368 325.799 234.368C324.103 234.368 323.127 235.632 323.127 237.712C323.127 239.92 324.087 241.168 325.783 241.168ZM332.086 231.984C331.558 231.984 331.126 231.568 331.126 231.024C331.126 230.48 331.558 230.064 332.086 230.064C332.614 230.064 333.046 230.48 333.046 231.024C333.046 231.568 332.614 231.984 332.086 231.984ZM331.542 242V233.52H332.63V242H331.542ZM337.841 241.968C337.585 242.032 337.377 242.064 337.137 242.064C335.809 242.064 335.185 241.232 335.185 239.984V230.16H336.273V239.984C336.273 240.704 336.657 241.072 337.329 241.072C337.505 241.072 337.681 241.056 337.841 241.008V241.968ZM345.232 230.16H346.32V242H345.232V240.416C344.672 241.504 343.552 242.112 342.448 242.112C340.288 242.112 338.832 240.304 338.832 237.84C338.832 235.232 340.304 233.392 342.576 233.392C343.76 233.392 344.72 233.984 345.232 235.056V230.16ZM342.56 241.152C344.256 241.152 345.232 239.888 345.232 237.808C345.232 235.6 344.272 234.352 342.576 234.352C340.992 234.352 339.952 235.568 339.952 237.792C339.952 239.936 340.992 241.152 342.56 241.152ZM354.593 239.6L355.393 240.048C354.993 241.072 353.937 242.128 352.049 242.128C349.665 242.128 348.257 240.352 348.257 237.648C348.257 235.168 349.729 233.392 351.937 233.392C353.761 233.392 355.329 234.704 355.329 237.008L355.297 237.952H349.361C349.457 240.208 350.529 241.168 352.161 241.168C353.441 241.168 354.193 240.432 354.593 239.6ZM351.937 234.352C350.657 234.352 349.505 235.04 349.361 237.056H354.257C354.305 235.152 353.185 234.352 351.937 234.352Z" fill="#2A2859"/>
<path d="M734.138 106.68C737.144 106.68 738.998 108.444 738.998 111.072C738.998 113.7 737.054 115.464 734.03 115.464H731.672V120H729.566V106.68H734.138ZM734.21 113.628C735.866 113.628 736.82 112.746 736.82 111.144C736.82 109.47 735.866 108.588 734.192 108.588H731.672V113.628H734.21ZM745.146 110.244C746.532 110.244 747.432 111.162 747.432 112.8V114.06L745.812 114.348V113.376C745.812 112.512 745.506 111.918 744.57 111.918C743.544 111.918 742.788 112.602 742.788 114.42V120H740.772V110.46H742.788V111.738C743.328 110.676 744.318 110.244 745.146 110.244ZM752.933 120.18C750.449 120.18 748.415 118.236 748.415 115.176C748.415 112.188 750.431 110.244 752.933 110.244C755.435 110.244 757.451 112.188 757.451 115.176C757.451 118.236 755.417 120.18 752.933 120.18ZM752.933 118.47C754.283 118.47 755.381 117.426 755.381 115.176C755.381 112.908 754.265 111.954 752.933 111.954C751.601 111.954 750.485 112.908 750.485 115.176C750.485 117.426 751.601 118.47 752.933 118.47ZM759.987 120V112.026H758.313V110.46H759.987V109.722C759.987 107.616 761.337 106.41 763.209 106.41C763.911 106.41 764.559 106.644 764.955 106.932L764.469 108.516C764.163 108.3 763.785 108.174 763.353 108.174C762.615 108.174 762.003 108.606 762.003 109.596V110.46H764.685V112.026H762.003V120H759.987ZM767.02 108.876C766.228 108.876 765.598 108.264 765.598 107.454C765.598 106.644 766.228 106.032 767.02 106.032C767.812 106.032 768.424 106.644 768.424 107.454C768.424 108.264 767.812 108.876 767.02 108.876ZM766.012 120V110.46H768.028V120H766.012ZM774.743 119.946C774.365 120.054 773.987 120.108 773.591 120.108C771.773 120.108 770.909 119.028 770.909 117.282V106.68H772.925V117.138C772.925 117.966 773.411 118.344 774.149 118.344C774.329 118.344 774.527 118.326 774.743 118.272V119.946ZM776.54 106.32H779.006V108.75H776.54V106.32ZM776.774 120V110.46H778.79V120H776.774ZM786.477 110.244C788.421 110.244 789.573 111.504 789.573 113.574V120H787.557V113.898C787.557 112.584 786.927 111.99 785.829 111.99C784.407 111.99 783.687 112.98 783.687 114.834V120H781.671V110.46H783.687V111.828C784.335 110.82 785.289 110.244 786.477 110.244ZM797.105 110.244C799.049 110.244 800.201 111.504 800.201 113.574V120H798.185V113.898C798.185 112.584 797.555 111.99 796.457 111.99C795.035 111.99 794.315 112.98 794.315 114.834V120H792.299V110.46H794.315V111.828C794.963 110.82 795.917 110.244 797.105 110.244ZM802.424 113.088C802.424 111.468 803.918 110.244 806.168 110.244C808.022 110.244 809.264 110.91 809.93 112.188L808.526 113.052C808.094 112.314 807.23 111.864 806.15 111.864C805.07 111.864 804.332 112.278 804.332 112.962C804.332 113.52 804.71 113.862 805.556 114.024L807.158 114.348C809.174 114.744 810.182 115.698 810.182 117.156C810.182 118.956 808.616 120.162 806.258 120.162C804.26 120.162 802.838 119.406 802.1 118.02L803.504 117.138C804.026 118.02 804.944 118.524 806.204 118.524C807.428 118.524 808.256 118.038 808.256 117.246C808.256 116.598 807.86 116.238 806.978 116.058L805.214 115.716C803.414 115.374 802.424 114.456 802.424 113.088ZM814.779 117.048C814.779 118.11 815.427 118.434 816.093 118.434C816.615 118.434 817.029 118.218 817.443 117.804L818.307 119.1C817.587 119.82 816.795 120.162 815.769 120.162C814.113 120.162 812.763 119.154 812.763 117.174V112.026H811.089V110.46H812.763V108.336L814.779 107.418V110.46H818.145V112.026H814.779V117.048ZM821.061 108.876C820.269 108.876 819.639 108.264 819.639 107.454C819.639 106.644 820.269 106.032 821.061 106.032C821.853 106.032 822.465 106.644 822.465 107.454C822.465 108.264 821.853 108.876 821.061 108.876ZM820.053 120V110.46H822.069V120H820.053ZM828.785 119.946C828.407 120.054 828.029 120.108 827.633 120.108C825.815 120.108 824.951 119.028 824.951 117.282V106.68H826.967V117.138C826.967 117.966 827.453 118.344 828.191 118.344C828.371 118.344 828.569 118.326 828.785 118.272V119.946ZM834.544 119.946C834.166 120.054 833.788 120.108 833.392 120.108C831.574 120.108 830.71 119.028 830.71 117.282V106.68H832.726V117.138C832.726 117.966 833.212 118.344 833.95 118.344C834.13 118.344 834.328 118.326 834.544 118.272V119.946ZM836.34 106.32H838.806V108.75H836.34V106.32ZM836.574 120V110.46H838.59V120H836.574ZM846.278 110.244C848.222 110.244 849.374 111.504 849.374 113.574V120H847.358V113.898C847.358 112.584 846.728 111.99 845.63 111.99C844.208 111.99 843.488 112.98 843.488 114.834V120H841.472V110.46H843.488V111.828C844.136 110.82 845.09 110.244 846.278 110.244ZM861.262 112.026H859.264V112.242C859.588 112.692 859.75 113.214 859.75 113.754C859.75 115.482 858.418 117.21 855.646 117.21H855.178C854.206 117.21 853.576 117.534 853.576 118.11C853.576 118.506 853.882 118.794 854.494 118.794H858.472C860.11 118.794 861.046 119.64 861.046 120.936C861.046 122.898 859.048 124.032 855.862 124.032C853.072 124.032 851.2 123.33 850.714 121.476L852.676 121.098C853.126 122.25 854.17 122.556 855.916 122.556C857.788 122.556 859.12 122.052 859.12 121.17C859.12 120.756 858.886 120.45 858.238 120.45H853.9C852.406 120.45 851.632 119.64 851.632 118.632C851.632 117.66 852.496 116.886 853.684 116.652C852.37 116.076 851.722 114.852 851.722 113.7C851.722 111.99 853.108 110.244 855.754 110.244C856.924 110.244 857.842 110.658 858.382 111.252V110.46H861.262V112.026ZM855.754 115.752C857.14 115.752 857.788 114.78 857.788 113.736C857.788 112.692 857.14 111.738 855.754 111.738C854.386 111.738 853.72 112.692 853.72 113.736C853.72 114.78 854.386 115.752 855.754 115.752ZM868.753 116.994L870.121 117.786C869.581 118.974 868.321 120.162 866.143 120.162C863.317 120.162 861.607 118.074 861.607 115.14C861.607 112.242 863.461 110.244 865.999 110.244C868.249 110.244 870.103 111.756 870.103 114.456L870.067 115.644H863.587C863.695 117.66 864.685 118.524 866.269 118.524C867.439 118.524 868.249 117.894 868.753 116.994ZM865.999 111.828C864.775 111.828 863.749 112.476 863.587 114.204H868.141C868.159 112.512 867.115 111.828 865.999 111.828ZM876.763 110.244C878.149 110.244 879.049 111.162 879.049 112.8V114.06L877.429 114.348V113.376C877.429 112.512 877.123 111.918 876.187 111.918C875.161 111.918 874.405 112.602 874.405 114.42V120H872.389V110.46H874.405V111.738C874.945 110.676 875.935 110.244 876.763 110.244Z" fill="#2A2859"/>
<path d="M202.138 135.68C205.144 135.68 206.998 137.444 206.998 140.072C206.998 142.7 205.054 144.464 202.03 144.464H199.672V149H197.566V135.68H202.138ZM202.21 142.628C203.866 142.628 204.82 141.746 204.82 140.144C204.82 138.47 203.866 137.588 202.192 137.588H199.672V142.628H202.21ZM213.146 139.244C214.532 139.244 215.432 140.162 215.432 141.8V143.06L213.812 143.348V142.376C213.812 141.512 213.506 140.918 212.57 140.918C211.544 140.918 210.788 141.602 210.788 143.42V149H208.772V139.46H210.788V140.738C211.328 139.676 212.318 139.244 213.146 139.244ZM220.933 149.18C218.449 149.18 216.415 147.236 216.415 144.176C216.415 141.188 218.431 139.244 220.933 139.244C223.435 139.244 225.451 141.188 225.451 144.176C225.451 147.236 223.417 149.18 220.933 149.18ZM220.933 147.47C222.283 147.47 223.381 146.426 223.381 144.176C223.381 141.908 222.265 140.954 220.933 140.954C219.601 140.954 218.485 141.908 218.485 144.176C218.485 146.426 219.601 147.47 220.933 147.47ZM227.987 149V141.026H226.313V139.46H227.987V138.722C227.987 136.616 229.337 135.41 231.209 135.41C231.911 135.41 232.559 135.644 232.955 135.932L232.469 137.516C232.163 137.3 231.785 137.174 231.353 137.174C230.615 137.174 230.003 137.606 230.003 138.596V139.46H232.685V141.026H230.003V149H227.987ZM235.02 137.876C234.228 137.876 233.598 137.264 233.598 136.454C233.598 135.644 234.228 135.032 235.02 135.032C235.812 135.032 236.424 135.644 236.424 136.454C236.424 137.264 235.812 137.876 235.02 137.876ZM234.012 149V139.46H236.028V149H234.012ZM242.743 148.946C242.365 149.054 241.987 149.108 241.591 149.108C239.773 149.108 238.909 148.028 238.909 146.282V135.68H240.925V146.138C240.925 146.966 241.411 147.344 242.149 147.344C242.329 147.344 242.527 147.326 242.743 147.272V148.946ZM244.54 135.32H247.006V137.75H244.54V135.32ZM244.774 149V139.46H246.79V149H244.774ZM254.477 139.244C256.421 139.244 257.573 140.504 257.573 142.574V149H255.557V142.898C255.557 141.584 254.927 140.99 253.829 140.99C252.407 140.99 251.687 141.98 251.687 143.834V149H249.671V139.46H251.687V140.828C252.335 139.82 253.289 139.244 254.477 139.244ZM265.105 139.244C267.049 139.244 268.201 140.504 268.201 142.574V149H266.185V142.898C266.185 141.584 265.555 140.99 264.457 140.99C263.035 140.99 262.315 141.98 262.315 143.834V149H260.299V139.46H262.315V140.828C262.963 139.82 263.917 139.244 265.105 139.244ZM270.424 142.088C270.424 140.468 271.918 139.244 274.168 139.244C276.022 139.244 277.264 139.91 277.93 141.188L276.526 142.052C276.094 141.314 275.23 140.864 274.15 140.864C273.07 140.864 272.332 141.278 272.332 141.962C272.332 142.52 272.71 142.862 273.556 143.024L275.158 143.348C277.174 143.744 278.182 144.698 278.182 146.156C278.182 147.956 276.616 149.162 274.258 149.162C272.26 149.162 270.838 148.406 270.1 147.02L271.504 146.138C272.026 147.02 272.944 147.524 274.204 147.524C275.428 147.524 276.256 147.038 276.256 146.246C276.256 145.598 275.86 145.238 274.978 145.058L273.214 144.716C271.414 144.374 270.424 143.456 270.424 142.088ZM282.779 146.048C282.779 147.11 283.427 147.434 284.093 147.434C284.615 147.434 285.029 147.218 285.443 146.804L286.307 148.1C285.587 148.82 284.795 149.162 283.769 149.162C282.113 149.162 280.763 148.154 280.763 146.174V141.026H279.089V139.46H280.763V137.336L282.779 136.418V139.46H286.145V141.026H282.779V146.048ZM289.061 137.876C288.269 137.876 287.639 137.264 287.639 136.454C287.639 135.644 288.269 135.032 289.061 135.032C289.853 135.032 290.465 135.644 290.465 136.454C290.465 137.264 289.853 137.876 289.061 137.876ZM288.053 149V139.46H290.069V149H288.053ZM296.785 148.946C296.407 149.054 296.029 149.108 295.633 149.108C293.815 149.108 292.951 148.028 292.951 146.282V135.68H294.967V146.138C294.967 146.966 295.453 147.344 296.191 147.344C296.371 147.344 296.569 147.326 296.785 147.272V148.946ZM302.544 148.946C302.166 149.054 301.788 149.108 301.392 149.108C299.574 149.108 298.71 148.028 298.71 146.282V135.68H300.726V146.138C300.726 146.966 301.212 147.344 301.95 147.344C302.13 147.344 302.328 147.326 302.544 147.272V148.946ZM304.34 135.32H306.806V137.75H304.34V135.32ZM304.574 149V139.46H306.59V149H304.574ZM314.278 139.244C316.222 139.244 317.374 140.504 317.374 142.574V149H315.358V142.898C315.358 141.584 314.728 140.99 313.63 140.99C312.208 140.99 311.488 141.98 311.488 143.834V149H309.472V139.46H311.488V140.828C312.136 139.82 313.09 139.244 314.278 139.244ZM329.262 141.026H327.264V141.242C327.588 141.692 327.75 142.214 327.75 142.754C327.75 144.482 326.418 146.21 323.646 146.21H323.178C322.206 146.21 321.576 146.534 321.576 147.11C321.576 147.506 321.882 147.794 322.494 147.794H326.472C328.11 147.794 329.046 148.64 329.046 149.936C329.046 151.898 327.048 153.032 323.862 153.032C321.072 153.032 319.2 152.33 318.714 150.476L320.676 150.098C321.126 151.25 322.17 151.556 323.916 151.556C325.788 151.556 327.12 151.052 327.12 150.17C327.12 149.756 326.886 149.45 326.238 149.45H321.9C320.406 149.45 319.632 148.64 319.632 147.632C319.632 146.66 320.496 145.886 321.684 145.652C320.37 145.076 319.722 143.852 319.722 142.7C319.722 140.99 321.108 139.244 323.754 139.244C324.924 139.244 325.842 139.658 326.382 140.252V139.46H329.262V141.026ZM323.754 144.752C325.14 144.752 325.788 143.78 325.788 142.736C325.788 141.692 325.14 140.738 323.754 140.738C322.386 140.738 321.72 141.692 321.72 142.736C321.72 143.78 322.386 144.752 323.754 144.752ZM336.753 145.994L338.121 146.786C337.581 147.974 336.321 149.162 334.143 149.162C331.317 149.162 329.607 147.074 329.607 144.14C329.607 141.242 331.461 139.244 333.999 139.244C336.249 139.244 338.103 140.756 338.103 143.456L338.067 144.644H331.587C331.695 146.66 332.685 147.524 334.269 147.524C335.439 147.524 336.249 146.894 336.753 145.994ZM333.999 140.828C332.775 140.828 331.749 141.476 331.587 143.204H336.141C336.159 141.512 335.115 140.828 333.999 140.828ZM344.763 139.244C346.149 139.244 347.049 140.162 347.049 141.8V143.06L345.429 143.348V142.376C345.429 141.512 345.123 140.918 344.187 140.918C343.161 140.918 342.405 141.602 342.405 143.42V149H340.389V139.46H342.405V140.738C342.945 139.676 343.935 139.244 344.763 139.244Z" fill="#2A2859"/>
<rect x="729" y="250" width="84" height="46" fill="#2A2859"/>
<rect x="729" y="250" width="84" height="46" stroke="#2A2859" stroke-width="2"/>
<path d="M749.672 277.056H755.558V279H747.566V265.68H749.672V277.056ZM764.893 279H763.039C762.895 278.514 762.805 277.938 762.769 277.2C762.319 278.19 761.311 279.162 759.655 279.162C757.927 279.162 756.703 277.992 756.703 276.336C756.703 274.266 758.539 273.24 760.591 273.24C761.239 273.24 761.851 273.294 762.517 273.474V272.574C762.517 271.548 761.869 270.882 760.699 270.882C759.601 270.882 758.827 271.476 758.467 272.592L756.757 272.07C757.441 270.054 759.079 269.244 760.789 269.244C763.327 269.244 764.479 270.738 764.479 272.556V276.246C764.479 277.38 764.659 278.388 764.893 279ZM762.517 275.058V274.842C761.941 274.644 761.383 274.572 760.789 274.572C759.601 274.572 758.683 275.112 758.683 276.156C758.683 277.038 759.313 277.596 760.267 277.596C761.239 277.596 762.517 277.02 762.517 275.058ZM776.294 271.026H774.296V271.242C774.62 271.692 774.782 272.214 774.782 272.754C774.782 274.482 773.45 276.21 770.678 276.21H770.21C769.238 276.21 768.608 276.534 768.608 277.11C768.608 277.506 768.914 277.794 769.526 277.794H773.504C775.142 277.794 776.078 278.64 776.078 279.936C776.078 281.898 774.08 283.032 770.894 283.032C768.104 283.032 766.232 282.33 765.746 280.476L767.708 280.098C768.158 281.25 769.202 281.556 770.948 281.556C772.82 281.556 774.152 281.052 774.152 280.17C774.152 279.756 773.918 279.45 773.27 279.45H768.932C767.438 279.45 766.664 278.64 766.664 277.632C766.664 276.66 767.528 275.886 768.716 275.652C767.402 275.076 766.754 273.852 766.754 272.7C766.754 270.99 768.14 269.244 770.786 269.244C771.956 269.244 772.874 269.658 773.414 270.252V269.46H776.294V271.026ZM770.786 274.752C772.172 274.752 772.82 273.78 772.82 272.736C772.82 271.692 772.172 270.738 770.786 270.738C769.418 270.738 768.752 271.692 768.752 272.736C768.752 273.78 769.418 274.752 770.786 274.752ZM782.24 269.244C783.626 269.244 784.526 270.162 784.526 271.8V273.06L782.906 273.348V272.376C782.906 271.512 782.6 270.918 781.664 270.918C780.638 270.918 779.882 271.602 779.882 273.42V279H777.866V269.46H779.882V270.738C780.422 269.676 781.412 269.244 782.24 269.244ZM792.655 275.994L794.023 276.786C793.483 277.974 792.223 279.162 790.045 279.162C787.219 279.162 785.509 277.074 785.509 274.14C785.509 271.242 787.363 269.244 789.901 269.244C792.151 269.244 794.005 270.756 794.005 273.456L793.969 274.644H787.489C787.597 276.66 788.587 277.524 790.171 277.524C791.341 277.524 792.151 276.894 792.655 275.994ZM789.901 270.828C788.677 270.828 787.651 271.476 787.489 273.204H792.043C792.061 271.512 791.017 270.828 789.901 270.828Z" fill="white"/>
</g>
<defs>
<clipPath id="clip0_6732_9426">
<rect width="1116" height="342" fill="white"/>
</clipPath>
<clipPath id="clip1_6732_9426">
<rect width="24" height="24" fill="white" transform="translate(742.564 150)"/>
</clipPath>
<clipPath id="clip2_6732_9426">
<rect width="24" height="24" fill="white" transform="translate(210.564 179)"/>
</clipPath>
<clipPath id="clip3_6732_9426">
<rect width="24" height="24" fill="white" transform="translate(728.064 195)"/>
</clipPath>
<clipPath id="clip4_6732_9426">
<rect width="24" height="24" fill="white" transform="translate(196.064 224)"/>
</clipPath>
</defs>
</svg>
