<svg width="1116" height="298" viewBox="0 0 1116 298" fill="none" xmlns="http://www.w3.org/2000/svg">
<g clip-path="url(#clip0_6692_13754)">
<rect width="1116" height="298" fill="white"/>
<mask id="path-1-inside-1_6692_13754" fill="white">
<path d="M0 55H552V298H0V55Z"/>
</mask>
<path d="M0 55H552V298H0V55Z" fill="white"/>
<path d="M552 298V299H553V298H552ZM0 298H-1V299H0V298ZM551 55V298H553V55H551ZM552 297H0V299H552V297ZM1 298V55H-1V298H1Z" fill="#E6E6E6" mask="url(#path-1-inside-1_6692_13754)"/>
<mask id="path-3-inside-2_6692_13754" fill="white">
<path d="M563 55H1116V298H563V55Z"/>
</mask>
<path d="M563 55H1116V298H563V55Z" fill="white"/>
<path d="M1116 298V299H1117V298H1116ZM563 298H562V299H563V298ZM1115 55V298H1117V55H1115ZM1116 297H563V299H1116V297ZM564 298V55H562V298H564Z" fill="#E6E6E6" mask="url(#path-3-inside-2_6692_13754)"/>
<rect x="0.5" y="0.5" width="550.12" height="53.97" stroke="#E6E6E6"/>
<rect x="563.575" y="0.5" width="551.316" height="53.97" stroke="#E6E6E6"/>
<path d="M0 43.9761H551.12V54.9701H0V43.9761Z" fill="#C7F6C9"/>
<path opacity="0.6" d="M563 43.9761H1115.32V54.9701H563V43.9761Z" fill="#FF8274"/>
<path d="M23.1211 28.144C19.8731 28.144 17.5211 25.776 17.5211 22.016C17.5211 18.368 20.0011 16.016 22.9931 16.016C25.0571 16.016 26.5611 16.96 27.3131 18.64L26.0491 19.296C25.4731 18.048 24.3211 17.376 22.9771 17.376C20.8331 17.376 19.0091 18.896 19.0091 22.016C19.0091 25.136 20.7371 26.848 23.2011 26.848C24.4011 26.848 25.2651 26.608 26.0651 26.144V22.896H21.8891V21.6H27.3451V26.8C26.2891 27.68 24.7051 28.144 23.1211 28.144ZM30.4281 18.032C29.8201 18.032 29.3401 17.568 29.3401 16.944C29.3401 16.336 29.8201 15.872 30.4281 15.872C31.0201 15.872 31.5001 16.336 31.5001 16.944C31.5001 17.568 31.0201 18.032 30.4281 18.032ZM29.1001 31.488C28.7801 31.488 28.4441 31.44 28.1401 31.344L28.2521 30.208C28.4761 30.288 28.6681 30.304 28.8281 30.304C29.5321 30.304 29.7401 29.84 29.7401 29.12V19.52H31.1161V29.104C31.1161 30.64 30.4601 31.488 29.1001 31.488ZM39.2178 20.096C40.2258 20.832 40.8658 22.112 40.8658 23.728C40.8658 26.416 39.1218 28.144 36.9938 28.144C36.4178 28.144 35.8578 28.016 35.3618 27.776L34.8498 28.8H34.0178L34.7218 27.392C33.7458 26.64 33.1058 25.36 33.1058 23.728C33.1058 21.088 34.8338 19.36 36.9938 19.36C37.5698 19.36 38.1138 19.488 38.5938 19.712L39.1058 18.704H39.9218L39.2178 20.096ZM34.5298 23.728C34.5298 24.864 34.8338 25.696 35.3138 26.224L38.0498 20.8C37.7298 20.64 37.3618 20.56 36.9938 20.56C35.6498 20.56 34.5298 21.568 34.5298 23.728ZM36.9938 26.944C38.3378 26.944 39.4418 25.888 39.4418 23.728C39.4418 22.592 39.1378 21.776 38.6418 21.248L35.9058 26.688C36.2418 26.864 36.6098 26.944 36.9938 26.944ZM46.2012 19.36C47.3532 19.36 48.1532 20.128 48.1532 21.584V22.528L46.9692 22.752V21.904C46.9692 21.088 46.6972 20.544 45.8492 20.544C44.8892 20.544 44.1852 21.216 44.1852 22.896V28H42.8092V19.52H44.1852V20.608C44.6492 19.744 45.4492 19.36 46.2012 19.36ZM53.5241 21.776C53.5241 20.4 54.8201 19.36 56.6921 19.36C58.2601 19.36 59.4121 20.048 59.8601 21.168L58.8201 21.696C58.4681 20.944 57.7001 20.528 56.6601 20.528C55.5721 20.528 54.8521 20.96 54.8521 21.68C54.8521 22.304 55.2521 22.672 56.1641 22.864L57.3961 23.104C59.2361 23.472 60.1161 24.288 60.1161 25.568C60.1161 27.088 58.7721 28.128 56.7881 28.128C55.0601 28.128 53.8281 27.456 53.2201 26.208L54.2761 25.648C54.7081 26.512 55.5561 26.976 56.7561 26.976C57.9721 26.976 58.7881 26.448 58.7881 25.648C58.7881 24.944 58.3721 24.56 57.3961 24.352L55.9401 24.064C54.3721 23.744 53.5241 22.944 53.5241 21.776ZM64.9504 27.968C64.6624 28.032 64.4064 28.08 64.1184 28.08C62.6784 28.08 61.9904 27.2 61.9904 25.824V16.16H63.3664V25.76C63.3664 26.496 63.7664 26.848 64.4384 26.848C64.5984 26.848 64.7744 26.832 64.9504 26.784V27.968ZM66.4719 16.064H68.3599V17.92H66.4719V16.064ZM66.7279 28V19.52H68.1039V28H66.7279ZM75.9649 28L73.0529 23.92L72.0449 24.912V28H70.6689V16.16H72.0449V23.328L75.8369 19.52H77.5809L73.9809 23.024L77.6449 28H75.9649Z" fill="#2A2859"/>
<path d="M586.002 28V16.16H587.426V28H586.002ZM595.269 28L592.357 23.92L591.349 24.912V28H589.973V16.16H591.349V23.328L595.141 19.52H596.885L593.285 23.024L596.949 28H595.269ZM603.85 28L600.938 23.92L599.93 24.912V28H598.554V16.16H599.93V23.328L603.722 19.52H605.466L601.866 23.024L605.53 28H603.85ZM612.287 25.488L613.263 26.032C612.815 27.088 611.743 28.144 609.839 28.144C607.391 28.144 605.935 26.32 605.935 23.664C605.935 21.136 607.487 19.36 609.711 19.36C611.599 19.36 613.215 20.688 613.215 23.04L613.183 24.016H607.311C607.407 26.096 608.415 26.976 609.951 26.976C611.119 26.976 611.871 26.304 612.287 25.488ZM609.711 20.512C608.511 20.512 607.471 21.136 607.311 22.944H611.871C611.887 21.232 610.847 20.512 609.711 20.512ZM618.725 21.776C618.725 20.4 620.021 19.36 621.893 19.36C623.461 19.36 624.613 20.048 625.061 21.168L624.021 21.696C623.669 20.944 622.901 20.528 621.861 20.528C620.773 20.528 620.053 20.96 620.053 21.68C620.053 22.304 620.453 22.672 621.365 22.864L622.597 23.104C624.437 23.472 625.317 24.288 625.317 25.568C625.317 27.088 623.973 28.128 621.989 28.128C620.261 28.128 619.029 27.456 618.421 26.208L619.477 25.648C619.909 26.512 620.757 26.976 621.957 26.976C623.173 26.976 623.989 26.448 623.989 25.648C623.989 24.944 623.573 24.56 622.597 24.352L621.141 24.064C619.573 23.744 618.725 22.944 618.725 21.776ZM630.151 27.968C629.863 28.032 629.607 28.08 629.319 28.08C627.879 28.08 627.191 27.2 627.191 25.824V16.16H628.567V25.76C628.567 26.496 628.967 26.848 629.639 26.848C629.799 26.848 629.975 26.832 630.151 26.784V27.968ZM632.617 18.032C632.009 18.032 631.529 17.568 631.529 16.944C631.529 16.336 632.009 15.872 632.617 15.872C633.209 15.872 633.689 16.336 633.689 16.944C633.689 17.568 633.209 18.032 632.617 18.032ZM631.929 28V19.52H633.305V28H631.929ZM641.166 28L638.254 23.92L637.246 24.912V28H635.87V16.16H637.246V23.328L641.038 19.52H642.782L639.182 23.024L642.846 28H641.166Z" fill="#2A2859"/>
<path d="M202.056 171.16H203.24L198.904 183H197.784L193.48 171.16H194.696L198.36 181.704L202.056 171.16ZM209.934 183H208.942C208.814 182.536 208.718 181.976 208.718 181.336C208.286 182.328 207.182 183.128 205.806 183.128C204.302 183.128 203.166 182.152 203.166 180.696C203.166 178.952 204.734 178.04 206.478 178.04C207.166 178.04 207.838 178.12 208.526 178.36V177.24C208.526 176.136 207.854 175.384 206.542 175.384C205.486 175.384 204.59 175.848 204.142 177.144L203.182 176.856C203.822 175.064 205.118 174.392 206.606 174.392C208.702 174.392 209.582 175.656 209.582 177.112V180.6C209.582 181.56 209.742 182.424 209.934 183ZM208.526 179.48V179.288C207.87 179.016 207.198 178.936 206.542 178.936C205.262 178.936 204.254 179.512 204.254 180.632C204.254 181.656 204.974 182.2 205.998 182.2C207.102 182.2 208.526 181.544 208.526 179.48ZM215.172 174.392C216.276 174.392 217.076 175.128 217.076 176.568V177.4L216.084 177.592V176.76C216.084 175.912 215.796 175.352 214.932 175.352C213.956 175.352 213.22 176.072 213.22 177.784V183H212.132V174.52H213.22V175.576C213.668 174.776 214.42 174.392 215.172 174.392ZM218.297 176.728C218.297 175.384 219.561 174.392 221.337 174.392C222.873 174.392 224.057 175.128 224.41 176.248L223.513 176.6C223.177 175.784 222.393 175.352 221.305 175.352C220.121 175.352 219.353 175.848 219.353 176.632C219.353 177.336 219.817 177.768 220.825 177.976L221.945 178.2C223.801 178.568 224.666 179.368 224.666 180.632C224.666 182.104 223.353 183.128 221.465 183.128C219.753 183.128 218.553 182.456 217.977 181.176L218.905 180.792C219.305 181.688 220.185 182.168 221.433 182.168C222.746 182.168 223.609 181.592 223.609 180.728C223.609 179.928 223.161 179.496 222.041 179.256L220.665 178.968C219.113 178.648 218.297 177.864 218.297 176.728ZM229.263 182.968C229.007 183.032 228.799 183.064 228.559 183.064C227.231 183.064 226.607 182.232 226.607 180.984V171.16H227.695V180.984C227.695 181.704 228.079 182.072 228.751 182.072C228.927 182.072 229.103 182.056 229.263 182.008V182.968ZM236.59 180.6L237.39 181.048C236.99 182.072 235.934 183.128 234.046 183.128C231.662 183.128 230.254 181.352 230.254 178.648C230.254 176.168 231.726 174.392 233.934 174.392C235.758 174.392 237.326 175.704 237.326 178.008L237.294 178.952H231.358C231.454 181.208 232.526 182.168 234.158 182.168C235.438 182.168 236.19 181.432 236.59 180.6ZM233.934 175.352C232.654 175.352 231.502 176.04 231.358 178.056H236.254C236.302 176.152 235.182 175.352 233.934 175.352ZM251.768 174.392C253.384 174.392 254.328 175.416 254.328 177.176V183H253.24V177.336C253.24 175.96 252.584 175.384 251.48 175.384C249.992 175.384 249.368 176.536 249.368 178.232V183H248.28V177.336C248.28 175.96 247.624 175.384 246.52 175.384C245.032 175.384 244.408 176.536 244.408 178.232V183H243.32V174.52H244.408V175.848C244.92 174.904 245.816 174.392 246.808 174.392C248.072 174.392 248.92 175.016 249.224 176.12C249.704 175 250.68 174.392 251.768 174.392ZM262.537 180.6L263.337 181.048C262.937 182.072 261.881 183.128 259.993 183.128C257.609 183.128 256.201 181.352 256.201 178.648C256.201 176.168 257.673 174.392 259.881 174.392C261.705 174.392 263.273 175.704 263.273 178.008L263.241 178.952H257.305C257.401 181.208 258.473 182.168 260.105 182.168C261.385 182.168 262.137 181.432 262.537 180.6ZM259.881 175.352C258.601 175.352 257.449 176.04 257.305 178.056H262.201C262.249 176.152 261.129 175.352 259.881 175.352ZM271.229 171.16H272.317V183H271.229V181.416C270.669 182.504 269.549 183.112 268.445 183.112C266.285 183.112 264.829 181.304 264.829 178.84C264.829 176.232 266.301 174.392 268.573 174.392C269.757 174.392 270.717 174.984 271.229 176.056V171.16ZM268.557 182.152C270.253 182.152 271.229 180.888 271.229 178.808C271.229 176.6 270.269 175.352 268.573 175.352C266.989 175.352 265.949 176.568 265.949 178.792C265.949 180.936 266.989 182.152 268.557 182.152ZM278.5 174.296C278.5 172.312 280.308 171.032 282.404 171.032C284.34 171.032 285.652 171.864 286.244 173.352L285.188 173.784C284.708 172.648 283.636 172.024 282.404 172.024C280.772 172.024 279.62 172.856 279.62 174.168C279.62 175.272 280.276 175.944 281.668 176.216L283.524 176.568C285.348 176.92 286.692 177.896 286.692 179.672C286.692 181.496 285.156 183.128 282.564 183.128C280.516 183.128 278.98 182.424 278.148 180.664L279.172 180.248C279.972 181.816 281.3 182.136 282.596 182.136C284.532 182.136 285.572 181.016 285.572 179.736C285.572 178.312 284.612 177.896 283.172 177.624L281.476 177.304C279.828 177 278.5 176.088 278.5 174.296ZM298.147 171.16H299.235V183H298.115V173.128L294.307 179.048H293.827L290.019 173.128V183H288.899V171.16H289.987L294.067 177.496L298.147 171.16ZM301.631 174.296C301.631 172.312 303.439 171.032 305.535 171.032C307.471 171.032 308.783 171.864 309.375 173.352L308.319 173.784C307.839 172.648 306.767 172.024 305.535 172.024C303.903 172.024 302.751 172.856 302.751 174.168C302.751 175.272 303.407 175.944 304.799 176.216L306.655 176.568C308.479 176.92 309.823 177.896 309.823 179.672C309.823 181.496 308.287 183.128 305.695 183.128C303.647 183.128 302.111 182.424 301.279 180.664L302.303 180.248C303.103 181.816 304.431 182.136 305.727 182.136C307.663 182.136 308.703 181.016 308.703 179.736C308.703 178.312 307.743 177.896 306.303 177.624L304.607 177.304C302.959 177 301.631 176.088 301.631 174.296Z" fill="#2A2859"/>
<rect x="320" y="165" width="38" height="24" rx="12" fill="#2A2859" stroke="#2A2859" stroke-width="2"/>
<g clip-path="url(#clip1_6692_13754)">
<circle cx="345.564" cy="177" r="11.25" fill="white"/>
<path fill-rule="evenodd" clip-rule="evenodd" d="M351.343 174.161L344.062 181.441L339.782 177.161L340.843 176.1L344.062 179.32L350.282 173.1L351.343 174.161Z" fill="#2A2859"/>
</g>
<path d="M729.184 174.296C729.184 172.312 730.992 171.032 733.088 171.032C735.024 171.032 736.336 171.864 736.928 173.352L735.872 173.784C735.392 172.648 734.32 172.024 733.088 172.024C731.456 172.024 730.304 172.856 730.304 174.168C730.304 175.272 730.96 175.944 732.352 176.216L734.208 176.568C736.032 176.92 737.376 177.896 737.376 179.672C737.376 181.496 735.84 183.128 733.248 183.128C731.2 183.128 729.664 182.424 728.832 180.664L729.856 180.248C730.656 181.816 731.984 182.136 733.28 182.136C735.216 182.136 736.256 181.016 736.256 179.736C736.256 178.312 735.296 177.896 733.856 177.624L732.16 177.304C730.512 177 729.184 176.088 729.184 174.296ZM744.831 183L741.711 178.792L740.671 179.784V183H739.583V171.16H740.671V178.504L744.703 174.52H746.143L742.447 178.072L746.207 183H744.831ZM750.719 174.392C751.823 174.392 752.623 175.128 752.623 176.568V177.4L751.631 177.592V176.76C751.631 175.912 751.343 175.352 750.479 175.352C749.503 175.352 748.767 176.072 748.767 177.784V183H747.679V174.52H748.767V175.576C749.215 174.776 749.967 174.392 750.719 174.392ZM759.345 174.52H760.433V183H759.345V181.704C758.833 182.616 757.937 183.128 756.897 183.128C755.233 183.128 754.225 182.056 754.225 180.216V174.52H755.313V180.12C755.313 181.512 756.017 182.152 757.201 182.152C758.705 182.152 759.345 180.952 759.345 179.288V174.52ZM773.134 183H772.142C772.014 182.536 771.918 181.976 771.918 181.336C771.486 182.328 770.382 183.128 769.006 183.128C767.502 183.128 766.366 182.152 766.366 180.696C766.366 178.952 767.934 178.04 769.678 178.04C770.366 178.04 771.038 178.12 771.726 178.36V177.24C771.726 176.136 771.054 175.384 769.742 175.384C768.686 175.384 767.789 175.848 767.342 177.144L766.382 176.856C767.022 175.064 768.318 174.392 769.806 174.392C771.902 174.392 772.782 175.656 772.782 177.112V180.6C772.782 181.56 772.942 182.424 773.134 183ZM771.726 179.48V179.288C771.07 179.016 770.398 178.936 769.742 178.936C768.462 178.936 767.454 179.512 767.454 180.632C767.454 181.656 768.174 182.2 769.198 182.2C770.302 182.2 771.726 181.544 771.726 179.48ZM780.428 174.52H781.548L778.22 183H777.26L773.932 174.52H775.116L777.772 181.8L780.428 174.52ZM792.309 174.52H793.429L790.101 183H789.141L785.813 174.52H786.997L789.653 181.8L792.309 174.52ZM800.896 183H799.904C799.776 182.536 799.68 181.976 799.68 181.336C799.248 182.328 798.144 183.128 796.768 183.128C795.264 183.128 794.128 182.152 794.128 180.696C794.128 178.952 795.696 178.04 797.44 178.04C798.128 178.04 798.8 178.12 799.488 178.36V177.24C799.488 176.136 798.816 175.384 797.504 175.384C796.448 175.384 795.552 175.848 795.104 177.144L794.144 176.856C794.784 175.064 796.08 174.392 797.568 174.392C799.664 174.392 800.544 175.656 800.544 177.112V180.6C800.544 181.56 800.704 182.424 800.896 183ZM799.488 179.48V179.288C798.832 179.016 798.16 178.936 797.504 178.936C796.224 178.936 795.216 179.512 795.216 180.632C795.216 181.656 795.936 182.2 796.96 182.2C798.064 182.2 799.488 181.544 799.488 179.48ZM806.135 174.392C807.239 174.392 808.039 175.128 808.039 176.568V177.4L807.047 177.592V176.76C807.047 175.912 806.759 175.352 805.895 175.352C804.919 175.352 804.183 176.072 804.183 177.784V183H803.095V174.52H804.183V175.576C804.631 174.776 805.383 174.392 806.135 174.392ZM809.26 176.728C809.26 175.384 810.524 174.392 812.3 174.392C813.836 174.392 815.02 175.128 815.372 176.248L814.476 176.6C814.14 175.784 813.356 175.352 812.268 175.352C811.084 175.352 810.316 175.848 810.316 176.632C810.316 177.336 810.78 177.768 811.788 177.976L812.908 178.2C814.764 178.568 815.628 179.368 815.628 180.632C815.628 182.104 814.316 183.128 812.428 183.128C810.716 183.128 809.516 182.456 808.94 181.176L809.868 180.792C810.268 181.688 811.148 182.168 812.396 182.168C813.708 182.168 814.572 181.592 814.572 180.728C814.572 179.928 814.124 179.496 813.004 179.256L811.628 178.968C810.076 178.648 809.26 177.864 809.26 176.728ZM823.362 180.6L824.162 181.048C823.762 182.072 822.706 183.128 820.818 183.128C818.434 183.128 817.026 181.352 817.026 178.648C817.026 176.168 818.498 174.392 820.706 174.392C822.53 174.392 824.098 175.704 824.098 178.008L824.066 178.952H818.13C818.226 181.208 819.298 182.168 820.93 182.168C822.21 182.168 822.962 181.432 823.362 180.6ZM820.706 175.352C819.426 175.352 818.274 176.04 818.13 178.056H823.026C823.074 176.152 821.954 175.352 820.706 175.352ZM828.854 182.968C828.598 183.032 828.39 183.064 828.15 183.064C826.822 183.064 826.198 182.232 826.198 180.984V171.16H827.286V180.984C827.286 181.704 827.67 182.072 828.342 182.072C828.518 182.072 828.694 182.056 828.854 182.008V182.968ZM842.98 174.392C844.596 174.392 845.54 175.416 845.54 177.176V183H844.452V177.336C844.452 175.96 843.796 175.384 842.692 175.384C841.204 175.384 840.58 176.536 840.58 178.232V183H839.492V177.336C839.492 175.96 838.836 175.384 837.732 175.384C836.244 175.384 835.62 176.536 835.62 178.232V183H834.532V174.52H835.62V175.848C836.132 174.904 837.028 174.392 838.02 174.392C839.284 174.392 840.132 175.016 840.436 176.12C840.916 175 841.892 174.392 842.98 174.392ZM853.749 180.6L854.549 181.048C854.149 182.072 853.093 183.128 851.205 183.128C848.821 183.128 847.413 181.352 847.413 178.648C847.413 176.168 848.885 174.392 851.093 174.392C852.917 174.392 854.485 175.704 854.485 178.008L854.453 178.952H848.517C848.613 181.208 849.685 182.168 851.317 182.168C852.597 182.168 853.349 181.432 853.749 180.6ZM851.093 175.352C849.813 175.352 848.661 176.04 848.517 178.056H853.413C853.461 176.152 852.341 175.352 851.093 175.352ZM862.441 171.16H863.529V183H862.441V181.416C861.881 182.504 860.761 183.112 859.657 183.112C857.497 183.112 856.041 181.304 856.041 178.84C856.041 176.232 857.513 174.392 859.785 174.392C860.969 174.392 861.929 174.984 862.441 176.056V171.16ZM859.769 182.152C861.465 182.152 862.441 180.888 862.441 178.808C862.441 176.6 861.481 175.352 859.785 175.352C858.201 175.352 857.161 176.568 857.161 178.792C857.161 180.936 858.201 182.152 859.769 182.152ZM869.712 174.296C869.712 172.312 871.52 171.032 873.616 171.032C875.552 171.032 876.864 171.864 877.456 173.352L876.4 173.784C875.92 172.648 874.848 172.024 873.616 172.024C871.984 172.024 870.832 172.856 870.832 174.168C870.832 175.272 871.488 175.944 872.88 176.216L874.736 176.568C876.56 176.92 877.904 177.896 877.904 179.672C877.904 181.496 876.368 183.128 873.776 183.128C871.728 183.128 870.192 182.424 869.36 180.664L870.384 180.248C871.184 181.816 872.512 182.136 873.808 182.136C875.744 182.136 876.784 181.016 876.784 179.736C876.784 178.312 875.824 177.896 874.384 177.624L872.688 177.304C871.04 177 869.712 176.088 869.712 174.296ZM889.359 171.16H890.447V183H889.327V173.128L885.519 179.048H885.039L881.231 173.128V183H880.111V171.16H881.199L885.279 177.496L889.359 171.16ZM892.843 174.296C892.843 172.312 894.651 171.032 896.747 171.032C898.683 171.032 899.995 171.864 900.587 173.352L899.531 173.784C899.051 172.648 897.979 172.024 896.747 172.024C895.115 172.024 893.963 172.856 893.963 174.168C893.963 175.272 894.619 175.944 896.011 176.216L897.867 176.568C899.691 176.92 901.035 177.896 901.035 179.672C901.035 181.496 899.499 183.128 896.907 183.128C894.859 183.128 893.323 182.424 892.491 180.664L893.515 180.248C894.315 181.816 895.643 182.136 896.939 182.136C898.875 182.136 899.915 181.016 899.915 179.736C899.915 178.312 898.955 177.896 897.515 177.624L895.819 177.304C894.171 177 892.843 176.088 892.843 174.296Z" fill="#2A2859"/>
<rect x="912" y="165" width="38" height="24" rx="12" stroke="#2A2859" stroke-width="2"/>
<g clip-path="url(#clip2_6692_13754)">
<circle cx="923.064" cy="177" r="10.25" stroke="#2A2859" stroke-width="2"/>
</g>
</g>
<defs>
<clipPath id="clip0_6692_13754">
<rect width="1116" height="298" fill="white"/>
</clipPath>
<clipPath id="clip1_6692_13754">
<rect width="24" height="24" fill="white" transform="translate(333.564 165)"/>
</clipPath>
<clipPath id="clip2_6692_13754">
<rect width="24" height="24" fill="white" transform="translate(911.064 165)"/>
</clipPath>
</defs>
</svg>
