<svg width="374" height="226" viewBox="0 0 374 226" fill="none" xmlns="http://www.w3.org/2000/svg">
<g clip-path="url(#clip0_6732_11554)">
<rect width="374" height="226" fill="white"/>
<path d="M129.024 107.16V108.216H125.312V119H124.192V108.216H120.48V107.16H129.024ZM135.187 116.6L135.987 117.048C135.587 118.072 134.531 119.128 132.643 119.128C130.259 119.128 128.851 117.352 128.851 114.648C128.851 112.168 130.323 110.392 132.531 110.392C134.355 110.392 135.923 111.704 135.923 114.008L135.891 114.952H129.955C130.051 117.208 131.123 118.168 132.755 118.168C134.035 118.168 134.787 117.432 135.187 116.6ZM132.531 111.352C131.251 111.352 130.099 112.04 129.955 114.056H134.851C134.899 112.152 133.779 111.352 132.531 111.352ZM143.303 119L140.183 114.792L139.143 115.784V119H138.055V107.16H139.143V114.504L143.175 110.52H144.615L140.919 114.072L144.679 119H143.303ZM145.407 112.728C145.407 111.384 146.671 110.392 148.447 110.392C149.983 110.392 151.167 111.128 151.519 112.248L150.623 112.6C150.287 111.784 149.503 111.352 148.415 111.352C147.231 111.352 146.463 111.848 146.463 112.632C146.463 113.336 146.927 113.768 147.935 113.976L149.055 114.2C150.911 114.568 151.775 115.368 151.775 116.632C151.775 118.104 150.463 119.128 148.575 119.128C146.863 119.128 145.663 118.456 145.087 117.176L146.015 116.792C146.415 117.688 147.295 118.168 148.543 118.168C149.855 118.168 150.719 117.592 150.719 116.728C150.719 115.928 150.271 115.496 149.151 115.256L147.775 114.968C146.223 114.648 145.407 113.864 145.407 112.728ZM155.256 116.888C155.256 117.88 155.848 118.168 156.376 118.168C156.888 118.168 157.224 117.976 157.624 117.56L158.2 118.2C157.64 118.856 157.032 119.128 156.28 119.128C155.128 119.128 154.168 118.36 154.168 116.856V111.416H152.568V110.52H154.168V108.696L155.256 108.056V110.52H158.008V111.416H155.256V116.888Z" fill="#2A2859"/>
<rect x="168" y="101" width="38" height="24" rx="12" fill="#2A2859" stroke="#2A2859" stroke-width="2"/>
<g clip-path="url(#clip1_6732_11554)">
<circle cx="193.564" cy="113" r="11.25" fill="white"/>
<path fill-rule="evenodd" clip-rule="evenodd" d="M199.343 110.161L192.062 117.441L187.782 113.161L188.843 112.1L192.062 115.32L198.282 109.1L199.343 110.161Z" fill="#2A2859"/>
</g>
<path d="M224.024 107.16V108.216H220.312V119H219.192V108.216H215.48V107.16H224.024ZM230.187 116.6L230.987 117.048C230.587 118.072 229.531 119.128 227.643 119.128C225.259 119.128 223.851 117.352 223.851 114.648C223.851 112.168 225.323 110.392 227.531 110.392C229.355 110.392 230.923 111.704 230.923 114.008L230.891 114.952H224.955C225.051 117.208 226.123 118.168 227.755 118.168C229.035 118.168 229.787 117.432 230.187 116.6ZM227.531 111.352C226.251 111.352 225.099 112.04 224.955 114.056H229.851C229.899 112.152 228.779 111.352 227.531 111.352ZM238.303 119L235.183 114.792L234.143 115.784V119H233.055V107.16H234.143V114.504L238.175 110.52H239.615L235.919 114.072L239.679 119H238.303ZM240.407 112.728C240.407 111.384 241.671 110.392 243.447 110.392C244.983 110.392 246.167 111.128 246.519 112.248L245.623 112.6C245.287 111.784 244.503 111.352 243.415 111.352C242.231 111.352 241.463 111.848 241.463 112.632C241.463 113.336 241.927 113.768 242.935 113.976L244.055 114.2C245.911 114.568 246.775 115.368 246.775 116.632C246.775 118.104 245.463 119.128 243.575 119.128C241.863 119.128 240.663 118.456 240.087 117.176L241.015 116.792C241.415 117.688 242.295 118.168 243.543 118.168C244.855 118.168 245.719 117.592 245.719 116.728C245.719 115.928 245.271 115.496 244.151 115.256L242.775 114.968C241.223 114.648 240.407 113.864 240.407 112.728ZM250.256 116.888C250.256 117.88 250.848 118.168 251.376 118.168C251.888 118.168 252.224 117.976 252.624 117.56L253.2 118.2C252.64 118.856 252.032 119.128 251.28 119.128C250.128 119.128 249.168 118.36 249.168 116.856V111.416H247.568V110.52H249.168V108.696L250.256 108.056V110.52H253.008V111.416H250.256V116.888Z" fill="#2A2859"/>
<g clip-path="url(#clip2_6732_11554)">
<rect x="72" y="113" width="48" height="1" fill="#6FE9FF"/>
<g clip-path="url(#clip3_6732_11554)">
<rect x="72" y="101" width="24" height="24" rx="12" fill="#6FE9FF"/>
<path d="M85.1825 108.273V117H84.1257V109.381H84.0746L81.9439 110.795V109.722L84.1257 108.273H85.1825Z" fill="#2A2859"/>
</g>
</g>
<g clip-path="url(#clip4_6732_11554)">
<rect x="179" y="126" width="1" height="54.8719" fill="#6FE9FF"/>
<g clip-path="url(#clip5_6732_11554)">
<rect x="167" y="156.872" width="24" height="24" rx="12" fill="#6FE9FF"/>
<path d="M176.271 172.872V172.105L179.151 168.951C179.489 168.582 179.768 168.261 179.987 167.988C180.205 167.713 180.367 167.454 180.472 167.213C180.58 166.969 180.634 166.713 180.634 166.446C180.634 166.139 180.56 165.873 180.413 165.649C180.268 165.425 180.069 165.251 179.816 165.129C179.563 165.007 179.279 164.946 178.964 164.946C178.629 164.946 178.336 165.015 178.086 165.155C177.839 165.291 177.647 165.483 177.511 165.73C177.377 165.977 177.31 166.267 177.31 166.599H176.305C176.305 166.088 176.423 165.639 176.658 165.253C176.894 164.866 177.215 164.565 177.621 164.349C178.031 164.133 178.489 164.025 178.998 164.025C179.509 164.025 179.962 164.133 180.357 164.349C180.752 164.565 181.062 164.856 181.286 165.223C181.511 165.589 181.623 165.997 181.623 166.446C181.623 166.767 181.565 167.081 181.448 167.388C181.335 167.692 181.136 168.031 180.852 168.406C180.57 168.778 180.18 169.233 179.68 169.77L177.719 171.866V171.934H181.776V172.872H176.271Z" fill="#2A2859"/>
</g>
</g>
<g clip-path="url(#clip6_6732_11554)">
<rect x="193" y="61" width="1" height="48" fill="#6FE9FF"/>
<g clip-path="url(#clip7_6732_11554)">
<rect x="181" y="61" width="24" height="24" rx="12" fill="#6FE9FF"/>
<path d="M193.032 77.1193C192.469 77.1193 191.968 77.0227 191.528 76.8295C191.09 76.6364 190.742 76.3679 190.484 76.0241C190.228 75.6776 190.089 75.2756 190.066 74.8182H191.14C191.163 75.0994 191.259 75.3423 191.43 75.5469C191.6 75.7486 191.823 75.9048 192.099 76.0156C192.374 76.1264 192.68 76.1818 193.015 76.1818C193.39 76.1818 193.722 76.1165 194.012 75.9858C194.302 75.8551 194.529 75.6733 194.694 75.4403C194.859 75.2074 194.941 74.9375 194.941 74.6307C194.941 74.3097 194.862 74.027 194.702 73.7827C194.543 73.5355 194.31 73.3423 194.004 73.2031C193.697 73.0639 193.322 72.9943 192.879 72.9943H192.18V72.0568H192.879C193.225 72.0568 193.529 71.9943 193.79 71.8693C194.055 71.7443 194.261 71.5682 194.408 71.3409C194.559 71.1136 194.634 70.8466 194.634 70.5398C194.634 70.2443 194.569 69.9872 194.438 69.7685C194.308 69.5497 194.123 69.3793 193.884 69.2571C193.648 69.1349 193.37 69.0739 193.049 69.0739C192.748 69.0739 192.464 69.1293 192.197 69.2401C191.933 69.348 191.717 69.5057 191.549 69.7131C191.381 69.9176 191.29 70.1648 191.276 70.4545H190.254C190.271 69.9972 190.408 69.5966 190.667 69.2528C190.925 68.9062 191.263 68.6364 191.681 68.4432C192.102 68.25 192.563 68.1534 193.066 68.1534C193.606 68.1534 194.069 68.2628 194.455 68.4815C194.842 68.6974 195.138 68.983 195.346 69.3381C195.553 69.6932 195.657 70.0767 195.657 70.4886C195.657 70.9801 195.528 71.3991 195.269 71.7457C195.013 72.0923 194.665 72.3324 194.225 72.4659V72.5341C194.776 72.625 195.207 72.8594 195.516 73.2372C195.826 73.6122 195.981 74.0767 195.981 74.6307C195.981 75.1051 195.852 75.5312 195.593 75.9091C195.337 76.2841 194.988 76.5795 194.545 76.7955C194.102 77.0114 193.597 77.1193 193.032 77.1193Z" fill="#2A2859"/>
</g>
</g>
<g clip-path="url(#clip8_6732_11554)">
<rect x="253.2" y="113.144" width="48.7996" height="1" fill="#6FE9FF"/>
<g clip-path="url(#clip9_6732_11554)">
<rect x="278" y="101.144" width="24" height="24" rx="12" fill="#6FE9FF"/>
<path d="M286.849 115.354V114.485L290.684 108.417H291.315V109.763H290.889L287.991 114.349V114.417H293.156V115.354H286.849ZM290.957 117.144V115.09V114.685V108.417H291.963V117.144H290.957Z" fill="#2A2859"/>
</g>
</g>
</g>
<defs>
<clipPath id="clip0_6732_11554">
<rect width="374" height="226" fill="white"/>
</clipPath>
<clipPath id="clip1_6732_11554">
<rect width="24" height="24" fill="white" transform="translate(181.564 101)"/>
</clipPath>
<clipPath id="clip2_6732_11554">
<rect width="48" height="24" fill="white" transform="translate(72 101)"/>
</clipPath>
<clipPath id="clip3_6732_11554">
<rect x="72" y="101" width="24" height="24" rx="12" fill="white"/>
</clipPath>
<clipPath id="clip4_6732_11554">
<rect width="24" height="54.8719" fill="white" transform="translate(167 126)"/>
</clipPath>
<clipPath id="clip5_6732_11554">
<rect x="167" y="156.872" width="24" height="24" rx="12" fill="white"/>
</clipPath>
<clipPath id="clip6_6732_11554">
<rect width="24" height="48" fill="white" transform="translate(181 61)"/>
</clipPath>
<clipPath id="clip7_6732_11554">
<rect x="181" y="61" width="24" height="24" rx="12" fill="white"/>
</clipPath>
<clipPath id="clip8_6732_11554">
<rect width="48.7996" height="24" fill="white" transform="translate(253.2 101.144)"/>
</clipPath>
<clipPath id="clip9_6732_11554">
<rect x="278" y="101.144" width="24" height="24" rx="12" fill="white"/>
</clipPath>
</defs>
</svg>
