<svg width="1116" height="416" viewBox="0 0 1116 416" fill="none" xmlns="http://www.w3.org/2000/svg">
<g clip-path="url(#clip0_6732_10448)">
<rect width="1116" height="416" fill="white"/>
<mask id="path-1-inside-1_6732_10448" fill="white">
<path d="M0 55H552V416H0V55Z"/>
</mask>
<path d="M0 55H552V416H0V55Z" fill="white"/>
<path d="M552 416V417H553V416H552ZM0 416H-1V417H0V416ZM551 55V416H553V55H551ZM552 415H0V417H552V415ZM1 416V55H-1V416H1Z" fill="#E6E6E6" mask="url(#path-1-inside-1_6732_10448)"/>
<mask id="path-3-inside-2_6732_10448" fill="white">
<path d="M563 55H1116V416H563V55Z"/>
</mask>
<path d="M563 55H1116V416H563V55Z" fill="white"/>
<path d="M1116 416V417H1117V416H1116ZM563 416H562V417H563V416ZM1115 55V416H1117V55H1115ZM1116 415H563V417H1116V415ZM564 416V55H562V416H564Z" fill="#E6E6E6" mask="url(#path-3-inside-2_6732_10448)"/>
<rect x="0.5" y="0.5" width="550.12" height="53.97" stroke="#E6E6E6"/>
<rect x="563.575" y="0.5" width="551.316" height="53.97" stroke="#E6E6E6"/>
<path d="M0 43.9761H551.12V54.9701H0V43.9761Z" fill="#C7F6C9"/>
<path opacity="0.6" d="M563 43.9761H1115.32V54.9701H563V43.9761Z" fill="#FF8274"/>
<path d="M23.1211 28.144C19.8731 28.144 17.5211 25.776 17.5211 22.016C17.5211 18.368 20.0011 16.016 22.9931 16.016C25.0571 16.016 26.5611 16.96 27.3131 18.64L26.0491 19.296C25.4731 18.048 24.3211 17.376 22.9771 17.376C20.8331 17.376 19.0091 18.896 19.0091 22.016C19.0091 25.136 20.7371 26.848 23.2011 26.848C24.4011 26.848 25.2651 26.608 26.0651 26.144V22.896H21.8891V21.6H27.3451V26.8C26.2891 27.68 24.7051 28.144 23.1211 28.144ZM30.4281 18.032C29.8201 18.032 29.3401 17.568 29.3401 16.944C29.3401 16.336 29.8201 15.872 30.4281 15.872C31.0201 15.872 31.5001 16.336 31.5001 16.944C31.5001 17.568 31.0201 18.032 30.4281 18.032ZM29.1001 31.488C28.7801 31.488 28.4441 31.44 28.1401 31.344L28.2521 30.208C28.4761 30.288 28.6681 30.304 28.8281 30.304C29.5321 30.304 29.7401 29.84 29.7401 29.12V19.52H31.1161V29.104C31.1161 30.64 30.4601 31.488 29.1001 31.488ZM39.2178 20.096C40.2258 20.832 40.8658 22.112 40.8658 23.728C40.8658 26.416 39.1218 28.144 36.9938 28.144C36.4178 28.144 35.8578 28.016 35.3618 27.776L34.8498 28.8H34.0178L34.7218 27.392C33.7458 26.64 33.1058 25.36 33.1058 23.728C33.1058 21.088 34.8338 19.36 36.9938 19.36C37.5698 19.36 38.1138 19.488 38.5938 19.712L39.1058 18.704H39.9218L39.2178 20.096ZM34.5298 23.728C34.5298 24.864 34.8338 25.696 35.3138 26.224L38.0498 20.8C37.7298 20.64 37.3618 20.56 36.9938 20.56C35.6498 20.56 34.5298 21.568 34.5298 23.728ZM36.9938 26.944C38.3378 26.944 39.4418 25.888 39.4418 23.728C39.4418 22.592 39.1378 21.776 38.6418 21.248L35.9058 26.688C36.2418 26.864 36.6098 26.944 36.9938 26.944ZM46.2012 19.36C47.3532 19.36 48.1532 20.128 48.1532 21.584V22.528L46.9692 22.752V21.904C46.9692 21.088 46.6972 20.544 45.8492 20.544C44.8892 20.544 44.1852 21.216 44.1852 22.896V28H42.8092V19.52H44.1852V20.608C44.6492 19.744 45.4492 19.36 46.2012 19.36ZM53.5241 21.776C53.5241 20.4 54.8201 19.36 56.6921 19.36C58.2601 19.36 59.4121 20.048 59.8601 21.168L58.8201 21.696C58.4681 20.944 57.7001 20.528 56.6601 20.528C55.5721 20.528 54.8521 20.96 54.8521 21.68C54.8521 22.304 55.2521 22.672 56.1641 22.864L57.3961 23.104C59.2361 23.472 60.1161 24.288 60.1161 25.568C60.1161 27.088 58.7721 28.128 56.7881 28.128C55.0601 28.128 53.8281 27.456 53.2201 26.208L54.2761 25.648C54.7081 26.512 55.5561 26.976 56.7561 26.976C57.9721 26.976 58.7881 26.448 58.7881 25.648C58.7881 24.944 58.3721 24.56 57.3961 24.352L55.9401 24.064C54.3721 23.744 53.5241 22.944 53.5241 21.776ZM64.9504 27.968C64.6624 28.032 64.4064 28.08 64.1184 28.08C62.6784 28.08 61.9904 27.2 61.9904 25.824V16.16H63.3664V25.76C63.3664 26.496 63.7664 26.848 64.4384 26.848C64.5984 26.848 64.7744 26.832 64.9504 26.784V27.968ZM66.4719 16.064H68.3599V17.92H66.4719V16.064ZM66.7279 28V19.52H68.1039V28H66.7279ZM75.9649 28L73.0529 23.92L72.0449 24.912V28H70.6689V16.16H72.0449V23.328L75.8369 19.52H77.5809L73.9809 23.024L77.6449 28H75.9649Z" fill="#2A2859"/>
<path d="M586.002 28V16.16H587.426V28H586.002ZM595.269 28L592.357 23.92L591.349 24.912V28H589.973V16.16H591.349V23.328L595.141 19.52H596.885L593.285 23.024L596.949 28H595.269ZM603.85 28L600.938 23.92L599.93 24.912V28H598.554V16.16H599.93V23.328L603.722 19.52H605.466L601.866 23.024L605.53 28H603.85ZM612.287 25.488L613.263 26.032C612.815 27.088 611.743 28.144 609.839 28.144C607.391 28.144 605.935 26.32 605.935 23.664C605.935 21.136 607.487 19.36 609.711 19.36C611.599 19.36 613.215 20.688 613.215 23.04L613.183 24.016H607.311C607.407 26.096 608.415 26.976 609.951 26.976C611.119 26.976 611.871 26.304 612.287 25.488ZM609.711 20.512C608.511 20.512 607.471 21.136 607.311 22.944H611.871C611.887 21.232 610.847 20.512 609.711 20.512ZM618.725 21.776C618.725 20.4 620.021 19.36 621.893 19.36C623.461 19.36 624.613 20.048 625.061 21.168L624.021 21.696C623.669 20.944 622.901 20.528 621.861 20.528C620.773 20.528 620.053 20.96 620.053 21.68C620.053 22.304 620.453 22.672 621.365 22.864L622.597 23.104C624.437 23.472 625.317 24.288 625.317 25.568C625.317 27.088 623.973 28.128 621.989 28.128C620.261 28.128 619.029 27.456 618.421 26.208L619.477 25.648C619.909 26.512 620.757 26.976 621.957 26.976C623.173 26.976 623.989 26.448 623.989 25.648C623.989 24.944 623.573 24.56 622.597 24.352L621.141 24.064C619.573 23.744 618.725 22.944 618.725 21.776ZM630.151 27.968C629.863 28.032 629.607 28.08 629.319 28.08C627.879 28.08 627.191 27.2 627.191 25.824V16.16H628.567V25.76C628.567 26.496 628.967 26.848 629.639 26.848C629.799 26.848 629.975 26.832 630.151 26.784V27.968ZM632.617 18.032C632.009 18.032 631.529 17.568 631.529 16.944C631.529 16.336 632.009 15.872 632.617 15.872C633.209 15.872 633.689 16.336 633.689 16.944C633.689 17.568 633.209 18.032 632.617 18.032ZM631.929 28V19.52H633.305V28H631.929ZM641.166 28L638.254 23.92L637.246 24.912V28H635.87V16.16H637.246V23.328L641.038 19.52H642.782L639.182 23.024L642.846 28H641.166Z" fill="#2A2859"/>
<path d="M180.342 115.68H182.448V129H180.342V123.312H174.672V129H172.566V115.68H174.672V121.278H180.342V115.68ZM191.35 119.46H193.438L189.784 129H187.714L184.078 119.46H186.31L188.83 126.894L191.35 119.46ZM195.953 117.876C195.161 117.876 194.531 117.264 194.531 116.454C194.531 115.644 195.161 115.032 195.953 115.032C196.745 115.032 197.357 115.644 197.357 116.454C197.357 117.264 196.745 117.876 195.953 117.876ZM194.945 129V119.46H196.961V129H194.945ZM203.676 128.946C203.298 129.054 202.92 129.108 202.524 129.108C200.706 129.108 199.842 128.028 199.842 126.282V115.68H201.858V126.138C201.858 126.966 202.344 127.344 203.082 127.344C203.262 127.344 203.46 127.326 203.676 127.272V128.946ZM211.719 129L208.821 124.626L207.723 125.706V129H205.707V115.68H207.723V123.42L211.575 119.46H214.059L210.153 123.312L214.131 129H211.719ZM221.727 125.994L223.095 126.786C222.555 127.974 221.295 129.162 219.117 129.162C216.291 129.162 214.581 127.074 214.581 124.14C214.581 121.242 216.435 119.244 218.973 119.244C221.223 119.244 223.077 120.756 223.077 123.456L223.041 124.644H216.561C216.669 126.66 217.659 127.524 219.243 127.524C220.413 127.524 221.223 126.894 221.727 125.994ZM218.973 120.828C217.749 120.828 216.723 121.476 216.561 123.204H221.115C221.133 121.512 220.089 120.828 218.973 120.828ZM230.169 119.244C232.113 119.244 233.265 120.504 233.265 122.574V129H231.249V122.898C231.249 121.584 230.619 120.99 229.521 120.99C228.099 120.99 227.379 121.98 227.379 123.834V129H225.363V119.46H227.379V120.828C228.027 119.82 228.981 119.244 230.169 119.244ZM250.909 119.244C252.817 119.244 253.915 120.486 253.915 122.484V129H251.899V122.826C251.899 121.566 251.305 120.99 250.261 120.99C248.857 120.99 248.155 121.962 248.155 123.834V129H246.139V122.826C246.139 121.566 245.545 120.99 244.501 120.99C243.115 120.99 242.413 121.962 242.413 123.834V129H240.397V119.46H242.413V120.81C243.061 119.784 243.997 119.244 245.149 119.244C246.607 119.244 247.561 119.946 247.975 121.134C248.623 119.874 249.631 119.244 250.909 119.244ZM262.196 119.46H264.212V129H262.196V127.596C261.584 128.64 260.63 129.162 259.46 129.162C257.498 129.162 256.364 127.902 256.364 125.832V119.46H258.38V125.526C258.38 126.768 258.992 127.434 260.09 127.434C261.494 127.434 262.196 126.426 262.196 124.572V119.46ZM266.37 122.088C266.37 120.468 267.864 119.244 270.114 119.244C271.968 119.244 273.21 119.91 273.876 121.188L272.472 122.052C272.04 121.314 271.176 120.864 270.096 120.864C269.016 120.864 268.278 121.278 268.278 121.962C268.278 122.52 268.656 122.862 269.502 123.024L271.104 123.348C273.12 123.744 274.128 124.698 274.128 126.156C274.128 127.956 272.562 129.162 270.204 129.162C268.206 129.162 266.784 128.406 266.046 127.02L267.45 126.138C267.972 127.02 268.89 127.524 270.15 127.524C271.374 127.524 272.202 127.038 272.202 126.246C272.202 125.598 271.806 125.238 270.924 125.058L269.16 124.716C267.36 124.374 266.37 123.456 266.37 122.088ZM275.967 115.32H278.433V117.75H275.967V115.32ZM276.201 129V119.46H278.217V129H276.201ZM287.111 129L284.213 124.626L283.115 125.706V129H281.099V115.68H283.115V123.42L286.967 119.46H289.451L285.545 123.312L289.523 129H287.111ZM297.3 129L294.402 124.626L293.304 125.706V129H291.288V115.68H293.304V123.42L297.156 119.46H299.64L295.734 123.312L299.712 129H297.3ZM309.716 128.946C309.338 129.054 308.96 129.108 308.564 129.108C306.746 129.108 305.882 128.028 305.882 126.282V115.68H307.898V126.138C307.898 126.966 308.384 127.344 309.122 127.344C309.302 127.344 309.5 127.326 309.716 127.272V128.946ZM312.754 117.876C311.962 117.876 311.332 117.264 311.332 116.454C311.332 115.644 311.962 115.032 312.754 115.032C313.546 115.032 314.158 115.644 314.158 116.454C314.158 117.264 313.546 117.876 312.754 117.876ZM311.746 129V119.46H313.762V129H311.746ZM322.656 129L319.758 124.626L318.66 125.706V129H316.644V115.68H318.66V123.42L322.512 119.46H324.996L321.09 123.312L325.068 129H322.656ZM332.664 125.994L334.032 126.786C333.492 127.974 332.232 129.162 330.054 129.162C327.228 129.162 325.518 127.074 325.518 124.14C325.518 121.242 327.372 119.244 329.91 119.244C332.16 119.244 334.014 120.756 334.014 123.456L333.978 124.644H327.498C327.606 126.66 328.596 127.524 330.18 127.524C331.35 127.524 332.16 126.894 332.664 125.994ZM329.91 120.828C328.686 120.828 327.66 121.476 327.498 123.204H332.052C332.07 121.512 331.026 120.828 329.91 120.828ZM340.675 119.244C342.061 119.244 342.961 120.162 342.961 121.8V123.06L341.341 123.348V122.376C341.341 121.512 341.035 120.918 340.099 120.918C339.073 120.918 338.317 121.602 338.317 123.42V129H336.301V119.46H338.317V120.738C338.857 119.676 339.847 119.244 340.675 119.244ZM355.842 115.68H357.858V129H355.842V127.272C355.104 128.604 353.952 129.144 352.854 129.144C350.55 129.144 348.894 127.164 348.894 124.266C348.894 121.26 350.568 119.262 353.088 119.262C354.168 119.262 355.248 119.748 355.842 120.918V115.68ZM353.394 127.38C354.852 127.38 355.842 126.39 355.842 124.158C355.842 121.944 354.87 120.882 353.394 120.882C352.008 120.882 350.982 121.998 350.982 124.158C350.982 126.3 352.008 127.38 353.394 127.38ZM366.137 119.46H368.153V129H366.137V127.596C365.525 128.64 364.571 129.162 363.401 129.162C361.439 129.162 360.305 127.902 360.305 125.832V119.46H362.321V125.526C362.321 126.768 362.933 127.434 364.031 127.434C365.435 127.434 366.137 126.426 366.137 124.572V119.46ZM373.936 115.5C376.42 115.5 378.166 116.922 378.166 119.19C378.166 121.44 376.42 122.664 374.44 123.222L374.404 124.77H372.766L372.658 122.07C374.602 121.782 376.006 121.044 376.006 119.298C376.006 118.128 375.196 117.372 373.864 117.372C372.658 117.372 371.74 118.038 371.146 119.226L369.418 118.488C370.354 116.49 372.064 115.5 373.936 115.5ZM372.298 129V126.336H374.926V129H372.298Z" fill="#2A2859"/>
<rect x="172" y="146" width="22" height="22" fill="#2A2859"/>
<rect x="172" y="146" width="22" height="22" stroke="#2A2859" stroke-width="2"/>
<path fill-rule="evenodd" clip-rule="evenodd" d="M188.778 154.161L181.498 161.441L177.218 157.161L178.278 156.1L181.498 159.32L187.718 153.1L188.778 154.161Z" fill="white"/>
<path d="M208.968 157.816L212.6 163H211.224L207.768 157.944H205.528V163H204.408V151.16H208.6C210.792 151.16 212.376 152.52 212.376 154.552C212.376 156.36 210.952 157.672 208.968 157.816ZM205.528 156.92H208.36C210.088 156.92 211.224 156.152 211.224 154.552C211.224 152.952 210.072 152.184 208.568 152.184H205.528V156.92ZM217.096 163.128C215 163.128 213.32 161.4 213.32 158.744C213.32 156.12 214.984 154.392 217.096 154.392C219.208 154.392 220.872 156.12 220.872 158.744C220.872 161.4 219.192 163.128 217.096 163.128ZM217.096 162.168C218.552 162.168 219.752 161.016 219.752 158.744C219.752 156.488 218.536 155.352 217.096 155.352C215.656 155.352 214.44 156.488 214.44 158.744C214.44 161.016 215.64 162.168 217.096 162.168ZM228.546 157.048C228.194 155.992 227.346 155.352 226.242 155.352C224.562 155.352 223.458 156.648 223.458 158.648C223.458 160.84 224.562 162.168 226.37 162.168C227.49 162.168 228.386 161.512 228.834 160.408L229.634 160.856C229.122 162.264 227.81 163.128 226.338 163.128C223.89 163.128 222.338 161.352 222.338 158.648C222.338 156.184 224.002 154.392 226.274 154.392C227.938 154.392 229.138 155.384 229.474 156.728L228.546 157.048ZM236.853 163L233.733 158.792L232.693 159.784V163H231.605V151.16H232.693V158.504L236.725 154.52H238.165L234.469 158.072L238.229 163H236.853Z" fill="#2A2859"/>
<rect x="172" y="186" width="22" height="22" fill="#2A2859"/>
<rect x="172" y="186" width="22" height="22" stroke="#2A2859" stroke-width="2"/>
<path fill-rule="evenodd" clip-rule="evenodd" d="M188.778 194.161L181.498 201.441L177.218 197.161L178.278 196.1L181.498 199.32L187.718 193.1L188.778 194.161Z" fill="white"/>
<path d="M211.544 191.16H212.664V203H211.544V197.56H205.528V203H204.408V191.16H205.528V196.504H211.544V191.16ZM218.486 203.128C216.39 203.128 214.71 201.4 214.71 198.744C214.71 196.12 216.374 194.392 218.486 194.392C220.598 194.392 222.262 196.12 222.262 198.744C222.262 201.4 220.582 203.128 218.486 203.128ZM218.486 202.168C219.942 202.168 221.142 201.016 221.142 198.744C221.142 196.488 219.926 195.352 218.486 195.352C217.046 195.352 215.83 196.488 215.83 198.744C215.83 201.016 217.03 202.168 218.486 202.168ZM229.201 194.52H230.289V203H229.201V201.704C228.689 202.616 227.793 203.128 226.753 203.128C225.089 203.128 224.081 202.056 224.081 200.216V194.52H225.169V200.12C225.169 201.512 225.873 202.152 227.057 202.152C228.561 202.152 229.201 200.952 229.201 199.288V194.52ZM232.36 196.728C232.36 195.384 233.624 194.392 235.4 194.392C236.936 194.392 238.12 195.128 238.472 196.248L237.576 196.6C237.24 195.784 236.456 195.352 235.368 195.352C234.184 195.352 233.416 195.848 233.416 196.632C233.416 197.336 233.88 197.768 234.888 197.976L236.008 198.2C237.864 198.568 238.728 199.368 238.728 200.632C238.728 202.104 237.416 203.128 235.528 203.128C233.816 203.128 232.616 202.456 232.04 201.176L232.968 200.792C233.368 201.688 234.248 202.168 235.496 202.168C236.808 202.168 237.672 201.592 237.672 200.728C237.672 199.928 237.224 199.496 236.104 199.256L234.728 198.968C233.176 198.648 232.36 197.864 232.36 196.728ZM246.462 200.6L247.262 201.048C246.862 202.072 245.806 203.128 243.918 203.128C241.534 203.128 240.126 201.352 240.126 198.648C240.126 196.168 241.598 194.392 243.806 194.392C245.63 194.392 247.198 195.704 247.198 198.008L247.166 198.952H241.23C241.326 201.208 242.398 202.168 244.03 202.168C245.31 202.168 246.062 201.432 246.462 200.6ZM243.806 195.352C242.526 195.352 241.374 196.04 241.23 198.056H246.126C246.174 196.152 245.054 195.352 243.806 195.352Z" fill="#2A2859"/>
<rect x="172" y="226" width="22" height="22" stroke="#2A2859" stroke-width="2"/>
<path d="M212.024 231.16V232.216H208.312V243H207.192V232.216H203.48V231.16H212.024ZM218.187 240.6L218.987 241.048C218.587 242.072 217.531 243.128 215.643 243.128C213.259 243.128 211.851 241.352 211.851 238.648C211.851 236.168 213.323 234.392 215.531 234.392C217.355 234.392 218.923 235.704 218.923 238.008L218.891 238.952H212.955C213.051 241.208 214.123 242.168 215.755 242.168C217.035 242.168 217.787 241.432 218.187 240.6ZM215.531 235.352C214.251 235.352 213.099 236.04 212.955 238.056H217.851C217.899 236.152 216.779 235.352 215.531 235.352ZM226.687 237.048C226.335 235.992 225.487 235.352 224.383 235.352C222.703 235.352 221.599 236.648 221.599 238.648C221.599 240.84 222.703 242.168 224.511 242.168C225.631 242.168 226.527 241.512 226.975 240.408L227.775 240.856C227.263 242.264 225.951 243.128 224.479 243.128C222.031 243.128 220.479 241.352 220.479 238.648C220.479 236.184 222.143 234.392 224.415 234.392C226.079 234.392 227.279 235.384 227.615 236.728L226.687 237.048ZM233.297 234.392C234.993 234.392 235.985 235.432 235.985 237.336V243H234.898V237.496C234.898 235.96 234.194 235.384 233.01 235.384C231.521 235.384 230.833 236.536 230.833 238.232V243H229.745V231.16H230.833V235.832C231.345 234.904 232.273 234.392 233.297 234.392ZM241.956 234.392C243.652 234.392 244.644 235.432 244.644 237.336V243H243.556V237.496C243.556 235.96 242.852 235.384 241.668 235.384C240.18 235.384 239.492 236.536 239.492 238.232V243H238.404V234.52H239.492V235.832C240.004 234.904 240.932 234.392 241.956 234.392ZM250.296 243.128C248.2 243.128 246.52 241.4 246.52 238.744C246.52 236.12 248.184 234.392 250.296 234.392C252.408 234.392 254.072 236.12 254.072 238.744C254.072 241.4 252.392 243.128 250.296 243.128ZM250.296 242.168C251.752 242.168 252.952 241.016 252.952 238.744C252.952 236.488 251.736 235.352 250.296 235.352C248.856 235.352 247.64 236.488 247.64 238.744C247.64 241.016 248.84 242.168 250.296 242.168Z" fill="#2A2859"/>
<rect x="172" y="266" width="22" height="22" stroke="#2A2859" stroke-width="2"/>
<path d="M204.408 283V271.16H208.28C211.208 271.16 213.464 273.448 213.464 277.016C213.464 280.584 211.208 283 208.28 283H204.408ZM205.528 281.976H208.056C210.52 281.976 212.312 280.312 212.312 277.016C212.312 273.752 210.504 272.184 208.024 272.184H205.528V281.976ZM221.762 283H220.77C220.642 282.536 220.546 281.976 220.546 281.336C220.114 282.328 219.01 283.128 217.634 283.128C216.13 283.128 214.994 282.152 214.994 280.696C214.994 278.952 216.562 278.04 218.306 278.04C218.994 278.04 219.666 278.12 220.354 278.36V277.24C220.354 276.136 219.682 275.384 218.37 275.384C217.314 275.384 216.418 275.848 215.97 277.144L215.01 276.856C215.65 275.064 216.946 274.392 218.434 274.392C220.53 274.392 221.41 275.656 221.41 277.112V280.6C221.41 281.56 221.57 282.424 221.762 283ZM220.354 279.48V279.288C219.698 279.016 219.026 278.936 218.37 278.936C217.09 278.936 216.082 279.512 216.082 280.632C216.082 281.656 216.802 282.2 217.826 282.2C218.93 282.2 220.354 281.544 220.354 279.48ZM227.512 274.392C229.208 274.392 230.2 275.432 230.2 277.336V283H229.112V277.496C229.112 275.96 228.408 275.384 227.224 275.384C225.736 275.384 225.048 276.536 225.048 278.232V283H223.96V274.52H225.048V275.832C225.56 274.904 226.488 274.392 227.512 274.392ZM238.284 277.048C237.932 275.992 237.084 275.352 235.98 275.352C234.3 275.352 233.196 276.648 233.196 278.648C233.196 280.84 234.3 282.168 236.108 282.168C237.228 282.168 238.124 281.512 238.572 280.408L239.372 280.856C238.86 282.264 237.548 283.128 236.076 283.128C233.628 283.128 232.076 281.352 232.076 278.648C232.076 276.184 233.74 274.392 236.012 274.392C237.676 274.392 238.876 275.384 239.212 276.728L238.284 277.048ZM246.79 280.6L247.59 281.048C247.19 282.072 246.134 283.128 244.246 283.128C241.862 283.128 240.454 281.352 240.454 278.648C240.454 276.168 241.926 274.392 244.134 274.392C245.958 274.392 247.526 275.704 247.526 278.008L247.494 278.952H241.558C241.654 281.208 242.726 282.168 244.358 282.168C245.638 282.168 246.39 281.432 246.79 280.6ZM244.134 275.352C242.854 275.352 241.702 276.04 241.558 278.056H246.454C246.502 276.152 245.382 275.352 244.134 275.352Z" fill="#2A2859"/>
<path d="M743.342 115.68H745.448V129H743.342V123.312H737.672V129H735.566V115.68H737.672V121.278H743.342V115.68ZM754.35 119.46H756.438L752.784 129H750.714L747.078 119.46H749.31L751.83 126.894L754.35 119.46ZM758.953 117.876C758.161 117.876 757.531 117.264 757.531 116.454C757.531 115.644 758.161 115.032 758.953 115.032C759.745 115.032 760.357 115.644 760.357 116.454C760.357 117.264 759.745 117.876 758.953 117.876ZM757.945 129V119.46H759.961V129H757.945ZM766.676 128.946C766.298 129.054 765.92 129.108 765.524 129.108C763.706 129.108 762.842 128.028 762.842 126.282V115.68H764.858V126.138C764.858 126.966 765.344 127.344 766.082 127.344C766.262 127.344 766.46 127.326 766.676 127.272V128.946ZM774.719 129L771.821 124.626L770.723 125.706V129H768.707V115.68H770.723V123.42L774.575 119.46H777.059L773.153 123.312L777.131 129H774.719ZM784.727 125.994L786.095 126.786C785.555 127.974 784.295 129.162 782.117 129.162C779.291 129.162 777.581 127.074 777.581 124.14C777.581 121.242 779.435 119.244 781.973 119.244C784.223 119.244 786.077 120.756 786.077 123.456L786.041 124.644H779.561C779.669 126.66 780.659 127.524 782.243 127.524C783.413 127.524 784.223 126.894 784.727 125.994ZM781.973 120.828C780.749 120.828 779.723 121.476 779.561 123.204H784.115C784.133 121.512 783.089 120.828 781.973 120.828ZM793.169 119.244C795.113 119.244 796.265 120.504 796.265 122.574V129H794.249V122.898C794.249 121.584 793.619 120.99 792.521 120.99C791.099 120.99 790.379 121.98 790.379 123.834V129H788.363V119.46H790.379V120.828C791.027 119.82 791.981 119.244 793.169 119.244ZM813.909 119.244C815.817 119.244 816.915 120.486 816.915 122.484V129H814.899V122.826C814.899 121.566 814.305 120.99 813.261 120.99C811.857 120.99 811.155 121.962 811.155 123.834V129H809.139V122.826C809.139 121.566 808.545 120.99 807.501 120.99C806.115 120.99 805.413 121.962 805.413 123.834V129H803.397V119.46H805.413V120.81C806.061 119.784 806.997 119.244 808.149 119.244C809.607 119.244 810.561 119.946 810.975 121.134C811.623 119.874 812.631 119.244 813.909 119.244ZM825.196 119.46H827.212V129H825.196V127.596C824.584 128.64 823.63 129.162 822.46 129.162C820.498 129.162 819.364 127.902 819.364 125.832V119.46H821.38V125.526C821.38 126.768 821.992 127.434 823.09 127.434C824.494 127.434 825.196 126.426 825.196 124.572V119.46ZM829.37 122.088C829.37 120.468 830.864 119.244 833.114 119.244C834.968 119.244 836.21 119.91 836.876 121.188L835.472 122.052C835.04 121.314 834.176 120.864 833.096 120.864C832.016 120.864 831.278 121.278 831.278 121.962C831.278 122.52 831.656 122.862 832.502 123.024L834.104 123.348C836.12 123.744 837.128 124.698 837.128 126.156C837.128 127.956 835.562 129.162 833.204 129.162C831.206 129.162 829.784 128.406 829.046 127.02L830.45 126.138C830.972 127.02 831.89 127.524 833.15 127.524C834.374 127.524 835.202 127.038 835.202 126.246C835.202 125.598 834.806 125.238 833.924 125.058L832.16 124.716C830.36 124.374 829.37 123.456 829.37 122.088ZM838.967 115.32H841.433V117.75H838.967V115.32ZM839.201 129V119.46H841.217V129H839.201ZM850.111 129L847.213 124.626L846.115 125.706V129H844.099V115.68H846.115V123.42L849.967 119.46H852.451L848.545 123.312L852.523 129H850.111ZM860.3 129L857.402 124.626L856.304 125.706V129H854.288V115.68H856.304V123.42L860.156 119.46H862.64L858.734 123.312L862.712 129H860.3ZM872.716 128.946C872.338 129.054 871.96 129.108 871.564 129.108C869.746 129.108 868.882 128.028 868.882 126.282V115.68H870.898V126.138C870.898 126.966 871.384 127.344 872.122 127.344C872.302 127.344 872.5 127.326 872.716 127.272V128.946ZM875.754 117.876C874.962 117.876 874.332 117.264 874.332 116.454C874.332 115.644 874.962 115.032 875.754 115.032C876.546 115.032 877.158 115.644 877.158 116.454C877.158 117.264 876.546 117.876 875.754 117.876ZM874.746 129V119.46H876.762V129H874.746ZM885.656 129L882.758 124.626L881.66 125.706V129H879.644V115.68H881.66V123.42L885.512 119.46H887.996L884.09 123.312L888.068 129H885.656ZM895.664 125.994L897.032 126.786C896.492 127.974 895.232 129.162 893.054 129.162C890.228 129.162 888.518 127.074 888.518 124.14C888.518 121.242 890.372 119.244 892.91 119.244C895.16 119.244 897.014 120.756 897.014 123.456L896.978 124.644H890.498C890.606 126.66 891.596 127.524 893.18 127.524C894.35 127.524 895.16 126.894 895.664 125.994ZM892.91 120.828C891.686 120.828 890.66 121.476 890.498 123.204H895.052C895.07 121.512 894.026 120.828 892.91 120.828ZM903.675 119.244C905.061 119.244 905.961 120.162 905.961 121.8V123.06L904.341 123.348V122.376C904.341 121.512 904.035 120.918 903.099 120.918C902.073 120.918 901.317 121.602 901.317 123.42V129H899.301V119.46H901.317V120.738C901.857 119.676 902.847 119.244 903.675 119.244ZM918.842 115.68H920.858V129H918.842V127.272C918.104 128.604 916.952 129.144 915.854 129.144C913.55 129.144 911.894 127.164 911.894 124.266C911.894 121.26 913.568 119.262 916.088 119.262C917.168 119.262 918.248 119.748 918.842 120.918V115.68ZM916.394 127.38C917.852 127.38 918.842 126.39 918.842 124.158C918.842 121.944 917.87 120.882 916.394 120.882C915.008 120.882 913.982 121.998 913.982 124.158C913.982 126.3 915.008 127.38 916.394 127.38ZM929.137 119.46H931.153V129H929.137V127.596C928.525 128.64 927.571 129.162 926.401 129.162C924.439 129.162 923.305 127.902 923.305 125.832V119.46H925.321V125.526C925.321 126.768 925.933 127.434 927.031 127.434C928.435 127.434 929.137 126.426 929.137 124.572V119.46ZM936.936 115.5C939.42 115.5 941.166 116.922 941.166 119.19C941.166 121.44 939.42 122.664 937.44 123.222L937.404 124.77H935.766L935.658 122.07C937.602 121.782 939.006 121.044 939.006 119.298C939.006 118.128 938.196 117.372 936.864 117.372C935.658 117.372 934.74 118.038 934.146 119.226L932.418 118.488C933.354 116.49 935.064 115.5 936.936 115.5ZM935.298 129V126.336H937.926V129H935.298Z" fill="#2A2859"/>
<rect x="735" y="146" width="22" height="22" fill="#2A2859"/>
<rect x="735" y="146" width="22" height="22" stroke="#2A2859" stroke-width="2"/>
<path fill-rule="evenodd" clip-rule="evenodd" d="M751.778 154.161L744.498 161.441L740.218 157.161L741.278 156.1L744.498 159.32L750.718 153.1L751.778 154.161Z" fill="white"/>
<path d="M771.968 157.816L775.6 163H774.224L770.768 157.944H768.528V163H767.408V151.16H771.6C773.792 151.16 775.376 152.52 775.376 154.552C775.376 156.36 773.952 157.672 771.968 157.816ZM768.528 156.92H771.36C773.088 156.92 774.224 156.152 774.224 154.552C774.224 152.952 773.072 152.184 771.568 152.184H768.528V156.92ZM780.096 163.128C778 163.128 776.32 161.4 776.32 158.744C776.32 156.12 777.984 154.392 780.096 154.392C782.208 154.392 783.872 156.12 783.872 158.744C783.872 161.4 782.192 163.128 780.096 163.128ZM780.096 162.168C781.552 162.168 782.752 161.016 782.752 158.744C782.752 156.488 781.536 155.352 780.096 155.352C778.656 155.352 777.44 156.488 777.44 158.744C777.44 161.016 778.64 162.168 780.096 162.168ZM791.546 157.048C791.194 155.992 790.346 155.352 789.242 155.352C787.562 155.352 786.458 156.648 786.458 158.648C786.458 160.84 787.562 162.168 789.37 162.168C790.49 162.168 791.386 161.512 791.834 160.408L792.634 160.856C792.122 162.264 790.81 163.128 789.338 163.128C786.89 163.128 785.338 161.352 785.338 158.648C785.338 156.184 787.002 154.392 789.274 154.392C790.938 154.392 792.138 155.384 792.474 156.728L791.546 157.048ZM799.853 163L796.733 158.792L795.693 159.784V163H794.605V151.16H795.693V158.504L799.725 154.52H801.165L797.469 158.072L801.229 163H799.853Z" fill="#2A2859"/>
<rect x="735" y="186" width="22" height="22" fill="#2A2859"/>
<rect x="735" y="186" width="22" height="22" stroke="#2A2859" stroke-width="2"/>
<path fill-rule="evenodd" clip-rule="evenodd" d="M751.778 194.161L744.498 201.441L740.218 197.161L741.278 196.1L744.498 199.32L750.718 193.1L751.778 194.161Z" fill="white"/>
<path d="M774.544 191.16H775.664V203H774.544V197.56H768.528V203H767.408V191.16H768.528V196.504H774.544V191.16ZM781.486 203.128C779.39 203.128 777.71 201.4 777.71 198.744C777.71 196.12 779.374 194.392 781.486 194.392C783.598 194.392 785.262 196.12 785.262 198.744C785.262 201.4 783.582 203.128 781.486 203.128ZM781.486 202.168C782.942 202.168 784.142 201.016 784.142 198.744C784.142 196.488 782.926 195.352 781.486 195.352C780.046 195.352 778.83 196.488 778.83 198.744C778.83 201.016 780.03 202.168 781.486 202.168ZM792.201 194.52H793.289V203H792.201V201.704C791.689 202.616 790.793 203.128 789.753 203.128C788.089 203.128 787.081 202.056 787.081 200.216V194.52H788.169V200.12C788.169 201.512 788.873 202.152 790.057 202.152C791.561 202.152 792.201 200.952 792.201 199.288V194.52ZM795.36 196.728C795.36 195.384 796.624 194.392 798.4 194.392C799.936 194.392 801.12 195.128 801.472 196.248L800.576 196.6C800.24 195.784 799.456 195.352 798.368 195.352C797.184 195.352 796.416 195.848 796.416 196.632C796.416 197.336 796.88 197.768 797.888 197.976L799.008 198.2C800.864 198.568 801.728 199.368 801.728 200.632C801.728 202.104 800.416 203.128 798.528 203.128C796.816 203.128 795.616 202.456 795.04 201.176L795.968 200.792C796.368 201.688 797.248 202.168 798.496 202.168C799.808 202.168 800.672 201.592 800.672 200.728C800.672 199.928 800.224 199.496 799.104 199.256L797.728 198.968C796.176 198.648 795.36 197.864 795.36 196.728ZM809.462 200.6L810.262 201.048C809.862 202.072 808.806 203.128 806.918 203.128C804.534 203.128 803.126 201.352 803.126 198.648C803.126 196.168 804.598 194.392 806.806 194.392C808.63 194.392 810.198 195.704 810.198 198.008L810.166 198.952H804.23C804.326 201.208 805.398 202.168 807.03 202.168C808.31 202.168 809.062 201.432 809.462 200.6ZM806.806 195.352C805.526 195.352 804.374 196.04 804.23 198.056H809.126C809.174 196.152 808.054 195.352 806.806 195.352Z" fill="#2A2859"/>
<rect x="735" y="226" width="22" height="22" stroke="#2A2859" stroke-width="2"/>
<path d="M775.024 231.16V232.216H771.312V243H770.192V232.216H766.48V231.16H775.024ZM781.187 240.6L781.987 241.048C781.587 242.072 780.531 243.128 778.643 243.128C776.259 243.128 774.851 241.352 774.851 238.648C774.851 236.168 776.323 234.392 778.531 234.392C780.355 234.392 781.923 235.704 781.923 238.008L781.891 238.952H775.955C776.051 241.208 777.123 242.168 778.755 242.168C780.035 242.168 780.787 241.432 781.187 240.6ZM778.531 235.352C777.251 235.352 776.099 236.04 775.955 238.056H780.851C780.899 236.152 779.779 235.352 778.531 235.352ZM789.687 237.048C789.335 235.992 788.487 235.352 787.383 235.352C785.703 235.352 784.599 236.648 784.599 238.648C784.599 240.84 785.703 242.168 787.511 242.168C788.631 242.168 789.527 241.512 789.975 240.408L790.775 240.856C790.263 242.264 788.951 243.128 787.479 243.128C785.031 243.128 783.479 241.352 783.479 238.648C783.479 236.184 785.143 234.392 787.415 234.392C789.079 234.392 790.279 235.384 790.615 236.728L789.687 237.048ZM796.297 234.392C797.993 234.392 798.985 235.432 798.985 237.336V243H797.898V237.496C797.898 235.96 797.194 235.384 796.01 235.384C794.521 235.384 793.833 236.536 793.833 238.232V243H792.745V231.16H793.833V235.832C794.345 234.904 795.273 234.392 796.297 234.392ZM804.956 234.392C806.652 234.392 807.644 235.432 807.644 237.336V243H806.556V237.496C806.556 235.96 805.852 235.384 804.668 235.384C803.18 235.384 802.492 236.536 802.492 238.232V243H801.404V234.52H802.492V235.832C803.004 234.904 803.932 234.392 804.956 234.392ZM813.296 243.128C811.2 243.128 809.52 241.4 809.52 238.744C809.52 236.12 811.184 234.392 813.296 234.392C815.408 234.392 817.072 236.12 817.072 238.744C817.072 241.4 815.392 243.128 813.296 243.128ZM813.296 242.168C814.752 242.168 815.952 241.016 815.952 238.744C815.952 236.488 814.736 235.352 813.296 235.352C811.856 235.352 810.64 236.488 810.64 238.744C810.64 241.016 811.84 242.168 813.296 242.168Z" fill="#2A2859"/>
<rect x="735" y="266" width="22" height="22" stroke="#2A2859" stroke-width="2"/>
<path d="M767.408 283V271.16H771.28C774.208 271.16 776.464 273.448 776.464 277.016C776.464 280.584 774.208 283 771.28 283H767.408ZM768.528 281.976H771.056C773.52 281.976 775.312 280.312 775.312 277.016C775.312 273.752 773.504 272.184 771.024 272.184H768.528V281.976ZM784.762 283H783.77C783.642 282.536 783.546 281.976 783.546 281.336C783.114 282.328 782.01 283.128 780.634 283.128C779.13 283.128 777.994 282.152 777.994 280.696C777.994 278.952 779.562 278.04 781.306 278.04C781.994 278.04 782.666 278.12 783.354 278.36V277.24C783.354 276.136 782.682 275.384 781.37 275.384C780.314 275.384 779.418 275.848 778.97 277.144L778.01 276.856C778.65 275.064 779.946 274.392 781.434 274.392C783.53 274.392 784.41 275.656 784.41 277.112V280.6C784.41 281.56 784.57 282.424 784.762 283ZM783.354 279.48V279.288C782.698 279.016 782.026 278.936 781.37 278.936C780.09 278.936 779.082 279.512 779.082 280.632C779.082 281.656 779.802 282.2 780.826 282.2C781.93 282.2 783.354 281.544 783.354 279.48ZM790.512 274.392C792.208 274.392 793.2 275.432 793.2 277.336V283H792.112V277.496C792.112 275.96 791.408 275.384 790.224 275.384C788.736 275.384 788.048 276.536 788.048 278.232V283H786.96V274.52H788.048V275.832C788.56 274.904 789.488 274.392 790.512 274.392ZM801.284 277.048C800.932 275.992 800.084 275.352 798.98 275.352C797.3 275.352 796.196 276.648 796.196 278.648C796.196 280.84 797.3 282.168 799.108 282.168C800.228 282.168 801.124 281.512 801.572 280.408L802.372 280.856C801.86 282.264 800.548 283.128 799.076 283.128C796.628 283.128 795.076 281.352 795.076 278.648C795.076 276.184 796.74 274.392 799.012 274.392C800.676 274.392 801.876 275.384 802.212 276.728L801.284 277.048ZM809.79 280.6L810.59 281.048C810.19 282.072 809.134 283.128 807.246 283.128C804.862 283.128 803.454 281.352 803.454 278.648C803.454 276.168 804.926 274.392 807.134 274.392C808.958 274.392 810.526 275.704 810.526 278.008L810.494 278.952H804.558C804.654 281.208 805.726 282.168 807.358 282.168C808.638 282.168 809.39 281.432 809.79 280.6ZM807.134 275.352C805.854 275.352 804.702 276.04 804.558 278.056H809.454C809.502 276.152 808.382 275.352 807.134 275.352Z" fill="#2A2859"/>
<rect x="172" y="316" width="173" height="46" fill="#2A2859"/>
<rect x="172" y="316" width="173" height="46" stroke="#2A2859" stroke-width="2"/>
<path d="M192.672 343.056H198.558V345H190.566V331.68H192.672V343.056ZM207.893 345H206.039C205.895 344.514 205.805 343.938 205.769 343.2C205.319 344.19 204.311 345.162 202.655 345.162C200.927 345.162 199.703 343.992 199.703 342.336C199.703 340.266 201.539 339.24 203.591 339.24C204.239 339.24 204.851 339.294 205.517 339.474V338.574C205.517 337.548 204.869 336.882 203.699 336.882C202.601 336.882 201.827 337.476 201.467 338.592L199.757 338.07C200.441 336.054 202.079 335.244 203.789 335.244C206.327 335.244 207.479 336.738 207.479 338.556V342.246C207.479 343.38 207.659 344.388 207.893 345ZM205.517 341.058V340.842C204.941 340.644 204.383 340.572 203.789 340.572C202.601 340.572 201.683 341.112 201.683 342.156C201.683 343.038 202.313 343.596 203.267 343.596C204.239 343.596 205.517 343.02 205.517 341.058ZM219.294 337.026H217.296V337.242C217.62 337.692 217.782 338.214 217.782 338.754C217.782 340.482 216.45 342.21 213.678 342.21H213.21C212.238 342.21 211.608 342.534 211.608 343.11C211.608 343.506 211.914 343.794 212.526 343.794H216.504C218.142 343.794 219.078 344.64 219.078 345.936C219.078 347.898 217.08 349.032 213.894 349.032C211.104 349.032 209.232 348.33 208.746 346.476L210.708 346.098C211.158 347.25 212.202 347.556 213.948 347.556C215.82 347.556 217.152 347.052 217.152 346.17C217.152 345.756 216.918 345.45 216.27 345.45H211.932C210.438 345.45 209.664 344.64 209.664 343.632C209.664 342.66 210.528 341.886 211.716 341.652C210.402 341.076 209.754 339.852 209.754 338.7C209.754 336.99 211.14 335.244 213.786 335.244C214.956 335.244 215.874 335.658 216.414 336.252V335.46H219.294V337.026ZM213.786 340.752C215.172 340.752 215.82 339.78 215.82 338.736C215.82 337.692 215.172 336.738 213.786 336.738C212.418 336.738 211.752 337.692 211.752 338.736C211.752 339.78 212.418 340.752 213.786 340.752ZM225.24 335.244C226.626 335.244 227.526 336.162 227.526 337.8V339.06L225.906 339.348V338.376C225.906 337.512 225.6 336.918 224.664 336.918C223.638 336.918 222.882 337.602 222.882 339.42V345H220.866V335.46H222.882V336.738C223.422 335.676 224.412 335.244 225.24 335.244ZM235.655 341.994L237.023 342.786C236.483 343.974 235.223 345.162 233.045 345.162C230.219 345.162 228.509 343.074 228.509 340.14C228.509 337.242 230.363 335.244 232.901 335.244C235.151 335.244 237.005 336.756 237.005 339.456L236.969 340.644H230.489C230.597 342.66 231.587 343.524 233.171 343.524C234.341 343.524 235.151 342.894 235.655 341.994ZM232.901 336.828C231.677 336.828 230.651 337.476 230.489 339.204H235.043C235.061 337.512 234.017 336.828 232.901 336.828ZM250.249 341.994L251.617 342.786C251.077 343.974 249.817 345.162 247.639 345.162C244.813 345.162 243.103 343.074 243.103 340.14C243.103 337.242 244.957 335.244 247.495 335.244C249.745 335.244 251.599 336.756 251.599 339.456L251.563 340.644H245.083C245.191 342.66 246.181 343.524 247.765 343.524C248.935 343.524 249.745 342.894 250.249 341.994ZM247.495 336.828C246.271 336.828 245.245 337.476 245.083 339.204H249.637C249.655 337.512 248.611 336.828 247.495 336.828ZM258.692 335.244C260.636 335.244 261.788 336.504 261.788 338.574V345H259.772V338.898C259.772 337.584 259.142 336.99 258.044 336.99C256.622 336.99 255.902 337.98 255.902 339.834V345H253.886V335.46H255.902V336.828C256.55 335.82 257.504 335.244 258.692 335.244ZM270.868 331.68H272.884V345H270.868V343.272C270.13 344.604 268.978 345.144 267.88 345.144C265.576 345.144 263.92 343.164 263.92 340.266C263.92 337.26 265.594 335.262 268.114 335.262C269.194 335.262 270.274 335.748 270.868 336.918V331.68ZM268.42 343.38C269.878 343.38 270.868 342.39 270.868 340.158C270.868 337.944 269.896 336.882 268.42 336.882C267.034 336.882 266.008 337.998 266.008 340.158C266.008 342.3 267.034 343.38 268.42 343.38ZM279.903 335.244C281.289 335.244 282.189 336.162 282.189 337.8V339.06L280.569 339.348V338.376C280.569 337.512 280.263 336.918 279.327 336.918C278.301 336.918 277.545 337.602 277.545 339.42V345H275.529V335.46H277.545V336.738C278.085 335.676 279.075 335.244 279.903 335.244ZM285.214 333.876C284.422 333.876 283.792 333.264 283.792 332.454C283.792 331.644 284.422 331.032 285.214 331.032C286.006 331.032 286.618 331.644 286.618 332.454C286.618 333.264 286.006 333.876 285.214 333.876ZM284.206 345V335.46H286.222V345H284.206ZM293.91 335.244C295.854 335.244 297.006 336.504 297.006 338.574V345H294.99V338.898C294.99 337.584 294.36 336.99 293.262 336.99C291.84 336.99 291.12 337.98 291.12 339.834V345H289.104V335.46H291.12V336.828C291.768 335.82 292.722 335.244 293.91 335.244ZM308.894 337.026H306.896V337.242C307.22 337.692 307.382 338.214 307.382 338.754C307.382 340.482 306.05 342.21 303.278 342.21H302.81C301.838 342.21 301.208 342.534 301.208 343.11C301.208 343.506 301.514 343.794 302.126 343.794H306.104C307.742 343.794 308.678 344.64 308.678 345.936C308.678 347.898 306.68 349.032 303.494 349.032C300.704 349.032 298.832 348.33 298.346 346.476L300.308 346.098C300.758 347.25 301.802 347.556 303.548 347.556C305.42 347.556 306.752 347.052 306.752 346.17C306.752 345.756 306.518 345.45 305.87 345.45H301.532C300.038 345.45 299.264 344.64 299.264 343.632C299.264 342.66 300.128 341.886 301.316 341.652C300.002 341.076 299.354 339.852 299.354 338.7C299.354 336.99 300.74 335.244 303.386 335.244C304.556 335.244 305.474 335.658 306.014 336.252V335.46H308.894V337.026ZM303.386 340.752C304.772 340.752 305.42 339.78 305.42 338.736C305.42 337.692 304.772 336.738 303.386 336.738C302.018 336.738 301.352 337.692 301.352 338.736C301.352 339.78 302.018 340.752 303.386 340.752ZM316.385 341.994L317.753 342.786C317.213 343.974 315.953 345.162 313.775 345.162C310.949 345.162 309.239 343.074 309.239 340.14C309.239 337.242 311.093 335.244 313.631 335.244C315.881 335.244 317.735 336.756 317.735 339.456L317.699 340.644H311.219C311.327 342.66 312.317 343.524 313.901 343.524C315.071 343.524 315.881 342.894 316.385 341.994ZM313.631 336.828C312.407 336.828 311.381 337.476 311.219 339.204H315.773C315.791 337.512 314.747 336.828 313.631 336.828ZM324.395 335.244C325.781 335.244 326.681 336.162 326.681 337.8V339.06L325.061 339.348V338.376C325.061 337.512 324.755 336.918 323.819 336.918C322.793 336.918 322.037 337.602 322.037 339.42V345H320.021V335.46H322.037V336.738C322.577 335.676 323.567 335.244 324.395 335.244Z" fill="white"/>
<path d="M781.528 343.944H787.032V345H780.408V333.16H781.528V343.944ZM794.715 345H793.723C793.595 344.536 793.499 343.976 793.499 343.336C793.067 344.328 791.963 345.128 790.587 345.128C789.083 345.128 787.947 344.152 787.947 342.696C787.947 340.952 789.515 340.04 791.259 340.04C791.947 340.04 792.619 340.12 793.307 340.36V339.24C793.307 338.136 792.635 337.384 791.323 337.384C790.267 337.384 789.371 337.848 788.923 339.144L787.963 338.856C788.603 337.064 789.899 336.392 791.387 336.392C793.483 336.392 794.363 337.656 794.363 339.112V342.6C794.363 343.56 794.523 344.424 794.715 345ZM793.307 341.48V341.288C792.651 341.016 791.979 340.936 791.323 340.936C790.043 340.936 789.035 341.512 789.035 342.632C789.035 343.656 789.755 344.2 790.779 344.2C791.883 344.2 793.307 343.544 793.307 341.48ZM804.373 337.416H802.549V337.72C802.965 338.232 803.189 338.872 803.189 339.496C803.189 341.048 802.069 342.632 799.685 342.632H799.317C798.357 342.632 797.669 343 797.669 343.56C797.669 343.992 798.005 344.296 798.709 344.296H802.149C803.525 344.296 804.229 344.968 804.229 346.024C804.229 347.704 802.293 348.584 799.909 348.584C797.765 348.584 796.277 347.896 795.765 346.408L796.645 346.008C797.237 347.4 798.485 347.672 799.909 347.672C801.669 347.672 803.141 347.144 803.141 346.12C803.141 345.64 802.885 345.288 802.117 345.288H798.469C797.285 345.288 796.581 344.728 796.581 343.848C796.581 343.096 797.205 342.44 798.245 342.168C797.125 341.72 796.501 340.536 796.501 339.496C796.501 337.976 797.637 336.392 799.877 336.392C800.757 336.392 801.429 336.68 801.941 337.112V336.52H804.373V337.416ZM799.861 341.736C801.365 341.736 802.117 340.696 802.117 339.496C802.117 338.312 801.365 337.32 799.861 337.32C798.341 337.32 797.573 338.328 797.573 339.496C797.573 340.68 798.341 341.736 799.861 341.736ZM808.91 336.392C810.014 336.392 810.814 337.128 810.814 338.568V339.4L809.822 339.592V338.76C809.822 337.912 809.534 337.352 808.67 337.352C807.694 337.352 806.958 338.072 806.958 339.784V345H805.87V336.52H806.958V337.576C807.406 336.776 808.158 336.392 808.91 336.392ZM818.071 342.6L818.871 343.048C818.471 344.072 817.415 345.128 815.527 345.128C813.143 345.128 811.735 343.352 811.735 340.648C811.735 338.168 813.207 336.392 815.415 336.392C817.239 336.392 818.807 337.704 818.807 340.008L818.775 340.952H812.839C812.935 343.208 814.007 344.168 815.639 344.168C816.919 344.168 817.671 343.432 818.071 342.6ZM815.415 337.352C814.135 337.352 812.983 338.04 812.839 340.056H817.735C817.783 338.152 816.663 337.352 815.415 337.352ZM830.593 342.6L831.393 343.048C830.993 344.072 829.937 345.128 828.049 345.128C825.665 345.128 824.257 343.352 824.257 340.648C824.257 338.168 825.729 336.392 827.937 336.392C829.761 336.392 831.329 337.704 831.329 340.008L831.297 340.952H825.361C825.457 343.208 826.529 344.168 828.161 344.168C829.441 344.168 830.193 343.432 830.593 342.6ZM827.937 337.352C826.657 337.352 825.505 338.04 825.361 340.056H830.257C830.305 338.152 829.185 337.352 827.937 337.352ZM836.981 336.392C838.677 336.392 839.669 337.432 839.669 339.336V345H838.581V339.496C838.581 337.96 837.877 337.384 836.693 337.384C835.205 337.384 834.517 338.536 834.517 340.232V345H833.429V336.52H834.517V337.832C835.029 336.904 835.957 336.392 836.981 336.392ZM847.945 333.16H849.033V345H847.945V343.416C847.385 344.504 846.265 345.112 845.161 345.112C843.001 345.112 841.545 343.304 841.545 340.84C841.545 338.232 843.017 336.392 845.289 336.392C846.473 336.392 847.433 336.984 847.945 338.056V333.16ZM845.273 344.152C846.969 344.152 847.945 342.888 847.945 340.808C847.945 338.6 846.985 337.352 845.289 337.352C843.705 337.352 842.665 338.568 842.665 340.792C842.665 342.936 843.705 344.152 845.273 344.152ZM854.553 336.392C855.657 336.392 856.457 337.128 856.457 338.568V339.4L855.465 339.592V338.76C855.465 337.912 855.177 337.352 854.313 337.352C853.337 337.352 852.601 338.072 852.601 339.784V345H851.513V336.52H852.601V337.576C853.049 336.776 853.801 336.392 854.553 336.392ZM858.951 334.984C858.423 334.984 857.991 334.568 857.991 334.024C857.991 333.48 858.423 333.064 858.951 333.064C859.479 333.064 859.911 333.48 859.911 334.024C859.911 334.568 859.479 334.984 858.951 334.984ZM858.407 345V336.52H859.495V345H858.407ZM865.603 336.392C867.299 336.392 868.291 337.432 868.291 339.336V345H867.203V339.496C867.203 337.96 866.499 337.384 865.315 337.384C863.827 337.384 863.139 338.536 863.139 340.232V345H862.051V336.52H863.139V337.832C863.651 336.904 864.579 336.392 865.603 336.392ZM878.326 337.416H876.502V337.72C876.918 338.232 877.142 338.872 877.142 339.496C877.142 341.048 876.022 342.632 873.638 342.632H873.27C872.31 342.632 871.622 343 871.622 343.56C871.622 343.992 871.958 344.296 872.662 344.296H876.102C877.478 344.296 878.182 344.968 878.182 346.024C878.182 347.704 876.246 348.584 873.862 348.584C871.718 348.584 870.23 347.896 869.718 346.408L870.598 346.008C871.19 347.4 872.438 347.672 873.862 347.672C875.622 347.672 877.094 347.144 877.094 346.12C877.094 345.64 876.838 345.288 876.07 345.288H872.422C871.238 345.288 870.534 344.728 870.534 343.848C870.534 343.096 871.158 342.44 872.198 342.168C871.078 341.72 870.454 340.536 870.454 339.496C870.454 337.976 871.59 336.392 873.83 336.392C874.71 336.392 875.382 336.68 875.894 337.112V336.52H878.326V337.416ZM873.814 341.736C875.318 341.736 876.07 340.696 876.07 339.496C876.07 338.312 875.318 337.32 873.814 337.32C872.294 337.32 871.526 338.328 871.526 339.496C871.526 340.68 872.294 341.736 873.814 341.736ZM884.974 342.6L885.774 343.048C885.374 344.072 884.318 345.128 882.43 345.128C880.046 345.128 878.638 343.352 878.638 340.648C878.638 338.168 880.11 336.392 882.318 336.392C884.142 336.392 885.71 337.704 885.71 340.008L885.678 340.952H879.742C879.838 343.208 880.91 344.168 882.542 344.168C883.822 344.168 884.574 343.432 884.974 342.6ZM882.318 337.352C881.038 337.352 879.886 338.04 879.742 340.056H884.638C884.686 338.152 883.566 337.352 882.318 337.352ZM890.85 336.392C891.954 336.392 892.754 337.128 892.754 338.568V339.4L891.762 339.592V338.76C891.762 337.912 891.474 337.352 890.61 337.352C889.634 337.352 888.898 338.072 888.898 339.784V345H887.81V336.52H888.898V337.576C889.346 336.776 890.098 336.392 890.85 336.392Z" fill="#2A2859"/>
<rect x="903" y="327" width="38" height="24" rx="12" stroke="#2A2859" stroke-width="2"/>
<g clip-path="url(#clip1_6732_10448)">
<circle cx="914.064" cy="339" r="10.25" stroke="#2A2859" stroke-width="2"/>
</g>
</g>
<defs>
<clipPath id="clip0_6732_10448">
<rect width="1116" height="416" fill="white"/>
</clipPath>
<clipPath id="clip1_6732_10448">
<rect width="24" height="24" fill="white" transform="translate(902.064 327)"/>
</clipPath>
</defs>
</svg>
