<svg width="455" height="286" viewBox="0 0 455 286" fill="none" xmlns="http://www.w3.org/2000/svg">
<rect width="455" height="286" fill="white"/>
<rect x="164.5" y="57" width="38" height="24" rx="12" fill="#2A2859" stroke="#2A2859" stroke-width="2"/>
<g clip-path="url(#clip0_6692_13795)">
<circle cx="190.064" cy="69" r="11.25" fill="white"/>
<path fill-rule="evenodd" clip-rule="evenodd" d="M195.843 66.1606L188.562 73.441L184.282 69.1606L185.343 68.1L188.562 71.3196L194.782 65.1L195.843 66.1606Z" fill="#2A2859"/>
</g>
<rect x="252.5" y="57" width="38" height="24" rx="12" stroke="#2A2859" stroke-width="2"/>
<g clip-path="url(#clip1_6692_13795)">
<circle cx="263.564" cy="69" r="10.25" stroke="#2A2859" stroke-width="2"/>
</g>
<path d="M125.524 137.16V138.216H121.812V149H120.692V138.216H116.98V137.16H125.524ZM131.687 146.6L132.487 147.048C132.087 148.072 131.031 149.128 129.143 149.128C126.759 149.128 125.351 147.352 125.351 144.648C125.351 142.168 126.823 140.392 129.031 140.392C130.855 140.392 132.423 141.704 132.423 144.008L132.391 144.952H126.455C126.551 147.208 127.623 148.168 129.255 148.168C130.535 148.168 131.287 147.432 131.687 146.6ZM129.031 141.352C127.751 141.352 126.599 142.04 126.455 144.056H131.351C131.399 142.152 130.279 141.352 129.031 141.352ZM139.803 149L136.683 144.792L135.643 145.784V149H134.555V137.16H135.643V144.504L139.675 140.52H141.115L137.419 144.072L141.179 149H139.803ZM141.907 142.728C141.907 141.384 143.171 140.392 144.947 140.392C146.483 140.392 147.667 141.128 148.019 142.248L147.123 142.6C146.787 141.784 146.003 141.352 144.915 141.352C143.731 141.352 142.963 141.848 142.963 142.632C142.963 143.336 143.427 143.768 144.435 143.976L145.555 144.2C147.411 144.568 148.275 145.368 148.275 146.632C148.275 148.104 146.963 149.128 145.075 149.128C143.363 149.128 142.163 148.456 141.587 147.176L142.515 146.792C142.915 147.688 143.795 148.168 145.043 148.168C146.355 148.168 147.219 147.592 147.219 146.728C147.219 145.928 146.771 145.496 145.651 145.256L144.275 144.968C142.723 144.648 141.907 143.864 141.907 142.728ZM151.756 146.888C151.756 147.88 152.348 148.168 152.876 148.168C153.388 148.168 153.724 147.976 154.124 147.56L154.7 148.2C154.14 148.856 153.532 149.128 152.78 149.128C151.628 149.128 150.668 148.36 150.668 146.856V141.416H149.068V140.52H150.668V138.696L151.756 138.056V140.52H154.508V141.416H151.756V146.888Z" fill="#2A2859"/>
<rect x="164.5" y="131" width="38" height="24" rx="12" fill="#2A2859" stroke="#2A2859" stroke-width="2"/>
<g clip-path="url(#clip2_6692_13795)">
<circle cx="190.064" cy="143" r="11.25" fill="white"/>
<path fill-rule="evenodd" clip-rule="evenodd" d="M195.843 140.161L188.562 147.441L184.282 143.161L185.343 142.1L188.562 145.32L194.782 139.1L195.843 140.161Z" fill="#2A2859"/>
</g>
<rect x="252.5" y="131" width="38" height="24" rx="12" fill="#2A2859" stroke="#2A2859" stroke-width="2"/>
<g clip-path="url(#clip3_6692_13795)">
<circle cx="278.064" cy="143" r="11.25" fill="white"/>
<path fill-rule="evenodd" clip-rule="evenodd" d="M283.843 140.161L276.562 147.441L272.282 143.161L273.343 142.1L276.562 145.32L282.782 139.1L283.843 140.161Z" fill="#2A2859"/>
</g>
<path d="M308.524 137.16V138.216H304.812V149H303.692V138.216H299.98V137.16H308.524ZM314.687 146.6L315.487 147.048C315.087 148.072 314.031 149.128 312.143 149.128C309.759 149.128 308.351 147.352 308.351 144.648C308.351 142.168 309.823 140.392 312.031 140.392C313.855 140.392 315.423 141.704 315.423 144.008L315.391 144.952H309.455C309.551 147.208 310.623 148.168 312.255 148.168C313.535 148.168 314.287 147.432 314.687 146.6ZM312.031 141.352C310.751 141.352 309.599 142.04 309.455 144.056H314.351C314.399 142.152 313.279 141.352 312.031 141.352ZM322.803 149L319.683 144.792L318.643 145.784V149H317.555V137.16H318.643V144.504L322.675 140.52H324.115L320.419 144.072L324.179 149H322.803ZM324.907 142.728C324.907 141.384 326.171 140.392 327.947 140.392C329.483 140.392 330.667 141.128 331.019 142.248L330.123 142.6C329.787 141.784 329.003 141.352 327.915 141.352C326.731 141.352 325.963 141.848 325.963 142.632C325.963 143.336 326.427 143.768 327.435 143.976L328.555 144.2C330.411 144.568 331.275 145.368 331.275 146.632C331.275 148.104 329.963 149.128 328.075 149.128C326.363 149.128 325.163 148.456 324.587 147.176L325.515 146.792C325.915 147.688 326.795 148.168 328.043 148.168C329.355 148.168 330.219 147.592 330.219 146.728C330.219 145.928 329.771 145.496 328.651 145.256L327.275 144.968C325.723 144.648 324.907 143.864 324.907 142.728ZM334.756 146.888C334.756 147.88 335.348 148.168 335.876 148.168C336.388 148.168 336.724 147.976 337.124 147.56L337.7 148.2C337.14 148.856 336.532 149.128 335.78 149.128C334.628 149.128 333.668 148.36 333.668 146.856V141.416H332.068V140.52H333.668V138.696L334.756 138.056V140.52H337.508V141.416H334.756V146.888Z" fill="#2A2859"/>
<path d="M125.524 211.16V212.216H121.812V223H120.692V212.216H116.98V211.16H125.524ZM131.687 220.6L132.487 221.048C132.087 222.072 131.031 223.128 129.143 223.128C126.759 223.128 125.351 221.352 125.351 218.648C125.351 216.168 126.823 214.392 129.031 214.392C130.855 214.392 132.423 215.704 132.423 218.008L132.391 218.952H126.455C126.551 221.208 127.623 222.168 129.255 222.168C130.535 222.168 131.287 221.432 131.687 220.6ZM129.031 215.352C127.751 215.352 126.599 216.04 126.455 218.056H131.351C131.399 216.152 130.279 215.352 129.031 215.352ZM139.803 223L136.683 218.792L135.643 219.784V223H134.555V211.16H135.643V218.504L139.675 214.52H141.115L137.419 218.072L141.179 223H139.803ZM141.907 216.728C141.907 215.384 143.171 214.392 144.947 214.392C146.483 214.392 147.667 215.128 148.019 216.248L147.123 216.6C146.787 215.784 146.003 215.352 144.915 215.352C143.731 215.352 142.963 215.848 142.963 216.632C142.963 217.336 143.427 217.768 144.435 217.976L145.555 218.2C147.411 218.568 148.275 219.368 148.275 220.632C148.275 222.104 146.963 223.128 145.075 223.128C143.363 223.128 142.163 222.456 141.587 221.176L142.515 220.792C142.915 221.688 143.795 222.168 145.043 222.168C146.355 222.168 147.219 221.592 147.219 220.728C147.219 219.928 146.771 219.496 145.651 219.256L144.275 218.968C142.723 218.648 141.907 217.864 141.907 216.728ZM151.756 220.888C151.756 221.88 152.348 222.168 152.876 222.168C153.388 222.168 153.724 221.976 154.124 221.56L154.7 222.2C154.14 222.856 153.532 223.128 152.78 223.128C151.628 223.128 150.668 222.36 150.668 220.856V215.416H149.068V214.52H150.668V212.696L151.756 212.056V214.52H154.508V215.416H151.756V220.888Z" fill="#2A2859"/>
<rect x="164.5" y="205" width="38" height="24" rx="12" stroke="#2A2859" stroke-width="2"/>
<g clip-path="url(#clip4_6692_13795)">
<circle cx="175.564" cy="217" r="10.25" stroke="#2A2859" stroke-width="2"/>
</g>
<rect x="252.5" y="205" width="38" height="24" rx="12" stroke="#2A2859" stroke-width="2"/>
<g clip-path="url(#clip5_6692_13795)">
<circle cx="263.564" cy="217" r="10.25" stroke="#2A2859" stroke-width="2"/>
</g>
<path d="M308.524 211.16V212.216H304.812V223H303.692V212.216H299.98V211.16H308.524ZM314.687 220.6L315.487 221.048C315.087 222.072 314.031 223.128 312.143 223.128C309.759 223.128 308.351 221.352 308.351 218.648C308.351 216.168 309.823 214.392 312.031 214.392C313.855 214.392 315.423 215.704 315.423 218.008L315.391 218.952H309.455C309.551 221.208 310.623 222.168 312.255 222.168C313.535 222.168 314.287 221.432 314.687 220.6ZM312.031 215.352C310.751 215.352 309.599 216.04 309.455 218.056H314.351C314.399 216.152 313.279 215.352 312.031 215.352ZM322.803 223L319.683 218.792L318.643 219.784V223H317.555V211.16H318.643V218.504L322.675 214.52H324.115L320.419 218.072L324.179 223H322.803ZM324.907 216.728C324.907 215.384 326.171 214.392 327.947 214.392C329.483 214.392 330.667 215.128 331.019 216.248L330.123 216.6C329.787 215.784 329.003 215.352 327.915 215.352C326.731 215.352 325.963 215.848 325.963 216.632C325.963 217.336 326.427 217.768 327.435 217.976L328.555 218.2C330.411 218.568 331.275 219.368 331.275 220.632C331.275 222.104 329.963 223.128 328.075 223.128C326.363 223.128 325.163 222.456 324.587 221.176L325.515 220.792C325.915 221.688 326.795 222.168 328.043 222.168C329.355 222.168 330.219 221.592 330.219 220.728C330.219 219.928 329.771 219.496 328.651 219.256L327.275 218.968C325.723 218.648 324.907 217.864 324.907 216.728ZM334.756 220.888C334.756 221.88 335.348 222.168 335.876 222.168C336.388 222.168 336.724 221.976 337.124 221.56L337.7 222.2C337.14 222.856 336.532 223.128 335.78 223.128C334.628 223.128 333.668 222.36 333.668 220.856V215.416H332.068V214.52H333.668V212.696L334.756 212.056V214.52H337.508V215.416H334.756V220.888Z" fill="#2A2859"/>
<defs>
<clipPath id="clip0_6692_13795">
<rect width="24" height="24" fill="white" transform="translate(178.064 57)"/>
</clipPath>
<clipPath id="clip1_6692_13795">
<rect width="24" height="24" fill="white" transform="translate(251.564 57)"/>
</clipPath>
<clipPath id="clip2_6692_13795">
<rect width="24" height="24" fill="white" transform="translate(178.064 131)"/>
</clipPath>
<clipPath id="clip3_6692_13795">
<rect width="24" height="24" fill="white" transform="translate(266.064 131)"/>
</clipPath>
<clipPath id="clip4_6692_13795">
<rect width="24" height="24" fill="white" transform="translate(163.564 205)"/>
</clipPath>
<clipPath id="clip5_6692_13795">
<rect width="24" height="24" fill="white" transform="translate(251.564 205)"/>
</clipPath>
</defs>
</svg>
